<svg version="1.1" id="Layer_1" xmlns="http://www.w3.org/2000/svg" xmlns:xlink="http://www.w3.org/1999/xlink" x="0px" y="0px"
	 width="100%" viewBox="0 0 1024 912" enable-background="new 0 0 1024 912" xml:space="preserve">
<path fill="#000000" opacity="1.000000" stroke="none" 
	d="
M265.621033,577.500549 
	C251.869614,573.992859 239.326462,568.861877 228.315018,560.354431 
	C210.444199,546.547607 202.885056,527.694763 202.779648,505.835602 
	C202.490433,445.849121 202.668472,385.860413 202.659424,325.872589 
	C202.656708,307.827423 196.537445,298.784088 179.685120,291.867310 
	C171.495590,288.506012 163.145386,285.697174 154.298859,284.696625 
	C150.419434,284.257874 149.384552,282.641663 150.383621,278.663757 
	C154.984634,260.344391 163.514130,243.807785 173.121262,227.774536 
	C180.143097,216.055847 187.489120,204.507538 197.267700,194.800446 
	C208.909393,183.243820 216.477844,181.955963 231.463516,188.656113 
	C241.688934,193.227936 251.196548,199.091339 260.581787,205.118210 
	C269.952393,211.135681 279.851990,213.967514 290.950348,211.820343 
	C291.920166,211.632706 292.944550,211.668671 293.940857,211.696762 
	C294.582062,211.714813 295.218292,211.908463 295.877411,212.027145 
	C297.198303,214.665726 295.909149,217.043976 295.319214,219.352325 
	C292.268677,231.288788 287.376709,242.299927 278.640747,251.286575 
	C269.837494,260.342499 259.381012,263.267639 247.201080,259.764099 
	C239.987473,257.689117 232.961182,255.176224 226.338425,251.544800 
	C220.487076,248.336349 214.440811,245.594421 207.628204,244.934860 
	C202.002625,244.390228 197.345169,246.374680 194.737518,251.354614 
	C192.127228,256.339569 189.907440,261.529022 187.476120,266.714935 
	C190.010864,269.013214 192.933701,269.089966 195.612640,269.688904 
	C210.938705,273.115417 225.940323,277.547180 239.946625,284.763428 
	C246.963333,288.378571 253.465561,292.812134 256.266876,300.821014 
	C257.155762,303.362274 257.236115,306.027802 257.232574,308.711670 
	C257.204834,329.707336 257.337799,350.704224 257.133331,371.697937 
	C257.087708,376.382996 258.364838,378.086090 263.283264,378.066345 
	C302.941162,377.907196 342.600403,377.911621 382.258209,378.090942 
	C387.380066,378.114105 388.823547,376.372986 388.743805,371.420166 
	C388.489014,355.594269 388.525543,339.759949 388.708588,323.931885 
	C388.860168,310.825317 383.410797,301.229034 371.819855,295.079315 
	C362.170319,289.959564 352.018951,286.310852 341.167145,284.945374 
	C336.332825,284.337036 335.220459,282.502808 336.523590,277.690063 
	C342.346588,256.184235 352.697968,236.906586 364.838501,218.460449 
	C371.435150,208.437607 378.130402,198.531937 387.457184,190.671158 
	C394.516724,184.721252 402.071320,183.466766 410.752899,186.255890 
	C423.302399,190.287720 434.118958,197.538147 445.115906,204.409760 
	C455.070862,210.630310 465.387177,214.374466 477.290222,211.798630 
	C478.705841,211.492279 480.282471,211.371033 481.846344,212.571533 
	C482.033295,216.783417 480.813690,220.852722 479.466278,224.946930 
	C476.682159,233.406891 472.808990,241.282547 467.278198,248.279800 
	C458.409454,259.500092 446.462708,263.194885 432.622131,259.637909 
	C422.829620,257.121277 414.064362,252.327209 405.019348,248.130890 
	C401.187408,246.353104 397.216858,245.325760 393.038361,244.877075 
	C388.107605,244.347595 384.145630,246.067871 381.435028,250.114731 
	C377.998840,255.244858 375.875946,261.020721 373.649200,266.702423 
	C375.908325,269.011230 378.670776,269.096680 381.198242,269.661011 
	C396.521240,273.082275 411.483459,277.548187 425.570770,284.628784 
	C428.867584,286.285797 431.806915,288.457916 434.717194,290.695038 
	C440.255249,294.952148 442.969086,300.561737 442.965454,307.524658 
	C442.931671,371.844788 442.919189,436.164917 442.857391,500.485016 
	C442.838989,519.636047 439.006927,537.591309 425.679993,552.328979 
	C413.721649,565.553162 398.203186,572.677185 381.391571,577.091125 
	C354.334015,584.195190 326.748810,584.374573 299.039795,582.582520 
	C287.869019,581.860168 276.856567,580.395447 265.621033,577.500549 
M291.500000,406.233490 
	C281.835968,406.237885 272.169891,406.358093 262.508881,406.189301 
	C258.677490,406.122406 257.149658,407.444275 257.164124,411.376923 
	C257.282318,443.534149 256.933624,475.696899 257.412445,507.847748 
	C257.751312,530.602844 270.881927,546.350708 292.828247,552.244202 
	C308.842194,556.544556 325.027985,556.565491 341.350372,554.637390 
	C371.642395,551.059143 388.629639,532.164368 388.656677,501.776886 
	C388.683197,471.951691 388.548798,442.125763 388.742340,412.301819 
	C388.773956,407.427277 387.225861,406.106323 382.474976,406.136169 
	C352.484314,406.324799 322.491852,406.232513 291.500000,406.233490 
z"/>
<path fill="#000000" opacity="1.000000" stroke="none" 
	d="
M573.980835,523.000000 
	C573.980713,483.386322 573.980713,444.272614 573.980713,405.635742 
	C576.549133,404.013092 577.963074,405.300720 579.398743,405.944244 
	C594.446472,412.688995 609.444946,419.544556 624.529907,426.204407 
	C627.430786,427.485168 628.406433,429.268280 628.377686,432.335724 
	C628.257507,445.166321 628.451843,458.000519 628.266541,470.829559 
	C628.206238,475.003906 629.426086,476.454773 633.861877,476.851105 
	C652.103333,478.480927 667.528809,486.728455 681.242676,498.450592 
	C693.020630,508.517944 702.942444,520.597534 715.362244,529.985229 
	C719.620605,533.203918 723.881104,536.389648 728.629211,538.867676 
	C745.637451,547.744202 759.330383,539.825317 759.651306,520.655945 
	C759.927429,504.162323 759.758118,487.661163 759.781494,471.163361 
	C759.789734,465.330719 759.785156,459.498108 759.786804,453.665466 
	C759.791138,437.840729 759.755371,437.921539 745.229248,431.467712 
	C710.524292,416.048523 675.738281,400.803406 641.219482,384.976593 
	C621.529907,375.948975 603.669495,364.020630 589.825562,346.963623 
	C579.399719,334.118011 573.998230,319.335358 574.036011,302.716370 
	C574.072388,286.728241 573.214722,270.699005 574.822510,254.765549 
	C577.340820,229.808456 590.011047,211.579315 612.342590,200.073044 
	C629.224854,191.374527 647.469666,187.792007 666.116516,186.018677 
	C691.429810,183.611343 716.711670,184.050964 741.769531,188.720612 
	C759.972473,192.112793 777.184448,198.008514 791.592957,210.318954 
	C806.333130,222.912689 813.303528,239.504471 814.009338,258.233337 
	C814.924988,282.530090 814.389343,306.885681 814.275513,331.215027 
	C814.229675,341.008850 809.340637,348.347198 800.452942,352.011993 
	C783.205994,359.123749 765.217590,360.605774 747.123169,355.879364 
	C734.345093,352.541565 725.859009,340.371979 724.649170,325.841736 
	C724.178223,320.185730 723.889465,314.562256 725.034973,308.997253 
	C727.939453,294.887238 737.516357,286.377106 753.092407,284.845520 
	C758.534546,284.310394 760.219727,282.281647 759.865173,277.068481 
	C759.312683,268.943939 760.248291,260.771973 758.900391,252.639404 
	C756.108521,235.795944 746.528015,224.051682 730.834839,218.513901 
	C705.862793,209.701813 680.385742,209.493347 655.630310,219.431702 
	C639.605896,225.864899 630.891296,238.855133 629.290771,255.983963 
	C627.492065,275.233246 627.123413,294.618073 629.515869,313.801544 
	C631.875916,332.725159 643.028076,346.668549 657.794800,358.041473 
	C673.167542,369.881195 691.056335,376.909027 708.499329,384.782074 
	C742.051392,399.926086 775.628784,415.014709 809.252197,429.999359 
	C812.906372,431.627899 814.463196,433.621216 814.431335,437.839996 
	C814.226990,464.835144 814.399597,491.832947 814.286072,518.829224 
	C814.237244,530.431641 812.194214,541.692871 806.977844,552.188843 
	C800.019653,566.189819 788.257263,574.472473 773.808777,579.172974 
	C761.798645,583.080261 749.329651,584.129822 736.774292,583.276428 
	C724.484802,582.441040 714.317322,576.644409 704.952393,569.000854 
	C691.346985,557.896240 682.245178,542.907043 670.799072,529.945618 
	C661.672607,519.610962 651.734192,510.357361 638.201477,506.012024 
	C638.042908,505.961090 637.889404,505.893951 637.730103,505.845673 
	C628.792297,503.136932 628.347229,503.446686 628.340942,512.483154 
	C628.330627,527.314697 628.380127,542.146423 628.308655,556.977661 
	C628.260620,566.949097 626.329712,576.380066 615.964905,580.603455 
	C604.654663,585.212158 593.023865,585.581482 582.678528,578.000305 
	C575.079956,572.432007 574.267578,563.591919 574.070129,554.991943 
	C573.829163,544.499512 573.992432,533.997742 573.980835,523.000000 
M752.040222,319.553162 
	C752.786804,327.107727 754.176331,328.960510 759.304016,329.002960 
	C760.236145,324.950165 759.555603,320.804779 759.724487,316.705750 
	C759.787598,315.172760 760.346802,313.095215 758.106323,312.546478 
	C756.168518,312.071899 754.587830,313.165527 753.290039,314.539062 
	C752.189026,315.704315 752.085083,317.217224 752.040222,319.553162 
z"/>
<path fill="#000000" opacity="1.000000" stroke="none" 
	d="
M275.006165,146.189407 
	C263.638824,146.455505 252.891388,145.614975 242.422577,142.481201 
	C227.606049,138.045929 217.990585,128.440582 216.411896,112.912636 
	C214.259689,91.743690 217.985489,71.927666 234.643585,56.722904 
	C245.091339,47.186649 258.000305,42.929668 271.698914,40.699512 
	C293.723114,37.113930 315.470551,39.157875 337.081573,43.927322 
	C342.075470,45.029449 346.676025,47.607620 351.747253,48.138195 
	C353.320007,46.349541 352.756439,44.432655 352.770782,42.681553 
	C352.841614,34.018131 352.865906,25.353321 352.781860,16.690212 
	C352.754578,13.878795 353.676483,12.151470 356.680054,12.143378 
	C366.508850,12.116899 376.337708,12.129788 386.166565,12.121972 
	C389.175598,12.119578 389.498138,13.947945 389.496185,16.449345 
	C389.484467,31.432222 389.700684,46.415924 389.592987,61.397575 
	C389.569061,64.723099 390.219360,66.966064 393.308716,68.717064 
	C401.995026,73.640297 409.803223,79.891830 418.133209,86.067596 
	C419.305115,83.818047 419.481140,81.745369 419.468689,79.636978 
	C419.347473,59.148376 419.304840,38.658646 419.024658,18.172180 
	C418.963257,13.680502 420.487274,11.880780 425.055420,12.008370 
	C433.546661,12.245534 442.050476,12.230646 450.544678,12.077554 
	C454.861115,11.999757 456.258698,13.697823 456.244232,18.012030 
	C456.119995,55.000145 456.216736,91.988930 456.181519,128.977463 
	C456.172211,138.751373 452.070557,143.249268 441.368591,145.063858 
	C437.123718,145.783615 432.764984,146.130081 428.457367,146.136292 
	C377.473267,146.209839 326.489014,146.186722 275.006165,146.189407 
M323.500000,118.069954 
	C349.832916,118.069954 376.165863,118.069954 403.345184,118.069954 
	C400.258942,113.539101 396.414185,112.037476 393.202026,109.792740 
	C374.051971,96.410179 353.686768,85.884575 330.121124,82.601181 
	C313.421631,80.274437 296.730896,78.846649 279.960785,81.370613 
	C265.974762,83.475555 257.524658,92.216576 257.245880,104.386971 
	C257.018250,114.324127 260.558044,118.012871 270.553131,118.040833 
	C287.868652,118.089264 305.184357,118.064125 323.500000,118.069954 
z"/>
<path fill="chocolate" opacity="1.000000" stroke="none" 
	d="
M401.668396,712.999878 
	C401.649597,694.678528 401.586090,676.856934 401.657440,659.035950 
	C401.669220,656.091736 400.946411,654.124756 398.153748,652.601074 
	C388.562592,647.368408 387.127167,636.962219 389.304688,624.686096 
	C390.959381,615.357544 398.685150,609.486084 409.223267,608.850891 
	C414.497101,608.532959 419.848389,608.125793 425.126556,609.437500 
	C437.235474,612.446777 442.579468,618.786072 442.981720,631.311707 
	C443.206116,638.299561 443.016357,645.300476 443.019531,652.295532 
	C443.034241,684.607178 443.055084,716.918762 443.064117,749.230408 
	C443.065979,756.005615 442.865509,756.202515 436.038300,756.210022 
	C426.211548,756.220886 416.382812,756.088379 406.559052,756.257996 
	C402.623657,756.325928 401.436493,754.922058 401.520874,750.972778 
	C401.787720,738.486511 401.649994,725.991516 401.668396,712.999878 
z"/>
</svg>