<svg version="1.1" id="Layer_1" xmlns="http://www.w3.org/2000/svg" xmlns:xlink="http://www.w3.org/1999/xlink" x="0px" y="0px"
	 width="100%" viewBox="0 0 1414 892" enable-background="new 0 0 1414 892" xml:space="preserve">
<path fill="#FFFFFF" opacity="1.000000" stroke="none" 
	d="
M1020.000000,893.000000 
	C680.000000,893.000000 340.500000,893.000000 1.000000,893.000000 
	C1.000000,595.666687 1.000000,298.333344 1.000000,1.000000 
	C472.333344,1.000000 943.666687,1.000000 1415.000000,1.000000 
	C1415.000000,298.333344 1415.000000,595.666687 1415.000000,893.000000 
	C1283.500000,893.000000 1152.000000,893.000000 1020.000000,893.000000 
M502.982666,639.604919 
	C509.148499,636.340454 515.504211,633.378906 521.400391,629.684143 
	C524.369629,627.823547 526.137451,628.334839 528.907776,629.861755 
	C536.160950,633.859680 543.451111,638.006531 551.175110,640.894287 
	C575.555664,650.009216 601.140564,651.863403 626.873901,651.940796 
	C653.969788,652.022339 680.795532,649.771423 706.414368,639.980957 
	C725.837524,632.558228 741.746643,620.916321 751.242371,601.755066 
	C757.626709,588.872314 759.192627,575.113220 759.185364,560.986572 
	C759.149048,490.329163 759.061218,419.671356 759.295776,349.014740 
	C759.327454,339.470520 755.596497,332.834137 748.094055,327.603760 
	C734.447693,318.090118 718.743164,313.629822 703.070251,309.124817 
	C696.234497,307.159973 689.266785,305.654358 682.111633,303.878815 
	C684.224976,299.126862 686.181030,294.720673 688.145203,290.318146 
	C688.619263,289.255676 689.070557,288.178741 689.617126,287.153656 
	C694.089355,278.766388 699.051086,276.187012 708.372803,277.960846 
	C711.926636,278.637085 715.388977,280.002075 718.763977,281.371185 
	C729.068970,285.551453 739.115967,290.464172 749.626770,294.016693 
	C763.161621,298.591370 774.939575,294.385498 784.409546,284.079010 
	C795.216919,272.316895 800.499268,257.967712 803.115540,241.867996 
	C800.992798,242.132111 799.227722,242.529602 797.460632,242.538437 
	C792.000854,242.565750 786.489990,242.892426 781.090759,242.285736 
	C770.766357,241.125626 763.110779,234.053375 754.311890,229.473022 
	C743.729614,223.964279 733.055298,218.556824 722.083435,213.900406 
	C715.506775,211.109283 708.519043,212.146011 702.756226,216.784042 
	C698.367065,220.316483 693.947937,224.001022 690.351929,228.295898 
	C676.609863,244.708450 665.365540,262.808014 656.001770,282.020599 
	C649.997620,294.339996 644.926331,307.069244 642.437622,319.746185 
	C653.629578,323.163300 664.740662,325.642578 675.107910,329.923218 
	C693.148010,337.371979 701.038147,347.017853 700.933044,367.533081 
	C700.640137,424.690765 700.867065,481.850983 700.800110,539.010071 
	C700.787231,549.998718 700.651489,561.001404 700.082336,571.972168 
	C698.917908,594.416870 683.977234,612.449768 662.304810,618.101746 
	C638.759521,624.242249 615.114319,624.502686 591.758057,617.791931 
	C576.388184,613.375854 563.889771,604.280029 558.823853,588.443909 
	C555.985168,579.570068 554.411377,569.905457 554.364075,560.586487 
	C554.006531,490.097504 554.059204,419.605560 554.300415,349.115601 
	C554.332336,339.784119 550.817749,333.257904 543.521729,328.004944 
	C531.679382,319.478851 518.055786,315.107483 504.360626,310.975739 
	C495.360779,308.260529 486.168030,306.184692 476.728577,303.736145 
	C479.979279,297.085480 482.910309,290.748901 486.144806,284.571198 
	C489.111481,278.905029 494.234314,276.685852 500.319092,277.639252 
	C504.863342,278.351227 509.391388,279.695892 513.684448,281.377167 
	C524.187439,285.490173 534.338501,290.602905 545.022766,294.126221 
	C558.369629,298.527649 569.936401,294.262451 579.276733,284.037842 
	C590.057129,272.236877 595.444031,257.965118 598.049744,242.465607 
	C597.526917,242.261597 597.229553,242.058716 596.923035,242.043808 
	C596.260498,242.011581 595.572815,241.978745 594.931152,242.114761 
	C580.920471,245.084793 568.479126,241.672089 556.528748,233.984573 
	C546.482605,227.521957 535.958374,221.651276 525.159729,216.546585 
	C510.340454,209.541275 501.989655,211.405411 490.470093,222.743622 
	C477.388672,235.619141 468.005035,251.197052 458.940582,266.911530 
	C449.228729,283.748291 441.093964,301.313873 437.258972,320.768585 
	C439.581512,321.202362 441.696136,321.607300 443.814545,321.991302 
	C456.002136,324.200714 467.717987,327.705505 478.494690,334.038818 
	C489.763367,340.661194 495.784363,350.129578 495.537903,363.449249 
	C495.343750,373.944275 495.518402,384.445801 495.495941,394.944397 
	C495.369934,453.766602 495.419983,512.590149 495.004669,571.410339 
	C494.850220,593.285889 479.146149,612.274902 457.821014,617.998596 
	C437.195984,623.534546 416.373688,624.015686 395.476929,620.016602 
	C379.570679,616.972534 365.843018,610.161560 356.957489,595.815125 
	C350.277863,585.030273 349.163971,573.003662 349.164825,560.722961 
	C349.171967,456.069977 349.170807,351.416992 349.158356,246.764023 
	C349.158020,243.933655 349.175842,241.085495 348.887238,238.276230 
	C347.928436,228.942825 343.439606,221.778091 334.690613,218.163696 
	C329.370331,215.965775 323.663330,214.239105 317.972839,213.481491 
	C291.690643,209.982300 270.681885,216.903564 254.632080,240.918701 
	C237.975037,265.842438 234.564163,293.463531 240.369614,322.288391 
	C243.455215,337.608826 251.756104,349.785675 267.309448,354.984619 
	C274.618347,357.427765 282.453461,358.296570 290.499146,359.972351 
	C290.499146,374.553833 290.466187,389.679565 290.505035,404.805145 
	C290.647980,460.459900 290.185852,516.126465 291.233459,571.764465 
	C291.770874,600.306885 306.340515,621.469482 331.807770,634.786926 
	C350.430206,644.525024 370.594421,648.719482 391.258179,650.473267 
	C428.859985,653.664490 466.152832,652.746521 502.982666,639.604919 
M1028.482300,242.026093 
	C1020.753113,234.940125 1013.285583,227.538391 1005.221436,220.856689 
	C997.096008,214.124146 988.157471,210.429611 977.078796,214.527145 
	C962.251099,220.011337 949.819763,229.172226 937.750977,238.854462 
	C916.200073,256.143768 905.508423,278.267822 905.645874,306.530426 
	C906.150085,410.188324 905.844849,513.850220 905.851013,617.510559 
	C905.851135,619.842651 905.865784,622.177979 905.983276,624.506287 
	C906.498169,634.711670 911.191711,642.400330 920.504944,646.637451 
	C934.681702,653.087158 949.668030,653.230164 964.603943,650.449036 
	C988.073181,646.078979 1002.536926,630.962830 1011.139343,609.525513 
	C1021.980896,582.508240 1024.259399,554.125854 1022.453003,525.548767 
	C1020.675537,497.430298 1005.703552,481.844482 978.608337,477.272675 
	C973.932495,476.483734 969.144714,476.358093 964.154297,475.902863 
	C964.154297,473.420929 964.154358,471.438080 964.154358,469.455231 
	C964.154358,415.125183 964.131897,360.795135 964.188843,306.465149 
	C964.194580,300.976318 964.471497,295.468201 964.989746,290.003845 
	C965.872437,280.695221 968.994690,272.176483 974.953979,264.851074 
	C981.690125,256.570831 989.059631,254.927689 998.293396,260.140900 
	C1002.603210,262.574188 1006.974060,265.348358 1010.359070,268.885071 
	C1019.876953,278.829620 1028.897461,289.250305 1037.982422,299.337128 
	C1044.435181,291.672699 1050.979126,282.986267 1058.507324,275.258636 
	C1064.129150,269.487823 1070.600098,264.270874 1077.455811,260.044800 
	C1085.954102,254.806152 1092.523682,256.399994 1099.253662,263.760803 
	C1101.037598,265.711853 1102.559570,267.945251 1103.954102,270.202057 
	C1110.387939,280.613464 1110.791382,292.345825 1110.799316,304.015045 
	C1110.876343,417.841431 1110.845703,531.667908 1110.845703,645.494324 
	C1110.845703,647.576355 1110.845703,649.658386 1110.845703,651.740356 
	C1130.701050,651.740356 1149.804688,651.740356 1169.409546,651.740356 
	C1169.409546,649.365417 1169.409546,647.244324 1169.409546,645.123230 
	C1169.409546,542.629456 1169.391235,440.135681 1169.430420,337.641907 
	C1169.435913,323.148224 1169.531738,308.649536 1169.921997,294.162231 
	C1170.511475,272.277618 1183.372070,254.851135 1203.954468,247.784988 
	C1227.704102,239.631516 1251.826416,240.101456 1275.845825,245.936325 
	C1289.472290,249.246506 1301.038940,256.424164 1308.364258,269.009247 
	C1314.608521,279.737061 1315.981567,291.613861 1315.984375,303.717957 
	C1316.010742,417.711029 1316.000000,531.704102 1316.000000,645.697205 
	C1316.000000,647.648926 1316.000000,649.600708 1316.000000,651.638428 
	C1335.710693,651.638428 1354.924805,651.638428 1374.409546,651.638428 
	C1374.409546,649.119751 1374.409546,646.961731 1374.409546,644.803772 
	C1374.409546,535.477051 1374.418091,426.150360 1374.392578,316.823669 
	C1374.390625,308.660645 1374.353149,300.487885 1373.970459,292.336639 
	C1373.091064,273.610138 1366.113770,257.448944 1352.933838,244.050461 
	C1336.856201,227.706207 1316.127319,221.165573 1294.486328,217.055817 
	C1268.312988,212.085373 1241.858765,211.288422 1215.376709,214.078522 
	C1196.391357,216.078766 1177.796875,220.009659 1161.297119,230.230072 
	C1155.016357,234.120544 1149.496948,239.239746 1143.620361,243.806824 
	C1138.899780,240.070816 1134.209717,236.071426 1129.227661,232.476959 
	C1119.374146,225.367935 1109.563232,218.191910 1097.781128,214.323807 
	C1090.141479,211.815735 1082.733154,211.875122 1076.422241,216.885223 
	C1066.548828,224.723709 1057.127686,233.138550 1047.630737,241.441650 
	C1044.059570,244.563950 1040.811401,248.055435 1037.259644,251.531616 
	C1034.382202,248.407913 1031.677490,245.471695 1028.482300,242.026093 
M34.322971,322.096161 
	C43.061481,324.719391 52.154289,326.526794 60.464684,330.135834 
	C77.730995,337.634277 85.813766,346.855835 85.607185,367.190704 
	C85.228027,404.513550 85.499115,441.842987 85.499107,479.169678 
	C85.499107,525.828064 85.483620,572.486389 85.506821,619.144775 
	C85.515907,637.422791 93.213905,646.751587 111.156738,650.294556 
	C113.929077,650.842041 116.745865,651.193848 119.555840,651.516418 
	C138.960922,653.744385 156.261871,649.270325 167.221863,632.216309 
	C173.682678,622.163086 178.480911,610.656494 181.998795,599.181824 
	C188.148956,579.121094 190.345551,558.365906 185.987671,537.523560 
	C183.152283,523.962830 176.365234,512.922485 162.316391,508.470154 
	C156.537003,506.638550 150.345520,506.107178 144.000977,504.920715 
	C144.000977,503.264404 144.000977,501.456055 144.000977,499.647705 
	C144.000977,449.489960 143.873825,399.331604 144.113647,349.175018 
	C144.158875,339.714386 140.535522,333.018616 133.010529,327.717133 
	C121.231689,319.418762 107.814102,315.015350 94.250999,310.988617 
	C85.257668,308.318573 76.109512,306.170013 66.882500,303.749146 
	C69.093155,298.791504 71.123398,294.235016 73.157417,289.680267 
	C73.496895,288.920074 73.830780,288.156158 74.204407,287.412628 
	C78.345100,279.172638 83.314240,276.359894 92.302269,277.876129 
	C96.185265,278.531128 100.000710,279.922455 103.677338,281.400848 
	C113.995445,285.549866 124.089943,290.291321 134.533127,294.081360 
	C142.822098,297.089569 151.380753,296.535980 159.098495,291.896423 
	C177.730789,280.695465 183.721710,262.139801 187.981934,242.485596 
	C187.089020,242.220367 186.769196,242.024536 186.472687,242.055084 
	C185.319870,242.173828 184.173935,242.360733 183.026413,242.528946 
	C171.819061,244.171768 161.134888,242.908325 151.291321,236.872635 
	C145.190155,233.131622 139.259644,229.050064 132.906204,225.797974 
	C124.355759,221.421310 115.619812,217.317230 106.679146,213.823883 
	C100.579422,211.440552 94.048004,211.984924 88.589333,216.019241 
	C84.201187,219.262375 79.861847,222.800369 76.311699,226.908264 
	C62.195328,243.242493 50.918869,261.529022 41.326385,280.788910 
	C35.049557,293.391541 29.802578,306.489136 26.889328,320.704437 
	C29.291208,321.167908 31.388178,321.572571 34.322971,322.096161 
M1342.595337,796.126587 
	C1346.402222,792.896667 1350.404297,789.868164 1353.982910,786.402527 
	C1370.796143,770.120422 1376.594116,750.055481 1373.834961,727.190186 
	C1372.351196,714.894470 1369.022583,703.230164 1359.837402,694.317932 
	C1345.906372,680.800903 1328.781372,679.548523 1310.911133,682.857239 
	C1295.782227,685.658386 1288.766235,694.066406 1288.099854,709.346008 
	C1287.527466,722.467590 1298.169556,736.748596 1313.884033,732.228882 
	C1314.437866,732.069580 1315.077515,732.208557 1316.722290,732.208557 
	C1315.689575,741.868774 1315.293945,751.205200 1313.550415,760.282776 
	C1311.828003,769.250671 1306.711792,776.325256 1298.381714,780.922913 
	C1288.152832,786.568542 1277.243774,788.890076 1265.713989,788.186584 
	C1254.290649,787.489624 1244.281738,782.278137 1234.346924,777.262695 
	C1205.701294,762.801392 1179.903198,743.797791 1153.268555,726.117371 
	C1128.018555,709.356262 1101.268066,695.600769 1071.553955,688.566650 
	C1043.829102,682.003357 1015.756287,678.940491 987.351807,683.083557 
	C960.487427,687.002014 937.147766,698.340271 918.367737,718.190979 
	C909.962219,727.075684 906.351868,738.038818 905.968750,750.178040 
	C915.826721,743.551819 924.934692,736.508728 934.867615,730.936035 
	C958.999207,717.397644 985.020935,713.503601 1012.106201,718.897583 
	C1033.238647,723.106140 1052.348145,732.810181 1070.938232,743.268311 
	C1092.849609,755.595032 1114.395996,768.572083 1136.062988,781.331055 
	C1170.891846,801.840637 1207.302856,817.230835 1248.571899,818.620605 
	C1281.838135,819.740906 1313.818970,816.444885 1342.595337,796.126587 
M524.017212,164.518600 
	C533.528564,165.851273 543.033264,168.280670 552.552307,168.337631 
	C611.865906,168.692612 671.182678,168.527847 730.498413,168.489334 
	C734.150024,168.486954 737.868530,168.462723 741.441467,167.816101 
	C757.876770,164.841583 759.392090,160.393906 759.293152,147.945328 
	C758.973938,107.793106 759.174133,67.636757 759.174133,27.481997 
	C759.174133,25.728392 759.174133,23.974789 759.174133,22.232628 
	C745.812744,22.232628 733.062439,22.232628 719.939758,22.232628 
	C719.939758,49.841366 719.939758,77.215340 719.939758,105.241570 
	C718.795654,104.407181 718.148987,103.963013 717.531616,103.481277 
	C695.656311,86.413635 672.248352,72.078796 645.946899,62.750919 
	C614.268372,51.516064 581.982605,47.984962 548.940735,55.149361 
	C533.015259,58.602436 519.024048,65.639908 508.853302,79.073822 
	C498.839539,92.300369 496.186859,107.491158 495.751709,123.557854 
	C495.245972,142.230026 503.321442,157.569168 524.017212,164.518600 
z"/>
<path fill="#010101" opacity="1.000000" stroke="none" 
	d="
M502.621368,639.740234 
	C466.152832,652.746521 428.859985,653.664490 391.258179,650.473267 
	C370.594421,648.719482 350.430206,644.525024 331.807770,634.786926 
	C306.340515,621.469482 291.770874,600.306885 291.233459,571.764465 
	C290.185852,516.126465 290.647980,460.459900 290.505035,404.805145 
	C290.466187,389.679565 290.499146,374.553833 290.499146,359.972351 
	C282.453461,358.296570 274.618347,357.427765 267.309448,354.984619 
	C251.756104,349.785675 243.455215,337.608826 240.369614,322.288391 
	C234.564163,293.463531 237.975037,265.842438 254.632080,240.918701 
	C270.681885,216.903564 291.690643,209.982300 317.972839,213.481491 
	C323.663330,214.239105 329.370331,215.965775 334.690613,218.163696 
	C343.439606,221.778091 347.928436,228.942825 348.887238,238.276230 
	C349.175842,241.085495 349.158020,243.933655 349.158356,246.764023 
	C349.170807,351.416992 349.171967,456.069977 349.164825,560.722961 
	C349.163971,573.003662 350.277863,585.030273 356.957489,595.815125 
	C365.843018,610.161560 379.570679,616.972534 395.476929,620.016602 
	C416.373688,624.015686 437.195984,623.534546 457.821014,617.998596 
	C479.146149,612.274902 494.850220,593.285889 495.004669,571.410339 
	C495.419983,512.590149 495.369934,453.766602 495.495941,394.944397 
	C495.518402,384.445801 495.343750,373.944275 495.537903,363.449249 
	C495.784363,350.129578 489.763367,340.661194 478.494690,334.038818 
	C467.717987,327.705505 456.002136,324.200714 443.814545,321.991302 
	C441.696136,321.607300 439.581512,321.202362 437.258972,320.768585 
	C441.093964,301.313873 449.228729,283.748291 458.940582,266.911530 
	C468.005035,251.197052 477.388672,235.619141 490.470093,222.743622 
	C501.989655,211.405411 510.340454,209.541275 525.159729,216.546585 
	C535.958374,221.651276 546.482605,227.521957 556.528748,233.984573 
	C568.479126,241.672089 580.920471,245.084793 594.931152,242.114761 
	C595.572815,241.978745 596.260498,242.011581 596.923035,242.043808 
	C597.229553,242.058716 597.526917,242.261597 598.049744,242.465607 
	C595.444031,257.965118 590.057129,272.236877 579.276733,284.037842 
	C569.936401,294.262451 558.369629,298.527649 545.022766,294.126221 
	C534.338501,290.602905 524.187439,285.490173 513.684448,281.377167 
	C509.391388,279.695892 504.863342,278.351227 500.319092,277.639252 
	C494.234314,276.685852 489.111481,278.905029 486.144806,284.571198 
	C482.910309,290.748901 479.979279,297.085480 476.728577,303.736145 
	C486.168030,306.184692 495.360779,308.260529 504.360626,310.975739 
	C518.055786,315.107483 531.679382,319.478851 543.521729,328.004944 
	C550.817749,333.257904 554.332336,339.784119 554.300415,349.115601 
	C554.059204,419.605560 554.006531,490.097504 554.364075,560.586487 
	C554.411377,569.905457 555.985168,579.570068 558.823853,588.443909 
	C563.889771,604.280029 576.388184,613.375854 591.758057,617.791931 
	C615.114319,624.502686 638.759521,624.242249 662.304810,618.101746 
	C683.977234,612.449768 698.917908,594.416870 700.082336,571.972168 
	C700.651489,561.001404 700.787231,549.998718 700.800110,539.010071 
	C700.867065,481.850983 700.640137,424.690765 700.933044,367.533081 
	C701.038147,347.017853 693.148010,337.371979 675.107910,329.923218 
	C664.740662,325.642578 653.629578,323.163300 642.437622,319.746185 
	C644.926331,307.069244 649.997620,294.339996 656.001770,282.020599 
	C665.365540,262.808014 676.609863,244.708450 690.351929,228.295898 
	C693.947937,224.001022 698.367065,220.316483 702.756226,216.784042 
	C708.519043,212.146011 715.506775,211.109283 722.083435,213.900406 
	C733.055298,218.556824 743.729614,223.964279 754.311890,229.473022 
	C763.110779,234.053375 770.766357,241.125626 781.090759,242.285736 
	C786.489990,242.892426 792.000854,242.565750 797.460632,242.538437 
	C799.227722,242.529602 800.992798,242.132111 803.115540,241.867996 
	C800.499268,257.967712 795.216919,272.316895 784.409546,284.079010 
	C774.939575,294.385498 763.161621,298.591370 749.626770,294.016693 
	C739.115967,290.464172 729.068970,285.551453 718.763977,281.371185 
	C715.388977,280.002075 711.926636,278.637085 708.372803,277.960846 
	C699.051086,276.187012 694.089355,278.766388 689.617126,287.153656 
	C689.070557,288.178741 688.619263,289.255676 688.145203,290.318146 
	C686.181030,294.720673 684.224976,299.126862 682.111633,303.878815 
	C689.266785,305.654358 696.234497,307.159973 703.070251,309.124817 
	C718.743164,313.629822 734.447693,318.090118 748.094055,327.603760 
	C755.596497,332.834137 759.327454,339.470520 759.295776,349.014740 
	C759.061218,419.671356 759.149048,490.329163 759.185364,560.986572 
	C759.192627,575.113220 757.626709,588.872314 751.242371,601.755066 
	C741.746643,620.916321 725.837524,632.558228 706.414368,639.980957 
	C680.795532,649.771423 653.969788,652.022339 626.873901,651.940796 
	C601.140564,651.863403 575.555664,650.009216 551.175110,640.894287 
	C543.451111,638.006531 536.160950,633.859680 528.907776,629.861755 
	C526.137451,628.334839 524.369629,627.823547 521.400391,629.684143 
	C515.504211,633.378906 509.148499,636.340454 502.621368,639.740234 
M267.036224,298.519073 
	C267.536316,303.295654 267.545135,308.187622 268.634155,312.825928 
	C271.270386,324.053802 278.444305,329.373779 290.195618,329.492218 
	C290.195618,305.340790 290.195618,281.191406 290.195618,255.177917 
	C285.183044,258.807434 280.691772,261.101929 277.472961,264.575500 
	C268.919617,273.805908 267.651978,285.641418 267.036224,298.519073 
z"/>
<path fill="#C46F33" opacity="1.000000" stroke="none" 
	d="
M1028.727539,242.280792 
	C1031.677490,245.471695 1034.382202,248.407913 1037.259644,251.531616 
	C1040.811401,248.055435 1044.059570,244.563950 1047.630737,241.441650 
	C1057.127686,233.138550 1066.548828,224.723709 1076.422241,216.885223 
	C1082.733154,211.875122 1090.141479,211.815735 1097.781128,214.323807 
	C1109.563232,218.191910 1119.374146,225.367935 1129.227661,232.476959 
	C1134.209717,236.071426 1138.899780,240.070816 1143.620361,243.806824 
	C1149.496948,239.239746 1155.016357,234.120544 1161.297119,230.230072 
	C1177.796875,220.009659 1196.391357,216.078766 1215.376709,214.078522 
	C1241.858765,211.288422 1268.312988,212.085373 1294.486328,217.055817 
	C1316.127319,221.165573 1336.856201,227.706207 1352.933838,244.050461 
	C1366.113770,257.448944 1373.091064,273.610138 1373.970459,292.336639 
	C1374.353149,300.487885 1374.390625,308.660645 1374.392578,316.823669 
	C1374.418091,426.150360 1374.409546,535.477051 1374.409546,644.803772 
	C1374.409546,646.961731 1374.409546,649.119751 1374.409546,651.638428 
	C1354.924805,651.638428 1335.710693,651.638428 1316.000000,651.638428 
	C1316.000000,649.600708 1316.000000,647.648926 1316.000000,645.697205 
	C1316.000000,531.704102 1316.010742,417.711029 1315.984375,303.717957 
	C1315.981567,291.613861 1314.608521,279.737061 1308.364258,269.009247 
	C1301.038940,256.424164 1289.472290,249.246506 1275.845825,245.936325 
	C1251.826416,240.101456 1227.704102,239.631516 1203.954468,247.784988 
	C1183.372070,254.851135 1170.511475,272.277618 1169.921997,294.162231 
	C1169.531738,308.649536 1169.435913,323.148224 1169.430420,337.641907 
	C1169.391235,440.135681 1169.409546,542.629456 1169.409546,645.123230 
	C1169.409546,647.244324 1169.409546,649.365417 1169.409546,651.740356 
	C1149.804688,651.740356 1130.701050,651.740356 1110.845703,651.740356 
	C1110.845703,649.658386 1110.845703,647.576355 1110.845703,645.494324 
	C1110.845703,531.667908 1110.876343,417.841431 1110.799316,304.015045 
	C1110.791382,292.345825 1110.387939,280.613464 1103.954102,270.202057 
	C1102.559570,267.945251 1101.037598,265.711853 1099.253662,263.760803 
	C1092.523682,256.399994 1085.954102,254.806152 1077.455811,260.044800 
	C1070.600098,264.270874 1064.129150,269.487823 1058.507324,275.258636 
	C1050.979126,282.986267 1044.435181,291.672699 1037.982422,299.337128 
	C1028.897461,289.250305 1019.876953,278.829620 1010.359070,268.885071 
	C1006.974060,265.348358 1002.603210,262.574188 998.293396,260.140900 
	C989.059631,254.927689 981.690125,256.570831 974.953979,264.851074 
	C968.994690,272.176483 965.872437,280.695221 964.989746,290.003845 
	C964.471497,295.468201 964.194580,300.976318 964.188843,306.465149 
	C964.131897,360.795135 964.154358,415.125183 964.154358,469.455231 
	C964.154358,471.438080 964.154297,473.420929 964.154297,475.902863 
	C969.144714,476.358093 973.932495,476.483734 978.608337,477.272675 
	C1005.703552,481.844482 1020.675537,497.430298 1022.453003,525.548767 
	C1024.259399,554.125854 1021.980896,582.508240 1011.139343,609.525513 
	C1002.536926,630.962830 988.073181,646.078979 964.603943,650.449036 
	C949.668030,653.230164 934.681702,653.087158 920.504944,646.637451 
	C911.191711,642.400330 906.498169,634.711670 905.983276,624.506287 
	C905.865784,622.177979 905.851135,619.842651 905.851013,617.510559 
	C905.844849,513.850220 906.150085,410.188324 905.645874,306.530426 
	C905.508423,278.267822 916.200073,256.143768 937.750977,238.854462 
	C949.819763,229.172226 962.251099,220.011337 977.078796,214.527145 
	C988.157471,210.429611 997.096008,214.124146 1005.221436,220.856689 
	C1013.285583,227.538391 1020.753113,234.940125 1028.727539,242.280792 
M964.144348,526.500122 
	C964.144348,553.563293 964.144348,580.626465 964.144348,607.799744 
	C970.070190,607.875610 975.251770,606.511108 978.106384,602.261719 
	C982.301636,596.016724 987.190796,589.334778 988.494263,582.234985 
	C991.362976,566.610474 993.257874,550.627625 993.546509,534.754517 
	C993.905823,514.999573 982.269653,504.469666 964.144470,506.125122 
	C964.144470,512.560059 964.144470,519.030151 964.144348,526.500122 
z"/>
<path fill="#010101" opacity="1.000000" stroke="none" 
	d="
M33.904060,322.036682 
	C31.388178,321.572571 29.291208,321.167908 26.889328,320.704437 
	C29.802578,306.489136 35.049557,293.391541 41.326385,280.788910 
	C50.918869,261.529022 62.195328,243.242493 76.311699,226.908264 
	C79.861847,222.800369 84.201187,219.262375 88.589333,216.019241 
	C94.048004,211.984924 100.579422,211.440552 106.679146,213.823883 
	C115.619812,217.317230 124.355759,221.421310 132.906204,225.797974 
	C139.259644,229.050064 145.190155,233.131622 151.291321,236.872635 
	C161.134888,242.908325 171.819061,244.171768 183.026413,242.528946 
	C184.173935,242.360733 185.319870,242.173828 186.472687,242.055084 
	C186.769196,242.024536 187.089020,242.220367 187.981934,242.485596 
	C183.721710,262.139801 177.730789,280.695465 159.098495,291.896423 
	C151.380753,296.535980 142.822098,297.089569 134.533127,294.081360 
	C124.089943,290.291321 113.995445,285.549866 103.677338,281.400848 
	C100.000710,279.922455 96.185265,278.531128 92.302269,277.876129 
	C83.314240,276.359894 78.345100,279.172638 74.204407,287.412628 
	C73.830780,288.156158 73.496895,288.920074 73.157417,289.680267 
	C71.123398,294.235016 69.093155,298.791504 66.882500,303.749146 
	C76.109512,306.170013 85.257668,308.318573 94.250999,310.988617 
	C107.814102,315.015350 121.231689,319.418762 133.010529,327.717133 
	C140.535522,333.018616 144.158875,339.714386 144.113647,349.175018 
	C143.873825,399.331604 144.000977,449.489960 144.000977,499.647705 
	C144.000977,501.456055 144.000977,503.264404 144.000977,504.920715 
	C150.345520,506.107178 156.537003,506.638550 162.316391,508.470154 
	C176.365234,512.922485 183.152283,523.962830 185.987671,537.523560 
	C190.345551,558.365906 188.148956,579.121094 181.998795,599.181824 
	C178.480911,610.656494 173.682678,622.163086 167.221863,632.216309 
	C156.261871,649.270325 138.960922,653.744385 119.555840,651.516418 
	C116.745865,651.193848 113.929077,650.842041 111.156738,650.294556 
	C93.213905,646.751587 85.515907,637.422791 85.506821,619.144775 
	C85.483620,572.486389 85.499107,525.828064 85.499107,479.169678 
	C85.499115,441.842987 85.228027,404.513550 85.607185,367.190704 
	C85.813766,346.855835 77.730995,337.634277 60.464684,330.135834 
	C52.154289,326.526794 43.061481,324.719391 33.904060,322.036682 
M143.993393,546.518799 
	C143.993393,566.923401 143.993393,587.328003 143.993393,607.947632 
	C149.964508,607.082031 152.259094,603.043274 153.731781,598.545776 
	C158.733612,583.270325 158.973587,567.470276 158.392441,551.626587 
	C158.302216,549.166138 157.742355,546.653687 156.981400,544.300476 
	C154.895676,537.850525 151.462723,535.453857 143.993393,535.090942 
	C143.993393,538.578735 143.993393,542.052551 143.993393,546.518799 
z"/>
<path fill="#C47034" opacity="1.000000" stroke="none" 
	d="
M1342.291504,796.317627 
	C1313.818970,816.444885 1281.838135,819.740906 1248.571899,818.620605 
	C1207.302856,817.230835 1170.891846,801.840637 1136.062988,781.331055 
	C1114.395996,768.572083 1092.849609,755.595032 1070.938232,743.268311 
	C1052.348145,732.810181 1033.238647,723.106140 1012.106201,718.897583 
	C985.020935,713.503601 958.999207,717.397644 934.867615,730.936035 
	C924.934692,736.508728 915.826721,743.551819 905.968750,750.178040 
	C906.351868,738.038818 909.962219,727.075684 918.367737,718.190979 
	C937.147766,698.340271 960.487427,687.002014 987.351807,683.083557 
	C1015.756287,678.940491 1043.829102,682.003357 1071.553955,688.566650 
	C1101.268066,695.600769 1128.018555,709.356262 1153.268555,726.117371 
	C1179.903198,743.797791 1205.701294,762.801392 1234.346924,777.262695 
	C1244.281738,782.278137 1254.290649,787.489624 1265.713989,788.186584 
	C1277.243774,788.890076 1288.152832,786.568542 1298.381714,780.922913 
	C1306.711792,776.325256 1311.828003,769.250671 1313.550415,760.282776 
	C1315.293945,751.205200 1315.689575,741.868774 1316.722290,732.208557 
	C1315.077515,732.208557 1314.437866,732.069580 1313.884033,732.228882 
	C1298.169556,736.748596 1287.527466,722.467590 1288.099854,709.346008 
	C1288.766235,694.066406 1295.782227,685.658386 1310.911133,682.857239 
	C1328.781372,679.548523 1345.906372,680.800903 1359.837402,694.317932 
	C1369.022583,703.230164 1372.351196,714.894470 1373.834961,727.190186 
	C1376.594116,750.055481 1370.796143,770.120422 1353.982910,786.402527 
	C1350.404297,789.868164 1346.402222,792.896667 1342.291504,796.317627 
z"/>
<path fill="#030303" opacity="1.000000" stroke="none" 
	d="
M523.636047,164.409485 
	C503.321442,157.569168 495.245972,142.230026 495.751709,123.557854 
	C496.186859,107.491158 498.839539,92.300369 508.853302,79.073822 
	C519.024048,65.639908 533.015259,58.602436 548.940735,55.149361 
	C581.982605,47.984962 614.268372,51.516064 645.946899,62.750919 
	C672.248352,72.078796 695.656311,86.413635 717.531616,103.481277 
	C718.148987,103.963013 718.795654,104.407181 719.939758,105.241570 
	C719.939758,77.215340 719.939758,49.841366 719.939758,22.232628 
	C733.062439,22.232628 745.812744,22.232628 759.174133,22.232628 
	C759.174133,23.974789 759.174133,25.728392 759.174133,27.481997 
	C759.174133,67.636757 758.973938,107.793106 759.293152,147.945328 
	C759.392090,160.393906 757.876770,164.841583 741.441467,167.816101 
	C737.868530,168.462723 734.150024,168.486954 730.498413,168.489334 
	C671.182678,168.527847 611.865906,168.692612 552.552307,168.337631 
	C543.033264,168.280670 533.528564,165.851273 523.636047,164.409485 
M546.955078,138.069275 
	C550.067139,138.433105 553.178711,139.109558 556.291260,139.113907 
	C604.260254,139.181015 652.229248,139.160751 700.198303,139.160751 
	C701.765381,139.160751 703.332397,139.160751 706.269348,139.160751 
	C689.000488,126.432800 672.581116,115.204277 654.061768,107.596474 
	C627.563049,96.710716 599.739746,94.131508 571.466187,96.178513 
	C560.015381,97.007545 549.343018,100.524727 542.724854,111.271683 
	C537.485657,119.779411 539.045044,132.239563 546.955078,138.069275 
z"/>
<path fill="#F6F6F6" opacity="1.000000" stroke="none" 
	d="
M267.050598,298.036743 
	C267.651978,285.641418 268.919617,273.805908 277.472961,264.575500 
	C280.691772,261.101929 285.183044,258.807434 290.195618,255.177917 
	C290.195618,281.191406 290.195618,305.340790 290.195618,329.492218 
	C278.444305,329.373779 271.270386,324.053802 268.634155,312.825928 
	C267.545135,308.187622 267.536316,303.295654 267.050598,298.036743 
z"/>
<path fill="#FEFCFB" opacity="1.000000" stroke="none" 
	d="
M964.144409,526.000183 
	C964.144470,519.030151 964.144470,512.560059 964.144470,506.125122 
	C982.269653,504.469666 993.905823,514.999573 993.546509,534.754517 
	C993.257874,550.627625 991.362976,566.610474 988.494263,582.234985 
	C987.190796,589.334778 982.301636,596.016724 978.106384,602.261719 
	C975.251770,606.511108 970.070190,607.875610 964.144348,607.799744 
	C964.144348,580.626465 964.144348,553.563293 964.144409,526.000183 
z"/>
<path fill="#FBFBFB" opacity="1.000000" stroke="none" 
	d="
M143.993393,546.022583 
	C143.993393,542.052551 143.993393,538.578735 143.993393,535.090942 
	C151.462723,535.453857 154.895676,537.850525 156.981400,544.300476 
	C157.742355,546.653687 158.302216,549.166138 158.392441,551.626587 
	C158.973587,567.470276 158.733612,583.270325 153.731781,598.545776 
	C152.259094,603.043274 149.964508,607.082031 143.993393,607.947632 
	C143.993393,587.328003 143.993393,566.923401 143.993393,546.022583 
z"/>
<path fill="#FFFFFF" opacity="1.000000" stroke="none" 
	d="
M546.583618,137.911591 
	C539.045044,132.239563 537.485657,119.779411 542.724854,111.271683 
	C549.343018,100.524727 560.015381,97.007545 571.466187,96.178513 
	C599.739746,94.131508 627.563049,96.710716 654.061768,107.596474 
	C672.581116,115.204277 689.000488,126.432800 706.269348,139.160751 
	C703.332397,139.160751 701.765381,139.160751 700.198303,139.160751 
	C652.229248,139.160751 604.260254,139.181015 556.291260,139.113907 
	C553.178711,139.109558 550.067139,138.433105 546.583618,137.911591 
z"/>
</svg>