<svg enable-background="new 0 0 1024 848" viewBox="0 0 1024 848" xmlns="http://www.w3.org/2000/svg"><path d="m519.399963 849c-7.877868-1.55011-15.594726-1.270874-23.033081-3.431335-11.678009-3.391907-15.618225-8.191651-15.616943-20.282288.001801-16.665039.129517-33.331543-.075958-49.994019-.054566-4.42572 1.398956-6.013122 5.778503-5.583129 9.338837.916931 18.506104 2.314575 26.75882 7.21051 3.048279 1.808532 5.752807 3.995971 7.717773 6.979187 3.76648 5.718262 3.024658 11.997986-1.73529 15.053222-6.0943 3.911744-15.54712 2.225708-18.73761-3.342041-2.156006-3.762451-1.04715-5.989807 3.446136-7.015991 1.617218-.369385 3.89444-.812805 3.252655-2.885742-.864502-2.792419-3.783111-3.617615-6.399719-4.130859-2.160156-.423828-2.34906 1.3703-2.348907 2.929382.001434 15.663635.007385 31.327393.06607 46.990906.010437 2.786682 1.469116 4.842468 4.092133 5.704345 11.892364 3.907471 23.889312 3.585144 35.855438.4198 3.939392-1.042114 4.517456-4.253845 4.501221-7.902893-.086182-19.331055-.043152-38.662659-.037354-57.994079.008301-27.497315.029175-54.994568.031067-82.491883.000488-6.828125-1.252441-8.353393-7.878784-9.915161-3.072327-.724182-6.237427-1.230591-9.168274-2.342468-5.830078-2.211731-7.234131-6.411377-4.288025-11.971741 2.452393-4.628479 6.031372-8.359375 9.754517-11.957336 9.18927-8.880371 19.464599-16.149903 31.314636-21.086121 3.515564-1.464416 7.109863-1.766296 10.752319-.699097 16.947632 4.965149 31.745361 13.660401 44.457764 25.888672 4.526977 4.354615 6.614563 9.52472 6.551513 16.06659-.258728 26.828186-.208679 53.661132-.005249 80.490295.036438 4.812073-1.445922 6.397583-6.245483 6.291931-13.810425-.304016-12.141052 1.174439-12.15918-11.940185-.032043-23.164307-.132934-46.330262.107361-69.492249.068787-6.62854-2.553283-11.429077-7.31842-15.611389-8.536133-7.492004-18.391907-12.518982-29.024597-16.25592-4.044861-1.421753-7.708374-1.11377-11.481079.909362-5.74646 3.081726-11.285279 6.441895-16.24939 10.684266-1.76001 1.50415-3.451477 3.110534-4.0719 5.499328 1.061402 2.145569 3.208069 2.274475 5.04596 2.860718 3.009277.959961 6.141907 1.585815 9.068542 2.742187 7.139893 2.821412 9.187256 5.962891 9.189637 13.680054.014343 45.995483.007934 91.990906.008361 137.986389.000123 18.165589-4.348327 23.279053-22.638793 26.148987-4.920105.771973-9.927002.991028-15.265198 1.626831-1.437866.162964-2.504517.162964-3.971192.162964z"/><path d="m885.317261 639.631836c8.450866 8.227722 12.272461 17.719543 9.938415 29.16925-1.286926 6.312928-5.959778 9.555726-11.486755 8.343995-5.001648-1.096436-8.965088-7.489136-8.079956-12.837586.25592-1.546387.875366-2.184509 2.46051-2.536011 6.318604-1.401184 7.996643-5.114807 4.913086-10.737304-1.549133-2.824768-3.664368-5.104981-7.265381-5.954895-1.257019 2.013427-.797058 4.210815-.799194 6.275512-.028259 27.161011-.014343 54.322083-.006775 81.483094.002808 10.160888 2.641296 13.963867 12.513245 16.13739 7.695312 1.694336 15.557678 1.687439 23.163757-.956177 5.920105-2.057678 9.418823-5.914429 9.385254-12.587646-.080384-15.996338-.028931-31.993409.024963-47.990052.014221-4.230041-1.975403-6.885132-5.868896-8.301269-2.34552-.85315-4.711365-1.678162-6.98053-2.708496-6.627014-3.008973-8.464478-8.112549-5.356751-14.74054 1.212037-2.585205 2.942261-4.826111 4.889405-6.908142 5.918091-6.327759 11.784851-12.703918 17.742675-18.993958 7.14917-7.547729 10.875184-7.093933 15.959595 1.809815.743103 1.301269 1.48938 2.605347 2.318665 3.85199 4.134033 6.213989 6.287292 6.547119 11.703674 1.861938 4.133667 3.695191 4.266235 10.303223.199402 14.399719-2.721008 2.740784-6.199646 3.882569-9.964294 4.011353-3.759522.128662-7.180909-.809448-10.160035-3.380493-2.806335-2.421997-4.26654-5.871643-7.192627-9.07666-4.478332 4.707031-9.168335 8.809509-12.484497 14.092468 1.16742 2.67334 3.516053 2.729858 5.513489 3.343262 3.337769 1.02478 6.779785 1.766845 10.025086 3.022766 5.339965 2.066589 8.033691 5.880188 7.968139 11.918701-.184509 16.995056-.068176 33.993591-.049988 50.990723.011048 10.345581 2.86316 14.259338 12.924012 16.39923 7.383667 1.570374 14.929687 1.572388 22.244018-.650451 7.439209-2.260864 10.154297-6.169068 10.164917-14.005005.020264-14.997498.01532-29.994995.003418-44.992493-.00531-6.684692-1.364441-8.333069-7.906616-9.956848-3.222778-.799988-6.555298-1.388245-9.590637-2.662109-5.379639-2.257935-6.606446-6.122254-4.048828-11.360962 1.778991-3.643982 4.491516-6.579285 7.230835-9.509644 6.37146-6.815551 12.684265-13.685913 19.0177-20.536987 6.403198-6.926575 10.68164-6.395935 15.44519 1.920471.827576 1.444702 1.584107 2.936035 2.495545 4.325806 3.980224 6.069092 6.334961 6.40979 11.740356 1.774597 4.397461 4.201965 4.329224 10.424805-.314331 14.661865-4.521362 4.12555-9.894959 4.515381-15.448486 2.780518-5.519959-1.724426-7.733704-7.015259-11.358399-11.570557-4.954162 4.264527-8.686462 9.218201-12.479553 14.001526 1.307983 2.91272 3.798706 2.964172 5.975281 3.607361 3.188782.942261 6.436157 1.750061 9.521179 2.964355 4.700317 1.849976 7.835815 5.247742 7.905823 10.506836.243774 18.320679.676941 36.651978-.22876 54.960266-.455078 9.197998-5.597717 15.775818-13.901978 19.158509-18.612609 7.581726-37.288818 7.572815-55.57434-1.298828-2.265992-1.099366-3.704529-.911988-5.898926.133972-18.693665 8.910766-37.707154 8.902954-56.43573.490661-8.940613-4.015869-13.17981-11.788269-13.161865-21.787902.05719-31.827881.012878-63.656006.032409-95.484009.00354-5.789124.479248-6.325257 6.367127-5.724488 8.089966.825379 15.631653 3.258851 22.256958 8.851563z"/><path d="m379.736816 422.728638c4.254761-4.016022 8.390503-7.653748 12.224915-11.585388 2.457336-2.519684 4.328888-2.300171 6.662109.055725 4.688782 4.734283 9.519623 9.328216 14.30954 13.961761 1.270935 1.229492 2.606262 2.392426 4.102661 3.760193 1.125183-2.533081.675507-4.702362.680634-6.795044.040893-16.661987.11496-33.325165-.05835-49.985504-.042358-4.069977 1.200989-5.647156 5.410675-5.510437 14.797608.480591 12.948914-2.346069 13.012543 12.945648.085205 20.494019-.094574 40.989777.10498 61.482208.046967 4.821808-1.681121 5.977448-6.347595 6.374817-8.189789.697388-14.353027-1.620148-19.568664-8.073974-4.356263-5.390442-9.600647-10.063172-14.911957-15.527253-6.973816 7.037995-13.383515 13.532654-19.82486 19.995728-2.964355 2.974335-15.662231 4.90918-19.286743 2.994385-2.342743-1.237702-1.566284-3.485138-1.571686-5.344788-.060486-20.99411-.042267-41.988464-.046234-62.982727-.000458-2.499298-.020965-4.998688-.00827-7.497925.023987-4.71875-1.812714-8.066101-6.134247-10.521789-9.494202-5.394898-10.184418-11.940247-1.947418-19.32898 8.179291-7.336914 16.719299-14.274811 25.174469-21.299438 3.743713-3.110291 7.719696-2.901551 11.399139.119049 4.888428 4.013092 9.586304 8.257507 14.445984 12.306549 6.6362 5.529297 14.263947 7.648407 22.841522 6.443359 2.851899-.400635 5.534333-1.243438 7.992829-2.683044 4.131958-2.419403 5.703399-7.01117 3.772278-10.656189-1.929474-3.641998-7.149353-4.742005-11.440796-2.742645-1.916138.89273-3.311432 4.790649-6.190033 1.684509-2.813782-3.036255-3.702301-6.686707-2.184449-10.648346 1.783692-4.655518 7.487427-7.537598 13.292054-6.683777 7.861389 1.156403 12.904327 5.798065 15.509643 13.150269.768494 2.168823 1.119751 4.485504 1.668091 6.758606 1.980957.662475 3.121948-.881501 4.456848-1.686615 13.567383-8.182831 27.856598-9.492463 42.709381-4.307648 12.418274 4.334961 19.909424 15.017944 20.052521 29.84375.294281 30.488739.06781 60.982269.138702 91.473663.008271 3.559418-1.225677 5.139038-4.95227 5.071167-15.986481-.291199-13.354981 1.862488-13.429749-12.999878-.141632-28.158264-.025177-56.317779-.05719-84.476715-.013427-11.791931-3.533813-17.889618-11.85321-20.830505-10.010712-3.538758-21.791107-.47406-28.130676 7.472137-1.756745 2.201935-3.447113 4.561066-4.616913 7.101776-1.621338 3.521363-4.366058 4.705292-7.688843 3.903077-3.147613-.759919-5.22055.212768-7.632904 2.052185-11.855072 9.039459-26.926025 8.835052-39.982605-.260956-5.627075-3.920136-10.655334-8.560028-15.603271-13.254425-2.840485-2.694916-4.971802-2.483063-7.586945.113769-2.238281 2.222626-4.839996 4.074066-7.17099 6.209748-3.93457 3.604889-3.846161 4.523223.462341 7.49707.821961.567383 1.680512 1.081634 2.521027 1.622192 5.31662 3.418946 7.956543 8.145691 7.914001 14.610016-.123962 18.827332-.032775 37.656037-.026092 56.484223.00061 1.774749.000091 3.549469.000091 5.844116 3.678589-1.018646 5.019715-3.7323 7.393982-5.647705z"/><path d="m686.819275 725.107849c1.498169-7.625488 4.887207-11.542419 10.324951-12.359436 7.700806-1.157043 13.587036 3.89856 14.050659 12.528198.47583 8.856812-3.108093 16.365357-9.31427 22.378479-8.257934 8.001282-18.459289 11.58429-29.933166 11.812744-3.066773.061036-4.136719-1.150878-4.131958-4.097778.053344-32.998535-.155274-65.999084.172912-98.994507.110291-11.087524 6.821106-18.204101 16.976746-21.794067 16.111084-5.695252 32.366577-5.686585 48.428589.216003 10.854248 3.988709 15.950195 11.754578 15.957031 23.353821.014465 24.665772.006043 49.331482.018616 73.997254.00531 10.329834 3.56665 15.061279 13.719055 17.028198 7.061279 1.368103 14.279114 1.35144 21.295654-.646607 7.50116-2.136108 10.365845-5.978943 10.393189-13.783935.05487-15.665894-.068848-31.33313.10083-46.997498.045837-4.236206-1.697815-6.549499-5.620484-7.5932-3.855285-1.025818-7.795654-1.84961-11.510131-3.258973-5.323731-2.020019-6.783387-6.12622-4.296265-11.286254.860046-1.78418 1.896789-3.575562 3.220398-5.028931 8.299499-9.113526 16.579407-18.251343 25.124451-27.132324 4.192749-4.357605 8.167297-3.787415 11.640441 1.167602 1.524353 2.174744 2.649231 4.624939 4.08429 6.867737 3.919434 6.125427 6.418152 6.511047 12.016846 1.644897 3.422851 2.615967 3.298523 6.365967 2.477173 9.798584-1.095765 4.579407-4.545105 7.281922-9.103394 8.309449-10.211792 2.302246-15.870117-3.652222-20.381104-12.507447-5.108337 4.990479-9.353271 9.647095-12.963745 14.740296 1.585999 2.639404 3.892762 2.715698 5.903138 3.275757 3.689514 1.027771 7.389099 1.966674 10.883544 3.61792 4.553284 2.151428 6.858216 5.670105 6.863831 10.664123.019592 17.499329.170227 35.000794-.0578 52.497131-.130127 9.97876-5.299378 17.259339-14.344788 21.04126-17.20581 7.193665-34.814453 7.186524-52.066101.333924-9.987976-3.967408-15.241455-11.761841-15.157715-23.0094.181214-24.331116.051575-48.66449.05127-72.996948-.000122-11.600891-3.470276-16.210754-14.810425-18.099854-7.406433-1.233764-14.964966-1.243225-22.155579 1.667542-5.216125 2.111572-8.434753 5.596008-8.420349 11.680969.06897 29.164734.01062 58.329712.024964 87.494629.000549 1.103455-.353028 2.35907.974487 3.439331 4.687622-1.369202 7.388794-4.810852 8.225342-9.441162.699035-3.869568-.691407-7.028564-5.333802-7.302795-1.91687-.113221-3.258239-.628357-3.327331-3.224732z"/><path d="m133.848984 670.756775c.06633-5.085693 2.801483-8.526733 5.701172-11.728943 7.492431-8.274109 15.073898-16.471558 22.778885-24.547852 5.504989-5.770385 9.251449-5.273681 13.474914 1.440796 1.330475 2.115174 2.507141 4.332154 3.914764 6.392823 3.681885 5.389831 6.376511 5.609008 11.298249.795227 3.323044 2.542358 3.823898 6.033874 2.85675 9.661194-1.333893 5.002746-4.995376 7.678833-10.002228 8.619812-9.828033 1.846984-15.177978-3.909913-19.575866-12.373047-5.060593 4.024292-8.565415 8.81073-12.200302 13.388488-1.508072 1.899231.352081 2.966431 2.083191 3.477173 3.191238.941468 6.438491 1.703125 9.602142 2.726013 8.764603 2.833741 11.153595 6.089356 11.172455 15.314393.03305 16.165588.391098 32.344665-.147095 48.492736-.43158 12.949158 7.144165 16.136719 16.211884 17.202637 5.601181.658569 11.326721.839233 16.893646-.624145 9.286484-2.441101 12.112869-5.992981 12.137756-15.554383.060318-23.165222.004852-46.330749.044892-69.496093.005187-2.991578.271057-5.984375.46466-8.97345.58728-9.06781 5.430847-15.489136 13.430725-18.958191 18.024842-7.816406 36.344834-7.653015 54.304001.206665 9.748322 4.266235 13.65213 12.663879 13.655945 23.04834.011627 31.83136-.002625 63.662842.082306 95.494018.009552 3.571961-1.309876 5.001404-4.93808 5.191895-13.409576.704162-13.406342.797424-13.407532-12.508789-.002716-29.665039-.350982-59.33606.153656-88.992493.224121-13.169128-6.201202-16.235779-15.147705-17.732788-6.383941-1.068298-12.960235-1.006714-19.33789.768921-7.682648 2.138916-11.013092 6.490051-11.020264 14.47229-.022598 25.165283-.142517 50.331604.044968 75.495483.086792 11.649781-5.339768 19.504395-15.774353 23.642701-16.276215 6.455139-32.89325 6.441833-49.259339.326294-11.770447-4.398255-16.645447-12.066712-16.665695-24.534546-.022217-13.665894.00029-27.331849-.011017-40.997742-.005951-7.204102-1.381058-8.876892-8.501205-10.558289-2.589096-.61145-5.178849-1.233703-7.735443-1.96582-3.231186-.925232-5.668274-2.765137-6.582947-6.611328z"/><path d="m102.604538 356.116089c8.692749 3.436554 10.665268 6.249939 10.670799 15.118866.014565 23.324432.008957 46.648865-.022041 69.973266-.007614 5.728669-.864372 6.446076-6.348518 5.786622-11.028336-1.326203-21.214615-4.633057-28.799897-13.260315-6.188636-7.038788-9.852943-15.112397-7.420929-24.726044 1.743218-6.890808 7.689125-10.425354 13.952347-8.802857 6.755135 1.749909 10.379959 7.713105 8.940697 15.128327-4.446877-.278717-7.684563 1.362854-8.104462 6.35553-.345939 4.113281 3.554985 8.846679 8.459992 10.338623 1.38797-1.33429.904113-3.104309.914848-4.686341.067772-9.994476-.04641-19.991058.109222-29.983642.057145-3.668976-.942268-5.541535-5.022483-5.529419-12.32325.036621-24.647873-.148621-36.97065-.333862-3.891995-.058503-3.608265 2.572631-3.610024 5.11679-.010124 14.661072-.008037 29.322113-.028324 43.983185-.009506 6.869507-.355713 7.009094-7.077553 6.180603-9.846969-1.213623-18.816473-4.376526-26.088024-11.325683-6.728474-6.430176-10.193495-14.277527-9.491373-23.745972.51739-6.977234 5.298101-11.875 11.699682-11.92337 6.289463-.047516 12.414418 5.988586 12.66515 12.533905.074759 1.951538-.045252 3.74356-2.88324 3.441436-4.909885-.522705-6.131902 2.676361-5.832388 6.575684.391922 5.102508 3.150321 8.552551 8.169295 9.960144 1.726295-1.446167 1.127357-3.237396 1.131841-4.806274.047629-16.659394.048184-33.319001.021483-49.978516-.011377-7.098969-1.219183-8.641998-8.045095-10.528778-2.883029-.796936-5.861763-1.311463-8.664539-2.321808-6.034366-2.175201-7.767817-6.621765-4.786619-12.258911 1.156618-2.187073 2.602424-4.301117 4.271125-6.123749 7.535351-8.230377 15.10396-16.434845 22.846271-24.469696 5.453125-5.65921 9.054436-5.287506 13.86044.989746 1.61969 2.115509 3.06335 4.371887 4.759082 6.421936 4.641304 5.611176 6.749527 5.84198 12.327233 1.569183 5.285064 4.714234 3.710029 13.207184-3.091034 16.667725-7.112698 3.61908-16.378285 1.617798-21.731816-4.795624-1.484622-1.778534-2.715751-3.768676-4.560749-6.36084-4.513229 4.075409-8.271343 8.590821-11.740179 13.314332-1.413482 1.924682.323046 3.098053 1.995299 3.644378 2.843393.928925 5.761017 1.628296 8.6371 2.459931 9.255173 2.676086 11.567081 5.780792 11.639084 15.256164.08305 10.928864-1.448029 9.808991 9.873115 9.84018 9.829514.027099 19.659981.084381 29.488045-.034668 2.238678-.0271 5.567604 1.208191 5.981621-2.60199.406464-3.740662 1.118439-8.036713-3.638008-9.82431-3.407746-1.280671-7.00837-2.051758-10.529564-3.026215-8.596489-2.37915-10.935295-7.749237-5.657189-14.84433 8.261719-11.105713 18.169945-20.809082 27.92762-30.59021 3.348252-3.356293 7.057732-2.508606 10.03447.864685 2.198181 2.491028 4.072395 5.266846 6.10733 7.903168 4.735375 6.134827 7.179238 6.540009 12.967812 2.171814 4.878158 5.082489 3.683594 12.448578-2.633377 16.23822-6.493813 3.895752-15.773712 2.414002-21.497376-3.603607-1.918586-2.017151-3.489837-4.364624-5.677017-7.141541-3.797645 4.22876-7.474586 8.237915-11.048965 12.336518-2.006691 2.301025-1.216523 3.981781 1.530616 4.781036 3.193284.929047 6.432747 1.699341 10.019814 2.676575z"/><path d="m169.612549 128.567871c-8.927155-5.044083-13.144379-12.26738-12.982651-22.292122.223038-13.824898.061386-27.656173.044937-41.484688-.00888-7.462711-1.007248-8.688499-8.418167-10.580883-2.577896-.658268-5.215729-1.155704-7.711533-2.047439-6.840103-2.443924-8.436706-6.942406-4.812469-13.320629.817169-1.43813 1.778809-2.839341 2.894089-4.055672 7.992187-8.716295 15.936661-17.480518 24.110595-26.024487 5.105835-5.336964 8.671769-4.81049 12.794083 1.404671 1.103668 1.66399 2.039597 3.438221 3.103119 5.130043 4.488068 7.139441 6.291214 7.544346 12.624008 2.881085 4.305039 4.718546 3.852677 11.070217-1.079193 15.15298-7.517456 6.223191-16.064026 3.377652-26.148315-8.97932-4.910752 3.216764-8.068924 8.143047-11.761734 12.489578-1.622376 1.90958.131256 3.11829 1.767227 3.66573 3.306442 1.106434 6.7229 1.880859 10.042923 2.95066 8.109207 2.612996 10.76036 6.108193 10.821563 14.596154.076325 10.585788-1.019195 10.095569 10.487595 10.041561 9.496445-.044564 18.993973.059532 28.489472-.044411 2.301773-.025192 5.482284.870407 5.928741-2.843605.439026-3.652229.863434-7.651745-3.469543-9.469273-2.732285-1.146091-5.692017-1.81937-8.604249-2.454689-10.741714-2.343361-13.393615-8.632717-6.546554-17.092395 8.066009-9.965729 16.945557-19.25284 26.087753-28.245598 4.248963-4.179538 7.611695-3.642193 11.18277 1.254667 1.366516 1.873868 2.371231 4.008624 3.583588 5.998426 4.288406 7.038392 6.269363 7.502215 12.695175 3.014294 4.151916 4.608557 3.818237 10.718691-.945831 14.840008-4.63794 4.01218-10.019684 4.121563-15.51767 2.357944-5.532135-1.774578-7.275406-7.426593-11.049652-11.703947-3.728531 4.157971-7.328247 8.033383-10.758774 12.053164-1.875732 2.197937-1.286301 4.033584 1.495712 4.906681 3.649216 1.145245 7.399887 1.992283 10.994415 3.281322 7.105149 2.547982 9.360932 5.899403 9.372147 13.491921.0224 15.161381.007645 30.322811.010819 45.484218.003601 17.235138-6.092682 25.350472-23.000702 29.387032-15.42627 3.682816-30.707047 3.25946-45.723694-3.742981m33.390625-3.930862c1.9617-.366127 3.951309-.623368 5.880188-1.117615 7.539718-1.931938 11.452667-6.439613 11.577667-14.244347.13858-8.653434-.279556-17.315201-.41507-25.973968-.039932-2.55275-.913604-4.087982-3.785217-4.075279-12.663757.055984-25.327911.06398-37.991745.02758-2.547836-.007317-3.475982.999725-3.468216 3.599418.025345 8.491265-.258239 16.983269-.251419 25.474839.006714 8.366531 3.60846 12.844375 11.679199 15.148391 5.223526 1.491211 10.546936 1.262894 16.774613 1.160981z"/><path d="m117.126076 640.873291c5.1296 7.023865 6.309089 7.239746 12.253135 2.522339 4.279648 4.361694 4.057785 10.405517-.597 14.747497-4.559517 4.253113-10.043678 4.344727-15.450821 2.595093-5.358818-1.734009-7.727943-6.969787-11.282478-11.868286-3.895996 4.455505-7.622765 8.405151-10.96521 12.65686-2.015945 2.564331.015503 3.91034 2.324242 4.642579 3.643409 1.155639 7.350883 2.114624 10.973762 3.32843 6.12703 2.052856 8.975472 6.352905 8.934014 12.864746-.103913 16.322632.04309 32.646789-.067498 48.969299-.083252 12.286865-5.913787 20.67572-17.466438 24.613037-15.448646 5.265076-31.089539 5.33136-46.546947.067017-12.033547-4.098267-17.578061-12.275208-17.586699-24.853027-.009378-13.658204.027958-27.316468-.00572-40.97461-.01762-7.145752-1.524302-8.984436-8.495823-10.757995-2.737904-.696473-5.559128-1.176697-8.189187-2.163697-6.436748-2.415527-8.023296-7.136657-4.461608-13.096496 1.186835-1.985962 2.642053-3.853272 4.203258-5.566468 7.178252-7.877258 14.37863-15.736145 21.685555-23.493835 6.209362-6.592468 10.190067-6.087891 14.796063 1.649719.936824 1.573792 1.823554 3.17926 2.807167 4.723023 3.867809 6.070678 6.311966 6.460449 11.948299 1.758056 2.981262 2.504151 3.67102 5.75824 2.776794 9.31836-1.157234 4.607238-4.366394 7.421142-8.858715 8.612732-7.013496 1.860473-12.830604-.321717-17.086151-6.215332-1.248325-1.72876-2.415001-3.516602-3.867737-5.640931-4.800186 3.611084-8.000545 8.297181-11.635143 12.515808-2.091614 2.427674.093577 3.559388 2.116736 4.192017 3.488554 1.090881 7.095316 1.825806 10.538908 3.033814 7.222194 2.533386 9.329605 5.745788 9.432941 13.35675.175327 12.913391-1.901951 11.134644 11.506294 11.242065 9.160424.073426 18.322998.094178 27.482132-.035827 2.3909-.033936 5.853188 1.298279 6.337548-2.822266.469001-3.989807.945396-8.311279-4.054856-10.077575-2.966957-1.048035-6.100151-1.618958-9.144501-2.45575-10.084556-2.771851-12.225402-8.17865-5.791099-16.380493 8.018158-10.220886 17.157135-19.493469 26.376709-28.638001 4.012771-3.980041 7.510841-3.523376 10.918625.968811 1.501541 1.979432 2.651848 4.22522 4.141449 6.662537m-22.370774 96.074585c.03975-9.314575-.006103-18.630676.164628-27.94281.061653-3.362488-1.03505-4.782715-4.579903-4.739929-11.974793.14447-23.954201.169006-35.927994-.01355-4.004509-.061096-5.208019 1.522278-5.116543 5.322266.192089 7.979736.007878 15.96759.065079 23.951538.059471 8.300354 3.61158 13.046264 11.693516 15.108337 7.522888 1.919434 15.19738 1.944031 22.697365-.026978 5.530723-1.453491 10.177566-4.282104 11.003852-11.658874z"/><path d="m219.984222 342.135956c-.616668-7.751251-3.133865-11.011597-10.532043-13.151489-7.343872-2.124176-14.822372-2.2081-22.172211.030365-10.786743 3.285217-14.711914 11.333313-11.23294 22.816589 3.246063 10.714477 11.249298 17.469269 19.97467 23.524414 9.849396 6.835113 20.500854 12.498688 29.798477 20.135864 7.2108 5.922943 12.325485 13.126648 12.470978 22.90979.230179 15.47699-8.890259 25.911652-24.248886 27.879975-16.844437 2.158752-22.518433.855774-38.160553-8.770356-.227677.204194-.582749.369355-.673355.627381-1.001511 2.851806 1.330826 7.342834-2.257035 8.541717-4.499099 1.503357-9.561645.867279-14.351852.206879-1.899857-.261963-1.882919-2.111023-1.884705-3.611328-.021637-18.1651.011109-36.330261-.047851-54.495178-.012207-3.759644 1.790832-4.077027 4.813202-3.151764 8.268188 2.531128 13.511184 9.996978 13.38443 20.073944-.099671 7.924103 1.156387 15.339905 6.492233 21.468017 6.914063 7.940644 15.360382 12.215516 26.14743 9.517151 12.141648-3.037231 16.470032-16.187103 8.569352-25.911529-6.413773-7.894226-15.077927-13.031098-23.308838-18.684235-9.202988-6.32074-18.51117-12.50708-25.852326-21.112152-2.718719-3.186768-5.050384-6.618927-6.892059-10.381775-8.253204-16.862854-2.19194-33.046051 15.485153-39.197052 15.942566-5.547485 32.135697-5.172699 47.84108 1.419586 10.093124 4.236542 15.104599 12.047852 14.99678 23.126801-.105392 10.831421-.046539 21.664734-.003402 32.497009.010376 2.605896-.344346 4.813843-3.675675 4.568756-14.423035-1.061279-27.146698-5.606598-35.274917-18.475464-3.527573-5.58493-5.286225-11.840332-3.797944-18.612884 1.548645-7.047211 7.344132-11.28952 13.735001-10.012512 6.775391 1.353881 10.795074 7.759002 9.379837 15.33258-3.987183.043183-7.536423.884644-7.864349 6.017243-.279633 4.376953 2.686401 8.599517 8.538986 11.085266 1.215103-8.700135.726608-17.244507.603332-26.211609z"/><path d="m615.848999 376.528503c-4.503479-6.490661-11.177307-7.364746-17.845032-8.065612-4.663574-.490204-9.323242-.008149-13.912353.944458-7.809143 1.621032-11.787232 5.13443-12.25055 12.902313-.931091 15.610931-.433166 31.264892-.069946 46.899689.021912.944213.495667 1.877929.755554 2.803558 5.06305-1.109711 9.392701-6.150421 8.870057-10.513214-.551697-4.605499-3.408997-6.627228-8.226319-5.970429-1.268249-5.451995.23169-9.678131 4.380005-13.003112 4.091126-3.279084 8.523193-3.646729 13.033142-1.046051 5.305542 3.059417 6.706421 8.212554 6.152832 13.759704-1.646484 16.499756-13.902832 28.136292-32.272278 31.039887-10.758667 1.700622-10.763366 1.700622-10.765319-9.113648-.002808-15.329437.234436-30.663666-.080811-45.986572-.198364-9.638306.367859-18.739197 9.118835-25.426453-2.807067-2.575653-5.249755-4.752777-7.618896-7.007019-2.934753-2.792541-5.206848-6.038879-6.603272-9.882141-1.573425-4.330475-.976501-8.15451 2.364624-11.472809 5.438111-5.401001 10.762574-10.918976 16.285706-16.230896 4.498779-4.326751 7.230164-4.467956 12.374451-.835144 4.761352 3.362366 9.518554 6.75177 14.048523 10.412567 2.540649 2.053192 4.271118 1.708802 6.340454-.517242 2.947265-3.170532 5.993347-6.266144 9.18457-9.189179 4.870178-4.460815 8.726685-4.41394 13.591003.01236 2.586609 2.35376 4.993897 4.904175 7.573487 7.266052 2.335144 2.138001 4.584534 5.066986 8.087646 1.068482 3.178223 4.766205 3.859803 9.180725 2.026978 13.783325-2.162537 5.430511-6.926148 7.213684-12.193665 4.70813-4.880676-2.321533-8.807678-5.952423-12.669067-9.64383-1.312866-1.255096-2.638001-2.497375-4.102539-3.88272-4.167664 2.411956-6.802063 6.072143-9.750855 9.375-6.038879 6.763946-9.845337 7.131561-17.093628 1.552368-4.356567-3.353333-8.802124-6.597992-13.045593-10.088501-2.122558-1.745911-3.955749-1.900788-5.440307.351227-1.855713 2.815124-7.989808 4.203704-4.346375 8.99884 6.127502 8.064514 13.635803 14.047119 24.798828 13.312897 11.710327-.770173 23.3125-.292145 34.242493 4.866027 9.737976 4.595673 14.624206 12.102417 14.569885 22.943543-.092651 18.494842-.130432 36.991302.03302 55.485077.038269 4.32431-.934265 6.353973-5.806885 6.198456-13.938964-.444794-12.455261 1.803772-12.485717-12.608673-.034424-16.329133-.005188-32.658387-.049317-48.987458-.008056-2.980316.213623-6.013-1.203369-9.213257z"/><path d="m356.770569 55.241524c4.630524 4.789806 6.683777 10.123245 6.637298 16.508575-.138275 18.998444-.163208 37.99987.046753 56.997048.049012 4.432663-1.412719 5.814453-5.752319 5.686294-14.183838-.418915-11.923706 1.781235-12.028351-11.784996-.131103-16.998527-.004638-33.998909-.037964-50.99839-.017242-8.792923-3.278412-13.246193-11.71524-15.65728-8.036926-2.296799-16.144959-2.207741-24.086975.449688-6.943177 2.323204-9.669281 6.045093-9.710297 13.354214-.107574 19.165557-.056396 38.331985-.079437 57.498054-.008454 7.039971-.023224 7.119118-6.798828 7.054863-12.670532-.120163-11.380463 1.73288-11.441345-11.500641-.073578-15.99926-.021271-31.999084-.028351-47.998665-.004731-10.696373 1.183563-13.733265 8.458618-21.499725.041534-2.069855-1.9469-2.470291-3.052735-3.587807-2.105743-2.12799-4.50177-4.013355-6.360015-6.333645-7.011444-8.754859-6.674073-13.698913 1.169769-21.600357 4.108795-4.138944 8.217895-8.277548 12.322845-12.420276 5.161591-5.209059 8.035767-5.567209 13.917206-1.409259 4.488129 3.17294 8.921265 6.43661 13.221314 9.857953 2.638397 2.09926 4.621246 1.841444 6.845306-.588699 2.809753-3.070149 5.769684-6.020113 8.839935-8.830669 4.788514-4.383492 8.876038-4.438644 13.721588-.210232 2.506867 2.187569 4.812073 4.611192 7.151948 6.983837 2.452819 2.48719 4.929168 4.684484 8.614532 1.829612 3.548187 4.2755 3.438232 8.940583 2.016083 13.43351-1.796051 5.674231-7.400727 7.423926-13.084717 4.446394-6.129608-3.210962-10.650879-8.456274-16.096558-13.266207-4.207794 2.890416-7.09201 7.010189-10.599182 10.435202-5.598999 5.467804-8.933868 5.802311-15.264648 1.083183-4.541779-3.385574-9.144043-6.700792-13.539765-10.268606-4.642639-3.768192-6.302093.847759-8.933746 2.874931-2.822571 2.174199-2.995666 4.49749-.594147 7.135493 7.324555 8.045719 15.215332 13.39608 27.310974 12.253872 13.662018-1.290123 27.359101.381092 38.930451 10.072731z"/><path d="m31.639679 82.001396c.001169-3.33184.215366-6.183189-.036394-8.992775-.73041-8.151176 2.602876-14.541752 8.859171-19.925098-3.44756-3.522431-7.231762-5.986466-10.020449-9.493656-6.658979-8.374668-6.430801-14.200554 1.058489-21.736472 4.227482-4.253805 8.410606-8.553904 12.717396-12.72612 5.106804-4.947238 7.891304-5.175378 13.547237-1.140731 4.473866 3.191419 8.924103 6.427093 13.230438 9.838041 2.565659 2.032206 4.553688 2.081715 6.840317-.413874 2.922882-3.189992 6.00631-6.251486 9.20546-9.165338 4.694923-4.27624 8.521461-4.255058 13.243263-.062477 2.614265 2.321261 5.012016 4.887424 7.64064 7.191124 2.00425 1.75649 3.627716 4.501497 7.216919 2.393465 1.759468-1.033381 2.461548 1.095119 3.063851 2.398 2.225936 4.815167.996536 11.100375-2.722519 14.25071-3.421242 2.898064-7.823105 2.726799-12.792572-1.053707-4.745537-3.610155-9.19339-7.611622-13.925713-11.569557-4.004189 2.369072-6.240532 6.406086-9.330826 9.57175-6.109024 6.25803-9.836937 6.65176-16.896343 1.386624-4.405827-3.286007-8.797947-6.594906-13.097866-10.017107-4.221222-3.359564-5.803467.832237-8.11298 2.74477-2.296558 1.901802-4.19994 4.040941-1.46286 7.089803 7.107811 7.917462 14.723102 14.037369 26.617245 12.572426 11.552894-1.422916 22.980606.377453 33.529266 5.643105 8.448929 4.21751 13.102798 11.307525 13.191666 20.803619.180839 19.324295-.004166 38.65181.11441 57.977051.023117 3.766571-1.502319 4.927063-5.073631 4.843475-15.739868-.368362-13.230072 2.179398-13.360306-13.019813-.144173-16.825783-.00901-33.653809-.044037-50.480751-.017845-8.575898-3.266182-12.809437-11.58258-15.050579-7.386528-1.990563-14.826775-1.923756-22.188897.091446-8.589519 2.351173-11.652839 6.392322-11.692398 15.579776-.081058 18.825928-.201858 37.654869.072155 56.477059.073651 5.059326-1.396908 6.660156-6.473163 6.460998-13.210911-.518295-11.199557 1.726532-11.312535-11.481598-.115423-13.493744-.023069-26.989273-.021854-40.983589z"/><path d="m475.959137 723.037048c-.151428 6.314514.283997 12.137452-.459259 17.960083-1.267365 9.928589-5.79776 15.615967-15.483032 17.747315-7.75943 1.707458-15.556458 1.367554-22.951416-2.137268-6.192902-2.93512-9.924988-7.696839-10.811097-14.544251-.234252-1.810241-.360778-3.651489-.33435-5.475647.21817-15.035522-2.042236-12.584961 13.604248-12.860595 3.369965-.059327 4.877075 1.257812 4.773834 4.713806-.134277 4.493774-.093292 8.99823.039917 13.493103.151184 5.100464 2.783264 7.971679 7.024719 7.939392 3.977112-.030274 6.184205-2.631958 6.267823-7.965088.130584-8.328308-.087708-16.662964.102783-24.988953.079315-3.466247-1.245667-4.401123-4.588867-4.796325-21.203064-2.506409-34.768433-17.752076-36.628357-38.394776-2.647858-29.388 15.393432-37.997131 34.190185-41.854431 10.343903-2.122681 20.891724-2.232056 31.125946 1.078308 11.094086 3.58844 17.059693 12.059693 15.772736 21.925476-1.39856 10.721253-13.28299 18.160889-25.917267 16.149292-5.928833-.943969-11.332275-2.957031-14.607117-8.468261-2.669555-4.492493-1.631317-9.834534 2.284424-12.450318 4.161377-2.779907 9.031189-1.586975 12.561585 3.257569-.302796.435363-.542786 1.149963-1.02826 1.415283-2.219604 1.212524-3.181701 2.979919-2.333831 5.381164.815033 2.308411 2.795684 3.34375 5.094635 3.325745 2.480407-.019348 4.391418-1.098572 5.383117-3.662598 2.175537-5.624695-.241485-12.291992-5.966095-16.012878-14.939636-9.710388-34.84317-1.548218-38.051422 15.887268-2.051574 11.149353-.256775 21.881164 5.710022 31.693664 2.01117 3.307312 4.734467 6.027466 7.960602 8.18335 6.168793 4.122253 7.771057 3.660156 10.508636-2.909912 5.014802-12.035217 25.94629-16.209107 35.244965-7.028137 5.443604 5.374695 4.173035 14.529114-2.603882 18.981079-3.156402 2.073547-6.753998 3.185913-10.363373 3.291076-4.80194.139832-6.009643 2.445557-5.532348 6.637452.14975 1.315307.01654 2.662964.009796 4.489013m10.780975-27.298095c-3.252655-2.275513-6.341736-1.704956-8.997955.889099-1.468872 1.434509-2.50177 3.888733-.657105 5.278137 2.422608 1.824951 5.451844.728638 8.065003-.380432 2.30719-.979248 3.278992-2.735413 1.590057-5.786804z"/><path d="m337.698181 659.792664c4.211182-6.83429 8.155182-13.402832 12.272705-19.860779 6.485871-10.172608 10.822174-10.015381 16.383667.428283 1.013672 1.903626 2.043396 3.841309 3.36615 5.527588 2.05249 2.616455 4.861786 3.438599 8.049713 2.353272 2.962281-1.008423 4.67157-3.145081 4.898773-6.289429.203858-2.821411.413025-5.668823-.993682-8.315735-1.360444-2.559814-3.28183-4.036926-6.027222-2.185119-2.617798 1.765747-3.916565.434143-5.216187-1.568543-2.555664-3.938354-2.052765-8.671814 1.278717-11.875244 2.942841-2.829712 9.06662-3.064087 13.076081-.411133 2.71344 1.795471 4.830047 4.226746 5.792846 7.32312 3.312226 10.652649 2.934998 20.947876-3.270263 30.644532-6.153229 9.615234-21.590088 11.918396-28.62616-.186524-.713928-1.22821-1.217743-2.753662-2.724304-3.324219-.222717.092591-.428681.110657-.505463.219727-8.421875 11.963989-8.421386 11.964416 5.179291 16.024353 9.791626 2.922913 12.180634 5.978027 12.188324 17.064819.013092 18.819092-.269348 37.638245-.390839 56.457642-.036316 5.629028.971924 11.287842-.480896 16.853332-19.891388 5.078309-43.511627-13.993713-42.271545-34.067932.437317-7.079406 5.034485-11.810974 11.585846-11.924621 6.447388-.111756 11.827759 4.630615 12.606995 11.123779.283508 2.362122.081665 4.086792-3.014618 4.593384-5.16507.845032-7.060273 5.124389-4.836792 10.045532 1.288025 2.850708 3.814605 5.080811 7.659912 6.730347 1.644165-1.444886.935394-3.407166.941955-5.117798.064759-16.991394.05774-33.983154.040161-50.974793-.006439-6.233581-1.461273-8.064453-7.654785-9.831298-2.55954-.730103-5.179138-1.27948-7.688476-2.150147-5.957947-2.067017-7.370667-5.391418-4.816254-11.243347.862915-1.976807 1.996887-3.835205 3.19635-6.063049z"/><path d="m409.825287 128.333023c-9.014832-5.444725-14.761658-12.816498-16.74881-22.939552-.729553-3.716545-.387878-7.30542.993988-10.779145 2.093353-5.262283 7.44165-8.183433 12.854187-7.13758 5.58075 1.078353 10.320526 6.626319 10.20462 11.999321-.03659 1.695884-.189727 3.130722-2.412262 3.722786-6.854278 1.82592-8.354736 6.679618-4.00473 12.38861 1.541687 2.023331 3.554688 3.429161 5.751038 4.557 1.953796-1.334328 1.218384-3.16214 1.223266-4.672745.056733-17.485344-.101287-34.97255.111878-52.455433.057587-4.724297-1.92511-7.134552-6.189789-8.214958-3.058319-.774796-6.159027-1.413059-9.167236-2.348873-7.624848-2.372017-9.34256-6.759781-5.540833-13.651265 2.289429-4.150177 5.764405-7.30669 8.902619-10.735673 5.956909-6.508948 11.929901-13.007246 18.05368-19.358112 4.736023-4.911621 8.638672-4.686762 12.967041.551613 2.118805 2.564299 3.918732 5.392561 6.044312 7.950696 4.471801 5.381788 6.717376 5.472879 11.626953.717327 5.60376 4.527996 4.007416 13.480267-3.029816 16.991142-7.289001 3.636483-17.08725 1.18446-22.476654-5.685232-1.22467-1.561037-2.266968-3.265163-3.68103-5.322071-4.75174 3.634611-8.11435 8.345106-11.769562 12.724802-1.663025 1.992664-.301941 3.401783 1.792877 4.023094 3.508576 1.040627 7.081146 1.874771 10.563019 2.99413 7.540497 2.424076 10.258942 6.122566 10.264069 13.934951.015411 23.481877-.0029 46.963787-.032959 70.445652-.007935 6.195481-.411255 6.650925-6.508881 6.213456-6.881317-.493668-13.426086-2.303864-19.790985-5.913941z"/><path d="m292.209534 353.866669c18.271087 5.042297 18.778045 5.733612 18.75412 24.447571-.026612 20.818054-.008027 41.636169-.04123 62.454223-.010009 6.289887-.804382 6.807678-7.018829 6.079804-9.121643-1.068451-17.598633-3.702515-24.685577-9.758881-7.609559-6.503082-12.02414-14.594208-11.506012-24.87207.355468-7.051392 5.020477-12.094117 11.318969-12.439881 5.783936-.317505 11.34314 4.321869 12.659516 10.664673.573944 2.765442 1.068451 5.1315-3.406983 5.218231-4.218963.081757-6.292236 4.534729-4.574768 9.14441 1.428498 3.834106 4.018097 6.755432 9.008393 8.330108 0-6.907226.004303-13.323547-.000916-19.739868-.01001-12.324249-.014648-24.64856-.042999-36.972778-.014405-6.270356-1.109131-7.60788-7.356018-9.323456-3.520569-.966828-7.163086-1.665924-10.50293-3.073456-5.053925-2.129913-6.260101-6.071106-3.939178-11.024689 1.434936-3.062683 3.586975-5.625946 5.83432-8.067779 7.216003-7.840515 14.48352-15.635346 21.838134-23.345825 5.043946-5.288025 8.5672-5.097962 13.187897.553253 1.89505 2.317688 3.537384 4.840576 5.399902 7.186615 4.282929 5.394867 7.313965 5.700195 12.289826 1.344757 4.772827 4.553833 3.888428 12.343933-1.817322 16.00766-7.749725 4.976196-17.904114 2.640228-24.340393-5.543152-1.107941-1.408661-1.602203-3.315308-3.860199-4.527283-3.653381 4.084748-7.732422 7.996979-10.995911 12.500305-2.589172 3.572846 1.286408 3.794129 3.798188 4.757508z"/><path d="m174.0784 534.364136c-4.383316.536438-8.34227 1.028442-12.306977 1.468933-3.397445.377441-4.841903-1.167664-4.832748-4.595459.049408-18.487122-.019425-36.974426.007568-55.461609.008942-6.127167 3.164292-10.291473 8.444397-13.113312 7.390808-3.949859 15.511597-4.94992 23.62468-5.635315 11.008728-.929992 21.956909-.105926 32.675812 2.733063 3.865783 1.023895 7.617462 2.44281 10.792511 5.015167 3.139907 2.543946 4.912216 5.677582 4.893951 9.889618-.081558 18.82013-.107132 37.641174.004135 56.460938.020096 3.39862-1.122635 4.877685-4.557693 4.858703-16.296448-.090271-12.931244 1.258179-13.107712-12.258606-.206528-15.819854-.202713-31.646728.0401-47.465484.07074-4.609314-1.592346-7.320832-5.851715-8.537415-10.823609-3.091553-21.708176-2.823791-32.538361-.155975-4.128113 1.016846-6.227524 3.582397-6.14241 8.334198.25946 14.485138.063034 28.978088.116699 43.467743.006119 1.650696-.720123 4.185913 2.163162 4.114746 2.355271-.058228 4.851792-1.089905 5.807908-3.312622 1.092025-2.538513-1.379837-2.933106-3.111863-3.357178-4.548263-1.11377-5.732391-3.733826-3.293106-7.491821 3.53566-5.446961 13.106385-6.934876 18.841172-2.92923 4.982681 3.480347 5.568237 10.08139 1.158706 15.920319-5.592163 7.404968-13.911026 9.904358-22.828216 12.050598z"/><path d="m158.72287 205.635468c-.032059-5.287659-.331421-10.137513.028488-14.937912.514252-6.858811 3.33226-12.595398 10.002655-15.507004 4.093521-1.786789 5.458725-.766907 5.505219 3.684082.073013 6.991943.028488 13.985031.068588 20.977447.015915 2.777359.487915 5.684067 3.435654 6.59079 3.101562.954041 4.283447-1.899063 5.477066-4.039459 3.665817-6.573563 8.193283-12.196289 15.757064-14.456329 2.54686-.761002 2.647766-2.61055 2.645737-4.694977-.007278-7.49202-.119064-14.98729.061081-22.475266.222794-9.260284 7.900665-16.411316 17.032333-15.87706 1.259232 3.978577.510666 8.143067.580368 12.227066.133515 7.822739.162049 15.652497-.026153 23.473069-.082291 3.419769.649307 5.52246 4.569412 5.279876.968338-.059921 1.961136.322251 2.946228.478928 6.031815.959259 11.735718 2.795746 13.180267 9.581848 1.555497 7.30722-.251449 14.085785-6.264923 18.899872-8.33789 6.674896-18.414032 8.036499-28.697036 8.348007-3.078431.093262-3.36409-2.053238-3.360581-4.392899.009644-6.459869.003327-12.919769.003327-19.593017-4.470505-.259247-6.683426 2.337692-8.512925 4.99675-2.062667 2.997955-3.610672 6.351623-5.362197 9.561691-3.117966 5.714447-7.024979 10.218582-14.392334 9.438538-6.752503-.714951-11.709778-5.312592-13.689515-12.723297-.385467-1.442856-.643737-2.919678-.987823-4.840744m61.521469-8.787766c-1.694061 4.73053-.877106 9.415695-.482636 14.421661 6.518525-2.886367 9.976578-7.350021 8.839753-11.263168-1.131989-3.896423-4.400452-3.865097-8.357117-3.158493z"/><path d="m397.248016 607.985474c.794251 2.200683 1.938019 3.928833 1.500275 6.000549-1.405273 1.43103-3.154999 1.108032-4.761688 1.109924-18.490814.022034-36.98349.149231-55.471558-.081726-7.450256-.092956-14.766479-1.234741-18.74823-8.969238-5.028534-9.767761-1.360657-21.364441 9.331665-26.604065 17.396637-8.525024 34.037171-5.176025 49.639252 4.997375 8.614044 5.616822 14.265808 13.85608 18.510284 23.547181m-51.478302-3.105591h28.875916c-2.443787-9.58197-8.458038-14.606262-16.203064-17.274475-7.401917-2.550049-15.204102-3.012451-21.786316 2.498596-5.034393 4.215149-3.674286 11.053284 2.346954 13.68689 1.88675.825256 3.850952.97113 6.76651 1.088989z"/><path d="m593 302.315826c-7.317017-.009094-14.135803.076203-20.950623-.050659-8.761352-.163086-14.841186-4.045379-17.417236-10.885559-2.804016-7.445465-.660461-15.647583 5.538757-21.342071 6.551636-6.018097 14.692139-7.613648 23.10254-7.784272 22.702453-.460632 42.61676 13.36612 50.430114 34.66211.512024 1.395569 1.111939 2.773498.647705 5.400573-13.498535 0-27.174926 0-41.351257-.000122m2.124084-27.066589c-6.128723-2.392151-12.305603-2.776459-18.515808-.352692-4.785278 1.867646-7.79248 5.8013-7.144226 9.714814.766785 4.62857 4.11792 6.636291 8.400574 7.289642 10.108765 1.542175 20.283508.4729 30.427856.620392.579163.008423 1.165101-.45343 2.107117-.846192-2.0448-8.156585-7.626953-12.744018-15.275513-16.425964z"/><path d="m803.103882 590.742859c-9.707459 19.938904-37.630371 26.438904-54.888062 13.113281-9.024353-6.968201-12.02301-19.201233-7.002685-28.567322 3.483825-6.499572 10.766357-9.699279 17.215332-7.780639 5.113464 1.521301 6.775879 5.515686 7.664062 10.101684.467591 2.414307-1.521484 2.926758-3.18518 3.755066-6.778077 3.374512-7.523133 10.916931-1.602356 15.657105 5.407226 4.32904 13.559021 4.855407 19.750061 1.275268 5.421325-3.135132 7.847229-9.145691 6.612854-16.491699-.759705-4.52124-3.421692-7.649719-7.674744-9.026245-3.904419-1.263672-3.798767-3.678284-2.523376-6.588928 2.080078-4.746949 5.584838-7.906861 10.882995-8.407349 5.652649-.533935 10.168091 1.786316 13.047486 6.62616 4.930297 8.287109 4.956359 17.044433 1.703613 26.333618z"/></svg>