<svg version="1.1" id="Layer_1" xmlns="http://www.w3.org/2000/svg" xmlns:xlink="http://www.w3.org/1999/xlink" x="0px" y="0px"
	 width="100%" viewBox="0 0 1180 758" enable-background="new 0 0 1180 758" xml:space="preserve">
<path fill="#FFFFFF" opacity="1.000000" stroke="none" 
	d="
M728.000000,759.000000 
	C485.364532,759.000000 243.229080,759.000000 1.046810,759.000000 
	C1.046810,506.397095 1.046810,253.794205 1.046810,1.095650 
	C394.218842,1.095650 787.437744,1.095650 1180.828369,1.095650 
	C1180.828369,253.666580 1180.828369,506.333282 1180.828369,759.000000 
	C1030.127441,759.000000 879.313721,759.000000 728.000000,759.000000 
M474.812714,508.704285 
	C484.568756,516.871155 496.451416,517.648621 508.295776,517.885681 
	C531.878540,518.357666 551.265564,510.027527 564.347534,489.594727 
	C572.554016,476.776855 576.988220,462.539490 579.427551,447.622986 
	C582.826294,426.840118 584.932495,405.922455 581.825989,384.977997 
	C578.906311,365.292633 568.575256,350.984589 548.578857,345.584412 
	C540.971802,343.530090 533.012268,342.781189 524.835266,341.372162 
	C524.835266,335.561951 524.829163,329.422729 524.836121,323.283508 
	C524.897583,269.117920 524.902832,214.952118 525.084717,160.786911 
	C525.113525,152.210968 527.306946,144.015305 531.498596,136.416931 
	C539.383850,122.123123 550.124390,119.110352 563.105347,128.783905 
	C570.503479,134.297104 576.944641,141.209305 583.290405,147.984467 
	C588.572083,153.623550 593.085938,159.981781 597.790283,165.835236 
	C605.243896,157.092865 612.046875,148.207489 619.832703,140.288361 
	C625.361206,134.665283 631.939392,129.923431 638.571777,125.587700 
	C643.279175,122.510323 649.231873,121.432922 654.062012,125.295334 
	C658.129578,128.547974 661.981812,132.547623 664.639832,136.988403 
	C670.649048,147.028564 671.192322,158.419388 671.188416,169.848953 
	C671.149292,283.848846 671.164734,397.848755 671.164734,511.848663 
	C671.164734,513.791199 671.164734,515.733765 671.164734,517.749573 
	C690.953308,517.749573 710.202026,517.749573 729.835266,517.749573 
	C729.835266,515.542236 729.835266,513.580994 729.835266,511.619720 
	C729.835266,398.119812 729.831665,284.619904 729.849976,171.120010 
	C729.850647,167.122757 729.860107,163.106659 730.219971,159.131424 
	C732.264954,136.538620 743.468079,120.678413 765.266785,113.431328 
	C788.849854,105.591026 812.922485,105.955643 836.710815,112.063438 
	C854.047729,116.514801 867.651123,126.595039 872.780945,144.623215 
	C875.107788,152.800522 876.012634,161.638062 876.028015,170.178848 
	C876.232483,284.011719 876.164734,397.845062 876.164734,511.678314 
	C876.164734,513.634949 876.164734,515.591553 876.164734,517.733093 
	C895.975708,517.733093 915.360901,517.733093 935.001953,517.733093 
	C935.001953,515.660034 935.001892,513.853333 935.001892,512.046570 
	C935.001892,443.213287 935.001892,374.380035 935.001892,305.546753 
	C935.001892,262.546783 934.980652,219.546783 935.070923,176.547028 
	C935.075012,174.592194 935.443665,171.869049 936.724182,170.802597 
	C952.983948,157.260864 969.593201,144.207092 988.703247,134.719376 
	C999.600647,129.309097 1010.704834,129.135284 1021.521362,133.835464 
	C1039.233398,141.531982 1054.441528,153.289581 1068.839111,165.904022 
	C1078.893677,174.713440 1081.536743,186.896942 1081.529419,199.897507 
	C1081.471436,303.897400 1081.496948,407.897308 1081.496948,511.897217 
	C1081.496948,513.855774 1081.496948,515.814331 1081.496948,517.712097 
	C1101.284302,517.712097 1120.537476,517.712097 1139.819580,517.712097 
	C1139.899292,516.947327 1139.993042,516.467224 1139.993042,515.987183 
	C1139.998535,409.153961 1140.067993,302.320648 1139.951172,195.487564 
	C1139.918945,165.933121 1130.407715,139.941879 1107.442993,120.551926 
	C1095.025757,110.067604 1081.614014,100.479767 1067.649780,92.169739 
	C1041.583618,76.657814 1013.772034,74.030930 985.221130,85.219498 
	C970.926025,90.821487 958.600159,99.619720 947.742310,110.393066 
	C941.101379,116.982307 934.818054,123.931877 928.320801,130.775787 
	C927.824646,130.142609 927.439575,129.790619 927.222900,129.354874 
	C917.136597,109.069885 900.307068,96.979004 879.433472,89.578148 
	C862.488770,83.570351 844.949890,80.732262 827.149780,79.478432 
	C802.481323,77.740807 777.865479,78.032768 753.616150,83.759941 
	C734.863037,88.189011 717.586792,95.474777 704.413208,110.585777 
	C702.308899,108.751831 700.702820,107.015236 698.789368,105.739586 
	C686.912476,97.821274 675.279602,89.462555 662.929993,82.354752 
	C655.133728,77.867661 646.159729,76.477058 637.815613,82.105202 
	C632.720459,85.541962 627.416260,88.869308 623.012756,93.087997 
	C614.637024,101.112358 606.839844,109.740715 598.537354,118.394539 
	C596.148621,115.859215 594.693176,114.298050 593.220093,112.753708 
	C582.986755,102.024887 572.936096,91.138809 560.247498,83.081841 
	C553.088257,78.535889 545.864807,77.633163 537.920898,80.392235 
	C523.496582,85.402046 511.518829,94.442322 499.699768,103.641212 
	C477.470947,120.942177 465.896545,143.191696 466.007507,172.034134 
	C466.407654,276.032501 466.160400,380.033356 466.185791,484.033264 
	C466.186584,487.191223 466.328827,490.369263 466.701477,493.502686 
	C467.392334,499.311462 469.833710,504.300995 474.812714,508.704285 
M260.997375,298.606384 
	C260.997375,371.678162 260.997375,444.749939 260.997375,517.773560 
	C280.877075,517.773560 300.141174,517.773560 319.833832,517.773560 
	C319.833832,515.775696 319.833832,513.981506 319.833832,512.187256 
	C319.833832,446.037567 319.863464,379.887817 319.798981,313.738190 
	C319.790222,304.749817 319.807892,295.713043 318.931458,286.785278 
	C317.631195,273.540375 313.430328,261.217285 305.441162,250.283554 
	C292.435944,232.484970 273.828857,223.844681 253.476608,218.005386 
	C232.633255,212.025177 211.199799,210.700790 189.687469,210.642609 
	C161.778183,210.567139 134.134415,212.493210 107.721146,222.852890 
	C88.763550,230.288315 73.425522,241.796967 64.206795,260.377472 
	C58.009754,272.867737 56.002686,286.299988 56.001617,300.104187 
	C55.996113,371.419220 55.997616,442.734222 56.010517,514.049255 
	C56.010746,515.314880 56.183002,516.580505 56.276260,517.863647 
	C75.739326,517.863647 94.867508,517.863647 114.500854,517.863647 
	C114.500854,515.770142 114.500854,513.809204 114.500854,511.848328 
	C114.500854,442.532776 114.488914,373.217224 114.525841,303.901672 
	C114.528496,298.909149 114.499947,293.865784 115.149368,288.933380 
	C117.695847,269.592926 126.693077,254.536957 145.487946,247.208801 
	C171.925079,236.900879 198.903290,237.371887 225.778442,245.336426 
	C237.795715,248.897797 247.282196,256.377014 253.742905,267.379974 
	C259.241272,276.743988 260.492004,287.093414 260.997375,298.606384 
M921.365112,644.001770 
	C923.298645,644.001770 925.232239,644.001770 926.843384,644.001770 
	C926.843384,629.093323 927.885559,614.706116 926.553894,600.542114 
	C925.189697,586.032471 917.394775,574.397400 903.793884,568.036255 
	C881.336853,557.533203 858.670959,547.472534 836.017151,537.396240 
	C824.277466,532.174438 812.246582,531.455139 800.083496,536.164307 
	C797.134827,537.305969 794.067810,538.148743 791.143188,539.344238 
	C768.956848,548.413635 746.763794,557.468201 724.653381,566.720093 
	C721.507019,568.036743 719.478638,567.890015 716.656067,565.732239 
	C705.415955,557.139404 694.216125,548.417175 682.373718,540.707092 
	C665.514343,529.730713 661.222900,530.205688 645.419006,542.609131 
	C637.719482,548.651978 630.376343,555.148804 622.612793,561.657410 
	C621.043640,560.458191 619.395630,559.082214 617.633972,557.871643 
	C607.353210,550.806824 597.120605,543.667725 586.723267,536.777771 
	C578.541809,531.356323 570.112610,532.031860 561.624329,536.377930 
	C545.294617,544.738892 530.941711,555.746216 518.246582,568.897705 
	C507.195068,580.346436 500.986938,593.842957 503.183380,610.079285 
	C504.043762,616.439270 505.290253,623.006714 507.850372,628.824280 
	C513.631470,641.961121 525.273315,644.502930 538.263794,643.830200 
	C562.951233,642.551514 574.608032,625.671265 575.874023,608.466858 
	C576.406799,601.226685 573.694214,596.971802 566.673645,594.936951 
	C560.360657,593.107117 553.759521,592.271484 546.503845,590.843506 
	C546.985352,588.853333 546.770630,585.617615 548.220154,584.452454 
	C555.057922,578.956299 562.191956,573.781921 569.548096,568.996643 
	C573.374939,566.507263 577.764160,566.835083 581.831299,569.389648 
	C587.326965,572.841492 593.035034,575.969666 598.412231,579.592407 
	C606.673157,585.158020 614.730225,591.026306 623.088196,596.917236 
	C624.943298,595.192078 626.552368,593.520630 628.337524,592.065308 
	C637.101624,584.920288 645.834106,577.732788 654.735352,570.761414 
	C660.345581,566.367554 666.536987,566.292053 672.411499,570.108154 
	C677.977539,573.723755 683.154175,577.933350 688.588257,581.759277 
	C692.176514,584.285645 693.341858,587.475891 693.260925,591.914551 
	C692.978821,607.407349 693.151794,622.908508 693.151794,638.406494 
	C693.151794,640.170654 693.151794,641.934753 693.151794,643.760498 
	C708.114441,643.760498 722.381531,643.760498 737.156982,643.760498 
	C737.156982,641.922546 737.156921,640.299927 737.156982,638.677368 
	C737.157043,624.845825 737.221741,611.013733 737.103333,597.183228 
	C737.079163,594.363464 737.645386,592.617065 740.606567,591.596741 
	C757.750732,585.689209 774.796021,579.493774 791.958130,573.639954 
	C799.574097,571.042236 807.362671,570.758606 814.820618,574.434204 
	C836.459106,585.098877 858.025330,595.910767 879.709045,606.481995 
	C883.111206,608.140686 884.014343,610.276184 883.926819,613.865356 
	C883.684692,623.789001 883.842957,633.722412 883.842957,644.001770 
	C896.456665,644.001770 908.425781,644.001770 921.365112,644.001770 
M310.595703,129.895645 
	C298.775391,117.233528 287.059235,104.471535 275.070496,91.970947 
	C271.533295,88.282738 267.375916,85.128586 263.236298,82.093086 
	C257.000610,77.520561 250.483414,77.536331 244.420959,82.405121 
	C238.592056,87.086342 232.637222,91.726990 227.469116,97.090256 
	C217.075348,107.876472 207.365311,119.320053 197.015305,130.150421 
	C189.544601,137.967834 180.240341,138.088531 172.064407,130.983566 
	C168.932587,128.261993 166.215393,125.068130 163.246307,122.153610 
	C151.251312,110.379013 139.889496,97.845001 127.047867,87.077415 
	C112.369652,74.769890 109.481247,75.872368 96.475166,86.950394 
	C76.975067,103.559738 58.362637,121.236320 39.796005,138.903885 
	C32.610909,145.741043 27.395529,154.285080 26.994469,164.695755 
	C26.680574,172.843719 26.715090,181.022476 27.014297,189.172165 
	C27.371010,198.888199 31.318434,207.166412 38.218853,214.017380 
	C47.240379,222.974258 58.313133,228.678986 69.782074,233.694153 
	C70.892143,234.179581 72.837585,234.044617 73.808228,233.362411 
	C85.470490,225.165771 97.021896,216.811432 109.082291,208.153656 
	C103.482643,204.844467 98.279739,202.003220 93.328690,198.775620 
	C88.737633,195.782684 84.180283,192.652847 80.018623,189.102127 
	C66.711533,177.748550 67.175369,157.494705 80.727104,145.969940 
	C85.000076,142.336075 89.787048,140.637604 95.385544,140.870926 
	C102.756271,141.178131 108.727608,144.458130 114.175842,149.130325 
	C125.288124,158.659775 136.018936,168.723557 147.799683,177.347641 
	C154.033249,181.910889 161.885849,184.891891 169.456360,186.865479 
	C184.204926,190.710327 193.480423,181.194626 202.049347,171.295441 
	C207.928162,164.503983 213.137497,157.116470 219.205338,150.508987 
	C228.603470,140.275009 236.981384,138.402313 246.586472,143.816238 
	C249.310730,145.351776 251.958633,147.244812 254.153473,149.457901 
	C262.244171,157.615875 269.946716,166.165222 278.173859,174.178635 
	C282.047699,177.951843 286.315826,182.117767 291.209076,183.904282 
	C309.270142,190.498322 317.794281,189.671326 328.349457,175.912125 
	C334.370483,168.063461 338.892120,159.042709 343.853058,150.414139 
	C345.685516,147.226883 346.842072,143.651016 348.306885,140.252396 
	C340.042908,144.760498 331.981720,145.753799 324.177673,141.022247 
	C319.417358,138.136124 315.415558,133.998901 310.595703,129.895645 
M882.951904,690.164917 
	C884.515869,695.556885 882.376160,699.338013 877.545654,701.546387 
	C874.397888,702.985474 871.069458,704.287292 867.685547,704.911621 
	C836.999512,710.573547 806.286255,708.885925 775.678406,704.413696 
	C748.380127,700.425049 722.339722,691.600403 696.368286,682.612854 
	C655.762329,668.560974 613.964844,662.618408 571.070435,665.105774 
	C557.123718,665.914429 542.989197,666.944397 530.109131,673.026123 
	C507.020477,683.928040 499.813599,698.313293 503.628052,719.364746 
	C504.984924,718.606140 506.299164,717.990356 507.488281,717.188965 
	C530.274414,701.832336 555.741272,695.111755 582.876709,694.092285 
	C615.259277,692.875549 646.408081,699.513428 677.007690,709.427612 
	C696.313477,715.682617 715.362793,723.019043 735.028931,727.811035 
	C773.961487,737.297668 813.708801,739.392090 853.639893,736.710571 
	C872.302063,735.457336 890.756958,732.537781 907.662231,723.782227 
	C919.528564,717.636475 927.197449,708.490417 927.363403,694.350769 
	C927.529907,680.166565 925.051208,667.011230 912.867065,657.846741 
	C903.592285,650.870544 892.697510,649.573975 881.530884,650.012207 
	C863.493042,650.719910 854.294861,660.677246 854.753662,678.847473 
	C859.010803,679.290222 863.339111,679.461975 867.553955,680.244873 
	C873.674438,681.381470 879.658325,683.049255 882.951904,690.164917 
z"/>
<path fill="#010101" opacity="1.000000" stroke="none" 
	d="
M474.547760,508.459198 
	C469.833710,504.300995 467.392334,499.311462 466.701477,493.502686 
	C466.328827,490.369263 466.186584,487.191223 466.185791,484.033264 
	C466.160400,380.033356 466.407654,276.032501 466.007507,172.034134 
	C465.896545,143.191696 477.470947,120.942177 499.699768,103.641212 
	C511.518829,94.442322 523.496582,85.402046 537.920898,80.392235 
	C545.864807,77.633163 553.088257,78.535889 560.247498,83.081841 
	C572.936096,91.138809 582.986755,102.024887 593.220093,112.753708 
	C594.693176,114.298050 596.148621,115.859215 598.537354,118.394539 
	C606.839844,109.740715 614.637024,101.112358 623.012756,93.087997 
	C627.416260,88.869308 632.720459,85.541962 637.815613,82.105202 
	C646.159729,76.477058 655.133728,77.867661 662.929993,82.354752 
	C675.279602,89.462555 686.912476,97.821274 698.789368,105.739586 
	C700.702820,107.015236 702.308899,108.751831 704.413208,110.585777 
	C717.586792,95.474777 734.863037,88.189011 753.616150,83.759941 
	C777.865479,78.032768 802.481323,77.740807 827.149780,79.478432 
	C844.949890,80.732262 862.488770,83.570351 879.433472,89.578148 
	C900.307068,96.979004 917.136597,109.069885 927.222900,129.354874 
	C927.439575,129.790619 927.824646,130.142609 928.320801,130.775787 
	C934.818054,123.931877 941.101379,116.982307 947.742310,110.393066 
	C958.600159,99.619720 970.926025,90.821487 985.221130,85.219498 
	C1013.772034,74.030930 1041.583618,76.657814 1067.649780,92.169739 
	C1081.614014,100.479767 1095.025757,110.067604 1107.442993,120.551926 
	C1130.407715,139.941879 1139.918945,165.933121 1139.951172,195.487564 
	C1140.067993,302.320648 1139.998535,409.153961 1139.993042,515.987183 
	C1139.993042,516.467224 1139.899292,516.947327 1139.819580,517.712097 
	C1120.537476,517.712097 1101.284302,517.712097 1081.496948,517.712097 
	C1081.496948,515.814331 1081.496948,513.855774 1081.496948,511.897217 
	C1081.496948,407.897308 1081.471436,303.897400 1081.529419,199.897507 
	C1081.536743,186.896942 1078.893677,174.713440 1068.839111,165.904022 
	C1054.441528,153.289581 1039.233398,141.531982 1021.521362,133.835464 
	C1010.704834,129.135284 999.600647,129.309097 988.703247,134.719376 
	C969.593201,144.207092 952.983948,157.260864 936.724182,170.802597 
	C935.443665,171.869049 935.075012,174.592194 935.070923,176.547028 
	C934.980652,219.546783 935.001892,262.546783 935.001892,305.546753 
	C935.001892,374.380035 935.001892,443.213287 935.001892,512.046570 
	C935.001892,513.853333 935.001953,515.660034 935.001953,517.733093 
	C915.360901,517.733093 895.975708,517.733093 876.164734,517.733093 
	C876.164734,515.591553 876.164734,513.634949 876.164734,511.678314 
	C876.164734,397.845062 876.232483,284.011719 876.028015,170.178848 
	C876.012634,161.638062 875.107788,152.800522 872.780945,144.623215 
	C867.651123,126.595039 854.047729,116.514801 836.710815,112.063438 
	C812.922485,105.955643 788.849854,105.591026 765.266785,113.431328 
	C743.468079,120.678413 732.264954,136.538620 730.219971,159.131424 
	C729.860107,163.106659 729.850647,167.122757 729.849976,171.120010 
	C729.831665,284.619904 729.835266,398.119812 729.835266,511.619720 
	C729.835266,513.580994 729.835266,515.542236 729.835266,517.749573 
	C710.202026,517.749573 690.953308,517.749573 671.164734,517.749573 
	C671.164734,515.733765 671.164734,513.791199 671.164734,511.848663 
	C671.164734,397.848755 671.149292,283.848846 671.188416,169.848953 
	C671.192322,158.419388 670.649048,147.028564 664.639832,136.988403 
	C661.981812,132.547623 658.129578,128.547974 654.062012,125.295334 
	C649.231873,121.432922 643.279175,122.510323 638.571777,125.587700 
	C631.939392,129.923431 625.361206,134.665283 619.832703,140.288361 
	C612.046875,148.207489 605.243896,157.092865 597.790283,165.835236 
	C593.085938,159.981781 588.572083,153.623550 583.290405,147.984467 
	C576.944641,141.209305 570.503479,134.297104 563.105347,128.783905 
	C550.124390,119.110352 539.383850,122.123123 531.498596,136.416931 
	C527.306946,144.015305 525.113525,152.210968 525.084717,160.786911 
	C524.902832,214.952118 524.897583,269.117920 524.836121,323.283508 
	C524.829163,329.422729 524.835266,335.561951 524.835266,341.372162 
	C533.012268,342.781189 540.971802,343.530090 548.578857,345.584412 
	C568.575256,350.984589 578.906311,365.292633 581.825989,384.977997 
	C584.932495,405.922455 582.826294,426.840118 579.427551,447.622986 
	C576.988220,462.539490 572.554016,476.776855 564.347534,489.594727 
	C551.265564,510.027527 531.878540,518.357666 508.295776,517.885681 
	C496.451416,517.648621 484.568756,516.871155 474.547760,508.459198 
M541.966248,464.401978 
	C543.373413,461.773224 545.079224,459.259155 546.139709,456.497253 
	C553.499146,437.329987 554.459595,417.258240 553.757874,397.089142 
	C553.175903,380.362213 542.033203,370.922363 525.035767,372.070068 
	C525.035767,405.932739 525.035767,439.808594 525.035767,473.842651 
	C532.376770,473.980042 537.405640,470.282349 541.966248,464.401978 
z"/>
<path fill="#010101" opacity="1.000000" stroke="none" 
	d="
M260.986145,298.123474 
	C260.492004,287.093414 259.241272,276.743988 253.742905,267.379974 
	C247.282196,256.377014 237.795715,248.897797 225.778442,245.336426 
	C198.903290,237.371887 171.925079,236.900879 145.487946,247.208801 
	C126.693077,254.536957 117.695847,269.592926 115.149368,288.933380 
	C114.499947,293.865784 114.528496,298.909149 114.525841,303.901672 
	C114.488914,373.217224 114.500854,442.532776 114.500854,511.848328 
	C114.500854,513.809204 114.500854,515.770142 114.500854,517.863647 
	C94.867508,517.863647 75.739326,517.863647 56.276260,517.863647 
	C56.183002,516.580505 56.010746,515.314880 56.010517,514.049255 
	C55.997616,442.734222 55.996113,371.419220 56.001617,300.104187 
	C56.002686,286.299988 58.009754,272.867737 64.206795,260.377472 
	C73.425522,241.796967 88.763550,230.288315 107.721146,222.852890 
	C134.134415,212.493210 161.778183,210.567139 189.687469,210.642609 
	C211.199799,210.700790 232.633255,212.025177 253.476608,218.005386 
	C273.828857,223.844681 292.435944,232.484970 305.441162,250.283554 
	C313.430328,261.217285 317.631195,273.540375 318.931458,286.785278 
	C319.807892,295.713043 319.790222,304.749817 319.798981,313.738190 
	C319.863464,379.887817 319.833832,446.037567 319.833832,512.187256 
	C319.833832,513.981506 319.833832,515.775696 319.833832,517.773560 
	C300.141174,517.773560 280.877075,517.773560 260.997375,517.773560 
	C260.997375,444.749939 260.997375,371.678162 260.986145,298.123474 
z"/>
<path fill="#C47034" opacity="1.000000" stroke="none" 
	d="
M920.880005,644.001770 
	C908.425781,644.001770 896.456665,644.001770 883.842957,644.001770 
	C883.842957,633.722412 883.684692,623.789001 883.926819,613.865356 
	C884.014343,610.276184 883.111206,608.140686 879.709045,606.481995 
	C858.025330,595.910767 836.459106,585.098877 814.820618,574.434204 
	C807.362671,570.758606 799.574097,571.042236 791.958130,573.639954 
	C774.796021,579.493774 757.750732,585.689209 740.606567,591.596741 
	C737.645386,592.617065 737.079163,594.363464 737.103333,597.183228 
	C737.221741,611.013733 737.157043,624.845825 737.156982,638.677368 
	C737.156921,640.299927 737.156982,641.922546 737.156982,643.760498 
	C722.381531,643.760498 708.114441,643.760498 693.151794,643.760498 
	C693.151794,641.934753 693.151794,640.170654 693.151794,638.406494 
	C693.151794,622.908508 692.978821,607.407349 693.260925,591.914551 
	C693.341858,587.475891 692.176514,584.285645 688.588257,581.759277 
	C683.154175,577.933350 677.977539,573.723755 672.411499,570.108154 
	C666.536987,566.292053 660.345581,566.367554 654.735352,570.761414 
	C645.834106,577.732788 637.101624,584.920288 628.337524,592.065308 
	C626.552368,593.520630 624.943298,595.192078 623.088196,596.917236 
	C614.730225,591.026306 606.673157,585.158020 598.412231,579.592407 
	C593.035034,575.969666 587.326965,572.841492 581.831299,569.389648 
	C577.764160,566.835083 573.374939,566.507263 569.548096,568.996643 
	C562.191956,573.781921 555.057922,578.956299 548.220154,584.452454 
	C546.770630,585.617615 546.985352,588.853333 546.503845,590.843506 
	C553.759521,592.271484 560.360657,593.107117 566.673645,594.936951 
	C573.694214,596.971802 576.406799,601.226685 575.874023,608.466858 
	C574.608032,625.671265 562.951233,642.551514 538.263794,643.830200 
	C525.273315,644.502930 513.631470,641.961121 507.850372,628.824280 
	C505.290253,623.006714 504.043762,616.439270 503.183380,610.079285 
	C500.986938,593.842957 507.195068,580.346436 518.246582,568.897705 
	C530.941711,555.746216 545.294617,544.738892 561.624329,536.377930 
	C570.112610,532.031860 578.541809,531.356323 586.723267,536.777771 
	C597.120605,543.667725 607.353210,550.806824 617.633972,557.871643 
	C619.395630,559.082214 621.043640,560.458191 622.612793,561.657410 
	C630.376343,555.148804 637.719482,548.651978 645.419006,542.609131 
	C661.222900,530.205688 665.514343,529.730713 682.373718,540.707092 
	C694.216125,548.417175 705.415955,557.139404 716.656067,565.732239 
	C719.478638,567.890015 721.507019,568.036743 724.653381,566.720093 
	C746.763794,557.468201 768.956848,548.413635 791.143188,539.344238 
	C794.067810,538.148743 797.134827,537.305969 800.083496,536.164307 
	C812.246582,531.455139 824.277466,532.174438 836.017151,537.396240 
	C858.670959,547.472534 881.336853,557.533203 903.793884,568.036255 
	C917.394775,574.397400 925.189697,586.032471 926.553894,600.542114 
	C927.885559,614.706116 926.843384,629.093323 926.843384,644.001770 
	C925.232239,644.001770 923.298645,644.001770 920.880005,644.001770 
z"/>
<path fill="#010101" opacity="1.000000" stroke="none" 
	d="
M310.834412,130.159637 
	C315.415558,133.998901 319.417358,138.136124 324.177673,141.022247 
	C331.981720,145.753799 340.042908,144.760498 348.306885,140.252396 
	C346.842072,143.651016 345.685516,147.226883 343.853058,150.414139 
	C338.892120,159.042709 334.370483,168.063461 328.349457,175.912125 
	C317.794281,189.671326 309.270142,190.498322 291.209076,183.904282 
	C286.315826,182.117767 282.047699,177.951843 278.173859,174.178635 
	C269.946716,166.165222 262.244171,157.615875 254.153473,149.457901 
	C251.958633,147.244812 249.310730,145.351776 246.586472,143.816238 
	C236.981384,138.402313 228.603470,140.275009 219.205338,150.508987 
	C213.137497,157.116470 207.928162,164.503983 202.049347,171.295441 
	C193.480423,181.194626 184.204926,190.710327 169.456360,186.865479 
	C161.885849,184.891891 154.033249,181.910889 147.799683,177.347641 
	C136.018936,168.723557 125.288124,158.659775 114.175842,149.130325 
	C108.727608,144.458130 102.756271,141.178131 95.385544,140.870926 
	C89.787048,140.637604 85.000076,142.336075 80.727104,145.969940 
	C67.175369,157.494705 66.711533,177.748550 80.018623,189.102127 
	C84.180283,192.652847 88.737633,195.782684 93.328690,198.775620 
	C98.279739,202.003220 103.482643,204.844467 109.082291,208.153656 
	C97.021896,216.811432 85.470490,225.165771 73.808228,233.362411 
	C72.837585,234.044617 70.892143,234.179581 69.782074,233.694153 
	C58.313133,228.678986 47.240379,222.974258 38.218853,214.017380 
	C31.318434,207.166412 27.371010,198.888199 27.014297,189.172165 
	C26.715090,181.022476 26.680574,172.843719 26.994469,164.695755 
	C27.395529,154.285080 32.610909,145.741043 39.796005,138.903885 
	C58.362637,121.236320 76.975067,103.559738 96.475166,86.950394 
	C109.481247,75.872368 112.369652,74.769890 127.047867,87.077415 
	C139.889496,97.845001 151.251312,110.379013 163.246307,122.153610 
	C166.215393,125.068130 168.932587,128.261993 172.064407,130.983566 
	C180.240341,138.088531 189.544601,137.967834 197.015305,130.150421 
	C207.365311,119.320053 217.075348,107.876472 227.469116,97.090256 
	C232.637222,91.726990 238.592056,87.086342 244.420959,82.405121 
	C250.483414,77.536331 257.000610,77.520561 263.236298,82.093086 
	C267.375916,85.128586 271.533295,88.282738 275.070496,91.970947 
	C287.059235,104.471535 298.775391,117.233528 310.834412,130.159637 
z"/>
<path fill="#C57035" opacity="1.000000" stroke="none" 
	d="
M882.845825,689.770386 
	C879.658325,683.049255 873.674438,681.381470 867.553955,680.244873 
	C863.339111,679.461975 859.010803,679.290222 854.753662,678.847473 
	C854.294861,660.677246 863.493042,650.719910 881.530884,650.012207 
	C892.697510,649.573975 903.592285,650.870544 912.867065,657.846741 
	C925.051208,667.011230 927.529907,680.166565 927.363403,694.350769 
	C927.197449,708.490417 919.528564,717.636475 907.662231,723.782227 
	C890.756958,732.537781 872.302063,735.457336 853.639893,736.710571 
	C813.708801,739.392090 773.961487,737.297668 735.028931,727.811035 
	C715.362793,723.019043 696.313477,715.682617 677.007690,709.427612 
	C646.408081,699.513428 615.259277,692.875549 582.876709,694.092285 
	C555.741272,695.111755 530.274414,701.832336 507.488281,717.188965 
	C506.299164,717.990356 504.984924,718.606140 503.628052,719.364746 
	C499.813599,698.313293 507.020477,683.928040 530.109131,673.026123 
	C542.989197,666.944397 557.123718,665.914429 571.070435,665.105774 
	C613.964844,662.618408 655.762329,668.560974 696.368286,682.612854 
	C722.339722,691.600403 748.380127,700.425049 775.678406,704.413696 
	C806.286255,708.885925 836.999512,710.573547 867.685547,704.911621 
	C871.069458,704.287292 874.397888,702.985474 877.545654,701.546387 
	C882.376160,699.338013 884.515869,695.556885 882.845825,689.770386 
z"/>
<path fill="#FDFDFD" opacity="1.000000" stroke="none" 
	d="
M541.791626,464.719360 
	C537.405640,470.282349 532.376770,473.980042 525.035767,473.842651 
	C525.035767,439.808594 525.035767,405.932739 525.035767,372.070068 
	C542.033203,370.922363 553.175903,380.362213 553.757874,397.089142 
	C554.459595,417.258240 553.499146,437.329987 546.139709,456.497253 
	C545.079224,459.259155 543.373413,461.773224 541.791626,464.719360 
z"/>
</svg>