<svg version="1.1" id="Layer_1" xmlns="http://www.w3.org/2000/svg" xmlns:xlink="http://www.w3.org/1999/xlink" x="0px" y="0px"
	 width="100%" viewBox="0 0 1130 1024" enable-background="new 0 0 1130 1024" xml:space="preserve">
<path fill="#FFFFFF" opacity="1.000000" stroke="none" 
	d="
M624.000000,1025.000000 
	C416.024048,1025.000000 208.548080,1025.000000 1.036065,1025.000000 
	C1.036065,683.730286 1.036065,342.460510 1.036065,1.095391 
	C377.559387,1.095391 754.118774,1.095391 1130.839111,1.095391 
	C1130.839111,342.333282 1130.839111,683.666626 1130.839111,1025.000000 
	C962.126953,1025.000000 793.313477,1025.000000 624.000000,1025.000000 
M672.499817,644.002197 
	C679.245422,644.002197 685.991089,644.002197 692.682556,644.002197 
	C692.767273,642.719238 692.828247,642.226562 692.828247,641.733887 
	C692.833435,540.402344 692.943909,439.070496 692.664795,337.739716 
	C692.637146,327.697601 691.394470,317.337585 688.703735,307.686035 
	C681.439453,281.629517 663.701477,263.934265 639.685913,252.943588 
	C619.587463,243.745544 598.761047,236.135315 578.238770,227.867172 
	C554.740417,218.400024 530.789673,210.687332 505.706238,206.270813 
	C481.905457,202.080109 461.072510,206.455872 442.336578,222.196518 
	C421.292297,239.876526 402.320831,259.391174 386.408356,281.777924 
	C379.708557,291.203613 374.166321,301.357697 371.066467,311.758759 
	C382.375244,315.239197 393.656525,317.761963 404.154694,322.155823 
	C421.633667,329.471405 429.430084,339.264374 429.309479,359.147339 
	C428.920288,423.310486 429.170563,487.477539 429.149567,551.643066 
	C429.148254,555.640564 429.062714,559.646423 428.797821,563.633911 
	C427.275146,586.558167 412.401520,604.462524 390.134216,610.244507 
	C366.737213,616.319763 343.250519,616.389648 320.068024,609.758484 
	C305.230682,605.514404 293.816193,596.389771 287.421234,581.795044 
	C283.298279,572.385437 282.848602,562.434021 282.845856,552.414551 
	C282.826599,481.915771 282.769379,411.416870 282.924896,340.918427 
	C282.942993,332.716492 280.093079,326.352051 273.794708,321.456970 
	C270.786469,319.118958 267.703674,316.566071 264.226746,315.197723 
	C251.560867,310.213196 238.792923,305.455933 225.903397,301.085022 
	C219.338806,298.858948 212.433350,297.638092 205.195099,295.842010 
	C208.441345,289.195587 211.351959,282.855682 214.601135,276.694275 
	C217.665283,270.883759 222.975769,268.270996 229.161057,269.764954 
	C236.034805,271.425262 242.656174,274.204193 249.298538,276.729858 
	C257.366272,279.797424 265.171539,283.661255 273.395264,286.188507 
	C286.354370,290.170990 297.826782,286.676147 307.003876,276.795258 
	C318.091553,264.857178 324.095581,250.450775 326.494720,234.369614 
	C325.860901,234.229187 325.385620,234.051071 324.904907,234.035019 
	C324.243164,234.012939 323.562683,234.040833 322.915497,234.172028 
	C309.655823,236.859604 297.727966,233.983368 286.296082,226.740326 
	C275.917877,220.164917 265.090912,214.210007 254.086639,208.735626 
	C243.341949,203.390366 232.310715,202.102127 222.624329,211.373428 
	C218.065628,215.736771 213.469589,220.185593 209.654938,225.179642 
	C195.249878,244.038406 183.036850,264.265991 173.961334,286.229218 
	C170.463257,294.694763 167.994675,303.585724 165.321655,311.499390 
	C177.433243,315.238464 188.712112,317.761444 199.195999,322.173431 
	C216.538696,329.471893 224.312180,339.649689 224.174210,358.769104 
	C223.710068,423.097931 224.017212,487.432251 223.960739,551.764343 
	C223.956223,556.919128 223.658478,562.098511 223.102783,567.223694 
	C220.867111,587.842651 206.455231,604.528625 186.386124,609.962646 
	C165.766907,615.545715 144.941879,616.004822 124.038330,612.035706 
	C108.859863,609.153564 95.636391,602.768616 86.589745,589.518921 
	C78.887009,578.237671 77.518623,565.427307 77.514015,552.301331 
	C77.491081,486.969147 77.503540,421.636963 77.503540,356.304779 
	C77.503540,354.677612 77.503548,353.050446 77.503548,351.215820 
	C80.609253,350.856628 83.404755,350.600494 86.179504,350.200378 
	C96.347061,348.734283 104.669060,344.270630 110.773499,335.716095 
	C117.719856,325.981781 120.155884,314.928833 121.023163,303.344116 
	C122.821030,279.329346 117.969383,256.636597 106.922768,235.319550 
	C101.671120,225.185257 95.064026,216.098419 84.831917,210.191360 
	C73.959351,203.914551 62.259525,204.049118 50.389286,205.381256 
	C47.262035,205.732208 44.133427,206.385666 41.104908,207.249084 
	C25.240980,211.771805 19.004557,220.093033 19.002930,236.660294 
	C18.992624,341.491791 18.985476,446.323303 19.031271,551.154785 
	C19.033743,556.811829 19.164663,562.512329 19.848429,568.117859 
	C22.611601,590.770325 32.638638,609.159729 52.072395,621.889832 
	C65.654991,630.787231 80.670761,635.937500 96.470291,639.076721 
	C124.316956,644.609558 152.405167,645.132141 180.564575,642.618164 
	C206.515533,640.301453 231.571381,634.814819 252.576462,620.135437 
	C261.814087,624.564575 270.234985,629.370361 279.193878,632.749817 
	C303.547943,641.936523 329.136932,643.829895 354.874725,643.940063 
	C382.143616,644.056763 409.137329,641.799133 434.926483,631.983215 
	C454.201782,624.646606 469.962555,613.052307 479.560577,594.181335 
	C486.249054,581.030823 487.786438,566.866089 487.801788,552.462341 
	C487.876556,482.296997 487.698669,412.130981 487.981689,341.966675 
	C488.024658,331.317535 484.390137,323.044586 475.417572,318.255035 
	C464.037292,312.180206 452.085358,307.085571 440.095154,302.278687 
	C433.065277,299.460480 425.481384,298.024170 417.734222,295.850494 
	C422.057190,290.691528 426.164581,285.910370 430.140289,281.022064 
	C440.824188,267.885773 454.960449,261.847870 471.526703,261.145142 
	C489.924500,260.364685 507.740692,264.086609 524.837402,270.326752 
	C553.438171,280.765778 581.794067,291.891174 610.087341,303.144165 
	C615.519287,305.304626 620.706726,308.799896 625.096680,312.703217 
	C633.073669,319.795898 634.178894,329.670380 634.176819,339.740692 
	C634.156067,439.238953 634.164246,538.737183 634.164246,638.235474 
	C634.164246,640.020569 634.164307,641.805664 634.164307,644.002197 
	C646.915039,644.002197 659.207458,644.002197 672.499817,644.002197 
M832.503296,152.995087 
	C826.347473,159.044083 824.711182,166.591675 825.016418,175.156677 
	C828.012573,175.405304 830.811279,175.556229 833.589478,175.881744 
	C847.933472,177.562363 854.423523,185.299347 853.888062,199.626434 
	C853.366333,213.588394 849.883362,226.882202 845.437195,240.013382 
	C840.858276,253.536636 838.427673,267.415344 839.836853,281.721527 
	C842.724304,311.033600 858.447388,330.909027 885.352844,341.982452 
	C899.657532,347.869812 914.893433,349.613495 930.258911,350.584290 
	C950.829956,351.883972 970.915466,349.980408 989.965088,341.755463 
	C1001.376526,336.828430 1012.428162,331.068359 1023.969421,325.525238 
	C1033.292725,331.983856 1041.691406,339.804108 1042.811646,352.725281 
	C1043.329346,358.696747 1044.136353,364.675934 1044.150879,370.653229 
	C1044.335693,446.641510 1044.401855,522.630066 1044.476196,598.618530 
	C1044.477051,599.483643 1044.189331,600.348999 1043.865356,602.180176 
	C1028.793701,587.014893 1014.405212,572.477661 999.938599,558.018433 
	C995.819458,553.901306 991.652344,549.797302 987.190613,546.065857 
	C980.216064,540.232910 971.987183,537.804688 963.491455,541.440674 
	C958.300354,543.662292 953.519043,547.488037 949.408936,551.474976 
	C933.142944,567.253479 917.218079,583.383545 901.150452,599.366882 
	C900.316345,600.196533 899.332275,600.875488 898.001709,601.965759 
	C898.001709,599.426636 898.001709,597.599487 898.001709,595.772400 
	C898.001709,535.280457 898.002136,474.788483 897.999146,414.296539 
	C897.999084,412.463837 898.040466,410.626556 897.931335,408.799194 
	C897.151245,395.730469 890.725098,387.674286 878.124207,383.760803 
	C862.557556,378.926361 846.900635,379.415894 831.304932,383.284729 
	C816.411682,386.979340 805.880432,396.148743 800.290527,410.427155 
	C794.810974,424.423615 794.284851,439.025482 797.053711,453.657959 
	C799.800293,468.172516 808.778625,477.225098 823.052429,480.749451 
	C828.164734,482.011688 833.487366,482.422089 839.165039,483.290253 
	C839.165039,491.584778 839.165039,500.047852 839.165039,508.510925 
	C839.165039,543.172974 839.109619,577.835144 839.187805,612.497009 
	C839.228943,630.755615 845.857788,641.053528 860.563538,643.176025 
	C879.066956,645.846741 896.761047,642.195312 911.081909,629.648499 
	C924.720276,617.699829 937.251770,604.484131 950.211365,591.765808 
	C957.215271,584.892334 964.096619,577.893982 971.762573,570.221985 
	C973.078918,571.932678 974.035583,573.504639 975.299866,574.768921 
	C991.679199,591.147156 1008.201416,607.383545 1024.485107,623.855957 
	C1039.415649,638.959717 1057.607910,644.958008 1078.427368,643.742126 
	C1090.634644,643.029114 1098.354858,636.895874 1101.559814,625.230896 
	C1102.686157,621.131042 1102.940430,616.686768 1102.944702,612.399109 
	C1103.022949,535.576050 1103.025635,458.752899 1102.955811,381.929840 
	C1102.950195,375.780762 1102.707642,369.575775 1101.869507,363.493988 
	C1099.207642,344.177063 1092.717407,326.505585 1076.732056,314.127533 
	C1069.826904,308.780640 1061.793701,304.890533 1054.210327,300.300812 
	C1055.084717,299.276276 1056.140503,298.006805 1057.230225,296.767059 
	C1072.331299,279.586029 1077.101685,259.949066 1071.219849,237.798889 
	C1067.529053,223.900085 1059.670410,213.715195 1045.692383,208.768753 
	C1031.447021,203.727798 1017.069397,203.918579 1002.409180,206.583069 
	C969.497681,212.564713 961.443970,244.427200 967.172302,267.327454 
	C970.315613,279.893341 978.924438,289.141571 988.014954,297.862854 
	C990.559509,300.304108 993.115234,302.733856 995.847229,305.342010 
	C980.791748,313.509430 965.870117,319.537689 949.300659,321.398926 
	C922.277344,324.434387 901.897400,302.877716 898.746277,281.713470 
	C896.478821,266.484497 899.651733,251.819809 905.216064,237.738129 
	C911.677307,221.386429 913.328003,204.462051 911.840881,187.217209 
	C910.546936,172.212387 903.815491,160.165207 889.812805,153.302048 
	C875.963623,146.514160 861.151306,144.671021 846.037781,146.841080 
	C841.519592,147.489822 837.345154,150.533127 832.503296,152.995087 
M428.000549,122.480896 
	C428.000549,91.074417 428.000549,59.667931 428.000549,28.361773 
	C411.269928,28.361773 395.345154,28.361773 379.299561,28.361773 
	C379.178040,29.288385 379.021240,29.926254 379.021179,30.564131 
	C379.018982,63.559303 378.860687,96.555809 379.118561,129.549042 
	C379.230591,143.883896 386.803680,153.650589 399.905121,158.992188 
	C402.054443,159.868484 405.175446,159.897964 407.313751,159.019699 
	C423.182281,152.502075 429.033569,139.938812 428.000549,122.480896 
M310.816650,159.788956 
	C326.011993,153.645447 333.051392,142.310944 332.966248,125.997734 
	C332.804657,95.038971 332.919891,64.078758 332.920105,33.119152 
	C332.920105,31.534687 332.920074,29.950220 332.920074,28.311554 
	C316.227295,28.311554 300.318329,28.311554 284.382294,28.311554 
	C284.190369,29.009892 283.953369,29.469538 283.953461,29.929134 
	C283.960693,63.884205 283.856812,97.840485 284.174500,131.792816 
	C284.214569,136.071960 285.740662,140.746979 287.863983,144.513794 
	C292.673553,153.046082 299.691895,159.092911 310.816650,159.788956 
z"/>
<path fill="#010101" opacity="1.000000" stroke="none" 
	d="
M671.999878,644.002197 
	C659.207458,644.002197 646.915039,644.002197 634.164307,644.002197 
	C634.164307,641.805664 634.164246,640.020569 634.164246,638.235474 
	C634.164246,538.737183 634.156067,439.238953 634.176819,339.740692 
	C634.178894,329.670380 633.073669,319.795898 625.096680,312.703217 
	C620.706726,308.799896 615.519287,305.304626 610.087341,303.144165 
	C581.794067,291.891174 553.438171,280.765778 524.837402,270.326752 
	C507.740692,264.086609 489.924500,260.364685 471.526703,261.145142 
	C454.960449,261.847870 440.824188,267.885773 430.140289,281.022064 
	C426.164581,285.910370 422.057190,290.691528 417.734222,295.850494 
	C425.481384,298.024170 433.065277,299.460480 440.095154,302.278687 
	C452.085358,307.085571 464.037292,312.180206 475.417572,318.255035 
	C484.390137,323.044586 488.024658,331.317535 487.981689,341.966675 
	C487.698669,412.130981 487.876556,482.296997 487.801788,552.462341 
	C487.786438,566.866089 486.249054,581.030823 479.560577,594.181335 
	C469.962555,613.052307 454.201782,624.646606 434.926483,631.983215 
	C409.137329,641.799133 382.143616,644.056763 354.874725,643.940063 
	C329.136932,643.829895 303.547943,641.936523 279.193878,632.749817 
	C270.234985,629.370361 261.814087,624.564575 252.576462,620.135437 
	C231.571381,634.814819 206.515533,640.301453 180.564575,642.618164 
	C152.405167,645.132141 124.316956,644.609558 96.470291,639.076721 
	C80.670761,635.937500 65.654991,630.787231 52.072395,621.889832 
	C32.638638,609.159729 22.611601,590.770325 19.848429,568.117859 
	C19.164663,562.512329 19.033743,556.811829 19.031271,551.154785 
	C18.985476,446.323303 18.992624,341.491791 19.002930,236.660294 
	C19.004557,220.093033 25.240980,211.771805 41.104908,207.249084 
	C44.133427,206.385666 47.262035,205.732208 50.389286,205.381256 
	C62.259525,204.049118 73.959351,203.914551 84.831917,210.191360 
	C95.064026,216.098419 101.671120,225.185257 106.922768,235.319550 
	C117.969383,256.636597 122.821030,279.329346 121.023163,303.344116 
	C120.155884,314.928833 117.719856,325.981781 110.773499,335.716095 
	C104.669060,344.270630 96.347061,348.734283 86.179504,350.200378 
	C83.404755,350.600494 80.609253,350.856628 77.503548,351.215820 
	C77.503548,353.050446 77.503540,354.677612 77.503540,356.304779 
	C77.503540,421.636963 77.491081,486.969147 77.514015,552.301331 
	C77.518623,565.427307 78.887009,578.237671 86.589745,589.518921 
	C95.636391,602.768616 108.859863,609.153564 124.038330,612.035706 
	C144.941879,616.004822 165.766907,615.545715 186.386124,609.962646 
	C206.455231,604.528625 220.867111,587.842651 223.102783,567.223694 
	C223.658478,562.098511 223.956223,556.919128 223.960739,551.764343 
	C224.017212,487.432251 223.710068,423.097931 224.174210,358.769104 
	C224.312180,339.649689 216.538696,329.471893 199.195999,322.173431 
	C188.712112,317.761444 177.433243,315.238464 165.321655,311.499390 
	C167.994675,303.585724 170.463257,294.694763 173.961334,286.229218 
	C183.036850,264.265991 195.249878,244.038406 209.654938,225.179642 
	C213.469589,220.185593 218.065628,215.736771 222.624329,211.373428 
	C232.310715,202.102127 243.341949,203.390366 254.086639,208.735626 
	C265.090912,214.210007 275.917877,220.164917 286.296082,226.740326 
	C297.727966,233.983368 309.655823,236.859604 322.915497,234.172028 
	C323.562683,234.040833 324.243164,234.012939 324.904907,234.035019 
	C325.385620,234.051071 325.860901,234.229187 326.494720,234.369614 
	C324.095581,250.450775 318.091553,264.857178 307.003876,276.795258 
	C297.826782,286.676147 286.354370,290.170990 273.395264,286.188507 
	C265.171539,283.661255 257.366272,279.797424 249.298538,276.729858 
	C242.656174,274.204193 236.034805,271.425262 229.161057,269.764954 
	C222.975769,268.270996 217.665283,270.883759 214.601135,276.694275 
	C211.351959,282.855682 208.441345,289.195587 205.195099,295.842010 
	C212.433350,297.638092 219.338806,298.858948 225.903397,301.085022 
	C238.792923,305.455933 251.560867,310.213196 264.226746,315.197723 
	C267.703674,316.566071 270.786469,319.118958 273.794708,321.456970 
	C280.093079,326.352051 282.942993,332.716492 282.924896,340.918427 
	C282.769379,411.416870 282.826599,481.915771 282.845856,552.414551 
	C282.848602,562.434021 283.298279,572.385437 287.421234,581.795044 
	C293.816193,596.389771 305.230682,605.514404 320.068024,609.758484 
	C343.250519,616.389648 366.737213,616.319763 390.134216,610.244507 
	C412.401520,604.462524 427.275146,586.558167 428.797821,563.633911 
	C429.062714,559.646423 429.148254,555.640564 429.149567,551.643066 
	C429.170563,487.477539 428.920288,423.310486 429.309479,359.147339 
	C429.430084,339.264374 421.633667,329.471405 404.154694,322.155823 
	C393.656525,317.761963 382.375244,315.239197 371.066467,311.758759 
	C374.166321,301.357697 379.708557,291.203613 386.408356,281.777924 
	C402.320831,259.391174 421.292297,239.876526 442.336578,222.196518 
	C461.072510,206.455872 481.905457,202.080109 505.706238,206.270813 
	C530.789673,210.687332 554.740417,218.400024 578.238770,227.867172 
	C598.761047,236.135315 619.587463,243.745544 639.685913,252.943588 
	C663.701477,263.934265 681.439453,281.629517 688.703735,307.686035 
	C691.394470,317.337585 692.637146,327.697601 692.664795,337.739716 
	C692.943909,439.070496 692.833435,540.402344 692.828247,641.733887 
	C692.828247,642.226562 692.767273,642.719238 692.682556,644.002197 
	C685.991089,644.002197 679.245422,644.002197 671.999878,644.002197 
M90.855194,307.190369 
	C93.163704,290.711487 92.930862,274.357422 88.041794,258.316040 
	C86.065231,251.830826 82.854759,249.277878 77.652306,249.194473 
	C77.652306,273.275848 77.652306,297.358307 77.652306,321.621429 
	C86.472794,321.109375 88.751381,314.713867 90.855194,307.190369 
z"/>
<path fill="#010101" opacity="1.000000" stroke="none" 
	d="
M832.758301,152.737228 
	C837.345154,150.533127 841.519592,147.489822 846.037781,146.841080 
	C861.151306,144.671021 875.963623,146.514160 889.812805,153.302048 
	C903.815491,160.165207 910.546936,172.212387 911.840881,187.217209 
	C913.328003,204.462051 911.677307,221.386429 905.216064,237.738129 
	C899.651733,251.819809 896.478821,266.484497 898.746277,281.713470 
	C901.897400,302.877716 922.277344,324.434387 949.300659,321.398926 
	C965.870117,319.537689 980.791748,313.509430 995.847229,305.342010 
	C993.115234,302.733856 990.559509,300.304108 988.014954,297.862854 
	C978.924438,289.141571 970.315613,279.893341 967.172302,267.327454 
	C961.443970,244.427200 969.497681,212.564713 1002.409180,206.583069 
	C1017.069397,203.918579 1031.447021,203.727798 1045.692383,208.768753 
	C1059.670410,213.715195 1067.529053,223.900085 1071.219849,237.798889 
	C1077.101685,259.949066 1072.331299,279.586029 1057.230225,296.767059 
	C1056.140503,298.006805 1055.084717,299.276276 1054.210327,300.300812 
	C1061.793701,304.890533 1069.826904,308.780640 1076.732056,314.127533 
	C1092.717407,326.505585 1099.207642,344.177063 1101.869507,363.493988 
	C1102.707642,369.575775 1102.950195,375.780762 1102.955811,381.929840 
	C1103.025635,458.752899 1103.022949,535.576050 1102.944702,612.399109 
	C1102.940430,616.686768 1102.686157,621.131042 1101.559814,625.230896 
	C1098.354858,636.895874 1090.634644,643.029114 1078.427368,643.742126 
	C1057.607910,644.958008 1039.415649,638.959717 1024.485107,623.855957 
	C1008.201416,607.383545 991.679199,591.147156 975.299866,574.768921 
	C974.035583,573.504639 973.078918,571.932678 971.762573,570.221985 
	C964.096619,577.893982 957.215271,584.892334 950.211365,591.765808 
	C937.251770,604.484131 924.720276,617.699829 911.081909,629.648499 
	C896.761047,642.195312 879.066956,645.846741 860.563538,643.176025 
	C845.857788,641.053528 839.228943,630.755615 839.187805,612.497009 
	C839.109619,577.835144 839.165039,543.172974 839.165039,508.510925 
	C839.165039,500.047852 839.165039,491.584778 839.165039,483.290253 
	C833.487366,482.422089 828.164734,482.011688 823.052429,480.749451 
	C808.778625,477.225098 799.800293,468.172516 797.053711,453.657959 
	C794.284851,439.025482 794.810974,424.423615 800.290527,410.427155 
	C805.880432,396.148743 816.411682,386.979340 831.304932,383.284729 
	C846.900635,379.415894 862.557556,378.926361 878.124207,383.760803 
	C890.725098,387.674286 897.151245,395.730469 897.931335,408.799194 
	C898.040466,410.626556 897.999084,412.463837 897.999146,414.296539 
	C898.002136,474.788483 898.001709,535.280457 898.001709,595.772400 
	C898.001709,597.599487 898.001709,599.426636 898.001709,601.965759 
	C899.332275,600.875488 900.316345,600.196533 901.150452,599.366882 
	C917.218079,583.383545 933.142944,567.253479 949.408936,551.474976 
	C953.519043,547.488037 958.300354,543.662292 963.491455,541.440674 
	C971.987183,537.804688 980.216064,540.232910 987.190613,546.065857 
	C991.652344,549.797302 995.819458,553.901306 999.938599,558.018433 
	C1014.405212,572.477661 1028.793701,587.014893 1043.865356,602.180176 
	C1044.189331,600.348999 1044.477051,599.483643 1044.476196,598.618530 
	C1044.401855,522.630066 1044.335693,446.641510 1044.150879,370.653229 
	C1044.136353,364.675934 1043.329346,358.696747 1042.811646,352.725281 
	C1041.691406,339.804108 1033.292725,331.983856 1023.969421,325.525238 
	C1012.428162,331.068359 1001.376526,336.828430 989.965088,341.755463 
	C970.915466,349.980408 950.829956,351.883972 930.258911,350.584290 
	C914.893433,349.613495 899.657532,347.869812 885.352844,341.982452 
	C858.447388,330.909027 842.724304,311.033600 839.836853,281.721527 
	C838.427673,267.415344 840.858276,253.536636 845.437195,240.013382 
	C849.883362,226.882202 853.366333,213.588394 853.888062,199.626434 
	C854.423523,185.299347 847.933472,177.562363 833.589478,175.881744 
	C830.811279,175.556229 828.012573,175.405304 825.016418,175.156677 
	C824.711182,166.591675 826.347473,159.044083 832.758301,152.737228 
M1011.854980,241.044739 
	C1000.939819,242.985916 996.988953,258.230927 1004.312439,265.699219 
	C1010.514587,272.023865 1017.252319,277.823242 1023.779907,283.880066 
	C1032.863159,274.318390 1036.564209,264.277771 1035.088135,252.407333 
	C1034.139526,244.778900 1029.652832,240.246414 1022.035828,240.005829 
	C1018.924438,239.907562 1015.789185,240.564178 1011.854980,241.044739 
M827.744324,423.430389 
	C826.824524,429.423737 825.229919,435.408264 825.151428,441.412598 
	C825.047302,449.379364 830.855042,453.680298 838.915405,452.693573 
	C838.915405,439.507996 838.915405,426.322388 838.915405,412.601013 
	C833.766052,414.840393 830.262695,418.068756 827.744324,423.430389 
z"/>
<path fill="#C56F34" opacity="1.000000" stroke="none" 
	d="
M428.000549,122.976120 
	C429.033569,139.938812 423.182281,152.502075 407.313751,159.019699 
	C405.175446,159.897964 402.054443,159.868484 399.905121,158.992188 
	C386.803680,153.650589 379.230591,143.883896 379.118561,129.549042 
	C378.860687,96.555809 379.018982,63.559303 379.021179,30.564131 
	C379.021240,29.926254 379.178040,29.288385 379.299561,28.361773 
	C395.345154,28.361773 411.269928,28.361773 428.000549,28.361773 
	C428.000549,59.667931 428.000549,91.074417 428.000549,122.976120 
z"/>
<path fill="#C57034" opacity="1.000000" stroke="none" 
	d="
M310.427704,159.914246 
	C299.691895,159.092911 292.673553,153.046082 287.863983,144.513794 
	C285.740662,140.746979 284.214569,136.071960 284.174500,131.792816 
	C283.856812,97.840485 283.960693,63.884205 283.953461,29.929134 
	C283.953369,29.469538 284.190369,29.009892 284.382294,28.311554 
	C300.318329,28.311554 316.227295,28.311554 332.920074,28.311554 
	C332.920074,29.950220 332.920105,31.534687 332.920105,33.119152 
	C332.919891,64.078758 332.804657,95.038971 332.966248,125.997734 
	C333.051392,142.310944 326.011993,153.645447 310.427704,159.914246 
z"/>
<path fill="#F2F2F2" opacity="1.000000" stroke="none" 
	d="
M90.782341,307.600983 
	C88.751381,314.713867 86.472794,321.109375 77.652306,321.621429 
	C77.652306,297.358307 77.652306,273.275848 77.652306,249.194473 
	C82.854759,249.277878 86.065231,251.830826 88.041794,258.316040 
	C92.930862,274.357422 93.163704,290.711487 90.782341,307.600983 
z"/>
<path fill="#FCFCFC" opacity="1.000000" stroke="none" 
	d="
M1012.259888,240.961060 
	C1015.789185,240.564178 1018.924438,239.907562 1022.035828,240.005829 
	C1029.652832,240.246414 1034.139526,244.778900 1035.088135,252.407333 
	C1036.564209,264.277771 1032.863159,274.318390 1023.779907,283.880066 
	C1017.252319,277.823242 1010.514587,272.023865 1004.312439,265.699219 
	C996.988953,258.230927 1000.939819,242.985916 1012.259888,240.961060 
z"/>
<path fill="#FCFCFC" opacity="1.000000" stroke="none" 
	d="
M827.914185,423.092285 
	C830.262695,418.068756 833.766052,414.840393 838.915405,412.601013 
	C838.915405,426.322388 838.915405,439.507996 838.912842,452.694366 
	C830.855042,453.680298 825.047302,449.379364 825.151428,441.412598 
	C825.229919,435.408264 826.824524,429.423737 827.914185,423.092285 
z"/>
</svg>