<svg enable-background="new 0 0 1246 784" viewBox="0 0 1246 784" xmlns="http://www.w3.org/2000/svg"><path d="m827 785c-275.632812 0-550.765625 0-825.949222 0 0-261.267334 0-522.534668 0-783.900996h1245.773563v783.900996c-139.692505 0-279.508423 0-419.824341 0m20.996094-439.54126v8.382324c2.850586 0 5.157409.041596 7.461914-.013946 1.659851-.040009 3.31842-.187195 4.974365-.324555 26.35199-2.186218 50.200256-10.506469 68.672119-30.173065 15.457459-16.457275 23.347656-35.937347 18.634216-58.878845-3.15277-15.345505-18.267456-24.52475-32.881408-20.686539-14.691712 3.858628-25.240967 21.679673-21.142517 35.716355 14.902954-2.828797 22.267822 3.596069 20.468017 17.855743-1.467163 11.624054-12.432861 23.307587-25.178894 26.511383 0-1.868011 0-3.644317 0-5.420624 0-39.664032-.000061-79.328048.000122-118.99208.000061-16.411011 6.220703-25.884629 21.587281-31.540665 20.849853-7.67421 42.288818-7.582474 63.266357-1.517624 18.757446 5.423004 27.01062 15.709625 26.485962 36.198548-.733582 28.64598-.00647 57.326217-.237854 85.98912-.208008 25.769348 11.785522 43.924438 35.066589 53.469086 40.365357 16.548645 81.528687 16.570099 122.123902.889251 22.277099-8.60498 35.92456-25.212982 36.122924-50.126434.342286-42.9944.097046-85.993515.093384-128.990646-.00061-6.295136-1.649414-12.212616-6.917236-15.858567-5.52063-3.820983-11.434326-7.433883-17.69043-9.747039-9.005371-3.329682-18.546997-5.178391-27.719726-8.098725-5.230835-1.665405-6.250977-4.895813-2.695313-9.08094 10.069092-11.851623 20.5-23.395668 30.702393-34.963341 3.555908 6.021973 6.414184 11.902291 10.21167 17.096024 10.819336 14.797447 25.643554 19.485458 42.138183 13.864265 18.674927-6.364212 24.987183-28.710403 11.891846-42.099006-6.136353 13.215309-16.292847 14.437545-25.321899 2.768867-3.437378-4.442398-6.022828-9.538231-9.080811-14.281986-2.696655-4.183273-5.189087-8.557201-8.347534-12.370037-4.841919-5.845226-11.641358-6.522133-17.774658-2.024426-2.799317 2.0527-5.344239 4.521862-7.72461 7.064274-12.743042 13.610657-25.589721 27.13237-38.01831 41.026779-8.851807 9.895783-18.048584 19.699448-25.371826 30.690087-8.673951 13.017845-4.140625 23.553093 10.621093 28.726539 2.815796.986832 5.746216 1.656571 8.640991 2.406082 6.745606 1.746399 13.662232 2.993042 20.214478 5.285828 9.067139 3.172806 11.212402 6.854477 11.213135 16.500839.003296 38.83075.005249 77.661484-.000366 116.492234-.002198 15.396118-6.829102 25.494995-21.398804 30.769073-20.709961 7.496857-41.99646 7.55777-62.834107 1.688599-20.066284-5.651886-27.642578-16.517792-27.229858-36.769745.593994-29.152649.034424-58.326996.189087-87.490891.122436-23.104324-10.849243-39.230392-30.884583-49.522537-24.917053-12.79982-51.735717-15.247482-79.157592-13.36589-9.197693.631103-18.442444 3.005661-26.798157-3.123276-.377136-.276611-.943359-.298111-1.423462-.431305-9.763123-2.708298-19.577148-5.248413-29.270813-8.185883-5.788025-1.753952-7.285583-5.413826-3.669067-9.662285 10.113952-11.881179 20.622741-23.426345 30.933105-35.056175 3.313477 5.727318 5.987976 11.257599 9.477844 16.213677 10.789185 15.322029 25.840699 20.476494 42.215515 14.887153 19.263001-6.57521 25.650269-27.764259 12.504761-42.309677-.650696 1.431084-1.177978 2.808068-1.876953 4.091515-3.574219 6.562713-10.751587 8.934761-16.845947 4.651588-3.958496-2.78202-7.318848-6.756492-10.110718-10.77742-4.252319-6.124367-7.431274-12.995113-11.696228-19.109329-6.65033-9.53384-15.400452-10.37051-23.451416-1.880558-20.504761 21.622761-40.810303 43.440571-60.830688 65.511311-4.155823 4.58139-7.413025 10.300788-9.879761 16.015655-3.670349 8.503571-.585266 16.399399 7.730407 20.579315 4.678223 2.351547 9.917664 3.673416 15.005433 5.097611 4.630615 1.296203 9.39801 2.103851 15.060363 3.334457-15.972473 13.010544-20.624145 29.21756-20.409057 48.119293.508117 44.657914.163147 89.325516.163147 134.981186m-643.600571-5.364868c18.116104 10.360748 37.846817 13.69101 58.75798 13.922852.125733-1.943421.302399-3.402527.302735-4.861695.013763-60.663482.075012-121.327148-.112793-181.990036-.014435-4.666946-.992401-9.699478-2.932892-13.91243-3.640137-7.902938-11.149551-11.68367-19.010223-14.20697-9.17006-2.943619-18.625275-4.998657-27.796357-7.939422-8.217514-2.634964-9.026321-6.456345-3.277359-13.002785 4.1707-4.749222 8.437912-9.413971 12.681137-14.099136 5.288819-5.839653 10.597229-11.661568 16.349442-17.988617 1.235992 2.217399 1.891205 3.736938 2.842575 5.04029 4.18428 5.732316 7.926407 11.907166 12.796173 16.995842 12.414246 12.972306 38.661835 14.70649 51.865112 3.539292 12.638611-10.689667 10.546784-29.250069 2.06366-36.310631-.5018 1.086075-.933929 2.112671-1.43985 3.101524-3.375732 6.597931-8.947693 8.847733-15.743316 5.881577-2.821473-1.231499-5.796387-2.935997-7.722596-5.242828-6.379699-7.640297-12.358093-15.618847-18.407013-23.531407-6.965423-9.111446-16.368316-14.388187-27.415893-2.376583-1.116333 1.213749-2.473862 2.204807-3.598633 3.411808-9.528091 10.224629-19.123627 20.388798-28.511398 30.741161-10.717713 11.818963-21.826782 23.350777-31.706742 35.844826-12.880157 16.28804-7.409973 30.267746 12.765397 34.880676 5.992599 1.370148 12.000167 2.674912 17.99208 4.047974 11.698929 2.680786 16.822037 7.842239 17.469422 17.986221.296661 4.648453.029449 9.330323.135681 13.99437.06987 3.067276-1.381058 3.915573-4.289612 3.909439-34.331375-.07251-68.66304-.083267-102.994339.005478-3.431.008865-4.728134-1.074341-4.666183-4.586289.170455-9.663162.020996-19.331482.074089-28.997345.037826-6.888031-1.97168-13.178924-7.651284-17.079818-5.52903-3.79747-11.631408-7.058655-17.915863-9.381775-7.760673-2.86879-16.027374-4.335434-23.968124-6.759445-8.292671-2.531433-9.367191-5.772904-3.758415-12.379822 7.638534-8.997864 15.72879-17.612511 23.636673-26.381279 1.80561-2.002182 3.657493-3.962647 5.607216-6.071152 3.729217 5.846405 6.791038 11.375527 10.541008 16.39003 11.683136 15.622826 35.278862 20.999886 52.042671 12.234795 17.738189-9.274552 17.116607-30.844757 7.4104-39.531144-.502548.889466-1.006439 1.710762-1.443634 2.566147-3.764969 7.366494-9.462662 9.69838-16.842941 5.908516-3.869889-1.987236-7.505188-5.022262-10.308472-8.369598-5.431572-6.485695-9.979866-13.704052-15.29158-20.29871-9.48243-11.772751-17.38681-12.268127-27.742592-1.428856-16.661797 17.439701-33.152477 35.048985-49.414749 52.861157-6.024931 6.599128-11.883469 13.545257-16.612833 21.088645-8.082327 12.891404-4.031756 23.695572 10.381651 28.560608 7.52436 2.53975 15.512195 3.669754 23.185047 5.814454 12.80172 3.578308 17.616905 7.257339 17.555115 21.803741-.188294 44.330185-.068268 88.661682-.068238 132.992645v6.308716c-11.130928-.544098-27.832656-16.986389-25.109928-31.71109 1.952507-10.559235 6.787079-14.268097 17.350075-12.491913 2.607731.438507 3.80521-.236572 3.955387-2.85144.83503-14.539612-9.209122-30.534912-24.220268-32.680558-17.020359-2.432815-31.03191 9.054947-32.061845 26.835556-1.200915 20.732361 5.875175 38.603211 20.14998 53.475342 14.907917 15.531739 33.662975 24.090027 54.54158 27.985138 8.387916 1.56485 17.018616 1.828308 26.035087 2.733917 0-2.741912 0-4.367401 0-5.992889-.000007-40.66452.06263-81.329285-.09156-121.993225-.016426-4.331116 1.055924-5.654083 5.551941-5.627869 33.663757.196274 67.329163.107254 100.994064.107559 1.61464.000016 3.229279 0 4.895951 0v103.615311c-12.82927-5.839813-22.674729-13.409271-24.680924-27.416473-1.511474-10.553162 4.082474-22.063141 17.509857-18.179169 2.819535.815582 3.902146-.906555 3.724915-3.115173-.329895-4.111389-.73169-8.298523-1.828903-12.252869-5.113602-18.429428-27.100037-26.513306-42.503678-15.704224-9.002761 6.317429-12.391418 15.822693-12.177765 26.064057.62677 30.044433 15.869874 51.293793 42.154694 66.095001m520.102829 13.907135h16.502502c0-2.518738 0-4.335388 0-6.152008 0-39.32785 0-78.65567 0-117.98352-.000061-16.331055-.081359-32.662598.019166-48.993027.145202-23.573807-9.230896-41.861817-29.637635-54.161255-1.242309-.748795-2.374756-1.680061-3.9682-2.819542 1.786438-1.95076 3.345153-3.616997 4.864868-5.318069 11.734192-13.13472 14.3078-34.613175 5.945068-50.032181-8.459595-15.597515-22.348633-21.558609-39.301758-21.844975-18.552368-.313377-34.290283 5.829487-42.522827 23.223446-7.610962 16.080795-5.374328 32.189034 5.505798 46.617195 3.180604 4.21785 6.815247 8.0933 9.862793 11.679604.008118-.001908-1.407165.556549-2.846862.629089-8.80835.44368-17.633057 1.25322-26.431946 1.051239-20.094849-.461258-32.780701-12.840584-33.466675-32.792084-.537903-15.646125-.140259-31.322654-.521362-46.976833-.144654-5.938396-.305176-12.192673-2.185669-17.714786-6.295899-18.48827-25.130066-26.454161-44.900635-19.684944-12.675659 4.339992-20.098877 17.980369-16.316467 30.795402 1.054931 3.574207 2.949035 7.338715 5.580993 9.829384 1.36792 1.294498 5.187012.02874 7.895996-.129807 6.509888-.381019 8.755738 1.657189 8.815796 8.301979.07074 7.831604-.125732 15.66758.052124 23.495781.249817 10.992432.581055 22.026299 5.356873 32.258827 8.231445 17.636307 22.921509 26.85109 41.31958 30.552018 26.293152 5.289138 52.316406 3.92688 77.812317-4.707199 2.651977-.898056 4.407288-.48021 6.654053 1.26535 15.306945 11.892349 21.490661 27.779648 21.443237 46.72934-.100464 40.160812-.030457 80.322036-.030334 120.483078 0 1.24823-.000062 2.49646-.000062 4.860809-19.079223-18.198914-37.311584-35.590027-55.754394-53.181824-18.446594 17.594971-36.530029 34.843506-55.657898 53.088226 0-45.989135 0-90.267456 0-134.62268-20.767334-.751496-40.068848 3.434509-58.095825 12.980102-21.904785 11.598923-36.736542 28.911743-41.905152 53.594193-2.343231 11.189957-2.177551 22.338821 4.231568 32.312393 6.911407 10.755219 21.39209 14.638001 33.178772 9.454895 12.128784-5.333557 20.282715-21.075195 17.263122-33.374878-.063598-.258942-.448852-.438812-.856079-.814087-.992431.193085-2.116211.40622-3.237732.630829-8.61853 1.725952-14.302856-1.988831-16.177185-10.564011-2.488037-11.382629 2.95105-19.744796 10.809143-26.794052 3.648926-3.27333 8.249451-5.485901 12.418579-8.179351.409302.407302.818543.814605 1.227845 1.221908v141.786026c12.591247 0 24.714355.169769 36.825195-.1409 2.469788-.063354 5.482056-1.332092 7.246399-3.062561 16.417175-16.101989 32.613342-32.429321 48.883789-48.68103 1.239624-1.23822 2.557556-2.398041 3.984314-3.729797 17.823791 17.83786 35.197937 35.333984 52.766968 52.632171 1.656494 1.630982 4.49707 2.709107 6.858825 2.849457 6.476258.384796 12.990296.13266 20.489014.13266m-5.593445 299.498993c-.000122 25.162048.036377 50.324158-.039734 75.485962-.011474 3.812683-.35498 7.650452-.881408 11.429809-.961731 6.904908-4.842224 11.653321-11.568604 13.559449-17.810852 5.047546-35.756714-.194641-34.476623-24.613648.087097-1.661804.010376-3.332092.010376-4.998474-.000122-33.160766.013427-66.321472-.005433-99.482239-.011352-20.007141-8.86206-31.995483-27.869262-38.288147-20.207276-6.690002-41.015137-6.831115-61.769287-4.867981-10.443909.987915-21.05127 3.446412-30.867493 7.144043-15.90802 5.992371-23.615601 18.110474-23.497376 35.64386.323792 47.989258.111207 95.982117.111084 143.973511-.000061 1.76178 0 3.52356 0 5.516541 22.191834.325988 43.255127-1.920594 62.933411-11.233948 12.488464-5.910584 23.198059-14.059265 27.281128-28.158936 3.029968-10.463135 1.398193-20.385132-6.52655-28.170837-7.408203-7.27832-16.703247-7.430664-26.11731-4.480408-12.638977 3.960877-16.619995 20.064209-10.865234 27.330689 3.788208-1.204468 7.280639-2.733399 10.927551-3.353638 3.450378-.586792 6.624146.631531 8.235107 4.228821 1.613831 3.603637.224305 6.495422-2.325866 8.984314-6.056885 5.911499-13.588257 8.555908-21.751709 10.056884-.284302-.840515-.569275-1.289917-.56958-1.739502-.030457-41.492065-.195069-82.985107.051635-124.475646.06836-11.490235 5.598145-18.637696 16.849793-21.198609 7.305969-1.662842 15.324768-2.339172 22.679138-1.209961 16.769104 2.574768 22.122131 9.83905 22.122437 26.95166.000671 33.494019-.07135 66.988343.080993 100.48169.022461 4.932861.373841 10.091186 1.835022 14.749328 5.049683 16.098267 17.549805 24.256104 32.948181 28.128479 18.850281 4.74054 37.992615 4.532959 56.892212.165101 19.894348-4.597779 38.346619-16.781189 37.553162-47.532715-1.121399-43.463318-.28418-86.977112-.28418-130.469361 0-1.939026 0-3.87799 0-5.82843-14.005676 0-27.39508 0-41.095581 0zm-253.715942-349.929047c4.646698-10.47998 6.912292-21.307312 6.009216-32.890533-1.270386-16.293839-13.379089-28.541275-28.227478-27.638916-16.391662.996124-27.590637 15.192383-27.819092 32.110443-.041656 3.083099 1.291413 4.324677 4.783203 3.557953 7.590668-1.66687 12.634919 1.39389 15.444123 8.226532 2.312439 5.624481 2.005829 11.067993-.322663 16.462189-4.514862 10.459167-12.263153 17.240692-23.854919 20.832031 0-2.752838.001068-4.723633-.000122-6.694428-.031281-51.491302-.088989-102.982635-.058563-154.473922.003479-5.886216-2.225067-10.663285-6.214478-14.730835-6.037689-6.155976-13.798157-9.096375-21.867645-11.357041-7.352265-2.059784-14.864899-3.628982-22.07486-6.09317-8.135833-2.78064-8.793487-5.602882-3.156708-12.091087 8.290101-9.542252 16.85257-18.847618 25.263947-28.285156 1.369476-1.536568 2.558228-3.234231 3.677582-4.662346 4.263 6.546333 7.441955 12.414383 11.544617 17.543586 12.437652 15.549881 35.06137 20.267174 51.803924 11.205559 14.827637-8.025192 18.469788-28.03817 6.930145-39.2948-.694122 1.37645-1.288788 2.720253-2.022918 3.982987-3.153107 5.423363-7.928131 7.627334-13.854309 5.653549-3.042237-1.013245-6.364838-2.643425-8.385529-5.001762-7.125397-8.315957-13.687256-17.111958-20.566467-25.642304-8.312104-10.307114-16.782471-10.839599-25.993164-1.191318-15.51239 16.249363-30.952942 32.577221-46.024567 49.233196-7.547882 8.341354-14.750671 17.109566-21.138763 26.355438-7.246247 10.487961-3.807343 21.130493 7.729827 26.220169 4.062317 1.792114 8.463929 2.845535 12.755127 4.081726 7.162171 2.063233 14.496033 3.619339 21.50293 6.10643 6.369415 2.260834 9.215851 6.910111 9.18216 14.25029-.257935 56.156815-.141511 112.315354-.14148 168.473343v6.847687c10.538147-1.280335 20.388153-1.680328 29.862305-3.777832 28.171112-6.236969 51.173309-20.108612 65.234619-47.317658m99.314331 263.407135h25.716736c-1.187805-10.537048-.05249-19.539489 6.273132-27.646545 8.936524-11.453308 18.984497-21.065002 33.785461-23.952942 6.593689-1.28656 12.56189-.095215 16.662415 6.145752.628662.956787 2.747498 1.691101 3.91333 1.414856 7.227661-1.712341 13.187195-5.552734 17.15155-11.931335 4.123841-6.635315 2.638489-15.231202-3.287414-20.363221-4.982971-4.315429-10.974182-6.217224-17.404846-6.619476-22.192078-1.388184-39.627137 7.847504-53.73584 24.361298-.983948 1.151733-2.005615 2.27124-3.645813 4.124328 0-30.990845-.000488-60.807037.000183-90.62323.000305-11.256561 2.242432-14.191742 13.083496-18.167511 13.263367-4.864074 27.103272-4.880005 40.898254-5.020202 14.164673-.143952 28.304078.38446 41.85138 5.316711 10.180359 3.706421 12.406189 6.871033 12.406372 17.650208.000854 46.327484.000305 92.654998.000305 138.982452 0 1.946411.000061 3.892883.000061 5.948181h40.966736c0-2.205871 0-4.031555 0-5.857178-.000061-45.327636-.346191-90.659301.190369-135.98056.18396-15.540131-7.111817-25.056427-19.993653-31.547424-12.776489-6.437866-26.564941-9.393677-40.642822-11.247833-20.572754-2.709565-41.198853-2.845704-61.817017-.918396-16.601379 1.551818-33.038147 4.207519-48.084289 11.976745-12.877381 6.649414-20.446655 16.152741-20.239014 31.958557.595398 45.319794.209717 90.652466.209656 135.980103v6.016662z" fill="#fff"/><path d="m847.996094 344.962769c0-45.159699.34497-89.827301-.163147-134.485215-.215088-18.901733 4.436584-35.108749 20.409057-48.119293-5.662353-1.230606-10.429748-2.038254-15.060363-3.334457-5.087769-1.424195-10.32721-2.746064-15.005433-5.097611-8.315673-4.179916-11.400756-12.075744-7.730407-20.579315 2.466736-5.714867 5.723938-11.434265 9.879761-16.015655 20.020385-22.07074 40.325927-43.88855 60.830688-65.511311 8.050964-8.489952 16.801086-7.653282 23.451416 1.880558 4.264954 6.114216 7.443909 12.984962 11.696228 19.109329 2.79187 4.020928 6.152222 7.9954 10.110718 10.77742 6.09436 4.283173 13.271728 1.911125 16.845947-4.651588.698975-1.283447 1.226257-2.660431 1.876953-4.091515 13.145508 14.545418 6.75824 35.734467-12.504761 42.309677-16.374816 5.589341-31.42633.434876-42.215515-14.887153-3.489868-4.956078-6.164367-10.486359-9.477844-16.213677-10.310364 11.62983-20.819153 23.174996-30.933105 35.056175-3.616516 4.248459-2.118958 7.908333 3.669067 9.662285 9.693665 2.93747 19.50769 5.477585 29.270813 8.185883.480103.133194 1.046326.154694 1.423462.431305 8.355713 6.128937 17.600464 3.754379 26.798157 3.123276 27.421875-1.881592 54.240539.56607 79.157592 13.36589 20.03534 10.292145 31.007019 26.418213 30.884583 49.522537-.154663 29.163895.404907 58.338242-.189087 87.490891-.41272 20.251953 7.163574 31.117859 27.229858 36.769745 20.837647 5.869171 42.124146 5.808258 62.834107-1.688599 14.569702-5.274078 21.396606-15.372955 21.398804-30.769073.005615-38.83075.003662-77.661484.000366-116.492234-.000733-9.646362-2.145996-13.328033-11.213135-16.500839-6.552246-2.292786-13.468872-3.539429-20.214478-5.285828-2.894775-.749511-5.825195-1.41925-8.640991-2.406082-14.761718-5.173446-19.295044-15.708694-10.621093-28.726539 7.323242-10.990639 16.520019-20.794304 25.371826-30.690087 12.428589-13.894409 25.275268-27.416122 38.01831-41.026779 2.380371-2.542412 4.925293-5.011574 7.72461-7.064274 6.1333-4.497707 12.932739-3.8208 17.774658 2.024426 3.158447 3.812836 5.650879 8.186764 8.347534 12.370037 3.057983 4.743755 5.643433 9.839588 9.080811 14.281986 9.029052 11.668678 19.185546 10.446442 25.321899-2.768867 13.095337 13.388603 6.783081 35.734794-11.891846 42.099006-16.494629 5.621193-31.318847.933182-42.138183-13.864265-3.797486-5.193733-6.655762-11.074051-10.21167-17.096024-10.202393 11.567673-20.633301 23.111718-30.702393 34.963341-3.555664 4.185127-2.535522 7.415535 2.695313 9.08094 9.172729 2.920334 18.714355 4.769043 27.719726 8.098725 6.256104 2.313156 12.1698 5.926056 17.69043 9.747039 5.267822 3.645951 6.916626 9.563431 6.917236 15.858567.003662 42.997131.248902 85.996246-.093384 128.990646-.198364 24.913452-13.845825 41.521454-36.122924 50.126434-40.595215 15.680848-81.758545 15.659394-122.123902-.889251-23.281067-9.544648-35.274597-27.699738-35.066589-53.469086.231384-28.662903-.495728-57.34314.237854-85.98912.524658-20.488923-7.728516-30.775544-26.485962-36.198548-20.977539-6.06485-42.416504-6.156586-63.266357 1.517624-15.366578 5.656036-21.58722 15.129654-21.587281 31.540665-.000183 39.664032-.000122 79.328048-.000122 118.99208v5.420624c12.746033-3.203796 23.711731-14.887329 25.178894-26.511383 1.799805-14.259674-5.565063-20.68454-20.468017-17.855743-4.09845-14.036682 6.450805-31.857727 21.142517-35.716355 14.613952-3.838211 29.728638 5.341034 32.881408 20.686539 4.71344 22.941498-3.176757 42.42157-18.634216 58.878845-18.471863 19.666596-42.320129 27.986847-68.672119 30.173065-1.655945.13736-3.314514.284546-4.974365.324555-2.304505.055542-4.611328.013946-7.461914.013946 0-2.83316 0-5.607757 0-8.878295z" fill="#020202"/><path d="m204.052536 339.954712c-25.941833-14.662048-41.184937-35.911408-41.811707-65.955841-.213653-10.241364 3.175004-19.746628 12.177765-26.064057 15.403641-10.809082 37.390076-2.725204 42.503678 15.704224 1.097213 3.954346 1.499008 8.14148 1.828903 12.252869.177231 2.208618-.90538 3.930755-3.724915 3.115173-13.427383-3.883972-19.021331 7.626007-17.509857 18.179169 2.006195 14.007202 11.851654 21.57666 24.680924 27.416473 0-34.836456 0-68.955017 0-103.615311-1.666672 0-3.281311.000016-4.895951 0-33.664901-.000305-67.330307.088715-100.994064-.107559-4.496017-.026214-5.568367 1.296753-5.551941 5.627869.15419 40.66394.091553 81.328705.09156 121.993225v5.992889c-9.016471-.905609-17.647171-1.169067-26.035087-2.733917-20.878605-3.895111-39.633663-12.453399-54.54158-27.985138-14.274805-14.872131-21.350895-32.742981-20.14998-53.475342 1.029935-17.780609 15.041486-29.268371 32.061845-26.835556 15.011146 2.145646 25.055298 18.140946 24.220268 32.680558-.150177 2.614868-1.347656 3.289947-3.955387 2.85144-10.562996-1.776184-15.397568 1.932678-17.350075 12.491913-2.722728 14.724701 13.979 31.166992 25.109928 31.71109 0-2.118591 0-4.213654 0-6.308716-.00003-44.330963-.120056-88.66246.068238-132.992645.06179-14.546402-4.753395-18.225433-17.555115-21.803741-7.672852-2.1447-15.660687-3.274704-23.185047-5.814454-14.413407-4.865036-18.463978-15.669204-10.381651-28.560608 4.729364-7.543388 10.587902-14.489517 16.612833-21.088645 16.262272-17.812172 32.752952-35.421456 49.414749-52.861157 10.355782-10.839271 18.260162-10.343895 27.742592 1.428856 5.311714 6.594658 9.860008 13.813015 15.29158 20.29871 2.803284 3.347336 6.438583 6.382362 10.308472 8.369598 7.380279 3.789864 13.077972 1.457978 16.842941-5.908516.437195-.855385.941086-1.676681 1.443634-2.566147 9.706207 8.686387 10.327789 30.256592-7.4104 39.531144-16.763809 8.765091-40.359535 3.388031-52.042671-12.234795-3.74997-5.014503-6.811791-10.543625-10.541008-16.39003-1.949723 2.108505-3.801606 4.06897-5.607216 6.071152-7.907883 8.768768-15.998139 17.383415-23.636673 26.381279-5.608776 6.606918-4.534256 9.848389 3.758415 12.379822 7.94075 2.424011 16.207451 3.890655 23.968124 6.759445 6.284455 2.32312 12.386833 5.584305 17.915863 9.381775 5.679604 3.900894 7.68911 10.191787 7.651284 17.079818-.053093 9.665863.096366 19.334183-.074089 28.997345-.061951 3.511948 1.235183 4.595154 4.666183 4.586289 34.331299-.088745 68.662964-.077988 102.994339-.005478 2.908554.006134 4.359482-.842163 4.289612-3.909439-.106232-4.664047.16098-9.345917-.135681-13.99437-.647385-10.143982-5.770493-15.305435-17.469422-17.986221-5.991913-1.373062-11.999481-2.677826-17.99208-4.047974-20.17537-4.61293-25.645554-18.592636-12.765397-34.880676 9.87996-12.494049 20.989029-24.025863 31.706742-35.844826 9.387771-10.352363 18.983307-20.516532 28.511398-30.741161 1.124771-1.207001 2.4823-2.198059 3.598633-3.411808 11.047577-12.011604 20.45047-6.734863 27.415893 2.376583 6.04892 7.91256 12.027314 15.89111 18.407013 23.531407 1.926209 2.306831 4.901123 4.011329 7.722596 5.242828 6.795623 2.966156 12.367584.716354 15.743316-5.881577.505921-.988853.93805-2.015449 1.43985-3.101524 8.483124 7.060562 10.574951 25.620964-2.06366 36.310631-13.203277 11.167198-39.450866 9.433014-51.865112-3.539292-4.869766-5.088676-8.611893-11.263526-12.796173-16.995842-.95137-1.303352-1.606583-2.822891-2.842575-5.04029-5.752213 6.327049-11.060623 12.148964-16.349442 17.988617-4.243225 4.685165-8.510437 9.349914-12.681137 14.099136-5.748962 6.54644-4.940155 10.367821 3.277359 13.002785 9.171082 2.940765 18.626297 4.995803 27.796357 7.939422 7.860672 2.5233 15.370086 6.304032 19.010223 14.20697 1.940491 4.212952 2.918457 9.245484 2.932892 13.91243.187805 60.662888.126556 121.326554.112793 181.990036-.000336 1.459168-.177002 2.918274-.302735 4.861695-20.911163-.231842-40.641876-3.562104-59.100967-14.062012z" fill="#020202"/><path d="m723.998535 354.001007c-6.998901 0-13.512939.252136-19.989197-.13266-2.361755-.14035-5.202331-1.218475-6.858825-2.849457-17.569031-17.298187-34.943177-34.794311-52.766968-52.632171-1.426758 1.331756-2.74469 2.491577-3.984314 3.729797-16.270447 16.251709-32.466614 32.579041-48.883789 48.68103-1.764343 1.730469-4.776611 2.999207-7.246399 3.062561-12.11084.310669-24.233948.1409-36.825195.1409 0-47.59259 0-94.6893 0-141.786026-.409302-.407303-.818543-.814606-1.227845-1.221908-4.169128 2.69345-8.769653 4.906021-12.418579 8.179351-7.858093 7.049256-13.29718 15.411423-10.809143 26.794052 1.874329 8.57518 7.558655 12.289963 16.177185 10.564011 1.121521-.224609 2.245301-.437744 3.237732-.630829.407227.375275.792481.555145.856079.814087 3.019593 12.299683-5.134338 28.041321-17.263122 33.374878-11.786682 5.183106-26.267365 1.300324-33.178772-9.454895-6.409119-9.973572-6.574799-21.122436-4.231568-32.312393 5.16861-24.68245 20.000367-41.99527 41.905152-53.594193 18.026977-9.545593 37.328491-13.731598 58.095825-12.980102v134.62268c19.127869-18.24472 37.211304-35.493255 55.657898-53.088226 18.44281 17.591797 36.675171 34.98291 55.754394 53.181824 0-2.364349.000062-3.612579.000062-4.860809-.000123-40.161042-.07013-80.322266.030334-120.483078.047424-18.949692-6.136292-34.836991-21.443237-46.72934-2.246765-1.74556-4.002076-2.163406-6.654053-1.26535-25.495911 8.634079-51.519165 9.996337-77.812317 4.707199-18.398071-3.700928-33.088135-12.915711-41.31958-30.552018-4.775818-10.232528-5.107056-21.266395-5.356873-32.258827-.177856-7.828201.018616-15.664177-.052124-23.495781-.060058-6.64479-2.305908-8.682998-8.815796-8.301979-2.708984.158547-6.528076 1.424305-7.895996.129807-2.631958-2.490669-4.526062-6.255177-5.580993-9.829384-3.78241-12.815033 3.640808-26.45541 16.316467-30.795402 19.770569-6.769217 38.604736 1.196674 44.900635 19.684944 1.880493 5.522113 2.041015 11.77639 2.185669 17.714786.381103 15.654179-.016541 31.330708.521362 46.976833.685974 19.9515 13.371826 32.330826 33.466675 32.792084 8.798889.201981 17.623596-.607559 26.431946-1.051239 1.439697-.07254 2.85498-.630997 2.846862-.629089-3.047546-3.586304-6.682189-7.461754-9.862793-11.679604-10.880126-14.428161-13.11676-30.5364-5.505798-46.617195 8.232544-17.393959 23.970459-23.536823 42.522827-23.223446 16.953125.286366 30.842163 6.24746 39.301758 21.844975 8.362732 15.419006 5.789124 36.897461-5.945068 50.032181-1.519715 1.701072-3.07843 3.367309-4.864868 5.318069 1.593444 1.139481 2.725891 2.070747 3.9682 2.819542 20.406739 12.299438 29.782837 30.587448 29.637635 54.161255-.100525 16.330429-.019227 32.661972-.019166 48.993027v117.98352 6.152008c-5.649047 0-11.075805 0-17.002319 0m-28.709595-250.279999c3.743103-5.613098 5.227173-11.805458 4.499817-18.478103-.811462-7.44394-5.937683-12.943413-13.543884-14.768586-7.818787-1.876197-15.9776.938019-19.965515 6.886712-4.058045 6.053093-4.546387 16.198974.417175 21.007049 5.963013 5.776276 13.090515 10.350334 20.010559 15.67318 3.290894-3.907173 5.735169-6.809181 8.581848-10.320252z" fill="#c47034"/><path d="m718.904907 653c0-22.139771 0-43.779602 0-65.772339h41.095581v5.82843c0 43.492249-.837219 87.006043.28418 130.469361.793457 30.751526-17.658814 42.934936-37.553162 47.532715-18.899597 4.367858-38.041931 4.575439-56.892212-.165101-15.398376-3.872375-27.898498-12.030212-32.948181-28.128479-1.461181-4.658142-1.812561-9.816467-1.835022-14.749328-.152343-33.493347-.080322-66.987671-.080993-100.48169-.000306-17.11261-5.353333-24.376892-22.122437-26.95166-7.35437-1.129211-15.373169-.452881-22.679138 1.209961-11.251648 2.560913-16.781433 9.708374-16.849793 21.198609-.246704 41.490539-.082092 82.983581-.051635 124.475646.000305.449585.285278.898987.56958 1.739502 8.163452-1.500976 15.694824-4.145385 21.751709-10.056884 2.550171-2.488892 3.939697-5.380677 2.325866-8.984314-1.610961-3.59729-4.784729-4.815613-8.235107-4.228821-3.646912.620239-7.139343 2.14917-10.927551 3.353638-5.754761-7.26648-1.773743-23.369812 10.865234-27.330689 9.414063-2.950256 18.709107-2.797912 26.11731 4.480408 7.924743 7.785705 9.556518 17.707702 6.52655 28.170837-4.083069 14.099671-14.792664 22.248352-27.281128 28.158936-19.678284 9.313354-40.741577 11.559936-62.933411 11.233948 0-1.992981-.000061-3.754761 0-5.516541.000123-47.991394.212708-95.984253-.111084-143.973511-.118225-17.533386 7.589356-29.651489 23.497376-35.64386 9.816223-3.697631 20.423584-6.156128 30.867493-7.144043 20.75415-1.963134 41.562011-1.822021 61.769287 4.867981 19.007202 6.292664 27.85791 18.281006 27.869262 38.288147.01886 33.160767.005311 66.321473.005433 99.482239 0 1.666382.076721 3.33667-.010376 4.998474-1.280091 24.419007 16.665771 29.661194 34.476623 24.613648 6.72638-1.906128 10.606873-6.654541 11.568604-13.559449.526428-3.779357.869934-7.617126.881408-11.429809.076111-25.161804.039612-50.323914.039734-75.985962z" fill="#c57034"/><path d="m465.037354 303.916626c-13.909699 26.863373-36.911896 40.735016-65.083008 46.971985-9.474152 2.097504-19.324158 2.497497-29.862305 3.777832 0-2.986542 0-4.917114 0-6.847687-.000031-56.157989-.116455-112.316528.14148-168.473343.033691-7.340179-2.812745-11.989456-9.18216-14.25029-7.006897-2.487091-14.340759-4.043197-21.50293-6.10643-4.291198-1.236191-8.69281-2.289612-12.755127-4.081726-11.53717-5.089676-14.976074-15.732208-7.729827-26.220169 6.388092-9.245872 13.590881-18.014084 21.138763-26.355438 15.071625-16.655975 30.512177-32.983833 46.024567-49.233196 9.210693-9.648281 17.68106-9.115796 25.993164 1.191318 6.879211 8.530346 13.44107 17.326347 20.566467 25.642304 2.020691 2.358337 5.343292 3.988517 8.385529 5.001762 5.926178 1.973785 10.701202-.230186 13.854309-5.653549.73413-1.262734 1.328796-2.606537 2.022918-3.982987 11.539643 11.25663 7.897492 31.269608-6.930145 39.2948-16.742554 9.061615-39.366272 4.344322-51.803924-11.205559-4.102662-5.129203-7.281617-10.997253-11.544617-17.543586-1.119354 1.428115-2.308106 3.125778-3.677582 4.662346-8.411377 9.437538-16.973846 18.742904-25.263947 28.285156-5.636779 6.488205-4.979125 9.310447 3.156708 12.091087 7.209961 2.464188 14.722595 4.033386 22.07486 6.09317 8.069488 2.260666 15.829956 5.201065 21.867645 11.357041 3.989411 4.06755 6.217957 8.844619 6.214478 14.730835-.030426 51.491287.027282 102.98262.058563 154.473922.00119 1.970795.000122 3.94159.000122 6.694428 11.591766-3.591339 19.340057-10.372864 23.854919-20.832031 2.328492-5.394196 2.635102-10.837708.322663-16.462189-2.809204-6.832642-7.853455-9.893402-15.444123-8.226532-3.49179.766724-4.824859-.474854-4.783203-3.557953.228455-16.91806 11.42743-31.114319 27.819092-32.110443 14.848389-.902359 26.957092 11.345077 28.227478 27.638916.903076 11.583221-1.362518 22.410553-6.160827 33.236206z" fill="#cdb592"/><path d="m564.004028 566.978088c-5.145569 0-9.791809 0-15.242004 0 0-2.193725 0-4.105163 0-6.016662.000061-45.327637.385742-90.660309-.209656-135.980103-.207641-15.805816 7.361633-25.309143 20.239014-31.958557 15.046142-7.769226 31.48291-10.424927 48.084289-11.976745 20.618164-1.927308 41.244263-1.791169 61.817017.918396 14.077881 1.854156 27.866333 4.809967 40.642822 11.247833 12.881836 6.490997 20.177613 16.007293 19.993653 31.547424-.53656 45.321259-.19043 90.652924-.190369 135.98056v5.857178c-13.602783 0-26.97583 0-40.966736 0 0-2.055298-.000061-4.00177-.000061-5.948181 0-46.327454.000549-92.654968-.000305-138.982452-.000183-10.779175-2.226013-13.943787-12.406372-17.650208-13.547302-4.932251-27.686707-5.460663-41.85138-5.316711-13.794982.140197-27.634887.156128-40.898254 5.020202-10.841064 3.975769-13.083191 6.91095-13.083496 18.167511-.000671 29.816193-.000183 59.632385-.000183 90.62323 1.640198-1.853088 2.661865-2.972595 3.645813-4.124328 14.108703-16.513794 31.543762-25.749482 53.73584-24.361298 6.430664.402252 12.421875 2.304047 17.404846 6.619476 5.925903 5.132019 7.411255 13.727906 3.287414 20.363221-3.964355 6.378601-9.923889 10.218994-17.15155 11.931335-1.165832.276245-3.284668-.458069-3.91333-1.414856-4.100525-6.240967-10.068726-7.432312-16.662415-6.145752-14.800964 2.88794-24.848937 12.499634-33.785461 23.952942-6.325622 8.107056-7.460937 17.109497-6.273132 27.646545-8.894287 0-17.305542 0-26.216004 0z" fill="#c57034"/><path d="m695.087769 104.025543c-2.645508 3.206536-5.089783 6.108544-8.380677 10.015717-6.920044-5.322846-14.047546-9.896904-20.010559-15.67318-4.963562-4.808075-4.47522-14.953956-.417175-21.007049 3.987915-5.948693 12.146728-8.762909 19.965515-6.886712 7.606201 1.825173 12.732422 7.324646 13.543884 14.768586.727356 6.672645-.756714 12.865005-4.700988 18.782638z" fill="#fefcfb"/></svg>