<svg enable-background="new 0 0 1246 498" viewBox="0 0 1246 498" xmlns="http://www.w3.org/2000/svg"><path d="m927 499c-309 0-617.499969 0-925.999959 0-.000013-165.999969-.000013-331.999939-.000027-497.999936 415.333268-.000022 830.666551-.000022 1245.999986-.000043v497.999887c-106.5.000092-213 .000092-320 .000092m-191.45874-220.991821c-5.886963-10.683045-15.457031-17.543854-25.222473-23.644593 3.473266-4.866012 6.949768-9.112991 9.745422-13.768783 8.823608-14.694763 6.99823-35.49437-3.797058-48.697128-8.931702-10.923478-20.873657-14.858338-34.385681-15.206833-16.618653-.428635-31.166687 4.399856-40.506653 18.92073-9.620728 14.957459-8.84137 30.834244-.250488 45.895249 3.507934 6.14978 9.313049 10.989181 14.342163 16.73201-14.226013 1.750915-28.720215 4.053375-43.000611-.733002-10.661682-3.573471-17.772216-10.975372-19.799621-22.368027-.899658-5.055832-1.517395-10.225098-1.591675-15.352615-.217468-14.993912.044861-29.994522-.144104-44.989182-.25116-19.931946-12.235901-33.179321-32.118225-34.360061-18.382752-1.09169-34.175781 9.882202-31.586548 30.386169.567566 4.494827 3.374023 8.952606 6.072327 12.776077.762878 1.080994 4.797058-.116058 7.326843-.318374 7.057434-.564377 9.32196 1.53154 9.373901 8.717102.079468 10.996261-.228637 22.011886.318238 32.984894 1.297485 26.034225 14.643249 43.565399 39.529419 50.951263 25.383606 7.533508 51.310546 7.020966 76.361633-.535614 10.52362-3.174439 16.732605-1.18277 22.838013 6.390472.104431.129578.222473.248078.333374.372467 10.267944 11.512452 13.154419 25.39972 13.135559 40.295136-.049744 39.325409-.013916 78.650909-.027893 117.976379-.000611 1.565766-.162964 3.13147-.306641 5.718048-18.960754-18.080841-37.182373-35.456909-55.437378-52.864807-18.613098 17.758667-36.832336 35.141571-55.972351 53.402985 0-45.909241 0-90.45871 0-135.08667-28.205566-.351685-53.674439 6.626831-74.980835 24.885986-17.443726 14.948883-26.854889 34.150269-25.673187 57.596131.51712 10.259552 4.209106 19.306366 13.738891 24.557006 10.237702 5.640717 20.701325 5.46695 29.981598-1.802948 9.868775-7.730987 13.891236-18.245513 11.953003-31.150512-1.605163.325409-2.869812.581787-4.134521.838196-8.041687 1.630462-13.107727-1.299347-15.774536-9.122712-4.56482-13.391326 8.579101-32.961944 24.392883-35.746887v142.345703c12.597168 0 24.760742.13089 36.916443-.120941 2.181762-.045196 4.863403-1.127655 6.412475-2.649231 15.453492-15.179291 30.721802-30.547088 46.030884-45.873169 2.306213-2.308807 4.55304-4.676941 7.598267-7.811035 1.362732 1.850128 2.200195 3.345337 3.365051 4.514496 16.347412 16.407684 32.722351 32.788055 49.155579 49.10965 1.207885 1.199676 2.901428 2.681121 4.390991 2.705597 12.963928.212921 25.9328.122863 39.089294.122863.107788-1.301025.258179-2.270813.258362-3.2406.011108-56.655335.05658-113.310761-.030029-169.965973-.017151-11.245026-1.600647-22.239838-7.920105-32.784912m-444.905091 50.588134c.191681-9.520172 2.294404-18.467346 10.510071-24.218444 5.089112-3.562439 10.776825-6.835083 16.685669-8.555024 17.577576-5.116485 35.567566-5.260742 53.323639-1.013275 20.067169 4.800263 31.78479 15.299774 31.320892 39.375031-.927734 48.147644-.232635 96.325867-.355987 144.491058-.010162 3.978668.807831 5.566193 5.165375 5.432709 10.323394-.316193 20.668213-.288849 30.993621-.0065 4.10141.112152 5.025177-1.331421 5.016205-5.172425-.111633-47.831939-.059448-95.664215-.080658-143.496429-.010345-23.362824-10.970398-40.384338-31.713989-50.080414-11.301025-5.282318-23.690765-9.125915-35.994934-11.132446-13.489105-2.199768-27.440918-1.696564-41.199341-2.054016-6.789429-.176361-13.993378 1.911316-20.325043.294006-21.61972-5.5224-38.733703-17.833923-50.526153-37.152496-1.577454-2.584153-1.21817-4.026184.754303-5.933731 5.267364-5.09404 10.659057-10.10141 15.481201-15.599411 3.300293-3.762848 5.582703-3.627503 9.394989-.610535 13.572846 10.741257 27.305817 21.29512 41.268921 31.522964 8.954956 6.559418 17.705688 5.878678 25.84137-1.678848 4.984344-4.630127 9.376098-9.897766 14.038391-14.875 5.173034-5.522476 10.351043-11.040298 16.103332-17.17485 4.083344 4.340744 7.346863 8.139801 10.952912 11.579864 9.759338 9.310242 19.583282 18.609192 31.990509 24.424942 7.62088 3.57219 15.944763 2.108155 21.258667-3.35643 8.873291-9.125 9.614959-29.315246 1.421753-39.346847-.162995-.199509-.612061-.165345-1.226655-.311142-.659576.738937-1.417724 1.573059-2.159301 2.421615-4.109131 4.70166-5.507294 4.926743-10.24585.935898-3.560669-2.998779-6.90564-6.258392-10.28363-9.468185-5.432129-5.161713-10.921723-10.269852-16.190644-15.59491-9.780426-9.884674-21.186859-6.867096-29.18103.970963-8.921966 8.747756-17.784241 17.561126-26.474182 26.537918-2.740845 2.831314-4.791229 3.098602-8.014374.663314-13.149933-9.935485-26.504883-19.599182-39.750763-29.40831-9.125091-6.757492-16.501281-6.838989-24.590912.978547-14.489288 14.001968-28.665252 28.332504-42.796615 42.69841-5.703232 5.797866-7.097153 12.726562-4.818756 20.753708 2.807068 9.889831 7.702606 18.440856 15.092712 25.398193 6.858048 6.456421 14.217362 12.380432 22.103043 19.18335-1.043213.742767-2.272827 1.553283-3.432526 2.453887-14.024841 10.891236-20.22113 25.182465-20.10823 42.961792.302688 47.663605.102905 95.330445.102691 142.995972 0 1.746277.000015 3.492584.000015 5.28241h40.647339c0-51.574951 0-102.858246.001953-155.116883m559.507081 10.903687v144.148895c20.26239.804779 43.307495-3.267517 62.479309-15.126861 25.56488-15.814026 40.823425-37.80951 38.381164-69.211609-.856018-11.007446-6.031555-19.687348-16.700989-24.079804-10.352783-4.262085-20.186706-2.681701-28.36615 4.73114-8.341735 7.560029-11.398315 17.515992-10.531188 28.874634 1.783386 0 3.113464.174134 4.383728-.028015 8.826171-1.404693 13.575256 1.431427 16.26123 9.81427 4.284363 13.371552-9.580627 33.20047-24.895447 34.917084 0-2.010529 0-3.967499-.000061-5.924469-.001221-50.82013-.122742-101.640808.103211-152.4599.042602-9.57431-3.707276-16.645386-11.726136-20.965637-6.361206-3.427155-13.354614-5.774109-20.228942-8.128937-6.746033-2.310944-13.764466-3.820496-20.533936-6.071228-5.04895-1.678711-5.756531-4.276337-2.626282-8.684265 2.110047-2.971497 4.562927-5.713867 6.996948-8.438553 7.959107-8.909088 15.979859-17.763123 24.220398-26.908585 1.653931 3.17952 2.932007 5.876511 4.417786 8.45372 9.870972 17.12233 24.417297 25.797181 44.461731 24.568299 12.969605-.795151 24.35321-9.918045 27.215698-21.933212 1.869385-7.846573-1.057556-17.657425-6.40393-21.465424-6.316468 12.212875-15.217713 13.526916-25.24347 3.655731-1.889404-1.86029-3.638916-3.889786-5.261108-5.989441-5.590759-7.236541-10.687988-14.901916-16.746704-21.716232-6.361328-7.154785-14.157105-7.363495-21.062622-.805298-7.103516 6.746216-13.64978 14.085968-20.34021 21.259018-13.511719 14.486588-27.211121 28.811569-40.290589 43.680405-4.636779 5.271103-8.521667 11.578567-11.272033 18.041763-3.665039 8.612701.262024 17.283813 8.462158 20.740448 4.565613 1.924561 9.450623 3.10257 14.212769 4.547302 7.757507 2.353455 15.681518 4.254029 23.248657 7.106171 5.26239 1.98352 7.531982 6.569305 7.425354 12.40741-.182556 9.993957-.043885 19.993805-.040344 30.99118m-727.119965 69.045746c7.43808-.993408 12.312927 1.853393 14.848495 8.671234 5.139969 13.82074-7.633087 33.410858-24.037902 36.287048 0-2.04425 0-4.022186-.000008-6.000122-.000183-49.823486.038612-99.647033-.044014-149.470398-.011932-7.19873-.265816-14.794281-6.790108-19.491943-5.583511-4.020264-11.555183-7.899841-17.932106-10.324036-8.965141-3.40805-18.514404-5.248382-27.714477-8.081909-5.111615-1.574341-6.07058-4.717285-2.881478-9.111832 2.627102-3.620132 5.723328-6.909194 8.710503-10.256759 7.296501-8.176819 14.650299-16.302506 21.418838-23.824036 5.42379 7.123551 10.05169 14.714111 16.130082 20.873169 13.017181 13.189942 36.47499 15.059876 50.633895 4.899048 12.44307-8.92955 14.494492-28.227722 3.743607-37.460587-.488571 1.103974-.901184 2.158554-1.409393 3.164841-3.393677 6.719681-9.487625 9.262787-16.158188 5.703949-4.276688-2.281662-8.299194-5.607193-11.450348-9.30455-5.382408-6.315384-9.842957-13.405808-14.958771-19.961502-7.912643-10.13971-17.569282-12.096787-27.171776-1.598969-16.40644 17.936188-33.337177 35.393219-49.717418 53.352738-6.133213 6.724518-12.017706 13.870086-16.821862 21.568619-7.885621 12.636566-3.899812 23.1315 10.144959 27.776855 7.858875 2.599365 16.073898 4.110168 24.102257 6.211517 13.691204 3.583527 17.151829 8.107331 17.152279 22.207947.001716 54.322601.001068 108.645172.001304 162.967774.000008 2.082672.000008 4.165374.000008 7.168212 8.464203-.872009 16.078339-1.30664 23.573608-2.492553 25.009133-3.957001 46.90136-14.068421 62.481957-34.704193 12.076492-15.994782 18.375961-33.891541 13.139068-54.271637-3.487014-13.57013-16.945114-21.465027-30.597122-19.570038-13.515518 1.876037-24.058479 16.806885-24.17009 31.880676-.025299 3.417816 1.938393 4.265747 5.774201 3.191437m1044.778595 57.15213c5.294311 5.31189 10.555664 10.657593 15.912353 15.905823 1.013062.992431 2.397339 2.263061 3.624634 2.278473 13.102417.164795 26.207764.102417 39.351196.102417 0-54.315033 0-108.052094 0-161.749115-13.692749 0-27.072021 0-40.825561 0v124.107605c-18.888794-18.100251-37.07312-35.525483-55.367432-53.056244-18.495239 17.805633-36.646362 35.279998-55.786377 53.706482 0-42.57251 0-83.644104 0-124.755463-13.852539 0-27.231567 0-40.456909 0v161.762146c11.89502 0 23.386475-.162567 34.868775.088928 3.972045.087006 6.767334-1.021148 9.588379-3.892029 17.048461-17.349548 34.3031-34.496643 51.527343-51.75 12.496216 12.390595 24.780152 24.570618 37.563599 37.250977m-36.1427-289.193222v8.842377c2.099365-1.11174 3.110595-1.637665 4.113159-2.179596 16.88147-9.125122 37.35083-3.075714 45.367432 14.253418 8.362915 18.077499 6.074707 36.426696-1.487671 54.187759-6.134156 14.406708-17.783448 22.612366-32.773682 25.899262-6.953491 1.524597-14.151611 2.517578-21.258301 2.642791-16.786133.295716-31.981811-4.487945-43.869873-16.913391-13.876098-14.503403-15.634888-32.113251-11.77539-50.787475 1.339355-6.480057 4.97998-11.696228 11.276489-14.385498 6.558594-2.801224 13.283813-.620194 16.288208 5.483108 4.760986 9.67128 4.99414 17.984451-2.847779 23.255646-4.132324 2.777649-9.130126 4.267486-13.866333 6.39685 1.144776 8.552857 7.008667 15.275834 15.301758 17.151474 8.784058 1.986649 18.005005-1.9207 22.903076-9.616211 5.629517-8.844467 5.889405-18.68721 4.677124-28.508819-1.687255-13.668518-8.228393-24.357865-20.859497-30.924957-8.982055-4.669846-18.541504-5.376664-28.208862-4.22313-14.426147 1.721329-26.260498 7.942307-33.712768 21.148865-5.153321 9.132431-6.851075 18.954666-7.079957 29.256409-.76062 34.229568 18.342286 57.684128 47.371583 66.823623 31.785278 10.007111 63.81604 9.370758 95.029785-2.636505 17.708007-6.811889 31.973022-18.375702 40.788452-35.738754 9.873779-19.447052 12.131347-40.003052 8.221069-61.221954-5.326782-28.906479-29.004639-52.0038-62.295898-48.816132-15.895508 1.521988-31.362061 12.640061-31.302124 30.61084m-258.370118-57.246079c-4.295043-.979049-8.590087-1.958099-13.14685-2.99681 0 1.119178-.17273 1.961303.024841 2.705055 8.662049 32.607322 41.877503 43.383049 66.972901 29.924263 16.250732-8.715378 24.73236-23.309502 28.361206-40.844437 4.549621-21.984276.735473-42.170532-15.061158-58.900429-17.230041-18.24798-48.613708-23.594238-71.627502-12.493976-5.299194 2.555977-10.230713 5.87429-15.46405 8.918957-.783753-1.270924-1.619507-2.510407-2.340454-3.813405-7.290162-13.174392-17.7146-22.768699-32.029725-27.804899-9.934265-3.494947-20.162536-5.311799-30.127868-.783318-7.839783 3.562596-12.167725 9.985921-11.996155 19.060542.150269 7.949436 6.549072 9.745254 11.91217 12.46241 4.889893 2.477417 10.157837 4.22924 14.970704 6.833919 9.515441 5.149662 17.219421 12.446202 17.345275 23.851223.127015 11.513314-1.159057 23.108818-2.717834 34.546799-.811462 5.954819-3.545471 11.647644-5.835571 18.780945 4.546264-1.094765 8.31073-1.542343 11.713134-2.898346 16.5625-6.601036 26.622681-19.307793 32.835511-35.567696 4.188415-10.96167 9.30957-21.309395 18.452392-29.241611 10.4693-9.083061 27.357178-9.0634 37.466431.413646 11.300964 10.594117 10.627991 23.714226 7.279968 37.068863-2.847534 11.358139-10.52124 18.003884-21.941894 20.770707-8.126892 1.968841-16.127808 1.644012-25.045472.007598m-700.382995-27.062812c.101913-1.328392.137344-2.665802.315948-3.983803 1.93808-14.302223-.470245-27.872166-7.452026-40.453221-7.434952-13.39767-21.006577-19.255703-35.520111-15.833906-12.551651 2.959254-21.873924 15.004366-22.772987 29.670016 2.808929.735496 5.793106 1.190124 8.498893 2.314602 2.871842 1.193485 5.746407 2.690654 8.158272 4.629337 13.562523 10.901741 14.475777 29.448349 7.747322 44.253975-6.770065 14.897209-19.96788 20.308433-35.301727 21.090889-11.412018.582306-21.730888-3.013901-30.125984-10.963028-9.205166-8.716187-11.806027-27.050331.492065-35.031128 3.828652-2.484604 8.298691-3.98085 12.655785-6.013855 1.503822-11.348389-5.015404-22.94038-15.448799-27.028641-14.609272-5.72456-33.812432 2.775566-41.219897 17.632271-11.170196 22.403381-4.112913 51.988319 18.486819 67.644096 19.085228 13.221146 40.65512 15.696869 63.038078 13.464264 13.223228-1.318939 25.737884-5.32254 36.966385-12.608124 17.466278-11.332946 27.274948-27.781601 31.481964-48.783744z" fill="#fffffe"/><path d="m735.722351 278.327881c6.138367 10.225372 7.721863 21.220184 7.739014 32.46521.086609 56.655212.041137 113.310638.030029 169.965973-.000183.969787-.150574 1.939575-.258362 3.2406-13.156494 0-26.125366.090058-39.089294-.122863-1.489563-.024476-3.183106-1.505921-4.390991-2.705597-16.433228-16.321595-32.808167-32.701966-49.155579-49.10965-1.164856-1.169159-2.002319-2.664368-3.365051-4.514496-3.045227 3.134094-5.292054 5.502228-7.598267 7.811035-15.309082 15.326081-30.577392 30.693878-46.030884 45.873169-1.549072 1.521576-4.230713 2.604035-6.412475 2.649231-12.155701.251831-24.319275.120941-36.916443.120941 0-47.47525 0-94.872558 0-142.345703-15.813782 2.784943-28.957703 22.355561-24.392883 35.746887 2.666809 7.823365 7.732849 10.753174 15.774536 9.122712 1.264709-.256409 2.529358-.512787 4.134521-.838196 1.938233 12.904999-2.084228 23.419525-11.953003 31.150512-9.280273 7.269898-19.743896 7.443665-29.981598 1.802948-9.529785-5.25064-13.221771-14.297454-13.738891-24.557006-1.181702-23.445862 8.229461-42.647248 25.673187-57.596131 21.306396-18.259155 46.775269-25.237671 74.980835-24.885986v135.08667c19.140015-18.261414 37.359253-35.644318 55.972351-53.402985 18.255005 17.407898 36.476624 34.783966 55.437378 52.864807.143677-2.586578.30603-4.152282.306641-5.718048.013977-39.32547-.021851-78.65097.027893-117.976379.01886-14.895416-2.867615-28.782684-13.135559-40.295136-.110901-.124389-.228943-.242889-.333374-.372467-6.105408-7.573242-12.314393-9.564911-22.838013-6.390472-25.051087 7.55658-50.978027 8.069122-76.361633.535614-24.88617-7.385864-38.231934-24.917038-39.529419-50.951263-.546875-10.973008-.23877-21.988633-.318238-32.984894-.051941-7.185562-2.316467-9.281479-9.373901-8.717102-2.529785.202316-6.563965 1.399368-7.326843.318374-2.698304-3.823471-5.504761-8.28125-6.072327-12.776077-2.589233-20.503967 13.203796-31.477859 31.586548-30.386169 19.882324 1.18074 31.867065 14.428115 32.118225 34.360061.188965 14.99466-.073364 29.99527.144104 44.989182.07428 5.127517.692017 10.296783 1.591675 15.352615 2.027405 11.392655 9.137939 18.794556 19.799621 22.368027 14.280396 4.786377 28.774598 2.483917 43.000611.733002-5.029114-5.742829-10.834229-10.58223-14.342163-16.73201-8.590882-15.061005-9.37024-30.93779.250488-45.895249 9.339966-14.520874 23.888-19.349365 40.506653-18.92073 13.512024.348495 25.453979 4.283355 34.385681 15.206833 10.795288 13.202758 12.620666 34.002365 3.797058 48.697128-2.795654 4.655792-6.272156 8.902771-9.745422 13.768783 9.765442 6.100739 19.33551 12.961548 25.403564 23.964295m-33.808472-64.56163c-1.261779-2.667206-2.013794-5.777405-3.877319-7.921585-6.56958-7.559067-20.255981-7.793702-27.505493-.81427-6.80188 6.548477-6.343506 19.71083 1.475342 26.315338 5.37561 4.540664 11.481323 8.216949 17.118835 12.17987 9.084351-8.156463 14.66272-16.96199 12.788635-29.759353z" fill="#010101"/><path d="m290.635193 329.083984c-.000977 51.770966-.000977 103.054261-.000977 154.629212-13.66748 0-26.757263 0-40.647339 0 0-1.789826-.000015-3.536133-.000015-5.28241.000214-47.665527.199997-95.332367-.102691-142.995972-.1129-17.779327 6.083389-32.070556 20.10823-42.961792 1.159699-.900604 2.389313-1.71112 3.432526-2.453887-7.885681-6.802918-15.244995-12.726929-22.103043-19.18335-7.390106-6.957337-12.285644-15.508362-15.092712-25.398193-2.278397-8.027146-.884476-14.955842 4.818756-20.753708 14.131363-14.365906 28.307327-28.696442 42.796615-42.69841 8.089631-7.817536 15.465821-7.736039 24.590912-.978547 13.24588 9.809128 26.60083 19.472825 39.750763 29.40831 3.223145 2.435288 5.273529 2.168 8.014374-.663314 8.689941-8.976792 17.552216-17.790162 26.474182-26.537918 7.994171-7.838059 19.400604-10.855637 29.18103-.970963 5.268921 5.325058 10.758515 10.433197 16.190644 15.59491 3.37799 3.209793 6.722961 6.469406 10.28363 9.468185 4.738556 3.990845 6.136719 3.765762 10.24585-.935898.741577-.848556 1.499725-1.682678 2.159301-2.421615.614594.145797 1.06366.111633 1.226655.311142 8.193206 10.031601 7.451538 30.221847-1.421753 39.346847-5.313904 5.464585-13.637787 6.92862-21.258667 3.35643-12.407227-5.81575-22.231171-15.1147-31.990509-24.424942-3.606049-3.440063-6.869568-7.23912-10.952912-11.579864-5.752289 6.134552-10.930298 11.652374-16.103332 17.17485-4.662293 4.977234-9.054047 10.244873-14.038391 14.875-8.135682 7.557526-16.886414 8.238266-25.84137 1.678848-13.963104-10.227844-27.696075-20.781707-41.268921-31.522964-3.812286-3.016968-6.094696-3.152313-9.394989.610535-4.822144 5.498001-10.213837 10.505371-15.481201 15.599411-1.972473 1.907547-2.331757 3.349578-.754303 5.933731 11.79245 19.318573 28.906433 31.630096 50.526153 37.152496 6.331665 1.61731 13.535614-.470367 20.325043-.294006 13.758423.357452 27.710236-.145752 41.199341 2.054016 12.304169 2.006531 24.693909 5.850128 35.994934 11.132446 20.743591 9.696076 31.703644 26.71759 31.713989 50.080414.02121 47.832214-.030975 95.66449.080658 143.496429.008972 3.841004-.914795 5.284577-5.016205 5.172425-10.325408-.282349-20.670227-.309693-30.993621.0065-4.357544.133484-5.175537-1.454041-5.165375-5.432709.123352-48.165191-.571747-96.343414.355987-144.491058.463898-24.075257-11.253723-34.574768-31.320892-39.375031-17.756073-4.247467-35.746063-4.10321-53.323639 1.013275-5.908844 1.719941-11.596557 4.992585-16.685669 8.555024-8.215667 5.751098-10.31839 14.698272-10.511047 24.706115z" fill="#c67135"/><path d="m850.143433 339c-.003724-10.497375-.142395-20.497223.040161-30.49118.106628-5.838105-2.162964-10.42389-7.425354-12.40741-7.567139-2.852142-15.49115-4.752716-23.248657-7.106171-4.762146-1.444732-9.647156-2.622741-14.212769-4.547302-8.200134-3.456635-12.127197-12.127747-8.462158-20.740448 2.750366-6.463196 6.635254-12.77066 11.272033-18.041763 13.079468-14.868836 26.77887-29.193817 40.290589-43.680405 6.69043-7.17305 13.236694-14.512802 20.34021-21.259018 6.905517-6.558197 14.701294-6.349487 21.062622.805298 6.058716 6.814316 11.155945 14.479691 16.746704 21.716232 1.622192 2.099655 3.371704 4.129151 5.261108 5.989441 10.025757 9.871185 18.927002 8.557144 25.24347-3.655731 5.346374 3.807999 8.273315 13.618851 6.40393 21.465424-2.862488 12.015167-14.246093 21.138061-27.215698 21.933212-20.044434 1.228882-34.590759-7.445969-44.461731-24.568299-1.485779-2.577209-2.763855-5.2742-4.417786-8.45372-8.240539 9.145462-16.261291 17.999497-24.220398 26.908585-2.434021 2.724686-4.886901 5.467056-6.996948 8.438553-3.130249 4.407928-2.422668 7.005554 2.626282 8.684265 6.76947 2.250732 13.787903 3.760284 20.533936 6.071228 6.874328 2.354828 13.867736 4.701782 20.228942 8.128937 8.01886 4.320251 11.768738 11.391327 11.726136 20.965637-.225953 50.819092-.104432 101.63977-.103211 152.4599.000061 1.95697.000061 3.91394.000061 5.924469 15.31482-1.716614 29.17981-21.545532 24.895447-34.917084-2.685974-8.382843-7.435059-11.218963-16.26123-9.81427-1.270264.202149-2.600342.028015-4.383728.028015-.867127-11.358642 2.189453-21.314605 10.531188-28.874634 8.179444-7.412841 18.013367-8.993225 28.36615-4.73114 10.669434 4.392456 15.844971 13.072358 16.700989 24.079804 2.442261 31.402099-12.816284 53.397583-38.381164 69.211609-19.171814 11.859344-42.216919 15.93164-62.479309 15.126861 0-48.022674 0-96.085785.000183-144.648895z" fill="#cdb692"/><path d="m122.617172 408.661499c-3.429695.958557-5.393387.110626-5.368088-3.30719.111611-15.073791 10.654572-30.004639 24.17009-31.880676 13.652008-1.894989 27.110108 5.999908 30.597122 19.570038 5.236893 20.380096-1.062576 38.276855-13.139068 54.271637-15.580597 20.635772-37.472824 30.747192-62.481957 34.704193-7.495269 1.185913-15.109405 1.620544-23.573608 2.492553 0-3.002838 0-5.08554-.000008-7.168212-.000236-54.322602.000412-108.645173-.001304-162.967774-.00045-14.100616-3.461075-18.62442-17.152279-22.207947-8.028359-2.101349-16.243382-3.612152-24.102257-6.211517-14.044771-4.645355-18.03058-15.140289-10.144959-27.776855 4.804156-7.698533 10.688649-14.844101 16.821862-21.568619 16.380241-17.959519 33.310978-35.41655 49.717418-53.352738 9.602494-10.497818 19.259133-8.540741 27.171776 1.598969 5.115814 6.555694 9.576363 13.646118 14.958771 19.961502 3.151154 3.697357 7.17366 7.022888 11.450348 9.30455 6.670563 3.558838 12.764511 1.015732 16.158188-5.703949.508209-1.006287.920822-2.060867 1.409393-3.164841 10.750885 9.232865 8.699463 28.531037-3.743607 37.460587-14.158905 10.160828-37.616714 8.290894-50.633895-4.899048-6.078392-6.159058-10.706292-13.749618-16.130082-20.873169-6.768539 7.52153-14.122337 15.647217-21.418838 23.824036-2.987175 3.347565-6.083401 6.636627-8.710503 10.256759-3.189102 4.394547-2.230137 7.537491 2.881478 9.111832 9.200073 2.833527 18.749336 4.673859 27.714477 8.081909 6.376923 2.424195 12.348595 6.303772 17.932106 10.324036 6.524292 4.697662 6.778176 12.293213 6.790108 19.491943.082626 49.823365.043831 99.646912.044014 149.470398.000008 1.977936.000008 3.955872.000008 6.000122 16.404815-2.87619 29.177871-22.466308 24.037902-36.287048-2.535568-6.817841-7.410415-9.664642-15.254608-8.555481z" fill="#cdb692"/><path d="m1167.552002 465.447693c-12.533569-12.430176-24.817505-24.610199-37.313721-37.000794-17.224243 17.253357-34.478882 34.400452-51.527343 51.75-2.821045 2.870881-5.616334 3.979035-9.588379 3.892029-11.4823-.251495-22.973755-.088928-34.868775-.088928 0-53.931335 0-107.650024 0-161.762146h40.456909v124.755463c19.140015-18.426484 37.291138-35.900849 55.786377-53.706482 18.294312 17.530761 36.478638 34.955993 55.367432 53.056244 0-41.916687 0-82.81781 0-124.107605h40.825561v161.749115c-13.143432 0-26.248779.062378-39.351196-.102417-1.227295-.015412-2.611572-1.286042-3.624634-2.278473-5.356689-5.24823-10.618042-10.593933-16.162231-16.156006z" fill="#c46f34"/><path d="m1131.691406 176.039215c-.092163-17.50534 15.37439-28.623413 31.269898-30.145401 33.291259-3.187668 56.969116 19.909653 62.295898 48.816132 3.910278 21.218902 1.65271 41.774902-8.221069 61.221954-8.81543 17.363052-23.080445 28.926865-40.788452 35.738754-31.213745 12.007263-63.244507 12.643616-95.029785 2.636505-29.029297-9.139495-48.132203-32.594055-47.371583-66.823623.228882-10.301743 1.926636-20.123978 7.079957-29.256409 7.45227-13.206558 19.286621-19.427536 33.712768-21.148865 9.667358-1.153534 19.226807-.446716 28.208862 4.22313 12.631104 6.567092 19.172242 17.256439 20.859497 30.924957 1.212281 9.821609.952393 19.664352-4.677124 28.508819-4.898071 7.695511-14.119018 11.60286-22.903076 9.616211-8.293091-1.87564-14.156982-8.598617-15.301758-17.151474 4.736207-2.129364 9.734009-3.619201 13.866333-6.39685 7.841919-5.271195 7.608765-13.584366 2.847779-23.255646-3.004395-6.103302-9.729614-8.284332-16.288208-5.483108-6.296509 2.68927-9.937134 7.905441-11.276489 14.385498-3.859498 18.674224-2.100708 36.284072 11.77539 50.787475 11.888062 12.425446 27.08374 17.209107 43.869873 16.913391 7.10669-.125213 14.30481-1.118194 21.258301-2.642791 14.990234-3.286896 26.639526-11.492554 32.773682-25.899262 7.562378-17.761063 9.850586-36.11026 1.487671-54.187759-8.016602-17.329132-28.485962-23.37854-45.367432-14.253418-1.002564.541931-2.013794 1.067856-4.113159 2.179596 0-3.412629 0-6.127503.032226-9.307816z" fill="#c57035"/><path d="m873.704956 119.384048c8.50177 1.510941 16.502686 1.83577 24.629578-.133071 11.420654-2.766823 19.09436-9.412568 21.941894-20.770707 3.348023-13.354637 4.020996-26.474746-7.279968-37.068863-10.109253-9.477046-26.997131-9.496707-37.466431-.413646-9.142822 7.932216-14.263977 18.279941-18.452392 29.241611-6.21283 16.259903-16.273011 28.96666-32.835511 35.567696-3.402404 1.356003-7.16687 1.803581-11.713134 2.898346 2.2901-7.133301 5.024109-12.826126 5.835571-18.780945 1.558777-11.437981 2.844849-23.033485 2.717834-34.546799-.125854-11.405021-7.829834-18.701561-17.345275-23.851223-4.812867-2.604679-10.080811-4.356502-14.970704-6.833919-5.363098-2.717156-11.761901-4.512974-11.91217-12.46241-.17157-9.074621 4.156372-15.497946 11.996155-19.060542 9.965332-4.528481 20.193603-2.711629 30.127868.783318 14.315125 5.0362 24.739563 14.630507 32.029725 27.804899.720947 1.302998 1.556701 2.542481 2.340454 3.813405 5.233337-3.044667 10.164856-6.36298 15.46405-8.918957 23.013794-11.100262 54.397461-5.754004 71.627502 12.493976 15.796631 16.729897 19.610779 36.916153 15.061158 58.900429-3.628846 17.534935-12.110474 32.129059-28.361206 40.844437-25.095398 13.458786-58.310852 2.683059-66.972901-29.924263-.197571-.743752-.024841-1.585877-.024841-2.705055 4.556763 1.038711 8.851807 2.017761 13.562744 3.122283z" fill="#cdb692"/><path d="m172.846329 92.626114c-4.147278 20.571792-13.955948 37.020447-31.422226 48.353393-11.228501 7.285584-23.743157 11.289185-36.966385 12.608124-22.382958 2.232605-43.95285-.243118-63.038078-13.464264-22.599732-15.655777-29.657015-45.240715-18.486819-67.644096 7.407465-14.856705 26.610625-23.356831 41.219897-17.632271 10.433395 4.088261 16.952621 15.680252 15.448799 27.028641-4.357094 2.033005-8.827133 3.529251-12.655785 6.013855-12.298092 7.980797-9.697231 26.314941-.492065 35.031128 8.395096 7.949127 18.713966 11.545334 30.125984 10.963028 15.333847-.782456 28.531662-6.19368 35.301727-21.090889 6.728455-14.805626 5.815201-33.352234-7.747322-44.253975-2.411865-1.938683-5.28643-3.435852-8.158272-4.629337-2.705787-1.124478-5.689964-1.579106-8.498893-2.314602.899063-14.66565 10.221336-26.710762 22.772987-29.670016 14.513534-3.421797 28.085159 2.436236 35.520111 15.833906 6.981781 12.581055 9.390106 26.150998 7.452026 40.453221-.178604 1.318001-.214035 2.655411-.375686 4.414154z" fill="#cdb692"/><path d="m701.949585 214.168915c1.838379 12.394699-3.73999 21.200226-12.824341 29.356689-5.637512-3.962921-11.743225-7.639206-17.118835-12.17987-7.818848-6.604508-8.277222-19.766861-1.475342-26.315338 7.249512-6.979432 20.935913-6.744797 27.505493.81427 1.863525 2.14418 2.61554 5.254379 3.913025 8.324249z" fill="#fbfbfb"/></svg>