<svg enable-background="new 0 0 1056 720" viewBox="0 0 1056 720" xmlns="http://www.w3.org/2000/svg"><path d="m643 721c-214.333313 0-428.166641 0-641.999971 0-.00001-239.999969-.00001-479.999939-.000019-719.999939 351.999959-.00002 703.999929-.00002 1055.99999-.000041v719.999858c-137.833313.000122-275.666687.000122-414 .000122m57.909546-344.5c0 65.831085.000305 131.66214.000061 197.493225-.000122 27.332703-.010376 54.665466.002563 81.998169.005677 12.002686-4.292541 21.436768-14.982605 27.931397-8.673645 5.269348-17.9776 7.411804-27.858032 8.37268-16.163757 1.571961-32.218384 1.699463-47.493225-4.609131-11.89624-4.913269-21.687317-13.783325-20.911194-29.942505.517884-10.783264-.363769-21.628295-.440857-32.44696-.100952-14.165588.013123-28.332703-.054565-42.498718-.016602-3.480835-.051331-7.016968-.644348-10.429322-1.772522-10.199829-7.318299-18.522216-14.576416-25.463562-6.689026-6.397094-15.140137-9.707031-24.608521-10.912231-.227295 1.171936-.514343 1.959595-.51355 2.74707.039063 40.07782-.216186 80.160034.333069 120.23114.197754 14.424866 8.147339 25.608887 19.378845 34.213746 20.697205 15.856872 45.292725 19.674621 70.188294 20.483825 14.605957.474732 29.447327-1.561279 43.948303-3.913391 14.551331-2.360351 28.285645-7.925537 39.936279-17.299011 14.145203-11.380432 19.356324-26.868164 19.31427-44.591736-.334838-140.956177-.513183-281.912964-1.117797-422.86795-.054139-12.619873-1.882508-25.415299-4.460755-37.80159-4.804626-23.082627-14.762268-44.177323-27.468078-64.01297-1.252808-1.955826-2.105103-4.931473-1.631836-7.104653 2.874023-13.198158 6.552368-26.226097 9.254333-39.455429 2.981384-14.5974 4.444275-29.45932 1.467041-44.221142-3.392151-16.81939-14.045288-29.613361-33.061401-26.341742-7.887329 1.356976-13.25647 6.185999-15.324646 13.962743-2.028198 7.62643.078186 14.257749 5.927673 19.760683 4.868042-6.316494 8.868164-8.105183 14.044373-6.454113 5.833557 1.860763 8.585693 6.263572 8.406433 14.152389-.169373 7.455666-.011902 15.002182-1.144226 22.331696-1.456116 9.424774-4.055176 18.672981-6.187744 28.111709-10.379395-8.926559-20.068055-17.192199-29.63324-25.598404-.867371-.762237-1.360596-2.444541-1.314453-3.672813.335632-8.944206 1.49237-17.906143 1.149292-26.814697-.406616-10.55542-3.399475-20.428702-10.782349-28.693838-9.724548-10.88675-32.734558-10.707613-38.938782 4.036321-2.285278 5.430714-1.348816 11.826041 3.294556 14.566748 7.357544-6.314089 14.420715-6.644588 19.268127-.470442 6.326294 8.057598 7.410279 17.386738 5.879822 27.665669-1.100525-.411137-1.862976-.636174-2.574157-.970311-25.50586-11.982067-51.957764-17.700309-80.095215-11.963581-20.382508 4.155636-37.664063 13.13839-45.921051 33.443142-5.724274 14.076592-4.933289 28.493462 4.033722 41.293602 7.855529 11.213608 19.776977 15.238129 32.92749 15.303925 41.164734.205948 82.33081.117569 123.496399.169098 1.98761.002487 4.114685-.141999 5.921753.499984 1.688415.599823 3.687317 1.832169 4.438232 3.339722 13.080628 26.259216 19.015625 54.230759 19.091553 83.445053.131714 50.665207.036377 101.330979.03656 152.996506m300.088257 45.999969v23.984192c-19.095825-18.224273-37.35083-35.646118-55.758484-53.213653-18.430359 17.671753-36.514221 35.011383-55.566345 53.279358 0-45.851807 0-90.36734 0-134.860047-20.08313-.587738-38.679444 3.13974-56.060181 12.110413-25.604919 13.215424-42.324585 33.02948-45.066345 62.636749-.965027 10.421417.924072 20.534241 8.775146 28.139404 15.147827 14.67331 39.351929 7.776581 45.881104-12.835327 1.644714-5.192199 2.781067-10.453552.92456-15.852935-16.653137 2.640625-25.229187-7.851838-19.149963-23.15091 4.274109-10.756348 12.539246-17.648468 23.955688-21.709015v142.973999c12.524842 0 24.662171.14737 36.789795-.128998 2.320069-.052856 5.169983-1.198547 6.812989-2.817077 15.196167-14.969055 30.205383-30.128388 45.202636-45.298096 2.444947-2.473022 4.565857-5.26651 6.963562-8.059845 15.440613 15.442841 30.569397 29.563568 44.437134 44.829743 8.063599 8.876678 16.449219 13.195678 28.502503 11.665588 7.960571-1.01062 16.153564-.191315 24.360473-.191315 0-2.481079-.000122-4.303772-.000122-6.126434 0-52.830017.002442-105.660034-.004272-158.490051-.000611-4.165741.023193-8.33432-.112427-12.496765-.697754-21.416199-9.989502-37.931183-28.230957-49.323914-1.761841-1.100342-3.437744-2.338348-4.786804-3.26149 3.520141-4.943909 7.005798-9.205719 9.799621-13.880981 8.775635-14.685273 6.942017-35.82309-3.862426-48.758988-9.554627-11.439544-22.37439-14.972809-36.528687-15.045059-12.600098-.064331-23.911438 3.624115-33.239258 12.454834-17.006958 16.100464-14.816955 48.774582 3.257446 62.939026 2.13678 1.674545 4.075318 3.602035 6.105713 5.412216-.137329.520783-.274658 1.041534-.411987 1.562317-10.447693.324921-20.909546 1.157532-31.339966.865173-19.509094-.546783-32.226196-13.594345-32.600342-33.121734-.30957-16.159836-.090942-32.329056-.228637-48.493088-.193604-22.73436-11.17157-35.672821-31.977173-37.875229-12.101196-1.280991-24.523926 4.368225-29.357361 14.083527-4.872681 9.794189-4.924133 20.481567 3.963074 30.137191 1.679809-.363098 3.432983-.824249 5.214111-1.11296 8.177551-1.325547 11.15155 1.189788 11.165161 9.409912.013245 7.999481-.283447 16.012253.086365 23.994629.345215 7.451751.405518 15.132904 2.304138 22.256546 6.024719 22.604629 22.321839 34.313583 44.339539 38.739364 26.302002 5.286957 52.302124 3.783844 77.834533-4.747406 1.365906-.456421 3.627381-.683838 4.447632.080872 4.848755 4.520202 10.023194 8.904419 13.906922 14.200561 7.35614 10.031525 9.295837 21.850251 9.273132 34.102051-.061768 33.331146-.02124 66.662445-.02124 100.993652m-760.122147-227.134201c-9.976791 6.655396-20.132019 13.062851-29.859588 20.064484-5.348359 3.849609-10.437424 8.288788-14.815659 13.200058-5.74437 6.443695-4.030655 13.887756 3.726654 17.716431 3.521011 1.737808 7.476807 2.795624 11.353531 3.571823 9.294281 1.860885 18.712555 3.120071 27.97731 5.105133 7.347916 1.574386 7.584854 2.287704 7.584885 9.825394.000656 128.665069-.00029 257.330108.006775 385.995208.000137 2.331848-.037201 4.675415.169464 6.993286.564529 6.331665 2.876388 11.856568 7.447555 16.453248 9.036042 9.086547 20.329926 13.671325 32.476166 16.578735 30.028198 7.187988 60.381592 7.64801 90.8349 3.737915 13.200745-1.694946 26.306702-4.232788 38.30661-10.549378 13.588501-7.152832 21.203796-17.26416 20.976196-33.73944-.619171-44.824219-.212707-89.662659-.212707-134.495423 0-1.772522.00003-3.545044.00003-5.380218-13.839599 0-27.080047 0-40.695556 0 0 2.081695.00003 3.885894.00003 5.690094 0 46.832763-.171753 93.666687.160462 140.49707.058807 8.292541-3.074799 13.294556-10.346253 16.221497-2.927765 1.178527-5.897461 2.497802-8.972931 3.025695-23.338104 4.006043-46.733856 4.558045-70.055816.01117-15.511536-3.02417-19.345215-7.975952-19.345215-23.623047 0-132.165039-.067902-264.33017.133392-396.494904.015503-10.187164-4.211578-16.799911-13.233368-19.911163-7.794128-2.687881-16.017242-4.273773-24.156753-5.769806-5.719269-1.051163-11.616577-1.133774-18.647965-1.756317 11.327042-8.132828 21.665497-15.555862 31.813599-22.842209 3.733703 3.919373 6.740234 7.495682 10.171203 10.603363 13.974091 12.657257 38.845551 14.208908 52.793396 3.452423 8.534211-6.581527 8.893647-16.958069.846222-24.427917-8.404235 7.320144-19.427307 7.084411-27.765136-.778671-3.754273-3.540528-7.126099-7.484696-10.850342-11.059327-8.516632-8.174499-15.488373-8.973449-25.565613-2.674286-7.341629 4.589158-14.442596 9.563309-22.255478 14.759079m308.025528 199.134232v89.507324c12.265625 0 23.752686-.244476 35.220764.116028 4.825928.151703 5.818726-1.579773 5.806214-6.008453-.133118-46.989838-.027039-93.980347-.158936-140.970215-.01532-5.447296-.476929-11.035706-1.755371-16.310547-3.884949-16.02948-14.016602-27.44281-28.400208-34.844543-24.681213-12.700776-51.23233-15.648469-78.554473-13.955079-6.627686.410797-13.627961 2.06247-19.842682.575867-21.938233-5.247894-39.089539-17.751907-51.14737-37.041733-1.685028-2.695617-1.223541-4.411377.897065-6.441635 4.691741-4.49176 9.170562-9.205322 13.839874-13.721237 5.990631-5.793884 4.201172-7.11087 12.706207-.590393 12.941406 9.921722 25.775787 19.995376 38.971741 29.568741 9.966003 7.230102 19.655792 5.934265 28.139496-3.028137 4.344482-4.589631 8.472015-9.383805 12.766998-14.021302 4.837768-5.223648 9.753723-10.374954 16.061584-17.071609 3.764222 4.474289 6.793518 8.708496 10.452637 12.3013 9.626953 9.452698 19.516113 18.703186 31.970947 24.414856 9.449829 4.333633 18.665467 1.32283 24.249634-7.438614 4.917908-7.71608 4.882324-16.111282 2.878845-24.562225-.939392-3.962372-2.838684-7.69719-4.516601-12.095231-8.918152 9.117646-8.92096 9.120591-17.389771 1.016114-6.857177-6.562165-13.557434-13.29892-20.625366-19.62526-3.283325-2.938858-6.958923-5.999923-11.011413-7.399917-7.941346-2.743424-14.667481.853759-20.30542 6.381088-8.917847 8.742844-17.761841 17.56514-26.45578 26.529633-2.683747 2.767257-4.683197 3.210372-7.957184.724746-13.256287-10.064193-26.721253-19.853622-40.113953-29.737991-8.754486-6.461121-15.974335-6.657471-23.796356.850082-14.89389 14.295166-29.335236 29.064865-43.847595 43.753052-5.418549 5.484207-6.183594 12.204666-4.384095 19.485962 2.552247 10.327072 7.82782 19.100052 15.487549 26.288193 6.744232 6.32901 13.988465 12.125213 21.256134 18.366455-.761749.799072-1.536834 1.859649-2.53778 2.624756-14.623139 11.177704-20.640473 26.081421-20.533844 44.310119.276794 47.321869.092651 94.646424.092468 141.96991 0 1.751465.00003 3.50293.00003 5.29425h40.64679c0-5.226776-.179321-10.184234.059723-15.121459.174835-3.610505.334076-7.388276 1.487396-10.753144 3.224579-9.407745 6.348694-18.934906 10.649048-27.867798 5.594787-11.621765 12.899292-22.243683 24.511719-28.888153 10.224517-5.850342 18.147888-2.964966 22.024871 8.053559.937806 2.665283 2.153138 3.294738 4.302521 2.03479 3.275788-1.920227 6.824494-3.672394 9.490357-6.279999 8.190246-8.011261 11.57196-17.828949 8.667724-29.13147-2.754272-10.718994-10.538025-16.35498-20.95932-18.23587-9.916015-1.789734-19.21466.939758-27.585022 6.154815-12.493438 7.783875-21.052948 19.167023-27.809112 32.036225-1.094574 2.084961-2.369843 4.075104-4.038575 6.923187-.501434-1.603302-.748718-2.025513-.749115-2.448028-.02304-24.328003-.200805-48.657715.034638-72.983399.144501-14.929962 8.314148-24.610901 21.878998-29.630646 19.48056-7.208892 39.593689-7.417663 59.474334-2.515136 21.683411 5.347107 31.337708 16.543945 30.583069 39.454864-.646972 19.641235-.134033 39.32074-.134033 59.983307m-414.019897 37.526825c-4.504502 10.807159-11.981354 18.347748-23.973206 22.140747 0-2.699127 0-4.672546 0-6.645996-.000015-49.485565.010796-98.971161-.006493-148.456726-.005325-15.235291-5.069557-23.36142-19.237228-28.649902-9.916176-3.701508-20.190453-6.565613-30.47398-9.123566-8.653168-2.152435-9.523373-6.785126-3.41608-13.468018 4.82328-5.277862 9.462516-10.723449 14.24723-16.037155 4.726273-5.248794 9.53254-10.425568 14.383148-15.720673 3.044655 5.024674 5.604699 9.678223 8.566559 14.060181 10.426857 15.426132 30.630493 22.628784 47.839218 17.217514 19.904999-6.259094 26.769791-27.18985 13.476548-42.301254-.660386 1.445999-1.205597 2.750885-1.840516 4.01059-2.570648 5.100326-7.235794 7.706741-12.698608 5.920272-3.963043-1.296005-8.312653-3.277603-10.982452-6.289642-6.476792-7.307053-11.848969-15.582169-18.127503-23.081009-2.804153-3.349182-6.306305-6.734177-10.217048-8.400192-6.924935-2.950089-12.551484 1.042328-17.187378 5.88652-8.971321 9.374451-17.795266 18.893692-26.531609 28.488312-12.088905 13.27652-24.269459 26.483002-35.910112 40.146027-3.446532 4.045303-6.349434 9.272354-7.49701 14.40596-2.284525 10.219726 3.711321 17.714233 15.363512 20.782104 8.176911 2.152893 16.536766 3.668518 24.614266 6.127777 12.02906 3.662323 14.525955 7.444702 14.52597 19.840424.000031 54.817352.000016 109.634704.000016 164.452057v6.401611c1.771194.091156 2.748062.210358 3.720504.181366 21.623314-.645264 42.377266-4.945801 60.648812-16.99115 24.583572-16.206512 39.005264-38.168548 35.935516-68.945618-1.557342-15.613647-16.094009-27.225677-30.582779-24.691375-16.315803 2.853912-27.932037 20.038543-23.878906 35.727051 1.238861-.08722 2.553169-.064393 3.824142-.287964 8.353371-1.469086 14.861481 2.508056 16.146515 10.683532.600083 3.817658-.319046 7.874115-.731048 12.618195z" fill="#fff"/><path d="m700.909424 376c-.000061-51.165527.095276-101.831299-.036438-152.496506-.075928-29.214294-6.010925-57.185837-19.091553-83.445053-.750915-1.507553-2.749817-2.739899-4.438232-3.339722-1.807068-.641983-3.934143-.497497-5.921753-.499984-41.165589-.051529-82.331665.03685-123.496399-.169098-13.150513-.065796-25.071961-4.090317-32.92749-15.303925-8.967011-12.80014-9.757996-27.21701-4.033722-41.293602 8.256988-20.304752 25.538543-29.287506 45.921051-33.443142 28.137451-5.736728 54.589355-.018486 80.095215 11.963581.711181.334137 1.473632.559174 2.574157.970311 1.530457-10.278931.446472-19.608071-5.879822-27.665669-4.847412-6.174146-11.910583-5.843647-19.268127.470442-4.643372-2.740707-5.579834-9.136034-3.294556-14.566748 6.204224-14.743934 29.214234-14.923071 38.938782-4.036321 7.382874 8.265136 10.375733 18.138418 10.782349 28.693838.343078 8.908554-.81366 17.870491-1.149292 26.814697-.046143 1.228272.447082 2.910576 1.314453 3.672813 9.565185 8.406205 19.253845 16.671845 29.63324 25.598404 2.132568-9.438728 4.731628-18.686935 6.187744-28.111709 1.132324-7.329514.974853-14.87603 1.144226-22.331696.17926-7.888817-2.572876-12.291626-8.406433-14.152389-5.176209-1.65107-9.176331.137619-14.044373 6.454113-5.849487-5.502934-7.955871-12.134253-5.927673-19.760683 2.068176-7.776744 7.437317-12.605767 15.324646-13.962743 19.016113-3.271619 29.66925 9.522352 33.061401 26.341742 2.977234 14.761822 1.514343 29.623742-1.467041 44.221142-2.701965 13.229332-6.38031 26.257271-9.254333 39.455429-.473267 2.17318.379028 5.148827 1.631836 7.104653 12.70581 19.835647 22.663452 40.930343 27.468078 64.01297 2.578247 12.386291 4.406616 25.181717 4.460755 37.80159.604614 140.954986.782959 281.911773 1.117797 422.86795.042054 17.723572-5.169067 33.211304-19.31427 44.591736-11.650634 9.373474-25.384948 14.93866-39.936279 17.299011-14.500976 2.352112-29.342346 4.388123-43.948303 3.913391-24.895569-.809204-49.491089-4.626953-70.188294-20.483825-11.231506-8.604859-19.181091-19.78888-19.378845-34.213746-.549255-40.071106-.294006-80.15332-.333069-120.23114-.000793-.787475.286255-1.575134.51355-2.74707 9.468384 1.2052 17.919495 4.515137 24.608521 10.912231 7.258117 6.941346 12.803894 15.263733 14.576416 25.463562.593017 3.412354.627746 6.948487.644348 10.429322.067688 14.166015-.046387 28.33313.054565 42.498718.077088 10.818665.958741 21.663696.440857 32.44696-.776123 16.15918 9.014954 25.029236 20.911194 29.942505 15.274841 6.308594 31.329468 6.181092 47.493225 4.609131 9.880432-.960876 19.184387-3.103332 27.858032-8.37268 10.690064-6.494629 14.988282-15.928711 14.982605-27.931397-.012939-27.332703-.002685-54.665466-.002563-81.998169.000244-65.831085-.000061-131.66214-.000183-197.993225m-85.409424-260.001114h50.489746c-.477417-1.258743-.526123-1.813331-.827454-2.119232-7.542785-7.659309-14.725341-15.736397-22.807495-22.780502-5.789795-5.046166-12.45758-9.361039-19.324585-12.833672-11.810546-5.972565-24.149414-10.002357-37.795532-10.653168-10.992615-.524261-21.111023.695237-30.531067 6.113915-13.874634 7.981117-16.119629 25.628227-4.55896 35.798454 5.586121 4.914299 12.709473 6.260201 19.919068 6.353584 14.810119.191842 29.623962.097283 45.436279.120621z" fill="#cdb592"/><path d="m1000.997803 422c0-33.831238-.040528-67.162537.02124-100.493683.022705-12.2518-1.916992-24.070526-9.273132-34.102051-3.883728-5.296142-9.058167-9.680359-13.906922-14.200561-.820251-.76471-3.081726-.537293-4.447632-.080872-25.532409 8.53125-51.532531 10.034363-77.834533 4.747406-22.0177-4.425781-38.31482-16.134735-44.339539-38.739364-1.89862-7.123642-1.958923-14.804795-2.304138-22.256546-.369812-7.982376-.07312-15.995148-.086365-23.994629-.013611-8.220124-2.98761-10.735459-11.165161-9.409912-1.781128.288711-3.534302.749862-5.214111 1.11296-8.887207-9.655624-8.835755-20.343002-3.963074-30.137191 4.833435-9.715302 17.256165-15.364518 29.357361-14.083527 20.805603 2.202408 31.783569 15.140869 31.977173 37.875229.137695 16.164032-.080933 32.333252.228637 48.493088.374146 19.527389 13.091248 32.574951 32.600342 33.121734 10.43042.292359 20.892273-.540252 31.339966-.865173.137329-.520783.274658-1.041534.411987-1.562317-2.030395-1.810181-3.968933-3.737671-6.105713-5.412216-18.074401-14.164444-20.264404-46.838562-3.257446-62.939026 9.32782-8.830719 20.63916-12.519165 33.239258-12.454834 14.154297.07225 26.97406 3.605515 36.528687 15.045059 10.804443 12.935898 12.638061 34.073715 3.862426 48.758988-2.793823 4.675262-6.27948 8.937072-9.799621 13.880981 1.34906.923142 3.024963 2.161148 4.786804 3.26149 18.241455 11.392731 27.533203 27.907715 28.230957 49.323914.13562 4.162445.111816 8.331024.112427 12.496765.006714 52.830017.004272 105.660034.004272 158.490051 0 1.822662.000122 3.645355.000122 6.126434-8.206909 0-16.399902-.819305-24.360473.191315-12.053284 1.53009-20.438904-2.78891-28.502503-11.665588-13.867737-15.266175-28.996521-29.386902-44.437134-44.829743-2.397705 2.793335-4.518615 5.586823-6.963562 8.059845-14.997253 15.169708-30.006469 30.329041-45.202636 45.298096-1.643006 1.61853-4.49292 2.764221-6.812989 2.817077-12.127624.276368-24.264953.128998-36.789795.128998 0-47.703521 0-95.08078 0-142.973999-11.416442 4.060547-19.681579 10.952667-23.955688 21.709015-6.079224 15.299072 2.496826 25.791535 19.149963 23.15091 1.856507 5.399383.720154 10.660736-.92456 15.852935-6.529175 20.611908-30.733277 27.508637-45.881104 12.835327-7.851074-7.605163-9.740173-17.717987-8.775146-28.139404 2.74176-29.607269 19.461426-49.421325 45.066345-62.636749 17.380737-8.970673 35.977051-12.698151 56.060181-12.110413v134.860047c19.052124-18.267975 37.135986-35.607605 55.566345-53.279358 18.407654 17.567535 36.662659 34.98938 55.758484 53.213653 0-8.571807 0-16.277984 0-24.484161m-25.180176-221.013474c-12.464661 5.546006-15.593689 20.577073-5.687561 29.842942 5.235901 4.897537 11.631287 8.555404 17.937378 13.084747 3.465454-4.399307 6.836792-7.745422 9.083069-11.726349 4.571777-8.102264 6.165893-16.954681.506164-25.009994-5.013672-7.135758-12.818481-8.250367-21.83905-6.191346z" fill="#010101"/><path d="m241.177963 195.169144c7.510575-4.999146 14.611542-9.973297 21.953171-14.562455 10.07724-6.299163 17.048981-5.500213 25.565613 2.674286 3.724243 3.574631 7.096069 7.518799 10.850342 11.059327 8.337829 7.863082 19.360901 8.098815 27.765136.778671 8.047425 7.469848 7.687989 17.84639-.846222 24.427917-13.947845 10.756485-38.819305 9.204834-52.793396-3.452423-3.430969-3.107681-6.4375-6.68399-10.171203-10.603363-10.148102 7.286347-20.486557 14.709381-31.813599 22.842209 7.031388.622543 12.928696.705154 18.647965 1.756317 8.139511 1.496033 16.362625 3.081925 24.156753 5.769806 9.02179 3.111252 13.248871 9.723999 13.233368 19.911163-.201294 132.164734-.133392 264.329865-.133392 396.494904 0 15.647095 3.833679 20.598877 19.345215 23.623047 23.32196 4.546875 46.717712 3.994873 70.055816-.01117 3.07547-.527893 6.045166-1.847168 8.972931-3.025695 7.271454-2.926941 10.40506-7.928956 10.346253-16.221497-.332215-46.830383-.160462-93.664307-.160462-140.49707 0-1.8042-.00003-3.608399-.00003-5.690094h40.695556c0 1.835174-.00003 3.607696-.00003 5.380218 0 44.832764-.406464 89.671204.212707 134.495423.2276 16.47528-7.387695 26.586608-20.976196 33.73944-11.999908 6.31659-25.105865 8.854432-38.30661 10.549378-30.453308 3.910095-60.806702 3.450073-90.8349-3.737915-12.14624-2.90741-23.440124-7.492188-32.476166-16.578735-4.571167-4.59668-6.883026-10.121583-7.447555-16.453248-.206665-2.317871-.169327-4.661438-.169464-6.993286-.007065-128.6651-.006119-257.330139-.006775-385.995208-.000031-7.53769-.236969-8.251008-7.584885-9.825394-9.264755-1.985062-18.683029-3.244248-27.97731-5.105133-3.876724-.776199-7.83252-1.834015-11.353531-3.571823-7.757309-3.828675-9.471024-11.272736-3.726654-17.716431 4.378235-4.91127 9.4673-9.350449 14.815659-13.200058 9.727569-7.001633 19.882797-13.409088 30.161895-20.261108z" fill="#c47034"/><path d="m548.901123 394c.000061-20.162567-.512878-39.842072.134094-59.483307.754639-22.910919-8.899658-34.107757-30.583069-39.454864-19.880645-4.902527-39.993774-4.693756-59.474334 2.515136-13.56485 5.019745-21.734497 14.700684-21.878998 29.630646-.235443 24.325684-.057678 48.655396-.034638 72.983399.000397.422515.247681.844726.749115 2.448028 1.668732-2.848083 2.944001-4.838226 4.038575-6.923187 6.756164-12.869202 15.315674-24.25235 27.809112-32.036225 8.370362-5.215057 17.669007-7.944549 27.585022-6.154815 10.421295 1.88089 18.205048 7.516876 20.95932 18.23587 2.904236 11.302521-.477478 21.120209-8.667724 29.13147-2.665863 2.607605-6.214569 4.359772-9.490357 6.279999-2.149383 1.259948-3.364715.630493-4.302521-2.03479-3.876983-11.018525-11.800354-13.903901-22.024871-8.053559-11.612427 6.64447-18.916932 17.266388-24.511719 28.888153-4.300354 8.932892-7.424469 18.460053-10.649048 27.867798-1.15332 3.364868-1.312561 7.142639-1.487396 10.753144-.239044 4.937225-.059723 9.894683-.059723 15.121459-13.642914 0-26.737824 0-40.64679 0 0-1.79132-.00003-3.542785-.00003-5.29425.000183-47.323486.184326-94.648041-.092468-141.96991-.106629-18.228698 5.910705-33.132415 20.533844-44.310119 1.000946-.765107 1.776031-1.825684 2.53778-2.624756-7.267669-6.241242-14.511902-12.037445-21.256134-18.366455-7.659729-7.188141-12.935302-15.961121-15.487549-26.288193-1.799499-7.281296-1.034454-14.001755 4.384095-19.485962 14.512359-14.688187 28.953705-29.457886 43.847595-43.753052 7.822021-7.507553 15.04187-7.311203 23.796356-.850082 13.3927 9.884369 26.857666 19.673798 40.113953 29.737991 3.273987 2.485626 5.273437 2.042511 7.957184-.724746 8.693939-8.964493 17.537933-17.786789 26.45578-26.529633 5.637939-5.527329 12.364074-9.124512 20.30542-6.381088 4.05249 1.399994 7.728088 4.461059 11.011413 7.399917 7.067932 6.32634 13.768189 13.063095 20.625366 19.62526 8.468811 8.104477 8.471619 8.101532 17.389771-1.016114 1.677917 4.398041 3.577209 8.132859 4.516601 12.095231 2.003479 8.450943 2.039063 16.846145-2.878845 24.562225-5.584167 8.761444-14.799805 11.772247-24.249634 7.438614-12.454834-5.71167-22.343994-14.962158-31.970947-24.414856-3.659119-3.592804-6.688415-7.827011-10.452637-12.3013-6.307861 6.696655-11.223816 11.847961-16.061584 17.071609-4.294983 4.637497-8.422516 9.431671-12.766998 14.021302-8.483704 8.962402-18.173493 10.258239-28.139496 3.028137-13.195954-9.573365-26.030335-19.647019-38.971741-29.568741-8.505035-6.520477-6.715576-5.203491-12.706207.590393-4.669312 4.515915-9.148133 9.229477-13.839874 13.721237-2.120606 2.030258-2.582093 3.746018-.897065 6.441635 12.057831 19.289826 29.209137 31.793839 51.14737 37.041733 6.214721 1.486603 13.214996-.16507 19.842682-.575867 27.322143-1.69339 53.87326 1.254303 78.554473 13.955079 14.383606 7.401733 24.515259 18.815063 28.400208 34.844543 1.278442 5.274841 1.740051 10.863251 1.755371 16.310547.131897 46.989868.025818 93.980377.158936 140.970215.012512 4.42868-.980286 6.160156-5.806214 6.008453-11.468078-.360504-22.955139-.116028-35.220764-.116028 0-30.0177 0-59.762512-.000061-90.007324z" fill="#c67035"/><path d="m134.972015 431.628906c.321274-4.346161 1.240403-8.402618.64032-12.220276-1.285034-8.175476-7.793144-12.152618-16.146515-10.683532-1.270973.223571-2.585281.200744-3.824142.287964-4.053131-15.688508 7.563103-32.873139 23.878906-35.727051 14.48877-2.534302 29.025437 9.077728 30.582779 24.691375 3.069748 30.77707-11.351944 52.739106-35.935516 68.945618-18.271546 12.045349-39.025498 16.345886-60.648812 16.99115-.972442.028992-1.94931-.09021-3.720504-.181366 0-2.228943 0-4.315277 0-6.401611 0-54.817353.000015-109.634705-.000016-164.452057-.000015-12.395722-2.49691-16.178101-14.52597-19.840424-8.0775-2.459259-16.437355-3.974884-24.614266-6.127777-11.652191-3.067871-17.648037-10.562378-15.363512-20.782104 1.147576-5.133606 4.050478-10.360657 7.49701-14.40596 11.640653-13.663025 23.821207-26.869507 35.910112-40.146027 8.736343-9.59462 17.560288-19.113861 26.531609-28.488312 4.635894-4.844192 10.262443-8.836609 17.187378-5.88652 3.910743 1.666015 7.412895 5.05101 10.217048 8.400192 6.278534 7.49884 11.650711 15.773956 18.127503 23.081009 2.669799 3.012039 7.019409 4.993637 10.982452 6.289642 5.462814 1.786469 10.12796-.819946 12.698608-5.920272.634919-1.259705 1.18013-2.564591 1.840516-4.01059 13.293243 15.111404 6.428451 36.04216-13.476548 42.301254-17.208725 5.41127-37.412361-1.791382-47.839218-17.217514-2.96186-4.381958-5.521904-9.035507-8.566559-14.060181-4.850608 5.295105-9.656875 10.471879-14.383148 15.720673-4.784714 5.313706-9.42395 10.759293-14.24723 16.037155-6.107293 6.682892-5.237088 11.315583 3.41608 13.468018 10.283527 2.557953 20.557804 5.422058 30.47398 9.123566 14.167671 5.288482 19.231903 13.414611 19.237228 28.649902.017289 49.485565.006478 98.971161.006493 148.456726v6.645996c11.991852-3.792999 19.468704-11.333588 24.063934-22.538666z" fill="#cdb591"/><path d="m615 115.998886c-15.312317-.023338-30.12616.071221-44.936279-.120621-7.209595-.093383-14.332947-1.439285-19.919068-6.353584-11.560669-10.170227-9.315674-27.817337 4.55896-35.798454 9.420044-5.418678 19.538452-6.638176 30.531067-6.113915 13.646118.650811 25.984986 4.680603 37.795532 10.653168 6.867005 3.472633 13.53479 7.787506 19.324585 12.833672 8.082154 7.044105 15.26471 15.121193 22.807495 22.780502.301331.305901.350037.860489.827454 2.119232-17.098694 0-33.79425 0-50.989746 0z" fill="#fff"/><path d="m976.207397 200.864761c8.630799-1.937256 16.435608-.822647 21.44928 6.313111 5.659729 8.055313 4.065613 16.90773-.506164 25.009994-2.246277 3.980927-5.617615 7.327042-9.083069 11.726349-6.306091-4.529343-12.701477-8.18721-17.937378-13.084747-9.906128-9.265869-6.7771-24.296936 6.077331-29.964707z" fill="#fbfbfb"/></svg>