<svg enable-background="new 0 0 1024 688" viewBox="0 0 1024 688" xmlns="http://www.w3.org/2000/svg"><path d="m422.033539 543.978821c14.300537-12.810364 28.944641-14.045471 44.735168-3.296509 6.613739 4.502136 13.494965 8.554565 19.080445 14.392822 3.13443 3.276245 4.638916 6.961548 4.600616 11.66919-.180328 22.156921-.207764 44.317444.022675 66.473449.051056 4.908081-1.629822 6.733338-6.326233 6.10315-.490937-.065918-.998444-.006409-1.498261-.007691-6.987274-.017639-7.013366-.017761-7.019317-6.815979-.016388-18.659729-.41388-37.33197.163635-55.973754.280365-9.0495-2.937256-15.302674-10.156433-20.210267-3.738739-2.541626-7.605896-4.79663-11.636261-6.785339-12.447113-6.141663-25.570923-2.839416-33.700684 8.455139-.448608.62323-.576172 1.477539-.863037 2.250855 2.608124 2.51062 5.947754 2.484863 8.901276 3.379028 7.858459 2.379028 9.978302 5.078369 9.984527 13.199219.009278 12.162109.013489 24.32428.01001 36.486389-.004028 14.043396-4.784759 20.382385-18.284821 23.998047-11.219543 3.004822-22.402984 2.713745-33.470489-.82959-10.636047-3.405212-15.763641-10.361023-15.830994-21.524109-.058319-9.662781-.20227-19.330994.054352-28.987244.146973-5.528747-2.357452-8.86383-7.224853-10.664184-7.621308-2.819031-15.316773-2.803467-22.961914-.033142-5.282288 1.914001-7.23172 6.030151-7.233277 11.347656-.002106 7.143189-.000519 14.286316-.000519 21.611694 1.572968-.149597 1.343476-1.411743 1.742279-2.099426 2.719056-4.688599 6.733185-6.836609 11.067841-5.83313 4.571686 1.058289 7.808289 4.952393 8.053467 10.20636.375061 8.036133-2.948273 14.567993-8.836792 19.826599-6.353272 5.673645-14.098084 7.978577-22.38208 8.844116-2.832062.29596-4.375611-.672424-4.362-3.829712.072541-16.826416.010315-33.653442.089569-50.479797.019532-4.151916 2.515656-7.453735 4.539276-10.738586-1.296752-2.326172-3.610961-1.972901-5.375427-2.651856-5.892853-2.267517-7.368316-5.842895-4.108002-11.25824 1.445466-2.400939 3.328888-4.577026 5.230011-6.657409 5.505555-6.024597 11.04599-12.021301 16.717469-17.889099 4.328796-4.478516 7.992309-3.979859 11.270263 1.292907.790528 1.271607 1.416077 2.645264 2.199921 3.921387 3.28125 5.342041 5.090729 5.769653 10.284607 2.493652 3.540924 4.149048 3.380463 8.728333-.4263 12.166077-5.935089 5.359741-13.030853 3.206177-22.154846-6.890869-3.810944 2.197937-6.165375 5.896912-8.752106 9.239136-2.251953 2.909607.643463 3.526245 2.591858 4.378845 8.483917 3.712463 17.480469 3.359741 26.439056 3.39209 5.573151.02008 10.898926 1.419922 15.989594 3.539062 8.598999 3.579407 12.888794 10.175415 12.91806 19.490357.030335 9.662964-.040253 19.326477.027985 28.989013.052215 7.394898 2.065643 10.385743 9.167572 12.222474 6.676849 1.726806 13.542724 1.781555 20.190979-.403016 4.926117-1.618835 7.60849-5.012268 7.567383-10.470214-.09787-12.994263-.087769-25.98993-.016724-38.984497.020813-3.807862-1.790497-5.862916-5.342468-6.713746-2.426148-.581176-4.873413-1.119567-7.240326-1.893859-5.91629-1.935486-7.501831-5.784241-4.280701-11.180848 3.900238-6.534362 9.635986-11.412841 15.844971-16.266601m-82.398651 79.060913c.587005-1.545227 1.639282-3.084839 1.657745-4.636841.03186-2.684692-1.137665-4.907043-4.354828-4.998169-2.974457-.084289-3.652557 1.884155-3.535492 4.295899.148224 3.053894-.687439 6.23059.84079 9.447326 2.206848-.756225 3.747986-1.924866 5.391785-4.108215z"/><path d="m886.934692 278.314758c.159607-3.143127 1.879639-3.7276 4.145081-3.592712 17.021301 1.01355 28.991699 12.237457 28.323791 27.930572-.308227 7.240693-3.472961 11.162201-8.96289 10.637482-5.2948-.506103-8.123657-5.167847-7.213989-12.328735 3-.38501 6.286132-.767487 6.487121-5.044007.180054-3.830871-2.076843-6.868408-7.521301-8.984619 0 5.562256-.008179 10.805634.001465 16.048981.034912 18.996155.064209 37.992371.120483 56.988464.020203 6.811097 2.299317 10.173828 8.896912 12.007019 6.689941 1.858887 13.536316 1.852997 20.170898-.393402 5.895203-1.996063 8.209961-5.383789 8.240723-11.647125.059814-12.164276-.119629-24.331329.081116-36.492584.078552-4.756348-1.822937-7.853333-6.268982-8.901673-13.274414-3.129913-12.774903-12.107208-4.487427-20.397033 5.297729-5.299195 10.16864-11.022919 15.405456-16.385895 4.346802-4.451416 7.41742-4.072876 10.899353 1.03125 1.031189 1.511536 1.8667 3.155304 2.869507 4.687653 3.268494 4.994476 4.630493 5.260986 9.725464 1.834838 3.263733 1.845429 2.864075 5.04123 2.249451 7.825531-.866089 3.923859-3.867249 6.173249-7.693054 7.011536-8.0896 1.772614-12.85962-2.755157-16.620972-9.977631-4.16919 3.808411-7.751526 7.266358-10.44751 11.77298 2.293274 2.871521 5.52594 2.760956 8.260803 3.578247 9.071473 2.710816 10.783875 4.808228 10.786988 14.020386.004333 13.164429-.029724 26.328888.006469 39.493225.020874 7.605438 2.134095 10.958038 9.20398 12.909454 6.827881 1.884583 13.88092 1.853882 20.675171-.413299 4.888122-1.631073 7.536743-5.061005 7.482117-10.539307-.12793-12.829864-.14917-25.663391.025512-38.492187.055969-4.108277-1.767212-6.170624-5.49353-7.071503-2.586243-.625336-5.218018-1.135071-7.726074-1.996979-5.627808-1.93399-7.012635-5.763275-3.94336-10.916626 1.185181-1.99002 2.625183-3.872131 4.187989-5.58554 5.72583-6.277741 11.483276-12.529755 17.361694-18.664185 5.019775-5.238556 8.280762-4.760437 12.128479 1.527588.695251 1.136169 1.284058 2.339355 2.008667 3.455322 3.259033 5.019318 5.085266 5.413239 9.980225 2.213837 3.844482 4.065155 3.644226 8.748871-.528748 12.368866-6.164734 5.347748-14.246582 2.778106-21.498962-6.835755-3.80243 1.902832-8.188416 6.770569-10.336792 11.576081 2.513305 2.075622 5.750244 2.279815 8.718322 3.128723 8.179505 2.339355 10.524781 5.399475 10.523865 13.935181-.001404 12.331207.029602 24.662567-.01355 36.993621-.041809 11.943634-4.821899 18.704377-16.297241 22.149903-13.684204 4.108795-27.298706 3.770202-40.475708-2.172089-2.515198-1.134247-4.462097-1.098541-6.997864.065399-13.877868 6.370117-28.136779 6.241822-42.323425 1.302185-9.478577-3.300384-14.148498-10.398987-14.175171-20.710815-.067505-26.16156.008728-52.323517.059448-78.950623z"/><path d="m82.336365 557.40448c-12.633255 9.199951-24.411461 9.154907-36.508995-.110168-3.829556-2.932923-7.552178-6.044434-11.039364-9.372254-2.502716-2.388306-4.541456-2.28479-6.768902.057678-2.390665 2.51416-6.676165 3.776673-7.314264 7.197632-.767067 4.112366 4.33988 4.304077 6.517097 6.59906 2.808853 2.960755 4.180414 6.215821 4.158505 10.306946-.082079 15.327637-.029824 30.656128-.005764 45.984253.002517 1.603821.151834 3.207458.30442 6.220825 4.924288-4.705383 8.921351-8.5672 12.965651-12.378906 5.490955-5.17511 5.465255-5.114868 11.051777.149597 3.947788 3.720215 7.546165 7.851807 12.163246 11.04419 1.442535-2.078492.819992-4.12793.830047-6.030152.06865-12.9953.161721-25.99292-.026245-38.985779-.059921-4.141967 1.385041-5.572021 5.505127-5.45935 10.676041.29187 9.946396-1.20752 9.959366 9.981323.019516 16.827698-.124168 33.657166.097389 50.481995.062515 4.747253-1.462974 6.180786-6.260132 6.405212-6.208732.290405-10.866088-1.369141-14.794536-6.21405-2.817448-3.474732-6.447495-6.278443-9.438481-9.628418-2.554454-2.861023-4.484909-2.487549-6.937694.1156-4.225365 4.484497-8.665527 8.768738-13.06871 13.082703-2.250752 2.205139-13.094452 3.553284-15.67644 2.023865-2.011141-1.191223-1.402292-3.222107-1.405916-4.9552-.03833-18.327088-.152491-36.655945.067619-54.980591.066727-5.555237-1.347885-9.444763-6.632881-12.159363-5.520711-2.835632-6.389312-9.046448-1.747315-13.364685 7.428407-6.910217 15.352084-13.296448 23.193503-19.749695 2.640822-2.173279 5.658179-1.850952 8.276308.290405 4.120899 3.370484 8.037613 6.995728 12.221565 10.28302 7.877717 6.189453 18.379502 7.476197 25.225991 3.301758 3.676178-2.241455 5.074013-5.924316 3.336387-8.790405-1.827911-3.014954-6.061477-3.810852-9.702964-1.783447-1.003365.558654-1.938599 1.239624-3.09816 1.989318-3.490662-2.145263-4.652897-5.297546-3.804379-8.948364.883046-3.799438 3.820675-5.747619 7.58199-6.281006 7.252411-1.028381 13.598648 2.737732 16.251663 9.641297.770378 2.004638 1.255195 4.119018 1.871834 6.186218 1.78292.559509 2.832748-.805969 4.046455-1.504395 10.242935-5.893737 21.090904-6.851135 32.339203-3.859802 11.68827 3.10846 18.891106 12.507141 19.019905 25.656372.243179 24.822693.050049 49.649414.135498 74.474182.012344 3.587342-1.276321 4.974488-4.969223 5.045899-10.504242.203125-10.509796.33728-10.511871-9.942627-.0047-23.158936.011551-46.317932-.005173-69.476868-.008072-11.181213-2.881989-16.081115-10.761971-18.518554-8.653381-2.676697-18.427055.190368-23.181785 8.263488-3.250763 5.519532-6.753876 8.519043-13.459381 7.711243z"/><path d="m576.918213 428.982941c.004394-11.660767.119263-22.826142-.041931-33.987519-.059449-4.118682 1.440857-5.62387 5.582397-5.373047 7.597473.460114 14.822266 2.020447 21.465454 5.845246 2.036133 1.172272 3.869995 2.601684 5.338623 4.457611 3.601319 4.551239 3.927307 9.524383.841065 12.726593-3.191895 3.311829-10.428894 3.693939-14.382141.756287-1.989685-1.478516-3.255066-3.317017-2.963745-5.940583.324707-2.924194 2.79779-2.263122 4.579284-2.799438.592163-.178223 1.113587-.591644 1.825196-.98468-1.070252-2.877167-3.180115-3.793427-5.695374-4.149231-2.017944 1.647216-1.331787 3.827057-1.346924 5.697235-.090149 11.161529.17218 22.32962-.12146 33.483978-.124328 4.722717 2.216065 6.727173 6.164246 7.589569 8.083984 1.765778 16.220642 1.405731 24.288269-.082641 4.327209-.79831 6.292419-3.459778 6.276977-8.153656-.125854-38.323121-.124328-76.647004-.010315-114.970185.013428-4.506195-1.928955-6.799804-6.03009-7.791931-2.583496-.625061-5.233887-1.083832-7.716675-1.99292-5.524292-2.022766-6.879089-5.445923-3.984497-10.551605 3.681092-6.493073 9.45636-11.117584 15.035767-15.869385 1.010803-.86087 2.244751-1.464203 3.233581-2.345825 13.451477-11.993408 27.350159-11.490356 41.920655-1.97403 7.261474 4.742646 14.772278 9.050721 20.52008 15.742371 2.492798 2.902069 3.746949 6.074677 3.727234 10.000671-.113281 22.493622-.178222 44.989014.017761 67.481354.039002 4.484741-1.459961 6.102051-5.757263 5.551514-1.311828-.16806-2.677368-.159729-3.99292-.0094-4.020569.459382-5.125671-1.423065-5.101684-5.226959.128051-20.327301-.039978-40.656585.116882-60.98349.041931-5.438873-1.832397-9.691681-5.806885-13.203125-7.492676-6.619903-16.171386-11.08551-25.645263-14.082062-1.086853-.34378-2.398255-.703613-3.420655-.410675-8.658691 2.480835-15.689148 7.402893-21.730102 14.030732 2.414001 3.433899 5.695862 3.253509 8.438904 4.063842 8.988891 2.655457 10.801086 4.880158 10.802124 14.021607.004394 39.156647.006408 78.313293.000793 117.46994-.00116 7.735016-2.541382 11.846313-9.97168 14.177399-15.170166 4.759369-30.551391 4.675842-45.722473.102356-8.169372-2.462769-10.661133-6.667115-10.725891-15.321228-.016235-2.165802-.004944-4.331787-.007324-6.99469z"/><path d="m480.329346 89.997627c.000305 3.997734-.097107 7.499253.018799 10.993714.297119 8.95552-4.087922 15.135955-11.986054 18.378997-13.964477 5.733918-28.267151 5.78711-42.354767.33004-8.847168-3.427108-13.187164-10.256362-13.178711-19.81353.017792-20.156868.015961-40.313812-.018951-60.470653-.014557-8.392218-2.339203-11.76498-10.199219-13.508207-6.37616-1.414135-12.926819-1.548705-19.20816.739809-4.356659 1.587286-7.425446 4.4092-7.421112 9.541927.015258 18.151546.005951 36.303112.005951 55.522526 2.467743-3.51059 4.456451-6.23526 8.016662-6.968086 6.481049-1.334031 11.822388 2.798622 12.261688 9.740394.602112 9.51535-3.6763 16.707985-11.153228 22.138443-5.654297 4.106659-12.099091 6.103073-19.063416 6.719963-4.154205.367981-5.482818-1.168228-5.453522-5.318016.157654-22.321403.074372-44.644508.074097-66.967022-.00003-3.331718-.005493-6.663448-.000793-9.995159.016143-11.432814 4.296966-17.654509 15.104858-21.327967 12.55896-4.268628 25.211456-4.115437 37.743469.127591 9.952301 3.369588 14.702881 10.114128 14.734986 20.712369.062072 20.489872.00122 40.980095.036377 61.470086.012054 7.039306 2.240661 10.238494 8.761169 12.113197 6.526398 1.876388 13.151855 1.925369 19.692474-.066162 5.898072-1.795891 8.713562-5.136399 8.799347-11.24868.177643-12.65802.027314-25.320313.086731-37.9805.017395-3.705623-1.666717-5.99361-5.171264-6.96463-2.562684-.710056-5.194794-1.190445-7.721985-2.003299-6.099182-1.961804-7.631378-6.066506-4.431183-11.599934 2.025482-3.502308 4.993439-6.229393 7.693024-9.16642 4.733612-5.149935 9.437927-10.33466 14.359832-15.301344 4.416657-4.45679 7.402375-4.041607 10.837372 1.142792 1.010925 1.525764 1.851471 3.163778 2.847962 4.699848 3.13327 4.829893 4.997833 5.168907 9.549316 1.804834 3.796082 3.384072 3.698883 8.717907-.22522 12.359242-6.14975 5.706585-13.329101 3.487274-22.10498-7.142983-3.709137 3.507882-7.315399 6.988415-9.84787 11.462952 2.412994 2.874294 5.62973 2.757145 8.418701 3.571812 8.391968 2.451336 10.508606 5.153186 10.505676 13.786346-.003204 9.328758-.005737 18.657524-.008056 28.48571m-102.422028 8.128899c-3.858703 3.985321-1.45636 8.390121-1.604095 13.404709 4.700622-2.176422 6.930969-5.195252 7.098968-9.184433.112824-2.67836-1.673828-4.620796-5.494873-4.220276z"/><path d="m783.701111 329.999939c.004272-11.497833.024048-22.495728.007812-33.49353-.010925-7.433319-2.740783-11.284211-9.909973-12.775757-6.562866-1.365357-13.27655-1.520508-19.740051.734955-4.642273 1.619934-7.63208 4.924682-7.648499 10.030639-.077697 24.160065-.034423 48.320526-.01123 72.480835.000549.618317.265564 1.236359.500366 2.260651 4.457276-1.115845 6.575623-4.135956 7.23645-8.034119.480408-2.833801-.623718-5.518371-4.036865-5.732879-3.600586-.226258-3.568115-2.25467-2.921692-4.805207 1.283509-5.064758 5.675598-8.537933 10.498535-8.351013 4.88617.189392 8.654236 3.741577 9.426453 9.381439.916138 6.69104-1.524048 12.551422-5.672363 17.561554-6.433655 7.770386-15.227722 10.986359-25.007141 11.983002-3.356873.342102-4.825013-.951599-4.814148-4.489471.083618-27.160981-.008118-54.322602.095886-81.483429.027588-7.207306 3.905212-12.466584 10.178528-15.436798 15.328735-7.257721 30.963867-7.152344 46.366699-.278626 8.34082 3.722229 10.856872 11.198517 10.859558 19.779053.006287 19.829437-.007935 39.658874.01416 59.488281.010315 9.249359 3.301392 12.85202 12.494446 13.964844 6.180786.74823 12.272095.839844 18.139282-1.699982 4.091065-1.771027 6.229737-4.755798 6.213867-9.311462-.045837-13.163819-.101806-26.328675.028992-39.491333.040894-4.116974-1.934265-6.099457-5.659546-6.944001-2.269226-.514465-4.562317-.998382-6.757507-1.750427-6.449707-2.209472-7.759277-6.09259-4.065552-11.931244.885193-1.3992 1.934448-2.718017 3.051392-3.943329 5.948547-6.525787 11.896606-13.053253 17.935425-19.495147 4.72705-5.04245 8.149902-4.640564 11.871398 1.235168.801758 1.265839 1.481934 2.60965 2.301331 3.863159 3.329956 5.094239 4.778809 5.392151 9.998901 2.134888 3.74469 4.012665 3.440247 8.834168-.785034 12.433472-6.105774 5.201141-13.586242 2.765472-21.632263-7.217041-3.518494 2.513397-6.085876 5.991638-8.949036 9.124786-2.060608 2.254852-.454895 3.608887 1.764161 4.32431 3.00592.969086 6.099426 1.679993 9.07196 2.73642 4.940613 1.75589 7.328796 5.13913 7.247925 10.632324-.203613 13.827668-.040222 27.66037-.089112 41.490845-.030151 8.543884-4.035217 14.847382-11.807128 18.095306-14.493897 6.05716-29.259522 6.025788-43.730896-.058349-7.928894-3.333496-12.003907-9.786011-12.046814-18.519745-.045899-9.330811-.015564-18.661987-.018677-28.493042z"/><path d="m342.973389 311.003937c.00061 16.492096-.039429 32.48526.018249 48.478088.028137 7.799805 2.098633 10.783508 9.316193 12.635651 7.216156 1.851745 14.484588 1.908691 21.513733-1.108155 3.884063-1.666961 6.07254-4.492675 6.06546-8.867889-.02179-13.493591-.050659-26.987488.021515-40.480713.019928-3.721527-2.09018-5.371948-5.271088-6.235016-2.726318-.739715-5.536224-1.243957-8.175964-2.21463-5.065277-1.86261-6.344269-5.513641-3.825806-10.319427 1.963959-3.74765 5.094086-6.574066 7.865601-9.663239 4.559967-5.08255 9.223938-10.075256 13.949737-15.004547 4.857239-5.066406 8.003113-4.678528 11.827545 1.295105.71753 1.120789 1.311005 2.320648 2.020783 3.446808 3.389893 5.37857 5.085754 5.776672 10.330231 2.468597 3.726501 4.179383 3.424957 8.881317-.80011 12.475067-5.961914 5.071106-13.201508 2.758637-21.997101-7.381622-2.826233 3.034149-5.666046 5.990296-8.395966 9.044617-1.96643 2.200134-.890258 3.647919 1.46399 4.43277 2.836761.945678 5.778961 1.59082 8.579712 2.625488 5.889984 2.175873 7.805999 4.971588 7.821319 11.259125.032929 13.494049.008698 26.98825.001679 40.482391-.004639 8.941895-4.092408 15.465851-12.283356 18.828247-14.534393 5.966492-29.297608 5.919342-43.694275-.36322-7.620239-3.325348-11.687225-9.569122-11.663971-18.2081.055115-20.490966.018066-40.982147.008667-61.473266-.003967-8.636475-3.677978-12.895874-12.250275-13.847015-5.972931-.66269-12.011078-.992157-17.757507 1.294769-4.322174 1.720154-7.303192 4.712372-7.308716 9.717377-.026611 24.155456-.010895 48.310943.00708 72.46643.000489.641541.197541 1.28299.30423 1.932343 4.810059-1.055817 7.685455-4.710266 7.25061-9.001129-.202209-1.994904-.990997-3.878357-3.00888-4.115906-5.653443-.665467-4.247528-4.130707-2.897766-7.219574 1.747955-4.000122 5.046875-6.192169 9.505981-6.031098 4.501068.162629 7.458405 2.614502 8.806976 6.875641 2.416687 7.636048-.296905 14.258789-4.947723 19.963928-6.4664 7.932251-15.446991 11.232056-25.4534 12.073395-3.097351.260407-4.463714-.732879-4.446228-4.172241.136383-26.820923.172852-53.642944.08545-80.464142-.028046-8.602508 4.23764-14.363251 11.656585-17.57605 14.272766-6.180816 28.871674-6.042358 43.253296-.328155 8.270966 3.286255 12.215027 9.943909 12.41806 18.787903.099396 4.329132.061066 8.661468.08545 13.491394z"/><path d="m602.864258 638.444458c-4.882691-.804138-9.2724-1.793884-13.248108-4.0177-6.934631-3.878784-10.876587-9.652405-10.892517-17.783936-.019837-10.164184-.195313-20.333008.060058-30.490661.137757-5.478516-2.193664-8.94751-7.07196-10.790467-7.778198-2.938415-15.645264-2.922851-23.428162.016846-4.791565 1.809753-6.86438 5.591675-6.900268 10.548035-.053711 7.427856-.013977 14.856384-.013977 23.337951 1.276367-2.280578 1.84436-3.670105 2.732727-4.809997 2.377441-3.050537 5.353393-5.064026 9.460205-4.31482 3.937988.718323 6.60022 3.007935 7.827637 6.865113 2.430969 7.639221-.223328 14.222656-4.850403 19.98883-6.571717 8.189637-15.816345 11.26117-25.935852 12.187439-2.67804.245179-3.981629-.858825-3.969544-3.706665.071961-16.995239.067566-33.990844.07782-50.986328.002503-4.202576 3.012878-7.211914 4.480713-10.691406-1.443481-1.902405-3.514343-1.587586-5.1745-2.223938-6.148132-2.356384-7.653686-6.054138-4.131225-11.639954 4.47821-7.101501 11.157165-12.331115 16.494629-18.718383 1.811767-2.168152 3.820495-4.189576 5.878601-6.130188 3.904968-3.681946 7.283569-3.245118 10.349609 1.26062.746765 1.097473 1.310425 2.31842 1.977173 3.47174 3.705933 6.410584 5.118469 6.862122 11.143128 3.577881 3.354919 4.728455 2.856445 9.480103-1.321961 12.602112-6.513794 4.866882-13.286316 2.597839-21.337402-7.359924-4.001831 2.200561-6.395813 6.028869-9.103089 9.470031-1.466308 1.86377-.164856 3.227723 1.678406 3.693177 6.378357 1.610534 12.357117 4.599487 19.390747 3.766479 7.641052-.904846 15.264893.278748 22.553772 3.021301 9.913452 3.730164 14.358887 9.85962 14.486389 20.411622.114685 9.496276-.015258 18.9953.041138 28.492675.044556 7.517151 1.845642 10.236573 9.048279 12.309937 6.498657 1.870605 13.215942 1.829224 19.695556-.178406 6.029358-1.868103 8.038086-4.751343 8.084351-11.037414.093262-12.662842-.068054-25.327942.072815-37.989869.047241-4.239746-1.731079-6.530151-5.78894-7.368408-2.278016-.470703-4.546998-1.050903-6.756104-1.776611-6.111816-2.007752-7.556274-6.024964-4.205627-11.614075.766845-1.279236 1.65155-2.519714 2.655334-3.619873 6.287537-6.891052 12.527832-13.829468 18.977905-20.566284 4.390015-4.585205 7.80481-4.080017 11.262085 1.280334.902405 1.399109 1.672486 2.883118 2.564209 4.289429 3.249207 5.123963 4.913636 5.460938 9.92157 2.062805 3.695191 3.823914 3.424683 8.956421-.655456 12.434632-6.441834 5.491516-14.157044 2.870117-21.766297-7.57898-3.680176 2.663269-6.086304 6.499024-9.024414 9.800232-1.504333 1.690247-.71167 3.1203 1.324829 3.75061 2.542969.78711 5.143433 1.389527 7.682007 2.189515 6.783691 2.137573 9.092712 5.299194 9.10199 12.403747.016052 12.330383.012573 24.660706.008362 36.991089-.004761 14.02301-4.79535 20.406555-18.293518 24.018372-8.129883 2.175415-16.387391 2.819641-25.16272 1.151733m-58.437988-25.034424c-1.443055.08313-2.783814.565125-2.877198 2.160278-.217834 3.721436-.675842 7.485779.474549 11.432251 4.415039-1.339111 6.573242-4.289306 7.065918-8.291015.326782-2.653931-.739136-4.924194-4.663269-5.301514z"/><path d="m36.051712 377.272736c-5.034136 2.501037-10.027782 3.634826-15.233091 3.992096-2.898239.198944-4.253899-.887574-4.235207-3.981629.100672-16.663757.035992-33.328552.13966-49.992248.027039-4.346253 2.207729-7.928406 5.068483-11.252045-1.863794-2.22934-4.675722-1.671051-6.835189-2.731354-4.750922-2.332764-6.4953-5.789673-3.682515-10.035156 6.841849-10.32666 15.97111-18.715424 24.699601-27.386688 2.301624-2.28656 5.391807-1.591675 7.421096 1.101501 1.496128 1.985596 2.607048 4.256592 3.976509 6.343414 3.300366 5.029267 5.067318 5.396912 10.052384 2.202454 3.574829 3.949219 3.445576 8.673401-.330944 12.096893-6.064789 5.497864-13.945057 3.083435-22.255051-7.147491-4.014452 3.210632-6.917669 7.322571-10.641491 11.826446 6.466126 2.914368 12.362061 5.388001 18.872715 5.386292 8.501587-.002258 16.954025-.384766 25.17646 2.600342 11.26252 4.088714 15.779084 10.067199 15.885087 21.978485.083045 9.331299-.025773 18.664215.044654 27.995727.052994 7.019837 1.848435 9.665406 8.572014 11.601838 7.013748 2.02005 14.168228 2.010192 21.114075-.430115 4.699287-1.651032 7.196876-5.000488 7.149139-10.247071-.118263-12.997161-.12635-25.996582-.017891-38.993743.030274-3.628601-1.638939-5.609284-4.898773-6.532257-2.55973-.724762-5.204826-1.179291-7.717773-2.031678-5.928116-2.010711-7.372956-5.763366-4.297341-11.249756 1.047074-1.867767 2.435135-3.587646 3.881462-5.180755 5.823357-6.414429 11.658524-12.821289 17.629303-19.097779 4.815178-5.061706 8.18879-4.578643 11.816414 1.423554.689331 1.140594 1.309815 2.323761 2.021637 3.449615 3.423279 5.414368 4.93544 5.771576 10.317871 2.485444 3.619751 4.074401 3.254471 9.033203-.917877 12.459869-6.203094 5.094452-13.382538 2.72934-21.59275-7.281647-3.515755 2.533112-6.100167 5.983063-8.851509 9.230255-1.636048 1.930847-.81308 3.371491 1.467224 4.073548 2.859703.880493 5.775795 1.602356 8.582046 2.626861 5.997421 2.189484 7.847046 4.880615 7.85846 11.217987.023712 13.164856.015899 26.329804.002578 39.49469-.011154 11.009644-4.361892 17.525513-14.849937 21.079529-12.875115 4.362885-25.900993 4.280853-38.693176-.412506-9.489914-3.481842-13.946411-10.202393-13.997422-20.254669-.049057-9.665192.00615-19.330841-.044311-28.996002-.036446-6.982361-2.262917-9.986573-8.972439-11.936097-6.552853-1.904083-13.168049-1.89038-19.701466.089966-4.652603 1.410248-8.355737 4.340698-8.463546 9.395752-.301234 14.124664-.104807 28.259918-.104807 42.46518 4.672025-.922089 8.023069-4.57837 7.781988-8.413178-.254154-4.042816-2.996868-5.220886-6.51421-5.016968-1.466347-5.694061 1.51783-11.063751 6.811161-12.570068 5.165516-1.46994 10.159462 1.104797 11.790509 6.444794 2.706928 8.862426-1.016491 15.891174-6.835419 22.190216-2.290829 2.479858-5.088848 4.281067-8.448395 5.918152z"/><path d="m270.432648 123.315224c-12.814362.165504-12.815735.165504-12.820252-12.296898-.00589-16.163445-.122406-32.32811.05127-48.489643.056183-5.230465-1.644806-8.7719-6.425171-11.297802-5.650223-2.985523-6.604401-8.728302-2.061279-13.305157 7.275848-7.329843 15.370636-13.788546 23.557434-20.083549 2.702209-2.07782 5.751281-1.535985 8.312286.554716 3.609894 2.946935 7.002289 6.160904 10.621307 9.095857 6.31131 5.118275 13.204407 8.463848 21.639374 6.140595 1.5914-.438324 3.209259-.963475 4.641602-1.760155 3.49588-1.944454 5.137237-4.827267 3.274353-8.734503-1.437287-3.014597-5.747528-3.799087-9.245423-1.929262-4.451202 2.379435-6.672607 1.190558-7.238128-3.873646-.566834-5.076512 2.943481-8.961494 8.647033-9.569798 6.697327-.714295 13.233185 3.729278 15.72107 10.68842 4.929291 13.788197-5.548615 28.826431-20.720978 29.885204-8.217346.573433-15.488037-1.676158-21.841797-6.844501-3.876404-3.153206-7.691009-6.388168-11.424225-9.709145-1.831115-1.628914-3.460724-1.719001-5.280243-.148218-1.007965.870184-2.09201 1.653193-3.088318 2.53583-6.494476 5.753536-6.490112 5.759502.242646 11.111019 3.616211 2.874344 5.40921 6.486828 5.371673 11.238598-.121154 15.329239-.03482 30.66011-.028656 45.990356.000641 1.630394.000092 3.260781.000092 6.295075 5.305298-4.959862 9.934418-8.881745 14.061951-13.274887 3.295349-3.507439 5.662139-4.114617 9.197662-.153702 3.964722 4.44178 8.674652 8.218406 13.665649 12.845642 0-15.812538 0-30.9077 0-46.395687-4.81958 1.450386-6.776367 4.586918-6.912292 8.926906-.134979 4.310387 3.247589 4.791962 6.485351 5.057259 1.092377 4.954994-.593383 8.542602-4.338653 11.078834-3.288391 2.226807-6.94223 2.361931-10.39151.28154-4.405762-2.657295-5.522247-7.040474-5.0289-11.70536 1.278106-12.085712 10.597656-21.663521 23.629242-24.68467 11.825164-2.741466 12.34378-2.342231 12.349792 9.800766.009277 18.662896.005158 37.325806-.014801 55.988694-.007141 6.678474-.153198 6.379776-6.611267 6.913864-6.221405.514541-10.86618-1.316025-14.781799-6.179192-2.805512-3.484428-6.388428-6.331207-9.428589-9.642357-2.185944-2.380783-3.874756-2.439735-6.132721-.035186-3.98996 4.248901-8.216431 8.276847-12.374817 12.365844-1.405304 1.381829-2.62088 3.087204-5.279968 3.318299z"/><path d="m171.756424 62.545891c-.89328-4.027214-3.928284-4.591824-6.872437-5.269486-13.652542-3.142437-15.106521-7.835876-5.608779-18.331047 5.251907-5.80347 10.562194-11.554731 15.891616-17.287271 6.3228-6.801059 9.342331-6.486089 13.980927 1.374477.253784.430073.46878.883307.727707 1.310055 3.594223 5.923897 5.11206 6.372816 10.936737 3.243896 3.577499 4.875014 3.015457 9.43859-1.586853 12.884623-6.367844 4.768002-12.657761 2.541534-21.372635-7.870735-2.813843 3.054462-5.662094 6.008148-8.346115 9.104191-2.088974 2.409645-.913407 3.911834 1.707077 4.701557 2.865982.863716 5.804657 1.510193 8.622711 2.50365 4.91687 1.733372 7.531754 5.160679 7.503494 10.557992-.072418 13.826534.042374 27.654338-.08023 41.480197-.083405 9.404206-4.909104 15.848549-13.538743 19.044777-13.450103 4.981636-27.123703 4.895943-40.575195-.005256-9.07978-3.308319-13.452743-10.246178-13.465683-20.065171-.015144-11.494659-.160248-22.992469.069954-34.482536.095513-4.767399-2.114197-7.036102-6.378723-8.065411-2.743561-.662204-5.579826-1.157714-8.156509-2.244762-4.249154-1.792614-5.377846-5.273586-3.350388-9.428204 1.550591-3.177444 3.914688-5.788173 6.294136-8.353248 5.436432-5.860525 10.808517-11.787195 16.419083-17.477642 4.393325-4.455891 7.388092-4.028224 10.880066 1.117397.840271 1.238217 1.528946 2.578182 2.327224 3.846243 3.647553 5.794146 4.912735 6.112541 10.589707 2.706337 3.406402 4.395815 3.01065 9.215845-1.035752 12.614576-6.141494 5.158505-13.337005 2.795292-21.851532-7.515541-3.807342 3.41861-6.962532 7.285626-9.848815 11.393818 1.963203 2.885945 4.900001 2.748818 7.328079 3.436169 10.147629 2.87265 12.250747 5.29163 11.830597 15.863331-.16333 4.1096.852462 5.615932 5.14209 5.478 8.820144-.2836 17.66275-.296219 26.482101-.001167 4.567566.152802 6.067078-1.628006 5.335083-6.263809m-37.21138 38.924988c-.008255 6.122398 2.384399 10.609619 8.574631 12.438285 7.0242 2.075036 14.096664 2.104821 21.063232-.097457 5.121552-1.619027 7.91214-5.079598 7.763428-10.774422-.177735-6.805847-.112091-13.621185-.002518-20.430008.049866-3.098473-1.076828-4.59919-4.321319-4.579475-9.633759.058532-19.268586.030509-28.902314-.047822-2.99205-.02433-4.025238 1.192025-3.949234 4.22213.153916 6.136765-.070861 12.283013-.225906 19.268769z"/><path d="m696.307007 598.247559c1.480285 3.593628.914123 6.969299.982361 10.276672.271057 13.1427 11.200195 23.201233 24.266601 22.303284 5.489136-.377259 9.41803-3.085877 11.784424-7.974793 2.395874-4.949768.970703-9.45935-2.141479-13.523498-3.805237-4.969239-8.982544-8.409424-14.054078-11.908326-9.17987-6.33319-18.840942-12.05017-26.280029-20.587097-6.142517-7.048889-9.910766-14.967712-8.469726-24.63092 1.372192-9.201355 7.438476-14.43103 15.679748-17.034424 12.574158-3.97229 25.298523-3.762512 37.757324.757385 9.168213 3.32605 13.47522 9.722351 13.507569 19.398926.02948 8.831177-.029724 17.662781.031067 26.493591.01831 2.662659-.43396 4.620301-3.751099 4.454468-11.881714-.593933-27.547913-6.950439-31.337952-22.620117-.760742-3.145081-.861389-6.242065.14795-9.353027 1.462768-4.508912 4.673767-6.981079 9.268493-7.030152 4.360962-.046631 7.720581 2.2594 9.292359 6.37732 1.136291 2.977356 3.020752 6.334899-2.943665 7.083618-3.715271.46643-4.022949 6.770996-.742493 10.493164 1.101258 1.249634 2.335877 2.38385 5.153076 2.664062-.059753-8.919555 2.268433-18.133484-1.419555-26.34906-3.285156-7.318359-11.507141-7.404419-18.493897-6.93396-7.009887.472046-14.565979 1.809571-16.771301 10.046448-2.004089 7.485352 1.215515 14.037354 6.042481 19.755005 6.136047 7.268494 14.411804 11.753174 22.188842 16.870605 5.70282 3.752625 11.565064 7.241639 16.411805 12.181275 7.026733 7.16156 8.665832 15.612243 5.786132 24.878418-2.809021 9.038757-9.959289 12.619079-18.796692 14.171325-10.515991 1.846985-20.197631.420594-29.083618-5.652526-.536377-.366455-1.185058-.574463-1.795532-.821473-.117859-.047668-.301331.066895-.532593.126893-1.108764 1.213684-.562805 2.800598-.747009 4.227233-.191772 1.484986-.731445 2.687561-2.341187 2.734314-3.491638.101319-6.992797.142701-10.481201-.00238-2.194397-.091309-2.53778-1.902588-2.541137-3.643311-.028138-14.662841-.019288-29.325744-.021607-43.988586-.000488-3.2099 1.43512-4.179993 4.459656-3.002624 4.584473 1.784484 7.877685 4.873291 9.985962 9.762268z"/><path d="m180.758362 614c-.000916-7.664734-.003174-14.829468-.00148-21.994202.002548-10.828064.189911-11.384399 6.618988-19.715088-.113571-2.138244-2.009186-2.897827-3.350891-4.022766-2.723069-2.283081-4.906006-4.947143-6.553696-8.097046-2.479157-4.739563-2.003861-8.823059 2.067383-12.576721 4.038955-3.723999 7.772888-7.776611 11.706222-11.617981 4.445648-4.341613 6.580826-4.519409 11.792664-.888 3.551895 2.474792 7.046448 5.04303 10.441559 7.727661 2.100601 1.661011 3.744888 1.608704 5.587829-.363525 2.38675-2.5542 4.837235-5.072205 7.463852-7.373414 4.00354-3.507568 7.590119-3.378906 11.544983.199219 1.604874 1.451966 3.109268 3.015686 4.647782 4.540222 2.366409 2.34491 4.586776 5.064209 8.321289 2.833496 2.043014 2.534485 2.440338 5.136475 2.187713 7.842469-.611358 6.548584-6.085708 9.512817-11.841034 6.441101-3.41658-1.823425-6.168152-4.518128-9.047622-7.043274-1.354126-1.187439-2.442185-2.756836-4.523972-3.232239-3.349731 1.911926-5.236389 5.384277-7.905579 8.063904-4.358978 4.376038-7.745529 4.743042-12.760665 1.080566-3.900818-2.848755-7.796998-5.722046-11.498291-8.819763-2.666626-2.23175-4.201081-.617248-5.809144 1.194275-1.652267 1.861511-4.745803 3.345825-2.120681 6.558838 5.739792 7.025391 12.414627 11.805298 22.255935 10.698303 9.584397-1.078125 18.965256.36792 27.632828 4.774475 6.949234 3.532959 10.658859 9.369812 10.673203 17.302918.027725 15.329162-.096375 30.65979.095642 45.986633.053161 4.242371-1.169007 5.931702-5.650833 5.887207-9.670487-.09613-9.660477.112915-9.656144-9.438599.006348-13.996215.035233-27.992614-.027542-41.988586-.035827-7.987732-2.560257-10.981079-10.415329-12.749573-6.12651-1.379333-12.247543-1.366882-18.271179.425171-5.900421 1.755554-8.164566 4.689209-8.293289 10.896668-.147019 7.089843-.034027 14.185119-.034027 22.023681 1.153366-1.977783 1.711349-3.396118 2.658401-4.472046 2.836823-3.222961 6.297562-4.900146 10.678131-3.478271 4.268006 1.385437 6.549744 4.393127 6.919693 8.830627.905564 10.861695-4.312347 18.487549-13.012893 24.135315-5.281433 3.428406-11.299774 4.766602-17.455612 5.594605-3.611039.485718-5.209916-.880615-5.110871-4.672974.173935-6.660278.047653-13.32843.046677-20.493286m21.824402.953918c-1.771286-2.187988-3.939576-1.858093-6.335373-1.222717-.17955 4.462525-.745407 8.688721.338577 12.95636 5.856628-2.345947 7.571869-5.451599 5.996796-11.733643z"/><path d="m176.242111 284.24176c13.259445-13.64627 11.978424-11.244873 24.540894-2.240661.94754.679168 1.963867 1.294616 2.794861 2.098236 2.89804 2.802643 5.398269 2.471435 8.002365-.526825 2.069-2.382172 4.396057-4.559357 6.748718-6.671417 3.365997-3.021729 6.884781-3.059205 10.278671.002441 1.978104 1.784485 3.866013 3.670532 5.76387 5.541901 2.192048 2.161438 4.339051 4.392456 7.558686 2.055603 3.065429 3.301818 2.797775 6.871551 2.05159 10.246368-1.153458 5.216949-6.322251 7.015411-11.516968 4.230713-4.877777-2.614807-8.464478-6.91272-12.873276-10.362763-3.729782 2.374939-6.05748 5.914368-9.067398 8.723664-4.034225 3.765381-7.072739 4.139038-11.565124.952881-3.80185-2.696442-7.653565-5.392426-11.080735-8.528443-3.743332-3.425293-5.359085-.26242-7.709854 1.705994-2.743667 2.297424-2.368728 4.399322-.23677 6.742035 5.619308 6.174835 12.055221 10.535888 20.938354 9.388794 7.574982-.97818 14.950058.126587 22.175583 2.264557 11.34758 3.357666 16.342728 10.189941 16.341415 21.964325-.001556 14.162323.008454 28.324646-.007064 42.486969-.007691 7.006836-.028534 7.006836-7.241303 7.001464-.333237-.000244-.672638-.043304-.998764.004548-4.907883.71997-6.71431-1.117432-6.601578-6.304474.322129-14.821839.123307-29.655182.114502-44.483979-.005401-9.104156-2.900116-12.532867-11.864517-14.353332-2.792114-.567017-5.580734-1.088837-8.418732-.814575-12.97174 1.253662-17.857834 3.830169-17.251266 17.456909.621765 13.967834-.036759 27.98822.214432 41.979339.08818 4.911774-1.310349 7.260071-6.486496 6.541169-1.635743-.227173-3.329544-.108643-4.993058-.047394-2.806289.103332-3.877197-1.375763-3.874435-3.987183.017075-16.161224-.054138-32.323059.072067-48.483368.045288-5.798339 2.733719-10.553772 7.337067-14.739532-2.165802-1.951355-4.31897-3.69513-6.245133-5.661347-7.681549-7.841247-7.639343-13.425811.03891-21.089263.943131-.941346 1.873871-1.895081 3.060486-3.093354z"/><path d="m63.377945 60.482651c-7.77319-3.71212-15.451645-3.717846-23.191959-1.479218-6.113007 1.767983-8.778328 5.482811-8.810576 12.262329-.072884 15.321984-.195688 30.647255.060982 45.965172.079092 4.720207-1.212023 6.931442-6.122826 6.17482-.650724-.100265-1.330263-.010872-1.996437-.013908-6.638864-.030243-6.660158-.030495-6.666593-6.546578-.013159-13.32373-.003062-26.647491.001297-39.971237.003824-11.686615.006139-11.686615 5.873375-19.955814-2.180476-2.664292-4.206494-5.27916-6.378226-7.766823-6.029292-6.906418-5.951242-12.245094.384356-18.611296 3.641733-3.659321 7.310579-7.291675 10.949211-10.954063 3.357168-3.37909 6.824978-3.668801 10.642357-.678868 3.538303 2.771349 7.261093 5.306864 10.80587 8.070361 2.243706 1.749178 4.047153 1.732921 6.01197-.460822 2.107338-2.35287 4.384404-4.569486 6.723934-6.695297 4.563981-4.147058 7.646515-4.097664 12.166123.023255 2.091301 1.906826 4.134201 3.868211 6.263603 5.731071.863274.755211 2.085243 2.032154 2.824036 1.840206 3.629349-.942951 5.150032.469111 5.766449 3.926604.667541 3.744266.020607 7.038631-2.845131 9.548477-2.744133 2.403351-5.850861 1.907264-8.865372.348892-3.446838-1.781876-6.121612-4.570473-9.070938-7.002831-1.387062-1.14394-2.375778-2.827127-4.431705-3.317079-2.854229 1.732229-4.764641 4.488718-6.923901 6.983778-4.979633 5.754047-8.588127 6.194469-14.555363 1.681583-3.45277-2.611248-6.934429-5.191116-10.280824-7.934257-3.276284-2.685667-5.018025-.129357-7.126919 1.739708-2.225577 1.972473-2.908322 3.997219-.769964 6.416733 5.247991 5.938007 11.218437 10.373729 19.721546 9.943786 8.680793-.43893 17.286884-.228927 25.610347 2.874901 9.893647 3.689358 14.824959 10.040302 14.962151 20.64399.193909 14.98661-.032326 29.978286.087158 44.966468.030808 3.863762-1.383262 5.277321-5.283546 5.211457-11.725144-.198037-10.079521.701538-10.137406-9.694336-.07975-14.322625-.105331-28.646515.004448-42.968651.033455-4.365585-1.207573-7.833573-5.401527-10.302513z"/><path d="m531.261963 329.641174c-6.106934-8.539154-8.012573-17.937164-7.400574-27.780548.63385-10.193512 6.168396-17.524475 15.289185-21.791992 11.484741-5.373566 23.619079-6.93335 36.062378-4.194305 6.943237 1.52835 12.825195 4.891967 15.287292 12.180297 1.86554 5.522248.803894 10.530335-3.298218 14.751221-6.424072 6.609924-19.502624 7.555329-26.739013 1.860047-3.404541-2.679505-5.145935-6.11493-3.561341-10.545258 1.179871-3.298767 3.736206-4.488342 7.055237-4.40683 2.761597.067841 4.720337 1.309387 5.781006 3.894776-.408142 1.830139-2.892822 2.493866-2.479187 4.710052.396301 2.123138 1.706787 3.176147 3.776672 3.306915 2.519654.159149 4.049317-.979522 4.663392-3.506012 1.587707-6.532104-2.360596-12.894348-9.763062-14.447052-16.412842-3.442657-27.030273 4.422272-26.828064 20.227661.125977 9.84137 1.712036 18.887482 9.366394 25.883362 1.615723 1.476715 3.383423 2.703278 5.441162 3.473694 2.24353.839905 3.976319.392822 4.679627-2.103882 3.033325-10.767456 15.740051-13.439178 24.756836-10.662048 4.522949 1.393036 7.517944 4.335815 7.885559 9.240326.371032 4.950256-2.306763 8.275574-6.55658 10.222565-2.382751 1.091613-5.041016 1.885833-7.638794 2.126037-3.110168.287628-3.900146 1.758393-3.825989 4.542786.119629 4.49527.034363 8.996094.026673 13.494568-.028199 16.485687-10.422303 24.529876-26.627381 20.610901-12.216735-2.954468-18.753784-14.937775-14.650634-26.811402.355224-1.027862.897644-1.771209 1.977111-2.012176.484436-.108124.990357-.119263 1.486145-.177491 11.217408-1.317779 11.801575-.791381 11.822693 10.537232.003723 1.998321-.038635 4.008789.15802 5.992035.318238 3.207977 2.376953 4.633514 5.442444 4.65683 3.067932.023254 4.706848-1.824982 4.768494-4.66742.16626-7.65921.100403-15.323608.111633-22.985962.004212-2.881469-2.130432-2.827484-4.164001-3.113311-8.906922-1.251832-16.605713-4.745423-22.305115-12.505616m44.651672-1.295105c-1.459656 1.16214-2.622741 2.461548-2.037048 5.133423 2.731934.476776 5.517212 1.001312 8.002075-1.250732.938355-.850464 1.158264-2.148407.40863-3.149414-1.512817-2.020203-3.573852-2.035157-6.373657-.733277z"/><path d="m489.505707 276.021271c-4.55835-.508942-4.839478-3.839661-4.608795-6.955292.257415-3.475922 2.397125-5.770782 6.02066-6.328613 5.402008-.831635 10.267151 2.227264 12.119659 8.166046 2.249146 7.210174 2.130311 14.487976-1.097229 21.44043-5.000457 10.771575-18.691436 14.193206-25.778045 2.655456-.497711-.810303-.869141-1.843719-2.412018-2.008423-2.092957 2.576111-3.392029 5.751099-4.833496 8.880738 1.801514 2.948455 4.934509 2.802795 7.518188 3.525909 9.878998 2.764923 11.779084 5.148285 11.779236 15.455353.000275 18.15802.025604 36.31607.009827 54.47409-.005005 5.760498-.753571 6.597443-6.323761 5.822388-11.944092-1.661987-22.087586-6.25708-27.556427-17.957184-1.977905-4.231415-2.417481-8.646728-1.512879-13.166412.909974-4.546539 4.66034-7.578919 9.221589-7.707062 4.388122-.123321 9.072204 3.339447 9.925048 7.638306.359864 1.814087 1.043427 3.952728-1.423706 5.211303-6.347656 3.238129-6.855865 7.525116-1.479858 12.292908.717316.636139 1.655243 1.023529 2.494232 1.528046 1.92749-1.543671 1.184754-3.519654 1.193543-5.201325.070282-13.492462-.14383-26.989013.121368-40.476562.097595-4.965149-1.997467-7.439484-6.51477-8.452973-.323761-.072631-.632416-.210083-.953644-.296783-11.115631-2.999908-12.296021-5.780151-6.454102-15.542603 3.5914-6.001495 7.194977-12.000335 10.979706-17.880249 4.253387-6.607879 8.322082-6.448059 12.167999.300263 1.313294 2.304382 2.193329 4.887268 4.260651 6.705932 2.373413 2.087922 4.976684 2.000855 7.310272.193604 3.433045-2.658844 3.297882-6.273743 1.99054-9.975739-1.027283-2.908966-2.947235-3.899414-6.163788-2.341552z"/><path d="m151.822113 168.612518c3.802551-.958358 5.104309-3.020111 4.921127-6.648254-.276947-5.485153-.240112-11.00415.005082-16.4935.370315-8.290497 6.604705-14.038833 15.003799-13.198288 0 8.660187.247848 17.442856-.102432 26.201599-.180634 4.516556-.120789 7.456147 5.734726 7.747635 4.831024.240494 9.458343 2.147537 11.060714 7.799698 1.633439 5.761673-.081787 10.598373-4.115844 14.576538-6.946473 6.850266-15.798569 8.010742-25.014222 7.6801-2.615921-.093872-2.588806-2.165161-2.601394-4.021332-.033753-4.976532-.011505-9.953461-.011505-15.232544-4.599106.121811-6.354401 3.318344-8.221787 6.075104-1.672058 2.468429-2.728637 5.346939-4.328674 7.872253-4.839462 7.638031-15.309479 7.82605-19.669731-.126831-4.973976-9.072266-5.111061-18.777801-.827187-28.345764.46389-1.036118 1.254662-1.982819 2.070557-2.792984 1.926117-1.912552 4.224197-3.953034 6.978683-3.015869 2.906464.988861 1.449463 4.058777 1.543152 6.193344.219071 4.99089.043244 9.997803.149964 14.99559.04367 2.045532.547409 4.215012 2.709625 4.937927 2.556411.854721 3.456833-1.472519 4.416488-3.128845 2.535569-4.376297 5.320725-8.479523 10.298859-11.075577m19.732864 11.854859c.159378 1.894088-.748779 3.926315.81395 5.899505 4.171417-1.426925 7.221893-4.1996 6.6819-8.58461-.389664-3.164199-3.636215-3.769378-6.95723-2.973983-.161087 1.74765-.310012 3.363143-.53862 5.659088z"/><path d="m694.413269 501.488098c.258423 11.697632 4.818543 14.193726 20.263306 11.502747.874695 7.446777-6.612549 13.919311-14.951783 12.925354-11.031127-1.314759-17.946167-9.042359-18.078002-20.20224-.140931-11.930756 7.652526-21.189209 19.272094-23.001953 4.665833-.727845 9.362366-.71341 13.856751.478363 3.484192.92395 5.166198-.120636 6.690246-3.120453 3.498841-6.886811 8.904541-11.579987 16.703247-12.959168 6.092164-1.077392 12.24939 2.302094 14.51648 7.79538-1.72522 1.768616-4.029663 1.157532-6.09906 1.377838-7.835388.834381-11.930908 5.148926-12.35791 12.984375-.162476 2.98114-.431336 5.969482-.886658 8.918274-.505005 3.270721-1.73114 6.260376-5.494446 6.861603-3.491089.557678-5.500915-1.734223-7.209472-4.357086-.906556-1.391694-1.723145-2.876038-2.820435-4.103943-7.63385-8.541809-19.448608-6.239807-23.404358 4.900909z"/><g fill="#d2691e"><path d="m421.683472 282.000488c.005981-5.329803.148529-10.164612-.021881-14.988342-.15799-4.470612 2.871429-4.211853 5.717285-4.06955 2.907348.145478 6.870056-1.182312 6.880218 4.012574.017884 9.160217.019074 18.320465.016815 27.480713-.006561 26.814727-.005279 53.629486-.038391 80.444183-.007019 5.675964-6.016174 8.938019-10.982574 5.966888-2.358673-1.411132-1.502625-3.877319-1.506775-5.910675-.06308-30.811889-.055573-61.623901-.064697-92.935791z"/><path d="m287.280151 598c-.055603 11.818237-.157928 23.136475-.14508 34.454651.004608 4.063782-1.766419 6.160095-5.880341 6.448303-4.860382.340576-6.415832-.783569-6.425567-5.799499-.06897-35.62024.007873-71.240906-.107209-106.860901-.018341-5.672669 3.616394-5.215271 7.379212-5.453553 4.424286-.280334 5.251953 2.003907 5.236114 5.80304-.098694 23.635681-.054931 47.271912-.057129 71.407959z"/><path d="m226.270538 10.202457c-.015503 32.590504-.026535 64.703206-.064834 96.815884-.00296 2.49086.011261 5.011673-.344055 7.466225-.857209 5.921699-3.890564 8.325348-9.603119 7.916366-1.403244-.100464-2.077805-1.019027-2.265931-2.251678-.199646-1.307991-.270996-2.646828-.271789-3.972267-.021301-35.274094-.000519-70.548256-.076233-105.822215-.007065-3.291421.509201-5.775275 4.49295-5.331805 3.334412.371189 8.400483-1.988769 8.133011 5.17949z"/></g><path d="m193.919678 519.44458c-6.357285-.81543-10.758942-3.548157-12.525498-9.579895-1.796432-6.133575-.451873-11.575958 4.066376-16.040497 6.876495-6.794708 15.617477-7.597931 24.603485-7.026733 16.315048 1.037048 31.767487 13.116211 36.892014 28.669342.349792 1.061645.439483 2.208984.876083 4.504211-18.135635-.176758-35.801193.447876-53.91246-.526428m.85852-11.960022c1.864746 3.098816 5.077637 3.812775 8.197891 4.005219 5.310959.327575 10.655686.256408 15.981308.135528 2.720032-.061706 5.63057.78357 8.131958-.889435-.879852-10.440033-17.783676-19.087921-29.247406-12.574981-3.310394 1.880737-4.23439 4.961853-3.063751 9.323669z"/><path d="m462.16748 262.144836c-2.458038-.179596-4.440887-.338226-6.419372-.539917-5.933807-.605011-10.455414-3.103759-12.300018-9.1949-1.967408-6.496567-.604859-12.208435 4.30957-16.865311 5.519287-5.230011 12.48056-6.7276 19.780212-6.794983 18.353394-.169449 34.475891 10.906845 40.975281 27.978974.526489 1.382934 1.233612 2.734131.320831 5.417389-15.153106 0-30.671234 0-46.666504-.001252m-3.959014-10.85205c9.970611 4.826324 20.356689 1.347168 31.248352 2.439773-1.853028-7.83992-6.602875-11.761612-12.619294-14.05246-6.065582-2.30957-12.424224-2.754608-18.010162 1.446-3.449707 2.594192-3.647797 6.074691-.618896 10.166687z"/><path d="m825.114746 227.748383c-5.191345-1.434967-4.73053-4.359894-2.591797-7.677567 2.456482-3.810669 5.95697-5.781235 10.55542-5.333313 5.048828.491791 8.078308 3.675125 9.931641 8.072952 5.091919 12.082825-.412415 26.656754-12.252991 32.253205-9.59259 4.533966-19.417419 4.507873-29.018677.229614-10.017517-4.463791-14.48584-15.635727-10.431213-24.968185 2.582092-5.943223 8.810486-9.167908 14.654053-7.636841 3.471191.909469 5.19757 3.395782 6.121704 6.614853.91217 3.177459-1.254822 4.275085-3.529358 5.659576-4.064881 2.474274-4.34961 7.326828-.943909 11.132614 4.665894 5.21402 14.957031 5.07193 19.827637-.273758 4.939758-5.421615 4.100464-12.945617-2.32251-18.07315z"/></svg>