<svg version="1.1" id="Layer_1" xmlns="http://www.w3.org/2000/svg" xmlns:xlink="http://www.w3.org/1999/xlink" x="0px" y="0px"
	 width="100%" viewBox="0 0 412 864" enable-background="new 0 0 412 864" xml:space="preserve">
<path fill="#FFFFFF" opacity="1.000000" stroke="none" 
	d="
M1.000000,283.000000 
	C1.000000,188.666672 1.000000,94.833336 1.000000,1.000000 
	C138.333328,1.000000 275.666656,1.000000 413.000000,1.000000 
	C413.000000,289.000000 413.000000,577.000000 413.000000,865.000000 
	C275.666656,865.000000 138.333328,865.000000 1.000000,865.000000 
	C1.000000,671.166687 1.000000,477.333344 1.000000,283.000000 
M105.276939,647.817444 
	C109.735809,647.280334 114.250061,647.023804 118.643776,646.156616 
	C135.906570,642.749451 143.821869,633.086243 143.828400,615.583191 
	C143.849182,559.924500 143.836105,504.265839 143.836105,448.607147 
	C143.836105,446.839172 143.836105,445.071167 143.836105,443.317474 
	C192.915344,443.317474 241.475586,443.317474 290.017578,443.317474 
	C290.017578,462.775269 290.017578,481.917908 290.017578,501.548462 
	C287.460907,501.706909 285.000183,501.885834 282.536652,502.007965 
	C260.391632,503.105896 243.910385,517.364075 239.727905,539.101074 
	C234.052399,568.597534 240.379959,595.913696 254.844788,621.724060 
	C259.168945,629.439941 265.158600,635.599243 272.842316,639.977722 
	C288.933746,649.147400 306.200500,649.511414 323.773895,646.137268 
	C341.265991,642.778748 348.829407,633.344421 348.831421,615.553406 
	C348.841614,525.066406 348.787292,434.579315 348.922180,344.092499 
	C348.933868,336.242950 346.178162,330.176636 340.164764,325.516815 
	C337.152283,323.182404 333.928009,321.042908 330.568176,319.248444 
	C314.725128,310.786682 297.537201,306.179657 280.213226,301.998230 
	C277.413300,301.322449 274.623596,300.604370 271.451904,299.811523 
	C274.801147,292.929993 277.676544,286.558411 280.964020,280.407104 
	C283.841888,275.022278 288.849579,272.301971 294.691040,273.667206 
	C301.572754,275.275574 308.222412,277.971649 314.866516,280.477570 
	C323.098389,283.582397 331.098633,287.339630 339.423676,290.149078 
	C348.935974,293.359161 358.376617,292.222687 366.568634,286.328369 
	C382.909698,274.570679 389.029022,257.170074 392.731140,237.877579 
	C390.709229,238.120972 389.408783,238.234055 388.123016,238.439072 
	C376.735046,240.254913 365.931030,238.935745 355.951935,232.716934 
	C349.878204,228.931885 343.885925,224.952042 337.528839,221.701553 
	C329.124329,217.404175 320.540649,213.374298 311.762970,209.917572 
	C305.480621,207.443542 298.860443,207.926544 293.257446,212.186401 
	C289.041290,215.391891 284.825134,218.789459 281.359955,222.757355 
	C266.701599,239.542282 255.332626,258.528778 245.497833,278.428955 
	C239.534088,290.496246 234.336319,302.906189 231.909912,316.614471 
	C233.805588,317.041077 235.579330,317.346191 237.297806,317.842651 
	C246.854889,320.603455 256.733551,322.603363 265.867523,326.393219 
	C279.237122,331.940460 289.770813,340.811646 290.049194,356.895050 
	C290.369232,375.385620 290.124634,393.886017 290.095062,412.382111 
	C290.094391,412.805664 289.733124,413.228638 289.582062,413.559814 
	C241.004028,413.559814 192.582993,413.559814 143.836105,413.559814 
	C143.836105,411.489288 143.836105,409.680023 143.836105,407.870758 
	C143.836105,386.873779 143.659683,365.874603 143.917450,344.880798 
	C144.030502,335.673615 140.322250,329.046997 132.954102,323.832642 
	C121.331116,315.607178 108.084007,311.200134 94.700317,307.167084 
	C85.518227,304.400146 76.150803,302.248230 66.518784,299.730591 
	C69.551102,293.257629 72.137497,286.924255 75.415733,280.971863 
	C78.563896,275.255615 83.800919,272.052521 90.389145,273.742706 
	C97.089615,275.461609 103.569633,278.101349 110.058334,280.568878 
	C118.280861,283.695679 126.261414,287.537750 134.624298,290.197174 
	C145.914215,293.787384 156.361084,291.426971 165.272842,283.437042 
	C178.686493,271.410858 184.309647,255.540283 187.729324,238.216873 
	C186.621414,238.129044 185.945938,237.919144 185.345322,238.050781 
	C170.408096,241.324707 157.398407,237.170700 144.644379,229.187531 
	C133.290329,222.080627 121.118462,216.163391 108.923599,210.556091 
	C100.217896,206.553131 91.627884,208.323639 84.339882,214.808914 
	C81.361717,217.459061 78.291046,220.087799 75.749619,223.132874 
	C58.562317,243.726044 44.947552,266.553894 34.508972,291.205444 
	C31.075235,299.314484 28.972778,307.987305 26.527462,315.577057 
	C38.339928,319.211609 49.433952,321.732697 59.801613,326.013153 
	C77.741486,333.419830 85.523201,343.423950 85.311180,363.260315 
	C84.839233,407.415588 85.163895,451.579376 85.163895,495.739716 
	C85.163895,497.538422 85.163895,499.337128 85.163895,501.562042 
	C82.161476,501.731262 79.516151,501.756653 76.901016,502.050598 
	C68.563965,502.987579 60.547916,504.978394 53.419342,509.667511 
	C39.286438,518.963928 34.518433,533.301514 33.075062,548.986572 
	C31.406725,567.116272 33.783970,584.908508 40.359215,601.944458 
	C44.979660,613.915649 50.043655,625.735596 60.108124,634.454224 
	C72.854362,645.496033 88.003792,648.609375 105.276939,647.817444 
M204.254089,50.361069 
	C182.598679,46.640335 160.944778,46.104038 139.383987,50.888428 
	C121.133255,54.938309 105.430603,63.126175 95.320023,79.669312 
	C86.287476,94.448547 84.153496,110.682663 85.801659,127.585220 
	C87.453087,144.521255 97.089569,155.343414 112.963760,159.978806 
	C121.784576,162.554565 131.198410,164.269989 140.357651,164.326767 
	C200.831207,164.701538 261.308228,164.529694 321.784088,164.494034 
	C324.935760,164.492172 328.152618,164.443756 331.227844,163.845200 
	C347.935791,160.593170 349.021149,155.989716 348.940765,143.794525 
	C348.677216,103.812210 348.841766,63.827065 348.841766,23.843006 
	C348.841766,22.051641 348.841766,20.260277 348.841766,18.277147 
	C335.561676,18.277147 322.690063,18.277147 309.263245,18.277147 
	C309.263245,45.721138 309.263245,72.885696 309.263245,100.535583 
	C307.527130,99.538292 306.367767,98.958923 305.298401,98.244728 
	C293.118195,90.109886 281.318817,81.326447 268.696960,73.949364 
	C248.968140,62.418480 227.693130,54.542019 204.254089,50.361069 
M311.584625,838.356628 
	C323.875885,838.356628 336.167114,838.356628 349.030457,838.356628 
	C349.030457,836.129456 349.030426,834.346191 349.030426,832.562988 
	C349.030426,808.907410 349.034821,785.251892 349.029175,761.596313 
	C349.024292,741.272644 349.131714,720.947815 348.951019,700.625671 
	C348.839569,688.093811 342.368225,680.174805 330.098785,677.961426 
	C324.438843,676.940369 318.500488,676.774597 312.743134,677.123779 
	C300.506287,677.866150 292.525421,684.383789 290.533142,695.654785 
	C288.413666,707.645203 290.567535,719.230286 301.723022,725.191467 
	C303.181854,725.971008 304.260193,728.842834 304.268738,730.751099 
	C304.420319,764.567871 304.378632,798.385498 304.378632,832.202942 
	C304.378632,834.119385 304.378632,836.035828 304.378632,838.356995 
	C306.995514,838.356995 308.803223,838.356995 311.584625,838.356628 
z"/>
<path fill="#020202" opacity="1.000000" stroke="none" 
	d="
M104.800827,647.838379 
	C88.003792,648.609375 72.854362,645.496033 60.108124,634.454224 
	C50.043655,625.735596 44.979660,613.915649 40.359215,601.944458 
	C33.783970,584.908508 31.406725,567.116272 33.075062,548.986572 
	C34.518433,533.301514 39.286438,518.963928 53.419342,509.667511 
	C60.547916,504.978394 68.563965,502.987579 76.901016,502.050598 
	C79.516151,501.756653 82.161476,501.731262 85.163895,501.562042 
	C85.163895,499.337128 85.163895,497.538422 85.163895,495.739716 
	C85.163895,451.579376 84.839233,407.415588 85.311180,363.260315 
	C85.523201,343.423950 77.741486,333.419830 59.801613,326.013153 
	C49.433952,321.732697 38.339928,319.211609 26.527462,315.577057 
	C28.972778,307.987305 31.075235,299.314484 34.508972,291.205444 
	C44.947552,266.553894 58.562317,243.726044 75.749619,223.132874 
	C78.291046,220.087799 81.361717,217.459061 84.339882,214.808914 
	C91.627884,208.323639 100.217896,206.553131 108.923599,210.556091 
	C121.118462,216.163391 133.290329,222.080627 144.644379,229.187531 
	C157.398407,237.170700 170.408096,241.324707 185.345322,238.050781 
	C185.945938,237.919144 186.621414,238.129044 187.729324,238.216873 
	C184.309647,255.540283 178.686493,271.410858 165.272842,283.437042 
	C156.361084,291.426971 145.914215,293.787384 134.624298,290.197174 
	C126.261414,287.537750 118.280861,283.695679 110.058334,280.568878 
	C103.569633,278.101349 97.089615,275.461609 90.389145,273.742706 
	C83.800919,272.052521 78.563896,275.255615 75.415733,280.971863 
	C72.137497,286.924255 69.551102,293.257629 66.518784,299.730591 
	C76.150803,302.248230 85.518227,304.400146 94.700317,307.167084 
	C108.084007,311.200134 121.331116,315.607178 132.954102,323.832642 
	C140.322250,329.046997 144.030502,335.673615 143.917450,344.880798 
	C143.659683,365.874603 143.836105,386.873779 143.836105,407.870758 
	C143.836105,409.680023 143.836105,411.489288 143.836105,413.559814 
	C192.582993,413.559814 241.004028,413.559814 289.582062,413.559814 
	C289.733124,413.228638 290.094391,412.805664 290.095062,412.382111 
	C290.124634,393.886017 290.369232,375.385620 290.049194,356.895050 
	C289.770813,340.811646 279.237122,331.940460 265.867523,326.393219 
	C256.733551,322.603363 246.854889,320.603455 237.297806,317.842651 
	C235.579330,317.346191 233.805588,317.041077 231.909912,316.614471 
	C234.336319,302.906189 239.534088,290.496246 245.497833,278.428955 
	C255.332626,258.528778 266.701599,239.542282 281.359955,222.757355 
	C284.825134,218.789459 289.041290,215.391891 293.257446,212.186401 
	C298.860443,207.926544 305.480621,207.443542 311.762970,209.917572 
	C320.540649,213.374298 329.124329,217.404175 337.528839,221.701553 
	C343.885925,224.952042 349.878204,228.931885 355.951935,232.716934 
	C365.931030,238.935745 376.735046,240.254913 388.123016,238.439072 
	C389.408783,238.234055 390.709229,238.120972 392.731140,237.877579 
	C389.029022,257.170074 382.909698,274.570679 366.568634,286.328369 
	C358.376617,292.222687 348.935974,293.359161 339.423676,290.149078 
	C331.098633,287.339630 323.098389,283.582397 314.866516,280.477570 
	C308.222412,277.971649 301.572754,275.275574 294.691040,273.667206 
	C288.849579,272.301971 283.841888,275.022278 280.964020,280.407104 
	C277.676544,286.558411 274.801147,292.929993 271.451904,299.811523 
	C274.623596,300.604370 277.413300,301.322449 280.213226,301.998230 
	C297.537201,306.179657 314.725128,310.786682 330.568176,319.248444 
	C333.928009,321.042908 337.152283,323.182404 340.164764,325.516815 
	C346.178162,330.176636 348.933868,336.242950 348.922180,344.092499 
	C348.787292,434.579315 348.841614,525.066406 348.831421,615.553406 
	C348.829407,633.344421 341.265991,642.778748 323.773895,646.137268 
	C306.200500,649.511414 288.933746,649.147400 272.842316,639.977722 
	C265.158600,635.599243 259.168945,629.439941 254.844788,621.724060 
	C240.379959,595.913696 234.052399,568.597534 239.727905,539.101074 
	C243.910385,517.364075 260.391632,503.105896 282.536652,502.007965 
	C285.000183,501.885834 287.460907,501.706909 290.017578,501.548462 
	C290.017578,481.917908 290.017578,462.775269 290.017578,443.317474 
	C241.475586,443.317474 192.915344,443.317474 143.836105,443.317474 
	C143.836105,445.071167 143.836105,446.839172 143.836105,448.607147 
	C143.836105,504.265839 143.849182,559.924500 143.828400,615.583191 
	C143.821869,633.086243 135.906570,642.749451 118.643776,646.156616 
	C114.250061,647.023804 109.735809,647.280334 104.800827,647.838379 
M68.280472,594.090332 
	C72.190269,599.964783 77.323227,603.766846 84.891739,603.789062 
	C84.891739,579.545593 84.891739,555.313965 84.891739,531.079407 
	C73.201103,531.229248 65.590576,536.695312 63.401207,547.585144 
	C60.255257,563.233093 61.179199,578.687073 68.280472,594.090332 
M274.676575,595.750732 
	C278.227814,601.225159 283.435760,603.537170 289.833069,603.833862 
	C289.833069,579.456604 289.833069,555.247986 289.833069,531.032471 
	C277.787445,531.375732 270.678101,536.984436 268.209961,548.185974 
	C267.428986,551.730347 266.913300,555.424561 266.955078,559.042236 
	C267.099152,571.520630 267.035370,584.098328 274.676575,595.750732 
z"/>
<path fill="#040404" opacity="1.000000" stroke="none" 
	d="
M204.683197,50.413960 
	C227.693130,54.542019 248.968140,62.418480 268.696960,73.949364 
	C281.318817,81.326447 293.118195,90.109886 305.298401,98.244728 
	C306.367767,98.958923 307.527130,99.538292 309.263245,100.535583 
	C309.263245,72.885696 309.263245,45.721138 309.263245,18.277147 
	C322.690063,18.277147 335.561676,18.277147 348.841766,18.277147 
	C348.841766,20.260277 348.841766,22.051641 348.841766,23.843006 
	C348.841766,63.827065 348.677216,103.812210 348.940765,143.794525 
	C349.021149,155.989716 347.935791,160.593170 331.227844,163.845200 
	C328.152618,164.443756 324.935760,164.492172 321.784088,164.494034 
	C261.308228,164.529694 200.831207,164.701538 140.357651,164.326767 
	C131.198410,164.269989 121.784576,162.554565 112.963760,159.978806 
	C97.089569,155.343414 87.453087,144.521255 85.801659,127.585220 
	C84.153496,110.682663 86.287476,94.448547 95.320023,79.669312 
	C105.430603,63.126175 121.133255,54.938309 139.383987,50.888428 
	C160.944778,46.104038 182.598679,46.640335 204.683197,50.413960 
M286.227783,128.235962 
	C279.721771,124.038414 273.233398,119.813286 266.706848,115.647934 
	C232.356613,93.725143 194.481125,88.560783 154.937424,93.214821 
	C140.667404,94.894310 130.944946,103.202362 129.452835,116.886963 
	C128.032104,129.916718 132.477005,135.156097 145.599213,135.157028 
	C193.576248,135.160446 241.553299,135.158386 289.530334,135.158386 
	C291.118134,135.158386 292.705902,135.158386 295.800537,135.158386 
	C291.991760,132.432465 289.388794,130.569519 286.227783,128.235962 
z"/>
<path fill="#C57035" opacity="1.000000" stroke="none" 
	d="
M311.097778,838.356812 
	C308.803223,838.356995 306.995514,838.356995 304.378632,838.356995 
	C304.378632,836.035828 304.378632,834.119385 304.378632,832.202942 
	C304.378632,798.385498 304.420319,764.567871 304.268738,730.751099 
	C304.260193,728.842834 303.181854,725.971008 301.723022,725.191467 
	C290.567535,719.230286 288.413666,707.645203 290.533142,695.654785 
	C292.525421,684.383789 300.506287,677.866150 312.743134,677.123779 
	C318.500488,676.774597 324.438843,676.940369 330.098785,677.961426 
	C342.368225,680.174805 348.839569,688.093811 348.951019,700.625671 
	C349.131714,720.947815 349.024292,741.272644 349.029175,761.596313 
	C349.034821,785.251892 349.030426,808.907410 349.030426,832.562988 
	C349.030426,834.346191 349.030457,836.129456 349.030457,838.356628 
	C336.167114,838.356628 323.875885,838.356628 311.097778,838.356812 
z"/>
<path fill="#FDFDFD" opacity="1.000000" stroke="none" 
	d="
M68.069458,593.785034 
	C61.179199,578.687073 60.255257,563.233093 63.401207,547.585144 
	C65.590576,536.695312 73.201103,531.229248 84.891739,531.079407 
	C84.891739,555.313965 84.891739,579.545593 84.891739,603.789062 
	C77.323227,603.766846 72.190269,599.964783 68.069458,593.785034 
z"/>
<path fill="#FDFDFD" opacity="1.000000" stroke="none" 
	d="
M274.443268,595.468872 
	C267.035370,584.098328 267.099152,571.520630 266.955078,559.042236 
	C266.913300,555.424561 267.428986,551.730347 268.209961,548.185974 
	C270.678101,536.984436 277.787445,531.375732 289.833069,531.032471 
	C289.833069,555.247986 289.833069,579.456604 289.833069,603.833862 
	C283.435760,603.537170 278.227814,601.225159 274.443268,595.468872 
z"/>
<path fill="#FFFFFF" opacity="1.000000" stroke="none" 
	d="
M286.506775,128.471268 
	C289.388794,130.569519 291.991760,132.432465 295.800537,135.158386 
	C292.705902,135.158386 291.118134,135.158386 289.530334,135.158386 
	C241.553299,135.158386 193.576248,135.160446 145.599213,135.157028 
	C132.477005,135.156097 128.032104,129.916718 129.452835,116.886963 
	C130.944946,103.202362 140.667404,94.894310 154.937424,93.214821 
	C194.481125,88.560783 232.356613,93.725143 266.706848,115.647934 
	C273.233398,119.813286 279.721771,124.038414 286.506775,128.471268 
z"/>
</svg>