<svg version="1.1" id="Layer_1" xmlns="http://www.w3.org/2000/svg" xmlns:xlink="http://www.w3.org/1999/xlink" x="0px" y="0px"
	 width="100%" viewBox="0 0 1398 758" enable-background="new 0 0 1398 758" xml:space="preserve">
<path fill="#FEFEFE" opacity="1.000000" stroke="none" 
	d="
M919.000000,759.000000 
	C612.702087,759.000000 306.904144,759.000000 1.053101,759.000000 
	C1.053101,506.397980 1.053101,253.795959 1.053101,1.096972 
	C466.881409,1.096972 932.762878,1.096972 1398.822144,1.096972 
	C1398.822144,253.666565 1398.822144,506.333282 1398.822144,759.000000 
	C1239.129028,759.000000 1079.314575,759.000000 919.000000,759.000000 
M1034.404907,413.999817 
	C1024.585205,413.474609 1017.872681,419.281738 1011.536377,425.524170 
	C995.747559,441.079254 980.108215,456.785980 964.397522,472.420410 
	C963.215088,473.597046 961.943176,474.683685 960.167725,476.312225 
	C960.167725,389.551514 960.136597,303.896484 960.265686,218.241730 
	C960.271729,214.248184 958.895569,212.119690 955.738831,209.867813 
	C943.976135,201.476761 932.378845,192.841415 920.954956,183.993744 
	C915.858643,180.046768 915.381165,174.569641 917.526428,168.632477 
	C921.017334,158.971375 927.219727,151.303268 934.584351,144.371033 
	C940.592224,138.715897 947.382874,137.208420 954.725342,140.879578 
	C961.245667,144.139679 967.523804,147.931595 973.702393,151.817078 
	C983.837524,158.190567 993.406128,165.574875 1003.921631,171.212280 
	C1031.474731,185.983536 1061.375244,189.751022 1092.108765,187.446716 
	C1109.209595,186.164536 1125.591675,181.756271 1139.843750,171.564255 
	C1144.022827,168.575684 1147.456299,164.280121 1151.958740,162.054443 
	C1170.589722,152.844620 1189.271973,143.666885 1208.370850,135.495148 
	C1227.486816,127.316116 1246.526367,128.915771 1264.266113,140.003540 
	C1273.289673,145.643555 1281.767212,152.153870 1290.528076,158.218155 
	C1305.906982,168.863495 1312.229614,183.415100 1312.166504,202.167145 
	C1311.818481,305.655853 1312.000000,409.146332 1312.000000,512.636230 
	C1312.000000,514.387695 1312.000000,516.139221 1312.000000,517.651978 
	C1331.905884,517.651978 1351.136597,517.651978 1370.493896,517.651978 
	C1370.493896,515.306946 1370.493896,513.309753 1370.493896,511.312500 
	C1370.493896,410.988983 1370.506836,310.665466 1370.470093,210.341949 
	C1370.467041,202.014771 1370.504761,193.658783 1369.867920,185.366516 
	C1368.423462,166.561691 1363.026123,148.952789 1350.824585,134.271011 
	C1332.396973,112.097656 1308.959961,96.194641 1282.823486,84.824203 
	C1265.907471,77.465034 1247.513062,75.556664 1229.707642,82.367653 
	C1216.862549,87.281273 1204.438232,93.432060 1192.205200,99.763451 
	C1183.137451,104.456696 1174.678955,110.327126 1165.888184,115.710381 
	C1165.606201,115.057571 1165.396118,114.783470 1165.379028,114.497864 
	C1165.240356,112.169411 1165.148804,109.838219 1165.021973,107.508995 
	C1164.060669,89.839996 1160.583252,72.790970 1151.243286,57.506756 
	C1137.335327,34.747173 1117.768677,20.808022 1090.288208,20.080772 
	C1080.908325,19.832537 1071.480103,20.451572 1063.088501,25.121223 
	C1049.828491,32.499935 1047.090576,53.987938 1057.433594,66.781296 
	C1064.059448,74.976891 1073.172607,77.819626 1083.091187,78.001030 
	C1099.555298,78.302139 1114.105469,82.797684 1126.213135,94.499741 
	C1138.848145,106.711441 1139.932739,128.752701 1127.095215,140.750244 
	C1115.263184,151.808105 1099.710938,155.073120 1085.204956,149.884689 
	C1069.596313,144.301834 1055.070557,135.215225 1040.806396,126.461151 
	C1019.257568,113.236450 998.607544,98.548233 977.074158,85.296730 
	C961.355591,75.623657 957.413513,76.059784 943.210266,87.946358 
	C920.014404,107.358810 899.676514,129.670761 880.700439,153.139969 
	C868.282410,168.498337 869.713013,189.344955 883.223206,203.683914 
	C888.019409,208.774307 892.939331,213.777069 898.135559,218.449738 
	C900.852966,220.893280 901.923828,223.328232 901.917786,227.012054 
	C901.802063,297.504974 901.822693,367.998138 901.839111,438.491241 
	C901.843262,456.321869 901.718384,474.156311 902.043335,491.981934 
	C902.322510,507.292633 912.071594,517.131470 927.421631,517.804993 
	C948.045776,518.709839 966.020447,512.529297 980.786560,497.581940 
	C998.234924,479.919464 1015.937073,462.507721 1034.605713,443.915009 
	C1052.057495,461.839294 1069.637329,479.815430 1087.124878,497.880890 
	C1101.792603,513.033447 1119.934814,518.837280 1140.548950,517.760925 
	C1153.544922,517.082336 1161.212891,510.679688 1164.161987,498.067657 
	C1165.171875,493.748627 1165.437378,489.172577 1165.441162,484.713440 
	C1165.512573,400.055115 1165.493896,315.396698 1165.493896,230.738297 
	C1165.493896,228.952255 1165.493896,227.166214 1165.493896,225.333450 
	C1145.709229,225.333450 1126.314087,225.333450 1106.659424,225.333450 
	C1106.659424,308.915009 1106.659424,392.163116 1106.659424,476.138245 
	C1104.991821,474.603882 1103.780396,473.572083 1102.662109,472.447937 
	C1087.147217,456.853455 1071.678101,441.213287 1056.122925,425.659302 
	C1050.299683,419.836639 1044.061035,414.605560 1034.404907,413.999817 
M393.919312,145.555374 
	C409.058350,155.239624 424.031311,165.197006 439.383209,174.531204 
	C454.693085,183.839859 471.328339,188.827774 489.427704,186.091156 
	C504.261749,183.848251 516.921692,176.479721 528.998901,167.956314 
	C540.146545,160.088913 551.208130,152.067871 562.696777,144.723099 
	C576.983032,135.589798 592.770203,133.909500 607.191406,142.736404 
	C631.563538,157.654007 655.354980,173.623703 678.556702,190.310577 
	C692.019409,199.993103 697.021484,214.566345 696.969727,231.444992 
	C696.683289,324.939789 696.832520,418.435944 696.832520,511.931641 
	C696.832520,513.862183 696.832520,515.792786 696.832520,517.670410 
	C716.613586,517.670410 735.846436,517.670410 755.114746,517.670410 
	C755.114746,419.513733 755.139465,321.686707 755.100220,223.859665 
	C755.087830,193.076675 742.418396,167.824646 719.334106,148.301880 
	C704.892639,136.088440 688.977295,125.558968 673.332336,114.844711 
	C659.065186,105.074074 644.514160,95.660423 629.619812,86.884453 
	C620.442993,81.477325 610.296204,77.897141 599.206604,78.894821 
	C586.118591,80.072281 575.876465,87.290215 566.034302,95.018135 
	C552.028198,106.015495 538.472229,117.588516 524.409851,128.511139 
	C512.917053,137.437881 500.002899,139.613235 486.320251,134.009094 
	C481.740936,132.133484 477.365906,129.634171 473.153046,127.009674 
	C451.412964,113.466202 429.935089,99.489548 407.954041,86.352943 
	C401.832001,82.694214 394.467621,80.548233 387.388794,79.185707 
	C376.030334,76.999466 365.552002,81.389038 356.073242,86.965706 
	C344.333557,93.872543 333.012207,101.575676 321.984161,109.587296 
	C304.624573,122.198586 287.088287,134.674576 270.693848,148.475403 
	C255.039871,161.652924 252.014359,184.925003 263.354004,201.950470 
	C267.990753,208.912109 275.301147,214.287659 282.029846,219.577545 
	C285.300049,222.148468 286.680786,224.341904 286.605103,228.448715 
	C286.347168,242.443329 286.475616,256.445709 286.511841,270.444977 
	C286.656250,326.271088 286.180542,382.109375 287.246826,437.918091 
	C287.788055,466.242645 302.251190,487.319092 327.513397,500.622467 
	C346.113525,510.417572 366.273193,514.487915 386.927155,516.460815 
	C414.074371,519.054077 441.184540,518.650146 468.103149,513.942261 
	C475.887451,512.580811 483.522034,510.363525 491.500000,508.473511 
	C491.500000,526.283691 491.500000,543.911194 491.500000,561.718506 
	C511.152649,561.718506 530.555359,561.718506 549.872803,561.718506 
	C549.872803,449.375458 549.872803,337.314087 549.872803,225.229172 
	C530.303711,225.229172 511.030273,225.229172 491.506439,225.229172 
	C491.506439,227.433197 491.510040,229.413071 491.505890,231.392944 
	C491.361511,300.219330 491.376007,369.046661 490.970917,437.871521 
	C490.854279,457.686279 477.618683,475.267151 458.955200,482.031921 
	C435.862457,490.402222 412.298767,490.309662 388.585266,485.299683 
	C373.696655,482.154144 361.220917,475.110809 352.963074,461.819672 
	C346.365845,451.201324 345.166840,439.345428 345.167084,427.227722 
	C345.168427,355.397705 345.128418,283.567566 345.274506,211.737854 
	C345.282440,207.831177 344.052673,205.891586 340.733490,204.067108 
	C330.654510,198.526993 320.846802,192.529663 313.438965,183.404205 
	C307.808258,176.467911 307.358521,170.896423 313.147308,164.135788 
	C317.216949,159.382919 321.796967,154.735245 326.997772,151.341049 
	C347.886627,137.708374 369.680420,130.895645 393.919312,145.555374 
M205.827881,693.609741 
	C234.870529,693.769409 263.762329,692.617554 291.829407,684.001038 
	C304.888336,679.992065 316.901703,673.992981 326.969208,664.695374 
	C340.331970,652.354614 345.054871,636.362671 345.140900,618.721313 
	C345.251373,596.059143 345.171295,573.395935 345.157104,550.733215 
	C345.156403,549.633789 345.000061,548.534485 344.917511,547.452393 
	C325.295074,547.452393 306.063843,547.452393 286.500458,547.452393 
	C286.500458,549.368103 286.500458,551.012451 286.500458,552.656738 
	C286.500427,574.486267 286.585785,596.316284 286.475983,618.145264 
	C286.369019,639.404480 276.739136,652.680664 256.341705,658.694763 
	C229.726822,666.542175 202.677216,666.485229 175.860748,660.255066 
	C151.220215,654.530457 139.628189,640.674316 139.795197,613.483704 
	C140.341675,524.502441 140.000305,435.515808 140.000305,346.531219 
	C140.000305,302.205566 139.962433,257.879852 140.041656,213.554352 
	C140.053375,206.995621 138.191742,201.371857 133.099991,197.181381 
	C129.778519,194.447830 126.305496,191.786057 122.563057,189.696121 
	C107.901573,181.508606 91.836906,177.136734 75.705139,173.013977 
	C71.478546,171.933792 67.227592,170.949005 62.815178,169.878525 
	C64.864830,165.291748 66.761810,161.397873 68.369118,157.387878 
	C74.732910,141.511200 83.228294,141.286194 97.079971,146.160751 
	C100.046448,147.204712 102.748962,148.975693 105.668747,150.179733 
	C113.953285,153.596054 122.160683,157.265976 130.634933,160.138336 
	C140.534912,163.493958 150.253571,162.080597 158.621552,155.796585 
	C174.364395,143.974350 180.339371,126.833847 183.989212,107.916054 
	C182.018570,108.133873 180.715454,108.221199 179.431732,108.428635 
	C167.679840,110.327621 156.628754,108.750809 146.363007,102.323166 
	C138.184006,97.202087 129.987289,92.056343 121.462395,87.558441 
	C115.325790,84.320625 108.795067,81.609924 102.159058,79.585464 
	C89.379944,75.686951 80.541115,83.208473 73.211403,91.816536 
	C55.297680,112.854507 40.970932,136.238037 30.688437,161.945847 
	C27.514841,169.880310 25.155094,178.140305 22.659760,185.547592 
	C34.610016,189.224060 46.075150,191.720901 56.673813,196.246826 
	C73.743126,203.535919 81.632042,212.786911 81.600906,232.924500 
	C81.403282,360.735382 81.503059,488.546722 81.496544,616.357910 
	C81.495880,629.337158 83.031708,641.935425 90.249985,653.196472 
	C100.723083,669.535339 116.641441,678.092041 134.414536,683.830933 
	C157.312714,691.224731 181.030930,692.969177 205.827881,693.609741 
M993.493286,650.973633 
	C1000.172791,657.647217 1006.120117,665.326416 1013.660950,670.817078 
	C1043.442261,692.501526 1077.404663,696.947510 1112.825684,691.780151 
	C1139.981934,687.818359 1157.833008,671.770874 1165.914551,645.481140 
	C1171.976807,625.760620 1172.808472,605.503296 1169.555664,585.243225 
	C1167.575195,572.907898 1163.289673,561.229126 1151.943970,554.065735 
	C1139.477539,546.194763 1126.063843,545.361328 1112.310913,550.171448 
	C1102.633911,553.556030 1096.824951,566.688416 1098.919434,576.636841 
	C1100.134277,576.748108 1101.433960,576.892334 1102.737305,576.982483 
	C1115.931885,577.895691 1123.795288,583.723938 1126.115356,596.650879 
	C1128.883789,612.075378 1127.300537,627.496216 1122.044189,642.359863 
	C1118.887085,651.287720 1113.591919,658.500488 1104.462524,662.224670 
	C1097.086914,665.233521 1089.456787,664.844055 1081.900391,663.452087 
	C1061.601562,659.712769 1046.922729,647.157837 1034.376587,631.864990 
	C1022.132996,616.941101 1009.984680,602.028137 994.844360,589.828308 
	C975.635315,574.350098 954.257202,564.093506 929.394470,562.210266 
	C916.917297,561.265259 904.497009,561.997498 894.382080,570.486633 
	C880.184021,582.402588 876.783386,598.372986 878.521912,616.759460 
	C879.980347,614.510681 881.010498,612.851746 882.109070,611.239441 
	C892.733337,595.647827 907.813171,589.814636 926.063293,591.918640 
	C937.441833,593.230469 946.656860,599.864380 954.279053,607.587463 
	C967.795471,621.282715 980.225281,636.050232 993.493286,650.973633 
z"/>
<path fill="#010101" opacity="1.000000" stroke="none" 
	d="
M1034.842285,413.999939 
	C1044.061035,414.605560 1050.299683,419.836639 1056.122925,425.659302 
	C1071.678101,441.213287 1087.147217,456.853455 1102.662109,472.447937 
	C1103.780396,473.572083 1104.991821,474.603882 1106.659424,476.138245 
	C1106.659424,392.163116 1106.659424,308.915009 1106.659424,225.333450 
	C1126.314087,225.333450 1145.709229,225.333450 1165.493896,225.333450 
	C1165.493896,227.166214 1165.493896,228.952255 1165.493896,230.738297 
	C1165.493896,315.396698 1165.512573,400.055115 1165.441162,484.713440 
	C1165.437378,489.172577 1165.171875,493.748627 1164.161987,498.067657 
	C1161.212891,510.679688 1153.544922,517.082336 1140.548950,517.760925 
	C1119.934814,518.837280 1101.792603,513.033447 1087.124878,497.880890 
	C1069.637329,479.815430 1052.057495,461.839294 1034.605713,443.915009 
	C1015.937073,462.507721 998.234924,479.919464 980.786560,497.581940 
	C966.020447,512.529297 948.045776,518.709839 927.421631,517.804993 
	C912.071594,517.131470 902.322510,507.292633 902.043335,491.981934 
	C901.718384,474.156311 901.843262,456.321869 901.839111,438.491241 
	C901.822693,367.998138 901.802063,297.504974 901.917786,227.012054 
	C901.923828,223.328232 900.852966,220.893280 898.135559,218.449738 
	C892.939331,213.777069 888.019409,208.774307 883.223206,203.683914 
	C869.713013,189.344955 868.282410,168.498337 880.700439,153.139969 
	C899.676514,129.670761 920.014404,107.358810 943.210266,87.946358 
	C957.413513,76.059784 961.355591,75.623657 977.074158,85.296730 
	C998.607544,98.548233 1019.257568,113.236450 1040.806396,126.461151 
	C1055.070557,135.215225 1069.596313,144.301834 1085.204956,149.884689 
	C1099.710938,155.073120 1115.263184,151.808105 1127.095215,140.750244 
	C1139.932739,128.752701 1138.848145,106.711441 1126.213135,94.499741 
	C1114.105469,82.797684 1099.555298,78.302139 1083.091187,78.001030 
	C1073.172607,77.819626 1064.059448,74.976891 1057.433594,66.781296 
	C1047.090576,53.987938 1049.828491,32.499935 1063.088501,25.121223 
	C1071.480103,20.451572 1080.908325,19.832537 1090.288208,20.080772 
	C1117.768677,20.808022 1137.335327,34.747173 1151.243286,57.506756 
	C1160.583252,72.790970 1164.060669,89.839996 1165.021973,107.508995 
	C1165.148804,109.838219 1165.240356,112.169411 1165.379028,114.497864 
	C1165.396118,114.783470 1165.606201,115.057571 1165.888184,115.710381 
	C1174.678955,110.327126 1183.137451,104.456696 1192.205200,99.763451 
	C1204.438232,93.432060 1216.862549,87.281273 1229.707642,82.367653 
	C1247.513062,75.556664 1265.907471,77.465034 1282.823486,84.824203 
	C1308.959961,96.194641 1332.396973,112.097656 1350.824585,134.271011 
	C1363.026123,148.952789 1368.423462,166.561691 1369.867920,185.366516 
	C1370.504761,193.658783 1370.467041,202.014771 1370.470093,210.341949 
	C1370.506836,310.665466 1370.493896,410.988983 1370.493896,511.312500 
	C1370.493896,513.309753 1370.493896,515.306946 1370.493896,517.651978 
	C1351.136597,517.651978 1331.905884,517.651978 1312.000000,517.651978 
	C1312.000000,516.139221 1312.000000,514.387695 1312.000000,512.636230 
	C1312.000000,409.146332 1311.818481,305.655853 1312.166504,202.167145 
	C1312.229614,183.415100 1305.906982,168.863495 1290.528076,158.218155 
	C1281.767212,152.153870 1273.289673,145.643555 1264.266113,140.003540 
	C1246.526367,128.915771 1227.486816,127.316116 1208.370850,135.495148 
	C1189.271973,143.666885 1170.589722,152.844620 1151.958740,162.054443 
	C1147.456299,164.280121 1144.022827,168.575684 1139.843750,171.564255 
	C1125.591675,181.756271 1109.209595,186.164536 1092.108765,187.446716 
	C1061.375244,189.751022 1031.474731,185.983536 1003.921631,171.212280 
	C993.406128,165.574875 983.837524,158.190567 973.702393,151.817078 
	C967.523804,147.931595 961.245667,144.139679 954.725342,140.879578 
	C947.382874,137.208420 940.592224,138.715897 934.584351,144.371033 
	C927.219727,151.303268 921.017334,158.971375 917.526428,168.632477 
	C915.381165,174.569641 915.858643,180.046768 920.954956,183.993744 
	C932.378845,192.841415 943.976135,201.476761 955.738831,209.867813 
	C958.895569,212.119690 960.271729,214.248184 960.265686,218.241730 
	C960.136597,303.896484 960.167725,389.551514 960.167725,476.312225 
	C961.943176,474.683685 963.215088,473.597046 964.397522,472.420410 
	C980.108215,456.785980 995.747559,441.079254 1011.536377,425.524170 
	C1017.872681,419.281738 1024.585205,413.474609 1034.842285,413.999939 
z"/>
<path fill="#010101" opacity="1.000000" stroke="none" 
	d="
M393.603394,145.362976 
	C369.680420,130.895645 347.886627,137.708374 326.997772,151.341049 
	C321.796967,154.735245 317.216949,159.382919 313.147308,164.135788 
	C307.358521,170.896423 307.808258,176.467911 313.438965,183.404205 
	C320.846802,192.529663 330.654510,198.526993 340.733490,204.067108 
	C344.052673,205.891586 345.282440,207.831177 345.274506,211.737854 
	C345.128418,283.567566 345.168427,355.397705 345.167084,427.227722 
	C345.166840,439.345428 346.365845,451.201324 352.963074,461.819672 
	C361.220917,475.110809 373.696655,482.154144 388.585266,485.299683 
	C412.298767,490.309662 435.862457,490.402222 458.955200,482.031921 
	C477.618683,475.267151 490.854279,457.686279 490.970917,437.871521 
	C491.376007,369.046661 491.361511,300.219330 491.505890,231.392944 
	C491.510040,229.413071 491.506439,227.433197 491.506439,225.229172 
	C511.030273,225.229172 530.303711,225.229172 549.872803,225.229172 
	C549.872803,337.314087 549.872803,449.375458 549.872803,561.718506 
	C530.555359,561.718506 511.152649,561.718506 491.500000,561.718506 
	C491.500000,543.911194 491.500000,526.283691 491.500000,508.473511 
	C483.522034,510.363525 475.887451,512.580811 468.103149,513.942261 
	C441.184540,518.650146 414.074371,519.054077 386.927155,516.460815 
	C366.273193,514.487915 346.113525,510.417572 327.513397,500.622467 
	C302.251190,487.319092 287.788055,466.242645 287.246826,437.918091 
	C286.180542,382.109375 286.656250,326.271088 286.511841,270.444977 
	C286.475616,256.445709 286.347168,242.443329 286.605103,228.448715 
	C286.680786,224.341904 285.300049,222.148468 282.029846,219.577545 
	C275.301147,214.287659 267.990753,208.912109 263.354004,201.950470 
	C252.014359,184.925003 255.039871,161.652924 270.693848,148.475403 
	C287.088287,134.674576 304.624573,122.198586 321.984161,109.587296 
	C333.012207,101.575676 344.333557,93.872543 356.073242,86.965706 
	C365.552002,81.389038 376.030334,76.999466 387.388794,79.185707 
	C394.467621,80.548233 401.832001,82.694214 407.954041,86.352943 
	C429.935089,99.489548 451.412964,113.466202 473.153046,127.009674 
	C477.365906,129.634171 481.740936,132.133484 486.320251,134.009094 
	C500.002899,139.613235 512.917053,137.437881 524.409851,128.511139 
	C538.472229,117.588516 552.028198,106.015495 566.034302,95.018135 
	C575.876465,87.290215 586.118591,80.072281 599.206604,78.894821 
	C610.296204,77.897141 620.442993,81.477325 629.619812,86.884453 
	C644.514160,95.660423 659.065186,105.074074 673.332336,114.844711 
	C688.977295,125.558968 704.892639,136.088440 719.334106,148.301880 
	C742.418396,167.824646 755.087830,193.076675 755.100220,223.859665 
	C755.139465,321.686707 755.114746,419.513733 755.114746,517.670410 
	C735.846436,517.670410 716.613586,517.670410 696.832520,517.670410 
	C696.832520,515.792786 696.832520,513.862183 696.832520,511.931641 
	C696.832520,418.435944 696.683289,324.939789 696.969727,231.444992 
	C697.021484,214.566345 692.019409,199.993103 678.556702,190.310577 
	C655.354980,173.623703 631.563538,157.654007 607.191406,142.736404 
	C592.770203,133.909500 576.983032,135.589798 562.696777,144.723099 
	C551.208130,152.067871 540.146545,160.088913 528.998901,167.956314 
	C516.921692,176.479721 504.261749,183.848251 489.427704,186.091156 
	C471.328339,188.827774 454.693085,183.839859 439.383209,174.531204 
	C424.031311,165.197006 409.058350,155.239624 393.603394,145.362976 
z"/>
<path fill="#010101" opacity="1.000000" stroke="none" 
	d="
M205.358246,693.589539 
	C181.030930,692.969177 157.312714,691.224731 134.414536,683.830933 
	C116.641441,678.092041 100.723083,669.535339 90.249985,653.196472 
	C83.031708,641.935425 81.495880,629.337158 81.496544,616.357910 
	C81.503059,488.546722 81.403282,360.735382 81.600906,232.924500 
	C81.632042,212.786911 73.743126,203.535919 56.673813,196.246826 
	C46.075150,191.720901 34.610016,189.224060 22.659760,185.547592 
	C25.155094,178.140305 27.514841,169.880310 30.688437,161.945847 
	C40.970932,136.238037 55.297680,112.854507 73.211403,91.816536 
	C80.541115,83.208473 89.379944,75.686951 102.159058,79.585464 
	C108.795067,81.609924 115.325790,84.320625 121.462395,87.558441 
	C129.987289,92.056343 138.184006,97.202087 146.363007,102.323166 
	C156.628754,108.750809 167.679840,110.327621 179.431732,108.428635 
	C180.715454,108.221199 182.018570,108.133873 183.989212,107.916054 
	C180.339371,126.833847 174.364395,143.974350 158.621552,155.796585 
	C150.253571,162.080597 140.534912,163.493958 130.634933,160.138336 
	C122.160683,157.265976 113.953285,153.596054 105.668747,150.179733 
	C102.748962,148.975693 100.046448,147.204712 97.079971,146.160751 
	C83.228294,141.286194 74.732910,141.511200 68.369118,157.387878 
	C66.761810,161.397873 64.864830,165.291748 62.815178,169.878525 
	C67.227592,170.949005 71.478546,171.933792 75.705139,173.013977 
	C91.836906,177.136734 107.901573,181.508606 122.563057,189.696121 
	C126.305496,191.786057 129.778519,194.447830 133.099991,197.181381 
	C138.191742,201.371857 140.053375,206.995621 140.041656,213.554352 
	C139.962433,257.879852 140.000305,302.205566 140.000305,346.531219 
	C140.000305,435.515808 140.341675,524.502441 139.795197,613.483704 
	C139.628189,640.674316 151.220215,654.530457 175.860748,660.255066 
	C202.677216,666.485229 229.726822,666.542175 256.341705,658.694763 
	C276.739136,652.680664 286.369019,639.404480 286.475983,618.145264 
	C286.585785,596.316284 286.500427,574.486267 286.500458,552.656738 
	C286.500458,551.012451 286.500458,549.368103 286.500458,547.452393 
	C306.063843,547.452393 325.295074,547.452393 344.917511,547.452393 
	C345.000061,548.534485 345.156403,549.633789 345.157104,550.733215 
	C345.171295,573.395935 345.251373,596.059143 345.140900,618.721313 
	C345.054871,636.362671 340.331970,652.354614 326.969208,664.695374 
	C316.901703,673.992981 304.888336,679.992065 291.829407,684.001038 
	C263.762329,692.617554 234.870529,693.769409 205.358246,693.589539 
z"/>
<path fill="#C46F34" opacity="1.000000" stroke="none" 
	d="
M993.301514,650.671387 
	C980.225281,636.050232 967.795471,621.282715 954.279053,607.587463 
	C946.656860,599.864380 937.441833,593.230469 926.063293,591.918640 
	C907.813171,589.814636 892.733337,595.647827 882.109070,611.239441 
	C881.010498,612.851746 879.980347,614.510681 878.521912,616.759460 
	C876.783386,598.372986 880.184021,582.402588 894.382080,570.486633 
	C904.497009,561.997498 916.917297,561.265259 929.394470,562.210266 
	C954.257202,564.093506 975.635315,574.350098 994.844360,589.828308 
	C1009.984680,602.028137 1022.132996,616.941101 1034.376587,631.864990 
	C1046.922729,647.157837 1061.601562,659.712769 1081.900391,663.452087 
	C1089.456787,664.844055 1097.086914,665.233521 1104.462524,662.224670 
	C1113.591919,658.500488 1118.887085,651.287720 1122.044189,642.359863 
	C1127.300537,627.496216 1128.883789,612.075378 1126.115356,596.650879 
	C1123.795288,583.723938 1115.931885,577.895691 1102.737305,576.982483 
	C1101.433960,576.892334 1100.134277,576.748108 1098.919434,576.636841 
	C1096.824951,566.688416 1102.633911,553.556030 1112.310913,550.171448 
	C1126.063843,545.361328 1139.477539,546.194763 1151.943970,554.065735 
	C1163.289673,561.229126 1167.575195,572.907898 1169.555664,585.243225 
	C1172.808472,605.503296 1171.976807,625.760620 1165.914551,645.481140 
	C1157.833008,671.770874 1139.981934,687.818359 1112.825684,691.780151 
	C1077.404663,696.947510 1043.442261,692.501526 1013.660950,670.817078 
	C1006.120117,665.326416 1000.172791,657.647217 993.301514,650.671387 
z"/>
</svg>