<svg version="1.1" id="Layer_1" xmlns="http://www.w3.org/2000/svg" xmlns:xlink="http://www.w3.org/1999/xlink" x="0px" y="0px"
	 width="100%" viewBox="0 0 1024 912" enable-background="new 0 0 1024 912" xml:space="preserve">
<path fill="chocolate" opacity="1.000000" stroke="none" 
	d="
M494.468689,913.000000 
	C494.202759,911.363770 494.589142,909.726685 494.580963,908.091492 
	C494.432495,878.462524 495.042847,848.830627 494.192291,819.202454 
	C494.091949,815.706482 493.204468,813.425415 490.097046,811.456116 
	C482.242310,806.478516 479.205841,796.109314 481.758545,784.685974 
	C483.787231,775.607666 489.607422,770.331604 499.312134,768.679504 
	C503.433258,767.977844 507.556366,767.628784 511.739258,767.912231 
	C528.644470,769.057800 536.044678,776.751587 536.143982,793.695862 
	C536.252319,812.175110 536.172363,830.655396 536.157654,849.135254 
	C536.140991,870.111938 536.105713,891.088562 536.039246,912.532593 
	C522.312439,913.000000 508.624878,913.000000 494.468689,913.000000 
z"/>
<path fill="#000000" opacity="1.000000" stroke="none" 
	d="
M751.071411,266.941895 
	C737.354797,254.679352 723.040405,243.775742 706.628662,236.160202 
	C696.850037,231.622620 686.645447,231.909332 676.700623,236.811905 
	C659.662048,245.211487 645.087341,257.141815 630.261658,268.734253 
	C628.058350,270.457001 628.353943,272.825348 628.352844,275.134369 
	C628.339050,305.299835 628.333740,335.465332 628.332520,365.630798 
	C628.329712,435.461365 628.330505,505.291931 628.329224,575.122498 
	C628.329102,583.399353 628.327454,583.404663 619.827087,583.405884 
	C606.827637,583.407715 593.828125,583.413391 580.828674,583.393860 
	C574.019653,583.383606 574.011169,583.360901 574.004517,576.319214 
	C573.994141,565.319641 573.994080,554.320129 573.994141,543.320557 
	C573.994690,451.657532 573.984680,359.994507 574.013855,268.331482 
	C574.017090,258.091064 573.414917,247.993912 568.549194,238.680313 
	C562.256592,226.635559 551.779663,219.820160 539.126831,216.420624 
	C517.953918,210.731903 496.651489,210.460663 475.593964,217.119446 
	C455.415070,223.500366 443.794647,238.138412 443.325928,259.214600 
	C442.707245,287.032959 442.951599,314.871857 442.937653,342.701996 
	C442.898865,420.198883 442.922424,497.695801 442.908417,575.192688 
	C442.906952,583.399902 442.867218,583.404907 434.731293,583.406494 
	C421.565155,583.408997 408.398956,583.416077 395.232849,583.397339 
	C388.695221,583.388000 388.670410,583.364014 388.670044,576.743164 
	C388.664490,473.080566 388.685333,369.417999 388.637634,265.755402 
	C388.632416,254.430527 386.819214,243.520004 379.685791,234.150818 
	C373.311371,225.778534 367.216400,224.355469 357.960480,229.195892 
	C348.557007,234.113495 341.994507,242.167328 335.246063,249.976151 
	C331.049255,254.832428 327.097931,259.900909 322.689270,265.299225 
	C316.419373,258.009979 311.409210,250.533798 305.113678,244.140778 
	C299.495178,238.435272 294.060516,232.548645 286.747406,228.915619 
	C278.223419,224.681030 273.181702,225.890335 266.796234,232.794662 
	C259.874329,240.279053 257.476868,249.496582 257.421844,259.026245 
	C257.114716,312.188934 257.273895,365.354187 257.141144,418.518250 
	C257.129913,423.015533 259.341278,423.545746 263.012909,423.758087 
	C277.848236,424.616119 291.181763,428.863190 300.455872,441.533661 
	C305.939453,449.025391 308.688690,457.644409 309.188416,466.693542 
	C310.441254,489.378296 309.651855,512.030273 303.168457,533.977661 
	C298.285217,550.508240 290.842285,565.635254 275.318024,575.230957 
	C268.946960,579.169006 262.085663,581.654663 254.798477,582.630249 
	C243.177246,584.186157 231.507233,584.196350 220.196075,580.545349 
	C208.746445,576.849731 202.690994,568.522034 202.687073,556.611389 
	C202.654892,458.948578 202.578995,361.285614 202.761383,263.623138 
	C202.796707,244.708008 210.753296,228.769257 224.015121,215.532074 
	C233.861786,205.703674 245.246597,197.762939 257.295197,190.946732 
	C274.354889,181.295609 283.971863,182.798767 299.563293,196.919357 
	C305.360413,202.169632 310.743439,207.875610 316.359161,213.328613 
	C318.365448,215.276779 319.971100,217.682785 323.638794,219.605408 
	C329.629181,213.325928 335.696869,206.731766 342.041473,200.415771 
	C345.094696,197.376297 348.723206,194.922958 351.999268,192.097580 
	C361.931213,183.532028 372.609985,183.066315 384.009338,188.862411 
	C395.066925,194.484726 405.122040,201.605408 414.560272,209.559952 
	C417.918152,212.389984 419.906189,212.458939 423.156616,209.270844 
	C436.192047,196.485306 452.840576,190.858490 470.235382,187.993668 
	C506.535156,182.015289 542.609924,183.117920 577.850403,194.721527 
	C595.812378,200.635849 610.628662,210.882446 619.861816,227.999863 
	C620.174194,228.579041 620.605896,229.102524 621.036072,229.605774 
	C621.240601,229.845093 621.572510,229.975586 622.142151,230.349152 
	C625.866943,228.263565 628.450378,224.752335 631.288574,221.597687 
	C643.609741,207.902695 657.680664,196.557236 675.084290,190.080154 
	C701.955383,180.079605 727.554016,183.859573 751.597107,198.729630 
	C761.075378,204.591690 770.094971,211.240921 779.037842,217.914383 
	C802.777222,235.629562 814.051880,259.923187 814.203552,289.064606 
	C814.560791,357.726715 814.327942,426.391937 814.332642,495.055878 
	C814.334534,522.388123 814.210754,549.721436 814.443665,577.051758 
	C814.486938,582.125732 813.001404,583.630615 807.955200,583.514038 
	C794.129822,583.194702 780.292175,583.415894 766.459412,583.397705 
	C759.870178,583.389038 759.836365,583.351013 759.834717,576.650208 
	C759.811951,482.487274 759.743713,388.324280 759.853455,294.161499 
	C759.865173,284.108887 757.784729,275.043732 751.071411,266.941895 
M281.908813,473.298492 
	C281.287659,462.693085 276.256561,455.564270 265.856934,452.356110 
	C258.553528,450.103088 257.189056,450.889160 257.185425,458.367615 
	C257.172913,484.315186 257.178375,510.262756 257.215393,536.210266 
	C257.217926,538.000305 256.830414,539.869080 257.746613,541.567383 
	C264.685425,541.897034 270.733887,537.441040 274.376953,528.929932 
	C281.889099,511.379578 282.045349,492.765717 281.908813,473.298492 
z"/>
<path fill="#000000" opacity="1.000000" stroke="none" 
	d="
M248.042053,647.111206 
	C231.099655,652.245178 217.447327,662.296692 203.379333,673.550903 
	C201.946442,666.865417 203.908554,661.574646 205.804291,656.477539 
	C211.509048,641.138977 223.931198,632.166748 237.353699,624.384155 
	C260.519073,610.952454 285.662903,607.523499 312.021851,609.439941 
	C337.979706,611.327209 363.098053,616.367004 386.952454,626.989075 
	C407.285797,636.043213 425.906921,647.980042 444.144470,660.640808 
	C463.029327,673.750977 482.170380,686.512878 502.810638,696.786133 
	C513.591736,702.152100 524.544128,707.204346 537.107056,705.669128 
	C563.676758,702.422180 572.722839,691.020081 573.846436,669.223694 
	C573.897888,668.225342 573.916077,667.225281 573.947998,666.225891 
	C574.214417,657.884094 574.214294,657.884155 565.785461,657.074890 
	C556.048889,656.140076 547.893738,644.707153 549.190002,633.809448 
	C550.978271,618.776001 557.245056,612.429749 572.574585,609.695862 
	C581.826477,608.045959 590.831665,609.194092 599.708923,611.674805 
	C609.524658,614.417725 617.170776,620.350952 621.360718,629.604492 
	C631.206055,651.347656 632.208923,673.119812 618.826355,693.902649 
	C609.033936,709.110168 594.727722,718.957764 578.144043,725.710999 
	C554.000610,735.542725 528.854553,735.862061 503.412231,733.826782 
	C469.631195,731.124329 440.050446,716.995972 411.165558,700.628174 
	C385.522827,686.097473 361.106445,669.416443 334.307556,656.908325 
	C323.418243,651.825867 312.403015,647.157654 300.670288,644.380066 
	C283.003601,640.197754 265.650421,642.328613 248.042053,647.111206 
z"/>
<path fill="#000000" opacity="1.000000" stroke="none" 
	d="
M639.568359,117.240402 
	C632.103394,98.032021 631.808655,78.903275 637.482361,59.648087 
	C642.238770,43.505951 652.976135,33.152779 669.064514,28.458578 
	C685.929199,23.537855 702.836121,23.540333 719.729980,28.507330 
	C737.757446,33.807640 748.479797,46.053001 752.650635,63.979225 
	C755.930054,78.074043 756.023376,92.412018 752.763123,106.549942 
	C747.510132,129.329391 731.476501,142.738937 707.678711,145.332565 
	C695.291626,146.682602 683.108459,146.279938 671.033203,143.217087 
	C656.609863,139.558670 645.946960,131.276169 639.568359,117.240402 
M713.573853,75.066719 
	C709.876526,63.630650 704.036804,59.606457 692.050720,60.235004 
	C682.757019,60.722366 676.985168,66.383606 674.903320,77.229637 
	C673.730591,83.339432 673.869812,89.455956 675.193115,95.551682 
	C677.342224,105.451675 683.747070,110.739616 693.824219,110.858505 
	C704.472351,110.984131 711.263062,105.969856 713.505005,96.129219 
	C715.034424,89.416428 715.333313,82.649887 713.573853,75.066719 
z"/>
</svg>