<svg version="1.1" id="Layer_1" xmlns="http://www.w3.org/2000/svg" xmlns:xlink="http://www.w3.org/1999/xlink" x="0px" y="0px"
	 width="100%" viewBox="0 0 412 864" enable-background="new 0 0 412 864" xml:space="preserve">
<path fill="#FFFFFE" opacity="1.000000" stroke="none" 
	d="
M413.000000,323.000000 
	C413.000000,504.000000 413.000000,684.500000 413.000000,865.000000 
	C275.666656,865.000000 138.333328,865.000000 1.000000,865.000000 
	C1.000000,577.000000 1.000000,289.000000 1.000000,1.000000 
	C138.333328,1.000000 275.666656,1.000000 413.000000,1.000000 
	C413.000000,108.166664 413.000000,215.333328 413.000000,323.000000 
M79.492775,645.122070 
	C89.367317,648.237427 99.476944,648.462952 109.663857,647.480164 
	C112.808479,647.176758 115.959892,646.754639 119.050247,646.109375 
	C135.989502,642.572510 143.819504,632.967834 143.826859,615.672302 
	C143.850510,560.010986 143.835693,504.349701 143.835693,448.688385 
	C143.835693,446.910950 143.835678,445.133514 143.835678,443.293396 
	C192.853668,443.293396 241.415634,443.293396 289.837646,443.293396 
	C289.837646,462.821899 289.837646,482.057831 289.837646,501.561951 
	C287.058014,501.729858 284.573181,501.777924 282.112030,502.044464 
	C259.697449,504.472046 244.525406,515.677063 239.803024,539.045288 
	C233.853333,568.486633 240.359055,595.847534 254.811035,621.668274 
	C259.131897,629.388123 265.109589,635.559509 272.786163,639.947937 
	C288.698486,649.044617 305.799744,649.497620 323.223511,646.243164 
	C341.294525,642.867920 348.832336,633.505737 348.833374,615.111755 
	C348.838470,524.953796 348.766449,434.795715 348.941772,344.638092 
	C348.959503,335.523590 345.360382,329.110535 338.207428,324.037384 
	C324.349609,314.208862 308.344971,309.619110 292.333313,305.068939 
	C285.560760,303.144287 278.674622,301.619507 271.470764,299.820770 
	C274.710846,293.115845 277.535889,286.908478 280.679962,280.867188 
	C283.700714,275.062958 288.866577,272.222351 295.148010,273.720703 
	C301.864716,275.322845 308.346741,277.992920 314.833038,280.455383 
	C323.058838,283.578217 331.062805,287.325500 339.387421,290.137451 
	C349.092712,293.415802 358.651306,292.152466 366.946808,286.061676 
	C383.000092,274.274933 389.062714,257.024323 392.720428,237.915619 
	C390.730835,238.137482 389.428192,238.228775 388.143860,238.434372 
	C376.755524,240.257446 365.951080,238.943237 355.969452,232.726547 
	C349.894409,228.942932 343.906036,224.952927 337.543182,221.714966 
	C328.982971,217.358810 320.253174,213.239624 311.300873,209.783539 
	C305.202393,207.429199 298.714447,208.009628 293.265930,212.170776 
	C289.185547,215.287003 285.029205,218.509995 281.700867,222.370224 
	C263.831024,243.095947 250.225845,266.511536 239.581024,291.623016 
	C236.203094,299.591614 234.028717,308.070404 231.577087,315.488159 
	C243.650574,319.249603 254.835831,321.957367 265.394531,326.217865 
	C279.004425,331.709564 289.733307,340.586761 290.042694,356.889191 
	C290.393585,375.379517 290.125397,393.881683 290.096283,412.378662 
	C290.095642,412.802673 289.736053,413.226105 289.584869,413.559509 
	C241.005600,413.559509 192.582687,413.559509 143.835678,413.559509 
	C143.835678,411.484131 143.835693,409.676361 143.835693,407.868622 
	C143.835693,386.870636 143.659668,365.870514 143.916855,344.875702 
	C144.029663,335.667633 140.317734,329.042542 132.948364,323.829132 
	C121.323761,315.605255 108.076492,311.197876 94.691948,307.165497 
	C85.511932,304.399841 76.147194,302.247284 66.517143,299.729706 
	C69.554726,293.248291 72.145325,286.917358 75.420395,280.962860 
	C78.569382,275.237610 83.816658,272.057129 90.398186,273.743896 
	C97.099190,275.461334 103.578484,278.105103 110.067490,280.572968 
	C118.290329,283.700226 126.271194,287.543640 134.635391,290.199677 
	C145.925888,293.784943 156.375504,291.424500 165.281906,283.427002 
	C178.685654,271.391083 184.331284,255.528351 187.708130,238.231842 
	C186.607468,238.143402 185.925827,237.931000 185.319031,238.062927 
	C170.381500,241.310776 157.370346,237.168579 144.617050,229.174591 
	C133.267624,222.060593 121.092964,216.143143 108.893112,210.546417 
	C100.189453,206.553543 91.593613,208.332870 84.312416,214.828354 
	C81.337334,217.482407 78.270172,220.114471 75.728706,223.160233 
	C58.542747,243.756348 44.920727,266.581207 34.493401,291.240570 
	C31.066561,299.344604 28.969688,308.011017 26.536831,315.574158 
	C38.378857,319.220459 49.476204,321.739410 59.841084,326.028412 
	C77.735985,333.433472 85.526413,343.398285 85.312294,363.304657 
	C84.837341,407.461975 85.164322,451.627869 85.164322,495.790283 
	C85.164322,497.581573 85.164314,499.372864 85.164314,501.568604 
	C82.110497,501.738129 79.464470,501.754883 76.850800,502.054169 
	C68.517776,503.008209 60.504902,504.995117 53.377365,509.697510 
	C39.253342,519.015747 34.444099,533.352783 33.079330,549.040894 
	C31.104883,571.737122 35.575420,593.323181 45.455322,613.934387 
	C52.559383,628.754700 62.717434,639.857300 79.492775,645.122070 
M231.020584,713.681091 
	C235.324295,715.093811 239.628006,716.506592 244.223419,718.015137 
	C240.316742,728.699951 236.331329,739.596069 232.348923,750.493286 
	C228.046341,762.266724 225.121140,774.299255 224.688019,786.918762 
	C223.843552,811.522400 235.194214,827.462769 258.820953,834.270264 
	C274.251251,838.716003 289.978668,839.362488 305.804840,837.202332 
	C321.745575,835.026489 335.050507,827.685730 345.821899,815.760986 
	C356.759155,803.652649 364.102631,789.365479 367.751526,773.740356 
	C373.224945,750.302246 377.619263,726.589661 381.706848,702.861877 
	C383.247009,693.921631 382.949646,684.612244 382.902496,675.474121 
	C382.880096,671.141785 382.691315,665.807861 377.568970,664.076843 
	C372.060669,662.215454 368.416534,666.210388 365.551666,670.161255 
	C362.641846,674.174011 359.665955,678.368042 357.898804,682.938904 
	C351.623779,699.169678 345.510834,715.480713 339.984924,731.978577 
	C334.331390,748.857483 329.050385,765.828247 318.335144,780.395935 
	C313.531097,786.927185 307.898956,792.628479 299.900970,795.043457 
	C291.588776,797.553284 283.149567,797.694580 276.332336,791.568848 
	C269.813049,785.710693 271.710083,777.920654 273.303528,770.511230 
	C273.372772,770.189148 273.540283,769.889404 273.647186,769.574219 
	C277.857635,757.160156 282.129395,744.766418 286.258026,732.325256 
	C290.572906,719.322998 293.895050,706.123535 292.841492,692.241455 
	C291.676880,676.896606 283.831116,667.354248 268.605774,665.033569 
	C260.213745,663.754395 251.363037,664.106628 242.886108,665.120178 
	C232.863953,666.318298 224.652267,671.549255 222.484726,682.133057 
	C220.158554,693.491394 220.294159,704.787537 231.020584,713.681091 
M283.865173,131.273773 
	C289.919189,134.231949 296.271332,136.716110 301.942749,140.282700 
	C307.525085,143.793243 312.583832,148.210159 317.580444,152.564301 
	C331.596008,164.777786 354.898682,167.673950 366.360443,159.612686 
	C375.679108,153.058731 384.041870,145.127747 392.680634,137.636856 
	C395.031708,135.598175 396.847809,132.942627 399.743713,129.610138 
	C397.448822,130.209686 396.511993,130.453598 395.575653,130.699173 
	C378.490112,135.180389 362.991211,133.304611 348.902344,121.310013 
	C337.441528,111.552795 325.007751,102.925972 312.877380,93.971313 
	C301.538422,85.600891 289.796906,84.417480 277.971436,93.022964 
	C265.350769,102.207077 252.668365,111.318779 240.312607,120.850594 
	C230.325760,128.554886 219.925247,129.427750 209.527298,122.444923 
	C205.681702,119.862389 202.114563,116.855095 198.210373,114.371788 
	C184.967636,105.948608 171.699188,97.561218 158.299957,89.390739 
	C152.068649,85.591057 145.552994,86.067818 139.405182,89.854912 
	C119.317924,102.228775 99.225166,114.595795 79.272072,127.183479 
	C75.662460,129.460632 72.520386,132.586105 69.477997,135.634796 
	C60.830967,144.299759 60.824104,155.017929 70.813133,162.138412 
	C78.641808,167.718933 87.938248,171.251877 96.639343,175.580444 
	C97.575516,176.046173 98.997704,176.084091 100.012573,175.756699 
	C109.178047,172.799850 118.302940,169.717224 127.803383,166.550262 
	C122.133858,163.337997 116.802414,160.649414 111.833115,157.405960 
	C107.102867,154.318542 106.068848,150.483261 108.272621,145.281097 
	C110.802658,139.308762 115.630379,135.455597 121.459160,133.062561 
	C132.313110,128.606430 142.863388,130.469360 152.492874,136.322601 
	C161.955231,142.074249 170.896103,148.689072 180.017838,154.994522 
	C193.051758,164.004288 217.049683,169.298370 233.942413,155.217239 
	C239.171097,150.858810 244.679184,146.822144 250.192276,142.821350 
	C259.964569,135.729691 269.893250,128.931503 283.865173,131.273773 
z"/>
<path fill="#020202" opacity="1.000000" stroke="none" 
	d="
M79.111526,645.005493 
	C62.717434,639.857300 52.559383,628.754700 45.455322,613.934387 
	C35.575420,593.323181 31.104883,571.737122 33.079330,549.040894 
	C34.444099,533.352783 39.253342,519.015747 53.377365,509.697510 
	C60.504902,504.995117 68.517776,503.008209 76.850800,502.054169 
	C79.464470,501.754883 82.110497,501.738129 85.164314,501.568604 
	C85.164314,499.372864 85.164322,497.581573 85.164322,495.790283 
	C85.164322,451.627869 84.837341,407.461975 85.312294,363.304657 
	C85.526413,343.398285 77.735985,333.433472 59.841084,326.028412 
	C49.476204,321.739410 38.378857,319.220459 26.536831,315.574158 
	C28.969688,308.011017 31.066561,299.344604 34.493401,291.240570 
	C44.920727,266.581207 58.542747,243.756348 75.728706,223.160233 
	C78.270172,220.114471 81.337334,217.482407 84.312416,214.828354 
	C91.593613,208.332870 100.189453,206.553543 108.893112,210.546417 
	C121.092964,216.143143 133.267624,222.060593 144.617050,229.174591 
	C157.370346,237.168579 170.381500,241.310776 185.319031,238.062927 
	C185.925827,237.931000 186.607468,238.143402 187.708130,238.231842 
	C184.331284,255.528351 178.685654,271.391083 165.281906,283.427002 
	C156.375504,291.424500 145.925888,293.784943 134.635391,290.199677 
	C126.271194,287.543640 118.290329,283.700226 110.067490,280.572968 
	C103.578484,278.105103 97.099190,275.461334 90.398186,273.743896 
	C83.816658,272.057129 78.569382,275.237610 75.420395,280.962860 
	C72.145325,286.917358 69.554726,293.248291 66.517143,299.729706 
	C76.147194,302.247284 85.511932,304.399841 94.691948,307.165497 
	C108.076492,311.197876 121.323761,315.605255 132.948364,323.829132 
	C140.317734,329.042542 144.029663,335.667633 143.916855,344.875702 
	C143.659668,365.870514 143.835693,386.870636 143.835693,407.868622 
	C143.835693,409.676361 143.835678,411.484131 143.835678,413.559509 
	C192.582687,413.559509 241.005600,413.559509 289.584869,413.559509 
	C289.736053,413.226105 290.095642,412.802673 290.096283,412.378662 
	C290.125397,393.881683 290.393585,375.379517 290.042694,356.889191 
	C289.733307,340.586761 279.004425,331.709564 265.394531,326.217865 
	C254.835831,321.957367 243.650574,319.249603 231.577087,315.488159 
	C234.028717,308.070404 236.203094,299.591614 239.581024,291.623016 
	C250.225845,266.511536 263.831024,243.095947 281.700867,222.370224 
	C285.029205,218.509995 289.185547,215.287003 293.265930,212.170776 
	C298.714447,208.009628 305.202393,207.429199 311.300873,209.783539 
	C320.253174,213.239624 328.982971,217.358810 337.543182,221.714966 
	C343.906036,224.952927 349.894409,228.942932 355.969452,232.726547 
	C365.951080,238.943237 376.755524,240.257446 388.143860,238.434372 
	C389.428192,238.228775 390.730835,238.137482 392.720428,237.915619 
	C389.062714,257.024323 383.000092,274.274933 366.946808,286.061676 
	C358.651306,292.152466 349.092712,293.415802 339.387421,290.137451 
	C331.062805,287.325500 323.058838,283.578217 314.833038,280.455383 
	C308.346741,277.992920 301.864716,275.322845 295.148010,273.720703 
	C288.866577,272.222351 283.700714,275.062958 280.679962,280.867188 
	C277.535889,286.908478 274.710846,293.115845 271.470764,299.820770 
	C278.674622,301.619507 285.560760,303.144287 292.333313,305.068939 
	C308.344971,309.619110 324.349609,314.208862 338.207428,324.037384 
	C345.360382,329.110535 348.959503,335.523590 348.941772,344.638092 
	C348.766449,434.795715 348.838470,524.953796 348.833374,615.111755 
	C348.832336,633.505737 341.294525,642.867920 323.223511,646.243164 
	C305.799744,649.497620 288.698486,649.044617 272.786163,639.947937 
	C265.109589,635.559509 259.131897,629.388123 254.811035,621.668274 
	C240.359055,595.847534 233.853333,568.486633 239.803024,539.045288 
	C244.525406,515.677063 259.697449,504.472046 282.112030,502.044464 
	C284.573181,501.777924 287.058014,501.729858 289.837646,501.561951 
	C289.837646,482.057831 289.837646,462.821899 289.837646,443.293396 
	C241.415634,443.293396 192.853668,443.293396 143.835678,443.293396 
	C143.835678,445.133514 143.835693,446.910950 143.835693,448.688385 
	C143.835693,504.349701 143.850510,560.010986 143.826859,615.672302 
	C143.819504,632.967834 135.989502,642.572510 119.050247,646.109375 
	C115.959892,646.754639 112.808479,647.176758 109.663857,647.480164 
	C99.476944,648.462952 89.367317,648.237427 79.111526,645.005493 
M66.872375,591.470520 
	C70.620293,598.753174 76.036690,603.618530 84.892105,603.819641 
	C84.892105,579.545288 84.892105,555.314331 84.892105,531.080566 
	C73.037895,531.228638 65.481827,536.875732 63.261715,548.060669 
	C60.390800,562.524353 61.376060,576.847168 66.872375,591.470520 
M287.164581,603.573364 
	C291.121765,604.841980 290.143707,601.874878 290.146942,599.975525 
	C290.181305,579.833008 290.168304,559.690430 290.168304,539.547852 
	C290.168304,536.759949 290.168304,533.972046 290.168304,531.201294 
	C278.422791,530.962158 270.688202,536.770752 268.264679,547.903625 
	C265.411102,561.011902 266.501129,574.153320 270.195343,586.865845 
	C272.510712,594.833496 276.972290,601.803528 287.164581,603.573364 
z"/>
<path fill="#010101" opacity="1.000000" stroke="none" 
	d="
M230.729111,713.451782 
	C220.294159,704.787537 220.158554,693.491394 222.484726,682.133057 
	C224.652267,671.549255 232.863953,666.318298 242.886108,665.120178 
	C251.363037,664.106628 260.213745,663.754395 268.605774,665.033569 
	C283.831116,667.354248 291.676880,676.896606 292.841492,692.241455 
	C293.895050,706.123535 290.572906,719.322998 286.258026,732.325256 
	C282.129395,744.766418 277.857635,757.160156 273.647186,769.574219 
	C273.540283,769.889404 273.372772,770.189148 273.303528,770.511230 
	C271.710083,777.920654 269.813049,785.710693 276.332336,791.568848 
	C283.149567,797.694580 291.588776,797.553284 299.900970,795.043457 
	C307.898956,792.628479 313.531097,786.927185 318.335144,780.395935 
	C329.050385,765.828247 334.331390,748.857483 339.984924,731.978577 
	C345.510834,715.480713 351.623779,699.169678 357.898804,682.938904 
	C359.665955,678.368042 362.641846,674.174011 365.551666,670.161255 
	C368.416534,666.210388 372.060669,662.215454 377.568970,664.076843 
	C382.691315,665.807861 382.880096,671.141785 382.902496,675.474121 
	C382.949646,684.612244 383.247009,693.921631 381.706848,702.861877 
	C377.619263,726.589661 373.224945,750.302246 367.751526,773.740356 
	C364.102631,789.365479 356.759155,803.652649 345.821899,815.760986 
	C335.050507,827.685730 321.745575,835.026489 305.804840,837.202332 
	C289.978668,839.362488 274.251251,838.716003 258.820953,834.270264 
	C235.194214,827.462769 223.843552,811.522400 224.688019,786.918762 
	C225.121140,774.299255 228.046341,762.266724 232.348923,750.493286 
	C236.331329,739.596069 240.316742,728.699951 244.223419,718.015137 
	C239.628006,716.506592 235.324295,715.093811 230.729111,713.451782 
z"/>
<path fill="#C46F34" opacity="1.000000" stroke="none" 
	d="
M283.430481,131.183105 
	C269.893250,128.931503 259.964569,135.729691 250.192276,142.821350 
	C244.679184,146.822144 239.171097,150.858810 233.942413,155.217239 
	C217.049683,169.298370 193.051758,164.004288 180.017838,154.994522 
	C170.896103,148.689072 161.955231,142.074249 152.492874,136.322601 
	C142.863388,130.469360 132.313110,128.606430 121.459160,133.062561 
	C115.630379,135.455597 110.802658,139.308762 108.272621,145.281097 
	C106.068848,150.483261 107.102867,154.318542 111.833115,157.405960 
	C116.802414,160.649414 122.133858,163.337997 127.803383,166.550262 
	C118.302940,169.717224 109.178047,172.799850 100.012573,175.756699 
	C98.997704,176.084091 97.575516,176.046173 96.639343,175.580444 
	C87.938248,171.251877 78.641808,167.718933 70.813133,162.138412 
	C60.824104,155.017929 60.830967,144.299759 69.477997,135.634796 
	C72.520386,132.586105 75.662460,129.460632 79.272072,127.183479 
	C99.225166,114.595795 119.317924,102.228775 139.405182,89.854912 
	C145.552994,86.067818 152.068649,85.591057 158.299957,89.390739 
	C171.699188,97.561218 184.967636,105.948608 198.210373,114.371788 
	C202.114563,116.855095 205.681702,119.862389 209.527298,122.444923 
	C219.925247,129.427750 230.325760,128.554886 240.312607,120.850594 
	C252.668365,111.318779 265.350769,102.207077 277.971436,93.022964 
	C289.796906,84.417480 301.538422,85.600891 312.877380,93.971313 
	C325.007751,102.925972 337.441528,111.552795 348.902344,121.310013 
	C362.991211,133.304611 378.490112,135.180389 395.575653,130.699173 
	C396.511993,130.453598 397.448822,130.209686 399.743713,129.610138 
	C396.847809,132.942627 395.031708,135.598175 392.680634,137.636856 
	C384.041870,145.127747 375.679108,153.058731 366.360443,159.612686 
	C354.898682,167.673950 331.596008,164.777786 317.580444,152.564301 
	C312.583832,148.210159 307.525085,143.793243 301.942749,140.282700 
	C296.271332,136.716110 289.919189,134.231949 283.430481,131.183105 
z"/>
<path fill="#FDFDFD" opacity="1.000000" stroke="none" 
	d="
M66.731613,591.115295 
	C61.376060,576.847168 60.390800,562.524353 63.261715,548.060669 
	C65.481827,536.875732 73.037895,531.228638 84.892105,531.080566 
	C84.892105,555.314331 84.892105,579.545288 84.892105,603.819641 
	C76.036690,603.618530 70.620293,598.753174 66.731613,591.115295 
z"/>
<path fill="#FDFDFD" opacity="1.000000" stroke="none" 
	d="
M286.756042,603.490295 
	C276.972290,601.803528 272.510712,594.833496 270.195343,586.865845 
	C266.501129,574.153320 265.411102,561.011902 268.264679,547.903625 
	C270.688202,536.770752 278.422791,530.962158 290.168304,531.201294 
	C290.168304,533.972046 290.168304,536.759949 290.168304,539.547852 
	C290.168304,559.690430 290.181305,579.833008 290.146942,599.975525 
	C290.143707,601.874878 291.121765,604.841980 286.756042,603.490295 
z"/>
</svg>