<svg version="1.1" id="Layer_1" xmlns="http://www.w3.org/2000/svg" xmlns:xlink="http://www.w3.org/1999/xlink" x="0px" y="0px"
	 width="100%" viewBox="0 0 996 892" enable-background="new 0 0 996 892" xml:space="preserve">
<path fill="#FFFFFF" opacity="1.000000" stroke="none" 
	d="
M600.000000,893.000000 
	C400.000000,893.000000 200.500000,893.000000 1.000000,893.000000 
	C1.000000,595.666687 1.000000,298.333344 1.000000,1.000000 
	C333.000000,1.000000 665.000000,1.000000 997.000000,1.000000 
	C997.000000,298.333344 997.000000,595.666687 997.000000,893.000000 
	C864.833313,893.000000 732.666687,893.000000 600.000000,893.000000 
M967.409729,598.500061 
	C967.409668,516.507141 967.435547,434.514221 967.391235,352.521301 
	C967.380371,332.359009 967.651062,312.176666 966.856018,292.040497 
	C966.129028,273.626038 959.186584,257.435364 946.059814,244.154800 
	C930.083313,227.991119 909.562744,221.264557 888.120422,217.156906 
	C861.644653,212.085007 834.845886,211.250275 808.020325,214.086243 
	C789.355042,216.059525 771.110413,220.018188 754.823242,229.842255 
	C748.357117,233.742554 742.722229,239.020950 736.375671,243.929657 
	C735.041870,242.755219 733.501831,241.260956 731.823242,239.943115 
	C718.716125,229.652679 705.688293,219.238113 689.458618,214.030823 
	C682.728760,211.871552 676.215210,212.157227 670.314758,216.119186 
	C664.799377,219.822525 659.192871,223.567139 654.372681,228.089005 
	C646.271240,235.689072 638.761353,243.919739 630.806030,252.086945 
	C627.899048,249.035324 625.755554,246.463379 623.288818,244.251953 
	C613.148376,235.161026 603.111023,225.936935 592.633423,217.246902 
	C586.091797,211.821365 578.341675,211.648666 570.406921,214.416733 
	C555.497803,219.617813 543.117065,228.975357 531.007141,238.627533 
	C509.246338,255.971893 498.469360,278.119202 498.623688,306.626068 
	C499.185760,410.449982 498.843597,514.278748 498.856689,618.105713 
	C498.857025,620.936279 498.829437,623.788513 499.147675,626.592896 
	C499.845306,632.740540 502.319794,637.996277 506.978271,642.292542 
	C514.328125,649.070984 523.504883,650.370178 532.815247,651.521973 
	C565.359558,655.547974 592.250427,640.391724 603.763062,610.295837 
	C615.401001,579.872314 618.662903,548.144043 613.708435,516.011230 
	C611.022705,498.592285 600.961792,485.588287 583.392273,480.316681 
	C575.056763,477.815704 566.254395,476.870453 557.365051,475.163055 
	C557.339233,474.972961 557.175598,474.329681 557.175598,473.686401 
	C557.172729,415.690155 557.103455,357.693726 557.266846,299.697906 
	C557.295044,289.680939 558.789551,279.816986 563.775452,270.762451 
	C571.908997,255.991562 582.856079,252.939880 596.085083,263.164886 
	C603.913635,269.215759 610.686768,276.714752 617.495178,283.974579 
	C622.198120,288.989288 626.149780,294.708496 630.604492,300.323822 
	C632.649658,297.579346 634.213806,294.965790 636.264465,292.816345 
	C645.887390,282.729462 654.898315,271.874634 665.551392,263.003632 
	C677.490906,253.061417 687.509460,255.663528 696.067932,268.695465 
	C696.524170,269.390259 696.919556,270.125946 697.326721,270.851898 
	C703.086121,281.121613 703.797913,292.443298 703.804626,303.791595 
	C703.872070,417.617859 703.845642,531.444214 703.845642,645.270569 
	C703.845642,647.377441 703.845703,649.484375 703.845703,651.749084 
	C723.507751,651.749084 742.587769,651.749084 762.154297,651.749084 
	C762.154297,649.385559 762.154358,647.265625 762.154358,645.145752 
	C762.154358,536.152466 762.137390,427.159149 762.186584,318.165863 
	C762.190491,309.512177 762.482910,300.849762 762.935181,292.206818 
	C764.011047,271.648712 776.906189,254.573563 796.290100,247.900879 
	C818.483459,240.261078 841.073059,240.313599 863.819336,244.781662 
	C880.026306,247.965195 893.576843,255.296371 901.916809,270.272858 
	C907.699280,280.656677 908.837952,292.048950 908.839050,303.641449 
	C908.849976,417.467773 908.845642,531.294128 908.845642,645.120422 
	C908.845642,647.242981 908.845703,649.365540 908.845703,651.704712 
	C928.546692,651.704712 947.778870,651.704712 967.410217,651.704712 
	C967.410217,634.108276 967.410217,616.804199 967.409729,598.500061 
M283.946930,339.544678 
	C289.379700,344.622101 292.709686,350.729767 293.148071,358.265442 
	C293.225403,359.594910 293.481812,360.920197 293.479675,362.247101 
	C293.367401,431.908539 293.403412,501.570923 293.008423,571.230835 
	C292.884674,593.050537 277.521179,612.029663 256.469788,617.829285 
	C235.553986,623.591614 214.377121,624.106323 193.148178,619.959229 
	C177.441757,616.890991 163.859711,610.110779 155.040527,595.952820 
	C148.429153,585.339233 147.170197,573.500366 147.169937,561.379700 
	C147.168457,490.548218 147.062134,419.716400 147.297363,348.885712 
	C147.328583,339.489044 143.483139,333.080353 136.242706,327.907990 
	C123.537064,318.831329 108.889885,314.358795 94.178223,310.092010 
	C86.223595,307.784973 78.135994,305.936462 69.684158,303.772461 
	C73.051338,296.925018 76.050919,290.257568 79.560486,283.870300 
	C82.298508,278.887299 87.102768,276.691406 92.618736,277.567688 
	C97.490807,278.341675 102.356262,279.719513 106.958939,281.512726 
	C117.316071,285.547943 127.315666,290.574585 137.820526,294.136810 
	C149.014267,297.932678 159.453354,295.410034 168.466721,287.475220 
	C182.063477,275.505524 187.778870,259.707458 190.921249,242.207062 
	C189.803314,242.147858 188.967728,241.927292 188.214859,242.089859 
	C174.020813,245.154861 161.528976,241.514664 149.324860,233.914795 
	C137.938690,226.824280 125.819557,220.828400 113.703941,215.015854 
	C102.686996,209.730408 93.000008,213.231842 84.656685,221.425552 
	C82.994759,223.057678 81.167534,224.599442 79.840065,226.481583 
	C70.835205,239.248978 61.291939,251.699295 53.178768,265.017273 
	C42.707214,282.206635 34.158974,300.417389 30.251217,319.698120 
	C41.447083,323.124054 52.713612,325.639587 63.218800,329.992493 
	C81.506195,337.569977 88.691994,347.362732 88.601105,366.819855 
	C88.320862,426.816956 88.476723,486.816254 88.522781,546.814636 
	C88.529678,555.809509 88.390114,564.843384 89.142654,573.789856 
	C90.301613,587.567810 94.321121,600.485413 102.626419,611.858398 
	C116.046043,630.234924 135.227692,639.264771 156.384003,644.830688 
	C183.567276,651.982117 211.352417,652.896790 239.235001,651.473450 
	C259.918152,650.417786 280.346008,647.517578 299.781708,639.873108 
	C318.935059,632.339722 334.929535,620.939575 344.147003,601.828552 
	C350.348114,588.971436 352.219086,575.224609 352.203796,561.056580 
	C352.127563,490.391876 352.060425,419.726685 352.299652,349.062683 
	C352.331238,339.722260 348.770233,333.216125 341.475647,327.974213 
	C329.626007,319.459015 316.004272,315.082550 302.302856,310.961334 
	C293.316681,308.258392 284.144714,306.173279 274.855286,303.759338 
	C277.711182,297.623962 280.216736,291.814056 283.084717,286.188873 
	C286.596008,279.301941 291.833679,276.497742 299.377716,277.760712 
	C303.591034,278.466034 307.764801,279.814606 311.750580,281.393005 
	C322.239624,285.546631 332.460876,290.423035 343.082153,294.182770 
	C353.145111,297.744934 363.033081,295.872620 371.401093,289.319458 
	C386.561676,277.446899 392.647797,260.615021 396.223083,242.153809 
	C394.795074,242.153809 393.798553,241.993820 392.870209,242.177872 
	C379.646301,244.799820 367.645477,242.203796 356.180878,234.979080 
	C345.785431,228.428101 335.049194,222.287964 323.985443,216.958557 
	C308.271637,209.389221 299.408478,211.407822 287.252930,223.755646 
	C286.436310,224.585220 285.664001,225.460510 284.901245,226.340683 
	C270.296936,243.192490 258.901062,262.128998 248.961975,281.983826 
	C242.806564,294.280151 237.993439,307.077606 235.145264,320.752167 
	C252.651321,323.849304 269.538147,327.539886 283.946930,339.544678 
M614.859070,811.639709 
	C625.772034,833.945862 642.667725,843.784851 667.464050,841.993652 
	C678.690063,841.182678 688.735352,836.521973 697.652710,830.164856 
	C710.160950,821.247925 721.995239,811.385559 735.427429,800.905884 
	C737.667969,803.587097 740.179138,807.185120 743.269958,810.186096 
	C755.339844,821.905212 768.184937,832.672119 784.315002,838.408875 
	C804.777466,845.686462 824.495667,844.217529 840.355652,828.519897 
	C856.025330,813.010742 862.407349,792.540710 864.879089,771.029846 
	C866.021851,761.084473 865.622803,761.472595 874.698975,757.789612 
	C880.373291,755.487061 885.962280,752.212097 890.537476,748.179810 
	C895.012634,744.235657 894.890747,736.400696 891.790710,731.522949 
	C889.348999,727.681091 885.426514,726.834351 878.294739,728.882141 
	C873.279480,730.322205 868.334045,732.005493 863.185730,733.634583 
	C862.459961,730.645569 861.858887,727.741455 861.047119,724.897461 
	C856.343445,708.419556 848.712646,694.009949 832.274902,686.399780 
	C820.111450,680.768433 807.282837,680.212769 794.246826,682.599854 
	C785.750916,684.155579 778.182434,687.413574 772.431763,694.225708 
	C764.244934,703.923645 762.929443,715.551392 763.072021,727.505188 
	C763.179993,736.557800 764.767395,745.406860 769.972412,753.072571 
	C777.427063,764.051514 788.633606,768.069092 801.246521,768.796753 
	C807.843323,769.177307 814.480042,768.863892 822.364136,768.863892 
	C820.202393,777.696289 818.908447,786.096680 816.037292,793.918091 
	C812.523376,803.490234 803.857178,806.797546 794.448242,802.868225 
	C789.015198,800.599243 783.579346,797.984375 778.777588,794.621643 
	C763.496094,783.919678 748.511353,772.794067 733.030945,761.555664 
	C731.043945,763.099609 728.464050,765.137146 725.850159,767.129944 
	C709.478210,779.611816 693.752991,793.034851 675.194580,802.359741 
	C665.826965,807.066589 654.568665,802.843201 651.021118,792.928894 
	C649.200439,787.840515 648.123230,782.395020 647.409668,777.018127 
	C644.963928,758.586792 644.911926,740.226868 650.118347,722.140747 
	C652.123535,715.175354 655.622498,710.577148 663.777527,710.021912 
	C671.772766,709.477600 675.282043,704.008972 675.004150,694.765503 
	C674.770203,686.984009 670.591309,681.954651 663.052063,681.554749 
	C640.141907,680.339478 619.990173,689.282532 610.246582,713.120239 
	C596.704407,746.251099 599.751221,778.942078 614.859070,811.639709 
M684.734802,153.747772 
	C686.378845,155.140884 687.932983,156.660049 689.681396,157.906830 
	C701.773865,166.530121 715.764099,168.410095 730.007690,168.448456 
	C790.000183,168.610062 849.993408,168.527435 909.986328,168.489639 
	C913.471985,168.487457 917.018188,168.432739 920.432434,167.822144 
	C935.353943,165.153671 938.382874,160.989151 938.283386,147.799683 
	C937.981750,107.806656 938.174255,67.809898 938.174255,27.814596 
	C938.174255,26.022417 938.174255,24.230240 938.174255,22.294376 
	C924.942993,22.294376 912.065979,22.294376 898.814636,22.294376 
	C898.814636,49.963501 898.814636,77.334915 898.814636,105.056458 
	C897.976440,104.589241 897.537781,104.416367 897.183228,104.136871 
	C880.533203,91.010918 862.855225,79.569931 843.624390,70.508110 
	C814.352478,56.714802 783.711182,50.021141 751.318176,51.831844 
	C735.640198,52.708210 720.401550,55.383785 706.431946,63.070435 
	C685.290649,74.703224 676.624695,93.689034 674.818420,116.734169 
	C673.778931,129.995575 675.016602,142.640533 684.734802,153.747772 
z"/>
<path fill="#C46F33" opacity="1.000000" stroke="none" 
	d="
M967.409973,599.000122 
	C967.410217,616.804199 967.410217,634.108276 967.410217,651.704712 
	C947.778870,651.704712 928.546692,651.704712 908.845703,651.704712 
	C908.845703,649.365540 908.845642,647.242981 908.845642,645.120422 
	C908.845642,531.294128 908.849976,417.467773 908.839050,303.641449 
	C908.837952,292.048950 907.699280,280.656677 901.916809,270.272858 
	C893.576843,255.296371 880.026306,247.965195 863.819336,244.781662 
	C841.073059,240.313599 818.483459,240.261078 796.290100,247.900879 
	C776.906189,254.573563 764.011047,271.648712 762.935181,292.206818 
	C762.482910,300.849762 762.190491,309.512177 762.186584,318.165863 
	C762.137390,427.159149 762.154358,536.152466 762.154358,645.145752 
	C762.154358,647.265625 762.154297,649.385559 762.154297,651.749084 
	C742.587769,651.749084 723.507751,651.749084 703.845703,651.749084 
	C703.845703,649.484375 703.845642,647.377441 703.845642,645.270569 
	C703.845642,531.444214 703.872070,417.617859 703.804626,303.791595 
	C703.797913,292.443298 703.086121,281.121613 697.326721,270.851898 
	C696.919556,270.125946 696.524170,269.390259 696.067932,268.695465 
	C687.509460,255.663528 677.490906,253.061417 665.551392,263.003632 
	C654.898315,271.874634 645.887390,282.729462 636.264465,292.816345 
	C634.213806,294.965790 632.649658,297.579346 630.604492,300.323822 
	C626.149780,294.708496 622.198120,288.989288 617.495178,283.974579 
	C610.686768,276.714752 603.913635,269.215759 596.085083,263.164886 
	C582.856079,252.939880 571.908997,255.991562 563.775452,270.762451 
	C558.789551,279.816986 557.295044,289.680939 557.266846,299.697906 
	C557.103455,357.693726 557.172729,415.690155 557.175598,473.686401 
	C557.175598,474.329681 557.339233,474.972961 557.365051,475.163055 
	C566.254395,476.870453 575.056763,477.815704 583.392273,480.316681 
	C600.961792,485.588287 611.022705,498.592285 613.708435,516.011230 
	C618.662903,548.144043 615.401001,579.872314 603.763062,610.295837 
	C592.250427,640.391724 565.359558,655.547974 532.815247,651.521973 
	C523.504883,650.370178 514.328125,649.070984 506.978271,642.292542 
	C502.319794,637.996277 499.845306,632.740540 499.147675,626.592896 
	C498.829437,623.788513 498.857025,620.936279 498.856689,618.105713 
	C498.843597,514.278748 499.185760,410.449982 498.623688,306.626068 
	C498.469360,278.119202 509.246338,255.971893 531.007141,238.627533 
	C543.117065,228.975357 555.497803,219.617813 570.406921,214.416733 
	C578.341675,211.648666 586.091797,211.821365 592.633423,217.246902 
	C603.111023,225.936935 613.148376,235.161026 623.288818,244.251953 
	C625.755554,246.463379 627.899048,249.035324 630.806030,252.086945 
	C638.761353,243.919739 646.271240,235.689072 654.372681,228.089005 
	C659.192871,223.567139 664.799377,219.822525 670.314758,216.119186 
	C676.215210,212.157227 682.728760,211.871552 689.458618,214.030823 
	C705.688293,219.238113 718.716125,229.652679 731.823242,239.943115 
	C733.501831,241.260956 735.041870,242.755219 736.375671,243.929657 
	C742.722229,239.020950 748.357117,233.742554 754.823242,229.842255 
	C771.110413,220.018188 789.355042,216.059525 808.020325,214.086243 
	C834.845886,211.250275 861.644653,212.085007 888.120422,217.156906 
	C909.562744,221.264557 930.083313,227.991119 946.059814,244.154800 
	C959.186584,257.435364 966.129028,273.626038 966.856018,292.040497 
	C967.651062,312.176666 967.380371,332.359009 967.391235,352.521301 
	C967.435547,434.514221 967.409668,516.507141 967.409973,599.000122 
M585.837463,557.266663 
	C586.076355,550.450012 586.424133,543.635193 586.534058,536.816467 
	C586.872925,515.804810 576.261108,504.607819 557.425049,506.066711 
	C557.425049,539.928040 557.425049,573.794495 557.425049,607.879883 
	C565.492615,607.911499 570.932678,603.892029 574.890625,597.722656 
	C582.596375,585.711182 584.137817,571.928467 585.837463,557.266663 
z"/>
<path fill="#010101" opacity="1.000000" stroke="none" 
	d="
M283.677338,339.311157 
	C269.538147,327.539886 252.651321,323.849304 235.145264,320.752167 
	C237.993439,307.077606 242.806564,294.280151 248.961975,281.983826 
	C258.901062,262.128998 270.296936,243.192490 284.901245,226.340683 
	C285.664001,225.460510 286.436310,224.585220 287.252930,223.755646 
	C299.408478,211.407822 308.271637,209.389221 323.985443,216.958557 
	C335.049194,222.287964 345.785431,228.428101 356.180878,234.979080 
	C367.645477,242.203796 379.646301,244.799820 392.870209,242.177872 
	C393.798553,241.993820 394.795074,242.153809 396.223083,242.153809 
	C392.647797,260.615021 386.561676,277.446899 371.401093,289.319458 
	C363.033081,295.872620 353.145111,297.744934 343.082153,294.182770 
	C332.460876,290.423035 322.239624,285.546631 311.750580,281.393005 
	C307.764801,279.814606 303.591034,278.466034 299.377716,277.760712 
	C291.833679,276.497742 286.596008,279.301941 283.084717,286.188873 
	C280.216736,291.814056 277.711182,297.623962 274.855286,303.759338 
	C284.144714,306.173279 293.316681,308.258392 302.302856,310.961334 
	C316.004272,315.082550 329.626007,319.459015 341.475647,327.974213 
	C348.770233,333.216125 352.331238,339.722260 352.299652,349.062683 
	C352.060425,419.726685 352.127563,490.391876 352.203796,561.056580 
	C352.219086,575.224609 350.348114,588.971436 344.147003,601.828552 
	C334.929535,620.939575 318.935059,632.339722 299.781708,639.873108 
	C280.346008,647.517578 259.918152,650.417786 239.235001,651.473450 
	C211.352417,652.896790 183.567276,651.982117 156.384003,644.830688 
	C135.227692,639.264771 116.046043,630.234924 102.626419,611.858398 
	C94.321121,600.485413 90.301613,587.567810 89.142654,573.789856 
	C88.390114,564.843384 88.529678,555.809509 88.522781,546.814636 
	C88.476723,486.816254 88.320862,426.816956 88.601105,366.819855 
	C88.691994,347.362732 81.506195,337.569977 63.218800,329.992493 
	C52.713612,325.639587 41.447083,323.124054 30.251217,319.698120 
	C34.158974,300.417389 42.707214,282.206635 53.178768,265.017273 
	C61.291939,251.699295 70.835205,239.248978 79.840065,226.481583 
	C81.167534,224.599442 82.994759,223.057678 84.656685,221.425552 
	C93.000008,213.231842 102.686996,209.730408 113.703941,215.015854 
	C125.819557,220.828400 137.938690,226.824280 149.324860,233.914795 
	C161.528976,241.514664 174.020813,245.154861 188.214859,242.089859 
	C188.967728,241.927292 189.803314,242.147858 190.921249,242.207062 
	C187.778870,259.707458 182.063477,275.505524 168.466721,287.475220 
	C159.453354,295.410034 149.014267,297.932678 137.820526,294.136810 
	C127.315666,290.574585 117.316071,285.547943 106.958939,281.512726 
	C102.356262,279.719513 97.490807,278.341675 92.618736,277.567688 
	C87.102768,276.691406 82.298508,278.887299 79.560486,283.870300 
	C76.050919,290.257568 73.051338,296.925018 69.684158,303.772461 
	C78.135994,305.936462 86.223595,307.784973 94.178223,310.092010 
	C108.889885,314.358795 123.537064,318.831329 136.242706,327.907990 
	C143.483139,333.080353 147.328583,339.489044 147.297363,348.885712 
	C147.062134,419.716400 147.168457,490.548218 147.169937,561.379700 
	C147.170197,573.500366 148.429153,585.339233 155.040527,595.952820 
	C163.859711,610.110779 177.441757,616.890991 193.148178,619.959229 
	C214.377121,624.106323 235.553986,623.591614 256.469788,617.829285 
	C277.521179,612.029663 292.884674,593.050537 293.008423,571.230835 
	C293.403412,501.570923 293.367401,431.908539 293.479675,362.247101 
	C293.481812,360.920197 293.225403,359.594910 293.148071,358.265442 
	C292.709686,350.729767 289.379700,344.622101 283.677338,339.311157 
z"/>
<path fill="#030303" opacity="1.000000" stroke="none" 
	d="
M614.671753,811.314941 
	C599.751221,778.942078 596.704407,746.251099 610.246582,713.120239 
	C619.990173,689.282532 640.141907,680.339478 663.052063,681.554749 
	C670.591309,681.954651 674.770203,686.984009 675.004150,694.765503 
	C675.282043,704.008972 671.772766,709.477600 663.777527,710.021912 
	C655.622498,710.577148 652.123535,715.175354 650.118347,722.140747 
	C644.911926,740.226868 644.963928,758.586792 647.409668,777.018127 
	C648.123230,782.395020 649.200439,787.840515 651.021118,792.928894 
	C654.568665,802.843201 665.826965,807.066589 675.194580,802.359741 
	C693.752991,793.034851 709.478210,779.611816 725.850159,767.129944 
	C728.464050,765.137146 731.043945,763.099609 733.030945,761.555664 
	C748.511353,772.794067 763.496094,783.919678 778.777588,794.621643 
	C783.579346,797.984375 789.015198,800.599243 794.448242,802.868225 
	C803.857178,806.797546 812.523376,803.490234 816.037292,793.918091 
	C818.908447,786.096680 820.202393,777.696289 822.364136,768.863892 
	C814.480042,768.863892 807.843323,769.177307 801.246521,768.796753 
	C788.633606,768.069092 777.427063,764.051514 769.972412,753.072571 
	C764.767395,745.406860 763.179993,736.557800 763.072021,727.505188 
	C762.929443,715.551392 764.244934,703.923645 772.431763,694.225708 
	C778.182434,687.413574 785.750916,684.155579 794.246826,682.599854 
	C807.282837,680.212769 820.111450,680.768433 832.274902,686.399780 
	C848.712646,694.009949 856.343445,708.419556 861.047119,724.897461 
	C861.858887,727.741455 862.459961,730.645569 863.185730,733.634583 
	C868.334045,732.005493 873.279480,730.322205 878.294739,728.882141 
	C885.426514,726.834351 889.348999,727.681091 891.790710,731.522949 
	C894.890747,736.400696 895.012634,744.235657 890.537476,748.179810 
	C885.962280,752.212097 880.373291,755.487061 874.698975,757.789612 
	C865.622803,761.472595 866.021851,761.084473 864.879089,771.029846 
	C862.407349,792.540710 856.025330,813.010742 840.355652,828.519897 
	C824.495667,844.217529 804.777466,845.686462 784.315002,838.408875 
	C768.184937,832.672119 755.339844,821.905212 743.269958,810.186096 
	C740.179138,807.185120 737.667969,803.587097 735.427429,800.905884 
	C721.995239,811.385559 710.160950,821.247925 697.652710,830.164856 
	C688.735352,836.521973 678.690063,841.182678 667.464050,841.993652 
	C642.667725,843.784851 625.772034,833.945862 614.671753,811.314941 
M792.486389,723.119690 
	C791.510376,732.509460 795.370422,738.837769 803.270752,739.639648 
	C808.828186,740.203735 814.489014,739.748657 821.396667,739.748657 
	C819.376465,732.097778 817.900513,724.869690 815.481140,717.972534 
	C814.074951,713.963501 811.284058,710.633972 805.941040,710.760803 
	C797.988281,710.949524 794.362061,713.829468 792.486389,723.119690 
z"/>
<path fill="#030303" opacity="1.000000" stroke="none" 
	d="
M684.483215,153.495911 
	C675.016602,142.640533 673.778931,129.995575 674.818420,116.734169 
	C676.624695,93.689034 685.290649,74.703224 706.431946,63.070435 
	C720.401550,55.383785 735.640198,52.708210 751.318176,51.831844 
	C783.711182,50.021141 814.352478,56.714802 843.624390,70.508110 
	C862.855225,79.569931 880.533203,91.010918 897.183228,104.136871 
	C897.537781,104.416367 897.976440,104.589241 898.814636,105.056458 
	C898.814636,77.334915 898.814636,49.963501 898.814636,22.294376 
	C912.065979,22.294376 924.942993,22.294376 938.174255,22.294376 
	C938.174255,24.230240 938.174255,26.022417 938.174255,27.814596 
	C938.174255,67.809898 937.981750,107.806656 938.283386,147.799683 
	C938.382874,160.989151 935.353943,165.153671 920.432434,167.822144 
	C917.018188,168.432739 913.471985,168.487457 909.986328,168.489639 
	C849.993408,168.527435 790.000183,168.610062 730.007690,168.448456 
	C715.764099,168.410095 701.773865,166.530121 689.681396,157.906830 
	C687.932983,156.660049 686.378845,155.140884 684.483215,153.495911 
M719.227966,117.339195 
	C719.135437,118.165100 719.067139,118.994545 718.946716,119.816360 
	C717.188843,131.818008 720.639771,139.471130 736.430481,139.322006 
	C783.888794,138.873810 831.354004,139.160507 878.816528,139.160507 
	C880.503845,139.160507 882.191223,139.160507 885.103577,139.160507 
	C881.793091,136.720062 879.803467,134.983337 877.571899,133.651962 
	C862.984131,124.948616 848.990173,114.883362 833.576416,108.013092 
	C807.484802,96.383438 779.381470,94.019241 751.098450,96.156204 
	C737.327393,97.196693 724.505432,101.191704 719.227966,117.339195 
z"/>
<path fill="#FEFDFC" opacity="1.000000" stroke="none" 
	d="
M585.807007,557.736145 
	C584.137817,571.928467 582.596375,585.711182 574.890625,597.722656 
	C570.932678,603.892029 565.492615,607.911499 557.425049,607.879883 
	C557.425049,573.794495 557.425049,539.928040 557.425049,506.066711 
	C576.261108,504.607819 586.872925,515.804810 586.534058,536.816467 
	C586.424133,543.635193 586.076355,550.450012 585.807007,557.736145 
z"/>
<path fill="#FDFDFD" opacity="1.000000" stroke="none" 
	d="
M792.499023,722.710632 
	C794.362061,713.829468 797.988281,710.949524 805.941040,710.760803 
	C811.284058,710.633972 814.074951,713.963501 815.481140,717.972534 
	C817.900513,724.869690 819.376465,732.097778 821.396667,739.748657 
	C814.489014,739.748657 808.828186,740.203735 803.270752,739.639648 
	C795.370422,738.837769 791.510376,732.509460 792.499023,722.710632 
z"/>
<path fill="#FFFFFF" opacity="1.000000" stroke="none" 
	d="
M719.372070,116.941498 
	C724.505432,101.191704 737.327393,97.196693 751.098450,96.156204 
	C779.381470,94.019241 807.484802,96.383438 833.576416,108.013092 
	C848.990173,114.883362 862.984131,124.948616 877.571899,133.651962 
	C879.803467,134.983337 881.793091,136.720062 885.103577,139.160507 
	C882.191223,139.160507 880.503845,139.160507 878.816528,139.160507 
	C831.354004,139.160507 783.888794,138.873810 736.430481,139.322006 
	C720.639771,139.471130 717.188843,131.818008 718.946716,119.816360 
	C719.067139,118.994545 719.135437,118.165100 719.372070,116.941498 
z"/>
</svg>