<svg version="1.1" id="Layer_1" xmlns="http://www.w3.org/2000/svg" xmlns:xlink="http://www.w3.org/1999/xlink" x="0px" y="0px"
	 width="100%" viewBox="0 0 816 872" enable-background="new 0 0 816 872" xml:space="preserve">
<path fill="#FFFFFF" opacity="1.000000" stroke="none" 
	d="
M510.000000,873.000000 
	C340.000061,873.000000 170.500107,873.000000 1.000114,873.000000 
	C1.000076,582.333496 1.000076,291.666931 1.000038,1.000309 
	C272.999786,1.000206 544.999573,1.000206 816.999512,1.000103 
	C816.999634,291.666351 816.999634,582.332703 816.999817,872.999512 
	C714.833313,873.000000 612.666687,873.000000 510.000000,873.000000 
M59.976231,353.214508 
	C61.727856,349.013153 62.489185,343.874420 65.414474,340.784027 
	C74.648651,331.028595 85.516762,323.447845 98.785477,319.772308 
	C121.408707,313.505493 144.691818,311.559418 167.906494,310.238861 
	C194.963287,308.699738 221.793533,311.995636 248.010391,319.097168 
	C271.110291,325.354370 292.957916,334.780792 309.939240,351.973480 
	C322.624817,364.816925 333.335724,379.610107 344.934662,393.527832 
	C348.120483,397.350525 350.999237,401.513489 354.625580,404.863586 
	C359.246246,409.132233 363.486755,408.755859 368.527618,405.167725 
	C374.321655,401.043427 377.953613,395.628845 380.342316,388.940918 
	C384.632202,376.930084 385.033966,364.690399 382.352417,352.522278 
	C376.049622,323.922089 364.358429,297.685730 346.910156,274.005585 
	C332.525299,254.482986 315.369324,238.334824 293.060486,228.339188 
	C275.836670,220.621948 257.835175,215.160706 239.172791,212.262680 
	C214.233551,208.389984 189.177063,208.191757 164.976822,215.769440 
	C149.191101,220.712357 133.657318,227.173035 118.990791,234.830933 
	C86.851173,251.612213 58.074329,274.267029 25.040586,289.621857 
	C23.983223,290.113342 23.091408,292.190826 23.086615,293.532410 
	C23.014568,313.695282 23.104612,333.858673 23.010120,354.946320 
	C23.010120,388.543457 23.010120,422.140594 23.010120,456.000793 
	C30.495153,456.000793 37.468842,456.093048 44.435242,455.909363 
	C45.587894,455.878998 47.366852,454.896729 47.743629,453.923553 
	C52.040215,442.825836 60.713642,435.747345 70.546539,430.363098 
	C108.358406,409.658203 148.482651,402.316650 190.976120,411.513306 
	C215.939987,416.916077 239.374313,426.040344 258.855225,443.229187 
	C296.252258,476.226410 293.915924,528.363770 253.670578,557.813721 
	C233.323273,572.703125 209.958145,578.440430 185.142197,578.416321 
	C158.881287,578.390808 133.740860,572.443970 109.603210,562.246094 
	C97.805077,557.261475 87.169334,550.473633 79.248947,540.202393 
	C71.300896,529.895264 67.571121,518.432556 72.626617,505.692841 
	C79.533600,488.287384 100.475639,484.223450 117.352531,490.889771 
	C125.530609,494.120087 130.497803,500.294128 132.340149,508.867188 
	C134.020950,516.688721 133.306946,524.370178 130.936768,532.008789 
	C130.493149,533.438477 130.928589,535.994324 131.955734,536.902771 
	C160.839905,562.448303 198.272705,565.260925 229.504837,544.598450 
	C256.050385,527.036438 262.213715,497.223175 245.184525,471.574310 
	C236.363770,458.288788 223.619125,449.435181 209.190735,443.257111 
	C176.612457,429.307465 142.735092,426.058929 108.023170,432.752747 
	C83.449036,437.491577 61.673271,447.833069 44.470890,466.653412 
	C19.031263,494.485748 14.537924,539.592163 40.271877,570.933899 
	C56.801994,591.066223 77.804161,604.483704 101.590569,614.039917 
	C134.845581,627.400269 169.452026,632.321472 205.173401,630.552063 
	C242.086761,628.723633 277.365356,620.807800 309.362549,601.765320 
	C349.053558,578.143982 374.452271,544.428406 379.534271,497.443054 
	C383.020630,465.210449 375.632538,435.953735 353.976959,411.097443 
	C338.712402,393.576721 319.560638,381.442291 298.560699,372.042877 
	C275.772247,361.842957 251.785172,356.036835 227.102600,352.718353 
	C184.566498,346.999573 142.425034,348.626953 100.865318,359.649414 
	C87.453407,363.206543 74.335136,367.870819 59.843449,372.417419 
	C59.843449,366.229492 59.843449,360.125732 59.976231,353.214508 
M593.076965,221.260284 
	C589.041443,222.249542 584.709900,222.606674 581.020264,224.334549 
	C562.395752,233.056549 544.094666,242.478622 525.380371,250.996582 
	C505.022919,260.262451 484.542542,269.338928 463.689911,277.395813 
	C455.515900,280.554047 446.185791,280.720154 437.366608,282.251648 
	C437.366608,337.004700 437.366608,392.044647 437.366608,447.168701 
	C444.399017,447.168701 451.066101,447.256470 457.727631,447.102966 
	C459.266113,447.067505 461.083191,446.589355 462.269531,445.667969 
	C483.028992,429.544495 506.048157,425.885834 531.002014,433.159943 
	C545.052856,437.255859 556.296082,444.929352 561.782043,459.163513 
	C562.333557,460.594330 562.011108,463.046051 561.086426,464.249847 
	C555.374329,471.686310 547.708435,476.550110 539.131958,480.143219 
	C518.080688,488.962646 495.743195,491.143341 473.340454,492.991089 
	C461.298584,493.984314 449.249420,494.888611 436.998993,495.849091 
	C436.998993,512.229675 437.015198,528.044800 436.995514,543.859924 
	C436.958038,574.019226 450.719910,596.335083 476.037048,611.834167 
	C497.152954,624.761169 520.686279,629.069214 544.995178,630.957825 
	C562.035522,632.281738 575.746704,626.187012 586.754944,613.909668 
	C595.511169,604.143982 603.862122,593.934631 611.560364,583.318542 
	C624.447815,565.546204 636.266418,546.992737 652.363403,531.751160 
	C668.056458,516.892029 685.775269,507.746368 708.155151,510.967163 
	C719.405457,512.586304 729.450745,516.502747 736.066406,526.381531 
	C740.082703,532.378723 739.789795,537.858093 735.712463,542.408813 
	C728.341187,550.635925 715.220947,549.442505 710.851074,539.351624 
	C708.282715,533.420837 704.357239,531.720642 698.906433,531.079773 
	C697.253723,530.885498 695.614319,530.580078 693.966248,530.343445 
	C671.452332,527.111145 647.919067,540.189087 641.459473,559.519653 
	C634.830322,579.357544 642.670715,604.277710 659.614868,616.775330 
	C676.631592,629.326477 696.298706,631.888062 716.566711,630.729248 
	C743.169861,629.208191 763.763000,617.152100 777.297424,593.805481 
	C784.959534,580.588684 788.589783,566.154968 789.662598,551.085144 
	C791.408569,526.559692 784.390198,505.047485 766.494995,487.688171 
	C749.737793,471.432739 729.182800,463.822449 706.228760,462.196320 
	C683.672363,460.598389 663.184204,466.047150 646.261414,481.611664 
	C637.462341,489.704468 629.001587,498.237213 621.062073,507.170288 
	C614.222839,514.865295 608.435852,523.487000 601.995422,531.548523 
	C598.317078,536.152771 594.108093,540.519165 587.630432,540.350464 
	C575.402771,540.031982 563.484619,537.755432 552.227600,532.870483 
	C548.945679,531.446289 545.750916,529.351257 543.179749,526.874756 
	C539.733826,523.555725 540.335449,521.747559 544.551514,519.456848 
	C548.637390,517.236877 552.758545,515.065125 556.723572,512.642029 
	C588.347046,493.316162 609.095642,466.729919 611.556335,428.529388 
	C612.829773,408.761200 609.114075,389.979858 596.318726,374.092804 
	C584.401184,359.295654 568.365723,350.856873 550.342651,345.866913 
	C530.158997,340.278870 509.573120,340.060577 488.884155,341.511597 
	C484.247162,341.836761 479.622284,342.334869 474.991821,342.753387 
	C474.779877,342.272003 474.567963,341.790649 474.356018,341.309265 
	C479.903900,337.796417 485.058228,333.234863 491.076752,330.976044 
	C506.415009,325.219391 521.873169,319.383545 537.760803,315.567383 
	C578.670227,305.741058 619.944702,303.072723 661.365540,313.090485 
	C682.840210,318.284210 703.588318,325.232910 721.173340,339.189636 
	C733.545166,349.008820 742.003662,361.061035 741.224304,377.886627 
	C741.024109,382.209229 739.049194,384.656403 735.149597,385.946594 
	C723.465210,389.812347 708.587952,382.377899 705.975830,370.391479 
	C704.679321,364.442139 705.871948,357.965912 705.770203,351.730774 
	C705.741211,349.954376 705.756165,347.412872 704.679321,346.531494 
	C685.332214,330.696167 653.941284,327.575562 633.936340,350.999054 
	C611.231140,377.584229 621.132324,417.572815 648.620911,436.044067 
	C675.145142,453.867310 723.492981,455.717346 754.599548,427.491730 
	C778.178955,406.096252 788.487549,378.801483 789.148926,347.466461 
	C789.628662,324.740082 781.806946,305.185303 766.260986,288.643982 
	C751.885132,273.347687 735.564270,260.594696 716.916931,250.916290 
	C678.387207,230.918518 638.111633,218.057663 593.076965,221.260284 
M629.988159,748.505859 
	C614.789917,761.878174 596.394348,768.415039 577.132263,772.907043 
	C566.676025,775.345459 556.081604,777.191345 545.421021,779.330322 
	C548.817505,792.002258 555.505066,802.509888 564.505859,811.346069 
	C595.700806,841.970337 633.175537,853.567383 676.092041,845.996887 
	C725.965637,837.199097 776.813965,795.348267 775.168274,730.231506 
	C774.916138,720.253967 775.512695,710.246033 775.960876,700.263123 
	C776.255188,693.707397 779.164062,688.547974 784.979065,685.072266 
	C787.379517,683.637451 789.711975,681.881348 791.598389,679.832336 
	C797.673096,673.233826 795.817627,665.063965 787.517090,661.735413 
	C778.252991,658.020386 769.415833,658.831604 760.905396,664.320740 
	C749.474792,671.693298 741.515503,681.883301 738.165039,694.844116 
	C734.098694,710.574341 730.985168,726.576904 728.066223,742.572388 
	C721.244507,779.953613 680.116760,796.634399 649.117554,774.076965 
	C651.163635,773.053101 653.093262,772.135986 654.979187,771.136475 
	C681.456238,757.103760 699.869751,736.853210 703.517822,706.016541 
	C705.546509,688.867615 700.992859,673.380249 685.601562,663.864990 
	C658.725586,647.249634 630.566162,646.743103 602.427673,660.662537 
	C587.316833,668.137451 578.634888,687.538391 581.978210,703.693420 
	C585.005859,718.323120 596.840942,724.052734 610.155457,717.384583 
	C615.819824,714.547668 621.746887,713.480408 628.061340,714.832214 
	C640.596375,717.515686 645.387207,728.394714 638.394043,739.047058 
	C636.230347,742.343018 633.165283,745.047180 629.988159,748.505859 
z"/>
<path fill="#010101" opacity="1.000000" stroke="none" 
	d="
M593.528931,221.216782 
	C638.111633,218.057663 678.387207,230.918518 716.916931,250.916290 
	C735.564270,260.594696 751.885132,273.347687 766.260986,288.643982 
	C781.806946,305.185303 789.628662,324.740082 789.148926,347.466461 
	C788.487549,378.801483 778.178955,406.096252 754.599548,427.491730 
	C723.492981,455.717346 675.145142,453.867310 648.620911,436.044067 
	C621.132324,417.572815 611.231140,377.584229 633.936340,350.999054 
	C653.941284,327.575562 685.332214,330.696167 704.679321,346.531494 
	C705.756165,347.412872 705.741211,349.954376 705.770203,351.730774 
	C705.871948,357.965912 704.679321,364.442139 705.975830,370.391479 
	C708.587952,382.377899 723.465210,389.812347 735.149597,385.946594 
	C739.049194,384.656403 741.024109,382.209229 741.224304,377.886627 
	C742.003662,361.061035 733.545166,349.008820 721.173340,339.189636 
	C703.588318,325.232910 682.840210,318.284210 661.365540,313.090485 
	C619.944702,303.072723 578.670227,305.741058 537.760803,315.567383 
	C521.873169,319.383545 506.415009,325.219391 491.076752,330.976044 
	C485.058228,333.234863 479.903900,337.796417 474.356018,341.309265 
	C474.567963,341.790649 474.779877,342.272003 474.991821,342.753387 
	C479.622284,342.334869 484.247162,341.836761 488.884155,341.511597 
	C509.573120,340.060577 530.158997,340.278870 550.342651,345.866913 
	C568.365723,350.856873 584.401184,359.295654 596.318726,374.092804 
	C609.114075,389.979858 612.829773,408.761200 611.556335,428.529388 
	C609.095642,466.729919 588.347046,493.316162 556.723572,512.642029 
	C552.758545,515.065125 548.637390,517.236877 544.551514,519.456848 
	C540.335449,521.747559 539.733826,523.555725 543.179749,526.874756 
	C545.750916,529.351257 548.945679,531.446289 552.227600,532.870483 
	C563.484619,537.755432 575.402771,540.031982 587.630432,540.350464 
	C594.108093,540.519165 598.317078,536.152771 601.995422,531.548523 
	C608.435852,523.487000 614.222839,514.865295 621.062073,507.170288 
	C629.001587,498.237213 637.462341,489.704468 646.261414,481.611664 
	C663.184204,466.047150 683.672363,460.598389 706.228760,462.196320 
	C729.182800,463.822449 749.737793,471.432739 766.494995,487.688171 
	C784.390198,505.047485 791.408569,526.559692 789.662598,551.085144 
	C788.589783,566.154968 784.959534,580.588684 777.297424,593.805481 
	C763.763000,617.152100 743.169861,629.208191 716.566711,630.729248 
	C696.298706,631.888062 676.631592,629.326477 659.614868,616.775330 
	C642.670715,604.277710 634.830322,579.357544 641.459473,559.519653 
	C647.919067,540.189087 671.452332,527.111145 693.966248,530.343445 
	C695.614319,530.580078 697.253723,530.885498 698.906433,531.079773 
	C704.357239,531.720642 708.282715,533.420837 710.851074,539.351624 
	C715.220947,549.442505 728.341187,550.635925 735.712463,542.408813 
	C739.789795,537.858093 740.082703,532.378723 736.066406,526.381531 
	C729.450745,516.502747 719.405457,512.586304 708.155151,510.967163 
	C685.775269,507.746368 668.056458,516.892029 652.363403,531.751160 
	C636.266418,546.992737 624.447815,565.546204 611.560364,583.318542 
	C603.862122,593.934631 595.511169,604.143982 586.754944,613.909668 
	C575.746704,626.187012 562.035522,632.281738 544.995178,630.957825 
	C520.686279,629.069214 497.152954,624.761169 476.037048,611.834167 
	C450.719910,596.335083 436.958038,574.019226 436.995514,543.859924 
	C437.015198,528.044800 436.998993,512.229675 436.998993,495.849091 
	C449.249420,494.888611 461.298584,493.984314 473.340454,492.991089 
	C495.743195,491.143341 518.080688,488.962646 539.131958,480.143219 
	C547.708435,476.550110 555.374329,471.686310 561.086426,464.249847 
	C562.011108,463.046051 562.333557,460.594330 561.782043,459.163513 
	C556.296082,444.929352 545.052856,437.255859 531.002014,433.159943 
	C506.048157,425.885834 483.028992,429.544495 462.269531,445.667969 
	C461.083191,446.589355 459.266113,447.067505 457.727631,447.102966 
	C451.066101,447.256470 444.399017,447.168701 437.366608,447.168701 
	C437.366608,392.044647 437.366608,337.004700 437.366608,282.251648 
	C446.185791,280.720154 455.515900,280.554047 463.689911,277.395813 
	C484.542542,269.338928 505.022919,260.262451 525.380371,250.996582 
	C544.094666,242.478622 562.395752,233.056549 581.020264,224.334549 
	C584.709900,222.606674 589.041443,222.249542 593.528931,221.216782 
z"/>
<path fill="#010101" opacity="1.000000" stroke="none" 
	d="
M59.843449,354.021973 
	C59.843449,360.125732 59.843449,366.229492 59.843449,372.417419 
	C74.335136,367.870819 87.453407,363.206543 100.865318,359.649414 
	C142.425034,348.626953 184.566498,346.999573 227.102600,352.718353 
	C251.785172,356.036835 275.772247,361.842957 298.560699,372.042877 
	C319.560638,381.442291 338.712402,393.576721 353.976959,411.097443 
	C375.632538,435.953735 383.020630,465.210449 379.534271,497.443054 
	C374.452271,544.428406 349.053558,578.143982 309.362549,601.765320 
	C277.365356,620.807800 242.086761,628.723633 205.173401,630.552063 
	C169.452026,632.321472 134.845581,627.400269 101.590569,614.039917 
	C77.804161,604.483704 56.801994,591.066223 40.271877,570.933899 
	C14.537924,539.592163 19.031263,494.485748 44.470890,466.653412 
	C61.673271,447.833069 83.449036,437.491577 108.023170,432.752747 
	C142.735092,426.058929 176.612457,429.307465 209.190735,443.257111 
	C223.619125,449.435181 236.363770,458.288788 245.184525,471.574310 
	C262.213715,497.223175 256.050385,527.036438 229.504837,544.598450 
	C198.272705,565.260925 160.839905,562.448303 131.955734,536.902771 
	C130.928589,535.994324 130.493149,533.438477 130.936768,532.008789 
	C133.306946,524.370178 134.020950,516.688721 132.340149,508.867188 
	C130.497803,500.294128 125.530609,494.120087 117.352531,490.889771 
	C100.475639,484.223450 79.533600,488.287384 72.626617,505.692841 
	C67.571121,518.432556 71.300896,529.895264 79.248947,540.202393 
	C87.169334,550.473633 97.805077,557.261475 109.603210,562.246094 
	C133.740860,572.443970 158.881287,578.390808 185.142197,578.416321 
	C209.958145,578.440430 233.323273,572.703125 253.670578,557.813721 
	C293.915924,528.363770 296.252258,476.226410 258.855225,443.229187 
	C239.374313,426.040344 215.939987,416.916077 190.976120,411.513306 
	C148.482651,402.316650 108.358406,409.658203 70.546539,430.363098 
	C60.713642,435.747345 52.040215,442.825836 47.743629,453.923553 
	C47.366852,454.896729 45.587894,455.878998 44.435242,455.909363 
	C37.468842,456.093048 30.495153,456.000793 23.010120,456.000793 
	C23.010120,422.140594 23.010120,388.543457 23.540913,354.474426 
	C35.995617,354.009003 47.919533,354.015503 59.843449,354.021973 
z"/>
<path fill="#C56F33" opacity="1.000000" stroke="none" 
	d="
M59.909840,353.618256 
	C47.919533,354.015503 35.995617,354.009003 23.614128,354.012268 
	C23.104612,333.858673 23.014568,313.695282 23.086615,293.532410 
	C23.091408,292.190826 23.983223,290.113342 25.040586,289.621857 
	C58.074329,274.267029 86.851173,251.612213 118.990791,234.830933 
	C133.657318,227.173035 149.191101,220.712357 164.976822,215.769440 
	C189.177063,208.191757 214.233551,208.389984 239.172791,212.262680 
	C257.835175,215.160706 275.836670,220.621948 293.060486,228.339188 
	C315.369324,238.334824 332.525299,254.482986 346.910156,274.005585 
	C364.358429,297.685730 376.049622,323.922089 382.352417,352.522278 
	C385.033966,364.690399 384.632202,376.930084 380.342316,388.940918 
	C377.953613,395.628845 374.321655,401.043427 368.527618,405.167725 
	C363.486755,408.755859 359.246246,409.132233 354.625580,404.863586 
	C350.999237,401.513489 348.120483,397.350525 344.934662,393.527832 
	C333.335724,379.610107 322.624817,364.816925 309.939240,351.973480 
	C292.957916,334.780792 271.110291,325.354370 248.010391,319.097168 
	C221.793533,311.995636 194.963287,308.699738 167.906494,310.238861 
	C144.691818,311.559418 121.408707,313.505493 98.785477,319.772308 
	C85.516762,323.447845 74.648651,331.028595 65.414474,340.784027 
	C62.489185,343.874420 61.727856,349.013153 59.909840,353.618256 
z"/>
<path fill="#010101" opacity="1.000000" stroke="none" 
	d="
M630.250488,748.264099 
	C633.165283,745.047180 636.230347,742.343018 638.394043,739.047058 
	C645.387207,728.394714 640.596375,717.515686 628.061340,714.832214 
	C621.746887,713.480408 615.819824,714.547668 610.155457,717.384583 
	C596.840942,724.052734 585.005859,718.323120 581.978210,703.693420 
	C578.634888,687.538391 587.316833,668.137451 602.427673,660.662537 
	C630.566162,646.743103 658.725586,647.249634 685.601562,663.864990 
	C700.992859,673.380249 705.546509,688.867615 703.517822,706.016541 
	C699.869751,736.853210 681.456238,757.103760 654.979187,771.136475 
	C653.093262,772.135986 651.163635,773.053101 649.117554,774.076965 
	C680.116760,796.634399 721.244507,779.953613 728.066223,742.572388 
	C730.985168,726.576904 734.098694,710.574341 738.165039,694.844116 
	C741.515503,681.883301 749.474792,671.693298 760.905396,664.320740 
	C769.415833,658.831604 778.252991,658.020386 787.517090,661.735413 
	C795.817627,665.063965 797.673096,673.233826 791.598389,679.832336 
	C789.711975,681.881348 787.379517,683.637451 784.979065,685.072266 
	C779.164062,688.547974 776.255188,693.707397 775.960876,700.263123 
	C775.512695,710.246033 774.916138,720.253967 775.168274,730.231506 
	C776.813965,795.348267 725.965637,837.199097 676.092041,845.996887 
	C633.175537,853.567383 595.700806,841.970337 564.505859,811.346069 
	C555.505066,802.509888 548.817505,792.002258 545.421021,779.330322 
	C556.081604,777.191345 566.676025,775.345459 577.132263,772.907043 
	C596.394348,768.415039 614.789917,761.878174 630.250488,748.264099 
z"/>
</svg>