<svg version="1.1" id="Layer_1" xmlns="http://www.w3.org/2000/svg" xmlns:xlink="http://www.w3.org/1999/xlink" x="0px" y="0px"
	 width="100%" viewBox="0 0 830 872" enable-background="new 0 0 830 872" xml:space="preserve">
<path fill="#FEFEFE" opacity="1.000000" stroke="none" 
	d="
M459.000000,873.000000 
	C306.000031,873.000000 153.500092,873.000000 1.000102,873.000000 
	C1.000068,582.333435 1.000068,291.666931 1.000034,1.000297 
	C277.666443,1.000198 554.332886,1.000198 830.999512,1.000099 
	C830.999634,291.666351 830.999634,582.332703 830.999817,872.999512 
	C707.166687,873.000000 583.333313,873.000000 459.000000,873.000000 
M275.417114,459.131836 
	C290.996643,483.813751 291.334198,509.055145 277.083466,534.178528 
	C265.454010,554.680725 246.552444,566.151672 224.601135,572.928955 
	C198.233841,581.069641 171.677124,579.574829 145.173340,573.531555 
	C123.728203,568.641785 103.408951,561.319214 86.625069,546.263062 
	C77.881828,538.419861 72.844742,528.991089 72.155472,517.207886 
	C71.146233,499.954498 85.217545,487.395294 105.013939,488.004669 
	C125.644691,488.639709 137.157639,501.262177 134.971146,521.049683 
	C134.608963,524.327576 133.863800,527.664307 132.653152,530.719177 
	C131.419037,533.833313 131.992416,535.730225 134.459061,537.954895 
	C160.937164,561.835144 200.857910,564.867798 230.621826,545.122925 
	C257.138580,527.532166 263.991699,497.815002 247.164658,471.789764 
	C238.784973,458.829468 226.559662,450.129852 212.658066,443.937988 
	C180.055954,429.416809 145.990173,426.100891 111.107025,432.502991 
	C86.190453,437.075989 63.997540,447.461731 46.543289,466.582001 
	C18.990499,496.764587 15.363261,544.827637 48.515839,578.272217 
	C67.995209,597.923157 91.391594,610.510864 117.301178,619.032227 
	C146.568680,628.657959 176.624222,632.108276 207.361465,630.544800 
	C243.578705,628.702515 278.184631,620.878296 309.783264,602.550049 
	C351.355957,578.436462 377.262604,543.549866 381.518555,494.611145 
	C384.871277,456.058899 372.602478,423.469727 342.761841,398.268646 
	C321.325531,380.165161 296.410309,368.487488 269.569733,360.951477 
	C238.265564,352.162201 206.286148,348.956757 173.777008,349.743225 
	C142.423843,350.501770 111.948174,355.694397 82.266357,365.705811 
	C75.595261,367.955872 68.982925,370.380188 60.637844,373.326477 
	C61.674686,363.334564 61.047497,353.974670 63.822575,345.764862 
	C70.065247,327.296478 93.024361,309.889709 118.251411,315.566254 
	C136.418518,319.654175 151.397171,328.817017 164.857162,341.155212 
	C170.823578,346.624359 177.320221,346.647003 183.627213,341.523651 
	C192.931808,333.965210 201.898941,325.936768 211.616547,318.952759 
	C230.998413,305.023041 234.185303,302.856018 257.386017,315.936340 
	C270.551788,323.359100 283.441650,331.321289 296.906281,338.152527 
	C319.072479,349.398560 341.336182,348.259308 362.620117,335.710724 
	C383.817719,323.213074 394.529236,303.428375 398.994476,279.862549 
	C400.594055,271.420563 401.246002,262.883728 399.844696,254.386551 
	C391.796204,253.953537 392.005280,254.133591 387.527863,259.332611 
	C380.839417,267.098907 372.842773,272.059357 361.874695,270.894531 
	C349.437927,269.573761 337.870422,265.794128 326.934570,259.899872 
	C311.334595,251.491714 298.434753,239.714035 286.730408,226.656967 
	C283.111816,222.620209 279.459534,221.151428 274.250854,221.359314 
	C270.683441,221.501709 267.978973,222.236130 265.491730,224.910736 
	C262.212097,228.437439 258.553558,231.620560 254.971481,234.855713 
	C241.538986,246.987106 228.071320,259.079529 214.716400,271.096954 
	C212.732758,270.002411 211.338486,269.407257 210.136810,268.544037 
	C190.013260,254.088531 169.878082,239.648697 149.825974,225.094498 
	C141.416550,218.990753 135.392624,218.926346 127.144196,225.284912 
	C124.375778,227.419052 121.666718,229.647919 118.770851,231.596130 
	C99.334938,244.671707 80.333069,258.491150 60.195213,270.384155 
	C49.692238,276.587006 37.163960,279.360474 25.054508,283.867493 
	C25.054508,340.484955 25.054508,398.057617 25.054508,455.815491 
	C33.064247,455.815491 40.853657,455.815491 48.010113,455.815491 
	C50.892319,451.536835 53.128967,447.163544 56.323841,443.665405 
	C67.142769,431.819458 81.156532,425.043671 95.942604,419.553223 
	C135.960709,404.693451 176.124100,403.414307 216.473251,418.086395 
	C239.499420,426.459381 260.383606,437.984772 275.417114,459.131836 
M522.499451,340.834351 
	C511.701233,341.340942 500.902985,341.847534 490.104767,342.354126 
	C493.159729,338.875549 496.615295,335.853302 500.531128,333.648529 
	C517.952271,323.839783 537.019470,318.744110 556.394409,314.544312 
	C596.051819,305.947968 635.756958,303.459198 675.652893,313.006897 
	C695.980347,317.871552 715.633850,324.342651 732.743713,336.806732 
	C746.501221,346.828674 756.442749,359.148102 756.040771,377.412415 
	C755.937500,382.107056 753.884216,384.894897 749.393372,386.059509 
	C740.151428,388.456299 732.003174,385.856354 725.594849,379.375427 
	C717.893372,371.586731 718.274780,361.734375 720.404724,351.737488 
	C720.747314,350.129883 720.483704,347.510620 719.432373,346.620972 
	C703.646606,333.262634 676.592834,327.808960 656.300964,343.777008 
	C627.237366,366.647675 631.897644,406.830109 654.775269,429.114380 
	C679.463440,453.162231 725.486877,454.225677 752.921143,438.874207 
	C780.712585,423.322876 795.679688,398.802216 801.864502,368.324005 
	C806.080444,347.548431 804.899231,327.183441 794.927307,308.075012 
	C786.017456,291.001923 772.091492,278.234924 756.889221,267.019592 
	C722.142334,241.385422 682.741516,226.973526 640.199768,221.450470 
	C618.454712,218.627380 597.220581,221.030243 577.276855,231.917419 
	C557.904541,242.492676 538.034058,252.189972 518.127625,261.741821 
	C500.918915,269.999176 483.571930,278.158997 464.276031,280.540375 
	C460.069916,281.059479 455.832123,281.322052 451.714478,281.693237 
	C451.714478,337.151886 451.714478,391.946350 451.714478,447.163727 
	C459.229736,447.163727 466.529541,447.217346 473.826660,447.102997 
	C474.861450,447.086792 476.030396,446.441986 476.889893,445.771179 
	C497.760590,429.482086 520.960876,425.816071 546.054260,433.244690 
	C559.684021,437.279602 570.607117,444.777191 576.400818,458.483002 
	C577.555176,461.213745 577.566772,463.205963 575.316345,465.014923 
	C570.167603,469.153748 565.422241,474.075195 559.695618,477.162659 
	C541.010193,487.236603 520.318848,489.982361 499.560303,491.949860 
	C483.679382,493.455078 467.762207,494.577179 451.872894,495.868744 
	C451.872894,513.413452 451.560547,530.546997 451.943085,547.665100 
	C452.582886,576.295471 466.862793,597.074768 490.612061,611.753418 
	C509.844910,623.640564 531.361694,627.994202 553.577576,630.553955 
	C572.721558,632.759766 589.146790,628.416443 601.722351,613.681030 
	C612.393494,601.177124 621.995178,587.765991 632.249451,574.899231 
	C643.842834,560.352234 654.841919,545.217712 667.550598,531.703247 
	C682.338013,515.978149 700.883362,507.675507 723.238464,511.003540 
	C734.294434,512.649414 744.196350,516.586853 750.746338,526.206848 
	C756.430969,534.555969 753.073181,543.704102 743.485352,546.889587 
	C735.135498,549.663696 728.022827,545.894714 723.948425,536.930359 
	C723.127197,535.123535 721.218506,532.741882 719.586609,532.551697 
	C711.053650,531.557251 702.254761,529.757507 693.908447,530.890503 
	C676.434998,533.262634 662.421387,541.843079 656.274719,559.432434 
	C649.233459,579.581482 657.348022,604.271790 674.675354,616.986023 
	C691.732910,629.502319 711.443787,631.878235 731.693787,630.721069 
	C755.252075,629.374939 774.632202,619.496094 788.221252,599.766541 
	C801.080566,581.096619 805.543640,560.095764 804.227722,537.717102 
	C802.783264,513.152954 791.386169,493.967926 771.722107,479.721008 
	C755.351746,467.860413 736.669556,462.549011 716.544617,461.988953 
	C694.949707,461.388062 676.188721,468.108826 659.774658,482.376923 
	C645.194702,495.050690 633.076843,509.744720 621.596497,525.110718 
	C618.621887,529.092163 615.562500,533.192627 611.787415,536.330750 
	C609.180786,538.497620 605.269531,540.226318 601.953857,540.204895 
	C590.246521,540.129333 578.763245,537.939392 567.982422,533.237671 
	C564.122803,531.554443 560.462097,529.006958 557.346008,526.158875 
	C554.958130,523.976257 555.104370,521.403748 558.855835,519.641174 
	C563.653076,517.387268 568.264404,514.674255 572.754639,511.840240 
	C607.968872,489.614624 628.482239,459.120117 626.139160,415.993561 
	C624.681396,389.163025 612.381104,368.894653 588.890076,355.627319 
	C568.584351,344.158997 546.423035,340.784149 522.499451,340.834351 
M232.240952,164.393433 
	C240.370010,164.972092 248.539902,165.215271 256.619629,166.199020 
	C273.607574,168.267410 290.656433,170.131989 307.474884,173.204544 
	C321.610535,175.787018 335.660065,178.173569 350.023193,176.913101 
	C358.913239,176.132950 367.517120,174.021698 373.296417,166.266464 
	C382.532684,153.872391 383.161285,138.657425 374.335083,125.863419 
	C344.131439,82.082001 303.354248,51.642128 253.667877,33.680622 
	C210.282715,17.996992 166.001358,17.203587 122.137810,32.165794 
	C96.118111,41.041321 73.775757,55.694313 61.635792,81.540237 
	C47.635204,111.347397 52.894077,136.534210 83.504700,151.948212 
	C98.409843,159.453720 114.641838,161.266190 130.980804,161.778412 
	C164.412460,162.826492 197.855896,163.498886 232.240952,164.393433 
M712.071228,675.526245 
	C707.253906,671.032471 703.045654,665.514709 697.512939,662.223450 
	C674.561768,648.570618 650.120422,648.120789 625.458801,656.700500 
	C606.424011,663.322510 594.852234,680.468262 596.053406,698.988525 
	C597.199280,716.657104 610.879028,725.513306 625.606934,717.174255 
	C628.670166,715.439819 632.520508,714.599854 636.080322,714.340698 
	C643.655823,713.789307 650.457642,716.238892 654.653564,722.820557 
	C657.893005,727.901917 656.931885,733.659119 653.515442,738.335022 
	C650.313110,742.718018 646.537781,746.844238 642.392273,750.346863 
	C627.784241,762.689697 610.169739,768.645752 591.918579,772.893494 
	C581.422058,775.336365 570.788940,777.192871 560.084717,779.340027 
	C564.497253,794.657410 573.230713,807.148560 585.190857,817.068298 
	C625.471863,850.477051 670.366760,857.568604 718.526184,837.369568 
	C751.522705,823.530029 774.743286,799.496216 785.574036,764.625183 
	C790.194824,749.747925 789.793762,734.393066 790.071594,719.089111 
	C790.192322,712.439026 790.427368,705.783264 790.887939,699.149353 
	C791.319763,692.929871 794.368408,688.234741 799.820129,685.019531 
	C802.089478,683.681152 804.312012,682.075439 806.119629,680.176086 
	C812.438293,673.537109 810.656067,665.074890 802.197632,661.700378 
	C793.136230,658.085327 784.408020,658.776062 776.030884,664.096375 
	C764.729553,671.273926 756.599243,681.170593 753.228577,693.949280 
	C749.087219,709.649475 746.001892,725.653381 743.029968,741.631958 
	C735.638733,781.370789 693.890564,796.139038 664.013672,774.083496 
	C665.100708,773.489319 666.074707,772.886169 667.105347,772.403931 
	C686.076782,763.527832 701.218262,750.380737 710.705688,731.573059 
	C719.804932,713.534912 722.425720,694.958740 712.071228,675.526245 
z"/>
<path fill="#010101" opacity="1.000000" stroke="none" 
	d="
M275.214111,458.834473 
	C260.383606,437.984772 239.499420,426.459381 216.473251,418.086395 
	C176.124100,403.414307 135.960709,404.693451 95.942604,419.553223 
	C81.156532,425.043671 67.142769,431.819458 56.323841,443.665405 
	C53.128967,447.163544 50.892319,451.536835 48.010113,455.815491 
	C40.853657,455.815491 33.064247,455.815491 25.054508,455.815491 
	C25.054508,398.057617 25.054508,340.484955 25.054508,283.867493 
	C37.163960,279.360474 49.692238,276.587006 60.195213,270.384155 
	C80.333069,258.491150 99.334938,244.671707 118.770851,231.596130 
	C121.666718,229.647919 124.375778,227.419052 127.144196,225.284912 
	C135.392624,218.926346 141.416550,218.990753 149.825974,225.094498 
	C169.878082,239.648697 190.013260,254.088531 210.136810,268.544037 
	C211.338486,269.407257 212.732758,270.002411 214.716400,271.096954 
	C228.071320,259.079529 241.538986,246.987106 254.971481,234.855713 
	C258.553558,231.620560 262.212097,228.437439 265.491730,224.910736 
	C267.978973,222.236130 270.683441,221.501709 274.250854,221.359314 
	C279.459534,221.151428 283.111816,222.620209 286.730408,226.656967 
	C298.434753,239.714035 311.334595,251.491714 326.934570,259.899872 
	C337.870422,265.794128 349.437927,269.573761 361.874695,270.894531 
	C372.842773,272.059357 380.839417,267.098907 387.527863,259.332611 
	C392.005280,254.133591 391.796204,253.953537 399.844696,254.386551 
	C401.246002,262.883728 400.594055,271.420563 398.994476,279.862549 
	C394.529236,303.428375 383.817719,323.213074 362.620117,335.710724 
	C341.336182,348.259308 319.072479,349.398560 296.906281,338.152527 
	C283.441650,331.321289 270.551788,323.359100 257.386017,315.936340 
	C234.185303,302.856018 230.998413,305.023041 211.616547,318.952759 
	C201.898941,325.936768 192.931808,333.965210 183.627213,341.523651 
	C177.320221,346.647003 170.823578,346.624359 164.857162,341.155212 
	C151.397171,328.817017 136.418518,319.654175 118.251411,315.566254 
	C93.024361,309.889709 70.065247,327.296478 63.822575,345.764862 
	C61.047497,353.974670 61.674686,363.334564 60.637844,373.326477 
	C68.982925,370.380188 75.595261,367.955872 82.266357,365.705811 
	C111.948174,355.694397 142.423843,350.501770 173.777008,349.743225 
	C206.286148,348.956757 238.265564,352.162201 269.569733,360.951477 
	C296.410309,368.487488 321.325531,380.165161 342.761841,398.268646 
	C372.602478,423.469727 384.871277,456.058899 381.518555,494.611145 
	C377.262604,543.549866 351.355957,578.436462 309.783264,602.550049 
	C278.184631,620.878296 243.578705,628.702515 207.361465,630.544800 
	C176.624222,632.108276 146.568680,628.657959 117.301178,619.032227 
	C91.391594,610.510864 67.995209,597.923157 48.515839,578.272217 
	C15.363261,544.827637 18.990499,496.764587 46.543289,466.582001 
	C63.997540,447.461731 86.190453,437.075989 111.107025,432.502991 
	C145.990173,426.100891 180.055954,429.416809 212.658066,443.937988 
	C226.559662,450.129852 238.784973,458.829468 247.164658,471.789764 
	C263.991699,497.815002 257.138580,527.532166 230.621826,545.122925 
	C200.857910,564.867798 160.937164,561.835144 134.459061,537.954895 
	C131.992416,535.730225 131.419037,533.833313 132.653152,530.719177 
	C133.863800,527.664307 134.608963,524.327576 134.971146,521.049683 
	C137.157639,501.262177 125.644691,488.639709 105.013939,488.004669 
	C85.217545,487.395294 71.146233,499.954498 72.155472,517.207886 
	C72.844742,528.991089 77.881828,538.419861 86.625069,546.263062 
	C103.408951,561.319214 123.728203,568.641785 145.173340,573.531555 
	C171.677124,579.574829 198.233841,581.069641 224.601135,572.928955 
	C246.552444,566.151672 265.454010,554.680725 277.083466,534.178528 
	C291.334198,509.055145 290.996643,483.813751 275.214111,458.834473 
z"/>
<path fill="#010101" opacity="1.000000" stroke="none" 
	d="
M522.999146,340.834351 
	C546.423035,340.784149 568.584351,344.158997 588.890076,355.627319 
	C612.381104,368.894653 624.681396,389.163025 626.139160,415.993561 
	C628.482239,459.120117 607.968872,489.614624 572.754639,511.840240 
	C568.264404,514.674255 563.653076,517.387268 558.855835,519.641174 
	C555.104370,521.403748 554.958130,523.976257 557.346008,526.158875 
	C560.462097,529.006958 564.122803,531.554443 567.982422,533.237671 
	C578.763245,537.939392 590.246521,540.129333 601.953857,540.204895 
	C605.269531,540.226318 609.180786,538.497620 611.787415,536.330750 
	C615.562500,533.192627 618.621887,529.092163 621.596497,525.110718 
	C633.076843,509.744720 645.194702,495.050690 659.774658,482.376923 
	C676.188721,468.108826 694.949707,461.388062 716.544617,461.988953 
	C736.669556,462.549011 755.351746,467.860413 771.722107,479.721008 
	C791.386169,493.967926 802.783264,513.152954 804.227722,537.717102 
	C805.543640,560.095764 801.080566,581.096619 788.221252,599.766541 
	C774.632202,619.496094 755.252075,629.374939 731.693787,630.721069 
	C711.443787,631.878235 691.732910,629.502319 674.675354,616.986023 
	C657.348022,604.271790 649.233459,579.581482 656.274719,559.432434 
	C662.421387,541.843079 676.434998,533.262634 693.908447,530.890503 
	C702.254761,529.757507 711.053650,531.557251 719.586609,532.551697 
	C721.218506,532.741882 723.127197,535.123535 723.948425,536.930359 
	C728.022827,545.894714 735.135498,549.663696 743.485352,546.889587 
	C753.073181,543.704102 756.430969,534.555969 750.746338,526.206848 
	C744.196350,516.586853 734.294434,512.649414 723.238464,511.003540 
	C700.883362,507.675507 682.338013,515.978149 667.550598,531.703247 
	C654.841919,545.217712 643.842834,560.352234 632.249451,574.899231 
	C621.995178,587.765991 612.393494,601.177124 601.722351,613.681030 
	C589.146790,628.416443 572.721558,632.759766 553.577576,630.553955 
	C531.361694,627.994202 509.844910,623.640564 490.612061,611.753418 
	C466.862793,597.074768 452.582886,576.295471 451.943085,547.665100 
	C451.560547,530.546997 451.872894,513.413452 451.872894,495.868744 
	C467.762207,494.577179 483.679382,493.455078 499.560303,491.949860 
	C520.318848,489.982361 541.010193,487.236603 559.695618,477.162659 
	C565.422241,474.075195 570.167603,469.153748 575.316345,465.014923 
	C577.566772,463.205963 577.555176,461.213745 576.400818,458.483002 
	C570.607117,444.777191 559.684021,437.279602 546.054260,433.244690 
	C520.960876,425.816071 497.760590,429.482086 476.889893,445.771179 
	C476.030396,446.441986 474.861450,447.086792 473.826660,447.102997 
	C466.529541,447.217346 459.229736,447.163727 451.714478,447.163727 
	C451.714478,391.946350 451.714478,337.151886 451.714478,281.693237 
	C455.832123,281.322052 460.069916,281.059479 464.276031,280.540375 
	C483.571930,278.158997 500.918915,269.999176 518.127625,261.741821 
	C538.034058,252.189972 557.904541,242.492676 577.276855,231.917419 
	C597.220581,221.030243 618.454712,218.627380 640.199768,221.450470 
	C682.741516,226.973526 722.142334,241.385422 756.889221,267.019592 
	C772.091492,278.234924 786.017456,291.001923 794.927307,308.075012 
	C804.899231,327.183441 806.080444,347.548431 801.864502,368.324005 
	C795.679688,398.802216 780.712585,423.322876 752.921143,438.874207 
	C725.486877,454.225677 679.463440,453.162231 654.775269,429.114380 
	C631.897644,406.830109 627.237366,366.647675 656.300964,343.777008 
	C676.592834,327.808960 703.646606,333.262634 719.432373,346.620972 
	C720.483704,347.510620 720.747314,350.129883 720.404724,351.737488 
	C718.274780,361.734375 717.893372,371.586731 725.594849,379.375427 
	C732.003174,385.856354 740.151428,388.456299 749.393372,386.059509 
	C753.884216,384.894897 755.937500,382.107056 756.040771,377.412415 
	C756.442749,359.148102 746.501221,346.828674 732.743713,336.806732 
	C715.633850,324.342651 695.980347,317.871552 675.652893,313.006897 
	C635.756958,303.459198 596.051819,305.947968 556.394409,314.544312 
	C537.019470,318.744110 517.952271,323.839783 500.531128,333.648529 
	C496.615295,335.853302 493.159729,338.875549 490.104767,342.354126 
	C500.902985,341.847534 511.701233,341.340942 522.999146,340.834351 
z"/>
<path fill="#C46F33" opacity="1.000000" stroke="none" 
	d="
M231.767715,164.359711 
	C197.855896,163.498886 164.412460,162.826492 130.980804,161.778412 
	C114.641838,161.266190 98.409843,159.453720 83.504700,151.948212 
	C52.894077,136.534210 47.635204,111.347397 61.635792,81.540237 
	C73.775757,55.694313 96.118111,41.041321 122.137810,32.165794 
	C166.001358,17.203587 210.282715,17.996992 253.667877,33.680622 
	C303.354248,51.642128 344.131439,82.082001 374.335083,125.863419 
	C383.161285,138.657425 382.532684,153.872391 373.296417,166.266464 
	C367.517120,174.021698 358.913239,176.132950 350.023193,176.913101 
	C335.660065,178.173569 321.610535,175.787018 307.474884,173.204544 
	C290.656433,170.131989 273.607574,168.267410 256.619629,166.199020 
	C248.539902,165.215271 240.370010,164.972092 231.767715,164.359711 
M180.063538,81.442734 
	C169.683990,82.334229 159.142578,82.386948 148.969879,84.350220 
	C138.540253,86.363098 129.596664,92.124046 122.590187,100.354340 
	C117.080109,106.826859 118.610542,113.490791 126.478897,116.596191 
	C129.820923,117.915199 133.511505,118.825348 137.087555,118.994736 
	C152.369110,119.718552 167.663696,120.341232 182.959686,120.551552 
	C218.599609,121.041580 254.014847,124.286507 289.353973,128.637054 
	C291.146545,128.857742 292.962311,128.890106 295.787354,129.077988 
	C294.100220,127.209557 293.358032,126.326820 292.553345,125.505302 
	C271.360413,103.869247 245.561646,90.358971 216.198227,84.208633 
	C204.780228,81.817062 192.737183,82.409515 180.063538,81.442734 
z"/>
<path fill="#010101" opacity="1.000000" stroke="none" 
	d="
M712.250427,675.844604 
	C722.425720,694.958740 719.804932,713.534912 710.705688,731.573059 
	C701.218262,750.380737 686.076782,763.527832 667.105347,772.403931 
	C666.074707,772.886169 665.100708,773.489319 664.013672,774.083496 
	C693.890564,796.139038 735.638733,781.370789 743.029968,741.631958 
	C746.001892,725.653381 749.087219,709.649475 753.228577,693.949280 
	C756.599243,681.170593 764.729553,671.273926 776.030884,664.096375 
	C784.408020,658.776062 793.136230,658.085327 802.197632,661.700378 
	C810.656067,665.074890 812.438293,673.537109 806.119629,680.176086 
	C804.312012,682.075439 802.089478,683.681152 799.820129,685.019531 
	C794.368408,688.234741 791.319763,692.929871 790.887939,699.149353 
	C790.427368,705.783264 790.192322,712.439026 790.071594,719.089111 
	C789.793762,734.393066 790.194824,749.747925 785.574036,764.625183 
	C774.743286,799.496216 751.522705,823.530029 718.526184,837.369568 
	C670.366760,857.568604 625.471863,850.477051 585.190857,817.068298 
	C573.230713,807.148560 564.497253,794.657410 560.084717,779.340027 
	C570.788940,777.192871 581.422058,775.336365 591.918579,772.893494 
	C610.169739,768.645752 627.784241,762.689697 642.392273,750.346863 
	C646.537781,746.844238 650.313110,742.718018 653.515442,738.335022 
	C656.931885,733.659119 657.893005,727.901917 654.653564,722.820557 
	C650.457642,716.238892 643.655823,713.789307 636.080322,714.340698 
	C632.520508,714.599854 628.670166,715.439819 625.606934,717.174255 
	C610.879028,725.513306 597.199280,716.657104 596.053406,698.988525 
	C594.852234,680.468262 606.424011,663.322510 625.458801,656.700500 
	C650.120422,648.120789 674.561768,648.570618 697.512939,662.223450 
	C703.045654,665.514709 707.253906,671.032471 712.250427,675.844604 
z"/>
<path fill="#FEFDFC" opacity="1.000000" stroke="none" 
	d="
M180.521210,81.542709 
	C192.737183,82.409515 204.780228,81.817062 216.198227,84.208633 
	C245.561646,90.358971 271.360413,103.869247 292.553345,125.505302 
	C293.358032,126.326820 294.100220,127.209557 295.787354,129.077988 
	C292.962311,128.890106 291.146545,128.857742 289.353973,128.637054 
	C254.014847,124.286507 218.599609,121.041580 182.959686,120.551552 
	C167.663696,120.341232 152.369110,119.718552 137.087555,118.994736 
	C133.511505,118.825348 129.820923,117.915199 126.478897,116.596191 
	C118.610542,113.490791 117.080109,106.826859 122.590187,100.354340 
	C129.596664,92.124046 138.540253,86.363098 148.969879,84.350220 
	C159.142578,82.386948 169.683990,82.334229 180.521210,81.542709 
z"/>
</svg>