<svg version="1.1" id="Layer_1" xmlns="http://www.w3.org/2000/svg" xmlns:xlink="http://www.w3.org/1999/xlink" x="0px" y="0px"
	 width="100%" viewBox="0 0 5474 972" enable-background="new 0 0 5474 972" xml:space="preserve">
<path fill="#FFFFFE" opacity="1.000000" stroke="none" 
	d="
M4050.000000,974.000000 
	C2700.000244,974.000000 1351.000488,974.000000 2.000543,974.000000 
	C2.000362,650.000305 2.000362,326.000610 2.000181,2.000673 
	C1826.666016,2.000449 3651.332031,2.000449 5475.998535,2.000225 
	C5475.999023,325.999298 5475.999023,649.998596 5475.999512,973.998962 
	C5001.000000,974.000000 4526.000000,974.000000 4050.000000,974.000000 
M633.657776,83.622757 
	C633.890442,83.863419 634.123108,84.104080 634.409302,85.878372 
	C624.043823,114.106415 619.554016,143.241211 622.039185,173.213913 
	C625.731567,217.747299 644.317932,254.286911 681.337402,280.485718 
	C701.558655,294.796448 724.282898,303.119293 748.518494,307.119263 
	C787.670593,313.581146 826.256226,311.827820 863.314819,296.274170 
	C897.121826,282.085205 923.920227,259.826721 938.078064,225.233704 
	C956.041992,181.340988 949.616333,138.895447 926.544006,98.739845 
	C906.591736,64.014389 875.258728,42.543941 838.731384,28.064610 
	C807.431519,15.657425 774.691650,10.338120 741.185730,9.090446 
	C691.860962,7.253719 643.933350,13.929914 599.408569,36.062988 
	C525.082703,73.010056 483.994934,132.503525 481.503723,216.518631 
	C479.884216,271.135162 499.092163,317.484985 539.066589,355.016907 
	C540.477112,356.341217 541.681030,357.885620 543.285461,359.664886 
	C531.651062,363.162476 520.375549,365.998657 509.492584,369.923309 
	C470.212036,384.088867 438.948608,408.236389 418.008820,444.874908 
	C399.840271,476.664581 392.768860,511.284637 392.716461,547.459839 
	C392.551361,661.445435 392.659332,775.431335 392.636139,889.417114 
	C392.635376,893.250854 392.360535,897.084534 392.216492,900.838379 
	C299.192902,900.838379 207.353577,900.838379 114.491074,900.838379 
	C114.491074,721.190857 114.491074,542.087769 114.491074,362.748230 
	C80.337090,362.748230 47.211338,362.748230 14.028467,362.748230 
	C14.028467,561.838684 14.028467,760.333130 14.028467,959.680603 
	C17.470085,959.680603 20.391945,959.680664 23.313805,959.680664 
	C231.954422,959.679871 440.595123,959.752930 649.235474,959.522583 
	C664.161560,959.506104 679.214355,958.121033 693.983032,955.884888 
	C724.993774,951.189758 752.746216,939.060120 775.374390,916.672852 
	C793.504333,898.736023 805.555725,877.037354 814.029724,853.239014 
	C825.287292,821.623108 830.216553,788.776428 832.541138,755.449890 
	C836.520691,698.395569 835.847656,641.534546 823.921021,585.335022 
	C813.596130,536.683167 796.287659,490.861023 766.544922,450.394501 
	C738.135620,411.742035 701.947754,383.345490 656.146790,368.311035 
	C641.152893,363.389191 626.857361,357.290466 613.405823,349.299744 
	C581.547668,330.374756 558.076355,304.534637 549.108887,267.621796 
	C540.829834,233.542664 541.186829,199.427216 552.467285,166.120270 
	C566.089966,125.897491 593.464172,98.319412 633.657776,83.622757 
M4927.968262,687.000000 
	C4927.968262,598.435425 4927.968262,509.870880 4927.968262,421.015167 
	C5010.354004,421.015167 5091.776367,421.015167 5174.166016,421.015167 
	C5174.166016,600.807678 5174.166016,779.931152 5174.166016,958.967163 
	C5208.229980,958.967163 5241.318848,958.967163 5275.113770,958.967163 
	C5275.113770,932.640137 5275.113770,907.020569 5275.113770,881.400940 
	C5275.113770,855.736023 5275.113770,830.071167 5275.113770,804.406250 
	C5275.113770,778.741333 5275.113770,753.076477 5275.113770,727.411560 
	C5275.113770,702.079956 5275.113770,676.748352 5275.113770,651.416748 
	C5275.113770,625.751831 5275.113770,600.086975 5275.113770,574.422058 
	C5275.113770,548.757141 5275.050293,523.092041 5275.131836,497.427399 
	C5275.212891,471.936646 5274.770020,446.433136 5275.431152,420.093658 
	C5339.115723,420.093658 5401.611816,420.093658 5463.998047,420.093658 
	C5463.998047,400.407227 5463.998047,381.610382 5463.998047,362.612152 
	C5252.853516,362.612152 5042.355957,362.612152 4830.665039,362.612152 
	C4830.665039,402.101929 4830.665039,441.153046 4830.665039,479.897247 
	C4829.175293,480.246277 4828.703125,480.469757 4828.608398,480.362091 
	C4827.291504,478.863190 4825.967773,477.363647 4824.757324,475.778992 
	C4789.442383,429.553467 4742.960449,399.117645 4688.592285,380.129883 
	C4638.645508,362.686371 4586.900879,356.794434 4534.237793,357.096191 
	C4487.216309,357.365601 4441.266113,364.168976 4397.036133,380.308929 
	C4298.420898,416.294647 4232.554688,483.658539 4203.276855,585.202637 
	C4189.733398,632.174988 4187.083984,680.219421 4191.406250,728.768494 
	C4194.988770,769.004944 4204.978027,807.417053 4224.091309,843.175842 
	C4248.795898,889.394836 4284.576172,924.016174 4332.854492,944.951172 
	C4369.629883,960.898071 4408.151855,966.196655 4448.109863,962.845703 
	C4480.749023,960.108459 4511.717773,952.305054 4540.261230,935.908508 
	C4578.797363,913.771362 4605.061523,881.797363 4615.701660,838.396179 
	C4624.737793,801.535706 4621.862793,764.839905 4608.763184,729.316650 
	C4592.113281,684.164490 4560.181152,654.415344 4514.337402,640.113403 
	C4480.192871,629.461426 4445.325195,628.578064 4410.720703,637.214355 
	C4341.353027,654.526550 4294.342773,697.650208 4267.892090,763.699707 
	C4266.307129,767.657227 4264.904297,771.687744 4262.917480,777.025513 
	C4261.718750,773.251038 4260.745605,770.903625 4260.230957,768.459656 
	C4249.730957,718.578918 4248.677246,668.630493 4259.913574,618.739136 
	C4276.144531,546.672363 4315.605469,491.305664 4379.971191,454.528839 
	C4421.765625,430.648346 4467.271973,418.764832 4515.145508,416.015961 
	C4568.509766,412.951813 4621.020996,417.725372 4671.627930,436.043793 
	C4737.602539,459.924652 4784.848633,503.442474 4809.384277,569.968201 
	C4821.754395,603.507874 4825.636719,638.518738 4825.654297,674.043579 
	C4825.700684,765.370605 4825.671387,856.697693 4825.671875,948.024719 
	C4825.671875,951.604004 4825.671875,955.183228 4825.671875,959.187439 
	C4860.063477,959.187439 4893.537109,959.187439 4927.968262,959.187439 
	C4927.968262,868.798218 4927.968262,778.899109 4927.968262,687.000000 
M2624.920654,659.880371 
	C2590.938965,686.582825 2571.673096,721.585022 2567.083740,764.396118 
	C2562.542480,806.756653 2571.490967,845.908203 2597.445801,880.350952 
	C2621.272949,911.969971 2653.137695,932.706970 2689.956787,945.727356 
	C2755.004883,968.730286 2821.129639,969.352173 2887.671387,952.814941 
	C2921.733398,944.349731 2952.874023,929.599915 2979.822754,906.883911 
	C3027.294922,866.868164 3049.692627,814.783081 3051.899658,753.532043 
	C3052.715576,730.896667 3052.100098,708.210022 3052.174072,685.546936 
	C3052.183594,682.641846 3052.416260,679.737549 3052.557373,676.561829 
	C3054.421631,676.333435 3055.688477,676.039551 3056.954346,676.043762 
	C3076.950439,676.111084 3096.964355,675.720337 3116.937744,676.443542 
	C3139.997803,677.278503 3162.647461,681.034668 3184.146973,689.936768 
	C3217.532227,703.760315 3240.759521,726.772095 3249.325439,762.800232 
	C3252.907715,777.868713 3253.488770,793.221497 3251.734619,808.504395 
	C3248.791016,834.148621 3238.643555,856.527344 3219.488281,874.325806 
	C3198.243652,894.065735 3172.598389,902.958374 3144.065918,904.097046 
	C3130.754395,904.628235 3117.406982,904.235840 3104.076416,904.353882 
	C3101.564453,904.376099 3099.055908,904.832153 3096.280029,905.115112 
	C3096.280029,915.265137 3096.247559,924.588684 3096.289062,933.911987 
	C3096.330078,943.101318 3096.445801,952.290344 3096.527344,961.296997 
	C3123.089111,961.296997 3148.425049,962.087585 3173.691406,961.095642 
	C3204.862793,959.871765 3235.041504,953.231689 3263.472900,939.853577 
	C3301.853027,921.794189 3330.338135,894.182068 3345.405273,853.970642 
	C3354.450928,829.829468 3356.410889,804.756897 3354.081055,779.199646 
	C3351.226318,747.885559 3341.016846,719.496704 3320.956787,695.020935 
	C3296.933105,665.708374 3265.421387,647.781860 3229.978760,636.138611 
	C3192.977539,623.983337 3154.773926,618.906921 3115.978516,618.018799 
	C3097.323486,617.591675 3078.651855,617.892273 3059.988525,617.788696 
	C3057.473633,617.774719 3054.961182,617.323486 3052.581055,617.087891 
	C3050.681152,584.674683 3051.581299,428.644135 3053.876953,420.025543 
	C3115.819092,420.025543 3177.983154,420.025543 3240.197754,420.025543 
	C3240.197754,400.347473 3240.197754,381.492401 3240.197754,362.705048 
	C3062.757080,362.705048 2885.917236,362.705048 2708.237793,362.705048 
	C2708.237793,449.769409 2708.237793,536.288513 2708.237793,623.116943 
	C2678.062988,629.888611 2650.355469,640.629395 2624.920654,659.880371 
M1159.918579,961.259644 
	C1166.888672,961.855103 1173.849976,962.590088 1180.830078,963.023499 
	C1226.860229,965.881409 1272.035889,961.433350 1315.690552,945.959595 
	C1359.547119,930.414307 1396.231201,904.956909 1422.658081,865.998108 
	C1445.973145,831.626892 1456.478149,793.175842 1457.684448,752.070435 
	C1458.348877,729.424011 1457.853882,706.744141 1457.941650,684.079529 
	C1457.951538,681.545105 1458.353882,679.012268 1458.559692,676.645691 
	C1482.208496,676.645691 1505.203125,675.767151 1528.089844,676.959717 
	C1542.936523,677.733337 1557.910889,680.437744 1572.325562,684.201172 
	C1601.529297,691.825684 1626.500488,706.441101 1642.727539,733.037903 
	C1656.082886,754.927551 1659.440796,779.140442 1657.858276,804.201294 
	C1654.692261,854.337036 1617.413696,895.394409 1567.931885,901.915161 
	C1549.869751,904.295410 1531.404175,903.630005 1513.120728,904.302429 
	C1509.597290,904.432068 1506.065063,904.321045 1502.668213,904.321045 
	C1502.668213,924.194580 1502.668213,942.690430 1502.668213,962.508423 
	C1531.568970,961.784912 1559.833496,961.498657 1588.054932,960.244019 
	C1612.849121,959.141846 1636.720337,953.158752 1659.799927,944.010193 
	C1722.679077,919.085510 1759.372437,866.815918 1760.542114,800.377869 
	C1761.259644,759.625549 1750.678223,722.635864 1723.666748,691.305054 
	C1705.233521,669.924255 1681.967896,655.203796 1656.350220,644.046875 
	C1616.357422,626.629333 1573.973511,620.281677 1530.843262,618.345703 
	C1509.217285,617.375000 1487.521729,617.967224 1465.858154,617.793213 
	C1463.325073,617.772888 1460.795166,617.373657 1458.601807,617.179932 
	C1458.601807,551.237793 1458.601807,486.087402 1458.601807,420.099609 
	C1521.438843,420.099609 1583.592773,420.099609 1645.760254,420.099609 
	C1645.760254,400.446320 1645.760254,381.642670 1645.760254,362.711426 
	C1468.369995,362.711426 1291.568848,362.711426 1113.933838,362.711426 
	C1113.933838,449.791321 1113.933838,536.319275 1113.933838,622.591431 
	C1102.949463,625.882568 1092.649536,628.500305 1082.677124,632.040222 
	C1045.832764,645.118713 1015.117554,666.365723 994.229492,700.171631 
	C958.277222,758.357971 959.782104,854.399963 1034.258911,912.063049 
	C1070.795898,940.351562 1112.814819,954.881958 1159.918579,961.259644 
M2427.885498,723.239929 
	C2426.501953,719.849609 2425.195312,716.425537 2423.722656,713.074402 
	C2408.087646,677.500977 2382.295410,652.225952 2346.238281,637.821777 
	C2314.017578,624.950256 2280.445312,621.567200 2246.153564,625.837708 
	C2198.739990,631.742310 2158.408936,652.049744 2125.824707,687.041382 
	C2090.764160,724.691772 2072.492676,770.077087 2065.708984,820.551270 
	C2064.942383,826.255737 2064.107422,831.950989 2063.069580,839.315430 
	C2058.077393,834.661682 2054.400879,831.370544 2050.874023,827.926086 
	C2006.494751,784.584106 1976.964478,732.234375 1958.077393,673.625244 
	C1938.336426,612.366455 1931.942871,549.458618 1935.295654,485.299347 
	C1938.384644,426.189667 1950.308838,369.216034 1974.021973,314.857819 
	C1993.581421,270.021088 2020.754150,230.465088 2056.174316,196.657150 
	C2058.143555,194.777618 2060.519775,193.324402 2063.582031,191.011414 
	C2066.457275,219.980347 2071.760254,246.688217 2081.928955,272.244995 
	C2099.716797,316.951813 2127.826172,353.276489 2169.663086,377.865906 
	C2218.036377,406.297150 2270.069092,412.211456 2323.997070,399.220184 
	C2374.035156,387.166138 2409.219727,356.925018 2427.605713,308.248962 
	C2434.241211,290.682037 2437.631348,272.351990 2439.190674,253.712433 
	C2441.641113,224.423065 2438.786133,195.741394 2427.126221,168.496979 
	C2408.290283,124.484612 2374.516113,96.377022 2330.403809,80.103790 
	C2291.851074,65.881615 2251.921631,63.281620 2211.281250,67.630531 
	C2162.830566,72.815193 2117.794678,88.160103 2075.863281,112.698944 
	C2005.779053,153.713486 1955.202026,212.533203 1920.085449,285.107605 
	C1886.573486,354.366302 1872.075928,428.094910 1870.644409,504.559113 
	C1869.724731,553.688416 1874.500610,602.374268 1886.191284,650.204102 
	C1906.499878,733.292358 1944.405151,806.783447 2007.199341,865.846008 
	C2078.546875,932.953735 2162.555176,968.555847 2261.707031,964.220154 
	C2290.939697,962.941895 2319.099854,956.668030 2345.661133,944.156128 
	C2389.180664,923.655762 2419.937744,891.450928 2433.373779,844.718689 
	C2444.968262,804.390991 2440.868164,764.280884 2427.885498,723.239929 
M3937.505859,469.000061 
	C3937.505859,453.106445 3937.505859,437.212860 3937.505859,420.288116 
	C4001.186035,420.288116 4063.667236,420.288116 4127.064453,420.288116 
	C4127.271973,400.414001 4127.222168,381.611023 4127.131836,362.757385 
	C3925.510010,362.757385 3725.352783,362.757385 3524.846191,362.757385 
	C3524.846191,561.828186 3524.846191,760.271362 3524.846191,959.191833 
	C3546.615479,959.191833 3567.770508,959.191833 3590.076172,959.191833 
	C3590.076172,779.592346 3590.076172,600.495972 3590.076172,421.601044 
	C3602.883301,419.412476 3828.436035,419.908417 3836.183594,422.169373 
	C3836.183594,600.810364 3836.183594,779.681030 3836.183594,959.124329 
	C3870.089355,959.124329 3903.214600,959.124329 3937.505371,959.124329 
	C3937.505371,796.090881 3937.505371,633.545471 3937.505859,469.000061 
M4941.703613,201.772552 
	C4938.217285,169.025528 4907.859863,139.817719 4868.214844,143.857285 
	C4835.417969,147.199036 4807.503418,179.999725 4810.486816,212.718506 
	C4814.160156,253.000153 4852.844727,280.401581 4892.138184,270.943359 
	C4919.777344,264.290497 4944.213867,236.591492 4941.703613,201.772552 
M1320.066650,203.540695 
	C1316.238892,241.969910 1354.078369,284.719299 1405.140991,269.676544 
	C1439.513550,259.550507 1458.820923,223.219772 1448.545166,190.019638 
	C1437.773071,155.216019 1400.203247,135.068604 1365.971191,146.578064 
	C1339.684814,155.416046 1324.425659,174.232742 1320.066650,203.540695 
z"/>
<path fill="#020202" opacity="1.000000" stroke="none" 
	d="
M633.017273,82.849312 
	C593.464172,98.319412 566.089966,125.897491 552.467285,166.120270 
	C541.186829,199.427216 540.829834,233.542664 549.108887,267.621796 
	C558.076355,304.534637 581.547668,330.374756 613.405823,349.299744 
	C626.857361,357.290466 641.152893,363.389191 656.146790,368.311035 
	C701.947754,383.345490 738.135620,411.742035 766.544922,450.394501 
	C796.287659,490.861023 813.596130,536.683167 823.921021,585.335022 
	C835.847656,641.534546 836.520691,698.395569 832.541138,755.449890 
	C830.216553,788.776428 825.287292,821.623108 814.029724,853.239014 
	C805.555725,877.037354 793.504333,898.736023 775.374390,916.672852 
	C752.746216,939.060120 724.993774,951.189758 693.983032,955.884888 
	C679.214355,958.121033 664.161560,959.506104 649.235474,959.522583 
	C440.595123,959.752930 231.954422,959.679871 23.313805,959.680664 
	C20.391945,959.680664 17.470085,959.680603 14.028467,959.680603 
	C14.028467,760.333130 14.028467,561.838684 14.028467,362.748230 
	C47.211338,362.748230 80.337090,362.748230 114.491074,362.748230 
	C114.491074,542.087769 114.491074,721.190857 114.491074,900.838379 
	C207.353577,900.838379 299.192902,900.838379 392.216492,900.838379 
	C392.360535,897.084534 392.635376,893.250854 392.636139,889.417114 
	C392.659332,775.431335 392.551361,661.445435 392.716461,547.459839 
	C392.768860,511.284637 399.840271,476.664581 418.008820,444.874908 
	C438.948608,408.236389 470.212036,384.088867 509.492584,369.923309 
	C520.375549,365.998657 531.651062,363.162476 543.285461,359.664886 
	C541.681030,357.885620 540.477112,356.341217 539.066589,355.016907 
	C499.092163,317.484985 479.884216,271.135162 481.503723,216.518631 
	C483.994934,132.503525 525.082703,73.010056 599.408569,36.062988 
	C643.933350,13.929914 691.860962,7.253719 741.185730,9.090446 
	C774.691650,10.338120 807.431519,15.657425 838.731384,28.064610 
	C875.258728,42.543941 906.591736,64.014389 926.544006,98.739845 
	C949.616333,138.895447 956.041992,181.340988 938.078064,225.233704 
	C923.920227,259.826721 897.121826,282.085205 863.314819,296.274170 
	C826.256226,311.827820 787.670593,313.581146 748.518494,307.119263 
	C724.282898,303.119293 701.558655,294.796448 681.337402,280.485718 
	C644.317932,254.286911 625.731567,217.747299 622.039185,173.213913 
	C619.554016,143.241211 624.043823,114.106415 634.829346,84.903099 
	C634.505371,83.568321 633.761353,83.208817 633.017273,82.849312 
M495.364899,756.999573 
	C495.364899,804.863831 495.364899,852.728088 495.364899,901.031677 
	C498.530823,901.191406 500.473114,901.374207 502.415466,901.374817 
	C548.409851,901.389221 594.406372,901.627075 640.397217,901.223450 
	C653.001587,901.112854 665.750793,899.969971 678.153015,897.740295 
	C711.545349,891.736877 735.983582,873.502808 750.204895,842.282959 
	C757.587036,826.077026 761.562683,808.929321 764.012756,791.409912 
	C769.665710,750.987793 769.662354,710.342896 768.081177,669.685547 
	C766.559753,630.564392 760.412354,592.184570 747.686951,555.043884 
	C735.116821,518.356384 717.318115,484.691376 688.666138,457.835602 
	C659.243347,430.257324 625.091858,415.787750 583.955994,421.940002 
	C552.052612,426.711456 527.069275,441.680847 511.496613,470.680298 
	C499.358093,493.284698 495.347046,517.758972 495.317780,543.026062 
	C495.235931,613.683777 495.336395,684.341675 495.364899,756.999573 
M819.203674,93.699295 
	C809.560913,88.511108 800.324951,82.280678 790.199890,78.328026 
	C758.439697,65.929352 725.262085,65.708122 691.329468,68.285988 
	C676.676147,106.227135 669.771729,144.709259 680.188354,184.641144 
	C687.078918,211.056091 702.264282,231.617310 727.731018,242.984375 
	C752.004517,253.818771 777.393921,255.778564 802.809875,247.915268 
	C838.704651,236.809952 859.438049,206.703171 858.198914,169.318924 
	C857.177979,138.518097 845.098877,113.322235 819.203674,93.699295 
z"/>
<path fill="#020202" opacity="1.000000" stroke="none" 
	d="
M4927.968262,688.000000 
	C4927.968262,778.899109 4927.968262,868.798218 4927.968262,959.187439 
	C4893.537109,959.187439 4860.063477,959.187439 4825.671875,959.187439 
	C4825.671875,955.183228 4825.671875,951.604004 4825.671875,948.024719 
	C4825.671387,856.697693 4825.700684,765.370605 4825.654297,674.043579 
	C4825.636719,638.518738 4821.754395,603.507874 4809.384277,569.968201 
	C4784.848633,503.442474 4737.602539,459.924652 4671.627930,436.043793 
	C4621.020996,417.725372 4568.509766,412.951813 4515.145508,416.015961 
	C4467.271973,418.764832 4421.765625,430.648346 4379.971191,454.528839 
	C4315.605469,491.305664 4276.144531,546.672363 4259.913574,618.739136 
	C4248.677246,668.630493 4249.730957,718.578918 4260.230957,768.459656 
	C4260.745605,770.903625 4261.718750,773.251038 4262.917480,777.025513 
	C4264.904297,771.687744 4266.307129,767.657227 4267.892090,763.699707 
	C4294.342773,697.650208 4341.353027,654.526550 4410.720703,637.214355 
	C4445.325195,628.578064 4480.192871,629.461426 4514.337402,640.113403 
	C4560.181152,654.415344 4592.113281,684.164490 4608.763184,729.316650 
	C4621.862793,764.839905 4624.737793,801.535706 4615.701660,838.396179 
	C4605.061523,881.797363 4578.797363,913.771362 4540.261230,935.908508 
	C4511.717773,952.305054 4480.749023,960.108459 4448.109863,962.845703 
	C4408.151855,966.196655 4369.629883,960.898071 4332.854492,944.951172 
	C4284.576172,924.016174 4248.795898,889.394836 4224.091309,843.175842 
	C4204.978027,807.417053 4194.988770,769.004944 4191.406250,728.768494 
	C4187.083984,680.219421 4189.733398,632.174988 4203.276855,585.202637 
	C4232.554688,483.658539 4298.420898,416.294647 4397.036133,380.308929 
	C4441.266113,364.168976 4487.216309,357.365601 4534.237793,357.096191 
	C4586.900879,356.794434 4638.645508,362.686371 4688.592285,380.129883 
	C4742.960449,399.117645 4789.442383,429.553467 4824.757324,475.778992 
	C4825.967773,477.363647 4827.291504,478.863190 4828.608398,480.362091 
	C4828.703125,480.469757 4829.175293,480.246277 4830.665039,479.897247 
	C4830.665039,441.153046 4830.665039,402.101929 4830.665039,362.612152 
	C5042.355957,362.612152 5252.853516,362.612152 5463.998047,362.612152 
	C5463.998047,381.610382 5463.998047,400.407227 5463.998047,420.093658 
	C5401.611816,420.093658 5339.115723,420.093658 5275.431152,420.093658 
	C5274.770020,446.433136 5275.212891,471.936646 5275.131836,497.427399 
	C5275.050293,523.092041 5275.113770,548.757141 5275.113770,574.422058 
	C5275.113770,600.086975 5275.113770,625.751831 5275.113770,651.416748 
	C5275.113770,676.748352 5275.113770,702.079956 5275.113770,727.411560 
	C5275.113770,753.076477 5275.113770,778.741333 5275.113770,804.406250 
	C5275.113770,830.071167 5275.113770,855.736023 5275.113770,881.400940 
	C5275.113770,907.020569 5275.113770,932.640137 5275.113770,958.967163 
	C5241.318848,958.967163 5208.229980,958.967163 5174.166016,958.967163 
	C5174.166016,779.931152 5174.166016,600.807678 5174.166016,421.015167 
	C5091.776367,421.015167 5010.354004,421.015167 4927.968262,421.015167 
	C4927.968262,509.870880 4927.968262,598.435425 4927.968262,688.000000 
M4515.831055,834.372009 
	C4519.873535,820.795654 4521.315430,806.878479 4519.908691,792.852905 
	C4516.100586,754.882629 4497.985840,726.432739 4461.577637,712.819519 
	C4417.247559,696.244141 4359.091797,703.341980 4322.531738,751.632080 
	C4304.835449,775.005554 4295.442871,801.728149 4290.791016,830.443298 
	C4289.857422,836.207825 4290.736816,840.624451 4294.107910,845.254211 
	C4325.798828,888.773804 4367.912109,910.938049 4422.158691,905.767822 
	C4466.918457,901.501770 4499.843750,879.922485 4515.831055,834.372009 
z"/>
<path fill="#020202" opacity="1.000000" stroke="none" 
	d="
M2625.484619,659.445435 
	C2650.355469,640.629395 2678.062988,629.888611 2708.237793,623.116943 
	C2708.237793,536.288513 2708.237793,449.769409 2708.237793,362.705048 
	C2885.917236,362.705048 3062.757080,362.705048 3240.197754,362.705048 
	C3240.197754,381.492401 3240.197754,400.347473 3240.197754,420.025543 
	C3177.983154,420.025543 3115.819092,420.025543 3053.876953,420.025543 
	C3051.581299,428.644135 3050.681152,584.674683 3052.581055,617.087891 
	C3054.961182,617.323486 3057.473633,617.774719 3059.988525,617.788696 
	C3078.651855,617.892273 3097.323486,617.591675 3115.978516,618.018799 
	C3154.773926,618.906921 3192.977539,623.983337 3229.978760,636.138611 
	C3265.421387,647.781860 3296.933105,665.708374 3320.956787,695.020935 
	C3341.016846,719.496704 3351.226318,747.885559 3354.081055,779.199646 
	C3356.410889,804.756897 3354.450928,829.829468 3345.405273,853.970642 
	C3330.338135,894.182068 3301.853027,921.794189 3263.472900,939.853577 
	C3235.041504,953.231689 3204.862793,959.871765 3173.691406,961.095642 
	C3148.425049,962.087585 3123.089111,961.296997 3096.527344,961.296997 
	C3096.445801,952.290344 3096.330078,943.101318 3096.289062,933.911987 
	C3096.247559,924.588684 3096.280029,915.265137 3096.280029,905.115112 
	C3099.055908,904.832153 3101.564453,904.376099 3104.076416,904.353882 
	C3117.406982,904.235840 3130.754395,904.628235 3144.065918,904.097046 
	C3172.598389,902.958374 3198.243652,894.065735 3219.488281,874.325806 
	C3238.643555,856.527344 3248.791016,834.148621 3251.734619,808.504395 
	C3253.488770,793.221497 3252.907715,777.868713 3249.325439,762.800232 
	C3240.759521,726.772095 3217.532227,703.760315 3184.146973,689.936768 
	C3162.647461,681.034668 3139.997803,677.278503 3116.937744,676.443542 
	C3096.964355,675.720337 3076.950439,676.111084 3056.954346,676.043762 
	C3055.688477,676.039551 3054.421631,676.333435 3052.557373,676.561829 
	C3052.416260,679.737549 3052.183594,682.641846 3052.174072,685.546936 
	C3052.100098,708.210022 3052.715576,730.896667 3051.899658,753.532043 
	C3049.692627,814.783081 3027.294922,866.868164 2979.822754,906.883911 
	C2952.874023,929.599915 2921.733398,944.349731 2887.671387,952.814941 
	C2821.129639,969.352173 2755.004883,968.730286 2689.956787,945.727356 
	C2653.137695,932.706970 2621.272949,911.969971 2597.445801,880.350952 
	C2571.490967,845.908203 2562.542480,806.756653 2567.083740,764.396118 
	C2571.673096,721.585022 2590.938965,686.582825 2625.484619,659.445435 
M2707.792236,891.459961 
	C2752.305664,908.944580 2797.878662,911.341980 2843.989014,899.627075 
	C2879.446289,890.618835 2908.595947,871.826416 2928.233398,840.092468 
	C2943.001221,816.228088 2949.063477,789.794312 2949.645020,762.114197 
	C2950.211914,735.146912 2949.843262,708.159729 2949.836426,681.181274 
	C2949.835938,679.629089 2949.396240,678.077026 2949.143799,676.411987 
	C2947.312744,676.247375 2946.020508,676.029785 2944.728271,676.029480 
	C2886.440918,676.016357 2828.151855,675.774292 2769.866943,676.152771 
	C2747.800781,676.296021 2726.106934,679.933167 2705.416016,688.070862 
	C2683.526123,696.679932 2664.751465,709.569458 2652.065674,729.792419 
	C2633.921143,758.717102 2631.740967,789.944275 2641.370361,821.987061 
	C2651.458008,855.554993 2675.189941,876.861206 2707.792236,891.459961 
M2774.066162,447.023621 
	C2774.066162,503.796814 2774.066162,560.570007 2774.066162,617.335876 
	C2833.319336,617.335876 2891.119141,617.335876 2949.139648,617.335876 
	C2949.139648,551.512756 2949.139648,486.185638 2949.139648,420.837891 
	C2890.603516,420.837891 2832.805420,420.837891 2774.066162,420.837891 
	C2774.066162,429.220337 2774.066162,437.127289 2774.066162,447.023621 
z"/>
<path fill="#020202" opacity="1.000000" stroke="none" 
	d="
M1159.044189,961.060669 
	C1112.814819,954.881958 1070.795898,940.351562 1034.258911,912.063049 
	C959.782104,854.399963 958.277222,758.357971 994.229492,700.171631 
	C1015.117554,666.365723 1045.832764,645.118713 1082.677124,632.040222 
	C1092.649536,628.500305 1102.949463,625.882568 1113.933838,622.591431 
	C1113.933838,536.319275 1113.933838,449.791321 1113.933838,362.711426 
	C1291.568848,362.711426 1468.369995,362.711426 1645.760254,362.711426 
	C1645.760254,381.642670 1645.760254,400.446320 1645.760254,420.099609 
	C1583.592773,420.099609 1521.438843,420.099609 1458.601807,420.099609 
	C1458.601807,486.087402 1458.601807,551.237793 1458.601807,617.179932 
	C1460.795166,617.373657 1463.325073,617.772888 1465.858154,617.793213 
	C1487.521729,617.967224 1509.217285,617.375000 1530.843262,618.345703 
	C1573.973511,620.281677 1616.357422,626.629333 1656.350220,644.046875 
	C1681.967896,655.203796 1705.233521,669.924255 1723.666748,691.305054 
	C1750.678223,722.635864 1761.259644,759.625549 1760.542114,800.377869 
	C1759.372437,866.815918 1722.679077,919.085510 1659.799927,944.010193 
	C1636.720337,953.158752 1612.849121,959.141846 1588.054932,960.244019 
	C1559.833496,961.498657 1531.568970,961.784912 1502.668213,962.508423 
	C1502.668213,942.690430 1502.668213,924.194580 1502.668213,904.321045 
	C1506.065063,904.321045 1509.597290,904.432068 1513.120728,904.302429 
	C1531.404175,903.630005 1549.869751,904.295410 1567.931885,901.915161 
	C1617.413696,895.394409 1654.692261,854.337036 1657.858276,804.201294 
	C1659.440796,779.140442 1656.082886,754.927551 1642.727539,733.037903 
	C1626.500488,706.441101 1601.529297,691.825684 1572.325562,684.201172 
	C1557.910889,680.437744 1542.936523,677.733337 1528.089844,676.959717 
	C1505.203125,675.767151 1482.208496,676.645691 1458.559692,676.645691 
	C1458.353882,679.012268 1457.951538,681.545105 1457.941650,684.079529 
	C1457.853882,706.744141 1458.348877,729.424011 1457.684448,752.070435 
	C1456.478149,793.175842 1445.973145,831.626892 1422.658081,865.998108 
	C1396.231201,904.956909 1359.547119,930.414307 1315.690552,945.959595 
	C1272.035889,961.433350 1226.860229,965.881409 1180.830078,963.023499 
	C1173.849976,962.590088 1166.888672,961.855103 1159.044189,961.060669 
M1328.834229,847.730530 
	C1331.811890,842.925598 1335.032104,838.252441 1337.725952,833.293335 
	C1350.941528,808.966125 1355.246948,782.518311 1355.551270,755.263489 
	C1355.819092,731.279480 1355.631470,707.290222 1355.588867,683.303406 
	C1355.584961,681.077759 1355.176147,678.852783 1354.960083,676.674622 
	C1353.449829,676.390137 1352.495605,676.052307 1351.541748,676.053345 
	C1290.576050,676.121216 1229.608521,675.978088 1168.645752,676.454407 
	C1150.271240,676.597961 1132.232910,680.372681 1114.891602,686.590332 
	C1091.780640,694.876709 1071.503052,707.609436 1058.322021,728.826050 
	C1035.843384,765.008545 1035.837891,802.818176 1054.759277,840.117859 
	C1070.671997,871.486572 1099.013672,888.215332 1131.619141,897.871094 
	C1167.041016,908.360962 1203.133423,909.503174 1239.325684,902.090759 
	C1275.039551,894.776428 1305.653442,878.654907 1328.834229,847.730530 
M1229.000122,420.333588 
	C1212.802246,420.333588 1196.604248,420.333588 1180.304688,420.333588 
	C1180.304688,486.675781 1180.304688,551.792236 1180.304688,617.196777 
	C1238.823364,617.196777 1296.856445,617.196777 1355.101562,617.196777 
	C1355.101562,551.471008 1355.101562,486.379242 1355.101562,421.526093 
	C1354.003540,421.021484 1353.426758,420.525208 1352.848877,420.523956 
	C1312.232788,420.435242 1271.616455,420.386078 1229.000122,420.333588 
z"/>
<path fill="#C67035" opacity="1.000000" stroke="none" 
	d="
M2428.102539,723.991638 
	C2440.868164,764.280884 2444.968262,804.390991 2433.373779,844.718689 
	C2419.937744,891.450928 2389.180664,923.655762 2345.661133,944.156128 
	C2319.099854,956.668030 2290.939697,962.941895 2261.707031,964.220154 
	C2162.555176,968.555847 2078.546875,932.953735 2007.199341,865.846008 
	C1944.405151,806.783447 1906.499878,733.292358 1886.191284,650.204102 
	C1874.500610,602.374268 1869.724731,553.688416 1870.644409,504.559113 
	C1872.075928,428.094910 1886.573486,354.366302 1920.085449,285.107605 
	C1955.202026,212.533203 2005.779053,153.713486 2075.863281,112.698944 
	C2117.794678,88.160103 2162.830566,72.815193 2211.281250,67.630531 
	C2251.921631,63.281620 2291.851074,65.881615 2330.403809,80.103790 
	C2374.516113,96.377022 2408.290283,124.484612 2427.126221,168.496979 
	C2438.786133,195.741394 2441.641113,224.423065 2439.190674,253.712433 
	C2437.631348,272.351990 2434.241211,290.682037 2427.605713,308.248962 
	C2409.219727,356.925018 2374.035156,387.166138 2323.997070,399.220184 
	C2270.069092,412.211456 2218.036377,406.297150 2169.663086,377.865906 
	C2127.826172,353.276489 2099.716797,316.951813 2081.928955,272.244995 
	C2071.760254,246.688217 2066.457275,219.980347 2063.582031,191.011414 
	C2060.519775,193.324402 2058.143555,194.777618 2056.174316,196.657150 
	C2020.754150,230.465088 1993.581421,270.021088 1974.021973,314.857819 
	C1950.308838,369.216034 1938.384644,426.189667 1935.295654,485.299347 
	C1931.942871,549.458618 1938.336426,612.366455 1958.077393,673.625244 
	C1976.964478,732.234375 2006.494751,784.584106 2050.874023,827.926086 
	C2054.400879,831.370544 2058.077393,834.661682 2063.069580,839.315430 
	C2064.107422,831.950989 2064.942383,826.255737 2065.708984,820.551270 
	C2072.492676,770.077087 2090.764160,724.691772 2125.824707,687.041382 
	C2158.408936,652.049744 2198.739990,631.742310 2246.153564,625.837708 
	C2280.445312,621.567200 2314.017578,624.950256 2346.238281,637.821777 
	C2382.295410,652.225952 2408.087646,677.500977 2423.722656,713.074402 
	C2425.195312,716.425537 2426.501953,719.849609 2428.102539,723.991638 
M2107.729248,802.888062 
	C2104.453613,821.193420 2101.245361,839.511169 2097.865234,857.797180 
	C2096.722168,863.981323 2099.102539,867.731873 2104.611816,870.472229 
	C2115.029297,875.653931 2124.976562,881.845642 2135.590088,886.556885 
	C2173.486816,903.378906 2213.045654,911.420349 2254.283936,903.852783 
	C2294.414062,896.488403 2322.623291,873.897217 2335.108398,834.010254 
	C2340.473633,816.869263 2340.781738,799.284180 2337.964844,781.625671 
	C2331.854492,743.318176 2312.353271,715.764832 2274.494385,703.190674 
	C2258.129639,697.755432 2241.162598,696.838623 2224.145996,698.049500 
	C2191.994873,700.337463 2164.200684,712.172729 2142.305664,736.530823 
	C2125.455322,755.276367 2115.283203,777.491516 2107.729248,802.888062 
M2277.362305,133.383698 
	C2260.773438,126.717758 2243.492676,123.902222 2225.671143,124.075356 
	C2193.587891,124.387039 2163.052734,131.648682 2133.903564,144.824356 
	C2121.229492,150.553101 2108.877686,156.942032 2097.240479,165.638611 
	C2098.189697,174.083237 2098.897217,182.347153 2100.080811,190.542328 
	C2103.616699,215.022171 2109.621826,238.836456 2120.600830,261.137482 
	C2136.273926,292.973145 2159.654785,316.555389 2194.206055,327.192871 
	C2219.557617,334.997986 2245.317139,335.440460 2271.003662,328.421021 
	C2300.340332,320.404053 2320.722168,302.021545 2331.446777,273.712280 
	C2335.170166,263.884064 2337.425537,253.237228 2338.638916,242.765869 
	C2344.045166,196.112350 2323.369873,152.751038 2277.362305,133.383698 
z"/>
<path fill="#C67035" opacity="1.000000" stroke="none" 
	d="
M3937.505615,470.000061 
	C3937.505371,633.545471 3937.505371,796.090881 3937.505371,959.124329 
	C3903.214600,959.124329 3870.089355,959.124329 3836.183594,959.124329 
	C3836.183594,779.681030 3836.183594,600.810364 3836.183594,422.169373 
	C3828.436035,419.908417 3602.883301,419.412476 3590.076172,421.601044 
	C3590.076172,600.495972 3590.076172,779.592346 3590.076172,959.191833 
	C3567.770508,959.191833 3546.615479,959.191833 3524.846191,959.191833 
	C3524.846191,760.271362 3524.846191,561.828186 3524.846191,362.757385 
	C3725.352783,362.757385 3925.510010,362.757385 4127.131836,362.757385 
	C4127.222168,381.611023 4127.271973,400.414001 4127.064453,420.288116 
	C4063.667236,420.288116 4001.186035,420.288116 3937.505859,420.288116 
	C3937.505859,437.212860 3937.505859,453.106445 3937.505615,470.000061 
z"/>
<path fill="#020202" opacity="1.000000" stroke="none" 
	d="
M4941.759277,202.660004 
	C4944.213867,236.591492 4919.777344,264.290497 4892.138184,270.943359 
	C4852.844727,280.401581 4814.160156,253.000153 4810.486816,212.718506 
	C4807.503418,179.999725 4835.417969,147.199036 4868.214844,143.857285 
	C4907.859863,139.817719 4938.217285,169.025528 4941.759277,202.660004 
z"/>
<path fill="#020202" opacity="1.000000" stroke="none" 
	d="
M1320.114502,202.653137 
	C1324.425659,174.232742 1339.684814,155.416046 1365.971191,146.578064 
	C1400.203247,135.068604 1437.773071,155.216019 1448.545166,190.019638 
	C1458.820923,223.219772 1439.513550,259.550507 1405.140991,269.676544 
	C1354.078369,284.719299 1316.238892,241.969910 1320.114502,202.653137 
z"/>
<path fill="#FEFEFE" opacity="1.000000" stroke="none" 
	d="
M495.364868,755.999512 
	C495.336395,684.341675 495.235931,613.683777 495.317780,543.026062 
	C495.347046,517.758972 499.358093,493.284698 511.496613,470.680298 
	C527.069275,441.680847 552.052612,426.711456 583.955994,421.940002 
	C625.091858,415.787750 659.243347,430.257324 688.666138,457.835602 
	C717.318115,484.691376 735.116821,518.356384 747.686951,555.043884 
	C760.412354,592.184570 766.559753,630.564392 768.081177,669.685547 
	C769.662354,710.342896 769.665710,750.987793 764.012756,791.409912 
	C761.562683,808.929321 757.587036,826.077026 750.204895,842.282959 
	C735.983582,873.502808 711.545349,891.736877 678.153015,897.740295 
	C665.750793,899.969971 653.001587,901.112854 640.397217,901.223450 
	C594.406372,901.627075 548.409851,901.389221 502.415466,901.374817 
	C500.473114,901.374207 498.530823,901.191406 495.364899,901.031677 
	C495.364899,852.728088 495.364899,804.863831 495.364868,755.999512 
z"/>
<path fill="#FEFEFE" opacity="1.000000" stroke="none" 
	d="
M819.800476,94.096680 
	C845.098877,113.322235 857.177979,138.518097 858.198914,169.318924 
	C859.438049,206.703171 838.704651,236.809952 802.809875,247.915268 
	C777.393921,255.778564 752.004517,253.818771 727.731018,242.984375 
	C702.264282,231.617310 687.078918,211.056091 680.188354,184.641144 
	C669.771729,144.709259 676.676147,106.227135 691.329468,68.285988 
	C725.262085,65.708122 758.439697,65.929352 790.199890,78.328026 
	C800.324951,82.280678 809.560913,88.511108 819.800476,94.096680 
z"/>
<path fill="#FFFFFE" opacity="1.000000" stroke="none" 
	d="
M633.337524,83.236031 
	C633.761353,83.208817 634.505371,83.568321 634.802612,84.136276 
	C634.123108,84.104080 633.890442,83.863419 633.337524,83.236031 
z"/>
<path fill="#FEFEFE" opacity="1.000000" stroke="none" 
	d="
M4515.606934,835.140808 
	C4499.843750,879.922485 4466.918457,901.501770 4422.158691,905.767822 
	C4367.912109,910.938049 4325.798828,888.773804 4294.107910,845.254211 
	C4290.736816,840.624451 4289.857422,836.207825 4290.791016,830.443298 
	C4295.442871,801.728149 4304.835449,775.005554 4322.531738,751.632080 
	C4359.091797,703.341980 4417.247559,696.244141 4461.577637,712.819519 
	C4497.985840,726.432739 4516.100586,754.882629 4519.908691,792.852905 
	C4521.315430,806.878479 4519.873535,820.795654 4515.606934,835.140808 
z"/>
<path fill="#FEFEFE" opacity="1.000000" stroke="none" 
	d="
M2707.114258,891.098999 
	C2675.189941,876.861206 2651.458008,855.554993 2641.370361,821.987061 
	C2631.740967,789.944275 2633.921143,758.717102 2652.065674,729.792419 
	C2664.751465,709.569458 2683.526123,696.679932 2705.416016,688.070862 
	C2726.106934,679.933167 2747.800781,676.296021 2769.866943,676.152771 
	C2828.151855,675.774292 2886.440918,676.016357 2944.728271,676.029480 
	C2946.020508,676.029785 2947.312744,676.247375 2949.143799,676.411987 
	C2949.396240,678.077026 2949.835938,679.629089 2949.836426,681.181274 
	C2949.843262,708.159729 2950.211914,735.146912 2949.645020,762.114197 
	C2949.063477,789.794312 2943.001221,816.228088 2928.233398,840.092468 
	C2908.595947,871.826416 2879.446289,890.618835 2843.989014,899.627075 
	C2797.878662,911.341980 2752.305664,908.944580 2707.114258,891.098999 
z"/>
<path fill="#FDFDFD" opacity="1.000000" stroke="none" 
	d="
M2774.066162,446.028931 
	C2774.066162,437.127289 2774.066162,429.220337 2774.066162,420.837891 
	C2832.805420,420.837891 2890.603516,420.837891 2949.139648,420.837891 
	C2949.139648,486.185638 2949.139648,551.512756 2949.139648,617.335876 
	C2891.119141,617.335876 2833.319336,617.335876 2774.066162,617.335876 
	C2774.066162,560.570007 2774.066162,503.796814 2774.066162,446.028931 
z"/>
<path fill="#FEFEFE" opacity="1.000000" stroke="none" 
	d="
M1328.409302,848.309082 
	C1305.653442,878.654907 1275.039551,894.776428 1239.325684,902.090759 
	C1203.133423,909.503174 1167.041016,908.360962 1131.619141,897.871094 
	C1099.013672,888.215332 1070.671997,871.486572 1054.759277,840.117859 
	C1035.837891,802.818176 1035.843384,765.008545 1058.322021,728.826050 
	C1071.503052,707.609436 1091.780640,694.876709 1114.891602,686.590332 
	C1132.232910,680.372681 1150.271240,676.597961 1168.645752,676.454407 
	C1229.608521,675.978088 1290.576050,676.121216 1351.541748,676.053345 
	C1352.495605,676.052307 1353.449829,676.390137 1354.960083,676.674622 
	C1355.176147,678.852783 1355.584961,681.077759 1355.588867,683.303406 
	C1355.631470,707.290222 1355.819092,731.279480 1355.551270,755.263489 
	C1355.246948,782.518311 1350.941528,808.966125 1337.725952,833.293335 
	C1335.032104,838.252441 1331.811890,842.925598 1328.409302,848.309082 
z"/>
<path fill="#FDFDFD" opacity="1.000000" stroke="none" 
	d="
M1230.000244,420.333618 
	C1271.616455,420.386078 1312.232788,420.435242 1352.848877,420.523956 
	C1353.426758,420.525208 1354.003540,421.021484 1355.101562,421.526093 
	C1355.101562,486.379242 1355.101562,551.471008 1355.101562,617.196777 
	C1296.856445,617.196777 1238.823364,617.196777 1180.304688,617.196777 
	C1180.304688,551.792236 1180.304688,486.675781 1180.304688,420.333588 
	C1196.604248,420.333588 1212.802246,420.333588 1230.000244,420.333618 
z"/>
<path fill="#FFFEFE" opacity="1.000000" stroke="none" 
	d="
M2107.896484,802.092773 
	C2115.283203,777.491516 2125.455322,755.276367 2142.305664,736.530823 
	C2164.200684,712.172729 2191.994873,700.337463 2224.145996,698.049500 
	C2241.162598,696.838623 2258.129639,697.755432 2274.494385,703.190674 
	C2312.353271,715.764832 2331.854492,743.318176 2337.964844,781.625671 
	C2340.781738,799.284180 2340.473633,816.869263 2335.108398,834.010254 
	C2322.623291,873.897217 2294.414062,896.488403 2254.283936,903.852783 
	C2213.045654,911.420349 2173.486816,903.378906 2135.590088,886.556885 
	C2124.976562,881.845642 2115.029297,875.653931 2104.611816,870.472229 
	C2099.102539,867.731873 2096.722168,863.981323 2097.865234,857.797180 
	C2101.245361,839.511169 2104.453613,821.193420 2107.896484,802.092773 
z"/>
<path fill="#FFFEFE" opacity="1.000000" stroke="none" 
	d="
M2278.087402,133.647675 
	C2323.369873,152.751038 2344.045166,196.112350 2338.638916,242.765869 
	C2337.425537,253.237228 2335.170166,263.884064 2331.446777,273.712280 
	C2320.722168,302.021545 2300.340332,320.404053 2271.003662,328.421021 
	C2245.317139,335.440460 2219.557617,334.997986 2194.206055,327.192871 
	C2159.654785,316.555389 2136.273926,292.973145 2120.600830,261.137482 
	C2109.621826,238.836456 2103.616699,215.022171 2100.080811,190.542328 
	C2098.897217,182.347153 2098.189697,174.083237 2097.240479,165.638611 
	C2108.877686,156.942032 2121.229492,150.553101 2133.903564,144.824356 
	C2163.052734,131.648682 2193.587891,124.387039 2225.671143,124.075356 
	C2243.492676,123.902222 2260.773438,126.717758 2278.087402,133.647675 
z"/>
</svg>