<svg enable-background="new 0 0 3964 1004" viewBox="0 0 3964 1004" xmlns="http://www.w3.org/2000/svg"><path d="m2557 1005c-852.333374 0-1704.166687 0-2556 0 0-334.666687 0-669.333344 0-1004h3964v1004c-469.166748 0-938.333252 0-1408 0m-410.90918-189.5c0-160.905579 0-321.811096 0-482.651672-37.589599 0-74.498291 0-111.980224 0v587.175842c-104.963135 0-209.34961 0-313.736206 0 24.382934-7.019104 47.524414-16.556213 68.185669-31.138428 69.583252-49.109436 103.036621-115.19519 91.361572-200.966858-6.680298-49.078125-31.188965-88.463134-71.861817-116.856628-40.608764-28.348877-86.176269-37.435852-134.888061-30.698975-31.581055 4.367737-59.640259 16.891602-83.131348 38.904236-11.083496 10.386108-20.096924 22.284912-26.938843 37.245239 0-74.258178 0-147.169616 0-220.601196h205.44751c0-21.287903 0-42.055176 0-62.98703-199.199463 0-398.205078 0-597.128662 0v650.756561h71.820313c0-196.055114 0-391.790771 0-587.383239h207.89978v356.922119h111.776367c0-10.434876-.270508-20.593445.081177-30.730408.311035-8.960876.59668-18.024963 2.154785-26.820068 3.921021-22.134583 13.126709-41.79187 29.690918-57.48462 18.583496-17.605773 41.078491-25.221069 66.324341-25.54132 35.644897-.45221 64.857422 13.029297 86.708618 41.256347 15.07251 19.470154 22.287842 42.156556 24.455933 66.49347 3.087036 34.651916-1.503907 68.10675-16.719239 99.656128-17.46167 36.207763-46.003051 61.060485-81.854858 77.912597-32.871826 15.451416-67.708496 22.47168-103.972656 22.518677-37.665894.048828-75.331787.010986-112.997681.011047-1.793823 0-3.587646 0-5.423096 0v63.224366h694.725708c0-55.928223 0-111.572205 0-168.216187m1806.843262 8.795471c.028809-11.318847.639648-22.672119-.028076-33.949707-1.659668-28.031616-9.673096-54.224487-24.607422-78.122314-20.758057-33.216309-50.605225-55.61084-85.948242-71.147217-43.72461-19.220947-89.992432-27.066773-137.34375-28.976379-25.463867-1.026978-50.983154-.670777-76.477539-.934632-1.735596-.017944-3.471436-.002319-5.029053-.002319 0-72.206421 0-143.607453 0-215.3078h205.258057c0-21.199067 0-42.096314 0-63.061036-193.669434 0-387.080323 0-580.843018 0v284.143738c-1.604004.411438-2.881348.776489-4.175537 1.065491-20.853272 4.657226-40.939209 11.477112-59.75708 21.689026-45.227783 24.543701-75.536865 60.776123-86.579102 111.754272-7.11499 32.848145-6.443603 65.528565 4.209473 97.600769 15.379883 46.304016 46.833984 79.02417 88.548096 102.541443 35.420166 19.968994 73.859619 30.381653 114.155517 34.668213 48.027588 5.108948 95.419434 2.136414 142.136475-10.32428 41.541504-11.080261 78.842529-30.070984 109.85083-60.238403 44.039062-42.845093 64.390381-96.050232 66.5354-156.629944.925537-26.133972.254639-52.324585.308106-78.489441.003662-1.783386.000488-3.566772.000488-5.506164 1.292725-.102845 2.095459-.222107 2.898438-.222474 19.832275-.00885 39.674804-.403442 59.494628.090699 28.928467.72113 57.388672 4.43988 84.27417 16.103515 22.818848 9.899231 42.161866 24.042176 55.131348 45.758057 16.278076 27.255066 19.85791 56.880371 15.141602 87.675781-8.610352 56.218872-50.595948 92.821228-106.269287 98.313172-18.831299 1.857666-37.941163.891235-56.923829 1.207885-1.747558.029175-3.496093.003907-5.1604.003907v62.796814c32.486084-.65918 64.669922-.415955 96.73584-2.240906 26.642822-1.516297 52.542969-7.867188 77.278808-18.40741 32.733887-13.948242 60.391846-34.185364 80.44751-64.013428 15.658447-23.289245 23.820801-49.186828 26.737549-77.838928m-3188.433716-491.803863c-106.501098.00003-213.002197.042663-319.503296-.018341-51.348694-.029419-102.017578 5.249755-151.73114 18.557098-53.889862 14.425171-103.890686 36.90097-147.896988 71.642334-73.326103 57.888245-111.702907 134.594757-121.227051 226.608063-3.115596 30.099975-2.477983 60.236206.906025 90.295105 3.778017 33.558777 11.567089 66.119507 25.001667 97.193847 17.769997 41.102234 43.488175 76.244141 79.283471 103.449036 39.350448 29.906799 83.95964 46.155334 133.27803 48.991028 46.804108 2.69104 92.106964-3.89563 134.221252-25.448792 42.379792-21.688903 72.446961-54.603454 87.287629-100.452453 10.349273-31.973206 10.876098-64.566529 4.783477-97.258301-11.315063-60.714111-44.336303-104.554871-103.089965-126.071289-46.541657-17.044129-94.063416-16.658508-141.093934-1.128906-59.371719 19.604736-102.230072 58.190063-128.654754 114.821289-4.918427 10.540771-8.657562 21.631836-12.933548 32.450195-.341202-1.092102-.782936-2.342224-1.123337-3.619324-12.487762-46.848694-14.68895-94.319153-7.681038-142.158264 5.236504-35.746765 17.178406-69.256225 36.28495-100.048218 31.064927-50.064087 75.239441-84.67752 128.522919-108.348877 54.665619-24.285369 112.41626-35.009338 171.806275-35.589508 93.656463-.914917 187.327728-.315612 280.992706-.34613.940918-.000305 1.881836.150391 3.201782.262878v587.492401h111.637207c0-195.958557 0-391.68341 0-587.888183h206.763184c0-21.24823 0-42.015503 0-63.386658-89.473084 0-178.754273 0-269.035523-.00003m1837.510132 366.02774c-35.996582 45.040894-52.119873 97.545777-57.32373 154.708985-2.508301-2.217652-4.395508-3.83014-6.22168-5.50879-35.510742-32.642395-63.23291-71.093872-84.383789-114.284545-33.371582-68.144654-47.921875-140.746949-50.053467-216.142273-.994629-35.187989.71167-70.243836 5.837647-105.131073 5.65625-38.494263 14.980468-76.007904 29.170898-112.242463 22.664062-57.8721 55.391113-109.073165 101.223389-151.488113 1.281005-1.18544 2.661132-2.263687 4.510498-3.827927.158935 1.747727.243896 2.692139.331054 3.636338 3.303711 35.730575 11.367188 70.208648 26.889893 102.748352 21.849609 45.802078 54.344971 81.697525 99.772217 104.779953 50.831787 25.82846 104.325683 30.304901 159.289795 16.255371 54.38623-13.901856 91.953369-47.096893 111.231933-100.121918 11.264893-30.984085 14.480225-63.084442 12.032715-95.87442-2.121826-28.423569-10.351318-54.859512-25.641846-78.917908-24.751953-38.945431-60.915527-62.715744-104.182617-76.170368-43.536621-13.538363-88.033935-14.944067-132.918945-8.064652-64.688721 9.914647-122.806152 35.144482-174.580322 75.075223-49.402832 38.101921-88.56836 84.913597-118.235352 139.703025-37.115478 68.545304-56.436768 142.229416-62.545654 219.589615-3.418701 43.291382-2.434815 86.534424 2.617431 129.700196 5.499512 46.986816 15.95752 92.777343 33.302979 136.808227 35.842773 90.98584 91.899658 166.037476 175.634521 218.400147 69.233155 43.294128 144.507569 63.712707 226.447022 55.905151 36.079834-3.437866 70.209961-13.633728 100.977783-33.26709 33.831299-21.588196 58.255859-50.984619 70.775391-89.41217 13.984131-42.922608 11.686767-85.977173-.738526-128.796326-10.050781-34.63623-28.789795-63.547913-58.209961-84.892761-24.375732-17.685303-51.985839-27.114014-81.691406-31.086914-30.896728-4.132141-61.423096-3.022461-91.616455 5.119507-44.881103 12.102722-81.562988 36.775024-111.701416 72.799621m-998.723022-489.32341c25.992187 30.009216 68.939209 34.167496 99.851196 9.667832 26.303833-20.847611 34.368652-56.203934 18.712524-86.159668-15.998901-30.611748-48.352539-45.240036-81.213379-36.694771-50.340942 13.090896-71.598144 71.656593-37.350341 113.186607z" fill="#fff"/><path d="m2146.09082 816v167.716187c-231.62268 0-463.029419 0-694.725708 0 0-20.87677 0-41.779297 0-63.224366h5.423096c37.665894-.000061 75.331787.037781 112.997681-.011047 36.26416-.046997 71.10083-7.067261 103.972656-22.518677 35.851807-16.852112 64.393188-41.704834 81.854858-77.912597 15.215332-31.549378 19.806275-65.004212 16.719239-99.656128-2.168091-24.336914-9.383423-47.023316-24.455933-66.49347-21.851196-28.22705-51.063721-41.708557-86.708618-41.256347-25.24585.320251-47.740845 7.935547-66.324341 25.54132-16.564209 15.69275-25.769897 35.350037-29.690918 57.48462-1.558105 8.795105-1.84375 17.859192-2.154785 26.820068-.351685 10.136963-.081177 20.295532-.081177 30.730408-37.360229 0-74.440796 0-111.776367 0 0-119.049439 0-237.837403 0-356.922119-69.336304 0-138.418701 0-207.89978 0v587.383239c-24.116455 0-47.837159 0-71.820313 0 0-216.795288 0-433.559509 0-650.756561h597.128662v62.98703c-68.501953 0-136.882324 0-205.44751 0v220.601196c6.841919-14.960327 15.855347-26.859131 26.938843-37.245239 23.491089-22.012634 51.550293-34.536499 83.131348-38.904236 48.711792-6.736877 94.279297 2.350098 134.888061 30.698975 40.672852 28.393494 65.181519 67.778503 71.861817 116.856628 11.675049 85.771668-21.77832 151.857422-91.361572 200.966858-20.661255 14.582215-43.802735 24.119324-68.185669 31.138428h313.736206c0-195.402283 0-391.111145 0-587.175842h111.980224z" fill="#010101"/><path d="m3952.901611 824.754272c-2.884277 28.193299-11.046631 54.090882-26.705078 77.380127-20.055664 29.828064-47.713623 50.065186-80.44751 64.013428-24.735839 10.540222-50.635986 16.891113-77.278808 18.40741-32.065918 1.824951-64.249756 1.581726-96.73584 2.240906 0-21.299683 0-41.702454 0-62.796814 1.664307 0 3.412842.025268 5.1604-.003907 18.982666-.31665 38.09253.649781 56.923829-1.207885 55.673339-5.491944 97.658935-42.0943 106.269287-98.313172 4.716308-30.79541 1.136474-60.420715-15.141602-87.675781-12.969482-21.715881-32.3125-35.858826-55.131348-45.758057-26.885498-11.663635-55.345703-15.382385-84.27417-16.103515-19.819824-.494141-39.662353-.099549-59.494628-.090699-.802979.000367-1.605713.119629-2.898438.222474 0 1.939392.003174 3.722778-.000488 5.506164-.053467 26.164856.617431 52.355469-.308106 78.489441-2.145019 60.579712-22.496338 113.784851-66.5354 156.629944-31.008301 30.167419-68.309326 49.158142-109.85083 60.238403-46.717041 12.460694-94.108887 15.433228-142.136475 10.32428-40.295898-4.28656-78.735351-14.699219-114.155517-34.668213-41.714112-23.517273-73.168213-56.237427-88.548096-102.541443-10.653076-32.072204-11.324463-64.752624-4.209473-97.600769 11.042237-50.978149 41.351319-87.210571 86.579102-111.754272 18.817871-10.211914 38.903808-17.0318 59.75708-21.689026 1.294189-.289002 2.571533-.654053 4.175537-1.065491 0-94.643432 0-189.242737 0-284.143738h580.843018v63.061036c-68.362305 0-136.635987 0-205.258057 0v215.3078c1.557617 0 3.293457-.015625 5.029053.002319 25.494385.263855 51.013672-.092346 76.477539.934632 47.351318 1.909606 93.61914 9.755432 137.34375 28.976379 35.343017 15.536377 65.190185 37.930908 85.948242 71.147217 14.934326 23.897827 22.947754 50.090698 24.607422 78.122314.667724 11.277588.056885 22.63086-.004395 34.408508m-447.154297-13.61676c1.733887-11.166321 4.693604-22.302185 4.971436-33.504577.830078-33.471375.611328-66.96875.787354-100.456055.003417-.64032-.177491-1.281494-.302247-2.123291-1.411377-.076416-2.709716-.208069-4.007812-.208313-61.149902-.0094-122.299561 0-183.449463-.010986-19.380615-.003479-38.604004 1.592651-57.446533 6.274047-26.471924 6.577027-50.810791 17.597413-69.06958 38.479859-30.073487 34.393982-34.545899 74.436889-21.44751 116.55365 11.694824 37.605285 39.435547 60.930664 75.093506 74.85205 47.357422 18.488892 96.200439 20.611207 145.100586 7.721924 56.200928-14.81372 94.284668-49.37677 109.770263-107.578308m-77.247314-415.137512c-36.100098 0-72.200439 0-108.250488 0v214.79895h190.984863c0-71.768738 0-143.172088 0-214.79895-27.435791 0-54.584961 0-82.734375 0z" fill="#010101"/><path d="m765.000366 332.491638h268.535523v63.386658c-68.858338 0-137.587036 0-206.763184 0v587.888183c-37.374695 0-74.30133 0-111.637207 0 0-195.72937 0-391.462402 0-587.492401-1.319946-.112487-2.260864-.263183-3.201782-.262878-93.664978.030518-187.336243-.568787-280.992706.34613-59.390015.58017-117.140656 11.304139-171.806275 35.589508-53.283478 23.671357-97.457992 58.28479-128.522919 108.348877-19.106544 30.791993-31.048446 64.301453-36.28495 100.048218-7.007912 47.839111-4.806724 95.30957 7.681038 142.158264.340401 1.2771.782135 2.527222 1.123337 3.619324 4.275986-10.818359 8.015121-21.909424 12.933548-32.450195 26.424682-56.631226 69.283035-95.216553 128.654754-114.821289 47.030518-15.529602 94.552277-15.915223 141.093934 1.128906 58.753662 21.516418 91.774902 65.357178 103.089965 126.071289 6.092621 32.691772 5.565796 65.285095-4.783477 97.258301-14.840668 45.848999-44.907837 78.76355-87.287629 100.452453-42.114288 21.553162-87.417144 28.139832-134.221252 25.448792-49.31839-2.835694-93.927582-19.084229-133.27803-48.991028-35.795296-27.204895-61.513474-62.346802-79.283471-103.449036-13.434578-31.07434-21.22365-63.63507-25.001667-97.193847-3.384008-30.058899-4.021621-60.19513-.906025-90.295105 9.524144-92.013306 47.900948-168.719818 121.227051-226.608063 44.006302-34.741364 94.007126-57.217163 147.896988-71.642334 49.713562-13.307343 100.382446-18.586517 151.73114-18.557098 106.501099.061004 213.002198.018371 320.003296.018371m-593.581558 563.606812c34.660751 26.388733 73.633453 35.079712 116.261551 27.780334 29.544586-5.059143 54.970032-17.879577 73.349853-42.278564 19.468811-25.844483 25.370362-55.326233 20.78241-86.87024-3.965118-27.262084-16.470276-49.99591-38.943207-66.64038-20.429535-15.13086-43.770324-20.858643-68.802795-21.437012-40.25206-.929932-73.769211 13.706787-100.332688 43.716064-24.886596 28.114746-36.388763 62.143372-41.582397 98.664002-.286911 2.017456.58522 4.58313 1.738236 6.361877 10.043151 15.493653 22.421279 28.892639 37.529037 40.703919z" fill="#010101"/><path d="m2602.242432 698.249817c29.906494-35.755066 66.588379-60.427368 111.469482-72.53009 30.193359-8.141968 60.719727-9.251648 91.616455-5.119507 29.705567 3.9729 57.315674 13.401611 81.691406 31.086914 29.420166 21.344848 48.15918 50.256531 58.209961 84.892761 12.425293 42.819153 14.722657 85.873718.738526 128.796326-12.519532 38.427551-36.944092 67.823974-70.775391 89.41217-30.767822 19.633362-64.897949 29.829224-100.977783 33.26709-81.939453 7.807556-157.213867-12.611023-226.447022-55.905151-83.734863-52.362671-139.791748-127.414307-175.634521-218.400147-17.345459-44.030884-27.803467-89.821411-33.302979-136.808227-5.052246-43.165772-6.036132-86.408814-2.617431-129.700196 6.108886-77.360199 25.430176-151.044311 62.545654-219.589615 29.666992-54.789428 68.83252-101.601104 118.235352-139.703025 51.77417-39.930741 109.891601-65.160576 174.580322-75.075223 44.88501-6.879415 89.382324-5.473711 132.918945 8.064652 43.26709 13.454624 79.430664 37.224937 104.182617 76.170368 15.290528 24.058396 23.52002 50.494339 25.641846 78.917908 2.44751 32.789978-.767822 64.890335-12.032715 95.87442-19.278564 53.025025-56.845703 86.220062-111.231933 100.121918-54.964112 14.04953-108.458008 9.573089-159.289795-16.255371-45.427246-23.082428-77.922608-58.977875-99.772217-104.779953-15.522705-32.539704-23.586182-67.017777-26.889893-102.748352-.087158-.944199-.172119-1.888611-.331054-3.636338-1.849366 1.56424-3.229493 2.642487-4.510498 3.827927-45.832276 42.414948-78.559327 93.616013-101.223389 151.488113-14.19043 36.234559-23.514648 73.7482-29.170898 112.242463-5.125977 34.887237-6.832276 69.943084-5.837647 105.131073 2.131592 75.395324 16.681885 147.997619 50.053467 216.142273 21.150879 43.190673 48.873047 81.64215 84.383789 114.284545 1.826172 1.67865 3.713379 3.291138 6.22168 5.50879 5.203857-57.163208 21.327148-109.668091 57.555664-154.978516m108.353759 227.784668c16.868653.726501 33.646973.166992 50.069336-4.200806 30.750244-8.178833 55.596192-24.494201 71.170411-52.967285 15.186279-27.763123 17.175048-57.394287 10.648681-87.746338-7.488281-34.823974-26.819824-60.397705-60.425293-74.073242-13.554443-5.515808-27.794678-7.912659-42.344482-8.56189-24.310059-1.084655-47.899903 2.338257-69.992676 12.869385-31.084717 14.817505-51.589844 39.722839-65.496094 70.587036-12.7854 28.377442-18.524658 58.488831-22.348633 89.162049-1.04248 8.361511.987549 13.533081 8.816407 16.524719 2.146728.820312 4.036377 2.310608 6.050781 3.481384 34.944824 20.310059 72.491211 32.206482 113.851562 34.924988m-46.559814-641.516846c32.061279 16.854157 65.923828 19.86258 100.907227 12.523468 29.069824-6.098511 51.651123-21.723633 66.067626-48.002884 12.632081-23.025802 16.366456-47.909073 14.13501-73.898742-4.82666-56.217934-44.905517-94.260292-101.154052-101.113678-26.893799-3.276795-53.463868-.779595-79.715333 5.944572-28.477783 7.29438-54.880859 19.179077-79.506591 35.099045-1.475342.953857-3.135743 3.243736-3.024414 4.790634 2.074218 28.833168 7.048828 57.13485 17.34497 84.250038 12.751465 33.580414 32.194336 61.934067 64.945557 80.407547z" fill="#c56f34"/><path d="m1603.05957 208.921387c-34.019897-41.255463-12.762695-99.82116 37.578247-112.912056 32.86084-8.545265 65.214478 6.083023 81.213379 36.694771 15.656128 29.955734 7.591309 65.312057-18.712524 86.159668-30.911987 24.499664-73.859009 20.341384-100.079102-9.942383z" fill="#010101"/><path d="m3505.597656 811.520386c-15.335937 57.818664-53.419677 92.381714-109.620605 107.195434-48.900147 12.889283-97.743164 10.766968-145.100586-7.721924-35.657959-13.921386-63.398682-37.246765-75.093506-74.85205-13.098389-42.116761-8.625977-82.159668 21.44751-116.55365 18.258789-20.882446 42.597656-31.902832 69.06958-38.479859 18.842529-4.681396 38.065918-6.277526 57.446533-6.274047 61.149902.010986 122.299561.001586 183.449463.010986 1.298096.000244 2.596435.131897 4.007812.208313.124756.841797.305664 1.482971.302247 2.123291-.176026 33.487305.042724 66.98468-.787354 100.456055-.277832 11.202392-3.237549 22.338256-5.121094 33.887451z" fill="#fff"/><path d="m3429 396h82.234375v214.79895c-63.54126 0-127.086182 0-190.984863 0 0-71.263611 0-142.786712 0-214.79895z" fill="#fefefe"/><g fill="#fff"><path d="m171.117249 895.907898c-14.806199-11.620728-27.184327-25.019714-37.227478-40.513367-1.153016-1.778747-2.025147-4.344421-1.738236-6.361877 5.193634-36.52063 16.695801-70.549256 41.582397-98.664002 26.563477-30.009277 60.080628-44.645996 100.332688-43.716064 25.032471.578369 48.37326 6.306152 68.802795 21.437012 22.472931 16.64447 34.978089 39.378296 38.943207 66.64038 4.587952 31.544007-1.313599 61.025757-20.78241 86.87024-18.379821 24.398987-43.805267 37.219421-73.349853 42.278564-42.628098 7.299378-81.6008-1.391601-116.56311-27.970886z"/><path d="m2710.111816 926.020508c-40.875976-2.704529-78.422363-14.600952-113.367187-34.911011-2.014404-1.170776-3.904053-2.661072-6.050781-3.481384-7.828858-2.991638-9.858887-8.163208-8.816407-16.524719 3.823975-30.673218 9.563233-60.784607 22.348633-89.162049 13.90625-30.864197 34.411377-55.769531 65.496094-70.587036 22.092773-10.531128 45.682617-13.95404 69.992676-12.869385 14.549804.649231 28.790039 3.046082 42.344482 8.56189 33.605469 13.675537 52.937012 39.249268 60.425293 74.073242 6.526367 30.352051 4.537598 59.983215-10.648681 87.746338-15.574219 28.473084-40.420167 44.788452-71.170411 52.967285-16.422363 4.367798-33.200683 4.927307-50.553711 4.186829z"/><path d="m2663.725098 284.319122c-32.439942-18.274963-51.882813-46.628616-64.634278-80.20903-10.296142-27.115188-15.270752-55.41687-17.34497-84.250038-.111329-1.546898 1.549072-3.836777 3.024414-4.790634 24.625732-15.919968 51.028808-27.804665 79.506591-35.099045 26.251465-6.724167 52.821534-9.221367 79.715333-5.944572 56.248535 6.853386 96.327392 44.895744 101.154052 101.113678 2.231446 25.989669-1.502929 50.87294-14.13501 73.898742-14.416503 26.279251-36.997802 41.904373-66.067626 48.002884-34.983399 7.339112-68.845948 4.330689-101.218506-12.721985z"/></g></svg>