<svg enable-background="new 0 0 2020 378" viewBox="0 0 2020 378" xmlns="http://www.w3.org/2000/svg"><path d="m1495 379c-498.333313 0-996.166656 0-1494 0 0-126 0-252 0-378h2020v378c-175.166626 0-350.333374 0-526 0m-594.492188-103.984314c15.373597 11.315491 33.948426 11.02887 48.009461-1.823334 16.43927-15.026001 22.512451-34.24794 19.082092-56.08551-2.539917-16.169632-10.015625-30.011551-23.506836-39.770981-14.131469-10.222564-28.461303-8.25827-39.699157 4.741333-.427918.49495-1.256531.643494-2.742249 1.360916.925415-3.483825 1.637573-6.131515 2.33197-8.783844 6.850586-26.169571 30.244751-46.3069 57.114075-47.603172 20.447082-.986435 40.971313-.378464 61.461243-.459358.458374-.001808.917663.242897 1.913025.524254v155.661323h22.375488c0-1.828552.000122-3.454345.000122-5.080139 0-13.49762-.053101-26.995499.011475-40.492798.116333-24.276809 19.662963-43.842743 43.807495-43.928863 12.195312-.043503 23.024658 9.591049 23.184814 21.552292.171387 12.805755.683472 25.792388-1.072388 38.405029-6.220459 44.681228-31.155639 75.077713-73.294921 90.760696-24.687317 9.187866-50.293274 7.459198-75.341614 1.76294-52.612488-11.9646-91.16919-41.613037-110.666016-92.985825-7.829162-20.629196-10.01062-42.366714-6.415344-64.346252 2.484192-15.18628 9.754761-28.151673 19.471741-39.139939-5.372925-5.565048-10.534607-10.911316-16.217774-16.797668-4.158508 5.738541-8.598083 11.128006-12.233703 17.014038-13.219056 21.401993-16.341675 44.880493-14.334046 69.572037 4.649902 57.189102 33.897644 98.600235 81.708008 128.063278 21.705627 13.376068 45.602783 20.799896 70.892639 23.636658 19.621643 2.200988 39.180054 2.291259 58.559692-2.384339 29.089234-7.018158 52.526978-22.972168 71.506714-45.63681 15.039795-17.959534 25.125244-38.575104 27.822876-61.942596 1.74939-15.154099 1.660523-30.550309 1.864014-45.845093.229614-17.27179-12.374268-34.971054-28.509521-40.977371-17.388794-6.472962-37.640137-1.776352-49.117188 12.175613-4.68811 5.699066-8.017944 12.515549-11.384155 17.89444 0-24.825058 0-50.937836 0-77.665032h43.884765c0-7.723991 0-14.830231 0-22.397819-1.985107 0-3.773559.000007-5.562011.000007-37.160157 0-74.320313-.047966-111.480164.046418-6.314209.016037-12.656982.361549-18.935242 1.03376-37.698303 4.036354-71.401611 37.080017-74.807617 74.639633-1.573364 17.349991-1.480835 34.949142-.773254 52.379699.680237 16.757782 8.136108 30.996781 21.091491 42.922379m-372.82965-5.844116c20.809875-25.182266 21.027771-58.314011.520691-83.301804-5.404419-6.585235-11.916565-11.656143-20.320221-13.751465-13.162537-3.281875-23.586121.430909-30.55539 13.30214-.161377-1.293854-.307922-1.756058-.261413-2.197937 3.026184-28.766556 28.646026-54.377823 57.619567-56.054535 20.095887-1.162964 40.298279-.491165 60.453309-.612572 1.252136-.007545 2.505798.216988 4.103881.365654v155.747345h22.300354c0-14.313171-.066467-28.291626.015137-42.269211.133484-22.856369 12.804627-40.354523 32.89679-45.67601 22.106323-5.854889 36.19342 7.610962 34.601806 26.402115-.392395 4.633118-.071655 9.327835-.056396 13.994156.100036 30.519501-8.900696 57.601623-30.180359 80.066131-17.913025 18.910401-39.500977 30.949463-65.555847 33.723664-29.672058 3.159301-58.498596-.98288-85.808014-13.144379-30.522736-13.592468-54.678955-34.608581-70.91919-64.099335-10.810302-19.630478-15.355316-40.907638-16.050262-63.193863-.438812-14.072372 1.577545-27.596344 8.213745-40.072387 3.696655-6.949616 8.279663-13.427719 12.100494-19.538239-5.149902-5.192428-10.286499-10.371429-15.549713-15.6781-10.876129 11.649078-19.256042 25.23201-23.046631 41.017974-9.67929 40.309128-3.61325 78.9404 18.076783 113.753525 33.837799 54.310608 84.340759 81.229767 148.016235 84.072754 31.249268 1.395264 60.202332-5.416534 85.777954-23.958893 25.873596-18.758331 44.10614-43.073852 52.592407-74.230774 5.466065-20.068573 5.100892-40.598373 4.206177-61.045684-.77832-17.787812-10.873779-30.22165-26.382629-37.696747-14.579651-7.027298-29.172547-5.108521-42.701782 3.656189-9.833436 6.370483-16.101136 15.524429-19.899048 26.622604 0-26.144363 0-52.288727 0-78.996017h44.102661c0-7.675492 0-14.786316 0-22.166787-.954102-.080986-1.746643-.206947-2.539185-.20713-39.83081-.009285-79.666137-.383247-119.491333.091949-45.039642.537423-79.37915 27.603409-88.019653 70.079712-4.329376 21.283127-3.53775 43.218369-.534424 64.658158 1.237854 8.836731 5.681397 17.799377 10.62796 25.434173 15.04953 23.228455 41.333069 25.214173 61.645539 4.903626m-243.140808-14.671356c0-50.09021 0-100.180436 0-150.24614-7.761536 0-14.863221 0-22.450379 0v100.473374c-7.914154 0-15.336243 0-22.866775 0 .06723-.933304.079467-1.595307.166931-2.247223 5.969375-44.494187-25.390229-86.750107-69.125977-95.860253-14.296432-2.977943-29.463348-2.325996-44.23397-2.353431-23.856064-.044312-45.553429 23.439567-42.229798 48.620834 2.636818 19.977707 18.017433 37.410705 36.337883 39.929184 20.879166 2.870224 41.639282-8.69989 49.525223-27.601578 6.027878-14.44812 2.522675-27.252335-9.999191-36.617889-.525009-.39267-.901535-.983857-1.582764-1.746109 36.715759.469047 67.997879 43.120193 57.523392 78.143737-1.72226 0-3.537293-.000015-5.352341-.000015-56.821655 0-113.643333.029236-170.464924-.025909-10.667364-.010346-19.507389 3.897659-26.401737 11.90097-12.481637 14.489334-12.067466 37.388321.80187 53.926865 12.474539 16.031158 29.93458 23.769867 48.756506 29.197601 22.961376 6.62146 46.546162 5.71283 69.964871 4.83429 10.470352-.392823 21.367325-2.259857 31.145004-5.926392 32.83194-12.311523 56.242355-34.67041 68.20578-68.198898.478073-1.339829 1.860016-3.325684 2.869797-3.35556 8.923645-.264023 17.858368-.153245 27.145462-.153245v77.607758h22.264984c0-16.682587 0-32.992279.000153-50.301971m1389.309814-98.000183c0-9.927643 0-19.855286 0-30.147889h33.692139c0-7.609924 0-14.834449 0-22.358436-1.450928 0-2.594971-.000008-3.738892-.000008-27.159546-.000023-54.319092.005005-81.478638-.002312-12.430786-.003349-24.974853.954255-35.853759 7.064629-9.308472 5.228233-16.745118 4.946938-26.286744.154228-18.000244-9.041458-37.737182-8.295051-57.256347-6.0932-37.561524 4.237121-70.290894 36.78965-73.786011 74.304618-1.431885 15.368744-.838989 30.927185-1.140869 46.399826-.278198 14.271103 3.90625 27.166428 11.91626 38.926285 13.466919 19.770905 38.039062 24.659119 55.455566 9.983887 17.301514-14.578339 24.294067-33.85556 20.935547-56.289871-2.559448-17.095597-10.291626-31.671799-24.715942-41.771012-14.409424-10.088684-29.252564-7.081329-39.231934 7.28032-.331665.477096-.896973.791763-1.621948 1.411804 7.940674-55.738861 64.136596-69.084801 102.266357-52.721741-1.348022 1.531906-2.667114 3.005112-3.958374 4.502319-11.051636 12.814576-18.52771 27.53357-19.699951 44.401307-1.151123 16.561142-.637329 33.249588-.557129 49.880737.056152 11.638153 4.334961 22.008728 10.463379 31.757126 15.926758 25.334198 47.474853 26.738006 65.486328 2.86264 8.819702-11.691299 13.191406-24.872269 13.258789-39.483292.051514-11.163513.0719-22.32785-.004272-33.491073-.104615-15.331085-4.162354-29.615006-12.243286-42.606201-3.917115-6.297043-8.561524-12.141739-12.874512-18.188416 10.022339-5.560036 43.621704-8.468345 58.796753-4.883217v155.299111h22.17749c0-41.93956 0-83.565857 0-126.192169m226.832764 61.999847v42.192017c-19.095337 0-37.507325 0-56.425782 0 0-52.335663 0-104.367325 0-156.447228-7.601684 0-14.689819 0-21.928222 0v178.757073c1.385864 0 2.515869.00003 3.645874 0 39.817383-.00055 79.634887.025207 119.452148-.044037 3.807862-.006623 7.640259-.423798 11.417725-.958344 29.676025-4.199341 54.42749-31.598633 55.086792-61.478851.400512-18.149185.426147-36.323456-.021851-54.470612-.667846-27.063064-20.790893-52.235786-46.864746-59.467621-13.752685-3.81446-27.625122-4.35746-40.28125 2.704468-15.792847 8.812226-24.376343 22.485184-24.144531 41.240723.275879 22.320984.064087 44.647995.063843 67.972412m-628.64148-87.908157c.098023-1.279114.196045-2.558243.327027-4.266648h44.060546c0-7.690773 0-14.919891 0-21.943893-48.60852 0-96.843505 0-145.019653 0v178.306625h22.489502c0-52.198273 0-104.080139 0-155.854843h55.995728v155.908249h22.146728c0-50.565414 0-100.865753.000122-152.14949m-941.002838 23.908279v175.089874h20.857513c0-108.594864 0-216.91436 0-325.263942-7.077301 0-13.808319 0-20.857513 0zm1417.999908-113v288.106567h20.878785c0-108.577728 0-216.896934 0-325.300046-7.056031 0-13.788453 0-20.878785 0zm-366.052978 63c0-33.40934 0-66.818684 0-100.155947-7.433228 0-14.177246 0-20.901245 0v325.227022h20.901245c0-74.885025 0-149.478057 0-225.071075m-605.605713 46.000061c0-48.721298 0-97.4426 0-146.156725-7.486694 0-14.217041 0-21.003601 0v325.233202h21.004028c0-59.552429 0-118.814438-.000427-179.076477m-198.982544-136.85873c-9.04425 2.457313-15.360046 7.886078-17.405151 17.205408-2.251343 10.259451 2.148742 19.002474 11.520019 24.118112 8.410279 4.591069 17.869568 3.039505 25.554505-4.191585 7.101196-6.681824 8.846923-15.368973 4.825561-24.013331-4.590027-9.866762-13.131714-14.672974-24.494934-13.118604m1319.478027 43.995533c7.679566.265251 13.743897-3.124951 18.846924-8.501091 6.670655-7.027565 7.248169-16.281822 1.6969-25.125037-5.72229-9.115316-15.104615-12.995569-24.215088-10.014773-10.812012 3.537568-16.969361 12.045287-16.423828 22.693414.554565 10.824955 7.473632 18.26955 20.095092 20.947487z" fill="#fff"/><g fill="#363636"><path d="m900.231567 274.789215c-12.679138-11.699127-20.135009-25.938126-20.815246-42.695908-.707581-17.430557-.80011-35.029708.773254-52.379699 3.406006-37.559616 37.109314-70.603279 74.807617-74.639633 6.27826-.672211 12.621033-1.017723 18.935242-1.03376 37.159851-.094384 74.320007-.046418 111.480164-.046418 1.788452 0 3.576904-.000007 5.562011-.000007v22.397819c-14.588256 0-29.121215 0-43.884765 0v77.665032c3.366211-5.378891 6.696045-12.195374 11.384155-17.89444 11.477051-13.951965 31.728394-18.648575 49.117188-12.175613 16.135253 6.006317 28.739135 23.705581 28.509521 40.977371-.203491 15.294784-.114624 30.690994-1.864014 45.845093-2.697632 23.367492-12.783081 43.983062-27.822876 61.942596-18.979736 22.664642-42.41748 38.618652-71.506714 45.63681-19.379638 4.675598-38.938049 4.585327-58.559692 2.384339-25.289856-2.836762-49.187012-10.26059-70.892639-23.636658-47.810364-29.463043-77.058106-70.874176-81.708008-128.063278-2.007629-24.691544 1.11499-48.170044 14.334046-69.572037 3.63562-5.886032 8.075195-11.275497 12.233703-17.014038 5.683167 5.886352 10.844849 11.23262 16.217774 16.797668-9.71698 10.988266-16.987549 23.953659-19.471741 39.139939-3.595276 21.979538-1.413818 43.717056 6.415344 64.346252 19.496826 51.372788 58.053528 81.021225 110.666016 92.985825 25.04834 5.696258 50.654297 7.424926 75.341614-1.76294 42.139282-15.682983 67.074462-46.079468 73.294921-90.760696 1.75586-12.612641 1.243775-25.599274 1.072388-38.405029-.160156-11.961243-10.989502-21.595795-23.184814-21.552292-24.144532.08612-43.691162 19.652054-43.807495 43.928863-.064576 13.497299-.011475 26.995178-.011475 40.492798 0 1.625794-.000122 3.251587-.000122 5.080139-7.584717 0-14.69458 0-22.375488 0 0-51.917328 0-103.80954 0-155.661323-.995362-.281357-1.454651-.526062-1.913025-.524254-20.48993.080894-41.014161-.527077-61.461243.459358-26.869324 1.296272-50.263489 21.433601-57.114075 47.603172-.694397 2.652329-1.406555 5.300019-2.33197 8.783844 1.485718-.717422 2.314331-.865966 2.742249-1.360916 11.237854-12.999603 25.567688-14.963897 39.699157-4.741333 13.491211 9.75943 20.966919 23.601349 23.506836 39.770981 3.430359 21.83757-2.642822 41.059509-19.082092 56.08551-14.061035 12.852204-32.635864 13.138825-48.285706 1.596863m45.821839-46.470978c.67334-11.037323-2.844116-20.660202-10.18512-28.795166-7.644226-8.471084-17.506225-8.15155-24.934448.540207-12.366516 14.470047-12.992676 37.545304-1.429749 52.692795 8.314759 10.892395 21.443543 10.380432 28.957459-1.11937 4.453735-6.816207 6.959473-14.282485 7.591858-23.318466z"/><path d="m527.431641 269.42511c-20.065949 20.057007-46.349488 18.071289-61.399018-5.157166-4.946563-7.634796-9.390106-16.597442-10.62796-25.434173-3.003326-21.439789-3.794952-43.375031.534424-64.658158 8.640503-42.476303 42.980011-69.542289 88.019653-70.079712 39.825196-.475196 79.660523-.101234 119.491333-.091949.792542.000183 1.585083.126144 2.539185.20713v22.166787c-14.645935 0-29.2052 0-44.102661 0v78.996017c3.797912-11.098175 10.065612-20.252121 19.899048-26.622604 13.529235-8.76471 28.122131-10.683487 42.701782-3.656189 15.50885 7.475097 25.604309 19.908935 26.382629 37.696747.894715 20.447311 1.259888 40.977111-4.206177 61.045684-8.486267 31.156922-26.718811 55.472443-52.592407 74.230774-25.575622 18.542359-54.528686 25.354157-85.777954 23.958893-63.675476-2.842987-114.178436-29.762146-148.016235-84.072754-21.690033-34.813125-27.756073-73.444397-18.076783-113.753525 3.790589-15.785964 12.170502-29.368896 23.046631-41.017974 5.263214 5.306671 10.399811 10.485672 15.549713 15.6781-3.820831 6.11052-8.403839 12.588623-12.100494 19.538239-6.6362 12.476043-8.652557 26.000015-8.213745 40.072387.694946 22.286225 5.23996 43.563385 16.050262 63.193863 16.240235 29.490754 40.396454 50.506867 70.91919 64.099335 27.309418 12.161499 56.135956 16.30368 85.808014 13.144379 26.05487-2.774201 47.642822-14.813263 65.555847-33.723664 21.279663-22.464508 30.280395-49.54663 30.180359-80.066131-.015259-4.666321-.335999-9.361038.056396-13.994156 1.591614-18.791153-12.495483-32.257004-34.601806-26.402115-20.092163 5.321487-32.763306 22.819641-32.89679 45.67601-.081604 13.977585-.015137 27.95604-.015137 42.269211-7.513366 0-14.712463 0-22.300354 0 0-51.886154 0-103.646469 0-155.747345-1.598083-.148666-2.851745-.373199-4.103881-.365654-20.15503.121407-40.357422-.550392-60.453309.612572-28.973541 1.676712-54.593383 27.287979-57.619567 56.054535-.046509.441879.100036.904083.261413 2.197937 6.969269-12.871231 17.392853-16.584015 30.55539-13.30214 8.403656 2.095322 14.915802 7.16623 20.320221 13.751465 20.50708 24.987793 20.289184 58.119538-.767212 83.555344m-29.776581-76.096161c-4.049408 2.344513-8.980194 3.880646-11.998291 7.171112-14.337219 15.631134-10.962311 39.526962-1.034455 52.510101 7.549866 9.873261 20.465424 10.224274 27.440735.45192 7.876709-11.035172 11.381226-23.475449 7.742737-36.759949-3.037842-11.091553-7.828552-21.470016-22.150726-23.373184z"/><path d="m284.537292 255.000214c-.000091 16.809692-.000091 33.119384-.000091 49.801971-7.506165 0-14.696045 0-22.264984 0 0-25.722046 0-51.329651 0-77.607758-9.287094 0-18.221817-.110778-27.145462.153245-1.009781.029876-2.391724 2.015731-2.869797 3.35556-11.963425 33.528488-35.37384 55.887375-68.20578 68.198898-9.777679 3.666535-20.674652 5.533569-31.145004 5.926392-23.418709.87854-47.003495 1.78717-69.964871-4.83429-18.821926-5.427734-36.281967-13.166443-48.756506-29.197601-12.869336-16.538544-13.283507-39.437531-.80187-53.926865 6.894348-8.003311 15.734373-11.911316 26.401737-11.90097 56.821591.055145 113.643269.025909 170.464924.025909 1.815048 0 3.630081.000015 5.352341.000015 10.474487-35.023544-20.807633-77.67469-57.523392-78.143737.681229.762252 1.057755 1.353439 1.582764 1.746109 12.521866 9.365554 16.027069 22.169769 9.999191 36.617889-7.885941 18.901688-28.646057 30.471802-49.525223 27.601578-18.32045-2.518479-33.701065-19.951477-36.337883-39.929184-3.323631-25.181267 18.373734-48.665146 42.229798-48.620834 14.770622.027435 29.937538-.624512 44.23397 2.353431 43.735748 9.110146 75.095352 51.366066 69.125977 95.860253-.087464.651916-.099701 1.313919-.166931 2.247223h22.866775c0-33.44751 0-66.832688 0-100.473374h22.450379c0 50.065704 0 100.15593-.000062 150.74614m-240.182582 15.183899c8.804748 3.285583 17.382114 7.553283 26.460903 9.655181 19.778221 4.57901 40.065529 3.485535 60.167602 3.006104 26.868073-.640808 48.601593-12.281708 65.478104-33.003677 5.420547-6.655655 9.958038-13.926316 12.774506-22.197937-.789704-.254883-1.088501-.43573-1.387375-.435837-55.938141-.019959-111.876343-.067551-167.814377.008438-8.525641.011581-13.442097 6.255264-12.656372 14.878677 1.08254 11.880982 6.425831 21.132477 16.977009 28.089051m102.023464-109.441636c.710998-1.315612 1.537704-2.58258 2.11438-3.95465 3.998489-9.513764.633545-19.962143-8.401871-26.251069-8.650421-6.020965-19.25914-5.163139-26.948952 2.179093-7.911445 7.553833-9.510383 18.442001-4.362091 27.263519 7.691986 13.1801 26.944069 15.64679 37.598534.763107z"/><path d="m1673.847168 157.000046v125.692154c-7.402222 0-14.490845 0-22.17749 0 0-51.733979 0-103.588196 0-155.299111-15.175049-3.585128-48.774414-.676819-58.796753 4.883217 4.312988 6.046677 8.957397 11.891373 12.874512 18.188416 8.080932 12.991195 12.138671 27.275116 12.243286 42.606201.076172 11.163223.055786 22.32756.004272 33.491073-.067383 14.611023-4.439087 27.791993-13.258789 39.483292-18.011475 23.875366-49.55957 22.471558-65.486328-2.86264-6.128418-9.748398-10.407227-20.118973-10.463379-31.757126-.0802-16.631149-.593994-33.319595.557129-49.880737 1.172241-16.867737 8.648315-31.586731 19.699951-44.401307 1.29126-1.497207 2.610352-2.970413 3.958374-4.502319-38.129761-16.36306-94.325683-3.01712-102.266357 52.721741.724975-.620041 1.290283-.934708 1.621948-1.411804 9.97937-14.361649 24.82251-17.369004 39.231934-7.28032 14.424316 10.099213 22.156494 24.675415 24.715942 41.771012 3.35852 22.434311-3.634033 41.711532-20.935547 56.289871-17.416504 14.675232-41.988647 9.787018-55.455566-9.983887-8.01001-11.759857-12.194458-24.655182-11.91626-38.926285.30188-15.472641-.291016-31.031082 1.140869-46.399826 3.495117-37.514968 36.224487-70.067497 73.786011-74.304618 19.519165-2.201851 39.256103-2.948258 57.256347 6.0932 9.541626 4.79271 16.978272 5.074005 26.286744-.154228 10.878906-6.110374 23.422973-7.067978 35.853759-7.064629 27.159546.007317 54.319092.002289 81.478638.002312 1.143921 0 2.287964.000008 3.738892.000008v22.358436c-11.066529 0-22.020264 0-33.692139 0zm-121.852539 24.688904c-.265381 16.80426-.859375 33.612686-.646729 50.410888.095215 7.524964 2.807984 14.665665 7.472535 20.827515 7.21582 9.532181 18.938964 10.039261 26.863525 1.255417 5.433594-6.022675 9.028076-13.086197 9.231567-21.07309.419068-16.45285 1.000244-32.99733-.248779-49.369552-1.212646-15.894822-9.884155-28.548981-22.04126-38.781022-11.400879 9.603989-18.012939 21.570649-20.630859 36.729844m-86.931152 77.014358c8.289306 3.383759 13.70227 2.210938 19.64392-4.256164 12.981446-14.130066 13.615967-39.05951 1.369263-53.797059-8.689575-10.456878-21.325561-9.728439-28.572998 1.951371-8.780762 14.150879-9.830688 29.193756-2.909668 44.254562 2.017334 4.389969 6.480835 7.655823 10.469483 11.84729z"/></g><path d="m1900.679932 217.999878c.000244-22.824417.212036-45.151428-.063843-67.472412-.231812-18.755539 8.351684-32.428497 24.144531-41.240723 12.656128-7.061928 26.528565-6.518928 40.28125-2.704468 26.073853 7.231835 46.1969 32.404557 46.864746 59.467621.447998 18.147156.422363 36.321427.021851 54.470612-.659302 29.880218-25.410767 57.27951-55.086792 61.478851-3.777466.534546-7.609863.951721-11.417725.958344-39.817261.069244-79.634765.043487-119.452148.044037-1.130005.00003-2.26001 0-3.645874 0 0-59.757981 0-119.134156 0-178.757073h21.928222v156.447228h56.425782c0-14.003251 0-28.097626 0-42.692017m39.634521-90.820534c-11.894165 4.204292-17.341919 11.833183-17.344238 24.341957-.00647 34.820893-.002686 69.64177-.002808 104.462662v4.870743c9.092041 0 17.596802.460235 26.035156-.092072 19.957886-1.306274 38.692139-18.905166 40.014405-38.851227 1.198364-18.078231 1.556152-36.327392.567383-54.407287-1.347901-24.646103-23.983521-42.854698-49.269898-40.324776z" fill="#343434"/><path d="m1272.03833 131.083405v151.657806c-7.400757 0-14.485351 0-22.146728 0 0-51.86525 0-103.742508 0-155.908249-18.847168 0-37.124024 0-55.995728 0v155.854843c-7.804321 0-15.020264 0-22.489502 0 0-59.381988 0-118.65007 0-178.306625h145.019653v21.943893c-14.541137 0-29.150024 0-44.060546 0-.130982 1.708405-.229004 2.987534-.327149 4.758332z" fill="#363636"/><path d="m331.035614 154c0-50.116074 0-99.732143 0-149.674068h20.857513v325.263942c-6.804809 0-13.409301 0-20.857513 0 0-58.335693 0-116.712784 0-175.589874z" fill="#c57034"/><path d="m1749.035522 41c0-12.463299 0-24.426598 0-36.693479h20.878785v325.300046c-6.87024 0-13.472779 0-20.878785 0 0-96.044845 0-192.075698 0-288.606567z" fill="#c57034"/><path d="m1382.982544 105v224.571075c-7.168091 0-13.893311 0-20.901245 0 0-108.452102 0-216.66748 0-325.227022h20.901245z" fill="#c56f33"/><path d="m777.377075 151.000061c.000183 59.762039.000183 119.024048.000183 178.576477-7.27771 0-14.006347 0-21.004028 0 0-108.471924 0-216.679115 0-325.233202h21.003601c0 48.714125 0 97.435427.000244 146.656725z" fill="#c67035"/><path d="m578.801758 13.53854c10.955749-1.451579 19.497436 3.354633 24.087463 13.221395 4.021362 8.644358 2.275635 17.331507-4.825561 24.013331-7.684937 7.23109-17.144226 8.782654-25.554505 4.191585-9.371277-5.115638-13.771362-13.858661-11.520019-24.118112 2.045105-9.31933 8.360901-14.748095 17.812622-17.308199z" fill="#363636"/><path d="m1897.476074 57.547459c-12.22522-2.588532-19.144287-10.033127-19.698852-20.858082-.545533-10.648127 5.611816-19.155846 16.423828-22.693414 9.110473-2.980796 18.492798.899457 24.215088 10.014773 5.551269 8.843215 4.973755 18.097472-1.6969 25.125037-5.103027 5.37614-11.167358 8.766342-19.243164 8.411686z" fill="#353535"/><path d="m946.030823 228.778305c-.609802 8.575913-3.11554 16.042191-7.569275 22.858398-7.513916 11.499802-20.6427 12.011765-28.957459 1.11937-11.562927-15.147491-10.936767-38.222748 1.429749-52.692795 7.428223-8.691757 17.290222-9.011291 24.934448-.540207 7.341004 8.134964 10.85846 17.757843 10.162537 29.255234z" fill="#fdfdfd"/><path d="m498.044922 193.330612c13.932312 1.901505 18.723022 12.279968 21.760864 23.371521 3.638489 13.2845.133972 25.724777-7.742737 36.759949-6.975311 9.772354-19.890869 9.421341-27.440735-.45192-9.927856-12.983139-13.302764-36.878967 1.034455-52.510101 3.018097-3.290466 7.948883-4.826599 12.388153-7.169449z" fill="#fdfdfd"/><path d="m44.03495 270.017578c-10.231418-6.790039-15.574709-16.041534-16.657249-27.922516-.785725-8.623413 4.130731-14.867096 12.656372-14.878677 55.938034-.075989 111.876236-.028397 167.814377-.008438.298874.000107.597671.180954 1.387375.435837-2.816468 8.271621-7.353959 15.542282-12.774506 22.197937-16.876511 20.721969-38.610031 32.362869-65.478104 33.003677-20.102073.479431-40.389381 1.572906-60.167602-3.006104-9.078789-2.101898-17.656155-6.369598-26.780663-9.821716z" fill="#fdfdfd"/><path d="m146.173553 161.047211c-10.449844 14.578949-29.701927 12.112259-37.393913-1.067841-5.148292-8.821518-3.549354-19.709686 4.362091-27.263519 7.689812-7.342232 18.298531-8.200058 26.948952-2.179093 9.035416 6.288926 12.40036 16.737305 8.401871 26.251069-.576676 1.37207-1.403382 2.639038-2.319001 4.259384z" fill="#fdfdfd"/><path d="m1552.036621 181.255981c2.575928-14.726226 9.187988-26.692886 20.588867-36.296875 12.157105 10.232041 20.828614 22.8862 22.04126 38.781022 1.249023 16.372222.667847 32.916702.248779 49.369552-.203491 7.986893-3.797973 15.050415-9.231567 21.07309-7.924561 8.783844-19.647705 8.276764-26.863525-1.255417-4.664551-6.16185-7.37732-13.302551-7.472535-20.827515-.212646-16.798202.381348-33.606628.688721-50.843857z" fill="#fefefe"/><path d="m1464.740234 258.498108c-3.665405-3.986267-8.128906-7.252121-10.14624-11.64209-6.92102-15.060806-5.871094-30.103683 2.909668-44.254562 7.247437-11.67981 19.883423-12.408249 28.572998-1.951371 12.246704 14.737549 11.612183 39.666993-1.369263 53.797059-5.94165 6.467102-11.354614 7.639923-19.967163 4.050964z" fill="#fdfdfd"/><path d="m1940.740479 127.102287c24.860351-2.452865 47.495971 15.75573 48.843872 40.401833.988769 18.079895.630981 36.329056-.567383 54.407287-1.322266 19.946061-20.056519 37.544953-40.014405 38.851227-8.438354.552307-16.943115.092072-26.035156.092072 0-1.683075 0-3.276917 0-4.870743.000122-34.820892-.003662-69.641769.002808-104.462662.002319-12.508774 5.450073-20.137665 17.770264-24.419014z" fill="#fefefe"/></svg>