<svg version="1.1" id="Layer_1" xmlns="http://www.w3.org/2000/svg" xmlns:xlink="http://www.w3.org/1999/xlink" x="0px" y="0px"
	 width="100%" viewBox="0 0 1098 384" enable-background="new 0 0 1098 384" xml:space="preserve">
<path fill="#FFFFFF" opacity="1.000000" stroke="none" 
	d="
M717.000000,385.000000 
	C478.000000,385.000000 239.500000,385.000000 1.000000,385.000000 
	C1.000000,257.000000 1.000000,129.000000 1.000000,1.000000 
	C367.000000,1.000000 733.000000,1.000000 1099.000000,1.000000 
	C1099.000000,129.000000 1099.000000,257.000000 1099.000000,385.000000 
	C971.833313,385.000000 844.666687,385.000000 717.000000,385.000000 
M671.997070,239.485672 
	C679.103577,252.590408 688.404663,263.282898 703.231018,267.753479 
	C682.320496,267.753479 661.409912,267.753479 640.291321,267.753479 
	C648.940796,257.791260 650.184998,254.410995 650.167114,241.010696 
	C650.162659,237.679916 650.146423,234.345764 649.999817,231.019150 
	C648.879822,205.607803 628.252197,182.345642 602.968689,178.980316 
	C593.291016,177.692184 583.328003,177.636078 573.564575,178.207123 
	C566.405884,178.625839 559.369812,181.028854 552.257996,182.441177 
	C550.607788,182.768890 548.568909,183.296600 547.225159,182.653473 
	C539.669189,179.037079 531.728333,177.888443 523.465332,177.973038 
	C513.689453,178.073135 503.911743,177.996567 494.182983,177.996567 
	C494.182983,162.872803 494.182983,148.300980 494.182983,133.234970 
	C512.763977,133.234970 531.008545,133.234970 549.291809,133.234970 
	C549.291809,125.620483 549.291809,118.508476 549.291809,111.239876 
	C500.819031,111.239876 452.588348,111.239876 403.971924,111.239876 
	C403.971924,133.574814 403.971924,155.670547 403.971924,177.809814 
	C401.982849,178.126724 400.364624,178.431915 398.733856,178.637039 
	C382.798157,180.641571 371.288757,189.108719 364.024597,203.167313 
	C357.078796,216.609879 358.244843,230.717133 362.761383,244.457901 
	C373.346680,276.661957 403.680023,294.064240 439.373138,288.942627 
	C469.261353,284.653961 492.135681,258.283142 493.479370,226.268646 
	C493.839203,217.695221 493.533813,209.093887 493.533813,200.400513 
	C505.071198,200.400513 515.624512,200.400513 525.801636,200.400513 
	C523.158447,206.481155 518.898743,212.332062 518.254272,218.557251 
	C516.754517,233.043030 515.769836,247.805649 516.907410,262.272797 
	C517.880859,274.652863 526.375122,283.592621 538.079895,287.889618 
	C559.572815,295.779968 582.220032,279.431519 582.949402,255.875412 
	C583.201782,247.721588 583.035706,239.546616 582.808472,231.388321 
	C582.549561,222.089767 580.196411,213.319794 575.342712,205.301941 
	C574.383301,203.717072 573.408081,202.141724 572.267456,200.280182 
	C583.939270,200.090836 594.785278,199.733414 605.497681,203.529816 
	C617.400330,207.748001 625.899170,216.957611 627.063843,229.501648 
	C627.616394,235.451965 627.400391,241.477234 627.457581,247.469254 
	C627.593689,261.740967 621.533325,272.039062 608.149963,277.760651 
	C606.913513,278.289215 605.476685,279.814331 605.294312,281.048340 
	C604.871460,283.910400 605.159790,286.877502 605.159790,290.003387 
	C628.174866,290.003387 650.492493,290.003418 672.810120,290.003418 
	C695.084961,290.003418 717.359741,290.003387 740.072998,290.003387 
	C740.072998,312.547058 740.072998,334.613739 740.072998,356.772400 
	C747.600891,356.772400 754.685242,356.772400 762.250488,356.772400 
	C762.250488,334.485046 762.250488,312.422821 762.250488,289.883179 
	C771.467529,289.883179 780.214050,289.883179 788.830811,289.883179 
	C788.830811,282.332855 788.830811,275.272461 788.830811,267.707672 
	C779.767517,267.707672 771.040283,267.707672 762.174561,267.707672 
	C762.174561,259.201721 762.185547,251.212738 762.172607,243.223801 
	C762.124146,213.398605 762.725830,183.553528 761.826355,153.753876 
	C760.955566,124.905106 732.467896,104.915390 704.707214,112.778503 
	C682.959290,118.938553 671.488831,135.252655 665.118469,155.491852 
	C659.516357,173.290207 661.541748,191.798599 662.581726,210.050629 
	C663.164856,220.285294 666.670654,229.852798 671.997070,239.485672 
M95.565811,262.990479 
	C100.950241,252.314377 103.216187,240.974762 101.929970,229.123474 
	C99.940704,210.794266 92.414413,195.133987 77.328438,184.092972 
	C65.028610,175.091064 45.144024,174.177338 36.710194,192.561798 
	C36.628963,192.738876 36.173092,192.744095 35.594624,192.920029 
	C38.225948,172.371918 46.535378,154.907516 63.140850,142.411133 
	C75.594124,133.039474 89.875679,129.984039 104.460106,136.977127 
	C119.276421,144.081406 125.589005,156.464188 125.147690,173.103760 
	C124.573662,194.746948 124.399826,216.447800 125.293510,238.072601 
	C126.923775,277.521118 171.466949,302.578064 206.205948,283.848938 
	C227.101959,272.583099 238.187943,253.547104 243.800964,231.481461 
	C252.555099,197.067551 247.152893,164.120834 230.260590,133.109039 
	C223.405289,120.523727 214.510147,109.348282 204.409286,100.069977 
	C198.918457,105.553963 193.674866,110.791008 187.956253,116.502487 
	C188.424500,116.821625 189.381332,117.269768 190.075302,117.976166 
	C215.342865,143.695938 227.855011,174.260132 224.901764,210.564392 
	C223.655502,225.884857 219.479355,240.308319 210.234085,252.871109 
	C201.102554,265.279358 186.355545,270.407745 172.340393,266.260284 
	C156.387741,261.539490 147.286453,249.092880 147.201080,231.475372 
	C147.096924,209.980698 147.284332,188.484161 147.094757,166.990662 
	C147.051147,162.046265 146.572876,156.953201 145.295425,152.196930 
	C136.973709,121.213051 105.711098,104.814468 73.248009,113.378456 
	C42.580696,121.468712 17.340040,154.447144 14.247590,186.398987 
	C12.633560,203.075516 13.066985,219.989853 13.255416,236.789139 
	C13.417235,251.215912 18.721573,264.077911 27.753784,275.308258 
	C39.002724,289.294769 56.233673,293.792938 72.068115,286.942596 
	C82.868164,282.270233 89.592674,273.499908 95.565811,262.990479 
M1046.529785,286.057434 
	C1071.979858,276.800171 1089.222900,253.992905 1090.078857,227.124680 
	C1090.661987,208.819626 1090.632690,190.462692 1090.003662,172.158997 
	C1089.078979,145.258514 1069.219238,120.802544 1043.368286,113.593941 
	C1029.800049,109.810410 1016.100281,109.222054 1003.520081,116.035347 
	C987.403015,124.764160 978.729248,138.493393 978.848938,157.455780 
	C979.069885,192.448212 978.911743,227.443008 978.911560,262.436829 
	C978.911499,264.201721 978.911621,265.966644 978.911621,267.700073 
	C959.873596,267.700073 941.457825,267.700073 922.573059,267.700073 
	C922.573059,215.340729 922.573059,163.274918 922.573059,111.231766 
	C914.987671,111.231766 907.877319,111.231766 900.570496,111.231766 
	C900.570496,170.860458 900.570496,230.252228 900.570496,289.793182 
	C901.651550,289.877563 902.459839,289.995789 903.268127,289.995789 
	C943.927551,289.995941 984.588318,290.155243 1025.244995,289.812195 
	C1032.097168,289.754395 1038.931030,287.523682 1046.529785,286.057434 
M828.931152,336.844482 
	C835.367737,336.844482 841.804321,336.844482 848.316528,336.844482 
	C848.316528,227.905807 848.316528,119.569763 848.316528,11.292255 
	C841.138977,11.292255 834.380188,11.292255 827.183289,11.292255 
	C827.183289,13.057812 827.183289,14.520716 827.183289,15.983620 
	C827.183289,121.289444 827.179504,226.595276 827.218933,331.901093 
	C827.219482,333.477478 827.755493,335.053650 828.931152,336.844482 
M313.235718,107.500031 
	C313.235718,75.435036 313.235718,43.370045 313.235718,11.350939 
	C305.759552,11.350939 299.029175,11.350939 292.298157,11.350939 
	C292.298157,119.914490 292.298157,228.125885 292.298157,336.568665 
	C299.289337,336.568665 306.016357,336.568665 313.235901,336.568665 
	C313.235901,260.348633 313.235901,184.424332 313.235718,107.500031 
M995.872070,29.734831 
	C987.476379,19.566063 978.492920,17.395494 967.857056,22.965879 
	C958.450500,27.892437 953.809753,38.229694 956.619568,48.134975 
	C959.316223,57.640873 965.929626,63.074894 975.398193,64.354286 
	C984.919434,65.640800 992.149353,60.671211 997.268555,53.213612 
	C1002.459900,45.650970 1001.010803,37.789452 995.872070,29.734831 
z"/>
<path fill="#353535" opacity="1.000000" stroke="none" 
	d="
M671.842407,239.150574 
	C666.670654,229.852798 663.164856,220.285294 662.581726,210.050629 
	C661.541748,191.798599 659.516357,173.290207 665.118469,155.491852 
	C671.488831,135.252655 682.959290,118.938553 704.707214,112.778503 
	C732.467896,104.915390 760.955566,124.905106 761.826355,153.753876 
	C762.725830,183.553528 762.124146,213.398605 762.172607,243.223801 
	C762.185547,251.212738 762.174561,259.201721 762.174561,267.707672 
	C771.040283,267.707672 779.767517,267.707672 788.830811,267.707672 
	C788.830811,275.272461 788.830811,282.332855 788.830811,289.883179 
	C780.214050,289.883179 771.467529,289.883179 762.250488,289.883179 
	C762.250488,312.422821 762.250488,334.485046 762.250488,356.772400 
	C754.685242,356.772400 747.600891,356.772400 740.072998,356.772400 
	C740.072998,334.613739 740.072998,312.547058 740.072998,290.003387 
	C717.359741,290.003387 695.084961,290.003418 672.810120,290.003418 
	C650.492493,290.003418 628.174866,290.003387 605.159790,290.003387 
	C605.159790,286.877502 604.871460,283.910400 605.294312,281.048340 
	C605.476685,279.814331 606.913513,278.289215 608.149963,277.760651 
	C621.533325,272.039062 627.593689,261.740967 627.457581,247.469254 
	C627.400391,241.477234 627.616394,235.451965 627.063843,229.501648 
	C625.899170,216.957611 617.400330,207.748001 605.497681,203.529816 
	C594.785278,199.733414 583.939270,200.090836 572.267456,200.280182 
	C573.408081,202.141724 574.383301,203.717072 575.342712,205.301941 
	C580.196411,213.319794 582.549561,222.089767 582.808472,231.388321 
	C583.035706,239.546616 583.201782,247.721588 582.949402,255.875412 
	C582.220032,279.431519 559.572815,295.779968 538.079895,287.889618 
	C526.375122,283.592621 517.880859,274.652863 516.907410,262.272797 
	C515.769836,247.805649 516.754517,233.043030 518.254272,218.557251 
	C518.898743,212.332062 523.158447,206.481155 525.801636,200.400513 
	C515.624512,200.400513 505.071198,200.400513 493.533813,200.400513 
	C493.533813,209.093887 493.839203,217.695221 493.479370,226.268646 
	C492.135681,258.283142 469.261353,284.653961 439.373138,288.942627 
	C403.680023,294.064240 373.346680,276.661957 362.761383,244.457901 
	C358.244843,230.717133 357.078796,216.609879 364.024597,203.167313 
	C371.288757,189.108719 382.798157,180.641571 398.733856,178.637039 
	C400.364624,178.431915 401.982849,178.126724 403.971924,177.809814 
	C403.971924,155.670547 403.971924,133.574814 403.971924,111.239876 
	C452.588348,111.239876 500.819031,111.239876 549.291809,111.239876 
	C549.291809,118.508476 549.291809,125.620483 549.291809,133.234970 
	C531.008545,133.234970 512.763977,133.234970 494.182983,133.234970 
	C494.182983,148.300980 494.182983,162.872803 494.182983,177.996567 
	C503.911743,177.996567 513.689453,178.073135 523.465332,177.973038 
	C531.728333,177.888443 539.669189,179.037079 547.225159,182.653473 
	C548.568909,183.296600 550.607788,182.768890 552.257996,182.441177 
	C559.369812,181.028854 566.405884,178.625839 573.564575,178.207123 
	C583.328003,177.636078 593.291016,177.692184 602.968689,178.980316 
	C628.252197,182.345642 648.879822,205.607803 649.999817,231.019150 
	C650.146423,234.345764 650.162659,237.679916 650.167114,241.010696 
	C650.184998,254.410995 648.940796,257.791260 640.291321,267.753479 
	C661.409912,267.753479 682.320496,267.753479 703.231018,267.753479 
	C688.404663,263.282898 679.103577,252.590408 671.842407,239.150574 
M729.877747,266.896942 
	C733.103394,267.315155 736.329041,267.733337 739.438477,268.136475 
	C739.741455,267.297821 739.946350,266.995178 739.946533,266.692505 
	C739.963867,229.891830 740.041809,193.090881 739.916382,156.290649 
	C739.884583,146.954544 735.093079,140.073257 726.880066,135.981720 
	C718.475159,131.794601 710.107300,132.736664 702.307007,137.902679 
	C695.211487,142.601929 690.451294,149.454163 688.154114,157.312057 
	C681.264893,180.877136 681.245789,204.861649 689.353699,227.919586 
	C695.984131,246.775742 708.410767,261.389526 729.877747,266.896942 
M468.588013,236.898666 
	C472.397980,224.899200 470.606995,212.635345 470.970276,200.170486 
	C460.340179,200.170486 450.369019,200.135849 440.398163,200.179245 
	C427.912659,200.233612 415.389984,199.781860 402.952240,200.598312 
	C389.698273,201.468338 381.519379,211.620163 381.820221,224.887131 
	C382.065643,235.709274 385.899139,245.012268 393.313110,252.788391 
	C416.775848,277.397156 455.577606,270.690765 468.588013,236.898666 
M467.334778,177.998535 
	C469.972961,178.391785 471.306366,177.640701 471.059235,174.593277 
	C470.790710,171.281891 470.998688,167.931885 470.998718,164.598709 
	C470.998749,154.310257 470.998688,144.021805 470.998688,133.843262 
	C455.823700,133.843262 441.223572,133.843262 426.528748,133.843262 
	C426.528748,148.709930 426.528748,163.260651 426.528748,177.998627 
	C440.045624,177.998627 453.206238,177.998627 467.334778,177.998535 
M546.742432,266.839600 
	C554.529663,268.617889 560.209229,263.828003 560.471985,254.941895 
	C560.678650,247.950867 560.629456,240.946335 560.482788,233.952240 
	C560.287537,224.643616 556.271179,217.096603 548.509766,209.945526 
	C545.580688,214.781662 541.380859,218.957504 540.506958,223.740982 
	C538.761597,233.294159 538.835510,243.180222 538.167236,252.929443 
	C537.734680,259.240326 540.094604,263.947601 546.742432,266.839600 
z"/>
<path fill="#353535" opacity="1.000000" stroke="none" 
	d="
M95.358421,263.299255 
	C89.592674,273.499908 82.868164,282.270233 72.068115,286.942596 
	C56.233673,293.792938 39.002724,289.294769 27.753784,275.308258 
	C18.721573,264.077911 13.417235,251.215912 13.255416,236.789139 
	C13.066985,219.989853 12.633560,203.075516 14.247590,186.398987 
	C17.340040,154.447144 42.580696,121.468712 73.248009,113.378456 
	C105.711098,104.814468 136.973709,121.213051 145.295425,152.196930 
	C146.572876,156.953201 147.051147,162.046265 147.094757,166.990662 
	C147.284332,188.484161 147.096924,209.980698 147.201080,231.475372 
	C147.286453,249.092880 156.387741,261.539490 172.340393,266.260284 
	C186.355545,270.407745 201.102554,265.279358 210.234085,252.871109 
	C219.479355,240.308319 223.655502,225.884857 224.901764,210.564392 
	C227.855011,174.260132 215.342865,143.695938 190.075302,117.976166 
	C189.381332,117.269768 188.424500,116.821625 187.956253,116.502487 
	C193.674866,110.791008 198.918457,105.553963 204.409286,100.069977 
	C214.510147,109.348282 223.405289,120.523727 230.260590,133.109039 
	C247.152893,164.120834 252.555099,197.067551 243.800964,231.481461 
	C238.187943,253.547104 227.101959,272.583099 206.205948,283.848938 
	C171.466949,302.578064 126.923775,277.521118 125.293510,238.072601 
	C124.399826,216.447800 124.573662,194.746948 125.147690,173.103760 
	C125.589005,156.464188 119.276421,144.081406 104.460106,136.977127 
	C89.875679,129.984039 75.594124,133.039474 63.140850,142.411133 
	C46.535378,154.907516 38.225948,172.371918 35.594624,192.920029 
	C36.173092,192.744095 36.628963,192.738876 36.710194,192.561798 
	C45.144024,174.177338 65.028610,175.091064 77.328438,184.092972 
	C92.414413,195.133987 99.940704,210.794266 101.929970,229.123474 
	C103.216187,240.974762 100.950241,252.314377 95.358421,263.299255 
M76.361908,216.313812 
	C74.336067,213.099167 72.686714,209.554947 70.214584,206.730988 
	C62.447685,197.858856 51.386311,198.278427 44.122536,207.422272 
	C33.113525,221.280792 32.490974,245.049545 42.771946,259.375153 
	C49.014671,268.073853 61.776566,271.835052 70.550735,260.642670 
	C81.050285,247.249374 82.422829,232.628448 76.361908,216.313812 
z"/>
<path fill="#353535" opacity="1.000000" stroke="none" 
	d="
M1046.151611,286.177185 
	C1038.931030,287.523682 1032.097168,289.754395 1025.244995,289.812195 
	C984.588318,290.155243 943.927551,289.995941 903.268127,289.995789 
	C902.459839,289.995789 901.651550,289.877563 900.570496,289.793182 
	C900.570496,230.252228 900.570496,170.860458 900.570496,111.231766 
	C907.877319,111.231766 914.987671,111.231766 922.573059,111.231766 
	C922.573059,163.274918 922.573059,215.340729 922.573059,267.700073 
	C941.457825,267.700073 959.873596,267.700073 978.911621,267.700073 
	C978.911621,265.966644 978.911499,264.201721 978.911560,262.436829 
	C978.911743,227.443008 979.069885,192.448212 978.848938,157.455780 
	C978.729248,138.493393 987.403015,124.764160 1003.520081,116.035347 
	C1016.100281,109.222054 1029.800049,109.810410 1043.368286,113.593941 
	C1069.219238,120.802544 1089.078979,145.258514 1090.003662,172.158997 
	C1090.632690,190.462692 1090.661987,208.819626 1090.078857,227.124680 
	C1089.222900,253.992905 1071.979858,276.800171 1046.151611,286.177185 
M1068.073486,178.606705 
	C1067.652710,156.543045 1053.914917,139.750839 1032.446167,134.580856 
	C1012.204956,129.706512 1000.542664,144.821060 1000.870605,159.542984 
	C1001.634521,193.836258 1001.113831,228.158173 1001.113647,262.468475 
	C1001.113647,264.229919 1001.113708,265.991364 1001.113708,267.996918 
	C1008.072388,267.996918 1014.405396,267.666565 1020.694092,268.054382 
	C1047.188477,269.688354 1069.185425,245.916626 1068.172241,220.548386 
	C1067.627686,206.912628 1068.075195,193.237244 1068.073486,178.606705 
z"/>
<path fill="#C7743A" opacity="1.000000" stroke="none" 
	d="
M828.486328,336.737213 
	C827.755493,335.053650 827.219482,333.477478 827.218933,331.901093 
	C827.179504,226.595276 827.183289,121.289444 827.183289,15.983620 
	C827.183289,14.520716 827.183289,13.057812 827.183289,11.292255 
	C834.380188,11.292255 841.138977,11.292255 848.316528,11.292255 
	C848.316528,119.569763 848.316528,227.905807 848.316528,336.844482 
	C841.804321,336.844482 835.367737,336.844482 828.486328,336.737213 
z"/>
<path fill="#C57034" opacity="1.000000" stroke="none" 
	d="
M313.235809,108.000031 
	C313.235901,184.424332 313.235901,260.348633 313.235901,336.568665 
	C306.016357,336.568665 299.289337,336.568665 292.298157,336.568665 
	C292.298157,228.125885 292.298157,119.914490 292.298157,11.350939 
	C299.029175,11.350939 305.759552,11.350939 313.235718,11.350939 
	C313.235718,43.370045 313.235718,75.435036 313.235809,108.000031 
z"/>
<path fill="#353535" opacity="1.000000" stroke="none" 
	d="
M996.056641,30.050812 
	C1001.010803,37.789452 1002.459900,45.650970 997.268555,53.213612 
	C992.149353,60.671211 984.919434,65.640800 975.398193,64.354286 
	C965.929626,63.074894 959.316223,57.640873 956.619568,48.134975 
	C953.809753,38.229694 958.450500,27.892437 967.857056,22.965879 
	C978.492920,17.395494 987.476379,19.566063 996.056641,30.050812 
z"/>
<path fill="#FEFEFE" opacity="1.000000" stroke="none" 
	d="
M729.468872,266.815277 
	C708.410767,261.389526 695.984131,246.775742 689.353699,227.919586 
	C681.245789,204.861649 681.264893,180.877136 688.154114,157.312057 
	C690.451294,149.454163 695.211487,142.601929 702.307007,137.902679 
	C710.107300,132.736664 718.475159,131.794601 726.880066,135.981720 
	C735.093079,140.073257 739.884583,146.954544 739.916382,156.290649 
	C740.041809,193.090881 739.963867,229.891830 739.946533,266.692505 
	C739.946350,266.995178 739.741455,267.297821 739.438477,268.136475 
	C736.329041,267.733337 733.103394,267.315155 729.468872,266.815277 
z"/>
<path fill="#FDFDFD" opacity="1.000000" stroke="none" 
	d="
M468.428375,237.265350 
	C455.577606,270.690765 416.775848,277.397156 393.313110,252.788391 
	C385.899139,245.012268 382.065643,235.709274 381.820221,224.887131 
	C381.519379,211.620163 389.698273,201.468338 402.952240,200.598312 
	C415.389984,199.781860 427.912659,200.233612 440.398163,200.179245 
	C450.369019,200.135849 460.340179,200.170486 470.970276,200.170486 
	C470.606995,212.635345 472.397980,224.899200 468.428375,237.265350 
z"/>
<path fill="#FEFEFE" opacity="1.000000" stroke="none" 
	d="
M466.850830,177.998581 
	C453.206238,177.998627 440.045624,177.998627 426.528748,177.998627 
	C426.528748,163.260651 426.528748,148.709930 426.528748,133.843262 
	C441.223572,133.843262 455.823700,133.843262 470.998688,133.843262 
	C470.998688,144.021805 470.998749,154.310257 470.998718,164.598709 
	C470.998688,167.931885 470.790710,171.281891 471.059235,174.593277 
	C471.306366,177.640701 469.972961,178.391785 466.850830,177.998581 
z"/>
<path fill="#FCFCFC" opacity="1.000000" stroke="none" 
	d="
M546.396606,266.705566 
	C540.094604,263.947601 537.734680,259.240326 538.167236,252.929443 
	C538.835510,243.180222 538.761597,233.294159 540.506958,223.740982 
	C541.380859,218.957504 545.580688,214.781662 548.509766,209.945526 
	C556.271179,217.096603 560.287537,224.643616 560.482788,233.952240 
	C560.629456,240.946335 560.678650,247.950867 560.471985,254.941895 
	C560.209229,263.828003 554.529663,268.617889 546.396606,266.705566 
z"/>
<path fill="#FDFDFD" opacity="1.000000" stroke="none" 
	d="
M76.559525,216.643341 
	C82.422829,232.628448 81.050285,247.249374 70.550735,260.642670 
	C61.776566,271.835052 49.014671,268.073853 42.771946,259.375153 
	C32.490974,245.049545 33.113525,221.280792 44.122536,207.422272 
	C51.386311,198.278427 62.447685,197.858856 70.214584,206.730988 
	C72.686714,209.554947 74.336067,213.099167 76.559525,216.643341 
z"/>
<path fill="#FEFEFE" opacity="1.000000" stroke="none" 
	d="
M1068.074219,179.093231 
	C1068.075195,193.237244 1067.627686,206.912628 1068.172241,220.548386 
	C1069.185425,245.916626 1047.188477,269.688354 1020.694092,268.054382 
	C1014.405396,267.666565 1008.072388,267.996918 1001.113708,267.996918 
	C1001.113708,265.991364 1001.113647,264.229919 1001.113647,262.468475 
	C1001.113831,228.158173 1001.634521,193.836258 1000.870605,159.542984 
	C1000.542664,144.821060 1012.204956,129.706512 1032.446167,134.580856 
	C1053.914917,139.750839 1067.652710,156.543045 1068.074219,179.093231 
z"/>
</svg>