<svg enable-background="new 0 0 1044 336" viewBox="0 0 1044 336" xmlns="http://www.w3.org/2000/svg"><path d="m758 337c-252.666626 0-504.833237 0-756.999898 0-.000034-111.999939-.000034-223.99987-.000068-335.999853 347.999844-.000049 695.999722-.000049 1043.999722-.000098 0 111.999806 0 223.999661.000122 335.999737-95.499878.000214-190.999878.000214-286.999878.000214m-80.198669-81.810181c1.79541-6.531967 4.729187-12.990814 5.154419-19.610809.948791-14.771744.860351-29.625717.736938-44.442383-.043884-5.268921-1.067749-10.604767-2.239136-15.775268-3.661682-16.161927-12.302673-29.67009-23.34082-41.997849 1.068848-.543152 1.918213-1.033615 2.812317-1.420624 32.254333-13.959854 73.252991 4.259842 85.557739 38.296631 6.643982 18.378189 5.608215 37.577164 3.105347 56.342697-3.027588 22.699738-15.765869 33.579804-37.909607 35.319703-.301941.023712-.587219.260986-1.275696.584289 2.298035 7.14035 4.61145 14.328308 7.07666 21.987915 4.646179-.831116 8.973511-1.223358 13.073853-2.403931 19.052429-5.485626 30.443298-19.300872 37.326233-36.800506 8.952697-22.762207 7.672363-46.744446 3.322509-69.964005-9.234008-49.290695-64.201477-86.119369-118.446106-63.163818-9.758972 4.129845-17.10321 4.941933-26.834411.012932-17.985962-9.110176-37.76532-8.193886-57.277588-6.031769-37.041748 4.10453-69.938873 36.46682-73.515991 73.469994-1.612702 16.682281-1.044037 33.589996-1.161042 50.397537-.088287 12.68248 4.242615 24.082733 11.032227 34.681228 15.71109 24.524811 45.771515 25.762787 64.244171 3.27884 20.993408-25.552155 14.53888-60.356812 2.404358-79.028489-4.626099-7.118301-10.81189-12.704315-19.389709-14.815414-13.834961-3.404923-23.781495 3.03157-32.288147 12.978378-.951599 1.112671-1.946778 2.188065-2.921692 3.280747.432312-21.654755 9.794677-38.389435 26.833252-50.460449 23.493347-16.643868 48.950683-14.836884 75.632324-7.090394-1.771668 1.993943-2.965759 3.327958-4.149231 4.671372-11.074036 12.570907-18.795349 27.062073-20.01294 43.737671-1.281616 17.552933-.866455 35.260223-.555114 52.888794.224365 12.706222 5.528137 23.877273 13.058166 33.911087 14.351868 19.123901 39.403809 21.767669 56.733887 5.458648 5.206177-4.899444 8.627869-11.695068 13.21283-18.292755m160.868164-135.044326c-18.727051 15.909301-31.258545 35.593231-33.704712 60.279495-1.521424 15.353805-.779236 30.927719-1.156616 46.400329-.344361 14.120667 3.824523 26.821701 11.552612 38.522065 13.365295 20.234985 38.282898 25.018066 56.183655 10.093139 13.576477-11.319488 20.771484-26.425781 21.201049-44.074356.534241-21.948547-7.417602-40.558472-25.447937-53.638443-14.316284-10.385635-29.430481-7.147476-39.18988 7.230499-.310608.45755-.865112.749573-1.555237 1.327546 1.134094-19.322693 14.092041-41.69571 29.608582-51.684555 7.19165-4.629624 15.066589-6.67772 23.561828-7.111191 16.468018-.840271 36.61261 13.835144 36.186646 37.088958-.396729 21.654267-.110291 43.321579-.078552 64.983078.043213 29.440537 25.090271 54.450974 54.525512 54.43425 23.816773-.013519 40.513245-11.994262 52.616272-31.54808 14.722473-23.785904 17.530335-49.782089 14.010437-76.883743-4.216675-32.466858-19.055237-59.459496-42.158386-81.823616-5.387268 5.418769-10.643799 10.706054-15.982422 16.075912.432556.483131 1.067749 1.250404 1.762085 1.959732 19.708923 20.133049 32.455017 43.678078 34.884949 72.119896 1.809936 21.185547-.995545 41.488388-12.523804 59.944428-8.896301 14.242416-24.818909 20.869888-39.849975 16.492508-16.05127-4.6745-25.086426-17.176819-25.114808-34.702149-.036499-22.493195.207459-44.992233-.230712-67.477829-.418396-21.470169-15.224976-42.218262-35.455384-49.370209-22.86322-8.082725-43.836853-3.069755-63.645202 11.362336m-804.138928 55.701019c-21.150563 10.811157-30.058023 30.142593-25.233804 54.763763 6.550442 33.431229 37.520814 56.086869 72.74352 53.213791 33.557892-2.737274 58.843903-29.314972 60.079743-63.373245.312042-8.599503.046722-17.219956.046722-26.26236h55.604065c0-7.633728 0-14.821045 0-22.403763-18.596603 0-36.837616 0-55.18161 0 0-14.828063 0-29.252471 0-44.357131h55.325012c0-7.786995 0-14.89 0-22.136002-48.415985 0-96.617454 0-145.246323 0v66.006683c-6.150203 1.516526-11.77753 2.904129-18.137325 4.548264m277.147167-3.346634v111.255188h22.380738c0-52.149597 0-104.053345 0-156.444412h44.19049c0-7.705567 0-14.913842 0-21.92273-48.615844 0-96.837982 0-144.950866 0v178.289597h22.266708c0-52.073426 0-103.822937 0-155.84887h56.112869c0 14.750191 0 29.210701.000061 44.671227m111.987976-160.941399v319.017113h20.915345c0-108.594513 0-216.925285 0-325.256531-7.090088 0-13.840393 0-20.91565 0 0 1.963064 0 3.610105.000305 6.239418z" fill="#fffefe"/><path d="m677.628479 255.525208c-4.412109 6.262298-7.833801 13.057922-13.039978 17.957366-17.330078 16.309021-42.382019 13.665253-56.733887-5.458648-7.530029-10.033814-12.833801-21.204865-13.058166-33.911087-.311341-17.628571-.726502-35.335861.555114-52.888794 1.217591-16.675598 8.938904-31.166764 20.01294-43.737671 1.183472-1.343414 2.377563-2.677429 4.149231-4.671372-26.681641-7.74649-52.138977-9.553474-75.632324 7.090394-17.038575 12.071014-26.40094 28.805694-26.833252 50.460449.974914-1.092682 1.970093-2.168076 2.921692-3.280747 8.506652-9.946808 18.453186-16.383301 32.288147-12.978378 8.577819 2.111099 14.76361 7.697113 19.389709 14.815414 12.134522 18.671677 18.58905 53.476334-2.404358 79.028489-18.472656 22.483947-48.533081 21.245971-64.244171-3.27884-6.789612-10.598495-11.120514-21.998748-11.032227-34.681228.117005-16.807541-.45166-33.715256 1.161042-50.397537 3.577118-37.003174 36.474243-69.365464 73.515991-73.469994 19.512268-2.162117 39.291626-3.078407 57.277588 6.031769 9.731201 4.929001 17.075439 4.116913 26.834411-.012932 54.244629-22.955551 109.212098 13.873123 118.446106 63.163818 4.349854 23.219559 5.630188 47.201798-3.322509 69.964005-6.882935 17.499634-18.273804 31.31488-37.326233 36.800506-4.100342 1.180573-8.427674 1.572815-13.073853 2.403931-2.46521-7.659607-4.778625-14.847565-7.07666-21.987915.688477-.323303.973755-.560577 1.275696-.584289 22.143738-1.739899 34.882019-12.619965 37.909607-35.319703 2.502868-18.765533 3.538635-37.964508-3.105347-56.342697-12.304748-34.036789-53.303406-52.256485-85.557739-38.296631-.894104.387009-1.743469.877472-2.812317 1.420624 11.038147 12.327759 19.679138 25.835922 23.34082 41.997849 1.171387 5.170501 2.195252 10.506347 2.239136 15.775268.123413 14.816666.211853 29.670639-.736938 44.442383-.425232 6.619995-3.359009 13.078842-5.327271 19.946198m-30.598877-101.018403c-2.815308-2.820175-5.630554-5.640365-8.55603-8.570968-11.460816 9.690124-19.221619 21.76477-20.33313 36.588165-1.279175 17.058777-1.438721 34.289108-.615906 51.374207.323486 6.716568 3.675232 13.83052 7.335449 19.713623 5.259217 8.453293 17.861634 12.000351 26.664368 1.588668 5.719605-6.764968 9.232971-14.347641 9.532776-23.058883.452392-13.145279.492432-26.314667.32074-39.468765-.184021-14.104294-4.830628-26.714722-14.348267-38.166047m-114.538879 105.795807c7.105285 2.836823 12.747924.616577 17.8208-4.7061 13.264649-13.917816 14.150025-38.403656 1.772278-53.616516-8.538696-10.494492-20.656372-10.116486-28.295349 1.008819-6.370849 9.278366-8.803223 19.717896-7.398926 30.766602 1.369995 10.778198 4.557434 20.850952 16.101197 26.547195z" fill="#363636"/><path d="m838.967773 119.949432c19.510071-14.23603 40.483704-19.249 63.346924-11.166275 20.230408 7.151947 35.036988 27.90004 35.455384 49.370209.438171 22.485596.194213 44.984634.230712 67.477829.028382 17.52533 9.063538 30.027649 25.114808 34.702149 15.031066 4.37738 30.953674-2.250092 39.849975-16.492508 11.528259-18.45604 14.33374-38.758881 12.523804-59.944428-2.429932-28.441818-15.176026-51.986847-34.884949-72.119896-.694336-.709328-1.329529-1.476601-1.762085-1.959732 5.338623-5.369858 10.595154-10.657143 15.982422-16.075912 23.103149 22.36412 37.941711 49.356758 42.158386 81.823616 3.519898 27.101654.712036 53.097839-14.010437 76.883743-12.103027 19.553818-28.799499 31.534561-52.616272 31.54808-29.435241.016724-54.482299-24.993713-54.525512-54.43425-.031739-21.661499-.318177-43.328811.078552-64.983078.425964-23.253814-19.718628-37.929229-36.186646-37.088958-8.495239.433471-16.370178 2.481567-23.561828 7.111191-15.516541 9.988845-28.474488 32.361862-29.608582 51.684555.690125-.577973 1.244629-.869996 1.555237-1.327546 9.759399-14.377975 24.873596-17.616134 39.18988-7.230499 18.030335 13.079971 25.982178 31.689896 25.447937 53.638443-.429565 17.648575-7.624572 32.754868-21.201049 44.074356-17.900757 14.924927-42.81836 10.141846-56.183655-10.093139-7.728089-11.700364-11.896973-24.401398-11.552612-38.522065.37738-15.47261-.364808-31.046524 1.156616-46.400329 2.446167-24.686264 14.977661-44.370194 34.00299-60.475556m-.643676 138.446961c6.721435 3.854675 13.333557 4.869751 19.79602-.6008 15.846436-13.414184 16.676819-44.278839 1.550598-58.503891-7.44403-7.000686-17.717346-6.597686-24.124511 1.314041-2.469849 3.049897-4.465393 6.626175-6.029908 10.2426-7.061096 16.321426-3.371215 36.767975 8.807801 47.54805z" fill="#353535"/><path d="m34.896797 175.718246c5.993565-1.515869 11.620892-2.903472 17.771095-4.419998 0-21.568557 0-43.642257 0-66.006683h145.246323v22.136002c-18.374832 0-36.728165 0-55.325012 0v44.357131h55.18161v22.403763c-18.358658 0-36.59906 0-55.604065 0 0 9.042404.26532 17.662857-.046722 26.26236-1.23584 34.058273-26.521851 60.635971-60.079743 63.373245-35.222706 2.873078-66.193078-19.782562-72.74352-53.213791-4.824219-24.62117 4.083241-43.952606 25.600034-54.892029m69.642937 74.335312c8.455215-8.075485 14.344261-17.507599 14.713699-29.528762.267807-8.714173.052284-17.443192.052284-26.304902-22.673172 0-44.987098-.005218-67.300987.017273-.988403.000992-1.987308.201325-2.963192.398514-14.044887 2.838043-21.576627 16.823898-17.616413 32.797653 7.411244 29.893662 46.590225 46.541397 73.114609 22.620224m15.263725-98.553741c0-7.785584 0-15.571167 0-23.613587-15.132774 0-29.792274 0-44.401008 0v43.80246h44.400985c0-6.600525 0-12.894836.000023-20.188873z" fill="#353535"/><path d="m311.677704 171.999878c-.000031-14.960526-.000031-29.421036-.000031-44.171227-18.895477 0-37.28714 0-56.112869 0v155.84887c-7.629257 0-14.830261 0-22.266708 0 0-59.368958 0-118.633591 0-178.289597h144.950866v21.92273c-14.557434 0-29.143035 0-44.19049 0v156.444412c-7.549927 0-14.636841 0-22.380738 0 0-37.109848 0-74.18251-.00003-111.755188z" fill="#353535"/><path d="m423.665558 11.067343c-.000153-2.138177-.000153-3.785218-.000153-5.748282h20.91565v325.256531c-6.920624 0-13.648621 0-20.915345 0 0-106.532852 0-212.774979-.000152-319.508249z" fill="#c57035"/><path d="m647.260498 154.779327c9.286743 11.178803 13.93335 23.789231 14.117371 37.893525.171692 13.154098.131652 26.323486-.32074 39.468765-.299805 8.711242-3.813171 16.293915-9.532776 23.058883-8.802734 10.411683-21.405151 6.864625-26.664368-1.588668-3.660217-5.883103-7.011963-12.997055-7.335449-19.713623-.822815-17.085099-.663269-34.31543.615906-51.374207 1.111511-14.823395 8.872314-26.898041 20.33313-36.588165 2.925476 2.930603 5.740722 5.750793 8.786926 8.84349z" fill="#fefefe"/><g fill="#fdfdfd"><path d="m532.13501 260.154053c-11.18805-5.547684-14.375489-15.620438-15.745484-26.398636-1.404297-11.048706 1.028077-21.488236 7.398926-30.766602 7.638977-11.125305 19.756653-11.503311 28.295349-1.008819 12.377747 15.21286 11.492371 39.6987-1.772278 53.616516-5.072876 5.322677-10.715515 7.542923-18.176513 4.557541z"/><path d="m838.046875 258.147003c-11.901794-10.530685-15.591675-30.977234-8.530579-47.29866 1.564515-3.616425 3.560059-7.192703 6.029908-10.2426 6.407165-7.911727 16.680481-8.314727 24.124511-1.314041 15.126221 14.225052 14.295838 45.089707-1.550598 58.503891-6.462463 5.470551-13.074585 4.455475-20.073242.35141z"/><path d="m104.273315 250.292526c-26.257965 23.682205-65.436946 7.03447-72.84819-22.859192-3.960214-15.973755 3.571526-29.95961 17.616413-32.797653.975884-.197189 1.974789-.397522 2.963192-.398514 22.313889-.022491 44.627815-.017273 67.300987-.017273 0 8.86171.215523 17.590729-.052284 26.304902-.369438 12.021163-6.258484 21.453277-14.980118 29.76773z"/><path d="m119.803452 151.999664c-.000016 6.79419-.000016 13.088501-.000016 19.689026-14.90226 0-29.470665 0-44.400985 0 0-14.369339 0-28.904678 0-43.80246h44.401008c0 8.04242 0 15.828003-.000007 24.113434z"/></g></svg>