<svg version="1.1" id="Layer_1" xmlns="http://www.w3.org/2000/svg" xmlns:xlink="http://www.w3.org/1999/xlink" x="0px" y="0px"
	 width="100%" viewBox="0 0 1240 382" enable-background="new 0 0 1240 382" xml:space="preserve">
<path fill="#FFFFFF" opacity="1.000000" stroke="none" 
	d="
M803.000000,383.000000 
	C535.333374,383.000000 268.166748,383.000000 1.000108,383.000000 
	C1.000072,255.666733 1.000072,128.333481 1.000036,1.000159 
	C414.333160,1.000106 827.666321,1.000106 1240.999634,1.000053 
	C1240.999756,128.333176 1240.999756,255.666336 1240.999878,382.999756 
	C1095.166626,383.000000 949.333313,383.000000 803.000000,383.000000 
M571.840210,187.871109 
	C571.695496,187.760071 571.550842,187.649017 571.384033,186.729752 
	C575.333313,162.852737 588.694763,146.033325 610.388855,135.962463 
	C625.757812,128.827881 642.173706,129.584427 658.462708,131.628952 
	C663.527161,132.264618 668.407532,134.366699 674.094116,136.005508 
	C659.625122,151.363785 650.868835,168.405121 649.681641,188.389603 
	C648.745178,204.153961 649.109924,220.018082 649.429565,235.827148 
	C649.667480,247.591080 654.108459,258.160950 660.490784,267.959747 
	C675.943787,291.684357 705.128662,293.739075 723.372986,272.114319 
	C733.254517,260.401825 738.243530,246.694748 738.185974,231.252670 
	C738.142517,219.587708 738.196289,207.922440 738.172363,196.257385 
	C738.142029,181.423279 734.153259,167.651611 726.390015,155.086914 
	C722.350891,148.549484 717.627563,142.434784 712.879761,135.652756 
	C733.542969,128.383057 753.743469,128.387436 774.560791,136.011322 
	C773.095459,137.729568 772.058899,138.991180 770.974121,140.209885 
	C760.085266,152.442932 752.258484,166.450424 750.961365,182.827179 
	C749.624573,199.705856 749.953247,216.726532 749.820801,233.687164 
	C749.724426,246.032578 754.027893,257.068512 760.586426,267.398163 
	C774.619324,289.499969 801.932373,293.823700 819.968689,276.249451 
	C831.300598,265.207794 838.104919,251.553284 838.767395,235.542786 
	C839.304199,222.570389 839.001953,209.562012 839.015137,196.569534 
	C839.031982,179.922043 833.859680,164.837387 824.799683,151.055832 
	C821.447266,145.956329 817.512207,141.239792 813.593567,136.016251 
	C832.687622,127.074219 852.633057,131.824142 872.536743,130.385025 
	C872.536743,183.067734 872.536743,234.834747 872.536743,286.755371 
	C880.184692,286.755371 887.421631,286.755371 895.109924,286.755371 
	C895.109924,234.594849 895.109924,182.682571 895.109924,130.245209 
	C906.466736,130.245209 917.375122,130.245209 928.288696,130.245209 
	C928.288696,122.600304 928.288696,115.486420 928.288696,107.994339 
	C926.241089,107.994339 924.440186,107.994347 922.639221,107.994347 
	C897.309265,107.994347 871.977905,108.158615 846.649841,107.938072 
	C829.008240,107.784454 812.259827,110.729660 796.837036,119.789780 
	C795.493408,120.579071 792.925171,120.534195 791.516541,119.777298 
	C763.976257,104.979042 735.390198,103.494370 706.841187,115.200859 
	C697.182678,119.161331 689.994812,120.182732 680.551636,115.127647 
	C665.753052,107.205681 649.109863,107.594627 632.712219,108.145470 
	C591.195740,109.540131 555.792175,139.547455 550.091370,180.490036 
	C547.564087,198.641052 548.697632,217.340759 548.703064,235.791245 
	C548.706543,247.399918 553.201416,257.800781 559.395447,267.502991 
	C573.377136,289.403717 599.550781,294.033386 618.007446,276.789246 
	C648.417969,248.376480 640.962646,201.948334 612.319397,180.977692 
	C597.787292,170.338226 582.334351,173.491241 571.840210,187.871109 
M312.512024,196.272156 
	C312.528137,197.272171 312.479797,198.278030 312.569733,199.271362 
	C315.181580,228.131897 324.900757,252.487640 353.296082,264.659882 
	C333.080536,264.659882 312.163239,264.659882 290.920258,264.659882 
	C296.871826,258.497498 300.720276,251.857086 300.866028,246.288284 
	C301.048889,239.301834 301.240051,232.248230 300.521362,225.317596 
	C297.899170,200.030945 277.644379,178.957825 252.463806,175.803497 
	C243.097626,174.630188 233.473969,174.611816 224.037659,175.196152 
	C217.036926,175.629669 210.153000,177.905975 203.207886,179.316315 
	C201.677551,179.627090 199.760361,180.431839 198.612076,179.847733 
	C188.861801,174.888016 178.439285,174.761841 167.897400,174.967438 
	C160.145844,175.118622 152.388977,174.997101 144.614929,174.997101 
	C144.614929,159.883163 144.614929,145.452499 144.614929,130.536774 
	C163.155487,130.536774 181.423569,130.536774 199.867554,130.536774 
	C199.867554,122.815651 199.867554,115.584274 199.867554,108.348877 
	C151.391571,108.348877 103.177734,108.348877 54.693474,108.348877 
	C54.693474,130.662903 54.693474,152.626160 54.693474,174.745972 
	C52.511208,175.104248 50.572750,175.473816 48.619823,175.735275 
	C27.113140,178.614548 10.621266,196.470673 10.192233,218.155716 
	C9.656675,245.224991 21.373930,266.139618 45.055370,278.832855 
	C68.896408,291.611694 93.374237,290.522858 116.014778,275.307587 
	C136.096573,261.811890 144.718979,241.915604 144.349869,217.922653 
	C144.245575,211.143600 144.333923,204.361588 144.333923,197.603455 
	C155.611435,197.603455 166.250351,197.603455 175.875778,197.603455 
	C173.209015,204.931000 169.142883,212.025101 168.241943,219.500671 
	C166.757034,231.821579 166.744995,244.408417 167.163010,256.847839 
	C167.687805,272.464874 183.133759,286.500916 199.155624,286.980408 
	C215.091049,287.457306 231.909073,273.779694 232.987961,258.197662 
	C234.429626,237.375931 236.706818,216.182388 222.761429,197.212173 
	C234.700668,197.290024 245.638031,196.556686 256.491882,200.616714 
	C267.263397,204.645950 274.717407,211.498672 276.869751,222.464783 
	C278.480957,230.673676 278.093719,239.344330 277.993958,247.802277 
	C277.864105,258.810638 273.058746,267.926697 263.016785,272.424805 
	C256.491638,275.347626 255.035294,279.179077 256.009705,285.267395 
	C256.083649,285.729401 256.208618,286.183258 256.435516,287.208618 
	C301.131409,287.208618 345.819336,287.208618 390.843475,287.208618 
	C390.843475,309.732910 390.843475,331.661835 390.843475,353.655212 
	C398.403503,353.655212 405.614838,353.655212 413.269775,353.655212 
	C413.269775,331.244629 413.269775,309.179565 413.269775,286.846741 
	C422.335083,286.846741 430.950958,286.846741 439.746033,286.846741 
	C439.746033,279.504364 439.746033,272.440430 439.746033,264.925781 
	C430.776123,264.925781 422.036774,264.925781 412.986145,264.925781 
	C412.986145,262.677185 412.986145,260.876556 412.986145,259.075928 
	C412.986084,224.247513 412.780884,189.417480 413.053497,154.591202 
	C413.256561,128.648758 391.907684,109.230354 370.641266,107.952515 
	C345.520569,106.443085 331.376160,82.820511 341.641479,59.147675 
	C345.874176,67.922089 351.405334,75.265289 359.768646,80.106071 
	C371.703613,87.014168 384.748901,86.588364 397.703278,85.337204 
	C414.352203,83.729233 427.595428,68.587547 427.246582,52.440613 
	C426.878906,35.421024 413.386902,20.041393 396.878571,19.045839 
	C383.934204,18.265215 370.883392,18.231401 357.939117,18.943336 
	C352.387665,19.248669 346.280914,21.211384 341.635345,24.261995 
	C317.596375,40.047665 306.826538,75.602394 323.301758,102.819458 
	C326.871063,108.715942 331.774353,113.804939 336.274963,119.535492 
	C335.427795,120.454300 334.340393,121.663048 333.221832,122.842270 
	C322.998413,133.620041 315.678040,146.089035 313.973602,160.931122 
	C312.668121,172.299255 312.938110,183.848312 312.512024,196.272156 
M1047.927856,133.500000 
	C1047.927856,184.588028 1047.927856,235.676041 1047.927856,287.002777 
	C1049.373535,287.002777 1050.185669,287.002808 1050.997803,287.002777 
	C1091.163574,287.001709 1131.329224,287.027649 1171.494873,286.955719 
	C1175.303833,286.948914 1179.139282,286.517059 1182.915649,285.963684 
	C1210.169067,281.969818 1234.563477,257.966125 1236.800293,230.582977 
	C1238.476929,210.057602 1238.722534,189.243011 1237.449097,168.690765 
	C1235.692749,140.342270 1216.651978,117.871422 1190.889404,110.619682 
	C1177.144531,106.750710 1163.289673,106.236542 1150.591309,113.247520 
	C1134.516113,122.122841 1126.139771,136.119965 1126.221802,154.939819 
	C1126.373535,189.771698 1126.264526,224.604691 1126.264038,259.437225 
	C1126.264038,261.193817 1126.264038,262.950409 1126.264038,264.682709 
	C1107.236206,264.682709 1088.833130,264.682709 1069.940308,264.682709 
	C1069.940308,212.317932 1069.940308,160.265213 1069.940308,108.286591 
	C1062.358765,108.286591 1055.273926,108.286591 1047.928345,108.286591 
	C1047.928345,116.549576 1047.928345,124.524788 1047.927856,133.500000 
M499.235352,129.500031 
	C499.235352,89.104805 499.235352,48.709583 499.235352,8.347094 
	C491.768616,8.347094 485.038116,8.347094 478.294006,8.347094 
	C478.294006,116.906281 478.294006,225.117447 478.294006,333.571838 
	C485.280334,333.571838 492.006836,333.571838 499.235504,333.571838 
	C499.235504,265.686523 499.235504,198.093277 499.235352,129.500031 
M996.039246,78.500000 
	C996.039246,55.089336 996.039246,31.678671 996.039246,8.357711 
	C988.603516,8.357711 981.867920,8.357711 975.175659,8.357711 
	C975.175659,116.926659 975.175659,225.138565 975.175659,333.563171 
	C982.172119,333.563171 988.895447,333.563171 996.039246,333.563171 
	C996.039246,248.676025 996.039246,164.088013 996.039246,78.500000 
M1123.853027,17.118395 
	C1121.190063,17.986521 1118.380005,18.554947 1115.889893,19.775663 
	C1106.160645,24.545181 1101.681641,34.057663 1103.960571,44.590405 
	C1105.924194,53.666130 1115.368774,61.483776 1124.742310,61.792397 
	C1133.735962,62.088505 1144.701904,53.878174 1147.203735,44.975342 
	C1150.957397,31.618279 1139.419189,17.294382 1123.853027,17.118395 
z"/>
<path fill="#353535" opacity="1.000000" stroke="none" 
	d="
M312.509705,195.794525 
	C312.938110,183.848312 312.668121,172.299255 313.973602,160.931122 
	C315.678040,146.089035 322.998413,133.620041 333.221832,122.842270 
	C334.340393,121.663048 335.427795,120.454300 336.274963,119.535492 
	C331.774353,113.804939 326.871063,108.715942 323.301758,102.819458 
	C306.826538,75.602394 317.596375,40.047665 341.635345,24.261995 
	C346.280914,21.211384 352.387665,19.248669 357.939117,18.943336 
	C370.883392,18.231401 383.934204,18.265215 396.878571,19.045839 
	C413.386902,20.041393 426.878906,35.421024 427.246582,52.440613 
	C427.595428,68.587547 414.352203,83.729233 397.703278,85.337204 
	C384.748901,86.588364 371.703613,87.014168 359.768646,80.106071 
	C351.405334,75.265289 345.874176,67.922089 341.641479,59.147675 
	C331.376160,82.820511 345.520569,106.443085 370.641266,107.952515 
	C391.907684,109.230354 413.256561,128.648758 413.053497,154.591202 
	C412.780884,189.417480 412.986084,224.247513 412.986145,259.075928 
	C412.986145,260.876556 412.986145,262.677185 412.986145,264.925781 
	C422.036774,264.925781 430.776123,264.925781 439.746033,264.925781 
	C439.746033,272.440430 439.746033,279.504364 439.746033,286.846741 
	C430.950958,286.846741 422.335083,286.846741 413.269775,286.846741 
	C413.269775,309.179565 413.269775,331.244629 413.269775,353.655212 
	C405.614838,353.655212 398.403503,353.655212 390.843475,353.655212 
	C390.843475,331.661835 390.843475,309.732910 390.843475,287.208618 
	C345.819336,287.208618 301.131409,287.208618 256.435516,287.208618 
	C256.208618,286.183258 256.083649,285.729401 256.009705,285.267395 
	C255.035294,279.179077 256.491638,275.347626 263.016785,272.424805 
	C273.058746,267.926697 277.864105,258.810638 277.993958,247.802277 
	C278.093719,239.344330 278.480957,230.673676 276.869751,222.464783 
	C274.717407,211.498672 267.263397,204.645950 256.491882,200.616714 
	C245.638031,196.556686 234.700668,197.290024 222.761429,197.212173 
	C236.706818,216.182388 234.429626,237.375931 232.987961,258.197662 
	C231.909073,273.779694 215.091049,287.457306 199.155624,286.980408 
	C183.133759,286.500916 167.687805,272.464874 167.163010,256.847839 
	C166.744995,244.408417 166.757034,231.821579 168.241943,219.500671 
	C169.142883,212.025101 173.209015,204.931000 175.875778,197.603455 
	C166.250351,197.603455 155.611435,197.603455 144.333923,197.603455 
	C144.333923,204.361588 144.245575,211.143600 144.349869,217.922653 
	C144.718979,241.915604 136.096573,261.811890 116.014778,275.307587 
	C93.374237,290.522858 68.896408,291.611694 45.055370,278.832855 
	C21.373930,266.139618 9.656675,245.224991 10.192233,218.155716 
	C10.621266,196.470673 27.113140,178.614548 48.619823,175.735275 
	C50.572750,175.473816 52.511208,175.104248 54.693474,174.745972 
	C54.693474,152.626160 54.693474,130.662903 54.693474,108.348877 
	C103.177734,108.348877 151.391571,108.348877 199.867554,108.348877 
	C199.867554,115.584274 199.867554,122.815651 199.867554,130.536774 
	C181.423569,130.536774 163.155487,130.536774 144.614929,130.536774 
	C144.614929,145.452499 144.614929,159.883163 144.614929,174.997101 
	C152.388977,174.997101 160.145844,175.118622 167.897400,174.967438 
	C178.439285,174.761841 188.861801,174.888016 198.612076,179.847733 
	C199.760361,180.431839 201.677551,179.627090 203.207886,179.316315 
	C210.153000,177.905975 217.036926,175.629669 224.037659,175.196152 
	C233.473969,174.611816 243.097626,174.630188 252.463806,175.803497 
	C277.644379,178.957825 297.899170,200.030945 300.521362,225.317596 
	C301.240051,232.248230 301.048889,239.301834 300.866028,246.288284 
	C300.720276,251.857086 296.871826,258.497498 290.920258,264.659882 
	C312.163239,264.659882 333.080536,264.659882 353.296082,264.659882 
	C324.900757,252.487640 315.181580,228.131897 312.569733,199.271362 
	C312.479797,198.278030 312.528137,197.272171 312.509705,195.794525 
M334.925507,174.581451 
	C335.282898,186.549469 334.576721,198.667114 336.234802,210.452133 
	C339.066742,230.580231 348.898865,247.054443 366.387177,258.202179 
	C373.611816,262.807434 381.630554,265.138458 390.480286,264.875580 
	C390.587494,263.799133 390.707214,263.157257 390.707367,262.515411 
	C390.717194,226.374237 390.756073,190.233017 390.692932,154.091949 
	C390.675140,143.900909 385.753876,136.545792 376.502594,132.538513 
	C367.246338,128.529114 358.362518,130.265808 350.894379,136.739441 
	C339.778595,146.375015 335.473206,159.244553 334.925507,174.581451 
M56.728092,197.170670 
	C42.703918,197.544678 32.475246,207.137344 32.453682,220.255951 
	C32.434891,231.686722 36.309162,241.618195 44.281929,250.013657 
	C62.098457,268.774811 90.497749,269.325989 108.400887,251.482788 
	C123.960297,235.975433 122.084579,216.678101 121.547836,197.169769 
	C99.916275,197.169769 78.796089,197.169769 56.728092,197.170670 
M80.574799,130.528046 
	C77.674538,130.072403 76.945442,131.408218 76.985634,134.172440 
	C77.130791,144.155319 77.042480,154.141586 77.042351,164.126572 
	C77.042305,167.706680 77.042343,171.286789 77.042343,174.685883 
	C92.335922,174.685883 106.904930,174.685883 121.564743,174.685883 
	C121.564743,159.961136 121.564743,145.551666 121.564743,130.527023 
	C108.077156,130.527023 94.818764,130.527023 80.574799,130.528046 
M192.588333,260.871460 
	C196.316498,263.508759 200.207397,266.108063 204.864288,263.422424 
	C209.428589,260.790192 211.243591,256.355438 211.248322,251.234177 
	C211.255371,243.584763 211.377777,235.919876 210.948517,228.289856 
	C210.479523,219.953812 206.194153,213.433441 200.082520,207.681870 
	C194.383469,212.952194 190.244904,218.728622 189.732025,226.239075 
	C189.177994,234.352173 188.922104,242.516098 189.169800,250.638519 
	C189.269028,253.892227 191.058975,257.094391 192.588333,260.871460 
M372.512268,40.999336 
	C368.598297,40.999336 364.684357,40.999336 360.664520,40.999336 
	C360.681488,48.436417 364.032959,53.506840 368.886322,57.932774 
	C375.588318,64.044487 383.781372,63.672989 391.942780,63.496620 
	C398.727417,63.350002 404.056519,58.822517 404.884399,52.635128 
	C405.552094,47.644928 401.033295,42.648560 394.430756,41.216904 
	C393.152557,40.939735 391.788025,41.012554 390.462982,41.007862 
	C384.811157,40.987858 379.159271,40.999340 372.512268,40.999336 
z"/>
<path fill="#363636" opacity="1.000000" stroke="none" 
	d="
M572.257446,188.225128 
	C582.334351,173.491241 597.787292,170.338226 612.319397,180.977692 
	C640.962646,201.948334 648.417969,248.376480 618.007446,276.789246 
	C599.550781,294.033386 573.377136,289.403717 559.395447,267.502991 
	C553.201416,257.800781 548.706543,247.399918 548.703064,235.791245 
	C548.697632,217.340759 547.564087,198.641052 550.091370,180.490036 
	C555.792175,139.547455 591.195740,109.540131 632.712219,108.145470 
	C649.109863,107.594627 665.753052,107.205681 680.551636,115.127647 
	C689.994812,120.182732 697.182678,119.161331 706.841187,115.200859 
	C735.390198,103.494370 763.976257,104.979042 791.516541,119.777298 
	C792.925171,120.534195 795.493408,120.579071 796.837036,119.789780 
	C812.259827,110.729660 829.008240,107.784454 846.649841,107.938072 
	C871.977905,108.158615 897.309265,107.994347 922.639221,107.994347 
	C924.440186,107.994347 926.241089,107.994339 928.288696,107.994339 
	C928.288696,115.486420 928.288696,122.600304 928.288696,130.245209 
	C917.375122,130.245209 906.466736,130.245209 895.109924,130.245209 
	C895.109924,182.682571 895.109924,234.594849 895.109924,286.755371 
	C887.421631,286.755371 880.184692,286.755371 872.536743,286.755371 
	C872.536743,234.834747 872.536743,183.067734 872.536743,130.385025 
	C852.633057,131.824142 832.687622,127.074219 813.593567,136.016251 
	C817.512207,141.239792 821.447266,145.956329 824.799683,151.055832 
	C833.859680,164.837387 839.031982,179.922043 839.015137,196.569534 
	C839.001953,209.562012 839.304199,222.570389 838.767395,235.542786 
	C838.104919,251.553284 831.300598,265.207794 819.968689,276.249451 
	C801.932373,293.823700 774.619324,289.499969 760.586426,267.398163 
	C754.027893,257.068512 749.724426,246.032578 749.820801,233.687164 
	C749.953247,216.726532 749.624573,199.705856 750.961365,182.827179 
	C752.258484,166.450424 760.085266,152.442932 770.974121,140.209885 
	C772.058899,138.991180 773.095459,137.729568 774.560791,136.011322 
	C753.743469,128.387436 733.542969,128.383057 712.879761,135.652756 
	C717.627563,142.434784 722.350891,148.549484 726.390015,155.086914 
	C734.153259,167.651611 738.142029,181.423279 738.172363,196.257385 
	C738.196289,207.922440 738.142517,219.587708 738.185974,231.252670 
	C738.243530,246.694748 733.254517,260.401825 723.372986,272.114319 
	C705.128662,293.739075 675.943787,291.684357 660.490784,267.959747 
	C654.108459,258.160950 649.667480,247.591080 649.429565,235.827148 
	C649.109924,220.018082 648.745178,204.153961 649.681641,188.389603 
	C650.868835,168.405121 659.625122,151.363785 674.094116,136.005508 
	C668.407532,134.366699 663.527161,132.264618 658.462708,131.628952 
	C642.173706,129.584427 625.757812,128.827881 610.388855,135.962463 
	C588.694763,146.033325 575.333313,162.852737 571.264404,187.442596 
	C571.204468,188.942108 571.264160,189.728790 571.323853,190.515472 
	C571.482422,190.517014 571.640991,190.518570 571.799561,190.520111 
	C571.952209,189.755127 572.104858,188.990128 572.257446,188.225128 
M674.007996,247.219696 
	C675.721924,250.425385 677.081970,253.891266 679.213623,256.789825 
	C686.725098,267.004059 698.920044,267.586853 706.408752,257.428650 
	C710.311829,252.134186 714.279480,245.490295 714.642883,239.247818 
	C715.691650,221.230606 716.085388,203.005920 714.510620,185.058029 
	C713.211182,170.248123 704.355103,158.449783 692.889221,148.939651 
	C680.940735,159.183914 673.541321,171.769455 672.310791,186.911621 
	C671.102112,201.784546 671.427917,216.801102 671.536438,231.751297 
	C671.572083,236.650803 673.035828,241.539932 674.007996,247.219696 
M816.825623,230.216019 
	C816.825623,219.387039 816.882507,208.557678 816.813416,197.729141 
	C816.686646,177.854462 808.522888,161.820572 793.374756,148.932968 
	C783.649597,157.741165 776.648865,168.137054 774.012207,180.924194 
	C770.072021,200.033371 771.600952,219.391800 772.624695,238.643311 
	C773.050293,246.648239 777.229858,253.478195 782.754150,259.311829 
	C789.062317,265.973114 797.724182,266.256897 804.451660,260.146606 
	C813.022339,252.362213 816.212036,242.313141 816.825623,230.216019 
M605.951050,257.418060 
	C618.538391,241.414871 618.167419,216.943176 605.130127,203.259232 
	C597.233643,194.971069 586.360962,195.466476 579.291077,204.436646 
	C568.415405,218.235413 567.804993,241.428711 577.725098,255.993652 
	C583.489624,264.457367 596.700806,269.182770 605.951050,257.418060 
z"/>
<path fill="#353535" opacity="1.000000" stroke="none" 
	d="
M1047.928101,133.000000 
	C1047.928345,124.524788 1047.928345,116.549576 1047.928345,108.286591 
	C1055.273926,108.286591 1062.358765,108.286591 1069.940308,108.286591 
	C1069.940308,160.265213 1069.940308,212.317932 1069.940308,264.682709 
	C1088.833130,264.682709 1107.236206,264.682709 1126.264038,264.682709 
	C1126.264038,262.950409 1126.264038,261.193817 1126.264038,259.437225 
	C1126.264526,224.604691 1126.373535,189.771698 1126.221802,154.939819 
	C1126.139771,136.119965 1134.516113,122.122841 1150.591309,113.247520 
	C1163.289673,106.236542 1177.144531,106.750710 1190.889404,110.619682 
	C1216.651978,117.871422 1235.692749,140.342270 1237.449097,168.690765 
	C1238.722534,189.243011 1238.476929,210.057602 1236.800293,230.582977 
	C1234.563477,257.966125 1210.169067,281.969818 1182.915649,285.963684 
	C1179.139282,286.517059 1175.303833,286.948914 1171.494873,286.955719 
	C1131.329224,287.027649 1091.163574,287.001709 1050.997803,287.002777 
	C1050.185669,287.002808 1049.373535,287.002777 1047.927856,287.002777 
	C1047.927856,235.676041 1047.927856,184.588028 1047.928101,133.000000 
M1212.731201,158.985138 
	C1206.342529,144.417847 1195.276733,135.485672 1179.937134,131.607925 
	C1160.230591,126.626160 1148.151978,141.537964 1148.505127,156.057358 
	C1149.347656,190.688858 1148.773193,225.354752 1148.786377,260.006744 
	C1148.786987,261.594391 1148.937500,263.181946 1149.022339,264.849335 
	C1157.919556,264.849335 1166.426270,265.325165 1174.862061,264.754639 
	C1195.167969,263.381287 1213.944946,244.982529 1214.958618,224.832367 
	C1215.819580,207.720444 1215.635254,190.544724 1215.488159,173.400864 
	C1215.449097,168.840271 1213.847046,164.293091 1212.731201,158.985138 
z"/>
<path fill="#C57034" opacity="1.000000" stroke="none" 
	d="
M499.235413,130.000031 
	C499.235504,198.093277 499.235504,265.686523 499.235504,333.571838 
	C492.006836,333.571838 485.280334,333.571838 478.294006,333.571838 
	C478.294006,225.117447 478.294006,116.906281 478.294006,8.347094 
	C485.038116,8.347094 491.768616,8.347094 499.235352,8.347094 
	C499.235352,48.709583 499.235352,89.104805 499.235413,130.000031 
z"/>
<path fill="#C56F33" opacity="1.000000" stroke="none" 
	d="
M996.039246,79.000000 
	C996.039246,164.088013 996.039246,248.676025 996.039246,333.563171 
	C988.895447,333.563171 982.172119,333.563171 975.175659,333.563171 
	C975.175659,225.138565 975.175659,116.926659 975.175659,8.357711 
	C981.867920,8.357711 988.603516,8.357711 996.039246,8.357711 
	C996.039246,31.678671 996.039246,55.089336 996.039246,79.000000 
z"/>
<path fill="#353535" opacity="1.000000" stroke="none" 
	d="
M1124.281738,17.084682 
	C1139.419189,17.294382 1150.957397,31.618279 1147.203735,44.975342 
	C1144.701904,53.878174 1133.735962,62.088505 1124.742310,61.792397 
	C1115.368774,61.483776 1105.924194,53.666130 1103.960571,44.590405 
	C1101.681641,34.057663 1106.160645,24.545181 1115.889893,19.775663 
	C1118.380005,18.554947 1121.190063,17.986521 1124.281738,17.084682 
z"/>
<path fill="#FDFDFD" opacity="1.000000" stroke="none" 
	d="
M334.942993,174.096710 
	C335.473206,159.244553 339.778595,146.375015 350.894379,136.739441 
	C358.362518,130.265808 367.246338,128.529114 376.502594,132.538513 
	C385.753876,136.545792 390.675140,143.900909 390.692932,154.091949 
	C390.756073,190.233017 390.717194,226.374237 390.707367,262.515411 
	C390.707214,263.157257 390.587494,263.799133 390.480286,264.875580 
	C381.630554,265.138458 373.611816,262.807434 366.387177,258.202179 
	C348.898865,247.054443 339.066742,230.580231 336.234802,210.452133 
	C334.576721,198.667114 335.282898,186.549469 334.942993,174.096710 
z"/>
<path fill="#FDFDFD" opacity="1.000000" stroke="none" 
	d="
M57.201996,197.170227 
	C78.796089,197.169769 99.916275,197.169769 121.547836,197.169769 
	C122.084579,216.678101 123.960297,235.975433 108.400887,251.482788 
	C90.497749,269.325989 62.098457,268.774811 44.281929,250.013657 
	C36.309162,241.618195 32.434891,231.686722 32.453682,220.255951 
	C32.475246,207.137344 42.703918,197.544678 57.201996,197.170227 
z"/>
<path fill="#FDFDFD" opacity="1.000000" stroke="none" 
	d="
M81.067581,130.527527 
	C94.818764,130.527023 108.077156,130.527023 121.564743,130.527023 
	C121.564743,145.551666 121.564743,159.961136 121.564743,174.685883 
	C106.904930,174.685883 92.335922,174.685883 77.042343,174.685883 
	C77.042343,171.286789 77.042305,167.706680 77.042351,164.126572 
	C77.042480,154.141586 77.130791,144.155319 76.985634,134.172440 
	C76.945442,131.408218 77.674538,130.072403 81.067581,130.527527 
z"/>
<path fill="#FCFCFC" opacity="1.000000" stroke="none" 
	d="
M192.333832,260.595734 
	C191.058975,257.094391 189.269028,253.892227 189.169800,250.638519 
	C188.922104,242.516098 189.177994,234.352173 189.732025,226.239075 
	C190.244904,218.728622 194.383469,212.952194 200.082520,207.681870 
	C206.194153,213.433441 210.479523,219.953812 210.948517,228.289856 
	C211.377777,235.919876 211.255371,243.584763 211.248322,251.234177 
	C211.243591,256.355438 209.428589,260.790192 204.864288,263.422424 
	C200.207397,266.108063 196.316498,263.508759 192.333832,260.595734 
z"/>
<path fill="#FDFDFD" opacity="1.000000" stroke="none" 
	d="
M373.009827,40.999336 
	C379.159271,40.999340 384.811157,40.987858 390.462982,41.007862 
	C391.788025,41.012554 393.152557,40.939735 394.430756,41.216904 
	C401.033295,42.648560 405.552094,47.644928 404.884399,52.635128 
	C404.056519,58.822517 398.727417,63.350002 391.942780,63.496620 
	C383.781372,63.672989 375.588318,64.044487 368.886322,57.932774 
	C364.032959,53.506840 360.681488,48.436417 360.664520,40.999336 
	C364.684357,40.999336 368.598297,40.999336 373.009827,40.999336 
z"/>
<path fill="#FDFDFD" opacity="1.000000" stroke="none" 
	d="
M673.927246,246.826752 
	C673.035828,241.539932 671.572083,236.650803 671.536438,231.751297 
	C671.427917,216.801102 671.102112,201.784546 672.310791,186.911621 
	C673.541321,171.769455 680.940735,159.183914 692.889221,148.939651 
	C704.355103,158.449783 713.211182,170.248123 714.510620,185.058029 
	C716.085388,203.005920 715.691650,221.230606 714.642883,239.247818 
	C714.279480,245.490295 710.311829,252.134186 706.408752,257.428650 
	C698.920044,267.586853 686.725098,267.004059 679.213623,256.789825 
	C677.081970,253.891266 675.721924,250.425385 673.927246,246.826752 
z"/>
<path fill="#FEFEFE" opacity="1.000000" stroke="none" 
	d="
M816.825317,230.682678 
	C816.212036,242.313141 813.022339,252.362213 804.451660,260.146606 
	C797.724182,266.256897 789.062317,265.973114 782.754150,259.311829 
	C777.229858,253.478195 773.050293,246.648239 772.624695,238.643311 
	C771.600952,219.391800 770.072021,200.033371 774.012207,180.924194 
	C776.648865,168.137054 783.649597,157.741165 793.374756,148.932968 
	C808.522888,161.820572 816.686646,177.854462 816.813416,197.729141 
	C816.882507,208.557678 816.825623,219.387039 816.825317,230.682678 
z"/>
<path fill="#FEFEFE" opacity="1.000000" stroke="none" 
	d="
M605.704712,257.680328 
	C596.700806,269.182770 583.489624,264.457367 577.725098,255.993652 
	C567.804993,241.428711 568.415405,218.235413 579.291077,204.436646 
	C586.360962,195.466476 597.233643,194.971069 605.130127,203.259232 
	C618.167419,216.943176 618.538391,241.414871 605.704712,257.680328 
z"/>
<path fill="#FFFFFF" opacity="1.000000" stroke="none" 
	d="
M572.048828,188.048126 
	C572.104858,188.990128 571.952209,189.755127 571.799561,190.520111 
	C571.640991,190.518570 571.482422,190.517014 571.323853,190.515472 
	C571.264160,189.728790 571.204468,188.942108 571.275513,187.846710 
	C571.550842,187.649017 571.695496,187.760071 572.048828,188.048126 
z"/>
<path fill="#FEFEFE" opacity="1.000000" stroke="none" 
	d="
M1212.846924,159.362457 
	C1213.847046,164.293091 1215.449097,168.840271 1215.488159,173.400864 
	C1215.635254,190.544724 1215.819580,207.720444 1214.958618,224.832367 
	C1213.944946,244.982529 1195.167969,263.381287 1174.862061,264.754639 
	C1166.426270,265.325165 1157.919556,264.849335 1149.022339,264.849335 
	C1148.937500,263.181946 1148.786987,261.594391 1148.786377,260.006744 
	C1148.773193,225.354752 1149.347656,190.688858 1148.505127,156.057358 
	C1148.151978,141.537964 1160.230591,126.626160 1179.937134,131.607925 
	C1195.276733,135.485672 1206.342529,144.417847 1212.846924,159.362457 
z"/>
</svg>