<svg enable-background="new 0 0 848 1024" viewBox="0 0 848 1024" xmlns="http://www.w3.org/2000/svg"><path d="m849 788.53241c-2.951721 2.288635-5.475525 4.788879-8.997925 5.695861-8.431457 2.17096-15.496521-.486877-20.822082-8.085144-1.420166-2.026245-2.609986-4.213867-4.268067-6.918884-5.59198 5.158386-10.272888 10.685242-14.79425 16.310364-1.822266 2.267212.07666 3.675476 2.223816 4.315124 3.666137 1.092286 7.383239 2.01233 11.062378 3.062806 11.093689 3.167419 13.973938 6.993713 13.970703 18.466308-.005493 19.66626-.174561 39.334351.047241 58.998047.14154 12.5401-5.754272 21.367859-16.780457 25.938721-22.283386 9.237549-44.751464 9.033874-66.736816-1.458008-2.546875-1.215515-4.305725-1.292664-6.862915-.040894-22.149841 10.841919-44.762634 10.63617-67.149231 1.241272-12.511291-5.250488-16.887329-16.154968-16.861389-29.247436.074829-37.832337.068664-75.664917-.00824-113.497193-.008484-4.179565 1.271057-5.794311 5.764038-5.733337 23.856812.323792 42.069519 17.780151 41.485535 40.207459-.059998 2.302551-.431641 4.666809-1.09845 6.869262-1.428772 4.719239-3.914245 8.494263-9.514892 8.861817-5.274292.346069-9.669434-2.219788-12.078003-7.171692-1.107605-2.277283-1.625611-4.702027-1.77472-7.230469-.164611-2.789856.434571-4.215759 3.872803-4.068665 4.893067.20929 7.86377-3.701477 6.804505-8.693481-1.249268-5.887878-4.755494-10.02179-11.317872-12.387756 0 11.990783-.002197 23.425659.00055 34.860534.005676 23.832764.019104 47.665528.019043 71.498291-.000061 12.449341 3.801819 17.589173 16.101013 19.894471 8.369018 1.568542 16.945557 1.548156 25.275574-.786683 9.227234-2.586303 13.102417-7.898376 13.106201-17.504455.007324-18.499573-.143738-37.001099.094787-55.49762.06836-5.301635-1.917907-8.553955-6.71405-10.368042-3.114014-1.177795-6.256531-2.297241-9.304321-3.63031-7.362122-3.220032-9.660889-8.796814-6.774109-16.267578 1.029846-2.665222 2.552612-5.06488 4.488831-7.163269 8.36145-9.062073 16.64215-18.202454 25.165832-27.109924 6.334717-6.619873 11.047974-5.935913 15.942505 1.921203 1.320373 2.11969 2.452942 4.355957 3.762817 6.482666 4.776734 7.755738 8.365357 8.294434 14.566895 2.239563 5.65802 5.467896 4.645813 14.588745-2.134766 19.237-7.218139 4.948181-16.631775 4.075378-22.938476-2.079468-2.88385-2.814453-4.846009-6.289917-7.110657-10.361023-5.939941 5.005493-10.483215 10.660217-14.91919 16.335266-1.714416 2.193299.294495 3.633911 2.443116 4.270752 4.148071 1.229614 8.351806 2.280152 12.469299 3.601929 9.698975 3.113464 12.605164 7.110962 12.609253 17.085693.008118 19.832886-.004334 39.665833.007202 59.498719.007324 12.566406 3.738525 17.569824 16.090332 20.017456 8.368286 1.658264 16.937012 1.635864 25.278626-.566773 9.354431-2.470032 13.108642-7.584595 13.119995-17.337768.021606-18.499573-.168152-37.00177.108215-55.497254.08551-5.722168-2.252197-8.722229-7.496399-10.028015-4.03363-1.004395-8.145325-1.792847-12.065613-3.13501-7.723571-2.644226-9.729553-8.178405-5.821411-15.347717 1.932007-3.544251 4.658814-6.497376 7.365906-9.435181 8.130005-8.822937 16.277527-17.630493 24.50293-26.364319 6.867492-7.291931 11.660949-6.677978 16.906494 1.971924 1.811401 2.987 3.431274 6.136841 5.585144 8.859131 3.741699 4.72937 6.980041 4.659546 10.882385.14325.690979-.799744 1.380371-1.423096 2.855347-1.394043.36499 5.345031.36499 10.700012.36499 16.522522z"/><path d="m76.850067 519.85022c-4.614044 4.606689-9.086479 8.861938-13.298572 13.36084-2.246354 2.399353-4.702954 3.401611-7.949387 3.232666-3.82296-.198914-7.679264-.260376-11.493347.01007-4.113804.291687-5.540959-1.230957-5.492718-5.393249.18541-15.997681.081883-31.998749.083405-47.998535.00119-12.499848-.272972-25.007996.1086-37.496155.199044-6.514404-1.945793-10.915466-7.936958-13.510376-2.133104-.92392-4.129532-2.184052-5.662922-4.022308-3.637415-4.360566-3.689804-10.83432.926296-15.492463 10.919026-11.018493 23.271477-20.436615 35.324394-30.158996 3.567456-2.877655 7.488507-1.575134 11.107289.886047 5.968773 4.059479 10.747467 9.460785 16.238525 14.056061 9.667107 8.089935 20.402947 11.796753 32.912201 8.23877 2.368309-.673645 4.710274-1.758423 6.781418-3.092774 4.46402-2.875854 5.950104-8.074463 3.78392-12.154938-2.105865-3.966858-7.40171-5.62149-12.183517-4.114318-2.669006.841186-4.23896 3.174133-6.590332 4.307708-5.176895-3.315796-7.207001-8.837219-5.261872-14.151336 1.977448-5.402344 8.535897-8.986084 15.132935-8.269135 11.237015 1.221191 19.164398 9.165894 20.88356 20.898254.184845 1.261445-.300461 2.708008.915283 3.725281 1.596482.351227 2.395859-.970825 3.458146-1.653259 16.207473-10.412781 33.587371-12.209351 51.719482-6.514832 15.463638 4.856415 24.918564 18.00412 24.960327 34.2388.096069 37.332489-.016907 74.66565.153961 111.99762.020233 4.424378-1.322586 6.036926-5.699173 5.662476-3.474762-.297181-7.010772-.276001-10.490722-.013489-4.283234.323303-5.69719-1.63324-5.386887-5.599915.155502-1.987976.033798-3.997863.033707-5.997802-.001572-34.499573.013031-68.999207-.03038-103.498719-.004609-3.656463.08879-7.39978-.617692-10.952789-2.366867-11.903412-12.811645-18.653686-26.410995-17.557739-11.865631.956207-20.08313 7.194183-25.740112 17.336792-4.20456 7.538513-4.609925 7.775818-12.92627 5.980072-1.799148-.388489-2.811371.230408-3.981186 1.236786-17.035354 14.656311-38.431656 11.736938-53.494018-.760865-5.768669-4.786468-11.512802-9.61325-17.059792-14.651031-2.282009-2.072571-3.979412-2.401245-6.328224-.24942-3.682926 3.373962-7.636128 6.452026-11.338852 9.805572-3.641411 3.298004-3.422367 4.84671.799046 7.673523 1.522335 1.019409 3.131092 1.910401 4.646106 2.939942 5.951969 4.044647 8.910485 9.575775 8.88345 16.883087-.086331 23.332702-.017044 46.665954-.008019 69.998993.000695 1.794006.000096 3.588012.000096 6.71289 5.547142-5.234649 10.199211-9.612884 14.837517-14.005706 3.14579-2.979279 6.398323-5.860138 9.366058-9.008454 2.228607-2.364227 3.885559-2.307983 6.205856-.055389 7.625031 7.402466 15.421814 14.627991 24.205643 22.914947 0-3.614349.000214-6.017608-.000031-8.420898-.001999-19.666382-.012581-39.332733-.002121-58.999115.004441-8.349701.02446-8.350586 8.122803-8.335114 2.999947.005768 6.002388.097229 8.999153.00412 3.319809-.103149 4.704376 1.105927 4.682038 4.697052-.154465 24.808441-.129578 49.618103-.125397 74.427368.000687 3.994873.10437 7.993958.308304 11.983521.20076 3.927917-1.167282 5.868774-5.455307 5.525085-3.808815-.305298-7.671494-.235656-11.491646-.011657-3.274391.191894-5.660935-.931397-7.915207-3.278504-7.719574-8.037536-15.602661-15.918091-23.529549-23.966247-4.847419 2.986816-7.75534 7.125244-11.678314 10.651184z"/><path d="m201.661072 953.999878c.004257-8.664978.06427-16.830566-.016754-24.99469-.028489-2.869446.882446-4.378784 4.018264-4.194824 11.894257.697448 23.54068 2.382385 34.098511 8.415588 5.171204 2.955078 9.505951 6.776001 11.667786 12.543579 2.718643 7.253052-.25325 13.337158-7.620423 15.727967-7.623687 2.473938-15.704193-.067078-18.940322-5.956055-2.585648-4.705383-1.290955-7.302307 3.963546-7.881287 1.867523-.20581 3.980942-.406189 4.565567-2.398559.72519-2.471497-1.525467-3.453003-3.227966-4.403565-2.153137-1.202087-4.393005-2.330871-7.785309-1.80011 0 6.241944-.003876 12.504822.000809 18.767701.00972 12.996215.182678 25.995178-.037995 38.987426-.094696 5.574402 2.25705 8.917603 7.432267 10.275391 13.310257 3.491821 26.670685 3.156311 39.954468-.097717 5.021545-1.230103 7.02005-4.62909 7.00769-9.993164-.130219-56.488343-.071381-112.977112-.086365-169.46576-.001922-7.261963-1.61795-9.351135-8.706116-11.275634-4.006317-1.087769-8.184417-1.646668-12.075424-3.032654-7.096908-2.527771-9.11441-7.666016-5.472458-14.207154 5.713593-10.261901 14.544403-17.695556 23.690583-24.707031 7.68283-5.889831 15.827758-11.055603 24.82016-14.81665 4.821991-2.016785 9.629058-2.432862 14.620208-.934876 19.837128 5.953247 37.092408 16.333191 52.132019 30.479615 5.759613 5.417602 8.386109 11.989563 8.338196 20.053588-.192077 32.325562-.153595 64.653321.018433 96.979126.02594 4.878296-1.158783 7.182434-6.440338 6.449036-2.943421-.408752-5.988709-.076172-8.988068-.091553-6.468597-.033081-6.577332-.138427-6.577301-6.840759.000244-30.160583-.139404-60.322327.11554-90.480835.063201-7.476318-2.531128-13.228027-7.921509-18.037353-11.263459-10.049378-24.288361-16.846985-38.73349-21.042115-2.124848-.617187-4.220398-.96698-6.355805-.094238-10.453766 4.272339-19.853271 10.147034-27.72406 18.318909-.896362.930725-1.94516 1.878601-1.740143 3.551391 1.209473 1.991761 3.494233 2.235657 5.498658 2.854065 2.859771.882202 5.804504 1.484802 8.685302 2.304016 10.75824 3.059327 14.194062 7.520203 14.196534 18.640564.012603 57.321778.002929 114.643555-.018464 171.965332-.004303 11.583496-4.043182 17.934815-15.100402 21.249512-21.896363 6.564087-44.151871 6.942261-65.925202-.025391-13.29422-4.254272-15.877151-10.551208-15.452759-21.304016.512177-12.976989.121979-25.989563.122132-39.486816z"/><path d="m525.082031 888.641235c2.126709 6.420472 6.903565 9.349793 12.578369 10.816407 9.169861 2.369873 18.503785 2.406738 27.695496.206482 9.762756-2.336853 13.61853-7.384461 13.65741-17.389954.07196-18.496887.031311-36.994324-.015442-55.491394-.016785-6.651367-1.403137-8.440979-7.840515-10.266235-4.155457-1.178284-8.498963-1.823731-12.507264-3.361817-7.09143-2.721313-8.652526-7.580017-5.161804-14.376648 1.617066-3.148498 3.859009-5.823608 6.245056-8.393249 8.955567-9.644898 17.812989-19.384095 26.913025-28.890747 5.780335-6.038636 10.414307-5.423951 14.929016 1.596984 1.800476 2.799927 3.259339 5.826661 5.144104 8.563904 4.439942 6.448242 8.101624 6.667053 13.459961 1.012146 5.913575 4.332642 5.100464 14.249939-1.553222 18.94336-7.611573 5.36914-17.75055 4.222168-24.059693-2.674805-2.489013-2.720947-4.240173-5.941895-6.462585-9.748108-5.683655 5.349426-10.64856 10.784119-14.968628 16.782471-1.429382 1.984741.324707 3.134948 1.96051 3.661865 3.636719 1.171448 7.338806 2.143066 11.025086 3.156799 11.601501 3.190613 14.893432 7.531678 14.88507 19.643006-.011718 16.997375-.462646 34.009399.089295 50.988647.745361 22.930115-9.47229 32.621277-29.603943 37.082947-16.58429 3.675415-33.061707 3.09021-49.113831-3.032593-12.782318-4.875671-19.610199-14.603027-19.637054-28.335449-.058075-29.662048-.013916-59.32428-.006805-88.98645.003021-12.625489-3.980591-17.937378-16.457734-20.286621-8.709991-1.640015-17.583374-1.695801-26.187347 1.143493-8.569855 2.828125-11.874237 7.297058-11.880859 16.217102-.026001 34.994141.004699 69.988343.031555 104.982483.000854 1.120239-.346008 2.334168.553161 3.315979 5.915284-1.672912 10.290162-6.568298 10.846833-12.125183.510559-5.096557-1.689331-8.092529-6.75174-8.239075-3.274139-.094665-4.014984-1.601074-3.910553-4.335998.265686-6.95752 6.569489-13.974854 13.385712-14.876221 6.768677-.89508 13.111298 3.628662 14.991791 11.16565 2.848175 11.415466-1.187897 21.16986-8.712769 29.355712-10.529266 11.454163-24.118469 16.152649-39.527008 15.876771-.629486-.011292-1.253082-.35315-1.799713-.51709-.974243-2.033264-.63797-4.064392-.638977-6.039246-.019409-38.494141-.023682-76.988342-.009369-115.482483.004852-13.084534 6.358398-22.689026 18.607727-27.357605 19.418671-7.401001 39.113525-7.513855 58.684601-.785583 13.970367 4.802795 20.351288 14.420715 20.353302 29.180603.00415 29.66217-.004822 59.324341.017761 88.986511.002014 2.65094-.304687 5.342895.752014 8.313232z"/><path d="m230.141205 38.128582c-11.667404 8.495075-20.177872 5.669308-32.258087-10.742559-5.482651 4.859411-10.118195 10.407236-14.569062 16.087709-1.690841 2.157925.181015 3.407112 2.024903 4.000965 3.638595 1.17186 7.355438 2.098412 11.025955 3.174015 11.542252 3.382328 14.565826 7.396019 14.593704 19.307968.029053 12.420098-1.16066 10.872345 10.945572 10.946488 12.160553.074486 24.323334.124412 36.481674-.052742 2.482361-.036171 6.011292 1.657097 7.16391-2.413529 1.456116-5.142387-.211609-10.485794-3.935455-12.418739-2.806275-1.45665-5.893952-2.175755-9.019776-2.784164-16.094696-3.132664-18.9514-11.041298-8.134491-23.207879 9.071442-10.20331 18.422669-20.164671 27.848359-30.043917 6.828674-7.157241 11.214386-6.483586 16.416839 2.079014 1.210083 1.991638 2.26471 4.078543 3.493408 6.057944 4.781067 7.70219 8.125245 8.224703 14.859253 2.184816 3.744751 3.523627 3.989991 7.94322 2.690918 12.352648-1.666565 5.65694-6.016357 8.672497-11.686035 9.603058-8.191772 1.344509-14.733337-1.40725-19.360596-8.40575-1.360992-2.05843-2.685607-4.140891-4.420623-6.820408-5.451477 5.360424-10.506195 10.541366-14.558441 16.550876-1.596741 2.367989.661621 3.569798 2.69458 4.18684 4.13742 1.255784 8.337158 2.311516 12.454773 3.626408 9.27182 2.960793 12.391296 7.190956 12.408386 16.840912.033935 19.157646.057373 38.315605-.01413 57.473061-.058075 15.551704-7.089111 25.566185-21.768127 30.443824-18.09758 6.013611-36.355881 5.993851-54.440064-.030365-15.08905-5.026489-21.946365-14.870834-21.999023-30.738029-.055283-16.658745-.022156-33.317795-.081406-49.976517-.027176-7.637604-1.183044-9.026199-8.604965-11.20742-4.140701-1.216912-8.531418-1.506092-12.485474-3.40976-5.970535-2.8745-7.721771-7.685619-4.787491-13.582611 1.869065-3.756183 4.52034-6.996528 7.353425-10.054691 8.489379-9.16384 16.994995-18.31349 25.579437-27.388113 6.35141-6.714104 11.028351-6.239505 15.905273 1.49931 1.508072 2.39308 2.748337 4.956432 4.281311 7.332055 4.653183 7.210902 7.94484 7.641129 14.008484 1.953436 5.338883 4.006419 5.399033 10.259613-.106918 17.575846m-19.214462 66.501629c-.095734 7.661499.066497 15.337067-.350098 22.981079-.568039 10.422829 4.048538 17.222725 14.131821 19.853554 7.538177 1.966797 15.28601 2.09761 22.826782.872925 14.481293-2.351868 18.891479-8.978333 18.230804-21.469964-.483368-9.139038-.277313-18.329628-.010742-27.486526.122955-4.223442-1.469452-5.521721-5.492187-5.472527-13.161927.160927-26.326783.089013-39.490509.090371-9.925049.001022-9.925049-.010086-9.845871 10.631088z"/><path d="m318.442444 522.441895c-10.063934 9.573547-22.040314 13.27893-35.261383 13.935485-3.54831.176209-4.619324-1.262146-4.604004-4.659179.111114-24.660523.03836-49.321839.1427-73.982453.034363-8.122955 4.712341-13.943268 10.561768-18.994598-1.755494-2.763641-4.497589-3.862122-6.577454-5.712128-4.683838-4.166107-8.450317-8.917419-10.715393-14.829529-1.859924-4.854644-1.208588-9.214202 2.420776-12.92044 6.877198-7.022766 13.746186-14.061066 20.844513-20.856964 4.306671-4.123261 8.070923-4.27179 13.07605-.781372 6.146851 4.286651 12.206787 8.714111 18.100952 13.339782 2.700806 2.119629 4.646912 1.831024 6.877472-.469604 3.710907-3.827393 7.447205-7.639588 11.341644-11.277436 5.90152-5.512695 10.751282-5.43872 16.595795.019257 3.165131 2.955841 6.292481 5.952576 9.480988 8.882843 2.708465 2.489075 5.242309 6.320831 8.689972 1.001587 5.189819 5.666321 5.312316 15.023285.768127 20.141449-3.824615 4.307709-9.828308 4.229217-16.250732-.230927-6.025696-4.184661-11.241181-9.325103-16.684571-14.781616-4.804718 3.698303-7.974456 8.450806-11.904022 12.42688-7.455444 7.543457-11.293426 7.919495-19.81488 1.41742-6.339051-4.836853-12.665833-9.689789-19.322693-14.783936-2.300018 2.115936-4.405548 3.954468-6.399414 5.907013-4.624329 4.528534-4.772614 5.833771-.252686 10.701782 8.906586 9.592438 18.957428 14.962006 33.115357 13.336243 14.284149-1.640228 28.616211.825836 41.229675 8.874512 8.042938 5.132324 12.231873 12.70697 12.30127 22.177856.17456 23.826599.038604 47.655396.143646 71.482819.01535 3.489685-1.32898 4.783569-4.732422 4.620605-3.657471-.175049-7.350433-.286255-10.990357.020508-4.558441.384155-6.050628-1.280884-6.007232-5.913818.206054-21.993073.090881-43.989167.088623-65.984162-.001618-15.404571-6.004303-21.655487-21.522278-22.249115-6.484314-.248077-12.979157-.507355-19.385986 1.046417-9.060334 2.197327-13.720826 7.354828-13.803589 16.329132-.170593 18.492402-.067932 36.987397-.046509 55.481324.001495 1.295532-.159485 2.688232.853973 3.780273 5.764618-1.039978 11.17389-7.354126 10.784546-12.919494-.278442-3.980408-1.836853-7.578705-6.549743-7.138215-4.724549.441559-4.513611-2.195221-4.064911-5.195556 1.283783-8.584656 8.647125-14.744538 16.23587-13.704071 8.442841 1.157501 13.94162 8.910339 12.88678 18.427795-1.022583 9.22638-4.429443 17.372864-11.650238 24.033631z"/><path d="m60.604134 78.912018c-.177079 25.072891-.255551 49.731323-.327629 74.389755-.020634 7.059723-.012135 7.059753-7.186543 7.069992-14.375252.020508-14.365765.020508-14.359222-14.400772.008159-17.996185.251083-35.997223-.095414-53.986771-.216507-11.240593.626652-21.776115 10.519715-28.728294-.371224-2.563969-2.211357-3.046406-3.421223-4.058632-4.498276-3.763485-8.941368-7.650635-11.558716-12.972961-4.322057-8.788822-3.428295-13.531765 2.746094-19.27982 6.215981-5.786772 12.00103-12.033542 18.099743-17.950066 5.288505-5.130514 8.531174-5.319089 14.530651-1.011325 5.953896 4.27503 11.872185 8.603668 17.70311 13.044019 2.45578 1.870118 4.316887 1.741831 6.444473-.52248 3.64933-3.883846 7.408676-7.677073 11.300247-11.317625 6.124703-5.729628 10.88646-5.66827 17.014633.064459 3.041176 2.844931 6.047913 5.735218 8.928635 8.740691 2.765305 2.88503 5.469711 5.199544 8.99646 1.262102 4.946274 4.761491 5.427338 13.914953 1.23352 19.277944-3.65924 4.679394-9.260772 5.161251-15.662605 1.189266-4.979759-3.08966-9.256676-7.063572-13.466415-11.109024-1.413384-1.358217-2.5205-3.126304-4.777909-3.777784-4.188423 3.229267-7.369697 7.523581-10.94786 11.432714-7.204727 7.871171-11.844216 8.279477-20.213112 1.857178-5.550141-4.259193-11.160401-8.442982-16.625939-12.808035-2.119983-1.693124-3.767677-1.796442-5.479652.376028-.511646.649273-1.17598 1.177718-1.766354 1.76554-7.203044 7.171899-7.422981 7.451307-.124263 14.489336 8.140487 7.849727 17.15113 12.983177 29.533546 11.18861 11.963295-1.733826 23.932022.548355 35.27626 4.89529 13.497849 5.172173 20.113099 15.181049 20.076447 29.669941-.056503 22.328339-.061035 44.657059.019424 66.985245.015122 4.196457-1.472549 6.117996-5.893631 5.731369-3.472885-.303726-7.012817-.299408-10.487571-.008774-4.473656.374176-5.7332-1.546127-5.708458-5.799072.134758-23.160904-.345078-46.332413.199058-69.481171.302201-12.856071-6.655456-17.736954-17.237892-19.816834-8.989197-1.76675-17.911224-1.478542-26.579971 1.621521-5.472031 1.956872-9.479351 5.49955-10.701637 11.97844z"/><path d="m185.01004 779.685913c2.916291 1.161255 5.033585 2.638184 5.735077 5.641113-1.608383 1.890564-4.963959 2.387024-4.536636 5.91156.436798 3.602784 2.492874 5.351502 5.904877 5.575501 3.977218.261108 6.776824-1.232361 7.571609-5.519775 1.984787-10.707276-4.715454-19.588746-16.78688-21.77179-5.266236-.952393-10.652726-.906677-15.912018.22168-12.484574 2.678711-19.085205 10.075988-21.025421 25.1557-1.816681 14.119568.682037 27.571656 9.625351 39.189576 3.311645 4.302001 7.630249 7.429809 12.801635 9.235778 2.930863 1.023499 5.081299.647827 5.97168-2.958923 4.34613-17.60498 27.829422-21.658264 40.391769-14.082886 8.735596 5.267761 9.526474 17.309632 1.503067 23.691101-4.591598 3.651917-10.034301 5.298645-15.821014 5.304444-3.884689.003845-5.300354 1.413513-5.193314 5.321106.218979 7.993835.062394 15.997985.061295 23.997863-.002472 18.200013-8.253403 26.879822-26.540924 27.866333-6.557205.35376-13.002487-.245666-19.039017-3.045044-9.164093-4.249694-14.206482-11.234558-14.035675-21.605773.074097-4.49878.118149-9.002442-.008545-13.498658-.086914-3.0849.954285-4.690857 4.276779-4.598694 4.329697.120118 8.667237.093262 12.998108-.00946 3.221207-.076355 4.445145 1.395569 4.392395 4.539978-.097839 5.831177-.11087 11.669373.068024 17.49762.117386 3.825073 1.242218 7.322326 5.327652 8.789245 5.659027 2.032044 10.519211-.943176 10.743927-7.345642.403137-11.485229.143036-22.994018.15007-34.49292.002152-3.532654-2.616623-3.197937-4.945984-3.352783-11.192001-.744018-20.992157-4.672851-29.232055-12.456177-15.335747-14.486023-20.554627-45.534607-10.398316-62.484619 6.633454-11.070617 17.239441-16.305542 29.068268-19.614136 14.03978-3.927063 28.249908-4.646972 42.448349-1.047607 14.854141 3.765686 22.823364 14.664551 20.798401 27.855957-1.426026 9.289612-8.777039 15.889221-20.723831 18.050354-9.466034 1.71228-18.322373.167542-25.524933-6.757935-4.151703-3.991882-5.150284-9.806213-2.895569-14.184631 2.195679-4.263733 6.137207-5.887329 12.781799-5.017456m22.390229 55.010315c-8.518174-1.221191-11.705811 1.218445-11.531022 9.071899 3.447068.598145 6.926011.383667 10.22995-.66809 4.619614-1.470581 5.164673-4.135437 1.301072-8.403809z"/><path d="m66.818298 750.834229c1.546296-10.423951 10.824166-14.496583 19.295853-8.859253 5.415878 3.60382 7.632294 9.13031 8.563248 15.2052 1.834724 11.972351.585449 23.424438-7.906548 32.794006-9.828644 10.844299-24.051975 9.426087-32.116199-2.787414-1.074925-1.62793-1.542332-3.690674-3.755009-5.181397-2.402649 4.631409-4.807465 9.135925-7.083103 13.704773-1.284458 2.578796.364315 3.650391 2.541229 4.276306 4.156887 1.19513 8.3605 2.24469 12.470299 3.583252 9.781986 3.185913 12.489902 6.967835 12.492725 17.104798.00798 28.655334-.106911 57.311523.122109 85.965087.039871 4.987976-1.492035 6.217591-6.266129 5.825318-16.808952-1.380921-31.046707-7.289612-40.46228-22.024903-3.963942-6.203491-5.681864-13.09143-4.983483-20.491943.778408-8.248352 7.322602-14.469238 14.773583-14.069397 7.429344.39856 14.32045 7.785706 14.383781 15.419129.018914 2.280151-.636249 3.642578-3.366581 3.860473-5.738849.458008-7.81224 3.194946-7.162906 8.758911.591453 5.068116 4.964462 9.836121 10.436943 11.33313 1.419525-1.340027.858257-3.111206.861068-4.692749.038231-21.490906-.086666-42.982849.108635-64.472046.043267-4.760132-1.809818-7.628418-6.057117-9.125549-2.81704-.993042-5.715057-1.765442-8.597176-2.563049-12.033016-3.330079-13.847562-7.312317-7.652349-18.283204 4.500547-7.96997 9.512133-15.652221 14.3286-23.442504 1.749252-2.829224 3.358253-5.790345 5.440578-8.359558 5.274823-6.508179 10.255944-6.070801 14.434468 1.101745 1.759372 3.019959 3.199775 6.235718 5.084816 9.170044 2.33731 3.638428 5.513343 5.667114 10.153267 4.34375 4.711555-1.343933 6.757637-4.506592 6.81501-9.210815.014221-1.16565.049316-2.335816-.026627-3.497254-.545105-8.336548-4.541855-10.545288-11.792618-6.315307-3.219063-1.939881-4.228798-5.241578-5.078087-9.06958z"/><path d="m210.2314 234.880051c.153793 3.288986-.284607 6.139099.759811 8.880676 1.76387 4.630127 5.101959 5.371628 8.153656 1.524216 2.055313-2.591217 3.604904-5.581101 5.410324-8.37349 3.451508-5.338409 8.001297-9.419296 14.138229-11.287185 3.293091-1.002335 4.247162-2.810502 4.295899-6.154831.145325-9.969834-1.029312-19.998429.67926-29.902466 1.46875-8.514008 6.756821-13.899048 14.943848-16.365433 4.486419-1.351547 5.698395-.385391 5.717315 4.354904.053132 13.318177.138215 26.638092-.033325 39.954163-.050323 3.905517 1.279236 5.573379 5.188416 5.189697 1.144226-.112305 2.341919.002518 3.480804.205704 6.734162 1.201324 13.333649 2.94223 15.807739 10.340729 2.706238 8.092743.909974 15.630584-4.946594 21.713073-10.351532 10.750794-24.061035 11.837098-37.855804 12.179261-3.082443.076446-3.019028-2.567658-3.032715-4.750489-.039673-6.325958.024719-12.652725-.042481-18.978225-.018737-1.763657.475388-3.658707-.974136-5.519013-4.798859.811569-7.72464 4.202133-10.09111 7.998825-2.545929 4.084534-4.572601 8.4888-6.95224 12.681824-3.186905 5.615448-7.746201 9.119812-14.546784 8.6828-7.059265-.453644-12.650863-3.69281-15.386047-10.213196-5.141693-12.257278-5.438034-24.921707-1.012482-37.457656 1.707978-4.838105 5.296006-8.43721 10.352875-10.1913 4.481583-1.554519 5.842392-.683197 5.906632 4.030899.095276 6.990845.031341 13.983872.03891 21.456513m63.114944 1.276779c-1.734161-.531326-3.442139-1.188294-5.210327-1.556183-1.552368-.323013-3.432648-.017441-3.50708 1.818649-.222595 5.49083-.080017 10.996475-.080017 16.688584 3.953888-.64058 6.072113-2.528946 7.975555-4.588227 3.771607-4.080368 4.171387-7.910583.821869-12.362823z"/><path d="m90.347443 712.695007c6.067237 7.576477 10.792961 15.428955 13.127815 25.832459-6.822876 0-12.915207.014587-19.007446-.002747-19.132691-.05426-38.266606-.008301-57.397549-.223449-11.870916-.133484-19.92754-6.75232-21.30104-16.975525-1.462378-10.884705 2.994622-20.402771 12.996024-25.287781 18.877037-9.220276 37.425034-6.796082 55.405423 2.937317 6.215347 3.364502 11.323341 8.142822 16.176773 13.719726m-20.986023 3.4823c-10.318009-11.414795-24.582772-15.61322-36.340348-10.695618-5.483312 2.293396-9.134929 7.299134-8.539072 11.705567.653756 4.834534 4.884875 9.017029 10.967749 9.273376 12.623531.531922 25.274914.638062 37.908306-.091613.22358-.01294.422196-.457886.848915-.951783-1.02581-3.009033-2.399727-5.991394-4.84555-9.239929z"/><path d="m280.863831 330.107697c5.835968-9.68686 14.866149-13.835053 25.055877-15.071198 32.914734-3.992981 58.607147 13.63031 69.210388 43.342682.32248.903747.325287 1.921539.456177 2.752869-1.49588 1.674713-3.26535 1.178833-4.83963 1.181091-23.289886.033447-46.580963.154388-69.869476-.030304-18.746918-.148682-27.903351-14.779846-20.013336-32.17514m39.650848 20.594787h25.910461c-.058105-4.042877-1.708953-6.506286-3.359008-8.942444-8.715149-12.867248-27.12851-18.148559-39.589661-11.39917-4.365723 2.364594-6.576965 5.875489-6.213348 10.945252.340393 4.74588 3.498321 6.846344 7.45343 8.297302 4.833587 1.773224 9.859619.881775 15.798126 1.09906z"/><path d="m530.081543 680.878418c8.834839 1.067993 12.450806 4.208557 13.932495 11.5224.535095 2.641052.146179 4.411621-2.786072 5.363037-4.425354 1.435852-7.741943 4.280518-7.755981 9.276855-.014038 5.012513 2.497192 8.946228 6.852173 11.43042 7.197448 4.10553 14.618164 4.380249 21.838196.19458 6.575317-3.812011 8.986633-9.918273 8.542602-17.333007-.412781-6.893616-3.823669-11.677002-10.350403-13.778077-3.428467-1.103698-3.999817-2.73114-2.937378-5.908081 2.215027-6.623779 6.545716-10.766235 13.469239-11.786499 6.67749-.984008 12.907714 2.572876 16.450378 9.003113 9.640808 17.498535 1.565857 41.627564-16.958618 49.936096-13.598328 6.09906-27.469666 6.095154-41.16449.259278-12.186218-5.192871-18.91629-17.124451-17.458496-30.19867 1.06958-9.592834 7.334045-15.877441 18.326355-17.981445z"/></svg>