<svg enable-background="new 0 0 1912 674" viewBox="0 0 1912 674" xmlns="http://www.w3.org/2000/svg"><path d="m1243 675c-414.333313 0-828.166656 0-1242 0 0-224.666656 0-449.333328 0-674h1912v674c-223.166626 0-446.333374 0-670 0m326.5-183.999237h145.827393c-14.740357 8.259338-29.635621 15.730682-43.638428 24.609711-48.932495 31.028015-97.558106 62.539917-146.296631 93.873718-8.508667 5.470337-16.99939 10.96875-25.636719 16.543457 5.157471 8.683289 10.231446 16.872497 14.908203 25.282532 1.749634 3.14624 3.661011 4.289856 7.344361 4.285339 97.162842-.119812 194.325805-.095093 291.488769-.095093h5.348145c0-165.925293 0-331.221191 0-496.758941-18.916382 0-37.677735 0-56.856568 0v299.524658c-58.485107 0-116.552856 0-175.512207 0 1.926026-2.277344 3.369995-4.008087 4.838623-5.717743 8.983399-10.457337 15.974366-22.096405 20.796387-35.024048 8.340943-22.362183 10.378418-45.490967 6.498169-68.835541-4.006103-24.100616-15.060547-44.515564-34.944824-59.683105-17.638306-13.454315-37.781983-20.206696-59.453858-22.489075-29.664794-3.124176-58.502319.057404-84.000732 16.877197-32.0448 21.138001-49.083252 50.423584-45.184082 89.9068.927978 9.396789 3.33667 18.322235 9.069336 26.054931 6.369995 8.59256 20.748657 11.969849 30.781982 7.188568-4.124023-12.535125-6.532837-25.362793-5.7677-38.648651 1.185913-20.5979 7.550415-38.947479 24.120972-52.313751 13.009033-10.493561 28.537231-13.74649 44.888916-14.029571 31.561035-.546357 55.659302 16.585845 64.35791 45.853118 3.571289 12.015748 3.536133 24.269288 2.62854 36.643372-1.945679 26.523041-10.560059 50.299072-28.071045 70.627045-2.344482 2.72171-4.687622 3.929687-8.434082 3.922516-70.163574-.134247-140.327759-.098694-210.491699-.098694-1.959351 0-3.918701 0-5.821533 0v32.501251zm-1125.684326-28.335419c8.758209 10.372132 19.463074 18.069367 31.937988 23.379822 17.416382 7.413879 35.635742 9.189911 54.321106 7.983551 25.982849-1.67749 48.584351-10.685242 66.124573-30.538666 4.682861-5.300445 8.985962-10.936401 13.601684-16.587738 1.696534 2.141602 3.354981 4.217652 4.994996 6.308075 14.357788 18.30072 32.863586 30.462372 55.147583 36.810456 19.04541 5.425506 38.436096 5.7807 57.920715 2.928344 33.318909-4.877563 60.196045-20.452606 79.478149-48.385956 15.776795-22.855407 23.523804-48.71939 27.634583-75.800323 1.640991-10.810913 2.272583-21.775086 3.468628-33.717499 10.036621 1.010834 20.01593 1.399597 29.763488 3.109406 33.608216 5.895233 50.717041 22.484588 55.30188 53.372436 1.625733 10.952484 1.314942 21.974549-2.240905 32.621521-7.723084 23.12497-25.318055 33.253449-48.240357 35.772461-6.534668.718079-13.215088.109833-19.926514.109833.221619 9.2518 3.354981 16.663879 9.75232 22.708191 8.876282 8.386505 19.697388 11.329803 31.555237 11.541931 28.227234.505005 51.925842-9.091248 69.297363-31.878265 12.585815-16.509308 17.461487-35.734742 17.569214-56.211853.172424-32.777436-13.13031-58.625123-40.635437-76.739686-20.336609-13.393463-43.17511-19.763854-67.090393-22.454437-11.858948-1.334228-23.82312-1.733001-36.080567-2.578491-.166931-1.722321-.342285-3.514069-.514038-5.306152-2.52362-26.326172-7.387878-52.070237-19.139709-76.066971-11.296692-23.067444-27.660523-41.422119-50.403321-53.763245-19.078491-10.352752-39.808044-13.970794-61.172729-14.178116-31.769898-.308273-59.903381 9.17949-82.995789 31.862885-21.837646 21.450745-33.431457 48.21701-40.104797 77.378723-3.028076 13.232361-4.606079 26.79657-6.864563 40.346283-9.648926.732727-19.612122 1.24054-29.5177 2.290649-24.649964 2.61316-48.585846 7.941681-70.83252 19.423493-17.443573 9.002869-32.517212 20.947449-40.911499 38.917419-15.687225 33.582184-13.491119 66.167603 8.801331 97.341919m-305.119827-261.499664c24.34201-8.04776 49.428787-9.632904 74.464813-5.847656 54.105789 8.180298 89.376541 43.685745 101.735184 96.018676 7.128479 30.18573 6.711273 60.620667 1.313385 91.114563-6.872864 38.826233-23.967499 72.045014-53.136017 98.82367-3.386505 3.10907-6.840363 6.144836-11.012055 9.886444 3.152115 1.153503 5.37146 2.127106 7.680786 2.784607 15.267945 4.34732 29.887482 1.276367 43.611328-5.318146 29.817902-14.328003 48.320313-39.105316 60.470398-68.949798 12.828278-31.510437 16.657685-64.452668 14.417695-98.321656-1.89795-28.696838-9.214112-55.705902-23.406922-80.729965-21.354156-37.650589-52.991943-62.723862-94.089447-75.893265-25.627548-8.212173-51.872192-10.803146-78.764847-9.024307-24.54367 1.623459-47.981384 6.996689-70.262794 17.340561-31.439491 14.595383-56.083428 36.760864-73.539215 66.748062-16.724423 28.730789-23.565356 60.23378-25.025549 93.031204-1.287615 28.921143 2.850149 57.104462 14.020641 83.981537 9.842528 23.681885 23.892737 44.29538 45.668375 58.622956 30.532662 20.089385 63.915947 23.292694 98.668602 14.79425 25.883286-6.329559 45.733963-21.296448 57.944687-45.253296 11.678375-22.912384 14.256149-47.268524 9.164475-72.362244-4.023026-19.827087-13.403733-37.02005-28.526703-50.406951-22.943085-20.309266-50.258011-26.999695-80.323349-23.281159-27.598816 3.413483-49.698891 17.060364-67.941674 37.43808-5.355411 5.982178-10.072246 12.536041-14.973987 18.692535 0-9.567901-.391167-19.018493.076938-28.42633 1.174233-23.599457 7.088536-46.019806 18.665879-66.684326 16.287094-29.071045 40.732299-48.280396 73.099373-58.778046m1108.746536 11.908096c-15.374024-23.80043-35.612305-41.722931-62.737549-50.929291-21.469971-7.286911-43.454956-8.683792-65.936768-5.319122-33.473754 5.009705-60.587158 20.469742-80.285278 48.060181-11.440185 16.023681-18.734375 33.695404-17.621826 53.983963.499023 9.099182 6.115112 16.92218 13.779419 18.84079 3.46289.866912 5.667358.621124 6.750366-3.878479 3.439941-14.292725 8.754028-27.878815 16.447388-40.539063 18.961303-31.203277 53.04187-47.285461 88.532348-41.090774 21.972046 3.835128 38.306519 16.193359 50.041748 34.865493 14.554078 23.157257 20.601807 49.051941 22.238282 75.816498 1.862304 30.46106 1.021972 60.884155-8.654053 90.389954-5.095337 15.537384-12.016968 30.073639-23.226318 42.063171-15.586304 16.670807-35.114014 23.570618-57.90625 22.905274-27.392945-.799561-48.822388-12.259156-65.314331-33.811066-11.248536-14.699524-18.066895-31.379883-22.214112-49.213379-.969726-4.169952-2.631347-4.594666-6.215454-3.456177-6.364136 2.021515-11.348755 5.914521-12.543335 12.349366-1.283447 6.913635-2.451843 14.460327-1.021179 21.165527 8.386047 39.302521 32.914001 65.137482 69.456238 80.248962 22.283691 9.215149 45.582275 10.381836 69.161621 7.507904 34.052368-4.150482 61.247803-20.489196 81.423584-48.032318 22.657837-30.931671 32.140014-66.536896 34.306152-104.199493 1.10669-19.241455.623413-38.540283-2.804931-57.707489-4.410523-24.658325-12.072388-48.007004-25.655762-70.020432m558.055786-85.074135c12.993896-1.663551 26.358887-1.933754 38.905762-5.275764 27.557251-7.340286 47.190918-24.099968 54.249878-52.809807 3.776367-15.358646 3.92041-30.727962-4.374146-45.045727-7.230469-12.480693-24.61792-17.892625-35.811157-11.13677 5.351196 10.741209 6.355957 22.226946 5.503174 34.018435-1.494873 20.669647-12.745972 35.910057-31.701172 41.543136-6.767456 2.011147-14.029053 3.002541-21.104126 3.226097-34.676026 1.095696-56.118653-19.320594-56.392944-53.938877-.067261-8.487264 1.89685-16.990623 2.95166-25.690018-12.369019-5.87425-34.320557-.934614-45.571289 10.270411-12.641846 12.590464-14.376587 27.957594-11.657593 44.394571 3.997436 24.165909 18.712402 39.81102 40.55957 49.300499 20.218384 8.781914 41.71106 10.767327 64.442383 11.143814z" fill="#fff"/><path d="m1569 491.000763c-85.808105 0-171.116211 0-256.712402 0 0-10.797852 0-21.38443 0-32.501251h5.821533c70.16394 0 140.328125-.035553 210.491699.098694 3.74646.007171 6.0896-1.200806 8.434082-3.922516 17.510986-20.327973 26.125366-44.104004 28.071045-70.627045.907593-12.374084.942749-24.627624-2.62854-36.643372-8.698608-29.267273-32.796875-46.399475-64.35791-45.853118-16.351685.283081-31.879883 3.53601-44.888916 14.029571-16.570557 13.366272-22.935059 31.715851-24.120972 52.313751-.765137 13.285858 1.643677 26.113526 5.7677 38.648651-10.033325 4.781281-24.411987 1.403992-30.781982-7.188568-5.732666-7.732696-8.141358-16.658142-9.069336-26.054931-3.89917-39.483216 13.139282-68.768799 45.184082-89.9068 25.498413-16.819793 54.335938-20.001373 84.000732-16.877197 21.671875 2.282379 41.815552 9.03476 59.453858 22.489075 19.884277 15.167541 30.938721 35.582489 34.944824 59.683105 3.880249 23.344574 1.842774 46.473358-6.498169 68.835541-4.822021 12.927643-11.812988 24.566711-20.796387 35.024048-1.468628 1.709656-2.912597 3.440399-4.838623 5.717743h175.512207c0-99.827088 0-199.583405 0-299.524658h56.856568v496.758941c-1.814209 0-3.581177 0-5.348145 0-97.162964 0-194.325927-.024719-291.488769.095093-3.68335.004517-5.594727-1.139099-7.344361-4.285339-4.676757-8.410035-9.750732-16.599243-14.908203-25.282532 8.637329-5.574707 17.128052-11.07312 25.636719-16.543457 48.738525-31.333801 97.364136-62.845703 146.296631-93.873718 14.002807-8.879029 28.898071-16.350373 43.638428-24.609711-48.540528 0-97.18396 0-146.327393 0m11.461182 132.912567h187.359985c0-45.138733 0-88.868774 0-133.141266-71.517822 44.032868-138.911865 93.794098-211.349854 133.16452 7.023194 0 15.01233 0 23.989869-.023254z" fill="#010101"/><path d="m443.599426 462.382751c-22.076202-30.891723-24.272308-63.477142-8.585083-97.059326 8.394287-17.96997 23.467926-29.91455 40.911499-38.917419 22.246674-11.481812 46.182556-16.810333 70.83252-19.423493 9.905578-1.050109 19.868774-1.557922 29.5177-2.290649 2.258484-13.549713 3.836487-27.113922 6.864563-40.346283 6.67334-29.161713 18.267151-55.927978 40.104797-77.378723 23.092408-22.683395 51.225891-32.171158 82.995789-31.862885 21.364685.207322 42.094238 3.825364 61.172729 14.178116 22.742798 12.341126 39.106629 30.695801 50.403321 53.763245 11.751831 23.996734 16.616089 49.740799 19.139709 76.066971.171753 1.792083.347107 3.583831.514038 5.306152 12.257447.84549 24.221619 1.244263 36.080567 2.578491 23.915283 2.690583 46.753784 9.060974 67.090393 22.454437 27.505127 18.114563 40.807861 43.96225 40.635437 76.739686-.107727 20.477111-4.983399 39.702545-17.569214 56.211853-17.371521 22.787017-41.070129 32.38327-69.297363 31.878265-11.857849-.212128-22.678955-3.155426-31.555237-11.541931-6.397339-6.044312-9.530701-13.456391-9.75232-22.708191 6.711426 0 13.391846.608246 19.926514-.109833 22.922302-2.519012 40.517273-12.647491 48.240357-35.772461 3.555847-10.646972 3.866638-21.669037 2.240905-32.621521-4.584839-30.887848-21.693664-47.477203-55.30188-53.372436-9.747558-1.709809-19.726867-2.098572-29.763488-3.109406-1.196045 11.942413-1.827637 22.906586-3.468628 33.717499-4.110779 27.080933-11.857788 52.944916-27.634583 75.800323-19.282104 27.93335-46.15924 43.508393-79.478149 48.385956-19.484619 2.852356-38.875305 2.497162-57.920715-2.928344-22.283997-6.348084-40.789795-18.509736-55.147583-36.810456-1.640015-2.090423-3.298462-4.166473-4.994996-6.308075-4.615722 5.651337-8.918823 11.287293-13.601684 16.587738-17.540222 19.853424-40.141724 28.861176-66.124573 30.538666-18.685364 1.20636-36.904724-.569672-54.321106-7.983551-12.474914-5.310455-23.179779-13.00769-32.154236-23.662415m296.900635-126.975708c-43.109741 0-86.219421 0-129.289856 0-.205383.977509-.410278 1.457703-.390076 1.928223 1.126648 26.223694 6.242981 51.531403 18.018433 75.164002 7.962952 15.981262 19.169739 29.074127 35.09613 37.825256 13.223816 7.266083 27.382264 8.640808 42.083252 7.771393 25.658509-1.517456 45.194397-13.051331 57.209595-35.850891 14.220642-26.984497 16.211487-56.543061 17.057739-86.837586-13.196838 0-25.990966 0-39.785217-.000397m25.972351-102.321014c-9.782287-22.005249-25.660522-36.697174-49.97229-40.663483-27.511597-4.488342-52.196289 1.387177-71.613525 22.38115-23.337952 25.233062-30.438599 56.762008-33.74762 89.926773h168.611939c-.983765-24.468323-3.531739-48.325775-13.278504-71.64444m-219.208435 226.833588c5.247925-2.03479 10.810181-3.504364 15.6828-6.21402 12.876282-7.160462 20.874817-18.678711 27.000306-31.760132 1.874633-4.003509 1.783203-7.433563.583313-11.786804-4.317017-15.661499-8.236573-31.460358-11.506714-47.371674-1.792603-8.721679-1.983216-17.772613-3.039246-28.070251-12.678467 1.814972-25.409485 2.999969-37.84906 5.586639-14.144165 2.941132-27.319 8.686157-37.983154 18.843872-16.577515 15.790253-20.656037 35.843048-18.623566 57.64682.935486 10.035614 3.564819 19.71753 10.186005 27.69278 14.639129 17.632934 34.170593 18.453278 55.549316 15.43277z" fill="#c47034"/><path d="m138.321594 201.301651c-31.992821 10.361679-56.438026 29.57103-72.72512 58.642075-11.577343 20.66452-17.491646 43.084869-18.665879 66.684326-.468105 9.407837-.076938 18.858429-.076938 28.42633 4.901741-6.156494 9.618576-12.710357 14.973987-18.692535 18.242783-20.377716 40.342858-34.024597 67.941674-37.43808 30.065338-3.718536 57.380264 2.971893 80.323349 23.281159 15.12297 13.386901 24.503677 30.579864 28.526703 50.406951 5.091674 25.09372 2.5139 49.44986-9.164475 72.362244-12.210724 23.956848-32.061401 38.923737-57.944687 45.253296-34.752655 8.498444-68.13594 5.295135-98.668602-14.79425-21.775638-14.327576-35.825847-34.941071-45.668375-58.622956-11.170492-26.877075-15.308256-55.060394-14.020641-83.981537 1.460193-32.797424 8.301126-64.300415 25.025549-93.031204 17.455787-29.987198 42.099724-52.152679 73.539215-66.748062 22.28141-10.343872 45.719124-15.717102 70.262794-17.340561 26.892655-1.778839 53.137299.812134 78.764847 9.024307 41.097504 13.169403 72.735291 38.242676 94.089447 75.893265 14.19281 25.024063 21.508972 52.033127 23.406922 80.729965 2.23999 33.868988-1.589417 66.811219-14.417695 98.321656-12.150085 29.844482-30.652496 54.621795-60.470398 68.949798-13.723846 6.594513-28.343383 9.665466-43.611328 5.318146-2.309326-.657501-4.528671-1.631104-7.680786-2.784607 4.171692-3.741608 7.62555-6.777374 11.012055-9.886444 29.168518-26.778656 46.263153-59.997437 53.136017-98.82367 5.397888-30.493896 5.815094-60.928833-1.313385-91.114563-12.358643-52.332931-47.629395-87.838378-101.735184-96.018676-25.036026-3.785248-50.122803-2.200104-74.839066 5.983627m41.257813 226.701218c7.286972-15.680878 8.307815-32.098084 4.995453-48.772766-3.585816-18.051209-13.229645-32.083832-30.435868-39.450531-18.24295-7.810547-36.722221-7.16568-54.515381 1.876281-20.79824 10.569001-34.679748 28.111084-46.538581 47.50296-.693524 1.134064-.544251 3.289399.032314 4.612305 3.778557 8.669983 6.818798 17.863495 11.893436 25.729096 15.460038 23.962829 36.109269 39.821472 66.429802 38.651184 21.492157-.82959 38.044968-9.621186 48.138825-30.148529z" fill="#cdb592"/><path d="m1247.636475 213.381027c13.389282 21.706177 21.051147 45.054856 25.46167 69.713181 3.428344 19.167206 3.911621 38.466034 2.804931 57.707489-2.166138 37.662597-11.648315 73.267822-34.306152 104.199493-20.175781 27.543122-47.371216 43.881836-81.423584 48.032318-23.579346 2.873932-46.87793 1.707245-69.161621-7.507904-36.542237-15.11148-61.070191-40.946441-69.456238-80.248962-1.430664-6.7052-.262268-14.251892 1.021179-21.165527 1.19458-6.434845 6.179199-10.327851 12.543335-12.349366 3.584107-1.138489 5.245728-.713775 6.215454 3.456177 4.147217 17.833496 10.965576 34.513855 22.214112 49.213379 16.491943 21.55191 37.921386 33.011505 65.314331 33.811066 22.792236.665344 42.319946-6.234467 57.90625-22.905274 11.20935-11.989532 18.130981-26.525787 23.226318-42.063171 9.676025-29.505799 10.516357-59.928894 8.654053-90.389954-1.636475-26.764557-7.684204-52.659241-22.238282-75.816498-11.735229-18.672134-28.069702-31.030365-50.041748-34.865493-35.490478-6.194687-69.571045 9.887497-88.532348 41.090774-7.69336 12.660248-13.007447 26.246338-16.447388 40.539063-1.083008 4.499603-3.287476 4.745391-6.750366 3.878479-7.664307-1.91861-13.280396-9.741608-13.779419-18.84079-1.112549-20.288559 6.181641-37.960282 17.621826-53.983963 19.69812-27.590439 46.811524-43.050476 80.285278-48.060181 22.481812-3.36467 44.466797-1.967789 65.936768 5.319122 27.125244 9.20636 47.363525 27.128861 62.931641 51.236542z" fill="#cdb592"/><path d="m1805.000854 128.000107c-22.234008-.376953-43.726684-2.362366-63.945068-11.14428-21.847168-9.489479-36.562134-25.13459-40.55957-49.300499-2.718994-16.436977-.984253-31.804107 11.657593-44.394571 11.250732-11.205025 33.20227-16.144661 45.571289-10.270411-1.05481 8.699395-3.018921 17.202754-2.95166 25.690018.274291 34.618283 21.716918 55.034573 56.392944 53.938877 7.075073-.223556 14.33667-1.21495 21.104126-3.226097 18.9552-5.633079 30.206299-20.873489 31.701172-41.543136.852783-11.791489-.151978-23.277226-5.503174-34.018435 11.193237-6.755855 28.580688-1.343923 35.811157 11.13677 8.294556 14.317765 8.150513 29.687081 4.374146 45.045727-7.05896 28.709839-26.692627 45.469521-54.249878 52.809807-12.546875 3.34201-25.911866 3.612213-39.403077 5.27623z" fill="#020202"/><path d="m1579.967041 623.924927c-8.483398.011657-16.472534.011657-23.495728.011657 72.437989-39.370422 139.832032-89.131652 211.349854-133.16452v133.141266c-62.531372 0-124.945679 0-187.854126.011597z" fill="#fefefe"/><path d="m741.000122 335.407227c13.29419.000213 26.088318.000213 39.285156.000213-.846252 30.294525-2.837097 59.853089-17.057739 86.837586-12.015198 22.79956-31.551086 34.333435-57.209595 35.850891-14.700988.869415-28.859436-.50531-42.083252-7.771393-15.926391-8.751129-27.133178-21.843994-35.09613-37.825256-11.775452-23.632599-16.891785-48.940308-18.018433-75.164002-.020202-.47052.184693-.950714.390076-1.928223 43.070435 0 86.180115 0 129.789917.000184z" fill="#fffefd"/><path d="m766.644104 233.426315c9.575073 22.978379 12.123047 46.835831 13.106812 71.304154-56.260926 0-112.161377 0-168.611939 0 3.309021-33.164765 10.409668-64.693711 33.74762-89.926773 19.417236-20.993973 44.101928-26.869492 71.613525-22.38115 24.311768 3.966309 40.190003 18.658234 50.143982 41.003769z" fill="#fffffe"/><path d="m546.842346 459.990387c-20.957092 2.949738-40.488556 2.129394-55.127685-15.50354-6.621186-7.97525-9.250519-17.657166-10.186005-27.69278-2.032471-21.803772 2.046051-41.856567 18.623566-57.64682 10.664154-10.157715 23.838989-15.90274 37.983154-18.843872 12.439575-2.58667 25.170593-3.771667 37.84906-5.586639 1.05603 10.297638 1.246643 19.348572 3.039246 28.070251 3.270141 15.911316 7.189697 31.710175 11.506714 47.371674 1.19989 4.353241 1.29132 7.783295-.583313 11.786804-6.125489 13.081421-14.124024 24.59967-27.000306 31.760132-4.872619 2.709656-10.434875 4.17923-16.104431 6.28479z" fill="#fffefe"/><path d="m179.394592 428.330902c-9.909042 20.19931-26.461853 28.990906-47.95401 29.820496-30.320533 1.170288-50.969764-14.688355-66.429802-38.651184-5.074638-7.865601-8.114879-17.059113-11.893436-25.729096-.576565-1.322906-.725838-3.478241-.032314-4.612305 11.858833-19.391876 25.740341-36.933959 46.538581-47.50296 17.79316-9.041961 36.272431-9.686828 54.515381-1.876281 17.206223 7.366699 26.850052 21.399322 30.435868 39.450531 3.312362 16.674682 2.291519 33.091888-5.180268 49.100799z" fill="#fff"/></svg>