<svg version="1.1" id="Layer_1" xmlns="http://www.w3.org/2000/svg" xmlns:xlink="http://www.w3.org/1999/xlink" x="0px" y="0px"
	 width="100%" viewBox="0 0 962 588" enable-background="new 0 0 962 588" xml:space="preserve">
<path fill="#FFFFFF" opacity="1.000000" stroke="none" 
	d="
M675.000000,589.000000 
	C450.000000,589.000000 225.500000,589.000000 1.000000,589.000000 
	C1.000000,393.000000 1.000000,197.000000 1.000000,1.000000 
	C321.666656,1.000000 642.333313,1.000000 963.000000,1.000000 
	C963.000000,197.000000 963.000000,393.000000 963.000000,589.000000 
	C867.166687,589.000000 771.333313,589.000000 675.000000,589.000000 
M585.138245,574.761719 
	C586.460999,574.841675 587.783813,574.991333 589.106567,574.991516 
	C686.428650,575.002380 783.750793,575.001404 881.072876,575.001404 
	C882.231567,575.001404 883.390320,575.001465 884.789124,575.001465 
	C906.261780,509.574493 927.700195,444.252014 949.242981,378.611267 
	C897.871826,378.611267 847.232788,378.611267 796.260986,378.611267 
	C791.493774,393.156738 786.704407,407.770050 781.727112,422.956696 
	C815.500549,422.956696 848.707031,422.956696 882.393616,422.956696 
	C870.352783,459.319061 858.494080,495.131378 846.721497,530.683594 
	C782.426941,530.683594 718.801147,530.683594 654.532227,530.683594 
	C693.794861,412.129120 732.950439,293.897644 772.210388,175.351166 
	C710.624390,175.351166 649.536316,175.351166 588.470337,175.351166 
	C583.673889,190.065109 578.934326,204.604294 573.993286,219.761703 
	C616.966919,219.761703 659.040649,219.761703 701.476379,219.761703 
	C700.834106,221.969208 700.380615,223.726746 699.813721,225.446945 
	C689.084778,258.003113 678.336060,290.552734 667.604431,323.107971 
	C640.046448,406.706451 612.494873,490.307007 585.138245,574.761719 
M422.123566,554.699219 
	C435.233307,514.875427 448.343018,475.051666 461.523926,435.011658 
	C481.071564,435.011658 500.369446,435.011658 519.798645,435.011658 
	C524.602295,420.295502 529.322937,405.833740 534.196289,390.904297 
	C514.511597,390.904297 495.539734,390.904297 475.977997,390.904297 
	C489.858673,348.869080 503.596680,307.265869 517.502930,265.153229 
	C514.784912,265.153229 512.961731,265.153229 511.138580,265.153229 
	C473.313477,265.153229 435.488342,265.153259 397.663239,265.153229 
	C361.337799,265.153229 325.012024,265.224487 288.687408,265.049835 
	C284.786285,265.031097 283.195526,266.311188 282.100220,269.878082 
	C278.441345,281.793274 274.456207,293.608093 270.629608,305.472198 
	C270.249542,306.650543 270.098755,307.902832 269.714935,309.720581 
	C329.213074,309.720581 388.128052,309.720581 447.603455,309.720581 
	C446.905670,312.224365 446.456848,314.139343 445.840912,315.998932 
	C438.157867,339.195221 430.332977,362.345673 422.855652,385.607880 
	C421.476746,389.897644 419.451874,390.975189 415.107483,390.955078 
	C374.617157,390.767700 334.125427,390.894348 293.634674,390.758545 
	C290.000000,390.746338 288.445862,391.840149 287.369232,395.320068 
	C283.735260,407.066223 279.702240,418.688751 275.843933,430.365845 
	C275.390289,431.738770 275.073822,433.157043 274.543549,435.106445 
	C318.680481,435.106445 362.251709,435.106445 406.449768,435.106445 
	C390.891144,481.974457 375.525513,528.261108 360.115509,574.681396 
	C379.119690,574.681396 397.380035,574.681396 415.568573,574.681396 
	C417.774994,568.076294 419.878662,561.778870 422.123566,554.699219 
M98.500000,374.999084 
	C76.509949,374.999084 54.518238,375.139496 32.531261,374.879517 
	C28.183168,374.828094 26.442934,376.304840 25.282946,380.261169 
	C22.386230,390.140869 19.063608,399.895447 15.942038,409.709808 
	C15.564315,410.897369 15.371743,412.143799 14.939598,414.036346 
	C45.937244,414.036346 76.325317,414.036346 107.827126,414.036346 
	C83.650932,468.069794 59.871117,521.217285 36.019375,574.525574 
	C37.099358,574.764404 37.575729,574.961853 38.052197,574.962036 
	C86.530136,574.984070 135.008148,574.964478 183.485916,575.062927 
	C186.539368,575.069092 187.387589,573.592590 188.161911,571.118042 
	C191.485504,560.496521 194.983658,549.929688 198.375473,539.329285 
	C198.652924,538.462219 198.609207,537.492493 198.793884,535.878662 
	C163.761765,535.878662 129.106354,535.878662 93.855522,535.878662 
	C100.355431,521.310791 106.401337,507.463074 112.822159,493.791443 
	C113.528893,492.286621 116.372971,490.980469 118.244820,490.954468 
	C134.234528,490.732208 150.233459,490.606750 166.218582,490.956970 
	C171.219940,491.066559 173.595840,489.805695 174.841171,484.735565 
	C176.844498,476.579346 179.727539,468.639221 182.506882,459.750732 
	C163.937134,459.750732 146.242889,459.750732 127.797363,459.750732 
	C140.241806,431.199249 152.319656,403.488831 164.737183,374.999084 
	C142.109558,374.999084 120.804779,374.999084 98.500000,374.999084 
M538.291931,201.776337 
	C541.155640,193.028564 544.019287,184.280807 546.895447,175.494720 
	C546.077759,175.295166 545.915833,175.221069 545.753967,175.221024 
	C461.273560,175.194916 376.793121,175.186081 292.312775,175.097504 
	C289.581421,175.094635 288.654755,176.222595 287.878906,178.616470 
	C283.829956,191.109360 279.578308,203.536438 275.442688,216.001526 
	C275.106476,217.014847 275.112488,218.141708 274.943604,219.327240 
	C361.084991,219.327240 446.832184,219.327240 532.589600,219.327240 
	C534.460510,213.571167 536.254395,208.052017 538.291931,201.776337 
M802.015625,35.505993 
	C789.868713,21.448746 774.294434,14.121479 755.930847,14.318938 
	C731.783203,14.578592 713.231201,25.689243 702.397644,47.356640 
	C691.610962,68.930397 693.340881,90.534225 707.662720,110.020958 
	C722.418457,130.098190 743.200195,137.939743 767.440613,133.364960 
	C812.619141,124.838631 831.064087,72.772766 802.015625,35.505993 
z"/>
<path fill="#010101" opacity="1.000000" stroke="none" 
	d="
M585.039490,574.334229 
	C612.494873,490.307007 640.046448,406.706451 667.604431,323.107971 
	C678.336060,290.552734 689.084778,258.003113 699.813721,225.446945 
	C700.380615,223.726746 700.834106,221.969208 701.476379,219.761703 
	C659.040649,219.761703 616.966919,219.761703 573.993286,219.761703 
	C578.934326,204.604294 583.673889,190.065109 588.470337,175.351166 
	C649.536316,175.351166 710.624390,175.351166 772.210388,175.351166 
	C732.950439,293.897644 693.794861,412.129120 654.532227,530.683594 
	C718.801147,530.683594 782.426941,530.683594 846.721497,530.683594 
	C858.494080,495.131378 870.352783,459.319061 882.393616,422.956696 
	C848.707031,422.956696 815.500549,422.956696 781.727112,422.956696 
	C786.704407,407.770050 791.493774,393.156738 796.260986,378.611267 
	C847.232788,378.611267 897.871826,378.611267 949.242981,378.611267 
	C927.700195,444.252014 906.261780,509.574493 884.789124,575.001465 
	C883.390320,575.001465 882.231567,575.001404 881.072876,575.001404 
	C783.750793,575.001404 686.428650,575.002380 589.106567,574.991516 
	C587.783813,574.991333 586.460999,574.841675 585.039490,574.334229 
z"/>
<path fill="#C47034" opacity="1.000000" stroke="none" 
	d="
M422.052917,555.090332 
	C419.878662,561.778870 417.774994,568.076294 415.568573,574.681396 
	C397.380035,574.681396 379.119690,574.681396 360.115509,574.681396 
	C375.525513,528.261108 390.891144,481.974457 406.449768,435.106445 
	C362.251709,435.106445 318.680481,435.106445 274.543549,435.106445 
	C275.073822,433.157043 275.390289,431.738770 275.843933,430.365845 
	C279.702240,418.688751 283.735260,407.066223 287.369232,395.320068 
	C288.445862,391.840149 290.000000,390.746338 293.634674,390.758545 
	C334.125427,390.894348 374.617157,390.767700 415.107483,390.955078 
	C419.451874,390.975189 421.476746,389.897644 422.855652,385.607880 
	C430.332977,362.345673 438.157867,339.195221 445.840912,315.998932 
	C446.456848,314.139343 446.905670,312.224365 447.603455,309.720581 
	C388.128052,309.720581 329.213074,309.720581 269.714935,309.720581 
	C270.098755,307.902832 270.249542,306.650543 270.629608,305.472198 
	C274.456207,293.608093 278.441345,281.793274 282.100220,269.878082 
	C283.195526,266.311188 284.786285,265.031097 288.687408,265.049835 
	C325.012024,265.224487 361.337799,265.153229 397.663239,265.153229 
	C435.488342,265.153259 473.313477,265.153229 511.138580,265.153229 
	C512.961731,265.153229 514.784912,265.153229 517.502930,265.153229 
	C503.596680,307.265869 489.858673,348.869080 475.977997,390.904297 
	C495.539734,390.904297 514.511597,390.904297 534.196289,390.904297 
	C529.322937,405.833740 524.602295,420.295502 519.798645,435.011658 
	C500.369446,435.011658 481.071564,435.011658 461.523926,435.011658 
	C448.343018,475.051666 435.233307,514.875427 422.052917,555.090332 
z"/>
<path fill="#CDB692" opacity="1.000000" stroke="none" 
	d="
M99.000000,374.999084 
	C120.804779,374.999084 142.109558,374.999084 164.737183,374.999084 
	C152.319656,403.488831 140.241806,431.199249 127.797363,459.750732 
	C146.242889,459.750732 163.937134,459.750732 182.506882,459.750732 
	C179.727539,468.639221 176.844498,476.579346 174.841171,484.735565 
	C173.595840,489.805695 171.219940,491.066559 166.218582,490.956970 
	C150.233459,490.606750 134.234528,490.732208 118.244820,490.954468 
	C116.372971,490.980469 113.528893,492.286621 112.822159,493.791443 
	C106.401337,507.463074 100.355431,521.310791 93.855522,535.878662 
	C129.106354,535.878662 163.761765,535.878662 198.793884,535.878662 
	C198.609207,537.492493 198.652924,538.462219 198.375473,539.329285 
	C194.983658,549.929688 191.485504,560.496521 188.161911,571.118042 
	C187.387589,573.592590 186.539368,575.069092 183.485916,575.062927 
	C135.008148,574.964478 86.530136,574.984070 38.052197,574.962036 
	C37.575729,574.961853 37.099358,574.764404 36.019375,574.525574 
	C59.871117,521.217285 83.650932,468.069794 107.827126,414.036346 
	C76.325317,414.036346 45.937244,414.036346 14.939598,414.036346 
	C15.371743,412.143799 15.564315,410.897369 15.942038,409.709808 
	C19.063608,399.895447 22.386230,390.140869 25.282946,380.261169 
	C26.442934,376.304840 28.183168,374.828094 32.531261,374.879517 
	C54.518238,375.139496 76.509949,374.999084 99.000000,374.999084 
z"/>
<path fill="#C47034" opacity="1.000000" stroke="none" 
	d="
M538.170166,202.154602 
	C536.254395,208.052017 534.460510,213.571167 532.589600,219.327240 
	C446.832184,219.327240 361.084991,219.327240 274.943604,219.327240 
	C275.112488,218.141708 275.106476,217.014847 275.442688,216.001526 
	C279.578308,203.536438 283.829956,191.109360 287.878906,178.616470 
	C288.654755,176.222595 289.581421,175.094635 292.312775,175.097504 
	C376.793121,175.186081 461.273560,175.194916 545.753967,175.221024 
	C545.915833,175.221069 546.077759,175.295166 546.895447,175.494720 
	C544.019287,184.280807 541.155640,193.028564 538.170166,202.154602 
z"/>
<path fill="#020202" opacity="1.000000" stroke="none" 
	d="
M802.237793,35.784813 
	C831.064087,72.772766 812.619141,124.838631 767.440613,133.364960 
	C743.200195,137.939743 722.418457,130.098190 707.662720,110.020958 
	C693.340881,90.534225 691.610962,68.930397 702.397644,47.356640 
	C713.231201,25.689243 731.783203,14.578592 755.930847,14.318938 
	C774.294434,14.121479 789.868713,21.448746 802.237793,35.784813 
M774.343994,55.137512 
	C773.568787,54.509792 772.813049,53.856049 772.015381,53.258339 
	C761.724609,45.547459 747.352661,46.300350 737.613831,55.052071 
	C728.329590,63.395245 726.344360,76.612244 732.698608,87.775482 
	C739.070496,98.969536 752.203247,104.028206 764.399231,100.004143 
	C782.256592,94.112122 789.088135,70.340508 774.343994,55.137512 
z"/>
<path fill="#FDFDFD" opacity="1.000000" stroke="none" 
	d="
M774.602295,55.387383 
	C789.088135,70.340508 782.256592,94.112122 764.399231,100.004143 
	C752.203247,104.028206 739.070496,98.969536 732.698608,87.775482 
	C726.344360,76.612244 728.329590,63.395245 737.613831,55.052071 
	C747.352661,46.300350 761.724609,45.547459 772.015381,53.258339 
	C772.813049,53.856049 773.568787,54.509792 774.602295,55.387383 
z"/>
</svg>