<svg enable-background="new 0 0 1212 988" viewBox="0 0 1212 988" xmlns="http://www.w3.org/2000/svg"><path d="m722 989c-240.639435 0-480.778854 0-720.959138 0 0-329.268738 0-658.537476 0-987.903104h1211.793489v987.903104c-163.372071 0-326.853211 0-490.834351 0m-217.641724-73.881409c-11.535186-2.391662-23.311676-3.978515-34.553161-7.349548-20.728394-6.215881-32.934479-20.92096-36.642395-42.021973-1.948639-11.088989-3.024872-22.482116-3.033356-33.739074-.170197-225.813416-.152527-451.627076-.043091-677.440628.004822-9.96164.71402-19.991486 2.005371-29.87056 3.333222-25.499367 16.945771-42.161934 42.39383-49.003327 20.314544-5.461311 41.065368-6.479484 61.822509-7.60009 32.307496-1.744163 64.656678-1.842216 96.878357 1.203492 15.012146 1.418998 30.091675 3.734436 44.704102 7.389015 20.965149 5.243423 34.726135 18.762466 38.420227 40.620476 1.960937 11.603126 2.744812 23.428459 3.595886 35.187095.500611 6.916001.091431 13.897858.091431 21.021668h34.00293c-.263794-29.436234 2.056823-58.746231-4.325013-87.428002-6.865783-30.856411-24.263549-53.06295-55.487487-63.14386-24.910279-8.042522-50.670228-9.760679-76.417237-10.613442-28.453003-.942387-56.976684-.793521-85.440491-.032536-22.271118.595421-44.54956 2.301148-66.34494 7.730676-37.503479 9.342638-60.318145 32.945316-66.867584 70.90305-2.842346 16.472961-3.79007 33.453888-3.80722 50.20594-.236054 230.312958-.199891 460.626221-.076783 690.939392.009186 17.136353.328614 34.356812 1.999024 51.391541 4.345886 44.319702 26.524322 71.156555 69.640808 82.626159 21.22052 5.64502 43.08493 6.612671 64.847809 7.690003 37.808227 1.87146 75.619385 1.467102 113.355774-1.836853 17.591369-1.540223 35.060669-3.649781 51.781555-10.015076 23.440735-8.923584 40.06958-24.535523 48.817566-48.208313 6.267883-16.961365 8.017761-34.744934 8.094665-52.562378.316651-73.325562.239746-146.653015.119873-219.979492-.007629-4.669129 1.322998-7.337464 5.216004-10.074158 22.805664-16.03241 38.872986-37.567444 47.312805-63.950073 14.031494-43.861572 14.347839-88.665741 4.034485-133.206543-10.034607-43.336823-34.089539-76.591614-75.535156-95.494904-14.048218-6.407379-28.972901-9.516021-44.618103-10.664459v56.686737c1.224243.198486 2.185241.396179 3.156188.505524 16.049378 1.807403 31.354126 6.132843 45.571961 13.873932 19.391235 10.5578 34.001953 25.309601 41.273621 46.723541 7.290527 21.469727 7.709594 43.49585 5.84198 65.687866-1.522095 18.086853-7.043152 34.955506-18.315735 49.405396-4.664185 5.978882-10.4646 11.07135-15.74823 16.567016-1.165039-4.645446-1.036011-8.314758-1.185669-11.972778-1.11554-27.267334-14.680969-45.159363-40.446167-53.939545-15.851319-5.401733-32.255677-6.65567-48.759217-6.708587-18.014953-.05774-35.973571 1.000854-53.122863 7.437988-19.778015 7.423889-33.340515 20.519043-37.225159 41.911865-1.228272 6.764282-1.247192 13.74823-1.856628 21.077942-1.127442-.884521-2.038392-1.520813-2.860779-2.256164-13.30774-11.89917-22.006958-26.632386-26.384583-43.851014-5.464599-21.494079-5.30487-43.302795-1.787231-64.977691 2.806762-17.294403 8.901794-33.421326 21.422424-46.459961 14.517883-15.118592 32.236878-24.484101 52.42572-29.358673 6.735291-1.626221 13.623535-2.618622 20.449341-3.902161 0-18.853149 0-37.459473 0-56.453735-20.146789 1.42984-38.955749 6.517852-56.20404 16.483825-33.605896 19.417298-54.083924 49.013001-63.388184 86.075257-10.517395 41.894836-10.199463 84.177978.175049 126.112793 6.134033 24.794372 18.831909 46.247741 37.488037 63.759765 26.32251 24.708496 58.244751 36.080872 93.911194 37.492066 25.164856.995788 50.28717.755066 75.265747-6.930909 0 2.283021.000061 4.062806.000061 5.84253-.000061 57.994934.09137 115.990173-.087769 173.984558-.030761 9.963196-.682983 19.992187-1.971313 29.870361-3.036804 23.283692-14.812073 40.389588-37.91388 47.232605-13.15216 3.895935-26.88623 7.167175-40.506225 7.875488-32.084534 1.668885-64.255982 1.947327-96.395996 2.128724-12.616028.071289-25.242005-1.618836-38.764649-2.597779m567.284668-258.107727c28.096314-2.27301 53.736084-11.475891 75.870484-28.906677 27.94873-22.00946 43.510376-51.555969 49.558105-86.319946 5.299317-30.462677 5.449219-61.052643.782471-91.55011-6.149536-40.188019-23.011841-74.558624-56.643555-99.098938-19.867187-14.496674-42.444946-21.518829-66.962524-23.378967v56.902526c17.070801 1.590973 33.233764 5.826966 48.217773 13.889893 19.750733 10.628021 34.747071 25.496124 41.909912 47.343689 7.915161 24.142181 8.334229 48.790527 4.628052 73.578857-5.332153 35.66388-26.408691 58.684693-59.328003 71.509156-19.949219 7.771606-40.861206 10.393982-62.178222 10.442871-27.447571.062927-54.150574-3.3302-78.806458-16.499634-25.034363-13.371704-40.688782-33.772522-45.831299-61.847961-3.511413-19.170411-3.744263-38.481263-.659118-57.689484 3.178833-19.791016 10.333801-37.768372 25.569213-51.799164 13.949524-12.846496 30.259095-21.022156 48.526795-25.44342 6.73529-1.630097 13.626465-2.615967 20.436401-3.893799 0-18.933502 0-37.691895 0-56.532379-20.284729 1.641082-39.350647 6.622741-56.709289 16.86911-38.012452 22.437683-58.108216 57.038666-66.032654 99.419189-4.772278 25.522522-5.288574 51.331085-2.834534 77.165161 1.994019 20.991394 6.054382 41.492554 15.601685 60.554139 18.80896 37.552978 48.779297 61.271362 89.414489 71.310302 10.392212 2.567444 21.157593 3.62439 31.990418 5.414734v5.382874c0 62.662597-.081909 125.325317.047974 187.98761.041015 19.811157 1.094848 39.574829 5.662353 58.980224 4.144653 17.608826 11.136841 33.581604 25.414551 45.562439 18.609985 15.61615 40.631225 19.144409 63.922485 18.264527 1.736206-.065613 3.459351-.477295 5.01001-.70221 0-18.961182 0-37.3927 0-55.745239-6.427002-.406983-12.59314-.499146-18.68103-1.237183-20.915406-2.535644-36.173584-11.272949-41.934082-33.996704-3.798584-14.984741-4.551636-30.219116-4.571778-45.526123-.076294-57.996094-.030761-115.99231-.030761-173.988525 0-1.809327.000122-3.618653.000122-5.515992 2.815063-.306335 5.277099-.574279 8.640014-.904846m-758.376831-67.318725c2.894989-10.076905 3.512116-20.294129 1.661743-30.611756-1.870575-10.430237-4.961395-20.418274-12.081665-28.607361-13.847869-15.926635-32.343414-22.728607-52.514541-24.256073-16.674057-1.262664-33.563706-.949707-50.280228.012818-13.936432.80246-27.728821 3.825744-40.118179 10.899383-13.744705 7.847474-24.121826 18.543641-28.717102 34.260987-3.570069 12.210815-3.307411 24.6474-3.307083 37.114746.000084 3.079407.000007 6.158813.000007 9.490784-1.979637-.139893-3.183494-.008667-4.247848-.333985-9.834442-3.005737-20.060829-5.160156-29.382859-9.329346-26.142478-11.692138-44.301445-30.853271-51.382797-59.250305-5.224731-20.951843-5.221031-42.124542-1.919075-63.36029 4.614578-29.677643 20.120594-51.643555 46.796387-65.526245 22.494217-11.706482 46.767502-15.657624 71.829025-16.239319 24.143891-.560395 47.894501 1.734924 70.681183 10.095825 26.72287 9.805115 47.760193 25.593658 55.268433 54.929657.292968 1.144745 2.150207 2.661255 3.310547 2.689484 9.13031.221893 18.268463.123138 27.848358.123138-3.829468-33.560883-17.046082-62.336517-40.568268-85.673126-24.003525-23.814026-54.098587-35.57074-87.461334-37.831299-17.667389-1.197113-35.545685-.175507-53.281144.753662-21.878334 1.14621-42.015426 8.697876-60.439483 20.166168-33.614445 20.923676-52.205193 52.463318-60.826407 90.242707-4.853295 21.267883-6.557889 42.913299-5.392604 64.835266.921203 17.330139 2.835965 34.42157 7.364723 51.171264 10.392633 38.437256 31.965952 68.07251 68.348016 85.740296 24.567078 11.930114 50.979294 16.095398 77.930436 16.522094 17.26242.273377 34.579864-.647094 51.819397-1.816955 19.415176-1.317505 37.97644-6.349121 55.396133-15.260437 21.257233-10.874329 36.563873-26.877197 43.666229-50.951782m771.262085-454.754105c-17.644897-8.261551-36.259887-9.522369-55.135254-6.691635-25.909362 3.88562-44.252136 18.085785-54.021545 42.541-6.002441 15.025498-6.966309 30.833771-4.275208 46.644684 4.090882 24.03479 16.535889 42.268417 39.507142 51.89946 19.035827 7.981049 38.86029 8.07254 58.802307 3.837067 17.012817-3.613312 30.599243-12.528199 40.425171-26.940613 9.973754-14.629105 13.007446-31.070374 12.202148-48.420853-1.267944-27.314316-12.188843-48.997848-37.504761-62.86911z" fill="#fff"/><path d="m504.808868 915.164124c13.072052.93341 25.698029 2.623535 38.314057 2.552246 32.140014-.181397 64.311462-.459839 96.395996-2.128724 13.619995-.708313 27.354065-3.979553 40.506225-7.875488 23.101807-6.843017 34.877076-23.948913 37.91388-47.232605 1.28833-9.878174 1.940552-19.907165 1.971313-29.870361.179139-57.994385.087708-115.989624.087769-173.984558 0-1.779724-.000061-3.559509-.000061-5.84253-24.978577 7.685975-50.100891 7.926697-75.265747 6.930909-35.666443-1.411194-67.588684-12.78357-93.911194-37.492066-18.656128-17.512024-31.354004-38.965393-37.488037-63.759765-10.374512-41.934815-10.692444-84.217957-.175049-126.112793 9.30426-37.062256 29.782288-66.657959 63.388184-86.075257 17.248291-9.965973 36.057251-15.053985 56.20404-16.483825v56.453735c-6.825806 1.283539-13.71405 2.27594-20.449341 3.902161-20.188842 4.874572-37.907837 14.240081-52.42572 29.358673-12.52063 13.038635-18.615662 29.165558-21.422424 46.459961-3.517639 21.674896-3.677368 43.483612 1.787231 64.977691 4.377625 17.218628 13.076843 31.951844 26.384583 43.851014.822387.735351 1.733337 1.371643 2.860779 2.256164.609436-7.329712.628356-14.31366 1.856628-21.077942 3.884644-21.392822 17.447144-34.487976 37.225159-41.911865 17.149292-6.437134 35.10791-7.495728 53.122863-7.437988 16.50354.052917 32.907898 1.306854 48.759217 6.708587 25.765198 8.780182 39.330627 26.672211 40.446167 53.939545.149658 3.65802.02063 7.327332 1.185669 11.972778 5.28363-5.495666 11.084045-10.588134 15.74823-16.567016 11.272583-14.44989 16.79364-31.318543 18.315735-49.405396 1.867614-22.192016 1.448547-44.218139-5.84198-65.687866-7.271668-21.41394-21.882386-36.165741-41.273621-46.723541-14.217835-7.741089-29.522583-12.066529-45.571961-13.873932-.970947-.109345-1.931945-.307038-3.156188-.505524 0-18.905823 0-37.634216 0-56.686737 15.645202 1.148438 30.569885 4.25708 44.618103 10.664459 41.445617 18.90329 65.500549 52.158081 75.535156 95.494904 10.313354 44.540802 9.997009 89.344971-4.034485 133.206543-8.439819 26.382629-24.507141 47.917663-47.312805 63.950073-3.893006 2.736694-5.223633 5.405029-5.216004 10.074158.119873 73.326477.196778 146.65393-.119873 219.979492-.076904 17.817444-1.826782 35.601013-8.094665 52.562378-8.747986 23.67279-25.376831 39.284729-48.817566 48.208313-16.720886 6.365295-34.190186 8.474853-51.781555 10.015076-37.736389 3.303955-75.547547 3.708313-113.355774 1.836853-21.762879-1.077332-43.627289-2.044983-64.847809-7.690003-43.116486-11.469604-65.294922-38.306457-69.640808-82.626159-1.67041-17.034729-1.989838-34.255188-1.999024-51.391541-.123108-230.313171-.159271-460.626434.076783-690.939392.01715-16.752052.964874-33.732979 3.80722-50.20594 6.549439-37.957734 29.364105-61.560412 66.867584-70.90305 21.79538-5.429528 44.073822-7.135255 66.34494-7.730676 28.463807-.760985 56.987488-.909851 85.440491.032536 25.747009.852763 51.506958 2.57092 76.417237 10.613442 31.223938 10.08091 48.621704 32.287449 55.487487 63.14386 6.381836 28.681771 4.061219 57.991768 4.325013 87.428002-11.387085 0-22.436707 0-34.00293 0 0-7.12381.40918-14.105667-.091431-21.021668-.851074-11.758636-1.634949-23.583969-3.595886-35.187095-3.694092-21.85801-17.455078-35.377053-38.420227-40.620476-14.612427-3.654579-29.691956-5.970017-44.704102-7.389015-32.221679-3.045708-64.570861-2.947655-96.878357-1.203492-20.757141 1.120606-41.507965 2.138779-61.822509 7.60009-25.448059 6.841393-39.060608 23.50396-42.39383 49.003327-1.291351 9.879074-2.000549 19.90892-2.005371 29.87056-.109436 225.813552-.127106 451.627212.043091 677.440628.008484 11.256958 1.084717 22.650085 3.033356 33.739074 3.707916 21.101013 15.914001 35.806092 36.642395 42.021973 11.241485 3.371033 23.017975 4.957886 35.003753 7.395081m90.622162-350.002564c-.340332 7.303772-.850219 14.606934-.872741 21.911682-.004273 1.403137 1.638305 3.653565 2.9776 4.080078 7.90094 2.516175 15.835815 5.108277 23.946594 6.748474 22.537292 4.557435 45.307129 4.348572 68.063843 1.973877 12.878051-1.343872 25.38916-4.415161 37.234436-9.240722 0-7.415955.355835-14.424378-.132263-21.373535-.297181-4.230774-1.419251-8.56073-3.001465-12.513733-4.27356-10.677491-13.872498-14.207154-23.970887-16.581787-20.179748-4.74524-40.692504-3.791993-61.10321-2.585083-8.026916.474548-16.063843 2.571167-23.8573 4.774353-10.912353 3.084899-17.38031 10.587097-19.284607 22.806396z" fill="#c47034"/><path d="m1071.192383 657.042175c-2.912354.299256-5.37439.5672-8.189453.873535 0 1.897339-.000122 3.706665-.000122 5.515992 0 57.996215-.045533 115.992431.030761 173.988525.020142 15.307007.773194 30.541382 4.571778 45.526123 5.760498 22.723755 21.018676 31.46106 41.934082 33.996704 6.08789.738037 12.254028.8302 18.68103 1.237183v55.745239c-1.550659.224915-3.273804.636597-5.01001.70221-23.29126.879882-45.3125-2.648377-63.922485-18.264527-14.27771-11.980835-21.269898-27.953613-25.414551-45.562439-4.567505-19.405395-5.621338-39.169067-5.662353-58.980224-.129883-62.662293-.047974-125.325013-.047974-187.98761 0-1.816407 0-3.632874 0-5.382874-10.832825-1.790344-21.598206-2.84729-31.990418-5.414734-40.635192-10.03894-70.605529-33.757324-89.414489-71.310302-9.547303-19.061585-13.607666-39.562745-15.601685-60.554139-2.45404-25.834076-1.937744-51.642639 2.834534-77.165161 7.924438-42.380523 28.020202-76.981506 66.032654-99.419189 17.358642-10.246369 36.42456-15.228028 56.709289-16.86911v56.532379c-6.809936 1.277832-13.701111 2.263702-20.436401 3.893799-18.2677 4.421264-34.577271 12.596924-48.526795 25.44342-15.235412 14.030792-22.39038 32.008148-25.569213 51.799164-3.085145 19.208221-2.852295 38.519073.659118 57.689484 5.142517 28.075439 20.796936 48.476257 45.831299 61.847961 24.655884 13.169434 51.358887 16.562561 78.806458 16.499634 21.317016-.048889 42.229003-2.671265 62.178222-10.442871 32.919312-12.824463 53.99585-35.845276 59.328003-71.509156 3.706177-24.78833 3.287109-49.436676-4.628052-73.578857-7.162841-21.847565-22.159179-36.715668-41.909912-47.343689-14.984009-8.062927-31.146972-12.29892-48.217773-13.889893 0-19.119628 0-37.874572 0-56.902526 24.517578 1.860138 47.095337 8.882293 66.962524 23.378967 33.631714 24.540314 50.494019 58.910919 56.643555 99.098938 4.666748 30.497467 4.516846 61.087433-.782471 91.55011-6.047729 34.763977-21.609375 64.310486-49.558105 86.319946-22.1344 17.430786-47.77417 26.633667-76.321045 28.937988z" fill="#020202"/><path d="m313.181122 590.088928c-7.017365 23.677796-22.324005 39.680664-43.581238 50.554993-17.419693 8.911316-35.980957 13.942932-55.396133 15.260437-17.239533 1.169861-34.556977 2.090332-51.819397 1.816955-26.951142-.426696-53.363358-4.59198-77.930436-16.522094-36.382064-17.667786-57.955383-47.30304-68.348016-85.740296-4.528758-16.749694-6.44352-33.841125-7.364723-51.171264-1.165285-21.921967.539309-43.567383 5.392604-64.835266 8.621214-37.779389 27.211962-69.319031 60.826407-90.242707 18.424057-11.468292 38.561149-19.019958 60.439483-20.166168 17.735459-.929169 35.613755-1.950775 53.281144-.753662 33.362747 2.260559 63.457809 14.017273 87.461334 37.831299 23.522186 23.336609 36.7388 52.112243 40.568268 85.673126-9.579895 0-18.718048.098755-27.848358-.123138-1.16034-.028229-3.017579-1.544739-3.310547-2.689484-7.50824-29.335999-28.545563-45.124542-55.268433-54.929657-22.786682-8.360901-46.537292-10.65622-70.681183-10.095825-25.061523.581695-49.334808 4.532837-71.829025 16.239319-26.675793 13.88269-42.181809 35.848602-46.796387 65.526245-3.301956 21.235748-3.305656 42.408447 1.919075 63.36029 7.081352 28.397034 25.240319 47.558167 51.382797 59.250305 9.32203 4.16919 19.548417 6.323609 29.382859 9.329346 1.064354.325318 2.268211.194092 4.247848.333985 0-3.331971.000077-6.411377-.000007-9.490784-.000328-12.467346-.262986-24.903931 3.307083-37.114746 4.595276-15.717346 14.972397-26.413513 28.717102-34.260987 12.389358-7.073639 26.181747-10.096923 40.118179-10.899383 16.716522-.962525 33.606171-1.275482 50.280228-.012818 20.171127 1.527466 38.666672 8.329438 52.514541 24.256073 7.12027 8.189087 10.21109 18.177124 12.081665 28.607361 1.850373 10.317627 1.233246 20.534851-1.746734 31.008545m-158.271469-.601501v12.31311c2.511856 0 4.306656.019104 6.100967-.00293 19.647781-.241149 39.305771-.188415 58.939011-.858886 10.092407-.344666 20.243057-1.410279 30.181366-3.18927 10.914261-1.953736 21.08049-6.154847 29.100235-14.358826 10.848327-11.097534 9.683807-30.199402-3.211426-37.045288-7.616181-4.043335-16.381989-7.109619-24.903168-7.995545-14.678299-1.525939-29.571991-1.359619-44.369964-1.240722-12.942994.103943-25.345429 3.059265-36.857178 9.367431-6.847031 3.752076-11.70784 9.215516-12.937897 16.765076-1.353424 8.306824-1.416748 16.823731-2.041946 26.24585z" fill="#cdb592"/><path d="m1084.878418 135.068237c24.965698 13.741059 35.886597 35.424591 37.154541 62.738907.805298 17.350479-2.228394 33.791748-12.202148 48.420853-9.825928 14.412414-23.412354 23.327301-40.425171 26.940613-19.942017 4.235473-39.76648 4.143982-58.802307-3.837067-22.971253-9.631043-35.41626-27.86467-39.507142-51.89946-2.691101-15.810913-1.727233-31.619186 4.275208-46.644684 9.769409-24.455215 28.112183-38.65538 54.021545-42.541 18.875367-2.830734 37.490357-1.569916 55.485474 6.821838m-10.585449 33.973633c-17.148438-6.340881-34.611817-6.630798-51.991211-1.627945-16.044617 4.618591-26.257935 18.896942-26.085571 34.968292.164489 15.335328 10.281799 28.839325 25.906372 33.52771 15.655395 4.697647 31.570068 4.672577 47.257446.105439 15.725464-4.578186 24.993408-16.183625 26.384521-32.043656 1.228028-14.002228-6.9281-27.61528-21.471557-34.92984z" fill="#020202"/><path d="m595.56311 564.749451c1.772217-11.80719 8.240174-19.309388 19.152527-22.394287 7.793457-2.203186 15.830384-4.299805 23.8573-4.774353 20.410706-1.20691 40.923462-2.160157 61.10321 2.585083 10.098389 2.374633 19.697327 5.904296 23.970887 16.581787 1.582214 3.953003 2.704284 8.282959 3.001465 12.513733.488098 6.949157.132263 13.95758.132263 21.373535-11.845276 4.825561-24.356385 7.89685-37.234436 9.240722-22.756714 2.374695-45.526551 2.583558-68.063843-1.973877-8.110779-1.640197-16.045654-4.232299-23.946594-6.748474-1.339295-.426513-2.981873-2.676941-2.9776-4.080078.022522-7.304748.532409-14.60791 1.004821-22.323791z" fill="#fffefe"/><path d="m154.909576 588.989075c.625275-8.923767.688599-17.440674 2.042023-25.747498 1.230057-7.54956 6.090866-13.013 12.937897-16.765076 11.511749-6.308166 23.914184-9.263488 36.857178-9.367431 14.797973-.118897 29.691665-.285217 44.369964 1.240722 8.521179.885926 17.286987 3.95221 24.903168 7.995545 12.895233 6.845886 14.059753 25.947754 3.211426 37.045288-8.019745 8.203979-18.185974 12.40509-29.100235 14.358826-9.938309 1.778991-20.088959 2.844604-30.181366 3.18927-19.63324.670471-39.29123.617737-58.939011.858886-1.794311.022034-3.589111.00293-6.100967.00293 0-4.443237 0-8.378174-.000077-12.811462z" fill="#fffefe"/><path d="m1074.647949 169.180496c14.188477 7.175934 22.344605 20.788986 21.116577 34.791214-1.391113 15.860031-10.659057 27.46547-26.384521 32.043656-15.687378 4.567138-31.602051 4.592208-47.257446-.105439-15.624573-4.688385-25.741883-18.192382-25.906372-33.52771-.172364-16.07135 10.040954-30.349701 26.085571-34.968292 17.379394-5.002853 34.842773-4.712936 52.346191 1.766571z" fill="#fefefe"/></svg>