<svg version="1.1" id="Layer_1" xmlns="http://www.w3.org/2000/svg" xmlns:xlink="http://www.w3.org/1999/xlink" x="0px" y="0px"
	 width="100%" viewBox="0 0 1472 668" enable-background="new 0 0 1472 668" xml:space="preserve">
<path fill="#FFFFFF" opacity="1.000000" stroke="none" 
	d="
M1000.000000,669.000000 
	C666.705444,669.000000 333.910950,669.000000 1.058206,669.000000 
	C1.058206,446.398102 1.058206,223.796204 1.058206,1.097146 
	C491.544647,1.097146 982.089355,1.097146 1472.817017,1.097146 
	C1472.817017,223.666550 1472.817017,446.333252 1472.817017,669.000000 
	C1315.462524,669.000000 1157.981323,669.000000 1000.000000,669.000000 
M431.246399,339.883789 
	C439.729492,337.525757 448.617645,336.106323 456.626770,332.649963 
	C494.723083,316.209229 519.580078,287.193512 531.694702,248.056198 
	C544.328247,207.242493 545.024597,165.458038 536.980103,123.537430 
	C532.673950,101.097969 524.237671,80.316795 509.684265,62.645721 
	C487.023041,35.130066 457.365509,19.422842 422.314789,13.937691 
	C400.469543,10.519095 378.490631,10.800441 356.535034,12.999578 
	C335.356781,15.120859 315.361816,21.248928 297.431702,32.749081 
	C286.861969,39.528374 277.176270,47.686005 267.090698,55.225452 
	C265.483734,53.035915 263.559479,49.918468 261.159058,47.225437 
	C247.625229,32.041821 230.211975,23.444860 210.976685,17.998117 
	C193.349716,13.006797 175.271988,11.867997 157.085251,11.574298 
	C128.671265,11.115439 100.359894,11.931913 73.320656,21.978554 
	C43.436218,33.082344 22.810846,52.854259 16.320717,85.206848 
	C13.377772,99.877106 13.197101,114.549034 15.947843,129.297577 
	C26.215515,129.297577 36.151768,129.297577 46.503540,129.297577 
	C46.503540,127.484749 46.501949,125.855019 46.503773,124.225288 
	C46.537247,94.330849 64.266495,71.802788 93.443146,65.381508 
	C126.057564,58.203621 158.902924,58.073860 191.684464,64.090706 
	C204.220032,66.391533 216.268341,70.781334 225.356796,80.287994 
	C241.913986,97.607079 241.783752,132.303543 213.447830,148.162720 
	C198.302444,156.639374 181.607834,159.093781 164.827469,159.766617 
	C138.867416,160.807556 112.854942,160.542465 86.864647,160.826859 
	C85.089523,160.846283 83.313995,160.829407 81.396141,160.829407 
	C81.396141,171.607544 81.396141,181.851257 81.396141,192.503555 
	C90.089882,192.503555 98.562782,192.288513 107.021416,192.544571 
	C130.812225,193.264755 154.633804,193.629654 178.371201,195.214172 
	C193.585190,196.229752 208.008026,200.613220 220.402649,210.509628 
	C236.208145,223.129456 241.105484,246.802628 231.620239,264.639343 
	C224.479095,278.068024 212.420792,284.583679 198.781982,287.721527 
	C163.393906,295.863281 127.746017,295.854523 92.326691,287.643036 
	C69.716827,282.401215 54.480499,268.660156 48.614014,245.824524 
	C46.864380,239.013977 46.665497,231.805069 45.748707,224.721558 
	C35.997299,224.721558 26.066254,224.721558 15.871889,224.721558 
	C13.807755,236.783630 13.386356,248.685364 14.949245,260.650726 
	C17.288778,278.562012 23.272383,294.883911 36.041565,308.136871 
	C50.115643,322.744171 67.577080,331.187927 87.075546,335.864105 
	C115.250046,342.620972 143.878647,342.799255 172.551300,341.405090 
	C190.727524,340.521271 208.690750,337.837555 225.673141,330.818817 
	C243.648865,323.389526 258.727417,312.360016 268.674896,295.164337 
	C278.248047,278.615692 280.497589,260.575775 278.538361,242.050354 
	C276.970764,227.227814 271.934296,213.549530 260.619659,202.955902 
	C249.927872,192.945496 237.895447,185.081253 224.163055,179.885864 
	C221.958725,179.051910 219.777023,178.158112 217.986237,177.450562 
	C227.386276,172.509537 236.901779,168.144226 245.766129,162.715607 
	C264.091553,151.492966 275.360657,135.335388 277.950531,113.623367 
	C278.142639,112.012756 278.372894,110.169395 279.263428,108.915947 
	C288.627014,95.736443 300.428467,85.275848 315.587341,79.438148 
	C338.075989,70.777756 361.646515,67.750458 385.633881,67.882172 
	C412.719910,68.030899 439.037720,71.794456 463.417633,84.708992 
	C484.966125,96.123657 499.713043,113.236717 506.359589,136.682907 
	C514.482361,165.336578 511.996735,194.329407 508.080048,224.511230 
	C507.196777,222.849716 506.856415,222.326981 506.626373,221.759521 
	C499.368683,203.857239 485.004944,195.046814 467.058289,190.823898 
	C447.268097,186.167206 427.175049,185.134201 406.984070,186.435577 
	C389.691040,187.550186 372.542328,189.550278 356.498230,197.055832 
	C341.649200,204.002319 331.506073,214.938644 326.404633,230.516205 
	C321.269562,246.196320 321.051117,262.237946 322.922943,278.436035 
	C326.721985,311.311554 346.496033,331.973389 378.238586,339.042267 
	C395.556824,342.898956 412.946899,342.659393 431.246399,339.883789 
M662.449097,307.050873 
	C667.813110,310.979370 672.958313,315.257416 678.579407,318.775055 
	C701.276306,332.978516 726.561462,338.897308 752.879211,340.906250 
	C774.973694,342.592804 797.064514,342.516205 819.167297,340.146362 
	C838.877136,338.033112 857.849548,333.703735 875.450317,324.346832 
	C906.389771,307.898834 923.968384,283.304901 920.920410,247.083908 
	C919.341980,228.326523 911.558105,212.866440 894.609619,202.518082 
	C880.178955,193.707108 864.433777,190.206985 848.114990,189.217178 
	C828.008606,187.997635 807.896729,188.423218 788.038391,192.978760 
	C770.007568,197.115036 754.694763,205.350906 743.814697,220.635361 
	C737.145203,230.004654 734.645813,240.918823 734.080627,252.158081 
	C733.589172,261.930878 733.978333,271.747925 733.978333,281.814972 
	C732.113525,281.814972 730.913940,282.075043 729.877258,281.774170 
	C720.797058,279.138855 711.411926,277.197205 702.747803,273.551178 
	C674.910889,261.836853 655.342834,242.097260 648.373047,212.086090 
	C642.305298,185.959015 642.373718,159.542572 650.438599,133.782669 
	C655.612488,117.256958 665.324829,103.256599 679.466919,92.879662 
	C701.547241,76.677917 727.117615,70.213081 753.811584,68.335197 
	C778.628357,66.589363 803.451355,67.843582 827.478699,75.184418 
	C857.312073,84.299095 881.815430,99.624466 890.951660,132.037598 
	C891.302490,133.282288 892.993347,135.015076 894.099243,135.044601 
	C903.212952,135.288025 912.335999,135.182175 922.231262,135.182175 
	C921.760498,131.803604 921.477783,129.072159 920.989624,126.377960 
	C914.791565,92.171951 899.044556,63.359653 871.798462,41.475445 
	C852.856689,26.261341 831.102844,16.629391 806.890076,14.075588 
	C790.729065,12.371026 774.374634,12.266674 758.097107,11.957561 
	C737.721497,11.570628 718.162903,15.611723 699.353760,23.624846 
	C660.967224,39.978443 636.578796,69.020851 624.132019,108.066048 
	C612.087463,145.849228 611.137634,184.655487 618.140320,223.486832 
	C623.935059,255.620316 636.359985,284.659271 662.449097,307.050873 
M1268.372314,301.877625 
	C1291.356323,278.723145 1303.271973,250.634735 1306.130005,217.846832 
	C1296.508057,217.846832 1287.373291,217.729584 1278.249512,217.991928 
	C1277.079834,218.025574 1275.494263,219.826050 1274.908691,221.161942 
	C1272.249146,227.228012 1270.608032,233.853104 1267.267944,239.487091 
	C1257.254028,256.378845 1241.724243,266.812927 1223.895264,273.989960 
	C1201.598633,282.965424 1178.136108,285.273132 1154.350708,285.370178 
	C1127.395874,285.480164 1101.223633,281.833099 1077.023071,268.981964 
	C1055.073364,257.326111 1039.679565,239.929047 1033.317017,215.777573 
	C1026.143555,188.547882 1026.127075,160.955536 1034.435547,133.971207 
	C1039.952271,116.054001 1050.775146,101.401154 1066.664429,90.764542 
	C1084.940186,78.530296 1105.184326,72.224663 1126.840210,69.682732 
	C1160.048218,65.784790 1192.753052,67.333733 1224.181763,79.676483 
	C1249.053955,89.444397 1267.967773,105.415154 1275.028320,132.583298 
	C1275.325806,133.728302 1276.735718,135.417114 1277.659302,135.437881 
	C1287.066284,135.649521 1296.479858,135.567276 1306.135254,135.567276 
	C1305.988403,133.357513 1306.009277,131.861298 1305.774536,130.406311 
	C1301.357666,103.019295 1290.825439,78.518936 1272.430298,57.411434 
	C1254.524780,36.865910 1232.185059,23.924793 1206.151733,16.907682 
	C1184.167725,10.982053 1161.709106,11.088825 1139.197998,11.851979 
	C1114.873047,12.676626 1091.853638,18.159092 1070.307617,29.816908 
	C1035.464355,48.669384 1014.702026,78.155434 1005.060974,115.903084 
	C997.821228,144.248962 996.529663,173.147476 999.161438,202.202728 
	C1001.523621,228.281250 1007.020325,253.509354 1020.721313,276.340302 
	C1037.928833,305.014191 1062.564453,324.324219 1094.400024,334.203674 
	C1124.697388,343.605743 1155.737061,343.828522 1186.894653,340.064758 
	C1217.917114,336.317291 1245.016357,323.832001 1268.372314,301.877625 
M1020.955505,548.530029 
	C1023.026917,558.107239 1024.361206,567.917419 1027.302002,577.219788 
	C1037.961304,610.937317 1059.662598,634.792053 1092.488647,648.411987 
	C1108.722656,655.147705 1125.696411,657.880615 1143.108521,658.564514 
	C1168.436035,659.559326 1193.469482,658.085938 1217.079102,647.763428 
	C1247.536011,634.446960 1269.912598,612.987122 1280.114624,580.825745 
	C1292.410278,542.063782 1291.903442,502.618774 1282.530884,463.429901 
	C1276.050415,436.333282 1260.780884,414.839111 1236.983154,399.572174 
	C1216.844971,386.653046 1194.877075,379.960876 1171.164917,378.561798 
	C1143.683716,376.940308 1116.493408,377.884857 1090.698364,389.062225 
	C1059.342529,402.649170 1037.322021,425.080444 1027.360718,458.125031 
	C1018.536682,487.396576 1017.004822,517.363403 1020.955505,548.530029 
M1346.982422,532.593628 
	C1351.281860,534.363342 1355.468140,536.512146 1359.901001,537.834778 
	C1376.179810,542.692017 1392.778809,542.966614 1409.313965,539.685364 
	C1428.860229,535.806396 1444.220215,525.676270 1454.280273,507.996674 
	C1462.943848,492.771729 1465.488403,476.341766 1463.682007,459.303497 
	C1460.886719,432.934204 1449.141235,411.982788 1424.147705,400.647278 
	C1406.312378,392.558319 1387.416138,392.133484 1368.369873,395.620361 
	C1347.809570,399.384399 1332.470215,410.480286 1322.082397,428.616882 
	C1315.263550,440.522217 1312.841064,453.466675 1312.677124,466.933502 
	C1312.340210,494.616028 1321.694092,517.376709 1346.982422,532.593628 
z"/>
<path fill="#010101" opacity="1.000000" stroke="none" 
	d="
M430.813507,339.923340 
	C412.946899,342.659393 395.556824,342.898956 378.238586,339.042267 
	C346.496033,331.973389 326.721985,311.311554 322.922943,278.436035 
	C321.051117,262.237946 321.269562,246.196320 326.404633,230.516205 
	C331.506073,214.938644 341.649200,204.002319 356.498230,197.055832 
	C372.542328,189.550278 389.691040,187.550186 406.984070,186.435577 
	C427.175049,185.134201 447.268097,186.167206 467.058289,190.823898 
	C485.004944,195.046814 499.368683,203.857239 506.626373,221.759521 
	C506.856415,222.326981 507.196777,222.849716 508.080048,224.511230 
	C511.996735,194.329407 514.482361,165.336578 506.359589,136.682907 
	C499.713043,113.236717 484.966125,96.123657 463.417633,84.708992 
	C439.037720,71.794456 412.719910,68.030899 385.633881,67.882172 
	C361.646515,67.750458 338.075989,70.777756 315.587341,79.438148 
	C300.428467,85.275848 288.627014,95.736443 279.263428,108.915947 
	C278.372894,110.169395 278.142639,112.012756 277.950531,113.623367 
	C275.360657,135.335388 264.091553,151.492966 245.766129,162.715607 
	C236.901779,168.144226 227.386276,172.509537 217.986237,177.450562 
	C219.777023,178.158112 221.958725,179.051910 224.163055,179.885864 
	C237.895447,185.081253 249.927872,192.945496 260.619659,202.955902 
	C271.934296,213.549530 276.970764,227.227814 278.538361,242.050354 
	C280.497589,260.575775 278.248047,278.615692 268.674896,295.164337 
	C258.727417,312.360016 243.648865,323.389526 225.673141,330.818817 
	C208.690750,337.837555 190.727524,340.521271 172.551300,341.405090 
	C143.878647,342.799255 115.250046,342.620972 87.075546,335.864105 
	C67.577080,331.187927 50.115643,322.744171 36.041565,308.136871 
	C23.272383,294.883911 17.288778,278.562012 14.949245,260.650726 
	C13.386356,248.685364 13.807755,236.783630 15.871889,224.721558 
	C26.066254,224.721558 35.997299,224.721558 45.748707,224.721558 
	C46.665497,231.805069 46.864380,239.013977 48.614014,245.824524 
	C54.480499,268.660156 69.716827,282.401215 92.326691,287.643036 
	C127.746017,295.854523 163.393906,295.863281 198.781982,287.721527 
	C212.420792,284.583679 224.479095,278.068024 231.620239,264.639343 
	C241.105484,246.802628 236.208145,223.129456 220.402649,210.509628 
	C208.008026,200.613220 193.585190,196.229752 178.371201,195.214172 
	C154.633804,193.629654 130.812225,193.264755 107.021416,192.544571 
	C98.562782,192.288513 90.089882,192.503555 81.396141,192.503555 
	C81.396141,181.851257 81.396141,171.607544 81.396141,160.829407 
	C83.313995,160.829407 85.089523,160.846283 86.864647,160.826859 
	C112.854942,160.542465 138.867416,160.807556 164.827469,159.766617 
	C181.607834,159.093781 198.302444,156.639374 213.447830,148.162720 
	C241.783752,132.303543 241.913986,97.607079 225.356796,80.287994 
	C216.268341,70.781334 204.220032,66.391533 191.684464,64.090706 
	C158.902924,58.073860 126.057564,58.203621 93.443146,65.381508 
	C64.266495,71.802788 46.537247,94.330849 46.503773,124.225288 
	C46.501949,125.855019 46.503540,127.484749 46.503540,129.297577 
	C36.151768,129.297577 26.215515,129.297577 15.947843,129.297577 
	C13.197101,114.549034 13.377772,99.877106 16.320717,85.206848 
	C22.810846,52.854259 43.436218,33.082344 73.320656,21.978554 
	C100.359894,11.931913 128.671265,11.115439 157.085251,11.574298 
	C175.271988,11.867997 193.349716,13.006797 210.976685,17.998117 
	C230.211975,23.444860 247.625229,32.041821 261.159058,47.225437 
	C263.559479,49.918468 265.483734,53.035915 267.090698,55.225452 
	C277.176270,47.686005 286.861969,39.528374 297.431702,32.749081 
	C315.361816,21.248928 335.356781,15.120859 356.535034,12.999578 
	C378.490631,10.800441 400.469543,10.519095 422.314789,13.937691 
	C457.365509,19.422842 487.023041,35.130066 509.684265,62.645721 
	C524.237671,80.316795 532.673950,101.097969 536.980103,123.537430 
	C545.024597,165.458038 544.328247,207.242493 531.694702,248.056198 
	C519.580078,287.193512 494.723083,316.209229 456.626770,332.649963 
	C448.617645,336.106323 439.729492,337.525757 430.813507,339.923340 
M415.500000,217.832886 
	C406.693787,218.236099 397.839203,218.197479 389.093536,219.154053 
	C378.096527,220.356857 367.269073,222.965881 358.614777,230.374390 
	C349.339233,238.314758 347.371307,248.932693 349.853271,260.414520 
	C352.361542,272.017944 360.841888,278.197021 371.478333,280.906921 
	C397.439392,287.521149 423.655579,286.367401 449.724884,281.432678 
	C465.281525,278.487885 479.004242,271.587646 489.941162,259.807587 
	C490.786591,258.896942 492.044678,257.544250 491.866882,256.642242 
	C490.682739,250.635223 489.909485,244.384155 487.592926,238.796890 
	C482.576111,226.696976 471.578735,221.855072 459.790436,220.360001 
	C445.483612,218.545517 430.940796,218.591705 415.500000,217.832886 
z"/>
<path fill="#CDB592" opacity="1.000000" stroke="none" 
	d="
M662.190186,306.806671 
	C636.359985,284.659271 623.935059,255.620316 618.140320,223.486832 
	C611.137634,184.655487 612.087463,145.849228 624.132019,108.066048 
	C636.578796,69.020851 660.967224,39.978443 699.353760,23.624846 
	C718.162903,15.611723 737.721497,11.570628 758.097107,11.957561 
	C774.374634,12.266674 790.729065,12.371026 806.890076,14.075588 
	C831.102844,16.629391 852.856689,26.261341 871.798462,41.475445 
	C899.044556,63.359653 914.791565,92.171951 920.989624,126.377960 
	C921.477783,129.072159 921.760498,131.803604 922.231262,135.182175 
	C912.335999,135.182175 903.212952,135.288025 894.099243,135.044601 
	C892.993347,135.015076 891.302490,133.282288 890.951660,132.037598 
	C881.815430,99.624466 857.312073,84.299095 827.478699,75.184418 
	C803.451355,67.843582 778.628357,66.589363 753.811584,68.335197 
	C727.117615,70.213081 701.547241,76.677917 679.466919,92.879662 
	C665.324829,103.256599 655.612488,117.256958 650.438599,133.782669 
	C642.373718,159.542572 642.305298,185.959015 648.373047,212.086090 
	C655.342834,242.097260 674.910889,261.836853 702.747803,273.551178 
	C711.411926,277.197205 720.797058,279.138855 729.877258,281.774170 
	C730.913940,282.075043 732.113525,281.814972 733.978333,281.814972 
	C733.978333,271.747925 733.589172,261.930878 734.080627,252.158081 
	C734.645813,240.918823 737.145203,230.004654 743.814697,220.635361 
	C754.694763,205.350906 770.007568,197.115036 788.038391,192.978760 
	C807.896729,188.423218 828.008606,187.997635 848.114990,189.217178 
	C864.433777,190.206985 880.178955,193.707108 894.609619,202.518082 
	C911.558105,212.866440 919.341980,228.326523 920.920410,247.083908 
	C923.968384,283.304901 906.389771,307.898834 875.450317,324.346832 
	C857.849548,333.703735 838.877136,338.033112 819.167297,340.146362 
	C797.064514,342.516205 774.973694,342.592804 752.879211,340.906250 
	C726.561462,338.897308 701.276306,332.978516 678.579407,318.775055 
	C672.958313,315.257416 667.813110,310.979370 662.190186,306.806671 
M814.567017,220.981232 
	C804.956360,222.619263 795.184570,223.634232 785.779724,226.067627 
	C776.049438,228.585251 767.373596,233.651031 763.739990,243.815338 
	C761.876221,249.028793 760.941528,254.743362 760.602661,260.293488 
	C760.091492,268.664307 760.469360,277.089447 760.469360,286.613373 
	C788.914429,285.666962 816.825562,285.210083 844.669495,283.594727 
	C856.917725,282.884155 868.774963,279.260712 879.392944,272.326691 
	C892.513794,263.758240 896.618042,246.380875 887.302979,235.128922 
	C879.671875,225.911255 868.451416,223.270203 857.380432,222.261322 
	C843.512634,220.997589 829.500061,221.322189 814.567017,220.981232 
z"/>
<path fill="#C47034" opacity="1.000000" stroke="none" 
	d="
M1268.126099,302.135376 
	C1245.016357,323.832001 1217.917114,336.317291 1186.894653,340.064758 
	C1155.737061,343.828522 1124.697388,343.605743 1094.400024,334.203674 
	C1062.564453,324.324219 1037.928833,305.014191 1020.721313,276.340302 
	C1007.020325,253.509354 1001.523621,228.281250 999.161438,202.202728 
	C996.529663,173.147476 997.821228,144.248962 1005.060974,115.903084 
	C1014.702026,78.155434 1035.464355,48.669384 1070.307617,29.816908 
	C1091.853638,18.159092 1114.873047,12.676626 1139.197998,11.851979 
	C1161.709106,11.088825 1184.167725,10.982053 1206.151733,16.907682 
	C1232.185059,23.924793 1254.524780,36.865910 1272.430298,57.411434 
	C1290.825439,78.518936 1301.357666,103.019295 1305.774536,130.406311 
	C1306.009277,131.861298 1305.988403,133.357513 1306.135254,135.567276 
	C1296.479858,135.567276 1287.066284,135.649521 1277.659302,135.437881 
	C1276.735718,135.417114 1275.325806,133.728302 1275.028320,132.583298 
	C1267.967773,105.415154 1249.053955,89.444397 1224.181763,79.676483 
	C1192.753052,67.333733 1160.048218,65.784790 1126.840210,69.682732 
	C1105.184326,72.224663 1084.940186,78.530296 1066.664429,90.764542 
	C1050.775146,101.401154 1039.952271,116.054001 1034.435547,133.971207 
	C1026.127075,160.955536 1026.143555,188.547882 1033.317017,215.777573 
	C1039.679565,239.929047 1055.073364,257.326111 1077.023071,268.981964 
	C1101.223633,281.833099 1127.395874,285.480164 1154.350708,285.370178 
	C1178.136108,285.273132 1201.598633,282.965424 1223.895264,273.989960 
	C1241.724243,266.812927 1257.254028,256.378845 1267.267944,239.487091 
	C1270.608032,233.853104 1272.249146,227.228012 1274.908691,221.161942 
	C1275.494263,219.826050 1277.079834,218.025574 1278.249512,217.991928 
	C1287.373291,217.729584 1296.508057,217.846832 1306.130005,217.846832 
	C1303.271973,250.634735 1291.356323,278.723145 1268.126099,302.135376 
z"/>
<path fill="#C47034" opacity="1.000000" stroke="none" 
	d="
M1020.925537,548.084351 
	C1017.004822,517.363403 1018.536682,487.396576 1027.360718,458.125031 
	C1037.322021,425.080444 1059.342529,402.649170 1090.698364,389.062225 
	C1116.493408,377.884857 1143.683716,376.940308 1171.164917,378.561798 
	C1194.877075,379.960876 1216.844971,386.653046 1236.983154,399.572174 
	C1260.780884,414.839111 1276.050415,436.333282 1282.530884,463.429901 
	C1291.903442,502.618774 1292.410278,542.063782 1280.114624,580.825745 
	C1269.912598,612.987122 1247.536011,634.446960 1217.079102,647.763428 
	C1193.469482,658.085938 1168.436035,659.559326 1143.108521,658.564514 
	C1125.696411,657.880615 1108.722656,655.147705 1092.488647,648.411987 
	C1059.662598,634.792053 1037.961304,610.937317 1027.302002,577.219788 
	C1024.361206,567.917419 1023.026917,558.107239 1020.925537,548.084351 
M1205.510620,437.916656 
	C1169.525513,427.029358 1133.540771,427.069977 1098.054688,439.477234 
	C1073.114380,448.197266 1055.584595,464.842804 1049.833252,491.580933 
	C1045.902466,509.855469 1045.841553,528.348328 1050.172363,546.566467 
	C1054.778076,565.941223 1065.727783,580.823914 1083.296509,590.745361 
	C1097.880615,598.981445 1113.477539,603.735535 1130.049927,605.532104 
	C1160.617920,608.845886 1190.577515,607.474792 1218.912231,593.840637 
	C1234.936279,586.130005 1247.153687,574.689575 1254.080200,558.005920 
	C1260.500854,542.540527 1261.277100,526.363464 1260.548340,509.940979 
	C1259.942627,496.290558 1257.225830,483.245880 1250.331299,471.265045 
	C1240.358276,453.934601 1224.467285,444.506836 1205.510620,437.916656 
z"/>
<path fill="#020202" opacity="1.000000" stroke="none" 
	d="
M1346.672974,532.391602 
	C1321.694092,517.376709 1312.340210,494.616028 1312.677124,466.933502 
	C1312.841064,453.466675 1315.263550,440.522217 1322.082397,428.616882 
	C1332.470215,410.480286 1347.809570,399.384399 1368.369873,395.620361 
	C1387.416138,392.133484 1406.312378,392.558319 1424.147705,400.647278 
	C1449.141235,411.982788 1460.886719,432.934204 1463.682007,459.303497 
	C1465.488403,476.341766 1462.943848,492.771729 1454.280273,507.996674 
	C1444.220215,525.676270 1428.860229,535.806396 1409.313965,539.685364 
	C1392.778809,542.966614 1376.179810,542.692017 1359.901001,537.834778 
	C1355.468140,536.512146 1351.281860,534.363342 1346.672974,532.391602 
M1341.023438,482.250061 
	C1345.309570,490.855469 1351.209473,498.073029 1360.536987,501.196930 
	C1379.575806,507.573212 1398.848633,507.868195 1417.609131,500.409515 
	C1430.513306,495.279175 1440.155029,481.496124 1438.079590,463.048615 
	C1436.588623,449.797424 1426.010864,437.040527 1412.098022,433.354858 
	C1398.562622,429.769135 1384.872437,429.539978 1371.056274,431.819214 
	C1345.946289,435.961578 1332.807251,457.417938 1341.023438,482.250061 
z"/>
<path fill="#FEFEFE" opacity="1.000000" stroke="none" 
	d="
M416.000031,217.832886 
	C430.940796,218.591705 445.483612,218.545517 459.790436,220.360001 
	C471.578735,221.855072 482.576111,226.696976 487.592926,238.796890 
	C489.909485,244.384155 490.682739,250.635223 491.866882,256.642242 
	C492.044678,257.544250 490.786591,258.896942 489.941162,259.807587 
	C479.004242,271.587646 465.281525,278.487885 449.724884,281.432678 
	C423.655579,286.367401 397.439392,287.521149 371.478333,280.906921 
	C360.841888,278.197021 352.361542,272.017944 349.853271,260.414520 
	C347.371307,248.932693 349.339233,238.314758 358.614777,230.374390 
	C367.269073,222.965881 378.096527,220.356857 389.093536,219.154053 
	C397.839203,218.197479 406.693787,218.236099 416.000031,217.832886 
z"/>
<path fill="#FFFEFE" opacity="1.000000" stroke="none" 
	d="
M815.058472,220.971222 
	C829.500061,221.322189 843.512634,220.997589 857.380432,222.261322 
	C868.451416,223.270203 879.671875,225.911255 887.302979,235.128922 
	C896.618042,246.380875 892.513794,263.758240 879.392944,272.326691 
	C868.774963,279.260712 856.917725,282.884155 844.669495,283.594727 
	C816.825562,285.210083 788.914429,285.666962 760.469360,286.613373 
	C760.469360,277.089447 760.091492,268.664307 760.602661,260.293488 
	C760.941528,254.743362 761.876221,249.028793 763.739990,243.815338 
	C767.373596,233.651031 776.049438,228.585251 785.779724,226.067627 
	C795.184570,223.634232 804.956360,222.619263 815.058472,220.971222 
z"/>
<path fill="#FFFFFE" opacity="1.000000" stroke="none" 
	d="
M1205.891357,438.021179 
	C1224.467285,444.506836 1240.358276,453.934601 1250.331299,471.265045 
	C1257.225830,483.245880 1259.942627,496.290558 1260.548340,509.940979 
	C1261.277100,526.363464 1260.500854,542.540527 1254.080200,558.005920 
	C1247.153687,574.689575 1234.936279,586.130005 1218.912231,593.840637 
	C1190.577515,607.474792 1160.617920,608.845886 1130.049927,605.532104 
	C1113.477539,603.735535 1097.880615,598.981445 1083.296509,590.745361 
	C1065.727783,580.823914 1054.778076,565.941223 1050.172363,546.566467 
	C1045.841553,528.348328 1045.902466,509.855469 1049.833252,491.580933 
	C1055.584595,464.842804 1073.114380,448.197266 1098.054688,439.477234 
	C1133.540771,427.069977 1169.525513,427.029358 1205.891357,438.021179 
z"/>
<path fill="#FDFDFD" opacity="1.000000" stroke="none" 
	d="
M1340.909790,481.877808 
	C1332.807251,457.417938 1345.946289,435.961578 1371.056274,431.819214 
	C1384.872437,429.539978 1398.562622,429.769135 1412.098022,433.354858 
	C1426.010864,437.040527 1436.588623,449.797424 1438.079590,463.048615 
	C1440.155029,481.496124 1430.513306,495.279175 1417.609131,500.409515 
	C1398.848633,507.868195 1379.575806,507.573212 1360.536987,501.196930 
	C1351.209473,498.073029 1345.309570,490.855469 1340.909790,481.877808 
z"/>
</svg>