<svg enable-background="new 0 0 1024 656" viewBox="0 0 1024 358" xmlns="http://www.w3.org/2000/svg"><path d="m761.394653 273.627228c-15.804931 6.80011-31.691772 6.914306-47.845764 3.304199-4.45459-.995514-5.962768-2.950256-4.39624-7.748322 2.739746-8.391723 2.413086-8.345214 11.173523-6.727752 13.349243 2.464752 26.268127 1.603821 37.886108-6.286774 9.064881-6.156647 13.68158-15.38118 16.151428-25.636505 3.235657-13.435547 3.358887-27.047134.555909-40.606506-5.243653-25.36557-20.664795-42.176896-45.095093-49.359436-33.143555-9.744263-65.825867-7.450287-97.137146 8.059005-1.164551.576874-2.225464 1.362976-4.121948 2.540299 9.553894 1.006119 18.310119.168197 26.98114 1.439926 22.103515 3.241821 41.012634 11.603744 52.651916 31.898727 7.0047 12.213974 8.819214 25.622589 8.414734 39.486039-.278686 9.555542-1.63147 18.85588-5.134399 27.829467-7.002442 17.938248-22.083435 28.394608-40.804566 28.081955-18.531494-.309509-31.901733-10.147918-38.684753-28.470001-.228455-.616974-.427429-1.244873-.921448-2.691223-3.646728 6.699737-6.725281 12.971863-11.149841 18.511902-8.140015 10.192352-19.094299 12.996582-31.148865 12.519501-22.602112-.894532-32.979614-17.695588-36.03064-35.717591-.27777-1.640411-.907287-3.347153-.682556-4.924682.91388-6.414444-2.436462-8.355668-8.119445-8.734299-7.142273-.475861-10.717041-6.55603-16.466736-10.51265 5.770569-5.95462 10.96759-11.529251 16.391235-16.873916 15.66803-15.439942 31.331543-30.898316 48.344971-44.879761 3.545288-2.913498 4.0625-5.60144 1.52771-9.324341-2.247498-3.300979-4.084107-6.88913-6.869202-9.807159-5.906006-6.187805-14.963684-8.402222-21.405334-5.27089-5.116578 2.487198-8.907532 11.689621-7.95868 19.273606.618714 4.945144 2.097229 9.699569 3.582154 14.855896-6.706909 2.745651-13.545471 3.991318-20.334351 5.313843-2.169922.422714-3.167114-1.632447-3.885742-3.302277-5.150452-11.967774-6.42926-24.235992-1.082214-36.360672 4.986816-11.307861 14.911438-16.113159 26.55841-17.802353 20.345825-2.950798 34.187317 6.530502 44.078919 23.375717.673217 1.14653 1.29956 2.321091 1.992187 3.455475.16034.262772.503357.414032.862976.695282 2.227967.287491 3.464173-1.570419 5.023743-2.670303 19.094788-13.466866 39.236755-24.669487 62.716858-28.347924 24.949768-3.908676 49.577453-3.438804 72.782043 7.949509 26.015808 12.768028 39.796753 34.710121 44.397583 62.628853 3.432495 20.828812 2.471802 41.501587-5.966675 61.258331-5.455139 12.772141-13.659912 23.208267-26.831909 29.577805m-150.488037-106.232773c-4.327881-.431366-7.613281 1.603119-10.805054 4.240433-14.791748 12.222198-28.282226 25.802124-41.579223 39.587738-.74408.771438-1.955567 1.444961-1.300476 3.045074 3.525451 1.187363 7.557922.251373 11.097473 2.128845 0 4.339615-.270935 8.650513.062866 12.914063.511658 6.535156 2.692078 12.277588 8.724548 15.959091 19.121033 11.669266 42.934266.404617 45.572632-21.620224.155884-1.30162-.117859-3.091293 1.387451-3.458633 4.0766-.994828 8.367737-1.057236 12.364686-.117173 3.232177.760224 2.285766 4.495743 2.675109 6.886261 1.708313 10.487565 7.632874 17.055069 17.62732 20.209259 7.486145 2.362595 15.176574 2.3611 22.747864 1.14769 9.975646-1.598755 16.411621-7.617126 18.982543-17.496536 1.787537-6.869003 2.023377-13.919876.688904-20.79483-4.623779-23.821579-21.289734-38.607727-45.938476-41.766754-13.796387-1.768158-27.593018-.715622-42.308167-.864304z"/><path d="m185.416809 244.432159c-3.256302-39.688995 5.959503-74.933166 34.21579-103.574188 19.926742-20.198051 44.646454-30.72097 72.648376-34.314026 21.731049-2.788406 43.18277-2.31932 64.234711 4.078362 15.970429 4.853409 29.153381 13.652366 37.926025 28.319923 13.467164 22.516632 9.136658 60.166474-9.692718 76.286835-12.999146 11.128937-28.093689 13.714127-44.33844 12.627914-5.801941-.387939-11.597931-1.274353-17.037415-3.525985-19.874267-8.226746-28.06958-33.556778-16.934478-52.10376.819397-1.364853 2.314788-2.451523 2.081421-4.858017-9.424897 0-18.854981.002579-28.285096-.000824-7.475586-.002716-7.47583-.005966-7.516815-7.296646-.005615-.999878.09906-2.013855-.030212-2.997269-.620148-4.718643 1.391723-5.812088 6.010772-5.710602 13.151825.288956 26.317383-.114273 39.477662-.125793 13.653717-.011948 27.30783.181366 40.961273.13858 3.637665-.011413 4.956878 1.335098 4.883423 5.029709-.258026 12.976471.992828 10.759537-10.939515 10.938553-4.665191.070007-9.410919.560577-13.981109-.100449-8.007996-1.158279-17.633423 7.605652-18.768952 16.722016-1.34259 10.778961 3.594513 18.36261 13.867646 21.064026 9.754455 2.565033 19.471435 2.269027 29.040802-.7883 12.69403-4.055649 20.844055-16.089188 21.441467-31.297379.939606-23.919433-10.82605-40.954788-34.315063-47.590332-24.07193-6.800201-48.542756-6.575653-72.374573.969765-33.536728 10.618111-54.350449 33.94616-62.781357 67.859215-6.967545 28.026657-5.894394 55.914535 6.014969 82.572617 12.25647 27.435028 34.360626 42.668731 63.496338 47.786956 21.42984 3.764557 42.861206 3.261292 63.604217-3.986572 24.529663-8.570953 38.899414-25.772461 42.510193-51.782104 1.016815-7.324433 1.161286-14.588486.287109-21.876679-.328674-2.740524.292206-4.104095 3.230286-4.219849 3.156098-.124359 6.305054-.477478 9.451233-.790191 2.618988-.2603 4.235931.692032 4.337524 3.473587.609345 16.681747.772522 33.265701-5.651886 49.195541-9.423187 23.365631-26.824371 38.499756-49.96939 46.546234-32.965149 11.46045-66.51532 11.632477-99.434861-.183807-36.557861-13.122192-57.271103-40.263001-65.259323-77.739471-1.286468-6.035462-2.277023-12.101349-2.410034-18.74759z" fill="#d2691e"/><path d="m926.53418 258.375c-3.401123-4.798752-5.498719-9.89743-8.35968-15.555176-2.82721 6.155182-5.838257 11.557327-9.498047 16.566559-17.939637 24.554199-55.633301 27.668701-76.508789 6.309876-7.530152-7.70459-11.02649-17.284745-12.86377-27.624497-2.846985-16.021759-2.597839-31.953445 3.619263-47.142441 10.419006-25.454681 30.652466-37.561569 57.228393-40.177841 5.279785-.519745 10.66095.08696 15.983277-.127106 4.312072-.173446 5.704712 1.796677 5.110717 5.756714-.296081 1.973374-.835327 3.949143-.823669 5.921234.020264 3.429215-1.735474 4.125946-4.749023 4.027634-8.320801-.271408-16.580567-.166199-24.81427 1.764542-21.500855 5.041763-34.192139 20.137146-34.829529 42.108978-.149414 5.150452-.247986 10.319626 1.194336 15.368027 4.070068 14.245269 14.680786 22.616821 29.480041 23.295623 12.115051.555665 23.65625-.603668 32.903015-9.797042 4.502014-4.476136 7.447327-9.855225 9.244568-15.78061 1.146424-3.779861 3.208801-5.12651 6.901978-4.66957.984253.121795 2.013794.133392 2.993652-.006501 5.275574-.75325 7.742065 1.002747 9.09845 6.709351 2.527954 10.635345 10.148254 17.565704 20.277527 21.084442 10.802734 3.752701 21.987976 3.917206 32.852356.105866 12.553894-4.404068 18.865417-14.019913 19.647888-26.912919 1.565674-25.795959-12.009461-42.835403-38.592163-49.163726-10.251587-2.440506-20.668579-3.619477-31.194763-3.171982-4.960938.210892-6.408143-1.819596-6.004944-6.505264 1.503723-17.472123 6.556762-33.176239 22.356384-43.008904 15.023254-9.349556 31.132873-10.179535 47.355469-3.605766 10.007385 4.055229 14.772461 12.827911 16.378784 22.975708 1.275635 8.058441.863159 16.260208-1.473999 24.250961-.807495 2.760834-2.044617 4.095322-4.983215 2.864151-.765503-.320679-1.571839-.552048-2.372071-.780243-8.654358-2.467895-8.655029-2.465469-7.276367-11.23996 2.143799-13.643798-2.868958-20.819961-16.429993-23.521118-14.498474-2.887886-26.330566 2.470612-32.813842 14.860703-3.711731 7.093399-2.976868 8.415985 4.95819 9.088424 11.726014.993729 22.964051 3.931931 33.523926 9.103226 28.088745 13.755448 36.294617 36.626373 34.768189 63.419418-.532349 9.343445-2.347657 18.45337-6.265198 27.073868-8.213623 18.073746-24.30249 28.100754-44.153259 27.70076-17.392395-.350464-31.910401-6.075805-41.869812-21.565399z"/><g fill="#d2b48c"><path d="m161.45047 157.382141c-1.871429 2.449051-3.466949 1.056107-4.992737.140808-21.744705-13.044464-45.512344-17.57753-70.487755-16.085693-14.792617.883591-28.990707 4.482239-41.198757 13.503509-12.63562 9.33722-18.617834 22.268265-19.450781 37.712998-.36771 6.818207-.252826 13.636078 1.516062 20.333511 4.647249 17.595627 15.826599 29.054016 33.03402 34.368683 19.056541 5.885788 38.471733 6.072479 57.665535.988937 16.25708-4.30574 27.117553-14.289657 29.78688-31.821899 2.210129-14.516281-10.975739-33.264801-28.276497-33.88118 3.158157 5.799881 4.499832 11.796082 4.335732 18.2659-.348557 13.741897-7.676415 23.429916-21.089836 26.798813-7.158738 1.797958-14.405541 2.218979-21.761284.63919-12.436806-2.671096-20.824505-9.726394-23.530316-22.2695-2.97134-13.774002.119129-25.793152 12.172306-34.447052 6.871132-4.933319 14.810654-6.680146 22.99942-7.445038 17.118798-1.598969 33.645691.44931 48.729821 9.29245 17.87297 10.478149 26.722519 31.032776 23.164749 52.958999-4.66803 28.768631-24.996536 47.970093-54.088646 52.031739-17.245171 2.407653-34.201187 2.016296-50.968327-2.548371-21.638294-5.890838-37.055709-19.167541-45.507563-40.016052-8.085748-19.945389-9.653809-40.48111-2.839376-61.026718 8.069935-24.330933 25.752621-39.109726 50.088837-45.065384 36.112842-8.837662 71.035656-4.867645 104.091656 12.85025 2.806869 1.504486 3.697281 2.933441 1.828399 5.7818-1.824051 2.780059-3.356033 5.751754-5.221542 8.9393m-76.648216 55.444367c9.850654 2.278991 18.134033-1.418 20.55532-9.174118 3.941575-12.626114-4.015693-22.645218-17.199722-21.656357-8.11248.608444-13.710777 5.535644-14.738388 13.081085-.963676 7.075928 3.215759 16.51654 11.38279 17.74939z"/><path d="m442.812958 276.401428c-11.514801-5.14682-18.947388-13.907898-24.839112-24.265335-1.522674-2.676742-1.311004-4.379867 1.684571-5.960449 10.722839-5.657684 10.653229-5.730072 17.497192 4.344101 2.52768 3.720734 5.079193 7.472961 8.803803 10.137298 10.800628 7.726136 25.425415 4.269928 32.267852-7.552566 4.442475-7.675781 6.212128-16.121796 6.894684-24.804367 1.385315-17.622971 1.896485-35.246781-1.460449-52.741333-1.041443-5.427567-2.872498-10.589234-5.72934-15.366837-7.513488-12.565033-24.937316-14.737472-35.229431-4.36589-3.785034 3.814285-6.977264 8.082657-9.299408 12.92279-1.327148 2.766281-3.024292 3.223313-5.577362 1.75998-1.586975-.909607-3.266998-1.657654-4.910217-2.468232-7.352539-3.626937-7.218079-3.533966-2.469299-10.532547 10.602234-15.625183 25.011566-24.039398 44.121734-23.675338 3.032105.057754 4.137726-1.101899 4.131958-4.092636-.060547-31.32396.123932-62.649521-.145569-93.971322-.093963-10.923975-5.043151-15.112775-16.016296-14.965566-2.142609.028745-3.275879-.502312-3.88623-2.79069-2.791657-10.467011-.731995-13.107081 10.26416-13.348519 6.421417-.140991 11.81842 2.025264 16.105591 6.609344 2.228729 2.383098 3.701843 2.379243 6.148071.294361 6.551056-5.583426 14.231506-7.975467 22.7836-6.360566 12.838165 2.424238 21.367462 14.841256 19.988556 28.794135-.261597 2.646919-.504151 5.329235-1.140015 7.9001-3.558167 14.385361-16.3732 21.699818-30.783936 17.62669-2.361023-.667328-4.651275-1.584976-6.819915-2.333652-1.297852 1.129307-.937409 2.369781-.93805 3.475986-.013794 24.492802.003632 48.985615.001801 73.47842-.000183 2.368165.006866 4.524186 2.494446 6.0318 12.540588 7.600342 18.863342 19.467361 21.774261 33.281433 5.476288 25.988388 5.665741 51.906631-3.247772 77.254852-6.789398 19.307602-26.558807 31.09642-47.023438 28.936081-5.156402-.544342-10.25827-1.090332-15.446441-3.251526m44.049438-252.941236c-2.828369 3.338182-2.778229 7.339004-2.597656 11.361368.298553 6.649345 5.629578 11.753307 12.362366 11.858112 6.814575.106083 10.737365-3.781627 11.234588-11.206932.11081-1.65488.093781-3.323887.039307-4.98323-.162689-4.955281-1.583832-9.304224-6.653015-11.246695-5.40625-2.071651-10.106171-.696192-14.38559 4.217377z"/></g></svg>