<svg enable-background="new 0 0 1876 610" viewBox="0 0 1876 610" xmlns="http://www.w3.org/2000/svg"><path d="m1486 611c-495.333313 0-990.166656 0-1485 0 0-203.333344 0-406.666672 0-610h1876v610c-130.166626 0-260.333374 0-391 0m-1425.499443-113.491455c-6.125794 0-12.251583 0-18.626469 0 6.545876 32.694275 9.805893 64.330627-17.323599 90.589355 3.397971 1.737061 6.385622 3.556519 9.586283 4.848084 11.499497 4.640259 23.548412 5.825867 35.80613 4.960693 25.442871-1.795776 43.847564-17.593689 47.612968-41.894653 1.296761-8.368958.206184-17.107849.206184-25.708801h1655.802155c-.439209 4.434631-1.11084 8.568664-1.216919 12.717163-.674072 26.334228 13.130005 47.197204 38.856445 53.218689 14.286866 3.343933 28.476075 2.439026 42.365235-2.066712 4.452148-1.444275 8.593872-3.845886 13.405395-6.051513-13.529053-11.88324-19.694946-26.367798-21.61438-42.714051-1.877075-15.985778-.295532-31.820373 4.23523-47.898315-596.387329 0-1192.241028 0-1789.094658.000061m1353.999199-444.017178h359.060547c-.428467 4.430436-1.049561 8.534592-1.187378 12.654911-.855835 25.599892 12.168579 46.415917 37.015503 53.177773 10.951904 2.980492 22.059936 3.157707 33.148315.996513 13.376465-2.607155 18.305542-4.675728 23.388184-9.130996-26.175904-26.128426-23.592163-57.666954-16.714966-90.050068-601.500488 0-1202.750671 0-1804.068699 0 6.682472 32.60765 9.832287 64.417797-17.237358 90.432865 16.346863 9.678726 38.286472 12.764129 56.515774 8.000328 25.695533-6.71492 40.373115-29.771202 37.158325-58.346718-.274269-2.437874-.454384-4.886345-.715309-7.734562 431.191383 0 861.914223 0 1293.637062-.000046m-1327.999695 104.673855c-17.913559 0-35.827122 0-54.089931 0 4.108696 16.090958 6.205783 31.888992 4.246608 47.934891-2.014705 16.500702-8.257835 31.081757-21.382611 42.651031 18.857839 10.73082 38.309934 12.991135 58.632588 7.187165 19.749131-5.640137 31.294945-19.217835 34.609429-39.128037 1.385925-8.325363.23043-17.073776.23043-25.722076h62.593499c-.820023 23.001709-3.680558 45.299362-13.294052 66.251434-7.165406 15.616608-17.817292 28.784424-28.978653 41.664948-15.692872 18.110016-32.172791 35.655578-44.354325 56.503601-16.256096 27.82138-12.158096 56.092407-1.88919 84.759643 26.264335-1.51712 51.993164-3.003326 77.842285-4.49646 0-7.36026 0-14.404113 0-21.751312-1.984192 0-3.639435.085815-5.283524-.013367-14.937103-.901367-23.124939-9.46231-23.523392-24.305603-.220718-8.222595 1.754593-15.831085 5.825364-22.902282 9.997146-17.365631 24.551345-31.020081 37.655792-45.843567.794555-.898804 3.079544-1.141266 4.429107-.781555 9.142151 2.436859 18.386704 4.649414 27.27887 7.827728 14.13562 5.052521 24.03627 15.028992 30.787628 28.375336 7.594193 15.012542 10.878495 31.346282 15.295838 47.373504 2.899551 10.520355 6.860092 20.75943 10.601425 31.03122 1.491394 4.094574 4.448578 5.752533 9.26831 5.309814 12.600892-1.157471 25.262177-1.65094 37.897004-2.447327 9.756774-.61499 19.509918-1.28775 29.27832-1.93576 0-7.078949 0-13.802063 0-20.5-18.438019-.974854-25.534149-9.335938-30.879089-24.027435-4.091706-11.246796-7.357361-22.791382-11.158539-34.147217-9.344117-27.9151-27.220185-47.517609-56.083924-55.45987-14.215866-3.911743-28.820373-6.41101-43.578445-9.621093 20.788681-30.027527 29.369034-64.741349 32.766205-100.772873h58.039902c-.271668 5.984283-.973115 11.655914-.702118 17.280685.847351 17.585602 6.925232 32.957977 22.882202 41.868668 23.749542 13.262192 47.640777 10.872665 71.203003-1.255448-26.815766-26.687164-24.355561-58.328933-17.320465-90.908371-92.897889 0-185.37172 0-278.845551-.000015m1137.145325 196.781677c16.744507 3.865632 33.69165 4.713807 50.602051 1.937714 24.171752-3.968109 44.745117-14.500915 59.7854-34.585113 8.836182-11.799683 14.033569-25.100556 17.203857-39.391877 23.3042 15.447785 26.185669 16.211853 62.669434 16.619721-.802612 1.56662-1.508911 3.04837-2.303833 4.480896-8.80542 15.86557-18.178467 31.44754-26.264038 47.671325-6.421631 12.885376-12.254639 26.244568-16.569702 39.953461-5.251221 16.683746-4.634888 33.754578 2.102905 50.613983 27.200317-2.163421 54.212646-4.311859 81.362793-6.471252 0-8.375794 0-16.457215 0-24.498139-3.400391-.378082-6.550903-.613159-9.663208-1.094635-12.43396-1.923645-19.405396-9.856994-17.612671-22.118866 1.328369-9.084411 3.487183-18.488586 7.493408-26.663543 16.910034-34.505371 34.463257-68.700959 52.166992-102.809571 8.959107-17.26091 14.573121-35.374237 15.863526-54.705841 1.140381-17.083709-2.07605-33.097412-13.24231-46.88533-2.08667-2.576462-4.112427-3.263061-7.142944-3.002594-10.619873.912827-21.253662 1.666824-31.882813 2.472595-10.105957.766098-20.21289 1.521469-30.499145 2.29506v25.83229c.769043.130448 1.394531.28711 2.028442.33664 15.486817 1.210479 23.537842 8.347061 24.192993 23.697845.427002 10.006271-.645874 20.245697-2.443237 30.126648-1.563721 8.596008-6.058716 16.401535-13.512695 21.529343-14.624512 10.060608-30.418945 10.261474-46.068604 3.129944-14.169555-6.456879-19.093506-19.349198-19.920776-33.878357-.747559-13.130143-.457398-26.316437-1.026856-39.460541-.500366-11.545365-4.118042-22.167969-10.813842-31.701203-2.280274-3.246673-4.855591-4.858184-9.119629-4.413223-9.935181 1.036743-19.924439 1.5504-29.889405 2.307144-10.912963.828736-21.823242 1.692566-32.737304 2.541291v25.9617c1.861816.129456 3.506347.186401 5.137207.366425 11.704956 1.292175 18.416382 7.541031 20.364624 19.10231.524292 3.111236.981567 6.281662.98291 9.42511.00708 17.161438.093262 34.328369-.311035 51.482498-.271607 11.522064-2.215332 22.844452-6.526245 33.651184-6.906128 17.312256-21.671021 26.313354-41.185669 25.068451-19.223389-1.226319-31.400879-10.94281-35.590943-29.896301-2.319702-10.493256-3.756347-21.335816-4.136352-32.072419-.854248-24.136245-.647095-48.308075-1.186279-72.458404-.250367-11.218125-3.642945-21.592072-10.323487-30.78093-2.52185-3.468719-5.396972-5.510772-10.05249-4.659469-3.911377.715179-7.953979.717605-11.939575 1.020507-16.436035 1.249115-32.872437 2.492478-49.302857 3.737504v25.970809c18.339478 1.626053 24.501831 7.579957 25.335205 25.780091.631958 13.803436-.325317 27.687546.492432 41.472412.834351 14.062988 1.795288 28.304626 4.777222 42.016449 6.883545 31.652038 26.096679 52.438293 58.706543 60.946258m312.855835-31.918365c-2.63086 5.910461-5.923096 11.621918-7.772339 17.767548-6.344238 21.084747-6.273926 41.820373 6.34082 60.888122 10.41565 15.743866 26.439209 23.428803 43.937988 28.276947 19.241333 5.330994 39.025391 6.51648 58.895386 6.527161 35.484863.019043 70.969849.00534 106.570191.00534 5.267822 19.233673 17.570434 31.596192 36.646362 36.497132 18.366943 4.718811 36.149902 3.423126 52.074951-7.457611-24.181396-29.554108-23.286011-58.42807.232788-87.276307-10.144531-6.479705-21.33728-8.453765-32.977905-8.639862-13.376343-.213897-26.289795 1.848938-37.75354 9.2016-9.241577 5.927459-15.512695 14.307647-18.192505 24.902587-36.18042 0-71.994507.271668-107.799072-.195648-8.685913-.113403-17.591919-1.803802-25.958863-4.260376-20.847778-6.121063-29.996826-24.059967-23.795654-45.014953 4.219971-14.259461 13.86731-24.705323 25.213379-33.300904 18.156372-13.755035 36.927368-26.704254 55.588989-39.779541 2.246826-1.574218 5.420044-2.535125 8.175659-2.561859 21.32544-.207001 42.653809-.114105 63.981202-.114105h5.182495c-.301636 2.218201-.519043 3.846741-.744629 5.474152-3.248535 23.428192 6.201904 43.593261 25.169311 53.079742 13.626221 6.815155 28.177246 7.383484 42.937378 5.367096 8.934082-1.22052 17.426026-3.824127 24.983521-9.381683-26.78418-24.945496-23.426148-55.561921-16.650391-87.192261-35.5531 0-70.766479 0-106.300537 0 22.989136-29.72757 26.755249-62.805679 10.499023-90.833954-25.265991 1.254257-50.62207 2.512985-75.958374 3.770737v27.244644c.962403.115158 1.754273.242996 2.551148.30011 7.070312.506683 13.905518 1.908981 16.805908 9.359543 3.211914 8.25122 3.11145 16.682556-3.57019 23.247665-5.888916 5.786224-12.32605 11.173248-19.141236 15.828766-22.94519 15.674133-46.468261 30.515533-69.179199 46.514618-15.717285 11.072326-29.338379 24.602203-39.992065 41.755554m-821.551148-70.497833c1.779724-1.020005 3.55951-2.040009 5.34607-3.063904-26.407654-26.493302-23.944214-58.021256-17.038941-90.432816-78.749817 0-157.179565 0-236.089935 0v5.559922c0 70.154525-.072846 140.309204.082397 210.463409.022034 9.960144.673035 19.977142 1.894287 29.861389 1.456635 11.789398 4.752564 23.12265 11.875061 32.989014 1.778565 2.463775 3.704621 3.612884 7.03711 3.340118 12.615234-1.032593 25.26651-1.616943 37.898529-2.455444 14.768371-.980316 29.53064-2.051025 44.223816-3.077515 0-9.224609 0-18.131317 0-27.267456-2.61676-.142364-4.933838-.267914-7.250855-.394501-15.839538-.8656-24.831543-7.808593-28.128601-23.292602-1.787353-8.393585-2.486755-17.159943-2.520935-25.762756-.216736-54.489716-.112182-108.980713-.100281-163.471283.000306-1.424073.151917-2.848114.226807-4.163056h94.102844c0 6.337906-.127563 12.48111.022583 18.617523.578736 23.653321 15.828125 42.579773 38.894471 47.590455 16.677368 3.622802 33.101806 2.420532 49.525573-5.040497m156.159729 55.846069c6.366638 8.953552 12.705567 17.92691 19.105591 26.856537 14.197754 19.809418 23.419373 41.10849 22.497376 66.249817-.512085 13.96466.926269 27.981476 8.871826 40.742096 22.927124-1.767426 45.989685-3.538483 69.05072-5.328705 4.612732-.358093 9.219849-.789032 13.920227-1.194153 0-8.29895 0-16.361175 0-23.72757-7.715698-1.355957-15.147278-2.209655-22.327881-4.045227-7.918945-2.024261-13.528076-7.283233-15.548706-15.345275-1.156067-4.612519-1.673218-9.523926-1.586975-14.284638.335327-18.501861-5.544922-34.620788-17.654907-48.531158-1.918518-2.203827-3.880921-4.369538-6.22345-7.0029 1.39447-.39447 2.15863-.55722 2.884644-.823883 13.862976-5.091156 28.334961-8.969421 41.458129-15.540588 31.112732-15.578979 49.31128-40.38797 49.555054-76.367187.254273-37.511536-19.659851-62.962403-54.133728-72.740433-24.551575-6.9637-49.421631-6.826248-74.004394-.130051-19.106507 5.204498-35.616333 14.907593-47.046021 31.67189-15.321533 22.472687-16.039429 47.324799-11.219849 72.926651 3.249573 17.261322 12.263611 31.829529 22.402344 46.614777z" fill="#fefefe"/><path d="m61.000549 497.508514c596.353638-.00003 1192.207337-.00003 1788.594666-.00003-4.530762 16.077942-6.112305 31.912537-4.23523 47.898315 1.919434 16.346253 8.085327 30.830811 21.61438 42.714051-4.811523 2.205627-8.953247 4.607238-13.405395 6.051513-13.88916 4.505738-28.078369 5.410645-42.365235 2.066712-25.72644-6.021485-39.530517-26.884461-38.856445-53.218689.106079-4.148499.77771-8.282532 1.216919-12.717163-551.768555 0-1103.615784 0-1655.802155 0 0 8.600952 1.090577 17.339843-.206184 25.708801-3.765404 24.300964-22.170097 40.098877-47.612968 41.894653-12.257718.865174-24.306633-.320434-35.80613-4.960693-3.200661-1.291565-6.188312-3.111023-9.586283-4.848084 27.129492-26.258728 23.869475-57.89508 17.323599-90.589355 6.374886 0 12.500675 0 19.126461-.000031z"/><path d="m1413.999756 53.49139c-431.222839.000023-861.945679.000023-1293.137062.000023.260925 2.848217.44104 5.296688.715309 7.734562 3.21479 28.575516-11.462792 51.631798-37.158325 58.346718-18.229302 4.763801-40.168911 1.678398-56.515774-8.000328 27.069645-26.015068 23.91983-57.825215 17.237358-90.432865h1804.068699c-6.877197 32.383114-9.460938 63.921642 16.714966 90.050068-5.082642 4.455268-10.011719 6.523841-23.388184 9.130996-11.088379 2.161194-22.196411 1.983979-33.148315-.996513-24.846924-6.761856-37.871338-27.577881-37.015503-53.177773.137817-4.120319.758911-8.224475 1.187378-12.654911-119.814331 0-239.437378 0-359.560547.000023z"/><path d="m87.000069 158.165222c92.973823.000015 185.447654.000015 278.345543.000015-7.035096 32.579438-9.495301 64.221207 17.320465 90.908371-23.562226 12.128113-47.453461 14.51764-71.203003 1.255448-15.95697-8.910691-22.034851-24.283066-22.882202-41.868668-.270997-5.624771.43045-11.296402.702118-17.280685-18.984955 0-38.216599 0-58.039902 0-3.397171 36.031524-11.977524 70.745346-32.766205 100.772873 14.758072 3.210083 29.362579 5.70935 43.578445 9.621093 28.863739 7.942261 46.739807 27.54477 56.083924 55.45987 3.801178 11.355835 7.066833 22.900421 11.158539 34.147217 5.34494 14.691497 12.44107 23.052581 30.879089 24.027435v20.5c-9.768402.64801-19.521546 1.32077-29.27832 1.93576-12.634827.796387-25.296112 1.289856-37.897004 2.447327-4.819732.442719-7.776916-1.21524-9.26831-5.309814-3.741333-10.27179-7.701874-20.510865-10.601425-31.03122-4.417343-16.027222-7.701645-32.360962-15.295838-47.373504-6.751358-13.346344-16.652008-23.322815-30.787628-28.375336-8.892166-3.178314-18.136719-5.390869-27.27887-7.827728-1.349563-.359711-3.634552-.117249-4.429107.781555-13.104447 14.823486-27.658646 28.477936-37.655792 45.843567-4.070771 7.071197-6.046082 14.679687-5.825364 22.902282.398453 14.843293 8.586289 23.404236 23.523392 24.305603 1.644089.099182 3.299332.013367 5.283524.013367v21.751312c-25.849121 1.493134-51.57795 2.97934-77.842285 4.49646-10.268906-28.667236-14.366906-56.938263 1.88919-84.759643 12.181534-20.848023 28.661453-38.393585 44.354325-56.503601 11.161361-12.880524 21.813247-26.04834 28.978653-41.664948 9.613494-20.952072 12.474029-43.249725 13.294052-66.251434-21.034577 0-41.792511 0-62.593499 0 0 8.6483 1.155495 17.396713-.23043 25.722076-3.314484 19.910202-14.860298 33.4879-34.609429 39.128037-20.322654 5.80397-39.774749 3.543655-58.632588-7.187165 13.124776-11.569274 19.367906-26.150329 21.382611-42.651031 1.959175-16.045899-.137912-31.843933-4.246608-47.934891z" fill="#020202"/><g fill="#010101"><path d="m1223.236816 354.880585c-32.201294-8.441651-51.414428-29.227906-58.297973-60.879944-2.981934-13.711823-3.942871-27.953461-4.777222-42.016449-.817749-13.784866.139526-27.668976-.492432-41.472412-.833374-18.200134-6.995727-24.154038-25.335205-25.780091 0-8.542602 0-17.122772 0-25.970809 16.43042-1.245026 32.866822-2.488389 49.302857-3.737504 3.985596-.302902 8.028198-.305328 11.939575-1.020507 4.655518-.851303 7.53064 1.19075 10.05249 4.659469 6.680542 9.188858 10.07312 19.562805 10.323487 30.78093.539184 24.150329.332031 48.322159 1.186279 72.458404.380005 10.736603 1.81665 21.579163 4.136352 32.072419 4.190064 18.953491 16.367554 28.669982 35.590943 29.896301 19.514648 1.244903 34.279541-7.756195 41.185669-25.068451 4.310913-10.806732 6.254638-22.12912 6.526245-33.651184.404297-17.154129.318115-34.32106.311035-51.482498-.001343-3.143448-.458618-6.313874-.98291-9.42511-1.948242-11.561279-8.659668-17.810135-20.364624-19.10231-1.63086-.180024-3.275391-.236969-5.137207-.366425 0-8.60405 0-17.040543 0-25.9617 10.914062-.848725 21.824341-1.712555 32.737304-2.541291 9.964966-.756744 19.954224-1.270401 29.889405-2.307144 4.264038-.444961 6.839355 1.16655 9.119629 4.413223 6.6958 9.533234 10.313476 20.155838 10.813842 31.701203.569458 13.144104.279297 26.330398 1.026856 39.460541.82727 14.529159 5.751221 27.421478 19.920776 33.878357 15.649659 7.13153 31.444092 6.930664 46.068604-3.129944 7.453979-5.127808 11.948974-12.933335 13.512695-21.529343 1.797363-9.880951 2.870239-20.120377 2.443237-30.126648-.655151-15.350784-8.706176-22.487366-24.192993-23.697845-.633911-.04953-1.259399-.206192-2.028442-.33664 0-8.568695 0-16.99971 0-25.83229 10.286255-.773591 20.393188-1.528962 30.499145-2.29506 10.629151-.805771 21.26294-1.559768 31.882813-2.472595 3.030517-.260467 5.056274.426132 7.142944 3.002594 11.16626 13.787918 14.382691 29.801621 13.24231 46.88533-1.290405 19.331604-6.904419 37.444931-15.863526 54.705841-17.703735 34.108612-35.256958 68.3042-52.166992 102.809571-4.006225 8.174957-6.165039 17.579132-7.493408 26.663543-1.792725 12.261872 5.178711 20.195221 17.612671 22.118866 3.112305.481476 6.262817.716553 9.663208 1.094635v24.498139c-27.150147 2.159393-54.162476 4.307831-81.362793 6.471252-6.737793-16.859405-7.354126-33.930237-2.102905-50.613983 4.315063-13.708893 10.148071-27.068085 16.569702-39.953461 8.085571-16.223785 17.458618-31.805755 26.264038-47.671325.794922-1.432526 1.501221-2.914276 2.303833-4.480896-36.483765-.407868-39.365234-1.171936-62.669434-16.619721-3.170288 14.291321-8.367675 27.592194-17.203857 39.391877-15.040283 20.084198-35.613648 30.617004-59.7854 34.585113-16.910401 2.776093-33.857544 1.927918-51.010621-2.004028z"/><path d="m1536.684326 322.712463c10.470581-16.83728 24.091675-30.367157 39.80896-41.439483 22.710938-15.999085 46.234009-30.840485 69.179199-46.514618 6.815186-4.655518 13.25232-10.042542 19.141236-15.828766 6.68164-6.565109 6.782104-14.996445 3.57019-23.247665-2.90039-7.450562-9.735596-8.85286-16.805908-9.359543-.796875-.057114-1.588745-.184952-2.551148-.30011 0-8.974701 0-17.759735 0-27.244644 25.336304-1.257752 50.692383-2.51648 75.958374-3.770737 16.256226 28.028275 12.490113 61.106384-10.499023 90.833954h106.300537c-6.775757 31.63034-10.133789 62.246765 16.650391 87.192261-7.557495 5.557556-16.049439 8.161163-24.983521 9.381683-14.760132 2.016388-29.311157 1.448059-42.937378-5.367096-18.967407-9.486481-28.417846-29.65155-25.169311-53.079742.225586-1.627411.442993-3.255951.744629-5.474152-1.979737 0-3.581055 0-5.182495 0-21.327393 0-42.655762-.092896-63.981202.114105-2.755615.026734-5.928833.987641-8.175659 2.561859-18.661621 13.075287-37.432617 26.024506-55.588989 39.779541-11.346069 8.595581-20.993408 19.041443-25.213379 33.300904-6.201172 20.954986 2.947876 38.89389 23.795654 45.014953 8.366944 2.456574 17.27295 4.146973 25.958863 4.260376 35.804565.467316 71.618652.195648 107.799072.195648 2.67981-10.59494 8.950928-18.975128 18.192505-24.902587 11.463745-7.352662 24.377197-9.415497 37.75354-9.2016 11.640625.186097 22.833374 2.160157 32.977905 8.639862-23.518799 28.848237-24.414184 57.722199-.232788 87.276307-15.925049 10.880737-33.708008 12.176422-52.074951 7.457611-19.075928-4.90094-31.37854-17.263459-36.646362-36.497132-35.600342 0-71.085328.013703-106.570191-.00534-19.869995-.010681-39.654053-1.196167-58.895386-6.527161-17.498779-4.848144-33.522338-12.533081-43.937988-28.276947-12.614746-19.067749-12.685058-39.803375-6.34082-60.888122 1.849243-6.14563 5.141479-11.857087 7.955444-18.083619z"/><path d="m714.613037 252.703003c-16.086731 7.288727-32.511169 8.490997-49.188537 4.868195-23.066346-5.010682-38.315735-23.937134-38.894471-47.590455-.150146-6.136413-.022583-12.279617-.022583-18.617523-30.424377 0-62.037353 0-94.102844 0-.07489 1.314942-.226501 2.738983-.226807 4.163056-.011901 54.49057-.116455 108.981567.100281 163.471283.03418 8.602813.733582 17.369171 2.520935 25.762756 3.297058 15.484009 12.289063 22.427002 28.128601 23.292602 2.317017.126587 4.634095.252137 7.250855.394501v27.267456c-14.693176 1.02649-29.455445 2.097199-44.223816 3.077515-12.632019.838501-25.283295 1.422851-37.898529 2.455444-3.332489.272766-5.258545-.876343-7.03711-3.340118-7.122497-9.866364-10.418426-21.199616-11.875061-32.989014-1.221252-9.884247-1.872253-19.901245-1.894287-29.861389-.155243-70.154205-.082397-140.308884-.082397-210.463409 0-1.788086 0-3.576172 0-5.559922h236.089935c-6.905273 32.41156-9.368713 63.939514 17.038941 90.432816-1.78656 1.023895-3.566346 2.043899-5.683106 3.236206z"/><path d="m870.902588 308.084167c-9.931519-14.492645-18.945557-29.060852-22.19513-46.322174-4.81958-25.601852-4.101684-50.453964 11.219849-72.926651 11.429688-16.764297 27.939514-26.467392 47.046021-31.67189 24.582763-6.696197 49.452819-6.833649 74.004394.130051 34.473877 9.77803 54.388001 35.228897 54.133728 72.740433-.243774 35.979217-18.442322 60.788208-49.555054 76.367187-13.123168 6.571167-27.595153 10.449432-41.458129 15.540588-.726014.266663-1.490174.429413-2.884644.823883 2.342529 2.633362 4.304932 4.799073 6.22345 7.0029 12.109985 13.91037 17.990234 30.029297 17.654907 48.531158-.086243 4.760712.430908 9.672119 1.586975 14.284638 2.02063 8.062042 7.629761 13.321014 15.548706 15.345275 7.180603 1.835572 14.612183 2.68927 22.327881 4.045227v23.72757c-4.700378.405121-9.307495.83606-13.920227 1.194153-23.061035 1.790222-46.123596 3.561279-69.05072 5.328705-7.945557-12.76062-9.383911-26.777436-8.871826-40.742096.921997-25.141327-8.299622-46.440399-22.497376-66.249817-6.400024-8.929627-12.738953-17.902985-19.312805-27.14914m90.341919-120.020538c-9.28888-4.143143-19.087219-4.586243-28.834534-2.919556-14.927429 2.552414-25.507385 10.911103-30.244995 25.602738-3.326355 10.315369-3.332031 20.988281-1.658142 31.587006 3.172546 20.087844 13.576172 36.502822 26.885315 51.599044 4.199036-1.275146 8.49707-2.448303 12.705078-3.885162 9.379211-3.202484 18.078308-7.707001 25.212646-14.698303 17.235718-16.889954 20.320069-37.716172 16.213807-60.336823-2.173401-11.972946-8.471741-21.123489-20.279175-26.948944z"/></g><path d="m961.58728 188.230499c11.464661 5.658585 17.763001 14.809128 19.936402 26.782074 4.106262 22.620651 1.021911 43.446869-16.213807 60.336823-7.134338 6.991302-15.833435 11.495819-25.212646 14.698303-4.208008 1.436859-8.506042 2.610016-12.705078 3.885162-13.309143-15.096222-23.712769-31.5112-26.885315-51.599044-1.673889-10.598725-1.668213-21.271637 1.658142-31.587006 4.73761-14.691635 15.317566-23.050324 30.244995-25.602738 9.747315-1.666687 19.545654-1.223587 29.177307 3.086426z" fill="#fefefe"/></svg>