<svg version="1.1" id="Layer_1" xmlns="http://www.w3.org/2000/svg" xmlns:xlink="http://www.w3.org/1999/xlink" x="0px" y="0px"
	 width="100%" viewBox="0 0 1024 496" enable-background="new 0 0 1024 496" xml:space="preserve">
<path fill="#000000" opacity="1.000000" stroke="none" 
	d="
M68.458069,497.000000 
	C60.229836,489.237305 52.335842,481.594025 44.713448,473.688843 
	C24.281265,452.498718 13.309057,427.042145 10.572577,397.815857 
	C6.940931,359.028900 19.674633,326.125397 46.190987,298.222626 
	C57.656811,286.157288 69.084824,274.008728 83.564613,265.279388 
	C95.679291,257.975861 108.679237,253.085251 122.391983,249.900436 
	C124.825500,249.335236 126.867989,249.577606 128.701996,251.618256 
	C131.371536,254.588531 134.231155,257.399750 137.144562,260.135193 
	C139.263840,262.124969 139.451355,263.590698 137.243500,265.875122 
	C130.951767,272.384979 124.499451,277.631744 114.945015,279.638092 
	C100.168358,282.741058 86.908440,289.987305 74.770218,299.085083 
	C63.214855,307.746002 55.733608,319.627258 49.868759,332.353943 
	C29.291821,377.005737 34.055477,419.623108 61.336391,460.080719 
	C62.595627,461.948242 63.784801,464.026154 65.913063,465.070557 
	C67.331680,464.550598 67.525040,463.318512 67.936623,462.268158 
	C79.919456,431.688293 99.724030,406.790497 123.205162,384.224640 
	C146.755112,361.592560 173.086960,343.839233 204.138565,333.350220 
	C231.849960,323.989532 260.193665,320.763916 289.264771,324.444611 
	C292.564484,324.862366 295.853882,325.461456 299.166870,325.656006 
	C309.458191,326.260284 317.329468,331.057587 323.764465,338.911682 
	C325.714813,341.292206 326.513458,342.944977 323.843109,345.041901 
	C323.582916,345.246216 323.337097,345.485229 323.138153,345.748627 
	C317.247803,353.546356 310.727295,355.951141 300.136841,353.799011 
	C265.428772,346.745941 231.226288,350.580658 198.087494,363.133301 
	C173.998169,372.258057 151.708847,384.830200 133.413757,402.921997 
	C116.091148,420.052124 103.872269,441.007172 95.141777,463.849731 
	C94.190849,466.337738 93.037483,468.776581 92.372650,471.340576 
	C89.938423,480.728485 87.092049,489.855988 79.103180,496.678711 
	C75.638710,497.000000 72.277428,497.000000 68.458069,497.000000 
z"/>
<path fill="#000000" opacity="1.000000" stroke="none" 
	d="
M977.648438,198.597076 
	C942.474609,268.757996 907.475586,338.588623 872.490173,408.426056 
	C869.415833,414.562958 863.790894,418.424896 859.342896,423.334808 
	C857.592773,425.266632 856.098450,424.077423 854.706238,422.666107 
	C850.855103,418.761841 846.989014,414.872406 843.085815,410.933655 
	C837.214600,413.557037 831.602783,416.515167 825.689575,418.630951 
	C795.397583,429.469666 765.884521,428.508911 738.851501,409.884613 
	C723.480164,399.294525 709.343567,386.562958 700.860291,369.502869 
	C687.206665,342.044891 692.895447,313.238922 715.465393,290.255707 
	C724.210022,281.350983 732.734070,272.180176 743.524963,265.560089 
	C756.491638,257.605225 770.859741,253.454727 785.431824,249.821442 
	C786.873901,249.461884 788.427979,249.490295 789.620361,248.366470 
	C789.921997,246.936722 788.741089,246.290237 787.979797,245.514465 
	C761.073364,218.096649 761.349609,177.171936 786.013245,149.016113 
	C799.018433,134.169479 812.247681,119.068611 831.053833,110.912842 
	C853.405334,101.219543 876.686584,96.961998 901.133423,98.359642 
	C927.520996,99.868225 952.125488,107.264671 975.746399,118.724022 
	C979.570251,120.579109 982.085144,123.951851 985.513672,125.954765 
	C987.140991,125.211510 987.576904,123.858101 988.003357,122.659447 
	C991.093140,113.974556 997.840393,108.188545 1004.091187,101.968857 
	C1006.095947,99.974129 1007.689636,99.887878 1009.474915,102.001083 
	C1009.581909,102.127731 1009.709900,102.237297 1009.832520,102.349983 
	C1020.896973,112.517334 1020.894714,112.516167 1014.149536,125.944466 
	C1002.040344,150.051682 989.934265,174.160446 977.648438,198.597076 
M726.638306,365.859375 
	C729.236145,371.070282 731.409546,376.717072 736.073059,380.406799 
	C749.093689,390.708710 764.087036,396.441010 780.599854,397.607544 
	C807.636108,399.517487 832.110291,392.193604 853.319397,375.298920 
	C859.095825,370.697510 865.924316,366.837067 869.454773,359.788177 
	C882.506104,333.729614 895.535645,307.660095 908.544250,281.580200 
	C909.256226,280.152985 910.463867,278.809906 909.822021,276.623566 
	C907.515686,276.193787 905.110413,275.585693 902.667786,275.314545 
	C869.313538,271.612152 835.913940,270.608948 802.510925,274.441895 
	C783.364563,276.638885 764.820374,281.214966 747.916321,290.911102 
	C742.469727,294.035278 736.829163,296.959625 733.130554,302.483948 
	C719.916504,322.220459 717.569458,343.081238 726.638306,365.859375 
M804.600769,160.115112 
	C801.379517,167.265030 798.872131,174.683334 797.035278,182.281052 
	C793.071045,198.677582 795.742249,214.215866 803.329651,229.163940 
	C809.243042,240.814102 818.617554,245.203674 831.409180,244.852982 
	C860.209167,244.063446 888.997375,244.533981 917.301941,250.790512 
	C922.025452,251.834625 924.001038,250.739594 926.058655,246.579620 
	C940.302795,217.781540 954.833740,189.125473 969.193848,160.384430 
	C971.400269,155.968430 974.052185,151.723923 975.392334,147.038513 
	C973.917114,145.138794 971.933105,144.578384 970.152527,143.734695 
	C940.195862,129.539871 908.772095,123.032478 875.644104,126.401833 
	C856.756470,128.322830 838.659607,133.206955 822.392456,143.444260 
	C815.632202,147.698669 808.861206,152.054962 804.600769,160.115112 
z"/>
<path fill="#000000" opacity="1.000000" stroke="none" 
	d="
M663.037354,304.085419 
	C664.765686,313.136292 669.241272,320.614746 673.015564,328.372223 
	C674.689270,331.812256 676.647278,335.114594 678.493164,338.470093 
	C684.688843,349.732727 683.557068,360.293945 675.067078,369.847076 
	C658.659363,388.309448 641.127686,405.518738 620.717834,419.698975 
	C614.942627,423.711426 609.380859,425.404114 602.378296,425.389374 
	C507.908142,425.190308 413.437378,425.260193 318.966766,425.261505 
	C313.563568,425.261566 301.582306,417.019379 299.779572,412.150696 
	C299.194733,410.571259 300.013306,409.623779 300.987976,408.666077 
	C303.364624,406.330811 305.922791,404.151825 308.080933,401.630096 
	C310.680664,398.592407 313.693634,397.582275 317.693939,397.590820 
	C373.009827,397.708527 428.326019,397.673218 483.642151,397.675751 
	C516.798523,397.677277 549.954834,397.692627 583.111145,397.652039 
	C585.365784,397.649261 587.734253,398.194427 589.915894,396.985474 
	C590.172974,394.894379 588.882751,393.447479 588.088501,391.866211 
	C567.229370,350.342712 546.405640,308.801147 525.362427,267.371033 
	C523.385376,263.478607 523.656860,261.035187 526.943665,258.409973 
	C530.305664,255.724716 532.568848,250.406998 536.510620,250.117615 
	C540.616272,249.816193 542.798523,255.405334 546.203125,257.980225 
	C549.320129,260.337555 551.354370,263.501923 553.107056,266.998810 
	C573.704224,308.093170 594.384277,349.145966 615.050598,390.205658 
	C615.566833,391.231293 616.174622,392.210815 616.852295,393.411224 
	C621.457458,392.174988 624.693176,388.904633 628.237000,386.333710 
	C635.640320,380.962891 642.936523,375.392975 648.619995,368.069885 
	C656.176392,358.333496 656.827209,349.212067 650.808289,338.398682 
	C645.864502,329.516907 641.405029,320.402954 637.442627,311.032532 
	C632.999573,300.525177 634.765686,291.390045 642.394287,282.927460 
	C654.230347,269.797546 668.166504,259.374451 683.094238,250.119064 
	C685.063904,248.897873 686.657959,248.562119 688.397339,250.362289 
	C691.521851,253.596008 694.673767,256.805145 697.880188,259.957428 
	C700.049744,262.090424 698.427795,263.350006 697.048889,264.909393 
	C689.464050,273.486725 680.560852,280.454010 670.607910,285.983398 
	C663.306335,290.039795 661.665100,296.120178 663.037354,304.085419 
z"/>
<path fill="chocolate" opacity="1.000000" stroke="none" 
	d="
M522.232056,96.072342 
	C514.596741,91.664291 509.296478,85.104767 503.150177,79.540886 
	C490.078674,67.707970 477.295319,55.556774 464.057159,43.222340 
	C457.964722,48.498734 452.063934,53.549164 446.229309,58.674931 
	C434.472992,69.002937 422.745789,79.364227 411.020325,89.727272 
	C404.906525,95.130692 397.623413,95.090263 392.938446,89.587112 
	C388.367767,84.218193 389.320740,77.457703 395.576019,72.027626 
	C409.284271,60.127838 423.253357,48.518303 436.333435,35.916920 
	C443.768127,28.754284 451.103027,21.474564 458.189667,13.970684 
	C461.097107,10.892084 463.034485,10.475245 466.307434,13.550509 
	C488.518280,34.420067 510.902649,55.104851 533.204773,75.877419 
	C537.913269,80.263008 539.001343,85.278442 536.517517,90.276306 
	C534.005188,95.331444 529.008850,97.456284 522.232056,96.072342 
z"/>
<path fill="#000000" opacity="1.000000" stroke="none" 
	d="
M487.489685,134.676300 
	C497.219269,156.595444 494.917480,177.487122 483.580658,197.638428 
	C478.853485,206.040985 473.336639,213.995789 468.392426,222.281601 
	C466.607452,225.272934 464.644318,226.125443 461.442444,224.739777 
	C457.227142,222.915466 452.440002,222.511581 447.985535,219.442520 
	C452.988068,212.790100 457.864502,206.337372 462.705933,199.858505 
	C467.875549,192.940445 471.666565,185.500778 471.776398,176.575317 
	C471.812164,173.669815 470.721954,172.266846 467.781342,172.121674 
	C461.862122,171.829483 455.784149,172.374771 451.564606,166.543015 
	C446.486145,159.524200 446.035309,151.746658 446.983643,143.669022 
	C447.389648,140.210876 448.389465,136.836380 449.958130,133.668594 
	C457.217468,119.008873 474.967224,117.432037 484.854065,130.593674 
	C485.750610,131.787186 486.499481,133.091629 487.489685,134.676300 
z"/>
</svg>