<svg enable-background="new 0 0 1024 560" viewBox="0 0 1024 560" xmlns="http://www.w3.org/2000/svg"><path d="m675.468628 561c-12.593567-2.024292-24.853821-3.144165-36.903931-5.696899-28.092468-5.951233-55.030578-14.630372-78.231445-32.374024-6.369995-4.871704-8.331482-9.714172-6.223267-15.362579 3.44635-9.233277 11.579224-11.722534 20.178711-5.562226 10.224121 7.324158 20.985413 13.459229 32.721314 18.022339 23.008606 8.945984 46.982239 13.19513 71.408813 15.806519 19.275147 2.06073 38.572876 2.73529 57.87616 1.80896 65.699402-3.152832 121.915161-26.798889 165.900329-77.044953 24.475464-27.959442 46.395508-57.58905 62.795777-91.059326 18.065002-36.867645 28.465637-75.732086 24.348144-116.839004-5.064087-50.558151-17.31958-99.427429-43.74884-143.610222-23.093384-38.605919-56.215393-63.662407-101.156067-71.275848-22.906311-3.88057-46.068359-3.870743-69.205993-1.81886-18.356202 1.627854-36.11377 5.656804-53.140198 12.881192-15.99292 6.785865-30.21521 16.130493-42.558655 28.346748-1.421204 1.40657-2.801331 2.860901-4.293823 4.188149-6.004761 5.340019-12.520813 5.088821-18.185425-.649468-4.687134-4.748131-4.635559-11.4347.465881-17.021625 14.7193-16.120053 32.384583-28.178982 52.275025-36.95171 21.687927-9.56552 44.46466-14.615969 68.118347-16.237108 29.236633-2.003787 58.238403-1.300543 86.742798 6.21828 33.77301 8.90856 61.568237 27.238699 84.008728 53.877173 23.635071 28.056534 37.993896 60.83435 48.583069 95.516189 8.179748 26.790635 14.246154 54.081986 16.815307 81.968522 2.841004 30.83728-.907715 61.127441-10.056946 90.741027-12.155395 39.343933-32.235046 74.457856-57.149231 106.959351-19.712768 25.716095-40.722961 50.224091-67.219299 69.37619-26.931579 19.466797-56.506042 33.050171-89.009033 40.328796-8.942749 2.002686-17.962341 3.419922-27.286865 5.279603-29.358887.184814-58.379822.184814-87.869385.184814z"/><path d="m685.983093 166.012863c3.468689-9.193497 9.91626-15.642731 16.526367-22.04306 2.814942-2.725586 4.819153-2.750153 7.395325.188003 2.408569 2.74704 5.095032 5.295273 7.909363 7.629303 2.834228 2.35051 2.922546 4.548081 1.293457 7.779618-21.223633 42.100723-42.314697 84.268219-63.445313 126.415817-30.908752 61.651428-61.828063 123.297516-92.726379 184.954132-3.389526 6.763733-9.68396 10.884674-14.601501 16.256592-1.256226 1.372345-2.674134 1.047912-3.921143-.209107-.35199-.354766-.746216-.672699-1.065979-1.053711-3.519714-4.194641-9.82727-7.023407-10.668274-12.13385-.799255-4.856567 3.767273-9.643402 6.136109-14.370086 48.968261-97.71045 97.989135-195.394471 147.167968-293.413651z"/><path d="m120.20311 318.097717c-25.3816 50.677124-50.664856 100.987763-75.793526 151.375458-3.626026 7.270844-10.186119 11.766174-15.243711 17.669647-1.459345 1.703369-2.980509.835541-4.283265-.475433-3.523521-3.545837-6.975627-7.166535-10.59276-10.614105-2.376561-2.265107-.886521-4.203217.144144-6.262757 13.196333-26.369995 26.369852-52.751403 39.593802-79.107544 38.84417-77.418731 77.711296-154.825912 116.559685-232.242508 3.396896-6.769317 9.718719-10.849823 14.743713-16.11737 1.591492-1.66832 3.047577-.272461 4.27803.902923 3.012009 2.877213 5.884903 5.912598 9.030991 8.633133 2.804108 2.424775 2.687973 4.698731 1.095978 7.85579-22.269318 44.161666-44.421326 88.382476-66.603119 132.588272-4.257919 8.485626-8.521187 16.968536-12.929962 25.794494z"/><path d="m349.803284 145.208008c10.976532 10.69397 10.974212 10.692795 4.367889 23.867706-50.523987 100.759522-101.051193 201.517426-151.561111 302.284027-3.469788 6.92215-9.926514 11.103546-14.971054 16.579254-1.079346 1.171631-2.366364 1.049988-3.514313-.068695-.596329-.581085-1.228012-1.134704-1.762116-1.769409-3.30928-3.932434-9.174087-6.605652-9.967147-11.45932-.792527-4.85025 3.689544-9.331909 5.976791-13.90213 41.886093-83.694 83.827881-167.360138 125.777954-251.022125 8.509033-16.969757 17.062012-33.917755 25.672546-50.836212 3.331787-6.546448 9.397583-10.71045 14.40857-15.760788 2.295715-2.313767 3.711395.679534 5.571991 2.087692z"/><path d="m815.858093 224.933807c10.902954-21.772781 21.716248-43.174514 32.353211-64.663574 3.525329-7.121948 9.9729-11.499542 15.122253-17.096756 1.078797-1.172546 2.346497-1.088287 3.526001-.00914.368591.337189.737061.674683 1.111878 1.004837 12.534606 11.04306 12.512451 11.031784 5.063537 25.886566-50.006225 99.723557-100.03949 199.43364-149.928223 299.215958-3.804687 7.609802-10.506408 12.34552-15.93225 18.355316-1.45575 1.612396-2.850281 1.234039-4.247742-.20404-3.366211-3.464112-6.697266-6.969452-10.20282-10.288849-2.516052-2.382447-1.089478-4.486481.029907-6.719239 13.134155-26.196472 26.262207-52.396057 39.400208-78.590606 27.845947-55.519135 55.696777-111.035797 83.70404-166.890473z"/><path d="m757.433167 66.274483c10.554504 5.311668 15.92926 13.680374 15.688415 25.022423-.236023 11.113334-6.498169 18.623367-16.293457 23.205345-10.04541 4.698921-19.470703 3.057937-28.093018-3.623383-8.884094-6.884163-12.018432-20.35775-7.288452-30.767204 5.054627-11.123772 17.106751-17.943546 28.424073-15.96151 2.444641.428139 4.813354 1.289459 7.562439 2.124329z"/><path d="m205.46669 60.580154c7.877365-10.066719 17.952835-13.184246 29.5354-9.59412 10.497269 3.253731 16.987442 10.680912 18.424103 21.944806 1.467407 11.505134-4.685364 22.20079-15.745361 27.378311-10.170487 4.761108-23.350967 2.195564-30.728516-5.981232-7.993042-8.858971-9.212448-21.145393-3.105774-31.397854.424591-.712875.921708-1.382564 1.620148-2.349911z"/><path d="m842.289917 68.527748c9.678223 7.627525 13.688171 17.224838 10.489746 28.834671-3.279602 11.904122-12.300903 17.653092-24.00061 19.609108-8.715332 1.457077-19.969666-4.400825-24.864929-12.738373-5.492066-9.35408-4.843628-21.500404 1.575195-29.506965 9.53009-11.88715 21.700256-14.0262 36.800598-6.198441z"/><path d="m323.878784 55.013756c9.199677 7.918236 12.752899 18.694397 9.555695 28.324699-3.654724 11.008309-12.811432 18.321305-23.829102 19.031136-11.872619.764923-21.100067-4.388603-26.115143-14.585259-5.269683-10.71437-2.51416-23.515136 6.830414-31.730434 9.193421-8.082398 22.055725-8.570656 33.558136-1.040142z"/></svg>