<svg version="1.1" id="Layer_1" xmlns="http://www.w3.org/2000/svg" xmlns:xlink="http://www.w3.org/1999/xlink" x="0px" y="0px"
	 width="100%" viewBox="0 0 1024 336" enable-background="new 0 0 1024 336" xml:space="preserve">
<path fill="#000000" opacity="1.000000" stroke="none" 
	d="
M714.584534,309.537292 
	C692.519409,307.957062 673.661133,299.257294 656.099609,287.200287 
	C638.829651,275.343536 624.251892,260.413055 609.174927,246.052338 
	C607.997986,244.931305 607.111450,243.410538 604.946350,242.891571 
	C600.942505,248.400604 597.012939,254.143723 592.742310,259.621033 
	C579.433655,276.690063 564.973145,292.640656 544.890381,301.909058 
	C519.652649,313.556519 494.767090,313.360016 472.454468,295.465668 
	C443.986847,272.635010 443.109802,230.223755 469.801270,205.137360 
	C492.751373,183.567352 519.760498,180.479797 548.930420,188.388992 
	C566.444580,193.137817 581.516724,202.569885 595.548828,213.810776 
	C596.978943,214.956421 598.421753,216.087021 599.882080,217.193695 
	C600.268066,217.486206 600.741394,217.663452 601.206299,217.910461 
	C603.291199,217.248917 603.559448,215.199646 604.387390,213.691010 
	C614.997803,194.356232 622.683289,173.729523 630.948792,153.358093 
	C637.295837,137.715134 644.618530,122.575127 655.105103,109.219421 
	C668.890442,91.662544 686.339600,79.542778 708.707458,76.295113 
	C748.713135,70.486557 781.905273,97.173790 786.423645,132.514709 
	C786.571045,133.667633 786.993652,134.796021 787.051697,135.947754 
	C787.253845,139.963898 785.278564,142.817413 781.570679,143.901581 
	C777.650757,145.047745 774.570862,143.126266 773.148987,139.481110 
	C772.077576,136.734329 771.883179,133.652344 771.226929,130.735641 
	C764.280396,99.861679 731.251099,82.514999 700.464722,93.639214 
	C680.034912,101.021210 666.627258,116.061104 656.408630,134.487701 
	C647.083801,151.302704 640.819275,169.455887 633.480713,187.137360 
	C628.047791,200.227066 622.141418,213.084213 615.120789,225.405518 
	C613.884827,227.574585 613.022583,229.319931 615.386292,231.499954 
	C633.125977,247.861282 649.451721,265.853638 670.116577,278.826385 
	C687.297974,289.612335 705.714783,296.180450 726.340332,294.774445 
	C747.773376,293.313446 765.334961,284.302979 778.624207,267.336945 
	C784.057983,260.399719 786.468872,259.867188 793.501709,264.872925 
	C795.540771,264.234253 795.740173,262.159027 796.507935,260.633850 
	C807.295715,239.203644 818.133057,217.796616 828.664307,196.240326 
	C831.260986,190.925323 835.514832,187.321960 839.425232,183.273178 
	C840.913757,181.731934 842.310120,181.935471 843.707336,183.382675 
	C847.618958,187.433945 851.821106,191.089447 854.425842,196.390472 
	C867.284241,222.559082 880.416016,248.593445 893.478149,274.661743 
	C894.360107,276.421844 894.922852,278.404205 896.589600,279.789307 
	C898.545105,278.978546 898.831848,276.987427 899.607788,275.441742 
	C912.838074,249.087341 926.117676,222.756592 939.120911,196.290207 
	C941.730225,190.979462 946.032410,187.414413 949.879517,183.312500 
	C951.362732,181.731110 952.795349,182.086945 954.177551,183.484940 
	C958.255127,187.609116 962.497559,191.429138 965.187866,196.878342 
	C981.488037,229.893631 998.067688,262.770874 1014.486511,295.727814 
	C1015.557983,297.878571 1018.035767,300.176636 1016.687378,302.537872 
	C1014.635620,306.130768 1011.277893,308.815765 1008.055542,311.453705 
	C1007.120300,312.219360 1006.131409,311.567871 1005.410278,310.821045 
	C1001.614563,306.890076 997.400879,303.429840 994.862915,298.300934 
	C981.636353,271.571228 968.208069,244.941330 954.841248,218.281143 
	C954.105652,216.814072 953.291138,215.386566 952.342163,213.622452 
	C949.985718,215.222855 949.433167,217.588318 948.442322,219.563095 
	C935.368652,245.620331 922.260559,271.661285 909.403259,297.825287 
	C906.878845,302.962280 902.835754,306.552246 899.076355,310.523712 
	C897.422729,312.270538 895.980286,311.939056 894.417908,310.349823 
	C890.105530,305.963196 885.940125,301.639557 883.135742,295.902710 
	C870.330811,269.708984 857.176453,243.686050 844.137146,217.607056 
	C843.553162,216.439072 842.866150,215.322632 842.085266,213.928894 
	C839.701843,215.046265 839.212280,217.286087 838.306519,219.090485 
	C825.378723,244.845673 812.380493,270.567047 799.712463,296.449890 
	C796.966980,302.059326 792.725403,306.097412 788.488464,310.304932 
	C787.918030,310.871399 787.156677,311.518158 786.423706,311.601654 
	C783.106689,311.979797 776.024414,301.913177 777.460632,298.894653 
	C779.725159,294.135376 782.078125,289.418182 784.176208,284.488312 
	C764.609741,302.691345 741.892944,311.835602 714.584534,309.537292 
M523.451416,199.378891 
	C509.063995,199.429428 495.659790,202.833969 484.350098,212.049362 
	C469.362244,224.261826 462.138123,239.972382 466.537659,259.264038 
	C470.575531,276.969757 482.227783,288.325958 499.728424,293.100403 
	C514.831360,297.220673 529.103149,294.041595 542.477966,286.463715 
	C555.099365,279.312653 565.415405,269.442719 574.633545,258.359680 
	C581.536682,250.059982 588.058533,241.490143 593.566467,232.007202 
	C589.088562,227.274719 584.063293,223.720261 579.091797,220.141968 
	C562.714111,208.354034 544.864563,200.360519 523.451416,199.378891 
z"/>
<path fill="#000000" opacity="1.000000" stroke="none" 
	d="
M278.382263,315.514648 
	C261.580200,323.273621 244.701340,326.977753 226.735092,321.420197 
	C217.217422,318.476074 208.953934,313.325073 202.907608,305.644257 
	C195.686798,296.471466 187.779388,293.901215 175.937378,295.866302 
	C147.739319,300.545563 119.243744,303.433319 90.866936,307.033508 
	C77.335983,308.750183 63.802631,310.448120 50.268379,312.138611 
	C47.085464,312.536133 43.932682,312.244751 40.863659,311.358582 
	C25.307192,306.866638 5.489702,287.571472 11.398391,265.512726 
	C12.857771,260.064423 13.617621,254.431839 14.805660,248.906906 
	C16.068598,243.033676 21.349272,240.355576 25.022144,236.407730 
	C25.267443,236.144073 25.979607,236.170609 26.431484,236.266159 
	C29.986664,237.017868 35.919292,246.123871 35.320187,249.876678 
	C33.935192,258.552216 30.917578,266.940735 31.273861,275.928772 
	C31.748278,287.896942 37.160835,292.977600 49.026577,291.517090 
	C71.305832,288.774841 93.541306,285.674347 115.827652,282.994537 
	C119.776459,282.519745 120.760826,280.968445 120.745987,277.300323 
	C120.638153,250.642593 120.934967,223.980606 120.540604,197.328293 
	C120.427956,189.715500 125.935204,186.764694 130.084183,182.551575 
	C131.702713,180.908035 133.483444,182.932785 134.974426,183.804092 
	C156.258453,196.242203 177.525970,208.708633 198.780319,221.197388 
	C221.470566,234.529907 244.110794,247.947998 266.848969,261.198151 
	C271.558563,263.942566 275.152466,267.828613 278.963867,271.534546 
	C280.065216,272.605469 281.308167,274.014740 279.857178,275.389709 
	C276.078613,278.970215 273.235931,283.813873 267.294952,284.566437 
	C250.129730,286.740906 232.978592,289.026550 215.821793,291.267487 
	C214.689529,291.415405 213.462738,291.216583 212.476944,292.240997 
	C212.130890,294.231079 213.953674,294.550415 215.088120,295.267822 
	C230.055389,304.732666 246.089615,305.331604 262.669189,300.773895 
	C273.886292,297.690338 284.133820,292.585602 293.167938,285.231598 
	C295.659912,283.203064 297.663971,283.146484 299.440613,285.737366 
	C303.913666,292.260345 310.177094,293.267761 317.663940,293.209503 
	C357.149017,292.902283 396.637695,293.056427 436.125122,293.066101 
	C438.454742,293.066650 440.801239,293.049683 443.110596,293.305481 
	C449.415497,294.003937 451.432312,296.256317 451.379272,302.249268 
	C451.329193,307.907104 448.885376,310.384857 442.711365,310.937561 
	C441.221802,311.070923 439.714935,311.035583 438.216003,311.035522 
	C396.229370,311.034149 354.242706,311.010620 312.256073,311.039825 
	C306.113373,311.044098 300.258057,310.788971 298.854126,302.256317 
	C291.741699,306.997162 285.791412,312.087524 278.382263,315.514648 
M141.318161,265.490540 
	C141.323883,268.655273 141.484634,271.829315 141.295151,274.982330 
	C141.070328,278.723663 142.311966,279.925354 146.238785,279.404816 
	C169.303040,276.347229 192.400299,273.539307 215.481750,270.610229 
	C223.589218,269.581390 231.683411,268.448029 239.783661,267.362366 
	C239.843109,266.968445 239.902573,266.574524 239.962021,266.180603 
	C207.350586,247.065994 174.739136,227.951385 141.319016,208.362793 
	C141.319016,227.885513 141.319016,246.189514 141.318161,265.490540 
z"/>
<path fill="chocolate" opacity="1.000000" stroke="none" 
	d="
M582.511475,36.494560 
	C575.907043,30.775644 575.905457,30.773832 569.598145,36.353264 
	C559.132141,45.611477 548.676208,54.881149 538.197998,64.125542 
	C535.685608,66.342125 533.101135,68.615608 529.393494,67.971939 
	C526.087585,67.398003 523.465088,65.653618 522.251343,62.406395 
	C520.885803,58.753204 521.791565,55.406593 524.601318,52.838951 
	C529.634399,48.239456 534.853943,43.844204 539.986206,39.352901 
	C551.008545,29.707251 561.936096,19.953318 571.737610,9.039892 
	C573.993347,6.528308 575.619019,6.802866 577.905029,8.928264 
	C594.110168,23.994524 610.423950,38.943886 626.635254,54.003525 
	C631.420288,58.448586 631.859558,63.689816 628.078247,67.547127 
	C624.335449,71.365150 619.644165,71.094337 614.900208,66.686462 
	C604.173767,56.719883 593.479004,46.719261 582.511475,36.494560 
z"/>
<path fill="chocolate" opacity="1.000000" stroke="none" 
	d="
M561.704834,106.221344 
	C562.244141,102.309044 562.781067,98.875130 564.736694,95.825836 
	C571.142822,85.837265 583.609497,85.597015 590.409241,95.381920 
	C597.056702,104.947655 597.009705,115.735184 595.850708,126.629364 
	C595.077393,133.898468 591.875854,140.312088 587.953674,146.387085 
	C585.604553,150.025665 583.310242,153.699585 580.973145,157.345978 
	C575.177063,166.389191 573.173706,166.781433 562.668152,160.404129 
	C566.267151,155.649689 569.789612,150.903732 573.412720,146.235870 
	C577.181396,141.380417 579.522949,136.034698 580.142151,129.841339 
	C580.422119,127.040634 579.643982,125.725250 576.910339,125.471893 
	C573.047852,125.113914 568.840698,126.220238 565.938110,122.227249 
	C562.526978,117.534576 561.312256,112.348167 561.704834,106.221344 
z"/>
<path fill="#000000" opacity="1.000000" stroke="none" 
	d="
M896.220215,88.901237 
	C905.025757,87.302490 912.004333,90.406471 915.596497,98.125420 
	C922.716187,113.424683 921.373657,128.568634 913.401428,143.161224 
	C909.972717,149.437424 905.835510,155.322662 902.234314,161.510147 
	C900.436768,164.598557 898.397095,165.878464 894.954346,164.199005 
	C892.453979,162.979279 889.449219,162.938446 886.914246,160.953140 
	C888.068787,156.722015 891.359741,153.984818 893.666199,150.672409 
	C897.465698,145.215866 901.853149,140.149582 903.286316,133.361389 
	C904.652832,126.888557 903.782043,125.636505 897.291321,125.369347 
	C891.676270,125.138245 888.604187,122.686111 886.383789,116.803894 
	C882.864380,107.480637 887.010071,91.939705 896.220215,88.901237 
z"/>
</svg>