<svg version="1.1" id="Layer_1" xmlns="http://www.w3.org/2000/svg" xmlns:xlink="http://www.w3.org/1999/xlink" x="0px" y="0px"
	 width="100%" viewBox="0 0 1024 560" enable-background="new 0 0 1024 560" xml:space="preserve">
<path fill="#000000" opacity="1.000000" stroke="none" 
	d="
M675.468628,561.000000 
	C662.875061,558.975708 650.614807,557.855835 638.564697,555.303101 
	C610.472229,549.351868 583.534119,540.672729 560.333252,522.929077 
	C553.963257,518.057373 552.001770,513.214905 554.109985,507.566498 
	C557.556335,498.333221 565.689209,495.843964 574.288696,502.004272 
	C584.512817,509.328430 595.274109,515.463501 607.010010,520.026611 
	C630.018616,528.972595 653.992249,533.221741 678.418823,535.833130 
	C697.693970,537.893860 716.991699,538.568420 736.294983,537.642090 
	C801.994385,534.489258 858.210144,510.843201 902.195312,460.597137 
	C926.670776,432.637695 948.590820,403.008087 964.991089,369.537811 
	C983.056091,332.670166 993.456726,293.805725 989.339233,252.698807 
	C984.275146,202.140656 972.019653,153.271378 945.590393,109.088585 
	C922.497009,70.482666 889.375000,45.426178 844.434326,37.812737 
	C821.528015,33.932167 798.365967,33.941994 775.228333,35.993877 
	C756.872131,37.621731 739.114563,41.650681 722.088135,48.875069 
	C706.095215,55.660934 691.872925,65.005562 679.529480,77.221817 
	C678.108276,78.628387 676.728149,80.082718 675.235657,81.409966 
	C669.230896,86.749985 662.714844,86.498787 657.050232,80.760498 
	C652.363098,76.012367 652.414673,69.325798 657.516113,63.738873 
	C672.235413,47.618820 689.900696,35.559891 709.791138,26.787163 
	C731.479065,17.221643 754.255798,12.171194 777.909485,10.550055 
	C807.146118,8.546268 836.147888,9.249512 864.652283,16.768335 
	C898.425293,25.676895 926.220520,44.007034 948.661011,70.645508 
	C972.296082,98.702042 986.654907,131.479858 997.244080,166.161697 
	C1005.423828,192.952332 1011.490234,220.243683 1014.059387,248.130219 
	C1016.900391,278.967499 1013.151672,309.257660 1004.002441,338.871246 
	C991.847046,378.215179 971.767395,413.329102 946.853210,445.830597 
	C927.140442,471.546692 906.130249,496.054688 879.633911,515.206787 
	C852.702332,534.673584 823.127869,548.256958 790.624878,555.535583 
	C781.682129,557.538269 772.662537,558.955505 763.338013,560.815186 
	C733.979126,561.000000 704.958191,561.000000 675.468628,561.000000 
z"/>
<path fill="#000000" opacity="1.000000" stroke="none" 
	d="
M685.983093,166.012863 
	C689.451782,156.819366 695.899353,150.370132 702.509460,143.969803 
	C705.324402,141.244217 707.328613,141.219650 709.904785,144.157806 
	C712.313354,146.904846 714.999817,149.453079 717.814148,151.787109 
	C720.648376,154.137619 720.736694,156.335190 719.107605,159.566727 
	C697.883972,201.667450 676.792908,243.834946 655.662292,285.982544 
	C624.753540,347.633972 593.834229,409.280060 562.935913,470.936676 
	C559.546387,477.700409 553.251953,481.821350 548.334412,487.193268 
	C547.078186,488.565613 545.660278,488.241180 544.413269,486.984161 
	C544.061279,486.629395 543.667053,486.311462 543.347290,485.930450 
	C539.827576,481.735809 533.520020,478.907043 532.679016,473.796600 
	C531.879761,468.940033 536.446289,464.153198 538.815125,459.426514 
	C587.783386,361.716064 636.804260,264.032043 685.983093,166.012863 
z"/>
<path fill="#000000" opacity="1.000000" stroke="none" 
	d="
M120.203110,318.097717 
	C94.821510,368.774841 69.538254,419.085480 44.409584,469.473175 
	C40.783558,476.744019 34.223465,481.239349 29.165873,487.142822 
	C27.706528,488.846191 26.185364,487.978363 24.882608,486.667389 
	C21.359087,483.121552 17.906981,479.500854 14.289848,476.053284 
	C11.913287,473.788177 13.403327,471.850067 14.433992,469.790527 
	C27.630325,443.420532 40.803844,417.039124 54.027794,390.682983 
	C92.871964,313.264252 131.739090,235.857071 170.587479,158.440475 
	C173.984375,151.671158 180.306198,147.590652 185.331192,142.323105 
	C186.922684,140.654785 188.378769,142.050644 189.609222,143.226028 
	C192.621231,146.103241 195.494125,149.138626 198.640213,151.859161 
	C201.444321,154.283936 201.328186,156.557892 199.736191,159.714951 
	C177.466873,203.876617 155.314865,248.097427 133.133072,292.303223 
	C128.875153,300.788849 124.611885,309.271759 120.203110,318.097717 
z"/>
<path fill="#000000" opacity="1.000000" stroke="none" 
	d="
M349.803284,145.208008 
	C360.779816,155.901978 360.777496,155.900803 354.171173,169.075714 
	C303.647186,269.835236 253.119980,370.593140 202.610062,471.359741 
	C199.140274,478.281891 192.683548,482.463287 187.639008,487.938995 
	C186.559662,489.110626 185.272644,488.988983 184.124695,487.870300 
	C183.528366,487.289215 182.896683,486.735596 182.362579,486.100891 
	C179.053299,482.168457 173.188492,479.495239 172.395432,474.641571 
	C171.602905,469.791321 176.084976,465.309662 178.372223,460.739441 
	C220.258316,377.045441 262.200104,293.379303 304.150177,209.717316 
	C312.659210,192.747559 321.212189,175.799561 329.822723,158.881104 
	C333.154510,152.334656 339.220306,148.170654 344.231293,143.120316 
	C346.527008,140.806549 347.942688,143.799850 349.803284,145.208008 
z"/>
<path fill="#000000" opacity="1.000000" stroke="none" 
	d="
M815.858093,224.933807 
	C826.761047,203.161026 837.574341,181.759293 848.211304,160.270233 
	C851.736633,153.148285 858.184204,148.770691 863.333557,143.173477 
	C864.412354,142.000931 865.680054,142.085190 866.859558,143.164337 
	C867.228149,143.501526 867.596619,143.839020 867.971436,144.169174 
	C880.506042,155.212234 880.483887,155.200958 873.034973,170.055740 
	C823.028748,269.779297 772.995483,369.489380 723.106750,469.271698 
	C719.302063,476.881500 712.600342,481.617218 707.174500,487.627014 
	C705.718750,489.239410 704.324219,488.861053 702.926758,487.422974 
	C699.560547,483.958862 696.229492,480.453522 692.723938,477.134125 
	C690.207886,474.751678 691.634460,472.647644 692.753845,470.414886 
	C705.888000,444.218414 719.016052,418.018829 732.154053,391.824280 
	C760.000000,336.305145 787.850830,280.788483 815.858093,224.933807 
z"/>
<path fill="#000000" opacity="1.000000" stroke="none" 
	d="
M757.433167,66.274483 
	C767.987671,71.586151 773.362427,79.954857 773.121582,91.296906 
	C772.885559,102.410240 766.623413,109.920273 756.828125,114.502251 
	C746.782715,119.201172 737.357422,117.560188 728.735107,110.878868 
	C719.851013,103.994705 716.716675,90.521118 721.446655,80.111664 
	C726.501282,68.987892 738.553406,62.168118 749.870728,64.150154 
	C752.315369,64.578293 754.684082,65.439613 757.433167,66.274483 
z"/>
<path fill="#000000" opacity="1.000000" stroke="none" 
	d="
M205.466690,60.580154 
	C213.344055,50.513435 223.419525,47.395908 235.002090,50.986034 
	C245.499359,54.239765 251.989532,61.666946 253.426193,72.930840 
	C254.893600,84.435974 248.740829,95.131630 237.680832,100.309151 
	C227.510345,105.070259 214.329865,102.504715 206.952316,94.327919 
	C198.959274,85.468948 197.739868,73.182526 203.846542,62.930065 
	C204.271133,62.217190 204.768250,61.547501 205.466690,60.580154 
z"/>
<path fill="#000000" opacity="1.000000" stroke="none" 
	d="
M842.289917,68.527748 
	C851.968140,76.155273 855.978088,85.752586 852.779663,97.362419 
	C849.500061,109.266541 840.478760,115.015511 828.779053,116.971527 
	C820.063721,118.428604 808.809387,112.570702 803.914124,104.233154 
	C798.422058,94.879074 799.070496,82.732750 805.489319,74.726189 
	C815.019409,62.839039 827.189575,60.699989 842.289917,68.527748 
z"/>
<path fill="#000000" opacity="1.000000" stroke="none" 
	d="
M323.878784,55.013756 
	C333.078461,62.931992 336.631683,73.708153 333.434479,83.338455 
	C329.779755,94.346764 320.623047,101.659760 309.605377,102.369591 
	C297.732758,103.134514 288.505310,97.980988 283.490234,87.784332 
	C278.220551,77.069962 280.976074,64.269196 290.320648,56.053898 
	C299.514069,47.971500 312.376373,47.483242 323.878784,55.013756 
z"/>
</svg>