<svg enable-background="new 0 0 1024 288" viewBox="0 0 1024 288" xmlns="http://www.w3.org/2000/svg"><path d="m391.468658 289c-3.513-2.818024-7.305358-4.743713-9.957916-8.037811-2.043396-2.537598-4.240204-.962647-6.289154-.018585-10.746002 4.951171-21.835541 6.440979-33.586853 4.430114-15.908234-2.722229-42.041412-24.023773-40.012512-45.872162.552704-5.952072 2.034485-11.509918 5.415527-16.390747 9.299835-13.425171 21.207459-23.366867 37.444489-27.348388 1.931152-.473526 3.828369-1.09137 5.724518-1.695069.258087-.082168.417816-.473159.940399-1.104446-3.921631-4.588242-7.747956-9.50972-9.225556-15.562851-2.810089-11.511566-1.548156-22.385651 5.549378-32.339005 13.941101-19.550422 32.777405-29.909683 56.811645-29.922554 17.793335-.009529 34.504059 4.706154 50.205872 13.797997 2.348633-3.364319 4.13739-7.184273 7.51062-9.728615 1.590546-1.199707 2.922089-4.0597 5.27063-1.535202 2.07785 2.233543 6.166168 3.613731 4.41449 7.991524-.617096 1.542267-1.424225 3.010162-2.171631 4.498413-23.991852 47.772766-47.987671 95.543548-71.980866 143.315658-2.730713 5.437043-2.155792 6.746613 3.84549 8.076966 11.357422 2.517731 21.385528-1.010315 30.691955-7.175598 10.788147-7.146851 18.420136-17.241639 25.385285-27.895813 16.486419-25.21843 30.639221-51.527893 37.65393-81.141037 7.316681-30.887772 4.086884-60.645432-10.97998-88.593666-13.489502-25.022225-35.442017-35.448735-63.439819-34.005642-.83136.04285-1.662232.181453-2.491303.166099-3.647461-.067524-6.955963-1.101932-7.139465-5.310787-.173401-3.977364 3.016662-5.400204 6.364563-5.668436 10.884491-.87207 21.604065.274855 32.129608 3.195932 17.521301 4.862549 31.024414 15.294869 40.586151 30.517418 15.702057 24.998192 21.207092 52.642601 18.859985 81.756668-1.686431 20.91948-8.108917 40.75615-16.941253 59.737809-10.290222 22.114837-22.358185 43.185882-38.042969 62.006988-6.808014 8.169373-15.068878 14.540466-24.762878 19.627045-12.605256.227783-24.959504.227783-37.78238.227783m5.91684-45.051544c5.725586-11.51648 11.451172-23.032959 17.529205-35.258347-16.061584-2.047104-30.936218-2.963913-45.915863-1.950912-13.192352.892135-26.159271 2.686645-38.017547 9.101623-10.093323 5.460205-16.24411 18.131867-14.422913 29.479294 1.763947 10.990402 7.132416 18.71315 17.89621 23.190933 20.814728 8.659027 54.278992-2.156311 62.930908-24.562591m49.177216-104.281235c-1.515442-.68689-3.008973-1.427887-4.549652-2.052505-21.618226-8.764283-43.494385-10.684945-65.570343-1.916535-6.173615 2.452118-12.475281 5.404358-15.848542 11.541367-3.979736 7.240356-5.908478 15.152771-5.233917 23.548218 1.1651 14.500488 7.970184 20.957336 22.248474 20.860748 13.485443-.091202 26.943482.134765 40.183808 3.066467 2.711242.600342 4.315673-.041778 5.583068-2.598343 7.907624-15.951279 15.945252-31.838043 23.887787-47.77211.677735-1.359604 2.079499-2.946945-.700683-4.677307z"/><path d="m210.809875 128.473206c5.745301 14.943649 4.84874 30.097488 4.002503 45.242187-.120499 2.156647-.265228 4.329483-.648132 6.449768-.554032 3.067978-2.091263 5.391876-5.634674 5.124787-3.477158-.262101-4.80362-2.571076-4.86023-5.816208-.142441-8.165238 1.517624-16.24939 1.019638-24.439759-.36409-5.988266-.789505-11.976806-2.271347-17.790054-2.495712-9.790573-7.405792-12.096535-16.632858-7.886871-9.08461 4.144684-16.487595 10.702316-23.605316 17.466262-27.296097 25.939423-54.367592 52.115372-81.710442 78.005005-3.246582 3.074036-3.249008 5.366455-1.362183 8.975739 5.633202 10.775711 11.087555 21.651062 16.319748 32.626694 1.695389 3.556457 3.923996 4.696441 7.760376 4.682312 33.661644-.124085 67.323952-.072205 100.986077-.052704 1.994445.001159 4.112487-.225708 5.957306.347656 3.779022 1.1745 7.932128 3.900269 7.482345 7.525909-.431228 3.475831-4.016846 6.790406-8.511139 7.279236-1.483352.161316-2.99675.056519-4.496399.056702-34.328689.004425-68.660309-.234467-102.984001.181457-8.40303.101807-12.983856-3.847381-16.376037-10.436065-4.878846-9.476227-9.568863-19.049561-14.362442-28.56987-1.334122-2.649658-2.749268-5.258499-4.530556-8.655121-4.825146 4.390869-9.276146 8.284561-13.551529 12.362381-11.092236 10.579712-22.107052 21.240539-33.153193 31.868561-1.662071 1.599151-3.396715 4.013427-5.735627 1.318969-2.144598-2.470642-6.632879-3.838226-4.059686-8.873077 12.281273-24.030075 24.360264-48.163467 36.56424-72.233231 1.909882-3.76683 4.751533-8.363662 8.451847-8.473236 4.101894-.121429 6.73494 4.742875 8.925011 8.494812 2.650657 4.541001 4.299728 9.663437 7.903579 14.290375 2.776787-2.491638 5.280999-4.634308 7.670098-6.898407 27.090439-25.673172 54.081177-51.452392 81.295456-76.9935 7.291824-6.843505 15.275879-12.966514 25.097778-15.960853 11.417999-3.480919 19.3582-.103386 25.049789 10.780144m-169.124858 114.505996c-.615254 1.487885-1.230511 2.975769-2.39008 5.779969 7.356526-6.910737 13.71814-12.868897 20.0513-18.857148.870548-.823105 1.528946-1.892471.900845-3.116699-1.550102-3.02124-2.337223-6.502533-5.6371-9.574448-4.350998 8.674973-8.478058 16.903473-12.924965 25.768326z"/><path d="m863.204163 279.034729c-.855896 1.055176-1.404908 1.963593-2.200501 2.518158-2.155151 1.502106-3.411926 5.970154-7.148987 2.768097-3.059204-2.621155-6.067566-4.82013-3.289062-10.276978 24.918701-48.93956 49.483703-98.059219 74.129577-147.137535 1.357727-2.703796 2.838562-5.294624 5.179444-7.258041 1.863708-1.563194 3.371887-4.919876 6.473083-1.876717 2.575989 2.52768 6.101075 4.283058 3.493286 9.412812-20.663879 40.646881-41.048217 81.435867-61.536926 122.17189-4.932983 9.807892-9.935181 19.581024-15.099914 29.678314z"/><path d="m629.397705 239.366989c-6.126343 12.250076-12.108154 24.155228-18.040161 36.085159-1.123535 2.259675-2.45636 4.31073-4.242981 6.11789-5.062805 5.121002-5.127686 4.996673-10.138733.036621-2.506897-2.481415-1.823913-4.453369-.515381-7.046845 13.57843-26.912963 27.055969-53.876846 40.603394-80.805526 11.302002-22.465332 22.666809-44.899063 33.981323-67.358094 1.055725-2.095642 2.226563-4.058868 3.88324-5.765197 5.058349-5.209725 6.152344-5.068909 10.869629.460479 2.092285 2.452546.81604 4.239342-.220154 6.303978-13.370911 26.641686-26.738342 53.28518-40.106873 79.928032-5.303344 10.56929-10.607605 21.138138-16.073303 32.043503z"/><path d="m929.300537 282.542725c-2.888245-2.505799-2.61383-4.830445-1.129944-7.773102 24.817505-49.215225 49.541199-98.477768 74.261231-147.742073 1.129272-2.250481 2.391845-4.333977 4.188354-6.146027 5.102356-5.1465 5.065735-5.072723 10.11792-.027634 2.206482 2.203362 2.084046 3.97828.771485 6.567917-11.66919 23.023125-23.204407 46.114083-34.794129 69.177544-13.232117 26.331665-26.493042 52.648804-39.699524 78.993271-1.360718 2.714294-3.136535 5.029297-5.158752 7.287384-2.964295 3.309997-5.560303 3.954529-8.556641-.33728z"/><path d="m731.332886 161.340271c5.889953-11.617264 11.617614-22.899292 17.312988-34.197632 1.132935-2.247543 2.237915-4.596123 4.317566-6.03202 2.090576-1.443398 3.147034-6.072762 7.080322-2.767678 3.259522 2.7389 5.72168 4.964615 2.995545 10.315537-24.937622 48.947861-49.496216 98.088806-74.156556 147.177887-1.050293 2.090729-2.197021 4.073333-3.848632 5.788635-5.155884 5.354797-5.883057 5.234009-10.772889-.291809-2.301818-2.601196-.909545-4.509125.204895-6.728211 16.812012-33.475997 33.614197-66.956939 50.418763-100.436676 2.091247-4.16629 4.182922-8.332366 6.447998-12.828033z"/><g fill="#d2691e"><path d="m993.312012 80.673889c5.617431 5.22712 11.021057 10.162964 16.31195 15.216873 3.84784 3.675469 4.221497 6.919716 1.396485 9.940087-2.93103 3.133728-6.010437 3.096-9.986511-.546334-7.725403-7.076973-15.406373-14.208038-22.919251-21.50856-2.823242-2.743416-4.908203-3.024139-7.963684-.224853-7.598938 6.961578-15.480286 13.615455-23.267517 20.370659-3.436035 2.980751-7.17804 3.132141-9.739319.465622-2.613647-2.721047-2.188293-6.961838 1.418884-10.08088 11.071656-9.573364 22.26294-19.013061 32.225586-29.77745 2.080933-2.248356 3.693726-1.386719 5.463623.268394 5.587097 5.224861 11.196717 10.425614 17.059754 15.876442z"/><path d="m690.933289 33.922092c8.784484-7.4395 17.139953-14.833391 24.668701-23.079435 2.57019-2.81508 4.470154-3.029446 7.325256-.32217 10.747986 10.191528 21.722473 20.143728 32.523865 30.279676 4.107117 3.854103 4.484192 6.814389 1.713013 9.883187-2.986451 3.307277-6.177552 3.232738-10.383973-.652573-8.787963-8.117096-17.455078-16.364952-26.524963-24.89097-6.848389 5.97953-13.452209 11.750704-20.062378 17.514562-2.759277 2.406025-5.46759 4.876534-8.316772 7.17162-2.865723 2.308353-5.968079 2.302757-8.518677-.343914-2.564026-2.660507-2.418152-5.854832.001404-8.536625 2.219177-2.459744 4.84906-4.54895 7.574524-7.023358z"/><path d="m135.134628 204.604996c1.870941-7.370896 4.775391-10.538361 9.756623-10.938202 5.811584-.466507 10.527832 2.562912 12.887161 9.012665 3.285232 8.980926 3.006027 18.115875-1.104324 26.713607-2.786988 5.829606-6.45604 11.261643-10.000138 16.695679-1.977814 3.032486-4.903992 2.488922-10.402847-1.555969 1.041016-3.595398 4.053512-5.919647 6.084915-8.878479 2.365402-3.445282 4.882172-6.803131 5.314987-11.132019.182907-1.829468.260803-3.536789-2.276794-4.245087-9.323242-2.602371-11.230469-5.53479-10.259583-15.672195z"/></g><path d="m715.789978 107.352402c-1.851868-.777252-3.646362-.853798-4.915955-2.69989.724854-3.573822 3.819519-5.875367 5.85492-8.778916 2.414062-3.443611 4.455566-6.952347 5.470459-11.093513.738037-3.011414-.047852-4.226815-3.20697-4.589035-6.483582-.743416-9.700867-4.644448-9.893616-11.417511-.201965-7.099636 3.666077-13.825814 8.581177-14.921936 5.92041-1.320305 11.087402 1.489948 13.918152 7.885715 4.414306 9.973622 3.41748 19.86153-1.363526 29.358502-2.534973 5.035499-5.831909 9.683242-8.682861 14.565643-1.329468 2.276787-3.004578 2.950081-5.76178 1.690941z"/><path d="m422.696228 97.636398c-1.050629 1.735215-1.88681 3.172875-2.759491 4.588051-4.337921 7.034851-4.842438 7.151528-12.77652 2.833237.447327-3.445885 3.264466-5.543808 5.081604-8.169907 2.466278-3.564262 5.136444-6.979507 6.128998-11.317703.688782-3.010429.349976-5.044968-3.557831-5.448174-6.162353-.63581-8.900543-4.195144-9.112823-10.870437-.249054-7.829708 3.194275-14.131672 8.419189-15.408905 5.417877-1.324402 11.223389 1.674557 13.618958 7.592621 5.188354 12.817238 2.78659 24.739853-5.042084 36.201217z" fill="#d2691e"/></svg>