<svg enable-background="new 0 0 1024 352" viewBox="0 0 1024 352" xmlns="http://www.w3.org/2000/svg"><path d="m981.999878 351.937988c-69.49176.010834-138.483582-.019561-207.475159.122406-4.736267.009735-7.93341-1.622375-11.379577-4.766418-7.315796-6.67453-12.217896-14.731171-16.49585-23.503632-10.442139-21.413208-21.25354-42.646362-31.927917-63.946197-.664063-1.325043-1.429017-2.599579-2.100037-3.812683-2.266968-.241318-3.111511 1.466735-4.229431 2.534576-30.000611 28.657379-59.968994 57.34848-89.933411 86.043762-7.449219 7.133728-7.461304 7.176453-14.854553-.260895-8.536987-8.587951-7.82721-5.310668-2.46637-16.053924 23.654541-47.403504 47.527527-94.698212 71.090882-142.146805 3.71344-7.477646 10.317199-12.071228 15.537902-18.036301 1.531311-1.749633 2.993653-.688858 4.261353.56482 6.253845 6.184616 12.782593 11.985382 16.405884 20.471176 3.839111 8.99147 8.6698 17.559601 12.970703 26.120209 2.878174.157272 4.063415-1.675644 5.444275-2.994736 48.797119-46.614243 97.501282-93.325966 146.376648-139.857964 16.279846-15.49934 32.288208-31.363006 50.922851-44.159542 11.895264-8.168535 24.305725-15.104601 39.050904-16.766624 14.931335-1.683011 26.345398 3.943285 34.530822 16.256515 7.089234 10.664151 9.700867 22.901581 11.516175 35.308667 3.595764 24.575859 1.648071 49.166915-.095826 73.746582-.093444 1.316833-.397155 2.636779-.751708 3.914001-1.753418 6.316757-6.001526 9.477158-11.540162 8.64946-5.224975-.780808-9.326965-6.20636-8.919799-12.169449.770813-11.287575 2.208068-22.554314 2.436706-33.848564.360474-17.807274-.016052-35.633194-4.91394-52.992214-.045166-.160084-.097779-.31807-.146363-.4772-5.345092-17.506382-15.351989-22.059507-31.988403-14.353977-18.408325 8.526234-33.655334 21.520283-48.159058 35.306248-42.389831 40.291969-84.520385 80.856628-126.765869 121.300552-13.960632 13.365356-27.863647 26.79393-42.01593 39.953842-3.362976 3.127182-3.990845 5.498917-1.814392 9.755661 12.736633 24.910965 25.242859 49.942063 37.550476 75.067917 2.131287 4.351044 4.630982 5.935516 9.500061 5.925079 70.991272-.152313 141.983154-.028778 212.974243-.226226 6.299622-.017517 10.952027 1.48883 15.32782 6.187988 8.114014 8.713776 8.113281 8.223633.269653 16.81662-4.434875 4.858581-9.13977 7.206634-15.706604 6.437805-3.945922-.461914-7.988098-.101502-12.486999-.110535m-280.297485-117.867279c-3.815918-7.686767-7.631775-15.37352-12.077942-24.329895-12.124634 24.273087-23.643982 47.334503-35.163391 70.395935 15.678466-13.628906 30.524536-27.679519 45.345336-41.756714 1.041749-.989471 2.4693-1.855041 1.895997-4.309326z"/><path d="m82.361313 247.324661c-14.458496 28.93599-28.799545 57.511704-43.041958 86.13649-3.534019 7.102753-10.036789 11.459381-15.180658 17.069702-1.611826 1.757965-2.947918.394989-4.168398-.871277-2.774113-2.878204-5.457443-5.861785-8.41627-8.538848-2.780806-2.516022-3.127266-4.835694-1.381114-8.287751 18.569654-36.711151 36.983945-73.500915 55.437353-110.270843 5.752678-11.462677 11.839897-22.774552 17.12252-34.450211 3.65976-8.08876 10.17717-13.44841 16.037697-19.526001 1.614082-1.673858 3.077194-1.579803 4.680603.054596 6.148483 6.267258 12.46389 12.127381 16.519241 20.378479 21.011284 42.749909 42.561272 85.234757 63.719704 127.91304 2.152451 4.341675 4.64592 5.914765 9.504486 5.904419 70.641419-.150787 141.283661.009796 211.924347-.259155 7.280975-.027679 12.563446 1.832367 17.450958 7.213379 6.935028 7.635254 6.852692 7.007141.033997 14.735565-5.24176 5.941071-11.019654 7.627258-18.779389 7.598297-72.806488-.271637-145.614563-.170868-218.421951-.051056-4.350586.007172-7.227051-1.642852-10.505356-4.38916-11.788711-9.875671-16.488449-24.024078-23.093017-36.969147-15.896073-31.156707-31.425484-62.500427-47.120499-93.759826-1.019814-2.031143-2.189827-3.986862-3.794273-6.890259-6.410073 12.879166-12.392098 24.8983-18.528023 37.259567z"/><path d="m276.656677 274.309143c-4.553497-1.595154-8.744598-3.081848-12.78186-4.513946-.174927-3.049195 1.763428-4.407746 2.995483-6.071473 4.950379-6.684875 10.182679-13.167877 14.961182-19.971084 4.108063-5.848755 5.84024-12.58374 6.140015-19.740509.141143-3.368759-1.089081-4.746903-4.496705-5.017624-16.08374-1.277863-22.251556-8.267563-21.721405-24.699188.176758-5.478562.891083-10.947846 3.518708-15.938019 7.833282-14.876358 25.660492-16.614151 36.184662-3.401489 7.059875 8.863372 9.071441 19.485687 9.552276 30.421447.637238 14.492585-2.852112 28.071366-10.304657 40.510712-5.301574 8.849014-11.092346 17.405426-16.371216 26.267273-1.971405 3.309509-4.09552 4.021301-7.676483 2.1539z"/><path d="m854.613525 264.673767c4.592163-5.953613 8.996888-11.600037 13.322754-17.306198 5.26117-6.940109 8.322022-14.714798 8.741638-23.479279.128235-2.677597-.489807-4.663421-3.630859-4.77243-6.636902-.230316-13.395447.30368-17.848572-6.44342-5.341125-8.092575-5.675903-16.800019-4.069336-25.884446.522339-2.953338 1.238953-5.861923 2.714356-8.52066 3.741211-6.742004 8.670898-12.071426 16.990173-12.117096 9.81781-.053894 17.293946 4.444824 22.009522 13.074402 7.564697 13.843597 7.75653 28.67894 5.196289 43.71933-1.494934 8.781845-4.954102 16.8974-9.704224 24.443145-5.234436 8.315156-10.565308 16.571564-15.663818 24.969117-1.684754 2.774841-3.482605 3.663025-6.542603 2.363128-4.549866-1.93283-9.567932-2.69812-13.753235-5.206237-.49469-2.254731 1.110596-3.239197 2.237915-4.839356z"/></svg>