<svg enable-background="new 0 0 2994 412" viewBox="0 0 2994 412" xmlns="http://www.w3.org/2000/svg"><path d="m2275 413c-758.333252 0-1516.166504 0-2273.999797 0-.000067-137.333221-.000067-274.666458-.000135-411.99976 997.999688-.00008 1995.999444-.00008 2993.999444-.00016 0 137.333004 0 274.666088.000244 411.999554-239.833008.000366-479.666504.000366-719.999756.000366m-820.5-387.170647c-35.906006 0-71.81189 0-107.75647 0v9.73798c3.023804.163876 5.877075.025879 8.615479.5219 8.156738 1.477436 16.390869 2.760216 24.362915 4.959328 7.782226 2.14682 12.730102 7.843685 14.426514 15.73896 1.356079 6.310994 2.759643 12.78138 2.776733 19.184655.216064 80.982948.20813 161.96656.165649 242.949943-.003051 5.806793-.482055 11.641113-1.154541 17.414368-1.797973 15.43753-7.776001 22.008056-22.898437 25.57254-2.424072.57132-4.870972 1.09549-7.335816 1.432983-6.365234.871521-12.746215 1.626465-18.854126 2.39441v9.136017c1.009522.055908 1.671143.124664 2.332886.124694 56.822022.001435 113.644165.100373 170.46582-.055511 23.403687-.064179 46.583374-2.313507 68.773804-10.436768 32.503906-11.898773 54.614502-33.105896 60.229248-68.612182 3.028321-19.15091 2.033814-37.828308-7.377929-55.385376-7.462647-13.921173-19.5625-22.859299-32.702027-30.658051-14.03479-8.330108-29.04248-14.363647-45.95813-18.34581 8.240967-2.741653 15.537598-4.94722 22.672974-7.588699 15.358887-5.68602 28.501343-14.385407 37.118164-28.776871 10.965088-18.31337 11.740112-38.196358 8.173096-58.472359-4.480713-25.469345-18.741089-43.380535-42.443726-54.099201-24.420044-11.043165-50.265137-15.186336-76.651611-16.331384-18.630982-.808487-37.318238-.316796-56.980469-.405566m1120.017578 303.144768c66.973145 74.569336 205.504883 75.712158 274.27002-11.735504-3.11792-3.477997-6.167237-6.879395-9.133057-10.187897-6.579102 5.616852-12.799316 11.162018-19.263184 16.406555-35.579101 28.86789-76.054443 41.230317-121.553955 34.358521-37.219726-5.621246-64.723877-26.504852-84.698974-57.714508-13.259033-20.716553-19.961914-43.763519-22.391114-68.11435-4.024169-40.342163-1.210205-79.855972 15.289795-117.480331 9.46045-21.571716 23.230225-39.969894 42.677002-53.634857 22.535157-15.835182 47.716065-21.921726 75.082276-19.995239 39.674804 2.792987 69.412597 21.473873 88.517578 56.168533 6.530029 11.858696 10.811767 24.950134 16.26123 37.417023.606201 1.386428 2.012207 3.190094 3.261719 3.378555 3.194336.481735 6.509277.160629 9.933838.160629-1.608643-39.85112-3.190674-79.041839-4.783691-118.505911-3.210938 0-5.895997-.260469-8.490967.110337-1.289795.184263-2.977783 1.254505-3.525879 2.387981-5.504639 11.380568-16.099854 16.438028-28.478516 13.292051-8.702148-2.211673-17.414306-4.395591-26.065918-6.79412-34.388916-9.533827-69.06958-11.94928-104.174316-4.453282-54.599121 11.658741-94.102295 43.424774-119.179932 92.4944-19.889404 38.91874-23.302978 80.836434-16.441894 123.656868 5.37915 33.568665 19.526855 63.047486 42.887939 88.784546m-2262.501648-305.523863c-35.572571 83.589102-70.976211 167.250761-106.826294 250.72064-10.033844 23.361847-21.169525 46.261841-32.225647 69.168122-5.012634 10.385284-13.696228 16.988922-24.926193 19.98883-3.173508.847779-6.40419 1.481537-9.646576 2.222107v9.07779h104.083542c0-3.30127 0-6.212891 0-8.846436-6.947159-1.168823-13.580353-1.927765-20.032715-3.452148-10.284897-2.42981-15.591904-9.20868-15.451385-19.742676.056854-4.26236.625167-8.751587 2.087265-12.722809 8.214721-22.311951 16.721023-44.51767 25.356552-66.670471.466751-1.197418 2.997436-2.255219 4.570495-2.259583 43.656006-.120971 87.31247-.066131 130.968567-.169403 2.782471-.006592 4.000672.858185 5.06836 3.374268 6.488708 15.291351 13.541443 30.353454 19.664764 45.786133 3.909668 9.853546 7.007568 20.095031 9.631989 30.376342 3.449157 13.512207-1.551026 20.535889-15.315003 22.661835-6.701935 1.035187-13.454895 1.739807-20.318634 2.611084v9.210327h133.956299c0-3.227814 0-6.273865 0-9.272705-2.619598-.497955-4.897888-.956299-7.185577-1.361725-12.847931-2.276794-22.254792-9.139374-27.980408-20.935394-4.211029-8.67569-8.728577-17.21579-12.611176-26.035706-43.098816-97.905716-86.087524-195.859893-129.234771-293.744211-.737641-1.67341-3.001832-3.603464-4.680512-3.729896-3.051758-.229845-7.248444-2.009854-8.952942 3.745685m754.705994 210.684569c-.875366-.468521-1.727417-.988343-2.629517-1.398133-31.040161-14.100616-62.08374-28.193939-93.129699-42.281891-61.945252-28.109359-123.891053-56.217514-185.846497-84.304412-1.27179-.576569-2.663696-.888306-4.716797-1.557282 0 12.676888-.107361 24.615372.161133 36.54541.027771 1.231659 2.08197 2.887589 3.554199 3.549301 65.68573 29.52298 131.414856 58.949494 197.127075 88.41359 5.356262 2.401657 10.6297 4.987915 16.657166 7.825241-2.191773 1.227646-3.422058 2.037445-4.746521 2.640732-24.671875 11.238266-49.357361 22.446594-74.035095 33.672027-44.96344 20.453034-89.912049 40.938691-134.91211 61.310761-2.877502 1.302704-3.93164 2.965332-3.877136 6.06073.161133 9.160248.059387 18.325104.060303 27.488159.000244 2.068451.000061 4.136871.000061 7.130615 2.963073-1.257446 4.910034-2.032348 6.814941-2.899597 61.002991-27.772156 122-55.557373 183.002197-83.331268 31.18274-14.197266 62.384827-28.352143 93.528992-42.633469 1.626587-.745895 3.838623-2.400802 3.970337-3.802475.366089-3.893204-.22229-7.876159-.983032-12.428039m1012.162353-75.458954c-39.871826-18.086502-79.743652-36.173004-120.572387-54.69355 0 13.174774-.125 24.960319.167358 36.735542.034302 1.385818 2.105957 3.286407 3.665161 3.987625 65.685791 29.538529 131.424195 58.959778 197.143189 88.424454 5.347412 2.397476 10.604248 4.997711 16.723632 7.891708-2.651855 1.333145-4.239257 2.199555-5.881103 2.946701-69.186768 31.486512-138.371704 62.977234-207.592651 94.388336-2.940796 1.334504-4.352784 2.890076-4.278809 6.321259.215332 9.99234.051514 19.992645.081055 29.989655.003662 1.243408.276733 2.485992.481201 4.200988 2.029785-.777221 3.567505-1.273712 5.028564-1.938781 49.201905-22.397278 98.394409-44.814759 147.592408-67.220337 42.991455-19.57898 85.993652-39.13501 128.963867-58.759766 1.889648-.862961 4.293945-1.91716 5.118164-3.556183 2.874756-5.717087-.22168-13.27919-5.971192-15.886291-53.323486-24.179505-106.643554-48.366745-160.668457-72.83136z" fill="#fff"/><path d="m1455 25.829353c19.162231.08877 37.849487-.402921 56.480469.405566 26.386474 1.145048 52.231567 5.288219 76.651611 16.331384 23.702637 10.718666 37.963013 28.629856 42.443726 54.099201 3.567016 20.276001 2.791992 40.158989-8.173096 58.472359-8.616821 14.391464-21.759277 23.090851-37.118164 28.776871-7.135376 2.641479-14.432007 4.847046-22.672974 7.588699 16.91565 3.982163 31.92334 10.015702 45.95813 18.34581 13.139527 7.798752 25.23938 16.736878 32.702027 30.658051 9.411743 17.557068 10.40625 36.234466 7.377929 55.385376-5.614746 35.506286-27.725342 56.713409-60.229248 68.612182-22.19043 8.123261-45.370117 10.372589-68.773804 10.436768-56.821655.155884-113.643798.056946-170.46582.055511-.661743-.00003-1.323364-.068786-2.332886-.124694 0-2.948121 0-5.860016 0-9.136017 6.107911-.767945 12.488892-1.522889 18.854126-2.39441 2.464844-.337493 4.911744-.861663 7.335816-1.432983 15.122436-3.564484 21.100464-10.13501 22.898437-25.57254.672486-5.773255 1.15149-11.607575 1.154541-17.414368.042481-80.983383.050415-161.966995-.165649-242.949943-.01709-6.403275-1.420654-12.873661-2.776733-19.184655-1.696412-7.895275-6.644288-13.59214-14.426514-15.73896-7.972046-2.199112-16.206177-3.481892-24.362915-4.959328-2.738404-.496021-5.591675-.358024-8.615479-.5219 0-3.205055 0-6.133941 0-9.73798zm114.982178 308.685753c4.047363-5.419922 9.075317-10.366821 11.960693-16.347381 9.110718-18.884552 9.136231-38.981507 5.341431-59.08899-3.800415-20.136703-15.823242-33.849151-34.57312-42.025634-32.513306-14.178467-66.856446-14.396149-101.709961-13.995926 0 1.890304-.000122 3.519668-.000122 5.149048 0 39.473632-.003662 78.94725.006713 118.420883.000855 3.496368-.062377 7.003235.172852 10.487121.726929 10.765351 4.166626 15.784455 14.817139 16.650818 15.692871 1.276489 31.588135 1.895538 47.279052.910675 20.319092-1.27536 39.525025-7.211548 56.705323-20.160614m-63.810547-152.722107c12.661011-.889984 25.188476-2.521164 36.985473-7.549316 15.054566-6.416596 26.34314-16.626892 31.751343-32.478668 3.830689-11.228302 4.549805-22.829453 3.223877-34.511948-2.984985-26.301277-16.174316-45.149948-41.530151-54.100025-21.848999-7.712277-44.719971-8.504513-67.581787-7.620461-16.859986.651963-17.996582 2.293625-18.010132 19.499073-.029663 37.648697-.009277 75.297432-.0094 112.946144v3.866593c18.603394 0 36.415528 0 55.170777-.051392z" fill="#010101"/><path d="m2574.272461 328.71991c-23.115967-25.482849-37.263672-54.96167-42.642822-88.530335-6.861084-42.820434-3.44751-84.738128 16.441894-123.656868 25.077637-49.069626 64.580811-80.835659 119.179932-92.4944 35.104736-7.495998 69.7854-5.080545 104.174316 4.453282 8.651612 2.398529 17.36377 4.582447 26.065918 6.79412 12.378662 3.145977 22.973877-1.911483 28.478516-13.292051.548096-1.133476 2.236084-2.203718 3.525879-2.387981 2.59497-.370806 5.280029-.110337 8.490967-.110337 1.593017 39.464072 3.175048 78.654791 4.783691 118.505911-3.424561 0-6.739502.321106-9.933838-.160629-1.249512-.188461-2.655518-1.992127-3.261719-3.378555-5.449463-12.466889-9.731201-25.558327-16.26123-37.417023-19.104981-34.69466-48.842774-53.375546-88.517578-56.168533-27.366211-1.926487-52.547119 4.160057-75.082276 19.995239-19.446777 13.664963-33.216552 32.063141-42.677002 53.634857-16.5 37.624359-19.313964 77.138168-15.289795 117.480331 2.4292 24.350831 9.132081 47.397797 22.391114 68.11435 19.975097 31.209656 47.479248 52.093262 84.698974 57.714508 45.499512 6.871796 85.974854-5.490631 121.553955-34.358521 6.463868-5.244537 12.684082-10.789703 19.263184-16.406555 2.96582 3.308502 6.015137 6.7099 9.133057 10.187897-68.765137 87.447662-207.296875 86.30484-274.515137 11.481293z" fill="#020202"/><path d="m312.157593 23.090231c1.562835-5.395512 5.759521-3.615503 8.811279-3.385658 1.67868.126432 3.942871 2.056486 4.680512 3.729896 43.147247 97.884318 86.135955 195.838495 129.234771 293.744211 3.882599 8.819916 8.400147 17.360016 12.611176 26.035706 5.725616 11.79602 15.132477 18.6586 27.980408 20.935394 2.287689.405426 4.565979.86377 7.185577 1.361725v9.272705c-44.614105 0-89.180176 0-133.956299 0 0-3.149109 0-6.080749 0-9.210327 6.863739-.871277 13.616699-1.575897 20.318634-2.611084 13.763977-2.125946 18.76416-9.149628 15.315003-22.661835-2.624421-10.281311-5.722321-20.522796-9.631989-30.376342-6.123321-15.432679-13.176056-30.494782-19.664764-45.786133-1.067688-2.516083-2.285889-3.38086-5.06836-3.374268-43.656097.103272-87.312561.048432-130.968567.169403-1.573059.004364-4.103744 1.062165-4.570495 2.259583-8.635529 22.152801-17.141831 44.35852-25.356552 66.670471-1.462098 3.971222-2.030411 8.460449-2.087265 12.722809-.140519 10.533996 5.166488 17.312866 15.451385 19.742676 6.452362 1.524383 13.085556 2.283325 20.032715 3.452148v8.846436c-34.45546 0-69.154907 0-104.083542 0 0-2.961274 0-5.884522 0-9.07779 3.242386-.74057 6.473068-1.374328 9.646576-2.222107 11.229965-2.999908 19.913559-9.603546 24.926193-19.98883 11.056122-22.906281 22.191803-45.806275 32.225647-69.168122 35.850083-83.469879 71.253723-167.131538 106.967957-251.080667m9.57608 110.677896c-5.443542-12.890853-10.887115-25.781707-16.76416-39.699127-20.405457 49.088425-40.34372 97.052887-60.310196 145.085266h121.199631c-14.750458-35.180145-29.316254-69.91986-44.125275-105.386139z" fill="#020202"/><path d="m1066.996582 234.437012c.486084 4.249695 1.074463 8.23265.708374 12.125854-.131714 1.401673-2.34375 3.05658-3.970337 3.802475-31.144165 14.281326-62.346252 28.436203-93.528992 42.633469-61.002197 27.773895-121.999206 55.559112-183.002197 83.331268-1.904907.867249-3.851868 1.642151-6.814941 2.899597 0-2.993744.000183-5.062164-.000061-7.130615-.000916-9.163055.10083-18.327911-.060303-27.488159-.054504-3.095398.999634-4.758026 3.877136-6.06073 45.000061-20.37207 89.94867-40.857727 134.91211-61.310761 24.677734-11.225433 49.36322-22.433761 74.035095-33.672027 1.324463-.603287 2.554748-1.413086 4.746521-2.640732-6.027466-2.837326-11.300904-5.423584-16.657166-7.825241-65.712219-29.464096-131.441345-58.89061-197.127075-88.41359-1.472229-.661712-3.526428-2.317642-3.554199-3.549301-.268494-11.930038-.161133-23.868522-.161133-36.54541 2.053101.668976 3.445007.980713 4.716797 1.557282 61.955444 28.086898 123.901245 56.195053 185.846497 84.304412 31.045959 14.087952 62.089538 28.181275 93.129699 42.281891.9021.40979 1.754151.929612 2.904175 1.700318z" fill="#c67035"/><path d="m2079.236328 158.815659c53.672852 24.324829 106.99292 48.512069 160.316406 72.691574 5.749512 2.607101 8.845948 10.169204 5.971192 15.886291-.824219 1.639023-3.228516 2.693222-5.118164 3.556183-42.970215 19.624756-85.972412 39.180786-128.963867 58.759766-49.197999 22.405578-98.390503 44.823059-147.592408 67.220337-1.461059.665069-2.998779 1.16156-5.028564 1.938781-.204468-1.714996-.477539-2.95758-.481201-4.200988-.029541-9.99701.134277-19.997315-.081055-29.989655-.073975-3.431183 1.338013-4.986755 4.278809-6.321259 69.220947-31.411102 138.405883-62.901824 207.592651-94.388336 1.641846-.747146 3.229248-1.613556 5.881103-2.946701-6.119384-2.893997-11.37622-5.494232-16.723632-7.891708-65.718994-29.464676-131.457398-58.885925-197.143189-88.424454-1.559204-.701218-3.630859-2.601807-3.665161-3.987625-.292358-11.775223-.167358-23.560768-.167358-36.735542 40.828735 18.520546 80.700561 36.607048 120.924438 54.833336z" fill="#c67035"/><path d="m1569.717773 334.753052c-16.915893 12.71112-36.121826 18.647308-56.440918 19.922668-15.690917.984863-31.586181.365814-47.279052-.910675-10.650513-.866363-14.09021-5.885467-14.817139-16.650818-.235229-3.483886-.171997-6.990753-.172852-10.487121-.010375-39.473633-.006713-78.947251-.006713-118.420883 0-1.62938.000122-3.258744.000122-5.149048 34.853515-.400223 69.196655-.182541 101.709961 13.995926 18.749878 8.176483 30.772705 21.888931 34.57312 42.025634 3.7948 20.107483 3.769287 40.204438-5.341431 59.08899-2.885376 5.98056-7.91333 10.927459-12.225098 16.585327z" fill="#fefefe"/><path d="m1505.699951 181.818695c-18.283569.025696-36.095703.025696-54.699097.025696 0-.723038 0-2.294815 0-3.866593.000123-37.648712-.020263-75.297447.0094-112.946144.01355-17.205448 1.150146-18.84711 18.010132-19.499073 22.861816-.884052 45.732788-.091816 67.581787 7.620461 25.355835 8.950077 38.545166 27.798748 41.530151 54.100025 1.325928 11.682495.606812 23.283646-3.223877 34.511948-5.408203 15.851776-16.696777 26.062072-31.751343 32.478668-11.796997 5.028152-24.324462 6.659332-37.457153 7.575012z" fill="#fefefe"/><path d="m321.855286 134.131409c14.687408 35.102997 29.253204 69.842712 44.003662 105.022857-40.393006 0-80.404511 0-121.199631 0 19.966476-48.032379 39.904739-95.996841 60.310196-145.085266 5.877045 13.91742 11.320618 26.808274 16.885773 40.062409z" fill="#fcfcfc"/></svg>