<svg enable-background="new 0 0 1024 176" viewBox="0 0 1024 176" xmlns="http://www.w3.org/2000/svg"><path d="m457.468658 177c-3.638549-3.053543-7.188598-4.762024-11.738616-5.601746-10.859925-2.004196-16.514466-19.643203-10.053589-28.945999 9.41568-13.557266 22.609192-16.305252 37.846099-14.485649 11.772645 1.405892 23.60318 1.004662 35.407532.166817 12.158295-.862961 24.317963-.122223 36.476837-.14843 6.998169-.015076 13.9776-.035957 20.740479-2.352371 9.916809-3.396706 13.545166-12.623848 8.470886-21.868103-2.653198-4.833618-2.023559-6.934143 2.65033-9.831253 1.424011-.882653 2.400329-.635727 3.565735.30188 13.030822 10.483993 11.574707 22.994949 3.151611 32.952194-9.441528 11.161217-21.678345 14.589393-35.087402 14.860039-24.306458.4906-48.629395.314178-72.943848.159362-7.288391-.046402-14.558289-1.716583-21.830322.441254-6.151612 1.825409-8.671173 5.536972-7.696137 11.897644.520691 3.396744 2.138062 5.84169 5.607239 6.916046 4.158905 1.287949 8.350189 2.171875 12.733337 2.221283 41.321289.465683 82.642487.380905 123.962921-.037445 6.502686-.065842 12.883118-1.23468 19.2099-2.788925 13.489441-3.313828 21.323914-12.260758 22.37909-25.586151 1.735473-21.915901-.342652-43.631584-9.014405-64.172188-9.143676-21.658264-26.859252-33.13435-48.750793-38.307549-22.983337-5.43119-46.21106-4.944269-69.260529.451718-3.747558.877319-7.245208 2.449611-10.611175 4.302772-7.840881 4.31683-11.677673 11.09758-12.201813 19.900864-.059357.997272-.042114 1.998863-.079681 2.997726-.119446 3.173592-1.232727 5.790432-4.83609 5.710003-3.490754-.077919-4.636078-2.656814-4.890198-5.811538-1.207245-14.98687 6.401062-27.228169 20.930542-33.559101 14.181885-6.179511 29.233124-7.804486 44.44046-7.754284 16.84375.055603 33.577088 1.494724 49.644043 7.24443 26.428528 9.457691 43.008911 28.236183 51.468933 54.567314 5.514832 17.164177 6.948487 34.896859 6.040344 52.785164-.90979 17.920349-11.53717 29.10434-26.719116 36.885498-5.376709 2.755677-11.109924 4.435303-17.169494 6.304093-47.332642.184631-94.353547.184631-141.84311.184631z"/><path d="m11.375 177c-6.030339-4.319641-4.962553-8.784897-1.919914-14.54274 11.905731-22.530273 22.398023-45.7948 34.731743-68.107979 11.092731-20.068069 25.893158-37.087162 43.652633-51.563301 9.999878-8.151123 22.005333-9.158287 34.049866-8.922771 14.615219.285782 27.751465 5.056099 38.444824 15.494358 2.490586 2.431167 4.265488 4.970222 1.098557 8.071697-2.92424 2.863808-5.416062 1.759502-8.229248-.655609-14.268021-12.249062-30.817375-14.800781-48.744706-10.948547-4.18048.898307-7.7061 3.184646-10.947639 5.810749-14.361641 11.63491-26.605766 25.137863-36.0839 41.088859-1.68499 2.835709-1.952519 5.157234-.349503 8.284386 8.434738 16.454399 16.58577 33.054161 24.856613 49.592781.787743 1.575211 1.722954 3.07666 2.583664 4.601639 2.179367-1.044617 2.466728-2.831986 3.181809-4.254929 8.080009-16.07843 16.140609-32.166885 24.119926-48.295441 2.112305-4.269615 4.714378-9.710037 8.998787-9.869026 4.410385-.16365 6.9916 5.34037 9.106857 9.560692 10.074524 20.100426 20.034973 40.260834 30.39563 60.21315 2.709015 5.216965 4.290238 9.590424-1.208038 14.127365-1.179627.314667-2.246308.314667-3.808304-.012512-5.567871-5.552444-8.371567-12.150497-11.542954-18.532364-6.515884-13.112121-13.042602-26.218994-19.627388-39.296562-.859481-1.70694-1.318504-3.752838-3.383773-5.005455-12.143677 20.664932-19.793183 43.612534-33.750542 63.16156-1.066673 0-2.133339 0-3.750809-.301392-5.682815-5.483337-8.512626-12.074722-11.698234-18.455001-6.759278-13.537812-13.537312-27.06633-20.353134-40.575715-.640439-1.269378-.840695-2.900047-2.419678-3.630615-1.849121 1.173729-2.310986 3.223351-3.177063 4.947151-7.091885 14.11538-14.18754 28.229882-21.121269 42.423211-2.787867 5.706741-5.65415 11.288497-10.479813 15.592361-.75 0-1.5 0-2.625 0z"/><path d="m917.466858 177c-3.335266-7.552353-3.273926-7.890305 3.605041-12.496078 11.680909-7.821 22.54535-16.552735 31.575379-27.432908 4.460632-5.374572 5.11438-10.861625 1.589905-17.03154-2.887757-5.055374-5.565003-10.25769-7.953003-15.566932-7.166504-15.93293-5.03064-24.462822 8.929992-35.082039 4.894471-3.722939 10.224121-6.877228 15.38501-10.245304 2.820618-1.840805 5.710083-2.362309 7.869751.846439 2.004273 2.977936.580628 5.507714-1.937622 7.314835-5.94873 4.26886-12.145264 8.199676-18.005188 12.583137-6.560303 4.907402-7.689331 9.469139-4.268677 17.009011 2.956177 6.516204 6.170044 12.926841 9.530213 19.245773 5.15509 9.694168 3.758423 18.571838-2.852295 26.941254-4.977478 6.301605-10.708435 11.864181-16.85022 17.018676-1.367065 1.147232-3.046692 2.011536-3.754333 3.864121 23.142517.429886 48.356506-16.62471 58.450561-39.367256 6.299622-14.193497 9.081848-29.136772 9.97583-44.535347.645996-11.127999 1.686768-22.224118-1.047363-33.275151-2.788757-11.271755-8.124085-20.791528-18.100525-27.122051-7.071594-4.487294-11.022522-2.499515-12.434265 5.816454-.222656 1.311524-.502991 2.621431-.874817 3.897657-.676148 2.320759-2.236023 3.816231-4.688232 3.731347-2.63971-.091385-4.240967-1.740838-4.807984-4.298729-3.019775-13.622073 9.164673-25.319597 22.168274-20.385959 15.224609 5.776325 26.367493 17.130404 28.745789 33.210711 4.335632 29.315201 2.304382 58.469323-9.346131 86.28669-8.285766 19.783333-21.938904 33.804146-42.863159 40.390999-10.496765 3.304352-21.014038 6.348618-32.171448 8.507202-5.359436.174988-10.38153.174988-15.870483.174988z"/><g fill="#d2691e"><path d="m309.880615 156.247253c-18.259979-8.95906-36.17749-17.770553-54.113434-26.544372-1.855499-.907654-3.620071-1.749252-3.714447-4.184982-.100219-2.586419 1.477219-3.82631 3.56807-4.848526 27.950699-13.664971 55.884537-27.364502 83.82991-41.040352 1.31311-.642609 2.609009-1.519028 4.375-1.006668 1.049042 3.746864.493713 7.570404.411377 11.349838-.059418 2.73114-2.593719 3.245361-4.444672 4.174972-19.026794 9.555993-38.082611 19.054146-57.124969 28.579255-1.154907.57769-2.263947 1.247047-3.855316 2.129325 4.93869 3.582993 10.206451 5.587708 15.164581 8.105027 14.536041 7.380203 29.054443 14.810287 43.795807 21.76271 5.094269 2.402588 7.643494 5.352295 6.624542 11.029343-.34378 1.915405.392578 3.992187-1.310638 6.652283-10.896759-5.30423-21.882691-10.651871-33.205811-16.157853z"/><path d="m772.955078 118.027565c-4.452637 2.259605-8.578613 4.343384-13.7005 6.930153 8.054016 4.113602 15.229614 7.825119 22.446594 11.4543 12.644775 6.358642 25.218628 12.871948 38.026733 18.884811 4.485108 2.105561 6.391968 4.779373 5.651734 9.589432-.324524 2.108505.333923 4.324173-.543457 6.452332-2.006653 1.008682-3.520203-.388596-5.063477-1.140458-27.405701-13.351837-54.78949-26.748474-82.175293-40.141128-2.092651-1.023392-4.355224-1.87262-4.371338-4.835564-.01593-2.919037 2.099365-3.897934 4.23407-4.94284 27.228149-13.327492 54.448364-26.671097 81.683594-39.983979 1.734558-.847854 3.360412-2.269981 5.733276-1.515709.928711 3.555306.342835 7.218995.422058 10.843392.061219 2.803528-2.287353 3.437378-4.168579 4.378189-15.939148 7.971306-31.896789 15.905746-48.175415 24.027069z"/></g></svg>