<svg enable-background="new 0 0 1006 558" viewBox="0 0 1006 558" xmlns="http://www.w3.org/2000/svg"><path d="m741 559c-247 0-493.5 0-740 0 0-186 0-372 0-558h1006v558c-88.5 0-177 0-266 0m-403.007904-346.82756h74.097076v7.16983c0 99.276321.022522 198.552658-.087494 297.828812-.004119 3.727111 1.014924 6.094726 4.046967 8.278198 10.264008 7.39154 20.26413 15.149597 30.531342 22.536438 1.851532 1.332092 4.489868 1.570556 7.713043 2.623779 0-113.683563 0-225.845856 0-338.407684 2.389343 0 4.195465-.016175 6.001251.002548 15.630219.161987 31.260376.330261 47.795166.612472h251.520538v87.222352c-1.722778-.107178-3.047851-.174591-4.370544-.27414-25.385742-1.909942-50.751831-5.088714-76.160645-5.477234-55.480102-.848358-110.981811-.280151-166.474731-.279358-1.466492.000031-2.933014.130432-5.705078.262024 1.236481 3.407349 1.756958 6.52414 3.348205 8.933838 6.69867 10.144501 13.818421 20.010437 20.550415 30.133728 1.786988 2.687103 3.694153 3.608643 6.893555 3.58609 21.32959-.150512 42.660645-.083282 63.991272-.068237 1.720642.00119 3.441162.141357 5.249817.220856-.221558.866363-.226318 1.220642-.391235 1.468261-.553467.830994-1.14032 1.642426-1.756104 2.428772-10.847229 13.85196-16.19043 29.675476-16.776733 47.16095-1.016785 30.323242 9.173279 57.250916 25.602661 82.064789 16.976501 25.640106 38.667297 47.030701 61.942627 66.894775 4.755005 4.058106 9.590271 8.022278 14.486877 12.111817 5.954529-6.671265 11.461304-12.840943 17.142456-19.205933-2.471924-2.220398-4.549072-4.11438-6.656067-5.974487-16.785705-14.818115-32.195495-30.931763-45.506836-48.960663-19.336486-26.189636-28.06488-55.188629-20.753601-87.496948 6.406006-28.308167 24.283448-45.911774 52.800415-51.303314 17.651429-3.337281 35.528382-1.752533 53.317749-.789185 6.43158.348267 12.844178 1.047394 19.615357 1.615845 0 2.362365.000061 4.332733.000061 6.3031 0 58.325897.026489 116.651795-.072571 174.977539-.005371 3.160157.860596 5.135681 3.449463 7.018006 9.968994 7.248413 19.668396 14.868652 29.667297 22.074218 2.294312 1.653382 5.379883 2.208741 8.956116 3.602539 0-3.32135 0-5.124328 0-6.927307 0-48.660461-.029968-97.321045.096192-145.98117.005798-2.231507.759826-5.160645 2.27539-6.57843 12.635071-11.820374 25.085327-23.908783 38.479736-34.826355 12.167603-9.917542 26.315552-16.340485 42.461853-16.811463 16.667542-.486267 29.643494 9.77417 32.916749 26.111969 3.431701 17.128723.009704 33.496216-6.880127 49.113007-8.116578 18.397247-19.745057 34.691253-31.986084 50.542541-1.478028 1.91388-2.874146 3.89093-4.485474 6.079468 13.501526 9.704834 26.561035 19.09198 39.777222 28.591736 14.724304-17.726929 26.554626-36.783569 33.679077-58.344269 12.870971-38.951508 9.593506-75.65625-17.969605-107.809326-15.852844-18.492676-36.279541-28.68219-60.855774-30.366028-18.377929-1.259094-34.876587 4.024414-50.236511 13.518524-5.727478 3.540222-11.079834 7.687317-17.000122 11.835816 0-39.004303 0-77.542832 0-116.6055h194.857483c-1.235901-3.702484-1.638733-6.870956-3.212097-9.272613-5.839417-8.913803-11.932862-17.672043-18.259033-26.246582-1.21283-1.64386-3.905884-3.10025-5.923767-3.110413-32.994263-.166061-65.989869-.047531-98.985108-.073639-22.823852-.018066-45.647583-.159149-68.69574-.866714-19.74884-19.287598-39.022827-39.092545-59.349975-57.750069-36.98523-33.947265-79.063721-60.273327-124.994019-80.443298-40.812744-17.922608-83.285278-27.03852-128.066009-24.020279-24.037995 1.62017-46.370331 7.924477-66.319672 21.962101-23.506226 16.540436-35.068359 39.166294-34.080048 67.672657.691834 19.953041 6.877167 38.553329 17.986664 55.289825 4.063751 6.122116 8.588684 11.938126 13.095063 18.158554-3.402344 0-6.398194-.003311-9.394043.000534-24.651459.031647-49.302887.064621-74.87674-.061477-42.585449 0-85.170883 0-129.099136 0 1.45549 3.651291 2.140152 6.516571 3.628753 8.874267 3.55069 5.623734 8.220978 10.648148 11.097596 16.566651 5.351516 11.010391 13.273788 15.083236 25.400802 13.404968 7.772354-1.075623 15.814514-.20166 23.916565-.20166v6.153396c0 99.785965.023163 199.571946-.093933 299.357773-.004211 3.586731 1.099884 5.700501 3.920288 7.746704 9.698395 7.036255 19.119934 14.455323 28.851868 21.443177 2.440552 1.75238 5.647278 2.437622 9.279785 3.933716 0-113.662079 0-225.895966 0-339.067322 8.245819 0 16.17807 0 25.033844.112137m-145.83876 103.552719c.968933-11.431031 2.774383-22.86438 2.74327-34.292664-.079757-29.290756-11.626464-54.447372-30.533279-76.193497-24.689941-28.397735-55.166779-42.437103-93.303329-34.278701-19.273915 4.123184-33.704239 15.499954-41.126639 33.793243-12.538109 30.901489-5.112409 58.900543 15.527159 83.695068 16.837009 20.22641 38.78569 33.776886 62.624992 44.358643 8.174919 3.628662 16.508446 6.899963 24.830414 10.359802-8.210983 13.649842-18.46051 25.012818-31.828476 33.459076-8.816589 5.570557-9.895553 5.604035-18.031608-.564026-2.91784-2.212066-5.898507-4.344482-8.900467-6.441711-10.162568-7.099915-21.313584-10.529572-33.828747-9.627167-14.057057 1.013519-26.507397 10.212311-30.36065 22.889862-5.502679 18.104279 4.387076 38.096497 22.616467 47.14914 15.081791 7.489502 30.680481 6.77362 46.37423 3.832885 5.055763-.947387 7.802787.223328 10.766258 4.050598 21.7136 28.043549 43.597366 55.955323 65.435028 83.90271 7.247025 9.274598 14.516113 18.531922 21.840912 27.881226 12.701813-7.461731 24.971084-14.669373 37.057205-21.769409-34.103714-34.981293-67.989639-69.739197-101.113899-103.715851 13.080047-10.2966 26.31353-19.340668 37.91436-30.138794 22.493637-20.937225 35.764465-47.250214 41.296799-78.350433z" fill="#fff"/><path d="m802.278809 173.66153c22.823791.08612 45.647522.227203 68.471374.245269 32.995239.026108 65.990845-.092422 98.985108.073639 2.017883.010163 4.710937 1.466553 5.923767 3.110413 6.326171 8.574539 12.419616 17.332779 18.259033 26.246582 1.573364 2.401657 1.976196 5.570129 3.212097 9.272613-65.829651 0-130.235657 0-194.857483 0v116.6055c5.920288-4.148499 11.272644-8.295594 17.000122-11.835816 15.359924-9.49411 31.858582-14.777618 50.236511-13.518524 24.576233 1.683838 45.00293 11.873352 60.855774 30.366028 27.563111 32.153076 30.840576 68.857818 17.969605 107.809326-7.124451 21.5607-18.954773 40.61734-33.679077 58.344269-13.216187-9.499756-26.275696-18.886902-39.777222-28.591736 1.611328-2.188538 3.007446-4.165588 4.485474-6.079468 12.241027-15.851288 23.869506-32.145294 31.986084-50.542541 6.889831-15.616791 10.311828-31.984284 6.880127-49.113007-3.273255-16.337799-16.249207-26.598236-32.916749-26.111969-16.146301.470978-30.29425 6.893921-42.461853 16.811463-13.394409 10.917572-25.844665 23.005981-38.479736 34.826355-1.515564 1.417785-2.269592 4.346923-2.27539 6.57843-.12616 48.660125-.096192 97.320709-.096192 145.98117v6.927307c-3.576233-1.393798-6.661804-1.949157-8.956116-3.602539-9.998901-7.205566-19.698303-14.825805-29.667297-22.074218-2.588867-1.882325-3.454834-3.857849-3.449463-7.018006.09906-58.325744.072571-116.651642.072571-174.977539 0-1.970367-.000061-3.940735-.000061-6.3031-6.771179-.568451-13.183777-1.267578-19.615357-1.615845-17.789367-.963348-35.66632-2.548096-53.317749.789185-28.516967 5.39154-46.394409 22.995147-52.800415 51.303314-7.311279 32.308319 1.417115 61.307312 20.753601 87.496948 13.311341 18.0289 28.721131 34.142548 45.506836 48.960663 2.106995 1.860107 4.184143 3.754089 6.656067 5.974487-5.681152 6.36499-11.187927 12.534668-17.142456 19.205933-4.896606-4.089539-9.731872-8.053711-14.486877-12.111817-23.27533-19.864074-44.966126-41.254669-61.942627-66.894775-16.429382-24.813873-26.619446-51.741547-25.602661-82.064789.586303-17.485474 5.929504-33.30899 16.776733-47.16095.615784-.786346 1.202637-1.597778 1.756104-2.428772.164917-.247619.169677-.601898.391235-1.468261-1.808655-.079499-3.529175-.219666-5.249817-.220856-21.330627-.015045-42.661682-.082275-63.991272.068237-3.199402.022553-5.106567-.898987-6.893555-3.58609-6.731994-10.123291-13.851745-19.989227-20.550415-30.133728-1.591247-2.409698-2.111724-5.526489-3.348205-8.933838 2.772064-.131592 4.238586-.261993 5.705078-.262024 55.49292-.000793 110.994629-.569 166.474731.279358 25.408814.38852 50.774903 3.567292 76.160645 5.477234 1.322693.099549 2.647766.166962 4.370544.27414 0-29.048798 0-57.934098 0-87.222352-83.747436 0-167.633972 0-252.018615-.503112-.510865-13.083268-.523621-25.663391-.074952-38.304016 10.956055-.068772 21.450684-.081177 31.945313-.084656 76.127747-.025284 152.255554-.048752 228.858337-.014328 11.636292-.044083 22.797547-.146637 33.958741-.249191z" fill="#c46f34"/><path d="m507.054993 174.07019c.012756 12.58014.025512 25.160263.084045 38.185608-15.584381.278824-31.214538.11055-46.844757-.051437-1.805786-.018723-3.611908-.002548-6.001251-.002548v338.407684c-3.223175-1.053223-5.861511-1.291687-7.713043-2.623779-10.267212-7.386841-20.267334-15.144898-30.531342-22.536438-3.032043-2.183472-4.051086-4.551087-4.046967-8.278198.110016-99.276154.087494-198.552491.087494-297.828812 0-2.135254 0-4.270508 0-7.16983-25.00299 0-49.550018 0-74.58789-.528672-.501618-12.897949-.512421-25.267196-.523224-37.636459 24.651459-.032578 49.302887-.065552 73.954346-.097199 2.995849-.003845 5.991699-.000534 9.394043-.000534-4.506379-6.220428-9.031312-12.036438-13.095063-18.158554-11.109497-16.736496-17.29483-35.336784-17.986664-55.289825-.988311-28.506363 10.573822-51.132221 34.080048-67.672657 19.949341-14.037624 42.281677-20.341931 66.319672-21.962101 44.780731-3.018241 87.253265 6.097671 128.066009 24.020279 45.930298 20.169971 88.008789 46.496033 124.994019 80.443298 20.327148 18.657524 39.601135 38.462471 59.462158 58.060784-11.049011.413284-22.210266.515838-33.960327.262023-11.398926-10.228393-21.884033-20.487167-33.081604-29.898239-30.697205-25.799652-63.579041-48.343628-100.100342-65.259605-37.700745-17.462292-77.139832-26.910961-118.860901-25.384293-20.459991.748677-39.687927 5.734368-56.787323 17.668938-18.335785 12.797501-28.219848 29.911072-28.499298 52.537636-.204498 16.556511 3.986145 31.858101 11.379273 46.515663 1.570068 3.112823 3.325653 4.227417 6.823364 4.204132 19.324157-.128601 38.650146.019714 57.975525.073135z" fill="#cdb592"/><path d="m192.107605 316.153381c-5.486603 30.671997-18.757431 56.984986-41.251068 77.922211-11.60083 10.798126-24.834313 19.842194-37.91436 30.138794 33.12426 33.976654 67.010185 68.734558 101.113899 103.715851-12.086121 7.100036-24.355392 14.307678-37.057205 21.769409-7.324799-9.349304-14.593887-18.606628-21.840912-27.881226-21.837662-27.947387-43.721428-55.859161-65.435028-83.90271-2.963471-3.82727-5.710495-4.997985-10.766258-4.050598-15.693749 2.940735-31.292439 3.656617-46.37423-3.832885-18.229391-9.052643-28.119146-29.044861-22.616467-47.14914 3.853253-12.677551 16.303593-21.876343 30.36065-22.889862 12.515163-.902405 23.666179 2.527252 33.828747 9.627167 3.00196 2.097229 5.982627 4.229645 8.900467 6.441711 8.136055 6.168061 9.215019 6.134583 18.031608.564026 13.367966-8.446258 23.617493-19.809234 31.828476-33.459076-8.321968-3.459839-16.655495-6.73114-24.830414-10.359802-23.839302-10.581757-45.787983-24.132233-62.624992-44.358643-20.639568-24.794525-28.065268-52.793579-15.527159-83.695068 7.4224-18.293289 21.852724-29.670059 41.126639-33.793243 38.13655-8.158402 68.613388 5.880966 93.303329 34.278701 18.906815 21.746125 30.453522 46.902741 30.533279 76.193497.031113 11.428284-1.774337 22.861633-2.789001 34.720886m-38.339111-77.246978c-.488495-1.760758-.955796-3.52771-1.468766-5.281311-5.303894-18.132187-20.339401-29.836823-38.461402-29.739594-19.760911.106033-34.902817 8.509415-43.102623 26.670975-7.480496 16.568405-5.4739 32.943222 5.615364 47.497482 17.214584 22.593475 42.081878 33.633667 67.58068 44.202789 10.403565-27.046692 15.440415-54.147247 9.836747-83.350341z" fill="#020202"/><path d="m336.516846 173.927979c.472015 12.448593.482818 24.81784.522674 37.659713-7.903198.472611-15.835449.472611-24.081268.472611v339.067322c-3.632507-1.496094-6.839233-2.181336-9.279785-3.933716-9.731934-6.987854-19.153473-14.406922-28.851868-21.443177-2.820404-2.046203-3.924499-4.159973-3.920288-7.746704.117096-99.785827.093933-199.571808.093933-299.357773 0-1.826156 0-3.652328 0-6.153396-8.102051 0-16.144211-.873963-23.916565.20166-12.127014 1.678268-20.049286-2.394577-25.400802-13.404968-2.876618-5.918503-7.546906-10.942917-11.097596-16.566651-1.488601-2.357696-2.173263-5.222976-3.628753-8.874267 43.928253 0 86.513687 0 129.560318.079346z"/><path d="m507.516418 174.009689c-19.786804.00708-39.112793-.141235-58.43695-.012634-3.497711.023285-5.253296-1.091309-6.823364-4.204132-7.393128-14.657562-11.583771-29.959152-11.379273-46.515663.27945-22.626564 10.163513-39.740135 28.499298-52.537636 17.099396-11.93457 36.327332-16.920261 56.787323-17.668938 41.721069-1.526668 81.160156 7.922001 118.860901 25.384293 36.521301 16.915977 69.403137 39.459953 100.100342 65.259605 11.197571 9.411072 21.682678 19.669846 32.606567 29.839768-76.013977.321945-152.141784.345413-228.269531.370697-10.494629.003479-20.989258.015884-31.945313.08464z" fill="#fffffe"/><path d="m153.857025 239.316437c5.515137 28.79306.478287 55.893615-9.925278 82.940307-25.498802-10.569122-50.366096-21.609314-67.58068-44.202789-11.089264-14.55426-13.09586-30.929077-5.615364-47.497482 8.199806-18.16156 23.341712-26.564942 43.102623-26.670975 18.122001-.097229 33.157508 11.607407 38.461402 29.739594.51297 1.753601.980271 3.520553 1.557297 5.691345z" fill="#fefefe"/></svg>