<svg enable-background="new 0 0 2218 500" viewBox="0 0 2218 500" xmlns="http://www.w3.org/2000/svg"><path d="m1493 501c-497.621033 0-994.742065 0-1491.931547 0 0-166.605713 0-333.211456 0-499.908599h2217.897856v499.908599c-241.844727 0-483.655518 0-725.966309 0m527.262817-230.500153c-.076049 10.497284.148926 21.007569-.302246 31.488678-.595825 13.841034-4.005005 27.038147-11.984863 38.551972-8.477295 12.231445-19.18396 21.834411-35.193359 20.946411-17.981324-.997406-30.598023-10.765289-37.085205-27.367676-2.727906-6.981384-4.435791-14.831299-4.503785-22.305511-.431274-47.489197-.274047-94.98378-.310791-142.476593-.001342-1.766892-.000244-3.533768-.000244-5.16214-12.384521 0-24.12207 0-35.785156 0 0 50.659775-.311768 100.976257.269287 151.28244.113037 9.767426 2.588135 19.893555 5.900391 29.165985 10.07312 28.200073 30.678955 44.985809 60.182251 48.771179 26.828857 3.442292 50.454834-4.325683 67.970581-26.291198 2.746093-3.443818 5.021728-7.262757 7.75061-11.253144 13.344605 20.411011 30.649292 34.866333 55.163208 37.740479 24.861816 2.915008 44.862793-7.433472 62.025635-26.276886v117.459869h35.864502c0-106.957428 0-213.722992 0-320.684204-11.931641 0-23.666992 0-35.826416 0v5.657562c0 42.660614-.374268 85.325867.154541 127.97992.274658 22.153381-9.237793 39.103271-25.077393 53.132293-8.13501 7.204987-17.699219 11.944001-29.137695 10.606781-17.566895-2.053649-28.923828-12.429626-36.260742-27.781768-6.157959-12.885346-7.788086-26.728699-7.793213-40.828492-.014649-41.160827-.005127-82.321655-.005371-123.482482 0-1.75969-.000244-3.519364-.000244-5.168396-12.323609 0-24.039063 0-36.014283 0zm-1539.57431 100.691254c3.731384-4.951355 7.462799-9.90271 11.357178-15.070312 12.964355 20.357025 30.597259 34.228363 55.044708 37.32965 25.011047 3.172852 44.782715-7.499359 62.114929-26.165863v117.375275h35.603394c0-107.101654 0-213.860779 0-320.466431-12.035462 0-23.761353 0-35.701538 0v5.805085c0 44.499359.017029 88.998748-.038269 133.498016-.003662 2.969421-.239441 6.0112-.905335 8.895081-3.650268 15.80838-12.208862 28.66748-24.467834 39.045288-22.261048 18.845001-47.362122 8.800384-59.550904-8.521942-10.45935-14.864655-13.046081-31.773255-13.075531-49.332734-.069274-41.332641-.022094-82.665451-.022033-123.998199 0-1.789765 0-3.579529 0-5.519653-12.158722 0-23.889099 0-36.007202 0 0 2.024307.001037 3.8199-.000214 5.615493-.029755 43.165741.061066 86.332138-.164063 129.496842-.06665 12.779785-2.948822 25.097229-9.121276 36.424957-6.073975 11.147125-14.431763 20.180939-26.683533 24.305084-17.542816 5.905274-38.068939-3.904541-47.05249-21.797058-5.384186-10.723633-6.458588-22.242981-6.453522-33.991028.019348-44.832672.009186-89.665374.01001-134.498062.00003-1.7957 0-3.5914 0-5.498092-12.219696 0-23.951508 0-36.019409 0 0 1.436447-.000062 2.581283 0 3.726104.003356 45.499344-.052765 90.998841.072906 136.497864.019257 6.976013.477386 14.003662 1.411591 20.915649 5.94281 43.971222 39.273254 71.620209 81.491851 68.587708 18.574372-1.334167 34.858979-8.134766 48.156586-22.658722m901.196137-193.686005c0 40.330811-.243165 80.66391.135742 120.99115.127807 13.584809-3.807862 25.535767-11.084351 36.573853-6.211304 9.422363-13.960815 17.385528-24.165039 22.623718-19.530517 10.025635-41.450317-.452209-51.911499-17.653015-8.704956-14.313416-11.121704-30.02359-11.084717-46.431183.093384-41.330658.031494-82.661651.031739-123.992508 0-1.786346 0-3.572693 0-5.523239-12.226807 0-23.958619 0-36.009766 0v5.661545c0 40.66423.018921 81.328476-.010498 121.992691-.009644 13.241547-1.442627 26.267822-6.823853 38.553345-5.890991 13.450012-14.776245 24.354065-28.84497 29.495788-17.228394 6.296478-38.001953-3.467041-47.231934-21.334472-5.424927-10.501893-6.770019-21.829316-6.77478-33.415009-.018677-45.163971-.00708-90.327927-.006836-135.491898 0-1.785095-.000122-3.570175-.000122-5.456955-12.183472 0-23.911377 0-36.007935 0v5.158051c.000122 44.164017-.102905 88.328491.087891 132.491699.038086 8.795258.505127 17.704102 1.978882 26.355438 3.873535 22.74054 14.134033 41.779541 34.233154 54.426209 30.930664 19.462036 71.880981 14.277435 95.683105-12.248688 3.897095-4.343109 7.009034-9.390869 10.520508-14.162933 21.44397 36.270752 74.948731 57.580261 117.394287 11.618042v116.896423h35.5719c0-107.115783 0-213.862335 0-320.448868-12.068115 0-23.806153 0-35.680908 0zm-343.438599 121.99527c0-45.119583 0-90.239181 0-135.321258-12.258301 0-23.988464 0-36.022644 0v5.781753c.000122 32.832504.536316 65.677841-.249329 98.491532-.339905 14.196167-2.404236 28.549987-5.489135 42.431274-3.891602 17.51123-12.142701 33.178955-26.915772 44.299561-16.858215 12.690155-36.106323 15.300354-56.437134 12.027618-23.410278-3.768524-38.249328-17.725067-45.275696-39.857666-8.595092-27.074005-6.949768-54.215607 1.428894-81.066177 6.227417-19.956803 16.262635-38.15979 26.840638-56.044815 1.863525-3.150803 1.615234-5.182007-.439148-7.887497-3.720581-4.899842-7.269776-9.946396-10.60138-15.117951-1.619079-2.513214-3.390381-3.49498-6.434753-3.480484-26.332092.125321-52.664978.067856-78.997681.085571-1.25299.000855-2.505798.196503-3.621216.289917v32.130524h58.639649c-5.28833 11.130966-10.930359 21.685013-15.423767 32.707321-14.55835 35.711807-17.775086 72.225266-5.38086 109.228256 9.666443 28.859192 28.179017 49.445801 58.043946 58.363526 15.374389 4.59082 31.13739 5.381744 47.00476 3.375061 24.59375-3.110291 45.627015-12.85965 60.788208-33.273499.515381-.693878 1.120484-1.321075 2.539368-2.979187v121.03302h36.003052c0-61.595947 0-122.906158 0-185.2164m-913.021835 98.595124c40.654358 7.214233 77.037262 1.091979 104.730484-34.595368v121.146149h35.452179c0-107.088959 0-213.821778 0-320.499329-12.033326 0-23.766678 0-35.710907 0 0 2.12674-.000016 3.941727 0 5.756714.000183 31.659424.375137 63.325424-.179734 94.975098-.229217 13.075256-1.718704 26.242614-3.95079 39.140381-2.96463 17.130676-9.742737 32.926788-22.150635 45.517761-15.200836 15.425079-34.363556 20.09433-55.361359 18.65332-24.265045-1.665192-42.177848-13.017761-51.036537-36.031769-10.84288-28.168823-9.187782-56.780731-.547767-85.212784 5.932274-19.521575 15.543693-37.383728 25.965568-54.773605 2.7314-4.557602 2.733582-7.68129-.617843-11.664154-3.412613-4.055618-6.32602-8.567398-9.139428-13.078125-1.808258-2.899216-4.029358-3.693787-7.352478-3.675995-25.660064.137543-51.321182.075775-76.981977.075775-1.624691 0-3.249384 0-5.109705 0v32.274933h59.259132c-3.958419 7.781265-7.830726 14.922699-11.283806 22.261383-16.28012 34.599488-22.534294 70.564911-13.356002 108.22815 8.794784 36.089538 28.959991 61.949859 67.371605 71.501465m1580.92369-29.91919c-4.82434-.008453-9.685058.365204-14.466796-.090118-23.11377-2.201081-40.34961-13.155823-49.048829-35.162415-11.464233-29.001099-9.555908-58.351959-.420776-87.520065 6.243897-19.936859 16.484253-38.038117 26.950562-55.9758 1.379028-2.363418 1.51123-3.860336-.196045-6.105224-3.923218-5.158646-7.635987-10.495179-11.133057-15.952546-1.717163-2.679992-3.613892-3.642273-6.842529-3.623611-25.990967.150177-51.983277.080612-77.975098.09343-1.452393.000717-2.904785.136001-4.421265.211853v31.964675h58.621704c-5.690795 12.401673-11.872436 24.327225-16.736694 36.767884-13.662231 34.942291-15.995849 70.546081-3.644165 106.374389 9.795776 28.414338 28.244141 48.603547 57.690918 57.396943 15.540527 4.640747 31.472412 5.433197 47.485596 3.329711 23.796264-3.125915 44.385742-12.4216 59.382202-31.987792.933472-1.217957 1.85083-2.448243 3.571655-4.72641v121.567718h35.537598c0-107.116119 0-213.969421 0-320.701996-11.973999 0-23.591797 0-35.650269 0v5.56575c0 33.822754.125977 67.646164-.052246 101.467972-.091797 17.417999-2.813232 34.504303-9.057007 50.824127-10.323242 26.982575-28.964111 43.669129-59.595459 46.281525m181.766358-277.682892c10.204712 1.879662 20.482178 2.99997 30.743164.851364 26.796387-5.611084 46.85852-28.183178 50.847412-57.373314-7.694336-2.031337-15.4552-4.080232-22.726807-5.999967-2.972412 7.120016-5.197021 13.957006-8.564209 20.175291-5.614868 10.36898-14.512207 15.599628-26.642334 14.941109-12.367309-.671395-23.619873-5.285027-34.975463-9.512684-16.949952-6.310456-34.114136-11.696297-52.49524-9.529248-28.723877 3.386372-49.774536 17.593182-60.914673 44.907036-1.579834 3.873535-2.162719 8.153664-3.277221 12.520455 8.475708 2.302208 16.093261 4.371299 23.812378 6.467979 1.081176-3.118919 1.887939-5.820671 2.941284-8.422577 6.310669-15.589142 17.206177-25.6129 34.443359-27.134018 10.842163-.956779 20.993775 2.523049 31.085083 6.089783 11.577027 4.091782 23.269043 7.858253 35.723267 12.018791m-1524.706177-21.585228c9.729462-9.718361 19.458923-19.436718 28.566437-28.533848-6.596008-6.566921-12.766693-12.710367-18.505188-18.42354-23.776947 23.616499-47.949768 47.626219-71.717835 71.2339 6.179963 6.128251 12.383515 12.279862 18.676697 18.520348 13.979523-13.919342 28.229675-28.108147 42.979889-42.79686m737.707275-51.827852c-3.788085-.314064-7.605957-1.095374-11.358764-.856293-12.213013.778063-23.240113 10.478262-25.748657 22.206354-2.859253 13.36744 2.766723 26.349152 14.21643 32.803818 11.026489 6.216087 25.18628 4.598313 34.220337-3.909851 16.803345-15.825062 11.434815-41.263681-11.329346-50.244028z" fill="#fff"/><g fill="#020202"><path d="m2020.262817 269.999817c0-35.472931 0-70.445862 0-105.794891h36.014283c0 1.649032.000244 3.408706.000244 5.168396.000244 41.160827-.009278 82.321655.005371 123.482482.005127 14.099793 1.635254 27.943146 7.793213 40.828492 7.336914 15.352142 18.693847 25.728119 36.260742 27.781768 11.438476 1.33722 21.002685-3.401794 29.137695-10.606781 15.8396-14.029022 25.352051-30.978912 25.077393-53.132293-.528809-42.654053-.154541-85.319306-.154541-127.97992 0-1.800171 0-3.600341 0-5.657562h35.826416v320.684204c-11.925049 0-23.661865 0-35.864502 0 0-38.941192 0-77.65628 0-117.459869-17.162842 18.843414-37.163819 29.191894-62.025635 26.276886-24.513916-2.874146-41.818603-17.329468-55.163208-37.740479-2.728882 3.990387-5.004517 7.809326-7.75061 11.253144-17.515747 21.965515-41.141724 29.73349-67.970581 26.291198-29.503296-3.78537-50.109131-20.571106-60.182251-48.771179-3.312256-9.27243-5.787354-19.398559-5.900391-29.165985-.581055-50.306183-.269287-100.622665-.269287-151.28244h35.785156c0 1.628372-.001098 3.395248.000244 5.16214.036744 47.492813-.120483 94.987396.310791 142.476593.067994 7.474212 1.775879 15.324127 4.503785 22.305511 6.487182 16.602387 19.103881 26.37027 37.085205 27.367676 16.009399.888 26.716064-8.714966 35.193359-20.946411 7.979858-11.513825 11.389038-24.710938 11.984863-38.551972.451172-10.481109.226197-20.991394.302246-31.988708z"/><path d="m480.444031 371.447571c-13.053131 14.267486-29.337738 21.068085-47.91211 22.402252-42.218597 3.032501-75.549041-24.616486-81.491851-68.587708-.934205-6.911987-1.392334-13.939636-1.411591-20.915649-.125671-45.499023-.06955-90.99852-.072906-136.497864-.000062-1.144821 0-2.289657 0-3.726104h36.019409c0 1.906692.00003 3.702392 0 5.498092-.000824 44.832688.009338 89.66539-.01001 134.498062-.005066 11.748047 1.069336 23.267395 6.453522 33.991028 8.983551 17.892517 29.509674 27.702332 47.05249 21.797058 12.25177-4.124145 20.609558-13.157959 26.683533-24.305084 6.172454-11.327728 9.054626-23.645172 9.121276-36.424957.225129-43.164704.134308-86.331101.164063-129.496842.001251-1.795593.000214-3.591186.000214-5.615493h36.007202v5.519653c-.000061 41.332748-.047241 82.665558.022033 123.998199.02945 17.559479 2.616181 34.468079 13.075531 49.332734 12.188782 17.322326 37.289856 27.366943 59.550904 8.521942 12.258972-10.377808 20.817566-23.236908 24.467834-39.045288.665894-2.883881.901673-5.92566.905335-8.895081.055298-44.499268.038269-88.998657.038269-133.498016 0-1.814316 0-3.628617 0-5.805085h35.701538v320.466431c-11.513977 0-23.264099 0-35.603394 0 0-38.647369 0-77.481598 0-117.375275-17.332214 18.666504-37.103882 29.338715-62.114929 26.165863-24.447449-3.101287-42.080353-16.972625-55.044708-37.32965-3.894379 5.167602-7.625794 10.118957-11.601654 15.326782z"/><path d="m1381.884644 177.005859c0-4.488708 0-8.47818 0-12.821579h35.680908v320.448868c-11.536377 0-23.268555 0-35.5719 0 0-38.621063 0-77.453186 0-116.896423-42.445556 45.962219-95.950317 24.65271-117.394287-11.618042-3.511474 4.772064-6.623413 9.819824-10.520508 14.162933-23.802124 26.526123-64.752441 31.710724-95.683105 12.248688-20.099121-12.646668-30.359619-31.685669-34.233154-54.426209-1.473755-8.651336-1.940796-17.56018-1.978882-26.355438-.190796-44.163208-.087769-88.327682-.087891-132.491699 0-1.631424 0-3.262833 0-5.158051h36.007935c0 1.88678.000122 3.67186.000122 5.456955-.000244 45.163971-.011841 90.327927.006836 135.491898.004761 11.585693 1.349853 22.913116 6.77478 33.415009 9.229981 17.867431 30.00354 27.63095 47.231934 21.334472 14.068725-5.141723 22.953979-16.045776 28.84497-29.495788 5.381226-12.285523 6.814209-25.311798 6.823853-38.553345.029419-40.664215.010498-81.328461.010498-121.992691 0-1.803345 0-3.606674 0-5.661545h36.009766v5.523239c-.000245 41.330857.061645 82.66185-.031739 123.992508-.036987 16.407593 2.379761 32.117767 11.084717 46.431183 10.461182 17.200806 32.380982 27.67865 51.911499 17.653015 10.204224-5.23819 17.953735-13.201355 24.165039-22.623718 7.276489-11.038086 11.212158-22.989044 11.084351-36.573853-.378907-40.32724-.135742-80.660339-.135742-121.490387z"/><path d="m1038.446045 300.000366v184.7164c-12.042603 0-23.775696 0-36.003052 0 0-39.923767 0-79.815307 0-121.03302-1.418884 1.658112-2.023987 2.285309-2.539368 2.979187-15.161193 20.413849-36.194458 30.163208-60.788208 33.273499-15.86737 2.006683-31.630371 1.215759-47.00476-3.375061-29.864929-8.917725-48.377503-29.504334-58.043946-58.363526-12.394226-37.00299-9.17749-73.516449 5.38086-109.228256 4.493408-11.022308 10.135437-21.576355 15.423767-32.707321-19.352356 0-38.858276 0-58.639649 0 0-10.917725 0-21.333191 0-32.130524 1.115418-.093414 2.368226-.289062 3.621216-.289917 26.332703-.017715 52.665589.03975 78.997681-.085571 3.044372-.014496 4.815674.96727 6.434753 3.480484 3.331604 5.171555 6.880799 10.218109 10.60138 15.117951 2.054382 2.70549 2.302673 4.736694.439148 7.887497-10.578003 17.885025-20.613221 36.088012-26.840638 56.044815-8.378662 26.85057-10.023986 53.992172-1.428894 81.066177 7.026368 22.132599 21.865418 36.089142 45.275696 39.857666 20.330811 3.272736 39.578919.662537 56.437134-12.027618 14.773071-11.120606 23.02417-26.788331 26.915772-44.299561 3.084899-13.881287 5.14923-28.235107 5.489135-42.431274.785645-32.813691.249451-65.659028.249329-98.491532 0-1.811462 0-3.622925 0-5.781753h36.022644z"/><path d="m125.010483 398.036438c-37.997887-9.492554-58.163094-35.352875-66.957878-71.442413-9.178292-37.663239-2.924118-73.628662 13.356002-108.22815 3.45308-7.338684 7.325387-14.480118 11.283806-22.261383-19.814491 0-39.460121 0-59.259132 0 0-11.006149 0-21.414459 0-32.274933h5.109705c25.660795 0 51.321913.061768 76.981977-.075775 3.32312-.017792 5.54422.776779 7.352478 3.675995 2.813408 4.510727 5.726815 9.022507 9.139428 13.078125 3.351425 3.982864 3.349243 7.106552.617843 11.664154-10.421875 17.389877-20.033294 35.25203-25.965568 54.773605-8.640015 28.432053-10.295113 57.043961.547767 85.212784 8.858689 23.014008 26.771492 34.366577 51.036537 36.031769 20.997803 1.44101 40.160523-3.228241 55.361359-18.65332 12.407898-12.590973 19.186005-28.387085 22.150635-45.517761 2.232086-12.897767 3.721573-26.065125 3.95079-39.140381.554871-31.649674.179917-63.315674.179734-94.975098-.000016-1.814987 0-3.629974 0-5.756714h35.710907v320.499329c-11.584427 0-23.316285 0-35.452179 0 0-39.865998 0-79.916321 0-121.146149-27.693222 35.687347-64.076126 41.809601-105.144211 34.536316z"/></g><path d="m1706.824219 368.145752c30.155029-2.581848 48.795898-19.268402 59.11914-46.250977 6.243775-16.319824 8.96521-33.406128 9.057007-50.824127.178223-33.821808.052246-67.645218.052246-101.467972 0-1.788681 0-3.577346 0-5.56575h35.650269v320.701996c-11.647461 0-23.385742 0-35.537598 0 0-40.086304 0-80.132965 0-121.567718-1.720825 2.278167-2.638183 3.508453-3.571655 4.72641-14.99646 19.566192-35.585938 28.861877-59.382202 31.987792-16.013184 2.103486-31.945069 1.311036-47.485596-3.329711-29.446777-8.793396-47.895142-28.982605-57.690918-57.396943-12.351684-35.828308-10.018066-71.432098 3.644165-106.374389 4.864258-12.440659 11.045899-24.366211 16.736694-36.767884-19.307006 0-38.863769 0-58.621704 0 0-10.812683 0-21.227096 0-31.964675 1.51648-.075852 2.968872-.211136 4.421265-.211853 25.991821-.012818 51.984131.056747 77.975098-.09343 3.228637-.018662 5.125366.943619 6.842529 3.623611 3.49707 5.457367 7.209839 10.7939 11.133057 15.952546 1.707275 2.244888 1.575073 3.741806.196045 6.105224-10.466309 17.937683-20.706665 36.038941-26.950562 55.9758-9.135132 29.168106-11.043457 58.518966.420776 87.520065 8.699219 22.006592 25.935059 32.961334 49.048829 35.162415 4.781738.455322 9.642456.081665 14.943115.05957z" fill="#010101"/><path d="m1887.708252 90.36702c-12.048218-4.03415-23.740234-7.800621-35.317261-11.892403-10.091308-3.566734-20.24292-7.046562-31.085083-6.089783-17.237182 1.521118-28.13269 11.544876-34.443359 27.134018-1.053345 2.601906-1.860108 5.303658-2.941284 8.422577-7.719117-2.09668-15.33667-4.165771-23.812378-6.467979 1.114502-4.366791 1.697387-8.64692 3.277221-12.520455 11.140137-27.313854 32.190796-41.520664 60.914673-44.907036 18.381104-2.167049 35.545288 3.218792 52.49524 9.529248 11.35559 4.227657 22.608154 8.841289 34.975463 9.512684 12.130127.658519 21.027466-4.572129 26.642334-14.941109 3.367188-6.218285 5.591797-13.055275 8.564209-20.175291 7.271607 1.919735 15.032471 3.96863 22.726807 5.999967-3.988892 29.190136-24.051025 51.76223-50.847412 57.373314-10.260986 2.148606-20.538452 1.028298-31.14917-.977752z" fill="#c67035"/><path d="m363.15802 69.158142c-14.500153 14.438751-28.750305 28.627556-42.729828 42.546898-6.293182-6.240486-12.496734-12.392097-18.676697-18.520348 23.768067-23.607681 47.940888-47.617401 71.717835-71.2339 5.738495 5.713173 11.90918 11.856619 18.505188 18.42354-9.107514 9.09713-18.836975 18.815487-28.816498 28.78381z" fill="#c67035"/><path d="m1101.502686 17.196198c22.376831 8.864477 27.745361 34.303096 10.942016 50.128158-9.034057 8.508164-23.193848 10.125938-34.220337 3.909851-11.449707-6.454666-17.075683-19.436378-14.21643-32.803818 2.508544-11.728092 13.535644-21.428291 25.748657-22.206354 3.752807-.239081 7.570679.542229 11.746094.972163z" fill="#c57035"/></svg>