<svg version="1.1" id="Layer_1" xmlns="http://www.w3.org/2000/svg" xmlns:xlink="http://www.w3.org/1999/xlink" x="0px" y="0px"
	 width="100%" viewBox="0 0 1748 690" enable-background="new 0 0 1748 690" xml:space="preserve">
<path fill="#FFFFFF" opacity="1.000000" stroke="none" 
	d="
M1329.000000,691.000000 
	C886.000000,691.000000 443.500000,691.000000 1.000000,691.000000 
	C1.000000,461.000000 1.000000,231.000000 1.000000,1.000000 
	C583.666687,1.000000 1166.333374,1.000000 1749.000000,1.000000 
	C1749.000000,231.000000 1749.000000,461.000000 1749.000000,691.000000 
	C1609.166626,691.000000 1469.333374,691.000000 1329.000000,691.000000 
M145.500397,273.174255 
	C152.327698,303.075531 159.154999,332.976837 166.012329,363.009644 
	C180.111786,359.788239 193.655716,356.693756 207.555969,353.517853 
	C182.313919,244.071457 157.175293,135.073563 132.018768,25.998039 
	C117.980797,29.068123 104.582169,31.998384 90.936569,34.982658 
	C109.134239,114.374466 127.239700,193.363998 145.500397,273.174255 
M705.066284,212.428207 
	C716.540466,262.536743 728.014709,312.645294 739.536560,362.961945 
	C753.510132,359.750488 767.176880,356.609528 781.032898,353.425049 
	C755.802307,243.995911 730.680725,135.039764 705.524597,25.933912 
	C691.598450,29.005024 678.338989,31.929106 664.517517,34.977127 
	C678.046387,94.088036 691.494080,152.844254 705.066284,212.428207 
M1565.313110,246.207260 
	C1574.210327,285.102936 1583.107544,323.998596 1592.040771,363.052002 
	C1606.013184,359.840820 1619.564453,356.726440 1633.549316,353.512390 
	C1608.322632,244.094543 1583.171631,135.004639 1558.041016,26.003857 
	C1543.892456,29.129406 1530.481812,32.091923 1517.018921,35.065994 
	C1520.919312,52.068848 1524.736938,68.659325 1528.530029,85.255409 
	C1540.729736,138.633591 1552.920410,192.013855 1565.313110,246.207260 
M1682.244873,353.290100 
	C1683.019043,356.471344 1683.793091,359.652588 1684.617310,363.039581 
	C1698.657959,359.802551 1712.296997,356.658112 1726.048706,353.487701 
	C1700.792847,243.943466 1675.694824,135.083878 1650.549805,26.020603 
	C1636.770874,29.056171 1623.379028,32.006451 1609.570435,35.048553 
	C1633.808228,141.128967 1657.952393,246.799774 1682.244873,353.290100 
M1233.324585,229.090820 
	C1233.179810,228.271851 1233.071777,227.444412 1232.885010,226.635147 
	C1219.488525,168.617554 1206.089722,110.600471 1192.679199,52.586128 
	C1190.636230,43.747925 1188.535767,34.923008 1186.448853,26.036217 
	C1172.607666,29.087450 1159.350464,32.009933 1145.553955,35.051300 
	C1170.580933,144.506134 1195.541138,253.669220 1220.552124,363.054657 
	C1234.656860,359.802917 1248.296021,356.658508 1262.002563,353.498566 
	C1260.409424,346.538239 1258.975586,340.260162 1257.535034,333.983612 
	C1249.570312,299.279602 1241.604126,264.575928 1233.324585,229.090820 
M679.193787,355.615448 
	C682.097473,354.936707 685.001160,354.257935 688.527466,353.433655 
	C663.340881,244.179489 638.193237,135.094162 613.024536,25.917669 
	C598.943848,29.038431 585.435913,32.032249 572.037598,35.001774 
	C597.133911,144.749100 622.072449,253.806427 647.027710,362.936981 
	C657.724060,360.507202 668.050659,358.161377 679.193787,355.615448 
M978.644287,363.002350 
	C990.750305,363.002350 1002.856323,363.002350 1014.910889,363.002350 
	C1014.910889,250.398911 1014.910889,138.353607 1014.910889,26.298315 
	C1000.919189,26.298315 987.189270,26.298315 973.456909,26.298315 
	C973.456909,138.637924 973.456909,250.676559 973.456909,363.002350 
	C975.058716,363.002350 976.369080,363.002350 978.644287,363.002350 
M1080.556763,363.002350 
	C1092.174316,363.002350 1103.791992,363.002350 1115.613037,363.002350 
	C1115.613037,250.511200 1115.613037,138.473618 1115.613037,26.222092 
	C1101.653198,26.222092 1087.916504,26.222092 1074.019165,26.222092 
	C1074.019165,138.489929 1074.019165,250.533234 1074.019165,363.002350 
	C1075.992920,363.002350 1077.783325,363.002350 1080.556763,363.002350 
M1495.999634,328.500000 
	C1495.999634,227.743408 1495.999634,126.986809 1495.999634,26.285770 
	C1481.696167,26.285770 1467.957642,26.285770 1454.281982,26.285770 
	C1454.281982,138.637222 1454.281982,250.703262 1454.281982,362.714233 
	C1468.303955,362.714233 1482.042358,362.714233 1495.999634,362.714233 
	C1495.999634,351.453674 1495.999634,340.476837 1495.999634,328.500000 
M500.164246,282.499939 
	C500.164246,309.255219 500.164246,336.010468 500.164246,362.694550 
	C514.535889,362.694550 528.282959,362.694550 541.881714,362.694550 
	C541.881714,250.344513 541.881714,138.302475 541.881714,26.325611 
	C527.863159,26.325611 514.135803,26.325611 500.164246,26.325611 
	C500.164246,111.602219 500.164246,196.551041 500.164246,282.499939 
M399.829315,232.499924 
	C399.829315,275.910309 399.829315,319.320679 399.829315,362.680389 
	C414.124664,362.680389 427.852417,362.680389 441.530151,362.680389 
	C441.530151,250.322403 441.530151,138.286667 441.530151,26.300140 
	C427.476044,26.300140 413.729645,26.300140 399.829315,26.300140 
	C399.829315,94.901680 399.829315,163.200790 399.829315,232.499924 
M28.164280,130.499924 
	C28.164280,207.908401 28.164280,285.316864 28.164280,362.710266 
	C42.500374,362.710266 56.245327,362.710266 69.901031,362.710266 
	C69.901031,250.375992 69.901031,138.333954 69.901031,26.307159 
	C55.900352,26.307159 42.171707,26.307159 28.164282,26.307159 
	C28.164282,60.910629 28.164282,95.205269 28.164280,130.499924 
M1629.501709,649.007446 
	C1635.470703,649.007446 1641.439819,649.007446 1647.408813,649.007446 
	C1647.730347,648.465759 1648.051880,647.924133 1648.373413,647.382446 
	C1646.974854,646.235413 1645.721802,644.395264 1644.151611,644.065613 
	C1638.413818,642.860962 1636.606567,639.897705 1636.818237,633.922974 
	C1637.331055,619.442200 1637.084473,604.929810 1636.941895,590.432129 
	C1636.824707,578.516785 1627.307373,570.963135 1615.723633,574.045471 
	C1610.881958,575.333740 1606.107666,577.801147 1602.012573,580.726257 
	C1597.254272,584.125122 1593.275146,588.614563 1587.961304,593.557739 
	C1587.961304,588.270020 1588.058350,583.858337 1587.935913,579.452759 
	C1587.792847,574.298523 1585.599487,572.932068 1580.888916,574.672058 
	C1576.846191,576.165405 1572.691040,577.360779 1568.680054,578.929504 
	C1567.378662,579.438416 1566.375610,580.710083 1565.235962,581.632812 
	C1566.487183,582.419189 1567.654297,583.665344 1569.004272,583.912659 
	C1574.893555,584.991516 1576.037109,586.078857 1576.064331,592.015320 
	C1576.120850,604.347534 1575.949951,616.682617 1576.158691,629.011719 
	C1576.281250,636.245728 1577.539429,643.772400 1566.962891,644.675110 
	C1566.318237,644.730225 1565.336792,646.386841 1565.390381,647.243225 
	C1565.429932,647.873901 1566.897705,648.909790 1567.739258,648.920044 
	C1577.570557,649.038940 1587.404175,649.037842 1597.235596,648.928833 
	C1598.111816,648.919189 1598.977295,647.932434 1599.847778,647.399475 
	C1599.168823,646.416809 1598.702515,645.016296 1597.765991,644.539185 
	C1595.870239,643.573669 1593.549072,643.399658 1591.733765,642.335510 
	C1590.520752,641.624268 1589.123413,639.955750 1589.098389,638.690063 
	C1588.890259,628.195068 1588.974365,617.693970 1589.005493,607.194824 
	C1589.007324,606.557312 1589.157715,605.823181 1589.494873,605.298340 
	C1594.481689,597.533264 1599.964966,590.240845 1608.607910,586.123901 
	C1618.136597,581.584961 1623.897461,585.086670 1624.039673,595.681091 
	C1624.191772,607.011780 1623.910767,618.350708 1624.202026,629.676147 
	C1624.383911,636.744263 1625.031738,643.589661 1615.236084,644.568848 
	C1614.495361,644.642883 1613.929932,646.470947 1613.283081,647.483704 
	C1614.190308,647.989929 1615.082031,648.897705 1616.007446,648.933350 
	C1620.167725,649.093384 1624.337524,649.005737 1629.501709,649.007446 
M160.081070,643.510925 
	C156.304230,642.674255 154.640442,640.610107 154.774841,636.467773 
	C155.066315,627.484009 154.825363,618.483887 154.901123,609.491272 
	C154.914719,607.878052 154.960251,606.001404 155.744934,604.701477 
	C160.533539,596.768066 166.247543,589.630676 175.097687,585.933960 
	C177.442719,584.954468 180.269485,584.262756 182.722977,584.587646 
	C187.919525,585.275696 189.910065,588.610840 189.969070,595.895508 
	C190.071609,608.551941 189.632034,621.226868 190.198318,633.859192 
	C190.466721,639.846436 188.551529,642.760864 182.894836,644.041382 
	C181.301392,644.402100 180.036255,646.213135 178.620529,647.358948 
	C178.934967,647.902527 179.249405,648.446167 179.563843,648.989746 
	C190.189468,648.989746 200.815338,649.019043 211.440216,648.928528 
	C212.207474,648.921997 213.620102,648.007935 213.597702,647.574463 
	C213.547562,646.604004 212.984390,645.440552 212.246994,644.789978 
	C211.576279,644.198242 210.409439,644.135864 209.443878,643.916931 
	C204.854095,642.876160 202.574524,640.705444 202.736664,635.317322 
	C203.172256,620.841309 202.981262,606.342651 202.851166,591.854675 
	C202.754166,581.052246 197.499619,574.662048 187.206543,573.397949 
	C180.248764,572.543396 174.117416,575.680603 168.837082,579.837280 
	C163.717758,583.867188 159.149368,588.597046 153.806870,593.508728 
	C153.806870,588.337769 154.053040,583.547791 153.737167,578.795166 
	C153.425552,574.106750 151.066589,572.967163 146.827759,574.596558 
	C142.808990,576.141296 138.622238,577.249634 134.605957,578.800049 
	C133.284393,579.310242 132.264481,580.601746 131.106628,581.535950 
	C132.321060,582.357910 133.437683,583.641479 134.766571,583.923035 
	C140.976791,585.238525 141.971146,586.223938 141.988388,592.509277 
	C142.026306,606.332153 141.640594,620.169739 142.184860,633.971436 
	C142.422394,639.994324 140.521729,642.981506 134.783401,643.975525 
	C132.362213,644.394897 130.115234,645.246887 131.740601,648.987549 
	C142.236969,648.987549 152.866547,649.017639 163.495026,648.922546 
	C164.236084,648.915955 165.431793,648.089661 165.582993,647.448120 
	C165.754501,646.720337 165.218201,645.401917 164.576736,645.001282 
	C163.497726,644.327393 162.092651,644.175598 160.081070,643.510925 
M73.422386,585.921509 
	C71.111023,588.386597 68.799667,590.851624 66.263252,593.556702 
	C65.837830,587.924500 65.554558,582.793823 65.021812,577.689148 
	C64.745255,575.039124 63.911671,572.650574 60.273609,573.914246 
	C55.264881,575.653992 50.195610,577.226501 45.233284,579.086731 
	C44.305073,579.434631 43.135708,580.853821 43.209339,581.677429 
	C43.282932,582.500549 44.673897,583.656494 45.662769,583.875854 
	C53.524071,585.619812 53.934330,585.992920 53.957687,594.090393 
	C53.995640,607.248535 53.970005,620.406738 53.970634,633.564941 
	C53.971016,641.468323 53.990932,641.531250 46.577194,643.935242 
	C44.131199,644.728333 42.119545,645.465271 43.604103,648.777466 
	C54.594128,648.777466 65.533722,648.777466 76.445724,648.777466 
	C78.027115,645.275330 75.738976,644.703857 73.381027,643.944458 
	C66.113792,641.604065 66.127159,641.559509 66.125999,633.802917 
	C66.124832,625.974609 66.069298,618.145630 66.169022,610.318604 
	C66.191635,608.543091 66.167717,606.279297 67.171211,605.086731 
	C72.058266,599.278748 76.908905,593.338989 82.523003,588.278442 
	C86.479630,584.711914 91.883636,582.495911 97.274559,585.420898 
	C102.297394,588.146118 101.825981,593.607178 101.911697,598.325623 
	C102.123444,609.981018 101.991707,621.642639 101.995262,633.301758 
	C101.997711,641.319702 101.957405,641.219421 94.377525,644.110840 
	C92.884529,644.680359 91.812477,646.353333 90.546295,647.517395 
	C90.843987,647.915588 91.141685,648.313721 91.439384,648.711853 
	C102.519814,648.711853 113.600243,648.711853 124.680672,648.711853 
	C124.980118,648.287903 125.279572,647.863953 125.579025,647.440063 
	C124.311859,646.294128 123.231453,644.602478 121.746086,644.094238 
	C114.191498,641.509155 114.157883,641.616455 114.152229,633.661194 
	C114.141808,619.004150 114.251801,604.345581 114.074341,589.690552 
	C113.937920,578.425598 104.902359,571.543823 93.866730,573.786621 
	C85.858078,575.414246 79.598885,579.870789 73.422386,585.921509 
M1197.776245,589.188721 
	C1198.197876,588.921875 1198.619019,588.654114 1199.041382,588.388306 
	C1203.767456,585.413208 1208.760620,582.359924 1214.323608,585.464661 
	C1219.463501,588.333374 1218.849487,593.998474 1218.929199,598.890137 
	C1219.116333,610.379578 1218.994019,621.874023 1218.995605,633.366455 
	C1218.996582,641.290710 1218.956909,641.190125 1211.315796,644.126648 
	C1209.845947,644.691467 1208.812012,646.390381 1207.577026,647.566101 
	C1207.883545,647.938171 1208.190063,648.310181 1208.496460,648.682251 
	C1219.566406,648.682251 1230.636230,648.682251 1241.706055,648.682251 
	C1241.998901,648.242859 1242.291748,647.803467 1242.584595,647.364075 
	C1241.294556,646.240479 1240.183228,644.590881 1238.684448,644.081970 
	C1231.190063,641.537170 1231.162354,641.642334 1231.150879,633.598022 
	C1231.129517,618.608398 1231.192261,603.617676 1231.029785,588.629517 
	C1230.950195,581.283508 1226.640503,576.114685 1219.610596,574.089417 
	C1211.422974,571.730774 1204.418945,574.859375 1198.194580,579.454407 
	C1192.820801,583.421387 1188.191406,588.396423 1183.218994,592.938599 
	C1182.844849,588.012695 1182.528442,582.918274 1182.047363,577.839478 
	C1181.725586,574.441956 1180.376953,572.612549 1176.466431,574.174622 
	C1172.009277,575.954712 1167.355835,577.239380 1162.871826,578.958435 
	C1161.756714,579.385986 1160.964844,580.656982 1160.024292,581.540283 
	C1161.013672,582.349731 1161.901978,583.664795 1163.009033,583.886475 
	C1170.080444,585.302307 1170.912842,586.102356 1170.946411,593.437439 
	C1171.007568,606.761719 1170.968750,620.086426 1170.970459,633.410950 
	C1170.971436,641.319275 1170.931641,641.217407 1163.285645,644.135864 
	C1161.827026,644.692627 1160.810303,646.406860 1159.589722,647.587158 
	C1159.897339,648.054871 1160.204834,648.522583 1160.512451,648.990295 
	C1170.809814,648.990295 1181.107544,649.029053 1191.403809,648.920288 
	C1192.270508,648.911194 1193.747681,647.994141 1193.832520,647.352356 
	C1193.942383,646.522034 1193.135376,645.277771 1192.359375,644.700378 
	C1191.479248,644.045654 1190.216187,643.843689 1189.086304,643.597656 
	C1184.673706,642.637024 1182.770752,640.178955 1183.035034,635.451721 
	C1183.397095,628.976257 1183.698853,622.401306 1182.982544,615.985596 
	C1182.055786,607.684692 1185.486816,601.516113 1190.750000,595.873413 
	C1192.790649,593.685669 1195.035522,591.688293 1197.776245,589.188721 
M666.944885,544.508423 
	C666.942322,540.509583 667.074829,536.504700 666.898926,532.513550 
	C666.725342,528.577026 664.511414,527.088867 660.924866,528.211975 
	C655.864380,529.796753 650.780579,531.316589 645.775757,533.061951 
	C644.755066,533.417847 644.039673,534.649048 643.183533,535.476807 
	C644.068726,536.282288 644.832703,537.551147 645.858459,537.819702 
	C653.837830,539.908447 654.043396,540.014709 654.051880,548.083069 
	C654.080811,575.575378 653.932434,603.068787 654.160950,630.559204 
	C654.219727,637.624939 654.730530,644.232666 644.982910,644.525269 
	C644.676819,644.534424 644.235962,644.708008 644.101868,644.943787 
	C643.651550,645.735291 642.901611,646.675720 643.052185,647.394531 
	C643.186829,648.037109 644.357544,648.908630 645.078247,648.915344 
	C655.574219,649.014099 666.071716,649.015564 676.567627,648.915649 
	C677.277832,648.908875 678.630798,647.777283 678.554382,647.394287 
	C678.368835,646.464172 677.689148,645.395081 676.888245,644.887451 
	C675.956177,644.296753 674.696045,644.166931 673.555237,643.972168 
	C668.745300,643.150879 666.758972,640.817993 666.809143,635.479309 
	C667.090881,605.490295 666.944824,575.497375 666.944885,544.508423 
M710.084045,532.927490 
	C709.980469,529.746094 709.813660,526.545776 705.163269,527.976562 
	C700.100525,529.534241 695.050110,531.144287 690.059631,532.915466 
	C688.911621,533.322876 688.029724,534.480347 687.025330,535.292603 
	C688.010498,536.169128 688.866577,537.546387 690.002258,537.839417 
	C696.483398,539.511536 697.849609,540.714294 697.871765,547.259216 
	C697.973938,577.388184 697.986633,607.518066 697.781128,637.645874 
	C697.769043,639.410095 695.886230,641.598022 694.280273,642.786621 
	C692.805298,643.878418 690.369629,643.581970 688.657349,644.473511 
	C687.429321,645.112854 686.695801,646.701965 685.033997,648.731689 
	C698.378479,648.731689 709.973938,648.731689 721.569397,648.731689 
	C721.863464,648.239685 722.157593,647.747681 722.451660,647.255676 
	C720.981323,646.194519 719.651489,644.584717 718.016602,644.165771 
	C710.329895,642.196228 710.084351,642.046753 710.084290,634.211548 
	C710.083923,600.752991 710.084229,567.294495 710.084045,532.927490 
M1118.016357,535.411865 
	C1118.553589,536.161499 1118.932251,537.318298 1119.652344,537.598999 
	C1128.908081,541.206970 1128.930542,541.175293 1128.932495,550.876404 
	C1128.938232,578.353455 1128.934814,605.830566 1128.934937,633.307617 
	C1128.934937,641.970947 1128.905518,641.867249 1120.439087,644.257385 
	C1118.972412,644.671448 1117.871582,646.381470 1116.601685,647.492920 
	C1116.895874,647.987305 1117.190063,648.481750 1117.484253,648.976135 
	C1128.609131,648.976135 1139.734375,649.004883 1150.858398,648.906921 
	C1151.546631,648.900818 1152.685303,647.972229 1152.789185,647.337646 
	C1152.909058,646.605469 1152.318237,645.408447 1151.664795,644.981750 
	C1150.743042,644.379883 1149.490845,644.251709 1148.361816,644.004639 
	C1141.839966,642.577698 1141.085327,641.663574 1141.084961,635.022949 
	C1141.083252,601.717407 1141.084229,568.411865 1141.083740,535.106323 
	C1141.083618,533.940674 1141.185303,532.762512 1141.053101,531.611633 
	C1140.645386,528.064331 1139.187378,526.618713 1135.370239,528.203064 
	C1131.409668,529.846863 1127.179932,530.830566 1123.116333,532.242432 
	C1121.363525,532.851379 1119.732666,533.811218 1118.016357,535.411865 
M1678.084229,555.500000 
	C1678.083740,547.845093 1678.097900,540.190063 1678.075073,532.535217 
	C1678.066528,529.660278 1677.593628,526.761780 1673.735474,527.788391 
	C1668.145996,529.275818 1662.663818,531.184326 1657.187866,533.064392 
	C1656.328125,533.359497 1655.184448,534.446472 1655.176025,535.178772 
	C1655.166504,536.029602 1656.077637,537.333435 1656.908203,537.683228 
	C1665.906494,541.473206 1665.931519,541.432495 1665.933105,551.131775 
	C1665.937500,578.423340 1665.934814,605.714905 1665.934937,633.006470 
	C1665.934937,641.821594 1665.904541,641.720215 1657.259155,644.299255 
	C1655.859497,644.716858 1654.863525,646.488281 1653.680908,647.633911 
	C1654.003784,648.013306 1654.326660,648.392761 1654.649658,648.772217 
	C1666.241699,648.772217 1677.833862,648.772217 1689.411133,648.772217 
	C1689.653809,644.891724 1689.653809,644.891663 1685.708618,644.032593 
	C1678.692139,642.504700 1678.085083,641.779968 1678.084717,634.880066 
	C1678.083252,608.753357 1678.084229,582.626709 1678.084229,555.500000 
z"/>
<path fill="#000000" opacity="1.000000" stroke="none" 
	d="
M145.422791,272.763885 
	C127.239700,193.363998 109.134239,114.374466 90.936569,34.982658 
	C104.582169,31.998384 117.980797,29.068123 132.018768,25.998039 
	C157.175293,135.073563 182.313919,244.071457 207.555969,353.517853 
	C193.655716,356.693756 180.111786,359.788239 166.012329,363.009644 
	C159.154999,332.976837 152.327698,303.075531 145.422791,272.763885 
z"/>
<path fill="#020202" opacity="1.000000" stroke="none" 
	d="
M705.004028,212.014343 
	C691.494080,152.844254 678.046387,94.088036 664.517517,34.977127 
	C678.338989,31.929106 691.598450,29.005024 705.524597,25.933912 
	C730.680725,135.039764 755.802307,243.995911 781.032898,353.425049 
	C767.176880,356.609528 753.510132,359.750488 739.536560,362.961945 
	C728.014709,312.645294 716.540466,262.536743 705.004028,212.014343 
z"/>
<path fill="#020202" opacity="1.000000" stroke="none" 
	d="
M1565.213867,245.800278 
	C1552.920410,192.013855 1540.729736,138.633591 1528.530029,85.255409 
	C1524.736938,68.659325 1520.919312,52.068848 1517.018921,35.065994 
	C1530.481812,32.091923 1543.892456,29.129406 1558.041016,26.003857 
	C1583.171631,135.004639 1608.322632,244.094543 1633.549316,353.512390 
	C1619.564453,356.726440 1606.013184,359.840820 1592.040771,363.052002 
	C1583.107544,323.998596 1574.210327,285.102936 1565.213867,245.800278 
z"/>
<path fill="#020202" opacity="1.000000" stroke="none" 
	d="
M1682.170654,352.880341 
	C1657.952393,246.799774 1633.808228,141.128967 1609.570435,35.048553 
	C1623.379028,32.006451 1636.770874,29.056171 1650.549805,26.020603 
	C1675.694824,135.083878 1700.792847,243.943466 1726.048706,353.487701 
	C1712.296997,356.658112 1698.657959,359.802551 1684.617310,363.039581 
	C1683.793091,359.652588 1683.019043,356.471344 1682.170654,352.880341 
z"/>
<path fill="#020202" opacity="1.000000" stroke="none" 
	d="
M1233.481445,229.481476 
	C1241.604126,264.575928 1249.570312,299.279602 1257.535034,333.983612 
	C1258.975586,340.260162 1260.409424,346.538239 1262.002563,353.498566 
	C1248.296021,356.658508 1234.656860,359.802917 1220.552124,363.054657 
	C1195.541138,253.669220 1170.580933,144.506134 1145.553955,35.051300 
	C1159.350464,32.009933 1172.607666,29.087450 1186.448853,26.036217 
	C1188.535767,34.923008 1190.636230,43.747925 1192.679199,52.586128 
	C1206.089722,110.600471 1219.488525,168.617554 1232.885010,226.635147 
	C1233.071777,227.444412 1233.179810,228.271851 1233.481445,229.481476 
z"/>
<path fill="#020202" opacity="1.000000" stroke="none" 
	d="
M678.785522,355.715515 
	C668.050659,358.161377 657.724060,360.507202 647.027710,362.936981 
	C622.072449,253.806427 597.133911,144.749100 572.037598,35.001774 
	C585.435913,32.032249 598.943848,29.038431 613.024536,25.917669 
	C638.193237,135.094162 663.340881,244.179489 688.527466,353.433655 
	C685.001160,354.257935 682.097473,354.936707 678.785522,355.715515 
z"/>
<path fill="#020202" opacity="1.000000" stroke="none" 
	d="
M978.161865,363.002350 
	C976.369080,363.002350 975.058716,363.002350 973.456909,363.002350 
	C973.456909,250.676559 973.456909,138.637924 973.456909,26.298315 
	C987.189270,26.298315 1000.919189,26.298315 1014.910889,26.298315 
	C1014.910889,138.353607 1014.910889,250.398911 1014.910889,363.002350 
	C1002.856323,363.002350 990.750305,363.002350 978.161865,363.002350 
z"/>
<path fill="#020202" opacity="1.000000" stroke="none" 
	d="
M1080.065186,363.002350 
	C1077.783325,363.002350 1075.992920,363.002350 1074.019165,363.002350 
	C1074.019165,250.533234 1074.019165,138.489929 1074.019165,26.222092 
	C1087.916504,26.222092 1101.653198,26.222092 1115.613037,26.222092 
	C1115.613037,138.473618 1115.613037,250.511200 1115.613037,363.002350 
	C1103.791992,363.002350 1092.174316,363.002350 1080.065186,363.002350 
z"/>
<path fill="#000000" opacity="1.000000" stroke="none" 
	d="
M1495.999634,329.000000 
	C1495.999634,340.476837 1495.999634,351.453674 1495.999634,362.714233 
	C1482.042358,362.714233 1468.303955,362.714233 1454.281982,362.714233 
	C1454.281982,250.703262 1454.281982,138.637222 1454.281982,26.285770 
	C1467.957642,26.285770 1481.696167,26.285770 1495.999634,26.285770 
	C1495.999634,126.986809 1495.999634,227.743408 1495.999634,329.000000 
z"/>
<path fill="#020202" opacity="1.000000" stroke="none" 
	d="
M500.164246,281.999908 
	C500.164246,196.551041 500.164246,111.602219 500.164246,26.325611 
	C514.135803,26.325611 527.863159,26.325611 541.881714,26.325611 
	C541.881714,138.302475 541.881714,250.344513 541.881714,362.694550 
	C528.282959,362.694550 514.535889,362.694550 500.164246,362.694550 
	C500.164246,336.010468 500.164246,309.255219 500.164246,281.999908 
z"/>
<path fill="#020202" opacity="1.000000" stroke="none" 
	d="
M399.829315,231.999908 
	C399.829315,163.200790 399.829315,94.901680 399.829315,26.300140 
	C413.729645,26.300140 427.476044,26.300140 441.530151,26.300140 
	C441.530151,138.286667 441.530151,250.322403 441.530151,362.680389 
	C427.852417,362.680389 414.124664,362.680389 399.829315,362.680389 
	C399.829315,319.320679 399.829315,275.910309 399.829315,231.999908 
z"/>
<path fill="#020202" opacity="1.000000" stroke="none" 
	d="
M28.164280,129.999908 
	C28.164282,95.205269 28.164282,60.910629 28.164282,26.307159 
	C42.171707,26.307159 55.900352,26.307159 69.901031,26.307159 
	C69.901031,138.333954 69.901031,250.375992 69.901031,362.710266 
	C56.245327,362.710266 42.500374,362.710266 28.164280,362.710266 
	C28.164280,285.316864 28.164280,207.908401 28.164280,129.999908 
z"/>
<path fill="#ACACAC" opacity="1.000000" stroke="none" 
	d="
M1629.002808,649.007446 
	C1624.337524,649.005737 1620.167725,649.093384 1616.007446,648.933350 
	C1615.082031,648.897705 1614.190308,647.989929 1613.283081,647.483704 
	C1613.929932,646.470947 1614.495361,644.642883 1615.236084,644.568848 
	C1625.031738,643.589661 1624.383911,636.744263 1624.202026,629.676147 
	C1623.910767,618.350708 1624.191772,607.011780 1624.039673,595.681091 
	C1623.897461,585.086670 1618.136597,581.584961 1608.607910,586.123901 
	C1599.964966,590.240845 1594.481689,597.533264 1589.494873,605.298340 
	C1589.157715,605.823181 1589.007324,606.557312 1589.005493,607.194824 
	C1588.974365,617.693970 1588.890259,628.195068 1589.098389,638.690063 
	C1589.123413,639.955750 1590.520752,641.624268 1591.733765,642.335510 
	C1593.549072,643.399658 1595.870239,643.573669 1597.765991,644.539185 
	C1598.702515,645.016296 1599.168823,646.416809 1599.847778,647.399536 
	C1598.977295,647.932434 1598.111816,648.919189 1597.235596,648.928833 
	C1587.404175,649.037842 1577.570557,649.038940 1567.739258,648.920044 
	C1566.897705,648.909790 1565.429932,647.873901 1565.390381,647.243225 
	C1565.336792,646.386841 1566.318237,644.730225 1566.962891,644.675110 
	C1577.539429,643.772400 1576.281250,636.245728 1576.158691,629.011719 
	C1575.949951,616.682617 1576.120850,604.347534 1576.064331,592.015320 
	C1576.037109,586.078857 1574.893555,584.991516 1569.004272,583.912659 
	C1567.654297,583.665344 1566.487183,582.419189 1565.235962,581.632812 
	C1566.375610,580.710083 1567.378662,579.438416 1568.680054,578.929504 
	C1572.691040,577.360779 1576.846191,576.165405 1580.888916,574.672058 
	C1585.599487,572.932068 1587.792847,574.298523 1587.935913,579.452759 
	C1588.058350,583.858337 1587.961304,588.270020 1587.961304,593.557739 
	C1593.275146,588.614563 1597.254272,584.125122 1602.012573,580.726257 
	C1606.107666,577.801147 1610.881958,575.333740 1615.723633,574.045471 
	C1627.307373,570.963135 1636.824707,578.516785 1636.941895,590.432129 
	C1637.084473,604.929810 1637.331055,619.442200 1636.818237,633.922974 
	C1636.606567,639.897705 1638.413818,642.860962 1644.151611,644.065613 
	C1645.721802,644.395264 1646.974854,646.235413 1648.373413,647.382446 
	C1648.051880,647.924133 1647.730347,648.465759 1647.408813,649.007446 
	C1641.439819,649.007446 1635.470703,649.007446 1629.002808,649.007446 
z"/>
<path fill="#ACACAC" opacity="1.000000" stroke="none" 
	d="
M160.452911,643.657532 
	C162.092651,644.175598 163.497726,644.327393 164.576736,645.001282 
	C165.218201,645.401917 165.754501,646.720337 165.582993,647.448120 
	C165.431793,648.089661 164.236084,648.915955 163.495026,648.922546 
	C152.866547,649.017639 142.236969,648.987549 131.740601,648.987549 
	C130.115234,645.246887 132.362213,644.394897 134.783401,643.975525 
	C140.521729,642.981506 142.422394,639.994324 142.184860,633.971436 
	C141.640594,620.169739 142.026306,606.332153 141.988388,592.509277 
	C141.971146,586.223938 140.976791,585.238525 134.766571,583.923035 
	C133.437683,583.641479 132.321060,582.357910 131.106628,581.535950 
	C132.264481,580.601746 133.284393,579.310242 134.605957,578.800049 
	C138.622238,577.249634 142.808990,576.141296 146.827759,574.596558 
	C151.066589,572.967163 153.425552,574.106750 153.737167,578.795166 
	C154.053040,583.547791 153.806870,588.337769 153.806870,593.508728 
	C159.149368,588.597046 163.717758,583.867188 168.837082,579.837280 
	C174.117416,575.680603 180.248764,572.543396 187.206543,573.397949 
	C197.499619,574.662048 202.754166,581.052246 202.851166,591.854675 
	C202.981262,606.342651 203.172256,620.841309 202.736664,635.317322 
	C202.574524,640.705444 204.854095,642.876160 209.443878,643.916931 
	C210.409439,644.135864 211.576279,644.198242 212.246994,644.789978 
	C212.984390,645.440552 213.547562,646.604004 213.597702,647.574463 
	C213.620102,648.007935 212.207474,648.921997 211.440216,648.928528 
	C200.815338,649.019043 190.189468,648.989746 179.563843,648.989746 
	C179.249405,648.446167 178.934967,647.902527 178.620529,647.358948 
	C180.036255,646.213135 181.301392,644.402100 182.894836,644.041382 
	C188.551529,642.760864 190.466721,639.846436 190.198318,633.859192 
	C189.632034,621.226868 190.071609,608.551941 189.969070,595.895508 
	C189.910065,588.610840 187.919525,585.275696 182.722977,584.587646 
	C180.269485,584.262756 177.442719,584.954468 175.097687,585.933960 
	C166.247543,589.630676 160.533539,596.768066 155.744934,604.701477 
	C154.960251,606.001404 154.914719,607.878052 154.901123,609.491272 
	C154.825363,618.483887 155.066315,627.484009 154.774841,636.467773 
	C154.640442,640.610107 156.304230,642.674255 160.452911,643.657532 
z"/>
<path fill="#ABABAB" opacity="1.000000" stroke="none" 
	d="
M73.674232,585.668640 
	C79.598885,579.870789 85.858078,575.414246 93.866730,573.786621 
	C104.902359,571.543823 113.937920,578.425598 114.074341,589.690552 
	C114.251801,604.345581 114.141808,619.004150 114.152229,633.661194 
	C114.157883,641.616455 114.191498,641.509155 121.746086,644.094238 
	C123.231453,644.602478 124.311859,646.294128 125.579025,647.440063 
	C125.279572,647.863953 124.980118,648.287903 124.680672,648.711853 
	C113.600243,648.711853 102.519814,648.711853 91.439384,648.711853 
	C91.141685,648.313721 90.843987,647.915588 90.546295,647.517395 
	C91.812477,646.353333 92.884529,644.680359 94.377525,644.110840 
	C101.957405,641.219421 101.997711,641.319702 101.995262,633.301758 
	C101.991707,621.642639 102.123444,609.981018 101.911697,598.325623 
	C101.825981,593.607178 102.297394,588.146118 97.274559,585.420898 
	C91.883636,582.495911 86.479630,584.711914 82.523003,588.278442 
	C76.908905,593.338989 72.058266,599.278748 67.171211,605.086731 
	C66.167717,606.279297 66.191635,608.543091 66.169022,610.318604 
	C66.069298,618.145630 66.124832,625.974609 66.125999,633.802917 
	C66.127159,641.559509 66.113792,641.604065 73.381027,643.944458 
	C75.738976,644.703857 78.027115,645.275330 76.445724,648.777466 
	C65.533722,648.777466 54.594128,648.777466 43.604103,648.777466 
	C42.119545,645.465271 44.131199,644.728333 46.577194,643.935242 
	C53.990932,641.531250 53.971016,641.468323 53.970634,633.564941 
	C53.970005,620.406738 53.995640,607.248535 53.957687,594.090393 
	C53.934330,585.992920 53.524071,585.619812 45.662769,583.875854 
	C44.673897,583.656494 43.282932,582.500549 43.209339,581.677429 
	C43.135708,580.853821 44.305073,579.434631 45.233284,579.086731 
	C50.195610,577.226501 55.264881,575.653992 60.273609,573.914246 
	C63.911671,572.650574 64.745255,575.039124 65.021812,577.689148 
	C65.554558,582.793823 65.837830,587.924500 66.263252,593.556702 
	C68.799667,590.851624 71.111023,588.386597 73.674232,585.668640 
z"/>
<path fill="#ABABAB" opacity="1.000000" stroke="none" 
	d="
M1197.481812,589.396484 
	C1195.035522,591.688293 1192.790649,593.685669 1190.750000,595.873413 
	C1185.486816,601.516113 1182.055786,607.684692 1182.982544,615.985596 
	C1183.698853,622.401306 1183.397095,628.976257 1183.035034,635.451721 
	C1182.770752,640.178955 1184.673706,642.637024 1189.086304,643.597656 
	C1190.216187,643.843689 1191.479248,644.045654 1192.359375,644.700378 
	C1193.135376,645.277771 1193.942383,646.522034 1193.832520,647.352356 
	C1193.747681,647.994141 1192.270508,648.911194 1191.403809,648.920288 
	C1181.107544,649.029053 1170.809814,648.990295 1160.512451,648.990295 
	C1160.204834,648.522583 1159.897339,648.054871 1159.589722,647.587158 
	C1160.810303,646.406860 1161.827026,644.692627 1163.285645,644.135864 
	C1170.931641,641.217407 1170.971436,641.319275 1170.970459,633.410950 
	C1170.968750,620.086426 1171.007568,606.761719 1170.946411,593.437439 
	C1170.912842,586.102356 1170.080444,585.302307 1163.009033,583.886475 
	C1161.901978,583.664795 1161.013672,582.349731 1160.024292,581.540283 
	C1160.964844,580.656982 1161.756714,579.385986 1162.871826,578.958435 
	C1167.355835,577.239380 1172.009277,575.954712 1176.466431,574.174622 
	C1180.376953,572.612549 1181.725586,574.441956 1182.047363,577.839478 
	C1182.528442,582.918274 1182.844849,588.012695 1183.218994,592.938599 
	C1188.191406,588.396423 1192.820801,583.421387 1198.194580,579.454407 
	C1204.418945,574.859375 1211.422974,571.730774 1219.610596,574.089417 
	C1226.640503,576.114685 1230.950195,581.283508 1231.029785,588.629517 
	C1231.192261,603.617676 1231.129517,618.608398 1231.150879,633.598022 
	C1231.162354,641.642334 1231.190063,641.537170 1238.684448,644.081970 
	C1240.183228,644.590881 1241.294556,646.240479 1242.584595,647.364075 
	C1242.291748,647.803467 1241.998901,648.242859 1241.706055,648.682251 
	C1230.636230,648.682251 1219.566406,648.682251 1208.496460,648.682251 
	C1208.190063,648.310181 1207.883545,647.938171 1207.577026,647.566101 
	C1208.812012,646.390381 1209.845947,644.691467 1211.315796,644.126648 
	C1218.956909,641.190125 1218.996582,641.290710 1218.995605,633.366455 
	C1218.994019,621.874023 1219.116333,610.379578 1218.929199,598.890137 
	C1218.849487,593.998474 1219.463501,588.333374 1214.323608,585.464661 
	C1208.760620,582.359924 1203.767456,585.413208 1199.041382,588.388306 
	C1198.619019,588.654114 1198.197876,588.921875 1197.481812,589.396484 
z"/>
<path fill="#ACACAC" opacity="1.000000" stroke="none" 
	d="
M666.944824,545.007080 
	C666.944824,575.497375 667.090881,605.490295 666.809143,635.479309 
	C666.758972,640.817993 668.745300,643.150879 673.555237,643.972168 
	C674.696045,644.166931 675.956177,644.296753 676.888245,644.887451 
	C677.689148,645.395081 678.368835,646.464172 678.554382,647.394287 
	C678.630798,647.777283 677.277832,648.908875 676.567627,648.915649 
	C666.071716,649.015564 655.574219,649.014099 645.078247,648.915344 
	C644.357544,648.908630 643.186829,648.037109 643.052185,647.394531 
	C642.901611,646.675720 643.651550,645.735291 644.101868,644.943787 
	C644.235962,644.708008 644.676819,644.534424 644.982910,644.525269 
	C654.730530,644.232666 654.219727,637.624939 654.160950,630.559204 
	C653.932434,603.068787 654.080811,575.575378 654.051880,548.083069 
	C654.043396,540.014709 653.837830,539.908447 645.858459,537.819702 
	C644.832703,537.551147 644.068726,536.282288 643.183533,535.476807 
	C644.039673,534.649048 644.755066,533.417847 645.775757,533.061951 
	C650.780579,531.316589 655.864380,529.796753 660.924866,528.211975 
	C664.511414,527.088867 666.725342,528.577026 666.898926,532.513550 
	C667.074829,536.504700 666.942322,540.509583 666.944824,545.007080 
z"/>
<path fill="#AAAAAA" opacity="1.000000" stroke="none" 
	d="
M710.084167,533.381714 
	C710.084229,567.294495 710.083923,600.752991 710.084290,634.211548 
	C710.084351,642.046753 710.329895,642.196228 718.016602,644.165771 
	C719.651489,644.584717 720.981323,646.194519 722.451660,647.255676 
	C722.157593,647.747681 721.863464,648.239685 721.569397,648.731689 
	C709.973938,648.731689 698.378479,648.731689 685.033997,648.731689 
	C686.695801,646.701965 687.429321,645.112854 688.657349,644.473511 
	C690.369629,643.581970 692.805298,643.878418 694.280273,642.786621 
	C695.886230,641.598022 697.769043,639.410095 697.781128,637.645874 
	C697.986633,607.518066 697.973938,577.388184 697.871765,547.259216 
	C697.849609,540.714294 696.483398,539.511536 690.002258,537.839417 
	C688.866577,537.546387 688.010498,536.169128 687.025330,535.292603 
	C688.029724,534.480347 688.911621,533.322876 690.059631,532.915466 
	C695.050110,531.144287 700.100525,529.534241 705.163269,527.976562 
	C709.813660,526.545776 709.980469,529.746094 710.084167,533.381714 
z"/>
<path fill="#AAAAAA" opacity="1.000000" stroke="none" 
	d="
M1118.031372,535.011719 
	C1119.732666,533.811218 1121.363525,532.851379 1123.116333,532.242432 
	C1127.179932,530.830566 1131.409668,529.846863 1135.370239,528.203064 
	C1139.187378,526.618713 1140.645386,528.064331 1141.053101,531.611633 
	C1141.185303,532.762512 1141.083618,533.940674 1141.083740,535.106323 
	C1141.084229,568.411865 1141.083252,601.717407 1141.084961,635.022949 
	C1141.085327,641.663574 1141.839966,642.577698 1148.361816,644.004639 
	C1149.490845,644.251709 1150.743042,644.379883 1151.664795,644.981750 
	C1152.318237,645.408447 1152.909058,646.605469 1152.789185,647.337646 
	C1152.685303,647.972229 1151.546631,648.900818 1150.858398,648.906921 
	C1139.734375,649.004883 1128.609131,648.976135 1117.484253,648.976135 
	C1117.190063,648.481750 1116.895874,647.987305 1116.601685,647.492920 
	C1117.871582,646.381470 1118.972412,644.671448 1120.439087,644.257385 
	C1128.905518,641.867249 1128.934937,641.970947 1128.934937,633.307617 
	C1128.934814,605.830566 1128.938232,578.353455 1128.932495,550.876404 
	C1128.930542,541.175293 1128.908081,541.206970 1119.652344,537.598999 
	C1118.932251,537.318298 1118.553589,536.161499 1118.031372,535.011719 
z"/>
<path fill="#AAAAAA" opacity="1.000000" stroke="none" 
	d="
M1678.084229,556.000000 
	C1678.084229,582.626709 1678.083252,608.753357 1678.084717,634.880066 
	C1678.085083,641.779968 1678.692139,642.504700 1685.708618,644.032593 
	C1689.653809,644.891663 1689.653809,644.891724 1689.411133,648.772217 
	C1677.833862,648.772217 1666.241699,648.772217 1654.649658,648.772217 
	C1654.326660,648.392761 1654.003784,648.013306 1653.680908,647.633911 
	C1654.863525,646.488281 1655.859497,644.716858 1657.259155,644.299255 
	C1665.904541,641.720215 1665.934937,641.821594 1665.934937,633.006470 
	C1665.934814,605.714905 1665.937500,578.423340 1665.933105,551.131775 
	C1665.931519,541.432495 1665.906494,541.473206 1656.908203,537.683228 
	C1656.077637,537.333435 1655.166504,536.029602 1655.176025,535.178772 
	C1655.184448,534.446472 1656.328125,533.359497 1657.187866,533.064392 
	C1662.663818,531.184326 1668.145996,529.275818 1673.735474,527.788391 
	C1677.593628,526.761780 1678.066528,529.660278 1678.075073,532.535217 
	C1678.097900,540.190063 1678.083740,547.845093 1678.084229,556.000000 
z"/>
</svg>