<svg version="1.1" id="Layer_1" xmlns="http://www.w3.org/2000/svg" xmlns:xlink="http://www.w3.org/1999/xlink" x="0px" y="0px"
	 width="100%" viewBox="0 0 352 592" enable-background="new 0 0 352 592" xml:space="preserve">
<path fill="#000000" opacity="1.000000" stroke="none" 
	d="
M287.578552,584.511353 
	C222.391739,562.472778 157.581879,540.555420 92.770012,518.643860 
	C86.620361,516.564819 80.498230,514.390076 74.286034,512.515930 
	C70.897263,511.493591 69.553978,509.725555 69.652740,506.080688 
	C69.896378,497.088470 70.170181,488.056915 69.582832,479.096832 
	C69.207100,473.365082 71.524948,470.413483 76.077988,467.576172 
	C100.819603,452.158081 125.318657,436.350983 150.046356,420.910248 
	C172.509201,406.883728 194.526123,392.116547 217.834305,379.478149 
	C222.365067,377.021454 227.227783,375.179047 231.773911,372.747681 
	C234.112320,371.497009 238.264664,371.526978 238.120377,368.135956 
	C238.002090,365.356262 234.263580,364.908722 231.920273,363.853149 
	C221.582779,359.196564 211.323639,354.366425 201.705399,348.351257 
	C172.469925,330.067719 143.312027,311.660126 114.132156,293.287750 
	C100.740738,284.856171 87.409393,276.328064 73.956429,267.996124 
	C70.917648,266.114075 69.618698,263.882904 69.695992,260.278717 
	C69.888847,251.284256 70.091660,242.264130 69.609932,233.290833 
	C69.320374,227.897003 71.111244,225.476135 76.267860,223.768631 
	C111.967010,211.947617 147.558090,199.800171 183.183548,187.756622 
	C221.029388,174.962494 258.874847,162.167236 296.720551,149.372650 
	C303.001465,147.249237 303.073029,147.223663 305.271667,153.276260 
	C309.865997,165.923996 314.377106,178.601974 319.325989,192.392197 
	C258.059387,211.099304 199.510040,236.606155 136.762299,248.801117 
	C137.208282,251.838226 139.178696,252.416046 140.733154,253.087433 
	C163.197556,262.790314 183.165482,276.772736 203.717102,289.746368 
	C235.269974,309.664764 266.737701,329.718384 298.354218,349.534943 
	C302.067719,351.862549 303.649384,354.364471 303.426849,358.770050 
	C303.065826,365.917633 303.261047,373.097382 303.356750,380.261749 
	C303.390869,382.816193 302.705536,384.663208 300.406586,386.082825 
	C256.189972,413.387146 213.051483,442.416199 168.235077,468.758972 
	C159.619965,473.822876 150.652664,478.252899 141.497833,482.288544 
	C139.746536,483.060516 137.666580,483.499786 136.719498,485.636200 
	C138.288651,487.833710 140.858688,487.849548 142.984467,488.291809 
	C175.869537,495.133453 206.990067,507.635956 238.742294,518.087341 
	C263.881165,526.361938 288.842621,535.174988 313.967499,543.493347 
	C318.311523,544.931519 319.275757,546.429810 317.509796,550.827087 
	C313.169556,561.634583 309.440094,572.686096 305.379333,583.607605 
	C303.054077,589.861450 302.979675,589.830688 296.452148,587.562439 
	C293.622284,586.579041 290.787476,585.609802 287.578552,584.511353 
z"/>
<path fill="#000000" opacity="1.000000" stroke="none" 
	d="
M260.000000,100.224152 
	C220.197433,100.219208 180.894882,100.217766 141.592316,100.205002 
	C134.884964,100.202827 134.817123,100.128265 134.804718,93.596069 
	C134.785095,83.270851 134.774246,72.945580 134.783783,62.620354 
	C134.789886,56.024590 134.809372,55.991821 141.501587,55.991898 
	C199.123138,55.992558 256.744690,56.006630 314.366241,56.014595 
	C320.195007,56.015400 326.030060,56.166706 331.850494,55.943039 
	C336.404938,55.768024 338.473663,57.161877 338.326294,62.175831 
	C338.008392,72.991310 338.053497,83.826889 338.314514,94.645454 
	C338.423309,99.155663 336.660614,100.326607 332.443176,100.301300 
	C308.462799,100.157440 284.481201,100.226921 260.000000,100.224152 
z"/>
<path fill="#000000" opacity="1.000000" stroke="none" 
	d="
M32.072643,25.211821 
	C45.070137,10.671954 60.879978,9.340248 77.968605,14.612984 
	C91.994194,18.940611 100.997757,31.752583 102.113708,48.582752 
	C103.095169,63.384682 100.996025,77.570892 88.933792,87.701744 
	C76.565483,98.089668 61.987244,99.391571 47.108505,94.153259 
	C32.593437,89.042976 26.467669,77.424408 24.567764,62.794121 
	C22.837502,49.470154 24.342709,36.946083 32.072643,25.211821 
z"/>
</svg>