<svg enable-background="new 0 0 1024 416" viewBox="0 0 1024 416" xmlns="http://www.w3.org/2000/svg"><path d="m168.149139 166.201569c.055985 17.801315.116883 35.129394.16359 52.457504.016647 6.174103-.006958 6.140976-7.872437 7.294128-4.1277.605164-7.449981.210404-7.629211-5.07312-.061768-1.820862-1.183243-2.730118-2.918579-2.734009-12.100998-.027084-24.202072-.014328-37.131798-.014328 3.399483 5.854844 7.569588 9.889603 11.962349 13.553238 20.323624 16.950272 43.2099 28.643753 69.502319 33.130143.328369.05603.692124.041534.978852.182739 1.862411.917267 5.081375-.222565 5.624252 2.295746.696793 3.232177-2.929688 2.944183-4.717651 4.076812-3.363739 2.13086-6.134919 4.823487-7.056031 8.712281-1.054596 4.45227-3.371139 4.438446-6.927063 2.99884-18.798309-7.610565-34.963226-19.204468-49.820373-32.767395-8.7612-7.997986-16.134499-17.230942-23.265625-27.383835-1.120781 2.319962-.832619 4.274399-.809532 6.130676.227836 18.314316-.621788 36.642533.86174 54.942948.470596 5.805176-.800095 6.962799-6.698845 7.296173-10.866234.614075-11.040138.60788-10.649964-10.422974.547608-15.481872 1.28637-30.956283 1.042916-46.45372-.025192-1.603744.449013-3.29538-1.400185-6.275757-4.242897 4.728485-7.890663 9.460236-12.200218 13.483002-20.456387 19.095261-43.837971 33.547226-70.1015 43.274979-1.769391.655334-3.916442 2.107757-5.081967-.728669-1.086733-2.644683 1.472962-2.979797 2.930311-3.724426 12.049995-6.157043 23.552184-13.177734 34.129049-21.637695 13.418884-10.73317 26.309089-22.034912 37.127067-35.493485 1.023918-1.273864 1.94619-2.629425 2.786743-3.771865-.681289-1.580353-1.785217-1.43332-2.736824-1.43866-8.497215-.047608-16.99498-.02034-25.491806-.099075-2.734943-.025345-4.221981.710754-4.516456 3.866088-.369789 3.962433-4.303025 5.604096-10.756169 5.010666-3.889667-.357681-4.802929-2.712524-4.566318-6.261444 1.49757-22.462082.989029-44.950393.831058-67.436569-.024086-3.428299-1.448681-6.836441-.285679-10.714935 4.602326.49498 8.198552 2.961395 11.829674 5.114608 2.830548 1.678467 5.653546 2.510132 8.953659 2.474839 10.995484-.11763 21.994774-.147553 32.988945.023819 3.913147.060989 5.650803-.970703 5.688515-5.308472.134537-15.476105.278435-15.475937-15.371933-15.475922-17.994778.000031-35.989586-.013397-53.984301.01973-2.825765.005203-5.682144.002548-8.470762.389679-7.773793 1.079193-8.915868.019836-8.09965-8.628349 4.72104.558654 9.435431 1.547477 14.160647 1.602249 22.322571.25872 44.648377.226196 66.972305.394081 3.417031.025696 4.668496-1.263573 4.717087-4.711098.098458-6.985168-.625053-13.920646-1.264259-21.44857 7.92643-.367424 15.244324.712517 22.273147 3.112686 3.303246 1.127998 2.646515 4.090653-.019073 5.078384-8.112206 3.005982-5.208694 9.62922-5.473244 15.197136-.103134 2.170556 1.648552 2.71489 3.451226 2.715844 15.82798.008392 31.655983-.010247 47.48397-.032654 1.993698-.002823 3.422486-1.099129 4.687882-2.515724 1.664749-1.863671 3.379989-3.682129 5.055252-5.536545 6.801925-7.529343 5.061081-7.954567 13.896911-1.013985 3.667069 2.880493 7.274369 5.841362 10.822388 8.867073 1.461151 1.246048 3.816086 2.401741 3.056961 4.694481-.892486 2.695557-3.656677 1.770737-5.676346 1.775467-24.492752.057388-48.985763.001343-73.478538.052032-10.293297.021302-9.485703-1.357925-9.428452 9.257187.070206 13.016755-1.761841 11.324097 11.364792 11.417466 8.497124.060455 17.004021-.219208 25.489037.107727 4.874267.18782 8.800384-.839188 11.770645-4.891282 2.288086-3.121459 4.900055-3.46759 8.010101-.849029 2.667038 2.245544 5.698685 4.053299 8.42244 6.237534 2.761749 2.214675 2.716293 4.672256-.503022 6.273818-3.838943 1.909836-5.322052 4.736817-4.632019 9.331788m-15.822647 22.092254c-.547485-.343902-1.092971-.984573-1.642715-.988235-13.115494-.087921-26.231415-.116226-39.34729-.132385-2.76577-.003403-3.137085 1.903976-3.131302 4.082595.014549 5.480606.107513 10.963333-.015472 16.441071-.06894 3.070663 1.300788 4.042007 4.206901 4.022095 12.123421-.083069 24.248085-.08458 36.371468-.000046 3.026672.021118 4.171783-1.275055 4.107193-4.184418-.136322-6.139374-.157471-12.281311-.548783-19.240677m-30.811905-31.986358c-3.159088.00061-6.321159.086624-9.476371-.023728-2.791176-.097626-3.881867 1.153702-3.840729 3.873841.082985 5.485504.112198 10.974548.006012 16.459075-.057541 2.971894 1.133278 4.154526 4.13092 4.131302 12.136765-.094085 24.274925-.099777 36.411812-.020919 3.010529.019561 4.182785-1.222214 4.132233-4.161835-.091446-5.318863-.122574-10.643387.023269-15.959992.089341-3.256652-1.275863-4.383255-4.455505-4.336258-8.644012.127793-17.291214.040665-26.931641.038514m-38.08245 30.771347c-9.994957.007537-19.991997.135574-29.98383-.037369-3.935543-.068146-5.335171 1.397873-5.13821 5.284988.252578 4.984803.181595 9.995377.028488 14.988053-.100178 3.266861 1.289234 4.42572 4.45113 4.40303 11.993282-.086029 23.987919-.087479 35.981174-.000076 3.083885.022461 4.105103-1.364548 4.055023-4.246506-.092613-5.328949-.12178-10.663101.011597-15.990356.080467-3.21373-1.237945-4.626893-4.43502-4.409592-1.326248.090149-2.6642.008072-4.970352.007828m-32.344853-30.708313c-2.179348.123504-2.725326 1.537613-2.720158 3.412796.015584 5.657592.086968 11.316208.002957 16.972427-.046192 3.110107 1.522556 3.988129 4.35133 3.972031 11.98056-.068222 23.962066-.083496 35.942375.001907 2.994568.021347 4.204979-1.163055 4.149628-4.133697-.096077-5.156434-.166268-10.323243.057815-15.472428.162048-3.723587-1.300148-4.927231-4.955276-4.875534-11.978707.16951-23.96119.072205-36.828671.122498z"/><path d="m1015.822754 149.154114c1.445312 1.165664 2.61615 2.102142 3.770508 3.058609 4.815185 3.989883 4.911255 5.199402-.323304 8.818084-2.860046 1.977128-2.95404 4.494645-2.951171 7.391495.032165 32.324829.019592 64.649719.039489 96.974579.008118 13.155304-2.739502 16.961517-15.296997 21.001373-1.426635.458985-2.910095.781495-4.279113 1.371643-4.343079 1.872223-7.792542 2.449067-9.107483-3.739166-.652527-3.070953-3.839295-4.462738-6.60846-5.687256-5.822815-2.574859-11.98291-3.978515-18.22937-5.052551-1.145691-.196991-2.29602-.393066-3.420105-.682953-1.346008-.347076-2.655151-.87146-2.295166-2.652099.341675-1.689759 1.678528-1.859681 3.097961-1.755921 9.292176.679474 18.610535 1.115174 27.869385 2.10672 12.255066 1.312317 12.62262 1.15683 12.622132-11.250152-.000367-7.99791-.130066-15.998658.050415-23.992432.080505-3.566864-1.034302-5.135727-4.798096-5.12883-32.657837.059891-65.316284.077881-97.97345-.095474-4.365478-.023178-4.708496 2.652649-5.324219 5.630615-4.328369 20.933746-14.87268 37.935944-32.120544 50.678009-1.399597 1.033997-2.588684 2.726227-4.82373 1.925659-1.188599-1.997345.498474-3.128692 1.461059-4.260101 14.820679-17.419647 20.244934-38.061981 21.734985-60.392304 1.276307-19.127731 1.99823-38.235672 1.667481-57.391876-.051086-2.960251-.019348-5.951248-1.335205-9.064545-4.458557 1.504838-7.447205 5.06952-11.298096 7.227799-4.937256 2.767075-9.770019 5.721847-14.728821 8.448486-1.430236.786438-3.359008 2.691925-4.690063.213806-1.066528-1.98555 1.221741-2.817596 2.435913-3.743911 20.532104-15.66536 36.919067-35.009812 50.614136-56.769242 2.761352-4.387283 5.226806-8.918197 6.955932-13.802635.797181-2.251694 2.005371-3.416252 4.442627-2.713417 5.914978 1.705666 11.839112 3.383713 17.719239 5.203232 1.577697.488212 3.315734 1.383675 3.190429 3.373459-.12323 1.955978-1.82251 2.789428-3.537658 2.93901-6.323914.55156-10.088501 4.425652-12.955689 9.736382 1.399414 1.658844 3.35791.884132 5.033264.896568 10.330017.076699 20.668335-.207992 30.988343.119095 5.046142.159943 9.125061-.746513 12.095581-5.107117 2.337524-3.43116 4.89978-3.801559 8.176513-.772949 3.41449 3.15593 7.398011 5.688515 10.906006 8.753189 3.480591 3.040703 3.102905 5.700669-1.20581 6.043381-9.106507.724319-14.425354 6.667679-20.118164 12.512573-3.894776 3.998917-8.113282 7.682572-12.265626 11.580933 1.870789 1.541962 3.76294 1.575806 5.517762 1.432144 12.825744-1.049988 25.638183.454422 38.461609.12822 3.71289-.094452 6.633361-.743348 9.081115-3.956803 3.988953-5.236892 4.197693-5.077881 11.754456.446671m-15.160462 45.844986c-.187072-3.205292-2.613037-2.981781-4.747253-2.98909-12.30719-.042053-24.614929.025223-36.921509-.071366-3.356445-.026352-4.793213 1.167786-4.710632 4.676148.175964 7.480148.177124 14.970108.002136 22.450241-.079346 3.389618.992249 4.757446 4.543884 4.712677 12.305542-.155151 24.615052-.149445 36.921021-.014999 3.614746.039489 5.088684-1.188096 4.999695-4.908661-.182862-7.646118-.052857-15.299744-.087342-23.85495m-45.845825-70.744095c-12.795349-.005837-25.593139.125252-38.384582-.100197-3.881653-.068413-6.52417 1.240517-8.990784 4.110695-4.326965 5.034744-9.034485 9.740478-13.459412 14.694015-1.31903 1.47667-4.374877 2.552155-2.983154 5.052201 1.345215 2.416443 3.788696 4.392318 6.901184 4.249466 13.462525-.617905 26.907593.326385 40.361695.311157 1.712341-.001938 3.381591-.165009 4.486389-1.660187 5.535583-7.491592 10.641662-15.259521 14.898437-23.559387 1.092102-2.129364.261414-3.110924-2.829773-3.097763m-58.317383 99.370178c12.476075.029327 24.954468-.068954 37.426819.160919 4.067566.074967 5.181946-1.581802 5.091309-5.317047-.169556-6.982742-.181885-13.977646.036316-20.958252.12677-4.057602-1.328247-5.671448-5.47699-5.581939-9.145569.197326-18.298584.107009-27.448059.046142-11.801514-.078506-9.78186-.140182-10.270569 9.326172-.051391.995254-.30487 1.987442-.28656 2.977753.117493 6.378647-1.189209 12.771347.927734 19.346252m82.000916-65.271072c-6.483337-.001282-12.969238.106765-19.448853-.049408-3.300415-.079544-4.900817.873825-4.777526 4.500274.20874 6.143708.205566 12.304764-.002259 18.448594-.121093 3.578628 1.373902 4.577926 4.726868 4.541717 12.134033-.131042 24.272644-.193603 36.404419.016174 4.244568.073395 5.531189-1.570907 5.361389-5.583587-.238708-5.641983-.216675-11.307663-.001343-16.951599.137451-3.604599-1.019897-5.149262-4.8078-4.987275-5.475891.234162-10.969177.063553-17.454895.06511m-58.000854 27.37796c4.825439-.003891 9.651977-.07161 14.475891.01326 2.711853.047684 3.982177-1.060806 3.964111-3.81781-.042603-6.488724-.047852-12.978668.034668-19.466797.037292-2.93039-1.13794-4.174622-4.157471-4.148605-11.48053.098831-22.962707.101608-34.443298.013137-2.969177-.022873-4.195618 1.055924-4.144898 4.084641.105774 6.320663.085877 12.647781-.082641 18.966904-.085938 3.223815 1.16272 4.477829 4.385864 4.404769 6.319824-.14328 12.645142-.047668 19.967774-.049499z"/><path d="m304.840424 97.338486c6.002685.869781 11.617187 1.573188 17.195159 2.49704 1.72995.286514 3.867157.653625 4.247773 2.878509.390472 2.282524-1.544403 3.097939-3.147064 3.978188-5.508881 3.025764-7.343873 7.481338-5.858582 13.647277.536987 2.229248 2.023834 2.381524 3.741638 2.382119 16.832611.005775 33.665222-.019394 50.497772.007667 2.240906.003601 3.710175-1.106201 5.046814-2.728752 2.860138-3.471985 5.854615-6.834183 8.682129-10.331848 1.46991-1.818253 2.888764-1.953415 4.657471-.528931 5.968048 4.806542 11.964905 9.577355 17.932892 14.38398 1.078613.868698 1.91745 1.970413 1.453277 3.450851-.478729 1.527108-1.942657 1.759728-3.24118 1.892327-1.817261.185547-3.659088.171219-5.490418.1716-25.665771.005539-51.332519.114151-76.99649-.102753-5.069244-.042831-6.876495 1.536423-6.439087 6.591187.40091 4.632736.187409 9.327545.086395 13.991562-.063232 2.919968.999878 4.204956 4.075074 4.188415 15.998962-.086044 31.999511-.127334 47.997467.026001 4.044647.038773 5.965881-2.728683 8.032196-5.182403 3.05429-3.626877 5.859131-4.293274 9.535522-.868958 2.300568 2.142807 5.149811 3.683869 7.581482 5.701523 3.70755 3.07634 3.791199 5.351532-.376617 7.722794-3.939423 2.241317-4.831665 5.113281-4.811249 9.35971.162659 33.831452.105652 67.663956.113586 101.49614.002106 8.92804-3.096649 13.003479-11.713226 15.318603-1.763855.473969-3.617615.633027-5.35846 1.169343-4.590362 1.414245-7.738433 1.082305-9.34082-4.566437-1.167511-4.115662-5.558899-5.535065-9.501098-6.49115-5.007691-1.214356-10.087159-2.134033-15.139191-3.163544-1.75116-.356872-3.383484-.96759-3.166474-3.113617.268586-2.655578 2.331208-2.288269 4.191285-2.167816 9.63031.623932 19.268402 1.143951 28.889679 1.883667 3.990265.306793 5.664001-.885925 5.646789-5.210358-.13388-33.664871-.136169-67.33078.00177-100.99562.017487-4.264069-1.549072-5.320877-5.554718-5.309082-38.49823.113357-76.997131.110977-115.495376-.009171-4.114975-.012833-5.540467 1.19986-5.395539 5.443146 1.348145 39.470749-.780716 78.953308.298233 118.427002.110962 4.059662-1.312896 6.36792-5.570465 6.51828-1.495041.052765-2.982452.315613-4.477569.373779-6.098755.237152-7.106964-.619842-6.889008-6.727814 1.408234-39.464614 2.085205-78.938614 1.935181-118.429489-.024491-6.447799-1.799683-12.865448-.397049-19.895157 4.782974.641388 8.428528 3.387207 12.095321 5.714585 3.562485 2.261169 7.16539 3.049255 11.305024 3.001373 13.331085-.154236 26.670349-.268539 39.995269.057892 4.965363.121628 6.443451-1.597641 6.100647-6.296219-.338653-4.642136-.190429-9.330872-.050293-13.992996.095276-3.170014-1.100708-4.511399-4.358276-4.489411-23.664124.159745-47.329422.160202-70.993149.356003-7.239807.059906-7.506332-.022445-7.079483-7.785797.391602-.196182.86258-.656128 1.252182-.595253 21.875519 3.418091 43.901474 1.066063 65.846573 1.729233 3.829468.11573 7.667481-.065956 11.498291.025329 2.777435.066201 3.907013-1.142532 3.825745-3.895378-.176972-5.994499-.154175-11.995315-.365357-17.988182-.081115-2.302467-.033081-4.135696 3.447602-3.518989z"/><path d="m691.637573 227.644104c9.062805-18.174469 12.985657-37.310776 15.10022-56.950165.785889-7.298996 1.031921-14.605758 1.188721-21.929596.060424-2.820221-.855347-4.336029-4.015625-4.278045-17.652527.324051-35.307129.537002-52.960938.791244-.666199.009598-1.33313.036163-1.997558.084168-7.580567.547561-7.88147.268646-8.163392-7.743882 2.530884-1.757095 5.156556-.086685 7.624634.166306 17.959168 1.840897 35.955323.483353 53.926331.878403 5.662353.124481 11.332763-.092469 16.993774.058776 3.110352.083115 4.622559-.883682 4.544434-4.235046-.244507-10.484108.522766-20.990951-.677979-31.452576-.249939-2.177757-.40924-4.396453 2.629273-4.046241 6.269897.722625 12.623474 1.015068 18.719848 2.843422 1.543702.462974 3.419251.922454 3.556641 2.995987.137573 2.075973-1.598938 3.001251-3.13916 3.381721-4.899414 1.210281-5.887695 4.418434-5.625366 8.966705.3255 5.644089.219238 11.324608.046081 16.981636-.105774 3.458161 1.169983 4.627396 4.661133 4.594574 15.994263-.150436 31.990967-.122436 47.986023-.027115 2.961975.017655 5.045227-.949172 6.765198-3.345001 2.232055-3.108993 4.908447-5.908294 7.034546-9.081489 2.135498-3.187203 4.003418-3.825547 7.067016-1.015877 4.9068 4.499969 10.147156 8.634262 15.1745 13.005997 1.416626 1.231948 3.847534 2.284698 2.744262 4.715362-.971923 2.141236-3.418701 1.794174-5.343505 1.816925-7.819947.092423-15.641907.10315-23.462403.043595-23.488342-.178864-46.980346.479431-70.466491-.355256-5.707581-.202835-7.026551.99791-7.112305 6.981629-.109986 7.674072-.503235 15.313431-1.738159 22.88472-.640259 3.924942 2.037292 3.517212 4.320495 3.526687 10.8302.044983 21.660706.019257 32.491089.020234 3.832276.00035 7.694458-.298462 11.490296.074768 6.614074.650375 12.087951-.583573 15.527282-6.967209 1.513123-2.808457 3.649781-2.832703 6.140686-.776596 3.465699 2.860641 7.159424 5.443145 10.709473 8.203933 3.120789 2.426957 3.285767 5.069565-.224609 7.087143-3.803589 2.186081-4.619935 5.257309-4.992432 9.450287-2.000122 22.514908-3.865234 45.092163-10.194519 66.941712-4.816345 16.626648-15.808045 24.332977-33.023438 23.771331-2.280883-.074432-2.964538-1.273895-3.144775-3.027893-.54248-5.278442-4.110046-7.716308-8.554443-9.360931-8.003785-2.961701-16.460328-4.034638-24.733643-5.870758-1.851013-.410767-4.816406-.010529-4.400268-2.77359.481201-3.194794 3.46228-1.638336 5.38031-1.477631 14.093505 1.180969 28.158752 2.640228 42.324829 2.899933 5.532104.10141 8.571472-2.042969 10.298889-7.289459 4.246033-12.895432 5.910339-26.253342 7.479675-39.615021 1.163147-9.903061 2.06958-19.843124 2.323181-29.839127.101136-3.983505-1.253235-5.242462-5.138366-5.210983-16.827576.136383-33.658204.160248-50.484803-.031799-4.070923-.046463-5.397033 1.600357-6.114929 5.358887-4.349792 22.773635-13.000488 43.628921-28.045227 61.573394-12.984009 15.486542-28.813599 27.08667-47.372497 34.986481-1.679688.714966-3.745545 2.3414-5.265259-.245392-1.727112-2.939697.968628-3.859588 2.68164-4.848846 21.853455-12.620117 38.293885-30.252136 49.461609-53.290436z"/><path d="m482.486938 247.493866c-2.765838 2.693359-5.284454 5.134506-8.504516 6.660782-5.787201 2.743088-13.201752 1.45256-15.853485-4.147736-6.607941-13.955536-13.509979-27.944214-18.191773-42.591522-4.803985-15.029633 1.322846-28.910141 9.840058-41.357941 15.58377-22.775467 38.307434-34.087387 64.78479-38.250801 23.102905-3.632805 45.23645-.568619 64.833557 13.385308 16.256531 11.575317 24.176452 27.777389 25.969543 47.431945 3.382752 37.078904-20.263488 63.431794-52.298279 76.635132-8.643554 3.56247-17.69812 5.815308-26.874267 7.563812-2.007385.382508-4.249329.921326-5.027588-1.684112-.877502-2.937439 1.816223-3.140411 3.560974-3.7164 16.690857-5.509979 31.921326-13.305939 43.880554-26.676697 15.919617-17.798767 21.858826-38.723755 18.780457-62.012527-3.247986-24.571793-22.749573-42.045197-48.296326-44.415284-5.216736-.483993-10.442505-1.823578-15.662109-.43164-.082092.590805-.281189 1.010391-.148621 1.214065 7.071106 10.862351 5.434387 22.308319 1.954102 33.694046-8.863709 28.997483-22.177735 55.631104-42.747071 78.69957m13.30365-106.156235c-11.69815 5.683716-21.96463 13.23021-29.830932 23.680008-14.269043 18.955246-19.022583 39.412903-8.407776 61.676392 5.955322 12.490738 11.275543 13.33226 20.035614 2.751968 18.895874-22.822174 32.800903-48.417724 40.490997-77.175781 1.168335-4.369019 1.180481-8.852875-.096313-13.304352-.922486-3.2164-2.822449-4.25264-5.98465-3.365402-5.289703 1.484177-10.557922 3.01802-16.20694 5.737167z"/><path d="m281.003601 234.310989c-6.154602.14856-11.824188-.337097-17.466186.491059-6.403595.939972-7.409821-.232712-6.235016-7.432404 3.204406-.744186 6.433532.473969 9.683777.455475 9.994354-.0569 19.991668.041122 29.984344.247437 3.466675.071579 4.77652-1.308457 4.671906-4.721131-.158234-5.160171-.120697-10.330459-.011506-15.493164.064667-3.057983-.926605-4.678268-4.282653-4.578476-13.304902.395554-26.638886-.787155-39.925263.745789-4.290161.49498-4.924255-.595139-4.673202-8.564225 11.64421 1.924836 23.31633 1.885758 35.581863 1.260071-2.17804-9.566787-6.666717-17.455612-11.284943-25.32225-1.163604-1.982056-4.556335-4.116058-2.45343-6.321976 2.309784-2.423004 4.720764.910477 6.886109 2.046936 4.731842 2.483444 9.010437 5.647293 12.910705 9.348297 4.979798 4.725449 7.161408 9.932969 3.615906 16.487366-.542145 1.002213-1.138519 2.069733-.347534 3.962204 5.482147 0 11.250671.128189 17.008911-.059326 2.514099-.081864 3.425934-2.48085 4.411499-4.355713 4.261536-8.106812 8.77652-16.12471 11.811615-24.782501 1.430817-4.081635 3.431183-4.718399 7.073028-3.105118 3.648072 1.616043 7.452546 2.876266 11.123627 4.44429 1.522461.650284 3.125427 1.642853 2.99115 3.608734-.142517 2.086762-1.919922 2.624909-3.617737 2.746476-4.399292.315002-7.0531 3.062728-9.757995 6.163955-4.322144 4.955429-9.004761 9.596436-13.188874 15.74353 5.411988 0 10.824341.033616 16.23581-.019989 1.676849-.016601 2.601501-1.354431 3.568176-2.491668 1.834015-2.157593 3.748322-4.26033 5.418793-6.540085 1.904998-2.599869 3.70108-2.859955 6.116882-.600983 3.769501 3.524781 7.736847 6.836991 11.562286 10.303391 1.085785.983871 2.445466 2.11737 1.708741 3.813064-.72638 1.671814-2.4776 1.453293-3.950867 1.455979-14.662079.026687-29.326904.186935-43.98468-.061325-4.727143-.080078-6.682831 1.266647-6.305664 6.184402.355713 4.637375.116394 9.325058.042541 13.989075-.047668 3.009491 1.017609 4.739776 4.317597 4.68724 5.330169-.084915 10.663177-.094192 15.993621-.027923 3.823395.047516 5.353211-3.01091 7.394654-5.305374 6.335724-7.121018 6.312683-7.166947 13.616577-1.130722 2.438873 2.015579 4.852325 4.068802 7.174316 6.216293 1.423218 1.316254 3.665558 2.58136 2.928009 4.819931-.801818 2.433548-3.383911 1.628128-5.26358 1.637512-13.328857.066635-26.662476.234238-39.985199-.057541-4.884186-.106964-6.38974 1.563706-6.243133 6.298584.36087 11.654679.35205 23.321381.431732 34.983704.016388 2.402862.836364 5.361999-2.277008 6.496155-3.950165 1.438995-8.130555 2.122741-12.167511.470611-1.855439-.759308-1.244751-2.901245-1.205902-4.513092.300811-12.485748.498809-24.976715 1.040222-37.452514.205566-4.736481-1.281708-6.659928-6.189209-6.264008-4.635193.373947-9.323548.088898-14.487305.093948z"/><path d="m371.777527 382.482361c-5.719757 12.950592-15.419342 21.015472-28.401001 25.298523-2.066193.681732-4.915711 3.27594-6.408844-.248169-1.353455-3.19455 2.210297-3.60202 4.062714-4.530121 9.581817-4.800903 16.723449-11.870453 21.31784-21.611633 1.608032-3.409394 1.248993-5.367279-2.414123-7.008118-6.604157-2.958221-13.46225-4.716492-20.582001-5.771179-2.719696-.402954-3.453827 1.318359-4.388245 3.103241-3.014526 5.757873-6.233124 11.391876-10.09494 16.637115-1.687988 2.292664-3.522278 4.456116-5.897003 6.053498-5.576447 3.750946-11.750183 1.8703-14.329224-4.308655-3.530517-8.458496-.437713-18.127167 7.438751-23.230103 4.874268-3.157867 10.343354-4.495849 16.021485-5.105591 1.700012-.182495 3.422455-.201782 4.226288-2.028869 3.531829-8.027985 6.62677-16.207031 9.020385-25.216553-5.51062.48169-10.104217 1.722687-14.389923 3.882355-3.232849 1.629089-6.181274 1.8367-8.490783-1.179901-2.602814-3.399781-5.187531-6.997467-2.241059-11.868042 9.234864 7.736999 18.490998 4.322082 27.480744.467651 4.949096-2.121948 7.612121.61441 10.265594 3.576996 2.581513 2.882202.862091 5.161713-1.281586 7.765015-5.673492 6.890045-7.991027 15.572265-12.586303 24.112518 9.130005 1.495788 17.567199 2.95755 25.440948 6.102569 5.574433-8.305542 4.516022-18.236755-2.221832-23.123077 3.005524-3.48407 8.368225-3.553833 13.719391-.265015 4.024841 2.473633 5.052765 5.314606 3.0307 10.032868-2.000701 4.668335-2.602508 9.929352-3.903625 14.907959-.487854 1.866791.460541 2.716583 1.875336 3.553467 2.719726 1.608642 5.459839 3.21051 8.020569 5.052826 2.738067 1.96997 5.006439 4.346252 5.444091 8.004394.338715 2.83078.184693 5.483215-2.578766 6.960358-2.570159 1.373779-4.368103-.574585-6.160064-2.038636-3.496155-2.856445-5.740998-7.355407-10.995514-7.977691m-59.963593-6.957276c-1.506653 2.358063-1.83258 4.949616-1.320343 7.628968.314118 1.642853.945862 3.280121 2.615143 3.991577 1.925049.820465 3.168518-.689972 4.23819-1.832276 4.415802-4.71582 7.510681-10.253601 10.703186-17.014678-6.829743.471862-11.975281 1.907012-16.236176 7.226409z"/><path d="m321.512329 87.868156c-4.155579-5.029151-4.325989-9.172134-.509399-14.741394 10.378784-15.144931 19.367309-31.100269 27.916473-47.319391.233002-.442018.478088-.877914.701508-1.324684 5.007049-10.01155 5.006622-10.011768-2.468933-17.375778.814239-2.081702 2.66983-2.499338 4.490387-2.304443 5.631164.602825 10.652374 2.807375 14.601501 6.890559 2.064148 2.134193 2.386719 4.758555-.057983 7.081883-10.271271 9.761383-16.021058 22.640272-24.748261 35.025789 5.362946-3.006786 9.502167-5.344627 14.600433-5.159561 7.354523.266972 11.920929 3.921799 13.205811 11.100907.760498 4.249225 1.213837 8.561935 2.151215 12.769012 1.434082 6.436249 4.536102 8.152176 10.963195 6.263855 10.765747-3.163078 16.298828-11.510139 20.596436-21.034893.820496-1.818489 1.547638-3.68103 2.420013-5.473534.583191-1.198288 1.660889-1.620578 2.940033-1.205478 1.242646.403244 1.754334 1.280876 1.809265 2.640895.539673 13.361668-13.92221 32.782399-26.853851 35.992024-10.925384 2.711662-18.742706-2.185104-20.797333-13.283592-.906402-4.896248-1.213134-9.900368-1.971801-14.827851-1.131592-7.349651-5.460083-9.484935-12.090516-5.948783-4.511322 2.405994-7.874755 6.095329-10.654998 10.330047-3.672028 5.593193-6.501984 11.622269-9.10849 17.762589-1.274872 3.003433-2.985657 5.277282-7.134705 4.141822z"/><path d="m81.2631 88.250229c-4.560547 4.399383-10.231713 3.467522-15.363327 3.816269-9.45773.642761-18.992096.639175-28.409413-.822334-8.370741-1.29908-16.301328-3.986283-19.084247-13.027352-2.770898-9.002029.340294-16.617878 7.412023-22.776176 4.137224-3.602837 8.848524-6.358681 13.713377-9.382489-4.77927-6.84803-4.719631-14.368595-4.763981-21.873348-.065712-11.119243-.073215-11.119199-8.52083-16.659421.621474-3.022631 3.195751-3.187216 5.397787-3.204825 4.346146-.034754 8.615074.768778 12.662678 2.459437 3.234608 1.351072 4.313976 3.780279 2.624306 6.827963-4.07626 7.352416-2.644081 15.261119-2.511013 23.004485.071186 4.142075 2.961052 4.949551 6.352588 3.68721 4.365586-1.624874 8.599358-3.60062 12.921574-5.346855 1.847065-.746231 3.745396-1.446091 5.817272-1.142742 2.756745.403625 4.615082 1.831436 5.147064 4.661747.510659 2.716907-.824363 4.63092-3.145889 5.603702-2.435852 1.020699-5.038017 1.695103-7.617016 2.314778-10.926735 2.625446-21.280601 6.642357-30.853279 12.564522-1.550695.959343-3.072531 2.047294-4.369673 3.318657-3.441276 3.37289-6.153616 7.244335-4.694017 12.358554 1.480324 5.186829 6.164864 6.50113 10.634266 6.876069 10.290398.863235 20.615253 1.080451 30.774498-1.55555 2.88237-.747887 5.776131-1.615105 8.848389-1.240303 5.23101.638153 7.676353 3.71846 7.026863 9.538002z"/><path d="m242.879211 345.174866c10.493882 13.429046 8.334534 31.820373-4.769943 42.114593-10.023392 7.873902-21.976105 10.826081-34.195267 12.9021-4.088211.694549-8.264099.870788-12.398712 1.295624-1.700287.174682-3.512207.510955-3.695465-2.002594-.168167-2.30658 1.530396-2.572144 3.24971-2.90915 8.011185-1.57019 15.975174-3.349578 23.488236-6.65567 10.730819-4.722046 19.848831-11.072174 22.666855-23.438751 3.463745-15.200043-7.775574-27.086792-23.127182-24.433716-12.991837 2.245301-23.928315 8.838471-34.320862 16.513336-3.391632 2.504761-6.756806 5.423554-11.249832 2.689118-5.127076-3.120331-9.249131-7.143646-9.852753-13.585999-.135757-1.448761-.190582-3.020263 1.232178-3.973388.462417.057098.952697-.021668 1.070572.15216 5.286804 7.795075 11.861862 5.355805 18.484466 2.330902 12.782807-5.838531 25.690994-11.044921 40.176331-10.531189 8.857269.314148 16.661026 2.874665 23.241668 9.532624z"/><path d="m276.915833 61.944305c.516479 4.144707 2.541748 6.164017 6.198486 7.328186 3.286743 1.046372 6.387604 2.838448 9.369263 4.635437 2.948852 1.777207 4.992126 4.450104 5.418975 8.008797.269593 2.247765-.167328 4.412033-2.267212 5.699509-2.18338 1.338653-3.773742-.146988-5.306396-1.460236-2.985901-2.558471-5.641418-5.566749-9.248322-7.206154-.48767.523201-.858734.732102-.898407.991646-.925079 6.054436-3.467407 10.779434-9.997222 12.231926-8.404389 1.869461-16.75557 2.012795-23.933075-3.395508-6.812912-5.13359-5.358262-15.786903 2.38092-20.186226 4.817169-2.738311 10.107025-3.110656 15.496185-2.918411 2.292816.08178 4.648438-.062492 4.47403-3.208202-.667877-12.045132 3.05487-21.107849 16.935608-23.462113-2.914307-3.35923-5.882233-3.53392-8.819458-3.904289-2.182312-.275169-5.415192.256691-5.232392-3.11817.194855-3.597389 3.545075-2.10668 5.563782-2.284958 6.658966-.588068 12.926483.767464 18.560272 4.526827 3.343689 2.23119 5.684052 5.148697 5.975525 9.317219.306458 4.382946-2.371246 6.328304-6.272339 4.262955-3.179687-1.683376-6.347564-2.785481-9.963836-2.728516-6.651001.104756-9.386444 2.785233-9.285919 9.536175.034484 2.315834.468689 4.62571.851532 7.334106m-8.970978 20.541176c1.74768-2.754493 3.744354-6.158447-.353058-7.906891-5.302979-2.262901-11.071289-2.035179-16.443283.568879-1.887284.914856-3.172669 2.465881-2.993103 4.758377.163727 2.090301 1.514053 3.379478 3.37883 3.877189 5.341186 1.425568 10.710144 2.367684 16.410614-1.297554z"/><path d="m28.939369 405.302612c-5.348392-1.137512-5.044214-5.130554-4.825794-8.72464.217152-3.573242 2.271574-6.513336 4.300791-9.410736 7.295763-10.417053 12.214601-22.02127 16.961294-33.565277-1.506676-1.879883-3.010212-.733673-4.37899-.637848-6.795834.475647-12.418835-1.75589-16.709961-7.115112-1.064043-1.328918-2.148808-2.713074-.445154-4.343567 1.476438-1.413055 2.686596-.575592 3.923681.436707 2.100487 1.718811 4.547165 2.777954 7.162613 3.383361 9.946857 2.302338 14.302254-.367553 16.34235-9.943969 1.324493-6.217285.8158-7.079224-6.589245-11.132996-.048012-2.257233 1.726162-2.762268 3.31282-2.988617 4.909211-.700409 9.702778.068238 13.917935 2.652161 3.118511 1.911651 4.110164 4.814697 1.446476 7.996673-2.375477 2.837677-3.838787 6.07306-5.168698 10.125428 4.27285-.565491 7.502667-2.120728 10.602047-4.004456 2.934334-1.783447 6.022072-2.890381 9.489838-2.137665 2.1651.46991 4.335213 1.234589 4.782364 3.760712.494484 2.793549-1.366211 4.377167-3.611893 5.32196-5.083458 2.138703-10.463142 3.5831-15.881202 4.132752-6.773587.687134-10.330578 3.70639-12.575329 10.308472-4.439305 13.056518-9.862965 25.781585-15.003399 38.594024-1.27108 3.168152-2.289299 6.813904-7.052544 7.292633z"/><path d="m176.906799 69.704384c-8.134109 14.339149-20.87825 20.921097-36.18721 23.462799-1.601578.2659-3.478317.50576-4.025085-1.790192-.628433-2.639007 1.502472-3.01625 3.167267-3.589592 10.301559-3.547714 19.612487-8.493477 25.113006-18.469383 4.323044-7.840427 5.934815-16.187916 3.495301-25.006775-2.19719-7.942848-8.336655-10.80841-15.736237-7.226631-5.267258 2.549633-9.979385 5.959427-14.152329 10.104462-3.040878 3.020523-6.582626 3.924301-10.427246 1.672985-3.995781-2.339821-6.399398-5.803616-6.228454-10.604897.051605-1.449478.334274-3.207802 2.069328-3.627476 1.747238-.422626 2.777519.721241 3.224167 2.35941.942863 3.458187 3.271324 2.69059 5.520195 1.722618 5.495972-2.365601 10.832321-5.156014 16.447342-7.180803 16.265259-5.865269 29.603531 2.378568 31.515823 19.50033.711701 6.372116-.721435 12.559234-3.795868 18.673145z"/><path d="m226.025925 54.020424c3.70198-5.747532 6.921692-11.34557 9.482742-17.918633-3.002686-.283851-5.721512-.457473-8.415863-.815357-3.920059-.520702-7.405243-1.977691-9.732712-5.373028-.902588-1.316707-2.254272-2.750896-.660278-4.430372 1.444885-1.522375 2.908111-1.051655 4.414169.100805 4.291428 3.283869 9.087341 3.486529 14.236069 2.579405 3.185623-.561258 5.189789-1.895227 5.907776-5.077436.218429-.968142.626587-1.892353.926559-2.843405 2.49643-7.915261 2.403626-8.214496-3.937042-12.6771.250946-2.35551 2.042206-2.668471 3.896652-2.855906 3.621613-.366046 6.942291.664646 10.016556 2.441974 4.273468 2.470631 4.794189 4.8255 1.986145 8.844584-1.707504 2.443939-3.08728 5.010406-4.219467 8.130859 3.956009-.303654 6.478012-3.523569 10.075973-3.425337 2.733368.074627 6.129792-.80567 7.076538 2.940239.975922 3.861353-1.993072 5.349669-4.94992 6.269159-4.119843 1.281153-8.288437 2.524329-12.526718 3.267165-3.188279.558799-4.925217 2.079177-6.143906 4.983547-4.764084 11.353649-9.989044 22.501018-16.166275 33.162838-1.858337 3.207458-3.922775 7.943695-8.508987 5.51638-4.304581-2.278259-2.522187-7.06662-1.293946-10.792671 1.549164-4.699688 5.788895-7.646462 8.535935-12.02771z"/><path d="m85.254494 407.108215c-5.913964-.675872-11.412697-1.142761-16.541535-3.277923-9.669735-4.025574-12.791805-15.361939-6.589229-23.662232 1.030357-1.378845 1.988949-2.731933 4.063602-1.654571 2.044312 1.061584 1.611809 2.432739.936073 4.170013-3.231769 8.308624-.419158 13.048767 8.514382 13.901398 6.119041.583923 12.289352.765869 18.379654-.643829 2.778404-.643097 5.601219-.738099 8.425903-.22992 2.931458.527405 4.97097 2.113464 5.236656 5.173798.273873 3.154541-2.141617 4.34787-4.600158 5.049164-5.681404 1.620605-11.530114 1.371093-17.825348 1.174102z"/><path d="m134.394104 21.283714c2.770233-1.800834 5.26886-3.371254 8.078079-5.136888-2.821258-2.410187-5.374176-4.455949-7.756698-6.683939-1.177643-1.10126-2.529053-2.451417-1.067749-4.292932 1.395813-1.758959 2.80899-1.018872 4.361999-.07143 7.16687 4.3723 14.837937 5.653735 22.956116 3.28911 3.513824-1.02349 6.615524-.28562 9.424408 1.774907 1.804092 1.323437 3.078476 3.161168 2.543091 5.575929-.522553 2.35691-2.615097 3.038772-4.575653 3.244166-3.962525.415125-7.969086.389647-11.943161.718941-6.549546.542696-12.608399 2.757036-18.579636 5.419243-3.486267 1.554304-5.237595.441978-3.440796-3.837107z"/><path d="m92.895645 351.736359c3.654801-.014099 6.814537.295471 9.530541 2.129394 1.701606 1.148956 3.016456 2.751282 2.378128 5.037781-.643814 2.306091-2.648476 3.230835-4.65622 2.940247-7.980949-1.155121-13.978294 3.110809-20.215797 6.892303-1.543778.935913-3.124993 3.313934-5.124138 1.108673-2.305946-2.543671.543411-3.734863 1.884392-5.171173 1.329078-1.423645 2.822662-2.693726 4.642326-4.405823-3.382431-.200073-6.076279.110626-8.772194.898316-1.758667.513824-4.039398 1.969421-4.931419-1.084015-.842819-2.885041 1.817451-3.185517 3.492904-3.88736 6.804383-2.850311 13.930787-4.296173 21.771477-4.458343z"/></svg>