<svg enable-background="new 0 0 960 448" viewBox="0 0 960 448" xmlns="http://www.w3.org/2000/svg"><path d="m961 119.536819c-5.639404 4.99125-12.319397 4.291413-18.678833 3.549859-18.974487-2.212594-37.862061-5.25425-56.938904-6.482933-23.268493-1.49865-46.573913-2.024056-69.870971-.72641-7.97168.444015-15.972596.068512-23.933472 1.184684-3.105286.435379-4.089173 1.425232-4.399719 4.550026-2.604554 26.201477-3.459107 52.451371-2.978516 78.769928.084412 4.619202 2.162659 8.352402 3.972412 12.198944 12.519653 26.609284 14.937988 54.502121 11.352112 83.328507-7.771851 62.477234-41.27417 107.535034-94.095703 139.566101-7.529358 4.565796-15.335266 8.675476-23.220764 13.260376-6.228821.264099-12.249939.264099-18.73938.264099.121093-3.73999 3.612915-4.568787 6.076111-6.301422 19.407836-13.65152 37.780029-28.474915 53.494567-46.383026 17.531922-19.979248 34.170899-54.019959 37.061829-76.227478-6.95929 3.614776-13.841248 6.96051-21.449524 8.127624-25.728088 3.946594-45.844482-5.641296-60.362976-26.572632-20.891846-30.119873-18.373291-77.301132 5.532471-105.037674 15.671936-18.183212 35.743408-25.512481 59.551208-20.820129 5.279236 1.040482 10.252503 3.633331 16.039063 5.758331.413513-8.18486.999267-15.907959 1.146789-23.639404.203369-10.662155-.028198-21.33226.140992-31.99556.068969-4.342476-1.448731-5.964248-5.930665-5.459236-41.411926 4.66626-82.077148 12.957283-122.079895 24.618279-11.237365 3.275757-22.079284 7.499954-32.446899 12.856735-11.215881 5.795029-21.981995 5.666611-32.576782-1.345963-16.949646-11.218795-28.84491-26.479324-36.104737-45.378257-1.648742-4.292008-2.138916-8.684212 1.353943-12.49778 2.375183.252464 3.058838 2.190452 4.220581 3.487648 12.368409 13.810219 27.16626 21.830238 46.323365 21.738495 17.422607-.083435 34.430481-2.943817 51.498169-5.60447 26.918884-4.196319 53.758911-8.891067 80.876403-11.746757 13.551026-1.427017 27.052796-3.316406 40.588013-4.901451 2.249146-.263397 3.32367-1.224671 3.327026-3.456261.024353-16.145882.277894-32.30793-3.565612-48.167801-2.932373-12.099933-10.31189-20.22666-21.852112-24.781395-6.237488-2.461832-12.697876-3.925953-19.287537-4.935035-1.472961-.22556-3.019531-.167178-4.420959-1.99136 2.482422-4.696254 6.586548-7.902395 11.789978-8.474658 23.37323-2.570538 46.165649.486551 68.076294 8.919263 10.174865 3.915954 14.253784 10.062666 13.855468 18.052751-.181762 3.645142-1.894287 6.707138-3.570251 9.756226-8.30072 15.101501-10.534851 31.740494-12.396423 48.477257-.087525.786636.135559 1.607833.239746 2.677429 7.31842.591919 14.363403-.907181 21.436462-1.326782 15.437988-.915841 30.841309-2.425888 46.254761-3.740601 13.63446-1.162964 27.093933-3.109383 39.697143-8.919083 6.70398-3.090316 13.660584-4.165855 20.901917-2.105476 16.578186 4.717026 31.802917 11.801773 43.823547 25.14431.270264 4.219887.270264 8.244431.270264 12.732162m-202.344299 157.5887c2.533142-7.663758 3.225036-15.576019 3.289428-23.591614.125855-15.671463-.242858-31.285645-6.093505-46.144089-5.718812-14.52388-15.217347-20.473663-30.626221-19.109527-10.446045.924789-18.436279 6.49031-24.608887 14.545715-11.636963 15.186478-13.857849 32.807251-11.795227 51.12497 1.500244 13.323684 6.202271 25.471267 16.034363 35.150436 14.776428 14.54657 45.044678 15.141968 53.800049-11.975891z"/><path d="m242.324585 84.143913c33.928833-7.072311 67.677704-13.018577 100.675964-22.348652 6.400544-1.809715 12.816742-3.580642 19.151062-5.603275 6.311127-2.015232 12.421692-1.620315 18.576447.584057 7.728912 2.768185 14.930481 6.584484 21.870697 10.895016 3.272095 2.03228 6.025848 4.764526 8.265045 7.911735 7.647217 10.748123 2.580872 22.202149-10.520599 23.57254-3.452332.361107-7.086121.478051-10.46341-.180717-19.163299-3.737946-38.026031-1.344742-56.170166 4.418999-65.550873 20.823181-109.326996 63.949173-128.523346 130.306396-9.244339 31.955475-7.468383 63.623535 10.268006 93.006989 13.12944 21.751281 32.904358 35.458923 55.86383 44.978821 16.722901 6.933929 34.055298 11.374389 52.368958 11.193237 3.985077-.039429 8.028686.699463 11.51355 2.856811 9.42694 5.835816 16.914001 13.608277 21.452941 23.748444 4.859864 10.856934-1.213897 20.799591-13.174346 21.810211-13.606598 1.149719-26.849335-1.255615-39.894227-4.932495-34.983184-9.860382-67.174209-24.871216-92.727859-51.562408-20.44519-21.355378-32.369659-46.906556-36.228729-76.26236-5.559098-42.288025 6.867904-79.955353 29.531021-114.915894 23.485153-36.228622 55.009796-63.527137 93.400543-83.060936 3.968872-2.019432 7.818543-4.273193 11.605896-6.824134-8.769043.376213-17.279816 2.185531-25.79068 3.878967-53.97081 10.738815-106.645477 26.03482-158.098541 45.497589-15.885742 6.008987-31.608666 12.533066-46.319634 21.115799-12.462089 7.270691-24.370723 6.245819-35.392398-2.300079-17.407784-13.497513-28.889534-31.159577-34.308089-52.556794-1.855252-7.326179-.390446-14.097519 5.077082-19.713218 2.088589 1.1464 2.23073 3.134811 2.897766 4.777153 3.375303 8.310463 8.331993 15.408943 14.965736 21.545418 8.586949 7.943244 18.626217 9.65586 29.687737 8.322288 21.838737-2.632851 43.05703-8.296303 64.450081-13.111252 38.596153-8.686882 76.824425-18.953544 115.989662-27.048256z"/><path d="m359.952209 174.998535c15.31836 9.960159 29.183594 21.109894 40.664521 34.925751 7.749634 9.325668 13.149475 19.638672 10.726318 32.463501-.795166 4.20845-2.531708 7.943649-5.26477 11.156219-6.4245 7.551575-15.574555 6.750306-20.387238-1.816833-7.090546-12.621948-12.377808-26.175568-20.113708-38.484146-8.884278-14.135742-18.621216-27.58757-29.979645-39.846863-1.453675-1.56897-4.237-3.117569-1.392334-5.664002 2.480499-2.220413 4.166809-6.519256 8.940399-3.262802 5.35733 3.654663 10.991974 6.902848 16.806457 10.529175z"/><path d="m421.540039 147.394516c10.881165 6.578201 20.849426 13.804657 30.168549 21.901245 10.857574 9.433197 18.539978 20.491257 17.615448 35.754501-.296357 4.892731-1.374237 9.594986-4.272766 13.623414-5.067841 7.043426-12.635254 7.236862-17.865876.364837-4.852905-6.375778-8.364502-13.604904-12.311859-20.542938-11.649322-20.475235-26.964905-37.938828-43.8927-54.12471-1.955658-1.869965-5.319824-3.314957-2.375519-7.253739 2.653443-3.549743 4.91452-4.993347 9.434632-2.626846 7.815826 4.091965 15.7117 8.011078 23.500091 12.904236z"/></svg>