<svg enable-background="new 0 0 1096 354" viewBox="0 0 1096 354" xmlns="http://www.w3.org/2000/svg"><path d="m1 139c0-45.993271 0-91.986538 0-137.984855 365.273163-.005048 730.546326-.005048 1095.909668-.005048v353.873723c-365.242981 0-730.576324 0-1095.909662.004486-.000006-67.652253-.000006-135.309037.441048-203.406739 8.743802-.946319 17.045242-1.862289 25.349515-1.888733 45.162831-.143859 90.326382-.05577 135.489628-.101928 2.514816-.002579 5.029144-.491242 7.543717-.753647.282318-.688385.564651-1.376755.846984-2.065125-9.286148-8.033676-18.572296-16.067352-27.499221-23.790245-5.824662 5.583107-11.091126 10.668953-16.412888 15.696267-.921356.870376-2.065842 2.114044-3.125885 2.132797-9.434837.166931-18.873856.097152-28.29956.097152 0-11.825454 0-23.067199 0-34.628654 2.097274 0 3.90065.000053 5.704025-.000015 18.665275-.00074 37.330704.030685 55.995529-.061722 1.537155-.007614 3.07016-.856033 4.605087-1.313782-.548904-1.449928-.702484-3.307541-1.710006-4.284515-7.267746-7.047531-14.708405-13.916748-22.386872-21.116867-5.030044 5.429886-9.616661 10.478103-14.33477 15.400284-1.066811 1.112953-2.569351 2.505668-3.908112 2.545929-7.947486.23896-15.905799.117988-24.017524.117988 0-10.647987 0-20.890243 0-31.457802 12.372894 0 24.504799.053994 36.636001-.015281 11.993363-.068482 24.010666.308876 36.224945-1.108651-7.228286-10.216964-16.408569-17.706298-25.616928-25.878158-5.130111 5.465229-9.857437 10.604145-14.725097 15.606502-1.065598 1.095093-2.615998 2.394776-3.969277 2.424866-9.450302.210133-18.907493.111134-28.575844.111134 0-9.833371 0-19.278355 0-28.635508 4.622574-1.812681 9.319077-3.408302 13.755722-5.543804 1.33384-.642021 2.571282-2.753859 2.650368-4.255692.047234-.896848-2.123329-2.518135-3.49797-2.787346-12.464371-2.441046-24.973122-4.655524-37.109688-6.870773v48.338896c-21.617123-1.551155-43.689097 2.297417-65.760661-2.98011.869857 4.438083 1.660904 8.474079 2.383245 12.159523h63.866292v29.84935c-19.13987 0-37.990761 0-57.023253 0 .53784 3.117515 1.20232 6.969078 1.797173 10.417061h55.213377v34.832931c-23.727543-.899551-47.128324-1.786728-70.529106-2.673889m599.499634 146.525208h33.906128c.47821.674804.656616.809417.65863.946624.041199 2.832276.01648 5.666138.09729 8.497071.155457 5.448242 1.994934 7.229126 7.419251 6.806396 3.806579-.296692 7.618774-.788055 11.366272-1.513641 5.931274-1.148468 7.121154-2.870453 7.056518-8.826905-.296142-27.315307-.341003-54.635925-.970825-81.943237-.160095-6.942032.540894-12.314606 8.090942-14.578934 1.355652-.406601 2.542725-1.574035 3.651368-2.564956 2.395568-2.141068 2.849914-4.870926.337951-6.891556-7.847229-6.312286-15.93457-12.326126-23.681152-18.265732-4.879151 4.783051-9.126282 8.553604-12.873657 12.76854-2.22284 2.500137-4.521119 3.261596-7.744019 3.257141-60.165771-.083023-120.331665-.025635-180.497162-.167191-2.95459-.006943-6.127807-1.119278-8.81662-2.475433-8.081695-4.07605-15.973938-8.527802-23.587799-12.642609 0 8.585251-.04837 16.562851.009247 24.539704.161072 22.307678.578674 44.616043.474121 66.92218-.063141 13.474304-.964722 26.943268-1.384033 40.417907-.248596 7.98877 1.043701 9.242005 9.170471 9.002503 3.317413-.097809 6.62442-.57489 9.934143-.899841 4.624665-.45401 6.744751-3.116517 6.733673-7.662079-.011657-4.791748-.002594-9.583588-.002594-14.542969h83.143006c0 3.648468-.074951 7.121185.013794 10.589722.280883 10.977081.042236 22.009552 1.112182 32.911865.979065 9.975769 6.436951 15.068329 16.220825 16.897369 5.051392.944367 10.212464 1.792786 15.328675 1.82077 37.127807.203003 74.259216.436066 111.384033.086915 11.258789-.105896 22.546936-1.681061 33.730896-3.236115 5.634277-.783417 9.106018-5.3992 9.291077-10.300323.202392-5.361573-2.893311-8.233735-7.640076-9.707367-3.557068-1.104248-5.010803-3.351349-4.616821-7.11261 1.005432-9.598542 1.79248-19.219788 2.763916-28.822144 1.13385-11.208343 2.370666-22.406311 3.544922-33.440674-3.630738-1.243682-4.967041.288941-5.880555 3.106964-1.99707 6.160279-4.107727 12.290986-6.406799 18.344574-5.238892 13.794129-10.487305 27.587922-16.014954 41.267426-1.895019 4.689636-5.818298 7.013519-11.075073 7.071747-23.793213.263397-47.5849.802948-71.378113.862518-13.309997.033325-26.623046-.640991-39.932006-1.079803-2.829346-.093293-6.338013-.236145-6.419678-4.001709-.255371-11.76236-.093811-23.533783-.093811-35.442139 17.915954 0 35.246155 0 53.576416.000031m-377.98082-6.025666c.000092 11.998444.029602 23.996948-.012222 35.99527-.020645 5.921936-.660507 6.683289-6.674957 6.447601-8.148148-.319305-16.291535-.880493-24.420319-1.542511-10.071808-.820282-20.126556-1.849945-30.010086-2.772491-1.680344 3.701538-.106735 4.721496 2.891098 5.514557 10.27211 2.717315 20.457184 5.761535 30.699798 8.593017 9.785813 2.705262 15.696595 8.395874 15.246445 19.200501-.010086.242309.375595.501098.899887 1.155823 5.238861-1.347809 10.744828-2.544983 16.114701-4.187134 15.87474-4.854523 20.066024-10.789459 19.711074-27.191193-.443344-20.486908-.844757-40.974731-1.229827-61.462799-.080765-4.29776-.011719-8.598328-.011719-13.150848h43.673828c0 7.003662.047424 13.795074-.021454 20.585327-.031067 3.061371.79364 5.441101 4.300934 5.401825 5.151214-.057587 10.299286-.394074 15.4487-.611237 4.556518-.192138 5.64862-2.796509 5.570556-6.999603-.482849-25.989807-.778228-51.983139-1.123687-77.975464-.010041-.754394.115936-1.510574.197296-2.493256 11.370453 0 22.350494.044678 33.329132-.05722 1.354217-.012588 3.481079-.470978 3.849152-1.325836.435241-1.011032-.328766-2.908402-1.128998-4.021897-5.627991-7.830841-11.399231-15.5587-17.532135-23.871734-4.648468 6.183792-8.945679 12.080215-13.476074 17.791672-1.041443 1.312957-2.883667 1.990692-5.26709 3.559585 0-12.485153.240234-23.306656-.087921-34.110901-.20456-6.734527-.540833-13.061813 7.898132-15.065681.294342-.069893.530578-.390412.790588-.598259 4.31308-3.447609 4.505646-6.149635.054657-9.585831-6.304474-4.86708-12.886963-9.374054-19.314544-14.008926-.862702.651085-1.538758.945801-1.89441 1.461471-7.401153 10.731217-17.90744 12.704453-30.048278 11.441239-7.134217-.742295-14.408814-.135483-21.825043-.135483 11.002441-12.88456 21.794128-25.057747 32.006347-37.699043 4.383881-5.426621 8.802247-9.675721 16.199128-9.849861 2.078094-.04892 4.183288-.996758 6.186218-1.766114 4.323822-1.660812 5.010254-4.145515 1.424805-6.816417-9.846009-7.334576-19.944611-14.330079-30.145142-21.603726-3.919403 4.843353-7.430511 9.274578-11.062744 13.60416-.882538 1.05193-2.15387 2.512101-3.263397 2.527104-13.053513.176479-26.11026.113342-39.813004.113342 3.827118-6.180279 7.522904-11.498142 10.520722-17.184009 2.661499-5.048001 5.730148-8.689331 12.021377-8.318873 1.577149.092871 3.370316-.445898 4.770661-1.223207 1.460708-.810826 3.503128-2.21452 3.56314-3.443423.059266-1.213277-1.80458-3.164146-3.235046-3.703676-10.516235-3.966432-21.135391-7.659964-32.095047-11.572583-13.552551 40.670209-33.690109 77.307565-59.321838 111.837609.964004.594322 1.68399 1.020684 2.385376 1.475708.66484.43132 1.310196.892693 2.986328 2.041413 15.333099-17.66684 30.956238-34.961701 45.657806-53.007348 4.850372-5.953674 9.196945-9.098972 17.17569-8.578971 12.243164.797916 24.576675.209655 37.550705.209655-.822235 2.488106-1.274567 4.410019-2.070435 6.177262-6.129318 13.610763-12.53006 27.104065-18.391876 40.828026-2.114197 4.949836-5.057388 6.230194-10.20285 6.074554-18.88385-.57122-37.782593-.650642-56.930191-.918739.575042 3.061912 1.295669 6.899017 1.911346 10.17733h45.233231v49.647094c-21.229874 0-42.101349 0-63.057526 0 .696472 3.479416 1.404617 7.017075 2.014526 10.064042h61.106171v51.479736c-20.353958 0-40.41246 0-60.728897 0 .560196 3.214523 1.226623 7.038559 1.816574 10.423691h59.189667c0 10.701584 0 21.363601.000961 33.02568m371.981247-214.341285c-14.772278 0-29.544556 0-44.333435 0 0-10.561074 0-20.614285 0-30.98153h5.230591c31.325134 0 62.650268.000042 93.975403-.000026 7.831298-.000019 15.664611.091114 23.491943-.084351 1.420898-.031853 2.817261-1.155731 4.224915-1.775513-.690857-1.22501-1.109559-2.769596-2.114624-3.625803-10.634644-9.059599-21.362549-18.009612-31.919678-26.86803-.709778.33108-1.076477.395088-1.279114.612205-6.362305 6.81503-12.593262 13.759037-19.14325 20.387823-1.52832 1.546719-4.145874 2.909394-6.238952 2.876397-68.031494-1.072543-136.150452 3.014179-204.522522-2.862471.737091 4.085266 1.542114 8.546961 2.209778 12.247442h108.629944v29.848248c-35.209656 0-70.136811 0-105.575989 0 0-6.120789 0-12.029087 0-18.175686-2.129639.120331-3.732788.210914-5.089081.287548-1.564026 6.316894-2.715546 12.361961-4.569244 18.183441-4.835755 15.186462-15.553376 25.607613-28.314423 34.394989-1.920197 1.322281-4.082581 4.009682-4.080811 6.063843.004212 4.909233.566346 10.038704 2.107209 14.679504 3.119507 9.395478 9.447357 11.103134 17.227081 5.103722 10.081818-7.774666 15.560272-18.471596 18.463867-30.560639 1.65271-6.880966 2.712616-13.904319 4.012238-20.720832h106.101257c0 2.161094.01886 3.980041-.00293 5.798492-.333252 27.806503-.639526 55.613419-1.051452 83.418777-.049256 3.324723.221801 6.480607 4.251526 6.472214 5.964233-.012451 11.977234-.341293 17.872863-1.199173 3.937439-.572952 6.283142-3.234573 6.214112-7.728332-.235474-15.321915-.340576-30.646317-.411133-45.970162-.062622-13.603828-.013123-27.208175-.013123-40.764702h122.819947c-3.666382 12.662575-7.214966 24.753563-10.611756 36.887078-.367004 1.310997.146057 2.868385.250916 4.311462 1.393432-.468811 3.168213-.544395 4.120483-1.468056 8.351563-8.100776 16.646057-16.265838 24.752258-24.611129 2.549256-2.624428 4.982117-4.447243 8.901246-4.53077 4.292236-.091476 8.641113-.749588 12.826294-1.745231 4.371704-1.040024 5.539245-4.446923 2.22644-7.30539-10.644409-9.184486-21.653259-17.94659-33.095337-27.342777-4.714294 5.036202-8.732666 9.024853-12.374939 13.331558-2.262024 2.674671-4.743103 3.513707-8.186218 3.490712-21.993286-.146912-43.987976-.074852-66.9823-.074852m-449.133545 238.865669c-.109512-33.660095-.117203-67.321106-.418365-100.979477-.057145-6.38649-.116715-11.949829 7.021103-15.041077 3.478088-1.506271 4.083831-4.942459.770248-7.650223-6.53363-5.339096-13.251053-10.453277-19.842407-15.621215-3.092636 2.875549-5.960694 5.198059-8.407395 7.90187-3.26773 3.6111-7.06147 4.694336-11.900444 4.628647-18.826843-.255462-37.659828-.030899-56.488758-.192016-2.505657-.021439-5.196743-.837494-7.466408-1.962494-8.420803-4.173966-16.701236-8.631134-24.963434-12.94487 0 12.859787.176209 25.326996-.031147 37.787841-.806759 48.481644-1.739862 96.961167-2.612419 145.441758-.105747 5.875518.767342 6.747497 6.59214 6.270233 4.633051-.379669 9.236468-1.193329 13.872916-1.438507 4.502471-.238098 5.782264-2.274353 5.73386-6.693695-.25552-23.32721-.207001-46.657746-.247899-69.987183-.002521-1.436768.132248-2.87384.201191-4.271301h73.816475v44.177948c0 8.997589-.004554 9.080993-9.260223 8.57669-13.425285-.731567-26.843231-1.597869-40.516129-2.421875v4.985352c4.669487 1.106812 9.277413 2.406586 13.965706 3.269836 12.099503 2.227906 22.23626 6.549286 23.31958 21.92688 9.421067-2.700439 18.242394-4.943481 26.859825-7.80133 5.569809-1.847107 9.434433-6.016541 9.75467-12.097351.436599-8.290619.216613-16.615784.247314-25.864441m936.082337-49.961487c.669067-5.904663 1.338134-11.809311 2.015014-17.783005-2.088257-.53566-3.650635-.936432-5.118408-1.312912-7.081665 21.554596-14.065918 42.812988-21.273926 64.752259-10.686279-9.665192-18.741943-19.500855-23.387085-31.740662-11.892578-31.336578-15.32251-63.825272-12.760864-97.065231.102417-1.329667 1.276245-2.81427 2.350098-3.784897 2.699463-2.439759 5.888794-4.386643 8.326538-7.041031.882568-.960922.946167-4.230652.091186-4.987747-7.767822-6.879074-15.821655-13.435166-23.957947-20.224427-3.963562 5.060608-7.557983 9.237442-10.652282 13.756699-1.82666 2.667984-3.838257 3.437271-6.970764 3.4319-55.97992-.095947-111.960144-.050385-167.940247-.101944-5.149719-.004745-10.304016-.387161-15.447327-.727585-6.213195-.411239-12.416931-.964798-19.066894-1.491806.846191 4.579209 1.583618 8.569504 2.189148 11.846146h206.730102c-.963501 28.603195.509461 57.111709 6.424195 85.289108 6.388977 30.436997 19.613037 57.096939 43.357299 77.843857 7.78711 6.804108 15.936646 13.201568 26.298584 15.661285 8.553223 2.030335 15.673218-4.848602 13.269654-13.267334-1.078491-3.776977-3.851319-7.263366-6.474976-10.355835-3.109131-3.664734-4.585693-7.271301-3.940063-12.233154 2.146484-16.496582 3.884643-33.046326 5.938965-50.463684m-197.358094 18.522156c3.45343-3.017182 6.906922-6.034333 10.464173-9.142212 17.850586 16.190765 34.222046 33.188263 48.712646 51.959198 2.948609 3.819641 5.691651 7.840912 8.984985 11.340637 4.174622 4.436279 8.899537 3.429901 10.578187-2.422028 3.448303-12.021606 3.516662-23.925964-5.256287-33.941894-5.351441-6.109528-11.320923-11.776795-17.560547-16.986694-10.060791-8.400483-20.573608-16.259552-30.687256-24.184098 12.436463-15.174804 24.854248-30.138275 37.030457-45.295791 3.79364-4.722489 7.011413-9.778412 14.339477-7.544403.724304.220825 1.756836.041763 2.438904-.33107 1.656067-.905167 3.18988-2.033966 4.772949-3.072632-1.046936-1.541107-1.742126-3.735184-3.197082-4.518875-10.597718-5.708542-21.348267-11.133362-31.558228-16.39415-6.765503 11.565933-12.702942 22.735611-19.622864 33.259247-6.928222 10.536133-14.838012 20.42688-22.508789 30.86058-24.958496-18.003494-50.798706-33.183044-78.188293-46.431427-1.121521 1.763001-2.138733 3.362-3.296753 5.182358 23.057922 18.231125 45.844116 36.247345 68.658386 54.285828-34.085754 37.210891-74.28717 65.059799-119.537231 86.206253 1.183227 2.214111 2.091186 3.913055 2.998718 5.611267 45.6297-14.347748 85.876221-37.373841 122.434448-68.440094m4.409302-215.425312c-15.516907 0-31.033874 0-47.290588 0 3.143066-5.36113 6.079834-9.616196 8.243103-14.233609 3.406982-7.272068 7.687805-13.003219 16.642151-13.033079.622375-.002075 1.36206-.294958 1.843689-.696575 1.785522-1.488993 3.485717-3.080229 5.217956-4.633047-1.714783-1.514448-3.197876-3.834728-5.183899-4.40572-9.251648-2.659837-18.63385-4.870595-27.987671-7.167338-3.478698-.854167-7.007446-1.504648-10.325744-2.208225-16.806519 57.6066-44.392395 108.564211-84.148621 152.788699.948486 1.103378 1.449463 1.761566 2.029785 2.340149.583435.581604 1.24585 1.083923 1.924988 1.664886.832825-.651535 1.623047-1.250397 2.392639-1.874664 32.963501-26.739349 59.212891-59.205422 81.082581-95.36261 1.941955-3.210648 3.949585-4.444397 7.818664-4.436577 70.816834.143082 141.634033.105255 212.451111.100701 1.831909-.000123 3.697998.143447 5.483887-.159096 1.194214-.202324 3.085205-.931435 3.220215-1.683914.214843-1.197503-.414551-2.97585-1.318726-3.868557-3.430542-3.386944-7.064819-6.575001-10.715332-9.730378-6.998901-6.049728-14.061279-12.026195-21.253296-18.166309-6.774475 7.474476-13.239197 14.414116-19.452087 21.572323-2.02771 2.336197-4.059693 3.279556-7.200806 3.2696-37.491028-.118805-74.982544-.076657-113.473999-.07666m120.173157 33.68098c-3.985779-2.885551-7.971558-5.77111-12.272522-8.884864-6.193665 6.540199-12.115723 12.610801-17.803711 18.893257-2.16388 2.390037-4.373657 3.448135-7.687073 3.378433-47.182434-.992539-94.432495 2.03569-141.855041-2.277802.480835 3.942788.975891 8.001885 1.512756 12.40419 7.502808-.405799 14.628662-1.083862 21.758179-1.125869 29.994812-.17672 59.990844-.183541 89.986389-.213799 27.664245-.0279 55.328613.027718 82.99237-.084923 1.799073-.007324 3.59375-1.139839 5.390381-1.748977-.933716-1.619797-1.521118-3.644737-2.860595-4.789818-6.071595-5.190506-12.355469-10.132675-19.161133-15.549828m-441.086548 52.202736c-2.40802-.296417-4.81604-.592819-7.393799-.910125.924805 4.513778 1.7547 8.564102 2.580444 12.594146 8.718079-.529571 17.154053-1.425674 25.595826-1.484161 27.306701-.189163 54.615539-.068756 81.923523-.075592 1.496948-.000382 3.039856.144729 4.480774-.159622 2.620727-.553589 3.487243-2.403168 1.456298-4.223862-8.968811-8.040299-18.118835-15.87851-27.385376-23.948494-5.609558 6.09034-10.285522 11.509575-15.379882 16.501961-1.658509 1.625274-4.370728 2.900696-6.667298 3.016098-7.474182.375503-14.983093.298874-22.47113.10437-11.958557-.310593-23.911072-.855621-36.73938-1.414719m-119.086609 1.450119c-14.0513-.622299-28.1026-1.244583-42.214386-1.869537.995209 3.638245 2.06897 7.563644 2.885651 10.549225 27.832824 0 54.947784.001449 82.062744-.001068 6.493713-.000595 12.989136.059097 19.479492-.092667 1.113342-.026031 2.569641-.727646 3.170227-1.598206.361328-.523818-.332397-2.290008-1.051758-2.966186-8.309967-7.811432-16.715606-15.521149-25.900207-24.000465-2.122406 2.586639-3.941254 4.360496-5.238434 6.457099-7.543518 12.192688-18.602326 15.826203-33.193329 13.521805m132.997253-29.947616c23.452942 0 46.905884.024307 70.358643-.038246 2.301636-.006142 4.601868-.545861 6.90271-.837914.224976-.663414.44989-1.326828.674866-1.990242-9.067566-8.055901-18.135132-16.111793-27.503357-24.434792-4.348328 5.386086-8.427551 10.184693-12.1969 15.215462-1.875915 2.503662-3.884826 3.518975-7.078125 3.422821-17.347473-.522362-34.702087-.812042-52.121215-1.183273.623779 2.865395 1.424987 6.545601 2.143493 9.846138 6.224976 0 12.022095 0 18.819885.000046m-119.100036-8.735146c-14.367615-.486275-28.735199-.972542-43.422638-1.469635.646942 3.320549 1.414368 7.259331 2.159912 11.085816 2.962891-.192131 5.274994-.459748 7.588684-.474053 25.624481-.158386 51.249207-.277229 76.873871-.407928 1.497589-.007637 3.05835.233207 4.474396-.11306 1.336487-.326798 2.93869-1.009774 3.606292-2.057251.367127-.576004-.661926-2.555832-1.555297-3.341034-8.213532-7.219361-16.535157-14.31572-25.037507-21.630432-3.789642 4.457695-7.407684 8.15184-10.350341 12.32254-3.388214 4.80217-7.485749 7.196548-14.337372 6.085037z" fill="#fefefe"/><path d="m1 139.460632c23.400782.426529 46.801563 1.313706 70.529106 2.213257 0-12.501968 0-23.728279 0-34.832931-18.396316 0-36.613113 0-55.213377 0-.594853-3.447983-1.259333-7.299546-1.797173-10.417061h57.023253c0-9.444405 0-19.552506 0-29.84935-21.087021 0-42.280733 0-63.866292 0-.722341-3.685444-1.513388-7.72144-2.383245-12.159523 22.071564 5.277527 44.143538 1.428955 65.760661 2.98011 0-16.320301 0-31.901144 0-48.338896 12.136566 2.215249 24.645317 4.429727 37.109688 6.870773 1.374641.269211 3.545204 1.890498 3.49797 2.787346-.079086 1.501833-1.316528 3.613671-2.650368 4.255692-4.436645 2.135502-9.133148 3.731123-13.755722 5.543804v28.635508c9.668351 0 19.125542.098999 28.575844-.111134 1.353279-.03009 2.903679-1.329773 3.969277-2.424866 4.86766-5.002357 9.594986-10.141273 14.725097-15.606502 9.208359 8.17186 18.388642 15.661194 25.616928 25.878158-12.214279 1.417527-24.231582 1.040169-36.224945 1.108651-12.131202.069275-24.263107.015281-36.636001.015281v31.457802c8.111725 0 16.070038.120972 24.017524-.117988 1.338761-.040261 2.841301-1.432976 3.908112-2.545929 4.718109-4.922181 9.304726-9.970398 14.33477-15.400284 7.678467 7.200119 15.119126 14.069336 22.386872 21.116867 1.007522.976974 1.161102 2.834587 1.710006 4.284515-1.534927.457749-3.067932 1.306168-4.605087 1.313782-18.664825.092407-37.330254.060982-55.995529.061722-1.803375.000068-3.606751.000015-5.704025.000015v34.628654c9.425704 0 18.864723.069779 28.29956-.097152 1.060043-.018753 2.204529-1.262421 3.125885-2.132797 5.321762-5.027314 10.588226-10.11316 16.412888-15.696267 8.926925 7.722893 18.213073 15.756569 27.499221 23.790245-.282333.68837-.564666 1.37674-.846984 2.065125-2.514573.262405-5.028901.751068-7.543717.753647-45.163246.046158-90.326797-.041931-135.489628.101928-8.304273.026444-16.605713.942414-25.349515 1.427491-.441054-3.713227-.441054-7.406143-.441054-11.559693z" fill="#060606"/><path d="m599.999634 285.525208c-17.830261-.000031-35.160462-.000031-53.076416-.000031 0 11.908356-.16156 23.679779.093811 35.442139.081665 3.765564 3.590332 3.908416 6.419678 4.001709 13.30896.438812 26.622009 1.113128 39.932006 1.079803 23.793213-.05957 47.5849-.599121 71.378113-.862518 5.256775-.058228 9.180054-2.382111 11.075073-7.071747 5.527649-13.679504 10.776062-27.473297 16.014954-41.267426 2.299072-6.053588 4.409729-12.184295 6.406799-18.344574.913514-2.818023 2.249817-4.350646 5.880555-3.106964-1.174256 11.034363-2.411072 22.232331-3.544922 33.440674-.971436 9.602356-1.758484 19.223602-2.763916 28.822144-.393982 3.761261 1.059753 6.008362 4.616821 7.11261 4.746765 1.473632 7.842468 4.345794 7.640076 9.707367-.185059 4.901123-3.6568 9.516906-9.291077 10.300323-11.18396 1.555054-22.472107 3.130219-33.730896 3.236115-37.124817.349151-74.256226.116088-111.384033-.086915-5.116211-.027984-10.277283-.876403-15.328675-1.82077-9.783874-1.82904-15.24176-6.9216-16.220825-16.897369-1.069946-10.902313-.831299-21.934784-1.112182-32.911865-.088745-3.468537-.013794-6.941254-.013794-10.589722-27.819336 0-55.236359 0-83.143006 0 0 4.959381-.009063 9.751221.002594 14.542969.011078 4.545562-2.109008 7.208069-6.733673 7.662079-3.309723.324951-6.61673.802032-9.934143.899841-8.12677.239502-9.419067-1.013733-9.170471-9.002503.419311-13.474639 1.320892-26.943603 1.384033-40.417907.104553-22.306137-.313049-44.614502-.474121-66.92218-.057617-7.976853-.009247-15.954453-.009247-24.539704 7.613861 4.114807 15.506104 8.566559 23.587799 12.642609 2.688813 1.356155 5.86203 2.46849 8.81662 2.475433 60.165497.141556 120.331391.084168 180.497162.167191 3.2229.004455 5.521179-.757004 7.744019-3.257141 3.747375-4.214936 7.994506-7.985489 12.873657-12.76854 7.746582 5.939606 15.833923 11.953446 23.681152 18.265732 2.511963 2.02063 2.057617 4.750488-.337951 6.891556-1.108643.990921-2.295716 2.158355-3.651368 2.564956-7.550048 2.264328-8.251037 7.636902-8.090942 14.578934.629822 27.307312.674683 54.62793.970825 81.943237.064636 5.956452-1.125244 7.678437-7.056518 8.826905-3.747498.725586-7.559693 1.216949-11.366272 1.513641-5.424317.42273-7.263794-1.358154-7.419251-6.806396-.08081-2.830933-.056091-5.664795-.09729-8.497071-.002014-.137207-.18042-.27182-.65863-.946624-11.042603 0-22.474366 0-34.406128 0m-53.152527-24.028992v15.008545h88.090027c0-13.252472 0-26.183457 0-39.215454-29.436218 0-58.656006 0-88.090027 0zm-104.109253 15.328277h80.009155c0-13.43515 0-26.471786 0-39.484314-27.76651 0-55.288635 0-82.899902 0 0 12.147751-.057282 23.964447.084686 35.778748.014923 1.240692 1.205048 2.467285 2.806061 3.705566m171.762329-85.295303c-22.405823 0-44.811706 0-67.29364 0v36.41066h87.59552c0-12.233856 0-24.252091 0-36.41069-6.664612 0-12.983337 0-20.30188.00003m-94.133423 36.622406c.873474-.801819 2.495423-1.592575 2.507447-2.40715.16687-11.291245.112854-22.585724.112854-34.044785-27.819123 0-55.223999 0-82.811585 0v36.452591c26.619202 0 52.914551 0 80.191284-.000656z" fill="#060606"/><path d="m222.518341 278.999512c-.000488-11.162049-.000488-21.824066-.000488-32.52565-19.70314 0-39.242356 0-59.189667 0-.589951-3.385132-1.256378-7.209168-1.816574-10.423691h60.728897c0-16.743683 0-34.151383 0-51.479736-20.14357 0-40.395325 0-61.106171 0-.609909-3.046967-1.318054-6.584626-2.014526-10.064042h63.057526c0-16.32286 0-33.034576 0-49.647094-14.928543 0-29.817856 0-45.233231 0-.615677-3.278313-1.336304-7.115418-1.911346-10.17733 19.147598.268097 38.046341.347519 56.930191.918739 5.145462.15564 8.088653-1.124718 10.20285-6.074554 5.861816-13.723961 12.262558-27.217263 18.391876-40.828026.795868-1.767243 1.2482-3.689156 2.070435-6.177262-12.97403 0-25.307541.588261-37.550705-.209655-7.978745-.520001-12.325318 2.625297-17.17569 8.578971-14.701568 18.045647-30.324707 35.340508-45.657806 53.007348-1.676132-1.14872-2.321488-1.610093-2.986328-2.041413-.701386-.455024-1.421372-.881386-2.385376-1.475708 25.631729-34.530044 45.769287-71.1674 59.321838-111.837609 10.959656 3.912619 21.578812 7.606151 32.095047 11.572583 1.430466.53953 3.294312 2.490399 3.235046 3.703676-.060012 1.228903-2.102432 2.632597-3.56314 3.443423-1.400345.777309-3.193512 1.316078-4.770661 1.223207-6.291229-.370458-9.359878 3.270872-12.021377 8.318873-2.997818 5.685867-6.693604 11.00373-10.520722 17.184009 13.702744 0 26.759491.063137 39.813004-.113342 1.109527-.015003 2.380859-1.475174 3.263397-2.527104 3.632233-4.329582 7.143341-8.760807 11.062744-13.60416 10.200531 7.273647 20.299133 14.26915 30.145142 21.603726 3.585449 2.670902 2.899017 5.155605-1.424805 6.816417-2.00293.769356-4.108124 1.717194-6.186218 1.766114-7.396881.17414-11.815247 4.42324-16.199128 9.849861-10.212219 12.641296-21.003906 24.814483-32.006347 37.699043 7.416229 0 14.690826-.606812 21.825043.135483 12.140838 1.263214 22.647125-.710022 30.048278-11.441239.355652-.51567 1.031708-.810386 1.89441-1.461471 6.427581 4.634872 13.01007 9.141846 19.314544 14.008926 4.450989 3.436196 4.258423 6.138222-.054657 9.585831-.26001.207847-.496246.528366-.790588.598259-8.438965 2.003868-8.102692 8.331154-7.898132 15.065681.328155 10.804245.087921 21.625748.087921 34.110901 2.383423-1.568893 4.225647-2.246628 5.26709-3.559585 4.530395-5.711457 8.827606-11.60788 13.476074-17.791672 6.132904 8.313034 11.904144 16.040893 17.532135 23.871734.800232 1.113495 1.564239 3.010865 1.128998 4.021897-.368073.854858-2.494935 1.313248-3.849152 1.325836-10.978638.101898-21.958679.05722-33.329132.05722-.08136.982682-.207337 1.738862-.197296 2.493256.345459 25.992325.640838 51.985657 1.123687 77.975464.078064 4.203094-1.014038 6.807465-5.570556 6.999603-5.149414.217163-10.297486.55365-15.4487.611237-3.507294.039276-4.332001-2.340454-4.300934-5.401825.068878-6.790253.021454-13.581665.021454-20.585327-14.797119 0-29.206696 0-43.673828 0 0 4.55252-.069046 8.853088.011719 13.150848.38507 20.488068.786483 40.975891 1.229827 61.462799.35495 16.401734-3.836334 22.33667-19.711074 27.191193-5.369873 1.642151-10.87584 2.839325-16.114701 4.187134-.524292-.654725-.909973-.913514-.899887-1.155823.45015-10.804627-5.460632-16.495239-15.246445-19.200501-10.242614-2.831482-20.427688-5.875702-30.699798-8.593017-2.997833-.793061-4.571442-1.813019-2.891098-5.514557 9.88353.922546 19.938278 1.952209 30.010086 2.772491 8.128784.662018 16.272171 1.223206 24.420319 1.542511 6.01445.235688 6.654312-.525665 6.674957-6.447601.041824-11.998322.012314-23.996826.011749-36.4953m45.981567-94.995545c-7.581176 0-15.162323 0-22.792724 0v52.726746h43.430633c0-17.646164 0-35.025879 0-52.726746-6.715606 0-13.176849 0-20.637909 0m-8.99295-8.842193h29.675995c0-17.268051 0-33.874634 0-50.697327-14.584931 0-28.948303 0-43.437744 0v50.697327z" fill="#050505"/><path d="m595.000122 65.158257c22.494263 0 44.488953-.07206 66.482239.074852 3.443115.022995 5.924194-.816041 8.186218-3.490712 3.642273-4.306705 7.660645-8.295356 12.374939-13.331558 11.442078 9.396187 22.450928 18.158291 33.095337 27.342777 3.312805 2.858467 2.145264 6.265366-2.22644 7.30539-4.185181.995643-8.534058 1.653755-12.826294 1.745231-3.919129.083527-6.35199 1.906342-8.901246 4.53077-8.106201 8.345291-16.400695 16.510353-24.752258 24.611129-.95227.923661-2.727051.999245-4.120483 1.468064-.104859-1.443085-.61792-3.000473-.250916-4.31147 3.39679-12.133515 6.945374-24.224503 10.611756-36.887078-41.315552 0-81.81189 0-122.819947 0 0 13.556527-.049499 27.160874.013123 40.764702.070557 15.323845.175659 30.648247.411133 45.970162.06903 4.493759-2.276673 7.15538-6.214112 7.728332-5.895629.85788-11.90863 1.186722-17.872863 1.199173-4.029725.008393-4.300782-3.147491-4.251526-6.472214.411926-27.805358.7182-55.612274 1.051452-83.418777.02179-1.818451.00293-3.637398.00293-5.798492-35.388763 0-70.606811 0-106.101257 0-1.299622 6.816513-2.359528 13.839866-4.012238 20.720832-2.903595 12.089043-8.382049 22.785973-18.463867 30.560639-7.779724 5.999412-14.107574 4.291756-17.227081-5.103722-1.540863-4.6408-2.102997-9.770271-2.107209-14.679504-.00177-2.054161 2.160614-4.741562 4.080811-6.063843 12.761047-8.787376 23.478668-19.208527 28.314423-34.394989 1.853698-5.82148 3.005218-11.866547 4.569244-18.183441 1.356293-.076634 2.959442-.167217 5.089081-.287548v18.175686h105.575989c0-10.056675 0-20.131928 0-29.848248-36.083069 0-72.117218 0-108.629944 0-.667664-3.700481-1.472687-8.162176-2.209778-12.247442 68.37207 5.87665 136.491028 1.789928 204.522522 2.862471 2.093078.032997 4.710632-1.329678 6.238952-2.876397 6.549988-6.628786 12.780945-13.572793 19.14325-20.387823.202637-.217117.569336-.281125 1.279114-.612205 10.557129 8.858418 21.285034 17.808431 31.919678 26.86803 1.005065.856207 1.423767 2.400793 2.114624 3.625822-1.407654.619763-2.804017 1.743641-4.224915 1.775494-7.827332.175465-15.660645.084332-23.491943.084351-31.325135.000068-62.650269.000026-93.975403.000026-1.641297 0-3.282532 0-5.230591 0v30.98153z" fill="#050505"/><path d="m145.381927 304.493073c-.046112 8.77951.173874 17.104675-.262725 25.395294-.320237 6.08081-4.184861 10.250244-9.75467 12.097351-8.617431 2.857849-17.438758 5.100891-26.859825 7.80133-1.08332-15.377594-11.220077-19.698974-23.31958-21.92688-4.688293-.86325-9.296219-2.163024-13.965706-3.269836 0-1.579254 0-2.999298 0-4.985352 13.672898.824006 27.090844 1.690308 40.516129 2.421875 9.255669.504303 9.260223.420899 9.260223-8.57669 0-14.637055 0-29.274109 0-44.177948-24.661178 0-49.065742 0-73.816475 0-.068943 1.397461-.203712 2.834533-.201191 4.271301.040898 23.329437-.007621 46.659973.247899 69.987183.048404 4.419342-1.231389 6.455597-5.73386 6.693695-4.636448.245178-9.239865 1.058838-13.872916 1.438507-5.824798.477264-6.697887-.394715-6.59214-6.270233.872557-48.480591 1.80566-96.960114 2.612419-145.441758.207356-12.460845.031147-24.928054.031147-37.787841 8.262198 4.313736 16.542631 8.770904 24.963434 12.94487 2.269665 1.125 4.960751 1.941055 7.466408 1.962494 18.82893.161117 37.661915-.063446 56.488758.192016 4.838974.065689 8.632714-1.017547 11.900444-4.628647 2.446701-2.703811 5.314759-5.026321 8.407395-7.90187 6.591354 5.167938 13.308777 10.282119 19.842407 15.621215 3.313583 2.707764 2.70784 6.143952-.770248 7.650223-7.137818 3.091248-7.078248 8.654587-7.021103 15.041077.301162 33.658371.308853 67.319382.433776 101.448624m-98.41513-54.018311v9.490448h73.794968c0-10.923767 0-21.651306 0-32.561935-24.614251 0-48.992463 0-73.795239 0 0 7.511535 0 14.7957.000271 23.071487m62.526512-31.993759h11.197105c0-11.162201 0-21.727905 0-32.189316-24.703445 0-49.102592 0-73.434196 0v32.189362c20.603729 0 40.921829 0 62.237091-.000046z" fill="#030303"/><path d="m1081.369019 254.506439c-1.974488 16.973358-3.712647 33.523102-5.859131 50.019684-.64563 4.961853.830932 8.56842 3.940063 12.233154 2.623657 3.092469 5.396485 6.578858 6.474976 10.355835 2.403564 8.418732-4.716431 15.297669-13.269654 13.267334-10.361938-2.459717-18.511474-8.857177-26.298584-15.661285-23.744262-20.746918-36.968322-47.40686-43.357299-77.843857-5.914734-28.177399-7.387696-56.685913-6.424195-85.289108-68.599121 0-137.297119 0-206.730102 0-.60553-3.276642-1.342957-7.266937-2.189148-11.846146 6.649963.527008 12.853699 1.080567 19.066894 1.491806 5.143311.340424 10.297608.72284 15.447327.727585 55.980103.051559 111.960327.005997 167.940247.101944 3.132507.005371 5.144104-.763916 6.970764-3.4319 3.094299-4.519257 6.68872-8.696091 10.652282-13.756699 8.136292 6.789261 16.190125 13.345353 23.957947 20.224427.854981.757095.791382 4.026825-.091186 4.987747-2.437744 2.654388-5.627075 4.601272-8.326538 7.041031-1.073853.970627-2.247681 2.45523-2.350098 3.784897-2.561646 33.239959.868286 65.728653 12.760864 97.065231 4.645142 12.239807 12.700806 22.07547 23.387085 31.740662 7.208008-21.939271 14.192261-43.197663 21.273926-64.752259 1.467773.37648 3.030151.777252 5.118408 1.312912-.67688 5.973694-1.345947 11.878342-2.094848 18.227005z" fill="#040404"/><path d="m883.825684 272.821808c-36.293152 30.82904-76.539673 53.855133-122.169373 68.202881-.907532-1.698212-1.815491-3.397156-2.998718-5.611267 45.250061-21.146454 85.451477-48.995362 119.537231-86.206253-22.81427-18.038483-45.600464-36.054703-68.658386-54.285828 1.15802-1.820358 2.175232-3.419357 3.296753-5.182358 27.389587 13.248383 53.229797 28.427933 78.188293 46.431427 7.670777-10.4337 15.580567-20.324447 22.508789-30.86058 6.919922-10.523636 12.857361-21.693314 19.622864-33.259247 10.209961 5.260788 20.96051 10.685608 31.558228 16.39415 1.454956.783691 2.150146 2.977768 3.197082 4.51886-1.583069 1.038681-3.116882 2.16748-4.772949 3.072647-.682068.372833-1.7146.551895-2.438904.33107-7.328064-2.234009-10.545837 2.821914-14.339477 7.544403-12.176209 15.157516-24.593994 30.120987-37.030457 45.295791 10.113648 7.924546 20.626465 15.783615 30.687256 24.184098 6.239624 5.209899 12.209106 10.877166 17.560547 16.986694 8.772949 10.01593 8.70459 21.920288 5.256287 33.941894-1.67865 5.851929-6.403565 6.858307-10.578187 2.422028-3.293334-3.499725-6.036376-7.520996-8.984985-11.340637-14.4906-18.770935-30.86206-35.768433-48.712646-51.959198-3.557251 3.107879-7.010743 6.12503-10.729248 9.379425z" fill="#030303"/><path d="m889.000122 57.159286c37.991394 0 75.48291-.042148 112.973938.076657 3.141113.009956 5.173096-.933403 7.200806-3.2696 6.21289-7.158207 12.677612-14.097847 19.452087-21.572323 7.192017 6.140114 14.254395 12.116581 21.253296 18.166309 3.650513 3.155377 7.28479 6.343434 10.715332 9.730378.904175.892707 1.533569 2.671054 1.318726 3.868557-.13501.752479-2.026001 1.48159-3.220215 1.683914-1.785889.302543-3.651978.158973-5.483887.159096-70.817078.004554-141.634277.042381-212.451111-.100701-3.869079-.00782-5.876709 1.225929-7.818664 4.436577-21.86969 36.157188-48.11908 68.623261-81.082581 95.36261-.769592.624267-1.559814 1.223129-2.392639 1.874664-.679138-.580963-1.341553-1.083282-1.924988-1.664886-.580322-.578583-1.081299-1.236771-2.029785-2.340149 39.756226-44.224488 67.342102-95.182099 84.148621-152.788699 3.318298.703577 6.847046 1.354058 10.325744 2.208225 9.353821 2.296743 18.736023 4.507501 27.987671 7.167338 1.986023.570992 3.469116 2.891272 5.183899 4.405712-1.732239 1.552826-3.432434 3.144062-5.217956 4.633055-.481629.401617-1.221314.6945-1.843689.696575-8.954346.02986-13.235169 5.761011-16.642151 13.033079-2.163269 4.617413-5.100037 8.872479-8.243103 14.233609 16.256714 0 31.773681 0 47.790649.000003z" fill="#040404"/><path d="m1008.97229 91.033051c6.506592 5.224365 12.790466 10.166534 18.862061 15.35704 1.339477 1.145081 1.926879 3.170021 2.860595 4.789825-1.796631.609131-3.591308 1.741646-5.390381 1.74897-27.663757.112641-55.328125.057023-82.99237.084923-29.995545.030258-59.991577.037079-89.986389.213799-7.129517.042007-14.255371.72007-21.758179 1.125869-.536865-4.402305-1.031921-8.461402-1.512756-12.40419 47.422546 4.313492 94.672607 1.285263 141.855041 2.277802 3.313416.069702 5.523193-.988396 7.687073-3.378433 5.687988-6.282456 11.610046-12.353058 17.803711-18.893257 4.300964 3.113754 8.286743 5.999313 12.571594 9.077652z" fill="#050505"/><path d="m568.023315 143.099594c12.391663.502503 24.344178 1.047531 36.302735 1.358124 7.488037.194504 14.996948.271133 22.47113-.10437 2.29657-.115402 5.008789-1.390824 6.667298-3.016098 5.09436-4.992386 9.770324-10.411621 15.379882-16.501961 9.266541 8.069984 18.416565 15.908195 27.385376 23.948494 2.030945 1.820694 1.164429 3.670273-1.456298 4.223862-1.440918.304351-2.983826.15924-4.480774.159622-27.307984.006836-54.616822-.113571-81.923523.075592-8.441773.058487-16.877747.95459-25.595826 1.484161-.825744-4.030044-1.655639-8.080368-2.580444-12.594146 2.577759.317306 4.985779.613708 7.830444.96672z" fill="#030303"/><path d="m449 144.493134c14.091064 2.304382 25.149872-1.329133 32.69339-13.521821 1.29718-2.096603 3.116028-3.87046 5.238434-6.457099 9.184601 8.479316 17.59024 16.189033 25.900207 24.000465.719361.676178 1.413086 2.442368 1.051758 2.966186-.600586.87056-2.056885 1.572175-3.170227 1.598206-6.490356.151764-12.985779.092072-19.479492.092667-27.11496.002517-54.22992.001068-82.062744.001068-.816681-2.985581-1.890442-6.91098-2.885651-10.549225 14.111786.624954 28.163086 1.247238 42.714325 1.869553z" fill="#030303"/><path d="m580.996948 114.545479c-6.297424-.000023-12.094543-.000023-18.319519-.000023-.718506-3.300537-1.519714-6.980743-2.143493-9.846138 17.419128.371231 34.773742.660911 52.121215 1.183273 3.193299.096154 5.20221-.919159 7.078125-3.422821 3.769349-5.030769 7.848572-9.829376 12.1969-15.215462 9.368225 8.322999 18.435791 16.378891 27.503357 24.434792-.224976.663414-.44989 1.326828-.674866 1.990242-2.300842.292053-4.601074.831772-6.90271.837914-23.452759.062553-46.905701.038246-70.859009.038223z" fill="#0b0b0b"/><path d="m462.877533 105.810356c6.371368 1.111511 10.468903-1.282867 13.857117-6.085037 2.942657-4.1707 6.560699-7.864845 10.350341-12.32254 8.50235 7.314712 16.823975 14.411071 25.037507 21.630432.893371.785202 1.922424 2.76503 1.555297 3.341034-.667602 1.047477-2.269805 1.730453-3.606292 2.057251-1.416046.346267-2.976807.105423-4.474396.11306-25.624664.130699-51.24939.249542-76.873871.407928-2.31369.014305-4.625793.281922-7.588684.474053-.745544-3.826485-1.51297-7.765267-2.159912-11.085816 14.687439.497093 29.055023.98336 43.902893 1.469635z" fill="#0b0b0b"/><path d="m546.847107 260.99707c0-8.14212 0-15.785064 0-23.707763h88.090027v39.215454c-29.223145 0-58.42981 0-88.090027 0 0-5.095825 0-10.052185 0-15.507691z" fill="#fdfdfd"/><path d="m442.259766 276.82193c-1.122925-1.235718-2.31305-2.462311-2.327973-3.703003-.141968-11.814301-.084686-23.630997-.084686-35.778748h82.899902v39.484314c-26.831604 0-53.420379 0-80.487243-.002563z" fill="#fdfdfd"/><path d="m615.000122 191.529175c6.818604-.000015 13.137329-.000015 19.801941-.000015v36.41069c-29.1297 0-58.184753 0-87.59552 0 0-11.936539 0-23.954209 0-36.41066 22.481934 0 44.887817 0 67.793579-.000015z" fill="#fff"/><path d="m519.876099 228.151917c-26.786072.000335-53.081421.000335-79.700623.000335 0-12.227707 0-24.259216 0-36.452591h82.811585c0 11.459061.054016 22.75354-.112854 34.044785-.012024.814575-1.633973 1.605331-2.998108 2.407471z" fill="#fff"/><path d="m268.999817 184.003967h20.138v52.726746c-14.327545 0-28.738586 0-43.430633 0 0-17.368256 0-34.754212 0-52.726746z" fill="#fcfcfc"/><path d="m259.009247 175.161774c-4.646088 0-8.79448 0-13.264038 0 0-16.986664 0-33.693772 0-50.697327h43.437744v50.697327c-9.82724 0-19.751618 0-30.173706 0z" fill="#fbfbfb"/><path d="m46.96666 249.978943c-.000134-7.779968-.000134-15.064133-.000134-22.575668h73.795239v32.561935c-24.564278 0-48.947594 0-73.794968 0 0-3.253449 0-6.371948-.000137-9.986267z" fill="#fdfdfd"/><path d="m108.994736 218.481018c-20.816689.000031-41.134789.000031-61.738518.000031 0-10.731003 0-21.3163 0-32.189362h73.434196v32.189316c-3.696006 0-7.446556 0-11.695678.000015z" fill="#fff"/></svg>