<svg enable-background="new 0 0 334 1968" viewBox="0 0 334 1968" xmlns="http://www.w3.org/2000/svg"><path d="m335 736v1233c-111.333328 0-222.666664 0-334 0 0-656 0-1312 0-1968h334zm-325.582812-574.009979c2.962616 7.901275 5.592976 15.947632 8.965407 23.669937 5.110064 11.701248 10.89506 23.106552 16.078777 34.777283 2.757077 6.207321 4.625111 12.805542 7.292302 19.057586 6.227287 14.597122 19.749038 19.495835 33.501857 11.871933 4.586357-2.54245 8.812134-6.026199 12.570183-9.722748 18.45224-18.150207 32.205299-39.769149 44.69548-62.201293 18.732117-33.642579 34.625153-68.434701 41.983017-106.5999 3.167069-16.427601 1.575638-31.782631-8.709182-45.566797-.671875-.900503-1.175537-1.926527-2.051728-3.383516 2.579132-.311858 4.679535-.738583 6.789597-.793347 15.389954-.399412 30.628021.850569 45.480576 5.083067 31.656402 9.021036 56.465744 26.837923 67.901474 58.556345 15.935577 44.199249 8.99591 86.352432-16.565033 125.150696-20.910416 31.739365-51.09166 51.773148-86.711441 64.029495-5.919495 2.036835-11.818436 4.133362-17.81717 6.233917 1.029984 2.368653 1.878998 4.321106 2.85138 6.557282 3.388626-.59613 6.636062-1.133728 9.870269-1.74173 30.170121-5.671783 58.829621-15.226013 84.284287-32.949158 44.772858-31.173736 68.281189-72.783844 62.212494-128.458473-5.484772-50.317695-32.873871-84.111904-79.530502-102.467533-32.542191-12.802727-66.164399-14.105742-100.138169-6.983293-42.013077 8.807851-79.028904 26.77733-106.127956 61.267469-19.215748 24.456718-32.224592 51.280151-26.825919 84.612778m28.69282 680.959381c3.30109-6.032227 9.13068-6.816101 15.048409-6.895569 27.81163-.373352 55.625313-.840454 83.43808-.828613 48.144668.020508 96.289901.278869 144.433349.642151 12.928894.097534 25.852204.934875 39.33197 1.453918-1.058837-21.624023-2.097747-42.841186-3.143432-64.196411-3.096832 0-5.823334 0-9.284821 0 0 4.414795.215027 8.563538-.042175 12.682739-.650391 10.417175-4.555389 14.548218-14.919739 15.848877-3.294281.413452-6.648468.475891-9.975586.481506-23.157776.039124-46.315628.024292-69.473465.012818-1.392135-.000672-2.78421-.120789-4.420913-.196716.423523-.724366.538467-1.009827.729003-1.229981.543992-.628601 1.086121-1.264587 1.68599-1.838074 17.79805-17.015564 25.176056-37.65979 22.698379-62.235412-2.518127-24.976929-13.522766-44.964722-33.550613-59.87616-19.122147-14.23706-41.064926-20.617737-64.609512-22.242676-24.804917-1.711975-48.802376 1.051392-71.385018 12.276612-50.647157 25.175232-58.48652 94.467773-14.699802 130.218994 2.399132 1.958923 4.863804 3.837585 8.181179 6.448852-12.037415.647644-23.032337 1.239258-34.182583 1.839173 1.104368 18.942505 2.176397 37.330322 3.245832 55.673645h7.989901c.90749-5.926575 1.777786-11.61023 2.905567-18.039673m177.571327 816.210144c-5.976257.372803-11.855682.987305-16.017135 6.049438 5.670303 1.354737 11.212982 2.308106 16.5056 4.030152 7.960892 2.589966 13.348343 8.11206 13.495621 16.708374.353012 20.604248.11412 41.21875.11412 62.312134-32.734268 6.321167-65.947083 11.508544-95.896851-11.168457-1.116409 1.266845-1.791565 2.00061-2.427841 2.766601-.409851.49353-.762771 1.034302-1.210602 1.64917.67363.80896 1.270325 1.598633 1.940583 2.319824 17.583282 18.926148 39.576492 26.830567 65.038284 25.712403 11.21875-.492676 22.416626-1.46045 34.43634-2.26709v98.722046c-7.844406 0-15.960678-.105591-24.073318.021484-18.453934.289063-36.580261 2.374268-53.025345 11.639404-13.328186 7.509033-21.989288 18.294312-21.627289 34.387574.345322 15.352417 9.001007 25.770019 22.13353 31.802368 26.124466 12 52.696197 11.378662 78.59079-.869385 13.052551-6.173706 20.412658-17.320068 22.041168-31.788086.515671-4.581299.080551-9.269531.080551-14.327515 1.191498.417237 1.944458.632813 2.658875.938355 11.320983 4.844238 20.993072 12.117187 29.926727 20.446411 6.331055 5.902466 12.364837 12.144653 18.934997 17.763184 4.920258 4.207397 9.523987 2.93457 11.582947-3.224488 1.32898-3.975708 1.938568-8.485351 1.625214-12.662353-1.010498-13.469361-9.209107-22.39563-19.975189-29.376587-12.698029-8.233643-26.831086-13.086304-41.314423-16.923584-3.556473-.942261-4.682785-2.647705-5.087006-6.041016-3.966812-33.300659-4.265579-66.76123-4.673233-100.223999-.038345-3.148315 1.036911-4.052734 4.065766-4.799438 13.536331-3.337891 27.149948-6.551514 40.36705-10.924073 7.9263-2.622436 15.452881-6.838867 22.629181-11.209106 4.904938-2.987061 5.147888-8.263672 1.062561-11.245972-6.918671-5.051147-14.941406-7.147583-23.499268-6.650268-1.496429.086914-3.18573 1.108276-4.339599 2.178955-10.896088 10.110962-24.683625 13.92688-38.71756 18.263794 0-1.839112-.097672-3.302612.014801-4.75 1.456878-18.748169 2.991882-37.447754 10.509491-55.086426 2.972229-6.973755 1.119049-11.527954-5.382996-15.672485-2.086227-1.329956-4.339065-2.817139-6.693176-3.236573-10.91919-1.946411-21.900696-3.543212-33.793366-5.26477m1.623764-472.944946c-8.546539-12.138794-19.868026-20.956421-33.162689-27.267945-26.89151-12.766723-55.140854-15.968506-84.220443-10.549194-29.657799 5.527466-53.268395 20.293823-67.474217 47.746216-10.127624 19.571167-12.347324 40.589599-9.394119 62.170654 4.185278 30.584595 18.807541 54.595703 46.547611 69.106934 28.383171 14.847656 58.722397 17.289795 89.798782 11.045288 19.660767-3.950806 37.206391-12.391236 50.901398-27.506714 29.734894-32.818482 32.86586-85.971436 7.003677-124.745239m-30.373809-578.782288c10.877639-4.285156 20.243499-10.776245 27.975158-19.527893 16.215622-18.354981 21.437989-40.036255 19.24939-63.974976-3.209274-35.102661-21.181091-59.912445-52.758697-74.811645-24.694397-11.651489-50.915741-14.12265-77.589379-9.769043-30.27182 4.940918-54.749012 19.561798-69.941871 46.946838-14.262841 25.708618-15.46785 53.081116-6.756642 80.72168 7.800263 24.750183 26.047096 40.098022 48.889286 51.248962 1.830391-3.204528 3.43409-6.012146 5.114723-8.954528-2.044395-1.180848-3.771797-2.155457-5.477226-3.167115-21.186539-12.569214-36.580116-29.358215-39.195248-55.052551-2.61716-25.714233 5.647679-46.57962 28.360234-60.411255 23.033951-14.027283 48.662864-16.491363 75.367134-16.614166v141.485443c10.012955-.937134 19.518585-1.422668 28.880417-2.850769 5.850296-.892456 11.483825-3.205933 17.882721-5.268982m-18.43129 795.395447c-27.987869 0-55.975983.066528-83.96347-.03711-9.487755-.035034-18.985726-.28894-28.457962-.818969-13.166283-.737305-17.717351-5.122193-19.356064-18.032959-.431797-3.401734-.680882-6.82666-1.00848-10.185791-2.968773 0-5.572663 0-8.377352 0v91.162719h8.691545c0-1.057861-.021122-1.86145.003083-2.663818.604835-20.047363 4.495102-24.804687 24.289993-25.319702 28.46281-.740601 56.965603-.927246 85.426418-.270508 11.155747.257446 22.57013 2.344483 33.281693 5.552002 13.742904 4.115234 25.874206 11.740356 32.926223 24.998779 5.138855 9.661499 4.504487 18.483521-8.317276 21.146607-7.389831 1.534668-9.878524 5.739013-9.933197 13.473877-.015274 2.161255.059037 4.340698.3228 6.48352 1.68161 13.660645 13.294617 19.856079 25.625031 13.648926 6.76651-3.406128 11.036285-9.03833 13.239502-16.133667 4.175476-13.446899 1.223663-26.013794-5.600525-37.803955-7.679077-13.267212-19.496979-22.041138-32.784775-29.078247-1.563416-.828003-3.084961-1.734985-4.625916-2.605347.120743-.574951.241486-1.149902.362244-1.724853h43.372421c-1.534851-20.530396-2.981384-39.879517-4.426437-59.208863-3.206513 0-5.803238 0-8.767822 0-.141068 2.678467-.233155 5.144898-.407059 7.605469-.767746 10.862549-4.968933 16.673462-15.674576 18.04834-11.499176 1.476929-23.217422 1.248047-35.840042 1.76355m-131.696648-302.393677c-.258373-2.311157-.692112-4.618042-.746799-6.93396-.368252-15.594482 5.049137-22.529663 20.303276-24.838135 7.375263-1.115966 14.931591-1.404297 22.407711-1.424926 44.992882-.123902 89.986275-.063599 134.9795-.052247 1.438125.000367 2.87622.136109 4.653259.225831v47.464843h10.977844c0-16.021362 0-31.747925 0-47.200317h58.398499c-1.304596-4.70752-2.728699-9.307007-3.819306-13.984375-.651245-2.792969-2.159301-3.961914-4.906128-4.517334-6.18225-1.250366-12.420776-2.450073-18.412963-4.368408-15.766617-5.047242-28.817459-13.157715-32.274674-31.088196-.337005-1.747925-.593262-3.511353-.898575-5.336792-3.084839 0-5.848739 0-9.225891 0v25.101135c-19.263611 0-37.913513-.061767-56.562866.013428-32.990524.132934-65.983177.164062-98.970036.604736-17.953781.239746-30.883562 8.894531-36.103902 24.045899-7.425364 21.551147-3.719166 42.1781 6.109457 62.562866 3.555252-1.181397 6.785568-2.254761 9.721138-3.230225-1.910893-5.624511-3.706883-10.910888-5.629544-17.043823m40.767746 591.579224c-5.346832-13.012207-13.74501-23.877198-23.897262-33.420655-5.53043-5.198852-10.495198-7.029297-15.869171-6.508422 1.235721 2.235961 2.435649 4.390625 3.620567 6.553588 6.811863 12.435425 8.982735 25.620484 6.278839 39.55542-1.392837 7.178101-2.872047 14.340332-4.377411 21.49585-8.907513 42.340698-17.840444 84.669922-18.460411 128.211059-.376261 26.425416 1.826729 52.539551 9.322262 77.989747 2.528614 8.585449 5.082489 17.307373 11.583904 24.013549 3.059822 3.156006 6.813706 5.01709 11.248501 3.740479 4.464596-1.285156 6.616852-4.817139 7.283581-9.241699.370521-2.458985.504562-4.955567.69635-7.438965.524376-6.789795.182777-13.773194 1.68129-20.338135 5.618782-24.616089 11.75872-49.114624 17.862388-73.617676 2.759873-11.07959 5.893341-22.06604 8.945084-33.421386-2.222176-.678956-4.028824-1.230957-5.932945-1.812745-12.759301 30.414795-25.314431 60.342896-38.175534 91.000245-.658207-1.900269-1.103512-2.961182-1.395714-4.062622-7.270008-27.404664-6.1165-55.118409-2.412174-82.789307 4.667378-34.864624 15.08474-68.058838 30.977738-99.457398 3.319816-6.558715 3.754402-12.950195 1.020118-20.450927m126.937004-740.16333c9.593049.428283 19.186112.856567 29.067688 1.297729-1.487335-21.990601-2.932357-43.355774-4.379974-64.759277-3.160995 0-5.762756 0-8.449646 0-.527588 5.982177-.936523 11.75592-1.573486 17.504516-.578965 5.225098-3.658875 8.756958-8.714814 9.641053-6.847961 1.197509-13.818298 2.31781-20.742233 2.355651-39.826874.217835-79.655906.191285-119.483269.023743-6.793991-.028564-13.613407-.914123-20.366451-1.813721-6.590214-.877929-10.979259-4.689575-12.167782-11.397766-.948711-5.354675-1.462692-10.786438-2.16941-16.182251-2.74791 0-5.456368 0-8.118462 0v90.630799h8.27346c.414322-4.18097.67199-8.002076 1.19154-11.787232 1.371918-9.995056 5.255749-13.876343 15.267781-15.397278 2.630836-.399719 5.284515-.949524 7.925472-.9375 47.81792.21753 95.635494.510559 144.439586.821534m69.645401-25.914124c-.260864 1.132141-.634979 2.251526-.764709 3.398499-1.082153 9.565612 1.949066 17.404419 10.203796 22.674255 7.647644 4.882263 15.751282 5.02478 23.553437.540283 8.941497-5.139282 12.83554-14.777893 10.598877-24.750183-2.163788-9.647339-10.505677-16.865356-20.377869-17.632507-9.717194-.755127-18.639649 5.090942-23.213532 15.769653z" fill="#fefefe"/><path d="m9.309546 161.576553c-5.291031-32.919159 7.717813-59.742592 26.933561-84.19931 27.099052-34.490139 64.114879-52.459618 106.127956-61.267469 33.97377-7.122449 67.595978-5.819434 100.138169 6.983293 46.656631 18.355629 74.04573 52.149838 79.530502 102.467533 6.068695 55.674629-17.439636 97.284737-62.212494 128.458473-25.454666 17.723145-54.114166 27.277375-84.284287 32.949158-3.234207.608002-6.481643 1.1456-9.870269 1.74173-.972382-2.236176-1.821396-4.188629-2.85138-6.557282 5.998734-2.100555 11.897675-4.197082 17.81717-6.233917 35.619781-12.256347 65.801025-32.29013 86.711441-64.029495 25.560943-38.798264 32.50061-80.951447 16.565033-125.150696-11.43573-31.718422-36.245072-49.535309-67.901474-58.556345-14.852555-4.232498-30.090622-5.482479-45.480576-5.083067-2.110062.054764-4.210465.481489-6.789597.793347.876191 1.456989 1.379853 2.483013 2.051728 3.383516 10.28482 13.784166 11.876251 29.139196 8.709182 45.566797-7.357864 38.165199-23.2509 72.957321-41.983017 106.5999-12.490181 22.432144-26.24324 44.051086-44.69548 62.201293-3.758049 3.696549-7.983826 7.180298-12.570183 9.722748-13.752819 7.623902-27.27457 2.725189-33.501857-11.871933-2.667191-6.252044-4.535225-12.850265-7.292302-19.057586-5.183717-11.670731-10.968713-23.076035-16.078777-34.777283-3.372431-7.722305-6.002791-15.768662-9.073049-24.083405m30.621656 35.928635c4.742264 6.753983 8.963272 13.966141 14.379242 20.12796 5.015537 5.706269 9.507889 5.702988 15.283039 1.010208 4.882866-3.967712 9.587334-8.298065 13.696121-13.051086 20.254532-23.430298 35.705155-50.001038 49.668633-77.47403 10.70079-21.053718 20.06131-42.662498 25.59227-65.748947 2.732437-11.405262 3.47499-22.63808-1.805863-33.653805-1.146652-2.391859-2.342102-3.188539-4.896774-2.594778-49.384537 11.478056-87.650475 37.781542-109.934425 84.252711-13.50767 28.169029-14.930968 57.268852-1.982243 87.131767z" fill="#030303"/><path d="m37.981262 843.322266c-.999035 6.056579-1.869331 11.740234-2.776821 17.666809-2.2332 0-4.848923 0-7.989901 0-1.069435-18.343323-2.141464-36.73114-3.245832-55.673645 11.150246-.599915 22.145168-1.191529 34.182583-1.839173-3.317375-2.611267-5.782047-4.489929-8.181179-6.448852-43.786718-35.751221-35.947355-105.043762 14.699802-130.218994 22.582642-11.22522 46.580101-13.988587 71.385018-12.276612 23.544586 1.624939 45.487365 8.005616 64.609512 22.242676 20.027847 14.911438 31.032486 34.899231 33.550613 59.87616 2.477677 24.575622-4.900329 45.219848-22.698379 62.235412-.599869.573487-1.141998 1.209473-1.68599 1.838074-.190536.220154-.30548.505615-.729003 1.229981 1.636703.075927 3.028778.196044 4.420913.196716 23.157837.011474 46.315689.026306 69.473465-.012818 3.327118-.005615 6.681305-.068054 9.975586-.481506 10.36435-1.300659 14.269348-5.431702 14.919739-15.848877.257202-4.119201.042175-8.267944.042175-12.682739h9.284821c1.045685 21.355225 2.084595 42.572388 3.143432 64.196411-13.479766-.519043-26.403076-1.356384-39.33197-1.453918-48.143448-.363282-96.288681-.621643-144.433349-.642151-27.812767-.011841-55.62645.455261-83.43808.828613-5.917729.079468-11.747319.863342-15.177155 7.268433m108.259491-40.318421c3.1427-.343506 6.291474-.639282 9.427109-1.038391 16.950119-2.157593 33.361313-5.965332 47.840637-15.678345 20.807755-13.958252 27.635239-41.207153 15.310333-62.444824-8.18814-14.109375-21.624908-21.258606-36.639694-25.718017-26.123916-7.758851-52.852081-7.884034-79.699364-5.56012-15.659751 1.35553-30.867927 4.487244-44.998439 11.843384-29.564276 15.390625-28.336951 46.215332-17.391274 64.977112 8.266468 14.169372 21.555618 21.790771 36.589848 26.770507 22.337661 7.398743 45.378029 8.182801 69.560844 6.848694z" fill="#020202"/><path d="m216.148071 1659.159424c11.425934 1.72168 22.40744 3.318481 33.32663 5.264892 2.354111.419434 4.606949 1.906617 6.693176 3.236573 6.502045 4.144531 8.355225 8.69873 5.382996 15.672485-7.517609 17.638672-9.052613 36.338257-10.509491 55.086426-.112473 1.447388-.014801 2.910888-.014801 4.75 14.033935-4.336914 27.821472-8.152832 38.71756-18.263794 1.153869-1.070679 2.84317-2.092041 4.339599-2.178955 8.557862-.497315 16.580597 1.599121 23.499268 6.650268 4.085327 2.9823 3.842377 8.258911-1.062561 11.245972-7.1763 4.370239-14.702881 8.58667-22.629181 11.209106-13.217102 4.372559-26.830719 7.586182-40.36705 10.924073-3.028855.746704-4.104111 1.651123-4.065766 4.799438.407654 33.462769.706421 66.92334 4.673233 100.223999.404221 3.393311 1.530533 5.098755 5.087006 6.041016 14.483337 3.83728 28.616394 8.689941 41.314423 16.923584 10.766082 6.980957 18.964691 15.907226 19.975189 29.376587.313354 4.177002-.296234 8.686645-1.625214 12.662353-2.05896 6.159058-6.662689 7.431885-11.582947 3.224488-6.57016-5.618531-12.603942-11.860718-18.934997-17.763184-8.933655-8.329224-18.605744-15.602173-29.926727-20.446411-.714417-.305542-1.467377-.521118-2.658875-.938355 0 5.057984.43512 9.746216-.080551 14.327515-1.62851 14.468018-8.988617 25.61438-22.041168 31.788086-25.894593 12.248047-52.466324 12.869385-78.59079.869385-13.132523-6.032349-21.788208-16.449951-22.13353-31.802368-.361999-16.093262 8.299103-26.878541 21.627289-34.387574 16.445084-9.265136 34.571411-11.350341 53.025345-11.639404 8.11264-.127075 16.228912-.021484 24.073318-.021484 0-32.424805 0-65.633789 0-98.722046-12.019714.80664-23.21759 1.774414-34.43634 2.26709-25.461792 1.118164-47.455002-6.786255-65.038284-25.712403-.670258-.721191-1.266953-1.510864-1.940583-2.319824.447831-.614868.800751-1.15564 1.210602-1.64917.636276-.765991 1.311432-1.499756 2.427841-2.766601 29.949768 22.677001 63.162583 17.489624 95.896851 11.168457 0-21.093384.238892-41.707886-.11412-62.312134-.147278-8.596314-5.534729-14.118408-13.495621-16.708374-5.292618-1.722046-10.835297-2.675415-16.5056-4.030152 4.161453-5.062133 10.040878-5.676635 16.483871-6.04956m-57.097412 271.542236c12.476761 4.81836 25.385483 5.091553 38.338165 3.035645 16.221085-2.574707 29.134491-9.74585 33.000596-27.243286 1.311142-5.934327 1.417266-12.13501 2.191925-19.304932-11.065689-1.38794-21.381958-3.337525-31.767167-3.828125-15.003707-.708862-30.009216.167358-43.680389 7.519043-8.46611 4.552734-13.978729 11.239136-13.304291 21.547241.614014 9.384766 6.794602 14.286377 15.221161 18.274414z" fill="#040404"/><path d="m217.531982 1186.496338c25.6353 38.492065 22.504334 91.645019-7.23056 124.463501-13.695007 15.115478-31.240631 23.555908-50.901398 27.506714-31.076385 6.244507-61.415611 3.802368-89.798782-11.045288-27.74007-14.511231-42.362333-38.522339-46.547611-69.106934-2.953205-21.581055-.733505-42.599487 9.394119-62.170654 14.205822-27.452393 37.816418-42.21875 67.474217-47.746216 29.079589-5.419312 57.328933-2.217529 84.220443 10.549194 13.294663 6.311524 24.61615 15.129151 33.389572 27.549683m-171.467792 93.943603c8.831852 8.82251 19.694042 14.078247 31.47929 17.513428 25.220756 7.351685 50.967003 7.504761 76.776878 4.636109 17.83844-1.982422 34.949921-6.546998 49.785294-17.434082 23.286041-17.088624 28.711349-50.632935 11.550186-73.146729-9.499252-12.46228-22.875626-19.043213-37.588623-23.02356-22.794632-6.166503-46.043945-6.724609-69.413223-4.677612-16.518364 1.447022-32.515305 4.989624-47.423764 12.5896-38.651168 19.703491-35.10362 63.969848-15.166038 83.542846z" fill="#030303"/><path d="m186.597244 607.625977c-6.06485 1.869384-11.698379 4.182861-17.548675 5.075317-9.361832 1.428101-18.867462 1.913635-28.880417 2.850769 0-47.368408 0-94.241516 0-141.485443-26.70427.122803-52.333183 2.586883-75.367134 16.614166-22.712555 13.831635-30.977394 34.697022-28.360234 60.411255 2.615132 25.694336 18.008709 42.483337 39.195248 55.052551 1.705429 1.011658 3.432831 1.986267 5.477226 3.167115-1.680633 2.942382-3.284332 5.75-5.114723 8.954528-22.84219-11.15094-41.089023-26.498779-48.889286-51.248962-8.711208-27.640564-7.506199-55.013062 6.756642-80.72168 15.192859-27.38504 39.670051-42.00592 69.941871-46.946838 26.673638-4.353607 52.894982-1.882446 77.589379 9.769043 31.577606 14.8992 49.549423 39.708984 52.758697 74.811645 2.188599 23.938721-3.033768 45.619995-19.24939 63.974976-7.731659 8.751648-17.097519 15.242737-28.309204 19.721558m-33.001617-27.542298c14.094574.135132 27.89418-1.533813 40.982971-7.099304 30.349884-12.905029 39.87561-45.018677 20.505554-69.858276-16.196869-20.770417-39.469147-25.728485-64.201568-28.241394 0 34.713501-.011246 68.825683.072525 102.937683.001861.761108 1.085113 1.519592 2.640518 2.261291z" fill="#030303"/><path d="m168.999985 1402.827759c12.122635-.515503 23.840881-.286621 35.340057-1.76355 10.705643-1.374878 14.90683-7.185791 15.674576-18.04834.173904-2.460571.265991-4.927002.407059-7.605469h8.767822c1.445053 19.329346 2.891586 38.678467 4.426437 59.208863-14.636871 0-29.004654 0-43.372421 0-.120758.574951-.241501 1.149902-.362244 1.724853 1.540955.870362 3.0625 1.777344 4.625916 2.605347 13.287796 7.037109 25.105698 15.811035 32.784775 29.078247 6.824188 11.790161 9.776001 24.357056 5.600525 37.803955-2.203217 7.095337-6.472992 12.727539-13.239502 16.133667-12.330414 6.207153-23.943421.011719-25.625031-13.648926-.263763-2.142822-.338074-4.322265-.3228-6.48352.054673-7.734864 2.543366-11.939209 9.933197-13.473877 12.821763-2.663086 13.456131-11.485108 8.317276-21.146607-7.052017-13.258423-19.183319-20.883545-32.926223-24.998779-10.711563-3.207519-22.125946-5.294556-33.281693-5.552002-28.460815-.656738-56.963608-.470093-85.426418.270508-19.794891.515015-23.685158 5.272339-24.289993 25.319702-.024205.802368-.003083 1.605957-.003083 2.663818-3.03424 0-5.752342 0-8.691545 0 0-30.432861 0-60.664184 0-91.162719h8.377352c.327598 3.359131.576683 6.784057 1.00848 10.185791 1.638713 12.910766 6.189781 17.295654 19.356064 18.032959 9.472236.530029 18.970207.783935 28.457962.818969 27.987487.103638 55.975601.03711 84.463455.03711z" fill="#020202"/><path d="m36.866688 1100.857422c1.859325 5.709595 3.655315 10.995972 5.566208 16.620483-2.93557.975464-6.165886 2.048828-9.721138 3.230225-9.828623-20.384766-13.534821-41.011719-6.109457-62.562866 5.22034-15.151368 18.150121-23.806153 36.103902-24.045899 32.986859-.440674 65.979512-.471802 98.970036-.604736 18.649353-.075195 37.299255-.013428 56.562866-.013428 0-8.43811 0-16.669555 0-25.101135h9.225891c.305313 1.825439.56157 3.588867.898575 5.336792 3.457215 17.930481 16.508057 26.040954 32.274674 31.088196 5.992187 1.918335 12.230713 3.118042 18.412963 4.368408 2.746827.55542 4.254883 1.724365 4.906128 4.517334 1.090607 4.677368 2.51471 9.276855 3.819306 13.984375-19.410919 0-38.654999 0-58.398499 0v47.200317c-3.867553 0-7.239914 0-10.977844 0 0-15.81665 0-31.43396 0-47.464843-1.777039-.089722-3.215134-.225464-4.653259-.225831-44.993225-.011352-89.986618-.071655-134.9795.052247-7.47612.020629-15.032448.30896-22.407711 1.424926-15.254139 2.308472-20.671528 9.243653-20.303276 24.838135.054687 2.315918.488426 4.622803.810135 7.3573z" fill="#040404"/><path d="m77.712791 1692.382812c2.592591 7.131226 2.158005 13.522706-1.161811 20.081421-15.892998 31.39856-26.31036 64.592774-30.977738 99.457398-3.704326 27.670898-4.857834 55.384643 2.412174 82.789307.292202 1.10144.737507 2.162353 1.395714 4.062622 12.861103-30.657349 25.416233-60.58545 38.175534-91.000245 1.904121.581788 3.710769 1.133789 5.932945 1.812745-3.051743 11.355346-6.185211 22.341796-8.945084 33.421386-6.103668 24.503052-12.243606 49.001587-17.862388 73.617676-1.498513 6.564941-1.156914 13.54834-1.68129 20.338135-.191788 2.483398-.325829 4.97998-.69635 7.438965-.666729 4.42456-2.818985 7.956543-7.283581 9.241699-4.434795 1.276611-8.188679-.584473-11.248501-3.740479-6.501415-6.706176-9.05529-15.4281-11.583904-24.013549-7.495533-25.450196-9.698523-51.564331-9.322262-77.989747.619967-43.541137 9.552898-85.870361 18.460411-128.211059 1.505364-7.155518 2.984574-14.317749 4.377411-21.49585 2.703896-13.934936.533024-27.119995-6.278839-39.55542-1.184918-2.162963-2.384846-4.317627-3.620567-6.553588 5.373973-.520875 10.338741 1.30957 15.869171 6.508422 10.152252 9.543457 18.55043 20.408448 24.038955 33.790161z" fill="#040404"/><path d="m204.014877 951.833008c-48.310867-.294007-96.128441-.587036-143.946361-.804566-2.640957-.012024-5.294636.537781-7.925472.9375-10.012032 1.520935-13.895863 5.402222-15.267781 15.397278-.51955 3.785156-.777218 7.606262-1.19154 11.787232-2.552791 0-5.258947 0-8.27346 0 0-30.124756 0-60.196534 0-90.630799h8.118462c.706718 5.395813 1.220699 10.827576 2.16941 16.182251 1.188523 6.708191 5.577568 10.519837 12.167782 11.397766 6.753044.899598 13.57246 1.785157 20.366451 1.813721 39.827363.167542 79.656395.194092 119.483269-.023743 6.923935-.037841 13.894272-1.158142 20.742233-2.355651 5.055939-.884095 8.135849-4.415955 8.714814-9.641053.636963-5.748596 1.045898-11.522339 1.573486-17.504516h8.449646c1.447617 21.403503 2.892639 42.768676 4.379974 64.759277-9.881576-.441162-19.474639-.869446-29.560913-1.314697z" fill="#030303"/><path d="m274.294586 925.563354c4.4328-10.306213 13.355255-16.152282 23.072449-15.397155 9.872192.767151 18.214081 7.985168 20.377869 17.632507 2.236663 9.97229-1.65738 19.610901-10.598877 24.750183-7.802155 4.484497-15.905793 4.34198-23.553437-.540283-8.25473-5.269836-11.285949-13.108643-10.203796-22.674255.12973-1.146973.503845-2.266358.905792-3.770997z" fill="#030303"/><path d="m39.781399 197.155884c-12.798922-29.513611-11.375624-58.613434 2.132046-86.782463 22.28395-46.471169 60.549888-72.774655 109.934425-84.252711 2.554672-.593761 3.750122.202919 4.896774 2.594778 5.280853 11.015725 4.5383 22.248543 1.805863 33.653805-5.53096 23.086449-14.89148 44.695229-25.59227 65.748947-13.963478 27.472992-29.414101 54.043732-49.668633 77.47403-4.108787 4.753021-8.813255 9.083374-13.696121 13.051086-5.77515 4.69278-10.267502 4.696061-15.283039-1.010208-5.41597-6.161819-9.636978-13.373977-14.529045-20.477264z" fill="#fefefe"/><path d="m145.764771 803.019653c-23.706833 1.318299-46.747201.534241-69.084862-6.864502-15.03423-4.979736-28.32338-12.601135-36.589848-26.770507-10.945677-18.76178-12.173002-49.586487 17.391274-64.977112 14.130512-7.35614 29.338688-10.487854 44.998439-11.843384 26.847283-2.323914 53.575448-2.198731 79.699364 5.56012 15.014786 4.459411 28.451554 11.608642 36.639694 25.718017 12.324906 21.237671 5.497422 48.486572-15.310333 62.444824-14.479324 9.713013-30.890518 13.520752-47.840637 15.678345-3.135635.399109-6.284409.694885-9.903091 1.054199z" fill="#fefefe"/><path d="m158.728973 1930.48877c-8.104873-3.775147-14.285461-8.676758-14.899475-18.061524-.674438-10.308105 4.838181-16.994507 13.304291-21.547241 13.671173-7.351685 28.676682-8.227905 43.680389-7.519043 10.385209.4906 20.701478 2.440185 31.767167 3.828125-.774659 7.169922-.880783 13.370605-2.191925 19.304932-3.866105 17.497436-16.779511 24.668579-33.000596 27.243286-12.952682 2.055908-25.861404 1.782715-38.659851-3.248535z" fill="#fdfdfd"/><g fill="#fefefe"><path d="m45.818817 1280.179688c-19.692209-19.312745-23.239757-63.579102 15.411411-83.282593 14.908459-7.599976 30.9054-11.142578 47.423764-12.5896 23.369278-2.046997 46.618591-1.488891 69.413223 4.677612 14.712997 3.980347 28.089371 10.56128 37.588623 23.02356 17.161163 22.513794 11.735855 56.058105-11.550186 73.146729-14.835373 10.887084-31.946854 15.45166-49.785294 17.434082-25.809875 2.868652-51.556122 2.715576-76.776878-4.636109-11.785248-3.435181-22.647438-8.690918-31.724663-17.773681z"/><path d="m153.10733 580.092651c-1.067108-.750671-2.15036-1.509155-2.152221-2.270263-.083771-34.112-.072525-68.224182-.072525-102.937683 24.732421 2.512909 48.004699 7.470977 64.201568 28.241394 19.370056 24.839599 9.84433 56.953247-20.505554 69.858276-13.088791 5.565491-26.888397 7.234436-41.471268 7.108276z"/></g></svg>