<svg enable-background="new 0 0 240 1024" viewBox="0 0 240 1024" xmlns="http://www.w3.org/2000/svg"><path d="m241 300.533875c-4.338684 2.196777-7.871048.933563-10.497284-2.698639-7.754044-10.724183-16.964859-19.966492-27.689987-27.709778-1.439469-1.039246-2.57013-2.159882-1.32132-4.11789 1.095398-1.717498 2.472138-2.761596 4.553818-1.987884 12.960861 4.817261 25.939758 9.620239 34.742935 21.725189.211838 4.944367.211838 9.633637.211838 14.789002z"/><path d="m78.359406 22.646717c-3.84311-1.234968-7.317673-2.381462-10.837304-3.367029-2.071128-.579952-3.716354-1.289002-3.815876-3.856011-.099792-2.57405 1.357334-3.304485 3.520306-3.964221 13.854729-4.225893 26.140984-.877244 33.814079 9.201541 3.445023 4.525124 4.340149 9.270453 2.019028 14.503504-3.945435 8.895127-5.482742 18.473698-8.0438 27.764652-.724717 2.629136.025024 4.068345 2.071579 5.406167 1.105857.722885 2.103256 1.645896 3.039932 2.587684 5.054603 5.082176 5.143196 7.721802.755081 13.2948-3.986542 5.063019-8.997566 9.334007-12.452087 16.110619 10.696991-5.769616 20.399932-11.497223 30.864967-15.69294 18.241631-7.313561 36.988701-11.171593 56.653725-7.905113 26.699203 4.434906 46.550506 22.943214 50.731994 49.008369 3.837265 23.919464-4.387481 44.364151-22.007965 60.817276-19.733841 18.426468-44.3116 27.173172-69.728805 34.141907-3.407791.934341-4.453049-.92865-5.483521-3.425537-1.245605-3.018158 1.201859-3.353989 2.931671-4.074036 14.647141-6.09697 28.931687-12.861176 41.737534-22.385757 16.466888-12.247559 28.303329-27.516037 32.168045-48.240952 4.472-23.981346-4.939255-44.307724-25.219101-53.173111-11.720596-5.123688-23.944443-4.989151-36.285034-2.585777-20.24746 3.943252-37.85701 13.367676-54.111305 25.723198-2.531403 1.924232-3.353013 4.144279-3.424401 7.23648-.6352 27.513794.849228 54.923188 3.637589 82.283875.671241 6.586533-.489861 12.988357-3.271172 18.977356-1.75975 3.789307-4.42633 6.73793-9.225685 6.29335-4.839951-.448349-7.042969-3.809341-7.670105-7.969665-2.597336-17.230515-12.080463-31.202515-21.0378-45.446915-.530063-.842941-1.026367-1.734436-2.935962-2.161316-4.054238 5.603973-8.296071 11.495438-12.570401 17.363235-2.059257 2.826981-3.958566 5.813492-6.318226 8.369675-5.014804 5.432449-11.736955 3.699936-13.647387-3.482223-1.627458-6.118332 1.05712-11.063843 4.906442-15.510376 13.31159-15.376862 26.05311-31.21225 38.179254-47.537613 4.569481-6.151863 8.561859-12.767235 13.47094-18.62339 6.482651-7.733292 5.763298-16.875458 6.762275-26.793946-10.055229 6.080055-20.49493 9.805687-28.640335 17.45417-5.179569 4.863572-8.358551 5.463807-14.269352 1.694436-8.48541-5.411202-14.783535-12.438507-14.950944-23.310738-.036028-2.339813.301689-4.28952 2.914928-5.119728 2.725626-.865921 3.473595 1.265266 4.525673 2.873497 5.398519 8.252296 7.504129 8.954491 16.971102 5.83757 11.112865-3.658821 21.540077-8.893097 32.132064-13.761207 2.377259-1.092606 3.682862-2.669419 3.977555-5.223748 1.371063-11.883877 3.676994-23.6641 3.627243-35.705326-.015923-3.851732-1.276718-6.4391-5.466438-7.626686m-5.282837 110.902447c-6.402703 9.283157-12.765427 18.594314-19.235398 27.830353-1.677932 2.395279-.426063 3.975662.983002 5.723816 4.803444 5.959457 9.562775 11.954437 14.364029 17.915649 1.176453 1.460693 2.037842 3.354248 4.293449 3.7556 2.169152-7.489777.590348-14.810944.571244-22.079514-.02884-10.965454-.295083-21.930282-.976326-33.145904z"/><path d="m158.334045 335.402588c-4.494125 1.88736-8.540939 3.934021-12.807922 5.285705-4.722977 1.496155-4.576889 3.663056-2.166565 7.247132 10.16214 15.110534 21.239075 29.458496 34.236466 42.266723 3.797607 3.74231 7.659637 7.436554 11.223877 11.39441 5.690841 6.319366 6.099502 15.9729 1.247299 23.009826-3.492935 5.065644-8.01062 5.771759-14.352249 1.599396-7.25879-4.775818-14.646897-9.268921-22.700379-12.548004-21.041397-8.56723-42.679855-13.046967-65.352287-8.234589-11.174721 2.371918-20.941178 7.524323-28.14605 16.813263-10.55735 13.611115-7.447685 30.584473 7.335938 39.516266 10.356315 6.256928 21.815262 8.612183 33.683403 10.02063 16.551521 1.964264 32.896904-.17041 49.298103-1.56012 3.370194-.285553 6.680496.172638 9.891754.943055 3.837998.920745 6.683457 3.324646 7.004013 7.506774.29802 3.888276-2.413452 5.992737-5.542129 7.539063-6.708649 3.315674-14.005081 4.298096-21.310089 4.838013-19.342026 1.429596-38.606156 1.159454-57.541329-3.791291-10.74794-2.81018-20.854782-6.952209-29.379829-14.323059-17.905979-15.481567-19.191002-41.578003-2.7038-58.633514 12.273731-12.696808 27.960262-18.267761 45.018596-20.550476 22.043541-2.949829 43.434853.912201 64.63012 6.544739 1.562683.415283 3.146087.752624 5.051361 1.204864-.773636-3.041016-2.748261-4.703857-4.292664-6.567535-11.397415-13.753815-21.716049-28.282044-31.117965-43.450226-1.984574-3.201691-3.951111-4.206879-7.662079-3.085449-14.052964 4.24649-28.42672 7.107788-43.052559 8.333648-27.656918 2.318116-39.945225-5.853149-54.435801-26.542358-1.321781-1.887177-1.021572-3.261231.540819-4.79129 1.614502-1.581055 3.148396-2.432709 5.204445-.788239 1.430187 1.143921 3.005974 2.113251 4.386238 3.310944 13.271153 11.515625 28.987519 14.379028 45.829285 12.603637 10.757233-1.133972 21.401863-3.15213 31.821365-6.153625 1.723984-.496582 3.607224-.781159 5.496605-2.652863-5.507637-10.923645-10.269416-22.451934-17.996818-32.329773-2.61805-3.346649-6.835556-3.92041-10.920799-4.02893-3.497689-.092896-6.998757-.067414-10.498375-.074524-1.733658-.00351-2.823624-.804901-3.255898-2.489746-.463722-1.807404-.122314-3.231964 1.671555-4.20401 12.088394-6.550446 24.455711-8.380158 37.33432-2.354431 2.924621 1.368377 4.449585 3.675537 5.423141 6.740814 3.273659 10.307098 6.443756 20.649414 10.708855 30.625305 1.523697 3.563843 3.252609 4.328857 6.836059 2.806641 11.385544-4.836518 22.358826-10.370484 32.459763-17.566926 3.399048-2.421661 6.922028-4.792907 11.251251-5.064727 4.385697-.275391 9.17305-.418061 11.274094 4.391662 2.233169 5.112213-1.140473 8.710907-4.913803 11.377808-7.763169 5.486877-16.043534 10.148437-24.695206 14.120605-1.210617.555817-2.442093 1.066163-4.01413 1.744782z"/><path d="m125.650246 612.682251c5.185997-9.344238 10.416343-18.218262 14.269752-27.873596 3.930741-9.84906 3.151352-19.156067-1.302368-28.476197-2.375534-4.971252-5.091553-9.737365-8.112061-14.342529-.950851-1.449829-2.652778-3.019897-.588378-4.777588 1.977249-1.683471 3.928604-4.034057 6.97969-2.267212 2.589844 1.499695 5.277771 2.964356 7.51857 4.909607 10.839752 9.410035 18.733734 20.719056 21.56665 35.064759 1.218399 6.169922-.411361 11.891967-3.247345 17.338928-7.180725 13.791626-16.520675 26.198059-25.258804 38.973266-21.441948 31.348389-43.714058 62.150696-62.306511 95.353089-6.444969 11.50946-11.689281 23.454101-14.1641 36.608276-2.457211 13.060486.149444 24.691406 7.300964 35.677979 13.268234 20.383545 27.560471 40.084533 40.308235 60.815368 20.032448 32.577393 38.12339 66.069947 49.300636 102.886719 3.490433 11.497131 5.907929 23.208862 7.180542 35.152832.480484 4.5094.098526 8.985535-.957519 13.390991-1.141724 4.76294-3.690918 8.44635-8.891586 8.832337-4.676896.347046-7.682831-2.553162-9.733994-6.553589-2.007126-3.91449-3.045624-8.162293-3.582718-12.425598-5.738479-45.55188-23.464531-86.847351-44.753418-126.905945-10.722412-20.175964-22.214912-39.942932-35.280178-58.641846-16.718574-23.927551-18.484672-48.610412-7.734547-75.25122 8.401871-20.821351 19.715592-40.020264 31.016999-59.260682 13.330497-22.694946 26.857963-45.27417 40.471489-68.228149z"/><path d="m213.293289 319.251953c-3.697494-.972961-5.569336-3.598602-7.365753-6.168213-7.102295-10.159118-15.485138-19.067535-25.360413-26.574219-1.373611-1.044189-3.446456-1.950134-2.009765-4.315032 1.324463-2.180085 2.966583-3.433686 5.762115-2.240021 10.767685 4.597626 20.975159 10.117462 29.40297 18.382232 3.71434 3.642456 6.648788 7.882447 6.613769 13.495881-.027908 4.475982-1.708435 7.391052-7.042923 7.419372z"/></svg>