<svg enable-background="new 0 0 208 1024" viewBox="0 0 208 1024" xmlns="http://www.w3.org/2000/svg"><path d="m209 421.531616c-5.750732 27.662842-24.5354 42.575592-48.921494 51.985077-21.845138 8.429108-44.786003 11.125122-67.982139 12.247833-2.700333.130707-3.956116-1.178436-4.255859-3.762359-.336243-2.89856 1.653091-3.237549 3.715476-3.541687 15.343987-2.262635 30.420464-5.635529 45.023667-10.936157 14.550354-5.281434 28.08902-12.249177 38.926971-23.647217 17.757935-18.675782 19.883805-46.699738 4.911652-66.875061-7.923126-10.676606-19.09053-16.336609-31.696488-19.48169-2.358581-.58844-4.380706-.322265-5.764221 2.440277-11.499695 22.96225-26.816925 43.274597-43.907844 62.295929-2.601998 2.895935-3.293114 5.393311-1.444344 8.890717 1.788071 3.382629 2.987473 7.079803 3.535835 10.882507.544388 3.775086.312905 7.483246-3.819625 9.375946-4.121415 1.887573-7.794564.938782-10.964775-2.174133-2.385743-2.34259-3.622056-5.497467-5.441155-8.404663-3.611015 1.372375-6.027115 3.96112-8.838287 5.944885-13.217434 9.327332-27.101628 17.131043-43.83074 17.497955-12.525801.27475-19.269546-6.798339-19.632677-19.376037-.450572-15.606262 5.43017-28.919769 14.329153-41.179535 11.857065-16.334992 27.161771-28.787628 44.692171-38.504089 4.218559-2.338196 5.726951-5.302521 6.135261-9.863282.842354-9.408935 2.214066-18.770477 3.393502-28.358734-3.342049-1.362121-6.618409-.620788-9.833367-.22348-6.815063.842194-13.66447.894073-20.452869.25943-13.325928-1.245789-21.919852-9.511475-28.691269-20.230683-1.300793-2.059204-.871048-3.571929.888243-5.221618 1.935529-1.814942 3.44778-1.399414 5.191825.107941 12.308356 10.638122 26.932978 12.126983 42.297858 10.650421 1.160377-.111512 2.314964-.311554 3.477295-.37024 11.62706-.587371 9.191307.491181 11.39627-10.571136.840638-4.217438.799981-8.602875 1.372437-12.883453.692757-5.180115-1.759224-7.789002-6.571976-8.787903-3.419304-.709656-6.804069-1.588776-10.22924-2.265839-1.836342-.363007-3.075493-1.033325-3.173382-3.143646-.099289-2.140442.71804-3.475037 2.807407-4.083954 13.237511-3.85791 25.411416-1.677612 36.249611 6.801422 4.335816 3.392059 4.7305 6.766358 1.421051 11.32544-4.178032 5.755645-5.271667 12.417877-6.980476 19.55194 5.956413.293152 11.065918-1.844024 16.230217-3.258117 12.3918-3.393128 24.229904-8.349335 35.983078-13.484253 4.884933-2.134216 9.763092-2.034088 14.543823.019623 6.219193 2.671692 6.928284 8.882538 1.546631 13.019012-3.086014 2.37204-6.835953 3.471069-10.449264 4.65976-18.518082 6.092163-37.378319 10.916931-56.567833 14.334045-3.704514.659668-5.595757 2.12207-6.18779 5.774811-1.347977 8.316803-3.397637 16.532013-3.794228 24.769562 1.552704 1.350311 2.810707.735656 4.06015.325103 11.605637-3.813812 23.548859-5.896148 35.68766-6.996765 1.583641-.143615 3.560265.277252 4.163048-1.881317.495377-1.773956-.423126-3.247009-1.502182-4.565033-2.149719-2.625732-4.984672-4.384949-7.846107-6.106476-1.721253-1.035583-2.886833-2.259033-1.735726-4.470245 1.00161-1.924072 2.398514-2.581451 4.512284-1.951965 6.095245 1.815246 11.986419 4.089508 17.263275 7.705261 2.994247 2.051727 5.289291 4.82727 5.682388 8.471313.367844 3.409882 2.181305 4.096649 5.167755 4.704254 25.824097 5.25412 44.859467 18.793641 53.508484 44.670472.841217 2.516815 1.427643 5.118744 2.266602 8.019714.134277 6.692902.134277 13.047302.134277 19.870117m-183.77319 21.474793c3.24519 5.402313 8.350769 4.125915 12.951375 3.150634 13.548698-2.8721 24.621738-10.589141 35.402336-18.797393 2.05587-1.565308 2.280075-3.475525 1.825248-5.752777-2.712509-13.581208-3.766319-27.310761-3.710319-41.145539.005646-1.394928.57093-2.993438-.781075-4.242126-.505699.099365-1.066826.059509-1.441162.304779-18.015266 11.803222-32.933388 26.463104-41.94779 46.362274-2.765257 6.104279-4.425354 12.562927-2.298613 20.120148m70.236462-79.964173c-6.799904 1.572083-10.431 5.295105-10.158287 12.829895.288948 7.98349.488998 15.949952 1.733063 23.848175.604728 3.839264.668945 7.861756 3.214447 11.789521 15.280868-16.732849 28.950287-33.956696 38.995872-55.335511-12.403602.636414-22.903801 2.723542-33.785095 6.86792z"/><path d="m18.702333 39.047367c2.671196-1.114925 4.090271.589718 5.561945 1.83971 11.718312 9.953125 25.220414 14.18652 40.586827 13.946869 11.852272-.184849 23.590591-1.420364 35.38047-2.190655 4.997581-.326511 7.539146-2.429332 7.418526-7.693141-.148827-6.494778-.012841-12.998715.119468-19.496262.072434-3.557018-1.575546-5.529652-4.916969-6.521784-4.816276-1.430048-9.761185-2.063839-14.715248-2.625252-2.566681-.290867-4.292244-.93469-4.746811-3.975222-.50412-3.371977 1.659493-3.859301 3.892288-4.680748 12.439667-4.576559 24.2818-2.756383 35.586197 3.529235 7.319344 4.069791 8.711037 8.214853 5.038559 15.593528-2.90741 5.84154-3.09153 12.207484-4.433327 18.348982-.55661 2.547619.602951 3.877938 3.326874 3.291455 13.976624-3.009293 28.230011-5.005188 41.403443-11.005032 5.016143-2.284611 10.048706-3.467274 15.44754-1.434498 3.791504 1.427574 7.135879 3.508049 7.376541 7.896797.251312 4.583092-3.18692 6.763356-6.949463 8.088284-15.444824 5.438702-31.436218 8.751285-47.558884 11.222141-14.584686 2.23515-14.677894 1.871334-15.573989 16.54533-.314507 5.150109-.503014 10.313629-.549607 15.472824-.049888 5.524864.777497 6.164475 6.064957 5.238312 14.131378-2.475265 28.058197-5.686119 41.272385-11.471458 4.742797-2.076455 9.462905-1.819481 13.95079.653823 5.557724 3.062897 6.075027 9.025918 1.286758 13.165841-2.737259 2.366607-6.13182 3.352981-9.47377 4.323639-15.219055 4.420349-30.775024 7.241699-46.490898 9.054344-4.460365.51445-6.172706 2.082557-5.726242 6.586563 1.049622 10.588623 2.012352 21.192489 2.651321 31.811783.24273 4.03392 2.269486 5.272491 5.750237 6.056991 16.040115 3.615128 31.216019 9.439926 45.18988 18.224182 5.091874 3.200867 10.003952 6.624741 14.262513 10.906311 2.881683 2.897278 5.004104 6.264069 5.82315 10.298996 1.404007 6.916718-4.224502 11.798859-10.899597 9.570389-2.773331-.925857-4.931442-2.722946-7.034958-4.636825-12.684006-11.540543-26.641785-21.067749-42.831528-27.057206-1.716354-.634979-3.448608-1.230438-5.191024-1.789581-.603546-.193695-1.260308-.221512-2.095215-.358246-1.463486 2.808457-.573921 5.668991-.671128 8.395661-.502975 14.108459-6.582 24.780761-19.749786 30.374984-20.331283 8.637604-40.72744 8.535416-60.008575-2.733581-16.980793-9.924561-17.358971-32.410233-1.218525-43.644989 10.703872-7.450562 23.081142-10.207352 35.794948-11.344574 7.608971-.680588 15.287773-1.377503 22.944222-.201416 3.363472.516678 4.938461-.63617 4.734787-4.312454-.515755-9.309388-.838684-18.630188-1.165375-27.949006-.150948-4.306167-2.239777-5.488151-6.448212-5.307029-11.95549.514541-23.888694 1.933487-35.913292.417396-6.530033-.823311-12.804924-2.174461-18.690784-5.043548-10.347637-5.043984-13.668091-14.679375-8.873486-25.074555 1.97876-4.290138 4.713437-8.037826 7.833081-11.53054 3.830784-4.288895 4.57975-4.28315 9.311901-.025726-.718201 2.929115-2.986431 5.05838-4.366238 7.673782-5.244705 9.941231-2.485042 16.053604 8.484272 18.022102 11.231735 2.015579 22.55867 1.35051 33.866181.74308 1.161575-.0624 2.311843-.316642 3.473213-.404342 10.439804-.788414 10.436394-.783325 10.441055-11.478951.00277-6.333153-.21962-12.678871.112076-18.995163.232452-4.426384-1.616646-5.407173-5.594086-5.093261-9.788315.772506-19.593666 1.360641-29.400657 1.854537-7.179581.36158-14.295304-.488403-21.337258-1.853416-14.62545-2.835014-25.231157-11.407211-33.438457-23.448273-1.752126-2.570572-1.252112-4.264492 1.676984-5.771137m85.392188 154.477383c3.681007-5.634918 4.756889-11.918625 4.83731-18.521485.037598-3.086349-1.102081-4.352737-4.226371-4.825302-9.598015-1.451751-19.2724-1.703201-28.820801-.657974-9.715981 1.063583-19.493145 2.925369-26.953964 10.275955-5.082264 5.007157-5.252739 11.580139-.486767 16.905197 2.876125 3.213517 6.621937 5.117951 10.739925 5.92302 11.569176 2.26178 23.112061 2.173828 34.434342-1.483124 4.016227-1.297195 7.503006-3.541229 10.476326-7.616287z"/><path d="m115.578323 534.357666c3.258347-4.280518 6.571061-4.667908 10.839318-1.658386 14.439186 10.181213 23.801353 23.600097 26.627739 41.161987.936813 5.820984-1.415833 11.1698-4.182236 16.169983-8.485245 15.337097-18.980713 29.364868-28.845017 43.796814-21.335121 31.214294-43.633934 61.809875-61.521045 95.236816-7.038056 13.152466-12.307572 26.909485-12.696018 42.17157-.152905 6.007385 1.050396 11.549561 3.530975 16.901917 4.085533 8.815307 9.694569 16.69519 15.21859 24.626037 24.786705 35.586609 48.213714 71.975098 65.960952 111.719727 9.468583 21.204834 17.035187 43.010864 20.47464 66.0625.930054 6.233215 1.557373 12.557861.299042 18.89331-1.215073 6.117676-4.517288 9.976136-9.219818 10.444031-4.379852.435791-8.468445-2.566345-10.67923-8.247192-3.656631-9.396301-4.312385-19.461609-6.064888-29.260803-5.149956-28.796448-15.959244-55.593995-28.197723-81.928894-13.440338-28.921143-29.581108-56.307312-46.934262-83.015442-2.90261-4.467408-5.558475-9.095826-8.299953-13.666932-9.508144-15.853759-11.350416-32.608886-6.718883-50.470336 5.93584-22.891297 17.372764-43.164124 29.05318-63.369019 18.341774-31.727722 38.170792-62.580688 55.74556-94.758301 1.91275-3.502075 3.582489-7.142212 5.25544-10.768799 5.061035-10.97113 5.146499-21.893249-.563591-32.677612-3.021355-5.706238-6.135056-11.363586-9.082772-17.362976z"/></svg>