<svg enable-background="new 0 0 334 1898" viewBox="0 0 334 1898" xmlns="http://www.w3.org/2000/svg"><path d="m1 734c0-244.639374 0-488.778732 0-732.959046h333.940369v1897.793275c-111.150544 0-222.361039 0-333.940369 0 0-388.000855 0-776.167481 0-1164.834229m66.5 55.9953c-14.413113 0-28.826229 0-43.138802 0v9.850952c4.613617.405457 9.060631.692505 13.481427 1.205506 10.732685 1.2453 15.628357 5.388855 17.430107 15.969848 1.166504 6.850586 1.636665 13.895203 1.651741 20.854615.124874 57.662475.166065 115.325683-.019055 172.987854-.032501 10.124206-.841823 20.290344-1.996013 30.356506-1.919777 16.743164-9.157974 25.244507-22.755608 27.554688-3.880514.659301-7.843176.835205-11.626537 1.218627v9.625489h87.416534c0-3.316895 0-6.41211 0-9.752442-3.101951-.298706-6.067688-.582641-9.033149-.869629-14.832345-1.435668-22.224068-8.346435-24.081864-23.130126-.827865-6.587647-1.249397-13.27002-1.258285-19.910279-.089257-66.661987-.055809-133.324219-.04506-199.986389.000252-1.573364.13807-3.146728.268441-5.931824 1.508064 2.092469 2.348327 3.223328 3.152633 4.379273 34.870415 50.11438 69.738945 100.230102 104.604668 150.347717 23.751083 34.140808 47.479843 68.297302 71.303467 102.387268 1.10466 1.580811 2.980484 3.577759 4.601196 3.676636 6.765015.41272 13.569855.173828 20.718048.173828 0-2.211792 0-4.005981 0-5.800171 0-73.994995-.104614-147.990295.124298-221.984619.030731-9.925171 1.074341-19.966309 2.839295-29.738709 2.553955-14.140686 10.509948-20.834167 24.732971-22.55719 2.780243-.336853 5.556915-.703002 8.405792-1.064575 0-3.300598 0-6.406311 0-9.591675-29.640228 0-59.039734 0-88.531555 0v9.598023c3.875153.411743 7.509491.724304 11.123245 1.194824 14.273956 1.85846 21.49617 8.763855 23.189377 22.986389 1.020264 8.569886 1.672241 17.237793 1.693695 25.863648.144226 57.995727.076904 115.991943.062378 173.988037-.000275 1.163025-.190979 2.326111-.362549 4.285217-1.715484-2.353149-2.913238-3.936645-4.049438-5.563171-53.258667-76.247559-106.531952-152.484986-159.690834-228.802124-2.072113-2.974793-4.175324-4.048035-7.715401-3.907044-7.154831.284973-14.32898.085022-22.495163.085022m-55.529466-667.504654c-4.768174 17.265305-4.104016 34.243134 2.996021 50.774094 2.355018 5.4832 5.440035 10.652695 7.7987 16.134521 6.619068 15.383576 13.050945 30.847916 19.52391 46.294114 6.746781 16.099624 21.772465 21.139328 36.066212 11.267746 6.766426-4.673081 13.429482-10.233414 18.305046-16.761689 12.214485-16.355026 24.414955-32.883972 34.750222-50.444244 20.208374-34.335312 36.466506-70.472374 44.105941-109.976769 3.176682-16.427021 1.530884-31.783153-8.76036-45.55875-.670029-.896917-1.144806-1.939724-1.78917-3.050438 1.066605-.324993 1.843964-.669807 2.653839-.784103 1.315583-.185657 2.651093-.279009 3.98053-.309929 17.937958-.417215 35.582565 1.426106 52.61734 7.342852 34.491165 11.979933 57.500077 35.142229 65.426224 71.061907 8.273376 37.493385 2.098755 73.24543-18.291016 105.924263-21.126144 33.859085-52.03833 55.412185-89.325332 68.408645-6.041855 2.105896-12.085663 4.206207-18.223572 6.342163 1.073761 2.453156 1.925446 4.398896 2.698044 6.163971.662292.131775 1.001709.297028 1.302658.243958 2.78334-.490357 5.559692-1.020386 8.33873-1.535248 30.361007-5.624817 59.157348-15.262878 84.772369-33.057129 41.165588-28.596939 64.8797-66.606628 62.991608-118.069305-1.418946-38.674889-15.976013-71.172131-47.372376-94.801655-24.94902-18.777123-53.788955-27.338534-84.637924-28.874564-34.027695-1.694305-66.546326 5.301965-97.213707 20.021344-40.246899 19.317243-68.888307 49.266783-82.713937 93.244245m37.50916 343.491288c-15.723148 40.760864-17.462574 82.504516-7.186428 124.590942 8.913117 36.504211 29.095452 65.119629 63.699196 81.770874 28.578446 13.75177 59.081162 15.814148 89.80806 10.866638 26.513061-4.269104 52.691849-10.614136 79.268295-16.092895.019135-.327149.097626-.970337.088318-1.612183-.357178-24.653625-.794586-49.30658-1.033356-73.961304-.056305-5.81427.332306-11.65686.905152-17.447937.973968-9.845886 4.76062-13.753173 14.549133-15.362487 4.527618-.744446 9.09906-1.222474 13.531219-1.805542 0-3.223084 0-6.015503 0-8.822083-32.4794 0-64.725479 0-96.908935 0v8.880249c5.125671.578919 9.961243.880859 14.705307 1.707764 13.102127 2.28363 17.725189 6.981445 18.07608 20.233093.639252 24.142212.565689 48.302551.963822 72.452515.056289 3.414001-.925309 5.326355-4.004227 7.017395-22.685242 12.459716-47.030335 17.09198-72.641785 15.58374-18.616607-1.096253-34.807434-8.01294-48.24839-21.141296-12.641922-12.347962-21.09539-27.252259-26.999329-43.735535-7.474739-20.868775-10.755775-42.518555-11.590644-64.562134-1.2267-32.38916 1.957496-64.119751 14.561889-94.415161 9.42788-22.660462 24.253685-39.93158 47.775833-48.687134 16.249054-6.048309 33.024308-7.063354 50.15239-5.40274 30.414581 2.948822 52.090088 20.239959 61.011749 49.417816 2.647568 8.658783 4.500763 17.560455 6.684326 26.217468h11.775574c0-27.88031 0-55.427826 0-83.637573-11.457519 5.924408-23.155502 7.218201-35.25853 4.905121-7.02066-1.341736-14.013732-2.830536-21.009552-4.299195-23.568649-4.947876-47.285095-6.072326-70.894943-1.012939-44.257324 9.483978-74.038368 36.374237-91.780224 78.354523m43.516018 961.516357c-.324028 7.981934-.362373 15.988037-1.039154 23.939941-1.011101 11.880005-6.262436 16.729126-18.201187 17.58313-3.786026.270752-7.570732.559937-11.333824.83899v9.671875h99.40493c0-3.404175 0-6.487061 0-9.717408-4.778183-.279174-9.269226-.468383-13.747742-.817993-11.45816-.893921-16.334808-5.329468-18.271652-16.654663-.447113-2.614258-.80162-5.282226-.814636-7.927246-.145065-29.484741-.216629-58.969727-.290634-88.454712-.00148-.59082.206253-1.182007.350494-1.956177 9.577301 0 18.887192.006226 28.197083-.001098 22.030349-.017578 43.938369-1.417603 65.346542-6.997681 27.625626-7.200684 47.750504-22.895752 53.838364-51.94873 2.423156-11.563965 2.934173-23.862183 2.188018-35.692139-1.988525-31.527954-19.323272-52.819702-49.517456-62.366211-18.780716-5.937866-38.243927-6.94165-57.764465-6.982056-34.650299-.071899-69.300857-.020263-103.951309-.020263-1.622742 0-3.245491.000122-4.941387.000122v9.531616c5.277675.569092 10.242115.961182 15.161174 1.668701 7.327309 1.054199 12.391686 4.937012 13.518364 12.542847.899422 6.071777 1.689927 12.229858 1.704087 18.351562.149864 64.802613.134384 129.605469.16439 195.407593m187.292893 382.732544c-6.637512-2.13208-13.20813-4.517456-19.939087-6.295654-3.679352-.972046-4.846207-2.842041-5.275192-6.454468-3.934922-33.135864-4.181946-66.428223-4.607377-99.720337-.038574-3.018555.766312-4.156372 3.935685-4.908447 12.759414-3.027588 25.554001-6.069092 38.035202-10.04773 7.837127-2.498169 15.371399-6.261108 22.564575-10.304809 2.747223-1.544434 5.429169-5.266724 5.885101-8.332032.650208-4.371704-3.781067-6.366211-7.34201-7.659179-4.490784-1.630616-9.209198-2.675171-13.878846-3.759644-3.835754-.890747-6.984527.347534-9.990173 3.060059-10.656982 9.617553-24.069733 13.284424-37.897781 17.440307 1.451965-19.749267 2.39476-38.838012 9.70311-56.922485 4.437561-10.980713 2.331054-16.472412-8.593262-20.875-13.471024-5.429077-27.625397-7.390137-42.063858-5.442383-3.588135.484009-6.927414 2.812744-10.381073 4.293457 4.580719 2.05188 8.65126 2.647461 12.603088 3.692017 12.897736 3.409424 17.494995 8.923706 17.962433 22.169678.487259 13.807495.588348 27.629028.801407 41.445312.083832 5.436524.013718 10.875366.013718 16.431763-16.961014 3.578247-33.506165 5.867676-50.42981 5.530151-17.407425-.347412-32.538116-6.935913-46.785782-16.26477-1.347153 1.672485-2.351959 2.920044-4.216354 5.234619 8.06633 6.036011 15.446716 12.572143 23.7556 17.562256 16.547409 9.938476 35.094421 10.385131 53.705612 9.230224 8.023849-.498047 16.016449-1.499145 24.836594-2.349975v100.005127c-.395463.034179-.881516.133667-1.360825.10791-2.659073-.143067-5.318024-.295044-7.974274-.483155-19.585083-1.387207-38.95375-.518188-57.590881 6.350586-12.323471 4.541993-23.122376 11.294556-28.802963 23.826172-8.125199 17.924805-.877289 37.518189 18.399337 46.740601 26.521271 12.688354 53.580689 11.817505 79.890885-.815186 11.838028-5.683838 19.186828-15.817993 20.998596-29.187866.72644-5.360718.698761-10.823608 1.032684-16.555176 9.734284 3.879883 18.43393 9.293579 26.13916 16.165039 7.576996 6.75708 14.685181 14.037476 22.194214 20.87378 7.90036 7.192627 13.550049 5.351806 15.532959-5.02649 2.156525-11.286987-1.259002-21.074096-8.956939-29.351074-8.597779-9.244262-19.671387-14.564941-31.903473-19.403198m-213.954018-19.460449c-5.209682 12.419189-10.419361 24.838379-15.821258 37.71582-.637333-1.08667-1.005173-1.48352-1.118008-1.942993-.832199-3.389038-1.748978-6.765381-2.38987-10.192139-5.78463-30.932129-3.316562-61.662353 2.561691-92.259155 5.452351-28.380005 14.816739-55.469238 27.809422-81.271484 2.826462-5.613038 4.298996-11.294068 2.27327-17.275513-5.607743-16.558716-15.87267-29.860352-29.740155-40.290527-2.886764-2.171265-6.89764-2.848023-10.073364-4.089478 3.245426 9.409424 6.919377 17.94751 9.085343 26.852417 3.006023 12.35852-1.00092 24.440063-3.497174 36.440918-7.960598 38.27063-16.402183 76.453613-18.828888 115.62085-1.914066 30.893432-.972305 61.624145 7.537381 91.581665 2.639759 9.29309 7.017082 18.19812 11.481422 26.823974 2.289505 4.423584 7.233372 6.660889 12.480549 5.192017 4.872509-1.363892 6.877456-5.450928 7.434006-10.242798.249008-2.144165.310882-4.309326.479728-6.463257.545288-6.956177.25383-14.106445 1.802605-20.832397 5.92482-25.729981 12.383423-51.338257 18.769356-76.960327 2.440155-9.790772 5.220749-19.496705 7.934196-29.56775-2.221939-.689331-4.027725-1.249511-5.966278-1.850952-7.413345 17.761841-14.629402 35.050904-22.213974 53.011109z" fill="#fff"/><g fill="#030303"><path d="m68 789.9953c7.666183 0 14.840332.199951 21.995163-.085022 3.540077-.140991 5.643288.932251 7.715401 3.907044 53.158882 76.317138 106.432167 152.554565 159.690834 228.802124 1.1362 1.626526 2.333954 3.210022 4.049438 5.563171.17157-1.959106.362274-3.122192.362549-4.285217.014526-57.996094.081848-115.99231-.062378-173.988037-.021454-8.625855-.673431-17.293762-1.693695-25.863648-1.693207-14.222534-8.915421-21.127929-23.189377-22.986389-3.613754-.47052-7.248092-.783081-11.123245-1.194824 0-3.144714 0-6.232483 0-9.598023h88.531555v9.591675c-2.848877.361573-5.625549.727722-8.405792 1.064575-14.223023 1.723023-22.179016 8.416504-24.732971 22.55719-1.764954 9.7724-2.808564 19.813538-2.839295 29.738709-.228912 73.994324-.124298 147.989624-.124298 221.984619v5.800171c-7.148193 0-13.953033.238892-20.718048-.173828-1.620712-.098877-3.496536-2.095825-4.601196-3.676636-23.823624-34.089966-47.552384-68.24646-71.303467-102.387268-34.865723-50.117615-69.734253-100.233337-104.604668-150.347717-.804306-1.155945-1.644569-2.286804-3.152633-4.379273-.130371 2.785096-.268189 4.35846-.268441 5.931824-.010749 66.66217-.044197 133.324402.04506 199.986389.008888 6.640259.43042 13.322632 1.258285 19.910279 1.857796 14.783691 9.249519 21.694458 24.081864 23.130126 2.965461.286988 5.931198.570923 9.033149.869629v9.752442c-29.168236 0-58.107292 0-87.416534 0 0-3.090454 0-6.156616 0-9.625489 3.783361-.383422 7.746023-.559326 11.626537-1.218627 13.597634-2.310181 20.835831-10.811524 22.755608-27.554688 1.15419-10.066162 1.963512-20.2323 1.996013-30.356506.18512-57.662171.143929-115.325379.019055-172.987854-.015076-6.959412-.485237-14.004029-1.651741-20.854615-1.80175-10.580993-6.697422-14.724548-17.430107-15.969848-4.420796-.513001-8.86781-.800049-13.481427-1.205506 0-3.163635 0-6.121398 0-9.850952z"/><path d="m12.035212 122.08625c13.760952-43.573066 42.40236-73.522606 82.649259-92.839849 30.667381-14.719379 63.186012-21.715649 97.213707-20.021344 30.848969 1.53603 59.688904 10.097441 84.637924 28.874564 31.396363 23.629524 45.95343 56.126766 47.372376 94.801655 1.888092 51.462677-21.82602 89.472366-62.991608 118.069305-25.615021 17.794251-54.411362 27.432312-84.772369 33.057129-2.779038.514862-5.55539 1.044891-8.33873 1.535248-.300949.05307-.640366-.112183-1.302658-.243958-.772598-1.765075-1.624283-3.710815-2.698044-6.163971 6.137909-2.135956 12.181717-4.236267 18.223572-6.342163 37.287002-12.99646 68.199188-34.54956 89.325332-68.408645 20.389771-32.678833 26.564392-68.430878 18.291016-105.924263-7.926147-35.919678-30.935059-59.081974-65.426224-71.061907-17.034775-5.916746-34.679382-7.760067-52.61734-7.342852-1.329437.03092-2.664947.124272-3.98053.309929-.809875.114296-1.587234.45911-2.653839.784103.644364 1.110714 1.119141 2.153521 1.78917 3.050438 10.291244 13.775597 11.937042 29.131729 8.76036 45.55875-7.639435 39.504395-23.897567 75.641457-44.105941 109.976769-10.335267 17.560272-22.535737 34.089218-34.750222 50.444244-4.875564 6.528275-11.53862 12.088608-18.305046 16.761689-14.293747 9.871582-29.319431 4.831878-36.066212-11.267746-6.472965-15.446198-12.904842-30.910538-19.52391-46.294114-2.358665-5.481826-5.443682-10.651321-7.7987-16.134521-7.100037-16.53096-7.764195-33.508789-2.931343-51.17849m20.459932 39.7902c1.183086 6.531433 1.881267 13.197708 3.652279 19.565628 3.466884 12.465637 8.914554 23.983734 18.644378 32.982483 5.833386 5.395111 10.317147 5.804809 16.247948.957916 4.110191-3.358963 8.408196-6.77301 11.567566-10.958573 10.603424-14.047531 21.55117-27.940353 30.872292-42.828308 18.453239-29.474014 34.110145-60.431389 43.88842-94.003219 3.921783-13.464649 7.213653-27.055973.766678-40.900261-1.469803-3.156224-2.707718-4.172775-6.213684-3.407358-30.65635 6.692833-57.515831 20.598981-79.753953 42.733675-26.213497 26.091568-41.596279 56.980865-39.671924 95.858017z"/><path d="m49.651508 465.636597c17.570042-41.634949 47.351086-68.525208 91.60841-78.009186 23.609848-5.059387 47.326294-3.934937 70.894943 1.012939 6.99582 1.468659 13.988892 2.957459 21.009552 4.299195 12.103028 2.31308 23.801011 1.019287 35.25853-4.905121v83.637573c-3.919006 0-7.828918 0-11.775574 0-2.183563-8.657013-4.036758-17.558685-6.684326-26.217468-8.921661-29.177857-30.597168-46.468994-61.011749-49.417816-17.128082-1.660614-33.903336-.645569-50.15239 5.40274-23.522148 8.755554-38.347953 26.026672-47.775833 48.687134-12.604393 30.29541-15.788589 62.026001-14.561889 94.415161.834869 22.043579 4.115905 43.693359 11.590644 64.562134 5.903939 16.483276 14.357407 31.387573 26.999329 43.735535 13.440956 13.128356 29.631783 20.045043 48.24839 21.141296 25.61145 1.50824 49.956543-3.124024 72.641785-15.58374 3.078918-1.69104 4.060516-3.603394 4.004227-7.017395-.398133-24.149964-.32457-48.310303-.963822-72.452515-.350891-13.251648-4.973953-17.949463-18.07608-20.233093-4.744064-.826905-9.579636-1.128845-14.705307-1.707764 0-2.819641 0-5.7052 0-8.880249h96.908935v8.822083c-4.432159.583068-9.003601 1.061096-13.531219 1.805542-9.788513 1.609314-13.575165 5.516601-14.549133 15.362487-.572846 5.791077-.961457 11.633667-.905152 17.447937.23877 24.654724.676178 49.307679 1.033356 73.961304.009308.641846-.069183 1.285034-.088318 1.612183-26.576446 5.478759-52.755234 11.823791-79.268295 16.092895-30.726898 4.94751-61.229614 2.885132-89.80806-10.866638-34.603744-16.651245-54.786079-45.266663-63.699196-81.770874-10.276146-42.086426-8.53672-83.830078 7.358242-124.936279z"/><path d="m92.995743 1426.998657c-.030037-65.30249-.014557-130.105346-.164421-194.907959-.01416-6.121704-.804665-12.279785-1.704087-18.351562-1.126678-7.605835-6.191055-11.488648-13.518364-12.542847-4.919059-.707519-9.883499-1.099609-15.161174-1.668701 0-2.982422 0-6.027344 0-9.531616 1.695896 0 3.318645-.000122 4.941387-.000122 34.650452 0 69.30101-.051636 103.951309.020263 19.520538.040406 38.983749 1.04419 57.764465 6.982056 30.194184 9.546509 47.528931 30.838257 49.517456 62.366211.746155 11.829956.235138 24.128174-2.188018 35.692139-6.08786 29.052978-26.212738 44.748046-53.838364 51.94873-21.408173 5.580078-43.316193 6.980103-65.346542 6.997681-9.309891.007324-18.619782.001098-28.197083.001098-.144241.77417-.351974 1.365357-.350494 1.956177.074005 29.484985.145569 58.969971.290634 88.454712.013016 2.64502.367523 5.312988.814636 7.927246 1.936844 11.325195 6.813492 15.760742 18.271652 16.654663 4.478516.34961 8.969559.538819 13.747742.817993v9.717408c-32.986099 0-66.042625 0-99.40493 0 0-3.12732 0-6.208374 0-9.671875 3.763092-.279053 7.547798-.568238 11.333824-.83899 11.938751-.854004 17.190086-5.703125 18.201187-17.58313.676781-7.951904.715126-15.958007 1.039185-24.439575m144.857467-130.901855c.711869-11.582276 2.473267-23.214112 1.927414-34.736817-1.329254-28.05896-16.788131-47.828857-41.947372-55.106689-22.659363-6.554566-45.889084-3.57898-68.881195-4.300293v139.418823c15.243149 0 30.24353.633423 45.157501-.228271 9.525437-.550537 19.106171-2.656617 28.336472-5.232178 15.099853-4.213257 26.008423-13.706543 31.659454-28.653198 1.290268-3.412598 2.367172-6.906006 3.747726-11.161377z"/></g><path d="m280.625732 1810.42041c11.894959 4.648682 22.968567 9.969361 31.566346 19.213623 7.697937 8.276978 11.113464 18.064087 8.956939 29.351074-1.98291 10.378296-7.632599 12.219117-15.532959 5.02649-7.509033-6.836304-14.617218-14.1167-22.194214-20.87378-7.70523-6.87146-16.404876-12.285156-26.13916-16.165039-.333923 5.731568-.306244 11.194458-1.032684 16.555176-1.811768 13.369873-9.160568 23.504028-20.998596 29.187866-26.310196 12.632691-53.369614 13.50354-79.890885.815186-19.276626-9.222412-26.524536-28.815796-18.399337-46.740601 5.680587-12.531616 16.479492-19.284179 28.802963-23.826172 18.637131-6.868774 38.005798-7.737793 57.590881-6.350586 2.65625.188111 5.315201.340088 7.974274.483155.479309.025757.965362-.073731 1.360825-.10791 0-33.25708 0-66.435913 0-100.005127-8.820145.85083-16.812745 1.851928-24.836594 2.349975-18.611191 1.154907-37.158203.708252-53.705612-9.230224-8.308884-4.990113-15.68927-11.526245-23.7556-17.562256 1.864395-2.314575 2.869201-3.562134 4.216354-5.234619 14.247666 9.328857 29.378357 15.917358 46.785782 16.26477 16.923645.337525 33.468796-1.951904 50.42981-5.530151 0-5.556397.070114-10.995239-.013718-16.431763-.213059-13.816284-.314148-27.637817-.801407-41.445312-.467438-13.245972-5.064697-18.760254-17.962433-22.169678-3.951828-1.044556-8.022369-1.640137-12.603088-3.692017 3.453659-1.480713 6.792938-3.809448 10.381073-4.293457 14.438461-1.947754 28.592834.013306 42.063858 5.442383 10.924316 4.402588 13.030823 9.894287 8.593262 20.875-7.30835 18.084473-8.251145 37.173218-9.70311 56.922485 13.828048-4.155883 27.240799-7.822754 37.897781-17.440307 3.005646-2.712525 6.154419-3.950806 9.990173-3.060059 4.669648 1.084473 9.388062 2.129028 13.878846 3.759644 3.560943 1.292968 7.992218 3.287475 7.34201 7.659179-.455932 3.065308-3.137878 6.787598-5.885101 8.332032-7.193176 4.043701-14.727448 7.80664-22.564575 10.304809-12.481201 3.978638-25.275788 7.020142-38.035202 10.04773-3.169373.752075-3.974259 1.889892-3.935685 4.908447.425431 33.292114.672455 66.584473 4.607377 99.720337.428985 3.612427 1.59584 5.482422 5.275192 6.454468 6.730957 1.778198 13.301575 4.163574 20.276214 6.485229m-48.731048 7.459717c-20.081558-5.35376-40.319672-6.345703-60.680725-1.86731-7.885651 1.734375-15.247086 4.776123-20.902085 10.869507-8.641311 9.31128-7.399063 22.673584 2.971131 29.918335 3.082214 2.15332 6.603454 3.968872 10.191101 5.057739 15.591278 4.731934 31.228302 4.153687 46.557556-1.103393 11.564804-3.966065 18.922836-12.323853 21.37738-24.261109 1.22049-5.935302.916184-12.184204.485642-18.613769z" fill="#040404"/><path d="m66.518845 1790.434814c7.400314-17.624633 14.616371-34.913696 22.029716-52.675537 1.938553.601441 3.744339 1.161621 5.966278 1.850952-2.713447 10.071045-5.494041 19.776978-7.934196 29.56775-6.385933 25.62207-12.844536 51.230346-18.769356 76.960327-1.548775 6.725952-1.257317 13.87622-1.802605 20.832397-.168846 2.153931-.23072 4.319092-.479728 6.463257-.55655 4.79187-2.561497 8.878906-7.434006 10.242798-5.247177 1.468872-10.191044-.768433-12.480549-5.192017-4.46434-8.625854-8.841663-17.530884-11.481422-26.823974-8.509686-29.95752-9.451447-60.688233-7.537381-91.581665 2.426705-39.167237 10.86829-77.35022 18.828888-115.62085 2.496254-12.000855 6.503197-24.082398 3.497174-36.440918-2.165966-8.904907-5.839917-17.442993-9.085343-26.852417 3.175724 1.241455 7.1866 1.918213 10.073364 4.089478 13.867485 10.430175 24.132412 23.731811 29.740155 40.290527 2.025726 5.981445.553192 11.662475-2.27327 17.275513-12.992683 25.802246-22.357071 52.891479-27.809422 81.271484-5.878253 30.596802-8.346321 61.327026-2.561691 92.259155.640892 3.426758 1.557671 6.803101 2.38987 10.192139.112835.459473.480675.856323 1.118008 1.942993 5.401897-12.877441 10.611576-25.296631 16.005516-38.051392z" fill="#040404"/><path d="m32.44709 161.420258c-1.876301-38.42096 13.506481-69.310257 39.719978-95.401825 22.238122-22.134694 49.097603-36.040842 79.753953-42.733675 3.505966-.765417 4.743881.251134 6.213684 3.407358 6.446975 13.844288 3.155105 27.435612-.766678 40.900261-9.778275 33.57183-25.435181 64.529205-43.88842 94.003219-9.321122 14.887955-20.268868 28.780777-30.872292 42.828308-3.15937 4.185563-7.457375 7.59961-11.567566 10.958573-5.930801 4.846893-10.414562 4.437195-16.247948-.957916-9.729824-8.998749-15.177494-20.516846-18.644378-32.982483-1.771012-6.36792-2.469193-13.034195-3.700333-20.02182z" fill="#fefefe"/><path d="m237.750473 1296.496338c-1.277817 3.855835-2.354721 7.349243-3.644989 10.761841-5.651031 14.946655-16.559601 24.439941-31.659454 28.653198-9.230301 2.575561-18.811035 4.681641-28.336472 5.232178-14.913971.861694-29.914352.228271-45.157501.228271 0-46.067261 0-92.460205 0-139.418823 22.992111.721313 46.221832-2.254273 68.881195 4.300293 25.159241 7.277832 40.618118 27.047729 41.947372 55.106689.545853 11.522705-1.215545 23.154541-2.030151 35.136353z" fill="#fefefe"/><path d="m232.302704 1818.041382c.022522 6.26831.326828 12.517212-.893662 18.452514-2.454544 11.937256-9.812576 20.295044-21.37738 24.261109-15.329254 5.25708-30.966278 5.835327-46.557556 1.103393-3.587647-1.088867-7.108887-2.904419-10.191101-5.057739-10.370194-7.244751-11.612442-20.607055-2.971131-29.918335 5.654999-6.093384 13.016434-9.135132 20.902085-10.869507 20.361053-4.478393 40.599167-3.48645 61.088745 2.028565z" fill="#fdfdfd"/></svg>