<svg enable-background="new 0 0 1024 240" viewBox="0 0 1024 240" xmlns="http://www.w3.org/2000/svg"><path d="m61.399994 241c-2.598911-3.276947-.603562-5.50766 1.437294-7.847412 24.0755-27.60138 38.840446-59.816177 47.215332-95.218689 1.728111-7.30513 2.644897-14.713448 3.506111-22.140915.37281-3.215347-.121452-6.386192-1.54615-9.248245-1.88887-3.794533-4.427605-6.273453-9.44471-5.405281-19.750809 3.417709-39.24601 7.841125-57.214302 16.933975-8.96394 4.536194-16.153744 3.147041-23.296064-3.071274-5.989113-5.214302-11.024111-11.088531-14.093925-18.496048-1.257161-3.033562-1.936018-6.041572.239275-8.92987 1.523153-.397767 2.2098.638496 2.892331 1.547325 7.120856 9.481872 16.908747 11.914444 28.001673 10.226288 14.787422-2.25039 29.485661-5.111413 44.296589-7.17669 19.750938-2.754112 39.561134-5.099746 59.368851-7.425262 16.820999-1.974846 33.79927-2.648895 50.10144-8.119454 8.672623-2.910293 26.852829 5.230042 31.556335 13.350213 2.42067 4.179077.990479 7.881355-3.598449 9.445617-2.444443.83326-4.864578.776703-7.379715.304718-29.050293-5.451462-58.260636-5.211181-87.537552-2.361923-.822121.08001-1.638107.269569-2.442871.465805-.588371.143479-1.15358.381897-2.269516.762131 2.895065 1.997978 5.384056 3.59716 7.744766 5.367424 6.736313 5.051452 9.70694 11.362099 7.57341 20.009384-9.881569 40.050491-26.676865 76.267319-57.480141 104.801621-4.390106 4.066757-9.092765 7.796096-13.840393 11.954071-1.256282.272491-2.322952.272491-3.789619.272491z"/><path d="m444.05249 41.389404c7.270539-1.759735 13.640686.133763 19.575287 3.326111 5.554962 2.988129 5.495178 8.674233-.081268 11.674954-9.298859 5.003749-19.660767 7.213581-29.567841 10.605373-8.815582 3.018127-17.744568 5.724823-26.697357 8.31356-4.229095 1.222863-6.467987 2.651833-5.135284 7.892708 2.823883 11.105088 4.913787 22.397652 7.262268 33.622208.636291 3.041252 1.976471 4.052208 5.258423 3.095863 19.337951-5.635002 38.867034-10.661545 56.81607-20.231704 7.318695-3.902184 24.884735.572021 29.775482 7.299194 3.016419 4.149048.997589 8.279953-4.745392 9.151657-7.891845 1.197861-15.851745 1.951859-23.737884 3.181892-18.603577 2.90165-36.831696 7.457718-54.928925 12.615761-3.97882 1.134049-3.775879 3.325882-2.973358 6.408783 6.661682 25.592529 13.297424 51.191986 19.850098 76.812592 1.393036 5.446884 3.263 10.912231 1.890411 16.674743-1.468139 6.163651-5.677124 8.004212-11.251159 5.021943-11.403199-6.101029-17.244141-17.673752-16.319977-30.511033.792907-11.013488-1.573059-21.851486-3.456543-32.650009-1.857147-10.647369-4.044922-21.237594-6.153443-31.839813-.214874-1.080383-.881256-2.070953-1.472076-3.405899-10.074951 2.406876-19.550629 5.977417-28.99292 9.624008-10.415771 4.022553-20.759125 8.245011-30.339172 14.054917-7.924378 4.805847-15.418366 4.070678-22.914521-.995591-6.417114-4.337021-12.296661-9.16069-16.258697-15.951782-1.53186-2.625687-2.608124-5.368225-1.04599-8.382996 2.411316-.559844 3.435913 1.365372 4.744354 2.430924 7.991333 6.508041 17.055878 7.971924 26.827606 5.738937 21.289276-4.864944 41.759949-12.532333 62.727509-18.505165 1.998352-.569259 3.050232-1.554985 2.462738-4.003364-3.104614-12.938774-6.052338-25.915177-9.081207-38.872269-.105622-.451866-.494049-.837639-1.085694-1.798203-6.415832 1.67508-12.947052 3.450325-19.514587 5.079087-10.672974 2.646919-21.34964 5.33583-32.51712 3.511322-11.078888-1.810013-20.359742-7.014778-28.25409-14.859764-1.357513-1.349037-2.522644-2.76696-.997589-4.759476 1.231171-1.608528 2.605286-1.166206 3.943512-.267494 17.093567 11.479431 35.241669 8.420234 53.456177 3.804474 5.804443-1.470925 11.503906-3.353722 17.262176-5.010552 2.430725-.699394 3.770905-1.995392 3.059143-4.725204-2.896331-11.108277-5.377502-22.330368-9.869659-32.972176-3.946655-9.349569-10.793427-14.512457-20.949493-15.256393-1.448731-.106121-3.049134.109352-4.324738-1.581954 1.684326-3.423488 4.961975-4.49403 8.352814-5.011625 11.076233-1.690749 21.943817-.117292 32.514465 3.102217 8.198639 2.497069 9.851166 6.354021 8.646332 14.781969-1.664826 11.645619.081055 23.083233 2.891998 35.023293 16.019684-5.764916 31.638367-10.925259 45.349121-21.256024z"/><path d="m643.787842 62.951965c-8.630188 2.177834-16.823364 4.358391-24.690186 7.650559-4.609619 1.929069-9.298706 1.706062-13.256897-1.452225-8.924133-7.12067-14.132385-16.705265-16.943847-27.581886-.71045-2.748741-.876648-5.966591 1.87799-8.305756 2.717774.778603 3.273743 3.348267 4.371949 5.209324 6.536316 11.077091 16.69226 13.423443 28.429809 12.168739 22.996582-2.458255 45.896301-5.523685 68.42511-10.922092 4.420532-1.05925 8.588806-2.743874 12.387573-5.192944 3.6521-2.354564 7.201966-2.29253 10.81366-.16492 5.948914 3.504386 11.178284 7.858692 15.224609 13.497184 2.5448 3.546254 3.157105 7.436966-.823364 10.104016-6.757629 4.527809-11.007385 11.056217-15.259582 17.615802-10.523011 16.23317-22.138489 31.671509-33.858033 47.03933-.697754.914856-1.232727 1.953735-1.835205 2.921684.821472 2.273659 2.941223 2.700478 4.627686 3.632195 20.411926 11.276886 41.101196 22.093216 59.259521 36.996032 11.940064 9.799347 19.772888 21.552063 18.757202 37.747178-.010376.166122.007569.334594-.009887.499618-.533264 5.036835-.900452 10.731644-6.598328 12.342972-5.969849 1.688217-8.464111-3.730301-10.721435-7.822617-16.186341-29.344009-39.297059-52.336761-65.780762-72.26744-5.497071-4.136948-5.646851-4.086991-9.912659 1.039901-26.109497 31.379975-57.331055 56.509064-93.076538 76.079941-5.105469 2.795303-10.445068 5.175079-15.743591 7.600052-2.070557.947632-4.388001 3.240936-6.410584-.199478-2.038635-3.467728 1.032044-4.339096 2.96991-5.603531 22.388428-14.608246 43.580383-30.754547 62.482788-49.699204 31.265503-31.335357 57.577942-66.396476 78.240356-105.609649 1.158875-2.199288 2.000306-4.569157 2.925599-6.88514.167541-.419338.023925-.963009.023925-2.158477-19.096313 1.546958-37.260742 6.779293-55.896789 11.720832z"/><path d="m917.774048 151.000214c1.467407-28.964096.977844-57.453362.81665-85.932877-.056396-9.962532-1.022888-19.923309-1.675781-29.878204-.787659-12.011124-7.053284-20.126791-17.956177-24.881853-.875305-.381784-1.649231-.996123-2.711059-1.650811 1.358764-2.701656 3.609375-3.013009 5.922973-2.9591 13.39032.312009 25.500183 4.529107 36.170838 12.541366 4.793884 3.599526 5.666076 7.516396 3.451355 13.210198-2.879639 7.403495-3.859864 15.190891-4.308655 22.956169-.652771 11.292705-1.527832 22.591343-1.264038 33.936687.082886 3.564301.796448 5.235123 4.803467 5.77903 18.323608 2.487236 36.383972 6.25985 53.846252 12.528908 4.710205 1.691017 9.34668 3.523819 13.606567 6.203117 9.536866 5.998177 12.701722 13.066124 10.776673 24.135117-1.448487 8.328689-7.139282 10.570862-13.387024 4.926361-13.425903-12.129578-27.737549-22.902649-44.294861-30.441307-7.847168-3.572861-15.823425-6.789299-23.954163-9.026863-1.981872 1.818329-1.360961 3.768783-1.361206 5.503723-.00415 30.488617-.019348 60.977508.118592 91.465683.039123 8.650375.564941 17.298324.851074 25.947937.077454 2.342239-.065735 4.665542-.90802 6.891067-1.545532 4.083786-5.306275 5.698639-9.240112 3.969208-8.908265-3.916305-17.52533-19.367569-15.080323-28.794174 4.772156-18.398987 5.228028-37.148254 5.776978-56.429382z"/><path d="m58.010628 33.977562c-2.374985-3.025326-4.542156-5.760504-6.634911-8.551479-.976368-1.302128-1.405952-2.683628.199238-3.916882 1.394226-1.071173 2.793087-1.898443 4.445847-.449018.750133.657846 1.573814 1.23516 2.296966 1.919933 11.296887 10.697397 24.815098 13.095278 39.782444 11.313394 17.629334-2.098793 34.601082-6.165775 50.762886-13.712751 8.710495-4.06749 22.239853 1.740549 26.148529 10.587389 1.823288 4.126804.563462 6.725857-4.623291 8.60265-8.330139 3.014209-17.112869 4.104183-25.800079 5.434631-15.77031 2.415238-31.637123 4.138321-47.589096 4.651432-15.123566.486469-28.661576-3.392563-38.988533-15.879299z"/></svg>