<svg enable-background="new 0 0 256 1024" viewBox="0 0 256 1024" xmlns="http://www.w3.org/2000/svg"><path d="m212.516068 27.434155c-5.286072 10.981571-11.534577 21.004791-18.113373 31.975872 7.446609 0 14.263244.676693 20.852859-.253968 3.948425-.557644 5.723755-5.360107 7.85344-8.633758 2.601165-3.998337 4.750839-4.849324 8.418334-1.239125 4.028473 3.965496 8.530808 7.445939 12.74321 11.23061 1.17984 1.060036 2.867051 2.143906 2.208359 4.11908-.654007 1.961128-2.442184 2.648636-4.335632 2.881012-1.977753.242714-3.973007.468086-5.961518.475975-8.331878.033073-16.664184-.003197-24.996185-.043099-7.804336-.037368-7.808121-.053474-7.809555 7.490448-.00177 9.332001-.067734 18.664986.059891 27.99527.029236 2.137337-1.29686 5.497032 1.71196 6.066101 3.695373.698899 8.027008 2.068184 11.142715-1.81868 1.874527-2.338493 3.690079-4.731803 5.401123-7.191604 1.606812-2.309937 3.239731-2.496468 5.338532-.631783 4.356842 3.870865 8.908371 7.530815 13.142364 11.528984 3.083542 2.911789 2.266937 5.732911-1.914657 6.750832-2.557663.622604-5.280243.737633-7.932496.769508-7.497772.090126-14.998046.071793-22.496139-.012275-3.096069-.034706-4.528839 1.082847-4.496475 4.393097.115707 11.83052.081909 23.663116.011261 35.494369-.01619 2.710358 1.044128 3.570252 3.760254 4.02208 7.546707 1.255447 12.397598-2.008255 15.688064-8.367203 2.148178-4.151398 4.474014-4.663605 7.931534-1.176132 3.627701 3.659118 7.721024 6.852447 11.513245 10.355026 1.274536 1.1772 3.249817 2.297851 2.427093 4.492538-.862457 2.30066-3.001343 2.975602-5.263183 3.13147-1.493729.102936-2.997651.07431-4.49704.075684-8.998749.008285-17.998215.074569-26.995819-.025528-3.092865-.034394-4.593689.959121-4.571213 4.292099.092193 13.664123.100082 27.329742-.01207 40.993591-.027008 3.290146 1.352692 4.117111 4.447998 4.425812 7.216263.719681 12.456818-1.139527 16.76767-7.656357 5.437668-8.220276 4.598984-6.337845 10.945206-1.040588 3.958496 3.304168 7.68399 6.909729 11.314621 10.577453 2.951797 2.98198 2.326721 5.118729-1.599061 6.578598-2.240341.833084-4.581756.759857-6.915969.759293-23.830017-.005799-47.661362.122192-71.488907-.122681-4.759186-.048889-6.493103 1.271561-6.321701 6.068482.242416 6.784408-7.507309 12.00148-14.268967 10.037353-1.56662-.455063-2.180603-1.436981-2.277328-2.860168-.112793-1.659821-.114731-3.329163-.11467-4.994385.001556-46.326859.009475-92.653702.016296-138.98056.00026-1.817246.000031-3.634491.000031-6.672699-4.697449 6.314659-8.663193 11.720306-12.727616 17.050712-.884674 1.16024-1.992279 2.275025-3.236648 2.999489-1.118492.651184-2.235459-.269249-3.091965-1.071854-1.634605-1.531723-.604172-3.092933.146721-4.539459 6.153099-11.853432 11.185081-24.181526 15.585884-36.773811 6.489609-18.5691 11.593155-37.521961 15.043335-56.88246.791763-4.442966 2.299789-5.581903 6.628128-4.215736 6.744034 2.128638 13.652374 3.736697 20.419037 5.546097-.41005 4.108875-2.935532 5.29055-5.47992 5.938058-2.685485.683413-3.690841 2.316931-4.422699 4.727459-2.951492 9.721341-6.21376 19.347435-10.271804 28.665692-1.703263 3.911121-.164765 5.318062 3.456161 5.396885 5.663269.123272 11.333664-.053109 16.995423.102119 3.424453.093884 4.03984-2.26445 4.763336-4.713856 3.961654-13.411838 7.416961-26.957418 9.912613-40.713895.701156-3.864887 2.158554-4.609885 5.685119-3.585352 6.820679 1.981538 13.725144 3.674654 20.586228 5.485035-.034317 3.83568-2.335038 5.103546-4.757553 5.513427-3.409745.576926-5.268311 2.474793-6.547882 5.811406m-25.455109 185.941226c-.005966-12.332962-.069672-24.66632.019104-36.998611.024917-3.462982-.975357-5.256958-4.843384-5.105469-5.824249.228104-11.665787.145661-17.496399.023789-2.86499-.059876-4.360168.809936-4.308822 3.940933.226745 13.826233.374359 27.653946.499221 41.481567.026322 2.914536 1.288056 4.228958 4.251816 4.179612 5.164902-.08603 10.356552-.314942 15.492325.086807 5.228607.408996 7.014801-1.785294 6.386139-7.608628m-26.641876-57.519851c.221634 6.834259.221634 6.839203 6.915802 6.842987 5.162719.002914 10.327652-.100937 15.487335.021652 2.999863.071289 4.214874-1.203323 4.205231-4.137161-.038819-11.823609-.015839-23.647476.014083-35.471184.007416-2.927452-1.388549-4.213364-4.293762-4.182945-5.994644.062752-11.990692.071823-17.985397.017517-3.180176-.028793-4.345871 1.339645-4.307495 4.571922.124527 10.487023-.006577 20.977089-.035797 32.337212m26.519317-84.904938c-.311889-2.719238-2.335006-2.899345-4.408233-2.91832-6.150437-.056312-12.305634.048348-18.44986-.168312-2.988174-.105362-3.706543 1.226296-3.691269 3.861794.065521 11.30394.103073 22.609207-.011856 33.91233-.033554 3.298829 1.366364 4.400231 4.48381 4.335968 5.64972-.11647 11.309525-.185821 16.953736.027031 3.879791.146309 5.345688-1.365165 5.29274-5.224563-.150528-10.96975-.07425-21.94262-.169068-33.825928z"/><path d="m112.787987 357.814392c-9.323776 7.619049-17.774575 15.628845-25.485024 24.423126-1.560295 1.779602-1.935501 3.722504-1.992676 5.963562-.701698 27.502014.526917 54.910401 3.727822 82.237183.826462 7.055633.113396 13.985138-2.869621 20.53186-1.80906 3.970215-4.313622 7.493683-9.227265 7.117554-5.159592-.394989-7.40525-4.309814-8.118484-8.838501-2.695832-17.117371-11.569565-31.41214-20.489754-45.705811-.42255-.677063-1.078121-1.208709-2.238323-2.479888-3.438237 4.839874-6.663227 9.375305-9.883568 13.914032-2.698998 3.803924-5.21727 7.753265-8.142359 11.374237-2.466038 3.052734-5.614899 5.742767-9.893339 3.766937-4.15764-1.920105-5.16045-5.97522-4.954203-10.133301.269047-5.424042 3.221426-9.623138 6.760043-13.568542 19.05323-21.24347 36.158943-43.987214 52.250125-67.539368 3.022416-4.423828 2.208001-9.241242 3.321724-13.832398.611885-2.52243.464524-5.229064.737877-8.907562-9.678627 5.725159-19.727119 9.349671-27.508247 16.826996-6.083283 5.845703-8.693489 6.524048-15.810192 2.183136-8.684109-5.296875-14.6535-12.544617-14.342039-23.492035.062872-2.209839-.07165-4.287201 2.799938-5.100372 2.77174-.784943 3.46233 1.155914 4.522564 2.811523 5.90904 9.227356 7.696878 9.921112 18.011415 6.317597 10.876591-3.799927 21.086586-9.112427 31.418129-14.143341 2.124718-1.034638 3.191979-2.441101 3.459908-4.948517 1.112404-10.410156 2.564171-20.783631 3.720718-31.189575.658806-5.927491-1.175629-8.516999-6.907486-10.34964-3.169105-1.013245-6.373192-1.922669-9.582367-2.802857-1.76503-.484131-3.022308-1.300049-3.147297-3.321441-.133281-2.155518.928124-3.305939 2.846234-4.14151 12.248466-5.335633 28.03865-.494934 35.334747 10.8096 2.816368 4.363709 2.762871 8.733124.639954 13.284424-3.825524 8.201477-5.868966 16.965698-8.056115 25.683106-.456443 1.819244-.618888 3.461578.807763 5.123443 7.632049 8.890351 7.596969 8.920472 1.786438 19.259095 3.768432-2.884369 6.501838-4.926331 9.181884-7.036072 15.40931-12.130249 31.476937-23.068848 50.988304-27.570832 6.544388-1.510009 13.186753-1.989044 19.769898-.087799 12.490143 3.607209 19.499191 14.133027 20.08638 29.587098.639786 16.837982-3.677689 32.997406-6.463776 49.368286-2.12001 12.457-4.515686 24.882965-4.503631 37.585663.013 13.69345 6.960693 19.218811 20.5475 18.457855 14.702988-.823487 26.321106-7.489472 37.176514-16.450043 1.817154-1.499939 3.380844-3.882233 6.265228-1.098846 2.787277 2.689636 1.305115 4.6138-.398163 6.837463-10.533462 13.751678-23.453735 23.987518-40.690002 28.040192-22.683243 5.333435-39.998276-8.023468-40.545929-31.324738-.414078-17.617981 3.550888-34.675995 6.502792-51.870575 2.445328-14.243683 5.111176-28.443146 3.60759-43.07016-1.309433-12.738373-8.9664-18.812835-21.434662-16.482513-17.049667 3.186523-30.280403 13.275757-43.586967 23.982269m-60.009094 73.327362c-2.097378 2.323395-.780251 4.267273.684246 6.19986 4.828723 6.372192 9.616554 12.776062 14.51205 19.096527 1.056328 1.363769 1.817497 3.242248 4.43853 3.479858 0-18.752105 0-37.402954 0-56.99591-6.748298 9.701446-12.989815 18.674316-19.634826 28.219665z"/><path d="m96.372131 171.662476c5.884262 6.934875 10.030106 14.174758 8.978081 23.372757-.717499 6.273162-5.97377 9.505523-10.881019 6.843734-2.455124-1.331695-2.635247-3.559372-3.101769-5.864181-2.19677-10.853104-2.21804-10.807221-12.620132-7.576554-7.947556 2.468354-15.929982 4.824555-23.898667 7.224762-3.935005 1.185273-8.065307 1.778962-10.689152 5.704194-1.139858 1.705215-3.387619 2.66719-4.734481-.150254-2.557537-5.350021-4.945477-10.781112-7.814249-17.079544 5.566785-.526123 10.117845-1.005661 14.678358-1.365158 2.089138-.164688 3.919544-.276916 4.420299-2.964081 1.76107-9.450317 3.635224-18.878769 4.553875-29.401489-7.82801 0-15.235279-.191956-22.624599.088715-3.232756.122787-2.323815 3.171646-2.327662 5.144821-.051321 26.324951-.030233 52.650039-.026913 78.975097.001042 8.265046-1.728147 10.365372-9.932933 12.062302-5.397828 1.116394-6.501601.263535-6.507983-5.396545-.026492-23.492676-.002949-46.985398-.001984-70.478104.000424-10.330124-.026571-20.660294.002374-30.990326.004961-1.770645-.369118-3.6586 1.360469-5.865707 4.588059 1.97287 9.237664 4.014602 13.920689 5.976593 8.359692 3.50235 17.085983 1.33963 25.648735 1.455734 2.147041.029098 2.48333-2.445633 2.775158-4.241623.71954-4.428268 1.281322-8.882095 1.99408-13.311562.549533-3.415069-.711602-4.995651-4.265179-4.910087-5.162266.124298-10.329632.108002-15.493805.054077-2.935387-.030647-4.486839.884369-4.854992 4.193977-.522579 4.697876-8.541698 9.191536-13.15476 7.805458-2.723294-.818252-2.108332-3.100555-2.114207-4.977005-.050075-15.994888-.033722-31.989982-.033718-47.985015.000002-7.830895.101788-15.66338-.030731-23.491963-.060354-3.565288 1.205349-4.711216 4.7946-4.124454 5.788639.946308 11.780061.684742 17.296735 2.396354.178414 2.344536-.772419 3.76212-2.123298 4.254299-4.682179 1.705899-4.586296 5.395073-4.553624 9.368664.104119 12.661736.16343 25.326554-.020839 37.986382-.060612 4.164314 1.457321 5.41761 5.541469 5.381569 19.325817-.170609 38.65477-.169381 57.980645-.002068 4.114067.035614 5.551773-1.301147 5.514518-5.431969-.142738-15.826812-.034416-31.656082.014458-47.484329.020805-6.736263.136383-6.817184 6.620834-6.244732 4.308586.380368 8.616356.772377 12.920494 1.199368 1.314972.130451 2.897469.180946 3.324929 1.699222.473907 1.683201-.631722 3.154934-2.03711 3.60545-5.274459 1.690796-4.96833 5.801006-4.946624 10.073555.084671 16.660965.041847 33.32264.027572 49.984032-.006408 7.480056-4.847023 11.684501-12.438064 11.161064-3.034417-.209259-3.638832-2.010132-3.488221-4.348175.264641-4.108559-1.898841-5.133568-5.511199-5.042687-5.328042.134041-10.664643.113472-15.993012-.021881-3.096825-.078674-5.033089.836586-5.655601 4.170845-1.091279 5.845032-3.419663 11.428406-4.001976 17.323532 2.027961 1.897065 4.303764 1.177567 6.367385 1.207123 6.663163.095474 13.349411-.295135 19.986596.129425 5.194465.332291 9.153244-1.08406 11.834037-5.526443 2.357033-3.905853 4.79039-3.568482 8.037995-.903931 4.955116 4.065491 10.210525 7.765 15.101638 11.441879-.811035 2.270996-1.996734 3.146851-3.23825 3.383103-5.702271 1.085144-5.838936 5.056259-5.804047 9.72023.157051 20.992279.126137 41.986648.043907 62.979813-.05336 13.624359-5.883217 20.277221-19.254295 22.216644-2.263214.328262-4.881485.918579-5.394959-2.578812-1.273933-8.677246-7.725677-11.378631-15.056251-13.050873-1.133316-.258514-2.313484-.309814-3.449005-.560882-1.889267-.41774-3.607994-1.070084-3.2342-3.559113.374993-2.496979 2.208329-1.936783 3.852585-1.837005 6.810936.41336 13.625786.765655 20.434143 1.21672 4.115708.27269 5.629318-1.648117 5.614075-5.649444-.081909-21.492966-.085243-42.986634.011352-64.479477.014939-3.32283-1.31562-4.347702-4.459617-4.31485-10.328949.107925-20.659783.045975-30.989853.026275-1.935471-.003692-3.586762.184311-4.291062 2.47371-2.827255 9.190368-5.745834 18.352645-8.824733 28.142379 8.647289.285904 16.59177-.696746 24.941959-2.350525-1.303787-5.747741-4.895721-9.943756-7.526337-14.622268-.866203-1.540528-3.334861-3.027146-.975502-5.110687 1.948037-1.720292 3.74852-.352356 5.431969.724624 5.217629 3.338059 9.974373 7.231949 14.350601 12.125321z"/><path d="m72.301834 822.632935c-2.609871-4.297486-4.902946-8.367005-7.450264-12.270691-11.579666-17.745301-12.932499-36.577942-6.49815-56.434143 7.737973-23.879151 18.92577-46.204529 30.467198-68.368042 16.001228-30.727906 32.188385-61.358887 48.220703-92.070679 1.99945-3.8302 3.5504-7.895386 5.292053-11.859192 4.619492-10.513306 3.863892-20.7276-1.786362-30.634338-2.391479-4.193055-4.860748-8.341858-7.314056-12.49939-.951965-1.613281-2.118637-3.234863.035812-4.765259 1.928971-1.3703 3.611222-4.013794 6.483338-1.962341 14.516372 10.368835 24.852401 23.60321 27.39534 41.737915.696273 4.965393-2.273224 9.307739-4.703217 13.464355-5.211456 8.914673-10.681732 17.677735-15.925888 26.573609-24.108772 40.896911-48.509483 81.637146-68.517265 124.783752-4.418946 9.529419-8.028 19.306336-9.979546 29.732544-2.183632 11.66626.189552 22.206299 6.559899 31.910278 11.426216 17.405518 23.288948 34.527894 34.54029 52.044129 21.654877 33.712463 41.238297 68.504822 53.541031 106.918091 4.06929 12.705688 7.053192 25.653686 8.420014 38.942321.515899 5.01587.154464 9.982544-1.357773 14.823853-1.313187 4.203674-4.022598 7.103943-8.514557 7.278076-4.167587.16156-7.314179-2.139526-9.150436-5.871704-2.83046-5.752808-3.84845-12.017151-4.734345-18.286438-5.890167-41.682617-22.181137-79.664673-41.479942-116.569397-10.121796-19.355652-21.534096-37.953613-33.543877-56.617309z"/><path d="m109.079681 28.102982c6.128083-7.862549 6.172409-7.916768 13.517311-1.911511 3.99331 3.264973 7.891488 6.658707 11.673378 10.166012 3.134293 2.906734 2.369675 5.662968-1.799545 6.67601-1.586365.385452-3.307312.289787-4.966942.290134-37.797577.007935-75.595161.003747-113.392735-.011817-6.722188-.002766-7.131647-.44088-7.420328-7.514184 1.588865-1.685272 3.706523-.986705 5.599212-.995174 13.820012-.061809 27.643627-.207287 41.458908.054051 4.707607.089046 6.153186-1.612282 5.916664-6.091486-.289341-5.479422.098213-10.992415-.118813-16.478553-.156578-3.958204 1.688145-4.917165 5.176926-4.491758 5.77346.70399 11.562744 1.278376 17.345428 1.906685 1.307984.142117 2.855004.017946 3.231384 1.699883.320717 1.433152-.582168 2.528942-1.532241 3.508216-.231263.238371-.460022.584289-.743988.651162-8.989098 2.116888-6.308167 9.287105-6.622017 15.182773-.162911 3.060343 1.311668 4.087561 4.224121 4.037779 6.658493-.113819 13.323273-.178951 19.979233-.012974 4.646797.115879 5.79676-3.888324 8.474044-6.665248z"/><path d="m49.329708 66.66507c-2.246563-1.689339-4.854607-2.266694-6.342567-4.534363.898548-3.540768 3.452179-3.164425 5.898933-2.388428 5.702873 1.808704 11.4091 3.639858 16.990704 5.782959 2.520897.967918 4.011268.69764 5.22702-1.746128 2.29557-4.614269 4.872826-9.093967 7.029426-13.769619 1.203347-2.608925 2.349984-3.679581 5.248848-2.17424 5.713341 2.966858 11.566521 5.664406 17.147522 8.369453-.034042 3.166107-1.962074 4.760765-3.707954 4.652264-5.886826-.365852-7.639732 4.182079-10.593163 7.654354-3.326904 3.911354-4.421142 6.731751.789353 10.184631 4.045303 2.680733 6.441505 7.108551 7.766388 11.913483 1.082764 3.926857.609085 7.578575-3.31482 9.434662-3.843971 1.818275-6.904785.328827-9.247093-3.354057-2.661476-4.184731-5.742241-8.113335-9.978492-11.312142-4.707055 3.898239-9.150853 7.876-13.911465 11.429283-3.98943 2.977677-8.378384 5.415245-12.532372 8.179238-2.235 1.487137-3.968353 1.17115-5.549217-.955933-1.677006-2.256447.14579-3.259247 1.481449-4.457909 6.452969-5.791168 12.510994-11.958732 17.846562-18.807502 1.007896-1.29374 2.319252-2.428276 2.583072-4.569222-3.4855-3.805069-8.198208-6.321121-12.832134-9.530784z"/><path d="m197.025101 667.97937c-4.736649-3.706116-9.220597-7.161804-13.677643-10.651916-1.26709-.992188-3.146057-1.914063-1.78949-3.951111 1.160416-1.742615 2.36966-4.056397 5.059006-3.10315 15.250549 5.405579 29.473953 12.472474 39.713547 25.628846 1.757019 2.257446 2.702774 4.988769 2.89537 7.872802.225693 3.379456-.647232 6.426331-3.94014 7.96399-3.271331 1.527587-6.271469.514038-8.570923-2.088196-2.311447-2.615723-4.35942-5.463196-6.54602-8.190613-3.869049-4.825928-8.351608-9.057983-13.143707-13.480652z"/><path d="m167.554367 689.44696c-3.66098-3.175354-7.035126-6.144714-10.484344-9.024169-1.556458-1.299256-2.667893-2.517518-1.119049-4.567261 1.284255-1.699585 2.545547-3.039673 4.973785-2.006958 14.258926 6.064148 27.249435 13.968994 37.463455 25.862427 2.435074 2.835449 3.877503 6.179443 3.980103 10.011718.087249 3.258667-.925019 5.907593-4.021256 7.4021-3.223831 1.556091-5.928222.380554-8.066604-2.010864-3.436631-3.843445-6.698792-7.845642-9.964707-11.838074-3.905533-4.774231-7.988373-9.378052-12.761383-13.828919z"/></svg>