<svg enable-background="new 0 0 256 1024" viewBox="0 0 256 1024" xmlns="http://www.w3.org/2000/svg"><path d="m148.757919 578.827759c.347229-11.589356-5.563873-20.409119-10.711944-29.542786-1.145584-2.032532-4.378632-3.82135-1.350556-6.837524 2.793213-2.782227 5.371247-2.968445 8.780732-.665894 13.904113 9.389832 22.928054 22.070557 26.474563 38.474304 1.615967 7.474244-1.133575 14.17688-4.886017 20.413819-9.28125 15.426147-19.785034 30.043884-29.984756 44.862488-18.418617 26.759277-37.167443 53.30841-53.247818 81.589904-7.183006 12.633118-13.340149 25.648499-15.847977 40.206848-2.029243 11.779908-.034347 22.562806 6.47142 32.450562 11.445137 17.394897 23.290986 34.529602 34.556054 52.038879 21.682197 33.700806 41.228828 68.511902 53.579643 106.907593 4.086181 12.703003 7.059631 25.651306 8.47229 38.933533.478943 4.503174.233551 8.981811-.850266 13.398132-1.160598 4.729248-3.541763 8.597351-8.790893 8.892639-5.091156.286377-8.277512-2.891479-10.12471-7.45697-2.203247-5.445557-3.23436-11.181274-4.039658-16.951843-5.869949-42.061035-22.573379-80.245484-42.041443-117.426575-10.983719-20.977295-22.942886-41.44104-36.453293-60.848938-16.419151-23.586242-17.538002-47.896423-7.174953-73.932068 9.982792-25.080261 24.345043-47.737671 37.923771-70.841613 13.926292-23.695313 28.59034-46.963807 41.558601-71.210572 3.674195-6.869629 7.133393-13.972656 7.68721-22.453918z"/><path d="m48.044334 414.032776c36.505906-31.740387 98.275917-97.311981 99.778206-105.961304-2.682876-1.433502-5.225921-.000213-7.63327.706207-16.610374 4.874238-33.293793 9.589631-48.701401 17.762848-4.340889 2.302735-8.530273 2.109803-12.873985-.099334-11.285347-5.739563-16.911407-17.741669-13.838608-29.689087.465164-1.808625 1.256806-2.982697 3.254158-3.193085 1.890473-.199097 2.629967.934509 3.32943 2.376556 6.580795 13.566864 8.557213 13.637574 24.78083 10.773621 13.272049-2.342987 26.343262-5.64566 39.396912-8.991364 3.736206-.957611 7.386856-2.090942 10.441849-4.552154 2.79042-2.248047 5.908493-2.295807 8.970764-1.08197 7.831924 3.104339 14.022476 8.261535 18.257004 15.59906 2.073425 3.592804 1.445495 7.073852-2.003769 9.198364-24.337159 14.989746-41.518769 37.767304-62.126854 56.806946-4.271592 3.946441-8.447983 7.995941-12.283829 12.536102 9.491257-3.263 18.612266-6.997833 28.272774-9.113403 20.309845-4.447663 40.257309-4.36908 59.672317 4.213501 36.417023 16.098572 42.431702 64.997497 9.548508 89.822418-14.791916 11.167084-31.789108 16.533447-49.570252 19.937836-16.744415 3.205902-33.718406 3.734314-50.728447 3.294433-.499649-.012909-1.000778-.048645-1.498947-.025329-2.466133.115295-4.182388-.566193-4.433433-3.44928-.281983-3.238556 2.058609-3.55191 4.166137-3.727722 8.961602-.747681 17.87333-1.852082 26.704766-3.525452 21.105064-3.99884 41.580925-9.715088 58.70208-23.541931 14.204711-11.471527 20.404785-26.425324 17.909164-44.612732-1.971329-14.366394-15.482407-26.521454-32.324905-30.226074-18.830704-4.141907-36.348435-.203339-53.246598 7.919372-21.251747 10.215393-38.3236 25.736634-53.963112 43.025727-1.898845 2.099151-3.699161 4.315307-5.788528 6.208648-5.079926 4.603272-10.912434 3.550721-13.981297-2.581726-2.762855-5.520996-2.551509-10.952759 1.465107-15.911499 2.94928-3.641052 6.419693-6.756012 10.347229-9.898193z"/><path d="m104.282349 210.094116c-3.818306 6.7276-9.417076 8.255615-17.825402 4.635559-14.665931-6.314163-26.133529-16.429733-34.438633-30.076507-9.072799-14.908249-12.64183-31.333985-13.316814-48.560318-.594399-15.169647.314575-30.324295 1.275543-45.421578.929596-14.604561-3.999424-25.618652-15.998289-33.756923-1.593397-1.080731-4.405489-1.939484-3.191959-4.855843 1.268102-3.047523 3.979337-2.342472 6.47752-2.074299 11.974847 1.285465 21.144537 7.495602 28.815042 16.350739 6.245728 7.210327 7.088139 15.268402 4.558827 24.295417-4.358174 15.554123-8.298096 31.254525-7.267464 47.631264 1.049969 16.683869 5.171566 32.209107 17.870796 44.21698 1.208222 1.142456 2.455322 2.268433 3.806198 3.23114 6.359413 4.53212 9.265908 4.088761 13.301651-2.582687 7.682556-12.69989 14.146088-26.046677 20.236695-39.566971 1.437072-3.190079 3.065124-4.222549 6.519958-2.622009 3.338768 1.546753 2.597176 3.575744 1.722427 6.093109-4.369346 12.574112-8.748909 25.145935-12.952102 37.776047-2.038658 6.125915-2.569374 12.319488.082435 18.544388.823662 1.933502 1.139809 4.189834.323571 6.742492z"/><path d="m180.456635 92.538452c-5.861054-4.192833-11.809525-7.506203-18.087342-10.227287-2.238571-.970299-4.287277-1.780968-3.019607-5.060021 1.118042-2.892067 2.619766-3.583618 5.695358-3.007186 33.530853 6.284446 58.414642 31.423522 65.19754 66.121627 1.052429 5.383667 2.028473 10.79924 1.945954 16.306336-.037049 2.473175-.308426 5.000259-.90419 7.395767-1.27118 5.111252-4.874115 8.155792-9.424729 8.140717-5.247574-.01738-7.935165-3.48639-8.924469-7.941971-1.725677-7.772064-2.673996-15.713669-4.278198-23.516358-3.925522-19.093513-11.584793-36.083503-28.200317-48.211624z"/></svg>