<svg enable-background="new 0 0 1024 192" viewBox="0 0 1024 192" xmlns="http://www.w3.org/2000/svg"><path d="m496.449982 193c-.348786-2.38913 1.511902-3.318527 3.198547-4.384933 28.520111-18.032242 44.828827-44.015687 49.734589-77.181603 2.607299-17.627045 1.696228-35.217506-2.870362-52.475735-2.156982-8.151897-5.837097-15.803302-15.219299-17.363582-9.30188-1.546917-15.853394 3.748749-21.045471 10.807983-9.720764 13.216499-14.356995 28.41845-16.873261 44.380119-1.432922 9.0896-1.733764 18.217476-.222198 27.349785.161865.977967.095825 1.994904.120453 2.994126.083618 3.389145-.628662 6.52835-4.24054 7.670471-3.810882 1.205032-6.479828-.997513-8.28949-4.019745-5.68399-9.492645-6.348053-20.215607-6.974823-30.844666-1.355133-22.98104 2.862732-45.398105 7.304993-67.774993.517731-2.607817 1.148255-5.208577 1.432465-7.844309.656952-6.091717-1.086762-11.175067-6.552674-14.592107-1.215637-.75997-2.82843-1.131617-3.461639-3.121355 1.426697-1.494827 3.170197-1.768497 5.233673-1.294243 7.848908 1.803915 14.674835 5.454284 20.052612 11.475354 3.6073 4.038849 3.98877 8.664854 1.336426 13.410521-11.339966 20.290022-15.274963 42.364889-15.400757 65.400312 1.46463-4.898193 2.758881-9.855842 4.441559-14.677933 1.69867-4.867851 3.648926-9.660102 5.726776-14.380813 3.796784-8.625878 8.94989-16.373524 15.849457-22.847206 15.686829-14.718571 36.422424-11.741591 47.242981 6.800853 8.534058 14.624226 10.505432 30.84454 10.111023 47.258976-.561523 23.366356-7.142578 44.882531-21.973938 63.503899-9.723755 12.208588-21.543274 21.688416-35.377197 28.772125-1.471894.753708-2.881653 1.628723-4.527069 2.713074-2.90683.265625-5.606842.265625-8.756836.265625z"/><path d="m98.444168 193c-3.767288-2.446442-3.633751-5.86232-3.311653-9.477615 1.123939-12.61493.424934-25.251282.633369-37.945588-2.325759-.221206-3.322685 1.355057-4.455719 2.375168-21.394447 19.261887-46.660801 31.113449-74.079492 38.879029-1.921352.544174-3.840515 1.096679-5.754373 1.666534-1.791342.533371-3.73199 1.26445-4.710272-1.091583-1.122592-2.703598 1.346651-2.966873 2.887638-3.635529 7.177175-3.114334 14.504919-5.904602 21.566659-9.257583 18.188698-8.63617 34.862774-19.508789 48.836201-34.1978.666847-.701019 1.269142-1.463455 1.887253-2.180756-1.016563-1.900451-2.60553-1.541168-4.031334-1.496627-12.988548.405715-25.968574.293411-38.960869-.086091-7.306288-.213424-14.636476.485901-21.958351.682633-6.17392.165893-6.689755-.511398-5.84442-7.062119 1.489858-1.147979 3.214811-.580993 4.804852-.451049 24.95191 2.039398 49.94919.410186 74.915896 1.01947 3.739654.091263 5.019493-1.252442 4.870636-4.929695-.17302-4.273934-.125023-8.563065-.927857-13.410225 7.41581.109497 14.077744 1.011253 20.671112 2.52053 1.154289.264229 2.190468.970078 2.465958 2.238579.350601 1.614365-.801056 2.406487-1.978546 3.092331-.862107.502136-1.757828.949181-2.653305 1.390885-2.934113 1.447288-2.43541 4.115325-2.182244 6.552017.299851 2.885956 2.687775 2.479706 4.628853 2.483063 15.660202.027099 31.321427-.075181 46.979904.091323 3.311829.035233 5.121872-1.550277 7.013123-3.835395 8.562515-10.345726 8.607147-10.316864 18.975113-2.167862 2.488128 1.955612 4.965805 3.926185 7.400482 5.947425 1.248474 1.036454 3.108353 2.018021 2.485428 3.937088-.722214 2.224961-2.971527 1.746857-4.738709 1.756211-7.496673.039703-14.993728.004562-22.490646.003586-17.805115-.00232-35.61023-.000748-53.668678.736236 4.841888 5.485321 10.281288 9.841019 16.410957 13.254059 20.093643 11.188309 41.807114 17.026245 64.58522 19.269211 1.85582.182739 4.428528-.670166 4.939209 2.111587.530197 2.888062-2.14685 2.947419-3.928543 3.47905-3.812118 1.137466-6.625671 3.525833-7.705978 7.212219-1.406937 4.800949-4.076203 4.977463-8.260437 3.765457-24.869751-7.20375-46.349594-20.004852-64.499245-38.439422-2.220268-2.255112-4.43499-4.515824-6.676155-6.749985-.199959-.199341-.577042-.221008-1.589508-.578781 0 4.314011-.027031 8.391769.005249 12.469055.084412 10.66153.065315 21.326492.363182 31.982376.107918 3.860596-1.00769 6.464981-5.07296 7.871125-2.661728.207458-5.03228.207458-7.847.207458z"/><path d="m70.329727 17.004913c-4.624176 4.151734-7.719704 9.04543-11.232536 13.710257 1.853046 1.673937 3.77642 1.07844 5.496513 1.090073 10.830254.073257 21.665802-.15065 32.489845.11767 4.386834.108745 7.012238-1.262535 9.10418-5.229197 3.266662-6.194111 6.673225-12.306407 9.07531-18.892007.88594-2.428907 2.099075-3.778665 4.745552-2.99018 5.741501 1.710611 11.478515 3.441016 17.17781 5.285537 1.562348.505637 3.270005 1.289271 2.891114 3.466945-.299881 1.723508-1.702942 2.639618-3.245652 2.611915-10.968467-.196954-16.019577 8.971625-23.952598 14.495974 2.216659 1.576299 4.225998 1.160728 6.082229 1.170301 9.830803.050711 19.675362-.288231 29.487847.137429 5.421463.235179 8.824585-1.675131 12.23529-5.802418 7.120285-8.616249 4.518998-8.827461 13.856552-1.677418 3.169388 2.426897 6.149201 5.107763 9.141739 7.756073 1.195755 1.058197 2.995484 2.122498 2.096039 4.077095-.794586 1.726772-2.708923 1.74472-4.380569 1.755005-7.664627.047172-15.329529.066883-22.994324.068153-12.830368.002125-25.662674.105275-38.490006-.097694-4.184074-.0662-5.940101 1.0695-5.931961 5.599876.020531 11.431359-.176117 11.424092 11.01133 11.405167 5.998589-.010147 12.018486-.297772 17.989342.113026 5.062057.348281 8.467895-1.455178 11.427719-5.459885 4.319488-5.844353 4.560669-5.769917 10.423035-1.420258 3.07196 2.279286 5.955886 4.815678 8.879882 7.288968 1.242005 1.050567 2.992005 2.099193 2.181092 4.049751-.76825 1.847965-2.734207 1.620483-4.386689 1.622547-16.496185.020592-32.992385.025963-49.488578.027012-7.94075.000507-7.94075-.007813-7.95205 7.827171-.000244.166626-.00061.33326-.000732.499886-.006325 8.318863-.006355 8.3087 8.087997 8.291321 6.498444-.013955 13.013291-.282319 19.490326.091522 5.244584.302704 9.069916-1.072205 12.445481-5.392609 4.692566-6.006042 5.043319-5.786247 10.868118-1.044876 3.226563 2.626411 6.473801 5.251503 9.470856 8.12812 2.337402 2.24347 1.402542 3.972001-1.595337 4.310357-2.636017.297508-5.323898.168548-7.988907.170227-14.996552.009468-29.99469.121498-44.988647-.076943-4.245377-.056183-5.885567 1.132401-5.873604 5.628388.034362 12.923141-.142136 12.926529 12.931541 12.938636 8.331421.007714 16.666504-.138671 24.992645.072037 3.784592.09578 6.895813-.577385 9.02092-3.96698.433884-.692055 1.119629-1.228119 1.698883-1.826782 5.815521-6.010292 5.831375-6.03019 12.364487-1.145279 3.467331 2.59256 6.900711 5.233009 10.284866 7.93277 1.012955.808098 2.15419 1.803085 1.491349 3.359657-.55687 1.307747-1.878418 1.201927-3.026764 1.248032-1.331055.053451-2.665528.026237-3.99852.026474-39.157685.006889-78.315422.045829-117.47295-.029435-4.15836-.007988-7.364167-.057823-7.519436 5.654732-.098835 3.636185-5.559166 5.379807-11.337414 4.356568-4.142384-.733551-3.336674-3.743691-3.18198-6.592446 1.036144-19.081672.27681-38.1632.516666-57.245502-.575248-.389008-1.150501-.778019-1.72575-1.167027-1.478351 1.937935-2.832054 3.988091-4.457569 5.79353-5.710592 6.342693-12.254057 11.761043-19.16875 16.726803-1.347027.967361-2.859156 3.140358-4.694461 1.205596-2.111046-2.225448.398457-3.589271 1.644771-4.896026 16.81377-17.629139 30.234058-37.608376 41.129764-59.32672 4.920708-9.808418 4.844681-9.862233 15.51939-6.382245 3.16288 1.031109 6.325378 2.079175 9.424248 3.28364 1.391128.540702 2.791069 1.456323 2.476204 3.301596-.258301 1.513741-1.553078 2.077737-2.906609 2.36068-2.433777.508758-4.879951.958235-7.658539 1.60541m-15.150894 72.728844c-.000847 2.332459.190929 4.684456-.043232 6.993248-.466019 4.594894 1.418747 6.174904 6.004585 6.014404 8.320065-.291176 16.661274.075821 24.987072-.116852 16.198181-.374847 13.218689 3.405022 13.615044-14.054168.073387-3.232681-1.183098-4.436745-4.395554-4.411217-11.828148.093979-23.658409.094612-35.486103-.033401-3.431442-.03714-4.991775 1.253692-4.681812 5.607986m40.894897-51.552032c-9.803283-.009682-19.607345-.102066-29.409645-.008542-12.842052.122529-11.309604-2.228393-11.554435 11.743123-.068539 3.91143 1.462707 5.263103 5.300785 5.190357 9.135357-.173146 18.276394-.045601 27.415134-.040859 13.013298.006752 13.292717-.338894 11.899262-13.424649-.198761-1.86655-.617981-3.256359-3.651101-3.45943m-11.579689 23.116359c-8.140373.002323-16.280921-.022743-24.420982.028797-1.744038.011044-4.208244-.522926-4.581741 1.863137-.666123 4.255462-.674969 8.612632.086868 12.885513.287128 1.610428 1.884888 1.73642 3.221478 1.740425 12.459117.0373 24.918346.042526 37.377544.042336 1.813629-.000031 3.059715-.52089 3.507156-2.66549 2.324784-11.14273.259644-13.888572-10.704948-13.892433-1.162911-.000408-2.325821-.000782-4.485375-.002285z"/><path d="m359.670685 152.221863c6.389099 3.434799 11.410675 7.613342 12.992706 14.750397.321259 1.449279.57898 2.948257.582001 4.424926.006012 2.94925-.688538 5.723007-3.589417 7.176483-3.044952 1.525666-5.072754-.648788-7.003021-2.421157-6.770691-6.216767-13.915985-11.922715-21.932648-16.46283-5.492645-3.110672-11.138824-5.865295-17.782501-7.051529-1.157074 4.275726.207184 8.385361-.44577 12.461395-1.146668 7.157883-4.449371 12.687622-10.961853 15.659973-15.485962 7.067856-31.349518 7.569703-46.889496.48259-13.459549-6.13829-17.033325-20.721496-7.970367-30.31514 4.087158-4.326492 9.251831-7.034423 14.782226-9.066101 10.180695-3.73999 20.770447-4.695083 31.481445-4.106903 4.69162.257645 6.142548-1.389206 5.906891-5.961075-.34259-6.646949-.2583-13.327873-.064727-19.985839.109771-3.775109-1.388855-4.995316-5.029053-4.789116-10.491699.594299-20.980622.69432-31.292236-1.856263-10.543427-2.607933-17.034119-11.627525-15.722107-21.755805.197265-1.523018.269073-3.190575 2.34613-3.157837 1.6893.026634 2.133636 1.342109 2.198212 2.787201.33139 7.416481 4.335907 10.963707 14.72644 12.635406 9.483032 1.525696 18.924316.568077 28.391876.008431 3.17685-.187798 4.380463-1.657586 4.334015-4.746903-.107666-7.162308-.23587-14.332611-.008118-21.488602.140687-4.420456-1.853912-5.596347-5.777862-4.985611-9.60791 1.495408-19.293915 1.050766-28.933624.764313-12.044159-.35791-21.713623-5.711536-28.955201-15.363056-.892532-1.189552-1.989349-2.522877-.61058-3.995548 1.473618-1.573967 2.81398-.321888 3.906281.604263 12.038894 10.207787 26.389236 9.799953 40.814437 8.866467 4.972535-.321774 9.911377-1.135697 14.878052-1.587914 2.339203-.212978 3.832001-1.051456 3.787232-3.608055-.125214-7.149147.062622-14.30846-1.572236-21.363592-1.350311-5.827196-4.719421-9.39674-10.668121-10.426787-1.469787-.254493-2.973266-.433122-4.355652-1.865289 1.331696-3.056666 4.392517-3.311878 6.941986-3.452643 7.700501-.425165 15.318421.428477 22.473298 3.535374 5.447052 2.365301 6.534729 5.266546 4.073516 10.720653-2.853698 6.323777-4.16275 12.937497-4.490539 19.818387-.142212 2.985076 1.304443 4.030155 3.966064 3.408451 10.68393-2.495552 21.539337-4.466809 31.284119-9.942292 5.06604-2.846588 14.008301-1.230796 17.810242 3.151699 2.932159 3.379837 2.085907 6.429551-2.675599 8.472039-5.99707 2.572509-12.444122 3.631141-18.774536 5.031791-9.416656 2.083489-18.868011 4.006169-28.453369 5.160866-2.733551.329292-4.156677 1.529293-4.113769 4.506863.110412 7.661911.088836 15.326927.015381 22.989708-.030823 3.214599 1.178802 3.984352 4.317535 3.245445 9.712982-2.286575 19.548889-4.018974 28.282257-9.368195 4.020203-2.462371 13.352081-.403892 16.236389 3.116311 2.459076 3.001266 1.263977 6.707466-3.202606 8.702217-7.485291 3.342895-15.470978 5.108223-23.472565 6.684661-5.707397 1.124444-11.448913 2.165482-17.223053 2.825722-3.19107.364899-4.325348 1.568321-4.143249 4.736412.477264 8.30362.068786 16.627678.996856 24.94468.396973 3.557373 1.763489 4.883865 4.926087 5.564682 11.59845 2.496719 22.843048 6.052337 33.662201 11.886276m-51.044769-.365051c-.17212-3.041962-2.631257-3.14737-4.694245-3.408356-9.115631-1.153275-18.218872-1.23378-27.233642.89006-4.718384 1.111618-9.341523 2.558762-13.298584 5.450745-7.133423 5.213379-6.474884 13.203216 1.484802 17.023971 8.004883 3.842469 16.449127 3.443131 24.918487 1.907441 13.011963-2.35936 17.917725-7.852784 18.823182-21.863861z"/><path d="m734.370544 65.688995c-.036254 9.372857-.036254 18.316674-.036254 27.998131 10.93396-1.753975 21.145874-3.389191 30.102294-8.685013 5.708741-3.375518 10.754151-2.362884 16.117554-.11026 2.111817.886963 3.564148 2.372948 3.734436 4.859482.188721 2.75557-1.303222 4.410828-3.560241 5.462853-7.755127 3.614853-16.07544 5.353897-24.384339 7.040886-5.699341 1.157157-11.44342 2.197555-17.217346 2.844505-3.341003.374351-4.133484 1.877472-3.969177 4.887169.42633 7.806885.238647 15.624611.800232 23.450386.353332 4.924911 2.36853 6.420303 6.677551 7.305771 10.965027 2.253265 21.535278 5.817276 31.441894 11.108047 6.450867 3.445206 12.234559 7.608017 13.76355 15.469025.252564 1.298355.409851 2.636154.417969 3.956909.018066 2.95256-.604675 5.773025-3.436646 7.280441-2.994995 1.594162-5.155761-.593979-7.047241-2.339096-8.122497-7.494095-16.752014-14.2668-26.781494-19.021545-4.116821-1.951706-8.174194-4.36705-13.307007-4.265854-.327575 4.321869.472962 8.409134-.199096 12.544098-1.135193 6.984314-4.512268 12.277588-10.80188 15.212875-15.464722 7.217148-31.263062 7.448868-46.883423.640457-7.447937-3.246338-12.53241-9.062256-12.930786-17.574417-.384156-8.208236 4.374084-13.728164 11.030639-17.714889 10.769593-6.450074 22.677979-8.343537 35.009461-8.363434 10.858948-.017517 10.85675-.016571 10.840759-10.798699-.006958-4.664428-.239075-9.344253.063172-13.98896.297363-4.570175-1.215882-6.191315-5.968812-5.85598-9.977661.703987-19.9776.590569-29.801574-1.784721-10.964905-2.651177-17.593628-11.528008-16.327698-21.796745.188843-1.531815.263184-3.179589 2.309509-3.214516 1.699341-.028999 1.970337 1.310867 2.290039 2.711098 1.97052 8.632713 4.917115 11.235725 13.648499 12.626373 9.966064 1.587303 19.913757.948219 29.875366.053078 2.579224-.231774 3.915222-1.404648 3.887207-4.130455-.080444-7.828759-.157226-15.659508-.062012-23.487359.052552-4.321537-2.825134-3.907714-5.463012-3.53022-9.623841 1.377243-19.296509 1.008484-28.939148.752022-12.04303-.320312-21.758728-5.544864-29.033325-15.191265-.887818-1.177238-2.090638-2.448089-.851929-3.995388 1.337829-1.671097 2.717834-.649593 3.870483.337963 12.149475 10.409516 26.714112 9.83096 41.282776 8.998688 4.806519-.274578 9.573303-1.191132 14.37677-1.594658 2.634583-.22134 4.002747-1.257801 3.967957-3.983932-.09137-7.154175-.10138-14.296624-1.633057-21.357823-1.200195-5.53318-4.557007-8.698788-9.903992-9.998167-1.733093-.42115-3.655395-.374685-4.995361-2.180746 1.971924-3.141431 5.297302-3.333877 8.32959-3.362041 7.014953-.065152 13.956299.813229 20.552978 3.401447 5.675232 2.226658 7.134522 5.446901 4.600037 10.936786-2.841858 6.155846-4.150879 12.581101-4.569702 19.284649-.209229 3.348816 1.048889 4.693955 4.380127 3.920998 10.856323-2.519051 21.813171-4.676117 31.689209-10.280796 4.610412-2.616417 14.001221-.362248 17.283081 3.880974 2.575195 3.329715 1.653869 6.216839-2.841614 8.124401-5.853149 2.483612-12.113281 3.627563-18.288086 4.909164-9.436889 1.958657-18.953613 3.533181-28.440002 5.251133-1.956055.354237-4.106629.338661-4.668885 3.35717m-20.917602 105.365433c5.660705-2.720917 8.835571-7.076858 9.819641-13.406937 1.235718-7.948455.844543-8.721176-7.326782-9.452819-1.155579-.10347-2.29657-.390427-3.452515-.46576-10.934753-.712463-21.530945.644913-31.499939 5.447586-4.510681 2.173142-7.733948 5.718506-7.384155 10.860199.348755 5.126664 4.413208 7.497712 8.956299 8.866562 10.24292 3.086243 20.311523 2.359726 30.887451-1.848831z"/><path d="m905.553955 189.49852c-4.842712-.318955-4.126953-2.275589-1.517517-4.391434 3.492004-2.831482 7.252502-5.332626 10.735291-8.174621 12.714599-10.375168 21.791992-23.110428 25.53717-39.952927-9.986939 4.504166-19.150696 4.123642-27.477234-2.71077-15.190063-12.46804-13.873169-41.784126 2.443909-52.735443 6.245544-4.191734 13.174377-5.350487 20.520202-3.2285 1.253785.362167 2.523804.667938 4.795349 1.264969 0-7.334534.086365-14.223671-.052673-21.108246-.041626-2.063973-1.821106-2.049881-3.398559-1.832043-20.140015 2.781334-40.241028 5.921898-58.972474 14.278202-6.700622 2.98925-12.0625 2.178154-17.49823-2.266861-5.037048-4.11898-8.583679-9.237198-11.150878-15.129474-.820984-1.884442-1.378418-3.751732-.100464-5.572838.98706-.475304 1.786743-.21146 2.340576.466713 7.89624 9.669731 18.541138 9.431507 29.345886 7.867367 18.270691-2.644948 36.421692-6.147313 54.855042-7.597233 3.212829-.25272 5.021362-1.46267 4.683471-4.943856-.465881-4.800594-.645569-9.642669-1.380005-14.400255-1.077087-6.977031-5.813354-10.528175-12.344055-12.129089-1.876648-.460026-3.725708-1.032696-5.803283-1.614143 1.318176-3.793322 4.247314-4.339819 6.954467-4.493242 8.56543-.485435 16.991333.663251 24.965515 3.852081 5.946961 2.378135 7.075501 6.043119 4.318055 11.889562-2.868225 6.081259-4.401673 12.441427-4.367737 19.611277 5.352295-.293553 10.465698-.352116 15.526306-.898983 9.726501-1.051087 19.541748-1.340607 28.87677-5.126625 5.833496-2.36591 20.525391 4.192802 23.758423 9.809864 2.269897 3.943706.338806 7.340553-4.549561 7.049495-9.790039-.582893-19.544189-1.742256-29.325134-2.512607-10.315613-.812466-20.632812-.65736-30.950928.207256-2.842712.238217-4.238952 1.370625-4.338745 4.254555-.462524 13.367329-2.283935 26.473102 2.699402 39.868275 8.815979 23.697212-1.049744 55.378242-21.031738 72.720558-8.361084 7.256546-17.524903 13.248062-28.096619 17.679016m33.964783-69.692795c3.090698-8.810821 2.154724-17.659248.05719-26.456413-1.141053-4.785874-3.735291-8.689324-8.891907-9.725647-5.204041-1.04586-9.368042 1.213096-12.745483 5.10704-7.490601 8.636261-7.257325 25.124092.268493 33.702278 5.219116 5.948914 17.277954 6.782547 21.311707-2.627258z"/></svg>