<svg enable-background="new 0 0 1024 192" viewBox="0 0 1024 192" xmlns="http://www.w3.org/2000/svg"><path d="m447.063904 109.963303c1.971924-14.938515-.746308-28.95298-4.825836-42.736039-1.491547-5.039318-5.511902-8.652214-9.069428-12.409435-1.487854-1.5714-3.256378-3.076168-1.403656-5.557495 1.689942-2.263241 3.526672-1.030773 5.35965-.355133 6.121307 2.256329 12.061065 4.880806 17.127594 9.095337 1.790588 1.489509 3.718872 2.034302 5.995025 1.883819 11.625824-.768604 23.252747-1.524913 34.884095-2.202827 2.530182-.147465 3.552398-1.327232 3.529632-3.774326-.063568-6.830658-.015136-13.662594-.111145-20.492623-.066009-4.692865-2.552948-7.363783-7.186645-8.060959-.822846-.123798-1.681549-.189039-2.446747-.482168-2.23172-.854936-5.985657.401097-5.938934-3.747526.03955-3.515938 3.331573-3.22055 5.521209-3.967819 9.856049-3.363693 18.335144-.064606 26.099365 5.842665 3.392334 2.580991 3.936646 5.783445 1.510132 9.633211-4.514007 7.161823-3.326111 15.221691-3.82727 23.462501 13.144653-.403755 25.56134-.947979 37.901367-2.667282.955994-.133198 1.87085-.683384 2.764771-1.121456 9.178161-4.497929 22.443542 2.075443 24.925598 12.312981.609253 2.513382-.572632 4.343467-2.283448 5.676826-4.431457 3.453697-6.418579 8.282082-8.438537 13.277504-18.634033 46.082794-49.06897 81.565415-93.874909 104.06073-.744171.373596-1.487304.751602-2.212646 1.159927-2.382813 1.341279-4.069336.52031-5.461151-1.614807-1.728272-2.651245.382202-3.535003 2.048248-4.581192 15.036499-9.442184 28.679443-20.586624 40.805878-33.554413 21.051269-22.51184 36.686584-48.13533 44.637939-78.139633.504944-1.90525 1.281433-3.785858.345825-6.31855-31.262817-.388527-62.290344 4.910759-94.094207 7.054993-.186127 7.341072 1.653625 15.62056 2.407074 23.976127.701568 7.780251 1.730011 15.530762 2.457855 23.309029.327881 3.503838-.315399 6.901199-4.229767 8.117813-3.911102 1.215599-6.675293-.649704-8.772675-3.975128-2.460296-3.900825-3.762848-8.128403-4.144256-13.104652z"/><path d="m47.320282 91.367432c-5.222637 1.39653-10.021824 2.764755-14.838928 4.066665-10.415476 2.814987-22.009615-3.776451-24.626294-14.356529-.808404-3.268639-3.348749-7.69751.738884-9.997253 4.259432-2.396393 5.416826 2.825973 7.262715 5.026863 5.24653 6.255554 12.070043 4.989967 18.534763 4.30426 32.403439-3.437058 64.781353-7.118713 97.154019-10.838097 5.106887-.586738 10.194992-1.582107 15.196365-2.785179 7.610031-1.830574 14.529358-.041984 21.101532 3.569817 3.369659 1.851822 6.074646 4.668777 4.698547 8.896599-1.372635 4.217224-5.259216 4.1362-8.804519 3.768356-18.97699-1.968948-37.92614-.726669-56.878334.359085-1.443764.08271-2.92289.210899-4.346093 1.383904.781472.734382 1.463196 1.421005 2.192322 2.05294 5.878083 5.094597 6.133347 7.491371 1.127106 13.150978-2.394066 2.706512-3.64415 5.91848-4.736527 9.25589-11.559333 35.315605-34.708908 60.892265-66.554561 79.147179-1.675892.960678-3.286682 2.408432-5.389334.558898-2.833448-2.492385-2.808517-4.314743.483044-6.567642 14.42053-9.870071 26.950212-21.758377 36.952963-36.136856 9.384483-13.489746 16.894134-27.899689 20.440445-44.120041.141975-.649383.433769-1.277023.499229-1.930481 1.262787-12.605415.545425-15.64241-12.722679-13.241836-8.980881 1.624893-18.09557 2.593719-27.484665 4.43248z"/><path d="m290.288879 103.006393c.027497 24.488709.021119 48.479187.110535 72.46933.015839 4.248047-.198334 8.39975-5.275604 9.392075-4.878601.953461-7.685059-2.227982-9.735138-6.161591-2.890076-5.545379-3.771118-11.663971-2.407074-17.510009 3.403595-14.587174 3.319-29.428757 3.539947-44.164589.391907-26.137711.922699-52.300103-.731903-78.435975-.604248-9.544937-1.957672-11.42181-11.44934-13.089637-2.257264-.396635-5.020081-.021794-5.087098-3.413367-.066101-3.341089 2.818421-3.153751 4.956055-3.798111 10.720703-3.231554 19.994782-.063207 28.47348 6.489525 3.680786 2.844668 4.840027 6.268599 2.024628 10.407332-2.236115 3.287166-2.999359 7.078506-3.24231 10.884472-.540344 8.463974-.427063 16.981285-1.24884 25.411678-.565094 5.797043 1.942596 7.844101 7.101502 9.021233 12.041503 2.747558 23.670593 6.848938 34.859588 12.105934 6.345642 2.98143 12.503601 6.300186 17.301209 11.616012 1.927063 2.135216 3.363128 4.488091 3.905944 7.393212.663575 3.55159.339112 6.87696-2.97052 8.810325-3.082977 1.800972-6.517883 1.41948-9.464477-.561943-1.911408-1.285324-3.586487-2.985176-5.172089-4.681892-12.033416-12.87661-27.36734-20.4319-43.329834-26.981079-.41629-.1708-.945038-.067566-1.676788-.105294-.931671 4.837891-.28952 9.642388-.481873 14.902359z"/><path d="m772.893799 140.121735c-20.547669-20.950234-40.825257-41.671585-61.105896-62.389985-10.679505-10.910026-13.607422-10.788955-23.069885 1.035424-10.200257 12.746155-20.320374 25.556747-30.571778 38.261505-5.884704 7.293014-11.482116 8.354027-19.732239 3.876999-6.333068-3.436676-11.425048-8.046211-13.585449-15.253052-.611145-2.03865-.888611-3.836136 1.231751-5.290886 2.105224-1.444366 3.37323-.041069 4.823852 1.070763 1.05597.809387 2.131653 1.605369 3.263611 2.301491 6.427734 3.952926 8.579651 4.016738 14.252136-.961197 9.025208-7.920182 17.086975-16.827263 25.26709-25.603592 4.202149-4.508438 8.403626-9.026482 12.793884-13.34877 9.417176-9.271439 18.816712-9.233529 28.395264.094932 15.874939 15.460495 31.608154 31.064682 48.237061 45.734055 12.00708 10.592216 24.427795 20.647377 37.526428 29.856712 4.397156 3.091538 7.618103 7.006805 8.532532 12.414047.479858 2.83725.410156 5.707672-2.138062 7.796295-2.663696 2.183335-5.555908 1.913926-8.467041.667618-7.19458-3.080169-12.619018-8.60115-18.445129-13.549728-2.409912-2.046875-4.631897-4.315003-7.20813-6.712631z"/><path d="m855.434204 133.423172c11.93042-10.947433 23.326294-21.916679 32.919739-34.59938 2.919372-3.859459 5.700867-7.809083 7.666565-12.258637 2.840027-6.428299 2.18518-9.169052-3.330689-13.354301-2.116943-1.606186-4.406555-2.987366-6.638855-4.438096-1.359619-.883583-2.293213-1.836685-1.645752-3.680435.5849-1.665744 1.680787-2.196075 3.35376-2.405864 11.587525-1.453068 27.446655 9.108493 30.299256 20.271396.674194 2.638176.033691 4.951561-1.844178 6.906121-13.253479 13.795135-25.269409 28.812622-40.234558 40.917793-11.801941 9.54657-24.069824 18.413543-37.626648 25.369995-2.217651 1.137909-4.163818 2.100372-5.938904-.767441-1.799865-2.907928.481385-3.90805 2.166443-5.091431 7.239441-5.084137 13.979492-10.777038 20.853821-16.86972z"/><path d="m1008.578369 120.589157c2.784851 5.935341 5.134155 11.579025 4.844238 17.980698-.253295 5.593704-2.392578 9.155716-6.518371 9.926605-5.222778.975845-7.561951-2.421356-9.231507-6.510605-6.890625-16.876755-15.309509-32.859566-27.020507-46.967026-7.571106-9.12046-15.951416-17.404289-25.12201-24.908989-1.495361-1.223739-3.547485-2.241478-3.525756-4.550514.026916-2.859402 3.278625-4.102562 6.394409-2.429325 8.534729 4.583202 16.394958 10.207577 23.893432 16.281353 14.300293 11.583092 27.40448 24.287224 36.286072 41.177803z"/><path d="m45.045151 26.917122c9.18568 7.465202 19.471679 7.454086 30.138206 6.266132 14.41626-1.60557 28.533737-4.234092 42.137337-9.505445 5.43985-2.107926 10.830856-.34397 15.8246 2.25283 2.562836 1.332703 4.080322 3.622879 3.770081 6.505263-.30008 2.788036-2.519608 4.180404-5.042237 4.932148-7.668876 2.285316-15.615615 3.160743-23.47586 4.415184-14.754814 2.35477-29.510346 4.571804-44.537209 4.711677-11.458255.106655-17.97113-6.609955-23.277263-15.314485-1.825669-2.99495-.300293-4.47239 4.462345-4.263304z"/><path d="m790.297913 43.976143c7.972778 17.230751-1.795227 34.884811-20.156861 35.928192-13.280151.754608-24.043457-8.647942-25.325927-22.406548-1.211365-12.996688 8.963073-24.968009 21.748901-25.817539 10.229492-.679687 18.148987 3.164479 23.733887 12.295895m-5.662171 16.062744c1.976868-9.077309-1.855652-16.476383-10.137146-19.57066-7.31488-2.733116-15.842041.491845-19.64447 7.429497-3.951111 7.208954-1.769653 16.151013 5.178406 21.226994 8.459228 6.179992 19.3302 2.461097 24.60321-9.085831z"/><path d="m338.869598 54.119678c-4.142364-4.833873-8.595306-8.826263-13.271698-12.583541-1.434784-1.152798-3.151611-2.27747-1.783844-4.48238 1.297974-2.092411 3.107056-2.114521 5.201233-1.13831 7.550141 3.519573 15.0831 7.076489 21.459717 12.569969 3.722138 3.206662 6.852387 6.822037 6.917938 12.162041.031311 2.551602.153229 5.194035-2.745483 6.352413-3.081726 1.231522-5.482697-.062828-7.428253-2.493179-2.702606-3.37595-5.414582-6.744381-8.34961-10.387013z"/><path d="m569.006165 23.879642c6.155273 3.416859 11.768127 6.933938 16.040527 12.214615 2.158325 2.667614 3.493896 5.55959 3.34436 9.115494-.107361 2.555168-.835571 4.571449-3.325561 5.583641-2.718994 1.105293-4.899109.084068-6.616638-2.009777-2.210755-2.695145-4.324463-5.471413-6.43274-8.248615-4.34613-5.725304-9.434875-10.694475-15.097168-15.107409-1.509338-1.176319-3.577026-2.229047-1.999328-4.789991 1.411316-2.290695 3.215942-1.819498 5.170776-.895578 2.850342 1.347171 5.723206 2.646921 8.915772 4.13762z"/><path d="m148.718079 23.204605c8.197296 3.871641 15.559417 8.347269 21.689941 14.598724 3.093475 3.154484 5.412308 6.748311 5.109924 11.467915-.16275 2.540451-1.217682 4.422836-3.697296 5.392593-2.683609 1.049542-4.581878-.183635-5.990387-2.21767-6.272827-9.058701-13.20311-17.507435-21.915664-24.36739-1.256943-.989689-2.099976-2.112333-1.010727-3.818197 1.452972-2.275505 3.263305-2.585228 5.814209-1.055975z"/><path d="m981.996216 60.002022c-4.805969-5.124447-9.489685-9.856343-14.829346-13.899842-1.313171-.994438-2.774048-2.146896-1.344116-4.122745 1.100159-1.520142 2.492248-2.212276 4.31781-1.347027 9.174255 4.348419 18.680481 8.203194 25.342529 16.412956 2.339417 2.882939 4.290955 5.972004 4.045716 9.934472-.155457 2.512512-1.056397 4.524375-3.585083 5.482391-2.446839.926987-4.278199-.213539-5.712037-1.960312-2.746643-3.346138-5.339843-6.81818-8.235473-10.499893z"/><path d="m607.584473 27.822304c1.118103 3.743093.790161 6.753559-2.729431 8.394695-3.616883 1.686516-6.099671-.47644-8.046814-3.11224-5.969727-8.080896-13.013611-15.030626-21.155945-20.906336-1.248352-.900829-3.100769-1.814819-2.065552-3.935927.764954-1.567255 1.858826-2.769807 3.9328-2.064429 10.163452 3.45669 19.639954 8.089767 27.119446 16.048418 1.353577 1.440363 2.411438 3.176521 2.945496 5.575819z"/><path d="m1002.359009 46.629665c-5.103333-6.010872-10.755493-10.898189-16.726441-15.450521-1.509155-1.150608-3.717468-2.185347-2.148925-4.741425 1.403381-2.286869 3.349426-1.517809 5.294006-.822773 9.152344 3.271336 17.916199 7.183428 24.723633 14.470526 2.759948 2.954376 4.124572 6.34853 3.825195 10.43129-.159607 2.176891-.852844 3.90395-3.031799 4.680942-2.044556.729058-4.025574.524121-5.532471-1.110714-2.139038-2.320556-4.123596-4.783477-6.403198-7.457325z"/><path d="m356.487335 35.511044c-4.378479-4.344668-8.782776-8.117772-13.453186-11.589322-1.36496-1.014572-2.616546-2.201202-1.335876-4.152687 1.088012-1.657901 2.490997-1.920454 4.307007-1.263563 9.106231 3.293968 17.889068 7.14457 24.832855 14.200972 2.888611 2.935402 4.83902 6.281551 4.562561 10.623173-.148285 2.328929-.86084 4.153228-3.139221 5.192085-2.36911 1.080231-4.343262.244808-5.844941-1.412892-3.336853-3.683578-6.467468-7.55397-9.929199-11.597766z"/><path d="m177.757812 13.154028c6.020066 3.935652 11.894669 7.494118 13.846879 14.773163.898757 3.351059.846267 6.462526-2.46341 8.285524-3.592682 1.978878-5.992096-.363533-7.919159-3.070873-5.8255-8.184212-12.623504-15.41458-20.605713-21.532621-1.268646-.972365-2.935165-1.936334-1.651184-4.036234 1.298004-2.122826 2.922745-2.137724 5.115799-1.260911 4.646973 1.857929 9.122498 4.009238 13.676788 6.841952z"/></svg>