<svg version="1.1" id="Layer_1" xmlns="http://www.w3.org/2000/svg" xmlns:xlink="http://www.w3.org/1999/xlink" x="0px" y="0px"
	 width="100%" viewBox="0 0 1944 326" enable-background="new 0 0 1944 326" xml:space="preserve">
<path fill="#FEFEFE" opacity="1.000000" stroke="none" 
	d="
M1446.000000,327.000000 
	C964.000000,327.000000 482.500000,327.000000 1.000000,327.000000 
	C1.000000,218.333328 1.000000,109.666664 1.000000,1.000000 
	C649.000000,1.000000 1297.000000,1.000000 1945.000000,1.000000 
	C1945.000000,109.666664 1945.000000,218.333328 1945.000000,327.000000 
	C1778.833374,327.000000 1612.666626,327.000000 1446.000000,327.000000 
M1625.499756,140.609024 
	C1638.996704,140.609558 1652.525024,140.039978 1665.981323,140.779083 
	C1678.202393,141.450348 1690.534302,142.674988 1702.467773,145.265854 
	C1713.668823,147.697662 1722.281860,154.831299 1726.135498,166.143356 
	C1732.183472,183.897217 1728.967041,209.325958 1702.825073,219.007874 
	C1679.129639,227.783691 1655.065674,227.115005 1631.587280,218.088287 
	C1615.103027,211.750534 1606.128052,199.413284 1606.303833,181.217300 
	C1606.311157,180.453308 1606.102173,179.687195 1606.005493,179.004425 
	C1595.894165,179.004425 1586.156494,179.004425 1576.455811,179.004425 
	C1574.047241,204.024139 1587.519775,227.385788 1611.958130,238.623703 
	C1644.055420,253.383682 1677.367920,254.001938 1710.855469,244.070374 
	C1738.061646,236.001678 1759.086792,214.389725 1759.410645,181.961899 
	C1759.572876,165.717529 1756.065063,150.640228 1744.060059,139.124893 
	C1737.729370,133.052277 1729.816772,128.628784 1723.263306,123.923767 
	C1727.312256,120.699593 1732.914673,117.054649 1737.525879,112.423088 
	C1756.051025,93.815834 1757.498413,44.596054 1721.146362,26.002850 
	C1687.469116,8.777618 1652.295410,8.918829 1618.193848,24.850681 
	C1592.155151,37.015682 1580.340576,65.319130 1588.149902,92.821091 
	C1590.156860,99.888817 1594.368896,106.330383 1597.638306,113.207413 
	C1589.984741,113.207413 1581.749023,113.207413 1573.675537,113.207413 
	C1573.675537,122.530693 1573.675537,131.414139 1573.675537,140.608994 
	C1590.881348,140.608994 1607.690552,140.608994 1625.499756,140.609024 
M1117.451416,223.058548 
	C1113.002686,223.640778 1108.557983,224.689316 1104.104736,224.726135 
	C1082.546631,224.904419 1064.019409,218.593704 1052.413086,198.907318 
	C1046.484985,188.852173 1045.184448,177.611557 1045.184937,166.161057 
	C1045.187012,118.500778 1045.185303,70.840492 1045.184937,23.180212 
	C1045.184937,21.384449 1045.184937,19.588686 1045.184937,17.607250 
	C1035.181763,17.607250 1025.625977,17.607250 1016.081482,17.607250 
	C1015.939331,18.400696 1015.775269,18.887791 1015.775879,19.374691 
	C1015.838379,71.533173 1015.424561,123.699112 1016.221680,175.846527 
	C1016.552551,197.491730 1025.571777,216.312759 1042.439575,230.429108 
	C1071.693726,254.911285 1120.557739,257.291260 1153.894653,236.295639 
	C1161.084106,231.767731 1161.049561,231.817139 1167.988892,236.676865 
	C1177.360718,243.240036 1187.157959,248.955948 1198.606689,251.725128 
	C1201.822021,243.112061 1204.924072,234.802185 1207.771484,227.174316 
	C1197.493164,221.782715 1187.724121,216.658279 1177.731567,211.416611 
	C1186.307983,196.391296 1188.729248,181.049026 1188.760986,165.254929 
	C1188.856934,117.594849 1188.795532,69.934441 1188.795532,22.274160 
	C1188.795532,20.702597 1188.795532,19.131033 1188.795532,17.654144 
	C1178.388550,17.654144 1168.810059,17.654144 1159.024048,17.654144 
	C1159.024048,19.840746 1159.024048,21.666380 1159.024048,23.492014 
	C1159.024048,71.485580 1159.003296,119.479164 1159.042847,167.472702 
	C1159.050049,176.290192 1158.022217,184.862061 1154.376953,193.359238 
	C1141.327759,184.751099 1129.095215,175.389465 1113.024292,172.878082 
	C1110.309692,181.131836 1107.633911,189.266922 1104.854614,197.717224 
	C1117.084229,200.933762 1127.841675,206.565811 1139.112549,215.054810 
	C1131.396118,217.984848 1124.843506,220.472977 1117.451416,223.058548 
M519.510315,16.961748 
	C516.007568,17.987999 512.457092,18.875467 509.009766,20.062653 
	C483.619141,28.806694 468.489471,47.605858 467.589020,73.538826 
	C466.733337,98.182655 475.331146,118.214973 502.984009,129.688339 
	C517.767090,135.821960 533.570435,139.568924 549.034058,143.968979 
	C563.699524,148.141937 578.949585,150.550461 592.283997,158.563736 
	C601.401367,164.042755 607.935486,171.625412 608.908691,182.627823 
	C610.548340,201.163956 602.088379,213.863068 583.487122,219.852951 
	C560.963806,227.105820 538.104919,226.979965 515.768372,219.355362 
	C498.785492,213.558212 487.185028,202.602432 487.395264,181.158569 
	C487.402649,180.406921 487.120117,179.652420 486.932556,178.694305 
	C481.830658,178.694305 477.014404,178.694305 472.198120,178.694305 
	C467.273804,178.694305 462.349457,178.694305 457.505371,178.694305 
	C455.534271,201.466476 465.812378,222.030289 484.647430,234.126984 
	C499.276550,243.522461 515.511353,248.093201 532.587280,249.499359 
	C558.043823,251.595642 583.198364,250.483871 606.767944,239.005417 
	C639.670837,222.981583 651.252563,182.180054 631.032837,153.211990 
	C620.763367,138.499359 605.821472,130.095764 589.171387,125.031189 
	C569.802551,119.139656 550.083130,114.408157 530.570496,108.976738 
	C525.960815,107.693604 521.439331,105.902679 517.103271,103.864517 
	C505.321838,98.326668 498.005981,89.445328 498.155975,75.901115 
	C498.312225,61.792076 504.751343,50.887749 517.709656,45.416447 
	C538.766418,36.525780 560.293823,37.136913 581.235291,46.073036 
	C593.347351,51.241508 599.117493,61.450481 600.070129,74.440681 
	C600.224609,76.547348 600.278259,78.661407 600.380493,80.812912 
	C610.821960,80.812912 620.749329,80.812912 631.002625,80.812912 
	C631.448364,59.488377 625.074951,41.230740 606.938721,29.371042 
	C580.240173,11.912204 550.599487,11.429811 519.510315,16.961748 
M1385.602417,250.179337 
	C1404.521606,251.122604 1421.588135,245.983017 1437.148193,233.423370 
	C1437.148193,238.666077 1437.148193,242.737106 1437.148193,246.687500 
	C1445.460938,246.687500 1453.374634,246.687500 1461.210938,246.687500 
	C1461.210938,191.264954 1461.210938,136.155457 1461.210938,80.796616 
	C1452.084595,80.796616 1443.212036,80.796616 1434.000000,80.796616 
	C1434.000000,82.889557 1434.000000,84.696037 1434.000000,86.502525 
	C1434.000000,125.667564 1433.938354,164.832855 1434.096558,203.997253 
	C1434.112183,207.879135 1432.939575,210.674850 1430.233398,213.182053 
	C1417.201904,225.255768 1401.586792,228.222183 1384.743164,225.298523 
	C1373.299561,223.312225 1366.496338,215.419220 1365.028198,203.823349 
	C1364.360962,198.552582 1364.060059,193.202469 1364.046753,187.887222 
	C1363.961914,153.888840 1364.003418,119.890144 1364.003418,85.891556 
	C1364.003418,84.149330 1364.003418,82.407104 1364.003418,80.821701 
	C1354.525269,80.821701 1345.767334,80.821701 1336.638916,80.821701 
	C1336.638916,82.933701 1336.638916,84.734543 1336.638916,86.535378 
	C1336.638916,125.700417 1336.706543,164.865829 1336.496338,204.029739 
	C1336.481323,206.822449 1335.128662,210.272736 1333.208862,212.279800 
	C1322.725342,223.239685 1309.307739,226.782089 1294.589111,226.221268 
	C1277.157959,225.557068 1268.479858,217.151825 1267.024658,199.793762 
	C1266.927246,198.631775 1266.836304,197.464951 1266.832153,196.300064 
	C1266.702637,159.804962 1266.584106,123.309822 1266.465088,86.814682 
	C1266.458740,84.869743 1266.464233,82.924774 1266.464233,80.831177 
	C1257.030029,80.831177 1248.162109,80.831177 1239.000122,80.831177 
	C1239.000122,81.964302 1239.000122,82.774078 1239.000122,83.583855 
	C1239.000122,119.582359 1238.817017,155.582504 1239.138550,191.578125 
	C1239.212402,199.828506 1240.266113,208.246414 1242.205566,216.263855 
	C1245.370239,229.345108 1253.225464,239.261932 1265.681641,244.988632 
	C1280.226196,251.675323 1295.444214,251.492081 1310.702393,248.461594 
	C1324.081787,245.804276 1335.362915,238.849945 1345.620239,229.483536 
	C1354.958008,243.539261 1368.400146,249.545578 1385.602417,250.179337 
M691.118225,239.426483 
	C694.216003,241.347229 697.109436,243.783279 700.444397,245.106018 
	C723.958008,254.432037 746.313782,251.492950 767.543701,238.195618 
	C769.571655,236.925446 771.510254,235.512573 774.144409,233.721054 
	C774.144409,238.664490 774.144409,242.734879 774.144409,246.694275 
	C782.456848,246.694275 790.371338,246.694275 798.464783,246.694275 
	C798.464783,244.560501 798.464783,242.732529 798.464783,240.904556 
	C798.464783,201.917084 798.534180,162.929306 798.365723,123.942566 
	C798.347290,119.681259 799.669617,116.563148 802.710083,113.922447 
	C816.904175,101.594299 833.283447,98.344070 851.159790,103.057899 
	C859.477173,105.251129 864.970581,111.322426 866.638367,119.744011 
	C867.985657,126.546936 868.515991,133.606918 868.554443,140.557587 
	C868.740723,174.212418 868.638550,207.868835 868.638550,241.524689 
	C868.638550,243.270493 868.638489,245.016281 868.638489,246.805893 
	C878.071533,246.805893 886.835144,246.805893 896.003723,246.805893 
	C896.003723,244.998047 896.003723,243.377472 896.003723,241.756897 
	C896.003662,205.935074 896.041931,170.113159 895.959534,134.291534 
	C895.947998,129.312347 895.617920,124.297951 894.963440,119.362434 
	C892.079834,97.617165 878.332947,82.554726 857.198975,78.318031 
	C843.873779,75.646751 830.540039,76.553337 817.863098,81.378906 
	C810.254517,84.275192 803.214233,88.664589 795.657837,92.515823 
	C795.657837,88.814247 795.657837,84.899849 795.657837,80.907822 
	C787.209839,80.907822 779.189392,80.907822 770.999634,80.907822 
	C770.999634,83.140816 770.999634,84.967003 770.999634,86.793190 
	C770.999634,125.780663 770.927734,164.768463 771.101685,203.755157 
	C771.120789,208.034332 769.690063,211.019531 766.692505,213.708786 
	C753.786804,225.287277 738.447266,228.138184 721.986145,225.382889 
	C710.328003,223.431519 703.448669,215.437302 702.004089,203.591873 
	C701.361023,198.318573 701.059265,192.972626 701.046204,187.658554 
	C700.963074,153.836304 701.003784,120.013725 701.003723,86.191261 
	C701.003723,84.421120 701.003723,82.650986 701.003723,80.718819 
	C691.701477,80.718819 682.927429,80.718819 673.638489,80.718819 
	C673.638489,85.220047 673.631653,89.510788 673.639465,93.801498 
	C673.704285,129.455505 673.533875,165.112305 673.952515,200.762177 
	C674.126404,215.571457 679.142273,228.799164 691.118225,239.426483 
M1789.852539,149.328537 
	C1787.933838,167.359192 1788.321533,185.212738 1794.020630,202.644531 
	C1808.575684,247.164154 1862.657471,265.232819 1901.245117,238.486664 
	C1902.121460,237.879303 1903.105347,237.427216 1904.883423,236.428284 
	C1904.505127,243.069717 1904.613403,248.892242 1903.758911,254.569855 
	C1901.964722,266.490051 1896.533325,276.152649 1885.419434,282.062378 
	C1874.627686,287.800842 1862.957642,289.319885 1851.104126,288.861633 
	C1840.058472,288.434631 1829.056763,286.870544 1817.587280,285.763733 
	C1817.587280,291.936066 1817.736328,298.728638 1817.518433,305.509399 
	C1817.423096,308.472687 1818.514648,309.480072 1821.303589,310.090790 
	C1837.056030,313.540588 1852.951294,314.688599 1868.952148,312.822693 
	C1884.715088,310.984467 1899.613892,306.540314 1911.689087,295.545441 
	C1927.092896,281.519470 1931.935791,263.226349 1931.972412,243.248550 
	C1932.064941,192.774200 1931.967896,142.299500 1932.090332,91.825279 
	C1932.098145,88.616142 1931.178955,87.112846 1928.172485,86.144310 
	C1907.550171,79.501053 1886.514526,75.921585 1864.797485,77.450645 
	C1852.594360,78.309837 1840.814575,80.965248 1829.850464,86.635048 
	C1804.745361,99.617401 1793.720093,121.690239 1789.852539,149.328537 
M218.997528,214.500000 
	C218.997528,225.260956 218.997528,236.021912 218.997528,246.840637 
	C228.414322,246.840637 237.201523,246.840637 246.473633,246.840637 
	C246.473633,244.882477 246.473602,243.082886 246.473602,241.283295 
	C246.473602,203.122940 246.717804,164.959702 246.270325,126.804604 
	C246.179367,119.049232 249.127075,114.108315 254.976624,110.251175 
	C269.793701,100.480896 286.020172,98.719147 302.796112,103.289078 
	C312.858765,106.030258 318.524445,113.532555 319.890594,123.872253 
	C320.607391,129.297104 320.960663,134.807877 320.976227,140.281281 
	C321.071838,173.942108 321.024139,207.603348 321.024139,241.264450 
	C321.024139,243.046722 321.024170,244.828995 321.024170,246.716690 
	C330.391907,246.716690 339.277161,246.716690 348.526459,246.716690 
	C348.526459,244.625916 348.526459,242.817230 348.526459,241.008545 
	C348.526459,209.513748 348.560333,178.018890 348.502960,146.524200 
	C348.488403,138.529999 348.633789,130.495895 347.920410,122.550644 
	C346.330292,104.840408 338.973846,90.103065 321.969818,82.923653 
	C298.865631,73.168610 275.886047,74.925034 253.829193,87.033112 
	C251.562302,88.277504 249.460312,89.822258 246.432770,91.775360 
	C246.432770,66.413261 246.432770,42.034622 246.432770,17.673382 
	C236.959000,17.673382 228.076263,17.673382 218.997528,17.673382 
	C218.997528,83.202660 218.997528,148.351334 218.997528,214.500000 
M151.476349,131.991394 
	C147.755783,129.821899 144.035217,127.652405 140.198242,125.415031 
	C141.087921,124.913994 141.912567,124.362541 142.804382,123.959846 
	C181.095993,106.669228 177.947479,60.230938 158.247879,39.745159 
	C144.535858,25.485910 127.161644,19.322153 108.122192,18.174112 
	C89.850273,17.072353 71.484779,17.519501 53.160282,17.296490 
	C50.546120,17.264673 47.931240,17.292084 45.192505,17.292084 
	C45.192505,26.793800 45.192505,35.721645 45.192505,45.065228 
	C61.170773,45.065228 76.957993,44.849674 92.734947,45.158276 
	C100.357300,45.307369 108.088341,45.792850 115.545929,47.263275 
	C131.800949,50.468311 140.290848,60.375797 141.121155,75.850517 
	C142.018051,92.565842 134.471786,104.639511 118.708008,109.249352 
	C110.686333,111.595154 102.039734,112.560852 93.646538,112.733170 
	C71.159042,113.194862 48.655830,112.891716 26.158865,112.892365 
	C24.416475,112.892418 22.674086,112.892372 21.246346,112.892372 
	C21.246346,122.551559 21.246346,131.456329 21.246346,140.608215 
	C23.608768,140.608215 25.589512,140.598846 27.570145,140.609634 
	C52.896702,140.747757 78.261070,140.083557 103.538422,141.270981 
	C125.770943,142.315323 147.435471,155.370682 146.973923,187.156326 
	C146.705383,205.649933 146.919556,224.150620 146.936050,242.648117 
	C146.937317,244.067261 147.094116,245.486267 147.173828,246.824814 
	C157.090988,246.824814 166.549637,246.824814 176.127808,246.824814 
	C176.257645,246.029053 176.453339,245.387756 176.453766,244.746307 
	C176.467697,223.249252 176.585464,201.751251 176.425247,180.255356 
	C176.276657,160.319687 168.297440,144.227310 151.476349,131.991394 
z"/>
<path fill="#020202" opacity="1.000000" stroke="none" 
	d="
M1624.999756,140.609009 
	C1607.690552,140.608994 1590.881348,140.608994 1573.675537,140.608994 
	C1573.675537,131.414139 1573.675537,122.530693 1573.675537,113.207413 
	C1581.749023,113.207413 1589.984741,113.207413 1597.638306,113.207413 
	C1594.368896,106.330383 1590.156860,99.888817 1588.149902,92.821091 
	C1580.340576,65.319130 1592.155151,37.015682 1618.193848,24.850681 
	C1652.295410,8.918829 1687.469116,8.777618 1721.146362,26.002850 
	C1757.498413,44.596054 1756.051025,93.815834 1737.525879,112.423088 
	C1732.914673,117.054649 1727.312256,120.699593 1723.263306,123.923767 
	C1729.816772,128.628784 1737.729370,133.052277 1744.060059,139.124893 
	C1756.065063,150.640228 1759.572876,165.717529 1759.410645,181.961899 
	C1759.086792,214.389725 1738.061646,236.001678 1710.855469,244.070374 
	C1677.367920,254.001938 1644.055420,253.383682 1611.958130,238.623703 
	C1587.519775,227.385788 1574.047241,204.024139 1576.455811,179.004425 
	C1586.156494,179.004425 1595.894165,179.004425 1606.005493,179.004425 
	C1606.102173,179.687195 1606.311157,180.453308 1606.303833,181.217300 
	C1606.128052,199.413284 1615.103027,211.750534 1631.587280,218.088287 
	C1655.065674,227.115005 1679.129639,227.783691 1702.825073,219.007874 
	C1728.967041,209.325958 1732.183472,183.897217 1726.135498,166.143356 
	C1722.281860,154.831299 1713.668823,147.697662 1702.467773,145.265854 
	C1690.534302,142.674988 1678.202393,141.450348 1665.981323,140.779083 
	C1652.525024,140.039978 1638.996704,140.609558 1624.999756,140.609009 
M1617.053711,72.965706 
	C1614.700806,95.753433 1626.659790,107.338387 1647.315796,111.011513 
	C1661.381714,113.512810 1675.495850,113.534843 1689.554199,110.986290 
	C1698.381104,109.386108 1706.665649,106.374664 1712.343384,98.905518 
	C1727.203979,79.355446 1718.695557,51.879463 1695.461426,43.880447 
	C1680.074951,38.583176 1664.383301,38.295860 1648.716919,41.736877 
	C1632.233154,45.357403 1620.223145,54.221249 1617.053711,72.965706 
z"/>
<path fill="#020202" opacity="1.000000" stroke="none" 
	d="
M1117.871094,223.009827 
	C1124.843506,220.472977 1131.396118,217.984848 1139.112549,215.054810 
	C1127.841675,206.565811 1117.084229,200.933762 1104.854614,197.717224 
	C1107.633911,189.266922 1110.309692,181.131836 1113.024292,172.878082 
	C1129.095215,175.389465 1141.327759,184.751099 1154.376953,193.359238 
	C1158.022217,184.862061 1159.050049,176.290192 1159.042847,167.472702 
	C1159.003296,119.479164 1159.024048,71.485580 1159.024048,23.492014 
	C1159.024048,21.666380 1159.024048,19.840746 1159.024048,17.654144 
	C1168.810059,17.654144 1178.388550,17.654144 1188.795532,17.654144 
	C1188.795532,19.131033 1188.795532,20.702597 1188.795532,22.274160 
	C1188.795532,69.934441 1188.856934,117.594849 1188.760986,165.254929 
	C1188.729248,181.049026 1186.307983,196.391296 1177.731567,211.416611 
	C1187.724121,216.658279 1197.493164,221.782715 1207.771484,227.174316 
	C1204.924072,234.802185 1201.822021,243.112061 1198.606689,251.725128 
	C1187.157959,248.955948 1177.360718,243.240036 1167.988892,236.676865 
	C1161.049561,231.817139 1161.084106,231.767731 1153.894653,236.295639 
	C1120.557739,257.291260 1071.693726,254.911285 1042.439575,230.429108 
	C1025.571777,216.312759 1016.552551,197.491730 1016.221680,175.846527 
	C1015.424561,123.699112 1015.838379,71.533173 1015.775879,19.374691 
	C1015.775269,18.887791 1015.939331,18.400696 1016.081482,17.607250 
	C1025.625977,17.607250 1035.181763,17.607250 1045.184937,17.607250 
	C1045.184937,19.588686 1045.184937,21.384449 1045.184937,23.180212 
	C1045.185303,70.840492 1045.187012,118.500778 1045.184937,166.161057 
	C1045.184448,177.611557 1046.484985,188.852173 1052.413086,198.907318 
	C1064.019409,218.593704 1082.546631,224.904419 1104.104736,224.726135 
	C1108.557983,224.689316 1113.002686,223.640778 1117.871094,223.009827 
z"/>
<path fill="#020202" opacity="1.000000" stroke="none" 
	d="
M519.923950,16.890625 
	C550.599487,11.429811 580.240173,11.912204 606.938721,29.371042 
	C625.074951,41.230740 631.448364,59.488377 631.002625,80.812912 
	C620.749329,80.812912 610.821960,80.812912 600.380493,80.812912 
	C600.278259,78.661407 600.224609,76.547348 600.070129,74.440681 
	C599.117493,61.450481 593.347351,51.241508 581.235291,46.073036 
	C560.293823,37.136913 538.766418,36.525780 517.709656,45.416447 
	C504.751343,50.887749 498.312225,61.792076 498.155975,75.901115 
	C498.005981,89.445328 505.321838,98.326668 517.103271,103.864517 
	C521.439331,105.902679 525.960815,107.693604 530.570496,108.976738 
	C550.083130,114.408157 569.802551,119.139656 589.171387,125.031189 
	C605.821472,130.095764 620.763367,138.499359 631.032837,153.211990 
	C651.252563,182.180054 639.670837,222.981583 606.767944,239.005417 
	C583.198364,250.483871 558.043823,251.595642 532.587280,249.499359 
	C515.511353,248.093201 499.276550,243.522461 484.647430,234.126984 
	C465.812378,222.030289 455.534271,201.466476 457.505371,178.694305 
	C462.349457,178.694305 467.273804,178.694305 472.198120,178.694305 
	C477.014404,178.694305 481.830658,178.694305 486.932556,178.694305 
	C487.120117,179.652420 487.402649,180.406921 487.395264,181.158569 
	C487.185028,202.602432 498.785492,213.558212 515.768372,219.355362 
	C538.104919,226.979965 560.963806,227.105820 583.487122,219.852951 
	C602.088379,213.863068 610.548340,201.163956 608.908691,182.627823 
	C607.935486,171.625412 601.401367,164.042755 592.283997,158.563736 
	C578.949585,150.550461 563.699524,148.141937 549.034058,143.968979 
	C533.570435,139.568924 517.767090,135.821960 502.984009,129.688339 
	C475.331146,118.214973 466.733337,98.182655 467.589020,73.538826 
	C468.489471,47.605858 483.619141,28.806694 509.009766,20.062653 
	C512.457092,18.875467 516.007568,17.987999 519.923950,16.890625 
z"/>
<path fill="#010101" opacity="1.000000" stroke="none" 
	d="
M1385.121216,250.161194 
	C1368.400146,249.545578 1354.958008,243.539261 1345.620239,229.483536 
	C1335.362915,238.849945 1324.081787,245.804276 1310.702393,248.461594 
	C1295.444214,251.492081 1280.226196,251.675323 1265.681641,244.988632 
	C1253.225464,239.261932 1245.370239,229.345108 1242.205566,216.263855 
	C1240.266113,208.246414 1239.212402,199.828506 1239.138550,191.578125 
	C1238.817017,155.582504 1239.000122,119.582359 1239.000122,83.583855 
	C1239.000122,82.774078 1239.000122,81.964302 1239.000122,80.831177 
	C1248.162109,80.831177 1257.030029,80.831177 1266.464233,80.831177 
	C1266.464233,82.924774 1266.458740,84.869743 1266.465088,86.814682 
	C1266.584106,123.309822 1266.702637,159.804962 1266.832153,196.300064 
	C1266.836304,197.464951 1266.927246,198.631775 1267.024658,199.793762 
	C1268.479858,217.151825 1277.157959,225.557068 1294.589111,226.221268 
	C1309.307739,226.782089 1322.725342,223.239685 1333.208862,212.279800 
	C1335.128662,210.272736 1336.481323,206.822449 1336.496338,204.029739 
	C1336.706543,164.865829 1336.638916,125.700417 1336.638916,86.535378 
	C1336.638916,84.734543 1336.638916,82.933701 1336.638916,80.821701 
	C1345.767334,80.821701 1354.525269,80.821701 1364.003418,80.821701 
	C1364.003418,82.407104 1364.003418,84.149330 1364.003418,85.891556 
	C1364.003418,119.890144 1363.961914,153.888840 1364.046753,187.887222 
	C1364.060059,193.202469 1364.360962,198.552582 1365.028198,203.823349 
	C1366.496338,215.419220 1373.299561,223.312225 1384.743164,225.298523 
	C1401.586792,228.222183 1417.201904,225.255768 1430.233398,213.182053 
	C1432.939575,210.674850 1434.112183,207.879135 1434.096558,203.997253 
	C1433.938354,164.832855 1434.000000,125.667564 1434.000000,86.502525 
	C1434.000000,84.696037 1434.000000,82.889557 1434.000000,80.796616 
	C1443.212036,80.796616 1452.084595,80.796616 1461.210938,80.796616 
	C1461.210938,136.155457 1461.210938,191.264954 1461.210938,246.687500 
	C1453.374634,246.687500 1445.460938,246.687500 1437.148193,246.687500 
	C1437.148193,242.737106 1437.148193,238.666077 1437.148193,233.423370 
	C1421.588135,245.983017 1404.521606,251.122604 1385.121216,250.161194 
z"/>
<path fill="#010101" opacity="1.000000" stroke="none" 
	d="
M690.836548,239.205994 
	C679.142273,228.799164 674.126404,215.571457 673.952515,200.762177 
	C673.533875,165.112305 673.704285,129.455505 673.639465,93.801498 
	C673.631653,89.510788 673.638489,85.220047 673.638489,80.718819 
	C682.927429,80.718819 691.701477,80.718819 701.003723,80.718819 
	C701.003723,82.650986 701.003723,84.421120 701.003723,86.191261 
	C701.003784,120.013725 700.963074,153.836304 701.046204,187.658554 
	C701.059265,192.972626 701.361023,198.318573 702.004089,203.591873 
	C703.448669,215.437302 710.328003,223.431519 721.986145,225.382889 
	C738.447266,228.138184 753.786804,225.287277 766.692505,213.708786 
	C769.690063,211.019531 771.120789,208.034332 771.101685,203.755157 
	C770.927734,164.768463 770.999634,125.780663 770.999634,86.793190 
	C770.999634,84.967003 770.999634,83.140816 770.999634,80.907822 
	C779.189392,80.907822 787.209839,80.907822 795.657837,80.907822 
	C795.657837,84.899849 795.657837,88.814247 795.657837,92.515823 
	C803.214233,88.664589 810.254517,84.275192 817.863098,81.378906 
	C830.540039,76.553337 843.873779,75.646751 857.198975,78.318031 
	C878.332947,82.554726 892.079834,97.617165 894.963440,119.362434 
	C895.617920,124.297951 895.947998,129.312347 895.959534,134.291534 
	C896.041931,170.113159 896.003662,205.935074 896.003723,241.756897 
	C896.003723,243.377472 896.003723,244.998047 896.003723,246.805893 
	C886.835144,246.805893 878.071533,246.805893 868.638489,246.805893 
	C868.638489,245.016281 868.638550,243.270493 868.638550,241.524689 
	C868.638550,207.868835 868.740723,174.212418 868.554443,140.557587 
	C868.515991,133.606918 867.985657,126.546936 866.638367,119.744011 
	C864.970581,111.322426 859.477173,105.251129 851.159790,103.057899 
	C833.283447,98.344070 816.904175,101.594299 802.710083,113.922447 
	C799.669617,116.563148 798.347290,119.681259 798.365723,123.942566 
	C798.534180,162.929306 798.464783,201.917084 798.464783,240.904556 
	C798.464783,242.732529 798.464783,244.560501 798.464783,246.694275 
	C790.371338,246.694275 782.456848,246.694275 774.144409,246.694275 
	C774.144409,242.734879 774.144409,238.664490 774.144409,233.721054 
	C771.510254,235.512573 769.571655,236.925446 767.543701,238.195618 
	C746.313782,251.492950 723.958008,254.432037 700.444397,245.106018 
	C697.109436,243.783279 694.216003,241.347229 690.836548,239.205994 
z"/>
<path fill="#020202" opacity="1.000000" stroke="none" 
	d="
M1789.894043,148.884521 
	C1793.720093,121.690239 1804.745361,99.617401 1829.850464,86.635048 
	C1840.814575,80.965248 1852.594360,78.309837 1864.797485,77.450645 
	C1886.514526,75.921585 1907.550171,79.501053 1928.172485,86.144310 
	C1931.178955,87.112846 1932.098145,88.616142 1932.090332,91.825279 
	C1931.967896,142.299500 1932.064941,192.774200 1931.972412,243.248550 
	C1931.935791,263.226349 1927.092896,281.519470 1911.689087,295.545441 
	C1899.613892,306.540314 1884.715088,310.984467 1868.952148,312.822693 
	C1852.951294,314.688599 1837.056030,313.540588 1821.303589,310.090790 
	C1818.514648,309.480072 1817.423096,308.472687 1817.518433,305.509399 
	C1817.736328,298.728638 1817.587280,291.936066 1817.587280,285.763733 
	C1829.056763,286.870544 1840.058472,288.434631 1851.104126,288.861633 
	C1862.957642,289.319885 1874.627686,287.800842 1885.419434,282.062378 
	C1896.533325,276.152649 1901.964722,266.490051 1903.758911,254.569855 
	C1904.613403,248.892242 1904.505127,243.069717 1904.883423,236.428284 
	C1903.105347,237.427216 1902.121460,237.879303 1901.245117,238.486664 
	C1862.657471,265.232819 1808.575684,247.164154 1794.020630,202.644531 
	C1788.321533,185.212738 1787.933838,167.359192 1789.894043,148.884521 
M1854.768066,103.068771 
	C1835.172852,107.874077 1824.353516,120.960892 1819.950317,140.050720 
	C1816.385010,155.508987 1816.333252,171.043533 1818.933472,186.656479 
	C1823.171387,212.102493 1837.836670,225.494934 1863.479614,226.428452 
	C1878.706909,226.982742 1892.068970,222.248184 1901.614014,209.671463 
	C1903.289062,207.464264 1904.495239,204.276489 1904.513550,201.532211 
	C1904.715942,171.209396 1904.591797,140.884521 1904.716431,110.560860 
	C1904.728882,107.514854 1903.741333,106.114693 1900.928467,105.229698 
	C1885.998779,100.532341 1870.908936,99.715996 1854.768066,103.068771 
z"/>
<path fill="#020202" opacity="1.000000" stroke="none" 
	d="
M218.997528,214.000000 
	C218.997528,148.351334 218.997528,83.202660 218.997528,17.673382 
	C228.076263,17.673382 236.959000,17.673382 246.432770,17.673382 
	C246.432770,42.034622 246.432770,66.413261 246.432770,91.775360 
	C249.460312,89.822258 251.562302,88.277504 253.829193,87.033112 
	C275.886047,74.925034 298.865631,73.168610 321.969818,82.923653 
	C338.973846,90.103065 346.330292,104.840408 347.920410,122.550644 
	C348.633789,130.495895 348.488403,138.529999 348.502960,146.524200 
	C348.560333,178.018890 348.526459,209.513748 348.526459,241.008545 
	C348.526459,242.817230 348.526459,244.625916 348.526459,246.716690 
	C339.277161,246.716690 330.391907,246.716690 321.024170,246.716690 
	C321.024170,244.828995 321.024139,243.046722 321.024139,241.264450 
	C321.024139,207.603348 321.071838,173.942108 320.976227,140.281281 
	C320.960663,134.807877 320.607391,129.297104 319.890594,123.872253 
	C318.524445,113.532555 312.858765,106.030258 302.796112,103.289078 
	C286.020172,98.719147 269.793701,100.480896 254.976624,110.251175 
	C249.127075,114.108315 246.179367,119.049232 246.270325,126.804604 
	C246.717804,164.959702 246.473602,203.122940 246.473602,241.283295 
	C246.473602,243.082886 246.473633,244.882477 246.473633,246.840637 
	C237.201523,246.840637 228.414322,246.840637 218.997528,246.840637 
	C218.997528,236.021912 218.997528,225.260956 218.997528,214.000000 
z"/>
<path fill="#020202" opacity="1.000000" stroke="none" 
	d="
M151.767929,132.202515 
	C168.297440,144.227310 176.276657,160.319687 176.425247,180.255356 
	C176.585464,201.751251 176.467697,223.249252 176.453766,244.746307 
	C176.453339,245.387756 176.257645,246.029053 176.127808,246.824814 
	C166.549637,246.824814 157.090988,246.824814 147.173828,246.824814 
	C147.094116,245.486267 146.937317,244.067261 146.936050,242.648117 
	C146.919556,224.150620 146.705383,205.649933 146.973923,187.156326 
	C147.435471,155.370682 125.770943,142.315323 103.538422,141.270981 
	C78.261070,140.083557 52.896702,140.747757 27.570145,140.609634 
	C25.589512,140.598846 23.608768,140.608215 21.246346,140.608215 
	C21.246346,131.456329 21.246346,122.551559 21.246346,112.892372 
	C22.674086,112.892372 24.416475,112.892418 26.158865,112.892365 
	C48.655830,112.891716 71.159042,113.194862 93.646538,112.733170 
	C102.039734,112.560852 110.686333,111.595154 118.708008,109.249352 
	C134.471786,104.639511 142.018051,92.565842 141.121155,75.850517 
	C140.290848,60.375797 131.800949,50.468311 115.545929,47.263275 
	C108.088341,45.792850 100.357300,45.307369 92.734947,45.158276 
	C76.957993,44.849674 61.170773,45.065228 45.192505,45.065228 
	C45.192505,35.721645 45.192505,26.793800 45.192505,17.292084 
	C47.931240,17.292084 50.546120,17.264673 53.160282,17.296490 
	C71.484779,17.519501 89.850273,17.072353 108.122192,18.174112 
	C127.161644,19.322153 144.535858,25.485910 158.247879,39.745159 
	C177.947479,60.230938 181.095993,106.669228 142.804382,123.959846 
	C141.912567,124.362541 141.087921,124.913994 140.198242,125.415031 
	C144.035217,127.652405 147.755783,129.821899 151.767929,132.202515 
z"/>
<path fill="#FEFEFE" opacity="1.000000" stroke="none" 
	d="
M1617.099121,72.521637 
	C1620.223145,54.221249 1632.233154,45.357403 1648.716919,41.736877 
	C1664.383301,38.295860 1680.074951,38.583176 1695.461426,43.880447 
	C1718.695557,51.879463 1727.203979,79.355446 1712.343384,98.905518 
	C1706.665649,106.374664 1698.381104,109.386108 1689.554199,110.986290 
	C1675.495850,113.534843 1661.381714,113.512810 1647.315796,111.011513 
	C1626.659790,107.338387 1614.700806,95.753433 1617.099121,72.521637 
z"/>
<path fill="#FDFDFD" opacity="1.000000" stroke="none" 
	d="
M1855.184082,103.024902 
	C1870.908936,99.715996 1885.998779,100.532341 1900.928467,105.229698 
	C1903.741333,106.114693 1904.728882,107.514854 1904.716431,110.560860 
	C1904.591797,140.884521 1904.715942,171.209396 1904.513550,201.532211 
	C1904.495239,204.276489 1903.289062,207.464264 1901.614014,209.671463 
	C1892.068970,222.248184 1878.706909,226.982742 1863.479614,226.428452 
	C1837.836670,225.494934 1823.171387,212.102493 1818.933472,186.656479 
	C1816.333252,171.043533 1816.385010,155.508987 1819.950317,140.050720 
	C1824.353516,120.960892 1835.172852,107.874077 1855.184082,103.024902 
z"/>
</svg>