<svg enable-background="new 0 0 660 652" viewBox="0 0 660 652" xmlns="http://www.w3.org/2000/svg"><path d="m1 240c0-80 0-159.5 0-239h660v652c-220 0-440 0-660 0 0-137.5 0-275 0-413m477.940948-209.765615c-44.38388-5.35744-87.159088 37.573171-80.219543 83.806272 2.590759 17.260292 7.386292 33.765297 13.7229 49.911369 1.678376 4.276551 3.693177 8.421067 5.618836 12.773957 14.929748-4.462754 29.357941-8.775574 43.63269-13.042542-4.695465-9.785049-9.658325-19.380585-13.957031-29.264953-6.070679-13.95887-10.886963-28.285775-9.738647-43.908318 1.266723-17.233505 15.90567-27.878845 32.53833-23.643753 10.075622 2.565506 17.451965 8.714271 22.975311 17.249344 8.163422 12.614769 10.707855 26.711075 10.658905 41.468437-.042023 12.666031-.015442 25.332291-.005829 37.998459.005371 7.08313 2.360748 8.818649 8.865723 6.631546 9.548706-3.210449 19.10852-6.387634 28.969787-9.681244 0-1.86412 0-3.679581 0-5.495041 0-19.332565-.071472-38.665596.053528-57.997353.028931-4.475608.37439-9.012168 1.183899-13.408416 2.955567-16.05111 19.312073-22.606846 31.789246-12.190712 5.854309 4.88726 11.022888 11.233627 14.764892 17.894745 11.525147 20.515861 14.465515 43.26889 15.932556 66.392303 1.52417 24.022888-11.028808 39.069565-30.418579 50.154358-.915283.523254-2.212036.621857-3.307495.55127-19.19458-1.236985-36.045959 4.814239-51.075622 16.43518-2.430603 1.879288-4.542664 4.170532-7.057495 6.508957-9.857148-15.427811-23.448456-23.594894-41.474396-23.102127-17.447144.476944-31.68869 7.754776-42.354706 22.099731-1.507721-1.810958-2.649139-3.208801-3.818787-4.582595-9.108429-10.697785-20.751617-16.693695-34.699737-17.313401-5.794464-.257461-10.528443-1.942611-15.23346-5.014068-18.428344-12.030091-28.341217-28.275559-27.326904-50.939972.960419-21.459808 6.375977-41.744438 14.483002-61.386154 5.817657-14.095078 12.345184-27.897179 18.673157-42.092781-8.78769-5.288678-17.606934-10.596367-26.811615-16.136004-5.980988 10.830168-12.086274 21.327215-17.666718 32.096224-15.952057 30.783676-26.83783 63.023567-27.58136 98.122002-.399139 18.84201 4.569031 35.942978 16.560608 50.591537 5.119995 6.254456 11.115601 11.792099 16.877289 17.827164-1.417603 2.251205-3.06839 4.722076-4.56958 7.2807-11.004578 18.756272-14.799805 39.410813-15.709503 60.75795-.959168 22.507996 2.143127 44.230622 13.797546 64.011627 11.738678 19.924073 33.156525 28.858796 55.637695 23.753602 13.181244-2.993287 23.728546-9.96048 32.330292-20.572175 17.098236 22.046021 38.293518 27.577393 63.849121 16.543061 0 15.311645-.025574 30.457428.015259 45.603027.012634 4.691528 3.022003 7.635529 6.895355 6.73407 10.994263-2.558655 21.965515-5.216187 33.262512-7.910309 0-1.938049 0-3.753052 0-5.568024 0-49.831359.019593-99.662719-.02539-149.494018-.005432-6.053436 1.290039-11.52002 5.518066-16.088516 12.89801-13.936676 34.054688-10.834397 42.384644 6.238815 5.794983 11.877502 6.565979 24.666046 6.588501 37.529388.074035 42.164856.027649 84.329926.028747 126.494934.000061 1.33313-.299988 2.764588.082031 3.979706.905823 2.881073 1.974549 5.851258 6.08429 4.886658 11.314087-2.655579 22.630615-5.30069 33.862671-7.930359.127624-.51004.278442-.830933.278198-1.151703-.037048-49.663818.127014-99.329193-.245422-148.99057-.133728-17.830597-3.597046-35.075119-14.243958-50.227646 1.247803-1.193985 2.431397-2.364822 3.655396-3.491821 17.087036-15.732666 26.872742-35.199951 30.233581-58.129791 2.519043-17.186554 1.639038-34.281494-1.339843-51.222977-4.026673-22.90052-11.650818-44.412186-27.19397-62.370109-9.94043-11.484719-21.794129-19.751791-37.511536-20.22353-17.981811-.539696-32.941955 6.823246-45.687805 19.082981-2.946228 2.833885-5.607788 5.963756-8.712585 9.292133-10.458863-15.69194-24.828095-24.7575-43.817048-28.130525m-263.49382 4.727037c-17.524383-3.877203-35.161087-6.884459-53.133941-3.899069-12.204102 2.027163-24.810517 3.266012-36.347588 7.362372-31.930283 11.337173-56.231193 32.780544-73.734772 61.513385-23.394201 38.402527-32.647636 80.96251-34.057476 125.36937-.450834 14.200332 1.034115 28.471771 1.829754 42.699692 1.086466 19.428619 5.278139 38.292999 11.120451 56.784759 10.272165 32.51294 26.100908 61.524567 52.825571 83.746185 25.831635 21.479065 55.301727 30.749909 88.613617 26.306 28.053055-3.74237 51.183167-16.778259 69.086975-38.91214 23.68454-29.280365 31.74762-62.887726 25.987061-99.527801-3.820221-24.298737-15.686478-44.799118-35.160126-60.451782-25.964966-20.870346-55.626022-27.615311-88.101746-22.439026-24.967453 3.979553-47.196777 14.624557-67.344261 29.734756-4.719436 3.539505-9.326317 7.229096-14.623623 11.345947-.199043-1.815353-.387352-2.748504-.390674-3.682312-.041191-11.581482-.450966-23.179596.03228-34.740081.504001-12.056992 1.364856-24.146347 2.971344-36.100388 3.603714-26.815369 11.307068-52.206467 27.590187-74.415199 8.888153-12.122643 19.918365-21.423538 33.539131-27.869286 10.194977-4.824562 20.828949-6.789535 31.990814-8.050384 16.173691-1.827004 31.596588.518242 46.97876 4.836105 13.661926 3.834984 26.280502 9.836678 37.972122 17.874886 4.547943 3.1268 7.981384 2.114746 10.536118-2.69703 1.163208-2.190879 2.435119-4.32402 3.599701-6.51419 4.246765-7.986634 8.469055-15.986283 12.672821-23.928536-16.722412-11.616108-34.575531-19.265339-54.4525-24.346233z" fill="#fff"/><path d="m479.374817 30.34c18.555084 3.26741 32.924316 12.33297 43.383179 28.02491 3.104797-3.328377 5.766357-6.458248 8.712585-9.292133 12.74585-12.259735 27.705994-19.622677 45.687805-19.082981 15.717407.471739 27.571106 8.738811 37.511536 20.22353 15.543152 17.957923 23.167297 39.469589 27.19397 62.370109 2.978881 16.941483 3.858886 34.036423 1.339843 51.222977-3.360839 22.92984-13.146545 42.397125-30.233581 58.129791-1.223999 1.126999-2.407593 2.297836-3.655396 3.491821 10.646912 15.152527 14.11023 32.397049 14.243958 50.227646.372436 49.661377.208374 99.326752.245422 148.99057.000244.32077-.150574.641663-.278198 1.151703-11.232056 2.629669-22.548584 5.27478-33.862671 7.930359-4.109741.9646-5.178467-2.005585-6.08429-4.886658-.382019-1.215118-.08197-2.646576-.082031-3.979706-.001098-42.165008.045288-84.330078-.028747-126.494934-.022522-12.863342-.793518-25.651886-6.588501-37.529388-8.329956-17.073212-29.486634-20.175491-42.384644-6.238815-4.228027 4.568496-5.523498 10.03508-5.518066 16.088516.044983 49.831299.02539 99.662659.02539 149.494018v5.568024c-11.296997 2.694122-22.268249 5.351654-33.262512 7.910309-3.873352.901459-6.882721-2.042542-6.895355-6.73407-.040833-15.145599-.015259-30.291382-.015259-45.603027-25.555603 11.034332-46.750885 5.50296-63.849121-16.543061-8.601746 10.611695-19.149048 17.578888-32.330292 20.572175-22.48117 5.105194-43.899017-3.829529-55.637695-23.753602-11.654419-19.781005-14.756714-41.503631-13.797546-64.011627.909698-21.347137 4.704925-42.001678 15.709503-60.75795 1.50119-2.558624 3.151977-5.029495 4.56958-7.2807-5.761688-6.035065-11.757294-11.572708-16.877289-17.827164-11.991577-14.648559-16.959747-31.749527-16.560608-50.591537.74353-35.098435 11.629303-67.338326 27.58136-98.122002 5.580444-10.769009 11.68573-21.266056 17.666718-32.096224 9.204681 5.539637 18.023925 10.847326 26.811615 16.136004-6.327973 14.195602-12.8555 27.997703-18.673157 42.092781-8.107025 19.641716-13.522583 39.926346-14.483002 61.386154-1.014313 22.664413 8.89856 38.909881 27.326904 50.939972 4.705017 3.071457 9.438996 4.756607 15.23346 5.014068 13.94812.619706 25.591308 6.615616 34.699737 17.313401 1.169648 1.373794 2.311066 2.771637 3.818787 4.582595 10.666016-14.344955 24.907562-21.622787 42.354706-22.099731 18.02594-.492767 31.617248 7.674316 41.474396 23.102127 2.514831-2.338425 4.626892-4.629669 7.057495-6.508957 15.029663-11.620941 31.881042-17.672165 51.075622-16.43518 1.095459.070587 2.392212-.028016 3.307495-.55127 19.389771-11.084793 31.942749-26.13147 30.418579-50.154358-1.467041-23.123413-4.407409-45.876442-15.932556-66.392303-3.742004-6.661118-8.910583-13.007485-14.764892-17.894745-12.477173-10.416134-28.833679-3.860398-31.789246 12.190712-.809509 4.396248-1.154968 8.932808-1.183899 13.408416-.125 19.331757-.053528 38.664788-.053528 57.997353v5.495041c-9.861267 3.29361-19.421081 6.470795-28.969787 9.681244-6.504975 2.187103-8.860352.451584-8.865723-6.631546-.009613-12.666168-.036194-25.332428.005829-37.998459.04895-14.757362-2.495483-28.853668-10.658905-41.468437-5.523346-8.535073-12.899689-14.683838-22.975311-17.249344-16.63266-4.235092-31.271607 6.410248-32.53833 23.643753-1.148316 15.622543 3.667968 29.949448 9.738647 43.908318 4.298706 9.884368 9.261566 19.479904 13.957031 29.264953-14.274749 4.266968-28.702942 8.579788-43.63269 13.042542-1.925659-4.35289-3.94046-8.497406-5.618836-12.773957-6.336608-16.146072-11.132141-32.651077-13.7229-49.911369-6.939545-46.233101 35.835663-89.163712 80.653412-83.700657m-72.016663 251.855679c-2.023742-11.542267-4.858825-22.827027-11.968933-32.447266-8.5224-11.531128-20.699035-10.72493-27.63211 1.686066-.970887 1.737991-2.107788 3.457763-2.676209 5.334869-7.832886 25.867096-7.425079 51.560974 2.644898 76.732788 2.105468 5.26294 5.637695 10.231903 9.477081 14.46048 5.990021 6.597259 14.893677 6.04657 20.276489-.914459 2.596741-3.358124 4.850464-7.232941 6.24173-11.228241 5.98996-17.201294 6.282013-34.90979 3.637054-53.624237m87.314606 22.029724c-1.359467-11.527435-2.022919-23.194794-4.302856-34.537201-1.762879-8.769867-5.682435-17.095139-12.513886-23.454285-7.385345-6.874756-16.490021-6.0923-22.329193 2.136215-2.272644 3.202591-4.180176 6.875168-5.345947 10.616593-5.609864 18.004425-5.844025 36.405914-2.666321 54.81607 1.786285 10.348938 4.935425 20.415314 10.98642 29.21518 9.235626 13.431183 21.611267 12.556091 28.824249-1.952789 5.624298-11.313294 6.720947-23.566651 7.347534-36.839783z" fill="#020202"/><path d="m215.862625 35.000401c19.461472 5.041915 37.314591 12.691146 54.037003 24.307254-4.203766 7.942253-8.426056 15.941902-12.672821 23.928536-1.164582 2.19017-2.436493 4.323311-3.599701 6.51419-2.554734 4.811776-5.988175 5.82383-10.536118 2.69703-11.69162-8.038208-24.310196-14.039902-37.972122-17.874886-15.382172-4.317863-30.805069-6.663109-46.97876-4.836105-11.161865 1.260849-21.795837 3.225822-31.990814 8.050384-13.620766 6.445748-24.650978 15.746643-33.539131 27.869286-16.283119 22.208732-23.986473 47.59983-27.590187 74.415199-1.606488 11.954041-2.467343 24.043396-2.971344 36.100388-.483246 11.560485-.073471 23.158599-.03228 34.740081.003322.933808.191631 1.866959.390674 3.682312 5.297306-4.116851 9.904187-7.806442 14.623623-11.345947 20.147484-15.110199 42.376808-25.755203 67.344261-29.734756 32.475724-5.176285 62.13678 1.56868 88.101746 22.439026 19.473648 15.652664 31.339905 36.153045 35.160126 60.451782 5.760559 36.640075-2.302521 70.247436-25.987061 99.527801-17.903808 22.133881-41.03392 35.16977-69.086975 38.91214-33.31189 4.443909-62.781982-4.826935-88.613617-26.306-26.724663-22.221618-42.553406-51.233245-52.825571-83.746185-5.842312-18.49176-10.033985-37.35614-11.120451-56.784759-.795639-14.227921-2.280588-28.49936-1.829754-42.699692 1.40984-44.40686 10.663275-86.966843 34.057476-125.36937 17.503579-28.732841 41.804489-50.176212 73.734772-61.513385 11.537071-4.09636 24.143486-5.335209 36.347588-7.362372 17.972854-2.98539 35.609558.021866 53.549438 3.938048m-146.868477 260.749874c2.016526 7.664154 3.519806 15.509216 6.145531 22.958648 7.969124 22.60907 19.210808 43.283112 38.015121 58.89444 15.313874 12.713562 32.710572 19.70694 53.019013 18.528137 22.086777-1.282013 39.610947-10.631378 51.796417-29.145111 10.546051-16.02298 12.533859-33.87796 10.325287-52.575683-1.854858-15.703309-7.857758-29.49115-19.058197-40.519776-18.49736-18.213669-41.618485-23.626633-66.496613-20.490295-26.954818 3.398102-50.23883 15.819427-71.482063 32.49765-3.776832 2.96521-3.910156 5.422546-2.264496 9.85199z" fill="#cdb592"/><path d="m407.45575 282.620911c2.547363 18.289215 2.25531 35.997711-3.73465 53.199005-1.391266 3.9953-3.644989 7.870117-6.24173 11.228241-5.382812 6.961029-14.286468 7.511718-20.276489.914459-3.839386-4.228577-7.371613-9.19754-9.477081-14.46048-10.069977-25.171814-10.477784-50.865692-2.644898-76.732788.568421-1.877106 1.705322-3.596878 2.676209-5.334869 6.933075-12.410996 19.10971-13.217194 27.63211-1.686066 7.110108 9.620239 9.945191 20.904999 12.066529 32.872498z" fill="#fdfdfd"/><path d="m494.641846 304.686493c-.595673 12.812042-1.692322 25.065399-7.31662 36.378693-7.212982 14.50888-19.588623 15.383972-28.824249 1.952789-6.050995-8.799866-9.200135-18.866242-10.98642-29.21518-3.177704-18.410156-2.943543-36.811645 2.666321-54.81607 1.165771-3.741425 3.073303-7.414002 5.345947-10.616593 5.839172-8.228515 14.943848-9.010971 22.329193-2.136215 6.831451 6.359146 10.751007 14.684418 12.513886 23.454285 2.279937 11.342407 2.943389 23.009766 4.271942 34.998291z" fill="#fdfdfd"/><path d="m68.930763 295.35144c-1.582275-4.030609-1.448951-6.487945 2.327881-9.453155 21.243233-16.678223 44.527245-29.099548 71.482063-32.49765 24.878128-3.136338 47.999253 2.276626 66.496613 20.490295 11.200439 11.028626 17.203339 24.816467 19.058197 40.519776 2.208572 18.697723.220764 36.552703-10.325287 52.575683-12.18547 18.513733-29.70964 27.863098-51.796417 29.145111-20.308441 1.178803-37.705139-5.814575-53.019013-18.528137-18.804313-15.611328-30.045997-36.28537-38.015121-58.89444-2.625725-7.449432-4.129005-15.294494-6.208916-23.357483z" fill="#fff"/></svg>