<svg enable-background="new 0 0 670 548" viewBox="0 0 670 548" xmlns="http://www.w3.org/2000/svg"><path d="m393 549c-131 0-261.5 0-392 0 0-182.666656 0-365.333328 0-548h670v548c-92.5 0-185 0-278 0m-60.95871-16.434692c11.61142-2.683716 23.22287-5.367493 34.873291-8.060242-.457672-7.432007-.84497-14.402771-1.322509-21.36731-3.739258-54.529235-6.432862-109.098877-6.423645-163.775055.006042-35.824829-.476227-71.658172.162658-107.471588.454102-25.45317 1.770661-50.933151 3.889893-76.301971 1.931946-23.127136 7.220032-45.679756 17.586456-66.690903 4.980835-10.095383 11.343353-19.320274 21.180573-25.324936 18.733856-11.435188 40.365722-8.262901 56.486175 7.969696 12.924164 13.014099 18.71463 29.687958 23.565888 46.718643 8.072052 28.337449 11.100006 57.490921 12.759979 86.767243 3.928039 69.275558 2.12558 138.581863.522247 207.878952-.372711 16.108704-1.01889 32.211121-1.553558 48.759918 16.010345-3.766754 31.527832-7.417572 47.127685-11.087768.110718-.894989.248108-1.533204.260559-2.173859.94983-48.808838 2.094239-97.61496 2.771851-146.427612.647827-46.663361-.140625-93.286057-6.924622-139.594941-3.919921-26.75856-9.763794-53.00579-21.202697-77.698509-9.173584-19.802696-21.337555-37.222503-40.185028-49.148639-15.041413-9.517777-31.573792-13.666058-49.25412-13.944973-27.598481-.435374-50.187775 10.213651-67.998993 30.978878-16.939606 19.749088-26.534973 43.302471-33.454926 67.983951-10.093384 36.000023-13.604126 72.917748-13.873687 110.166207-.63913 88.318481.171539 176.614593 5.117797 264.826324.734406 13.097443 1.752259 26.178955 2.674042 39.785278 4.404877-.891723 8.406433-1.701782 13.214691-2.766784m-76.818725-258.28891c-.429077-4.307129-.722397-8.633026-1.313752-12.917755-1.523117-11.035965-3.230102-22.04657-4.7462-33.083451-.410446-2.988037-1.850815-3.927551-4.729904-3.508133-4.11525.599488-8.264618.960968-12.393799 1.469513-9.338272 1.150086-18.673111 2.327957-28.270187 3.52713.218505 2.684403.337844 4.660294.546524 6.626725.948349 8.935501 2.43074 17.84758 2.796478 26.805801 1.426864 34.949707 3.150268 69.906952 3.513412 104.87439.314713 30.302276-.993347 60.623871-1.80365 90.93106-.072753 2.721314-.937484 6.387696-2.817871 7.948884-26.63977 22.118316-56.47644 35.524444-92.036407 32.10852-10.338158-.993134-19.097901-5.188934-25.408882-13.894623-7.183678-9.909576-10.415375-21.389465-11.31234-33.118683-1.890305-24.718505-3.322968-49.515319-3.681168-74.298217-.63327-43.813446-.695358-87.626923-6.527031-131.162751-.979324-7.311035-2.60411-14.535614-4.007522-22.221038-14.3601 3.19844-27.771191 6.384048-41.281229 9.072387-3.997837.795532-4.467686 2.261017-4.028744 5.97522 1.953119 16.526642 4.354544 33.064545 5.043488 49.66275 1.360599 32.780029 1.730976 65.601868 2.443376 98.407868.643519 29.633941 1.303061 59.267944 7.850971 88.365539 3.05703 13.584809 7.926758 26.440918 17.212506 37.111756 16.634258 19.115417 39.188335 23.206054 62.609211 22.427185 26.44387-.879334 50.349998-11.364563 73.428627-23.559021 6.360351-3.360749 12.485733-7.166138 19.90718-11.45401-.914474 12.455169-1.729476 23.555511-2.594055 35.331146 16.0728-3.783814 31.119171-7.250549 46.094391-11.001404 1.137314-.284912 2.426529-2.534729 2.537262-3.957458 1.447235-18.591065 2.820587-37.189942 3.96901-55.80185 3.903808-63.268371 3.787292-126.522919-.999695-190.66748m356.367462-168.401177c-1.458191-4.720779-4.628723-5.823723-9.450684-5.722778-16.135559.337776-32.282593.110733-48.425171.139877-4.422302.007988-5.910278 2.122582-4.373169 6.266083.450928 1.215607 1.332703 2.297684 2.132019 3.353935 22.086548 29.186066 47.659852 55.057526 75.225953 79.027268.853332.742004 1.954528 1.69104 2.949707 1.702392 10.750854.122742 21.503723.076599 33.401916.076599-.91272-3.740799-.772705-7.331176-2.466247-9.469085-18.541199-23.405823-34.299622-48.591004-48.994324-75.374291z" fill="#fff"/><path d="m331.637939 532.692749c-4.404907.937561-8.406463 1.74762-12.81134 2.639343-.921783-13.606323-1.939636-26.687835-2.674042-39.785278-4.946258-88.211731-5.756927-176.507843-5.117797-264.826324.269561-37.248459 3.780303-74.166184 13.873687-110.166207 6.919953-24.68148 16.51532-48.234863 33.454926-67.983951 17.811218-20.765227 40.400512-31.414252 67.998993-30.978878 17.680328.278915 34.212707 4.427196 49.25412 13.944973 18.847473 11.926136 31.011444 29.345943 40.185028 49.148639 11.438903 24.692719 17.282776 50.939949 21.202697 77.698509 6.783997 46.308884 7.572449 92.93158 6.924622 139.594941-.677612 48.812652-1.822021 97.618774-2.771851 146.427612-.012451.640655-.149841 1.27887-.260559 2.173859-15.599853 3.670196-31.11734 7.321014-47.127685 11.087768.534668-16.548797 1.180847-32.651214 1.553558-48.759918 1.603333-69.297089 3.405792-138.603394-.522247-207.878952-1.659973-29.276322-4.687927-58.429794-12.759979-86.767243-4.851258-17.030685-10.641724-33.704544-23.565888-46.718643-16.120453-16.232597-37.752319-19.404884-56.486175-7.969696-9.83722 6.004662-16.199738 15.229553-21.180573 25.324936-10.366424 21.011147-15.65451 43.563767-17.586456 66.690903-2.119232 25.36882-3.435791 50.848801-3.889893 76.301971-.638885 35.813416-.156616 71.646759-.162658 107.471588-.009217 54.676178 2.684387 109.24582 6.423645 163.775055.477539 6.964539.864837 13.935303 1.322509 21.36731-11.650421 2.692749-23.261871 5.376526-35.276642 8.187683z" fill="#010101"/><path d="m255.254333 274.734314c4.755219 63.686645 4.871735 126.941193.967927 190.209564-1.148423 18.611908-2.521775 37.210785-3.96901 55.80185-.110733 1.422729-1.399948 3.672546-2.537262 3.957458-14.97522 3.750855-30.021591 7.21759-46.094391 11.001404.864579-11.775635 1.679581-22.875977 2.594055-35.331146-7.421447 4.287872-13.546829 8.093261-19.90718 11.45401-23.078629 12.194458-46.984757 22.679687-73.428627 23.559021-23.420876.778869-45.974953-3.311768-62.609211-22.427185-9.285748-10.670838-14.155476-23.526947-17.212506-37.111756-6.54791-29.097595-7.207452-58.731598-7.850971-88.365539-.7124-32.806-1.082777-65.627839-2.443376-98.407868-.688944-16.598205-3.090369-33.136108-5.043488-49.66275-.438942-3.714203.030907-5.179688 4.028744-5.97522 13.510038-2.688339 26.921129-5.873947 41.281229-9.072387 1.403412 7.685424 3.028198 14.910003 4.007522 22.221038 5.831673 43.535828 5.893761 87.349305 6.527031 131.162751.3582 24.782898 1.790863 49.579712 3.681168 74.298217.896965 11.729218 4.128662 23.209107 11.31234 33.118683 6.310981 8.705689 15.070724 12.901489 25.408882 13.894623 35.559967 3.415924 65.396637-9.990204 92.036407-32.10852 1.880387-1.561188 2.745118-5.22757 2.817871-7.948884.810303-30.307189 2.118363-60.628784 1.80365-90.93106-.363144-34.967438-2.086548-69.924683-3.513412-104.87439-.365738-8.958221-1.848129-17.8703-2.796478-26.805801-.20868-1.966431-.328019-3.942322-.546524-6.626725 9.597076-1.199173 18.931915-2.377044 28.270187-3.52713 4.129181-.508545 8.278549-.870025 12.393799-1.469513 2.879089-.419418 4.319458.520096 4.729904 3.508133 1.516098 11.036881 3.223083 22.047486 4.7462 33.083451.591355 4.284729.884675 8.610626 1.34552 13.375671z" fill="#020202"/><path d="m611.7677 106.205116c14.517029 26.453392 30.275452 51.638573 48.816651 75.044396 1.693542 2.137909 1.553527 5.728286 2.466247 9.469085-11.898193 0-22.651062.046143-33.401916-.076599-.995179-.011352-2.096375-.960388-2.949707-1.702392-27.566101-23.969742-53.139405-49.841202-75.225953-79.027268-.799316-1.056251-1.681091-2.138328-2.132019-3.353935-1.537109-4.143501-.049133-6.258095 4.373169-6.266083 16.142578-.029144 32.289612.197899 48.425171-.139877 4.821961-.100945 7.992493 1.001999 9.628357 6.052673z" fill="#c67135"/></svg>