<svg enable-background="new 0 0 1270 708" viewBox="0 0 1270 708" xmlns="http://www.w3.org/2000/svg"><path d="m933 709c-310.960754 0-621.42157 0-931.941175 0 0-235.930969 0-471.861938 0-707.896464h1269.757459v707.896464c-112.344971 0-224.830688 0-337.816284 0m253.833252-535.790298c-4.680298-5.841294-9.028564-11.989991-14.101196-17.468033-17.29419-18.676255-34.034424-37.971527-52.49585-55.434571-24.236206-22.925453-51.518921-41.967533-80.968384-57.95206-41.391845-22.466599-84.930603-34.932862-132.427978-31.551811-22.883301 1.628925-44.15149 7.680931-62.902283 21.267665-20.76477 15.046002-32.95166 35.1848-33.712219 61.011147-.853394 28.981499 9.124267 54.412636 27.917053 76.421715 1.100403 1.288726 2.219849 2.561157 3.820923 4.406494-4.033814 0-7.029297-.003281-10.024841.000519-24.648316.031189-49.296631.06369-74.873597-.036789-87.901977-.009827-175.804016-.028824-263.705993-.025681-44.78067.001602-89.561371.042999-135.103791-.212906-49.767211 0-99.534393 0-150.721328 0 1.223785 3.603424 1.632171 6.560654 3.103363 8.828369 5.794586 8.931748 12.050598 17.564011 17.851547 26.491837 1.774612 2.731186 3.658768 3.678909 6.867477 3.625091 11.780732-.197525 23.566788-.078308 35.809006-.078308v6.276001c0 99.790253.016846 199.580475-.073273 299.370667-.003021 3.333313.960816 5.387329 3.681885 7.355652 9.845123 7.12146 19.407074 14.634399 29.254395 21.752685 2.342987 1.693665 5.378875 2.428894 9.066833 4.025086 0-113.800995 0-226.139527 0-339.084778 15.640228 0 30.766144 0 46.608063.40509 9.317322-.00412 18.634674-.011612 27.951996-.011795 57.820404-.001083 115.640808-.000519 173.461212-.000519 1.788208 0 3.576416-.000015 5.432068-.000015v95.988709c-2.354431-1.629853-4.144348-2.821259-5.884766-4.080994-21.974243-15.905701-46.467651-24.933106-73.520904-27.065521-27.298615-2.151703-52.094391 3.547668-73.605255 21.635711-27.076447 22.768006-35.304505 56.927582-25.90741 88.685669 10.69043 36.129029 36.15506 60.619934 69.687744 74.571381 37.979034 15.801361 74.425354 9.701263 106.111633-18.02829.923584-.808197 1.933472-1.517853 3.57013-2.793243v5.716644c0 23.661377.072326 47.323212-.081543 70.983582-.021973 3.37207 1.024841 5.428283 3.728332 7.380737 9.992066 7.216064 19.732971 14.780456 29.745606 21.966858 2.198242 1.577759 5.125671 2.139526 8.608581 3.523315 0-3.218139 0-5.015381 0-6.812622.000061-48.655792-.029175-97.311615.093079-145.967102.005615-2.239715.699341-5.197723 2.207764-6.600372 12.792419-11.895783 25.415527-24.040619 38.954895-35.046021 12.043518-9.789489 26.0354-16.173675 41.991027-16.697662 16.36023-.537232 29.063355 9.189392 32.895997 24.927307 3.218872 13.217285 1.28833 26.187927-2.550782 38.872559-6.381164 21.083923-19.201477 38.6362-31.801819 56.258697-2.768005 3.871185-5.698791 7.625977-8.762634 11.71167 13.486389 9.752991 26.502503 19.165924 40.332459 29.167358 6.546203-9.800079 13.312927-18.890136 18.974853-28.622894 11.832153-20.339386 20.581299-41.815613 20.933106-65.86496.471618-32.238708-8.996277-60.330139-34.359803-81.69696-21.011291-17.700439-45.149109-24.425171-72.145019-19.413849-15.158997 2.813995-28.445618 10.13324-40.496521 19.678681-1.842529 1.459472-3.70575 2.89273-5.897217 4.60147 0-39.57019 0-78.14186 0-116.979873h6.341919c45.489807 0 90.979675.006149 136.469482-.020935 1.968323-.001175 3.936524-.308548 6.826172-.387161h73.992554v7.271484c0 99.15274.03064 198.305511-.106873 297.458099-.005798 4.161743 1.256165 6.680847 4.553101 9.029053 10.034668 7.147156 19.803955 14.666565 29.824219 21.834717 1.914428 1.369568 4.502136 1.797973 7.802307 3.048157 0-113.688874 0-225.894288 0-338.729828 25.361145 0 50.101623 0 75.762756.254074h197.81366v82.66774c-21.98999-2.22815-43.798462-5.009919-65.69458-6.516816-29.702271-2.044128-58.626953 1.1232-84.759339 17.183747-21.661743 13.313019-36.690124 31.778045-42.325805 56.895263-6.897339 30.740784-1.058716 59.845063 12.643616 87.683411 9.889099 20.091553 24.238281 36.990173 38.907775 53.632965 16.238343 18.422608 34.474793 34.694153 53.92511 50.236084 5.735108-6.390991 11.338379-12.63501 17.049805-18.999573-1.410645-1.303161-2.336548-2.24353-3.348023-3.080627-20.142578-16.670105-37.634521-35.795502-52.864135-57.01944-10.800965-15.052307-18.857971-31.4281-22.743469-49.58551-3.978638-18.59259-4.042664-37.195648 3.845275-54.889954 12.376099-27.762024 35.778077-39.600006 64.540162-41.209137 18.570678-1.039001 37.295166.349152 55.936279 1.037995 8.269287.305572 16.503174 1.570953 25.08313 2.433868 0 2.463013-.000122 4.442261-.000122 6.421509 0 59.663879.026855 119.327789-.070801 178.991516-.005493 3.344238.96228 5.446839 3.699219 7.432312 9.977539 7.238281 19.672241 14.86731 29.673584 22.071228 2.131713 1.535462 5.104248 1.903565 8.598266 3.127869 0-113.574768 0-225.6521 0-338.228119h70.223999c-1.242798-3.678635-1.67102-6.819397-3.230713-9.227432-5.702636-8.804612-11.906982-17.2836-17.646118-26.065613-1.800415-2.754837-3.815918-3.509522-6.946777-3.487076-15.329712.110016-30.661011-.017914-46.312256-.644607m-1108.118286 199.601944c-11.254799-8.782532-23.607125-13.991822-38.297642-12.841126-13.912739 1.089813-26.638907 10.378632-30.450504 22.910034-5.449721 17.917053 4.556543 38.018891 22.798523 47.139832 15.756672 7.878265 31.985161 6.515197 48.359543 3.561218 3.213523-.579742 5.064765-.278961 7.131294 2.383331 21.140037 27.234528 42.410248 54.368042 63.659195 81.517975 8.402298 10.735657 16.842392 21.441712 25.319916 32.230774 12.631195-7.423584 24.918945-14.645325 37.03833-21.768066-34.123749-34.975312-68.048066-69.746186-102.289948-104.84256 4.836639-2.97348 9.11969-5.465881 13.259758-8.176666 16.450813-10.771424 30.72773-23.853363 42.364342-39.784333 14.997177-20.531707 23.1819-43.679077 26.220932-68.701904 2.241806-18.458679 2.288544-36.87149-3.312836-54.920105-6.562347-21.145035-18.180496-39.115082-33.909744-54.546509-24.24028-23.781296-52.966263-33.415451-86.330361-25.834091-19.324909 4.391205-33.808975 16.330933-40.799238 34.972488-11.404634 30.413788-4.161949 58.007691 16.13959 82.388337 15.856407 19.042419 36.339016 32.094024 58.605045 42.417267 9.467552 4.389434 19.200256 8.207 28.82814 12.291107-9.520241 16.252105-25.265953 32.478302-42.507675 38.357879-3.759285-2.797577-7.49485-5.577545-11.82666-8.754882m532.856262 243.990478c5.810547 1.928284 11.896729 3.279297 17.378174 5.896729 14.458191 6.903991 26.419861 17.418762 37.52655 28.670105 14.499207 14.68811 28.226807 30.136474 42.397766 45.152648 1.133972 1.201477 3.592835 2.641236 4.650635 2.177796 5.701355-2.497925 11.154541-5.562134 16.753967-8.462341-.563415-.999634-.743225-1.473755-1.050354-1.841675-22.183227-26.575562-43.83966-53.616272-66.728637-79.569824-20.59375-23.351014-46.459778-36.745057-78.559937-36.017945-12.453857.282105-24.651306 1.792664-36.991943 4.527832 4.753662 14.553955 9.324035 28.546753 13.953186 42.719422 16.724365-4.299073 33.129455-6.166565 50.670593-3.252747z" fill="#fff"/><path d="m359.016846 173.914703c44.78067-.023407 89.561371-.064804 134.342041-.066406 87.901977-.003143 175.804016.015854 264.17395.560135.496338 12.9189.52478 25.303329.553223 37.68779-1.968262.164734-3.936463.472107-5.904786.473282-45.489807.027084-90.979675.020935-136.469482.020935-1.991089 0-3.982178 0-6.341919 0v116.979873c2.191467-1.70874 4.054688-3.141998 5.897217-4.60147 12.050903-9.545441 25.337524-16.864686 40.496521-19.678681 26.99591-5.011322 51.133728 1.71341 72.145019 19.413849 25.363526 21.366821 34.831421 49.458252 34.359803 81.69696-.351807 24.049347-9.100953 45.525574-20.933106 65.86496-5.661926 9.732758-12.42865 18.822815-18.974853 28.622894-13.829956-10.001434-26.84607-19.414367-40.332459-29.167358 3.063843-4.085693 5.994629-7.840485 8.762634-11.71167 12.600342-17.622497 25.420655-35.174774 31.801819-56.258697 3.839112-12.684632 5.769654-25.655274 2.550782-38.872559-3.832642-15.737915-16.535767-25.464539-32.895997-24.927307-15.955627.523987-29.947509 6.908173-41.991027 16.697662-13.539368 11.005402-26.162476 23.150238-38.954895 35.046021-1.508423 1.402649-2.202149 4.360657-2.207764 6.600372-.122254 48.655487-.093018 97.31131-.093079 145.967102v6.812622c-3.48291-1.383789-6.410339-1.945556-8.608581-3.523315-10.012635-7.186402-19.75354-14.750794-29.745606-21.966858-2.703491-1.952454-3.750305-4.008667-3.728332-7.380737.153869-23.66037.081543-47.322205.081543-70.983582 0-1.611542 0-3.223053 0-5.716644-1.636658 1.27539-2.646546 1.985046-3.57013 2.793243-31.686279 27.729553-68.132599 33.829651-106.111633 18.02829-33.532684-13.951447-58.997314-38.442352-69.687744-74.571381-9.397095-31.758087-1.169037-65.917663 25.90741-88.685669 21.510864-18.088043 46.30664-23.787414 73.605255-21.635711 27.053253 2.132415 51.546661 11.15982 73.520904 27.065521 1.740418 1.259735 3.530335 2.451141 5.884766 4.080994 0-32.231965 0-63.860688 0-95.988709-1.855652 0-3.64386.000015-5.432068.000015-57.820404 0-115.640808-.000564-173.461212.000519-9.317322.000183-18.634674.007675-28.302765-.672317-.345673-13.124054-.340546-25.564011-.335449-38.003968m63.191253 209.652924c.253815 2.649628.403809 5.313995.778595 7.946411 2.137696 15.013947 9.611725 26.577057 23.177155 33.467865 18.464691 9.379395 37.772827 8.590241 56.807922 2.300263 26.225128-8.665864 45.957001-26.289399 62.532074-47.781495.997742-1.293701 1.414002-3.335418 1.432434-5.036316.122925-11.326385.199219-22.657989-.071533-33.979248-.044434-1.859191-1.409668-4.366516-2.951904-5.405273-15.890625-10.702881-33.360962-17.047302-52.542145-18.711914-22.47876-1.950806-43.581482 1.587036-61.897003 15.600189-16.636078 12.728241-25.716767 29.749664-27.265595 51.599518z" fill="#c47034"/><path d="m1187.153687 173.792557c15.33081.043838 30.662109.171768 45.991821.061752 3.130859-.022446 5.146362.732239 6.946777 3.487076 5.739136 8.782013 11.943482 17.261001 17.646118 26.065613 1.559693 2.408035 1.987915 5.548797 3.230713 9.227432-24.190552 0-46.951904 0-70.223999 0v338.228119c-3.494018-1.224304-6.466553-1.592407-8.598266-3.127869-10.001343-7.203918-19.696045-14.832947-29.673584-22.071228-2.736939-1.985473-3.704712-4.088074-3.699219-7.432312.097656-59.663727.070801-119.327637.070801-178.991516 0-1.979248.000122-3.958496.000122-6.421509-8.579956-.862915-16.813843-2.128296-25.08313-2.433868-18.641113-.688843-37.365601-2.076996-55.936279-1.037995-28.762085 1.609131-52.164063 13.447113-64.540162 41.209137-7.887939 17.694306-7.823913 36.297364-3.845275 54.889954 3.885498 18.15741 11.942504 34.533203 22.743469 49.58551 15.229614 21.223938 32.721557 40.349335 52.864135 57.01944 1.011475.837097 1.937378 1.777466 3.348023 3.080627-5.711426 6.364563-11.314697 12.608582-17.049805 18.999573-19.450317-15.541931-37.686767-31.813476-53.92511-50.236084-14.669494-16.642792-29.018676-33.541412-38.907775-53.632965-13.702332-27.838348-19.540955-56.942627-12.643616-87.683411 5.635681-25.117218 20.664062-43.582244 42.325805-56.895263 26.132386-16.060547 55.057068-19.227875 84.759339-17.183747 21.896118 1.506897 43.70459 4.288666 65.69458 6.516816 0-26.940094 0-54.403901 0-82.66774-65.967651 0-131.890686 0-198.244873-.602371-.40387-12.95987-.376526-25.317368.112305-37.735657 21.27771-.069061 42.093994-.072495 62.910339-.086609 47.127136-.031983 94.254333-.069244 141.857727-.036499 10.940552.013779 21.404785-.040314 31.869019-.094406z" fill="#c46f34"/><path d="m1186.993408 173.501129c-10.303955.34552-20.768188.399613-31.828857.093262-4.833252-5.269486-8.897217-10.341232-13.335205-15.061081-27.613526-29.367111-57.81958-55.47451-93.381104-75.01812-36.075378-19.825985-74.118896-31.889511-115.706604-30.465328-20.026306.68581-38.696716 5.81765-54.967163 18.113125-16.235596 12.269096-24.986145 28.41983-25.880188 48.854072-.744812 17.023987 3.22406 32.885269 10.448792 48.215699 2.10498 4.466629 4.428161 5.851944 9.294799 5.809875 26.137024-.225876 52.277832-.025177 78.417298.028214-.027405 12.357513-.054749 24.715011-.111206 37.547851-24.769593.475327-49.510071.475327-74.871216.475327v338.729828c-3.300171-1.250184-5.887879-1.678589-7.802307-3.048157-10.020264-7.168152-19.789551-14.687561-29.824219-21.834717-3.296936-2.348206-4.558899-4.86731-4.553101-9.029053.137513-99.152588.106873-198.305359.106873-297.458099 0-2.149231 0-4.298462 0-7.271484-24.89801 0-49.445312 0-74.453247-.043061-.489136-12.427521-.517578-24.81195-.549622-37.664551 24.644715-.500274 49.29303-.532775 73.941346-.563964 2.995544-.0038 5.991027-.000519 10.024841-.000519-1.601074-1.845337-2.72052-3.117768-3.820923-4.406494-18.792786-22.009079-28.770447-47.440216-27.917053-76.421715.760559-25.826347 12.947449-45.965145 33.712219-61.011147 18.750793-13.586734 40.018982-19.63874 62.902283-21.267665 47.497375-3.381051 91.036133 9.085212 132.427978 31.551811 29.449463 15.984527 56.732178 35.026607 80.968384 57.95206 18.461426 17.463044 35.20166 36.758316 52.49585 55.434571 5.072632 5.478042 9.420898 11.626739 14.261352 17.75946z" fill="#cdb591"/><path d="m79.013092 373.010345c4.033684 2.978638 7.769249 5.758606 11.528534 8.556183 17.241722-5.879577 32.987434-22.105774 42.507675-38.357879-9.627884-4.084107-19.360588-7.901673-28.82814-12.291107-22.266029-10.323243-42.748638-23.374848-58.605045-42.417267-20.301539-24.380646-27.544224-51.974549-16.13959-82.388337 6.990263-18.641555 21.474329-30.581283 40.799238-34.972488 33.364098-7.58136 62.090081 2.052795 86.330361 25.834091 15.729248 15.431427 27.347397 33.401474 33.909744 54.546509 5.60138 18.048615 5.554642 36.461426 3.312836 54.920105-3.039032 25.022827-11.223755 48.170197-26.220932 68.701904-11.636612 15.93097-25.913529 29.012909-42.364342 39.784333-4.140068 2.710785-8.423119 5.203186-13.259758 8.176666 34.241882 35.096374 68.166199 69.867248 102.289948 104.84256-12.119385 7.122741-24.407135 14.344482-37.03833 21.768066-8.477524-10.789062-16.917618-21.495117-25.319916-32.230774-21.248947-27.149933-42.519158-54.283447-63.659195-81.517975-2.066529-2.662292-3.917771-2.963073-7.131294-2.383331-16.374382 2.953979-32.602871 4.317047-48.359543-3.561218-18.24198-9.120941-28.248244-29.222779-22.798523-47.139832 3.811597-12.531402 16.537765-21.820221 30.450504-22.910034 14.690517-1.150696 27.042843 4.058594 38.595768 13.039825m16.676247-76.18341c14.7098 10.80777 30.968528 18.638428 48.150581 25.275726 5.458038-12.445495 9.118057-25.160858 10.77475-38.423645 2.096222-16.781616 2.813461-33.524536-2.241547-49.996017-5.946564-19.376541-20.60553-30.318772-39.883056-29.772522-32.472268.92015-53.140896 29.884552-43.068139 60.822036 4.456788 13.688599 14.434098 23.289612 26.267411 32.094422z" fill="#020202"/><path d="m358.635986 173.775055c.375763 12.579605.370636 25.019562.358307 37.94107-15.133148.481568-30.259064.481568-45.899292.481568v339.084778c-3.687958-1.596192-6.723846-2.331421-9.066833-4.025086-9.847321-7.118286-19.409272-14.631225-29.254395-21.752685-2.721069-1.968323-3.684906-4.022339-3.681885-7.355652.090119-99.790192.073273-199.580414.073273-299.370667 0-1.963699 0-3.927414 0-6.276001-12.242218 0-24.028274-.119217-35.809006.078308-3.208709.053818-5.092865-.893905-6.867477-3.625091-5.800949-8.927826-12.056961-17.560089-17.851547-26.491837-1.471192-2.267715-1.879578-5.224945-3.103363-8.828369 51.186935 0 100.954117 0 151.102218.139664z" fill="#010101"/><path d="m611.146851 616.713501c-17.116761-2.825195-33.521851-.957703-50.246216 3.34137-4.629151-14.172669-9.199524-28.165467-13.953186-42.719422 12.340637-2.735168 24.538086-4.245727 36.991943-4.527832 32.100159-.727112 57.966187 12.666931 78.559937 36.017945 22.888977 25.953552 44.54541 52.994262 66.728637 79.569824.307129.36792.486939.842041 1.050354 1.841675-5.599426 2.900207-11.052612 5.964416-16.753967 8.462341-1.0578.46344-3.516663-.976319-4.650635-2.177796-14.170959-15.016174-27.898559-30.464538-42.397766-45.152648-11.106689-11.251343-23.068359-21.766114-37.52655-28.670105-5.481445-2.617432-11.567627-3.968445-17.802551-5.985352z" fill="#c57034"/><path d="m422.241638 383.130249c1.515289-21.412476 10.595978-38.433899 27.232056-51.16214 18.315521-14.013153 39.418243-17.550995 61.897003-15.600189 19.181183 1.664612 36.65152 8.009033 52.542145 18.711914 1.542236 1.038757 2.90747 3.546082 2.951904 5.405273.270752 11.321259.194458 22.652863.071533 33.979248-.018432 1.700898-.434692 3.742615-1.432434 5.036316-16.575073 21.492096-36.306946 39.115631-62.532074 47.781495-19.035095 6.289978-38.343231 7.079132-56.807922-2.300263-13.56543-6.890808-21.039459-18.453918-23.177155-33.467865-.374786-2.632416-.52478-5.296783-.745056-8.383789z" fill="#fffefe"/><path d="m950.516602 174.010071c-26.600892.007385-52.7417-.193314-78.878724.032562-4.866638.042069-7.189819-1.343246-9.294799-5.809875-7.224732-15.33043-11.193604-31.191712-10.448792-48.215699.894043-20.434242 9.644592-36.584976 25.880188-48.854072 16.270447-12.295475 34.940857-17.427315 54.967163-18.113125 41.587708-1.424183 79.631226 10.639343 115.706604 30.465328 35.561524 19.54361 65.767578 45.651009 93.381104 75.01812 4.437988 4.719849 8.501953 9.791595 12.858886 14.99321-47.006958.327698-94.134155.364959-141.261291.396942-20.816345.014114-41.632629.017548-62.910339.086609z" fill="#fffffe"/><path d="m95.408188 296.603821c-11.552162-8.581696-21.529472-18.182709-25.98626-31.871308-10.072757-30.937484 10.595871-59.901886 43.068139-60.822036 19.277526-.54625 33.936492 10.395981 39.883056 29.772522 5.055008 16.471481 4.337769 33.214401 2.241547 49.996017-1.656693 13.262787-5.316712 25.97815-10.77475 38.423645-17.182053-6.637298-33.440781-14.467956-48.431732-25.49884z" fill="#fefefe"/></svg>