<svg version="1.1" id="Layer_1" xmlns="http://www.w3.org/2000/svg" xmlns:xlink="http://www.w3.org/1999/xlink" x="0px" y="0px"
	 width="100%" viewBox="0 0 1496 1200" enable-background="new 0 0 1496 1200" xml:space="preserve">
<path fill="#FFFFFF" opacity="1.000000" stroke="none" 
	d="
M848.000000,827.000000 
	C566.833313,827.000000 286.166656,826.991272 5.500034,827.093262 
	C1.750859,827.094666 0.905324,826.249146 0.906732,822.499939 
	C1.009016,550.166687 1.009016,277.833344 0.906732,5.500035 
	C0.905323,1.750851 1.750967,0.906410 5.500018,0.907149 
	C501.166656,1.004956 996.833313,1.004957 1492.500000,0.907150 
	C1496.249023,0.906410 1497.094849,1.750850 1497.093384,5.500035 
	C1496.991089,277.833344 1496.991089,550.166687 1497.093384,822.499939 
	C1497.094727,826.249146 1496.249268,827.095337 1492.500000,827.093506 
	C1277.833374,826.988586 1063.166626,827.000000 848.000000,827.000000 
z"/>
<path fill="#010101" opacity="1.000000" stroke="none" 
	d="
M104.799118,586.146423 
	C91.281303,581.776001 77.987671,577.970154 65.248611,572.584900 
	C62.958908,571.617004 61.210213,572.050049 59.156132,573.050598 
	C50.397602,577.316833 42.648212,583.017578 35.412239,589.460754 
	C31.422197,593.013672 27.230659,596.255676 22.625517,598.997009 
	C20.724867,600.128418 20.117279,599.668457 18.989925,597.898560 
	C15.396317,592.256775 15.480645,587.252258 19.164074,581.392456 
	C29.505411,564.940918 41.954437,550.191284 54.964603,535.910522 
	C66.178909,523.600952 77.492294,511.341278 90.216866,500.513489 
	C90.724350,500.081635 91.243111,499.657593 91.709152,499.183258 
	C99.145515,491.614716 106.790367,490.026672 117.131866,494.848206 
	C135.203537,503.273834 154.033554,510.073364 172.548874,517.546631 
	C176.605774,519.184082 180.707260,520.378174 185.163391,519.214661 
	C190.896545,517.717712 194.042206,513.787903 195.847458,508.398590 
	C201.290970,492.147705 206.928848,475.960815 212.246033,459.669006 
	C220.685898,433.809418 234.056503,410.419739 248.292404,387.492767 
	C265.530212,359.731232 284.747253,333.350311 305.443512,308.076050 
	C312.710114,299.202087 320.344879,290.588531 329.375488,283.352264 
	C333.487305,280.057465 336.830078,279.691162 341.620148,283.004456 
	C365.622864,299.607147 390.847565,314.041718 418.079803,324.853088 
	C435.353516,331.710876 453.245270,333.260132 471.521484,332.476776 
	C490.646454,331.656982 509.829529,331.312988 528.567932,326.689423 
	C547.500061,322.018097 564.831543,313.662415 581.389404,303.565155 
	C596.463684,294.372620 610.985413,284.348633 625.378052,274.136414 
	C627.754517,272.450195 630.075745,270.578918 632.899658,273.008392 
	C635.664551,275.386963 636.561523,278.423279 635.425720,282.010681 
	C634.704651,284.288147 633.545593,286.359863 631.902405,287.973511 
	C615.722168,303.862946 601.645325,321.695740 585.760010,337.850616 
	C551.338379,372.856293 509.744415,394.211792 461.291016,401.391846 
	C436.598389,405.050873 411.612915,407.464020 386.652527,403.030609 
	C367.703918,399.665070 349.811890,392.854370 332.144745,385.463806 
	C317.871063,379.492798 303.725098,373.214722 289.933441,366.191803 
	C286.686676,364.538483 284.760712,364.882843 282.695679,368.013428 
	C274.726807,380.094238 269.887909,393.556854 265.059021,407.027954 
	C254.299423,437.043884 246.985229,467.932434 242.345123,499.438446 
	C241.135834,507.649414 241.069656,516.036926 240.639740,524.351746 
	C240.334610,530.252991 244.199387,533.421753 248.909515,535.648499 
	C260.609924,541.179993 273.162933,543.807190 285.822571,545.859131 
	C322.908966,551.870483 360.269653,554.675964 397.813507,553.752319 
	C436.445648,552.801941 475.176270,551.731567 513.281921,544.758850 
	C553.993774,537.309143 593.013184,524.743652 627.270691,500.444885 
	C630.935120,497.845642 634.513367,497.025360 637.617371,499.601288 
	C640.963074,502.377777 640.677124,506.747650 639.092590,510.660126 
	C638.354370,512.482910 637.334290,514.327881 636.003784,515.754028 
	C614.345520,538.968872 591.099976,560.516357 564.188416,577.439819 
	C545.022827,589.492188 523.042847,595.283569 501.269135,600.925720 
	C463.985931,610.586975 426.091400,616.659180 387.729614,620.128662 
	C353.485229,623.225891 319.203278,624.041138 284.872681,622.887573 
	C272.088074,622.458008 259.332397,621.168152 245.991882,620.230408 
	C253.557510,651.410767 265.744873,679.638245 291.385315,700.228149 
	C302.850555,709.435059 316.199402,711.565063 330.492371,709.803528 
	C356.448883,706.604553 382.459991,703.238281 408.577515,702.574768 
	C442.697296,701.707947 476.931427,702.032837 510.095276,712.056458 
	C521.683044,715.558777 531.641724,721.648926 537.861328,732.633789 
	C538.852905,734.385010 539.053650,735.728271 537.961670,737.609192 
	C525.412720,759.223999 511.903778,780.190918 496.432953,799.852112 
	C495.715363,800.764038 494.873871,801.578613 494.087341,802.436035 
	C491.539856,805.213074 489.143280,806.132812 485.104431,804.296265 
	C457.132202,791.577209 427.398865,785.720581 396.946075,784.849121 
	C374.630157,784.210510 352.539734,788.010010 330.770325,793.376831 
	C317.893005,796.551453 305.120270,800.057739 291.753448,801.413940 
	C269.118042,803.710510 250.540726,795.219543 234.102036,781.219727 
	C207.520554,758.581909 193.533340,728.587891 186.037506,695.156250 
	C182.007523,677.182434 180.989334,658.895203 181.028992,640.540344 
	C181.047760,631.858887 180.108795,623.255371 179.592133,614.617798 
	C179.302383,609.773865 176.882080,608.229126 172.952728,607.039124 
	C150.976562,600.383789 129.035278,593.613342 107.083069,586.878967 
	C106.446381,586.683716 105.820496,586.453247 104.799118,586.146423 
z"/>
<path fill="#010101" opacity="1.000000" stroke="none" 
	d="
M1235.245972,571.348877 
	C1219.620850,582.742249 1202.469482,589.796936 1184.684082,595.549744 
	C1160.245117,603.454773 1135.185913,608.695557 1109.898438,612.887634 
	C1055.971680,621.827515 1001.652405,624.724976 947.061890,622.928955 
	C934.105225,622.502686 921.177185,621.433105 907.644897,619.855713 
	C915.534851,651.106567 927.327576,679.349121 952.858276,699.954041 
	C966.281982,710.787781 981.723938,711.701477 997.834717,709.482910 
	C1036.674561,704.134155 1075.597900,700.423828 1114.878296,702.957886 
	C1138.667603,704.492615 1162.412354,706.208252 1184.804932,715.513977 
	C1189.184204,717.333923 1192.957764,720.005920 1196.203735,723.422791 
	C1201.130493,728.609009 1201.622070,733.745117 1198.427490,740.060852 
	C1187.626709,761.414001 1172.819946,780.131775 1159.231567,799.635315 
	C1154.070923,807.042297 1152.732666,806.679871 1145.177002,802.367920 
	C1130.228882,793.836975 1113.929321,789.489807 1096.989380,786.994751 
	C1060.621216,781.638000 1024.980469,785.756958 989.562378,794.341858 
	C976.477783,797.513306 963.188660,799.717407 949.773560,801.305969 
	C933.880127,803.187805 919.947021,798.604736 907.809082,789.028442 
	C896.723145,780.282043 885.167542,771.804688 876.154724,760.825256 
	C863.306091,745.173096 857.453552,726.194824 852.056641,707.022644 
	C844.305237,679.486267 843.526428,651.225586 841.830505,622.959656 
	C840.789185,605.604004 844.079712,610.307251 827.577454,604.295471 
	C801.452881,594.778320 774.294739,588.526001 747.853516,579.976562 
	C741.843628,578.033386 735.799377,576.041992 730.078430,573.405640 
	C724.989868,571.060730 720.807739,571.911987 716.653442,575.066406 
	C708.695312,581.108887 700.750916,587.169617 692.765198,593.175476 
	C690.107605,595.174133 687.355957,597.049500 684.618713,598.939819 
	C683.030151,600.036865 682.132019,599.994873 680.807129,597.997925 
	C676.934875,592.161804 677.242310,586.904663 680.913208,581.019470 
	C690.215210,566.106506 701.606934,552.858093 712.936035,539.535095 
	C725.152649,525.168335 738.377014,511.829315 752.408264,499.209167 
	C761.630737,490.914276 770.918945,489.636932 782.030701,495.024567 
	C796.994141,502.279724 812.229614,508.992920 827.504089,515.577393 
	C832.929199,517.916077 838.486511,520.298706 844.809570,519.593262 
	C851.141174,518.886841 855.059692,515.921875 857.143616,509.771515 
	C863.764526,490.230469 870.934998,470.873047 877.392578,451.279755 
	C889.450439,414.694550 910.008850,382.929688 932.738953,352.364746 
	C948.744019,330.842773 964.719727,309.277374 983.618713,290.126007 
	C995.541504,278.043976 995.567627,278.200104 1009.473206,287.202301 
	C1032.562988,302.150269 1056.279175,315.929474 1082.203003,325.514557 
	C1095.130249,330.294342 1108.364380,332.743652 1122.248413,332.450195 
	C1144.098633,331.988342 1165.802979,330.722321 1187.296509,326.350494 
	C1208.851807,321.966034 1228.198120,312.639008 1246.732178,301.230286 
	C1260.632080,292.674103 1274.076294,283.441467 1287.366577,273.981964 
	C1289.669922,272.342407 1291.909058,270.820160 1294.529419,272.857086 
	C1297.065674,274.828583 1298.022095,277.650391 1297.431030,280.841003 
	C1296.804810,284.220215 1295.080200,287.083466 1292.631592,289.418640 
	C1275.859985,305.413422 1261.593140,323.777771 1244.856689,339.806946 
	C1212.797241,370.511658 1175.319214,390.979126 1131.571777,399.283325 
	C1106.633545,404.017120 1081.453369,406.700073 1056.038330,404.182922 
	C1038.315918,402.427704 1021.673645,396.539795 1005.383972,389.640442 
	C987.763855,382.177551 970.162415,374.668671 952.623657,367.017517 
	C950.246033,365.980316 949.013672,366.189209 947.253113,368.130310 
	C937.297852,379.106018 931.505127,392.336823 926.488403,405.969269 
	C912.946289,442.768250 904.672363,480.667725 903.090149,519.928589 
	C903.016785,521.749084 903.007935,523.617126 903.325256,525.399658 
	C904.223267,530.444458 906.406067,533.849182 912.184387,535.118225 
	C930.744507,539.194519 949.555115,541.583496 968.317688,544.325012 
	C988.079529,547.212585 1007.836304,550.141479 1027.622314,552.855774 
	C1043.904297,555.089355 1060.239258,553.641174 1076.543701,552.983154 
	C1103.176025,551.908264 1129.807129,550.760498 1156.268677,547.254028 
	C1182.907837,543.723938 1208.988892,537.913879 1234.582153,528.362061 
	C1236.354248,529.565918 1236.518066,531.247681 1236.538818,532.898621 
	C1236.681763,544.323059 1236.683472,555.748169 1236.541260,567.172791 
	C1236.524536,568.503479 1236.292725,569.811890 1235.245972,571.348877 
z"/>
<path fill="#C47034" opacity="1.000000" stroke="none" 
	d="
M1234.994995,572.072998 
	C1234.919922,557.590149 1234.950684,543.474670 1234.985840,528.846069 
	C1254.414185,520.687805 1272.996094,511.393097 1290.381226,499.805389 
	C1293.348755,497.827393 1295.383789,498.018219 1297.439697,501.012299 
	C1299.244019,503.640198 1300.865723,506.319702 1301.999023,509.294952 
	C1316.890015,548.386169 1326.186768,588.784912 1331.226196,630.297913 
	C1335.329468,664.098022 1337.106689,697.970459 1336.848999,731.983582 
	C1336.833984,733.976746 1336.846924,735.970154 1336.846924,739.316772 
	C1341.568970,734.761047 1345.697998,731.093323 1349.468018,727.087524 
	C1370.784546,704.438232 1382.488892,676.979431 1388.820312,646.998779 
	C1394.260132,621.240173 1395.143799,595.061340 1393.714355,568.911316 
	C1392.087891,539.158569 1386.195557,510.189697 1374.265015,482.660614 
	C1370.874878,474.837738 1370.953735,474.707855 1378.904297,471.089966 
	C1403.911377,459.710297 1428.975464,448.455139 1453.941162,436.985901 
	C1457.238525,435.471039 1458.351318,436.174866 1459.636963,439.398346 
	C1472.463989,471.559937 1477.912354,505.125519 1477.647827,539.521423 
	C1477.465088,563.290039 1471.937744,586.342590 1465.033569,609.048706 
	C1457.453979,633.976746 1448.616211,658.336426 1434.525879,680.467224 
	C1417.049438,707.916565 1394.722900,730.742554 1368.765015,750.256104 
	C1338.228760,773.211365 1305.029541,791.374573 1269.994629,806.354614 
	C1269.263306,806.667358 1268.460083,806.811707 1266.517578,807.374146 
	C1274.210938,726.279968 1268.552002,647.431702 1234.994995,572.072998 
z"/>
<path fill="#000000" opacity="1.000000" stroke="none" 
	d="
M1050.037842,201.065842 
	C1038.363892,178.168945 1036.100830,154.479935 1042.521973,130.152466 
	C1049.414429,104.039124 1065.291626,83.683472 1085.402588,66.331100 
	C1104.615601,49.753399 1125.789673,35.916359 1147.182373,22.395493 
	C1148.161865,21.776447 1149.312622,21.385933 1150.190186,20.656420 
	C1152.571533,18.677126 1156.034058,18.621656 1157.494873,20.135000 
	C1159.445190,22.155588 1157.375488,24.983496 1155.771362,27.173275 
	C1141.386597,46.808872 1130.775024,68.264351 1126.701660,92.363098 
	C1123.123901,113.529167 1127.720947,132.670654 1142.805786,148.983597 
	C1154.608765,161.747513 1161.313599,176.842651 1159.120483,194.767273 
	C1158.182373,202.434875 1154.058228,208.765839 1149.141113,214.415909 
	C1138.364990,226.798721 1125.240112,235.730698 1108.598511,237.370544 
	C1087.646362,239.435181 1071.346558,230.267807 1058.527832,214.200836 
	C1055.342773,210.208679 1052.392090,206.040695 1050.037842,201.065842 
z"/>
</svg>