<svg version="1.1" id="Layer_1" xmlns="http://www.w3.org/2000/svg" xmlns:xlink="http://www.w3.org/1999/xlink" x="0px" y="0px"
	 width="100%" viewBox="0 0 1024 832" enable-background="new 0 0 1024 832" xml:space="preserve">
<path fill="#000000" opacity="1.000000" stroke="none" 
	d="
M443.473633,357.500732 
	C447.505737,352.272736 451.745239,347.630798 455.024811,342.131256 
	C452.524994,340.671875 450.331299,341.221222 448.240387,341.281097 
	C410.208893,342.370178 372.345367,340.170746 334.657898,335.146210 
	C317.516266,332.860870 300.411255,330.150024 283.797852,325.120483 
	C277.746277,323.288391 271.644348,321.424103 266.616516,317.328522 
	C261.285522,312.985992 260.593781,309.428070 264.686371,304.080261 
	C274.216400,291.627258 284.455475,279.812469 296.538910,269.681549 
	C300.400116,266.444214 304.019897,265.771698 308.885803,267.463684 
	C330.435760,274.957092 352.194885,281.832184 374.858337,285.148956 
	C395.457367,288.163605 416.234741,289.394897 436.996643,290.654816 
	C445.803802,291.189240 454.658691,291.047546 463.446564,291.767029 
	C484.257843,293.471008 504.170898,289.496796 523.890137,283.350861 
	C541.585266,277.835815 558.947083,271.619873 574.994324,262.199310 
	C577.740662,260.587097 579.973389,260.721924 582.102478,263.071136 
	C584.391846,265.597198 584.310364,268.119171 582.157288,270.667236 
	C567.421082,288.106598 553.049683,305.831787 531.832458,316.254883 
	C517.039307,323.522125 502.795929,331.876648 487.906799,339.005310 
	C478.250946,343.628387 471.423340,351.588165 464.648529,359.762878 
	C450.167358,377.236359 436.718170,395.430969 424.140228,414.295135 
	C423.514984,415.232849 422.959045,416.216766 422.134216,417.566376 
	C426.719177,418.738525 430.685272,417.045044 434.637970,416.526062 
	C459.936157,413.204590 485.170898,414.073029 510.278442,417.908478 
	C525.872681,420.290680 539.730164,427.189178 552.242859,436.764954 
	C563.648560,445.493500 574.115295,455.211182 583.930603,465.715698 
	C598.874390,481.708923 601.252747,500.616302 597.694946,521.093567 
	C594.990845,536.656982 586.705078,549.152649 575.963501,560.239319 
	C553.527588,583.395813 529.941650,605.166138 501.533813,621.002625 
	C491.686218,626.492310 481.274170,628.603149 469.843292,627.651672 
	C455.724213,626.476318 441.710144,625.252014 428.022095,621.318542 
	C398.699646,612.892029 378.539673,594.268616 366.220917,566.620300 
	C356.239868,544.218750 354.973328,520.766968 356.264679,496.684570 
	C356.966461,483.597198 359.248444,471.338898 366.282776,460.462921 
	C364.328186,458.026886 362.391724,458.558807 360.393860,458.746887 
	C352.065552,459.530853 344.806061,463.334167 337.368927,466.666321 
	C308.639893,479.538269 279.907745,492.403198 251.166504,505.247833 
	C249.039917,506.198181 246.849686,507.015289 244.657745,507.807770 
	C242.171448,508.706604 239.640762,509.192566 238.183548,506.211731 
	C236.856033,503.496216 237.269760,501.036804 239.882736,499.178375 
	C246.806625,494.253876 253.774307,489.389069 260.635010,484.377930 
	C292.824707,460.866302 328.655548,444.478455 365.836060,430.810181 
	C371.883423,428.587128 378.356049,427.373718 384.729523,426.242371 
	C388.330261,425.603241 390.707794,423.877960 392.923279,421.209290 
	C410.167694,400.437347 426.557312,378.988861 443.473633,357.500732 
M535.043091,567.540161 
	C540.780762,560.687073 544.552490,552.857788 544.257202,543.875366 
	C543.604004,523.999634 534.615051,507.571106 520.844116,493.985107 
	C491.043915,464.585175 454.160767,453.230164 413.089020,453.335083 
	C409.009766,453.345490 406.566772,455.475891 405.539886,459.313904 
	C404.321899,463.866180 404.185028,468.508606 404.406799,473.193176 
	C405.155273,489.004333 408.716248,504.147919 415.245056,518.560181 
	C425.932678,542.152710 442.157196,560.431213 466.119965,571.228027 
	C480.607025,577.755371 495.965118,578.636902 511.556946,578.851074 
	C521.244141,578.984192 528.595520,575.286011 535.043091,567.540161 
z"/>
<path fill="#000000" opacity="1.000000" stroke="none" 
	d="
M165.840576,254.220734 
	C183.012192,283.352478 193.620697,314.705200 202.081192,346.812469 
	C210.604004,379.156311 217.050003,411.912598 220.508850,445.257751 
	C222.333191,462.845581 223.102432,480.419037 223.435486,498.073669 
	C223.934219,524.509521 217.985153,549.638123 208.707870,574.074280 
	C198.831833,600.087585 185.774582,624.417786 167.623627,645.685486 
	C152.958450,662.868896 135.376282,675.920532 112.291245,678.671692 
	C94.158447,680.832581 75.932587,680.507507 59.250031,671.362427 
	C46.372234,664.303040 42.590012,649.963867 49.651627,637.109314 
	C53.687759,629.762268 58.872574,623.257874 64.054726,616.743286 
	C67.165596,612.832458 70.514954,609.109741 73.581520,605.165894 
	C76.635986,601.237671 79.471016,597.138855 82.404724,593.111633 
	C83.709557,592.863281 84.163170,593.848816 84.576759,594.727234 
	C92.541000,611.642090 105.585762,624.136414 119.974922,635.463989 
	C121.415123,636.597778 122.873344,637.708618 124.316490,638.838623 
	C131.595047,644.537964 139.790787,644.431458 146.961044,638.441223 
	C152.755066,633.600708 156.244354,627.241333 158.902573,620.285461 
	C165.333618,603.457275 167.494354,585.877258 168.869720,568.058289 
	C170.982147,540.690063 169.421860,513.406128 166.458435,486.279785 
	C161.477081,440.682281 151.878036,396.004913 136.317612,352.734192 
	C128.970825,332.304108 120.478020,312.420441 108.173470,294.391693 
	C102.047501,285.415863 95.200737,277.057343 86.663170,270.196289 
	C84.818306,268.713715 83.103439,267.800262 80.815086,269.135345 
	C78.455902,270.511810 76.606094,270.305420 74.932549,267.759979 
	C73.210114,265.140228 72.415398,263.114838 74.860229,260.295776 
	C86.321136,247.080551 97.438232,233.566055 108.952835,220.398682 
	C139.223450,185.783234 169.640564,151.295898 199.982941,116.743149 
	C201.573029,114.932419 203.071106,113.159859 205.870850,114.138145 
	C209.107758,115.269203 211.140839,118.001129 210.952606,120.922035 
	C210.583679,126.647087 214.033539,129.583603 217.587967,132.923187 
	C232.646149,147.071289 247.489380,161.449753 262.650024,175.486038 
	C266.107544,178.687119 266.112122,180.967728 263.579285,184.680710 
	C257.892822,193.016800 250.788834,200.018707 243.781830,207.147049 
	C237.833649,213.198242 231.217346,218.650085 226.531143,225.846634 
	C224.426285,229.079056 222.489868,229.351852 219.312851,226.915985 
	C203.432190,214.740036 188.168121,201.828674 173.317123,188.441513 
	C169.532898,185.030304 167.667282,185.642868 164.807739,189.445175 
	C158.002380,198.494217 150.937012,207.369949 143.553406,215.951523 
	C140.355759,219.667999 140.325409,221.883499 143.891876,225.385651 
	C152.478561,233.817474 159.422470,243.616913 165.840576,254.220734 
z"/>
<path fill="#000000" opacity="1.000000" stroke="none" 
	d="
M840.304077,337.255859 
	C839.658264,359.428650 841.134888,380.961395 844.970215,402.349304 
	C845.654297,406.164307 846.917114,406.882874 850.605408,405.997864 
	C881.352478,398.619995 912.161011,391.497925 942.909851,384.127167 
	C948.266235,382.843231 952.832764,383.912415 956.974792,387.150330 
	C960.463745,389.877716 960.552368,393.535767 957.369263,396.551941 
	C954.426514,399.340332 951.037476,401.319611 947.027161,402.327454 
	C916.681580,409.953705 886.328979,417.548584 855.774475,424.305969 
	C854.150513,424.665131 852.524231,424.957245 850.905273,426.350281 
	C852.215454,435.928680 854.701843,445.414612 857.949524,454.638489 
	C865.929688,477.303772 876.726624,498.757080 886.900330,520.472473 
	C888.420959,523.718201 891.002441,526.096191 893.702087,528.361938 
	C895.360352,529.753784 897.007568,531.171814 898.540100,532.698120 
	C905.179565,539.310303 905.724731,543.863464 899.238281,550.682617 
	C886.985229,563.564026 872.740051,574.001221 856.964294,582.202698 
	C851.144226,585.228516 847.885925,583.907959 843.966797,578.013000 
	C836.879517,567.352722 832.642883,555.370422 828.573547,543.399170 
	C821.823242,523.541077 815.489929,503.539795 809.115906,483.555756 
	C804.893250,470.316772 804.030396,456.452118 801.861755,442.829956 
	C800.912842,436.869385 799.741455,436.242676 793.819336,437.882385 
	C788.845581,439.259521 783.970581,441.076202 778.931030,442.108429 
	C774.477905,443.020508 773.892944,445.679657 774.332214,449.378815 
	C775.651489,460.490509 778.262268,471.327728 781.642029,481.957092 
	C792.372375,515.704224 807.224854,547.740051 822.444641,579.620300 
	C824.603027,584.141541 828.951111,585.620667 832.889038,587.670532 
	C839.920959,591.330933 840.343994,594.274231 834.253113,599.439514 
	C829.029236,603.869446 823.343811,607.675903 817.362305,610.994934 
	C810.516663,614.793457 803.882629,618.705322 798.244995,624.376099 
	C792.681458,629.972290 788.300598,629.432373 782.804077,623.735413 
	C779.879456,620.704102 777.375549,617.272461 775.862183,613.414490 
	C768.668396,595.075867 758.435059,578.198730 750.653015,560.127258 
	C738.161621,531.119629 730.310364,501.050415 727.553711,469.594849 
	C727.168213,465.195526 727.198242,460.624756 725.520935,456.432190 
	C723.082520,455.459656 721.090027,456.615509 719.116638,457.284363 
	C691.751404,466.559662 663.520386,472.168793 635.149048,477.184845 
	C631.711426,477.792603 628.237610,478.193634 624.792175,478.760895 
	C622.608948,479.120392 620.468079,479.041107 618.363831,478.402557 
	C614.221741,477.145538 610.212158,475.361969 609.879944,470.438263 
	C609.559692,465.691498 613.155945,463.282013 617.034790,461.869385 
	C627.707581,457.982483 638.999634,456.504486 649.983337,453.812805 
	C673.743774,447.990112 697.549866,442.350647 721.378845,436.814728 
	C725.298645,435.904083 726.573792,434.135956 726.854553,430.074463 
	C729.151428,396.851868 737.160767,365.150604 752.080017,335.205231 
	C764.262268,310.753540 779.630188,288.472656 796.658875,267.249817 
	C798.520935,264.929108 800.749084,262.857910 803.021545,260.922394 
	C805.594910,258.730652 808.620178,257.457642 811.551697,260.166199 
	C814.273743,262.681244 813.327881,265.526215 811.625122,268.317139 
	C805.117493,278.984070 798.854553,289.805145 792.150818,300.346466 
	C781.612610,316.917511 777.424622,335.449371 774.327454,354.470734 
	C770.969849,375.091583 769.178772,395.763092 770.323059,416.650543 
	C770.458435,419.121918 770.247742,421.656158 772.119873,424.290466 
	C780.036621,422.467529 788.099731,420.604065 796.166565,418.756958 
	C799.194214,418.063721 798.815918,415.666168 798.640564,413.560791 
	C797.795776,403.418945 797.470825,393.301941 798.690247,383.150024 
	C801.269531,361.677368 803.796753,340.197266 811.099915,319.663422 
	C813.689636,312.382080 817.996582,305.998199 822.449951,299.756744 
	C833.485901,284.289520 844.837830,269.065948 857.682739,255.019211 
	C860.055115,252.424850 862.530579,249.964005 865.573669,248.157059 
	C867.231750,247.172501 868.954590,246.721313 870.737610,247.897217 
	C872.577881,249.110855 872.781067,251.102478 872.301392,252.811417 
	C871.499084,255.669708 870.321960,258.453491 869.033813,261.139740 
	C860.607788,278.710846 851.958435,296.169891 844.986145,314.408417 
	C842.208923,321.673218 840.951477,329.132874 840.304077,337.255859 
z"/>
<path fill="chocolate" opacity="1.000000" stroke="none" 
	d="
M793.995300,101.260521 
	C776.188843,97.996399 759.140198,93.551689 742.724731,86.953712 
	C738.685547,85.330238 736.770264,87.735161 734.730896,90.085648 
	C725.307495,100.946617 714.385010,110.190948 703.403442,119.374916 
	C693.126160,127.969864 693.113037,127.954208 683.779785,118.368797 
	C679.362000,113.831665 679.499268,113.960144 683.957764,109.197731 
	C709.565369,81.844627 734.846802,54.196712 756.669312,23.641983 
	C759.697449,19.402027 762.111572,18.881514 766.859436,20.970852 
	C791.117249,31.645927 815.889038,41.646519 842.013672,45.919647 
	C867.825439,50.141602 894.027344,54.672779 920.421631,50.597130 
	C938.028687,47.878349 954.334900,41.014519 969.877502,32.483173 
	C977.455811,28.323381 984.716797,23.571495 992.013672,18.918676 
	C995.622681,16.617453 998.674622,17.250584 1001.412292,20.094366 
	C1003.664734,22.434126 1004.022156,24.667545 1001.303101,27.364094 
	C989.239746,39.327366 977.339417,51.455692 965.432739,63.576046 
	C954.408875,74.797630 940.235291,80.710159 926.307434,87.100601 
	C894.925415,101.499382 861.909729,107.040520 827.603333,105.120956 
	C816.497681,104.499565 805.390564,103.372688 793.995300,101.260521 
z"/>
<path fill="chocolate" opacity="1.000000" stroke="none" 
	d="
M563.031738,178.282898 
	C564.710266,178.247208 565.536804,178.970734 566.215271,180.014297 
	C567.279541,181.651245 568.694763,182.984100 570.755432,182.159943 
	C572.887756,181.307114 574.601929,179.427063 574.344543,177.189011 
	C573.805847,172.505539 576.864075,170.819687 580.057251,168.830231 
	C585.706177,165.310654 591.241150,161.606323 596.789001,157.926849 
	C600.374451,155.548828 603.420227,156.439255 606.095398,159.380585 
	C607.880615,161.343338 608.359314,163.477112 606.177673,165.532684 
	C591.145508,179.696274 578.425171,196.221603 562.306213,209.231445 
	C550.782410,218.532455 536.837463,223.585892 523.321045,229.206039 
	C507.434235,235.811798 491.025177,240.704758 473.865112,242.641068 
	C458.299561,244.397446 442.740692,244.664490 427.048157,243.638336 
	C409.509857,242.491486 392.432861,239.232239 375.423859,235.221512 
	C365.841461,232.961990 356.684570,229.359299 347.418335,226.125031 
	C344.471008,225.096298 342.690430,225.580582 340.503998,227.919510 
	C328.548981,240.708344 316.002075,252.863937 301.711365,263.115295 
	C298.431244,265.468262 296.213593,265.573761 293.198181,262.567322 
	C283.804352,253.201416 283.712860,253.341171 292.802490,243.581268 
	C317.208313,217.375824 341.121063,190.746002 362.060394,161.619324 
	C364.344635,158.441956 366.480255,157.879028 369.985687,159.432800 
	C389.798065,168.214569 410.210663,175.337128 430.989044,181.494797 
	C445.300171,185.735901 460.070374,186.804047 474.737946,188.652771 
	C486.792816,190.172180 498.867065,191.218170 511.056366,190.937119 
	C525.248718,190.609863 538.671326,187.101288 551.807129,182.062454 
	C555.379272,180.692200 559.041748,179.557343 563.031738,178.282898 
z"/>
<path fill="#000000" opacity="1.000000" stroke="none" 
	d="
M712.726440,181.791962 
	C722.631958,168.312698 735.014038,158.022522 748.355896,148.806168 
	C751.403748,146.700760 754.869080,145.767258 758.756226,146.003632 
	C777.190735,147.124680 795.632263,148.148468 814.079041,149.046127 
	C841.510193,150.380997 868.946167,151.620300 896.383484,152.822952 
	C912.677490,153.537170 928.981384,154.029633 945.273132,154.787506 
	C949.312073,154.975403 954.430481,154.156097 956.492493,158.468262 
	C958.315491,162.280533 954.799683,165.666550 952.680237,168.707947 
	C943.526123,181.843643 933.682800,194.406113 921.169556,204.610687 
	C917.399719,207.684921 913.369812,208.838425 908.288818,208.560608 
	C883.524841,207.206558 858.728088,206.464279 833.956726,205.230316 
	C804.871216,203.781448 775.798279,202.077240 746.723206,200.424713 
	C736.263184,199.830200 725.817200,198.983459 715.355530,198.425491 
	C712.194519,198.256897 709.357971,197.773041 707.611145,194.874741 
	C705.629700,191.587189 708.054626,189.219574 709.545288,186.705902 
	C710.478210,185.132675 711.521423,183.624832 712.726440,181.791962 
z"/>
<path fill="#000000" opacity="1.000000" stroke="none" 
	d="
M102.255173,365.836151 
	C101.695847,368.486328 99.886063,369.817169 98.417183,371.371460 
	C92.014305,378.146729 85.267258,384.578857 79.117821,391.614716 
	C66.093811,406.516083 63.662594,423.039551 71.865738,440.763458 
	C81.662140,461.929871 96.347122,478.688232 117.912170,488.753082 
	C121.354797,490.359772 125.331505,490.745117 128.556610,493.425323 
	C128.260452,496.566589 125.924995,498.655548 124.360855,501.076141 
	C114.821579,515.838501 103.618195,529.174927 90.366295,540.789062 
	C87.941452,542.914307 85.766685,543.473022 82.700073,542.637451 
	C74.229408,540.329285 66.524574,536.497009 59.453865,531.394470 
	C44.327854,520.478821 31.294886,507.588074 21.361931,491.623230 
	C14.317156,480.300385 12.582517,468.088562 13.969451,455.176300 
	C14.501433,450.223602 15.300182,445.299744 15.968283,440.361511 
	C17.276642,430.690826 21.413673,422.347717 27.505121,414.787384 
	C42.050594,396.734283 57.532349,379.575531 75.052834,364.341125 
	C78.196053,361.608002 81.708183,359.344940 85.529778,357.607880 
	C92.760277,354.321381 99.892120,357.650238 102.255173,365.836151 
z"/>
</svg>