<svg version="1.1" id="Layer_1" xmlns="http://www.w3.org/2000/svg" xmlns:xlink="http://www.w3.org/1999/xlink" x="0px" y="0px"
	 width="100%" viewBox="0 0 686 682" enable-background="new 0 0 686 682" xml:space="preserve">
<path fill="#FFFFFF" opacity="1.000000" stroke="none" 
	d="
M450.000000,683.000000 
	C301.500000,683.000000 153.499985,682.983521 5.500070,683.094055 
	C1.750610,683.096863 0.904792,682.249207 0.906537,678.499939 
	C1.010930,454.166656 1.010930,229.833328 0.906537,5.500043 
	C0.904792,1.750793 1.750795,0.904811 5.500043,0.906544 
	C231.166672,1.010861 456.833344,1.010861 682.499939,0.906544 
	C686.249207,0.904811 687.095276,1.750792 687.093506,5.500043 
	C686.989136,229.833328 686.989136,454.166656 687.093506,678.499939 
	C687.095276,682.249207 686.249939,683.101624 682.499817,683.095459 
	C605.166748,682.968628 527.833313,683.000000 450.000000,683.000000 
z"/>
<path fill="#020202" opacity="1.000000" stroke="none" 
	d="
M436.399109,478.410217 
	C428.472229,484.547180 420.572723,490.080688 411.828369,494.298340 
	C404.498749,497.833588 403.088715,497.573578 397.329285,492.053680 
	C390.579010,485.584198 384.951965,478.118866 378.771118,471.146454 
	C376.766174,468.884766 375.286469,468.529388 372.542511,470.003021 
	C342.505402,486.134552 310.367462,490.571686 276.738739,487.408691 
	C257.969360,485.643372 239.383026,483.101562 221.248566,477.881378 
	C202.165970,472.388214 184.561218,464.031921 169.656235,450.578491 
	C157.602982,439.699036 152.108322,425.885590 151.015686,409.964935 
	C148.701172,376.240509 164.336945,351.805969 191.087616,333.497894 
	C214.169357,317.700806 240.442917,309.016113 266.939423,301.013397 
	C272.846008,299.229401 272.880035,299.216217 270.248077,293.681885 
	C259.675232,271.449982 249.840271,248.859299 238.127075,227.182343 
	C235.733200,222.752167 236.480621,219.263290 240.204498,216.160004 
	C252.742538,205.711365 265.265045,195.243958 277.825623,184.822495 
	C283.089966,180.454712 288.205902,175.942795 292.537994,170.620178 
	C293.474548,169.469452 294.636017,168.203217 293.958618,166.596527 
	C293.168121,164.721527 291.302216,164.888565 289.640839,164.874588 
	C276.296478,164.762329 263.597076,168.198654 251.074783,172.244247 
	C224.388184,180.865952 198.951843,192.309204 174.630402,206.313950 
	C165.433182,211.609863 156.605759,217.652481 146.481323,221.275208 
	C143.512711,222.337448 140.864212,222.700653 138.829056,220.044830 
	C136.770554,217.358582 137.265610,214.401794 138.979324,211.673874 
	C141.975082,206.905167 146.448563,203.605652 150.941925,200.497177 
	C190.082016,173.420486 232.638107,153.889191 279.061371,143.056473 
	C304.886078,137.030365 330.964752,134.091614 357.277710,139.199844 
	C380.628632,143.733078 401.210266,152.876907 414.795380,174.153336 
	C426.007111,191.712631 425.493408,209.337509 417.181396,227.318237 
	C410.408600,241.969269 398.476379,252.225632 385.728577,261.512756 
	C372.398956,271.223724 358.526093,280.136475 344.193573,288.284393 
	C340.212585,290.547546 339.144318,291.905487 341.840210,296.525970 
	C364.239838,334.916260 386.989807,373.072418 412.307648,409.642242 
	C419.443665,419.949677 419.387360,420.059204 429.571686,413.029114 
	C439.706909,406.032928 449.736237,398.883270 459.876770,391.894836 
	C463.170715,389.624786 466.780212,387.903381 470.671600,386.821564 
	C476.308990,385.254242 480.209839,388.594574 479.343079,394.371857 
	C478.651550,398.980988 475.361847,401.940369 472.273102,404.960938 
	C462.452759,414.564575 451.017059,422.054779 439.683990,429.666290 
	C431.859894,434.921082 431.942566,434.804199 436.887787,442.908234 
	C440.002777,448.012939 442.774292,453.331970 445.588165,458.614349 
	C448.396942,463.887207 447.440247,468.529877 442.955231,472.477661 
	C440.831970,474.346558 438.758911,476.272430 436.399109,478.410217 
z"/>
<path fill="#CDB592" opacity="1.000000" stroke="none" 
	d="
M557.625000,606.648071 
	C564.231689,609.482666 569.223572,607.351746 573.801575,602.920898 
	C581.451782,595.516418 586.907715,586.551880 591.958313,577.358459 
	C600.600952,561.626526 609.925476,546.179626 613.842407,528.309509 
	C615.272339,521.785400 616.136719,515.236206 616.178589,508.558289 
	C616.400574,473.167480 611.408325,438.584808 599.155518,405.311523 
	C591.094604,383.421570 578.760315,363.846985 564.153198,345.722351 
	C559.770203,340.284027 554.870911,335.260742 550.510437,329.805695 
	C547.818604,326.438141 546.161926,327.245239 543.640747,330.031128 
	C533.149048,341.624268 523.214478,353.785858 510.920349,363.609650 
	C508.815552,365.291565 506.559143,367.673828 503.414978,366.446411 
	C499.048370,364.741760 498.132080,361.480621 500.734650,357.419769 
	C511.629211,340.420746 524.690735,325.061066 537.151062,309.239807 
	C550.456604,292.345398 563.428162,275.239227 569.196533,253.916351 
	C576.969849,225.182343 573.948975,198.186142 556.364258,173.613678 
	C545.246887,158.078415 530.660034,155.730957 514.743225,166.476791 
	C507.715057,171.221756 501.534210,177.179810 493.909027,181.071716 
	C489.985565,183.074219 484.800140,180.810089 483.375641,176.609222 
	C482.945801,175.341660 483.640228,174.717468 484.339294,174.053680 
	C502.537781,156.774551 519.465271,137.921661 542.551453,126.658676 
	C554.136536,121.006714 566.371094,118.171677 579.271606,119.370865 
	C596.864502,121.006233 607.846008,131.848755 615.229065,146.771774 
	C621.562134,159.572723 624.353027,173.331253 625.161865,187.647797 
	C626.108215,204.396957 620.271973,219.376617 614.221924,234.337616 
	C608.293518,248.997757 602.133240,263.593842 592.799377,276.529114 
	C591.101746,278.881775 592.456848,280.181793 593.776733,281.678345 
	C599.829712,288.541168 606.071899,295.217316 611.721680,302.454254 
	C630.305603,326.258728 643.373291,352.843933 652.034058,381.641022 
	C657.837769,400.938171 661.071289,420.735107 663.157349,440.782867 
	C664.176025,450.573303 664.363342,460.389282 664.655518,470.155182 
	C665.248413,489.969727 661.153198,509.052490 653.371216,527.402649 
	C644.037109,549.412720 630.904236,568.933228 615.416565,586.948120 
	C594.178589,611.651611 568.990784,631.739563 541.588440,649.135681 
	C535.348389,653.097107 528.117249,652.154297 521.822144,650.139648 
	C509.849609,646.307983 499.052094,639.938354 490.177307,630.770203 
	C484.549255,624.956116 484.632843,622.897766 490.198883,617.176392 
	C501.471405,605.589172 512.066833,593.395020 521.568359,580.326843 
	C524.348816,576.502808 525.697083,576.877014 528.411926,580.099121 
	C535.475586,588.482666 542.157104,597.302795 551.676270,603.228516 
	C553.506348,604.367737 555.403503,605.399353 557.625000,606.648071 
z"/>
<path fill="#C57034" opacity="1.000000" stroke="none" 
	d="
M92.861801,333.130188 
	C101.564789,342.126343 111.248764,348.992554 122.947563,352.688782 
	C126.329407,353.757294 127.343231,354.782379 124.959328,358.340210 
	C115.745033,372.091949 105.398453,384.808838 93.329491,396.177521 
	C90.352966,398.981293 87.712166,399.540436 83.982330,398.394562 
	C68.674446,393.691650 56.877373,383.837250 45.867527,372.794830 
	C43.400940,370.320923 41.116890,367.665222 38.743755,365.097900 
	C23.499084,348.605713 20.626705,329.426910 25.109116,307.980103 
	C27.187878,298.033936 30.820255,289.369446 37.196564,281.656097 
	C49.302956,267.011169 61.954601,252.881775 76.185600,240.241623 
	C79.801582,237.029846 83.643440,234.117157 88.068542,232.066833 
	C91.325180,230.557938 94.418762,230.681229 97.569237,232.571091 
	C103.857407,236.343140 104.316986,239.201172 99.272957,244.468643 
	C93.515678,250.480927 87.624001,256.371826 82.039055,262.540314 
	C69.735924,276.129028 67.992142,291.304962 75.582001,307.816833 
	C79.865211,317.135040 85.639832,325.402740 92.861801,333.130188 
z"/>
<path fill="#FEFEFE" opacity="1.000000" stroke="none" 
	d="
M282.598877,315.137817 
	C307.537109,360.153503 333.407501,404.147675 361.681976,446.634064 
	C348.363831,453.888550 334.148499,454.346405 319.581970,451.932648 
	C293.225067,447.565155 267.507385,441.020477 243.500046,428.937103 
	C231.368958,422.831268 220.531448,415.035889 211.723022,404.451965 
	C197.263870,387.078125 197.665344,349.513000 223.875870,335.815735 
	C241.363235,326.677063 259.753998,320.036285 278.110504,313.155792 
	C280.029724,312.436371 281.682098,312.385742 282.598877,315.137817 
z"/>
<path fill="#FDFDFD" opacity="1.000000" stroke="none" 
	d="
M312.524170,240.548309 
	C305.697510,227.378601 298.741852,214.673264 293.478851,201.172623 
	C289.464935,190.876038 291.987946,184.085342 300.199707,176.532349 
	C310.009766,167.509308 320.813660,168.655930 331.382019,173.042282 
	C345.265411,178.804550 357.315002,187.347427 363.705780,201.832870 
	C373.998291,225.162140 368.401520,247.907227 348.328033,263.849426 
	C344.039978,267.254974 339.271759,270.051147 334.920074,273.383087 
	C332.559692,275.190369 331.442200,274.750824 330.071869,272.294525 
	C324.241486,261.843628 317.880249,251.687332 312.524170,240.548309 
z"/>
</svg>