<svg version="1.1" id="Layer_1" xmlns="http://www.w3.org/2000/svg" xmlns:xlink="http://www.w3.org/1999/xlink" x="0px" y="0px"
	 width="100%" viewBox="0 0 804 660" enable-background="new 0 0 804 660" xml:space="preserve">
<path fill="#FFFFFF" opacity="1.000000" stroke="none" 
	d="
M509.000000,661.000000 
	C339.333344,661.000000 170.166672,661.000000 1.000000,661.000000 
	C1.000000,441.000000 1.000000,221.000000 1.000000,1.000000 
	C269.000000,1.000000 537.000000,1.000000 805.000000,1.000000 
	C805.000000,221.000000 805.000000,441.000000 805.000000,661.000000 
	C706.500000,661.000000 608.000000,661.000000 509.000000,661.000000 
M502.178864,242.886963 
	C484.031616,247.593201 466.108032,253.628769 447.690277,256.727020 
	C410.149719,263.042175 372.043610,263.034760 334.078003,264.116547 
	C330.769745,264.210815 327.421478,263.848206 324.129852,263.411224 
	C310.932709,261.659271 297.718475,259.997803 284.570435,257.923431 
	C264.855133,254.813019 245.198013,251.335495 225.500656,248.108688 
	C214.627563,246.327484 213.217407,243.385437 213.647186,232.532715 
	C215.043518,197.272095 223.583313,163.459747 235.763031,130.599686 
	C239.395111,120.800537 245.840744,112.024246 251.190704,102.892632 
	C253.079208,99.669243 255.619827,99.017830 259.461945,100.845352 
	C269.801361,105.763351 280.289246,110.428337 290.954193,114.588707 
	C305.776917,120.371010 320.539246,126.600342 335.829407,130.818909 
	C355.377167,136.212112 375.547607,133.378830 395.490540,132.245895 
	C415.351654,131.117615 434.492310,126.556503 452.002167,117.331665 
	C472.116394,106.734734 491.844208,95.287407 511.018707,83.077011 
	C519.569031,77.632095 527.153198,70.093140 533.749207,62.297401 
	C542.623474,51.808945 550.135681,40.165821 558.177856,28.979021 
	C558.937134,27.922787 559.925171,26.477636 559.735352,25.402157 
	C559.274292,22.789236 558.741394,19.783297 557.099304,17.961706 
	C556.319824,17.097059 552.548950,17.973087 550.800537,19.097754 
	C541.570068,25.035023 532.870422,31.854460 523.385376,37.325359 
	C509.461090,45.356808 495.554413,53.837051 480.687653,59.717937 
	C458.632355,68.442390 434.908325,68.940720 411.410614,70.166122 
	C391.119202,71.224335 372.334412,66.383743 354.784821,57.119579 
	C336.444366,47.437920 318.698456,36.613808 300.878448,25.977806 
	C297.748016,24.109377 295.386047,23.887825 292.848236,26.053879 
	C288.677582,29.613518 284.308411,33.040535 280.661774,37.097641 
	C260.263458,59.792019 242.006973,84.146950 224.765625,109.313629 
	C209.449829,131.669617 197.096710,155.389648 188.853348,181.264130 
	C184.218048,195.813477 179.012772,210.181564 174.039932,224.622925 
	C171.664917,231.520111 167.859924,234.713135 160.692703,233.972778 
	C155.346130,233.420502 149.943100,231.752213 144.962128,229.643417 
	C131.513992,223.949814 118.169846,217.981064 104.998047,211.675293 
	C97.055069,207.872726 90.117661,208.744232 83.927727,214.635208 
	C73.321198,224.729431 62.220867,234.433075 52.636127,245.439941 
	C40.865776,258.956696 30.341812,273.569489 19.478361,287.859985 
	C15.214220,293.469299 15.922539,299.120972 21.208536,304.786499 
	C32.246738,297.131622 43.256622,289.391479 54.420959,281.880920 
	C55.890167,280.892517 58.383038,280.330658 60.004982,280.838562 
	C72.360214,284.707306 84.570740,289.036682 96.914688,292.943420 
	C116.223808,299.054565 135.586304,304.999207 154.965927,310.883484 
	C158.579544,311.980682 159.900497,314.132935 160.028717,317.740387 
	C160.288864,325.059387 161.080688,332.364685 161.194473,339.682739 
	C161.570114,363.839874 165.757584,387.358215 173.014297,410.322968 
	C178.113190,426.459015 184.650909,441.901642 198.037598,453.259125 
	C205.023117,459.185760 211.943954,465.201172 219.141235,470.862183 
	C226.585266,476.717285 235.009338,480.486084 244.619705,481.176147 
	C259.644836,482.255005 274.142242,478.821594 288.487518,475.323669 
	C318.319244,468.049591 348.269165,463.801727 379.005585,467.963196 
	C395.925201,470.253998 412.583435,473.514191 427.233734,482.729095 
	C431.830078,485.620148 434.423340,484.549957 437.402893,481.272949 
	C438.410187,480.165100 439.491699,479.089294 440.304352,477.845367 
	C450.928680,461.582977 461.635498,445.372192 472.048218,428.974854 
	C476.893005,421.345551 475.656555,414.787842 467.729156,410.097992 
	C461.251617,406.265930 454.095276,403.017853 446.817993,401.199921 
	C417.613556,393.904419 387.707336,393.479523 357.916565,394.794434 
	C334.333435,395.835327 310.835510,398.893951 287.313782,401.199524 
	C276.673126,402.242523 267.216125,399.433533 258.737183,393.141144 
	C242.808426,381.320007 233.244522,364.859192 225.909714,346.978180 
	C222.739639,339.250092 220.626495,331.088501 217.896301,322.703247 
	C231.430328,323.503448 243.836258,324.599213 256.261749,324.908600 
	C308.697266,326.214172 360.810394,323.003967 412.381744,312.932709 
	C438.705780,307.791931 464.598267,301.165375 488.750488,289.139801 
	C493.527191,286.761383 497.964844,285.688171 503.498840,287.955750 
	C511.192322,291.534271 516.546204,297.599213 521.027527,304.554993 
	C530.421509,319.136200 535.810669,335.386871 540.604858,351.872253 
	C549.882446,383.773956 557.279114,416.045990 556.870056,449.505890 
	C556.418762,486.420013 551.145386,522.811951 543.496521,558.873352 
	C539.071228,579.737122 532.616516,599.714966 518.117493,616.176880 
	C516.201538,618.352234 514.895935,621.256348 513.925537,624.038452 
	C510.664795,633.386353 515.310974,639.057922 525.040527,636.898743 
	C530.237427,635.745544 535.555725,633.413269 539.862122,630.292358 
	C553.461548,620.436523 561.697632,606.223511 569.001831,591.550415 
	C584.043091,561.334656 594.055115,529.267212 603.001953,496.854462 
	C610.459290,469.837921 616.090149,442.491608 616.241882,414.290009 
	C616.294006,404.600220 616.250183,394.909912 616.250183,385.219849 
	C633.418335,416.265869 644.724487,448.939941 646.942932,485.698456 
	C660.274048,473.711731 672.740112,462.717865 684.966248,451.463379 
	C708.068542,430.197266 724.857117,403.754913 744.098206,379.300323 
	C761.585632,357.074585 771.813416,332.209351 775.584595,304.371277 
	C779.653931,274.331512 779.947754,244.687546 768.993958,215.718018 
	C761.767639,196.606293 753.689026,178.120270 739.470825,162.941757 
	C736.882629,160.178787 734.825562,159.798325 731.365601,161.406525 
	C708.587402,171.993988 685.695251,182.336014 662.848938,192.777008 
	C661.886597,193.216812 661.009766,193.843613 660.004272,194.435593 
	C715.140686,245.482620 723.452271,351.968079 686.165527,414.142609 
	C685.742188,412.387909 685.320801,410.783722 684.969727,409.164307 
	C678.679077,380.150452 670.163635,351.838104 657.863220,324.769043 
	C640.929382,287.503632 617.947205,254.859680 584.727539,230.164017 
	C579.929138,226.596878 574.744019,223.483078 570.290283,219.536179 
	C564.808838,214.678589 561.769836,213.426453 555.037048,216.715881 
	C537.580688,225.244476 520.294250,234.120590 502.178864,242.886963 
z"/>
<path fill="#010101" opacity="1.000000" stroke="none" 
	d="
M502.973358,287.602661 
	C497.964844,285.688171 493.527191,286.761383 488.750488,289.139801 
	C464.598267,301.165375 438.705780,307.791931 412.381744,312.932709 
	C360.810394,323.003967 308.697266,326.214172 256.261749,324.908600 
	C243.836258,324.599213 231.430328,323.503448 217.896301,322.703247 
	C220.626495,331.088501 222.739639,339.250092 225.909714,346.978180 
	C233.244522,364.859192 242.808426,381.320007 258.737183,393.141144 
	C267.216125,399.433533 276.673126,402.242523 287.313782,401.199524 
	C310.835510,398.893951 334.333435,395.835327 357.916565,394.794434 
	C387.707336,393.479523 417.613556,393.904419 446.817993,401.199921 
	C454.095276,403.017853 461.251617,406.265930 467.729156,410.097992 
	C475.656555,414.787842 476.893005,421.345551 472.048218,428.974854 
	C461.635498,445.372192 450.928680,461.582977 440.304352,477.845367 
	C439.491699,479.089294 438.410187,480.165100 437.402893,481.272949 
	C434.423340,484.549957 431.830078,485.620148 427.233734,482.729095 
	C412.583435,473.514191 395.925201,470.253998 379.005585,467.963196 
	C348.269165,463.801727 318.319244,468.049591 288.487518,475.323669 
	C274.142242,478.821594 259.644836,482.255005 244.619705,481.176147 
	C235.009338,480.486084 226.585266,476.717285 219.141235,470.862183 
	C211.943954,465.201172 205.023117,459.185760 198.037598,453.259125 
	C184.650909,441.901642 178.113190,426.459015 173.014297,410.322968 
	C165.757584,387.358215 161.570114,363.839874 161.194473,339.682739 
	C161.080688,332.364685 160.288864,325.059387 160.028717,317.740387 
	C159.900497,314.132935 158.579544,311.980682 154.965927,310.883484 
	C135.586304,304.999207 116.223808,299.054565 96.914688,292.943420 
	C84.570740,289.036682 72.360214,284.707306 60.004982,280.838562 
	C58.383038,280.330658 55.890167,280.892517 54.420959,281.880920 
	C43.256622,289.391479 32.246738,297.131622 21.208536,304.786499 
	C15.922539,299.120972 15.214220,293.469299 19.478361,287.859985 
	C30.341812,273.569489 40.865776,258.956696 52.636127,245.439941 
	C62.220867,234.433075 73.321198,224.729431 83.927727,214.635208 
	C90.117661,208.744232 97.055069,207.872726 104.998047,211.675293 
	C118.169846,217.981064 131.513992,223.949814 144.962128,229.643417 
	C149.943100,231.752213 155.346130,233.420502 160.692703,233.972778 
	C167.859924,234.713135 171.664917,231.520111 174.039932,224.622925 
	C179.012772,210.181564 184.218048,195.813477 188.853348,181.264130 
	C197.096710,155.389648 209.449829,131.669617 224.765625,109.313629 
	C242.006973,84.146950 260.263458,59.792019 280.661774,37.097641 
	C284.308411,33.040535 288.677582,29.613518 292.848236,26.053879 
	C295.386047,23.887825 297.748016,24.109377 300.878448,25.977806 
	C318.698456,36.613808 336.444366,47.437920 354.784821,57.119579 
	C372.334412,66.383743 391.119202,71.224335 411.410614,70.166122 
	C434.908325,68.940720 458.632355,68.442390 480.687653,59.717937 
	C495.554413,53.837051 509.461090,45.356808 523.385376,37.325359 
	C532.870422,31.854460 541.570068,25.035023 550.800537,19.097754 
	C552.548950,17.973087 556.319824,17.097059 557.099304,17.961706 
	C558.741394,19.783297 559.274292,22.789236 559.735352,25.402157 
	C559.925171,26.477636 558.937134,27.922787 558.177856,28.979021 
	C550.135681,40.165821 542.623474,51.808945 533.749207,62.297401 
	C527.153198,70.093140 519.569031,77.632095 511.018707,83.077011 
	C491.844208,95.287407 472.116394,106.734734 452.002167,117.331665 
	C434.492310,126.556503 415.351654,131.117615 395.490540,132.245895 
	C375.547607,133.378830 355.377167,136.212112 335.829407,130.818909 
	C320.539246,126.600342 305.776917,120.371010 290.954193,114.588707 
	C280.289246,110.428337 269.801361,105.763351 259.461945,100.845352 
	C255.619827,99.017830 253.079208,99.669243 251.190704,102.892632 
	C245.840744,112.024246 239.395111,120.800537 235.763031,130.599686 
	C223.583313,163.459747 215.043518,197.272095 213.647186,232.532715 
	C213.217407,243.385437 214.627563,246.327484 225.500656,248.108688 
	C245.198013,251.335495 264.855133,254.813019 284.570435,257.923431 
	C297.718475,259.997803 310.932709,261.659271 324.129852,263.411224 
	C327.421478,263.848206 330.769745,264.210815 334.078003,264.116547 
	C372.043610,263.034760 410.149719,263.042175 447.690277,256.727020 
	C466.108032,253.628769 484.031616,247.593201 502.586517,243.350555 
	C502.987213,258.410309 502.980286,273.006470 502.973358,287.602661 
z"/>
<path fill="#C57034" opacity="1.000000" stroke="none" 
	d="
M503.236084,287.779205 
	C502.980286,273.006470 502.987213,258.410309 502.967041,243.336060 
	C520.294250,234.120590 537.580688,225.244476 555.037048,216.715881 
	C561.769836,213.426453 564.808838,214.678589 570.290283,219.536179 
	C574.744019,223.483078 579.929138,226.596878 584.727539,230.164017 
	C617.947205,254.859680 640.929382,287.503632 657.863220,324.769043 
	C670.163635,351.838104 678.679077,380.150452 684.969727,409.164307 
	C685.320801,410.783722 685.742188,412.387909 686.165527,414.142609 
	C723.452271,351.968079 715.140686,245.482620 660.004272,194.435593 
	C661.009766,193.843613 661.886597,193.216812 662.848938,192.777008 
	C685.695251,182.336014 708.587402,171.993988 731.365601,161.406525 
	C734.825562,159.798325 736.882629,160.178787 739.470825,162.941757 
	C753.689026,178.120270 761.767639,196.606293 768.993958,215.718018 
	C779.947754,244.687546 779.653931,274.331512 775.584595,304.371277 
	C771.813416,332.209351 761.585632,357.074585 744.098206,379.300323 
	C724.857117,403.754913 708.068542,430.197266 684.966248,451.463379 
	C672.740112,462.717865 660.274048,473.711731 646.942932,485.698456 
	C644.724487,448.939941 633.418335,416.265869 616.250183,385.219849 
	C616.250183,394.909912 616.294006,404.600220 616.241882,414.290009 
	C616.090149,442.491608 610.459290,469.837921 603.001953,496.854462 
	C594.055115,529.267212 584.043091,561.334656 569.001831,591.550415 
	C561.697632,606.223511 553.461548,620.436523 539.862122,630.292358 
	C535.555725,633.413269 530.237427,635.745544 525.040527,636.898743 
	C515.310974,639.057922 510.664795,633.386353 513.925537,624.038452 
	C514.895935,621.256348 516.201538,618.352234 518.117493,616.176880 
	C532.616516,599.714966 539.071228,579.737122 543.496521,558.873352 
	C551.145386,522.811951 556.418762,486.420013 556.870056,449.505890 
	C557.279114,416.045990 549.882446,383.773956 540.604858,351.872253 
	C535.810669,335.386871 530.421509,319.136200 521.027527,304.554993 
	C516.546204,297.599213 511.192322,291.534271 503.236084,287.779205 
z"/>
</svg>