<svg version="1.1" id="Layer_1" xmlns="http://www.w3.org/2000/svg" xmlns:xlink="http://www.w3.org/1999/xlink" x="0px" y="0px"
	 width="100%" viewBox="0 0 834 1042" enable-background="new 0 0 834 1042" xml:space="preserve">
<path fill="#FFFFFF" opacity="1.000000" stroke="none" 
	d="
M401.000000,1043.000000 
	C267.333344,1043.000000 134.166687,1043.000000 1.000018,1043.000000 
	C1.000012,695.666687 1.000012,348.333405 1.000006,1.000065 
	C278.999969,1.000043 556.999939,1.000043 834.999878,1.000021 
	C834.999939,348.333252 834.999939,695.666504 835.000000,1042.999878 
	C690.500000,1043.000000 546.000000,1043.000000 401.000000,1043.000000 
M434.059906,547.094971 
	C421.429840,547.734619 408.799774,548.374207 395.910004,549.026978 
	C395.592651,547.350281 395.267151,545.919800 395.056335,544.472595 
	C392.465271,526.686218 390.113403,508.861755 387.258057,491.118164 
	C383.404236,467.170166 380.826630,443.263672 385.961273,419.165588 
	C388.455505,407.459625 390.298309,395.563171 396.623138,385.073090 
	C400.139923,379.240356 404.640137,374.556702 412.123871,375.372772 
	C417.881592,376.000671 423.853760,376.605804 429.204651,378.618958 
	C440.651520,382.925537 451.757660,388.137665 463.756256,393.303009 
	C473.938995,384.965179 485.128540,376.519409 495.451050,367.121277 
	C503.529846,359.765961 511.079010,351.660400 517.846130,343.085327 
	C523.432190,336.006897 521.325439,329.046997 512.862183,326.598022 
	C498.691223,322.497467 484.318756,318.601837 469.760681,316.445465 
	C447.943207,313.213776 426.728638,314.785767 409.781952,331.771759 
	C409.550110,332.004150 409.245941,332.166473 408.968628,332.351135 
	C382.594757,349.912598 360.997162,371.924591 346.125244,400.127777 
	C333.721252,423.650879 325.343262,448.487915 324.098358,475.193573 
	C323.307800,492.152466 323.833344,509.173218 323.788666,526.166260 
	C323.765167,535.096252 323.784515,544.026306 323.784515,553.268127 
	C287.012482,555.083679 250.261627,556.898254 212.905533,558.742615 
	C212.905533,556.903687 212.992264,555.103516 212.892380,553.313660 
	C211.620972,530.531494 210.757019,507.713684 208.812607,484.988525 
	C208.059723,476.189178 206.796204,466.428589 202.407928,459.122406 
	C185.120956,430.340668 158.397980,414.696045 125.848145,408.323212 
	C116.327011,406.459106 108.762871,409.451080 102.016357,416.349823 
	C87.953827,430.729614 76.120125,446.761169 65.684975,463.860535 
	C63.137543,468.034821 61.408035,472.708282 59.324097,477.106567 
	C74.811272,481.588196 89.495354,485.781250 104.142792,490.098694 
	C111.976418,492.407684 118.821922,496.487274 124.003967,502.857208 
	C138.475723,520.646545 137.600464,541.617615 136.695892,562.954407 
	C122.502747,563.668762 108.860466,564.093445 95.261879,565.105225 
	C77.698532,566.411987 60.176891,568.270752 42.622452,569.710938 
	C37.451748,570.135193 34.601185,573.269897 31.408119,576.852600 
	C27.890007,580.799988 30.239618,585.068542 34.456264,585.765930 
	C38.520420,586.437988 42.720036,586.816528 46.826447,586.620056 
	C68.792015,585.569092 90.746277,584.283325 112.706131,583.110474 
	C120.145927,582.713135 127.590691,582.408508 135.443085,582.042419 
	C135.094177,589.407227 134.803375,596.352051 134.429886,603.292297 
	C132.623291,636.863220 132.988159,670.337769 143.149734,702.749634 
	C150.297058,725.547058 160.715118,746.707825 180.460922,761.710510 
	C206.539429,781.524658 235.855164,787.387085 267.201569,779.192200 
	C292.072693,772.690369 313.945282,759.336304 334.672241,744.301880 
	C344.298920,737.319153 353.095978,729.440125 359.353607,719.151184 
	C365.146423,709.626465 371.112701,700.184753 376.409790,690.386047 
	C385.720123,673.163635 393.369110,655.109131 395.029053,635.450134 
	C396.750000,615.067993 396.968109,594.558777 397.825439,574.104309 
	C397.898376,572.364502 397.835114,570.618958 397.835114,568.804871 
	C410.694702,568.076965 422.832153,567.389893 435.836182,566.822632 
	C440.239410,566.111023 444.250580,567.187988 447.307892,570.340881 
	C451.220673,574.376099 455.690094,578.278076 458.269531,583.117004 
	C464.045959,593.953430 470.161041,604.921692 473.696442,616.576904 
	C481.605164,642.649597 488.386108,669.084778 494.935181,695.543396 
	C500.538788,718.182190 504.346954,741.218994 505.131866,764.574890 
	C506.425964,803.083008 500.560791,840.925415 493.408752,878.588562 
	C489.178467,900.865662 483.005310,922.349182 466.876556,939.535217 
	C465.037170,941.495056 463.966125,944.405151 463.162567,947.063232 
	C461.072479,953.976990 462.090515,956.445312 468.851379,958.831299 
	C471.397125,959.729675 474.994080,959.489014 477.471191,958.360962 
	C482.700256,955.979553 488.013062,953.277344 492.389923,949.625977 
	C504.414246,939.594849 511.776062,926.079590 518.540710,912.259033 
	C530.960632,886.884216 539.018250,859.905212 547.731934,833.151733 
	C563.122009,785.900146 566.543030,737.364380 564.327698,688.095886 
	C563.147461,661.848389 558.180969,636.262329 552.371094,610.767029 
	C548.373718,593.225098 544.197510,575.747620 535.989929,559.555054 
	C531.440857,550.580261 525.608032,544.308899 514.135803,544.531738 
	C501.556213,544.776062 489.056580,543.115601 476.334076,544.811279 
	C462.676758,546.631531 448.759644,546.502319 434.059906,547.094971 
M703.629211,288.822540 
	C692.394836,286.828644 681.350342,288.501740 670.551514,291.295715 
	C653.549377,295.694763 638.102905,303.823547 624.738831,314.964752 
	C608.776855,328.271759 593.852844,342.825043 578.507690,356.869568 
	C575.227722,359.871552 572.069763,363.006866 568.607849,366.317719 
	C570.723267,368.745575 572.712158,370.757568 574.378540,373.008362 
	C576.532837,375.918243 578.862549,376.632568 582.018066,374.597565 
	C587.460999,371.087494 593.023499,367.762177 598.449402,364.226776 
	C606.652100,358.882050 614.450623,352.797302 623.068420,348.255768 
	C627.989685,345.662292 634.210632,344.394318 639.818054,344.475922 
	C652.353821,344.658478 662.015503,351.519562 669.039001,361.298096 
	C695.077271,397.550262 700.033752,437.069366 686.478455,479.316467 
	C678.328247,504.717834 662.956177,525.787842 646.981995,546.560120 
	C629.733276,568.990051 612.542725,591.465210 595.425049,613.995178 
	C593.267090,616.835449 591.705811,620.129028 589.934509,623.101135 
	C599.792114,631.733582 600.918701,632.112976 610.085999,623.427246 
	C620.824768,613.252502 630.902527,602.375916 641.176147,591.716187 
	C646.662354,586.023865 651.957336,580.147217 657.463989,574.218689 
	C658.884949,575.483765 659.812927,576.174622 660.580200,577.012695 
	C685.674805,604.422913 707.515869,634.049744 723.091858,668.021240 
	C736.099915,696.392151 743.427246,726.349121 747.917175,757.037292 
	C750.126953,772.140686 752.018005,787.383789 752.533936,802.615112 
	C753.027222,817.175110 752.652466,831.953796 750.666138,846.361572 
	C748.055786,865.296326 740.203369,882.678955 730.872498,899.370850 
	C720.566833,917.806641 711.452271,936.897644 697.204468,952.927185 
	C687.971191,963.315002 677.608215,966.022461 666.586243,957.744385 
	C656.808533,950.400818 648.072998,941.618652 639.222046,933.112915 
	C634.733582,928.799561 631.005493,923.695007 627.628601,919.758301 
	C610.824646,938.960571 594.359558,957.918884 577.714783,976.718018 
	C571.938110,983.242249 571.347717,986.376953 577.577454,992.681519 
	C582.687561,997.852844 588.346436,1002.683533 594.422668,1006.654419 
	C605.416626,1013.839233 616.682068,1021.038208 630.163330,1022.398560 
	C635.755798,1022.962891 642.730530,1023.626831 647.039062,1020.957214 
	C684.855042,997.524780 719.504333,970.095154 748.985046,936.523926 
	C771.187439,911.240906 790.380920,883.979248 803.551819,852.814453 
	C814.293945,827.396606 820.262939,800.949890 819.794800,773.266541 
	C819.612183,762.469971 818.646484,751.688171 818.126160,740.895386 
	C816.865234,714.742249 812.412598,689.110291 806.045105,663.743835 
	C796.545349,625.899170 781.295898,590.532532 759.006470,558.573853 
	C747.622986,542.252136 734.230896,527.315491 721.463684,511.988525 
	C719.043945,509.083649 718.613220,507.287170 721.132568,504.467682 
	C723.222839,502.128296 725.241638,499.550171 726.575256,496.737854 
	C735.340332,478.253693 744.280212,459.838287 752.450989,441.090088 
	C762.492188,418.049652 768.014587,394.219208 764.135620,368.707764 
	C761.244263,349.691467 756.152771,331.629272 745.321533,315.583160 
	C735.504456,301.039612 722.530579,291.029694 703.629211,288.822540 
M302.175781,250.828049 
	C284.079590,239.012497 272.536621,220.503357 256.468323,205.949829 
	C236.477295,220.465439 216.497894,234.972610 196.037735,249.828873 
	C198.865311,253.370636 200.994995,256.555267 203.628143,259.247498 
	C215.384903,271.267975 229.174942,280.551208 244.634079,286.900879 
	C260.473694,293.406891 277.068359,295.632599 293.930328,290.870544 
	C323.670410,282.471527 350.318726,267.927032 373.579010,247.826035 
	C395.878479,228.555328 402.375305,209.269089 385.902771,179.665451 
	C374.439484,159.064163 354.202362,148.322464 331.695038,143.191193 
	C314.119812,139.184357 296.049347,138.771271 278.063904,140.941681 
	C253.422928,143.915268 229.583038,150.786743 208.114883,162.721619 
	C171.779190,182.921829 139.977020,209.641144 109.308411,237.582077 
	C105.684135,240.884003 102.720871,245.010757 99.906494,249.070770 
	C97.673416,252.292175 98.570412,254.961136 102.060944,257.410248 
	C108.022034,261.592865 112.660652,258.122620 117.064087,255.188141 
	C133.949097,243.935806 150.489807,232.165848 167.400024,220.952515 
	C203.292404,197.151901 242.283966,187.273407 285.076660,195.963058 
	C312.799774,201.592636 320.970062,215.752640 320.938263,240.042023 
	C320.925598,249.716034 314.709869,254.176315 305.298676,251.866226 
	C304.496460,251.669296 303.730499,251.324600 302.175781,250.828049 
z"/>
<path fill="#010101" opacity="1.000000" stroke="none" 
	d="
M434.969604,566.702881 
	C422.832153,567.389893 410.694702,568.076965 397.835114,568.804871 
	C397.835114,570.618958 397.898376,572.364502 397.825439,574.104309 
	C396.968109,594.558777 396.750000,615.067993 395.029053,635.450134 
	C393.369110,655.109131 385.720123,673.163635 376.409790,690.386047 
	C371.112701,700.184753 365.146423,709.626465 359.353607,719.151184 
	C353.095978,729.440125 344.298920,737.319153 334.672241,744.301880 
	C313.945282,759.336304 292.072693,772.690369 267.201569,779.192200 
	C235.855164,787.387085 206.539429,781.524658 180.460922,761.710510 
	C160.715118,746.707825 150.297058,725.547058 143.149734,702.749634 
	C132.988159,670.337769 132.623291,636.863220 134.429886,603.292297 
	C134.803375,596.352051 135.094177,589.407227 135.443085,582.042419 
	C127.590691,582.408508 120.145927,582.713135 112.706131,583.110474 
	C90.746277,584.283325 68.792015,585.569092 46.826447,586.620056 
	C42.720036,586.816528 38.520420,586.437988 34.456264,585.765930 
	C30.239618,585.068542 27.890007,580.799988 31.408119,576.852600 
	C34.601185,573.269897 37.451748,570.135193 42.622452,569.710938 
	C60.176891,568.270752 77.698532,566.411987 95.261879,565.105225 
	C108.860466,564.093445 122.502747,563.668762 136.695892,562.954407 
	C137.600464,541.617615 138.475723,520.646545 124.003967,502.857208 
	C118.821922,496.487274 111.976418,492.407684 104.142792,490.098694 
	C89.495354,485.781250 74.811272,481.588196 59.324097,477.106567 
	C61.408035,472.708282 63.137543,468.034821 65.684975,463.860535 
	C76.120125,446.761169 87.953827,430.729614 102.016357,416.349823 
	C108.762871,409.451080 116.327011,406.459106 125.848145,408.323212 
	C158.397980,414.696045 185.120956,430.340668 202.407928,459.122406 
	C206.796204,466.428589 208.059723,476.189178 208.812607,484.988525 
	C210.757019,507.713684 211.620972,530.531494 212.892380,553.313660 
	C212.992264,555.103516 212.905533,556.903687 212.905533,558.742615 
	C250.261627,556.898254 287.012482,555.083679 323.784515,553.268127 
	C323.784515,544.026306 323.765167,535.096252 323.788666,526.166260 
	C323.833344,509.173218 323.307800,492.152466 324.098358,475.193573 
	C325.343262,448.487915 333.721252,423.650879 346.125244,400.127777 
	C360.997162,371.924591 382.594757,349.912598 408.968628,332.351135 
	C409.245941,332.166473 409.550110,332.004150 409.781952,331.771759 
	C426.728638,314.785767 447.943207,313.213776 469.760681,316.445465 
	C484.318756,318.601837 498.691223,322.497467 512.862183,326.598022 
	C521.325439,329.046997 523.432190,336.006897 517.846130,343.085327 
	C511.079010,351.660400 503.529846,359.765961 495.451050,367.121277 
	C485.128540,376.519409 473.938995,384.965179 463.756256,393.303009 
	C451.757660,388.137665 440.651520,382.925537 429.204651,378.618958 
	C423.853760,376.605804 417.881592,376.000671 412.123871,375.372772 
	C404.640137,374.556702 400.139923,379.240356 396.623138,385.073090 
	C390.298309,395.563171 388.455505,407.459625 385.961273,419.165588 
	C380.826630,443.263672 383.404236,467.170166 387.258057,491.118164 
	C390.113403,508.861755 392.465271,526.686218 395.056335,544.472595 
	C395.267151,545.919800 395.592651,547.350281 395.910004,549.026978 
	C408.799774,548.374207 421.429840,547.734619 434.510162,547.612183 
	C434.963470,554.320557 434.966522,560.511719 434.969604,566.702881 
M264.125488,575.690674 
	C246.858047,576.610474 229.590607,577.530273 211.450958,578.496582 
	C211.004868,593.403564 209.993057,608.020874 210.246307,622.616272 
	C210.833679,656.469543 221.456116,686.571899 245.299103,711.351440 
	C252.038284,718.355347 259.001831,724.822693 269.141815,726.697998 
	C276.158386,727.995544 283.009766,730.165222 290.005554,731.601257 
	C304.002411,734.474304 312.229950,730.843628 318.680511,718.017517 
	C330.676453,694.165405 332.776611,668.283142 332.374023,642.209717 
	C332.166473,628.766357 330.176819,615.346741 328.904236,601.924805 
	C327.966736,592.036804 326.886383,582.162292 325.865204,572.238525 
	C305.264862,573.382385 285.162537,574.498657 264.125488,575.690674 
z"/>
<path fill="#CDB592" opacity="1.000000" stroke="none" 
	d="
M704.069336,288.853210 
	C722.530579,291.029694 735.504456,301.039612 745.321533,315.583160 
	C756.152771,331.629272 761.244263,349.691467 764.135620,368.707764 
	C768.014587,394.219208 762.492188,418.049652 752.450989,441.090088 
	C744.280212,459.838287 735.340332,478.253693 726.575256,496.737854 
	C725.241638,499.550171 723.222839,502.128296 721.132568,504.467682 
	C718.613220,507.287170 719.043945,509.083649 721.463684,511.988525 
	C734.230896,527.315491 747.622986,542.252136 759.006470,558.573853 
	C781.295898,590.532532 796.545349,625.899170 806.045105,663.743835 
	C812.412598,689.110291 816.865234,714.742249 818.126160,740.895386 
	C818.646484,751.688171 819.612183,762.469971 819.794800,773.266541 
	C820.262939,800.949890 814.293945,827.396606 803.551819,852.814453 
	C790.380920,883.979248 771.187439,911.240906 748.985046,936.523926 
	C719.504333,970.095154 684.855042,997.524780 647.039062,1020.957214 
	C642.730530,1023.626831 635.755798,1022.962891 630.163330,1022.398560 
	C616.682068,1021.038208 605.416626,1013.839233 594.422668,1006.654419 
	C588.346436,1002.683533 582.687561,997.852844 577.577454,992.681519 
	C571.347717,986.376953 571.938110,983.242249 577.714783,976.718018 
	C594.359558,957.918884 610.824646,938.960571 627.628601,919.758301 
	C631.005493,923.695007 634.733582,928.799561 639.222046,933.112915 
	C648.072998,941.618652 656.808533,950.400818 666.586243,957.744385 
	C677.608215,966.022461 687.971191,963.315002 697.204468,952.927185 
	C711.452271,936.897644 720.566833,917.806641 730.872498,899.370850 
	C740.203369,882.678955 748.055786,865.296326 750.666138,846.361572 
	C752.652466,831.953796 753.027222,817.175110 752.533936,802.615112 
	C752.018005,787.383789 750.126953,772.140686 747.917175,757.037292 
	C743.427246,726.349121 736.099915,696.392151 723.091858,668.021240 
	C707.515869,634.049744 685.674805,604.422913 660.580200,577.012695 
	C659.812927,576.174622 658.884949,575.483765 657.463989,574.218689 
	C651.957336,580.147217 646.662354,586.023865 641.176147,591.716187 
	C630.902527,602.375916 620.824768,613.252502 610.085999,623.427246 
	C600.918701,632.112976 599.792114,631.733582 589.934509,623.101135 
	C591.705811,620.129028 593.267090,616.835449 595.425049,613.995178 
	C612.542725,591.465210 629.733276,568.990051 646.981995,546.560120 
	C662.956177,525.787842 678.328247,504.717834 686.478455,479.316467 
	C700.033752,437.069366 695.077271,397.550262 669.039001,361.298096 
	C662.015503,351.519562 652.353821,344.658478 639.818054,344.475922 
	C634.210632,344.394318 627.989685,345.662292 623.068420,348.255768 
	C614.450623,352.797302 606.652100,358.882050 598.449402,364.226776 
	C593.023499,367.762177 587.460999,371.087494 582.018066,374.597565 
	C578.862549,376.632568 576.532837,375.918243 574.378540,373.008362 
	C572.712158,370.757568 570.723267,368.745575 568.607849,366.317719 
	C572.069763,363.006866 575.227722,359.871552 578.507690,356.869568 
	C593.852844,342.825043 608.776855,328.271759 624.738831,314.964752 
	C638.102905,303.823547 653.549377,295.694763 670.551514,291.295715 
	C681.350342,288.501740 692.394836,286.828644 704.069336,288.853210 
z"/>
<path fill="#C47034" opacity="1.000000" stroke="none" 
	d="
M435.402893,566.762756 
	C434.966522,560.511719 434.963470,554.320557 434.958160,547.676575 
	C448.759644,546.502319 462.676758,546.631531 476.334076,544.811279 
	C489.056580,543.115601 501.556213,544.776062 514.135803,544.531738 
	C525.608032,544.308899 531.440857,550.580261 535.989929,559.555054 
	C544.197510,575.747620 548.373718,593.225098 552.371094,610.767029 
	C558.180969,636.262329 563.147461,661.848389 564.327698,688.095886 
	C566.543030,737.364380 563.122009,785.900146 547.731934,833.151733 
	C539.018250,859.905212 530.960632,886.884216 518.540710,912.259033 
	C511.776062,926.079590 504.414246,939.594849 492.389923,949.625977 
	C488.013062,953.277344 482.700256,955.979553 477.471191,958.360962 
	C474.994080,959.489014 471.397125,959.729675 468.851379,958.831299 
	C462.090515,956.445312 461.072479,953.976990 463.162567,947.063232 
	C463.966125,944.405151 465.037170,941.495056 466.876556,939.535217 
	C483.005310,922.349182 489.178467,900.865662 493.408752,878.588562 
	C500.560791,840.925415 506.425964,803.083008 505.131866,764.574890 
	C504.346954,741.218994 500.538788,718.182190 494.935181,695.543396 
	C488.386108,669.084778 481.605164,642.649597 473.696442,616.576904 
	C470.161041,604.921692 464.045959,593.953430 458.269531,583.117004 
	C455.690094,578.278076 451.220673,574.376099 447.307892,570.340881 
	C444.250580,567.187988 440.239410,566.111023 435.402893,566.762756 
z"/>
<path fill="#C46F34" opacity="1.000000" stroke="none" 
	d="
M302.561737,250.938293 
	C303.730499,251.324600 304.496460,251.669296 305.298676,251.866226 
	C314.709869,254.176315 320.925598,249.716034 320.938263,240.042023 
	C320.970062,215.752640 312.799774,201.592636 285.076660,195.963058 
	C242.283966,187.273407 203.292404,197.151901 167.400024,220.952515 
	C150.489807,232.165848 133.949097,243.935806 117.064087,255.188141 
	C112.660652,258.122620 108.022034,261.592865 102.060944,257.410248 
	C98.570412,254.961136 97.673416,252.292175 99.906494,249.070770 
	C102.720871,245.010757 105.684135,240.884003 109.308411,237.582077 
	C139.977020,209.641144 171.779190,182.921829 208.114883,162.721619 
	C229.583038,150.786743 253.422928,143.915268 278.063904,140.941681 
	C296.049347,138.771271 314.119812,139.184357 331.695038,143.191193 
	C354.202362,148.322464 374.439484,159.064163 385.902771,179.665451 
	C402.375305,209.269089 395.878479,228.555328 373.579010,247.826035 
	C350.318726,267.927032 323.670410,282.471527 293.930328,290.870544 
	C277.068359,295.632599 260.473694,293.406891 244.634079,286.900879 
	C229.174942,280.551208 215.384903,271.267975 203.628143,259.247498 
	C200.994995,256.555267 198.865311,253.370636 196.037735,249.828873 
	C216.497894,234.972610 236.477295,220.465439 256.468323,205.949829 
	C272.536621,220.503357 284.079590,239.012497 302.561737,250.938293 
z"/>
<path fill="#FEFEFE" opacity="1.000000" stroke="none" 
	d="
M264.592865,575.652771 
	C285.162537,574.498657 305.264862,573.382385 325.865204,572.238525 
	C326.886383,582.162292 327.966736,592.036804 328.904236,601.924805 
	C330.176819,615.346741 332.166473,628.766357 332.374023,642.209717 
	C332.776611,668.283142 330.676453,694.165405 318.680511,718.017517 
	C312.229950,730.843628 304.002411,734.474304 290.005554,731.601257 
	C283.009766,730.165222 276.158386,727.995544 269.141815,726.697998 
	C259.001831,724.822693 252.038284,718.355347 245.299103,711.351440 
	C221.456116,686.571899 210.833679,656.469543 210.246307,622.616272 
	C209.993057,608.020874 211.004868,593.403564 211.450958,578.496582 
	C229.590607,577.530273 246.858047,576.610474 264.592865,575.652771 
z"/>
</svg>