<svg version="1.1" id="Layer_1" xmlns="http://www.w3.org/2000/svg" xmlns:xlink="http://www.w3.org/1999/xlink" x="0px" y="0px"
	 width="100%" viewBox="0 0 448 980" enable-background="new 0 0 448 980" xml:space="preserve">
<path fill="#FFFFFF" opacity="1.000000" stroke="none" 
	d="
M140.000000,981.000000 
	C93.333336,981.000000 47.166668,981.000000 1.000000,981.000000 
	C1.000000,654.333313 1.000000,327.666656 1.000000,1.000000 
	C150.333328,1.000000 299.666656,1.000000 449.000000,1.000000 
	C449.000000,327.666656 449.000000,654.333313 449.000000,981.000000 
	C346.166656,981.000000 243.333328,981.000000 140.000000,981.000000 
M263.950531,663.462280 
	C239.545822,683.789612 215.141113,704.116943 190.452164,724.681091 
	C194.018677,728.497192 196.688248,731.353638 199.266327,734.112122 
	C234.144272,713.456848 266.578247,690.503052 295.472229,662.785950 
	C318.667114,640.535889 339.737762,616.614380 354.432007,587.684204 
	C364.278046,568.299255 370.909271,547.981934 370.949127,526.056152 
	C370.983368,507.237183 370.292847,488.416718 369.910248,469.597168 
	C369.663147,457.442017 366.945740,446.173706 358.194641,437.073181 
	C354.730225,433.470428 351.379395,429.755554 347.847839,426.220642 
	C333.455719,411.814789 317.150330,400.432831 296.753967,396.663361 
	C285.334076,394.552826 273.695679,393.338654 262.099304,392.529175 
	C238.400406,390.874908 215.388840,393.867493 194.594254,406.245209 
	C176.870651,416.794891 159.529068,427.992462 142.153030,439.113647 
	C139.379791,440.888641 137.318069,441.627380 134.389618,438.672546 
	C144.392685,406.110107 148.566635,373.182709 133.584778,339.496063 
	C136.995331,340.002289 138.602936,340.130463 140.157669,340.488342 
	C160.853485,345.252228 181.883621,347.212006 203.051834,347.895325 
	C229.594040,348.752136 256.019958,347.261627 282.198303,342.774139 
	C300.730865,339.597290 319.418488,336.530762 334.834198,324.324768 
	C350.108093,312.231049 365.659241,300.463593 380.513245,287.873962 
	C387.429108,282.012360 393.277985,274.782623 399.010162,267.687958 
	C401.275604,264.884064 402.433990,260.853851 403.080109,257.202179 
	C403.447357,255.126709 402.215973,252.295105 400.766449,250.611771 
	C400.211334,249.967102 396.777771,251.154343 395.107849,252.216980 
	C379.373749,262.229279 362.351990,269.107666 344.441467,274.156860 
	C324.621094,279.744385 304.408173,282.855774 283.935883,283.815979 
	C269.684296,284.484406 254.976913,285.830566 241.152328,283.243958 
	C200.808411,275.695496 162.124420,262.111206 123.945854,247.154068 
	C121.871880,246.341553 118.979294,246.129684 116.954842,246.906921 
	C93.318619,255.981430 73.631866,270.764801 56.702545,289.387268 
	C48.929657,297.937500 46.124596,306.665100 50.401962,318.810913 
	C61.890739,351.434082 73.441566,384.139771 79.539398,418.376617 
	C82.351082,434.163116 84.695496,450.066833 81.636337,466.031982 
	C76.731796,491.627808 64.404503,513.819092 48.669674,534.200745 
	C39.834953,545.644531 30.421083,556.641174 21.314034,567.783203 
	C28.057734,576.484680 28.699284,576.620728 37.416477,571.100647 
	C39.102619,570.032898 40.904568,569.025330 42.294621,567.632263 
	C52.866665,557.037476 63.374390,546.377991 73.854416,535.691895 
	C89.236549,520.007324 103.500191,503.010986 120.185921,488.868988 
	C146.592087,466.488434 178.098862,455.898621 212.817139,453.613129 
	C236.382812,452.061829 254.953735,460.433929 269.546387,477.910797 
	C288.198090,500.249054 300.449738,525.682434 302.250183,555.217407 
	C304.758392,596.362976 296.159607,633.754944 263.950531,663.462280 
M363.186798,960.315918 
	C365.939026,963.310730 368.691254,966.305542 371.134521,968.964111 
	C379.672211,960.270630 387.954590,952.097717 395.936707,943.641418 
	C405.295319,933.726807 414.524597,923.680176 423.460968,913.387756 
	C424.793762,911.852783 425.063446,908.386719 424.381744,906.281250 
	C421.020172,895.898499 414.508240,887.438599 406.470093,880.277649 
	C385.117065,861.255066 360.031555,849.398560 332.206299,843.696716 
	C309.071472,838.955994 285.722473,837.711548 262.475708,843.699097 
	C261.437347,843.966492 260.270081,843.733276 259.178253,843.733276 
	C259.178253,843.223083 259.057983,842.828552 259.198761,842.584656 
	C259.860565,841.438232 260.600494,840.337158 261.300964,839.212708 
	C277.843231,812.657166 292.932892,785.345764 303.853546,755.933411 
	C306.766357,748.088440 308.761261,739.919312 305.354218,731.635010 
	C302.350098,724.330444 295.944885,722.652344 290.381897,728.042480 
	C286.722076,731.588745 283.169586,735.622253 280.841797,740.099365 
	C272.264893,756.595520 264.204285,773.360474 255.975342,790.037048 
	C234.258652,834.047791 205.181015,872.656189 170.546524,907.286255 
	C165.944763,911.887390 162.417755,917.729004 159.138550,923.425293 
	C157.164871,926.853699 159.845947,933.330811 163.194336,935.266296 
	C167.053635,937.497070 169.382080,934.418701 171.834641,932.344910 
	C181.237198,924.394714 190.355118,916.090942 199.994980,908.443115 
	C209.189163,901.148804 219.413132,895.151001 231.515579,895.101440 
	C243.608780,895.051880 255.847931,895.363586 267.774353,897.164246 
	C293.000580,900.973145 315.629669,910.991760 333.921173,929.272156 
	C343.809662,939.154541 353.154053,949.581299 363.186798,960.315918 
M204.998047,75.495247 
	C178.212326,109.334152 178.209457,156.054398 202.905365,185.450577 
	C214.124817,198.805389 228.131699,205.885284 245.665054,204.103500 
	C262.044678,202.438950 274.101898,193.096558 283.859863,180.418030 
	C289.200195,173.479324 290.916870,165.653244 289.889862,156.974792 
	C288.465851,144.941849 283.008759,134.848129 275.042419,126.142708 
	C261.473053,111.314476 258.044556,93.816162 261.703796,74.856224 
	C265.461365,55.386749 274.245850,37.920940 285.538239,21.678837 
	C287.187195,19.307110 288.195740,16.490150 289.697357,13.485561 
	C277.601288,12.211623 225.094879,51.155956 204.998047,75.495247 
z"/>
<path fill="#C47034" opacity="1.000000" stroke="none" 
	d="
M264.213776,663.222778 
	C296.159607,633.754944 304.758392,596.362976 302.250183,555.217407 
	C300.449738,525.682434 288.198090,500.249054 269.546387,477.910797 
	C254.953735,460.433929 236.382812,452.061829 212.817139,453.613129 
	C178.098862,455.898621 146.592087,466.488434 120.185921,488.868988 
	C103.500191,503.010986 89.236549,520.007324 73.854416,535.691895 
	C63.374390,546.377991 52.866665,557.037476 42.294621,567.632263 
	C40.904568,569.025330 39.102619,570.032898 37.416477,571.100647 
	C28.699284,576.620728 28.057734,576.484680 21.314034,567.783203 
	C30.421083,556.641174 39.834953,545.644531 48.669674,534.200745 
	C64.404503,513.819092 76.731796,491.627808 81.636337,466.031982 
	C84.695496,450.066833 82.351082,434.163116 79.539398,418.376617 
	C73.441566,384.139771 61.890739,351.434082 50.401962,318.810913 
	C46.124596,306.665100 48.929657,297.937500 56.702545,289.387268 
	C73.631866,270.764801 93.318619,255.981430 116.954842,246.906921 
	C118.979294,246.129684 121.871880,246.341553 123.945854,247.154068 
	C162.124420,262.111206 200.808411,275.695496 241.152328,283.243958 
	C254.976913,285.830566 269.684296,284.484406 283.935883,283.815979 
	C304.408173,282.855774 324.621094,279.744385 344.441467,274.156860 
	C362.351990,269.107666 379.373749,262.229279 395.107849,252.216980 
	C396.777771,251.154343 400.211334,249.967102 400.766449,250.611771 
	C402.215973,252.295105 403.447357,255.126709 403.080109,257.202179 
	C402.433990,260.853851 401.275604,264.884064 399.010162,267.687958 
	C393.277985,274.782623 387.429108,282.012360 380.513245,287.873962 
	C365.659241,300.463593 350.108093,312.231049 334.834198,324.324768 
	C319.418488,336.530762 300.730865,339.597290 282.198303,342.774139 
	C256.019958,347.261627 229.594040,348.752136 203.051834,347.895325 
	C181.883621,347.212006 160.853485,345.252228 140.157669,340.488342 
	C138.602936,340.130463 136.995331,340.002289 133.584778,339.496063 
	C148.566635,373.182709 144.392685,406.110107 134.389618,438.672546 
	C137.318069,441.627380 139.379791,440.888641 142.153030,439.113647 
	C159.529068,427.992462 176.870651,416.794891 194.594254,406.245209 
	C215.388840,393.867493 238.400406,390.874908 262.099304,392.529175 
	C273.695679,393.338654 285.334076,394.552826 296.753967,396.663361 
	C317.150330,400.432831 333.455719,411.814789 347.847839,426.220642 
	C351.379395,429.755554 354.730225,433.470428 358.194641,437.073181 
	C366.945740,446.173706 369.663147,457.442017 369.910248,469.597168 
	C370.292847,488.416718 370.983368,507.237183 370.949127,526.056152 
	C370.909271,547.981934 364.278046,568.299255 354.432007,587.684204 
	C339.737762,616.614380 318.667114,640.535889 295.472229,662.785950 
	C266.578247,690.503052 234.144272,713.456848 199.266327,734.112122 
	C196.688248,731.353638 194.018677,728.497192 190.452164,724.681091 
	C215.141113,704.116943 239.545822,683.789612 264.213776,663.222778 
z"/>
<path fill="#020202" opacity="1.000000" stroke="none" 
	d="
M362.965332,960.039185 
	C353.154053,949.581299 343.809662,939.154541 333.921173,929.272156 
	C315.629669,910.991760 293.000580,900.973145 267.774353,897.164246 
	C255.847931,895.363586 243.608780,895.051880 231.515579,895.101440 
	C219.413132,895.151001 209.189163,901.148804 199.994980,908.443115 
	C190.355118,916.090942 181.237198,924.394714 171.834641,932.344910 
	C169.382080,934.418701 167.053635,937.497070 163.194336,935.266296 
	C159.845947,933.330811 157.164871,926.853699 159.138550,923.425293 
	C162.417755,917.729004 165.944763,911.887390 170.546524,907.286255 
	C205.181015,872.656189 234.258652,834.047791 255.975342,790.037048 
	C264.204285,773.360474 272.264893,756.595520 280.841797,740.099365 
	C283.169586,735.622253 286.722076,731.588745 290.381897,728.042480 
	C295.944885,722.652344 302.350098,724.330444 305.354218,731.635010 
	C308.761261,739.919312 306.766357,748.088440 303.853546,755.933411 
	C292.932892,785.345764 277.843231,812.657166 261.300964,839.212708 
	C260.600494,840.337158 259.860565,841.438232 259.198761,842.584656 
	C259.057983,842.828552 259.178253,843.223083 259.178253,843.733276 
	C260.270081,843.733276 261.437347,843.966492 262.475708,843.699097 
	C285.722473,837.711548 309.071472,838.955994 332.206299,843.696716 
	C360.031555,849.398560 385.117065,861.255066 406.470093,880.277649 
	C414.508240,887.438599 421.020172,895.898499 424.381744,906.281250 
	C425.063446,908.386719 424.793762,911.852783 423.460968,913.387756 
	C414.524597,923.680176 405.295319,933.726807 395.936707,943.641418 
	C387.954590,952.097717 379.672211,960.270630 371.134521,968.964111 
	C368.691254,966.305542 365.939026,963.310730 362.965332,960.039185 
z"/>
<path fill="#020202" opacity="1.000000" stroke="none" 
	d="
M205.201019,75.201660 
	C225.094879,51.155956 277.601288,12.211623 289.697357,13.485561 
	C288.195740,16.490150 287.187195,19.307110 285.538239,21.678837 
	C274.245850,37.920940 265.461365,55.386749 261.703796,74.856224 
	C258.044556,93.816162 261.473053,111.314476 275.042419,126.142708 
	C283.008759,134.848129 288.465851,144.941849 289.889862,156.974792 
	C290.916870,165.653244 289.200195,173.479324 283.859863,180.418030 
	C274.101898,193.096558 262.044678,202.438950 245.665054,204.103500 
	C228.131699,205.885284 214.124817,198.805389 202.905365,185.450577 
	C178.209457,156.054398 178.212326,109.334152 205.201019,75.201660 
z"/>
</svg>