<svg enable-background="new 0 0 848 570" viewBox="0 0 848 570" xmlns="http://www.w3.org/2000/svg"><path d="m545 571c-181.666656 0-362.833328 0-544 0 0-190 0-380 0-570h848v570c-101.166687 0-202.333313 0-304 0m-47.16391-358.653214h223.754608v5.911377 135.467728c0 8.944 0 8.944-8.984558 12.500977-1.678406-2.107636-3.436157-4.295746-5.173828-6.499695-18.760986-23.795136-39.375488-45.736389-64.865112-62.467224-23.709473-15.562378-49.634644-22.172028-77.959534-17.179871-21.443787 3.779419-39.346436 14.567169-56.057861 28.279785 10.485717 13.657257 20.702026 26.963623 31.097839 40.503815 1.904541-1.217102 3.381592-2.265167 4.951782-3.147308 9.127747-5.127991 18.011109-10.788269 27.475098-15.200104 19.608826-9.141083 39.695496-10.034577 60.111999-2.070587 16.442505 6.41394 29.224671 17.733642 41.340943 29.954162 6.589233 6.645935 12.652771 13.813111 19.163635 20.976441-52.936523 32.35852-105.079468 64.231994-157.674683 96.381897 10.676697 11.270752 20.818909 21.977234 31.002991 32.727936 52.211548-33.18332 103.941773-66.060761 156.571289-99.509736v6.756531c0 34.491791.044007 68.983765-.073303 103.475159-.010803 3.1781.920776 5.124328 3.505493 7.003418 9.699341 7.051513 19.121094 14.486023 28.846924 21.499451 2.111389 1.522583 5.051636 1.895812 8.536072 3.125061 0-113.747559 0-225.942841 0-338.706147h70.535705c-1.388733-3.590362-1.994384-6.498626-3.504882-8.817398-5.180115-7.951828-11.036622-15.481064-15.918519-23.602264-2.904968-4.832565-6.366516-6.159805-11.714721-5.988724-10.135864.324219-20.295227-.087128-30.659424-.810532-4.018005-4.439605-7.759033-9.172943-12.10199-13.267883-18.653076-17.587585-37.06372-35.466171-56.337768-52.354126-37.801941-33.122047-80.62616-58.379425-127.114868-77.152731-37.131836-14.994758-75.838929-21.99571-116.095307-19.346713-24.41864 1.606825-47.223328 7.748824-67.310943 22.171872-26.962708 19.359471-37.458954 45.951908-32.734498 78.34103 3.262391 22.36554 12.752228 42.22403 27.79892 59.275116.79065.895951 1.42804 1.927185 2.54184 3.448868-19.828369 0-38.823181 0-58.738007-.178482-16.154327-.005752-32.309357-.086838-48.462372.055496-2.754089.024247-4.144531-.845016-5.306823-3.287353-4.350434-9.141602-8.73288-18.276886-13.434815-27.240662-16.799789-32.026985-34.853454-63.258751-59.78627-89.859222-16.106201-17.183502-35.024658-30.055744-58.013611-36.296751-18.50676-5.024189-37.220604-5.01173-55.932518-1.55793-8.52195 1.57296-16.887565 3.992866-25.716255 6.123239 9.591507 18.133583 18.655228 35.269345 27.77729 52.515393 3.528389-1.398751 6.579819-2.673729 9.677124-3.825356 16.494866-6.133079 33.455712-8.567707 50.984734-6.254661 20.039307 2.644302 34.963394 13.733406 47.311752 28.925605 15.676224 19.286499 29.15445 40.063759 41.322998 61.701119 3.38823 6.024719 6.4637 12.225326 10.035156 19.015442-82.125183 0-163.341003 0-245.902297 0 1.147798 3.368972 1.564222 6.329696 3.037212 8.606994 5.693468 8.802338 11.859314 17.299118 17.554441 26.100434 1.955946 3.02275 4.108055 4.020721 7.676833 4.014679 66.655075-.112717 133.310401-.082779 199.965675-.082779h6.014664v95.510025c-.61821-.091706-.985016-.04242-1.215699-.196717-1.935959-1.294738-3.864303-2.602386-5.762771-3.951385-17.34433-12.324494-36.428131-20.57544-57.371079-24.429077-28.82637-5.304261-56.442985-2.642273-81.780472 13.238403-22.067054 13.830902-36.034866 33.575897-39.694118 59.462189-3.916912 27.709015 3.35701 53.012878 20.651257 74.918365 21.423957 27.136292 47.403724 47.632477 83.019104 52.536927 24.34732 3.352752 47.887237 1.455108 69.442977-11.72757 4.314499-2.638611 8.334412-5.758881 13.022171-9.028107 0 20.483368-.088836 40.273529.133347 60.06015.02298 2.046387 1.380997 4.729737 2.99765 5.999512 9.819351 7.712525 19.815262 15.209107 29.942246 22.514343 2.286926 1.649781 5.326233 2.256592 8.827392 3.669617 0-113.748779 0-226.008514 0-338.308823 16.817566 0 33.27414 0 50.684845.090744h49.048859c0 2.069962.00003 4.046357.00003 6.022751 0 62.14711.000031 124.294205 0 186.4413 0 37.488189-.047363 74.976623.114533 112.464111.009979 2.311279.999573 5.462647 2.671051 6.784363 10.182251 8.051697 20.636932 15.765503 31.151275 23.384155 1.784363 1.292908 4.297669 1.579712 7.392579 2.648499 0-113.478333 0-225.672394 0-338.274445 15.708435 0 30.825042.027481 45.941497-.010391 8.948273-.022415 17.896241-.148102 27.765076.026275z" fill="#fffefe"/><path d="m332.797058 212.769424c-16.456573 0-32.913147 0-49.730713 0v338.308823c-3.501159-1.413025-6.540466-2.019836-8.827392-3.669617-10.126984-7.305236-20.122895-14.801818-29.942246-22.514343-1.616653-1.269775-2.97467-3.953125-2.99765-5.999512-.222183-19.786621-.133347-39.576782-.133347-60.06015-4.687759 3.269226-8.707672 6.389496-13.022171 9.028107-21.55574 13.182678-45.095657 15.080322-69.442977 11.72757-35.61538-4.90445-61.595147-25.400635-83.019104-52.536927-17.294247-21.905487-24.568169-47.20935-20.651257-74.918365 3.659252-25.886292 17.627064-45.631287 39.694118-59.462189 25.337487-15.880676 52.954102-18.542664 81.780472-13.238403 20.942948 3.853637 40.026749 12.104583 57.371079 24.429077 1.898468 1.348999 3.826812 2.656647 5.762771 3.951385.230683.154297.597489.105011 1.215699.196717 0-31.746674 0-63.42688 0-95.510025-2.102906 0-4.058777 0-6.014664 0-66.655274 0-133.3106-.029938-199.965675.082779-3.568778.006042-5.720887-.991929-7.676833-4.014679-5.695127-8.801316-11.860973-17.298096-17.554441-26.100434-1.47299-2.277298-1.889414-5.238022-3.037212-8.606994h245.902297c-3.571456-6.790116-6.646926-12.990723-10.035156-19.015442-12.168548-21.63736-25.646774-42.41462-41.322998-61.701119-12.348358-15.192199-27.272445-26.281303-47.311752-28.925605-17.529022-2.313046-34.489868.121582-50.984734 6.254661-3.097305 1.151627-6.148735 2.426605-9.677124 3.825356-9.122062-17.246048-18.185783-34.38181-27.77729-52.515393 8.82869-2.130373 17.194305-4.550279 25.716255-6.123239 18.711914-3.4538 37.425758-3.466259 55.932518 1.55793 22.988953 6.241007 41.90741 19.113249 58.013611 36.296751 24.932816 26.600471 42.986481 57.832237 59.78627 89.859222 4.701935 8.963776 9.084381 18.09906 13.434815 27.240662 1.162292 2.442337 2.552734 3.3116 5.306823 3.287353 16.153015-.142334 32.308045-.061248 48.936646.500306.406647 13.159103.33902 25.76242.271362 38.365737m-225.273758 131.261612c-7.584579 9.158295-12.93161 19.545746-14.710998 31.255158-3.303856 21.74115 1.848465 41.08905 20.107101 54.660492 25.035126 18.608307 52.202286 17.040954 80.417923 6.665558-24.861359-35.021057-49.363861-69.536591-74.384361-104.7818-3.949723 4.182679-7.470322 7.91095-11.429665 12.200592m39.618042-21.661163c23.561203 32.950226 47.122406 65.900452 71.245438 99.636414 7.493423-7.427185 14.594665-14.362 21.524643-21.463959.878341-.900086 1.199692-2.674255 1.205108-4.045746.075669-19.141418.09166-38.283539-.034881-57.424408-.008911-1.347229-.887497-3.262146-1.971359-3.944275-22.380082-14.084778-46.500351-22.029114-73.263611-19.746246-6.920151.590301-13.765335 2.059448-21.353531 3.234588 1.300445 1.80951 1.781601 2.479004 2.648193 3.753632z" fill="#010101"/><path d="m772.358643 173.528564c10.149597.105774 20.30896.517121 30.444824.192902 5.348205-.171081 8.809753 1.156159 11.714721 5.988724 4.881897 8.1212 10.738404 15.650436 15.918519 23.602264 1.510498 2.318772 2.116149 5.227036 3.504882 8.817398-24.236755 0-47.125305 0-70.535705 0v338.706147c-3.484436-1.229249-6.424683-1.602478-8.536072-3.125061-9.72583-7.013428-19.147583-14.447938-28.846924-21.499451-2.584717-1.87909-3.516296-3.825318-3.505493-7.003418.11731-34.491394.073303-68.983368.073303-103.475159 0-1.798981 0-3.597961 0-6.756531-52.629516 33.448975-104.359741 66.326416-156.571289 99.509736-10.184082-10.750702-20.326294-21.457184-31.002991-32.727936 52.595215-32.149903 104.73816-64.023377 157.674683-96.381897-6.510864-7.16333-12.574402-14.330506-19.163635-20.976441-12.116272-12.22052-24.898438-23.540222-41.340943-29.954162-20.416503-7.96399-40.503173-7.070496-60.111999 2.070587-9.463989 4.411835-18.347351 10.072113-27.475098 15.200104-1.57019.882141-3.047241 1.930206-4.951782 3.147308-10.395813-13.540192-20.612122-26.846558-31.097839-40.503815 16.711425-13.712616 34.614074-24.500366 56.057861-28.279785 28.32489-4.992157 54.250061 1.617493 77.959534 17.179871 25.489624 16.730835 46.104126 38.672088 64.865112 62.467224 1.737671 2.203949 3.495422 4.392059 5.173828 6.499695 8.984558-3.556977 8.984558-3.556977 8.984558-12.500977 0-45.155914 0-90.311829 0-135.467728 0-1.791198 0-3.582412 0-5.911377-74.886474 0-149.320556 0-224.186035-.602081-.404144-12.959305-.376831-25.316528.111878-37.734512 80.426147-.084915 160.390869-.10907 240.828796-.072724 11.653259-.095977 22.833252-.252441 34.013306-.408905z" fill="#c46f34"/><path d="m497.055176 174.070953c-.027344 12.357224-.054657 24.714447-.110901 37.546936-8.97702.55452-17.924988.680207-26.873261.702622-15.116455.037872-30.233062.010391-45.941497.010391v338.274445c-3.09491-1.068787-5.608216-1.355591-7.392579-2.648499-10.514343-7.618652-20.969024-15.332458-31.151275-23.384155-1.671478-1.321716-2.661072-4.473084-2.671051-6.784363-.161896-37.487488-.114533-74.975922-.114533-112.464111.000031-62.147095 0-124.29419 0-186.4413 0-1.976394-.00003-3.952789-.00003-6.022751-16.593476 0-32.821167 0-49.52591-.045379-.409423-12.648682-.341796-25.251999-.288421-38.321869 18.98053-.466553 37.975342-.466553 57.803711-.466553-1.1138-1.521683-1.75119-2.552917-2.54184-3.448868-15.046692-17.051086-24.536529-36.909576-27.79892-59.275116-4.724456-32.389122 5.77179-58.981559 32.734498-78.34103 20.087615-14.423048 42.892303-20.565047 67.310943-22.171872 40.256378-2.648997 78.963471 4.351955 116.095307 19.346713 46.488708 18.773306 89.312927 44.030684 127.114868 77.152731 19.274048 16.887955 37.684692 34.766541 56.337768 52.354126 4.342957 4.09494 8.083985 8.828278 12.20929 13.576706-11.072754.465271-22.252747.621735-33.997681.407105-11.982971-10.798829-23.034607-21.665177-34.890503-31.568741-30.638367-25.593102-63.55957-47.764656-99.999878-64.404259-37.153259-16.965134-75.985229-26.095734-116.994812-24.589088-21.186554.778373-40.986908 6.081337-58.408081 18.851882-17.565979 12.876694-27.041107 29.863289-26.927948 51.814522.082764 16.054665 3.871521 31.221901 11.026001 45.639458 1.743897 3.514236 3.664429 4.662094 7.554047 4.640823 25.813354-.141204 51.628265.006073 77.442688.059494z" fill="#cdb591"/><path d="m107.742676 343.750366c3.739967-4.008972 7.260566-7.737243 11.210289-11.919922 25.0205 35.245209 49.523002 69.760743 74.384361 104.7818-28.215637 10.375396-55.382797 11.942749-80.417923-6.665558-18.258636-13.571442-23.410957-32.919342-20.107101-54.660492 1.779388-11.709412 7.126419-22.096863 14.930374-31.535828z" fill="#fdfdfd"/><path d="m146.948608 322.067322c-.673858-.972077-1.155014-1.641571-2.455459-3.451081 7.588196-1.17514 14.43338-2.644287 21.353531-3.234588 26.76326-2.282868 50.883529 5.661468 73.263611 19.746246 1.083862.682129 1.962448 2.597046 1.971359 3.944275.126541 19.140869.11055 38.28299.034881 57.424408-.005416 1.371491-.326767 3.14566-1.205108 4.045746-6.929978 7.101959-14.03122 14.036774-21.524643 21.463959-24.123032-33.735962-47.684235-66.686188-71.438172-99.938965z" fill="#fefefe"/><path d="m497.516541 174.010193c-26.275788.007339-52.090699-.139938-77.904053.001266-3.889618.021271-5.81015-1.126587-7.554047-4.640823-7.15448-14.417557-10.943237-29.584793-11.026001-45.639458-.113159-21.951233 9.361969-38.937828 26.927948-51.814522 17.421173-12.770545 37.221527-18.073509 58.408081-18.851882 41.009583-1.506646 79.841553 7.623954 116.994812 24.589088 36.440308 16.639603 69.361511 38.811157 99.999878 64.404259 11.855896 9.903564 22.907532 20.769912 34.417298 31.508255-79.873047.334747-159.837769.358902-240.263916.443817z" fill="#fffffe"/></svg>