<svg enable-background="new 0 0 2138 686" viewBox="0 0 2138 686" xmlns="http://www.w3.org/2000/svg"><path d="m1382 687c-460.666687 0-920.833344 0-1381 0 0-228.666656 0-457.333328 0-686h2138v686c-252.166626 0-504.333374 0-757 0m-666.987915-62.785278c-18.959656-11.076783-32.629211-27.182129-42.903442-46.210389-11.0047-20.381164-17.26532-42.292907-20.543641-65.253662-3.266967-22.880645-3.94342-45.771972-1.202514-68.607086 3.943237-32.851349 14.437378-63.724701 30.437927-92.732025 14.638062-26.53717 32.94812-49.949799 57.469971-68.093719 23.697448-17.533997 49.902649-27.562226 79.846679-26.367798 7.311768.291626 14.648377-.037598 22.893555.029388h193.235596c.731567 6.132569 1.411255 11.831116 2.095459 17.567444-65.604492 17.97229-128.616699 40.798004-187.526123 74.334808 7.483093 21.404511 14.953491 42.334809 22.029968 63.397492 1.357605 4.040619 3.368958 5.378815 7.373596 5.670105 21.165955 1.539734 41.903382 5.391083 62.014405 12.299469 19.519958 6.705414 37.420593 16.411133 52.610778 28.014679-6.872375 7.513489-13.737671 14.983307-20.562683 22.489807-8.615173 9.475494-17.986328 18.391418-25.618469 28.604553-13.17926 17.636231-16.55542 38.242981-14.634644 59.790711 2.33191 26.160217 12.82782 48.435485 32.82605 65.746826 17.650757 15.279358 38.47284 23.543884 61.515564 26.338501 47.27124 5.733154 90.667969-3.851258 127.740357-34.723877 21.683593-18.057373 34.070068-41.508179 34.025879-70.512146-.023804-15.590882-3.447632-30.284912-13.563599-42.423889-17.330933-20.797089-49.422608-24.768555-72.068726-9.679383-23.944091 15.954041-24.512207 57.564698 3.83606 70.629456 4.591186 2.115967 9.593017 3.340942 14.891724 5.143249-3.29773 3.723999-6.190674 7.616883-9.694581 10.846924-23.746948 21.891174-51.965576 31.340943-83.946533 28.287964-16.564209-1.581177-30.657959-8.723389-37.313659-25.259644-7.682312-19.08673-6.106446-38.029663 5.805297-54.700927 8.851014-12.387574 19.630127-23.464905 30.088318-34.621735 17.64795-18.826965 31.946045-39.654266 40.54419-64.135925 11.672241-33.234802 13.628662-67.707581 12.95813-102.505585-.046631-2.424835-.265747-4.846313-.404419-7.266052 1.031616-.159668 1.521484-.334625 1.991821-.292298 3.315186.298066 6.634277.575745 9.937378.979889 20.961059 2.564728 41.333496 7.255249 60.016113 17.52707 13.226685 7.272186 24.787476 16.375213 30.588989 30.994049 2.351929 5.926452 3.472168 12.093109 2.236695 18.509521-.998291-.913757-1.523438-1.922333-2.024048-2.942963-11.977417-24.421264-42.849365-24.499084-57.79541-10.280059-10.841553 10.314209-12.984375 23.711975-10.622559 37.805023 2.039673 12.169708 8.52478 21.632568 19.985474 26.993683 26.290039 12.297912 56.599365 1.690399 68.049072-24.996369 14.624024-34.085052 8.620117-66.318054-12.639282-95.757507-17.896362-24.78244-43.401367-39.030579-72.084595-47.619049-13.792114-4.1297-28.118896-6.473694-42.766113-9.752289-.537598-4.146973-1.173706-9.053772-1.877075-14.480286 2.215454 0 4.185669.001618 6.155883-.000244 46.82959-.043579 93.65918-.087494 141.433838-.036743 10.496826.012634 20.995118.143555 31.489868.002716 9.375611-.125793 17.542359 3.035523 23.738648 9.800324 16.082153 17.55783 24.428223 39.299408 24.617798 62.290985.87854 106.462158.410156 212.935638.303833 319.404999-.003906 4.001647 1.071045 6.243591 4.774414 8.110778 9.357666 4.717835 18.424438 10.010132 27.658447 14.977845 1.490845.802124 3.24231 1.119873 5.690918 1.932983 0-139.239807 0-277.59964 0-416.586853 14.062134 0 27.515015 0 41.888794.096222h277.981812v17.020508 16.723449c-87.215088 30.537018-169.543946 70.484772-246.176758 121.923127 9.141601 25.372406 18.189575 50.411621 27.153564 75.480835.866699 2.423797 1.991089 3.623474 4.788697 4.002105 7.57434 1.025147 15.120483 2.366699 22.604614 3.932648 37.452514 7.836731 72.031738 22.508972 103.342041 44.516235 35.965942 25.279602 64.507324 57.509766 87.454468 94.85437 1.112793 1.811158 2.369384 3.695618 3.995361 5.003113 9.60498 7.723023 19.301269 15.334534 29.073852 22.844177 1.333497 1.024598 3.265137 1.271058 5.590088 2.123475 0-136.760193 0-272.357666 0-408.01825h320.006226v16.875549 16.417206c-87.292236 30.652741-169.582153 70.47461-246.2854 121.7706.101074.503601.135498.980194.292114 1.412506 9.070923 25.038574 18.105224 50.090789 27.357177 75.062378.510499 1.377777 2.713013 2.665222 4.334473 3.003082 7.485474 1.559601 15.085694 2.568939 22.56958 4.13562 37.959229 7.946442 72.948487 22.885559 104.562134 45.381409 34.963989 24.879883 62.931397 56.296508 85.425415 92.7182 1.299316 2.103699 2.554443 4.446106 4.415283 5.956055 9.699097 7.869995 19.549317 15.556519 29.455811 23.165222 1.344726 1.032959 3.300781 1.269898 5.571289 2.091736 0-136.729431 0-272.344818 0-408.472137h76.116211c-7.22461-11.133316-14.147705-21.4646-20.668701-32.043915-2.113282-3.428818-4.490479-4.460083-8.399414-4.45694-125.140381.101044-250.28064.083115-375.421021.083115-77.162476 0-154.324829.028442-231.487305-.012116-38.155151-.02005-76.31018-.167312-115.359375-.346908-13.245971 0-26.491943 0-40.05603 0-.753906-7.515229-1.723633-15.076203-2.193359-22.668091-.273804-4.423493-1.417603-7.740875-5.382324-10.385941-8.43628-5.628265-16.496216-11.817855-24.816041-17.626175-1.401977-.978744-3.332641-1.200256-6.515136-2.278564.957763 34.567871 1.874634 67.660065 2.779785 100.331909-1.880371-4.147827-3.719605-8.937744-6.140503-13.413132-8.510986-15.734481-19.666626-29.354065-38.172241-32.361312-12.620972-2.05095-25.798706-.676667-39.648438-1.087418-14.949341 0-29.898681 0-45.00415 0-.459107-2.751755-.842041-4.866837-1.161621-6.99144-3.572876-23.755554-8.291992-47.199264-18.191406-69.304581-14.86731-33.19844-40.941285-50.334259-76.788575-51.115654-20.726318-.451797-41.507934 2.323243-62.282898 3.225518-18.939575.822586-37.922607 1.81768-56.850769 1.334778-13.63153-.347794-26.645263-4.29715-36.412414-15.064614-9.217041-10.161155-12.455567-22.680614-13.365845-35.794189-.68457-9.861397-.135376-19.808441-.135376-29.871239-10.32782-1.05413-19.854065-2.02644-29.634277-3.024675-1.894226 19.056997-3.154541 37.631048-.922241 56.256143 1.797607 14.998299 5.484619 29.541161 13.00415 42.722229 15.433105 27.053032 40.063354 39.636421 69.98584 44.054421 25.374695 3.746521 50.49823.83377 75.708923-1.504441 15.736084-1.459457 31.519409-3.152099 47.292481-3.268981 17.371948-.128754 32.137329 6.541152 42.338989 21.420593 9.565552 13.951599 12.948486 30.023834 16.431885 46.863739-2.443604 0-4.376343-.000015-6.309205-.000015-96.496826 0-192.993591-.002045-289.490356.013214-2.154663.000335-4.309326.197677-7.372375.216919-11.956665-.241974-23.913331-.670182-35.870057-.673508-11.956787-.003327-23.913269.598495-35.870544.621216-43.260376.082168-86.521057.020187-129.781616.038727-15.804444.006774-31.608948.086486-48.144959-.254609-19.309387-.01741-38.618835-.049499-57.928222-.049942-172.140229-.003936-344.280442-.002288-516.420655-.002288-1.940757 0-3.881515.000015-6.733214.000015 7.255511 11.531479 14.12469 22.252624 20.750182 33.122299 1.583162 2.597275 3.287708 3.465469 6.325226 3.457291 42.326523-.113984 84.660065.341827 126.976364-.32547 13.169449-.207672 24.951752 2.514373 36.21019 8.691772 5.978256 3.280243 12.054214 6.487396 17.618606 10.393463 9.361603 6.571625 18.188996 13.837952 24.545685 23.483887-7.417022 1.628509-14.672699 2.703583-21.603088 4.835876-25.650299 7.891816-43.927368 23.390534-49.599594 50.739685-3.810822 18.374329-2.073288 36.296357 8.048187 52.489136 12.842102 20.54541 32.393921 29.126068 56.018402 30.009522 29.78537 1.113861 53.460754-15.873963 61.491547-44.576142 3.243255-11.591522 4.444427-23.43573 2.988464-35.846313 1.503296.141113 2.620728.21167 3.728729.355133 20.282654 2.626343 33.962494 14.522522 43.211121 31.836883 10.474579 19.609437 13.945618 40.787385 12.062012 62.871644-2.427826 28.465362-15.715027 50.074585-41.756317 62.326599-33.54654 15.782959-68.550705 15.691284-103.315064 5.083984-30.955597-9.445099-53.811371-30.533813-72.859192-55.983398-23.577667-31.50177-39.667404-66.885346-53.046364-103.606507-5.797905-15.913482-11.06398-32.020691-16.629852-48.20932-9.606556 3.02478-19.192554 6.043091-28.871796 9.090759.205647 1.224915.237389 2.053223.487133 2.809571 10.633389 32.203247 20.329091 64.75769 32.190586 96.502777 13.374878 35.795349 30.936036 69.642151 54.448777 100.078613 19.657814 25.44635 43.008033 46.407105 73.057319 58.888428 29.233796 12.142517 59.700806 14.619812 90.707856 9.63916 24.910431-4.001282 47.170837-14.024292 64.862762-32.577393 5.564087-5.834899 10.423401-12.34198 16.526093-19.643066 13.31134 10.96051 27.30957 21.464783 40.114044 33.264526 20.203399 18.618103 36.536041 40.509217 50.565948 64.118775 1.424256 2.396667 2.930481 4.978454 5.03357 6.697815 9.539764 7.799377 19.266326 15.373474 29.04248 22.876526 1.283386.985046 3.240082 1.092834 5.551453 1.815246 0-136.79187 0-272.360748 0-408.313476 29.171875 0 57.968689 0 87.710388.074585h91.013183c-10.391723 12.282562-21.500122 23.669464-30.598632 36.483459-30.989197 43.643952-44.471558 93.27948-47.072876 146.104553-1.628357 33.066254 1.455078 65.812287 10.901001 97.701722 11.020874 37.206604 28.623352 70.574646 58.209716 96.586853 26.18866 23.024963 56.378235 35.024658 91.618653 31.015564 17.995056-2.04712 33.104553-9.820557 42.4104-26.336731 8.520996-15.12323 9.740112-31.315796 5.912903-47.852417-3.315491-14.32544-10.819092-26.067688-24.16095-33.277405-11.789856-6.371033-24.279724-8.250916-37.620361-6.430481-23.730347 3.238281-40.28363 21.762024-40.514832 45.642029-.091918 9.488342 1.973816 18.437256 5.004822 27.446777 0 0-.23468.235596-.939697.15918m1215.80835-40.426026c-1.052857-1.28833-2.080445-2.598266-3.162476-3.861572-16.234009-18.955139-46.712158-20.138733-65.212647-2.36261-21.463012 20.622986-16.434814 62.290283 19.831666 71.846008 21.654296 5.705506 42.591186-3.137329 51.62146-22.510192 6.715087-14.406434 5.340209-28.770569-3.078003-43.111634z" fill="#fff"/><path d="m1379.203613 220.230026c38.155274.089707 76.310303.236969 114.465454.257019 77.162476.040558 154.324829.012116 231.487305.012116 125.140381 0 250.28064.017929 375.421021-.083115 3.908935-.003143 6.286132 1.028122 8.399414 4.45694 6.520996 10.579315 13.444091 20.910599 20.668701 32.043915-25.784668 0-50.814942 0-76.116211 0v408.472137c-2.270508-.821838-4.226563-1.058777-5.571289-2.091736-9.906494-7.608703-19.756714-15.295227-29.455811-23.165222-1.86084-1.509949-3.115967-3.852356-4.415283-5.956055-22.494018-36.421692-50.461426-67.838317-85.425415-92.7182-31.613647-22.49585-66.602905-37.434967-104.562134-45.381409-7.483886-1.566681-15.084106-2.576019-22.56958-4.13562-1.62146-.33786-3.823974-1.625305-4.334473-3.003082-9.251953-24.971589-18.286254-50.023804-27.357177-75.062378-.156616-.432312-.19104-.908905-.292114-1.412506 76.703247-51.29599 158.993164-91.117859 246.2854-121.7706 0-5.501922 0-10.959564 0-16.417206 0-5.492492 0-10.984985 0-16.875549-106.636353 0-213.14978 0-320.006226 0v408.01825c-2.324951-.852417-4.256591-1.098877-5.590088-2.123475-9.772583-7.509643-19.468872-15.121154-29.073852-22.844177-1.625977-1.307495-2.882568-3.191955-3.995361-5.003113-22.947144-37.344604-51.488526-69.574768-87.454468-94.85437-31.310303-22.007263-65.889527-36.679504-103.342041-44.516235-7.484131-1.565949-15.030274-2.907501-22.604614-3.932648-2.797608-.378631-3.921998-1.578308-4.788697-4.002105-8.963989-25.069214-18.011963-50.108429-27.153564-75.480835 76.632812-51.438355 158.96167-91.386109 246.176758-121.923127 0-5.756897 0-11.240173 0-16.723449 0-5.478546 0-10.957093 0-17.020508-92.803223 0-185.392456 0-278.486206-.507538-.439332-12.423737-.37439-24.33992-.309449-36.256119m603.301026 147.788132c-49.746338 20.188843-97.348511 44.450867-142.450806 74.599945 76.929932 25.219849 134.519409 73.477051 175.524658 143.185242 0-77.617401 0-153.989044 0-230.853058-11.040893 4.373932-21.693481 8.594086-33.073852 13.067871m-349.383545-3.370392c-52.755738 20.845459-103.145142 46.25238-150.869263 77.958893 76.862061 25.066986 134.41687 73.251068 175.545288 143.157379 0-77.759186 0-153.998871 0-230.665527-8.207886 3.146759-16.098999 6.172088-24.676025 9.549255z" fill="#010101"/><path d="m839.914551 220.905334c2.154663-.105438 4.309326-.30278 6.463989-.303115 96.496765-.015259 192.99353-.013214 289.490356-.013214 1.932862 0 3.865601.000015 6.309205.000015-3.483399-16.839905-6.866333-32.91214-16.431885-46.863739-10.20166-14.879441-24.967041-21.549347-42.338989-21.420593-15.773072.116882-31.556397 1.809524-47.292481 3.268981-25.210693 2.338211-50.334228 5.250962-75.708923 1.504441-29.922486-4.418-54.552735-17.001389-69.98584-44.054421-7.519531-13.181068-11.206543-27.72393-13.00415-42.722229-2.2323-18.625095-.971985-37.199146.922241-56.256143 9.780212.998235 19.306457 1.970545 29.634277 3.024675 0 10.062798-.549194 20.009842.135376 29.871239.910278 13.113575 4.148804 25.633034 13.365845 35.794189 9.767151 10.767464 22.780884 14.71682 36.412414 15.064614 18.928162.482902 37.911194-.512192 56.850769-1.334778 20.774964-.902275 41.55658-3.677315 62.282898-3.225518 35.84729.781395 61.921265 17.917214 76.788575 51.115654 9.899414 22.105317 14.61853 45.549027 18.191406 69.304581.31958 2.124603.702514 4.239685 1.161621 6.99144 15.105469 0 30.054809 0 45.435669.602203.391846 12.273285.352295 23.944382.312744 35.615464-46.82959.043853-93.65918.087768-140.48877.131347-1.970214.001862-3.940429.000244-6.155883.000244.703369 5.426514 1.339477 10.333313 1.877075 14.480286 14.647217 3.278595 28.973999 5.622589 42.766113 9.752289 28.683228 8.58847 54.188233 22.836609 72.084595 47.619049 21.259399 29.439453 27.263306 61.672455 12.639282 95.757507-11.449707 26.686768-41.759033 37.294281-68.049072 24.996369-11.460694-5.361115-17.945801-14.823975-19.985474-26.993683-2.361816-14.093048-.218994-27.490814 10.622559-37.805023 14.946045-14.219025 45.817993-14.141205 57.79541 10.280059.50061 1.02063 1.025757 2.029206 2.024048 2.942963 1.235473-6.416412.115234-12.583069-2.236695-18.509521-5.801513-14.618836-17.362304-23.721863-30.588989-30.994049-18.682617-10.271821-39.055054-14.962342-60.016113-17.52707-3.303101-.404144-6.622192-.681823-9.937378-.979889-.470337-.042327-.960205.13263-1.991821.292298.138672 2.419739.357788 4.841217.404419 7.266052.670532 34.798004-1.285889 69.270783-12.95813 102.505585-8.598145 24.481659-22.89624 45.30896-40.54419 64.135925-10.458191 11.15683-21.237304 22.234161-30.088318 34.621735-11.911743 16.671264-13.487609 35.614197-5.805297 54.700927 6.6557 16.536255 20.74945 23.678467 37.313659 25.259644 31.980957 3.052979 60.199585-6.39679 83.946533-28.287964 3.503907-3.230041 6.396851-7.122925 9.694581-10.846924-5.298707-1.802307-10.300538-3.027282-14.891724-5.143249-28.348267-13.064758-27.780151-54.675415-3.83606-70.629456 22.646118-15.089172 54.737793-11.117706 72.068726 9.679383 10.115967 12.138977 13.539795 26.833007 13.563599 42.423889.044189 29.003967-12.342286 52.454773-34.025879 70.512146-37.072388 30.872619-80.469117 40.457031-127.740357 34.723877-23.042724-2.794617-43.864807-11.059143-61.515564-26.338501-19.99823-17.311341-30.49414-39.586609-32.82605-65.746826-1.920776-21.54773 1.455384-42.15448 14.634644-59.790711 7.632141-10.213135 17.003296-19.129059 25.618469-28.604553 6.825012-7.5065 13.690308-14.976318 20.562683-22.489807-15.190185-11.603546-33.09082-21.309265-52.610778-28.014679-20.111023-6.908386-40.84845-10.759735-62.014405-12.299469-4.004638-.29129-6.015991-1.629486-7.373596-5.670105-7.076477-21.062683-14.546875-41.992981-22.029968-63.397492 58.909424-33.536804 121.921631-56.362518 187.526123-74.334808-.684204-5.736328-1.363892-11.434875-2.095459-17.567444-64.64624 0-128.940918 0-193.729004-.513733-.529846-12.195953-.566223-23.878158-.602661-35.560364m200.732422 125.228486c0-4.067749 0-8.135498 0-12.898194-42.341309 11.176544-81.69043 28.118164-121.219117 46.26825 35.729615 12.802276 66.153321 32.563019 92.394043 59.360107 10.029663-13.033539 16.492432-27.131286 21.219117-42.123321 5.098388-16.17096 6.878296-32.836213 7.605957-50.606842z" fill="#c47034"/><path d="m589.903809 256.897034c-28.796753 0-57.593567 0-86.765442 0v408.313476c-2.311371-.722412-4.268067-.8302-5.551453-1.815246-9.776154-7.503052-19.502716-15.077149-29.04248-22.876526-2.103089-1.719361-3.609314-4.301148-5.03357-6.697815-14.029907-23.609558-30.362549-45.500672-50.565948-64.118775-12.804474-11.799743-26.802704-22.304016-40.114044-33.264526-6.102692 7.301086-10.962006 13.808167-16.526093 19.643066-17.691925 18.553101-39.952331 28.576111-64.862762 32.577393-31.00705 4.980652-61.47406 2.503357-90.707856-9.63916-30.049286-12.481323-53.399505-33.442078-73.057319-58.888428-23.512741-30.436462-41.073899-64.283264-54.448777-100.078613-11.861495-31.745087-21.557197-64.29953-32.190586-96.502777-.249744-.756348-.281486-1.584656-.487133-2.809571 9.679242-3.047668 19.26524-6.065979 28.871796-9.090759 5.565872 16.188629 10.831947 32.295838 16.629852 48.20932 13.37896 36.721161 29.468697 72.104737 53.046364 103.606507 19.047821 25.449585 41.903595 46.538299 72.859192 55.983398 34.764359 10.6073 69.768524 10.698975 103.315064-5.083984 26.04129-12.252014 39.328491-33.861237 41.756317-62.326599 1.883606-22.084259-1.587433-43.262207-12.062012-62.871644-9.248627-17.314361-22.928467-29.21054-43.211121-31.836883-1.108001-.143463-2.225433-.21402-3.728729-.355133 1.455963 12.410583.254791 24.254791-2.988464 35.846313-8.030793 28.702179-31.706177 45.690003-61.491547 44.576142-23.624481-.883454-43.1763-9.464112-56.018402-30.009522-10.121475-16.192779-11.859009-34.114807-8.048187-52.489136 5.672226-27.349151 23.949295-42.847869 49.599594-50.739685 6.930389-2.132293 14.186066-3.207367 21.603088-4.835876-6.356689-9.645935-15.184082-16.912262-24.545685-23.483887-5.564392-3.906067-11.64035-7.11322-17.618606-10.393463-11.258438-6.177399-23.040741-8.899444-36.21019-8.691772-42.316299.667297-84.649841.211486-126.976364.32547-3.037518.008178-4.742064-.860016-6.325226-3.457291-6.625492-10.869675-13.494671-21.59082-20.750182-33.122299 2.851699 0 4.792457-.000015 6.733214-.000015 172.140213 0 344.280426-.001648 516.420655.002288 19.309387.000443 38.618835.032532 58.264892.716553.300537 12.337555.264343 24.008514.22815 35.679459m-158.102265 279.800049c11.177948 15.616455 22.355866 31.23291 33.070099 46.201538 0-107.759552 0-216.70163 0-325.563599-71.134949 0-141.974945 0-211.50206 0 8.704514 12.73703 17.814285 25.755951 26.5215 39.038818 2.038177 3.109223 3.88681 5.045075 7.753174 5.855011 35.04776 7.341797 62.811187 25.734375 82.488098 55.773224 17.616943 26.894074 24.993713 56.853028 24.087463 88.677796-.475464 16.695739-2.943085 33.334777-4.594635 50.88739 15.096893 10.168792 29.076752 23.654236 42.176361 39.129822z" fill="#010101"/><path d="m590.376282 256.934326c-.43628-11.708237-.400086-23.379196-.334778-35.52298 15.833496-.519287 31.638-.598999 47.442444-.605773 43.260559-.01854 86.52124.043441 129.781616-.038727 11.957275-.022721 23.913757-.624543 35.870544-.621216 11.956726.003326 23.913392.431534 36.32428.716614.490601 11.725296.526978 23.407501.596863 35.548065-7.291809.502136-14.628418.83136-21.940186.539734-29.94403-1.194428-56.149231 8.833801-79.846679 26.367798-24.521851 18.14392-42.831909 41.556549-57.469971 68.093719-16.000549 29.007324-26.49469 59.880676-30.437927 92.732025-2.740906 22.835114-2.064453 45.726441 1.202514 68.607086 3.278321 22.960755 9.538941 44.872498 20.543641 65.253662 10.274231 19.02826 23.943786 35.133606 43.392761 46.419251.725647.158142.962036.107361 1.198364.056641-.169861-.21875-.339661-.437561-.50946-.656311-3.269532-8.777893-5.335266-17.726807-5.243348-27.215149.231202-23.880005 16.784485-42.403748 40.514832-45.642029 13.340637-1.820435 25.830505.059448 37.620361 6.430481 13.341858 7.209717 20.845459 18.951965 24.16095 33.277405 3.827209 16.536621 2.608093 32.729187-5.912903 47.852417-9.305847 16.516174-24.415344 24.289611-42.4104 26.336731-35.240418 4.009094-65.429993-7.990601-91.618653-31.015564-29.586364-26.012207-47.188842-59.380249-58.209716-96.586853-9.445923-31.889435-12.529358-64.635468-10.901001-97.701722 2.601318-52.825073 16.083679-102.460601 47.072876-146.104553 9.09851-12.813995 20.206909-24.200897 30.598632-36.483459-29.995849 0-60.504516 0-91.485656-.037293z" fill="#cdb591"/><path d="m1219.382202 256.916382c-.432983-11.718384-.393432-23.389481-.324829-35.53598 12.957764-.318238 26.135498-1.692521 38.75647.358429 18.505615 3.007247 29.661255 16.626831 38.172241 32.361312 2.420898 4.475388 4.260132 9.265305 6.140503 13.413132-.905151-32.671844-1.822022-65.764038-2.779785-100.331909 3.182495 1.078308 5.113159 1.29982 6.515136 2.278564 8.319825 5.80832 16.379761 11.99791 24.816041 17.626175 3.964721 2.645066 5.10852 5.962448 5.382324 10.385941.469726 7.591888 1.439453 15.152862 2.193359 22.668091 13.564087 0 26.810059 0 40.50293.044952.38208 11.961136.317138 23.877319.296142 36.25296-13.409057.459412-26.861938.459412-40.924072.459412v416.586853c-2.448608-.81311-4.200073-1.130859-5.690918-1.932983-9.234009-4.967713-18.300781-10.26001-27.658447-14.977845-3.703369-1.867187-4.77832-4.109131-4.774414-8.110778.106323-106.469361.574707-212.942841-.303833-319.404999-.189575-22.991577-8.535645-44.733155-24.617798-62.290985-6.196289-6.764801-14.363037-9.926117-23.738648-9.800324-10.49475.140839-20.993042.009918-31.962402-.050018z" fill="#cdb592"/><path d="m1930.979004 584.115723c8.259643 14.014038 9.634521 28.378173 2.919434 42.784607-9.030274 19.372863-29.967164 28.215698-51.62146 22.510192-36.26648-9.555725-41.294678-51.223022-19.831666-71.846008 18.500489-17.776123 48.978638-16.592529 65.212647 2.36261 1.082031 1.263306 2.109619 2.573242 3.321045 4.188599z" fill="#010101"/><path d="m1982.86853 367.891327c11.01648-4.346954 21.669068-8.567108 32.709961-12.94104v230.853058c-41.005249-69.708191-98.594726-117.965393-175.524658-143.185242 45.102295-30.149078 92.704468-54.411102 142.814697-74.726776z" fill="#fdfdfd"/><path d="m1633.463989 364.471863c8.234131-3.201264 16.125244-6.226593 24.33313-9.373352v230.665527c-41.128418-69.906311-98.683227-118.090393-175.545288-143.157379 47.724121-31.706513 98.113525-57.113434 151.212158-78.134796z" fill="#fefefe"/><path d="m1040.60791 346.598816c-.688598 17.305633-2.468506 33.970886-7.566894 50.141846-4.726685 14.992035-11.189454 29.089782-21.219117 42.123321-26.240722-26.797088-56.664428-46.557831-92.394043-59.360107 39.528687-18.150086 78.877808-35.091706 121.219117-46.26825 0 4.762696 0 8.830445-.039063 13.36319z" fill="#fffefd"/><g fill="#fff"><path d="m431.561707 536.435974c-12.859772-15.214477-26.839631-28.699921-41.936524-38.868713 1.65155-17.552613 4.119171-34.191651 4.594635-50.88739.90625-31.824768-6.47052-61.783722-24.087463-88.677796-19.676911-30.038849-47.440338-48.431427-82.488098-55.773224-3.866364-.809936-5.714997-2.745788-7.753174-5.855011-8.707215-13.282867-17.816986-26.301788-26.5215-39.038818h211.50206v325.563599c-10.714233-14.968628-21.892151-30.585083-33.309936-46.462647z"/><path d="m716.071045 623.939697c.289062.102967.458862.321778.628723.540528-.236328.05072-.472717.101501-.845886-.018433-.13678-.170654.0979-.40625.217163-.522095z"/></g></svg>