<svg enable-background="new 0 0 658 674" viewBox="0 0 658 674" xmlns="http://www.w3.org/2000/svg"><path d="m365 675c-121.666641 0-242.83329 0-363.999951 0-.000016-224.666595-.000016-449.333206-.000033-673.999861 219.333221-.000046 438.666457-.000046 657.99974-.000093.000122 224.666473.000122 449.332992.000183 673.99971-97.833252.000244-195.666595.000244-293.999939.000244m177.910461-476.817215c-8.32434.135513-16.648559.381348-24.972961.388199-46.311005.038147-92.62207.014923-138.933105.029953-1.989991.000656-3.97995.171509-6.866242-.051636-122.395157 0-244.790298 0-368.113726 0 7.557779 11.600266 14.700171 22.366196 21.590981 33.290848 1.541769 2.444305 3.188459 3.242584 5.990223 3.22229 16.996717-.123062 33.994932-.095276 50.992163-.014267 1.918609.00914 4.151466.153412 5.698066 1.109451 8.1969 5.066925 16.55774 9.968827 24.221215 15.77359 9.96035 7.544526 18.305664 16.768158 24.183548 26.665284-11.837639 3.455261-23.841156 6.259887-35.334343 10.460754-23.176003 8.471008-36.504006 27.79892-37.14988 52.347626-.698608 26.553192 12.362457 47.409179 35.094238 56.112243 11.117325 4.256379 22.692833 5.503907 34.399399 4.398682 19.243744-1.816742 34.497025-10.444061 44.151764-27.719727 6.818787-12.201202 9.481583-25.491546 10.024201-39.297088.134689-3.426972.020111-6.86377.020111-10.701538 11.356292 0 22.044418-.83075 32.549408.201751 14.438919 1.41919 27.842682 6.352601 38.982376 16.234192 12.9794 11.513611 18.786987 26.395569 19.927704 43.26767 1.820648 26.928772-6.157502 49.89386-27.991349 67.017761-14.944473 11.720734-32.270202 17.995178-50.701324 20.882599-37.58226 5.887634-75.065552 3.857666-112.2706-3.43866-12.835906-2.517272-25.47443-6.041046-38.700275-9.2247 4.572449 22.494201 9.164929 45.086944 13.786045 67.820556 4.155235.698548 8.079888 1.399414 12.017998 2.013977 35.943298 5.609436 71.028465 14.40857 104.962654 27.690308 48.289078 18.899963 90.733795 47.369568 130.875793 79.610901 11.801331 9.478576 23.278473 19.360656 34.993409 29.132263 7.325805-7.743042 14.476806-15.30127 21.688232-22.923401-47.013885-44.368835-95.923096-85.609497-153.818314-114.924499.440751-.445557.633515-.812867.908066-.890259 2.078278-.585572 4.178498-1.092652 6.261002-1.663941 32.312836-8.864013 58.972122-25.665893 77.136886-54.582611 14.025513-22.327392 19.059449-46.921051 18.836762-72.887909-.167786-19.565277-3.634369-38.426056-12.783722-55.91571-14.183624-27.113037-37.338196-43.151825-65.685959-52.609772-19.080643-6.366089-38.718475-9.690185-58.814667-10.111664-3.433136-.071991-5.211212-1.341858-6.712463-4.344177-2.523468-5.0466-5.243774-10.061737-8.477966-14.671478-5.872605-8.37027-12.183213-16.433258-18.501816-24.879547h5.146042c67.157226 0 134.314438.004394 201.471664-.006852 6.661896-.001113 13.323792-.097778 20.914032-.018325h82.049225c-11.965088 13.032821-25.038574 25.486572-35.98468 39.591308-19.079193 24.584625-28.68457 52.619049-26.376404 84.285675 1.386627 19.023102 6.375885 37.093048 13.641327 54.482758 8.98233 21.499023 19.198456 42.480896 28.272552 63.943664 9.805298 23.1922 16.388031 47.052643 13.697693 72.781342-3.028473 28.962463-14.997528 53.264526-36.426391 72.827576-6.612244 6.036499-13.896302 11.337036-21.23465 17.267089 5.474304 7.498963 11.202087 15.345215 17.040649 23.34314 30.313904-17.252563 56.008179-38.690063 74.249878-68.24823 12.462922-20.194458 19.962189-41.998047 21.264008-65.804382 1.58847-29.048767-6.261871-55.997132-18.245483-82.023316-9.189301-19.95755-18.909821-39.689239-27.473999-59.911041-10.481537-24.749054-12.990052-50.539978-6.242249-76.768188 7.737915-30.076661 24.78125-54.256165 48.398529-74.007691 1.341553-1.121979 3.565338-1.63565 5.389618-1.661911 12.659729-.182312 25.322388-.160522 38.928833-.109543 3.66626.012314 7.334961.115586 10.998413.019745 10.625977-.277969 19.850037 3.30539 26.540283 11.425202 4.6969 5.700561 8.881714 12.125396 11.888611 18.855285 6.939514 15.531952 11.903565 31.605988 11.802551 49.027008-.255127 43.995697-.084411 87.993805-.084472 131.990967-.000061 59.996124.029663 119.992279-.069275 179.988251-.006348 3.861206.707641 6.269531 4.585205 8.1922 8.932251 4.428955 17.489197 9.610412 26.252869 14.386779 1.93341 1.053711 4.092346 1.693726 6.783386 2.781311.162659-2.403686.345154-3.842956.345276-5.282165.012878-157.656464.002502-315.312927.076233-472.96936.001587-3.389313-1.032837-5.567292-3.88385-7.392197-9.393189-6.012543-18.63147-12.266693-28.001648-18.315888-1.532044-.989074-3.430481-1.410751-6.679627-2.695907.73938 34.591629 1.449646 67.82167 2.139404 100.094559-2.472473-5.015213-5.176513-11.228287-8.50177-17.088929-6.366821-11.22145-14.929077-20.260833-26.81073-25.93074-9.125915-4.354874-18.934021-2.625809-29.324585-3.867508m-274.013549-104.835266c3.951538-12.959793 7.903045-25.919594 11.86148-38.902123-8.893829-3.904987-16.751342-7.354957-24.762649-10.872448-2.939652 7.094281-5.516342 13.881966-8.523606 20.473187-14.425857 31.618019-38.95166 47.724586-73.843627 48.07756-26.604493.269135-49.052681-8.566604-65.175217-30.255195-6.603691-8.883522-11.744133-18.863083-17.431168-28.414929-1.842514-3.09465-3.306015-6.414962-5.124855-9.989711-7.986046 3.633094-15.621132 7.106529-24.3675 11.085521 5.227348 14.445423 9.714645 28.858753 15.61142 42.670307 8.892356 20.827866 21.521484 38.975167 41.391868 51.110909 17.328835 10.583511 36.390968 14.003921 56.344521 14.020111 24.096573.019531 46.075485-6.004837 64.289123-22.578705 13.846573-12.599945 22.686722-28.497513 29.73021-46.424484m-66.046952-29.160217c3.8107-8.129704 4.520584-16.693539 2.60196-25.298157-3.936722-17.65527-19.457871-27.933643-38.185471-25.697527-18.282471 2.182969-30.812241 16.622156-30.506363 35.155283.264893 16.049911 9.358627 27.744171 24.549591 31.569954 17.568497 4.42456 33.630402-1.467644 41.540283-15.729553z" fill="#fffffe"/><path d="m372.977356 234.844147c-6.661865.052322-13.323761.148987-19.985657.1501-67.157226.011246-134.314438.006852-201.471664.006852-1.759415 0-3.518814 0-5.146042 0 6.318603 8.446289 12.629211 16.509277 18.501816 24.879547 3.234192 4.609741 5.954498 9.624878 8.477966 14.671478 1.501251 3.002319 3.279327 4.272186 6.712463 4.344177 20.096192.421479 39.734024 3.745575 58.814667 10.111664 28.347763 9.457947 51.502335 25.496735 65.685959 52.609772 9.149353 17.489654 12.615936 36.350433 12.783722 55.91571.222687 25.966858-4.811249 50.560517-18.836762 72.887909-18.164764 28.916718-44.82405 45.718598-77.136886 54.582611-2.082504.571289-4.182724 1.078369-6.261002 1.663941-.274551.077392-.467315.444702-.908066.890259 57.895218 29.315002 106.804429 70.555664 153.818314 114.924499-7.211426 7.622131-14.362427 15.180359-21.688232 22.923401-11.714936-9.771607-23.192078-19.653687-34.993409-29.132263-40.141998-32.241333-82.586715-60.710938-130.875793-79.610901-33.934189-13.281738-69.019356-22.080872-104.962654-27.690308-3.93811-.614563-7.862763-1.315429-12.017998-2.013977-4.621116-22.733612-9.213596-45.326355-13.786045-67.820556 13.225845 3.183654 25.864369 6.707428 38.700275 9.2247 37.205048 7.296326 74.68834 9.326294 112.2706 3.43866 18.431122-2.887421 35.756851-9.161865 50.701324-20.882599 21.833847-17.123901 29.811997-40.088989 27.991349-67.017761-1.140717-16.872101-6.948304-31.754059-19.927704-43.26767-11.139694-9.881591-24.543457-14.815002-38.982376-16.234192-10.50499-1.032501-21.193116-.201751-32.549408-.201751 0 3.837768.114578 7.274566-.020111 10.701538-.542618 13.805542-3.205414 27.095886-10.024201 39.297088-9.654739 17.275666-24.90802 25.902985-44.151764 27.719727-11.706566 1.105225-23.282074-.142303-34.399399-4.398682-22.731781-8.703064-35.792846-29.559051-35.094238-56.112243.645874-24.548706 13.973877-43.876618 37.14988-52.347626 11.493187-4.200867 23.496704-7.005493 35.334343-10.460754-5.877884-9.897126-14.223198-19.120758-24.183548-26.665284-7.663475-5.804763-16.024315-10.706665-24.221215-15.77359-1.5466-.956039-3.779457-1.100311-5.698066-1.109451-16.997231-.081009-33.995446-.108795-50.992163.014267-2.801764.020294-4.448454-.777985-5.990223-3.22229-6.89081-10.924652-14.033202-21.690582-21.590981-33.290848 123.323428 0 245.718569 0 368.550707.636597.425415 12.310486.413819 23.98436.402222 35.658249z" fill="#010101"/><path d="m373.441528 234.910034c-.452575-11.739776-.440979-23.41365-.418213-35.566788 2.00113-.5708 3.991089-.741653 5.98108-.742309 46.311035-.01503 92.6221.008194 138.933105-.029953 8.324402-.006851 16.648621-.252686 25.471924.114563.499267 12.3965.499695 24.290222.500061 36.183945-12.661743.043701-25.324402.021911-37.984131.204223-1.82428.026261-4.048065.539932-5.389618 1.661911-23.617279 19.751526-40.660614 43.93103-48.398529 74.007691-6.747803 26.22821-4.239288 52.019134 6.242249 76.768188 8.564178 20.221802 18.284698 39.953491 27.473999 59.911041 11.983612 26.026184 19.833953 52.974549 18.245483 82.023316-1.301819 23.806335-8.801086 45.609924-21.264008 65.804382-18.241699 29.558167-43.935974 50.995667-74.249878 68.24823-5.838562-7.997925-11.566345-15.844177-17.040649-23.34314 7.338348-5.930053 14.622406-11.23059 21.23465-17.267089 21.428863-19.56305 33.397918-43.865113 36.426391-72.827576 2.690338-25.728699-3.892395-49.589142-13.697693-72.781342-9.074096-21.462768-19.290222-42.444641-28.272552-63.943664-7.265442-17.38971-12.2547-35.459656-13.641327-54.482758-2.308166-31.666626 7.297211-59.70105 26.376404-84.285675 10.946106-14.104736 24.019592-26.558487 35.98468-39.591308-26.635315 0-54.342285 0-82.513428-.065888z" fill="#c47034"/><path d="m544.381836 234.91684c-.472717-11.941071-.473145-23.834793-.51947-36.173798 9.438659.681442 19.246765-1.047623 28.37268 3.307251 11.881653 5.669907 20.443909 14.70929 26.81073 25.93074 3.325257 5.860642 6.029297 12.073716 8.50177 17.088929-.689758-32.272889-1.400024-65.50293-2.139404-100.094559 3.249146 1.285156 5.147583 1.706833 6.679627 2.695907 9.370178 6.049195 18.608459 12.303345 28.001648 18.315888 2.851013 1.824905 3.885437 4.002884 3.88385 7.392197-.073731 157.656433-.063355 315.312896-.076233 472.96936-.000122 1.439209-.182617 2.878479-.345276 5.282165-2.69104-1.087585-4.849976-1.7276-6.783386-2.781311-8.763672-4.776367-17.320618-9.957824-26.252869-14.386779-3.877564-1.922669-4.591553-4.330994-4.585205-8.1922.098938-59.995972.069214-119.992127.069275-179.988251.000061-43.997162-.170655-87.99527.084472-131.990967.101014-17.42102-4.863037-33.495056-11.802551-49.027008-3.006897-6.729889-7.191711-13.154724-11.888611-18.855285-6.690246-8.119812-15.914306-11.703171-26.540283-11.425202-3.663452.095841-7.332153-.007431-11.470764-.067077z" fill="#ceb692"/><path d="m268.750549 93.707115c-6.897125 17.567375-15.737274 33.464943-29.583847 46.064888-18.213638 16.573868-40.19255 22.598236-64.289123 22.578705-19.953553-.01619-39.015686-3.4366-56.344521-14.020111-19.870384-12.135742-32.499512-30.283043-41.391868-51.110909-5.896775-13.811554-10.384072-28.224884-15.61142-42.670307 8.746368-3.978992 16.381454-7.452427 24.3675-11.085521 1.81884 3.574749 3.282341 6.895061 5.124855 9.989711 5.687035 9.551846 10.827477 19.531407 17.431168 28.414929 16.122536 21.688591 38.570724 30.52433 65.175217 30.255195 34.891967-.352974 59.41777-16.459541 73.843627-48.07756 3.007264-6.591221 5.583954-13.378906 8.523606-20.473187 8.011307 3.517491 15.86882 6.967461 24.762649 10.872448-3.958435 12.982529-7.909942 25.94233-12.007843 39.261719z" fill="#020202"/><path d="m202.649811 64.506104c-7.709732 13.943107-23.771637 19.835311-41.340134 15.410751-15.190964-3.825783-24.284698-15.520043-24.549591-31.569954-.305878-18.533127 12.223892-32.972314 30.506363-35.155283 18.7276-2.236116 34.248749 8.042257 38.185471 25.697527 1.918624 8.604618 1.20874 17.168453-2.802109 25.616959z" fill="#010101"/></svg>