<svg version="1.1" id="Layer_1" xmlns="http://www.w3.org/2000/svg" xmlns:xlink="http://www.w3.org/1999/xlink" x="0px" y="0px"
	 width="100%" viewBox="0 0 754 434" enable-background="new 0 0 754 434" xml:space="preserve">
<path fill="#FEFEFE" opacity="1.000000" stroke="none" 
	d="
M471.000000,435.000000 
	C314.000000,435.000000 157.500000,435.000000 1.000000,435.000000 
	C1.000000,290.333344 1.000000,145.666672 1.000000,1.000000 
	C252.333328,1.000000 503.666656,1.000000 755.000000,1.000000 
	C755.000000,145.666672 755.000000,290.333344 755.000000,435.000000 
	C660.500000,435.000000 566.000000,435.000000 471.000000,435.000000 
M420.831146,362.596191 
	C420.831146,379.005402 420.831146,395.414612 420.831146,411.778687 
	C434.275085,411.778687 447.045532,411.778687 460.168854,411.778687 
	C460.168854,409.769592 460.168884,407.977783 460.168884,406.185974 
	C460.169006,364.688416 459.945404,323.188721 460.342712,281.694946 
	C460.430786,272.496185 461.768921,263.058533 464.214386,254.195190 
	C467.440735,242.501526 476.338379,236.853043 488.123566,236.886963 
	C499.903809,236.920868 508.949982,242.807541 512.549500,253.824646 
	C514.487671,259.756714 516.042786,266.126129 516.094727,272.312286 
	C516.470093,316.972321 516.416748,361.635925 516.498657,406.298401 
	C516.501953,408.095032 516.499084,409.891663 516.499084,411.708252 
	C530.048767,411.708252 543.115112,411.708252 556.106750,411.708252 
	C556.282043,411.108124 556.453613,410.796509 556.452637,410.485413 
	C556.293518,360.827209 556.828613,311.152740 555.684387,261.516998 
	C555.003967,232.001266 536.642212,208.443680 506.498932,203.352158 
	C484.320984,199.606094 464.388672,203.641464 448.502747,220.831146 
	C445.965057,223.577118 443.719482,226.593048 441.021332,229.869797 
	C429.122101,208.960953 410.244141,202.098755 388.203552,202.119247 
	C366.228485,202.139664 347.811462,210.525009 334.169037,227.865387 
	C333.429901,227.435028 333.236572,227.391312 333.199738,227.290451 
	C332.800293,226.196152 332.401703,225.100449 332.047302,223.990952 
	C324.721863,201.056274 322.764008,177.694275 326.978882,153.961838 
	C334.753967,110.183479 359.320068,79.009270 400.154907,62.244305 
	C438.402588,46.541523 477.725403,46.635841 516.741089,60.867931 
	C535.077759,67.556778 550.900879,78.252151 563.733765,92.867035 
	C580.294250,111.727219 590.022156,133.990250 593.588867,158.785172 
	C597.075256,183.021347 596.053650,207.029663 586.963013,230.063904 
	C583.078064,239.907837 577.949158,249.260818 573.351990,258.907227 
	C584.380493,264.263367 596.015808,269.914185 607.837341,275.655487 
	C608.318237,275.006897 608.632141,274.628387 608.897949,274.218781 
	C636.156982,232.215408 642.319824,186.488571 631.994873,138.236450 
	C624.979858,105.452774 609.261353,77.251335 584.036743,54.807472 
	C558.379150,31.978333 527.979858,19.467560 494.249329,14.625957 
	C451.382843,8.472988 409.860382,12.233706 370.722351,32.210484 
	C342.847321,46.438423 320.921112,67.070564 305.595459,94.407768 
	C287.382568,126.895157 281.705139,161.847931 286.088959,198.603043 
	C288.864594,221.874435 295.253021,243.962433 308.933258,263.338959 
	C312.630127,268.575165 315.115143,273.580231 314.122559,280.215942 
	C313.539612,284.112915 314.047302,288.202911 314.304413,292.190582 
	C315.529022,311.184418 320.476562,328.831299 332.673859,343.995850 
	C349.686981,365.147766 382.245758,373.661499 406.833282,362.779480 
	C411.799438,360.581543 416.075378,356.824188 420.831146,353.678864 
	C420.831146,356.361877 420.831146,358.998779 420.831146,362.596191 
M243.136398,378.566772 
	C245.634399,373.863708 248.449814,369.299438 250.576630,364.434113 
	C260.938354,340.730499 263.113892,315.888550 259.723694,290.527527 
	C256.421448,265.824554 245.741302,244.686417 226.325241,228.777908 
	C200.543793,207.653870 169.722382,201.141754 137.469360,201.546310 
	C118.909851,201.779099 100.363861,204.732208 81.858505,206.865982 
	C74.024483,207.769287 66.310501,209.713699 58.009308,211.285812 
	C58.359077,206.571060 58.690639,202.459793 58.965145,198.344696 
	C61.106956,166.236801 67.662727,135.354462 84.769287,107.533081 
	C96.056244,89.176453 110.747742,74.095230 129.996490,64.127464 
	C157.786255,49.736816 187.395813,47.925556 217.561890,53.675053 
	C228.718170,55.801380 239.484650,59.972828 250.911743,63.354435 
	C256.903046,53.582027 263.334839,43.091179 269.882446,32.411373 
	C268.428925,31.606453 267.152832,30.858128 265.840759,30.179239 
	C228.060638,10.630946 188.303085,7.483469 147.351761,16.681927 
	C105.613678,26.057104 73.644379,49.481384 50.924400,85.672173 
	C32.726562,114.659599 24.138319,146.841492 20.231501,180.354462 
	C16.435219,212.919250 17.239929,245.550735 22.064409,277.996887 
	C25.954191,304.156921 32.733707,329.481476 45.598568,352.852631 
	C59.293842,377.732361 78.695244,396.454071 104.952400,407.752777 
	C124.811279,416.298218 145.593979,418.579773 167.009827,417.301544 
	C197.795563,415.464081 224.040771,404.861633 243.136398,378.566772 
M735.845947,40.500061 
	C735.845947,33.054546 735.845947,25.609035 735.845947,18.160645 
	C722.152893,18.160645 709.098022,18.160645 696.047424,18.160645 
	C696.047424,149.566620 696.047424,280.586395 696.047424,411.638947 
	C709.425659,411.638947 722.474854,411.638947 735.845886,411.638947 
	C735.845886,288.018585 735.845886,164.759323 735.845947,40.500061 
z"/>
<path fill="#010101" opacity="1.000000" stroke="none" 
	d="
M420.831146,362.115906 
	C420.831146,358.998779 420.831146,356.361877 420.831146,353.678864 
	C416.075378,356.824188 411.799438,360.581543 406.833282,362.779480 
	C382.245758,373.661499 349.686981,365.147766 332.673859,343.995850 
	C320.476562,328.831299 315.529022,311.184418 314.304413,292.190582 
	C314.047302,288.202911 313.539612,284.112915 314.122559,280.215942 
	C315.115143,273.580231 312.630127,268.575165 308.933258,263.338959 
	C295.253021,243.962433 288.864594,221.874435 286.088959,198.603043 
	C281.705139,161.847931 287.382568,126.895157 305.595459,94.407768 
	C320.921112,67.070564 342.847321,46.438423 370.722351,32.210484 
	C409.860382,12.233706 451.382843,8.472988 494.249329,14.625957 
	C527.979858,19.467560 558.379150,31.978333 584.036743,54.807472 
	C609.261353,77.251335 624.979858,105.452774 631.994873,138.236450 
	C642.319824,186.488571 636.156982,232.215408 608.897949,274.218781 
	C608.632141,274.628387 608.318237,275.006897 607.837341,275.655487 
	C596.015808,269.914185 584.380493,264.263367 573.351990,258.907227 
	C577.949158,249.260818 583.078064,239.907837 586.963013,230.063904 
	C596.053650,207.029663 597.075256,183.021347 593.588867,158.785172 
	C590.022156,133.990250 580.294250,111.727219 563.733765,92.867035 
	C550.900879,78.252151 535.077759,67.556778 516.741089,60.867931 
	C477.725403,46.635841 438.402588,46.541523 400.154907,62.244305 
	C359.320068,79.009270 334.753967,110.183479 326.978882,153.961838 
	C322.764008,177.694275 324.721863,201.056274 332.047302,223.990952 
	C332.401703,225.100449 332.800293,226.196152 333.199738,227.290451 
	C333.236572,227.391312 333.429901,227.435028 334.169037,227.865387 
	C347.811462,210.525009 366.228485,202.139664 388.203552,202.119247 
	C410.244141,202.098755 429.122101,208.960953 441.021332,229.869797 
	C443.719482,226.593048 445.965057,223.577118 448.502747,220.831146 
	C464.388672,203.641464 484.320984,199.606094 506.498932,203.352158 
	C536.642212,208.443680 555.003967,232.001266 555.684387,261.516998 
	C556.828613,311.152740 556.293518,360.827209 556.452637,410.485413 
	C556.453613,410.796509 556.282043,411.108124 556.106750,411.708252 
	C543.115112,411.708252 530.048767,411.708252 516.499084,411.708252 
	C516.499084,409.891663 516.501953,408.095032 516.498657,406.298401 
	C516.416748,361.635925 516.470093,316.972321 516.094727,272.312286 
	C516.042786,266.126129 514.487671,259.756714 512.549500,253.824646 
	C508.949982,242.807541 499.903809,236.920868 488.123566,236.886963 
	C476.338379,236.853043 467.440735,242.501526 464.214386,254.195190 
	C461.768921,263.058533 460.430786,272.496185 460.342712,281.694946 
	C459.945404,323.188721 460.169006,364.688416 460.168884,406.185974 
	C460.168884,407.977783 460.168854,409.769592 460.168854,411.778687 
	C447.045532,411.778687 434.275085,411.778687 420.831146,411.778687 
	C420.831146,395.414612 420.831146,379.005402 420.831146,362.115906 
M366.436584,243.875565 
	C362.957306,248.871490 358.358978,253.430145 356.204498,258.943756 
	C349.193970,276.884705 350.294830,295.234283 356.778564,313.043213 
	C361.647217,326.415985 372.620148,332.354248 386.351135,332.801178 
	C399.044464,333.214386 409.408447,328.346008 415.790802,316.841827 
	C423.298828,303.308624 423.919922,288.614319 422.473450,273.673370 
	C421.548553,264.120087 419.100281,255.070404 412.903503,247.399734 
	C402.872559,234.982956 379.075348,233.234146 366.436584,243.875565 
z"/>
<path fill="#C47034" opacity="1.000000" stroke="none" 
	d="
M242.955109,378.878632 
	C224.040771,404.861633 197.795563,415.464081 167.009827,417.301544 
	C145.593979,418.579773 124.811279,416.298218 104.952400,407.752777 
	C78.695244,396.454071 59.293842,377.732361 45.598568,352.852631 
	C32.733707,329.481476 25.954191,304.156921 22.064409,277.996887 
	C17.239929,245.550735 16.435219,212.919250 20.231501,180.354462 
	C24.138319,146.841492 32.726562,114.659599 50.924400,85.672173 
	C73.644379,49.481384 105.613678,26.057104 147.351761,16.681927 
	C188.303085,7.483469 228.060638,10.630946 265.840759,30.179239 
	C267.152832,30.858128 268.428925,31.606453 269.882446,32.411373 
	C263.334839,43.091179 256.903046,53.582027 250.911743,63.354435 
	C239.484650,59.972828 228.718170,55.801380 217.561890,53.675053 
	C187.395813,47.925556 157.786255,49.736816 129.996490,64.127464 
	C110.747742,74.095230 96.056244,89.176453 84.769287,107.533081 
	C67.662727,135.354462 61.106956,166.236801 58.965145,198.344696 
	C58.690639,202.459793 58.359077,206.571060 58.009308,211.285812 
	C66.310501,209.713699 74.024483,207.769287 81.858505,206.865982 
	C100.363861,204.732208 118.909851,201.779099 137.469360,201.546310 
	C169.722382,201.141754 200.543793,207.653870 226.325241,228.777908 
	C245.741302,244.686417 256.421448,265.824554 259.723694,290.527527 
	C263.113892,315.888550 260.938354,340.730499 250.576630,364.434113 
	C248.449814,369.299438 245.634399,373.863708 242.955109,378.878632 
M169.071182,377.804504 
	C170.706497,377.504028 172.351807,377.249481 173.975586,376.895966 
	C190.768082,373.240479 203.998703,364.711975 212.116547,349.114624 
	C217.862518,338.074463 220.107742,326.242859 220.082321,313.932922 
	C220.041199,294.024017 215.759384,275.588287 200.908997,261.039185 
	C186.622375,247.042465 168.890366,241.268143 149.442871,239.834503 
	C128.580505,238.296555 107.856148,239.999054 87.259666,243.227982 
	C77.809410,244.709503 68.467171,246.880051 58.955227,248.762024 
	C59.352703,253.370010 59.667614,257.168243 60.009804,260.964050 
	C62.313278,286.515839 67.440033,311.383667 79.625023,334.212494 
	C88.100616,350.091736 99.860252,362.977356 116.504852,370.897095 
	C133.028915,378.759369 150.355164,380.073456 169.071182,377.804504 
z"/>
<path fill="#C57034" opacity="1.000000" stroke="none" 
	d="
M735.845947,41.000057 
	C735.845886,164.759323 735.845886,288.018585 735.845886,411.638947 
	C722.474854,411.638947 709.425659,411.638947 696.047424,411.638947 
	C696.047424,280.586395 696.047424,149.566620 696.047424,18.160645 
	C709.098022,18.160645 722.152893,18.160645 735.845947,18.160645 
	C735.845947,25.609035 735.845947,33.054546 735.845947,41.000057 
z"/>
<path fill="#FDFDFD" opacity="1.000000" stroke="none" 
	d="
M366.735809,243.673447 
	C379.075348,233.234146 402.872559,234.982956 412.903503,247.399734 
	C419.100281,255.070404 421.548553,264.120087 422.473450,273.673370 
	C423.919922,288.614319 423.298828,303.308624 415.790802,316.841827 
	C409.408447,328.346008 399.044464,333.214386 386.351135,332.801178 
	C372.620148,332.354248 361.647217,326.415985 356.778564,313.043213 
	C350.294830,295.234283 349.193970,276.884705 356.204498,258.943756 
	C358.358978,253.430145 362.957306,248.871490 366.735809,243.673447 
z"/>
<path fill="#FFFEFE" opacity="1.000000" stroke="none" 
	d="
M168.633179,377.867676 
	C150.355164,380.073456 133.028915,378.759369 116.504852,370.897095 
	C99.860252,362.977356 88.100616,350.091736 79.625023,334.212494 
	C67.440033,311.383667 62.313278,286.515839 60.009804,260.964050 
	C59.667614,257.168243 59.352703,253.370010 58.955227,248.762024 
	C68.467171,246.880051 77.809410,244.709503 87.259666,243.227982 
	C107.856148,239.999054 128.580505,238.296555 149.442871,239.834503 
	C168.890366,241.268143 186.622375,247.042465 200.908997,261.039185 
	C215.759384,275.588287 220.041199,294.024017 220.082321,313.932922 
	C220.107742,326.242859 217.862518,338.074463 212.116547,349.114624 
	C203.998703,364.711975 190.768082,373.240479 173.975586,376.895966 
	C172.351807,377.249481 170.706497,377.504028 168.633179,377.867676 
z"/>
</svg>