<svg version="1.1" id="Layer_1" xmlns="http://www.w3.org/2000/svg" xmlns:xlink="http://www.w3.org/1999/xlink" x="0px" y="0px"
	 width="100%" viewBox="0 0 820 550" enable-background="new 0 0 820 550" xml:space="preserve">
<path fill="#FFFFFE" opacity="1.000000" stroke="none" 
	d="
M515.000000,551.000000 
	C343.333344,551.000000 172.166672,551.000000 1.000000,551.000000 
	C1.000000,367.666656 1.000000,184.333328 1.000000,1.000000 
	C274.333344,1.000000 547.666687,1.000000 821.000000,1.000000 
	C821.000000,184.333328 821.000000,367.666656 821.000000,551.000000 
	C719.166687,551.000000 617.333313,551.000000 515.000000,551.000000 
M576.464539,393.477509 
	C574.051147,393.097290 571.637695,392.717102 569.224304,392.336884 
	C569.125549,391.771942 569.026794,391.206970 568.928040,390.642029 
	C570.888489,389.000336 572.692627,387.110657 574.836304,385.759521 
	C584.537598,379.644623 592.987122,372.181641 599.490723,362.720886 
	C616.968384,337.296204 622.386292,308.827209 617.868591,278.895935 
	C610.896057,232.700775 585.021118,201.095276 540.551514,185.959335 
	C509.464661,175.378418 480.453094,179.197952 455.223022,201.772507 
	C452.415161,204.284790 449.678833,206.876953 446.711151,209.614883 
	C436.360718,197.642410 423.804474,189.187866 409.213654,184.350250 
	C386.549011,176.835754 364.145844,180.085953 343.092194,189.849487 
	C298.259399,210.640442 275.424255,246.408112 274.956909,295.812012 
	C274.644165,328.875885 284.449005,358.227783 310.317230,380.487030 
	C325.919891,393.912903 343.085205,403.654480 364.752136,403.088562 
	C384.013458,402.585480 396.604095,389.308350 394.953308,370.209869 
	C393.531982,353.766235 376.191498,341.113800 360.159546,344.778076 
	C348.976379,347.334076 341.115662,353.819366 336.922943,364.689087 
	C328.482788,359.390076 321.377502,353.287537 316.002472,345.218262 
	C307.295532,332.147064 304.140442,317.462219 303.525848,302.142151 
	C302.073853,265.946228 315.732208,237.427689 347.792450,219.359970 
	C363.823181,210.325775 381.186249,205.997070 399.656952,211.780914 
	C419.044281,217.851807 433.322571,231.230118 432.766968,255.644135 
	C431.792786,298.452637 432.488617,341.299286 432.511566,384.129974 
	C432.512878,386.622925 432.632141,389.129028 432.905121,391.606049 
	C433.600433,397.915558 437.549255,401.932922 443.755157,402.772156 
	C452.952179,404.015900 461.427246,400.116394 461.321014,387.529633 
	C460.939789,342.368958 461.095917,297.202850 461.284424,252.039749 
	C461.304077,247.326904 462.071167,242.275269 463.890839,237.972610 
	C470.779480,221.684006 491.867126,208.619202 509.706177,209.287247 
	C531.845886,210.116379 550.734253,218.681549 566.282654,234.348282 
	C583.696716,251.894806 590.843384,273.559052 590.452271,297.879547 
	C589.986450,326.841553 579.257751,350.205200 553.197510,365.164642 
	C546.580811,368.962830 540.310730,373.425995 534.171936,377.975647 
	C529.485168,381.449127 527.793274,386.350555 529.545898,392.158447 
	C531.500977,398.637146 535.947571,402.070374 543.674561,402.738098 
	C555.568726,403.766022 566.780884,400.575592 577.874268,396.877350 
	C581.325012,395.726898 584.676453,394.278351 588.073364,392.966278 
	C587.950073,392.635040 587.826782,392.303833 587.703491,391.972595 
	C584.268066,392.431671 580.832642,392.890747 576.464539,393.477509 
M85.303299,399.350067 
	C117.771706,413.685791 150.330322,414.491516 182.655319,399.236969 
	C193.588425,394.077454 203.314529,386.895691 208.501617,375.347748 
	C213.808929,363.532135 211.680847,352.613342 203.382675,342.881866 
	C196.219635,334.481598 183.398010,331.359955 172.382614,335.102570 
	C161.640091,338.752472 153.959518,349.041290 152.905640,360.515106 
	C152.191620,368.289001 154.287033,375.173615 158.726868,381.573944 
	C157.098434,381.919708 155.959244,382.161041 154.820282,382.403564 
	C134.392807,386.753052 114.394318,386.401306 95.736572,375.805389 
	C64.105370,357.841644 49.008877,329.834503 48.609520,294.091583 
	C48.362270,271.962189 56.203548,252.147430 70.558563,235.120041 
	C85.878250,216.948380 105.301811,206.782471 129.106873,204.984985 
	C161.665344,202.526566 190.798401,212.127609 217.755234,229.697647 
	C219.481506,230.822800 221.516342,231.474594 223.407623,232.346588 
	C223.747147,231.834122 224.086655,231.321655 224.426163,230.809189 
	C218.106781,224.261398 211.971802,217.522476 205.426773,211.208588 
	C194.342987,200.516205 181.774521,191.886307 167.166870,186.786789 
	C135.620163,175.773865 104.998268,178.732239 76.587730,195.930786 
	C35.229797,220.967178 16.396437,258.973816 20.590052,306.534760 
	C24.296398,348.569489 47.161701,379.346375 85.303299,399.350067 
M462.818420,147.705902 
	C464.213074,147.165863 465.621429,146.658493 467.000366,146.080856 
	C488.558441,137.050079 493.241882,110.653290 475.749390,96.798958 
	C465.481537,88.666672 448.759399,92.395180 443.969940,104.563873 
	C447.102264,104.365952 449.942627,103.991058 452.773834,104.050514 
	C457.809692,104.156258 461.564850,107.291412 462.471375,111.814209 
	C463.317627,116.036644 460.892426,121.141457 457.056671,123.211441 
	C450.588867,126.701790 443.554016,124.783852 438.160156,118.059494 
	C430.050201,107.949066 430.283264,90.865425 438.506897,78.769073 
	C447.620148,65.364151 461.095245,58.091518 475.573669,52.348614 
	C496.946014,43.871204 518.375427,45.255230 540.040588,51.816566 
	C551.430603,55.266037 560.117981,61.674160 566.694885,70.438698 
	C559.462097,77.188835 551.872131,83.168274 545.638367,90.328438 
	C533.987305,103.711082 531.662109,120.702980 539.055969,133.852417 
	C545.052734,144.517365 555.049561,149.343826 566.771729,149.679504 
	C579.353088,150.039780 588.775574,143.392563 594.928406,132.860458 
	C605.066528,115.506851 605.411011,97.157463 598.398804,78.621178 
	C597.246704,75.575523 597.658447,74.049728 600.298828,72.697762 
	C605.747742,69.907761 611.135498,66.992073 616.647949,64.334297 
	C621.308228,62.087299 626.108826,60.131031 630.847290,58.046078 
	C630.783569,57.595364 630.719849,57.144653 630.656189,56.693939 
	C629.500732,56.408318 628.360229,55.985271 627.187561,55.858444 
	C616.143799,54.663963 605.266296,55.683510 594.654541,58.872433 
	C591.584473,59.795033 590.007568,59.035427 587.966309,56.641357 
	C582.818848,50.604088 577.617859,44.489399 571.673401,39.278290 
	C555.292175,24.917892 534.907959,20.036150 514.125549,18.186619 
	C484.581116,15.557311 457.772736,23.635569 434.199188,42.278240 
	C410.980896,60.639973 401.670135,87.627762 409.581665,116.072350 
	C416.589111,141.266403 437.626801,154.040817 462.818420,147.705902 
M476.145386,491.171326 
	C475.829163,489.132111 475.512970,487.092926 475.307861,485.770142 
	C480.689392,487.430511 485.926086,489.751007 491.389679,490.584473 
	C502.595337,492.293884 513.600708,485.761047 518.584045,475.311523 
	C523.312256,465.396912 521.019348,453.519562 512.834473,445.529297 
	C500.928650,433.906525 479.977539,435.072937 466.958160,448.083405 
	C449.169006,465.860382 448.036865,500.228729 464.196503,519.531860 
	C479.412231,537.707336 508.757019,542.442139 530.966187,532.525330 
	C542.989624,527.156738 553.014221,519.082336 561.825195,509.240173 
	C589.745850,531.530151 620.368591,537.596313 654.153748,526.170959 
	C670.266357,520.722046 684.644226,512.265198 697.452759,501.138550 
	C698.619873,500.124695 699.077393,498.293945 699.864441,496.842560 
	C695.936646,497.400787 693.290955,498.724304 690.591553,499.927124 
	C670.118713,509.049316 648.585327,511.826355 626.354553,511.042816 
	C602.658997,510.207611 583.708557,500.467651 569.826538,481.350067 
	C562.919739,471.838409 556.257568,471.696930 549.923401,481.722565 
	C543.492249,491.901825 535.052795,500.008911 524.673584,506.057129 
	C504.729980,517.678711 481.182617,506.537079 476.145386,491.171326 
M796.723694,378.769897 
	C797.705566,379.912964 798.687378,381.056000 799.669250,382.199066 
	C798.278259,371.503204 794.053345,362.265594 788.753967,353.442596 
	C770.388306,322.865723 737.970459,307.734344 703.998535,313.938019 
	C683.311707,317.715637 670.128418,332.080963 669.672729,351.341339 
	C669.281555,367.874481 681.737976,381.413055 697.888550,382.008362 
	C714.233398,382.610840 727.434021,370.665344 728.129211,354.171143 
	C728.324707,349.534332 727.219177,344.842651 726.675293,339.854462 
	C728.377197,339.654144 730.338806,339.188934 732.289307,339.231598 
	C745.323242,339.516479 757.380981,343.427490 767.384705,351.582581 
	C777.520203,359.845032 786.677734,369.307098 796.723694,378.769897 
M703.169556,281.155487 
	C710.643616,280.339020 716.894165,276.924011 721.522949,271.204071 
	C729.220032,261.692627 729.812073,250.767166 726.188171,239.326813 
	C736.678711,237.993668 746.219788,239.710144 755.320435,243.924194 
	C771.696655,251.507172 783.992065,264.063965 795.721985,277.293030 
	C796.928528,278.653778 798.211609,279.946655 799.459167,281.271027 
	C800.050171,280.894775 800.641174,280.518555 801.232239,280.142303 
	C797.790161,272.350037 794.744751,264.352509 790.837158,256.801208 
	C774.225525,224.700668 742.154114,208.184677 706.432556,213.009399 
	C687.622131,215.550003 674.155273,226.936646 670.500732,243.390732 
	C665.713196,264.946777 681.530029,283.767731 703.169556,281.155487 
z"/>
<path fill="#020202" opacity="1.000000" stroke="none" 
	d="
M576.930908,393.413666 
	C580.832642,392.890747 584.268066,392.431671 587.703491,391.972595 
	C587.826782,392.303833 587.950073,392.635040 588.073364,392.966278 
	C584.676453,394.278351 581.325012,395.726898 577.874268,396.877350 
	C566.780884,400.575592 555.568726,403.766022 543.674561,402.738098 
	C535.947571,402.070374 531.500977,398.637146 529.545898,392.158447 
	C527.793274,386.350555 529.485168,381.449127 534.171936,377.975647 
	C540.310730,373.425995 546.580811,368.962830 553.197510,365.164642 
	C579.257751,350.205200 589.986450,326.841553 590.452271,297.879547 
	C590.843384,273.559052 583.696716,251.894806 566.282654,234.348282 
	C550.734253,218.681549 531.845886,210.116379 509.706177,209.287247 
	C491.867126,208.619202 470.779480,221.684006 463.890839,237.972610 
	C462.071167,242.275269 461.304077,247.326904 461.284424,252.039749 
	C461.095917,297.202850 460.939789,342.368958 461.321014,387.529633 
	C461.427246,400.116394 452.952179,404.015900 443.755157,402.772156 
	C437.549255,401.932922 433.600433,397.915558 432.905121,391.606049 
	C432.632141,389.129028 432.512878,386.622925 432.511566,384.129974 
	C432.488617,341.299286 431.792786,298.452637 432.766968,255.644135 
	C433.322571,231.230118 419.044281,217.851807 399.656952,211.780914 
	C381.186249,205.997070 363.823181,210.325775 347.792450,219.359970 
	C315.732208,237.427689 302.073853,265.946228 303.525848,302.142151 
	C304.140442,317.462219 307.295532,332.147064 316.002472,345.218262 
	C321.377502,353.287537 328.482788,359.390076 336.922943,364.689087 
	C341.115662,353.819366 348.976379,347.334076 360.159546,344.778076 
	C376.191498,341.113800 393.531982,353.766235 394.953308,370.209869 
	C396.604095,389.308350 384.013458,402.585480 364.752136,403.088562 
	C343.085205,403.654480 325.919891,393.912903 310.317230,380.487030 
	C284.449005,358.227783 274.644165,328.875885 274.956909,295.812012 
	C275.424255,246.408112 298.259399,210.640442 343.092194,189.849487 
	C364.145844,180.085953 386.549011,176.835754 409.213654,184.350250 
	C423.804474,189.187866 436.360718,197.642410 446.711151,209.614883 
	C449.678833,206.876953 452.415161,204.284790 455.223022,201.772507 
	C480.453094,179.197952 509.464661,175.378418 540.551514,185.959335 
	C585.021118,201.095276 610.896057,232.700775 617.868591,278.895935 
	C622.386292,308.827209 616.968384,337.296204 599.490723,362.720886 
	C592.987122,372.181641 584.537598,379.644623 574.836304,385.759521 
	C572.692627,387.110657 570.888489,389.000336 568.928040,390.642029 
	C569.026794,391.206970 569.125549,391.771942 569.224304,392.336884 
	C571.637695,392.717102 574.051147,393.097290 576.930908,393.413666 
M354.616089,376.754059 
	C356.985626,382.754181 360.990387,385.452698 366.717529,384.908234 
	C371.942352,384.411530 375.204071,381.586731 376.049652,376.826263 
	C377.161255,370.567810 375.276154,366.238464 370.399017,363.848877 
	C362.644043,360.049286 354.731354,366.064392 354.616089,376.754059 
z"/>
<path fill="#C47034" opacity="1.000000" stroke="none" 
	d="
M84.960793,399.190796 
	C47.161701,379.346375 24.296398,348.569489 20.590052,306.534760 
	C16.396437,258.973816 35.229797,220.967178 76.587730,195.930786 
	C104.998268,178.732239 135.620163,175.773865 167.166870,186.786789 
	C181.774521,191.886307 194.342987,200.516205 205.426773,211.208588 
	C211.971802,217.522476 218.106781,224.261398 224.426163,230.809189 
	C224.086655,231.321655 223.747147,231.834122 223.407623,232.346588 
	C221.516342,231.474594 219.481506,230.822800 217.755234,229.697647 
	C190.798401,212.127609 161.665344,202.526566 129.106873,204.984985 
	C105.301811,206.782471 85.878250,216.948380 70.558563,235.120041 
	C56.203548,252.147430 48.362270,271.962189 48.609520,294.091583 
	C49.008877,329.834503 64.105370,357.841644 95.736572,375.805389 
	C114.394318,386.401306 134.392807,386.753052 154.820282,382.403564 
	C155.959244,382.161041 157.098434,381.919708 158.726868,381.573944 
	C154.287033,375.173615 152.191620,368.289001 152.905640,360.515106 
	C153.959518,349.041290 161.640091,338.752472 172.382614,335.102570 
	C183.398010,331.359955 196.219635,334.481598 203.382675,342.881866 
	C211.680847,352.613342 213.808929,363.532135 208.501617,375.347748 
	C203.314529,386.895691 193.588425,394.077454 182.655319,399.236969 
	C150.330322,414.491516 117.771706,413.685791 84.960793,399.190796 
M171.162918,362.588654 
	C171.453766,364.211761 171.513504,365.920776 172.078766,367.441925 
	C173.779602,372.018982 177.305954,374.204773 182.092163,374.110565 
	C186.790329,374.018036 190.428467,372.123260 192.030899,367.327820 
	C194.102570,361.128143 191.178024,354.426453 185.509293,352.573090 
	C178.983078,350.439423 172.079880,354.620972 171.162918,362.588654 
z"/>
<path fill="#C47034" opacity="1.000000" stroke="none" 
	d="
M462.421417,147.811157 
	C437.626801,154.040817 416.589111,141.266403 409.581665,116.072350 
	C401.670135,87.627762 410.980896,60.639973 434.199188,42.278240 
	C457.772736,23.635569 484.581116,15.557311 514.125549,18.186619 
	C534.907959,20.036150 555.292175,24.917892 571.673401,39.278290 
	C577.617859,44.489399 582.818848,50.604088 587.966309,56.641357 
	C590.007568,59.035427 591.584473,59.795033 594.654541,58.872433 
	C605.266296,55.683510 616.143799,54.663963 627.187561,55.858444 
	C628.360229,55.985271 629.500732,56.408318 630.656189,56.693939 
	C630.719849,57.144653 630.783569,57.595364 630.847290,58.046078 
	C626.108826,60.131031 621.308228,62.087299 616.647949,64.334297 
	C611.135498,66.992073 605.747742,69.907761 600.298828,72.697762 
	C597.658447,74.049728 597.246704,75.575523 598.398804,78.621178 
	C605.411011,97.157463 605.066528,115.506851 594.928406,132.860458 
	C588.775574,143.392563 579.353088,150.039780 566.771729,149.679504 
	C555.049561,149.343826 545.052734,144.517365 539.055969,133.852417 
	C531.662109,120.702980 533.987305,103.711082 545.638367,90.328438 
	C551.872131,83.168274 559.462097,77.188835 566.694885,70.438698 
	C560.117981,61.674160 551.430603,55.266037 540.040588,51.816566 
	C518.375427,45.255230 496.946014,43.871204 475.573669,52.348614 
	C461.095245,58.091518 447.620148,65.364151 438.506897,78.769073 
	C430.283264,90.865425 430.050201,107.949066 438.160156,118.059494 
	C443.554016,124.783852 450.588867,126.701790 457.056671,123.211441 
	C460.892426,121.141457 463.317627,116.036644 462.471375,111.814209 
	C461.564850,107.291412 457.809692,104.156258 452.773834,104.050514 
	C449.942627,103.991058 447.102264,104.365952 443.969940,104.563873 
	C448.759399,92.395180 465.481537,88.666672 475.749390,96.798958 
	C493.241882,110.653290 488.558441,137.050079 467.000366,146.080856 
	C465.621429,146.658493 464.213074,147.165863 462.421417,147.811157 
M578.915649,117.183235 
	C582.313232,106.984650 582.561829,96.926529 578.023743,86.588005 
	C575.170105,88.541862 572.698242,89.935410 570.575867,91.739998 
	C562.041931,98.996223 556.322632,107.830170 555.850952,119.394547 
	C555.695984,123.193153 557.069946,126.216522 560.718567,127.885284 
	C564.618835,129.669174 568.695251,130.101379 571.879333,126.975639 
	C574.531738,124.371925 576.380005,120.949142 578.915649,117.183235 
z"/>
<path fill="#C47034" opacity="1.000000" stroke="none" 
	d="
M476.290558,491.525635 
	C481.182617,506.537079 504.729980,517.678711 524.673584,506.057129 
	C535.052795,500.008911 543.492249,491.901825 549.923401,481.722565 
	C556.257568,471.696930 562.919739,471.838409 569.826538,481.350067 
	C583.708557,500.467651 602.658997,510.207611 626.354553,511.042816 
	C648.585327,511.826355 670.118713,509.049316 690.591553,499.927124 
	C693.290955,498.724304 695.936646,497.400787 699.864441,496.842560 
	C699.077393,498.293945 698.619873,500.124695 697.452759,501.138550 
	C684.644226,512.265198 670.266357,520.722046 654.153748,526.170959 
	C620.368591,537.596313 589.745850,531.530151 561.825195,509.240173 
	C553.014221,519.082336 542.989624,527.156738 530.966187,532.525330 
	C508.757019,542.442139 479.412231,537.707336 464.196503,519.531860 
	C448.036865,500.228729 449.169006,465.860382 466.958160,448.083405 
	C479.977539,435.072937 500.928650,433.906525 512.834473,445.529297 
	C521.019348,453.519562 523.312256,465.396912 518.584045,475.311523 
	C513.600708,485.761047 502.595337,492.293884 491.389679,490.584473 
	C485.926086,489.751007 480.689392,487.430511 475.307861,485.770142 
	C475.512970,487.092926 475.829163,489.132111 476.290558,491.525635 
M484.416321,468.878845 
	C485.369232,470.018494 486.164734,471.355743 487.303070,472.262695 
	C491.627197,475.707794 499.019958,474.691650 501.922211,470.376831 
	C505.073792,465.691406 503.918884,459.090973 499.195007,456.379669 
	C495.325897,454.158966 491.342010,454.232880 487.457703,456.769989 
	C483.030121,459.661957 482.999268,463.720276 484.416321,468.878845 
z"/>
<path fill="#C47034" opacity="1.000000" stroke="none" 
	d="
M796.493652,378.506836 
	C786.677734,369.307098 777.520203,359.845032 767.384705,351.582581 
	C757.380981,343.427490 745.323242,339.516479 732.289307,339.231598 
	C730.338806,339.188934 728.377197,339.654144 726.675293,339.854462 
	C727.219177,344.842651 728.324707,349.534332 728.129211,354.171143 
	C727.434021,370.665344 714.233398,382.610840 697.888550,382.008362 
	C681.737976,381.413055 669.281555,367.874481 669.672729,351.341339 
	C670.128418,332.080963 683.311707,317.715637 703.998535,313.938019 
	C737.970459,307.734344 770.388306,322.865723 788.753967,353.442596 
	C794.053345,362.265594 798.278259,371.503204 799.669250,382.199066 
	C798.687378,381.056000 797.705566,379.912964 796.493652,378.506836 
M690.690491,345.267120 
	C685.752930,350.999054 688.324219,360.827515 695.463745,362.927551 
	C700.890564,364.523804 707.016479,362.256256 709.292725,357.778442 
	C711.422424,353.588898 710.086121,347.146271 706.465027,344.145508 
	C701.686157,340.185272 696.430176,340.383789 690.690491,345.267120 
z"/>
<path fill="#C47034" opacity="1.000000" stroke="none" 
	d="
M702.708923,281.161743 
	C681.530029,283.767731 665.713196,264.946777 670.500732,243.390732 
	C674.155273,226.936646 687.622131,215.550003 706.432556,213.009399 
	C742.154114,208.184677 774.225525,224.700668 790.837158,256.801208 
	C794.744751,264.352509 797.790161,272.350037 801.232239,280.142303 
	C800.641174,280.518555 800.050171,280.894775 799.459167,281.271027 
	C798.211609,279.946655 796.928528,278.653778 795.721985,277.293030 
	C783.992065,264.063965 771.696655,251.507172 755.320435,243.924194 
	C746.219788,239.710144 736.678711,237.993668 726.188171,239.326813 
	C729.812073,250.767166 729.220032,261.692627 721.522949,271.204071 
	C716.894165,276.924011 710.643616,280.339020 702.708923,281.161743 
M710.015564,249.575058 
	C709.795227,248.956406 709.633423,248.308945 709.345581,247.723495 
	C706.526917,241.992264 700.406494,239.343689 695.006653,241.497009 
	C689.678284,243.621826 687.141541,249.372009 688.840820,255.473297 
	C690.340942,260.859497 695.774414,263.959869 701.630127,262.770813 
	C707.602112,261.558136 710.806702,256.862885 710.015564,249.575058 
z"/>
<path fill="#F8F8F8" opacity="1.000000" stroke="none" 
	d="
M354.506195,376.383972 
	C354.731354,366.064392 362.644043,360.049286 370.399017,363.848877 
	C375.276154,366.238464 377.161255,370.567810 376.049652,376.826263 
	C375.204071,381.586731 371.942352,384.411530 366.717529,384.908234 
	C360.990387,385.452698 356.985626,382.754181 354.506195,376.383972 
z"/>
<path fill="#FDFAF7" opacity="1.000000" stroke="none" 
	d="
M171.227509,362.199219 
	C172.079880,354.620972 178.983078,350.439423 185.509293,352.573090 
	C191.178024,354.426453 194.102570,361.128143 192.030899,367.327820 
	C190.428467,372.123260 186.790329,374.018036 182.092163,374.110565 
	C177.305954,374.204773 173.779602,372.018982 172.078766,367.441925 
	C171.513504,365.920776 171.453766,364.211761 171.227509,362.199219 
z"/>
<path fill="#FDFBFA" opacity="1.000000" stroke="none" 
	d="
M578.750061,117.536194 
	C576.380005,120.949142 574.531738,124.371925 571.879333,126.975639 
	C568.695251,130.101379 564.618835,129.669174 560.718567,127.885284 
	C557.069946,126.216522 555.695984,123.193153 555.850952,119.394547 
	C556.322632,107.830170 562.041931,98.996223 570.575867,91.739998 
	C572.698242,89.935410 575.170105,88.541862 578.023743,86.588005 
	C582.561829,96.926529 582.313232,106.984650 578.750061,117.536194 
z"/>
<path fill="#FDFAF7" opacity="1.000000" stroke="none" 
	d="
M484.270172,468.526093 
	C482.999268,463.720276 483.030121,459.661957 487.457703,456.769989 
	C491.342010,454.232880 495.325897,454.158966 499.195007,456.379669 
	C503.918884,459.090973 505.073792,465.691406 501.922211,470.376831 
	C499.019958,474.691650 491.627197,475.707794 487.303070,472.262695 
	C486.164734,471.355743 485.369232,470.018494 484.270172,468.526093 
z"/>
<path fill="#FDFAF8" opacity="1.000000" stroke="none" 
	d="
M690.951965,344.994263 
	C696.430176,340.383789 701.686157,340.185272 706.465027,344.145508 
	C710.086121,347.146271 711.422424,353.588898 709.292725,357.778442 
	C707.016479,362.256256 700.890564,364.523804 695.463745,362.927551 
	C688.324219,360.827515 685.752930,350.999054 690.951965,344.994263 
z"/>
<path fill="#FDFAF8" opacity="1.000000" stroke="none" 
	d="
M710.071289,249.948318 
	C710.806702,256.862885 707.602112,261.558136 701.630127,262.770813 
	C695.774414,263.959869 690.340942,260.859497 688.840820,255.473297 
	C687.141541,249.372009 689.678284,243.621826 695.006653,241.497009 
	C700.406494,239.343689 706.526917,241.992264 709.345581,247.723495 
	C709.633423,248.308945 709.795227,248.956406 710.071289,249.948318 
z"/>
</svg>