<svg version="1.1" id="Layer_1" xmlns="http://www.w3.org/2000/svg" xmlns:xlink="http://www.w3.org/1999/xlink" x="0px" y="0px"
	 width="100%" viewBox="0 0 1024 464" enable-background="new 0 0 1024 464" xml:space="preserve">
<path fill="#000000" opacity="1.000000" stroke="none" 
	d="
M165.468628,465.000000 
	C152.224091,454.332153 139.467484,443.641083 126.666100,433.003937 
	C116.673622,424.700806 106.601440,416.493530 96.611313,408.187592 
	C90.818161,403.371002 90.960617,391.086334 96.845016,386.294556 
	C114.825294,371.652924 134.825287,361.121735 157.781479,356.794891 
	C160.874908,356.211853 162.058731,354.772522 162.009735,351.790283 
	C161.941345,347.626831 161.864426,343.453400 162.072876,339.298370 
	C162.273315,335.303284 160.493164,334.200897 156.701370,334.219482 
	C132.045654,334.340393 107.389046,334.285919 82.732735,334.273865 
	C75.850189,334.270508 75.794319,334.205597 75.811363,327.284760 
	C75.836487,317.079834 74.902443,317.826141 85.203697,317.826233 
	C182.662201,317.827057 280.120728,317.822968 377.579224,317.821411 
	C384.284668,317.821320 384.395325,317.908203 384.358490,324.966888 
	C384.306244,334.988861 385.374023,334.191650 375.338745,334.227417 
	C370.674103,334.244019 365.991455,334.476593 361.349670,334.148712 
	C356.727386,333.822205 355.299225,335.556885 355.325928,340.143616 
	C355.494690,369.130432 355.416504,398.118744 355.420166,427.106537 
	C355.421112,434.603394 355.704315,442.114502 355.323822,449.591919 
	C355.081055,454.362061 356.380463,457.559601 360.921936,459.440643 
	C362.966492,460.287476 365.655609,461.340668 363.171356,464.752014 
	C354.312439,465.000000 345.624878,465.000000 336.273071,464.729370 
	C313.088837,450.538696 290.790497,436.238281 267.924988,422.911011 
	C260.232178,418.427185 256.733521,413.471130 257.997101,404.700226 
	C258.473083,401.396240 258.988495,398.648224 261.791992,396.496857 
	C265.355865,393.762054 268.699310,390.738434 272.117157,387.815216 
	C278.900208,382.013885 285.669037,376.196045 292.785797,370.091614 
	C290.901031,368.370087 289.593628,367.130432 288.238434,365.945374 
	C279.209839,358.050385 270.170868,350.167175 261.135651,342.279694 
	C259.759857,341.078735 257.824768,340.080658 257.510803,338.273285 
	C256.794464,334.149506 254.058319,334.211823 250.871231,334.224884 
	C231.044647,334.306213 211.217606,334.274078 191.390717,334.276367 
	C180.308395,334.277618 180.247269,334.275299 180.334930,345.379669 
	C180.420746,356.249512 179.009216,354.158966 189.490891,355.680939 
	C219.996735,360.110382 237.315628,383.733429 233.372040,408.075317 
	C231.080963,422.216980 224.228622,433.234406 212.076172,440.889618 
	C210.958633,441.593567 209.675385,442.600098 208.464264,441.373627 
	C204.673691,437.534821 200.525024,433.990021 197.546906,429.695374 
	C198.726608,427.554840 200.516113,427.228973 201.840530,426.273224 
	C211.831970,419.062622 217.027985,409.425293 215.459259,397.061829 
	C214.009674,385.637390 206.579102,378.769104 196.144974,374.963104 
	C193.042450,373.831360 189.729492,373.208618 186.466919,372.599091 
	C181.159149,371.607452 180.326065,372.345337 180.321899,377.757111 
	C180.304626,400.249939 180.510986,422.745575 180.190826,445.233856 
	C180.100906,451.549377 180.963440,456.669983 187.011780,459.821991 
	C189.359451,461.045441 190.065033,462.817657 188.000000,465.000000 
	C180.645752,465.000000 173.291504,465.000000 165.468628,465.000000 
M332.903564,442.530273 
	C334.653748,443.303589 335.942719,445.155151 338.241180,444.882965 
	C338.417847,444.363831 338.717163,443.907745 338.704041,443.460815 
	C338.372589,432.167419 337.998749,420.875275 337.660370,409.582092 
	C337.610535,407.919922 336.711548,406.816528 335.543610,405.809021 
	C326.856171,398.315033 318.141785,390.851593 309.518799,383.284088 
	C307.642517,381.637512 306.291931,381.667633 304.407745,383.308411 
	C298.392365,388.546661 292.090546,393.462463 286.186249,398.819031 
	C283.213928,401.515625 279.143829,403.221558 277.228546,407.831451 
	C295.680939,419.318970 313.996704,430.721466 332.903564,442.530273 
M116.039589,394.506134 
	C114.829437,395.563782 113.060638,396.096619 112.603989,398.638092 
	C129.057785,412.463806 145.734421,426.476776 162.411041,440.489777 
	C162.812592,440.257874 163.214127,440.026001 163.615677,439.794128 
	C162.138687,418.039093 162.113541,396.243774 161.841492,373.848938 
	C144.443710,376.770142 129.978577,384.178925 116.039589,394.506134 
M326.463135,334.230988 
	C310.723175,334.230988 294.983185,334.230988 279.243225,334.230988 
	C279.066650,334.699219 278.890045,335.167480 278.713470,335.635712 
	C297.900085,352.320465 317.086731,369.005188 336.658966,386.025269 
	C337.979431,383.329407 337.657654,381.485687 337.662018,379.715393 
	C337.691071,367.888641 337.741272,356.061462 337.668243,344.235107 
	C337.598816,332.990295 339.151489,334.339905 326.463135,334.230988 
z"/>
<path fill="#000000" opacity="1.000000" stroke="none" 
	d="
M868.468262,465.000000 
	C858.239807,446.167877 842.855469,434.878265 822.151245,430.563385 
	C818.327454,429.766479 816.288208,430.380127 814.669312,434.451477 
	C810.826477,444.115509 802.742249,449.053589 794.704529,447.530914 
	C786.393616,445.956482 781.828735,438.438812 784.344727,430.351471 
	C786.471741,423.514526 791.222168,418.977997 797.659729,416.344391 
	C800.830505,415.047241 801.754944,413.205261 801.733215,409.925751 
	C801.649170,397.242615 794.922913,386.647278 783.687927,381.778809 
	C780.254333,380.290955 777.969116,380.294891 776.364807,384.448669 
	C774.212830,390.020294 770.567627,394.567474 764.741638,396.853455 
	C759.367920,398.962067 754.177979,398.666229 749.818115,394.676331 
	C745.446228,390.675476 744.811279,385.458832 746.292297,379.955414 
	C748.019043,373.538849 752.272888,369.147369 758.304443,366.806427 
	C762.460327,365.193451 763.356201,362.470856 762.676208,358.607208 
	C761.164551,350.017975 757.560730,342.503265 751.399353,336.232086 
	C748.317078,333.094849 744.468079,334.248779 740.984070,334.390045 
	C736.220581,334.583160 734.528931,332.988251 734.684631,328.125397 
	C735.050964,316.684296 733.796692,317.854065 744.885193,317.851135 
	C811.685059,317.833527 878.484985,317.841003 945.284851,317.840546 
	C952.162354,317.840515 952.207581,317.887268 952.242310,324.822296 
	C952.289612,334.269165 952.289551,334.269348 942.817871,334.269440 
	C926.159546,334.269623 909.499451,334.402618 892.844116,334.179626 
	C888.467346,334.121033 886.982910,335.439301 887.127380,339.851685 
	C887.421570,348.837830 887.355713,357.842285 887.179260,366.834137 
	C887.107300,370.503082 888.351562,371.939728 892.080627,371.755127 
	C896.896301,371.516724 901.691650,371.853943 906.502808,372.608795 
	C936.423035,377.303101 944.140076,403.595459 934.831726,425.933014 
	C931.530212,433.855713 925.762634,439.774933 918.347900,444.143677 
	C915.966492,445.546783 914.175354,445.738007 912.372742,443.306580 
	C909.734680,439.748291 906.150269,436.908081 903.964722,432.596466 
	C906.331726,430.985077 908.561279,429.583618 910.665283,428.014038 
	C918.115601,422.456146 921.096313,414.755768 920.559387,405.749512 
	C920.020142,396.705597 913.339844,390.472168 903.371948,389.343811 
	C899.907043,388.951538 896.379639,389.142578 892.898560,388.853271 
	C888.584167,388.494720 887.097839,390.216217 887.133911,394.607239 
	C887.313354,416.428131 887.216736,438.251282 887.211060,460.073639 
	C887.210693,461.405670 887.156616,462.737701 887.063782,464.534851 
	C880.978821,465.000000 874.957703,465.000000 868.468262,465.000000 
M797.498779,334.278259 
	C788.952026,334.278259 780.405273,334.278259 770.821533,334.278259 
	C775.940491,343.532684 779.020569,352.057861 780.013916,361.248505 
	C780.286194,363.767120 782.422424,364.117401 784.358093,364.678497 
	C805.996033,370.950531 818.099609,386.294708 819.214050,409.139954 
	C819.360779,412.147949 820.124451,413.507843 823.327209,413.994690 
	C835.537292,415.850647 846.620667,420.616180 856.734436,427.698334 
	C861.253662,430.862915 865.284790,434.620575 870.083618,439.503662 
	C868.921143,423.068787 868.530151,408.107086 868.700073,393.137543 
	C868.734436,390.110809 867.434204,388.977264 864.544495,388.930756 
	C859.055725,388.842407 853.553894,388.799103 848.084961,388.379639 
	C830.980164,387.067596 819.914795,377.083740 816.454895,360.231903 
	C815.029419,353.289185 815.681458,346.286163 815.730347,339.321594 
	C815.758728,335.278839 814.328491,333.994446 810.483337,334.225830 
	C806.501526,334.465454 802.494080,334.278992 797.498779,334.278259 
M846.515259,334.280640 
	C843.686096,334.280853 840.848633,334.418152 838.030029,334.245789 
	C834.676025,334.040710 833.121765,335.204620 833.292603,338.784576 
	C833.514465,343.434235 833.170654,348.112305 833.425171,352.758698 
	C834.146240,365.925964 840.265930,371.650543 853.386536,371.691101 
	C856.881287,371.701904 860.385803,371.526917 863.868286,371.733215 
	C867.634460,371.956360 868.789124,370.301422 868.726562,366.710144 
	C868.564392,357.393494 868.549438,348.069702 868.734375,338.753876 
	C868.805969,335.145660 867.311707,334.130096 863.983459,334.232605 
	C858.496826,334.401550 853.001160,334.279449 846.515259,334.280640 
z"/>
<path fill="#000000" opacity="1.000000" stroke="none" 
	d="
M266.137817,61.854599 
	C266.296570,53.153744 266.390778,44.839951 266.535217,36.527031 
	C266.618439,31.738054 263.843353,30.979664 259.738953,30.989532 
	C216.582458,31.093285 173.425613,31.061325 130.268875,31.073816 
	C117.336365,31.077559 117.337341,31.087502 117.339363,43.895199 
	C117.340935,53.853725 117.339676,63.812252 117.339676,73.663628 
	C119.824356,74.476707 120.942261,72.897377 122.212395,72.036102 
	C144.802292,56.717869 172.487320,71.517738 177.277679,96.186775 
	C180.715881,113.892502 173.978775,128.472824 163.784073,142.092850 
	C162.888306,143.289597 161.782166,144.683487 160.072662,143.489227 
	C155.200958,140.085800 150.123276,136.930618 145.641525,132.744568 
	C149.548080,126.842354 153.336014,121.389717 156.836700,115.758537 
	C160.774399,109.424377 163.075150,102.581909 162.783737,94.951683 
	C162.396072,84.801048 155.565628,79.448555 145.641693,81.835846 
	C137.211578,83.863785 131.145905,89.633209 124.707367,94.940704 
	C119.150864,99.521111 116.824600,104.679543 117.145317,112.134941 
	C117.796410,127.269951 117.345284,142.452911 117.315170,157.616028 
	C117.311264,159.580154 117.644829,161.611938 116.566742,163.712799 
	C112.409050,163.938812 110.396042,160.252380 107.294655,158.666534 
	C101.007729,155.451828 98.963242,150.500748 99.609230,143.533325 
	C100.219994,136.945847 99.740433,130.257263 99.740433,122.714233 
	C93.315086,126.906693 87.419815,130.436798 80.493240,131.881866 
	C51.241768,137.984512 21.674982,108.895454 28.652466,80.761108 
	C31.861259,67.822723 44.872658,57.006859 58.627354,55.665760 
	C72.228455,54.339638 84.717644,57.438404 96.231018,64.703407 
	C97.047607,65.218681 97.729446,66.070045 99.722855,65.659119 
	C99.722855,58.621895 99.725929,51.383789 99.722183,44.145683 
	C99.715424,31.071913 99.713722,31.073242 86.516228,31.071140 
	C66.020943,31.067875 45.523758,30.911381 25.031738,31.167974 
	C20.110554,31.229597 16.684811,29.911503 14.454541,25.519468 
	C12.780267,22.222345 9.355771,19.805971 9.246243,15.695057 
	C11.369736,14.070778 13.612693,14.673134 15.695917,14.672610 
	C125.670174,14.644974 235.644440,14.653401 345.618713,14.660836 
	C350.950104,14.661197 359.669586,22.606277 360.213837,27.906069 
	C360.409882,29.814955 359.443939,30.729321 357.694946,30.883493 
	C356.039032,31.029461 354.368927,31.061491 352.705017,31.062460 
	C331.876495,31.074591 311.046539,31.202295 290.220459,30.976505 
	C285.342194,30.923620 283.881012,32.553055 284.016693,37.302589 
	C284.321136,47.958435 284.121796,58.628269 284.173920,69.292183 
	C284.181000,70.739594 283.782837,72.288383 284.796387,73.628273 
	C286.380341,74.180382 287.276581,72.948425 288.313690,72.234444 
	C312.223724,55.773666 341.976929,73.005669 344.331329,100.794685 
	C345.671356,116.610916 339.349396,129.662598 330.460419,141.942932 
	C329.084351,143.844009 327.680023,144.619415 325.501129,142.949814 
	C321.799469,140.113419 318.008118,137.390137 314.191406,134.709106 
	C311.527954,132.838196 312.718903,131.112930 314.173004,129.287109 
	C317.916748,124.586357 321.397980,119.683075 324.138214,114.339355 
	C327.656860,107.477692 330.613800,100.384575 329.062805,92.377556 
	C327.370117,83.639252 321.324799,79.690620 312.585388,81.749504 
	C300.927612,84.495918 293.183563,92.968498 285.171143,100.966003 
	C283.612793,102.521454 284.142456,104.752403 284.137512,106.717133 
	C284.094025,124.046318 284.106537,141.375656 284.049255,158.704773 
	C284.043457,160.456833 284.692139,162.683762 282.676117,163.680420 
	C280.663422,164.675430 279.429535,162.583908 277.868469,161.785507 
	C268.769867,157.132126 264.682281,150.243134 266.409271,139.651749 
	C267.263977,134.409729 267.303558,128.751587 265.602539,123.472679 
	C263.980804,123.267593 263.239777,124.348610 262.343872,124.997604 
	C252.079697,132.432846 240.676071,133.996597 228.587708,131.311569 
	C211.337219,127.479942 195.680878,109.684357 193.885239,92.166748 
	C192.067337,74.431831 207.217499,57.125572 225.496918,55.616940 
	C239.859268,54.431587 252.845337,58.023876 264.543793,65.882698 
	C266.522827,64.980995 265.775909,63.421749 266.137817,61.854599 
M211.388092,104.890358 
	C215.256241,112.773315 222.751328,117.157272 231.203506,116.521858 
	C245.504654,115.446724 256.271484,108.067833 264.711853,97.100754 
	C270.057159,90.155312 266.597687,79.083954 258.647522,75.519348 
	C250.455841,71.846466 241.894089,71.125580 233.206665,72.470078 
	C217.621277,74.882126 207.338577,89.882851 211.388092,104.890358 
M93.322426,102.809189 
	C100.245628,97.980530 99.992371,90.828590 99.790581,83.550011 
	C99.710838,80.673508 98.695610,79.052048 96.249222,77.631737 
	C87.852852,72.757004 78.872147,71.154274 69.322227,72.196770 
	C58.554638,73.372177 50.463531,78.573402 45.937740,88.511673 
	C42.885410,95.214363 42.518566,102.205322 47.039501,108.459587 
	C51.764088,114.995590 58.616817,116.808006 66.449730,116.215393 
	C77.013611,115.416161 85.307312,110.235023 93.322426,102.809189 
z"/>
<path fill="#000000" opacity="1.000000" stroke="none" 
	d="
M920.000122,14.647739 
	C946.992310,14.647403 973.486023,14.801101 999.975342,14.524655 
	C1005.570129,14.466268 1009.669373,15.621584 1012.065308,20.922548 
	C1013.391663,23.857103 1017.705322,26.234907 1016.009583,29.502832 
	C1014.303162,32.791481 1009.916687,30.973055 1006.758484,30.996141 
	C986.598877,31.143509 966.436279,31.200979 946.278015,30.979954 
	C941.478516,30.927328 939.891174,32.416161 940.005188,37.239456 
	C940.291565,49.348339 940.099854,61.468533 940.099854,73.401459 
	C942.523804,74.223564 943.503540,72.777809 944.661194,71.990181 
	C968.132446,56.022129 998.209717,72.851631 1000.340210,101.224373 
	C1001.512695,116.839561 995.407715,129.780182 986.531921,141.894699 
	C984.929688,144.081589 983.298401,144.630020 981.193726,142.670349 
	C981.073059,142.557907 980.919800,142.481232 980.787048,142.380768 
	C976.814026,139.373428 970.948669,137.122498 969.363220,133.159424 
	C967.510559,128.528519 973.861755,125.042313 976.349243,120.884315 
	C980.575134,113.820457 984.216736,106.689919 985.345825,98.359039 
	C986.973267,86.351418 978.752502,78.743408 967.154114,82.103767 
	C956.299561,85.248634 948.728516,93.117561 941.196289,100.927124 
	C939.663879,102.516045 940.128113,104.706917 940.123535,106.674751 
	C940.083679,123.836197 940.101746,140.997803 940.035095,158.159088 
	C940.027649,160.066010 940.823608,162.538315 938.674133,163.634109 
	C936.493896,164.745605 935.184692,162.327545 933.485291,161.467865 
	C924.668335,157.007568 920.919189,150.238159 922.449890,140.129654 
	C923.284363,134.618454 922.913574,128.839554 921.929138,123.187645 
	C920.264038,122.711235 919.566589,124.165543 918.583191,124.836105 
	C904.450500,134.472610 889.509705,135.645294 874.789856,127.223480 
	C858.974121,118.174614 848.491028,105.110596 850.123596,85.500755 
	C850.453430,81.538643 849.141602,80.440117 845.637634,80.319878 
	C840.590698,80.146698 836.159241,81.958176 831.948059,84.388100 
	C829.359741,85.881638 827.005798,87.775909 824.501160,89.420959 
	C814.609192,95.917793 809.678833,104.147484 810.884460,116.861664 
	C812.215454,130.897614 811.196045,145.157562 811.166443,159.319870 
	C811.163086,160.926987 811.650574,162.929245 809.728455,163.742340 
	C807.962158,164.489487 806.608093,163.096741 805.280090,162.117950 
	C793.630859,153.531784 793.632751,153.530106 793.639221,138.985199 
	C793.641602,133.723801 793.639648,128.462402 793.639648,122.355194 
	C790.598206,124.314583 788.479858,125.812393 786.241333,127.101334 
	C756.086914,144.464386 724.425415,117.653282 721.343750,94.369743 
	C718.458618,72.571098 736.873779,54.002174 759.758179,55.340519 
	C771.198303,56.009567 781.683472,58.959156 791.081299,65.580658 
	C791.573425,65.927391 792.238342,66.028831 793.575500,66.522133 
	C793.575500,55.405544 793.633667,44.790737 793.543701,34.177189 
	C793.512512,30.500387 790.516602,31.279123 788.346313,31.274696 
	C765.519836,31.228127 742.693237,31.246716 719.866638,31.241953 
	C712.778320,31.240475 704.684265,24.832645 703.042786,17.954924 
	C702.618103,16.175741 703.090088,14.947962 705.069946,14.798445 
	C706.728088,14.673223 708.398743,14.686684 710.063904,14.686303 
	C779.875977,14.670352 849.687988,14.659760 920.000122,14.647739 
M896.072449,56.023178 
	C905.252869,57.230759 913.345947,61.362396 921.656433,66.430588 
	C922.931030,55.569950 921.733826,45.592766 922.395020,35.668991 
	C922.635376,32.060375 920.330872,30.997595 916.895508,31.012388 
	C883.269836,31.157223 849.643738,31.236181 816.017883,31.197075 
	C812.274170,31.192722 811.094238,32.556496 811.142517,36.170525 
	C811.295776,47.654888 811.191589,59.142559 811.231201,70.628799 
	C811.234985,71.717163 810.883545,73.006126 812.124207,73.771439 
	C812.480530,73.736633 812.886963,73.820999 813.113892,73.656982 
	C825.828003,64.468422 839.333069,61.960674 853.942261,68.802086 
	C855.350830,69.461708 856.443298,69.269287 857.495667,68.115219 
	C867.740112,56.880291 880.702454,53.975441 896.072449,56.023178 
M786.476685,76.005096 
	C778.798401,72.098686 770.591492,71.485107 762.199524,72.193741 
	C750.110107,73.214592 739.915283,82.361794 737.587769,94.188797 
	C735.394226,105.335365 742.625610,114.962959 753.905273,115.887253 
	C770.584839,117.254044 782.555847,109.015862 792.080566,96.534035 
	C796.674500,90.513947 793.692139,79.816452 786.476685,76.005096 
M922.062866,82.922836 
	C922.150818,80.478104 920.972473,78.763901 918.846375,77.753792 
	C915.848999,76.329773 912.882690,74.757332 909.746704,73.722351 
	C894.673096,68.747482 879.476379,72.703232 871.209656,83.579895 
	C863.515198,93.703697 864.765015,107.077621 874.195679,113.095551 
	C879.957397,116.772255 886.386047,117.039108 892.964233,115.688713 
	C903.923828,113.438866 911.995239,106.800125 919.473022,98.935928 
	C923.930786,94.247887 921.594482,88.882614 922.062866,82.922836 
z"/>
<path fill="#000000" opacity="1.000000" stroke="none" 
	d="
M576.659302,52.987228 
	C576.659058,44.260208 576.659058,36.030350 576.659058,27.754095 
	C579.455872,27.786190 580.346313,29.368071 581.470764,30.479937 
	C595.801147,44.650070 610.077148,58.875217 624.422424,73.030159 
	C626.677063,75.254852 628.084106,76.934959 625.051514,79.910736 
	C610.070557,94.611092 595.282288,109.507721 580.410095,124.319122 
	C579.623230,125.102768 578.938965,126.201424 577.081299,125.815125 
	C576.279114,122.918175 576.705139,119.782639 576.681152,116.711319 
	C576.617310,108.548965 576.393860,100.373627 576.763306,92.227455 
	C576.985474,87.327209 575.245850,86.013504 570.510498,86.031693 
	C530.029968,86.187218 489.548584,86.122803 449.067444,86.123070 
	C447.734772,86.123077 446.400909,86.071671 445.069702,86.112724 
	C441.894867,86.210609 440.630646,84.710739 440.690582,81.541084 
	C441.008118,64.753784 438.413696,67.796303 453.609283,67.732986 
	C492.257263,67.571930 530.906372,67.682381 569.555054,67.676437 
	C576.648926,67.675346 576.650391,67.658600 576.662842,60.481045 
	C576.666931,58.148834 576.660950,55.816608 576.659302,52.987228 
z"/>
<path fill="#000000" opacity="1.000000" stroke="none" 
	d="
M638.401611,401.401978 
	C627.132141,412.617462 616.112793,423.583099 605.047607,434.594391 
	C603.098633,432.553986 603.670288,430.806335 603.658752,429.235626 
	C603.594238,420.409943 603.629639,411.583588 603.624329,402.757446 
	C603.619141,394.227875 603.615601,394.221954 595.327576,394.221252 
	C555.693237,394.217957 516.058960,394.218475 476.424622,394.215942 
	C474.925934,394.215851 473.425720,394.151520 471.928864,394.199402 
	C469.049927,394.291534 467.638092,393.070892 467.676941,390.059052 
	C467.902588,372.576355 465.446533,375.833069 480.640900,375.765869 
	C519.441833,375.594238 558.243958,375.714600 597.045654,375.708588 
	C603.606934,375.707581 603.623535,375.685577 603.632019,369.012238 
	C603.645935,358.048920 603.635803,347.085571 603.635803,336.195831 
	C606.200684,335.400970 606.991150,337.258820 608.049072,338.309570 
	C622.463928,352.626190 636.752014,367.071472 651.264343,381.287994 
	C654.318176,384.279572 654.101624,386.162720 651.093262,388.870789 
	C646.766846,392.765411 642.782288,397.039825 638.401611,401.401978 
z"/>
</svg>