<svg version="1.1" id="Layer_1" xmlns="http://www.w3.org/2000/svg" xmlns:xlink="http://www.w3.org/1999/xlink" x="0px" y="0px"
	 width="100%" viewBox="0 0 2184 452" enable-background="new 0 0 2184 452" xml:space="preserve">
<path fill="#FFFFFF" opacity="1.000000" stroke="none" 
	d="
M1480.000000,453.000000 
	C986.713318,453.000000 493.926636,453.000000 1.069972,453.000000 
	C1.069972,302.394257 1.069972,151.788498 1.069972,1.091363 
	C729.000000,1.091363 1457.000000,1.091363 2184.966309,1.091363 
	C2184.966309,151.740341 2184.966309,302.370178 2184.966309,453.000000 
	C1950.121582,453.000000 1715.310791,453.000000 1480.000000,453.000000 
M2166.518555,216.500275 
	C2166.518555,181.402298 2166.518555,146.304306 2166.518555,111.198982 
	C2156.441650,111.198982 2146.982666,111.198982 2137.397705,111.198982 
	C2135.624268,121.106003 2133.881592,130.840637 2132.138916,140.575256 
	C2131.656738,140.631592 2131.174561,140.687927 2130.692139,140.744263 
	C2128.461914,138.158249 2126.310059,135.499374 2123.988281,132.998047 
	C2107.012695,114.709229 2085.547363,107.071396 2061.097168,106.965538 
	C2025.093384,106.809669 1998.719604,123.060738 1982.646851,155.048050 
	C1973.396484,173.457642 1969.725464,193.558792 1969.090088,214.118225 
	C1968.212158,242.522308 1970.998657,270.298248 1985.136719,295.715515 
	C1994.182007,311.977020 2007.018921,324.232910 2024.526611,331.300293 
	C2043.139404,338.813843 2062.292969,339.696167 2081.766113,336.089142 
	C2100.315674,332.653198 2115.381836,323.332001 2126.905029,308.343506 
	C2127.933594,307.005402 2129.109863,305.780701 2130.217285,304.503265 
	C2130.749268,304.685211 2131.281494,304.867157 2131.813477,305.049103 
	C2130.542236,323.506226 2130.870117,342.253540 2127.586670,360.345520 
	C2123.658203,381.994690 2109.302979,396.143311 2087.498535,400.944458 
	C2078.554443,402.913818 2069.075928,403.144440 2059.854980,403.027222 
	C2038.987549,402.761902 2018.597778,399.339447 1999.092773,391.549316 
	C1994.921265,389.883301 1990.739624,388.242645 1986.159302,386.430695 
	C1986.159302,396.932159 1986.249023,406.594208 1986.103882,416.252716 
	C1986.060913,419.100189 1987.232178,420.120819 1989.788574,421.158508 
	C2005.269531,427.442444 2021.375610,430.748138 2037.946289,432.360260 
	C2061.765625,434.677490 2085.472168,435.094543 2108.716064,428.338898 
	C2132.389893,421.458313 2149.613037,407.180786 2158.795410,383.810364 
	C2164.980957,368.067322 2166.441406,351.624908 2166.485352,334.979675 
	C2166.588867,295.820129 2166.518555,256.660126 2166.518555,216.500275 
M732.651062,425.904480 
	C741.402283,427.709961 750.086853,429.990021 758.917358,431.231354 
	C784.765076,434.864746 810.634888,435.758575 836.167358,428.953644 
	C857.803223,423.187256 874.806274,411.361969 885.133667,390.817383 
	C893.559692,374.055359 895.936768,356.128723 895.961853,337.767029 
	C896.063538,263.444183 896.005554,189.121094 895.991150,114.798103 
	C895.990906,113.544289 895.798279,112.290504 895.701172,111.107407 
	C885.965759,111.107407 876.646423,111.107407 867.007935,111.107407 
	C865.253052,120.941772 863.506226,130.730591 861.759460,140.519409 
	C860.956055,141.029755 860.152649,141.540115 859.349243,142.050476 
	C858.904602,140.763245 858.802368,139.161316 857.957397,138.242050 
	C853.803894,133.723236 849.961670,128.697617 845.088745,125.097099 
	C815.868896,103.506813 784.058594,101.244492 751.382507,115.291298 
	C728.397705,125.171982 714.830383,144.486404 707.079712,167.644424 
	C695.758118,201.471863 695.576660,235.894684 704.417480,270.250427 
	C709.469177,289.881256 718.846802,307.311768 735.140076,320.196106 
	C755.413757,336.228027 778.875061,340.057068 803.787598,337.294861 
	C822.681641,335.199982 839.240723,327.893311 852.182251,313.503723 
	C854.845642,310.542236 857.304382,307.396606 859.857483,304.335846 
	C860.296631,304.520508 860.735840,304.705139 861.175049,304.889801 
	C860.193848,322.056274 860.398132,339.393402 857.956665,356.349640 
	C854.187683,382.525299 836.433655,399.206055 810.315002,402.376648 
	C787.321350,405.167908 764.587280,402.469086 742.378113,396.074860 
	C733.440613,393.501678 724.775696,389.981598 715.983582,386.891357 
	C715.983582,397.781128 715.983582,408.756592 715.983582,419.884644 
	C721.328064,421.884308 726.585144,423.851288 732.651062,425.904480 
M1655.466675,334.003235 
	C1658.728638,334.003235 1661.990723,334.003235 1665.615112,334.003235 
	C1665.615112,331.511841 1665.615112,329.704803 1665.615112,327.897766 
	C1665.615112,301.564758 1665.693481,275.231415 1665.592896,248.898804 
	C1665.492920,222.738342 1665.725586,196.562088 1664.883545,170.422668 
	C1663.809448,137.076004 1644.462646,114.679230 1612.800903,109.076187 
	C1588.994019,104.863220 1565.322998,105.939781 1542.150024,112.859413 
	C1530.798584,116.249001 1519.802368,120.827759 1508.263306,125.006653 
	C1512.594971,135.566910 1516.354370,144.732101 1520.198730,154.104401 
	C1524.711182,152.104980 1528.771606,150.235016 1532.886963,148.494690 
	C1551.006836,140.831894 1569.687622,135.680328 1589.583618,137.191254 
	C1606.129517,138.447784 1619.553223,144.678909 1625.462402,161.719254 
	C1629.640381,173.767014 1629.207642,186.175461 1628.811768,200.042465 
	C1617.333618,200.042465 1606.200806,199.819321 1595.080200,200.092697 
	C1576.583984,200.547409 1558.177002,202.032440 1540.238281,206.973206 
	C1524.117920,211.413193 1508.994751,217.900726 1498.021729,231.122467 
	C1483.405518,248.734238 1481.938843,269.223145 1486.445435,290.630615 
	C1490.073486,307.865021 1499.519653,320.945068 1515.212280,329.322479 
	C1529.011475,336.689087 1543.879883,338.174652 1559.226807,338.128082 
	C1586.947998,338.043915 1609.753296,328.015656 1627.064819,306.098602 
	C1628.047485,304.854584 1629.198730,303.743683 1630.932251,301.848511 
	C1633.516113,313.153076 1635.870117,323.451508 1638.281982,334.003235 
	C1643.843994,334.003235 1649.160156,334.003235 1655.466675,334.003235 
M472.368347,234.921356 
	C460.414703,252.282745 459.000488,271.427124 463.474243,291.267792 
	C468.474182,313.442108 482.334198,327.544739 504.041107,334.242096 
	C516.677612,338.140930 529.564148,338.546448 542.560059,337.813293 
	C563.072693,336.656097 581.162659,329.765472 595.604126,314.650818 
	C599.439209,310.636902 603.150146,306.504395 607.774902,301.498962 
	C610.454102,313.080597 612.857483,323.470093 615.225159,333.705261 
	C624.229187,333.705261 632.820129,333.705261 641.846985,333.705261 
	C641.846985,331.454132 641.846985,329.492767 641.846985,327.531433 
	C641.846985,281.387878 641.884155,235.244232 641.808960,189.100784 
	C641.796997,181.789078 641.726562,174.428162 640.915955,167.175720 
	C637.633728,137.808731 623.828003,118.067589 593.186401,110.743011 
	C568.338440,104.803352 543.582153,106.437569 519.240417,113.391159 
	C507.849304,116.645203 496.877625,121.367523 485.454010,125.519569 
	C489.291351,134.973846 492.509674,143.154114 496.027466,151.203537 
	C496.402802,152.062469 498.771729,152.847565 499.797180,152.484482 
	C503.854675,151.047836 507.708099,149.048584 511.704559,147.423615 
	C528.977051,140.400467 546.786743,135.960617 565.596252,137.038788 
	C581.507507,137.950821 594.754700,143.353958 601.425293,159.303009 
	C606.858398,172.293243 606.088745,185.862640 605.836182,199.998901 
	C601.911011,199.998901 598.440491,199.899307 594.977112,200.014923 
	C570.883118,200.819290 546.673706,200.560532 523.010742,206.123993 
	C503.619171,210.683182 485.579254,217.886658 472.368347,234.921356 
M1184.862671,184.274719 
	C1171.204712,223.005539 1157.546631,261.736359 1144.342773,299.179382 
	C1126.740723,235.874542 1100.463135,173.956085 1079.287720,110.812225 
	C1065.538452,110.812225 1052.627319,110.812225 1039.373413,110.812225 
	C1039.775879,112.183411 1039.985596,113.125153 1040.323730,114.018295 
	C1067.645020,186.194412 1094.997803,258.358582 1122.229736,330.568390 
	C1123.341309,333.516113 1124.895264,334.097534 1127.713867,334.061798 
	C1138.874268,333.920258 1150.044556,333.777496 1161.196167,334.122223 
	C1165.282349,334.248535 1166.799316,332.849762 1168.196411,329.155396 
	C1191.278076,268.126251 1214.546021,207.167572 1237.755859,146.186935 
	C1242.221191,134.454926 1246.618042,122.696877 1251.245728,110.422409 
	C1238.973633,110.422409 1227.354248,110.590553 1215.744995,110.320946 
	C1212.217163,110.239014 1210.942261,111.536224 1209.839722,114.645798 
	C1201.685913,137.640182 1193.335449,160.564850 1184.862671,184.274719 
M227.368240,112.076759 
	C226.179413,111.525337 224.996017,110.509148 223.800903,110.495163 
	C213.137878,110.370415 202.470520,110.543335 191.809814,110.342560 
	C188.936569,110.288452 187.781891,111.309891 186.885590,113.875359 
	C182.834335,125.471085 178.505035,136.969467 174.428726,148.556686 
	C158.123886,194.904510 141.854584,241.264893 125.642014,287.645050 
	C124.125389,291.983734 123.100189,296.494171 121.447769,302.335541 
	C120.552902,298.687592 120.152740,296.427216 119.445122,294.267609 
	C111.022552,268.562073 102.915733,242.745499 94.009201,217.208054 
	C82.036949,182.880325 69.434097,148.772552 57.117863,114.564636 
	C56.341644,112.408714 56.079739,110.275017 52.726025,110.339371 
	C41.232594,110.559891 29.732346,110.414894 18.234919,110.462463 
	C17.523260,110.465408 16.813496,110.926453 16.037947,111.197006 
	C44.231628,185.646210 72.313721,259.800751 100.377815,333.907776 
	C114.753860,333.907776 128.735138,333.907776 143.069946,333.907776 
	C171.070511,260.234711 199.087784,186.517639 227.368240,112.076759 
M406.865417,208.500046 
	C406.865417,145.070023 406.865417,81.640007 406.865417,18.114162 
	C394.387451,18.114162 382.462097,18.114162 370.455658,18.114162 
	C370.455658,123.511444 370.455658,228.692764 370.455658,333.699280 
	C382.740906,333.699280 394.667328,333.699280 406.865417,333.699280 
	C406.865417,292.096375 406.865417,250.798218 406.865417,208.500046 
M1393.558228,205.499756 
	C1393.558228,248.230377 1393.558228,290.960999 1393.558228,333.736877 
	C1406.001831,333.736877 1417.910400,333.736877 1429.728760,333.736877 
	C1429.728760,228.321594 1429.728760,123.169235 1429.728760,18.262749 
	C1417.473755,18.262749 1405.572998,18.262749 1393.558228,18.262749 
	C1393.558228,80.580261 1393.558228,142.539993 1393.558228,205.499756 
M271.532593,334.006104 
	C280.773621,334.006104 290.014679,334.006104 299.229309,334.006104 
	C299.229309,259.297028 299.229309,185.257568 299.229309,111.232323 
	C287.004913,111.232323 275.071686,111.232323 263.006226,111.232323 
	C263.006226,185.502853 263.006226,259.534851 263.006226,334.006104 
	C265.635376,334.006104 268.090118,334.006104 271.532593,334.006104 
M1286.158936,301.499939 
	C1286.158936,312.263916 1286.158936,323.027863 1286.158936,333.703552 
	C1298.715942,333.703552 1310.632935,333.703552 1322.522339,333.703552 
	C1322.522339,259.340271 1322.522339,185.280029 1322.522339,111.296402 
	C1310.284180,111.296402 1298.367065,111.296402 1286.158936,111.296402 
	C1286.158936,174.565659 1286.158936,237.532761 1286.158936,301.499939 
M1873.477539,12.832128 
	C1863.497070,12.832169 1853.513916,12.961149 1843.537720,12.755680 
	C1840.441895,12.691920 1838.984619,13.863095 1837.373047,16.418495 
	C1825.775635,34.810112 1813.886963,53.017879 1802.252075,71.386185 
	C1800.813477,73.657463 1800.326294,76.531471 1799.094360,79.975540 
	C1808.150635,79.975540 1815.770264,80.071388 1823.383057,79.883263 
	C1824.685181,79.851089 1826.125732,78.806648 1827.218262,77.890953 
	C1847.689941,60.732185 1866.054199,41.542362 1882.173340,20.244751 
	C1883.547119,18.429728 1883.785645,15.755551 1884.769897,12.832025 
	C1880.421265,12.832025 1877.443604,12.832025 1873.477539,12.832128 
M572.754211,72.273209 
	C587.629883,56.177101 602.573730,40.142860 617.296875,23.908421 
	C619.184692,21.826815 619.924866,18.704378 621.633606,15.157167 
	C606.268982,15.157167 592.484070,15.087697 578.702759,15.276225 
	C577.470825,15.293077 575.875793,16.733734 575.099915,17.933733 
	C563.030273,36.600742 551.021057,55.307507 539.146057,74.098724 
	C537.805786,76.219650 537.362793,78.907616 536.266113,82.003258 
	C540.559509,82.003258 543.591370,81.632858 546.501953,82.070030 
	C556.831055,83.621468 565.384583,80.636765 572.754211,72.273209 
M1306.167847,27.502550 
	C1291.629761,27.638153 1284.898193,33.904964 1283.353271,48.741207 
	C1282.019653,61.550430 1289.522949,72.047997 1301.287964,73.832550 
	C1313.361816,75.663963 1323.480225,68.885803 1325.589966,56.537174 
	C1328.405640,40.057453 1320.478516,28.417568 1306.167847,27.502550 
M296.393921,33.094856 
	C286.799438,25.264727 271.904510,25.506201 265.419281,34.008999 
	C258.703033,42.814705 258.243439,52.570274 262.583984,62.610935 
	C266.225220,71.033913 273.367889,73.999374 281.818115,73.907486 
	C290.195953,73.816368 297.037384,70.233665 300.353363,62.133938 
	C304.454773,52.115772 303.810760,42.426155 296.393921,33.094856 
M1830.301758,127.846504 
	C1834.650024,121.890160 1834.860596,117.003296 1830.961182,112.531136 
	C1827.684692,108.773582 1821.566040,107.686081 1817.343994,110.110985 
	C1811.664429,113.372948 1809.826538,120.007744 1812.914795,125.515388 
	C1815.663208,130.417068 1824.169800,133.566956 1830.301758,127.846504 
M1866.397095,291.223663 
	C1861.809937,286.721039 1857.005493,285.601837 1852.561890,288.000885 
	C1848.171265,290.371246 1845.708130,295.038635 1846.472656,299.500458 
	C1847.282715,304.228241 1850.041626,307.311218 1854.576904,308.627319 
	C1858.983887,309.906128 1862.867920,308.586578 1865.810059,305.186768 
	C1869.357666,301.086853 1869.576172,296.526123 1866.397095,291.223663 
M1776.678101,296.070648 
	C1775.118652,306.324951 1785.733154,311.241638 1792.003174,308.126709 
	C1796.584595,305.850616 1799.453003,301.016693 1798.713501,296.451874 
	C1797.888550,291.359344 1794.059204,287.548737 1789.199951,286.984741 
	C1783.258789,286.295197 1779.402710,288.898560 1776.678101,296.070648 
M1741.933594,257.707672 
	C1746.573608,255.076096 1748.882324,251.247955 1748.144409,245.793640 
	C1747.546387,241.373749 1744.949097,238.577209 1740.924683,237.124390 
	C1736.239990,235.433273 1731.589844,236.943512 1728.519897,240.887451 
	C1725.432373,244.853928 1725.257935,249.673691 1728.051758,253.824341 
	C1730.834229,257.958191 1735.533691,259.449585 1741.933594,257.707672 
M1759.587891,289.104004 
	C1764.699585,287.455566 1767.722168,283.990417 1767.936035,278.606537 
	C1768.115234,274.098755 1765.986084,270.618713 1761.907349,268.545807 
	C1757.648438,266.381256 1753.588013,266.806702 1749.835571,269.807709 
	C1746.200195,272.715149 1744.775513,277.977386 1746.421143,282.394318 
	C1748.217407,287.215118 1752.360718,289.493103 1759.587891,289.104004 
M1848.035278,133.293427 
	C1852.260132,138.136429 1857.423096,139.692749 1862.038696,137.514420 
	C1866.523071,135.398087 1869.315552,130.316086 1868.512085,125.733658 
	C1867.371948,119.231163 1861.007080,114.917793 1854.966064,116.513832 
	C1848.072144,118.335266 1843.864380,126.461319 1848.035278,133.293427 
M1812.685059,300.367615 
	C1809.432983,309.625946 1815.248413,317.749359 1824.145264,316.376312 
	C1828.975098,315.630920 1832.923096,311.674469 1833.671265,306.829712 
	C1834.380127,302.239838 1831.362915,297.034454 1826.914551,295.172241 
	C1821.771606,293.019287 1817.343750,294.472900 1812.685059,300.367615 
M1911.283813,237.010986 
	C1910.628418,236.908478 1909.975342,236.788452 1909.317383,236.706314 
	C1904.151001,236.061172 1899.240356,238.905396 1897.385620,243.609619 
	C1895.541748,248.285965 1897.412964,254.109894 1901.627563,256.812500 
	C1906.153320,259.714630 1911.520020,259.289917 1915.389282,255.723343 
	C1921.360596,250.219559 1919.857910,242.000946 1911.283813,237.010986 
M1788.280762,116.181343 
	C1781.945923,116.801575 1778.142212,119.635490 1776.871216,124.682167 
	C1775.672852,129.439865 1777.522705,134.325699 1781.672974,136.716339 
	C1785.515259,138.929733 1789.519409,139.257065 1793.398438,136.740082 
	C1797.169922,134.292938 1799.276978,130.777359 1798.702026,126.256187 
	C1797.992920,120.680618 1794.529541,117.434906 1788.280762,116.181343 
M1913.170776,223.476425 
	C1920.189575,224.261185 1925.675903,220.238724 1926.246338,213.889847 
	C1926.859253,207.066437 1922.402344,201.886978 1915.632080,201.554749 
	C1910.590210,201.307373 1905.650269,205.153778 1904.390381,210.307816 
	C1903.036377,215.846283 1906.048096,220.703171 1913.170776,223.476425 
M1880.222290,270.754211 
	C1876.193726,276.499542 1876.085815,281.403137 1879.894775,285.645081 
	C1883.415527,289.566284 1889.020630,290.601410 1893.436890,288.145782 
	C1899.174072,284.955719 1901.110229,277.675903 1897.648071,272.312561 
	C1894.055786,266.747742 1887.066772,265.884369 1880.222290,270.754211 
M1726.092285,178.366257 
	C1727.699463,185.355255 1731.922241,189.154510 1737.807861,188.906891 
	C1742.894165,188.692902 1747.641846,184.252518 1748.177124,179.208603 
	C1748.847046,172.896652 1745.178345,167.798752 1739.333740,166.920288 
	C1732.130615,165.837616 1727.443115,169.608475 1726.092285,178.366257 
M1905.041626,166.956604 
	C1903.595459,167.718948 1901.986938,168.278366 1900.733887,169.281815 
	C1896.953003,172.309311 1896.035767,176.484894 1897.204834,180.918823 
	C1898.422607,185.536835 1901.944824,188.014267 1906.542114,188.737793 
	C1910.887207,189.421616 1914.258423,187.492035 1916.810181,184.083206 
	C1919.567505,180.399521 1919.829590,176.375122 1917.616699,172.429245 
	C1915.080444,167.907166 1910.977417,166.205872 1905.041626,166.956604 
M1878.264038,142.079117 
	C1876.281860,147.915741 1877.500244,152.913864 1881.618652,155.840378 
	C1886.926758,159.612152 1893.529785,158.479385 1897.368042,153.138565 
	C1900.734863,148.453598 1899.639526,141.476318 1895.003418,138.076736 
	C1889.539673,134.070206 1883.203247,135.390045 1878.264038,142.079117 
M1722.487671,221.057602 
	C1726.947876,224.249176 1731.535767,225.114426 1736.200806,221.564102 
	C1740.098633,218.597763 1741.942871,214.672928 1740.541138,209.815445 
	C1739.244507,205.322525 1736.240356,202.513229 1731.432007,201.818985 
	C1726.413208,201.094330 1722.551514,202.966263 1720.189209,207.279922 
	C1717.625854,211.960220 1718.260132,216.517365 1722.487671,221.057602 
M1747.831299,153.407593 
	C1752.750366,158.482849 1757.440063,159.457169 1762.367676,156.427780 
	C1767.052124,153.547867 1769.031250,148.587387 1767.452393,143.683884 
	C1765.505615,137.637909 1758.962280,134.281174 1753.177002,136.360596 
	C1746.606445,138.722275 1744.228882,145.409531 1747.831299,153.407593 
z"/>
<path fill="#030303" opacity="1.000000" stroke="none" 
	d="
M2166.518555,217.000275 
	C2166.518555,256.660126 2166.588867,295.820129 2166.485352,334.979675 
	C2166.441406,351.624908 2164.980957,368.067322 2158.795410,383.810364 
	C2149.613037,407.180786 2132.389893,421.458313 2108.716064,428.338898 
	C2085.472168,435.094543 2061.765625,434.677490 2037.946289,432.360260 
	C2021.375610,430.748138 2005.269531,427.442444 1989.788574,421.158508 
	C1987.232178,420.120819 1986.060913,419.100189 1986.103882,416.252716 
	C1986.249023,406.594208 1986.159302,396.932159 1986.159302,386.430695 
	C1990.739624,388.242645 1994.921265,389.883301 1999.092773,391.549316 
	C2018.597778,399.339447 2038.987549,402.761902 2059.854980,403.027222 
	C2069.075928,403.144440 2078.554443,402.913818 2087.498535,400.944458 
	C2109.302979,396.143311 2123.658203,381.994690 2127.586670,360.345520 
	C2130.870117,342.253540 2130.542236,323.506226 2131.813477,305.049103 
	C2131.281494,304.867157 2130.749268,304.685211 2130.217285,304.503265 
	C2129.109863,305.780701 2127.933594,307.005402 2126.905029,308.343506 
	C2115.381836,323.332001 2100.315674,332.653198 2081.766113,336.089142 
	C2062.292969,339.696167 2043.139404,338.813843 2024.526611,331.300293 
	C2007.018921,324.232910 1994.182007,311.977020 1985.136719,295.715515 
	C1970.998657,270.298248 1968.212158,242.522308 1969.090088,214.118225 
	C1969.725464,193.558792 1973.396484,173.457642 1982.646851,155.048050 
	C1998.719604,123.060738 2025.093384,106.809669 2061.097168,106.965538 
	C2085.547363,107.071396 2107.012695,114.709229 2123.988281,132.998047 
	C2126.310059,135.499374 2128.461914,138.158249 2130.692139,140.744263 
	C2131.174561,140.687927 2131.656738,140.631592 2132.138916,140.575256 
	C2133.881592,130.840637 2135.624268,121.106003 2137.397705,111.198982 
	C2146.982666,111.198982 2156.441650,111.198982 2166.518555,111.198982 
	C2166.518555,146.304306 2166.518555,181.402298 2166.518555,217.000275 
M2017.144531,278.158569 
	C2023.755371,291.713104 2033.753540,301.433990 2048.494873,305.721069 
	C2060.412354,309.186920 2072.453857,308.665314 2084.498291,306.555908 
	C2108.118896,302.419189 2121.890625,287.992371 2127.025146,265.038971 
	C2132.762207,239.391083 2131.988525,213.546646 2127.505859,187.878860 
	C2124.716797,171.907822 2118.525635,157.349518 2104.302734,147.687057 
	C2091.752197,139.160812 2077.568359,137.490204 2062.948975,137.868942 
	C2044.660278,138.342743 2030.536133,146.416672 2020.870972,161.931915 
	C2010.540283,178.515335 2007.627686,197.070114 2006.986938,216.181168 
	C2006.279785,237.269974 2007.841919,257.991180 2017.144531,278.158569 
z"/>
<path fill="#020202" opacity="1.000000" stroke="none" 
	d="
M732.246704,425.861389 
	C726.585144,423.851288 721.328064,421.884308 715.983582,419.884644 
	C715.983582,408.756592 715.983582,397.781128 715.983582,386.891357 
	C724.775696,389.981598 733.440613,393.501678 742.378113,396.074860 
	C764.587280,402.469086 787.321350,405.167908 810.315002,402.376648 
	C836.433655,399.206055 854.187683,382.525299 857.956665,356.349640 
	C860.398132,339.393402 860.193848,322.056274 861.175049,304.889801 
	C860.735840,304.705139 860.296631,304.520508 859.857483,304.335846 
	C857.304382,307.396606 854.845642,310.542236 852.182251,313.503723 
	C839.240723,327.893311 822.681641,335.199982 803.787598,337.294861 
	C778.875061,340.057068 755.413757,336.228027 735.140076,320.196106 
	C718.846802,307.311768 709.469177,289.881256 704.417480,270.250427 
	C695.576660,235.894684 695.758118,201.471863 707.079712,167.644424 
	C714.830383,144.486404 728.397705,125.171982 751.382507,115.291298 
	C784.058594,101.244492 815.868896,103.506813 845.088745,125.097099 
	C849.961670,128.697617 853.803894,133.723236 857.957397,138.242050 
	C858.802368,139.161316 858.904602,140.763245 859.349243,142.050476 
	C860.152649,141.540115 860.956055,141.029755 861.759460,140.519409 
	C863.506226,130.730591 865.253052,120.941772 867.007935,111.107407 
	C876.646423,111.107407 885.965759,111.107407 895.701172,111.107407 
	C895.798279,112.290504 895.990906,113.544289 895.991150,114.798103 
	C896.005554,189.121094 896.063538,263.444183 895.961853,337.767029 
	C895.936768,356.128723 893.559692,374.055359 885.133667,390.817383 
	C874.806274,411.361969 857.803223,423.187256 836.167358,428.953644 
	C810.634888,435.758575 784.765076,434.864746 758.917358,431.231354 
	C750.086853,429.990021 741.402283,427.709961 732.246704,425.861389 
M852.022156,278.445404 
	C853.051941,275.830444 854.359314,273.288452 855.068787,270.589325 
	C862.659485,241.711136 861.859497,212.638733 856.082092,183.666412 
	C852.932800,167.873230 845.402832,154.326660 830.929504,145.902618 
	C820.036316,139.562393 807.992676,137.881561 795.517700,137.773712 
	C769.250305,137.546616 752.448242,151.578506 744.220215,174.324554 
	C733.274353,204.584183 733.654419,235.588409 742.075928,266.415314 
	C746.270447,281.769165 754.670227,294.495728 769.220703,302.231689 
	C779.693298,307.799591 791.054810,308.652466 802.600220,307.971436 
	C823.861389,306.717346 841.742920,299.551422 852.022156,278.445404 
z"/>
<path fill="#C67035" opacity="1.000000" stroke="none" 
	d="
M1654.971436,334.003235 
	C1649.160156,334.003235 1643.843994,334.003235 1638.281982,334.003235 
	C1635.870117,323.451508 1633.516113,313.153076 1630.932251,301.848511 
	C1629.198730,303.743683 1628.047485,304.854584 1627.064819,306.098602 
	C1609.753296,328.015656 1586.947998,338.043915 1559.226807,338.128082 
	C1543.879883,338.174652 1529.011475,336.689087 1515.212280,329.322479 
	C1499.519653,320.945068 1490.073486,307.865021 1486.445435,290.630615 
	C1481.938843,269.223145 1483.405518,248.734238 1498.021729,231.122467 
	C1508.994751,217.900726 1524.117920,211.413193 1540.238281,206.973206 
	C1558.177002,202.032440 1576.583984,200.547409 1595.080200,200.092697 
	C1606.200806,199.819321 1617.333618,200.042465 1628.811768,200.042465 
	C1629.207642,186.175461 1629.640381,173.767014 1625.462402,161.719254 
	C1619.553223,144.678909 1606.129517,138.447784 1589.583618,137.191254 
	C1569.687622,135.680328 1551.006836,140.831894 1532.886963,148.494690 
	C1528.771606,150.235016 1524.711182,152.104980 1520.198730,154.104401 
	C1516.354370,144.732101 1512.594971,135.566910 1508.263306,125.006653 
	C1519.802368,120.827759 1530.798584,116.249001 1542.150024,112.859413 
	C1565.322998,105.939781 1588.994019,104.863220 1612.800903,109.076187 
	C1644.462646,114.679230 1663.809448,137.076004 1664.883545,170.422668 
	C1665.725586,196.562088 1665.492920,222.738342 1665.592896,248.898804 
	C1665.693481,275.231415 1665.615112,301.564758 1665.615112,327.897766 
	C1665.615112,329.704803 1665.615112,331.511841 1665.615112,334.003235 
	C1661.990723,334.003235 1658.728638,334.003235 1654.971436,334.003235 
M1622.885620,274.259094 
	C1629.739990,258.484253 1628.878906,241.897858 1628.626709,226.149963 
	C1617.717163,226.149963 1607.341919,225.413284 1597.114624,226.329102 
	C1583.081787,227.585709 1568.832031,228.821365 1555.260010,232.329193 
	C1525.713623,239.965836 1518.633545,262.200775 1525.049561,285.282013 
	C1527.515869,294.154633 1533.570068,300.246582 1541.939941,303.841309 
	C1553.000732,308.591705 1564.579834,308.790771 1576.271606,306.997314 
	C1596.889160,303.834808 1613.296021,294.538513 1622.885620,274.259094 
z"/>
<path fill="#C47034" opacity="1.000000" stroke="none" 
	d="
M472.608826,234.653534 
	C485.579254,217.886658 503.619171,210.683182 523.010742,206.123993 
	C546.673706,200.560532 570.883118,200.819290 594.977112,200.014923 
	C598.440491,199.899307 601.911011,199.998901 605.836182,199.998901 
	C606.088745,185.862640 606.858398,172.293243 601.425293,159.303009 
	C594.754700,143.353958 581.507507,137.950821 565.596252,137.038788 
	C546.786743,135.960617 528.977051,140.400467 511.704559,147.423615 
	C507.708099,149.048584 503.854675,151.047836 499.797180,152.484482 
	C498.771729,152.847565 496.402802,152.062469 496.027466,151.203537 
	C492.509674,143.154114 489.291351,134.973846 485.454010,125.519569 
	C496.877625,121.367523 507.849304,116.645203 519.240417,113.391159 
	C543.582153,106.437569 568.338440,104.803352 593.186401,110.743011 
	C623.828003,118.067589 637.633728,137.808731 640.915955,167.175720 
	C641.726562,174.428162 641.796997,181.789078 641.808960,189.100784 
	C641.884155,235.244232 641.846985,281.387878 641.846985,327.531433 
	C641.846985,329.492767 641.846985,331.454132 641.846985,333.705261 
	C632.820129,333.705261 624.229187,333.705261 615.225159,333.705261 
	C612.857483,323.470093 610.454102,313.080597 607.774902,301.498962 
	C603.150146,306.504395 599.439209,310.636902 595.604126,314.650818 
	C581.162659,329.765472 563.072693,336.656097 542.560059,337.813293 
	C529.564148,338.546448 516.677612,338.140930 504.041107,334.242096 
	C482.334198,327.544739 468.474182,313.442108 463.474243,291.267792 
	C459.000488,271.427124 460.414703,252.282745 472.608826,234.653534 
M503.429199,252.110245 
	C499.577850,260.306549 498.453857,268.968933 499.405945,277.875793 
	C501.031067,293.079559 509.827698,303.745361 524.836121,306.656128 
	C533.347412,308.306824 542.399048,308.580475 551.053101,307.788788 
	C568.368530,306.204712 583.433350,299.412079 594.096985,284.915161 
	C602.069702,274.076447 605.017273,261.563995 605.536255,248.407562 
	C605.841003,240.683578 605.591858,232.937744 605.591858,224.887741 
	C598.382080,225.224426 591.729248,225.332596 585.113525,225.884796 
	C569.716187,227.169937 554.210876,227.880600 538.986694,230.311203 
	C524.799011,232.576324 511.827423,238.255966 503.429199,252.110245 
z"/>
<path fill="#020202" opacity="1.000000" stroke="none" 
	d="
M1184.954712,183.893082 
	C1193.335449,160.564850 1201.685913,137.640182 1209.839722,114.645798 
	C1210.942261,111.536224 1212.217163,110.239014 1215.744995,110.320946 
	C1227.354248,110.590553 1238.973633,110.422409 1251.245728,110.422409 
	C1246.618042,122.696877 1242.221191,134.454926 1237.755859,146.186935 
	C1214.546021,207.167572 1191.278076,268.126251 1168.196411,329.155396 
	C1166.799316,332.849762 1165.282349,334.248535 1161.196167,334.122223 
	C1150.044556,333.777496 1138.874268,333.920258 1127.713867,334.061798 
	C1124.895264,334.097534 1123.341309,333.516113 1122.229736,330.568390 
	C1094.997803,258.358582 1067.645020,186.194412 1040.323730,114.018295 
	C1039.985596,113.125153 1039.775879,112.183411 1039.373413,110.812225 
	C1052.627319,110.812225 1065.538452,110.812225 1079.287720,110.812225 
	C1100.463135,173.956085 1126.740723,235.874542 1144.342773,299.179382 
	C1157.546631,261.736359 1171.204712,223.005539 1184.954712,183.893082 
z"/>
<path fill="#020202" opacity="1.000000" stroke="none" 
	d="
M227.236664,112.438660 
	C199.087784,186.517639 171.070511,260.234711 143.069946,333.907776 
	C128.735138,333.907776 114.753860,333.907776 100.377815,333.907776 
	C72.313721,259.800751 44.231628,185.646210 16.037947,111.197006 
	C16.813496,110.926453 17.523260,110.465408 18.234919,110.462463 
	C29.732346,110.414894 41.232594,110.559891 52.726025,110.339371 
	C56.079739,110.275017 56.341644,112.408714 57.117863,114.564636 
	C69.434097,148.772552 82.036949,182.880325 94.009201,217.208054 
	C102.915733,242.745499 111.022552,268.562073 119.445122,294.267609 
	C120.152740,296.427216 120.552902,298.687592 121.447769,302.335541 
	C123.100189,296.494171 124.125389,291.983734 125.642014,287.645050 
	C141.854584,241.264893 158.123886,194.904510 174.428726,148.556686 
	C178.505035,136.969467 182.834335,125.471085 186.885590,113.875359 
	C187.781891,111.309891 188.936569,110.288452 191.809814,110.342560 
	C202.470520,110.543335 213.137878,110.370415 223.800903,110.495163 
	C224.996017,110.509148 226.179413,111.525337 227.236664,112.438660 
z"/>
<path fill="#030303" opacity="1.000000" stroke="none" 
	d="
M406.865417,209.000061 
	C406.865417,250.798218 406.865417,292.096375 406.865417,333.699280 
	C394.667328,333.699280 382.740906,333.699280 370.455658,333.699280 
	C370.455658,228.692764 370.455658,123.511444 370.455658,18.114162 
	C382.462097,18.114162 394.387451,18.114162 406.865417,18.114162 
	C406.865417,81.640007 406.865417,145.070023 406.865417,209.000061 
z"/>
<path fill="#000000" opacity="1.000000" stroke="none" 
	d="
M1393.558228,204.999756 
	C1393.558228,142.539993 1393.558228,80.580261 1393.558228,18.262749 
	C1405.572998,18.262749 1417.473755,18.262749 1429.728760,18.262749 
	C1429.728760,123.169235 1429.728760,228.321594 1429.728760,333.736877 
	C1417.910400,333.736877 1406.001831,333.736877 1393.558228,333.736877 
	C1393.558228,290.960999 1393.558228,248.230377 1393.558228,204.999756 
z"/>
<path fill="#030303" opacity="1.000000" stroke="none" 
	d="
M271.038696,334.006104 
	C268.090118,334.006104 265.635376,334.006104 263.006226,334.006104 
	C263.006226,259.534851 263.006226,185.502853 263.006226,111.232323 
	C275.071686,111.232323 287.004913,111.232323 299.229309,111.232323 
	C299.229309,185.257568 299.229309,259.297028 299.229309,334.006104 
	C290.014679,334.006104 280.773621,334.006104 271.038696,334.006104 
z"/>
<path fill="#030303" opacity="1.000000" stroke="none" 
	d="
M1286.158936,300.999908 
	C1286.158936,237.532761 1286.158936,174.565659 1286.158936,111.296402 
	C1298.367065,111.296402 1310.284180,111.296402 1322.522339,111.296402 
	C1322.522339,185.280029 1322.522339,259.340271 1322.522339,333.703552 
	C1310.632935,333.703552 1298.715942,333.703552 1286.158936,333.703552 
	C1286.158936,323.027863 1286.158936,312.263916 1286.158936,300.999908 
z"/>
<path fill="#C57034" opacity="1.000000" stroke="none" 
	d="
M1873.971802,12.832076 
	C1877.443604,12.832025 1880.421265,12.832025 1884.769897,12.832025 
	C1883.785645,15.755551 1883.547119,18.429728 1882.173340,20.244751 
	C1866.054199,41.542362 1847.689941,60.732185 1827.218262,77.890953 
	C1826.125732,78.806648 1824.685181,79.851089 1823.383057,79.883263 
	C1815.770264,80.071388 1808.150635,79.975540 1799.094360,79.975540 
	C1800.326294,76.531471 1800.813477,73.657463 1802.252075,71.386185 
	C1813.886963,53.017879 1825.775635,34.810112 1837.373047,16.418495 
	C1838.984619,13.863095 1840.441895,12.691920 1843.537720,12.755680 
	C1853.513916,12.961149 1863.497070,12.832169 1873.971802,12.832076 
z"/>
<path fill="#C57035" opacity="1.000000" stroke="none" 
	d="
M572.487244,72.505478 
	C565.384583,80.636765 556.831055,83.621468 546.501953,82.070030 
	C543.591370,81.632858 540.559509,82.003258 536.266113,82.003258 
	C537.362793,78.907616 537.805786,76.219650 539.146057,74.098724 
	C551.021057,55.307507 563.030273,36.600742 575.099915,17.933733 
	C575.875793,16.733734 577.470825,15.293077 578.702759,15.276225 
	C592.484070,15.087697 606.268982,15.157167 621.633606,15.157167 
	C619.924866,18.704378 619.184692,21.826815 617.296875,23.908421 
	C602.573730,40.142860 587.629883,56.177101 572.487244,72.505478 
z"/>
<path fill="#040404" opacity="1.000000" stroke="none" 
	d="
M1306.574097,27.587864 
	C1320.478516,28.417568 1328.405640,40.057453 1325.589966,56.537174 
	C1323.480225,68.885803 1313.361816,75.663963 1301.287964,73.832550 
	C1289.522949,72.047997 1282.019653,61.550430 1283.353271,48.741207 
	C1284.898193,33.904964 1291.629761,27.638153 1306.574097,27.587864 
z"/>
<path fill="#040404" opacity="1.000000" stroke="none" 
	d="
M296.641235,33.359970 
	C303.810760,42.426155 304.454773,52.115772 300.353363,62.133938 
	C297.037384,70.233665 290.195953,73.816368 281.818115,73.907486 
	C273.367889,73.999374 266.225220,71.033913 262.583984,62.610935 
	C258.243439,52.570274 258.703033,42.814705 265.419281,34.008999 
	C271.904510,25.506201 286.799438,25.264727 296.641235,33.359970 
z"/>
<path fill="#C67238" opacity="1.000000" stroke="none" 
	d="
M1830.000000,128.074890 
	C1824.169800,133.566956 1815.663208,130.417068 1812.914795,125.515388 
	C1809.826538,120.007744 1811.664429,113.372948 1817.343994,110.110985 
	C1821.566040,107.686081 1827.684692,108.773582 1830.961182,112.531136 
	C1834.860596,117.003296 1834.650024,121.890160 1830.000000,128.074890 
z"/>
<path fill="#C67237" opacity="1.000000" stroke="none" 
	d="
M1866.619507,291.530762 
	C1869.576172,296.526123 1869.357666,301.086853 1865.810059,305.186768 
	C1862.867920,308.586578 1858.983887,309.906128 1854.576904,308.627319 
	C1850.041626,307.311218 1847.282715,304.228241 1846.472656,299.500458 
	C1845.708130,295.038635 1848.171265,290.371246 1852.561890,288.000885 
	C1857.005493,285.601837 1861.809937,286.721039 1866.619507,291.530762 
z"/>
<path fill="#C67238" opacity="1.000000" stroke="none" 
	d="
M1776.755981,295.702026 
	C1779.402710,288.898560 1783.258789,286.295197 1789.199951,286.984741 
	C1794.059204,287.548737 1797.888550,291.359344 1798.713501,296.451874 
	C1799.453003,301.016693 1796.584595,305.850616 1792.003174,308.126709 
	C1785.733154,311.241638 1775.118652,306.324951 1776.755981,295.702026 
z"/>
<path fill="#C67238" opacity="1.000000" stroke="none" 
	d="
M1741.576172,257.855347 
	C1735.533691,259.449585 1730.834229,257.958191 1728.051758,253.824341 
	C1725.257935,249.673691 1725.432373,244.853928 1728.519897,240.887451 
	C1731.589844,236.943512 1736.239990,235.433273 1740.924683,237.124390 
	C1744.949097,238.577209 1747.546387,241.373749 1748.144409,245.793640 
	C1748.882324,251.247955 1746.573608,255.076096 1741.576172,257.855347 
z"/>
<path fill="#C67237" opacity="1.000000" stroke="none" 
	d="
M1759.219360,289.166138 
	C1752.360718,289.493103 1748.217407,287.215118 1746.421143,282.394318 
	C1744.775513,277.977386 1746.200195,272.715149 1749.835571,269.807709 
	C1753.588013,266.806702 1757.648438,266.381256 1761.907349,268.545807 
	C1765.986084,270.618713 1768.115234,274.098755 1767.936035,278.606537 
	C1767.722168,283.990417 1764.699585,287.455566 1759.219360,289.166138 
z"/>
<path fill="#C67237" opacity="1.000000" stroke="none" 
	d="
M1847.853516,132.959396 
	C1843.864380,126.461319 1848.072144,118.335266 1854.966064,116.513832 
	C1861.007080,114.917793 1867.371948,119.231163 1868.512085,125.733658 
	C1869.315552,130.316086 1866.523071,135.398087 1862.038696,137.514420 
	C1857.423096,139.692749 1852.260132,138.136429 1847.853516,132.959396 
z"/>
<path fill="#C67237" opacity="1.000000" stroke="none" 
	d="
M1812.874390,300.043549 
	C1817.343750,294.472900 1821.771606,293.019287 1826.914551,295.172241 
	C1831.362915,297.034454 1834.380127,302.239838 1833.671265,306.829712 
	C1832.923096,311.674469 1828.975098,315.630920 1824.145264,316.376312 
	C1815.248413,317.749359 1809.432983,309.625946 1812.874390,300.043549 
z"/>
<path fill="#C67237" opacity="1.000000" stroke="none" 
	d="
M1911.645996,237.120193 
	C1919.857910,242.000946 1921.360596,250.219559 1915.389282,255.723343 
	C1911.520020,259.289917 1906.153320,259.714630 1901.627563,256.812500 
	C1897.412964,254.109894 1895.541748,248.285965 1897.385620,243.609619 
	C1899.240356,238.905396 1904.151001,236.061172 1909.317383,236.706314 
	C1909.975342,236.788452 1910.628418,236.908478 1911.645996,237.120193 
z"/>
<path fill="#C67237" opacity="1.000000" stroke="none" 
	d="
M1788.664062,116.251724 
	C1794.529541,117.434906 1797.992920,120.680618 1798.702026,126.256187 
	C1799.276978,130.777359 1797.169922,134.292938 1793.398438,136.740082 
	C1789.519409,139.257065 1785.515259,138.929733 1781.672974,136.716339 
	C1777.522705,134.325699 1775.672852,129.439865 1776.871216,124.682167 
	C1778.142212,119.635490 1781.945923,116.801575 1788.664062,116.251724 
z"/>
<path fill="#C67237" opacity="1.000000" stroke="none" 
	d="
M1912.796875,223.368835 
	C1906.048096,220.703171 1903.036377,215.846283 1904.390381,210.307816 
	C1905.650269,205.153778 1910.590210,201.307373 1915.632080,201.554749 
	C1922.402344,201.886978 1926.859253,207.066437 1926.246338,213.889847 
	C1925.675903,220.238724 1920.189575,224.261185 1912.796875,223.368835 
z"/>
<path fill="#C67237" opacity="1.000000" stroke="none" 
	d="
M1880.490234,270.490143 
	C1887.066772,265.884369 1894.055786,266.747742 1897.648071,272.312561 
	C1901.110229,277.675903 1899.174072,284.955719 1893.436890,288.145782 
	C1889.020630,290.601410 1883.415527,289.566284 1879.894775,285.645081 
	C1876.085815,281.403137 1876.193726,276.499542 1880.490234,270.490143 
z"/>
<path fill="#C67237" opacity="1.000000" stroke="none" 
	d="
M1726.095459,177.966858 
	C1727.443115,169.608475 1732.130615,165.837616 1739.333740,166.920288 
	C1745.178345,167.798752 1748.847046,172.896652 1748.177124,179.208603 
	C1747.641846,184.252518 1742.894165,188.692902 1737.807861,188.906891 
	C1731.922241,189.154510 1727.699463,185.355255 1726.095459,177.966858 
z"/>
<path fill="#C67237" opacity="1.000000" stroke="none" 
	d="
M1905.456909,166.902649 
	C1910.977417,166.205872 1915.080444,167.907166 1917.616699,172.429245 
	C1919.829590,176.375122 1919.567505,180.399521 1916.810181,184.083206 
	C1914.258423,187.492035 1910.887207,189.421616 1906.542114,188.737793 
	C1901.944824,188.014267 1898.422607,185.536835 1897.204834,180.918823 
	C1896.035767,176.484894 1896.953003,172.309311 1900.733887,169.281815 
	C1901.986938,168.278366 1903.595459,167.718948 1905.456909,166.902649 
z"/>
<path fill="#C67237" opacity="1.000000" stroke="none" 
	d="
M1878.496582,141.772766 
	C1883.203247,135.390045 1889.539673,134.070206 1895.003418,138.076736 
	C1899.639526,141.476318 1900.734863,148.453598 1897.368042,153.138565 
	C1893.529785,158.479385 1886.926758,159.612152 1881.618652,155.840378 
	C1877.500244,152.913864 1876.281860,147.915741 1878.496582,141.772766 
z"/>
<path fill="#C67136" opacity="1.000000" stroke="none" 
	d="
M1722.210693,220.791901 
	C1718.260132,216.517365 1717.625854,211.960220 1720.189209,207.279922 
	C1722.551514,202.966263 1726.413208,201.094330 1731.432007,201.818985 
	C1736.240356,202.513229 1739.244507,205.322525 1740.541138,209.815445 
	C1741.942871,214.672928 1740.098633,218.597763 1736.200806,221.564102 
	C1731.535767,225.114426 1726.947876,224.249176 1722.210693,220.791901 
z"/>
<path fill="#C67136" opacity="1.000000" stroke="none" 
	d="
M1747.582275,153.102539 
	C1744.228882,145.409531 1746.606445,138.722275 1753.177002,136.360596 
	C1758.962280,134.281174 1765.505615,137.637909 1767.452393,143.683884 
	C1769.031250,148.587387 1767.052124,153.547867 1762.367676,156.427780 
	C1757.440063,159.457169 1752.750366,158.482849 1747.582275,153.102539 
z"/>
<path fill="#FFFFFF" opacity="1.000000" stroke="none" 
	d="
M2016.899414,277.867340 
	C2007.841919,257.991180 2006.279785,237.269974 2006.986938,216.181168 
	C2007.627686,197.070114 2010.540283,178.515335 2020.870972,161.931915 
	C2030.536133,146.416672 2044.660278,138.342743 2062.948975,137.868942 
	C2077.568359,137.490204 2091.752197,139.160812 2104.302734,147.687057 
	C2118.525635,157.349518 2124.716797,171.907822 2127.505859,187.878860 
	C2131.988525,213.546646 2132.762207,239.391083 2127.025146,265.038971 
	C2121.890625,287.992371 2108.118896,302.419189 2084.498291,306.555908 
	C2072.453857,308.665314 2060.412354,309.186920 2048.494873,305.721069 
	C2033.753540,301.433990 2023.755371,291.713104 2016.899414,277.867340 
z"/>
<path fill="#FFFFFF" opacity="1.000000" stroke="none" 
	d="
M851.948853,278.816101 
	C841.742920,299.551422 823.861389,306.717346 802.600220,307.971436 
	C791.054810,308.652466 779.693298,307.799591 769.220703,302.231689 
	C754.670227,294.495728 746.270447,281.769165 742.075928,266.415314 
	C733.654419,235.588409 733.274353,204.584183 744.220215,174.324554 
	C752.448242,151.578506 769.250305,137.546616 795.517700,137.773712 
	C807.992676,137.881561 820.036316,139.562393 830.929504,145.902618 
	C845.402832,154.326660 852.932800,167.873230 856.082092,183.666412 
	C861.859497,212.638733 862.659485,241.711136 855.068787,270.589325 
	C854.359314,273.288452 853.051941,275.830444 851.948853,278.816101 
z"/>
<path fill="#FFFEFE" opacity="1.000000" stroke="none" 
	d="
M1622.715088,274.598999 
	C1613.296021,294.538513 1596.889160,303.834808 1576.271606,306.997314 
	C1564.579834,308.790771 1553.000732,308.591705 1541.939941,303.841309 
	C1533.570068,300.246582 1527.515869,294.154633 1525.049561,285.282013 
	C1518.633545,262.200775 1525.713623,239.965836 1555.260010,232.329193 
	C1568.832031,228.821365 1583.081787,227.585709 1597.114624,226.329102 
	C1607.341919,225.413284 1617.717163,226.149963 1628.626709,226.149963 
	C1628.878906,241.897858 1629.739990,258.484253 1622.715088,274.598999 
z"/>
<path fill="#FEFEFD" opacity="1.000000" stroke="none" 
	d="
M503.629333,251.793060 
	C511.827423,238.255966 524.799011,232.576324 538.986694,230.311203 
	C554.210876,227.880600 569.716187,227.169937 585.113525,225.884796 
	C591.729248,225.332596 598.382080,225.224426 605.591858,224.887741 
	C605.591858,232.937744 605.841003,240.683578 605.536255,248.407562 
	C605.017273,261.563995 602.069702,274.076447 594.096985,284.915161 
	C583.433350,299.412079 568.368530,306.204712 551.053101,307.788788 
	C542.399048,308.580475 533.347412,308.306824 524.836121,306.656128 
	C509.827698,303.745361 501.031067,293.079559 499.405945,277.875793 
	C498.453857,268.968933 499.577850,260.306549 503.629333,251.793060 
z"/>
</svg>