<svg version="1.1" id="Layer_1" xmlns="http://www.w3.org/2000/svg" xmlns:xlink="http://www.w3.org/1999/xlink" x="0px" y="0px"
	 width="100%" viewBox="0 0 1784 879" enable-background="new 0 0 1784 879" xml:space="preserve">
<path fill="#FFFFFF" opacity="1.000000" stroke="none" 
	d="
M1362.000000,880.000000 
	C908.000000,880.000000 454.500000,880.000000 1.000000,880.000000 
	C1.000000,587.000000 1.000000,294.000000 1.000000,1.000000 
	C595.666687,1.000000 1190.333374,1.000000 1785.000000,1.000000 
	C1785.000000,294.000000 1785.000000,587.000000 1785.000000,880.000000 
	C1644.166626,880.000000 1503.333374,880.000000 1362.000000,880.000000 
M917.034912,218.596832 
	C916.937500,219.015030 916.840027,219.433228 915.837891,219.832367 
	C807.579102,219.832367 699.320312,219.832367 591.039673,219.832367 
	C591.039673,232.878952 591.039673,245.310165 591.039673,258.317963 
	C663.598145,258.317963 735.949890,258.317963 808.186646,258.317963 
	C808.186646,277.815643 808.186646,296.733368 808.186646,314.675781 
	C791.428406,319.060669 774.953674,322.537018 759.024353,327.697174 
	C712.930237,342.628815 672.338928,367.400696 635.689087,398.828308 
	C634.444519,399.895447 633.626648,402.124176 633.593506,403.830627 
	C633.399353,413.826813 633.715210,423.835846 633.387634,433.825073 
	C633.262390,437.641754 634.689758,439.840637 637.473999,442.131744 
	C692.148499,487.122986 746.749268,532.203918 801.366882,577.264404 
	C814.977478,588.493408 828.594238,599.715027 842.286560,611.004639 
	C853.791504,602.097107 865.063416,593.370056 876.512207,584.506042 
	C869.330994,578.775635 862.544189,573.126770 855.485291,567.841309 
	C852.635254,565.707275 851.746887,563.423096 851.752747,559.920776 
	C851.863586,493.254425 851.834595,426.587799 851.834595,359.921265 
	C851.834595,358.129272 851.834595,356.337311 851.834595,353.421051 
	C862.438660,355.007141 872.537903,355.912140 882.346313,358.113251 
	C901.701843,362.456726 918.857788,371.266602 930.786377,387.587860 
	C948.601807,411.963806 948.456543,445.466553 931.606140,470.623810 
	C922.714539,483.898743 911.040344,493.736664 896.465515,500.694946 
	C906.691040,511.406555 916.667908,521.857727 926.814758,532.486938 
	C951.259399,518.262817 969.643188,498.864624 979.418518,472.331268 
	C993.541687,433.996399 989.816589,397.464355 964.940735,364.506134 
	C943.575867,336.199615 913.663147,321.824554 879.282898,316.080597 
	C870.309448,314.581390 861.179321,314.019958 852.222046,313.038849 
	C852.222046,294.806274 852.222046,276.585663 852.222046,258.432953 
	C852.926086,258.303802 853.244324,258.193970 853.562439,258.194366 
	C904.725098,258.256226 955.887817,258.346436 1007.050476,258.374268 
	C1015.030762,258.378601 1023.011230,258.100128 1031.916382,258.118805 
	C1046.981445,258.118805 1062.046631,258.118805 1077.603271,258.118805 
	C1077.603271,374.248291 1077.603271,489.483551 1077.603271,604.666382 
	C1092.362549,604.666382 1106.614258,604.666382 1121.261475,604.666382 
	C1121.261475,489.090485 1121.261475,373.847809 1121.261475,257.987885 
	C1145.184448,257.987885 1168.713501,257.987885 1192.221191,257.987885 
	C1192.221191,244.964951 1192.221191,232.564102 1192.221191,219.650909 
	C1168.115234,219.650909 1144.373657,219.650909 1120.657593,219.650909 
	C1119.935913,213.702103 1119.406860,208.246155 1118.580200,202.835663 
	C1117.751831,197.413101 1116.854126,191.982239 1115.596313,186.647064 
	C1101.606689,127.307121 1066.743042,84.012337 1013.683655,54.967308 
	C982.021667,37.635269 947.828369,28.345213 912.154053,23.802902 
	C877.399536,19.377707 842.779053,18.661325 808.317688,26.041616 
	C782.182129,31.638849 758.546448,41.846207 740.882629,62.972359 
	C724.690857,82.337906 721.180786,113.306564 732.537964,135.881912 
	C743.239868,157.154800 761.701416,168.847198 783.283020,175.950882 
	C817.206055,187.116760 851.796753,186.407471 886.437805,179.542938 
	C896.622925,177.524628 906.666260,174.791275 917.279663,172.265411 
	C917.279663,187.711212 917.279663,202.855453 917.034912,218.596832 
M1427.469971,488.024078 
	C1477.151489,529.012817 1526.833008,570.001587 1576.533325,611.005737 
	C1588.080811,602.067993 1599.375610,593.325745 1610.768311,584.507690 
	C1603.579712,578.771606 1596.661011,573.018799 1589.468750,567.631348 
	C1586.756348,565.599548 1585.931885,563.423096 1585.936157,560.153381 
	C1586.022461,493.332520 1586.000977,426.511536 1586.000977,359.690582 
	C1586.000977,357.901215 1586.000977,356.111847 1586.000977,354.249268 
	C1602.312622,354.678009 1617.655273,357.082825 1632.350342,363.076538 
	C1670.921631,378.808624 1687.899048,417.016815 1673.222168,456.008331 
	C1665.431763,476.704773 1650.731079,491.200592 1630.658447,500.680756 
	C1640.912842,511.403870 1651.004761,521.957031 1661.285522,532.707581 
	C1702.428101,506.857086 1723.928223,470.872681 1721.046753,422.064087 
	C1719.281616,392.167053 1706.058105,367.595001 1683.689697,347.870361 
	C1661.831543,328.595612 1635.782349,318.959595 1607.325195,315.088043 
	C1600.314331,314.134247 1593.215088,313.831146 1586.254272,313.237274 
	C1586.254272,294.753113 1586.254272,276.651642 1586.254272,258.006470 
	C1645.532593,258.006470 1704.560059,258.006470 1763.574951,258.006470 
	C1763.574951,245.032593 1763.574951,232.606674 1763.574951,220.134430 
	C1617.289673,220.134430 1471.263794,220.134430 1325.363281,220.134430 
	C1325.363281,232.991882 1325.363281,245.542801 1325.363281,258.369324 
	C1397.989380,258.369324 1470.251221,258.369324 1542.510742,258.369324 
	C1542.510742,277.703461 1542.510742,296.750763 1542.510742,314.745514 
	C1526.026489,318.989746 1509.837158,322.286682 1494.217529,327.343414 
	C1447.818970,342.364655 1406.819702,367.070129 1369.997559,398.849854 
	C1368.759399,399.918579 1367.956421,402.146362 1367.925171,403.851685 
	C1367.736328,414.179657 1367.943970,424.514832 1367.760620,434.842987 
	C1367.707642,437.825012 1368.721924,439.636078 1371.004150,441.499817 
	C1389.710449,456.776215 1408.296875,472.199310 1427.469971,488.024078 
M281.169312,485.500061 
	C281.169312,441.756989 281.169312,398.013885 281.169312,354.227539 
	C297.570831,354.727600 312.917755,357.078461 327.640808,363.074097 
	C359.894073,376.208496 377.157196,403.801697 372.914062,438.202545 
	C369.302704,467.481079 352.391510,487.628296 326.022614,500.726166 
	C336.053925,511.259979 346.139038,521.850342 356.220306,532.436584 
	C357.417511,531.803711 358.324829,531.395264 359.160339,530.872192 
	C392.402496,510.059784 412.120361,480.674988 416.205048,441.257843 
	C418.677979,417.394470 413.878082,395.049042 401.441681,374.710510 
	C380.364655,340.241028 347.948944,322.966339 309.218292,316.116516 
	C300.099457,314.503754 290.778473,314.033875 281.456543,313.028076 
	C281.456543,294.850555 281.456543,276.623993 281.456543,258.112488 
	C340.678131,258.112488 399.613251,258.112488 458.755066,258.112488 
	C458.755066,245.259003 458.755066,232.692978 458.755066,220.193481 
	C312.473419,220.193481 166.438339,220.193481 20.432549,220.193481 
	C20.432549,232.985703 20.432549,245.413284 20.432549,258.305328 
	C93.108643,258.305328 165.519272,258.305328 237.919220,258.305328 
	C237.919220,277.720551 237.919220,296.666046 237.919220,315.206390 
	C225.466980,318.077179 213.195969,320.368896 201.235474,323.756897 
	C150.218826,338.208160 105.541702,364.326172 65.453606,398.641815 
	C64.092026,399.807343 63.146793,402.199890 63.105999,404.044769 
	C62.881310,414.206116 63.151855,424.378662 62.908844,434.539185 
	C62.832088,437.748383 63.953022,439.617004 66.346436,441.587708 
	C124.478432,489.453217 182.539612,537.404724 240.618500,585.334778 
	C250.975525,593.881958 261.354462,602.402649 271.796173,610.995544 
	C283.390045,602.018860 294.635010,593.312378 306.022217,584.495728 
	C298.817383,578.764160 291.993103,573.159546 284.960907,567.829224 
	C282.216888,565.749268 281.040771,563.594666 281.068909,559.996765 
	C281.260712,535.499146 281.169312,510.999268 281.169312,485.500061 
M1612.787598,744.708496 
	C1630.620361,757.085327 1648.453247,769.462158 1666.472778,781.968628 
	C1674.432617,770.732056 1682.000732,760.048340 1689.837646,748.985107 
	C1644.251465,717.056030 1599.060303,685.403748 1553.643188,653.593079 
	C1545.743408,664.956726 1538.085327,675.972778 1530.269531,687.215759 
	C1557.890381,706.444031 1585.055298,725.354797 1612.787598,744.708496 
M1512.897583,825.542358 
	C1512.897583,821.978577 1512.897583,818.414734 1512.897583,814.850952 
	C1513.350952,814.620667 1513.804199,814.390381 1514.257568,814.160095 
	C1514.509033,814.773804 1514.635742,815.485840 1515.030518,815.986572 
	C1524.300293,827.746948 1533.795044,839.336670 1542.812378,851.286865 
	C1547.564575,857.584778 1553.311157,860.172974 1560.956177,858.757751 
	C1563.729736,858.244202 1566.541382,857.805725 1569.217041,856.957886 
	C1570.305664,856.613037 1571.078003,855.270203 1571.994263,854.381409 
	C1570.978394,853.619873 1569.943970,852.180969 1568.949829,852.208130 
	C1563.135010,852.367371 1559.304077,849.221313 1555.850708,845.126770 
	C1546.946533,834.569153 1538.103516,823.955994 1528.989380,813.581665 
	C1526.197998,810.404297 1526.369507,808.380432 1529.611572,805.882080 
	C1536.727783,800.398315 1543.658203,794.674194 1550.735229,789.138794 
	C1555.548828,785.373840 1560.017578,781.003662 1566.740356,780.569702 
	C1567.693237,780.508179 1568.500488,778.189697 1570.068848,775.905334 
	C1558.773193,775.905334 1549.294556,775.829102 1539.819580,775.982239 
	C1538.288208,776.007019 1536.773315,777.051025 1535.250732,777.623840 
	C1536.493774,778.584656 1537.605103,780.039856 1539.004761,780.412720 
	C1543.048096,781.489990 1543.076050,783.402405 1540.463989,785.922180 
	C1537.591797,788.692871 1534.548950,791.290039 1531.531006,793.905579 
	C1525.694336,798.963867 1519.822876,803.982117 1512.897583,809.935242 
	C1512.897583,806.816223 1512.897583,805.058533 1512.897583,803.300842 
	C1512.897461,778.305786 1512.910767,753.310669 1512.886353,728.315613 
	C1512.881226,723.085205 1510.647217,721.103333 1506.430420,722.371948 
	C1500.876587,724.042969 1495.263062,725.539490 1489.790649,727.442932 
	C1488.397583,727.927490 1487.440796,729.665955 1486.283569,730.828430 
	C1487.596191,731.542297 1488.840332,732.667419 1490.233276,732.899780 
	C1496.784180,733.992737 1498.105103,735.196106 1498.850952,741.775146 
	C1499.037842,743.422668 1498.953979,745.103516 1498.954224,746.769043 
	C1498.959229,778.762756 1498.790039,810.758118 1499.109863,842.748596 
	C1499.169067,848.659790 1497.150635,851.418579 1491.654785,852.255737 
	C1490.675781,852.404846 1489.502930,852.509338 1488.819214,853.098328 
	C1487.641235,854.113220 1486.776855,855.492554 1484.946045,857.746582 
	C1498.358765,857.746582 1509.945435,857.746582 1521.521851,857.746582 
	C1523.012085,854.240662 1521.140747,852.883850 1518.403564,852.347046 
	C1513.970947,851.477966 1512.551880,848.938721 1512.810425,844.519958 
	C1513.160034,838.541565 1512.897339,832.527405 1512.897583,825.542358 
M207.207077,801.302856 
	C207.207047,781.971863 207.207184,762.640869 207.206863,743.309875 
	C207.206772,737.810547 207.293259,732.309326 207.176682,726.812500 
	C207.083237,722.406128 205.092377,721.139832 201.131683,722.408386 
	C195.767258,724.126404 190.296570,725.520386 184.966492,727.332764 
	C183.516541,727.825745 182.408020,729.322815 181.142761,730.359070 
	C182.487122,731.229919 183.770172,732.719971 185.186890,732.860352 
	C190.269730,733.363647 193.172852,735.724487 193.489487,740.947021 
	C193.609955,742.934204 193.873795,744.919678 193.875320,746.906067 
	C193.900070,779.068909 193.768829,811.232666 194.018463,843.393555 
	C194.058945,848.607117 192.325821,851.194702 187.399353,852.010620 
	C186.257629,852.199646 184.927139,852.320251 184.082169,852.981628 
	C182.784042,853.997681 181.831085,855.454651 179.851929,857.740601 
	C193.368149,857.740601 204.968185,857.740601 216.459381,857.740601 
	C218.001083,854.021790 215.386078,853.465881 213.165802,852.151306 
	C210.959091,850.844788 207.659454,848.794556 207.566742,846.934509 
	C207.032104,836.207153 207.306046,825.439392 207.306046,813.143738 
	C209.798630,816.106567 211.387283,817.907959 212.881012,819.784912 
	C221.481674,830.592041 230.380463,841.182800 238.520416,852.327393 
	C243.094589,858.589966 248.830292,859.604553 255.595154,858.753540 
	C258.551392,858.381653 261.516113,857.795410 264.353668,856.910889 
	C265.389893,856.587830 266.068726,855.118286 266.910614,854.171753 
	C265.996674,853.482605 265.031860,852.140991 264.176880,852.207703 
	C257.384399,852.737610 253.493103,848.443726 249.670486,843.917542 
	C244.516693,837.815308 239.341095,831.731506 234.188736,825.628113 
	C229.636292,820.235229 225.102829,814.826355 220.410767,809.245850 
	C226.034027,804.700134 230.864578,800.351074 236.139832,796.632874 
	C244.447662,790.777222 250.958542,782.026245 261.981995,780.348083 
	C262.892090,780.209534 263.496124,778.060425 264.814880,775.913452 
	C253.210327,775.913452 243.230942,775.863953 233.253693,775.987854 
	C232.224304,776.000610 231.207733,777.046936 230.185226,777.613708 
	C231.094254,778.491211 231.908295,779.507507 232.936310,780.211121 
	C234.220901,781.090210 235.681519,781.711975 237.066147,782.444824 
	C236.158646,783.950439 235.536392,785.766663 234.294037,786.907715 
	C229.024261,791.747742 223.594162,796.414856 218.174866,801.089722 
	C215.011475,803.818665 211.758011,806.443298 207.651276,809.858032 
	C207.452194,806.437439 207.329849,804.335510 207.207077,801.302856 
M854.166626,810.185181 
	C854.780701,809.134094 855.162170,807.797729 856.045715,807.077148 
	C862.880554,801.503357 869.786011,796.014954 876.722717,790.567749 
	C882.183350,786.279785 887.181030,781.182556 894.718750,780.458740 
	C895.531860,780.380615 896.191223,778.700256 896.921875,777.763062 
	C895.952698,777.147034 894.991272,776.010681 894.013062,775.995972 
	C884.848694,775.858337 875.680359,775.846497 866.516479,775.996765 
	C865.388916,776.015198 864.280457,777.195679 863.163086,777.837585 
	C864.148743,778.652832 865.085327,779.538879 866.132690,780.265198 
	C867.390869,781.137756 868.743408,781.874084 870.055115,782.669434 
	C869.212097,784.037354 868.625122,785.687012 867.482605,786.725403 
	C861.939697,791.762512 856.268311,796.659546 850.600464,801.557556 
	C847.565979,804.179932 844.446899,806.704407 840.201111,810.244324 
	C840.201111,803.876282 840.201172,799.107849 840.201111,794.339417 
	C840.200928,772.173340 840.220764,750.007202 840.187317,727.841125 
	C840.178284,721.871033 838.423035,720.970764 832.775818,723.005127 
	C827.950867,724.743408 822.854431,725.716797 817.977600,727.329468 
	C816.523926,727.810120 815.405945,729.305786 814.134155,730.336365 
	C815.469727,731.214294 816.742920,732.717102 818.152161,732.857910 
	C823.223389,733.364624 826.159607,735.687073 826.468933,740.928345 
	C826.586243,742.915771 826.858093,744.900940 826.859619,746.887329 
	C826.884827,779.053162 826.754272,811.219971 827.002686,843.383850 
	C827.042847,848.588623 825.331848,851.190063 820.394348,852.009460 
	C819.088745,852.226074 817.576172,852.365967 816.603210,853.117065 
	C815.402954,854.043640 814.666992,855.571777 813.065063,857.740845 
	C826.356995,857.740845 837.957825,857.740845 849.450928,857.740845 
	C850.980652,854.025574 848.371033,853.463867 846.150879,852.148071 
	C843.946289,850.841431 840.650696,848.791504 840.558167,846.931946 
	C840.024170,836.204346 840.297668,825.436584 840.297668,813.139587 
	C842.790833,816.108765 844.377747,817.913513 845.871765,819.791992 
	C854.468933,830.602112 863.356506,841.201111 871.504822,852.340454 
	C876.079163,858.593872 881.826721,859.607483 888.592834,858.753662 
	C891.549377,858.380615 894.514771,857.795959 897.352539,856.911072 
	C898.386292,856.588745 899.061340,855.115845 899.900085,854.167969 
	C898.985107,853.479919 898.018799,852.139954 897.163391,852.207336 
	C890.603455,852.723999 886.713318,848.710754 882.974792,844.304138 
	C873.499512,833.135437 864.014709,821.974731 854.166626,810.185181 
M293.748322,856.905090 
	C306.335022,862.823914 318.623962,862.506592 330.086243,854.363708 
	C348.738159,841.112976 355.386139,818.133362 347.239319,796.325073 
	C339.131104,774.620239 313.871826,765.998535 294.709229,778.953064 
	C279.656036,789.129456 272.838165,803.749329 273.833618,822.077454 
	C274.634491,836.823486 279.962891,848.806091 293.748322,856.905090 
M907.229919,857.944031 
	C919.343079,857.944031 931.456177,857.944031 943.569336,857.944031 
	C943.877075,857.456116 944.184753,856.968201 944.492493,856.480286 
	C943.269348,855.311584 942.241089,853.544434 940.791016,853.072327 
	C931.997925,850.209045 931.965881,850.307678 931.965820,841.181946 
	C931.965759,820.373108 931.965515,799.564331 931.965454,778.755493 
	C931.965454,776.985718 931.965576,775.215881 931.965576,773.578552 
	C930.768372,773.279480 930.228577,772.951233 929.822327,773.071960 
	C922.206421,775.335938 914.587341,777.594971 907.031738,780.048035 
	C906.265503,780.296814 905.329163,781.913757 905.501587,782.656677 
	C905.693909,783.485596 906.962341,784.365601 907.934692,784.666321 
	C917.656372,787.673035 917.962097,787.987610 917.993591,798.332458 
	C918.034668,811.816528 918.007324,825.300659 918.008362,838.784790 
	C918.009155,849.587708 918.020386,849.623169 907.862000,853.046570 
	C905.026428,854.002075 904.407288,855.401489 907.229919,857.944031 
M287.313934,764.026855 
	C289.105835,766.390503 290.674164,765.871704 292.555176,763.937317 
	C297.884216,758.457275 303.357391,753.117371 308.774292,747.722778 
	C313.844910,742.673096 313.918732,742.601074 318.888855,747.653015 
	C325.036011,753.901306 331.045654,760.284851 337.051422,766.544006 
	C340.844299,764.188354 342.893280,762.581055 340.269165,758.925415 
	C333.591278,749.622681 327.148102,740.151794 320.556641,730.786438 
	C317.790314,726.855957 310.065948,726.625305 307.317291,730.492859 
	C300.585266,739.965027 293.943634,749.503357 287.430145,759.126404 
	C286.696747,760.209961 287.018127,762.007324 287.313934,764.026855 
M916.247070,748.023865 
	C915.925781,754.721741 917.552734,758.072021 921.553833,758.951660 
	C926.617798,760.064941 930.799377,758.091858 932.901001,753.166199 
	C933.714661,751.259277 933.832581,749.016479 934.054199,746.904358 
	C934.457336,743.062134 933.339905,739.992371 929.295776,738.672363 
	C925.342041,737.381775 921.991638,738.642029 919.441406,741.593872 
	C918.086609,743.161987 917.450012,745.350525 916.247070,748.023865 
z"/>
<path fill="#010101" opacity="1.000000" stroke="none" 
	d="
M1030.991577,257.952454 
	C1023.011230,258.100128 1015.030762,258.378601 1007.050476,258.374268 
	C955.887817,258.346436 904.725098,258.256226 853.562439,258.194366 
	C853.244324,258.193970 852.926086,258.303802 852.222046,258.432953 
	C852.222046,276.585663 852.222046,294.806274 852.222046,313.038849 
	C861.179321,314.019958 870.309448,314.581390 879.282898,316.080597 
	C913.663147,321.824554 943.575867,336.199615 964.940735,364.506134 
	C989.816589,397.464355 993.541687,433.996399 979.418518,472.331268 
	C969.643188,498.864624 951.259399,518.262817 926.814758,532.486938 
	C916.667908,521.857727 906.691040,511.406555 896.465515,500.694946 
	C911.040344,493.736664 922.714539,483.898743 931.606140,470.623810 
	C948.456543,445.466553 948.601807,411.963806 930.786377,387.587860 
	C918.857788,371.266602 901.701843,362.456726 882.346313,358.113251 
	C872.537903,355.912140 862.438660,355.007141 851.834595,353.421051 
	C851.834595,356.337311 851.834595,358.129272 851.834595,359.921265 
	C851.834595,426.587799 851.863586,493.254425 851.752747,559.920776 
	C851.746887,563.423096 852.635254,565.707275 855.485291,567.841309 
	C862.544189,573.126770 869.330994,578.775635 876.512207,584.506042 
	C865.063416,593.370056 853.791504,602.097107 842.286560,611.004639 
	C828.594238,599.715027 814.977478,588.493408 801.366882,577.264404 
	C746.749268,532.203918 692.148499,487.122986 637.473999,442.131744 
	C634.689758,439.840637 633.262390,437.641754 633.387634,433.825073 
	C633.715210,423.835846 633.399353,413.826813 633.593506,403.830627 
	C633.626648,402.124176 634.444519,399.895447 635.689087,398.828308 
	C672.338928,367.400696 712.930237,342.628815 759.024353,327.697174 
	C774.953674,322.537018 791.428406,319.060669 808.186646,314.675781 
	C808.186646,296.733368 808.186646,277.815643 808.186646,258.317963 
	C735.949890,258.317963 663.598145,258.317963 591.039673,258.317963 
	C591.039673,245.310165 591.039673,232.878952 591.039673,219.832367 
	C699.320312,219.832367 807.579102,219.832367 916.773682,219.886597 
	C931.220459,219.908340 944.731567,219.875839 958.695801,219.837921 
	C975.457214,219.757751 991.765381,219.626984 1008.073608,219.632904 
	C1015.713440,219.635666 1023.353149,219.902237 1030.997559,220.514771 
	C1030.998657,233.304367 1030.995117,245.628403 1030.991577,257.952454 
M698.677612,438.816559 
	C717.532227,454.686462 736.373291,470.572601 755.245422,486.421722 
	C774.014832,502.184601 792.549500,518.241211 812.120667,533.135376 
	C807.615845,474.520447 808.829407,416.405182 808.427002,357.911926 
	C758.356628,365.843109 716.379639,389.705414 677.226257,420.718201 
	C684.434448,426.785522 691.295166,432.560364 698.677612,438.816559 
z"/>
<path fill="#010101" opacity="1.000000" stroke="none" 
	d="
M1427.194824,487.801025 
	C1408.296875,472.199310 1389.710449,456.776215 1371.004150,441.499817 
	C1368.721924,439.636078 1367.707642,437.825012 1367.760620,434.842987 
	C1367.943970,424.514832 1367.736328,414.179657 1367.925171,403.851685 
	C1367.956421,402.146362 1368.759399,399.918579 1369.997559,398.849854 
	C1406.819702,367.070129 1447.818970,342.364655 1494.217529,327.343414 
	C1509.837158,322.286682 1526.026489,318.989746 1542.510742,314.745514 
	C1542.510742,296.750763 1542.510742,277.703461 1542.510742,258.369324 
	C1470.251221,258.369324 1397.989380,258.369324 1325.363281,258.369324 
	C1325.363281,245.542801 1325.363281,232.991882 1325.363281,220.134430 
	C1471.263794,220.134430 1617.289673,220.134430 1763.574951,220.134430 
	C1763.574951,232.606674 1763.574951,245.032593 1763.574951,258.006470 
	C1704.560059,258.006470 1645.532593,258.006470 1586.254272,258.006470 
	C1586.254272,276.651642 1586.254272,294.753113 1586.254272,313.237274 
	C1593.215088,313.831146 1600.314331,314.134247 1607.325195,315.088043 
	C1635.782349,318.959595 1661.831543,328.595612 1683.689697,347.870361 
	C1706.058105,367.595001 1719.281616,392.167053 1721.046753,422.064087 
	C1723.928223,470.872681 1702.428101,506.857086 1661.285522,532.707581 
	C1651.004761,521.957031 1640.912842,511.403870 1630.658447,500.680756 
	C1650.731079,491.200592 1665.431763,476.704773 1673.222168,456.008331 
	C1687.899048,417.016815 1670.921631,378.808624 1632.350342,363.076538 
	C1617.655273,357.082825 1602.312622,354.678009 1586.000977,354.249268 
	C1586.000977,356.111847 1586.000977,357.901215 1586.000977,359.690582 
	C1586.000977,426.511536 1586.022461,493.332520 1585.936157,560.153381 
	C1585.931885,563.423096 1586.756348,565.599548 1589.468750,567.631348 
	C1596.661011,573.018799 1603.579712,578.771606 1610.768311,584.507690 
	C1599.375610,593.325745 1588.080811,602.067993 1576.533325,611.005737 
	C1526.833008,570.001587 1477.151489,529.012817 1427.194824,487.801025 
M1508.765503,502.734192 
	C1521.135010,513.089233 1533.504395,523.444275 1545.873901,533.799377 
	C1546.281372,533.439880 1546.688965,533.080444 1547.096558,532.720947 
	C1541.764160,474.633698 1543.086426,416.375122 1542.777954,357.884705 
	C1492.560425,365.872864 1450.612305,389.727875 1411.457397,420.721680 
	C1443.842773,448.002899 1476.042725,475.127960 1508.765503,502.734192 
z"/>
<path fill="#010101" opacity="1.000000" stroke="none" 
	d="
M281.169312,486.000092 
	C281.169312,510.999268 281.260712,535.499146 281.068909,559.996765 
	C281.040771,563.594666 282.216888,565.749268 284.960907,567.829224 
	C291.993103,573.159546 298.817383,578.764160 306.022217,584.495728 
	C294.635010,593.312378 283.390045,602.018860 271.796173,610.995544 
	C261.354462,602.402649 250.975525,593.881958 240.618500,585.334778 
	C182.539612,537.404724 124.478432,489.453217 66.346436,441.587708 
	C63.953022,439.617004 62.832088,437.748383 62.908844,434.539185 
	C63.151855,424.378662 62.881310,414.206116 63.105999,404.044769 
	C63.146793,402.199890 64.092026,399.807343 65.453606,398.641815 
	C105.541702,364.326172 150.218826,338.208160 201.235474,323.756897 
	C213.195969,320.368896 225.466980,318.077179 237.919220,315.206390 
	C237.919220,296.666046 237.919220,277.720551 237.919220,258.305328 
	C165.519272,258.305328 93.108643,258.305328 20.432549,258.305328 
	C20.432549,245.413284 20.432549,232.985703 20.432549,220.193481 
	C166.438339,220.193481 312.473419,220.193481 458.755066,220.193481 
	C458.755066,232.692978 458.755066,245.259003 458.755066,258.112488 
	C399.613251,258.112488 340.678131,258.112488 281.456543,258.112488 
	C281.456543,276.623993 281.456543,294.850555 281.456543,313.028076 
	C290.778473,314.033875 300.099457,314.503754 309.218292,316.116516 
	C347.948944,322.966339 380.364655,340.241028 401.441681,374.710510 
	C413.878082,395.049042 418.677979,417.394470 416.205048,441.257843 
	C412.120361,480.674988 392.402496,510.059784 359.160339,530.872192 
	C358.324829,531.395264 357.417511,531.803711 356.220306,532.436584 
	C346.139038,521.850342 336.053925,511.259979 326.022614,500.726166 
	C352.391510,487.628296 369.302704,467.481079 372.914062,438.202545 
	C377.157196,403.801697 359.894073,376.208496 327.640808,363.074097 
	C312.917755,357.078461 297.570831,354.727600 281.169312,354.227539 
	C281.169312,398.013885 281.169312,441.756989 281.169312,486.000092 
M238.309982,446.278687 
	C238.309982,416.887360 238.309982,387.496063 238.309982,357.879150 
	C187.797104,365.912750 145.868820,389.781067 106.684891,420.726990 
	C151.628204,458.564667 196.273651,496.151550 241.807434,534.486328 
	C240.603363,504.138794 239.474365,475.683380 238.309982,446.278687 
z"/>
<path fill="#C46F34" opacity="1.000000" stroke="none" 
	d="
M1031.453979,258.035645 
	C1030.995117,245.628403 1030.998657,233.304367 1031.459717,220.431671 
	C1046.528076,219.883011 1061.138794,219.883011 1076.226318,219.883011 
	C1075.819702,216.241791 1075.526855,213.284958 1075.155029,210.338074 
	C1067.439209,149.207779 1034.539673,106.330139 978.985291,81.405457 
	C929.541321,59.222256 877.247009,54.840584 823.942566,62.297421 
	C809.263062,64.350967 795.078186,68.803772 783.213745,78.700600 
	C769.093384,90.479187 765.786316,111.522560 776.440552,125.830360 
	C784.614502,136.807449 796.711975,141.303955 809.432312,143.876068 
	C842.627319,150.588303 875.427795,147.002579 907.723267,138.310059 
	C921.502197,134.601395 934.829834,129.205688 948.336487,124.501846 
	C953.175171,122.816734 957.969482,124.907333 957.969788,129.070709 
	C957.971680,158.721725 957.894470,188.372757 957.384644,218.014252 
	C944.005188,218.061630 931.083435,218.118530 917.941772,218.128662 
	C917.721802,218.081924 917.279663,217.999680 917.279663,217.999680 
	C917.279663,202.855453 917.279663,187.711212 917.279663,172.265411 
	C906.666260,174.791275 896.622925,177.524628 886.437805,179.542938 
	C851.796753,186.407471 817.206055,187.116760 783.283020,175.950882 
	C761.701416,168.847198 743.239868,157.154800 732.537964,135.881912 
	C721.180786,113.306564 724.690857,82.337906 740.882629,62.972359 
	C758.546448,41.846207 782.182129,31.638849 808.317688,26.041616 
	C842.779053,18.661325 877.399536,19.377707 912.154053,23.802902 
	C947.828369,28.345213 982.021667,37.635269 1013.683655,54.967308 
	C1066.743042,84.012337 1101.606689,127.307121 1115.596313,186.647064 
	C1116.854126,191.982239 1117.751831,197.413101 1118.580200,202.835663 
	C1119.406860,208.246155 1119.935913,213.702103 1120.657593,219.650909 
	C1144.373657,219.650909 1168.115234,219.650909 1192.221191,219.650909 
	C1192.221191,232.564102 1192.221191,244.964951 1192.221191,257.987885 
	C1168.713501,257.987885 1145.184448,257.987885 1121.261475,257.987885 
	C1121.261475,373.847809 1121.261475,489.090485 1121.261475,604.666382 
	C1106.614258,604.666382 1092.362549,604.666382 1077.603271,604.666382 
	C1077.603271,489.483551 1077.603271,374.248291 1077.603271,258.118805 
	C1062.046631,258.118805 1046.981445,258.118805 1031.453979,258.035645 
z"/>
<path fill="#C57034" opacity="1.000000" stroke="none" 
	d="
M1612.503906,744.487061 
	C1585.055298,725.354797 1557.890381,706.444031 1530.269531,687.215759 
	C1538.085327,675.972778 1545.743408,664.956726 1553.643188,653.593079 
	C1599.060303,685.403748 1644.251465,717.056030 1689.837646,748.985107 
	C1682.000732,760.048340 1674.432617,770.732056 1666.472778,781.968628 
	C1648.453247,769.462158 1630.620361,757.085327 1612.503906,744.487061 
z"/>
<path fill="#ACACAC" opacity="1.000000" stroke="none" 
	d="
M1512.897461,826.035461 
	C1512.897339,832.527405 1513.160034,838.541565 1512.810425,844.519958 
	C1512.551880,848.938721 1513.970947,851.477966 1518.403564,852.347046 
	C1521.140747,852.883850 1523.012085,854.240662 1521.521851,857.746582 
	C1509.945435,857.746582 1498.358765,857.746582 1484.946045,857.746582 
	C1486.776855,855.492554 1487.641235,854.113220 1488.819214,853.098328 
	C1489.502930,852.509338 1490.675781,852.404846 1491.654785,852.255737 
	C1497.150635,851.418579 1499.169067,848.659790 1499.109863,842.748596 
	C1498.790039,810.758118 1498.959229,778.762756 1498.954224,746.769043 
	C1498.953979,745.103516 1499.037842,743.422668 1498.850952,741.775146 
	C1498.105103,735.196106 1496.784180,733.992737 1490.233276,732.899780 
	C1488.840332,732.667419 1487.596191,731.542297 1486.283447,730.828369 
	C1487.440796,729.665955 1488.397583,727.927490 1489.790649,727.442932 
	C1495.263062,725.539490 1500.876587,724.042969 1506.430420,722.371948 
	C1510.647217,721.103333 1512.881226,723.085205 1512.886353,728.315613 
	C1512.910767,753.310669 1512.897461,778.305786 1512.897583,803.300842 
	C1512.897583,805.058533 1512.897583,806.816223 1512.897583,809.935242 
	C1519.822876,803.982117 1525.694336,798.963867 1531.531006,793.905579 
	C1534.548950,791.290039 1537.591797,788.692871 1540.463989,785.922180 
	C1543.076050,783.402405 1543.048096,781.489990 1539.004761,780.412720 
	C1537.605103,780.039856 1536.493774,778.584656 1535.250732,777.623840 
	C1536.773315,777.051025 1538.288208,776.007019 1539.819580,775.982239 
	C1549.294556,775.829102 1558.773193,775.905334 1570.068848,775.905334 
	C1568.500488,778.189697 1567.693237,780.508179 1566.740356,780.569702 
	C1560.017578,781.003662 1555.548828,785.373840 1550.735229,789.138794 
	C1543.658203,794.674194 1536.727783,800.398315 1529.611572,805.882080 
	C1526.369507,808.380432 1526.197998,810.404297 1528.989380,813.581665 
	C1538.103516,823.955994 1546.946533,834.569153 1555.850708,845.126770 
	C1559.304077,849.221313 1563.135010,852.367371 1568.949829,852.208130 
	C1569.943970,852.180969 1570.978394,853.619873 1571.994263,854.381348 
	C1571.078003,855.270203 1570.305664,856.613037 1569.217041,856.957886 
	C1566.541382,857.805725 1563.729736,858.244202 1560.956177,858.757751 
	C1553.311157,860.172974 1547.564575,857.584778 1542.812378,851.286865 
	C1533.795044,839.336670 1524.300293,827.746948 1515.030518,815.986572 
	C1514.635742,815.485840 1514.509033,814.773804 1514.257568,814.160095 
	C1513.804199,814.390381 1513.350952,814.620667 1512.897583,814.850952 
	C1512.897583,818.414734 1512.897583,821.978577 1512.897461,826.035461 
z"/>
<path fill="#ABABAB" opacity="1.000000" stroke="none" 
	d="
M207.207306,801.768188 
	C207.329849,804.335510 207.452194,806.437439 207.651276,809.858032 
	C211.758011,806.443298 215.011475,803.818665 218.174866,801.089722 
	C223.594162,796.414856 229.024261,791.747742 234.294037,786.907715 
	C235.536392,785.766663 236.158646,783.950439 237.066132,782.444824 
	C235.681519,781.711975 234.220901,781.090210 232.936310,780.211121 
	C231.908295,779.507507 231.094254,778.491211 230.185226,777.613708 
	C231.207733,777.046936 232.224304,776.000610 233.253693,775.987854 
	C243.230942,775.863953 253.210327,775.913452 264.814880,775.913452 
	C263.496124,778.060425 262.892090,780.209534 261.981995,780.348083 
	C250.958542,782.026245 244.447662,790.777222 236.139832,796.632874 
	C230.864578,800.351074 226.034027,804.700134 220.410767,809.245850 
	C225.102829,814.826355 229.636292,820.235229 234.188736,825.628113 
	C239.341095,831.731506 244.516693,837.815308 249.670486,843.917542 
	C253.493103,848.443726 257.384399,852.737610 264.176880,852.207703 
	C265.031860,852.140991 265.996674,853.482605 266.910583,854.171753 
	C266.068726,855.118286 265.389893,856.587830 264.353668,856.910889 
	C261.516113,857.795410 258.551392,858.381653 255.595154,858.753540 
	C248.830292,859.604553 243.094589,858.589966 238.520416,852.327393 
	C230.380463,841.182800 221.481674,830.592041 212.881012,819.784912 
	C211.387283,817.907959 209.798630,816.106567 207.306046,813.143738 
	C207.306046,825.439392 207.032104,836.207153 207.566742,846.934509 
	C207.659454,848.794556 210.959091,850.844788 213.165802,852.151306 
	C215.386078,853.465881 218.001083,854.021790 216.459381,857.740601 
	C204.968185,857.740601 193.368149,857.740601 179.851929,857.740601 
	C181.831085,855.454651 182.784042,853.997681 184.082169,852.981628 
	C184.927139,852.320251 186.257629,852.199646 187.399353,852.010620 
	C192.325821,851.194702 194.058945,848.607117 194.018463,843.393555 
	C193.768829,811.232666 193.900070,779.068909 193.875320,746.906067 
	C193.873795,744.919678 193.609955,742.934204 193.489487,740.947021 
	C193.172852,735.724487 190.269730,733.363647 185.186890,732.860352 
	C183.770172,732.719971 182.487122,731.229919 181.142792,730.359009 
	C182.408020,729.322815 183.516541,727.825745 184.966492,727.332764 
	C190.296570,725.520386 195.767258,724.126404 201.131683,722.408386 
	C205.092377,721.139832 207.083237,722.406128 207.176682,726.812500 
	C207.293259,732.309326 207.206772,737.810547 207.206863,743.309875 
	C207.207184,762.640869 207.207047,781.971863 207.207306,801.768188 
z"/>
<path fill="#ABABAB" opacity="1.000000" stroke="none" 
	d="
M854.350220,810.497986 
	C864.014709,821.974731 873.499512,833.135437 882.974792,844.304138 
	C886.713318,848.710754 890.603455,852.723999 897.163391,852.207336 
	C898.018799,852.139954 898.985107,853.479919 899.900085,854.167969 
	C899.061340,855.115845 898.386292,856.588745 897.352539,856.911072 
	C894.514771,857.795959 891.549377,858.380615 888.592834,858.753662 
	C881.826721,859.607483 876.079163,858.593872 871.504822,852.340454 
	C863.356506,841.201111 854.468933,830.602112 845.871765,819.791992 
	C844.377747,817.913513 842.790833,816.108765 840.297668,813.139587 
	C840.297668,825.436584 840.024170,836.204346 840.558167,846.931946 
	C840.650696,848.791504 843.946289,850.841431 846.150879,852.148071 
	C848.371033,853.463867 850.980652,854.025574 849.450928,857.740845 
	C837.957825,857.740845 826.356995,857.740845 813.065063,857.740845 
	C814.666992,855.571777 815.402954,854.043640 816.603210,853.117065 
	C817.576172,852.365967 819.088745,852.226074 820.394348,852.009460 
	C825.331848,851.190063 827.042847,848.588623 827.002686,843.383850 
	C826.754272,811.219971 826.884827,779.053162 826.859619,746.887329 
	C826.858093,744.900940 826.586243,742.915771 826.468933,740.928345 
	C826.159607,735.687073 823.223389,733.364624 818.152161,732.857910 
	C816.742920,732.717102 815.469727,731.214294 814.134155,730.336426 
	C815.405945,729.305786 816.523926,727.810120 817.977600,727.329468 
	C822.854431,725.716797 827.950867,724.743408 832.775818,723.005127 
	C838.423035,720.970764 840.178284,721.871033 840.187317,727.841125 
	C840.220764,750.007202 840.200928,772.173340 840.201111,794.339417 
	C840.201172,799.107849 840.201111,803.876282 840.201111,810.244324 
	C844.446899,806.704407 847.565979,804.179932 850.600464,801.557556 
	C856.268311,796.659546 861.939697,791.762512 867.482605,786.725403 
	C868.625122,785.687012 869.212097,784.037354 870.055115,782.669434 
	C868.743408,781.874084 867.390869,781.137756 866.132690,780.265198 
	C865.085327,779.538879 864.148743,778.652832 863.163086,777.837646 
	C864.280457,777.195679 865.388916,776.015198 866.516479,775.996765 
	C875.680359,775.846497 884.848694,775.858337 894.013062,775.995972 
	C894.991272,776.010681 895.952698,777.147034 896.921875,777.763062 
	C896.191223,778.700256 895.531860,780.380615 894.718750,780.458740 
	C887.181030,781.182556 882.183350,786.279785 876.722717,790.567749 
	C869.786011,796.014954 862.880554,801.503357 856.045715,807.077148 
	C855.162170,807.797729 854.780701,809.134094 854.350220,810.497986 
z"/>
<path fill="#ACACAC" opacity="1.000000" stroke="none" 
	d="
M293.416931,856.731140 
	C279.962891,848.806091 274.634491,836.823486 273.833618,822.077454 
	C272.838165,803.749329 279.656036,789.129456 294.709229,778.953064 
	C313.871826,765.998535 339.131104,774.620239 347.239319,796.325073 
	C355.386139,818.133362 348.738159,841.112976 330.086243,854.363708 
	C318.623962,862.506592 306.335022,862.823914 293.416931,856.731140 
M324.569153,789.918579 
	C315.617523,779.240601 297.442749,782.442139 292.074646,794.835449 
	C284.995239,811.179749 285.727417,831.717285 301.704010,845.426147 
	C310.928436,853.341248 325.310913,851.016846 331.260620,840.422546 
	C340.052460,824.767334 337.418976,803.458984 324.569153,789.918579 
z"/>
<path fill="#ACACAC" opacity="1.000000" stroke="none" 
	d="
M906.821777,857.839111 
	C904.407288,855.401489 905.026428,854.002075 907.862000,853.046570 
	C918.020386,849.623169 918.009155,849.587708 918.008362,838.784790 
	C918.007324,825.300659 918.034668,811.816528 917.993591,798.332458 
	C917.962097,787.987610 917.656372,787.673035 907.934692,784.666321 
	C906.962341,784.365601 905.693909,783.485596 905.501587,782.656677 
	C905.329163,781.913757 906.265503,780.296814 907.031738,780.048035 
	C914.587341,777.594971 922.206421,775.335938 929.822327,773.071960 
	C930.228577,772.951233 930.768372,773.279480 931.965576,773.578552 
	C931.965576,775.215881 931.965454,776.985718 931.965454,778.755493 
	C931.965515,799.564331 931.965759,820.373108 931.965820,841.181946 
	C931.965881,850.307678 931.997925,850.209045 940.791016,853.072327 
	C942.241089,853.544434 943.269348,855.311584 944.492493,856.480286 
	C944.184753,856.968201 943.877075,857.456116 943.569336,857.944031 
	C931.456177,857.944031 919.343079,857.944031 906.821777,857.839111 
z"/>
<path fill="#ACACAC" opacity="1.000000" stroke="none" 
	d="
M287.082153,763.750244 
	C287.018127,762.007324 286.696747,760.209961 287.430145,759.126404 
	C293.943634,749.503357 300.585266,739.965027 307.317291,730.492859 
	C310.065948,726.625305 317.790314,726.855957 320.556641,730.786438 
	C327.148102,740.151794 333.591278,749.622681 340.269165,758.925415 
	C342.893280,762.581055 340.844299,764.188354 337.051422,766.544006 
	C331.045654,760.284851 325.036011,753.901306 318.888855,747.653015 
	C313.918732,742.601074 313.844910,742.673096 308.774292,747.722778 
	C303.357391,753.117371 297.884216,758.457275 292.555176,763.937317 
	C290.674164,765.871704 289.105835,766.390503 287.082153,763.750244 
z"/>
<path fill="#ACACAC" opacity="1.000000" stroke="none" 
	d="
M916.368164,747.641479 
	C917.450012,745.350525 918.086609,743.161987 919.441406,741.593872 
	C921.991638,738.642029 925.342041,737.381775 929.295776,738.672363 
	C933.339905,739.992371 934.457336,743.062134 934.054199,746.904358 
	C933.832581,749.016479 933.714661,751.259277 932.901001,753.166199 
	C930.799377,758.091858 926.617798,760.064941 921.553833,758.951660 
	C917.552734,758.072021 915.925781,754.721741 916.368164,747.641479 
z"/>
<path fill="#303030" opacity="1.000000" stroke="none" 
	d="
M917.157288,218.298248 
	C917.279663,217.999680 917.721802,218.081924 918.227905,218.412170 
	C931.785095,218.818344 944.836121,218.894241 958.023804,219.169006 
	C958.160400,219.367844 958.242615,219.843338 958.242615,219.843338 
	C944.731567,219.875839 931.220459,219.908340 917.226013,219.896133 
	C916.840027,219.433228 916.937500,219.015030 917.157288,218.298248 
z"/>
<path fill="#FFFEFE" opacity="1.000000" stroke="none" 
	d="
M958.695801,219.837921 
	C958.242615,219.843338 958.160400,219.367844 958.069214,218.929718 
	C957.978088,218.491608 957.842407,218.023773 957.842407,218.023773 
	C957.894470,188.372757 957.971680,158.721725 957.969788,129.070709 
	C957.969482,124.907333 953.175171,122.816734 948.336487,124.501846 
	C934.829834,129.205688 921.502197,134.601395 907.723267,138.310059 
	C875.427795,147.002579 842.627319,150.588303 809.432312,143.876068 
	C796.711975,141.303955 784.614502,136.807449 776.440552,125.830360 
	C765.786316,111.522560 769.093384,90.479187 783.213745,78.700600 
	C795.078186,68.803772 809.263062,64.350967 823.942566,62.297421 
	C877.247009,54.840584 929.541321,59.222256 978.985291,81.405457 
	C1034.539673,106.330139 1067.439209,149.207779 1075.155029,210.338074 
	C1075.526855,213.284958 1075.819702,216.241791 1076.226318,219.883011 
	C1061.138794,219.883011 1046.528076,219.883011 1031.455078,219.966125 
	C1023.353149,219.902237 1015.713440,219.635666 1008.073608,219.632904 
	C991.765381,219.626984 975.457214,219.757751 958.695801,219.837921 
z"/>
<path fill="#FDFDFD" opacity="1.000000" stroke="none" 
	d="
M698.416748,438.575867 
	C691.295166,432.560364 684.434448,426.785522 677.226257,420.718201 
	C716.379639,389.705414 758.356628,365.843109 808.427002,357.911926 
	C808.829407,416.405182 807.615845,474.520447 812.120667,533.135376 
	C792.549500,518.241211 774.014832,502.184601 755.245422,486.421722 
	C736.373291,470.572601 717.532227,454.686462 698.416748,438.575867 
z"/>
<path fill="#FEFEFE" opacity="1.000000" stroke="none" 
	d="
M1508.504150,502.493591 
	C1476.042725,475.127960 1443.842773,448.002899 1411.457397,420.721680 
	C1450.612305,389.727875 1492.560425,365.872864 1542.777954,357.884705 
	C1543.086426,416.375122 1541.764160,474.633698 1547.096558,532.720947 
	C1546.688965,533.080444 1546.281372,533.439880 1545.873901,533.799377 
	C1533.504395,523.444275 1521.135010,513.089233 1508.504150,502.493591 
z"/>
<path fill="#FEFEFE" opacity="1.000000" stroke="none" 
	d="
M238.327667,446.753326 
	C239.474365,475.683380 240.603363,504.138794 241.807434,534.486328 
	C196.273651,496.151550 151.628204,458.564667 106.684891,420.726990 
	C145.868820,389.781067 187.797104,365.912750 238.309982,357.879150 
	C238.309982,387.496063 238.309982,416.887360 238.327667,446.753326 
z"/>
<path fill="#000000" opacity="1.000000" stroke="none" 
	d="
M957.384644,218.014252 
	C957.842407,218.023773 957.978088,218.491608 957.932617,218.730881 
	C944.836121,218.894241 931.785095,218.818344 918.447876,218.458923 
	C931.083435,218.118530 944.005188,218.061630 957.384644,218.014252 
z"/>
<path fill="#FEFEFE" opacity="1.000000" stroke="none" 
	d="
M324.824799,790.167969 
	C337.418976,803.458984 340.052460,824.767334 331.260620,840.422546 
	C325.310913,851.016846 310.928436,853.341248 301.704010,845.426147 
	C285.727417,831.717285 284.995239,811.179749 292.074646,794.835449 
	C297.442749,782.442139 315.617523,779.240601 324.824799,790.167969 
z"/>
</svg>