<svg version="1.1" id="Layer_1" xmlns="http://www.w3.org/2000/svg" xmlns:xlink="http://www.w3.org/1999/xlink" x="0px" y="0px"
	 width="100%" viewBox="0 0 1024 832" enable-background="new 0 0 1024 832" xml:space="preserve">
<path fill="#000000" opacity="1.000000" stroke="none" 
	d="
M85.468658,833.000000 
	C82.395683,830.419067 78.722969,830.122253 75.598915,828.649414 
	C46.266682,814.820923 28.321997,791.729553 19.686035,760.802368 
	C14.084268,740.741272 14.197198,720.409058 15.476728,699.875061 
	C16.638321,681.233643 19.248629,662.823547 23.227428,644.626160 
	C29.292313,616.887817 38.712112,590.231323 50.233612,564.304932 
	C52.059917,560.195312 54.018410,556.142944 55.777542,552.005371 
	C56.746742,549.725769 58.131668,548.956360 60.471970,549.902039 
	C72.969582,554.952209 71.593208,552.892456 67.169441,563.770508 
	C56.955101,588.887451 49.309517,614.718933 46.669022,641.710510 
	C44.496372,663.919617 45.557957,686.119568 54.849796,706.928711 
	C66.868034,733.843689 88.453651,749.089844 116.861771,754.487854 
	C158.864746,762.469055 198.813507,756.551392 235.560059,733.978149 
	C258.278839,720.022034 274.695862,700.043945 287.062164,676.669495 
	C297.978699,656.035522 302.827576,633.745178 304.916687,610.637451 
	C307.452759,582.586060 307.587769,554.442566 308.878906,526.344299 
	C310.483826,491.418396 311.981781,456.490601 313.040497,421.542297 
	C313.766449,397.578491 314.726410,373.618835 315.876617,349.671509 
	C317.320312,319.613739 317.931854,289.464386 323.637756,259.779297 
	C328.440277,234.794067 337.386597,211.147598 347.313965,187.834229 
	C348.179504,185.801620 349.220093,184.013992 351.715027,185.394913 
	C354.432373,186.898926 359.338684,186.214706 358.367004,191.699585 
	C356.975128,199.556091 355.986145,207.461136 355.063812,215.392517 
	C353.159180,231.770584 352.219971,248.209381 351.349579,264.650360 
	C349.342438,302.563629 347.985168,340.503479 347.076630,378.460693 
	C346.638458,396.767059 345.858856,415.065155 345.263031,433.367950 
	C344.152161,467.491882 344.083710,501.687225 341.724701,535.724182 
	C338.197845,586.610901 327.217224,636.067322 308.762909,683.756165 
	C297.044067,714.039551 282.745300,742.900635 262.550232,768.547729 
	C239.362335,797.995605 211.276688,820.690552 174.894409,831.896790 
	C174.423523,832.041870 173.999619,832.339478 173.276886,832.782959 
	C143.979111,833.000000 114.958214,833.000000 85.468658,833.000000 
z"/>
<path fill="#000000" opacity="1.000000" stroke="none" 
	d="
M841.872192,197.874710 
	C830.119019,209.227051 818.582520,220.264832 808.047119,232.353500 
	C799.870850,241.735184 796.267090,252.824905 794.506287,264.557007 
	C791.117432,287.136841 790.660034,309.985626 789.245483,332.744019 
	C786.384705,378.770782 782.763489,424.710022 770.135925,469.358124 
	C765.467041,485.866394 760.017578,502.087738 751.844055,517.326111 
	C742.118530,535.457825 727.446411,548.256287 709.868713,558.251465 
	C700.168579,563.767212 690.633423,569.555298 681.617554,576.181946 
	C668.593933,585.754089 660.612122,599.056702 653.156677,612.980896 
	C641.824707,634.144714 628.893555,654.309692 614.802246,673.798401 
	C606.697449,685.007568 596.118713,690.616272 583.084656,693.404175 
	C565.309998,697.205933 547.278748,699.004578 529.295105,701.236755 
	C524.511597,701.830505 519.735352,702.530884 514.934326,702.915161 
	C512.515015,703.108765 509.443726,704.743958 508.010590,701.103577 
	C506.378754,696.958374 507.888123,692.350891 511.446655,690.421814 
	C521.551758,684.943848 531.768921,679.664856 541.765930,673.997070 
	C566.982422,659.700684 592.301697,645.560181 614.815979,627.031433 
	C623.430908,619.941528 630.360535,611.587646 635.786804,601.860352 
	C645.116699,585.135254 653.158386,567.739685 662.998596,551.260803 
	C673.516113,533.647583 687.636597,520.461121 706.144653,511.761993 
	C714.605835,507.785065 722.139282,502.178284 730.201294,497.496338 
	C742.031555,490.626007 744.599670,478.587433 747.708618,466.792633 
	C752.892761,447.125092 752.893982,426.943207 753.625427,406.844940 
	C754.467346,383.709900 754.205627,360.493805 756.079163,337.447510 
	C758.474487,307.982208 765.963135,279.534149 776.245911,251.734360 
	C789.050415,217.117203 810.527954,188.818634 837.163025,163.878418 
	C878.884888,124.811386 922.005981,87.309319 964.703796,49.332935 
	C976.916260,38.470852 988.345032,26.813261 999.550903,14.930635 
	C1000.236816,14.203281 1000.950500,13.501539 1001.623535,12.762657 
	C1003.083557,11.159686 1004.627075,10.168381 1006.856079,11.472754 
	C1008.997009,12.725628 1008.479126,14.557869 1008.016968,16.318501 
	C1005.520325,25.831633 1001.843384,34.959248 998.830078,44.294796 
	C996.341980,52.003010 992.152100,58.268723 986.693970,64.023445 
	C964.428589,87.498421 940.550964,109.262909 916.479858,130.842545 
	C891.674194,153.080704 865.853943,174.191025 841.872192,197.874710 
z"/>
<path fill="#000000" opacity="1.000000" stroke="none" 
	d="
M466.874756,532.602051 
	C463.032837,569.607788 452.646118,604.385864 438.894745,638.305969 
	C436.914490,643.190613 433.837982,641.314636 430.762085,640.839722 
	C427.530273,640.340759 426.452423,638.602478 426.988342,635.215454 
	C430.758911,611.384705 432.610321,587.372620 433.852570,563.286255 
	C435.284302,535.526550 436.114594,507.750946 436.999512,479.972565 
	C437.677643,458.686462 438.449371,437.389862 439.873444,416.144470 
	C441.565918,390.894684 447.951111,366.633179 457.429321,343.212128 
	C462.858765,329.795898 468.762146,316.571808 474.227539,303.169617 
	C475.828156,299.244659 477.909912,299.371704 481.180359,300.863525 
	C484.257355,302.267120 486.582550,302.991882 485.160797,307.604370 
	C481.475067,319.561340 480.677338,332.078156 479.341705,344.465363 
	C476.362183,372.099304 475.506165,399.884186 473.482269,427.586548 
	C472.476471,441.353912 472.099243,455.166016 471.231415,468.944885 
	C469.904053,490.019653 468.398224,511.083191 466.874756,532.602051 
z"/>
<path fill="chocolate" opacity="1.000000" stroke="none" 
	d="
M623.509766,485.522827 
	C616.007141,480.531860 608.758118,475.809967 601.620056,470.925690 
	C598.644958,468.889954 596.364380,468.647308 593.304626,471.242310 
	C576.814453,485.227448 559.884033,498.706940 544.741882,514.208923 
	C542.953064,516.040222 541.169556,517.284851 538.628784,516.094604 
	C536.027649,514.876099 537.333252,512.714600 537.549438,510.845032 
	C538.861816,499.497345 544.523560,490.130310 551.349609,481.420502 
	C563.098328,466.429504 577.077271,453.579071 591.150818,440.851501 
	C594.315063,437.989899 598.130432,437.603607 601.770691,439.875641 
	C618.613281,450.387634 634.546692,462.103088 648.176880,476.642059 
	C654.635986,483.531738 657.604553,492.192993 659.082092,501.377563 
	C659.391113,503.298096 659.784668,505.373535 657.431885,506.619720 
	C655.250549,507.775055 653.619751,506.760529 651.944214,505.577301 
	C642.568298,498.956451 633.187378,492.342590 623.509766,485.522827 
z"/>
</svg>