<svg version="1.1" id="Layer_1" xmlns="http://www.w3.org/2000/svg" xmlns:xlink="http://www.w3.org/1999/xlink" x="0px" y="0px"
	 width="100%" viewBox="0 0 1024 368" enable-background="new 0 0 1024 368" xml:space="preserve">
<path fill="#000000" opacity="1.000000" stroke="none" 
	d="
M965.468628,369.000000 
	C960.717957,365.412933 955.380005,363.292450 951.902893,358.521942 
	C939.043884,340.879974 947.278076,311.133881 967.702637,302.058289 
	C984.517273,294.586731 1003.659546,302.868408 1009.198486,319.657898 
	C1015.098633,337.542328 1008.006104,361.473938 989.250977,368.771545 
	C981.312439,369.000000 973.624817,369.000000 965.468628,369.000000 
M973.553162,321.862976 
	C970.357971,322.837646 967.250977,323.977631 964.688354,326.245728 
	C958.783325,331.472107 958.720703,341.206543 964.579712,345.515869 
	C971.681274,350.739136 986.174438,349.949615 992.661621,343.986206 
	C1000.174316,337.079956 998.411133,326.967346 989.035583,323.132751 
	C984.282837,321.188843 979.364685,320.927612 973.553162,321.862976 
z"/>
<path fill="#000000" opacity="1.000000" stroke="none" 
	d="
M28.620312,352.514709 
	C21.757111,348.611603 15.353672,344.696503 10.667912,338.616180 
	C5.562406,331.991211 9.006568,323.086273 17.207397,321.654449 
	C51.350948,315.693085 85.149796,308.394257 117.569038,295.759766 
	C142.681458,285.972931 164.543686,271.436646 182.167175,250.909943 
	C187.516464,244.679443 191.601303,237.704544 192.908829,229.281357 
	C194.134415,221.385818 191.095551,215.710098 184.935867,211.224014 
	C179.192917,207.041443 172.554794,204.800949 166.008362,202.332458 
	C153.765167,197.715805 145.534424,189.542252 143.071442,176.279373 
	C141.720337,169.003769 143.168823,161.901276 145.181000,155.090576 
	C158.527100,109.917244 179.371170,68.802887 211.868912,34.179962 
	C219.455551,26.097170 228.068481,19.304180 238.525620,15.194672 
	C245.518448,12.446591 252.637726,11.681584 260.048126,13.534918 
	C268.457581,15.638117 271.117584,20.130724 267.804321,28.242685 
	C263.334259,39.186859 258.488800,49.977699 253.804260,60.834274 
	C253.276474,62.057457 252.743317,63.278347 252.220261,64.503548 
	C249.130402,71.740982 249.167725,71.628632 241.721069,69.211739 
	C235.778076,67.282875 229.714813,67.877274 224.131287,70.281990 
	C202.585754,79.561226 186.776703,95.185066 176.722015,116.139351 
	C170.522354,129.059631 175.143112,139.447235 188.728500,146.657562 
	C193.575607,149.230118 198.677048,151.325256 203.672913,153.615356 
	C218.479065,160.402496 220.535217,169.336212 219.578964,181.756271 
	C215.704666,232.077789 196.428879,276.508698 165.321640,315.805878 
	C149.864929,335.332031 130.514145,350.275848 106.519676,358.145752 
	C80.016983,366.838348 54.043850,365.350891 28.620312,352.514709 
z"/>
<path fill="#000000" opacity="1.000000" stroke="none" 
	d="
M577.889832,142.131104 
	C581.009033,130.621399 584.547791,119.710205 590.064331,109.542137 
	C592.298889,105.423340 594.802856,101.469101 598.371704,98.371368 
	C602.148865,95.092827 606.720154,94.819763 610.279419,97.507515 
	C614.193359,100.463051 613.380737,104.059982 611.607300,107.793152 
	C610.535583,110.049217 609.481262,112.319420 608.553955,114.637222 
	C602.789124,129.046646 607.155884,140.200165 621.126404,146.800079 
	C626.397278,149.290115 631.796265,151.532135 636.949341,154.243576 
	C649.756836,160.982544 654.291748,167.914017 652.664551,184.578583 
	C648.098267,231.343460 630.490906,273.184174 602.437927,310.553741 
	C585.511047,333.102173 564.459656,350.909302 536.800598,358.977264 
	C505.595551,368.079498 476.162476,364.278107 449.488373,344.737854 
	C447.495697,343.278107 445.632751,341.505371 444.110107,339.563904 
	C438.180054,332.002808 441.673553,323.191833 451.132629,321.526215 
	C484.117584,315.718109 516.756592,308.547180 548.190552,296.686493 
	C573.884094,286.991852 596.327820,272.444519 614.521606,251.718002 
	C619.952698,245.530884 624.002197,238.543472 625.885498,230.325455 
	C627.452026,223.489807 625.093994,218.236618 620.359680,213.726151 
	C615.328430,208.932739 609.240723,205.857132 602.757263,203.516373 
	C597.570007,201.643585 592.611328,199.365494 588.074463,196.148895 
	C577.867432,188.912216 574.111511,178.613083 574.287598,166.672638 
	C574.407776,158.519577 575.858643,150.469604 577.889832,142.131104 
z"/>
<path fill="#000000" opacity="1.000000" stroke="none" 
	d="
M824.973083,200.205597 
	C808.851501,207.223785 798.154480,204.747482 784.068420,190.912079 
	C782.137085,191.982986 781.871033,194.090012 781.108765,195.849091 
	C774.969788,210.016663 767.562500,223.311539 755.447083,233.387878 
	C750.879089,237.187103 745.716125,239.770279 739.829773,240.767120 
	C732.419434,242.022018 725.359253,238.262741 723.109741,231.235336 
	C717.058533,212.332092 724.984863,184.139862 754.073120,183.026428 
	C771.086243,182.375198 778.353271,171.505661 779.584473,157.873688 
	C781.376953,138.025513 787.889771,119.647301 795.995239,101.660759 
	C797.654175,97.979553 799.981201,98.482246 802.873108,99.131264 
	C805.953186,99.822495 806.037476,101.592941 805.594055,104.334305 
	C804.072144,113.743637 803.491943,123.100868 807.027649,132.360748 
	C810.106628,140.424591 815.904663,144.647949 824.163574,145.604874 
	C837.924683,147.199326 841.190308,149.951736 842.796082,163.604263 
	C844.344299,176.767319 838.969421,193.256622 824.973083,200.205597 
z"/>
<path fill="#000000" opacity="1.000000" stroke="none" 
	d="
M1006.343994,191.207397 
	C1000.622070,205.022858 993.873657,217.679825 983.100586,227.911102 
	C974.890930,235.708038 965.286438,239.992340 954.146790,240.964142 
	C945.292786,241.736542 939.303406,237.588928 937.084045,229.014648 
	C932.201233,210.150024 940.998779,184.366364 968.097046,183.148346 
	C984.141357,182.427200 994.248535,174.040131 1002.449829,161.730453 
	C1004.107788,159.241882 1005.772034,156.695892 1006.958618,153.969742 
	C1008.602661,150.192429 1011.043335,149.895279 1014.578979,151.035080 
	C1018.624634,152.339249 1017.085083,154.960434 1016.549927,157.455734 
	C1014.103760,168.861099 1010.714417,179.981140 1006.343994,191.207397 
z"/>
<path fill="#000000" opacity="1.000000" stroke="none" 
	d="
M806.651123,275.256897 
	C820.662476,273.369324 831.738586,279.146667 837.954468,291.256958 
	C845.298401,305.565186 842.139465,325.812286 830.799194,337.118408 
	C821.229553,346.659363 804.772156,348.826996 792.376648,342.179138 
	C779.907471,335.491791 773.968994,321.815979 777.040771,306.862244 
	C780.645996,289.311890 791.257446,277.857025 806.651123,275.256897 
M804.217346,324.353271 
	C808.580566,325.158569 812.859558,324.523712 817.025757,323.305786 
	C823.851013,321.310516 828.130676,315.224640 827.828369,308.292633 
	C827.601868,303.098694 823.743958,299.189819 816.957520,297.645020 
	C812.710938,296.678345 808.353516,296.564087 804.075745,297.463135 
	C796.064392,299.146790 791.171082,304.607544 791.095764,311.700134 
	C791.021973,318.658997 794.435059,322.110809 804.217346,324.353271 
z"/>
</svg>