<svg enable-background="new 0 0 1412 592" viewBox="0 0 1412 592" xmlns="http://www.w3.org/2000/svg"><path d="m871 593c-290.29718 0-580.094421 0-869.945816 0 0-197.272614 0-394.545227 0-591.908924h1411.766739v591.908924c-180.366211 0-360.843628 0-541.820923 0m-271.989197-362.020844h173.829407c.075989 1.521897.152344 2.338761.152344 3.155625-.000916 73.651535.073486 147.303207-.0672 220.954483-.038635 20.215851-1.631348 40.321442-9.206665 59.378326-4.894409 12.3125-13.283569 21.027954-26.822876 23.663025-17.792603 3.46283-33.982544-1.167724-49.174927-10.168884-21.032043-12.460999-36.703003-30.24704-48.807373-51.127106-9.971313-17.200531-16.424072-35.650757-15.863769-55.977234.774109-28.084289 17.974792-47.729004 45.881714-50.723022 15.84375-1.699799 31.879211-1.668213 47.83435-2.248993 6.714111-.244385 9.22345-3.585083 6.837769-9.757385-3.474732-8.989899-7.095703-17.925904-10.393372-26.97992-1.005737-2.761322-2.244141-3.874359-5.309509-3.816009-10.660645.202911-21.329041-.034241-31.991638.106384-17.028504.224518-33.979004 1.344269-50.177063 7.202423-20.507447 7.416718-35.992432 20.491394-44.670655 40.872772-11.262329 26.450257-8.634033 52.729645 1.476868 78.741791 11.638855 29.94278 30.348328 55.064697 54.096375 76.369629 27.60614 24.766113 58.584777 42.505127 96.764648 45.0354 34.432861 2.281983 63.830933-10.921142 77.240784-45.495056 7.756652-19.998565 11.013366-40.885864 11.114624-62.09259.367675-76.982513.207031-153.967529.245483-230.951614.000916-1.934296.000122-3.868576.000122-6.276642 12.42041 0 24.221069 0 36.946106.146484 33.665161.003723 67.330872.095032 100.994873-.100296 4.181641-.024246 6.542542 1.168884 8.672608 4.756256 16.641967 28.027893 39.388183 50.247894 66.520568 67.936981 12.372437 8.066193 25.51648 14.948792 38.553101 22.508912v23.994201c-2.444214 0-4.588501-.10144-6.720947.015228-30.70166 1.680054-60.950135 5.74936-89.878845 16.905274-28.555237 11.011871-52.979371 27.764038-72.074891 51.864746-3.416442 4.311951-8.235107 8.856354-8.800415 13.713165-.587402 5.046906 2.969971 10.696717 5.109253 15.921387 16.840027 41.127319 43.184815 74.798767 79.744751 100.161621 42.986695 29.821228 89.719971 40.516419 140.69104 25.161316 25.751099-7.757568 47.461914-22.220093 64.381836-43.545959-6.364258-11.144288-12.709228-22.248414-19.047973-33.356049-4.170777-7.308441-7.786621-7.765076-13.560059-1.641602-21.370972 22.666352-47.983887 35.118195-78.562012 38.495819-30.375244 3.355225-58.357116-4.579406-84.083984-20.958374-22.274109-14.180847-38.44043-33.591705-49.70636-57.253967-.580688-1.219665-.346863-3.564087.483704-4.609436 15.48059-19.482849 35.019775-33.665954 58.169983-42.498871 28.080261-10.713989 57.410339-15.63153 87.382995-16.624847 11.108887-.368164 22.240235-.059479 33.835694-.059479 0-16.169281 0-31.374298 0-46.81485 34.595581 7.879456 68.939086 11.298187 104.214721 6.360993-3.23352-16.01239-6.372803-31.558777-9.530273-47.19458-29.000122 3.083221-57.416138 2.436126-85.659302-2.175782-38.391357-6.268982-73.334351-20.452606-102.52002-46.831344-7.88977-7.130875-14.876708-15.26062-23.128417-23.813294h267.061035c0 13.135025-.000122 25.964463-.000122 38.7939 0 54.828644.019653 109.657318-.052124 164.48587-.004029 3.08133.470459 5.02356 3.667846 6.581024 12.086426 5.88739 23.947998 12.234833 35.924927 18.349121 5.935669 3.030152 9.80481.598694 9.805054-6.062713.001953-72.327149.001098-144.654297.001098-216.981445 0-1.752289 0-3.504563 0-5.471741 22.764405 0 44.90857.010177 67.052735-.008576 4.445434-.003769 7.338257-4.174362 5.755615-8.252884-3.538696-9.119384-7.358032-18.140701-10.542725-27.381256-1.275512-3.700653-3.030883-4.623001-6.749145-4.615142-57.654785.121795-115.309937.085144-172.964966.085144-105.324341 0-210.648621-.002289-315.972961.003738-9.81189.000565-19.623841.053665-30.366578-.034363-84.181274.015305-168.362609.02916-252.543884.053955-2.158081.000641-4.316223.121079-7.411743.089539-30.497009-.010651-60.994019-.040833-91.490936.002029-2.679535.003769-4.588349-.24704-5.826355-3.260177-7.663819-18.652527-13.26947-37.719345-11.597107-58.162384 1.330902-16.268341 5.925049-31.347481 17.908386-43.266922 22.508637-22.388573 49.89743-27.792141 80.121063-22.584839 20.723816 3.570556 36.446961 15.63105 49.959351 30.934578 16.666138 18.875297 27.397034 41.201408 36.623901 64.330757 5.027039 12.601257 4.909973 12.647964 18.623963 12.062927 4.247253-.181198 6.158813-2.359146 5.294311-6.413834-1.834045-8.602584-3.501465-17.258697-5.794556-25.742202-8.50885-31.479531-22.33319-60.314064-44.950622-84.137089-24.137817-25.42444-53.680298-39.236528-89.272034-38.899439-33.116089.313644-61.896789 10.598078-84.773864 35.490034-16.453339 17.902504-24.927521 39.086472-26.800171 63.020508-1.842163 23.543777 3.07788 45.975235 12.205902 67.599304 1.187957 2.814255 2.190033 5.706955 3.46167 9.044861-21.435944 0-42.089081 0-63.63971-.312912-9.659454.060974-19.318939.173981-28.978393.175003-116.318207.012238-232.636414.007492-348.954613.00911-6.382198.000091-8.543068 3.081481-6.304302 9.038604 3.383224 9.002396 6.913868 17.951599 10.140792 27.009308 1.097426 3.080368 2.503928 4.310547 6.015116 4.230408 12.277643-.280228 24.5656-.108551 36.734782-.108551 14.666534 58.188721 47.789527 95.12091 104.533538 110.343109-9.009689 2.782959-18.790039 5.329376-28.22789 8.805634-32.042976 11.802459-58.563568 31.219543-79.018139 58.67749-.791515 1.06253-1.232509 3.295959-.657974 4.326599 6.22324 11.163879 11.873364 22.769653 19.233181 33.153992 20.145554 28.424377 46.550507 49.687835 77.962586 64.665771 35.494888 16.924683 72.431182 21.637573 110.818496 12.189697 9.474579-2.331909 18.761292-5.427185 28.556153-8.294983 0 14.700318.121673 29.306641-.083741 43.908387-.052764 3.750732.79181 5.847229 4.486725 7.595642 11.846222 5.605591 23.430664 11.764038 35.119599 17.702331 6.781891 3.445374 10.312805 1.330994 10.312835-6.168884.000733-113.651886.000458-227.303772.000489-340.955673 0-1.916443.00003-3.832886.00003-6.053498 16.781342 0 32.925293 0 50.013947.07428h59.15155v7.207215c0 104.996475.026733 209.992965-.094177 314.989273-.005036 4.369445 1.033691 6.922119 5.181274 8.917358 11.249573 5.411804 22.239533 11.361939 33.35199 17.060547 7.141418 3.66217 10.560181 1.56311 10.560242-6.423279.000946-111.662903.000671-223.325806.000671-334.988724 0-2.100235 0-4.200454 0-6.865585 30.829956 0 60.960388 0 92.010803.110992z" fill="#fff"/><path d="m857.978516 190.915634c9.811889-.028717 19.62384-.081817 29.43573-.082382 105.32434-.006027 210.64862-.003738 315.972961-.003738 57.655029 0 115.310181.036651 172.964966-.085144 3.718262-.007859 5.473633.914489 6.749145 4.615142 3.184693 9.240555 7.004029 18.261872 10.542725 27.381256 1.582642 4.078522-1.310181 8.249115-5.755615 8.252884-22.144165.018753-44.28833.008576-67.052735.008576v5.471741c0 72.327148.000855 144.654296-.001098 216.981445-.000244 6.661407-3.869385 9.092865-9.805054 6.062713-11.976929-6.114288-23.838501-12.461731-35.924927-18.349121-3.197387-1.557464-3.671875-3.499694-3.667846-6.581024.071777-54.828552.052124-109.657226.052124-164.48587 0-12.829437.000122-25.658875.000122-38.7939-88.523194 0-176.901978 0-267.061035 0 8.251709 8.552674 15.238647 16.682419 23.128417 23.813294 29.185669 26.378738 64.128663 40.562362 102.52002 46.831344 28.243164 4.611908 56.65918 5.259003 85.659302 2.175782 3.15747 15.635803 6.296753 31.18219 9.530273 47.19458-35.275635 4.937194-69.61914 1.518463-104.214721-6.360993v46.81485c-11.595459 0-22.726807-.308685-33.835694.059479-29.972656.993317-59.302734 5.910858-87.382995 16.624847-23.150208 8.832917-42.689393 23.016022-58.169983 42.498871-.830567 1.045349-1.064392 3.389771-.483704 4.609436 11.26593 23.662262 27.432251 43.07312 49.70636 57.253967 25.726868 16.378968 53.70874 24.313599 84.083984 20.958374 30.578125-3.377624 57.19104-15.829467 78.562012-38.495819 5.773438-6.123474 9.389282-5.666839 13.560059 1.641602 6.338745 11.107635 12.683715 22.211761 19.047973 33.356049-16.919922 21.325866-38.630737 35.788391-64.381836 43.545959-50.971069 15.355103-97.704345 4.659912-140.69104-25.161316-36.559936-25.362854-62.904724-59.034302-79.744751-100.161621-2.139282-5.22467-5.696655-10.874481-5.109253-15.921387.565308-4.856811 5.383973-9.401214 8.800415-13.713165 19.09552-24.100708 43.519654-40.852875 72.074891-51.864746 28.92871-11.155914 59.177185-15.22522 89.878845-16.905274 2.132446-.116668 4.276733-.015228 6.720947-.015228 0-8.578338 0-16.668884 0-23.994201-13.036621-7.56012-26.180664-14.442719-38.553101-22.508912-27.132385-17.689087-49.878601-39.909088-66.520568-67.936981-2.130066-3.587372-4.490967-4.780502-8.672608-4.756256-33.664001.195328-67.329712.104019-101.46759-.430572-.480164-13.535431-.487671-26.539994-.495117-39.544541z" fill="#010101"/><path d="m397.903778 230.897079c-16.143982 0-32.287933 0-49.069275 0 0 2.220612-.00003 4.137055-.00003 6.053498-.000031 113.651901.000244 227.303787-.000489 340.955673-.00003 7.499878-3.530944 9.614258-10.312835 6.168884-11.688935-5.938293-23.273377-12.09674-35.119599-17.702331-3.694915-1.748413-4.539489-3.84491-4.486725-7.595642.205414-14.601746.083741-29.208069.083741-43.908387-9.794861 2.867798-19.081574 5.963074-28.556153 8.294983-38.387314 9.447876-75.323608 4.734986-110.818496-12.189697-31.412079-14.977936-57.817032-36.241394-77.962586-64.665771-7.359817-10.384339-13.009941-21.990113-19.233181-33.153992-.574535-1.03064-.133541-3.264069.657974-4.326599 20.454571-27.457947 46.975163-46.875031 79.018139-58.67749 9.437851-3.476258 19.218201-6.022675 28.22789-8.805634-56.744011-15.222199-89.867004-52.154388-104.533538-110.343109-12.169182 0-24.457139-.171677-36.734782.108551-3.511188.080139-4.91769-1.15004-6.015116-4.230408-3.226924-9.057709-6.757568-18.006912-10.140792-27.009308-2.238766-5.957123-.077896-9.038513 6.304302-9.038604 116.318199-.001618 232.636406.003128 348.954613-.00911 9.659454-.001022 19.318939-.114029 29.410064.45285.396759 13.625779.361817 26.623719.326874 39.621643m-169.496536 143.018357c-46.741043 5.103058-89.610291 18.509796-121.034828 56.455932 6.263374 9.897889 18.123222 22.603302 26.325966 28.298859 22.405868 15.557434 47.13681 24.248016 74.448181 25.676086 31.072311 1.624634 60.177139-4.721893 87.111679-20.576171 2.738159-1.611725 3.856506-3.239319 3.835571-6.554413-.168335-26.660248-.094208-53.321991-.094208-79.983277 0-1.61972 0-3.239471 0-6.037841-23.529358.89154-46.607406 1.766021-70.592361 2.720825m-94.336319-95.536438c18.950516 28.65451 45.492004 46.175842 79.57634 49.113403 27.96344 2.410034 56.219863 1.421784 84.346847 1.914002.263123.004577.53244-.344452.696808-.457947 0-32.641754 0-65.207855 0-97.723755-61.043777 0-121.778488 0-182.576271 0 2.470467 16.959656 8.917992 32.163116 17.956276 47.154297z" fill="#010101"/><path d="m857.513062 190.857269c.4729 13.062912.480407 26.067475.498413 39.529663-11.790162.457627-23.590821.457627-36.011231.457627 0 2.408066.000794 4.342346-.000122 6.276642-.038452 76.984085.122192 153.969101-.245483 230.951614-.101258 21.206726-3.357972 42.094025-11.114624 62.09259-13.409851 34.573914-42.807923 47.777039-77.240784 45.495056-38.179871-2.530273-69.158508-20.269287-96.764648-45.0354-23.748047-21.304932-42.45752-46.426849-54.096375-76.369629-10.110901-26.012146-12.739197-52.291534-1.476868-78.741791 8.678223-20.381378 24.163208-33.456054 44.670655-40.872772 16.198059-5.858154 33.148559-6.977905 50.177063-7.202423 10.662597-.140625 21.330993.096527 31.991638-.106384 3.065368-.05835 4.303772 1.054687 5.309509 3.816009 3.297669 9.054016 6.91864 17.990021 10.393372 26.97992 2.385681 6.172302-.123658 9.513-6.837769 9.757385-15.955139.58078-31.9906.549194-47.83435 2.248993-27.906922 2.994018-45.107605 22.638733-45.881714 50.723022-.560303 20.326477 5.892456 38.776703 15.863769 55.977234 12.10437 20.880066 27.77533 38.666107 48.807373 51.127106 15.192383 9.00116 31.382324 13.631714 49.174927 10.168884 13.539307-2.635071 21.928467-11.350525 26.822876-23.663025 7.575317-19.056884 9.16803-39.162475 9.206665-59.378326.140686-73.651276.066284-147.302948.0672-220.954483 0-.816864-.076355-1.633728-.152344-3.155625-58.008179 0-115.918823 0-174.32251-.513854-.491455-13.484833-.489807-26.455811-.48822-39.426804 2.158081-.064575 4.316223-.185013 6.474304-.185654 84.181275-.024795 168.36261-.03865 253.009278.004425z" fill="#c46f34"/><path d="m597.560791 190.990448c.467102 13.019043.465454 25.990021.496948 39.419373-30.097351.458343-60.227783.458343-91.057739.458343v6.865585c0 111.662918.000275 223.325821-.000671 334.988724-.000061 7.986389-3.418824 10.085449-10.560242 6.423279-11.112457-5.698608-22.102417-11.648743-33.35199-17.060547-4.147583-1.995239-5.18631-4.547913-5.181274-8.917358.12091-104.996308.094177-209.992798.094177-314.989273 0-2.141114 0-4.282227 0-7.207215-19.969452 0-39.560516 0-59.623901-.03714-.437378-13.035064-.402436-26.033004-.350464-39.502334 20.670227-.47139 41.323364-.47139 62.759308-.47139-1.271637-3.337906-2.273713-6.230606-3.46167-9.044861-9.128022-21.624069-14.048065-44.055527-12.205902-67.599304 1.87265-23.934036 10.346832-45.118004 26.800171-63.020508 22.877075-24.891956 51.657775-35.17639 84.773864-35.490034 35.591736-.337089 65.134217 13.474999 89.272034 38.899439 22.617432 23.823025 36.441772 52.657558 44.950622 84.137089 2.293091 8.483505 3.960511 17.139618 5.794556 25.742202.864502 4.054688-1.047058 6.232636-5.294311 6.413834-13.71399.585037-13.596924.53833-18.623963-12.062927-9.226867-23.129349-19.957763-45.45546-36.623901-64.330757-13.51239-15.303528-29.235535-27.364022-49.959351-30.934578-30.223633-5.207302-57.612426.196266-80.121063 22.584839-11.983337 11.919441-16.577484 26.998581-17.908386 43.266922-1.672363 20.443039 3.933288 39.509857 11.597107 58.162384 1.238006 3.013137 3.14682 3.263946 5.826355 3.260177 30.496917-.042862 60.993927-.01268 91.959686.046036z" fill="#cdb591"/><g fill="#fefefe"><path d="m228.860687 373.875244c23.53151-.914612 46.609558-1.789093 70.138916-2.680633v6.037841c0 26.661286-.074127 53.323029.094208 79.983277.020935 3.315094-1.097412 4.942688-3.835571 6.554413-26.93454 15.854278-56.039368 22.200805-87.111679 20.576171-27.311371-1.42807-52.042313-10.118652-74.448181-25.676086-8.202744-5.695557-20.062592-18.40097-26.325966-28.298859 31.424537-37.946136 74.293785-51.352874 121.488273-56.496124z"/><path d="m133.898743 278.059326c-8.866104-14.671509-15.313629-29.874969-17.784096-46.834625h182.576271v97.723755c-.164368.113495-.433685.462524-.696808.457947-28.126984-.492218-56.383407.496032-84.346847-1.914002-34.084336-2.937561-60.625824-20.458893-79.74852-49.433075z"/></g></svg>