<svg enable-background="new 0 0 964 672" viewBox="0 0 964 672" xmlns="http://www.w3.org/2000/svg"><path d="m597 673c-198.999939 0-397.499878 0-595.999867 0-.000044-223.999878-.000044-447.999741-.000089-671.999717 321.333055-.000094 642.666155-.000094 963.999468-.000189.000122 223.999616.000122 447.999326.000305 671.999479-122.499817.000427-244.999817.000427-367.999817.000427m101.999634-195.5v26.163513h44.491882c0-102.96048 0-205.584472 0-308.39711h100.467835v169.971146h44.20642c0-56.846771 0-113.432434 0-170.524018h60.294678c0-12.577987 0-24.645202 0-36.624145-83.29779 0-166.222595 0-249.460815 0v5.163742c0 31.332703-.081543 62.665878.105408 93.997452.022827 3.822967-1.262574 5.889648-4.261902 8.043396-26.645874 19.134125-53.160462 38.450989-79.720337 57.704925-1.004151.727936-2.075379 1.363312-3.670655 2.404053-.131103-1.922638-.228881-3.198669-.303833-4.476074-2.382568-40.601135-7.511047-80.881485-13.933044-121.020783-.492737-3.07965-1.872498-4.089004-4.495972-4.855072-8.463073-2.471191-16.906982-5.023315-25.277099-7.789566-3.086853-1.020141-5.518982-.906875-8.206299 1.151169-15.988892 12.244736-32.287293 24.093399-48.082886 36.579773-13.169525 10.410568-25.791595 21.513703-39.300293 32.850678-4.737457-34.100541-10.123993-67.343827-19.755005-99.895752-144.332702 0-288.410644 0-432.709732 0v37.053131h5.038359c19.999594 0 40.000269.10672 59.997805-.096146 3.699401-.037521 5.29216.997803 5.952476 4.648361 1.919693 10.612915 4.686104 21.097702 6.12809 31.766877 3.189712 23.600509 1.787704 47.161773-6.448708 69.497985-7.68901 20.851777-17.500045 40.919617-26.293293 61.368531-.627357 1.458923-1.329879 3.627441-.710979 4.767883 7.936943 14.625458 18.10144 27.601227 30.797508 38.340485 22.77726 19.266754 48.971802 31.412567 78.644135 35.177642 34.260086 4.34726 67.439422.680726 98.649872-15.241119 1.236663-.63089 2.584991-1.042908 4.557739-1.825134v80.241119h44.611816c0-103.090881 0-205.828461 0-308.332001h97.476166c3.727753 28.33635 7.605865 56.508927 11.031708 84.73639.904998 7.456726 1.476288 14.855621-1.691284 22.490081-10.368226 24.989289-19.823121 50.355988-29.944214 75.450531-2.234955 5.541321-1.490631 10.080323 1.516052 14.840088 11.561737 18.302918 36.147674 19.47641 51.098694 2.614594 9.537811-10.756806 15.567749-23.378571 18.769928-37.044403 3.633148-15.505371 5.678253-31.379822 8.568207-47.065338.48233-2.617768 1.018432-5.876496 2.769653-7.50821 16.333282-15.21817 32.762146-30.345123 49.53302-45.077697 9.185608-8.069199 19.081421-15.32988 29.053894-23.271271 5.444397 34.354339 7.430786 67.907684 8.38623 101.539093.058533 2.060425-.606079 4.248962-1.368286 6.209045-11.733642 30.172455-23.560119 60.308838-35.274475 90.488739-.671448 1.72992-1.193542 3.936981-.7229 5.625916 4.509155 16.181824 21.931946 25.352173 37.893127 19.966858 13.652161-4.606201 21.315674-15.538727 27.52417-27.497467 7.768128-14.963105 10.876953-31.356049 13.079285-47.9068.543396-4.083984 1.714538-7.223022 5.385498-9.911163 17.197876-12.593689 34.056579-25.6492 51.149597-38.387878 11.140076-8.302247 22.473999-16.344361 34.452759-25.033692zm-430.047821-366.223518c1.229217-.761414 2.458435-1.522835 3.795776-2.351235-1.251282-2.550377-2.415161-4.732658-3.412537-6.988563-4.160125-9.409676-5.544952-19.052536-2.748596-29.171234 3.187561-11.534169 13.161377-20.503232 24.597016-21.799782 13.205139-1.497174 26.166473 4.614185 31.497619 15.559929 6.184296 12.697486 5.121247 25.412666-1.296234 37.813186-.805298 1.556046-1.611389 3.111672-2.510498 4.84787 8.480835 4.501549 16.601288 8.682495 24.576965 13.123367 2.419648 1.347268 3.827729.789841 5.583039-1.004264 24.486999-25.028244 18.919922-64.574814-.714539-83.543541-14.290893-13.806349-31.552917-20.104411-51.043426-20.366738-23.294892-.313532-43.452713 6.945437-58.338776 25.918373-15.963943 20.346779-17.943512 55.953667 2.823761 77.162728 2.457398 2.509689 4.394287 3.272186 7.653473 1.358215 6.157288-3.615898 12.575806-6.78698 19.536957-10.558311m-6.879181 504.457649c-.978638.199463-1.96463.368347-2.934876.6026-42.980362 10.376709-85.557586 8.175049-127.637405-4.650452-9.721642-2.963073-18.97403-7.465759-28.617386-11.330139-4.366012 9.177124-8.756203 18.40509-13.107231 27.550781 64.070305 43.70636 174.446861 38.228577 229.240562-.338134-4.411102-9.200379-8.83728-18.432312-12.779358-26.654419-14.800018 4.949096-29.09851 9.730529-44.164306 14.819763m-156.906227-82.071594c-3.111237 6.57257-6.222473 13.145202-9.309632 19.666931 54.797005 39.96405 159.463311 42.912536 217.234383-.022095-4.411133-9.182495-8.842163-18.406372-13.3862-27.865417-30.384308 14.816162-61.731552 23.372131-95.413086 22.917602-33.400909-.450806-65.25-6.722595-95.046631-23.008972-1.40982 2.919922-2.554344 5.290405-4.078834 8.311951m780.970253-434.046585c9.39154-10.64309 10.644226-22.918442 5.407165-35.410027-5.26654-12.562046-15.736755-18.360058-29.369079-18.496117-13.200806-.131748-23.499512 5.0355-29.098572 17.177082-5.623352 12.194157-4.664978 24.159558 3.43219 35.329953 10.832397 14.943779 37.375427 15.309547 49.628296 1.399109z" fill="#fff"/><path d="m698.999634 477c0-55.450043 0-110.400085 0-166.427643-11.97876 8.689331-23.312683 16.731445-34.452759 25.033692-17.093018 12.738678-33.951721 25.794189-51.149597 38.387878-3.67096 2.688141-4.842102 5.827179-5.385498 9.911163-2.202332 16.550751-5.311157 32.943695-13.079285 47.9068-6.208496 11.95874-13.872009 22.891266-27.52417 27.497467-15.961181 5.385315-33.383972-3.785034-37.893127-19.966858-.470642-1.688935.051452-3.895996.7229-5.625916 11.714356-30.179901 23.540833-60.316284 35.274475-90.488739.762207-1.960083 1.426819-4.14862 1.368286-6.209045-.955444-33.631409-2.941833-67.184754-8.38623-101.539093-9.972473 7.941391-19.868286 15.202072-29.053894 23.271271-16.770874 14.732574-33.199738 29.859527-49.53302 45.077697-1.751221 1.631714-2.287323 4.890442-2.769653 7.50821-2.889954 15.685516-4.935059 31.559967-8.568207 47.065338-3.202179 13.665832-9.232117 26.287597-18.769928 37.044403-14.95102 16.861816-39.536957 15.688324-51.098694-2.614594-3.006683-4.759765-3.751007-9.298767-1.516052-14.840088 10.121093-25.094543 19.575988-50.461242 29.944214-75.450531 3.167572-7.63446 2.596282-15.033355 1.691284-22.490081-3.425843-28.227463-7.303955-56.40004-11.031708-84.73639-33.200256 0-65.138306 0-97.476166 0v308.332001c-14.962738 0-29.534424 0-44.611816 0 0-26.396698 0-52.963318 0-80.241119-1.972748.782226-3.321076 1.194244-4.557739 1.825134-31.21045 15.921845-64.389786 19.588379-98.649872 15.241119-29.672333-3.765075-55.866875-15.910888-78.644135-35.177642-12.696068-10.739258-22.860565-23.715027-30.797508-38.340485-.6189-1.140442.083622-3.30896.710979-4.767883 8.793248-20.448914 18.604283-40.516754 26.293293-61.368531 8.236412-22.336212 9.63842-45.897476 6.448708-69.497985-1.441986-10.669175-4.208397-21.153962-6.12809-31.766877-.660316-3.650558-2.253075-4.685882-5.952476-4.648361-19.997536.202866-39.998211.096146-59.997805.096146-1.61817 0-3.236338 0-5.038359 0 0-12.55542 0-24.635056 0-37.053131h432.709732c9.631012 32.551925 15.017548 65.795211 19.755005 99.895752 13.508698-11.336975 26.130768-22.44011 39.300293-32.850678 15.795593-12.486374 32.093994-24.335037 48.082886-36.579773 2.687317-2.058044 5.119446-2.17131 8.206299-1.151169 8.370117 2.766251 16.814026 5.318375 25.277099 7.789566 2.623474.766068 4.003235 1.775422 4.495972 4.855072 6.421997 40.139298 11.550476 80.419648 13.933044 121.020783.074952 1.277405.17273 2.553436.303833 4.476074 1.595276-1.040741 2.666504-1.676117 3.670655-2.404053 26.559875-19.253936 53.074463-38.5708 79.720337-57.704925 2.999328-2.153748 4.284729-4.220429 4.261902-8.043396-.186951-31.331574-.105408-62.664749-.105408-93.997452 0-1.636703 0-3.273407 0-5.163742h249.460815v36.624145c-19.789673 0-39.840576 0-60.294678 0v170.524018c-14.841674 0-29.279052 0-44.20642 0 0-56.604187 0-113.155731 0-169.971146-33.727051 0-66.965882 0-100.467835 0v308.39711c-14.808716 0-29.361694 0-44.491882 0 0-8.634918 0-17.399231 0-26.663513m-423.491028-146.499695c0-45.092468 0-90.184936 0-135.308838-47.817856 0-95.070709 0-142.300781 0-.041535.357941-.111161.536499-.072174.686875.415756 1.604141.813232 3.214309 1.28218 4.803207 11.990998 40.629471 10.171891 80.908173-3.856567 120.613342-4.751198 13.447419-11.111381 26.322876-16.567085 39.529602-.633538 1.533661-.962044 4.205536-.104164 5.176484 5.044731 5.709594 9.970848 11.713623 15.884262 16.430877 18.680237 14.901612 40.561722 20.816254 64.15332 21.290894 28.851578.580444 55.40622-5.955841 78.206223-24.679688 2.648986-2.175415 3.473205-4.328979 3.437072-7.564636-.148834-13.324585-.062286-26.651825-.062286-40.978119z" fill="#010101"/><path d="m268.626221 111.484177c-6.635559 3.563636-13.054077 6.734718-19.211365 10.350616-3.259186 1.913971-5.196075 1.151474-7.653473-1.358215-20.767273-21.209061-18.787704-56.815949-2.823761-77.162728 14.886063-18.972936 35.043884-26.231905 58.338776-25.918373 19.490509.262327 36.752533 6.560389 51.043426 20.366738 19.634461 18.968727 25.201538 58.515297.714539 83.543541-1.75531 1.794105-3.163391 2.351532-5.583039 1.004264-7.975677-4.440872-16.09613-8.621818-24.576965-13.123367.899109-1.736198 1.7052-3.291824 2.510498-4.84787 6.417481-12.40052 7.48053-25.1157 1.296234-37.813186-5.331146-10.945744-18.29248-17.057103-31.497619-15.559929-11.435639 1.29655-21.409455 10.265613-24.597016 21.799782-2.796356 10.118698-1.411529 19.761558 2.748596 29.171234.997376 2.255905 2.161255 4.438186 3.412537 6.988563-1.337341.8284-2.566559 1.589821-4.121368 2.55893z" fill="#c57034"/><path d="m262.456299 615.5802c14.682129-4.935303 28.980621-9.716736 43.780639-14.665832 3.942078 8.222107 8.368256 17.45404 12.779358 26.654419-54.793701 38.566711-165.170257 44.044494-229.240562.338134 4.351028-9.145691 8.741219-18.373657 13.107231-27.550781 9.643356 3.86438 18.895744 8.367066 28.617386 11.330139 42.079819 12.825501 84.657043 15.027161 127.637405 4.650452.970246-.234253 1.956238-.403137 3.318543-.756531z" fill="#020202"/><path d="m105.356384 533.337036c1.334511-2.696045 2.479035-5.066528 3.888855-7.98645 29.796631 16.286377 61.645722 22.558166 95.046631 23.008972 33.681534.454529 65.028778-8.10144 95.413086-22.917602 4.544037 9.459045 8.975067 18.682922 13.3862 27.865417-57.771072 42.934631-162.437378 39.986145-217.234383.022095 3.087159-6.521729 6.198395-13.094361 9.499611-19.992432z" fill="#020202"/><path d="m885.910278 99.892075c-12.026489 13.634315-38.569519 13.268547-49.401916-1.675232-8.097168-11.170395-9.055542-23.135796-3.43219-35.329953 5.59906-12.141582 15.897766-17.30883 29.098572-17.177082 13.632324.136059 24.102539 5.934071 29.369079 18.496117 5.237061 12.491585 3.984375 24.766937-5.633545 35.68615z" fill="#c57034"/><path d="m275.508606 331.000305c0 13.826294-.086548 27.153534.062286 40.478119.036133 3.235657-.788086 5.389221-3.437072 7.564636-22.800003 18.723847-49.354645 25.260132-78.206223 24.679688-23.591598-.47464-45.473083-6.389282-64.15332-21.290894-5.913414-4.717254-10.839531-10.721283-15.884262-16.430877-.85788-.970948-.529374-3.642823.104164-5.176484 5.455704-13.206726 11.815887-26.082183 16.567085-39.529602 14.028458-39.705169 15.847565-79.983871 3.856567-120.613342-.468948-1.588898-.866424-3.199066-1.28218-4.803207-.038987-.150376.030639-.328934.072174-.686875h142.300781z" fill="#fefefe"/></svg>