<svg version="1.1" id="Layer_1" xmlns="http://www.w3.org/2000/svg" xmlns:xlink="http://www.w3.org/1999/xlink" x="0px" y="0px"
	 width="100%" viewBox="0 0 1980 546" enable-background="new 0 0 1980 546" xml:space="preserve">
<path fill="#FEFEFE" opacity="1.000000" stroke="none" 
	d="
M1290.000000,547.000000 
	C860.000000,547.000000 430.500000,547.000000 1.000000,547.000000 
	C1.000000,365.000000 1.000000,183.000000 1.000000,1.000000 
	C661.000000,1.000000 1321.000000,1.000000 1981.000000,1.000000 
	C1981.000000,183.000000 1981.000000,365.000000 1981.000000,547.000000 
	C1750.833374,547.000000 1520.666626,547.000000 1290.000000,547.000000 
M1899.493652,507.500000 
	C1899.493652,410.734497 1899.493652,313.968994 1899.493652,216.770142 
	C1921.055176,216.770142 1941.967407,216.770142 1962.720215,216.770142 
	C1962.720215,204.235931 1962.720215,192.138031 1962.720215,179.609314 
	C1941.547729,179.609314 1920.652710,179.609314 1899.493652,179.609314 
	C1899.493652,160.526749 1899.772827,141.874405 1899.378296,123.236320 
	C1899.174683,113.621086 1898.679565,103.844353 1896.745117,94.464577 
	C1890.726685,65.280571 1874.066895,44.051823 1846.512329,32.277996 
	C1820.238403,21.051386 1793.072388,20.499855 1765.861084,28.430565 
	C1749.347778,33.243294 1735.415039,42.572208 1724.610229,56.113979 
	C1706.580688,78.711037 1704.432129,105.251274 1705.763062,132.750580 
	C1720.546875,132.750580 1735.126709,132.750580 1750.269043,132.750580 
	C1750.269043,125.873962 1749.936768,119.219910 1750.327759,112.608635 
	C1751.836060,87.107445 1763.942871,65.458603 1790.950562,61.536083 
	C1811.799561,58.508041 1830.153809,62.703468 1843.759277,79.939384 
	C1851.106689,89.247208 1854.371216,100.431885 1854.651855,112.067459 
	C1855.182495,134.054703 1854.924683,156.061050 1854.976196,178.059464 
	C1854.977295,178.518982 1854.759521,178.979004 1854.553589,179.797974 
	C1469.838989,179.797974 1085.143066,179.797974 699.973511,179.797974 
	C699.973511,235.748856 699.973511,291.315979 699.973511,346.812714 
	C656.119507,346.812714 612.740417,346.812714 569.305969,346.812714 
	C565.931641,290.641479 561.749146,234.913849 549.915222,179.832397 
	C547.832825,179.832397 546.016357,179.832382 544.199890,179.832382 
	C499.211578,179.832382 454.223114,179.782074 409.235260,179.926773 
	C405.590698,179.938492 403.712769,179.012817 402.142120,175.609863 
	C393.576630,157.051788 384.762054,138.608215 375.972717,120.154053 
	C364.988708,97.091988 353.038269,74.670067 335.264252,55.861492 
	C320.463776,40.199490 303.569519,27.847555 282.614075,21.974577 
	C248.233078,12.338963 213.839066,14.212743 179.298965,22.505507 
	C182.037460,34.463528 184.739426,46.262070 187.501205,58.321804 
	C189.503433,58.013004 191.288254,57.778099 193.057800,57.458542 
	C209.785889,54.437641 226.519379,51.795933 243.648941,52.999985 
	C265.141998,54.510754 285.236237,60.010685 303.146515,72.436989 
	C320.275391,84.321167 333.509369,99.771126 344.575317,117.237617 
	C348.860718,124.001678 353.080750,130.807159 357.330597,137.593765 
	C357.016663,137.930023 356.702759,138.266281 356.388855,138.602539 
	C335.752899,120.126068 313.325958,104.687553 285.412964,100.454491 
	C258.027130,96.301376 230.758530,97.615738 203.723953,105.468346 
	C206.628922,117.463272 209.429321,129.026428 211.985321,139.580429 
	C228.460434,137.985306 244.444443,135.743149 260.495361,135.050293 
	C283.243134,134.068344 305.291382,137.841080 325.765045,148.512863 
	C339.377228,155.608109 350.706512,165.657867 361.243378,176.604675 
	C363.052307,178.483978 364.352356,181.711472 364.369751,184.326279 
	C364.580597,215.991043 364.417114,247.658264 364.621216,279.323120 
	C364.646271,283.212311 363.208282,285.266998 360.284210,287.372192 
	C333.392822,306.732727 306.593597,326.221313 279.759949,345.662140 
	C279.022339,346.196503 278.199524,346.613251 277.191223,347.220490 
	C276.107880,333.996613 275.475677,321.190796 273.934418,308.495361 
	C270.423920,279.579315 266.450226,250.719635 262.721039,221.829788 
	C262.381348,219.198181 261.265564,217.873520 258.589203,217.119751 
	C249.624802,214.594986 240.791000,211.602280 231.809357,209.146606 
	C229.943451,208.636429 227.129562,208.962570 225.645538,210.084488 
	C205.998306,224.937561 186.402786,239.864304 167.027863,255.070175 
	C156.995865,262.943512 147.425507,271.405060 137.672119,279.579498 
	C134.823120,262.642975 132.367188,246.050552 129.171249,229.601913 
	C125.944679,212.995605 121.984268,196.531876 118.379707,180.161713 
	C84.621117,180.161713 51.909050,180.161713 19.267395,180.161713 
	C19.267395,192.577148 19.267395,204.661514 19.267395,217.047821 
	C40.309219,217.047821 61.085644,217.047821 82.304459,217.047821 
	C84.048019,227.096985 86.137589,236.877106 87.380356,246.763672 
	C90.161613,268.889465 92.599747,291.059937 94.949493,313.236389 
	C95.231422,315.897186 94.543510,318.878937 93.557777,321.422241 
	C83.178490,348.202240 72.594376,374.902893 62.253551,401.697571 
	C61.384441,403.949554 61.144855,406.941833 61.834423,409.220459 
	C68.104469,429.939423 94.998520,435.899139 110.272392,421.842896 
	C116.849648,415.789978 122.521362,408.072784 126.567123,400.080383 
	C137.494568,378.493225 140.261749,354.710938 142.998993,331.019897 
	C143.220734,329.100769 144.166351,326.817505 145.550415,325.548431 
	C162.619583,309.897583 179.679672,294.229523 197.075455,278.945312 
	C205.487442,271.554413 214.599930,264.960815 223.965530,257.555298 
	C224.396637,259.859894 224.659775,260.980560 224.810928,262.116150 
	C228.945969,293.181458 232.070267,324.332642 232.170593,355.707611 
	C232.182434,359.409210 231.612534,363.344727 230.295197,366.782043 
	C218.888245,396.546082 207.227264,426.212738 195.732651,455.943481 
	C195.076294,457.641083 194.595673,459.824127 195.075623,461.478943 
	C199.796249,477.755554 216.982086,486.779236 233.056229,481.282318 
	C246.439270,476.705658 254.185333,466.069397 260.285034,454.159912 
	C268.444153,438.229462 271.460205,420.829498 274.053070,403.334839 
	C274.334839,401.433563 275.271179,399.062012 276.709747,397.983246 
	C304.821686,376.903168 333.051392,355.980011 361.270416,335.042877 
	C362.117096,334.414642 363.108643,333.981659 364.585449,333.144196 
	C364.585449,397.793518 364.585449,461.710114 364.585449,525.771484 
	C379.497650,525.771484 394.080811,525.771484 409.062988,525.771484 
	C409.062988,422.805939 409.062988,320.068024 409.062988,217.228302 
	C444.047150,217.228302 478.630951,217.228302 513.515198,217.228302 
	C514.173950,222.840927 514.812866,228.268356 515.447754,233.696243 
	C520.053772,273.073242 524.865295,312.437958 525.382263,352.148865 
	C525.437195,356.367004 524.651245,360.826813 523.213745,364.797424 
	C510.707977,399.340088 497.949219,433.791077 485.331024,468.293213 
	C484.616394,470.247284 483.535614,472.816284 484.223083,474.409637 
	C487.956177,483.061920 493.406982,490.456818 503.127472,492.866638 
	C520.287048,497.120697 536.075500,490.267395 546.997437,474.364655 
	C559.110046,456.728271 564.096008,436.643555 566.923767,415.882568 
	C568.287598,405.869049 569.020142,395.769531 570.035583,385.739197 
	C613.462585,385.739197 656.579407,385.739197 700.107178,385.739197 
	C700.107178,432.564728 700.107178,479.146393 700.107178,525.751587 
	C715.118713,525.751587 729.717041,525.751587 744.705933,525.751587 
	C744.705933,422.740570 744.705933,319.977570 744.705933,217.147614 
	C838.069275,217.147614 931.039490,217.147614 1024.166748,217.147614 
	C1024.166748,246.506699 1024.166748,275.717194 1024.166748,305.167389 
	C1022.005432,305.167389 1020.182556,305.167358 1018.359680,305.167358 
	C983.026917,305.167358 947.693481,305.050964 912.361877,305.254974 
	C904.234741,305.301910 895.984863,305.753540 888.017029,307.233459 
	C871.164795,310.363556 856.017822,317.261169 844.014587,330.016602 
	C828.686157,346.305725 821.646912,365.850769 820.816406,387.977051 
	C819.246033,429.814545 834.597595,464.994415 865.460327,492.267120 
	C905.628418,527.762878 952.878235,538.171570 1004.774231,524.599854 
	C1028.798828,518.317017 1047.763062,504.456329 1059.126831,481.699402 
	C1067.051270,465.829803 1069.017944,448.700439 1069.011230,431.210175 
	C1068.984253,361.711273 1069.000000,292.212372 1069.000000,222.713470 
	C1069.000000,220.928513 1069.000000,219.143555 1069.000000,217.216736 
	C1170.164795,217.216736 1270.901978,217.216736 1371.779297,217.216736 
	C1371.779297,255.171616 1371.779297,292.909576 1371.779297,330.671295 
	C1322.177002,330.671295 1272.796021,330.671295 1223.167358,330.671295 
	C1223.167358,318.867065 1223.039795,307.387756 1223.250000,295.914703 
	C1223.308228,292.731995 1222.208008,291.110443 1219.391602,289.919403 
	C1209.620361,285.787109 1199.509277,285.106903 1189.044189,285.918335 
	C1166.171631,287.691711 1145.743164,305.852081 1141.637573,328.470795 
	C1138.302002,346.847229 1145.869995,360.204254 1163.492432,366.469086 
	C1168.413940,368.218689 1173.613892,369.184998 1179.082520,370.614258 
	C1179.082520,422.366455 1179.082520,474.096680 1179.082520,525.772095 
	C1193.953979,525.772095 1208.391479,525.772095 1223.259155,525.772095 
	C1223.259155,473.649933 1223.259155,421.753845 1223.259155,369.859344 
	C1273.067505,369.859344 1322.441650,369.859344 1372.267700,369.859344 
	C1372.267700,422.126526 1372.267700,474.029022 1372.267700,525.802246 
	C1387.190430,525.802246 1401.658936,525.802246 1416.540283,525.802246 
	C1416.540283,422.854492 1416.540283,320.103424 1416.540283,217.295471 
	C1451.537109,217.295471 1486.117554,217.295471 1520.837280,217.295471 
	C1522.749023,233.938858 1525.032104,250.272873 1526.419922,266.682617 
	C1528.847412,295.382324 1530.850830,324.120514 1532.692505,352.864319 
	C1532.958618,357.019684 1531.945923,361.516693 1530.499512,365.481354 
	C1517.851318,400.148499 1504.961060,434.727264 1492.186401,469.348358 
	C1491.631226,470.852905 1490.731201,472.886047 1491.292114,474.041901 
	C1495.442993,482.594574 1500.627441,490.364288 1510.602905,492.908264 
	C1527.322266,497.172150 1544.099121,489.884583 1554.493774,474.367798 
	C1565.790649,457.504272 1571.222412,438.599640 1574.000977,418.814758 
	C1575.541992,407.841278 1576.420654,396.774841 1577.603394,385.696777 
	C1620.877563,385.696777 1663.980591,385.696777 1707.489014,385.696777 
	C1707.489014,432.470795 1707.489014,479.044098 1707.489014,525.675171 
	C1722.458496,525.675171 1737.019653,525.675171 1752.032715,525.675171 
	C1752.032715,422.633179 1752.032715,319.915314 1752.032715,217.265991 
	C1786.572510,217.265991 1820.656006,217.265991 1855.137695,217.265991 
	C1855.137695,320.269165 1855.137695,423.007080 1855.137695,525.744812 
	C1870.138550,525.744812 1884.737915,525.744812 1899.493652,525.744812 
	C1899.493652,519.826721 1899.493652,514.163208 1899.493652,507.500000 
M1461.615601,107.065979 
	C1462.657471,84.509789 1455.011597,65.952332 1436.274536,52.656956 
	C1420.145630,41.212151 1401.960205,37.960281 1382.647095,39.966755 
	C1361.250732,42.189663 1344.004517,51.626690 1332.245239,70.016571 
	C1320.091919,89.022926 1317.601318,120.618347 1338.164185,142.161392 
	C1339.511963,143.573410 1342.537842,145.207993 1343.764038,144.618683 
	C1352.391846,140.472305 1360.752319,135.769562 1369.163818,131.262955 
	C1359.857300,111.400307 1361.639404,109.302391 1362.071533,100.215492 
	C1362.695068,87.100334 1373.005005,75.767166 1386.131714,73.124031 
	C1398.718384,70.589638 1413.344849,77.014496 1418.920532,88.022842 
	C1425.420288,100.855919 1424.377808,113.701973 1417.929688,126.304733 
	C1417.133301,127.860992 1416.321533,129.409317 1415.413696,131.160294 
	C1423.704590,135.597336 1431.535889,139.616348 1439.178833,143.966614 
	C1442.077759,145.616714 1443.887207,145.191406 1445.962036,142.763763 
	C1454.583984,132.675354 1461.084839,121.689026 1461.615601,107.065979 
M414.112091,70.791420 
	C424.861115,64.449509 429.189423,54.897076 428.061401,42.684311 
	C427.086456,32.128551 421.505432,24.488155 411.964203,20.485220 
	C402.217804,16.396179 392.278961,16.928080 383.692871,23.752378 
	C372.408722,32.721153 369.814117,49.469685 377.387421,61.581470 
	C384.807678,73.448502 399.193573,77.248642 414.112091,70.791420 
z"/>
<path fill="#010101" opacity="1.000000" stroke="none" 
	d="
M1899.493652,507.999817 
	C1899.493652,514.163208 1899.493652,519.826721 1899.493652,525.744812 
	C1884.737915,525.744812 1870.138550,525.744812 1855.137695,525.744812 
	C1855.137695,423.007080 1855.137695,320.269165 1855.137695,217.265991 
	C1820.656006,217.265991 1786.572510,217.265991 1752.032715,217.265991 
	C1752.032715,319.915314 1752.032715,422.633179 1752.032715,525.675171 
	C1737.019653,525.675171 1722.458496,525.675171 1707.489014,525.675171 
	C1707.489014,479.044098 1707.489014,432.470795 1707.489014,385.696777 
	C1663.980591,385.696777 1620.877563,385.696777 1577.603394,385.696777 
	C1576.420654,396.774841 1575.541992,407.841278 1574.000977,418.814758 
	C1571.222412,438.599640 1565.790649,457.504272 1554.493774,474.367798 
	C1544.099121,489.884583 1527.322266,497.172150 1510.602905,492.908264 
	C1500.627441,490.364288 1495.442993,482.594574 1491.292114,474.041901 
	C1490.731201,472.886047 1491.631226,470.852905 1492.186401,469.348358 
	C1504.961060,434.727264 1517.851318,400.148499 1530.499512,365.481354 
	C1531.945923,361.516693 1532.958618,357.019684 1532.692505,352.864319 
	C1530.850830,324.120514 1528.847412,295.382324 1526.419922,266.682617 
	C1525.032104,250.272873 1522.749023,233.938858 1520.837280,217.295471 
	C1486.117554,217.295471 1451.537109,217.295471 1416.540283,217.295471 
	C1416.540283,320.103424 1416.540283,422.854492 1416.540283,525.802246 
	C1401.658936,525.802246 1387.190430,525.802246 1372.267700,525.802246 
	C1372.267700,474.029022 1372.267700,422.126526 1372.267700,369.859344 
	C1322.441650,369.859344 1273.067505,369.859344 1223.259155,369.859344 
	C1223.259155,421.753845 1223.259155,473.649933 1223.259155,525.772095 
	C1208.391479,525.772095 1193.953979,525.772095 1179.082520,525.772095 
	C1179.082520,474.096680 1179.082520,422.366455 1179.082520,370.614258 
	C1173.613892,369.184998 1168.413940,368.218689 1163.492432,366.469086 
	C1145.869995,360.204254 1138.302002,346.847229 1141.637573,328.470795 
	C1145.743164,305.852081 1166.171631,287.691711 1189.044189,285.918335 
	C1199.509277,285.106903 1209.620361,285.787109 1219.391602,289.919403 
	C1222.208008,291.110443 1223.308228,292.731995 1223.250000,295.914703 
	C1223.039795,307.387756 1223.167358,318.867065 1223.167358,330.671295 
	C1272.796021,330.671295 1322.177002,330.671295 1371.779297,330.671295 
	C1371.779297,292.909576 1371.779297,255.171616 1371.779297,217.216736 
	C1270.901978,217.216736 1170.164795,217.216736 1069.000000,217.216736 
	C1069.000000,219.143555 1069.000000,220.928513 1069.000000,222.713470 
	C1069.000000,292.212372 1068.984253,361.711273 1069.011230,431.210175 
	C1069.017944,448.700439 1067.051270,465.829803 1059.126831,481.699402 
	C1047.763062,504.456329 1028.798828,518.317017 1004.774231,524.599854 
	C952.878235,538.171570 905.628418,527.762878 865.460327,492.267120 
	C834.597595,464.994415 819.246033,429.814545 820.816406,387.977051 
	C821.646912,365.850769 828.686157,346.305725 844.014587,330.016602 
	C856.017822,317.261169 871.164795,310.363556 888.017029,307.233459 
	C895.984863,305.753540 904.234741,305.301910 912.361877,305.254974 
	C947.693481,305.050964 983.026917,305.167358 1018.359680,305.167358 
	C1020.182556,305.167358 1022.005432,305.167389 1024.166748,305.167389 
	C1024.166748,275.717194 1024.166748,246.506699 1024.166748,217.147614 
	C931.039490,217.147614 838.069275,217.147614 744.705933,217.147614 
	C744.705933,319.977570 744.705933,422.740570 744.705933,525.751587 
	C729.717041,525.751587 715.118713,525.751587 700.107178,525.751587 
	C700.107178,479.146393 700.107178,432.564728 700.107178,385.739197 
	C656.579407,385.739197 613.462585,385.739197 570.035583,385.739197 
	C569.020142,395.769531 568.287598,405.869049 566.923767,415.882568 
	C564.096008,436.643555 559.110046,456.728271 546.997437,474.364655 
	C536.075500,490.267395 520.287048,497.120697 503.127472,492.866638 
	C493.406982,490.456818 487.956177,483.061920 484.223083,474.409637 
	C483.535614,472.816284 484.616394,470.247284 485.331024,468.293213 
	C497.949219,433.791077 510.707977,399.340088 523.213745,364.797424 
	C524.651245,360.826813 525.437195,356.367004 525.382263,352.148865 
	C524.865295,312.437958 520.053772,273.073242 515.447754,233.696243 
	C514.812866,228.268356 514.173950,222.840927 513.515198,217.228302 
	C478.630951,217.228302 444.047150,217.228302 409.062988,217.228302 
	C409.062988,320.068024 409.062988,422.805939 409.062988,525.771484 
	C394.080811,525.771484 379.497650,525.771484 364.585449,525.771484 
	C364.585449,461.710114 364.585449,397.793518 364.585449,333.144196 
	C363.108643,333.981659 362.117096,334.414642 361.270416,335.042877 
	C333.051392,355.980011 304.821686,376.903168 276.709747,397.983246 
	C275.271179,399.062012 274.334839,401.433563 274.053070,403.334839 
	C271.460205,420.829498 268.444153,438.229462 260.285034,454.159912 
	C254.185333,466.069397 246.439270,476.705658 233.056229,481.282318 
	C216.982086,486.779236 199.796249,477.755554 195.075623,461.478943 
	C194.595673,459.824127 195.076294,457.641083 195.732651,455.943481 
	C207.227264,426.212738 218.888245,396.546082 230.295197,366.782043 
	C231.612534,363.344727 232.182434,359.409210 232.170593,355.707611 
	C232.070267,324.332642 228.945969,293.181458 224.810928,262.116150 
	C224.659775,260.980560 224.396637,259.859894 223.965530,257.555298 
	C214.599930,264.960815 205.487442,271.554413 197.075455,278.945312 
	C179.679672,294.229523 162.619583,309.897583 145.550415,325.548431 
	C144.166351,326.817505 143.220734,329.100769 142.998993,331.019897 
	C140.261749,354.710938 137.494568,378.493225 126.567123,400.080383 
	C122.521362,408.072784 116.849648,415.789978 110.272392,421.842896 
	C94.998520,435.899139 68.104469,429.939423 61.834423,409.220459 
	C61.144855,406.941833 61.384441,403.949554 62.253551,401.697571 
	C72.594376,374.902893 83.178490,348.202240 93.557777,321.422241 
	C94.543510,318.878937 95.231422,315.897186 94.949493,313.236389 
	C92.599747,291.059937 90.161613,268.889465 87.380356,246.763672 
	C86.137589,236.877106 84.048019,227.096985 82.304459,217.047821 
	C61.085644,217.047821 40.309219,217.047821 19.267395,217.047821 
	C19.267395,204.661514 19.267395,192.577148 19.267395,180.161713 
	C51.909050,180.161713 84.621117,180.161713 118.379707,180.161713 
	C121.984268,196.531876 125.944679,212.995605 129.171249,229.601913 
	C132.367188,246.050552 134.823120,262.642975 137.672119,279.579498 
	C147.425507,271.405060 156.995865,262.943512 167.027863,255.070175 
	C186.402786,239.864304 205.998306,224.937561 225.645538,210.084488 
	C227.129562,208.962570 229.943451,208.636429 231.809357,209.146606 
	C240.791000,211.602280 249.624802,214.594986 258.589203,217.119751 
	C261.265564,217.873520 262.381348,219.198181 262.721039,221.829788 
	C266.450226,250.719635 270.423920,279.579315 273.934418,308.495361 
	C275.475677,321.190796 276.107880,333.996613 277.191223,347.220490 
	C278.199524,346.613251 279.022339,346.196503 279.759949,345.662140 
	C306.593597,326.221313 333.392822,306.732727 360.284210,287.372192 
	C363.208282,285.266998 364.646271,283.212311 364.621216,279.323120 
	C364.417114,247.658264 364.580597,215.991043 364.369751,184.326279 
	C364.352356,181.711472 363.052307,178.483978 361.243378,176.604675 
	C350.706512,165.657867 339.377228,155.608109 325.765045,148.512863 
	C305.291382,137.841080 283.243134,134.068344 260.495361,135.050293 
	C244.444443,135.743149 228.460434,137.985306 211.985321,139.580429 
	C209.429321,129.026428 206.628922,117.463272 203.723953,105.468346 
	C230.758530,97.615738 258.027130,96.301376 285.412964,100.454491 
	C313.325958,104.687553 335.752899,120.126068 356.388855,138.602539 
	C356.702759,138.266281 357.016663,137.930023 357.330597,137.593765 
	C353.080750,130.807159 348.860718,124.001678 344.575317,117.237617 
	C333.509369,99.771126 320.275391,84.321167 303.146515,72.436989 
	C285.236237,60.010685 265.141998,54.510754 243.648941,52.999985 
	C226.519379,51.795933 209.785889,54.437641 193.057800,57.458542 
	C191.288254,57.778099 189.503433,58.013004 187.501205,58.321804 
	C184.739426,46.262070 182.037460,34.463528 179.298965,22.505507 
	C213.839066,14.212743 248.233078,12.338963 282.614075,21.974577 
	C303.569519,27.847555 320.463776,40.199490 335.264252,55.861492 
	C353.038269,74.670067 364.988708,97.091988 375.972717,120.154053 
	C384.762054,138.608215 393.576630,157.051788 402.142120,175.609863 
	C403.712769,179.012817 405.590698,179.938492 409.235260,179.926773 
	C454.223114,179.782074 499.211578,179.832382 544.199890,179.832382 
	C546.016357,179.832382 547.832825,179.832397 549.915222,179.832397 
	C561.749146,234.913849 565.931641,290.641479 569.305969,346.812714 
	C612.740417,346.812714 656.119507,346.812714 699.973511,346.812714 
	C699.973511,291.315979 699.973511,235.748856 699.973511,179.797974 
	C1085.143066,179.797974 1469.838989,179.797974 1854.553589,179.797974 
	C1854.759521,178.979004 1854.977295,178.518982 1854.976196,178.059464 
	C1854.924683,156.061050 1855.182495,134.054703 1854.651855,112.067459 
	C1854.371216,100.431885 1851.106689,89.247208 1843.759277,79.939384 
	C1830.153809,62.703468 1811.799561,58.508041 1790.950562,61.536083 
	C1763.942871,65.458603 1751.836060,87.107445 1750.327759,112.608635 
	C1749.936768,119.219910 1750.269043,125.873962 1750.269043,132.750580 
	C1735.126709,132.750580 1720.546875,132.750580 1705.763062,132.750580 
	C1704.432129,105.251274 1706.580688,78.711037 1724.610229,56.113979 
	C1735.415039,42.572208 1749.347778,33.243294 1765.861084,28.430565 
	C1793.072388,20.499855 1820.238403,21.051386 1846.512329,32.277996 
	C1874.066895,44.051823 1890.726685,65.280571 1896.745117,94.464577 
	C1898.679565,103.844353 1899.174683,113.621086 1899.378296,123.236320 
	C1899.772827,141.874405 1899.493652,160.526749 1899.493652,179.609314 
	C1920.652710,179.609314 1941.547729,179.609314 1962.720215,179.609314 
	C1962.720215,192.138031 1962.720215,204.235931 1962.720215,216.770142 
	C1941.967407,216.770142 1921.055176,216.770142 1899.493652,216.770142 
	C1899.493652,313.968994 1899.493652,410.734497 1899.493652,507.999817 
M915.039978,343.565491 
	C912.713806,343.722870 910.377502,343.790466 908.063171,344.052490 
	C894.643250,345.571960 882.825439,350.232147 875.005432,361.952240 
	C863.350891,379.419220 862.497437,398.721741 867.782471,418.080017 
	C880.504089,464.677124 928.632385,496.962799 976.580872,490.811371 
	C1007.082458,486.898254 1023.752075,470.322174 1024.197754,439.409576 
	C1024.641968,408.597412 1024.436401,377.775848 1024.496826,346.958374 
	C1024.499023,345.856323 1024.298218,344.753876 1024.177368,343.499084 
	C987.906616,343.499084 951.937134,343.499084 915.039978,343.565491 
M1573.981201,302.568359 
	C1574.870239,317.334961 1575.759155,332.101532 1576.649536,346.890015 
	C1620.333984,346.890015 1663.745972,346.890015 1707.264648,346.890015 
	C1707.264648,303.511139 1707.264648,260.411316 1707.264648,217.197296 
	C1659.411255,217.197296 1611.801758,217.197296 1564.737793,217.197296 
	C1567.815308,245.435898 1570.877808,273.536102 1573.981201,302.568359 
z"/>
<path fill="#C57034" opacity="1.000000" stroke="none" 
	d="
M1461.552490,107.511177 
	C1461.084839,121.689026 1454.583984,132.675354 1445.962036,142.763763 
	C1443.887207,145.191406 1442.077759,145.616714 1439.178833,143.966614 
	C1431.535889,139.616348 1423.704590,135.597336 1415.413696,131.160294 
	C1416.321533,129.409317 1417.133301,127.860992 1417.929688,126.304733 
	C1424.377808,113.701973 1425.420288,100.855919 1418.920532,88.022842 
	C1413.344849,77.014496 1398.718384,70.589638 1386.131714,73.124031 
	C1373.005005,75.767166 1362.695068,87.100334 1362.071533,100.215492 
	C1361.639404,109.302391 1359.857300,111.400307 1369.163818,131.262955 
	C1360.752319,135.769562 1352.391846,140.472305 1343.764038,144.618683 
	C1342.537842,145.207993 1339.511963,143.573410 1338.164185,142.161392 
	C1317.601318,120.618347 1320.091919,89.022926 1332.245239,70.016571 
	C1344.004517,51.626690 1361.250732,42.189663 1382.647095,39.966755 
	C1401.960205,37.960281 1420.145630,41.212151 1436.274536,52.656956 
	C1455.011597,65.952332 1462.657471,84.509789 1461.552490,107.511177 
z"/>
<path fill="#C67035" opacity="1.000000" stroke="none" 
	d="
M413.769226,70.946396 
	C399.193573,77.248642 384.807678,73.448502 377.387421,61.581470 
	C369.814117,49.469685 372.408722,32.721153 383.692871,23.752378 
	C392.278961,16.928080 402.217804,16.396179 411.964203,20.485220 
	C421.505432,24.488155 427.086456,32.128551 428.061401,42.684311 
	C429.189423,54.897076 424.861115,64.449509 413.769226,70.946396 
z"/>
<path fill="#FDFDFD" opacity="1.000000" stroke="none" 
	d="
M915.503845,343.532288 
	C951.937134,343.499084 987.906616,343.499084 1024.177368,343.499084 
	C1024.298218,344.753876 1024.499023,345.856323 1024.496826,346.958374 
	C1024.436401,377.775848 1024.641968,408.597412 1024.197754,439.409576 
	C1023.752075,470.322174 1007.082458,486.898254 976.580872,490.811371 
	C928.632385,496.962799 880.504089,464.677124 867.782471,418.080017 
	C862.497437,398.721741 863.350891,379.419220 875.005432,361.952240 
	C882.825439,350.232147 894.643250,345.571960 908.063171,344.052490 
	C910.377502,343.790466 912.713806,343.722870 915.503845,343.532288 
z"/>
<path fill="#FEFEFE" opacity="1.000000" stroke="none" 
	d="
M1573.960693,302.102356 
	C1570.877808,273.536102 1567.815308,245.435898 1564.737793,217.197296 
	C1611.801758,217.197296 1659.411255,217.197296 1707.264648,217.197296 
	C1707.264648,260.411316 1707.264648,303.511139 1707.264648,346.890015 
	C1663.745972,346.890015 1620.333984,346.890015 1576.649536,346.890015 
	C1575.759155,332.101532 1574.870239,317.334961 1573.960693,302.102356 
z"/>
</svg>