<svg version="1.1" id="Layer_1" xmlns="http://www.w3.org/2000/svg" xmlns:xlink="http://www.w3.org/1999/xlink" x="0px" y="0px"
	 width="100%" viewBox="0 0 2732 1326" enable-background="new 0 0 2732 1326" xml:space="preserve">
<path fill="#FFFFFF" opacity="1.000000" stroke="none" 
	d="
M1878.000000,1327.000000 
	C1252.000000,1327.000000 626.500000,1327.000000 1.000000,1327.000000 
	C1.000000,885.000000 1.000000,443.000000 1.000000,1.000000 
	C911.666687,1.000000 1822.333374,1.000000 2733.000000,1.000000 
	C2733.000000,443.000000 2733.000000,885.000000 2733.000000,1327.000000 
	C2448.166748,1327.000000 2163.333252,1327.000000 1878.000000,1327.000000 
M418.422180,1180.243286 
	C418.207916,1180.439575 418.067780,1180.679321 417.086548,1181.186157 
	C407.924774,1181.203979 398.743164,1180.851196 389.606628,1181.340576 
	C379.878143,1181.861572 369.972534,1182.216919 360.538574,1184.371338 
	C345.821808,1187.732178 333.947357,1195.346680 328.155151,1210.542236 
	C323.178345,1223.598633 323.108734,1236.820557 325.207703,1250.241699 
	C328.856171,1273.570312 341.693665,1290.482300 362.080170,1301.882568 
	C379.756683,1311.767700 398.889313,1312.854858 418.231323,1309.646729 
	C427.605865,1308.091797 436.557861,1304.195801 443.929840,1297.593994 
	C453.992004,1288.582886 457.972046,1277.054077 457.981201,1263.895874 
	C458.009125,1223.748779 457.995331,1183.601807 457.980133,1143.454712 
	C457.979645,1142.184204 457.785889,1140.913818 457.683533,1139.659668 
	C444.614716,1139.659668 431.914368,1139.659668 418.776581,1139.659668 
	C418.776581,1153.390137 418.776581,1166.702637 418.422180,1180.243286 
M737.472229,422.201294 
	C737.256958,422.368713 737.101929,422.580292 736.077759,422.971436 
	C718.488220,422.971436 700.898682,422.971436 683.001709,422.971436 
	C683.001709,416.394867 682.876221,410.418976 683.050598,404.451813 
	C683.149231,401.076721 682.257996,399.193085 678.743835,397.798828 
	C669.552185,394.152130 660.114746,393.739166 650.977295,396.359619 
	C645.407043,397.957092 640.003235,401.444153 635.524597,405.257050 
	C627.092712,412.435547 624.044128,422.515106 623.428406,433.268158 
	C622.697021,446.041168 628.707214,454.121063 641.241699,458.461609 
	C642.780640,458.994507 644.281799,461.083191 644.830933,462.767029 
	C646.798401,468.800690 647.971863,475.107513 650.137878,481.059052 
	C654.297424,492.488403 660.635376,502.844391 670.166809,510.393127 
	C687.468933,524.096130 707.655518,530.243408 729.647034,530.948669 
	C745.764282,531.465515 761.663391,530.577454 776.977295,524.998169 
	C784.192444,522.369446 791.422363,519.698181 797.261292,514.159180 
	C791.864014,504.838104 786.679504,495.884491 781.401001,486.768646 
	C764.368469,495.413757 747.046570,500.362152 728.166992,497.046143 
	C714.837463,494.704926 702.658081,490.050690 693.782959,479.259949 
	C687.916870,472.127808 684.985291,463.791595 684.492737,453.918030 
	C717.609131,453.918030 750.161560,453.918030 782.835083,453.918030 
	C782.835083,423.227448 782.835083,393.100616 782.978027,362.063782 
	C782.978027,260.474854 782.978027,158.885895 782.978027,56.939491 
	C803.923950,56.939491 824.857483,56.939491 845.826599,56.939491 
	C845.826599,44.380043 845.826599,32.181290 845.826599,20.024363 
	C809.872192,20.024363 774.262573,20.024363 738.163696,20.024363 
	C738.163696,22.000803 738.163696,23.787785 738.163696,25.574764 
	C738.163696,95.058228 738.138733,164.541718 738.241516,234.025024 
	C738.246399,237.305206 737.479675,239.782837 734.880066,241.662994 
	C724.955139,248.841049 714.592407,255.191742 702.926453,259.247803 
	C681.344360,266.751526 659.197266,267.518829 637.026978,263.601685 
	C613.520935,259.448608 593.440247,248.693069 578.571167,229.330917 
	C576.786865,227.007401 576.603821,225.348755 577.868469,222.743652 
	C590.507080,196.708115 601.806824,170.155670 604.135315,140.880554 
	C605.251160,126.852020 606.585083,112.596817 605.309998,98.674156 
	C602.841187,71.716476 593.616699,46.627010 580.127258,23.106388 
	C578.677429,20.578480 577.361633,19.762531 574.596619,19.771339 
	C545.437195,19.864254 516.277344,19.824465 487.117584,19.843933 
	C485.864746,19.844769 484.612061,20.065731 483.480591,20.172684 
	C483.480591,32.634384 483.480591,44.707546 483.480591,57.028259 
	C506.094727,57.028259 528.393799,57.028259 550.619873,57.028259 
	C550.968018,58.194401 551.192688,59.125015 551.520264,60.017872 
	C556.760498,74.300827 560.836792,88.948975 561.075989,104.186470 
	C561.249756,115.255417 560.256897,126.413300 558.863708,137.414963 
	C557.641663,147.064819 555.630859,156.688660 553.035034,166.065567 
	C551.198608,172.699432 547.913086,178.950516 545.084106,185.287460 
	C538.737488,199.504089 532.272400,213.667786 525.799072,227.977707 
	C545.738770,264.956909 577.374878,288.960907 618.194946,299.165497 
	C659.112000,309.394379 699.550781,306.051910 738.163696,285.563263 
	C738.163696,287.965515 738.164185,289.741180 738.163574,291.516846 
	C738.155884,315.338013 738.148071,339.159210 738.000244,363.907654 
	C737.940125,383.274689 737.880005,402.641693 737.472229,422.201294 
M271.262207,363.755554 
	C269.723633,375.608917 268.196198,387.463715 266.639923,399.314758 
	C266.155151,403.006134 264.317413,404.391510 260.302551,404.346222 
	C239.650696,404.112946 218.986465,404.568695 198.345047,404.049225 
	C191.613205,403.879791 188.192810,405.988922 185.948883,412.157959 
	C181.796783,423.572968 185.425690,437.875000 198.088379,442.783203 
	C207.403061,446.393707 216.864532,446.861237 226.557846,447.038544 
	C240.743790,447.298035 254.499573,444.991760 267.507874,439.493408 
	C271.500580,437.805817 273.033752,438.836578 275.072510,441.730865 
	C279.258057,447.672760 281.196625,453.985626 281.153809,461.434998 
	C281.071747,475.696564 274.111145,485.726654 262.242432,491.808838 
	C244.097122,501.107513 224.598022,499.190979 205.544418,495.189178 
	C195.684891,493.118378 186.297928,488.797577 176.250412,485.339478 
	C171.783875,494.955780 167.133667,504.967529 162.442352,515.067749 
	C181.086090,525.062134 200.009277,530.416992 220.442535,530.964417 
	C244.459793,531.607971 267.702454,529.916443 289.599274,518.250793 
	C316.040710,504.164001 324.455139,477.401978 319.409668,451.084930 
	C317.032104,438.683533 310.167999,428.693817 302.054077,419.593201 
	C315.945007,394.382629 315.657593,380.563568 316.889526,362.045197 
	C316.889526,260.452148 316.889526,158.859070 316.889526,56.862419 
	C337.923126,56.862419 358.840210,56.862419 379.779480,56.862419 
	C379.779480,44.366371 379.779480,32.275379 379.779480,20.047962 
	C343.830872,20.047962 308.104431,20.047962 271.998627,20.047962 
	C271.998627,38.887100 271.998657,57.511436 271.998657,76.135773 
	C271.998657,129.123871 272.017334,182.112000 271.923004,235.099930 
	C271.919586,237.011185 271.402985,239.793671 270.105194,240.685837 
	C262.860626,245.665955 255.603912,250.783936 247.791046,254.751465 
	C227.406143,265.103271 205.384186,266.863770 183.031830,265.172394 
	C153.165344,262.912445 128.287308,250.915161 110.217819,226.557922 
	C115.024689,215.567307 119.950386,204.852295 124.431038,193.954285 
	C136.327881,165.018372 141.539246,134.883240 139.581360,103.635880 
	C137.744324,74.317047 127.636581,47.532463 113.576019,22.087093 
	C112.888542,20.842957 110.466301,19.942213 108.841652,19.926340 
	C92.680168,19.768429 76.516518,19.830603 60.353481,19.830599 
	C46.059681,19.830597 31.765881,19.830599 17.283070,19.830599 
	C17.283070,32.358570 17.283070,44.568237 17.283070,56.969925 
	C39.866169,56.969925 62.166023,56.969925 84.517288,56.969925 
	C84.993416,57.973511 85.491013,58.819530 85.811920,59.727966 
	C99.646408,98.891533 98.876167,137.831970 83.120598,176.203415 
	C76.436798,192.481262 68.444565,208.220276 61.164673,224.257599 
	C60.516598,225.685303 59.966469,228.055222 60.678799,229.063553 
	C67.671707,238.962418 74.001839,249.564606 82.312096,258.253143 
	C106.107796,283.132111 135.582687,297.807678 169.709427,302.380463 
	C204.115952,306.990753 237.479630,303.552887 268.766174,287.184082 
	C269.695801,286.697693 270.744385,286.438751 271.566956,286.136444 
	C271.566956,311.918976 271.566956,337.399750 271.262207,363.755554 
M1670.060425,363.887390 
	C1670.060425,379.169128 1670.060425,394.450836 1670.060425,409.904602 
	C1646.168945,409.904602 1622.795410,409.904602 1599.002197,409.904602 
	C1599.002197,403.614899 1598.830078,397.644714 1599.071167,391.691254 
	C1599.201416,388.475647 1597.969238,386.354095 1595.048706,385.775818 
	C1589.261475,384.629883 1583.396240,383.160645 1577.555664,383.126617 
	C1553.701538,382.987640 1536.410645,402.316345 1540.324463,428.016327 
	C1541.169556,433.565674 1543.533569,439.101562 1549.490234,441.685547 
	C1553.555420,443.449097 1557.653931,445.136108 1561.743774,446.859955 
	C1562.200073,450.993317 1562.683594,455.381134 1563.168701,459.768799 
	C1565.349121,479.490448 1573.360107,496.130646 1587.716309,510.162018 
	C1601.454956,523.589600 1618.413574,528.884521 1636.485718,530.629028 
	C1647.181885,531.661560 1658.368286,530.642944 1669.004883,528.722961 
	C1708.237183,521.641541 1725.904541,492.274139 1719.096924,456.221375 
	C1716.655640,443.291901 1714.805054,430.597443 1715.033081,417.448639 
	C1715.347900,399.299866 1714.992432,381.139435 1715.096313,362.062592 
	C1715.096313,260.478668 1715.096313,158.894760 1715.096313,56.923790 
	C1736.409546,56.923790 1757.337280,56.923790 1778.272095,56.923790 
	C1778.272095,44.443043 1778.272095,32.351315 1778.272095,20.088966 
	C1742.307617,20.088966 1706.568115,20.088966 1670.503296,20.088966 
	C1670.503296,29.811193 1670.503296,39.277901 1670.503296,48.744606 
	C1670.503296,110.897133 1670.511841,173.049667 1670.455933,235.202133 
	C1670.454468,236.823135 1670.284668,239.325989 1669.290771,239.928513 
	C1658.632568,246.388931 1648.324585,253.855759 1636.888672,258.512421 
	C1614.868408,267.479095 1591.483154,267.949097 1568.410645,263.649109 
	C1545.807495,259.436646 1526.335205,248.906174 1511.631226,230.433960 
	C1508.947876,227.062744 1508.963623,225.046768 1510.653442,221.420822 
	C1523.498169,193.856979 1535.284790,166.090057 1537.287720,134.976608 
	C1538.403442,117.644394 1538.902588,100.456703 1535.620117,83.500137 
	C1531.480713,62.116512 1523.472412,42.004292 1512.651733,23.031555 
	C1511.192871,20.473770 1509.618774,19.766275 1506.856567,19.774773 
	C1477.696777,19.864466 1448.536621,19.826103 1419.376587,19.844913 
	C1418.121338,19.845722 1416.866211,20.058912 1415.604248,20.173786 
	C1415.604248,32.552269 1415.604248,44.534832 1415.604248,57.001671 
	C1417.332520,57.001671 1418.962402,57.001675 1420.592163,57.001675 
	C1440.087769,57.001675 1459.583740,57.069408 1479.078369,56.933064 
	C1482.220703,56.911087 1483.971436,57.708797 1484.729614,60.910122 
	C1486.864136,69.923256 1489.730591,78.798439 1491.290283,87.902443 
	C1492.850830,97.011154 1493.895264,106.334717 1493.843140,115.556610 
	C1493.793945,124.238922 1492.627808,133.037949 1490.855713,141.557358 
	C1488.457886,153.085785 1486.086426,164.822662 1481.767822,175.701584 
	C1475.092163,192.518112 1466.732788,208.663712 1459.251709,225.168243 
	C1458.698975,226.387711 1458.932495,228.577911 1459.705078,229.686447 
	C1465.895142,238.568512 1472.365479,247.254578 1478.626953,256.087921 
	C1484.842529,264.856659 1493.273193,271.174255 1502.161377,276.754913 
	C1510.778320,282.165222 1519.811768,286.961395 1528.895386,291.567688 
	C1542.990234,298.714966 1558.361328,302.390106 1573.831787,303.647461 
	C1588.432861,304.834167 1603.395508,304.207733 1617.957520,302.415924 
	C1629.990845,300.935303 1641.762451,296.892609 1653.469727,293.383942 
	C1659.252930,291.650726 1664.629150,288.560425 1670.503296,285.944489 
	C1670.503296,289.372772 1670.513306,292.197388 1670.501709,295.021942 
	C1670.409058,317.668427 1670.312256,340.314880 1670.060425,363.887390 
M1204.061157,363.888489 
	C1204.061157,379.656250 1204.061157,395.424011 1204.061157,411.189453 
	C1182.102661,411.189453 1160.738403,411.189453 1139.178833,411.189453 
	C1138.841431,396.292511 1134.447266,383.011200 1127.712891,369.831604 
	C1116.609741,373.818634 1105.815674,377.694702 1095.010620,381.574677 
	C1106.274780,410.194672 1103.911621,436.398132 1083.995117,459.554657 
	C1094.763794,482.004913 1109.925781,499.658234 1133.887085,506.689819 
	C1157.230713,513.540161 1180.847778,512.990051 1204.183105,502.535797 
	C1204.183105,512.408569 1204.183105,521.496277 1204.183105,530.664795 
	C1219.375366,530.664795 1234.092285,530.664795 1249.128052,530.664795 
	C1249.128052,528.355347 1249.128052,526.375977 1249.128052,524.396667 
	C1249.128052,473.919189 1249.131958,423.441742 1249.119385,372.964264 
	C1249.118530,369.637634 1248.992065,366.311005 1249.097534,362.062683 
	C1249.097534,260.484711 1249.097534,158.906738 1249.097534,56.966656 
	C1270.268555,56.966656 1291.204834,56.966656 1312.317627,56.966656 
	C1312.317627,44.516941 1312.317627,32.429478 1312.317627,20.224453 
	C1276.321899,20.224453 1240.479980,20.224453 1204.501221,20.224453 
	C1204.501221,22.616703 1204.501099,24.613647 1204.501099,26.610594 
	C1204.501099,85.600403 1204.501221,144.590210 1204.501221,203.580017 
	C1204.501221,214.411484 1204.535767,225.243179 1204.457153,236.074097 
	C1204.447510,237.401398 1204.272461,239.372833 1203.427490,239.946777 
	C1196.568848,244.605438 1189.822510,249.559341 1182.496338,253.375946 
	C1158.400513,265.928436 1132.679321,268.140839 1106.195312,264.070435 
	C1081.481567,260.272125 1060.583862,249.723755 1044.882446,229.642151 
	C1042.608643,226.734009 1042.943115,224.871490 1044.214722,222.194290 
	C1057.443726,194.341873 1068.951050,166.043396 1071.188721,134.698273 
	C1072.530518,115.903473 1072.388672,97.363968 1068.282959,78.916077 
	C1063.934937,59.379261 1056.320435,41.147247 1046.878296,23.582848 
	C1045.354370,20.747887 1043.699585,19.717230 1040.394897,19.735844 
	C1011.734070,19.897255 983.071960,19.828871 954.410278,19.828875 
	C952.822266,19.828875 951.234314,19.828875 949.807251,19.828875 
	C949.807251,32.605762 949.807251,44.675861 949.807251,57.002731 
	C971.089966,57.002731 992.068481,57.085339 1013.044983,56.916813 
	C1016.324280,56.890465 1017.770020,57.940140 1018.514709,61.007729 
	C1019.449341,64.857933 1021.090332,68.548103 1021.885559,72.418480 
	C1023.882507,82.136383 1026.479370,91.856186 1027.138916,101.689018 
	C1027.816284,111.789703 1026.931274,122.071136 1025.898560,132.188599 
	C1024.924683,141.729797 1024.111084,151.590164 1021.014709,160.545197 
	C1015.562073,176.314911 1008.537109,191.550400 1001.938110,206.909790 
	C999.217896,213.241302 995.821289,219.279755 992.923096,225.539780 
	C992.438721,226.586044 992.429260,228.438293 993.049927,229.320236 
	C999.952698,239.129227 1006.479065,249.280182 1014.200195,258.414795 
	C1021.996216,267.638000 1031.865723,274.682312 1042.254150,281.015167 
	C1052.723145,287.397217 1063.465942,293.088257 1075.307007,296.261932 
	C1086.178101,299.175568 1097.122070,302.713562 1108.227173,303.626862 
	C1121.517944,304.719910 1135.032349,303.651215 1148.416016,302.907379 
	C1162.621460,302.117859 1176.153442,298.045502 1189.284668,292.716370 
	C1194.319824,290.672852 1199.207520,288.265503 1204.501221,285.870636 
	C1204.501221,289.369659 1204.510986,292.194489 1204.499512,295.019287 
	C1204.407593,317.667023 1204.311646,340.314789 1204.061157,363.888489 
M2181.586670,362.014374 
	C2181.586670,260.437897 2181.586670,158.861389 2181.586670,56.867111 
	C2202.666504,56.867111 2223.583008,56.867111 2244.584961,56.867111 
	C2244.584961,44.366657 2244.584961,32.285721 2244.584961,20.097788 
	C2208.603271,20.097788 2172.872559,20.097788 2136.830566,20.097788 
	C2136.830566,22.157686 2136.830322,23.962154 2136.830322,25.766624 
	C2136.830322,94.758080 2136.817139,163.749557 2136.865723,232.740967 
	C2136.868652,236.735138 2136.974609,240.002106 2132.406982,242.337296 
	C2122.292969,247.508194 2113.115479,254.913193 2102.592773,258.799347 
	C2079.607422,267.288239 2055.602051,268.184723 2031.672607,262.919983 
	C2010.340698,258.226715 1991.917603,248.209351 1978.153442,230.679779 
	C1976.210083,228.204727 1974.528564,226.301880 1976.334717,222.541153 
	C1989.426514,195.279633 2001.006470,167.544128 2003.391724,136.825363 
	C2004.807373,118.593086 2005.199707,100.482445 2001.477051,82.474709 
	C1997.187378,61.723114 1989.359985,42.325809 1979.299194,23.731936 
	C1977.750122,20.868786 1976.327759,19.724068 1972.987305,19.741611 
	C1943.825073,19.894758 1914.661621,19.830141 1885.498535,19.830175 
	C1884.389160,19.830177 1883.279785,19.830175 1882.019287,19.830175 
	C1882.019287,32.413708 1882.019287,44.494865 1882.019287,57.001820 
	C1883.814697,57.001820 1885.444336,57.001823 1887.073975,57.001823 
	C1906.404907,57.001827 1925.735962,57.009998 1945.066895,56.991302 
	C1947.434937,56.989014 1949.338135,56.891869 1950.449829,59.948696 
	C1956.015015,75.251495 1959.183594,91.038300 1960.044067,107.232231 
	C1960.373779,113.436218 1959.074585,119.709801 1959.066040,125.952423 
	C1959.050293,137.435394 1956.694458,148.468933 1953.346191,159.334045 
	C1947.098267,179.608551 1939.133789,199.217163 1928.570312,217.609100 
	C1924.670532,224.398987 1924.633667,229.455109 1929.101929,236.082687 
	C1939.263428,251.155319 1951.254639,264.251923 1965.767456,275.163818 
	C1976.715454,283.395325 1988.618408,290.114166 2001.468140,294.374298 
	C2014.172852,298.586365 2027.399536,302.225555 2040.650391,303.514038 
	C2054.718994,304.882111 2069.130615,303.773102 2083.307373,302.660217 
	C2095.715820,301.686096 2107.872314,298.658081 2119.398682,293.658783 
	C2125.134033,291.171234 2130.813477,288.555695 2136.830566,285.857971 
	C2136.830566,289.827972 2136.845215,293.159119 2136.828125,296.490112 
	C2136.713623,318.631195 2136.592529,340.772247 2136.251953,363.828979 
	C2136.265625,375.321503 2136.199219,386.815033 2136.343018,398.305939 
	C2136.385742,401.718597 2135.177734,402.918732 2131.717041,403.077515 
	C2122.290771,403.510040 2112.826660,403.904175 2103.478516,405.100769 
	C2085.888672,407.352295 2070.723145,415.070557 2057.584961,426.903351 
	C2048.931885,434.696655 2042.225708,444.008392 2036.517212,454.055176 
	C2032.149048,461.742920 2030.280273,468.804474 2035.859009,477.737488 
	C2043.818359,490.482086 2052.729492,502.099701 2064.817139,510.808746 
	C2082.802734,523.767395 2103.232666,530.274292 2125.414307,530.856384 
	C2138.118408,531.189758 2150.868652,531.593079 2163.396973,528.709045 
	C2174.162109,526.230957 2184.557129,522.773193 2194.215820,516.905518 
	C2189.300537,506.603302 2184.580811,496.711578 2179.807617,486.707153 
	C2159.959229,495.803619 2140.210449,499.143372 2119.265625,495.121979 
	C2101.449707,491.701294 2087.555664,482.706360 2077.336182,467.927887 
	C2076.484131,466.695953 2076.366455,463.937897 2077.172119,462.737305 
	C2084.162842,452.318359 2093.056152,443.800690 2105.561523,440.937897 
	C2115.092773,438.756042 2124.967773,437.550232 2134.744873,437.095703 
	C2148.374512,436.462097 2162.055664,436.934540 2175.714600,436.933685 
	C2177.485596,436.933563 2179.256348,436.933685 2181.387207,436.933685 
	C2181.387207,411.788574 2181.387207,387.337982 2181.586670,362.014374 
M2602.833008,363.911163 
	C2602.818359,374.733856 2602.931885,385.559875 2602.648438,396.375519 
	C2602.606934,397.959290 2600.982910,400.452057 2599.573486,400.902039 
	C2585.900635,405.267090 2572.675049,410.576294 2562.560547,421.116180 
	C2556.871582,427.043945 2551.060547,433.424866 2547.475098,440.675018 
	C2541.161133,453.443176 2540.820801,467.411591 2543.101074,481.475250 
	C2545.419678,495.774933 2553.217041,506.512329 2564.422607,514.941528 
	C2578.937500,525.860107 2595.821289,529.933350 2613.635254,530.787109 
	C2631.211426,531.629578 2648.612793,530.926880 2665.469238,525.002686 
	C2689.512695,516.552795 2708.569336,499.009674 2709.207520,469.659363 
	C2709.702393,446.917206 2701.458984,429.329468 2683.109375,416.171326 
	C2672.429932,408.513275 2660.592773,403.346588 2647.740234,399.576508 
	C2647.740234,387.219421 2647.740234,375.085693 2647.890137,362.051239 
	C2647.890137,260.458221 2647.890137,158.865234 2647.890137,56.868240 
	C2668.919434,56.868240 2689.835693,56.868240 2710.782227,56.868240 
	C2710.782227,44.372059 2710.782227,32.281391 2710.782227,20.043787 
	C2674.836426,20.043787 2639.110352,20.043787 2602.998535,20.043787 
	C2602.998535,22.046515 2602.998535,23.841715 2602.998535,25.636915 
	C2602.998535,95.120667 2603.014893,164.604431 2602.920166,234.088058 
	C2602.917236,236.175659 2602.418701,239.076370 2601.022705,240.217789 
	C2591.165527,248.276962 2580.349365,254.900131 2568.262695,259.054108 
	C2543.582764,267.536133 2518.373535,268.279816 2493.269043,261.835236 
	C2471.643311,256.283661 2453.612061,244.716171 2441.210449,226.399887 
	C2446.294189,214.715775 2451.512695,203.717758 2455.908447,192.400238 
	C2463.675781,172.402557 2468.838867,151.845749 2470.231445,130.219482 
	C2471.305664,113.538925 2470.695068,97.174271 2467.223633,80.902122 
	C2462.891113,60.592785 2455.207520,41.557949 2445.240967,23.360355 
	C2443.727295,20.596125 2442.350342,19.752571 2439.364990,19.763847 
	C2410.205566,19.873976 2381.045654,19.826307 2351.885742,19.843513 
	C2350.636230,19.844252 2349.386963,20.039646 2348.274414,20.132891 
	C2348.274414,32.600353 2348.274414,44.682663 2348.274414,56.972393 
	C2370.842529,56.972393 2393.136475,56.972393 2415.711670,56.972393 
	C2417.281006,61.932720 2419.280029,66.695145 2420.253418,71.658699 
	C2422.146973,81.316124 2423.074707,91.169136 2425.114014,100.790344 
	C2428.118652,114.967407 2426.067139,129.040070 2423.787598,142.814255 
	C2420.214111,164.405319 2411.009521,184.296524 2401.826172,204.033401 
	C2398.701660,210.749496 2394.927490,217.161865 2391.736328,223.849548 
	C2390.974609,225.446228 2390.524658,228.139786 2391.351074,229.393021 
	C2396.859619,237.748596 2402.012695,246.519058 2408.675537,253.895523 
	C2422.661377,269.379944 2438.897461,282.036865 2458.345703,290.438751 
	C2475.788086,297.974152 2493.619385,303.121674 2512.711426,303.835297 
	C2533.351807,304.606781 2553.871338,303.997711 2573.710938,297.765228 
	C2583.581787,294.664368 2593.028076,290.210815 2602.998535,286.236664 
	C2602.998535,287.974548 2602.998047,289.753448 2602.998535,291.532318 
	C2603.007080,315.351288 2603.015869,339.170227 2602.833008,363.911163 
M1437.105713,1149.861206 
	C1437.105713,1155.637451 1437.105713,1161.413818 1437.105713,1167.673462 
	C1424.353638,1167.673462 1412.226929,1167.703247 1400.100342,1167.664062 
	C1390.134155,1167.631958 1380.258057,1168.368652 1370.930786,1172.157349 
	C1360.723022,1176.303467 1352.168701,1182.417847 1347.615356,1193.023926 
	C1344.279053,1200.794922 1343.804199,1208.894043 1344.235962,1217.168579 
	C1344.844849,1228.835083 1349.578125,1238.409058 1359.325317,1244.893677 
	C1365.065186,1248.712280 1371.462280,1251.543091 1376.746094,1254.379272 
	C1376.205078,1261.960449 1374.286987,1269.772095 1375.414795,1277.115967 
	C1377.576172,1291.190674 1386.038574,1301.436401 1398.860718,1307.958374 
	C1411.980835,1314.631958 1426.314575,1315.860229 1440.557373,1316.828857 
	C1449.083740,1317.408813 1457.810425,1316.876221 1466.294922,1315.723755 
	C1474.650024,1314.588989 1482.813232,1312.041138 1491.529297,1310.003540 
	C1488.332397,1298.932739 1485.484131,1289.069092 1482.579224,1279.008911 
	C1465.782593,1283.003662 1449.205078,1284.624146 1432.421997,1281.982544 
	C1425.843384,1280.947021 1419.481079,1279.248535 1415.099976,1273.627441 
	C1411.894043,1269.514282 1412.373779,1264.991089 1413.981689,1260.459717 
	C1415.472656,1256.257812 1419.124146,1258.263916 1421.724121,1258.231812 
	C1438.051880,1258.030884 1454.383179,1258.130127 1470.713379,1258.130127 
	C1472.452881,1258.130127 1474.192261,1258.130127 1475.814087,1258.130127 
	C1475.814087,1246.668701 1475.814087,1236.074219 1475.814087,1225.066162 
	C1473.705688,1225.066162 1471.908081,1225.067505 1470.110596,1225.065918 
	C1445.615601,1225.043579 1421.120483,1225.045166 1396.625610,1224.980347 
	C1390.899170,1224.965088 1386.233398,1222.720825 1383.797974,1217.326294 
	C1381.909668,1213.143677 1382.196411,1208.832886 1385.358032,1205.287720 
	C1389.133301,1201.054688 1394.364258,1200.768799 1399.583618,1200.767334 
	C1425.078735,1200.760376 1450.573730,1200.762329 1476.068848,1200.761108 
	C1477.980347,1200.761108 1479.891846,1200.761108 1481.924805,1200.761108 
	C1481.924805,1182.932861 1481.924805,1165.957397 1482.096436,1148.060669 
	C1482.096436,1044.468628 1482.096436,940.876587 1482.096436,836.900024 
	C1503.440430,836.900024 1524.372437,836.900024 1545.251709,836.900024 
	C1545.251709,824.419067 1545.251709,812.324707 1545.251709,800.106812 
	C1509.263306,800.106812 1473.520264,800.106812 1437.593506,800.106812 
	C1437.593506,873.350037 1437.593506,946.317261 1437.593506,1019.446350 
	C1436.642578,1019.864014 1435.736694,1020.154907 1434.939209,1020.628357 
	C1425.449341,1026.262329 1416.398438,1032.857056 1406.408936,1037.381592 
	C1386.115723,1046.572998 1364.388794,1047.200195 1342.644653,1044.763306 
	C1334.740845,1043.877563 1326.840820,1041.695557 1319.303345,1039.062134 
	C1302.899536,1033.331055 1289.078491,1023.722473 1278.195312,1009.941101 
	C1276.142822,1007.341980 1275.569824,1005.538818 1277.002686,1002.566589 
	C1290.453247,974.665588 1301.893066,946.253479 1304.251221,914.755676 
	C1305.659424,895.947083 1305.594238,877.473206 1301.336060,859.065918 
	C1296.867798,839.750732 1289.680176,821.535522 1280.131714,804.164978 
	C1278.381592,800.981079 1276.812378,799.717285 1273.135620,799.738770 
	C1244.639648,799.904846 1216.142334,799.830383 1187.645386,799.830383 
	C1186.027100,799.830383 1184.408936,799.830383 1182.708374,799.830383 
	C1182.708374,812.458191 1182.708374,824.544189 1182.708374,836.908936 
	C1205.208618,836.908936 1227.506958,836.908936 1249.840576,836.908936 
	C1250.623413,838.936768 1251.351685,840.719055 1252.003784,842.528748 
	C1257.835327,858.709473 1260.551514,875.517517 1260.628052,892.602966 
	C1260.671387,902.280945 1259.226196,912.006592 1257.906372,921.636047 
	C1256.955811,928.571472 1255.535156,935.511902 1253.534302,942.214355 
	C1251.570312,948.793579 1248.836304,955.176392 1246.034546,961.464661 
	C1241.192749,972.331970 1236.118164,983.098145 1230.985107,993.832031 
	C1227.531494,1001.054260 1223.017700,1007.240356 1229.508545,1016.026184 
	C1240.385010,1030.748413 1251.469482,1044.868164 1266.784790,1055.361938 
	C1280.168091,1064.532104 1294.042358,1072.530273 1309.811646,1076.675293 
	C1320.123657,1079.385986 1330.483765,1082.943237 1340.987427,1083.643188 
	C1355.300171,1084.597290 1369.882690,1084.153442 1384.137695,1082.491333 
	C1395.617554,1081.152954 1406.888184,1077.470947 1418.048096,1074.145996 
	C1424.646606,1072.179932 1430.849487,1068.886719 1437.503418,1066.074951 
	C1437.503418,1070.682373 1437.513550,1074.837036 1437.501709,1078.991821 
	C1437.435059,1102.307495 1437.363159,1125.623169 1437.105713,1149.861206 
M2369.833252,1149.909912 
	C2369.833252,1163.832397 2369.833252,1177.755005 2369.833252,1191.960693 
	C2363.542236,1191.182495 2357.965576,1190.599609 2352.422607,1189.787109 
	C2334.816650,1187.206665 2317.230957,1184.487061 2299.610596,1182.011597 
	C2298.231201,1181.817749 2296.015381,1182.660767 2295.256836,1183.759644 
	C2290.332520,1190.891113 2287.878418,1198.753174 2287.946289,1207.597534 
	C2288.066895,1223.337402 2294.235352,1235.416138 2308.853271,1241.790894 
	C2324.845947,1248.764893 2342.095947,1248.045044 2358.790283,1246.248657 
	C2372.345215,1244.790161 2385.556396,1240.183838 2398.950928,1237.109375 
	C2400.243896,1236.812500 2401.999023,1237.078491 2403.128906,1237.762207 
	C2409.045410,1241.342163 2414.887695,1245.053223 2420.648926,1248.879883 
	C2441.500977,1262.729614 2462.307373,1276.648682 2483.140381,1290.527222 
	C2485.577393,1292.150635 2487.776123,1292.788818 2489.664551,1289.523926 
	C2496.010742,1278.550293 2502.490723,1267.654175 2509.011230,1256.572632 
	C2478.997070,1241.055054 2449.282715,1225.599976 2419.443359,1210.390259 
	C2415.972900,1208.621460 2414.725586,1206.766479 2414.755859,1202.867432 
	C2414.896240,1184.885254 2414.677002,1166.900269 2414.736572,1148.003906 
	C2414.547363,1141.533203 2414.196045,1135.062622 2414.193848,1128.591919 
	C2414.158447,1032.950317 2414.168457,937.308777 2414.178223,841.667236 
	C2414.178467,840.220337 2414.311035,838.773376 2414.405029,836.853760 
	C2435.748291,836.853760 2456.802979,836.853760 2477.736816,836.853760 
	C2477.736816,824.265564 2477.736816,812.170837 2477.736816,800.098389 
	C2441.745605,800.098389 2406.019775,800.098389 2369.998535,800.098389 
	C2369.998535,802.167786 2369.998535,803.972717 2369.998535,805.777588 
	C2369.998535,874.259583 2369.949463,942.741760 2370.097900,1011.223389 
	C2370.108887,1016.347839 2369.182129,1019.894043 2364.618896,1023.102844 
	C2352.382080,1031.707764 2339.503662,1038.885620 2324.888428,1042.208984 
	C2307.131592,1046.246704 2289.173340,1047.228271 2271.079590,1044.075684 
	C2246.351807,1039.767212 2225.204590,1029.475708 2209.869141,1008.818604 
	C2208.145020,1006.496155 2208.304932,1005.081482 2209.424805,1002.821960 
	C2218.982666,983.538269 2227.489258,963.740356 2232.178223,942.726013 
	C2234.998535,930.084229 2235.221680,916.883423 2237.085449,904.002380 
	C2239.187744,889.473328 2237.002197,875.247620 2234.228027,861.173401 
	C2230.213867,840.805786 2222.361084,821.773071 2212.286377,803.612793 
	C2210.670410,800.699890 2209.139648,799.736633 2205.894775,799.751831 
	C2177.069824,799.886780 2148.243652,799.826538 2119.417969,799.841553 
	C2117.999512,799.842285 2116.581055,800.006531 2115.262451,800.088440 
	C2115.262451,812.575500 2115.262451,824.657959 2115.262451,836.958862 
	C2137.813965,836.958862 2160.103271,836.958862 2182.622070,836.958862 
	C2183.415283,839.498291 2184.094971,841.925903 2184.927979,844.299744 
	C2189.773438,858.106262 2192.256348,872.401428 2193.024414,886.936035 
	C2193.369385,893.471863 2192.570068,900.096069 2191.950439,906.648071 
	C2191.179932,914.795105 2190.709717,923.052490 2188.956055,931.007874 
	C2185.003418,948.937500 2177.207275,965.536438 2169.694092,982.172546 
	C2166.379150,989.512207 2162.252441,996.482483 2158.815674,1003.771973 
	C2158.018799,1005.462036 2157.735107,1008.214905 2158.572510,1009.727966 
	C2167.354492,1025.599854 2179.194824,1038.814697 2193.112549,1050.502197 
	C2204.053467,1059.690063 2216.130371,1066.758179 2229.049805,1072.288940 
	C2244.904297,1079.075928 2261.549561,1083.113525 2278.945068,1083.803833 
	C2300.880615,1084.674194 2322.637207,1083.911499 2343.630859,1076.795044 
	C2352.471191,1073.798462 2360.975342,1069.810181 2369.998535,1066.123047 
	C2369.998535,1067.975952 2369.998047,1069.755371 2369.998779,1071.534668 
	C2370.007324,1097.352295 2370.015869,1123.169922 2369.833252,1149.909912 
M1948.057739,1147.914795 
	C1948.040039,1044.941895 1948.021606,941.969055 1948.017944,838.996216 
	C1948.017944,838.387451 1948.222656,837.778687 1948.413940,836.710815 
	C1969.627197,836.710815 1990.673828,836.710815 2011.469238,836.710815 
	C2011.469238,824.138062 2011.469238,812.070312 2011.469238,800.205505 
	C1975.375977,800.205505 1939.649780,800.205505 1903.830811,800.205505 
	C1903.830811,801.244385 1903.830811,801.907837 1903.830811,802.571228 
	C1903.830566,872.719788 1903.816284,942.868286 1903.868530,1013.016846 
	C1903.871338,1016.861694 1903.590088,1019.552124 1899.644287,1022.254456 
	C1889.735107,1029.041016 1879.724121,1035.460083 1868.317505,1039.304565 
	C1847.844238,1046.204834 1826.904053,1047.410522 1805.581177,1044.140747 
	C1780.625244,1040.313721 1759.677368,1029.510986 1744.064209,1009.345642 
	C1742.969849,1007.932068 1742.549683,1005.018188 1743.221802,1003.377930 
	C1746.877441,994.454712 1751.183838,985.799194 1754.882568,976.892151 
	C1768.782959,943.416992 1774.567139,908.703247 1769.975464,872.562622 
	C1766.826538,847.776306 1757.744995,825.005371 1745.820923,803.234253 
	C1744.369873,800.584839 1742.658447,799.735901 1739.628906,799.750000 
	C1710.803589,799.884277 1681.977539,799.826660 1653.151611,799.840637 
	C1651.733765,799.841370 1650.315918,799.995056 1649.151489,800.062805 
	C1649.151489,812.652771 1649.151489,824.726929 1649.151489,837.001709 
	C1650.619507,837.001709 1651.767334,837.001709 1652.915161,837.001709 
	C1672.576782,837.001709 1692.239014,837.089600 1711.899170,836.918396 
	C1715.315186,836.888611 1717.063110,837.851807 1717.877319,841.197632 
	C1718.942871,845.575684 1720.627319,849.807678 1721.613281,854.199585 
	C1723.322388,861.812012 1725.358643,869.441162 1726.036621,877.170410 
	C1726.760620,885.423828 1726.287720,893.810547 1725.934570,902.121948 
	C1725.611694,909.719482 1725.353516,917.403320 1724.003418,924.856506 
	C1721.082275,940.983582 1715.141479,956.206360 1708.386230,971.076355 
	C1703.145142,982.612976 1697.517578,993.973755 1692.187500,1005.471008 
	C1691.704590,1006.512573 1691.630737,1008.338806 1692.230835,1009.195496 
	C1698.442383,1018.062927 1704.243652,1027.320923 1711.347412,1035.429321 
	C1717.643677,1042.615845 1724.900146,1049.260986 1732.720093,1054.734741 
	C1741.823120,1061.106567 1751.819946,1066.297241 1761.753418,1071.363647 
	C1776.112061,1078.687134 1791.745361,1082.520996 1807.623169,1083.620850 
	C1821.763672,1084.600220 1836.101440,1083.627686 1850.295288,1082.671875 
	C1862.752197,1081.832886 1874.749634,1078.284424 1886.328613,1073.586426 
	C1892.130737,1071.232300 1897.793945,1068.535278 1903.829834,1065.855713 
	C1903.829834,1087.311523 1903.840820,1108.137451 1903.823364,1128.963501 
	C1903.817871,1135.601074 1903.736816,1142.238770 1903.383789,1149.772827 
	C1903.354004,1160.604126 1903.149292,1171.439453 1903.388550,1182.264771 
	C1903.473755,1186.122192 1902.094849,1187.828247 1898.543579,1189.024536 
	C1882.513184,1194.424683 1868.242188,1202.551025 1857.025635,1215.646851 
	C1843.872437,1231.003784 1842.584839,1249.230957 1844.604004,1267.873047 
	C1846.079346,1281.495239 1852.952271,1292.952148 1863.956055,1301.343994 
	C1873.254150,1308.435059 1883.690552,1312.995728 1895.743286,1313.106689 
	C1897.558472,1308.068115 1899.270386,1303.387451 1900.930908,1298.688354 
	C1902.626953,1293.888184 1904.272461,1289.070068 1905.936768,1284.269409 
	C1903.048584,1282.726074 1900.489502,1281.521118 1898.093018,1280.051147 
	C1884.091309,1271.461792 1879.197998,1256.339966 1886.009521,1241.594849 
	C1890.778076,1231.272583 1899.742554,1225.399048 1910.067017,1221.919189 
	C1916.079590,1219.892700 1922.754883,1217.874146 1928.853882,1218.511841 
	C1938.458130,1219.515991 1947.186523,1224.126587 1955.029419,1230.049316 
	C1965.942017,1238.289917 1970.492310,1250.501709 1966.921631,1263.073608 
	C1964.260742,1272.441895 1957.175415,1277.871582 1949.047974,1282.203979 
	C1947.100708,1283.241943 1945.023193,1283.848877 1946.136230,1286.881592 
	C1949.429565,1295.855469 1952.583008,1304.880737 1955.727783,1313.707886 
	C1958.095947,1313.040039 1960.155029,1312.529297 1962.169556,1311.880127 
	C1976.410278,1307.290649 1989.338623,1300.892334 1998.029785,1287.842407 
	C2008.106201,1272.712402 2008.557495,1256.266724 2005.473145,1239.239136 
	C2003.539062,1228.560791 1998.645142,1219.223999 1990.920776,1211.721802 
	C1980.338135,1201.443237 1967.772095,1194.110596 1953.732178,1189.591064 
	C1949.479248,1188.222168 1948.212402,1186.102661 1948.288940,1181.791992 
	C1948.484131,1170.809814 1948.175171,1159.818726 1948.057739,1147.914795 
M1015.965881,1148.042847 
	C1015.965881,1044.457642 1015.965881,940.872498 1015.965881,836.813660 
	C1037.286987,836.813660 1058.189453,836.813660 1078.867188,836.813660 
	C1078.867188,824.244507 1078.867188,812.151001 1078.867188,800.185303 
	C1042.842773,800.185303 1007.124268,800.185303 971.162476,800.185303 
	C971.162476,802.020874 971.162415,803.500549 971.162415,804.980286 
	C971.162415,874.643127 971.148743,944.306030 971.209473,1013.968811 
	C971.212036,1016.934204 970.873413,1019.349731 968.276794,1021.290955 
	C955.601501,1030.766846 942.067139,1038.523804 926.518372,1042.177734 
	C907.768982,1046.583618 888.733032,1047.437988 869.905823,1043.727295 
	C860.072327,1041.789429 850.500000,1037.829102 841.255310,1033.767822 
	C827.938721,1027.917603 817.826965,1017.881653 809.153931,1006.252136 
	C823.357056,976.566956 836.245850,946.439941 838.232483,912.688538 
	C839.281677,894.863770 839.144287,877.352783 835.312134,859.839722 
	C830.968140,839.987549 823.139221,821.568481 813.848877,803.642578 
	C812.380371,800.809021 810.776794,799.708923 807.424500,799.728882 
	C778.593750,799.900879 749.761597,799.827637 720.929810,799.827637 
	C719.479980,799.827637 718.030212,799.827637 716.376587,799.827637 
	C716.376587,812.386963 716.376587,824.466187 716.376587,836.854858 
	C738.864868,836.854858 761.143127,836.854858 783.777710,836.854858 
	C785.559204,842.179626 787.717468,847.235779 788.912781,852.510193 
	C791.032837,861.864929 793.490723,871.293152 794.098633,880.799866 
	C794.755554,891.073730 793.861084,901.511169 792.884766,911.805359 
	C792.059143,920.509888 791.235229,929.475098 788.486511,937.680542 
	C783.331360,953.069580 776.975830,968.072083 770.730469,983.073364 
	C767.947998,989.756653 764.303894,996.090698 760.890442,1002.497803 
	C759.182922,1005.702820 758.627563,1008.369873 761.186951,1011.649780 
	C766.673462,1018.680603 771.756165,1026.029297 776.931213,1033.299805 
	C783.468567,1042.484131 792.167480,1049.315308 801.194702,1055.799072 
	C813.454468,1064.604858 826.901672,1070.839478 841.086548,1076.078979 
	C852.183289,1080.177856 863.593201,1082.739746 875.011658,1083.620850 
	C889.301758,1084.723267 903.900757,1084.119507 918.167236,1082.499023 
	C929.464294,1081.215820 940.576111,1077.674438 951.548279,1074.393555 
	C958.151245,1072.418945 964.329163,1069.022461 971.162476,1066.063965 
	C971.162476,1067.968750 971.162903,1069.735840 971.162354,1071.502930 
	C971.154663,1097.328369 971.146851,1123.153687 971.000122,1149.906860 
	C970.991272,1181.558960 970.986328,1213.211060 970.966125,1244.863159 
	C970.964539,1247.360718 971.186340,1249.917969 970.745789,1252.346069 
	C967.915344,1267.944092 964.874512,1273.830566 952.486511,1276.519165 
	C945.178650,1278.105225 936.895142,1277.726562 929.541504,1276.062012 
	C912.444153,1272.191650 903.043335,1259.729370 899.091003,1243.485474 
	C894.612305,1225.078613 901.150391,1213.786377 921.039124,1213.158936 
	C926.697571,1212.980469 932.366638,1213.151978 938.030396,1213.110840 
	C939.296814,1213.101685 940.561707,1212.873535 941.643005,1212.764771 
	C941.643005,1201.680298 941.643005,1190.973267 941.643005,1178.801636 
	C926.086792,1180.284302 910.923706,1180.694580 896.183105,1183.403809 
	C878.849304,1186.589478 867.077698,1197.329956 861.838806,1214.668945 
	C858.619690,1225.323486 858.667480,1236.015625 860.145203,1246.910400 
	C862.757446,1266.170532 871.781311,1281.826660 887.119202,1293.418091 
	C911.937012,1312.173950 940.438599,1314.736572 969.559570,1308.438599 
	C998.722473,1302.131714 1014.569702,1282.168579 1015.561218,1253.394897 
	C1016.759399,1218.623779 1015.833130,1183.779175 1015.965881,1148.042847 
M477.529968,1036.260132 
	C474.998138,1037.248779 472.494232,1038.317261 469.930084,1039.213501 
	C449.519958,1046.347046 428.626556,1047.309814 407.384979,1044.172485 
	C380.745056,1040.237671 358.885406,1028.287354 342.976898,1006.299255 
	C343.102692,1005.822693 343.151093,1005.500305 343.270508,1005.206909 
	C350.679626,987.005981 359.208069,969.160706 365.130157,950.488647 
	C369.301575,937.336487 370.240112,923.102112 372.065094,909.277405 
	C374.254700,892.689941 372.684631,876.201965 369.233673,859.891663 
	C364.717743,838.547791 356.234985,818.776184 345.388428,800.021240 
	C313.636139,800.021240 282.027649,800.021240 250.314026,800.021240 
	C250.314026,812.424683 250.314026,824.634277 250.314026,837.032410 
	C272.934845,837.032410 295.240417,837.032410 317.896362,837.032410 
	C320.362732,845.570374 323.641418,853.889893 325.037903,862.514221 
	C326.822998,873.538330 327.710632,884.802307 327.819702,895.974243 
	C327.911102,905.337830 327.046753,914.851929 325.322540,924.059082 
	C322.683777,938.150146 318.639618,951.860229 312.221680,964.894409 
	C305.285828,978.980591 299.324097,993.546387 292.829590,1008.145386 
	C312.940247,1044.675781 344.234070,1068.964600 385.081451,1079.138062 
	C426.046661,1089.340820 466.460938,1086.056519 505.048218,1065.613525 
	C505.048218,1147.735596 505.048218,1229.259888 505.048218,1310.761963 
	C520.066223,1310.761963 534.662781,1310.761963 549.612915,1310.761963 
	C549.612915,1152.793823 549.612915,995.064819 549.612915,836.922791 
	C570.879089,836.922791 591.793274,836.922791 612.626526,836.922791 
	C612.626526,824.304749 612.626526,812.104065 612.626526,800.027527 
	C576.636719,800.027527 541.022705,800.027527 504.997925,800.027527 
	C504.997925,802.011475 504.997894,803.803955 504.997894,805.596497 
	C504.997894,875.091797 505.014160,944.587036 504.919617,1014.082214 
	C504.916779,1016.170776 504.418671,1019.237305 503.022980,1020.183777 
	C494.928864,1025.672607 486.496216,1030.662231 477.529968,1036.260132 
z"/>
<path fill="#010101" opacity="1.000000" stroke="none" 
	d="
M477.854004,1036.040283 
	C486.496216,1030.662231 494.928864,1025.672607 503.022980,1020.183777 
	C504.418671,1019.237305 504.916779,1016.170776 504.919617,1014.082214 
	C505.014160,944.587036 504.997894,875.091797 504.997894,805.596497 
	C504.997894,803.803955 504.997925,802.011475 504.997925,800.027527 
	C541.022705,800.027527 576.636719,800.027527 612.626526,800.027527 
	C612.626526,812.104065 612.626526,824.304749 612.626526,836.922791 
	C591.793274,836.922791 570.879089,836.922791 549.612915,836.922791 
	C549.612915,995.064819 549.612915,1152.793823 549.612915,1310.761963 
	C534.662781,1310.761963 520.066223,1310.761963 505.048218,1310.761963 
	C505.048218,1229.259888 505.048218,1147.735596 505.048218,1065.613525 
	C466.460938,1086.056519 426.046661,1089.340820 385.081451,1079.138062 
	C344.234070,1068.964600 312.940247,1044.675781 292.829590,1008.145386 
	C299.324097,993.546387 305.285828,978.980591 312.221680,964.894409 
	C318.639618,951.860229 322.683777,938.150146 325.322540,924.059082 
	C327.046753,914.851929 327.911102,905.337830 327.819702,895.974243 
	C327.710632,884.802307 326.822998,873.538330 325.037903,862.514221 
	C323.641418,853.889893 320.362732,845.570374 317.896362,837.032410 
	C295.240417,837.032410 272.934845,837.032410 250.314026,837.032410 
	C250.314026,824.634277 250.314026,812.424683 250.314026,800.021240 
	C282.027649,800.021240 313.636139,800.021240 345.388428,800.021240 
	C356.234985,818.776184 364.717743,838.547791 369.233673,859.891663 
	C372.684631,876.201965 374.254700,892.689941 372.065094,909.277405 
	C370.240112,923.102112 369.301575,937.336487 365.130157,950.488647 
	C359.208069,969.160706 350.679626,987.005981 343.270508,1005.206909 
	C343.151093,1005.500305 343.102692,1005.822693 342.976898,1006.299255 
	C358.885406,1028.287354 380.745056,1040.237671 407.384979,1044.172485 
	C428.626556,1047.309814 449.519958,1046.347046 469.930084,1039.213501 
	C472.494232,1038.317261 474.998138,1037.248779 477.854004,1036.040283 
z"/>
<path fill="#020202" opacity="1.000000" stroke="none" 
	d="
M971.139038,1148.979126 
	C971.146851,1123.153687 971.154663,1097.328369 971.162354,1071.502930 
	C971.162903,1069.735840 971.162476,1067.968750 971.162476,1066.063965 
	C964.329163,1069.022461 958.151245,1072.418945 951.548279,1074.393555 
	C940.576111,1077.674438 929.464294,1081.215820 918.167236,1082.499023 
	C903.900757,1084.119507 889.301758,1084.723267 875.011658,1083.620850 
	C863.593201,1082.739746 852.183289,1080.177856 841.086548,1076.078979 
	C826.901672,1070.839478 813.454468,1064.604858 801.194702,1055.799072 
	C792.167480,1049.315308 783.468567,1042.484131 776.931213,1033.299805 
	C771.756165,1026.029297 766.673462,1018.680603 761.186951,1011.649780 
	C758.627563,1008.369873 759.182922,1005.702820 760.890442,1002.497803 
	C764.303894,996.090698 767.947998,989.756653 770.730469,983.073364 
	C776.975830,968.072083 783.331360,953.069580 788.486511,937.680542 
	C791.235229,929.475098 792.059143,920.509888 792.884766,911.805359 
	C793.861084,901.511169 794.755554,891.073730 794.098633,880.799866 
	C793.490723,871.293152 791.032837,861.864929 788.912781,852.510193 
	C787.717468,847.235779 785.559204,842.179626 783.777710,836.854858 
	C761.143127,836.854858 738.864868,836.854858 716.376587,836.854858 
	C716.376587,824.466187 716.376587,812.386963 716.376587,799.827637 
	C718.030212,799.827637 719.479980,799.827637 720.929810,799.827637 
	C749.761597,799.827637 778.593750,799.900879 807.424500,799.728882 
	C810.776794,799.708923 812.380371,800.809021 813.848877,803.642578 
	C823.139221,821.568481 830.968140,839.987549 835.312134,859.839722 
	C839.144287,877.352783 839.281677,894.863770 838.232483,912.688538 
	C836.245850,946.439941 823.357056,976.566956 809.153931,1006.252136 
	C817.826965,1017.881653 827.938721,1027.917603 841.255310,1033.767822 
	C850.500000,1037.829102 860.072327,1041.789429 869.905823,1043.727295 
	C888.733032,1047.437988 907.768982,1046.583618 926.518372,1042.177734 
	C942.067139,1038.523804 955.601501,1030.766846 968.276794,1021.290955 
	C970.873413,1019.349731 971.212036,1016.934204 971.209473,1013.968811 
	C971.148743,944.306030 971.162415,874.643127 971.162415,804.980286 
	C971.162415,803.500549 971.162476,802.020874 971.162476,800.185303 
	C1007.124268,800.185303 1042.842773,800.185303 1078.867188,800.185303 
	C1078.867188,812.151001 1078.867188,824.244507 1078.867188,836.813660 
	C1058.189453,836.813660 1037.286987,836.813660 1015.965881,836.813660 
	C1015.965881,940.872498 1015.965881,1044.457642 1015.439575,1148.514038 
	C1000.321838,1148.983276 985.730408,1148.981201 971.139038,1148.979126 
z"/>
<path fill="#010101" opacity="1.000000" stroke="none" 
	d="
M1903.690308,1148.876343 
	C1903.736816,1142.238770 1903.817871,1135.601074 1903.823364,1128.963501 
	C1903.840820,1108.137451 1903.829834,1087.311523 1903.829834,1065.855713 
	C1897.793945,1068.535278 1892.130737,1071.232300 1886.328613,1073.586426 
	C1874.749634,1078.284424 1862.752197,1081.832886 1850.295288,1082.671875 
	C1836.101440,1083.627686 1821.763672,1084.600220 1807.623169,1083.620850 
	C1791.745361,1082.520996 1776.112061,1078.687134 1761.753418,1071.363647 
	C1751.819946,1066.297241 1741.823120,1061.106567 1732.720093,1054.734741 
	C1724.900146,1049.260986 1717.643677,1042.615845 1711.347412,1035.429321 
	C1704.243652,1027.320923 1698.442383,1018.062927 1692.230835,1009.195496 
	C1691.630737,1008.338806 1691.704590,1006.512573 1692.187500,1005.471008 
	C1697.517578,993.973755 1703.145142,982.612976 1708.386230,971.076355 
	C1715.141479,956.206360 1721.082275,940.983582 1724.003418,924.856506 
	C1725.353516,917.403320 1725.611694,909.719482 1725.934570,902.121948 
	C1726.287720,893.810547 1726.760620,885.423828 1726.036621,877.170410 
	C1725.358643,869.441162 1723.322388,861.812012 1721.613281,854.199585 
	C1720.627319,849.807678 1718.942871,845.575684 1717.877319,841.197632 
	C1717.063110,837.851807 1715.315186,836.888611 1711.899170,836.918396 
	C1692.239014,837.089600 1672.576782,837.001709 1652.915161,837.001709 
	C1651.767334,837.001709 1650.619507,837.001709 1649.151489,837.001709 
	C1649.151489,824.726929 1649.151489,812.652771 1649.151489,800.062805 
	C1650.315918,799.995056 1651.733765,799.841370 1653.151611,799.840637 
	C1681.977539,799.826660 1710.803589,799.884277 1739.628906,799.750000 
	C1742.658447,799.735901 1744.369873,800.584839 1745.820923,803.234253 
	C1757.744995,825.005371 1766.826538,847.776306 1769.975464,872.562622 
	C1774.567139,908.703247 1768.782959,943.416992 1754.882568,976.892151 
	C1751.183838,985.799194 1746.877441,994.454712 1743.221802,1003.377930 
	C1742.549683,1005.018188 1742.969849,1007.932068 1744.064209,1009.345642 
	C1759.677368,1029.510986 1780.625244,1040.313721 1805.581177,1044.140747 
	C1826.904053,1047.410522 1847.844238,1046.204834 1868.317505,1039.304565 
	C1879.724121,1035.460083 1889.735107,1029.041016 1899.644287,1022.254456 
	C1903.590088,1019.552124 1903.871338,1016.861694 1903.868530,1013.016846 
	C1903.816284,942.868286 1903.830566,872.719788 1903.830811,802.571228 
	C1903.830811,801.907837 1903.830811,801.244385 1903.830811,800.205505 
	C1939.649780,800.205505 1975.375977,800.205505 2011.469238,800.205505 
	C2011.469238,812.070312 2011.469238,824.138062 2011.469238,836.710815 
	C1990.673828,836.710815 1969.627197,836.710815 1948.413940,836.710815 
	C1948.222656,837.778687 1948.017944,838.387451 1948.017944,838.996216 
	C1948.021606,941.969055 1948.040039,1044.941895 1947.591431,1148.446045 
	C1932.646851,1148.943726 1918.168579,1148.910034 1903.690308,1148.876343 
z"/>
<path fill="#010101" opacity="1.000000" stroke="none" 
	d="
M2370.024414,1148.987549 
	C2370.015869,1123.169922 2370.007324,1097.352295 2369.998779,1071.534668 
	C2369.998047,1069.755371 2369.998535,1067.975952 2369.998535,1066.123047 
	C2360.975342,1069.810181 2352.471191,1073.798462 2343.630859,1076.795044 
	C2322.637207,1083.911499 2300.880615,1084.674194 2278.945068,1083.803833 
	C2261.549561,1083.113525 2244.904297,1079.075928 2229.049805,1072.288940 
	C2216.130371,1066.758179 2204.053467,1059.690063 2193.112549,1050.502197 
	C2179.194824,1038.814697 2167.354492,1025.599854 2158.572510,1009.727966 
	C2157.735107,1008.214905 2158.018799,1005.462036 2158.815674,1003.771973 
	C2162.252441,996.482483 2166.379150,989.512207 2169.694092,982.172546 
	C2177.207275,965.536438 2185.003418,948.937500 2188.956055,931.007874 
	C2190.709717,923.052490 2191.179932,914.795105 2191.950439,906.648071 
	C2192.570068,900.096069 2193.369385,893.471863 2193.024414,886.936035 
	C2192.256348,872.401428 2189.773438,858.106262 2184.927979,844.299744 
	C2184.094971,841.925903 2183.415283,839.498291 2182.622070,836.958862 
	C2160.103271,836.958862 2137.813965,836.958862 2115.262451,836.958862 
	C2115.262451,824.657959 2115.262451,812.575500 2115.262451,800.088440 
	C2116.581055,800.006531 2117.999512,799.842285 2119.417969,799.841553 
	C2148.243652,799.826538 2177.069824,799.886780 2205.894775,799.751831 
	C2209.139648,799.736633 2210.670410,800.699890 2212.286377,803.612793 
	C2222.361084,821.773071 2230.213867,840.805786 2234.228027,861.173401 
	C2237.002197,875.247620 2239.187744,889.473328 2237.085449,904.002380 
	C2235.221680,916.883423 2234.998535,930.084229 2232.178223,942.726013 
	C2227.489258,963.740356 2218.982666,983.538269 2209.424805,1002.821960 
	C2208.304932,1005.081482 2208.145020,1006.496155 2209.869141,1008.818604 
	C2225.204590,1029.475708 2246.351807,1039.767212 2271.079590,1044.075684 
	C2289.173340,1047.228271 2307.131592,1046.246704 2324.888428,1042.208984 
	C2339.503662,1038.885620 2352.382080,1031.707764 2364.618896,1023.102844 
	C2369.182129,1019.894043 2370.108887,1016.347839 2370.097900,1011.223389 
	C2369.949463,942.741760 2369.998535,874.259583 2369.998535,805.777588 
	C2369.998535,803.972717 2369.998535,802.167786 2369.998535,800.098389 
	C2406.019775,800.098389 2441.745605,800.098389 2477.736816,800.098389 
	C2477.736816,812.170837 2477.736816,824.265564 2477.736816,836.853760 
	C2456.802979,836.853760 2435.748291,836.853760 2414.405029,836.853760 
	C2414.311035,838.773376 2414.178467,840.220337 2414.178223,841.667236 
	C2414.168457,937.308777 2414.158447,1032.950317 2414.193848,1128.591919 
	C2414.196045,1135.062622 2414.547363,1141.533203 2414.221680,1148.464966 
	C2399.145752,1148.946533 2384.585205,1148.967041 2370.024414,1148.987549 
z"/>
<path fill="#010101" opacity="1.000000" stroke="none" 
	d="
M1437.293213,1148.938843 
	C1437.363159,1125.623169 1437.435059,1102.307495 1437.501709,1078.991821 
	C1437.513550,1074.837036 1437.503418,1070.682373 1437.503418,1066.074951 
	C1430.849487,1068.886719 1424.646606,1072.179932 1418.048096,1074.145996 
	C1406.888184,1077.470947 1395.617554,1081.152954 1384.137695,1082.491333 
	C1369.882690,1084.153442 1355.300171,1084.597290 1340.987427,1083.643188 
	C1330.483765,1082.943237 1320.123657,1079.385986 1309.811646,1076.675293 
	C1294.042358,1072.530273 1280.168091,1064.532104 1266.784790,1055.361938 
	C1251.469482,1044.868164 1240.385010,1030.748413 1229.508545,1016.026184 
	C1223.017700,1007.240356 1227.531494,1001.054260 1230.985107,993.832031 
	C1236.118164,983.098145 1241.192749,972.331970 1246.034546,961.464661 
	C1248.836304,955.176392 1251.570312,948.793579 1253.534302,942.214355 
	C1255.535156,935.511902 1256.955811,928.571472 1257.906372,921.636047 
	C1259.226196,912.006592 1260.671387,902.280945 1260.628052,892.602966 
	C1260.551514,875.517517 1257.835327,858.709473 1252.003784,842.528748 
	C1251.351685,840.719055 1250.623413,838.936768 1249.840576,836.908936 
	C1227.506958,836.908936 1205.208618,836.908936 1182.708374,836.908936 
	C1182.708374,824.544189 1182.708374,812.458191 1182.708374,799.830383 
	C1184.408936,799.830383 1186.027100,799.830383 1187.645386,799.830383 
	C1216.142334,799.830383 1244.639648,799.904846 1273.135620,799.738770 
	C1276.812378,799.717285 1278.381592,800.981079 1280.131714,804.164978 
	C1289.680176,821.535522 1296.867798,839.750732 1301.336060,859.065918 
	C1305.594238,877.473206 1305.659424,895.947083 1304.251221,914.755676 
	C1301.893066,946.253479 1290.453247,974.665588 1277.002686,1002.566589 
	C1275.569824,1005.538818 1276.142822,1007.341980 1278.195312,1009.941101 
	C1289.078491,1023.722473 1302.899536,1033.331055 1319.303345,1039.062134 
	C1326.840820,1041.695557 1334.740845,1043.877563 1342.644653,1044.763306 
	C1364.388794,1047.200195 1386.115723,1046.572998 1406.408936,1037.381592 
	C1416.398438,1032.857056 1425.449341,1026.262329 1434.939209,1020.628357 
	C1435.736694,1020.154907 1436.642578,1019.864014 1437.593506,1019.446350 
	C1437.593506,946.317261 1437.593506,873.350037 1437.593506,800.106812 
	C1473.520264,800.106812 1509.263306,800.106812 1545.251709,800.106812 
	C1545.251709,812.324707 1545.251709,824.419067 1545.251709,836.900024 
	C1524.372437,836.900024 1503.440430,836.900024 1482.096436,836.900024 
	C1482.096436,940.876587 1482.096436,1044.468628 1481.547363,1148.530396 
	C1466.430054,1148.979614 1451.861572,1148.959229 1437.293213,1148.938843 
z"/>
<path fill="#010101" opacity="1.000000" stroke="none" 
	d="
M738.140259,362.980377 
	C738.148071,339.159210 738.155884,315.338013 738.163574,291.516846 
	C738.164185,289.741180 738.163696,287.965515 738.163696,285.563263 
	C699.550781,306.051910 659.112000,309.394379 618.194946,299.165497 
	C577.374878,288.960907 545.738770,264.956909 525.799072,227.977707 
	C532.272400,213.667786 538.737488,199.504089 545.084106,185.287460 
	C547.913086,178.950516 551.198608,172.699432 553.035034,166.065567 
	C555.630859,156.688660 557.641663,147.064819 558.863708,137.414963 
	C560.256897,126.413300 561.249756,115.255417 561.075989,104.186470 
	C560.836792,88.948975 556.760498,74.300827 551.520264,60.017872 
	C551.192688,59.125015 550.968018,58.194401 550.619873,57.028259 
	C528.393799,57.028259 506.094727,57.028259 483.480591,57.028259 
	C483.480591,44.707546 483.480591,32.634384 483.480591,20.172684 
	C484.612061,20.065731 485.864746,19.844769 487.117584,19.843933 
	C516.277344,19.824465 545.437195,19.864254 574.596619,19.771339 
	C577.361633,19.762531 578.677429,20.578480 580.127258,23.106388 
	C593.616699,46.627010 602.841187,71.716476 605.309998,98.674156 
	C606.585083,112.596817 605.251160,126.852020 604.135315,140.880554 
	C601.806824,170.155670 590.507080,196.708115 577.868469,222.743652 
	C576.603821,225.348755 576.786865,227.007401 578.571167,229.330917 
	C593.440247,248.693069 613.520935,259.448608 637.026978,263.601685 
	C659.197266,267.518829 681.344360,266.751526 702.926453,259.247803 
	C714.592407,255.191742 724.955139,248.841049 734.880066,241.662994 
	C737.479675,239.782837 738.246399,237.305206 738.241516,234.025024 
	C738.138733,164.541718 738.163696,95.058228 738.163696,25.574764 
	C738.163696,23.787785 738.163696,22.000803 738.163696,20.024363 
	C774.262573,20.024363 809.872192,20.024363 845.826599,20.024363 
	C845.826599,32.181290 845.826599,44.380043 845.826599,56.939491 
	C824.857483,56.939491 803.923950,56.939491 782.978027,56.939491 
	C782.978027,158.885895 782.978027,260.474854 782.449463,362.528168 
	C767.327393,362.988495 752.733765,362.984436 738.140259,362.980377 
z"/>
<path fill="#010101" opacity="1.000000" stroke="none" 
	d="
M2603.024658,362.989197 
	C2603.015869,339.170227 2603.007080,315.351288 2602.998535,291.532318 
	C2602.998047,289.753448 2602.998535,287.974548 2602.998535,286.236664 
	C2593.028076,290.210815 2583.581787,294.664368 2573.710938,297.765228 
	C2553.871338,303.997711 2533.351807,304.606781 2512.711426,303.835297 
	C2493.619385,303.121674 2475.788086,297.974152 2458.345703,290.438751 
	C2438.897461,282.036865 2422.661377,269.379944 2408.675537,253.895523 
	C2402.012695,246.519058 2396.859619,237.748596 2391.351074,229.393021 
	C2390.524658,228.139786 2390.974609,225.446228 2391.736328,223.849548 
	C2394.927490,217.161865 2398.701660,210.749496 2401.826172,204.033401 
	C2411.009521,184.296524 2420.214111,164.405319 2423.787598,142.814255 
	C2426.067139,129.040070 2428.118652,114.967407 2425.114014,100.790344 
	C2423.074707,91.169136 2422.146973,81.316124 2420.253418,71.658699 
	C2419.280029,66.695145 2417.281006,61.932720 2415.711670,56.972393 
	C2393.136475,56.972393 2370.842529,56.972393 2348.274414,56.972393 
	C2348.274414,44.682663 2348.274414,32.600353 2348.274414,20.132891 
	C2349.386963,20.039646 2350.636230,19.844252 2351.885742,19.843513 
	C2381.045654,19.826307 2410.205566,19.873976 2439.364990,19.763847 
	C2442.350342,19.752571 2443.727295,20.596125 2445.240967,23.360355 
	C2455.207520,41.557949 2462.891113,60.592785 2467.223633,80.902122 
	C2470.695068,97.174271 2471.305664,113.538925 2470.231445,130.219482 
	C2468.838867,151.845749 2463.675781,172.402557 2455.908447,192.400238 
	C2451.512695,203.717758 2446.294189,214.715775 2441.210449,226.399887 
	C2453.612061,244.716171 2471.643311,256.283661 2493.269043,261.835236 
	C2518.373535,268.279816 2543.582764,267.536133 2568.262695,259.054108 
	C2580.349365,254.900131 2591.165527,248.276962 2601.022705,240.217789 
	C2602.418701,239.076370 2602.917236,236.175659 2602.920166,234.088058 
	C2603.014893,164.604431 2602.998535,95.120667 2602.998535,25.636915 
	C2602.998535,23.841715 2602.998535,22.046515 2602.998535,20.043787 
	C2639.110352,20.043787 2674.836426,20.043787 2710.782227,20.043787 
	C2710.782227,32.281391 2710.782227,44.372059 2710.782227,56.868240 
	C2689.835693,56.868240 2668.919434,56.868240 2647.890137,56.868240 
	C2647.890137,158.865234 2647.890137,260.458221 2647.364502,362.500427 
	C2632.234131,362.962799 2617.629395,362.975983 2603.024658,362.989197 
z"/>
<path fill="#010101" opacity="1.000000" stroke="none" 
	d="
M2136.473633,362.913330 
	C2136.592529,340.772247 2136.713623,318.631195 2136.828125,296.490112 
	C2136.845215,293.159119 2136.830566,289.827972 2136.830566,285.857971 
	C2130.813477,288.555695 2125.134033,291.171234 2119.398682,293.658783 
	C2107.872314,298.658081 2095.715820,301.686096 2083.307373,302.660217 
	C2069.130615,303.773102 2054.718994,304.882111 2040.650391,303.514038 
	C2027.399536,302.225555 2014.172852,298.586365 2001.468140,294.374298 
	C1988.618408,290.114166 1976.715454,283.395325 1965.767456,275.163818 
	C1951.254639,264.251923 1939.263428,251.155319 1929.101929,236.082687 
	C1924.633667,229.455109 1924.670532,224.398987 1928.570312,217.609100 
	C1939.133789,199.217163 1947.098267,179.608551 1953.346191,159.334045 
	C1956.694458,148.468933 1959.050293,137.435394 1959.066040,125.952423 
	C1959.074585,119.709801 1960.373779,113.436218 1960.044067,107.232231 
	C1959.183594,91.038300 1956.015015,75.251495 1950.449829,59.948696 
	C1949.338135,56.891869 1947.434937,56.989014 1945.066895,56.991302 
	C1925.735962,57.009998 1906.404907,57.001827 1887.073975,57.001823 
	C1885.444336,57.001823 1883.814697,57.001820 1882.019287,57.001820 
	C1882.019287,44.494865 1882.019287,32.413708 1882.019287,19.830175 
	C1883.279785,19.830175 1884.389160,19.830177 1885.498535,19.830175 
	C1914.661621,19.830141 1943.825073,19.894758 1972.987305,19.741611 
	C1976.327759,19.724068 1977.750122,20.868786 1979.299194,23.731936 
	C1989.359985,42.325809 1997.187378,61.723114 2001.477051,82.474709 
	C2005.199707,100.482445 2004.807373,118.593086 2003.391724,136.825363 
	C2001.006470,167.544128 1989.426514,195.279633 1976.334717,222.541153 
	C1974.528564,226.301880 1976.210083,228.204727 1978.153442,230.679779 
	C1991.917603,248.209351 2010.340698,258.226715 2031.672607,262.919983 
	C2055.602051,268.184723 2079.607422,267.288239 2102.592773,258.799347 
	C2113.115479,254.913193 2122.292969,247.508194 2132.406982,242.337296 
	C2136.974609,240.002106 2136.868652,236.735138 2136.865723,232.740967 
	C2136.817139,163.749557 2136.830322,94.758080 2136.830322,25.766624 
	C2136.830322,23.962154 2136.830566,22.157686 2136.830566,20.097788 
	C2172.872559,20.097788 2208.603271,20.097788 2244.584961,20.097788 
	C2244.584961,32.285721 2244.584961,44.366657 2244.584961,56.867111 
	C2223.583008,56.867111 2202.666504,56.867111 2181.586670,56.867111 
	C2181.586670,158.861389 2181.586670,260.437897 2181.064209,362.483582 
	C2165.852539,362.939667 2151.163086,362.926483 2136.473633,362.913330 
z"/>
<path fill="#010101" opacity="1.000000" stroke="none" 
	d="
M1204.216797,362.962524 
	C1204.311646,340.314789 1204.407593,317.667023 1204.499512,295.019287 
	C1204.510986,292.194489 1204.501221,289.369659 1204.501221,285.870636 
	C1199.207520,288.265503 1194.319824,290.672852 1189.284668,292.716370 
	C1176.153442,298.045502 1162.621460,302.117859 1148.416016,302.907379 
	C1135.032349,303.651215 1121.517944,304.719910 1108.227173,303.626862 
	C1097.122070,302.713562 1086.178101,299.175568 1075.307007,296.261932 
	C1063.465942,293.088257 1052.723145,287.397217 1042.254150,281.015167 
	C1031.865723,274.682312 1021.996216,267.638000 1014.200195,258.414795 
	C1006.479065,249.280182 999.952698,239.129227 993.049927,229.320236 
	C992.429260,228.438293 992.438721,226.586044 992.923096,225.539780 
	C995.821289,219.279755 999.217896,213.241302 1001.938110,206.909790 
	C1008.537109,191.550400 1015.562073,176.314911 1021.014709,160.545197 
	C1024.111084,151.590164 1024.924683,141.729797 1025.898560,132.188599 
	C1026.931274,122.071136 1027.816284,111.789703 1027.138916,101.689018 
	C1026.479370,91.856186 1023.882507,82.136383 1021.885559,72.418480 
	C1021.090332,68.548103 1019.449341,64.857933 1018.514709,61.007729 
	C1017.770020,57.940140 1016.324280,56.890465 1013.044983,56.916813 
	C992.068481,57.085339 971.089966,57.002731 949.807251,57.002731 
	C949.807251,44.675861 949.807251,32.605762 949.807251,19.828875 
	C951.234314,19.828875 952.822266,19.828875 954.410278,19.828875 
	C983.071960,19.828871 1011.734070,19.897255 1040.394897,19.735844 
	C1043.699585,19.717230 1045.354370,20.747887 1046.878296,23.582848 
	C1056.320435,41.147247 1063.934937,59.379261 1068.282959,78.916077 
	C1072.388672,97.363968 1072.530518,115.903473 1071.188721,134.698273 
	C1068.951050,166.043396 1057.443726,194.341873 1044.214722,222.194290 
	C1042.943115,224.871490 1042.608643,226.734009 1044.882446,229.642151 
	C1060.583862,249.723755 1081.481567,260.272125 1106.195312,264.070435 
	C1132.679321,268.140839 1158.400513,265.928436 1182.496338,253.375946 
	C1189.822510,249.559341 1196.568848,244.605438 1203.427490,239.946777 
	C1204.272461,239.372833 1204.447510,237.401398 1204.457153,236.074097 
	C1204.535767,225.243179 1204.501221,214.411484 1204.501221,203.580017 
	C1204.501221,144.590210 1204.501099,85.600403 1204.501099,26.610594 
	C1204.501099,24.613647 1204.501221,22.616703 1204.501221,20.224453 
	C1240.479980,20.224453 1276.321899,20.224453 1312.317627,20.224453 
	C1312.317627,32.429478 1312.317627,44.516941 1312.317627,56.966656 
	C1291.204834,56.966656 1270.268555,56.966656 1249.097534,56.966656 
	C1249.097534,158.906738 1249.097534,260.484711 1248.547729,362.532288 
	C1233.404175,362.988800 1218.810547,362.975677 1204.216797,362.962524 
z"/>
<path fill="#010101" opacity="1.000000" stroke="none" 
	d="
M1670.216797,362.961365 
	C1670.312256,340.314880 1670.409058,317.668427 1670.501709,295.021942 
	C1670.513306,292.197388 1670.503296,289.372772 1670.503296,285.944489 
	C1664.629150,288.560425 1659.252930,291.650726 1653.469727,293.383942 
	C1641.762451,296.892609 1629.990845,300.935303 1617.957520,302.415924 
	C1603.395508,304.207733 1588.432861,304.834167 1573.831787,303.647461 
	C1558.361328,302.390106 1542.990234,298.714966 1528.895386,291.567688 
	C1519.811768,286.961395 1510.778320,282.165222 1502.161377,276.754913 
	C1493.273193,271.174255 1484.842529,264.856659 1478.626953,256.087921 
	C1472.365479,247.254578 1465.895142,238.568512 1459.705078,229.686447 
	C1458.932495,228.577911 1458.698975,226.387711 1459.251709,225.168243 
	C1466.732788,208.663712 1475.092163,192.518112 1481.767822,175.701584 
	C1486.086426,164.822662 1488.457886,153.085785 1490.855713,141.557358 
	C1492.627808,133.037949 1493.793945,124.238922 1493.843140,115.556610 
	C1493.895264,106.334717 1492.850830,97.011154 1491.290283,87.902443 
	C1489.730591,78.798439 1486.864136,69.923256 1484.729614,60.910122 
	C1483.971436,57.708797 1482.220703,56.911087 1479.078369,56.933064 
	C1459.583740,57.069408 1440.087769,57.001675 1420.592163,57.001675 
	C1418.962402,57.001675 1417.332520,57.001671 1415.604248,57.001671 
	C1415.604248,44.534832 1415.604248,32.552269 1415.604248,20.173786 
	C1416.866211,20.058912 1418.121338,19.845722 1419.376587,19.844913 
	C1448.536621,19.826103 1477.696777,19.864466 1506.856567,19.774773 
	C1509.618774,19.766275 1511.192871,20.473770 1512.651733,23.031555 
	C1523.472412,42.004292 1531.480713,62.116512 1535.620117,83.500137 
	C1538.902588,100.456703 1538.403442,117.644394 1537.287720,134.976608 
	C1535.284790,166.090057 1523.498169,193.856979 1510.653442,221.420822 
	C1508.963623,225.046768 1508.947876,227.062744 1511.631226,230.433960 
	C1526.335205,248.906174 1545.807495,259.436646 1568.410645,263.649109 
	C1591.483154,267.949097 1614.868408,267.479095 1636.888672,258.512421 
	C1648.324585,253.855759 1658.632568,246.388931 1669.290771,239.928513 
	C1670.284668,239.325989 1670.454468,236.823135 1670.455933,235.202133 
	C1670.511841,173.049667 1670.503296,110.897133 1670.503296,48.744606 
	C1670.503296,39.277901 1670.503296,29.811193 1670.503296,20.088966 
	C1706.568115,20.088966 1742.307617,20.088966 1778.272095,20.088966 
	C1778.272095,32.351315 1778.272095,44.443043 1778.272095,56.923790 
	C1757.337280,56.923790 1736.409546,56.923790 1715.096313,56.923790 
	C1715.096313,158.894760 1715.096313,260.478668 1714.547119,362.531982 
	C1699.404175,362.988037 1684.810425,362.974701 1670.216797,362.961365 
z"/>
<path fill="#010101" opacity="1.000000" stroke="none" 
	d="
M271.566956,362.880524 
	C271.566956,337.399750 271.566956,311.918976 271.566956,286.136444 
	C270.744385,286.438751 269.695801,286.697693 268.766174,287.184082 
	C237.479630,303.552887 204.115952,306.990753 169.709427,302.380463 
	C135.582687,297.807678 106.107796,283.132111 82.312096,258.253143 
	C74.001839,249.564606 67.671707,238.962418 60.678799,229.063553 
	C59.966469,228.055222 60.516598,225.685303 61.164673,224.257599 
	C68.444565,208.220276 76.436798,192.481262 83.120598,176.203415 
	C98.876167,137.831970 99.646408,98.891533 85.811920,59.727966 
	C85.491013,58.819530 84.993416,57.973511 84.517288,56.969925 
	C62.166023,56.969925 39.866169,56.969925 17.283070,56.969925 
	C17.283070,44.568237 17.283070,32.358570 17.283070,19.830599 
	C31.765881,19.830599 46.059681,19.830597 60.353481,19.830599 
	C76.516518,19.830603 92.680168,19.768429 108.841652,19.926340 
	C110.466301,19.942213 112.888542,20.842957 113.576019,22.087093 
	C127.636581,47.532463 137.744324,74.317047 139.581360,103.635880 
	C141.539246,134.883240 136.327881,165.018372 124.431038,193.954285 
	C119.950386,204.852295 115.024689,215.567307 110.217819,226.557922 
	C128.287308,250.915161 153.165344,262.912445 183.031830,265.172394 
	C205.384186,266.863770 227.406143,265.103271 247.791046,254.751465 
	C255.603912,250.783936 262.860626,245.665955 270.105194,240.685837 
	C271.402985,239.793671 271.919586,237.011185 271.923004,235.099930 
	C272.017334,182.112000 271.998657,129.123871 271.998657,76.135773 
	C271.998657,57.511436 271.998627,38.887100 271.998627,20.047962 
	C308.104431,20.047962 343.830872,20.047962 379.779480,20.047962 
	C379.779480,32.275379 379.779480,44.366371 379.779480,56.862419 
	C358.840210,56.862419 337.923126,56.862419 316.889526,56.862419 
	C316.889526,158.859070 316.889526,260.452148 316.364532,362.497375 
	C301.082001,362.926544 286.324493,362.903534 271.566956,362.880524 
z"/>
<path fill="#C57034" opacity="1.000000" stroke="none" 
	d="
M1670.138672,363.424377 
	C1684.810425,362.974701 1699.404175,362.988037 1714.460938,362.992676 
	C1714.992432,381.139435 1715.347900,399.299866 1715.033081,417.448639 
	C1714.805054,430.597443 1716.655640,443.291901 1719.096924,456.221375 
	C1725.904541,492.274139 1708.237183,521.641541 1669.004883,528.722961 
	C1658.368286,530.642944 1647.181885,531.661560 1636.485718,530.629028 
	C1618.413574,528.884521 1601.454956,523.589600 1587.716309,510.162018 
	C1573.360107,496.130646 1565.349121,479.490448 1563.168701,459.768799 
	C1562.683594,455.381134 1562.200073,450.993317 1561.743774,446.859955 
	C1557.653931,445.136108 1553.555420,443.449097 1549.490234,441.685547 
	C1543.533569,439.101562 1541.169556,433.565674 1540.324463,428.016327 
	C1536.410645,402.316345 1553.701538,382.987640 1577.555664,383.126617 
	C1583.396240,383.160645 1589.261475,384.629883 1595.048706,385.775818 
	C1597.969238,386.354095 1599.201416,388.475647 1599.071167,391.691254 
	C1598.830078,397.644714 1599.002197,403.614899 1599.002197,409.904602 
	C1622.795410,409.904602 1646.168945,409.904602 1670.060425,409.904602 
	C1670.060425,394.450836 1670.060425,379.169128 1670.138672,363.424377 
M1671.700928,490.235626 
	C1683.327759,480.942078 1683.368286,461.415283 1677.954102,448.121704 
	C1676.542358,444.655548 1674.630127,443.150513 1670.549561,443.197815 
	C1649.068726,443.446899 1627.583496,443.314392 1606.099731,443.314392 
	C1604.484009,443.314392 1602.868164,443.314423 1600.761597,443.314423 
	C1601.857056,461.906982 1605.271484,478.480072 1621.485840,489.706848 
	C1636.438965,500.060272 1656.949097,500.718323 1671.700928,490.235626 
z"/>
<path fill="#C57034" opacity="1.000000" stroke="none" 
	d="
M1204.138916,363.425507 
	C1218.810547,362.975677 1233.404175,362.988800 1248.461060,362.993164 
	C1248.992065,366.311005 1249.118530,369.637634 1249.119385,372.964264 
	C1249.131958,423.441742 1249.128052,473.919189 1249.128052,524.396667 
	C1249.128052,526.375977 1249.128052,528.355347 1249.128052,530.664795 
	C1234.092285,530.664795 1219.375366,530.664795 1204.183105,530.664795 
	C1204.183105,521.496277 1204.183105,512.408569 1204.183105,502.535797 
	C1180.847778,512.990051 1157.230713,513.540161 1133.887085,506.689819 
	C1109.925781,499.658234 1094.763794,482.004913 1083.995117,459.554657 
	C1103.911621,436.398132 1106.274780,410.194672 1095.010620,381.574677 
	C1105.815674,377.694702 1116.609741,373.818634 1127.712891,369.831604 
	C1134.447266,383.011200 1138.841431,396.292511 1139.178833,411.189453 
	C1160.738403,411.189453 1182.102661,411.189453 1204.061157,411.189453 
	C1204.061157,395.424011 1204.061157,379.656250 1204.138916,363.425507 
M1181.657349,478.288910 
	C1188.282593,475.825470 1194.936646,473.434387 1201.503662,470.824463 
	C1202.545532,470.410370 1203.896240,469.026276 1203.917358,468.064545 
	C1204.105713,459.507233 1204.026978,450.944000 1204.026978,442.126465 
	C1181.351685,442.126465 1159.424805,442.083649 1137.499634,442.244385 
	C1136.321655,442.253021 1134.747925,443.736542 1134.057129,444.935883 
	C1131.333862,449.663635 1128.889893,454.552216 1125.837402,460.338257 
	C1129.430664,463.541168 1133.078247,467.402527 1137.310913,470.451721 
	C1150.471802,479.933197 1165.556030,479.887390 1181.657349,478.288910 
z"/>
<path fill="#C57034" opacity="1.000000" stroke="none" 
	d="
M738.070190,363.444031 
	C752.733765,362.984436 767.327393,362.988495 782.378052,362.983154 
	C782.835083,393.100616 782.835083,423.227448 782.835083,453.918030 
	C750.161560,453.918030 717.609131,453.918030 684.492737,453.918030 
	C684.985291,463.791595 687.916870,472.127808 693.782959,479.259949 
	C702.658081,490.050690 714.837463,494.704926 728.166992,497.046143 
	C747.046570,500.362152 764.368469,495.413757 781.401001,486.768646 
	C786.679504,495.884491 791.864014,504.838104 797.261292,514.159180 
	C791.422363,519.698181 784.192444,522.369446 776.977295,524.998169 
	C761.663391,530.577454 745.764282,531.465515 729.647034,530.948669 
	C707.655518,530.243408 687.468933,524.096130 670.166809,510.393127 
	C660.635376,502.844391 654.297424,492.488403 650.137878,481.059052 
	C647.971863,475.107513 646.798401,468.800690 644.830933,462.767029 
	C644.281799,461.083191 642.780640,458.994507 641.241699,458.461609 
	C628.707214,454.121063 622.697021,446.041168 623.428406,433.268158 
	C624.044128,422.515106 627.092712,412.435547 635.524597,405.257050 
	C640.003235,401.444153 645.407043,397.957092 650.977295,396.359619 
	C660.114746,393.739166 669.552185,394.152130 678.743835,397.798828 
	C682.257996,399.193085 683.149231,401.076721 683.050598,404.451813 
	C682.876221,410.418976 683.001709,416.394867 683.001709,422.971436 
	C700.898682,422.971436 718.488220,422.971436 736.796509,422.924408 
	C737.616821,422.587830 737.718384,422.298279 737.819885,422.008728 
	C737.880005,402.641693 737.940125,383.274689 738.070190,363.444031 
z"/>
<path fill="#C57034" opacity="1.000000" stroke="none" 
	d="
M2602.928711,363.450195 
	C2617.629395,362.975983 2632.234131,362.962799 2647.289551,362.950806 
	C2647.740234,375.085693 2647.740234,387.219421 2647.740234,399.576508 
	C2660.592773,403.346588 2672.429932,408.513275 2683.109375,416.171326 
	C2701.458984,429.329468 2709.702393,446.917206 2709.207520,469.659363 
	C2708.569336,499.009674 2689.512695,516.552795 2665.469238,525.002686 
	C2648.612793,530.926880 2631.211426,531.629578 2613.635254,530.787109 
	C2595.821289,529.933350 2578.937500,525.860107 2564.422607,514.941528 
	C2553.217041,506.512329 2545.419678,495.774933 2543.101074,481.475250 
	C2540.820801,467.411591 2541.161133,453.443176 2547.475098,440.675018 
	C2551.060547,433.424866 2556.871582,427.043945 2562.560547,421.116180 
	C2572.675049,410.576294 2585.900635,405.267090 2599.573486,400.902039 
	C2600.982910,400.452057 2602.606934,397.959290 2602.648438,396.375519 
	C2602.931885,385.559875 2602.818359,374.733856 2602.928711,363.450195 
M2592.042480,442.496887 
	C2575.288086,455.429108 2576.500977,483.441742 2598.140137,492.602844 
	C2616.262939,500.275208 2635.090576,500.564209 2652.948730,492.396759 
	C2675.528076,482.069702 2677.262207,454.833862 2656.634766,441.003967 
	C2650.642334,436.986206 2643.800049,434.111969 2637.098145,431.308868 
	C2629.290527,428.043274 2621.097412,427.930634 2613.326172,431.419830 
	C2606.250977,434.596619 2599.488037,438.469086 2592.042480,442.496887 
z"/>
<path fill="#C57034" opacity="1.000000" stroke="none" 
	d="
M971.069580,1149.442993 
	C985.730408,1148.981201 1000.321838,1148.983276 1015.369751,1148.975830 
	C1015.833130,1183.779175 1016.759399,1218.623779 1015.561218,1253.394897 
	C1014.569702,1282.168579 998.722473,1302.131714 969.559570,1308.438599 
	C940.438599,1314.736572 911.937012,1312.173950 887.119202,1293.418091 
	C871.781311,1281.826660 862.757446,1266.170532 860.145203,1246.910400 
	C858.667480,1236.015625 858.619690,1225.323486 861.838806,1214.668945 
	C867.077698,1197.329956 878.849304,1186.589478 896.183105,1183.403809 
	C910.923706,1180.694580 926.086792,1180.284302 941.643005,1178.801636 
	C941.643005,1190.973267 941.643005,1201.680298 941.643005,1212.764771 
	C940.561707,1212.873535 939.296814,1213.101685 938.030396,1213.110840 
	C932.366638,1213.151978 926.697571,1212.980469 921.039124,1213.158936 
	C901.150391,1213.786377 894.612305,1225.078613 899.091003,1243.485474 
	C903.043335,1259.729370 912.444153,1272.191650 929.541504,1276.062012 
	C936.895142,1277.726562 945.178650,1278.105225 952.486511,1276.519165 
	C964.874512,1273.830566 967.915344,1267.944092 970.745789,1252.346069 
	C971.186340,1249.917969 970.964539,1247.360718 970.966125,1244.863159 
	C970.986328,1213.211060 970.991272,1181.558960 971.069580,1149.442993 
z"/>
<path fill="#C57034" opacity="1.000000" stroke="none" 
	d="
M1437.199463,1149.400024 
	C1451.861572,1148.959229 1466.430054,1148.979614 1481.461670,1148.990967 
	C1481.924805,1165.957397 1481.924805,1182.932861 1481.924805,1200.761108 
	C1479.891846,1200.761108 1477.980347,1200.761108 1476.068848,1200.761108 
	C1450.573730,1200.762329 1425.078735,1200.760376 1399.583618,1200.767334 
	C1394.364258,1200.768799 1389.133301,1201.054688 1385.358032,1205.287720 
	C1382.196411,1208.832886 1381.909668,1213.143677 1383.797974,1217.326294 
	C1386.233398,1222.720825 1390.899170,1224.965088 1396.625610,1224.980347 
	C1421.120483,1225.045166 1445.615601,1225.043579 1470.110596,1225.065918 
	C1471.908081,1225.067505 1473.705688,1225.066162 1475.814087,1225.066162 
	C1475.814087,1236.074219 1475.814087,1246.668701 1475.814087,1258.130127 
	C1474.192261,1258.130127 1472.452881,1258.130127 1470.713379,1258.130127 
	C1454.383179,1258.130127 1438.051880,1258.030884 1421.724121,1258.231812 
	C1419.124146,1258.263916 1415.472656,1256.257812 1413.981689,1260.459717 
	C1412.373779,1264.991089 1411.894043,1269.514282 1415.099976,1273.627441 
	C1419.481079,1279.248535 1425.843384,1280.947021 1432.421997,1281.982544 
	C1449.205078,1284.624146 1465.782593,1283.003662 1482.579224,1279.008911 
	C1485.484131,1289.069092 1488.332397,1298.932739 1491.529297,1310.003540 
	C1482.813232,1312.041138 1474.650024,1314.588989 1466.294922,1315.723755 
	C1457.810425,1316.876221 1449.083740,1317.408813 1440.557373,1316.828857 
	C1426.314575,1315.860229 1411.980835,1314.631958 1398.860718,1307.958374 
	C1386.038574,1301.436401 1377.576172,1291.190674 1375.414795,1277.115967 
	C1374.286987,1269.772095 1376.205078,1261.960449 1376.746094,1254.379272 
	C1371.462280,1251.543091 1365.065186,1248.712280 1359.325317,1244.893677 
	C1349.578125,1238.409058 1344.844849,1228.835083 1344.235962,1217.168579 
	C1343.804199,1208.894043 1344.279053,1200.794922 1347.615356,1193.023926 
	C1352.168701,1182.417847 1360.723022,1176.303467 1370.930786,1172.157349 
	C1380.258057,1168.368652 1390.134155,1167.631958 1400.100342,1167.664062 
	C1412.226929,1167.703247 1424.353638,1167.673462 1437.105713,1167.673462 
	C1437.105713,1161.413818 1437.105713,1155.637451 1437.199463,1149.400024 
z"/>
<path fill="#C57034" opacity="1.000000" stroke="none" 
	d="
M418.776581,1180.015137 
	C418.776581,1166.702637 418.776581,1153.390137 418.776581,1139.659668 
	C431.914368,1139.659668 444.614716,1139.659668 457.683533,1139.659668 
	C457.785889,1140.913818 457.979645,1142.184204 457.980133,1143.454712 
	C457.995331,1183.601807 458.009125,1223.748779 457.981201,1263.895874 
	C457.972046,1277.054077 453.992004,1288.582886 443.929840,1297.593994 
	C436.557861,1304.195801 427.605865,1308.091797 418.231323,1309.646729 
	C398.889313,1312.854858 379.756683,1311.767700 362.080170,1301.882568 
	C341.693665,1290.482300 328.856171,1273.570312 325.207703,1250.241699 
	C323.108734,1236.820557 323.178345,1223.598633 328.155151,1210.542236 
	C333.947357,1195.346680 345.821808,1187.732178 360.538574,1184.371338 
	C369.972534,1182.216919 379.878143,1181.861572 389.606628,1181.340576 
	C398.743164,1180.851196 407.924774,1181.203979 417.805298,1181.067139 
	C418.608215,1180.637207 418.692413,1180.326172 418.776581,1180.015137 
M407.192535,1277.028320 
	C415.224304,1274.222168 418.809052,1269.421143 418.933136,1261.165771 
	C418.998108,1256.842041 418.947113,1252.516724 418.947296,1248.192139 
	C418.947693,1237.090454 418.947418,1225.988892 418.947418,1215.212036 
	C405.048248,1215.212036 391.580872,1214.418335 378.260315,1215.475098 
	C368.443054,1216.253906 363.067444,1223.333252 363.012238,1233.314941 
	C362.978790,1239.372803 363.522552,1245.648560 365.129883,1251.460571 
	C370.054504,1269.267578 389.376282,1281.018677 407.192535,1277.028320 
z"/>
<path fill="#C57035" opacity="1.000000" stroke="none" 
	d="
M271.414581,363.318054 
	C286.324493,362.903534 301.082001,362.926544 316.290222,362.950317 
	C315.657593,380.563568 315.945007,394.382629 302.054077,419.593201 
	C310.167999,428.693817 317.032104,438.683533 319.409668,451.084930 
	C324.455139,477.401978 316.040710,504.164001 289.599274,518.250793 
	C267.702454,529.916443 244.459793,531.607971 220.442535,530.964417 
	C200.009277,530.416992 181.086090,525.062134 162.442352,515.067749 
	C167.133667,504.967529 171.783875,494.955780 176.250412,485.339478 
	C186.297928,488.797577 195.684891,493.118378 205.544418,495.189178 
	C224.598022,499.190979 244.097122,501.107513 262.242432,491.808838 
	C274.111145,485.726654 281.071747,475.696564 281.153809,461.434998 
	C281.196625,453.985626 279.258057,447.672760 275.072510,441.730865 
	C273.033752,438.836578 271.500580,437.805817 267.507874,439.493408 
	C254.499573,444.991760 240.743790,447.298035 226.557846,447.038544 
	C216.864532,446.861237 207.403061,446.393707 198.088379,442.783203 
	C185.425690,437.875000 181.796783,423.572968 185.948883,412.157959 
	C188.192810,405.988922 191.613205,403.879791 198.345047,404.049225 
	C218.986465,404.568695 239.650696,404.112946 260.302551,404.346222 
	C264.317413,404.391510 266.155151,403.006134 266.639923,399.314758 
	C268.196198,387.463715 269.723633,375.608917 271.414581,363.318054 
z"/>
<path fill="#C57034" opacity="1.000000" stroke="none" 
	d="
M1903.537109,1149.324585 
	C1918.168579,1148.910034 1932.646851,1148.943726 1947.596558,1148.904297 
	C1948.175171,1159.818726 1948.484131,1170.809814 1948.288940,1181.791992 
	C1948.212402,1186.102661 1949.479248,1188.222168 1953.732178,1189.591064 
	C1967.772095,1194.110596 1980.338135,1201.443237 1990.920776,1211.721802 
	C1998.645142,1219.223999 2003.539062,1228.560791 2005.473145,1239.239136 
	C2008.557495,1256.266724 2008.106201,1272.712402 1998.029785,1287.842407 
	C1989.338623,1300.892334 1976.410278,1307.290649 1962.169556,1311.880127 
	C1960.155029,1312.529297 1958.095947,1313.040039 1955.727783,1313.707886 
	C1952.583008,1304.880737 1949.429565,1295.855469 1946.136230,1286.881592 
	C1945.023193,1283.848877 1947.100708,1283.241943 1949.047974,1282.203979 
	C1957.175415,1277.871582 1964.260742,1272.441895 1966.921631,1263.073608 
	C1970.492310,1250.501709 1965.942017,1238.289917 1955.029419,1230.049316 
	C1947.186523,1224.126587 1938.458130,1219.515991 1928.853882,1218.511841 
	C1922.754883,1217.874146 1916.079590,1219.892700 1910.067017,1221.919189 
	C1899.742554,1225.399048 1890.778076,1231.272583 1886.009521,1241.594849 
	C1879.197998,1256.339966 1884.091309,1271.461792 1898.093018,1280.051147 
	C1900.489502,1281.521118 1903.048584,1282.726074 1905.936768,1284.269409 
	C1904.272461,1289.070068 1902.626953,1293.888184 1900.930908,1298.688354 
	C1899.270386,1303.387451 1897.558472,1308.068115 1895.743286,1313.106689 
	C1883.690552,1312.995728 1873.254150,1308.435059 1863.956055,1301.343994 
	C1852.952271,1292.952148 1846.079346,1281.495239 1844.604004,1267.873047 
	C1842.584839,1249.230957 1843.872437,1231.003784 1857.025635,1215.646851 
	C1868.242188,1202.551025 1882.513184,1194.424683 1898.543579,1189.024536 
	C1902.094849,1187.828247 1903.473755,1186.122192 1903.388550,1182.264771 
	C1903.149292,1171.439453 1903.354004,1160.604126 1903.537109,1149.324585 
z"/>
<path fill="#C57035" opacity="1.000000" stroke="none" 
	d="
M2136.362793,363.371155 
	C2151.163086,362.926483 2165.852539,362.939667 2180.964355,362.920105 
	C2181.387207,387.337982 2181.387207,411.788574 2181.387207,436.933685 
	C2179.256348,436.933685 2177.485596,436.933563 2175.714600,436.933685 
	C2162.055664,436.934540 2148.374512,436.462097 2134.744873,437.095703 
	C2124.967773,437.550232 2115.092773,438.756042 2105.561523,440.937897 
	C2093.056152,443.800690 2084.162842,452.318359 2077.172119,462.737305 
	C2076.366455,463.937897 2076.484131,466.695953 2077.336182,467.927887 
	C2087.555664,482.706360 2101.449707,491.701294 2119.265625,495.121979 
	C2140.210449,499.143372 2159.959229,495.803619 2179.807617,486.707153 
	C2184.580811,496.711578 2189.300537,506.603302 2194.215820,516.905518 
	C2184.557129,522.773193 2174.162109,526.230957 2163.396973,528.709045 
	C2150.868652,531.593079 2138.118408,531.189758 2125.414307,530.856384 
	C2103.232666,530.274292 2082.802734,523.767395 2064.817139,510.808746 
	C2052.729492,502.099701 2043.818359,490.482086 2035.859009,477.737488 
	C2030.280273,468.804474 2032.149048,461.742920 2036.517212,454.055176 
	C2042.225708,444.008392 2048.931885,434.696655 2057.584961,426.903351 
	C2070.723145,415.070557 2085.888672,407.352295 2103.478516,405.100769 
	C2112.826660,403.904175 2122.290771,403.510040 2131.717041,403.077515 
	C2135.177734,402.918732 2136.385742,401.718597 2136.343018,398.305939 
	C2136.199219,386.815033 2136.265625,375.321503 2136.362793,363.371155 
z"/>
<path fill="#C57034" opacity="1.000000" stroke="none" 
	d="
M2369.928711,1149.448730 
	C2384.585205,1148.967041 2399.145752,1148.946533 2414.146484,1148.921143 
	C2414.677002,1166.900269 2414.896240,1184.885254 2414.755859,1202.867432 
	C2414.725586,1206.766479 2415.972900,1208.621460 2419.443359,1210.390259 
	C2449.282715,1225.599976 2478.997070,1241.055054 2509.011230,1256.572632 
	C2502.490723,1267.654175 2496.010742,1278.550293 2489.664551,1289.523926 
	C2487.776123,1292.788818 2485.577393,1292.150635 2483.140381,1290.527222 
	C2462.307373,1276.648682 2441.500977,1262.729614 2420.648926,1248.879883 
	C2414.887695,1245.053223 2409.045410,1241.342163 2403.128906,1237.762207 
	C2401.999023,1237.078491 2400.243896,1236.812500 2398.950928,1237.109375 
	C2385.556396,1240.183838 2372.345215,1244.790161 2358.790283,1246.248657 
	C2342.095947,1248.045044 2324.845947,1248.764893 2308.853271,1241.790894 
	C2294.235352,1235.416138 2288.066895,1223.337402 2287.946289,1207.597534 
	C2287.878418,1198.753174 2290.332520,1190.891113 2295.256836,1183.759644 
	C2296.015381,1182.660767 2298.231201,1181.817749 2299.610596,1182.011597 
	C2317.230957,1184.487061 2334.816650,1187.206665 2352.422607,1189.787109 
	C2357.965576,1190.599609 2363.542236,1191.182495 2369.833252,1191.960693 
	C2369.833252,1177.755005 2369.833252,1163.832397 2369.928711,1149.448730 
z"/>
<path fill="#FBF6F3" opacity="1.000000" stroke="none" 
	d="
M737.646057,422.105011 
	C737.718384,422.298279 737.616821,422.587830 737.261230,422.856689 
	C737.101929,422.580292 737.256958,422.368713 737.646057,422.105011 
z"/>
<path fill="#FBF6F3" opacity="1.000000" stroke="none" 
	d="
M418.599365,1180.129150 
	C418.692413,1180.326172 418.608215,1180.637207 418.262878,1180.955322 
	C418.067780,1180.679321 418.207916,1180.439575 418.599365,1180.129150 
z"/>
<path fill="#FEFDFC" opacity="1.000000" stroke="none" 
	d="
M1671.420044,490.459106 
	C1656.949097,500.718323 1636.438965,500.060272 1621.485840,489.706848 
	C1605.271484,478.480072 1601.857056,461.906982 1600.761597,443.314423 
	C1602.868164,443.314423 1604.484009,443.314392 1606.099731,443.314392 
	C1627.583496,443.314392 1649.068726,443.446899 1670.549561,443.197815 
	C1674.630127,443.150513 1676.542358,444.655548 1677.954102,448.121704 
	C1683.368286,461.415283 1683.327759,480.942078 1671.420044,490.459106 
z"/>
<path fill="#FEFDFD" opacity="1.000000" stroke="none" 
	d="
M1181.235229,478.423462 
	C1165.556030,479.887390 1150.471802,479.933197 1137.310913,470.451721 
	C1133.078247,467.402527 1129.430664,463.541168 1125.837402,460.338257 
	C1128.889893,454.552216 1131.333862,449.663635 1134.057129,444.935883 
	C1134.747925,443.736542 1136.321655,442.253021 1137.499634,442.244385 
	C1159.424805,442.083649 1181.351685,442.126465 1204.026978,442.126465 
	C1204.026978,450.944000 1204.105713,459.507233 1203.917358,468.064545 
	C1203.896240,469.026276 1202.545532,470.410370 1201.503662,470.824463 
	C1194.936646,473.434387 1188.282593,475.825470 1181.235229,478.423462 
z"/>
<path fill="#FFFEFE" opacity="1.000000" stroke="none" 
	d="
M2592.314941,442.265869 
	C2599.488037,438.469086 2606.250977,434.596619 2613.326172,431.419830 
	C2621.097412,427.930634 2629.290527,428.043274 2637.098145,431.308868 
	C2643.800049,434.111969 2650.642334,436.986206 2656.634766,441.003967 
	C2677.262207,454.833862 2675.528076,482.069702 2652.948730,492.396759 
	C2635.090576,500.564209 2616.262939,500.275208 2598.140137,492.602844 
	C2576.500977,483.441742 2575.288086,455.429108 2592.314941,442.265869 
z"/>
<path fill="#FEFDFD" opacity="1.000000" stroke="none" 
	d="
M406.784485,1277.088623 
	C389.376282,1281.018677 370.054504,1269.267578 365.129883,1251.460571 
	C363.522552,1245.648560 362.978790,1239.372803 363.012238,1233.314941 
	C363.067444,1223.333252 368.443054,1216.253906 378.260315,1215.475098 
	C391.580872,1214.418335 405.048248,1215.212036 418.947418,1215.212036 
	C418.947418,1225.988892 418.947693,1237.090454 418.947296,1248.192139 
	C418.947113,1252.516724 418.998108,1256.842041 418.933136,1261.165771 
	C418.809052,1269.421143 415.224304,1274.222168 406.784485,1277.088623 
z"/>
</svg>