<svg enable-background="new 0 0 1276 616" viewBox="0 0 1276 616" xmlns="http://www.w3.org/2000/svg"><path d="m951 617c-316.958191 0-633.416443 0-949.937321 0 0-205.264435 0-410.52887 0-615.896658h1275.915592v615.896658c-108.507202 0-216.992797 0-325.978271 0m-791.821594-131.647217c31.36113 17.864502 64.944122 24.833496 100.530487 18.458466 37.910675-6.791443 64.241669-28.554962 77.462128-64.980499 7.449462-20.525086 7.656097-41.724946 3.121887-63.018342-4.178803-19.624267-13.22641-36.48883-28.213867-49.98059-2.64386-2.380005-5.578248-4.437226-8.946412-7.090973 51.719391-24.024384 70.22699-67.672852 73.12262-120.589676h377.380127v49.678863c-1.975159 0-3.763062-.002151-5.550964.000321-42.162232.057968-84.339356-.536072-126.480774.429504-23.740662.54393-43.272827 11.134247-56.429261 31.62854-14.319213 22.305634-15.663879 55.686096 4.756775 78.002289.954773 1.043457 1.715699 2.264313 2.477723 3.283264-4.255433 3.389191-8.191468 6.455567-12.054322 9.611481-26.425171 21.588776-31.989074 55.951569-20.281921 84.765594 13.317077 32.776581 40.076355 48.672608 74.191223 50.068238 38.932129 1.592743 77.976257.466613 116.971741.476867 15.470092.00409 30.459655-2.786895 44.968811-8.134033 38.022705-14.012665 54.202759-43.303894 49.378601-81.329712-3.195862-25.19104-18.770569-43.15506-41.016663-55.172729-14.448669-7.80539-30.140991-10.227967-46.293152-10.268708-33.830261-.085327-67.664245.228882-101.48883-.216888-7.81836-.103088-16.072815-1.401764-23.318604-4.224518-21.593933-8.412323-25.857849-34.27948-8.569153-49.377075 8.668519-7.569824 19.361329-9.178253 30.383423-9.185913 53.162171-.037018 106.32428-.016632 159.48645-.016632h5.587403c0-30.457947 0-60.227005 0-89.938126h118.420837c3.441345 34.951905 16.845276 66.526993 29.666382 98.264176-1.948242 1.147125-3.513794 2.085754-5.094971 2.997406-19.621032 11.313049-34.448364 27.112884-43.927795 47.692474-8.138001 17.667328-10.133423 36.341065-8.615479 55.615814 1.940308 24.638397 8.789307 47.421356 24.73053 66.738648 21.216065 25.709167 49.524536 35.74176 82.276489 36.637634 2.91211-13.542236 5.751404-26.746002 8.597413-39.980743-6.269043-.802826-11.903016-1.261231-17.433655-2.280396-19.019898-3.504944-34.437317-12.836243-45.481201-28.91748-8.856385-12.896058-12.621765-27.34198-12.845093-42.852784-.339172-23.556305 12.283386-50.927978 37.614197-60.297149 18.954712 22.541504 42.303589 37.296539 72.258972 36.852936 29.508179-.436951 54.135132-13.377228 74.20581-35.629853 24.872681 17.084748 35.479248 40.968964 30.886841 69.948517-6.320068 39.880524-32.238525 59.66806-71.71582 63.226624 3.154541 13.389801 6.260254 26.572784 9.436767 40.056305 27.514771-3.87259 52.559327-12.586731 73.418213-30.797486 23.863282-20.833893 35.899781-47.384369 36.437378-79.103241.648194-38.250183-13.375488-69.719238-43.472168-93.6586-3.854004-3.065551-8.257324-5.440612-12.525024-8.212768 14.112427-30.910553 25.255859-62.31395 27.119141-96.679993h96.196655c0-10.669769 0-20.876373 0-31.46521-295.362976 0-590.399109 0-885.679779 0-.350495-1.689255-.525086-3.172455-.969086-4.570068-3.9646-12.479904-6.328613-25.796936-12.259613-37.266731-25.989563-50.260689-69.551575-74.967682-124.338989-81.397725-25.682541-3.014194-51.195465-.370525-76.117783 6.89013-30.776932 8.966274-57.207115 24.760906-78.395065 49.143642-15.786362 18.166672-26.538834 38.984566-33.561325 61.795753-1.405018 4.563919-3.404122 5.909394-7.959664 5.622193-6.592853-.415634-13.231407-.106415-19.696354-.106415v31.612167h19.852543c-2.483036 24.014496-1.342575 47.593323 1.498482 71.139267 5.574082 46.196503 18.27562 90.23346 39.70269 131.64798 17.949654 34.693298 41.878121 63.973877 76.594048 84.455963m12.778122 108.190613c66.940536 21.966248 127.951492 4.887146 186.779464-27.748413-1.772522-4.453125-3.29898-8.3219-4.851989-12.179932-1.529663-3.800232-3.086304-7.589599-4.761994-11.7052-78.055755 23.956909-155.84523 23.861389-233.568435-.017334-3.198487 8.248474-6.177575 15.931213-9.126999 23.537354 12.776115 8.337951 47.449432 23.203857 65.529953 28.113525m313.742264-519.269669c-17.440613 9.765412-37.413331 8.148659-50.939087-5.921257-7.723481-8.034229-13.25058-18.185741-19.711274-27.422615-1.177398-1.683323-2.08789-3.553321-3.245391-5.550808-6.003449 4.021855-11.457001 7.526684-16.701386 11.320622-.986999.714043-1.952087 2.919075-1.55777 3.865562 7.429535 17.833832 15.220948 35.505898 28.701325 49.848465 21.892181 23.292336 55.40744 25.058052 79.260895 3.872612 16.939819-15.045181 25.001159-35.576591 33.816223-55.948513-6.623474-4.444877-12.891663-8.651352-19.334351-12.974968-8.722168 14.380436-15.626556 29.246647-30.289184 38.9109z" fill="#fefefe"/><path d="m158.863617 485.166321c-34.401138-20.295624-58.329605-49.576203-76.279259-84.269501-21.42707-41.41452-34.128608-85.451477-39.70269-131.64798-2.841057-23.545944-3.981518-47.124771-1.498482-71.139267-6.599006 0-13.043897 0-19.852543 0 0-10.57016 0-20.801941 0-31.612167 6.464947 0 13.103501-.309219 19.696354.106415 4.555542.287201 6.554646-1.058274 7.959664-5.622193 7.022491-22.811187 17.774963-43.629081 33.561325-61.795753 21.18795-24.382736 47.618133-40.177368 78.395065-49.143642 24.922318-7.260655 50.435242-9.904324 76.117783-6.89013 54.787414 6.430043 98.349426 31.137036 124.338989 81.397725 5.931 11.469795 8.295013 24.786827 12.259613 37.266731.444 1.397613.618591 2.880813.969086 4.570068h885.679779v31.46521c-31.933838 0-63.835938 0-96.196655 0-1.863282 34.366043-13.006714 65.76944-27.119141 96.679993 4.2677 2.772156 8.67102 5.147217 12.525024 8.212768 30.09668 23.939362 44.120362 55.408417 43.472168 93.6586-.537597 31.718872-12.574096 58.269348-36.437378 79.103241-20.858886 18.210755-45.903442 26.924896-73.418213 30.797486-3.176513-13.483521-6.282226-26.666504-9.436767-40.056305 39.477295-3.558564 65.395752-23.3461 71.71582-63.226624 4.592407-28.979553-6.01416-52.863769-30.886841-69.948517-20.070678 22.252625-44.697631 35.192902-74.20581 35.629853-29.955383.443603-53.30426-14.311432-72.258972-36.852936-25.330811 9.369171-37.953369 36.740844-37.614197 60.297149.223328 15.510804 3.988708 29.956726 12.845093 42.852784 11.043884 16.081237 26.461303 25.412536 45.481201 28.91748 5.530639 1.019165 11.164612 1.47757 17.433655 2.280396-2.846009 13.234741-5.685303 26.438507-8.597413 39.980743-32.751953-.895874-61.060424-10.928467-82.276489-36.637634-15.941223-19.317292-22.790222-42.100251-24.73053-66.738648-1.517944-19.274749.477478-37.948486 8.615479-55.615814 9.479431-20.57959 24.306763-36.379425 43.927795-47.692474 1.581177-.911652 3.146729-1.850281 5.094971-2.997406-12.821106-31.737183-26.225037-63.312271-29.666382-98.264176-39.33136 0-78.704284 0-118.420837 0v89.938126c-2.083985 0-3.835694 0-5.587403 0-53.16217 0-106.324279-.020386-159.48645.016632-11.022094.00766-21.714904 1.616089-30.383423 9.185913-17.288696 15.097595-13.02478 40.964752 8.569153 49.377075 7.245789 2.822754 15.500244 4.12143 23.318604 4.224518 33.824585.44577 67.658569.131561 101.48883.216888 16.152161.040741 31.844483 2.463318 46.293152 10.268708 22.246094 12.017669 37.820801 29.981689 41.016663 55.172729 4.824158 38.025818-11.355896 67.317047-49.378601 81.329712-14.509156 5.347138-29.498719 8.138123-44.968811 8.134033-38.995484-.010254-78.039612 1.115876-116.971741-.476867-34.114868-1.39563-60.874146-17.291657-74.191223-50.068238-11.707153-28.814025-6.14325-63.176818 20.281921-84.765594 3.862854-3.155914 7.798889-6.22229 12.054322-9.611481-.762024-1.018951-1.52295-2.239807-2.477723-3.283264-20.420654-22.316193-19.075988-55.696655-4.756775-78.002289 13.156434-20.494293 32.688599-31.08461 56.429261-31.62854 42.141418-.965576 84.318542-.371536 126.480774-.429504 1.787902-.002472 3.575805-.000321 5.550964-.000321 0-16.685455 0-32.956909 0-49.678863-125.683655 0-251.354797 0-377.380127 0-2.89563 52.916824-21.403229 96.565292-73.12262 120.589676 3.368164 2.653747 6.302552 4.710968 8.946412 7.090973 14.987457 13.49176 24.035064 30.356323 28.213867 49.98059 4.53421 21.293396 4.327575 42.493256-3.121887 63.018342-13.220459 36.425537-39.551453 58.189056-77.462128 64.980499-35.586365 6.37503-69.169357-.593964-100.845276-18.644928m158.940674-240.938294c7.246582-14.467209 10.802154-29.864532 11.734131-46.036712-82.204438 0-164.256089 0-246.147606 0-5.212998 30.252624-3.568848 60.005615 1.342224 89.663788.894783.143432 1.382164.290161 1.869499.289978 53.495071-.018433 106.992416.239105 160.48436-.184967 31.778122-.251923 55.014602-15.460724 70.717392-43.732087m-114.378357 216.887085c9.493423 1.54303 18.944534 3.972412 28.489868 4.428284 15.639954.746979 30.07135-3.866089 41.9711-14.338806 26.469879-23.295471 29.141205-63.934601 11.384674-91.75412-13.849945-21.699036-34.34195-31.249176-60.034226-31.046234-41.98619.331695-83.976898.087372-125.965705.096832-1.409104.000336-2.818169.117005-4.225808.179352 0 .767181-.079765 1.109558.011322 1.39798 10.53624 33.36084 25.798554 64.172088 49.083634 90.619964 16.119202 18.308594 35.070267 32.540772 59.285141 40.416748m823.074066-263.280471c-21.241455 0-42.48291 0-63.84436 0 1.268676 22.315856 5.870971 43.233978 13.210998 63.509689 7.313111 20.201691 17.177612 38.926636 33.1203 53.916138 16.191773 15.223693 39.275269 18.49002 56.685059 4.198242 7.748779-6.360871 15.159668-13.774811 20.706299-22.06131 20.001099-29.880737 28.753052-63.558548 31.287109-99.562759-30.245971 0-60.205688 0-91.165405 0m-900.082001-82.921593c-15.682296 14.199653-26.457359 31.635994-34.353393 51.304298h234.939575c-7.625153-29.480881-23.927307-51.992737-49.75293-67.447403-17.962555-10.749222-37.566467-15.807197-58.41687-16.339279-34.658035-.884445-65.674576 8.666069-92.416382 32.482384m494.987274 273.954902c-6.676086 1.181885-13.549316 1.715699-19.989074 3.674378-15.599121 4.744659-25.576233 17.14093-26.341309 31.586731-.869018 16.40921 7.53418 29.982178 23.167542 36.60791 18.949279 8.031067 38.909362 4.160614 58.592224 5.185669 0-26.118836 0-51.537018 0-77.089356-11.607544 0-23.05072 0-35.429383.034668m112.162232.004548c-11.783936 0-23.56781 0-35.426941 0v76.661621c13.094665 0 25.899109.422485 38.659485-.145539 8.801208-.391815 17.310669-2.712707 25.175842-7.200988 22.603943-12.898926 24.071655-45.589417 2.598633-60.059174-9.102539-6.133789-19.216187-8.869476-31.007019-9.25592z" fill="#010101"/><path d="m171.575287 593.406738c-17.69928-4.77301-52.372597-19.638916-65.148712-27.976867 2.949424-7.606141 5.928512-15.28888 9.126999-23.537354 77.723205 23.878723 155.51268 23.974243 233.568435.017334 1.67569 4.115601 3.232331 7.904968 4.761994 11.7052 1.553009 3.858032 3.079467 7.726807 4.851989 12.179932-58.827972 32.635559-119.838928 49.714661-187.160705 27.611755z" fill="#020202"/><path d="m486.025635 74.115417c14.335785-9.505943 21.240173-24.372154 29.962341-38.75259 6.442688 4.323616 12.710877 8.530091 19.334351 12.974968-8.815064 20.371922-16.876404 40.903332-33.816223 55.948513-23.853455 21.18544-57.368714 19.419724-79.260895-3.872612-13.480377-14.342567-21.27179-32.014633-28.701325-49.848465-.394317-.946487.570771-3.151519 1.55777-3.865562 5.244385-3.793938 10.697937-7.298767 16.701386-11.320622 1.157501 1.997487 2.067993 3.867485 3.245391 5.550808 6.460694 9.236874 11.987793 19.388386 19.711274 27.422615 13.525756 14.069916 33.498474 15.686669 51.26593 5.762947z" fill="#c57035"/><path d="m317.601349 244.539307c-15.499848 27.960083-38.736328 43.168884-70.51445 43.420807-53.491944.424072-106.989289.166534-160.48436.184967-.487335.000183-.974716-.146546-1.869499-.289978-4.911072-29.658173-6.555222-59.411164-1.342224-89.663788h246.147606c-.931977 16.17218-4.487549 31.569503-11.937073 46.347992z" fill="#fff"/><path d="m203.032471 461.029419c-23.821411-7.790283-42.772476-22.022461-58.891678-40.331055-23.28508-26.447876-38.547394-57.259124-49.083634-90.619964-.091087-.288422-.011322-.630799-.011322-1.39798 1.407639-.062347 2.816704-.179016 4.225808-.179352 41.988807-.00946 83.979515.234863 125.965705-.096832 25.692276-.202942 46.184281 9.347198 60.034226 31.046234 17.756531 27.819519 15.085205 68.458649-11.384674 91.75412-11.89975 10.472717-26.331146 15.085785-41.9711 14.338806-9.545334-.455872-18.996445-2.885254-28.883331-4.513977z" fill="#fdfdfd"/><path d="m1027 197.834641h90.665405c-2.534057 36.004211-11.28601 69.682022-31.287109 99.562759-5.546631 8.286499-12.95752 15.700439-20.706299 22.06131-17.40979 14.291778-40.493286 11.025451-56.685059-4.198242-15.942688-14.989502-25.807189-33.714447-33.1203-53.916138-7.340027-20.275711-11.942322-41.193833-13.210998-63.509689z" fill="#fefefe"/><path d="m126.68161 114.677048c26.478195-23.580315 57.494736-33.130829 92.152771-32.246384 20.850403.532082 40.454315 5.590057 58.41687 16.339279 25.825623 15.454666 42.127777 37.966522 49.75293 67.447403-78.450287 0-156.438904 0-234.939575 0 7.896034-19.668304 18.671097-37.104645 34.617004-51.540298z" fill="#fcfcfc"/><g fill="#fdfdfd"><path d="m621.872986 388.850616c11.91095-.017334 23.354126-.017334 34.96167-.017334v77.089356c-19.682862-1.025055-39.642945 2.845398-58.592224-5.185669-15.633362-6.625732-24.03656-20.1987-23.167542-36.60791.765076-14.445801 10.742188-26.842072 26.341309-31.586731 6.439758-1.958679 13.312988-2.492493 20.456787-3.691712z"/><path d="m734.033386 388.887726c11.324951.371216 21.438599 3.106903 30.541138 9.240692 21.473022 14.469757 20.00531 47.160248-2.598633 60.059174-7.865173 4.488281-16.374634 6.809173-25.175842 7.200988-12.760376.568024-25.56482.145539-38.659485.145539 0-25.545868 0-51.073578 0-76.661621 11.859131 0 23.643005 0 35.892822.015228z"/></g></svg>