<svg enable-background="new 0 0 864 608" viewBox="0 0 864 608" xmlns="http://www.w3.org/2000/svg"><path d="m506.50058 475.486938c-16.109924-17.23529-25.083344-37.524414-28.56662-60.286834-3.855255-25.19336-2.398315-49.759247 9.698425-72.894257 9.513092-18.193756 23.092072-32.534576 40.872498-42.703674 4.361938-2.49466 5.171142-4.652741 3.218445-9.300537-9.481202-22.566773-18.479248-45.331558-23.436341-69.429642-1.102874-5.361496-1.995697-10.78447-2.616577-16.221252-.521698-4.568375-2.299774-6.448456-7.284576-6.437882-72.161804.153229-144.323975.099442-216.486084.124939-1.603424.000565-3.337097-.47435-5.166168.999054 1.450775 7.090637 3.879241 14.152069 4.783142 21.570572 2.24356 18.414123 1.051544 36.470901-4.535279 54.206406-2.657226 8.435455-5.720153 16.70404-9.941192 24.489257-1.527466 2.817261-1.371765 4.944611.71054 7.617402 10.757294 13.807647 19.463501 28.910308 22.82251 46.173645 7.448853 38.282684 1.559876 74.025299-23.669311 104.92099-18.961182 23.219757-44.202362 36.31546-73.123902 42.989593-15.310562 3.533173-30.838592 5.605804-46.461258 5.522522-27.726776-.147827-54.470214-5.626343-79.97818-16.887177-16.390174-7.235626-31.668136-16.308197-46.348358-26.479187-1.614811-1.118835-3.706197-2.072143-2.23714-4.677673 5.711879-10.130768 11.430704-20.257629 17.3083-30.671814 8.09354 4.477661 14.882114 9.857819 22.444404 14.038117 20.763001 11.477478 42.433022 19.681152 66.32148 21.78186 24.024208 2.112579 47.436302.833801 70.105919-8.357178 33.416672-13.548157 54.312057-47.43042 50.554275-83.177063-.870864-8.28421-3.540878-16.222229-7.158752-23.806946-1.871567-3.923675-3.625275-4.257446-6.990326-1.28009-15.711334 13.901154-32.982651 25.353546-52.820343 32.630158-13.52803 4.962158-27.452743 7.661438-41.855331 8.54837-21.193009 1.305084-41.589531-1.823853-60.58368-11.232422-20.600727-10.204346-34.91127-26.134064-39.091831-49.396484-4.510853-25.100312 4.863476-44.605439 25.454838-59.072754 16.907845-11.879273 36.016731-17.641434 56.282608-20.153229 33.532333-4.156067 65.189041 2.647598 95.635941 16.429871 2.422821 1.096679 4.704696 2.501739 7.071869 3.725189 2.318817 1.198486 4.375396 3.03009 7.431533 3.168182 4.430054-11.131195 6.276795-22.759598 6.219544-34.556167-.054932-11.317551-1.895035-22.470856-5.557633-33.304276-1.431213-4.233261-3.3647-5.909073-8.129943-5.89624-66.99553.18045-133.991707.123077-200.987725.120621-7.617219-.000275-7.619293-.00821-7.621809-7.627411-.002256-6.832917.088771-13.66745-.037565-20.498017-.058835-3.18103 1.125654-4.575637 4.380472-4.430725 3.492657.155472 6.99795.023087 10.497727.023285 86.494844.004852 172.989679.018356 259.484521.014694 184.15445-.007812 368.308899-.024292 552.463318-.03804 7.760376-.00058 7.764893-.004577 7.770386 7.526383.004761 6.499618-.252075 13.012069.08136 19.494445.2323 4.515122-1.510681 5.642869-5.778809 5.619462-27.997497-.153519-55.997558.060348-83.993347-.207657-5.118103-.048981-6.905639 2.0354-7.22113 6.495025-2.08667 29.504471-11.828919 56.886841-23.571289 83.640961-2.143677 4.884247-1.365784 7.007874 3.010925 9.830017 29.480408 19.009186 45.250916 46.604462 49.474121 81.063141 2.474854 20.193756.281738 39.943054-7.868042 58.659851-11.491699 26.391632-31.020202 44.932617-57.192261 56.628113-12.374389 5.529785-25.273803 9.278259-38.645202 11.478058-6.277954 1.032837-6.625611.838073-7.992859-5.354737-2.536743-11.489868-5.13971-22.965118-7.753906-34.619506 4.439514-2.384522 9.09082-1.14856 13.425903-2.035828 32.314819-6.614227 54.832703-30.612427 58.517822-63.133545 2.690796-23.747131-4.696533-43.916168-22.143921-60.329468-.847961-.797729-1.706237-1.597626-2.638183-2.290985-6.102051-4.539947-5.978455-4.39151-11.4245.960846-21.414978 21.046356-47.182983 32.27182-77.176208 29.76181-24.304688-2.033966-44.566834-14.009216-60.457581-32.628204-2.80072-3.281586-4.73114-3.622131-8.258545-1.708435-18.075805 9.806427-27.917602 25.535004-31.213379 45.177551-3.032165 18.071533.180115 35.433624 9.683228 51.398041 11.046631 18.557465 27.738708 28.534698 48.57373 32.56134 5.222351 1.009308 10.597351.4039 16.429932 1.826783-1.70697 8.363861-3.330017 16.442016-5.012268 24.507843-.882385 4.230377-2.023804 8.412536-2.753418 12.667022-.486328 2.836487-1.650879 3.846619-4.647278 3.747559-28.575195-.944763-53.857117-9.696625-74.301666-31.013642m151.256256-161.223571c6.428223-5.887146 11.785156-12.633362 16.435608-20.001953 17.254944-27.339814 25.429565-57.562485 28.527405-89.40297.632873-6.50383.530212-6.531585-6.086182-6.532303-46.967834-.005111-93.93573-.002639-140.903564-.000122-.999024.000061-1.998475.017777-2.997071.047379-2.61676.077514-3.319275 1.378143-3.007446 3.936691 1.406128 11.534302 2.836975 23.0513 5.629028 34.363495 6.16034 24.959137 15.302002 48.543549 31.612427 68.81781 6.981262 8.677856 15.106445 16.199005 25.731018 19.971832 16.983032 6.030701 31.654297.99765 45.058777-11.199859m-467.524445 12.448089c5.557953-4.141327 10.888169-8.510559 14.848648-14.175995-.487609-.631805-.646759-.941925-.895553-1.138732-.520813-.411988-1.078583-.780304-1.638977-1.138703-22.2957-14.259399-46.564224-21.651886-73.143021-21.216125-13.654289.223846-26.745819 2.365112-38.834366 9.267212-16.476432 9.40744-17.243339 26.891967-1.716781 37.760131 10.773628 7.541169 23.044845 10.437592 35.675071 11.401947 24.262032 1.852448 45.917931-5.58142 65.704979-20.759735z"/><path d="m107.000008 18.810135c17.811142-.090191 35.073509.09606 52.022071 4.48587 21.49466 5.567284 40.615784 15.667279 57.558381 29.863808 27.758209 23.259148 47.190567 52.612472 61.945877 85.353813 1.315765 2.919632.811218 4.57785-1.982788 6.018585-4.73288 2.440537-9.453858 4.934326-13.991455 7.713288-3.22934 1.977752-4.884644 1.144851-6.674119-1.976014-9.296569-16.213394-19.619049-31.729614-32.65364-45.238273-21.271027-22.044624-46.491257-36.937706-77.000489-42.187817-8.073562-1.389313-16.193756-1.623535-24.350021-1.612884-22.31485.029144-44.630699-.093586-66.943882.102207-4.660931.040901-6.528267-1.188255-6.371113-6.143982.327091-10.314487.244599-20.649372.034111-30.969832-.083709-4.104494 1.306004-5.524612 5.451275-5.48372 17.483807.172466 34.970287.074318 52.955792.074951z"/><path d="m355.184875 87.740631c-7.377838-11.586052-12.819824-23.738884-18.096618-35.982242-1.125275-2.610894-.673187-4.302487 1.754547-5.843602 4.498871-2.855819 8.93515-5.82502 13.250275-8.950306 3.008483-2.178943 4.55899-1.252086 6.169921 1.749283 4.806763 8.955769 9.766816 17.872074 16.706299 25.400318 20.881806 22.653427 50.698944 20.820244 68.836029-4.172271 4.699829-6.476307 9.103638-13.182228 12.63266-20.359085 2.155701-4.383999 4.379425-4.58923 8.023621-1.81952 3.972198 3.01899 8.248779 5.637326 12.390472 8.433636 1.632416 1.102184 2.749268 2.296864 1.772431 4.541321-7.316925 16.811962-14.40976 33.816174-26.712189 47.754826-26.027649 29.489334-67.121124 27.92173-91.142914-3.243134-1.830414-2.374718-3.57962-4.812057-5.584534-7.509224z" fill="#d2691e"/></svg>