<svg version="1.1" id="Layer_1" xmlns="http://www.w3.org/2000/svg" xmlns:xlink="http://www.w3.org/1999/xlink" x="0px" y="0px"
	 width="100%" viewBox="0 0 1882 588" enable-background="new 0 0 1882 588" xml:space="preserve">
<path fill="#FFFFFF" opacity="1.000000" stroke="none" 
	d="
M1332.000000,589.000000 
	C888.000000,589.000000 444.500000,589.000000 1.000000,589.000000 
	C1.000000,393.000000 1.000000,197.000000 1.000000,1.000000 
	C628.333313,1.000000 1255.666626,1.000000 1883.000000,1.000000 
	C1883.000000,197.000000 1883.000000,393.000000 1883.000000,589.000000 
	C1699.500000,589.000000 1516.000000,589.000000 1332.000000,589.000000 
M1244.000977,309.500000 
	C1244.000977,261.057495 1244.000977,212.614990 1244.000977,164.195251 
	C1226.677490,164.195251 1209.811279,164.195251 1192.831177,164.195251 
	C1192.831177,166.386200 1192.831177,168.213135 1192.831177,170.040070 
	C1192.831177,233.527237 1192.587646,297.016266 1193.073242,360.499725 
	C1193.153198,370.960297 1189.233154,378.358124 1182.253906,384.934753 
	C1168.134644,398.239746 1151.834229,407.206818 1132.025757,407.605225 
	C1110.586426,408.036407 1094.538208,401.225616 1084.832764,380.185638 
	C1080.387939,370.549927 1079.557861,360.277191 1079.543091,349.935852 
	C1079.457397,289.781464 1079.501099,229.626877 1079.501099,169.472366 
	C1079.501099,167.685471 1079.501221,165.898590 1079.501221,164.124115 
	C1062.060669,164.124115 1045.156128,164.124115 1027.999023,164.124115 
	C1027.999023,166.224228 1027.999023,168.033691 1027.999023,169.843170 
	C1027.999023,247.494141 1028.183472,325.145935 1027.832031,402.795319 
	C1027.767578,417.050476 1026.433472,431.446259 1024.096069,445.513031 
	C1019.784790,471.459320 1014.641418,497.256042 1014.064026,523.666016 
	C1013.770142,537.107849 1014.856140,550.323364 1021.366272,562.458130 
	C1025.890137,570.890442 1034.543335,575.072571 1043.979126,573.697937 
	C1055.747559,571.983459 1061.729736,565.721375 1065.043945,551.642883 
	C1070.523438,528.366211 1067.640381,505.195282 1063.184937,482.286194 
	C1059.413208,462.892456 1054.021240,443.817566 1049.556763,424.552765 
	C1047.974365,417.724243 1047.012939,410.751831 1045.767822,403.845154 
	C1046.159546,403.688629 1046.551270,403.532135 1046.942993,403.375610 
	C1048.644897,405.748688 1050.334229,408.130981 1052.051025,410.493286 
	C1062.012329,424.200897 1074.503418,434.187073 1091.049438,439.281586 
	C1109.832153,445.064728 1128.016357,444.896088 1146.031860,436.846985 
	C1163.394775,429.089417 1176.807251,416.680115 1187.791260,401.421600 
	C1189.786133,398.650452 1191.571777,395.728790 1194.059326,391.959412 
	C1194.826782,395.232788 1195.395142,397.410248 1195.844360,399.612091 
	C1199.238159,416.249542 1208.136597,429.052216 1223.174316,436.953278 
	C1235.298096,443.323242 1248.508789,444.676514 1262.025024,442.929352 
	C1280.910889,440.488129 1295.485352,431.390076 1304.739258,414.550507 
	C1313.697754,398.248932 1316.764038,380.501617 1316.857178,362.110016 
	C1316.878784,357.857605 1316.860474,353.604980 1316.860474,349.340637 
	C1311.840820,349.340637 1307.390137,349.340637 1302.639526,349.340637 
	C1302.502686,351.105377 1302.451050,352.742798 1302.238647,354.359070 
	C1300.506836,367.525085 1299.203857,380.770660 1296.829590,393.820862 
	C1295.267578,402.406281 1290.950073,410.101898 1284.621826,416.325073 
	C1275.808350,424.992401 1259.812744,423.886414 1252.183838,414.245850 
	C1245.849487,406.241180 1244.296997,396.690857 1244.190186,386.982758 
	C1243.909424,361.490906 1244.036377,335.994568 1244.000977,309.500000 
M934.534058,342.895844 
	C938.014526,327.730743 939.602417,312.409058 938.967896,296.822144 
	C938.180115,277.471313 932.676147,259.525055 923.412903,242.672791 
	C914.414001,226.301483 902.429321,212.309738 888.489075,199.958710 
	C886.809937,198.471024 884.824402,197.329224 882.980835,196.027115 
	C883.439636,195.425140 883.898438,194.823181 884.357239,194.221207 
	C885.754395,194.323929 887.150696,194.442184 888.548889,194.526962 
	C903.653320,195.442764 918.748596,196.643341 933.866943,197.128860 
	C940.312500,197.335846 946.880981,196.298981 952.124939,191.671143 
	C965.774719,179.625214 967.229980,163.396805 968.267578,146.875916 
	C963.069946,145.395386 960.510254,146.250992 958.752197,151.383118 
	C957.530090,154.950653 954.215332,158.905136 950.830444,160.379623 
	C945.192200,162.835785 938.679260,164.878922 932.654907,164.589752 
	C898.569641,162.953629 864.511414,160.701752 830.461853,158.395523 
	C810.010559,157.010345 789.666138,157.966492 770.000671,163.501236 
	C731.651367,174.294434 704.101013,198.650299 688.001404,234.799789 
	C671.026123,272.915405 669.220337,312.616638 682.043396,352.286957 
	C694.703247,391.452698 721.282043,418.597626 759.039673,434.433319 
	C781.007996,443.646912 804.129761,444.965698 827.708496,442.092804 
	C849.791931,439.402100 869.623718,431.522552 886.863281,417.643555 
	C910.848450,398.333801 926.402771,373.418060 934.534058,342.895844 
M1325.365723,340.052002 
	C1325.871460,341.812042 1326.380127,343.571289 1326.882690,345.332214 
	C1336.101318,377.627838 1355.348755,402.998169 1383.080566,421.029999 
	C1421.588745,446.068756 1463.973511,450.784424 1506.898193,435.574219 
	C1562.311646,415.938690 1593.621826,375.430786 1600.107300,316.794189 
	C1602.820923,292.259705 1600.132080,267.863464 1592.910156,244.191086 
	C1582.441284,209.875565 1561.566895,184.658737 1527.941650,170.533737 
	C1513.974365,164.666428 1499.421631,161.760620 1484.591309,159.557281 
	C1455.864258,155.289322 1427.503662,157.752716 1401.612061,170.487305 
	C1354.159302,193.826645 1327.752441,233.021545 1321.848511,285.649994 
	C1319.830322,303.639465 1321.104248,321.564453 1325.365723,340.052002 
M433.490387,433.988953 
	C452.808655,440.868683 472.626068,444.399292 493.206879,443.162109 
	C528.205200,441.058258 558.923523,429.210571 584.202759,404.236511 
	C604.557190,384.127716 618.500488,360.477112 623.622253,332.293518 
	C629.695618,298.873199 626.972229,265.882141 614.909729,234.061554 
	C605.472778,209.167130 589.802612,188.878616 565.697021,176.603470 
	C526.208801,156.495102 484.890533,152.151901 442.217529,164.851456 
	C413.876801,173.285690 391.865326,190.806458 374.398315,214.231445 
	C359.991028,233.553131 351.487946,255.335052 348.270264,279.251953 
	C344.975830,303.739868 346.184906,328.032745 354.486206,351.229309 
	C368.353607,389.979584 394.416107,417.859039 433.490387,433.988953 
M39.836998,220.422653 
	C48.420719,202.298615 81.717117,200.480438 93.653816,218.770081 
	C101.934143,231.457367 104.333069,245.629532 104.832047,260.069916 
	C105.429077,277.348114 104.584068,294.675629 104.386574,311.982086 
	C104.331940,316.769592 103.141678,320.703156 99.183853,324.146973 
	C91.413918,330.907837 83.913620,338.035400 76.817421,345.501343 
	C63.803825,359.192932 51.962215,373.737488 47.779785,392.885010 
	C45.461910,403.496490 43.552517,414.119934 46.958324,424.906830 
	C52.156673,441.371185 67.576370,447.997162 83.041451,440.289764 
	C92.276680,435.687103 98.206032,428.059052 102.201271,418.789246 
	C109.339951,402.225922 113.725342,384.860168 117.332161,367.243958 
	C117.888275,364.527802 119.462181,361.632751 121.408836,359.647583 
	C144.791779,335.802124 171.581757,316.010437 197.972458,295.751129 
	C198.965485,294.988800 200.191864,294.530426 201.536743,293.808380 
	C201.536743,300.997650 201.773575,307.744507 201.495773,314.470093 
	C200.291306,343.630096 200.142838,372.709778 207.999344,401.165649 
	C214.593170,425.048126 229.806778,446.963196 260.935669,443.057770 
	C275.641266,441.212799 287.416504,434.506012 293.893311,421.095856 
	C304.713440,398.692932 303.693268,374.236755 304.401978,350.188446 
	C304.430756,349.211792 302.353821,347.788086 300.992126,347.266144 
	C299.686798,346.765747 298.014557,347.329987 296.539673,347.142395 
	C293.313904,346.732147 292.332642,348.025970 292.009888,351.254730 
	C291.073517,360.622437 287.692169,369.152252 283.168976,377.476257 
	C271.189728,399.521637 238.006577,394.569946 228.723953,376.951782 
	C222.601852,365.332245 219.308731,353.055145 218.865036,340.252350 
	C218.196899,320.972260 218.589920,301.650726 218.827835,282.350494 
	C218.853638,280.257782 220.403320,277.755676 221.984406,276.188080 
	C227.414169,270.804504 233.496536,266.059448 238.747513,260.518768 
	C258.554260,239.619370 274.365204,216.768738 275.505768,186.415237 
	C275.929230,175.145065 269.561218,162.858429 259.850647,159.485153 
	C247.597260,155.228531 235.321014,159.221725 227.569199,169.672699 
	C213.566223,188.551514 208.286346,210.665451 204.295151,233.133636 
	C203.432190,237.991669 201.870544,241.218460 198.090683,244.240814 
	C175.224167,262.524628 152.537781,281.033722 129.785492,299.460480 
	C127.411362,301.383270 125.000046,303.260101 121.411194,306.105560 
	C121.724342,300.028748 122.143730,295.459717 122.163055,290.889069 
	C122.241135,272.422333 122.845177,253.925766 122.013115,235.496292 
	C121.185661,217.168823 117.377823,199.311432 109.171822,182.594666 
	C97.664650,159.152969 72.192680,153.314117 51.979584,161.038330 
	C37.691742,166.498291 30.844568,178.632629 25.859474,192.006592 
	C19.772860,208.335724 19.409914,225.516495 19.124781,242.647415 
	C18.946827,253.339096 19.133442,253.380173 30.028303,251.993927 
	C30.314260,251.957535 30.562485,251.624573 30.826252,251.427124 
	C32.110031,238.088943 34.392876,229.993668 39.836998,220.422653 
M1786.780884,544.255188 
	C1792.250732,542.268188 1797.919312,540.701050 1803.155884,538.221558 
	C1825.874634,527.464294 1843.707642,511.804108 1853.242065,487.801971 
	C1860.664307,469.116852 1860.581421,450.001007 1856.545410,430.821350 
	C1852.362549,410.943848 1839.787964,398.680481 1820.377197,392.749786 
	C1806.805786,388.603241 1792.887329,387.972687 1778.951782,386.989105 
	C1758.213013,385.525330 1737.380005,384.847473 1717.374268,378.134247 
	C1698.246826,371.715759 1683.236694,360.408966 1676.012939,341.176666 
	C1664.815430,311.365143 1666.666138,281.610687 1679.678345,252.798965 
	C1688.031250,234.303711 1702.039917,221.164261 1721.294800,213.968643 
	C1738.410645,207.572296 1756.173706,207.494263 1774.042969,208.446777 
	C1788.819580,209.234451 1803.586548,210.623962 1818.367432,210.771515 
	C1829.195435,210.879593 1839.741699,207.825836 1847.910767,200.391571 
	C1861.266846,188.236496 1865.670532,171.663315 1869.067017,154.613281 
	C1864.086182,153.506683 1860.466675,153.900452 1857.653198,158.577255 
	C1856.151489,161.073578 1853.044434,162.917480 1850.280762,164.286438 
	C1838.969116,169.889740 1826.855469,168.165787 1814.931885,167.516876 
	C1794.654175,166.413330 1774.398560,164.864288 1754.113525,163.949554 
	C1740.621582,163.341125 1727.503418,165.743439 1715.447754,172.089981 
	C1686.410889,187.376068 1669.653320,212.455856 1660.109375,242.940414 
	C1654.253296,261.646057 1652.176270,281.001862 1651.576538,300.539734 
	C1650.736694,327.899994 1653.025024,354.764801 1663.893433,380.313324 
	C1674.673828,405.655182 1692.664062,423.079224 1719.303833,431.221893 
	C1735.714722,436.237976 1752.520630,437.637207 1769.570312,438.131989 
	C1783.187500,438.527161 1796.833130,439.535095 1810.353027,441.192505 
	C1821.494141,442.558289 1831.907227,446.815369 1835.604004,458.653473 
	C1840.377686,473.940186 1838.594238,489.393799 1828.663086,501.854279 
	C1812.727051,521.848938 1790.849487,529.113098 1765.544556,526.530273 
	C1753.055298,525.255554 1741.938965,519.867615 1730.471558,515.429382 
	C1720.779663,511.678192 1710.732666,509.354248 1700.232056,510.087433 
	C1692.985596,510.593353 1687.472534,513.850830 1685.093994,521.057251 
	C1682.720947,528.247192 1684.463135,534.483704 1689.985229,539.696533 
	C1695.364258,544.774414 1701.820679,547.679871 1708.978882,549.059326 
	C1735.035522,554.080566 1760.657715,551.413269 1786.780884,544.255188 
M470.767242,112.275650 
	C485.173981,94.821365 499.664551,77.435349 513.949646,59.882076 
	C520.444214,51.901680 526.966370,43.878613 532.645630,35.323643 
	C536.202332,29.965933 535.315613,23.821388 531.164246,18.610746 
	C527.120117,13.534740 521.706909,12.011409 515.532043,13.338274 
	C507.277649,15.111988 500.976624,19.912659 496.794281,27.093222 
	C477.909607,59.516155 459.182770,92.031021 440.415588,124.522301 
	C439.820129,125.553200 439.404266,126.687813 438.821442,127.955025 
	C456.885742,128.975937 456.886292,128.976395 467.757996,115.892586 
	C468.609070,114.868370 469.445435,113.831940 470.767242,112.275650 
z"/>
<path fill="#010101" opacity="1.000000" stroke="none" 
	d="
M1244.000977,310.000000 
	C1244.036377,335.994568 1243.909424,361.490906 1244.190186,386.982758 
	C1244.296997,396.690857 1245.849487,406.241180 1252.183838,414.245850 
	C1259.812744,423.886414 1275.808350,424.992401 1284.621826,416.325073 
	C1290.950073,410.101898 1295.267578,402.406281 1296.829590,393.820862 
	C1299.203857,380.770660 1300.506836,367.525085 1302.238647,354.359070 
	C1302.451050,352.742798 1302.502686,351.105377 1302.639526,349.340637 
	C1307.390137,349.340637 1311.840820,349.340637 1316.860474,349.340637 
	C1316.860474,353.604980 1316.878784,357.857605 1316.857178,362.110016 
	C1316.764038,380.501617 1313.697754,398.248932 1304.739258,414.550507 
	C1295.485352,431.390076 1280.910889,440.488129 1262.025024,442.929352 
	C1248.508789,444.676514 1235.298096,443.323242 1223.174316,436.953278 
	C1208.136597,429.052216 1199.238159,416.249542 1195.844360,399.612091 
	C1195.395142,397.410248 1194.826782,395.232788 1194.059326,391.959412 
	C1191.571777,395.728790 1189.786133,398.650452 1187.791260,401.421600 
	C1176.807251,416.680115 1163.394775,429.089417 1146.031860,436.846985 
	C1128.016357,444.896088 1109.832153,445.064728 1091.049438,439.281586 
	C1074.503418,434.187073 1062.012329,424.200897 1052.051025,410.493286 
	C1050.334229,408.130981 1048.644897,405.748688 1046.942993,403.375610 
	C1046.551270,403.532135 1046.159546,403.688629 1045.767822,403.845154 
	C1047.012939,410.751831 1047.974365,417.724243 1049.556763,424.552765 
	C1054.021240,443.817566 1059.413208,462.892456 1063.184937,482.286194 
	C1067.640381,505.195282 1070.523438,528.366211 1065.043945,551.642883 
	C1061.729736,565.721375 1055.747559,571.983459 1043.979126,573.697937 
	C1034.543335,575.072571 1025.890137,570.890442 1021.366272,562.458130 
	C1014.856140,550.323364 1013.770142,537.107849 1014.064026,523.666016 
	C1014.641418,497.256042 1019.784790,471.459320 1024.096069,445.513031 
	C1026.433472,431.446259 1027.767578,417.050476 1027.832031,402.795319 
	C1028.183472,325.145935 1027.999023,247.494141 1027.999023,169.843170 
	C1027.999023,168.033691 1027.999023,166.224228 1027.999023,164.124115 
	C1045.156128,164.124115 1062.060669,164.124115 1079.501221,164.124115 
	C1079.501221,165.898590 1079.501099,167.685471 1079.501099,169.472366 
	C1079.501099,229.626877 1079.457397,289.781464 1079.543091,349.935852 
	C1079.557861,360.277191 1080.387939,370.549927 1084.832764,380.185638 
	C1094.538208,401.225616 1110.586426,408.036407 1132.025757,407.605225 
	C1151.834229,407.206818 1168.134644,398.239746 1182.253906,384.934753 
	C1189.233154,378.358124 1193.153198,370.960297 1193.073242,360.499725 
	C1192.587646,297.016266 1192.831177,233.527237 1192.831177,170.040070 
	C1192.831177,168.213135 1192.831177,166.386200 1192.831177,164.195251 
	C1209.811279,164.195251 1226.677490,164.195251 1244.000977,164.195251 
	C1244.000977,212.614990 1244.000977,261.057495 1244.000977,310.000000 
z"/>
<path fill="#C57035" opacity="1.000000" stroke="none" 
	d="
M934.405273,343.287445 
	C926.402771,373.418060 910.848450,398.333801 886.863281,417.643555 
	C869.623718,431.522552 849.791931,439.402100 827.708496,442.092804 
	C804.129761,444.965698 781.007996,443.646912 759.039673,434.433319 
	C721.282043,418.597626 694.703247,391.452698 682.043396,352.286957 
	C669.220337,312.616638 671.026123,272.915405 688.001404,234.799789 
	C704.101013,198.650299 731.651367,174.294434 770.000671,163.501236 
	C789.666138,157.966492 810.010559,157.010345 830.461853,158.395523 
	C864.511414,160.701752 898.569641,162.953629 932.654907,164.589752 
	C938.679260,164.878922 945.192200,162.835785 950.830444,160.379623 
	C954.215332,158.905136 957.530090,154.950653 958.752197,151.383118 
	C960.510254,146.250992 963.069946,145.395386 968.267578,146.875916 
	C967.229980,163.396805 965.774719,179.625214 952.124939,191.671143 
	C946.880981,196.298981 940.312500,197.335846 933.866943,197.128860 
	C918.748596,196.643341 903.653320,195.442764 888.548889,194.526962 
	C887.150696,194.442184 885.754395,194.323929 884.357239,194.221207 
	C883.898438,194.823181 883.439636,195.425140 882.980835,196.027115 
	C884.824402,197.329224 886.809937,198.471024 888.489075,199.958710 
	C902.429321,212.309738 914.414001,226.301483 923.412903,242.672791 
	C932.676147,259.525055 938.180115,277.471313 938.967896,296.822144 
	C939.602417,312.409058 938.014526,327.730743 934.405273,343.287445 
M882.934814,315.598053 
	C882.704529,310.439331 882.433899,305.282013 882.250854,300.121613 
	C881.384888,275.700043 878.327026,251.670212 868.982361,228.849716 
	C858.069763,202.199982 841.470337,181.779816 811.041687,176.768723 
	C786.270630,172.689346 765.308899,179.307190 750.257080,199.916336 
	C738.804871,215.596741 733.525513,234.031769 732.085449,253.113556 
	C730.749084,270.820740 730.732422,288.688843 731.210938,306.457123 
	C731.904724,332.216431 736.532532,357.330231 745.951172,381.486389 
	C757.423645,410.909790 779.915039,428.861542 817.055420,425.760529 
	C852.368591,422.812103 869.474670,403.676483 878.088928,373.101318 
	C883.295349,354.621582 883.000183,335.560486 882.934814,315.598053 
z"/>
<path fill="#020202" opacity="1.000000" stroke="none" 
	d="
M1325.267822,339.649536 
	C1321.104248,321.564453 1319.830322,303.639465 1321.848511,285.649994 
	C1327.752441,233.021545 1354.159302,193.826645 1401.612061,170.487305 
	C1427.503662,157.752716 1455.864258,155.289322 1484.591309,159.557281 
	C1499.421631,161.760620 1513.974365,164.666428 1527.941650,170.533737 
	C1561.566895,184.658737 1582.441284,209.875565 1592.910156,244.191086 
	C1600.132080,267.863464 1602.820923,292.259705 1600.107300,316.794189 
	C1593.621826,375.430786 1562.311646,415.938690 1506.898193,435.574219 
	C1463.973511,450.784424 1421.588745,446.068756 1383.080566,421.029999 
	C1355.348755,402.998169 1336.101318,377.627838 1326.882690,345.332214 
	C1326.380127,343.571289 1325.871460,341.812042 1325.267822,339.649536 
M1541.892700,272.945496 
	C1538.931274,261.714386 1536.567017,250.281235 1532.853149,239.304749 
	C1528.481567,226.384872 1522.314209,214.247757 1514.010376,203.214722 
	C1500.066284,184.687805 1481.112793,175.744827 1458.556763,175.269730 
	C1434.149292,174.755630 1412.189941,181.777863 1397.828735,203.173538 
	C1386.259521,220.409348 1380.239624,239.930878 1377.877930,260.558868 
	C1374.427734,290.693176 1378.853882,320.082764 1387.434082,348.799255 
	C1395.348511,375.287720 1408.091919,399.259277 1432.319580,414.537201 
	C1466.146851,435.868591 1506.725708,429.387665 1528.563721,389.844513 
	C1541.307129,366.769409 1546.096191,341.569305 1544.508057,315.218933 
	C1543.676758,301.424927 1542.831177,287.631775 1541.892700,272.945496 
z"/>
<path fill="#020202" opacity="1.000000" stroke="none" 
	d="
M433.125702,433.862701 
	C394.416107,417.859039 368.353607,389.979584 354.486206,351.229309 
	C346.184906,328.032745 344.975830,303.739868 348.270264,279.251953 
	C351.487946,255.335052 359.991028,233.553131 374.398315,214.231445 
	C391.865326,190.806458 413.876801,173.285690 442.217529,164.851456 
	C484.890533,152.151901 526.208801,156.495102 565.697021,176.603470 
	C589.802612,188.878616 605.472778,209.167130 614.909729,234.061554 
	C626.972229,265.882141 629.695618,298.873199 623.622253,332.293518 
	C618.500488,360.477112 604.557190,384.127716 584.202759,404.236511 
	C558.923523,429.210571 528.205200,441.058258 493.206879,443.162109 
	C472.626068,444.399292 452.808655,440.868683 433.125702,433.862701 
M443.530090,402.964966 
	C446.240204,405.426819 448.846710,408.015289 451.676453,410.330994 
	C480.686768,434.071808 525.657043,433.515808 550.431702,395.879059 
	C562.530823,377.498505 569.031250,356.826813 569.911316,334.826263 
	C570.468872,320.888336 569.532532,306.883911 569.099365,292.914490 
	C568.276123,266.365295 561.327026,241.401489 549.104675,217.897781 
	C542.895264,205.956955 535.019470,195.148010 523.662476,187.676620 
	C504.042023,174.769012 482.584503,172.239532 460.079651,178.237808 
	C444.229126,182.462479 431.282196,191.018677 422.344635,205.034134 
	C410.256714,223.989960 404.614777,245.025635 402.809814,267.200897 
	C401.244537,286.431702 403.385559,305.439850 407.104645,324.278015 
	C412.813873,353.196716 421.974854,380.575989 443.530090,402.964966 
z"/>
<path fill="#020202" opacity="1.000000" stroke="none" 
	d="
M39.618946,220.721497 
	C34.392876,229.993668 32.110031,238.088943 30.827278,251.428528 
	C30.562485,251.624573 30.314260,251.957535 30.028303,251.993927 
	C19.133442,253.380173 18.946827,253.339096 19.124781,242.647415 
	C19.409914,225.516495 19.772860,208.335724 25.859474,192.006592 
	C30.844568,178.632629 37.691742,166.498291 51.979584,161.038330 
	C72.192680,153.314117 97.664650,159.152969 109.171822,182.594666 
	C117.377823,199.311432 121.185661,217.168823 122.013115,235.496292 
	C122.845177,253.925766 122.241135,272.422333 122.163055,290.889069 
	C122.143730,295.459717 121.724342,300.028748 121.411194,306.105560 
	C125.000046,303.260101 127.411362,301.383270 129.785492,299.460480 
	C152.537781,281.033722 175.224167,262.524628 198.090683,244.240814 
	C201.870544,241.218460 203.432190,237.991669 204.295151,233.133636 
	C208.286346,210.665451 213.566223,188.551514 227.569199,169.672699 
	C235.321014,159.221725 247.597260,155.228531 259.850647,159.485153 
	C269.561218,162.858429 275.929230,175.145065 275.505768,186.415237 
	C274.365204,216.768738 258.554260,239.619370 238.747513,260.518768 
	C233.496536,266.059448 227.414169,270.804504 221.984406,276.188080 
	C220.403320,277.755676 218.853638,280.257782 218.827835,282.350494 
	C218.589920,301.650726 218.196899,320.972260 218.865036,340.252350 
	C219.308731,353.055145 222.601852,365.332245 228.723953,376.951782 
	C238.006577,394.569946 271.189728,399.521637 283.168976,377.476257 
	C287.692169,369.152252 291.073517,360.622437 292.009888,351.254730 
	C292.332642,348.025970 293.313904,346.732147 296.539673,347.142395 
	C298.014557,347.329987 299.686798,346.765747 300.992126,347.266144 
	C302.353821,347.788086 304.430756,349.211792 304.401978,350.188446 
	C303.693268,374.236755 304.713440,398.692932 293.893311,421.095856 
	C287.416504,434.506012 275.641266,441.212799 260.935669,443.057770 
	C229.806778,446.963196 214.593170,425.048126 207.999344,401.165649 
	C200.142838,372.709778 200.291306,343.630096 201.495773,314.470093 
	C201.773575,307.744507 201.536743,300.997650 201.536743,293.808380 
	C200.191864,294.530426 198.965485,294.988800 197.972458,295.751129 
	C171.581757,316.010437 144.791779,335.802124 121.408836,359.647583 
	C119.462181,361.632751 117.888275,364.527802 117.332161,367.243958 
	C113.725342,384.860168 109.339951,402.225922 102.201271,418.789246 
	C98.206032,428.059052 92.276680,435.687103 83.041451,440.289764 
	C67.576370,447.997162 52.156673,441.371185 46.958324,424.906830 
	C43.552517,414.119934 45.461910,403.496490 47.779785,392.885010 
	C51.962215,373.737488 63.803825,359.192932 76.817421,345.501343 
	C83.913620,338.035400 91.413918,330.907837 99.183853,324.146973 
	C103.141678,320.703156 104.331940,316.769592 104.386574,311.982086 
	C104.584068,294.675629 105.429077,277.348114 104.832047,260.069916 
	C104.333069,245.629532 101.934143,231.457367 93.653816,218.770081 
	C81.717117,200.480438 48.420719,202.298615 39.618946,220.721497 
z"/>
<path fill="#C47035" opacity="1.000000" stroke="none" 
	d="
M1786.403564,544.400269 
	C1760.657715,551.413269 1735.035522,554.080566 1708.978882,549.059326 
	C1701.820679,547.679871 1695.364258,544.774414 1689.985229,539.696533 
	C1684.463135,534.483704 1682.720947,528.247192 1685.093994,521.057251 
	C1687.472534,513.850830 1692.985596,510.593353 1700.232056,510.087433 
	C1710.732666,509.354248 1720.779663,511.678192 1730.471558,515.429382 
	C1741.938965,519.867615 1753.055298,525.255554 1765.544556,526.530273 
	C1790.849487,529.113098 1812.727051,521.848938 1828.663086,501.854279 
	C1838.594238,489.393799 1840.377686,473.940186 1835.604004,458.653473 
	C1831.907227,446.815369 1821.494141,442.558289 1810.353027,441.192505 
	C1796.833130,439.535095 1783.187500,438.527161 1769.570312,438.131989 
	C1752.520630,437.637207 1735.714722,436.237976 1719.303833,431.221893 
	C1692.664062,423.079224 1674.673828,405.655182 1663.893433,380.313324 
	C1653.025024,354.764801 1650.736694,327.899994 1651.576538,300.539734 
	C1652.176270,281.001862 1654.253296,261.646057 1660.109375,242.940414 
	C1669.653320,212.455856 1686.410889,187.376068 1715.447754,172.089981 
	C1727.503418,165.743439 1740.621582,163.341125 1754.113525,163.949554 
	C1774.398560,164.864288 1794.654175,166.413330 1814.931885,167.516876 
	C1826.855469,168.165787 1838.969116,169.889740 1850.280762,164.286438 
	C1853.044434,162.917480 1856.151489,161.073578 1857.653198,158.577255 
	C1860.466675,153.900452 1864.086182,153.506683 1869.067017,154.613281 
	C1865.670532,171.663315 1861.266846,188.236496 1847.910767,200.391571 
	C1839.741699,207.825836 1829.195435,210.879593 1818.367432,210.771515 
	C1803.586548,210.623962 1788.819580,209.234451 1774.042969,208.446777 
	C1756.173706,207.494263 1738.410645,207.572296 1721.294800,213.968643 
	C1702.039917,221.164261 1688.031250,234.303711 1679.678345,252.798965 
	C1666.666138,281.610687 1664.815430,311.365143 1676.012939,341.176666 
	C1683.236694,360.408966 1698.246826,371.715759 1717.374268,378.134247 
	C1737.380005,384.847473 1758.213013,385.525330 1778.951782,386.989105 
	C1792.887329,387.972687 1806.805786,388.603241 1820.377197,392.749786 
	C1839.787964,398.680481 1852.362549,410.943848 1856.545410,430.821350 
	C1860.581421,450.001007 1860.664307,469.116852 1853.242065,487.801971 
	C1843.707642,511.804108 1825.874634,527.464294 1803.155884,538.221558 
	C1797.919312,540.701050 1792.250732,542.268188 1786.403564,544.400269 
z"/>
<path fill="#030303" opacity="1.000000" stroke="none" 
	d="
M470.527954,112.538422 
	C469.445435,113.831940 468.609070,114.868370 467.757996,115.892586 
	C456.886292,128.976395 456.885742,128.975937 438.821442,127.955025 
	C439.404266,126.687813 439.820129,125.553200 440.415588,124.522301 
	C459.182770,92.031021 477.909607,59.516155 496.794281,27.093222 
	C500.976624,19.912659 507.277649,15.111988 515.532043,13.338274 
	C521.706909,12.011409 527.120117,13.534740 531.164246,18.610746 
	C535.315613,23.821388 536.202332,29.965933 532.645630,35.323643 
	C526.966370,43.878613 520.444214,51.901680 513.949646,59.882076 
	C499.664551,77.435349 485.173981,94.821365 470.527954,112.538422 
z"/>
<path fill="#FFFFFE" opacity="1.000000" stroke="none" 
	d="
M882.963623,316.085693 
	C883.000183,335.560486 883.295349,354.621582 878.088928,373.101318 
	C869.474670,403.676483 852.368591,422.812103 817.055420,425.760529 
	C779.915039,428.861542 757.423645,410.909790 745.951172,381.486389 
	C736.532532,357.330231 731.904724,332.216431 731.210938,306.457123 
	C730.732422,288.688843 730.749084,270.820740 732.085449,253.113556 
	C733.525513,234.031769 738.804871,215.596741 750.257080,199.916336 
	C765.308899,179.307190 786.270630,172.689346 811.041687,176.768723 
	C841.470337,181.779816 858.069763,202.199982 868.982361,228.849716 
	C878.327026,251.670212 881.384888,275.700043 882.250854,300.121613 
	C882.433899,305.282013 882.704529,310.439331 882.963623,316.085693 
z"/>
<path fill="#FEFEFE" opacity="1.000000" stroke="none" 
	d="
M1541.942383,273.391846 
	C1542.831177,287.631775 1543.676758,301.424927 1544.508057,315.218933 
	C1546.096191,341.569305 1541.307129,366.769409 1528.563721,389.844513 
	C1506.725708,429.387665 1466.146851,435.868591 1432.319580,414.537201 
	C1408.091919,399.259277 1395.348511,375.287720 1387.434082,348.799255 
	C1378.853882,320.082764 1374.427734,290.693176 1377.877930,260.558868 
	C1380.239624,239.930878 1386.259521,220.409348 1397.828735,203.173538 
	C1412.189941,181.777863 1434.149292,174.755630 1458.556763,175.269730 
	C1481.112793,175.744827 1500.066284,184.687805 1514.010376,203.214722 
	C1522.314209,214.247757 1528.481567,226.384872 1532.853149,239.304749 
	C1536.567017,250.281235 1538.931274,261.714386 1541.942383,273.391846 
z"/>
<path fill="#FEFEFE" opacity="1.000000" stroke="none" 
	d="
M443.284332,402.712158 
	C421.974854,380.575989 412.813873,353.196716 407.104645,324.278015 
	C403.385559,305.439850 401.244537,286.431702 402.809814,267.200897 
	C404.614777,245.025635 410.256714,223.989960 422.344635,205.034134 
	C431.282196,191.018677 444.229126,182.462479 460.079651,178.237808 
	C482.584503,172.239532 504.042023,174.769012 523.662476,187.676620 
	C535.019470,195.148010 542.895264,205.956955 549.104675,217.897781 
	C561.327026,241.401489 568.276123,266.365295 569.099365,292.914490 
	C569.532532,306.883911 570.468872,320.888336 569.911316,334.826263 
	C569.031250,356.826813 562.530823,377.498505 550.431702,395.879059 
	C525.657043,433.515808 480.686768,434.071808 451.676453,410.330994 
	C448.846710,408.015289 446.240204,405.426819 443.284332,402.712158 
z"/>
</svg>