<svg version="1.1" id="Layer_1" xmlns="http://www.w3.org/2000/svg" xmlns:xlink="http://www.w3.org/1999/xlink" x="0px" y="0px"
	 width="100%" viewBox="0 0 2004 764" enable-background="new 0 0 2004 764" xml:space="preserve">
<path fill="#FFFFFF" opacity="1.000000" stroke="none" 
	d="
M2005.000000,569.000000 
	C2005.000000,968.000000 2005.000000,1366.500000 2005.000000,1765.000000 
	C1337.000000,1765.000000 669.000000,1765.000000 1.000000,1765.000000 
	C1.000000,1177.000000 1.000000,589.000000 1.000000,1.000000 
	C669.000000,1.000000 1337.000000,1.000000 2005.000000,1.000000 
	C2005.000000,190.166672 2005.000000,379.333344 2005.000000,569.000000 
M1001.268311,722.253479 
	C1001.268311,722.253479 1000.996948,721.996826 1001.266357,721.324463 
	C1002.337891,720.885193 1003.432617,720.494751 1004.477600,719.999390 
	C1037.495605,704.348267 1066.941772,683.775085 1091.308960,656.364502 
	C1126.994995,616.221130 1146.333984,569.873413 1145.958130,515.497009 
	C1145.465088,444.170746 1145.837158,372.838470 1145.837036,301.508789 
	C1145.837036,239.008896 1145.961914,176.508514 1145.712524,114.009621 
	C1145.671509,103.743637 1144.682373,93.359497 1142.876587,83.254211 
	C1140.750488,71.357574 1130.813232,62.454132 1119.376953,62.151215 
	C1100.234619,61.644188 1081.059814,61.670319 1061.916626,62.165787 
	C1051.130493,62.444954 1041.767944,70.672028 1040.073364,81.412590 
	C1038.368896,92.216583 1037.353149,103.238800 1037.287598,114.172890 
	C1036.999146,162.337738 1036.636719,210.513519 1037.389648,258.668335 
	C1037.754395,281.995239 1013.621826,307.693298 989.083252,306.977325 
	C965.436707,306.287384 941.754028,306.886810 918.088013,306.769897 
	C914.126404,306.750336 909.996643,306.550293 906.238220,305.440002 
	C887.978271,300.045715 870.564819,281.434723 870.838989,257.597656 
	C871.390930,209.604095 871.040100,161.599655 870.953918,113.599899 
	C870.943787,107.959679 870.562561,102.280472 869.827393,96.688492 
	C867.406921,78.277489 856.623962,66.001816 838.230957,62.997559 
	C827.510620,61.246525 816.363159,61.913326 805.406250,61.862934 
	C794.508972,61.812820 785.450012,66.491554 777.814697,73.993614 
	C769.952393,81.718719 764.728394,91.182915 760.698059,101.312836 
	C752.300659,122.418846 748.497864,144.629852 747.247070,167.072678 
	C745.511658,198.209229 746.234497,229.378525 752.050781,260.187561 
	C755.092224,276.297943 759.516174,291.944794 769.135925,305.598358 
	C779.338318,320.078949 793.533447,325.207001 810.720642,323.556549 
	C810.720642,317.817993 810.720642,312.393372 810.720642,306.828033 
	C808.948120,306.828033 807.455322,306.771454 805.968018,306.837067 
	C794.766602,307.331238 786.517883,302.603973 780.559814,293.146393 
	C774.207031,283.062439 771.216370,271.843201 769.017639,260.390015 
	C762.947327,228.768784 762.325562,196.805054 764.275757,164.807983 
	C765.534973,144.149399 769.079590,123.801544 777.105408,104.517487 
	C780.991089,95.181244 785.775574,86.193069 795.014526,81.199722 
	C807.018860,74.711792 820.832581,75.254433 824.230469,92.364731 
	C825.677490,99.651245 826.369446,107.202339 826.398743,114.637161 
	C826.586304,162.303009 826.436768,209.970108 826.565491,257.636353 
	C826.582031,263.764587 826.936707,270.024445 828.210815,275.993622 
	C833.500793,300.776550 855.069519,323.969604 883.399597,323.869019 
	C921.065674,323.735260 958.732727,323.868286 996.399170,323.812408 
	C1006.626160,323.797241 1016.246216,321.316864 1024.619995,315.262939 
	C1043.421021,301.670380 1053.278564,283.471741 1053.212402,259.969604 
	C1053.076538,211.636749 1052.997437,163.302048 1053.329590,114.971069 
	C1053.390625,106.088623 1054.837524,97.063225 1056.874878,88.392853 
	C1058.653442,80.823112 1063.858398,77.747925 1071.663696,77.526466 
	C1075.494019,77.417786 1079.329956,77.490601 1083.163208,77.515007 
	C1089.888062,77.557823 1095.281738,80.560631 1096.906860,86.970177 
	C1099.007080,95.253624 1100.815186,103.892342 1100.829834,112.381416 
	C1101.066040,248.714081 1101.008667,385.047302 1100.985718,521.380371 
	C1100.981079,548.342224 1097.863770,574.840759 1089.093750,600.511292 
	C1075.810913,639.390869 1051.777832,669.743713 1016.667053,690.993713 
	C982.604797,711.609131 945.135986,722.989380 906.208069,729.954041 
	C893.434143,732.239441 880.558472,733.954041 867.735474,735.968872 
	C861.556885,736.939575 859.023987,739.346558 858.873108,744.215637 
	C858.682556,750.360291 862.021729,753.081665 869.955383,752.966003 
	C913.474548,752.331726 956.815979,749.914734 999.595398,741.031677 
	C1039.163940,732.815186 1077.018921,720.303345 1111.236328,698.196594 
	C1160.276733,666.512878 1186.270386,621.523987 1186.863159,563.147278 
	C1187.631714,487.488678 1187.127075,411.817169 1187.148804,336.151215 
	C1187.149048,335.392700 1186.852173,334.634094 1186.751465,334.151764 
	C1181.343140,334.151764 1176.265747,334.151764 1170.996826,334.151764 
	C1170.996826,336.289368 1170.996704,338.104828 1170.996704,339.920258 
	C1170.996704,387.420166 1171.019897,434.920135 1170.988037,482.420013 
	C1170.969116,510.585846 1171.205811,538.758118 1170.672607,566.915039 
	C1170.335815,584.707031 1166.097168,601.860901 1158.732422,618.121277 
	C1146.218018,645.751282 1125.602539,666.138000 1100.498535,682.323608 
	C1070.058716,701.949524 1036.280640,713.480103 1001.268311,722.253479 
M390.973175,77.310562 
	C403.469574,77.208229 416.008118,76.442574 428.447723,77.233421 
	C436.944000,77.773567 445.695526,79.442200 453.643036,82.437057 
	C472.131897,89.404198 477.975220,104.768379 477.984955,123.160500 
	C478.016693,182.992706 477.987518,242.824936 478.020721,302.657166 
	C478.022736,306.312836 478.099457,310.004852 478.601196,313.616089 
	C479.574310,320.620148 481.473785,322.904327 488.501526,323.073486 
	C508.813751,323.562439 529.138611,323.527649 549.458557,323.693665 
	C549.790222,323.696381 550.124817,323.654083 550.454041,323.605682 
	C556.513916,322.714661 558.871948,320.206879 559.171021,314.063049 
	C559.381653,309.736969 559.489868,305.401550 559.490967,301.070251 
	C559.509705,228.571594 559.504333,156.072922 559.504395,83.574265 
	C559.504395,81.652199 559.504395,79.730133 559.504395,76.831863 
	C575.193665,77.911514 590.171143,78.422394 605.015137,80.108505 
	C620.138611,81.826363 629.939453,90.820824 633.570557,105.572205 
	C635.183777,112.125969 635.728271,119.089828 635.738159,125.869019 
	C635.873108,218.025696 635.828918,310.182648 635.828918,402.339508 
	C635.828918,403.979584 635.828918,405.619690 635.828918,407.148590 
	C616.591125,412.938354 600.322632,423.182770 586.304199,436.702789 
	C577.221924,445.462158 569.313416,455.434937 560.828308,464.818176 
	C551.596252,475.027435 541.959412,484.687622 527.636902,487.415405 
	C525.846252,487.756439 523.999390,487.985382 522.180908,487.970703 
	C440.392670,487.310974 358.490875,490.828796 276.918945,481.954681 
	C243.794128,478.351074 211.103226,472.509918 179.298996,462.037231 
	C145.601883,450.941254 119.206345,430.361603 98.463516,402.051636 
	C72.367950,366.436218 60.616623,325.764923 57.041672,282.378174 
	C54.861595,255.920074 55.509415,229.450867 57.923557,203.008453 
	C60.980042,169.530304 67.168686,136.772812 79.880753,105.491089 
	C92.641144,74.090454 111.008461,46.734310 138.071320,25.768864 
	C143.393677,21.645662 148.912430,17.775995 154.936615,13.351686 
	C150.585892,12.798061 147.707458,9.098448 143.543228,12.309204 
	C127.872429,24.391926 111.312126,35.424896 96.400414,48.366707 
	C64.848770,75.750237 42.598011,109.858536 28.136097,148.980118 
	C19.550848,172.204483 14.782163,196.298126 12.548470,220.962509 
	C9.385303,255.890152 11.107489,290.565887 18.126478,324.864685 
	C26.953115,367.996735 45.118988,406.640533 75.909042,438.643677 
	C90.267426,453.567780 105.794289,467.244995 124.882462,475.984955 
	C148.245056,486.682037 173.227234,491.828094 198.373962,495.851074 
	C246.009888,503.471863 294.089447,506.281128 342.258759,506.940186 
	C397.915161,507.701721 453.582062,507.786743 509.244934,507.904877 
	C519.026794,507.925629 528.940857,507.439636 538.567200,505.831390 
	C557.205383,502.717468 574.117859,495.871582 588.477478,482.643158 
	C599.179871,472.783844 611.293457,464.406525 623.139771,455.870453 
	C626.535339,453.423767 631.188110,452.721893 635.318054,451.200287 
	C635.318054,480.243256 635.730713,508.238770 635.192566,536.215942 
	C634.730164,560.254944 631.261108,583.971985 623.895386,606.973083 
	C613.735229,638.700378 596.731506,665.595276 569.594177,685.798828 
	C545.015259,704.097717 517.571777,716.214417 488.253967,723.845520 
	C467.371490,729.280945 445.926941,732.542175 424.771576,736.957397 
	C420.916260,737.762024 416.980347,738.968506 413.553772,740.849487 
	C408.769257,743.475891 409.239624,750.047119 414.232117,752.404236 
	C416.252319,753.358032 418.717590,753.775085 420.975586,753.759216 
	C464.351074,753.454346 507.533386,750.862244 550.101379,741.871704 
	C583.349854,734.849487 615.350891,724.398071 644.350525,706.156860 
	C692.278687,676.009583 717.970459,632.300537 720.836365,576.074036 
	C722.531067,542.825256 721.828003,509.434540 721.511902,476.114197 
	C721.406799,465.040619 720.088623,453.777344 717.671204,442.970734 
	C713.266663,423.280823 702.807495,409.212616 681.128113,408.069733 
	C680.878418,408.056549 680.646301,407.709747 680.171082,407.331940 
	C680.171082,405.866241 680.171082,404.213409 680.171082,402.560577 
	C680.171082,367.069336 680.186768,331.578064 680.167542,296.086823 
	C680.135193,236.255112 680.318726,176.421265 679.785767,116.593887 
	C679.703247,107.330826 677.675110,97.529709 674.149475,88.964149 
	C665.894592,68.908890 648.606140,61.831539 628.256226,61.592987 
	C596.761108,61.223797 565.258545,61.495602 533.759094,61.495598 
	C531.686768,61.495598 529.614441,61.495598 526.510742,61.495598 
	C539.671387,72.201874 542.627747,85.819756 542.572754,100.949760 
	C542.375854,155.114700 542.504150,209.280807 542.488464,263.446472 
	C542.485291,274.444489 542.600342,285.448700 542.275574,296.438660 
	C541.997314,305.853241 540.027954,307.338104 530.594727,306.597198 
	C524.784607,306.140839 523.467773,304.891296 523.015686,299.014709 
	C522.734985,295.365875 522.530762,291.700836 522.526001,288.042755 
	C522.487427,258.543365 522.564758,229.043716 522.487183,199.544464 
	C522.411743,170.882034 522.860046,142.196213 521.836792,113.565033 
	C520.963196,89.121780 500.635193,62.111465 470.616669,61.808292 
	C439.789917,61.496960 408.958496,61.641045 378.129120,61.607735 
	C369.978302,61.598930 362.237793,63.362598 355.204041,67.569946 
	C333.947327,80.285011 323.467773,99.352310 323.239685,123.846916 
	C322.934021,156.676804 323.163849,189.511673 323.163788,222.344391 
	C323.163788,224.140411 323.163818,225.936447 323.163818,228.301804 
	C299.475494,220.173386 275.661499,215.311172 251.002716,214.547211 
	C251.002716,180.659561 251.054916,147.500381 250.953415,114.341652 
	C250.935638,108.534035 250.664734,102.671402 249.831223,96.932884 
	C247.618561,81.699394 240.398193,69.683968 225.240158,64.577118 
	C209.912140,59.412983 193.870895,60.319233 178.278061,62.871113 
	C162.100845,65.518631 152.616867,77.473381 145.475693,91.163376 
	C132.722092,115.612663 128.367889,142.349609 127.313736,169.329941 
	C126.399559,192.727951 127.708061,216.279465 129.229782,239.685379 
	C130.496002,259.161255 134.700790,278.216614 143.289719,296.024567 
	C153.137634,316.442871 169.581116,325.987366 190.773438,323.382416 
	C190.773438,317.999908 190.773438,312.588379 190.773438,306.828857 
	C188.959778,306.828857 187.332901,306.773376 185.710785,306.837769 
	C174.705551,307.274628 166.596527,302.581940 160.692902,293.351562 
	C154.267761,283.305817 151.259354,272.080170 149.054321,260.632202 
	C142.932755,228.850510 142.314133,196.719223 144.296616,164.556076 
	C145.559464,144.068436 148.759033,123.743889 157.187424,104.825325 
	C160.370728,97.680046 164.715424,90.551041 170.156555,85.011627 
	C183.678696,71.245201 200.781128,76.363274 204.759628,95.051178 
	C206.166916,101.661491 206.414246,108.613930 206.425827,115.411484 
	C206.540970,182.910034 206.495590,250.408875 206.495590,317.907623 
	C206.495590,319.829834 206.495590,321.752075 206.495590,323.624573 
	C221.642502,323.624573 236.092041,323.624573 251.064911,323.624573 
	C251.064911,292.863953 251.064911,262.310089 251.064911,231.636902 
	C274.790894,233.066315 297.516815,236.758392 319.475037,244.697540 
	C322.387512,245.750549 323.260895,246.948029 323.287659,249.908936 
	C323.398987,262.240143 323.670013,274.572662 324.109375,286.896606 
	C324.256531,291.024658 324.624786,295.247955 325.668854,299.223694 
	C331.323578,320.756348 349.855988,326.581665 368.112549,323.620941 
	C376.545502,322.253357 382.009216,316.736877 384.284973,308.460083 
	C388.372253,293.594727 386.715729,279.432770 378.401611,266.301514 
	C370.110931,253.207336 358.005890,244.556549 344.349609,237.896820 
	C340.839172,236.184906 339.303223,234.210388 339.381012,230.015121 
	C339.683777,213.687698 339.440643,197.351044 339.520050,181.018387 
	C339.627014,159.024551 339.358215,137.013062 340.180756,115.043968 
	C340.754333,99.724579 347.281799,86.834030 362.630493,81.632690 
	C371.259918,78.708366 380.868347,78.672928 390.973175,77.310562 
M1668.814087,734.594116 
	C1683.419800,738.604980 1698.067017,742.471375 1712.620728,746.662964 
	C1731.237427,752.024658 1749.925903,754.791382 1769.295044,751.006165 
	C1799.489380,745.105530 1819.722778,728.277832 1828.612549,698.450623 
	C1833.035400,683.610718 1834.172119,668.397461 1834.170654,653.017822 
	C1834.154541,474.358826 1834.159912,295.699829 1834.163940,117.040817 
	C1834.163940,114.207954 1833.911987,111.332352 1834.303223,108.550606 
	C1835.294800,101.500214 1835.980347,94.318199 1837.931519,87.516876 
	C1839.786377,81.051834 1844.838379,77.537971 1851.911865,77.599136 
	C1856.744507,77.640938 1861.578003,77.593185 1866.411133,77.600548 
	C1877.527100,77.617477 1882.480225,80.883575 1884.800049,91.792206 
	C1886.444580,99.526222 1887.051514,107.613838 1887.056396,115.544258 
	C1887.174438,305.869354 1887.152466,496.194550 1887.139893,686.519714 
	C1887.138916,702.316223 1889.839966,717.364502 1899.210449,730.551758 
	C1907.012451,741.531494 1916.898682,750.486145 1930.689697,751.340149 
	C1948.562378,752.446960 1966.555420,751.610352 1984.750732,751.610352 
	C1984.750732,746.609131 1984.750732,741.539856 1984.750732,735.994385 
	C1978.416626,735.994385 1972.293823,735.938660 1966.172363,736.008484 
	C1958.517456,736.095764 1952.162354,733.214478 1947.271118,727.448486 
	C1937.358521,715.762878 1931.805298,702.452026 1931.810547,686.845947 
	C1931.874146,497.687408 1931.864624,308.528870 1931.813477,119.370323 
	C1931.811035,110.215263 1931.454346,101.048073 1930.906494,91.907883 
	C1929.724365,72.184692 1920.029297,61.755238 1900.231079,60.839764 
	C1882.283203,60.009861 1864.247437,60.342716 1846.277466,60.956326 
	C1830.802490,61.484749 1821.396362,70.013275 1819.235474,85.258011 
	C1817.816162,95.271217 1817.237427,105.482300 1817.230957,115.605370 
	C1817.116455,294.764282 1817.228516,473.923401 1816.972412,653.082031 
	C1816.954712,665.452087 1815.752808,678.146790 1812.788940,690.117981 
	C1806.745972,714.527222 1790.421997,728.995117 1765.653564,734.136719 
	C1751.761475,737.020386 1738.153809,735.995300 1724.626099,732.562805 
	C1709.464722,728.715637 1694.421143,724.403748 1679.253052,720.584290 
	C1666.028564,717.254272 1652.727051,713.493896 1638.897705,716.253235 
	C1622.914307,719.442139 1606.989624,722.940308 1591.085693,726.510132 
	C1572.578613,730.664368 1554.218628,735.750061 1534.928345,733.970581 
	C1521.028076,732.688293 1507.634033,729.797119 1495.602417,722.213379 
	C1472.493896,707.647339 1468.155273,672.047363 1478.526611,649.800659 
	C1488.962646,627.415527 1508.332153,615.795227 1531.441772,610.212952 
	C1558.038330,603.788452 1584.388428,606.604858 1610.294189,614.543335 
	C1623.657349,618.638245 1636.853027,623.286621 1650.257080,627.234436 
	C1653.516235,628.194336 1657.298828,627.377319 1660.840698,627.377319 
	C1661.068237,626.674744 1661.295898,625.972168 1661.523438,625.269653 
	C1657.987061,622.717346 1654.774048,619.396912 1650.857422,617.747498 
	C1635.076416,611.101746 1619.499268,603.426392 1603.078247,598.951538 
	C1559.868530,587.176514 1517.353638,590.412415 1476.267700,608.891968 
	C1464.618408,614.131592 1453.923462,620.817322 1444.967041,629.984680 
	C1428.400391,646.941101 1425.645264,667.557312 1429.497803,689.836060 
	C1433.329102,711.991821 1444.096069,729.301575 1464.678711,739.539429 
	C1477.191284,745.763123 1490.665283,748.860596 1504.449707,750.422546 
	C1525.488037,752.806458 1546.572266,754.979736 1567.557373,749.879761 
	C1583.072021,746.109314 1598.562744,742.239929 1614.074219,738.456848 
	C1631.829834,734.126587 1649.486084,728.400513 1668.814087,734.594116 
M1563.163452,269.499939 
	C1563.396118,283.980927 1563.268677,298.480255 1564.004517,312.935638 
	C1564.407959,320.863708 1566.548462,322.816742 1574.678223,323.180817 
	C1588.481079,323.798981 1602.317383,323.699402 1616.140381,323.817932 
	C1622.470459,323.872192 1628.817261,323.979218 1635.128906,323.602417 
	C1641.335815,323.231934 1643.794189,320.762848 1644.458496,314.642151 
	C1644.906738,310.512665 1644.980103,306.327271 1644.981689,302.166809 
	C1645.010620,229.175995 1645.002686,156.185196 1645.002686,83.194389 
	C1645.002686,81.396591 1645.002686,79.598793 1645.002686,76.833405 
	C1660.602905,77.920586 1675.753052,78.386604 1690.743286,80.185158 
	C1706.060547,82.022926 1715.788940,91.218346 1719.064941,106.393471 
	C1720.350830,112.349930 1720.905762,118.574478 1720.917969,124.678658 
	C1721.046143,189.170273 1720.997314,253.662247 1720.997314,318.154114 
	C1720.997314,319.931213 1720.997314,321.708282 1720.997314,323.514771 
	C1736.247803,323.514771 1750.963013,323.514771 1765.836548,323.514771 
	C1765.836548,321.539917 1765.836548,319.886017 1765.836548,318.232147 
	C1765.836548,254.073563 1765.838745,189.914978 1765.828491,125.756393 
	C1765.828003,122.924591 1765.819824,120.085350 1765.627686,117.262329 
	C1764.843872,105.739655 1763.428711,94.301437 1757.361694,84.158638 
	C1747.542603,67.743454 1731.920044,61.765984 1713.822021,61.585423 
	C1681.662598,61.264568 1649.497559,61.492352 1617.334961,61.504929 
	C1615.899170,61.505489 1614.463257,61.647224 1612.078613,61.773407 
	C1625.882935,72.682510 1628.147095,86.973145 1628.090942,102.553207 
	C1627.864990,165.211166 1628.000366,227.870407 1627.986328,290.529175 
	C1627.985718,293.025635 1628.002808,295.543640 1627.703979,298.014435 
	C1626.774170,305.703217 1625.070068,307.071472 1617.383301,306.666077 
	C1609.696167,306.260712 1608.595215,305.188385 1608.153931,297.466309 
	C1608.020996,295.139282 1608.008667,292.803040 1608.008301,290.471039 
	C1608.000732,235.477966 1608.026855,180.484863 1607.961670,125.491875 
	C1607.955688,120.512695 1607.648804,115.498924 1607.014282,110.561302 
	C1603.808838,85.618576 1583.298218,61.579597 1554.458496,61.649933 
	C1524.131714,61.723900 1493.804688,61.608574 1463.477783,61.618572 
	C1455.342163,61.621254 1447.541504,63.289646 1440.570312,67.594193 
	C1419.861328,80.381577 1408.753662,98.672768 1408.810547,123.372940 
	C1408.886597,156.368607 1408.828979,189.364578 1408.828857,222.360428 
	C1408.828857,224.140640 1408.828857,225.920868 1408.828857,228.318604 
	C1385.096069,220.417953 1361.333740,215.234070 1336.504761,214.577103 
	C1336.504761,212.147217 1336.504761,210.329041 1336.504761,208.510864 
	C1336.504761,177.348129 1336.594482,146.184906 1336.432739,115.023018 
	C1336.398438,108.392990 1336.000854,101.667076 1334.816406,95.159042 
	C1331.195068,75.262337 1319.127563,63.975330 1299.094727,62.042358 
	C1290.344727,61.198071 1281.461060,61.518436 1272.643066,61.646687 
	C1255.812378,61.891464 1243.777344,70.475212 1234.923218,84.137619 
	C1221.698730,104.544044 1217.272827,127.795853 1214.187134,151.269974 
	C1210.457275,179.642792 1211.285156,208.143204 1214.015259,236.569901 
	C1215.994995,257.183380 1219.601196,277.468170 1228.744751,296.326477 
	C1238.548950,316.546814 1256.227539,326.543671 1276.203247,323.299469 
	C1276.203247,317.901855 1276.203247,312.498962 1276.203247,306.828583 
	C1274.083618,306.828583 1272.262817,306.788147 1270.444336,306.835266 
	C1260.057617,307.104248 1251.541016,303.049347 1246.679321,294.006012 
	C1242.313477,285.885284 1238.480347,277.192780 1236.190308,268.294861 
	C1229.287964,241.475403 1228.788330,213.950668 1228.897217,186.434891 
	C1228.995239,161.673645 1231.529663,137.235779 1239.025757,113.508179 
	C1242.364502,102.940292 1246.847046,92.944038 1255.007935,85.082207 
	C1261.442139,78.884026 1269.323486,76.115753 1277.899780,78.304939 
	C1285.714722,80.299805 1288.923096,87.141350 1290.055664,94.535706 
	C1291.083740,101.246857 1291.743530,108.085960 1291.755615,114.870102 
	C1291.876221,182.528015 1291.828857,250.186249 1291.828857,317.844391 
	C1291.828857,319.760345 1291.828857,321.676270 1291.828857,323.521637 
	C1307.092041,323.521637 1321.653809,323.521637 1336.666992,323.521637 
	C1336.666992,292.807037 1336.666992,262.404297 1336.666992,231.682770 
	C1360.324097,233.041595 1382.986816,236.824036 1404.924316,244.721054 
	C1408.010376,245.832001 1408.928467,247.105865 1408.953613,250.238617 
	C1409.064697,264.064331 1408.826416,277.934052 1409.858521,291.702087 
	C1411.643799,315.518372 1427.627808,324.546753 1446.815063,324.403687 
	C1458.920898,324.313446 1466.759033,319.116272 1469.783081,308.234680 
	C1473.891113,293.452881 1472.110962,279.124817 1463.699951,266.077881 
	C1455.233154,252.944687 1443.021484,244.106445 1429.120850,237.491882 
	C1426.023682,236.018066 1424.878052,234.265945 1424.907227,230.730408 
	C1425.094238,208.068146 1424.971558,185.403519 1425.013306,162.739777 
	C1425.042480,146.909927 1424.768921,131.065216 1425.359375,115.254349 
	C1426.071411,96.180412 1437.263794,82.162613 1455.394287,79.376709 
	C1478.985596,75.751709 1502.976562,75.023193 1526.590576,78.536995 
	C1551.232300,82.203728 1563.163452,97.686241 1563.163452,122.518272 
	C1563.163574,171.178802 1563.163452,219.839340 1563.163452,269.499939 
z"/>
<path fill="#020202" opacity="1.000000" stroke="none" 
	d="
M390.504456,77.323288 
	C380.868347,78.672928 371.259918,78.708366 362.630493,81.632690 
	C347.281799,86.834030 340.754333,99.724579 340.180756,115.043968 
	C339.358215,137.013062 339.627014,159.024551 339.520050,181.018387 
	C339.440643,197.351044 339.683777,213.687698 339.381012,230.015121 
	C339.303223,234.210388 340.839172,236.184906 344.349609,237.896820 
	C358.005890,244.556549 370.110931,253.207336 378.401611,266.301514 
	C386.715729,279.432770 388.372253,293.594727 384.284973,308.460083 
	C382.009216,316.736877 376.545502,322.253357 368.112549,323.620941 
	C349.855988,326.581665 331.323578,320.756348 325.668854,299.223694 
	C324.624786,295.247955 324.256531,291.024658 324.109375,286.896606 
	C323.670013,274.572662 323.398987,262.240143 323.287659,249.908936 
	C323.260895,246.948029 322.387512,245.750549 319.475037,244.697540 
	C297.516815,236.758392 274.790894,233.066315 251.064911,231.636902 
	C251.064911,262.310089 251.064911,292.863953 251.064911,323.624573 
	C236.092041,323.624573 221.642502,323.624573 206.495590,323.624573 
	C206.495590,321.752075 206.495590,319.829834 206.495590,317.907623 
	C206.495590,250.408875 206.540970,182.910034 206.425827,115.411484 
	C206.414246,108.613930 206.166916,101.661491 204.759628,95.051178 
	C200.781128,76.363274 183.678696,71.245201 170.156555,85.011627 
	C164.715424,90.551041 160.370728,97.680046 157.187424,104.825325 
	C148.759033,123.743889 145.559464,144.068436 144.296616,164.556076 
	C142.314133,196.719223 142.932755,228.850510 149.054321,260.632202 
	C151.259354,272.080170 154.267761,283.305817 160.692902,293.351562 
	C166.596527,302.581940 174.705551,307.274628 185.710785,306.837769 
	C187.332901,306.773376 188.959778,306.828857 190.773438,306.828857 
	C190.773438,312.588379 190.773438,317.999908 190.773438,323.382416 
	C169.581116,325.987366 153.137634,316.442871 143.289719,296.024567 
	C134.700790,278.216614 130.496002,259.161255 129.229782,239.685379 
	C127.708061,216.279465 126.399559,192.727951 127.313736,169.329941 
	C128.367889,142.349609 132.722092,115.612663 145.475693,91.163376 
	C152.616867,77.473381 162.100845,65.518631 178.278061,62.871113 
	C193.870895,60.319233 209.912140,59.412983 225.240158,64.577118 
	C240.398193,69.683968 247.618561,81.699394 249.831223,96.932884 
	C250.664734,102.671402 250.935638,108.534035 250.953415,114.341652 
	C251.054916,147.500381 251.002716,180.659561 251.002716,214.547211 
	C275.661499,215.311172 299.475494,220.173386 323.163818,228.301804 
	C323.163818,225.936447 323.163788,224.140411 323.163788,222.344391 
	C323.163849,189.511673 322.934021,156.676804 323.239685,123.846916 
	C323.467773,99.352310 333.947327,80.285011 355.204041,67.569946 
	C362.237793,63.362598 369.978302,61.598930 378.129120,61.607735 
	C408.958496,61.641045 439.789917,61.496960 470.616669,61.808292 
	C500.635193,62.111465 520.963196,89.121780 521.836792,113.565033 
	C522.860046,142.196213 522.411743,170.882034 522.487183,199.544464 
	C522.564758,229.043716 522.487427,258.543365 522.526001,288.042755 
	C522.530762,291.700836 522.734985,295.365875 523.015686,299.014709 
	C523.467773,304.891296 524.784607,306.140839 530.594727,306.597198 
	C540.027954,307.338104 541.997314,305.853241 542.275574,296.438660 
	C542.600342,285.448700 542.485291,274.444489 542.488464,263.446472 
	C542.504150,209.280807 542.375854,155.114700 542.572754,100.949760 
	C542.627747,85.819756 539.671387,72.201874 526.510742,61.495598 
	C529.614441,61.495598 531.686768,61.495598 533.759094,61.495598 
	C565.258545,61.495602 596.761108,61.223797 628.256226,61.592987 
	C648.606140,61.831539 665.894592,68.908890 674.149475,88.964149 
	C677.675110,97.529709 679.703247,107.330826 679.785767,116.593887 
	C680.318726,176.421265 680.135193,236.255112 680.167542,296.086823 
	C680.186768,331.578064 680.171082,367.069336 680.171082,402.560577 
	C680.171082,404.213409 680.171082,405.866241 680.171082,407.331940 
	C680.646301,407.709747 680.878418,408.056549 681.128113,408.069733 
	C702.807495,409.212616 713.266663,423.280823 717.671204,442.970734 
	C720.088623,453.777344 721.406799,465.040619 721.511902,476.114197 
	C721.828003,509.434540 722.531067,542.825256 720.836365,576.074036 
	C717.970459,632.300537 692.278687,676.009583 644.350525,706.156860 
	C615.350891,724.398071 583.349854,734.849487 550.101379,741.871704 
	C507.533386,750.862244 464.351074,753.454346 420.975586,753.759216 
	C418.717590,753.775085 416.252319,753.358032 414.232117,752.404236 
	C409.239624,750.047119 408.769257,743.475891 413.553772,740.849487 
	C416.980347,738.968506 420.916260,737.762024 424.771576,736.957397 
	C445.926941,732.542175 467.371490,729.280945 488.253967,723.845520 
	C517.571777,716.214417 545.015259,704.097717 569.594177,685.798828 
	C596.731506,665.595276 613.735229,638.700378 623.895386,606.973083 
	C631.261108,583.971985 634.730164,560.254944 635.192566,536.215942 
	C635.730713,508.238770 635.318054,480.243256 635.318054,451.200287 
	C631.188110,452.721893 626.535339,453.423767 623.139771,455.870453 
	C611.293457,464.406525 599.179871,472.783844 588.477478,482.643158 
	C574.117859,495.871582 557.205383,502.717468 538.567200,505.831390 
	C528.940857,507.439636 519.026794,507.925629 509.244934,507.904877 
	C453.582062,507.786743 397.915161,507.701721 342.258759,506.940186 
	C294.089447,506.281128 246.009888,503.471863 198.373962,495.851074 
	C173.227234,491.828094 148.245056,486.682037 124.882462,475.984955 
	C105.794289,467.244995 90.267426,453.567780 75.909042,438.643677 
	C45.118988,406.640533 26.953115,367.996735 18.126478,324.864685 
	C11.107489,290.565887 9.385303,255.890152 12.548470,220.962509 
	C14.782163,196.298126 19.550848,172.204483 28.136097,148.980118 
	C42.598011,109.858536 64.848770,75.750237 96.400414,48.366707 
	C111.312126,35.424896 127.872429,24.391926 143.543228,12.309204 
	C147.707458,9.098448 150.585892,12.798061 154.936615,13.351686 
	C148.912430,17.775995 143.393677,21.645662 138.071320,25.768864 
	C111.008461,46.734310 92.641144,74.090454 79.880753,105.491089 
	C67.168686,136.772812 60.980042,169.530304 57.923557,203.008453 
	C55.509415,229.450867 54.861595,255.920074 57.041672,282.378174 
	C60.616623,325.764923 72.367950,366.436218 98.463516,402.051636 
	C119.206345,430.361603 145.601883,450.941254 179.298996,462.037231 
	C211.103226,472.509918 243.794128,478.351074 276.918945,481.954681 
	C358.490875,490.828796 440.392670,487.310974 522.180908,487.970703 
	C523.999390,487.985382 525.846252,487.756439 527.636902,487.415405 
	C541.959412,484.687622 551.596252,475.027435 560.828308,464.818176 
	C569.313416,455.434937 577.221924,445.462158 586.304199,436.702789 
	C600.322632,423.182770 616.591125,412.938354 635.828918,407.148590 
	C635.828918,405.619690 635.828918,403.979584 635.828918,402.339508 
	C635.828918,310.182648 635.873108,218.025696 635.738159,125.869019 
	C635.728271,119.089828 635.183777,112.125969 633.570557,105.572205 
	C629.939453,90.820824 620.138611,81.826363 605.015137,80.108505 
	C590.171143,78.422394 575.193665,77.911514 559.504395,76.831863 
	C559.504395,79.730133 559.504395,81.652199 559.504395,83.574265 
	C559.504333,156.072922 559.509705,228.571594 559.490967,301.070251 
	C559.489868,305.401550 559.381653,309.736969 559.171021,314.063049 
	C558.871948,320.206879 556.513916,322.714661 550.454041,323.605682 
	C550.124817,323.654083 549.790222,323.696381 549.458557,323.693665 
	C529.138611,323.527649 508.813751,323.562439 488.501526,323.073486 
	C481.473785,322.904327 479.574310,320.620148 478.601196,313.616089 
	C478.099457,310.004852 478.022736,306.312836 478.020721,302.657166 
	C477.987518,242.824936 478.016693,182.992706 477.984955,123.160500 
	C477.975220,104.768379 472.131897,89.404198 453.643036,82.437057 
	C445.695526,79.442200 436.944000,77.773567 428.447723,77.233421 
	C416.008118,76.442574 403.469574,77.208229 390.504456,77.323288 
M649.534729,682.053223 
	C664.840454,670.461060 677.620117,656.531555 687.440308,640.047668 
	C702.526733,614.723999 707.987183,586.905090 707.999756,557.771606 
	C708.010498,532.778442 708.060364,507.785004 707.948364,482.792358 
	C707.928284,478.319672 707.543457,473.788300 706.741455,469.390839 
	C704.341919,456.234589 694.159485,448.560272 680.164368,449.389130 
	C680.164368,450.986267 680.164429,452.614166 680.164368,454.242096 
	C680.164062,476.236084 680.100220,498.230316 680.179626,520.223999 
	C680.277649,547.361755 677.177612,574.035339 668.963257,599.994263 
	C658.478699,633.127319 640.334839,661.302917 614.479492,684.565491 
	C596.458313,700.779541 576.337097,713.701050 554.320496,723.920288 
	C556.002441,723.953735 557.627686,723.810852 559.159424,723.354065 
	C568.236755,720.647034 577.388916,718.146423 586.336609,715.057129 
	C608.802795,707.300354 629.880188,696.787109 649.534729,682.053223 
M367.917755,282.825439 
	C362.627655,269.332062 352.518250,260.662415 339.966431,254.090805 
	C339.966431,265.598572 339.454865,276.556946 340.103760,287.446167 
	C340.817505,299.423920 348.093842,306.437958 359.102631,307.238098 
	C365.158813,307.678284 368.499542,305.408478 368.865601,299.408112 
	C369.184326,294.183289 368.370331,288.889313 367.917755,282.825439 
z"/>
<path fill="#020202" opacity="1.000000" stroke="none" 
	d="
M1001.518982,722.530457 
	C1036.280640,713.480103 1070.058716,701.949524 1100.498535,682.323608 
	C1125.602539,666.138000 1146.218018,645.751282 1158.732422,618.121277 
	C1166.097168,601.860901 1170.335815,584.707031 1170.672607,566.915039 
	C1171.205811,538.758118 1170.969116,510.585846 1170.988037,482.420013 
	C1171.019897,434.920135 1170.996704,387.420166 1170.996704,339.920258 
	C1170.996704,338.104828 1170.996826,336.289368 1170.996826,334.151764 
	C1176.265747,334.151764 1181.343140,334.151764 1186.751465,334.151764 
	C1186.852173,334.634094 1187.149048,335.392700 1187.148804,336.151215 
	C1187.127075,411.817169 1187.631714,487.488678 1186.863159,563.147278 
	C1186.270386,621.523987 1160.276733,666.512878 1111.236328,698.196594 
	C1077.018921,720.303345 1039.163940,732.815186 999.595398,741.031677 
	C956.815979,749.914734 913.474548,752.331726 869.955383,752.966003 
	C862.021729,753.081665 858.682556,750.360291 858.873108,744.215637 
	C859.023987,739.346558 861.556885,736.939575 867.735474,735.968872 
	C880.558472,733.954041 893.434143,732.239441 906.208069,729.954041 
	C945.135986,722.989380 982.604797,711.609131 1016.667053,690.993713 
	C1051.777832,669.743713 1075.810913,639.390869 1089.093750,600.511292 
	C1097.863770,574.840759 1100.981079,548.342224 1100.985718,521.380371 
	C1101.008667,385.047302 1101.066040,248.714081 1100.829834,112.381416 
	C1100.815186,103.892342 1099.007080,95.253624 1096.906860,86.970177 
	C1095.281738,80.560631 1089.888062,77.557823 1083.163208,77.515007 
	C1079.329956,77.490601 1075.494019,77.417786 1071.663696,77.526466 
	C1063.858398,77.747925 1058.653442,80.823112 1056.874878,88.392853 
	C1054.837524,97.063225 1053.390625,106.088623 1053.329590,114.971069 
	C1052.997437,163.302048 1053.076538,211.636749 1053.212402,259.969604 
	C1053.278564,283.471741 1043.421021,301.670380 1024.619995,315.262939 
	C1016.246216,321.316864 1006.626160,323.797241 996.399170,323.812408 
	C958.732727,323.868286 921.065674,323.735260 883.399597,323.869019 
	C855.069519,323.969604 833.500793,300.776550 828.210815,275.993622 
	C826.936707,270.024445 826.582031,263.764587 826.565491,257.636353 
	C826.436768,209.970108 826.586304,162.303009 826.398743,114.637161 
	C826.369446,107.202339 825.677490,99.651245 824.230469,92.364731 
	C820.832581,75.254433 807.018860,74.711792 795.014526,81.199722 
	C785.775574,86.193069 780.991089,95.181244 777.105408,104.517487 
	C769.079590,123.801544 765.534973,144.149399 764.275757,164.807983 
	C762.325562,196.805054 762.947327,228.768784 769.017639,260.390015 
	C771.216370,271.843201 774.207031,283.062439 780.559814,293.146393 
	C786.517883,302.603973 794.766602,307.331238 805.968018,306.837067 
	C807.455322,306.771454 808.948120,306.828033 810.720642,306.828033 
	C810.720642,312.393372 810.720642,317.817993 810.720642,323.556549 
	C793.533447,325.207001 779.338318,320.078949 769.135925,305.598358 
	C759.516174,291.944794 755.092224,276.297943 752.050781,260.187561 
	C746.234497,229.378525 745.511658,198.209229 747.247070,167.072678 
	C748.497864,144.629852 752.300659,122.418846 760.698059,101.312836 
	C764.728394,91.182915 769.952393,81.718719 777.814697,73.993614 
	C785.450012,66.491554 794.508972,61.812820 805.406250,61.862934 
	C816.363159,61.913326 827.510620,61.246525 838.230957,62.997559 
	C856.623962,66.001816 867.406921,78.277489 869.827393,96.688492 
	C870.562561,102.280472 870.943787,107.959679 870.953918,113.599899 
	C871.040100,161.599655 871.390930,209.604095 870.838989,257.597656 
	C870.564819,281.434723 887.978271,300.045715 906.238220,305.440002 
	C909.996643,306.550293 914.126404,306.750336 918.088013,306.769897 
	C941.754028,306.886810 965.436707,306.287384 989.083252,306.977325 
	C1013.621826,307.693298 1037.754395,281.995239 1037.389648,258.668335 
	C1036.636719,210.513519 1036.999146,162.337738 1037.287598,114.172890 
	C1037.353149,103.238800 1038.368896,92.216583 1040.073364,81.412590 
	C1041.767944,70.672028 1051.130493,62.444954 1061.916626,62.165787 
	C1081.059814,61.670319 1100.234619,61.644188 1119.376953,62.151215 
	C1130.813232,62.454132 1140.750488,71.357574 1142.876587,83.254211 
	C1144.682373,93.359497 1145.671509,103.743637 1145.712524,114.009621 
	C1145.961914,176.508514 1145.837036,239.008896 1145.837036,301.508789 
	C1145.837158,372.838470 1145.465088,444.170746 1145.958130,515.497009 
	C1146.333984,569.873413 1126.994995,616.221130 1091.308960,656.364502 
	C1066.941772,683.775085 1037.495605,704.348267 1004.477600,719.999390 
	C1003.432617,720.494751 1002.337891,720.885193 1000.787903,721.642700 
	C999.903015,722.102905 999.496582,722.244812 999.090149,722.386780 
	C999.109009,722.537048 999.127869,722.687317 999.146667,722.837585 
	C999.937439,722.735229 1000.728210,722.632812 1001.518982,722.530457 
z"/>
<path fill="#C57135" opacity="1.000000" stroke="none" 
	d="
M1668.423096,734.451172 
	C1649.486084,728.400513 1631.829834,734.126587 1614.074219,738.456848 
	C1598.562744,742.239929 1583.072021,746.109314 1567.557373,749.879761 
	C1546.572266,754.979736 1525.488037,752.806458 1504.449707,750.422546 
	C1490.665283,748.860596 1477.191284,745.763123 1464.678711,739.539429 
	C1444.096069,729.301575 1433.329102,711.991821 1429.497803,689.836060 
	C1425.645264,667.557312 1428.400391,646.941101 1444.967041,629.984680 
	C1453.923462,620.817322 1464.618408,614.131592 1476.267700,608.891968 
	C1517.353638,590.412415 1559.868530,587.176514 1603.078247,598.951538 
	C1619.499268,603.426392 1635.076416,611.101746 1650.857422,617.747498 
	C1654.774048,619.396912 1657.987061,622.717346 1661.523438,625.269653 
	C1661.295898,625.972168 1661.068237,626.674744 1660.840698,627.377319 
	C1657.298828,627.377319 1653.516235,628.194336 1650.257080,627.234436 
	C1636.853027,623.286621 1623.657349,618.638245 1610.294189,614.543335 
	C1584.388428,606.604858 1558.038330,603.788452 1531.441772,610.212952 
	C1508.332153,615.795227 1488.962646,627.415527 1478.526611,649.800659 
	C1468.155273,672.047363 1472.493896,707.647339 1495.602417,722.213379 
	C1507.634033,729.797119 1521.028076,732.688293 1534.928345,733.970581 
	C1554.218628,735.750061 1572.578613,730.664368 1591.085693,726.510132 
	C1606.989624,722.940308 1622.914307,719.442139 1638.897705,716.253235 
	C1652.727051,713.493896 1666.028564,717.254272 1679.253052,720.584290 
	C1694.421143,724.403748 1709.464722,728.715637 1724.626099,732.562805 
	C1738.153809,735.995300 1751.761475,737.020386 1765.653564,734.136719 
	C1790.421997,728.995117 1806.745972,714.527222 1812.788940,690.117981 
	C1815.752808,678.146790 1816.954712,665.452087 1816.972412,653.082031 
	C1817.228516,473.923401 1817.116455,294.764282 1817.230957,115.605370 
	C1817.237427,105.482300 1817.816162,95.271217 1819.235474,85.258011 
	C1821.396362,70.013275 1830.802490,61.484749 1846.277466,60.956326 
	C1864.247437,60.342716 1882.283203,60.009861 1900.231079,60.839764 
	C1920.029297,61.755238 1929.724365,72.184692 1930.906494,91.907883 
	C1931.454346,101.048073 1931.811035,110.215263 1931.813477,119.370323 
	C1931.864624,308.528870 1931.874146,497.687408 1931.810547,686.845947 
	C1931.805298,702.452026 1937.358521,715.762878 1947.271118,727.448486 
	C1952.162354,733.214478 1958.517456,736.095764 1966.172363,736.008484 
	C1972.293823,735.938660 1978.416626,735.994385 1984.750732,735.994385 
	C1984.750732,741.539856 1984.750732,746.609131 1984.750732,751.610352 
	C1966.555420,751.610352 1948.562378,752.446960 1930.689697,751.340149 
	C1916.898682,750.486145 1907.012451,741.531494 1899.210449,730.551758 
	C1889.839966,717.364502 1887.138916,702.316223 1887.139893,686.519714 
	C1887.152466,496.194550 1887.174438,305.869354 1887.056396,115.544258 
	C1887.051514,107.613838 1886.444580,99.526222 1884.800049,91.792206 
	C1882.480225,80.883575 1877.527100,77.617477 1866.411133,77.600548 
	C1861.578003,77.593185 1856.744507,77.640938 1851.911865,77.599136 
	C1844.838379,77.537971 1839.786377,81.051834 1837.931519,87.516876 
	C1835.980347,94.318199 1835.294800,101.500214 1834.303223,108.550606 
	C1833.911987,111.332352 1834.163940,114.207954 1834.163940,117.040817 
	C1834.159912,295.699829 1834.154541,474.358826 1834.170654,653.017822 
	C1834.172119,668.397461 1833.035400,683.610718 1828.612549,698.450623 
	C1819.722778,728.277832 1799.489380,745.105530 1769.295044,751.006165 
	C1749.925903,754.791382 1731.237427,752.024658 1712.620728,746.662964 
	C1698.067017,742.471375 1683.419800,738.604980 1668.423096,734.451172 
z"/>
<path fill="#020202" opacity="1.000000" stroke="none" 
	d="
M1563.163452,268.999908 
	C1563.163452,219.839340 1563.163574,171.178802 1563.163452,122.518272 
	C1563.163452,97.686241 1551.232300,82.203728 1526.590576,78.536995 
	C1502.976562,75.023193 1478.985596,75.751709 1455.394287,79.376709 
	C1437.263794,82.162613 1426.071411,96.180412 1425.359375,115.254349 
	C1424.768921,131.065216 1425.042480,146.909927 1425.013306,162.739777 
	C1424.971558,185.403519 1425.094238,208.068146 1424.907227,230.730408 
	C1424.878052,234.265945 1426.023682,236.018066 1429.120850,237.491882 
	C1443.021484,244.106445 1455.233154,252.944687 1463.699951,266.077881 
	C1472.110962,279.124817 1473.891113,293.452881 1469.783081,308.234680 
	C1466.759033,319.116272 1458.920898,324.313446 1446.815063,324.403687 
	C1427.627808,324.546753 1411.643799,315.518372 1409.858521,291.702087 
	C1408.826416,277.934052 1409.064697,264.064331 1408.953613,250.238617 
	C1408.928467,247.105865 1408.010376,245.832001 1404.924316,244.721054 
	C1382.986816,236.824036 1360.324097,233.041595 1336.666992,231.682770 
	C1336.666992,262.404297 1336.666992,292.807037 1336.666992,323.521637 
	C1321.653809,323.521637 1307.092041,323.521637 1291.828857,323.521637 
	C1291.828857,321.676270 1291.828857,319.760345 1291.828857,317.844391 
	C1291.828857,250.186249 1291.876221,182.528015 1291.755615,114.870102 
	C1291.743530,108.085960 1291.083740,101.246857 1290.055664,94.535706 
	C1288.923096,87.141350 1285.714722,80.299805 1277.899780,78.304939 
	C1269.323486,76.115753 1261.442139,78.884026 1255.007935,85.082207 
	C1246.847046,92.944038 1242.364502,102.940292 1239.025757,113.508179 
	C1231.529663,137.235779 1228.995239,161.673645 1228.897217,186.434891 
	C1228.788330,213.950668 1229.287964,241.475403 1236.190308,268.294861 
	C1238.480347,277.192780 1242.313477,285.885284 1246.679321,294.006012 
	C1251.541016,303.049347 1260.057617,307.104248 1270.444336,306.835266 
	C1272.262817,306.788147 1274.083618,306.828583 1276.203247,306.828583 
	C1276.203247,312.498962 1276.203247,317.901855 1276.203247,323.299469 
	C1256.227539,326.543671 1238.548950,316.546814 1228.744751,296.326477 
	C1219.601196,277.468170 1215.994995,257.183380 1214.015259,236.569901 
	C1211.285156,208.143204 1210.457275,179.642792 1214.187134,151.269974 
	C1217.272827,127.795853 1221.698730,104.544044 1234.923218,84.137619 
	C1243.777344,70.475212 1255.812378,61.891464 1272.643066,61.646687 
	C1281.461060,61.518436 1290.344727,61.198071 1299.094727,62.042358 
	C1319.127563,63.975330 1331.195068,75.262337 1334.816406,95.159042 
	C1336.000854,101.667076 1336.398438,108.392990 1336.432739,115.023018 
	C1336.594482,146.184906 1336.504761,177.348129 1336.504761,208.510864 
	C1336.504761,210.329041 1336.504761,212.147217 1336.504761,214.577103 
	C1361.333740,215.234070 1385.096069,220.417953 1408.828857,228.318604 
	C1408.828857,225.920868 1408.828857,224.140640 1408.828857,222.360428 
	C1408.828979,189.364578 1408.886597,156.368607 1408.810547,123.372940 
	C1408.753662,98.672768 1419.861328,80.381577 1440.570312,67.594193 
	C1447.541504,63.289646 1455.342163,61.621254 1463.477783,61.618572 
	C1493.804688,61.608574 1524.131714,61.723900 1554.458496,61.649933 
	C1583.298218,61.579597 1603.808838,85.618576 1607.014282,110.561302 
	C1607.648804,115.498924 1607.955688,120.512695 1607.961670,125.491875 
	C1608.026855,180.484863 1608.000732,235.477966 1608.008301,290.471039 
	C1608.008667,292.803040 1608.020996,295.139282 1608.153931,297.466309 
	C1608.595215,305.188385 1609.696167,306.260712 1617.383301,306.666077 
	C1625.070068,307.071472 1626.774170,305.703217 1627.703979,298.014435 
	C1628.002808,295.543640 1627.985718,293.025635 1627.986328,290.529175 
	C1628.000366,227.870407 1627.864990,165.211166 1628.090942,102.553207 
	C1628.147095,86.973145 1625.882935,72.682510 1612.078613,61.773407 
	C1614.463257,61.647224 1615.899170,61.505489 1617.334961,61.504929 
	C1649.497559,61.492352 1681.662598,61.264568 1713.822021,61.585423 
	C1731.920044,61.765984 1747.542603,67.743454 1757.361694,84.158638 
	C1763.428711,94.301437 1764.843872,105.739655 1765.627686,117.262329 
	C1765.819824,120.085350 1765.828003,122.924591 1765.828491,125.756393 
	C1765.838745,189.914978 1765.836548,254.073563 1765.836548,318.232147 
	C1765.836548,319.886017 1765.836548,321.539917 1765.836548,323.514771 
	C1750.963013,323.514771 1736.247803,323.514771 1720.997314,323.514771 
	C1720.997314,321.708282 1720.997314,319.931213 1720.997314,318.154114 
	C1720.997314,253.662247 1721.046143,189.170273 1720.917969,124.678658 
	C1720.905762,118.574478 1720.350830,112.349930 1719.064941,106.393471 
	C1715.788940,91.218346 1706.060547,82.022926 1690.743286,80.185158 
	C1675.753052,78.386604 1660.602905,77.920586 1645.002686,76.833405 
	C1645.002686,79.598793 1645.002686,81.396591 1645.002686,83.194389 
	C1645.002686,156.185196 1645.010620,229.175995 1644.981689,302.166809 
	C1644.980103,306.327271 1644.906738,310.512665 1644.458496,314.642151 
	C1643.794189,320.762848 1641.335815,323.231934 1635.128906,323.602417 
	C1628.817261,323.979218 1622.470459,323.872192 1616.140381,323.817932 
	C1602.317383,323.699402 1588.481079,323.798981 1574.678223,323.180817 
	C1566.548462,322.816742 1564.407959,320.863708 1564.004517,312.935638 
	C1563.268677,298.480255 1563.396118,283.980927 1563.163452,268.999908 
M1443.385742,267.121216 
	C1437.590332,262.571594 1431.794922,258.021942 1425.159546,252.812912 
	C1425.159546,264.847656 1424.866211,275.298340 1425.270142,285.721985 
	C1425.510620,291.922241 1427.462646,297.822662 1432.061523,302.454468 
	C1435.784668,306.204437 1445.838013,308.958282 1449.698486,306.794403 
	C1454.818481,303.924469 1455.017700,298.625275 1454.939575,293.606567 
	C1454.782227,283.503021 1450.804321,274.907410 1443.385742,267.121216 
z"/>
<path fill="#FCFCFC" opacity="1.000000" stroke="none" 
	d="
M649.243286,682.259399 
	C629.880188,696.787109 608.802795,707.300354 586.336609,715.057129 
	C577.388916,718.146423 568.236755,720.647034 559.159424,723.354065 
	C557.627686,723.810852 556.002441,723.953735 554.320496,723.920288 
	C576.337097,713.701050 596.458313,700.779541 614.479492,684.565491 
	C640.334839,661.302917 658.478699,633.127319 668.963257,599.994263 
	C677.177612,574.035339 680.277649,547.361755 680.179626,520.223999 
	C680.100220,498.230316 680.164062,476.236084 680.164368,454.242096 
	C680.164429,452.614166 680.164368,450.986267 680.164368,449.389130 
	C694.159485,448.560272 704.341919,456.234589 706.741455,469.390839 
	C707.543457,473.788300 707.928284,478.319672 707.948364,482.792358 
	C708.060364,507.785004 708.010498,532.778442 707.999756,557.771606 
	C707.987183,586.905090 702.526733,614.723999 687.440308,640.047668 
	C677.620117,656.531555 664.840454,670.461060 649.243286,682.259399 
z"/>
<path fill="#FAFAFA" opacity="1.000000" stroke="none" 
	d="
M367.987305,283.225677 
	C368.370331,288.889313 369.184326,294.183289 368.865601,299.408112 
	C368.499542,305.408478 365.158813,307.678284 359.102631,307.238098 
	C348.093842,306.437958 340.817505,299.423920 340.103760,287.446167 
	C339.454865,276.556946 339.966431,265.598572 339.966431,254.090805 
	C352.518250,260.662415 362.627655,269.332062 367.987305,283.225677 
z"/>
<path fill="#FFFFFF" opacity="1.000000" stroke="none" 
	d="
M1001.393677,722.391968 
	C1000.728210,722.632812 999.937439,722.735229 999.146667,722.837585 
	C999.127869,722.687317 999.109009,722.537048 999.090149,722.386780 
	C999.496582,722.244812 999.903015,722.102905 1000.653198,721.978882 
	C1000.996948,721.996826 1001.268311,722.253479 1001.393677,722.391968 
z"/>
<path fill="#FCFCFC" opacity="1.000000" stroke="none" 
	d="
M1443.635742,267.370728 
	C1450.804321,274.907410 1454.782227,283.503021 1454.939575,293.606567 
	C1455.017700,298.625275 1454.818481,303.924469 1449.698486,306.794403 
	C1445.838013,308.958282 1435.784668,306.204437 1432.061523,302.454468 
	C1427.462646,297.822662 1425.510620,291.922241 1425.270142,285.721985 
	C1424.866211,275.298340 1425.159546,264.847656 1425.159546,252.812912 
	C1431.794922,258.021942 1437.590332,262.571594 1443.635742,267.370728 
z"/>
</svg>