<svg version="1.1" id="Layer_1" xmlns="http://www.w3.org/2000/svg" xmlns:xlink="http://www.w3.org/1999/xlink" x="0px" y="0px"
	 width="100%" viewBox="0 0 2624 794" enable-background="new 0 0 2624 794" xml:space="preserve">
<path fill="#FFFFFF" opacity="1.000000" stroke="none" 
	d="
M1724.000000,1796.000000 
	C1149.398071,1796.000000 575.796265,1796.000000 2.097194,1796.000000 
	C2.097194,1198.132324 2.097194,600.264709 2.097194,2.198511 
	C876.435486,2.198511 1750.871094,2.198511 2625.653320,2.198511 
	C2625.653320,599.999817 2625.653320,1197.999878 2625.653320,1796.000000 
	C2325.597412,1796.000000 2025.298706,1796.000000 1724.000000,1796.000000 
M361.882111,165.685776 
	C368.393494,150.472992 363.259430,138.530731 348.842407,136.212830 
	C344.664642,135.541153 340.142273,135.821671 335.961823,136.624023 
	C328.852692,137.988495 324.787109,142.766403 324.232819,150.116394 
	C323.786194,156.039154 323.596039,162.050568 324.078949,167.958344 
	C324.863190,177.552322 334.622650,188.165909 344.032532,189.327454 
	C361.175049,191.443497 377.547333,190.388062 392.938477,180.385269 
	C405.393829,172.290451 413.027252,161.982635 415.864746,147.205780 
	C412.322052,145.451309 408.984161,143.798248 405.513672,142.079559 
	C397.302460,161.993500 382.157654,170.512100 361.961792,170.173737 
	C361.817535,169.196854 361.673279,168.219986 361.882111,165.685776 
M1696.004272,288.014862 
	C1699.458008,279.610382 1700.680054,270.562164 1693.987061,263.931458 
	C1687.314575,257.320892 1678.301392,256.647766 1668.900879,259.625580 
	C1664.261475,261.095154 1661.310547,263.075592 1659.834351,267.595032 
	C1656.641113,277.370728 1656.199951,287.139069 1660.110229,296.775055 
	C1662.718140,303.201752 1667.396851,308.384033 1673.864136,310.399506 
	C1686.114502,314.217163 1699.287842,314.240051 1711.196289,310.929535 
	C1721.678223,308.015594 1731.622437,301.561401 1739.270508,293.036438 
	C1745.249146,286.372345 1749.476196,278.718140 1749.587036,269.045441 
	C1746.144409,267.436554 1742.991211,265.962860 1739.870728,264.504486 
	C1730.152466,282.514526 1716.661255,293.662140 1695.896240,292.533966 
	C1695.836792,291.562439 1695.777344,290.590912 1696.004272,288.014862 
M2561.887207,287.705139 
	C2568.895996,269.787567 2559.775146,256.879425 2539.987305,258.214325 
	C2531.977539,258.754639 2525.750000,262.225891 2523.620361,270.019867 
	C2522.195801,275.233490 2522.800781,280.992767 2522.420410,286.502533 
	C2521.516602,299.608429 2533.421875,309.782959 2542.230469,311.306152 
	C2560.854248,314.526520 2579.365967,313.494446 2595.075684,301.001129 
	C2605.245605,292.913422 2614.825195,284.130890 2614.182373,268.766602 
	C2611.004639,267.189606 2607.940674,265.669250 2604.907715,264.164124 
	C2595.017578,281.619781 2582.801270,294.047607 2561.949463,292.290039 
	C2561.835693,291.273926 2561.721924,290.257812 2561.887207,287.705139 
M119.582863,46.211605 
	C112.411766,47.276562 112.286423,47.436962 111.947014,56.524662 
	C95.457024,75.326019 85.070084,96.951210 82.977921,121.994591 
	C82.123711,132.219559 82.422707,142.610886 83.081512,152.869736 
	C83.595215,160.869186 84.182655,169.284195 87.036201,176.620331 
	C92.041245,189.487686 100.180908,199.375549 115.958626,200.578781 
	C128.158188,201.509140 139.266800,198.370224 150.387009,194.625092 
	C160.783508,191.123703 170.903198,186.801254 181.296234,183.288422 
	C191.436966,179.860855 201.710358,177.911118 211.941177,183.489136 
	C217.810181,186.689041 223.757401,189.801483 229.883713,192.459305 
	C237.568436,195.793243 242.834854,200.840057 243.265854,209.008270 
	C255.546738,209.008270 267.018677,209.008270 278.647583,209.008270 
	C278.813477,206.638077 279.028076,204.995880 279.028748,203.353592 
	C279.045837,161.387054 279.070312,119.420464 278.999969,77.454048 
	C278.991608,72.468193 278.751862,67.442268 278.094330,62.504833 
	C274.881561,38.379795 260.130463,21.245222 236.352097,15.770451 
	C213.562500,10.523335 191.501694,12.549189 169.496964,18.912609 
	C151.264816,24.185051 135.978653,34.743416 119.582863,46.211605 
M2007.119751,422.693878 
	C1996.457153,422.714386 1985.794189,422.792847 1975.131958,422.739380 
	C1964.139893,422.684265 1953.136353,422.772003 1942.160889,422.280853 
	C1934.447754,421.935669 1932.281738,419.847473 1930.985962,412.251343 
	C1930.208130,407.690430 1930.081909,402.977539 1930.074829,398.332336 
	C1930.008545,355.346283 1930.210693,312.358612 1929.859131,269.375336 
	C1929.798218,261.937653 1927.815308,254.447510 1926.160034,247.107941 
	C1923.978516,237.434525 1917.308105,231.282196 1907.962891,229.498077 
	C1898.296387,227.652588 1888.274292,226.642685 1878.451660,226.906387 
	C1866.424561,227.229233 1855.398682,231.999222 1849.144409,242.703781 
	C1843.791382,251.865372 1840.122437,262.076019 1836.295654,272.047974 
	C1831.396851,284.813416 1831.969727,298.497284 1831.175049,311.817566 
	C1829.441284,340.876312 1829.642578,370.002136 1836.822388,398.421143 
	C1839.089722,407.395447 1843.645996,416.076385 1848.551880,424.029816 
	C1855.253052,434.894104 1869.169312,438.802032 1881.554688,434.807312 
	C1881.554688,431.189911 1881.554688,427.615540 1881.554688,423.669586 
	C1879.226196,423.314392 1877.286865,422.689514 1875.382812,422.783386 
	C1865.596191,423.265808 1859.752930,417.275818 1856.053223,409.659882 
	C1852.489380,402.323486 1849.470825,394.343781 1848.220459,386.333344 
	C1844.569580,362.943939 1843.144043,339.303162 1844.272461,315.631409 
	C1845.124512,297.757751 1847.256470,280.009979 1853.859497,263.126923 
	C1857.165771,254.673309 1861.433716,247.161331 1869.974487,242.703964 
	C1879.729736,237.612747 1884.510010,239.094849 1890.364380,248.226639 
	C1894.284424,254.340881 1894.195068,260.796936 1894.218750,267.382080 
	C1894.398071,317.028900 1894.470215,366.676086 1894.625977,416.322998 
	C1894.662231,427.904816 1900.684570,434.513855 1912.137085,435.560089 
	C1917.770752,436.074707 1923.435181,436.514191 1929.086670,436.527985 
	C1965.074829,436.615845 2001.063354,436.585510 2037.051758,436.558777 
	C2039.980713,436.556610 2042.909424,436.290375 2046.513306,436.113708 
	C2046.513306,431.411560 2046.513306,427.285370 2046.513306,425.304840 
	C2038.883301,420.144409 2032.484985,416.190063 2026.505859,411.679871 
	C2018.826416,405.887207 2011.854614,399.096344 2003.896484,393.749847 
	C1995.231445,387.928528 1985.232910,385.905365 1974.187744,386.953552 
	C1974.187744,391.514801 1974.187744,395.560425 1974.187744,399.741425 
	C1976.216431,399.940125 1977.517090,400.179535 1978.817139,400.177216 
	C1989.562988,400.157990 1997.654663,404.803925 2003.425415,413.820465 
	C2004.796509,415.962891 2006.689941,417.770935 2008.615967,421.103790 
	C2008.783691,421.538544 2008.951416,421.973297 2007.119751,422.693878 
M856.559204,241.613342 
	C857.050903,241.134811 857.542603,240.656265 859.876282,239.952637 
	C862.208191,239.970322 864.545837,240.102203 866.871033,239.985886 
	C876.846252,239.486862 886.628296,240.664185 895.979309,244.110062 
	C902.163879,246.389099 907.230042,249.920700 910.652893,256.283600 
	C914.536072,263.502197 916.057190,270.725922 916.032104,278.782166 
	C915.879944,327.753540 915.958435,376.725677 915.959900,425.697540 
	C915.960022,429.226471 915.959961,432.755371 915.959961,436.180725 
	C928.524170,436.180725 939.745972,436.180725 951.477173,436.180725 
	C951.627014,433.821045 951.855408,431.895081 951.856079,429.969025 
	C951.873840,378.998291 951.945557,328.027313 951.770996,277.057190 
	C951.748474,270.471649 951.213074,263.687042 949.562195,257.346954 
	C945.244324,240.765015 936.222107,231.622192 920.569824,228.328674 
	C913.507568,226.842667 906.087219,226.739594 898.819153,226.618118 
	C884.164978,226.373199 869.503906,226.545090 854.845642,226.545059 
	C846.314453,226.545029 837.783264,226.545059 827.176453,226.545059 
	C840.271667,238.786377 841.907837,252.776169 841.774231,267.856201 
	C841.363708,314.159302 841.627991,360.468353 841.615723,406.775085 
	C841.614929,409.771393 841.839600,412.825775 841.347778,415.750305 
	C840.619629,420.080536 838.233643,423.047272 833.281250,422.666870 
	C831.046448,422.495239 828.823975,422.162384 825.705200,421.798798 
	C825.705200,413.670654 825.705200,406.065552 825.705139,398.460449 
	C825.704895,358.816559 825.800110,319.172302 825.660767,279.528900 
	C825.599182,262.001190 820.731506,246.541565 806.177856,235.094238 
	C796.913574,227.807281 785.985168,227.115891 775.293274,226.748215 
	C754.995667,226.050232 734.650940,226.257462 714.337830,226.674362 
	C704.241882,226.881546 693.817017,227.798630 685.576965,234.544876 
	C675.047241,243.165726 666.683105,253.300888 666.591003,268.055939 
	C666.514160,280.373260 666.117004,292.688263 665.974976,305.005615 
	C665.771667,322.647461 665.671631,340.290527 664.100220,358.149323 
	C663.675049,358.374756 663.249878,358.600159 661.322083,358.597748 
	C643.979065,354.965973 626.636047,351.334167 608.207581,347.475098 
	C608.207581,337.529327 608.228638,326.608612 608.202820,315.688019 
	C608.160339,297.691254 608.952454,279.639069 607.803101,261.712189 
	C606.444885,240.529022 598.476379,232.361328 583.791565,228.550568 
	C575.922424,226.508514 567.354797,226.618927 559.109009,226.678192 
	C540.685547,226.810608 528.088867,236.448578 521.208557,252.947418 
	C515.103821,267.586548 511.257080,282.805481 509.950989,298.925751 
	C508.110931,321.636444 508.557770,344.183899 510.204834,366.810150 
	C510.515656,371.080109 509.413879,375.576324 510.343781,379.653412 
	C512.638794,389.715790 514.991333,399.879578 518.663696,409.489410 
	C526.335388,429.564850 537.635193,439.352264 559.502441,435.705078 
	C559.502441,431.620544 559.502441,427.557556 559.502441,422.765961 
	C545.639282,424.887909 537.563416,417.885834 532.356567,406.879272 
	C530.272278,402.473541 528.943115,397.609802 527.929443,392.815186 
	C522.108704,365.284943 520.817505,337.429352 522.999268,309.442139 
	C524.075378,295.637268 525.350037,281.781982 529.964844,268.546143 
	C533.129089,259.470734 536.808289,250.694427 544.499573,244.323639 
	C553.201172,237.115997 561.685852,239.049255 568.365417,248.313995 
	C572.992371,254.731689 572.184204,261.517151 572.204224,268.283936 
	C572.359253,320.610077 572.292725,372.936920 572.294800,425.263519 
	C572.294922,428.828369 572.294800,432.393219 572.294800,435.953430 
	C584.876221,435.953430 596.316833,435.953430 608.421143,435.953430 
	C608.421143,411.372589 608.421143,387.480499 608.421143,362.306427 
	C628.118347,366.357605 646.896545,370.219757 666.215088,374.193024 
	C666.215088,387.632690 666.116394,399.904205 666.289795,412.171875 
	C666.329346,414.971741 666.827942,417.967041 667.934814,420.516602 
	C674.416931,435.447357 686.305603,440.934631 702.168457,436.946594 
	C706.562317,435.841888 709.439270,433.560364 711.949402,429.811432 
	C720.184021,417.513184 716.438110,396.880096 705.582581,384.788696 
	C698.392883,376.780396 689.276672,371.622925 679.055969,366.550873 
	C679.055969,363.720734 679.056274,360.777344 679.055969,357.833923 
	C679.053162,332.170563 679.003540,306.507050 679.085571,280.843964 
	C679.102600,275.520203 679.258484,270.151184 679.964844,264.885437 
	C681.217529,255.546158 685.752136,247.371231 694.541443,244.140823 
	C713.685730,237.104660 733.766479,238.924545 753.624512,240.502411 
	C757.927002,240.844299 762.362000,241.845306 766.332703,243.506454 
	C772.734985,246.184799 781.090698,247.379883 783.637817,254.621201 
	C786.588379,263.009521 790.130371,271.221252 790.022766,280.822754 
	C789.507080,326.811035 789.746216,372.808472 789.857666,418.802277 
	C789.871033,424.331726 790.737549,429.859100 791.316345,436.650879 
	C807.032288,436.650879 821.656677,436.654388 836.281006,436.650024 
	C854.865845,436.644440 855.021423,436.542236 855.032166,417.652740 
	C855.063538,362.659790 855.035645,307.666870 855.066406,252.673950 
	C855.068420,249.026016 855.367249,245.378265 856.559204,241.613342 
M1353.841309,239.911606 
	C1361.505615,239.912155 1369.174561,240.082413 1376.833130,239.872314 
	C1387.505005,239.579559 1395.752075,244.623032 1403.048096,251.584854 
	C1404.776733,253.234436 1405.516357,255.933899 1406.668213,258.172363 
	C1411.155640,266.892822 1411.449585,276.261932 1411.419678,285.828979 
	C1411.274292,332.488556 1411.354004,379.148865 1411.354004,425.808899 
	C1411.354004,429.310638 1411.353882,432.812408 1411.353882,436.034363 
	C1424.007202,436.034363 1435.198486,436.034363 1446.709351,436.034363 
	C1446.838745,433.495117 1447.023926,431.547302 1447.024536,429.599426 
	C1447.040161,379.606506 1447.063232,329.613586 1446.997314,279.620758 
	C1446.990234,274.298401 1446.839966,268.918823 1446.072876,263.665588 
	C1443.731323,247.631454 1436.834351,234.572128 1420.136719,229.791458 
	C1412.921509,227.725708 1405.171875,226.824341 1397.642212,226.691635 
	C1375.318848,226.298203 1352.984375,226.531052 1330.654297,226.582184 
	C1328.574707,226.586960 1326.496338,227.039825 1323.856323,227.350677 
	C1333.406494,238.221664 1337.220825,252.412979 1337.083618,264.992249 
	C1336.720215,298.316895 1336.961304,331.648102 1336.959839,364.976715 
	C1336.959229,379.641296 1337.142334,394.310028 1336.820068,408.967560 
	C1336.737671,412.714600 1335.699097,416.797760 1333.858276,420.016357 
	C1332.737183,421.976532 1329.195923,423.622314 1326.826172,423.516571 
	C1324.116943,423.395691 1321.364502,421.489319 1321.479736,417.576355 
	C1321.597168,413.593170 1321.065796,409.595184 1321.062256,405.603455 
	C1321.026001,364.942596 1321.066650,324.281647 1321.004639,283.620850 
	C1320.997070,278.634064 1320.773560,273.617889 1320.198853,268.667694 
	C1318.862305,257.154083 1314.060181,247.347885 1305.891235,238.941574 
	C1295.737183,228.492462 1282.703857,226.820084 1269.437134,226.666656 
	C1238.112427,226.304428 1206.780029,226.447571 1175.452271,226.640274 
	C1169.187256,226.678802 1162.842041,227.395340 1156.685669,228.585403 
	C1143.171265,231.197830 1131.848267,245.879852 1132.158447,259.431610 
	C1132.439575,271.718567 1133.318970,284.078278 1132.334595,296.276825 
	C1131.696899,304.180389 1133.780518,311.043396 1136.823486,317.540527 
	C1140.955444,326.362213 1148.106689,332.710999 1158.423828,333.187469 
	C1174.384766,333.924591 1190.387451,333.744354 1206.351074,334.441193 
	C1227.981079,335.385345 1234.596558,346.000214 1236.942871,362.935547 
	C1238.392090,373.395721 1238.344116,384.378265 1236.923096,394.848724 
	C1234.682983,411.353577 1227.712646,422.716461 1207.143066,422.876587 
	C1184.480835,423.053009 1161.816406,422.947540 1139.152954,422.905121 
	C1136.161255,422.899506 1133.158447,422.650330 1130.181152,422.326202 
	C1120.287476,421.249176 1112.322998,416.532074 1108.520996,407.400848 
	C1105.924561,401.164734 1104.458374,394.008057 1104.390259,387.243805 
	C1104.008423,349.253021 1104.211670,311.256409 1104.192871,273.261810 
	C1104.190674,268.930328 1104.476929,264.540710 1103.897949,260.277374 
	C1101.230835,240.642365 1094.771729,231.908157 1079.352905,228.571198 
	C1069.219604,226.378159 1058.640137,225.763596 1047.824463,227.598343 
	C1037.208374,229.399231 1029.319336,234.195801 1023.351990,242.375320 
	C1014.934875,253.912582 1011.072266,267.554138 1008.264404,281.245392 
	C1006.181458,291.401917 1005.232910,301.947113 1005.163940,312.328339 
	C1005.015869,334.592621 1004.922058,356.922943 1006.506714,379.104736 
	C1007.274963,389.858612 1010.716064,400.834991 1014.993347,410.835449 
	C1022.992798,429.538269 1033.394043,439.743286 1055.728149,435.396515 
	C1055.728149,431.534149 1055.728149,427.677185 1055.728149,423.373932 
	C1053.354980,423.183990 1051.414062,422.882996 1049.476074,422.900208 
	C1043.085327,422.957092 1038.363281,420.227600 1033.998047,415.521118 
	C1028.070557,409.130219 1025.801147,401.190399 1024.086060,393.339020 
	C1018.013733,365.540253 1016.713501,337.326599 1019.051147,308.998199 
	C1020.162781,295.527679 1021.377869,282.027985 1025.868896,269.079834 
	C1029.023926,259.983398 1032.563354,251.195511 1040.064697,244.668427 
	C1048.837402,237.035110 1057.827393,238.962204 1064.521606,248.302948 
	C1068.951538,254.484192 1068.137817,260.882874 1068.190308,267.281097 
	C1068.543457,310.266724 1068.902710,353.257355 1068.517212,396.239655 
	C1068.443481,404.473846 1070.485962,411.620850 1074.420044,418.037811 
	C1080.767334,428.391083 1088.892090,436.338898 1102.781982,436.233215 
	C1136.432983,435.977203 1170.089722,436.521088 1203.744385,436.594513 
	C1210.392456,436.609039 1217.047974,436.045380 1223.686523,435.560852 
	C1225.496338,435.428741 1227.350342,434.824951 1229.024780,434.079834 
	C1242.563721,428.054871 1249.107544,416.709503 1249.975586,402.761749 
	C1250.967041,386.832794 1250.889893,370.755829 1250.005371,354.813721 
	C1249.053833,337.665314 1240.312622,327.720703 1223.632446,323.215332 
	C1218.601440,321.856445 1213.143066,321.884338 1207.864746,321.675507 
	C1193.904297,321.123199 1179.935669,320.780426 1165.969727,320.371033 
	C1156.691650,320.099030 1148.852661,311.920929 1147.528687,302.876709 
	C1145.344360,287.955963 1145.054321,273.082153 1147.647827,258.229645 
	C1149.230347,249.166534 1154.969971,243.648361 1163.761353,241.456009 
	C1167.279663,240.578629 1170.972168,239.997894 1174.588745,239.980270 
	C1199.917603,239.856888 1225.247314,239.885254 1250.576782,239.931671 
	C1261.312134,239.951355 1269.972290,244.816223 1277.471680,252.036270 
	C1278.812378,253.326996 1280.011108,255.069107 1280.560669,256.826263 
	C1283.270752,265.489807 1285.597778,274.073822 1285.519165,283.463104 
	C1285.148560,327.787079 1285.309814,372.115906 1285.405884,416.442749 
	C1285.419312,422.645386 1286.122192,428.846527 1286.586182,436.344696 
	C1306.232544,436.344696 1324.816162,436.409424 1343.398682,436.292053 
	C1347.284912,436.267548 1349.469727,433.791931 1349.755493,429.934845 
	C1349.952271,427.281647 1349.864990,424.605713 1349.865234,421.939941 
	C1349.869751,365.614594 1349.861084,309.289246 1349.886475,252.963913 
	C1349.888062,249.310425 1350.144653,245.657059 1351.048584,241.646606 
	C1351.526855,241.304642 1351.845337,240.850601 1353.841309,239.911606 
M2121.800049,763.019775 
	C2135.026367,749.499512 2144.466553,733.924011 2148.918701,715.316040 
	C2152.124023,701.921387 2152.771240,688.379761 2152.824463,674.752625 
	C2153.008301,627.756592 2153.140625,580.760193 2153.155762,533.763977 
	C2153.157471,528.518250 2154.157471,524.332886 2158.252441,520.462524 
	C2171.936279,507.529480 2182.177246,492.181915 2188.459473,474.341431 
	C2193.187500,460.915039 2196.258789,447.219421 2195.529053,432.432556 
	C2191.422607,432.432556 2188.230225,432.432556 2184.821289,432.432556 
	C2181.454102,454.126678 2170.379395,470.983856 2153.538818,485.963226 
	C2153.295898,475.277740 2152.891846,465.470306 2152.880371,455.662384 
	C2152.816895,401.663391 2152.865234,347.664276 2152.825684,293.665253 
	C2152.821777,288.337952 2152.674805,282.996155 2152.266357,277.686279 
	C2150.542725,255.284958 2135.914795,236.733322 2114.381836,230.184906 
	C2108.426025,228.373703 2102.097168,227.131760 2095.894531,226.915436 
	C2078.048096,226.293015 2060.493896,227.185440 2048.084473,243.071930 
	C2046.978027,244.488174 2045.150269,245.340698 2044.359131,245.931229 
	C2037.829590,241.081436 2032.456177,235.813568 2026.046143,232.637680 
	C2017.107178,228.208817 2007.010864,226.374130 1997.063232,226.803146 
	C1986.652954,227.252090 1976.027588,227.959595 1966.820679,234.185776 
	C1953.210938,243.389374 1946.357178,265.695496 1951.866089,283.299957 
	C1955.770752,283.299957 1959.600342,283.299957 1963.678345,283.299957 
	C1963.887573,279.294312 1963.926758,275.983398 1964.257690,272.701935 
	C1965.218506,263.170197 1968.357544,254.628189 1975.793213,248.104553 
	C1984.444458,240.514343 1995.054077,237.019516 2005.338623,241.278290 
	C2017.453369,246.294998 2028.342285,254.139633 2033.224609,267.716797 
	C2035.143311,273.052185 2037.988037,278.054565 2040.689453,283.800781 
	C2044.802246,276.412811 2048.092285,269.502319 2052.312988,263.216736 
	C2056.163574,257.481628 2060.272949,251.484955 2065.579102,247.243988 
	C2081.283936,234.691864 2102.798096,237.465820 2111.974365,257.317993 
	C2116.258057,266.585968 2117.527344,276.665192 2117.505127,286.973633 
	C2117.377441,345.972351 2117.451172,404.971466 2117.437744,463.970459 
	C2117.434814,476.636078 2117.172119,489.304779 2117.385498,501.966064 
	C2117.496582,508.554016 2114.586182,512.425964 2108.560059,514.435608 
	C2098.700439,517.723389 2088.628418,520.520142 2079.075195,524.543335 
	C2067.892334,529.252747 2056.226807,531.151123 2044.394287,532.130615 
	C2026.153442,533.640747 2007.795044,533.891296 1989.601318,535.780762 
	C1942.029907,540.721191 1901.790283,559.758057 1872.692871,598.998230 
	C1862.687866,612.490479 1855.908447,627.429504 1852.351807,644.021912 
	C1850.158936,654.252686 1847.904175,664.289551 1848.263062,674.850708 
	C1848.393188,678.675903 1846.083252,682.637207 1846.435425,686.391052 
	C1847.222534,694.779602 1849.403931,703.033752 1850.261230,711.419983 
	C1852.133057,729.729980 1860.791260,744.882141 1872.162476,758.561890 
	C1878.196777,765.821411 1886.102661,771.079651 1895.292603,774.257446 
	C1913.125610,780.424011 1930.711914,779.600342 1948.445557,773.725586 
	C1963.837769,768.626465 1979.328247,763.775574 1994.953125,759.457947 
	C1999.547363,758.188416 2005.125000,757.893311 2009.591675,759.279358 
	C2019.144409,762.243591 2028.446045,766.212280 2037.528076,770.458801 
	C2059.167236,780.576843 2081.175537,781.387634 2103.411865,773.340515 
	C2109.490723,771.140625 2114.882568,767.042847 2121.800049,763.019775 
M1488.122681,335.000000 
	C1488.122681,454.665619 1488.126221,574.331238 1488.111450,693.996887 
	C1488.110718,699.995361 1488.125122,706.002563 1487.825684,711.990417 
	C1487.213501,724.236328 1483.120117,735.574768 1476.329834,745.501221 
	C1462.757812,765.341675 1440.968384,768.916626 1420.236694,765.302673 
	C1403.800781,762.437622 1387.786011,757.186035 1371.551636,753.123840 
	C1362.897583,750.958252 1354.158081,748.725830 1345.152100,750.520752 
	C1334.829956,752.577881 1324.622803,755.225830 1314.281738,757.170471 
	C1294.950806,760.805481 1276.245117,767.449890 1255.750488,764.373108 
	C1221.581299,759.243347 1207.408325,735.610901 1215.500000,703.046326 
	C1221.166626,680.241028 1240.149292,671.311462 1260.515503,665.960388 
	C1285.462891,659.405579 1309.551514,664.838745 1332.917114,674.200317 
	C1342.279907,677.951538 1351.618774,681.313965 1364.604370,679.034973 
	C1360.201172,675.809570 1357.686157,673.467529 1354.750488,671.926575 
	C1349.526978,669.184692 1344.140503,666.698792 1338.661133,664.508545 
	C1317.950439,656.229736 1296.640381,650.654114 1274.101196,651.792847 
	C1265.496338,652.227600 1256.804321,652.785156 1248.372314,654.421387 
	C1230.190430,657.949463 1212.636108,663.637634 1197.353394,674.481018 
	C1189.249512,680.230957 1180.688721,687.357544 1179.082764,697.060059 
	C1176.484009,712.760010 1175.367798,728.700500 1181.820068,744.600647 
	C1188.862549,761.954956 1201.931396,771.273438 1218.638184,775.506348 
	C1230.545166,778.523315 1243.208008,778.715393 1255.568359,779.752014 
	C1280.565186,781.848145 1304.073242,774.244507 1327.682251,767.868286 
	C1338.567261,764.928528 1349.595703,761.609741 1360.589233,764.125305 
	C1376.494995,767.764893 1391.866577,773.691345 1407.717285,777.631775 
	C1424.476074,781.797852 1441.688599,781.194275 1458.164795,776.563049 
	C1476.678223,771.359314 1489.489014,758.841675 1495.865601,740.480164 
	C1500.567749,726.940491 1501.921509,712.850769 1501.915039,698.540222 
	C1501.851074,556.874878 1501.868042,415.209503 1501.910034,273.544159 
	C1501.911743,267.556824 1501.847412,261.488373 1502.742676,255.598846 
	C1504.743408,242.437561 1507.945557,239.947449 1521.066162,239.886444 
	C1523.732666,239.874039 1526.450195,240.223328 1529.055176,239.824860 
	C1533.903320,239.083267 1536.910522,242.090240 1538.585449,245.434952 
	C1541.274536,250.805130 1544.821045,256.015472 1544.121704,262.720398 
	C1543.606323,267.662415 1544.117798,272.708282 1544.118042,277.707855 
	C1544.123779,426.039825 1544.092896,574.371765 1544.199219,722.703674 
	C1544.205444,731.426270 1543.546997,740.223450 1546.399170,748.847229 
	C1549.788208,759.094116 1555.531860,767.460266 1563.793945,774.307251 
	C1570.724243,780.050476 1578.946899,779.674072 1587.116455,779.703430 
	C1598.692871,779.744995 1610.269653,779.713989 1621.839600,779.713989 
	C1621.839600,774.735107 1621.839600,770.883545 1621.839600,766.282776 
	C1618.048828,766.282776 1614.741089,765.951599 1611.520508,766.341309 
	C1599.067383,767.848450 1591.703247,761.198669 1586.083618,751.211243 
	C1581.191650,742.517456 1579.969971,733.225037 1579.976440,723.403564 
	C1580.074585,574.405029 1580.045898,425.406372 1580.039307,276.407745 
	C1580.039062,270.741455 1580.272339,265.051392 1579.838379,259.415405 
	C1579.382812,253.498932 1578.808350,247.487244 1577.293701,241.780487 
	C1574.848511,232.567520 1565.453003,226.566193 1553.037842,226.244431 
	C1539.714844,225.899139 1526.372925,226.075134 1513.044067,226.300583 
	C1509.810181,226.355301 1506.552368,227.335968 1503.378784,228.169724 
	C1494.881470,230.402100 1487.989258,239.593643 1488.013550,248.110245 
	C1488.094360,276.406708 1488.092651,304.703400 1488.122681,335.000000 
M345.449127,415.668671 
	C345.000610,416.892303 344.786469,418.281036 344.061646,419.310028 
	C341.405273,423.081207 337.623596,423.786438 333.492065,422.414429 
	C329.382874,421.049866 329.800873,417.367523 329.736328,414.052643 
	C329.684418,411.387268 329.700684,408.720428 329.700562,406.054230 
	C329.698639,364.727295 329.773926,323.400085 329.618774,282.073730 
	C329.595276,275.810638 329.263245,269.362000 327.758942,263.326965 
	C323.626007,246.746338 314.933594,233.553604 297.284363,229.061295 
	C290.639313,227.369934 283.576508,226.716461 276.695374,226.660019 
	C246.368774,226.411194 216.038040,226.424591 185.711060,226.649933 
	C178.780243,226.701431 171.767593,227.492538 164.952087,228.784576 
	C152.039764,231.232437 142.693100,242.172318 142.409332,255.553940 
	C142.049728,272.511169 142.431732,289.483521 142.442780,306.449402 
	C142.450195,317.832275 148.774994,325.065521 157.825500,330.805969 
	C165.092346,335.415131 173.185272,333.879211 180.922394,334.225281 
	C193.562790,334.790619 206.270782,333.958649 218.899246,334.649231 
	C236.560394,335.615021 244.844391,344.182831 245.598511,361.846588 
	C246.081360,373.156189 245.761688,384.504333 245.623871,395.833008 
	C245.591904,398.460632 244.994980,401.117462 244.383560,403.695740 
	C241.735504,414.862366 235.143097,420.917664 223.808838,422.362457 
	C219.858398,422.866028 215.830765,422.900238 211.837769,422.910858 
	C192.174286,422.963104 172.477036,422.208588 152.855209,423.114380 
	C126.581566,424.327240 112.181305,411.809296 112.834175,383.492554 
	C113.671303,347.184174 113.074455,310.841736 112.996719,274.514221 
	C112.984619,268.860809 112.981277,263.118591 112.047035,257.573608 
	C109.796822,244.217987 104.566513,232.136978 89.995750,228.905670 
	C80.423149,226.782791 70.217682,226.688248 60.333813,226.979858 
	C43.818779,227.467102 33.532978,237.476532 26.329657,251.452667 
	C21.364876,261.085510 19.808207,271.639740 17.802837,282.055725 
	C11.238244,316.152557 12.266561,350.316101 17.432014,384.455566 
	C19.338661,397.056915 23.049385,409.136993 29.877384,420.032257 
	C38.169712,433.264160 49.825603,438.368500 64.535797,435.336792 
	C64.535797,431.513000 64.535797,427.669525 64.535797,423.518982 
	C62.807156,423.283569 61.533283,422.924286 60.273243,422.967560 
	C49.024170,423.354065 42.150448,417.185669 38.096058,407.556213 
	C35.533199,401.469238 33.265533,395.112335 31.989058,388.654419 
	C26.197893,359.356049 25.288420,329.740570 28.417114,300.115997 
	C29.950987,285.592285 32.293655,270.900299 39.516293,257.890991 
	C42.646564,252.252792 46.954414,246.512558 52.180431,242.950500 
	C63.182804,235.451279 73.515579,240.300522 75.763260,253.359253 
	C76.886864,259.887207 77.265518,266.611511 77.289185,273.249451 
	C77.428192,312.242920 77.095284,351.239563 77.451363,390.230316 
	C77.737518,421.563477 93.308731,436.604248 124.449089,436.636841 
	C153.777847,436.667572 183.106674,436.660400 212.435440,436.626251 
	C217.097549,436.620819 221.769730,436.540009 226.419495,436.228729 
	C241.876114,435.194153 251.841736,427.361298 256.483582,412.399536 
	C260.559814,399.260773 260.268585,358.478455 256.301270,345.239563 
	C251.755295,330.069672 241.084824,323.285858 226.298523,322.020264 
	C218.021393,321.311768 209.644302,321.854401 201.319641,321.595673 
	C192.350861,321.316956 183.327682,321.276520 174.443146,320.191376 
	C163.938370,318.908295 157.018677,312.049438 156.217697,301.881134 
	C155.100113,287.693542 155.283875,273.305298 156.222153,259.089508 
	C156.816269,250.088257 163.056366,243.960800 171.896149,241.649078 
	C176.653610,240.404953 181.738403,239.994232 186.681839,239.952225 
	C207.677078,239.773773 228.674713,239.860886 249.671432,239.882721 
	C254.336075,239.887573 259.019775,239.777267 263.661499,240.142349 
	C276.559021,241.156708 285.685364,246.693115 290.387634,259.775513 
	C293.041046,267.157745 293.788513,274.316254 293.790924,281.833740 
	C293.805542,327.493347 293.762756,373.152985 293.849976,418.812439 
	C293.860535,424.331055 294.537140,429.848419 294.990112,436.642395 
	C311.914948,436.642395 327.534790,436.663788 343.154572,436.636261 
	C358.144501,436.609802 358.333038,436.501465 358.345215,421.640747 
	C358.391663,364.982880 358.367035,308.324951 358.368927,251.667068 
	C358.369049,248.076599 358.368958,244.486145 358.368958,239.900940 
	C367.768860,239.900940 376.364044,240.353378 384.890106,239.779175 
	C394.218597,239.150940 401.737793,243.337677 408.257660,248.624878 
	C416.778870,255.535110 420.049500,265.367981 420.017761,276.495758 
	C419.876038,326.154297 419.962250,375.813538 419.966064,425.472504 
	C419.966339,429.024719 419.966064,432.576904 419.966064,436.548859 
	C432.611023,436.646942 444.048309,436.759796 455.153229,436.533936 
	C455.572266,434.415497 455.807343,433.781433 455.807617,433.147247 
	C455.831482,380.489136 456.001984,327.829926 455.663940,275.174042 
	C455.613983,267.393890 453.970001,259.366608 451.582245,251.929245 
	C449.057709,244.065689 444.020935,237.747177 436.438110,233.149414 
	C427.106323,227.491211 416.953156,226.935333 406.854462,226.712463 
	C384.202332,226.212540 361.531586,226.554764 338.868439,226.554108 
	C337.006042,226.554062 335.143616,226.554123 331.196198,226.554123 
	C344.294006,238.794678 345.907471,252.795013 345.778961,267.876740 
	C345.364319,316.532288 345.595428,365.193390 345.449127,415.668671 
M2294.830078,243.077103 
	C2299.065918,242.217361 2303.273193,240.815475 2307.542725,240.589264 
	C2328.981689,239.453369 2342.100342,247.997787 2344.895752,267.958130 
	C2346.346924,278.319305 2346.212402,289.328735 2344.405273,299.626129 
	C2341.211914,317.821716 2332.424805,324.161865 2313.824219,324.449677 
	C2306.897217,324.556885 2299.967041,324.467010 2292.594727,324.467010 
	C2292.594727,329.286987 2292.594727,333.052368 2292.594727,337.839355 
	C2301.458740,337.839355 2309.736816,337.567780 2317.990234,337.901642 
	C2331.053223,338.430115 2339.040527,344.607758 2343.206299,356.912506 
	C2346.923828,367.894379 2347.432861,379.267334 2345.567383,390.511688 
	C2343.200684,404.777161 2335.232666,415.110931 2320.811768,418.932220 
	C2295.354004,425.677979 2272.232666,421.340240 2254.023193,401.414551 
	C2246.723145,393.426270 2240.756104,383.882172 2235.708984,374.246582 
	C2226.643066,356.938934 2222.789307,337.913940 2220.655029,318.614441 
	C2216.318848,279.405457 2223.420898,242.982010 2247.503418,210.804672 
	C2262.121094,191.273483 2280.215576,176.770142 2304.486572,171.140228 
	C2336.871338,163.628235 2363.884277,171.788956 2383.955322,199.035919 
	C2388.025879,204.561630 2390.963379,210.967087 2394.085449,217.137924 
	C2404.256348,237.241028 2409.720459,258.498627 2409.675781,281.139709 
	C2409.590332,324.468964 2409.645752,367.798553 2409.653564,411.127991 
	C2409.663330,464.789764 2409.627197,518.451660 2409.733398,572.113281 
	C2409.766357,588.763428 2410.196045,605.367126 2416.399658,621.257935 
	C2422.214111,636.151550 2431.001709,648.090759 2445.495361,655.862366 
	C2461.071289,664.214478 2477.405518,660.589172 2494.215332,661.588867 
	C2494.215332,656.647095 2494.215332,652.828552 2494.215332,647.749084 
	C2488.080078,647.749084 2482.156006,648.007996 2476.262451,647.693420 
	C2465.103516,647.097839 2455.731934,643.296021 2449.663818,633.006409 
	C2445.337646,625.670837 2445.531250,617.807922 2445.530029,609.869385 
	C2445.513428,501.212463 2445.621826,392.555298 2445.366699,283.898987 
	C2445.339600,272.356323 2443.913086,260.696777 2441.924805,249.302795 
	C2437.116455,221.747162 2422.300293,199.923676 2401.127930,182.238525 
	C2374.450684,159.955063 2343.674805,151.439911 2309.329102,156.123276 
	C2292.199219,158.459076 2276.471680,164.689072 2262.324707,174.749481 
	C2243.831543,187.900787 2230.813477,205.883545 2220.806152,225.607330 
	C2212.330322,242.312408 2206.152100,260.258118 2206.265381,279.624542 
	C2206.354980,294.931519 2205.123047,310.324432 2206.389404,325.519836 
	C2207.286377,336.282257 2211.283936,346.802277 2214.055176,357.389191 
	C2219.989990,380.062714 2231.182617,399.853912 2247.663574,416.462189 
	C2258.873779,427.759094 2273.309082,434.502655 2288.614502,435.384827 
	C2304.663330,436.309814 2321.109619,434.120544 2337.082764,431.480469 
	C2351.941406,429.024567 2365.794922,422.775391 2373.638184,408.733368 
	C2377.270264,402.231262 2380.408447,394.789825 2381.201904,387.494873 
	C2383.249023,368.670441 2378.852539,351.757355 2361.586426,340.772278 
	C2356.041260,337.244415 2350.130615,334.291229 2343.993164,330.854462 
	C2346.275146,329.784180 2348.187744,328.573853 2350.275391,327.957367 
	C2368.311768,322.631195 2379.086426,311.060852 2381.256104,292.099640 
	C2383.549561,272.057373 2379.443359,253.721161 2362.319580,241.623215 
	C2338.708252,224.941986 2312.315186,221.988907 2285.246826,231.975647 
	C2268.463623,238.167755 2259.395508,251.732819 2254.774170,269.165710 
	C2258.075684,270.245422 2260.543701,271.183624 2263.086182,271.826904 
	C2264.298584,272.133667 2265.653076,271.879669 2266.834473,271.879669 
	C2277.222656,252.078247 2279.824707,249.318436 2294.830078,243.077103 
M2524.313232,381.957428 
	C2528.218018,391.043304 2534.884766,397.778687 2544.575439,398.992767 
	C2555.555664,400.368378 2567.029053,401.714294 2577.665771,396.733978 
	C2585.067383,393.268402 2593.236328,390.346436 2599.142090,385.043091 
	C2607.577148,377.468109 2615.188721,368.375427 2614.041260,355.679077 
	C2605.772705,351.385162 2606.241211,351.779083 2601.148926,357.834839 
	C2595.936523,364.033997 2590.352051,370.371948 2583.693359,374.781067 
	C2576.599121,379.478668 2567.929443,381.323303 2557.697754,380.550110 
	C2559.575439,377.633698 2560.859131,375.944275 2561.824463,374.089325 
	C2566.514893,365.078217 2564.257080,353.932739 2557.132324,348.926361 
	C2550.903809,344.549744 2531.274170,343.891357 2526.488037,351.142487 
	C2525.604980,352.480621 2524.826416,353.941895 2524.297607,355.450836 
	C2521.404297,363.710602 2521.564453,372.071106 2524.313232,381.957428 
M1733.742920,384.838165 
	C1742.469360,377.601929 1748.112549,368.610474 1749.825439,357.090973 
	C1748.692993,356.105103 1747.821777,355.038849 1746.702759,354.422913 
	C1740.005859,350.736877 1739.777344,351.321838 1735.387817,357.952393 
	C1731.973999,363.109344 1727.680542,368.002808 1722.839966,371.825714 
	C1714.514526,378.400665 1704.838623,381.756805 1692.795898,380.370911 
	C1694.437500,377.891998 1695.794678,376.443207 1696.468994,374.726257 
	C1700.546875,364.342743 1699.333252,353.417633 1691.306030,348.901855 
	C1683.017578,344.239075 1674.094116,344.250031 1665.573486,348.283356 
	C1661.010620,350.443146 1657.732788,354.036133 1658.068726,359.958435 
	C1658.369141,365.252197 1657.760498,370.591644 1657.901489,375.901672 
	C1658.144165,385.034851 1663.271362,391.160614 1670.878174,395.398865 
	C1682.467773,401.856171 1694.704712,400.586273 1707.054077,398.217865 
	C1716.742065,396.359894 1724.910034,391.540009 1733.742920,384.838165 
z"/>
<path fill="#C57238" opacity="1.000000" stroke="none" 
	d="
M2121.194824,763.417847 
	C2114.882568,767.042847 2109.490723,771.140625 2103.411865,773.340515 
	C2081.175537,781.387634 2059.167236,780.576843 2037.528076,770.458801 
	C2028.446045,766.212280 2019.144409,762.243591 2009.591675,759.279358 
	C2005.125000,757.893311 1999.547363,758.188416 1994.953125,759.457947 
	C1979.328247,763.775574 1963.837769,768.626465 1948.445557,773.725586 
	C1930.711914,779.600342 1913.125610,780.424011 1895.292603,774.257446 
	C1886.102661,771.079651 1878.196777,765.821411 1872.162476,758.561890 
	C1860.791260,744.882141 1852.133057,729.729980 1850.261230,711.419983 
	C1849.403931,703.033752 1847.222534,694.779602 1846.435425,686.391052 
	C1846.083252,682.637207 1848.393188,678.675903 1848.263062,674.850708 
	C1847.904175,664.289551 1850.158936,654.252686 1852.351807,644.021912 
	C1855.908447,627.429504 1862.687866,612.490479 1872.692871,598.998230 
	C1901.790283,559.758057 1942.029907,540.721191 1989.601318,535.780762 
	C2007.795044,533.891296 2026.153442,533.640747 2044.394287,532.130615 
	C2056.226807,531.151123 2067.892334,529.252747 2079.075195,524.543335 
	C2088.628418,520.520142 2098.700439,517.723389 2108.560059,514.435608 
	C2114.586182,512.425964 2117.496582,508.554016 2117.385498,501.966064 
	C2117.172119,489.304779 2117.434814,476.636078 2117.437744,463.970459 
	C2117.451172,404.971466 2117.377441,345.972351 2117.505127,286.973633 
	C2117.527344,276.665192 2116.258057,266.585968 2111.974365,257.317993 
	C2102.798096,237.465820 2081.283936,234.691864 2065.579102,247.243988 
	C2060.272949,251.484955 2056.163574,257.481628 2052.312988,263.216736 
	C2048.092285,269.502319 2044.802246,276.412811 2040.689453,283.800781 
	C2037.988037,278.054565 2035.143311,273.052185 2033.224609,267.716797 
	C2028.342285,254.139633 2017.453369,246.294998 2005.338623,241.278290 
	C1995.054077,237.019516 1984.444458,240.514343 1975.793213,248.104553 
	C1968.357544,254.628189 1965.218506,263.170197 1964.257690,272.701935 
	C1963.926758,275.983398 1963.887573,279.294312 1963.678345,283.299957 
	C1959.600342,283.299957 1955.770752,283.299957 1951.866089,283.299957 
	C1946.357178,265.695496 1953.210938,243.389374 1966.820679,234.185776 
	C1976.027588,227.959595 1986.652954,227.252090 1997.063232,226.803146 
	C2007.010864,226.374130 2017.107178,228.208817 2026.046143,232.637680 
	C2032.456177,235.813568 2037.829590,241.081436 2044.359131,245.931229 
	C2045.150269,245.340698 2046.978027,244.488174 2048.084473,243.071930 
	C2060.493896,227.185440 2078.048096,226.293015 2095.894531,226.915436 
	C2102.097168,227.131760 2108.426025,228.373703 2114.381836,230.184906 
	C2135.914795,236.733322 2150.542725,255.284958 2152.266357,277.686279 
	C2152.674805,282.996155 2152.821777,288.337952 2152.825684,293.665253 
	C2152.865234,347.664276 2152.816895,401.663391 2152.880371,455.662384 
	C2152.891846,465.470306 2153.295898,475.277740 2153.538818,485.963226 
	C2170.379395,470.983856 2181.454102,454.126678 2184.821289,432.432556 
	C2188.230225,432.432556 2191.422607,432.432556 2195.529053,432.432556 
	C2196.258789,447.219421 2193.187500,460.915039 2188.459473,474.341431 
	C2182.177246,492.181915 2171.936279,507.529480 2158.252441,520.462524 
	C2154.157471,524.332886 2153.157471,528.518250 2153.155762,533.763977 
	C2153.140625,580.760193 2153.008301,627.756592 2152.824463,674.752625 
	C2152.771240,688.379761 2152.124023,701.921387 2148.918701,715.316040 
	C2144.466553,733.924011 2135.026367,749.499512 2121.194824,763.417847 
M1976.726074,749.746216 
	C1994.365356,743.260986 2011.534790,743.207642 2028.910645,751.558167 
	C2039.658203,756.723328 2051.093994,760.697815 2062.552002,764.086670 
	C2080.231201,769.315369 2097.129395,762.354431 2105.817139,746.087280 
	C2109.668945,738.874817 2112.750732,730.710022 2113.814453,722.664490 
	C2115.903320,706.864746 2117.102295,690.855469 2117.299316,674.915955 
	C2117.772217,636.602173 2117.465088,598.278503 2117.426758,559.958862 
	C2117.424316,557.484192 2117.028564,555.009827 2116.751221,551.785034 
	C2113.397705,553.174072 2110.989258,554.137085 2108.608154,555.163879 
	C2094.160156,561.394287 2079.186035,566.049011 2063.563232,567.725708 
	C2050.342529,569.144592 2036.989624,569.396790 2023.687012,569.973999 
	C1986.224121,571.599609 1950.381470,579.430176 1917.737793,598.575500 
	C1885.410400,617.535278 1867.701538,645.521545 1866.982422,683.552185 
	C1866.587646,704.429443 1871.306885,723.825623 1883.119995,741.259827 
	C1896.033081,760.317444 1915.859985,767.799561 1937.923950,761.560913 
	C1950.411621,758.029968 1962.742554,753.945068 1976.726074,749.746216 
z"/>
<path fill="#090909" opacity="1.000000" stroke="none" 
	d="
M1488.122681,334.000000 
	C1488.092651,304.703400 1488.094360,276.406708 1488.013550,248.110245 
	C1487.989258,239.593643 1494.881470,230.402100 1503.378784,228.169724 
	C1506.552368,227.335968 1509.810181,226.355301 1513.044067,226.300583 
	C1526.372925,226.075134 1539.714844,225.899139 1553.037842,226.244431 
	C1565.453003,226.566193 1574.848511,232.567520 1577.293701,241.780487 
	C1578.808350,247.487244 1579.382812,253.498932 1579.838379,259.415405 
	C1580.272339,265.051392 1580.039062,270.741455 1580.039307,276.407745 
	C1580.045898,425.406372 1580.074585,574.405029 1579.976440,723.403564 
	C1579.969971,733.225037 1581.191650,742.517456 1586.083618,751.211243 
	C1591.703247,761.198669 1599.067383,767.848450 1611.520508,766.341309 
	C1614.741089,765.951599 1618.048828,766.282776 1621.839600,766.282776 
	C1621.839600,770.883545 1621.839600,774.735107 1621.839600,779.713989 
	C1610.269653,779.713989 1598.692871,779.744995 1587.116455,779.703430 
	C1578.946899,779.674072 1570.724243,780.050476 1563.793945,774.307251 
	C1555.531860,767.460266 1549.788208,759.094116 1546.399170,748.847229 
	C1543.546997,740.223450 1544.205444,731.426270 1544.199219,722.703674 
	C1544.092896,574.371765 1544.123779,426.039825 1544.118042,277.707855 
	C1544.117798,272.708282 1543.606323,267.662415 1544.121704,262.720398 
	C1544.821045,256.015472 1541.274536,250.805130 1538.585449,245.434952 
	C1536.910522,242.090240 1533.903320,239.083267 1529.055176,239.824860 
	C1526.450195,240.223328 1523.732666,239.874039 1521.066162,239.886444 
	C1507.945557,239.947449 1504.743408,242.437561 1502.742676,255.598846 
	C1501.847412,261.488373 1501.911743,267.556824 1501.910034,273.544159 
	C1501.868042,415.209503 1501.851074,556.874878 1501.915039,698.540222 
	C1501.921509,712.850769 1500.567749,726.940491 1495.865601,740.480164 
	C1489.489014,758.841675 1476.678223,771.359314 1458.164795,776.563049 
	C1441.688599,781.194275 1424.476074,781.797852 1407.717285,777.631775 
	C1391.866577,773.691345 1376.494995,767.764893 1360.589233,764.125305 
	C1349.595703,761.609741 1338.567261,764.928528 1327.682251,767.868286 
	C1304.073242,774.244507 1280.565186,781.848145 1255.568359,779.752014 
	C1243.208008,778.715393 1230.545166,778.523315 1218.638184,775.506348 
	C1201.931396,771.273438 1188.862549,761.954956 1181.820068,744.600647 
	C1175.367798,728.700500 1176.484009,712.760010 1179.082764,697.060059 
	C1180.688721,687.357544 1189.249512,680.230957 1197.353394,674.481018 
	C1212.636108,663.637634 1230.190430,657.949463 1248.372314,654.421387 
	C1256.804321,652.785156 1265.496338,652.227600 1274.101196,651.792847 
	C1296.640381,650.654114 1317.950439,656.229736 1338.661133,664.508545 
	C1344.140503,666.698792 1349.526978,669.184692 1354.750488,671.926575 
	C1357.686157,673.467529 1360.201172,675.809570 1364.604370,679.034973 
	C1351.618774,681.313965 1342.279907,677.951538 1332.917114,674.200317 
	C1309.551514,664.838745 1285.462891,659.405579 1260.515503,665.960388 
	C1240.149292,671.311462 1221.166626,680.241028 1215.500000,703.046326 
	C1207.408325,735.610901 1221.581299,759.243347 1255.750488,764.373108 
	C1276.245117,767.449890 1294.950806,760.805481 1314.281738,757.170471 
	C1324.622803,755.225830 1334.829956,752.577881 1345.152100,750.520752 
	C1354.158081,748.725830 1362.897583,750.958252 1371.551636,753.123840 
	C1387.786011,757.186035 1403.800781,762.437622 1420.236694,765.302673 
	C1440.968384,768.916626 1462.757812,765.341675 1476.329834,745.501221 
	C1483.120117,735.574768 1487.213501,724.236328 1487.825684,711.990417 
	C1488.125122,706.002563 1488.110718,699.995361 1488.111450,693.996887 
	C1488.126221,574.331238 1488.122681,454.665619 1488.122681,334.000000 
z"/>
<path fill="#070707" opacity="1.000000" stroke="none" 
	d="
M345.513367,414.760498 
	C345.595428,365.193390 345.364319,316.532288 345.778961,267.876740 
	C345.907471,252.795013 344.294006,238.794678 331.196198,226.554123 
	C335.143616,226.554123 337.006042,226.554062 338.868439,226.554108 
	C361.531586,226.554764 384.202332,226.212540 406.854462,226.712463 
	C416.953156,226.935333 427.106323,227.491211 436.438110,233.149414 
	C444.020935,237.747177 449.057709,244.065689 451.582245,251.929245 
	C453.970001,259.366608 455.613983,267.393890 455.663940,275.174042 
	C456.001984,327.829926 455.831482,380.489136 455.807617,433.147247 
	C455.807343,433.781433 455.572266,434.415497 455.153229,436.533936 
	C444.048309,436.759796 432.611023,436.646942 419.966064,436.548859 
	C419.966064,432.576904 419.966339,429.024719 419.966064,425.472504 
	C419.962250,375.813538 419.876038,326.154297 420.017761,276.495758 
	C420.049500,265.367981 416.778870,255.535110 408.257660,248.624878 
	C401.737793,243.337677 394.218597,239.150940 384.890106,239.779175 
	C376.364044,240.353378 367.768860,239.900940 358.368958,239.900940 
	C358.368958,244.486145 358.369049,248.076599 358.368927,251.667068 
	C358.367035,308.324951 358.391663,364.982880 358.345215,421.640747 
	C358.333038,436.501465 358.144501,436.609802 343.154572,436.636261 
	C327.534790,436.663788 311.914948,436.642395 294.990112,436.642395 
	C294.537140,429.848419 293.860535,424.331055 293.849976,418.812439 
	C293.762756,373.152985 293.805542,327.493347 293.790924,281.833740 
	C293.788513,274.316254 293.041046,267.157745 290.387634,259.775513 
	C285.685364,246.693115 276.559021,241.156708 263.661499,240.142349 
	C259.019775,239.777267 254.336075,239.887573 249.671432,239.882721 
	C228.674713,239.860886 207.677078,239.773773 186.681839,239.952225 
	C181.738403,239.994232 176.653610,240.404953 171.896149,241.649078 
	C163.056366,243.960800 156.816269,250.088257 156.222153,259.089508 
	C155.283875,273.305298 155.100113,287.693542 156.217697,301.881134 
	C157.018677,312.049438 163.938370,318.908295 174.443146,320.191376 
	C183.327682,321.276520 192.350861,321.316956 201.319641,321.595673 
	C209.644302,321.854401 218.021393,321.311768 226.298523,322.020264 
	C241.084824,323.285858 251.755295,330.069672 256.301270,345.239563 
	C260.268585,358.478455 260.559814,399.260773 256.483582,412.399536 
	C251.841736,427.361298 241.876114,435.194153 226.419495,436.228729 
	C221.769730,436.540009 217.097549,436.620819 212.435440,436.626251 
	C183.106674,436.660400 153.777847,436.667572 124.449089,436.636841 
	C93.308731,436.604248 77.737518,421.563477 77.451363,390.230316 
	C77.095284,351.239563 77.428192,312.242920 77.289185,273.249451 
	C77.265518,266.611511 76.886864,259.887207 75.763260,253.359253 
	C73.515579,240.300522 63.182804,235.451279 52.180431,242.950500 
	C46.954414,246.512558 42.646564,252.252792 39.516293,257.890991 
	C32.293655,270.900299 29.950987,285.592285 28.417114,300.115997 
	C25.288420,329.740570 26.197893,359.356049 31.989058,388.654419 
	C33.265533,395.112335 35.533199,401.469238 38.096058,407.556213 
	C42.150448,417.185669 49.024170,423.354065 60.273243,422.967560 
	C61.533283,422.924286 62.807156,423.283569 64.535797,423.518982 
	C64.535797,427.669525 64.535797,431.513000 64.535797,435.336792 
	C49.825603,438.368500 38.169712,433.264160 29.877384,420.032257 
	C23.049385,409.136993 19.338661,397.056915 17.432014,384.455566 
	C12.266561,350.316101 11.238244,316.152557 17.802837,282.055725 
	C19.808207,271.639740 21.364876,261.085510 26.329657,251.452667 
	C33.532978,237.476532 43.818779,227.467102 60.333813,226.979858 
	C70.217682,226.688248 80.423149,226.782791 89.995750,228.905670 
	C104.566513,232.136978 109.796822,244.217987 112.047035,257.573608 
	C112.981277,263.118591 112.984619,268.860809 112.996719,274.514221 
	C113.074455,310.841736 113.671303,347.184174 112.834175,383.492554 
	C112.181305,411.809296 126.581566,424.327240 152.855209,423.114380 
	C172.477036,422.208588 192.174286,422.963104 211.837769,422.910858 
	C215.830765,422.900238 219.858398,422.866028 223.808838,422.362457 
	C235.143097,420.917664 241.735504,414.862366 244.383560,403.695740 
	C244.994980,401.117462 245.591904,398.460632 245.623871,395.833008 
	C245.761688,384.504333 246.081360,373.156189 245.598511,361.846588 
	C244.844391,344.182831 236.560394,335.615021 218.899246,334.649231 
	C206.270782,333.958649 193.562790,334.790619 180.922394,334.225281 
	C173.185272,333.879211 165.092346,335.415131 157.825500,330.805969 
	C148.774994,325.065521 142.450195,317.832275 142.442780,306.449402 
	C142.431732,289.483521 142.049728,272.511169 142.409332,255.553940 
	C142.693100,242.172318 152.039764,231.232437 164.952087,228.784576 
	C171.767593,227.492538 178.780243,226.701431 185.711060,226.649933 
	C216.038040,226.424591 246.368774,226.411194 276.695374,226.660019 
	C283.576508,226.716461 290.639313,227.369934 297.284363,229.061295 
	C314.933594,233.553604 323.626007,246.746338 327.758942,263.326965 
	C329.263245,269.362000 329.595276,275.810638 329.618774,282.073730 
	C329.773926,323.400085 329.698639,364.727295 329.700562,406.054230 
	C329.700684,408.720428 329.684418,411.387268 329.736328,414.052643 
	C329.800873,417.367523 329.382874,421.049866 333.492065,422.414429 
	C337.623596,423.786438 341.405273,423.081207 344.061646,419.310028 
	C344.786469,418.281036 345.000610,416.892303 345.513367,414.760498 
z"/>
<path fill="#070707" opacity="1.000000" stroke="none" 
	d="
M1350.282715,242.003632 
	C1350.144653,245.657059 1349.888062,249.310425 1349.886475,252.963913 
	C1349.861084,309.289246 1349.869751,365.614594 1349.865234,421.939941 
	C1349.864990,424.605713 1349.952271,427.281647 1349.755493,429.934845 
	C1349.469727,433.791931 1347.284912,436.267548 1343.398682,436.292053 
	C1324.816162,436.409424 1306.232544,436.344696 1286.586182,436.344696 
	C1286.122192,428.846527 1285.419312,422.645386 1285.405884,416.442749 
	C1285.309814,372.115906 1285.148560,327.787079 1285.519165,283.463104 
	C1285.597778,274.073822 1283.270752,265.489807 1280.560669,256.826263 
	C1280.011108,255.069107 1278.812378,253.326996 1277.471680,252.036270 
	C1269.972290,244.816223 1261.312134,239.951355 1250.576782,239.931671 
	C1225.247314,239.885254 1199.917603,239.856888 1174.588745,239.980270 
	C1170.972168,239.997894 1167.279663,240.578629 1163.761353,241.456009 
	C1154.969971,243.648361 1149.230347,249.166534 1147.647827,258.229645 
	C1145.054321,273.082153 1145.344360,287.955963 1147.528687,302.876709 
	C1148.852661,311.920929 1156.691650,320.099030 1165.969727,320.371033 
	C1179.935669,320.780426 1193.904297,321.123199 1207.864746,321.675507 
	C1213.143066,321.884338 1218.601440,321.856445 1223.632446,323.215332 
	C1240.312622,327.720703 1249.053833,337.665314 1250.005371,354.813721 
	C1250.889893,370.755829 1250.967041,386.832794 1249.975586,402.761749 
	C1249.107544,416.709503 1242.563721,428.054871 1229.024780,434.079834 
	C1227.350342,434.824951 1225.496338,435.428741 1223.686523,435.560852 
	C1217.047974,436.045380 1210.392456,436.609039 1203.744385,436.594513 
	C1170.089722,436.521088 1136.432983,435.977203 1102.781982,436.233215 
	C1088.892090,436.338898 1080.767334,428.391083 1074.420044,418.037811 
	C1070.485962,411.620850 1068.443481,404.473846 1068.517212,396.239655 
	C1068.902710,353.257355 1068.543457,310.266724 1068.190308,267.281097 
	C1068.137817,260.882874 1068.951538,254.484192 1064.521606,248.302948 
	C1057.827393,238.962204 1048.837402,237.035110 1040.064697,244.668427 
	C1032.563354,251.195511 1029.023926,259.983398 1025.868896,269.079834 
	C1021.377869,282.027985 1020.162781,295.527679 1019.051147,308.998199 
	C1016.713501,337.326599 1018.013733,365.540253 1024.086060,393.339020 
	C1025.801147,401.190399 1028.070557,409.130219 1033.998047,415.521118 
	C1038.363281,420.227600 1043.085327,422.957092 1049.476074,422.900208 
	C1051.414062,422.882996 1053.354980,423.183990 1055.728149,423.373932 
	C1055.728149,427.677185 1055.728149,431.534149 1055.728149,435.396515 
	C1033.394043,439.743286 1022.992798,429.538269 1014.993347,410.835449 
	C1010.716064,400.834991 1007.274963,389.858612 1006.506714,379.104736 
	C1004.922058,356.922943 1005.015869,334.592621 1005.163940,312.328339 
	C1005.232910,301.947113 1006.181458,291.401917 1008.264404,281.245392 
	C1011.072266,267.554138 1014.934875,253.912582 1023.351990,242.375320 
	C1029.319336,234.195801 1037.208374,229.399231 1047.824463,227.598343 
	C1058.640137,225.763596 1069.219604,226.378159 1079.352905,228.571198 
	C1094.771729,231.908157 1101.230835,240.642365 1103.897949,260.277374 
	C1104.476929,264.540710 1104.190674,268.930328 1104.192871,273.261810 
	C1104.211670,311.256409 1104.008423,349.253021 1104.390259,387.243805 
	C1104.458374,394.008057 1105.924561,401.164734 1108.520996,407.400848 
	C1112.322998,416.532074 1120.287476,421.249176 1130.181152,422.326202 
	C1133.158447,422.650330 1136.161255,422.899506 1139.152954,422.905121 
	C1161.816406,422.947540 1184.480835,423.053009 1207.143066,422.876587 
	C1227.712646,422.716461 1234.682983,411.353577 1236.923096,394.848724 
	C1238.344116,384.378265 1238.392090,373.395721 1236.942871,362.935547 
	C1234.596558,346.000214 1227.981079,335.385345 1206.351074,334.441193 
	C1190.387451,333.744354 1174.384766,333.924591 1158.423828,333.187469 
	C1148.106689,332.710999 1140.955444,326.362213 1136.823486,317.540527 
	C1133.780518,311.043396 1131.696899,304.180389 1132.334595,296.276825 
	C1133.318970,284.078278 1132.439575,271.718567 1132.158447,259.431610 
	C1131.848267,245.879852 1143.171265,231.197830 1156.685669,228.585403 
	C1162.842041,227.395340 1169.187256,226.678802 1175.452271,226.640274 
	C1206.780029,226.447571 1238.112427,226.304428 1269.437134,226.666656 
	C1282.703857,226.820084 1295.737183,228.492462 1305.891235,238.941574 
	C1314.060181,247.347885 1318.862305,257.154083 1320.198853,268.667694 
	C1320.773560,273.617889 1320.997070,278.634064 1321.004639,283.620850 
	C1321.066650,324.281647 1321.026001,364.942596 1321.062256,405.603455 
	C1321.065796,409.595184 1321.597168,413.593170 1321.479736,417.576355 
	C1321.364502,421.489319 1324.116943,423.395691 1326.826172,423.516571 
	C1329.195923,423.622314 1332.737183,421.976532 1333.858276,420.016357 
	C1335.699097,416.797760 1336.737671,412.714600 1336.820068,408.967560 
	C1337.142334,394.310028 1336.959229,379.641296 1336.959839,364.976715 
	C1336.961304,331.648102 1336.720215,298.316895 1337.083618,264.992249 
	C1337.220825,252.412979 1333.406494,238.221664 1323.856323,227.350677 
	C1326.496338,227.039825 1328.574707,226.586960 1330.654297,226.582184 
	C1352.984375,226.531052 1375.318848,226.298203 1397.642212,226.691635 
	C1405.171875,226.824341 1412.921509,227.725708 1420.136719,229.791458 
	C1436.834351,234.572128 1443.731323,247.631454 1446.072876,263.665588 
	C1446.839966,268.918823 1446.990234,274.298401 1446.997314,279.620758 
	C1447.063232,329.613586 1447.040161,379.606506 1447.024536,429.599426 
	C1447.023926,431.547302 1446.838745,433.495117 1446.709351,436.034363 
	C1435.198486,436.034363 1424.007202,436.034363 1411.353882,436.034363 
	C1411.353882,432.812408 1411.354004,429.310638 1411.354004,425.808899 
	C1411.354004,379.148865 1411.274292,332.488556 1411.419678,285.828979 
	C1411.449585,276.261932 1411.155640,266.892822 1406.668213,258.172363 
	C1405.516357,255.933899 1404.776733,253.234436 1403.048096,251.584854 
	C1395.752075,244.623032 1387.505005,239.579559 1376.833130,239.872314 
	C1369.174561,240.082413 1361.505615,239.912155 1352.356934,239.984024 
	C1350.675781,240.705505 1350.479248,241.354568 1350.282715,242.003632 
z"/>
<path fill="#080808" opacity="1.000000" stroke="none" 
	d="
M665.527466,357.933075 
	C665.671631,340.290527 665.771667,322.647461 665.974976,305.005615 
	C666.117004,292.688263 666.514160,280.373260 666.591003,268.055939 
	C666.683105,253.300888 675.047241,243.165726 685.576965,234.544876 
	C693.817017,227.798630 704.241882,226.881546 714.337830,226.674362 
	C734.650940,226.257462 754.995667,226.050232 775.293274,226.748215 
	C785.985168,227.115891 796.913574,227.807281 806.177856,235.094238 
	C820.731506,246.541565 825.599182,262.001190 825.660767,279.528900 
	C825.800110,319.172302 825.704895,358.816559 825.705139,398.460449 
	C825.705200,406.065552 825.705200,413.670654 825.705200,421.798798 
	C828.823975,422.162384 831.046448,422.495239 833.281250,422.666870 
	C838.233643,423.047272 840.619629,420.080536 841.347778,415.750305 
	C841.839600,412.825775 841.614929,409.771393 841.615723,406.775085 
	C841.627991,360.468353 841.363708,314.159302 841.774231,267.856201 
	C841.907837,252.776169 840.271667,238.786377 827.176453,226.545059 
	C837.783264,226.545059 846.314453,226.545029 854.845642,226.545059 
	C869.503906,226.545090 884.164978,226.373199 898.819153,226.618118 
	C906.087219,226.739594 913.507568,226.842667 920.569824,228.328674 
	C936.222107,231.622192 945.244324,240.765015 949.562195,257.346954 
	C951.213074,263.687042 951.748474,270.471649 951.770996,277.057190 
	C951.945557,328.027313 951.873840,378.998291 951.856079,429.969025 
	C951.855408,431.895081 951.627014,433.821045 951.477173,436.180725 
	C939.745972,436.180725 928.524170,436.180725 915.959961,436.180725 
	C915.959961,432.755371 915.960022,429.226471 915.959900,425.697540 
	C915.958435,376.725677 915.879944,327.753540 916.032104,278.782166 
	C916.057190,270.725922 914.536072,263.502197 910.652893,256.283600 
	C907.230042,249.920700 902.163879,246.389099 895.979309,244.110062 
	C886.628296,240.664185 876.846252,239.486862 866.871033,239.985886 
	C864.545837,240.102203 862.208191,239.970322 858.331177,239.903763 
	C856.366760,240.480072 855.947388,241.105240 855.528076,241.730408 
	C855.367249,245.378265 855.068420,249.026016 855.066406,252.673950 
	C855.035645,307.666870 855.063538,362.659790 855.032166,417.652740 
	C855.021423,436.542236 854.865845,436.644440 836.281006,436.650024 
	C821.656677,436.654388 807.032288,436.650879 791.316345,436.650879 
	C790.737549,429.859100 789.871033,424.331726 789.857666,418.802277 
	C789.746216,372.808472 789.507080,326.811035 790.022766,280.822754 
	C790.130371,271.221252 786.588379,263.009521 783.637817,254.621201 
	C781.090698,247.379883 772.734985,246.184799 766.332703,243.506454 
	C762.362000,241.845306 757.927002,240.844299 753.624512,240.502411 
	C733.766479,238.924545 713.685730,237.104660 694.541443,244.140823 
	C685.752136,247.371231 681.217529,255.546158 679.964844,264.885437 
	C679.258484,270.151184 679.102600,275.520203 679.085571,280.843964 
	C679.003540,306.507050 679.053162,332.170563 679.055969,357.833923 
	C679.056274,360.777344 679.055969,363.720734 679.055969,366.550873 
	C689.276672,371.622925 698.392883,376.780396 705.582581,384.788696 
	C716.438110,396.880096 720.184021,417.513184 711.949402,429.811432 
	C709.439270,433.560364 706.562317,435.841888 702.168457,436.946594 
	C686.305603,440.934631 674.416931,435.447357 667.934814,420.516602 
	C666.827942,417.967041 666.329346,414.971741 666.289795,412.171875 
	C666.116394,399.904205 666.215088,387.632690 666.215088,374.193024 
	C646.896545,370.219757 628.118347,366.357605 608.421143,362.306427 
	C608.421143,387.480499 608.421143,411.372589 608.421143,435.953430 
	C596.316833,435.953430 584.876221,435.953430 572.294800,435.953430 
	C572.294800,432.393219 572.294922,428.828369 572.294800,425.263519 
	C572.292725,372.936920 572.359253,320.610077 572.204224,268.283936 
	C572.184204,261.517151 572.992371,254.731689 568.365417,248.313995 
	C561.685852,239.049255 553.201172,237.115997 544.499573,244.323639 
	C536.808289,250.694427 533.129089,259.470734 529.964844,268.546143 
	C525.350037,281.781982 524.075378,295.637268 522.999268,309.442139 
	C520.817505,337.429352 522.108704,365.284943 527.929443,392.815186 
	C528.943115,397.609802 530.272278,402.473541 532.356567,406.879272 
	C537.563416,417.885834 545.639282,424.887909 559.502441,422.765961 
	C559.502441,427.557556 559.502441,431.620544 559.502441,435.705078 
	C537.635193,439.352264 526.335388,429.564850 518.663696,409.489410 
	C514.991333,399.879578 512.638794,389.715790 510.343781,379.653412 
	C509.413879,375.576324 510.515656,371.080109 510.204834,366.810150 
	C508.557770,344.183899 508.110931,321.636444 509.950989,298.925751 
	C511.257080,282.805481 515.103821,267.586548 521.208557,252.947418 
	C528.088867,236.448578 540.685547,226.810608 559.109009,226.678192 
	C567.354797,226.618927 575.922424,226.508514 583.791565,228.550568 
	C598.476379,232.361328 606.444885,240.529022 607.803101,261.712189 
	C608.952454,279.639069 608.160339,297.691254 608.202820,315.688019 
	C608.228638,326.608612 608.207581,337.529327 608.207581,347.475098 
	C626.636047,351.334167 643.979065,354.965973 662.508301,359.088318 
	C664.305481,359.030273 664.916443,358.481689 665.527466,357.933075 
M700.533691,421.562714 
	C706.458374,404.882477 697.483093,388.121185 678.600952,382.332458 
	C679.028809,391.833191 678.761108,401.064209 680.030029,410.078949 
	C681.490173,420.451965 688.662537,424.580200 700.533691,421.562714 
z"/>
<path fill="#C6743A" opacity="1.000000" stroke="none" 
	d="
M2294.091553,243.368713 
	C2279.824707,249.318436 2277.222656,252.078247 2266.834473,271.879669 
	C2265.653076,271.879669 2264.298584,272.133667 2263.086182,271.826904 
	C2260.543701,271.183624 2258.075684,270.245422 2254.774170,269.165710 
	C2259.395508,251.732819 2268.463623,238.167755 2285.246826,231.975647 
	C2312.315186,221.988907 2338.708252,224.941986 2362.319580,241.623215 
	C2379.443359,253.721161 2383.549561,272.057373 2381.256104,292.099640 
	C2379.086426,311.060852 2368.311768,322.631195 2350.275391,327.957367 
	C2348.187744,328.573853 2346.275146,329.784180 2343.993164,330.854462 
	C2350.130615,334.291229 2356.041260,337.244415 2361.586426,340.772278 
	C2378.852539,351.757355 2383.249023,368.670441 2381.201904,387.494873 
	C2380.408447,394.789825 2377.270264,402.231262 2373.638184,408.733368 
	C2365.794922,422.775391 2351.941406,429.024567 2337.082764,431.480469 
	C2321.109619,434.120544 2304.663330,436.309814 2288.614502,435.384827 
	C2273.309082,434.502655 2258.873779,427.759094 2247.663574,416.462189 
	C2231.182617,399.853912 2219.989990,380.062714 2214.055176,357.389191 
	C2211.283936,346.802277 2207.286377,336.282257 2206.389404,325.519836 
	C2205.123047,310.324432 2206.354980,294.931519 2206.265381,279.624542 
	C2206.152100,260.258118 2212.330322,242.312408 2220.806152,225.607330 
	C2230.813477,205.883545 2243.831543,187.900787 2262.324707,174.749481 
	C2276.471680,164.689072 2292.199219,158.459076 2309.329102,156.123276 
	C2343.674805,151.439911 2374.450684,159.955063 2401.127930,182.238525 
	C2422.300293,199.923676 2437.116455,221.747162 2441.924805,249.302795 
	C2443.913086,260.696777 2445.339600,272.356323 2445.366699,283.898987 
	C2445.621826,392.555298 2445.513428,501.212463 2445.530029,609.869385 
	C2445.531250,617.807922 2445.337646,625.670837 2449.663818,633.006409 
	C2455.731934,643.296021 2465.103516,647.097839 2476.262451,647.693420 
	C2482.156006,648.007996 2488.080078,647.749084 2494.215332,647.749084 
	C2494.215332,652.828552 2494.215332,656.647095 2494.215332,661.588867 
	C2477.405518,660.589172 2461.071289,664.214478 2445.495361,655.862366 
	C2431.001709,648.090759 2422.214111,636.151550 2416.399658,621.257935 
	C2410.196045,605.367126 2409.766357,588.763428 2409.733398,572.113281 
	C2409.627197,518.451660 2409.663330,464.789764 2409.653564,411.127991 
	C2409.645752,367.798553 2409.590332,324.468964 2409.675781,281.139709 
	C2409.720459,258.498627 2404.256348,237.241028 2394.085449,217.137924 
	C2390.963379,210.967087 2388.025879,204.561630 2383.955322,199.035919 
	C2363.884277,171.788956 2336.871338,163.628235 2304.486572,171.140228 
	C2280.215576,176.770142 2262.121094,191.273483 2247.503418,210.804672 
	C2223.420898,242.982010 2216.318848,279.405457 2220.655029,318.614441 
	C2222.789307,337.913940 2226.643066,356.938934 2235.708984,374.246582 
	C2240.756104,383.882172 2246.723145,393.426270 2254.023193,401.414551 
	C2272.232666,421.340240 2295.354004,425.677979 2320.811768,418.932220 
	C2335.232666,415.110931 2343.200684,404.777161 2345.567383,390.511688 
	C2347.432861,379.267334 2346.923828,367.894379 2343.206299,356.912506 
	C2339.040527,344.607758 2331.053223,338.430115 2317.990234,337.901642 
	C2309.736816,337.567780 2301.458740,337.839355 2292.594727,337.839355 
	C2292.594727,333.052368 2292.594727,329.286987 2292.594727,324.467010 
	C2299.967041,324.467010 2306.897217,324.556885 2313.824219,324.449677 
	C2332.424805,324.161865 2341.211914,317.821716 2344.405273,299.626129 
	C2346.212402,289.328735 2346.346924,278.319305 2344.895752,267.958130 
	C2342.100342,247.997787 2328.981689,239.453369 2307.542725,240.589264 
	C2303.273193,240.815475 2299.065918,242.217361 2294.091553,243.368713 
z"/>
<path fill="#C6743A" opacity="1.000000" stroke="none" 
	d="
M2008.343262,419.732666 
	C2006.689941,417.770935 2004.796509,415.962891 2003.425415,413.820465 
	C1997.654663,404.803925 1989.562988,400.157990 1978.817139,400.177216 
	C1977.517090,400.179535 1976.216431,399.940125 1974.187744,399.741425 
	C1974.187744,395.560425 1974.187744,391.514801 1974.187744,386.953552 
	C1985.232910,385.905365 1995.231445,387.928528 2003.896484,393.749847 
	C2011.854614,399.096344 2018.826416,405.887207 2026.505859,411.679871 
	C2032.484985,416.190063 2038.883301,420.144409 2046.513306,425.304840 
	C2046.513306,427.285370 2046.513306,431.411560 2046.513306,436.113708 
	C2042.909424,436.290375 2039.980713,436.556610 2037.051758,436.558777 
	C2001.063354,436.585510 1965.074829,436.615845 1929.086670,436.527985 
	C1923.435181,436.514191 1917.770752,436.074707 1912.137085,435.560089 
	C1900.684570,434.513855 1894.662231,427.904816 1894.625977,416.322998 
	C1894.470215,366.676086 1894.398071,317.028900 1894.218750,267.382080 
	C1894.195068,260.796936 1894.284424,254.340881 1890.364380,248.226639 
	C1884.510010,239.094849 1879.729736,237.612747 1869.974487,242.703964 
	C1861.433716,247.161331 1857.165771,254.673309 1853.859497,263.126923 
	C1847.256470,280.009979 1845.124512,297.757751 1844.272461,315.631409 
	C1843.144043,339.303162 1844.569580,362.943939 1848.220459,386.333344 
	C1849.470825,394.343781 1852.489380,402.323486 1856.053223,409.659882 
	C1859.752930,417.275818 1865.596191,423.265808 1875.382812,422.783386 
	C1877.286865,422.689514 1879.226196,423.314392 1881.554688,423.669586 
	C1881.554688,427.615540 1881.554688,431.189911 1881.554688,434.807312 
	C1869.169312,438.802032 1855.253052,434.894104 1848.551880,424.029816 
	C1843.645996,416.076385 1839.089722,407.395447 1836.822388,398.421143 
	C1829.642578,370.002136 1829.441284,340.876312 1831.175049,311.817566 
	C1831.969727,298.497284 1831.396851,284.813416 1836.295654,272.047974 
	C1840.122437,262.076019 1843.791382,251.865372 1849.144409,242.703781 
	C1855.398682,231.999222 1866.424561,227.229233 1878.451660,226.906387 
	C1888.274292,226.642685 1898.296387,227.652588 1907.962891,229.498077 
	C1917.308105,231.282196 1923.978516,237.434525 1926.160034,247.107941 
	C1927.815308,254.447510 1929.798218,261.937653 1929.859131,269.375336 
	C1930.210693,312.358612 1930.008545,355.346283 1930.074829,398.332336 
	C1930.081909,402.977539 1930.208130,407.690430 1930.985962,412.251343 
	C1932.281738,419.847473 1934.447754,421.935669 1942.160889,422.280853 
	C1953.136353,422.772003 1964.139893,422.684265 1975.131958,422.739380 
	C1985.794189,422.792847 1996.457153,422.714386 2008.447266,422.205078 
	C2009.297607,421.055054 2008.820435,420.393860 2008.343262,419.732666 
z"/>
<path fill="#080808" opacity="1.000000" stroke="none" 
	d="
M121.369804,46.423363 
	C135.978653,34.743416 151.264816,24.185051 169.496964,18.912609 
	C191.501694,12.549189 213.562500,10.523335 236.352097,15.770451 
	C260.130463,21.245222 274.881561,38.379795 278.094330,62.504833 
	C278.751862,67.442268 278.991608,72.468193 278.999969,77.454048 
	C279.070312,119.420464 279.045837,161.387054 279.028748,203.353592 
	C279.028076,204.995880 278.813477,206.638077 278.647583,209.008270 
	C267.018677,209.008270 255.546738,209.008270 243.265854,209.008270 
	C242.834854,200.840057 237.568436,195.793243 229.883713,192.459305 
	C223.757401,189.801483 217.810181,186.689041 211.941177,183.489136 
	C201.710358,177.911118 191.436966,179.860855 181.296234,183.288422 
	C170.903198,186.801254 160.783508,191.123703 150.387009,194.625092 
	C139.266800,198.370224 128.158188,201.509140 115.958626,200.578781 
	C100.180908,199.375549 92.041245,189.487686 87.036201,176.620331 
	C84.182655,169.284195 83.595215,160.869186 83.081512,152.869736 
	C82.422707,142.610886 82.123711,132.219559 82.977921,121.994591 
	C85.070084,96.951210 95.457024,75.326019 112.819153,55.613697 
	C116.250793,51.942944 118.810303,49.183151 121.369804,46.423363 
M107.070427,179.982559 
	C112.526413,186.040741 119.497086,187.496536 127.115753,186.074936 
	C132.324585,185.102997 137.504944,183.750778 142.530090,182.067291 
	C154.820709,177.949799 167.036255,173.603943 179.240128,169.233078 
	C191.955658,164.678955 204.917053,164.722809 217.523193,168.643753 
	C225.860489,171.236923 233.582886,175.807037 242.249710,179.800369 
	C242.355255,177.776901 242.568863,175.584808 242.569092,173.392685 
	C242.572647,139.082169 242.576294,104.771606 242.506027,70.461205 
	C242.493073,64.135117 242.328247,57.798859 241.932632,51.486153 
	C241.015289,36.848293 234.899200,29.212606 220.351318,27.264713 
	C211.599442,26.092878 202.402298,26.647614 193.586929,27.807337 
	C134.938980,35.522865 93.450897,85.081299 96.444618,143.708603 
	C97.072884,156.012146 98.407776,168.341690 107.070427,179.982559 
z"/>
<path fill="#C7753B" opacity="1.000000" stroke="none" 
	d="
M2562.012695,293.821533 
	C2582.801270,294.047607 2595.017578,281.619781 2604.907715,264.164124 
	C2607.940674,265.669250 2611.004639,267.189606 2614.182373,268.766602 
	C2614.825195,284.130890 2605.245605,292.913422 2595.075684,301.001129 
	C2579.365967,313.494446 2560.854248,314.526520 2542.230469,311.306152 
	C2533.421875,309.782959 2521.516602,299.608429 2522.420410,286.502533 
	C2522.800781,280.992767 2522.195801,275.233490 2523.620361,270.019867 
	C2525.750000,262.225891 2531.977539,258.754639 2539.987305,258.214325 
	C2559.775146,256.879425 2568.895996,269.787567 2561.171875,288.831482 
	C2559.843018,291.145172 2559.229492,292.332550 2558.616211,293.519958 
	C2559.748291,293.620483 2560.880615,293.721008 2562.012695,293.821533 
z"/>
<path fill="#C7753B" opacity="1.000000" stroke="none" 
	d="
M2524.002686,381.211975 
	C2521.564453,372.071106 2521.404297,363.710602 2524.297607,355.450836 
	C2524.826416,353.941895 2525.604980,352.480621 2526.488037,351.142487 
	C2531.274170,343.891357 2550.903809,344.549744 2557.132324,348.926361 
	C2564.257080,353.932739 2566.514893,365.078217 2561.824463,374.089325 
	C2560.859131,375.944275 2559.575439,377.633698 2557.697754,380.550110 
	C2567.929443,381.323303 2576.599121,379.478668 2583.693359,374.781067 
	C2590.352051,370.371948 2595.936523,364.033997 2601.148926,357.834839 
	C2606.241211,351.779083 2605.772705,351.385162 2614.041260,355.679077 
	C2615.188721,368.375427 2607.577148,377.468109 2599.142090,385.043091 
	C2593.236328,390.346436 2585.067383,393.268402 2577.665771,396.733978 
	C2567.029053,401.714294 2555.555664,400.368378 2544.575439,398.992767 
	C2534.884766,397.778687 2528.218018,391.043304 2524.002686,381.211975 
z"/>
<path fill="#C7753B" opacity="1.000000" stroke="none" 
	d="
M1733.206421,385.316681 
	C1724.910034,391.540009 1716.742065,396.359894 1707.054077,398.217865 
	C1694.704712,400.586273 1682.467773,401.856171 1670.878174,395.398865 
	C1663.271362,391.160614 1658.144165,385.034851 1657.901489,375.901672 
	C1657.760498,370.591644 1658.369141,365.252197 1658.068726,359.958435 
	C1657.732788,354.036133 1661.010620,350.443146 1665.573486,348.283356 
	C1674.094116,344.250031 1683.017578,344.239075 1691.306030,348.901855 
	C1699.333252,353.417633 1700.546875,364.342743 1696.468994,374.726257 
	C1695.794678,376.443207 1694.437500,377.891998 1692.795898,380.370911 
	C1704.838623,381.756805 1714.514526,378.400665 1722.839966,371.825714 
	C1727.680542,368.002808 1731.973999,363.109344 1735.387817,357.952393 
	C1739.777344,351.321838 1740.005859,350.736877 1746.702759,354.422913 
	C1747.821777,355.038849 1748.692993,356.105103 1749.825439,357.090973 
	C1748.112549,368.610474 1742.469360,377.601929 1733.206421,385.316681 
z"/>
<path fill="#C7753B" opacity="1.000000" stroke="none" 
	d="
M1696.003662,293.990448 
	C1716.661255,293.662140 1730.152466,282.514526 1739.870728,264.504486 
	C1742.991211,265.962860 1746.144409,267.436554 1749.587036,269.045441 
	C1749.476196,278.718140 1745.249146,286.372345 1739.270508,293.036438 
	C1731.622437,301.561401 1721.678223,308.015594 1711.196289,310.929535 
	C1699.287842,314.240051 1686.114502,314.217163 1673.864136,310.399506 
	C1667.396851,308.384033 1662.718140,303.201752 1660.110229,296.775055 
	C1656.199951,287.139069 1656.641113,277.370728 1659.834351,267.595032 
	C1661.310547,263.075592 1664.261475,261.095154 1668.900879,259.625580 
	C1678.301392,256.647766 1687.314575,257.320892 1693.987061,263.931458 
	C1700.680054,270.562164 1699.458008,279.610382 1695.306152,289.119324 
	C1693.842407,291.182373 1693.076782,292.140961 1691.768188,293.779175 
	C1693.692139,293.875153 1694.847900,293.932800 1696.003662,293.990448 
z"/>
<path fill="#080808" opacity="1.000000" stroke="none" 
	d="
M362.088501,171.649765 
	C382.157654,170.512100 397.302460,161.993500 405.513672,142.079559 
	C408.984161,143.798248 412.322052,145.451309 415.864746,147.205780 
	C413.027252,161.982635 405.393829,172.290451 392.938477,180.385269 
	C377.547333,190.388062 361.175049,191.443497 344.032532,189.327454 
	C334.622650,188.165909 324.863190,177.552322 324.078949,167.958344 
	C323.596039,162.050568 323.786194,156.039154 324.232819,150.116394 
	C324.787109,142.766403 328.852692,137.988495 335.961823,136.624023 
	C340.142273,135.821671 344.664642,135.541153 348.842407,136.212830 
	C363.259430,138.530731 368.393494,150.472992 361.053009,166.776398 
	C359.610992,169.128387 358.998108,170.389740 358.385193,171.651108 
	C359.619629,171.650650 360.854065,171.650208 362.088501,171.649765 
z"/>
<path fill="#FEFEFE" opacity="1.000000" stroke="none" 
	d="
M120.476334,46.317482 
	C118.810303,49.183151 116.250793,51.942944 113.062790,55.031311 
	C112.286423,47.436962 112.411766,47.276562 120.476334,46.317482 
z"/>
<path fill="#CECECE" opacity="1.000000" stroke="none" 
	d="
M362.025146,170.911743 
	C360.854065,171.650208 359.619629,171.650650 358.385193,171.651108 
	C358.998108,170.389740 359.610992,169.128387 360.876465,167.555054 
	C361.673279,168.219986 361.817535,169.196854 362.025146,170.911743 
z"/>
<path fill="#F0DBCD" opacity="1.000000" stroke="none" 
	d="
M1695.949951,293.262207 
	C1694.847900,293.932800 1693.692139,293.875153 1691.768188,293.779175 
	C1693.076782,292.140961 1693.842407,291.182373 1695.163086,289.921570 
	C1695.777344,290.590912 1695.836792,291.562439 1695.949951,293.262207 
z"/>
<path fill="#EEEEEE" opacity="1.000000" stroke="none" 
	d="
M2561.980957,293.055786 
	C2560.880615,293.721008 2559.748291,293.620483 2558.616211,293.519958 
	C2559.229492,292.332550 2559.843018,291.145172 2561.032227,289.599762 
	C2561.721924,290.257812 2561.835693,291.273926 2561.980957,293.055786 
z"/>
<path fill="#DFDFDF" opacity="1.000000" stroke="none" 
	d="
M664.813843,358.041199 
	C664.916443,358.481689 664.305481,359.030273 663.259644,359.202209 
	C663.249878,358.600159 663.675049,358.374756 664.813843,358.041199 
z"/>
<path fill="#EEEEEE" opacity="1.000000" stroke="none" 
	d="
M1350.665649,241.825119 
	C1350.479248,241.354568 1350.675781,240.705505 1351.438232,240.170471 
	C1351.845337,240.850601 1351.526855,241.304642 1350.665649,241.825119 
z"/>
<path fill="#E3BA9D" opacity="1.000000" stroke="none" 
	d="
M2008.479614,420.418213 
	C2008.820435,420.393860 2009.297607,421.055054 2009.447021,422.062134 
	C2008.951416,421.973297 2008.783691,421.538544 2008.479614,420.418213 
z"/>
<path fill="#CECECE" opacity="1.000000" stroke="none" 
	d="
M856.043640,241.671875 
	C855.947388,241.105240 856.366760,240.480072 857.410217,240.016312 
	C857.542603,240.656265 857.050903,241.134811 856.043640,241.671875 
z"/>
<path fill="#FFFEFE" opacity="1.000000" stroke="none" 
	d="
M1975.935059,749.927917 
	C1962.742554,753.945068 1950.411621,758.029968 1937.923950,761.560913 
	C1915.859985,767.799561 1896.033081,760.317444 1883.119995,741.259827 
	C1871.306885,723.825623 1866.587646,704.429443 1866.982422,683.552185 
	C1867.701538,645.521545 1885.410400,617.535278 1917.737793,598.575500 
	C1950.381470,579.430176 1986.224121,571.599609 2023.687012,569.973999 
	C2036.989624,569.396790 2050.342529,569.144592 2063.563232,567.725708 
	C2079.186035,566.049011 2094.160156,561.394287 2108.608154,555.163879 
	C2110.989258,554.137085 2113.397705,553.174072 2116.751221,551.785034 
	C2117.028564,555.009827 2117.424316,557.484192 2117.426758,559.958862 
	C2117.465088,598.278503 2117.772217,636.602173 2117.299316,674.915955 
	C2117.102295,690.855469 2115.903320,706.864746 2113.814453,722.664490 
	C2112.750732,730.710022 2109.668945,738.874817 2105.817139,746.087280 
	C2097.129395,762.354431 2080.231201,769.315369 2062.552002,764.086670 
	C2051.093994,760.697815 2039.658203,756.723328 2028.910645,751.558167 
	C2011.534790,743.207642 1994.365356,743.260986 1975.935059,749.927917 
z"/>
<path fill="#EEEEEE" opacity="1.000000" stroke="none" 
	d="
M699.950195,422.076324 
	C688.662537,424.580200 681.490173,420.451965 680.030029,410.078949 
	C678.761108,401.064209 679.028809,391.833191 678.600952,382.332458 
	C697.483093,388.121185 706.458374,404.882477 699.950195,422.076324 
z"/>
<path fill="#FDFDFD" opacity="1.000000" stroke="none" 
	d="
M106.576431,179.398560 
	C98.407776,168.341690 97.072884,156.012146 96.444618,143.708603 
	C93.450897,85.081299 134.938980,35.522865 193.586929,27.807337 
	C202.402298,26.647614 211.599442,26.092878 220.351318,27.264713 
	C234.899200,29.212606 241.015289,36.848293 241.932632,51.486153 
	C242.328247,57.798859 242.493073,64.135117 242.506027,70.461205 
	C242.576294,104.771606 242.572647,139.082169 242.569092,173.392685 
	C242.568863,175.584808 242.355255,177.776901 242.249710,179.800369 
	C233.582886,175.807037 225.860489,171.236923 217.523193,168.643753 
	C204.917053,164.722809 191.955658,164.678955 179.240128,169.233078 
	C167.036255,173.603943 154.820709,177.949799 142.530090,182.067291 
	C137.504944,183.750778 132.324585,185.102997 127.115753,186.074936 
	C119.497086,187.496536 112.526413,186.040741 106.576431,179.398560 
z"/>
</svg>