<svg enable-background="new 0 0 1978 914" viewBox="0 0 1978 914" xmlns="http://www.w3.org/2000/svg"><path d="m1493 915c-497.666565 0-994.83316 0-1491.9998 0-.000066-304.666504-.000066-609.333038-.000133-913.999677 659.333002-.000108 1318.666071-.000108 1977.999445-.000215.000122 304.666243.000122 609.332595.000244 913.999404-161.83313.000488-323.666382.000488-485.999756.000488m338.244873-581.677155c18.178467-18.78012 36.505737-37.418975 54.496582-56.377227 20.898682-22.022553 39.982544-45.505127 54.720581-72.190934 7.287232-13.194778 12.724121-27.212234 12.324951-42.561752-.292846-11.25589-1.80957-22.435638-6.034424-33.116669-8.519653-21.538482-23.58374-36.75135-44.492431-46.163124-18.736817-8.434158-38.515503-9.982582-58.601074-6.863022-22.151856 3.440491-39.890137 14.654915-53.799927 32.128571-12.59668 15.824165-19.9198 33.91497-22.648804 53.811363-1.111572 8.104401-1.092163 16.363922-1.59668 24.706909h19.720582c.942016-8.31665 1.475708-16.381301 2.832275-24.305084 2.815552-16.447052 11.618408-29.830124 23.329101-41.158737 8.580445-8.30043 19.214478-13.49865 31.227295-14.859375 22.054078-2.498108 41.466675 4.514671 50.067261 28.478607 10.127442 28.218613 8.892456 56.040787-5.166748 83.001938-12.883789 24.707031-27.976807 47.944153-45.500122 69.584747-12.281006 15.166748-24.553711 30.353943-37.303711 45.123291-10.728882 12.428132-22.145874 24.262116-33.241211 36.374756-1.001709 1.093506-1.868896 2.309326-2.814575 3.455109-3.081665 3.73352-4.396851 8.061737-2.17627 12.412628 2.055298 4.02713 6.32837 4.305756 10.478882 4.297882 26.994995-.05133 53.990235.000733 80.984864-.105316 4.612792-.018127 9.260742-.368683 13.828491-1.016937 25.225708-3.579926 45.265625-16.136231 60.589966-36.163147 14.003662-18.30069 19.821411-39.586426 20.343017-62.283478.482056-20.985413.158325-41.989395.181641-62.985199.000976-.931046-.079224-1.862167-.195679-4.4189-5.400391 7.144471-9.663696 13.343934-14.521118 19.036484-3.989868 4.675965-5.889771 9.497437-5.62561 15.782532.376709 8.958984-.643921 17.972778-.356934 26.940369.45166 14.102996-4.123657 25.866211-14.165039 35.810669-9.138184 9.05014-19.617798 15.640747-32.570313 16.064514-18.141235.593506-36.318847.067047-54.53125-.604218-.032348-.417633-.064697-.835266.216431-1.83725m-1716.896133 5.775544c8.493026 25.889587 32.695785 50.547577 64.995117 50.194091 44.826095-.49057 89.661575-.120788 134.493027-.125732 10.136138-.001129 20.003753-1.583466 28.820312-6.776794 26.45694-15.584351 39.98056-38.962525 40.107513-69.589417.242554-58.496536-.021179-116.995102.171143-175.49202.02829-8.605239.708405-17.340377 2.336487-25.774192 1.944519-10.072976 7.579437-18.744698 21.989105-17.733422 3.316864.232773 6.664124.015641 9.997162.037873 9.893585.065994 16.095123 3.579116 18.646759 13.255417 2.428619 9.209663 3.914947 18.957443 3.928223 28.471267.228332 163.659485.160522 327.319397.167389 490.979218.001068 26.082214-2.505036 51.887451-9.060029 77.173767-9.013031 34.768555-25.050445 65.81427-49.669281 92.219848-20.927764 22.446595-46.488189 38.226197-74.120758 50.749573-40.345886 18.28534-83.013549 28.328064-126.735519 34.323426-7.091675.972473-14.204147 1.840881-21.252243 3.071228-8.173813 1.426818-11.41629 6.525756-9.203766 13.87622 1.354279 4.499146 4.677887 6.183533 12.19577 6.18927 32.844681.024903 65.604844-1.360473 98.274323-5.017883 36.131042-4.044922 71.816742-10.291565 106.501495-21.323364 38.479492-12.23877 74.752747-28.830506 106.327057-54.701294 45.643952-37.398987 68.998932-85.81543 69.536896-144.388428.840332-91.488403.31958-182.989319.363647-274.484924.000428-.934388-.160217-1.868805-.244079-2.785065-6.464417 0-12.540772 0-18.916443 0 0 2.084717.000061 3.895172.000061 5.705627 0 86.996369-.027893 173.992707.014954 260.989106.015197 30.851867-5.946961 60.235046-21.404725 87.229187-19.068389 33.299499-47.538147 56.573791-80.69461 74.669677-31.020752 16.930359-64.313935 27.888428-98.310852 36.933411-1.70575.453919-3.451874.755982-5.17923 1.128723.542816-1.092651 1.242004-1.476257 1.967011-1.802246 51.313293-23.078125 94.207153-56.603516 127.4328-102.263916 18.848663-25.902771 32.213989-54.283508 39.713653-85.423523 4.431763-18.401672 5.950837-37.124328 5.95575-55.992493.022858-87.64392.010162-175.287841.010132-262.931762 0-73.830231.055908-147.660584-.066193-221.490631-.016479-9.979279-.386597-20.019944-1.538055-29.92228-2.291596-19.706787-13.535401-32.388321-30.744629-33.040664-22.454743-.851181-44.976868-.55838-67.450775.00666-10.689545.268753-24.965332 8.07357-26.89148 22.730736-1.730163 13.16613-3.401459 26.456413-3.486359 39.702263-.372833 58.161834-.97702 116.343902.195862 174.484466.556641 27.595093-29.744354 57.990479-57.105346 57.05835-28.798706-.98111-57.656769-.211426-86.488877-.233643-2.660766-.002044-5.351608.021454-7.977325-.339264-25.426285-3.493042-48.688461-30.930236-48.247132-57.404998.966568-57.981446.374802-115.990342.209641-173.987442-.022171-7.783493-.579681-15.695443-2.061127-23.320221-4.319214-22.230362-17.272476-35.153206-39.671173-38.174408-11.956756-1.61277-24.256088-.973191-36.39611-.857506-11.748116.111961-21.930729 4.627083-30.897923 12.218574-11.162784 9.450249-17.776394 21.908898-23.201528 35.032174-10.883477 26.326896-15.006125 54.166343-16.452609 82.334251-1.513516 29.473221-.965039 58.975952 2.800652 88.325226 2.803934 21.853546 6.917002 43.339722 16.713398 63.386108 12.005417 24.566803 32.199135 36.206879 57.058785 32.445618 0-6.405335 0-12.827789 0-19.644226-1.645424 0-3.105591-.083679-4.553757.012848-16.316216 1.087707-27.038166-6.836975-34.419125-20.768219-7.775741-14.676392-11.556709-30.598236-13.539532-46.737396-5.316604-43.274354-7.139114-86.677857-.221153-129.998215 3.024979-18.94249 7.262478-37.618927 16.637028-54.649376 6.621113-12.028366 15.512905-21.246292 30.109341-22.796257 10.373184-1.101517 16.307899 2.572876 20.314392 12.197548 4.213623 10.122268 4.332992 20.792946 4.342003 31.455574.048698 57.66423-.135849 115.329376.185363 172.991836.051331 9.214325 2.254349 18.416657 3.689492 28.39206m930.514541-180.760743c3.22229-10.830032 5.911255-21.856781 9.812622-32.436447 4.144287-11.23822 10.700074-21.009727 21.234131-27.625015 16.351196-10.268494 31.894287-4.222374 35.627197 14.548508 1.611573 8.104027 2.181519 16.531402 2.210572 24.81546.213867 60.998901.022339 121.999466.321777 182.997696.068115 13.894928 2.648438 27.559936 9.609619 39.911346 11.345581 20.130921 29.999512 27.97641 51.782593 28.318665 40.490112.636139 80.996338.249939 121.49585.27243.94519.000519 1.890258-.199524 2.871704-.310089 0-6.718323 0-13.11438 0-19.341064-.469727-.232056-.608277-.354706-.754029-.364136-1.495849-.096191-2.994384-.153473-4.489379-.260254-17.828736-1.273193-32.541871-8.441162-44.023072-22.414551-9.592285-11.67453-15.936401-24.955414-20.429809-39.167083-16.124024-50.994965-13.531861-102.635117-3.733033-154.151734 4.693848-24.677139 19.861329-42.424118 43.614869-51.405464 26.40393-9.983383 53.804443-10.586945 81.133422-4.785011 14.756836 3.132866 24.768067 12.953956 28.383912 27.890251 1.54541 6.383263 1.783447 13.19799 1.798828 19.81858.131591 56.66623.058105 113.332901.103759 169.999405.004395 5.493348.110596 11.015412.660035 16.474762 3.346923 33.251618 26.865234 58.937989 62.233154 58.162171 28.986084-.635834 57.99707-.111725 86.99707-.154541 3.657105-.005402 7.349488-.065613 10.964844-.551972 28.904785-3.888397 48.043823-29.26474 50.575928-56.04309 1.078857-11.410645.917236-22.95871.945312-34.445252.138184-56.332153-.014648-112.665802.397583-168.995544.057251-7.821152 2.039429-15.814972 4.294068-23.382157 2.377685-7.980392 8.580078-11.973282 17.118042-11.869674 3.332885.040435 6.681762.212104 9.997192-.032082 12.932983-.952553 19.35083 4.450241 22.208496 18.453217 1.715576 8.406837 2.214844 17.183845 2.231567 25.796501.157715 81.332824.09375 162.666092.09375 243.999221v5.689423h53.696045c0-1.551819-.000122-2.697632-.000122-3.843475-.00061-82.83313.110108-165.666596-.132202-248.499008-.033081-11.271599-1.176636-22.643395-2.970581-33.78122-2.456177-15.248634-13.19043-25.837891-27.810181-26.3517-22.623168-.795074-45.309448-.710411-67.939941-.029976-13.551392.407441-24.456787 9.258232-27.145019 22.521569-2.657593 13.113296-4.088501 26.672256-4.251465 40.057708-.517212 42.493592-.156128 84.997513-.207032 127.49733-.024169 20.163147.156983 40.336853-.429687 60.486115-.602173 20.677642-18.750244 40.598693-39.225098 42.10379-17.734985 1.303711-35.613403 1.055389-53.419922.825043-9.772827-.126435-18.965576-3.107911-26.8656-9.374939-13.340576-10.582917-18.436524-24.793579-18.441895-41.276581-.019165-58.166535.042603-116.333161-.082031-174.499436-.013062-6.113464-.435425-12.359726-1.728516-18.314025-6.131225-28.232903-32.254394-48.023713-61.518432-50.05478-18.584351-1.289833-37.328736-1.235115-55.959229-.581115-14.40271.505577-28.976684 1.732445-43.059326 4.645286-35.323364 7.306237-56.86853 29.11969-64.829224 64.5243-4.368652 19.429459-6.536865 39.071167-7.303955 58.889313-1.380493 35.667648-2.040649 71.324936 7.490967 106.220443 6.226441 22.795105 16.348633 43.286957 35.460327 58.278901.425049.333343.708741.846923 1.454834 1.763519-11.384887 0-22.026001.081116-32.664795-.041779-3.986816-.04602-7.980957-.451538-11.949951-.890472-19.138183-2.116608-29.150268-11.473999-31.121948-29.832825-1.13623-10.57843-1.918335-21.249969-1.952759-31.882507-.186035-57.332596-.051636-114.666184-.142212-171.999222-.009399-5.972534-.28479-12.026039-1.27832-17.89959-2.487305-14.702125-8.61023-27.500518-22.351196-34.852828-5.314331-2.843453-11.440918-5.331055-17.337891-5.693009-14.411255-.884567-29.087524-1.921997-43.321045-.168579-20.674805 2.546936-33.068603 17.252571-42.287353 34.672256-11.060547 20.899788-16.440796 43.628853-19.332764 66.819909-5.767212 46.248108-4.42572 92.423187 3.855102 138.318725 3.184327 17.648133 8.725464 34.515717 18.462281 49.782105 11.590454 18.172363 31.391357 27.165619 51.325561 23.22644 0-6.374725 0-12.765472 0-19.517975-2.452636 0-4.590576-.041534-6.72644.006836-12.607056.285523-21.973389-5.244751-28.875244-15.633972-6.197388-9.328583-9.63794-19.740906-12.227906-30.437744-8.262329-34.125122-9.333007-68.880692-8.580932-103.763321.434936-20.168884 1.899536-40.24321 6.436523-60.831986m-106.661499 666.151246c0-225.647828.000977-451.295624-.007873-676.943421-.000183-4.332168.129944-8.684891-.229737-12.992187-.738098-8.836045-2.472046-17.460434-7.060974-25.232849-11.033325-18.687661-27.544494-30.534783-48.734131-32.968918-26.582824-3.053688-53.548645-3.714966-80.103576.783592-21.560547 3.652496-37.547852 16.015114-48.310486 35.217789-8.236572 14.695625-12.096314 30.713874-13.520996 47.133903-2.039551 23.507401-3.266541 47.112763-3.951355 70.702088-.61322 21.124282.923401 42.21556 4.816772 63.050796 3.544007 18.964844 9.15326 37.29599 20.362976 53.194367 5.754212 8.16098 13.129761 15.178802 20.104126 23.089202-15.246154-.572509-30.866821-.431335-46.323303-1.955505-13.922729-1.372894-24.644714-8.463593-28.02478-23.104614-1.634522-7.080109-2.95105-14.423767-2.981873-21.654175-.264526-61.993805-.132995-123.989212-.32489-185.983505-.023559-7.60524-.748108-15.292557-2.020935-22.793701-3.614685-21.303338-16.803955-35.099717-37.92218-38.004639-12.115112-1.666504-24.570007-.947716-36.874512-1.13089-15.253174-.227058-27.098511 6.910912-37.048584 17.758995-11.294372 12.313721-17.933105 27.243637-22.626831 42.948769-8.383057 28.049881-11.618957 56.971405-12.127624 86.123611-.27533 15.776993.923767 31.586502 1.648376 47.372589 1.062683 23.151947 4.028809 46.053803 11.186401 68.168732 5.053711 15.614685 11.70636 30.481476 24.788086 41.401733 11.67865 9.749024 25.268555 11.463745 39.760132 10.038544 0-6.725464 0-12.976227 0-19.7099-2.781067 0-5.242248-.001984-7.70343.000366-9.264343.008759-17.127319-2.954254-23.587524-9.948364-7.226624-7.823883-11.217469-17.20224-14.363587-27.092346-7.943603-24.97171-9.992065-50.83075-10.830322-76.764618-.924988-28.616776-1.140076-57.301727 3.969849-85.621201 3.27832-18.168762 7.266296-36.274292 16.439514-52.634208 5.942383-10.597931 13.669372-19.280106 26.175293-22.316681 12.300415-2.986664 20.811279 1.046425 24.752197 12.99665 2.050598 6.21811 3.309631 12.999947 3.339661 19.534455.273803 59.493927.110229 118.989776.309875 178.484283.033325 9.949158.492127 20.000733 1.968689 29.822449 5.266052 35.028839 26.189392 52.60611 60.195313 53.362457 39.977356.88913 79.98883.250061 119.985473.250855 1.42041.00003 2.840821-.243744 4.242188-.372132 0-6.742584 0-12.990325 0-19.377258-1.125916-.133697-1.928955-.294403-2.735657-.315307-24.114929-.625245-41.685059-12.333008-53.926575-32.461518-15.506897-25.497589-22.328491-53.882873-23.496887-83.169555-1.025879-25.713501.604248-51.566254 1.81073-77.322403.668762-14.274964 3.235535-28.397965 8.584045-41.83725 6.751526-16.964928 17.149598-30.860954 35.129273-36.521607 18.658996-5.874496 37.757385-5.878906 56.39801.722412 12.911743 4.572472 20.964905 13.949204 23.685425 27.389512 1.210571 5.980545 1.902405 12.176483 1.905273 18.275085.095459 204.650147.039002 409.300293.165772 613.950439.00885 14.279725.683044 28.61438 2.06366 42.824708 1.973449 20.311645 6.897155 39.926208 16.684875 58.103149 11.426941 21.221252 28.511719 35.447266 51.926209 41.278809 8.78601 2.188171 17.984863 3.107116 27.053405 3.667724 9.903321.612305 19.87378.13916 29.909119.13916 0-7.008728 0-13.363586 0-20.09259-9.931091 0-19.433044.405762-28.888062-.087463-17.751648-.926087-31.275085-8.980896-39.929626-24.859986-5.764526-10.576599-5.693176-22.029724-5.704407-34.518432z" fill="#fff"/><path d="m114.235313 338.7146c-1.321716-9.591614-3.524734-18.793946-3.576065-28.008271-.321212-57.66246-.136665-115.327606-.185363-172.991836-.009011-10.662628-.12838-21.333306-4.342003-31.455574-4.006493-9.624672-9.941208-13.299065-20.314392-12.197548-14.596436 1.549965-23.488228 10.767891-30.109341 22.796257-9.37455 17.030449-13.612049 35.706886-16.637028 54.649376-6.917961 43.320358-5.095451 86.723861.221153 129.998215 1.982823 16.13916 5.763791 32.061004 13.539532 46.737396 7.380959 13.931244 18.102909 21.855926 34.419125 20.768219 1.448166-.096527 2.908333-.012848 4.553757-.012848v19.644226c-24.85965 3.761261-45.053368-7.878815-57.058785-32.445618-9.796396-20.046386-13.909464-41.532562-16.713398-63.386108-3.765691-29.349274-4.314168-58.852005-2.800652-88.325226 1.446484-28.167908 5.569132-56.007355 16.452609-82.334251 5.425134-13.123276 12.038744-25.581925 23.201528-35.032174 8.967194-7.591491 19.149807-12.106613 30.897923-12.218574 12.140022-.115685 24.439354-.755264 36.39611.857506 22.398697 3.021202 35.351959 15.944046 39.671173 38.174408 1.481446 7.624778 2.038956 15.536728 2.061127 23.320221.165161 57.9971.756927 116.005996-.209641 173.987442-.441329 26.474762 22.820847 53.911956 48.247132 57.404998 2.625717.360718 5.316559.33722 7.977325.339264 28.832108.022217 57.690171-.747467 86.488877.233643 27.360992.932129 57.661987-29.463257 57.105346-57.05835-1.172882-58.140564-.568695-116.322632-.195862-174.484466.0849-13.24585 1.756196-26.536133 3.486359-39.702263 1.926148-14.657166 16.201935-22.461983 26.89148-22.730736 22.473907-.56504 44.996032-.857841 67.450775-.00666 17.209228.652343 28.453033 13.333877 30.744629 33.040664 1.151458 9.902336 1.521576 19.943001 1.538055 29.92228.122101 73.830047.066193 147.6604.066193 221.490631.00003 87.643921.012726 175.287842-.010132 262.931762-.004913 18.868165-1.523987 37.590821-5.95575 55.992493-7.499664 31.140015-20.86499 59.520752-39.713653 85.423523-33.225647 45.6604-76.119507 79.185791-127.4328 102.263916-.725007.325989-1.424195.709595-1.967011 1.802246 1.727356-.372741 3.47348-.674804 5.17923-1.128723 33.996917-9.044983 67.2901-20.003052 98.310852-36.933411 33.156463-18.095886 61.626221-41.370178 80.69461-74.669677 15.457764-26.994141 21.419922-56.37732 21.404725-87.229187-.042847-86.996399-.014954-173.992737-.014954-260.989106 0-1.810455-.000061-3.62091-.000061-5.705627h18.916443c.083862.91626.244507 1.850677.244079 2.785065-.044067 91.495605.476685 182.996521-.363647 274.484924-.537964 58.572998-23.892944 106.989441-69.536896 144.388428-31.57431 25.870788-67.847565 42.462524-106.327057 54.701294-34.684753 11.031799-70.370453 17.278442-106.501495 21.323364-32.669479 3.65741-65.429642 5.042786-98.274323 5.017883-7.517883-.005737-10.841491-1.690124-12.19577-6.18927-2.212524-7.350464 1.029953-12.449402 9.203766-13.87622 7.048096-1.230347 14.160568-2.098755 21.252243-3.071228 43.72197-5.995362 86.389633-16.038086 126.735519-34.323426 27.632569-12.523376 53.192994-28.302978 74.120758-50.749573 24.618836-26.405578 40.65625-57.451293 49.669281-92.219848 6.554993-25.286316 9.061097-51.091553 9.060029-77.173767-.006867-163.659821.060943-327.319733-.167389-490.979218-.013276-9.513824-1.499604-19.261604-3.928223-28.471267-2.551636-9.676301-8.753174-13.189423-18.646759-13.255417-3.333038-.022232-6.680298.1949-9.997162-.037873-14.409668-1.011276-20.044586 7.660446-21.989105 17.733422-1.628082 8.433815-2.308197 17.168953-2.336487 25.774192-.192322 58.496918.071411 116.995484-.171143 175.49202-.126953 30.626892-13.650573 54.005066-40.107513 69.589417-8.816559 5.193328-18.684174 6.775665-28.820312 6.776794-44.831452.004944-89.666932-.364838-134.493027.125732-32.299332.353486-56.502091-24.304504-65.108544-50.57788z" fill="#010101"/><path d="m1044.767578 158.748032c-4.441284 20.17839-5.905884 40.252716-6.34082 60.4216-.752075 34.882629.318603 69.638199 8.580932 103.763321 2.589966 10.696838 6.030518 21.109161 12.227906 30.437744 6.901855 10.389221 16.268188 15.919495 28.875244 15.633972 2.135864-.04837 4.273804-.006836 6.72644-.006836v19.517975c-19.934204 3.939179-39.735107-5.054077-51.325561-23.22644-9.736817-15.266388-15.277954-32.133972-18.462281-49.782105-8.280822-45.895538-9.622314-92.070617-3.855102-138.318725 2.891968-23.191056 8.272217-45.920121 19.332764-66.819909 9.21875-17.419685 21.612548-32.12532 42.287353-34.672256 14.233521-1.753418 28.90979-.715988 43.321045.168579 5.896973.361954 12.02356 2.849556 17.337891 5.693009 13.740966 7.35231 19.863891 20.150703 22.351196 34.852828.99353 5.873551 1.268921 11.927056 1.27832 17.89959.090576 57.333038-.043823 114.666626.142212 171.999222.034424 10.632538.816529 21.304077 1.952759 31.882507 1.97168 18.358826 11.983765 27.716217 31.121948 29.832825 3.968994.438934 7.963135.844452 11.949951.890472 10.638794.122895 21.279908.041779 32.664795.041779-.746093-.916596-1.029785-1.430176-1.454834-1.763519-19.111694-14.991944-29.233886-35.483796-35.460327-58.278901-9.531616-34.895507-8.87146-70.552795-7.490967-106.220443.76709-19.818146 2.935303-39.459854 7.303955-58.889313 7.960694-35.40461 29.50586-57.218063 64.829224-64.5243 14.082642-2.912841 28.656616-4.139709 43.059326-4.645286 18.630493-.654 37.374878-.708718 55.959229.581115 29.264038 2.031067 55.387207 21.821877 61.518432 50.05478 1.293091 5.954299 1.715454 12.200561 1.728516 18.314025.124634 58.166275.062866 116.332901.082031 174.499436.005371 16.483002 5.101319 30.693664 18.441895 41.276581 7.900024 6.267028 17.092773 9.248504 26.8656 9.374939 17.806519.230346 35.684937.478668 53.419922-.825043 20.474854-1.505097 38.622925-21.426148 39.225098-42.10379.58667-20.149262.405518-40.322968.429687-60.486115.050904-42.499817-.31018-85.003738.207032-127.49733.162964-13.385452 1.593872-26.944412 4.251465-40.057708 2.688232-13.263337 13.593627-22.114128 27.145019-22.521569 22.630493-.680435 45.316773-.765098 67.939941.029976 14.619751.513809 25.354004 11.103066 27.810181 26.3517 1.793945 11.137825 2.9375 22.509621 2.970581 33.78122.24231 82.832412.131592 165.665878.132202 248.499008 0 1.145843.000122 2.291656.000122 3.843475-17.859619 0-35.420044 0-53.696045 0 0-1.820648 0-3.755035 0-5.689423 0-81.333129.063965-162.666397-.09375-243.999221-.016723-8.612656-.515991-17.389664-2.231567-25.796501-2.857666-14.002976-9.275513-19.40577-22.208496-18.453217-3.31543.244186-6.664307.072517-9.997192.032082-8.537964-.103608-14.740357 3.889282-17.118042 11.869674-2.254639 7.567185-4.236817 15.561005-4.294068 23.382157-.412231 56.329742-.259399 112.663391-.397583 168.995544-.028076 11.486542.133545 23.034607-.945312 34.445252-2.532105 26.77835-21.671143 52.154693-50.575928 56.04309-3.615356.486359-7.307739.54657-10.964844.551972-29 .042816-58.010986-.481293-86.99707.154541-35.36792.775818-58.886231-24.910553-62.233154-58.162171-.549439-5.45935-.65564-10.981414-.660035-16.474762-.045654-56.666504.027832-113.333175-.103759-169.999405-.015381-6.62059-.253418-13.435317-1.798828-19.81858-3.615845-14.936295-13.627076-24.757385-28.383912-27.890251-27.328979-5.801934-54.729492-5.198372-81.133422 4.785011-23.75354 8.981346-38.921021 26.728325-43.614869 51.405464-9.798828 51.516617-12.390991 103.156769 3.733033 154.151734 4.493408 14.211669 10.837524 27.492553 20.429809 39.167083 11.481201 13.973389 26.194336 21.141358 44.023072 22.414551 1.494995.106781 2.99353.164063 4.489379.260254.145752.00943.284302.13208.754029.364136v19.341064c-.981446.110565-1.926514.310608-2.871704.310089-40.499512-.022491-81.005738.363709-121.49585-.27243-21.783081-.342255-40.437012-8.187744-51.782593-28.318665-6.961181-12.35141-9.541504-26.016418-9.609619-39.911346-.299438-60.99823-.10791-121.998795-.321777-182.997696-.029053-8.284058-.598999-16.711433-2.210572-24.81546-3.73291-18.770882-19.276001-24.817002-35.627197-14.548508-10.534057 6.615288-17.089844 16.386795-21.234131 27.625015-3.901367 10.579666-6.590332 21.606415-9.908325 32.846833z" fill="#c47034"/><path d="m938.202026 824.986206c.010987 11.991394-.060363 23.444519 5.704163 34.021118 8.654541 15.87909 22.177978 23.933899 39.929626 24.859986 9.455018.493225 18.956971.087463 28.888062.087463v20.09259c-10.035339 0-20.005798.473145-29.909119-.13916-9.068542-.560608-18.267395-1.479553-27.053405-3.667724-23.41449-5.831543-40.499268-20.057557-51.926209-41.278809-9.78772-18.176941-14.711426-37.791504-16.684875-58.103149-1.380616-14.210328-2.05481-28.544983-2.06366-42.824708-.12677-204.650146-.070313-409.300292-.165772-613.950439-.002868-6.098602-.694702-12.29454-1.905273-18.275085-2.72052-13.440308-10.773682-22.81704-23.685425-27.389512-18.640625-6.601318-37.739014-6.596908-56.39801-.722412-17.979675 5.660653-28.377747 19.556679-35.129273 36.521607-5.34851 13.439285-7.915283 27.562286-8.584045 41.83725-1.206482 25.756149-2.836609 51.608902-1.81073 77.322403 1.168396 29.286682 7.98999 57.671966 23.496887 83.169555 12.241516 20.12851 29.811646 31.836273 53.926575 32.461518.806702.020904 1.609741.18161 2.735657.315307v19.377258c-1.401367.128388-2.821778.372162-4.242188.372132-39.996643-.000794-80.008117.638275-119.985473-.250855-34.005921-.756347-54.929261-18.333618-60.195313-53.362457-1.476562-9.821716-1.935364-19.873291-1.968689-29.822449-.199646-59.494507-.036072-118.990356-.309875-178.484283-.03003-6.534508-1.289063-13.316345-3.339661-19.534455-3.940918-11.950225-12.451782-15.983314-24.752197-12.99665-12.505921 3.036575-20.23291 11.71875-26.175293 22.316681-9.173218 16.359916-13.161194 34.465446-16.439514 52.634208-5.109925 28.319474-4.894837 57.004425-3.969849 85.621201.838257 25.933868 2.886719 51.792908 10.830322 76.764618 3.146118 9.890106 7.136963 19.268463 14.363587 27.092346 6.460205 6.99411 14.323181 9.957123 23.587524 9.948364 2.461182-.00235 4.922363-.000366 7.70343-.000366v19.7099c-14.491577 1.425201-28.081482-.28952-39.760132-10.038544-13.081726-10.920257-19.734375-25.787048-24.788086-41.401733-7.157592-22.114929-10.123718-45.016785-11.186401-68.168732-.724609-15.786087-1.923706-31.595596-1.648376-47.372589.508667-29.152206 3.744567-58.07373 12.127624-86.123611 4.693726-15.705132 11.332459-30.635048 22.626831-42.948769 9.950073-10.848083 21.79541-17.986053 37.048584-17.758995 12.304505.183174 24.7594-.535614 36.874512 1.13089 21.118225 2.904922 34.307495 16.701301 37.92218 38.004639 1.272827 7.501144 1.997376 15.188461 2.020935 22.793701.191895 61.994293.060364 123.9897.32489 185.983505.030823 7.230408 1.347351 14.574066 2.981873 21.654175 3.380066 14.641021 14.102051 21.73172 28.02478 23.104614 15.456482 1.52417 31.077149 1.382996 46.323303 1.955505-6.974365-7.9104-14.349914-14.928222-20.104126-23.089202-11.209716-15.898377-16.818969-34.229523-20.362976-53.194367-3.893371-20.835236-5.429992-41.926514-4.816772-63.050796.684814-23.589325 1.911804-47.194687 3.951355-70.702088 1.424682-16.420029 5.284424-32.438278 13.520996-47.133903 10.762634-19.202675 26.749939-31.565293 48.310486-35.217789 26.554931-4.498558 53.520752-3.83728 80.103576-.783592 21.189637 2.434135 37.700806 14.281257 48.734131 32.968918 4.588928 7.772415 6.322876 16.396804 7.060974 25.232849.359681 4.307296.229554 8.660019.229737 12.992187.00885 225.647797.007873 451.295593.008117 677.440735z" fill="#cdb591"/><path d="m1831.078735 335.784058c18.16211.047302 36.339722.573761 54.480957-.019745 12.952515-.423767 23.432129-7.014374 32.570313-16.064514 10.041382-9.944458 14.616699-21.707673 14.165039-35.810669-.286987-8.967591.733643-17.981385.356934-26.940369-.264161-6.285095 1.635742-11.106567 5.62561-15.782532 4.857422-5.69255 9.120727-11.892013 14.521118-19.036484.116455 2.556733.196655 3.487854.195679 4.4189-.023316 20.995804.300415 41.999786-.181641 62.985199-.521606 22.697052-6.339355 43.982788-20.343017 62.283478-15.324341 20.026916-35.364258 32.583221-60.589966 36.163147-4.567749.648254-9.215699.99881-13.828491 1.016937-26.994629.106049-53.989869.053986-80.984864.105316-4.150512.007874-8.423584-.270752-10.478882-4.297882-2.220581-4.350891-.905395-8.679108 2.17627-12.412628.945679-1.145783 1.812866-2.361603 2.814575-3.455109 11.095337-12.11264 22.512329-23.946624 33.241211-36.374756 12.75-14.769348 25.022705-29.956543 37.303711-45.123291 17.523315-21.640594 32.616333-44.877716 45.500122-69.584747 14.059204-26.961151 15.29419-54.783325 5.166748-83.001938-8.600586-23.963936-28.013183-30.976715-50.067261-28.478607-12.012817 1.360725-22.64685 6.558945-31.227295 14.859375-11.710693 11.328613-20.513549 24.711685-23.329101 41.158737-1.356567 7.923783-1.890259 15.988434-2.832275 24.305084-6.109375 0-12.355225 0-19.720582 0 .504517-8.342987.485108-16.602508 1.59668-24.706909 2.729004-19.896393 10.052124-37.987198 22.648804-53.811363 13.90979-17.473656 31.648071-28.68808 53.799927-32.128571 20.085571-3.11956 39.864257-1.571136 58.601074 6.863022 20.908691 9.411774 35.972778 24.624642 44.492431 46.163124 4.224854 10.681031 5.741578 21.860779 6.034424 33.116669.39917 15.349518-5.037719 29.366974-12.324951 42.561752-14.738037 26.685807-33.821899 50.168381-54.720581 72.190934-17.990845 18.958252-36.318115 37.597107-54.882568 56.832885-.184204.972321.017822 1.488953.219848 2.005555z" fill="#cdb592"/><path d="m1831.053589 335.472107c-.17688-.204651-.378906-.721283-.351441-1.401428.261597.25415.293946.671783.351441 1.401428z" fill="#f2ece3"/></svg>