<svg version="1.1" id="Layer_1" xmlns="http://www.w3.org/2000/svg" xmlns:xlink="http://www.w3.org/1999/xlink" x="0px" y="0px"
	 width="100%" viewBox="0 0 1596 794" enable-background="new 0 0 1596 794" xml:space="preserve">
<path fill="#FFFFFF" opacity="1.000000" stroke="none" 
	d="
M1.000000,678.000000 
	C1.000000,452.000031 1.000000,226.500061 1.000000,1.000061 
	C532.999939,1.000040 1064.999878,1.000040 1596.999756,1.000020 
	C1596.999878,598.999817 1596.999878,1196.999634 1597.000000,1794.999634 
	C1065.000244,1794.999756 533.000427,1794.999756 1.000338,1794.999878 
	C1.000000,1422.833374 1.000000,1050.666626 1.000000,678.000000 
M922.521057,386.879150 
	C922.659851,388.257751 922.798645,389.636383 922.415344,391.632111 
	C922.599487,395.419220 922.783691,399.206299 923.108154,403.913086 
	C923.181824,405.243317 923.399841,406.583740 923.306396,407.902130 
	C922.575256,418.216736 926.953735,426.153381 935.306824,431.622528 
	C941.191284,435.475372 947.694214,436.393585 955.117065,435.372864 
	C962.221436,434.395966 967.224792,432.141113 970.014587,425.631989 
	C975.376282,413.122528 973.496948,401.024780 966.870911,389.701538 
	C960.788757,379.307556 951.152100,372.529663 940.649048,367.157806 
	C936.800659,365.189545 935.523560,362.832703 935.547852,358.629333 
	C935.708618,330.801239 935.565125,302.971466 935.694397,275.143036 
	C935.716553,270.370605 935.994873,265.455414 937.164673,260.863403 
	C939.323792,252.387894 944.163696,245.805801 952.438354,241.935349 
	C959.600952,238.585022 967.168274,238.228775 974.749268,238.366333 
	C990.599243,238.653976 1006.483337,238.836121 1022.263184,240.146805 
	C1027.095581,240.548157 1032.264526,243.722794 1036.177368,246.959457 
	C1044.472290,253.820786 1046.100098,264.126099 1046.204346,273.957123 
	C1046.629028,313.946442 1046.389038,353.942871 1046.376709,393.936676 
	C1046.372437,407.590546 1046.316895,421.244415 1046.041382,435.817261 
	C1045.700317,443.890350 1045.534912,451.975647 1044.974731,460.033508 
	C1044.241455,470.581970 1039.922974,479.504364 1030.241577,484.290741 
	C1007.388855,495.588898 984.560120,507.023712 961.168823,517.122742 
	C929.881104,530.630981 900.362671,546.895691 875.050232,569.795227 
	C863.191040,580.523865 852.110291,592.371216 842.164185,604.893127 
	C828.622986,621.940979 818.432129,641.130432 811.106018,661.778442 
	C803.468750,683.303406 799.341064,705.460632 799.312195,728.237549 
	C799.295288,741.562012 800.600403,754.886719 801.253540,768.214172 
	C801.462341,772.474792 801.269409,777.425903 805.696228,779.263245 
	C810.518066,781.264587 813.258789,776.662842 815.659973,773.540039 
	C831.186340,753.347534 847.373962,733.687683 867.176575,717.562866 
	C879.326782,707.669189 892.152161,698.382446 905.576416,690.326233 
	C927.352051,677.257996 952.270203,672.381104 976.476868,665.973938 
	C988.872192,662.692993 1001.511963,660.060547 1014.200989,658.262451 
	C1022.394714,657.101501 1030.877930,657.974854 1039.231445,657.953857 
	C1045.412476,657.938293 1051.593384,657.950806 1057.846313,657.950806 
	C1058.455078,654.861633 1059.150635,651.331848 1059.870972,647.675964 
	C1056.908813,646.810303 1054.152100,645.740479 1051.295166,645.215088 
	C1038.001343,642.770020 1025.321045,637.426758 1011.597290,636.942871 
	C1009.028748,636.852234 1006.497864,635.690918 1003.264954,634.844543 
	C1001.184570,635.130798 998.179321,635.778931 995.152100,635.907227 
	C990.384155,636.109375 985.597473,635.838074 980.825745,635.988708 
	C971.493408,636.283386 962.165344,636.718201 952.837708,637.143982 
	C952.227600,637.171814 951.636108,637.612732 951.036316,637.862305 
	C948.331482,638.988037 945.711304,640.425110 942.907532,641.186584 
	C929.875854,644.725647 916.905518,648.152344 905.502686,656.021118 
	C897.864380,661.292053 890.198792,666.374817 883.617310,673.021057 
	C877.800964,678.894775 871.578613,684.369202 865.475647,689.954468 
	C864.090393,691.222168 862.127380,691.960083 861.002563,693.391541 
	C857.805298,697.460449 855.257812,702.079773 851.817383,705.910034 
	C842.574951,716.199829 833.283569,726.386047 826.112793,738.341492 
	C823.337341,742.968811 819.686646,747.071228 816.434692,751.412720 
	C815.181641,749.599365 815.013123,748.349426 815.018250,747.100159 
	C815.087280,730.287109 819.838623,714.394653 824.767151,698.566833 
	C826.629517,692.586121 830.040344,687.241272 832.373352,681.382019 
	C839.174866,664.300354 850.278748,649.609741 861.512207,635.330505 
	C878.418152,613.840881 897.811157,594.675842 921.029114,579.846619 
	C948.495483,562.303894 976.367432,545.382874 1003.565491,527.437378 
	C1025.568115,512.919922 1046.745605,497.208313 1065.329834,478.266235 
	C1077.218262,466.148834 1084.490356,452.519989 1081.997925,434.054596 
	C1081.996460,380.569061 1082.014282,327.083496 1081.948364,273.598053 
	C1081.944092,270.142151 1081.566895,266.633026 1080.898315,263.240265 
	C1076.409058,240.455353 1059.088867,224.362473 1034.053833,225.376740 
	C1011.596802,226.286560 989.073608,225.597519 966.579712,225.557419 
	C954.672607,225.536194 945.222839,230.677719 937.070984,238.975510 
	C926.223755,250.016922 922.470642,263.551270 922.500427,278.570038 
	C922.549438,303.230011 922.514587,327.890137 922.515015,352.550201 
	C922.515015,354.303192 922.515015,356.056152 922.515015,357.220093 
	C903.117859,353.575012 884.317078,350.042023 864.914246,346.395874 
	C864.914246,345.348785 864.914246,343.551208 864.914246,341.753601 
	C864.914368,317.593414 865.058716,293.431793 864.822021,269.273926 
	C864.755676,262.507568 864.204346,255.609802 862.733398,249.027557 
	C860.864563,240.664703 856.248230,233.657089 848.183899,229.813614 
	C834.142334,223.121368 819.205078,224.257690 804.770447,227.022202 
	C787.359741,230.356674 781.089355,245.441635 775.359558,259.807556 
	C772.173828,267.794800 770.441406,276.426788 768.681396,284.898560 
	C767.047424,292.763855 765.533508,300.776031 765.238953,308.770386 
	C764.737244,322.390045 765.035217,336.051483 765.381653,349.685608 
	C765.596008,358.119141 765.798950,366.666534 767.307251,374.925354 
	C769.262146,385.629425 771.895569,396.306763 775.399719,406.599701 
	C778.169800,414.736389 782.748535,422.072540 789.479980,428.074677 
	C795.534729,433.473358 802.393616,434.958923 810.558105,435.529358 
	C812.369019,435.343903 814.179993,435.158447 816.541199,434.353271 
	C816.710510,430.899567 816.879761,427.445862 817.449829,423.634979 
	C816.979980,423.082306 816.510193,422.529633 815.208801,421.758850 
	C810.823608,421.096802 806.088623,421.267517 802.124695,419.602600 
	C793.361389,415.921936 789.857056,407.644592 786.974915,399.322571 
	C780.702393,381.211182 779.447083,362.318909 778.973206,343.380127 
	C778.327515,317.577698 778.557068,291.832489 786.893799,266.934753 
	C789.964539,257.763763 793.861023,249.164810 801.497070,242.737915 
	C810.590759,235.084213 823.365723,238.073120 826.522583,249.026245 
	C828.052673,254.334900 829.084961,259.994598 829.102966,265.499420 
	C829.283508,320.789093 829.201233,376.079590 829.235168,431.369843 
	C829.235901,432.609497 829.732666,433.848816 830.588074,435.680298 
	C839.338440,435.786011 848.088806,435.959961 856.839050,435.952820 
	C859.227295,435.950867 861.615051,435.404694 864.635437,434.515289 
	C864.728516,422.377808 864.857361,410.240509 864.904541,398.102844 
	C864.950989,386.141205 864.914673,374.179230 864.914673,361.623138 
	C868.710022,362.114838 872.087280,362.617432 875.479614,362.977631 
	C881.559387,363.623108 887.780884,363.592224 893.700806,364.922485 
	C901.782532,366.738525 909.709045,369.359833 917.538208,372.103485 
	C919.441772,372.770599 920.705322,375.263824 921.665527,377.291443 
	C921.864624,380.223206 922.063721,383.154968 922.521057,386.879150 
M1573.382935,435.160278 
	C1574.815308,435.061401 1576.247681,434.962524 1578.004150,434.841309 
	C1578.004150,433.365540 1578.004272,432.227814 1578.004272,431.090118 
	C1578.003418,378.761993 1578.026855,326.433838 1577.958374,274.105804 
	C1577.952515,269.638367 1577.705444,265.106140 1576.929932,260.717163 
	C1574.694824,248.067825 1570.149780,236.226807 1557.647705,230.715424 
	C1550.306763,227.479202 1541.818604,225.613922 1533.786987,225.403870 
	C1508.473389,224.741730 1483.131714,225.152802 1457.800903,225.148529 
	C1457.213501,225.148438 1456.625977,225.148529 1454.740234,225.148529 
	C1467.029175,235.292557 1467.958008,248.385635 1467.973511,261.692108 
	C1468.029785,310.020569 1468.014038,358.349182 1467.956787,406.677612 
	C1467.952759,410.099792 1467.735229,413.603271 1466.944946,416.908203 
	C1466.555420,418.537476 1464.883545,420.613708 1463.356079,421.090118 
	C1455.710327,423.474670 1452.005493,420.562866 1452.005249,412.640808 
	C1452.003174,367.311981 1452.205444,321.981445 1451.814697,276.656006 
	C1451.746216,268.710907 1450.506226,260.251373 1447.529541,252.959305 
	C1440.128906,234.830399 1425.669556,225.428162 1406.123291,225.270172 
	C1381.492432,225.071091 1356.854126,225.663940 1332.220215,226.002625 
	C1312.904297,226.268188 1293.548706,248.439590 1293.176880,266.361969 
	C1292.582642,295.011993 1292.741821,323.677704 1292.584717,352.336761 
	C1292.574341,354.232849 1292.583374,356.129059 1292.583374,357.413879 
	C1273.029053,353.680756 1254.187744,350.083740 1234.851807,346.392303 
	C1234.851807,345.544617 1234.867554,343.735870 1234.849487,341.927460 
	C1234.570190,313.963318 1234.338989,285.998535 1233.981323,258.035400 
	C1233.809814,244.625290 1225.812988,231.727768 1214.674927,228.230835 
	C1201.672485,224.148560 1188.257812,223.959885 1174.905396,226.717178 
	C1162.021851,229.377655 1154.557617,239.150406 1149.549805,249.722794 
	C1144.289795,260.827911 1140.861328,273.047729 1138.356445,285.137695 
	C1136.083862,296.106873 1135.837158,307.541107 1135.248291,318.799164 
	C1134.796387,327.434662 1134.968140,336.123627 1135.286621,344.773193 
	C1135.660767,354.938385 1135.715332,365.213287 1137.342041,375.207275 
	C1139.024292,385.541748 1141.758667,395.830261 1145.224854,405.721100 
	C1151.121582,422.547974 1160.447388,433.755402 1179.845459,435.999939 
	C1186.103271,436.723999 1186.837769,436.117950 1186.850830,429.920593 
	C1186.855957,427.457336 1186.851685,424.994049 1186.851685,423.222260 
	C1180.915894,421.693054 1174.981934,421.365326 1170.360474,418.733032 
	C1159.490723,412.541840 1156.748779,400.939148 1154.075562,389.862701 
	C1149.140625,369.415344 1148.721680,348.501312 1148.641113,327.595947 
	C1148.569336,308.988342 1149.982544,290.541107 1155.002197,272.517487 
	C1157.584961,263.243347 1160.905151,254.306488 1167.003296,246.663574 
	C1172.108276,240.265259 1179.033569,237.563889 1186.788696,238.989761 
	C1193.739258,240.267700 1196.618530,245.937454 1197.299194,252.679764 
	C1197.874146,258.374786 1198.907959,264.070526 1198.921387,269.767883 
	C1199.046875,322.928955 1198.995728,376.090454 1198.995728,429.251831 
	C1198.995728,431.162292 1198.995728,433.072784 1198.995728,434.771606 
	C1211.377563,434.771606 1222.952515,434.771606 1234.886475,434.771606 
	C1234.886475,410.446777 1234.886475,386.507294 1234.886475,361.706665 
	C1254.919067,363.274963 1274.157471,366.108459 1293.259521,373.766724 
	C1293.259521,385.551666 1293.638184,397.223633 1293.128174,408.856628 
	C1292.780273,416.795105 1296.464600,422.790161 1300.990723,428.311798 
	C1306.788818,435.384888 1321.737793,437.984680 1330.840088,434.361420 
	C1336.735474,432.014709 1340.334351,427.627808 1341.753784,421.677307 
	C1344.623169,409.648346 1342.769043,398.328369 1335.556885,388.125977 
	C1328.892944,378.699066 1320.156860,371.751740 1309.679688,366.934418 
	C1307.297607,365.839172 1305.277710,364.794891 1305.317017,361.247681 
	C1305.661255,330.090485 1305.621582,298.928955 1305.993164,267.772247 
	C1306.163818,253.457687 1314.719727,242.848663 1328.768799,240.066635 
	C1336.625366,238.510895 1344.807251,238.225967 1352.854126,238.096313 
	C1363.096802,237.931274 1373.393433,238.035599 1383.583496,238.950317 
	C1388.831665,239.421417 1394.164185,241.331757 1398.998535,243.580780 
	C1412.635132,249.924744 1415.963013,262.440033 1416.033936,275.800385 
	C1416.300537,325.952820 1416.121216,376.107666 1416.089722,426.261627 
	C1416.086304,431.623932 1418.609863,434.648804 1424.020752,434.755371 
	C1437.346069,435.017731 1450.676025,435.099701 1464.004517,435.145782 
	C1481.302979,435.205627 1481.409546,435.073151 1481.412598,417.578735 
	C1481.422485,359.917816 1481.416504,302.256866 1481.416626,244.595932 
	C1481.416626,242.633759 1481.416626,240.671600 1481.416626,237.375427 
	C1494.237549,238.595413 1506.496338,239.599045 1518.713013,240.976776 
	C1528.206299,242.047394 1535.699463,246.986588 1538.520752,256.083221 
	C1540.960327,263.949097 1542.354248,272.455902 1542.411987,280.691956 
	C1542.757812,330.017975 1542.583374,379.347595 1542.583374,428.676025 
	C1542.583374,430.635284 1542.583374,432.594574 1542.583374,435.160461 
	C1552.838623,435.160461 1562.620728,435.160461 1573.382935,435.160278 
M116.889786,316.500031 
	C116.889709,301.335938 117.201393,286.162720 116.759430,271.011505 
	C116.534874,263.313324 115.617249,255.495590 113.825302,248.016434 
	C111.287827,237.425659 104.628418,229.636780 93.580132,227.628784 
	C85.185974,226.103210 76.493713,226.164291 67.925812,225.660187 
	C53.488613,224.810760 42.730850,231.036728 35.149746,243.094925 
	C29.378542,252.274399 25.172867,262.107422 23.125795,272.802399 
	C21.081141,283.484833 18.155392,294.094025 17.246216,304.872864 
	C16.230719,316.912231 17.201853,329.108459 17.031303,341.232544 
	C16.824495,355.933807 18.174854,370.438019 21.166193,384.840149 
	C23.593258,396.525482 26.228655,407.940369 32.951302,418.229431 
	C41.677952,431.585632 51.473793,436.994934 67.809662,434.476685 
	C67.809662,430.375366 67.809662,426.264862 67.809662,421.962036 
	C65.657959,421.758942 63.673710,421.328522 61.717289,421.430756 
	C54.731663,421.795776 49.624798,418.421326 45.767479,413.143372 
	C43.272018,409.728851 41.044785,405.959229 39.508617,402.031433 
	C34.062145,388.105438 32.330894,373.316620 31.197508,358.608582 
	C30.188665,345.516754 30.676298,332.299774 30.722214,319.138794 
	C30.792835,298.895752 33.477013,279.027771 41.100784,260.156952 
	C44.998215,250.509796 49.847427,241.515106 61.759232,239.215576 
	C69.289543,237.761902 75.898521,240.387360 77.944107,247.682571 
	C79.417175,252.935989 80.447876,258.505798 80.477074,263.940918 
	C80.686600,302.935577 80.550102,341.931976 80.636726,380.927582 
	C80.648018,386.011627 80.975571,391.144348 81.737892,396.166290 
	C83.020897,404.618317 87.001221,412.042908 92.396225,418.491028 
	C100.614082,428.313141 110.357170,435.194733 124.161652,435.060272 
	C155.655258,434.753479 187.153946,434.983337 218.650452,434.927338 
	C221.229797,434.922760 223.872818,434.673004 226.376389,434.076324 
	C240.285187,430.761230 249.091583,421.229553 256.012390,409.447083 
	C261.480988,400.137024 262.614563,389.782928 262.663391,379.375092 
	C262.846283,340.380157 262.700867,301.383728 262.788605,262.388153 
	C262.797882,258.251129 263.159882,254.036575 264.021973,249.999725 
	C265.091339,244.992325 267.124725,239.815750 272.893372,239.054062 
	C278.226624,238.349838 283.758972,239.019455 289.194977,239.271606 
	C293.302155,239.462112 295.875885,242.437943 296.850250,245.761581 
	C298.646790,251.889832 300.558807,258.287323 300.591370,264.582092 
	C300.876404,319.741333 300.754395,374.902679 300.766113,430.063385 
	C300.766449,431.632324 300.911407,433.201233 300.998444,434.962738 
	C310.929688,434.962738 320.244965,434.960449 329.560211,434.963531 
	C336.167816,434.965698 336.177155,434.968933 336.177490,428.365082 
	C336.180115,374.537567 336.224701,320.709930 336.121643,266.882629 
	C336.108643,260.092407 335.822662,253.223679 334.769867,246.531891 
	C332.889252,234.578674 327.975708,227.371765 315.915833,226.320511 
	C300.049164,224.937408 283.951904,225.565735 267.986725,226.181854 
	C258.301239,226.555603 253.875229,232.324753 251.057266,241.997269 
	C248.641342,250.289810 249.376572,258.442413 249.393051,266.732697 
	C249.469925,305.395050 249.472961,344.057770 249.349625,382.719879 
	C249.338638,386.164032 248.400177,389.645264 247.597000,393.039337 
	C245.317886,402.670441 238.778503,409.650421 231.242355,414.982239 
	C226.285355,418.489319 219.503815,420.887634 213.445206,421.100220 
	C192.807068,421.824280 172.127151,421.373718 151.463287,421.326569 
	C149.138229,421.321259 146.663940,421.491882 144.513290,420.795349 
	C129.878723,416.055359 116.305763,400.937897 116.742134,384.488922 
	C117.334137,362.173676 116.889679,339.830994 116.889786,316.500031 
M487.993408,258.381439 
	C487.852173,244.667389 479.907410,229.014160 463.993256,227.151611 
	C454.081573,225.991592 443.988464,225.940414 433.988434,226.104599 
	C424.587433,226.258942 417.165527,230.767059 411.122345,238.076218 
	C402.605499,248.377304 398.122162,260.469910 395.197205,273.137451 
	C392.970703,282.780090 391.613525,292.655060 390.407715,302.492615 
	C389.255615,311.891968 388.194702,321.377014 388.202972,330.823425 
	C388.211548,340.654846 389.459045,350.492920 390.331787,360.313263 
	C391.005554,367.894684 391.513489,375.529114 392.853210,383.004120 
	C394.883209,394.330170 398.532562,405.085510 403.753448,415.523010 
	C410.563599,429.137695 422.756958,436.835663 437.841095,434.968903 
	C438.747528,434.856720 440.325165,434.327301 440.356293,433.901672 
	C440.620514,430.294128 441.054352,426.575226 440.366730,423.101654 
	C440.175140,422.133728 436.405640,421.352905 434.289429,421.381042 
	C426.751648,421.481171 421.430542,417.995880 417.258789,412.042480 
	C407.720917,398.431274 405.923889,382.399597 404.289551,366.734406 
	C402.668121,351.192993 403.114319,335.413788 403.053741,319.737305 
	C402.979401,300.507477 405.336761,281.515656 412.139313,263.459198 
	C416.324615,252.349899 420.676300,240.854172 435.434723,239.184601 
	C441.496613,238.498856 448.627075,240.919464 449.914795,246.789352 
	C451.721985,255.026917 453.351044,263.502502 453.418152,271.889435 
	C453.760803,314.711975 453.559448,357.538757 453.598846,400.363983 
	C453.603577,405.519012 453.579163,410.710999 454.146851,415.821564 
	C455.722504,430.006409 462.703003,433.784698 473.851898,434.427338 
	C489.794220,435.346252 505.816467,434.947571 521.804871,434.983612 
	C548.133057,435.042938 574.462036,434.926331 600.789490,435.080780 
	C604.641479,435.103363 605.912842,434.207214 606.000793,430.112915 
	C606.115662,424.769012 605.658936,420.621429 599.191040,420.006378 
	C598.457581,419.936615 597.720825,419.311493 597.093079,418.809540 
	C588.986755,412.328278 580.769470,405.977020 572.841858,399.283173 
	C563.380432,391.294189 552.796997,386.049896 540.362976,385.074829 
	C531.291321,384.363403 531.148315,384.817261 530.972168,393.988861 
	C530.887695,398.384827 532.973022,399.841064 536.794678,399.996979 
	C538.291931,400.058105 539.823303,400.200104 541.288696,399.975525 
	C551.361694,398.431915 557.200684,405.049896 562.933899,411.453064 
	C565.269653,414.061676 566.637024,417.537354 568.663086,420.990234 
	C544.745789,420.990234 521.776489,421.082275 498.809113,420.915863 
	C493.964203,420.880768 490.626923,417.427856 489.903015,412.546600 
	C489.392029,409.101044 489.017090,405.598145 489.012543,402.120270 
	C488.954498,357.628723 488.993774,313.137024 488.932739,268.645477 
	C488.928467,265.528656 488.328552,262.412628 487.993408,258.381439 
M844.538086,44.976654 
	C838.620056,51.610756 832.248657,57.899109 826.873657,64.947327 
	C813.661011,82.272827 806.598022,102.282883 805.292847,123.799286 
	C804.520996,136.523254 805.869080,149.509567 807.551880,162.207199 
	C808.946594,172.731293 812.606445,182.831314 820.900574,190.388336 
	C832.066589,200.561981 845.233215,201.469208 858.782593,197.382278 
	C874.503601,192.640335 889.966675,187.026108 905.470886,181.588470 
	C918.628906,176.973740 931.549316,177.906418 943.691223,184.114792 
	C953.805237,189.286331 964.593018,194.484650 966.664856,207.684616 
	C978.378723,207.684616 990.109863,207.684616 1002.090332,207.684616 
	C1002.090332,205.841171 1002.090332,204.357925 1002.090271,202.874664 
	C1002.089417,160.234161 1002.003174,117.593246 1002.209534,74.953743 
	C1002.232117,70.284866 1002.028687,65.849213 1001.254150,61.221733 
	C1000.509399,56.772327 1000.351440,52.569874 998.685425,47.993404 
	C991.224854,27.499693 976.316162,16.587532 955.747375,13.143307 
	C924.570251,7.922755 894.781921,12.461623 867.372620,28.818533 
	C859.588501,33.463818 852.467651,39.220505 844.538086,44.976654 
M644.767395,225.240173 
	C642.466370,225.491867 640.171143,225.834518 637.863403,225.980103 
	C625.212097,226.778091 615.321106,232.637283 607.539551,242.404297 
	C606.488953,243.722946 605.466003,245.063553 604.207642,246.679977 
	C603.083252,245.404312 602.401367,244.726944 601.829529,243.966751 
	C596.932617,237.456970 590.538086,233.029037 583.028015,229.980698 
	C570.415649,224.861343 557.214233,225.077591 544.153320,226.374481 
	C534.914856,227.291809 526.071045,230.956192 520.173523,238.595078 
	C511.007019,250.468246 508.475342,264.480377 509.031860,279.165924 
	C509.129059,281.730682 510.323242,283.489563 513.371094,283.016724 
	C516.539429,282.525208 519.721252,282.120209 522.613831,281.716888 
	C523.058289,277.695282 523.450806,274.257324 523.816650,270.816498 
	C526.461975,245.935669 544.098328,234.329117 567.570557,240.891037 
	C579.530273,244.234528 586.453247,253.096359 591.864258,263.388031 
	C594.852417,269.071655 597.152161,275.117218 600.046936,281.641266 
	C603.907654,275.143585 607.172119,269.124573 610.945190,263.443268 
	C614.916748,257.463135 618.707031,251.123444 623.775513,246.166901 
	C631.445068,238.666763 641.374939,238.338486 651.606567,239.826645 
	C661.063477,241.202118 667.442444,245.881134 671.575989,254.521027 
	C676.060791,263.895111 676.510864,274.120789 676.638977,283.838074 
	C677.282227,332.660431 676.931580,381.495819 676.942871,430.326630 
	C676.943237,431.759430 677.086365,433.192139 677.182739,434.996674 
	C687.213562,434.996674 696.857910,434.728119 706.476379,435.111420 
	C711.193542,435.299408 712.342285,433.817596 712.325256,429.238342 
	C712.161499,385.241241 712.289490,341.243103 712.172424,297.245697 
	C712.150330,288.959229 711.856750,280.624176 710.919617,272.399170 
	C708.575073,251.821579 696.847046,238.183990 678.235168,230.057678 
	C667.846375,225.521744 656.704712,225.727020 644.767395,225.240173 
z"/>
<path fill="#C57035" opacity="1.000000" stroke="none" 
	d="
M1572.892822,435.160370 
	C1562.620728,435.160461 1552.838623,435.160461 1542.583374,435.160461 
	C1542.583374,432.594574 1542.583374,430.635284 1542.583374,428.676025 
	C1542.583374,379.347595 1542.757812,330.017975 1542.411987,280.691956 
	C1542.354248,272.455902 1540.960327,263.949097 1538.520752,256.083221 
	C1535.699463,246.986588 1528.206299,242.047394 1518.713013,240.976776 
	C1506.496338,239.599045 1494.237549,238.595413 1481.416626,237.375427 
	C1481.416626,240.671600 1481.416626,242.633759 1481.416626,244.595932 
	C1481.416504,302.256866 1481.422485,359.917816 1481.412598,417.578735 
	C1481.409546,435.073151 1481.302979,435.205627 1464.004517,435.145782 
	C1450.676025,435.099701 1437.346069,435.017731 1424.020752,434.755371 
	C1418.609863,434.648804 1416.086304,431.623932 1416.089722,426.261627 
	C1416.121216,376.107666 1416.300537,325.952820 1416.033936,275.800385 
	C1415.963013,262.440033 1412.635132,249.924744 1398.998535,243.580780 
	C1394.164185,241.331757 1388.831665,239.421417 1383.583496,238.950317 
	C1373.393433,238.035599 1363.096802,237.931274 1352.854126,238.096313 
	C1344.807251,238.225967 1336.625366,238.510895 1328.768799,240.066635 
	C1314.719727,242.848663 1306.163818,253.457687 1305.993164,267.772247 
	C1305.621582,298.928955 1305.661255,330.090485 1305.317017,361.247681 
	C1305.277710,364.794891 1307.297607,365.839172 1309.679688,366.934418 
	C1320.156860,371.751740 1328.892944,378.699066 1335.556885,388.125977 
	C1342.769043,398.328369 1344.623169,409.648346 1341.753784,421.677307 
	C1340.334351,427.627808 1336.735474,432.014709 1330.840088,434.361420 
	C1321.737793,437.984680 1306.788818,435.384888 1300.990723,428.311798 
	C1296.464600,422.790161 1292.780273,416.795105 1293.128174,408.856628 
	C1293.638184,397.223633 1293.259521,385.551666 1293.259521,373.766724 
	C1274.157471,366.108459 1254.919067,363.274963 1234.886475,361.706665 
	C1234.886475,386.507294 1234.886475,410.446777 1234.886475,434.771606 
	C1222.952515,434.771606 1211.377563,434.771606 1198.995728,434.771606 
	C1198.995728,433.072784 1198.995728,431.162292 1198.995728,429.251831 
	C1198.995728,376.090454 1199.046875,322.928955 1198.921387,269.767883 
	C1198.907959,264.070526 1197.874146,258.374786 1197.299194,252.679764 
	C1196.618530,245.937454 1193.739258,240.267700 1186.788696,238.989761 
	C1179.033569,237.563889 1172.108276,240.265259 1167.003296,246.663574 
	C1160.905151,254.306488 1157.584961,263.243347 1155.002197,272.517487 
	C1149.982544,290.541107 1148.569336,308.988342 1148.641113,327.595947 
	C1148.721680,348.501312 1149.140625,369.415344 1154.075562,389.862701 
	C1156.748779,400.939148 1159.490723,412.541840 1170.360474,418.733032 
	C1174.981934,421.365326 1180.915894,421.693054 1186.851685,423.222260 
	C1186.851685,424.994049 1186.855957,427.457336 1186.850830,429.920593 
	C1186.837769,436.117950 1186.103271,436.723999 1179.845459,435.999939 
	C1160.447388,433.755402 1151.121582,422.547974 1145.224854,405.721100 
	C1141.758667,395.830261 1139.024292,385.541748 1137.342041,375.207275 
	C1135.715332,365.213287 1135.660767,354.938385 1135.286621,344.773193 
	C1134.968140,336.123627 1134.796387,327.434662 1135.248291,318.799164 
	C1135.837158,307.541107 1136.083862,296.106873 1138.356445,285.137695 
	C1140.861328,273.047729 1144.289795,260.827911 1149.549805,249.722794 
	C1154.557617,239.150406 1162.021851,229.377655 1174.905396,226.717178 
	C1188.257812,223.959885 1201.672485,224.148560 1214.674927,228.230835 
	C1225.812988,231.727768 1233.809814,244.625290 1233.981323,258.035400 
	C1234.338989,285.998535 1234.570190,313.963318 1234.849487,341.927460 
	C1234.867554,343.735870 1234.851807,345.544617 1234.851807,346.392303 
	C1254.187744,350.083740 1273.029053,353.680756 1292.583374,357.413879 
	C1292.583374,356.129059 1292.574341,354.232849 1292.584717,352.336761 
	C1292.741821,323.677704 1292.582642,295.011993 1293.176880,266.361969 
	C1293.548706,248.439590 1312.904297,226.268188 1332.220215,226.002625 
	C1356.854126,225.663940 1381.492432,225.071091 1406.123291,225.270172 
	C1425.669556,225.428162 1440.128906,234.830399 1447.529541,252.959305 
	C1450.506226,260.251373 1451.746216,268.710907 1451.814697,276.656006 
	C1452.205444,321.981445 1452.003174,367.311981 1452.005249,412.640808 
	C1452.005493,420.562866 1455.710327,423.474670 1463.356079,421.090118 
	C1464.883545,420.613708 1466.555420,418.537476 1466.944946,416.908203 
	C1467.735229,413.603271 1467.952759,410.099792 1467.956787,406.677612 
	C1468.014038,358.349182 1468.029785,310.020569 1467.973511,261.692108 
	C1467.958008,248.385635 1467.029175,235.292557 1454.740234,225.148529 
	C1456.625977,225.148529 1457.213501,225.148438 1457.800903,225.148529 
	C1483.131714,225.152802 1508.473389,224.741730 1533.786987,225.403870 
	C1541.818604,225.613922 1550.306763,227.479202 1557.647705,230.715424 
	C1570.149780,236.226807 1574.694824,248.067825 1576.929932,260.717163 
	C1577.705444,265.106140 1577.952515,269.638367 1577.958374,274.105804 
	C1578.026855,326.433838 1578.003418,378.761993 1578.004272,431.090118 
	C1578.004272,432.227814 1578.004150,433.365540 1578.004150,434.841309 
	C1576.247681,434.962524 1574.815308,435.061401 1572.892822,435.160370 
M1322.852783,392.719574 
	C1317.531982,388.197998 1312.211060,383.676453 1306.890259,379.154907 
	C1306.255859,379.525726 1305.621582,379.896545 1304.987183,380.267365 
	C1305.463257,389.963440 1305.322510,399.742401 1306.610229,409.329468 
	C1307.645386,417.036041 1313.632812,421.642059 1320.504028,422.064941 
	C1325.861816,422.394653 1328.165405,420.629883 1329.022583,415.321350 
	C1330.340942,407.155487 1327.903564,399.925934 1322.852783,392.719574 
z"/>
<path fill="#040404" opacity="1.000000" stroke="none" 
	d="
M1046.284668,434.898285 
	C1046.316895,421.244415 1046.372437,407.590546 1046.376709,393.936676 
	C1046.389038,353.942871 1046.629028,313.946442 1046.204346,273.957123 
	C1046.100098,264.126099 1044.472290,253.820786 1036.177368,246.959457 
	C1032.264526,243.722794 1027.095581,240.548157 1022.263184,240.146805 
	C1006.483337,238.836121 990.599243,238.653976 974.749268,238.366333 
	C967.168274,238.228775 959.600952,238.585022 952.438354,241.935349 
	C944.163696,245.805801 939.323792,252.387894 937.164673,260.863403 
	C935.994873,265.455414 935.716553,270.370605 935.694397,275.143036 
	C935.565125,302.971466 935.708618,330.801239 935.547852,358.629333 
	C935.523560,362.832703 936.800659,365.189545 940.649048,367.157806 
	C951.152100,372.529663 960.788757,379.307556 966.870911,389.701538 
	C973.496948,401.024780 975.376282,413.122528 970.014587,425.631989 
	C967.224792,432.141113 962.221436,434.395966 955.117065,435.372864 
	C947.694214,436.393585 941.191284,435.475372 935.306824,431.622528 
	C926.953735,426.153381 922.575256,418.216736 923.306396,407.902130 
	C923.399841,406.583740 923.181824,405.243317 923.155884,403.077698 
	C923.114929,398.499847 923.026184,394.757416 922.937439,391.014984 
	C922.798645,389.636383 922.659851,388.257751 922.557739,386.048645 
	C922.484009,382.451202 922.373596,379.684326 922.263123,376.917419 
	C920.705322,375.263824 919.441772,372.770599 917.538208,372.103485 
	C909.709045,369.359833 901.782532,366.738525 893.700806,364.922485 
	C887.780884,363.592224 881.559387,363.623108 875.479614,362.977631 
	C872.087280,362.617432 868.710022,362.114838 864.914673,361.623138 
	C864.914673,374.179230 864.950989,386.141205 864.904541,398.102844 
	C864.857361,410.240509 864.728516,422.377808 863.851807,434.775513 
	C852.044800,435.053253 841.021423,435.070770 829.998047,435.088287 
	C829.732666,433.848816 829.235901,432.609497 829.235168,431.369843 
	C829.201233,376.079590 829.283508,320.789093 829.102966,265.499420 
	C829.084961,259.994598 828.052673,254.334900 826.522583,249.026245 
	C823.365723,238.073120 810.590759,235.084213 801.497070,242.737915 
	C793.861023,249.164810 789.964539,257.763763 786.893799,266.934753 
	C778.557068,291.832489 778.327515,317.577698 778.973206,343.380127 
	C779.447083,362.318909 780.702393,381.211182 786.974915,399.322571 
	C789.857056,407.644592 793.361389,415.921936 802.124695,419.602600 
	C806.088623,421.267517 810.823608,421.096802 815.717529,422.138123 
	C816.500488,423.009003 816.774780,423.500580 817.049072,423.992126 
	C816.879761,427.445862 816.710510,430.899567 815.835632,434.639984 
	C813.410889,434.988586 811.691650,435.050476 809.972473,435.112366 
	C802.393616,434.958923 795.534729,433.473358 789.479980,428.074677 
	C782.748535,422.072540 778.169800,414.736389 775.399719,406.599701 
	C771.895569,396.306763 769.262146,385.629425 767.307251,374.925354 
	C765.798950,366.666534 765.596008,358.119141 765.381653,349.685608 
	C765.035217,336.051483 764.737244,322.390045 765.238953,308.770386 
	C765.533508,300.776031 767.047424,292.763855 768.681396,284.898560 
	C770.441406,276.426788 772.173828,267.794800 775.359558,259.807556 
	C781.089355,245.441635 787.359741,230.356674 804.770447,227.022202 
	C819.205078,224.257690 834.142334,223.121368 848.183899,229.813614 
	C856.248230,233.657089 860.864563,240.664703 862.733398,249.027557 
	C864.204346,255.609802 864.755676,262.507568 864.822021,269.273926 
	C865.058716,293.431793 864.914368,317.593414 864.914246,341.753601 
	C864.914246,343.551208 864.914246,345.348785 864.914246,346.395874 
	C884.317078,350.042023 903.117859,353.575012 922.515015,357.220093 
	C922.515015,356.056152 922.515015,354.303192 922.515015,352.550201 
	C922.514587,327.890137 922.549438,303.230011 922.500427,278.570038 
	C922.470642,263.551270 926.223755,250.016922 937.070984,238.975510 
	C945.222839,230.677719 954.672607,225.536194 966.579712,225.557419 
	C989.073608,225.597519 1011.596802,226.286560 1034.053833,225.376740 
	C1059.088867,224.362473 1076.409058,240.455353 1080.898315,263.240265 
	C1081.566895,266.633026 1081.944092,270.142151 1081.948364,273.598053 
	C1082.014282,327.083496 1081.996460,380.569061 1081.466919,434.532043 
	C1069.385498,434.972412 1057.835083,434.935364 1046.284668,434.898285 
M954.698853,421.662170 
	C956.151489,419.428436 958.848389,417.173706 958.811096,414.965118 
	C958.718628,409.482208 958.385559,403.600128 956.317566,398.642303 
	C952.638489,389.821899 945.134888,384.386261 935.965393,380.578247 
	C935.690796,390.096710 935.396118,399.436249 936.821472,408.505524 
	C938.418518,418.667297 944.186462,422.493256 954.698853,421.662170 
z"/>
<path fill="#040404" opacity="1.000000" stroke="none" 
	d="
M116.889786,317.000061 
	C116.889679,339.830994 117.334137,362.173676 116.742134,384.488922 
	C116.305763,400.937897 129.878723,416.055359 144.513290,420.795349 
	C146.663940,421.491882 149.138229,421.321259 151.463287,421.326569 
	C172.127151,421.373718 192.807068,421.824280 213.445206,421.100220 
	C219.503815,420.887634 226.285355,418.489319 231.242355,414.982239 
	C238.778503,409.650421 245.317886,402.670441 247.597000,393.039337 
	C248.400177,389.645264 249.338638,386.164032 249.349625,382.719879 
	C249.472961,344.057770 249.469925,305.395050 249.393051,266.732697 
	C249.376572,258.442413 248.641342,250.289810 251.057266,241.997269 
	C253.875229,232.324753 258.301239,226.555603 267.986725,226.181854 
	C283.951904,225.565735 300.049164,224.937408 315.915833,226.320511 
	C327.975708,227.371765 332.889252,234.578674 334.769867,246.531891 
	C335.822662,253.223679 336.108643,260.092407 336.121643,266.882629 
	C336.224701,320.709930 336.180115,374.537567 336.177490,428.365082 
	C336.177155,434.968933 336.167816,434.965698 329.560211,434.963531 
	C320.244965,434.960449 310.929688,434.962738 300.998444,434.962738 
	C300.911407,433.201233 300.766449,431.632324 300.766113,430.063385 
	C300.754395,374.902679 300.876404,319.741333 300.591370,264.582092 
	C300.558807,258.287323 298.646790,251.889832 296.850250,245.761581 
	C295.875885,242.437943 293.302155,239.462112 289.194977,239.271606 
	C283.758972,239.019455 278.226624,238.349838 272.893372,239.054062 
	C267.124725,239.815750 265.091339,244.992325 264.021973,249.999725 
	C263.159882,254.036575 262.797882,258.251129 262.788605,262.388153 
	C262.700867,301.383728 262.846283,340.380157 262.663391,379.375092 
	C262.614563,389.782928 261.480988,400.137024 256.012390,409.447083 
	C249.091583,421.229553 240.285187,430.761230 226.376389,434.076324 
	C223.872818,434.673004 221.229797,434.922760 218.650452,434.927338 
	C187.153946,434.983337 155.655258,434.753479 124.161652,435.060272 
	C110.357170,435.194733 100.614082,428.313141 92.396225,418.491028 
	C87.001221,412.042908 83.020897,404.618317 81.737892,396.166290 
	C80.975571,391.144348 80.648018,386.011627 80.636726,380.927582 
	C80.550102,341.931976 80.686600,302.935577 80.477074,263.940918 
	C80.447876,258.505798 79.417175,252.935989 77.944107,247.682571 
	C75.898521,240.387360 69.289543,237.761902 61.759232,239.215576 
	C49.847427,241.515106 44.998215,250.509796 41.100784,260.156952 
	C33.477013,279.027771 30.792835,298.895752 30.722214,319.138794 
	C30.676298,332.299774 30.188665,345.516754 31.197508,358.608582 
	C32.330894,373.316620 34.062145,388.105438 39.508617,402.031433 
	C41.044785,405.959229 43.272018,409.728851 45.767479,413.143372 
	C49.624798,418.421326 54.731663,421.795776 61.717289,421.430756 
	C63.673710,421.328522 65.657959,421.758942 67.809662,421.962036 
	C67.809662,426.264862 67.809662,430.375366 67.809662,434.476685 
	C51.473793,436.994934 41.677952,431.585632 32.951302,418.229431 
	C26.228655,407.940369 23.593258,396.525482 21.166193,384.840149 
	C18.174854,370.438019 16.824495,355.933807 17.031303,341.232544 
	C17.201853,329.108459 16.230719,316.912231 17.246216,304.872864 
	C18.155392,294.094025 21.081141,283.484833 23.125795,272.802399 
	C25.172867,262.107422 29.378542,252.274399 35.149746,243.094925 
	C42.730850,231.036728 53.488613,224.810760 67.925812,225.660187 
	C76.493713,226.164291 85.185974,226.103210 93.580132,227.628784 
	C104.628418,229.636780 111.287827,237.425659 113.825302,248.016434 
	C115.617249,255.495590 116.534874,263.313324 116.759430,271.011505 
	C117.201393,286.162720 116.889709,301.335938 116.889786,317.000061 
z"/>
<path fill="#C57135" opacity="1.000000" stroke="none" 
	d="
M1046.163086,435.357788 
	C1057.835083,434.935364 1069.385498,434.972412 1081.393921,434.994324 
	C1084.490356,452.519989 1077.218262,466.148834 1065.329834,478.266235 
	C1046.745605,497.208313 1025.568115,512.919922 1003.565491,527.437378 
	C976.367432,545.382874 948.495483,562.303894 921.029114,579.846619 
	C897.811157,594.675842 878.418152,613.840881 861.512207,635.330505 
	C850.278748,649.609741 839.174866,664.300354 832.373352,681.382019 
	C830.040344,687.241272 826.629517,692.586121 824.767151,698.566833 
	C819.838623,714.394653 815.087280,730.287109 815.018250,747.100159 
	C815.013123,748.349426 815.181641,749.599365 816.434692,751.412720 
	C819.686646,747.071228 823.337341,742.968811 826.112793,738.341492 
	C833.283569,726.386047 842.574951,716.199829 851.817383,705.910034 
	C855.257812,702.079773 857.805298,697.460449 861.002563,693.391541 
	C862.127380,691.960083 864.090393,691.222168 865.475647,689.954468 
	C871.578613,684.369202 877.800964,678.894775 883.617310,673.021057 
	C890.198792,666.374817 897.864380,661.292053 905.502686,656.021118 
	C916.905518,648.152344 929.875854,644.725647 942.907532,641.186584 
	C945.711304,640.425110 948.331482,638.988037 951.036316,637.862305 
	C951.636108,637.612732 952.227600,637.171814 952.837708,637.143982 
	C962.165344,636.718201 971.493408,636.283386 980.825745,635.988708 
	C985.597473,635.838074 990.384155,636.109375 995.152100,635.907227 
	C998.179321,635.778931 1001.184570,635.130798 1003.264954,634.844543 
	C1006.497864,635.690918 1009.028748,636.852234 1011.597290,636.942871 
	C1025.321045,637.426758 1038.001343,642.770020 1051.295166,645.215088 
	C1054.152100,645.740479 1056.908813,646.810303 1059.870972,647.675964 
	C1059.150635,651.331848 1058.455078,654.861633 1057.846313,657.950806 
	C1051.593384,657.950806 1045.412476,657.938293 1039.231445,657.953857 
	C1030.877930,657.974854 1022.394714,657.101501 1014.200989,658.262451 
	C1001.511963,660.060547 988.872192,662.692993 976.476868,665.973938 
	C952.270203,672.381104 927.352051,677.257996 905.576416,690.326233 
	C892.152161,698.382446 879.326782,707.669189 867.176575,717.562866 
	C847.373962,733.687683 831.186340,753.347534 815.659973,773.540039 
	C813.258789,776.662842 810.518066,781.264587 805.696228,779.263245 
	C801.269409,777.425903 801.462341,772.474792 801.253540,768.214172 
	C800.600403,754.886719 799.295288,741.562012 799.312195,728.237549 
	C799.341064,705.460632 803.468750,683.303406 811.106018,661.778442 
	C818.432129,641.130432 828.622986,621.940979 842.164185,604.893127 
	C852.110291,592.371216 863.191040,580.523865 875.050232,569.795227 
	C900.362671,546.895691 929.881104,530.630981 961.168823,517.122742 
	C984.560120,507.023712 1007.388855,495.588898 1030.241577,484.290741 
	C1039.922974,479.504364 1044.241455,470.581970 1044.974731,460.033508 
	C1045.534912,451.975647 1045.700317,443.890350 1046.163086,435.357788 
z"/>
<path fill="#040404" opacity="1.000000" stroke="none" 
	d="
M487.999512,258.838837 
	C488.328552,262.412628 488.928467,265.528656 488.932739,268.645477 
	C488.993774,313.137024 488.954498,357.628723 489.012543,402.120270 
	C489.017090,405.598145 489.392029,409.101044 489.903015,412.546600 
	C490.626923,417.427856 493.964203,420.880768 498.809113,420.915863 
	C521.776489,421.082275 544.745789,420.990234 568.663086,420.990234 
	C566.637024,417.537354 565.269653,414.061676 562.933899,411.453064 
	C557.200684,405.049896 551.361694,398.431915 541.288696,399.975525 
	C539.823303,400.200104 538.291931,400.058105 536.794678,399.996979 
	C532.973022,399.841064 530.887695,398.384827 530.972168,393.988861 
	C531.148315,384.817261 531.291321,384.363403 540.362976,385.074829 
	C552.796997,386.049896 563.380432,391.294189 572.841858,399.283173 
	C580.769470,405.977020 588.986755,412.328278 597.093079,418.809540 
	C597.720825,419.311493 598.457581,419.936615 599.191040,420.006378 
	C605.658936,420.621429 606.115662,424.769012 606.000793,430.112915 
	C605.912842,434.207214 604.641479,435.103363 600.789490,435.080780 
	C574.462036,434.926331 548.133057,435.042938 521.804871,434.983612 
	C505.816467,434.947571 489.794220,435.346252 473.851898,434.427338 
	C462.703003,433.784698 455.722504,430.006409 454.146851,415.821564 
	C453.579163,410.710999 453.603577,405.519012 453.598846,400.363983 
	C453.559448,357.538757 453.760803,314.711975 453.418152,271.889435 
	C453.351044,263.502502 451.721985,255.026917 449.914795,246.789352 
	C448.627075,240.919464 441.496613,238.498856 435.434723,239.184601 
	C420.676300,240.854172 416.324615,252.349899 412.139313,263.459198 
	C405.336761,281.515656 402.979401,300.507477 403.053741,319.737305 
	C403.114319,335.413788 402.668121,351.192993 404.289551,366.734406 
	C405.923889,382.399597 407.720917,398.431274 417.258789,412.042480 
	C421.430542,417.995880 426.751648,421.481171 434.289429,421.381042 
	C436.405640,421.352905 440.175140,422.133728 440.366730,423.101654 
	C441.054352,426.575226 440.620514,430.294128 440.356293,433.901672 
	C440.325165,434.327301 438.747528,434.856720 437.841095,434.968903 
	C422.756958,436.835663 410.563599,429.137695 403.753448,415.523010 
	C398.532562,405.085510 394.883209,394.330170 392.853210,383.004120 
	C391.513489,375.529114 391.005554,367.894684 390.331787,360.313263 
	C389.459045,350.492920 388.211548,340.654846 388.202972,330.823425 
	C388.194702,321.377014 389.255615,311.891968 390.407715,302.492615 
	C391.613525,292.655060 392.970703,282.780090 395.197205,273.137451 
	C398.122162,260.469910 402.605499,248.377304 411.122345,238.076218 
	C417.165527,230.767059 424.587433,226.258942 433.988434,226.104599 
	C443.988464,225.940414 454.081573,225.991592 463.993256,227.151611 
	C479.907410,229.014160 487.852173,244.667389 487.999512,258.838837 
z"/>
<path fill="#C67035" opacity="1.000000" stroke="none" 
	d="
M844.790344,44.722084 
	C852.467651,39.220505 859.588501,33.463818 867.372620,28.818533 
	C894.781921,12.461623 924.570251,7.922755 955.747375,13.143307 
	C976.316162,16.587532 991.224854,27.499693 998.685425,47.993404 
	C1000.351440,52.569874 1000.509399,56.772327 1001.254150,61.221733 
	C1002.028687,65.849213 1002.232117,70.284866 1002.209534,74.953743 
	C1002.003174,117.593246 1002.089417,160.234161 1002.090271,202.874664 
	C1002.090332,204.357925 1002.090332,205.841171 1002.090332,207.684616 
	C990.109863,207.684616 978.378723,207.684616 966.664856,207.684616 
	C964.593018,194.484650 953.805237,189.286331 943.691223,184.114792 
	C931.549316,177.906418 918.628906,176.973740 905.470886,181.588470 
	C889.966675,187.026108 874.503601,192.640335 858.782593,197.382278 
	C845.233215,201.469208 832.066589,200.561981 820.900574,190.388336 
	C812.606445,182.831314 808.946594,172.731293 807.551880,162.207199 
	C805.869080,149.509567 804.520996,136.523254 805.292847,123.799286 
	C806.598022,102.282883 813.661011,82.272827 826.873657,64.947327 
	C832.248657,57.899109 838.620056,51.610756 844.790344,44.722084 
M965.911560,80.500168 
	C965.606262,70.015244 965.447327,59.523487 964.958496,49.047127 
	C964.350586,36.018173 957.933960,27.733250 944.998230,26.157543 
	C934.899536,24.927418 924.339844,25.068634 914.259216,26.513298 
	C866.036865,33.424042 819.373230,76.715027 819.586548,132.160889 
	C819.639221,145.856827 819.870605,159.527405 826.021667,172.175156 
	C831.221008,182.866058 840.205872,187.522736 851.518066,184.298767 
	C865.705322,180.255417 879.708679,175.471481 893.567017,170.394653 
	C909.124756,164.695236 924.878967,161.868240 940.866943,167.213593 
	C949.490967,170.096893 957.483093,174.870255 965.911499,178.862518 
	C965.911499,146.966431 965.911499,114.233253 965.911560,80.500168 
z"/>
<path fill="#030303" opacity="1.000000" stroke="none" 
	d="
M645.229736,225.226425 
	C656.704712,225.727020 667.846375,225.521744 678.235168,230.057678 
	C696.847046,238.183990 708.575073,251.821579 710.919617,272.399170 
	C711.856750,280.624176 712.150330,288.959229 712.172424,297.245697 
	C712.289490,341.243103 712.161499,385.241241 712.325256,429.238342 
	C712.342285,433.817596 711.193542,435.299408 706.476379,435.111420 
	C696.857910,434.728119 687.213562,434.996674 677.182739,434.996674 
	C677.086365,433.192139 676.943237,431.759430 676.942871,430.326630 
	C676.931580,381.495819 677.282227,332.660431 676.638977,283.838074 
	C676.510864,274.120789 676.060791,263.895111 671.575989,254.521027 
	C667.442444,245.881134 661.063477,241.202118 651.606567,239.826645 
	C641.374939,238.338486 631.445068,238.666763 623.775513,246.166901 
	C618.707031,251.123444 614.916748,257.463135 610.945190,263.443268 
	C607.172119,269.124573 603.907654,275.143585 600.046936,281.641266 
	C597.152161,275.117218 594.852417,269.071655 591.864258,263.388031 
	C586.453247,253.096359 579.530273,244.234528 567.570557,240.891037 
	C544.098328,234.329117 526.461975,245.935669 523.816650,270.816498 
	C523.450806,274.257324 523.058289,277.695282 522.613831,281.716888 
	C519.721252,282.120209 516.539429,282.525208 513.371094,283.016724 
	C510.323242,283.489563 509.129059,281.730682 509.031860,279.165924 
	C508.475342,264.480377 511.007019,250.468246 520.173523,238.595078 
	C526.071045,230.956192 534.914856,227.291809 544.153320,226.374481 
	C557.214233,225.077591 570.415649,224.861343 583.028015,229.980698 
	C590.538086,233.029037 596.932617,237.456970 601.829529,243.966751 
	C602.401367,244.726944 603.083252,245.404312 604.207642,246.679977 
	C605.466003,245.063553 606.488953,243.722946 607.539551,242.404297 
	C615.321106,232.637283 625.212097,226.778091 637.863403,225.980103 
	C640.171143,225.834518 642.466370,225.491867 645.229736,225.226425 
z"/>
<path fill="#DDDDDD" opacity="1.000000" stroke="none" 
	d="
M830.293030,435.384277 
	C841.021423,435.070770 852.044800,435.053253 863.535645,435.072021 
	C861.615051,435.404694 859.227295,435.950867 856.839050,435.952820 
	C848.088806,435.959961 839.338440,435.786011 830.293030,435.384277 
z"/>
<path fill="#DDDDDD" opacity="1.000000" stroke="none" 
	d="
M922.676392,391.323547 
	C923.026184,394.757416 923.114929,398.499847 923.085754,402.617859 
	C922.783691,399.206299 922.599487,395.419220 922.676392,391.323547 
z"/>
<path fill="#DDDDDD" opacity="1.000000" stroke="none" 
	d="
M921.964355,377.104431 
	C922.373596,379.684326 922.484009,382.451202 922.428589,385.652405 
	C922.063721,383.154968 921.864624,380.223206 921.964355,377.104431 
z"/>
<path fill="#BFBFBF" opacity="1.000000" stroke="none" 
	d="
M810.265259,435.320862 
	C811.691650,435.050476 813.410889,434.988586 815.560486,434.949829 
	C814.179993,435.158447 812.369019,435.343903 810.265259,435.320862 
z"/>
<path fill="#BFBFBF" opacity="1.000000" stroke="none" 
	d="
M817.249451,423.813538 
	C816.774780,423.500580 816.500488,423.009003 816.133301,422.247192 
	C816.510193,422.529633 816.979980,423.082306 817.249451,423.813538 
z"/>
<path fill="#FDFBF9" opacity="1.000000" stroke="none" 
	d="
M1323.085205,392.994507 
	C1327.903564,399.925934 1330.340942,407.155487 1329.022583,415.321350 
	C1328.165405,420.629883 1325.861816,422.394653 1320.504028,422.064941 
	C1313.632812,421.642059 1307.645386,417.036041 1306.610229,409.329468 
	C1305.322510,399.742401 1305.463257,389.963440 1304.987183,380.267365 
	C1305.621582,379.896545 1306.255859,379.525726 1306.890259,379.154907 
	C1312.211060,383.676453 1317.531982,388.197998 1323.085205,392.994507 
z"/>
<path fill="#FBFBFB" opacity="1.000000" stroke="none" 
	d="
M954.302856,421.776886 
	C944.186462,422.493256 938.418518,418.667297 936.821472,408.505524 
	C935.396118,399.436249 935.690796,390.096710 935.965393,380.578247 
	C945.134888,384.386261 952.638489,389.821899 956.317566,398.642303 
	C958.385559,403.600128 958.718628,409.482208 958.811096,414.965118 
	C958.848389,417.173706 956.151489,419.428436 954.302856,421.776886 
z"/>
<path fill="#FFFEFE" opacity="1.000000" stroke="none" 
	d="
M965.911499,81.000122 
	C965.911499,114.233253 965.911499,146.966431 965.911499,178.862518 
	C957.483093,174.870255 949.490967,170.096893 940.866943,167.213593 
	C924.878967,161.868240 909.124756,164.695236 893.567017,170.394653 
	C879.708679,175.471481 865.705322,180.255417 851.518066,184.298767 
	C840.205872,187.522736 831.221008,182.866058 826.021667,172.175156 
	C819.870605,159.527405 819.639221,145.856827 819.586548,132.160889 
	C819.373230,76.715027 866.036865,33.424042 914.259216,26.513298 
	C924.339844,25.068634 934.899536,24.927418 944.998230,26.157543 
	C957.933960,27.733250 964.350586,36.018173 964.958496,49.047127 
	C965.447327,59.523487 965.606262,70.015244 965.911499,81.000122 
z"/>
</svg>