<svg version="1.1" id="Layer_1" xmlns="http://www.w3.org/2000/svg" xmlns:xlink="http://www.w3.org/1999/xlink" x="0px" y="0px"
	 width="100%" viewBox="0 0 1644 584" enable-background="new 0 0 1644 584" xml:space="preserve">
<path fill="#FFFFFF" opacity="1.000000" stroke="none" 
	d="
M1261.000000,585.000000 
	C840.713684,585.000000 420.927368,585.000000 1.070530,585.000000 
	C1.070530,390.402191 1.070530,195.804321 1.070530,1.103233 
	C549.000000,1.103233 1097.000000,1.103233 1644.978027,1.103233 
	C1644.978027,195.739563 1644.978027,390.369781 1644.978027,585.000000 
	C1517.137329,585.000000 1389.318726,585.000000 1261.000000,585.000000 
M985.292847,234.391342 
	C985.244812,236.053665 985.155029,237.715973 985.154846,239.378296 
	C985.147461,296.869507 985.090454,354.360809 985.190857,411.851868 
	C985.214844,425.611267 983.771179,439.125061 979.510315,452.210724 
	C970.685181,479.313934 952.289917,498.716217 929.000122,514.022644 
	C907.314148,528.275024 883.136780,536.715515 858.448120,543.909668 
	C855.501892,544.768250 852.508057,545.463684 849.536316,546.234680 
	C850.006104,545.112000 850.692810,544.699402 851.414490,544.361328 
	C877.648621,532.071960 900.938354,515.747864 920.527893,494.266235 
	C949.687866,462.289795 965.472900,425.128967 965.049438,381.443451 
	C964.800720,355.783112 965.024292,330.118378 964.998413,304.455658 
	C964.972046,278.296112 964.900391,252.136642 964.993042,225.052612 
	C964.996704,172.725403 965.030945,120.398140 964.957458,68.071045 
	C964.949951,62.752628 964.535461,57.405941 963.896362,52.122406 
	C961.523682,32.508770 948.399231,19.464876 928.811218,17.964205 
	C917.704224,17.113272 906.511475,17.263304 895.355835,17.191635 
	C877.919983,17.079618 860.482849,17.161959 842.270020,17.161959 
	C843.137634,18.196070 843.476685,18.692671 843.904114,19.095575 
	C850.376038,25.197132 853.926331,32.694241 854.355042,41.561764 
	C854.660461,47.877777 854.802734,54.207520 854.807495,60.531288 
	C854.843140,107.860695 854.850952,155.190186 854.806458,202.519577 
	C854.796997,212.582764 853.070862,214.077179 844.111206,213.203644 
	C840.555237,212.856964 839.087158,211.152725 839.052856,207.772232 
	C839.025757,205.107162 838.848511,202.442963 838.847717,199.778351 
	C838.834106,155.948624 838.914307,112.118729 838.812439,68.289238 
	C838.739136,36.742611 820.996765,17.424704 791.908386,17.196026 
	C770.078186,17.024410 748.244873,17.064955 726.414368,17.215420 
	C718.892944,17.267263 711.478210,18.422487 704.869080,22.446135 
	C687.391418,33.086605 679.376221,48.841145 679.466064,69.119041 
	C679.577576,94.283142 679.492737,119.448105 679.492737,144.612701 
	C679.492737,146.414322 679.492798,148.215942 679.492798,149.280960 
	C660.173645,145.604202 641.152832,141.984222 621.507202,138.245316 
	C621.507202,137.694580 621.515259,135.900223 621.506042,134.105942 
	C621.361938,106.112534 621.429749,78.115723 620.983826,50.127094 
	C620.743774,35.058735 611.971741,21.926308 599.752991,19.635870 
	C589.731323,17.757284 579.281616,17.498051 569.036987,17.638527 
	C555.867981,17.819107 546.832642,25.574032 540.069275,36.205803 
	C530.178284,51.754238 525.574707,69.291336 524.245911,87.219444 
	C522.674622,108.418816 522.570984,129.808273 523.258423,151.069183 
	C523.856079,169.556107 527.292664,187.778870 535.231812,204.821991 
	C542.853394,221.183243 557.072266,229.396973 573.279663,226.616196 
	C573.279663,222.377411 573.279663,218.117569 573.279663,213.614700 
	C572.265503,213.567535 571.457886,213.440002 570.666687,213.506653 
	C558.342712,214.544388 550.735107,208.150726 546.472290,197.420761 
	C543.723816,190.502518 541.112488,183.340012 539.877869,176.043610 
	C535.045898,147.488937 534.077515,118.692734 537.213623,89.905205 
	C538.852417,74.862190 541.656555,59.917320 548.968872,46.305466 
	C552.520813,39.693607 557.090576,34.115891 564.457153,31.487617 
	C573.760864,28.168243 581.394287,31.709684 583.726074,41.266838 
	C585.207153,47.336918 585.883362,53.746944 585.902344,60.007607 
	C586.065247,113.836021 585.995972,167.665131 585.995972,221.494034 
	C585.995972,223.280045 585.995972,225.066040 585.995972,226.898315 
	C598.029358,226.898315 609.592590,226.898315 621.711243,226.898315 
	C621.711243,202.227829 621.711243,177.826660 621.711243,153.313919 
	C640.402466,154.831604 658.276550,157.461197 675.520813,163.633072 
	C678.588989,164.731216 679.602356,166.021408 679.636597,169.192444 
	C679.757263,180.351715 679.979370,191.518387 680.551147,202.662338 
	C681.450867,220.194763 696.338806,230.205643 714.573730,227.283463 
	C722.359619,226.035751 726.948975,220.778061 728.746155,213.493607 
	C730.996399,204.372879 730.198914,195.286377 726.321899,186.618088 
	C720.262878,173.070999 709.006165,165.009552 696.290283,158.640198 
	C693.296753,157.140762 692.039612,155.523300 692.072021,151.973923 
	C692.272766,129.977570 692.102173,107.978127 692.207397,85.980446 
	C692.250366,76.994110 692.360718,67.987366 692.996216,59.029343 
	C694.023254,44.551842 702.243774,33.593311 716.476318,32.095493 
	C734.403748,30.208822 752.622620,30.608145 770.703064,30.877394 
	C778.889954,30.999310 786.716187,34.125790 792.971191,39.867355 
	C801.382446,47.588322 803.189514,57.739403 803.180115,68.559425 
	C803.138062,116.888748 803.157593,165.218124 803.165039,213.547485 
	C803.166809,224.884949 805.043884,226.939926 816.466797,227.092575 
	C830.129883,227.275162 843.797058,227.208603 857.462158,227.154572 
	C866.318359,227.119568 868.035278,225.514999 868.047729,216.683777 
	C868.132812,156.355881 868.140381,96.027863 868.172791,35.699886 
	C868.173767,33.921566 868.172974,32.143242 868.172974,31.193018 
	C878.362854,31.193018 888.024719,30.770823 897.637573,31.277952 
	C919.962341,32.455700 925.778564,43.444359 928.034363,55.108063 
	C928.911133,59.641933 929.106384,64.363411 929.115906,69.000458 
	C929.196350,108.163742 929.159119,147.327255 929.163208,186.490692 
	C929.164551,199.650940 929.182678,212.811203 929.088501,226.902512 
	C929.077698,281.559479 929.160034,336.216766 928.964600,390.873047 
	C928.932007,400.001740 928.253235,409.209473 926.910645,418.237579 
	C921.945862,451.622375 909.153198,481.258209 883.820190,504.501648 
	C864.661682,522.079956 841.751282,532.977905 817.372620,541.086121 
	C793.272522,549.101624 768.387207,553.535889 743.284607,556.934448 
	C737.268311,557.748962 735.288208,559.970459 735.777405,564.733948 
	C736.211731,568.963196 738.696655,570.580383 744.572998,570.481323 
	C771.392090,570.029358 798.153076,568.935608 824.760254,565.093567 
	C861.294128,559.818054 896.547668,550.478210 928.812439,532.050476 
	C972.507019,507.094788 997.428284,470.110901 997.904907,418.940247 
	C998.468323,358.455933 998.112000,297.963043 998.140991,237.473892 
	C998.141418,236.648453 997.966919,235.822937 998.209656,234.274673 
	C998.470459,232.635666 998.716309,230.994095 998.994751,229.358078 
	C1000.468201,220.702454 1002.960266,212.556839 1009.841431,206.424545 
	C1017.224854,199.844589 1026.106445,198.920547 1035.460693,198.977188 
	C1054.393799,199.091873 1072.150024,204.529053 1089.964844,210.114487 
	C1108.042480,215.782364 1126.094604,221.803207 1144.547852,225.922577 
	C1161.784302,229.770340 1177.999390,226.104385 1189.038330,210.782974 
	C1197.012573,199.715179 1198.669678,186.475250 1198.797729,173.180786 
	C1198.990234,153.186203 1198.827881,133.188370 1198.853394,113.191963 
	C1198.879272,93.030800 1198.333008,72.843857 1199.175415,52.715836 
	C1200.015747,32.636379 1205.409302,29.211708 1221.493042,30.126745 
	C1229.182983,30.564238 1233.269409,33.256550 1234.935181,40.909351 
	C1236.196167,46.702358 1236.897705,52.734623 1236.913574,58.662914 
	C1237.058594,112.819542 1236.998901,166.976730 1236.998901,221.133743 
	C1236.998901,223.062317 1236.998779,224.990891 1236.998779,226.811951 
	C1249.291748,226.811951 1260.870361,226.811951 1272.847778,226.811951 
	C1272.847778,225.002594 1272.847900,223.534225 1272.847900,222.065842 
	C1272.847900,167.575562 1272.877441,113.085228 1272.804932,58.595032 
	C1272.797241,52.781792 1272.420776,46.945694 1271.820068,41.161259 
	C1270.402222,27.510073 1264.624268,19.101011 1253.639893,18.371729 
	C1237.592529,17.306301 1221.385620,17.373125 1205.322021,18.284374 
	C1195.314819,18.852062 1189.285767,25.750931 1187.593628,35.678246 
	C1186.647339,41.229691 1186.089966,46.916286 1186.066895,52.544876 
	C1185.929688,86.204987 1186.074341,119.866280 1185.922363,153.526260 
	C1185.897827,158.977921 1185.336060,164.526505 1184.192627,169.852127 
	C1182.108276,179.560715 1175.966431,186.042389 1166.454712,188.936722 
	C1159.016479,191.200089 1151.390137,191.593567 1143.832153,189.376038 
	C1122.942993,183.246933 1102.142212,176.803970 1081.172485,170.966385 
	C1071.278564,168.212067 1061.136108,165.078339 1051.005127,164.678284 
	C1017.122925,163.340378 983.462036,194.967422 985.292847,234.391342 
M80.435654,17.930517 
	C74.117004,17.674753 67.800247,17.275982 61.479313,17.192171 
	C47.092274,17.001408 36.329506,23.468317 28.586483,35.396168 
	C18.342152,51.177189 13.625471,68.998260 12.248707,87.260048 
	C10.650678,108.456772 10.571980,129.850464 11.261915,151.112320 
	C11.861838,169.600281 15.300729,187.825806 23.251125,204.864090 
	C30.874954,221.202499 45.389786,229.542862 61.258514,226.575531 
	C61.258514,222.332306 61.258514,218.075485 61.258514,213.610657 
	C60.217667,213.565155 59.405643,213.441193 58.609669,213.508118 
	C46.265369,214.545944 38.702854,208.081924 34.445198,197.370224 
	C31.695534,190.452469 29.098431,183.284470 27.866209,175.986618 
	C23.044388,147.429245 22.072660,118.631866 25.218203,89.843361 
	C26.861929,74.799721 29.361395,59.671295 37.156960,46.342499 
	C40.079563,41.345459 44.229324,36.428154 49.009899,33.284744 
	C59.936123,26.100342 69.868652,30.616470 72.451920,43.405556 
	C73.530533,48.745487 73.915123,54.305183 73.932419,59.767117 
	C74.053780,98.098831 74.039856,136.431198 73.966774,174.763153 
	C73.948318,184.444366 75.672806,193.687439 80.396049,202.156006 
	C88.610992,216.885010 100.399521,226.786682 118.001862,227.049118 
	C141.662125,227.401840 165.331589,227.135696 188.997101,227.137161 
	C197.283356,227.137680 204.862595,224.613144 211.330704,219.633789 
	C225.954834,208.375671 233.353989,193.562485 233.240875,174.825409 
	C233.009445,136.494705 233.048538,98.160858 233.287735,59.830257 
	C233.329819,53.084621 234.492767,46.266800 235.862762,39.631954 
	C237.115372,33.565559 241.516144,30.040108 247.760971,30.279024 
	C255.994247,30.594015 266.337250,26.955242 270.366150,37.863811 
	C272.832794,44.542545 273.805237,52.113590 273.846161,59.293037 
	C274.131226,109.289803 273.992920,159.288956 274.006836,209.287338 
	C274.007629,212.118591 274.044006,214.958069 274.254669,217.779449 
	C274.794128,225.005524 276.209229,226.783478 283.300812,226.908875 
	C299.127289,227.188721 314.961151,227.066330 330.792023,227.070129 
	C335.467163,227.071259 337.827057,224.466690 338.128540,219.973450 
	C338.373779,216.318375 338.488251,212.647873 338.490204,208.984116 
	C338.513672,164.485565 338.491058,119.986992 338.524506,75.488449 
	C338.528534,70.159706 338.685455,64.825699 338.957001,59.503597 
	C339.676117,45.408749 348.131287,33.940998 361.980957,32.066917 
	C375.560333,30.229412 389.531342,30.226856 403.265350,30.851152 
	C421.671600,31.687834 432.816986,43.522160 432.918274,61.839508 
	C433.212128,115.002213 433.109955,168.167114 433.162872,221.331146 
	C433.164673,223.124649 433.163086,224.918152 433.163086,226.893280 
	C445.306946,226.893280 457.015411,226.893280 469.003235,226.893280 
	C469.003235,225.476715 469.003235,224.336548 469.003235,223.196396 
	C469.003204,171.364731 469.032715,119.533028 468.957123,67.701485 
	C468.949615,62.549259 468.515808,57.372711 467.912384,52.250740 
	C465.632904,32.901955 452.156525,19.055370 432.823944,18.080130 
	C411.877960,17.023502 390.854797,17.097296 369.871643,17.308243 
	C354.138641,17.466410 341.122711,23.571386 332.504059,37.448879 
	C326.565643,47.010750 325.000854,57.590561 324.999329,68.559853 
	C324.993164,112.725098 325.014069,156.890366 324.957977,201.055542 
	C324.954224,204.015869 324.573639,207.010513 324.003967,209.917801 
	C323.783478,211.043182 322.766449,212.396439 321.741882,212.917496 
	C315.448029,216.118301 309.467468,212.657059 309.082855,205.707596 
	C308.972473,203.712860 309.006165,201.709106 309.006012,199.709488 
	C309.002411,153.044327 309.043671,106.379089 308.956635,59.714088 
	C308.944519,53.231724 308.564850,46.723701 307.901520,40.274235 
	C306.394562,25.622637 299.924133,18.366276 285.565765,17.638985 
	C270.463928,16.874031 255.251816,17.218042 240.141617,18.051630 
	C229.605576,18.632877 223.110977,25.615231 221.950912,36.019810 
	C221.029678,44.282379 220.283371,52.612526 220.240219,60.916729 
	C220.035858,100.247169 220.286484,139.580475 219.976822,178.909622 
	C219.850815,194.913406 202.944290,212.374161 187.037857,213.064941 
	C172.901062,213.678848 158.721878,213.383820 144.561905,213.337585 
	C141.948700,213.329056 139.219696,212.952026 136.744949,212.136093 
	C119.646881,206.498703 109.573875,192.294571 109.508766,173.955276 
	C109.363235,132.960724 109.529816,91.961975 108.956596,50.973507 
	C108.722527,34.236031 100.196701,20.508726 80.435654,17.930517 
M1398.151489,18.473696 
	C1373.450928,17.868128 1348.750244,17.262560 1324.168945,16.659918 
	C1324.168945,20.123081 1324.168945,22.371241 1324.168945,24.777870 
	C1334.837036,24.320953 1341.180664,29.244492 1344.680786,38.944141 
	C1345.761719,41.939518 1348.574829,44.988422 1351.402466,46.553078 
	C1361.627197,52.210670 1372.823364,54.342182 1384.499878,53.832947 
	C1384.667603,53.825630 1384.813477,53.322899 1385.148926,52.739250 
	C1379.088135,45.826900 1373.411743,38.511383 1373.287109,28.253447 
	C1382.523560,27.342367 1391.003540,30.234484 1399.298218,33.632771 
	C1408.005615,37.200096 1414.625977,43.201706 1416.824097,52.608494 
	C1420.765747,69.476028 1420.976074,86.519531 1417.455566,103.509758 
	C1413.345703,123.343918 1400.229614,136.273010 1383.846680,146.562531 
	C1378.909302,149.663574 1373.831299,152.540527 1368.483521,155.718719 
	C1369.470337,156.342514 1369.987671,156.743240 1370.563599,157.023102 
	C1398.334351,170.516129 1426.109863,183.999619 1453.886108,197.481613 
	C1458.952148,199.940628 1463.974976,202.496338 1469.104614,204.815231 
	C1476.422852,208.123535 1481.096191,205.726990 1482.457153,197.843262 
	C1483.046997,194.426651 1483.137817,190.892197 1483.141724,187.410934 
	C1483.185913,147.249680 1483.156250,107.088348 1483.175293,66.927055 
	C1483.185913,44.612049 1492.185913,31.362305 1516.225952,30.437542 
	C1532.837280,29.798542 1549.524902,30.251743 1566.141602,31.017002 
	C1574.223633,31.389212 1581.484863,34.945362 1586.561523,41.834377 
	C1592.063110,49.300014 1593.173218,57.901970 1593.171021,66.826683 
	C1593.157837,118.319801 1593.164673,169.812927 1593.164673,221.306046 
	C1593.164673,223.100967 1593.164551,224.895889 1593.164551,226.901428 
	C1605.292114,226.901428 1616.999268,226.901428 1629.001831,226.901428 
	C1629.001831,224.831009 1629.001953,223.025818 1629.001953,221.220627 
	C1629.001953,170.394073 1629.029785,119.567497 1628.960083,68.741043 
	C1628.952881,63.432144 1628.632080,58.092213 1628.000854,52.821262 
	C1625.632568,33.043842 1613.393188,20.712328 1593.659912,18.005482 
	C1590.866699,17.622320 1588.042725,17.200367 1585.235962,17.220861 
	C1559.426514,17.409363 1533.598022,17.170612 1507.816650,18.152227 
	C1493.578613,18.694338 1483.209961,26.933495 1476.093262,39.220455 
	C1470.638428,48.638073 1469.542969,58.997345 1469.520142,69.532234 
	C1469.440918,106.027184 1469.492065,142.522415 1469.480835,179.017548 
	C1469.480347,180.677856 1469.495483,182.357803 1469.264038,183.994766 
	C1468.522461,189.240433 1467.561646,189.784088 1462.922241,187.445526 
	C1453.628296,182.760818 1444.357910,178.028046 1435.114380,173.244568 
	C1425.701172,168.373383 1416.332031,163.417358 1406.474976,158.252899 
	C1410.425415,155.585388 1413.896240,153.328995 1417.276123,150.943710 
	C1428.589600,142.959244 1439.606445,134.482178 1446.137817,121.935425 
	C1459.063843,97.104660 1457.938965,71.220978 1449.570801,45.526302 
	C1444.769287,30.782804 1433.776123,22.148960 1417.926392,20.502262 
	C1411.645386,19.849712 1405.368042,19.161964 1398.151489,18.473696 
z"/>
<path fill="#030303" opacity="1.000000" stroke="none" 
	d="
M929.193115,225.971451 
	C929.182678,212.811203 929.164551,199.650940 929.163208,186.490692 
	C929.159119,147.327255 929.196350,108.163742 929.115906,69.000458 
	C929.106384,64.363411 928.911133,59.641933 928.034363,55.108063 
	C925.778564,43.444359 919.962341,32.455700 897.637573,31.277952 
	C888.024719,30.770823 878.362854,31.193018 868.172974,31.193018 
	C868.172974,32.143242 868.173767,33.921566 868.172791,35.699886 
	C868.140381,96.027863 868.132812,156.355881 868.047729,216.683777 
	C868.035278,225.514999 866.318359,227.119568 857.462158,227.154572 
	C843.797058,227.208603 830.129883,227.275162 816.466797,227.092575 
	C805.043884,226.939926 803.166809,224.884949 803.165039,213.547485 
	C803.157593,165.218124 803.138062,116.888748 803.180115,68.559425 
	C803.189514,57.739403 801.382446,47.588322 792.971191,39.867355 
	C786.716187,34.125790 778.889954,30.999310 770.703064,30.877394 
	C752.622620,30.608145 734.403748,30.208822 716.476318,32.095493 
	C702.243774,33.593311 694.023254,44.551842 692.996216,59.029343 
	C692.360718,67.987366 692.250366,76.994110 692.207397,85.980446 
	C692.102173,107.978127 692.272766,129.977570 692.072021,151.973923 
	C692.039612,155.523300 693.296753,157.140762 696.290283,158.640198 
	C709.006165,165.009552 720.262878,173.070999 726.321899,186.618088 
	C730.198914,195.286377 730.996399,204.372879 728.746155,213.493607 
	C726.948975,220.778061 722.359619,226.035751 714.573730,227.283463 
	C696.338806,230.205643 681.450867,220.194763 680.551147,202.662338 
	C679.979370,191.518387 679.757263,180.351715 679.636597,169.192444 
	C679.602356,166.021408 678.588989,164.731216 675.520813,163.633072 
	C658.276550,157.461197 640.402466,154.831604 621.711243,153.313919 
	C621.711243,177.826660 621.711243,202.227829 621.711243,226.898315 
	C609.592590,226.898315 598.029358,226.898315 585.995972,226.898315 
	C585.995972,225.066040 585.995972,223.280045 585.995972,221.494034 
	C585.995972,167.665131 586.065247,113.836021 585.902344,60.007607 
	C585.883362,53.746944 585.207153,47.336918 583.726074,41.266838 
	C581.394287,31.709684 573.760864,28.168243 564.457153,31.487617 
	C557.090576,34.115891 552.520813,39.693607 548.968872,46.305466 
	C541.656555,59.917320 538.852417,74.862190 537.213623,89.905205 
	C534.077515,118.692734 535.045898,147.488937 539.877869,176.043610 
	C541.112488,183.340012 543.723816,190.502518 546.472290,197.420761 
	C550.735107,208.150726 558.342712,214.544388 570.666687,213.506653 
	C571.457886,213.440002 572.265503,213.567535 573.279663,213.614700 
	C573.279663,218.117569 573.279663,222.377411 573.279663,226.616196 
	C557.072266,229.396973 542.853394,221.183243 535.231812,204.821991 
	C527.292664,187.778870 523.856079,169.556107 523.258423,151.069183 
	C522.570984,129.808273 522.674622,108.418816 524.245911,87.219444 
	C525.574707,69.291336 530.178284,51.754238 540.069275,36.205803 
	C546.832642,25.574032 555.867981,17.819107 569.036987,17.638527 
	C579.281616,17.498051 589.731323,17.757284 599.752991,19.635870 
	C611.971741,21.926308 620.743774,35.058735 620.983826,50.127094 
	C621.429749,78.115723 621.361938,106.112534 621.506042,134.105942 
	C621.515259,135.900223 621.507202,137.694580 621.507202,138.245316 
	C641.152832,141.984222 660.173645,145.604202 679.492798,149.280960 
	C679.492798,148.215942 679.492737,146.414322 679.492737,144.612701 
	C679.492737,119.448105 679.577576,94.283142 679.466064,69.119041 
	C679.376221,48.841145 687.391418,33.086605 704.869080,22.446135 
	C711.478210,18.422487 718.892944,17.267263 726.414368,17.215420 
	C748.244873,17.064955 770.078186,17.024410 791.908386,17.196026 
	C820.996765,17.424704 838.739136,36.742611 838.812439,68.289238 
	C838.914307,112.118729 838.834106,155.948624 838.847717,199.778351 
	C838.848511,202.442963 839.025757,205.107162 839.052856,207.772232 
	C839.087158,211.152725 840.555237,212.856964 844.111206,213.203644 
	C853.070862,214.077179 854.796997,212.582764 854.806458,202.519577 
	C854.850952,155.190186 854.843140,107.860695 854.807495,60.531288 
	C854.802734,54.207520 854.660461,47.877777 854.355042,41.561764 
	C853.926331,32.694241 850.376038,25.197132 843.904114,19.095575 
	C843.476685,18.692671 843.137634,18.196070 842.270020,17.161959 
	C860.482849,17.161959 877.919983,17.079618 895.355835,17.191635 
	C906.511475,17.263304 917.704224,17.113272 928.811218,17.964205 
	C948.399231,19.464876 961.523682,32.508770 963.896362,52.122406 
	C964.535461,57.405941 964.949951,62.752628 964.957458,68.071045 
	C965.030945,120.398140 964.996704,172.725403 964.462891,225.528320 
	C952.352905,225.993179 940.773010,225.982315 929.193115,225.971451 
M716.154419,203.431595 
	C717.301514,190.279831 704.395325,175.946991 692.161255,172.073349 
	C692.161255,178.415298 691.611511,184.790085 692.321472,191.021332 
	C692.983826,196.833755 694.235535,202.830948 696.616577,208.121811 
	C698.816711,213.010590 706.836914,215.436523 711.415100,213.795441 
	C715.882568,212.194016 716.038025,208.233353 716.154419,203.431595 
z"/>
<path fill="#020202" opacity="1.000000" stroke="none" 
	d="
M80.872597,17.956688 
	C100.196701,20.508726 108.722527,34.236031 108.956596,50.973507 
	C109.529816,91.961975 109.363235,132.960724 109.508766,173.955276 
	C109.573875,192.294571 119.646881,206.498703 136.744949,212.136093 
	C139.219696,212.952026 141.948700,213.329056 144.561905,213.337585 
	C158.721878,213.383820 172.901062,213.678848 187.037857,213.064941 
	C202.944290,212.374161 219.850815,194.913406 219.976822,178.909622 
	C220.286484,139.580475 220.035858,100.247169 220.240219,60.916729 
	C220.283371,52.612526 221.029678,44.282379 221.950912,36.019810 
	C223.110977,25.615231 229.605576,18.632877 240.141617,18.051630 
	C255.251816,17.218042 270.463928,16.874031 285.565765,17.638985 
	C299.924133,18.366276 306.394562,25.622637 307.901520,40.274235 
	C308.564850,46.723701 308.944519,53.231724 308.956635,59.714088 
	C309.043671,106.379089 309.002411,153.044327 309.006012,199.709488 
	C309.006165,201.709106 308.972473,203.712860 309.082855,205.707596 
	C309.467468,212.657059 315.448029,216.118301 321.741882,212.917496 
	C322.766449,212.396439 323.783478,211.043182 324.003967,209.917801 
	C324.573639,207.010513 324.954224,204.015869 324.957977,201.055542 
	C325.014069,156.890366 324.993164,112.725098 324.999329,68.559853 
	C325.000854,57.590561 326.565643,47.010750 332.504059,37.448879 
	C341.122711,23.571386 354.138641,17.466410 369.871643,17.308243 
	C390.854797,17.097296 411.877960,17.023502 432.823944,18.080130 
	C452.156525,19.055370 465.632904,32.901955 467.912384,52.250740 
	C468.515808,57.372711 468.949615,62.549259 468.957123,67.701485 
	C469.032715,119.533028 469.003204,171.364731 469.003235,223.196396 
	C469.003235,224.336548 469.003235,225.476715 469.003235,226.893280 
	C457.015411,226.893280 445.306946,226.893280 433.163086,226.893280 
	C433.163086,224.918152 433.164673,223.124649 433.162872,221.331146 
	C433.109955,168.167114 433.212128,115.002213 432.918274,61.839508 
	C432.816986,43.522160 421.671600,31.687834 403.265350,30.851152 
	C389.531342,30.226856 375.560333,30.229412 361.980957,32.066917 
	C348.131287,33.940998 339.676117,45.408749 338.957001,59.503597 
	C338.685455,64.825699 338.528534,70.159706 338.524506,75.488449 
	C338.491058,119.986992 338.513672,164.485565 338.490204,208.984116 
	C338.488251,212.647873 338.373779,216.318375 338.128540,219.973450 
	C337.827057,224.466690 335.467163,227.071259 330.792023,227.070129 
	C314.961151,227.066330 299.127289,227.188721 283.300812,226.908875 
	C276.209229,226.783478 274.794128,225.005524 274.254669,217.779449 
	C274.044006,214.958069 274.007629,212.118591 274.006836,209.287338 
	C273.992920,159.288956 274.131226,109.289803 273.846161,59.293037 
	C273.805237,52.113590 272.832794,44.542545 270.366150,37.863811 
	C266.337250,26.955242 255.994247,30.594015 247.760971,30.279024 
	C241.516144,30.040108 237.115372,33.565559 235.862762,39.631954 
	C234.492767,46.266800 233.329819,53.084621 233.287735,59.830257 
	C233.048538,98.160858 233.009445,136.494705 233.240875,174.825409 
	C233.353989,193.562485 225.954834,208.375671 211.330704,219.633789 
	C204.862595,224.613144 197.283356,227.137680 188.997101,227.137161 
	C165.331589,227.135696 141.662125,227.401840 118.001862,227.049118 
	C100.399521,226.786682 88.610992,216.885010 80.396049,202.156006 
	C75.672806,193.687439 73.948318,184.444366 73.966774,174.763153 
	C74.039856,136.431198 74.053780,98.098831 73.932419,59.767117 
	C73.915123,54.305183 73.530533,48.745487 72.451920,43.405556 
	C69.868652,30.616470 59.936123,26.100342 49.009899,33.284744 
	C44.229324,36.428154 40.079563,41.345459 37.156960,46.342499 
	C29.361395,59.671295 26.861929,74.799721 25.218203,89.843361 
	C22.072660,118.631866 23.044388,147.429245 27.866209,175.986618 
	C29.098431,183.284470 31.695534,190.452469 34.445198,197.370224 
	C38.702854,208.081924 46.265369,214.545944 58.609669,213.508118 
	C59.405643,213.441193 60.217667,213.565155 61.258514,213.610657 
	C61.258514,218.075485 61.258514,222.332306 61.258514,226.575531 
	C45.389786,229.542862 30.874954,221.202499 23.251125,204.864090 
	C15.300729,187.825806 11.861838,169.600281 11.261915,151.112320 
	C10.571980,129.850464 10.650678,108.456772 12.248707,87.260048 
	C13.625471,68.998260 18.342152,51.177189 28.586483,35.396168 
	C36.329506,23.468317 47.092274,17.001408 61.479313,17.192171 
	C67.800247,17.275982 74.117004,17.674753 80.872597,17.956688 
z"/>
<path fill="#010101" opacity="1.000000" stroke="none" 
	d="
M1398.620361,18.481964 
	C1405.368042,19.161964 1411.645386,19.849712 1417.926392,20.502262 
	C1433.776123,22.148960 1444.769287,30.782804 1449.570801,45.526302 
	C1457.938965,71.220978 1459.063843,97.104660 1446.137817,121.935425 
	C1439.606445,134.482178 1428.589600,142.959244 1417.276123,150.943710 
	C1413.896240,153.328995 1410.425415,155.585388 1406.474976,158.252899 
	C1416.332031,163.417358 1425.701172,168.373383 1435.114380,173.244568 
	C1444.357910,178.028046 1453.628296,182.760818 1462.922241,187.445526 
	C1467.561646,189.784088 1468.522461,189.240433 1469.264038,183.994766 
	C1469.495483,182.357803 1469.480347,180.677856 1469.480835,179.017548 
	C1469.492065,142.522415 1469.440918,106.027184 1469.520142,69.532234 
	C1469.542969,58.997345 1470.638428,48.638073 1476.093262,39.220455 
	C1483.209961,26.933495 1493.578613,18.694338 1507.816650,18.152227 
	C1533.598022,17.170612 1559.426514,17.409363 1585.235962,17.220861 
	C1588.042725,17.200367 1590.866699,17.622320 1593.659912,18.005482 
	C1613.393188,20.712328 1625.632568,33.043842 1628.000854,52.821262 
	C1628.632080,58.092213 1628.952881,63.432144 1628.960083,68.741043 
	C1629.029785,119.567497 1629.001953,170.394073 1629.001953,221.220627 
	C1629.001953,223.025818 1629.001831,224.831009 1629.001831,226.901428 
	C1616.999268,226.901428 1605.292114,226.901428 1593.164551,226.901428 
	C1593.164551,224.895889 1593.164673,223.100967 1593.164673,221.306046 
	C1593.164673,169.812927 1593.157837,118.319801 1593.171021,66.826683 
	C1593.173218,57.901970 1592.063110,49.300014 1586.561523,41.834377 
	C1581.484863,34.945362 1574.223633,31.389212 1566.141602,31.017002 
	C1549.524902,30.251743 1532.837280,29.798542 1516.225952,30.437542 
	C1492.185913,31.362305 1483.185913,44.612049 1483.175293,66.927055 
	C1483.156250,107.088348 1483.185913,147.249680 1483.141724,187.410934 
	C1483.137817,190.892197 1483.046997,194.426651 1482.457153,197.843262 
	C1481.096191,205.726990 1476.422852,208.123535 1469.104614,204.815231 
	C1463.974976,202.496338 1458.952148,199.940628 1453.886108,197.481613 
	C1426.109863,183.999619 1398.334351,170.516129 1370.563599,157.023102 
	C1369.987671,156.743240 1369.470337,156.342514 1368.483521,155.718719 
	C1373.831299,152.540527 1378.909302,149.663574 1383.846680,146.562531 
	C1400.229614,136.273010 1413.345703,123.343918 1417.455566,103.509758 
	C1420.976074,86.519531 1420.765747,69.476028 1416.824097,52.608494 
	C1414.625977,43.201706 1408.005615,37.200096 1399.298218,33.632771 
	C1391.003540,30.234484 1382.523560,27.342367 1373.287109,28.253447 
	C1373.411743,38.511383 1379.088135,45.826900 1385.148926,52.739250 
	C1384.813477,53.322899 1384.667603,53.825630 1384.499878,53.832947 
	C1372.823364,54.342182 1361.627197,52.210670 1351.402466,46.553078 
	C1348.574829,44.988422 1345.761719,41.939518 1344.680786,38.944141 
	C1341.180664,29.244492 1334.837036,24.320953 1324.168945,24.777870 
	C1324.168945,22.371241 1324.168945,20.123081 1324.168945,16.659918 
	C1348.750244,17.262560 1373.450928,17.868128 1398.620361,18.481964 
z"/>
<path fill="#C57135" opacity="1.000000" stroke="none" 
	d="
M929.140808,226.436981 
	C940.773010,225.982315 952.352905,225.993179 964.390625,225.990585 
	C964.900391,252.136642 964.972046,278.296112 964.998413,304.455658 
	C965.024292,330.118378 964.800720,355.783112 965.049438,381.443451 
	C965.472900,425.128967 949.687866,462.289795 920.527893,494.266235 
	C900.938354,515.747864 877.648621,532.071960 851.414490,544.361328 
	C850.692810,544.699402 850.006104,545.112000 849.536316,546.234680 
	C852.508057,545.463684 855.501892,544.768250 858.448120,543.909668 
	C883.136780,536.715515 907.314148,528.275024 929.000122,514.022644 
	C952.289917,498.716217 970.685181,479.313934 979.510315,452.210724 
	C983.771179,439.125061 985.214844,425.611267 985.190857,411.851868 
	C985.090454,354.360809 985.147461,296.869507 985.154846,239.378296 
	C985.155029,237.715973 985.244812,236.053665 985.809082,234.368805 
	C990.174866,234.563324 994.024475,234.780396 997.874023,234.997467 
	C997.966919,235.822937 998.141418,236.648453 998.140991,237.473892 
	C998.112000,297.963043 998.468323,358.455933 997.904907,418.940247 
	C997.428284,470.110901 972.507019,507.094788 928.812439,532.050476 
	C896.547668,550.478210 861.294128,559.818054 824.760254,565.093567 
	C798.153076,568.935608 771.392090,570.029358 744.572998,570.481323 
	C738.696655,570.580383 736.211731,568.963196 735.777405,564.733948 
	C735.288208,559.970459 737.268311,557.748962 743.284607,556.934448 
	C768.387207,553.535889 793.272522,549.101624 817.372620,541.086121 
	C841.751282,532.977905 864.661682,522.079956 883.820190,504.501648 
	C909.153198,481.258209 921.945862,451.622375 926.910645,418.237579 
	C928.253235,409.209473 928.932007,400.001740 928.964600,390.873047 
	C929.160034,336.216766 929.077698,281.559479 929.140808,226.436981 
z"/>
<path fill="#C47034" opacity="1.000000" stroke="none" 
	d="
M998.041870,234.636078 
	C994.024475,234.780396 990.174866,234.563324 986.047852,234.003693 
	C983.462036,194.967422 1017.122925,163.340378 1051.005127,164.678284 
	C1061.136108,165.078339 1071.278564,168.212067 1081.172485,170.966385 
	C1102.142212,176.803970 1122.942993,183.246933 1143.832153,189.376038 
	C1151.390137,191.593567 1159.016479,191.200089 1166.454712,188.936722 
	C1175.966431,186.042389 1182.108276,179.560715 1184.192627,169.852127 
	C1185.336060,164.526505 1185.897827,158.977921 1185.922363,153.526260 
	C1186.074341,119.866280 1185.929688,86.204987 1186.066895,52.544876 
	C1186.089966,46.916286 1186.647339,41.229691 1187.593628,35.678246 
	C1189.285767,25.750931 1195.314819,18.852062 1205.322021,18.284374 
	C1221.385620,17.373125 1237.592529,17.306301 1253.639893,18.371729 
	C1264.624268,19.101011 1270.402222,27.510073 1271.820068,41.161259 
	C1272.420776,46.945694 1272.797241,52.781792 1272.804932,58.595032 
	C1272.877441,113.085228 1272.847900,167.575562 1272.847900,222.065842 
	C1272.847900,223.534225 1272.847778,225.002594 1272.847778,226.811951 
	C1260.870361,226.811951 1249.291748,226.811951 1236.998779,226.811951 
	C1236.998779,224.990891 1236.998901,223.062317 1236.998901,221.133743 
	C1236.998901,166.976730 1237.058594,112.819542 1236.913574,58.662914 
	C1236.897705,52.734623 1236.196167,46.702358 1234.935181,40.909351 
	C1233.269409,33.256550 1229.182983,30.564238 1221.493042,30.126745 
	C1205.409302,29.211708 1200.015747,32.636379 1199.175415,52.715836 
	C1198.333008,72.843857 1198.879272,93.030800 1198.853394,113.191963 
	C1198.827881,133.188370 1198.990234,153.186203 1198.797729,173.180786 
	C1198.669678,186.475250 1197.012573,199.715179 1189.038330,210.782974 
	C1177.999390,226.104385 1161.784302,229.770340 1144.547852,225.922577 
	C1126.094604,221.803207 1108.042480,215.782364 1089.964844,210.114487 
	C1072.150024,204.529053 1054.393799,199.091873 1035.460693,198.977188 
	C1026.106445,198.920547 1017.224854,199.844589 1009.841431,206.424545 
	C1002.960266,212.556839 1000.468201,220.702454 998.994751,229.358078 
	C998.716309,230.994095 998.470459,232.635666 998.041870,234.636078 
z"/>
<path fill="#F9F9F9" opacity="1.000000" stroke="none" 
	d="
M716.140320,203.884705 
	C716.038025,208.233353 715.882568,212.194016 711.415100,213.795441 
	C706.836914,215.436523 698.816711,213.010590 696.616577,208.121811 
	C694.235535,202.830948 692.983826,196.833755 692.321472,191.021332 
	C691.611511,184.790085 692.161255,178.415298 692.161255,172.073349 
	C704.395325,175.946991 717.301514,190.279831 716.140320,203.884705 
z"/>
</svg>