<svg enable-background="new 0 0 1858 914" viewBox="0 0 1858 914" xmlns="http://www.w3.org/2000/svg"><path d="m1245 915c-414.999878 0-829.499695 0-1243.999666 0-.000112-304.666382-.000112-609.332825-.000223-913.999421 619.332714-.000193 1238.665538-.000193 1857.99879-.000386.000367 304.665884.000367 609.33196.000733 913.998953-204.499634.000854-408.999634.000854-613.999634.000854m-391.597839-305.834167c3.823547.163818 7.646606.459899 11.470642.471862 79.824646.250183 159.649292.534668 239.474121.664734 40.505005.065979 80.695556-3.533447 120.659057-10.279663 37.016968-6.248901 71.620728-18.486633 102.849366-39.51239 9.727173-6.549133 18.140136-14.598267 23.084594-25.585327 7.751954-17.22583 1.208741-44.402252-14.115966-59.222992-13.702027-13.251312-30.442505-20.514984-48.724854-24.547882-10.077515-2.222962-20.291748-3.826294-31.013061-5.814484 6.422485-3.338989 12.438232-6.104523 18.091186-9.478027 13.307129-7.941254 25.050415-17.688355 27.944702-33.860504 1.623047-9.069489 1.401123-18.531037 1.414917-27.816803.102661-68.829346-.126831-137.659653.152832-206.488007.10022-24.694687-6.547485-46.547775-23.132324-65.190132-14.315185-16.091354-31.370605-27.05188-53.417114-27.550125-27.147583-.61351-54.319214-.732491-81.469116-.317291-8.166993.1249-17.071412 1.094772-24.311646 4.498687-36.509643 17.164543-56.901733 45.777069-57.120483 86.838112-.334595 62.828064-.06128 125.659226-.123658 188.488968-.012939 13.079956-2.27478 15.029816-15.168823 14.573883-3.660766-.129425-6.289062-1.591492-7.010498-5.116516-.893921-4.368622-1.697998-8.854279-1.705688-13.290832-.108277-61.829712-.355225-123.661561.064575-185.488602.168213-24.791001-7.664185-45.944328-24.267639-64.140274-14.173035-15.532288-31.07605-25.734795-52.56012-26.106285-27.152405-.46949-54.32074-.66623-81.470459-.236191-7.996033.12664-16.711914 1.174255-23.798706 4.53746-36.401855 17.275276-56.858704 45.724411-56.993103 86.900795-.203003 62.162552-.032959 124.326248-.071899 186.489456-.008667 13.832947-1.81543 15.676972-14.274353 15.410279-5.479493-.117279-7.904541-1.972748-8.840699-7.42627-.588256-3.427124-.82373-6.95404-.827087-10.436554-.070007-72.828949.097656-145.658691-.199585-218.486572-.117676-28.836708-19.700378-51.662437-48.351624-55.378716-15.412963-1.999176-31.234985-1.694274-46.834228-1.206298-22.70813.71035-41.242066 10.949791-54.403931 29.188881-28.717346 39.794967-32.949707 83.810897-19.244018 129.871536 7.910827 26.585968 24.599731 45.434448 52.722839 52.149078 10.23822 2.444397 20.589966 2.49231 30.914917 2.074188 0-6.679046 0-12.753265 0-19.196045-2.995666 0-5.63446-.023132-8.272705.003754-16.546936.168549-30.136475-6.141174-40.692261-18.823547-13.432922-16.139069-18.986999-35.130554-20.169555-55.775391-1.755921-30.653244 6.959961-57.996048 26.395813-81.586433 12.872924-15.624512 30.195007-21.465645 50.098938-18.556092 10.484191 1.532578 18.460876 7.438263 21.007385 18.118782 1.98822 8.338509 3.495361 17.023591 3.525757 25.560685.267028 74.994873.152526 149.991104.161132 224.986923.000367 3.499145.001221 7.002624.163086 10.496643.525574 11.346283 3.934571 15.194092 15.15149 15.337402 23.493957.300171 46.994506.221192 70.491272.093689 7.632141-.041412 11.182373-3.827789 11.502563-11.483642.236572-5.658417.414002-11.324189.416443-16.986786.028259-65.329682.671753-130.668549-.244385-195.985398-.494018-35.219619 29.589539-67.360832 59.744873-70.068153 11.744995-1.054459 23.660523-.052177 35.457703-.713127 37.035034-2.074921 72.309692 35.042206 71.651245 71.51683-1.199951 66.47464-.362122 132.986481-.298401 199.482697.004944 5.140991.43335 10.300232.984436 15.416565.510254 4.737549 3.374817 7.645538 8.170715 7.973694 7.295167.499206 14.610596.907226 21.919922.951935 17.997803.110107 35.997681.079589 53.99524-.079133 7.213134-.063598 10.774414-3.587768 11.179443-10.650268.362305-6.316498.677734-12.646607.682495-18.970978.048828-65.329651.112915-130.659531-.037964-195.988876-.030639-13.2771 3.084595-25.42746 10.764527-36.222214 12.0802-16.980133 27.055542-30.282631 48.646972-32.632271 12.198487-1.327469 24.626221-.716217 36.950073-.688972 36.800904.081367 68.621583 31.111808 68.764161 67.90715.295898 76.327927.120239 152.657837.046508 228.986847-.007446 7.670013-1.169067 15.186218-4.867919 22.152283-7.114747 13.398651-19.077271 20.680389-32.82251 24.963989-13.899903 4.331848-28.344361 6.921326-42.230591 11.290192-10.481323 3.297668-20.45874 8.196746-31.276733 12.635925 2.466064 3.175598 4.255615 5.142486 5.650756 7.357818 1.965577 3.121094 4.403809 3.321442 7.686036 2.334961 33.778564-10.152496 67.790649-10.718567 101.795776-1.48645 15.471924 4.20047 30.309936 10.110809 41.499634 22.431641 11.848755 13.046478 17.015503 34.620697-.71521 49.506561-2.544434 2.136231-5.152466 4.247742-7.953369 6.019104-19.857422 12.558289-41.587281 20.549866-64.418091 25.515564-37.141724 8.078308-74.782471 12.365295-112.775635 12.570984-59.826294.323975-119.655945.018188-179.483948.108948-42.840027.065063-85.613342-1.150635-128.308532-4.963562-40.352479-3.603577-80.345276-9.178406-119.410096-20.252869-24.486877-6.941772-48.350525-15.774414-68.830444-31.11853-33.942627-25.430695-58.534485-58.337403-74.635254-97.658417-15.433777-37.692139-21.531677-77.136139-22.605591-117.523499-.864929-32.528717 1.091736-64.92958 5.611939-97.166992 5.206421-37.131805 14.272827-73.132599 30.759033-107.039146 15.09198-31.038925 35.360718-57.928539 62.787842-79.130036 6.226501-4.813165 12.750976-9.240806 19.123718-13.835361-5.954651-4.046049-11.153687-3.906732-16.903931.535767-9.081726 7.016254-18.953674 13.003971-28.107361 19.933918-31.505249 23.851646-58.23114 52.091941-79.276611 85.7387-22.156586 35.423111-35.493805 73.940369-42.476379 114.909546-4.666657 27.380509-5.677582 54.960587-4.789643 82.642105.753846 23.500611 3.181031 46.836396 8.062561 69.863373 12.279541 57.924805 38.038086 108.432923 82.11905 148.824036 20.651245 18.922607 43.722045 33.53418 70.820251 41.697754 27.030884 8.143249 54.619019 13.481262 82.49585 17.176819 48.086303 6.374511 96.447937 9.478332 145.925415 10.357422m-698.163697-506.764359c-6.608047-15.061066-17.895736-24.620682-34.275505-26.405762-12.191864-1.328666-24.58258-.888809-36.88697-1.114204-14.236336-.260796-25.77689 5.806084-35.360886 15.833603-14.107632 14.760513-21.710577 33.011696-26.612018 52.393944-8.788899 34.754806-11.144043 70.089981-9.435409 105.8833 1.039884 21.784012 2.227836 43.478012 6.300317 64.93602 3.405136 17.941712 8.597286 35.242615 18.477205 50.809296 11.957703 18.840393 31.8395 27.867065 52.053505 23.673981 0-6.342621 0-12.712403 0-19.416962-3.393402 0-6.388512.165008-9.359222-.034027-6.378365-.427307-12.613083-1.541474-17.66214-5.896729-7.464257-6.438598-12.773716-14.355072-16.201062-23.624878-9.23516-24.977905-12.05207-51.134399-12.944274-77.382293-.971478-28.580124-1.998763-57.276932 2.682319-85.728302 3.409889-20.725144 7.466683-41.258515 17.741509-59.96006 5.92287-10.780404 13.834133-19.057518 26.389881-21.875779 12.157783-2.72892 20.483314 1.369103 24.098396 13.272683 2.09861 6.910202 3.553185 14.313728 3.592346 21.504547.314057 57.662063.117554 115.326721.33992 172.989578.044777 11.612274.476349 23.318329 2.020226 34.807739 2.457085 18.28537 10.633858 33.597504 27.057442 43.316681 9.793045 5.79538 20.743591 8.438507 31.969131 8.522675 40.162506.301086 80.328369.161071 120.49295.16983 1.289368.000275 2.578827-.195648 4.073853-.316742 0-6.650513 0-13.006744 0-19.523407-1.875977-.121185-3.355377-.192779-4.830475-.315857-10.589813-.883453-20.701904-3.42691-29.604278-9.441894-15.060379-10.17566-24.543946-24.751709-31.025238-41.297791-10.67537-27.253113-15.588791-55.666382-15.146912-84.907104.253845-16.797867.712585-33.626709 2.048019-50.364319 1.265992-15.867157 2.869782-31.78299 8.639573-46.910462 6.898529-18.086891 17.54541-32.926284 36.829071-38.65171 18.032257-5.35389 36.520111-5.443512 54.536377.733856 12.670715 4.344482 21.227233 13.192047 24.235382 26.387917 1.53717 6.743179 2.337097 13.80603 2.341156 20.725067.119537 204.656677.082824 409.313415.138794 613.970153.002807 10.308655.451538 20.625306.972137 30.924134.997131 19.726501 4.768707 38.930481 12.111114 57.296875 6.48584 16.223694 16.156556 30.12445 30.580414 40.486755 14.99765 10.774597 31.955017 15.337647 50.056671 16.044678 11.254425.439575 22.540009.081726 33.91684.081726 0-6.94519 0-13.316284 0-20.02063-9.724915 0-19.05014.258789-28.355591-.059753-14.532562-.497498-26.493622-6.20636-35.893432-17.667725-8.021393-9.780579-10.214966-21.083862-10.217225-33.090942-.043273-229.155579-.030273-458.311127-.044494-687.46669-.000305-4.829605.287842-9.723511-.358948-14.478531-4.646484-34.158615-33.567993-54.463478-63.966003-56.049187-19.776673-1.031647-39.669373-.67849-59.477417.00367-15.229126.52446-29.434174 5.374832-41.694229 14.785316-18.432938 14.148628-26.307007 34.149483-30.60933 56.066765-4.538421 23.120117-4.927124 46.597153-5.719009 70.005844-.935074 27.642121-.130966 55.217743 5.719284 82.432068 4.320236 20.096832 11.261337 38.990997 24.458633 55.113464 4.586686 5.603302 9.324357 11.083039 12.136597 14.417817-11.682327 0-26.671173.711029-41.563187-.185852-17.333633-1.043946-27.3031-9.845246-30.663787-25.698578-1.369629-6.460968-2.219422-13.162964-2.240189-19.758667-.195251-61.996277-.118484-123.993393-.228348-185.990067-.02008-11.329338-.788437-22.616218-5.633484-33.955078m1640.586121-12.653542c-2.72583-1.234687-5.410889-2.570526-8.18396-3.687973-21.666504-8.730796-44.383057-11.347534-67.51416-11.476699-27.545166-.153824-54.534668 3.030334-79.865723 14.65229-19.745117 9.059166-36.142212 22.258743-48.303222 40.542892-13.782837 20.722565-20.684449 43.899231-23.785157 68.178742-3.96521 31.049179-3.506592 62.168457 1.893799 93.074676 3.845825 22.009888 10.333496 43.11615 24.432373 60.98172 4.737915 6.003723 10.525391 11.179291 15.137085 16.005097-14.046265 0-28.888916.889313-43.580322-.221253-19.10022-1.443847-28.824829-11.232391-30.825195-29.345581-1.149537-10.409454-1.93628-20.916198-1.970337-31.38211-.186158-57.324784-.052002-114.650559-.142212-171.975785-.009644-6.139267-.429566-12.32032-1.223755-18.408332-2.944092-22.566414-16.985962-37.740563-39.460694-40.75721-12.284545-1.648918-24.926269-1.361847-37.36267-.856934-6.467041.262589-13.229737 2.00808-19.17334 4.634682-13.69104 6.0503-22.494263 17.417122-29.179322 30.363533-14.334228 27.760086-19.275756 57.890304-21.703491 88.597931-2.437866 30.839279-1.170288 61.618942 2.182373 92.301803 2.465576 22.563721 6.946533 44.683411 17.050293 65.331147 11.956787 24.434478 31.693726 35.848144 56.734619 32.375061 0-6.389649 0-12.806244 0-19.51416-.925048-.060456-1.725586-.2193-2.505127-.148133-18.798706 1.716034-30.587768-7.747803-37.943237-23.998565-8.131103-17.964478-11.572632-37.130005-13.525391-56.555207-3.306518-32.892196-4.025634-65.851959-.931274-98.807495 2.060547-21.945572 5.994263-43.523559 14.569702-63.9944 4.567749-10.903931 10.715576-20.597534 21.00586-27.212135 16.416748-10.552613 32.160766-4.502602 35.915283 14.515457 1.599853 8.104095 2.139526 16.530357 2.168579 24.813682.214355 60.990525.025146 121.982682.335571 182.972458.070557 13.886139 2.664917 27.54654 9.648071 39.881714 11.374878 20.093353 30.031373 27.901703 51.79712 28.244965 40.317871.635834 80.651977.254883 120.979248.297211 1.109985.001159 2.220092.000152 3.310913.000152 0-7.042145 0-13.581207 0-20.182678-27.401978.111053-45.837769-13.788056-58.593628-36.379395-9.421753-16.686432-14.851563-34.878814-18.097778-53.655609-2.029786-11.7406-3.117554-23.644089-4.662354-35.742599 6.251465-1.581818 11.496948-3.199845 16.856445-4.214814 23.035767-4.362594 46.400879-4.820159 69.707032-4.668823 29.122558.189118 53.732666 11.564621 73.347656 33.091416 24.005127 26.344879 36.66748 57.943817 41.61145 92.857727 1.344971 9.497375 1.843018 19.114746 2.720703 28.581207h52.967896c-.35083-31.21814-4.535035-61.416626-18.12378-89.516632-12.433227-25.710358-30.468994-46.82251-55.068481-61.778107-35.985108-21.877655-75.620484-27.163605-116.780518-24.95076-8.455932.454605-16.882812 1.4525-26.552124 2.308838 2.897461-1.702163 4.71167-2.804367 6.559082-3.847854 41.751587-23.584977 87.024414-38.319001 132.638184-51.931168 21.638794-6.457489 43.861206-10.972946 65.852905-16.227356 9.45044-2.257965 11.664185-6.944366 6.9375-15.553101-.479736-.873779-1.044678-1.701614-1.584595-2.54142-9.781494-15.21746-22.801147-26.802459-39.717895-35.072113z" fill="#fff"/><path d="m852.91394 609.157227c-48.989257-.870484-97.350891-3.974305-145.437194-10.348816-27.876831-3.695557-55.464966-9.03357-82.49585-17.176819-27.098206-8.163574-50.169006-22.775147-70.820251-41.697754-44.080964-40.391113-69.839509-90.899231-82.11905-148.824036-4.88153-23.026977-7.308715-46.362762-8.062561-69.863373-.887939-27.681518.122986-55.261596 4.789643-82.642105 6.982574-40.969177 20.319793-79.486435 42.476379-114.909546 21.045471-33.646759 47.771362-61.887054 79.276611-85.7387 9.153687-6.929947 19.025635-12.917664 28.107361-19.933918 5.750244-4.442499 10.94928-4.581816 16.903931-.535767-6.372742 4.594555-12.897217 9.022196-19.123718 13.835361-27.427124 21.201497-47.695862 48.091111-62.787842 79.130036-16.486206 33.906547-25.552612 69.907341-30.759033 107.039146-4.520203 32.237412-6.476868 64.638275-5.611939 97.166992 1.073914 40.38736 7.171814 79.83136 22.605591 117.523499 16.100769 39.321014 40.692627 72.227722 74.635254 97.658417 20.479919 15.344116 44.343567 24.176758 68.830444 31.11853 39.06482 11.074463 79.057617 16.649292 119.410096 20.252869 42.69519 3.812927 85.468505 5.028625 128.308532 4.963562 59.828003-.09076 119.657654.215027 179.483948-.108948 37.993164-.205689 75.633911-4.492676 112.775635-12.570984 22.83081-4.965698 44.560669-12.957275 64.418091-25.515564 2.800903-1.771362 5.408935-3.882873 7.953369-6.019104 17.730713-14.885864 12.563965-36.460083.71521-49.506561-11.189698-12.320832-26.02771-18.231171-41.499634-22.431641-34.005127-9.232117-68.017212-8.666046-101.795776 1.48645-3.282227.986481-5.720459.786133-7.686036-2.334961-1.395141-2.215332-3.184692-4.18222-5.650756-7.357818 10.817993-4.439179 20.79541-9.338257 31.276733-12.635925 13.88623-4.368866 28.330688-6.958344 42.230591-11.290192 13.745239-4.2836 25.707763-11.565338 32.82251-24.963989 3.698852-6.966065 4.860473-14.48227 4.867919-22.152283.073731-76.32901.24939-152.65892-.046508-228.986847-.142578-36.795342-31.963257-67.825783-68.764161-67.90715-12.323852-.027245-24.751586-.638497-36.950073.688972-21.59143 2.34964-36.566772 15.652138-48.646972 32.632271-7.679932 10.794754-10.795166 22.945114-10.764527 36.222214.150879 65.329345.086792 130.659225.037964 195.988876-.004761 6.324371-.32019 12.65448-.682495 18.970978-.405029 7.0625-3.966309 10.58667-11.179443 10.650268-17.997559.158722-35.997437.18924-53.99524.079133-7.309326-.044709-14.624755-.452729-21.919922-.951935-4.795898-.328156-7.660461-3.236145-8.170715-7.973694-.551086-5.116333-.979492-10.275574-.984436-15.416565-.063721-66.496216-.90155-133.008057.298401-199.482697.658447-36.474624-34.616211-73.591751-71.651245-71.51683-11.79718.66095-23.712708-.341332-35.457703.713127-30.155334 2.707321-60.238891 34.848534-59.744873 70.068153.916138 65.316849.272644 130.655716.244385 195.985398-.002441 5.662597-.179871 11.328369-.416443 16.986786-.32019 7.655853-3.870422 11.44223-11.502563 11.483642-23.496766.127503-46.997315.206482-70.491272-.093689-11.216919-.14331-14.625916-3.991119-15.15149-15.337402-.161865-3.494019-.162719-6.997498-.163086-10.496643-.008606-74.995819.105896-149.99205-.161132-224.986923-.030396-8.537094-1.537537-17.222176-3.525757-25.560685-2.546509-10.680519-10.523194-16.586204-21.007385-18.118782-19.903931-2.909553-37.226014 2.93158-50.098938 18.556092-19.435852 23.590385-28.151734 50.933189-26.395813 81.586433 1.182556 20.644837 6.736633 39.636322 20.169555 55.775391 10.555786 12.682373 24.145325 18.992096 40.692261 18.823547 2.638245-.026886 5.277039-.003754 8.272705-.003754v19.196045c-10.324951.418122-20.676697.370209-30.914917-2.074188-28.123108-6.71463-44.812012-25.56311-52.722839-52.149078-13.705689-46.060639-9.473328-90.076569 19.244018-129.871536 13.161865-18.23909 31.695801-28.478531 54.403931-29.188881 15.599243-.487976 31.421265-.792878 46.834228 1.206298 28.651246 3.716279 48.233948 26.542008 48.351624 55.378716.297241 72.827881.129578 145.657623.199585 218.486572.003357 3.482514.238831 7.00943.827087 10.436554.936158 5.453522 3.361206 7.308991 8.840699 7.42627 12.458923.266693 14.265686-1.577332 14.274353-15.410279.03894-62.163208-.131104-124.326904.071899-186.489456.134399-41.176384 20.591248-69.625519 56.993103-86.900795 7.086792-3.363205 15.802673-4.41082 23.798706-4.53746 27.149719-.430039 54.318054-.233299 81.470459.236191 21.48407.37149 38.387085 10.573997 52.56012 26.106285 16.603454 18.195946 24.435852 39.349273 24.267639 64.140274-.4198 61.827041-.172852 123.65889-.064575 185.488602.00769 4.436553.811767 8.92221 1.705688 13.290832.721436 3.525024 3.349732 4.987091 7.010498 5.116516 12.894043.455933 15.155884-1.493927 15.168823-14.573883.062378-62.829742-.210937-125.660904.123658-188.488968.21875-41.061043 20.61084-69.673569 57.120483-86.838112 7.240234-3.403915 16.144653-4.373787 24.311646-4.498687 27.149902-.4152 54.321533-.296219 81.469116.317291 22.046509.498245 39.101929 11.458771 53.417114 27.550125 16.584839 18.642357 23.232544 40.495445 23.132324 65.190132-.279663 68.828354-.050171 137.658661-.152832 206.488007-.013794 9.285766.20813 18.747314-1.414917 27.816803-2.894287 16.172149-14.637573 25.91925-27.944702 33.860504-5.652954 3.373504-11.668701 6.139038-18.091186 9.478027 10.721313 1.98819 20.935546 3.591522 31.013061 5.814484 18.282349 4.032898 35.022827 11.29657 48.724854 24.547882 15.324707 14.82074 21.86792 41.997162 14.115966 59.222992-4.944458 10.98706-13.357421 19.036194-23.084594 25.585327-31.228638 21.025757-65.832398 33.263489-102.849366 39.51239-39.963501 6.746216-80.154052 10.345642-120.659057 10.279663-79.824829-.130066-159.649475-.414551-239.474121-.664734-3.824036-.011963-7.647095-.308044-11.958863-.480468z" fill="#c47034"/><path d="m155.407196 102.745087c4.676315 10.995247 5.444672 22.282127 5.464752 33.611465.109864 61.996674.033097 123.99379.228348 185.990067.020767 6.595703.87056 13.297699 2.240189 19.758667 3.360687 15.853332 13.330154 24.654632 30.663787 25.698578 14.892014.896881 29.88086.185852 41.563187.185852-2.81224-3.334778-7.549911-8.814515-12.136597-14.417817-13.197296-16.122467-20.138397-35.016632-24.458633-55.113464-5.85025-27.214325-6.654358-54.789947-5.719284-82.432068.791885-23.408691 1.180588-46.885727 5.719009-70.005844 4.302323-21.917282 12.176392-41.918137 30.60933-56.066765 12.260055-9.410484 26.465103-14.260856 41.694229-14.785316 19.808044-.68216 39.700744-1.035317 59.477417-.00367 30.39801 1.585709 59.319519 21.890572 63.966003 56.049187.64679 4.75502.358643 9.648926.358948 14.478531.014221 229.155563.001221 458.311111.044494 687.46669.002259 12.00708 2.195832 23.310363 10.217225 33.090942 9.39981 11.461365 21.36087 17.170227 35.893432 17.667725 9.305451.318542 18.630676.059753 28.355591.059753v20.02063c-11.376831 0-22.662415.357849-33.91684-.081726-18.101654-.707031-35.059021-5.270081-50.056671-16.044678-14.423858-10.362305-24.094574-24.263061-30.580414-40.486755-7.342407-18.366394-11.113983-37.570374-12.111114-57.296875-.520599-10.298828-.96933-20.615479-.972137-30.924134-.05597-204.656738-.019257-409.313476-.138794-613.970153-.004059-6.919037-.803986-13.981888-2.341156-20.725067-3.008149-13.19587-11.564667-22.043435-24.235382-26.387917-18.016266-6.177368-36.50412-6.087746-54.536377-.733856-19.283661 5.725426-29.930542 20.564819-36.829071 38.65171-5.769791 15.127472-7.373581 31.043305-8.639573 46.910462-1.335434 16.73761-1.794174 33.566452-2.048019 50.364319-.441879 29.240722 4.471542 57.653991 15.146912 84.907104 6.481292 16.546082 15.964859 31.122131 31.025238 41.297791 8.902374 6.014984 19.014465 8.558441 29.604278 9.441894 1.475098.123078 2.954498.194672 4.830475.315857v19.523407c-1.495026.121094-2.784485.317017-4.073853.316742-40.164581-.008759-80.330444.131256-120.49295-.16983-11.22554-.084168-22.176086-2.727295-31.969131-8.522675-16.423584-9.719177-24.600357-25.031311-27.057442-43.316681-1.543877-11.48941-1.975449-23.195465-2.020226-34.807739-.222366-57.662857-.025863-115.327515-.33992-172.989578-.039161-7.190819-1.493736-14.594345-3.592346-21.504547-3.615082-11.90358-11.940613-16.001603-24.098396-13.272683-12.555748 2.818261-20.467011 11.095375-26.389881 21.875779-10.274826 18.701545-14.33162 39.234916-17.741509 59.96006-4.681082 28.45137-3.653797 57.148178-2.682319 85.728302.892204 26.247894 3.709114 52.404388 12.944274 77.382293 3.427346 9.269806 8.736805 17.18628 16.201062 23.624878 5.049057 4.355255 11.283775 5.469422 17.66214 5.896729 2.97071.199035 5.96582.034027 9.359222.034027v19.416962c-20.214005 4.193084-40.095802-4.833588-52.053505-23.673981-9.879919-15.566681-15.072069-32.867584-18.477205-50.809296-4.072481-21.458008-5.260433-43.152008-6.300317-64.93602-1.708634-35.793319.64651-71.128494 9.435409-105.8833 4.901441-19.382248 12.504386-37.633431 26.612018-52.393944 9.583996-10.027519 21.12455-16.094399 35.360886-15.833603 12.30439.225395 24.695106-.214462 36.88697 1.114204 16.379769 1.78508 27.667458 11.344696 34.444237 26.749375z" fill="#cdb592"/><path d="m1796.168213 89.891312c16.57312 8.126274 29.592773 19.711273 39.374267 34.928733.539917.839806 1.104859 1.667641 1.584595 2.54142 4.726685 8.608735 2.51294 13.295136-6.9375 15.553101-21.991699 5.25441-44.214111 9.769867-65.852905 16.227356-45.61377 13.612167-90.886597 28.346191-132.638184 51.931168-1.847412 1.043487-3.661621 2.145691-6.559082 3.847854 9.669312-.856338 18.096192-1.854233 26.552124-2.308838 41.160034-2.212845 80.79541 3.073105 116.780518 24.95076 24.599487 14.955597 42.635254 36.067749 55.068481 61.778107 13.588745 28.100006 17.77295 58.298492 18.12378 89.516632-17.742554 0-35.322144 0-52.967896 0-.877685-9.466461-1.375732-19.083832-2.720703-28.581207-4.94397-34.91391-17.606323-66.512848-41.61145-92.857727-19.61499-21.526795-44.225098-32.902298-73.347656-33.091416-23.306153-.151336-46.671265.306229-69.707032 4.668823-5.359497 1.014969-10.60498 2.632996-16.856445 4.214814 1.5448 12.09851 2.632568 24.001999 4.662354 35.742599 3.246215 18.776795 8.676025 36.969177 18.097778 53.655609 12.755859 22.591339 31.19165 36.490448 58.593628 36.379395v20.182678c-1.090821 0-2.200928.001007-3.310913-.000152-40.327271-.042328-80.661377.338623-120.979248-.297211-21.765747-.343262-40.422242-8.151612-51.79712-28.244965-6.983154-12.335174-9.577514-25.995575-9.648071-39.881714-.310425-60.989776-.121216-121.981933-.335571-182.972458-.029053-8.283325-.568726-16.709587-2.168579-24.813682-3.754517-19.018059-19.498535-25.06807-35.915283-14.515457-10.290284 6.614601-16.438111 16.308204-21.00586 27.212135-8.575439 20.470841-12.509155 42.048828-14.569702 63.9944-3.09436 32.955536-2.375244 65.915299.931274 98.807495 1.952759 19.425202 5.394288 38.590729 13.525391 56.555207 7.355469 16.250762 19.144531 25.714599 37.943237 23.998565.779541-.071167 1.580079.087677 2.505127.148133v19.51416c-25.040893 3.473083-44.777832-7.940583-56.734619-32.375061-10.10376-20.647736-14.584717-42.767426-17.050293-65.331147-3.352661-30.682861-4.620239-61.462524-2.182373-92.301803 2.427735-30.707627 7.369263-60.837845 21.703491-88.597931 6.685059-12.946411 15.488282-24.313233 29.179322-30.363533 5.943603-2.626602 12.706299-4.372093 19.17334-4.634682 12.436401-.504913 25.078125-.791984 37.36267.856934 22.474732 3.016647 36.516602 18.190796 39.460694 40.75721.794189 6.088012 1.214111 12.269065 1.223755 18.408332.09021 57.325226-.043946 114.651001.142212 171.975785.034057 10.465912.8208 20.972656 1.970337 31.38211 2.000366 18.11319 11.724975 27.901734 30.825195 29.345581 14.691406 1.110566 29.534057.221253 43.580322.221253-4.611694-4.825806-10.39917-10.001374-15.137085-16.005097-14.098877-17.86557-20.586548-38.971832-24.432373-60.98172-5.400391-30.906219-5.859009-62.025497-1.893799-93.074676 3.100708-24.279511 10.00232-47.456177 23.785157-68.178742 12.16101-18.284149 28.558105-31.483726 48.303222-40.542892 25.331055-11.621956 52.320557-14.806114 79.865723-14.65229 23.131103.129165 45.847656 2.745903 67.51416 11.476699 2.773071 1.117447 5.45813 2.453286 8.527588 3.831353m-149.562134 45.217437c-13.859985 7.14357-26.665039 15.731553-37.142212 27.43747-14.44458 16.138595-22.68518 34.82074-23.15686 57.337402 12.643799-12.541336 26.99707-21.784912 42.155273-29.835403 51.186524-27.185211 105.907471-44.713211 161.793091-59.02269 6.678955-1.710129 13.438355-3.105179 21.098145-4.861237-2.384034-2.014785-3.881714-3.549598-5.62732-4.711471-10.213379-6.797531-21.953491-8.952957-33.754028-9.257225-16.114502-.415482-32.323364-.251572-48.383911 1.023598-26.764527 2.12503-52.423462 8.909393-76.982178 21.889556z" fill="#020202"/><path d="m1646.939209 134.947205c24.225586-12.818619 49.884521-19.602982 76.649048-21.728012 16.060547-1.27517 32.269409-1.43908 48.383911-1.023598 11.800537.304268 23.540649 2.459694 33.754028 9.257225 1.745606 1.161873 3.243286 2.696686 5.62732 4.711471-7.65979 1.756058-14.41919 3.151108-21.098145 4.861237-55.88562 14.309479-110.606567 31.837479-161.793091 59.02269-15.158203 8.050491-29.511474 17.294067-42.155273 29.835403.47168-22.516662 8.71228-41.198807 23.15686-57.337402 10.477173-11.705917 23.282227-20.2939 37.475342-27.599014z" fill="#fdfdfd"/></svg>