<svg version="1.1" id="Layer_1" xmlns="http://www.w3.org/2000/svg" xmlns:xlink="http://www.w3.org/1999/xlink" x="0px" y="0px"
	 width="100%" viewBox="0 0 1310 988" enable-background="new 0 0 1310 988" xml:space="preserve">
<path fill="#FFFFFF" opacity="1.000000" stroke="none" 
	d="
M1.000000,331.000000 
	C1.000000,220.666672 1.000000,110.833336 1.000000,1.000000 
	C437.666656,1.000000 874.333313,1.000000 1311.000000,1.000000 
	C1311.000000,330.333344 1311.000000,659.666687 1311.000000,989.000000 
	C874.333313,989.000000 437.666656,989.000000 1.000000,989.000000 
	C1.000000,769.833313 1.000000,550.666687 1.000000,331.000000 
M1023.184631,375.173828 
	C1022.106262,374.333099 1020.927795,373.593262 1019.964355,372.636810 
	C1000.497559,353.311218 977.685547,339.914581 950.799011,333.910980 
	C925.143250,328.182159 899.196777,328.502716 873.256409,331.165558 
	C852.289673,333.317841 832.449341,339.674957 814.635193,350.925446 
	C803.762146,357.792297 793.949036,366.337372 782.835266,374.753143 
	C782.530457,374.350494 781.532288,372.790894 780.301697,371.443604 
	C766.992432,356.871735 750.439758,347.181000 732.370911,339.833832 
	C713.403625,332.121338 693.474792,329.893311 673.205444,329.579407 
	C645.589783,329.151794 618.293091,330.340118 592.526917,342.125153 
	C552.833984,360.280090 527.802551,390.609619 516.814819,432.637634 
	C509.923706,458.996155 508.429810,485.925110 510.164490,512.965393 
	C511.747559,537.642273 515.692383,561.936035 526.765747,584.480164 
	C543.534668,618.619812 568.609009,643.517639 605.855774,654.322815 
	C615.776733,657.200806 626.132874,658.578186 636.578125,660.703369 
	C636.578125,640.842957 636.578125,622.251099 636.578125,603.454102 
	C619.403381,601.279846 603.119507,596.850159 588.064270,588.551270 
	C566.718933,576.785156 551.591736,559.918701 545.046631,536.002747 
	C538.961853,513.768860 538.624084,491.243561 541.996277,468.637177 
	C546.469666,438.648346 561.930603,416.281982 589.065002,402.190918 
	C604.947876,393.942871 621.875305,389.364471 639.552063,387.497986 
	C675.218994,383.732025 710.078613,385.815247 742.729126,402.681213 
	C764.742920,414.052734 779.225647,431.651001 786.127686,455.444366 
	C792.035950,475.811798 791.927795,496.600311 789.730103,517.397705 
	C788.270142,531.213379 784.447693,544.476868 777.262756,556.562256 
	C766.306702,574.990723 749.868164,586.882019 730.250427,594.226685 
	C718.665527,598.563965 706.420898,601.139221 694.177795,604.590149 
	C694.177795,622.480591 694.177795,641.188110 694.177795,660.056030 
	C696.515991,659.712524 698.482117,659.353027 700.464111,659.142822 
	C749.259460,653.968262 782.575562,627.427551 803.644897,584.171021 
	C813.019531,564.924438 817.305664,544.281250 819.485474,523.129089 
	C822.061890,498.128357 821.526672,473.185913 817.040833,448.460724 
	C815.007935,437.255737 811.736694,426.275421 808.937500,414.826019 
	C817.812195,406.837280 828.289673,400.487305 839.908081,396.085388 
	C859.952820,388.491058 880.857544,385.901794 902.150574,385.894196 
	C929.592102,385.884399 956.240723,389.640900 980.950256,402.619385 
	C1002.692932,414.039551 1017.085327,431.324036 1024.113647,454.979340 
	C1029.781494,474.055389 1029.956299,493.507690 1028.299438,512.936829 
	C1026.709106,531.582947 1021.250977,549.257385 1009.025696,564.017212 
	C990.464417,586.426697 965.377625,597.198669 937.465149,600.674133 
	C917.392334,603.173340 896.945190,602.669067 876.664246,603.486755 
	C874.893494,603.558105 873.117371,603.496216 871.407349,603.496216 
	C871.407349,622.057983 871.407349,639.993469 871.407349,658.362305 
	C877.245972,658.775940 882.871094,659.286072 888.507812,659.554260 
	C912.223022,660.682922 935.778564,659.957336 958.868835,654.057434 
	C958.912109,656.222717 958.993042,658.388000 958.993347,660.553284 
	C959.000305,714.881409 959.043945,769.209656 958.950134,823.537659 
	C958.936096,831.688904 958.603027,839.869812 957.848083,847.984070 
	C955.189575,876.557678 941.748962,896.593262 913.128967,905.259399 
	C888.023926,912.861328 862.245911,915.597229 836.304138,916.771729 
	C803.353760,918.263489 770.362732,919.270752 737.380920,919.570007 
	C669.068420,920.189758 600.744324,920.361145 532.562561,914.957703 
	C514.110291,913.495422 495.810699,910.824219 478.158722,905.054749 
	C459.178833,898.851135 445.539398,886.885620 439.078979,867.456482 
	C434.972961,855.108215 433.989899,842.412720 433.990784,829.534424 
	C434.006226,605.889160 433.962067,382.243896 434.130219,158.598755 
	C434.137939,148.351852 435.282867,137.966843 437.197601,127.893166 
	C440.010925,113.091927 447.938354,101.255508 460.728516,92.791725 
	C472.400391,85.067940 485.567902,81.684731 498.992157,79.035965 
	C526.707153,73.567459 554.823730,72.031654 582.962524,71.344009 
	C674.429382,69.108788 765.901733,67.841461 857.279724,74.075340 
	C877.389099,75.447220 897.371582,78.276566 916.553040,84.897690 
	C938.113586,92.340034 952.189819,106.863670 955.907715,129.733643 
	C957.821655,141.506348 958.089233,153.552597 958.958679,165.485580 
	C959.218811,169.056168 958.998779,172.661728 958.998779,176.289047 
	C970.969604,176.289047 982.223389,176.289047 993.779785,176.289047 
	C993.910645,151.689774 994.690918,127.341667 990.760254,103.251846 
	C985.009338,68.006355 965.922791,43.265488 931.998657,30.659966 
	C908.646790,21.982887 884.223450,18.487999 859.613892,17.210691 
	C822.685791,15.294019 785.702332,13.955107 748.728699,13.507436 
	C673.751526,12.599626 598.756897,12.477525 523.912964,18.089216 
	C501.639099,19.759277 479.554138,23.273661 458.680542,31.769163 
	C429.858795,43.499538 411.618652,64.654709 404.005249,94.840019 
	C399.736664,111.764061 399.007629,129.068649 399.006714,146.417542 
	C398.994598,375.562286 398.980927,604.707031 399.046875,833.851746 
	C399.050476,846.338013 399.297455,858.859009 400.252258,871.300842 
	C401.298218,884.930786 403.617096,898.467834 409.485901,910.985474 
	C422.321808,938.363220 443.881042,955.147400 472.923889,962.977051 
	C499.319519,970.093079 526.361389,972.348022 553.445129,973.738647 
	C583.387329,975.276001 613.381348,976.224609 643.361633,976.514038 
	C717.171936,977.226624 790.997192,977.664246 864.675110,971.943237 
	C888.440979,970.097839 912.030212,967.065552 934.453796,958.192993 
	C963.832764,946.568481 982.343994,925.123596 988.646240,894.518433 
	C992.144531,877.529663 993.479431,859.847717 993.624512,842.460205 
	C994.176697,776.304443 993.848572,710.141418 993.840515,643.981079 
	C993.840271,642.318481 993.736938,640.655884 993.964539,638.332520 
	C996.737610,636.232056 999.475586,634.083435 1002.289001,632.038452 
	C1027.640625,613.611755 1044.990356,589.365234 1051.899048,558.851807 
	C1062.703247,511.133118 1062.469604,463.435120 1047.757812,415.586578 
	C1048.677856,414.434967 1049.372070,412.912720 1050.554565,412.191620 
	C1058.489014,407.353485 1066.152222,401.829010 1074.604126,398.127380 
	C1097.555054,388.075806 1121.940796,385.420227 1146.790405,385.967499 
	C1172.172607,386.526550 1196.647705,390.637329 1219.507202,402.564117 
	C1244.368286,415.535248 1259.359863,435.796387 1265.017334,462.936493 
	C1268.986084,481.975098 1268.946777,501.214600 1266.099976,520.479675 
	C1261.648315,550.606567 1246.079224,572.780334 1219.171021,587.029053 
	C1198.282471,598.090149 1175.789307,602.508606 1152.402466,603.040039 
	C1141.077881,603.297363 1129.744507,603.161133 1118.415039,603.199097 
	C1115.798950,603.207825 1113.182861,603.200378 1110.512817,603.200378 
	C1110.269775,604.415100 1110.035522,605.041992 1110.034546,605.669312 
	C1110.008789,621.997192 1110.096436,638.325928 1109.938721,654.652344 
	C1109.899658,658.697571 1112.408813,658.801270 1115.136963,658.892273 
	C1126.610474,659.275085 1138.093750,660.052856 1149.559082,659.856262 
	C1177.678833,659.374084 1204.741943,654.310608 1229.399902,639.809509 
	C1252.257324,626.367371 1269.908936,608.074890 1281.381470,584.056030 
	C1293.007324,559.716248 1296.995361,533.575317 1297.617310,507.051361 
	C1298.028687,489.502747 1296.883057,471.794586 1294.870728,454.338074 
	C1290.798950,419.013031 1277.490723,387.916351 1249.700195,364.315857 
	C1232.014648,349.296783 1211.914062,338.974091 1189.238770,333.906982 
	C1163.977783,328.262085 1138.425415,328.434479 1112.875244,331.047546 
	C1088.309692,333.559937 1065.354126,341.245911 1045.179077,355.670929 
	C1037.442139,361.202789 1030.973877,368.508942 1023.184631,375.173828 
M318.910309,441.777679 
	C313.593231,417.690399 303.955688,395.826141 287.760193,376.798370 
	C262.201233,346.769653 228.958344,333.126709 190.686722,330.142456 
	C178.293839,329.176117 165.765396,329.912689 153.299072,329.932159 
	C135.300278,329.960327 117.975952,333.507202 101.243111,340.065155 
	C64.909492,354.304962 40.337185,380.149902 25.790413,416.082733 
	C16.736450,438.447418 13.196494,461.881805 12.247596,485.718018 
	C11.271124,510.246979 13.553445,534.560242 20.090519,558.331116 
	C26.936863,583.226562 38.883514,605.059814 58.066399,622.799255 
	C80.922928,643.935913 108.756729,653.706543 138.731720,657.668945 
	C160.817734,660.588562 183.146408,660.850830 205.486664,659.174561 
	C229.235397,657.392700 252.061768,653.067993 273.751526,642.447327 
	C303.600586,627.831482 324.130646,595.717407 318.930176,561.999084 
	C317.246460,551.082458 314.013947,540.512939 306.358643,532.050781 
	C292.527832,516.762146 274.457550,509.693390 254.578568,508.231750 
	C237.730042,506.992950 220.653702,507.077637 203.794434,508.249451 
	C186.285202,509.466461 169.248871,513.656372 154.970016,525.026855 
	C145.948181,532.211060 138.831726,540.643921 135.354599,552.015747 
	C131.237534,565.480469 131.808441,579.299866 131.213318,593.052979 
	C131.117050,595.277710 131.199799,597.510254 131.199799,601.328552 
	C120.149040,597.837952 110.070160,595.511658 100.694664,591.529358 
	C74.399567,580.360229 55.334896,561.846313 47.329781,533.842773 
	C40.720432,510.721924 41.056946,486.968475 45.514900,463.613190 
	C52.015652,429.555725 73.315704,407.738068 105.449738,396.010986 
	C127.146416,388.092896 149.647385,385.617950 172.637344,385.887817 
	C193.766495,386.135834 214.489792,388.742035 234.316696,396.101379 
	C260.784393,405.925659 281.713043,421.664795 289.256958,450.737183 
	C289.559296,451.902222 291.022797,453.607971 291.979156,453.630615 
	C301.232697,453.849609 310.493500,453.762024 320.355377,453.762024 
	C319.826080,449.496490 319.400787,446.069092 318.910309,441.777679 
M1275.029175,125.595306 
	C1273.707031,117.075340 1273.042114,108.390404 1270.952393,100.063080 
	C1260.091309,56.782200 1232.797607,29.379656 1189.659424,18.266068 
	C1166.558838,12.314674 1142.974365,11.663503 1119.376953,15.110909 
	C1102.193604,17.621250 1085.584717,22.102552 1070.348877,30.869123 
	C1046.473145,44.606918 1029.876099,64.325462 1021.342285,90.556801 
	C1015.960083,107.100822 1014.466919,123.996109 1015.728271,141.486221 
	C1017.418213,164.918991 1025.768799,185.590851 1039.088501,204.350403 
	C1051.523926,221.864655 1066.864990,236.853058 1084.223633,249.426392 
	C1105.313354,264.702148 1127.020264,279.126617 1148.501587,293.859039 
	C1149.854980,294.787201 1151.566528,295.193054 1153.164429,295.864166 
	C1153.164429,286.858948 1152.836426,278.550964 1153.282227,270.284729 
	C1153.568726,264.972107 1151.746704,261.823242 1147.236450,259.033752 
	C1121.220825,242.944183 1096.357544,225.293076 1075.370728,202.791565 
	C1056.063232,182.090393 1046.673462,157.729675 1050.127197,129.268875 
	C1052.714355,107.947441 1063.526611,91.471619 1081.597778,79.888039 
	C1101.991211,66.815903 1125.178833,65.914246 1148.285889,65.227867 
	C1155.328247,65.018700 1162.404175,66.531158 1169.481689,66.789604 
	C1182.335571,67.258987 1194.317139,70.955002 1205.953613,76.030266 
	C1224.405029,84.077858 1237.825562,96.907997 1243.965088,116.537582 
	C1247.272217,127.110878 1248.697876,137.922867 1247.988647,148.990097 
	C1247.710815,153.325378 1249.234497,155.439316 1253.993408,155.081696 
	C1258.797974,154.720627 1263.651489,154.944199 1268.482056,155.018311 
	C1272.921387,155.086395 1275.259277,153.473251 1275.086426,148.560623 
	C1274.828979,141.239487 1275.033447,133.902100 1275.029175,125.595306 
z"/>
<path fill="#C47034" opacity="1.000000" stroke="none" 
	d="
M993.681702,638.993286 
	C993.736938,640.655884 993.840271,642.318481 993.840515,643.981079 
	C993.848572,710.141418 994.176697,776.304443 993.624512,842.460205 
	C993.479431,859.847717 992.144531,877.529663 988.646240,894.518433 
	C982.343994,925.123596 963.832764,946.568481 934.453796,958.192993 
	C912.030212,967.065552 888.440979,970.097839 864.675110,971.943237 
	C790.997192,977.664246 717.171936,977.226624 643.361633,976.514038 
	C613.381348,976.224609 583.387329,975.276001 553.445129,973.738647 
	C526.361389,972.348022 499.319519,970.093079 472.923889,962.977051 
	C443.881042,955.147400 422.321808,938.363220 409.485901,910.985474 
	C403.617096,898.467834 401.298218,884.930786 400.252258,871.300842 
	C399.297455,858.859009 399.050476,846.338013 399.046875,833.851746 
	C398.980927,604.707031 398.994598,375.562286 399.006714,146.417542 
	C399.007629,129.068649 399.736664,111.764061 404.005249,94.840019 
	C411.618652,64.654709 429.858795,43.499538 458.680542,31.769163 
	C479.554138,23.273661 501.639099,19.759277 523.912964,18.089216 
	C598.756897,12.477525 673.751526,12.599626 748.728699,13.507436 
	C785.702332,13.955107 822.685791,15.294019 859.613892,17.210691 
	C884.223450,18.487999 908.646790,21.982887 931.998657,30.659966 
	C965.922791,43.265488 985.009338,68.006355 990.760254,103.251846 
	C994.690918,127.341667 993.910645,151.689774 993.779785,176.289047 
	C982.223389,176.289047 970.969604,176.289047 958.998779,176.289047 
	C958.998779,172.661728 959.218811,169.056168 958.958679,165.485580 
	C958.089233,153.552597 957.821655,141.506348 955.907715,129.733643 
	C952.189819,106.863670 938.113586,92.340034 916.553040,84.897690 
	C897.371582,78.276566 877.389099,75.447220 857.279724,74.075340 
	C765.901733,67.841461 674.429382,69.108788 582.962524,71.344009 
	C554.823730,72.031654 526.707153,73.567459 498.992157,79.035965 
	C485.567902,81.684731 472.400391,85.067940 460.728516,92.791725 
	C447.938354,101.255508 440.010925,113.091927 437.197601,127.893166 
	C435.282867,137.966843 434.137939,148.351852 434.130219,158.598755 
	C433.962067,382.243896 434.006226,605.889160 433.990784,829.534424 
	C433.989899,842.412720 434.972961,855.108215 439.078979,867.456482 
	C445.539398,886.885620 459.178833,898.851135 478.158722,905.054749 
	C495.810699,910.824219 514.110291,913.495422 532.562561,914.957703 
	C600.744324,920.361145 669.068420,920.189758 737.380920,919.570007 
	C770.362732,919.270752 803.353760,918.263489 836.304138,916.771729 
	C862.245911,915.597229 888.023926,912.861328 913.128967,905.259399 
	C941.748962,896.593262 955.189575,876.557678 957.848083,847.984070 
	C958.603027,839.869812 958.936096,831.688904 958.950134,823.537659 
	C959.043945,769.209656 959.000305,714.881409 958.993347,660.553284 
	C958.993042,658.388000 958.912109,656.222717 959.152100,653.338806 
	C965.459290,650.655090 971.595093,648.972412 977.474670,646.643127 
	C983.017273,644.447266 988.290161,641.570496 993.681702,638.993286 
z"/>
<path fill="#010101" opacity="1.000000" stroke="none" 
	d="
M993.823120,638.662903 
	C988.290161,641.570496 983.017273,644.447266 977.474670,646.643127 
	C971.595093,648.972412 965.459290,650.655090 959.104248,652.881104 
	C935.778564,659.957336 912.223022,660.682922 888.507812,659.554260 
	C882.871094,659.286072 877.245972,658.775940 871.407349,658.362305 
	C871.407349,639.993469 871.407349,622.057983 871.407349,603.496216 
	C873.117371,603.496216 874.893494,603.558105 876.664246,603.486755 
	C896.945190,602.669067 917.392334,603.173340 937.465149,600.674133 
	C965.377625,597.198669 990.464417,586.426697 1009.025696,564.017212 
	C1021.250977,549.257385 1026.709106,531.582947 1028.299438,512.936829 
	C1029.956299,493.507690 1029.781494,474.055389 1024.113647,454.979340 
	C1017.085327,431.324036 1002.692932,414.039551 980.950256,402.619385 
	C956.240723,389.640900 929.592102,385.884399 902.150574,385.894196 
	C880.857544,385.901794 859.952820,388.491058 839.908081,396.085388 
	C828.289673,400.487305 817.812195,406.837280 808.937500,414.826019 
	C811.736694,426.275421 815.007935,437.255737 817.040833,448.460724 
	C821.526672,473.185913 822.061890,498.128357 819.485474,523.129089 
	C817.305664,544.281250 813.019531,564.924438 803.644897,584.171021 
	C782.575562,627.427551 749.259460,653.968262 700.464111,659.142822 
	C698.482117,659.353027 696.515991,659.712524 694.177795,660.056030 
	C694.177795,641.188110 694.177795,622.480591 694.177795,604.590149 
	C706.420898,601.139221 718.665527,598.563965 730.250427,594.226685 
	C749.868164,586.882019 766.306702,574.990723 777.262756,556.562256 
	C784.447693,544.476868 788.270142,531.213379 789.730103,517.397705 
	C791.927795,496.600311 792.035950,475.811798 786.127686,455.444366 
	C779.225647,431.651001 764.742920,414.052734 742.729126,402.681213 
	C710.078613,385.815247 675.218994,383.732025 639.552063,387.497986 
	C621.875305,389.364471 604.947876,393.942871 589.065002,402.190918 
	C561.930603,416.281982 546.469666,438.648346 541.996277,468.637177 
	C538.624084,491.243561 538.961853,513.768860 545.046631,536.002747 
	C551.591736,559.918701 566.718933,576.785156 588.064270,588.551270 
	C603.119507,596.850159 619.403381,601.279846 636.578125,603.454102 
	C636.578125,622.251099 636.578125,640.842957 636.578125,660.703369 
	C626.132874,658.578186 615.776733,657.200806 605.855774,654.322815 
	C568.609009,643.517639 543.534668,618.619812 526.765747,584.480164 
	C515.692383,561.936035 511.747559,537.642273 510.164490,512.965393 
	C508.429810,485.925110 509.923706,458.996155 516.814819,432.637634 
	C527.802551,390.609619 552.833984,360.280090 592.526917,342.125153 
	C618.293091,330.340118 645.589783,329.151794 673.205444,329.579407 
	C693.474792,329.893311 713.403625,332.121338 732.370911,339.833832 
	C750.439758,347.181000 766.992432,356.871735 780.301697,371.443604 
	C781.532288,372.790894 782.530457,374.350494 782.835266,374.753143 
	C793.949036,366.337372 803.762146,357.792297 814.635193,350.925446 
	C832.449341,339.674957 852.289673,333.317841 873.256409,331.165558 
	C899.196777,328.502716 925.143250,328.182159 950.799011,333.910980 
	C977.685547,339.914581 1000.497559,353.311218 1019.964355,372.636810 
	C1020.927795,373.593262 1022.106262,374.333099 1023.729248,375.385010 
	C1025.317017,376.853851 1026.676758,377.962036 1027.352783,379.393127 
	C1032.282471,389.827789 1036.926392,400.400513 1042.027588,410.748688 
	C1043.130737,412.986450 1045.722900,414.490112 1047.629272,416.331909 
	C1062.469604,463.435120 1062.703247,511.133118 1051.899048,558.851807 
	C1044.990356,589.365234 1027.640625,613.611755 1002.289001,632.038452 
	C999.475586,634.083435 996.737610,636.232056 993.823120,638.662903 
z"/>
<path fill="#CDB592" opacity="1.000000" stroke="none" 
	d="
M318.942902,442.209656 
	C319.400787,446.069092 319.826080,449.496490 320.355377,453.762024 
	C310.493500,453.762024 301.232697,453.849609 291.979156,453.630615 
	C291.022797,453.607971 289.559296,451.902222 289.256958,450.737183 
	C281.713043,421.664795 260.784393,405.925659 234.316696,396.101379 
	C214.489792,388.742035 193.766495,386.135834 172.637344,385.887817 
	C149.647385,385.617950 127.146416,388.092896 105.449738,396.010986 
	C73.315704,407.738068 52.015652,429.555725 45.514900,463.613190 
	C41.056946,486.968475 40.720432,510.721924 47.329781,533.842773 
	C55.334896,561.846313 74.399567,580.360229 100.694664,591.529358 
	C110.070160,595.511658 120.149040,597.837952 131.199799,601.328552 
	C131.199799,597.510254 131.117050,595.277710 131.213318,593.052979 
	C131.808441,579.299866 131.237534,565.480469 135.354599,552.015747 
	C138.831726,540.643921 145.948181,532.211060 154.970016,525.026855 
	C169.248871,513.656372 186.285202,509.466461 203.794434,508.249451 
	C220.653702,507.077637 237.730042,506.992950 254.578568,508.231750 
	C274.457550,509.693390 292.527832,516.762146 306.358643,532.050781 
	C314.013947,540.512939 317.246460,551.082458 318.930176,561.999084 
	C324.130646,595.717407 303.600586,627.831482 273.751526,642.447327 
	C252.061768,653.067993 229.235397,657.392700 205.486664,659.174561 
	C183.146408,660.850830 160.817734,660.588562 138.731720,657.668945 
	C108.756729,653.706543 80.922928,643.935913 58.066399,622.799255 
	C38.883514,605.059814 26.936863,583.226562 20.090519,558.331116 
	C13.553445,534.560242 11.271124,510.246979 12.247596,485.718018 
	C13.196494,461.881805 16.736450,438.447418 25.790413,416.082733 
	C40.337185,380.149902 64.909492,354.304962 101.243111,340.065155 
	C117.975952,333.507202 135.300278,329.960327 153.299072,329.932159 
	C165.765396,329.912689 178.293839,329.176117 190.686722,330.142456 
	C228.958344,333.126709 262.201233,346.769653 287.760193,376.798370 
	C303.955688,395.826141 313.593231,417.690399 318.942902,442.209656 
M265.305359,542.072144 
	C261.558411,541.375916 257.828552,540.202271 254.061554,540.067627 
	C239.275055,539.539246 224.451721,538.688660 209.692444,539.259644 
	C200.862411,539.601257 191.947510,541.737854 183.395065,544.195984 
	C173.948181,546.911133 165.293945,551.735291 161.763626,561.764893 
	C159.919449,567.004150 158.959442,572.720703 158.618530,578.284119 
	C158.105255,586.659668 158.484802,595.089905 158.484802,603.800964 
	C163.980194,603.800964 168.965820,603.951538 173.939896,603.775513 
	C198.518753,602.905640 223.140549,602.574036 247.652740,600.769470 
	C260.623383,599.814575 273.055878,595.444580 282.706970,585.710938 
	C293.569702,574.755371 293.009308,557.324585 281.024323,548.989014 
	C276.614929,545.922241 271.105286,544.437439 265.305359,542.072144 
z"/>
<path fill="#CDB592" opacity="1.000000" stroke="none" 
	d="
M1047.693604,415.959229 
	C1045.722900,414.490112 1043.130737,412.986450 1042.027588,410.748688 
	C1036.926392,400.400513 1032.282471,389.827789 1027.352783,379.393127 
	C1026.676758,377.962036 1025.317017,376.853851 1024.100586,375.301361 
	C1030.973877,368.508942 1037.442139,361.202789 1045.179077,355.670929 
	C1065.354126,341.245911 1088.309692,333.559937 1112.875244,331.047546 
	C1138.425415,328.434479 1163.977783,328.262085 1189.238770,333.906982 
	C1211.914062,338.974091 1232.014648,349.296783 1249.700195,364.315857 
	C1277.490723,387.916351 1290.798950,419.013031 1294.870728,454.338074 
	C1296.883057,471.794586 1298.028687,489.502747 1297.617310,507.051361 
	C1296.995361,533.575317 1293.007324,559.716248 1281.381470,584.056030 
	C1269.908936,608.074890 1252.257324,626.367371 1229.399902,639.809509 
	C1204.741943,654.310608 1177.678833,659.374084 1149.559082,659.856262 
	C1138.093750,660.052856 1126.610474,659.275085 1115.136963,658.892273 
	C1112.408813,658.801270 1109.899658,658.697571 1109.938721,654.652344 
	C1110.096436,638.325928 1110.008789,621.997192 1110.034546,605.669312 
	C1110.035522,605.041992 1110.269775,604.415100 1110.512817,603.200378 
	C1113.182861,603.200378 1115.798950,603.207825 1118.415039,603.199097 
	C1129.744507,603.161133 1141.077881,603.297363 1152.402466,603.040039 
	C1175.789307,602.508606 1198.282471,598.090149 1219.171021,587.029053 
	C1246.079224,572.780334 1261.648315,550.606567 1266.099976,520.479675 
	C1268.946777,501.214600 1268.986084,481.975098 1265.017334,462.936493 
	C1259.359863,435.796387 1244.368286,415.535248 1219.507202,402.564117 
	C1196.647705,390.637329 1172.172607,386.526550 1146.790405,385.967499 
	C1121.940796,385.420227 1097.555054,388.075806 1074.604126,398.127380 
	C1066.152222,401.829010 1058.489014,407.353485 1050.554565,412.191620 
	C1049.372070,412.912720 1048.677856,414.434967 1047.693604,415.959229 
z"/>
<path fill="#CDB692" opacity="1.000000" stroke="none" 
	d="
M1275.035278,126.083466 
	C1275.033447,133.902100 1274.828979,141.239487 1275.086426,148.560623 
	C1275.259277,153.473251 1272.921387,155.086395 1268.482056,155.018311 
	C1263.651489,154.944199 1258.797974,154.720627 1253.993408,155.081696 
	C1249.234497,155.439316 1247.710815,153.325378 1247.988647,148.990097 
	C1248.697876,137.922867 1247.272217,127.110878 1243.965088,116.537582 
	C1237.825562,96.907997 1224.405029,84.077858 1205.953613,76.030266 
	C1194.317139,70.955002 1182.335571,67.258987 1169.481689,66.789604 
	C1162.404175,66.531158 1155.328247,65.018700 1148.285889,65.227867 
	C1125.178833,65.914246 1101.991211,66.815903 1081.597778,79.888039 
	C1063.526611,91.471619 1052.714355,107.947441 1050.127197,129.268875 
	C1046.673462,157.729675 1056.063232,182.090393 1075.370728,202.791565 
	C1096.357544,225.293076 1121.220825,242.944183 1147.236450,259.033752 
	C1151.746704,261.823242 1153.568726,264.972107 1153.282227,270.284729 
	C1152.836426,278.550964 1153.164429,286.858948 1153.164429,295.864166 
	C1151.566528,295.193054 1149.854980,294.787201 1148.501587,293.859039 
	C1127.020264,279.126617 1105.313354,264.702148 1084.223633,249.426392 
	C1066.864990,236.853058 1051.523926,221.864655 1039.088501,204.350403 
	C1025.768799,185.590851 1017.418213,164.918991 1015.728271,141.486221 
	C1014.466919,123.996109 1015.960083,107.100822 1021.342285,90.556801 
	C1029.876099,64.325462 1046.473145,44.606918 1070.348877,30.869123 
	C1085.584717,22.102552 1102.193604,17.621250 1119.376953,15.110909 
	C1142.974365,11.663503 1166.558838,12.314674 1189.659424,18.266068 
	C1232.797607,29.379656 1260.091309,56.782200 1270.952393,100.063080 
	C1273.042114,108.390404 1273.707031,117.075340 1275.035278,126.083466 
z"/>
<path fill="#FFFEFE" opacity="1.000000" stroke="none" 
	d="
M265.701416,542.151611 
	C271.105286,544.437439 276.614929,545.922241 281.024323,548.989014 
	C293.009308,557.324585 293.569702,574.755371 282.706970,585.710938 
	C273.055878,595.444580 260.623383,599.814575 247.652740,600.769470 
	C223.140549,602.574036 198.518753,602.905640 173.939896,603.775513 
	C168.965820,603.951538 163.980194,603.800964 158.484802,603.800964 
	C158.484802,595.089905 158.105255,586.659668 158.618530,578.284119 
	C158.959442,572.720703 159.919449,567.004150 161.763626,561.764893 
	C165.293945,551.735291 173.948181,546.911133 183.395065,544.195984 
	C191.947510,541.737854 200.862411,539.601257 209.692444,539.259644 
	C224.451721,538.688660 239.275055,539.539246 254.061554,540.067627 
	C257.828552,540.202271 261.558411,541.375916 265.701416,542.151611 
z"/>
</svg>