<svg enable-background="new 0 0 1332 358" viewBox="0 0 1332 358" xmlns="http://www.w3.org/2000/svg"><path d="m1047 359c-348.999939 0-697.499908 0-1045.999907 0-.000031-119.333282-.000031-238.666557-.000062-357.999874 443.999847-.000042 887.999725-.000042 1331.999725-.000084 0 119.333172 0 238.666386.000122 357.999775-95.166504.000183-190.333252.000183-285.999878.000183m-868.719711-346.90369c-28.326538-.934641-56.625489-1.589493-84.529862 4.933454-19.313324 4.514694-36.900749 12.352762-51.304062 26.315863-17.762241 17.219372-23.8999 39.089454-24.332561 62.975288-.139355 7.69323.852115 15.406937 1.31138 22.869484h31.077223c0-1.796264-.002182-3.28138.000321-4.766495.05064-30.058448 17.572788-52.498191 46.748081-58.988159 32.771209-7.289863 65.788192-7.367889 98.728698-1.29702 12.355027 2.277008 24.237549 6.673142 33.243348 15.999756 16.636932 17.229614 16.667877 51.960274-11.597611 67.927773-15.266754 8.624344-32.144211 11.044189-49.094467 11.717392-25.960663 1.031051-51.9729.764206-77.963295 1.044082-1.737137.018708-3.474648.002442-5.047524.002442v31.672226c7.336571 0 14.325417-.179078 21.302437.032135 25.289131.765548 50.610222 1.101272 75.847496 2.718841 15.211228.974945 29.595627 5.500229 41.96579 15.444351 15.328568 12.322297 20.397659 35.852982 11.342972 53.340149-7.160675 13.829316-19.44516 20.539856-33.485138 23.750519-35.236572 8.057831-70.713333 8.018829-105.969055-.097137-22.59314-5.20102-37.946018-18.807221-43.834931-41.676667-1.757026-6.823394-2.017089-14.032241-2.996967-21.316818-9.553909 0-19.489984 0-29.840551 0-.474722 3.629669-1.09701 7.213165-1.38953 10.823395-1.418101 17.501816.27149 34.660202 7.295339 50.872696 10.208447 23.563232 29.162171 37.469177 52.698959 45.693695 23.751259 8.299438 48.497384 9.878662 73.410073 9.913788 26.239548.036987 52.385986-1.009796 77.127136-11.003571 31.037384-12.537079 50.460877-34.447815 53.674683-68.796264 2.884491-30.8284-6.742157-55.826615-34.426957-71.962952-8.500091-4.954346-17.462097-9.116211-25.441803-13.242416 8.319123-4.355713 17.631089-8.66121 26.367173-13.922867 18.747802-11.291611 30.248901-27.630402 32.82547-49.749039.185577-1.592934.56018-3.382835 1.462066-4.639709 9.733765-13.564576 21.995728-24.070786 37.816529-29.87114 21.825653-8.001938 44.52893-10.98127 67.662689-10.924065 27.257629.067391 53.765808 3.7398 78.300659 16.736214 17.332367 9.181168 30.478546 22.24025 38.755707 40.183106 6.770294 14.676406 8.932892 30.182632 9.321991 46.116378.428894 17.56482.081543 35.0598-3.708557 53.54448-6.333771-17.908387-19.023072-27.348755-35.446411-32.309586-5.704865-1.723205-11.642853-2.845474-17.553376-3.687942-29.484832-4.202744-58.854858-3.871293-87.607696 4.546188-20.560181 6.019028-35.479614 18.561966-41.367584 40.091095-5.16565 18.888077-5.131989 37.868225-.516236 56.782318 4.918946 20.156586 16.717316 35.200806 35.90921 43.287109 31.924591 13.45105 64.545624 11.900452 95.870667-.807647 38.241669-15.514069 62.679687-45.22937 74.764038-84.167832 12.715454-40.972229 13.38916-82.930114 5.263794-125.007621-4.298279-22.258973-12.7146-42.885323-27.137451-60.434407-22.632782-27.5387-52.273255-43.284935-87.318421-48.80018-21.673248-3.41084-43.482055-3.133399-65.2807-1.01696-21.712677 2.108094-42.14325 8.396701-60.47406 20.24814-10.272126 6.641266-19.689423 14.60474-29.518677 21.992619-13.974823-17.620053-24.3293-25.406867-42.366516-32.518492-15.976853-6.299275-32.597473-9.217245-50.54393-10.56999m1113.540756 263.212619c6.876709-11.348297 11.802368-23.552307 14.699951-36.437057 9.082275-40.384552 10.113403-81.01532.138428-121.271385-11.994141-48.403893-39.6698-83.849713-88.48291-99.81881-10.102295-3.304931-20.867554-4.583176-31.620118-6.857394v56.187984c13.193116 3.698921 26.010743 6.228912 38.010254 10.872543 27.129883 10.498833 46.375855 29.187302 54.03479 57.94268 5.904786 22.169922 6.21106 44.767121 2.750122 67.392929-2.954101 19.312226-10.874755 36.237397-24.91809 50.055435-2.507813 2.467743-5.208863 4.739075-8.511963 7.726044-.313355-5.457351-.657105-9.589508-.771118-13.727997-.734497-26.681594-16.31897-43.249496-39.239991-51.562362-16.891235-6.125992-34.469482-7.16594-52.166137-7.134125-17.204346.030945-34.316284 1.147186-50.621216 7.362045-22.851074 8.710007-36.964966 24.261704-38.384644 49.610367-.243042 4.336762-.638061 8.665009-1.016479 13.713577-14.354004-12.513061-23.966797-27.022705-28.710083-44.544174-5.390259-19.911224-5.161011-40.165146-3.081909-60.498154 3.891479-38.058921 24.018921-63.809928 59.531616-77.227066 11.250488-4.250557 23.256836-6.500137 35.358642-9.785202 0-17.806961 0-36.524875 0-56.305423-10.263061 2.088256-20.273315 3.212597-29.695312 6.195339-48.831543 15.458656-77.297485 50.06691-89.999146 98.472786-7.463623 28.443374-8.59967 57.565109-5.964416 86.796417 2.430054 26.956467 8.312805 52.923874 22.986999 76.221893 17.023072 27.027161 40.995362 45.476197 71.130372 55.197144 33.666381 10.860168 68.365722 10.803192 102.786499 4.674133 39.551635-7.042755 70.355712-27.981109 91.755859-63.252167m-455.897644 63.225007c7.577148-1.817536 15.31781-3.134736 22.700073-5.548432 20.418823-6.676178 39.13916-16.340515 52.103272-34.258453 16.120544-22.280457 19.501953-46.681275 8.964355-72.092575-8.793823-21.206085-27.576599-29.772202-48.48645-34.622177-15.502136-3.595658-31.294983-3.394318-47.069641-3.079392-15.553284.310532-30.894226 2.499649-45.381653 8.14032-18.329407 7.136505-32.917419 18.912247-37.631653 38.947052-2.625427 11.157638-2.928894 22.875473-4.063537 34.362137-.369507 3.741058-.058045 7.549347-.058045 11.758026-2.183472-.264435-3.704163-.220703-5.075928-.651245-10.056152-3.156098-20.472412-5.53772-30.030517-9.823883-15.947815-7.15152-29.013794-18.247605-38.653992-33.051544-11.75592-18.052887-14.605164-38.532013-15.050415-59.323716-.300415-14.025497.673096-28.195038 4.893677-41.765091 6.989929-22.474182 20.290649-39.94503 41.047302-51.704429 22.750183-12.888779 47.638184-16.745125 73.109802-17.634529 11.867981-.414399 23.820069.925369 35.706299 1.832954 19.194031 1.465576 37.365723 6.775917 54.225708 16.051125 18.237 10.03276 31.824951 24.076851 37.063599 44.973144.382385 1.525299 2.0354 3.856247 3.161804 3.893814 9.416687.314087 18.848328.178482 28.820557.178482-.388428-2.329452-.794251-4.559494-1.128724-6.800201-4.451355-29.822167-17.362793-55.673607-38.394287-76.970909-24.660644-24.972409-55.755981-36.812969-90.267822-39.106243-16.360535-1.087142-32.900146.205452-49.345459.789003-19.697754.698959-37.835571 6.937712-55.260925 15.90119-17.035279 8.762871-30.630554 21.32032-42.017945 36.446003-21.504699 28.56427-29.340698 61.844963-31.520568 96.55854-.992005 15.796372.633911 31.812927 1.803466 47.675705 1.612732 21.872376 8.027344 42.465378 18.072327 61.974976 13.204468 25.646392 33.50824 43.853607 59.494263 55.492859 23.369262 10.467224 48.315918 14.492462 73.845093 14.892791 21.262634.333435 42.508544.183838 64.425964-3.435302z" fill="#fffefe"/><path d="m178.75322 12.126671c17.473526 1.322384 34.094146 4.240354 50.070999 10.539629 18.037216 7.111625 28.391693 14.898439 42.366516 32.518492 9.829254-7.387879 19.246551-15.351353 29.518677-21.992619 18.33081-11.851439 38.761383-18.140046 60.47406-20.24814 21.798645-2.116439 43.607452-2.39388 65.2807 1.01696 35.045166 5.515245 64.685639 21.26148 87.318421 48.80018 14.422851 17.549084 22.839172 38.175434 27.137451 60.434407 8.125366 42.077507 7.45166 84.035392-5.263794 125.007621-12.084351 38.938462-36.522369 68.653763-74.764038 84.167832-31.325043 12.708099-63.946076 14.258697-95.870667.807647-19.191894-8.086303-30.990264-23.130523-35.90921-43.287109-4.615753-18.914093-4.649414-37.894241.516236-56.782318 5.88797-21.529129 20.807403-34.072067 41.367584-40.091095 28.752838-8.417481 58.122864-8.748932 87.607696-4.546188 5.910523.842468 11.848511 1.964737 17.553376 3.687942 16.423339 4.960831 29.11264 14.401199 35.446411 32.309586 3.7901-18.48468 4.137451-35.97966 3.708557-53.54448-.389099-15.933746-2.551697-31.439972-9.321991-46.116378-8.277161-17.942856-21.42334-31.001938-38.755707-40.183106-24.534851-12.996414-51.04303-16.668823-78.300659-16.736214-23.133759-.057205-45.837036 2.922127-67.662689 10.924065-15.820801 5.800354-28.082764 16.306564-37.816529 29.87114-.901886 1.256874-1.276489 3.046775-1.462066 4.639709-2.576569 22.118637-14.077668 38.457428-32.82547 49.749039-8.736084 5.261657-18.04805 9.567154-26.367173 13.922867 7.979706 4.126205 16.941712 8.28807 25.441803 13.242416 27.6848 16.136337 37.311448 41.134552 34.426957 71.962952-3.213806 34.348449-22.637299 56.259185-53.674683 68.796264-24.74115 9.993775-50.887588 11.040558-77.127136 11.003571-24.912689-.035126-49.658814-1.61435-73.410073-9.913788-23.536788-8.224518-42.490512-22.130463-52.698959-45.693695-7.023849-16.212494-8.71344-33.37088-7.295339-50.872696.29252-3.61023.914808-7.193726 1.38953-10.823395h29.840551c.979878 7.284577 1.239941 14.493424 2.996967 21.316818 5.888913 22.869446 21.241791 36.475647 43.834931 41.676667 35.255722 8.115966 70.732483 8.154968 105.969055.097137 14.039978-3.210663 26.324463-9.921203 33.485138-23.750519 9.054687-17.487167 3.985596-41.017852-11.342972-53.340149-12.370163-9.944122-26.754562-14.469406-41.96579-15.444351-25.237274-1.617569-50.558365-1.953293-75.847496-2.718841-6.97702-.211213-13.965866-.032135-21.302437-.032135 0-10.450577 0-20.673859 0-31.672226 1.572876 0 3.310387.016266 5.047524-.002442 25.990395-.279876 52.002632-.013031 77.963295-1.044082 16.950256-.673203 33.827713-3.093048 49.094467-11.717392 28.265488-15.967499 28.234543-50.698159 11.597611-67.927773-9.005799-9.326614-20.888321-13.722748-33.243348-15.999756-32.940506-6.070869-65.957489-5.992843-98.728698 1.29702-29.175293 6.489968-46.697441 28.929711-46.748081 58.988159-.002503 1.485115-.000321 2.970231-.000321 4.766495-10.119709 0-20.044338 0-31.077223 0-.459265-7.462547-1.450735-15.176254-1.31138-22.869484.432661-23.885834 6.57032-45.755916 24.332561-62.975288 14.403313-13.963101 31.990738-21.801169 51.304062-26.315863 27.904373-6.522947 56.203324-5.868095 85.002793-4.903093m284.557785 266.777138c11.764007-3.818573 22.117706-9.915863 30.575134-19.032105.851471-.917816 2.168915-2.258453 1.988495-3.140869-1.257202-6.149597-2.091187-12.550629-4.497437-18.266235-5.085663-12.080002-16.204803-16.342789-27.939209-18.281128-23.951568-3.956391-48.092956-3.248932-72.134063-.781281-10.4711 1.074768-20.739747 3.984177-28.899689 11.154816-9.167389 8.055954-11.048065 18.659393-8.497132 30.103943 2.531922 11.359161 10.969819 17.127777 21.292878 20.245636 19.838073 5.991638 40.241577 4.583191 60.472534 3.244659 9.03125-.597534 17.924682-3.277923 27.638489-5.247436z" fill="#010101"/><path d="m1291.631592 275.621277c-21.210694 34.95871-52.014771 55.897064-91.566406 62.939819-34.420777 6.129059-69.120118 6.186035-102.786499-4.674133-30.13501-9.720947-54.1073-28.169983-71.130372-55.197144-14.674194-23.298019-20.556945-49.265426-22.986999-76.221893-2.635254-29.231308-1.499207-58.353043 5.964416-86.796417 12.701661-48.405876 41.167603-83.01413 89.999146-98.472786 9.421997-2.982742 19.432251-4.107083 29.695312-6.195339v56.305423c-12.101806 3.285065-24.108154 5.534645-35.358642 9.785202-35.512695 13.417138-55.640137 39.168145-59.531616 77.227066-2.079102 20.333008-2.30835 40.58693 3.081909 60.498154 4.743286 17.521469 14.356079 32.031113 28.710083 44.544174.378418-5.048568.773437-9.376815 1.016479-13.713577 1.419678-25.348663 15.53357-40.90036 38.384644-49.610367 16.304932-6.214859 33.41687-7.3311 50.621216-7.362045 17.696655-.031815 35.274902 1.008133 52.166137 7.134125 22.921021 8.312866 38.505494 24.880768 39.239991 51.562362.114013 4.138489.457763 8.270646.771118 13.727997 3.3031-2.986969 6.00415-5.258301 8.511963-7.726044 14.043335-13.818038 21.963989-30.743209 24.91809-50.055435 3.460938-22.625808 3.154664-45.223007-2.750122-67.392929-7.658935-28.755378-26.904907-47.443847-54.03479-57.94268-11.999511-4.643631-24.817138-7.173622-38.010254-10.872543 0-17.296357 0-36.010725 0-56.187984 10.752564 2.274218 21.517823 3.552463 31.620118 6.857394 48.81311 15.969097 76.488769 51.414917 88.48291 99.81881 9.974975 40.256065 8.943847 80.886833-.138428 121.271385-2.897583 12.88475-7.823242 25.08876-14.889404 36.749405m-169.773926 7.134491c4.451904.554016 8.889648 1.293609 13.35791 1.631683 27.360962 2.07016 54.521362 1.638947 80.897095-7.242096 8.692749-2.926941 7.242432-.705963 7.249267-10.099457.004273-5.811981-.001709-11.686996-.794677-17.424301-2.098877-15.187637-12.244019-22.314651-26.287964-25.447189-20.557373-4.585403-41.35315-3.932083-62.085571-2.474594-8.340943.586395-16.670533 2.874679-24.747925 5.259918-9.103882 2.68837-15.325806 9.083267-16.741333 18.602631-1.288086 8.662491-1.413697 17.512497-1.701782 26.291336-.037964 1.15686 1.791626 3.081482 3.101684 3.462249 8.917359 2.59195 17.927246 4.865326 27.753296 7.43982z" fill="#c47034"/><path d="m835.506104 338.669312c-21.500123 3.483764-42.746033 3.633361-64.008667 3.299926-25.529175-.400329-50.475831-4.425567-73.845093-14.892791-25.986023-11.639252-46.289795-29.846467-59.494263-55.492859-10.044983-19.509598-16.459595-40.1026-18.072327-61.974976-1.169555-15.862778-2.795471-31.879333-1.803466-47.675705 2.17987-34.713577 10.015869-67.99427 31.520568-96.55854 11.387391-15.125683 24.982666-27.683132 42.017945-36.446003 17.425354-8.963478 35.563171-15.202231 55.260925-15.90119 16.445313-.583551 32.984924-1.876145 49.345459-.789003 34.511841 2.293274 65.607178 14.133834 90.267822 39.106243 21.031494 21.297302 33.942932 47.148742 38.394287 76.970909.334473 2.240707.740296 4.470749 1.128724 6.800201-9.972229 0-19.40387.135605-28.820557-.178482-1.126404-.037567-2.779419-2.368515-3.161804-3.893814-5.238648-20.896293-18.826599-34.940384-37.063599-44.973144-16.859985-9.275208-35.031677-14.585549-54.225708-16.051125-11.88623-.907585-23.838318-2.247353-35.706299-1.832954-25.471618.889404-50.359619 4.74575-73.109802 17.634529-20.756653 11.759399-34.057373 29.230247-41.047302 51.704429-4.220581 13.570053-5.194092 27.739594-4.893677 41.765091.445251 20.791703 3.294495 41.270829 15.050415 59.323716 9.640198 14.803939 22.706177 25.900024 38.653992 33.051544 9.558105 4.286163 19.974365 6.667785 30.030517 9.823883 1.371765.430542 2.892456.38681 5.075928.651245 0-4.208679-.311462-8.016968.058045-11.758026 1.134643-11.486664 1.43811-23.204499 4.063537-34.362137 4.714234-20.034805 19.302246-31.810547 37.631653-38.947052 14.487427-5.640671 29.828369-7.829788 45.381653-8.14032 15.774658-.314926 31.567505-.516266 47.069641 3.079392 20.909851 4.849975 39.692627 13.416092 48.48645 34.622177 10.537598 25.4113 7.156189 49.812118-8.964355 72.092575-12.964112 17.917938-31.684449 27.582275-52.103272 34.258453-7.382263 2.413696-15.122925 3.730896-23.11737 5.683808m-70.700379-77.389588v24.516968c2.009827 0 3.82721.019623 5.643982-.003021 20.312439-.252991 40.62854-.357514 60.935181-.850434 7.590332-.184234 15.260803-.718536 22.714294-2.080444 13.083374-2.390686 25.638245-6.208557 35.173584-16.531799 10.832153-11.727265 8.866821-30.743637-6.645996-38.107468-10.44989-4.960556-21.594727-6.986267-32.859314-7.024063-16.396789-.055023-32.82489.748855-49.186157 1.928879-9.009155.649765-17.53711 4.196685-24.700318 9.689254-8.875183 6.805314-11.606384 16.639344-11.075256 28.462128z" fill="#cdb591"/><path d="m462.932098 279.021027c-9.3349 1.852295-18.228332 4.532684-27.259582 5.130218-20.230957 1.338532-40.634461 2.746979-60.472534-3.244659-10.323059-3.117859-18.760956-8.886475-21.292878-20.245636-2.550933-11.44455-.670257-22.047989 8.497132-30.103943 8.159942-7.170639 18.428589-10.080048 28.899689-11.154816 24.041107-2.467651 48.182495-3.17511 72.134063.781281 11.734406 1.938339 22.853546 6.201126 27.939209 18.281128 2.40625 5.715606 3.240235 12.116638 4.497437 18.266235.18042.882416-1.137024 2.223053-1.988495 3.140869-8.457428 9.116242-18.811127 15.213532-30.954041 19.149323z" fill="#fefefe"/><path d="m1121.434692 282.656616c-9.403076-2.475342-18.412963-4.748718-27.330322-7.340668-1.310058-.380767-3.139648-2.305389-3.101684-3.462249.288085-8.778839.413696-17.628845 1.701782-26.291336 1.415527-9.519364 7.637451-15.914261 16.741333-18.602631 8.077392-2.385239 16.406982-4.673523 24.747925-5.259918 20.732421-1.457489 41.528198-2.110809 62.085571 2.474594 14.043945 3.132538 24.189087 10.259552 26.287964 25.447189.792968 5.737305.79895 11.61232.794677 17.424301-.006835 9.393494 1.443482 7.172516-7.249267 10.099457-26.375733 8.881043-53.536133 9.312256-80.897095 7.242096-4.468262-.338074-8.906006-1.077667-13.780884-1.730835z" fill="#fffefe"/><path d="m764.810913 260.808289c-.536316-11.351349 2.194885-21.185379 11.070068-27.990693 7.163208-5.492569 15.691163-9.039489 24.700318-9.689254 16.361267-1.180024 32.789368-1.983902 49.186157-1.928879 11.264587.037796 22.409424 2.063507 32.859314 7.024063 15.512817 7.363831 17.478149 26.380203 6.645996 38.107468-9.535339 10.323242-22.09021 14.141113-35.173584 16.531799-7.453491 1.361908-15.123962 1.89621-22.714294 2.080444-20.306641.49292-40.622742.597443-60.935181.850434-1.816772.022644-3.634155.003021-5.643982.003021 0-8.382172 0-16.449585.005188-24.988403z" fill="#fff"/></svg>