<svg enable-background="new 0 0 1962 876" viewBox="0 0 1962 876" xmlns="http://www.w3.org/2000/svg"><path d="m1467 877c-488.999939 0-977.499817 0-1465.999803 0-.000066-291.999878-.000066-583.999725-.000131-875.999686 653.99969-.000105 1307.999446-.000105 1961.999446-.000209.000122 291.99959.000122 583.999285.000244 875.999407-165.166382.000488-330.33313.000488-495.999756.000488m360.075684-154.55127c-15.634278 4.665528-28.069458 13.47931-36.268189 27.847474-9.875 17.305969-10.905884 35.784851-6.561767 54.662963 4.292968 18.655579 15.029174 32.679932 32.169067 41.669312 11.947143 6.265991 24.709839 8.539429 38.042602 8.813354 31.741211.652283 56.180787-11.941833 71.897217-39.868347 11.966065-21.262695 16.492554-44.64154 16.562866-68.693115.302857-103.650879.176636-207.302917.258667-310.954529.020508-25.937774-4.055786-51.072601-14.43518-74.966613-10.355713-23.839478-25.607422-43.86026-46.676392-59.341431-20.724853-15.228333-43.86792-24.178223-69.328003-27.299225-31.1698-3.820892-60.691894 1.028809-88.133178 16.79776-24.034913 13.811462-40.361451 34.241425-51.07544 59.504761-.279541-.250794-.623535-.425263-.756103-.701294-.645508-1.342346-1.236451-2.71106-1.84314-4.072022-8.715942-19.550537-20.976196-36.365112-38.854981-48.459198-36.422241-24.637695-76.430175-29.438873-118.531738-19.916809-38.682739 8.74878-67.401611 31.305176-87.208008 65.415375-11.980835 20.633087-18.045898 43.103668-20.689087 66.705078-4.622314 41.273773.229371 80.804169 21.365845 117.272888 16.355103 28.218994 39.913819 48.432679 70.359619 60.133667 28.384034 10.908692 57.721436 12.525208 87.469971 6.861206 16.510742-3.143554 31.891968-9.185669 45.866211-19.16217-8.062378-11.497315-15.95874-22.757813-23.879761-34.05365-2.770019 1.81189-5.142456 3.64624-7.753784 5.029541-41.719849 22.100464-105.791992 11.531433-131.021362-49.070404-13.364624-32.102417-13.985718-65.478088-7.420288-99.117676 3.741455-19.169037 11.116455-36.966949 23.89331-52.074646 18.896485-22.343933 43.516602-32.36618 72.333618-32.087188 27.638184.267608 50.380127 11.166198 67.083008 33.552581 10.943482 14.666809 17.203736 31.441437 21.046631 49.169068 1.574341 7.262756 2.696411 14.623535 3.989136 21.74649h48.047119c3.824097-14.48465 6.402832-28.643799 11.303101-41.947815 12.248779-33.255554 34.75769-55.442749 70.954223-61.411773 40.674805-6.707489 79.402954 14.029571 96.895874 51.27362 10.365601 22.069275 14.052857 45.373047 14.202149 69.36966.157226 25.268096-3.70105 49.794738-16.463623 72.152771-17.558106 30.758972-43.890992 47.506897-79.496582 48.770935-19.542115.693786-37.937256-3.344422-53.97168-15.430298-8.064331 11.527588-15.926148 22.765686-24.010986 34.322571 28.977539 19.259216 60.619995 24.312683 93.987792 21.104126 33.718384-3.242066 62.433716-17.058289 85.576539-43.011292v183.130554c-5.766846-3.658996-11.160035-7.971069-17.248536-10.772522-16.441894-7.56549-33.623413-6.979187-51.676757-2.893738m-798.075684-451.94873c0 54.495789.12854 108.992004-.049316 163.487213-.103028 31.584503 6.494506 61.448883 22.136352 88.989227 13.811279 24.317322 33.127197 43.346375 57.88916 56.381165 27.031372 14.229248 55.948731 19.332581 86.430054 16.910706 21.416504-1.701722 41.725342-7.114136 60.411743-17.403626 33.052124-18.200012 55.292236-45.888733 68.147339-81.198242 8.056152-22.128418 11.085327-45.087708 11.060791-68.565704-.072754-69.661591.292725-139.325623-.207275-208.983704-.164429-22.898636-1.642578-45.865189-3.98877-68.649445-2.429077-23.588379-8.829224-46.303802-19.746582-67.622947-18.025879-35.200467-46.233887-57.492512-84.502563-66.846304-26.864869-6.56642-54.095093-6.829436-81.193726-1.746463-28.59668 5.363984-53.538818 18.037866-73.032227 40.110158-13.514892 15.302845-22.800292 33.11652-29.471923 52.328731-9.199585 26.491791-12.711182 54.028428-13.577637 81.820862-.830322 26.640076-.260132 53.323822-.30542 80.988373m-118.099854 40.063293c-5.123596-4.114807-10.008361-8.577819-15.411804-12.284851-25.039489-17.178405-53.144104-24.990692-83.205078-25.0354-12.805481-.019043-25.760132 1.717621-38.393249 4.037781-29.769287 5.467407-53.554016 21.445465-72.234925 44.775543-17.113708 21.372803-28.848083 45.90097-38.528625 71.360809-11.768433 30.950898-22.674866 62.236298-34.839111 93.027436-7.13202 18.053344-17.081116 34.765106-32.049439 47.697235-21.402039 18.490661-46.68042 22.847595-73.826721 18.849731-25.434326-3.745605-44.692902-17.322327-58.594849-38.639831-12.758575-19.564118-17.934204-41.718171-19.506103-64.512421-1.43454-20.802551-.400421-41.662598 5.652862-61.95752 6.88559-23.085388 18.531098-43.277404 38.311646-57.313354 22.977875-16.304718 48.991546-19.904297 76.380523-14.187775 10.501038 2.191712 20.074402 6.609803 29.168091 13.085297 8.033325-11.452118 15.915833-22.689301 23.904663-34.078095-2.980896-1.964294-5.830444-3.878723-8.722168-5.72705-.96936-.61966-2.044799-1.074128-3.074401-1.598816-26.900696-13.70813-55.585328-17.060669-85.139954-13.828858-25.60614 2.800019-49.116394 11.406037-69.86264 27.181732-11.208954 8.523377-20.727417 18.549531-28.987122 29.818543-13.260193 18.091461-21.605377 38.483704-26.509644 60.200287-2.282898 10.108856-3.982269 20.551361-4.188446 30.877746-.276397 13.844635.276825 27.839722 2.103333 41.553223 1.680603 12.617859 4.558868 25.272736 8.635315 37.327728 5.757355 17.025849 14.34436 32.730011 26.177887 46.601593 11.03598 12.936646 23.531616 24.074158 38.497955 31.992005 20.491791 10.841125 42.53717 16.382446 65.782715 17.080505 14.930969.448425 29.672302-.611267 44.271423-3.956177 16.925049-3.877746 32.772644-10.25531 46.753418-20.566162 19.652222-14.493591 34.168701-33.383239 45.644409-54.805115 15.56482-29.054901 25.624939-60.243133 35.995545-91.336975 7.987915-23.950073 16.440369-47.708129 30.704101-68.902771 9.235901-13.723724 19.992249-25.932098 35.067505-33.208831 18.127381-8.74997 37.365601-10.488282 57.180664-7.18927 23.157166 3.855468 41.310303 15.382537 55.127015 34.344238 14.664489 20.12503 20.967956 43.000214 22.825866 67.313873.699463 9.154053-.09497 18.414093.015625 27.623108.196472 16.358551-3.119324 32.043243-8.958801 47.216126-4.954346 12.872955-12.065186 24.574218-21.65332 34.451843-8.404053 8.657532-18.492737 15.187439-29.731507 19.800903-20.411438 8.378662-41.458252 10.408997-63.191406 6.763733-11.674194-1.958069-21.996033-6.906921-31.789612-13.547241-7.601623 10.653503-15.072143 20.965576-22.245361 31.48053-.564636.827636.475769 3.932373 1.557434 4.513305 8.451538 4.539612 16.719971 9.900391 25.755127 12.778076 22.067322 7.028443 44.82428 8.98053 67.9729 6.424256 22.365662-2.469727 43.41742-8.681824 62.939881-20.01947 15.454712-8.975342 28.947448-20.318726 39.736633-34.449341 13.928406-18.241883 23.36908-38.765778 28.428772-61.26181 4.753174-21.132813 5.906555-42.512635 3.977417-63.983033-1.367249-15.215942-4.491882-30.117584-9.394348-44.735656-7.830445-23.34845-20.588562-43.357789-38.530091-61.051362m-72.09967 416.317505c1.412293 4.257874 3.248047 8.426697 4.165588 12.788636 4.685547 22.273498 2.04419 44.226074-4.967712 65.476501-4.607666 13.964294-11.223267 27.266052-17.148743 41.361939 13.451416 4.998657 27.837342 10.344604 42.353882 15.739013 8.554932-15.104126 15.473572-30.324707 20.30249-46.539123 7.47876-25.112 10.128663-50.637635 6.147217-76.528015-6.44049-41.88202-30.465576-70.894654-67.911804-89.154603-31.579407-15.399169-65.590515-21.914672-100.276794-24.783569-39.072937-3.23175-78.185669-4.006286-117.1745 1.677673-31.20697 4.549561-61.428528 12.093445-88.452087 29.21106-19.173798 12.145203-33.865906 28.25061-43.081635 49.217224-8.868194 20.175904-11.47113 41.332825-9.633423 63.007813 2.441162 28.791748 13.356385 53.520569 37.20163 71.176086 30.610229 22.664551 81.424072 25.442688 108.196838-16.923401 7.996643-12.653991 14.78125-26.071167 22.697876-38.77948 4.631104-7.434021 9.746582-14.79126 15.804932-21.061462 10.540588-10.909119 35.67865-12.92273 44.808716 7.155395 3.861267 8.491394 4.910949 17.610657 3.682678 26.89563-1.546326 11.688294-5.25824 22.719483-10.964722 32.993836-3.514404 6.327758-7.626403 12.323547-11.662841 18.776428 14.51123 2.452759 28.855346 4.955994 43.242858 7.178467 1.330872.205566 3.570496-.986389 4.309021-2.190979 3.646302-5.947144 7.389466-11.908875 10.257325-18.246155 10.246521-22.641968 12.877868-46.114868 5.432251-70.061585-9.209656-29.620117-29.83252-46.245544-60.392823-49.974426-29.878173-3.645691-54.815429 5.893738-72.051574 31.175598-9.255188 13.575501-16.523194 28.48993-25.189576 42.489624-4.170349 6.736634-8.855163 13.406617-14.449096 18.955323-10.288758 10.205627-25.241883 10.842346-36.478394 2.174987-7.211365-5.562561-11.34552-13.309326-13.950439-21.989563-4.054535-13.510742-4.424988-27.246765-2.683625-41.081237 2.621308-20.825867 12.25882-37.826966 28.821442-50.714356 21.061279-16.387817 45.999634-23.115906 71.658203-27.034363 36.216126-5.5307 72.687195-5.878418 109.132996-2.200378 22.732178 2.294189 45.23407 5.980713 66.474304 14.976318 21.818787 9.240662 40.877441 21.771118 51.779541 44.835144m-543.362488-138.825256c2.156708 3.056885 4.313385 6.113831 6.599243 9.35376 13.683075-6.086121 26.905854-11.96753 40.316651-17.932556-1.931915-3.943299-3.697632-7.286744-5.23645-10.731568-8.455933-18.929748-11.110962-39.223877-11.866791-59.514129-1.21994-32.749848-.790039-65.558655-1.346192-98.337708-.117004-6.895386-.878021-13.905304-2.383667-20.629242-5.487792-24.507934-14.976562-47.00708-31.763214-66.369049-12.187164-14.056824-26.365234-25.154968-42.601745-33.691864-22.382401-11.768372-46.735276-16.407776-71.716919-16.936218-12.511872-.264649-25.331848.607422-37.562073 3.140228-29.030243 6.012024-54.830772 18.456238-75.696175 40.488342-16.026107 16.922181-27.480728 36.266358-34.995136 58.105622-10.415418 30.270569-12.221736 61.45697-8.990263 93.025665 2.406103 23.505463 7.944193 46.210663 19.809031 66.950958 7.395462 12.927551 15.979336 24.988892 27.690918 34.426453 27.157425 21.884399 58.188888 30.169739 92.778991 26.798706 27.823716-2.711609 49.041886-15.369202 63.434769-39.464844 1.689041-2.827637 1.364456-4.355652-1.06929-6.220154-8.587555-6.578674-17.076325-13.286194-25.629715-19.90979-.979828-.758728-2.130646-1.296692-3.209335-1.941284-.74997.859924-1.262116 1.308472-1.606079 1.861633-11.967118 19.243531-29.108445 28.266541-51.852265 26.523011-24.102531-1.847718-41.572098-13.753846-52.878509-34.839051-6.819642-12.717926-11.160897-26.354705-12.764267-40.69519-1.600289-14.312958-3.016571-28.671143-3.728325-43.04834-.349076-7.051422 1.059822-14.19281 1.70887-21.290192 1.806511-19.754486 6.633201-38.647064 16.580848-55.960449 8.932854-15.547088 20.613396-28.568908 36.798554-36.785034 21.364265-10.845184 44.192131-13.713257 67.713219-10.467743 35.165222 4.852173 59.402191 24.281067 73.116012 56.785278 8.642456 20.484162 10.773804 42.186646 10.937531 64.202027.235077 31.6138.134521 63.243561 1.18695 94.832886.686432 20.605407 6.776612 40.026367 18.224823 58.269836z" fill="#fff"/><path d="m1827.466797 722.323364c17.662231-3.960083 34.84375-4.546386 51.285644 3.019104 6.088501 2.801453 11.48169 7.113526 17.248536 10.772522 0-60.241089 0-121.147217 0-183.130554-23.142823 25.953003-51.858155 39.769226-85.576539 43.011292-33.367797 3.208557-65.010253-1.84491-93.987792-21.104126 8.084838-11.556885 15.946655-22.794983 24.010986-34.322571 16.034424 12.085876 34.429565 16.124084 53.97168 15.430298 35.60559-1.264038 61.938476-18.011963 79.496582-48.770935 12.762573-22.358033 16.620849-46.884675 16.463623-72.152771-.149292-23.996613-3.836548-47.300385-14.202149-69.36966-17.49292-37.244049-56.221069-57.981109-96.895874-51.27362-36.196533 5.969024-58.705444 28.156219-70.954223 61.411773-4.900269 13.304016-7.479004 27.463165-11.303101 41.947815-14.944824 0-31.342651 0-48.047119 0-1.292725-7.122955-2.414795-14.483734-3.989136-21.74649-3.842895-17.727631-10.103149-34.502259-21.046631-49.169068-16.702881-22.386383-39.444824-33.284973-67.083008-33.552581-28.817016-.278992-53.437133 9.743255-72.333618 32.087188-12.776855 15.107697-20.151855 32.905609-23.89331 52.074646-6.56543 33.639588-5.944336 67.015259 7.420288 99.117676 25.22937 60.601837 89.301513 71.170868 131.021362 49.070404 2.611328-1.383301 4.983765-3.217651 7.753784-5.029541 7.921021 11.295837 15.817383 22.556335 23.879761 34.05365-13.974243 9.976501-29.355469 16.018616-45.866211 19.16217-29.748535 5.664002-59.085937 4.047486-87.469971-6.861206-30.4458-11.700988-54.004516-31.914673-70.359619-60.133667-21.136474-36.468719-25.988159-75.999115-21.365845-117.272888 2.643189-23.60141 8.708252-46.071991 20.689087-66.705078 19.806397-34.110199 48.525269-56.666595 87.208008-65.415375 42.101563-9.522064 82.109497-4.720886 118.531738 19.916809 17.878785 12.094086 30.139039 28.908661 38.854981 48.459198.606689 1.360962 1.197632 2.729676 1.84314 4.072022.132568.276031.476562.4505.756103.701294 10.713989-25.263336 27.040527-45.693299 51.07544-59.504761 27.441284-15.768951 56.963378-20.618652 88.133178-16.79776 25.460083 3.121002 48.60315 12.070892 69.328003 27.299225 21.06897 15.481171 36.320679 35.501953 46.676392 59.341431 10.379394 23.894012 14.455688 49.028839 14.43518 74.966613-.082031 103.651612.04419 207.30365-.258667 310.954529-.070312 24.051575-4.596801 47.43042-16.562866 68.693115-15.71643 27.926514-40.156006 40.52063-71.897217 39.868347-13.332763-.273925-26.095459-2.547363-38.042602-8.813354-17.139893-8.98938-27.876099-23.013733-32.169067-41.669312-4.344117-18.878112-3.313233-37.356994 6.561767-54.662963 8.198731-14.368164 20.633911-23.181946 36.659302-27.97284m17.549927 34.882874c-15.712891 4.780395-20.766846 21.268066-19.863526 33.297302.844361 11.242676 4.061646 21.593994 14.656983 27.306641 12.442871 6.70874 25.43457 6.181335 36.835571-1.963318 12.192017-8.709839 14.141846-21.87909 11.662476-35.819946-1.183228-6.652833-4.002442-12.594483-9.468506-17.057496-9.947876-8.12268-21.19336-8.56488-33.822998-5.763183z" fill="#010101"/><path d="m1029 270c.045288-27.164551-.524902-53.848297.30542-80.488373.866455-27.792434 4.378052-55.329071 13.577637-81.820862 6.671631-19.212211 15.957031-37.025886 29.471923-52.328731 19.493409-22.072292 44.435547-34.746174 73.032227-40.110158 27.098633-5.082973 54.328857-4.819957 81.193726 1.746463 38.268676 9.353792 66.476684 31.645837 84.502563 66.846304 10.917358 21.319145 17.317505 44.034568 19.746582 67.622947 2.346192 22.784256 3.824341 45.750809 3.98877 68.649445.5 69.658081.134521 139.322113.207275 208.983704.024536 23.477996-3.004639 46.437286-11.060791 68.565704-12.855103 35.309509-35.095215 62.99823-68.147339 81.198242-18.686401 10.28949-38.995239 15.701904-60.411743 17.403626-30.481323 2.421875-59.398682-2.681458-86.430054-16.910706-24.761963-13.03479-44.077881-32.063843-57.88916-56.381165-15.641846-27.540344-22.23938-57.404724-22.136352-88.989227.177856-54.495209.049316-108.991424.049316-163.987213m48-52.5v97.069214c70.2854-56.226441 140.034424-56.147553 210 .140381 0-13.752838.181396-27.742615-.035034-41.726258-.576538-37.245376 2.039795-74.57846-2.971802-111.705871-2.959351-21.924393-8.377197-43.067581-19.974609-62.207924-12.084351-19.943672-29.03772-33.573906-51.81604-39.467033-17.159912-4.439476-34.467041-4.808949-51.896973-1.661988-21.098633 3.809315-38.778809 13.527832-52.38855 30.228966-12.235229 15.014412-19.277344 32.520409-23.943359 51.091118-6.375122 25.373123-7.367798 51.247223-6.973633 78.239395m205.850586 194.368408c-1.97583-10.7612-3.111328-21.761322-6.089966-32.237427-7.946777-27.949676-24.732178-48.748474-52.126953-59.870239-19.244507-7.812805-39.396362-9.514465-59.789429-6.524872-24.086181 3.531006-44.666259 14.003327-60.029663 33.349121-14.992676 18.878907-22.021362 41.013123-23.552734 64.625245-1.595947 24.610809-.467163 49.173248 6.716553 73.136169 6.353515 21.193512 16.316772 40.027252 33.88684 54.065155 13.886231 11.094605 29.917481 17.032532 47.536499 18.884583 23.357422 2.455444 45.51355-1.153199 65.540894-13.895142 22.118652-14.072632 34.035889-35.43454 41.153442-59.900147 6.724732-23.115448 7.543457-46.838775 6.754517-71.632446z" fill="#cdb591"/><path d="m911.163452 310.804749c17.678223 17.452117 30.43634 37.461456 38.266785 60.809906 4.902466 14.618072 8.027099 29.519714 9.394348 44.735656 1.929138 21.470398.775757 42.85022-3.977417 63.983033-5.059692 22.496032-14.500366 43.019927-28.428772 61.26181-10.789185 14.130615-24.281921 25.473999-39.736633 34.449341-19.522461 11.337646-40.574219 17.549743-62.939881 20.01947-23.14862 2.556274-45.905578.604187-67.9729-6.424256-9.035156-2.877685-17.303589-8.238464-25.755127-12.778076-1.081665-.580932-2.12207-3.685669-1.557434-4.513305 7.173218-10.514954 14.643738-20.827027 22.245361-31.48053 9.793579 6.64032 20.115418 11.589172 31.789612 13.547241 21.733154 3.645264 42.779968 1.614929 63.191406-6.763733 11.23877-4.613464 21.327454-11.143371 29.731507-19.800903 9.588134-9.877625 16.698974-21.578888 21.65332-34.451843 5.839477-15.172883 9.155273-30.857575 8.958801-47.216126-.110595-9.209015.683838-18.469055-.015625-27.623108-1.85791-24.313659-8.161377-47.188843-22.825866-67.313873-13.816712-18.961701-31.969849-30.48877-55.127015-34.344238-19.815063-3.299012-39.053283-1.5607-57.180664 7.18927-15.075256 7.276733-25.831604 19.485107-35.067505 33.208831-14.263732 21.194642-22.716186 44.952698-30.704101 68.902771-10.370606 31.093842-20.430725 62.282074-35.995545 91.336975-11.475708 21.421876-25.992187 40.311524-45.644409 54.805115-13.980774 10.310852-29.828369 16.688416-46.753418 20.566162-14.599121 3.34491-29.340454 4.404602-44.271423 3.956177-23.245545-.698059-45.290924-6.23938-65.782715-17.080505-14.966339-7.917847-27.461975-19.055359-38.497955-31.992005-11.833527-13.871582-20.420532-29.575744-26.177887-46.601593-4.076447-12.054992-6.954712-24.709869-8.635315-37.327728-1.826508-13.713501-2.37973-27.708588-2.103333-41.553223.206177-10.326385 1.905548-20.76889 4.188446-30.877746 4.904267-21.716583 13.249451-42.108826 26.509644-60.200287 8.259705-11.269012 17.778168-21.295166 28.987122-29.818543 20.746246-15.775695 44.2565-24.381713 69.86264-27.181732 29.554626-3.231811 58.239258.120728 85.139954 13.828858 1.029602.524688 2.105041.979156 3.074401 1.598816 2.891724 1.848327 5.741272 3.762756 8.722168 5.72705-7.98883 11.388794-15.871338 22.625977-23.904663 34.078095-9.093689-6.475494-18.667053-10.893585-29.168091-13.085297-27.388977-5.716522-53.402648-2.116943-76.380523 14.187775-19.780548 14.03595-31.426056 34.227966-38.311646 57.313354-6.053283 20.294922-7.087402 41.154969-5.652862 61.95752 1.571899 22.79425 6.747528 44.948303 19.506103 64.512421 13.901947 21.317504 33.160523 34.894226 58.594849 38.639831 27.146301 3.997864 52.424682-.35907 73.826721-18.849731 14.968323-12.932129 24.917419-29.643891 32.049439-47.697235 12.164245-30.791138 23.070678-62.076538 34.839111-93.027436 9.680542-25.459839 21.414917-49.988006 38.528625-71.360809 18.680909-23.330078 42.465638-39.308136 72.234925-44.775543 12.633117-2.32016 25.587768-4.056824 38.393249-4.037781 30.060974.044708 58.165589 7.856995 83.205078 25.0354 5.403443 3.707032 10.288208 8.170044 15.67511 12.526307z" fill="#c47034"/><path d="m838.627563 726.545227c-10.729187-22.728455-29.787841-35.258911-51.606628-44.499573-21.240234-8.995605-43.742126-12.682129-66.474304-14.976318-36.445801-3.67804-72.91687-3.330322-109.132996 2.200378-25.658569 3.918457-50.596924 10.646546-71.658203 27.034363-16.562622 12.88739-26.200134 29.888489-28.821442 50.714356-1.741363 13.834472-1.37091 27.570495 2.683625 41.081237 2.604919 8.680237 6.739074 16.427002 13.950439 21.989563 11.236511 8.667359 26.189636 8.03064 36.478394-2.174987 5.593933-5.548706 10.278747-12.218689 14.449096-18.955323 8.666382-13.999694 15.934388-28.914123 25.189576-42.489624 17.236145-25.28186 42.173401-34.821289 72.051574-31.175598 30.560303 3.728882 51.183167 20.354309 60.392823 49.974426 7.445617 23.946717 4.81427 47.419617-5.432251 70.061585-2.867859 6.33728-6.611023 12.299011-10.257325 18.246155-.738525 1.20459-2.978149 2.396545-4.309021 2.190979-14.387512-2.222473-28.731628-4.725708-43.242858-7.178467 4.036438-6.452881 8.148437-12.44867 11.662841-18.776428 5.706482-10.274353 9.418396-21.305542 10.964722-32.993836 1.228271-9.284973.178589-18.404236-3.682678-26.89563-9.130066-20.078125-34.268128-18.064514-44.808716-7.155395-6.05835 6.270202-11.173828 13.627441-15.804932 21.061462-7.916626 12.708313-14.701233 26.125489-22.697876 38.77948-26.772766 42.366089-77.586609 39.587952-108.196838 16.923401-23.845245-17.655517-34.760468-42.384338-37.20163-71.176086-1.837707-21.674988.765229-42.831909 9.633423-63.007813 9.215729-20.966614 23.907837-37.072021 43.081635-49.217224 27.023559-17.117615 57.245117-24.661499 88.452087-29.21106 38.988831-5.683959 78.101563-4.909423 117.1745-1.677673 34.686279 2.868897 68.697387 9.3844 100.276794 24.783569 37.446228 18.259949 61.471314 47.272583 67.911804 89.154603 3.981446 25.89038 1.331543 51.416015-6.147217 76.528015-4.828918 16.214416-11.747558 31.434997-20.30249 46.539123-14.51654-5.394409-28.902466-10.740356-42.353882-15.739013 5.925476-14.095887 12.541077-27.397645 17.148743-41.361939 7.011902-21.250427 9.653259-43.203003 4.967712-65.476501-.917541-4.361939-2.753295-8.530762-4.338501-13.124207z" fill="#c47034"/><path d="m295.21286 587.768799c-11.223083-17.956726-17.313263-37.377686-17.999695-57.983093-1.052429-31.589325-.951873-63.219086-1.18695-94.832886-.163727-22.015381-2.295075-43.717865-10.937531-64.202027-13.713821-32.504211-37.95079-51.933105-73.116012-56.785278-23.521088-3.245514-46.348954-.377441-67.713219 10.467743-16.185158 8.216126-27.8657 21.237946-36.798554 36.785034-9.947647 17.313385-14.774337 36.205963-16.580848 55.960449-.649048 7.097382-2.057946 14.23877-1.70887 21.290192.711754 14.377197 2.128036 28.735382 3.728325 43.04834 1.60337 14.340485 5.944625 27.977264 12.764267 40.69519 11.306411 21.085205 28.775978 32.991333 52.878509 34.839051 22.74382 1.74353 39.885147-7.27948 51.852265-26.523011.343963-.553161.856109-1.001709 1.606079-1.861633 1.078689.644592 2.229507 1.182556 3.209335 1.941284 8.55339 6.623596 17.04216 13.331116 25.629715 19.90979 2.433746 1.864502 2.758331 3.392517 1.06929 6.220154-14.392883 24.095642-35.611053 36.753235-63.434769 39.464844-34.590103 3.371033-65.621566-4.914307-92.778991-26.798706-11.711582-9.437561-20.295456-21.498902-27.690918-34.426453-11.864838-20.740295-17.402928-43.445495-19.809031-66.950958-3.231473-31.568695-1.425155-62.755096 8.990263-93.025665 7.514408-21.839264 18.969029-41.183441 34.995136-58.105622 20.865403-22.032104 46.665932-34.476318 75.696175-40.488342 12.230225-2.532806 25.050201-3.404877 37.562073-3.140228 24.981643.528442 49.334518 5.167846 71.716919 16.936218 16.236511 8.536896 30.414581 19.63504 42.601745 33.691864 16.786652 19.361969 26.275422 41.861115 31.763214 66.369049 1.505646 6.723938 2.266663 13.733856 2.383667 20.629242.556153 32.779053.126252 65.58786 1.346192 98.337708.755829 20.290252 3.410858 40.584381 11.866791 59.514129 1.538818 3.444824 3.304535 6.788269 5.23645 10.731568-13.410797 5.965026-26.633576 11.846435-40.316651 17.932556-2.285858-3.239929-4.442535-6.296875-6.824371-9.640503z" fill="#cdb592"/><path d="m1845.413086 757.122192c12.233276-2.717651 23.47876-2.275451 33.426636 5.847229 5.466064 4.463013 8.285278 10.404663 9.468506 17.057496 2.47937 13.940856.529541 27.110107-11.662476 35.819946-11.401001 8.144653-24.3927 8.672058-36.835571 1.963318-10.595337-5.712647-13.812622-16.063965-14.656983-27.306641-.90332-12.029236 4.150635-28.516907 20.259888-33.381348z" fill="#fdfdfd"/><g fill="#fff"><path d="m1077 217c-.394165-26.492172.598511-52.366272 6.973633-77.739395 4.666015-18.570709 11.70813-36.076706 23.943359-51.091118 13.609741-16.701134 31.289917-26.419651 52.38855-30.228966 17.429932-3.146961 34.737061-2.777488 51.896973 1.661988 22.77832 5.893127 39.731689 19.523361 51.81604 39.467033 11.597412 19.140343 17.015258 40.283531 19.974609 62.207924 5.011597 37.127411 2.395264 74.460495 2.971802 111.705871.21643 13.983643.035034 27.97342.035034 41.726258-69.965576-56.287934-139.7146-56.366822-210-.140381 0-31.975067 0-64.522141 0-97.569214z"/><path d="m1282.877197 412.338104c.762329 24.323975-.056396 48.047302-6.781128 71.16275-7.117553 24.465607-19.03479 45.827515-41.153442 59.900147-20.027344 12.741943-42.183472 16.350586-65.540894 13.895142-17.619018-1.852051-33.650268-7.789978-47.536499-18.884583-17.570068-14.037903-27.533325-32.871643-33.88684-54.065155-7.183716-23.962921-8.3125-48.52536-6.716553-73.136169 1.531372-23.612122 8.560058-45.746338 23.552734-64.625245 15.363404-19.345794 35.943482-29.818115 60.029663-33.349121 20.393067-2.989593 40.544922-1.287933 59.789429 6.524872 27.394775 11.121765 44.180176 31.920563 52.126953 59.870239 2.978638 10.476105 4.114136 21.476227 6.116577 32.707123z"/></g></svg>