<svg enable-background="new 0 0 1718 374" viewBox="0 0 1718 374" xmlns="http://www.w3.org/2000/svg"><path d="m1132 375c-377.288391 0-754.076782 0-1130.932583 0 0-124.606827 0-249.213692 0-373.91028h1717.897061v373.91028c-195.511841 0-390.98816 0-586.964478 0m353.291016-39.767426c17.758667 8.924042 36.870361 12.15387 56.450805 13.352204 28.231568 1.727814 55.256958-3.23645 80.128418-16.743927 37.416382-20.320587 60.448609-52.478424 70.723511-93.1512 11.091064-43.903289 9.582153-87.472885-9.289917-129.513664-11.373169-25.33583-28.770264-45.677372-52.256836-60.257843-38.617432-23.973795-80.584839-28.912609-124.51477-19.440964-14.394776 3.103627-27.836304 8.821614-39.937623 17.915185 8.028565 11.455078 15.854615 22.621368 23.614258 33.692695 4.565552-2.564003 8.760987-5.269524 13.239258-7.373329 17.321655-8.137268 35.619507-9.12619 54.254761-6.749573 27.810181 3.546723 50.57373 15.960015 66.923706 39.078339 12.635498 17.866165 18.53064 38.208496 20.634277 59.719589 2.706055 27.670425 1.116455 55.023163-9.32727 81.092209-12.510376 31.22757-33.98938 52.851471-68.307007 58.581085-27.019287 4.511078-52.174805-.385284-73.468262-18.731995-12.275024-10.576293-21.846313-23.621368-28.165649-38.400238-9.672974-22.621719-18.724365-45.557464-26.883179-68.76651-10.725098-30.509109-20.960815-61.141433-38.599853-88.596283-13.539429-21.073989-30.058716-39.249691-52.822144-50.461818-34.917358-17.198483-71.624146-19.548552-109.045776-10.442854-39.667847 9.652262-68.627564 33.458124-87.74646 69.306963-11.113892 20.839088-17.002686 43.230018-19.11023 66.725151-3.562988 39.723144 1.282105 77.818146 21.727173 112.838623 15.889038 27.216339 38.467407 47.229858 67.642334 59.033386 30.818115 12.468353 62.782837 14.172211 95.144531 6.823548 14.691895-3.336243 28.562256-8.804627 40.873169-18.105225-7.991699-11.400147-15.815918-22.561462-23.543091-33.58429-5.503906 2.925476-10.581787 6.175354-16.076782 8.390625-5.510498 2.221619-11.342407 3.965363-17.196289 4.965302-46.43042 7.930878-87.025024-13.072785-105.20581-56.986008-16.700074-40.336838-16.648316-82.077148-1.042359-122.862381 14.130249-36.928512 41.387573-57.543846 81.682007-58.787468 21.992065-.678764 42.161255 4.847527 59.285767 19.487801 12.294311 10.510597 21.376953 23.611473 27.718383 38.088608 9.603028 21.922424 18.004151 44.399017 26.223755 66.89302 11.496704 31.462525 22.73999 62.994873 40.867798 91.463822 13.843872 21.741089 31.169434 39.811981 55.405396 51.507415m-1189.696808 2.894501c8.011322-5.307434 16.844391-9.709869 23.876953-16.095245 19.591614-17.788605 28.754425-41.495148 33.262268-66.732117 6.802246-38.082367 4.902588-75.999435-6.724884-113.088577-14.464905-46.139855-42.446564-81.109608-86.776337-101.627258-31.662094-14.654526-65.128463-18.554963-99.559662-13.440333-46.082489 6.845389-82.604889 29.27104-108.869312 67.934527-16.522987 24.323234-25.23008 51.631263-29.294973 80.431617-4.894327 34.677048-4.309103 69.147187 7.403471 102.643509 6.652366 19.024811 16.965847 35.795258 33.109161 48.372895 21.591496 16.822448 46.249745 21.967926 72.973492 18.301422 15.936233-2.186432 30.225219-8.19339 41.156448-20.410981 4.663696-5.212463 8.515885-11.151031 12.757599-16.787231 6.312866 12.216064 15.019577 22.837128 27.666565 28.978638 25.671234 12.466278 51.952347 12.472168 79.019211 1.519134m690.944549-244.144996c3.239075 4.21836 6.815552 8.222068 9.659241 12.691963 12.864319 20.221466 18.212952 42.69255 18.743897 66.371826.843322 37.610062.774719 75.250748 2.264038 112.832001.793884 20.033538 7.756103 38.718567 18.758545 55.658203 5.234497 8.059265 5.367309 8.089844 14.216552 4.235138 10.630982-4.63089 21.185791-9.436859 31.367554-13.985657-3.290772-8.150055-6.839233-15.673981-9.39978-23.520294-7.381714-22.61966-7.320679-46.187378-7.882325-69.600403-.670654-27.959396.503907-56.03241-1.588867-83.870682-2.5802-34.322838-17.041504-64.10585-41.836548-88.274322-18.498596-18.031239-40.617553-29.849099-65.747863-36.076224-26.759034-6.630706-53.680359-7.552396-80.511719-1.330661-55.348511 12.834379-91.248474 47.245088-108.86145 100.802866-8.445435 25.680862-10.899109 52.195404-8.987366 79.252548 1.957642 27.706802 7.430847 54.284897 21.189392 78.736221 14.272278 25.364471 34.808777 43.546448 62.193909 53.559784 19.036987 6.960846 38.7323 8.90863 58.926697 6.656921 21.408508-2.387054 39.786193-10.472686 53.619628-27.425018 3.931763-4.818237 7.366272-10.042297 11.218934-15.341797-10.646607-8.228821-20.506409-15.858093-30.3844-23.463775-.618286-.476044-1.37854-.76764-2.054993-1.135376-3.365173 4.412109-6.233215 8.936218-9.83612 12.769714-20.361206 21.664795-55.896179 18.889404-75.816834 4.620331-16.024719-11.478455-24.466308-27.813355-29.712951-46.093323-6.347351-22.114883-7.553406-44.847794-7.002564-67.701996.472046-19.582306 3.641846-38.673355 10.951233-56.971954 9.383972-23.492073 24.590943-41.726097 47.715088-52.691521 16.423889-7.78817 33.898132-10.320022 51.957642-9.842056 25.973327.687408 48.442016 9.323036 66.84143 29.137543m-465.733581 146.30738c32.651001-.456604 62.897095 7.080399 89.77716 26.419647 18.50354 13.312714 34.519654 29.188782 49.334839 46.382264 5.178833 6.010192 10.353821 12.023651 15.826477 18.379272 11.904053-8.954407 23.377259-17.584808 34.894898-26.248566-.71228-1.159759-.964356-1.80368-1.408875-2.260253-15.663574-16.090424-30.501953-33.106324-47.202148-48.039765-33.509216-29.964142-72.303284-49.339584-117.750427-53.6642-27.819153-2.647186-55.291138-1.632431-81.605317 8.774826-23.245727 9.193665-39.132721 25.345581-44.395355 50.494019-8.456054 40.408905 10.295075 73.210541 48.404572 84.570099 17.609375 5.248932 35.556457 4.691253 53.462982 1.884643 14.47113-2.268188 27.750061-7.725982 39.887939-16.010742 2.719117-1.855926 2.972596-3.373352 1.15857-6.031189-3.746521-5.489441-7.161011-11.204132-10.806275-16.764435-3.33966-5.094177-6.803161-10.107177-10.322021-15.318786-1.567871 1.292816-2.558289 2.148346-3.58844 2.953094-12.702271 9.922638-26.993164 14.858917-43.186035 13.356079-16.927399-1.570953-27.071503-10.041778-28.930481-23.83432-2.558502-18.982635 7.101105-34.350372 25.721588-39.400604 9.735046-2.640335 19.871124-3.801971 30.726349-5.641083m128.73706-114.323356c8.70691 10.000175 17.41388 20.000343 26.361389 30.276802 10.927186-8.129502 21.706482-16.182297 32.529053-24.176392 2.594239-1.916244 1.577942-3.49968-.120361-5.274025-12.651062-13.217598-24.730164-27.038834-38.019775-39.577934-33.252442-31.374645-71.417115-53.650417-117.557068-59.852312-28.150452-3.783833-56.212769-3.467263-83.551575 5.082155-33.71286 10.542709-52.372681 35.73719-52.696198 69.91317-.325103 34.336159 20.125 60.14344 53.065552 67.957969 17.678559 4.19394 35.292816 4.720765 53.011994 1.384369 13.534912-2.548553 25.984924-8.016296 37.479248-15.634903 2.52301-1.672287 3.177917-3.337402 1.2182-6.089416-3.469177-4.871613-6.588745-9.992096-9.85852-15.005844-3.760437-5.766083-7.525269-11.529343-11.39386-17.455765-13.474426 12.392273-28.395783 18.058975-45.8573 16.31073-8.241852-.82518-16.073334-2.820602-22.344147-8.702064-12.474609-11.700005-9.988189-36.747803 4.658905-47.778496 10.988617-8.275467 23.879914-10.637131 37.058411-11.640618 29.841431-2.272289 58.303528 2.275589 84.58606 17.582703 19.337036 11.262062 35.618042 26.106628 51.429992 42.679871z" fill="#fffffe"/><path d="m1484.949463 335.079468c-23.894409-11.542328-41.219971-29.61322-55.063843-51.354309-18.127808-28.468949-29.371094-60.001297-40.867798-91.463822-8.219604-22.494003-16.620727-44.970596-26.223755-66.89302-6.34143-14.477135-15.424072-27.578011-27.718383-38.088608-17.124512-14.640274-37.293702-20.166565-59.285767-19.487801-40.294434 1.243622-67.551758 21.858956-81.682007 58.787468-15.605957 40.785233-15.657715 82.525543 1.042359 122.862381 18.180786 43.913223 58.77539 64.916886 105.20581 56.986008 5.853882-.999939 11.685791-2.743683 17.196289-4.965302 5.494995-2.215271 10.572876-5.465149 16.076782-8.390625 7.727173 11.022828 15.551392 22.184143 23.543091 33.58429-12.310913 9.300598-26.181274 14.768982-40.873169 18.105225-32.361694 7.348663-64.326416 5.644805-95.144531-6.823548-29.174927-11.803528-51.753296-31.817047-67.642334-59.033386-20.445068-35.020477-25.290161-73.115479-21.727173-112.838623 2.107544-23.495133 7.996338-45.886063 19.11023-66.725151 19.118896-35.848839 48.078613-59.654701 87.74646-69.306963 37.42163-9.105698 74.128418-6.755629 109.045776 10.442854 22.763428 11.212127 39.282715 29.387829 52.822144 50.461818 17.639038 27.45485 27.874755 58.087174 38.599853 88.596283 8.158814 23.209046 17.210205 46.144791 26.883179 68.76651 6.319336 14.77887 15.890625 27.823945 28.165649 38.400238 21.293457 18.346711 46.448975 23.243073 73.468262 18.731995 34.317627-5.729614 55.796631-27.353515 68.307007-58.581085 10.443725-26.069046 12.033325-53.421784 9.32727-81.092209-2.103637-21.511093-7.998779-41.853424-20.634277-59.719589-16.349976-23.118324-39.113525-35.531616-66.923706-39.078339-18.635254-2.376617-36.933106-1.387695-54.254761 6.749573-4.478271 2.103805-8.673706 4.809326-13.239258 7.373329-7.759643-11.071327-15.585693-22.237617-23.614258-33.692695 12.101319-9.093571 25.542847-14.811558 39.937623-17.915185 43.929931-9.471645 85.897338-4.532831 124.51477 19.440964 23.486572 14.580471 40.883667 34.922013 52.256836 60.257843 18.87207 42.040779 20.380981 85.610375 9.289917 129.513664-10.274902 40.672776-33.307129 72.830613-70.723511 93.1512-24.87146 13.507477-51.89685 18.471741-80.128418 16.743927-19.580444-1.198334-38.692138-4.428162-56.792358-13.50531z" fill="#c47034"/><path d="m295.24646 338.279999c-26.719116 10.80011-53.000229 10.79422-78.671463-1.672058-12.646988-6.14151-21.353699-16.762574-27.666565-28.978638-4.241714 5.6362-8.093903 11.574768-12.757599 16.787231-10.931229 12.217591-25.220215 18.224549-41.156448 20.410981-26.723747 3.666504-51.381996-1.478974-72.973492-18.301422-16.143314-12.577637-26.456795-29.348084-33.109161-48.372895-11.712574-33.496322-12.297798-67.966461-7.403471-102.643509 4.064893-28.800354 12.771986-56.108383 29.294973-80.431617 26.264423-38.663487 62.786823-61.089138 108.869312-67.934527 34.431199-5.11463 67.897568-1.214193 99.559662 13.440333 44.329773 20.51765 72.311432 55.487403 86.776337 101.627258 11.627472 37.089142 13.52713 75.00621 6.724884 113.088577-4.507843 25.236969-13.670654 48.943512-33.262268 66.732117-7.032562 6.385376-15.865631 10.787811-24.224701 16.248169m-122.570862-122.448792h34.951264c.813354 9.76648 1.330047 19.059738 2.414169 28.286316 1.75824 14.963806 4.884323 29.629791 13.181824 42.539002 12.940704 20.133056 39.47081 23.428772 57.095749 7.307769 10.429412-9.53952 15.200592-22.143554 18.43634-35.324066 5.331238-21.716461 5.86914-43.852081 4.1474-66.03601-1.841431-23.72641-6.789398-46.606263-17.592469-68.156624-29.028625-57.907326-96.054122-70.683216-145.727615-48.489907-31.871727 14.239754-49.643432 40.725739-59.642799 73.042557-8.234261 26.612167-9.590653 54.02768-7.676354 81.600342 1.243485 17.91037 5.201004 35.269073 14.8032 50.799622 9.493034 15.354003 22.905014 24.252777 41.490883 22.327117 17.291672-1.791595 26.238449-13.563476 31.553329-28.857513 6.13472-17.653107 7.612824-36.068405 8.884491-54.522186.12436-1.804596-1.107406-4.790985 3.680588-4.516419z" fill="#010101"/><path d="m986.292236 93.724876c-18.152893-19.557304-40.621582-28.192932-66.594909-28.88034-18.05951-.477966-35.533753 2.053886-51.957642 9.842056-23.124145 10.965424-38.331116 29.199448-47.715088 52.691521-7.309387 18.298599-10.479187 37.389648-10.951233 56.971954-.550842 22.854202.655213 45.587113 7.002564 67.701996 5.246643 18.279968 13.688232 34.614868 29.712951 46.093323 19.920655 14.269073 55.455628 17.044464 75.816834-4.620331 3.602905-3.833496 6.470947-8.357605 9.83612-12.769714.676453.367736 1.436707.659332 2.054993 1.135376 9.877991 7.605682 19.737793 15.234954 30.3844 23.463775-3.852662 5.2995-7.287171 10.52356-11.218934 15.341797-13.833435 16.952332-32.21112 25.037964-53.619628 27.425018-20.194397 2.251709-39.88971.303925-58.926697-6.656921-27.385132-10.013336-47.921631-28.195313-62.193909-53.559784-13.758545-24.451324-19.23175-51.029419-21.189392-78.736221-1.911743-27.057144.541931-53.571686 8.987366-79.252548 17.612976-53.557778 53.512939-87.968487 108.86145-100.802866 26.83136-6.221735 53.752685-5.300045 80.511719 1.330661 25.13031 6.227125 47.249267 18.044985 65.747863 36.076224 24.795044 24.168472 39.256348 53.951484 41.836548 88.274322 2.092774 27.838272.918213 55.911286 1.588867 83.870682.561646 23.413025.500611 46.980743 7.882325 69.600403 2.560547 7.846313 6.109008 15.370239 9.39978 23.520294-10.181763 4.548798-20.736572 9.354767-31.367554 13.985657-8.849243 3.854706-8.982055 3.824127-14.216552-4.235138-11.002442-16.939636-17.964661-35.624665-18.758545-55.658203-1.489319-37.581253-1.420716-75.221939-2.264038-112.832001-.530945-23.679276-5.879578-46.15036-18.743897-66.371826-2.843689-4.469895-6.420166-8.473603-9.905762-12.949166z" fill="#cdb592"/><path d="m520.355042 240.294266c-10.405091 1.834305-20.541169 2.995941-30.276215 5.636276-18.620483 5.050232-28.28009 20.417969-25.721588 39.400604 1.858978 13.792542 12.003082 22.263367 28.930481 23.83432 16.192871 1.502838 30.483764-3.433441 43.186035-13.356079 1.030151-.804748 2.020569-1.660278 3.58844-2.953094 3.51886 5.211609 6.982361 10.224609 10.322021 15.318786 3.645264 5.560303 7.059754 11.274994 10.806275 16.764435 1.814026 2.657837 1.560547 4.175263-1.15857 6.031189-12.137878 8.28476-25.416809 13.742554-39.887939 16.010742-17.906525 2.80661-35.853607 3.364289-53.462982-1.884643-38.109497-11.359558-56.860626-44.161194-48.404572-84.570099 5.262634-25.148438 21.149628-41.300354 44.395355-50.494019 26.314179-10.407257 53.786164-11.422012 81.605317-8.774826 45.447143 4.324616 84.241211 23.700058 117.750427 53.6642 16.700195 14.933441 31.538574 31.949341 47.202148 48.039765.444519.456573.696595 1.100494 1.408875 2.260253-11.517639 8.663758-22.990845 17.294159-34.894898 26.248566-5.472656-6.355621-10.647644-12.36908-15.826477-18.379272-14.815185-17.193482-30.831299-33.06955-49.334839-46.382264-26.880065-19.339248-57.126159-26.876251-90.227294-26.41484z" fill="#020202"/><path d="m649.289185 125.716316c-15.558899-16.323456-31.839905-31.168022-51.176941-42.430084-26.282532-15.307114-54.744629-19.854992-84.58606-17.582703-13.178497 1.003487-26.069794 3.365151-37.058411 11.640618-14.647094 11.030693-17.133514 36.078491-4.658905 47.778496 6.270813 5.881462 14.102295 7.876884 22.344147 8.702064 17.461517 1.748245 32.382874-3.918457 45.8573-16.31073 3.868591 5.926422 7.633423 11.689682 11.39386 17.455765 3.269775 5.013748 6.389343 10.134231 9.85852 15.005844 1.959717 2.752014 1.30481 4.417129-1.2182 6.089416-11.494324 7.618607-23.944336 13.08635-37.479248 15.634903-17.719178 3.336396-35.333435 2.809571-53.011994-1.384369-32.940552-7.814529-53.390655-33.62181-53.065552-67.957969.323517-34.17598 18.983338-59.370461 52.696198-69.91317 27.338806-8.549418 55.401123-8.865988 83.551575-5.082155 46.139953 6.201895 84.304626 28.477667 117.557068 59.852312 13.289611 12.5391 25.368713 26.360336 38.019775 39.577934 1.698303 1.774345 2.7146 3.357781.120361 5.274025-10.822571 7.994095-21.601867 16.04689-32.529053 24.176392-8.947509-10.276459-17.654479-20.276627-26.61444-30.526589z" fill="#020202"/><path d="m172.194641 215.831818c-4.307037-.275177-3.075271 2.711212-3.199631 4.515808-1.271667 18.453781-2.749771 36.869079-8.884491 54.522186-5.31488 15.294037-14.261657 27.065918-31.553329 28.857513-18.585869 1.92566-31.997849-6.973114-41.490883-22.327117-9.602196-15.530549-13.559715-32.889252-14.8032-50.799622-1.914299-27.572662-.557907-54.988175 7.676354-81.600342 9.999367-32.316818 27.771072-58.802803 59.642799-73.042557 49.673493-22.193309 116.69899-9.417419 145.727615 48.489907 10.803071 21.550361 15.751038 44.430214 17.592469 68.156624 1.72174 22.183929 1.183838 44.319549-4.1474 66.03601-3.235748 13.180512-8.006928 25.784546-18.43634 35.324066-17.624939 16.121003-44.155045 12.825287-57.095749-7.307769-8.297501-12.909211-11.423584-27.575196-13.181824-42.539002-1.084122-9.226578-1.600815-18.519836-2.414169-28.286316-11.730912 0-23.341095 0-35.432221.000611z" fill="#fefefe"/></svg>