<svg enable-background="new 0 0 1204 696" viewBox="0 0 1204 696" xmlns="http://www.w3.org/2000/svg"><path d="m884 697c-294.627991 0-588.755981 0-882.941981 0 0-231.930817 0-463.861618 0-695.896223h1203.75912v695.896223c-106.678833 0-213.497986 0-320.817139 0m-386.150818-440.02832h94.06134v7.303466c0 128.128815.017457 256.25763-.085266 384.386414-.003051 3.792786.941712 6.109558 4.401123 7.897827 9.461304 4.89093 18.747254 10.120239 28.13147 15.161865 1.225647.658509 2.619873 1.003174 4.789978 1.811158 0-139.226136 0-277.572358 0-416.664185 27.407654 0 54.175354 0 81.862976.11084h238.399475c0 10.023407-.221435 19.189423.103028 28.33609.140747 3.96698-1.05304 5.682037-4.871643 7.05188-73.095887 26.22113-143.225342 58.726868-209.388672 99.537262-10.860596 6.698913-21.512757 13.735626-32.249939 20.609039 8.648315 23.750031 17.411377 46.870423 25.375061 70.26297 2.375366 6.977539 5.904053 9.443085 13.095154 10.437805 31.934143 4.417359 62.203552 14.475952 90.67987 29.566773 38.466614 20.385254 70.671326 48.370361 96.184387 83.485046 15.095581 20.77655 29.191468 42.083557 51.712769 55.810547.141174.086121.247803.24292.39624.301148 1.885864.740478 3.77655 1.468933 5.665955 2.200378.347595-1.854736.998352-3.709412.999267-5.56427.049012-99.820252.043457-199.640503.043457-299.460754 0-2.094758-.000061-4.189515-.000061-6.218323 30.312561-2.338104 71.598999 8.988189 95.403077 26.067352 22.517089 16.155792 38.30017 36.89859 42.836059 64.867584 1.048096 6.462738.789185 13.137451 1.131714 19.7146-2.286621-1.345368-3.154541-2.765198-4.085449-4.142548-14.540283-21.512359-43.525147-26.933654-64.195801-11.890289-13.45459 9.791809-17.915894 23.903412-18.310303 39.727112-.558227 22.404541 10.917481 41.190613 30.501709 48.09198 29.910645 10.540283 63.884766 1.493286 77.374268-35.575867 14.771606-40.592529 10.131225-80.232574-10.856568-117.49408-25.971435-46.10968-66.580078-73.395721-117.05426-86.775451-10.571106-2.802185-21.466308-4.381653-32.45404-6.572785 0-10.432708 0-21.174896 0-32.414703h210.139892c-1.181885-2.062515-1.914306-3.493484-2.784668-4.834869-5.892578-9.080185-11.987427-18.035385-17.63623-27.263947-2.099854-3.430725-4.470581-4.513931-8.404175-4.511383-151.146851.097839-302.293762.081223-453.440613.103409-1.801819.000259-3.603638.308823-6.326965.387253-13.642517-.241486-27.284973-.673401-40.92749-.672165-14.309327.001282-28.618592.526703-42.927918.525162-1.941589-.000214-4.622497-1.207337-5.709228-2.742051-9.902527-13.984405-19.58136-28.129135-29.135743-42.354507-.807983-1.202927-.679565-3.452057-.246582-5.009506 8.377747-30.135987 26.345276-54.002144 49.934143-73.65387 37.234437-31.019752 80.340516-39.537048 127.457276-31.620598 40.754272 6.847458 76.795166 24.575279 110.577759 47.499054 27.365783 18.569557 52.352295 40.042336 75.821167 63.307793 1.034362 1.025451 2.185669 1.932983 3.461914 3.052841 4.770874-4.357544 9.266296-8.551178 13.867553-12.625214 1.982422-1.755188 2.422791-3.199127.427308-5.371566-4.615052-5.024216-8.847962-10.404038-13.53357-15.358017-31.226257-33.014313-64.639831-63.458084-103.33789-87.684407-29.247071-18.309642-59.992371-33.074344-93.86261-40.775081-27.12793-6.167813-54.280152-7.168996-81.561829-1.258194-30.070984 6.515127-56.757141 19.875973-79.861389 40.155773-31.955689 28.049091-54.277466 62.813038-70.062195 101.993763-.566284 1.40567-.238037 4.057434.753845 5.073135 16.624329 17.023026 33.412842 33.885895 50.189942 50.759354 2.028076 2.039703 4.201599 3.934875 6.307678 5.897018-.251892.327225-.503784.654465-.755676.98169-29.599427 0-59.198792 0-89.529053-.388291-5.443176 0-10.886353 0-16.524719 0-.908753-9.399398-1.643463-18.186142-2.703186-26.933517-.206024-1.700623-1.282013-3.781082-2.628937-4.779755-8.954559-6.639511-18.063873-13.072693-27.200989-19.461227-1.346252-.9413-3.106384-1.290726-5.819733-2.36882.660004 33.629806 1.297425 66.110229 1.922272 97.947616-3.569366-6.372162-6.929962-13.594223-11.377838-20.069397-10.822693-15.755462-25.330017-25.092651-45.249481-24.443939-9.969544.324677-19.958344.05661-29.938446.05661-113.991196.000015-227.982392 0-341.973592 0-1.94394 0-3.88788 0-6.532014 0 1.099196 1.896103 1.759564 3.155548 2.5294 4.344071 5.971483 9.219223 12.095091 18.343567 17.879608 27.678238 2.043654 3.297882 4.267775 4.591918 8.286516 4.585266 83.160019-.137574 166.320305-.103608 249.480553-.103608 1.785767 0 3.571564-.00003 5.221405-.00003.23703.761627.409454 1.058441.410278 1.355682.025025 8.998932-.188659 18.006134.146668 26.992981.146149 3.916992-.975189 5.643891-4.782166 7.020691-61.116836 22.103058-120.623443 47.816681-176.934082 80.463074-21.854591 12.670319-43.315811 26.019165-65.028106 39.102264 9.588173 26.274323 18.845672 51.751618 28.278549 77.163819.463684 1.249176 2.344543 2.486816 3.761284 2.778381 6.024246 1.239716 12.153556 1.962891 18.188377 3.158081 41.926849 8.303345 80.380173 24.621033 114.662872 50.302796 32.942521 24.677917 59.608033 55.036071 80.867768 90.22174 1.096313 1.814392 2.379364 3.681031 4.008117 4.981507 9.630921 7.689819 19.352997 15.267578 29.149109 22.745849 1.329468 1.015015 3.245484 1.261597 5.753388 2.180237 0-136.980347 0-272.689209 0-408.451752 21.694824 0 42.858093-.026031 64.021209.012848 8.372467.015412 16.100647 2.709076 21.552094 8.868286 5.43811 6.144196 10.681152 12.957978 14.005981 20.376221 7.855408 17.526642 12.756989 35.764709 12.413086 55.47287-.648254 37.152466-.187133 74.324341-.187133 111.488129 0 65.328308.034698 130.656616-.091187 195.98468-.007111 3.686828 1.148712 5.553161 4.377258 7.213623 9.449524 4.859985 18.679993 10.14447 28.040375 15.180847 1.494385.804016 3.215759 1.186218 5.596069 2.036255 0-139.389404 0-277.912567 0-416.753662 6.025361 0 11.504395 0 17.928345.074585z" fill="#fff"/><path d="m709.914307 220.904251c1.801818-.164657 3.603637-.473221 5.405456-.47348 151.146851-.022186 302.293762-.00557 453.440613-.103409 3.933594-.002548 6.304321 1.080658 8.404175 4.511383 5.648803 9.228562 11.743652 18.183762 17.63623 27.263947.870362 1.341385 1.602783 2.772354 2.784668 4.834869-70.441284 0-140.146362 0-210.139892 0v32.414703c10.987732 2.191132 21.882934 3.7706 32.45404 6.572785 50.474182 13.37973 91.082825 40.665771 117.05426 86.775451 20.987793 37.261506 25.628174 76.901551 10.856568 117.49408-13.489502 37.069153-47.463623 46.11615-77.374268 35.575867-19.584228-6.901367-31.059936-25.687439-30.501709-48.09198.394409-15.8237 4.855713-29.935303 18.310303-39.727112 20.670654-15.043365 49.655518-9.62207 64.195801 11.890289.930908 1.37735 1.798828 2.79718 4.085449 4.142548-.342529-6.577149-.083618-13.251862-1.131714-19.7146-4.535889-27.968994-20.31897-48.711792-42.836059-64.867584-23.804078-17.079163-65.090516-28.405456-95.403077-26.067352 0 2.028808.000061 4.123565.000061 6.218323 0 99.820251.005555 199.640502-.043457 299.460754-.000915 1.854858-.651672 3.709534-.999267 5.56427-1.889405-.731445-3.780091-1.4599-5.665955-2.200378-.148437-.058228-.255066-.215027-.39624-.301148-22.521301-13.72699-36.617188-35.033997-51.712769-55.810547-25.513061-35.114685-57.717773-63.099792-96.184387-83.485046-28.476318-15.090821-58.745727-25.149414-90.67987-29.566773-7.191101-.99472-10.719788-3.460266-13.095154-10.437805-7.963684-23.392547-16.726746-46.512939-25.375061-70.26297 10.737182-6.873413 21.389343-13.910126 32.249939-20.609039 66.16333-40.810394 136.292785-73.316132 209.388672-99.537262 3.818603-1.369843 5.01239-3.0849 4.871643-7.05188-.324463-9.146667-.103028-18.312683-.103028-28.33609-79.627563 0-159.013549 0-238.892639-.513763-.529907-12.196198-.56665-23.878632-.603332-35.561051m239.682251 183.59581c0-16.271271 0-32.542572 0-48.914062-32.497742 7.027587-153.684143 67.362121-175.240357 87.199005 76.341492 25.162353 134.074402 73.218719 175.23999 143.531891 0-61.506592 0-121.161713.000367-181.816834z" fill="#c46f34"/><path d="m496.904266 256.897095c-5.479034 0-10.958068 0-16.983429 0v416.753662c-2.38031-.850037-4.101684-1.232239-5.596069-2.036255-9.360382-5.036377-18.590851-10.320862-28.040375-15.180847-3.228546-1.660462-4.384369-3.526795-4.377258-7.213623.125885-65.328064.091187-130.656372.091187-195.98468 0-37.163788-.461121-74.335663.187133-111.488129.343903-19.708161-4.557678-37.946228-12.413086-55.47287-3.324829-7.418243-8.567871-14.232025-14.005981-20.376221-5.451447-6.15921-13.179627-8.852874-21.552094-8.868286-21.163116-.038879-42.326385-.012848-64.021209-.012848v408.451752c-2.507904-.91864-4.42392-1.165222-5.753388-2.180237-9.796112-7.478271-19.518188-15.05603-29.149109-22.745849-1.628753-1.300476-2.911804-3.167115-4.008117-4.981507-21.259735-35.185669-47.925247-65.543823-80.867768-90.22174-34.282699-25.681763-72.736023-41.999451-114.662872-50.302796-6.034821-1.19519-12.164131-1.918365-18.188377-3.158081-1.416741-.291565-3.2976-1.529205-3.761284-2.778381-9.432877-25.412201-18.690376-50.889496-28.278549-77.163819 21.712295-13.083099 43.173515-26.431945 65.028106-39.102264 56.310639-32.646393 115.817246-58.360016 176.934082-80.463074 3.806977-1.3768 4.928315-3.103699 4.782166-7.020691-.335327-8.986847-.121643-17.994049-.146668-26.992981-.000824-.297241-.173248-.594055-.410278-1.355682-1.649841 0-3.435638.00003-5.221405.00003-83.160248 0-166.320534-.033966-249.480553.103608-4.018741.006652-6.242862-1.287384-8.286516-4.585266-5.784517-9.334671-11.908125-18.459015-17.879608-27.678238-.769836-1.188523-1.430204-2.447968-2.5294-4.344071h6.532014c113.9912 0 227.982396.000015 341.973592 0 9.980102 0 19.968902.268067 29.938446-.05661 19.919464-.648712 34.426788 8.688477 45.249481 24.443939 4.447876 6.475174 7.808472 13.697235 11.377838 20.069397-.624847-31.837387-1.262268-64.31781-1.922272-97.947616 2.713349 1.078094 4.473481 1.42752 5.819733 2.36882 9.137116 6.388534 18.24643 12.821716 27.200989 19.461227 1.346924.998673 2.422913 3.079132 2.628937 4.779755 1.059723 8.747375 1.794433 17.534119 2.703186 26.933517 5.638366 0 11.081543 0 16.860992.666962.30011 12.337967.263947 24.008987.227783 35.679993m-296.032348 227.733886c37.56105 26.496979 66.989593 60.4068 91.003174 100.762207 0-77.368804 0-153.493927 0-230.144622-61.639771 22.731689-120.327698 50.579101-175.237145 87.325927 30.133003 10.233185 58.104881 23.519715 84.233971 42.056488z" fill="#010101"/><path d="m497.376709 256.934387c-.436279-11.708298-.400116-23.379318-.334808-35.523132 29.62857-.472824 59.227935-.472824 88.827362-.472824.251892-.327225.503784-.654465.755676-.98169-2.106079-1.962143-4.279602-3.857315-6.307678-5.897018-16.7771-16.873459-33.565613-33.736328-50.189942-50.759354-.991882-1.015701-1.320129-3.667465-.753845-5.073135 15.784729-39.180725 38.106506-73.944672 70.062195-101.993763 23.104248-20.2798 49.790405-33.640646 79.861389-40.155773 27.281677-5.910802 54.433899-4.909619 81.561829 1.258194 33.870239 7.700737 64.615539 22.465439 93.86261 40.775081 38.698059 24.226323 72.111633 54.670094 103.33789 87.684407 4.685608 4.953979 8.918518 10.333801 13.53357 15.358017 1.995483 2.172439 1.555114 3.616378-.427308 5.371566-4.601257 4.074036-9.096679 8.26767-13.867553 12.625214-1.276245-1.119858-2.427552-2.02739-3.461914-3.052841-23.468872-23.265457-48.455384-44.738236-75.821167-63.307793-33.782593-22.923775-69.823487-40.651596-110.577759-47.499054-47.11676-7.91645-90.222839.600846-127.457276 31.620598-23.588867 19.651726-41.556396 43.517883-49.934143 73.65387-.432983 1.557449-.561401 3.806579.246582 5.009506 9.554383 14.225372 19.233216 28.370102 29.135743 42.354507 1.086731 1.534714 3.767639 2.741837 5.709228 2.742051 14.309326.001541 28.618591-.52388 42.927918-.525162 13.642517-.001236 27.284973.430679 41.388244.715286.497437 11.725525.53418 23.407959.604126 35.548737-26.734497.458343-53.502197.458343-80.909851.458343v416.664185c-2.170105-.807984-3.564331-1.152649-4.789978-1.811158-9.384216-5.041626-18.670166-10.270935-28.13147-15.161865-3.459411-1.788269-4.404174-4.105041-4.401123-7.897827.102723-128.128784.085266-256.257599.085266-384.386414 0-2.145233 0-4.290466 0-7.303466-31.588073 0-62.824707 0-94.533813-.037293z" fill="#cdb591"/><path d="m949.596375 405.000061c-.000184 60.155121-.000184 119.810242-.000184 181.316834-41.165588-70.313172-98.898498-118.369538-175.23999-143.531891 21.556214-19.836884 142.742615-80.171418 175.240357-87.199005 0 16.37149 0 32.642791-.000183 49.414062z" fill="#fefefd"/><path d="m200.588684 484.408447c-25.845856-18.314239-53.817734-31.600769-83.950737-41.833954 54.909447-36.746826 113.597374-64.594238 175.237145-87.325927v230.144622c-24.013581-40.355407-53.442124-74.265228-91.286408-100.984741z" fill="#fefefe"/></svg>