<svg enable-background="new 0 0 1390 828" viewBox="0 0 1390 828" xmlns="http://www.w3.org/2000/svg"><path d="m1018 829c-339.295166 0-678.090363 0-1016.942775 0 0-275.930786 0-551.861542 0-827.896161h1389.760646v827.896161c-124.012817 0-248.165405 0-372.817871 0m-298.689575-608.833954c-14.473816.210526-28.947937.533814-43.421082.495773-1.912964-.00502-4.512573-1.360885-5.622192-2.923431-9.054932-12.751083-17.691773-25.799515-26.778565-38.527054-2.661926-3.728454-3.720275-6.933273-1.759582-11.322693 2.56958-5.752823 4.124878-11.975555 6.870666-17.629928 11.880494-24.465576 29.349427-44.292519 51.338868-60.134361 20.505188-14.772545 43.306762-24.450104 68.47113-26.820996 22.110779-2.083202 44.148682.086529 65.876221 5.269177 34.547973 8.240677 65.395507 24.358146 94.494507 44.085579 27.357849 18.547027 52.503295 39.841461 75.862548 63.234115 1.120484 1.122132 2.340271 2.145096 3.611817 3.303513 4.845703-4.423554 9.215576-8.519837 13.712768-12.471253 2.125244-1.867279 2.693604-3.385574.509095-5.752639-4.059754-4.399109-7.621521-9.265168-11.758545-13.584366-20.055359-20.938309-40.544922-41.43599-63.320252-59.473931-37.205566-29.466488-76.991211-54.161323-123.138183-67.414472-28.244202-8.111577-56.885193-10.928568-85.817933-6.129179-31.098815 5.158691-59.190368 17.872177-83.520141 38.11446-34.058289 28.33641-57.85315 64.04808-74.029724 105.02417-.686219 1.738189-.340638 4.91156.845459 6.200958 11.039245 12.00058 22.235046 23.865417 33.662231 35.497772 7.057556 7.184357 14.595337 13.897019 22.129517 21.021896-19.942993 0-39.338318 0-59.643555-.057525-189.235016 0-378.470047 0-568.848317 0 7.723876 11.746475 14.849835 22.311081 21.638741 33.087997 1.83944 2.919998 3.829167 3.815628 7.166317 3.812058 83.332993-.089905 166.666108-.070587 249.999192-.070587h5.520996v33.783172c-86.867584 30.400666-169.10582 70.301087-245.789105 121.692383.0742.424042.088616.899933.241856 1.325897 9.016464 25.064148 18.007385 50.137787 27.176811 75.145905.475746 1.297516 2.36084 2.634521 3.799751 2.929748 7.653946 1.570282 15.419053 2.603272 23.065232 4.206055 38.123375 7.991272 73.237022 23.019379 104.960624 45.67868 34.928742 24.94867 62.829682 56.410828 85.295472 92.846741 1.294036 2.098694 2.672699 4.338318 4.544647 5.854981 9.576172 7.758484 19.289306 15.350402 29.062591 22.859985 1.300843.999512 3.217286 1.197815 5.596131 2.027954 0-136.872192 0-272.458984 0-407.942505h159.092743c-7.285187 8.20929-16.190186 18.133667-24.975342 28.163117-33.255371 37.965301-44.005036 81.104919-28.211914 129.511139 5.863952 17.973236 13.826599 35.28482 21.249939 52.720275 9.116333 21.411957 20.031036 42.108613 25.010498 65.109681 6.57016 30.34906 3.140899 59.245849-12.656372 86.270813-10.403168 17.797119-25.274597 31.203918-42.701416 42.383667 5.802459 7.974243 11.558105 15.884155 17.387024 23.894775 2.874572-1.637695 5.667358-3.118042 8.345916-4.782227 3.534089-2.195922 7.024445-4.469299 10.454285-6.824829 27.696686-19.021118 50.145783-42.664673 64.410736-73.456176 10.919861-23.570984 14.443299-48.269715 11.401917-74.035584-2.554688-21.642609-10.442139-41.527344-19.451844-61.086761-8.630371-18.735932-17.94458-37.197297-25.668548-56.300782-11.55603-28.581329-13.160706-57.851715-2.621948-87.313079 9.111877-25.472352 25.008819-46.057923 45.513885-63.301301 1.202454-1.011199 3.316834-1.285217 5.013916-1.305145 11.997009-.140991 23.99585-.125793 36.938965-.084839h63.060303v7.315033c0 127.964722.024353 255.929413-.106934 383.894013-.004333 4.226257 1.136536 6.726013 4.863464 8.652221 9.166565 4.737732 18.158692 9.81189 27.277832 14.643555 1.602234.848938 3.480286 1.177307 6.112977 2.032593 0-139.400208 0-277.749542 0-416.642731 13.431945 0 26.232482 0 39.952697.110626h658.933655c-.230347-.93637-.22876-1.456771-.466675-1.820709-7.106933-10.872055-14.168457-21.775726-21.464233-32.52008-.790894-1.164627-2.959229-1.973999-4.488892-1.974625-201.793823-.083115-403.587585-.071381-605.381408-.083878-9.322327-.000579-18.644593-.178924-28.831238-.412811m240.599792 255.301148c15.71875-11.573914 18.801392-28.052491 16.943177-45.893891-2.170472-20.839874-13.682862-33.930084-35.784852-37.957641 5.056885-7.777375 8.902527-15.290436 14.202759-21.577057 28.580994-33.900299 65.224304-48.823761 109.38617-44.991852 29.827026 2.588074 46.04834 23.673645 41.669922 53.359924-2.688477 18.226929-11.792359 32.675904-25.351807 44.571625-1.558838 1.367462-4.370239 1.952759-6.550537 1.848602-7.460083-.356262-14.897949-1.736267-22.343994-1.734131-36.116883.010315-57.566773 37.960144-39.424927 69.413178 8.773376 15.210663 23.047119 20.572601 39.42334 21.321014 18.539306.847229 33.946655-6.894287 47.324951-19.164489 4.121948-3.780487 8.056641-7.764893 12.277222-11.849549 1.381713 1.888947 2.76062 3.557251 3.906372 5.372742 17.749511 28.125549 10.446533 64.772034-16.910645 85.476318-16.223755 12.278443-34.946045 17.528382-54.763061 19.588257-45.590882 4.73877-86.779786-6.585449-123.642151-33.918823-31.922547-23.670593-55.630188-54.395844-75.70343-88.131897-28.449036-47.812805-48.009034-99.461548-64.577759-152.346375-.633545-2.022003-1.351685-4.017517-2.191712-6.502624-9.181274 2.613281-18.004333 5.124573-27.079712 7.707672 2.844483 10.575775 5.41504 20.545929 8.209107 30.453064 14.58905 51.729218 32.519287 102.176971 57.928284 149.715973 19.820129 37.082519 43.029419 71.654907 74.126281 100.4599 22.0224 20.399353 46.568177 36.660644 75.018799 46.571594 28.091309 9.785706 56.991699 11.595398 86.262512 7.31134 24.233643-3.546753 46.979981-11.308715 66.333741-26.872131 23.718872-19.073669 36.966186-44.07428 40.80896-74.192505 4.531127-35.511902-3.303956-67.486999-27.12439-94.840942-2.36084-2.71106-2.610962-4.571991-.608643-7.705994 15.317749-23.975372 35.504151-42.810669 60.333985-56.4281 24.361816-13.360871 50.280883-20.707032 78.310669-15.416108 19.155639 3.615815 33.720092 13.558228 38.991821 33.44162 3.45581 13.033905 2.692383 26.169007-2.309204 38.772064-5.995728 15.107697-17.620606 24.431977-32.968018 31.118897 0-3.419495.136963-6.035095-.023803-8.632294-.689942-11.149872-4.824707-20.841034-13.520508-27.95755-14.857422-12.158935-31.881592-14.150329-49.386109-7.627472-17.337036 6.460388-27.200561 19.612061-29.428833 38.234223-3.377075 28.223083 9.92981 49.105926 37.01709 57.181793 12.925904 3.85376 26.250366 4.487488 39.569702 2.287598 37.419556-6.18042 63.997559-26.260407 77.048828-62.275239 10.624146-29.317352 9.966065-59.191528 1.014039-88.84613-5.671509-18.787506-16.396119-34.203888-33.267701-44.705719-20.632568-12.843048-43.323608-14.912475-66.504028-10.364105-34.032837 6.677795-60.970459 25.705261-84.007446 50.867767-1.62024 1.769684-3.227417 3.5513-5.798218 6.38147 0-4.38089.062012-7.320007-.009522-10.255798-.991088-40.678589-24.933593-71.784363-64.010864-83.264435-24.340454-7.150696-49.009277-6.930908-73.738708-2.940552-37.24231 6.00943-70.649903 20.742523-98.198792 46.754669-27.096557 25.584992-43.113769 56.222473-39.835327 95.005371 3.637756 43.033936 52.390625 67.277954 88.95697 43.176728z" fill="#fff"/><path d="m578.904053 256.897278c-11.998291.034607-23.997132.019409-35.994141.1604-1.697082.019928-3.811462.293946-5.013916 1.305145-20.505066 17.243378-36.402008 37.828949-45.513885 63.301301-10.538758 29.461364-8.934082 58.73175 2.621948 87.313079 7.723968 19.103485 17.038177 37.56485 25.668548 56.300782 9.009705 19.559417 16.897156 39.444152 19.451844 61.086761 3.041382 25.765869-.482056 50.4646-11.401917 74.035584-14.264953 30.791503-36.71405 54.435058-64.410736 73.456176-3.42984 2.35553-6.920196 4.628907-10.454285 6.824829-2.678558 1.664185-5.471344 3.144532-8.345916 4.782227-5.828919-8.01062-11.584565-15.920532-17.387024-23.894775 17.426819-11.179749 32.298248-24.586548 42.701416-42.383667 15.797271-27.024964 19.226532-55.921753 12.656372-86.270813-4.979462-23.001068-15.894165-43.697724-25.010498-65.109681-7.42334-17.435455-15.385987-34.747039-21.249939-52.720275-15.793122-48.40622-5.043457-91.545838 28.211914-129.511139 8.785156-10.02945 17.690155-19.953827 24.975342-28.163117-50.399445 0-104.538513 0-159.092743 0v407.942505c-2.378845-.830139-4.295288-1.028442-5.596131-2.027954-9.773285-7.509583-19.486419-15.101501-29.062591-22.859985-1.871948-1.516663-3.250611-3.756287-4.544647-5.854981-22.46579-36.435913-50.36673-67.898071-85.295472-92.846741-31.723602-22.659301-66.837249-37.687408-104.960624-45.67868-7.646179-1.602783-15.411286-2.635773-23.065232-4.206055-1.438911-.295227-3.324005-1.632232-3.799751-2.929748-9.169426-25.008118-18.160347-50.081757-27.176811-75.145905-.15324-.425964-.167656-.901855-.241856-1.325897 76.683285-51.391296 158.921521-91.291717 245.789105-121.692383 0-11.420715 0-22.375976 0-33.783172-1.920929 0-3.720948 0-5.520996 0-83.333084 0-166.666199-.019318-249.999192.070587-3.33715.00357-5.326877-.89206-7.166317-3.812058-6.788906-10.776916-13.914865-21.341522-21.638741-33.087997 190.37827 0 379.613301 0 569.357289.47821.509155 12.401291.509339 24.324372.509583 36.247437m-320.611176 279.314392c11.81659 15.935669 23.633209 31.871399 34.867706 47.022095 0-75.159943 0-151.450074 0-228.017029-61.769683 22.764526-120.413391 50.771149-175.351943 87.37091 55.596328 18.327881 102.491027 48.703827 140.484237 93.624024z" fill="#010101"/><path d="m959.607422 475.669006c-36.26355 23.899414-85.016419-.344604-88.654175-43.37854-3.278442-38.782898 12.73877-69.420379 39.835327-95.005371 27.548889-26.012146 60.956482-40.745239 98.198792-46.754669 24.729431-3.990356 49.398254-4.210144 73.738708 2.940552 39.077271 11.480072 63.019776 42.585846 64.010864 83.264435.071534 2.935791.009522 5.874908.009522 10.255798 2.570801-2.83017 4.177978-4.611786 5.798218-6.38147 23.036987-25.162506 49.974609-44.189972 84.007446-50.867767 23.18042-4.54837 45.87146-2.478943 66.504028 10.364105 16.871582 10.501831 27.596192 25.918213 33.267701 44.705719 8.952026 29.654602 9.610107 59.528778-1.014039 88.84613-13.051269 36.014832-39.629272 56.094819-77.048828 62.275239-13.319336 2.19989-26.643798 1.566162-39.569702-2.287598-27.08728-8.075867-40.394165-28.95871-37.01709-57.181793 2.228272-18.622162 12.091797-31.773835 29.428833-38.234223 17.504517-6.522857 34.528687-4.531463 49.386109 7.627472 8.695801 7.116516 12.830566 16.807678 13.520508 27.95755.160766 2.597199.023803 5.212799.023803 8.632294 15.347412-6.68692 26.97229-16.0112 32.968018-31.118897 5.001587-12.603057 5.765014-25.738159 2.309204-38.772064-5.271729-19.883392-19.836182-29.825805-38.991821-33.44162-28.029786-5.290924-53.948853 2.055237-78.310669 15.416108-24.829834 13.617431-45.016236 32.452728-60.333985 56.4281-2.002319 3.134003-1.752197 4.994934.608643 7.705994 23.820434 27.353943 31.655517 59.32904 27.12439 94.840942-3.842774 30.118225-17.090088 55.118836-40.80896 74.192505-19.35376 15.563416-42.100098 23.325378-66.333741 26.872131-29.270813 4.284058-58.171203 2.474366-86.262512-7.31134-28.450622-9.91095-52.996399-26.172241-75.018799-46.571594-31.096862-28.804993-54.306152-63.377381-74.126281-100.4599-25.408997-47.539002-43.339234-97.986755-57.928284-149.715973-2.794067-9.907135-5.364624-19.877289-8.209107-30.453064 9.075379-2.583099 17.898438-5.094391 27.079712-7.707672.840027 2.485107 1.558167 4.480621 2.191712 6.502624 16.568725 52.884827 36.128723 104.53357 64.577759 152.346375 20.073242 33.736053 43.780883 64.461304 75.70343 88.131897 36.862365 27.333374 78.051269 38.657593 123.642151 33.918823 19.817016-2.059875 38.539306-7.309814 54.763061-19.588257 27.357178-20.704284 34.660156-57.350769 16.910645-85.476318-1.145752-1.815491-2.524659-3.483795-3.906372-5.372742-4.220581 4.084656-8.155274 8.069062-12.277222 11.849549-13.378296 12.270202-28.785645 20.011718-47.324951 19.164489-16.376221-.748413-30.649964-6.110351-39.42334-21.321014-18.141846-31.453034 3.308044-69.402863 39.424927-69.413178 7.446045-.002136 14.883911 1.377869 22.343994 1.734131 2.180298.104157 4.991699-.48114 6.550537-1.848602 13.559448-11.895721 22.66333-26.344696 25.351807-44.571625 4.378418-29.686279-11.842896-50.77185-41.669922-53.359924-44.161866-3.831909-80.805176 11.091553-109.38617 44.991852-5.300232 6.286621-9.145874 13.799682-14.202759 21.577057 22.10199 4.027557 33.61438 17.117767 35.784852 37.957641 1.858215 17.8414-1.224427 34.319977-17.245972 46.095703z" fill="#c47034"/><path d="m579.376465 256.935059c-.472656-11.960846-.47284-23.883927-.527039-36.25644 19.341309-.449463 38.736634-.449463 58.679627-.449463-7.53418-7.124877-15.071961-13.837539-22.129517-21.021896-11.427185-11.632355-22.622986-23.497192-33.662231-35.497772-1.186097-1.289398-1.531678-4.462769-.845459-6.200958 16.176574-40.97609 39.971435-76.68776 74.029724-105.02417 24.329773-20.242283 52.421326-32.955769 83.520141-38.11446 28.93274-4.799389 57.573731-1.982398 85.817933 6.129179 46.146972 13.253149 85.932617 37.947984 123.138183 67.414472 22.77533 18.037941 43.264893 38.535622 63.320252 59.473931 4.137024 4.319198 7.698791 9.185257 11.758545 13.584366 2.184509 2.367065 1.616149 3.88536-.509095 5.752639-4.497192 3.951416-8.867065 8.047699-13.712768 12.471253-1.271546-1.158417-2.491333-2.181381-3.611817-3.303513-23.359253-23.392654-48.504699-44.687088-75.862548-63.234115-29.099-19.727433-59.946534-35.844902-94.494507-44.085579-21.727539-5.182648-43.765442-7.352379-65.876221-5.269177-25.164368 2.370892-47.965942 12.048451-68.47113 26.820996-21.989441 15.841842-39.458374 35.668785-51.338868 60.134361-2.745788 5.654373-4.301086 11.877105-6.870666 17.629928-1.960693 4.38942-.902344 7.594239 1.759582 11.322693 9.086792 12.727539 17.723633 25.775971 26.778565 38.527054 1.109619 1.562546 3.709228 2.918411 5.622192 2.923431 14.473145.038041 28.947266-.285247 43.811585.018754.389831 12.405349.389221 24.296142.388611 36.18695-12.800538 0-25.601075 0-39.03302 0v416.642731c-2.632691-.855286-4.510743-1.183655-6.112977-2.032593-9.11914-4.831665-18.111267-9.905823-27.277832-14.643555-3.726928-1.926208-4.867797-4.425964-4.863464-8.652221.131287-127.9646.106934-255.929291.106934-383.894013 0-2.14627 0-4.292541 0-7.315033-21.24701 0-42.153626 0-63.532715-.03778z" fill="#ceb592"/><path d="m720.549377 256.922852c-.459228-11.946137-.458618-23.83693-.41632-36.173096 9.364013-.349823 18.686279-.171478 28.008606-.170899 201.793823.012497 403.587585.000763 605.381408.083878 1.529663.000626 3.697998.809998 4.488892 1.974625 7.295776 10.744354 14.3573 21.648025 21.464233 32.52008.237915.363938.236328.884339.466675 1.820709-219.82727 0-439.380493 0-659.393494-.055297z" fill="#c46f33"/><path d="m258.086487 535.92395c-37.78682-44.632477-84.681519-75.008423-140.277847-93.336304 54.938552-36.599761 113.58226-64.606384 175.351943-87.37091v228.017029c-11.234497-15.150696-23.051116-31.086426-35.074096-47.309815z" fill="#fdfdfd"/></svg>