<svg enable-background="new 0 0 1578 828" viewBox="0 0 1578 828" xmlns="http://www.w3.org/2000/svg"><path d="m1203 829c-401 0-801.5 0-1202 0 0-276 0-552 0-828h1578v828c-125.166626 0-250.333374 0-376 0m-89.678345-608.637665c-1.822632-.090973-3.646484-.2807-5.467651-.257492-16.477539.209946-32.957031.359635-49.429932.765412-3.87915.095535-6.52124-.926224-8.746216-4.267243-7.750976-11.63855-15.211425-23.538864-23.865112-34.483398-5.645202-7.139527-4.59491-13.430344-1.5448-20.6586 6.839478-16.208039 15.197876-31.477875 26.934449-44.715195 20.437255-23.050484 44.909912-39.964699 74.607788-48.8871 20.13623-6.049751 40.67456-5.961857 61.335327-3.977051 28.699219 2.757042 55.611206 11.61377 81.193603 24.512467 37.314209 18.813919 70.153077 43.993286 100.794922 72.179336 6.584107 6.056351 13.078125 12.210709 19.835449 18.527252 5.507447-5.075592 10.83191-9.982589 16.212647-14.941406-.648316-.94133-.975708-1.508301-1.388916-2.003754-23.658936-28.364959-50.039551-53.992157-79.064087-76.766983-35.447632-27.814998-73.483032-51.096435-117.134277-64.08925-28.946411-8.615957-58.381592-11.967779-88.216431-6.964489-35.506714 5.954498-66.665894 21.479273-93.119873 46.005678-29.484009 27.335689-50.358765 60.506947-65.126282 97.673122-.596191 1.500382-.043457 4.301422 1.058045 5.501465 10.920105 11.896836 21.916809 23.732636 33.208068 35.276337 7.275452 7.438141 15.078492 14.360184 22.428772 21.309036-18.860534 0-37.627258-.036331-56.393615.025116-4.792237.015701-9.583374.34111-15.315674.425812-133.406067.012207-266.812134.028183-400.218201.02684-7.650818-.000076-15.301697-.141495-23.868591-.394806-14.109985 0-28.219971 0-42.549835 0-.82367-8.911865-1.524628-17.701797-2.541443-26.455063-.197388-1.699279-1.220642-3.801727-2.551972-4.789734-9.083404-6.740783-18.321045-13.276199-27.594696-19.755127-1.242767-.868255-2.967407-1.046752-5.528076-1.895858.687958 34.271606 1.350586 67.281234 1.969971 98.13742-3.910523-6.748993-8.097839-15.835556-13.956696-23.6725-10.010772-13.390686-23.286712-21.590409-40.805816-21.291031-11.476044.196121-22.958161.037018-34.437561.037018-113.485535 0-226.97107 0-340.45661 0-1.699032 0-3.398065 0-5.852294 0 7.409885 11.369659 14.37394 21.726226 20.940944 32.32875 2.013561 3.250931 4.174993 4.269455 7.933492 4.264145 83.322544-.11795 166.645298-.09021 249.968006-.09021 1.757843 0 3.515686-.00003 5.252198-.00003v33.832672c-87.120926 30.415649-169.526207 70.268555-246.22152 121.819916 9.249645 25.520813 18.393032 50.887542 27.745384 76.176971.513886 1.389557 2.638665 2.743713 4.231308 3.07843 7.481667 1.572205 15.082871 2.576508 22.562966 4.155213 43.9114 9.267456 83.525749 27.74411 118.516884 55.901214 28.8526 23.21753 52.251861 51.211243 71.691436 82.624451 1.213349 1.960693 2.40207 4.137573 4.145936 5.535705 9.87442 7.916321 19.875152 15.677735 29.947662 23.341065 1.280395.974121 3.23114 1.0672 5.539307 1.772644 0-136.795166 0-272.362793 0-408.236969 21.341369 0 42.308593.003265 63.275817-.001495 9.330445-.002106 17.41684 3.392486 23.64502 10.120483 16.257996 17.562683 24.174988 39.770538 24.419891 62.451111 1.147919 106.307403.54245 212.634155.393433 318.953674-.006073 4.32074 1.350525 6.477234 5.06781 8.367066 9.176819 4.665344 18.112854 9.802673 27.180695 14.685302 1.479949.796814 3.138488 1.261963 5.535614 2.202637 0-139.492004 0-277.98999 0-416.9375 14.865234 0 29.172393 0 44.407745.131989h348.825806c.860717 53.24768 1.709411 105.750061 2.530944 156.571838-4.577453-10.773834-9.398315-23.307251-15.162597-35.390625-7.374207-15.457977-17.041748-29.338684-30.786133-40.035431-20.352478-15.83963-46.628967-16.733063-65.699097-2.009857-11.610534 8.963989-17.649719 21.424011-21.593628 35.114075-1.108276 3.847137-1.901733 7.784973-3.070923 12.642334-2.595397-4.344239-4.626098-7.756806-6.669555-11.161774-23.029846-38.373474-65.362-56.574646-107.461548-45.52533-35.118958 9.217133-57.028748 32.912323-67.605469 66.697296-11.489319 36.699891-9.402099 73.35196 5.408936 108.942566 17.086181 41.057892 56.592163 69.214814 103.145263 66.063324 32.834412-2.222839 55.899903-19.927734 56.490723-55.409362.317566-19.068268-5.845764-35.396973-22.221313-46.56073-10.59845-7.225251-22.629517-9.153809-35.237061-8.953797-22.001709.349121-40.668701 15.404724-44.817139 36.952545-1.167724 6.065766-1.037597 12.381348-1.610901 20.023163-4.687866-3.985321-9.247802-7.054687-12.790161-11.030762-9.15509-10.27594-13.69403-22.749481-15.19519-36.269653-1.828919-16.471558-1.104126-32.656891 7.500732-47.506103 10.440979-18.017701 26.957337-26.495423 46.859803-29.489838 24.583801-3.6987 47.823913-.132721 68.939453 13.552032 16.362854 10.604615 27.012085 25.89441 34.584472 43.575196.675354 1.576843 1.671448 3.545868 3.052491 4.192474 4.276245 2.002106 8.810485 3.453217 13.783874 5.32074 0-2.63089-.29303-4.510132.047669-6.266388 2.176086-11.216705 3.083557-22.9375 7.064514-33.490479 7.470276-19.802673 23.904907-28.583129 43.498962-25.363678 14.827515 2.436249 25.224793 11.564087 33.733704 23.094788 10.102539 13.69043 16.517944 29.262604 21.422607 45.421387 1.516907 4.997589 2.414307 10.389892 2.429444 15.604858.167663 57.656586.133056 115.313934.036071 172.970856-.005737 3.411255.895752 5.365906 4.073609 6.990845 9.47821 4.846496 18.729187 10.135742 28.113647 15.168823 1.621216.869507 3.460632 1.332092 5.997315 2.281128 0-139.395508 0-277.77237 0-416.823487 12.143554 0 23.763549 0 36.328918.09491h75.944092v6.961701c0 127.971313.023926 255.942657-.097412 383.913848-.004273 4.567627 1.171325 7.240723 5.406067 9.359314 8.924804 4.464722 17.522583 9.580201 26.306396 14.332886 1.493897.808411 3.245606 1.140564 5.70398 1.971924 0-139.243103 0-277.609161 0-416.636169 18.069458 0 35.520874 0 53.891845.110839h459.173951c-7.164185-11.037857-13.927124-21.112503-20.283814-31.437317-2.249878-3.654251-4.637573-5.072113-9.086182-5.067611-141.775024.143677-283.55017.117279-425.325317.12735-1.826538.000137-3.652954.139007-6.16626-.238114m401.580445 284.852356c.111938-1.160889.18872-2.326385.34082-3.481994 4.865478-36.977967 2.064819-73.112214-12.154053-107.918366-10.746826-26.306305-26.746582-48.717529-50.067871-65.362427-34.005737-24.270508-72.168579-31.637787-112.970337-26.190368-21.161987 2.825348-39.411865 12.024536-52.724975 29.393951-8.624878 11.252777-13.380127 24.149078-14.761231 38.172241-2.048828 20.801209.994019 40.648621 13.345581 58.085724 12.070557 17.040253 29.364746 25.222809 49.743042 26.852783 16.806763 1.344239 33.083618-1.069458 46.989502-11.531799 19.488892-14.662781 25.701416-35.365967 24.80188-58.630463-.340942-8.82077-2.380371-17.575897-3.66272-26.479156.963379 0 2.134033-.144653 3.258789.02121 26.036255 3.838897 46.155274 16.964233 59.214722 39.714355 15.428345 26.877106 16.952271 55.943359 11.068848 85.736725-6.050904 30.640808-24.317383 50.82727-53.498291 61.153259-18.823975 6.661194-38.383423 7.643677-58.176514 6.437866-38.046265-2.317688-70.944458-16.551635-99.095215-42.113006-28.908935-26.249909-48.608154-58.948883-65.528076-93.563202-16.047974-32.830292-28.428101-67.111237-39.708984-101.811401-1.171021-3.602417-2.367432-7.196656-3.663819-11.134278-9.691284 3.022125-18.990844 5.922089-28.460693 8.875183.174683.864655.248047 1.499054.432129 2.099579 9.890991 32.285706 18.998169 64.838867 29.884887 96.785614 14.771119 43.345825 33.937012 84.698883 61.096802 121.944763 18.684204 25.622925 40.591431 47.94867 68.947632 62.634522 45.919678 23.781921 94.067139 27.713318 143.394898 12.412292 28.702148-8.903015 50.433349-27.095398 65.420532-53.287536 8.560058-14.959961 13.04895-31.244812 16.532715-48.816071z" fill="#fff"/><path d="m522.977783 256.843811c-14.307068 0-28.614227 0-43.479461 0v416.9375c-2.397126-.940674-4.055665-1.405823-5.535614-2.202637-9.067841-4.882629-18.003876-10.019958-27.180695-14.685302-3.717285-1.889832-5.073883-4.046326-5.06781-8.367066.149017-106.319519.754486-212.646271-.393433-318.953674-.244903-22.680573-8.161895-44.888428-24.419891-62.451111-6.22818-6.727997-14.314575-10.122589-23.64502-10.120483-20.967224.00476-41.934448.001495-63.275817.001495v408.236969c-2.308167-.705444-4.258912-.798523-5.539307-1.772644-10.07251-7.66333-20.073242-15.424744-29.947662-23.341065-1.743866-1.398132-2.932587-3.575012-4.145936-5.535705-19.439575-31.413208-42.838836-59.406921-71.691436-82.624451-34.991135-28.157104-74.605484-46.633758-118.516884-55.901214-7.480095-1.578705-15.081299-2.583008-22.562966-4.155213-1.592643-.334717-3.717422-1.688873-4.231308-3.07843-9.352352-25.289429-18.495739-50.656158-27.745384-76.176971 76.695313-51.551361 159.100594-91.404267 246.22152-121.819916 0-11.275025 0-22.239807 0-33.832672-1.736512 0-3.494355.00003-5.252198.00003-83.322708 0-166.645462-.02774-249.968006.09021-3.758499.00531-5.919931-1.013214-7.933492-4.264145-6.567004-10.602524-13.531059-20.959091-20.940944-32.32875h5.852294 340.45661c11.4794 0 22.961517.159103 34.437561-.037018 17.519104-.299378 30.795044 7.900345 40.805816 21.291031 5.858857 7.836944 10.046173 16.923507 13.956696 23.6725-.619385-30.856186-1.282013-63.865814-1.969971-98.13742 2.560669.849106 4.285309 1.027603 5.528076 1.895858 9.273651 6.478928 18.511292 13.014344 27.594696 19.755127 1.33133.988007 2.354584 3.090455 2.551972 4.789734 1.016815 8.753266 1.717773 17.543198 2.541443 26.455063 14.329864 0 28.43985 0 43.000946.531906.466003 12.397431.480835 24.26294.495605 36.128464m-344.932159 148.69278c-20.605133 12.004242-41.210266 24.008514-61.815407 36.012786 76.827751 26.280976 134.350975 74.381409 175.455513 144.227967 0-77.699188 0-153.998474 0-230.536164-39.018295 14.208649-76.516006 30.914643-113.640106 50.295411z" fill="#010101"/><path d="m523.441895 256.90979c-.478882-11.931503-.493714-23.797012-.501648-36.105606 7.657714-.367432 15.308593-.226013 22.959411-.225937 133.406067.001343 266.812134-.014633 400.667969.51828.413574 12.287506.377441 24.029877.341309 35.772247-11.619996 0-23.239991 0-35.383545 0v416.823487c-2.536683-.949036-4.376099-1.411621-5.997315-2.281128-9.38446-5.033081-18.635437-10.322327-28.113647-15.168823-3.177857-1.624939-4.079346-3.57959-4.073609-6.990845.096985-57.656922.131592-115.31427-.036071-172.970856-.015137-5.214966-.912537-10.607269-2.429444-15.604858-4.904663-16.158783-11.320068-31.730957-21.422607-45.421387-8.508911-11.530701-18.906189-20.658539-33.733704-23.094788-19.594055-3.219451-36.028686 5.561005-43.498962 25.363678-3.980957 10.552979-4.888428 22.273774-7.064514 33.490479-.340699 1.756256-.047669 3.635498-.047669 6.266388-4.973389-1.867523-9.507629-3.318634-13.783874-5.32074-1.381043-.646606-2.377137-2.615631-3.052491-4.192474-7.572387-17.680786-18.221618-32.970581-34.584472-43.575196-21.11554-13.684753-44.355652-17.250732-68.939453-13.552032-19.902466 2.994415-36.418824 11.472137-46.859803 29.489838-8.604858 14.849212-9.329651 31.034545-7.500732 47.506103 1.50116 13.520172 6.0401 25.993713 15.19519 36.269653 3.542359 3.976075 8.102295 7.045441 12.790161 11.030762.573304-7.641815.443177-13.957397 1.610901-20.023163 4.148438-21.547821 22.81543-36.603424 44.817139-36.952545 12.607544-.200012 24.638611 1.728546 35.237061 8.953797 16.375549 11.163757 22.538879 27.492462 22.221313 46.56073-.59082 35.481628-23.656311 53.186523-56.490723 55.409362-46.5531 3.15149-86.059082-25.005432-103.145263-66.063324-14.811035-35.590606-16.898255-72.242675-5.408936-108.942566 10.576721-33.784973 32.486511-57.480163 67.605469-66.697296 42.099548-11.049316 84.431702 7.151856 107.461548 45.52533 2.043457 3.404968 4.074158 6.817535 6.669555 11.161774 1.16919-4.857361 1.962647-8.795197 3.070923-12.642334 3.943909-13.690064 9.983094-26.150086 21.593628-35.114075 19.07013-14.723206 45.346619-13.829773 65.699097 2.009857 13.744385 10.696747 23.411926 24.577454 30.786133 40.035431 5.764282 12.083374 10.585144 24.616791 15.162597 35.390625-.821533-50.821777-1.670227-103.324158-2.530944-156.571838-116.005921 0-232.415833 0-349.289978-.06601z" fill="#c46f34"/><path d="m1514.821533 505.643158c-3.403198 17.142792-7.89209 33.427643-16.452148 48.387604-14.987183 26.192138-36.718384 44.384521-65.420532 53.287536-49.327759 15.301026-97.47522 11.369629-143.394898-12.412292-28.356201-14.685852-50.263428-37.011597-68.947632-62.634522-27.15979-37.24588-46.325683-78.598938-61.096802-121.944763-10.886718-31.946747-19.993896-64.499908-29.884887-96.785614-.184082-.600525-.257446-1.234924-.432129-2.099579 9.469849-2.953094 18.769409-5.853058 28.460693-8.875183 1.296387 3.937622 2.492798 7.531861 3.663819 11.134278 11.280883 34.700164 23.66101 68.981109 39.708984 101.811401 16.919922 34.614319 36.619141 67.313293 65.528076 93.563202 28.150757 25.561371 61.04895 39.795318 99.095215 42.113006 19.793091 1.205811 39.352539.223328 58.176514-6.437866 29.180908-10.325989 47.447387-30.512451 53.498291-61.153259 5.883423-29.793366 4.359497-58.859619-11.068848-85.736725-13.059448-22.750122-33.178467-35.875458-59.214722-39.714355-1.124756-.165863-2.29541-.02121-3.258789-.02121 1.282349 8.903259 3.321778 17.658386 3.66272 26.479156.899536 23.264496-5.312988 43.967682-24.80188 58.630463-13.905884 10.462341-30.182739 12.876038-46.989502 11.531799-20.378296-1.629974-37.672485-9.81253-49.743042-26.852783-12.351562-17.437103-15.394409-37.284515-13.345581-58.085724 1.381104-14.023163 6.136353-26.919464 14.761231-38.172241 13.31311-17.369415 31.562988-26.568603 52.724975-29.393951 40.801758-5.447419 78.9646 1.91986 112.970337 26.190368 23.321289 16.644898 39.321045 39.056122 50.067871 65.362427 14.218872 34.806152 17.019531 70.940399 12.154053 107.918366-.1521 1.155609-.228882 2.321105-.421387 3.910461z" fill="#c47034"/><path d="m947.381592 256.916229c-.436524-11.789825-.400391-23.532196-.343689-35.770477 4.812256-.679047 9.603393-1.004456 14.39563-1.020157 18.766357-.061447 37.533081-.025116 56.393615-.025116-7.35028-6.948852-15.15332-13.870895-22.428772-21.309036-11.291259-11.543701-22.287963-23.379501-33.208068-35.276337-1.101502-1.200043-1.654236-4.001083-1.058045-5.501465 14.767517-37.166175 35.642273-70.337433 65.126282-97.673122 26.453979-24.526405 57.613159-40.05118 93.119873-46.005678 29.834839-5.00329 59.27002-1.651468 88.216431 6.964489 43.651245 12.992815 81.686645 36.274252 117.134277 64.08925 29.024536 22.774826 55.405151 48.402024 79.064087 76.766983.413208.495453.7406 1.062424 1.388916 2.003754-5.380737 4.958817-10.7052 9.865814-16.212647 14.941406-6.757324-6.316543-13.251342-12.470901-19.835449-18.527252-30.641845-28.18605-63.480713-53.365417-100.794922-72.179336-25.582397-12.898697-52.494384-21.755425-81.193603-24.512467-20.660767-1.984806-41.199097-2.0727-61.335327 3.977051-29.697876 8.922401-54.170533 25.836616-74.607788 48.8871-11.736573 13.23732-20.094971 28.507156-26.934449 44.715195-3.05011 7.228256-4.100402 13.519073 1.5448 20.6586 8.653687 10.944534 16.114136 22.844848 23.865112 34.483398 2.224976 3.341019 4.867066 4.362778 8.746216 4.267243 16.472901-.405777 32.952393-.555466 49.429932-.765412 1.821167-.023208 3.645019.166519 5.807373.965943.369385 12.404434.398926 24.100418.428345 35.796402-17.451416 0-34.902832 0-52.97229 0v416.636169c-2.458374-.83136-4.210083-1.163513-5.70398-1.971924-8.783813-4.752685-17.381592-9.868164-26.306396-14.332886-4.234742-2.118591-5.41034-4.791687-5.406067-9.359314.121338-127.971191.097412-255.942535.097412-383.913848 0-2.116639 0-4.233246 0-6.961701-25.724487 0-50.83429 0-76.416809-.047455z" fill="#ceb592"/><path d="m1114.549561 256.922607c-.489258-11.751403-.518799-23.447387-.544678-35.62619 1.830078-.556961 3.656494-.695831 5.483032-.695968 141.775147-.010071 283.550293.016327 425.325317-.12735 4.448609-.004502 6.836304 1.41336 9.086182 5.067611 6.35669 10.324814 13.119629 20.39946 20.283814 31.437317-153.569092 0-306.371582 0-459.633667-.05542z" fill="#c46f33"/><path d="m178.365845 405.349182c36.803879-19.193359 74.30159-35.899353 113.319885-50.108002v230.536164c-41.104538-69.846558-98.627762-117.946991-175.455513-144.227967 20.605141-12.004272 41.210274-24.008544 62.135628-36.200195z" fill="#fefefe"/></svg>