<svg enable-background="new 0 0 1174 828" viewBox="0 0 1174 828" xmlns="http://www.w3.org/2000/svg"><path d="m705 829c-234.970734 0-469.441498 0-703.956118 0 0-275.936279 0-551.87262 0-827.904471h1173.787417v827.904471c-156.370667 0-312.851013 0-469.831299 0m-125.053101-572.009705h217.685852c-2.737976 2.273682-4.522949 3.718567-6.267639 5.210633-12.950805 11.075409-25.127441 22.920105-35.003418 36.879699-19.436645 27.473572-27.21759 57.947083-22.107727 91.293061 4.455872 29.077484 17.105896 54.029114 40.918579 71.932434 27.803589 20.903808 58.717041 22.491333 90.581299 11.148376 22.691834-8.07782 41.440308-22.421508 57.989746-39.726043 1.5625-1.633881 3.113709-3.278656 4.987244-5.252442 5.511597 17.185852 7.717407 34.059052 5.327148 51.365082-4.187988 30.323456-19.786621 52.705475-47.61383 65.6492-25.672669 11.94159-52.853089 12.764344-80.260254 7.944458-38.468201-6.765197-67.568054-28.367797-90.882019-58.747772-23.481323-30.597992-39.365784-65.180908-52.074768-101.251343-9.48523-26.920898-17.789429-54.257965-26.683533-81.606323-8.456787 2.588349-17.602234 5.387512-26.710571 8.175324.096741 1.205383.053284 1.881408.215027 2.50412 6.684936 25.731292 12.860534 51.60968 20.210632 77.149993 11.629272 40.409913 26.80719 79.419495 48.388245 115.73407 15.803955 26.593689 34.519897 50.699341 59.580993 69.195679 41.866211 30.899475 88.635865 38.066833 138.484925 26.352173 49.546142-11.643433 78.0177-45.989502 88.267395-94.49585 4.380004-20.728149 4.189514-41.604034 2.186401-62.634155-2.450195-25.723602-10.284912-49.388489-24.627197-70.894104-7.324158-10.98233-15.821106-20.921478-25.836243-29.83905-1.799805 2.419891-3.39093 4.531433-4.953186 6.664093-12.135193 16.56549-25.067078 32.425842-41.082642 45.467804-16.817443 13.694915-35.045288 23.473693-57.819213 21.59143-22.497437-1.859466-37.020081-16.789703-37.94629-39.297027-.678527-16.48761 4.376648-31.234528 13.343445-44.67154 11.713929-17.553527 27.319336-31.314056 44.365784-43.482208 18.000244-12.848938 37.044678-23.954407 56.998047-33.779358 31.419861 65.268982 84.447876 101.718964 153.611938 116.766205-30.767334 95.840424-24.932556 190.011169 10.918213 283.386719 9.265625-4.267151 18.101074-8.336182 27.035645-12.450867-.313721-1.229858-.481079-2.027222-.719727-2.802612-10.643921-34.560974-15.98291-69.962769-17.668701-106.056824-1.878418-40.221222 4.864258-78.705933 22.693481-114.832245 8.665162-17.557617 18.971314-34.305389 28.825806-51.94107-8.991943-13.871735-18.503662-28.706879-28.267456-43.374176-1.050171-1.577423-3.479492-2.888214-5.414795-3.123597-18.163086-2.208831-36.535522-3.169555-54.503174-6.404205-29.021789-5.224731-55.285034-16.959198-76.804199-37.826416-9.057495-8.78305-16.942016-18.507873-23.899902-30.038513h243.950073c-7.147095-11.02031-14.060059-21.365158-20.597046-31.942444-2.083984-3.371963-4.367065-4.525894-8.32373-4.52359-180.812256.105057-361.624573.092545-542.436829.085388-6.319092-.000259-12.638123-.085647-19.880493-.299072-12.777283 0-25.554566 0-38.627136 0-.838807-8.938736-1.516419-17.551804-2.554444-26.121246-.224914-1.856568-1.298706-4.153611-2.741089-5.230698-8.938476-6.674881-18.064819-13.100815-27.210327-19.492813-1.274017-.890427-2.996307-1.139466-5.687958-2.109604.632477 63.827469 1.252503 126.398117 1.871796 188.89418-4.810058-9.570434-9.480408-19.33197-14.558105-28.8768-14.442017-27.147339-30.402893-53.270264-52.65149-74.927506-35.892761-34.938659-77.880981-45.118042-125.485717-29.580261-29.22168 9.53772-52.781525 28.08136-73.518677 50.240494-16.764221 17.913788-31.503555 37.423797-43.822769 59.122284 12.548431 12.912567 25.079803 25.786224 37.581588 38.688537 2.770051 2.858826 5.435441 5.819031 8.17186 8.75708 1.972672-1.211425 3.366532-2.075622 4.768234-2.92688 14.722992-8.941772 30.411438-14.205261 47.916382-12.766845 14.968201 1.22998 24.009919 9.384643 25.645417 24.240967.570159 5.17926-.062409 10.629852-.981019 15.808349-2.878295 16.225708-12.428497 28.445831-24.524566 38.920654-4.09784 3.548554-8.523224 6.718842-13.078125 10.280274 15.292511 14.115173 30.193146 27.868652 45.363006 41.870636 49.289277-47.611145 98.334168-94.986206 147.715943-142.686737 1.422485 2.4794 2.584747 4.293976 3.543823 6.210235 8.268982 16.521363 16.573273 33.026032 24.665314 49.633942 1.182831 2.427612 1.816589 5.370087 1.833282 8.079681.141388 22.998291-.175384 46.001404.145935 68.996064.398041 28.480926 1.232025 56.956268 1.975312 85.431549.183807 7.042053.744751 14.07428 1.08432 20.239563-6.397187-12.414673-12.783051-25.525391-19.836304-38.266724-5.595032-10.107056-12.808685-19.093994-22.142426-26.133789-23.051971-17.386444-51.034515-12.780823-65.556518 11.148682-3.239899 5.338745-4.866028 11.656982-6.967774 16.86206-5.336731-7.819885-10.413604-16.466186-16.660705-24.162597-13.165161-16.2193-30.296631-25.418763-51.487061-25.395173-29.00412.032319-51.76004 11.638154-65.258606 38.080658-9.217926 18.057068-10.528747 37.670472-8.592987 57.526551 1.172211 12.024048 4.241486 23.652282 10.224793 34.219665 15.820038 27.940491 45.404144 42.861878 77.291656 38.88678 10.412964-1.298218 20.177033-4.784241 27.312866-13.070496 11.284455-13.103759 12.82544-28.22113 7.541474-44.02301-4.279297-12.797363-13.919922-20.134033-27.174957-22.139404-13.303742-2.012879-25.04834.885193-34.023438 11.944763-6.58844 8.118713-8.501038 17.389649-7.754028 28.312683-2.02237-1.0531-3.480042-1.681457-4.803101-2.521728-11.013824-6.994812-16.708954-24.965393-12.496826-39.883362 4.305969-15.250244 14.679443-24.846069 29.459839-29.317322 22.267517-6.736267 43.237854-4.799988 60.979919 11.925964 10.160279 9.57837 15.100006 22.12677 18.880463 35.236145.45813 1.588623 1.356873 3.784485 2.61145 4.279419 4.891693 1.929993 10.00885 3.288453 14.424286 4.666626 2.07663-9.852356 3.47403-19.407714 6.189362-28.572692 2.935241-9.907227 10.262451-15.941529 20.570007-17.377503 10.932983-1.523132 20.766724 1.49884 29.236023 8.737122 8.643738 7.38739 15.253113 16.401916 19.815216 26.674255 7.425323 16.71936 14.214813 33.720642 21.351196 50.569641.818177 1.931763 1.782257 4.045044 3.28534 5.402283 7.419372 6.699158 14.992614 13.232056 22.64447 19.665466 1.277099 1.073731 3.209656 1.367859 5.665771 2.354004 0-143.867187 0-286.451782 0-429.673035 13.405152 0 26.364563 0 40.248474.145874m-326.804794-240.771835c-17.719971-3.163781-35.445831-5.046904-53.556244-3.484581-16.042877 1.383965-31.653137 4.43339-46.65834 9.974352-30.279465 11.181288-55.611405 29.558519-77.031952 53.696669-21.617756 24.360389-37.302017 52.19091-49.647728 82.080711-.527874 1.27803-.188305 3.705597.725843 4.669128 13.404406 14.128586 26.91593 28.157349 40.537493 42.07721 5.053909 5.164581 10.458855 9.985641 16.804573 16.008148-24.363762 0-47.314999 0-71.30925 0 7.158901 11.396774 13.778515 21.739883 20.161602 32.226975 1.702351 2.796905 3.695393 3.652191 6.886956 3.607879 12.997192-.180694 25.998363-.075104 38.998065-.075043 3.113358.000031 6.226716 0 9.857583 0v6.008637c.000007 28.832672 0 57.665375 0 86.498047.000007 99.497741.03215 198.995544-.106369 298.493103-.006142 4.412659 1.158752 6.984985 5.140564 8.997742 9.060569 4.5802 17.892227 9.612121 26.841445 14.414733 1.384133.742798 2.898026 1.243775 5.459275 2.323304 0-139.490784 0-277.961457 0-417.026734h76.23825c-7.549743-11.291427-14.663223-21.727661-21.522338-32.32846-1.761277-2.722077-3.692383-3.683213-6.902466-3.654191-17.164871.155182-34.332367.00824-51.497719.135285-2.960724.021912-4.953339-.763504-6.652252-3.271332-9.520951-14.054108-19.198166-28.002334-28.722611-42.054108-.629585-.928848-.813774-2.503692-.55307-3.626678.75055-3.232971 1.642616-6.461472 2.819145-9.562714 10.616517-27.984466 28.23774-50.750396 51.89589-68.887291 21.431976-16.430252 45.436355-27.33699 72.363861-30.107372 22.270263-2.291229 44.460724-.013264 66.321838 5.170948 35.900147 8.513481 67.776489 25.53962 97.859894 46.24012 26.272186 18.077995 50.308105 38.886238 72.939392 61.331657 1.034332 1.025864 2.18573 1.933671 3.439941 3.034562 4.899537-4.466599 9.524598-8.765717 14.25-12.951599 1.992218-1.764725 1.714173-3.17804.058289-5.01265-4.571991-5.065506-8.831818-10.420715-13.52356-15.368866-31.496765-33.218086-65.158233-63.906418-104.177703-88.241337-30.138886-18.796428-61.896454-33.815342-97.738297-41.336254z" fill="#fff"/><path d="m579.051514 220.361115c6.319091.0457 12.638122.131088 18.957214.131347 180.812256.007157 361.624573.019669 542.436829-.085388 3.956665-.002304 6.239746 1.151627 8.32373 4.52359 6.536987 10.577286 13.449951 20.922134 20.597046 31.942444-81.437378 0-162.27417 0-243.950073 0 6.957886 11.53064 14.842407 21.255463 23.899902 30.038513 21.519165 20.867218 47.78241 32.601685 76.804199 37.826416 17.967652 3.23465 36.340088 4.195374 54.503174 6.404205 1.935303.235383 4.364624 1.546174 5.414795 3.123597 9.763794 14.667297 19.275513 29.502441 28.267456 43.374176-9.854492 17.635681-20.160644 34.383453-28.825806 51.94107-17.829223 36.126312-24.571899 74.611023-22.693481 114.832245 1.685791 36.094055 7.02478 71.49585 17.668701 106.056824.238648.77539.406006 1.572754.719727 2.802612-8.934571 4.114685-17.77002 8.183716-27.035645 12.450867-35.850769-93.37555-41.685547-187.546295-10.918213-283.386719-69.164062-15.047241-122.192077-51.497223-153.611938-116.766205-19.953369 9.824951-38.997803 20.93042-56.998047 33.779358-17.046448 12.168152-32.651855 25.928681-44.365784 43.482208-8.966797 13.437012-14.021972 28.18393-13.343445 44.67154.926209 22.507324 15.448853 37.437561 37.94629 39.297027 22.773925 1.882263 41.00177-7.896515 57.819213-21.59143 16.015564-13.041962 28.947449-28.902314 41.082642-45.467804 1.562256-2.13266 3.153381-4.244202 4.953186-6.664093 10.015137 8.917572 18.512085 18.85672 25.836243 29.83905 14.342285 21.505615 22.177002 45.170502 24.627197 70.894104 2.003113 21.030121 2.193603 41.906006-2.186401 62.634155-10.249695 48.506348-38.721253 82.852417-88.267395 94.49585-49.84906 11.71466-96.618714 4.547302-138.484925-26.352173-25.061096-18.496338-43.777038-42.60199-59.580993-69.195679-21.581055-36.314575-36.758973-75.324157-48.388245-115.73407-7.350098-25.540313-13.525696-51.418701-20.210632-77.149993-.161743-.622712-.118286-1.298737-.215027-2.50412 9.108337-2.787812 18.253784-5.586975 26.710571-8.175324 8.894104 27.348358 17.198303 54.685425 26.683533 81.606323 12.708984 36.070435 28.593445 70.653351 52.074768 101.251343 23.313965 30.379975 52.413818 51.982575 90.882019 58.747772 27.407165 4.819886 54.587585 3.997132 80.260254-7.944458 27.827209-12.943725 43.425842-35.325744 47.61383-65.6492 2.390259-17.30603.184449-34.17923-5.327148-51.365082-1.873535 1.973786-3.424744 3.618561-4.987244 5.252442-16.549438 17.304535-35.297912 31.648223-57.989746 39.726043-31.864258 11.342957-62.77771 9.755432-90.581299-11.148376-23.812683-17.90332-36.462707-42.85495-40.918579-71.932434-5.109863-33.345978 2.671082-63.819489 22.107727-91.293061 9.875977-13.959594 22.052613-25.80429 35.003418-36.879699 1.74469-1.492066 3.529663-2.936951 6.267639-5.210633-73.276733 0-145.481323 0-218.158569-.530578-.456055-12.386566-.439392-24.242584-.422668-36.098602z" fill="#010101"/><path d="m578.589844 220.277252c.444946 11.939881.428283 23.795899.422119 36.109528-12.948975.457641-25.908386.457641-39.313538.457641v429.673035c-2.456115-.986145-4.388672-1.280273-5.665771-2.354004-7.651856-6.43341-15.225098-12.966308-22.64447-19.665466-1.503083-1.357239-2.467163-3.47052-3.28534-5.402283-7.136383-16.848999-13.925873-33.850281-21.351196-50.569641-4.562103-10.272339-11.171478-19.286865-19.815216-26.674255-8.469299-7.238282-18.30304-10.260254-29.236023-8.737122-10.307556 1.435974-17.634766 7.470276-20.570007 17.377503-2.715332 9.164978-4.112732 18.720336-6.189362 28.572692-4.415436-1.378173-9.532593-2.736633-14.424286-4.666626-1.254577-.494934-2.15332-2.690796-2.61145-4.279419-3.780457-13.109375-8.720184-25.657775-18.880463-35.236145-17.742065-16.725952-38.712402-18.662231-60.979919-11.925964-14.780396 4.471253-25.15387 14.067078-29.459839 29.317322-4.212128 14.917969 1.483002 32.88855 12.496826 39.883362 1.323059.840271 2.780731 1.468628 4.803101 2.521728-.74701-10.923034 1.165588-20.19397 7.754028-28.312683 8.975098-11.05957 20.719696-13.957642 34.023438-11.944763 13.255035 2.005371 22.89566 9.342041 27.174957 22.139404 5.283966 15.80188 3.742981 30.919251-7.541474 44.02301-7.135833 8.286255-16.899902 11.772278-27.312866 13.070496-31.887512 3.975098-61.471618-10.946289-77.291656-38.88678-5.983307-10.567383-9.052582-22.195617-10.224793-34.219665-1.93576-19.856079-.624939-39.469483 8.592987-57.526551 13.498566-26.442504 36.254486-38.048339 65.258606-38.080658 21.19043-.02359 38.3219 9.175873 51.487061 25.395173 6.247101 7.696411 11.323974 16.342712 16.660705 24.162597 2.101746-5.205078 3.727875-11.523315 6.967774-16.86206 14.522003-23.929505 42.504547-28.535126 65.556518-11.148682 9.333741 7.039795 16.547394 16.026733 22.142426 26.133789 7.053253 12.741333 13.439117 25.852051 19.836304 38.266724-.339569-6.165283-.900513-13.19751-1.08432-20.239563-.743287-28.475281-1.577271-56.950623-1.975312-85.431549-.321319-22.99466-.004547-45.997773-.145935-68.996064-.016693-2.709594-.650451-5.652069-1.833282-8.079681-8.092041-16.60791-16.396332-33.112579-24.665314-49.633942-.959076-1.916259-2.121338-3.730835-3.543823-6.210235-49.381775 47.700531-98.426666 95.075592-147.715943 142.686737-15.16986-14.001984-30.070495-27.755463-45.363006-41.870636 4.554901-3.561432 8.980285-6.73172 13.078125-10.280274 12.096069-10.474823 21.646271-22.694946 24.524566-38.920654.91861-5.178497 1.551178-10.629089.981019-15.808349-1.635498-14.856324-10.677216-23.010987-25.645417-24.240967-17.504944-1.438416-33.19339 3.825073-47.916382 12.766845-1.401702.851258-2.795562 1.715455-4.768234 2.92688-2.736419-2.938049-5.401809-5.898254-8.17186-8.75708-12.501785-12.902313-25.033157-25.77597-37.581588-38.688537 12.319214-21.698487 27.058548-41.208496 43.822769-59.122284 20.737152-22.159134 44.296997-40.702774 73.518677-50.240494 47.604736-15.537781 89.592956-5.358398 125.485717 29.580261 22.248597 21.657242 38.209473 47.780167 52.65149 74.927506 5.077697 9.54483 9.748047 19.306366 14.558105 28.8768-.619293-62.496063-1.239319-125.066711-1.871796-188.89418 2.691651.970138 4.413941 1.219177 5.687958 2.109604 9.145508 6.391998 18.271851 12.817932 27.210327 19.492813 1.442383 1.077087 2.516175 3.37413 2.741089 5.230698 1.038025 8.569442 1.715637 17.18251 2.554444 26.121246 13.07257 0 25.849853 0 39.088745.083862m-204.733673 146.078034c20.44873-21.3844 40.897491-42.768769 61.729583-64.554047-3.685791-3.286591-8.654907-8.216888-14.125793-12.507355-21.128632-16.569885-45.15152-22.338989-71.377655-17.229614-19.147766 3.730377-33.573547 15.633148-46.062805 29.9216-6.164887 7.053009-11.709473 14.648163-18.190369 22.825196 3.13678.16101 4.760529.214721 6.37973.331939 22.435761 1.624421 39.534699 11.062836 47.843048 33.052491 4.016816 10.631256 4.385193 21.786224 4.036927 32.992767-.036408 1.171478-.004883 2.345093-.004883 3.5177.62204.408783 1.244079.817597 1.866119 1.22638 9.134705-9.693024 18.269379-19.386017 27.906098-29.577057z" fill="#c47034"/><path d="m253.545441 16.34729c35.438507 7.392082 67.196075 22.410996 97.334961 41.207424 39.01947 24.334919 72.680938 55.023251 104.177703 88.241337 4.691742 4.948151 8.951569 10.30336 13.52356 15.368866 1.655884 1.83461 1.933929 3.247925-.058289 5.01265-4.725402 4.185882-9.350463 8.485-14.25 12.951599-1.254211-1.100891-2.405609-2.008698-3.439941-3.034562-22.631287-22.445419-46.667206-43.253662-72.939392-61.331657-30.083405-20.7005-61.959747-37.726639-97.859894-46.24012-21.861114-5.184212-44.051575-7.462177-66.321838-5.170948-26.927506 2.770382-50.931885 13.67712-72.363861 30.107372-23.65815 18.136895-41.279373 40.902825-51.89589 68.887291-1.176529 3.101242-2.068595 6.329743-2.819145 9.562714-.260704 1.122986-.076515 2.69783.55307 3.626678 9.524445 14.051774 19.20166 28 28.722611 42.054108 1.698913 2.507828 3.691528 3.293244 6.652252 3.271332 17.165352-.127045 34.332848.019897 51.497719-.135285 3.210083-.029022 5.141189.932114 6.902466 3.654191 6.859115 10.600799 13.972595 21.037033 21.522338 32.32846-25.665054 0-50.515258 0-76.23825 0v417.026734c-2.561249-1.079529-4.075142-1.580506-5.459275-2.323304-8.949218-4.802612-17.780876-9.834533-26.841445-14.414733-3.981812-2.012757-5.146706-4.585083-5.140564-8.997742.138519-99.497559.106376-198.995362.106369-298.493103 0-28.832672.000007-57.665375 0-86.498047 0-1.789673 0-3.579346 0-6.008637-3.630867 0-6.744225.000031-9.857583 0-12.999702-.000061-26.000873-.105651-38.998065.075043-3.191563.044312-5.184605-.810974-6.886956-3.607879-6.383087-10.487092-13.002701-20.830201-20.161602-32.226975h71.30925c-6.345718-6.022507-11.750664-10.843567-16.804573-16.008148-13.621563-13.919861-27.133087-27.948624-40.537493-42.07721-.914148-.963531-1.253717-3.391098-.725843-4.669128 12.345711-29.889801 28.029972-57.720322 49.647728-82.080711 21.420547-24.13815 46.752487-42.515381 77.031952-53.696669 15.005203-5.540962 30.615463-8.590387 46.65834-9.974352 18.110413-1.562323 35.836273.3208 53.95958 3.613411z" fill="#cdb591"/><path d="m373.605164 366.604309c-9.385712 9.942017-18.520386 19.63501-27.655091 29.328034-.62204-.408783-1.244079-.817597-1.866119-1.22638 0-1.172607-.031525-2.346222.004883-3.5177.348266-11.206543-.020111-22.361511-4.036927-32.992767-8.308349-21.989655-25.407287-31.42807-47.843048-33.052491-1.619201-.117218-3.24295-.170929-6.37973-.331939 6.480896-8.177033 12.025482-15.772187 18.190369-22.825196 12.489258-14.288452 26.915039-26.191223 46.062805-29.9216 26.226135-5.109375 50.249023.659729 71.377655 17.229614 5.470886 4.290467 10.440002 9.220764 14.125793 12.507355-20.832092 21.785278-41.280853 43.169647-61.98059 64.80307z" fill="#fffefe"/></svg>