<svg enable-background="new 0 0 1608 828" viewBox="0 0 1608 828" xmlns="http://www.w3.org/2000/svg"><path d="m1224 829c-408 0-815.5 0-1223 0 0-276 0-552 0-828h1608v828c-128.166626 0-256.333374 0-385 0m-794.144745-572.03598h70.233948c0 2.875885-.000031 5.01178-.000031 7.147644-.00003 127.636719 0 255.273468.000092 382.910187 0 1.333007-.32486 2.777465.083038 3.971374.529083 1.548401 1.291779 3.508545 2.559387 4.235169 9.963135 5.711425 20.052002 11.205444 30.157105 16.664672 1.323852.715271 2.959351.85376 5.220093 1.468689 0-139.195678 0-277.560821 0-416.492431 20.725525 0 40.853454 0 61.901428.110687h331.386963c.737671 52.942474 1.465271 105.162354 2.198059 157.752167-.410278-1.026673-.745606-1.876892-1.089172-2.723725-4.565064-11.251098-8.578309-22.767242-13.824769-33.691131-8.157958-16.985871-18.81134-32.205658-34.820678-42.973633-27.350525-18.396088-61.127503-10.433991-76.303589 18.692505-4.721863 9.0625-7.295105 19.244446-10.521851 28.01654-5.198425-7.368835-10.462768-16.108673-16.949035-23.820861-46.689087-55.513184-135.156739-40.929657-161.273438 26.723266-15.079834 39.062775-13.476257 78.31015 1.979126 116.937592 16.545288 41.35141 56.080872 69.872528 102.982117 67.036712 30.75824-1.85968 54.141235-17.845398 56.725952-50.478393 1.279724-16.157654-1.816528-31.241242-13.019714-43.719513-12.538391-13.965515-28.938172-17.775025-46.756043-16.589234-21.158996 1.408143-37.381714 15.276673-42.055603 35.873139-1.440246 6.347015-1.295105 13.053833-1.970825 20.665161-4.224243-3.517944-8.951782-6.460785-12.397034-10.497925-14.204223-16.644256-17.803772-36.622803-15.905517-57.62323 2.371154-26.233246 16.049865-44.439056 41.373535-52.747772 19.861938-6.516724 40.028564-6.105286 60.000976-.120697 26.526307 7.948425 44.535889 25.747101 55.103516 50.679016 3.91687 9.240845 11.390442 9.526276 17.286194 12.218506 2.289307-12.014221 3.245605-23.976807 6.916504-35.038635 12.683166-38.220093 49.872619-35.511078 67.657898-18.121155 6.12561 5.98941 11.996093 12.672272 16.278869 20.030304 11.451172 19.67337 21.003601 40.113678 19.077454 63.963531-.588379 7.285218-.091248 14.658051-.091248 21.990784 0 46.662781.002808 93.325623-.00769 139.988403-.000549 2.488953-.236877 4.668213 2.74353 6.208435 10.197449 5.270142 20.187378 10.940613 30.308533 16.361084 1.275818.683289 2.861816.787415 5.015991 1.34375 0-139.273559 0-277.656585 0-416.470367 11.67627 0 22.819702 0 34.887634.145844h221.222229c-11.238769 11.529663-23.218261 22.450042-33.606323 34.717895-40.539184 47.874817-37.258301 112.886414-3.931518 154.353729 16.68457 20.759888 38.49292 32.436005 65.297485 33.909272 27.481445 1.510498 51.859741-7.434174 73.606934-23.569642 11.045898-8.195617 21.168579-17.635498 31.554809-26.383331 3.307862 6.720154 5.832642 20.506989 6.020386 35.27417.33435 26.292542-7.91626 49.188263-27.832031 66.941864-14.748413 13.147156-32.598145 19.784973-51.999146 22.27417-34.112915 4.37677-66.380737-.966064-95.983276-19.165588-26.843872-16.503418-45.829224-40.382752-61.480835-67.089295-20.56189-35.084839-34.97168-72.830688-46.835694-111.598938-4.566284-14.921234-8.908447-29.911072-13.409423-45.060333-9.330445 2.853638-18.46814 5.648315-27.763306 8.49115 9.873779 43.474243 20.910889 86.072265 36.869263 127.261841 13.704101 35.37149 29.997314 69.329742 53.555786 99.381866 19.536621 24.921509 42.713379 45.496277 72.422851 57.292725 39.595948 15.721924 79.839478 16.584594 120.027344 2.076477 31.472901-11.362 53.46814-33.336365 64.87146-64.384156 17.580078-47.864593 15.903565-95.72116-5.241943-142.364227-8.096924-17.860046-20.578125-32.70227-35.085205-46.244812-1.382325 1.79361-2.51709 3.214356-3.597168 4.675568-12.99292 17.578644-26.549195 34.636841-43.80127 48.368133-16.593262 13.206971-34.506836 22.471039-56.654419 20.6474-18.789551-1.54718-32.994385-12.659637-36.839233-29.815033-2.340576-10.442291-1.554566-20.848358 1.380615-31.114959 5.410034-18.923005 17.228394-33.656861 31.166504-46.82129 20.995117-19.829772 45.463501-34.683074 70.753296-48.275726 3.295898-1.771393 6.647217-3.439606 10.201782-5.273804 15.0177 30.932831 35.288452 56.954255 62.598755 77.251526 27.279907 20.27472 58.187012 32.241669 90.976562 39.606171-30.260986 95.942627-25.104736 190.144928 11.014649 283.348236 9.178467-4.181702 18.074341-8.234741 27.065674-12.331238-.27649-1.408691-.379029-2.573669-.73584-3.654724-10.452393-31.680298-15.047119-64.389343-17.417114-97.524963-3.233399-45.210175 4.387207-88.315094 25.365112-128.634613 7.431763-14.283936 16.373291-27.778717 24.431518-41.745789.844849-1.464416 1.1875-4.203186.383057-5.483856-9.021606-14.361206-18.266846-28.583496-27.615967-42.734619-.817627-1.237457-2.737793-2.286499-4.247314-2.442963-14.568726-1.510162-29.244629-2.214813-43.726318-4.290039-33.666993-4.824371-64.439332-16.436798-89.242432-40.800018-8.743042-8.587891-16.39978-18.062012-23.10022-29.348755h243.940918c-7.073364-10.880325-13.936767-21.078568-20.374023-31.538971-2.184693-3.550278-4.531617-4.780075-8.728516-4.777176-174.81897.121307-349.637939.108826-524.457031.089874-8.820923-.000961-17.641968-.296585-26.462647-.284011-5.131164.007308-10.261779.355392-16.299743.29602-.832215-.028549-1.66449-.082062-2.496704-.082077-132.463868-.004227-264.927796-.006226-397.391663.015305-1.468323.000244-2.936585.309097-5.295105.388412-6.809143-.242691-13.619568-.717071-20.427185-.679977-14.31134.077957-28.624573.313324-42.929382.739669-3.528016.105149-5.913453-.819213-7.908814-3.780975-9.115173-13.529816-18.461059-26.905151-27.468353-40.505356-1.09137-1.647888-1.37323-4.556534-.760986-6.475998 2.065948-6.47705 4.29898-12.962555 7.192749-19.103332 13.6091-28.879463 34.808502-50.943329 61.807769-67.602745 18.409241-11.359116 38.411011-18.721611 59.966187-20.25198 38.842773-2.757752 75.73584 5.370991 110.861633 22.01318 41.860108 19.83284 77.872986 47.875297 111.606812 79.146599 5.206054 4.826034 10.367492 9.700195 15.718139 14.709915 5.591187-5.108689 10.945618-10.000946 16.747681-15.302307-9.988953-10.895493-19.319885-21.755738-29.373779-31.89943-21.82782-22.022926-44.815491-42.75457-70.325806-60.533569-30.060669-20.950279-61.61731-38.853733-96.966858-49.55566-29.25354-8.856387-58.931518-12.297208-89.154785-7.476062-31.014099 4.947299-59.089294 17.371289-83.375061 37.291316-34.638489 28.411556-58.85141 64.48901-75.122162 106.020054-.651916 1.664001-.189026 4.758026.996613 5.998169 15.410705 16.118881 31.020355 32.048248 46.650177 47.956298 2.709899 2.758133 5.744964 5.196747 8.629821 7.782944-.278595.496659-.55719.993317-.835785 1.489975-1.772644 0-3.545379.01268-5.317901-.001953-19.805634-.163483-39.611267-.331192-60.259094-.613541-13.120545 0-26.241089 0-39.753662 0-.800995-8.273819-1.416108-16.549881-2.514344-24.761306-.315735-2.360764-1.431762-5.303849-3.195587-6.664994-8.696747-6.711349-17.697143-13.033935-26.690704-19.350906-1.400757-.983887-3.319062-1.230911-6.33844-2.287903.805389 65.217362 1.593323 129.020172 2.375793 192.380219-.32373-.560212-.977081-1.673249-1.614013-2.795594-18.72464-32.995025-39.648468-64.41925-66.342438-91.619629-16.628784-16.944305-35.553742-30.820251-57.886765-39.224716-40.199981-15.12825-78.883468-10.474823-115.736824 10.74347-42.789924 24.636245-71.569294 62.522415-97.298032 103.629898 16.383789 16.882843 32.585515 33.578064 48.972177 50.463836 2.827305-1.862304 5.285694-3.528167 7.789394-5.122894 12.703522-8.091431 26.440308-12.361908 41.646813-11.477173 19.690193 1.1456 33.018211 14.818054 33.700508 34.493805.681442 19.651581-6.037109 36.611511-18.714859 51.270569-6.506477 7.523224-13.61882 14.522522-20.742226 22.060028 13.224404 13.85553 26.98774 28.275726 40.58593 42.522919 56.421784-55.858307 112.590103-111.465638 169.265366-167.57486 10.463104 17.2995 20.873932 34.717774 31.534729 51.981659 2.394134 3.877045 3.203247 7.750458 3.19812 12.219666-.087402 75.993011-.034638 151.986206-.148468 227.979126-.005493 3.661315 1.055603 5.631042 4.336548 7.315612 9.470978 4.862915 18.720947 10.154724 28.101257 15.197144 1.508575.810852 3.240753 1.205688 5.756561 2.112549 0-139.408142 0-277.928284 0-416.80365 14.002472 0 27.325775 0 41.594269.094574m-54.784454 441.441009c-9.114411-3.351928-18.228821-6.703857-27.699921-10.18695-4.865265 16.167053-9.47052 31.470153-14.145203 47.004089 60.014649 14.2724 110.604981 43.428406 153.01178 87.273926 7.199616-7.716065 13.979218-14.981995 20.825165-22.31897-34.10788-46.793213-78.259003-79.86322-131.991821-101.772095z" fill="#fff"/><path d="m1004.113159 220.749817c5.130799-.194748 10.261414-.542832 15.392578-.55014 8.820679-.012574 17.641724.28305 26.462647.284011 174.819092.018952 349.638061.031433 524.457031-.089874 4.196899-.002899 6.543823 1.226898 8.728516 4.777176 6.437256 10.460403 13.300659 20.658646 20.374023 31.538971-81.416992 0-162.254516 0-243.940918 0 6.70044 11.286743 14.357178 20.760864 23.10022 29.348755 24.8031 24.36322 55.575439 35.975647 89.242432 40.800018 14.481689 2.075226 29.157592 2.779877 43.726318 4.290039 1.509521.156464 3.429687 1.205506 4.247314 2.442963 9.349121 14.151123 18.594361 28.373413 27.615967 42.734619.804443 1.28067.461792 4.01944-.383057 5.483856-8.058227 13.967072-16.999755 27.461853-24.431518 41.745789-20.977905 40.319519-28.598511 83.424438-25.365112 128.634613 2.369995 33.13562 6.964721 65.844665 17.417114 97.524963.356811 1.081055.45935 2.246033.73584 3.654724-8.991333 4.096497-17.887207 8.149536-27.065674 12.331238-36.119385-93.203308-41.275635-187.405609-11.014649-283.348236-32.78955-7.364502-63.696655-19.331451-90.976562-39.606171-27.310303-20.297271-47.581055-46.318695-62.598755-77.251526-3.554565 1.834198-6.905884 3.502411-10.201782 5.273804-25.289795 13.592652-49.758179 28.445954-70.753296 48.275726-13.93811 13.164429-25.75647 27.898285-31.166504 46.82129-2.935181 10.266601-3.721191 20.672668-1.380615 31.114959 3.844848 17.155396 18.049682 28.267853 36.839233 29.815033 22.147583 1.823639 40.061157-7.440429 56.654419-20.6474 17.252075-13.731292 30.80835-30.789489 43.80127-48.368133 1.080078-1.461212 2.214843-2.881958 3.597168-4.675568 14.50708 13.542542 26.988281 28.384766 35.085205 46.244812 21.145508 46.643067 22.822021 94.499634 5.241943 142.364227-11.40332 31.047791-33.398559 53.022156-64.87146 64.384156-40.187866 14.508117-80.431396 13.645447-120.027344-2.076477-29.709472-11.796448-52.88623-32.371216-72.422851-57.292725-23.558472-30.052124-39.851685-64.010376-53.555786-99.381866-15.958374-41.189576-26.995484-83.787598-36.869263-127.261841 9.295166-2.842835 18.432861-5.637512 27.763306-8.49115 4.500976 15.149261 8.843139 30.139099 13.409423 45.060333 11.864014 38.76825 26.273804 76.514099 46.835694 111.598938 15.651611 26.706543 34.636963 50.585877 61.480835 67.089295 29.602539 18.199524 61.870361 23.542358 95.983276 19.165588 19.401001-2.489197 37.250733-9.127014 51.999146-22.27417 19.915771-17.753601 28.166381-40.649322 27.832031-66.941864-.187744-14.767181-2.712524-28.554016-6.020386-35.27417-10.38623 8.747833-20.508911 18.187714-31.554809 26.383331-21.747193 16.135468-46.125489 25.08014-73.606934 23.569642-26.804565-1.473267-48.612915-13.149384-65.297485-33.909272-33.326783-41.467315-36.607666-106.478912 3.931518-154.353729 10.388062-12.267853 22.367554-23.188232 33.606323-34.717895-73.172729 0-147.197509 0-221.694946-.530579-.435486-12.257065-.398315-23.983566-.361084-35.710083z" fill="#010101"/><path d="m1003.659546 220.622757c.416382 11.853577.379211 23.580078.352539 35.764236-11.133057.457642-22.276489.457642-33.952759.457642v416.470367c-2.154175-.556335-3.740173-.660461-5.015991-1.34375-10.121155-5.420471-20.111084-11.090942-30.308533-16.361084-2.980407-1.540222-2.744079-3.719482-2.74353-6.208435.010498-46.66278.00769-93.325622.00769-139.988403 0-7.332733-.497131-14.705566.091248-21.990784 1.926147-23.849853-7.626282-44.290161-19.077454-63.963531-4.282776-7.358032-10.153259-14.040894-16.278869-20.030304-17.785279-17.389923-54.974732-20.098938-67.657898 18.121155-3.670899 11.061828-4.627197 23.024414-6.916504 35.038635-5.895752-2.69223-13.369324-2.977661-17.286194-12.218506-10.567627-24.931915-28.577209-42.730591-55.103516-50.679016-19.972412-5.984589-40.139038-6.396027-60.000976.120697-25.32367 8.308716-39.002381 26.514526-41.373535 52.747772-1.898255 21.000427 1.701294 40.978974 15.905517 57.62323 3.445252 4.03714 8.172791 6.979981 12.397034 10.497925.67572-7.611328.530579-14.318146 1.970825-20.665161 4.673889-20.596466 20.896607-34.464996 42.055603-35.873139 17.817871-1.185791 34.217652 2.623719 46.756043 16.589234 11.203186 12.478271 14.299438 27.561859 13.019714 43.719513-2.584717 32.632995-25.967712 48.618713-56.725952 50.478393-46.901245 2.835816-86.436829-25.685302-102.982117-67.036712-15.455383-38.627442-17.05896-77.874817-1.979126-116.937592 26.116699-67.652923 114.584351-82.23645 161.273438-26.723266 6.486267 7.712188 11.75061 16.452026 16.949035 23.820861 3.226746-8.772094 5.799988-18.95404 10.521851-28.01654 15.176086-29.126496 48.953064-37.088593 76.303589-18.692505 16.009338 10.767975 26.66272 25.987762 34.820678 42.973633 5.24646 10.923889 9.259705 22.440033 13.824769 33.691131.343566.846833.678894 1.697052 1.089172 2.723725-.732788-52.589813-1.460388-104.809693-2.198059-157.752167-110.229492 0-220.808228 0-331.880493-.513763-.530396-12.196976-.5672-23.880204-.604065-35.563446 1.468322-.16478 2.936584-.473633 4.404907-.473877 132.463867-.021531 264.927795-.019532 397.391663-.015305.832214.000015 1.664489.053528 2.950256.209137m-68.985291 196.310745c-.12445.002197-.248901.004364-.373352.006561.044312.425843.088623.851685.1568 1.507325.121704-.513886.187744-.792816.216552-1.513886z" fill="#c47034"/><path d="m428.910034 256.869446c-13.323273 0-26.646576 0-40.649048 0v416.80365c-2.515808-.906861-4.247986-1.301697-5.756561-2.112549-9.38031-5.04242-18.630279-10.334229-28.101257-15.197144-3.280945-1.68457-4.342041-3.654297-4.336548-7.315612.11383-75.99292.061066-151.986115.148468-227.979126.005127-4.469208-.803986-8.342621-3.19812-12.219666-10.660797-17.263885-21.071625-34.682159-31.534729-51.981659-56.675263 56.109222-112.843582 111.716553-169.265366 167.57486-13.59819-14.247193-27.361526-28.667389-40.58593-42.522919 7.123406-7.537506 14.235749-14.536804 20.742226-22.060028 12.67775-14.659058 19.396301-31.618988 18.714859-51.270569-.682297-19.675751-14.010315-33.348205-33.700508-34.493805-15.206505-.884735-28.943291 3.385742-41.646813 11.477173-2.5037 1.594727-4.962089 3.26059-7.789394 5.122894-16.386662-16.885772-32.588388-33.580993-48.972177-50.463836 25.728738-41.107483 54.508108-78.993653 97.298032-103.629898 36.853356-21.218293 75.536843-25.87172 115.736824-10.74347 22.333023 8.404465 41.257981 22.280411 57.886765 39.224716 26.69397 27.200379 47.617798 58.624604 66.342438 91.619629.636932 1.122345 1.290283 2.235382 1.614013 2.795594-.78247-63.360047-1.570404-127.162857-2.375793-192.380219 3.019378 1.056992 4.937683 1.304016 6.33844 2.287903 8.993561 6.316971 17.993957 12.639557 26.690704 19.350906 1.763825 1.361145 2.879852 4.30423 3.195587 6.664994 1.098236 8.211425 1.713349 16.487487 2.514344 24.761306 13.512573 0 26.633117 0 40.220581.503128.46762 12.396668.468292 24.290207.468963 36.183747m-260.394501 18.059326c-32.014648 10.66394-54.430183 33.078979-73.560043 59.613281 1.613152.262177 2.896469.002411 4.188118-.205658 28.852203-4.647888 55.88871 6.69281 67.699242 35.927399 5.623993 13.921112 6.813583 28.371948 6.220138 43.136902-.047516 1.182037.10875 2.372284.221802 4.551025 35.440231-36.1185 70.133499-71.475708 105.725037-107.748443-10.098725-7.831543-19.047547-15.922455-29.07605-22.321198-24.837952-15.847931-51.708313-21.375946-81.418244-12.953308z" fill="#c47034"/><path d="m429.382629 256.916748c-.473266-11.940842-.473938-23.834381-.520446-36.173157 19.759796-.278671 39.565429-.110962 59.371063.052521 1.772522.014633 3.545257.001953 5.317901.001953.278595-.496658.55719-.993316.835785-1.489975-2.884857-2.586197-5.919922-5.024811-8.629821-7.782944-15.629822-15.90805-31.239472-31.837417-46.650177-47.956298-1.185639-1.240143-1.648529-4.334168-.996613-5.998169 16.270752-41.531044 40.483673-77.608498 75.122162-106.020054 24.285767-19.920027 52.360962-32.344017 83.375061-37.291316 30.223267-4.821146 59.901245-1.380325 89.154785 7.476062 35.349548 10.701927 66.906189 28.605381 96.966858 49.55566 25.510315 17.778999 48.497986 38.510643 70.325806 60.533569 10.053894 10.143692 19.384826 21.003937 29.373779 31.89943-5.802063 5.301361-11.156494 10.193618-16.747681 15.302307-5.350647-5.00972-10.512085-9.883881-15.718139-14.709915-33.733826-31.271302-69.746704-59.313759-111.606812-79.146599-35.125793-16.642189-72.01886-24.770932-110.861633-22.01318-21.555176 1.530369-41.556946 8.892864-59.966187 20.25198-26.999267 16.659416-48.198669 38.723282-61.807769 67.602745-2.893769 6.140777-5.126801 12.626282-7.192749 19.103332-.612244 1.919464-.330384 4.82811.760986 6.475998 9.007294 13.600205 18.35318 26.97554 27.468353 40.505356 1.995361 2.961762 4.380798 3.886124 7.908814 3.780975 14.304809-.426345 28.618042-.661712 42.929382-.739669 6.807617-.037094 13.618042.437286 20.872314.722717.481934 11.725967.518738 23.409195.589112 35.550842-20.094422.458405-40.222351.458405-60.947876.458405v416.492431c-2.260742-.614929-3.896241-.753418-5.220093-1.468689-10.105103-5.459228-20.19397-10.953247-30.157105-16.664672-1.267608-.726624-2.030304-2.686768-2.559387-4.235169-.407898-1.193909-.083038-2.638367-.083038-3.971374-.000092-127.636719-.000122-255.273468-.000092-382.910187 0-2.135864.000031-4.271759.000031-7.147644-23.711548 0-46.972748 0-70.706574-.047272z" fill="#cdb592"/><path d="m375.40686 698.589294c53.396759 21.72461 97.547882 54.794617 131.655762 101.58783-6.845947 7.336975-13.625549 14.602905-20.825165 22.31897-42.406799-43.84552-92.997131-73.001526-153.01178-87.273926 4.674683-15.533936 9.279938-30.837036 14.145203-47.004089 9.4711 3.483093 18.58551 6.835022 28.03598 10.371215z" fill="#c57034"/><path d="m934.692871 417.154572c-.047424.5-.113464.77893-.235168 1.292816-.068177-.65564-.112488-1.081482-.1568-1.507325.124451-.002197.248902-.004364.391968.214509z" fill="#fff"/><path d="m168.902313 274.822449c29.323151-8.316315 56.193512-2.7883 81.031464 13.059631 10.028503 6.398743 18.977325 14.489655 29.07605 22.321198-35.591538 36.272735-70.284806 71.629943-105.725037 107.748443-.113052-2.178741-.269318-3.368988-.221802-4.551025.593445-14.764954-.596145-29.21579-6.220138-43.136902-11.810532-29.234589-38.847039-40.575287-67.699242-35.927399-1.291649.208069-2.574966.467835-4.188118.205658 19.12986-26.534302 41.545395-48.949341 73.946823-59.719604z" fill="#fffefe"/></svg>