<svg enable-background="new 0 0 1024 528" viewBox="0 0 1024 308" xmlns="http://www.w3.org/2000/svg"><path d="m796.894165 176.795227c-1.63739-7.938705-2.360107-15.530456-2.229797-23.226852.060974-3.603348 1.459472-5.411789 5.131042-4.780854 3.704285.636536 7.555664-.244873 10.814758 3.406021 1.865723 2.089921 6.057923.639054 9.153199.147339 8.434448-1.33995 15.137939-6.034958 21.011474-11.823547 6.520996-6.42662 12.640869-13.260323 18.928711-19.92308 1.419617-1.504296 2.549195-3.044022 1.550049-5.332001-2.620483-6.000397-5.610596-11.747032-10.734009-16.050698-5.311401-4.461524-11.52301-5.571113-17.790832-3.12181-6.112427 2.388549-7.19159 8.301429-7.54773 14.12033-.296447 4.845673-.052795 9.680451 2.133667 14.174927 1.363526 2.802849.560242 4.278511-2.508301 4.979927-4.539367 1.037598-9.035156 2.284332-13.510803 3.576111-2.961426.854752-4.698425-.183365-5.929199-2.910858-4.866333-10.784096-6.204102-21.797531-1.644104-32.941856 5.099915-12.46415 15.680664-17.171975 28.127747-18.313164 18.334716-1.680992 31.293518 6.851219 40.331115 22.259483.573365.977501 1.180054 1.935448 2.086731 3.418465 3.939453-3.4693 7.618409-6.709214 11.394837-10.034912-1.38385-3.522477-4.519287-5.070618-6.815796-7.342736-12.230164-12.100036-18.798767-26.207149-15.1698-43.702369 3.138184-15.128884 13.033447-24.800841 26.618286-30.949951 17.910767-8.107181 36.898743-9.412778 56.227478-8.264185 13.379151.795045 26.453674 2.826575 38.779785 8.450769 22.052185 10.06204 31.989075 31.878921 25.014649 55.020485-2.192261 7.274071-6.74115 12.919159-12.270447 17.892128-1.473572 1.325195-3.009399 2.581039-4.627747 3.963638 1.419556 3.634377 4.588868 5.451142 6.882447 7.945358 11.713623 12.738579 17.708008 28.000985 20.01416 44.870713 2.426025 17.747101 1.195434 35.263321-4.896057 52.167709-7.017884 19.475144-19.879334 32.955551-40.826966 37.20343-14.428161 2.925827-28.792114 1.926743-43.077453-1.403625-4.764649-1.110825-6.456543-3.32164-4.450989-8.08635 1.069092-2.539932 1.583557-5.313324 2.468506-8.40065 7.815246 2.295273 15.269897 3.527527 22.872986 4.397583 34.291137 3.924011 47.946899-21.448974 50.26123-44.817199 1.071839-10.821961.973206-21.614151-1.947815-32.177933-6.595093-23.850769-24.801697-39.675705-49.35907-42.7845-18.324646-2.319779-36.257263-1.376702-52.913696 7.758552-3.310303 1.815514-6.385193 4.060272-10.363769 6.61834 4.891784.981056 8.786682 1.570884 12.57965 2.554039 23.906556 6.196747 37.688416 22.508644 39.469605 47.380348 1.102783 15.399002-1.27301 30.303314-9.431458 43.745285-10.05487 16.566788-25.886718 24.005127-44.289672 26.475464-15.827271 2.124618-31.642701 1.425842-46.794251-4.21196-22.79956-8.48352-35.864319-25.569321-41.894226-48.61261-.252563-.965057-.489502-1.934189-.828125-3.312744m126.157227-2.315079c.346252-2.2957.83612-4.58023 1.015808-6.8889 1.322021-16.988633-5.337525-30.287644-21.59784-36.38144-7.900329-2.960785-16.10791-3.828842-24.484802-3.925537-2.96051-.034172-4.976746.921265-6.83258 3.177902-5.706727 6.939103-11.30896 13.976853-17.855896 20.182999-9.107239 8.633072-19.19751 15.376618-31.929688 17.375458-3.197082.501907-6.57489-.235214-10.13739 1.170715 4.621399 14.858353 14.0625 25.039841 27.950684 30.331406 19.105102 7.279205 38.80487 7.418747 58.233398 1.117752 12.530456-4.063873 21.630554-12.22171 25.638306-26.160355m60.193054-97.676437c18.582702-11.327454 18.476562-31.470791-.244934-42.628704-3.732971-2.224829-7.712281-3.879158-11.947876-4.945288-17.506836-4.406521-35.262207-4.789663-53.038452-2.649587-10.074646 1.212879-20.083252 3.366695-28.53888 9.64785-5.657837 4.202858-8.650146 9.876255-9.315368 16.930313-1.278809 13.559326 5.65802 22.317985 16.412353 29.075859 2.67334 1.67987 4.87085 1.876655 7.816956.437645 21.510254-10.506409 43.813476-11.694847 66.462158-4.483437 4.459595 1.41993 7.999573 1.314949 12.394043-1.384651z"/><path d="m402.018677 205.576126c.931457 13.821579.071899 27.020294-4.346436 39.842285-7.657898 22.223252-22.670898 37.705338-44.451477 45.702866-30.531524 11.210724-61.865967 11.656616-92.551422 1.133545-32.017502-10.979889-47.731628-35.570557-52.018341-68.281891-2.55072-19.464249-.109329-38.168503 8.730743-55.831955 5.851853-11.692627 14.143631-21.507462 24.887055-28.836166 5.11737-3.490876 6.45816-7.41272 6.549286-13.237519.228515-14.604416 3.600967-28.271087 13.694824-39.674888 12.220734-13.806633 37.568207-18.068329 52.145538-4.019616 1.877716 1.809632 3.206055 2.631691 5.787018.44677 20.697235-17.521217 51.998322-9.637047 62.208954 15.477997 3.119293 7.672501 4.141876 15.705681 4.631164 23.887726.231141 3.865852-1.097229 5.29615-5.102752 5.25251-15.826874-.17244-31.66449-.365257-47.483612.029953-17.499542.437187-34.891602 2.085632-51.638855 7.789047-5.057984 1.722534-9.915741 3.861359-14.663941 6.308182-2.897583 1.493179-3.486053 3.58844-2.770355 6.596115 4.527741 19.027817 20.958008 33.354095 40.693024 35.467041 11.832886 1.266922 23.53537.880783 35.226532-1.613724 17.150024-3.659286 26.885711-14.268219 30.325439-31.153045.329346-1.616822.835846-3.197556 1.278839-4.865708 4.144074-1.111374 7.998108.369583 11.894898.888031 2.272247.302323 2.112335 2.074936 1.899627 3.861725-4.212463 35.379868-28.189666 56.965454-63.824737 57.564789-8.859253.149002-17.64856-.236313-26.280731-2.308197-24.622284-5.909836-38.456024-22.418274-44.985764-46.034683-.264435-.95636-.442093-1.937455-.727264-2.886872-.087738-.292038-.39885-.516967-.826981-1.041122-2.299301 1.026443-3.661835 3.080185-5.090942 5.026916-7.067429 9.62732-10.876404 20.541443-12.438675 32.271103-1.932816 14.511521-1.414765 28.83664 3.354431 42.868073 6.384079 18.782608 19.360596 31.263031 37.951004 36.773681 25.343536 7.51236 51.048859 7.365418 76.015472-2.038299 21.61377-8.140869 32.274964-25.141358 35.61084-47.364319.743714-4.954285 1.243164-9.917587.906586-14.918716-.182037-2.704621.705872-4.354752 3.577332-3.914246 3.89151.597015 7.868469-1.87738 11.833679.832611m-136.907562-89.036644c-.691742 2.872627-1.470551 5.745323.089721 9.413895 33.614441-14.277161 69.103913-13.546288 104.414185-13.243485.535431-12.059128-7.690857-21.492286-19.56482-23.207267-8.583496-1.239724-15.430145 2.706886-18.582428 10.115585-1.318389 3.09864.298951 7.8684-3.6716 9.190132-3.164795 1.05352-6.914917.350647-10.405273.42276-.665711.013756-1.343506-.074425-1.995911.020584-4.320648.629196-6.074524-1.258789-7.00647-5.541916-2.198669-10.104645-8.533203-14.963791-18.004333-14.262375-8.072418.597832-14.61908 4.109108-19.160401 11.03357-3.06427 4.672271-4.884338 9.802475-6.11267 16.058517z"/><path d="m624.756592 197.266144c8.870849 4.254471 18.007446 6.12735 27.322571 6.865249 21.631652 1.713486 42.975708.876557 62.976318-8.972366 15.935181-7.846939 27.474609-20.041077 33.855713-36.536499 9.840271-25.437622 10.683166-51.457245 1.483642-77.161156-10.067871-28.130409-31.815551-42.998645-60.266967-47.957691-33.36139-5.814834-64.167786 1.508034-91.72284 21.412251-3.817444 2.757503-5.849975 2.050422-8.370544-1.585503-6.189514-8.928554-6.411438-8.962929 2.779358-14.594067 35.628845-21.829582 73.754211-28.259788 114.056762-16.599853 31.401551 9.084763 52.593689 29.841335 61.789307 61.275684 9.61145 32.855515 8.339295 65.697701-6.312195 96.975289-14.353027 30.640289-39.646118 47.093002-72.76532 51.911041-21.370666 3.108902-42.60852 2.459885-63.060119-4.974808-24.505188-8.908325-39.065979-26.036789-42.023987-52.59996-1.614807-14.501434.259155-28.042221 8.922119-39.910004 9.253601-12.676933 23.119385-17.360031 37.846436-20.129585 13.362487-2.512939 26.867553-1.930969 40.346191-1.968658 2.301575-.006432 4.60315-.000916 7.443543-.000916-.199524-5.608879-2.431336-9.772812-5.201233-13.666069-5.864991-8.243538-19.417847-12.141716-28.715699-8.275742-3.971252 1.651215-6.61145 4.550713-6.830688 9.034401-.169922 3.475365-.033936 6.965691-.033936 10.929612-6.252197 1.851707-12.85675 2.305908-19.402587 2.97689-2.359437.241852-2.785157-1.936882-3.415528-3.656227-5.961426-16.26046 3.412903-31.595657 21.454834-35.209137 8.459534-1.694298 16.890381-1.511597 25.271424.276268 18.836425 4.018234 31.721923 18.991127 33.113586 38.29599.035889.498215.02124.999916.050049 1.49884.716125 12.421425.715576 12.31453-12.01593 12.44204-16.627808.166534-33.309449-1.006279-49.837952 1.934166-6.123291 1.08934-12.004334 2.90805-17.406921 5.939667-14.496155 8.134262-19.277527 28.260253-10.908997 44.417221 4.286926 8.276626 11.101318 13.537216 19.57959 17.613632z" fill="#d2691e"/><path d="m172.941772 127.005814c22.876832 18.093414 22.767563 63.81958-1.750244 85.111221-13.107513 11.382767-28.484375 16.972549-45.191078 19.483337-25.297531 3.801865-50.545311 3.72519-75.083938-4.346817-23.829504-7.838714-40.541129-22.878296-44.425348-48.921249-4.919426-32.983795 9.462735-57.635056 45.154309-63.61496 7.390797-1.238289 14.835919-2.021522 22.342297-2.004318 2.650047.006073 4.124596-.596787 3.294029-3.809197-3.609283-13.959625-17.022194-22.260917-30.623901-18.8115-7.482517 1.897575-11.2449 7.709816-9.966351 15.396294 1.289402 7.751678 1.290631 7.756515-6.31442 9.693588-1.773579.451744-3.561756.845894-5.337876 1.287994-7.535476 1.875687-7.859628 1.705803-10.292893-5.477211-6.042361-17.837089 2.72465-32.33332 21.84463-36.195862 9.335568-1.885925 18.565903-1.360626 27.660332 1.259827 16.881096 4.86409 29.24707 21.210976 30.0718 39.547813.528824 11.757477.527268 11.877556-11.498337 11.721001-11.36541-.147957-22.647758.540016-33.72723 3.096802-15.071026 3.477905-23.515722 12.112823-25.877123 24.422958-3.362362 17.528183 4.748448 31.49881 16.771315 38.473343 10.140301 5.882446 21.242874 8.801727 32.697739 10.110657 20.272346 2.316498 40.561027 2.227722 60.653228-1.855805 8.697052-1.767578 16.924012-4.875778 24.381379-9.878173 15.803054-10.600586 18.404922-30.012589 11.843399-44.853562-4.369614-9.883255-13.403489-14.027664-23.224884-16.417221-12.049378-2.931602-24.365792-3.283005-36.718613-3.095611-7.460884.113182-7.509338.612831-7.058266-7.262261.906403-15.824707 6.330277-29.327286 19.664414-38.569542 13.336616-9.243988 27.97863-10.050613 42.898155-4.532409 11.378555 4.208549 15.636047 13.90879 17.025452 25.031402.635406 5.086754.475448 10.319016-.799973 15.406357-.364624 1.454399-.528442 3.543571-2.359177 3.249062-3.916351-.630013-7.789199-1.681458-11.577743-2.882439-1.571243-.498085-1.009323-2.259796-.832062-3.549095 2.684189-19.522888-9.609299-23.977906-23.748352-23.136994-12.32637.733109-22.007675 9.455284-23.00016 21.231865 18.514763 1.387284 37.291862 2.225952 53.105491 14.690705z"/><path d="m493.090393 186.197479c-13.396789-.929596-24.328552-5.085083-29.261597-18.424652-6.434936-17.400894 1.649048-34.960693 19.463868-40.216987 18.809722-5.54982 37.649658-4.529358 55.43103 4.305305 18.99292 9.436584 28.12207 29.488159 25.280762 50.470001-4.437134 32.766007-29.742615 48.899384-58.132782 50.985245-13.351685.980972-26.593903.662476-39.627503-2.815689-28.610779-7.635132-44.327789-26.963822-49.409332-55.379303-2.983063-16.681046-2.139679-33.199463 5.824554-48.694534 11.25766-21.902756 30.432556-32.945664 53.708588-36.347931 30.271301-4.42479 59.765442-1.185753 87.230102 13.84143 3.768677 2.06202 4.118348 3.711632 2.051087 7.235123-5.365173 9.144486-5.059021 8.871132-14.728088 4.241859-28.70282-13.742134-58.402588-17.27597-88.539124-5.630836-24.220062 9.358925-32.597809 31.256439-29.571503 54.241043 3.687378 28.005585 22.948212 40.085602 47.845887 42.48346 12.71408 1.224472 25.656219 1.490371 38.229766-1.960282 14.258484-3.913055 24.963257-11.673324 28.369996-27.04631 3.416442-15.416504-6.911683-31.755249-22.264405-35.12349-.767334-.168319-1.603821-.021637-3.519531-.021637 2.739319 5.480484 4.035156 10.781617 3.915283 16.480103-.294067 13.977676-8.170898 23.738602-21.923004 26.30545-3.25946.608368-6.608734.735581-10.374054 1.072632m2.895935-14.872116c9.241058-1.957489 12.700012-5.828613 13.179169-14.749634.449005-8.360168-5.712616-14.913925-14.328369-15.240112-9.608979-.363785-16.411743 5.365616-16.574646 13.959381-.203125 10.715958 5.120025 15.800842 17.723846 16.030365z" fill="#d2b48c"/></svg>