<svg enable-background="new 0 0 1038 332" viewBox="0 0 1038 332" xmlns="http://www.w3.org/2000/svg"><path d="m793 333c-264.333313 0-528.166565 0-791.999894 0-.000035-110.666595-.000035-221.333199-.000071-331.999849 345.999843-.000051 691.999721-.000051 1037.999721-.000101 0 110.666462 0 221.332973.000122 331.999706-81.833191.000244-163.666565.000244-245.999878.000244m-311.467926-22.952576c4.976044-5.7724 10.217804-11.3432 14.814789-17.403137 2.260864-2.980438 3.462341-3.338135 6.602844-1.113953 8.125153 5.754578 16.31781 11.534516 25.022766 16.32428 17.333252 9.537415 36.313355 13.719452 55.914002 15.079224 15.730529 1.091308 31.30719-.084473 46.066772-6.054932 25.595703-10.35376 42.390442-29.776123 54.116943-54.058685 13.98285-28.954758 18.018799-60.031128 18.598511-91.686585.422058-23.044723-2.637146-45.745986-7.561035-68.289489-7.0625-32.335099-17.950195-63.277638-31.764404-93.287752-1.886475-4.098237-3.780701-4.178114-7.214295-2.21499-7.073425 4.044199-14.296325 7.826388-21.444153 11.74117-4.900329 2.683817-9.777648 5.409462-14.704345 8.138048 4.293823 8.560417 8.268249 16.411491 12.179382 24.293934 16.304199 32.858925 26.102722 67.62381 28.444641 104.169708 1.956604 30.53244-1.808594 60.486405-14.437256 88.779663-5.777038 12.942871-13.804199 24.253845-25.621399 32.491455-18.393982 12.822235-38.417968 12.385468-58.823547 6.682831-17.008301-4.753204-30.940796-15.066925-44.629394-25.786133-3.528992-2.763412-4.503541-5.28685-3.707154-9.665619 2.465576-13.556411 5.016907-27.144744 6.435425-40.834625 3.448059-33.275299 3.078735-66.505401-4.127075-99.350227-4.587158-20.908753-11.189331-41.15609-23.986572-58.679577-16.024323-21.942408-37.397065-34.4019-64.984864-35.355971-2.72998-.094412-4.004852.67195-4.450592 3.308381-1.637237 9.683399-3.336578 19.356393-5.042969 29.027937-.492492 2.791561.559693 3.826515 3.427491 4.006179 3.625702.227135 7.34201.621308 10.797699 1.672009 15.678466 4.766998 25.973602 15.733574 32.909179 30.023468 12.134003 25.00061 14.496491 52.069908 15.365967 79.221596.510498 15.942062-.538971 31.943115-1.154541 47.907303-.217163 5.632888-1.229858 11.235107-1.969543 17.631378-12.705323-6.88794-24.885132-10.446869-38.046326-9.818756-19.609558.935836-36.215668 7.592804-46.039337 25.739715-6.66806 12.317673-7.473694 25.672119-4.951325 39.293305 2.439698 13.174621 8.786744 23.972564 19.917328 31.601288 8.136811 5.576843 17.375885 7.787475 27.151215 8.963806 17.16864 2.06604 32.728515-.946137 46.895172-12.496247m394.69632-259.355098c20.907226-1.934933 40.756958 1.314468 59.004516 12.188282 14.720947 8.772224 25.279968 21.344871 32.815125 36.56176 9.467712 19.119392 13.503112 39.453735 13.803894 60.716568.392273 27.734115-3.887757 54.416259-17.591492 78.893035-15.468079 27.628327-38.799499 44.426423-70.535034 47.815308-22.631836 2.416779-44.822449-.71225-65.974671-9.548462-4.408752-1.841705-8.551086-4.321014-12.434021-6.310699 7.643006-4.246277 15.370118-7.239899 21.516358-12.19455 19.386597-15.627975 21.198852-43.239349 7.834778-62.023025-15.198059-21.361496-49.141236-21.609452-67.345948-7.620194-19.102417 14.679123-22.649047 34.825958-18.467895 56.809815 3.816345 20.066162 16.094482 35.266204 32.030273 47.215545 21.993775 16.491883 47.017456 25.847382 74.355286 28.893708 35.390991 3.943695 68.125061-3.257386 97.412109-23.922852 29.512085-20.82431 46.472474-50.069748 55.227723-84.482956 6.6427-26.109573 7.594848-52.603287 4.062805-79.259644-3.577698-27.000129-12.312561-51.977439-29.508118-73.527282-19.92334-24.968399-46.316589-39.007937-77.29425-44.525509-18.247742-3.250194-36.697815-3.161257-55.156983-.484599-27.583801 3.999787-51.89508 14.583626-72.500976 33.639971-12.166382 11.25137-21.474671 24.41998-28.430054 39.324399-.595581 1.276176-.181885 4.301803.716003 4.801139 10.426514 5.798531 21.036438 11.267197 31.967774 17.017899.984192-1.721848 1.903625-3.066017 2.563965-4.527275 5.273315-11.669586 12.543762-21.91198 22.045959-30.489372 16.749878-15.119667 36.407166-23.469555 59.882874-24.96101m-627.80423 11.255832c12.732147-17.718471 30.66925-22.661152 50.369201-13.579113 5.103974 2.353031 9.744874 5.696087 14.780396 8.22171 1.333221.668705 4.343262.647812 4.884918-.17477 4.722931-7.173084 9.059632-14.600513 13.465576-21.877369-.686645-.724407-.981201-1.141861-1.372039-1.427589-1.209015-.883843-2.441529-1.737332-3.688172-2.567629-13.215637-8.801827-27.640747-14.313488-43.452362-16.214751-26.627685-3.201845-47.922729 6.453345-64.522323 26.963952-11.988892 14.813568-19.545472 31.94498-25.231324 50.025875-7.430252 23.627945-11.612961 47.823829-11.548813 72.533455.040436 15.573562 1.386582 31.186752 2.934006 46.703705 2.579666 25.867843 9.133988 50.814453 22.156006 73.426055 11.386612 19.771851 26.853485 35.350861 50.991318 38.503022 15.550445 2.030731 30.602051.009247 43.973968-8.949189 15.825287-10.602142 22.844361-31.040405 17.075867-54.338989-7.601318-30.701233-41.743439-41.443451-65.324707-28.853576-6.37236 3.402145-11.533875 9.07228-17.509094 13.910217-.314148-.606644-.99765-1.681732-1.454758-2.845734-7.261612-18.491485-9.787399-37.974502-10.796204-57.55101-1.538513-29.856201.628403-59.483063 8.89589-88.420982 3.345596-11.710266 7.66037-22.985482 15.37265-33.48729m-76.461502-34.415729c-4.299896-2.158751-8.518036-4.502785-12.914582-6.442459-14.813934-6.535633-30.435226-8.711847-46.326873-6.410143-25.225006 3.653522-41.213204 20.256647-53.629933 40.848535-9.594635 15.91174-15.59964 33.371212-19.873714 51.416149-4.22197 17.824936-6.588509 35.896813-7.118275 54.211251-.559091 19.328079.773117 38.52687 3.892124 57.602554 3.71941 22.747742 9.424431 44.945267 21.085396 65.026016 11.592842 19.96341 27.018372 35.671967 51.330925 38.73111 16.60569 2.089355 32.983551.191223 46.260758-10.962677 17.080749-14.349091 19.942901-33.344818 14.196929-53.920624-8.440551-30.224823-43.755538-40.111099-66.380874-26.440887-5.811119 3.511062-10.617813 8.684555-16.207894 13.363815-.682777-1.586426-1.633224-3.469788-2.321449-5.444519-6.403442-18.373291-8.795227-37.493118-9.750694-56.759384-1.072411-21.624253-.091713-43.195877 3.799927-64.57592 3.287635-18.061798 7.526512-35.804795 17.426368-51.583939 8.614487-13.730415 20.000115-23.22163 37.377213-22.072475 11.289169.746555 21.129501 5.498455 29.984009 12.30056 2.969345 2.281055 4.853729 2.114547 6.707702-1.247296 2.166458-3.928402 4.796646-7.599712 6.994446-11.512424 5.877976-10.464462 8.186005-8.212578-4.531509-16.127243z" fill="#fffffe"/><path d="m481.239624 310.249512c-13.874207 11.348022-29.434082 14.360199-46.602722 12.294159-9.77533-1.176331-19.014404-3.386963-27.151215-8.963806-11.130584-7.628724-17.47763-18.426667-19.917328-31.601288-2.522369-13.621186-1.716735-26.975632 4.951325-39.293305 9.823669-18.146911 26.429779-24.803879 46.039337-25.739715 13.161194-.628113 25.341003 2.930816 38.046326 9.818756.739685-6.396271 1.75238-11.99849 1.969543-17.631378.61557-15.964188 1.665039-31.965241 1.154541-47.907303-.869476-27.151688-3.231964-54.220986-15.365967-79.221596-6.935577-14.289894-17.230713-25.25647-32.909179-30.023468-3.455689-1.050701-7.171997-1.444874-10.797699-1.672009-2.867798-.179664-3.919983-1.214618-3.427491-4.006179 1.706391-9.671544 3.405732-19.344538 5.042969-29.027937.44574-2.636431 1.720612-3.402793 4.450592-3.308381 27.587799.954071 48.960541 13.413563 64.984864 35.355971 12.797241 17.523487 19.399414 37.770824 23.986572 58.679577 7.20581 32.844826 7.575134 66.074928 4.127075 99.350227-1.418518 13.689881-3.969849 27.278214-6.435425 40.834625-.796387 4.378769.178162 6.902207 3.707154 9.665619 13.688598 10.719208 27.621093 21.032929 44.629394 25.786133 20.405579 5.702637 40.429565 6.139404 58.823547-6.682831 11.8172-8.23761 19.844361-19.548584 25.621399-32.491455 12.628662-28.293258 16.39386-58.247223 14.437256-88.779663-2.341919-36.545898-12.140442-71.310783-28.444641-104.169708-3.911133-7.882443-7.885559-15.733517-12.179382-24.293934 4.926697-2.728586 9.804016-5.454231 14.704345-8.138048 7.147828-3.914782 14.370728-7.696971 21.444153-11.74117 3.433594-1.963124 5.32782-1.883247 7.214295 2.21499 13.814209 30.010114 24.701904 60.952653 31.764404 93.287752 4.923889 22.543503 7.983093 45.244766 7.561035 68.289489-.579712 31.655457-4.615661 62.731827-18.598511 91.686585-11.726501 24.282562-28.52124 43.704925-54.116943 54.058685-14.759582 5.970459-30.336243 7.14624-46.066772 6.054932-19.600647-1.359772-38.58075-5.541809-55.914002-15.079224-8.704956-4.789764-16.897613-10.569702-25.022766-16.32428-3.140503-2.224182-4.34198-1.866485-6.602844 1.113953-4.596985 6.059937-9.838745 11.630737-15.107239 17.605225m-45.223602-56.046402c-8.169403.960617-14.291657 4.86116-16.373535 13.060623-1.88675 7.430847-.937134 14.604462 5.190002 20.145264 8.721405 7.88684 22.752716 8.066314 30.565857-.722107 5.071564-5.704529 8.505035-12.913178 12.287201-19.663758.555145-.990875-.535858-3.885437-1.703095-4.703399-8.689788-6.089234-18.385162-9.006028-29.96643-8.116623z" fill="#c57034"/><path d="m875.766846 50.717434c-23.01416 1.466347-42.671448 9.816235-59.421326 24.935902-9.502197 8.577392-16.772644 18.819786-22.045959 30.489372-.66034 1.461258-1.579773 2.805427-2.563965 4.527275-10.931336-5.750702-21.54126-11.219368-31.967774-17.017899-.897888-.499336-1.311584-3.524963-.716003-4.801139 6.955383-14.904419 16.263672-28.073029 28.430054-39.324399 20.605896-19.056345 44.917175-29.640184 72.500976-33.639971 18.459168-2.676658 36.909241-2.765595 55.156983.484599 30.977661 5.517572 57.37091 19.55711 77.29425 44.525509 17.195557 21.549843 25.93042 46.527153 29.508118 73.527282 3.532043 26.656357 2.579895 53.150071-4.062805 79.259644-8.755249 34.413208-25.715638 63.658646-55.227723 84.482956-29.287048 20.665466-62.021118 27.866547-97.412109 23.922852-27.33783-3.046326-52.361511-12.401825-74.355286-28.893708-15.935791-11.949341-28.213928-27.149383-32.030273-47.215545-4.181152-21.983857-.634522-42.130692 18.467895-56.809815 18.204712-13.989258 52.147889-13.741302 67.345948 7.620194 13.364074 18.783676 11.551819 46.39505-7.834778 62.023025-6.14624 4.954651-13.873352 7.948273-21.516358 12.19455 3.882935 1.989685 8.025269 4.468994 12.434021 6.310699 21.152222 8.836212 43.342835 11.965241 65.974671 9.548462 31.735535-3.388885 55.066955-20.186981 70.535034-47.815308 13.703735-24.476776 17.983765-51.15892 17.591492-78.893035-.300782-21.262833-4.336182-41.597176-13.803894-60.716568-7.535157-15.216889-18.094178-27.789536-32.815125-36.56176-18.247558-10.873814-38.09729-14.123215-59.466064-12.163174m-63.533875 197.136982c11.355469-3.001511 17.238953-12.818771 14.399292-24.027039-2.406311-9.49765-14.4552-16.186004-24.440063-14.006912-9.77771 2.133911-16.980103 14.198563-14.320496 24.366242 2.589234 9.898544 14.131897 16.720932 24.361267 13.667709z" fill="#020202"/><path d="m248.202454 62.232487c-7.49057 10.217479-11.805344 21.492695-15.15094 33.202961-8.267487 28.937919-10.434403 58.564781-8.89589 88.420982 1.008805 19.576508 3.534592 39.059525 10.796204 57.55101.457108 1.164002 1.14061 2.23909 1.454758 2.845734 5.975219-4.837937 11.136734-10.508072 17.509094-13.910217 23.581268-12.589875 57.723389-1.847657 65.324707 28.853576 5.768494 23.298584-1.25058 43.736847-17.075867 54.338989-13.371917 8.958436-28.423523 10.97992-43.973968 8.949189-24.137833-3.152161-39.604706-18.731171-50.991318-38.503022-13.022018-22.611602-19.57634-47.558212-22.156006-73.426055-1.547424-15.516953-2.89357-31.130143-2.934006-46.703705-.064148-24.709626 4.118561-48.90551 11.548813-72.533455 5.685852-18.080895 13.242432-35.212307 25.231324-50.025875 16.599594-20.510607 37.894638-30.165797 64.522323-26.963952 15.811615 1.901263 30.236725 7.412924 43.452362 16.214751 1.246643.830297 2.479157 1.683786 3.688172 2.567629.390838.285728.685394.703182 1.372039 1.427589-4.405944 7.276856-8.742645 14.704285-13.465576 21.877369-.541656.822582-3.551697.843475-4.884918.17477-5.035522-2.525623-9.676422-5.868679-14.780396-8.22171-19.699951-9.082039-37.637054-4.139358-50.590911 13.863442m34.278778 195.618587c-10.023712-4.9729-23.038056-2.376785-28.167069 5.806763-3.924866 6.262237-3.827652 12.916809-.716034 19.423523 3.78508 7.914886 10.624283 10.292633 18.941849 10.004333 8.744202-.303039 15.695374-4.63327 17.803162-11.823852 2.689026-9.173432 1.032257-18.887207-7.861908-23.410767z" fill="#cdb692"/><path d="m172.282898 27.710733c12.397278 7.736361 10.089249 5.484477 4.211273 15.948939-2.1978 3.912712-4.827988 7.584022-6.994446 11.512424-1.853973 3.361843-3.738357 3.528351-6.707702 1.247296-8.854508-6.802105-18.69484-11.554005-29.984009-12.30056-17.377098-1.149155-28.762726 8.34206-37.377213 22.072475-9.899856 15.779144-14.138733 33.522141-17.426368 51.583939-3.89164 21.380043-4.872338 42.951667-3.799927 64.57592.955467 19.266266 3.347252 38.386093 9.750694 56.759384.688225 1.974731 1.638672 3.858093 2.321449 5.444519 5.590081-4.67926 10.396775-9.852753 16.207894-13.363815 22.625336-13.670212 57.940323-3.783936 66.380874 26.440887 5.745972 20.575806 2.88382 39.571533-14.196929 53.920624-13.277207 11.1539-29.655068 13.052032-46.260758 10.962677-24.312553-3.059143-39.738083-18.7677-51.330925-38.73111-11.660965-20.080749-17.365986-42.278274-21.085396-65.026016-3.119007-19.075684-4.451215-38.274475-3.892124-57.602554.529766-18.314438 2.896305-36.386315 7.118275-54.211251 4.274074-18.044937 10.279079-35.504409 19.873714-51.416149 12.416729-20.591888 28.404927-37.195013 53.629933-40.848535 15.891647-2.301704 31.512939-.12549 46.326873 6.410143 4.396546 1.939674 8.614686 4.283708 13.234818 6.620763m-71.059586 243.310507c.932701 4.30719 1.043496 9.024231 2.949273 12.846222 6.190116 12.414093 24.741874 11.630219 33.166389 3.14978 5.786545-5.824951 5.215057-21.862487-.85199-26.649139-14.239364-11.234253-32.877517-2.999451-35.263672 10.653137z" fill="#cdb692"/><path d="m436.461029 254.172546c11.136261-.858841 20.831635 2.057953 29.521423 8.147187 1.167237.817962 2.25824 3.712524 1.703095 4.703399-3.782166 6.75058-7.215637 13.959229-12.287201 19.663758-7.813141 8.788421-21.844452 8.608947-30.565857.722107-6.127136-5.540802-7.076752-12.714417-5.190002-20.145264 2.081878-8.199463 8.204132-12.100006 16.818542-13.091187z" fill="#fefdfc"/><path d="m811.837952 247.930969c-9.834351 2.97667-21.377014-3.845718-23.966248-13.744262-2.659607-10.167679 4.542786-22.232331 14.320496-24.366242 9.984863-2.179092 22.033752 4.509262 24.440063 14.006912 2.839661 11.208268-3.043823 21.025528-14.794311 24.103592z" fill="#fbfbfb"/><g fill="#fefefd"><path d="m282.82074 258.01123c8.554657 4.363404 10.211426 14.077179 7.5224 23.250611-2.107788 7.190582-9.05896 11.520813-17.803162 11.823852-8.317566.2883-15.156769-2.089447-18.941849-10.004333-3.111618-6.506714-3.208832-13.161286.716034-19.423523 5.129013-8.183548 18.143357-10.779663 28.506577-5.646607z"/><path d="m101.33651 270.63205c2.272957-13.263398 20.91111-21.4982 35.150474-10.263947 6.067047 4.786652 6.638535 20.824188.85199 26.649139-8.424515 8.480439-26.976273 9.264313-33.166389-3.14978-1.905777-3.821991-2.016572-8.539032-2.836075-13.235412z"/></g></svg>