<svg enable-background="new 0 0 870 642" viewBox="0 0 870 642" xmlns="http://www.w3.org/2000/svg"><path d="m565 643c-188.333344 0-376.166672 0-564 0 0-214 0-428 0-642h870v642c-101.833313 0-203.666687 0-306 0m-260.90271-568.999847c.211182.169494.422363.338981.499176 1.201309-10.173218 18.673637-28.006683 26.596763-48.199982 33.38182 3.337311 1.018197 5.315186 1.785187 7.363495 2.221215 19.778809 4.21022 39.756104 5.586426 59.983277 5.075393 26.791229-.676864 52.907653-4.863166 78.447876-12.903495 25.185211-7.928566 48.550872-19.166451 67.705291-37.789254 5.13617-4.993602 9.486084-10.795959 14.652771-16.752594-2.016815-.902935-2.708099-1.263931-3.434234-1.529869-12.778534-4.679939-25.643585-9.13985-38.297486-14.134864-4.289367-1.693207-6.371948-.667611-8.867157 2.885395-22.050598 31.39841-51.888946 49.925937-90.365753 53.595783-6.768249.645546-13.650879.091614-21.924225.091614 2.1008-1.973481 3.149842-2.89666 4.12851-3.889183 3.966766-4.022919 8.228973-7.805558 11.811554-12.147667 17.922027-21.721737 8.234283-48.62781-14.462952-58.081307-12.942474-5.390598-26.641754-5.554226-40.25589-2.805555-10.900177 2.200723-20.230133 7.366815-27.064178 16.452368-11.77385 15.652752-7.050141 37.230339 10.323669 45.913208 12.57721 6.28569 25.118378 4.92575 37.956238-.784317m393.078735 383.421173c-6.716247-12.005555-17.299865-19.049897-30.467529-21.157563-14.095642-2.256256-28.137451-.299774-41.447754 5.127015-5.905517 2.407806-11.515808 5.539795-17.260071 8.343139-6.609375-14.499817-5.361206-62.535675 3.872315-74.027313 2.297607 2.908417 4.290222 5.950592 6.785095 8.501556 12.878906 13.168488 28.667236 17.182282 46.545471 14.494172 9.292664-1.397217 17.679077-4.960846 24.672058-11.132264 20.565369-18.149322 16.350342-52.6445-4.14685-68.076355-16.519898-12.437378-35.579956-14.603973-55.038391-10.952301-22.678467 4.255982-39.391358 17.812134-51.074219 37.552552-12.956055 21.891723-16.705872 45.7471-15.836914 70.876648.696594 20.146209 5.267456 39.109283 13.956848 57.156524 1.612793 3.34964.783508 5.806183-.977173 8.758667-13.927063 23.353455-16.578735 48.636902-10.152527 74.472229 5.987488 24.071472 22.229126 40.64624 43.461182 52.777771 21.745178 12.424683 45.726623 17.495606 70.067322 19.374573 27.683044 2.136963 55.48706 1.516235 82.459289-7.323364 20.192322-6.617615 38.673157-15.63739 53.507019-31.445862 17.347596-18.487366 26.539734-40.560486 26.771241-65.417236.646972-69.488923.192932-138.987793.315429-208.482483.007324-4.169007-1.512695-5.016785-5.261047-4.947296-10.828858.200866-21.673401.341949-32.492127-.044312-5.073913-.181152-6.451782 1.28302-6.437378 6.392029.176941 62.994873.157898 125.990478.065857 188.985748-.012634 8.636353-.223266 17.323425-1.160339 25.897522-2.310364 21.138733-12.41748 37.957642-29.453247 50.630982-12.925293 9.615478-27.912659 13.929504-43.519287 16.042602-8.493714 1.149963-17.19635 1.433411-25.769715 1.127319-8.413757-.300476-16.811462-1.651001-25.165893-2.882019-15.53717-2.289428-29.775452-8.144958-42.622864-17.0578-16.244873-11.269958-25.307251-27.04602-27.1427-46.698425-.66748-7.14624-.800598-14.46576 2.107056-21.572876 1.037536.307251 1.72644.368896 2.259277.689758 16.207397 9.760132 33.896545 13.594116 52.593506 12.407288 12.213562-.775269 22.986084-5.533448 30.946777-15.122101 13.483948-16.241211 14.428223-33.971924 5.040283-53.268524m-392.604065 18.752685c-7.737762 19.560761-5.236572 37.64856 10.024262 52.297364 15.219055 14.608703 34.100372 18.879699 53.554932 10.458068 25.425506-11.006469 33.292877-31.465759 25.873077-58.486541 1.540314.778747 2.441498 1.171051 3.280701 1.667999 15.678589 9.284149 27.47879 22.57901 37.647613 37.332825 12.288483 17.829223 22.104798 37.026672 24.542511 58.803222 1.567444 14.00232 1.074219 28.250061 1.193421 42.390442.033844 4.013245 1.001129 5.577271 5.305694 5.460755 10.656647-.288392 21.326294-.096863 31.990723-.096741 6.862945.000061 6.874267.001159 6.874573-6.755615.002868-64.653077.026031-129.306214-.042206-193.959229-.005768-5.477325-.243592-11.010101-1.029022-16.421997-5.986176-41.247375-29.311371-69.230774-66.627076-86.305511-23.221252-10.625458-47.922821-14.531678-73.19049-15.530304-20.177704-.797455-39.839325 2.650116-58.884888 8.92517-19.924164 6.564545-37.822357 17.109589-54.153992 30.289338-12.727737 10.271392-22.814728 22.768707-30.90628 36.894317-.583466 1.018585-.096222 3.835236.739166 4.302063 10.53273 5.886109 21.221161 11.493683 32.254913 17.377808 1.04657-1.999878 1.970581-3.533569 2.682267-5.160095 12.319351-28.155487 33.372695-47.299317 62.181259-56.860047 28.913604-9.595489 58.337372-8.470154 87.382263.726807 18.070434 5.721924 33.561523 15.116272 44.379364 31.229736 8.204712 12.221131 11.01831 25.908753 11.097839 40.278443.1586 28.659423.102875 57.320068.097779 85.980224-.000245 1.320587-.37027 2.641113-.764191 5.270996-2.730286-3.852386-4.526672-6.608032-6.540405-9.194519-22.973267-29.507446-52.242463-47.802246-90.239869-50.361236-24.982055-1.682434-45.623718 5.609039-58.723938 29.446258m-149.491333 86.433228c-8.691833-16.893921-23.66542-23.740601-41.529312-24.32959-18.650512-.614868-32.386535 8.753784-42.022735 25.234741-5.838318-12.232056-8.122536-24.29602-8.237248-36.626831-.305317-32.819977-.29594-65.644806-.112457-98.466064.051765-9.259522.345879-18.648774 1.906757-27.741974 3.454476-20.124787 12.037415-37.508515 29.870507-49.03299 11.933441-7.711883 25.382675-10.024414 39.236183-10.600433 6.096191-.253479 12.21167-.042725 18.394653-.042725 0-10.021789 0-19.394714 0-28.851165-23.72409-1.000611-46.885651-.352265-69.231293 7.33789-13.583305 4.674652-25.94339 11.75766-36.002342 22.085358-19.193762 19.706634-27.271728 44.450897-28.079666 71.078735-1.08082 35.621399-.463127 71.304779-.047289 106.955414.144806 12.414551.964106 24.963928 3.058323 37.18042 3.378235 19.706726 11.702131 37.62677 26.152708 51.625 20.831657 20.179504 45.707642 27.429687 74.162582 19.390625 15.106087-4.267822 26.79699-12.651428 32.938958-27.834046 5.00328-12.367736 4.70607-24.515136-.458329-37.362365m94.985215-336.202896c10.312332 11.218002 22.821182 19.347686 36.594314 25.554702 24.668213 11.117035 50.914887 15.020722 77.648377 15.725129 20.565094.541961 40.703918-2.677094 60.278228-9.307373 22.98111-7.784211 42.799592-20.039811 56.608399-40.422989 10.414123-15.372345 14.229217-32.467881 10.605255-50.86995-3.241486-16.459793-12.819366-29.39151-23.939789-41.306633-.824554-.883499-3.761627-.893837-4.978912-.131744-7.192597 4.503044-14.18161 9.333061-21.207123 14.100197-2.681671 1.819626-5.278625 3.764068-9.405395 6.719589 2.428405 1.735352 4.253875 2.683624 5.629791 4.076096 23.573517 23.857681 16.138031 54.085434-6.837189 70.47789-16.020355 11.430221-34.259674 15.762054-53.42456 16.970703-20.750702 1.308624-41.156434-1.437195-61.254181-6.482849-5.148041-1.292466-10.111145-3.321473-15.159211-5.012085 1.826325-1.621094 3.39798-2.056824 4.987885-2.410492 18.095337-4.02536 30.990173-13.642563 36.069488-32.369446 5.222016-19.253021-1.765502-39.786011-18.035156-51.110336-8.508178-5.922013-18.054626-8.60466-28.337738-9.97435-33.419128-4.451287-60.060791 19.080246-61.918152 51.770965-.947967 16.684738 4.92041 30.948349 16.075669 44.002976z" fill="#fff"/><path d="m697.364075 457.741028c9.19989 18.976898 8.255615 36.707611-5.228333 52.948822-7.960693 9.588653-18.733215 14.346832-30.946777 15.122101-18.696961 1.186828-36.386109-2.647156-52.593506-12.407288-.532837-.320862-1.221741-.382507-2.259277-.689758-2.907654 7.107116-2.774536 14.426636-2.107056 21.572876 1.835449 19.652405 10.897827 35.428467 27.1427 46.698425 12.847412 8.912842 27.085694 14.768372 42.622864 17.0578 8.354431 1.231018 16.752136 2.581543 25.165893 2.882019 8.573365.306092 17.276001.022644 25.769715-1.127319 15.606628-2.113098 30.593994-6.427124 43.519287-16.042602 17.035767-12.67334 27.142883-29.492249 29.453247-50.630982.937073-8.574097 1.147705-17.261169 1.160339-25.897522.092041-62.99527.111084-125.990875-.065857-188.985748-.014404-5.109009 1.363465-6.573181 6.437378-6.392029 10.818726.386261 21.663269.245178 32.492127.044312 3.748352-.069489 5.268371.778289 5.261047 4.947296-.122497 69.49469.331543 138.99356-.315429 208.482483-.231507 24.85675-9.423645 46.92987-26.771241 65.417236-14.833862 15.808472-33.314697 24.828247-53.507019 31.445862-26.972229 8.839599-54.776245 9.460327-82.459289 7.323364-24.340699-1.878967-48.322144-6.94989-70.067322-19.374573-21.232056-12.131531-37.473694-28.706299-43.461182-52.777771-6.426208-25.835327-3.774536-51.118774 10.152527-74.472229 1.760681-2.952484 2.589966-5.409027.977173-8.758667-8.689392-18.047241-13.260254-37.010315-13.956848-57.156524-.868958-25.129548 2.880859-48.984925 15.836914-70.876648 11.682861-19.740418 28.395752-33.29657 51.074219-37.552552 19.458435-3.651672 38.518493-1.485077 55.038391 10.952301 20.497192 15.431855 24.712219 49.927033 4.14685 68.076355-6.992981 6.171418-15.379394 9.735047-24.672058 11.132264-17.878235 2.68811-33.666565-1.325684-46.545471-14.494172-2.494873-2.550964-4.487488-5.593139-6.785095-8.501556-9.233521 11.491638-10.48169 59.527496-3.872315 74.027283 5.744263-2.803314 11.354554-5.935303 17.260071-8.343109 13.310303-5.426789 27.352112-7.383271 41.447754-5.127015 13.167664 2.107666 23.751282 9.152008 30.655579 21.477265m-46.374512 1.747803c-11.880493 2.158477-21.683899 7.942779-29.707153 16.903991-2.116822 2.36435-3.248963 4.724732-.696472 7.402405 10.661865 11.184845 22.664672 19.281158 39.142456 18.410767 15.001709-.792389 24.398925-15.165375 18.827758-29.144532-3.375427-8.469482-13.381286-16.605712-27.566589-13.572631m28.104736-100.24759c2.646668-9.198608-.249328-16.825317-7.243225-22.76831-8.231262-6.994476-17.6781-8.089447-27.423462-3.53186-7.082153 3.312133-12.291931 8.643676-13.36438 16.779022-1.209899 9.176971 1.950074 16.54367 9.772156 21.902191 12.960877 8.878754 32.018738 4.285034 38.258911-12.381043z" fill="#cdb692"/><path d="m304.722168 475.828064c12.950012-23.491272 33.591675-30.782745 58.57373-29.100311 37.997406 2.55899 67.266602 20.85379 90.239869 50.361236 2.013733 2.586487 3.810119 5.342133 6.540405 9.194519.393921-2.629883.763946-3.950409.764191-5.270996.005096-28.660156.060821-57.320801-.097779-85.980224-.079529-14.36969-2.893127-28.057312-11.097839-40.278443-10.817841-16.113464-26.30893-25.507812-44.379364-31.229736-29.044891-9.196961-58.468659-10.322296-87.382263-.726807-28.808564 9.56073-49.861908 28.70456-62.181259 56.860047-.711686 1.626526-1.635697 3.160217-2.682267 5.160095-11.033752-5.884125-21.722183-11.491699-32.254913-17.377808-.835388-.466827-1.322632-3.283478-.739166-4.302063 8.091552-14.12561 18.178543-26.622925 30.90628-36.894317 16.331635-13.179749 34.229828-23.724793 54.153992-30.289338 19.045563-6.275054 38.707184-9.722625 58.884888-8.92517 25.267669.998626 49.969238 4.904846 73.19049 15.530304 37.315705 17.074737 60.6409 45.058136 66.627076 86.305511.78543 5.411896 1.023254 10.944672 1.029022 16.421997.068237 64.653015.045074 129.306152.042206 193.959229-.000306 6.756774-.011628 6.755676-6.874573 6.755615-10.664429-.000122-21.334076-.191651-31.990723.096741-4.304565.116516-5.27185-1.44751-5.305694-5.460755-.119202-14.140381.374023-28.388122-1.193421-42.390442-2.437713-21.77655-12.254028-40.973999-24.542511-58.803222-10.168823-14.753815-21.969024-28.048676-37.647613-37.332825-.839203-.496948-1.740387-.889252-3.280701-1.667999 7.4198 27.020782-.447571 47.480072-25.873077 58.486541-19.45456 8.421631-38.335877 4.150635-53.554932-10.458068-15.260834-14.648804-17.762024-32.736603-9.874054-52.643311m67.881012 25.0466c2.41748-9.767639-.086914-18.203735-7.474426-24.877166-7.468109-6.746338-16.37735-7.991486-25.636261-4.574006-10.969757 4.04889-16.975922 15.245514-15.294098 27.373505 1.402282 10.112183 11.367248 19.461121 21.75299 20.408142 12.069703 1.100586 22.65268-5.969238 26.651795-18.330475z" fill="#c67035"/><path d="m155.328156 562.898865c4.91687 12.555603 5.21408 24.703003.2108 37.070739-6.141968 15.182618-17.832871 23.566224-32.938958 27.834046-28.45494 8.039062-53.330925.788879-74.162582-19.390625-14.450577-13.99823-22.774473-31.918274-26.152708-51.625-2.094217-12.216492-2.913517-24.765869-3.058323-37.18042-.415838-35.650635-1.033531-71.334015.047289-106.955414.807938-26.627838 8.885904-51.372101 28.079666-71.078735 10.058952-10.327698 22.419037-17.410706 36.002342-22.085358 22.345642-7.690155 45.507203-8.338501 69.231293-7.33789v28.851165c-6.182983 0-12.298462-.210754-18.394653.042725-13.853508.576019-27.302742 2.88855-39.236183 10.600433-17.833092 11.524475-26.416031 28.908203-29.870507 49.03299-1.560878 9.0932-1.854992 18.482452-1.906757 27.741974-.183483 32.821258-.19286 65.646087.112457 98.466064.114712 12.330811 2.39893 24.394775 8.237248 36.626831 9.6362-16.480957 23.372223-25.849609 42.022735-25.234741 17.863892.588989 32.837479 7.435669 41.776841 24.621216m-19.412171 19.910583c-2.57933-15.1604-15.058853-22.470031-27.813209-20.82373-14.407654 1.859741-23.001618 12.898681-21.70195 24.026428 1.661323 14.224304 14.276176 21.931335 26.950592 21.076416 12.126411-.817932 21.859367-10.622253 22.564567-24.279114z" fill="#cdb692"/><path d="m249.828278 226.139282c-10.917695-12.789566-16.786072-27.053177-15.838105-43.737915 1.857361-32.690719 28.499024-56.222252 61.918152-51.770965 10.283112 1.36969 19.82956 4.052337 28.337738 9.97435 16.269654 11.324325 23.257172 31.857315 18.035156 51.110336-5.079315 18.726883-17.974151 28.344086-36.069488 32.369446-1.589905.353668-3.16156.789398-4.987885 2.410492 5.048066 1.690612 10.01117 3.719619 15.159211 5.012085 20.097747 5.045654 40.503479 7.791473 61.254181 6.482849 19.164886-1.208649 37.404205-5.540482 53.42456-16.970703 22.97522-16.392456 30.410706-46.620209 6.837189-70.47789-1.375916-1.392472-3.201386-2.340744-5.629791-4.076096 4.12677-2.955521 6.723724-4.899963 9.405395-6.719589 7.025513-4.767136 14.014526-9.597153 21.207123-14.100197 1.217285-.762093 4.154358-.751755 4.978912.131744 11.120423 11.915123 20.698303 24.84684 23.939789 41.306633 3.623962 18.402069-.191132 35.497605-10.605255 50.86995-13.808807 20.383178-33.627289 32.638778-56.608399 40.422989-19.57431 6.630279-39.713134 9.849334-60.278228 9.307373-26.73349-.704407-52.980164-4.608094-77.648377-15.725129-13.773132-6.207016-26.281982-14.3367-36.831878-25.819763m27.69931-29.128418c10.177429 8.142121 21.751373 8.299927 31.903747.435028 8.890992-6.887741 11.72641-18.870849 6.988923-29.536941-4.58014-10.311768-16.385071-16.33374-28.17688-13.720322-9.34021 2.070084-15.375763 8.294632-18.205689 17.361832-3.036194 9.72818.08429 17.917251 7.489899 25.460403z" fill="#cdb692"/><path d="m303.506927 73.442108c-12.247497 6.268112-24.788665 7.628052-37.365875 1.342362-17.37381-8.682869-22.097519-30.260456-10.323669-45.913208 6.834045-9.085553 16.164001-14.251645 27.064178-16.452368 13.614136-2.748671 27.313416-2.585043 40.25589 2.805555 22.697235 9.453497 32.384979 36.35957 14.462952 58.081307-3.582581 4.342109-7.844788 8.124748-11.811554 12.147667-.978668.992523-2.02771 1.915702-4.12851 3.889183 8.273346 0 15.155976.553932 21.924225-.091614 38.476807-3.669846 68.315155-22.197373 90.365753-53.595783 2.495209-3.553006 4.57779-4.578602 8.867157-2.885395 12.653901 4.995014 25.518952 9.454925 38.297486 14.134864.726135.265938 1.417419.626934 3.434234 1.529869-5.166687 5.956635-9.516601 11.758992-14.652771 16.752594-19.154419 18.622803-42.52008 29.860688-67.705291 37.789254-25.540223 8.040329-51.656647 12.226631-78.447876 12.903495-20.227173.511033-40.204468-.865173-59.983277-5.075393-2.048309-.436028-4.026184-1.203018-7.363495-2.221215 20.193299-6.785057 38.026764-14.708183 48.456421-34.005645-.277679-.794396-.811828-.964958-1.345978-1.135529m-.880096-17.34211c5.794006-7.144813 5.869476-14.119003.229584-21.217632-4.527069-5.697967-13.575196-7.736704-20.46463-4.369999-6.090607 2.976357-10.201416 7.713909-10.219574 14.751618-.016938 6.578132 3.439514 11.30048 9.446106 14.059028 7.386261 3.39214 14.193878 2.278122 21.008514-3.223015z" fill="#030303"/><path d="m651.385132 459.37262c13.789734-2.91687 23.795593 5.21936 27.17102 13.688842 5.571167 13.979157-3.826049 28.352143-18.827758 29.144532-16.477784.870391-28.480591-7.225922-39.142456-18.410767-2.552491-2.677673-1.42035-5.038055.696472-7.402405 8.023254-8.961212 17.82666-14.745514 30.102722-17.020202z" fill="#fefefe"/><path d="m678.984131 359.628174c-6.130005 16.279144-25.187866 20.872864-38.148743 11.99411-7.822082-5.358521-10.982055-12.72522-9.772156-21.902191 1.072449-8.135346 6.282227-13.466889 13.36438-16.779022 9.745362-4.557587 19.1922-3.462616 27.423462 3.53186 6.993897 5.942993 9.889893 13.569702 7.133057 23.155243z" fill="#fefefe"/><path d="m372.449097 501.24057c-3.845032 11.995331-14.428009 19.065155-26.497712 17.964569-10.385742-.947021-20.350708-10.295959-21.75299-20.408142-1.681824-12.127991 4.324341-23.324615 15.294098-27.373505 9.258911-3.41748 18.168152-2.172332 25.636261 4.574006 7.387512 6.673431 9.891906 15.109527 7.320343 25.243072z" fill="#fefefd"/><path d="m135.947205 583.232056c-.73642 13.234253-10.469376 23.038574-22.595787 23.856506-12.674416.854919-25.289269-6.852112-26.950592-21.076416-1.299668-11.127747 7.294296-22.166687 21.70195-24.026428 12.754356-1.646301 25.233879 5.66333 27.844429 21.246338z" fill="#fff"/><path d="m277.264038 196.766434c-7.142059-7.298722-10.262543-15.487793-7.226349-25.215973 2.829926-9.0672 8.865479-15.291748 18.205689-17.361832 11.791809-2.613418 23.59674 3.408554 28.17688 13.720322 4.737487 10.666092 1.902069 22.6492-6.988923 29.536941-10.152374 7.864899-21.726318 7.707093-32.167297-.679458z" fill="#fefefe"/><path d="m302.366455 56.365044c-6.55426 5.236091-13.361877 6.350109-20.748138 2.957969-6.006592-2.758548-9.463044-7.480896-9.446106-14.059028.018158-7.037709 4.128967-11.775261 10.219574-14.751618 6.889434-3.366705 15.937561-1.327968 20.46463 4.369999 5.639892 7.098629 5.564422 14.072819-.48996 21.482678z" fill="#fafafa"/><path d="m303.802124 73.72113c.238953-.108451.773102.062111 1.117981.510079-.400452.107925-.611633-.061562-1.117981-.510079z" fill="#fff"/></svg>