<svg version="1.1" id="Layer_1" xmlns="http://www.w3.org/2000/svg" xmlns:xlink="http://www.w3.org/1999/xlink" x="0px" y="0px"
	 width="100%" viewBox="0 0 712 462" enable-background="new 0 0 712 462" xml:space="preserve">
<path fill="#FEFEFE" opacity="1.000000" stroke="none" 
	d="
M399.000000,463.000000 
	C266.000031,463.000000 133.500031,463.000000 1.000036,463.000000 
	C1.000024,309.000031 1.000024,155.000061 1.000012,1.000077 
	C238.333267,1.000051 475.666534,1.000051 712.999878,1.000026 
	C712.999878,154.999924 712.999878,308.999847 712.999939,462.999878 
	C608.500000,463.000000 504.000000,463.000000 399.000000,463.000000 
M695.178040,426.500000 
	C695.178040,378.669861 695.229675,330.839630 695.123230,283.009735 
	C695.106934,275.705658 694.663391,268.370483 693.880371,261.107544 
	C692.618103,249.398758 685.440430,240.761383 674.755737,240.200424 
	C659.009399,239.373718 643.160889,239.456024 627.406311,240.207886 
	C617.685669,240.671814 611.394714,247.376907 609.676758,257.593018 
	C608.469421,264.772461 607.931152,272.141174 607.900146,279.428802 
	C607.734375,318.426361 607.495300,357.428833 607.956970,396.421631 
	C608.195190,416.537964 589.171387,437.095886 568.694702,435.630280 
	C556.922180,434.787659 545.039917,435.513763 533.207275,435.466339 
	C523.216064,435.426300 513.200317,435.697662 503.240936,435.088196 
	C491.649750,434.378815 483.042572,427.236298 482.083344,415.756714 
	C480.800964,400.409271 481.091522,384.906952 481.270386,369.477692 
	C481.313965,365.719696 482.986328,361.661743 484.899384,358.305817 
	C489.995361,349.366272 498.660400,347.029816 508.248291,347.015106 
	C524.747559,346.989838 541.246826,347.013275 557.746094,346.998627 
	C559.186829,346.997375 560.627441,346.865875 561.845703,346.805847 
	C561.845703,342.310638 561.845703,338.239136 561.845703,333.992096 
	C560.031250,333.992096 558.547913,333.992126 557.064575,333.992096 
	C540.398621,333.992004 523.731934,334.093353 507.067047,333.961151 
	C492.573639,333.846191 483.507904,327.759155 481.986267,313.711914 
	C480.427673,299.323883 480.976898,284.510223 482.425629,270.065582 
	C483.338379,260.965088 490.265106,254.904968 499.758759,253.117386 
	C503.004944,252.506149 506.359070,252.235260 509.665955,252.218323 
	C526.625793,252.131454 543.586304,252.178116 560.610718,252.178116 
	C560.610718,247.647476 560.610718,243.462418 560.610718,239.158127 
	C528.723267,239.158127 497.231964,239.024323 465.742828,239.225677 
	C453.586182,239.303406 442.006256,242.157639 432.093109,249.647049 
	C414.848694,262.675232 405.241119,280.834259 398.910797,300.876251 
	C390.533325,327.399597 391.901093,354.396759 396.501434,381.331482 
	C399.495422,398.861267 403.951569,415.998962 414.417816,430.892426 
	C424.029785,444.570129 437.210022,450.316711 453.750977,448.961975 
	C453.750977,444.339630 453.750977,440.090881 453.750977,435.478607 
	C446.468506,435.778809 438.962555,435.913361 433.881073,430.512848 
	C428.737671,425.046509 423.590515,418.929047 420.672791,412.139465 
	C409.569214,386.301331 405.030670,359.068817 407.190704,331.001190 
	C409.036285,307.020020 416.475464,284.889130 432.861237,266.715332 
	C440.604980,258.126587 450.522217,252.962891 464.026947,252.642456 
	C447.382141,265.132446 444.087067,281.436340 445.305939,299.828552 
	C446.607910,319.473999 457.604309,331.757019 474.557465,340.248871 
	C462.095734,347.219696 455.649841,352.504181 451.564117,359.878662 
	C442.642242,375.981995 443.744171,393.344269 446.922058,410.385162 
	C450.688660,430.583252 474.019165,447.332550 494.950012,448.264252 
	C522.385254,449.485535 549.902527,448.874786 577.384705,449.013428 
	C579.369385,449.023438 581.392883,448.910278 583.335388,448.531494 
	C603.166992,444.664398 620.309570,424.981384 620.800964,403.721375 
	C621.486145,374.074188 621.079041,344.402222 621.189026,314.741028 
	C621.239075,301.250122 620.884827,287.729889 621.649902,274.276184 
	C622.713257,255.577988 626.767578,251.000122 644.229065,252.126602 
	C651.254883,252.579849 655.225159,254.740967 656.867371,261.727783 
	C658.403809,268.264893 659.344788,275.100739 659.368958,281.809357 
	C659.562988,335.639587 659.477478,389.470795 659.477539,443.301727 
	C659.477539,445.101929 659.477539,446.902130 659.477539,448.824524 
	C671.633728,448.824524 683.336121,448.824524 695.178040,448.824524 
	C695.178040,441.481049 695.178040,434.490509 695.178040,426.500000 
M265.656921,252.173401 
	C271.779205,252.751389 277.974518,252.920013 284.007782,253.996826 
	C294.893768,255.939804 301.054413,262.211334 302.835968,273.161224 
	C303.846619,279.373230 304.407471,285.728638 304.422913,292.021301 
	C304.546753,342.514374 304.492188,393.007904 304.492188,443.501282 
	C304.492188,445.294922 304.492188,447.088531 304.492188,448.892059 
	C316.578918,448.892059 328.155426,448.892059 340.004364,448.892059 
	C340.004364,446.806366 340.004364,444.998993 340.004364,443.191589 
	C340.004364,399.697266 340.004761,356.202972 340.003967,312.708649 
	C340.003845,304.543060 340.053467,296.377014 339.982605,288.212036 
	C339.890656,277.614014 337.095856,267.928101 330.553406,259.363983 
	C319.436340,244.811630 304.497437,238.958694 286.587952,239.122543 
	C267.592041,239.296341 248.593292,239.161606 229.595779,239.161606 
	C227.998993,239.161606 226.402191,239.161606 224.822891,239.161606 
	C224.822891,243.813065 224.822891,247.869904 224.822891,252.447800 
	C240.967590,249.972351 249.825134,259.277466 256.002472,271.826691 
	C267.500671,295.185181 272.856384,320.118347 272.922485,346.097443 
	C272.980682,368.963043 269.521393,391.274933 259.554108,412.094391 
	C254.085907,423.516266 246.103577,432.714661 232.341064,433.528168 
	C220.639633,434.219849 210.651199,429.570374 202.109741,421.628601 
	C193.565781,413.684540 187.383942,404.077637 182.110855,393.798370 
	C181.044312,391.719269 179.908768,389.675568 178.595276,387.224030 
	C173.703354,394.868713 169.700150,402.249847 164.608063,408.782196 
	C158.919785,416.079346 152.880798,423.359161 145.858231,429.304413 
	C133.055710,440.142853 115.982574,438.446594 105.688446,425.224426 
	C101.018288,419.225922 97.735580,411.778534 95.279243,404.497314 
	C89.022171,385.949768 88.652092,366.526672 88.642059,347.187317 
	C88.628098,320.283478 93.273148,294.187195 103.686462,269.296814 
	C108.020966,258.936249 114.047272,250.307739 127.487122,252.281052 
	C127.487122,247.677261 127.487122,243.470840 127.487122,239.170212 
	C113.976700,239.170212 100.815559,239.034897 87.658333,239.203766 
	C70.422028,239.424988 55.882633,245.893967 44.549488,258.963104 
	C31.638317,273.851929 23.289576,291.127289 19.130167,310.325958 
	C13.761908,335.104431 15.323087,360.033020 18.531145,384.891998 
	C20.431664,399.618988 23.509531,414.087524 30.859417,427.290222 
	C39.587013,442.967712 53.395374,450.668030 69.809418,448.740204 
	C69.809418,444.500031 69.809418,440.235535 69.809418,435.992004 
	C49.635460,432.888367 43.752949,428.765350 37.619549,408.818481 
	C33.889465,396.687592 31.886284,383.850372 30.607065,371.179047 
	C28.223310,347.566772 28.061543,323.929413 36.110264,301.053345 
	C42.247955,283.608826 50.762112,267.857666 67.194496,257.788513 
	C73.981003,253.630005 84.888733,251.358780 91.258278,252.940460 
	C90.546707,253.722443 89.901268,254.477539 89.208473,255.186356 
	C74.070091,270.674652 65.341278,289.430084 61.065643,310.445099 
	C56.564518,332.568420 56.869183,354.825439 59.680202,377.076538 
	C61.954662,395.080444 66.884911,412.095093 77.793472,427.173798 
	C95.176979,451.202728 141.161697,460.764893 164.780807,431.700439 
	C167.131287,428.808105 169.625473,426.032562 172.324280,422.886505 
	C181.486496,438.011719 194.661118,446.156281 211.397736,448.651184 
	C232.790329,451.840057 251.991165,448.189880 266.098572,430.067749 
	C273.914246,420.027863 278.246490,408.337891 280.939178,396.020325 
	C286.469238,370.723541 287.120422,345.157745 284.681671,319.482635 
	C282.758972,299.240051 278.227539,279.721619 267.091370,262.296082 
	C264.986938,259.003113 262.510742,255.947693 259.762451,252.173401 
	C261.909424,252.173401 263.348938,252.173401 265.656921,252.173401 
M248.460571,132.967072 
	C269.757843,93.531776 291.055115,54.096489 312.579041,14.241539 
	C308.248474,13.418567 304.599670,12.981926 301.106873,11.993827 
	C297.096130,10.859198 294.982758,12.195098 292.821655,15.725699 
	C256.866089,74.465744 220.782913,133.127823 184.588989,191.721283 
	C183.042435,194.224945 180.405548,196.319901 177.831909,197.864105 
	C173.666458,200.363403 169.131622,202.247086 163.719833,204.896378 
	C176.557907,211.032806 188.283203,216.637329 200.214127,222.340149 
	C216.365601,192.408905 232.229965,163.009735 248.460571,132.967072 
z"/>
<path fill="#050505" opacity="1.000000" stroke="none" 
	d="
M695.178040,427.000000 
	C695.178040,434.490509 695.178040,441.481049 695.178040,448.824524 
	C683.336121,448.824524 671.633728,448.824524 659.477539,448.824524 
	C659.477539,446.902130 659.477539,445.101929 659.477539,443.301727 
	C659.477478,389.470795 659.562988,335.639587 659.368958,281.809357 
	C659.344788,275.100739 658.403809,268.264893 656.867371,261.727783 
	C655.225159,254.740967 651.254883,252.579849 644.229065,252.126602 
	C626.767578,251.000122 622.713257,255.577988 621.649902,274.276184 
	C620.884827,287.729889 621.239075,301.250122 621.189026,314.741028 
	C621.079041,344.402222 621.486145,374.074188 620.800964,403.721375 
	C620.309570,424.981384 603.166992,444.664398 583.335388,448.531494 
	C581.392883,448.910278 579.369385,449.023438 577.384705,449.013428 
	C549.902527,448.874786 522.385254,449.485535 494.950012,448.264252 
	C474.019165,447.332550 450.688660,430.583252 446.922058,410.385162 
	C443.744171,393.344269 442.642242,375.981995 451.564117,359.878662 
	C455.649841,352.504181 462.095734,347.219696 474.557465,340.248871 
	C457.604309,331.757019 446.607910,319.473999 445.305939,299.828552 
	C444.087067,281.436340 447.382141,265.132446 464.026947,252.642456 
	C450.522217,252.962891 440.604980,258.126587 432.861237,266.715332 
	C416.475464,284.889130 409.036285,307.020020 407.190704,331.001190 
	C405.030670,359.068817 409.569214,386.301331 420.672791,412.139465 
	C423.590515,418.929047 428.737671,425.046509 433.881073,430.512848 
	C438.962555,435.913361 446.468506,435.778809 453.750977,435.478607 
	C453.750977,440.090881 453.750977,444.339630 453.750977,448.961975 
	C437.210022,450.316711 424.029785,444.570129 414.417816,430.892426 
	C403.951569,415.998962 399.495422,398.861267 396.501434,381.331482 
	C391.901093,354.396759 390.533325,327.399597 398.910797,300.876251 
	C405.241119,280.834259 414.848694,262.675232 432.093109,249.647049 
	C442.006256,242.157639 453.586182,239.303406 465.742828,239.225677 
	C497.231964,239.024323 528.723267,239.158127 560.610718,239.158127 
	C560.610718,243.462418 560.610718,247.647476 560.610718,252.178116 
	C543.586304,252.178116 526.625793,252.131454 509.665955,252.218323 
	C506.359070,252.235260 503.004944,252.506149 499.758759,253.117386 
	C490.265106,254.904968 483.338379,260.965088 482.425629,270.065582 
	C480.976898,284.510223 480.427673,299.323883 481.986267,313.711914 
	C483.507904,327.759155 492.573639,333.846191 507.067047,333.961151 
	C523.731934,334.093353 540.398621,333.992004 557.064575,333.992096 
	C558.547913,333.992126 560.031250,333.992096 561.845703,333.992096 
	C561.845703,338.239136 561.845703,342.310638 561.845703,346.805847 
	C560.627441,346.865875 559.186829,346.997375 557.746094,346.998627 
	C541.246826,347.013275 524.747559,346.989838 508.248291,347.015106 
	C498.660400,347.029816 489.995361,349.366272 484.899384,358.305817 
	C482.986328,361.661743 481.313965,365.719696 481.270386,369.477692 
	C481.091522,384.906952 480.800964,400.409271 482.083344,415.756714 
	C483.042572,427.236298 491.649750,434.378815 503.240936,435.088196 
	C513.200317,435.697662 523.216064,435.426300 533.207275,435.466339 
	C545.039917,435.513763 556.922180,434.787659 568.694702,435.630280 
	C589.171387,437.095886 608.195190,416.537964 607.956970,396.421631 
	C607.495300,357.428833 607.734375,318.426361 607.900146,279.428802 
	C607.931152,272.141174 608.469421,264.772461 609.676758,257.593018 
	C611.394714,247.376907 617.685669,240.671814 627.406311,240.207886 
	C643.160889,239.456024 659.009399,239.373718 674.755737,240.200424 
	C685.440430,240.761383 692.618103,249.398758 693.880371,261.107544 
	C694.663391,268.370483 695.106934,275.705658 695.123230,283.009735 
	C695.229675,330.839630 695.178040,378.669861 695.178040,427.000000 
z"/>
<path fill="#030303" opacity="1.000000" stroke="none" 
	d="
M265.222687,252.173401 
	C263.348938,252.173401 261.909424,252.173401 259.762451,252.173401 
	C262.510742,255.947693 264.986938,259.003113 267.091370,262.296082 
	C278.227539,279.721619 282.758972,299.240051 284.681671,319.482635 
	C287.120422,345.157745 286.469238,370.723541 280.939178,396.020325 
	C278.246490,408.337891 273.914246,420.027863 266.098572,430.067749 
	C251.991165,448.189880 232.790329,451.840057 211.397736,448.651184 
	C194.661118,446.156281 181.486496,438.011719 172.324280,422.886505 
	C169.625473,426.032562 167.131287,428.808105 164.780807,431.700439 
	C141.161697,460.764893 95.176979,451.202728 77.793472,427.173798 
	C66.884911,412.095093 61.954662,395.080444 59.680202,377.076538 
	C56.869183,354.825439 56.564518,332.568420 61.065643,310.445099 
	C65.341278,289.430084 74.070091,270.674652 89.208473,255.186356 
	C89.901268,254.477539 90.546707,253.722443 91.258278,252.940460 
	C84.888733,251.358780 73.981003,253.630005 67.194496,257.788513 
	C50.762112,267.857666 42.247955,283.608826 36.110264,301.053345 
	C28.061543,323.929413 28.223310,347.566772 30.607065,371.179047 
	C31.886284,383.850372 33.889465,396.687592 37.619549,408.818481 
	C43.752949,428.765350 49.635460,432.888367 69.809418,435.992004 
	C69.809418,440.235535 69.809418,444.500031 69.809418,448.740204 
	C53.395374,450.668030 39.587013,442.967712 30.859417,427.290222 
	C23.509531,414.087524 20.431664,399.618988 18.531145,384.891998 
	C15.323087,360.033020 13.761908,335.104431 19.130167,310.325958 
	C23.289576,291.127289 31.638317,273.851929 44.549488,258.963104 
	C55.882633,245.893967 70.422028,239.424988 87.658333,239.203766 
	C100.815559,239.034897 113.976700,239.170212 127.487122,239.170212 
	C127.487122,243.470840 127.487122,247.677261 127.487122,252.281052 
	C114.047272,250.307739 108.020966,258.936249 103.686462,269.296814 
	C93.273148,294.187195 88.628098,320.283478 88.642059,347.187317 
	C88.652092,366.526672 89.022171,385.949768 95.279243,404.497314 
	C97.735580,411.778534 101.018288,419.225922 105.688446,425.224426 
	C115.982574,438.446594 133.055710,440.142853 145.858231,429.304413 
	C152.880798,423.359161 158.919785,416.079346 164.608063,408.782196 
	C169.700150,402.249847 173.703354,394.868713 178.595276,387.224030 
	C179.908768,389.675568 181.044312,391.719269 182.110855,393.798370 
	C187.383942,404.077637 193.565781,413.684540 202.109741,421.628601 
	C210.651199,429.570374 220.639633,434.219849 232.341064,433.528168 
	C246.103577,432.714661 254.085907,423.516266 259.554108,412.094391 
	C269.521393,391.274933 272.980682,368.963043 272.922485,346.097443 
	C272.856384,320.118347 267.500671,295.185181 256.002472,271.826691 
	C249.825134,259.277466 240.967590,249.972351 224.822891,252.447800 
	C224.822891,247.869904 224.822891,243.813065 224.822891,239.161606 
	C226.402191,239.161606 227.998993,239.161606 229.595779,239.161606 
	C248.593292,239.161606 267.592041,239.296341 286.587952,239.122543 
	C304.497437,238.958694 319.436340,244.811630 330.553406,259.363983 
	C337.095856,267.928101 339.890656,277.614014 339.982605,288.212036 
	C340.053467,296.377014 340.003845,304.543060 340.003967,312.708649 
	C340.004761,356.202972 340.004364,399.697266 340.004364,443.191589 
	C340.004364,444.998993 340.004364,446.806366 340.004364,448.892059 
	C328.155426,448.892059 316.578918,448.892059 304.492188,448.892059 
	C304.492188,447.088531 304.492188,445.294922 304.492188,443.501282 
	C304.492188,393.007904 304.546753,342.514374 304.422913,292.021301 
	C304.407471,285.728638 303.846619,279.373230 302.835968,273.161224 
	C301.054413,262.211334 294.893768,255.939804 284.007782,253.996826 
	C277.974518,252.920013 271.779205,252.751389 265.222687,252.173401 
z"/>
<path fill="#C67035" opacity="1.000000" stroke="none" 
	d="
M248.277451,133.288818 
	C232.229965,163.009735 216.365601,192.408905 200.214127,222.340149 
	C188.283203,216.637329 176.557907,211.032806 163.719833,204.896378 
	C169.131622,202.247086 173.666458,200.363403 177.831909,197.864105 
	C180.405548,196.319901 183.042435,194.224945 184.588989,191.721283 
	C220.782913,133.127823 256.866089,74.465744 292.821655,15.725699 
	C294.982758,12.195098 297.096130,10.859198 301.106873,11.993827 
	C304.599670,12.981926 308.248474,13.418567 312.579041,14.241539 
	C291.055115,54.096489 269.757843,93.531776 248.277451,133.288818 
z"/>
</svg>