<svg version="1.1" id="Layer_1" xmlns="http://www.w3.org/2000/svg" xmlns:xlink="http://www.w3.org/1999/xlink" x="0px" y="0px"
	 width="100%" viewBox="0 0 2808 584" enable-background="new 0 0 2808 584" xml:space="preserve">
<path fill="#FFFFFF" opacity="1.000000" stroke="none" 
	d="
M2810.000000,772.000000 
	C2810.000000,1043.969238 2810.000000,1314.938354 2810.000000,1585.953857 
	C1874.137329,1585.953857 938.274536,1585.953857 2.205901,1585.953857 
	C2.205901,1058.197388 2.205901,530.394653 2.205901,2.295971 
	C937.999939,2.295971 1874.000000,2.295971 2810.000000,2.295971 
	C2810.000000,258.392395 2810.000000,514.696228 2810.000000,772.000000 
M2718.295166,186.385895 
	C2734.305176,169.064178 2750.823730,152.176483 2766.121094,134.246918 
	C2774.406006,124.536217 2781.691650,113.607613 2787.546875,102.258026 
	C2804.725830,68.959633 2787.146484,33.261333 2757.137695,22.722073 
	C2738.929443,16.327358 2720.555176,15.819942 2702.881836,24.585850 
	C2691.799805,30.082375 2683.790771,39.075573 2677.596924,49.735840 
	C2669.576660,63.539124 2669.580078,78.479660 2669.750977,93.140808 
	C2675.301025,93.140808 2679.420654,93.140808 2683.913330,93.140808 
	C2683.009277,75.154602 2688.148438,60.144779 2701.687988,49.069332 
	C2717.210205,36.371826 2737.465332,34.763039 2750.506348,55.373051 
	C2754.637207,61.901428 2755.897461,70.426811 2757.682129,78.219048 
	C2760.733398,91.539696 2754.794678,103.513695 2748.837158,114.249977 
	C2730.281250,147.689072 2707.217285,177.975235 2680.332520,205.282181 
	C2676.863281,208.805649 2674.164551,213.106964 2670.590820,216.502594 
	C2667.366455,219.566284 2667.624023,222.743973 2668.742188,226.864090 
	C2671.459717,227.387482 2674.344238,228.416153 2677.231201,228.422989 
	C2697.220215,228.470306 2717.225342,228.713120 2737.191162,227.977921 
	C2743.833740,227.733322 2750.916504,225.885742 2756.871826,222.914520 
	C2781.339355,210.706848 2793.174561,190.048477 2794.172119,163.098618 
	C2794.664795,149.787933 2794.378906,136.446442 2794.314453,123.119484 
	C2794.306152,121.443665 2793.498535,119.771721 2792.764648,116.962082 
	C2785.183105,125.669441 2777.982910,132.880936 2780.092041,144.599731 
	C2780.673096,147.827148 2779.860352,151.284286 2780.236084,154.573364 
	C2781.705322,167.437042 2775.080811,176.681259 2766.296875,184.472565 
	C2761.571045,188.664307 2756.209473,192.555511 2748.966309,192.248291 
	C2738.661377,191.811203 2728.332764,191.944458 2718.001953,190.429688 
	C2717.946045,189.495590 2717.890137,188.561493 2718.295166,186.385895 
M1759.932007,187.810867 
	C1772.839111,173.952972 1785.921143,160.252792 1798.604736,146.193222 
	C1811.531006,131.864777 1822.975830,116.451309 1831.456787,98.965996 
	C1841.286865,78.698959 1836.135620,52.364445 1820.521484,36.047394 
	C1801.715210,16.394934 1770.744385,13.861740 1748.338013,22.876297 
	C1735.891846,27.883575 1727.360107,37.239841 1720.368286,48.576473 
	C1711.704712,62.623810 1710.940430,77.549034 1712.484985,93.375610 
	C1717.171265,93.375610 1720.995850,93.375610 1725.289062,93.375610 
	C1725.560303,90.545242 1725.909058,88.294022 1725.971069,86.034935 
	C1726.388916,70.796387 1732.931519,58.360653 1744.276489,48.718937 
	C1762.619751,33.129601 1785.488647,39.140671 1794.125244,58.386993 
	C1797.426514,65.743484 1798.972046,74.222290 1799.683594,82.332985 
	C1800.957397,96.851173 1794.076782,109.437538 1787.195190,121.429222 
	C1773.481445,145.326965 1756.747314,167.105499 1738.025513,187.338913 
	C1729.902588,196.117569 1721.727417,204.851898 1713.789307,213.795502 
	C1711.129761,216.792038 1709.001343,220.500198 1710.939575,224.712219 
	C1712.849365,228.862503 1716.956787,228.256622 1720.571533,228.256058 
	C1740.222778,228.252975 1759.875122,228.291428 1779.524292,228.066574 
	C1783.442139,228.021744 1787.442383,227.242798 1791.243408,226.209641 
	C1815.527832,219.608810 1834.925537,193.928726 1836.005493,167.460754 
	C1836.602417,152.829086 1836.202393,138.154465 1836.108398,123.500153 
	C1836.098022,121.882278 1835.143066,120.270477 1834.322632,117.707199 
	C1832.595093,120.013191 1831.846191,121.582794 1830.622070,122.553162 
	C1823.398193,128.279663 1821.139038,135.765076 1822.025879,144.678757 
	C1822.419678,148.636322 1822.112549,152.666183 1822.082642,156.662903 
	C1821.938477,175.958679 1806.111206,191.979233 1786.981079,192.079468 
	C1777.991455,192.126572 1769.000610,191.947067 1759.826172,190.449600 
	C1759.725342,189.982819 1759.624634,189.516052 1759.932007,187.810867 
M82.571175,34.674267 
	C82.662468,35.379318 82.753761,36.084366 82.040359,37.839977 
	C72.389397,44.895317 69.519096,54.817139 69.933800,66.195969 
	C70.152191,72.188179 70.180656,78.187912 70.250710,84.184769 
	C70.349075,92.604820 72.825500,99.722244 79.681084,105.359131 
	C84.894226,109.645554 89.293594,114.921692 94.419975,120.128113 
	C88.892914,125.388573 82.802353,130.285095 77.894890,136.168472 
	C74.550934,140.177429 71.370781,145.380722 70.748238,150.377731 
	C69.522003,160.220444 70.163658,170.291855 69.959923,180.267197 
	C69.796928,188.247543 71.541466,195.673370 75.790154,202.508179 
	C84.186974,216.016022 96.348480,226.313217 111.692177,227.278168 
	C142.221146,229.198105 172.940277,228.573654 203.566269,228.085602 
	C210.071609,227.981934 217.327957,225.187668 222.832672,221.522125 
	C238.871872,210.841721 245.912918,194.807007 245.998276,175.830688 
	C246.172180,137.169189 245.971115,98.506035 246.134613,59.844452 
	C246.159744,53.903259 246.797882,47.856979 248.059479,42.056568 
	C249.559448,35.160248 253.223831,32.397274 259.817749,31.951149 
	C263.135559,31.726679 266.482056,31.962849 269.813568,31.893991 
	C273.054230,31.827011 275.088013,33.227890 277.244812,35.803516 
	C282.643982,42.251133 283.985809,49.592697 283.977020,57.616932 
	C283.918762,110.944145 283.948334,164.271454 283.949310,217.598724 
	C283.949371,221.134735 283.949341,224.670761 283.949341,228.193527 
	C296.484772,228.193527 307.707764,228.193527 319.442780,228.193527 
	C319.609650,225.843277 319.864471,223.922348 319.865204,222.001343 
	C319.886047,166.341003 319.949249,110.680466 319.786407,55.020603 
	C319.768158,48.782490 318.991913,42.422726 317.595215,36.342659 
	C315.680847,28.009117 310.051331,21.785122 301.746735,20.408531 
	C284.352112,17.525146 266.659302,16.872017 249.296356,20.427731 
	C242.475098,21.824640 236.755661,25.652763 234.132416,33.861717 
	C232.541504,38.840179 232.639252,43.247070 232.629318,48.030003 
	C232.542831,89.686836 232.435272,131.343704 232.249054,173.000168 
	C232.223068,178.815506 231.343246,184.182495 229.047989,189.993210 
	C222.983459,205.346191 212.524109,214.125092 196.487244,214.691208 
	C174.517838,215.466736 152.494797,215.151901 130.504578,214.757141 
	C116.116379,214.498840 107.150299,206.710083 106.146996,192.412918 
	C105.101280,177.511444 105.272469,162.442856 106.133430,147.517822 
	C106.714119,137.451447 112.968010,130.469345 123.066154,127.969276 
	C127.215279,126.942062 131.599747,126.508812 135.885361,126.454620 
	C150.214783,126.273438 164.548019,126.415436 178.879501,126.357697 
	C181.417618,126.347473 183.954269,125.973206 186.165298,125.793556 
	C186.165298,121.436996 186.165298,117.884300 186.165298,113.614326 
	C169.753906,113.614326 153.824936,113.658081 137.896484,113.583565 
	C133.912613,113.564934 129.870148,113.527008 125.958931,112.873543 
	C114.212494,110.911011 106.705070,103.474304 106.005920,91.669357 
	C105.279205,79.399330 105.151627,67.007874 105.990204,54.753567 
	C106.966064,40.493011 115.879311,32.432514 130.241684,32.039211 
	C145.228928,31.628799 160.235107,31.909292 175.233017,31.889593 
	C178.483231,31.885323 181.733459,31.888969 185.396820,31.888969 
	C185.396820,27.104958 185.396820,23.299593 185.396820,19.458582 
	C184.016006,19.080292 183.082077,18.601955 182.147446,18.600620 
	C151.817993,18.557337 121.485672,18.309099 91.160004,18.648058 
	C72.380562,18.857962 55.552139,24.668427 43.545345,39.995235 
	C28.813505,58.800610 19.380856,79.725594 18.264389,104.143585 
	C17.218773,127.012024 17.990559,149.741928 22.357975,172.163101 
	C24.898390,185.204926 29.532412,197.643188 36.869423,209.113953 
	C46.649250,224.403839 59.854256,230.762405 77.625748,227.901245 
	C77.625748,223.529877 77.625748,219.461166 77.625748,214.538528 
	C64.186020,217.111313 56.256012,209.750107 49.635666,200.582092 
	C47.019184,196.958725 45.377975,192.552505 43.706562,188.338593 
	C35.437206,167.490219 31.661339,145.775665 31.452740,123.386017 
	C31.259012,102.592682 34.695435,82.531128 44.714283,64.140633 
	C52.981972,48.964542 63.530247,35.979412 82.571175,34.674267 
M1274.177856,539.590942 
	C1270.153320,540.716492 1266.128662,541.841980 1262.104126,542.967529 
	C1262.655273,540.003479 1263.836060,538.545959 1265.326050,537.552185 
	C1272.804321,532.564331 1280.695190,528.135437 1287.840698,522.718079 
	C1336.108765,486.123779 1363.208862,439.334137 1362.494385,376.855408 
	C1361.335938,275.551910 1362.155884,174.225784 1362.128540,72.909210 
	C1362.127441,68.911140 1362.275391,64.886475 1361.889038,60.919456 
	C1359.713379,38.582581 1342.724854,18.298517 1317.029175,18.737038 
	C1294.039429,19.129383 1271.037720,18.835022 1248.041260,18.815088 
	C1235.644409,18.804342 1225.610107,23.812489 1217.023560,32.589329 
	C1205.434082,44.435669 1202.404541,59.096043 1202.365967,74.837357 
	C1202.312134,96.833847 1202.370972,118.830597 1202.327759,140.827133 
	C1202.321533,144.005188 1202.015991,147.182632 1201.848755,150.365692 
	C1182.802979,146.796448 1164.656250,143.395706 1145.233887,139.755905 
	C1145.233887,136.653061 1145.233887,133.077637 1145.233765,129.502228 
	C1145.233154,107.172325 1145.363525,84.841156 1145.147583,62.513329 
	C1145.086792,56.223194 1144.636230,49.803539 1143.274292,43.685951 
	C1140.053101,29.216520 1130.012695,20.585852 1115.217896,19.523655 
	C1106.931396,18.928709 1098.547852,18.986534 1090.247314,19.451630 
	C1079.045776,20.079275 1070.292236,25.286903 1064.020752,34.812241 
	C1054.513916,49.251637 1050.080933,65.128296 1048.084595,82.228027 
	C1045.872925,101.173149 1044.774780,120.096916 1045.794556,139.074631 
	C1046.898315,159.614914 1046.738281,180.501648 1054.604126,199.999115 
	C1062.719482,220.115265 1073.568359,232.141205 1096.610840,227.343262 
	C1096.610840,223.992355 1096.610840,220.538376 1096.610840,217.007050 
	C1093.739014,216.280075 1091.554565,215.414185 1089.310303,215.211761 
	C1078.131592,214.203568 1072.621216,206.452560 1068.638672,197.412033 
	C1066.399902,192.329987 1065.006104,186.772446 1063.947754,181.290878 
	C1058.227051,151.663345 1057.452759,121.800751 1060.505249,91.833183 
	C1061.883423,78.301346 1064.659912,65.067169 1069.883667,52.400848 
	C1072.751953,45.445698 1077.041748,39.656254 1083.143311,35.400284 
	C1091.781616,29.374918 1102.139282,31.433992 1105.516602,40.562153 
	C1107.961914,47.171066 1109.370850,54.551746 1109.413574,61.599323 
	C1109.728638,113.589417 1109.576050,165.582306 1109.602295,217.574295 
	C1109.604004,221.085403 1109.863525,224.596390 1109.995728,227.919434 
	C1122.107544,227.919434 1132.966797,227.919434 1144.567139,227.919434 
	C1144.830444,203.556366 1145.087158,179.793442 1145.349121,155.542206 
	C1166.075684,155.319778 1183.749023,162.078659 1202.123291,166.877625 
	C1202.739990,180.498932 1203.425537,193.434952 1203.862427,206.379379 
	C1204.037476,211.563843 1205.873535,215.881348 1208.980347,219.922501 
	C1215.780029,228.767029 1224.829712,230.908478 1235.308594,229.213654 
	C1245.912109,227.498657 1251.537354,221.342178 1252.651855,210.540741 
	C1254.529053,192.348740 1246.964966,178.640274 1232.741089,168.048965 
	C1227.270386,163.975464 1219.346436,161.135971 1216.810547,155.730927 
	C1213.976929,149.690796 1215.920288,141.376053 1215.910034,134.051010 
	C1215.878418,111.387878 1215.558472,88.717674 1216.013672,66.063553 
	C1216.431274,45.288136 1224.280151,33.422176 1249.698975,32.140182 
	C1264.986450,31.369162 1280.423218,31.181751 1295.657959,32.407230 
	C1310.882446,33.631870 1320.088867,41.009281 1323.657104,53.123230 
	C1325.567017,59.607460 1326.281128,66.659180 1326.288940,73.456238 
	C1326.406128,174.106552 1326.210327,274.757263 1326.360229,375.407501 
	C1326.389893,395.278687 1325.528442,414.878937 1320.367065,434.235168 
	C1316.246704,449.687592 1311.440430,464.848877 1302.814575,478.325745 
	C1286.019287,504.566101 1262.170166,522.523926 1233.840576,534.803040 
	C1207.890503,546.050781 1180.695801,552.674500 1152.730469,556.463928 
	C1146.011597,557.374390 1139.385620,558.969604 1132.962158,560.202820 
	C1132.962158,564.475891 1132.962158,567.344849 1132.962158,571.283569 
	C1136.883667,571.533569 1140.431885,572.058716 1143.957153,571.933838 
	C1160.933838,571.332275 1177.938843,571.010864 1194.868286,569.726501 
	C1216.416748,568.091797 1237.868164,565.911499 1258.863770,559.900146 
	C1282.105225,553.245667 1304.933472,545.934937 1325.969360,533.699402 
	C1342.877808,523.864624 1358.128174,512.112671 1369.585815,496.136932 
	C1374.953613,488.652557 1379.903442,480.689148 1383.791138,472.358734 
	C1392.754761,453.151855 1395.716919,432.569885 1395.721924,411.510101 
	C1395.735352,355.185425 1395.722046,298.860748 1395.738525,242.536087 
	C1395.739624,238.539230 1395.355957,234.440186 1396.087891,230.565582 
	C1397.943359,220.743912 1400.460083,211.006302 1410.384888,205.875076 
	C1418.725830,201.562607 1427.458740,199.543900 1437.083252,200.680984 
	C1458.848267,203.252426 1479.420654,210.206528 1500.058594,216.960754 
	C1520.260986,223.572388 1540.339355,230.732986 1562.178101,227.740128 
	C1564.690063,227.395889 1567.307495,226.918228 1569.577637,225.861633 
	C1583.257812,219.494583 1591.008423,208.294418 1593.693237,193.845352 
	C1595.258057,185.424286 1595.871094,176.724625 1595.930786,168.143494 
	C1596.171631,133.483810 1595.932129,98.820984 1596.114258,64.160591 
	C1596.150757,57.209358 1596.792236,50.182827 1597.987061,43.336262 
	C1599.440186,35.009281 1603.183960,32.272495 1611.721191,31.914660 
	C1614.382690,31.803108 1617.076538,32.131199 1619.713501,31.855165 
	C1623.599121,31.448429 1625.574219,33.750904 1627.818726,36.359463 
	C1633.440796,42.893421 1634.153931,50.591549 1634.143555,58.701069 
	C1634.076172,111.359550 1634.113159,164.018173 1634.115723,216.676743 
	C1634.115967,220.252563 1634.115723,223.828384 1634.115723,228.193649 
	C1646.588379,228.737259 1657.966797,228.789093 1669.221436,228.270691 
	C1669.632202,226.046677 1669.963257,225.090942 1669.963013,224.135315 
	C1669.946655,166.145157 1670.016846,108.154373 1669.694214,50.165787 
	C1669.660156,44.048645 1667.438354,37.911282 1665.982178,31.843170 
	C1664.390137,25.209364 1659.162476,21.500326 1653.247559,20.505449 
	C1636.812988,17.741184 1620.135498,17.226328 1603.599731,19.493412 
	C1591.357178,21.171864 1585.648438,27.658672 1584.254150,40.091339 
	C1583.513062,46.699329 1583.201660,53.385807 1583.176880,60.038651 
	C1583.066040,89.700340 1583.175537,119.362823 1583.089111,149.024673 
	C1583.071655,155.012100 1582.887451,161.037689 1582.191772,166.976715 
	C1580.580688,180.726669 1572.243774,189.559265 1558.574707,191.481262 
	C1553.402466,192.208496 1547.836060,192.083054 1542.740479,190.989761 
	C1532.666626,188.828400 1522.758423,185.850922 1512.849243,182.977417 
	C1495.904419,178.063629 1479.071533,172.756271 1462.083984,167.998611 
	C1430.693848,159.207275 1401.972168,179.230240 1390.139404,201.944565 
	C1383.259521,215.151093 1382.328491,229.348053 1382.302246,243.722473 
	C1382.194214,302.712891 1382.457642,361.705292 1382.065063,420.693481 
	C1381.846558,453.526031 1368.444824,480.609283 1343.739746,502.159607 
	C1323.807007,519.547058 1300.519409,530.728455 1274.177856,539.590942 
M2249.786865,95.000320 
	C2250.062256,128.648956 2250.287354,162.298218 2250.697510,195.945206 
	C2250.735352,199.039139 2251.384277,202.395905 2252.723877,205.158142 
	C2259.622559,219.383270 2269.916260,228.860718 2286.922852,228.379181 
	C2290.246338,228.285080 2293.580322,228.639954 2296.909424,228.644272 
	C2317.906006,228.671402 2338.902832,228.697388 2359.899414,228.643295 
	C2372.560791,228.610672 2385.237061,228.761185 2397.875488,228.166321 
	C2403.299561,227.911041 2409.562744,227.348587 2413.828613,224.503204 
	C2422.084961,218.996262 2429.022461,211.361588 2429.844971,200.733871 
	C2430.970459,186.190842 2431.499512,171.585587 2431.739990,156.998047 
	C2431.837402,151.101364 2431.256592,144.966095 2429.654053,139.316757 
	C2426.457031,128.047379 2420.671875,118.438347 2407.892578,116.067406 
	C2401.101318,114.807472 2394.169189,114.044968 2387.268311,113.696541 
	C2373.981934,113.025703 2360.609863,113.464958 2347.391357,112.206505 
	C2335.754395,111.098656 2328.396240,102.668121 2327.952393,90.946060 
	C2327.473877,78.307007 2327.590088,65.624741 2328.004639,52.979618 
	C2328.296143,44.088501 2335.084473,35.898605 2343.728516,33.783817 
	C2348.836670,32.534046 2354.232666,32.014156 2359.506592,31.967934 
	C2381.501465,31.775171 2403.540527,32.736675 2425.484375,31.661449 
	C2450.424805,30.439390 2467.061035,46.570839 2466.433105,72.211243 
	C2465.315674,117.843147 2466.104736,163.522156 2466.142578,209.181427 
	C2466.147461,215.044067 2466.427246,220.906464 2466.597656,227.449493 
	C2486.606201,229.510559 2505.529785,228.675888 2524.425537,228.295273 
	C2528.191895,228.219406 2530.352295,225.540512 2530.539795,221.669876 
	C2530.669189,219.009293 2530.653564,216.340271 2530.653809,213.675034 
	C2530.659424,157.017502 2530.657959,100.359985 2530.657959,43.702457 
	C2530.657959,40.105183 2530.657959,36.507912 2530.657959,31.886938 
	C2538.689941,31.886938 2545.922607,31.870434 2553.155273,31.891594 
	C2560.340332,31.912613 2567.489258,31.778301 2574.041504,35.716526 
	C2581.208984,40.024452 2588.119873,44.923504 2590.038330,53.337772 
	C2591.757080,60.874504 2592.166992,68.834084 2592.197266,76.610847 
	C2592.380371,123.602547 2592.288574,170.595322 2592.288574,217.587738 
	C2592.288574,221.105209 2592.288574,224.622681 2592.288574,228.136139 
	C2604.864746,228.136139 2616.057617,228.136139 2627.611816,228.136139 
	C2627.785889,226.387207 2628.022949,225.115768 2628.022705,223.844360 
	C2628.018555,170.853195 2628.140381,117.861069 2627.792725,64.872032 
	C2627.746094,57.796337 2625.789795,50.602215 2623.867676,43.699711 
	C2620.802002,32.692375 2613.407959,25.169960 2602.403809,22.195276 
	C2595.128906,20.228704 2587.480713,18.855906 2579.968994,18.701229 
	C2557.981934,18.248489 2535.979492,18.519894 2513.982910,18.568281 
	C2511.826416,18.573023 2509.670898,18.997038 2506.337158,19.351782 
	C2515.162354,28.602705 2518.075439,38.692459 2518.032959,50.149826 
	C2517.845215,100.807617 2517.955322,151.466507 2517.938721,202.125000 
	C2517.937988,204.453247 2518.216797,206.920868 2517.562256,209.080231 
	C2516.264648,213.362717 2513.029053,215.105057 2508.505615,214.916245 
	C2504.278320,214.739822 2502.588135,212.325928 2502.284912,208.590561 
	C2502.042969,205.607559 2502.056396,202.599121 2502.055420,199.601959 
	C2502.040527,156.275620 2502.192627,112.948570 2501.990234,69.623161 
	C2501.838379,37.100811 2483.380371,18.673588 2451.204102,18.562988 
	C2419.875977,18.455305 2388.546631,18.404070 2357.219971,18.642723 
	C2350.291260,18.695509 2343.328857,19.797865 2336.460938,20.907766 
	C2328.548340,22.186543 2322.143066,26.795841 2318.960205,33.789852 
	C2316.139893,39.986687 2314.641846,47.157295 2314.233154,53.997913 
	C2313.499756,66.283173 2313.885986,78.645233 2314.058838,90.971634 
	C2314.209229,101.693413 2318.694092,110.940758 2325.232666,119.078644 
	C2327.110352,121.415688 2330.558838,123.295326 2333.547363,123.780342 
	C2341.707031,125.104538 2349.989990,125.954422 2358.252441,126.287643 
	C2369.566162,126.743904 2380.948730,125.961212 2392.225098,126.772232 
	C2409.455078,128.011429 2417.386230,136.547165 2417.942139,153.717804 
	C2418.308350,165.036316 2418.311035,176.385895 2417.945068,187.704376 
	C2417.372070,205.430573 2408.941895,213.822906 2391.395996,214.762512 
	C2388.403564,214.922745 2385.400146,214.909073 2382.401611,214.910934 
	C2363.071289,214.923019 2343.711426,214.235931 2324.418213,215.081680 
	C2297.553467,216.259293 2284.623291,202.006577 2285.235840,175.628281 
	C2286.094482,138.654190 2285.529053,101.644943 2285.380127,64.651520 
	C2285.353271,58.014832 2284.909180,51.291389 2283.758789,44.766541 
	C2281.535156,32.155651 2273.828857,23.311712 2261.516113,20.646271 
	C2249.948975,18.142227 2237.972900,17.296242 2225.977295,20.031006 
	C2217.612793,21.937967 2210.645508,25.602863 2206.140869,32.773781 
	C2196.738770,47.740490 2189.053467,63.320728 2188.554443,81.667519 
	C2188.138428,96.958954 2186.099854,112.224289 2186.076904,127.503159 
	C2186.055176,141.783325 2187.820312,156.061356 2188.651367,170.348907 
	C2189.572021,186.180298 2193.689209,200.632874 2202.606689,214.224533 
	C2211.290771,227.460205 2222.866211,229.542404 2236.812988,227.976486 
	C2236.812988,223.711517 2236.812988,219.893738 2236.812988,215.766296 
	C2234.659912,215.419220 2233.067871,214.910446 2231.488770,214.948608 
	C2220.597412,215.211929 2213.892578,208.547928 2210.240234,199.807220 
	C2206.360107,190.521179 2203.399902,180.467896 2202.253174,170.494919 
	C2198.899170,141.327835 2197.861084,112.018822 2202.002686,82.790886 
	C2203.806396,70.059692 2206.883301,57.635677 2213.505371,46.394161 
	C2217.868164,38.988262 2223.441162,33.131229 2232.587646,32.042217 
	C2238.074707,31.388931 2242.143555,32.717266 2244.414795,38.509277 
	C2247.027100,45.170349 2250.110596,51.486553 2249.865723,59.009285 
	C2249.497559,70.328590 2249.781006,81.669090 2249.786865,95.000320 
M956.260254,301.000000 
	C957.234741,370.281921 954.014893,439.608368 958.317444,508.850433 
	C959.213440,523.269287 963.468811,537.301208 972.226318,548.512451 
	C991.401367,573.060181 1009.259338,574.811646 1041.329346,570.446594 
	C1041.329346,566.619995 1041.329346,562.811584 1041.329346,558.090820 
	C1033.638306,558.090820 1026.683350,558.350037 1019.754761,558.033386 
	C1007.742004,557.484436 995.296448,546.144287 993.838745,534.335693 
	C992.944824,527.094116 992.263367,519.770447 992.258850,512.483093 
	C992.169128,366.156219 992.192139,219.829254 992.190491,73.502312 
	C992.190491,69.169205 992.282654,64.832428 992.141296,60.503593 
	C991.382996,37.284050 971.935425,22.451265 954.683167,20.092823 
	C939.168274,17.971876 923.700439,17.799110 908.029053,19.620209 
	C879.306580,22.957911 868.030701,36.942009 862.643005,58.491337 
	C859.464905,71.203011 858.801208,84.692062 858.279114,97.881866 
	C857.607361,114.850670 858.431274,131.872833 858.208252,148.866730 
	C857.942993,169.076370 865.176392,186.841110 875.411072,203.652725 
	C877.525574,207.126022 880.627930,209.997879 884.304871,214.372055 
	C879.428345,214.372055 876.462463,214.405411 873.497620,214.364761 
	C868.165527,214.291687 862.819031,214.392822 857.505432,214.029236 
	C846.856018,213.300598 839.671143,206.909027 838.011536,196.192535 
	C836.896912,188.995483 836.145386,181.665649 836.109314,174.390869 
	C835.920959,136.393448 836.198364,98.392906 835.844116,60.397823 
	C835.777527,53.252163 833.957947,46.036003 832.275146,39.013428 
	C829.983643,29.450380 823.480286,23.218021 814.024902,21.360514 
	C804.990234,19.585690 795.639893,18.284340 786.479065,18.546322 
	C772.095154,18.957674 760.475403,25.078173 753.100952,38.327217 
	C744.612427,53.577831 739.051575,70.014786 738.429382,87.116989 
	C737.356201,116.618004 735.938171,146.245392 740.087097,175.707550 
	C741.950623,188.940796 746.093628,201.478714 752.746521,212.936737 
	C760.654053,226.555573 772.423157,230.805008 787.513672,226.687607 
	C787.513672,222.900009 787.513672,219.107147 787.513672,215.453171 
	C782.244995,214.454346 777.460205,214.285538 773.290955,212.596970 
	C765.572693,209.471069 762.618469,202.224548 759.794800,194.958725 
	C752.185608,175.378845 751.838013,154.676102 750.434204,134.196945 
	C749.134277,115.232620 750.705261,96.251717 754.283752,77.647217 
	C756.262573,67.359459 760.194153,57.321941 764.286926,47.610554 
	C766.982544,41.214294 771.673584,35.940510 778.847961,33.358429 
	C789.238586,29.618841 796.303772,32.676842 797.926086,43.581299 
	C799.868896,56.639435 801.224731,69.891426 801.429016,83.081230 
	C801.986450,119.071281 802.283569,155.080261 801.721924,191.066727 
	C801.422424,210.255875 818.068298,229.319809 839.601685,228.440781 
	C865.888062,227.367722 892.254578,228.286789 918.586304,228.251694 
	C920.776611,228.248779 922.965942,227.540634 924.980896,227.190536 
	C926.171997,215.156631 926.159729,215.260986 915.696777,214.032379 
	C912.796204,213.691772 909.882507,212.800949 907.162109,211.699890 
	C894.543152,206.592438 887.558044,195.994125 882.337952,184.372650 
	C874.771057,167.526566 871.305237,149.630676 871.846863,131.117065 
	C872.342773,114.167336 873.114319,97.224533 873.892212,80.284561 
	C874.486450,67.343872 878.510925,55.470367 886.391968,45.194595 
	C888.933350,41.881016 892.430481,38.830925 896.147339,36.978828 
	C906.227295,31.956085 917.348755,30.304953 928.231995,32.378498 
	C940.564758,34.728226 951.805725,39.854336 954.425842,54.341557 
	C955.301453,59.183197 956.175110,64.117149 956.182129,69.010147 
	C956.292175,145.673309 956.260132,222.336685 956.260254,301.000000 
M2158.127441,558.104004 
	C2142.297363,553.780640 2134.508545,544.881592 2132.939453,529.111816 
	C2132.610840,525.806702 2132.646484,522.457642 2132.645508,519.128845 
	C2132.628418,471.135315 2132.633545,423.141815 2132.633545,375.148285 
	C2132.633057,272.828766 2132.087646,170.504578 2132.968994,68.192642 
	C2133.228516,38.045216 2112.157471,20.065008 2087.916260,19.250084 
	C2072.984863,18.748137 2057.776611,18.323750 2043.090088,20.521307 
	C2017.441162,24.359198 2007.571411,38.707100 2002.476929,60.006676 
	C2000.077637,70.037636 1999.725952,80.656372 1999.316406,91.043076 
	C1998.634399,108.338608 1998.405518,125.662788 1998.478027,142.972839 
	C1998.515381,151.888412 1998.109009,161.243546 2000.577393,169.611237 
	C2004.536743,183.033646 2008.633301,196.825562 2018.918457,207.384201 
	C2020.840210,209.357193 2022.506104,211.579575 2024.562866,214.009048 
	C2014.057251,214.009048 2004.427612,214.629852 1994.917114,213.831970 
	C1985.669434,213.056137 1979.188843,205.816010 1977.962524,196.063202 
	C1977.051636,188.817841 1976.460693,181.482574 1976.430664,174.184464 
	C1976.279785,137.523376 1976.494019,100.860428 1976.248779,64.200340 
	C1976.198364,56.661041 1975.510742,48.943241 1973.741455,41.640957 
	C1971.069092,30.611731 1963.887329,22.729439 1952.524170,20.508278 
	C1944.461060,18.932198 1935.987183,18.272135 1927.802490,18.810474 
	C1918.134033,19.446405 1907.746826,20.259766 1901.020752,28.691729 
	C1896.187012,34.751434 1891.328979,41.253639 1888.510620,48.362743 
	C1882.682007,63.064991 1879.055420,78.358749 1878.382812,94.445770 
	C1877.121582,124.617500 1877.067139,154.599411 1882.586304,184.479034 
	C1884.476685,194.713455 1887.565430,204.296005 1893.077515,212.814056 
	C1902.184937,226.887787 1912.528320,230.719498 1928.444580,227.363068 
	C1928.444580,223.493607 1928.444580,219.641663 1928.444580,215.454773 
	C1926.288330,215.247070 1924.671875,214.963776 1923.054321,214.956833 
	C1914.281372,214.919128 1907.571411,211.282913 1903.978882,203.195877 
	C1900.957764,196.394714 1897.792725,189.491211 1896.091553,182.301758 
	C1891.394165,162.448868 1890.786987,142.074341 1890.869507,121.813858 
	C1890.949097,102.268936 1892.284668,82.719902 1897.844360,63.729656 
	C1900.947266,53.131462 1905.001831,43.184761 1914.020142,36.141502 
	C1924.354492,28.070242 1934.040894,30.823208 1937.939941,43.429413 
	C1939.845581,49.590431 1941.096313,56.194454 1941.213989,62.624130 
	C1941.610840,84.280617 1941.203857,105.950401 1941.411255,127.612160 
	C1941.628052,150.259109 1942.582397,172.906372 1942.362793,195.545242 
	C1942.303711,201.644089 1944.775513,206.629745 1947.435425,210.759705 
	C1953.540649,220.239258 1961.416748,227.966568 1974.410889,227.927414 
	C2003.728882,227.839035 2033.048828,228.347015 2062.368164,228.566406 
	C2063.286377,228.573273 2064.208008,228.074493 2065.461182,227.716232 
	C2065.461182,223.742416 2065.461182,219.889465 2065.461182,215.356766 
	C2061.990479,214.941101 2058.751221,214.479858 2055.496826,214.177505 
	C2046.814575,213.370926 2039.490967,209.067749 2034.244507,202.841644 
	C2022.760254,189.213165 2016.560303,172.835236 2013.958496,155.322388 
	C2010.114258,129.447754 2011.053589,103.440094 2014.185791,77.603668 
	C2015.225708,69.025818 2018.429077,60.501930 2021.880249,52.485935 
	C2025.044067,45.137875 2030.722900,39.263912 2038.290161,35.921146 
	C2047.881836,31.684196 2058.319092,30.126562 2068.256348,32.463772 
	C2079.471191,35.101471 2091.263672,38.804253 2094.069824,52.736538 
	C2095.347656,59.078537 2096.847412,65.540268 2096.854980,71.949379 
	C2097.015869,205.264511 2096.865479,338.580078 2097.093262,471.895020 
	C2097.128418,492.594635 2096.331299,513.527527 2104.441650,533.411804 
	C2110.972168,549.422546 2121.569824,561.048340 2137.549072,568.131226 
	C2152.089355,574.576294 2166.985107,570.700195 2181.575195,572.195374 
	C2181.575195,566.854065 2181.575195,562.770874 2181.575195,558.175537 
	C2173.832275,558.175537 2166.864990,558.175537 2158.127441,558.104004 
M473.938721,208.433365 
	C473.440063,202.808807 472.525421,197.185471 472.509064,191.559509 
	C472.386932,149.575317 472.465668,107.590561 472.413757,65.606071 
	C472.407196,60.282715 472.313660,54.926334 471.733429,49.643131 
	C470.100555,34.774242 461.570648,24.050167 448.668396,20.702320 
	C444.546173,19.632698 440.217651,18.989651 435.962189,18.861877 
	C407.547302,18.008713 396.601593,21.796537 385.244354,45.197269 
	C378.107483,59.902290 374.675995,75.698334 373.970032,92.271309 
	C373.091614,112.893509 371.866241,133.511032 374.042908,154.051666 
	C375.672943,169.434082 375.666809,185.062973 381.915558,199.850067 
	C390.877838,221.058624 402.579132,232.167175 423.963196,227.236877 
	C423.963196,223.468033 423.963196,219.660263 423.963196,216.188690 
	C423.054504,215.699036 422.777252,215.457886 422.465027,215.397400 
	C421.173950,215.147308 419.861938,214.717255 418.576080,214.773682 
	C408.582123,215.212296 402.494843,209.632477 398.261169,201.459763 
	C396.457642,197.978210 395.104950,194.239929 393.791229,190.531921 
	C388.638580,175.988770 388.223450,160.726929 387.092712,145.571167 
	C385.179321,119.925789 386.085327,94.425133 391.963135,69.328270 
	C394.744293,57.453423 398.354889,45.692570 407.774902,36.948761 
	C412.475098,32.585949 418.346649,31.420185 424.390747,32.150356 
	C429.180756,32.729031 430.998352,36.910450 432.528625,40.977566 
	C433.638000,43.926014 435.615570,46.782223 435.846069,49.783981 
	C436.609344,59.724281 437.054840,69.710915 437.087402,79.681519 
	C437.215881,118.999969 437.092834,158.319214 437.194061,197.637817 
	C437.208557,203.277115 437.664948,208.951233 438.408630,214.543823 
	C439.387207,221.903046 445.481689,227.203171 452.910767,227.694046 
	C456.890564,227.957031 460.874573,228.343536 464.857086,228.348602 
	C503.842682,228.398117 542.828369,228.393463 581.813965,228.345825 
	C584.345459,228.342728 586.876404,227.859161 589.658447,227.573303 
	C589.449463,223.234268 589.277832,219.672226 589.096863,215.915344 
	C578.546570,212.708054 570.959717,205.997803 563.382996,199.060471 
	C557.810242,193.958023 551.919983,188.876724 545.359070,185.258881 
	C536.518555,180.384033 526.867065,177.096237 516.142944,179.007721 
	C516.142944,183.767441 516.142944,187.632568 516.142944,192.184937 
	C533.310486,190.714233 543.410156,199.715500 551.339722,214.254013 
	C527.710022,214.254013 505.445557,214.406403 483.188660,214.064911 
	C480.343475,214.021271 477.537781,211.404160 473.938721,208.433365 
M568.153198,46.998203 
	C573.329529,55.794327 578.505798,64.590446 584.030701,73.978989 
	C589.508545,64.893013 594.234131,56.650265 599.352478,48.659012 
	C607.184082,36.431381 618.444580,29.770981 632.954163,32.450417 
	C641.720825,34.069317 649.783142,38.303860 654.328979,47.501812 
	C659.444214,57.852039 660.320984,68.660133 660.316406,79.801727 
	C660.297729,125.756187 660.308472,171.710663 660.308411,217.665131 
	C660.308411,220.907623 660.308411,224.150131 660.308411,228.273102 
	C672.625488,228.294861 684.014954,228.813080 695.938293,227.885956 
	C695.938293,223.188812 695.938293,219.568512 695.938293,215.948227 
	C695.938354,172.657791 696.042053,129.366882 695.846985,86.077324 
	C695.809937,77.858307 695.501465,69.438515 693.701965,61.476654 
	C690.989197,49.474243 685.264038,39.144051 674.753418,31.432077 
	C655.509766,17.312384 634.382690,16.491852 612.389465,21.240658 
	C607.655090,22.262917 603.226379,25.428852 599.076599,28.229242 
	C594.815918,31.104488 591.069214,34.741528 586.779907,38.309422 
	C571.069397,20.525698 550.790588,16.909061 528.737366,19.778036 
	C519.001953,21.044548 509.583069,23.991737 503.113098,32.196957 
	C492.842194,45.222607 492.981110,60.311771 493.826141,75.435242 
	C498.556427,75.435242 502.088898,75.435242 505.617462,75.435242 
	C506.456543,69.294945 506.934143,63.678776 508.026154,58.184723 
	C512.174988,37.311600 531.389893,27.731947 551.786316,35.076962 
	C558.310608,37.426426 562.388000,41.842178 568.153198,46.998203 
z"/>
<path fill="#C67339" opacity="1.000000" stroke="none" 
	d="
M1274.927490,539.319946 
	C1300.519409,530.728455 1323.807007,519.547058 1343.739746,502.159607 
	C1368.444824,480.609283 1381.846558,453.526031 1382.065063,420.693481 
	C1382.457642,361.705292 1382.194214,302.712891 1382.302246,243.722473 
	C1382.328491,229.348053 1383.259521,215.151093 1390.139404,201.944565 
	C1401.972168,179.230240 1430.693848,159.207275 1462.083984,167.998611 
	C1479.071533,172.756271 1495.904419,178.063629 1512.849243,182.977417 
	C1522.758423,185.850922 1532.666626,188.828400 1542.740479,190.989761 
	C1547.836060,192.083054 1553.402466,192.208496 1558.574707,191.481262 
	C1572.243774,189.559265 1580.580688,180.726669 1582.191772,166.976715 
	C1582.887451,161.037689 1583.071655,155.012100 1583.089111,149.024673 
	C1583.175537,119.362823 1583.066040,89.700340 1583.176880,60.038651 
	C1583.201660,53.385807 1583.513062,46.699329 1584.254150,40.091339 
	C1585.648438,27.658672 1591.357178,21.171864 1603.599731,19.493412 
	C1620.135498,17.226328 1636.812988,17.741184 1653.247559,20.505449 
	C1659.162476,21.500326 1664.390137,25.209364 1665.982178,31.843170 
	C1667.438354,37.911282 1669.660156,44.048645 1669.694214,50.165787 
	C1670.016846,108.154373 1669.946655,166.145157 1669.963013,224.135315 
	C1669.963257,225.090942 1669.632202,226.046677 1669.221436,228.270691 
	C1657.966797,228.789093 1646.588379,228.737259 1634.115723,228.193649 
	C1634.115723,223.828384 1634.115967,220.252563 1634.115723,216.676743 
	C1634.113159,164.018173 1634.076172,111.359550 1634.143555,58.701069 
	C1634.153931,50.591549 1633.440796,42.893421 1627.818726,36.359463 
	C1625.574219,33.750904 1623.599121,31.448429 1619.713501,31.855165 
	C1617.076538,32.131199 1614.382690,31.803108 1611.721191,31.914660 
	C1603.183960,32.272495 1599.440186,35.009281 1597.987061,43.336262 
	C1596.792236,50.182827 1596.150757,57.209358 1596.114258,64.160591 
	C1595.932129,98.820984 1596.171631,133.483810 1595.930786,168.143494 
	C1595.871094,176.724625 1595.258057,185.424286 1593.693237,193.845352 
	C1591.008423,208.294418 1583.257812,219.494583 1569.577637,225.861633 
	C1567.307495,226.918228 1564.690063,227.395889 1562.178101,227.740128 
	C1540.339355,230.732986 1520.260986,223.572388 1500.058594,216.960754 
	C1479.420654,210.206528 1458.848267,203.252426 1437.083252,200.680984 
	C1427.458740,199.543900 1418.725830,201.562607 1410.384888,205.875076 
	C1400.460083,211.006302 1397.943359,220.743912 1396.087891,230.565582 
	C1395.355957,234.440186 1395.739624,238.539230 1395.738525,242.536087 
	C1395.722046,298.860748 1395.735352,355.185425 1395.721924,411.510101 
	C1395.716919,432.569885 1392.754761,453.151855 1383.791138,472.358734 
	C1379.903442,480.689148 1374.953613,488.652557 1369.585815,496.136932 
	C1358.128174,512.112671 1342.877808,523.864624 1325.969360,533.699402 
	C1304.933472,545.934937 1282.105225,553.245667 1258.863770,559.900146 
	C1237.868164,565.911499 1216.416748,568.091797 1194.868286,569.726501 
	C1177.938843,571.010864 1160.933838,571.332275 1143.957153,571.933838 
	C1140.431885,572.058716 1136.883667,571.533569 1132.962158,571.283569 
	C1132.962158,567.344849 1132.962158,564.475891 1132.962158,560.202820 
	C1139.385620,558.969604 1146.011597,557.374390 1152.730469,556.463928 
	C1180.695801,552.674500 1207.890503,546.050781 1233.840576,534.803040 
	C1262.170166,522.523926 1286.019287,504.566101 1302.814575,478.325745 
	C1311.440430,464.848877 1316.246704,449.687592 1320.367065,434.235168 
	C1325.528442,414.878937 1326.389893,395.278687 1326.360229,375.407501 
	C1326.210327,274.757263 1326.406128,174.106552 1326.288940,73.456238 
	C1326.281128,66.659180 1325.567017,59.607460 1323.657104,53.123230 
	C1320.088867,41.009281 1310.882446,33.631870 1295.657959,32.407230 
	C1280.423218,31.181751 1264.986450,31.369162 1249.698975,32.140182 
	C1224.280151,33.422176 1216.431274,45.288136 1216.013672,66.063553 
	C1215.558472,88.717674 1215.878418,111.387878 1215.910034,134.051010 
	C1215.920288,141.376053 1213.976929,149.690796 1216.810547,155.730927 
	C1219.346436,161.135971 1227.270386,163.975464 1232.741089,168.048965 
	C1246.964966,178.640274 1254.529053,192.348740 1252.651855,210.540741 
	C1251.537354,221.342178 1245.912109,227.498657 1235.308594,229.213654 
	C1224.829712,230.908478 1215.780029,228.767029 1208.980347,219.922501 
	C1205.873535,215.881348 1204.037476,211.563843 1203.862427,206.379379 
	C1203.425537,193.434952 1202.739990,180.498932 1202.123291,166.877625 
	C1183.749023,162.078659 1166.075684,155.319778 1145.349121,155.542206 
	C1145.087158,179.793442 1144.830444,203.556366 1144.567139,227.919434 
	C1132.966797,227.919434 1122.107544,227.919434 1109.995728,227.919434 
	C1109.863525,224.596390 1109.604004,221.085403 1109.602295,217.574295 
	C1109.576050,165.582306 1109.728638,113.589417 1109.413574,61.599323 
	C1109.370850,54.551746 1107.961914,47.171066 1105.516602,40.562153 
	C1102.139282,31.433992 1091.781616,29.374918 1083.143311,35.400284 
	C1077.041748,39.656254 1072.751953,45.445698 1069.883667,52.400848 
	C1064.659912,65.067169 1061.883423,78.301346 1060.505249,91.833183 
	C1057.452759,121.800751 1058.227051,151.663345 1063.947754,181.290878 
	C1065.006104,186.772446 1066.399902,192.329987 1068.638672,197.412033 
	C1072.621216,206.452560 1078.131592,214.203568 1089.310303,215.211761 
	C1091.554565,215.414185 1093.739014,216.280075 1096.610840,217.007050 
	C1096.610840,220.538376 1096.610840,223.992355 1096.610840,227.343262 
	C1073.568359,232.141205 1062.719482,220.115265 1054.604126,199.999115 
	C1046.738281,180.501648 1046.898315,159.614914 1045.794556,139.074631 
	C1044.774780,120.096916 1045.872925,101.173149 1048.084595,82.228027 
	C1050.080933,65.128296 1054.513916,49.251637 1064.020752,34.812241 
	C1070.292236,25.286903 1079.045776,20.079275 1090.247314,19.451630 
	C1098.547852,18.986534 1106.931396,18.928709 1115.217896,19.523655 
	C1130.012695,20.585852 1140.053101,29.216520 1143.274292,43.685951 
	C1144.636230,49.803539 1145.086792,56.223194 1145.147583,62.513329 
	C1145.363525,84.841156 1145.233154,107.172325 1145.233765,129.502228 
	C1145.233887,133.077637 1145.233887,136.653061 1145.233887,139.755905 
	C1164.656250,143.395706 1182.802979,146.796448 1201.848755,150.365692 
	C1202.015991,147.182632 1202.321533,144.005188 1202.327759,140.827133 
	C1202.370972,118.830597 1202.312134,96.833847 1202.365967,74.837357 
	C1202.404541,59.096043 1205.434082,44.435669 1217.023560,32.589329 
	C1225.610107,23.812489 1235.644409,18.804342 1248.041260,18.815088 
	C1271.037720,18.835022 1294.039429,19.129383 1317.029175,18.737038 
	C1342.724854,18.298517 1359.713379,38.582581 1361.889038,60.919456 
	C1362.275391,64.886475 1362.127441,68.911140 1362.128540,72.909210 
	C1362.155884,174.225784 1361.335938,275.551910 1362.494385,376.855408 
	C1363.208862,439.334137 1336.108765,486.123779 1287.840698,522.718079 
	C1280.695190,528.135437 1272.804321,532.564331 1265.326050,537.552185 
	C1263.836060,538.545959 1262.655273,540.003479 1262.104126,542.967529 
	C1266.128662,541.841980 1270.153320,540.716492 1274.927490,539.319946 
M1256.372192,541.857239 
	C1253.225220,543.324707 1250.078369,544.792175 1246.931396,546.259644 
	C1247.161011,546.917297 1247.390747,547.574951 1247.620361,548.232605 
	C1251.095825,546.942505 1254.571289,545.652466 1259.444214,543.828430 
	C1258.887817,543.131287 1258.331421,542.434204 1256.372192,541.857239 
M1216.945068,203.044693 
	C1217.883301,205.158905 1218.523682,207.479492 1219.817871,209.347015 
	C1223.128662,214.124390 1230.470947,216.860794 1234.606445,215.175552 
	C1238.398438,213.630295 1240.381226,208.819641 1239.569580,202.159882 
	C1237.879639,188.290283 1229.096558,180.204285 1216.461182,173.435745 
	C1216.461182,183.771317 1216.461182,192.596436 1216.945068,203.044693 
z"/>
<path fill="#090909" opacity="1.000000" stroke="none" 
	d="
M2249.787109,94.000450 
	C2249.781006,81.669090 2249.497559,70.328590 2249.865723,59.009285 
	C2250.110596,51.486553 2247.027100,45.170349 2244.414795,38.509277 
	C2242.143555,32.717266 2238.074707,31.388931 2232.587646,32.042217 
	C2223.441162,33.131229 2217.868164,38.988262 2213.505371,46.394161 
	C2206.883301,57.635677 2203.806396,70.059692 2202.002686,82.790886 
	C2197.861084,112.018822 2198.899170,141.327835 2202.253174,170.494919 
	C2203.399902,180.467896 2206.360107,190.521179 2210.240234,199.807220 
	C2213.892578,208.547928 2220.597412,215.211929 2231.488770,214.948608 
	C2233.067871,214.910446 2234.659912,215.419220 2236.812988,215.766296 
	C2236.812988,219.893738 2236.812988,223.711517 2236.812988,227.976486 
	C2222.866211,229.542404 2211.290771,227.460205 2202.606689,214.224533 
	C2193.689209,200.632874 2189.572021,186.180298 2188.651367,170.348907 
	C2187.820312,156.061356 2186.055176,141.783325 2186.076904,127.503159 
	C2186.099854,112.224289 2188.138428,96.958954 2188.554443,81.667519 
	C2189.053467,63.320728 2196.738770,47.740490 2206.140869,32.773781 
	C2210.645508,25.602863 2217.612793,21.937967 2225.977295,20.031006 
	C2237.972900,17.296242 2249.948975,18.142227 2261.516113,20.646271 
	C2273.828857,23.311712 2281.535156,32.155651 2283.758789,44.766541 
	C2284.909180,51.291389 2285.353271,58.014832 2285.380127,64.651520 
	C2285.529053,101.644943 2286.094482,138.654190 2285.235840,175.628281 
	C2284.623291,202.006577 2297.553467,216.259293 2324.418213,215.081680 
	C2343.711426,214.235931 2363.071289,214.923019 2382.401611,214.910934 
	C2385.400146,214.909073 2388.403564,214.922745 2391.395996,214.762512 
	C2408.941895,213.822906 2417.372070,205.430573 2417.945068,187.704376 
	C2418.311035,176.385895 2418.308350,165.036316 2417.942139,153.717804 
	C2417.386230,136.547165 2409.455078,128.011429 2392.225098,126.772232 
	C2380.948730,125.961212 2369.566162,126.743904 2358.252441,126.287643 
	C2349.989990,125.954422 2341.707031,125.104538 2333.547363,123.780342 
	C2330.558838,123.295326 2327.110352,121.415688 2325.232666,119.078644 
	C2318.694092,110.940758 2314.209229,101.693413 2314.058838,90.971634 
	C2313.885986,78.645233 2313.499756,66.283173 2314.233154,53.997913 
	C2314.641846,47.157295 2316.139893,39.986687 2318.960205,33.789852 
	C2322.143066,26.795841 2328.548340,22.186543 2336.460938,20.907766 
	C2343.328857,19.797865 2350.291260,18.695509 2357.219971,18.642723 
	C2388.546631,18.404070 2419.875977,18.455305 2451.204102,18.562988 
	C2483.380371,18.673588 2501.838379,37.100811 2501.990234,69.623161 
	C2502.192627,112.948570 2502.040527,156.275620 2502.055420,199.601959 
	C2502.056396,202.599121 2502.042969,205.607559 2502.284912,208.590561 
	C2502.588135,212.325928 2504.278320,214.739822 2508.505615,214.916245 
	C2513.029053,215.105057 2516.264648,213.362717 2517.562256,209.080231 
	C2518.216797,206.920868 2517.937988,204.453247 2517.938721,202.125000 
	C2517.955322,151.466507 2517.845215,100.807617 2518.032959,50.149826 
	C2518.075439,38.692459 2515.162354,28.602705 2506.337158,19.351782 
	C2509.670898,18.997038 2511.826416,18.573023 2513.982910,18.568281 
	C2535.979492,18.519894 2557.981934,18.248489 2579.968994,18.701229 
	C2587.480713,18.855906 2595.128906,20.228704 2602.403809,22.195276 
	C2613.407959,25.169960 2620.802002,32.692375 2623.867676,43.699711 
	C2625.789795,50.602215 2627.746094,57.796337 2627.792725,64.872032 
	C2628.140381,117.861069 2628.018555,170.853195 2628.022705,223.844360 
	C2628.022949,225.115768 2627.785889,226.387207 2627.611816,228.136139 
	C2616.057617,228.136139 2604.864746,228.136139 2592.288574,228.136139 
	C2592.288574,224.622681 2592.288574,221.105209 2592.288574,217.587738 
	C2592.288574,170.595322 2592.380371,123.602547 2592.197266,76.610847 
	C2592.166992,68.834084 2591.757080,60.874504 2590.038330,53.337772 
	C2588.119873,44.923504 2581.208984,40.024452 2574.041504,35.716526 
	C2567.489258,31.778301 2560.340332,31.912613 2553.155273,31.891594 
	C2545.922607,31.870434 2538.689941,31.886938 2530.657959,31.886938 
	C2530.657959,36.507912 2530.657959,40.105183 2530.657959,43.702457 
	C2530.657959,100.359985 2530.659424,157.017502 2530.653809,213.675034 
	C2530.653564,216.340271 2530.669189,219.009293 2530.539795,221.669876 
	C2530.352295,225.540512 2528.191895,228.219406 2524.425537,228.295273 
	C2505.529785,228.675888 2486.606201,229.510559 2466.597656,227.449493 
	C2466.427246,220.906464 2466.147461,215.044067 2466.142578,209.181427 
	C2466.104736,163.522156 2465.315674,117.843147 2466.433105,72.211243 
	C2467.061035,46.570839 2450.424805,30.439390 2425.484375,31.661449 
	C2403.540527,32.736675 2381.501465,31.775171 2359.506592,31.967934 
	C2354.232666,32.014156 2348.836670,32.534046 2343.728516,33.783817 
	C2335.084473,35.898605 2328.296143,44.088501 2328.004639,52.979618 
	C2327.590088,65.624741 2327.473877,78.307007 2327.952393,90.946060 
	C2328.396240,102.668121 2335.754395,111.098656 2347.391357,112.206505 
	C2360.609863,113.464958 2373.981934,113.025703 2387.268311,113.696541 
	C2394.169189,114.044968 2401.101318,114.807472 2407.892578,116.067406 
	C2420.671875,118.438347 2426.457031,128.047379 2429.654053,139.316757 
	C2431.256592,144.966095 2431.837402,151.101364 2431.739990,156.998047 
	C2431.499512,171.585587 2430.970459,186.190842 2429.844971,200.733871 
	C2429.022461,211.361588 2422.084961,218.996262 2413.828613,224.503204 
	C2409.562744,227.348587 2403.299561,227.911041 2397.875488,228.166321 
	C2385.237061,228.761185 2372.560791,228.610672 2359.899414,228.643295 
	C2338.902832,228.697388 2317.906006,228.671402 2296.909424,228.644272 
	C2293.580322,228.639954 2290.246338,228.285080 2286.922852,228.379181 
	C2269.916260,228.860718 2259.622559,219.383270 2252.723877,205.158142 
	C2251.384277,202.395905 2250.735352,199.039139 2250.697510,195.945206 
	C2250.287354,162.298218 2250.062256,128.648956 2249.787109,94.000450 
z"/>
<path fill="#CEB794" opacity="1.000000" stroke="none" 
	d="
M956.260498,300.000000 
	C956.260132,222.336685 956.292175,145.673309 956.182129,69.010147 
	C956.175110,64.117149 955.301453,59.183197 954.425842,54.341557 
	C951.805725,39.854336 940.564758,34.728226 928.231995,32.378498 
	C917.348755,30.304953 906.227295,31.956085 896.147339,36.978828 
	C892.430481,38.830925 888.933350,41.881016 886.391968,45.194595 
	C878.510925,55.470367 874.486450,67.343872 873.892212,80.284561 
	C873.114319,97.224533 872.342773,114.167336 871.846863,131.117065 
	C871.305237,149.630676 874.771057,167.526566 882.337952,184.372650 
	C887.558044,195.994125 894.543152,206.592438 907.162109,211.699890 
	C909.882507,212.800949 912.796204,213.691772 915.696777,214.032379 
	C926.159729,215.260986 926.171997,215.156631 924.980896,227.190536 
	C922.965942,227.540634 920.776611,228.248779 918.586304,228.251694 
	C892.254578,228.286789 865.888062,227.367722 839.601685,228.440781 
	C818.068298,229.319809 801.422424,210.255875 801.721924,191.066727 
	C802.283569,155.080261 801.986450,119.071281 801.429016,83.081230 
	C801.224731,69.891426 799.868896,56.639435 797.926086,43.581299 
	C796.303772,32.676842 789.238586,29.618841 778.847961,33.358429 
	C771.673584,35.940510 766.982544,41.214294 764.286926,47.610554 
	C760.194153,57.321941 756.262573,67.359459 754.283752,77.647217 
	C750.705261,96.251717 749.134277,115.232620 750.434204,134.196945 
	C751.838013,154.676102 752.185608,175.378845 759.794800,194.958725 
	C762.618469,202.224548 765.572693,209.471069 773.290955,212.596970 
	C777.460205,214.285538 782.244995,214.454346 787.513672,215.453171 
	C787.513672,219.107147 787.513672,222.900009 787.513672,226.687607 
	C772.423157,230.805008 760.654053,226.555573 752.746521,212.936737 
	C746.093628,201.478714 741.950623,188.940796 740.087097,175.707550 
	C735.938171,146.245392 737.356201,116.618004 738.429382,87.116989 
	C739.051575,70.014786 744.612427,53.577831 753.100952,38.327217 
	C760.475403,25.078173 772.095154,18.957674 786.479065,18.546322 
	C795.639893,18.284340 804.990234,19.585690 814.024902,21.360514 
	C823.480286,23.218021 829.983643,29.450380 832.275146,39.013428 
	C833.957947,46.036003 835.777527,53.252163 835.844116,60.397823 
	C836.198364,98.392906 835.920959,136.393448 836.109314,174.390869 
	C836.145386,181.665649 836.896912,188.995483 838.011536,196.192535 
	C839.671143,206.909027 846.856018,213.300598 857.505432,214.029236 
	C862.819031,214.392822 868.165527,214.291687 873.497620,214.364761 
	C876.462463,214.405411 879.428345,214.372055 884.304871,214.372055 
	C880.627930,209.997879 877.525574,207.126022 875.411072,203.652725 
	C865.176392,186.841110 857.942993,169.076370 858.208252,148.866730 
	C858.431274,131.872833 857.607361,114.850670 858.279114,97.881866 
	C858.801208,84.692062 859.464905,71.203011 862.643005,58.491337 
	C868.030701,36.942009 879.306580,22.957911 908.029053,19.620209 
	C923.700439,17.799110 939.168274,17.971876 954.683167,20.092823 
	C971.935425,22.451265 991.382996,37.284050 992.141296,60.503593 
	C992.282654,64.832428 992.190491,69.169205 992.190491,73.502312 
	C992.192139,219.829254 992.169128,366.156219 992.258850,512.483093 
	C992.263367,519.770447 992.944824,527.094116 993.838745,534.335693 
	C995.296448,546.144287 1007.742004,557.484436 1019.754761,558.033386 
	C1026.683350,558.350037 1033.638306,558.090820 1041.329346,558.090820 
	C1041.329346,562.811584 1041.329346,566.619995 1041.329346,570.446594 
	C1009.259338,574.811646 991.401367,573.060181 972.226318,548.512451 
	C963.468811,537.301208 959.213440,523.269287 958.317444,508.850433 
	C954.014893,439.608368 957.234741,370.281921 956.260498,300.000000 
z"/>
<path fill="#050505" opacity="1.000000" stroke="none" 
	d="
M2159.012451,558.139771 
	C2166.864990,558.175537 2173.832275,558.175537 2181.575195,558.175537 
	C2181.575195,562.770874 2181.575195,566.854065 2181.575195,572.195374 
	C2166.985107,570.700195 2152.089355,574.576294 2137.549072,568.131226 
	C2121.569824,561.048340 2110.972168,549.422546 2104.441650,533.411804 
	C2096.331299,513.527527 2097.128418,492.594635 2097.093262,471.895020 
	C2096.865479,338.580078 2097.015869,205.264511 2096.854980,71.949379 
	C2096.847412,65.540268 2095.347656,59.078537 2094.069824,52.736538 
	C2091.263672,38.804253 2079.471191,35.101471 2068.256348,32.463772 
	C2058.319092,30.126562 2047.881836,31.684196 2038.290161,35.921146 
	C2030.722900,39.263912 2025.044067,45.137875 2021.880249,52.485935 
	C2018.429077,60.501930 2015.225708,69.025818 2014.185791,77.603668 
	C2011.053589,103.440094 2010.114258,129.447754 2013.958496,155.322388 
	C2016.560303,172.835236 2022.760254,189.213165 2034.244507,202.841644 
	C2039.490967,209.067749 2046.814575,213.370926 2055.496826,214.177505 
	C2058.751221,214.479858 2061.990479,214.941101 2065.461182,215.356766 
	C2065.461182,219.889465 2065.461182,223.742416 2065.461182,227.716232 
	C2064.208008,228.074493 2063.286377,228.573273 2062.368164,228.566406 
	C2033.048828,228.347015 2003.728882,227.839035 1974.410889,227.927414 
	C1961.416748,227.966568 1953.540649,220.239258 1947.435425,210.759705 
	C1944.775513,206.629745 1942.303711,201.644089 1942.362793,195.545242 
	C1942.582397,172.906372 1941.628052,150.259109 1941.411255,127.612160 
	C1941.203857,105.950401 1941.610840,84.280617 1941.213989,62.624130 
	C1941.096313,56.194454 1939.845581,49.590431 1937.939941,43.429413 
	C1934.040894,30.823208 1924.354492,28.070242 1914.020142,36.141502 
	C1905.001831,43.184761 1900.947266,53.131462 1897.844360,63.729656 
	C1892.284668,82.719902 1890.949097,102.268936 1890.869507,121.813858 
	C1890.786987,142.074341 1891.394165,162.448868 1896.091553,182.301758 
	C1897.792725,189.491211 1900.957764,196.394714 1903.978882,203.195877 
	C1907.571411,211.282913 1914.281372,214.919128 1923.054321,214.956833 
	C1924.671875,214.963776 1926.288330,215.247070 1928.444580,215.454773 
	C1928.444580,219.641663 1928.444580,223.493607 1928.444580,227.363068 
	C1912.528320,230.719498 1902.184937,226.887787 1893.077515,212.814056 
	C1887.565430,204.296005 1884.476685,194.713455 1882.586304,184.479034 
	C1877.067139,154.599411 1877.121582,124.617500 1878.382812,94.445770 
	C1879.055420,78.358749 1882.682007,63.064991 1888.510620,48.362743 
	C1891.328979,41.253639 1896.187012,34.751434 1901.020752,28.691729 
	C1907.746826,20.259766 1918.134033,19.446405 1927.802490,18.810474 
	C1935.987183,18.272135 1944.461060,18.932198 1952.524170,20.508278 
	C1963.887329,22.729439 1971.069092,30.611731 1973.741455,41.640957 
	C1975.510742,48.943241 1976.198364,56.661041 1976.248779,64.200340 
	C1976.494019,100.860428 1976.279785,137.523376 1976.430664,174.184464 
	C1976.460693,181.482574 1977.051636,188.817841 1977.962524,196.063202 
	C1979.188843,205.816010 1985.669434,213.056137 1994.917114,213.831970 
	C2004.427612,214.629852 2014.057251,214.009048 2024.562866,214.009048 
	C2022.506104,211.579575 2020.840210,209.357193 2018.918457,207.384201 
	C2008.633301,196.825562 2004.536743,183.033646 2000.577393,169.611237 
	C1998.109009,161.243546 1998.515381,151.888412 1998.478027,142.972839 
	C1998.405518,125.662788 1998.634399,108.338608 1999.316406,91.043076 
	C1999.725952,80.656372 2000.077637,70.037636 2002.476929,60.006676 
	C2007.571411,38.707100 2017.441162,24.359198 2043.090088,20.521307 
	C2057.776611,18.323750 2072.984863,18.748137 2087.916260,19.250084 
	C2112.157471,20.065008 2133.228516,38.045216 2132.968994,68.192642 
	C2132.087646,170.504578 2132.633057,272.828766 2132.633545,375.148285 
	C2132.633545,423.141815 2132.628418,471.135315 2132.645508,519.128845 
	C2132.646484,522.457642 2132.610840,525.806702 2132.939453,529.111816 
	C2134.508545,544.881592 2142.297363,553.780640 2159.012451,558.139771 
z"/>
<path fill="#0A0A0A" opacity="1.000000" stroke="none" 
	d="
M81.992584,32.621437 
	C63.530247,35.979412 52.981972,48.964542 44.714283,64.140633 
	C34.695435,82.531128 31.259012,102.592682 31.452740,123.386017 
	C31.661339,145.775665 35.437206,167.490219 43.706562,188.338593 
	C45.377975,192.552505 47.019184,196.958725 49.635666,200.582092 
	C56.256012,209.750107 64.186020,217.111313 77.625748,214.538528 
	C77.625748,219.461166 77.625748,223.529877 77.625748,227.901245 
	C59.854256,230.762405 46.649250,224.403839 36.869423,209.113953 
	C29.532412,197.643188 24.898390,185.204926 22.357975,172.163101 
	C17.990559,149.741928 17.218773,127.012024 18.264389,104.143585 
	C19.380856,79.725594 28.813505,58.800610 43.545345,39.995235 
	C55.552139,24.668427 72.380562,18.857962 91.160004,18.648058 
	C121.485672,18.309099 151.817993,18.557337 182.147446,18.600620 
	C183.082077,18.601955 184.016006,19.080292 185.396820,19.458582 
	C185.396820,23.299593 185.396820,27.104958 185.396820,31.888969 
	C181.733459,31.888969 178.483231,31.885323 175.233017,31.889593 
	C160.235107,31.909292 145.228928,31.628799 130.241684,32.039211 
	C115.879311,32.432514 106.966064,40.493011 105.990204,54.753567 
	C105.151627,67.007874 105.279205,79.399330 106.005920,91.669357 
	C106.705070,103.474304 114.212494,110.911011 125.958931,112.873543 
	C129.870148,113.527008 133.912613,113.564934 137.896484,113.583565 
	C153.824936,113.658081 169.753906,113.614326 186.165298,113.614326 
	C186.165298,117.884300 186.165298,121.436996 186.165298,125.793556 
	C183.954269,125.973206 181.417618,126.347473 178.879501,126.357697 
	C164.548019,126.415436 150.214783,126.273438 135.885361,126.454620 
	C131.599747,126.508812 127.215279,126.942062 123.066154,127.969276 
	C112.968010,130.469345 106.714119,137.451447 106.133430,147.517822 
	C105.272469,162.442856 105.101280,177.511444 106.146996,192.412918 
	C107.150299,206.710083 116.116379,214.498840 130.504578,214.757141 
	C152.494797,215.151901 174.517838,215.466736 196.487244,214.691208 
	C212.524109,214.125092 222.983459,205.346191 229.047989,189.993210 
	C231.343246,184.182495 232.223068,178.815506 232.249054,173.000168 
	C232.435272,131.343704 232.542831,89.686836 232.629318,48.030003 
	C232.639252,43.247070 232.541504,38.840179 234.132416,33.861717 
	C236.755661,25.652763 242.475098,21.824640 249.296356,20.427731 
	C266.659302,16.872017 284.352112,17.525146 301.746735,20.408531 
	C310.051331,21.785122 315.680847,28.009117 317.595215,36.342659 
	C318.991913,42.422726 319.768158,48.782490 319.786407,55.020603 
	C319.949249,110.680466 319.886047,166.341003 319.865204,222.001343 
	C319.864471,223.922348 319.609650,225.843277 319.442780,228.193527 
	C307.707764,228.193527 296.484772,228.193527 283.949341,228.193527 
	C283.949341,224.670761 283.949371,221.134735 283.949310,217.598724 
	C283.948334,164.271454 283.918762,110.944145 283.977020,57.616932 
	C283.985809,49.592697 282.643982,42.251133 277.244812,35.803516 
	C275.088013,33.227890 273.054230,31.827011 269.813568,31.893991 
	C266.482056,31.962849 263.135559,31.726679 259.817749,31.951149 
	C253.223831,32.397274 249.559448,35.160248 248.059479,42.056568 
	C246.797882,47.856979 246.159744,53.903259 246.134613,59.844452 
	C245.971115,98.506035 246.172180,137.169189 245.998276,175.830688 
	C245.912918,194.807007 238.871872,210.841721 222.832672,221.522125 
	C217.327957,225.187668 210.071609,227.981934 203.566269,228.085602 
	C172.940277,228.573654 142.221146,229.198105 111.692177,227.278168 
	C96.348480,226.313217 84.186974,216.016022 75.790154,202.508179 
	C71.541466,195.673370 69.796928,188.247543 69.959923,180.267197 
	C70.163658,170.291855 69.522003,160.220444 70.748238,150.377731 
	C71.370781,145.380722 74.550934,140.177429 77.894890,136.168472 
	C82.802353,130.285095 88.892914,125.388573 94.419975,120.128113 
	C89.293594,114.921692 84.894226,109.645554 79.681084,105.359131 
	C72.825500,99.722244 70.349075,92.604820 70.250710,84.184769 
	C70.180656,78.187912 70.152191,72.188179 69.933800,66.195969 
	C69.519096,54.817139 72.389397,44.895317 83.010529,37.138927 
	C85.215591,35.454342 86.450485,34.470802 89.471886,32.064377 
	C85.417801,32.366325 83.705193,32.493881 81.992584,32.621437 
z"/>
<path fill="#080808" opacity="1.000000" stroke="none" 
	d="
M474.326233,209.206299 
	C477.537781,211.404160 480.343475,214.021271 483.188660,214.064911 
	C505.445557,214.406403 527.710022,214.254013 551.339722,214.254013 
	C543.410156,199.715500 533.310486,190.714233 516.142944,192.184937 
	C516.142944,187.632568 516.142944,183.767441 516.142944,179.007721 
	C526.867065,177.096237 536.518555,180.384033 545.359070,185.258881 
	C551.919983,188.876724 557.810242,193.958023 563.382996,199.060471 
	C570.959717,205.997803 578.546570,212.708054 589.096863,215.915344 
	C589.277832,219.672226 589.449463,223.234268 589.658447,227.573303 
	C586.876404,227.859161 584.345459,228.342728 581.813965,228.345825 
	C542.828369,228.393463 503.842682,228.398117 464.857086,228.348602 
	C460.874573,228.343536 456.890564,227.957031 452.910767,227.694046 
	C445.481689,227.203171 439.387207,221.903046 438.408630,214.543823 
	C437.664948,208.951233 437.208557,203.277115 437.194061,197.637817 
	C437.092834,158.319214 437.215881,118.999969 437.087402,79.681519 
	C437.054840,69.710915 436.609344,59.724281 435.846069,49.783981 
	C435.615570,46.782223 433.638000,43.926014 432.528625,40.977566 
	C430.998352,36.910450 429.180756,32.729031 424.390747,32.150356 
	C418.346649,31.420185 412.475098,32.585949 407.774902,36.948761 
	C398.354889,45.692570 394.744293,57.453423 391.963135,69.328270 
	C386.085327,94.425133 385.179321,119.925789 387.092712,145.571167 
	C388.223450,160.726929 388.638580,175.988770 393.791229,190.531921 
	C395.104950,194.239929 396.457642,197.978210 398.261169,201.459763 
	C402.494843,209.632477 408.582123,215.212296 418.576080,214.773682 
	C419.861938,214.717255 421.173950,215.147308 422.465027,215.397400 
	C422.777252,215.457886 423.054504,215.699036 423.963196,216.188690 
	C423.963196,219.660263 423.963196,223.468033 423.963196,227.236877 
	C402.579132,232.167175 390.877838,221.058624 381.915558,199.850067 
	C375.666809,185.062973 375.672943,169.434082 374.042908,154.051666 
	C371.866241,133.511032 373.091614,112.893509 373.970032,92.271309 
	C374.675995,75.698334 378.107483,59.902290 385.244354,45.197269 
	C396.601593,21.796537 407.547302,18.008713 435.962189,18.861877 
	C440.217651,18.989651 444.546173,19.632698 448.668396,20.702320 
	C461.570648,24.050167 470.100555,34.774242 471.733429,49.643131 
	C472.313660,54.926334 472.407196,60.282715 472.413757,65.606071 
	C472.465668,107.590561 472.386932,149.575317 472.509064,191.559509 
	C472.525421,197.185471 473.440063,202.808807 474.326233,209.206299 
z"/>
<path fill="#CEB794" opacity="1.000000" stroke="none" 
	d="
M1760.010376,191.870239 
	C1769.000610,191.947067 1777.991455,192.126572 1786.981079,192.079468 
	C1806.111206,191.979233 1821.938477,175.958679 1822.082642,156.662903 
	C1822.112549,152.666183 1822.419678,148.636322 1822.025879,144.678757 
	C1821.139038,135.765076 1823.398193,128.279663 1830.622070,122.553162 
	C1831.846191,121.582794 1832.595093,120.013191 1834.322632,117.707199 
	C1835.143066,120.270477 1836.098022,121.882278 1836.108398,123.500153 
	C1836.202393,138.154465 1836.602417,152.829086 1836.005493,167.460754 
	C1834.925537,193.928726 1815.527832,219.608810 1791.243408,226.209641 
	C1787.442383,227.242798 1783.442139,228.021744 1779.524292,228.066574 
	C1759.875122,228.291428 1740.222778,228.252975 1720.571533,228.256058 
	C1716.956787,228.256622 1712.849365,228.862503 1710.939575,224.712219 
	C1709.001343,220.500198 1711.129761,216.792038 1713.789307,213.795502 
	C1721.727417,204.851898 1729.902588,196.117569 1738.025513,187.338913 
	C1756.747314,167.105499 1773.481445,145.326965 1787.195190,121.429222 
	C1794.076782,109.437538 1800.957397,96.851173 1799.683594,82.332985 
	C1798.972046,74.222290 1797.426514,65.743484 1794.125244,58.386993 
	C1785.488647,39.140671 1762.619751,33.129601 1744.276489,48.718937 
	C1732.931519,58.360653 1726.388916,70.796387 1725.971069,86.034935 
	C1725.909058,88.294022 1725.560303,90.545242 1725.289062,93.375610 
	C1720.995850,93.375610 1717.171265,93.375610 1712.484985,93.375610 
	C1710.940430,77.549034 1711.704712,62.623810 1720.368286,48.576473 
	C1727.360107,37.239841 1735.891846,27.883575 1748.338013,22.876297 
	C1770.744385,13.861740 1801.715210,16.394934 1820.521484,36.047394 
	C1836.135620,52.364445 1841.286865,78.698959 1831.456787,98.965996 
	C1822.975830,116.451309 1811.531006,131.864777 1798.604736,146.193222 
	C1785.921143,160.252792 1772.839111,173.952972 1759.227051,188.665268 
	C1758.167358,190.157471 1757.812378,190.795273 1757.457397,191.433044 
	C1758.308350,191.578781 1759.159424,191.724518 1760.010376,191.870239 
z"/>
<path fill="#080808" opacity="1.000000" stroke="none" 
	d="
M2718.014160,191.834045 
	C2728.332764,191.944458 2738.661377,191.811203 2748.966309,192.248291 
	C2756.209473,192.555511 2761.571045,188.664307 2766.296875,184.472565 
	C2775.080811,176.681259 2781.705322,167.437042 2780.236084,154.573364 
	C2779.860352,151.284286 2780.673096,147.827148 2780.092041,144.599731 
	C2777.982910,132.880936 2785.183105,125.669441 2792.764648,116.962082 
	C2793.498535,119.771721 2794.306152,121.443665 2794.314453,123.119484 
	C2794.378906,136.446442 2794.664795,149.787933 2794.172119,163.098618 
	C2793.174561,190.048477 2781.339355,210.706848 2756.871826,222.914520 
	C2750.916504,225.885742 2743.833740,227.733322 2737.191162,227.977921 
	C2717.225342,228.713120 2697.220215,228.470306 2677.231201,228.422989 
	C2674.344238,228.416153 2671.459717,227.387482 2668.742188,226.864090 
	C2667.624023,222.743973 2667.366455,219.566284 2670.590820,216.502594 
	C2674.164551,213.106964 2676.863281,208.805649 2680.332520,205.282181 
	C2707.217285,177.975235 2730.281250,147.689072 2748.837158,114.249977 
	C2754.794678,103.513695 2760.733398,91.539696 2757.682129,78.219048 
	C2755.897461,70.426811 2754.637207,61.901428 2750.506348,55.373051 
	C2737.465332,34.763039 2717.210205,36.371826 2701.687988,49.069332 
	C2688.148438,60.144779 2683.009277,75.154602 2683.913330,93.140808 
	C2679.420654,93.140808 2675.301025,93.140808 2669.750977,93.140808 
	C2669.580078,78.479660 2669.576660,63.539124 2677.596924,49.735840 
	C2683.790771,39.075573 2691.799805,30.082375 2702.881836,24.585850 
	C2720.555176,15.819942 2738.929443,16.327358 2757.137695,22.722073 
	C2787.146484,33.261333 2804.725830,68.959633 2787.546875,102.258026 
	C2781.691650,113.607613 2774.406006,124.536217 2766.121094,134.246918 
	C2750.823730,152.176483 2734.305176,169.064178 2717.477539,187.285416 
	C2715.843750,189.167740 2715.027588,190.150543 2713.629883,191.834030 
	C2715.613525,191.834030 2716.813965,191.834030 2718.014160,191.834045 
z"/>
<path fill="#080808" opacity="1.000000" stroke="none" 
	d="
M567.686829,46.425194 
	C562.388000,41.842178 558.310608,37.426426 551.786316,35.076962 
	C531.389893,27.731947 512.174988,37.311600 508.026154,58.184723 
	C506.934143,63.678776 506.456543,69.294945 505.617462,75.435242 
	C502.088898,75.435242 498.556427,75.435242 493.826141,75.435242 
	C492.981110,60.311771 492.842194,45.222607 503.113098,32.196957 
	C509.583069,23.991737 519.001953,21.044548 528.737366,19.778036 
	C550.790588,16.909061 571.069397,20.525698 586.779907,38.309422 
	C591.069214,34.741528 594.815918,31.104488 599.076599,28.229242 
	C603.226379,25.428852 607.655090,22.262917 612.389465,21.240658 
	C634.382690,16.491852 655.509766,17.312384 674.753418,31.432077 
	C685.264038,39.144051 690.989197,49.474243 693.701965,61.476654 
	C695.501465,69.438515 695.809937,77.858307 695.846985,86.077324 
	C696.042053,129.366882 695.938354,172.657791 695.938293,215.948227 
	C695.938293,219.568512 695.938293,223.188812 695.938293,227.885956 
	C684.014954,228.813080 672.625488,228.294861 660.308411,228.273102 
	C660.308411,224.150131 660.308411,220.907623 660.308411,217.665131 
	C660.308472,171.710663 660.297729,125.756187 660.316406,79.801727 
	C660.320984,68.660133 659.444214,57.852039 654.328979,47.501812 
	C649.783142,38.303860 641.720825,34.069317 632.954163,32.450417 
	C618.444580,29.770981 607.184082,36.431381 599.352478,48.659012 
	C594.234131,56.650265 589.508545,64.893013 584.030701,73.978989 
	C578.505798,64.590446 573.329529,55.794327 567.686829,46.425194 
z"/>
<path fill="#B5B5B5" opacity="1.000000" stroke="none" 
	d="
M82.281876,33.647850 
	C83.705193,32.493881 85.417801,32.366325 89.471886,32.064377 
	C86.450485,34.470802 85.215591,35.454342 83.412880,36.613647 
	C82.753761,36.084366 82.662468,35.379318 82.281876,33.647850 
z"/>
<path fill="#EFEFEF" opacity="1.000000" stroke="none" 
	d="
M2718.008057,191.131866 
	C2716.813965,191.834030 2715.613525,191.834030 2713.629883,191.834030 
	C2715.027588,190.150543 2715.843750,189.167740 2717.247070,187.906158 
	C2717.890137,188.561493 2717.946045,189.495590 2718.008057,191.131866 
z"/>
<path fill="#FCF8F5" opacity="1.000000" stroke="none" 
	d="
M1759.918213,191.159927 
	C1759.159424,191.724518 1758.308350,191.578781 1757.457397,191.433044 
	C1757.812378,190.795273 1758.167358,190.157471 1759.023193,189.284470 
	C1759.624634,189.516052 1759.725342,189.982819 1759.918213,191.159927 
z"/>
<path fill="#FCF8F5" opacity="1.000000" stroke="none" 
	d="
M1216.703125,202.233124 
	C1216.461182,192.596436 1216.461182,183.771317 1216.461182,173.435745 
	C1229.096558,180.204285 1237.879639,188.290283 1239.569580,202.159882 
	C1240.381226,208.819641 1238.398438,213.630295 1234.606445,215.175552 
	C1230.470947,216.860794 1223.128662,214.124390 1219.817871,209.347015 
	C1218.523682,207.479492 1217.883301,205.158905 1216.703125,202.233124 
z"/>
<path fill="#EBCCB7" opacity="1.000000" stroke="none" 
	d="
M1258.046753,544.362427 
	C1254.571289,545.652466 1251.095825,546.942505 1247.620361,548.232605 
	C1247.390747,547.574951 1247.161011,546.917297 1246.931396,546.259644 
	C1250.078369,544.792175 1253.225220,543.324707 1257.103638,542.457581 
	C1257.905640,543.492737 1257.976196,543.927551 1258.046753,544.362427 
z"/>
<path fill="#FFFFFF" opacity="1.000000" stroke="none" 
	d="
M1258.745483,544.095459 
	C1257.976196,543.927551 1257.905640,543.492737 1257.805054,542.397461 
	C1258.331421,542.434204 1258.887817,543.131287 1258.745483,544.095459 
z"/>
</svg>