<svg version="1.1" id="Layer_1" xmlns="http://www.w3.org/2000/svg" xmlns:xlink="http://www.w3.org/1999/xlink" x="0px" y="0px"
	 width="100%" viewBox="0 0 2630 662" enable-background="new 0 0 2630 662" xml:space="preserve">
<path fill="#FFFFFF" opacity="1.000000" stroke="none" 
	d="
M1696.000000,1664.000000 
	C1130.732300,1664.000000 566.464600,1664.000000 2.098438,1664.000000 
	C2.098438,1110.130005 2.098438,556.260132 2.098438,2.195075 
	C878.434631,2.195075 1754.869263,2.195075 2631.651855,2.195075 
	C2631.651855,555.999817 2631.651855,1109.999878 2631.651855,1664.000000 
	C2320.259521,1664.000000 2008.629761,1664.000000 1696.000000,1664.000000 
M839.325500,315.080902 
	C845.989014,315.081085 852.652466,315.082245 859.315979,315.081268 
	C880.987000,315.078033 881.055359,315.033234 881.061035,293.518951 
	C881.075256,239.202057 881.066284,184.885147 881.066589,130.568253 
	C881.066589,126.691002 881.066650,122.813751 881.066650,118.404121 
	C895.410461,117.413742 908.380920,117.715340 921.011414,120.659050 
	C931.673950,123.144089 938.163696,130.729355 940.077576,141.535843 
	C941.174988,147.732376 941.739075,154.103577 941.756836,160.398346 
	C941.891357,208.050217 941.831055,255.702637 941.831543,303.354889 
	C941.831604,306.914124 941.831543,310.473328 941.831543,314.379517 
	C954.142883,314.379517 965.289124,314.379517 977.028381,314.379517 
	C977.232605,310.804291 977.542542,307.890747 977.544189,304.976990 
	C977.572144,255.325348 977.578918,205.673691 977.530090,156.022095 
	C977.525818,151.700729 977.407043,147.337555 976.819458,143.065582 
	C973.303040,117.499123 960.022644,105.533760 934.234314,104.483704 
	C932.903076,104.429512 931.568970,104.431564 930.236206,104.431343 
	C907.909607,104.427528 885.583069,104.411339 863.256531,104.452805 
	C861.122437,104.456772 858.989014,104.825775 855.431946,105.158424 
	C864.508423,114.626816 867.012146,124.915039 866.982788,136.270966 
	C866.851807,186.921967 866.954163,237.573532 866.863953,288.224731 
	C866.857117,292.064148 866.004517,295.902069 865.455078,300.492249 
	C860.592163,300.226685 856.791504,300.019104 852.302673,299.773956 
	C852.025696,294.632446 851.607117,290.384827 851.598572,286.136444 
	C851.539795,256.812103 851.571289,227.487595 851.563721,198.163132 
	C851.559875,183.167847 851.870422,168.163025 851.444153,153.179428 
	C850.746094,128.639725 836.872070,103.903519 801.228271,104.376869 
	C780.904663,104.646759 760.574463,104.467690 740.247437,104.415543 
	C725.737854,104.378326 713.723389,109.513885 704.174072,120.669533 
	C696.260010,129.914841 691.875305,140.306686 691.879333,152.524689 
	C691.887390,176.850464 691.849854,201.176239 691.831970,225.502014 
	C691.829346,229.030624 691.831543,232.559235 691.831543,236.414505 
	C672.013000,232.747482 653.562500,229.333588 634.023682,225.718307 
	C634.023682,222.878464 634.023621,219.617401 634.023621,216.356323 
	C634.023560,197.362076 634.040161,178.367798 634.014893,159.373581 
	C634.005615,152.376419 634.218323,145.358978 633.773987,138.386185 
	C632.479736,118.074417 622.321716,107.214615 602.225647,104.949844 
	C595.642151,104.207916 588.899475,104.281143 582.270569,104.673683 
	C570.997070,105.341270 562.084839,110.534065 555.216553,119.621986 
	C549.080811,127.740555 544.901489,136.725128 542.247498,146.427765 
	C530.654236,188.810776 531.852417,231.428421 540.951904,273.964355 
	C542.728149,282.267456 546.546265,290.402985 550.766846,297.854462 
	C558.177795,310.938568 570.774597,316.266052 585.312073,313.785828 
	C585.312073,309.672882 585.312073,305.555695 585.312073,301.566193 
	C566.705383,298.945770 561.869568,294.944580 555.927429,277.447601 
	C554.645508,273.673035 553.394592,269.832428 552.705811,265.920746 
	C547.181702,234.547241 546.045288,202.997696 550.459656,171.434143 
	C552.346985,157.939117 555.329163,144.535095 562.313721,132.472458 
	C565.552124,126.879539 569.560791,122.148468 575.747681,119.584198 
	C585.418030,115.576149 593.435181,118.881287 595.934143,128.874725 
	C597.448181,134.929626 597.995911,141.365326 598.015198,147.632904 
	C598.175232,199.616684 598.110535,251.601181 598.113770,303.585449 
	C598.113953,307.117523 598.113770,310.649628 598.113770,314.517700 
	C610.627380,314.517700 621.811584,314.517700 634.072266,314.517700 
	C634.072266,290.150238 634.072266,266.316833 634.072266,241.628922 
	C654.593262,241.826248 673.128967,245.749969 692.336853,253.277176 
	C692.336853,265.029968 691.922119,276.663483 692.438049,288.255585 
	C693.139709,304.019104 703.439270,314.198700 718.979370,315.432037 
	C732.173828,316.479279 740.752014,309.287750 742.010437,296.178558 
	C743.408386,281.616272 739.185303,269.041046 728.060059,259.409027 
	C722.567200,254.653381 716.432373,250.538879 710.200989,246.774994 
	C706.600464,244.600266 704.999756,242.225586 705.024292,238.063919 
	C705.197144,208.741928 704.796753,179.409698 705.440186,150.099655 
	C705.892700,129.488495 716.758667,119.059799 737.329529,118.078384 
	C748.640442,117.538742 759.991882,117.272614 771.305786,117.583557 
	C778.235779,117.774017 785.354065,118.498718 791.991577,120.380707 
	C804.978638,124.063019 813.123962,132.649612 814.516296,146.601913 
	C815.044189,151.892426 815.634521,157.208344 815.645691,162.513824 
	C815.736511,205.833862 815.695862,249.154175 815.699219,292.474396 
	C815.699524,295.806610 815.646240,299.141754 815.762085,302.470520 
	C816.105408,312.337891 817.314514,313.646729 827.454956,314.708832 
	C830.757141,315.054688 834.104675,314.967743 839.325500,315.080902 
M1748.331055,278.993378 
	C1748.435669,226.010773 1748.539307,173.028152 1748.667480,120.045616 
	C1748.668213,119.776817 1749.003784,119.500984 1749.201538,119.242775 
	C1749.403931,118.978546 1749.629517,118.731995 1750.028687,118.261086 
	C1757.154663,118.261086 1764.474609,118.043777 1771.774048,118.336487 
	C1776.748779,118.535973 1781.738525,119.206673 1786.645020,120.091164 
	C1797.937378,122.126884 1806.334106,130.664764 1808.058716,142.288879 
	C1808.934326,148.191742 1809.094727,154.241470 1809.104614,160.225601 
	C1809.183960,207.882889 1809.149536,255.540359 1809.150146,303.197784 
	C1809.150269,306.762024 1809.150146,310.326294 1809.150146,314.862823 
	C1821.770264,314.541473 1833.214355,315.546326 1844.751953,314.264740 
	C1844.950073,311.276611 1845.194946,309.296844 1845.195679,307.316986 
	C1845.215210,257.326691 1845.251953,207.336319 1845.151489,157.346222 
	C1845.139526,151.366348 1844.639404,145.351974 1843.880249,139.415634 
	C1841.468750,120.558983 1829.861572,108.646141 1811.069580,105.686111 
	C1806.482300,104.963547 1801.796021,104.578346 1797.152588,104.553810 
	C1775.157471,104.437637 1753.161377,104.489723 1731.165649,104.515350 
	C1729.000122,104.517876 1726.834839,104.748543 1721.917480,105.031876 
	C1735.788086,116.900421 1734.800537,131.094116 1734.793945,145.061234 
	C1734.772461,191.052307 1734.793945,237.043381 1734.768555,283.034454 
	C1734.766602,286.694794 1734.547241,290.355682 1734.400879,294.015167 
	C1734.197876,299.095459 1731.404419,301.144073 1726.526367,300.561584 
	C1724.610840,300.332855 1722.722534,299.877289 1720.011230,299.374847 
	C1719.735596,294.528534 1719.257446,289.963440 1719.250732,285.397614 
	C1719.191040,244.738937 1719.247437,204.080063 1719.174194,163.421432 
	C1719.164551,158.107468 1718.848633,152.769012 1718.274658,147.485367 
	C1715.376953,120.817070 1698.894775,105.237846 1672.011597,104.612312 
	C1650.360840,104.108536 1628.689087,104.483650 1607.026611,104.518707 
	C1592.052734,104.542938 1580.010864,110.564308 1570.646973,122.244553 
	C1563.269531,131.447220 1559.626953,141.820892 1559.664795,153.618668 
	C1559.741577,177.613739 1559.675903,201.609238 1559.669312,225.604568 
	C1559.668213,229.161301 1559.669067,232.718048 1559.669067,236.545639 
	C1539.813477,232.844315 1521.111450,229.358032 1501.871338,225.771469 
	C1501.871338,222.398209 1501.871582,219.085251 1501.871460,215.772293 
	C1501.870728,193.443298 1502.020508,171.112640 1501.776123,148.786331 
	C1501.703735,142.166321 1501.273560,135.371979 1499.689209,128.984467 
	C1496.537720,116.279518 1488.531006,107.857224 1475.110596,105.946655 
	C1468.544189,105.011848 1461.858643,104.736565 1455.216187,104.547714 
	C1438.573608,104.074570 1426.631592,111.793045 1418.497314,126.029243 
	C1412.134888,137.164764 1408.545654,149.255936 1406.105469,161.719543 
	C1400.083618,192.478180 1401.115356,223.413406 1404.729858,254.280746 
	C1406.474609,269.179718 1409.999146,283.794250 1417.900757,296.929504 
	C1425.903320,310.232727 1437.457153,316.101715 1453.157715,314.319336 
	C1453.157715,309.709473 1453.157715,305.624054 1453.157715,301.587158 
	C1451.515015,301.235046 1450.547729,300.809906 1449.604858,300.858612 
	C1437.385010,301.489960 1430.403687,294.553101 1426.181885,284.205078 
	C1423.803955,278.376801 1421.572754,272.327881 1420.476074,266.164764 
	C1414.834351,234.463394 1413.823975,202.551453 1418.292114,170.643356 
	C1420.182739,157.141983 1422.948608,143.584198 1430.541504,131.878616 
	C1433.355957,127.539795 1437.128540,123.235664 1441.483398,120.599472 
	C1452.011353,114.226395 1461.404785,118.471085 1464.135986,130.544388 
	C1465.443848,136.325684 1465.883667,142.410660 1465.898926,148.360184 
	C1466.031982,200.016495 1465.979248,251.673279 1465.981812,303.329926 
	C1465.981934,306.878510 1465.981934,310.427094 1465.981934,314.726624 
	C1478.568237,314.748291 1489.995117,315.398224 1501.871338,314.256439 
	C1501.871338,301.228058 1501.817749,289.251465 1501.886597,277.275604 
	C1501.954712,265.432892 1501.575684,253.565765 1502.149170,241.817657 
	C1522.466187,241.523560 1547.877441,247.061203 1559.761963,254.322906 
	C1559.761963,259.239868 1559.711914,264.548157 1559.775635,269.855072 
	C1559.843750,275.519073 1559.612061,281.229706 1560.271240,286.830597 
	C1560.844849,291.705231 1561.751831,296.790253 1563.785278,301.194183 
	C1568.829956,312.120117 1583.069580,317.907318 1595.273682,314.691650 
	C1605.431152,312.015259 1610.258057,304.014313 1609.948486,290.465057 
	C1609.592285,274.880768 1602.034424,263.243378 1589.828125,254.349762 
	C1584.237915,250.276642 1578.234131,246.770981 1572.401733,242.997482 
	C1572.401733,212.981934 1572.390503,183.330170 1572.426880,153.678482 
	C1572.429321,151.688522 1572.752441,149.694260 1572.992554,147.709991 
	C1575.289673,128.721390 1585.395386,119.007317 1604.361572,118.086411 
	C1615.674561,117.537094 1627.041748,116.976891 1638.334229,117.503220 
	C1646.545654,117.885941 1654.934082,119.194374 1662.779297,121.602470 
	C1674.306763,125.140762 1680.755737,133.840775 1682.249146,145.829636 
	C1682.905884,151.101669 1683.104980,156.459549 1683.112793,161.779053 
	C1683.177979,206.103668 1683.148071,250.428452 1683.154541,294.753174 
	C1683.154907,297.751923 1683.047363,300.764130 1683.283813,303.746796 
	C1683.930542,311.902588 1685.417114,313.948883 1693.476074,314.238007 
	C1708.450195,314.775085 1723.454712,314.870178 1738.437012,314.607574 
	C1746.314941,314.469513 1747.756592,312.731720 1748.087158,304.977997 
	C1748.427612,296.992523 1748.270508,288.985870 1748.331055,278.993378 
M481.446442,290.952240 
	C481.446167,247.288086 481.511688,203.623749 481.381134,159.959991 
	C481.359253,152.650146 481.097961,145.239990 479.888855,138.054291 
	C476.684387,119.009933 464.972137,106.863350 445.880157,105.814407 
	C422.655853,104.538422 399.258789,104.557358 376.030304,105.787857 
	C357.191254,106.785828 344.084198,119.089691 339.630829,137.565094 
	C337.861847,144.903976 337.474731,152.711227 337.438232,160.309937 
	C337.238037,201.974319 337.386169,243.640274 337.281555,285.305359 
	C337.269379,290.155640 336.436401,295.003876 336.018921,299.478333 
	C323.146637,301.977905 321.874115,301.021637 321.475922,289.614136 
	C321.382965,286.950623 321.447357,284.281433 321.447266,281.614868 
	C321.446045,237.616257 321.515686,193.617447 321.382050,149.619247 
	C321.357788,141.638367 320.947632,133.602600 319.928711,125.693542 
	C318.283295,112.921349 312.037170,106.160736 299.241760,105.350471 
	C284.323853,104.405800 269.255005,104.388535 254.337585,105.330307 
	C241.181458,106.160881 235.320129,112.705444 233.976318,125.677139 
	C233.119293,133.950180 232.647110,142.298508 232.615112,150.615448 
	C232.472748,187.613739 231.931686,224.627319 232.794388,261.605988 
	C233.272751,282.110352 213.002731,302.321716 193.448868,301.055084 
	C181.830597,300.302460 170.125443,300.926239 158.459732,300.860809 
	C146.999557,300.796539 138.101822,295.648224 130.845856,287.032837 
	C124.527031,279.530151 121.956398,270.966400 121.991776,261.229553 
	C122.124954,224.564514 122.050613,187.898727 122.030426,151.233215 
	C122.028038,146.901367 122.175537,142.540253 121.749039,138.242767 
	C119.799919,118.602524 110.131508,106.336746 89.963234,105.141815 
	C86.974068,104.964706 83.989067,104.602791 80.999321,104.567856 
	C55.778381,104.273140 43.071857,112.833633 33.810944,136.403473 
	C32.353374,140.113129 30.829466,143.876999 30.053459,147.759155 
	C27.710493,159.480377 25.067585,171.198074 23.722395,183.051163 
	C20.392416,212.393143 22.186794,241.594666 28.072134,270.515839 
	C30.211355,281.028168 33.890190,291.057709 40.111992,299.883820 
	C48.300297,311.499573 59.461727,316.280975 73.557678,314.035553 
	C73.557678,309.504089 73.557678,305.622559 73.557678,300.991760 
	C59.087276,302.462860 50.482681,295.333130 45.863926,282.751404 
	C43.804413,277.141174 41.600956,271.457916 40.581478,265.612701 
	C35.107235,234.226135 34.038158,202.643738 38.422379,171.056931 
	C40.250488,157.886002 43.240662,144.838974 49.919430,133.036270 
	C53.435642,126.822449 57.823505,121.445839 64.839340,118.953018 
	C74.522255,115.512535 81.567719,118.740036 84.010536,128.609390 
	C85.507759,134.658386 86.002296,141.084824 86.033150,147.346252 
	C86.213814,184.010895 86.116119,220.676834 86.139206,257.342346 
	C86.141724,261.339630 86.124985,265.352051 86.442787,269.331451 
	C88.084709,289.890411 105.214218,316.243988 135.408127,314.844116 
	C156.695160,313.857239 178.065201,314.550507 199.397064,314.679413 
	C213.847610,314.766754 224.980774,308.534698 233.834930,297.522064 
	C242.590332,286.632233 245.914734,274.044250 245.892395,260.283783 
	C245.830688,222.285080 245.860779,184.286194 245.891815,146.287430 
	C245.895065,142.292908 245.823395,138.256210 246.341278,134.311935 
	C248.032394,121.432129 252.229172,117.906197 265.303345,117.881165 
	C266.969940,117.877975 268.639313,117.822464 270.302704,117.896347 
	C278.398895,118.255959 281.976562,120.432549 283.916809,128.418594 
	C285.465790,134.794006 286.009064,141.548630 286.032043,148.138321 
	C286.200439,196.469528 286.121429,244.801620 286.134186,293.133423 
	C286.135162,296.798767 286.054260,300.478851 286.338928,304.126495 
	C286.976135,312.291534 288.493164,314.133698 296.675751,314.338013 
	C311.665009,314.712372 326.670410,314.724884 341.663971,314.518372 
	C348.621948,314.422546 349.725220,313.151245 350.421783,306.348846 
	C350.895905,301.718933 351.029449,297.037476 351.034119,292.378784 
	C351.077576,249.046860 351.043213,205.714874 351.082947,162.382935 
	C351.087524,157.389099 351.220490,152.380875 351.613190,147.404526 
	C352.986084,130.008057 362.729004,119.502617 379.944824,118.329330 
	C392.216064,117.493027 404.652771,117.402817 416.904877,118.375198 
	C433.716522,119.709442 443.309052,130.535553 444.531677,143.735565 
	C445.022064,149.029739 445.721863,154.336212 445.732056,159.638229 
	C445.825104,207.969849 445.786957,256.301727 445.787140,304.633545 
	C445.787140,307.857483 445.787140,311.081421 445.787140,314.168884 
	C458.160858,314.168884 469.404480,314.168884 481.446442,314.168884 
	C481.446442,306.779205 481.446442,299.852386 481.446442,290.952240 
M1611.977783,365.435120 
	C1611.309204,371.361359 1610.120972,377.282593 1610.063843,383.214752 
	C1609.838989,406.540222 1609.987915,429.869141 1609.946045,453.196716 
	C1609.940796,456.068909 1609.621582,458.940521 1609.450806,461.765106 
	C1590.047119,458.057648 1571.298584,454.475403 1552.030762,450.793915 
	C1552.030762,437.063385 1552.058350,423.434265 1552.023560,409.805298 
	C1551.984497,394.476715 1552.398438,379.124878 1551.695923,363.825378 
	C1550.706421,342.271606 1538.904297,331.002686 1517.471924,330.085724 
	C1512.481934,329.872192 1507.476685,330.006317 1502.478516,329.986359 
	C1489.374878,329.933960 1479.020752,335.709442 1472.331543,346.527283 
	C1467.313599,354.642151 1462.871582,363.529175 1460.303711,372.670868 
	C1449.181519,412.267639 1450.011963,452.397888 1457.834473,492.386230 
	C1459.842773,502.652344 1463.946655,512.858215 1468.911255,522.113770 
	C1476.240845,535.778625 1488.655762,540.885010 1503.409912,538.278503 
	C1503.409912,534.516968 1503.409912,530.717712 1503.409912,526.700317 
	C1501.555664,526.455261 1500.272949,526.113770 1498.999023,526.144592 
	C1489.147827,526.383301 1482.509888,521.376160 1478.443237,512.940613 
	C1475.856201,507.574432 1473.276367,501.949219 1472.206299,496.160522 
	C1469.973511,484.081970 1468.346680,471.855682 1467.185059,459.622284 
	C1464.843872,434.965454 1465.188110,410.291870 1470.653931,386.059021 
	C1472.826660,376.425903 1476.537598,366.964478 1480.859863,358.061676 
	C1483.191040,353.260162 1487.683594,348.844482 1492.267944,345.936523 
	C1502.267822,339.593384 1511.631958,343.521667 1514.399414,354.923187 
	C1515.793701,360.667175 1516.174194,366.773285 1516.189575,372.717773 
	C1516.322998,424.371460 1516.269653,476.025604 1516.271606,527.679626 
	C1516.271729,531.246521 1516.271484,534.813416 1516.271484,539.140198 
	C1528.768921,539.689331 1540.141968,539.710266 1552.244385,539.204285 
	C1552.244385,514.241211 1552.244385,490.665161 1552.244385,466.215240 
	C1572.697021,467.053864 1591.579956,470.803284 1610.074097,478.403442 
	C1610.074097,489.090546 1609.782837,499.081635 1610.150391,509.048431 
	C1610.575684,520.579468 1614.580933,530.629456 1624.714844,537.150024 
	C1632.514038,542.168335 1641.020630,543.155151 1649.471924,539.058350 
	C1657.640869,535.098450 1659.908203,527.551025 1660.282227,519.092773 
	C1660.893677,505.267853 1656.471069,493.439972 1645.994263,484.334320 
	C1640.998901,479.992737 1635.634033,475.808655 1629.799805,472.779266 
	C1624.494751,470.024567 1623.049194,466.586548 1623.123535,460.964508 
	C1623.401733,439.973328 1623.181396,418.976074 1623.259277,397.981476 
	C1623.292725,388.988708 1623.070068,379.947754 1623.899780,371.015594 
	C1625.361084,355.283783 1635.285400,344.793488 1650.982544,344.009460 
	C1669.586670,343.080231 1688.299194,343.190094 1706.914795,343.998505 
	C1720.223633,344.576447 1728.949097,352.703247 1732.208252,365.788940 
	C1733.556519,371.202301 1734.003418,376.958923 1734.029907,382.563324 
	C1734.191895,416.887512 1733.994751,451.213562 1734.206177,485.537201 
	C1734.257202,493.826660 1734.653198,502.249512 1736.183594,510.367249 
	C1739.839600,529.759521 1748.945068,539.996521 1771.121826,539.598022 
	C1792.109863,539.220825 1813.110352,539.461182 1834.104858,539.554688 
	C1840.094727,539.581360 1846.141968,539.606873 1852.057861,540.408386 
	C1860.807739,541.593811 1863.716797,544.388550 1864.775757,553.063538 
	C1865.448853,558.577026 1866.031128,564.632751 1864.471680,569.784729 
	C1860.340698,583.432617 1855.953247,597.156677 1849.926758,610.035583 
	C1843.378784,624.028931 1834.867310,637.103455 1826.729492,651.428040 
	C1830.357544,651.133606 1834.562988,651.794983 1837.792480,650.319763 
	C1844.350342,647.324402 1851.309082,644.161133 1856.458862,639.318970 
	C1873.615479,623.187317 1886.653809,603.845154 1896.651001,582.571716 
	C1899.305420,576.923401 1901.073242,570.677979 1902.174072,564.514954 
	C1905.187256,547.643433 1897.511230,534.604187 1881.154785,529.927612 
	C1872.952393,527.582397 1864.171753,526.498718 1855.617798,526.292908 
	C1834.301758,525.780273 1812.963989,526.248718 1791.638184,526.021790 
	C1779.828735,525.896118 1773.660889,520.676636 1771.837524,509.155945 
	C1770.697998,501.955444 1770.153809,494.592072 1770.115479,487.297729 
	C1769.938477,453.640228 1770.045044,419.981262 1770.015747,386.322845 
	C1770.011597,381.659454 1770.102783,376.968933 1769.660767,372.337646 
	C1767.645264,351.217194 1752.353271,330.063477 1724.880371,330.006500 
	C1701.553223,329.958130 1678.225708,329.992950 1654.898438,330.012665 
	C1644.407349,330.021545 1635.434692,333.950928 1627.652588,340.797302 
	C1620.490234,347.098511 1615.553711,354.902740 1611.977783,365.435120 
M1203.062256,104.429054 
	C1196.740967,104.614548 1190.344360,104.250824 1184.114380,105.103226 
	C1172.227173,106.729660 1166.225708,112.525322 1164.281250,124.209503 
	C1163.084106,131.403397 1162.410278,138.761765 1162.348877,146.053406 
	C1162.124268,172.714203 1162.269165,199.377991 1162.244019,226.040619 
	C1162.236450,234.038605 1162.479370,242.057877 1161.993774,250.030014 
	C1160.921265,267.641235 1149.666992,277.889252 1131.987305,278.037720 
	C1122.913696,278.113922 1115.319336,273.768097 1107.537109,270.094940 
	C1098.203491,265.689575 1089.116211,260.763275 1079.800049,256.319214 
	C1072.785278,252.973022 1065.355713,251.513245 1057.483765,252.083466 
	C1045.434326,252.956314 1034.804321,257.481384 1025.380371,264.664795 
	C1006.370605,279.155060 996.856873,298.182922 998.317688,322.992737 
	C1002.459473,322.992737 1005.972595,322.992737 1009.943787,322.992737 
	C1010.563477,320.669678 1011.330078,318.507507 1011.705322,316.279449 
	C1015.456787,294.004700 1028.414795,284.909912 1051.099487,286.533020 
	C1064.889526,287.519714 1076.800537,292.352203 1088.734131,298.493530 
	C1099.065674,303.810425 1109.519409,309.375977 1120.558105,312.726349 
	C1140.370361,318.739594 1164.503418,311.390503 1172.050171,285.876404 
	C1174.377319,278.008789 1175.756958,269.572937 1175.842163,261.379272 
	C1176.237427,223.389038 1175.930786,185.392029 1176.123779,147.398682 
	C1176.155640,141.125092 1176.916870,134.748291 1178.246216,128.615372 
	C1179.899414,120.988167 1183.831299,118.288406 1191.757690,117.928291 
	C1194.085693,117.822525 1196.423096,117.939034 1198.755737,117.916351 
	C1205.759155,117.848251 1210.314087,121.449074 1211.823364,127.986000 
	C1213.156250,133.758987 1213.981934,139.785385 1214.002930,145.703506 
	C1214.176636,194.695526 1214.108521,243.688416 1214.123047,292.681030 
	C1214.124146,296.346649 1214.037964,300.022339 1214.268433,303.675903 
	C1214.791870,311.968719 1216.070801,313.419495 1224.231567,314.348358 
	C1228.850098,314.874023 1233.529907,314.994415 1238.184692,315.043671 
	C1247.515503,315.142426 1256.851318,315.216827 1266.179321,315.023468 
	C1276.498047,314.809570 1278.084473,313.247406 1279.064819,302.801392 
	C1279.406250,299.162964 1279.330811,295.479156 1279.331787,291.816040 
	C1279.346680,237.824158 1279.333618,183.832275 1279.360596,129.840408 
	C1279.362549,126.009079 1279.625488,122.177902 1279.760376,118.526428 
	C1300.677490,116.926041 1309.110962,123.047714 1312.654785,141.917419 
	C1313.690063,147.430008 1313.911743,153.159256 1313.922729,158.790344 
	C1314.017822,207.116226 1313.978882,255.442368 1313.980103,303.768433 
	C1313.980225,307.285370 1313.980103,310.802338 1313.980103,314.846313 
	C1326.579956,315.028015 1337.679810,315.549469 1348.840942,314.525116 
	C1349.070557,311.157318 1349.322144,309.180817 1349.322876,307.204254 
	C1349.341797,256.545197 1349.391724,205.886002 1349.259399,155.227295 
	C1349.242920,148.922455 1348.734009,142.528748 1347.595947,136.333740 
	C1344.055908,117.063156 1333.863770,104.413132 1310.799194,104.434982 
	C1298.801025,104.446350 1286.802734,104.431221 1274.804565,104.429077 
	C1268.271118,104.427910 1261.737549,104.428879 1253.286987,104.428879 
	C1261.946045,114.491211 1265.056274,124.510658 1265.014160,135.866409 
	C1264.825928,186.524765 1264.959717,237.184250 1264.877808,287.843170 
	C1264.871460,291.715637 1264.090942,295.586884 1263.704224,299.146454 
	C1251.549316,301.689545 1250.014893,300.645355 1249.604492,290.242126 
	C1249.486328,287.246918 1249.562134,284.243774 1249.562012,281.244263 
	C1249.559692,237.250870 1249.628052,193.257278 1249.493286,149.264297 
	C1249.469849,141.626144 1249.031982,133.930832 1248.009644,126.366760 
	C1246.101440,112.246262 1239.211182,105.813789 1225.008057,104.680473 
	C1218.381592,104.151726 1211.686035,104.486313 1203.062256,104.429054 
M2342.221191,117.962074 
	C2346.738770,120.952217 2341.988770,122.317299 2340.866943,123.577171 
	C2327.673096,138.391556 2319.917969,155.732010 2315.760986,174.985031 
	C2310.620850,198.790100 2311.113037,222.714905 2314.582275,246.531754 
	C2316.937500,262.701080 2321.990479,278.063324 2331.604248,291.889862 
	C2348.740723,316.535889 2396.072998,327.007629 2420.247559,296.183746 
	C2422.174805,293.726715 2424.368652,291.479187 2426.604492,288.946503 
	C2442.872314,312.390076 2465.969482,318.011841 2490.625000,313.995483 
	C2510.665771,310.730865 2522.572266,297.174652 2529.884277,279.270142 
	C2537.542236,260.517883 2539.979248,240.684830 2540.197510,220.592972 
	C2540.454346,196.937714 2540.297607,173.278183 2540.407959,149.620895 
	C2540.429932,144.966904 2540.530762,140.271667 2541.148438,135.669693 
	C2543.153076,120.737038 2547.062988,117.505249 2561.968750,117.882736 
	C2571.031006,118.112236 2574.874756,120.629883 2576.745361,129.475510 
	C2578.038330,135.590912 2578.218262,142.022980 2578.231445,148.314941 
	C2578.341064,199.962112 2578.294678,251.609634 2578.295654,303.257050 
	C2578.295654,306.805176 2578.295898,310.353333 2578.295898,314.069214 
	C2590.792725,314.069214 2602.255615,314.069214 2614.211182,314.069214 
	C2614.211182,311.862396 2614.211426,310.238922 2614.211182,308.615448 
	C2614.204834,253.969162 2614.214111,199.322861 2614.165771,144.676620 
	C2614.161377,139.684311 2614.124756,134.651901 2613.527832,129.707535 
	C2611.486816,112.797958 2603.913086,105.517532 2586.888672,104.703110 
	C2576.250732,104.194206 2565.553955,104.227989 2554.910645,104.670982 
	C2538.311523,105.361908 2528.765869,111.116631 2528.075195,131.010269 
	C2527.670654,142.660995 2527.846680,154.330612 2527.604736,165.988480 
	C2527.134766,188.625748 2527.194336,211.299896 2525.811523,233.883850 
	C2524.769043,250.906494 2520.222656,267.415009 2511.400635,282.247894 
	C2501.526855,298.849396 2485.894287,303.466064 2468.524170,295.132416 
	C2464.104736,293.012146 2459.499512,290.238495 2456.430664,286.556152 
	C2449.661133,278.433838 2443.775391,269.570038 2437.618896,260.944702 
	C2436.002197,258.679626 2434.712891,256.180664 2432.843018,253.074463 
	C2428.007568,260.631409 2424.120605,267.660522 2419.302002,273.979065 
	C2414.085205,280.819550 2408.632324,287.728943 2402.168213,293.320068 
	C2385.963135,307.336395 2366.392334,303.699738 2355.994873,284.888062 
	C2352.503174,278.570953 2349.941650,271.507477 2348.241211,264.474152 
	C2342.146484,239.262909 2341.816895,213.584320 2344.646484,187.996399 
	C2346.619629,170.154587 2350.416504,152.530930 2357.708008,135.898743 
	C2362.333740,125.346298 2367.980713,116.154411 2381.445312,117.564354 
	C2381.445312,112.933472 2381.445312,108.823212 2381.445312,104.555695 
	C2368.352783,104.555695 2356.026855,104.500664 2343.701660,104.568108 
	C2323.301270,104.679749 2307.086182,113.045021 2294.921631,129.406830 
	C2284.652344,143.219635 2277.270996,158.389633 2273.804688,175.274643 
	C2266.827148,209.261139 2269.777344,242.917389 2278.490723,276.127991 
	C2280.475098,283.690704 2284.401123,291.002136 2288.642334,297.658875 
	C2296.638672,310.208740 2308.666016,315.410706 2323.871338,314.375305 
	C2323.871338,309.846283 2323.871338,305.690125 2323.871338,301.610291 
	C2305.429932,298.998077 2299.147705,293.906464 2292.638916,276.410950 
	C2291.483643,273.305634 2290.620361,270.079437 2289.800293,266.863586 
	C2283.725342,243.034698 2282.662598,218.729904 2284.681641,194.435226 
	C2286.324707,174.662155 2292.302734,155.925980 2304.267090,139.639450 
	C2313.298340,127.345398 2324.554443,118.559532 2342.221191,117.962074 
M2130.399902,171.000000 
	C2130.399902,200.666183 2129.374268,230.380295 2130.757812,259.981842 
	C2131.689941,279.924896 2112.574951,302.484100 2089.883545,301.058258 
	C2072.618408,299.973419 2055.178467,299.987793 2037.910400,301.045380 
	C2014.300537,302.491364 1996.905518,280.008759 1997.607056,260.892822 
	C1998.914429,225.274673 1998.083740,189.573837 1997.901733,153.908630 
	C1997.862793,146.280609 1997.464966,138.532806 1996.066040,131.058502 
	C1993.101929,115.221306 1983.351929,106.739044 1967.256592,105.501343 
	C1959.965210,104.940628 1952.605469,105.130241 1945.278809,105.201096 
	C1935.711670,105.293617 1927.412109,109.051796 1921.765259,116.528397 
	C1916.614380,123.348427 1911.931274,130.857986 1908.734375,138.749298 
	C1901.548340,156.486618 1898.642212,175.374405 1898.367676,194.376724 
	C1898.098999,212.989288 1898.787354,231.687576 1900.384521,250.233780 
	C1901.811768,266.806335 1905.290283,283.170807 1914.381470,297.639496 
	C1922.410034,310.417419 1933.640625,316.462708 1949.195435,313.749725 
	C1949.195435,309.706207 1949.195435,305.874023 1949.195435,301.680573 
	C1946.809082,301.349762 1944.880249,300.879059 1942.944946,300.850281 
	C1935.641602,300.741638 1930.106689,297.368958 1926.310425,291.412903 
	C1923.833618,287.527039 1921.244873,283.382599 1920.173828,278.995697 
	C1917.504028,268.061707 1914.870239,257.009827 1913.661743,245.849396 
	C1910.569580,217.295288 1910.046143,188.646362 1916.268311,160.406906 
	C1918.389404,150.780640 1922.170410,141.415314 1926.110840,132.328812 
	C1929.102661,125.429710 1934.710083,120.482651 1942.280396,118.447342 
	C1950.777466,116.162819 1956.949463,119.070610 1959.468506,127.534279 
	C1961.052734,132.857285 1961.628540,138.651718 1961.655151,144.239426 
	C1961.836304,182.238007 1961.656372,220.238297 1961.841919,258.236847 
	C1961.874268,264.848907 1962.357666,271.629028 1963.885376,278.032776 
	C1969.283325,300.660339 1986.987549,314.333221 2010.029175,314.336334 
	C2039.695435,314.340332 2069.362061,314.228119 2099.027344,314.399139 
	C2107.397949,314.447418 2114.869629,312.100372 2121.430664,307.249664 
	C2132.867432,298.794159 2140.410645,287.599670 2142.437500,273.366760 
	C2143.512695,265.816925 2143.843506,258.109680 2143.873047,250.471024 
	C2144.015869,213.472137 2143.784180,176.471436 2144.014648,139.473434 
	C2144.124756,121.742073 2149.299561,116.976685 2165.990479,117.777184 
	C2174.241943,118.172913 2178.022949,120.941986 2179.789795,129.409683 
	C2181.071777,135.555099 2181.766357,141.935822 2181.784912,148.214386 
	C2181.937988,199.879822 2181.871582,251.545898 2181.871582,303.211792 
	C2181.871582,306.745453 2181.871582,310.279114 2181.871582,313.791809 
	C2194.204834,313.791809 2205.428711,313.791809 2217.031494,313.791809 
	C2217.204834,310.649231 2217.473877,308.030548 2217.475098,305.411713 
	C2217.499756,250.745865 2217.525635,196.079987 2217.437988,141.414291 
	C2217.430664,136.778320 2216.819824,132.115784 2216.157471,127.513374 
	C2213.914795,111.929924 2206.629639,105.439468 2190.811523,105.150414 
	C2179.481934,104.943382 2168.143799,104.964279 2156.813232,105.137024 
	C2139.752686,105.397125 2132.996338,111.056618 2131.540527,128.059586 
	C2130.377686,141.639404 2130.723877,155.348419 2130.399902,171.000000 
M1685.096436,23.686405 
	C1682.542725,22.328901 1679.988892,20.971397 1676.916382,19.338114 
	C1668.044312,40.559490 1652.408447,50.303391 1629.297241,49.763630 
	C1631.068481,47.171539 1632.600220,45.424805 1633.579346,43.409672 
	C1637.316528,35.718163 1637.725342,27.788214 1632.622681,20.734558 
	C1626.981445,12.936275 1618.241943,13.116034 1609.892578,14.270265 
	C1601.775757,15.392375 1597.350464,20.725731 1595.415771,28.691008 
	C1590.783203,47.763123 1602.248291,65.418297 1622.076416,67.797729 
	C1643.929199,70.420097 1662.784668,63.397148 1677.570435,46.946106 
	C1683.110962,40.781502 1687.486572,33.617016 1685.096436,23.686405 
z"/>
<path fill="#F2AB40" opacity="1.000000" stroke="none" 
	d="
M838.378479,315.079834 
	C834.104675,314.967743 830.757141,315.054688 827.454956,314.708832 
	C817.314514,313.646729 816.105408,312.337891 815.762085,302.470520 
	C815.646240,299.141754 815.699524,295.806610 815.699219,292.474396 
	C815.695862,249.154175 815.736511,205.833862 815.645691,162.513824 
	C815.634521,157.208344 815.044189,151.892426 814.516296,146.601913 
	C813.123962,132.649612 804.978638,124.063019 791.991577,120.380707 
	C785.354065,118.498718 778.235779,117.774017 771.305786,117.583557 
	C759.991882,117.272614 748.640442,117.538742 737.329529,118.078384 
	C716.758667,119.059799 705.892700,129.488495 705.440186,150.099655 
	C704.796753,179.409698 705.197144,208.741928 705.024292,238.063919 
	C704.999756,242.225586 706.600464,244.600266 710.200989,246.774994 
	C716.432373,250.538879 722.567200,254.653381 728.060059,259.409027 
	C739.185303,269.041046 743.408386,281.616272 742.010437,296.178558 
	C740.752014,309.287750 732.173828,316.479279 718.979370,315.432037 
	C703.439270,314.198700 693.139709,304.019104 692.438049,288.255585 
	C691.922119,276.663483 692.336853,265.029968 692.336853,253.277176 
	C673.128967,245.749969 654.593262,241.826248 634.072266,241.628922 
	C634.072266,266.316833 634.072266,290.150238 634.072266,314.517700 
	C621.811584,314.517700 610.627380,314.517700 598.113770,314.517700 
	C598.113770,310.649628 598.113953,307.117523 598.113770,303.585449 
	C598.110535,251.601181 598.175232,199.616684 598.015198,147.632904 
	C597.995911,141.365326 597.448181,134.929626 595.934143,128.874725 
	C593.435181,118.881287 585.418030,115.576149 575.747681,119.584198 
	C569.560791,122.148468 565.552124,126.879539 562.313721,132.472458 
	C555.329163,144.535095 552.346985,157.939117 550.459656,171.434143 
	C546.045288,202.997696 547.181702,234.547241 552.705811,265.920746 
	C553.394592,269.832428 554.645508,273.673035 555.927429,277.447601 
	C561.869568,294.944580 566.705383,298.945770 585.312073,301.566193 
	C585.312073,305.555695 585.312073,309.672882 585.312073,313.785828 
	C570.774597,316.266052 558.177795,310.938568 550.766846,297.854462 
	C546.546265,290.402985 542.728149,282.267456 540.951904,273.964355 
	C531.852417,231.428421 530.654236,188.810776 542.247498,146.427765 
	C544.901489,136.725128 549.080811,127.740555 555.216553,119.621986 
	C562.084839,110.534065 570.997070,105.341270 582.270569,104.673683 
	C588.899475,104.281143 595.642151,104.207916 602.225647,104.949844 
	C622.321716,107.214615 632.479736,118.074417 633.773987,138.386185 
	C634.218323,145.358978 634.005615,152.376419 634.014893,159.373581 
	C634.040161,178.367798 634.023560,197.362076 634.023621,216.356323 
	C634.023621,219.617401 634.023682,222.878464 634.023682,225.718307 
	C653.562500,229.333588 672.013000,232.747482 691.831543,236.414505 
	C691.831543,232.559235 691.829346,229.030624 691.831970,225.502014 
	C691.849854,201.176239 691.887390,176.850464 691.879333,152.524689 
	C691.875305,140.306686 696.260010,129.914841 704.174072,120.669533 
	C713.723389,109.513885 725.737854,104.378326 740.247437,104.415543 
	C760.574463,104.467690 780.904663,104.646759 801.228271,104.376869 
	C836.872070,103.903519 850.746094,128.639725 851.444153,153.179428 
	C851.870422,168.163025 851.559875,183.167847 851.563721,198.163132 
	C851.571289,227.487595 851.539795,256.812103 851.598572,286.136444 
	C851.607117,290.384827 852.025696,294.632446 852.302673,299.773956 
	C856.791504,300.019104 860.592163,300.226685 865.455078,300.492249 
	C866.004517,295.902069 866.857117,292.064148 866.863953,288.224731 
	C866.954163,237.573532 866.851807,186.921967 866.982788,136.270966 
	C867.012146,124.915039 864.508423,114.626816 855.431946,105.158424 
	C858.989014,104.825775 861.122437,104.456772 863.256531,104.452805 
	C885.583069,104.411339 907.909607,104.427528 930.236206,104.431343 
	C931.568970,104.431564 932.903076,104.429512 934.234314,104.483704 
	C960.022644,105.533760 973.303040,117.499123 976.819458,143.065582 
	C977.407043,147.337555 977.525818,151.700729 977.530090,156.022095 
	C977.578918,205.673691 977.572144,255.325348 977.544189,304.976990 
	C977.542542,307.890747 977.232605,310.804291 977.028381,314.379517 
	C965.289124,314.379517 954.142883,314.379517 941.831543,314.379517 
	C941.831543,310.473328 941.831604,306.914124 941.831543,303.354889 
	C941.831055,255.702637 941.891357,208.050217 941.756836,160.398346 
	C941.739075,154.103577 941.174988,147.732376 940.077576,141.535843 
	C938.163696,130.729355 931.673950,123.144089 921.011414,120.659050 
	C908.380920,117.715340 895.410461,117.413742 881.066650,118.404121 
	C881.066650,122.813751 881.066589,126.691002 881.066589,130.568253 
	C881.066284,184.885147 881.075256,239.202057 881.061035,293.518951 
	C881.055359,315.033234 880.987000,315.078033 859.315979,315.081268 
	C852.652466,315.082245 845.989014,315.081085 838.378479,315.079834 
M707.391846,293.021667 
	C709.833191,298.367737 714.278564,300.972839 719.848511,301.684967 
	C723.993958,302.214966 726.783813,300.437225 727.941467,296.144562 
	C731.773254,281.935669 720.159790,264.082947 704.714478,261.102142 
	C704.474487,271.377289 703.267944,281.610046 707.391846,293.021667 
z"/>
<path fill="#C57237" opacity="1.000000" stroke="none" 
	d="
M1748.331055,279.990906 
	C1748.270508,288.985870 1748.427612,296.992523 1748.087158,304.977997 
	C1747.756592,312.731720 1746.314941,314.469513 1738.437012,314.607574 
	C1723.454712,314.870178 1708.450195,314.775085 1693.476074,314.238007 
	C1685.417114,313.948883 1683.930542,311.902588 1683.283813,303.746796 
	C1683.047363,300.764130 1683.154907,297.751923 1683.154541,294.753174 
	C1683.148071,250.428452 1683.177979,206.103668 1683.112793,161.779053 
	C1683.104980,156.459549 1682.905884,151.101669 1682.249146,145.829636 
	C1680.755737,133.840775 1674.306763,125.140762 1662.779297,121.602470 
	C1654.934082,119.194374 1646.545654,117.885941 1638.334229,117.503220 
	C1627.041748,116.976891 1615.674561,117.537094 1604.361572,118.086411 
	C1585.395386,119.007317 1575.289673,128.721390 1572.992554,147.709991 
	C1572.752441,149.694260 1572.429321,151.688522 1572.426880,153.678482 
	C1572.390503,183.330170 1572.401733,212.981934 1572.401733,242.997482 
	C1578.234131,246.770981 1584.237915,250.276642 1589.828125,254.349762 
	C1602.034424,263.243378 1609.592285,274.880768 1609.948486,290.465057 
	C1610.258057,304.014313 1605.431152,312.015259 1595.273682,314.691650 
	C1583.069580,317.907318 1568.829956,312.120117 1563.785278,301.194183 
	C1561.751831,296.790253 1560.844849,291.705231 1560.271240,286.830597 
	C1559.612061,281.229706 1559.843750,275.519073 1559.775635,269.855072 
	C1559.711914,264.548157 1559.761963,259.239868 1559.761963,254.322906 
	C1547.877441,247.061203 1522.466187,241.523560 1502.149170,241.817657 
	C1501.575684,253.565765 1501.954712,265.432892 1501.886597,277.275604 
	C1501.817749,289.251465 1501.871338,301.228058 1501.871338,314.256439 
	C1489.995117,315.398224 1478.568237,314.748291 1465.981934,314.726624 
	C1465.981934,310.427094 1465.981934,306.878510 1465.981812,303.329926 
	C1465.979248,251.673279 1466.031982,200.016495 1465.898926,148.360184 
	C1465.883667,142.410660 1465.443848,136.325684 1464.135986,130.544388 
	C1461.404785,118.471085 1452.011353,114.226395 1441.483398,120.599472 
	C1437.128540,123.235664 1433.355957,127.539795 1430.541504,131.878616 
	C1422.948608,143.584198 1420.182739,157.141983 1418.292114,170.643356 
	C1413.823975,202.551453 1414.834351,234.463394 1420.476074,266.164764 
	C1421.572754,272.327881 1423.803955,278.376801 1426.181885,284.205078 
	C1430.403687,294.553101 1437.385010,301.489960 1449.604858,300.858612 
	C1450.547729,300.809906 1451.515015,301.235046 1453.157715,301.587158 
	C1453.157715,305.624054 1453.157715,309.709473 1453.157715,314.319336 
	C1437.457153,316.101715 1425.903320,310.232727 1417.900757,296.929504 
	C1409.999146,283.794250 1406.474609,269.179718 1404.729858,254.280746 
	C1401.115356,223.413406 1400.083618,192.478180 1406.105469,161.719543 
	C1408.545654,149.255936 1412.134888,137.164764 1418.497314,126.029243 
	C1426.631592,111.793045 1438.573608,104.074570 1455.216187,104.547714 
	C1461.858643,104.736565 1468.544189,105.011848 1475.110596,105.946655 
	C1488.531006,107.857224 1496.537720,116.279518 1499.689209,128.984467 
	C1501.273560,135.371979 1501.703735,142.166321 1501.776123,148.786331 
	C1502.020508,171.112640 1501.870728,193.443298 1501.871460,215.772293 
	C1501.871582,219.085251 1501.871338,222.398209 1501.871338,225.771469 
	C1521.111450,229.358032 1539.813477,232.844315 1559.669067,236.545639 
	C1559.669067,232.718048 1559.668213,229.161301 1559.669312,225.604568 
	C1559.675903,201.609238 1559.741577,177.613739 1559.664795,153.618668 
	C1559.626953,141.820892 1563.269531,131.447220 1570.646973,122.244553 
	C1580.010864,110.564308 1592.052734,104.542938 1607.026611,104.518707 
	C1628.689087,104.483650 1650.360840,104.108536 1672.011597,104.612312 
	C1698.894775,105.237846 1715.376953,120.817070 1718.274658,147.485367 
	C1718.848633,152.769012 1719.164551,158.107468 1719.174194,163.421432 
	C1719.247437,204.080063 1719.191040,244.738937 1719.250732,285.397614 
	C1719.257446,289.963440 1719.735596,294.528534 1720.011230,299.374847 
	C1722.722534,299.877289 1724.610840,300.332855 1726.526367,300.561584 
	C1731.404419,301.144073 1734.197876,299.095459 1734.400879,294.015167 
	C1734.547241,290.355682 1734.766602,286.694794 1734.768555,283.034454 
	C1734.793945,237.043381 1734.772461,191.052307 1734.793945,145.061234 
	C1734.800537,131.094116 1735.788086,116.900421 1721.917480,105.031876 
	C1726.834839,104.748543 1729.000122,104.517876 1731.165649,104.515350 
	C1753.161377,104.489723 1775.157471,104.437637 1797.152588,104.553810 
	C1801.796021,104.578346 1806.482300,104.963547 1811.069580,105.686111 
	C1829.861572,108.646141 1841.468750,120.558983 1843.880249,139.415634 
	C1844.639404,145.351974 1845.139526,151.366348 1845.151489,157.346222 
	C1845.251953,207.336319 1845.215210,257.326691 1845.195679,307.316986 
	C1845.194946,309.296844 1844.950073,311.276611 1844.751953,314.264740 
	C1833.214355,315.546326 1821.770264,314.541473 1809.150146,314.862823 
	C1809.150146,310.326294 1809.150269,306.762024 1809.150146,303.197784 
	C1809.149536,255.540359 1809.183960,207.882889 1809.104614,160.225601 
	C1809.094727,154.241470 1808.934326,148.191742 1808.058716,142.288879 
	C1806.334106,130.664764 1797.937378,122.126884 1786.645020,120.091164 
	C1781.738525,119.206673 1776.748779,118.535973 1771.774048,118.336487 
	C1764.474609,118.043777 1757.154663,118.261086 1750.028687,118.261086 
	C1749.629517,118.731995 1749.403931,118.978546 1749.201538,119.242775 
	C1749.003784,119.500984 1748.668213,119.776817 1748.667480,120.045616 
	C1748.539307,173.028152 1748.435669,226.010773 1748.331055,279.990906 
M1594.131714,279.663208 
	C1589.847290,270.274139 1582.641602,264.201569 1572.358643,259.143829 
	C1572.358643,267.876343 1572.268066,274.787231 1572.409546,281.693359 
	C1572.456665,283.986420 1573.081421,286.270569 1573.475098,288.553101 
	C1574.607056,295.116821 1578.610840,299.235413 1584.781860,301.177399 
	C1591.026001,303.142456 1595.494141,300.416473 1595.948975,293.878845 
	C1596.240845,289.683441 1595.170044,285.393219 1594.131714,279.663208 
z"/>
<path fill="#080808" opacity="1.000000" stroke="none" 
	d="
M481.446442,291.938904 
	C481.446442,299.852386 481.446442,306.779205 481.446442,314.168884 
	C469.404480,314.168884 458.160858,314.168884 445.787140,314.168884 
	C445.787140,311.081421 445.787140,307.857483 445.787140,304.633545 
	C445.786957,256.301727 445.825104,207.969849 445.732056,159.638229 
	C445.721863,154.336212 445.022064,149.029739 444.531677,143.735565 
	C443.309052,130.535553 433.716522,119.709442 416.904877,118.375198 
	C404.652771,117.402817 392.216064,117.493027 379.944824,118.329330 
	C362.729004,119.502617 352.986084,130.008057 351.613190,147.404526 
	C351.220490,152.380875 351.087524,157.389099 351.082947,162.382935 
	C351.043213,205.714874 351.077576,249.046860 351.034119,292.378784 
	C351.029449,297.037476 350.895905,301.718933 350.421783,306.348846 
	C349.725220,313.151245 348.621948,314.422546 341.663971,314.518372 
	C326.670410,314.724884 311.665009,314.712372 296.675751,314.338013 
	C288.493164,314.133698 286.976135,312.291534 286.338928,304.126495 
	C286.054260,300.478851 286.135162,296.798767 286.134186,293.133423 
	C286.121429,244.801620 286.200439,196.469528 286.032043,148.138321 
	C286.009064,141.548630 285.465790,134.794006 283.916809,128.418594 
	C281.976562,120.432549 278.398895,118.255959 270.302704,117.896347 
	C268.639313,117.822464 266.969940,117.877975 265.303345,117.881165 
	C252.229172,117.906197 248.032394,121.432129 246.341278,134.311935 
	C245.823395,138.256210 245.895065,142.292908 245.891815,146.287430 
	C245.860779,184.286194 245.830688,222.285080 245.892395,260.283783 
	C245.914734,274.044250 242.590332,286.632233 233.834930,297.522064 
	C224.980774,308.534698 213.847610,314.766754 199.397064,314.679413 
	C178.065201,314.550507 156.695160,313.857239 135.408127,314.844116 
	C105.214218,316.243988 88.084709,289.890411 86.442787,269.331451 
	C86.124985,265.352051 86.141724,261.339630 86.139206,257.342346 
	C86.116119,220.676834 86.213814,184.010895 86.033150,147.346252 
	C86.002296,141.084824 85.507759,134.658386 84.010536,128.609390 
	C81.567719,118.740036 74.522255,115.512535 64.839340,118.953018 
	C57.823505,121.445839 53.435642,126.822449 49.919430,133.036270 
	C43.240662,144.838974 40.250488,157.886002 38.422379,171.056931 
	C34.038158,202.643738 35.107235,234.226135 40.581478,265.612701 
	C41.600956,271.457916 43.804413,277.141174 45.863926,282.751404 
	C50.482681,295.333130 59.087276,302.462860 73.557678,300.991760 
	C73.557678,305.622559 73.557678,309.504089 73.557678,314.035553 
	C59.461727,316.280975 48.300297,311.499573 40.111992,299.883820 
	C33.890190,291.057709 30.211355,281.028168 28.072134,270.515839 
	C22.186794,241.594666 20.392416,212.393143 23.722395,183.051163 
	C25.067585,171.198074 27.710493,159.480377 30.053459,147.759155 
	C30.829466,143.876999 32.353374,140.113129 33.810944,136.403473 
	C43.071857,112.833633 55.778381,104.273140 80.999321,104.567856 
	C83.989067,104.602791 86.974068,104.964706 89.963234,105.141815 
	C110.131508,106.336746 119.799919,118.602524 121.749039,138.242767 
	C122.175537,142.540253 122.028038,146.901367 122.030426,151.233215 
	C122.050613,187.898727 122.124954,224.564514 121.991776,261.229553 
	C121.956398,270.966400 124.527031,279.530151 130.845856,287.032837 
	C138.101822,295.648224 146.999557,300.796539 158.459732,300.860809 
	C170.125443,300.926239 181.830597,300.302460 193.448868,301.055084 
	C213.002731,302.321716 233.272751,282.110352 232.794388,261.605988 
	C231.931686,224.627319 232.472748,187.613739 232.615112,150.615448 
	C232.647110,142.298508 233.119293,133.950180 233.976318,125.677139 
	C235.320129,112.705444 241.181458,106.160881 254.337585,105.330307 
	C269.255005,104.388535 284.323853,104.405800 299.241760,105.350471 
	C312.037170,106.160736 318.283295,112.921349 319.928711,125.693542 
	C320.947632,133.602600 321.357788,141.638367 321.382050,149.619247 
	C321.515686,193.617447 321.446045,237.616257 321.447266,281.614868 
	C321.447357,284.281433 321.382965,286.950623 321.475922,289.614136 
	C321.874115,301.021637 323.146637,301.977905 336.018921,299.478333 
	C336.436401,295.003876 337.269379,290.155640 337.281555,285.305359 
	C337.386169,243.640274 337.238037,201.974319 337.438232,160.309937 
	C337.474731,152.711227 337.861847,144.903976 339.630829,137.565094 
	C344.084198,119.089691 357.191254,106.785828 376.030304,105.787857 
	C399.258789,104.557358 422.655853,104.538422 445.880157,105.814407 
	C464.972137,106.863350 476.684387,119.009933 479.888855,138.054291 
	C481.097961,145.239990 481.359253,152.650146 481.381134,159.959991 
	C481.511688,203.623749 481.446167,247.288086 481.446442,291.938904 
z"/>
<path fill="#C67339" opacity="1.000000" stroke="none" 
	d="
M1612.158325,364.637268 
	C1615.553711,354.902740 1620.490234,347.098511 1627.652588,340.797302 
	C1635.434692,333.950928 1644.407349,330.021545 1654.898438,330.012665 
	C1678.225708,329.992950 1701.553223,329.958130 1724.880371,330.006500 
	C1752.353271,330.063477 1767.645264,351.217194 1769.660767,372.337646 
	C1770.102783,376.968933 1770.011597,381.659454 1770.015747,386.322845 
	C1770.045044,419.981262 1769.938477,453.640228 1770.115479,487.297729 
	C1770.153809,494.592072 1770.697998,501.955444 1771.837524,509.155945 
	C1773.660889,520.676636 1779.828735,525.896118 1791.638184,526.021790 
	C1812.963989,526.248718 1834.301758,525.780273 1855.617798,526.292908 
	C1864.171753,526.498718 1872.952393,527.582397 1881.154785,529.927612 
	C1897.511230,534.604187 1905.187256,547.643433 1902.174072,564.514954 
	C1901.073242,570.677979 1899.305420,576.923401 1896.651001,582.571716 
	C1886.653809,603.845154 1873.615479,623.187317 1856.458862,639.318970 
	C1851.309082,644.161133 1844.350342,647.324402 1837.792480,650.319763 
	C1834.562988,651.794983 1830.357544,651.133606 1826.729492,651.428040 
	C1834.867310,637.103455 1843.378784,624.028931 1849.926758,610.035583 
	C1855.953247,597.156677 1860.340698,583.432617 1864.471680,569.784729 
	C1866.031128,564.632751 1865.448853,558.577026 1864.775757,553.063538 
	C1863.716797,544.388550 1860.807739,541.593811 1852.057861,540.408386 
	C1846.141968,539.606873 1840.094727,539.581360 1834.104858,539.554688 
	C1813.110352,539.461182 1792.109863,539.220825 1771.121826,539.598022 
	C1748.945068,539.996521 1739.839600,529.759521 1736.183594,510.367249 
	C1734.653198,502.249512 1734.257202,493.826660 1734.206177,485.537201 
	C1733.994751,451.213562 1734.191895,416.887512 1734.029907,382.563324 
	C1734.003418,376.958923 1733.556519,371.202301 1732.208252,365.788940 
	C1728.949097,352.703247 1720.223633,344.576447 1706.914795,343.998505 
	C1688.299194,343.190094 1669.586670,343.080231 1650.982544,344.009460 
	C1635.285400,344.793488 1625.361084,355.283783 1623.899780,371.015594 
	C1623.070068,379.947754 1623.292725,388.988708 1623.259277,397.981476 
	C1623.181396,418.976074 1623.401733,439.973328 1623.123535,460.964508 
	C1623.049194,466.586548 1624.494751,470.024567 1629.799805,472.779266 
	C1635.634033,475.808655 1640.998901,479.992737 1645.994263,484.334320 
	C1656.471069,493.439972 1660.893677,505.267853 1660.282227,519.092773 
	C1659.908203,527.551025 1657.640869,535.098450 1649.471924,539.058350 
	C1641.020630,543.155151 1632.514038,542.168335 1624.714844,537.150024 
	C1614.580933,530.629456 1610.575684,520.579468 1610.150391,509.048431 
	C1609.782837,499.081635 1610.074097,489.090546 1610.074097,478.403442 
	C1591.579956,470.803284 1572.697021,467.053864 1552.244385,466.215240 
	C1552.244385,490.665161 1552.244385,514.241211 1552.244385,539.204285 
	C1540.141968,539.710266 1528.768921,539.689331 1516.271484,539.140198 
	C1516.271484,534.813416 1516.271729,531.246521 1516.271606,527.679626 
	C1516.269653,476.025604 1516.322998,424.371460 1516.189575,372.717773 
	C1516.174194,366.773285 1515.793701,360.667175 1514.399414,354.923187 
	C1511.631958,343.521667 1502.267822,339.593384 1492.267944,345.936523 
	C1487.683594,348.844482 1483.191040,353.260162 1480.859863,358.061676 
	C1476.537598,366.964478 1472.826660,376.425903 1470.653931,386.059021 
	C1465.188110,410.291870 1464.843872,434.965454 1467.185059,459.622284 
	C1468.346680,471.855682 1469.973511,484.081970 1472.206299,496.160522 
	C1473.276367,501.949219 1475.856201,507.574432 1478.443237,512.940613 
	C1482.509888,521.376160 1489.147827,526.383301 1498.999023,526.144592 
	C1500.272949,526.113770 1501.555664,526.455261 1503.409912,526.700317 
	C1503.409912,530.717712 1503.409912,534.516968 1503.409912,538.278503 
	C1488.655762,540.885010 1476.240845,535.778625 1468.911255,522.113770 
	C1463.946655,512.858215 1459.842773,502.652344 1457.834473,492.386230 
	C1450.011963,452.397888 1449.181519,412.267639 1460.303711,372.670868 
	C1462.871582,363.529175 1467.313599,354.642151 1472.331543,346.527283 
	C1479.020752,335.709442 1489.374878,329.933960 1502.478516,329.986359 
	C1507.476685,330.006317 1512.481934,329.872192 1517.471924,330.085724 
	C1538.904297,331.002686 1550.706421,342.271606 1551.695923,363.825378 
	C1552.398438,379.124878 1551.984497,394.476715 1552.023560,409.805298 
	C1552.058350,423.434265 1552.030762,437.063385 1552.030762,450.793915 
	C1571.298584,454.475403 1590.047119,458.057648 1609.450806,461.765106 
	C1609.621582,458.940521 1609.940796,456.068909 1609.946045,453.196716 
	C1609.987915,429.869141 1609.838989,406.540222 1610.063843,383.214752 
	C1610.120972,377.282593 1611.309204,371.361359 1612.158325,364.637268 
M1644.315430,524.841919 
	C1650.585205,509.066376 1641.611572,492.257996 1622.456177,486.189087 
	C1622.927002,495.474518 1622.759521,504.342987 1623.973999,513.018005 
	C1625.463257,523.655640 1631.761230,527.395996 1644.315430,524.841919 
z"/>
<path fill="#F2AB40" opacity="1.000000" stroke="none" 
	d="
M1204.041992,104.429321 
	C1211.686035,104.486313 1218.381592,104.151726 1225.008057,104.680473 
	C1239.211182,105.813789 1246.101440,112.246262 1248.009644,126.366760 
	C1249.031982,133.930832 1249.469849,141.626144 1249.493286,149.264297 
	C1249.628052,193.257278 1249.559692,237.250870 1249.562012,281.244263 
	C1249.562134,284.243774 1249.486328,287.246918 1249.604492,290.242126 
	C1250.014893,300.645355 1251.549316,301.689545 1263.704224,299.146454 
	C1264.090942,295.586884 1264.871460,291.715637 1264.877808,287.843170 
	C1264.959717,237.184250 1264.825928,186.524765 1265.014160,135.866409 
	C1265.056274,124.510658 1261.946045,114.491211 1253.286987,104.428879 
	C1261.737549,104.428879 1268.271118,104.427910 1274.804565,104.429077 
	C1286.802734,104.431221 1298.801025,104.446350 1310.799194,104.434982 
	C1333.863770,104.413132 1344.055908,117.063156 1347.595947,136.333740 
	C1348.734009,142.528748 1349.242920,148.922455 1349.259399,155.227295 
	C1349.391724,205.886002 1349.341797,256.545197 1349.322876,307.204254 
	C1349.322144,309.180817 1349.070557,311.157318 1348.840942,314.525116 
	C1337.679810,315.549469 1326.579956,315.028015 1313.980103,314.846313 
	C1313.980103,310.802338 1313.980225,307.285370 1313.980103,303.768433 
	C1313.978882,255.442368 1314.017822,207.116226 1313.922729,158.790344 
	C1313.911743,153.159256 1313.690063,147.430008 1312.654785,141.917419 
	C1309.110962,123.047714 1300.677490,116.926041 1279.760376,118.526428 
	C1279.625488,122.177902 1279.362549,126.009079 1279.360596,129.840408 
	C1279.333618,183.832275 1279.346680,237.824158 1279.331787,291.816040 
	C1279.330811,295.479156 1279.406250,299.162964 1279.064819,302.801392 
	C1278.084473,313.247406 1276.498047,314.809570 1266.179321,315.023468 
	C1256.851318,315.216827 1247.515503,315.142426 1238.184692,315.043671 
	C1233.529907,314.994415 1228.850098,314.874023 1224.231567,314.348358 
	C1216.070801,313.419495 1214.791870,311.968719 1214.268433,303.675903 
	C1214.037964,300.022339 1214.124146,296.346649 1214.123047,292.681030 
	C1214.108521,243.688416 1214.176636,194.695526 1214.002930,145.703506 
	C1213.981934,139.785385 1213.156250,133.758987 1211.823364,127.986000 
	C1210.314087,121.449074 1205.759155,117.848251 1198.755737,117.916351 
	C1196.423096,117.939034 1194.085693,117.822525 1191.757690,117.928291 
	C1183.831299,118.288406 1179.899414,120.988167 1178.246216,128.615372 
	C1176.916870,134.748291 1176.155640,141.125092 1176.123779,147.398682 
	C1175.930786,185.392029 1176.237427,223.389038 1175.842163,261.379272 
	C1175.756958,269.572937 1174.377319,278.008789 1172.050171,285.876404 
	C1164.503418,311.390503 1140.370361,318.739594 1120.558105,312.726349 
	C1109.519409,309.375977 1099.065674,303.810425 1088.734131,298.493530 
	C1076.800537,292.352203 1064.889526,287.519714 1051.099487,286.533020 
	C1028.414795,284.909912 1015.456787,294.004700 1011.705322,316.279449 
	C1011.330078,318.507507 1010.563477,320.669678 1009.943787,322.992737 
	C1005.972595,322.992737 1002.459473,322.992737 998.317688,322.992737 
	C996.856873,298.182922 1006.370605,279.155060 1025.380371,264.664795 
	C1034.804321,257.481384 1045.434326,252.956314 1057.483765,252.083466 
	C1065.355713,251.513245 1072.785278,252.973022 1079.800049,256.319214 
	C1089.116211,260.763275 1098.203491,265.689575 1107.537109,270.094940 
	C1115.319336,273.768097 1122.913696,278.113922 1131.987305,278.037720 
	C1149.666992,277.889252 1160.921265,267.641235 1161.993774,250.030014 
	C1162.479370,242.057877 1162.236450,234.038605 1162.244019,226.040619 
	C1162.269165,199.377991 1162.124268,172.714203 1162.348877,146.053406 
	C1162.410278,138.761765 1163.084106,131.403397 1164.281250,124.209503 
	C1166.225708,112.525322 1172.227173,106.729660 1184.114380,105.103226 
	C1190.344360,104.250824 1196.740967,104.614548 1204.041992,104.429321 
z"/>
<path fill="#080808" opacity="1.000000" stroke="none" 
	d="
M2341.422607,117.961868 
	C2324.554443,118.559532 2313.298340,127.345398 2304.267090,139.639450 
	C2292.302734,155.925980 2286.324707,174.662155 2284.681641,194.435226 
	C2282.662598,218.729904 2283.725342,243.034698 2289.800293,266.863586 
	C2290.620361,270.079437 2291.483643,273.305634 2292.638916,276.410950 
	C2299.147705,293.906464 2305.429932,298.998077 2323.871338,301.610291 
	C2323.871338,305.690125 2323.871338,309.846283 2323.871338,314.375305 
	C2308.666016,315.410706 2296.638672,310.208740 2288.642334,297.658875 
	C2284.401123,291.002136 2280.475098,283.690704 2278.490723,276.127991 
	C2269.777344,242.917389 2266.827148,209.261139 2273.804688,175.274643 
	C2277.270996,158.389633 2284.652344,143.219635 2294.921631,129.406830 
	C2307.086182,113.045021 2323.301270,104.679749 2343.701660,104.568108 
	C2356.026855,104.500664 2368.352783,104.555695 2381.445312,104.555695 
	C2381.445312,108.823212 2381.445312,112.933472 2381.445312,117.564354 
	C2367.980713,116.154411 2362.333740,125.346298 2357.708008,135.898743 
	C2350.416504,152.530930 2346.619629,170.154587 2344.646484,187.996399 
	C2341.816895,213.584320 2342.146484,239.262909 2348.241211,264.474152 
	C2349.941650,271.507477 2352.503174,278.570953 2355.994873,284.888062 
	C2366.392334,303.699738 2385.963135,307.336395 2402.168213,293.320068 
	C2408.632324,287.728943 2414.085205,280.819550 2419.302002,273.979065 
	C2424.120605,267.660522 2428.007568,260.631409 2432.843018,253.074463 
	C2434.712891,256.180664 2436.002197,258.679626 2437.618896,260.944702 
	C2443.775391,269.570038 2449.661133,278.433838 2456.430664,286.556152 
	C2459.499512,290.238495 2464.104736,293.012146 2468.524170,295.132416 
	C2485.894287,303.466064 2501.526855,298.849396 2511.400635,282.247894 
	C2520.222656,267.415009 2524.769043,250.906494 2525.811523,233.883850 
	C2527.194336,211.299896 2527.134766,188.625748 2527.604736,165.988480 
	C2527.846680,154.330612 2527.670654,142.660995 2528.075195,131.010269 
	C2528.765869,111.116631 2538.311523,105.361908 2554.910645,104.670982 
	C2565.553955,104.227989 2576.250732,104.194206 2586.888672,104.703110 
	C2603.913086,105.517532 2611.486816,112.797958 2613.527832,129.707535 
	C2614.124756,134.651901 2614.161377,139.684311 2614.165771,144.676620 
	C2614.214111,199.322861 2614.204834,253.969162 2614.211182,308.615448 
	C2614.211426,310.238922 2614.211182,311.862396 2614.211182,314.069214 
	C2602.255615,314.069214 2590.792725,314.069214 2578.295898,314.069214 
	C2578.295898,310.353333 2578.295654,306.805176 2578.295654,303.257050 
	C2578.294678,251.609634 2578.341064,199.962112 2578.231445,148.314941 
	C2578.218262,142.022980 2578.038330,135.590912 2576.745361,129.475510 
	C2574.874756,120.629883 2571.031006,118.112236 2561.968750,117.882736 
	C2547.062988,117.505249 2543.153076,120.737038 2541.148438,135.669693 
	C2540.530762,140.271667 2540.429932,144.966904 2540.407959,149.620895 
	C2540.297607,173.278183 2540.454346,196.937714 2540.197510,220.592972 
	C2539.979248,240.684830 2537.542236,260.517883 2529.884277,279.270142 
	C2522.572266,297.174652 2510.665771,310.730865 2490.625000,313.995483 
	C2465.969482,318.011841 2442.872314,312.390076 2426.604492,288.946503 
	C2424.368652,291.479187 2422.174805,293.726715 2420.247559,296.183746 
	C2396.072998,327.007629 2348.740723,316.535889 2331.604248,291.889862 
	C2321.990479,278.063324 2316.937500,262.701080 2314.582275,246.531754 
	C2311.113037,222.714905 2310.620850,198.790100 2315.760986,174.985031 
	C2319.917969,155.732010 2327.673096,138.391556 2340.866943,123.577171 
	C2341.988770,122.317299 2346.738770,120.952217 2341.422607,117.961868 
z"/>
<path fill="#080808" opacity="1.000000" stroke="none" 
	d="
M2130.399902,170.000046 
	C2130.723877,155.348419 2130.377686,141.639404 2131.540527,128.059586 
	C2132.996338,111.056618 2139.752686,105.397125 2156.813232,105.137024 
	C2168.143799,104.964279 2179.481934,104.943382 2190.811523,105.150414 
	C2206.629639,105.439468 2213.914795,111.929924 2216.157471,127.513374 
	C2216.819824,132.115784 2217.430664,136.778320 2217.437988,141.414291 
	C2217.525635,196.079987 2217.499756,250.745865 2217.475098,305.411713 
	C2217.473877,308.030548 2217.204834,310.649231 2217.031494,313.791809 
	C2205.428711,313.791809 2194.204834,313.791809 2181.871582,313.791809 
	C2181.871582,310.279114 2181.871582,306.745453 2181.871582,303.211792 
	C2181.871582,251.545898 2181.937988,199.879822 2181.784912,148.214386 
	C2181.766357,141.935822 2181.071777,135.555099 2179.789795,129.409683 
	C2178.022949,120.941986 2174.241943,118.172913 2165.990479,117.777184 
	C2149.299561,116.976685 2144.124756,121.742073 2144.014648,139.473434 
	C2143.784180,176.471436 2144.015869,213.472137 2143.873047,250.471024 
	C2143.843506,258.109680 2143.512695,265.816925 2142.437500,273.366760 
	C2140.410645,287.599670 2132.867432,298.794159 2121.430664,307.249664 
	C2114.869629,312.100372 2107.397949,314.447418 2099.027344,314.399139 
	C2069.362061,314.228119 2039.695435,314.340332 2010.029175,314.336334 
	C1986.987549,314.333221 1969.283325,300.660339 1963.885376,278.032776 
	C1962.357666,271.629028 1961.874268,264.848907 1961.841919,258.236847 
	C1961.656372,220.238297 1961.836304,182.238007 1961.655151,144.239426 
	C1961.628540,138.651718 1961.052734,132.857285 1959.468506,127.534279 
	C1956.949463,119.070610 1950.777466,116.162819 1942.280396,118.447342 
	C1934.710083,120.482651 1929.102661,125.429710 1926.110840,132.328812 
	C1922.170410,141.415314 1918.389404,150.780640 1916.268311,160.406906 
	C1910.046143,188.646362 1910.569580,217.295288 1913.661743,245.849396 
	C1914.870239,257.009827 1917.504028,268.061707 1920.173828,278.995697 
	C1921.244873,283.382599 1923.833618,287.527039 1926.310425,291.412903 
	C1930.106689,297.368958 1935.641602,300.741638 1942.944946,300.850281 
	C1944.880249,300.879059 1946.809082,301.349762 1949.195435,301.680573 
	C1949.195435,305.874023 1949.195435,309.706207 1949.195435,313.749725 
	C1933.640625,316.462708 1922.410034,310.417419 1914.381470,297.639496 
	C1905.290283,283.170807 1901.811768,266.806335 1900.384521,250.233780 
	C1898.787354,231.687576 1898.098999,212.989288 1898.367676,194.376724 
	C1898.642212,175.374405 1901.548340,156.486618 1908.734375,138.749298 
	C1911.931274,130.857986 1916.614380,123.348427 1921.765259,116.528397 
	C1927.412109,109.051796 1935.711670,105.293617 1945.278809,105.201096 
	C1952.605469,105.130241 1959.965210,104.940628 1967.256592,105.501343 
	C1983.351929,106.739044 1993.101929,115.221306 1996.066040,131.058502 
	C1997.464966,138.532806 1997.862793,146.280609 1997.901733,153.908630 
	C1998.083740,189.573837 1998.914429,225.274673 1997.607056,260.892822 
	C1996.905518,280.008759 2014.300537,302.491364 2037.910400,301.045380 
	C2055.178467,299.987793 2072.618408,299.973419 2089.883545,301.058258 
	C2112.574951,302.484100 2131.689941,279.924896 2130.757812,259.981842 
	C2129.374268,230.380295 2130.399902,200.666183 2130.399902,170.000046 
z"/>
<path fill="#080808" opacity="1.000000" stroke="none" 
	d="
M1685.665039,24.123047 
	C1687.486572,33.617016 1683.110962,40.781502 1677.570435,46.946106 
	C1662.784668,63.397148 1643.929199,70.420097 1622.076416,67.797729 
	C1602.248291,65.418297 1590.783203,47.763123 1595.415771,28.691008 
	C1597.350464,20.725731 1601.775757,15.392375 1609.892578,14.270265 
	C1618.241943,13.116034 1626.981445,12.936275 1632.622681,20.734558 
	C1637.725342,27.788214 1637.316528,35.718163 1633.579346,43.409672 
	C1632.600220,45.424805 1631.068481,47.171539 1629.297241,49.763630 
	C1652.408447,50.303391 1668.044312,40.559490 1676.916382,19.338114 
	C1679.988892,20.971397 1682.542725,22.328901 1685.665039,24.123047 
z"/>
<path fill="#FEFBF5" opacity="1.000000" stroke="none" 
	d="
M707.039185,292.311157 
	C703.267944,281.610046 704.474487,271.377289 704.714478,261.102142 
	C720.159790,264.082947 731.773254,281.935669 727.941467,296.144562 
	C726.783813,300.437225 723.993958,302.214966 719.848511,301.684967 
	C714.278564,300.972839 709.833191,298.367737 707.039185,292.311157 
z"/>
<path fill="#FCF8F5" opacity="1.000000" stroke="none" 
	d="
M1594.420898,280.404358 
	C1595.170044,285.393219 1596.240845,289.683441 1595.948975,293.878845 
	C1595.494141,300.416473 1591.026001,303.142456 1584.781860,301.177399 
	C1578.610840,299.235413 1574.607056,295.116821 1573.475098,288.553101 
	C1573.081421,286.270569 1572.456665,283.986420 1572.409546,281.693359 
	C1572.268066,274.787231 1572.358643,267.876343 1572.358643,259.143829 
	C1582.641602,264.201569 1589.847290,270.274139 1594.420898,280.404358 
z"/>
<path fill="#FBF6F2" opacity="1.000000" stroke="none" 
	d="
M1643.769775,525.317505 
	C1631.761230,527.395996 1625.463257,523.655640 1623.973999,513.018005 
	C1622.759521,504.342987 1622.927002,495.474518 1622.456177,486.189087 
	C1641.611572,492.257996 1650.585205,509.066376 1643.769775,525.317505 
z"/>
</svg>