<svg version="1.1" id="Layer_1" xmlns="http://www.w3.org/2000/svg" xmlns:xlink="http://www.w3.org/1999/xlink" x="0px" y="0px"
	 width="100%" viewBox="0 0 1556 584" enable-background="new 0 0 1556 584" xml:space="preserve">
<path fill="#FEFEFE" opacity="1.000000" stroke="none" 
	d="
M1193.000000,585.000000 
	C795.379639,585.000000 398.259277,585.000000 1.069457,585.000000 
	C1.069457,390.402344 1.069457,195.804672 1.069457,1.103500 
	C519.666626,1.103500 1038.333374,1.103500 1556.978271,1.103500 
	C1556.978271,195.741028 1556.978271,390.370514 1556.978271,585.000000 
	C1435.804321,585.000000 1314.652222,585.000000 1193.000000,585.000000 
M886.126831,545.161011 
	C886.002625,545.012268 885.878479,544.863586 886.164551,544.142456 
	C915.656433,530.529602 941.034302,511.475983 961.656738,486.346008 
	C984.860596,458.070526 998.626099,425.923279 998.971313,388.981995 
	C999.395020,343.653320 999.143127,298.318207 999.160400,252.985901 
	C999.162537,247.326447 999.025269,241.666916 999.116943,235.082397 
	C999.129028,227.588120 999.151123,220.093842 999.151550,212.599564 
	C999.154602,160.104202 999.192200,107.608765 999.097961,55.113567 
	C999.087524,49.308537 998.603882,43.466270 997.834717,37.708729 
	C996.302429,26.239344 990.040222,18.754276 979.276855,18.180296 
	C963.533936,17.340773 947.676331,17.438934 931.931030,18.298780 
	C922.014587,18.840315 915.407104,26.196642 914.179077,36.216785 
	C913.190125,44.286316 912.702759,52.462467 912.659851,60.594826 
	C912.492920,92.257820 912.706665,123.922852 912.528137,155.585724 
	C912.467407,166.361084 911.400635,177.153427 901.832825,184.386749 
	C892.866211,191.165466 882.527710,192.154816 871.918030,189.708847 
	C862.527710,187.543976 853.249451,184.859314 843.988342,182.174393 
	C826.103271,176.989227 808.341736,171.363831 790.391724,166.419312 
	C751.643433,155.745682 709.323792,191.303802 712.406311,234.870941 
	C716.448853,234.870941 720.513000,234.870941 724.772583,234.870941 
	C725.207397,232.066101 725.531677,229.445404 726.028137,226.857758 
	C729.173279,210.464188 738.823730,199.676224 753.054504,199.427505 
	C765.589783,199.208420 778.286194,200.570816 790.683655,202.615829 
	C799.956970,204.145523 808.843323,207.956589 817.945190,210.603378 
	C836.286255,215.936935 854.422607,222.313721 873.078918,226.131729 
	C892.982727,230.205017 913.128540,222.953644 920.592651,200.579453 
	C923.891724,190.690399 925.052063,179.721146 925.201233,169.214066 
	C925.731323,131.891571 925.343750,94.556686 925.483337,57.227177 
	C925.502441,52.107517 926.009949,46.864712 927.207275,41.899799 
	C929.900391,30.732471 947.416748,25.228397 956.465820,32.508442 
	C957.838379,33.612667 959.387634,35.139267 959.762939,36.728413 
	C961.272400,43.119400 963.391968,49.605965 963.427734,56.067505 
	C963.719299,108.727905 963.581604,161.390640 963.603455,214.052658 
	C963.606506,221.357040 963.767883,228.661346 963.538452,236.721283 
	C963.524414,288.210388 963.605591,339.699829 963.440918,391.188446 
	C963.388611,407.551422 961.172363,423.695343 956.816711,439.520020 
	C947.853760,472.084351 929.962463,498.319397 901.789978,517.252319 
	C881.245850,531.058716 858.616577,540.330627 834.682678,545.960754 
	C815.608337,550.447754 796.168762,553.388855 776.879333,556.951294 
	C770.751038,558.083191 767.337097,563.629211 771.046082,567.521362 
	C772.946594,569.515686 776.948181,570.289062 779.998230,570.284424 
	C806.835571,570.243591 833.601318,568.861572 860.189209,564.946228 
	C896.336731,559.623169 931.178345,550.180542 963.207764,532.016418 
	C987.044373,518.498474 1006.453674,500.510773 1018.974365,475.767975 
	C1029.127808,455.703156 1032.614746,434.248962 1032.554688,411.935211 
	C1032.400757,354.780640 1032.503540,297.625336 1032.503662,240.470322 
	C1032.503662,238.839417 1032.503662,237.208511 1032.503662,235.411652 
	C1028.002930,235.411652 1023.940369,235.411652 1019.496399,235.411652 
	C1019.496399,237.457230 1019.496399,239.260208 1019.496399,241.063202 
	C1019.496338,297.718323 1019.508484,354.373413 1019.487732,411.028534 
	C1019.482544,425.065094 1018.391541,438.964569 1013.837830,452.389954 
	C1004.526978,479.840240 986.047302,499.642670 961.993530,514.893127 
	C938.660339,529.686768 912.905457,538.448669 886.126831,545.161011 
M1466.498901,311.499695 
	C1466.498901,379.829620 1466.434204,448.159729 1466.597778,516.489258 
	C1466.614380,523.411987 1467.051758,530.606812 1468.950073,537.198364 
	C1473.761230,553.903625 1483.489380,567.189087 1501.809814,569.388733 
	C1515.719971,571.058838 1529.991577,569.719971 1544.242065,569.719971 
	C1544.242065,565.446411 1544.242065,561.354004 1544.242065,556.998962 
	C1539.500977,556.998962 1535.009033,556.850037 1530.530884,557.033508 
	C1523.631836,557.316101 1518.087646,554.480713 1513.911987,549.375793 
	C1506.340088,540.118408 1501.931396,529.678894 1501.939087,517.351868 
	C1502.033813,365.025024 1502.013428,212.698059 1501.960327,60.371147 
	C1501.957886,53.384327 1501.738037,46.356339 1500.968384,39.419777 
	C1499.459229,25.819418 1492.027710,17.723614 1479.653198,17.265675 
	C1463.846436,16.680717 1447.990356,16.711252 1432.179077,17.216640 
	C1421.442749,17.559814 1414.931030,23.394054 1412.671997,33.968853 
	C1411.327148,40.264454 1410.590942,46.816120 1410.585938,53.253445 
	C1410.472656,198.413925 1410.504395,343.574493 1410.476318,488.735046 
	C1410.475342,493.897003 1410.411377,499.084991 1409.911743,504.215576 
	C1408.721069,516.442139 1406.186157,528.437256 1398.318115,538.244263 
	C1385.227539,554.560913 1367.017578,559.125854 1347.579224,556.136108 
	C1329.746826,553.393311 1312.319580,547.954346 1294.761353,543.515076 
	C1284.469971,540.913147 1274.195435,539.538696 1263.666260,541.867981 
	C1253.442017,544.129822 1243.211426,546.365906 1232.962280,548.511658 
	C1216.082520,552.045654 1199.495239,557.513062 1181.785645,555.119080 
	C1168.669067,553.345947 1156.063965,550.389954 1146.590332,540.449036 
	C1134.748169,528.022644 1131.614258,504.362732 1139.431641,487.868896 
	C1148.167114,469.437622 1164.267700,460.524933 1183.085449,456.203705 
	C1205.061523,451.157227 1226.740234,453.757843 1247.991333,460.888428 
	C1257.606445,464.114685 1267.259277,467.251434 1277.000244,470.064423 
	C1279.551025,470.801025 1282.495361,470.175415 1285.258911,470.175415 
	C1285.437012,469.614532 1285.614990,469.053619 1285.792969,468.492737 
	C1283.516479,466.728394 1281.457031,464.527863 1278.928955,463.268982 
	C1259.331299,453.511261 1239.157837,445.441284 1217.147217,442.965027 
	C1188.804932,439.776398 1161.668823,444.388794 1135.857666,456.203644 
	C1121.176758,462.923645 1108.714600,472.467621 1102.203613,488.045013 
	C1097.916138,498.302612 1098.437988,508.967743 1100.166138,519.542297 
	C1102.961792,536.649414 1110.676270,550.889221 1126.765869,558.886963 
	C1150.891968,570.879456 1176.958374,572.374695 1202.887573,569.107239 
	C1221.741699,566.731445 1240.214966,561.044006 1258.720947,556.298096 
	C1270.810669,553.197632 1282.499634,552.706848 1294.525391,556.668213 
	C1304.940308,560.098877 1315.705444,562.451660 1326.254639,565.492615 
	C1340.819336,569.690979 1355.450073,571.741699 1370.624268,569.104431 
	C1396.503174,564.606628 1413.819336,550.432617 1419.905518,524.625244 
	C1422.514038,513.564209 1423.812988,501.936035 1423.833374,490.562195 
	C1424.088745,347.568665 1424.000000,204.574539 1424.005615,61.580551 
	C1424.005615,58.581135 1423.867920,55.560631 1424.166870,52.587410 
	C1424.582031,48.457909 1424.941040,44.249012 1426.055908,40.279694 
	C1428.084961,33.055931 1432.133423,30.275211 1439.606567,30.176474 
	C1442.939209,30.132442 1446.272827,30.158106 1449.606079,30.171022 
	C1458.693604,30.206244 1463.272461,33.643406 1464.813721,42.645432 
	C1465.875610,48.848034 1466.422852,55.215485 1466.430664,61.510227 
	C1466.533325,144.506607 1466.499023,227.503159 1466.498901,311.499695 
M210.578522,227.003922 
	C213.078354,227.004440 215.578232,226.997406 218.078033,227.006699 
	C235.977859,227.073257 248.571213,218.320084 257.342499,203.300613 
	C261.674774,195.882294 262.684570,187.594376 262.711639,179.273544 
	C262.843475,138.775818 262.729950,98.277336 262.826538,57.779411 
	C262.838013,52.975468 263.314697,48.126358 264.085236,43.380917 
	C265.367371,35.484741 270.025818,30.818079 276.888245,30.316107 
	C280.365356,30.061762 283.887451,30.191246 287.376282,30.382376 
	C292.557251,30.666203 296.441345,33.342735 297.786926,38.266388 
	C299.215271,43.493073 300.454346,48.976238 300.472839,54.351875 
	C300.663605,109.848694 300.637909,165.346542 300.502991,220.843674 
	C300.491821,225.429932 301.798706,227.034088 306.463440,226.824188 
	C314.114258,226.479935 321.791870,226.734436 329.458191,226.730316 
	C336.630615,226.726471 336.647827,226.722977 336.648499,219.614746 
	C336.653473,164.617249 336.689026,109.619682 336.590942,54.622360 
	C336.581482,49.328968 336.070923,43.979816 335.199432,38.755558 
	C332.867462,24.775469 324.978760,17.668491 310.839813,17.201170 
	C299.019745,16.810492 287.149841,16.589146 275.352173,17.224119 
	C262.802277,17.899576 251.879898,23.100639 250.941132,38.921741 
	C250.606522,44.561199 249.808090,50.192314 249.794693,55.828602 
	C249.695969,97.326477 249.513901,138.826462 249.835678,180.322083 
	C250.007111,202.431076 224.339081,219.093536 203.936157,211.607117 
	C192.733276,207.496445 185.667648,198.301285 180.302444,188.219711 
	C170.993362,170.727280 158.729263,156.668686 139.454117,150.148453 
	C135.710281,148.882019 134.824768,147.101791 134.845490,143.402527 
	C135.001389,115.571335 135.011292,87.738556 134.904587,59.906906 
	C134.822754,38.560535 121.638969,22.374123 100.749298,19.087927 
	C90.473640,17.471443 79.914436,17.440517 69.470978,17.160227 
	C55.036156,16.772814 43.861462,23.146870 35.623421,34.805325 
	C24.735075,50.214478 19.477839,67.853119 15.995357,86.069328 
	C12.188955,105.979897 12.401374,126.080498 13.736865,146.239975 
	C14.951761,164.579041 17.117512,182.699219 24.035130,199.884125 
	C29.127951,212.535828 36.676281,222.906219 50.880932,226.505783 
	C59.490913,228.687622 61.134087,227.354782 61.059559,218.615082 
	C61.028091,214.924942 59.840088,213.672089 55.981445,213.001404 
	C51.975574,212.305115 47.618252,210.467712 44.615131,207.785309 
	C36.983891,200.969086 34.054619,191.399536 32.029030,181.738663 
	C27.055019,158.015518 25.281357,134.038040 27.000734,109.820427 
	C28.438255,89.572815 32.377785,69.864555 41.386909,51.605976 
	C50.362469,33.415417 58.067543,29.478735 75.767876,30.205044 
	C85.955788,30.623093 94.093628,33.970783 97.155106,44.595043 
	C98.196037,48.207413 98.656006,52.105537 98.671951,55.876091 
	C98.793159,84.540939 98.608093,113.207718 98.870735,141.870682 
	C98.912933,146.476196 96.814629,147.484406 93.229332,148.993286 
	C86.744164,151.722580 79.795067,154.384506 74.572319,158.862213 
	C63.830097,168.072006 61.371918,181.020798 61.672997,194.629257 
	C61.838306,202.101028 63.546391,209.043640 67.806259,215.335007 
	C73.027428,223.046082 79.825073,226.872818 89.452354,227.197632 
	C102.000267,227.621002 112.398460,224.083023 120.468590,214.445480 
	C128.614258,204.717712 133.029099,193.404480 134.078583,180.771744 
	C134.497238,175.732193 134.895340,170.690933 135.302780,165.650452 
	C135.732666,165.440857 136.162567,165.231262 136.592453,165.021667 
	C139.473709,168.065826 142.820465,170.793442 145.147110,174.214752 
	C151.585724,183.682724 157.557404,193.466949 163.791458,203.075668 
	C170.386871,213.241364 178.368637,221.806564 190.888702,224.307632 
	C197.061752,225.540802 203.364853,226.122833 210.578522,227.003922 
M477.835022,191.508087 
	C477.692322,177.226700 476.439423,162.846863 477.695099,148.689499 
	C479.178467,131.964630 488.243652,125.095833 505.136719,125.016533 
	C514.634827,124.971947 524.133301,125.008476 533.631653,125.008469 
	C541.910889,125.008469 550.190063,125.008469 558.566711,125.008469 
	C558.566711,120.432457 558.566711,116.370842 558.566711,111.991531 
	C556.652527,111.991531 555.013123,111.991539 553.373779,111.991531 
	C536.710083,111.991486 520.045837,112.068771 503.382782,111.968010 
	C488.875427,111.880287 479.939423,104.815636 478.057709,90.605446 
	C476.778687,80.946533 476.722198,71.045052 476.998718,61.276947 
	C477.656677,38.037987 486.025024,30.178844 509.149292,30.178814 
	C525.119934,30.178795 541.090637,30.178812 557.212158,30.178812 
	C557.212158,25.727953 557.212158,21.643456 557.212158,17.442080 
	C556.284546,17.322319 555.648438,17.168589 555.012329,17.168341 
	C524.017822,17.156261 493.022339,17.014545 462.029297,17.226995 
	C449.536987,17.312630 437.728302,20.359028 427.685852,28.307652 
	C408.583740,43.427025 398.720367,64.153870 393.156952,87.109802 
	C387.095978,112.118675 388.963562,137.304672 393.481842,162.331680 
	C396.346497,178.199387 400.929199,193.523315 409.674530,207.344254 
	C418.697815,221.604584 435.404083,229.605194 450.181671,226.545471 
	C450.181671,222.292679 450.181671,218.053818 450.181671,213.322006 
	C431.529449,215.478043 422.396881,204.211090 416.842285,189.261673 
	C412.548889,177.706665 408.872162,165.775650 406.439148,153.705841 
	C400.821930,125.839615 401.358246,98.176361 412.653961,71.489708 
	C417.666962,59.646301 423.870239,48.564857 434.064331,40.235867 
	C441.943512,33.798283 452.488922,30.026087 459.640320,31.458151 
	C443.290039,43.253685 440.809570,59.854042 441.876343,78.134506 
	C443.027374,97.858276 454.354584,109.765770 471.214508,118.259331 
	C469.316864,119.271690 467.855347,120.016403 466.426361,120.819069 
	C451.448151,129.232315 442.446289,141.503220 442.009308,159.138153 
	C441.827881,166.459366 441.856110,173.792099 442.026947,181.114044 
	C442.210510,188.980927 444.997681,196.104187 449.647247,202.308853 
	C462.168549,219.018112 479.326233,226.891800 499.911438,227.099579 
	C524.567688,227.348480 549.229431,227.104935 573.888489,227.006302 
	C584.390625,226.964294 593.176270,222.653519 600.691772,215.588150 
	C612.343872,204.633926 617.854736,191.039444 617.848755,175.108963 
	C617.834106,136.282516 617.836426,97.456055 617.857971,58.629616 
	C617.859741,55.468567 617.888367,52.290745 618.197144,49.149483 
	C619.753784,33.314857 623.370483,30.093178 639.239075,30.178596 
	C639.572327,30.180389 639.905762,30.173376 640.238892,30.179747 
	C647.950623,30.327251 652.114502,33.091259 653.751343,40.733791 
	C655.129272,47.167549 655.878662,53.859921 655.898865,60.440903 
	C656.063721,114.097549 655.991638,167.754929 655.991638,221.412079 
	C655.991638,223.204330 655.991638,224.996567 655.991638,226.949921 
	C667.976074,226.949921 679.546082,226.949921 691.523560,226.949921 
	C691.523560,224.924210 691.523560,223.115768 691.523560,221.307327 
	C691.523560,166.150436 691.539673,110.993538 691.494446,55.836685 
	C691.490601,51.185104 691.250610,46.517559 690.819458,41.885429 
	C689.373047,26.346394 682.573486,18.836040 667.090210,17.691090 
	C654.499817,16.760059 641.745789,16.610577 629.155823,17.463997 
	C613.078796,18.553795 606.920959,25.202942 605.101807,41.211876 
	C604.502258,46.488289 604.210083,51.826897 604.196411,57.138145 
	C604.114929,88.798988 604.165894,120.460152 604.149780,152.121201 
	C604.145264,160.950699 604.059204,169.780167 604.019348,178.609665 
	C603.943787,195.349121 585.072571,213.255997 570.529541,213.235016 
	C547.211182,213.201355 523.883484,213.758621 500.577454,213.253113 
	C487.651642,212.972733 480.720795,205.751480 477.835022,191.508087 
M1151.951904,88.500008 
	C1151.305786,72.907181 1151.265991,57.256142 1149.776489,41.744305 
	C1148.939575,33.030067 1143.595215,25.970222 1135.453979,21.919256 
	C1121.594116,15.022711 1106.703979,16.227516 1092.454224,18.977484 
	C1076.821533,21.994392 1069.530884,35.102295 1064.012817,48.640518 
	C1054.836670,71.154076 1051.937744,94.960098 1052.278076,118.979897 
	C1052.538696,137.380280 1054.208740,155.819458 1056.346436,174.113480 
	C1057.731079,185.963379 1061.248047,197.533981 1067.308838,208.071350 
	C1074.188110,220.031754 1083.952881,227.118698 1098.314575,227.278625 
	C1102.978394,227.330566 1104.417236,226.074783 1104.213135,221.439209 
	C1103.881226,213.905334 1104.151123,213.768768 1097.250977,213.528305 
	C1090.831299,213.304565 1085.426758,210.894043 1081.906982,205.652328 
	C1078.796753,201.020691 1075.918335,196.027008 1074.067871,190.793488 
	C1067.783691,173.021225 1066.718994,154.358719 1066.064331,135.748047 
	C1065.154907,109.899429 1066.001587,84.155739 1073.968018,59.204937 
	C1076.767456,50.436794 1080.384155,42.057583 1087.461548,35.725266 
	C1095.112793,28.879234 1110.250610,26.478031 1114.123413,41.161022 
	C1115.382812,45.936520 1116.189087,50.985584 1116.202026,55.912148 
	C1116.345581,110.900314 1116.293213,165.888992 1116.293579,220.877533 
	C1116.293579,222.816147 1116.293579,224.754745 1116.293579,226.884521 
	C1128.391479,226.884521 1139.941895,226.884521 1151.951904,226.884521 
	C1151.951904,224.944672 1151.951904,223.323181 1151.951904,221.701706 
	C1151.951660,200.539444 1151.971436,179.377151 1151.926270,158.214981 
	C1151.920532,155.512390 1151.786133,153.214966 1155.688599,153.505905 
	C1172.856567,154.785767 1189.597412,157.988068 1205.852417,163.774719 
	C1208.763550,164.811066 1209.648315,166.275208 1209.662842,169.184875 
	C1209.707031,178.005188 1209.928101,186.826813 1210.233643,195.642609 
	C1210.365967,199.458817 1210.369751,203.390396 1211.301270,207.048157 
	C1214.737183,220.537888 1226.379150,228.703735 1240.363892,227.850189 
	C1250.445435,227.234848 1256.905884,222.945557 1258.825317,214.082367 
	C1261.776733,200.454071 1259.743774,187.640503 1250.457397,176.539581 
	C1243.931763,168.738831 1235.810425,163.096542 1226.835571,158.572159 
	C1224.270996,157.279312 1222.652344,155.803619 1222.663452,152.545624 
	C1222.766113,122.718849 1222.506348,92.889351 1222.810425,63.065323 
	C1222.990967,45.357952 1232.886597,32.383286 1248.553955,31.441332 
	C1268.273438,30.255749 1288.152222,30.423050 1307.892578,31.406441 
	C1318.374390,31.928612 1326.737305,38.244514 1330.312622,48.721668 
	C1332.109131,53.985909 1333.351196,59.731186 1333.371704,65.264359 
	C1333.567871,118.251534 1333.446655,171.239868 1333.444580,224.227875 
	C1333.444458,225.138351 1333.794800,226.048843 1333.976196,226.932220 
	C1345.704346,226.932220 1357.125732,226.932220 1369.035034,226.932220 
	C1369.035034,224.873840 1369.034912,223.085419 1369.034912,221.296982 
	C1369.034912,170.307602 1369.104370,119.318008 1368.943481,68.329147 
	C1368.924316,62.237282 1368.425171,55.935574 1366.813843,50.099560 
	C1361.904541,32.317303 1346.811523,17.514750 1326.358643,17.558823 
	C1302.030518,17.611246 1277.702148,17.576899 1253.373901,17.569944 
	C1241.660645,17.566597 1232.339111,22.691692 1224.293457,30.819902 
	C1213.410156,41.814774 1209.577515,55.341881 1209.595947,70.364700 
	C1209.626465,95.192825 1209.606323,120.021011 1209.607544,144.849167 
	C1209.607544,146.450424 1209.607544,148.051682 1209.607544,149.764908 
	C1208.417114,149.895157 1207.706787,150.186768 1207.156494,150.001984 
	C1190.534668,144.420349 1173.521729,140.877762 1155.969727,140.200897 
	C1152.732178,140.076035 1151.854004,138.627975 1151.884399,135.489792 
	C1152.032471,120.161072 1151.951782,104.830154 1151.951904,88.500008 
z"/>
<path fill="#010101" opacity="1.000000" stroke="none" 
	d="
M1466.499023,310.999695 
	C1466.499023,227.503159 1466.533325,144.506607 1466.430664,61.510227 
	C1466.422852,55.215485 1465.875610,48.848034 1464.813721,42.645432 
	C1463.272461,33.643406 1458.693604,30.206244 1449.606079,30.171022 
	C1446.272827,30.158106 1442.939209,30.132442 1439.606567,30.176474 
	C1432.133423,30.275211 1428.084961,33.055931 1426.055908,40.279694 
	C1424.941040,44.249012 1424.582031,48.457909 1424.166870,52.587410 
	C1423.867920,55.560631 1424.005615,58.581135 1424.005615,61.580551 
	C1424.000000,204.574539 1424.088745,347.568665 1423.833374,490.562195 
	C1423.812988,501.936035 1422.514038,513.564209 1419.905518,524.625244 
	C1413.819336,550.432617 1396.503174,564.606628 1370.624268,569.104431 
	C1355.450073,571.741699 1340.819336,569.690979 1326.254639,565.492615 
	C1315.705444,562.451660 1304.940308,560.098877 1294.525391,556.668213 
	C1282.499634,552.706848 1270.810669,553.197632 1258.720947,556.298096 
	C1240.214966,561.044006 1221.741699,566.731445 1202.887573,569.107239 
	C1176.958374,572.374695 1150.891968,570.879456 1126.765869,558.886963 
	C1110.676270,550.889221 1102.961792,536.649414 1100.166138,519.542297 
	C1098.437988,508.967743 1097.916138,498.302612 1102.203613,488.045013 
	C1108.714600,472.467621 1121.176758,462.923645 1135.857666,456.203644 
	C1161.668823,444.388794 1188.804932,439.776398 1217.147217,442.965027 
	C1239.157837,445.441284 1259.331299,453.511261 1278.928955,463.268982 
	C1281.457031,464.527863 1283.516479,466.728394 1285.792969,468.492737 
	C1285.614990,469.053619 1285.437012,469.614532 1285.258911,470.175415 
	C1282.495361,470.175415 1279.551025,470.801025 1277.000244,470.064423 
	C1267.259277,467.251434 1257.606445,464.114685 1247.991333,460.888428 
	C1226.740234,453.757843 1205.061523,451.157227 1183.085449,456.203705 
	C1164.267700,460.524933 1148.167114,469.437622 1139.431641,487.868896 
	C1131.614258,504.362732 1134.748169,528.022644 1146.590332,540.449036 
	C1156.063965,550.389954 1168.669067,553.345947 1181.785645,555.119080 
	C1199.495239,557.513062 1216.082520,552.045654 1232.962280,548.511658 
	C1243.211426,546.365906 1253.442017,544.129822 1263.666260,541.867981 
	C1274.195435,539.538696 1284.469971,540.913147 1294.761353,543.515076 
	C1312.319580,547.954346 1329.746826,553.393311 1347.579224,556.136108 
	C1367.017578,559.125854 1385.227539,554.560913 1398.318115,538.244263 
	C1406.186157,528.437256 1408.721069,516.442139 1409.911743,504.215576 
	C1410.411377,499.084991 1410.475342,493.897003 1410.476318,488.735046 
	C1410.504395,343.574493 1410.472656,198.413925 1410.585938,53.253445 
	C1410.590942,46.816120 1411.327148,40.264454 1412.671997,33.968853 
	C1414.931030,23.394054 1421.442749,17.559814 1432.179077,17.216640 
	C1447.990356,16.711252 1463.846436,16.680717 1479.653198,17.265675 
	C1492.027710,17.723614 1499.459229,25.819418 1500.968384,39.419777 
	C1501.738037,46.356339 1501.957886,53.384327 1501.960327,60.371147 
	C1502.013428,212.698059 1502.033813,365.025024 1501.939087,517.351868 
	C1501.931396,529.678894 1506.340088,540.118408 1513.911987,549.375793 
	C1518.087646,554.480713 1523.631836,557.316101 1530.530884,557.033508 
	C1535.009033,556.850037 1539.500977,556.998962 1544.242065,556.998962 
	C1544.242065,561.354004 1544.242065,565.446411 1544.242065,569.719971 
	C1529.991577,569.719971 1515.719971,571.058838 1501.809814,569.388733 
	C1483.489380,567.189087 1473.761230,553.903625 1468.950073,537.198364 
	C1467.051758,530.606812 1466.614380,523.411987 1466.597778,516.489258 
	C1466.434204,448.159729 1466.498901,379.829620 1466.499023,310.999695 
z"/>
<path fill="#040404" opacity="1.000000" stroke="none" 
	d="
M210.093811,227.001709 
	C203.364853,226.122833 197.061752,225.540802 190.888702,224.307632 
	C178.368637,221.806564 170.386871,213.241364 163.791458,203.075668 
	C157.557404,193.466949 151.585724,183.682724 145.147110,174.214752 
	C142.820465,170.793442 139.473709,168.065826 136.592453,165.021667 
	C136.162567,165.231262 135.732666,165.440857 135.302780,165.650452 
	C134.895340,170.690933 134.497238,175.732193 134.078583,180.771744 
	C133.029099,193.404480 128.614258,204.717712 120.468590,214.445480 
	C112.398460,224.083023 102.000267,227.621002 89.452354,227.197632 
	C79.825073,226.872818 73.027428,223.046082 67.806259,215.335007 
	C63.546391,209.043640 61.838306,202.101028 61.672997,194.629257 
	C61.371918,181.020798 63.830097,168.072006 74.572319,158.862213 
	C79.795067,154.384506 86.744164,151.722580 93.229332,148.993286 
	C96.814629,147.484406 98.912933,146.476196 98.870735,141.870682 
	C98.608093,113.207718 98.793159,84.540939 98.671951,55.876091 
	C98.656006,52.105537 98.196037,48.207413 97.155106,44.595043 
	C94.093628,33.970783 85.955788,30.623093 75.767876,30.205044 
	C58.067543,29.478735 50.362469,33.415417 41.386909,51.605976 
	C32.377785,69.864555 28.438255,89.572815 27.000734,109.820427 
	C25.281357,134.038040 27.055019,158.015518 32.029030,181.738663 
	C34.054619,191.399536 36.983891,200.969086 44.615131,207.785309 
	C47.618252,210.467712 51.975574,212.305115 55.981445,213.001404 
	C59.840088,213.672089 61.028091,214.924942 61.059559,218.615082 
	C61.134087,227.354782 59.490913,228.687622 50.880932,226.505783 
	C36.676281,222.906219 29.127951,212.535828 24.035130,199.884125 
	C17.117512,182.699219 14.951761,164.579041 13.736865,146.239975 
	C12.401374,126.080498 12.188955,105.979897 15.995357,86.069328 
	C19.477839,67.853119 24.735075,50.214478 35.623421,34.805325 
	C43.861462,23.146870 55.036156,16.772814 69.470978,17.160227 
	C79.914436,17.440517 90.473640,17.471443 100.749298,19.087927 
	C121.638969,22.374123 134.822754,38.560535 134.904587,59.906906 
	C135.011292,87.738556 135.001389,115.571335 134.845490,143.402527 
	C134.824768,147.101791 135.710281,148.882019 139.454117,150.148453 
	C158.729263,156.668686 170.993362,170.727280 180.302444,188.219711 
	C185.667648,198.301285 192.733276,207.496445 203.936157,211.607117 
	C224.339081,219.093536 250.007111,202.431076 249.835678,180.322083 
	C249.513901,138.826462 249.695969,97.326477 249.794693,55.828602 
	C249.808090,50.192314 250.606522,44.561199 250.941132,38.921741 
	C251.879898,23.100639 262.802277,17.899576 275.352173,17.224119 
	C287.149841,16.589146 299.019745,16.810492 310.839813,17.201170 
	C324.978760,17.668491 332.867462,24.775469 335.199432,38.755558 
	C336.070923,43.979816 336.581482,49.328968 336.590942,54.622360 
	C336.689026,109.619682 336.653473,164.617249 336.648499,219.614746 
	C336.647827,226.722977 336.630615,226.726471 329.458191,226.730316 
	C321.791870,226.734436 314.114258,226.479935 306.463440,226.824188 
	C301.798706,227.034088 300.491821,225.429932 300.502991,220.843674 
	C300.637909,165.346542 300.663605,109.848694 300.472839,54.351875 
	C300.454346,48.976238 299.215271,43.493073 297.786926,38.266388 
	C296.441345,33.342735 292.557251,30.666203 287.376282,30.382376 
	C283.887451,30.191246 280.365356,30.061762 276.888245,30.316107 
	C270.025818,30.818079 265.367371,35.484741 264.085236,43.380917 
	C263.314697,48.126358 262.838013,52.975468 262.826538,57.779411 
	C262.729950,98.277336 262.843475,138.775818 262.711639,179.273544 
	C262.684570,187.594376 261.674774,195.882294 257.342499,203.300613 
	C248.571213,218.320084 235.977859,227.073257 218.078033,227.006699 
	C215.578232,226.997406 213.078354,227.004440 210.093811,227.001709 
M98.528183,194.926224 
	C98.615051,184.796371 98.684464,174.666306 98.800301,164.536789 
	C98.831665,161.794479 97.715225,160.639786 95.172272,162.046646 
	C91.438400,164.112381 87.499146,166.007935 84.241142,168.695709 
	C73.720726,177.374847 73.694733,196.550552 77.083382,206.220062 
	C78.656349,210.708527 81.741486,213.242065 86.777725,213.316238 
	C92.022049,213.393463 94.752228,210.328705 96.196091,205.964844 
	C97.275673,202.701965 97.639359,199.202225 98.528183,194.926224 
z"/>
<path fill="#050505" opacity="1.000000" stroke="none" 
	d="
M477.911102,191.931396 
	C480.720795,205.751480 487.651642,212.972733 500.577454,213.253113 
	C523.883484,213.758621 547.211182,213.201355 570.529541,213.235016 
	C585.072571,213.255997 603.943787,195.349121 604.019348,178.609665 
	C604.059204,169.780167 604.145264,160.950699 604.149780,152.121201 
	C604.165894,120.460152 604.114929,88.798988 604.196411,57.138145 
	C604.210083,51.826897 604.502258,46.488289 605.101807,41.211876 
	C606.920959,25.202942 613.078796,18.553795 629.155823,17.463997 
	C641.745789,16.610577 654.499817,16.760059 667.090210,17.691090 
	C682.573486,18.836040 689.373047,26.346394 690.819458,41.885429 
	C691.250610,46.517559 691.490601,51.185104 691.494446,55.836685 
	C691.539673,110.993538 691.523560,166.150436 691.523560,221.307327 
	C691.523560,223.115768 691.523560,224.924210 691.523560,226.949921 
	C679.546082,226.949921 667.976074,226.949921 655.991638,226.949921 
	C655.991638,224.996567 655.991638,223.204330 655.991638,221.412079 
	C655.991638,167.754929 656.063721,114.097549 655.898865,60.440903 
	C655.878662,53.859921 655.129272,47.167549 653.751343,40.733791 
	C652.114502,33.091259 647.950623,30.327251 640.238892,30.179747 
	C639.905762,30.173376 639.572327,30.180389 639.239075,30.178596 
	C623.370483,30.093178 619.753784,33.314857 618.197144,49.149483 
	C617.888367,52.290745 617.859741,55.468567 617.857971,58.629616 
	C617.836426,97.456055 617.834106,136.282516 617.848755,175.108963 
	C617.854736,191.039444 612.343872,204.633926 600.691772,215.588150 
	C593.176270,222.653519 584.390625,226.964294 573.888489,227.006302 
	C549.229431,227.104935 524.567688,227.348480 499.911438,227.099579 
	C479.326233,226.891800 462.168549,219.018112 449.647247,202.308853 
	C444.997681,196.104187 442.210510,188.980927 442.026947,181.114044 
	C441.856110,173.792099 441.827881,166.459366 442.009308,159.138153 
	C442.446289,141.503220 451.448151,129.232315 466.426361,120.819069 
	C467.855347,120.016403 469.316864,119.271690 471.214508,118.259331 
	C454.354584,109.765770 443.027374,97.858276 441.876343,78.134506 
	C440.809570,59.854042 443.290039,43.253685 459.640320,31.458151 
	C452.488922,30.026087 441.943512,33.798283 434.064331,40.235867 
	C423.870239,48.564857 417.666962,59.646301 412.653961,71.489708 
	C401.358246,98.176361 400.821930,125.839615 406.439148,153.705841 
	C408.872162,165.775650 412.548889,177.706665 416.842285,189.261673 
	C422.396881,204.211090 431.529449,215.478043 450.181671,213.322006 
	C450.181671,218.053818 450.181671,222.292679 450.181671,226.545471 
	C435.404083,229.605194 418.697815,221.604584 409.674530,207.344254 
	C400.929199,193.523315 396.346497,178.199387 393.481842,162.331680 
	C388.963562,137.304672 387.095978,112.118675 393.156952,87.109802 
	C398.720367,64.153870 408.583740,43.427025 427.685852,28.307652 
	C437.728302,20.359028 449.536987,17.312630 462.029297,17.226995 
	C493.022339,17.014545 524.017822,17.156261 555.012329,17.168341 
	C555.648438,17.168589 556.284546,17.322319 557.212158,17.442080 
	C557.212158,21.643456 557.212158,25.727953 557.212158,30.178812 
	C541.090637,30.178812 525.119934,30.178795 509.149292,30.178814 
	C486.025024,30.178844 477.656677,38.037987 476.998718,61.276947 
	C476.722198,71.045052 476.778687,80.946533 478.057709,90.605446 
	C479.939423,104.815636 488.875427,111.880287 503.382782,111.968010 
	C520.045837,112.068771 536.710083,111.991486 553.373779,111.991531 
	C555.013123,111.991539 556.652527,111.991531 558.566711,111.991531 
	C558.566711,116.370842 558.566711,120.432457 558.566711,125.008469 
	C550.190063,125.008469 541.910889,125.008469 533.631653,125.008469 
	C524.133301,125.008476 514.634827,124.971947 505.136719,125.016533 
	C488.243652,125.095833 479.178467,131.964630 477.695099,148.689499 
	C476.439423,162.846863 477.692322,177.226700 477.911102,191.931396 
z"/>
<path fill="#030303" opacity="1.000000" stroke="none" 
	d="
M1151.951904,89.000015 
	C1151.951782,104.830154 1152.032471,120.161072 1151.884399,135.489792 
	C1151.854004,138.627975 1152.732178,140.076035 1155.969727,140.200897 
	C1173.521729,140.877762 1190.534668,144.420349 1207.156494,150.001984 
	C1207.706787,150.186768 1208.417114,149.895157 1209.607544,149.764908 
	C1209.607544,148.051682 1209.607544,146.450424 1209.607544,144.849167 
	C1209.606323,120.021011 1209.626465,95.192825 1209.595947,70.364700 
	C1209.577515,55.341881 1213.410156,41.814774 1224.293457,30.819902 
	C1232.339111,22.691692 1241.660645,17.566597 1253.373901,17.569944 
	C1277.702148,17.576899 1302.030518,17.611246 1326.358643,17.558823 
	C1346.811523,17.514750 1361.904541,32.317303 1366.813843,50.099560 
	C1368.425171,55.935574 1368.924316,62.237282 1368.943481,68.329147 
	C1369.104370,119.318008 1369.034912,170.307602 1369.034912,221.296982 
	C1369.034912,223.085419 1369.035034,224.873840 1369.035034,226.932220 
	C1357.125732,226.932220 1345.704346,226.932220 1333.976196,226.932220 
	C1333.794800,226.048843 1333.444458,225.138351 1333.444580,224.227875 
	C1333.446655,171.239868 1333.567871,118.251534 1333.371704,65.264359 
	C1333.351196,59.731186 1332.109131,53.985909 1330.312622,48.721668 
	C1326.737305,38.244514 1318.374390,31.928612 1307.892578,31.406441 
	C1288.152222,30.423050 1268.273438,30.255749 1248.553955,31.441332 
	C1232.886597,32.383286 1222.990967,45.357952 1222.810425,63.065323 
	C1222.506348,92.889351 1222.766113,122.718849 1222.663452,152.545624 
	C1222.652344,155.803619 1224.270996,157.279312 1226.835571,158.572159 
	C1235.810425,163.096542 1243.931763,168.738831 1250.457397,176.539581 
	C1259.743774,187.640503 1261.776733,200.454071 1258.825317,214.082367 
	C1256.905884,222.945557 1250.445435,227.234848 1240.363892,227.850189 
	C1226.379150,228.703735 1214.737183,220.537888 1211.301270,207.048157 
	C1210.369751,203.390396 1210.365967,199.458817 1210.233643,195.642609 
	C1209.928101,186.826813 1209.707031,178.005188 1209.662842,169.184875 
	C1209.648315,166.275208 1208.763550,164.811066 1205.852417,163.774719 
	C1189.597412,157.988068 1172.856567,154.785767 1155.688599,153.505905 
	C1151.786133,153.214966 1151.920532,155.512390 1151.926270,158.214981 
	C1151.971436,179.377151 1151.951660,200.539444 1151.951904,221.701706 
	C1151.951904,223.323181 1151.951904,224.944672 1151.951904,226.884521 
	C1139.941895,226.884521 1128.391479,226.884521 1116.293579,226.884521 
	C1116.293579,224.754745 1116.293579,222.816147 1116.293579,220.877533 
	C1116.293213,165.888992 1116.345581,110.900314 1116.202026,55.912148 
	C1116.189087,50.985584 1115.382812,45.936520 1114.123413,41.161022 
	C1110.250610,26.478031 1095.112793,28.879234 1087.461548,35.725266 
	C1080.384155,42.057583 1076.767456,50.436794 1073.968018,59.204937 
	C1066.001587,84.155739 1065.154907,109.899429 1066.064331,135.748047 
	C1066.718994,154.358719 1067.783691,173.021225 1074.067871,190.793488 
	C1075.918335,196.027008 1078.796753,201.020691 1081.906982,205.652328 
	C1085.426758,210.894043 1090.831299,213.304565 1097.250977,213.528305 
	C1104.151123,213.768768 1103.881226,213.905334 1104.213135,221.439209 
	C1104.417236,226.074783 1102.978394,227.330566 1098.314575,227.278625 
	C1083.952881,227.118698 1074.188110,220.031754 1067.308838,208.071350 
	C1061.248047,197.533981 1057.731079,185.963379 1056.346436,174.113480 
	C1054.208740,155.819458 1052.538696,137.380280 1052.278076,118.979897 
	C1051.937744,94.960098 1054.836670,71.154076 1064.012817,48.640518 
	C1069.530884,35.102295 1076.821533,21.994392 1092.454224,18.977484 
	C1106.703979,16.227516 1121.594116,15.022711 1135.453979,21.919256 
	C1143.595215,25.970222 1148.939575,33.030067 1149.776489,41.744305 
	C1151.265991,57.256142 1151.305786,72.907181 1151.951904,89.000015 
M1222.709351,191.421432 
	C1222.716675,192.914520 1222.528564,194.439453 1222.765503,195.895172 
	C1223.755493,201.975266 1224.476685,208.608307 1230.732666,211.564117 
	C1234.165039,213.185867 1238.840576,213.985336 1242.408813,213.056122 
	C1246.946899,211.874390 1246.655762,206.558670 1246.519043,202.802521 
	C1246.372803,198.790314 1245.366699,194.551300 1243.673218,190.904800 
	C1239.563599,182.055099 1232.258789,176.391052 1222.709229,171.550171 
	C1222.709229,178.591599 1222.709229,184.517151 1222.709351,191.421432 
z"/>
<path fill="#020202" opacity="1.000000" stroke="none" 
	d="
M998.952576,236.007416 
	C999.025269,241.666916 999.162537,247.326447 999.160400,252.985901 
	C999.143127,298.318207 999.395020,343.653320 998.971313,388.981995 
	C998.626099,425.923279 984.860596,458.070526 961.656738,486.346008 
	C941.034302,511.475983 915.656433,530.529602 885.609924,544.479431 
	C884.456909,545.008118 883.858582,545.199768 883.260193,545.391479 
	C883.307495,545.597046 883.354797,545.802612 883.402100,546.008179 
	C884.430298,545.877930 885.458496,545.747742 886.486694,545.617493 
	C912.905457,538.448669 938.660339,529.686768 961.993530,514.893127 
	C986.047302,499.642670 1004.526978,479.840240 1013.837830,452.389954 
	C1018.391541,438.964569 1019.482544,425.065094 1019.487732,411.028534 
	C1019.508484,354.373413 1019.496338,297.718323 1019.496399,241.063202 
	C1019.496399,239.260208 1019.496399,237.457230 1019.496399,235.411652 
	C1023.940369,235.411652 1028.002930,235.411652 1032.503662,235.411652 
	C1032.503662,237.208511 1032.503662,238.839417 1032.503662,240.470322 
	C1032.503540,297.625336 1032.400757,354.780640 1032.554688,411.935211 
	C1032.614746,434.248962 1029.127808,455.703156 1018.974365,475.767975 
	C1006.453674,500.510773 987.044373,518.498474 963.207764,532.016418 
	C931.178345,550.180542 896.336731,559.623169 860.189209,564.946228 
	C833.601318,568.861572 806.835571,570.243591 779.998230,570.284424 
	C776.948181,570.289062 772.946594,569.515686 771.046082,567.521362 
	C767.337097,563.629211 770.751038,558.083191 776.879333,556.951294 
	C796.168762,553.388855 815.608337,550.447754 834.682678,545.960754 
	C858.616577,540.330627 881.245850,531.058716 901.789978,517.252319 
	C929.962463,498.319397 947.853760,472.084351 956.816711,439.520020 
	C961.172363,423.695343 963.388611,407.551422 963.440918,391.188446 
	C963.605591,339.699829 963.524414,288.210388 964.176758,236.353607 
	C976.194214,235.993103 987.573364,236.000259 998.952576,236.007416 
z"/>
<path fill="#C46F33" opacity="1.000000" stroke="none" 
	d="
M999.034790,235.544907 
	C987.573364,236.000259 976.194214,235.993103 964.335449,235.975815 
	C963.767883,228.661346 963.606506,221.357040 963.603455,214.052658 
	C963.581604,161.390640 963.719299,108.727905 963.427734,56.067505 
	C963.391968,49.605965 961.272400,43.119400 959.762939,36.728413 
	C959.387634,35.139267 957.838379,33.612667 956.465820,32.508442 
	C947.416748,25.228397 929.900391,30.732471 927.207275,41.899799 
	C926.009949,46.864712 925.502441,52.107517 925.483337,57.227177 
	C925.343750,94.556686 925.731323,131.891571 925.201233,169.214066 
	C925.052063,179.721146 923.891724,190.690399 920.592651,200.579453 
	C913.128540,222.953644 892.982727,230.205017 873.078918,226.131729 
	C854.422607,222.313721 836.286255,215.936935 817.945190,210.603378 
	C808.843323,207.956589 799.956970,204.145523 790.683655,202.615829 
	C778.286194,200.570816 765.589783,199.208420 753.054504,199.427505 
	C738.823730,199.676224 729.173279,210.464188 726.028137,226.857758 
	C725.531677,229.445404 725.207397,232.066101 724.772583,234.870941 
	C720.513000,234.870941 716.448853,234.870941 712.406311,234.870941 
	C709.323792,191.303802 751.643433,155.745682 790.391724,166.419312 
	C808.341736,171.363831 826.103271,176.989227 843.988342,182.174393 
	C853.249451,184.859314 862.527710,187.543976 871.918030,189.708847 
	C882.527710,192.154816 892.866211,191.165466 901.832825,184.386749 
	C911.400635,177.153427 912.467407,166.361084 912.528137,155.585724 
	C912.706665,123.922852 912.492920,92.257820 912.659851,60.594826 
	C912.702759,52.462467 913.190125,44.286316 914.179077,36.216785 
	C915.407104,26.196642 922.014587,18.840315 931.931030,18.298780 
	C947.676331,17.438934 963.533936,17.340773 979.276855,18.180296 
	C990.040222,18.754276 996.302429,26.239344 997.834717,37.708729 
	C998.603882,43.466270 999.087524,49.308537 999.097961,55.113567 
	C999.192200,107.608765 999.154602,160.104202 999.151550,212.599564 
	C999.151123,220.093842 999.129028,227.588120 999.034790,235.544907 
z"/>
<path fill="#F8F8F8" opacity="1.000000" stroke="none" 
	d="
M98.425003,195.367096 
	C97.639359,199.202225 97.275673,202.701965 96.196091,205.964844 
	C94.752228,210.328705 92.022049,213.393463 86.777725,213.316238 
	C81.741486,213.242065 78.656349,210.708527 77.083382,206.220062 
	C73.694733,196.550552 73.720726,177.374847 84.241142,168.695709 
	C87.499146,166.007935 91.438400,164.112381 95.172272,162.046646 
	C97.715225,160.639786 98.831665,161.794479 98.800301,164.536789 
	C98.684464,174.666306 98.615051,184.796371 98.425003,195.367096 
z"/>
<path fill="#FAFAFA" opacity="1.000000" stroke="none" 
	d="
M1222.709229,190.932068 
	C1222.709229,184.517151 1222.709229,178.591599 1222.709229,171.550171 
	C1232.258789,176.391052 1239.563599,182.055099 1243.673218,190.904800 
	C1245.366699,194.551300 1246.372803,198.790314 1246.519043,202.802521 
	C1246.655762,206.558670 1246.946899,211.874390 1242.408813,213.056122 
	C1238.840576,213.985336 1234.165039,213.185867 1230.732666,211.564117 
	C1224.476685,208.608307 1223.755493,201.975266 1222.765503,195.895172 
	C1222.528564,194.439453 1222.716675,192.914520 1222.709229,190.932068 
z"/>
<path fill="#FEFEFE" opacity="1.000000" stroke="none" 
	d="
M886.306763,545.389282 
	C885.458496,545.747742 884.430298,545.877930 883.402100,546.008179 
	C883.354797,545.802612 883.307495,545.597046 883.260193,545.391479 
	C883.858582,545.199768 884.456909,545.008118 885.404785,544.765625 
	C885.878479,544.863586 886.002625,545.012268 886.306763,545.389282 
z"/>
</svg>