<svg enable-background="new 0 0 1196 668" viewBox="0 0 1196 668" xmlns="http://www.w3.org/2000/svg"><path d="m882 669c-294 0-587.499969 0-880.999961 0-.000013-222.666626-.000013-445.333267-.000026-667.999931 398.666613-.000023 797.333239-.000023 1195.999987-.000046v667.999855c-104.833374.000122-209.666687.000122-315 .000122m-413.283112-229.204132c-.614746 29.958282 10.788971 53.875549 35.284424 71.571197 16.858673 12.178772 35.204132 21.440735 54.2435 29.553101 6.108215 2.6026 12.285217 5.271973 17.900452 8.76355 22.403503 13.930298 32.396667 35.236084 33.599365 60.707519.669861 14.187561-.736389 28.473206-1.231629 43.46106 3.110962.671997 7.561463 1.633301 12.706543 2.744629 11.872376-29.551575 23.800232-58.63147 35.261414-87.894104 25.133606-64.170899 41.305237-130.528351 43.989441-199.48819 1.702942-43.749817.83197-87.624817.175293-131.429596-.278076-18.550308-4.367737-36.72084-14.174927-52.979004-7.330993-12.153167-17.929199-20.557983-32.057739-22.435135-22.848877-3.035751-42.658692 3.190522-56.625488 22.730805-4.956238 6.934021-9.161255 14.404968-13.88678 21.912918-1.323975-2.438004-2.660034-4.89856-3.99646-7.358872-4.959473-9.129928-10.878296-17.457275-18.79541-24.370986-21.53772-18.808045-65.211762-23.188416-82.68631 16.887039-10.6297 24.377762-13.393707 50.408294-10.676117 76.825668.93457 9.085144 3.332916 18.019714 5.218689 27.835907-6.321137-3.176178-12.671082-5.730804-18.352753-9.338043-18.870208-11.980469-23.403229-26.641175-14.20813-46.983689 3.820465-8.452148 9.360138-16.111648 13.519532-24.430847 3.623291-7.246948 7.192749-14.695633 9.35028-22.454422 2.458161-8.840042 2.443177-18.333038-4.723968-25.304016-11.003235-10.702041-33.413056-10.392608-41.869293 6.384155-5.110932 10.139801-6.175995 21.015305-5.999024 32.051682.157349 9.814224 1.645447 19.46225 5.855377 28.620758 1.834412-.335327 3.423371-.625793 5.150696-.941559-.456146-2.759643-1.272186-5.223907-1.187439-7.656814.234741-6.739472.002625-13.665894 1.540497-20.141907 1.579956-6.653305 10.152252-9.839737 16.324738-7.277329 4.216369 1.750367 5.31549 6.585328 2.550872 13.588211-1.82489 4.622467-4.056152 9.119935-6.481659 13.463288-7.552154 13.523697-12.961242 27.60823-13.787597 43.336822-1.105957 21.050751 9.376404 39.361298 28.433624 48.588959 17.758667 8.598877 36.459107 14.440918 55.51648 19.356659 4.760772 1.228027 8.002227.935516 9.610015-4.489624-1.40747-1.299347-2.969665-2.786011-4.578979-4.219757-8.463074-7.539887-14.805115-16.642456-19.571289-26.853882-9.390442-20.118835-11.241058-41.50354-8.326538-63.029571 2.467254-18.222794 12.05899-32.238434 31.029602-36.978684 21.515564-5.37619 40.861328.325851 58.034363 13.749115 4.910949 3.838623 9.105041 8.594421 13.782287 13.077774 12.699829-16.369934 29.322083-26.136841 49.830933-28.346512 18.330871-1.975021 34.521179 2.478928 45.191101 19.035172 6.38092 9.901031 9.210571 21.154587 9.488586 32.711853.62085 25.815094 1.408814 51.678161.490052 77.463318-.882264 24.759552-3.765625 49.451141-5.925721 74.158996-.434265 4.968262-1.569274 9.875244-2.574462 15.985321-1.815125-2.097625-2.708863-3.294891-3.764466-4.326416-33.107055-32.350311-70.827331-55.241333-118.56195-57.127197-18.274476-.721954-35.959778 2.015076-51.592865 12.322418-24.385865 16.078339-36.882874 39.019745-38.441163 68.968262m-447.240787-112.82074c1.777355 1.717224 3.354904 3.726257 5.3654 5.103028 10.785891 7.386047 29.673102 6.799224 40.978346-1.350403 6.737335-4.856751 13.245636-10.032929 19.822472-15.110077 6.091072-4.70221 12.136345-9.463715 18.507774-14.437958.535278 1.385681.778694 1.97937.995628 2.582642 8.850449 24.6109 25.492539 35.886169 50.822617 34.043792 13.432373-.976959 23.2659-7.347015 27.684891-20.556457 3.283066-9.813873 3.894195-19.944397 1.618149-30.011688-.999909-4.42276-2.715897-8.962525-5.208466-12.717926-8.276077-12.469178-21.342163-15.979706-35.135757-16.31601-9.597184-.233948-19.241379 1.460541-29.081162 2.312256 0-2.788605-.101334-6.60936.01651-10.42337.74456-24.096787 12.28595-38.997635 35.542831-45.51233 21.033051-5.891769 42.442505-6.463958 63.753357-2.351425 33.982026 6.557755 50.993744 27.868927 51.003327 62.638596.006073 22.164612.001129 44.329193.001129 66.493805v5.32254h11.9086c0-30.46524.133758-60.614105-.095032-90.760223-.056457-7.441895-.721374-14.981201-2.08493-22.29329-5.619477-30.134078-22.738907-50.205215-52.689926-58.494216-18.056916-4.997284-36.439759-5.543869-54.883698-2.914093-11.704041 1.668762-22.967651 5.092422-33.200897 11.223632-21.623657 12.955719-31.360123 33.260544-33.945114 57.298447-1.294495 12.037476-.638588 24.278259-1.108467 36.417679-.071381 1.844238-.951989 4.422241-2.333527 5.332611-14.157372 9.328949-28.327713 18.664642-42.880375 27.351929-4.673885 2.79013-10.380363 4.388275-15.814735 5.214874-5.391903.82016-8.542904-2.660767-9.193005-8.132507-1.324533-11.148285 3.417526-20.555817 9.500828-29.057892 8.855167-12.376114 18.756569-23.997788 27.882534-36.187683 8.969467-11.980881 17.3918-24.415589 19.036415-39.850418 1.053673-9.888871.171257-19.958649-8.801064-26.062058-11.272651-7.668213-29.65068-8.242493-40.799369 5.967636-10.980093 13.995239-15.248421 30.343796-16.731574 47.630036-.112041 1.305862 1.562129 2.764984 2.525954 4.350174 3.717415-6.286713 6.3813-11.646546 9.836094-16.435853 5.303779-7.352523 12.472553-11.742874 21.916546-11.780517 11.698516-.046646 15.111152 5.066223 10.249633 15.612045-.481422 1.044327-.960052 2.124726-1.643287 3.03595-8.136532 10.851456-16.125389 21.820999-24.526554 32.464706-9.285162 11.763672-18.213015 23.791901-22.339493 38.373535-3.958667 13.988678-5.358949 28.14856 3.527397 41.986481m1111.912449 59.035919c1.535278-10.874817 2.912109-21.77481 4.635742-32.619659 5.069092-31.893189 11.292847-63.533569 20.575928-94.522766 12.684936-42.345017 23.166382-85.121475 23.772217-129.683136.282348-20.762024-1.339722-41.290314-8.882447-60.905281-7.168701-18.642605-18.363281-33.77591-37.11145-42.386101-12.813477-5.884666-26.312256-8.044455-40.249145-8.267605-28.424561-.455118-51.101685 10.161555-66.762085 34.475842-11.700623 18.166198-17.290345 38.406082-20.317872 59.499977-1.360961 9.482139-2.33728 19.019493-3.493469 28.576179 1.745239.493988 2.690613.773636 3.642761 1.027909 1.088318.290634 2.182618.558715 3.633973.928146.447754-1.63295.888488-3.01413 1.20343-4.423431 4.013061-17.958382 9.834656-35.194168 19.473266-51.036179 21.566529-35.446388 61.391358-40.780663 93.082032-26.253307 19.631225 8.99918 28.677124 26.561008 33.464233 46.547809 6.932373 28.944161 4.34082 57.929924-.714111 86.787819-4.86377 27.766892-12.972657 54.709534-22.021729 81.34961-22.262207 65.539306-35.91748 132.59967-36.280273 202.050628-.217407 41.635651 4.039306 82.499054 21.916382 120.842133 10.667846 22.880798 25.126587 42.965088 44.699585 59.319031 1.819213-2.012085 3.577636-3.956971 5.412597-5.986512-11.08081-16.229553-19.179809-33.726379-25.312866-52.100036-11.265259-33.749146-15.554932-68.740479-17.698975-104.05304-2.196533-36.178558-.755371-72.26831 3.332276-109.16803m-72.294434-111.511047v62.151764h12.4823c.100464-.982483.223877-1.627228.223999-2.272003.009888-35.498139.239746-70.998474-.097412-106.493408-.145142-15.272751-2.776245-30.212006-11.468872-43.337296-11.367432-17.164032-28.336914-23.333908-48.25885-24.819885 0 2.510391.001587 4.321609-.000244 6.132843-.026612 26.831665.226867 53.667389-.161316 80.49382-.37146 25.663269-13.975952 42.71698-38.731385 49.070007-6.406189 1.643982-13.085022 2.650452-19.68988 3.011719-16.39801.897003-32.682983-.093842-47.965881-6.878784-7.220032-3.205444-12.829285-8.435242-12.263245-17.111298.546265-8.372101 7.287781-11.314239 14.094299-13.604522 12.149109-4.087983 24.772828-4.84871 37.459961-4.966263 6.956971-.064469 13.914978-.011521 21.070008-.011521 0-4.83139 0-9.208221 0-13.87059-7.764222 0-15.245545.216339-22.710022-.04686-13.811951-.48703-27.726441-.874603-40.541565-6.950836-12.007874-5.693512-12.871155-17.44223-1.9469-25.052048 2.421509-1.686828 5.145691-3.321487 7.9646-3.983261 8.22644-1.931335 16.51178-4.166366 24.884399-4.783325 11.032593-.812973 22.170288-.199844 33.22699-.199844 0-14.366638 0-27.26387 0-40.599518-9.111389 0-17.916687-.078125-26.720032.015411-21.885803.232529-43.620849 1.654724-64.333313 9.631974-21.795837 8.394516-37.140319 22.872787-43.182067 46.117096-3.849549 14.809906-2.23407 29.382659 1.36267 43.928375 2.244141 9.075622 5.477478 17.674591 11.44281 24.836761 5.295838-2.240844 6.279969-5.501861 4.993287-10.853363-3.404908-14.161072-4.408753-28.644394-3.129273-43.18045 1.960693-22.274674 11.315125-40.205704 31.495911-51.254364 4.333679-2.372605 9.229736-3.717972 13.86676-5.536545-27.967834 14.916336-27.068359 61.420486 6.197266 74.360703-.085144.128112-.140564.307662-.259888.376602-1.865356 1.077636-3.759338 2.106964-5.607422 3.213119-13.389709 8.014252-20.36969 19.530915-19.939514 35.438996.526367 19.467681 10.415527 32.678649 27.467285 40.566742 25.088867 11.606018 51.321289 13.612731 77.951843 6.465606 23.876587-6.408081 38.548706-22.344147 43.684693-46.410492 1.96405-9.203277 2.689636-18.789551 2.89447-28.224853.426269-19.641144.128906-39.298004.128906-59.07396.803711 0 1.29773-.064773 1.769898.009415 14.751831 2.318573 22.731079 12.032456 27.398559 25.257034 5.437256 15.405884 5.024658 31.444199 4.946167 48.437302m-281.193725 35c0-94.059814 0-188.119629 0-282.187572-8.251892 0-15.825684 0-23.446045 0v361.375835h23.445984c0-26.273895 0-52.231079.000061-79.188263m-421.783387-149c0-44.412331 0-88.824669 0-133.199274-8.171508 0-15.598785 0-23.010986 0v361.39715h23.011047c0-75.933014 0-151.565445-.000061-228.197876z" fill="#fff"/><path d="m468.755402 439.35498c1.519775-29.507629 14.016784-52.449035 38.402649-68.527374 15.633087-10.307342 33.318389-13.044372 51.592865-12.322418 47.734619 1.885864 85.454895 24.776886 118.56195 57.127197 1.055603 1.031525 1.949341 2.228791 3.764466 4.326416 1.005188-6.110077 2.140197-11.017059 2.574462-15.985321 2.160096-24.707855 5.043457-49.399444 5.925721-74.158996.918762-25.785157.130798-51.648224-.490052-77.463318-.278015-11.557266-3.107666-22.810822-9.488586-32.711853-10.669922-16.556244-26.86023-21.010193-45.191101-19.035172-20.50885 2.209671-37.131104 11.976578-49.830933 28.346512-4.677246-4.483353-8.871338-9.239151-13.782287-13.077774-17.173035-13.423264-36.518799-19.125305-58.034363-13.749115-18.970612 4.74025-28.562348 18.75589-31.029602 36.978684-2.91452 21.526031-1.063904 42.910736 8.326538 63.029571 4.766174 10.211426 11.108215 19.313995 19.571289 26.853882 1.609314 1.433746 3.171509 2.92041 4.578979 4.219757-1.607788 5.42514-4.849243 5.717651-9.610015 4.489624-19.057373-4.915741-37.757813-10.757782-55.51648-19.356659-19.05722-9.227661-29.539581-27.538208-28.433624-48.588959.826355-15.728592 6.235443-29.813125 13.787597-43.336822 2.425507-4.343353 4.656769-8.840821 6.481659-13.463288 2.764618-7.002883 1.665497-11.837844-2.550872-13.588211-6.172486-2.562408-14.744782.624024-16.324738 7.277329-1.537872 6.476013-1.305756 13.402435-1.540497 20.141907-.084747 2.432907.731293 4.897171 1.187439 7.656814-1.727325.315766-3.316284.606232-5.150696.941559-4.20993-9.158508-5.698028-18.806534-5.855377-28.620758-.176971-11.036377.888092-21.911881 5.999024-32.051682 8.456237-16.776763 30.866058-17.086196 41.869293-6.384155 7.167145 6.970978 7.182129 16.463974 4.723968 25.304016-2.157531 7.758789-5.726989 15.207474-9.35028 22.454422-4.159394 8.319199-9.699067 15.978699-13.519532 24.430847-9.195099 20.342514-4.662078 35.00322 14.20813 46.983689 5.681671 3.607239 12.031616 6.161865 18.352753 9.338043-1.885773-9.816193-4.284119-18.750763-5.218689-27.835907-2.71759-26.417374.046417-52.447906 10.676117-76.825668 17.474548-40.075455 61.14859-35.695084 82.68631-16.887039 7.917114 6.913711 13.835937 15.241058 18.79541 24.370986 1.336426 2.460312 2.672485 4.920868 3.99646 7.358872 4.725525-7.50795 8.930542-14.978897 13.88678-21.912918 13.966796-19.540283 33.776611-25.766556 56.625488-22.730805 14.12854 1.877152 24.726746 10.281968 32.057739 22.435135 9.80719 16.258164 13.896851 34.428696 14.174927 52.979004.656677 43.804779 1.527649 87.679779-.175293 131.429596-2.684204 68.959839-18.855835 135.317291-43.989441 199.48819-11.461182 29.262634-23.389038 58.342529-35.261414 87.894104-5.14508-1.111328-9.595581-2.072632-12.706543-2.744629.49524-14.987854 1.90149-29.273499 1.231629-43.46106-1.202698-25.471435-11.195862-46.777221-33.599365-60.707519-5.615235-3.491577-11.792237-6.16095-17.900452-8.76355-19.039368-8.112366-37.384827-17.374329-54.2435-29.553101-24.495453-17.695648-35.89917-41.612915-35.24591-72.012085m154.255157 156.295411c.392395 3.770935.78479 7.541931 1.184998 11.388244.356811-.268005.722107-.396911.816711-.63385 20.003357-50.114624 37.885498-100.92102 49.716614-153.672027.384216-1.712952-.400452-4.45633-1.657166-5.637177-5.685424-5.342102-11.460022-10.666077-17.705749-15.321472-23.300659-17.367981-50.301819-26.109314-78.133118-32.760193-18.646362-4.455933-37.426758-6.256805-56.385254-2.105286-10.702118 2.343537-20.05661 7.119873-26.648041 16.218323-9.489105 13.098206-9.852203 27.976807-7.466644 43.04187 3.202759 20.225586 15.651398 34.41568 31.583191 46.08432 14.548706 10.65567 31.548218 16.335419 47.758484 23.628632 15.073303 6.781677 28.258118 16.123535 38.99469 28.836914 9.844055 11.656555 15.278931 25.205872 17.941284 40.931702z" fill="#353535"/><path d="m21.283014 326.663605c-8.693259-13.526398-7.292977-27.68628-3.33431-41.674958 4.126478-14.581634 13.054331-26.609863 22.339493-38.373535 8.401165-10.643707 16.390022-21.61325 24.526554-32.464706.683235-.911224 1.161865-1.991623 1.643287-3.03595 4.861519-10.545822 1.448883-15.658691-10.249633-15.612045-9.443993.037643-16.612767 4.427994-21.916546 11.780517-3.454794 4.789307-6.118679 10.14914-9.836094 16.435853-.963825-1.58519-2.637995-3.044312-2.525954-4.350174 1.483153-17.28624 5.751481-33.634797 16.731574-47.630036 11.148689-14.210129 29.526718-13.635849 40.799369-5.967636 8.972321 6.103409 9.854737 16.173187 8.801064 26.062058-1.644615 15.434829-10.066948 27.869537-19.036415 39.850418-9.125965 12.189895-19.027367 23.811569-27.882534 36.187683-6.083302 8.502075-10.825361 17.909607-9.500828 29.057892.650101 5.47174 3.801102 8.952667 9.193005 8.132507 5.434372-.826599 11.14085-2.424744 15.814735-5.214874 14.552662-8.687287 28.723003-18.02298 42.880375-27.351929 1.381538-.91037 2.262146-3.488373 2.333527-5.332611.469879-12.13942-.186028-24.380203 1.108467-36.417679 2.584991-24.037903 12.321457-44.342728 33.945114-57.298447 10.233246-6.13121 21.496856-9.55487 33.200897-11.223632 18.443939-2.629776 36.826782-2.083191 54.883698 2.914093 29.951019 8.289001 47.070449 28.360138 52.689926 58.494216 1.363556 7.312089 2.028473 14.851395 2.08493 22.29329.22879 30.146118.095032 60.294983.095032 90.760223-3.840698 0-7.579041 0-11.9086 0 0-1.775177 0-3.548859 0-5.32254 0-22.164612.004944-44.329193-.001129-66.493805-.009583-34.769669-17.021301-56.080841-51.003327-62.638596-21.310852-4.112533-42.720306-3.540344-63.753357 2.351425-23.256881 6.514695-34.798271 21.415543-35.542831 45.51233-.117844 3.81401-.01651 7.634765-.01651 10.42337 9.839783-.851715 19.483978-2.546204 29.081162-2.312256 13.793594.336304 26.85968 3.846832 35.135757 16.31601 2.492569 3.755401 4.208557 8.295166 5.208466 12.717926 2.276046 10.067291 1.664917 20.197815-1.618149 30.011688-4.418991 13.209442-14.252518 19.579498-27.684891 20.556457-25.330078 1.842377-41.972168-9.432892-50.822617-34.043792-.216934-.603272-.46035-1.196961-.995628-2.582642-6.371429 4.974243-12.416702 9.735748-18.507774 14.437958-6.576836 5.077148-13.085137 10.253326-19.822472 15.110077-11.305244 8.149627-30.192455 8.73645-40.978346 1.350403-2.010496-1.376771-3.588045-3.385804-5.558487-5.414551m101.124296-20.791046c7.790001 15.556854 17.739098 20.950653 33.552834 18.042083 4.589737-.844177 8.269913-2.934997 10.189102-7.651672 3.614136-8.882263-.173507-21.986664-8.531494-26.722717-10.839065-6.141999-22.276504-4.9245-33.662445-1.510529-4.371376 1.31073-6.245323 3.859558-4.245369 8.583801 1.143616 2.701386 1.624497 5.683319 2.697372 9.259034z" fill="#343434"/><path d="m1133.317383 386.457458c-4.01648 36.453309-5.457642 72.543061-3.261109 108.721619 2.144043 35.312561 6.433716 70.303894 17.698975 104.05304 6.133057 18.373657 14.232056 35.870483 25.312866 52.100036-1.834961 2.029541-3.593384 3.974427-5.412597 5.986512-19.572998-16.353943-34.031739-36.438233-44.699585-59.319031-17.877076-38.343079-22.133789-79.206482-21.916382-120.842133.362793-69.450958 14.018066-136.511322 36.280273-202.050628 9.049072-26.640076 17.157959-53.582718 22.021729-81.34961 5.054931-28.857895 7.646484-57.843658.714111-86.787819-4.787109-19.986801-13.833008-37.548629-33.464233-46.547809-31.690674-14.527356-71.515503-9.193081-93.082032 26.253307-9.63861 15.842011-15.460205 33.077797-19.473266 51.036179-.314942 1.409301-.755676 2.790481-1.20343 4.423431-1.451355-.369431-2.545655-.637512-3.633973-.928146-.952148-.254273-1.897522-.533921-3.642761-1.027909 1.156189-9.556686 2.132508-19.09404 3.493469-28.576179 3.027527-21.093895 8.617249-41.333779 20.317872-59.499977 15.6604-24.314287 38.337524-34.93096 66.762085-34.475842 13.936889.22315 27.435668 2.382939 40.249145 8.267605 18.748169 8.610191 29.942749 23.743496 37.11145 42.386101 7.542725 19.614967 9.164795 40.143257 8.882447 60.905281-.605835 44.561661-11.087281 87.338119-23.772217 129.683136-9.283081 30.989197-15.506836 62.629577-20.575928 94.522766-1.723633 10.844849-3.100464 21.744842-4.706909 33.06607z" fill="#353535"/><path d="m1061.094116 274c.078491-16.493103.491089-32.531418-4.946167-47.937302-4.66748-13.224578-12.646728-22.938461-27.398559-25.257034-.472168-.074188-.966187-.009415-1.769898-.009415 0 19.775956.297363 39.432816-.128906 59.07396-.204834 9.435302-.93042 19.021576-2.89447 28.224853-5.135987 24.066345-19.808106 40.002411-43.684693 46.410492-26.630554 7.147125-52.862976 5.140412-77.951843-6.465606-17.051758-7.888093-26.940918-21.099061-27.467285-40.566742-.430176-15.908081 6.549805-27.424744 19.939514-35.438996 1.848084-1.106155 3.742066-2.135483 5.607422-3.213119.119324-.06894.174744-.24849.259888-.376602-33.265625-12.940217-34.1651-59.444367-6.197266-74.360703-4.637024 1.818573-9.533081 3.16394-13.86676 5.536545-20.180786 11.04866-29.535218 28.97969-31.495911 51.254364-1.27948 14.536056-.275635 29.019378 3.129273 43.18045 1.286682 5.351502.302551 8.612519-4.993287 10.853363-5.965332-7.16217-9.198669-15.761139-11.44281-24.836761-3.59674-14.545716-5.212219-29.118469-1.36267-43.928375 6.041748-23.244309 21.38623-37.72258 43.182067-46.117096 20.712464-7.97725 42.44751-9.399445 64.333313-9.631974 8.803345-.093536 17.608643-.015411 26.720032-.015411v40.599518c-11.056702 0-22.194397-.613129-33.22699.199844-8.372619.616959-16.657959 2.85199-24.884399 4.783325-2.818909.661774-5.543091 2.296433-7.9646 3.983261-10.924255 7.609818-10.060974 19.358536 1.9469 25.052048 12.815124 6.076233 26.729614 6.463806 40.541565 6.950836 7.464477.263199 14.9458.04686 22.710022.04686v13.87059c-7.15503 0-14.113037-.052948-21.070008.011521-12.687133.117553-25.310852.87828-37.459961 4.966263-6.806518 2.290283-13.548034 5.232421-14.094299 13.604522-.56604 8.676056 5.043213 13.905854 12.263245 17.111298 15.282898 6.784942 31.567871 7.775787 47.965881 6.878784 6.604858-.361267 13.283691-1.367737 19.68988-3.011719 24.755433-6.353027 38.359925-23.406738 38.731385-49.070007.388183-26.826431.134704-53.662155.161316-80.49382.001831-1.811234.000244-3.622452.000244-6.132843 19.921936 1.485977 36.891418 7.655853 48.25885 24.819885 8.692627 13.12529 11.32373 28.064545 11.468872 43.337296.337158 35.494934.1073 70.995269.097412 106.493408-.000122.644775-.123535 1.28952-.223999 2.272003-4.002808 0-7.910645 0-12.4823 0 0-20.631378 0-41.391571 0-62.651764z" fill="#353535"/><path d="m779.900391 310c-.000061 26.457184-.000061 52.414368-.000061 78.688263-7.954224 0-15.528443 0-23.445984 0 0-120.358276 0-240.70723 0-361.375835h23.446045z" fill="#c67136"/><path d="m358.117035 161c.00003 76.132431.00003 151.764862.00003 227.697876-7.777832 0-15.196319 0-23.011047 0 0-120.359497 0-240.728302 0-361.39715h23.010986c0 44.374605 0 88.786943.000031 133.699274z" fill="#c56f33"/><path d="m622.969055 595.216431c-2.620849-15.29187-8.055725-28.841187-17.89978-40.497742-10.736572-12.713379-23.921387-22.055237-38.99469-28.836914-16.210266-7.293213-33.209778-12.972962-47.758484-23.628632-15.931793-11.66864-28.380432-25.858734-31.583191-46.08432-2.385559-15.065063-2.022461-29.943664 7.466644-43.04187 6.591431-9.09845 15.945923-13.874786 26.648041-16.218323 18.958496-4.151519 37.738892-2.350647 56.385254 2.105286 27.831299 6.650879 54.832459 15.392212 78.133118 32.760193 6.245727 4.655395 12.020325 9.97937 17.705749 15.321472 1.256714 1.180847 2.041382 3.924225 1.657166 5.637177-11.831116 52.751007-29.713257 103.557403-49.716614 153.672027-.094604.236939-.4599.365845-.816711.63385-.400208-3.846313-.792603-7.617309-1.226502-11.822204z" fill="#fefefe"/><path d="m122.260506 305.512512c-.926071-3.215668-1.406952-6.197601-2.550568-8.898987-1.999954-4.724243-.126007-7.273071 4.245369-8.583801 11.385941-3.413971 22.82338-4.63147 33.662445 1.510529 8.357987 4.736053 12.14563 17.840454 8.531494 26.722717-1.919189 4.716675-5.599365 6.807495-10.189102 7.651672-15.813736 2.90857-25.762833-2.485229-33.699638-18.40213z" fill="#fbfbfb"/></svg>