<svg enable-background="new 0 0 1382 668" viewBox="0 0 1382 668" xmlns="http://www.w3.org/2000/svg"><path d="m1059 669c-352.957092 0-705.414185 0-1057.935644 0 0-222.596649 0-445.193314 0-667.894992h1381.91538v667.894992c-107.839965 0-215.659912 0-323.979736 0m-709.168152-361.500031v29.117463h12.005005c0-2.200867 0-4.021088 0-5.841339 0-32.660553.117279-65.321808-.087189-97.981064-.047699-7.613694-.547973-15.339768-1.938171-22.809769-5.768951-30.998749-25.881134-47.891067-57.33316-49.394135v5.453675c0 40.159134.225036 80.320663-.198823 120.475311-.080261 7.604706-2.069915 15.397888-4.433624 22.697693-1.621338 5.007202-6.72583 4.998352-9.450317.393677-1.640015-2.771729-3.107147-6.079804-3.267853-9.217774-.705658-13.77832-.868805-27.583679-1.300598-41.376983-.526642-16.823258-2.283447-33.427979-8.648865-49.244156-8.316253-20.663391-22.423569-35.504318-43.698974-42.722779-25.216843-8.55574-50.774781-7.932312-76.068146-.627716-26.419083 7.629715-42.729683 25.19957-47.825226 52.445649-1.485024 7.94046-1.890068 16.082931-2.819336 24.393737-7.092476.72168-14.3302 1.45813-22.244789 2.263443 0-1.918838.029724-3.705307-.004845-5.490524-.212684-10.984619-.025299-21.99733-.774437-32.945724-.810424-11.844117-3.409439-23.342957-10.877105-33.087311-8.313225-10.847733-19.805333-13.727341-32.486962-11.516663-12.917078 2.25174-20.020406 10.882309-22.103605 23.66745-3.464204 21.260727.433248 41.29715 10.493624 60.177719 3.227707 6.057526 3.47771 5.924317 9.916843 2.796128-4.687796-12.973664-7.962301-26.036057-3.694679-39.859391 2.039207-6.605255 6.504246-10.270904 13.169956-11.157684 7.086483-.942749 13.314266.948685 17.44521 7.135742 8.815864 13.203827 8.688003 28.160111 8.535118 41.838577-8.929272 4.17508-17.460797 7.126862-24.878937 11.833466-19.691057 12.493408-29.883648 30.367218-27.172203 54.195129 1.17239 10.302887 5.858385 19.09195 16.222282 22.617798 11.242874 3.82489 22.288288 3.25412 31.569596-5.601227 8.274978-7.895202 11.24604-18.270721 13.02375-28.993438 1.405662-8.478638 1.975227-17.095917 2.978927-26.222962 6.766526-.405426 13.661629-.818573 20.804825-1.246551.471077 4.055084.782814 7.66394 1.323784 11.238128 2.615181 17.278565 10.043259 31.765381 24.247605 42.519104 12.210662 9.244324 26.299011 12.450074 41.106948 13.013703 14.115967.537323 28.019944-.8172 39.690018-10.021179 12.153839-9.585572 17.722351-22.116761 15.038956-37.600983-2.114044-12.198883-9.763519-20.862824-19.555252-27.721283-18.904587-13.241379-40.497666-18.67453-63.042618-21.055344-7.401184-.781585-14.851807-1.094802-22.6829-1.650802.156815-2.573197.074967-4.90419.471993-7.150559 2.639786-14.935669 12.626053-23.635681 26.072052-28.054962 28.525543-9.375442 57.579346-10.07904 86.281982-1.13855 18.567933 5.783676 31.39589 18.278199 35.350937 38.028839 1.520081 7.59105 1.885681 15.437455 2.444184 23.191544.990417 13.751404 1.012115 27.617523 2.851684 41.244995 1.012909 7.50354 3.845307 15.252777 7.745606 21.759369 5.757782 9.605164 17.161468 8.956696 23.190735-.548157 2.011291-3.170746 4.03012-6.695221 4.680358-10.303985 1.998749-11.092865 4.412964-22.275605 4.716675-33.476258.722412-26.640838.325104-53.312057.379456-79.971008.003509-1.732452.000458-3.46492.000458-5.388885 9.817108.854904 17.080291 4.815094 22.653961 12.079956 7.689026 10.022079 10.690735 21.768234 11.211273 33.914062.855133 19.952698.696197 39.948914.964813 60.926788m337.976441-132.760116c-5.505188-2.664536-10.79834-5.967514-16.553589-7.879257-21.045533-6.990769-42.441834-7.059113-63.931458-2.03093-17.878723 4.183289-32.58313 13.412445-42.354431 29.029877-16.28595 26.029678-19.326782 54.614364-14.325378 84.368027 1.013244 6.027862 2.807739 11.924408 4.609924 19.409607-8.415405-4.524323-16.014832-7.867127-22.790955-12.432099-9.482544-6.388367-16.309143-15.172272-15.239074-27.309509.570617-6.472031 2.439026-13.189377 5.297302-19.024155 5.734253-11.705887 12.85675-22.724243 18.822876-34.326324 4.832031-9.396561 6.77478-19.505402 2.915771-29.833649-3.743896-10.020157-12.386596-13.203171-21.904174-13.540039-10.022583-.354752-18.826233 3.235001-23.501893 12.85173-9.073638 18.662339-8.130523 37.844529-2.358703 57.24202 1.188171 3.993179 3.024719 4.630508 6.557434 2.960739-.497925-4.613815-1.668182-9.266098-1.320343-13.801987.433899-5.658493 1.413818-11.497696 3.472626-16.742843 1.847747-4.707443 9.938415-6.433319 15.005249-4.318558 3.732971 1.558044 5.026733 5.749176 2.981323 11.800583-1.530518 4.528183-3.325562 9.074615-5.744873 13.17514-8.210266 13.915726-13.94281 28.503083-15.095825 44.845429-1.465668 20.77417 8.801361 39.773834 27.597107 48.950836 17.989135 8.783142 36.944641 14.870514 56.393188 19.58728 4.816773 1.168213 7.952393.788422 9.616821-5.133728-.274963-.165344-1.070556-.516907-1.71582-1.050354-22.561279-18.65097-34.375977-41.634399-31.445801-71.837921 2.493836-25.705292 18.093933-46.919586 42.627136-54.676758 22.322632-7.058212 44.608399-6.161361 66.633118 1.06572 23.648438 7.759857 37.10669 24.070846 39.267945 49.113113 1.34851 15.625183-1.276612 30.883301-5.625306 45.780487-3.810302 13.052643-10.084106 24.791474-20.78656 33.807434-1.215149 1.023682-.815551 3.964081-1.273559 6.65506 17.715759-2.582886 32.465393-8.290893 44.634216-19.726593 15.521179-14.586181 23.282227-33.321899 25.424377-53.805572 2.122803-20.297715 1.754395-40.856354 2.461243-61.301148.066467-1.922104.00885-3.848526.00885-6.13208 12.280823 1.337067 20.685364 7.305649 26.232422 17.393356 6.157349 11.197525 8.146423 23.52977 8.334229 36.025818.388061 25.82341.210571 51.65535.264831 77.48378.003784 1.774536.000549 3.549073.000549 5.329224h12.001832c0-2.095276.000061-3.903595.000061-5.711945 0-33.163299.127624-66.327453-.096436-99.489258-.051331-7.601776-.726929-15.304641-2.119629-22.773712-5.826782-31.248581-28.094543-47.02243-56.951965-48.05046v5.413757c0 24.830826.263489 49.665405-.091736 74.49115-.240906 16.84053-2.481079 33.479446-8.899963 49.253738-4.304993 10.579468-10.148804 19.997833-20.709534 25.670288-.240479-.55545-.49884-.866913-.475037-1.15509.053345-.6474.17688-1.308014.393555-1.920197 10.220032-28.884704 12.615967-58.329834 5.721069-88.265396-4.600769-19.975219-13.716736-37.295715-31.963012-49.434631m159.579467 411.385208c11.037537 27.555481 26.842652 51.738586 49.766419 71.117676 1.981872-2.15741 3.644409-3.967285 5.40216-5.880737-10.95996-16.932557-19.483337-34.720643-25.628784-53.666932-12.030517-37.089599-16.294861-75.377136-17.814148-114.090393-1.684265-42.915313.819397-85.642944 8.159912-127.917022 5.060242-29.141877 10.478821-58.374726 18.379517-86.833374 11.145874-40.147828 22.306091-80.176621 25.660217-121.855729 2.163208-26.881042 1.245606-53.678093-8.338989-79.345344-8.385803-22.45673-23.46405-38.347445-46.868713-45.570778-12.90802-3.98377-26.095642-4.945765-39.482972-4.116781-24.656494 1.526798-43.746521 12.768718-57.137146 33.401495-17.469482 26.917473-21.710571 57.461914-23.974792 88.88388 2.394165.698761 4.559265 1.330674 6.758484 1.972535.347229-.831238.602905-1.261277.709839-1.725571 4.272827-18.552056 9.879028-36.594704 19.711975-53.095505 20.67865-34.701054 59.16571-41.892746 92.289368-27.535789 20.783691 9.008369 30.125671 27.372207 34.854919 48.305984 6.158508 27.26078 4.41095 54.622292-.294006 81.879906-5.449952 31.573654-14.776795 62.119156-24.97876 92.420105-14.807739 43.980316-25.337586 88.949585-30.320313 135.108185-3.508667 32.503326-4.882995 65.105926-2.275024 97.784973 1.91803 24.03363 7.030823 47.355163 15.420837 70.759216m-492.632202-156.447082c-5.964142-27.512604-15.351806-53.786896-27.748871-79.038544-6.851806 3.103943-6.918548 3.135895-4.189514 8.83789 9.165344 19.14975 15.540039 39.239808 19.747284 59.989808 5.921845 29.206268 7.754517 58.793701 6.13208 88.49057-1.165954 21.341735-6.630951 41.673034-18.342529 59.925659-.890839 1.388428-2.186707 2.516968-3.931061 4.484497-7.171814-43.164368-19.837646-82.532471-53.205597-112.69632-.489075.745972-.873779 1.290589-1.215759 1.86081-3.674835 6.127227-7.080505 12.437622-11.10202 18.327758-2.839142 4.158356-2.224213 6.574402 1.513458 9.923798 26.640076 23.872406 44.483154 53.511993 56.197021 87.073578 1.037384 2.97229.748475 5.223999-1.728515 7.556274-8.680023 8.172852-18.34317 14.848267-29.128693 19.875122-25.773468 12.012207-53.310608 15.247559-81.267319 15.455933-24.402435.181885-48.48471-2.419128-71.454177-11.645752-20.244698-8.13208-37.260697-20.348816-49.988045-38.269043-16.34108-23.008484-22.801697-49.325439-25.04517-76.816315-2.19064-26.843505-.616055-53.58847 4.737102-80.046814.533288-2.635833.760857-4.84021-2.864566-5.562866-3.532402-.704132-3.90028 1.516022-4.342972 3.879791-3.362976 17.95691-7.106793 35.854218-9.953755 53.892884-3.270248 20.720703-2.400428 41.601837.834092 62.218811 3.854118 24.566406 12.212188 47.608154 26.523636 68.232239 20.563255 29.633483 48.140304 49.391479 83.169059 58.126953 29.074341 7.250549 58.504029 6.894531 87.715958 1.039306 24.358551-4.882324 46.335693-15.341735 65.016235-32.014709 28.028778-25.01648 43.374939-56.882568 48.936554-93.541199 5.02948-33.151214 2.212036-66.086761-5.013916-99.560119m956.024842-103.389161c5.250976-10.872223 6.819213-22.637481 7.094848-34.410339.67041-28.631866.685181-57.279083.960571-85.920151.016602-1.727844.002076-3.455963.002076-5.546539 9.720214 1.396469 17.048706 5.176224 22.621704 12.445862 8.512329 11.103836 11.010254 24.191421 11.366333 37.484726.72229 26.967437.490478 53.960388.649658 80.94284.01062 1.795441.001343 3.590973.001343 5.406861h11.839843c.084473-.943482.193116-1.591401.193238-2.239319.01001-34.826233.424438-69.660279-.233643-104.474045-.203613-10.770905-2.204834-21.826706-5.33789-32.159256-7.30542-24.092682-30.018189-37.051636-53.776368-36.924225 0 1.781983.002198 3.57312-.000244 5.364273-.054565 41.155594.008423 82.312073-.301147 123.465744-.042725 5.689453-1.418335 11.531342-3.190796 16.972443-.808594 2.482574-3.934082 5.5-6.291138 5.765198-1.765503.198639-4.829834-3.278382-5.804931-5.721833-1.564698-3.921447-2.527222-8.328643-2.611573-12.553161-.368896-18.481964-.209839-36.973816-.47583-55.458695-.227539-15.795669-.95581-31.516922-6.248413-46.702102-9.050781-25.96875-30.648926-36.923569-56.84668-28.209565-16.776001 5.580079-26.123535 18.766617-32.747436 34.079972-3.75293 8.676178-6.37146 17.843155-9.657715 27.236999-1.084961-3.706466-2.087524-7.156173-3.104736-10.601532-4.612915-15.622009-11.036255-30.249252-23.092774-41.747909-15.521728-14.803315-43.546508-17.003098-57.965332.643066-4.516479 5.527359-8.266845 12.101502-10.710937 18.800995-3.48938 9.564819-5.453003 19.686218-8.380249 30.748383-5.437622-2.865601-11.445435-5.049714-16.265869-8.771805-10.776612-8.321137-10.918213-20.430435-8.937745-32.327606 1.360718-8.173066 4.458863-16.05687 6.807251-24.162629-1.095214-.44197-2.604126-1.050888-4.1958-1.693161-11.096436 14.802048-17.757447 31.256653-18.839844 49.565979-1.907715 32.272217 17.752685 49.643113 47.10498 50.794098.523926-5.949218.849976-11.917267 1.615967-17.828308 1.183716-9.13295 4.031983-17.677933 9.608032-25.199249 12.186768-16.438385 37.307373-14.590576 51.452881-7.275345 11.869873 6.138397 19.852173 15.933853 25.675781 27.568375 3.604371 7.200699 6.46045 14.776001 9.302125 21.370407 4.065795-8.949799 7.868408-18.68277 12.767822-27.828156 10.930908-20.404175 28.077759-29.350494 48.92688-26.277603 12.949463 1.9086 22.958007 8.174957 27.372558 20.831116 2.249634 6.449295 3.393799 13.510177 3.729737 20.358764 1.026733 20.924836 1.044921 41.902009 2.22998 62.814911.522705 9.220856 2.62146 18.444306 8.752319 26.024262 6.368164 7.873382 14.953736 8.102478 21.644165.534607 1.187134-1.342804 2.035401-2.985077 3.296998-5.187348m-894.664643 44.210572v18.151245h23.412995c0-120.705445 0-241.054444 0-361.300452-7.95163 0-15.52707 0-23.412903 0 0 114.287512 0 228.218451-.000092 343.149207m571.794098-244.99939c0-32.74469 0-65.489384 0-98.15987-8.297913 0-15.87207 0-23.418152 0v361.321735h23.418152c0-87.616913 0-174.889389 0-263.161865m-343.775757 163.883484c7.790589 16.378754 15.581116 32.757507 23.425232 49.248901 6.138672-1.950439 6.128784-1.94873 4.809937-9.592651-.19751-1.144409-.208741-2.319885-.379334-3.470123-4.050171-27.30066-9.82843-54.118348-23.502991-78.500214-7.26892-12.960785-16.827026-24.044495-27.23468-31.860901-7.063598 6.598984-13.567077 12.674667-20.152038 18.826477 16.492553 16.332932 30.828552 34.562775 43.033874 55.348511z" fill="#fff"/><path d="m349.831848 306.999939c-.268616-20.477844-.10968-40.47406-.964813-60.426758-.520538-12.145828-3.522247-23.891983-11.211273-33.914062-5.57367-7.264862-12.836853-11.225052-22.653961-12.079956 0 1.923965.003051 3.656433-.000458 5.388885-.054352 26.658951.342956 53.33017-.379456 79.971008-.303711 11.200653-2.717926 22.383393-4.716675 33.476258-.650238 3.608764-2.669067 7.133239-4.680358 10.303985-6.029267 9.504853-17.432953 10.153321-23.190735.548157-3.900299-6.506592-6.732697-14.255829-7.745606-21.759369-1.839569-13.627472-1.861267-27.493591-2.851684-41.244995-.558503-7.754089-.924103-15.600494-2.444184-23.191544-3.955047-19.75064-16.783004-32.245163-35.350937-38.028839-28.702636-8.94049-57.756439-8.236892-86.281982 1.13855-13.445999 4.419281-23.432266 13.119293-26.072052 28.054962-.397026 2.246369-.315178 4.577362-.471993 7.150559 7.831093.556 15.281716.869217 22.6829 1.650802 22.544952 2.380814 44.138031 7.813965 63.042618 21.055344 9.791733 6.858459 17.441208 15.5224 19.555252 27.721283 2.683395 15.484222-2.885117 28.015411-15.038956 37.600983-11.670074 9.203979-25.574051 10.558502-39.690018 10.021179-14.807937-.563629-28.896286-3.769379-41.106948-13.013703-14.204346-10.753723-21.632424-25.240539-24.247605-42.519104-.54097-3.574188-.852707-7.183044-1.323784-11.238128-7.143196.427978-14.038299.841125-20.804825 1.246551-1.0037 9.127045-1.573265 17.744324-2.978927 26.222962-1.77771 10.722717-4.748772 21.098236-13.02375 28.993438-9.281308 8.855347-20.326722 9.426117-31.569596 5.601227-10.363897-3.525848-15.049892-12.314911-16.222282-22.617798-2.711445-23.827911 7.481146-41.701721 27.172203-54.195129 7.41814-4.706604 15.949665-7.658386 24.878937-11.833466.152885-13.678466.280746-28.63475-8.535118-41.838577-4.130944-6.187057-10.358727-8.078491-17.44521-7.135742-6.66571.88678-11.130749 4.552429-13.169956 11.157684-4.267622 13.823334-.993117 26.885727 3.694679 39.859391-6.439133 3.128189-6.689136 3.261398-9.916843-2.796128-10.060376-18.880569-13.957828-38.916992-10.493624-60.177719 2.083199-12.785141 9.186527-21.41571 22.103605-23.66745 12.681629-2.210678 24.173737.66893 32.486962 11.516663 7.467666 9.744354 10.066681 21.243194 10.877105 33.087311.749138 10.948394.561753 21.961105.774437 32.945724.034569 1.785217.004845 3.571686.004845 5.490524 7.914589-.805313 15.152313-1.541763 22.244789-2.263443.929268-8.310806 1.334312-16.453277 2.819336-24.393737 5.095543-27.246079 21.406143-44.815934 47.825226-52.445649 25.293365-7.304596 50.851303-7.928024 76.068146.627716 21.275405 7.218461 35.382721 22.059388 43.698974 42.722779 6.365418 15.816177 8.122223 32.420898 8.648865 49.244156.431793 13.793304.59494 27.598663 1.300598 41.376983.160706 3.13797 1.627838 6.446045 3.267853 9.217774 2.724487 4.604675 7.828979 4.613525 9.450317-.393677 2.363709-7.299805 4.353363-15.092987 4.433624-22.697693.423859-40.154648.198823-80.316177.198823-120.475311 0-1.813019 0-3.626023 0-5.453675 31.452026 1.503068 51.564209 18.395386 57.33316 49.394135 1.390198 7.470001 1.890472 15.196075 1.938171 22.809769.204468 32.659256.087189 65.320511.087189 97.981064v5.841339c-3.905518 0-7.623779 0-12.005005 0 0-9.6073 0-19.362397 0-29.617493m-148.236999 14.055603c1.466751-3.278534 3.731353-6.437683 4.243179-9.85907 1.278885-8.549316-4.283264-13.603576-10.850433-17.358307-23.218598-13.275116-48.863816-16.946106-75.430573-18.899048-.212952 13.870209 3.295204 26.080384 12.069443 36.296631 13.391922 15.592835 31.273178 18.986756 50.631988 17.271576 6.77623-.600372 13.511139-1.978393 19.336396-7.451782m-133.084-19.034912c1.209656-7.974793 2.419304-15.949616 3.787056-24.966705-5.401222 1.492919-9.771359 2.36676-13.894749 3.902984-12.631015 4.705689-20.666115 13.430237-22.729545 27.085541-1.910939 12.646179 6.82764 20.464905 18.324508 16.200745 2.228527-.826539 4.8256-2.293732 5.924282-4.222229 3.149395-5.528168 5.616799-11.444825 8.588448-18.000336z" fill="#343434"/><path d="m688.119995 174.924576c17.93457 11.954193 27.050537 29.274689 31.651306 49.249908 6.894898 29.935562 4.498963 59.380692-5.721069 88.265396-.216675.612183-.34021 1.272797-.393555 1.920197-.023803.288177.234558.59964.475037 1.15509 10.56073-5.672455 16.404541-15.09082 20.709534-25.670288 6.418884-15.774292 8.659057-32.413208 8.899963-49.253738.355225-24.825745.091736-49.660324.091736-74.49115 0-1.801193 0-3.602387 0-5.413757 28.857422 1.02803 51.125183 16.801879 56.951965 48.05046 1.3927 7.469071 2.068298 15.171936 2.119629 22.773712.22406 33.161805.096436 66.325959.096436 99.489258 0 1.80835-.000061 3.616669-.000061 5.711945-3.991944 0-7.725892 0-12.001832 0 0-1.780151.003235-3.554688-.000549-5.329224-.05426-25.82843.12323-51.66037-.264831-77.48378-.187806-12.496048-2.17688-24.828293-8.334229-36.025818-5.547058-10.087707-13.951599-16.056289-26.232422-17.393356 0 2.283554.057617 4.209976-.00885 6.13208-.706848 20.444794-.33844 41.003433-2.461243 61.301148-2.14215 20.483673-9.903198 39.219391-25.424377 53.805572-12.168823 11.4357-26.918457 17.143707-44.634216 19.726593.458008-2.690979.05841-5.631378 1.273559-6.65506 10.702454-9.01596 16.976258-20.754791 20.78656-33.807434 4.348694-14.897186 6.973816-30.155304 5.625306-45.780487-2.161255-25.042267-15.619507-41.353256-39.267945-49.113113-22.024719-7.227081-44.310486-8.123932-66.633118-1.06572-24.533203 7.757172-40.1333 28.971466-42.627136 54.676758-2.930176 30.203522 8.884522 53.186951 31.445801 71.837921.645264.533447 1.440857.88501 1.71582 1.050354-1.664428 5.92215-4.800048 6.301941-9.616821 5.133728-19.448547-4.716766-38.404053-10.804138-56.393188-19.58728-18.795746-9.177002-29.062775-28.176666-27.597107-48.950836 1.153015-16.342346 6.885559-30.929703 15.095825-44.845429 2.419311-4.100525 4.214355-8.646957 5.744873-13.17514 2.04541-6.051407.751648-10.242539-2.981323-11.800583-5.066834-2.114761-13.157502-.388885-15.005249 4.318558-2.058808 5.245147-3.038727 11.08435-3.472626 16.742843-.347839 4.535889.822418 9.188172 1.320343 13.801987-3.532715 1.669769-5.369263 1.03244-6.557434-2.960739-5.77182-19.397491-6.714935-38.579681 2.358703-57.24202 4.67566-9.616729 13.47931-13.206482 23.501893-12.85173 9.517578.336868 18.160278 3.519882 21.904174 13.540039 3.859009 10.328247 1.91626 20.437088-2.915771 29.833649-5.966126 11.602081-13.088623 22.620437-18.822876 34.326324-2.858276 5.834778-4.726685 12.552124-5.297302 19.024155-1.070069 12.137237 5.75653 20.921142 15.239074 27.309509 6.776123 4.564972 14.37555 7.907776 22.790955 12.432099-1.802185-7.485199-3.59668-13.381745-4.609924-19.409607-5.001404-29.753663-1.960572-58.338349 14.325378-84.368027 9.771301-15.617432 24.475708-24.846588 42.354431-29.029877 21.489624-5.028183 42.885925-4.959839 63.931458 2.03093 5.755249 1.911743 11.048401 5.214721 16.865295 8.06398z" fill="#343434"/><path d="m847.245728 585.765747c-8.247986-23.044739-13.360779-46.366272-15.278809-70.399902-2.607971-32.679047-1.233643-65.281647 2.275024-97.784973 4.982727-46.1586 15.512574-91.127869 30.320313-135.108185 10.201965-30.300949 19.528808-60.846451 24.97876-92.420105 4.704956-27.257614 6.452514-54.619126.294006-81.879906-4.729248-20.933777-14.071228-39.297615-34.854919-48.305984-33.123658-14.356957-71.610718-7.165265-92.289368 27.535789-9.832947 16.500801-15.439148 34.543449-19.711975 53.095505-.106934.464294-.36261.894333-.709839 1.725571-2.199219-.641861-4.364319-1.273774-6.758484-1.972535 2.264221-31.421966 6.50531-61.966407 23.974792-88.88388 13.390625-20.632777 32.480652-31.874697 57.137146-33.401495 13.38733-.828984 26.574952.133011 39.482972 4.116781 23.404663 7.223333 38.48291 23.114048 46.868713 45.570778 9.584595 25.667251 10.502197 52.464302 8.338989 79.345344-3.354126 41.679108-14.514343 81.707901-25.660217 121.855729-7.900696 28.458648-13.319275 57.691497-18.379517 86.833374-7.340515 42.274078-9.844177 85.001709-8.159912 127.917022 1.519287 38.713257 5.783631 77.000794 17.814148 114.090393 6.145447 18.946289 14.668824 36.734375 25.628784 53.666932-1.757751 1.913452-3.420288 3.723327-5.40216 5.880737-22.923767-19.37909-38.728882-43.562195-49.908447-71.47699z" fill="#353535"/><path d="m354.817871 430.095215c7.163635 33.056122 9.981079 65.991669 4.951599 99.142883-5.561615 36.658631-20.907776 68.524719-48.936554 93.541199-18.680542 16.672974-40.657684 27.132385-65.016235 32.014709-29.211929 5.855225-58.641617 6.211243-87.715958-1.039306-35.028755-8.735474-62.605804-28.49347-83.169059-58.126953-14.311448-20.624085-22.669518-43.665833-26.523636-68.232239-3.23452-20.616974-4.10434-41.498108-.834092-62.218811 2.846962-18.038666 6.590779-35.935974 9.953755-53.892884.442692-2.363769.81057-4.583923 4.342972-3.879791 3.625423.722656 3.397854 2.927033 2.864566 5.562866-5.353157 26.458344-6.927742 53.203309-4.737102 80.046814 2.243473 27.490876 8.70409 53.807831 25.04517 76.816315 12.727348 17.920227 29.743347 30.136963 49.988045 38.269043 22.969467 9.226624 47.051742 11.827637 71.454177 11.645752 27.956711-.208374 55.493851-3.443726 81.267319-15.455933 10.785523-5.026855 20.44867-11.70227 29.128693-19.875122 2.47699-2.332275 2.765899-4.583984 1.728515-7.556274-11.713867-33.561585-29.556945-63.201172-56.197021-87.073578-3.737671-3.349396-4.3526-5.765442-1.513458-9.923798 4.021515-5.890136 7.427185-12.200531 11.10202-18.327758.34198-.570221.726684-1.114838 1.215759-1.86081 33.367951 30.163849 46.033783 69.531952 53.205597 112.69632 1.744354-1.967529 3.040222-3.096069 3.931061-4.484497 11.711578-18.252625 17.176575-38.583924 18.342529-59.925659 1.622437-29.696869-.210235-59.284302-6.13208-88.49057-4.207245-20.75-10.58194-40.840058-19.747284-59.989808-2.729034-5.701995-2.662292-5.733947 4.189514-8.83789 12.397065 25.251648 21.784729 51.52594 27.811188 79.45578z" fill="#363636"/><path d="m1310.651978 326.638c-1.133179 1.853089-1.981446 3.495362-3.16858 4.838166-6.690429 7.567871-15.276001 7.338775-21.644165-.534607-6.130859-7.579956-8.229614-16.803406-8.752319-26.024262-1.185059-20.912902-1.203247-41.890075-2.22998-62.814911-.335938-6.848587-1.480103-13.909469-3.729737-20.358764-4.414551-12.656159-14.423095-18.922516-27.372558-20.831116-20.849121-3.072891-37.995972 5.873428-48.92688 26.277603-4.899414 9.145386-8.702027 18.878357-12.767822 27.828156-2.841675-6.594406-5.697754-14.169708-9.302125-21.370407-5.823608-11.634522-13.805908-21.429978-25.675781-27.568375-14.145508-7.315231-39.266113-9.16304-51.452881 7.275345-5.576049 7.521316-8.424316 16.066299-9.608032 25.199249-.765991 5.911041-1.092041 11.87909-1.615967 17.828308-29.352295-1.150985-49.012695-18.521881-47.10498-50.794098 1.082397-18.309326 7.743408-34.763931 18.839844-49.565979 1.591674.642273 3.100586 1.251191 4.1958 1.693161-2.348388 8.105759-5.446533 15.989563-6.807251 24.162629-1.980468 11.897171-1.838867 24.006469 8.937745 32.327606 4.820434 3.722091 10.828247 5.906204 16.265869 8.771805 2.927246-11.062165 4.890869-21.183564 8.380249-30.748383 2.444092-6.699493 6.194458-13.273636 10.710937-18.800995 14.418824-17.646164 42.443604-15.446381 57.965332-.643066 12.056519 11.498657 18.479859 26.1259 23.092774 41.747909 1.017212 3.445359 2.019775 6.895066 3.104736 10.601532 3.286255-9.393844 5.904785-18.560821 9.657715-27.236999 6.623901-15.313355 15.971435-28.499893 32.747436-34.079972 26.197754-8.714004 47.795899 2.240815 56.84668 28.209565 5.292603 15.18518 6.020874 30.906433 6.248413 46.702102.265991 18.484879.106934 36.976731.47583 55.458695.084351 4.224518 1.046875 8.631714 2.611573 12.553161.975097 2.443451 4.039428 5.920472 5.804931 5.721833 2.357056-.265198 5.482544-3.282624 6.291138-5.765198 1.772461-5.441101 3.148071-11.28299 3.190796-16.972443.30957-41.153671.246582-82.31015.301147-123.465744.002442-1.791153.000244-3.58229.000244-5.364273 23.758179-.127411 46.470948 12.831543 53.776368 36.924225 3.133056 10.33255 5.134277 21.388351 5.33789 32.159256.658081 34.813766.243653 69.647812.233643 104.474045-.000122.647918-.108765 1.295837-.193238 2.239319-3.85852 0-7.591796 0-11.839843 0 0-1.815888.009277-3.61142-.001343-5.406861-.15918-26.982452.072632-53.975403-.649658-80.94284-.356079-13.293305-2.854004-26.38089-11.366333-37.484726-5.572998-7.269638-12.90149-11.049393-22.621704-12.445862 0 2.090576.014526 3.818695-.002076 5.546539-.27539 28.641068-.290161 57.288285-.960571 85.920151-.275635 11.772858-1.843872 23.538116-7.223266 34.759521z" fill="#343434"/><path d="m416.115784 369.999481c.000061-114.430847.000061-228.361786.000061-342.649298h23.412903v361.300452c-7.50882 0-15.085267 0-23.412995 0 0-5.966736 0-12.058991.000031-18.651154z" fill="#c67136"/><path d="m987.909851 126v262.661865c-7.897278 0-15.47345 0-23.418152 0 0-120.27829 0-240.626388 0-361.321735h23.418152z" fill="#c67136"/><path d="m643.99585 289.043823c-12.067078-20.446075-26.403077-38.675918-42.89563-55.00885 6.584961-6.15181 13.08844-12.227493 20.152038-18.826477 10.407654 7.816406 19.96576 18.900116 27.23468 31.860901 13.674561 24.381866 19.45282 51.199554 23.502991 78.500214.170593 1.150238.181824 2.325714.379334 3.470123 1.318847 7.643921 1.328735 7.642212-4.809937 9.592651-7.844116-16.491394-15.634643-32.870147-23.563476-49.588562z" fill="#373737"/><path d="m201.30098 321.275818c-5.531388 5.253113-12.266297 6.631134-19.042527 7.231506-19.35881 1.71518-37.240066-1.678741-50.631988-17.271576-8.774239-10.216247-12.282395-22.426422-12.069443-36.296631 26.566757 1.952942 52.211975 5.623932 75.430573 18.899048 6.567169 3.754731 12.129318 8.808991 10.850433 17.358307-.511826 3.421387-2.776428 6.580536-4.537048 10.079346z" fill="#fcfcfc"/><path d="m68.392776 302.416412c-2.853576 6.159729-5.32098 12.076386-8.470375 17.604554-1.098682 1.928497-3.695755 3.39569-5.924282 4.222229-11.496868 4.26416-20.235447-3.554566-18.324508-16.200745 2.06343-13.655304 10.09853-22.379852 22.729545-27.085541 4.12339-1.536224 8.493527-2.410065 13.894749-3.902984-1.367752 9.017089-2.5774 16.991912-3.905129 25.362487z" fill="#fafafa"/></svg>