<svg version="1.1" id="Layer_1" xmlns="http://www.w3.org/2000/svg" xmlns:xlink="http://www.w3.org/1999/xlink" x="0px" y="0px"
	 width="100%" viewBox="0 0 1046 742" enable-background="new 0 0 1046 742" xml:space="preserve">
<path fill="#FFFFFF" opacity="1.000000" stroke="none" 
	d="
M743.000000,743.000000 
	C495.333344,743.000000 248.166702,743.000000 1.000033,743.000000 
	C1.000022,495.666687 1.000022,248.333389 1.000011,1.000067 
	C349.666626,1.000044 698.333252,1.000044 1047.000000,1.000022 
	C1047.000000,248.333267 1047.000000,495.666534 1047.000000,742.999878 
	C945.833313,743.000000 844.666687,743.000000 743.000000,743.000000 
M830.752991,354.736664 
	C830.752991,354.736664 830.442871,354.462952 830.479675,353.728912 
	C833.552979,339.799255 837.710205,326.003906 839.456604,311.909851 
	C842.399658,288.158661 839.357544,264.875244 829.050049,242.955185 
	C821.216248,226.295837 808.653809,214.567566 791.406738,207.951614 
	C771.388123,200.272461 750.694275,199.987457 729.963623,203.348099 
	C715.519226,205.689667 702.045593,211.359360 691.561218,221.918121 
	C668.797302,244.843491 664.344421,273.959778 665.693176,304.419678 
	C666.162231,315.012207 669.182312,325.491821 671.049194,336.090790 
	C662.953918,333.799500 655.284668,329.597626 648.097473,324.250214 
	C635.320007,314.743561 630.782654,303.118561 635.862549,288.089142 
	C638.743103,279.566498 643.104309,271.429596 647.646301,263.611389 
	C653.732849,253.134689 660.644409,243.114960 662.521118,230.794464 
	C663.854187,222.042892 663.003357,213.400620 656.029114,207.334335 
	C644.516724,197.320740 622.765808,198.783600 615.365601,214.472046 
	C605.956848,234.418655 607.741394,254.618881 614.454163,275.240295 
	C616.504578,275.031952 618.203857,274.859283 620.157104,274.660797 
	C619.823975,272.711182 619.414612,271.414917 619.411987,270.117859 
	C619.397278,262.874023 618.633545,255.494781 619.761902,248.422867 
	C620.963379,240.892990 626.629822,237.880402 634.183289,238.941238 
	C639.278931,239.656891 641.930237,242.540390 640.674927,247.447906 
	C639.301514,252.816895 637.396362,258.208405 634.753662,263.062378 
	C628.545837,274.464905 623.165955,286.065277 620.291687,298.843475 
	C614.822693,323.157562 624.873291,347.138611 645.862976,357.666473 
	C665.857422,367.695129 687.096558,374.220123 709.008545,378.939392 
	C710.386475,377.053955 711.704956,375.249817 713.112244,373.324219 
	C688.840637,353.850067 675.385559,329.873444 679.934814,298.101471 
	C683.224182,275.128937 693.377380,256.943848 715.849548,247.574448 
	C739.664551,237.645203 763.786804,238.443680 787.988586,245.828445 
	C804.157898,250.762253 816.677612,260.230835 823.558777,276.131073 
	C828.366333,287.240051 829.106567,298.905762 828.009766,310.806183 
	C826.411743,328.145813 823.398621,345.154572 813.899292,360.125366 
	C810.059753,366.176300 804.931030,371.409271 800.180176,377.272247 
	C800.205566,377.334137 800.490234,377.930603 800.696350,378.553040 
	C800.946838,379.309418 801.131165,380.087677 801.442139,381.210266 
	C818.607727,379.053558 833.764832,372.940643 845.994385,360.896973 
	C861.188599,345.933655 868.805481,326.925781 870.779053,306.228149 
	C872.686035,286.228241 872.355652,266.014740 872.994629,245.894638 
	C873.049072,244.179214 873.001770,242.460571 873.001770,240.558594 
	C885.574158,241.702713 893.731262,247.993896 899.256531,258.111481 
	C906.073425,270.594238 907.548462,284.318939 907.737671,298.123199 
	C908.073425,322.617126 907.831848,347.118927 907.831848,371.617432 
	C907.831848,373.359161 907.831848,375.100891 907.831848,376.760010 
	C912.182434,376.760010 915.789795,376.760010 919.836731,376.760010 
	C919.836731,375.399719 919.836670,374.276581 919.836670,373.153473 
	C919.836731,337.822296 920.255066,302.483063 919.575317,267.164978 
	C919.377930,256.911804 917.228210,246.311890 913.900574,236.579742 
	C905.877319,213.114960 884.868225,201.224487 860.478210,200.766556 
	C860.478210,202.587875 860.487122,204.406158 860.476807,206.224335 
	C860.315857,234.543686 860.648376,262.877930 859.797913,291.176605 
	C859.312439,307.331421 855.906982,323.187286 847.916687,337.615387 
	C843.875854,344.912048 839.062439,351.558563 830.752991,354.736664 
M295.780945,354.796753 
	C295.780945,354.796753 295.414337,354.496979 295.533813,353.763214 
	C304.579407,329.091797 307.133148,303.628784 304.777161,277.577911 
	C303.133575,259.404266 300.111145,241.585846 290.751221,225.493469 
	C283.502686,213.031113 273.072845,204.340195 258.689728,202.340561 
	C232.618637,198.716034 211.962296,207.808563 198.079987,230.727188 
	C194.814651,236.117996 191.735596,241.621643 188.406036,247.357269 
	C186.828156,244.328537 185.473236,241.489441 183.911682,238.768936 
	C173.431320,220.510178 160.055099,206.194153 137.891312,202.356003 
	C116.371376,198.629333 96.829453,206.974152 86.165031,225.982910 
	C72.439850,250.447296 70.753250,277.389435 71.662598,304.489319 
	C72.018387,315.092529 75.235542,325.599701 77.187119,336.358032 
	C67.396729,332.419220 57.652790,328.101166 49.768604,320.319824 
	C40.973274,311.639221 38.153038,301.234436 41.723866,289.714111 
	C44.113411,282.004852 47.933113,274.693115 51.552315,267.422211 
	C56.214855,258.055328 61.794048,249.122650 66.092705,239.602982 
	C70.227669,230.445801 70.282227,220.852707 65.460876,211.645386 
	C58.834068,198.990204 30.778780,195.678986 21.786983,213.702911 
	C11.687643,233.946884 13.789032,254.534454 20.405210,275.399292 
	C22.516127,275.027832 24.222162,274.727631 26.030397,274.409424 
	C25.433094,269.447510 24.664757,265.015442 24.420082,260.554688 
	C24.089811,254.533417 24.377743,248.526825 28.175434,243.370178 
	C31.228971,239.223984 38.572361,237.385284 43.045994,239.587173 
	C47.043354,241.554642 48.233574,245.691177 45.831776,251.853134 
	C43.846962,256.945312 41.437988,261.915924 38.766590,266.688293 
	C31.442110,279.773193 25.883736,293.450867 25.214970,308.584991 
	C24.383642,327.397888 30.073210,343.723267 46.538776,354.213409 
	C54.592323,359.344269 63.621269,363.253967 72.653099,366.467407 
	C86.513557,371.398804 100.757385,375.252594 114.621727,379.497284 
	C116.462601,376.923828 117.680443,375.221344 118.627777,373.897003 
	C113.964188,368.860352 109.201424,364.384521 105.262016,359.273987 
	C101.331528,354.175018 97.671501,348.710175 94.859062,342.935211 
	C84.977654,322.644989 83.367332,300.884186 86.074959,278.985962 
	C87.752228,265.420837 94.058960,253.429016 106.777618,246.503983 
	C124.074303,237.086304 141.732895,238.833221 159.227371,246.125366 
	C171.005569,251.034821 180.481110,259.044189 188.982788,270.008118 
	C189.960770,268.535034 190.613815,267.368988 191.437180,266.339050 
	C201.017670,254.355026 213.368439,246.673431 228.107437,242.622803 
	C241.723236,238.880844 255.259521,238.825851 268.060913,245.029007 
	C282.866699,252.203430 288.931274,265.764771 292.089478,280.979980 
	C295.542328,297.614960 294.168243,314.193939 290.543213,330.545013 
	C286.866425,347.129669 281.167053,362.842072 267.602325,374.445099 
	C266.200378,375.644287 266.260498,378.552734 265.395050,381.513855 
	C269.294830,380.806915 271.750336,380.446777 274.166870,379.910767 
	C303.148132,373.482239 322.223480,356.102051 331.349884,327.887665 
	C336.258545,312.712555 338.239258,297.077454 338.182526,281.152161 
	C338.134216,267.594818 338.172546,254.037186 338.172546,240.403778 
	C351.904053,242.112701 360.839783,249.392181 366.391876,261.305756 
	C370.763794,270.686920 372.665192,280.694489 372.856079,290.840240 
	C373.360626,317.655151 373.305023,344.480591 373.469940,371.301849 
	C373.480988,373.096283 373.471405,374.890839 373.471405,376.691223 
	C377.730469,376.691223 381.465118,376.691223 385.528595,376.691223 
	C385.528595,374.570099 385.528595,372.759460 385.528595,370.948822 
	C385.528595,338.789215 385.608978,306.629272 385.463928,274.470337 
	C385.433228,267.662354 384.962402,260.805542 384.038696,254.061050 
	C379.521301,221.077194 358.374023,201.649109 326.158661,200.771317 
	C326.158661,227.093918 326.271881,253.412170 326.118256,279.728851 
	C326.018433,296.834015 323.493042,313.602814 317.032104,329.538696 
	C312.733276,340.141632 307.167358,349.933105 295.780945,354.796753 
M464.152954,679.498474 
	C464.152954,685.265137 464.152954,691.031738 464.152954,696.753906 
	C469.261902,696.753906 473.693329,696.753906 478.537384,696.753906 
	C478.537384,684.200745 478.547424,671.898376 478.535797,659.596008 
	C478.428589,545.945129 478.465576,432.293793 478.093811,318.643799 
	C478.010864,293.287140 475.861877,267.962250 466.947815,243.896957 
	C457.899384,219.468964 441.781067,203.443512 414.142578,202.330612 
	C406.210388,202.011215 398.722656,203.299652 391.694183,207.957687 
	C404.342621,223.618958 409.199432,242.154541 413.082428,260.924164 
	C419.038696,289.715637 421.477051,318.981873 421.817108,348.297668 
	C422.481934,405.616150 422.391052,462.944519 422.400879,520.268860 
	C422.404694,542.628296 420.741425,564.812073 414.185211,586.432678 
	C402.542542,624.827148 379.008728,650.452026 338.278137,657.574341 
	C314.825958,661.675293 291.766846,660.187012 269.916138,649.956604 
	C255.600479,643.254089 245.778381,632.314697 242.334015,616.563049 
	C238.013947,596.806519 242.066818,578.559387 253.358612,561.915710 
	C254.349991,560.454468 256.376160,559.440125 258.133362,558.792603 
	C278.883331,551.145874 299.689545,543.651428 320.420105,535.952942 
	C321.914703,535.397888 323.976624,533.592834 324.011108,532.321167 
	C324.299683,521.679016 324.175171,511.025665 324.175171,499.897247 
	C322.206207,500.650940 320.674561,501.208038 319.164886,501.819458 
	C292.603333,512.577393 265.637360,522.197754 237.656982,528.517517 
	C211.394653,534.449280 184.950806,537.780518 157.931396,533.040222 
	C123.787918,527.049988 100.829918,503.540314 95.754333,469.219360 
	C92.368149,446.322052 94.411316,423.704254 97.580078,401.055847 
	C98.355606,395.512756 99.281830,389.990784 100.169624,384.259857 
	C97.594330,383.825531 95.556084,383.481781 93.484734,383.132446 
	C92.711037,386.117706 92.036072,388.661804 91.392601,391.213837 
	C82.958420,424.664551 77.312355,458.380798 83.076523,492.951355 
	C87.278877,518.154968 100.521400,537.658203 121.978348,551.371460 
	C148.321686,568.207581 177.418991,571.941589 207.855042,568.408142 
	C216.886566,567.359619 225.876892,565.956299 235.255432,564.664673 
	C234.771133,565.962463 234.485321,567.050232 233.983154,568.026672 
	C223.457458,588.494019 220.392944,610.103149 225.122116,632.537354 
	C230.629150,658.661682 245.695068,677.879578 269.965851,688.927673 
	C294.039398,699.886108 319.580597,701.395203 345.339081,696.708496 
	C376.198456,691.093567 398.518219,673.608154 413.029785,645.896545 
	C421.614410,629.503235 427.388763,612.034302 429.808563,593.879333 
	C432.705902,572.141541 434.851807,550.174561 435.292847,528.265930 
	C436.134491,486.454987 436.135406,444.604401 435.388489,402.789825 
	C434.419006,348.514038 435.737610,294.030701 425.220276,240.229111 
	C430.821777,240.470825 436.636902,241.538391 441.713287,245.743073 
	C449.548920,252.233200 453.317993,261.031860 456.130005,270.314240 
	C462.918152,292.721863 464.062531,315.873047 464.090698,339.043427 
	C464.228149,452.195221 464.152954,565.347290 464.152954,679.498474 
M870.268372,145.858521 
	C871.264709,143.569199 872.184814,141.243057 873.269958,138.996643 
	C879.418823,126.267044 887.164062,114.716156 898.579895,106.070457 
	C915.385437,93.342926 934.453125,91.294617 954.593262,94.533585 
	C976.415588,98.043091 991.566895,110.159653 1000.603699,130.145340 
	C1008.900452,148.494232 1010.513855,168.014023 1010.321777,187.779297 
	C1009.965271,224.471771 1001.402771,259.720215 990.330627,294.356262 
	C979.132751,329.385803 967.631287,364.311615 960.081421,400.351562 
	C950.066284,448.159241 945.782959,496.523804 948.148804,545.327332 
	C949.689819,577.114807 955.475952,608.118164 969.053528,637.253479 
	C979.789307,660.290771 994.116638,680.648254 1013.718201,697.088867 
	C1015.726196,695.266541 1017.675415,693.497620 1019.726562,691.636108 
	C1008.614258,675.303467 1000.377258,658.055969 994.339172,639.798340 
	C982.050659,602.641052 977.286865,564.232178 976.028748,525.311768 
	C974.610107,481.422302 976.986694,437.740753 984.057617,394.362854 
	C989.333557,361.996307 995.771667,329.876831 1005.223389,298.436493 
	C1016.408875,261.229187 1025.318359,223.547333 1028.291382,184.709045 
	C1030.275757,158.785599 1029.055054,133.040024 1019.972168,108.321854 
	C1013.134094,89.712868 1001.675171,74.867981 983.301208,66.107483 
	C970.404236,59.958344 956.695129,57.871540 942.596863,57.634838 
	C914.197449,57.158020 891.526855,67.694031 875.867310,92.067650 
	C864.937317,109.079880 859.357056,127.952995 856.101929,147.616821 
	C854.322388,158.367065 853.248535,169.234116 851.841248,180.166138 
	C854.869080,180.997086 857.057678,181.597717 858.753662,182.063171 
	C862.593689,169.947311 866.297058,158.262650 870.268372,145.858521 
M532.994507,166.500000 
	C532.994507,253.892044 532.994507,341.284088 532.994507,428.680969 
	C541.186523,428.680969 548.750793,428.680969 556.387451,428.680969 
	C556.387451,308.006470 556.387451,187.658234 556.387451,67.309555 
	C548.464417,67.309555 540.887268,67.309555 532.994507,67.309555 
	C532.994507,100.249939 532.994507,132.874969 532.994507,166.500000 
z"/>
<path fill="#373737" opacity="1.000000" stroke="none" 
	d="
M464.152954,678.998840 
	C464.152954,565.347290 464.228149,452.195221 464.090698,339.043427 
	C464.062531,315.873047 462.918152,292.721863 456.130005,270.314240 
	C453.317993,261.031860 449.548920,252.233200 441.713287,245.743073 
	C436.636902,241.538391 430.821777,240.470825 425.220276,240.229111 
	C435.737610,294.030701 434.419006,348.514038 435.388489,402.789825 
	C436.135406,444.604401 436.134491,486.454987 435.292847,528.265930 
	C434.851807,550.174561 432.705902,572.141541 429.808563,593.879333 
	C427.388763,612.034302 421.614410,629.503235 413.029785,645.896545 
	C398.518219,673.608154 376.198456,691.093567 345.339081,696.708496 
	C319.580597,701.395203 294.039398,699.886108 269.965851,688.927673 
	C245.695068,677.879578 230.629150,658.661682 225.122116,632.537354 
	C220.392944,610.103149 223.457458,588.494019 233.983154,568.026672 
	C234.485321,567.050232 234.771133,565.962463 235.255432,564.664673 
	C225.876892,565.956299 216.886566,567.359619 207.855042,568.408142 
	C177.418991,571.941589 148.321686,568.207581 121.978348,551.371460 
	C100.521400,537.658203 87.278877,518.154968 83.076523,492.951355 
	C77.312355,458.380798 82.958420,424.664551 91.392601,391.213837 
	C92.036072,388.661804 92.711037,386.117706 93.484734,383.132446 
	C95.556084,383.481781 97.594330,383.825531 100.169624,384.259857 
	C99.281830,389.990784 98.355606,395.512756 97.580078,401.055847 
	C94.411316,423.704254 92.368149,446.322052 95.754333,469.219360 
	C100.829918,503.540314 123.787918,527.049988 157.931396,533.040222 
	C184.950806,537.780518 211.394653,534.449280 237.656982,528.517517 
	C265.637360,522.197754 292.603333,512.577393 319.164886,501.819458 
	C320.674561,501.208038 322.206207,500.650940 324.175171,499.897247 
	C324.175171,511.025665 324.299683,521.679016 324.011108,532.321167 
	C323.976624,533.592834 321.914703,535.397888 320.420105,535.952942 
	C299.689545,543.651428 278.883331,551.145874 258.133362,558.792603 
	C256.376160,559.440125 254.349991,560.454468 253.358612,561.915710 
	C242.066818,578.559387 238.013947,596.806519 242.334015,616.563049 
	C245.778381,632.314697 255.600479,643.254089 269.916138,649.956604 
	C291.766846,660.187012 314.825958,661.675293 338.278137,657.574341 
	C379.008728,650.452026 402.542542,624.827148 414.185211,586.432678 
	C420.741425,564.812073 422.404694,542.628296 422.400879,520.268860 
	C422.391052,462.944519 422.481934,405.616150 421.817108,348.297668 
	C421.477051,318.981873 419.038696,289.715637 413.082428,260.924164 
	C409.199432,242.154541 404.342621,223.618958 391.694183,207.957687 
	C398.722656,203.299652 406.210388,202.011215 414.142578,202.330612 
	C441.781067,203.443512 457.899384,219.468964 466.947815,243.896957 
	C475.861877,267.962250 478.010864,293.287140 478.093811,318.643799 
	C478.465576,432.293793 478.428589,545.945129 478.535797,659.596008 
	C478.547424,671.898376 478.537384,684.200745 478.537384,696.753906 
	C473.693329,696.753906 469.261902,696.753906 464.152954,696.753906 
	C464.152954,691.031738 464.152954,685.265137 464.152954,678.998840 
z"/>
<path fill="#363636" opacity="1.000000" stroke="none" 
	d="
M296.120483,355.126923 
	C307.167358,349.933105 312.733276,340.141632 317.032104,329.538696 
	C323.493042,313.602814 326.018433,296.834015 326.118256,279.728851 
	C326.271881,253.412170 326.158661,227.093918 326.158661,200.771317 
	C358.374023,201.649109 379.521301,221.077194 384.038696,254.061050 
	C384.962402,260.805542 385.433228,267.662354 385.463928,274.470337 
	C385.608978,306.629272 385.528595,338.789215 385.528595,370.948822 
	C385.528595,372.759460 385.528595,374.570099 385.528595,376.691223 
	C381.465118,376.691223 377.730469,376.691223 373.471405,376.691223 
	C373.471405,374.890839 373.480988,373.096283 373.469940,371.301849 
	C373.305023,344.480591 373.360626,317.655151 372.856079,290.840240 
	C372.665192,280.694489 370.763794,270.686920 366.391876,261.305756 
	C360.839783,249.392181 351.904053,242.112701 338.172546,240.403778 
	C338.172546,254.037186 338.134216,267.594818 338.182526,281.152161 
	C338.239258,297.077454 336.258545,312.712555 331.349884,327.887665 
	C322.223480,356.102051 303.148132,373.482239 274.166870,379.910767 
	C271.750336,380.446777 269.294830,380.806915 265.395050,381.513855 
	C266.260498,378.552734 266.200378,375.644287 267.602325,374.445099 
	C281.167053,362.842072 286.866425,347.129669 290.543213,330.545013 
	C294.168243,314.193939 295.542328,297.614960 292.089478,280.979980 
	C288.931274,265.764771 282.866699,252.203430 268.060913,245.029007 
	C255.259521,238.825851 241.723236,238.880844 228.107437,242.622803 
	C213.368439,246.673431 201.017670,254.355026 191.437180,266.339050 
	C190.613815,267.368988 189.960770,268.535034 188.982788,270.008118 
	C180.481110,259.044189 171.005569,251.034821 159.227371,246.125366 
	C141.732895,238.833221 124.074303,237.086304 106.777618,246.503983 
	C94.058960,253.429016 87.752228,265.420837 86.074959,278.985962 
	C83.367332,300.884186 84.977654,322.644989 94.859062,342.935211 
	C97.671501,348.710175 101.331528,354.175018 105.262016,359.273987 
	C109.201424,364.384521 113.964188,368.860352 118.627777,373.897003 
	C117.680443,375.221344 116.462601,376.923828 114.621727,379.497284 
	C100.757385,375.252594 86.513557,371.398804 72.653099,366.467407 
	C63.621269,363.253967 54.592323,359.344269 46.538776,354.213409 
	C30.073210,343.723267 24.383642,327.397888 25.214970,308.584991 
	C25.883736,293.450867 31.442110,279.773193 38.766590,266.688293 
	C41.437988,261.915924 43.846962,256.945312 45.831776,251.853134 
	C48.233574,245.691177 47.043354,241.554642 43.045994,239.587173 
	C38.572361,237.385284 31.228971,239.223984 28.175434,243.370178 
	C24.377743,248.526825 24.089811,254.533417 24.420082,260.554688 
	C24.664757,265.015442 25.433094,269.447510 26.030397,274.409424 
	C24.222162,274.727631 22.516127,275.027832 20.405210,275.399292 
	C13.789032,254.534454 11.687643,233.946884 21.786983,213.702911 
	C30.778780,195.678986 58.834068,198.990204 65.460876,211.645386 
	C70.282227,220.852707 70.227669,230.445801 66.092705,239.602982 
	C61.794048,249.122650 56.214855,258.055328 51.552315,267.422211 
	C47.933113,274.693115 44.113411,282.004852 41.723866,289.714111 
	C38.153038,301.234436 40.973274,311.639221 49.768604,320.319824 
	C57.652790,328.101166 67.396729,332.419220 77.187119,336.358032 
	C75.235542,325.599701 72.018387,315.092529 71.662598,304.489319 
	C70.753250,277.389435 72.439850,250.447296 86.165031,225.982910 
	C96.829453,206.974152 116.371376,198.629333 137.891312,202.356003 
	C160.055099,206.194153 173.431320,220.510178 183.911682,238.768936 
	C185.473236,241.489441 186.828156,244.328537 188.406036,247.357269 
	C191.735596,241.621643 194.814651,236.117996 198.079987,230.727188 
	C211.962296,207.808563 232.618637,198.716034 258.689728,202.340561 
	C273.072845,204.340195 283.502686,213.031113 290.751221,225.493469 
	C300.111145,241.585846 303.133575,259.404266 304.777161,277.577911 
	C307.133148,303.628784 304.579407,329.091797 295.349487,354.347137 
	C295.221558,355.169220 295.277924,355.407349 295.334320,355.645508 
	C295.596375,355.472656 295.858429,355.299805 296.120483,355.126923 
z"/>
<path fill="#343434" opacity="1.000000" stroke="none" 
	d="
M831.034973,355.039337 
	C839.062439,351.558563 843.875854,344.912048 847.916687,337.615387 
	C855.906982,323.187286 859.312439,307.331421 859.797913,291.176605 
	C860.648376,262.877930 860.315857,234.543686 860.476807,206.224335 
	C860.487122,204.406158 860.478210,202.587875 860.478210,200.766556 
	C884.868225,201.224487 905.877319,213.114960 913.900574,236.579742 
	C917.228210,246.311890 919.377930,256.911804 919.575317,267.164978 
	C920.255066,302.483063 919.836731,337.822296 919.836670,373.153473 
	C919.836670,374.276581 919.836731,375.399719 919.836731,376.760010 
	C915.789795,376.760010 912.182434,376.760010 907.831848,376.760010 
	C907.831848,375.100891 907.831848,373.359161 907.831848,371.617432 
	C907.831848,347.118927 908.073425,322.617126 907.737671,298.123199 
	C907.548462,284.318939 906.073425,270.594238 899.256531,258.111481 
	C893.731262,247.993896 885.574158,241.702713 873.001770,240.558594 
	C873.001770,242.460571 873.049072,244.179214 872.994629,245.894638 
	C872.355652,266.014740 872.686035,286.228241 870.779053,306.228149 
	C868.805481,326.925781 861.188599,345.933655 845.994385,360.896973 
	C833.764832,372.940643 818.607727,379.053558 801.442139,381.210266 
	C801.131165,380.087677 800.946838,379.309418 800.696350,378.553040 
	C800.490234,377.930603 800.205566,377.334137 800.180176,377.272247 
	C804.931030,371.409271 810.059753,366.176300 813.899292,360.125366 
	C823.398621,345.154572 826.411743,328.145813 828.009766,310.806183 
	C829.106567,298.905762 828.366333,287.240051 823.558777,276.131073 
	C816.677612,260.230835 804.157898,250.762253 787.988586,245.828445 
	C763.786804,238.443680 739.664551,237.645203 715.849548,247.574448 
	C693.377380,256.943848 683.224182,275.128937 679.934814,298.101471 
	C675.385559,329.873444 688.840637,353.850067 713.112244,373.324219 
	C711.704956,375.249817 710.386475,377.053955 709.008545,378.939392 
	C687.096558,374.220123 665.857422,367.695129 645.862976,357.666473 
	C624.873291,347.138611 614.822693,323.157562 620.291687,298.843475 
	C623.165955,286.065277 628.545837,274.464905 634.753662,263.062378 
	C637.396362,258.208405 639.301514,252.816895 640.674927,247.447906 
	C641.930237,242.540390 639.278931,239.656891 634.183289,238.941238 
	C626.629822,237.880402 620.963379,240.892990 619.761902,248.422867 
	C618.633545,255.494781 619.397278,262.874023 619.411987,270.117859 
	C619.414612,271.414917 619.823975,272.711182 620.157104,274.660797 
	C618.203857,274.859283 616.504578,275.031952 614.454163,275.240295 
	C607.741394,254.618881 605.956848,234.418655 615.365601,214.472046 
	C622.765808,198.783600 644.516724,197.320740 656.029114,207.334335 
	C663.003357,213.400620 663.854187,222.042892 662.521118,230.794464 
	C660.644409,243.114960 653.732849,253.134689 647.646301,263.611389 
	C643.104309,271.429596 638.743103,279.566498 635.862549,288.089142 
	C630.782654,303.118561 635.320007,314.743561 648.097473,324.250214 
	C655.284668,329.597626 662.953918,333.799500 671.049194,336.090790 
	C669.182312,325.491821 666.162231,315.012207 665.693176,304.419678 
	C664.344421,273.959778 668.797302,244.843491 691.561218,221.918121 
	C702.045593,211.359360 715.519226,205.689667 729.963623,203.348099 
	C750.694275,199.987457 771.388123,200.272461 791.406738,207.951614 
	C808.653809,214.567566 821.216248,226.295837 829.050049,242.955185 
	C839.357544,264.875244 842.399658,288.158661 839.456604,311.909851 
	C837.710205,326.003906 833.552979,339.799255 830.332642,354.298340 
	C830.276733,355.147766 830.367859,355.427795 830.459045,355.707794 
	C830.651001,355.484985 830.843018,355.262146 831.034973,355.039337 
z"/>
<path fill="#353535" opacity="1.000000" stroke="none" 
	d="
M870.134399,146.218262 
	C866.297058,158.262650 862.593689,169.947311 858.753662,182.063171 
	C857.057678,181.597717 854.869080,180.997086 851.841248,180.166138 
	C853.248535,169.234116 854.322388,158.367065 856.101929,147.616821 
	C859.357056,127.952995 864.937317,109.079880 875.867310,92.067650 
	C891.526855,67.694031 914.197449,57.158020 942.596863,57.634838 
	C956.695129,57.871540 970.404236,59.958344 983.301208,66.107483 
	C1001.675171,74.867981 1013.134094,89.712868 1019.972168,108.321854 
	C1029.055054,133.040024 1030.275757,158.785599 1028.291382,184.709045 
	C1025.318359,223.547333 1016.408875,261.229187 1005.223389,298.436493 
	C995.771667,329.876831 989.333557,361.996307 984.057617,394.362854 
	C976.986694,437.740753 974.610107,481.422302 976.028748,525.311768 
	C977.286865,564.232178 982.050659,602.641052 994.339172,639.798340 
	C1000.377258,658.055969 1008.614258,675.303467 1019.726562,691.636108 
	C1017.675415,693.497620 1015.726196,695.266541 1013.718201,697.088867 
	C994.116638,680.648254 979.789307,660.290771 969.053528,637.253479 
	C955.475952,608.118164 949.689819,577.114807 948.148804,545.327332 
	C945.782959,496.523804 950.066284,448.159241 960.081421,400.351562 
	C967.631287,364.311615 979.132751,329.385803 990.330627,294.356262 
	C1001.402771,259.720215 1009.965271,224.471771 1010.321777,187.779297 
	C1010.513855,168.014023 1008.900452,148.494232 1000.603699,130.145340 
	C991.566895,110.159653 976.415588,98.043091 954.593262,94.533585 
	C934.453125,91.294617 915.385437,93.342926 898.579895,106.070457 
	C887.164062,114.716156 879.418823,126.267044 873.269958,138.996643 
	C872.184814,141.243057 871.264709,143.569199 870.134399,146.218262 
z"/>
<path fill="#C67136" opacity="1.000000" stroke="none" 
	d="
M532.994507,166.000000 
	C532.994507,132.874969 532.994507,100.249939 532.994507,67.309555 
	C540.887268,67.309555 548.464417,67.309555 556.387451,67.309555 
	C556.387451,187.658234 556.387451,308.006470 556.387451,428.680969 
	C548.750793,428.680969 541.186523,428.680969 532.994507,428.680969 
	C532.994507,341.284088 532.994507,253.892044 532.994507,166.000000 
z"/>
<path fill="#FFFFFF" opacity="1.000000" stroke="none" 
	d="
M295.950714,354.961853 
	C295.858429,355.299805 295.596375,355.472656 295.334320,355.645508 
	C295.277924,355.407349 295.221558,355.169220 295.289734,354.714020 
	C295.414337,354.496979 295.780945,354.796753 295.950714,354.961853 
z"/>
<path fill="#FFFFFF" opacity="1.000000" stroke="none" 
	d="
M830.893982,354.888000 
	C830.843018,355.262146 830.651001,355.484985 830.459045,355.707794 
	C830.367859,355.427795 830.276733,355.147766 830.314209,354.665344 
	C830.442871,354.462952 830.752991,354.736664 830.893982,354.888000 
z"/>
</svg>