<svg version="1.1" id="Layer_1" xmlns="http://www.w3.org/2000/svg" xmlns:xlink="http://www.w3.org/1999/xlink" x="0px" y="0px"
	 width="100%" viewBox="0 0 2042 1000" enable-background="new 0 0 2042 1236" xml:space="preserve">
<path fill="#343434" opacity="1.000000" stroke="none" 
	d="
M366.922852,306.919952 
	C375.302307,299.330902 384.894287,292.251770 402.116272,288.533966 
	C402.299927,273.670990 402.457184,258.770569 393.783173,245.498642 
	C389.583038,239.072098 383.282593,237.124359 376.029602,238.126434 
	C369.120819,239.080963 364.774292,243.146667 362.803131,249.902817 
	C359.127136,262.502289 361.604645,274.553894 365.798218,286.483276 
	C366.122772,287.406586 366.548126,288.294495 367.021576,289.425690 
	C364.810974,290.172333 362.814087,290.846802 360.534119,291.616882 
	C354.905243,284.963104 351.855591,276.928192 349.375458,268.696442 
	C345.152710,254.681015 343.544556,240.396484 346.352570,225.878311 
	C348.983093,212.277740 356.924835,204.140915 369.152344,202.185455 
	C382.816895,200.000168 396.290558,205.803558 402.862549,216.625229 
	C408.883392,226.539383 411.291412,237.522720 411.922363,248.870041 
	C412.495026,259.169342 412.355194,269.508484 412.518799,279.830200 
	C412.547241,281.623566 412.522827,283.417755 412.522827,285.524078 
	C420.322754,284.732697 427.540588,284.000366 435.041779,283.239288 
	C435.560577,276.936310 435.714478,270.639771 436.648163,264.461060 
	C441.682007,231.149704 459.888885,211.356339 492.912415,204.302643 
	C514.962280,199.592896 537.137268,199.291504 558.979492,206.180740 
	C584.970215,214.378433 600.335876,232.653793 608.091370,258.085754 
	C612.297241,271.877716 613.544800,286.083008 613.856812,300.423096 
	C614.146179,313.721710 614.410339,327.026733 615.114380,340.306183 
	C615.281250,343.452301 616.730652,346.759979 618.355225,349.547394 
	C621.030579,354.137543 626.244141,354.183441 627.830139,349.257111 
	C630.181580,341.953308 632.197021,334.169800 632.277588,326.568512 
	C632.703003,286.409332 632.477234,246.243301 632.477234,206.079651 
	C632.477234,204.265472 632.477234,202.451294 632.477234,200.624969 
	C661.456238,201.855988 682.278748,216.706161 688.957947,246.118439 
	C690.745728,253.990997 691.640198,262.223145 691.712280,270.301239 
	C692.010925,303.796051 691.837585,337.295074 691.837585,370.792572 
	C691.837585,372.611847 691.837585,374.431122 691.837585,376.624207 
	C687.918396,376.624207 684.198120,376.624207 679.831177,376.624207 
	C679.831177,374.995453 679.831177,373.238281 679.831177,371.481110 
	C679.831177,347.149597 680.059143,322.815125 679.743286,298.487701 
	C679.561829,284.510773 678.123901,270.613708 671.193909,257.992310 
	C665.649841,247.895096 657.467529,241.631180 645.002258,240.584366 
	C645.002258,242.539108 645.010681,244.285080 645.001038,246.030960 
	C644.842712,274.518616 645.009338,303.013611 644.370483,331.490509 
	C644.091980,343.903687 642.679077,356.375916 636.531189,367.695312 
	C633.549255,373.185486 629.482544,377.114899 622.926392,376.918518 
	C616.352112,376.721588 612.468262,372.417572 609.751221,366.906494 
	C603.490417,354.207794 602.509155,340.447540 601.853088,326.653229 
	C601.276672,314.533783 601.648132,302.316711 600.250732,290.299805 
	C597.335632,265.232025 582.007996,250.248718 558.331116,244.347397 
	C531.390198,237.632568 504.240631,238.117218 477.724945,247.064651 
	C464.095123,251.663864 453.962402,260.227173 451.244171,275.358093 
	C450.980682,276.824799 450.913239,278.335114 450.865417,279.828735 
	C450.840057,280.622528 451.052216,281.423889 451.150879,282.174194 
	C461.583679,283.156647 471.869812,283.719727 482.030029,285.166931 
	C502.807831,288.126526 522.349792,294.348969 539.426514,307.291229 
	C567.811584,328.803955 558.911316,365.478790 530.563660,376.226562 
	C507.060913,385.137451 463.671143,382.066223 445.338715,351.364929 
	C438.523102,339.950836 435.610474,327.532166 434.934082,313.718445 
	C427.740417,314.115631 420.728668,314.502808 414.180817,314.864349 
	C412.722961,325.755219 411.805939,336.014099 409.865387,346.075592 
	C408.165894,354.887482 405.016052,363.258545 398.244507,369.829437 
	C389.004944,378.795166 378.063873,379.495880 366.756744,375.885132 
	C356.069366,372.472321 351.358459,363.519989 350.110992,353.100189 
	C347.965851,335.182159 353.410034,319.676605 366.922852,306.919952 
M456.122406,343.292419 
	C457.882599,345.901093 459.461975,348.655792 461.431732,351.095245 
	C476.431641,369.672028 505.892517,372.626434 524.557007,365.624695 
	C536.717896,361.062744 541.368896,345.493530 528.592773,336.400879 
	C524.450562,333.452911 520.034241,330.678375 515.368286,328.716309 
	C499.334320,321.973877 482.457123,318.305573 465.248230,316.172852 
	C460.080170,315.532379 454.842743,315.451874 449.628784,315.114258 
	C449.397766,325.266296 451.349609,334.229248 456.122406,343.292419 
M384.414520,322.826355 
	C373.270020,327.806885 366.872711,336.682709 365.745270,348.500183 
	C364.405243,362.546356 372.082123,368.201416 384.399536,363.948364 
	C387.791504,362.777130 391.040192,359.349396 392.974579,356.128326 
	C400.005066,344.421326 400.816650,331.178345 401.724487,316.821503 
	C395.623779,318.878113 390.345093,320.657623 384.414520,322.826355 
z"/>
<path fill="#343434" opacity="1.000000" stroke="none" 
	d="
M1844.902344,374.033569 
	C1829.941895,381.567474 1814.467163,381.538177 1798.814087,379.229950 
	C1782.983887,376.895599 1769.543823,370.206573 1759.125000,357.601288 
	C1748.659546,344.939453 1745.180786,330.016907 1744.094482,313.701202 
	C1736.802734,314.119720 1729.895752,314.516174 1723.456909,314.885742 
	C1722.002197,325.577362 1721.442139,335.943207 1718.969971,345.831055 
	C1717.086304,353.365234 1713.910278,361.141296 1709.297729,367.304199 
	C1701.095947,378.262695 1688.469604,380.777863 1674.723633,375.336365 
	C1663.161743,370.759460 1659.298584,360.657776 1658.926514,349.282806 
	C1658.085693,323.581207 1671.375977,306.376923 1693.236938,294.964294 
	C1698.749023,292.086670 1704.871948,290.379089 1711.353271,287.888214 
	C1711.810425,274.675079 1711.355347,260.997009 1704.953491,248.316208 
	C1700.836182,240.160461 1692.809204,236.508728 1684.151489,238.174850 
	C1677.049194,239.541672 1672.284546,245.464020 1670.966187,254.361450 
	C1669.396240,264.955627 1670.995728,275.154297 1674.569214,285.134735 
	C1675.062012,286.511017 1675.526123,287.897522 1675.998047,289.263428 
	C1669.302246,291.908386 1669.329468,291.893036 1665.953247,285.902008 
	C1655.807739,267.898071 1652.489990,248.510025 1655.151489,228.223862 
	C1657.147705,213.009750 1665.094727,204.524414 1677.947266,202.219543 
	C1692.781616,199.559235 1706.876831,206.208725 1713.629395,219.269180 
	C1719.885132,231.368988 1721.350830,244.570648 1721.781006,257.897430 
	C1722.075928,267.033356 1721.837524,276.186523 1721.837524,285.473297 
	C1729.639893,284.710419 1737.025391,283.988281 1744.266357,283.280304 
	C1744.956909,275.638916 1745.139404,268.302765 1746.350464,261.140503 
	C1751.569336,230.274826 1770.931641,210.664780 1802.921021,204.168030 
	C1824.697144,199.745483 1846.476807,199.385834 1868.006958,206.169189 
	C1893.989502,214.355331 1910.075562,232.251007 1916.816650,258.014038 
	C1920.230225,271.060120 1922.075439,284.778564 1922.571777,298.268768 
	C1923.472290,322.734344 1922.833740,347.256592 1922.837402,371.755188 
	C1922.837646,373.243011 1922.837524,374.730835 1922.837524,376.610168 
	C1918.944336,376.610168 1915.224854,376.610168 1910.831299,376.610168 
	C1910.831299,375.023926 1910.831421,373.270844 1910.831421,371.517792 
	C1910.831421,349.519012 1910.958130,327.519226 1910.776245,305.521942 
	C1910.689453,295.045105 1909.733032,284.662598 1905.444458,274.825714 
	C1898.061279,257.890594 1884.557007,248.249664 1867.286743,244.191345 
	C1840.271729,237.843216 1813.153320,238.140411 1786.668457,247.095581 
	C1772.267212,251.964981 1762.151001,261.382568 1760.200317,277.492065 
	C1760.100464,278.315979 1760.032227,279.147400 1760.016602,279.976593 
	C1760.004150,280.632385 1760.095459,281.290100 1760.178589,282.498932 
	C1765.768921,282.825470 1771.338867,283.056641 1776.892700,283.492126 
	C1797.242920,285.087860 1817.193481,288.729767 1835.190552,298.777496 
	C1842.878540,303.069702 1850.499634,308.439850 1856.303955,314.963531 
	C1872.156982,332.781036 1868.255737,358.270844 1848.559082,371.678741 
	C1847.461426,372.426025 1846.351562,373.155701 1844.902344,374.033569 
M1778.769043,358.720154 
	C1789.809204,366.460358 1802.276855,369.702576 1815.494995,368.780914 
	C1822.604248,368.285156 1830.110840,366.905579 1836.483521,363.900604 
	C1847.241455,358.827850 1848.340698,345.121216 1839.343750,337.468445 
	C1836.588623,335.124908 1833.496338,333.041046 1830.268311,331.413971 
	C1816.495361,324.471893 1801.727051,320.548676 1786.603760,318.056793 
	C1777.519897,316.560028 1768.313110,315.810242 1758.750366,314.675964 
	C1758.867554,332.792938 1764.482544,347.342468 1778.769043,358.720154 
M1675.060425,354.881836 
	C1676.176147,359.641724 1678.222900,363.805725 1683.468140,364.896118 
	C1689.925049,366.238464 1695.724121,364.780823 1699.908936,359.326843 
	C1709.338257,347.037476 1709.513306,332.324951 1711.099976,317.803162 
	C1688.271362,319.968536 1673.902344,334.580475 1675.060425,354.881836 
z"/>
<path fill="#353535" opacity="1.000000" stroke="none" 
	d="
M752.086060,423.231476 
	C748.100159,456.839996 747.021790,490.120209 747.993042,523.470276 
	C749.141785,562.911865 753.845215,601.830383 766.248474,639.494934 
	C771.682617,655.996582 778.848511,671.738586 788.301208,686.378662 
	C789.371399,688.036011 790.368713,689.740356 791.481873,691.556885 
	C789.403809,693.459229 787.455566,695.242859 785.462524,697.067383 
	C754.450928,669.921143 736.210449,635.350830 727.016296,595.493042 
	C720.182129,565.866272 719.085815,535.851074 719.855530,505.614838 
	C720.820557,467.703827 725.559265,430.314514 733.733276,393.297760 
	C741.174683,359.598846 752.075500,326.940887 762.447205,294.093445 
	C773.346619,259.574982 781.954346,224.502075 782.318481,187.967926 
	C782.513794,168.366562 780.946533,149.008041 772.884583,130.759750 
	C763.856018,110.323402 748.493164,97.947456 726.264160,94.461182 
	C706.307739,91.331337 687.374329,93.381889 670.702698,105.987808 
	C659.135193,114.734360 650.701416,126.160675 645.296082,139.396149 
	C639.669800,153.172699 635.340881,167.479111 630.304382,181.957199 
	C628.991150,181.588989 626.792175,180.972412 624.307495,180.275742 
	C625.448975,160.771896 628.097778,141.747833 633.757812,123.227737 
	C638.170105,108.790359 644.454102,95.332886 654.137085,83.517456 
	C666.296448,68.680328 682.107361,60.475765 700.774414,58.299240 
	C715.709473,56.557865 730.668945,57.563862 745.237915,62.133793 
	C768.855835,69.542175 783.760498,85.814758 792.008484,108.476974 
	C802.096863,136.195801 802.533569,164.956009 799.503601,193.844666 
	C795.654724,230.541153 786.957825,266.219147 776.347290,301.510864 
	C767.185059,331.985596 761.048523,363.178131 756.057495,394.587219 
	C754.568665,403.956573 753.423706,413.380554 752.086060,423.231476 
z"/>
<path fill="#353535" opacity="1.000000" stroke="none" 
	d="
M1989.595581,109.370316 
	C1968.636719,91.919540 1944.856445,89.696686 1920.110474,96.506714 
	C1903.549072,101.064362 1891.843750,112.913918 1882.906128,127.368256 
	C1873.424438,142.702698 1867.825195,159.530548 1864.001953,177.028885 
	C1863.652954,178.625717 1863.186646,180.196884 1862.659424,182.223862 
	C1860.324463,181.594940 1858.157227,181.011200 1854.787720,180.103607 
	C1856.894775,166.082047 1858.533203,152.091690 1861.179688,138.294647 
	C1865.081055,117.955940 1872.395874,99.013565 1885.958374,82.855530 
	C1898.158691,68.320190 1913.892212,60.319866 1932.395142,58.266975 
	C1947.339355,56.608932 1962.273438,57.625099 1976.828857,62.254589 
	C2000.027222,69.633003 2014.704956,85.643295 2023.037720,107.850052 
	C2032.667847,133.514191 2033.522095,160.281387 2031.310669,187.171982 
	C2027.966431,227.834808 2017.239746,266.933807 2006.468506,306.144714 
	C1998.380005,335.589691 1992.620117,365.751343 1987.255981,395.849213 
	C1979.783447,437.777435 1977.697754,480.206329 1979.138428,522.769958 
	C1980.460693,561.832397 1984.688354,600.491638 1997.074463,637.814209 
	C2000.210205,647.262878 2003.958252,656.565979 2008.189453,665.577026 
	C2012.350952,674.439270 2017.483765,682.845398 2022.378784,691.796265 
	C2020.900513,693.362061 2019.115601,695.252625 2017.170898,697.312256 
	C2002.899658,685.117249 1991.184082,671.210754 1981.774536,655.361572 
	C1963.180420,624.042175 1954.539062,589.741943 1952.053711,553.761475 
	C1947.225098,483.856293 1956.764771,415.585938 1976.481567,348.599060 
	C1984.091553,322.744781 1992.770020,297.201233 2000.169189,271.289795 
	C2007.768311,244.677505 2013.179321,217.566650 2013.603516,189.742447 
	C2013.925293,168.640335 2012.575684,147.647278 2002.858032,128.385620 
	C1999.462402,121.654999 1994.241699,115.845116 1989.595581,109.370316 
z"/>
<path fill="#353535" opacity="1.000000" stroke="none" 
	d="
M1358.868896,246.709625 
	C1357.048950,247.633987 1355.491089,248.267014 1354.105591,249.165604 
	C1348.941040,252.514862 1345.274292,256.875854 1345.672241,263.449921 
	C1346.056641,269.797150 1350.442139,273.067657 1355.680176,275.353363 
	C1368.484375,280.940674 1382.162720,281.522461 1395.818115,281.952759 
	C1403.272217,282.187622 1410.739746,281.994690 1418.448486,281.994690 
	C1418.448486,286.678680 1418.448486,290.934326 1418.448486,295.865509 
	C1416.228882,295.865509 1414.126099,295.747955 1412.040039,295.884308 
	C1396.784912,296.881287 1381.505737,297.648193 1366.297363,299.135193 
	C1361.829712,299.571991 1357.310669,301.614990 1353.261475,303.762909 
	C1344.610352,308.351837 1342.726440,317.949799 1349.465698,325.042358 
	C1352.875244,328.630676 1357.559692,331.762573 1362.253906,333.247559 
	C1385.373291,340.561218 1408.832153,341.338348 1431.926270,333.417938 
	C1451.978760,326.540680 1463.035278,311.551544 1463.800293,290.631561 
	C1464.828979,262.502380 1464.310425,234.316559 1464.453613,206.155045 
	C1464.463623,204.181305 1464.454834,202.207458 1464.454834,200.290024 
	C1486.467163,198.262146 1510.316772,213.261292 1517.892700,235.086121 
	C1521.380371,245.133209 1523.635254,256.099487 1523.850464,266.701752 
	C1524.577393,302.518829 1524.141968,338.359497 1524.142090,374.191162 
	C1524.142090,374.984985 1524.038818,375.778809 1523.969360,376.777832 
	C1519.942139,376.777832 1516.179565,376.777832 1511.761475,376.777832 
	C1511.761475,374.994080 1511.761475,373.240814 1511.761475,371.487579 
	C1511.761475,348.155273 1512.281860,324.806458 1511.542236,301.497620 
	C1511.171143,289.801117 1509.377197,277.967255 1506.628296,266.581390 
	C1504.017212,255.765564 1497.432739,247.035416 1486.432861,242.770844 
	C1483.745972,241.729172 1480.851807,241.221664 1477.383423,240.288422 
	C1477.383423,242.969131 1477.389893,244.756851 1477.382446,246.544525 
	C1477.293579,267.708740 1477.439819,288.877533 1477.027710,310.035492 
	C1476.758545,323.853668 1473.599731,337.105408 1466.193970,349.007355 
	C1456.181641,365.098083 1440.932495,373.162903 1422.831665,376.403503 
	C1398.614746,380.739075 1374.994019,378.586060 1352.629883,368.003296 
	C1332.288086,358.377502 1323.027954,341.181427 1325.778076,319.805359 
	C1327.419678,307.045959 1334.789429,298.305481 1345.484985,291.940735 
	C1347.320801,290.848358 1349.206787,289.840546 1351.245361,288.694916 
	C1317.565918,274.668365 1317.578613,229.470154 1344.836182,214.729752 
	C1343.377686,215.039200 1341.885498,215.238998 1340.465454,215.674515 
	C1318.474976,222.419098 1302.691772,242.783752 1299.949829,267.163574 
	C1298.158691,283.089355 1299.203125,298.796112 1302.850220,314.278748 
	C1304.119751,319.667969 1302.953125,322.786835 1297.669678,324.858856 
	C1291.166260,316.872711 1287.965698,307.381866 1285.629272,297.465881 
	C1281.772217,281.094391 1281.175537,264.798462 1287.209595,248.819321 
	C1294.588135,229.279312 1309.245117,217.255875 1328.303833,209.968964 
	C1348.721680,202.162415 1370.099365,200.683365 1391.645264,200.398041 
	C1400.633789,200.279007 1409.625366,200.378265 1418.998291,200.378265 
	C1418.998291,213.683609 1418.998291,226.734116 1418.998291,240.002014 
	C1398.813843,240.437592 1378.523926,239.174728 1358.868896,246.709625 
M1346.484009,214.831512 
	C1346.608887,214.734253 1346.733765,214.636993 1346.858643,214.539703 
	C1346.745605,214.429214 1346.636841,214.237488 1346.518188,214.231033 
	C1346.398804,214.224533 1346.269287,214.402359 1346.484009,214.831512 
z"/>
<path fill="#353535" opacity="1.000000" stroke="none" 
	d="
M64.022575,335.119049 
	C84.967445,340.875244 105.343506,340.514709 124.952316,331.863037 
	C144.531616,323.224396 154.486923,307.409515 154.865631,286.208221 
	C155.344650,259.389587 155.020691,232.556564 155.042755,205.729736 
	C155.044220,203.933777 155.042938,202.137817 155.042938,200.401657 
	C176.361252,197.748566 201.159576,213.342133 208.693268,235.369583 
	C212.244476,245.752853 214.450348,257.075958 214.679535,268.027344 
	C215.418518,303.336914 214.956436,338.671631 214.949905,373.996674 
	C214.949768,374.801392 214.861099,375.606110 214.796677,376.700684 
	C210.689987,376.700684 206.783401,376.700684 202.239853,376.700684 
	C202.239853,374.877014 202.245850,373.099976 202.238953,371.322998 
	C202.134766,344.498383 202.390106,317.665466 201.775787,290.852509 
	C201.453430,276.782562 198.704025,262.996277 189.337570,251.626724 
	C183.949524,245.086411 176.976578,241.337646 168.049545,240.639236 
	C168.049545,261.336517 168.049347,281.650909 168.049637,301.965271 
	C168.049820,315.807739 165.770737,329.186310 158.970184,341.399231 
	C146.035568,364.628235 125.332825,375.559906 99.568283,378.016968 
	C86.869797,379.227997 74.250404,378.418030 61.962387,374.817841 
	C35.872932,367.174042 20.447283,345.080231 20.856796,316.145874 
	C21.078102,300.509399 27.140120,286.752625 34.608532,273.413849 
	C38.497913,266.467346 42.425659,259.493164 45.602753,252.211548 
	C48.469700,245.640778 47.181622,241.523346 42.985863,239.597778 
	C37.653351,237.150513 30.134949,238.938797 27.782703,244.358429 
	C25.806438,248.911835 25.050158,254.214920 24.805861,259.237274 
	C24.566954,264.148895 25.658806,269.125275 26.229847,274.690430 
	C24.379368,274.884216 22.667341,275.063538 20.541807,275.286133 
	C13.609046,254.698181 11.521162,234.420471 20.697313,214.329803 
	C28.660244,196.895416 52.038456,197.830719 61.913425,206.237289 
	C70.820145,213.819611 71.406296,224.221008 68.281021,234.239853 
	C65.497528,243.163040 60.722210,251.497467 56.510017,259.933990 
	C51.476139,270.016235 44.986206,279.518036 41.121471,290.006195 
	C33.686508,310.183258 43.185001,328.070831 64.022575,335.119049 
z"/>
<path fill="#353535" opacity="1.000000" stroke="none" 
	d="
M1100.061035,201.902802 
	C1131.046021,208.736374 1144.950562,230.189560 1149.925049,258.958893 
	C1151.618286,268.751801 1152.235352,278.823822 1152.346802,288.779480 
	C1152.661987,316.932129 1152.463867,345.090546 1152.451904,373.246704 
	C1152.451416,374.384766 1152.287964,375.522766 1152.187744,376.824341 
	C1148.205444,376.824341 1144.415649,376.824341 1139.947388,376.824341 
	C1139.947388,375.078552 1139.947266,373.324951 1139.947266,371.571381 
	C1139.947144,349.079773 1140.537354,326.565918 1139.689209,304.106323 
	C1139.287231,293.463287 1137.286621,282.548889 1133.981079,272.419586 
	C1127.974609,254.013367 1114.261475,243.316010 1095.115723,241.080338 
	C1085.324585,239.937012 1075.042847,239.934402 1065.353516,241.588272 
	C1042.050293,245.565948 1028.334961,261.193024 1026.014282,284.837982 
	C1024.779663,297.416504 1025.012695,310.215851 1022.803345,322.597931 
	C1020.993408,332.742188 1017.723816,343.017578 1013.034058,352.176361 
	C1002.675049,372.406799 980.775513,380.348846 958.746338,377.505432 
	C963.481506,369.899963 969.049194,362.577728 972.919434,354.447388 
	C986.347778,326.237976 988.676575,296.983032 978.887939,267.141174 
	C975.401123,256.511169 969.096619,247.497314 960.157104,240.624542 
	C958.859558,239.626907 955.820557,239.196838 954.651855,240.018463 
	C949.129272,243.900604 943.587524,247.919876 938.834656,252.672379 
	C935.863892,255.642838 933.448059,257.272034 928.865051,254.993011 
	C932.699524,231.905670 943.013123,212.404144 961.339783,197.143112 
	C979.605835,214.880951 991.326477,235.773392 995.031799,260.941559 
	C999.230408,289.459534 999.137878,317.657745 989.187866,345.186371 
	C988.908691,345.958740 988.805664,346.794769 988.457520,348.310974 
	C994.772461,347.389252 998.792786,343.657288 1002.121948,339.175293 
	C1008.587463,330.470856 1011.062683,320.223907 1011.865723,309.723907 
	C1012.981445,295.136108 1012.667114,280.421173 1014.171448,265.885529 
	C1015.924316,248.948257 1021.036987,232.881821 1032.876343,219.987030 
	C1048.503784,202.966568 1068.748901,198.892883 1090.759277,200.509415 
	C1093.737427,200.728134 1096.683472,201.383713 1100.061035,201.902802 
z"/>
<path fill="#C67136" opacity="1.000000" stroke="none" 
	d="
M1578.137695,124.999985 
	C1578.137695,105.541359 1578.137695,86.582733 1578.137695,67.309723 
	C1586.110352,67.309723 1593.682861,67.309723 1601.590576,67.309723 
	C1601.590576,187.677231 1601.590576,308.027313 1601.590576,428.692566 
	C1593.970337,428.692566 1586.394897,428.692566 1578.137695,428.692566 
	C1578.137695,327.617371 1578.137695,226.558685 1578.137695,124.999985 
z"/>
<path fill="#C67136" opacity="1.000000" stroke="none" 
	d="
M869.894104,429.007324 
	C864.112915,429.007324 858.818420,429.007324 853.265381,429.007324 
	C853.265381,308.231903 853.265381,187.876785 853.265381,67.257126 
	C860.997375,67.257126 868.570679,67.257126 876.445190,67.257126 
	C876.445190,187.773331 876.445190,308.126984 876.445190,429.007324 
	C874.281433,429.007324 872.331116,429.007324 869.894104,429.007324 
z"/>
<path fill="#C67136" opacity="1.000000" stroke="none" 
	d="
M268.993805,354.000000 
	C268.993805,258.228210 268.993805,162.956436 268.993805,67.338745 
	C276.822998,67.338745 284.400787,67.338745 292.356689,67.338745 
	C292.356689,187.601578 292.356689,307.945282 292.356689,428.648376 
	C284.811005,428.648376 277.246979,428.648376 268.993805,428.648376 
	C268.993805,403.994720 268.993805,379.247375 268.993805,354.000000 
z"/>
<path fill="#C56F33" opacity="1.000000" stroke="none" 
	d="
M1230.142822,193.000000 
	C1230.142822,271.798828 1230.142822,350.097656 1230.142822,428.697693 
	C1222.362427,428.697693 1214.942749,428.697693 1207.131104,428.697693 
	C1207.131104,308.341858 1207.131104,187.972198 1207.131104,67.301346 
	C1214.541016,67.301346 1221.966431,67.301346 1230.142700,67.301346 
	C1230.142700,109.011223 1230.142700,150.755615 1230.142822,193.000000 
z"/>
</svg>