<svg version="1.1" id="Layer_1" xmlns="http://www.w3.org/2000/svg" xmlns:xlink="http://www.w3.org/1999/xlink" x="0px" y="0px"
	 width="100%" viewBox="0 0 688 736" enable-background="new 0 0 688 736" xml:space="preserve">
<path fill="#000000" opacity="1.000000" stroke="none" 
	d="
M563.431274,380.942871 
	C555.843689,380.194183 548.804626,379.051483 542.030823,376.625916 
	C519.477844,368.550262 506.711029,352.142578 501.733154,329.157593 
	C501.207397,326.729980 500.839386,324.240417 500.698364,321.762543 
	C500.290497,314.593811 499.845062,314.025848 492.795837,314.430298 
	C488.822510,314.658234 484.231750,314.159668 481.073425,315.985321 
	C477.232941,318.205292 479.780884,323.310181 479.242004,327.113800 
	C477.492157,339.464996 475.943207,351.796112 469.876801,363.063477 
	C459.566925,382.212402 436.843567,380.961121 425.836700,373.110107 
	C418.023743,367.537292 415.160400,359.120239 414.752319,350.054382 
	C413.497009,322.169342 428.963226,304.181793 452.163788,292.904663 
	C454.546387,291.746552 457.093597,290.882812 459.630310,290.094574 
	C466.919647,287.829468 466.893127,287.871765 466.991119,280.027191 
	C467.114899,270.115540 466.085236,260.378754 461.945862,251.264694 
	C457.438416,241.340012 450.212616,236.949051 441.744171,238.561844 
	C432.733398,240.277939 427.855865,247.230057 427.300507,258.576294 
	C426.844910,267.885162 428.779968,276.758301 431.541565,285.522766 
	C432.181946,287.555084 433.626221,289.542633 430.471436,290.866974 
	C427.587799,292.077545 425.417358,292.438202 423.366791,289.116943 
	C416.042938,277.254700 412.307770,264.302216 410.658752,250.591629 
	C409.596405,241.759048 409.815369,233.006454 411.674164,224.311432 
	C414.757141,209.890137 424.479218,202.265656 439.102661,201.534760 
	C458.801941,200.550171 470.530609,212.884644 475.213226,231.346313 
	C479.096771,246.657547 479.043884,262.308289 479.031799,277.949249 
	C479.026306,285.014984 479.041504,284.958496 485.983093,283.999420 
	C488.943848,283.590332 491.942474,283.304596 494.928131,283.262604 
	C499.363373,283.200226 500.981110,281.266907 500.759430,276.759705 
	C500.348297,268.399658 501.934631,260.219025 504.113159,252.167160 
	C510.664215,227.954269 526.833740,212.951111 550.273132,206.021515 
	C575.873169,198.453186 601.833740,197.883331 627.359009,206.632538 
	C652.601257,215.284729 667.216064,233.927109 674.317871,259.016235 
	C677.547363,270.425171 679.274475,282.097137 679.301697,293.970123 
	C679.360962,319.796906 679.362000,345.623993 679.292358,371.450684 
	C679.287048,373.405548 680.420227,376.346802 677.534546,377.019531 
	C674.344238,377.763275 670.789368,378.109772 667.731567,376.686218 
	C665.931580,375.848236 666.689514,373.358704 666.686340,371.592560 
	C666.645447,349.098206 666.785217,326.602661 666.591431,304.109863 
	C666.517029,295.470184 665.638855,286.856537 662.724243,278.587494 
	C655.909790,259.253906 641.114929,249.249130 622.221375,244.383148 
	C604.748779,239.883133 586.949829,240.480911 569.150146,241.952835 
	C559.309937,242.766571 549.706299,244.667526 540.607361,248.541504 
	C529.903870,253.098587 521.659668,260.163086 518.285645,271.818939 
	C515.701477,280.745911 516.840576,282.358704 526.095703,282.636322 
	C543.482605,283.157867 560.517883,285.746918 576.937622,291.612823 
	C589.086487,295.952942 600.263611,301.907776 609.882812,310.818085 
	C633.106445,332.330109 623.636780,367.088226 595.377258,377.268494 
	C585.183777,380.940674 574.618591,381.733734 563.431274,380.942871 
M525.380432,316.323395 
	C522.263000,316.185608 519.145569,316.047791 516.101929,315.913239 
	C514.786499,318.338837 516.006714,320.425476 516.201660,322.495270 
	C520.226746,365.224823 564.341858,376.192017 592.514404,363.569397 
	C602.054932,359.294830 603.737000,346.552490 596.372375,339.170380 
	C593.522278,336.313507 590.306458,334.005005 586.714478,332.189606 
	C567.706604,322.583221 547.207458,318.665833 525.380432,316.323395 
M434.241577,339.747833 
	C433.367004,342.940582 431.849701,346.110596 431.735565,349.330292 
	C431.358002,359.982941 436.693024,367.222412 448.630127,363.960571 
	C453.675751,362.581848 456.516785,358.673553 458.912903,354.378662 
	C463.983673,345.289642 464.902649,335.165863 466.242401,325.132629 
	C467.000641,319.454224 466.014587,318.138580 460.621460,319.436310 
	C449.156738,322.195068 439.724121,327.879883 434.241577,339.747833 
z"/>
<path fill="#000000" opacity="1.000000" stroke="none" 
	d="
M83.628967,249.422134 
	C76.634392,264.627716 66.005798,276.800293 55.665516,289.196136 
	C46.266117,300.464050 37.410217,312.081177 33.124039,326.481049 
	C32.093575,329.942993 32.113270,333.406128 32.396358,336.873199 
	C32.790775,341.703796 36.117767,344.565125 41.086868,344.671997 
	C47.398777,344.807739 52.634670,341.718292 57.837620,338.781433 
	C71.775238,330.914124 84.921440,321.794525 98.266212,312.987610 
	C100.791557,311.320953 101.772072,309.412018 101.725784,306.416168 
	C101.581680,297.087799 101.337494,287.739044 101.777596,278.428711 
	C102.467438,263.834991 105.679733,249.781631 113.046371,236.979828 
	C122.902657,219.851501 138.063293,209.631577 156.836929,204.687744 
	C182.724991,197.870407 208.530716,198.162918 233.787460,207.575577 
	C259.374573,217.111359 273.074463,236.541550 278.322784,262.691254 
	C280.495483,273.516663 280.868347,284.491852 280.944672,295.453552 
	C281.121063,320.778564 281.016296,346.105743 280.957153,371.431885 
	C280.952423,373.458984 281.759979,376.435974 279.029663,377.010071 
	C275.684174,377.713501 271.959015,378.166199 268.752930,376.594543 
	C266.993134,375.731903 267.707001,373.258667 267.704132,371.482391 
	C267.666992,348.655457 267.839417,325.826721 267.606628,303.002075 
	C267.477570,290.349396 264.800049,278.230408 257.766724,267.400604 
	C248.412338,252.996841 234.387314,246.121811 218.122192,243.038086 
	C194.335770,238.528381 170.784348,239.039688 147.750748,247.188812 
	C129.593475,253.612732 118.631523,268.992493 118.373459,288.195831 
	C118.320427,292.141968 117.831146,296.142273 118.996628,300.781830 
	C125.990204,298.954742 132.898727,297.388275 140.057205,297.432922 
	C152.707565,297.511841 165.042786,298.695526 175.546951,306.713959 
	C187.255386,315.651642 189.762115,328.389496 189.013031,341.970520 
	C188.390701,353.253601 185.980591,364.041718 176.314011,371.734955 
	C169.043594,377.521179 160.605927,378.685211 151.861908,378.497253 
	C129.650589,378.019775 115.134216,366.754272 107.459137,346.184326 
	C107.064018,345.125366 106.536774,344.115692 105.708069,342.278290 
	C99.262642,347.290619 93.179489,352.074249 87.038460,356.782379 
	C80.567307,361.743561 74.338737,367.103241 67.472763,371.449280 
	C55.444450,379.062988 42.389420,380.281372 29.400747,374.264709 
	C18.623541,369.272461 15.517879,359.171661 14.702230,348.255524 
	C13.187467,327.982819 21.483816,311.034546 32.987247,295.201965 
	C41.982456,282.821533 52.672291,271.768768 61.206158,259.024048 
	C63.631111,255.402557 65.697342,251.617126 67.190132,247.551590 
	C69.518013,241.211792 66.972420,237.255676 60.178276,236.369751 
	C49.353714,234.958282 40.944962,239.183136 34.619656,247.718979 
	C31.558935,251.849350 28.753416,256.206543 27.086052,261.170807 
	C26.566662,262.717163 25.555920,263.713043 23.678535,263.270294 
	C21.733391,262.811493 20.823967,261.616974 21.052099,259.665741 
	C23.082436,242.299911 26.898355,225.574768 38.148666,211.463425 
	C49.564983,197.143845 67.118965,197.057983 79.848297,205.450134 
	C88.864120,211.394073 89.783607,221.565170 88.992538,231.496826 
	C88.503952,237.630814 86.587868,243.532532 83.628967,249.422134 
M120.334412,330.794556 
	C118.692505,335.415222 120.922203,339.499939 122.328575,343.596863 
	C127.597191,358.944946 138.735764,365.814209 154.711151,363.565796 
	C158.878876,362.979218 162.805359,361.497192 164.963440,357.365082 
	C169.598434,348.490448 165.841476,334.322174 156.855453,329.847168 
	C144.995468,323.940887 132.812790,324.657837 120.334412,330.794556 
z"/>
<path fill="#000000" opacity="1.000000" stroke="none" 
	d="
M666.583008,575.905884 
	C666.576172,557.589661 666.782654,539.756775 666.488586,521.932007 
	C666.293518,510.108643 665.101868,498.363495 660.570435,487.206818 
	C653.287109,469.275024 640.329590,457.649628 621.634827,452.950684 
	C604.679871,448.688965 587.690613,448.284302 571.267761,455.586029 
	C558.145996,461.420074 547.327271,478.809296 548.703857,491.668945 
	C551.272827,492.385437 553.029663,490.504059 555.029114,489.551270 
	C574.278503,480.378326 593.998779,476.069702 614.879761,483.670441 
	C639.476685,492.623810 651.036987,512.528320 648.640930,538.932129 
	C645.819458,570.023254 625.044434,585.459717 595.997498,591.062256 
	C574.890686,595.133423 553.713074,595.016357 532.599854,590.328064 
	C504.923218,584.182312 488.154480,564.987244 485.537903,536.750122 
	C484.090668,521.131958 489.051392,507.239014 495.803802,493.724396 
	C498.405396,488.517426 501.531372,483.569702 504.477386,478.538422 
	C506.757324,474.644623 508.769928,470.627930 510.168304,466.337036 
	C512.116150,460.360138 511.248169,456.766388 507.564728,455.003387 
	C503.070862,452.852478 496.566406,454.445465 493.592560,458.613037 
	C491.419739,461.658081 490.387299,465.138306 490.279602,468.916290 
	C490.113281,474.751953 490.315247,480.551544 491.347412,486.313263 
	C491.696320,488.260986 491.585449,490.011292 488.943756,490.299805 
	C486.777496,490.536407 485.100983,490.372925 484.246643,487.861542 
	C477.478699,467.966797 476.275635,448.020325 485.209167,428.568298 
	C493.277618,410.999908 517.462280,411.853607 527.828125,421.080933 
	C534.966309,427.435181 536.106140,436.072693 534.772644,444.973785 
	C532.822327,457.992249 526.006287,468.923706 519.033203,479.738861 
	C512.067932,490.542023 505.604797,501.603882 502.151459,514.131531 
	C497.076141,532.543213 503.785400,544.099304 522.401428,548.872314 
	C538.369385,552.966431 554.704834,552.842346 571.013611,552.875366 
	C585.354065,552.904480 599.612854,552.049011 613.628906,548.696167 
	C618.028870,547.643616 622.285645,546.193604 626.188599,543.927673 
	C630.771606,541.266785 634.771912,538.067627 634.773865,532.021057 
	C634.775879,525.907715 631.216431,522.163391 626.283325,519.484619 
	C618.348267,515.175842 609.598816,513.905701 600.771667,513.358215 
	C582.492737,512.224304 564.575378,514.478882 547.015564,519.660950 
	C545.286255,520.171265 543.502686,520.497864 541.968445,520.857239 
	C539.311584,518.641052 539.679932,515.715088 539.175110,513.204773 
	C533.927734,487.106415 535.958435,462.257751 551.662537,439.638885 
	C563.077820,423.197296 578.717896,415.068329 598.589539,414.677063 
	C607.770508,414.496307 616.896484,414.869873 625.860107,417.070251 
	C651.282532,423.310974 665.557251,440.732758 673.186584,464.621002 
	C678.078796,479.938873 680.039673,495.789185 680.209045,511.794464 
	C680.471802,536.619690 680.312927,561.449524 680.304199,586.277405 
	C680.301941,592.617065 680.251587,592.368408 671.111816,592.408752 
	C665.918091,592.431641 666.042542,589.426025 666.225159,585.876587 
	C666.387756,582.717468 666.467346,579.554077 666.583008,575.905884 
z"/>
<path fill="#c67136" opacity="1.000000" stroke="none" 
	d="
M358.930603,265.000000 
	C358.926147,317.807892 358.923492,370.115814 358.913330,422.423706 
	C358.911987,429.325745 358.894165,429.326324 352.050995,429.328094 
	C347.553192,429.329254 343.049957,429.192993 338.559296,429.372040 
	C335.065002,429.511383 333.671417,427.990662 333.876404,424.637268 
	C333.947388,423.475952 333.870636,422.305908 333.870544,421.139862 
	C333.862091,305.362671 333.853821,189.585464 333.848755,73.808273 
	C333.848450,66.683044 333.860626,66.679771 341.041992,66.674179 
	C345.539795,66.670677 350.043121,66.816345 354.533600,66.636444 
	C357.879822,66.502388 359.005280,68.053627 358.875519,71.125923 
	C358.685822,75.616226 358.434998,80.110016 358.445312,84.601776 
	C358.582947,144.567917 358.761627,204.533936 358.930603,265.000000 
z"/>
</svg>