<svg version="1.1" id="Layer_1" xmlns="http://www.w3.org/2000/svg" xmlns:xlink="http://www.w3.org/1999/xlink" x="0px" y="0px"
	 width="100%" viewBox="0 0 904 742" enable-background="new 0 0 904 742" xml:space="preserve">
<path fill="#FFFFFF" opacity="1.000000" stroke="none" 
	d="
M609.000000,743.000000 
	C406.000061,743.000000 203.500122,743.000000 1.000136,743.000000 
	C1.000091,495.666809 1.000091,248.333603 1.000045,1.000302 
	C302.333099,1.000201 603.666199,1.000201 904.999512,1.000101 
	C904.999634,248.333023 904.999634,495.666046 904.999817,742.999512 
	C806.500000,743.000000 708.000000,743.000000 609.000000,743.000000 
M236.760345,354.768311 
	C236.760345,354.768311 236.419098,354.487244 236.538284,353.754852 
	C248.207062,319.338959 250.613953,284.730560 238.019516,250.031891 
	C231.765854,232.802551 220.733047,219.334442 204.048859,211.156525 
	C182.392624,200.541519 159.548813,199.697525 136.227051,203.612762 
	C117.783531,206.709061 101.891731,214.636887 90.716324,229.903168 
	C72.449066,254.857315 69.134117,283.420532 72.559166,313.172638 
	C73.455368,320.957520 75.865067,328.568176 77.749512,337.020660 
	C71.356339,333.939697 65.292534,331.521881 59.733788,328.246826 
	C40.807884,317.096344 35.581421,302.958099 43.793694,282.699249 
	C47.511211,273.528503 53.237545,265.168365 58.096508,256.465027 
	C63.140953,247.429443 68.325546,238.374329 68.828682,227.740677 
	C69.273376,218.342133 67.410583,209.202744 58.149834,204.680252 
	C42.676754,197.123978 24.926754,201.015442 18.747150,220.296249 
	C12.843885,238.714890 13.997374,256.974609 20.543503,275.313141 
	C22.392143,275.038116 24.122019,274.780792 26.031342,274.496735 
	C25.448492,269.635986 24.701813,265.206573 24.434891,260.748444 
	C24.063597,254.547058 24.364353,248.372940 28.348944,243.117218 
	C31.432207,239.050385 38.994431,237.402359 43.312782,239.743454 
	C47.091957,241.792236 48.203423,245.700150 45.878483,251.669418 
	C43.834732,256.916718 41.356083,262.038086 38.614201,266.961548 
	C31.400364,279.915070 26.181686,293.459686 25.161013,308.400665 
	C23.611227,331.086975 34.017082,349.096436 54.531364,358.920074 
	C71.869431,367.222778 90.142090,372.791382 108.717178,377.583038 
	C113.668335,378.860229 116.962196,378.702362 118.684975,373.288757 
	C116.594627,371.396118 114.352478,369.408813 112.156876,367.371399 
	C92.231606,348.881866 82.612518,326.590729 85.702187,298.999725 
	C88.884621,270.580231 107.250198,249.360474 134.466446,243.244354 
	C155.882706,238.431595 176.853455,239.722000 197.362518,247.142212 
	C216.821121,254.182373 229.289795,267.612823 233.034195,288.431427 
	C235.774689,303.668396 233.666626,318.625000 230.341919,333.467041 
	C226.781448,349.361481 220.563904,363.828217 207.664978,374.711487 
	C206.428909,375.754425 206.890488,378.809448 206.473022,381.521240 
	C222.888870,379.062439 236.550125,373.509186 247.928436,363.043823 
	C259.991852,351.948303 267.516144,337.881927 273.084869,322.755341 
	C277.737579,310.116852 281.148712,296.993500 286.261200,284.558289 
	C295.061615,263.152740 311.330444,249.250809 333.107117,241.926331 
	C353.595459,235.035156 374.591766,234.271255 395.746002,238.204849 
	C407.684418,240.424759 418.918091,244.575653 427.890808,253.158463 
	C444.067474,268.632141 449.775940,295.405975 441.674530,316.371033 
	C436.786102,329.021484 430.010162,340.414307 416.741211,345.384949 
	C398.823242,352.097076 380.268280,352.307709 362.533325,345.134186 
	C351.905609,340.835419 342.274872,334.071960 331.211548,327.863861 
	C327.144257,328.941406 325.939941,332.618134 327.439850,337.971588 
	C328.737061,342.601562 329.321320,347.431458 330.622070,352.060211 
	C337.097015,375.101166 351.465881,385.073364 375.162720,382.338013 
	C383.698669,381.352722 392.301239,379.619965 400.461853,376.963837 
	C422.079590,369.927734 437.354553,355.183716 446.587097,334.760406 
	C459.260803,306.724976 458.528107,277.666473 449.714264,248.850769 
	C442.970001,226.801361 428.395477,211.632599 405.890778,204.717850 
	C388.319397,199.318893 370.583344,199.113556 352.529724,201.865295 
	C324.178680,206.186554 302.748657,220.429596 288.249451,245.156631 
	C278.639221,261.545959 272.832794,279.417236 267.970856,297.622772 
	C264.135742,311.983307 259.675476,326.084473 252.120895,338.977905 
	C248.340958,345.429138 244.270294,351.753967 236.760345,354.768311 
M535.844543,509.166168 
	C535.057312,515.438843 534.131836,521.697815 533.507019,527.986572 
	C530.907959,554.145081 531.119629,580.151733 536.971985,605.981323 
	C546.109192,646.308777 566.700134,678.969971 600.609924,703.014709 
	C623.950012,719.564514 649.965332,728.861145 678.247681,732.235474 
	C716.483154,736.797180 753.730225,733.712585 789.214844,717.634460 
	C829.363342,699.443054 856.017090,669.046753 870.008118,627.408203 
	C881.077515,594.464844 883.796509,560.343140 883.815735,525.905640 
	C883.882446,406.431427 883.841675,286.957153 883.841736,167.482895 
	C883.841797,165.704773 883.841736,163.926666 883.841736,162.028824 
	C879.316895,162.028824 875.385071,162.028824 870.994629,162.028824 
	C870.994629,164.179352 870.994690,166.135101 870.994690,168.090836 
	C870.994629,283.232697 871.011780,398.374542 870.983093,513.516418 
	C870.975464,544.109924 868.491028,574.377869 858.891357,603.707275 
	C848.051392,636.825989 826.565002,660.560425 795.630371,676.106323 
	C771.698364,688.133118 746.151306,693.649658 719.586792,694.594849 
	C682.835754,695.902344 647.072632,691.803040 614.222656,673.474976 
	C579.485535,654.094116 559.374084,623.811523 550.091614,585.932373 
	C541.949097,552.705322 544.039856,519.145142 548.597290,485.648499 
	C549.937439,475.798615 551.647583,465.999084 553.253845,455.757996 
	C550.885437,455.390137 548.832764,455.071289 545.795532,454.599548 
	C542.471619,472.701385 539.204468,490.494324 535.844543,509.166168 
M732.454590,592.000793 
	C736.382690,591.295776 740.339783,590.722412 744.234314,589.864807 
	C774.836182,583.126099 790.722656,565.647644 793.384705,535.879333 
	C795.277710,514.710876 784.812439,496.183350 765.884521,486.908936 
	C746.742615,477.529663 727.558167,478.896576 708.384888,486.593872 
	C702.934143,488.782135 697.705078,491.522888 691.880127,494.240906 
	C692.304810,491.432007 692.535339,489.128906 693.012329,486.878052 
	C696.232361,471.682312 703.754272,459.893433 718.818665,453.872284 
	C730.779175,449.091705 743.178955,448.749664 755.658691,450.166290 
	C774.200256,452.271027 789.834290,459.856354 800.374207,475.926971 
	C808.882507,488.899933 811.660583,503.559723 811.821655,518.733948 
	C812.060486,541.226379 811.883972,563.723328 811.884277,586.218323 
	C811.884277,587.978333 811.884338,589.738342 811.884338,591.613281 
	C816.513123,591.613281 820.432190,591.613281 824.677612,591.613281 
	C824.747925,590.259644 824.856873,589.136414 824.857239,588.013184 
	C824.864441,564.685059 825.427307,541.337952 824.651733,518.035583 
	C824.155701,503.130554 822.602905,488.117889 819.851135,473.467682 
	C816.566467,455.981110 808.871155,440.286926 794.402222,428.924103 
	C777.864197,415.936279 758.486633,414.188477 738.497620,415.541504 
	C728.521179,416.216827 719.184509,419.251434 711.221680,425.452240 
	C684.019348,446.635376 675.786255,484.346069 686.823364,520.444031 
	C688.739990,519.959717 690.682678,519.530762 692.589172,518.977417 
	C710.824829,513.684509 729.375305,511.239655 748.348145,513.050415 
	C757.479370,513.921936 766.639648,515.104370 774.295959,520.797546 
	C782.742737,527.078552 782.736938,537.093506 773.951843,542.750366 
	C769.572876,545.570007 764.454285,547.626099 759.387512,548.923096 
	C741.154907,553.590149 722.492798,553.940430 703.807556,553.383606 
	C689.823425,552.966980 675.797852,552.509216 662.379150,547.948853 
	C648.745850,543.315491 642.656677,532.189026 645.579468,518.119263 
	C648.300903,505.018921 654.776184,493.648712 661.558655,482.359131 
	C666.430298,474.250031 671.661804,466.226074 675.329895,457.569733 
	C677.904663,451.493591 679.253296,444.397125 679.139893,437.790802 
	C678.927917,425.449036 672.713013,418.644897 661.602356,416.173859 
	C648.328125,413.221680 636.264038,417.548157 631.096680,428.211334 
	C621.262390,448.504700 623.547913,469.129639 630.403015,490.148407 
	C632.498047,489.880798 634.215820,489.661377 636.329834,489.391388 
	C636.001892,487.120422 635.589539,485.344513 635.515686,483.554626 
	C635.276428,477.760040 634.697388,471.920898 635.184998,466.178375 
	C635.447083,463.091919 637.119141,459.783447 639.048767,457.258209 
	C642.164490,453.180847 649.528259,452.211578 653.657471,454.845856 
	C658.442139,457.898254 657.249573,462.389099 655.726624,466.462372 
	C654.048096,470.951996 651.758240,475.220245 649.628723,479.532593 
	C644.635925,489.643372 638.531921,499.346375 634.744995,509.885437 
	C623.115234,542.251282 636.465271,581.845276 680.381470,590.362122 
	C697.440247,593.670349 714.428711,593.776672 732.454590,592.000793 
M824.979492,323.500000 
	C824.979492,305.505219 825.058289,287.510010 824.951416,269.515839 
	C824.881836,257.793365 823.257690,246.299194 818.993591,235.282822 
	C810.579468,213.544342 786.369995,197.719925 765.093872,200.403412 
	C765.093872,202.138779 765.095459,203.934448 765.093628,205.730118 
	C765.058838,239.720276 765.386780,273.717163 764.757019,307.696289 
	C764.578552,317.328552 762.493896,327.181793 759.653381,336.433197 
	C757.043457,344.933594 750.599609,347.212982 742.035217,344.415192 
	C738.277100,343.187561 734.511292,341.569763 731.220276,339.410736 
	C723.996521,334.671722 716.800659,329.812897 710.083191,324.395599 
	C695.421570,312.571594 680.778992,300.839142 662.219849,295.678741 
	C663.699768,283.847809 665.904297,272.353271 666.371582,260.788574 
	C666.852173,248.897720 666.420776,236.838470 664.916748,225.040543 
	C663.713013,215.598679 658.649841,207.631882 649.780334,202.739426 
	C641.974854,198.433823 633.630920,198.209488 625.079102,198.937759 
	C612.487000,200.010056 603.178223,205.938339 598.863953,217.973526 
	C591.680054,238.013840 594.916260,267.211792 616.561646,283.963776 
	C620.143433,281.829742 620.247864,279.354767 618.150391,275.798096 
	C613.801453,268.423279 610.729919,260.521912 611.013855,251.728561 
	C611.399353,239.787933 618.639343,231.909958 629.859436,231.105972 
	C642.702637,230.185715 651.501221,236.201874 652.829712,248.586166 
	C653.829895,257.910156 652.955750,267.469940 652.486206,276.903381 
	C652.217896,282.293793 651.089478,287.641357 650.334778,293.106354 
	C646.108582,293.396423 642.454895,293.557251 638.820251,293.912933 
	C626.222229,295.145874 614.200684,298.178436 604.220154,306.469727 
	C589.607666,318.608978 585.513489,335.119110 586.180054,353.075378 
	C586.921997,373.059174 599.531250,380.815247 618.390930,377.304901 
	C631.859558,374.798004 639.748840,364.845398 645.803833,353.660156 
	C650.009155,345.891785 652.916504,337.420776 656.487610,329.067596 
	C657.250488,329.458740 658.277527,329.955353 659.276978,330.502258 
	C674.453796,338.807434 687.321533,350.129669 700.084839,361.612213 
	C710.972900,371.407654 723.025879,378.517395 738.356995,378.634491 
	C753.406128,378.749359 765.750244,371.293976 769.986694,356.882599 
	C773.384888,345.322754 776.104431,333.236877 776.735840,321.258484 
	C778.032288,296.663635 777.729614,271.984375 778.077637,247.339767 
	C778.107788,245.208282 778.081665,243.076004 778.081665,240.933670 
	C786.469543,241.223907 794.432373,245.325745 799.516968,251.700867 
	C808.577026,263.060455 811.474060,276.585541 811.792969,290.490845 
	C812.411621,317.468719 812.178040,344.466187 812.295837,371.455536 
	C812.303589,373.227600 812.296814,374.999756 812.296814,376.706268 
	C816.875793,376.706268 820.796814,376.706268 824.979492,376.706268 
	C824.979492,359.106140 824.979492,341.803070 824.979492,323.500000 
M533.900574,169.500000 
	C533.900574,135.421997 533.900574,101.344009 533.900574,67.337784 
	C525.599792,67.337784 518.024841,67.337784 510.477692,67.337784 
	C510.477692,188.032150 510.477692,308.381317 510.477692,428.663086 
	C518.420593,428.663086 525.996460,428.663086 533.900513,428.663086 
	C533.900513,342.379700 533.900513,256.439850 533.900574,169.500000 
M164.417206,325.156891 
	C173.083206,342.844818 181.749222,360.532745 190.594238,378.586060 
	C191.659271,378.252563 193.804260,377.580902 196.494797,376.738434 
	C189.567886,330.680573 181.951767,285.382507 142.439911,253.756897 
	C136.118164,260.371155 129.849762,266.929657 123.466621,273.608154 
	C139.060898,289.247528 152.611542,306.053497 164.417206,325.156891 
z"/>
<path fill="#353535" opacity="1.000000" stroke="none" 
	d="
M237.074036,355.079834 
	C244.270294,351.753967 248.340958,345.429138 252.120895,338.977905 
	C259.675476,326.084473 264.135742,311.983307 267.970856,297.622772 
	C272.832794,279.417236 278.639221,261.545959 288.249451,245.156631 
	C302.748657,220.429596 324.178680,206.186554 352.529724,201.865295 
	C370.583344,199.113556 388.319397,199.318893 405.890778,204.717850 
	C428.395477,211.632599 442.970001,226.801361 449.714264,248.850769 
	C458.528107,277.666473 459.260803,306.724976 446.587097,334.760406 
	C437.354553,355.183716 422.079590,369.927734 400.461853,376.963837 
	C392.301239,379.619965 383.698669,381.352722 375.162720,382.338013 
	C351.465881,385.073364 337.097015,375.101166 330.622070,352.060211 
	C329.321320,347.431458 328.737061,342.601562 327.439850,337.971588 
	C325.939941,332.618134 327.144257,328.941406 331.211548,327.863861 
	C342.274872,334.071960 351.905609,340.835419 362.533325,345.134186 
	C380.268280,352.307709 398.823242,352.097076 416.741211,345.384949 
	C430.010162,340.414307 436.786102,329.021484 441.674530,316.371033 
	C449.775940,295.405975 444.067474,268.632141 427.890808,253.158463 
	C418.918091,244.575653 407.684418,240.424759 395.746002,238.204849 
	C374.591766,234.271255 353.595459,235.035156 333.107117,241.926331 
	C311.330444,249.250809 295.061615,263.152740 286.261200,284.558289 
	C281.148712,296.993500 277.737579,310.116852 273.084869,322.755341 
	C267.516144,337.881927 259.991852,351.948303 247.928436,363.043823 
	C236.550125,373.509186 222.888870,379.062439 206.473022,381.521240 
	C206.890488,378.809448 206.428909,375.754425 207.664978,374.711487 
	C220.563904,363.828217 226.781448,349.361481 230.341919,333.467041 
	C233.666626,318.625000 235.774689,303.668396 233.034195,288.431427 
	C229.289795,267.612823 216.821121,254.182373 197.362518,247.142212 
	C176.853455,239.722000 155.882706,238.431595 134.466446,243.244354 
	C107.250198,249.360474 88.884621,270.580231 85.702187,298.999725 
	C82.612518,326.590729 92.231606,348.881866 112.156876,367.371399 
	C114.352478,369.408813 116.594627,371.396118 118.684975,373.288757 
	C116.962196,378.702362 113.668335,378.860229 108.717178,377.583038 
	C90.142090,372.791382 71.869431,367.222778 54.531364,358.920074 
	C34.017082,349.096436 23.611227,331.086975 25.161013,308.400665 
	C26.181686,293.459686 31.400364,279.915070 38.614201,266.961548 
	C41.356083,262.038086 43.834732,256.916718 45.878483,251.669418 
	C48.203423,245.700150 47.091957,241.792236 43.312782,239.743454 
	C38.994431,237.402359 31.432207,239.050385 28.348944,243.117218 
	C24.364353,248.372940 24.063597,254.547058 24.434891,260.748444 
	C24.701813,265.206573 25.448492,269.635986 26.031342,274.496735 
	C24.122019,274.780792 22.392143,275.038116 20.543503,275.313141 
	C13.997374,256.974609 12.843885,238.714890 18.747150,220.296249 
	C24.926754,201.015442 42.676754,197.123978 58.149834,204.680252 
	C67.410583,209.202744 69.273376,218.342133 68.828682,227.740677 
	C68.325546,238.374329 63.140953,247.429443 58.096508,256.465027 
	C53.237545,265.168365 47.511211,273.528503 43.793694,282.699249 
	C35.581421,302.958099 40.807884,317.096344 59.733788,328.246826 
	C65.292534,331.521881 71.356339,333.939697 77.749512,337.020660 
	C75.865067,328.568176 73.455368,320.957520 72.559166,313.172638 
	C69.134117,283.420532 72.449066,254.857315 90.716324,229.903168 
	C101.891731,214.636887 117.783531,206.709061 136.227051,203.612762 
	C159.548813,199.697525 182.392624,200.541519 204.048859,211.156525 
	C220.733047,219.334442 231.765854,232.802551 238.019516,250.031891 
	C250.613953,284.730560 248.207062,319.338959 236.355133,354.333496 
	C236.272964,355.194458 236.373932,355.476837 236.474884,355.759186 
	C236.674606,355.532745 236.874313,355.306274 237.074036,355.079834 
z"/>
<path fill="#363636" opacity="1.000000" stroke="none" 
	d="
M535.890930,508.726715 
	C539.204468,490.494324 542.471619,472.701385 545.795532,454.599548 
	C548.832764,455.071289 550.885437,455.390137 553.253845,455.757996 
	C551.647583,465.999084 549.937439,475.798615 548.597290,485.648499 
	C544.039856,519.145142 541.949097,552.705322 550.091614,585.932373 
	C559.374084,623.811523 579.485535,654.094116 614.222656,673.474976 
	C647.072632,691.803040 682.835754,695.902344 719.586792,694.594849 
	C746.151306,693.649658 771.698364,688.133118 795.630371,676.106323 
	C826.565002,660.560425 848.051392,636.825989 858.891357,603.707275 
	C868.491028,574.377869 870.975464,544.109924 870.983093,513.516418 
	C871.011780,398.374542 870.994629,283.232697 870.994690,168.090836 
	C870.994690,166.135101 870.994629,164.179352 870.994629,162.028824 
	C875.385071,162.028824 879.316895,162.028824 883.841736,162.028824 
	C883.841736,163.926666 883.841797,165.704773 883.841736,167.482895 
	C883.841675,286.957153 883.882446,406.431427 883.815735,525.905640 
	C883.796509,560.343140 881.077515,594.464844 870.008118,627.408203 
	C856.017090,669.046753 829.363342,699.443054 789.214844,717.634460 
	C753.730225,733.712585 716.483154,736.797180 678.247681,732.235474 
	C649.965332,728.861145 623.950012,719.564514 600.609924,703.014709 
	C566.700134,678.969971 546.109192,646.308777 536.971985,605.981323 
	C531.119629,580.151733 530.907959,554.145081 533.507019,527.986572 
	C534.131836,521.697815 535.057312,515.438843 535.890930,508.726715 
z"/>
<path fill="#353535" opacity="1.000000" stroke="none" 
	d="
M732.009583,592.028320 
	C714.428711,593.776672 697.440247,593.670349 680.381470,590.362122 
	C636.465271,581.845276 623.115234,542.251282 634.744995,509.885437 
	C638.531921,499.346375 644.635925,489.643372 649.628723,479.532593 
	C651.758240,475.220245 654.048096,470.951996 655.726624,466.462372 
	C657.249573,462.389099 658.442139,457.898254 653.657471,454.845856 
	C649.528259,452.211578 642.164490,453.180847 639.048767,457.258209 
	C637.119141,459.783447 635.447083,463.091919 635.184998,466.178375 
	C634.697388,471.920898 635.276428,477.760040 635.515686,483.554626 
	C635.589539,485.344513 636.001892,487.120422 636.329834,489.391388 
	C634.215820,489.661377 632.498047,489.880798 630.403015,490.148407 
	C623.547913,469.129639 621.262390,448.504700 631.096680,428.211334 
	C636.264038,417.548157 648.328125,413.221680 661.602356,416.173859 
	C672.713013,418.644897 678.927917,425.449036 679.139893,437.790802 
	C679.253296,444.397125 677.904663,451.493591 675.329895,457.569733 
	C671.661804,466.226074 666.430298,474.250031 661.558655,482.359131 
	C654.776184,493.648712 648.300903,505.018921 645.579468,518.119263 
	C642.656677,532.189026 648.745850,543.315491 662.379150,547.948853 
	C675.797852,552.509216 689.823425,552.966980 703.807556,553.383606 
	C722.492798,553.940430 741.154907,553.590149 759.387512,548.923096 
	C764.454285,547.626099 769.572876,545.570007 773.951843,542.750366 
	C782.736938,537.093506 782.742737,527.078552 774.295959,520.797546 
	C766.639648,515.104370 757.479370,513.921936 748.348145,513.050415 
	C729.375305,511.239655 710.824829,513.684509 692.589172,518.977417 
	C690.682678,519.530762 688.739990,519.959717 686.823364,520.444031 
	C675.786255,484.346069 684.019348,446.635376 711.221680,425.452240 
	C719.184509,419.251434 728.521179,416.216827 738.497620,415.541504 
	C758.486633,414.188477 777.864197,415.936279 794.402222,428.924103 
	C808.871155,440.286926 816.566467,455.981110 819.851135,473.467682 
	C822.602905,488.117889 824.155701,503.130554 824.651733,518.035583 
	C825.427307,541.337952 824.864441,564.685059 824.857239,588.013184 
	C824.856873,589.136414 824.747925,590.259644 824.677612,591.613281 
	C820.432190,591.613281 816.513123,591.613281 811.884338,591.613281 
	C811.884338,589.738342 811.884277,587.978333 811.884277,586.218323 
	C811.883972,563.723328 812.060486,541.226379 811.821655,518.733948 
	C811.660583,503.559723 808.882507,488.899933 800.374207,475.926971 
	C789.834290,459.856354 774.200256,452.271027 755.658691,450.166290 
	C743.178955,448.749664 730.779175,449.091705 718.818665,453.872284 
	C703.754272,459.893433 696.232361,471.682312 693.012329,486.878052 
	C692.535339,489.128906 692.304810,491.432007 691.880127,494.240906 
	C697.705078,491.522888 702.934143,488.782135 708.384888,486.593872 
	C727.558167,478.896576 746.742615,477.529663 765.884521,486.908936 
	C784.812439,496.183350 795.277710,514.710876 793.384705,535.879333 
	C790.722656,565.647644 774.836182,583.126099 744.234314,589.864807 
	C740.339783,590.722412 736.382690,591.295776 732.009583,592.028320 
z"/>
<path fill="#353535" opacity="1.000000" stroke="none" 
	d="
M824.979492,324.000000 
	C824.979492,341.803070 824.979492,359.106140 824.979492,376.706268 
	C820.796814,376.706268 816.875793,376.706268 812.296814,376.706268 
	C812.296814,374.999756 812.303589,373.227600 812.295837,371.455536 
	C812.178040,344.466187 812.411621,317.468719 811.792969,290.490845 
	C811.474060,276.585541 808.577026,263.060455 799.516968,251.700867 
	C794.432373,245.325745 786.469543,241.223907 778.081665,240.933670 
	C778.081665,243.076004 778.107788,245.208282 778.077637,247.339767 
	C777.729614,271.984375 778.032288,296.663635 776.735840,321.258484 
	C776.104431,333.236877 773.384888,345.322754 769.986694,356.882599 
	C765.750244,371.293976 753.406128,378.749359 738.356995,378.634491 
	C723.025879,378.517395 710.972900,371.407654 700.084839,361.612213 
	C687.321533,350.129669 674.453796,338.807434 659.276978,330.502258 
	C658.277527,329.955353 657.250488,329.458740 656.487610,329.067596 
	C652.916504,337.420776 650.009155,345.891785 645.803833,353.660156 
	C639.748840,364.845398 631.859558,374.798004 618.390930,377.304901 
	C599.531250,380.815247 586.921997,373.059174 586.180054,353.075378 
	C585.513489,335.119110 589.607666,318.608978 604.220154,306.469727 
	C614.200684,298.178436 626.222229,295.145874 638.820251,293.912933 
	C642.454895,293.557251 646.108582,293.396423 650.334778,293.106354 
	C651.089478,287.641357 652.217896,282.293793 652.486206,276.903381 
	C652.955750,267.469940 653.829895,257.910156 652.829712,248.586166 
	C651.501221,236.201874 642.702637,230.185715 629.859436,231.105972 
	C618.639343,231.909958 611.399353,239.787933 611.013855,251.728561 
	C610.729919,260.521912 613.801453,268.423279 618.150391,275.798096 
	C620.247864,279.354767 620.143433,281.829742 616.561523,283.963745 
	C594.916260,267.211792 591.680054,238.013840 598.863953,217.973526 
	C603.178223,205.938339 612.487000,200.010056 625.079102,198.937759 
	C633.630920,198.209488 641.974854,198.433823 649.780334,202.739426 
	C658.649841,207.631882 663.713013,215.598679 664.916748,225.040543 
	C666.420776,236.838470 666.852173,248.897720 666.371582,260.788574 
	C665.904297,272.353271 663.699768,283.847809 662.219849,295.678741 
	C680.778992,300.839142 695.421570,312.571594 710.083191,324.395599 
	C716.800659,329.812897 723.996521,334.671722 731.220276,339.410736 
	C734.511292,341.569763 738.277100,343.187561 742.035217,344.415192 
	C750.599609,347.212982 757.043457,344.933594 759.653381,336.433197 
	C762.493896,327.181793 764.578552,317.328552 764.757019,307.696289 
	C765.386780,273.717163 765.058838,239.720276 765.093628,205.730118 
	C765.095459,203.934448 765.093872,202.138779 765.093872,200.403412 
	C786.369995,197.719925 810.579468,213.544342 818.993591,235.282822 
	C823.257690,246.299194 824.881836,257.793365 824.951416,269.515839 
	C825.058289,287.510010 824.979492,305.505219 824.979492,324.000000 
M601.932190,359.109802 
	C604.115784,363.854187 608.090515,365.832428 612.912231,364.833191 
	C617.034973,363.978821 621.610352,362.850494 624.786743,360.331604 
	C635.895813,351.521820 639.603516,338.580688 643.522339,324.757294 
	C637.890991,324.495239 633.091064,323.788361 628.370789,324.142609 
	C614.007874,325.220398 596.230896,337.801758 601.932190,359.109802 
z"/>
<path fill="#C67136" opacity="1.000000" stroke="none" 
	d="
M533.900513,170.000000 
	C533.900513,256.439850 533.900513,342.379700 533.900513,428.663086 
	C525.996460,428.663086 518.420593,428.663086 510.477692,428.663086 
	C510.477692,308.381317 510.477692,188.032150 510.477692,67.337784 
	C518.024841,67.337784 525.599792,67.337784 533.900574,67.337784 
	C533.900574,101.344009 533.900574,135.421997 533.900513,170.000000 
z"/>
<path fill="#363636" opacity="1.000000" stroke="none" 
	d="
M164.247559,324.833862 
	C152.611542,306.053497 139.060898,289.247528 123.466621,273.608154 
	C129.849762,266.929657 136.118164,260.371155 142.439911,253.756897 
	C181.951767,285.382507 189.567886,330.680573 196.494797,376.738434 
	C193.804260,377.580902 191.659271,378.252563 190.594238,378.586060 
	C181.749222,360.532745 173.083206,342.844818 164.247559,324.833862 
z"/>
<path fill="#FFFFFF" opacity="1.000000" stroke="none" 
	d="
M236.917191,354.924072 
	C236.874313,355.306274 236.674606,355.532745 236.474884,355.759186 
	C236.373932,355.476837 236.272964,355.194458 236.295547,354.699677 
	C236.419098,354.487244 236.760345,354.768311 236.917191,354.924072 
z"/>
<path fill="#FCFCFC" opacity="1.000000" stroke="none" 
	d="
M601.761841,358.737274 
	C596.230896,337.801758 614.007874,325.220398 628.370789,324.142609 
	C633.091064,323.788361 637.890991,324.495239 643.522339,324.757294 
	C639.603516,338.580688 635.895813,351.521820 624.786743,360.331604 
	C621.610352,362.850494 617.034973,363.978821 612.912231,364.833191 
	C608.090515,365.832428 604.115784,363.854187 601.761841,358.737274 
z"/>
</svg>