<svg enable-background="new 0 0 1924 560" viewBox="0 0 1924 560" xmlns="http://www.w3.org/2000/svg"><path d="m1466 561c-488.666687 0-976.833344 0-1465 0 0-186.666656 0-373.333328 0-560h1924v560c-152.833374 0-305.666626 0-459 0m-379.951782-193.820709c-11.603272-10.939697-23.206421-21.879364-35.022583-33.019806-2.372437 2.554657-5.029907 5.416382-7.765747 8.362427 23.209961 29.234192 49.611206 53.474548 84.763794 67.465149 1.409423-3.378846 2.65979-6.376435 3.932983-9.428956-1.891357-1.424438-3.470581-2.631469-5.067993-3.813995-19.842529-14.689697-29.586914-34.179138-27.875244-59.016296.925903-13.433899 5.011718-25.492585 16.244507-33.989594 9.693725-7.332947 20.994384-9.821197 32.861694-10.024963 20.785644-.356842 36.994263 7.696441 46.426392 26.80133 5.882202 11.914765 10.637573 24.388031 16.578369 36.270935 5.181518 10.36435 10.338501 20.978425 17.205566 30.21933 23.223877 31.251862 67.282105 24.653321 84.788208 5.651856 10.643555-11.552674 15.47229-25.665283 16.691406-40.826142 1.185913-14.746704 1.226685-29.608276 1.256714-44.42044.061646-30.485108-.219116-60.970917-.197632-92.375244.004883-33.493973.469483-66.99733-.213989-100.47725-.269653-13.204322-1.901977-26.646972-5.014038-39.471427-6.380005-26.28983-22.129517-45.346293-48.486572-53.687851-24.789063-7.84537-49.987549-7.171567-74.797486.193441-26.68518 7.921719-42.769897 25.890528-47.60559 53.420229-1.339478 7.625992-1.692139 15.425293-2.525513 23.412773-7.240235.709625-14.588501 1.429833-22.277588 2.183449 0-9.550781.175171-18.708893-.044189-27.857544-.276124-11.519714-1.589966-22.917053-5.899903-33.741654-4.463379-11.210544-12.001465-19.234918-24.259277-21.439855-16.322754-2.936163-31.299317 2.439272-35.23877 20.125997-5.448364 24.462079-.431518 47.45266 12.958008 69.030785 2.380982-.777473 4.498047-1.468727 6.833008-2.23111-.733032-1.964584-1.353516-3.48896-1.874634-5.046615-3.760254-11.238815-5.484131-22.671967-2.343506-34.329445 2.089234-7.754887 7.280274-11.588532 15.12854-12.17617 8.342896-.624661 14.041382 3.292209 17.778687 10.319042 5.979004 11.24126 6.467773 23.5536 6.743652 35.918728.071655 3.210395-.975464 4.321083-4.054199 5.448059-7.421631 2.716789-15.062988 5.430565-21.685669 9.616905-17.867798 11.294632-27.394531 27.673744-27.084473 49.189934.21045 14.595459 7.504395 25.051864 19.431397 28.06755 15.465454 3.910386 28.065552-.983429 35.065185-14.60141 3.06543-5.963531 5.177002-12.634689 6.488038-19.229751 1.801391-9.060883 2.43164-18.354553 3.609497-27.920715 6.849609-.337037 13.74292-.676224 20.853393-1.026093.225342 2.877731.361084 5.029175.567383 7.173813 1.251587 13.010834 5.495239 24.810348 13.282104 35.471649 20.054322 27.456879 65.529297 28.994232 86.986817 17.483856 16.598266-8.903732 24.529053-26.795471 19.640259-44.253433-3.380616-12.072632-11.886353-20.134361-22.010743-26.747856-18.014526-11.767548-38.328613-16.449417-59.291503-18.899109-7.70813-.900757-15.498902-1.094154-23.859498-1.65065.64795-3.775276.915162-7.263 1.868287-10.551971 4.199462-14.491509 15.161499-21.878586 28.708496-25.752835 25.623291-7.327907 51.614502-8.031219 77.494262-1.696239 15.362793 3.760631 28.132569 11.910217 35.847046 26.420974 5.614136 10.56012 7.197022 22.060456 7.253174 33.798607.153809 32.154625.162598 64.309929.069092 97.390938-.011597 31.324936.09375 62.650665-.12207 93.974182-.050171 7.290436-.624512 14.679047-1.954468 21.83722-2.608399 14.037231-8.882935 26.193817-22.833252 31.85672-18.353272 7.450195-36.878052 6.387268-54.628784-2.285523-10.489136-5.124786-16.680664-14.895966-21.845948-24.710876-7.654541-14.545075-14.331176-29.625031-20.984253-44.671814-8.420654-19.04422-22.443481-30.232605-43.167724-33.589386-28.471192-4.611603-51.546631 6.814209-64.292725 32.65097-5.553589 11.257416-7.68164 23.323639-7.965698 35.759461-.306519 13.413391 1.610962 26.511383 5.774048 39.364379 0 0-.151123.120148-.838745.08133m529.356201 159.709808c2.777588-3.7323 5.925171-7.247009 8.269287-11.234131 10.964966-18.650116 14.161743-39.276764 14.265747-60.456817.207031-42.164124.099609-84.329987.041626-126.495026-.020996-15.230469-1.997436-30.210449-7.05603-44.637726-7.306397-20.838592-20.494995-36.51477-41.332398-44.72171-23.532959-9.268738-47.858642-9.444626-72.19873-4.103378-28.778565 6.315124-48.499512 22.806503-54.92395 52.546066-1.844849 8.539246-2.218994 17.39621-3.328003 26.610962-6.849488.6297-14.081787 1.294556-22.01062 2.023498 0-2.088501.006836-3.705597-.000977-5.322631-.042969-8.832673.213867-17.679749-.2052-26.494629-.644531-13.557404-2.511841-26.93451-10.583984-38.436341-8.34607-11.892196-20.23877-15.106933-33.908936-12.629028-13.276733 2.406616-19.869141 11.472534-21.696655 24.119812-3.067627 21.230164.312133 41.434357 10.993774 60.21106 3.108276 5.464233 3.375733 5.458679 9.390747 2.268158-.220459-.899689-.339599-1.89206-.70166-2.78592-3.756836-9.272461-5.424194-18.967987-4.2677-28.835449.558594-4.764953 1.912597-10.12326 4.740722-13.803131 7.595093-9.88269 22.738892-7.437897 29.11438 4.304932 6.159058 11.344238 6.583496 23.858337 6.921509 36.376678.083008 3.074097-.852661 4.344299-3.97644 4.985016-12.799195 2.625183-23.356568 9.498871-32.549561 18.464417-13.501098 13.166992-18.47876 29.343322-15.332397 47.80429 1.662475 9.754517 6.68811 17.46048 16.797607 20.409394 10.964356 3.198333 21.445435 2.728241 30.35315-5.567444 7.552612-7.033692 10.869873-16.300568 12.64978-26.042176 1.75293-9.59439 2.657471-19.343811 4.006958-29.57611 6.548828-.359955 13.431396-.738251 19.984863-1.09845.526245 1.038238.770386 1.316833.802246 1.617859.140015 1.323242.235352 2.651977.317017 3.98056.706787 11.493225 4.119507 22.07135 9.942016 32.050385 18.592774 31.866272 67.132569 35.290252 90.76587 22.253448 24.201416-13.35022 28.07434-43.346558 7.978759-62.249084-5.384643-5.065003-11.696533-9.439423-18.221069-12.941864-19.587158-10.514618-41.0802-13.918213-62.952271-15.474579-4.044189-.28775-8.094482-.488556-12.08081-.725861.207031-12.709747 4.719116-22.124237 14.238647-28.56488 4.625489-3.129517 9.773194-5.932617 15.091675-7.516907 26.080322-7.768982 52.563965-8.048492 78.858032-1.611847 16.312378 3.993164 29.374756 13.171509 36.604859 29.124115 4.346435 9.590149 5.735962 19.76767 5.769653 30.162415.070679 21.832306.021973 43.665008.021607 65.497528-.000122 8.150909-.704102 9.697204-8.680542 11.272339-11.230957 2.217804-22.579102 4.021911-33.95752 5.270233-16.576172 1.818512-32.890625 4.319793-48.63147 10.239807-51.297851 19.292602-51.752807 79.018677-22.65332 106.200287 10.148071 9.479187 22.721558 13.858825 36.212769 15.0849 25.022827 2.274231 48.079101-2.426819 67.116943-21.55304m-1339.589722-369.103409c1.895935 7.544602 3.286927 15.265427 5.84018 22.580612 2.229248 6.387085 6.827179 11.437638 14.225036 11.49141 7.673676.055786 11.730896-5.414139 14.660492-11.726471 1.043244-2.247788 2.031952-4.620896 2.451935-7.039871 1.477173-8.508072 3.640076-17.038773 3.841309-25.600876.677276-28.817246.622345-57.651703.844696-86.479603.013519-1.752258.00177-3.504715.00177-5.468742 11.63034 1.074962 19.684906 6.60218 25.25946 15.851726 6.360169 10.553101 8.766937 22.33551 8.967774 34.385292.447113 26.824623.310363 53.658989.410125 80.489388.006653 1.788482.000885 3.576996.000885 5.491989h11.877564c.057464-1.052963.141022-1.870667.141174-2.688416.006867-34.832397.143128-69.665756-.102722-104.496414-.05249-7.441284-.894623-14.997322-2.404999-22.286644-5.797577-27.980194-25.656433-45.608881-56.714264-46.501549 0 1.814583-.00003 3.622681-.00003 5.430779-.000031 38.498958.073944 76.998192-.070893 115.49662-.024932 6.628952-.582183 13.318817-1.640564 19.859665-.752777 4.652237-1.921295 9.906815-7.63507 11.198853-3.257935.736724-7.164521-4.097138-7.771942-11.393113-1.075501-12.918564-.776673-25.948745-1.757843-38.87873-1.016846-13.399651-1.635132-27.017716-4.607178-40.042946-6.895172-30.21814-25.352295-50.454321-55.936249-58.046278-23.646973-5.86997-47.33934-4.510362-70.452805 2.924431-24.750427 7.961347-39.826225 25.160348-44.943016 50.638273-1.657341 8.252311-2.023758 16.763885-3.014587 25.454407-7.080048.697402-14.458214 1.424163-22.275261 2.194168 0-10.524529.304321-20.68966-.076096-30.829087-.488975-13.032993-2.269157-25.87437-9.042869-37.429828-6.83297-11.656561-20.150181-17.518639-34.32267-15.189406-12.501305 2.054579-20.25111 9.828806-22.639006 24.400503-3.476878 21.216996.229574 41.380833 10.827622 60.169232 3.200788 5.674415 3.277105 5.63137 9.657499 2.143005-4.64072-10.31208-6.325951-21.224182-5.421982-32.522346.822792-10.283642 5.827091-16.720635 14.033123-18.197304 9.186306-1.653072 16.460766 2.196155 20.897679 11.536583 5.806121 12.222824 6.126426 25.316185 5.901939 38.858375-13.789478 2.318238-25.191227 8.848709-35.110455 18.064507-14.410921 13.388977-19.913816 29.992004-16.593761 49.249069 1.643534 9.532852 6.681133 17.20784 16.520676 20.076538 10.875705 3.170822 21.494705 2.923828 30.432655-5.362686 7.684418-7.124359 11.031143-16.569183 12.804573-26.484161 1.717423-9.601792 2.595665-19.353699 3.882614-29.35138 6.745949-.335159 13.658791-.678604 20.849289-1.035843.159714 2.50882.23793 4.3107.394516 6.105759 1.180687 13.534546 5.5523 25.738297 13.669365 36.853668 19.608467 26.851486 65.152657 28.73172 86.633415 17.219895 15.124817-8.105606 23.135361-23.396363 20.684052-39.836106-2.101151-14.091476-11.156418-23.44709-22.463867-30.913612-18.091889-11.946449-38.568299-16.741081-59.714325-19.192558-7.723053-.895348-15.526322-1.098961-23.98745-1.664566.678673-3.768074 1.018066-7.218079 1.940544-10.504395 4.09401-14.584785 15.166031-21.743446 28.638611-25.800346 22.749496-6.850384 45.999557-7.244171 69.258057-3.567929 15.075653 2.382859 28.880203 8.113125 38.896057 20.390141 9.514435 11.662414 12.131408 25.54525 12.486419 40.175857.314911 12.97754 1.069123 25.944443 1.768799 39.800461m542.809204 10.288285c2.223023-12.547165 4.446106-25.09433 6.792237-38.336258 6.00885-.296677 13.02716-.643189 20.217895-.998215.156983 2.659347.217163 4.474228.378235 6.280106 1.175476 13.177993 5.364807 25.152206 13.149902 36.029739 19.721924 27.556137 65.282227 29.315689 86.843567 17.989288 15.083924-7.923797 23.277161-22.997589 21.013855-39.633774-1.950256-14.335647-11.155151-23.78479-22.618652-31.332473-18.102112-11.918549-38.579102-16.693581-59.722351-19.128266-7.706543-.88742-15.491699-1.092102-23.836975-1.647972.630859-3.713684.911072-7.018074 1.774353-10.162391 4.003296-14.581368 14.929748-22.03331 28.413391-26.045601 23.217163-6.908673 46.884827-7.522007 70.677368-3.3583 14.967346 2.619305 28.39978 8.342026 38.184692 20.575303 9.294861 11.620521 12.02948 25.3498 12.082093 39.789154.08374 22.99356.022522 45.987655.022583 68.981536v4.613541h11.950195c0-27.458465.379761-54.610504-.188415-81.742714-.224793-10.736099-1.657715-21.638954-4.108887-32.098335-5.98645-25.544075-19.765442-45.37981-45.238709-54.909611-26.232727-9.813888-52.935974-8.963215-79.408203-1.104078-26.997742 8.015154-42.633789 26.552172-47.260376 54.234415-1.222534 7.31517-1.558471 14.778519-2.320556 22.363014-7.311707.710175-14.659913 1.423897-22.394593 2.175156 0-10.299294.262879-20.127892-.063965-29.936852-.445678-13.375149-2.166626-26.55273-9.133361-38.402103-6.849427-11.650007-20.418213-17.519479-34.356324-14.986471-12.907165 2.345647-20.403625 9.699056-22.662231 24.350725-3.266113 21.187538.480957 41.383331 10.982361 60.187774 3.186462 5.705887 3.261658 5.663888 9.543945 2.022614-4.359192-10.03064-6.557983-20.623192-5.227112-31.531692.580872-4.76075 1.967835-10.0971 4.80011-13.77837 7.447144-9.679593 22.948853-7.124054 29.133057 4.452613 6.746399 12.629147 6.947387 26.411732 6.824341 38.837788-9.089783 4.318138-17.701233 7.475876-25.326477 12.219055-17.763306 11.049393-27.334534 27.221367-27.508301 48.476799-.117615 14.392411 6.828735 25.211045 18.520508 28.926483 17.636108 5.604401 32.604553-2.940612 40.0708-23.371627m671.802857-138.160162c-11.103272 6.898676-19.047974 16.461805-24.123902 28.47759-4.876586 11.544235-6.498535 23.65992-6.707031 36.080651-.023926 1.42353-1.237427 3.938591-2.147583 4.058105-6.669678.87587-13.402832 1.269676-21.430664 1.922394 0-13.241722.470581-25.892105-.139526-38.490162-.551148-11.379265-3.289063-22.397282-9.953491-32.010544-7.080201-10.213116-20.837769-15.385735-33.627442-12.645714-12.550415 2.68878-19.545776 10.78442-21.700073 23.129536-3.775879 21.637291.113769 42.027428 10.654297 61.191734 3.176636 5.775383 3.295776 5.709839 9.676391 2.394409-4.370483-11.090301-6.779785-22.516944-5.015136-34.551849 1.405151-9.58358 6.075927-15.048981 14.182373-16.345383 8.68872-1.389537 15.697265 2.318016 19.973144 10.707856 6.035401 11.842216 6.42395 24.653656 6.015869 37.520759-.033325 1.05101-2.166137 2.343888-3.569458 2.99112-7.200073 3.320732-15.020507 5.619812-21.631347 9.833648-19.442505 12.392983-28.999512 30.258637-26.767578 53.631714 1.203125 12.598374 8.465332 21.246307 19.403076 23.845245 14.099487 3.350205 26.423828-.469635 32.730835-11.730148 3.986084-7.116562 6.73999-15.184936 8.592041-23.163986 2.004394-8.634659 2.317383-17.66185 3.41687-26.930054 6.876953-.373184 13.623657-.739303 20.599121-1.117828.429077 3.742813.737427 6.859634 1.150146 9.96257 2.723267 20.477951 11.879151 37.282745 30.139527 47.490891 20.178345 11.280365 41.974975 12.662094 63.726318 5.280716 20.865845-7.080796 31.448853-27.433808 25.686646-47.148682-3.469361-11.870056-11.776245-19.910607-21.794922-26.33667-18.062134-11.585312-38.243286-16.75354-59.329956-18.893593-7.713379-.782806-15.461792-1.219284-23.408081-1.830192-.190308-9.54358 2.766601-17.370026 8.928833-24.042092 6.46289-6.997726 14.801513-10.819774 23.723633-13.102325 24.768554-6.336575 49.803466-6.799359 74.63977-.833176 14.805664 3.556614 27.341797 11.275353 35.288574 24.994598 6.483643 11.193688 7.951782 23.543549 8.034424 36.117722.144409 21.993141.035156 43.987907.050781 65.982002.001221 1.76503.144532 3.529969.219117 5.236527h11.828857c0-25.055405.395264-49.707581-.167358-74.337853-.279908-12.252777-1.391114-24.647613-3.756226-36.657211-4.526611-22.986603-15.70105-41.987225-36.995606-53.62009-11.571044-6.32116-24.17749-9.428717-37.226074-10.359812-23.936767-1.708051-47.244629.407909-69.169189 13.297577m-957.697327 53.158727c-.359253 10.315979-.835815 20.629502-1.052795 30.948471-.422486 20.093308-8.466187 31.357697-27.73584 36.96048-16.980621 4.937241-34.26532 4.654083-51.280335.049057-21.784484-5.895935-31.945129-24.652763-24.540069-45.999565 2.960968-8.535774 7.828796-16.426147 12.001831-24.521011 4.40329-8.541428 10.010895-16.620781 13.20227-25.5756 2.354462-6.606537 2.815033-14.415505 2.068818-21.471886-1.033783-9.775808-8.771759-15.386488-20.51886-17.166157-10.253083-1.553329-21.387757 3.310229-25.819306 12.300686-9.992553 20.272175-7.820038 40.852738-.860534 61.772026 1.936706-.327331 3.475494-.58741 5.275238-.891593-.393708-2.390358-.836335-4.335267-1.016938-6.304207-.742645-8.096947-2.190185-16.306229 2.296814-23.869843 3.078308-5.189133 10.27237-7.308163 15.789643-4.840328 4.210235 1.883202 5.283294 5.947597 3.169952 12.639034-.646728 2.047753-1.483368 4.071739-2.508209 5.957016-3.013397 5.543358-6.177216 11.004723-9.259918 16.510605-8.651429 15.451897-14.780182 31.414856-13.055329 49.755333 2.320893 24.678253 16.715454 43.581116 40.43161 50.210251 8.544251 2.388275 17.649567 3.402725 26.549897 3.754791 19.929809.788345 36.839904-6.643204 50.072265-21.507355 10.910584-12.256057 14.293091-27.503723 15.260376-43.397873.717713-11.791748.494507-23.685478 1.940796-35.37915 3.32013-26.845222 23.091858-41.354801 49.677185-37.00301 16.401856 2.684834 24.367493 14.259907 29.170532 28.793202 5.096863 15.421982 5.071961 31.401725 5.242005 47.4151.166076 15.638138.659546 31.333343 6.479614 46.211304 2.808716 7.180023 7.040344 13.447143 15.531982 13.402282 8.334351-.044037 12.861756-6.246185 14.785767-13.426834 2.609192-9.738159 5.377747-19.746048 5.722107-29.719589 1.005676-29.126854.842834-58.294098 1.134033-87.445542.018128-1.814273.00232-3.628883.00232-5.688495 11.29663.975391 19.417297 6.336994 25.081787 15.548664 5.993164 9.746094 8.65802 20.647118 8.904785 31.836281.61322 27.810585.564514 55.635795.778686 83.455147.013794 1.793121.001831 3.586441.001831 5.312057h11.860596c.070007-.940552.159729-1.584381.159912-2.228241.007996-34.991486.140991-69.983742-.06311-104.974029-.070069-12.02192-1.952515-23.820698-6.538086-35.114129-8.586243-21.146448-29.832581-33.685334-52.756897-33.423621 0 1.968742.00293 3.944808-.000427 5.920862-.069458 40.988729-.022095 81.978391-.345215 122.965124-.044983 5.70288-1.4422 11.540146-3.161499 17.017593-.750611 2.39122-3.868103 5.547363-5.955017 5.580612-2.023621.032242-5.218262-3.156677-5.935242-5.525268-1.663757-5.496048-2.7724-11.32753-2.983459-17.064331-.618592-16.811554-.246033-33.665619-1.092896-50.461121-.933289-18.510269-4.122314-36.573898-12.638672-53.460041-16.654114-33.0217-63.364563-32.08349-80.018127-4.261868-8.427857 14.079686-11.790467 29.481636-13.455872 46.404709m1153.255798-21.689357c1.609131 15.295597 8.585694 27.660755 20.108765 37.613735 3.33728-2.080994 3.470215-4.313416 1.728027-7.317368-4.214477-7.26725-7.192504-14.940582-7.2052-23.561668-.018432-12.550968 6.837525-21.216007 18.435059-21.913243 13.922241-.836986 22.157104 4.831036 24.051269 18.150448.489869 3.444771 1.025025 6.980286.76587 10.415757-.712403 9.443443-2.157227 18.838668-2.663697 28.287727-.264038 4.927444-2.335327 5.626343-6.714721 6.111481-8.680054.961586-17.548829 2.055709-25.795655 4.755889-27.109008 8.875771-35.281128 36.444283-31.89624 58.732491 1.871094 12.320145 8.115845 18.645355 18.854981 20.167572 10.455444 1.48201 19.808959-1.255051 27.638183-8.535507 7.438843-6.917237 12.854248-15.247696 16.612549-24.625977 2.065918-5.155121 3.734497-10.46936 5.672485-15.967727 13.711548 6.89215 25.324585 16.014312 36.430298 25.846923 8.968506 7.940186 17.569214 16.342362 28.975586 20.944962 16.986816 6.854324 44.454834 4.865677 50.107422-23.278229 3.259644-16.229431 5.513794-32.797333 6.480102-49.314712 1.097901-18.763321.253174-37.640297.25293-56.467869 0-1.781143.000122-3.56229.000122-5.584988 9.192017.36089 16.022095 4.167954 21.354248 10.520043 9.721192 11.581085 12.392945 25.732864 12.696656 40.148071.557739 26.480614.249145 52.9795.300781 79.470756.003784 1.920136.000366 3.840271.000366 5.672272h12.234497c.08606-1.303451.206787-2.282486.207031-3.261566.009644-34.32283.173218-68.646873-.081054-102.967819-.089966-12.156899-1.837525-24.141087-6.42273-35.626389-8.492187-21.271928-29.266968-33.911397-53.058349-33.987242 0 1.79608.000854 3.604674-.000122 5.413268-.019288 33.989521.208007 67.982231-.23108 101.966324-.110229 8.53395-1.577392 17.251815-3.812378 25.508529-3.158569 11.668366-10.899169 15.619965-21.726196 10.256363-10.475586-5.18959-20.411499-11.842773-29.664306-19.036453-13.049561-10.145111-25.888306-20.433518-41.454468-26.502915-6.977173-2.720535-6.819947-2.468154-5.718384-9.5951 2.870361-18.571571 5.753906-37.115311 3.650269-56.07349-2.632691-23.725311-16.933228-35.7739-40.574585-33.529324-15.358399 1.458158-25.446412 9.899557-28.33545 24.982415-1.325317 6.919807-.890991 14.176666-1.202881 22.18256z" fill="#fff"/><path d="m1615.153809 527.143677c-18.787232 18.871643-41.843506 23.572693-66.866333 21.298462-13.491211-1.226075-26.064698-5.605713-36.212769-15.0849-29.099487-27.18161-28.644531-86.907685 22.65332-106.200287 15.740845-5.920014 32.055298-8.421295 48.63147-10.239807 11.378418-1.248322 22.726563-3.052429 33.95752-5.270233 7.97644-1.575135 8.68042-3.12143 8.680542-11.272339.000366-21.83252.049072-43.665222-.021607-65.497528-.033691-10.394745-1.423218-20.572266-5.769653-30.162415-7.230103-15.952606-20.292481-25.130951-36.604859-29.124115-26.294067-6.436645-52.77771-6.157135-78.858032 1.611847-5.318481 1.58429-10.466186 4.38739-15.091675 7.516907-9.519531 6.440643-14.031616 15.855133-14.238647 28.56488 3.986328.237305 8.036621.438111 12.08081.725861 21.872071 1.556366 43.365113 4.959961 62.952271 15.474579 6.524536 3.502441 12.836426 7.876861 18.221069 12.941864 20.095581 18.902526 16.222657 48.898864-7.978759 62.249084-23.633301 13.036804-72.173096 9.612824-90.76587-22.253448-5.822509-9.979035-9.235229-20.55716-9.942016-32.050385-.081665-1.328583-.177002-2.657318-.317017-3.98056-.03186-.301026-.276001-.579621-.802246-1.617859-6.553467.360199-13.436035.738495-19.984863 1.09845-1.349487 10.232299-2.254028 19.98172-4.006958 29.57611-1.779907 9.741608-5.097168 19.008484-12.64978 26.042176-8.907715 8.295685-19.388794 8.765777-30.35315 5.567444-10.109497-2.948914-15.135132-10.654877-16.797607-20.409394-3.146363-18.460968 1.831299-34.637298 15.332397-47.80429 9.192993-8.965546 19.750366-15.839234 32.549561-18.464417 3.123779-.640717 4.059448-1.910919 3.97644-4.985016-.338013-12.518341-.762451-25.03244-6.921509-36.376678-6.375488-11.742829-21.519287-14.187622-29.11438-4.304932-2.828125 3.679871-4.182128 9.038178-4.740722 13.803131-1.156494 9.867462.510864 19.562988 4.2677 28.835449.362061.89386.481201 1.886231.70166 2.78592-6.015014 3.190521-6.282471 3.196075-9.390747-2.268158-10.681641-18.776703-14.061401-38.980896-10.993774-60.21106 1.827514-12.647278 8.419922-21.713196 21.696655-24.119812 13.670166-2.477905 25.562866.736832 33.908936 12.629028 8.072143 11.501831 9.939453 24.878937 10.583984 38.436341.419067 8.81488.162231 17.661956.2052 26.494629.007813 1.617034.000977 3.23413.000977 5.322631 7.928833-.728942 15.161132-1.393798 22.01062-2.023498 1.109009-9.214752 1.483154-18.071716 3.328003-26.610962 6.424438-29.739563 26.145385-46.230942 54.92395-52.546066 24.340088-5.341248 48.665771-5.16536 72.19873 4.103378 20.837403 8.20694 34.026001 23.883118 41.332398 44.72171 5.058594 14.427277 7.035034 29.407257 7.05603 44.637726.057983 42.165039.165405 84.330902-.041626 126.495026-.104004 21.180053-3.300781 41.806701-14.265747 60.456817-2.344116 3.987122-5.491699 7.501831-8.519897 11.488709m1.902343-44.67157c10.463135-18.341034 8.926148-38.426056 8.849732-58.292542-.694092-.122802-1.032105-.268646-1.343994-.225586-19.587159 2.703705-39.22168 5.11438-58.740113 8.247712-13.273193 2.130737-26.610229 4.596161-38.179931 12.248108-12.247071 8.099945-16.799439 19.782836-15.300049 33.994751 1.583252 15.004821 10.214722 24.799499 24.57312 27.891296 10.431885 2.246338 21.492432 3.039154 32.155395 2.429321 19.532349-1.117065 36.709351-7.919464 47.98584-26.29306m-134.97229-106.109619c2.178589 2.92102 4.058838 6.134765 6.587891 8.711883 10.394897 10.592713 23.604126 14.872223 37.969482 14.648468 7.96814-.124145 16.367066-1.328582 23.743164-4.185547 11.948243-4.628021 13.535889-18.493896 3.932496-27.023376-1.97107-1.750702-4.138062-3.364258-6.432374-4.654114-16.33789-9.185821-34.328369-13.028839-52.58496-15.812744-6.945191-1.059021-13.994873-1.432709-21.299073-2.148376.150757 11.19281 2.282837 20.933624 8.083374 30.463806m-61.425903 4.657806c3.456177-10.343567 5.438232-20.899231 5.225952-31.812927-.970093-.084015-1.313232-.187836-1.625122-.128388-1.625.309662-3.262451.58371-4.858398 1.009552-15.239991 4.066285-26.393067 12.360383-29.076416 28.937806-.903199 5.57959-.200562 11.297455 4.572021 14.970977 4.79126 3.68805 10.886841 3.536255 15.372559.102326 4.103271-3.141144 6.752075-8.182556 10.389404-13.079346z" fill="#f2aa3d"/><path d="m275.744995 157.343475c-.629974-13.413803-1.384186-26.380706-1.699097-39.358246-.355011-14.630607-2.971984-28.513443-12.486419-40.175857-10.015854-12.277016-23.820404-18.007282-38.896057-20.390141-23.2585-3.676242-46.508561-3.282455-69.258057 3.567929-13.47258 4.0569-24.544601 11.215561-28.638611 25.800346-.922478 3.286316-1.261871 6.736321-1.940544 10.504395 8.461128.565605 16.264397.769218 23.98745 1.664566 21.146026 2.451477 41.622436 7.246109 59.714325 19.192558 11.307449 7.466522 20.362716 16.822136 22.463867 30.913612 2.451309 16.439743-5.559235 31.7305-20.684052 39.836106-21.480758 11.511825-67.024948 9.631591-86.633415-17.219895-8.117065-11.115371-12.488678-23.319122-13.669365-36.853668-.156586-1.795059-.234802-3.596939-.394516-6.105759-7.190498.357239-14.10334.700684-20.849289 1.035843-1.286949 9.997681-2.165191 19.749588-3.882614 29.35138-1.77343 9.914978-5.120155 19.359802-12.804573 26.484161-8.93795 8.286514-19.55695 8.533508-30.432655 5.362686-9.839543-2.868698-14.877142-10.543686-16.520676-20.076538-3.320055-19.257065 2.18284-35.860092 16.593761-49.249069 9.919228-9.215798 21.320977-15.746269 35.110455-18.064507.224487-13.54219-.095818-26.635551-5.901939-38.858375-4.436913-9.340428-11.711373-13.189655-20.897679-11.536583-8.206032 1.476669-13.210331 7.913662-14.033123 18.197304-.903969 11.298164.781262 22.210266 5.421982 32.522346-6.380394 3.488365-6.456711 3.53141-9.657499-2.143005-10.598048-18.788399-14.3045-38.952236-10.827622-60.169232 2.387896-14.571697 10.137701-22.345924 22.639006-24.400503 14.172489-2.329233 27.4897 3.532845 34.32267 15.189406 6.773712 11.555458 8.553894 24.396835 9.042869 37.429828.380417 10.139427.076096 20.304558.076096 30.829087 7.817047-.770005 15.195213-1.496766 22.275261-2.194168.990829-8.690522 1.357246-17.202096 3.014587-25.454407 5.116791-25.477925 20.192589-42.676926 44.943016-50.638273 23.113465-7.434793 46.805832-8.794401 70.452805-2.924431 30.583954 7.591957 49.041077 27.828138 55.936249 58.046278 2.972046 13.02523 3.590332 26.643295 4.607178 40.042946.98117 12.929985.682342 25.960166 1.757843 38.87873.607421 7.295975 4.514007 12.129837 7.771942 11.393113 5.713775-1.292038 6.882293-6.546616 7.63507-11.198853 1.058381-6.540848 1.615632-13.230713 1.640564-19.859665.144837-38.498428.070862-76.997662.070893-115.49662 0-1.808098.00003-3.616196.00003-5.430779 31.057831.892668 50.916687 18.521355 56.714264 46.501549 1.510376 7.289322 2.352509 14.84536 2.404999 22.286644.24585 34.830658.109589 69.664017.102722 104.496414-.000152.817749-.08371 1.635453-.141174 2.688416-3.899811 0-7.638519 0-11.877564 0 0-1.914993.005768-3.703507-.000885-5.491989-.099762-26.830399.036988-53.664765-.410125-80.489388-.200837-12.049782-2.607605-23.832191-8.967774-34.385292-5.574554-9.249546-13.62912-14.776764-25.25946-15.851726 0 1.964027.011749 3.716484-.00177 5.468742-.222351 28.8279-.16742 57.662357-.844696 86.479603-.201233 8.562103-2.364136 17.092804-3.841309 25.600876-.419983 2.418975-1.408691 4.792083-2.451935 7.039871-2.929596 6.312332-6.986816 11.782257-14.660492 11.726471-7.397857-.053772-11.995788-5.104325-14.225036-11.49141-2.553253-7.315185-3.944245-15.03601-5.909882-23.022827m-115.423935-22.248016c-12.580017-1.966248-25.160019-3.93251-38.439033-6.008026.609253 19.755981 6.19738 35.869736 22.39077 46.091919 17.699585 11.173004 36.971374 12.035568 55.823181 3.566681 10.702011-4.807663 11.469223-18.498703 2.478424-26.181031-3.492539-2.984222-7.472992-5.80249-11.717606-7.419632-9.74559-3.712966-19.790039-6.641525-30.535736-10.049911m-117.025348 43.417786c8.616592 4.05841 17.87125 1.172577 22.517673-7.40799 6.406097-11.830185 7.721001-24.814178 8.409615-38.422882-13.255158 2.438568-24.864689 6.537628-31.924054 18.503296-5.855392 9.924911-5.692115 19.914246.996766 27.327576z" fill="#030303"/><path d="m1319.067505 215.986664c-.066162-32.155045-.074951-64.310349-.22876-96.464974-.056152-11.738151-1.639038-23.238487-7.253174-33.798607-7.714477-14.510757-20.484253-22.660343-35.847046-26.420974-25.87976-6.33498-51.870971-5.631668-77.494262 1.696239-13.546997 3.874249-24.509034 11.261326-28.708496 25.752835-.953125 3.288971-1.220337 6.776695-1.868287 10.551971 8.360596.556496 16.151368.749893 23.859498 1.65065 20.96289 2.449692 41.276977 7.131561 59.291503 18.899109 10.12439 6.613495 18.630127 14.675224 22.010743 26.747856 4.888794 17.457962-3.041993 35.349701-19.640259 44.253433-21.45752 11.510376-66.932495 9.973023-86.986817-17.483856-7.786865-10.661301-12.030517-22.460815-13.282104-35.471649-.206299-2.144638-.342041-4.296082-.567383-7.173813-7.110473.349869-14.003784.689056-20.853393 1.026093-1.177857 9.566162-1.808106 18.859832-3.609497 27.920715-1.311036 6.595062-3.422608 13.26622-6.488038 19.229751-6.999633 13.617981-19.599731 18.511796-35.065185 14.60141-11.927002-3.015686-19.220947-13.472091-19.431397-28.06755-.310058-21.51619 9.216675-37.895302 27.084473-49.189934 6.622681-4.18634 14.264038-6.900116 21.685669-9.616905 3.078735-1.126976 4.125854-2.237664 4.054199-5.448059-.275879-12.365128-.764648-24.677468-6.743652-35.918728-3.737305-7.026833-9.435791-10.943703-17.778687-10.319042-7.848266.587638-13.039306 4.421283-15.12854 12.17617-3.140625 11.657478-1.416748 23.09063 2.343506 34.329445.521118 1.557655 1.141602 3.082031 1.874634 5.046615-2.334961.762383-4.452026 1.453637-6.833008 2.23111-13.389526-21.578125-18.406372-44.568706-12.958008-69.030785 3.939453-17.686725 18.916016-23.06216 35.23877-20.125997 12.257812 2.204937 19.795898 10.229311 24.259277 21.439855 4.309937 10.824601 5.623779 22.22194 5.899903 33.741654.21936 9.148651.044189 18.306763.044189 27.857544 7.689087-.753616 15.037353-1.473824 22.277588-2.183449.833374-7.98748 1.186035-15.786781 2.525513-23.412773 4.835693-27.529701 20.92041-45.49851 47.60559-53.420229 24.809937-7.365008 50.008423-8.038811 74.797486-.193441 26.357055 8.341558 42.106567 27.398021 48.486572 53.687851 3.112061 12.824455 4.744385 26.267105 5.014038 39.471427.683472 33.47992.218872 66.983277-.30603 100.932755-4.107056.469101-7.694092.482696-11.281128.496277m-88.42749-73.169159c-20.42627-7.981049-41.662354-11.747482-63.529175-12.782669-.390381 48.200073 44.370117 62.518616 76.751953 49.399109 11.204224-4.539383 12.927734-18.960419 3.626343-26.662552-4.780152-3.958222-10.70459-6.534439-16.849121-9.953888m-124.131348-6.960709c-2.111938.950318-4.292847 1.77298-6.324097 2.872299-10.820923 5.856568-16.664184 14.998902-17.181518 27.261017-.223511 5.295929.901733 10.53978 6.32019 13.122361 5.398194 2.572952 10.884888 1.555679 15.584473-1.733735 2.474487-1.731948 4.560425-4.425857 6.028808-7.117981 6.297486-11.546356 7.220826-24.307144 8.236817-37.879501-4.375488 1.176697-8.149658 2.191712-12.664673 3.47554z" fill="#030303"/><path d="m818.445801 168.423859c-7.288147 20.081131-22.256592 28.626144-39.8927 23.021743-11.691773-3.715438-18.638123-14.534072-18.520508-28.926483.173767-21.255432 9.744995-37.427406 27.508301-48.476799 7.625244-4.743179 16.236694-7.900917 25.326477-12.219055.123046-12.426056-.077942-26.208641-6.824341-38.837788-6.184204-11.576667-21.685913-14.132206-29.133057-4.452613-2.832275 3.68127-4.219238 9.01762-4.80011 13.77837-1.330871 10.9085.86792 21.501052 5.227112 31.531692-6.282287 3.641274-6.357483 3.683273-9.543945-2.022614-10.501404-18.804443-14.248474-39.000236-10.982361-60.187774 2.258606-14.651669 9.755066-22.005078 22.662231-24.350725 13.938111-2.533008 27.506897 3.336464 34.356324 14.986471 6.966735 11.849373 8.687683 25.026954 9.133361 38.402103.326844 9.80896.063965 19.637558.063965 29.936852 7.73468-.751259 15.082886-1.464981 22.394593-2.175156.762085-7.584495 1.098022-15.047844 2.320556-22.363014 4.626587-27.682243 20.262634-46.219261 47.260376-54.234415 26.472229-7.859137 53.175476-8.70981 79.408203 1.104078 25.473267 9.529801 39.252259 29.365536 45.238709 54.909611 2.451172 10.459381 3.884094 21.362236 4.108887 32.098335.568176 27.13221.188415 54.284249.188415 81.742714-3.835876 0-7.577148 0-11.950195 0 0-1.428604 0-3.021072 0-4.613541-.000061-22.993881.061157-45.987976-.022583-68.981536-.052613-14.439354-2.787232-28.168633-12.082093-39.789154-9.784912-12.233277-23.217346-17.955998-38.184692-20.575303-23.792541-4.163707-47.460205-3.550373-70.677368 3.3583-13.483643 4.012291-24.410095 11.464233-28.413391 26.045601-.863281 3.144317-1.143494 6.448707-1.774353 10.162391 8.345276.55587 16.130432.760552 23.836975 1.647972 21.143249 2.434685 41.620239 7.209717 59.722351 19.128266 11.463501 7.547683 20.668396 16.996826 22.618652 31.332473 2.263306 16.636185-5.929931 31.709977-21.013855 39.633774-21.56134 11.326401-67.121643 9.566849-86.843567-17.989288-7.785095-10.877533-11.974426-22.851746-13.149902-36.029739-.161072-1.805878-.221252-3.620759-.378235-6.280106-7.190735.355026-14.209045.701538-20.217895.998215-2.346131 13.241928-4.569214 25.789093-6.970337 38.686142m43.667541-21.297104c11.058899 37.032074 47.315613 41.407425 72.382752 33.581009 6.802673-2.123932 10.999573-7.188736 12.022033-14.509888.920289-6.589417-2.501342-11.169754-7.265808-14.84375-3.129028-2.412933-6.490051-4.94043-10.164245-6.155411-12.551758-4.150558-25.147522-8.341903-37.998841-11.356537-10.038879-2.354873-20.482421-2.984665-31.792114-4.5233 1.043274 6.588715 1.867554 11.794312 2.816223 17.807877m-81.728027 3.896393c-1.399353 4.055816-3.180176 8.02658-4.10791 12.187545-1.363159 6.113984 1.383056 13.146332 5.471741 15.580155 4.575561 2.723648 12.604064 1.908798 17.31665-2.030106 1.753296-1.465454 3.397705-3.28627 4.495178-5.274399 6.598633-11.953949 7.960083-25.073364 8.651306-38.448623-13.295837.966354-25.110534 7.609039-31.826965 17.985428z" fill="#020202"/><path d="m1490.73999 29.726671c21.611328-12.702526 44.91919-14.818486 68.855957-13.110435 13.048584.931095 25.65503 4.038652 37.226074 10.359812 21.294556 11.632865 32.468995 30.633487 36.995606 53.62009 2.365112 12.009598 3.476318 24.404434 3.756226 36.657211.562622 24.630272.167358 49.282448.167358 74.337853-3.967651 0-7.6698 0-11.828857 0-.074585-1.706558-.217896-3.471497-.219117-5.236527-.015625-21.994095.093628-43.988861-.050781-65.982002-.082642-12.574173-1.550781-24.924034-8.034424-36.117722-7.946777-13.719245-20.48291-21.437984-35.288574-24.994598-24.836304-5.966183-49.871216-5.503399-74.63977.833176-8.92212 2.282551-17.260743 6.104599-23.723633 13.102325-6.162232 6.672066-9.119141 14.498512-8.928833 24.042092 7.946289.610908 15.694702 1.047386 23.408081 1.830192 21.08667 2.140053 41.267822 7.308281 59.329956 18.893593 10.018677 6.426063 18.325561 14.466614 21.794922 26.33667 5.762207 19.714874-4.820801 40.067886-25.686646 47.148682-21.751343 7.381378-43.547973 5.999649-63.726318-5.280716-18.260376-10.208146-27.41626-27.01294-30.139527-47.490891-.412719-3.102936-.721069-6.219757-1.150146-9.96257-6.975464.378525-13.722168.744644-20.599121 1.117828-1.099487 9.268204-1.412476 18.295395-3.41687 26.930054-1.852051 7.97905-4.605957 16.047424-8.592041 23.163986-6.307007 11.260513-18.631348 15.080353-32.730835 11.730148-10.937744-2.598938-18.199951-11.246871-19.403076-23.845245-2.231934-23.373077 7.325073-41.238731 26.767578-53.631714 6.61084-4.213836 14.431274-6.512916 21.631347-9.833648 1.403321-.647232 3.536133-1.94011 3.569458-2.99112.408081-12.867103.019532-25.678543-6.015869-37.520759-4.275879-8.38984-11.284424-12.097393-19.973144-10.707856-8.106446 1.296402-12.777222 6.761803-14.182373 16.345383-1.764649 12.034905.644653 23.461548 5.015136 34.551849-6.380615 3.31543-6.499755 3.380974-9.676391-2.394409-10.540528-19.164306-14.430176-39.554443-10.654297-61.191734 2.154297-12.345116 9.149658-20.440756 21.700073-23.129536 12.789673-2.740021 26.547241 2.432598 33.627442 12.645714 6.664428 9.613262 9.402343 20.631279 9.953491 32.010544.610107 12.598057.139526 25.24844.139526 38.490162 8.027832-.652718 14.760986-1.046524 21.430664-1.922394.910156-.119514 2.123657-2.634575 2.147583-4.058105.208496-12.420731 1.830445-24.536416 6.707031-36.080651 5.075928-12.015785 13.02063-21.578914 24.437134-28.664732m55.702881 117.264067c-22.813476-11.372803-47.263794-15.422165-72.853882-16.995194.331421 4.451874.210083 8.158661.932495 11.6931 6.599366 32.293351 31.761353 44.759552 60.423951 41.686478 5.654052-.606201 11.56958-2.013931 16.594238-4.567505 10.185058-5.176086 11.606201-17.490463 3.449463-25.462677-2.347168-2.29422-5.254029-4.015793-8.546265-6.354202m-129.978027-12.14241c-1.572876.532348-3.189331.962478-4.71167 1.612884-14.599487 6.237381-22.725586 17.908142-21.859619 31.322907.664428 10.294586 8.148681 15.432968 17.689331 11.434662 3.589843-1.504456 7.307007-4.402771 9.315307-7.677903 7.165161-11.685562 7.939453-25.043365 9.03833-38.897217-3.291626.732575-5.999389 1.335221-9.471679 2.204667z" fill="#c67135"/><path d="m532.780212 82.616089c1.614624-16.466622 4.977234-31.868572 13.405091-45.948258 16.653564-27.821622 63.364013-28.759832 80.018127 4.261868 8.516358 16.886143 11.705383 34.949772 12.638672 53.460041.846863 16.795502.474304 33.649567 1.092896 50.461121.211059 5.736801 1.319702 11.568283 2.983459 17.064331.71698 2.368591 3.911621 5.55751 5.935242 5.525268 2.086914-.033249 5.204406-3.189392 5.955017-5.580612 1.719299-5.477447 3.116516-11.314713 3.161499-17.017593.32312-40.986733.275757-81.976395.345215-122.965124.003357-1.976054.000427-3.95212.000427-5.920862 22.924316-.261713 44.170654 12.277173 52.756897 33.423621 4.585571 11.293431 6.468017 23.092209 6.538086 35.114129.204101 34.990287.071106 69.982543.06311 104.974029-.000183.64386-.089905 1.287689-.159912 2.228241-3.883972 0-7.634399 0-11.860596 0 0-1.725616.011963-3.518936-.001831-5.312057-.214172-27.819352-.165466-55.644562-.778686-83.455147-.246765-11.189163-2.911621-22.090187-8.904785-31.836281-5.66449-9.21167-13.785157-14.573273-25.081787-15.548664 0 2.059612.015808 3.874222-.00232 5.688495-.291199 29.151444-.128357 58.318688-1.134033 87.445542-.34436 9.973541-3.112915 19.98143-5.722107 29.719589-1.924011 7.180649-6.451416 13.382797-14.785767 13.426834-8.491638.044861-12.723266-6.222259-15.531982-13.402282-5.820068-14.877961-6.313538-30.573166-6.479614-46.211304-.170044-16.013375-.145142-31.993118-5.242005-47.4151-4.803039-14.533295-12.768676-26.108368-29.170532-28.793202-26.585327-4.351791-46.357055 10.157788-49.677185 37.00301-1.446289 11.693672-1.223083 23.587402-1.940796 35.37915-.967285 15.89415-4.349792 31.141816-15.260376 43.397873-13.232361 14.864151-30.142456 22.2957-50.072265 21.507355-8.90033-.352066-18.005646-1.366516-26.549897-3.754791-23.716156-6.629135-38.110717-25.531998-40.43161-50.210251-1.724853-18.340477 4.4039-34.303436 13.055329-49.755333 3.082702-5.505882 6.246521-10.967247 9.259918-16.510605 1.024841-1.885277 1.861481-3.909263 2.508209-5.957016 2.113342-6.691437 1.040283-10.755832-3.169952-12.639034-5.517273-2.467835-12.711335-.348805-15.789643 4.840328-4.486999 7.563614-3.039459 15.772896-2.296814 23.869843.180603 1.96894.62323 3.913849 1.016938 6.304207-1.799744.304183-3.338532.564262-5.275238.891593-6.959504-20.919288-9.132019-41.499851.860534-61.772026 4.431549-8.990457 15.566223-13.854015 25.819306-12.300686 11.747101 1.779669 19.485077 7.390349 20.51886 17.166157.746215 7.056381.285644 14.865349-2.068818 21.471886-3.191375 8.954819-8.79898 17.034172-13.20227 25.5756-4.173035 8.094864-9.040863 15.985237-12.001831 24.521011-7.40506 21.346802 2.755585 40.10363 24.540069 45.999565 17.015015 4.605026 34.299714 4.888184 51.280335-.049057 19.269653-5.602783 27.313354-16.867172 27.73584-36.96048.21698-10.318969.693542-20.632492 1.103576-31.404922z" fill="#040404"/><path d="m1685.959351 60.93224c.337768-7.554951-.096558-14.81181 1.228759-21.731617 2.889038-15.082858 12.977051-23.524257 28.33545-24.982415 23.641357-2.244576 37.941894 9.804013 40.574585 33.529324 2.103637 18.958179-.779908 37.501919-3.650269 56.07349-1.101563 7.126946-1.258789 6.874565 5.718384 9.5951 15.566162 6.069397 28.404907 16.357804 41.454468 26.502915 9.252807 7.19368 19.18872 13.846863 29.664306 19.036453 10.827027 5.363602 18.567627 1.412003 21.726196-10.256363 2.234986-8.256714 3.702149-16.974579 3.812378-25.508529.439087-33.984093.211792-67.976803.23108-101.966324.000976-1.808594.000122-3.617188.000122-5.413268 23.791381.075845 44.566162 12.715314 53.058349 33.987242 4.585205 11.485302 6.332764 23.46949 6.42273 35.626389.254272 34.320946.090698 68.644989.081054 102.967819-.000244.97908-.120971 1.958115-.207031 3.261566-3.941284 0-7.687744 0-12.234497 0 0-1.832001.003418-3.752136-.000366-5.672272-.051636-26.491256.256958-52.990142-.300781-79.470756-.303711-14.415207-2.975464-28.566986-12.696656-40.148071-5.332153-6.352089-12.162231-10.159153-21.354248-10.520043 0 2.022698-.000122 3.803845-.000122 5.584988.000244 18.827572.844971 37.704548-.25293 56.467869-.966308 16.517379-3.220458 33.085281-6.480102 49.314712-5.652588 28.143906-33.120606 30.132553-50.107422 23.278229-11.406372-4.6026-20.00708-13.004776-28.975586-20.944962-11.105713-9.832611-22.71875-18.954773-36.430298-25.846923-1.937988 5.498367-3.606567 10.812606-5.672485 15.967727-3.758301 9.378281-9.173706 17.70874-16.612549 24.625977-7.829224 7.280456-17.182739 10.017517-27.638183 8.535507-10.739136-1.522217-16.983887-7.847427-18.854981-20.167572-3.384888-22.288208 4.787232-49.85672 31.89624-58.732491 8.246826-2.70018 17.115601-3.794303 25.795655-4.755889 4.379394-.485138 6.450683-1.184037 6.714721-6.111481.50647-9.449059 1.951294-18.844284 2.663697-28.287727.259155-3.435471-.276001-6.970986-.76587-10.415757-1.894165-13.319412-10.129028-18.987434-24.051269-18.150448-11.597534.697236-18.453491 9.362275-18.435059 21.913243.012696 8.621086 2.990723 16.294418 7.2052 23.561668 1.742188 3.003952 1.609253 5.236374-1.728027 7.317368-11.523071-9.95298-18.499634-22.318138-20.134643-38.064678m4.790649 99.589794c-.244263 2.799865-.845215 5.623016-.664185 8.39508.488404 7.47992 5.005127 12.025055 11.4823 11.713837 7.324219-.351944 13.47168-3.244293 18.077393-9.083603 6.926636-8.782181 10.678345-18.99913 13.322632-29.702133.095947-.388199-.263306-.888825-.390869-1.277283-19.863282-4.666031-35.675904 2.644959-41.827271 19.954102z" fill="#f2aa3d"/><path d="m1318.987671 216.449646c3.66687-.476563 7.253906-.490158 11.280273-.499847.579224 30.48941.859986 60.975219.79834 91.460327-.030029 14.812164-.070801 29.673736-1.256714 44.42044-1.219116 15.160859-6.047851 29.273468-16.691406 40.826142-17.506103 19.001465-61.564331 25.600006-84.788208-5.651856-6.867065-9.240905-12.024048-19.85498-17.205566-30.21933-5.940796-11.882904-10.696167-24.35617-16.578369-36.270935-9.432129-19.104889-25.640748-27.158172-46.426392-26.80133-11.86731.203766-23.167969 2.692016-32.861694 10.024963-11.232789 8.497009-15.318604 20.555695-16.244507 33.989594-1.71167 24.837158 8.032715 44.326599 27.875244 59.016296 1.597412 1.182526 3.176636 2.389557 5.067993 3.813995-1.273193 3.052521-2.52356 6.05011-3.932983 9.428956-35.152588-13.990601-61.553833-38.230957-84.763794-67.465149 2.73584-2.946045 5.39331-5.80777 7.765747-8.362427 11.816162 11.140442 23.419311 22.080109 35.424804 33.247681.654786.199584.907227.171356 1.15979.143096-.192382-.192749-.384643-.385528-.577026-.578277-4.309326-12.72702-6.226807-25.825012-5.920288-39.238403.284058-12.435822 2.412109-24.502045 7.965698-35.759461 12.746094-25.836761 35.821533-37.262573 64.292725-32.65097 20.724243 3.356781 34.74707 14.545166 43.167724 33.589386 6.653077 15.046783 13.329712 30.126739 20.984253 44.671814 5.165284 9.81491 11.356812 19.58609 21.845948 24.710876 17.750732 8.672791 36.275512 9.735718 54.628784 2.285523 13.950317-5.662903 20.224853-17.819489 22.833252-31.85672 1.329956-7.158173 1.904297-14.546784 1.954468-21.83722.21582-31.323517.110473-62.649246.201904-94.437164z" fill="#c67035"/><path d="m1616.877808 482.790649c-11.098145 18.055054-28.275147 24.857453-47.807496 25.974518-10.662963.609833-21.72351-.182983-32.155395-2.429321-14.358398-3.091797-22.989868-12.886475-24.57312-27.891296-1.49939-14.211915 3.052978-25.894806 15.300049-33.994751 11.569702-7.651947 24.906738-10.117371 38.179931-12.248108 19.518433-3.133332 39.152954-5.544007 58.740113-8.247712.311889-.04306.649902.102784 1.343994.225586.076416 19.866486 1.613403 39.951508-9.028076 58.611084z" fill="#fffffe"/><path d="m1481.91333 376.036804c-5.630005-9.204498-7.762085-18.945312-7.912842-30.138122 7.3042.715667 14.353882 1.089355 21.299073 2.148376 18.256591 2.783905 36.24707 6.626923 52.58496 15.812744 2.294312 1.289856 4.461304 2.903412 6.432374 4.654114 9.603393 8.52948 8.015747 22.395355-3.932496 27.023376-7.376098 2.856965-15.775024 4.061402-23.743164 4.185547-14.365356.223755-27.574585-4.055755-37.969482-14.648468-2.529053-2.577118-4.409302-5.790863-6.758423-9.037567z" fill="#fffefe"/><path d="m1420.484131 381.366699c-3.463501 4.550385-6.112305 9.591797-10.215576 12.732941-4.485718 3.433929-10.581299 3.585724-15.372559-.102326-4.772583-3.673522-5.47522-9.391387-4.572021-14.970977 2.683349-16.577423 13.836425-24.871521 29.076416-28.937806 1.595947-.425842 3.233398-.69989 4.858398-1.009552.31189-.059448.655029.044373 1.625122.128388.21228 10.913696-1.769775 21.46936-5.39978 32.159332z" fill="#fffefd"/><path d="m160.732346 135.176178c10.334411 3.327667 20.37886 6.256226 30.12445 9.969192 4.244614 1.617142 8.225067 4.43541 11.717606 7.419632 8.990799 7.682328 8.223587 21.373368-2.478424 26.181031-18.851807 8.468887-38.123596 7.606323-55.823181-3.566681-16.19339-10.222183-21.781517-26.335938-22.39077-46.091919 13.279014 2.075516 25.859016 4.041778 38.850319 6.088745z" fill="#fdfdfd"/><path d="m42.974743 178.281372c-6.367912-7.181457-6.531189-17.170792-.675797-27.095703 7.059365-11.965668 18.668896-16.064728 31.924054-18.503296-.688614 13.608704-2.003518 26.592697-8.409615 38.422882-4.646423 8.580567-13.901081 11.4664-22.838642 7.176117z" fill="#fcfcfc"/><path d="m1231.008545 142.926865c5.776001 3.310089 11.700439 5.886306 16.480591 9.844528 9.301391 7.702133 7.577881 22.123169-3.626343 26.662552-32.381836 13.119507-77.142334-1.199036-76.751953-49.399109 21.866821 1.035187 43.102905 4.80162 63.897705 12.892029z" fill="#fdfdfd"/><path d="m1106.879028 135.722382c4.144654-1.149414 7.918824-2.164429 12.294312-3.341126-1.015991 13.572357-1.939331 26.333145-8.236817 37.879501-1.468383 2.692124-3.554321 5.386033-6.028808 7.117981-4.699585 3.289414-10.186279 4.306687-15.584473 1.733735-5.418457-2.582581-6.543701-7.826432-6.32019-13.122361.517334-12.262115 6.360595-21.404449 17.181518-27.261017 2.03125-1.099319 4.212159-1.921981 6.694458-3.006713z" fill="#fcfcfc"/><path d="m862.051147 146.722763c-.886474-5.609573-1.710754-10.81517-2.754028-17.403885 11.309693 1.538635 21.753235 2.168427 31.792114 4.5233 12.851319 3.014634 25.447083 7.205979 37.998841 11.356537 3.674194 1.214981 7.035217 3.742478 10.164245 6.155411 4.764466 3.673996 8.186097 8.254333 7.265808 14.84375-1.02246 7.321152-5.21936 12.385956-12.022033 14.509888-25.067139 7.826416-61.323853 3.451065-72.444947-33.985001z" fill="#fdfdfd"/><path d="m780.616333 150.732132c6.485413-10.085373 18.30011-16.728058 31.595947-17.694412-.691223 13.375259-2.052673 26.494674-8.651306 38.448623-1.097473 1.988129-2.741882 3.808945-4.495178 5.274399-4.712586 3.938904-12.741089 4.753754-17.31665 2.030106-4.088685-2.433823-6.8349-9.466171-5.471741-15.580155.927734-4.160965 2.708557-8.131729 4.338928-12.478561z" fill="#fcfcfc"/><path d="m1546.763916 147.167877c2.971191 2.16127 5.878052 3.882843 8.22522 6.177063 8.156738 7.972214 6.735595 20.286591-3.449463 25.462677-5.024658 2.553574-10.940186 3.961304-16.594238 4.567505-28.662598 3.073074-53.824585-9.393127-60.423951-41.686478-.722412-3.534439-.601074-7.241226-.932495-11.6931 25.590088 1.573029 50.040406 5.622391 73.174927 17.172333z" fill="#fffefd"/><path d="m1416.847046 134.714935c3.090088-.736053 5.797851-1.338699 9.089477-2.071274-1.098877 13.853852-1.873169 27.211655-9.03833 38.897217-2.0083 3.275132-5.725464 6.173447-9.315307 7.677903-9.54065 3.998306-17.024903-1.140076-17.689331-11.434662-.865967-13.414765 7.260132-25.085526 21.859619-31.322907 1.522339-.650406 3.138794-1.080536 5.093872-1.746277z" fill="#fefdfd"/><path d="m1690.854492 160.124939c6.046875-16.912048 21.859497-24.223038 41.722779-19.557007.127563.388458.486816.889084.390869 1.277283-2.644287 10.703003-6.395996 20.919952-13.322632 29.702133-4.605713 5.83931-10.753174 8.731659-18.077393 9.083603-6.477173.311218-10.993896-4.233917-11.4823-11.713837-.18103-2.772064.419922-5.595215.768677-8.792175z" fill="#fffefd"/><path d="m1086.960083 367.034973c.265503.129761.457764.32254.650146.515289-.252563.02826-.505004.056488-.81604-.123687-.058349-.208466.092774-.328614.165894-.391602z" fill="#fff"/></svg>