<svg enable-background="new 0 0 1632 832" viewBox="0 0 1632 832" xmlns="http://www.w3.org/2000/svg"><path d="m1245 833c-415 0-829.5 0-1244 0 0-277.333313 0-554.666656 0-832h1632v832c-129.166626 0-258.333374 0-388 0m252.062012-101.948975s.144653.172242-.628418.090577c-.7948 1.643005-1.5896 3.28601-2.414307 4.854187 0 0 .061401.05194-.660522.087951-4.065552 3.185242-6.972779 7.041687-7.183228 13.020203-.305054.663086-.609985 1.326172-1.692749 1.995361-4.2854 3.386658-6.301147 10.24353-4.416748 15.773804-.074219 1.37677-.148437 2.753601-.887085 4.21759-2.943481 1.428345-2.769897 3.07135-.271851 5.41565-.021606.181884-.043334.363708-.512573.959289.482666.843079.965332 1.686218 1.563965 3.425476 1.389893 6.680603 2.779663 13.361145 3.57312 20.526001-1.385986 3.373719-.228271 4.876343 3.480225 5.001648 0 0 .045776.43042.01062 1.204285.289062 1.76532-.780884 4.800842 3.638672 3.590759 2.14563 2.214661 3.906738 5.186646 6.506714 6.506531 8.95227 4.545166 18.243286 8.451843 28.673462 7.243896 4.389404-.508239 8.728149-1.452331 13.226684-1.443847 3.642456 2.316528 5.842896 1.236511 7.573975-3.777527 5.11084-1.478882 9.564209-3.933228 12.703613-8.412171.220093-.313964.911987-.29718 2.206909-.371337 4.760498-.056275 6.741577-2.573487 6.604492-7.731568.598999-.772705 1.198121-1.54541 2.207276-1.767151 3.749389-.290954 9.766723-8.229248 9.06958-12.01532-.043701-.237487-.476563-.40332-.543335-1.289245 1.352783-2.414551 2.705444-4.829163 4.468628-6.700256 1.304931-1.013855 2.943848-1.818299 3.768432-3.133423.38855-.619934-.786621-2.220154-1.142334-4.04364.628418-1.162293 1.256836-2.324585 2.270752-2.948975 1.434082-2.549072 2.868165-5.098145 4.302247-7.647217-.571412-.241943-1.142701-.483826-1.574219-1.473205 2.588379-8.433289 5.17688-16.866578 8.522339-25.302369.779785-.828186 1.55957-1.656372 2.339355-2.484497-.70105-.498047-1.402222-.996093-1.980835-2.330505 2.695313-16.381165 6.143799-32.664429 6.847412-49.312195.212525-5.03186 3.626465-10.007385.343262-15.148804-.299683-.46936-.030151-1.304687-.019287-1.96997.243774-14.936035.488525-29.872132.841308-45.720642-.155029-27.483033.161866-54.980164-.655517-82.443482-.435791-14.64331-1.725952-29.448761-4.585205-43.791351-5.135987-25.761963-20.89563-43.275147-46.018921-51.279328-18.284668-5.825378-37.20874-6.98944-56.278076-4.224029-15.947144 2.312683-30.416138 8.328461-42.65857 18.762024-21.10437 17.986084-29.483276 46.786713-19.216552 72.444122 3.329956 8.321839 9.448242 14.853089 18.166992 17.459534 11.943359 3.570434 24.09021 6.634155 36.326538 9.002563 12.824341 2.482422 16.828003 10.673523 9.458496 21.471192-5.613403 8.224792-14.700928 11.184875-23.486572 13.628235-20.683838 5.752258-41.778565 5.483581-62.826294 1.96521-8.632446-1.443055-16.839722-4.401184-23.260498-10.665589-9.961914-9.71936-14.099732-22.160217-14.731323-35.635071-.793457-16.926086-.343995-33.913818-1.26294-50.829681-.731201-13.459625-2.468017-26.899414-7.910889-39.504242-8.464111-19.600891-32.825927-24.137604-48.023437-14.745117-8.123413 5.020538-12.863037 12.91803-15.608765 21.396515-3.392212 10.474518-5.499634 21.459869-7.148071 32.377624-1.642578 10.879395.139038 12.426178 9.647949 11.504273 4.048706-.392517 6.299805-1.758698 6.420166-6.746582.135742-5.626831 1.399414-11.414124 3.230103-16.769989 3.022705-8.842285 11.599853-13.776459 21.341675-13.256745 10.635131.567444 16.877685 5.030121 19.556274 14.6474 1.34668 4.835449 2.480591 9.871704 2.681152 14.858551.633423 15.746582 1.105835 31.51471 1.008911 47.27063-.072265 11.769531 1.14917 23.289734 4.15857 34.609924 4.811279 18.099061 15.05188 32.167786 32.632446 39.354432 16.218872 6.630004 33.241333 8.69165 50.958374 7.452819 16.135742-1.128234 31.296143-4.452697 44.818237-13.30719 19.2948-12.634399 32.462769-28.837341 30.484986-53.848083-1.355591-17.143433-9.72168-28.982239-26.639038-33.962646-10.458985-3.079102-21.339966-4.701478-31.982544-7.187195-9.73291-2.273194-14.649658-7.048462-11.533081-19.181183 3.991699-15.539887 15.59021-23.11084 29.974243-26.682068 13.203613-3.278107 26.693359-5.083008 40.440185-3.144562 8.897583 1.254639 18.044068 1.183289 26.774048 3.096832 19.277344 4.225373 32.087891 15.942414 35.859131 35.702485 2.02124 10.59082 3.285034 21.474365 3.430664 32.245605.355713 26.302246-.138794 52.615967-.387939 79.870056-.345581 11.597412-.550415 23.201172-1.078614 34.790283-.476684 10.459717-1.307006 20.903382-2.676635 31.432618-2.305786 1.103454-3.661255 2.294799-.209351 4.576721-.034058.448486-.068115.896972-.796142 1.424255-2.302613 1.106201-3.651978 2.299256-.204346 4.575501-.034668.44812-.069336.89624-.865601 1.366882-3.478271 1.501526-3.326294 3.170654-.22583 5.757141-.993652 3.740112-1.987427 7.480225-3.699585 11.302368-2.290649 1.043701-3.339844 2.298584-.729004 4.978821-1.106445 3.340088-2.212768 6.680115-4.041015 10.043396-1.556885 1.097107-3.716797 2.056763-1.065186 4.743103-.13977.383789-.279541.767517-1.176147 1.29126-.373169 1.128723-.74646 2.257385-1.078369 3.962158-.303834.66626-.607789 1.332459-1.670289 1.989624-4.743164 1.987915-5.009765 6.248352-5.123413 11.086426-.156494.607727-.312988 1.215454-1.244995 1.838562-3.076538.161865-3.299072 2.175964-2.765381 5.148681-.438598.650147-.877319 1.300293-1.690063 1.43097-3.103394.212585-4.002075 1.676758-2.646973 5.15271-1.328735 1.457214-2.657348 2.914367-4.364624 3.843078-4.643921.951538-6.805664 4.133972-7.890503 9.037659-.546631.553345-1.093261 1.106689-1.996338 1.089722-.919677.793884-1.839355 1.587768-3.067505 2.912658-.89392.486512-1.787963.972962-3.123535.891541-4.707519.589783-9.557861.843628-13.509277 5.500793-7.875854.971558-14.786499-1.493774-20.839966-6.623718 1.537598-4.280151-.027344-7.000488-4.57373-8.978027-.203369-8.729065 1.015991-17.09906 6.940918-24.448792 3.735717-1.401001 10.19519-11.050232 10.287719-15.103027 0 0-.107666-.105103.663941.045288 2.673584-.30658 4.651855-.985596 2.32019-4.67865.68689-.775818 1.373902-1.551575 2.474976-1.772278 4.218994-.215393 4.869507-1.10968 3.55603-5.289856 3.003418-3.434631 6.006836-6.869262 9.387818-9.775695 2.631225-2.397706 5.591552-4.536011 7.764892-7.294373 1.223023-1.552307 1.147339-4.127747 1.832886-6.928162 4.653686-7.794677 9.307495-15.589355 14.370361-22.822815 4.296021-.700134 3.032349-3.03302 1.70166-6.085022.62378-1.166259 1.247559-2.332519 2.265503-2.937133 4.269654-1.416138 6.671021-9.266663 4.559448-15.511048.314209-1.303406.628418-2.606811 1.721558-3.919922 3.644043-2.902343 4.079102-6.029419 1.361694-9.457275 0 0 .166871-.445679.841919-.569214 1.763062-1.578552 2.016602-2.933411-.472778-4.584717 2.873047-7.130432 2.120483-6.686035-4.208984-8.755066-1.07898-.352722-2.036255-1.077636-3.064942-2.387695-.212158-2.814941-2.022094-3.84198-4.221679-2.657043-.807862.435241-.481568 2.975647-.718995 5.208435-.026733.434692-.053466.869323-.780273 1.384704-.710449.76117-1.420898 1.522339-2.131348 2.28357.650757.546692 1.301636 1.093383 1.981568 2.439758-2.625733 8.093262-5.251587 16.186584-8.618897 24.28241-2.203857 1.19403-4.706177 2.280822-1.952514 6.016906-2.214234 4.631775-4.428467 9.263489-7.420166 13.912537-3.805909.316284-3.057373 3.093323-3.002808 5.99353-.302979.355286-.605957.710633-1.639282 1.071655-2.554932 1.200989-4.828736 2.556946-3.425904 6.702088-2.319336 3.083801-4.638794 6.167602-7.747558 9.239624-3.579346.063354-3.337158 2.605408-3.304199 4.977478 0 0 .058227.038513-.727295.023926-3.594117.084289-3.287232 2.660339-3.417481 5.502563-.186157.270813-.439941.440186-1.591064.487976-4.27356-.340027-3.084717 2.794495-3.543823 5.685974-3.208252 3.444886-6.416626 6.889771-10.40503 10.321106-2.822998.064026-3.599731 1.640503-3.256103 4.027832m-425.066529 64.906372s.06958-.062011.089966.642823c1.653443.768799 3.307007 1.537597 5.688477 2.39154 18.640625 9.558594 38.454345 13.737854 59.356201 13.024842 4.315063-.147278 8.639038-.100159 12.957519-.043335 1.574585.020691 3.285279.825622 4.695191.42749 8.980347-2.53595 17.893921-5.308045 27.280029-7.290772 4.470337 1.974549 5.687134-.463623 6.290528-4.843933 3.662841-2.342895 7.764038-4.21521 10.894165-7.13031 5.851928-5.449829 11.140625-11.504638 17.054565-16.755432 4.494629-.445557 3.406616-3.897339 3.682495-7.3526 7.847901-11.838928 9.897705-25.611877 13.687134-39.095459.672851-.731689 1.345703-1.463379 2.018433-2.195068-.844483-.578064-1.688965-1.156128-2.6167-2.377198.316773-.786621.633423-1.573303 1.69043-2.455749 3.209106-2.271485 3.8927-4.316956-.649902-6.827454 0-162.450928 0-324.901825 0-487.761749 3.023925.282562 5.454956.50972 7.973144 1.446579 1.056397 2.250503 2.309571 3.295532 4.883423.683136.678589.237152 1.357056.474319 2.200806 1.43219 1.118286.326126 2.23645.652252 4.012695 1.018234 7.248291 4.812943 8.773682 13.042404 11.774292 20.287567 1.028931 2.484375.198364 5.680634.588989 8.500183.715332 5.163605 2.296631 10.268708 2.473145 15.433869.52771 15.444641.664917 30.906006.743164 46.361908.109497 21.633392.08789 43.268036.008057 64.901733-.055054 14.957855-.443482 29.915131-.429444 44.872467.018067 19.396057.357178 38.791626.430908 58.187897.081421 21.436829.018921 42.874267.018921 64.311401-.000122 19.967652-.000366 39.935303-.00061 59.902954-.000366 20.440003-.000733 40.879944-.000855 61.319947-.000122 37.46759.014405 74.935241-.022583 112.402832-.003662 3.71405-.320556 7.427856-.517456 11.691162 5.731202-.377381 10.612061-.698731 15.84375-1.043213 0-2.819702 0-4.963867 0-7.108032-.000366-168.809082-.001464-337.618134.004639-506.427185.000122-3.163086.085327-6.326203.844605-9.516449 3.70874-2.28833 2.487426-3.792969-.913086-5.881256-1.104004-7.994812 1.454834-16.274506-1.192139-24.18956 3.387207-2.249329 2.830566-3.836258-1.098389-5.387696-.19458-.506393-.389282-1.012787.123047-1.621902 3.004761-3.094162 1.84436-8.289414-2.62793-10.299393-.867797-7.867813-5.022827-14.177124-10.058593-19.829407-13.771118-15.457244-32.223877-14.607483-50.965576-14.674255 0 10.453476-.06482 20.253677.01416 30.052719.143921 17.886475.503173 35.772003.540161 53.658417.083862 40.543213.074463 81.086822.00354 121.630096-.029785 17.03711-.451172 34.073822-.441773 51.110566.010865 19.921569.425171 39.842987.425415 59.764465.000245 16.780212-.495117 33.560425-.490478 50.340576.005005 17.9198.532226 35.840027.486084 53.759155-.077271 29.93927-.073486 59.886719-.815918 89.812989-.369141 14.884399-3.784668 29.197204-12.252564 42.033264-9.578003 14.518554-22.926635 23.466003-39.446655 27.732483-15.528442 4.010437-31.38562 5.396423-47.333618 3.009643-11.245361-1.683044-22.849243-2.643188-33.505737-6.251404-24.770874-8.387512-32.325562-26.541259-25.313965-52.355102 2.64685-9.744507 10.432251-15.822266 18.532104-20.593994 12.707276-7.486084 26.094483-13.810547 39.113526-20.776551 9.791992-5.239196 19.857422-10.110839 29.085693-16.225769 13.317871-8.82489 20.852417-21.46167 21.223145-38.78656-.343384-32.609008-.38794-65.225525-1.199219-97.822876-.269043-10.804077-1.80603-21.705047-4.005615-32.303955-3.802491-18.323639-13.406006-33.190857-29.634278-43.104034-13.896972-8.489014-29.497802-11.638367-45.440551-12.654267-16.191529-1.031707-32.136475.562623-47.416382 6.863709-27.613343 11.387146-46.927613 35.87204-45.263794 66.714539 1.164245 21.583129 11.296081 34.582275 32.385498 39.696228 8.883423 2.154113 17.964966 3.494262 26.839233 5.680297 5.269776 1.298218 10.873535 2.940491 12.321655 9.375184 1.30835 5.812622-1.252807 10.621459-5.453125 14.139099-4.014404 3.361938-8.423095 6.762146-13.249145 8.559936-24.081482 8.970764-48.848206 8.875427-73.695068 3.908753-19.757996-3.949463-31.036316-16.741455-34.119202-36.2016-1.65332-10.436462-1.658325-21.174987-1.881165-31.788208-.401611-19.126251-.249023-38.296234-5.179077-56.975524-3.97821-15.073151-10.945801-27.303711-28.475891-29.75116-11.350098-1.584625-21.792297.460327-29.138 9.1409-14.298523 16.896881-16.119263 37.867004-17.483643 60.327301 4.895386-.301941 9.201416-.426545 13.460632-.939728.942383-.113556 2.239502-1.47934 2.472412-2.478485.632508-2.713288.67096-5.558197 1.143067-8.317017 1.476623-8.628601 2.801758-17.568573 11.667175-22.046997 3.510803-1.773468 7.73584-2.403503 11.717774-2.916992 8.007995-1.032715 17.413025 4.490143 19.53302 12.389526 2.143737 7.987824 3.49707 16.314728 4.05487 24.570252.762329 11.283264.358643 22.641357.611878 33.963806.359863 16.091858.181823 32.18573 6.338745 47.612121 6.365112 15.947815 16.731628 27.638794 33.076172 33.359131 15.744995 5.510315 31.906067 7.420655 48.685241 6.195923 12.994263-.948486 25.21814-3.55011 37.018921-9.089722 23.644898-11.099792 43.355957-36.599975 37.364991-63.008117-2.142823-9.445618-6.167237-17.41626-14.073853-23.067383-10.190796-7.28363-22.294556-8.850037-34.182495-11.097107-5.42334-1.025085-10.888672-2.247314-16.042175-4.166504-5.676087-2.11383-7.89917-10.573212-5.316651-18.712036 3.802674-11.983704 12.732117-19.044861 23.981629-23.077515 14.714355-5.274688 29.990722-6.085724 45.600708-5.200012 10.359741.58786 20.561523 1.235352 30.57434 4.059815 13.360718 3.768829 23.400391 11.573028 29.352906 24.205352 5.43872 11.542267 6.679443 24.00235 6.787964 36.507599.255859 29.489563.151367 58.9823.085449 89.224976-1.332642 6.302429-3.563965 12.334595-9.250611 15.808777-7.001586 4.277527-14.300293 8.138794-21.72644 11.637085-17.753296 8.363098-35.752808 16.198974-51.797119 27.770263-11.571655 8.345581-20.489502 18.533448-24.706787 32.481812-3.404297 11.259216-3.425659 22.674743-1.937012 34.127746 1.262451 9.71344 3.951172 19.183411 9.753784 27.16742 5.120728 7.045593 11.209229 13.387817 16.918823 20.776916.990723.461243 1.981568.922486 2.881836 1.406433m-227.102478-369.931335c.036805-47.496185.303772-94.993988-.029235-142.487579-.100464-14.328308-1.34314-28.707245-3.038636-42.946762-1.29834-10.904038-5.050415-21.172837-12.473327-29.804886-13.367981-15.545639-31.482239-15.085877-49.647461-15.6792-.104798 1.230118-.194214 1.872941-.209534 2.517548-1.179077 49.472931 2.759888 99.045899-2.66095 148.417816-.790893 7.202729-2.693786 14.780579-6.100097 21.096527-7.349427 13.627228-26.249939 20.082245-38.621949 6.170685-12.359253-13.897278-23.971862-28.457794-35.942871-42.701416-11.200744-13.327118-24.224731-24.112335-41.069641-29.69873-1.348877-.447357-3.055786-2.390839-3.123962-3.714783-.528076-10.264587-.967774-20.549438-.906372-30.82486.087097-14.586746-1.412964-29.016311-5.342835-42.979568-6.670288-23.700653-19.746399-33.872467-44.780212-31.141144-8.32074.907852-16.046509 4.179703-21.497864 10.88858-9.894226 12.176667-13.831726 26.670212-15.268249 41.979203-.567994 6.052902-.550782 12.174377-1.366822 18.187683-2.023315 14.909485-2.172058 15.186859 13.651062 12.674225.446411-.070893.860352-.346039 1.225586-.499176.781311-8.167054 1.133179-16.247437 2.430786-24.172974 1.303345-7.960495 3.066224-16.124573 10.081055-21.376205 7.558411-5.658616 16.092285-6.064774 24.896118-3.374543 9.894104 3.023423 14.501282 10.832672 16.977112 19.958512 3.799622 14.005462 4.184937 28.42868 4.098755 42.859497-.056213 9.407409-.050659 9.183899-9.253479 10.830841-12.888794 2.306549-24.198792 8.321625-33.068359 17.714874-9.261292 9.808075-15.614686 21.384094-18.003602 35.167145-2.178955 12.571777-3.230468 24.871582 1.273865 37.015106 5.847901 15.765564 16.784729 25.348969 33.966492 23.813232 9.318298-.832855 17.793457-3.677459 23.929565-10.694122 9.888672-11.307617 13.148926-25.46579 14.909912-39.917969 1.127869-9.255859 1.526307-18.600555 2.300049-28.524627 4.65387 2.849487 9.849488 4.735992 13.218445 8.333282 10.615234 11.334931 20.712402 23.171753 30.68634 35.085358 7.741761 9.247314 14.400513 19.405578 24.273804 26.749603 14.376953 10.693939 29.830444 11.843842 45.818176 4.782471 11.23584-4.962586 16.50647-15.372528 20.716919-26.128021 5.984192-15.286469 7.38678-31.544098 7.707825-47.65387.674133-33.816559.298767-67.653992.353577-101.48288.002868-1.765365.000366-3.530716.000366-5.702133 4.047302.242371 7.658447-.154861 10.896118.764115 11.032288 3.131439 16.892151 11.718978 18.987549 22.04988 2.476318 12.208848 4.292664 24.776322 4.376953 37.202042.2229 32.883545-.705872 65.773804-1.044373 98.66272-.135375 13.160278.075318 26.324066-.073303 40.406799-.382507 36.422119-.863586 72.843567-1.103271 109.266632-.108826 16.538513-8.124451 29.084656-20.480896 38.566773-13.899842 10.666382-30.575928 15.252319-47.825989 17.263794-18.667969 2.176757-37.345825 2.318908-55.95929-.918885-18.747131-3.260864-36.409484-9.022277-51.772583-20.811523-16.932067-12.993286-22.210693-34.620545-12.421203-53.560059 6.399719-12.381256 17.266601-20.387268 28.771606-27.431091 17.296753-10.589905 34.902466-20.674561 52.223511-31.225647 7.093445-4.320984 13.043518-10.035614 17.072266-16.284973-3.23761-3.381714-6.064026-6.333954-8.990174-9.39035-.641662.505767-1.651489.962982-2.148559 1.745849-5.160279 8.127106-13.166382 13.040589-20.959778 17.954071-18.373352 11.583771-37.371521 22.206452-55.425659 34.253754-8.476807 5.656494-16.256897 12.960144-22.770081 20.827576-12.640014 15.268035-12.55249 33.582367-7.788269 51.470245 5.282227 19.833069 17.641785 34.979126 34.810303 46.581543 21.873535 14.782104 46.371643 20.881287 72.05249 22.598205 11.23822.751465 22.804627-.348632 33.960938-2.189697 14.50061-2.392944 28.484253-7.111572 41.176879-14.873047 22.908448-14.008361 38.168091-33.730713 42.204224-60.568298 1.987549-13.215576 1.98169-26.794189 2.09552-40.215179.237427-27.984559-.045349-55.973511.024719-84.881989m-549.808715 46.707397c-25.347809 1.711548-48.137024 8.662903-64.365662 30.114502-10.659592 14.090271-15.672653 30.30951-17.434845 47.344239-1.380844 13.348327-.498306 26.930175-.638474 40.408142-.014938 1.43573-.144683 2.870361-.223098 4.34198-8.00856.750915-15.391449-.226746-21.61052-4.711731-16.201492-11.683899-23.163879-28.633179-23.546478-47.741699-.404877-20.221253 9.023651-37.078247 22.420731-51.767426 17.063629-18.709412 37.676132-33.259308 57.412902-48.828857 22.257325-17.557892 44.654358-34.907196 63.214814-56.638337 22.320984-26.134033 36.732727-55.594207 40.841919-90.061676 2.417389-20.276702 2.803375-40.267059-3.232636-59.923324-6.487335-21.12616-18.874725-36.812256-41.547851-41.847565-11.793-2.619034-23.908448-2.876556-35.310822 1.253281-12.988403 4.704269-20.796783 15.127807-26.051773 27.572632-1.150391 2.724304-2.362259 5.422653-3.89006 8.921295-.716568-1.48198-.954178-1.870194-1.100144-2.290238-5.042984-14.511963-12.876526-26.962387-27.47287-33.340332-12.425506-5.429382-25.526413-4.466995-38.509216-1.848419-15.304947 3.086991-25.663162 12.439499-31.897797 26.34491-7.005233 15.62413-9.531555 32.314544-9.72409 49.281784-.385697 33.991882-.390946 67.988068-.55159 101.982483-.008377 1.773926-.001099 3.547912-.001099 5.274475-13.229553.846435-22.375694-4.42923-27.93026-15.556427-4.77137-9.558228-5.564514-19.900665-5.700157-30.259339-.274933-20.995391-.010048-41.997863-.284317-62.993255-.200966-15.383774-1.203575-30.694824-4.904007-45.763428-5.188827-21.129562-16.231193-30.265472-37.774505-29.950561-15.426537.225479-21.692009 8.10321-28.09138 21.538818-5.76888 12.111893-7.282035 25.364914-7.948493 38.685165-.393399 7.862717-1.0803 15.710801-1.651692 23.798783h16.014135c.854805-10.171723 1.635712-19.402619 2.404999-28.634491.87418-10.490769 6.602207-18.861542 14.580128-21.29982 11.84935-3.62146 25.601589 1.188721 27.533626 14.054306 1.285019 8.55693 3.602578 17.066315 3.875191 25.647278.772377 24.311584.727829 48.649109 1.010979 72.976349.153313 13.172668.923271 26.218353 5.215118 38.887725 3.461594 10.218445 9.004547 18.69516 17.899025 24.925721 6.61612 4.634521 14.307602 6.158386 21.993813 7.049255 6.30043.730194 12.752869.148773 19.233353.148773 0-39.412079-.074128-78.241363.042556-117.070099.037827-12.58789.426819-25.163055 3.585892-37.502701 7.253998-28.334701 34.64209-36.109832 57.389236-26.420288 16.395874 6.984116 24.310975 20.461258 26.409501 37.849472h12.996032c.429688-2.211364.818726-4.301025 1.243134-6.383514 2.427307-11.910019 7.835022-21.820389 18.391052-28.592636 12.388794-7.948059 25.329285-8.014954 39.010254-4.074585 7.978485 2.297943 13.805023 7.076614 18.703918 13.321808 9.448975 12.045715 9.203431 26.368271 7.687745 40.246872-1.114563 10.205444-4.468995 20.308471-7.879639 30.089477-5.968506 17.116577-16.822815 31.480347-29.143646 44.332062-12.355408 12.887726-26.086365 24.471466-39.398712 36.421448-7.933243 7.121368-16.154297 13.928406-24.367692 20.729706-9.226654 7.640442-19.21202 14.479431-27.741729 22.81839-11.389481 11.134857-22.546707 22.720489-32.265015 35.301147-14.283234 18.490051-23.436066 39.447021-23.874008 63.393524-.14267 7.80072-.971603 15.731995.117767 23.374878 1.281342 8.989746 4.078064 17.797547 6.630127 26.564209 3.961853 13.609436 12.24617 24.645752 23.247208 33.042358 14.649231 11.181214 32.234161 11.383667 50.006042 11.13678 0-2.319824-.019226-4.142761.002961-5.96521.261627-21.486694.097061-42.989685.912414-64.455444.886353-23.335571 17.020737-42.790894 41.177506-48.304108 22.288543-5.086853 44.336669-5.172455 66.41748-.740295 13.915283 2.793182 25.950684 9.553009 33.95221 22.014984 6.612487 10.298584 9.021667 21.990112 9.513366 33.792908.804077 19.300415.426728 38.650085.544892 57.978943.010925 1.786621.001495 3.573425.001495 5.459594h15.36499c0-20.981384.43808-41.647949-.181-62.282898-.319336-10.643066-1.591796-21.450195-4.053558-31.797729-5.815674-24.445007-19.301147-43.302551-43.034393-53.54361-16.859528-7.275055-34.596131-9.30484-53.665283-7.830414m1250.608337-277.574371c-4.193481-.875152-3.494995 2.030747-3.546753 4.491455-1.009766 47.981751 2.162842 96.0159-2.030151 143.968781-.835572 9.556274-3.130249 18.356994-8.145752 26.443359-6.266724 10.103485-22.974121 13.963623-32.289063 6.853882-5.436157-4.149231-10.251343-9.326019-14.594238-14.653168-12.572998-15.421631-24.11023-31.707611-39.205933-44.943695-7.627441-6.687713-15.783935-12.497925-25.627319-15.221527-4.651856-1.287048-5.918457-3.493317-5.855469-8.213684.308228-23.146332.231446-46.313385-5.506592-68.97699-5.108886-20.178589-16.282836-34.603149-41.147338-32.983307-17.523682 1.141602-27.834717 9.836594-34.6698 26.547196-6.375366 15.586456-7.118653 32.28067-7.985962 48.819351-.514649 9.814301 2.461181 11.799499 12.21875 9.381714 1.220703-.302429 2.378662-.858124 2.811401-1.017945 1.34375-10.307189 2.191773-20.133621 4.023682-29.773132 1.369385-7.206558 4.228027-14.403854 11.440185-17.694137 18.045655-8.232682 34.63501-.405625 39.550049 19.302246 3.881836 15.564285 3.834717 31.459396 3.914063 47.350082.014526 2.935913-.965576 3.957916-3.905274 4.384613-23.011108 3.339874-40.208618 15.191101-50.739624 36.001801-8.158203 16.121734-9.217285 33.49353-6.05188 50.865356 1.525513 8.372742 5.990113 16.387787 13.109864 21.580475 16.021606 11.68512 42.212402 7.541687 52.645996-13.150879 6.753174-13.393036 8.660644-27.718994 9.867309-42.285095.469971-5.671234.567017-11.373352.837525-17.141144.810302.166748 1.148315.169586 1.42334.30249 10.408813 5.029267 18.634521 12.479431 25.62915 21.698548 8.072754 10.640381 16.553223 21.008087 25.408081 31.005737 5.897705 6.658874 12.311768 13.033081 19.290527 18.523041 11.940064 9.3927 32.673218 10.242096 45.978028 1.158203 10.928955-7.461945 16.072509-18.82608 19.412842-31.053772 4.665039-17.07782 5.709472-34.646057 5.83142-52.232178.20813-29.993133.057496-59.988739.057496-89.983291 0-1.75943 0-3.51886 0-5.177491 15.156372-2.303817 22.909423 4.986206 28.451049 18.046173 4.488404 10.578232 5.375977 21.841507 5.515503 32.917405.520508 41.316986.296143 82.64331.35083 123.966156.00232 1.782836.000244 3.565704.000244 5.339447h15.682374c0-2.22696.009277-4.053193-.001465-5.879303-.276612-46.602784-.418946-93.207001-.917725-139.807434-.147705-13.803788-1.722656-27.508942-6.93457-40.541138-4.576538-11.443588-12.6427-20.12764-23.963379-23.884094-9.258667-3.072236-19.558106-3.007935-30.331421-4.334107m-377.520508 181.340973c0-29.998474.121216-59.997589-.046875-89.995117-.096191-17.171692-.478027-34.338074-4.084228-51.266525-3.424927-16.07634-11.261353-28.768815-26.815552-35.466462-10.927002-4.705215-22.648804-4.267471-34.480469-4.682434-.101684 1.678757-.22229 2.975418-.25293 4.274201-1.174438 49.636032 2.707154 99.364761-2.489379 148.914474-1.053101 10.040314-4.029664 19.811219-12.431763 26.555115-8.438477 6.773102-22.123779 9.583527-30.574707-.351715-11.732544-13.792938-23.223267-27.795197-35.121948-41.442444-11.89856-13.647064-24.737549-26.276642-42.854248-31.41217-3.573365-1.01297-4.088685-2.715393-4.083252-5.936249.040771-23.932434.158752-47.862854-5.886963-71.325638-4.52472-17.560226-15.683228-33.220077-38.480652-32.571304-16.324036.464569-27.428223 7.65802-34.628784 21.707473-7.159912 13.970276-8.853882 29.197236-9.801148 44.570176-.272156 4.416076-.724609 8.821655-1.131714 13.228607-.329773 3.569275-.011108 6.404816 4.836914 5.753265 2.459351-.330505 5.09137.262116 7.447937-.33786 1.431702-.364441 3.364258-2.077637 3.562745-3.40979.990722-6.650421 1.328491-13.394989 2.187255-20.068939 1.073609-8.343002 2.484497-16.845703 9.500977-22.469849 14.15979-11.349975 36.671814-6.407348 42.55658 14.66304 4.880249 17.474045 4.217041 35.338028 3.725585 53.197129-2.72821.504608-5.283752.96112-7.832824 1.451324-20.139221 3.872406-34.895386 15.185089-44.958801 32.808441-5.299439 9.28064-6.93274 19.507111-8.259888 30.039124-2.029419 16.105072.936279 29.974823 12.036865 42.442413 11.328735 12.723816 39.004578 10.580689 49.741089-3.447632 8.320068-10.87091 11.830749-23.281463 13.398926-36.425842 1.208191-10.126739 1.782776-20.329071 2.688171-31.081177 3.345398 2.017365 6.544922 3.68573 9.46228 5.752442 10.992798 7.787353 18.932434 18.486419 27.416993 28.7164 9.72528 11.726044 19.371948 23.606109 30.070922 34.411011 10.950562 11.059021 25.319336 12.63623 39.823975 9.328033 11.505859-2.624268 19.245605-10.884766 24.414917-21.201324 8.836182-17.63443 10.601685-36.92154 10.997559-56.116425.693603-33.64859.290405-67.319824.346191-100.981552.002808-1.744339.000244-3.488678.000244-5.120728 17.146485-2.436508 24.849487 8.409394 28.836792 18.935135 4.227661 11.159821 5.362183 23.06192 5.411987 34.919708.170289 40.497468.065308 80.996064.065308 121.494233v5.170501h15.685913c0-10.927856 0-21.574432 0-33.221069m-1019.143905-266.925484c3.565261 14.471756 9.761611 26.986092 21.8143 36.850518 11.878738 9.722046 25.590912 13.843246 39.938583 15.218658 11.345139 1.08757 23.068909-.365173 34.486054-1.795288 14.213196-1.78035 26.788849-8.128464 36.47644-18.633453 18.113648-19.641968 21.238983-43.76664 17.867035-68.983574-2.17865-16.293026-9.194214-30.951088-19.038788-44.171774-7.183136-9.646492-4.583282-9.200451-13.29544-.738878-2.201325 2.138002-2.882752 4.012739-.661866 6.826152 2.894227 3.666432 5.256623 7.758519 7.779816 11.710888 5.987671 9.379242 8.688294 19.858589 9.847382 30.757706.434875 4.088875.517059 8.312965.002411 12.379509-.597168 4.718384-2.027375 9.331337-3.095978 13.990044-1.444306-1.154641-1.875702-2.190346-2.120636-3.268395-5.347687-23.539436-17.643799-40.829678-42.402161-46.604145-3.203033-.747055-2.92044-2.541141-2.9216-4.690552-.005356-9.999401-.002381-19.998798-.002426-29.998197-.000016-2.419714-.000016-4.839427-.000016-7.109449-5.800842 0-10.878524 0-16.238708 0 0 11.965299-.217392 23.616382.116806 35.251617.118484 4.124752-1.731125 5.483581-5.116714 6.390575-3.871872 1.037266-7.874756 1.928974-11.457612 3.64296-16.878311 8.074344-24.948959 22.878017-29.736267 39.995922-.932602 3.334663-1.330185 6.818954-1.974533 10.234222-13.017181-28.356575-4.279022-52.944439 12.79158-75.497829-3.743804-3.60216-7.059066-6.791987-10.438186-10.043255.026382-.015881-.316986.092342-.515351.324467-7.15483 8.372318-12.643249 17.670276-17.075775 27.811447-5.379562 12.307915-7.848831 25.094272-7.914322 38.305256-.035018 7.06665 1.472519 14.140945 2.885972 21.844848m223.36647 126.292748c-.528076.990021-1.024719 1.998352-1.589386 2.967041-3.224945 5.532608-3.22699 5.523437 2.212921 8.658813 3.011078 1.735504 6.008453 3.494812 9.04834 5.264527 1.09967-1.319245 2.135498-2.386978 2.972534-3.592697 9.855713-14.197236 23.946808-21.75998 40.530273-24.231705 9.407227-1.402146 19.149842-1.196655 28.705567-.816055 16.077026.64035 29.557953 6.818038 40.175598 19.481796 13.405792 15.989212 14.697235 34.583084 12.507446 53.877762-1.33789 11.788574-4.996704 23.035675-11.087188 33.42691-6.170868 10.528381-14.207276 18.697632-26.40561 21.603088-11.756805 2.800263-25.192504-3.148254-22.313964-18.849517 1.00476-5.480622 4.077118-10.582245 6.548278-16.707184-3.599212-2.466645-8.172088-5.600556-12.744934-8.734436-3.048919 3.165527-6.109741 6.319732-9.1362 9.506622-.566436.596405-1.043335 1.293549-1.480285 1.994843-4.501313 7.224609-7.49231 14.88034-9.560852 23.286743-2.278076 9.258026 2.003906 20.230499 9.08554 24.8768 15.906006 10.436035 32.956757 9.061646 49.382142 3.02649 20.209442-7.425507 32.905181-23.146576 40.112396-43.127686 7.812561-21.659363 9.788635-43.860901 5.755249-66.690918-4.053467-22.943497-14.772309-41.593124-33.51001-55.526505-18.007935-13.390686-38.748993-15.355377-59.954407-12.914291-8.143554.937454-16.259918 4.518433-23.753448 8.190994-15.356323 7.526108-26.456848 19.823197-35.5 35.028565z" fill="#fff"/><path d="m295.521423 472.570038c18.632019-1.311005 36.368622.71878 53.22815 7.993835 23.733246 10.241059 37.218719 29.098603 43.034393 53.54361 2.461762 10.347534 3.734222 21.154663 4.053558 31.797729.61908 20.634949.181 41.301514.181 62.282898-5.03479 0-9.932464 0-15.36499 0 0-1.886169.00943-3.672973-.001495-5.459594-.118164-19.328858.259185-38.678528-.544892-57.978943-.491699-11.802796-2.900879-23.494324-9.513366-33.792908-8.001526-12.461975-20.036927-19.221802-33.95221-22.014984-22.080811-4.43216-44.128937-4.346558-66.41748.740295-24.156769 5.513214-40.291153 24.968537-41.177506 48.304108-.815353 21.465759-.650787 42.96875-.912414 64.455444-.022187 1.822449-.002961 3.645386-.002961 5.96521-17.771881.246887-35.356811.044434-50.006042-11.13678-11.001038-8.396606-19.285355-19.432922-23.247208-33.042358-2.552063-8.766662-5.348785-17.574463-6.630127-26.564209-1.08937-7.642883-.260437-15.574158-.117767-23.374878.437942-23.946503 9.590774-44.903473 23.874008-63.393524 9.718308-12.580658 20.875534-24.16629 32.265015-35.301147 8.529709-8.338959 18.515075-15.177948 27.741729-22.81839 8.213395-6.8013 16.434449-13.608338 24.367692-20.729706 13.312347-11.949982 27.043304-23.533722 39.398712-36.421448 12.320831-12.851715 23.17514-27.215485 29.143646-44.332062 3.410644-9.781006 6.765076-19.884033 7.879639-30.089477 1.515686-13.878601 1.76123-28.201157-7.687745-40.246872-4.898895-6.245194-10.725433-11.023865-18.703918-13.321808-13.680969-3.940369-26.62146-3.873474-39.010254 4.074585-10.55603 6.772247-15.963745 16.682617-18.391052 28.592636-.424408 2.082489-.813446 4.17215-1.243134 6.383514-4.42218 0-8.709839 0-12.996032 0-2.098526-17.388214-10.013627-30.865356-26.409501-37.849472-22.747146-9.689544-50.135238-1.914413-57.389236 26.420288-3.159073 12.339646-3.548065 24.914811-3.585892 37.502701-.116684 38.828736-.042556 77.65802-.042556 117.070099-6.480484 0-12.932923.581421-19.233353-.148773-7.686211-.890869-15.377693-2.414734-21.993813-7.049255-8.894478-6.230561-14.437431-14.707276-17.899025-24.925721-4.291847-12.669372-5.061805-25.715057-5.215118-38.887725-.28315-24.32724-.238602-48.664765-1.010979-72.976349-.272613-8.580963-2.590172-17.090348-3.875191-25.647278-1.932037-12.865585-15.684276-17.675766-27.533626-14.054306-7.977921 2.438278-13.705948 10.809051-14.580128 21.29982-.769287 9.231872-1.550194 18.462768-2.404999 28.634491-4.914644 0-10.025445 0-16.014135 0 .571392-8.087982 1.258293-15.936066 1.651692-23.798783.666458-13.320251 2.179613-26.573272 7.948493-38.685165 6.399371-13.435608 12.664843-21.313339 28.09138-21.538818 21.543312-.314911 32.585678 8.820999 37.774505 29.950561 3.700432 15.068604 4.703041 30.379654 4.904007 45.763428.274269 20.995392.009384 41.997864.284317 62.993255.135643 10.358674.928787 20.701111 5.700157 30.259339 5.554566 11.127197 14.700707 16.402862 27.93026 15.556427 0-1.726563-.007278-3.500549.001099-5.274475.160644-33.994415.165893-67.990601.55159-101.982483.192535-16.96724 2.718857-33.657654 9.72409-49.281784 6.234635-13.905411 16.59285-23.257919 31.897797-26.34491 12.982803-2.618576 26.08371-3.580963 38.509216 1.848419 14.596344 6.377945 22.429886 18.828369 27.47287 33.340332.145966.420044.383576.808258 1.100144 2.290238 1.527801-3.498642 2.739669-6.196991 3.89006-8.921295 5.25499-12.444825 13.06337-22.868363 26.051773-27.572632 11.402374-4.129837 23.517822-3.872315 35.310822-1.253281 22.673126 5.035309 35.060516 20.721405 41.547851 41.847565 6.036011 19.656265 5.650025 39.646622 3.232636 59.923324-4.109192 34.467469-18.520935 63.927643-40.841919 90.061676-18.560456 21.731141-40.957489 39.080445-63.214814 56.638337-19.73677 15.569549-40.349273 30.119445-57.412902 48.828857-13.39708 14.689179-22.825608 31.546173-22.420731 51.767426.382599 19.10852 7.344986 36.0578 23.546478 47.741699 6.219071 4.484985 13.60196 5.462646 21.61052 4.711731.078415-1.471619.20816-2.90625.223098-4.34198.140168-13.477967-.74237-27.059815.638474-40.408142 1.762192-17.034729 6.775253-33.253968 17.434845-47.344239 16.228638-21.451599 39.017853-28.402954 64.802795-30.277923z" fill="#030303"/><path d="m1181.612427 804.398438c-8.935669 2.694274-17.849243 5.466369-26.82959 8.002319-1.409912.398132-3.120606-.406799-4.695191-.42749-4.318481-.056824-8.642456-.103943-12.957519.043335-20.901856.713012-40.715576-3.466248-59.855225-13.379151-2.069214-1.150146-3.639526-1.946106-5.209839-2.742065 0 0-.06958.062011-.168334-.241944-1.009644-.81549-1.920655-1.327148-2.831543-1.838745-5.661133-6.652832-11.749634-12.995056-16.870362-20.040649-5.802612-7.984009-8.491333-17.45398-9.753784-27.16742-1.488647-11.453003-1.467285-22.86853 1.937012-34.127746 4.217285-13.948364 13.135132-24.136231 24.706787-32.481812 16.044311-11.571289 34.043823-19.407165 51.797119-27.770263 7.426147-3.498291 14.724854-7.359558 21.72644-11.637085 5.686646-3.474182 7.917969-9.506348 9.773438-16.193116 5.516113-.414184 10.509521-.444152 15.50293-.474121-.221436 16.408142-7.755982 29.044922-21.073853 37.869812-9.228271 6.11493-19.293701 10.986573-29.085693 16.225769-13.019043 6.966004-26.40625 13.290467-39.113526 20.776551-8.099853 4.771728-15.885254 10.849487-18.532104 20.593994-7.011597 25.813843.543091 43.96759 25.313965 52.355102 10.656494 3.608216 22.260376 4.56836 33.505737 6.251404 15.947998 2.38678 31.805176 1.000794 47.333618-3.009643 16.52002-4.26648 29.868652-13.213929 39.446655-27.732483 8.467896-12.83606 11.883423-27.148865 12.252564-42.033264.742432-29.92627.738647-59.873719.815918-89.812989.046142-17.919128-.481079-35.839355-.486084-53.759155-.004639-16.780151.490723-33.560364.490478-50.340576-.000244-19.921478-.41455-39.842896-.425415-59.764465-.009399-17.036744.411988-34.073456.441773-51.110566.070923-40.543274.080322-81.086883-.00354-121.630096-.036988-17.886414-.39624-35.771942-.540161-53.658417-.07898-9.799042-.01416-19.599243-.01416-30.052719 18.741699.066772 37.194458-.782989 50.965576 14.674255 5.035766 5.652283 9.190796 11.961594 10.358642 20.4935.740357 3.688736 1.180664 6.713379 1.62085 9.738022.194702.506393.389404 1.012787.697021 2.17807.176392 2.046616.239869 3.434357.303345 4.822098 3.32898 7.821762.770142 16.101456 1.878906 24.965988.067993 2.259369.131348 3.649048.19458 5.038696-.045532 3.163086-.130737 6.326203-.130859 9.489289-.006103 168.809051-.005005 337.618103-.004639 506.427185v7.108032c-5.231689.344482-10.112548.665832-15.84375 1.043213.1969-4.263306.513794-7.977112.517456-11.691162.036988-37.467591.022461-74.935242.022583-112.402832.000122-20.440003.000489-40.879944.000855-61.319947.000244-19.967651.000488-39.935302.00061-59.902954 0-21.437134.0625-42.874572-.018921-64.311401-.07373-19.396271-.412841-38.79184-.430908-58.187897-.014038-14.957336.37439-29.914612.429444-44.872467.079833-21.633697.10144-43.268341-.008057-64.901733-.078247-15.455902-.215454-30.917267-.743164-46.361908-.176514-5.165161-1.757813-10.270264-2.473145-15.433869-.390625-2.819549.439942-6.015808-.588989-8.500183-3.00061-7.245163-4.526001-15.474624-12.322876-20.58638-1.575439-.67926-2.602417-1.059692-3.629272-1.44014-.678589-.237152-1.357056-.474319-2.65979-.905014-1.864991-.528793-3.105713-.864044-4.346436-1.199295-2.43103-.227157-4.862061-.454315-7.885986-.736877 0 162.859924 0 325.310821-.015992 488.646027-.035522 2.602478-.054931 4.320678-.074462 6.03894-.316651.786682-.633301 1.573364-.966919 3.078125-.029175 1.786072-.041626 2.853943-.054078 3.921875-3.120239 13.415833-5.170043 27.188782-13.340454 39.575623-1.465454 2.44934-2.608276 4.350769-3.750976 6.252258-5.522949 5.803223-10.811646 11.858032-16.663574 17.307861-3.130127 2.9151-7.231324 4.787415-11.452637 7.472901-2.433228 1.491699-4.307861 2.640747-6.182495 3.789795z" fill="#d2b48d"/><path d="m828.348083 426.927826c-.053161-13.162201-.263854-26.325989-.128479-39.486267.338501-32.888916 1.267273-65.779175 1.044373-98.66272-.084289-12.42572-1.900635-24.993194-4.376953-37.202042-2.095398-10.330902-7.955261-18.918441-18.987549-22.04988-3.237671-.918976-6.848816-.521744-10.896118-.764115 0 2.171417.002502 3.936768-.000366 5.702133-.05481 33.828888.320556 67.666321-.353577 101.48288-.321045 16.109772-1.723633 32.367401-7.707825 47.65387-4.210449 10.755493-9.481079 21.165435-20.716919 26.128021-15.987732 7.061371-31.441223 5.911468-45.818176-4.782471-9.873291-7.344025-16.532043-17.502289-24.273804-26.749603-9.973938-11.913605-20.071106-23.750427-30.68634-35.085358-3.368957-3.59729-8.564575-5.483795-13.218445-8.333282-.773742 9.924072-1.17218 19.268768-2.300049 28.524627-1.760986 14.452179-5.02124 28.610352-14.909912 39.917969-6.136108 7.016663-14.611267 9.861267-23.929565 10.694122-17.181763 1.535737-28.118591-8.047668-33.966492-23.813232-4.504333-12.143524-3.45282-24.443329-1.273865-37.015106 2.388916-13.783051 8.74231-25.35907 18.003602-35.167145 8.869567-9.393249 20.179565-15.408325 33.068359-17.714874 9.20282-1.646942 9.197266-1.423432 9.253479-10.830841.086182-14.430817-.299133-28.854035-4.098755-42.859497-2.47583-9.12584-7.083008-16.935089-16.977112-19.958512-8.803833-2.690231-17.337707-2.284073-24.896118 3.374543-7.014831 5.251632-8.77771 13.41571-10.081055 21.376205-1.297607 7.925537-1.649475 16.00592-2.430786 24.172974-.365234.153137-.779175.428283-1.225586.499176-15.82312 2.512634-15.674377 2.23526-13.651062-12.674225.81604-6.013306.798828-12.134781 1.366822-18.187683 1.436523-15.308991 5.374023-29.802536 15.268249-41.979203 5.451355-6.708877 13.177124-9.980728 21.497864-10.88858 25.033813-2.731323 38.109924 7.440491 44.780212 31.141144 3.929871 13.963257 5.429932 28.392822 5.342835 42.979568-.061402 10.275422.378296 20.560273.906372 30.82486.068176 1.323944 1.775085 3.267426 3.123962 3.714783 16.84491 5.586395 29.868897 16.371612 41.069641 29.69873 11.971009 14.243622 23.583618 28.804138 35.942871 42.701416 12.37201 13.91156 31.272522 7.456543 38.621949-6.170685 3.406311-6.315948 5.309204-13.893798 6.100097-21.096527 5.420838-49.371917 1.481873-98.944885 2.66095-148.417816.01532-.644607.104736-1.28743.209534-2.517548 18.165222.593323 36.27948.133561 49.647461 15.6792 7.422912 8.632049 11.174987 18.900848 12.473327 29.804886 1.695496 14.239517 2.938172 28.618454 3.038636 42.946762.333007 47.493591.06604 94.991394-.490357 142.951202-5.688232.455109-10.85675.446625-16.02533.438141m-192.182434-91.246857c0-1.120971 0-2.241943 0-3.698486-3.566528.313141-6.690246.40332-9.751342.888519-12.2901 1.947968-23.638062 5.851837-30.094788 17.553803-5.005066 9.070984-5.40863 18.986328-3.503906 28.991668 2.150146 11.294861 9.964721 16.887146 20.758362 14.344971 8.508667-2.004028 13.646362-8.259399 16.931396-16.017303 5.576843-13.170075 5.489075-27.164063 5.660278-42.063172z" fill="#020202"/><path d="m1546.160278 195.159058c10.305664 1.326202 20.605103 1.261901 29.86377 4.334137 11.320679 3.756454 19.386841 12.440506 23.963379 23.884094 5.211914 13.032196 6.786865 26.73735 6.93457 40.541138.498779 46.600433.641113 93.20465.917725 139.807434.010742 1.82611.001465 3.652343.001465 5.879303-5.132935 0-10.164063 0-15.682374 0 0-1.773743.002076-3.556611-.000244-5.339447-.054687-41.322846.169678-82.64917-.35083-123.966156-.139526-11.075898-1.027099-22.339173-5.515503-32.917405-5.541626-13.059967-13.294677-20.34999-28.451049-18.046173v5.177491c0 29.994552.150634 59.990158-.057496 89.983291-.121948 17.586121-1.166381 35.154358-5.83142 52.232178-3.340333 12.227692-8.483887 23.591827-19.412842 31.053772-13.30481 9.083893-34.037964 8.234497-45.978028-1.158203-6.978759-5.48996-13.392822-11.864167-19.290527-18.523041-8.854858-9.99765-17.335327-20.365356-25.408081-31.005737-6.994629-9.219117-15.220337-16.669281-25.62915-21.698548-.275025-.132904-.613038-.135742-1.42334-.30249-.270508 5.767792-.367554 11.46991-.837525 17.141144-1.206665 14.566101-3.114135 28.892059-9.867309 42.285095-10.433594 20.692566-36.62439 24.835999-52.645996 13.150879-7.119751-5.192688-11.584351-13.207733-13.109864-21.580475-3.165405-17.371826-2.106323-34.743622 6.05188-50.865356 10.531006-20.8107 27.728516-32.661927 50.739624-36.001801 2.939698-.426697 3.9198-1.4487 3.905274-4.384613-.079346-15.890686-.032227-31.785797-3.914063-47.350082-4.915039-19.707871-21.504394-27.534928-39.550049-19.302246-7.212158 3.290283-10.0708 10.487579-11.440185 17.694137-1.831909 9.639511-2.679932 19.465943-4.023682 29.773132-.432739.159821-1.590698.715516-2.811401 1.017945-9.757569 2.417785-12.733399.432587-12.21875-9.381714.867309-16.538681 1.610596-33.232895 7.985962-48.819351 6.835083-16.710602 17.146118-25.405594 34.6698-26.547196 24.864502-1.619842 36.038452 12.804718 41.147338 32.983307 5.738038 22.663605 5.81482 45.830658 5.506592 68.97699-.062988 4.720367 1.203613 6.926636 5.855469 8.213684 9.843384 2.723602 17.999878 8.533814 25.627319 15.221527 15.095703 13.236084 26.632935 29.522064 39.205933 44.943695 4.342895 5.327149 9.158081 10.503937 14.594238 14.653168 9.314942 7.109741 26.022339 3.249603 32.289063-6.853882 5.015503-8.086365 7.31018-16.887085 8.145752-26.443359 4.192993-47.952881 1.020385-95.98703 2.030151-143.968781.051758-2.460708-.646728-5.366607 4.014404-4.491485m-151.749023 180.372558c4.452392-14.13681 4.818115-28.665954 4.474731-44.453613-8.368408 1.915893-16.581543 2.728699-23.924072 5.696014-16.07019 6.494385-22.984985 21.091889-19.240234 43.682556 2.350219 14.177521 18.946411 18.173066 28.905517 8.927643 3.876465-3.598541 6.341919-8.717102 9.784058-13.8526z" fill="#030303"/><path d="m1168.172119 377.000092v32.721038c-5.134888 0-10.067139 0-15.685913 0 0-1.662262 0-3.416381 0-5.170501 0-40.498169.104981-80.996765-.065308-121.494233-.049804-11.857788-1.184326-23.759887-5.411987-34.919708-3.987305-10.525741-11.690307-21.371643-28.836792-18.935135 0 1.63205.002564 3.376389-.000244 5.120728-.055786 33.661728.347412 67.332962-.346191 100.981552-.395874 19.194885-2.161377 38.481995-10.997559 56.116425-5.169312 10.316558-12.909058 18.577056-24.414917 21.201324-14.504639 3.308197-28.873413 1.730988-39.823975-9.328033-10.698974-10.804902-20.345642-22.684967-30.070922-34.411011-8.484559-10.229981-16.424195-20.929047-27.416993-28.7164-2.917358-2.066712-6.116882-3.735077-9.46228-5.752442-.905395 10.752106-1.47998 20.954438-2.688171 31.081177-1.568177 13.144379-5.078858 25.554932-13.398926 36.425842-10.736511 14.028321-38.412354 16.171448-49.741089 3.447632-11.100586-12.46759-14.066284-26.337341-12.036865-42.442413 1.327148-10.532013 2.960449-20.758484 8.259888-30.039124 10.063415-17.623352 24.81958-28.936035 44.958801-32.808441 2.549072-.490204 5.104614-.946716 7.832824-1.451324.491456-17.859101 1.154664-35.723084-3.725585-53.197129-5.884766-21.070388-28.39679-26.013015-42.55658-14.66304-7.01648 5.624146-8.427368 14.126847-9.500977 22.469849-.858764 6.67395-1.196533 13.418518-2.187255 20.068939-.198487 1.332153-2.131043 3.045349-3.562745 3.40979-2.356567.599976-4.988586.007355-7.447937.33786-4.848022.651551-5.166687-2.18399-4.836914-5.753265.407105-4.406952.859558-8.812531 1.131714-13.228607.947266-15.37294 2.641236-30.5999 9.801148-44.570176 7.200561-14.049453 18.304748-21.242904 34.628784-21.707473 22.797424-.648773 33.955932 15.011078 38.480652 32.571304 6.045715 23.462784 5.927734 47.393204 5.886963 71.325638-.005433 3.220856.509887 4.923279 4.083252 5.936249 18.116699 5.135528 30.955688 17.765106 42.854248 31.41217 11.898681 13.647247 23.389404 27.649506 35.121948 41.442444 8.450928 9.935242 22.13623 7.124817 30.574707.351715 8.402099-6.743896 11.378662-16.514801 12.431763-26.555115 5.196533-49.549713 1.314941-99.278442 2.489379-148.914474.03064-1.298783.151246-2.595444.25293-4.274201 11.831665.414963 23.553467-.022781 34.480469 4.682434 15.554199 6.697647 23.390625 19.390122 26.815552 35.466462 3.606201 16.928451 3.988037 34.094833 4.084228 51.266525.168091 29.997528.046875 59.996643.046875 90.495148m-208.681885-41.39444c.479981-2.802399-.601867-3.952301-3.479004-3.457947-1.957824.336365-3.948364.492493-5.928344.687714-24.31659 2.397308-37.890625 19.123016-34.8396 43.240936.937866 7.413452 2.943237 14.618713 11.203858 17.22998 7.802795 2.466492 14.970275.463074 20.424438-5.420135 3.170654-3.420105 5.757813-7.709137 7.515259-12.049469 5.090698-12.572205 4.618774-26.003601 5.103393-40.231079z" fill="#020202"/><path d="m1167.959473 623.464111c-5.068116.488343-10.061524.518311-15.52417.556885-.510376-29.482727-.405884-58.975464-.661743-88.465027-.108521-12.505249-1.349244-24.965332-6.787964-36.507599-5.952515-12.632324-15.992188-20.436523-29.352906-24.205352-10.012817-2.824463-20.214599-3.471955-30.57434-4.059815-15.609986-.885712-30.886353-.074676-45.600708 5.200012-11.249512 4.032654-20.178955 11.093811-23.981629 23.077515-2.582519 8.138824-.359436 16.598206 5.316651 18.712036 5.153503 1.91919 10.618835 3.141419 16.042175 4.166504 11.887939 2.24707 23.991699 3.813477 34.182495 11.097107 7.906616 5.651123 11.93103 13.621765 14.073853 23.067383 5.990966 26.408142-13.720093 51.908325-37.364991 63.008117-11.800781 5.539612-24.024658 8.141236-37.018921 9.089722-16.779174 1.224732-32.940246-.685608-48.685241-6.195923-16.344544-5.720337-26.71106-17.411316-33.076172-33.359131-6.156922-15.426391-5.978882-31.520263-6.338745-47.612121-.253235-11.322449.150451-22.680542-.611878-33.963806-.5578-8.255524-1.911133-16.582428-4.05487-24.570252-2.119995-7.899383-11.525025-13.422241-19.53302-12.389526-3.981934.513489-8.206971 1.143524-11.717774 2.916992-8.865417 4.478424-10.190552 13.418396-11.667175 22.046997-.472107 2.75882-.510559 5.603729-1.143067 8.317017-.23291.999145-1.530029 2.364929-2.472412 2.478485-4.259216.513183-8.565246.637787-13.460632.939728 1.36438-22.460297 3.18512-43.43042 17.483643-60.327301 7.345703-8.680573 17.787902-10.725525 29.138-9.1409 17.53009 2.447449 24.497681 14.678009 28.475891 29.75116 4.930054 18.67929 4.777466 37.849273 5.179077 56.975524.22284 10.613221.227845 21.351746 1.881165 31.788208 3.082886 19.460145 14.361206 32.252137 34.119202 36.2016 24.846862 4.966674 49.613586 5.062011 73.695068-3.908753 4.82605-1.79779 9.234741-5.197998 13.249145-8.559936 4.200318-3.51764 6.761475-8.326477 5.453125-14.139099-1.44812-6.434693-7.051879-8.076966-12.321655-9.375184-8.874267-2.186035-17.95581-3.526184-26.839233-5.680297-21.089417-5.113953-31.221253-18.113099-32.385498-39.696228-1.663819-30.842499 17.650451-55.327393 45.263794-66.714539 15.279907-6.301086 31.224853-7.895416 47.416382-6.863709 15.942749 1.0159 31.543579 4.165253 45.440551 12.654267 16.228272 9.913177 25.831787 24.780395 29.634278 43.104034 2.199585 10.598908 3.736572 21.499878 4.005615 32.303955.811279 32.597351.855835 65.213868 1.124634 98.28125z" fill="#c47034"/><path d="m1591.129395 620.911316c.152221-26.309143.646728-52.622864.291015-78.92511-.14563-10.77124-1.409424-21.654785-3.430664-32.245605-3.77124-19.760071-16.581787-31.477112-35.859131-35.702485-8.72998-1.913543-17.876465-1.842193-26.774048-3.096832-13.746826-1.938446-27.236572-.133545-40.440185 3.144562-14.384033 3.571228-25.982544 11.142181-29.974243 26.682068-3.116577 12.132721 1.800171 16.907989 11.533081 19.181183 10.642578 2.485717 21.523559 4.108093 31.982544 7.187195 16.917358 4.980407 25.283447 16.819213 26.639038 33.962646 1.977783 25.010742-11.190186 41.213684-30.484986 53.848083-13.522094 8.854493-28.682495 12.178956-44.818237 13.30719-17.717041 1.238831-34.739502-.822815-50.958374-7.452819-17.580566-7.186646-27.821167-21.255371-32.632446-39.354432-3.0094-11.32019-4.230835-22.840393-4.15857-34.609924.096924-15.75592-.375488-31.524048-1.008911-47.27063-.200561-4.986847-1.334472-10.023102-2.681152-14.858551-2.678589-9.617279-8.921143-14.079956-19.556274-14.6474-9.741822-.519714-18.31897 4.41446-21.341675 13.256745-1.830689 5.355865-3.094361 11.143158-3.230103 16.769989-.120361 4.987884-2.37146 6.354065-6.420166 6.746582-9.508911.921905-11.290527-.624878-9.647949-11.504273 1.648437-10.917755 3.755859-21.903106 7.148071-32.377624 2.745728-8.478485 7.485352-16.375977 15.608765-21.396515 15.19751-9.392487 39.559326-4.855774 48.023437 14.745117 5.442872 12.604828 7.179688 26.044617 7.910889 39.504242.918945 16.915863.469483 33.903595 1.26294 50.829681.631591 13.474854 4.769409 25.915711 14.731323 35.635071 6.420776 6.264405 14.628052 9.222534 23.260498 10.665589 21.047729 3.518371 42.142456 3.787048 62.826294-1.96521 8.785644-2.44336 17.873169-5.403443 23.486572-13.628235 7.369507-10.797669 3.365845-18.98877-9.458496-21.471192-12.236328-2.368408-24.383179-5.432129-36.326538-9.002563-8.71875-2.606445-14.837036-9.137695-18.166992-17.459534-10.266724-25.657409-1.887818-54.458038 19.216552-72.444122 12.242432-10.433563 26.711426-16.449341 42.65857-18.762024 19.069336-2.765411 37.993408-1.601349 56.278076 4.224029 25.123291 8.004181 40.882934 25.517365 46.018921 51.279328 2.859253 14.34259 4.149414 29.148041 4.585205 43.791351.817383 27.463318.500488 54.960449.151733 82.938721-5.75061.488708-10.997558.482239-16.244384.475708z" fill="#c47034"/><path d="m828.247192 427.388092c5.269471-.451782 10.437989-.443298 16.056641-.437775.519104 27.984223.80188 55.973175.564453 83.957734-.11383 13.42099-.107971 26.999603-2.09552 40.215179-4.036133 26.837585-19.295776 46.559937-42.204224 60.568298-12.692626 7.761475-26.676269 12.480103-41.176879 14.873047-11.156311 1.841065-22.722718 2.941162-33.960938 2.189697-25.680847-1.716918-50.178955-7.816101-72.05249-22.598205-17.168518-11.602417-29.528076-26.748474-34.810303-46.581543-4.764221-17.887878-4.851745-36.20221 7.788269-51.470245 6.513184-7.867432 14.293274-15.171082 22.770081-20.827576 18.054138-12.047302 37.052307-22.669983 55.425659-34.253754 7.793396-4.913482 15.799499-9.826965 20.959778-17.954071.49707-.782867 1.506897-1.240082 2.148559-1.745849 2.926148 3.056396 5.752564 6.008636 8.990174 9.39035-4.028748 6.249359-9.978821 11.963989-17.072266 16.284973-17.321045 10.551086-34.926758 20.635742-52.223511 31.225647-11.505005 7.043823-22.371887 15.049835-28.771606 27.431091-9.78949 18.939514-4.510864 40.566773 12.421203 53.560059 15.363099 11.789246 33.025452 17.550659 51.772583 20.811523 18.613465 3.237793 37.291321 3.095642 55.95929.918885 17.250061-2.011475 33.926147-6.597412 47.825989-17.263794 12.356445-9.482117 20.37207-22.02826 20.480896-38.566773.239685-36.423065.720764-72.844513 1.204162-109.726898z" fill="#c67135"/><path d="m148.727173 109.258049c-1.112412-7.387375-2.619949-14.46167-2.584931-21.52832.065491-13.210984 2.53476-25.997341 7.914322-38.305256 4.432526-10.141171 9.920945-19.439129 17.075775-27.811447.198365-.232125.541733-.340348.515351-.324467 3.37912 3.251268 6.694382 6.441095 10.438186 10.043255-17.070602 22.55339-25.808761 47.141254-12.79158 75.497829.644348-3.415268 1.041931-6.899559 1.974533-10.234222 4.787308-17.117905 12.857956-31.921578 29.736267-39.995922 3.582856-1.713986 7.58574-2.605694 11.457612-3.64296 3.385589-.906994 5.235198-2.265823 5.116714-6.390575-.334198-11.635235-.116806-23.286318-.116806-35.251617h16.238708c0 2.270022 0 4.689735.000016 7.109449.000045 9.999399-.00293 19.998796.002426 29.998197.00116 2.149411-.281433 3.943497 2.9216 4.690552 24.758362 5.774467 37.054474 23.064709 42.402161 46.604145.244934 1.078049.67633 2.113754 2.120636 3.268395 1.068603-4.658707 2.49881-9.27166 3.095978-13.990044.514648-4.066544.432464-8.290634-.002411-12.379509-1.159088-10.899117-3.859711-21.378464-9.847382-30.757706-2.523193-3.952369-4.885589-8.044456-7.779816-11.710888-2.220886-2.813413-1.539459-4.68815.661866-6.826152 8.712158-8.461573 6.112304-8.907614 13.29544.738878 9.844574 13.220686 16.860138 27.878748 19.038788 44.171774 3.371948 25.216934.246613 49.341606-17.867035 68.983574-9.687591 10.504989-22.263244 16.853103-36.47644 18.633453-11.417145 1.430115-23.140915 2.882858-34.486054 1.795288-14.347671-1.375412-28.059845-5.496612-39.938583-15.218658-12.052689-9.864426-18.249039-22.378762-22.115341-37.167046m111.131073 16.097328c4.593994-1.306953 5.890472-4.471412 5.657379-9.010071-.447144-8.707435-1.781372-17.106407-5.666443-25.058952-8.774124-17.960174-27.544891-26.739494-46.126388-21.272392-20.672959 6.082466-31.843644 30.502022-29.203339 50.703232.165558 1.266738 1.713104 2.837074 2.997635 3.401535 23.648224 10.391861 47.569656 10.93695 72.341156 1.236648z" fill="#040404"/><path d="m1591.080933 621.383789c5.295288-.465942 10.542236-.459473 16.238647-.491943.2052 14.897033-.039551 29.83313-.283325 44.769165-.010864.665283-.280396 1.50061.019287 1.96997 3.283203 5.141419-.130737 10.116944-.343262 15.148804-.703613 16.647766-4.152099 32.93103-7.148803 49.981934-.47229 1.829101-.643189 2.988464-.814209 4.147766-2.588379 8.433288-5.17688 16.866577-8.104126 25.897156-1.150879 3.059997-1.962891 5.522583-2.774781 7.985229-.628296 1.162293-1.256714 2.324585-2.210937 4.018311-1.120728 2.388366-1.915772 4.2453-2.710694 6.102173-1.352783 2.41455-2.705444 4.829162-4.405639 7.796142-3.094605 4.435303-5.841797 8.318237-8.588989 12.201172-.598999.772705-1.198121 1.54541-2.208008 2.768677-2.612671 2.70636-4.814453 4.962158-7.016236 7.218017-.47229.137146-1.164184.120362-1.384277.434326-3.139404 4.478943-7.592773 6.933289-13.370727 8.665284-2.792603 1.092102-4.918091 1.93103-7.04358 2.769897-4.361816.746033-8.700561 1.690125-13.089965 2.198364-10.430176 1.207947-19.721192-2.69873-28.673462-7.243896-2.599976-1.319885-4.361084-4.29187-6.838257-6.999695-1.311646-1.619263-2.291748-2.745361-3.271973-3.871521 0 .000061-.045776-.430359-.147949-.966064-.995239-2.007203-1.888428-3.478699-2.781616-4.950196-1.389893-6.680603-2.779663-13.361145-4.185425-20.811523-.377441-1.536377-.739014-2.302979-1.100464-3.069519.021607-.181763.043335-.363587.113037-1.179138.328125-2.045472.608032-3.457337.888062-4.869202.074341-1.37677.148559-2.753601.527099-4.775208 1.832886-5.474853 3.361573-10.304931 4.890137-15.135009.305054-.663147.609985-1.326233 1.198975-2.49646 2.729736-4.521179 5.175537-8.535095 7.621215-12.549073 0 0-.061401-.05194.259156-.168823 1.169433-1.629822 2.018188-3.1427 2.866821-4.655639 0 0-.144653-.172242.268677-.123902 1.483276-1.32196 2.5531-2.692261 3.622925-4.062622 3.208252-3.444885 6.416626-6.88977 10.086547-10.775024 1.611817-2.035462 2.761719-3.630493 3.911744-5.225464.321533-.067932.575317-.237305 1.158447-.85669 1.533325-1.945495 2.669678-3.54248 3.80603-5.139404 0 0-.058227-.038513.258301-.153625 1.469971-1.693604 2.623535-3.272095 3.7771-4.850586 2.319335-3.083802 4.638793-6.167603 7.299804-9.773987 1.49939-2.410156 2.656861-4.297669 3.814453-6.185181.303101-.355346.606079-.710693 1.205567-1.524536 1.358886-2.156433 2.421386-3.854309 3.483764-5.552246 2.214234-4.631775 4.428467-9.263489 6.951172-14.42688 1.000855-2.183655 1.693238-3.835693 2.38562-5.487793 2.625733-8.093323 5.251587-16.186645 8.019532-24.991638.330688-1.838562.519043-2.965454.707519-4.092285.026856-.434693.053589-.869324.378784-1.811707 1.751465-.767334 3.204346-1.026977 4.657349-1.286621 1.01355.552979 1.970825 1.277893 3.049805 1.630615 6.329467 2.069031 7.082031 1.624634 4.101562 9.509888-.103271 1.821045-.098999 2.887268-.094726 3.95343-.000122 0-.166993.445679-.480835.955262-.818238 3.3255-1.32251 6.141418-1.826783 8.957397-.314209 1.303406-.628418 2.606811-1.206176 4.55127-1.739136 5.196838-3.2146 9.752563-4.690186 14.308349-.623657 1.16626-1.247436 2.33252-2.19104 4.038269-.810181 2.021057-1.300537 3.502686-1.791016 4.984314-4.653686 7.794678-9.307495 15.589356-14.313842 23.920532-3.442749 4.743592-6.532715 8.950684-9.622803 13.157776-3.003296 3.434693-6.006714 6.869324-9.366577 10.810486-1.442261 1.74707-2.528076 2.98761-3.61377 4.228149-.686889.775879-1.373901 1.551636-2.400146 2.813599-1.143799 1.671387-1.94812 2.856751-2.752442 4.042114 0 0 .107666.105103-.295166.113953-3.818237 5.028748-7.233642 10.048645-10.64917 15.068542-5.160644 7.375367-6.380004 15.745362-6.020019 25.140381 1.476074 3.443604 2.795654 6.221314 4.115234 8.998963 6.355347 4.443054 13.265992 6.908386 21.980835 5.886291 4.929932-1.661194 9.020874-3.271789 13.111817-4.882324.894043-.486511 1.788086-.972961 3.147216-1.776367 1.296387-.886475 2.127564-1.455994 2.958741-2.025513.546631-.553284 1.093261-1.106628 2.069824-2.075989 2.899658-2.975036 5.369385-5.534057 7.839111-8.093139 1.328736-1.457215 2.657349-2.914368 4.317505-4.868164 1.117554-1.709961 1.903565-2.923279 2.689697-4.136658.438599-.650147.87732-1.300293 1.543702-2.379883 1.256103-1.864502 2.284668-3.29956 3.31311-4.734619.156494-.607727.312988-1.215454.713989-2.256042 2.042114-3.836731 3.839722-7.240662 5.637451-10.644532.303955-.666198.60791-1.332397 1.170655-2.507141.697998-1.536865 1.137085-2.565246 1.576294-3.593628.13977-.383789.279541-.767517.677856-1.705627.681763-1.77356 1.105103-2.992737 1.528442-4.211975 1.106446-3.340088 2.212769-6.680115 3.542603-10.665894.557007-1.902161.890503-3.158691 1.223999-4.415161.993774-3.740112 1.987549-7.480225 3.034912-11.977112.347046-2.178833.640381-3.600891.933594-5.022888.03479-.44812.069458-.89624.176636-1.996582.323608-1.76886.574707-2.885498.825927-4.002075.033936-.448487.067993-.896973.174439-1.997925.325683-1.769165.578857-2.885986.832153-4.002747.674439-10.450744 1.504761-20.894409 1.981445-31.354126.528199-11.589111.733033-23.192871 1.127076-35.262756z" fill="#d3b58e"/><path d="m372.54776 235.525757c8.890076-14.8638 19.990601-27.160889 35.346924-34.686997 7.49353-3.672561 15.609894-7.25354 23.753448-8.190994 21.205414-2.441086 41.946472-.476395 59.954407 12.914291 18.737701 13.933381 29.456543 32.583008 33.51001 55.526505 4.033386 22.830017 2.057312 45.031555-5.755249 66.690918-7.207215 19.98111-19.902954 35.702179-40.112396 43.127686-16.425385 6.035156-33.476136 7.409545-49.382142-3.02649-7.081634-4.646301-11.363616-15.618774-9.08554-24.8768 2.068542-8.406403 5.059539-16.062134 9.560852-23.286743.43695-.701294.913849-1.398438 1.480285-1.994843 3.026459-3.18689 6.087281-6.341095 9.13617-9.506653 4.572876 3.133911 9.145752 6.267822 12.744964 8.734467-2.47116 6.124939-5.543518 11.226562-6.548278 16.707184-2.87854 15.701263 10.557159 21.64978 22.313964 18.849517 12.198334-2.905456 20.234742-11.074707 26.40561-21.603088 6.090484-10.391235 9.749298-21.638336 11.087188-33.42691 2.189789-19.294678.898346-37.88855-12.507446-53.877762-10.617645-12.663758-24.098572-18.841446-40.175598-19.481796-9.555725-.3806-19.29834-.586091-28.705567.816055-16.583465 2.471725-30.67456 10.034469-40.530273 24.231705-.837036 1.205719-1.872864 2.273452-2.972534 3.592697-3.039887-1.769715-6.037262-3.529023-9.04834-5.264527-5.439911-3.135376-5.437866-3.126205-2.212921-8.658813.564667-.968689 1.06131-1.97702 1.742462-3.308609z" fill="#030303"/><g fill="#fff"><path d="m1505.238892 751.959839c3.033325-5.032715 6.44873-10.052612 10.197387-15.109802.379883 4.072387-6.07959 13.721618-10.197387 15.109802z"/><path d="m1562.049805 669.05011c1.278442-4.836609 2.753906-9.392334 4.479248-14.241272 2.388916 5.255432-.012451 13.105957-4.479248 14.241272z"/><path d="m1534.122803 715.134277c2.901245-4.471191 5.991211-8.678283 9.345947-13.078918-.244873 1.920959-.169189 4.496399-1.392212 6.048706-2.17334 2.758362-5.133667 4.896667-7.953735 7.030212z"/><path d="m1570.15918 801.185181c2.542114-4.158448 5.289306-8.041382 8.291259-12.133301.506836-.009888.939698.155945.983399.393432.697143 3.786072-5.320191 11.724366-9.274658 11.739869z"/><path d="m1484.871582 751.096313c-1.139648 4.827027-2.668335 9.657105-4.489746 14.717774-2.200195-4.471253-.184448-11.328125 4.489746-14.717774z"/><path d="m1537.82373 786.806335c-3.870117 1.894532-7.961059 3.505127-12.436035 5.092835 2.657471-4.533142 7.507813-4.786987 12.436035-5.092835z"/><path d="m1571.89563 744.09491c-1.418457 3.408386-3.216065 6.812317-5.35791 10.348449-.031128-4.104614.235473-8.365051 5.35791-10.348449z"/><path d="m1553.870117 772.855103c-2.280395 2.823303-4.750122 5.382324-7.526855 8.091186.531982-4.221497 2.693725-7.403931 7.526855-8.091186z"/><path d="m1493.719727 736.065735c-2.084717 3.995972-4.530518 8.009888-7.273682 12.243347-.060059-5.183655 2.847168-9.0401 7.273682-12.243347z"/><path d="m1281.509521 239.94516c-.793701-2.973282-1.234008-5.997925-1.752685-9.427124 3.950561 1.086349 5.110962 6.281601 1.752685 9.427124z"/><path d="m1503.102783 785.74292c-1.470459-2.434204-2.790039-5.211914-4.090454-8.365845 4.214111 1.021912 5.779053 3.742249 4.090454 8.365845z"/><path d="m1568.138428 649.904785c.114868-2.811096.61914-5.627014 1.382202-8.72113 3.086426 2.686889 2.651367 5.813965-1.382202 8.72113z"/><path d="m1588.063232 771.060791c.619019-2.731567 1.431031-5.194153 2.511963-7.880371.840332.01831 1.411621.260193 1.98291.502075-1.433959 2.549133-2.868042 5.098206-4.494873 7.378296z"/><path d="m1561.141113 810.927856c1.790528-2.287353 3.99231-4.543151 6.482666-6.975097.670288 4.433105-1.310791 6.950317-6.482666 6.975097z"/><path d="m1538.999634 823.143188c2.057129-1.216186 4.182617-2.055114 6.654175-2.959594-.74292 4.573303-2.94336 5.65332-6.654175 2.959594z"/><path d="m1583.153931 781.184082c.589721-2.128601 1.384765-3.985535 2.450073-6.0401.736938.958252 1.912109 2.558472 1.523559 3.178406-.824584 1.315124-2.463501 2.119568-3.973632 2.861694z"/><path d="m1562.992432 624.524536c-1.445435.638184-2.898316.897827-4.626587 1.338867-.084229-1.398803-.410523-3.939209.397339-4.37445 2.199585-1.184937 4.009521-.157898 4.229248 3.035583z"/><path d="m1181.837646 804.754211c1.649415-1.504821 3.524048-2.653869 5.741211-3.883361.171143 3.775512-1.045654 6.213684-5.741211 3.883361z"/><path d="m1234.393799 722.952148c-.350708-1.67041-.331299-3.38861-.235108-5.530212 4.497925 1.165344 3.814331 3.210815.235108 5.530212z"/><path d="m1521.160645 730.186401c.878662-1.518127 1.964477-2.758667 3.306762-4.167724 1.769898 3.335632 1.119385 4.229919-3.306762 4.167724z"/><path d="m1534.845581 684.07959c-.79248 1.884704-1.949951 3.772217-3.391235 5.833191-1.802613-3.273377.471191-4.629334 3.391235-5.833191z"/><path d="m1216.106689 776.104065c.947144-2.177673 2.089966-4.079102 3.508667-6.184631.093384 2.563537 1.181397 6.015319-3.508667 6.184631z"/><path d="m1284.58667 276.987793c-.420044-1.376068-.483399-2.765747-.48999-4.569855 3.33435.763306 4.555664 2.267945.48999 4.569855z"/><path d="m1483.829834 801.174988c1.191406 1.22937 2.084595 2.700866 3.025391 4.498718-3.55188.619751-4.709595-.882873-3.025391-4.498718z"/><path d="m1548.865967 657.086548c-.321533 1.650879-1.013916 3.302917-1.986939 5.116577-3.089966-2.834473-.587646-3.921265 1.986939-5.116577z"/><path d="m1558.075195 678.072449c.285889-1.762207.776245-3.243836 1.53125-4.931397 1.705689 2.179016 2.969361 4.511902-1.53125 4.931397z"/><path d="m1282.497314 246.950043c-.404418-1.341095-.467895-2.728836-.506835-4.533081 3.678466.650177 4.235107 2.237106.506835 4.533081z"/><path d="m1514.681763 711.026184c-.73523 1.605042-1.885132 3.200073-3.340454 4.932373-.159058-2.147949-1.347901-5.282471 3.340454-4.932373z"/><path d="m1560.879639 763.854736c-.599121 1.473145-1.385132 2.686463-2.450684 4.059815-1.738525-2.642761-.839844-4.106934 2.450684-4.059815z"/><path d="m1585.58252 700.01123c.087524 1.410767-.205811 2.832825-.55481 4.620972-3.152222-1.439026-3.304199-3.108154.55481-4.620972z"/><path d="m1516.186768 736.839722c.418579-1.260559 1.2229-2.445923 2.292236-3.804688 2.745483 2.894287.767212 3.573303-2.292236 3.804688z"/><path d="m1072.075195 796.247803c1.560181.443542 3.130493 1.239502 4.835694 2.347107-1.518433-.457093-3.171997-1.225891-4.835694-2.347107z"/><path d="m1539.51123 677.008667c-.673584 1.68927-1.736084 3.387146-3.082031 5.301514-.364013-2.199585-1.112549-4.976624 3.082031-5.301514z"/><path d="m1519.668213 705.032837c-.74353 1.604248-1.879883 3.201233-3.324097 4.93103-.355835-2.277954-.66272-4.854004 3.324097-4.93103z"/><path d="m1523.70166 700.030029c-.758789 1.584412-1.912353 3.162903-3.363525 4.885865-.368286-2.286316-.610474-4.82837 3.363525-4.885865z"/><path d="m1496.820068 731.182434c-.462036 1.553772-1.310791 3.06665-2.465332 4.733826.489258-1.488648 1.284058-3.131653 2.465332-4.733826z"/><path d="m1487.040039 807.236084c.997803.739197 1.977905 1.865295 2.993408 3.318665-3.79187 1.86914-2.721924-1.166382-2.993408-3.318665z"/><path d="m1479.510986 771.047119c.052246 1.368225-.227661 2.78009-.587524 4.552796-2.514404-1.437867-2.687988-3.080872.587524-4.552796z"/><path d="m1565.535645 757.00769c-.640625 1.427369-1.66919 2.862427-3.021241 4.430787-.665527-2.247132-.442993-4.261231 3.021241-4.430787z"/><path d="m1599.12793 736.908203c-.207642-1.15802-.036743-2.317383.374389-3.728271.941162.24646 1.642334.744506 2.343384 1.242553-.779785.828125-1.55957 1.656311-2.717773 2.485718z"/><path d="m1500.708252 727.029968c-.67981 1.377136-1.749634 2.747437-3.146729 4.141663-.843139-2.507935-.066406-4.084412 3.146729-4.141663z"/><path d="m1586.618774 694.040771c.095826 1.077149-.155273 2.193787-.555175 3.632691-3.443848-1.294067-2.094483-2.487122.555175-3.632691z"/><path d="m1587.624756 688.039917c.09436 1.077515-.158814 2.194336-.560913 3.633423-3.447876-1.299378-2.092407-2.490723.560913-3.633423z"/><path d="m1581.635498 717.041016c.025757 1.215454-.307739 2.471984-.855713 3.974304-2.843262-1.634705-1.794067-2.889588.855713-3.974304z"/><path d="m1233.337158 729.966125c-.322143-1.034057-.309692-2.101928-.238769-3.566467.902832.181397 1.747314.759461 2.591797 1.337525-.67273.731689-1.345582 1.463379-2.353028 2.228942z"/><path d="m1557.613892 628.041748c.161499 1.086487-.026856 2.213379-.372193 3.6521-.807495-.234803-1.458374-.781494-2.109131-1.328247.71045-.76117 1.420899-1.522339 2.481324-2.323853z"/><path d="m1242.043579 229.406769c1.197144-.019608 2.437866.315643 3.941284.842407-1.588134 2.807968-2.841308 1.762939-3.941284-.842407z"/><path d="m1576.867188 732.092651c-.062378 1.207642-.485718 2.426819-1.107056 3.899353-2.970581-1.830993-.810669-2.790649 1.107056-3.899353z"/><path d="m1570.394043 639.935242c-.341675-1.004395-.345947-2.070618-.292847-3.532776 2.646973.537597 2.393433 1.892456.292847 3.532776z"/><path d="m1543.97229 783.003296c-.652954.854675-1.484131 1.424194-2.626343 2.045166.608765-.742493 1.528443-1.536377 2.626343-2.045166z"/><path d="m1478.618408 777.258728c.585205.559631.946778 1.326233 1.266113 2.41449-.524658-.521363-1.007324-1.364502-1.266113-2.41449z"/><path d="m1574.643433 738.068604c-.060791.958435-.499878 1.986816-1.218628 3.235717.09375-.908325.467041-2.036987 1.218628-3.235717z"/><path d="m1069.089355 794.182861c.886719.143433 1.79773.655091 2.85254 1.45929-.84668-.168701-1.837525-.629944-2.85254-1.45929z"/><path d="m1249.088867 231.516571c.944214.020096 1.971192.400528 3.217652 1.05986-.898682-.047241-2.016846-.373367-3.217652-1.05986z"/></g><path d="m636.165649 336.161316c-.171203 14.418762-.083435 28.41275-5.660278 41.582825-3.285034 7.757904-8.422729 14.013275-16.931396 16.017303-10.793641 2.542175-18.608216-3.05011-20.758362-14.344971-1.904724-10.00534-1.50116-19.920684 3.503906-28.991668 6.456726-11.701966 17.804688-15.605835 30.094788-17.553803 3.061096-.485199 6.184814-.575378 9.751342-.888519z" fill="#fefefe"/><path d="m1394.244263 375.886261c-3.275147 4.780853-5.740601 9.899414-9.617066 13.497955-9.959106 9.245423-26.555298 5.249878-28.905517-8.927643-3.744751-22.590667 3.170044-37.188171 19.240234-43.682556 7.342529-2.967315 15.555664-3.780121 23.924072-5.696014.343384 15.787659-.022339 30.316803-4.641723 44.808258z" fill="#fefefe"/><path d="m959.490356 336.094543c-.484741 13.738587-.012817 27.169983-5.103515 39.742188-1.757446 4.340332-4.344605 8.629364-7.515259 12.049469-5.454163 5.883209-12.621643 7.886627-20.424438 5.420135-8.260621-2.611267-10.265992-9.816528-11.203858-17.22998-3.051025-24.11792 10.52301-40.843628 34.8396-43.240936 1.97998-.195221 3.97052-.351349 5.928344-.687714 2.877137-.494354 3.958985.655548 3.479126 3.946838z" fill="#fefefe"/><path d="m259.536102 125.56955c-24.449356 9.486129-48.370788 8.94104-72.019012-1.450821-1.284531-.564461-2.832077-2.134797-2.997635-3.401535-2.640305-20.20121 8.53038-44.620766 29.203339-50.703232 18.581497-5.467102 37.352264 3.312218 46.126388 21.272392 3.885071 7.952545 5.219299 16.351517 5.666443 25.058952.233093 4.538659-1.063385 7.703118-5.979523 9.224244z" fill="#fdfdfd"/></svg>