<svg version="1.1" id="Layer_1" xmlns="http://www.w3.org/2000/svg" xmlns:xlink="http://www.w3.org/1999/xlink" x="0px" y="0px"
	 width="100%" viewBox="0 0 1024 416" enable-background="new 0 0 1024 416" xml:space="preserve">
<path fill="#000000" opacity="1.000000" stroke="none" 
	d="
M412.998352,249.766571 
	C412.978760,235.853958 412.978760,222.417923 412.978760,207.741898 
	C406.842865,212.490829 401.390442,216.480118 396.189148,220.773605 
	C360.881592,249.918762 328.778656,282.284393 299.571381,317.517029 
	C297.173065,320.410126 294.694946,321.516357 291.051666,321.380249 
	C284.727814,321.144043 278.371033,321.026001 272.062042,321.412811 
	C267.473999,321.694122 266.125549,319.339050 265.949921,315.580597 
	C265.358856,302.929626 265.033844,290.267914 266.961243,277.693176 
	C271.273254,249.561081 279.033875,222.406647 291.265564,196.689545 
	C303.717133,170.510040 319.617218,146.820862 343.885834,129.959198 
	C363.384857,116.411423 384.561127,113.143677 406.978088,121.645576 
	C421.253479,127.059708 428.823761,139.024414 435.005341,152.085938 
	C436.477478,155.196533 437.454468,158.574326 439.589905,161.311737 
	C442.494507,160.744278 444.331482,158.949875 446.365112,157.578537 
	C461.841431,147.142334 477.572784,137.130493 493.713684,127.733826 
	C498.115112,125.171471 501.196442,124.990654 504.420135,128.933838 
	C505.981018,130.843094 508.370758,132.002060 509.507507,134.326645 
	C509.048737,136.600388 507.147095,137.487274 505.592468,138.671814 
	C485.986877,153.610016 465.923767,167.947098 446.828827,183.559891 
	C444.393738,185.550903 443.273376,187.528183 443.288086,190.686035 
	C443.391968,213.014679 442.804077,235.361130 443.516205,257.667450 
	C444.035065,273.920868 445.550659,290.220001 449.760803,306.057220 
	C450.689453,309.550446 449.842773,311.307159 446.558411,312.568848 
	C441.431091,314.538483 436.354065,316.672516 431.389160,319.019257 
	C428.269135,320.493927 426.742035,319.934113 425.373962,316.640381 
	C420.419098,304.711090 417.337952,292.304810 415.747375,279.553284 
	C414.533478,269.821167 413.906158,260.015869 412.998352,249.766571 
M312.362183,221.811523 
	C306.126862,239.990555 300.524841,258.315582 299.527466,277.924286 
	C300.690338,277.303528 301.270813,276.289825 302.042664,275.452454 
	C317.173340,259.037140 332.800690,243.111786 349.295319,228.059723 
	C365.666412,213.120361 382.474304,198.690826 400.977417,186.414566 
	C412.994507,178.441620 413.171234,178.429718 407.144226,165.088058 
	C406.392731,163.424484 405.525848,161.794754 404.545532,160.255646 
	C394.061554,143.795471 383.400543,141.002579 366.157562,150.173187 
	C353.864319,156.711288 344.179504,166.304962 335.485931,176.920456 
	C324.777100,189.996719 318.636810,205.523285 312.362183,221.811523 
z"/>
<path fill="#000000" opacity="1.000000" stroke="none" 
	d="
M897.680664,264.565582 
	C893.196960,281.863129 888.650940,298.727753 884.608276,315.712219 
	C883.517517,320.294769 881.439453,321.547241 877.072266,321.382294 
	C869.419495,321.093201 861.745483,321.178955 854.085754,321.349060 
	C850.805786,321.421875 849.064148,320.230042 847.601440,317.220642 
	C822.255859,265.073334 794.786987,214.053162 765.664978,163.924347 
	C763.884888,160.860275 764.341187,159.419281 767.070679,157.507370 
	C794.491455,138.300217 821.869507,119.031418 849.161987,99.642570 
	C852.199280,97.484833 854.370361,97.858704 857.145630,99.887428 
	C872.884094,111.392265 888.402283,123.168694 903.082397,136.016769 
	C904.445618,137.209900 905.893372,138.306473 907.267334,139.419846 
	C909.582031,138.341278 909.956482,136.249939 910.735596,134.505386 
	C929.845337,91.715042 956.203308,54.000710 989.930725,21.461311 
	C993.281738,18.228384 996.992065,15.371089 1000.456177,12.251168 
	C1002.744385,10.190179 1004.753540,10.196013 1006.935974,12.427175 
	C1009.263733,14.806878 1011.637390,17.170744 1014.208313,19.276121 
	C1017.265930,21.780054 1016.931519,23.697392 1014.407227,26.613008 
	C999.900696,43.368401 986.058655,60.655247 973.974365,79.279022 
	C950.067871,116.122696 932.594238,155.989090 918.463867,197.426880 
	C910.943420,219.480865 903.923767,241.689392 897.680664,264.565582 
M803.438660,168.551498 
	C824.558533,203.437393 844.478516,239.012787 864.047302,275.951782 
	C864.825500,273.529388 865.233948,272.437958 865.528015,271.316528 
	C874.390015,237.527191 883.514160,203.817245 896.548340,171.326782 
	C897.640137,168.605316 897.204285,166.765350 895.186523,164.699890 
	C883.181152,152.410492 870.515198,140.886703 856.785645,130.532562 
	C853.997070,128.429596 851.929443,128.126846 848.937561,130.490417 
	C834.570557,141.840485 819.994446,152.925568 805.518250,164.137894 
	C804.301941,165.079956 802.316528,165.685974 803.438660,168.551498 
z"/>
<path fill="chocolate" opacity="1.000000" stroke="none" 
	d="
M642.857300,286.872437 
	C656.101929,275.793854 663.710327,261.508270 668.993225,245.817474 
	C675.669067,225.989395 677.066528,205.678909 672.641357,185.273468 
	C668.701233,167.104492 654.189880,156.031067 635.694153,155.229996 
	C613.622375,154.274063 595.234192,163.409851 578.024170,175.740509 
	C565.245728,184.896042 553.825745,195.626205 543.847351,207.788055 
	C541.133911,211.095200 539.089172,211.332092 535.657166,208.751694 
	C525.915894,201.427673 525.723694,201.502441 532.770569,191.594315 
	C547.621460,170.713547 565.247192,152.738861 587.873840,140.217453 
	C609.315247,128.351974 632.169495,122.654930 656.613770,126.856010 
	C681.042786,131.054474 696.459229,146.348221 702.033203,169.878845 
	C713.964233,220.245514 701.455078,264.979218 666.924988,303.135101 
	C653.459045,318.014923 636.039429,325.987610 615.185425,324.541168 
	C594.933777,323.136566 582.447998,311.995300 575.933228,293.486450 
	C572.086548,282.558105 571.091064,271.095184 570.712585,259.575714 
	C570.611816,256.507080 571.659424,254.873871 574.968018,254.917252 
	C581.966614,255.009033 588.967163,254.999451 595.966431,254.956894 
	C599.078430,254.937973 600.389404,256.237976 600.441589,259.459900 
	C600.544189,265.794495 601.330444,272.077820 603.318909,278.136261 
	C608.652954,294.387909 621.283203,299.401794 636.313965,291.202545 
	C638.498718,290.010773 640.492615,288.469208 642.857300,286.872437 
z"/>
<path fill="tan" opacity="1.000000" stroke="none" 
	d="
M115.188522,132.786652 
	C123.891396,140.630814 123.188240,138.295456 116.935562,146.881699 
	C96.504898,174.937241 82.689438,205.794266 77.499138,240.252289 
	C74.262383,261.740814 74.380791,283.375580 75.522652,305.008575 
	C75.666260,307.729370 75.236671,309.348999 72.633087,310.502472 
	C65.630966,313.604736 58.704807,316.880493 51.780674,320.155396 
	C49.937412,321.027222 48.411430,321.076477 46.751804,319.670380 
	C35.898319,310.474854 23.448238,303.631439 11.512646,296.044617 
	C8.257614,293.975555 7.963187,292.276550 10.245740,289.369629 
	C13.122789,285.705597 15.830597,281.893219 18.382704,277.995117 
	C19.982201,275.552002 21.686930,275.026154 24.218458,276.444946 
	C28.863356,279.048187 33.561184,281.557373 38.248646,284.084045 
	C39.657372,284.843384 40.759720,286.365601 42.728973,285.938477 
	C44.280487,284.462738 43.699455,282.512482 43.712177,280.767975 
	C43.921246,252.099747 47.835938,224.007111 57.730446,197.016891 
	C67.201790,171.180954 80.888824,148.021362 102.291183,129.989136 
	C105.882256,126.963516 108.615143,126.099289 111.872795,129.973755 
	C112.717484,130.978378 113.887291,131.709641 115.188522,132.786652 
z"/>
<path fill="tan" opacity="1.000000" stroke="none" 
	d="
M191.155548,209.023529 
	C184.779678,228.184357 181.781281,247.550766 181.321182,267.264679 
	C181.022369,280.067444 180.535995,292.910919 181.980530,305.696289 
	C182.249817,308.079712 181.210663,309.399780 179.133194,310.340271 
	C172.003540,313.567993 164.893997,316.841827 157.818604,320.186493 
	C155.916763,321.085510 154.415146,320.929565 152.812271,319.548096 
	C142.284439,310.474457 130.207428,303.666321 118.468842,296.389496 
	C114.943291,294.203979 114.160042,292.269867 116.821503,288.963226 
	C119.534904,285.592072 122.169136,282.136780 124.563339,278.535736 
	C126.422302,275.739777 128.467529,275.409698 131.321960,276.828003 
	C135.647461,278.977264 140.018845,281.009552 144.013763,283.775543 
	C145.456635,284.774536 146.733200,286.280334 148.879196,286.144684 
	C150.372726,284.231628 149.661514,281.987335 149.677902,279.922546 
	C149.900070,251.925873 154.013580,224.564224 163.397903,198.136581 
	C170.650528,177.712112 180.952972,158.964539 195.537750,142.765289 
	C197.937790,140.099564 200.373337,137.355331 204.378204,135.663879 
	C204.055786,141.752945 206.911743,146.576950 208.182114,151.825302 
	C208.443817,152.906540 209.031616,154.401337 209.876633,154.769119 
	C215.459976,157.199081 213.136612,160.771149 211.276840,164.079330 
	C203.262512,178.335266 196.116837,192.970108 191.155548,209.023529 
z"/>
<path fill="tan" opacity="1.000000" stroke="none" 
	d="
M432.999512,390.265320 
	C403.671844,389.872040 375.024689,387.389618 346.443390,383.590698 
	C298.312592,377.193329 251.237106,366.174286 204.808975,352.195862 
	C201.520523,351.205780 199.896484,351.700226 198.921143,355.095245 
	C198.310715,357.220001 198.045731,359.693787 195.513031,361.574280 
	C187.420700,354.143036 179.609436,346.471008 171.311142,337.559601 
	C183.204956,335.229797 193.921829,333.661560 204.453506,332.423676 
	C205.968613,334.289948 205.096848,335.682159 204.683792,337.066559 
	C202.710297,343.680664 202.674591,343.778503 209.434174,345.837311 
	C243.840576,356.316650 278.717468,364.781067 314.131836,371.189148 
	C366.114807,380.595306 418.484436,384.610992 471.222412,382.562775 
	C518.436218,380.729095 564.929504,373.598328 610.445068,360.626099 
	C638.994202,352.489410 666.821228,342.385406 693.869812,330.134460 
	C702.147827,326.385132 702.186646,326.486237 698.736145,317.860077 
	C698.500427,317.270966 698.450073,316.607697 698.175171,315.341736 
	C709.213501,315.341736 719.953491,315.341736 732.459473,315.341736 
	C725.094849,325.044922 718.583496,333.623840 712.043030,342.241119 
	C710.988892,341.496094 710.468811,341.297607 710.209229,340.920074 
	C704.900146,333.197998 704.863464,333.100189 696.538757,336.883270 
	C650.983154,357.585327 603.507751,372.157562 554.283569,380.895844 
	C528.720032,385.433899 502.945068,388.346741 476.952911,389.529205 
	C462.457886,390.188599 447.984436,390.107758 432.999512,390.265320 
z"/>
</svg>