<svg enable-background="new 0 0 1168 764" viewBox="0 0 1168 764" xmlns="http://www.w3.org/2000/svg"><path d="m838 765c-279.297302 0-558.094574 0-836.945928 0 0-254.597687 0-509.195389 0-763.896542h1167.766973v763.896542c-110.01648 0-220.168762 0-330.821045 0m-567.657959-159.138428c-4.303497 17.269532-9.040924 34.445191-12.803986 51.831726-5.053299 23.347779-7.456176 47.033692-6.223327 70.966187.364456 7.07489 1.283172 14.121216 1.963119 21.342407 14.935318 0 29.093216-.119202 43.246414.086792 3.387574.049316 5.455445-1.141052 7.537751-3.650635 49.175018-59.265991 102.913543-113.992798 162.536041-162.827758 9.722076-7.963074 19.739899-15.565125 29.417389-23.17389 0 13.338135-.013733 26.279663.002655 39.221192.048767 38.526733 1.140381 76.98468 11.131378 114.506347 3.103943 11.656922 7.466126 22.978821 11.402405 34.909302 13.568848-5.750061 25.931335-10.98883 38.11084-16.150146-10.242249-43.780091-13.064453-87.861389-12.772644-132.222962.153442-23.326843.770446-46.65039.979309-69.977234.03009-3.361633 1.13031-5.443908 3.745056-7.441711 29.782532-22.755737 59.484253-45.617249 89.212341-68.444244 5.892029-4.524262 11.804566-9.021912 18.075012-13.81247-4.913208-4.452515-9.532348-8.260406-13.67572-12.53009-2.643066-2.723694-4.669189-2.559204-7.663269-.679657-26.930664 16.905823-53.95758 33.658203-80.913696 50.523559-5.054566 3.162445-9.919983 6.62732-14.619507 9.782624-5.029053-10.378418-9.661377-20.508789-14.789185-30.381836-7.030761-13.536988-16.380157-25.443146-29.908538-32.754486-31.06366-16.788147-63.012543-16.3237-94.580384-1.692536-29.009094 13.44513-50.686767 35.855133-69.625793 60.958374-27.507599 36.460694-45.852264 77.527344-59.783661 121.611145m772.592896 55.702515c-15.032471-14.732727-33.906312-19.530945-53.973877-20.458801-.229981-.757386-.400818-1.058594-.401917-1.360535-.133179-36.49762-.054321-72.977966 5.509155-109.196533 5.94928-38.729431 18.606873-75.108185 37.556702-109.379883 21.342773-38.59964 48.869629-72.606293 78.136108-105.285217 14.751465-16.471558 30.131104-32.380585 45.287842-48.609375-7.307739-6.620758-14.667358-13.28862-22.069824-19.995224-26.667847 22.275802-51.379272 45.789169-74.564331 70.942459-22.768555 24.701355-43.055359 51.207886-60.033325 80.229217-36.208679 61.893341-53.34906 129.073426-55.441101 200.373047-.448731 15.292481-.06543 30.609375-.06543 46.095825-21.971375 4.127625-40.640991 15.148804-59.438232 25.865235-11.2771 6.42926-22.357789 13.223083-33.821534 19.296631-6.116516 3.240661-12.757141 5.608276-19.352966 7.790527-4.971008 1.644653-9.006409-.331055-11.867554-4.889221-5.404113-8.609314-7.725464-17.937317-7.182373-28.048462.62555-11.647461 1.394287-23.29187 1.749451-34.948364.970642-31.852234-.219727-63.660096-3.229919-95.365418-2.665345-28.073669-7.234559-55.841583-18.745118-81.882416-4.325866-9.786407-9.747863-19.088287-14.70758-28.683563-13.501892 6.560181-25.986878 12.626312-38.396546 18.655823 16.4646 47.768127 24.796387 104.419128 26.23169 156.094971.776794 27.964782.292175 55.974548-.102966 83.957214-.161744 11.45459 2.033691 22.058716 7.099365 32.269226 12.402527 24.998962 36.176147 36.109802 63.174865 29.253235 17.807862-4.522461 33.650208-13.365784 49.225586-22.726929 15.403992-9.258179 30.615601-18.842102 46.14209-27.887573 5.333374-3.107117 11.362305-5.020264 16.315613-7.152649 3.522522 10.513855 5.602844 20.441772 10.017029 29.192383 12.616211 25.010254 38.657471 37.923523 66.49176 34.143554 18.234314-2.476318 33.845886-14.621887 37.205628-30.323425 4.66455-21.799377-.629517-41.196838-16.748291-57.965759m-886.140015-465.271835c14.08934-13.677994 27.850616-27.715134 42.342178-40.952805 23.858994-21.794556 50.850983-39.351273 79.088028-54.78157 32.942078-18.001404 67.568512-32.246888 103.582337-43.057709 29.538147-8.866928 59.548797-15.152268 90.326141-17.557373 6.540436-.511101 13.089752-.908325 20.035767-1.385548-1.243012-6.668995-2.223633-12.888664-3.700715-18.988117-.271972-1.12311-2.561462-2.507574-3.909027-2.496239-7.645202.064305-15.2901.459162-22.929748.846403-28.793549 1.459492-57.203858 5.917645-85.178131 12.569859-48.26062 11.476263-94.62677 28.232546-138.605042 51.464582-50.042099 26.435326-93.990204 60.431275-130.762481 103.564621-19.446885 22.810913-35.960602 47.701218-48.7524 74.672043-9.377758 19.772522-16.862457 40.551727-23.809387 61.343811-11.56444 34.612244-16.443169 70.604065-17.164278 106.928436-.70398 35.461365.395849 70.960022.813175 106.441041.097813 8.315979.266871 16.661132 1.038406 24.933715 2.775849 29.763001 5.381358 59.553406 8.921311 89.229676 2.424297 20.323425 7.01901 40.292663 15.157293 59.243469 6.112019 14.232605 14.271309 26.998291 28.712513 33.963806 11.500282 5.547058 24.010681 6.796814 36.543312 4.587158 15.931145-2.80896 29.369019-10.004516 37.024826-25.042969 9.480149-18.622192 2.669174-36.518066-2.505844-54.762451-5.13594 1.518128-9.590881 2.773194-14.00531 4.157349-4.397583 1.378967-8.754517 2.887451-12.946014 4.27832.366012 5.634033 1.022339 10.764038.967773 15.886597-.131508 12.346985-11.524506 19.310181-22.853027 14.261169-9.972763-4.444763-13.183426-13.664611-16.032402-22.934509-5.750344-18.710327-7.61007-38.137573-8.929489-57.502685-1.921921-28.207886-3.349923-56.473023-4.013169-84.736695-.727112-30.984924-.201973-61.997192-.492553-92.995025-.244004-26.029145 1.712776-51.848511 6.751007-77.380616 7.227806-36.628112 19.195945-71.595794 37.108551-104.461731 13.439438-24.658615 28.895225-47.887512 48.176399-69.336013z" fill="#fff"/><path d="m270.482086 605.485474c13.791352-43.707703 32.136017-84.774353 59.643616-121.235047 18.939026-25.103241 40.616699-47.513244 69.625793-60.958374 31.567841-14.631164 63.516724-15.095611 94.580384 1.692536 13.528381 7.31134 22.877777 19.217498 29.908538 32.754486 5.127808 9.873047 9.760132 20.003418 14.789185 30.381836 4.699524-3.155304 9.564941-6.620179 14.619507-9.782624 26.956116-16.865356 53.983032-33.617736 80.913696-50.523559 2.99408-1.879547 5.020203-2.044037 7.663269.679657 4.143372 4.269684 8.762512 8.077575 13.67572 12.53009-6.270446 4.790558-12.182983 9.288208-18.075012 13.81247-29.728088 22.826995-59.429809 45.688507-89.212341 68.444244-2.614746 1.997803-3.714966 4.080078-3.745056 7.441711-.208863 23.326844-.825867 46.650391-.979309 69.977234-.291809 44.361573 2.530395 88.442871 12.772644 132.222962-12.179505 5.161316-24.541992 10.400085-38.11084 16.150146-3.936279-11.930481-8.298462-23.25238-11.402405-34.909302-9.990997-37.521667-11.082611-75.979614-11.131378-114.506347-.016388-12.941529-.002655-25.883057-.002655-39.221192-9.67749 7.608765-19.695313 15.210816-29.417389 23.17389-59.622498 48.83496-113.361023 103.561767-162.536041 162.827758-2.082306 2.509583-4.150177 3.699951-7.537751 3.650635-14.153198-.205994-28.311096-.086792-43.246414-.086792-.679947-7.221191-1.598663-14.267517-1.963119-21.342407-1.232849-23.932495 1.170028-47.618408 6.223327-70.966187 3.763062-17.386535 8.500489-34.562194 12.944031-52.207824m135.784851-22.715149c27.358979-24.649536 56.182373-47.381592 88.03595-66.626648-2.005249-6.861573-3.398804-13.603485-5.967011-19.863495-2.570983-6.266846-5.692626-12.503967-9.655761-17.968872-15.448456-21.302582-30.693482-27.058197-53.627289-16.242279-33.048615 15.586181-57.704804 40.56192-75.016785 72.271301-21.290588 38.996887-34.729889 80.950928-42.770202 124.612427-1.475739 8.013611-2.306641 16.145996-3.435181 24.223572 32.894409-34.860352 66.054321-68.761292 102.436279-100.406006z" fill="#c47034"/><path d="m1043.196533 661.80603c15.857178 16.526978 21.151245 35.924439 16.486695 57.723816-3.359742 15.701538-18.971314 27.847107-37.205628 30.323425-27.834289 3.779969-53.875549-9.1333-66.49176-34.143554-4.414185-8.750611-6.494507-18.678528-10.017029-29.192383-4.953308 2.132385-10.982239 4.045532-16.315613 7.152649-15.526489 9.045471-30.738098 18.629394-46.14209 27.887573-15.575378 9.361145-31.417724 18.204468-49.225586 22.726929-26.998718 6.856567-50.772338-4.254273-63.174865-29.253235-5.065674-10.21051-7.261109-20.814636-7.099365-32.269226.395141-27.982666.87976-55.992432.102966-83.957214-1.435303-51.675843-9.76709-108.326844-26.23169-156.094971 12.409668-6.029511 24.894654-12.095642 38.396546-18.655823 4.959717 9.595276 10.381714 18.897156 14.70758 28.683563 11.510559 26.040833 16.079773 53.808747 18.745118 81.882416 3.010192 31.705322 4.200561 63.513184 3.229919 95.365418-.355164 11.656494-1.123901 23.300903-1.749451 34.948364-.543091 10.111145 1.77826 19.439148 7.182373 28.048462 2.861145 4.558166 6.896546 6.533874 11.867554 4.889221 6.595825-2.182251 13.23645-4.549866 19.352966-7.790527 11.463745-6.073548 22.544434-12.867371 33.821534-19.296631 18.797241-10.716431 37.466857-21.73761 59.438232-25.865235 0-15.48645-.383301-30.803344.06543-46.095825 2.092041-71.299621 19.232422-138.479706 55.441101-200.373047 16.977966-29.021331 37.26477-55.527862 60.033325-80.229217 23.185059-25.15329 47.896484-48.666657 74.564331-70.942459 7.402466 6.706604 14.762085 13.374466 22.069824 19.995224-15.156738 16.22879-30.536377 32.137817-45.287842 48.609375-29.266479 32.678924-56.793335 66.685577-78.136108 105.285217-18.949829 34.271698-31.607422 70.650452-37.556702 109.379883-5.563476 36.218567-5.642334 72.698913-5.509155 109.196533.001099.301941.171936.603149.401917 1.360535 20.067565.927856 38.941406 5.726074 54.235473 20.700744m-18.103271 40.728455c-.230225-10.167786-5.530335-16.646423-15.085999-19.17926-6.338867-1.680237-12.977173-2.230835-20.098388-3.387268.115295 13.021423 1.625976 24.464111 11.549438 32.996337 4.771606 4.102601 10.326477 5.758851 16.222595 3.491272 5.679871-2.184387 7.131836-7.444519 7.412354-13.921081z" fill="#020202"/><path d="m156.577621 196.571228c-19.063873 21.169525-34.51966 44.398422-47.959098 69.057037-17.912606 32.865937-29.880745 67.833619-37.108551 104.461731-5.038231 25.532105-6.995011 51.351471-6.751007 77.380616.29058 30.997833-.234559 62.010101.492553 92.995025.663246 28.263672 2.091248 56.528809 4.013169 84.736695 1.319419 19.365112 3.179145 38.792358 8.929489 57.502685 2.848976 9.269898 6.059639 18.489746 16.032402 22.934509 11.328521 5.049012 22.721519-1.914184 22.853027-14.261169.054566-5.122559-.601761-10.252564-.967773-15.886597 4.191497-1.390869 8.548431-2.899353 12.946014-4.27832 4.414429-1.384155 8.86937-2.639221 14.00531-4.157349 5.175018 18.244385 11.985993 36.140259 2.505844 54.762451-7.655807 15.038453-21.093681 22.234009-37.024826 25.042969-12.532631 2.209656-25.04303.9599-36.543312-4.587158-14.441204-6.965515-22.600494-19.731201-28.712513-33.963806-8.138283-18.950806-12.732996-38.920044-15.157293-59.243469-3.539953-29.67627-6.145462-59.466675-8.921311-89.229676-.771535-8.272583-.940593-16.617736-1.038406-24.933715-.417326-35.481019-1.517155-70.979676-.813175-106.441041.721109-36.324371 5.599838-72.316192 17.164278-106.928436 6.94693-20.792084 14.431629-41.571289 23.809387-61.343811 12.791798-26.970825 29.305515-51.86113 48.7524-74.672043 36.772277-43.133346 80.720382-77.129295 130.762481-103.564621 43.978272-23.232036 90.344422-39.988319 138.605042-51.464582 27.974273-6.652214 56.384582-11.110367 85.178131-12.569859 7.639648-.387241 15.284546-.782098 22.929748-.846403 1.347565-.011335 3.637055 1.373129 3.909027 2.496239 1.477082 6.099453 2.457703 12.319122 3.700715 18.988117-6.946015.477223-13.495331.874447-20.035767 1.385548-30.777344 2.405105-60.787994 8.690445-90.326141 17.557373-36.013825 10.810821-70.640259 25.056305-103.582337 43.057709-28.237045 15.430297-55.229034 32.987014-79.088028 54.78157-14.491562 13.237671-28.252838 27.274811-42.559479 41.231781z" fill="#cdb592"/><path d="m405.988037 582.988098c-36.103058 31.426941-69.26297 65.327881-102.157379 100.188233 1.12854-8.077576 1.959442-16.209961 3.435181-24.223572 8.040313-43.661499 21.479614-85.61554 42.770202-124.612427 17.311981-31.709381 41.96817-56.68512 75.016785-72.271301 22.933807-10.815918 38.178833-5.060303 53.627289 16.242279 3.963135 5.464905 7.084778 11.702026 9.655761 17.968872 2.568207 6.26001 3.961762 13.001922 5.967011 19.863495-31.853577 19.245056-60.676971 41.977112-88.31485 66.844421z" fill="#fffefe"/><path d="m1025.11084 702.975098c-.298096 6.035949-1.750061 11.296081-7.429932 13.480468-5.896118 2.267579-11.450989.611329-16.222595-3.491272-9.923462-8.532226-11.434143-19.974914-11.549438-32.996337 7.121215 1.156433 13.759521 1.707031 20.098388 3.387268 9.555664 2.532837 14.855774 9.011474 15.103577 19.619873z" fill="#fbfbfb"/></svg>