<svg version="1.1" id="Layer_1" xmlns="http://www.w3.org/2000/svg" xmlns:xlink="http://www.w3.org/1999/xlink" x="0px" y="0px"
	 width="100%" viewBox="0 0 512 512" enable-background="new 0 0 512 512" xml:space="preserve">
<path fill="#000000" opacity="1.000000" stroke="none" 
	d="
M438.187134,59.963528 
	C436.923004,65.117004 435.539795,69.896500 434.252502,74.701706 
	C433.699005,76.767937 432.165497,77.732857 430.368134,78.181557 
	C409.903198,83.290466 394.464417,96.516113 379.071014,109.827446 
	C378.192291,110.587303 377.310730,111.352005 376.365112,112.022285 
	C375.991791,112.286926 375.439545,112.299179 374.944061,112.433022 
	C372.834900,111.381401 373.018311,109.555290 373.205597,107.711952 
	C373.733673,102.513977 374.861847,97.477272 378.161163,93.286606 
	C380.096252,90.828712 379.577637,89.286484 377.201294,87.592712 
	C363.300354,77.684708 361.760895,65.900848 371.745514,50.179985 
	C383.031647,32.409946 399.772888,24.423409 421.048859,26.577972 
	C425.088409,26.987047 425.769806,28.635332 424.394806,32.160725 
	C422.656036,36.618885 421.211823,41.191914 419.575500,45.902683 
	C406.687195,41.112144 395.324646,43.139431 385.173706,51.546669 
	C381.204376,54.834145 377.546875,59.132984 379.231201,64.345566 
	C380.756927,69.067314 386.145294,69.250626 390.639099,69.994186 
	C393.905823,70.534714 396.907990,70.002121 399.954865,69.123764 
	C410.973663,65.947197 421.982697,62.736046 433.017151,59.614815 
	C434.654663,59.151627 436.412964,57.831799 438.187134,59.963528 
z"/>
<path fill="#000000" opacity="1.000000" stroke="none" 
	d="
M331.645447,245.544876 
	C337.207397,242.005646 341.856903,241.774307 345.783966,244.899765 
	C349.291260,247.691101 351.061646,251.414520 349.954102,255.917709 
	C348.779236,260.694336 345.663452,263.806183 340.719604,264.589935 
	C336.002930,265.337677 332.225494,263.576019 329.659515,259.503479 
	C326.799377,254.964111 327.299438,251.184631 331.645447,245.544876 
z"/>
<path fill="#000000" opacity="1.000000" stroke="none" 
	d="
M350.218201,321.780365 
	C349.021790,327.384521 346.000275,330.935730 340.685638,331.897308 
	C336.398865,332.672943 332.784454,330.914978 330.205139,327.475891 
	C327.476593,323.837860 327.046753,319.866608 329.340820,315.774994 
	C331.567139,311.804138 334.912720,309.510834 339.503113,309.806793 
	C343.959045,310.094055 347.459778,312.241669 349.185150,316.550293 
	C349.789398,318.059174 349.910492,319.761505 350.218201,321.780365 
z"/>
<path fill="#000000" opacity="1.000000" stroke="none" 
	d="
M165.585907,276.393372 
	C171.144226,276.018158 175.445969,277.496033 177.868393,282.485840 
	C179.975693,286.826569 179.285690,290.897308 176.216522,294.484619 
	C173.266052,297.933258 169.385620,299.146301 165.017471,297.988556 
	C160.654160,296.832062 157.865097,293.861298 156.965164,289.422546 
	C156.055283,284.934692 157.790665,281.285889 161.275894,278.511475 
	C162.406174,277.611755 163.890930,277.157318 165.585907,276.393372 
z"/>
<path fill="#000000" opacity="1.000000" stroke="none" 
	d="
M165.255966,248.615799 
	C169.721954,242.806595 173.872208,241.367401 179.251221,243.498322 
	C183.714294,245.266418 186.664459,249.932343 186.230026,254.535950 
	C185.776550,259.341248 181.940125,263.553955 177.113968,264.546143 
	C168.281509,266.361969 162.044098,258.295624 165.255966,248.615799 
z"/>
<path fill="#000000" opacity="1.000000" stroke="none" 
	d="
M201.152557,215.759552 
	C205.121658,219.937180 206.303848,224.332016 203.588013,229.222198 
	C201.290482,233.359161 197.631104,235.599899 192.878998,235.161682 
	C187.928207,234.705154 184.570175,231.803497 183.166794,227.026443 
	C181.801544,222.379166 183.292816,218.442001 187.021576,215.465073 
	C191.587936,211.819412 196.255188,212.448975 201.152557,215.759552 
z"/>
<path fill="#000000" opacity="1.000000" stroke="none" 
	d="
M163.906311,321.796478 
	C164.856445,314.661224 167.920059,310.631226 173.125015,309.925201 
	C177.975906,309.267181 182.035187,311.052185 184.615845,315.312958 
	C187.910126,320.752014 185.826599,327.611115 180.143723,330.693573 
	C174.820786,333.580780 168.080475,331.478455 165.234985,325.961060 
	C164.633575,324.794922 164.369278,323.454895 163.906311,321.796478 
z"/>
<path fill="#000000" opacity="1.000000" stroke="none" 
	d="
M267.943848,200.414490 
	C266.352203,205.543823 263.196716,208.575272 258.263763,209.125946 
	C254.235748,209.575592 250.660141,208.047974 248.230896,204.695648 
	C245.460434,200.872467 244.899139,196.722626 247.525070,192.556442 
	C250.039948,188.566422 253.663620,186.394928 258.454712,187.153549 
	C263.293213,187.919678 266.730408,190.604538 267.846252,195.589813 
	C268.164673,197.012543 267.997345,198.543991 267.943848,200.414490 
z"/>
<path fill="#000000" opacity="1.000000" stroke="none" 
	d="
M262.618958,366.927673 
	C267.810394,371.095337 269.337006,375.471344 267.518951,380.145966 
	C265.553253,385.200256 261.329163,387.781006 255.719269,387.355133 
	C250.926300,386.991272 247.241379,383.661102 246.098068,378.632172 
	C245.147079,374.449310 246.743073,371.041382 249.689896,368.301697 
	C253.422714,364.831299 257.781189,364.935455 262.618958,366.927673 
z"/>
<path fill="#000000" opacity="1.000000" stroke="none" 
	d="
M349.830200,276.829590 
	C355.782379,279.969208 358.165558,284.198883 357.200806,289.341522 
	C356.373810,293.750092 351.998932,297.869415 347.578430,298.261627 
	C342.852814,298.680908 338.984406,297.047089 336.643250,292.820923 
	C334.458679,288.877350 334.480133,284.759857 337.185242,281.046387 
	C340.221497,276.878479 344.345093,275.270508 349.830200,276.829590 
z"/>
<path fill="#000000" opacity="1.000000" stroke="none" 
	d="
M284.027069,378.189819 
	C279.350616,373.023041 278.416595,368.873474 280.758423,364.423401 
	C282.982880,360.196442 286.534454,358.047974 291.310455,358.345825 
	C296.046722,358.641235 299.604828,360.971985 301.071899,365.574554 
	C302.552032,370.218231 301.642090,374.567322 297.750427,377.759949 
	C293.544098,381.210693 288.967651,381.262939 284.027069,378.189819 
z"/>
<path fill="#000000" opacity="1.000000" stroke="none" 
	d="
M316.164246,213.823837 
	C323.688995,212.005096 329.896088,215.451721 331.177338,221.821381 
	C332.381470,227.807648 328.043213,234.096680 321.991028,235.138397 
	C316.047699,236.161407 309.938812,231.543549 309.271820,225.266785 
	C308.715057,220.028000 311.339844,216.410675 316.164246,213.823837 
z"/>
<path fill="#000000" opacity="1.000000" stroke="none" 
	d="
M301.347168,202.784485 
	C301.888977,209.390732 299.204224,214.119034 294.197510,215.834381 
	C289.788330,217.344986 284.504120,215.633789 281.795746,211.818298 
	C278.712433,207.474594 278.948517,202.002350 282.337585,198.020981 
	C287.918091,191.465195 299.799500,194.008682 301.347168,202.784485 
z"/>
<path fill="#000000" opacity="1.000000" stroke="none" 
	d="
M314.524597,359.929108 
	C309.856628,356.511292 307.983734,352.315857 309.771454,347.099152 
	C311.367950,342.440399 314.746796,339.807526 319.847839,339.614777 
	C324.932159,339.422699 328.504395,341.670197 330.478455,346.272247 
	C332.376251,350.696533 331.522339,354.841797 328.179504,358.208069 
	C324.321136,362.093506 319.713654,362.300232 314.524597,359.929108 
z"/>
<path fill="#000000" opacity="1.000000" stroke="none" 
	d="
M189.845093,360.796326 
	C183.718643,357.118958 181.485016,352.170380 183.341949,347.034119 
	C185.285614,341.657928 190.194550,338.821533 195.962906,339.741669 
	C201.299179,340.592865 205.411636,345.733093 205.076645,351.133057 
	C204.756821,356.288361 200.277283,360.958588 195.153046,361.296753 
	C193.521713,361.404388 191.862747,361.093079 189.845093,360.796326 
z"/>
<path fill="#000000" opacity="1.000000" stroke="none" 
	d="
M219.997040,358.737549 
	C226.663452,357.701874 231.481583,359.957886 233.607880,364.841248 
	C235.679474,369.598999 234.152679,375.229614 229.995972,378.161652 
	C225.606628,381.257751 220.292282,380.937653 216.176697,377.679382 
	C211.298096,373.816925 210.371506,362.476135 219.997040,358.737549 
z"/>
<path fill="#000000" opacity="1.000000" stroke="none" 
	d="
M227.105042,215.714340 
	C221.486374,217.189667 217.079697,215.770325 214.185394,211.222748 
	C211.807327,207.486267 211.714981,203.273453 214.132233,199.465775 
	C216.778290,195.297638 220.729141,193.588699 225.677155,194.616241 
	C230.369690,195.590744 233.389999,198.412170 234.245438,203.127869 
	C235.277512,208.817383 233.269547,212.274887 227.105042,215.714340 
z"/>
</svg>