<svg version="1.1" id="Layer_1" xmlns="http://www.w3.org/2000/svg" xmlns:xlink="http://www.w3.org/1999/xlink" x="0px" y="0px"
	 width="100%" viewBox="0 0 512 512" enable-background="new 0 0 512 512" xml:space="preserve">
<path fill="#000000" opacity="1.000000" stroke="none" 
	d="
M261.376709,44.766399 
	C266.505737,65.532898 278.418823,80.626770 296.730255,90.699303 
	C299.364624,92.148384 300.895142,94.127258 300.855316,96.979584 
	C300.783478,102.123688 300.541443,107.275665 300.097595,112.400726 
	C299.801453,115.819626 297.194366,115.633011 294.837158,114.907448 
	C289.269867,113.193787 284.911072,109.636742 280.981934,105.452782 
	C271.898682,95.780396 264.684937,84.885368 259.306427,71.905075 
	C256.868256,77.672592 255.066956,82.954155 252.402451,87.856827 
	C248.081711,95.806946 243.070938,103.215714 236.395004,109.392342 
	C235.056107,110.631096 233.661255,111.865555 232.114624,112.811752 
	C229.009979,114.711090 225.483658,117.507545 222.040314,115.663589 
	C218.969101,114.018913 221.146194,109.874161 220.673645,106.878632 
	C220.571152,106.229004 220.759613,105.531464 220.644699,104.886139 
	C219.506195,98.491776 222.286423,95.021637 227.866165,91.561516 
	C243.380280,81.940865 250.648315,66.542183 254.628159,49.321899 
	C255.001907,47.704727 255.323563,46.074738 255.634659,44.444073 
	C255.971527,42.678249 255.886215,40.297234 258.130737,40.098701 
	C260.878723,39.855644 260.622650,42.637886 261.376709,44.766399 
z"/>
<path fill="#000000" opacity="1.000000" stroke="none" 
	d="
M140.124878,241.253464 
	C139.369553,234.432190 141.103729,230.476318 145.523605,228.873016 
	C149.836319,227.308594 153.789261,228.181046 156.862961,231.628098 
	C160.687088,235.916733 159.773132,243.025284 155.172028,246.203629 
	C149.932770,249.822784 143.971283,247.998474 140.124878,241.253464 
z"/>
<path fill="#000000" opacity="1.000000" stroke="none" 
	d="
M371.686768,320.305725 
	C374.966156,324.401215 375.327454,328.539276 372.901245,332.636932 
	C370.884033,336.043854 367.582306,337.727448 363.602570,337.120667 
	C359.336517,336.470215 356.222443,334.053497 355.150055,329.720154 
	C354.096161,325.461304 355.266571,321.552277 358.946686,319.209137 
	C363.047089,316.598328 367.442932,316.763336 371.686768,320.305725 
z"/>
<path fill="#000000" opacity="1.000000" stroke="none" 
	d="
M361.895630,247.405609 
	C356.480072,244.816360 354.018524,240.817184 354.967987,236.370544 
	C355.983521,231.614517 358.995850,228.742081 363.835968,228.262253 
	C368.193909,227.830215 371.680023,229.529083 373.485901,233.721146 
	C375.038086,237.324310 374.800049,240.938583 372.394073,244.089417 
	C369.856079,247.413116 366.442383,248.706039 361.895630,247.405609 
z"/>
<path fill="#000000" opacity="1.000000" stroke="none" 
	d="
M214.420425,399.859985 
	C206.592041,400.212463 202.298477,396.273346 202.683762,389.566803 
	C203.022354,383.672485 207.853348,379.882751 214.109711,380.758148 
	C218.816864,381.416840 221.475571,384.358002 222.195557,388.939850 
	C222.975220,393.901215 220.396820,397.526611 214.420425,399.859985 
z"/>
<path fill="#000000" opacity="1.000000" stroke="none" 
	d="
M207.637985,183.568298 
	C202.222748,179.211792 201.095139,173.494629 204.493881,169.101395 
	C207.609528,165.074081 214.234909,164.155029 218.370361,167.176453 
	C222.539383,170.222412 223.551300,176.005859 220.701218,180.497925 
	C218.191101,184.454102 213.653961,185.619995 207.637985,183.568298 
z"/>
<path fill="#000000" opacity="1.000000" stroke="none" 
	d="
M297.290588,399.117859 
	C292.746155,396.440369 290.977081,392.765411 292.055634,387.990723 
	C292.990173,383.853821 295.697388,381.329407 299.933777,380.733002 
	C304.261475,380.123718 307.912445,381.431519 310.114105,385.378967 
	C312.123505,388.981720 312.167603,392.812439 309.670807,396.168823 
	C306.602142,400.293884 302.398315,401.071411 297.290588,399.117859 
z"/>
<path fill="#000000" opacity="1.000000" stroke="none" 
	d="
M149.085419,337.241913 
	C142.185410,335.526642 139.167542,331.794952 139.724426,326.169159 
	C140.192444,321.441040 143.842133,317.915009 148.524536,317.667267 
	C154.490402,317.351562 158.560898,320.654358 159.210190,326.337494 
	C159.834717,331.804016 156.170792,335.918213 149.085419,337.241913 
z"/>
<path fill="#000000" opacity="1.000000" stroke="none" 
	d="
M267.117371,399.080688 
	C265.101501,408.535492 256.553070,412.171814 250.299881,406.546509 
	C247.396194,403.934326 246.257355,400.619995 247.442444,396.675537 
	C248.774261,392.242706 252.139542,390.255249 256.306885,389.911438 
	C260.318909,389.580444 263.786224,391.246735 265.874054,394.918213 
	C266.512085,396.040222 266.695801,397.420502 267.117371,399.080688 
z"/>
<path fill="#000000" opacity="1.000000" stroke="none" 
	d="
M302.658752,184.783356 
	C299.776245,184.720352 297.326904,184.425262 295.352509,182.633194 
	C291.933350,179.529800 290.732269,175.819107 292.485687,171.440598 
	C294.260590,167.008408 298.036987,165.054749 303.357849,165.627548 
	C307.431213,166.066055 310.142181,168.287796 311.157745,172.191803 
	C312.418243,177.037674 310.447601,181.489685 306.324554,183.625732 
	C305.315063,184.148727 304.139374,184.350830 302.658752,184.783356 
z"/>
<path fill="#000000" opacity="1.000000" stroke="none" 
	d="
M366.149933,288.676849 
	C364.727112,286.469757 364.317169,284.385529 364.434082,282.167877 
	C364.694458,277.230316 367.484344,273.648804 371.964996,272.900787 
	C376.557159,272.134125 380.326538,273.683502 382.330994,277.992279 
	C384.311523,282.249695 383.903290,286.482666 380.531036,290.008484 
	C377.721741,292.945709 372.085510,293.375580 368.505005,291.052826 
	C367.688538,290.523163 367.071167,289.686554 366.149933,288.676849 
z"/>
<path fill="#000000" opacity="1.000000" stroke="none" 
	d="
M330.474854,361.911407 
	C333.856049,356.000916 338.632935,354.264709 343.928040,356.698700 
	C348.553009,358.824646 350.613617,364.003723 348.752533,368.824463 
	C346.960999,373.464996 341.662079,376.171844 337.020782,374.817352 
	C331.678101,373.258118 329.191193,368.604706 330.474854,361.911407 
z"/>
<path fill="#000000" opacity="1.000000" stroke="none" 
	d="
M133.824463,290.135101 
	C132.184891,288.365448 131.165878,286.686096 130.810486,284.650574 
	C130.010056,280.065948 132.087769,275.703156 136.007614,273.770416 
	C140.027557,271.788391 144.609695,272.640411 147.343430,275.878296 
	C150.055099,279.090057 150.426880,285.039642 148.131897,288.496002 
	C145.714066,292.137299 141.081818,293.575836 136.639801,291.961548 
	C135.727386,291.629974 134.949860,290.927216 133.824463,290.135101 
z"/>
<path fill="#000000" opacity="1.000000" stroke="none" 
	d="
M248.077560,161.424194 
	C252.268005,156.366562 257.659821,155.037186 262.258514,157.616669 
	C265.946198,159.685135 267.826813,164.169769 266.706177,168.222977 
	C265.181915,173.736176 259.509033,176.719147 253.730591,175.045914 
	C248.396255,173.501282 246.152313,168.385666 248.077560,161.424194 
z"/>
<path fill="#000000" opacity="1.000000" stroke="none" 
	d="
M349.320190,200.022217 
	C348.403046,206.690155 344.335602,210.311066 338.744995,209.862167 
	C333.884460,209.471878 329.824738,205.091599 329.772247,200.180908 
	C329.720673,195.356552 333.417633,191.047653 338.062836,190.517990 
	C344.264771,189.810837 348.096313,192.903748 349.320190,200.022217 
z"/>
<path fill="#000000" opacity="1.000000" stroke="none" 
	d="
M166.229828,205.425385 
	C162.227539,198.326279 166.988693,191.672699 171.808105,190.707748 
	C176.916351,189.684967 181.325699,191.596542 183.065399,195.818527 
	C184.954468,200.402985 183.791031,205.397034 180.235031,207.967926 
	C175.936295,211.075775 171.086243,210.295776 166.229828,205.425385 
z"/>
<path fill="#000000" opacity="1.000000" stroke="none" 
	d="
M173.312820,375.061096 
	C165.863083,372.450531 162.905533,367.005035 165.505981,361.334808 
	C167.813553,356.303192 174.045303,354.174805 179.000687,356.820435 
	C182.989853,358.950165 184.539429,362.466095 183.844559,366.804962 
	C183.002457,372.063110 180.055832,374.347534 173.312820,375.061096 
z"/>
</svg>