<svg enable-background="new 0 0 770 616" viewBox="0 0 770 616" xmlns="http://www.w3.org/2000/svg"><path d="m518 617c-172.666656 0-344.833328 0-517 0 0-205.333344 0-410.666672 0-616h770v616c-84.166687 0-168.333313 0-253 0m55.197937-111.380768c9.657959-2.42923 19.598694-4.071686 28.925171-7.42334 41.209961-14.809417 68.570496-42.268127 75.190124-86.826873 6.254395-42.100037-6.121521-77.962281-38.836975-105.991028-4.758423-4.076721-10.289245-7.251831-15.554321-10.907715 13.708313-30.807373 25.102539-62.278854 27.065308-96.733841h96.174377c0-10.652359 0-20.87529 0-31.173737-243.097351 0-485.853638 0-728.699863 0v31.272293h5.737688c67.331575 0 134.663164 0 201.994737.000031 1.166642 0 2.466263-.325653 3.46669.082245 1.288712.525436 3.017579 1.419281 3.377854 2.535126 2.08905 6.470123 4.415161 12.950241 5.578995 19.615905 3.168411 18.146912 1.584579 35.965027-4.961777 53.490937-1.366089-.697205-2.411957-1.19336-3.42305-1.752442-33.069489-18.28511-68.198059-27.185592-106.088684-22.74707-20.405419 2.39032-39.832932 8.050323-56.724777 20.262909-11.538365 8.342071-21.387654 18.428039-24.57029 32.868561-6.88261 31.228302 7.606777 59.532165 38.278687 74.539703 25.797943 12.622742 53.127937 14.076447 80.97599 8.621033 22.302063-4.368927 42.096954-14.369812 60.212021-27.825226 6.194412-4.601044 12.04338-9.667114 18.071212-14.53772 22.284821 35.428925 8.062409 87.690521-30.812072 108.333038-16.988907 9.02118-35.000977 13.38733-54.055558 14.064271-24.417007.867431-48.343269-1.904938-70.695213-12.220215-15.018234-6.930817-29.403824-15.232514-44.503887-23.147004-5.366264 9.529419-11.276239 20.024354-17.729921 31.484803 13.182214 7.727569 25.708524 16.014557 39.033132 22.713806 50.398667 25.338806 102.604843 28.750214 155.988098 10.71112 17.521332-5.920715 33.138413-15.52243 46.136689-28.91925 21.447814-22.105438 32.395019-48.533173 33.714386-79.389893 1.130859-26.448333-4.814881-50.927154-20.629761-71.897247-6.751038-8.95166-6.348236-15.008972-1.852082-24.315094 10.819275-22.393799 14.171845-46.337692 10.121949-71.039734-1.171875-7.147476-3.095002-14.171768-4.688263-21.317856h125.110962c3.218536 34.866547 16.679657 66.576981 29.363952 98.472855-2.569915 1.546875-4.720947 2.808105-6.839386 4.121796-26.561248 16.471069-43.736267 39.664184-49.30365 70.624176-4.626159 25.725677-1.251861 50.676452 9.136536 74.710815 17.054535 39.456909 54.696167 60.268494 96.484375 59.83786 2.842712-13.133392 5.705048-26.3573 8.634461-39.891266-3.37912-.265533-6.350831-.417877-9.303254-.744384-17.904022-1.980195-34.09613-7.924744-46.497406-21.542054-18.647216-20.475708-23.720031-44.752472-17.286193-71.103271 4.655487-19.067352 16.453125-33.03476 34.882751-40.72171 19.269958 22.390197 42.455841 37.477783 72.500092 36.895416 29.474914-.571381 54.047302-13.564911 74.057678-35.572266 24.424927 16.900452 35.398926 40.282257 31.156738 68.705231-6.002075 40.21405-31.720886 60.765259-71.809753 64.433533 2.864685 12.686126 5.60382 25.167358 8.645568 37.574432.226441.923584 2.623291 1.315033 4.849915 1.768341m-461.032242 50.696381c-24.342789-3.236267-48.448479-7.653809-72.243225-14.877442-3.20137 8.129212-6.284878 15.959046-9.356636 23.759095.708559.545349 1.060783.896667 1.479469 1.127258 27.077523 14.912476 55.592652 26.027344 85.834534 32.641235 19.338333 4.22937 38.87674 5.895935 58.546143 3.691223 26.78778-3.002624 52.394928-10.629699 76.952942-21.628662 10.365676-4.642517 20.388595-10.050415 30.65599-15.154541-3.487518-8.772522-6.590454-16.577575-9.494293-23.881958-14.331604 3.241272-28.010559 6.660462-41.824661 9.397522-39.608429 7.847718-79.447983 11.230408-120.550263 4.92627m175.328842-443.243866c6.551941-5.317986 13.932526-9.895264 19.484833-16.106781 11.886475-13.297714 18.747681-29.701523 25.572266-45.972309.428985-1.02282.071747-3.209996-.703583-3.769779-5.60376-4.045865-11.409546-7.811928-17.168304-11.677998-5.426026 8.518017-10.20868 16.698738-15.642548 24.421242-12.658051 17.989299-31.33609 24.495372-51.042297 17.920253-9.148453-3.052436-16.219284-9.229438-21.70015-16.931991-5.742767-8.070606-10.827911-16.609146-16.43927-25.31358-6.301285 4.228585-12.598846 8.454682-18.930908 12.703926 7.080902 16.800412 14.316101 32.966664 25.387543 47.188168 17.342102 22.276298 45.716354 29.628944 71.182418 17.538849z" fill="#fefefe"/><path d="m572.778564 505.711975c-1.807251-.546051-4.204101-.9375-4.430542-1.861084-3.041748-12.407074-5.780883-24.888306-8.645568-37.574432 40.088867-3.668274 65.807678-24.219483 71.809753-64.433533 4.242188-28.422974-6.731811-51.804779-31.156738-68.705231-20.010376 22.007355-44.582764 35.000885-74.057678 35.572266-30.044251.582367-53.230134-14.505219-72.500092-36.895416-18.429626 7.68695-30.227264 21.654358-34.882751 40.72171-6.433838 26.350799-1.361023 50.627563 17.286193 71.103271 12.401276 13.61731 28.593384 19.561859 46.497406 21.542054 2.952423.326507 5.924134.478851 9.303254.744384-2.929413 13.533966-5.791749 26.757874-8.634461 39.891266-41.788208.430634-79.42984-20.380951-96.484375-59.83786-10.388397-24.034363-13.762695-48.985138-9.136536-74.710815 5.567383-30.959992 22.742402-54.153107 49.30365-70.624176 2.118439-1.313691 4.269471-2.574921 6.839386-4.121796-12.684295-31.895874-26.145416-63.606308-29.363952-98.472855-41.940247 0-83.549256 0-125.110962 0 1.593261 7.146088 3.516388 14.17038 4.688263 21.317856 4.049896 24.702042.697326 48.645935-10.121949 71.039734-4.496154 9.306122-4.898956 15.363434 1.852082 24.315094 15.81488 20.970093 21.76062 45.448914 20.629761 71.897247-1.319367 30.85672-12.266572 57.284455-33.714386 79.389893-12.998276 13.39682-28.615357 22.998535-46.136689 28.91925-53.383255 18.039094-105.589431 14.627686-155.988098-10.71112-13.324608-6.699249-25.850918-14.986237-39.033132-22.713806 6.453682-11.460449 12.363657-21.955384 17.729921-31.484803 15.100063 7.91449 29.485653 16.216187 44.503887 23.147004 22.351944 10.315277 46.278206 13.087646 70.695213 12.220215 19.054581-.676941 37.066651-5.043091 54.055558-14.064271 38.874481-20.642517 53.096893-72.904113 30.812072-108.333038-6.027832 4.870606-11.8768 9.936676-18.071212 14.53772-18.115067 13.455414-37.909958 23.456299-60.212021 27.825226-27.848053 5.455414-55.178047 4.001709-80.97599-8.621033-30.67191-15.007538-45.161297-43.311401-38.278687-74.539703 3.182636-14.440522 13.031925-24.52649 24.57029-32.868561 16.891845-12.212586 36.319358-17.872589 56.724777-20.262909 37.890625-4.438522 73.019195 4.46196 106.088684 22.74707 1.011093.559082 2.056961 1.055237 3.42305 1.752442 6.546356-17.52591 8.130188-35.344025 4.961777-53.490937-1.163834-6.665664-3.489945-13.145782-5.578995-19.615905-.360275-1.115845-2.089142-2.00969-3.377854-2.535126-1.000427-.407898-2.300048-.082245-3.46669-.082245-67.331573-.000031-134.663162-.000031-201.994737-.000031-1.814127 0-3.628256 0-5.737688 0 0-10.429351 0-20.65068 0-31.272293h728.699863v31.173737c-31.929016 0-63.836059 0-96.174377 0-1.962769 34.454987-13.356995 65.926468-27.065308 96.733841 5.265076 3.655884 10.795898 6.830994 15.554321 10.907715 32.715454 28.028747 45.09137 63.890991 38.836975 105.991028-6.619628 44.558746-33.980163 72.017456-75.190124 86.826873-9.326477 3.351654-19.267212 4.99411-29.344544 7.516083m-60.343994-179.449127c7.927735 2.758026 16.04065 3.038147 24.019226.756531 16.533997-4.728119 27.185425-16.914063 36.300537-30.422974 10.689271-15.841858 17.75702-33.443939 22.686463-51.867233 4.073669-15.225037 7.242615-30.624176 7.767456-46.570664-51.818726 0-103.334564 0-154.903778 0 .244232 2.476258.465484 4.625946.667053 6.777481 3.085175 32.925599 11.70108 64.115586 30.141083 91.92186 8.236053 12.419403 18.153839 23.433502 33.32196 29.404999m-365.570846 21.367401c25.43753-3.801331 46.069641-16.180695 63.367096-35.446716-4.438965-2.759278-8.531739-5.629639-12.908799-7.967865-19.43428-10.381775-40.226333-15.880493-62.253463-15.908997-16.344925-.021149-32.208359 2.422058-45.878815 12.578278-6.466431 4.804107-9.26075 11.245025-8.310608 19.1026 1.325241 10.959472 9.412384 16.476898 18.240303 20.75708 14.806633 7.178955 30.711037 8.153656 47.744286 6.88562z" fill="#020202"/><path d="m112.605217 556.401733c40.662758 6.218018 80.502312 2.835328 120.110741-5.01239 13.814102-2.73706 27.493057-6.15625 41.824661-9.397522 2.903839 7.304383 6.006775 15.109436 9.494293 23.881958-10.267395 5.104126-20.290314 10.512024-30.65599 15.154541-24.558014 10.998963-50.165162 18.626038-76.952942 21.628662-19.669403 2.204712-39.20781.538147-58.546143-3.691223-30.241882-6.613891-58.757011-17.728759-85.834534-32.641235-.418686-.230591-.77091-.581909-1.479469-1.127258 3.071758-7.800049 6.155266-15.629883 9.356636-23.759095 23.794746 7.223633 47.900436 11.641175 72.682747 14.963562z" fill="#020202"/><path d="m287.155884 113.232986c-25.127411 11.928856-53.501663 4.57621-70.843765-17.700088-11.071442-14.221504-18.306641-30.387756-25.387543-47.188168 6.332062-4.249244 12.629623-8.475341 18.930908-12.703926 5.611359 8.704434 10.696503 17.242974 16.43927 25.31358 5.480866 7.702553 12.551697 13.879555 21.70015 16.931991 19.706207 6.575119 38.384246.069046 51.042297-17.920253 5.433868-7.722504 10.216522-15.903225 15.642548-24.421242 5.758758 3.86607 11.564544 7.632133 17.168304 11.677998.77533.559783 1.132568 2.746959.703583 3.769779-6.824585 16.270786-13.685791 32.674595-25.572266 45.972309-5.552307 6.211517-12.932892 10.788795-19.823486 16.26802z" fill="#c57035"/><path d="m512.046936 326.170715c-14.780487-5.879364-24.698273-16.893463-32.934326-29.312866-18.440003-27.806274-27.055908-58.996261-30.141083-91.92186-.201569-2.151535-.422821-4.301223-.667053-6.777481h154.903778c-.524841 15.946488-3.693787 31.345627-7.767456 46.570664-4.929443 18.423294-11.997192 36.025375-22.686463 51.867233-9.115112 13.508911-19.76654 25.694855-36.300537 30.422974-7.978576 2.281616-16.091491 2.001495-24.40686-.848664z" fill="#fefefe"/><path d="m146.416733 347.711487c-16.586258 1.186798-32.490662.212097-47.297295-6.966858-8.827919-4.280182-16.915062-9.797608-18.240303-20.75708-.950142-7.857575 1.844177-14.298493 8.310608-19.1026 13.670456-10.15622 29.53389-12.599427 45.878815-12.578278 22.02713.028504 42.819183 5.527222 62.253463 15.908997 4.37706 2.338226 8.469834 5.208587 12.908799 7.967865-17.297455 19.266021-37.929566 31.645385-63.814087 35.527954z" fill="#fdfdfd"/></svg>