<svg enable-background="new 0 0 716 1090" viewBox="0 0 716 1090" xmlns="http://www.w3.org/2000/svg"><path d="m717 441v650c-238.666656 0-477.333328 0-716 0 0-363.333313 0-726.666656 0-1090h716zm-322.808105 284.871521c-.013245 7.498352-.235474 15.0047.053527 22.491394.132691 3.438477-1.083892 4.880676-4.191467 6.107727-67.702301 26.732056-135.358139 53.581604-203.027115 80.39801-7.93071 3.142762-7.942093 3.114075-6.74031 11.962464.567993.207702 1.166366.510498 1.800506.646362 27.011856 5.78894 53.997818 11.705811 81.065979 17.218994 5.439514 1.10791 10.777954.635925 16.009461-3.11438 29.645385-21.252197 59.587432-42.090698 89.433624-63.062683 8.247192-5.794922 16.511932-11.565002 25.556061-17.897888v5.844604c0 66.319153.003235 132.638367-.011322 198.95752-.000611 2.830688-.02237 5.674561-.279328 8.489929-1.383972 15.16565-8.817932 26.622132-21.674591 34.56543-12.662781 7.823242-26.774597 11.007568-41.397186 11.4729-17.480408.556397-34.985565.450684-52.479797.431641-33.323578-.036377-66.660859.323364-99.965363-.533569-20.452148-.526246-36.996475-9.900269-48.777512-27.013184-9.89775-14.377319-17.80764-29.703369-21.979736-46.742615-.845871-3.454651-2.624031-4.731811-5.966377-5.494751-20.455727-4.668945-40.851376-9.600708-61.273144-14.419006-8.639194-2.03833-17.29315-4.01416-26.016752-6.036072-.603459 7.176819-.837226 7.749207 4.925894 10.102905 17.809738 7.273682 27.938587 21.246582 35.282444 38.168213 3.504009 8.073914 7.741104 15.865967 12.107711 23.522522 14.814133 25.975586 36.623459 42.966309 65.511467 51.138672 17.172577 4.858032 34.698029 6.693482 52.342133 6.609497 57.968811-.276245 115.944275-.633423 173.897613-1.874145 20.65329-.442017 40.929139-4.95105 60.297364-12.710572 12.203552-4.88916 23.328888-11.407104 32.377136-21.072876 12.671753-13.536438 17.166443-29.933471 17.13269-48.123168-.123352-66.485596-.033081-132.971558-.057953-199.457337-.007659-20.485229-.125793-40.97052.003968-62.373962.078369-48.480042.117096-96.960144.245544-145.440064.146973-55.475586.508026-110.950897.526245-166.426391.016632-50.638428-.395233-101.276917-.448852-151.915528-.083252-78.663315-.059326-157.326828.067932-235.990024.007599-4.702319-1.155335-6.313301-6.099884-6.249194-20.662323.267897-41.331879.25511-61.994629.005055-4.748962-.057472-6.16275 1.18811-6.146301 6.056723.175232 51.830593.11203 103.661998.099334 155.493175-.000366 1.445984-.168365 2.891937-.290252 4.853592-31.167877-7.031799-62.215546-9.635864-94.045655-6.986664-.119232-2.44664-.278442-4.229049-.281677-6.011749-.031433-17.165833.101624-34.333221-.08432-51.497208-.23056-21.285049-7.597198-39.344047-24.847961-52.617439-17.971436-13.827923-38.834488-17.60564-60.766266-16.414509-9.308731.505566-17.037415 5.362656-22.857681 12.815136-3.987992 5.106362-3.374802 7.195877 2.530029 9.202072 18.218231 6.18969 31.151474 23.361229 31.323532 42.683029.308655 34.661866.20726 69.327363.302139 103.991272.005692 2.081559.23082 4.162522.351242 6.199479 1.024475.158172 1.540222.384842 1.977707.281189 2.584702-.612488 5.159867-1.27002 7.722519-1.970002 26.964691-7.365554 54.082337-13.87825 81.987-16.753341 24.696228-2.544495 49.20401-2.581955 73.398529 3.709381 1.406982.36586 3.407684 2.334564 3.423523 3.579086.224243 17.621338.152649 35.24646.152649 53.258667-45.046723 4.753845-88.801697 13.667938-130.883606 30.625092.514068 1.691436 1.138488 2.930572 1.240142 4.211181.719544 9.064087 6.249939 12.306427 14.632752 13.339814 27.903229 3.43991 55.74762 7.354858 83.641937 10.870422 10.337677 1.302856 20.751129 2.004089 31.269043 2.992767 0 19.249603.083283 37.900055-.155426 56.546448-.01944 1.519806-1.922851 3.658142-3.482605 4.418976-22.396454 10.924652-44.84375 21.748474-67.410187 32.316162-2.374145 1.111786-5.803497 1.207886-8.354766.456329-6.0318-1.776977-11.82013-4.373657-17.723664-6.594421-23.626617-8.887787-47.279053-17.707489-70.876037-26.673157-5.617005-2.134155-6.623108 3.085053-9.2697 5.48999-2.745071 2.494416.305329 4.079163 1.660492 5.648407 13.168213 15.248658 26.403794 30.439148 39.5999 45.663819 1.353637 1.561676 2.575134 3.237915 4.267639 5.379425-2.736054 1.367737-4.74942 2.411712-6.793976 3.390625-30.862534 14.776794-61.74649 29.509277-92.543854 44.420624-1.547989.749481-3.189636 2.945098-3.359604 4.612976-.679657 6.669036-.441406 6.548065 6.589661 8.002288 17.42244 3.603455 34.779999 7.528809 52.233261 10.971741 10.570847 2.085327 21.250275 3.672791 31.933258 5.089111 1.95546.259217 4.547241-.899108 6.197815-2.215148 44.772949-35.698914 89.460266-71.505219 134.174042-107.278473.809326-.647492 1.765442-1.111542 3.151672-1.969971v166.96701c-26.699432 10.649598-53.14978 21.251404-79.639465 31.754029-42.541046 16.866577-85.117584 33.643738-127.655609 50.518005-7.888931 3.129456-7.837647 3.258728-6.523331 12.039978 27.648056 5.900879 55.309509 11.948303 83.052628 17.594361 5.032135 1.024169 10.089935.841247 15.041046-2.686951 33.35675-23.77002 66.960632-47.193299 100.490539-70.720276 4.878662-3.423218 9.789246-6.801025 15.263733-10.601502 0 7.80365-.011657 14.63202.001984 21.460328.060608 30.326294.12854 60.652649.026215 91.901672z" fill="#fff"/><path d="m394.359497 724.94873c-.065277-30.326232-.133209-60.652587-.193817-90.978881-.013641-6.828308-.001984-13.656678-.001984-21.460328-5.474487 3.800477-10.385071 7.178284-15.263733 10.601502-33.529907 23.526977-67.133789 46.950256-100.490539 70.720276-4.951111 3.528198-10.008911 3.71112-15.041046 2.686951-27.743119-5.646058-55.404572-11.693482-83.052628-17.594361-1.314316-8.78125-1.3656-8.910522 6.523331-12.039978 42.538025-16.874267 85.114563-33.651428 127.655609-50.518005 26.489685-10.502625 52.940033-21.104431 79.639465-31.754029 0-55.42395 0-110.855133 0-166.96701-1.38623.858429-2.342346 1.322479-3.151672 1.969971-44.713776 35.773254-89.401093 71.579559-134.174042 107.278473-1.650574 1.31604-4.242355 2.474365-6.197815 2.215148-10.682983-1.41632-21.362411-3.003784-31.933258-5.089111-17.453262-3.442932-34.810821-7.368286-52.233261-10.971741-7.031067-1.454223-7.269318-1.333252-6.589661-8.002288.169968-1.667878 1.811615-3.863495 3.359604-4.612976 30.797364-14.911347 61.68132-29.64383 92.543854-44.420624 2.044556-.978913 4.057922-2.022888 6.793976-3.390625-1.692505-2.14151-2.914002-3.817749-4.267639-5.379425-13.196106-15.224671-26.431687-30.415161-39.5999-45.663819-1.355163-1.569244-4.405563-3.153991-1.660492-5.648407 2.646592-2.404937 3.652695-7.624145 9.2697-5.48999 23.596984 8.965668 47.24942 17.78537 70.876037 26.673157 5.903534 2.220764 11.691864 4.817444 17.723664 6.594421 2.551269.751557 5.980621.655457 8.354766-.456329 22.566437-10.567688 45.013733-21.39151 67.410187-32.316162 1.559754-.760834 3.463165-2.89917 3.482605-4.418976.238709-18.646393.155426-37.296845.155426-56.546448-10.517914-.988678-20.931366-1.689911-31.269043-2.992767-27.894317-3.515564-55.738708-7.430512-83.641937-10.870422-8.382813-1.033387-13.913208-4.275727-14.632752-13.339814-.101654-1.280609-.726074-2.519745-1.240142-4.211181 42.081909-16.957154 85.836883-25.871247 130.883606-30.625092 0-18.012207.071594-35.637329-.152649-53.258667-.015839-1.244522-2.016541-3.213226-3.423523-3.579086-24.194519-6.291336-48.702301-6.253876-73.398529-3.709381-27.904663 2.875091-55.022309 9.387787-81.987 16.753341-2.562652.699982-5.137817 1.357514-7.722519 1.970002-.437485.103653-.953232-.123017-1.977707-.281189-.120422-2.036957-.34555-4.11792-.351242-6.199479-.094879-34.663909.006516-69.329406-.302139-103.991272-.172058-19.3218-13.105301-36.493339-31.323532-42.683029-5.904831-2.006195-6.518021-4.09571-2.530029-9.202072 5.820266-7.45248 13.54895-12.30957 22.857681-12.815136 21.931778-1.191131 42.79483 2.586586 60.766266 16.414509 17.250763 13.273392 24.617401 31.33239 24.847961 52.617439.185944 17.163987.052887 34.331375.08432 51.497208.003235 1.7827.162445 3.565109.281677 6.011749 31.830109-2.6492 62.877778-.045135 94.045655 6.986664.121887-1.961655.289886-3.407608.290252-4.853592.012696-51.831177.075898-103.662582-.099334-155.493175-.016449-4.868613 1.397339-6.114195 6.146301-6.056723 20.66275.250055 41.332306.262842 61.994629-.005055 4.944549-.064107 6.107483 1.546875 6.099884 6.249194-.127258 78.663196-.151184 157.326709-.067932 235.990024.053619 50.638611.465484 101.2771.448852 151.915528-.018219 55.475494-.379272 110.950805-.526245 166.426391-.128448 48.47992-.167175 96.960022-.809479 145.904907-24.785308.446473-49.006713.428162-73.228088.40979z" fill="#020202"/><path d="m394.275696 725.410156c24.305176-.443054 48.526581-.424743 73.213257-.412109.532806 20.479492.65094 40.964783.658599 61.450012.024872 66.485779-.065399 132.971741.057953 199.457337.033753 18.189697-4.460937 34.58673-17.13269 48.123168-9.048248 9.665772-20.173584 16.183716-32.377136 21.072876-19.368225 7.759522-39.644074 12.268555-60.297364 12.710572-57.953338 1.240722-115.928802 1.5979-173.897613 1.874145-17.644104.083985-35.169556-1.751465-52.342133-6.609497-28.888008-8.172363-50.697334-25.163086-65.511467-51.138672-4.366607-7.656555-8.603702-15.448608-12.107711-23.522522-7.343857-16.921631-17.472706-30.894531-35.282444-38.168213-5.76312-2.353698-5.529353-2.926086-4.925894-10.102905 8.723602 2.021912 17.377558 3.997742 26.016752 6.036072 20.421768 4.818298 40.817417 9.750061 61.273144 14.419006 3.342346.76294 5.120506 2.0401 5.966377 5.494751 4.172096 17.039246 12.081986 32.365296 21.979736 46.742615 11.781037 17.112915 28.325364 26.486938 48.777512 27.013184 33.304504.856933 66.641785.497192 99.965363.533569 17.494232.019043 34.999389.124756 52.479797-.431641 14.622589-.465332 28.734405-3.649658 41.397186-11.4729 12.856659-7.943298 20.290619-19.39978 21.674591-34.56543.256958-2.815368.278717-5.659241.279328-8.489929.014557-66.319153.011322-132.638367.011322-198.95752 0-1.608459 0-3.216857 0-5.844604-9.044129 6.332886-17.308869 12.102966-25.556061 17.897888-29.846192 20.971985-59.788239 41.810486-89.433624 63.062683-5.231507 3.750305-10.569947 4.22229-16.009461 3.11438-27.068161-5.513183-54.054123-11.430054-81.065979-17.218994-.63414-.135864-1.232513-.43866-1.800506-.646362-1.201783-8.848389-1.1904-8.819702 6.74031-11.962464 67.668976-26.816406 135.324814-53.665954 203.027115-80.39801 3.107575-1.227051 4.324158-2.66925 4.191467-6.107727-.289001-7.486694-.066772-14.993042.030274-22.952759z" fill="#c47034"/></svg>