<svg enable-background="new 0 0 630 996" viewBox="0 0 630 996" xmlns="http://www.w3.org/2000/svg"><path d="m1 402c0-133.979523 0-267.459015 0-400.969265h629.920898v995.813747c-209.920806 0-419.920837 0-629.920898 0 0-198.072631 0-396.208557 0-594.844482m303.819885 143.022766c.005921-44.498199.029785-88.996399.008789-133.494598-.008087-17.157105-.118103-34.314179-.021972-52.402436 0-69.748596 0-139.497207 0-209.532806 10.7919 0 20.825958.603561 30.756988-.150299 12.884827-.978088 26.14859-1.434097 38.429077-4.966324 25.035187-7.200851 34.562134-25.919403 22.408936-49.596054-8.289368-16.1492-20.657105-28.975609-33.74643-41.109276-11.23413-10.413936-23.215332-20.023739-34.409332-30.478252-3.879486-3.623226-6.708862-3.618702-10.838074-1.057562-11.451232 7.102577-11.443664 7.647564-3.067565 18.039949 8.992767 11.157482 17.73291 22.623207 21.853271 36.659386 5.692841 19.392685.930573 27.272797-19.079865 28.874664-17.22705 1.379052-34.616333 1.417832-51.914978 1.080109-43.315551-.845673-85.050415 7.732414-126.168396 20.212501-7.869247 2.388466-15.433555 5.78164-22.108398 8.319588-.939133 12.458008 5.690956 15.183106 15.612625 16.211289 29.614929 3.069015 59.137695 7.022918 88.704758 10.561981 4.887955.585083 9.817612.821853 14.567108 1.206558v34.596771c-2.150726 0-3.958847-.006302-5.766891.000962-18.32901.07373-36.663056-.089585-54.985581.294632-17.115158.358902-33.733108 3.480926-49.432388 10.689117-15.013001 6.893082-26.274536 17.447922-32.170593 33.105652-4.002617 10.62944-4.638199 21.681946-3.594368 32.937713 1.790489 19.307221 10.668502 34.028382 27.741714 43.497834 16.859795 9.351104 35.308357 12.780517 54.259819 13.403656 19.476547.640472 38.979492.478363 58.470932.663147 1.773682.016815 3.547653.002258 6.024933.002258 0 9.55545 0 18.508759-.17392 28.386932-.005935 5.833161-.171844 11.672455.052704 17.496735.105179 2.727997-.764664 4.177582-3.224945 5.354034-21.041977 10.061738-42.004517 20.289978-63.075088 30.290863-1.679978.797364-4.223618.899384-5.973679.256653-27.621613-10.144684-55.170075-20.488434-82.776253-30.675598-1.426361-.526367-3.723968-.707641-4.740021.080139-2.274543 1.76355-3.996269 4.240113-5.877777 6.352936 14.859383 17.13739 29.304764 33.797333 43.768845 50.478851-.489494.369751-.722908.614747-1.008156.751831-29.504211 14.173096-59.021713 28.318604-88.513159 42.518219-6.803209 3.275635-6.887937 3.638459-5.068868 11.57602 25.642185 5.464935 51.36256 11.065429 77.148975 16.343292 5.2426 1.073059 10.23983.351624 14.61731-4.039429 4.766151-4.780914 10.502266-8.593628 15.806953-12.839172 29.718018-23.784485 59.428299-47.578705 89.153976-71.353668 6.271531-5.016053 12.596039-9.965882 19.691422-15.574921v5.970276c0 21.832306-.024734 43.664642.006897 65.496918.032104 22.160309.119842 44.320526.022461 67.410125v16.109925c-9.974564 2.384399-19.471497 4.831054-29.047821 6.912353-35.245224 7.660156-70.597702 14.826172-104.981232 26.01416-22.141907 7.204712-43.395035 15.96698-61.210743 31.479004-21.715378 18.907471-28.44394 44.134705-17.618454 70.730347 7.758276 19.060242 24.325276 28.139587 43.232403 32.871338 27.496086 6.881348 55.165527 6.958069 82.153725-2.216797 29.783203-10.125183 42.022033-32.441589 36.130356-62.93634-4.274048-22.122071-18.452179-37.918091-37.968186-48.909119-1.042694-.58728-1.997009-1.331482-4.238418-2.842651 31.224411-10.225098 61.752334-17.348877 93.410156-23.338257 0 2.787048.000015 4.571106 0 6.355163-.000595 43.488587-.010163 86.977112.008423 130.465699.002624 6.158813.142181 12.317566.020401 19.388977v31.867859c-13.472382.751709-26.45604 1.032287-39.344254 2.290649-24.432541 2.385254-48.541107 6.597168-70.676872 17.946411-20.483452 10.502197-35.508179 25.344971-36.588097 50.109192-.823616 18.886963 4.595803 35.500244 18.641503 48.701843 15.1362 14.22638 33.68119 21.523743 53.818779 24.017151 17.636749 2.183777 35.49382 3.056763 53.277465 3.463257 20.809464.475586 41.652008.096252 62.466401-.444092 13.918945-.36145 23.144592-8.395874 25.996704-21.847046.889953-4.197265 1.097961-8.600769 1.113647-12.911743.096497-26.496399.048371-52.993408.048371-79.490173 0-1.803711 0-3.607422 0-5.871948 22.038208 4.552612 43.212341 9.823303 62.075775 21.900451 13.004455 8.32605 23.250152 18.949951 28.239105 33.787171 6.074921 18.067016 5.997436 35.688293-5.47287 51.97821-9.704651 13.782593-23.299805 22.639404-38.263824 29.581299-19.818818 9.194153-41.095765 13.126343-62.395508 17.034851-6.314026 1.158569-12.716736 2.838623-18.517304 5.502441-5.581604 2.563233-5.282257 7.961914.409668 10.216919 5.171753 2.048951 10.798401 3.880249 16.281006 4.057129 27.736359.894959 55.279236-1.257446 82.25473-8.068908 25.617432-6.468689 49.461304-16.349244 68.599701-35.685669 25.27005-25.531556 25.836762-63.139466 12.772675-90.502808-9.630341-20.171265-26.357849-33.132263-46.047608-42.53241-23.371246-11.157715-48.293487-16.835632-73.850158-20.028808-8.680085-1.084534-17.384949-1.970948-26.495301-2.99469 0-11.33551 0-22.140747.222504-33.860901.021149-49.605408.049408-99.210877.059418-148.816284.003387-16.803589-.039551-33.607117.111938-51.334351m177.043366 101.071289c18.15625-.025085 36.31253-.062195 54.46878-.072143 22.820801-.012513 45.641541.003051 68.462342-.006043 6.968322-.002746 7.775939-1.318298 5.785461-8.091064-1.683777-5.729065-2.875183-11.602295-4.533203-17.339844-.401001-1.38739-1.783142-2.491272-2.714111-3.725525-.843262 1.311401-2.167481 2.527283-2.44983 3.949951-1.533264 7.72522-2.131286 9.182678-10.108093 9.579346-13.275268.660095-26.602783.273865-39.908325.296509-.228088.000427-.456909-.399475-.908691-.820801.204406-.629883.368286-1.419678.704284-2.127808 6.199524-13.066345 4.521607-25.66156-2.96112-37.484802-15.831604-25.015137-51.965699-32.042541-76.08191-15.062378-16.026825 11.284424-19.290313 27.813782-8.184906 43.243286 3.149415 4.375733 7.265839 8.055481 11.11908 12.250733-4.076233.874511-7.989868 1.469665-11.751251 2.580261-5.222779 1.542053-7.086548 4.949829-4.845764 9.904053 2.521759 5.575439 5.658477 10.914856 9.010284 16.041443.785523 1.201477 3.51239 1.133728 5.993561 1.832092-2.889435-12.917725-2.889435-12.917725 8.903412-14.947266m-14.712281 78.53772c-14.378723 14.010925-13.203064 40.628174 1.412995 54.551086 18.76355 17.873597 48.407287 18.641846 66.828674.972168 3.30603-3.171142 5.000794-2.421447 6.404602 1.295044 1.348267 3.569519 2.361328 7.275696 3.881104 10.765259.608825 1.397827 2.178344 2.377075 3.310608 3.546875.721985-1.392029 2.0354-2.770019 2.068786-4.178406.19751-8.325622-.253479-16.67865.228882-24.980957.292786-5.038818-1.997803-6.71759-6.220459-6.537292-1.87146.080017-3.919617 1.119934-5.470459 2.281128-1.827209 1.368042-2.974365 3.649475-4.809753 5.000549-14.015686 10.316833-29.82489 14.32251-46.679901 10.284363-19.359253-4.638123-24.828431-21.592224-14.460389-34.738037 9.457184-11.990967 22.382599-15.453614 37.058228-13.483582 12.092682 1.623413 21.815582 7.314636 29.700104 16.717163 1.24945 1.490052 5.288452.853089 8.023864.765808.916199-.029236 2.554322-1.396728 2.56659-2.172973.170532-10.771607.115417-21.546753.115417-32.072815-3.500671-1.361084-4.641052-.270813-5.498718 2.629394-1.504211 5.086548-3.6203 9.992188-5.968628 16.282288-9.976746-11.944641-21.750793-16.971497-35.093536-18.011536-13.463501-1.049438-26.188019 1.467224-37.398011 11.084473m21.927765-432.086304c13.256195 4.655182 26.4599 4.19635 39.547425-.601349 15.28955-5.604889 26.477173-19.061737 25.654297-36.479904-.699769-14.809463-9.106995-24.922134-18.917969-34.433212-.667908-.647431-3.29834-.530853-3.726746.102478-.842834 1.246216-1.495422 3.426208-.94873 4.648056 1.345642 3.007111 3.534973 5.622452 5.172912 8.515427 7.833557 13.835693 5.494141 27.641662-6.251953 37.729278-13.693664 11.760224-42.586365 10.014282-54.635223-.695343-8.02121-7.129669-9.126435-18.046387-2.85556-27.068222 6.005249-8.639648 12.718597-9.659531 24.010925-3.970688 1.135528.572037 3.214416.026978 4.468963-.68277.725586-.410461 1.119812-2.28244.895661-3.332855-.692169-3.243561-1.965515-6.365661-2.619904-9.61412-.944641-4.689362-4.253875-6.848511-8.356567-7.394333-3.546875-.471863-7.366699-.305542-10.861359.483856-16.760132 3.785889-24.983825 20.865662-22.220703 37.822723 2.932129 17.994477 14.588318 28.48169 31.644531 34.970978m41.907898 117.361725c-16.979614.015686-33.959198.035095-50.938781.045746-11.105164.006988-11.186371.02594-14.440217-10.714508-.948791-3.131806-2.398803-4.029236-5.250579-2.584412v44.781586c3.277313 1.085571 4.569671.127899 4.943115-3.02768.347626-2.937438 1.426147-5.787567 2.173004-8.67871.87619-3.391938 2.907074-4.753083 6.539581-4.662232 8.817322.220551 17.661835.422089 26.461701-.027588 8.727661-.445953 16.494171 2.269592 23.661163 6.518494 5.033264 2.983978 9.867188 6.736297 13.7771 11.06131 3.894531 4.308044 2.325561 9.056152-2.877869 11.940002-1.72998.95874-3.753479 1.395874-5.460266 2.386078-1.361877.79007-2.446716 2.057678-3.654602 3.113281 1.218384 1.298737 2.214355 3.296875 3.695984 3.768067 4.885376 1.55365 9.938965 2.586639 14.942383 3.757812 3.829284.896271 6.220459-.510437 7.775879-4.264252 4.448791-10.736358 1.196167-22.230712-8.996766-30.0065-3.681396-2.80838-7.664062-5.22171-12.004028-8.149017 3.448059-.285889 6.090637-.533051 8.73761-.716767 2.814636-.195343 5.63977-.259582 8.448975-.509277 3.846618-.341919 5.938842-3.107025 4.89508-6.196014-2.015869-5.966004-3.868957-11.989624-6.020874-17.905182-.525452-1.444428-1.945984-2.563263-2.954956-3.831818-.953796 1.26413-2.70343 2.513031-2.727905 3.794953-.12677 6.627197-3.612183 9.576355-10.724732 10.106628z" fill="#fff"/><path d="m236.354004 360.054993c0-8.953308 0-17.906617 0-27.462067-2.47728 0-4.251251.014557-6.024933-.002258-19.49144-.184784-38.994385-.022675-58.470932-.663147-18.951462-.623139-37.400024-4.052552-54.259819-13.403656-17.073212-9.469452-25.951225-24.190613-27.741714-43.497834-1.043831-11.255767-.408249-22.308273 3.594368-32.937713 5.896057-15.65773 17.157592-26.21257 32.170593-33.105652 15.69928-7.208191 32.31723-10.330215 49.432388-10.689117 18.322525-.384217 36.656571-.220902 54.985581-.294632 1.808044-.007264 3.616165-.000962 5.766891-.000962 0-11.560409 0-22.804962 0-34.596771-4.749496-.384705-9.679153-.621475-14.567108-1.206558-29.567063-3.539063-59.089829-7.492966-88.704758-10.561981-9.921669-1.028183-16.551758-3.753281-15.612625-16.211289 6.674843-2.537948 14.239151-5.931122 22.108398-8.319588 41.117981-12.480087 82.852845-21.058174 126.168396-20.212501 17.298645.337723 34.687928.298943 51.914978-1.080109 20.010438-1.601867 24.772706-9.481979 19.079865-28.874664-4.120361-14.036179-12.860504-25.501904-21.853271-36.659386-8.376099-10.392385-8.383667-10.937372 3.067565-18.039949 4.129212-2.56114 6.958588-2.565664 10.838074 1.057562 11.194 10.454513 23.175202 20.064316 34.409332 30.478252 13.089325 12.133667 25.457062 24.960076 33.74643 41.109276 12.153198 23.676651 2.626251 42.395203-22.408936 49.596054-12.280487 3.532227-25.54425 3.988236-38.429077 4.966324-9.93103.75386-19.965088.150299-30.756988.150299 0 70.035599 0 139.78421-.523621 210.001862-22.992096.466095-45.460571.463165-67.929077.460205m-63.950821-140.373932c-5.639175 3.020202-12.167755 5.067016-16.74501 9.24942-12.06276 11.022079-14.064682 26.158874-13.390412 41.387543 1.247559 28.176269 15.731919 41.63742 43.909577 41.815521 15.164901.095856 30.330917.026977 45.496383.005554 1.424179-.002014 2.848099-.198181 4.159302-.295807 0-31.409393 0-62.327789 0-93.687729-9.778351 0-19.246185-.164428-28.705872.042466-11.307754.24736-22.608551.812286-34.723968 1.483032z" fill="#c47034"/><path d="m304.426025 746.088379v32.945923c9.110352 1.023742 17.815216 1.910156 26.495301 2.99469 25.556671 3.193176 50.478912 8.871093 73.850158 20.028808 19.689759 9.400147 36.417267 22.361145 46.047608 42.53241 13.064087 27.363342 12.497375 64.971252-12.772675 90.502808-19.138397 19.336425-42.982269 29.21698-68.599701 35.685669-26.975494 6.811462-54.518371 8.963867-82.25473 8.068908-5.482605-.17688-11.109253-2.008178-16.281006-4.057129-5.691925-2.255005-5.991272-7.653686-.409668-10.216919 5.800568-2.663818 12.203278-4.343872 18.517304-5.502441 21.299743-3.908508 42.57669-7.840698 62.395508-17.034851 14.964019-6.941895 28.559173-15.798706 38.263824-29.581299 11.470306-16.289917 11.547791-33.911194 5.47287-51.97821-4.988953-14.83722-15.23465-25.461121-28.239105-33.787171-18.863434-12.077148-40.037567-17.347839-62.075775-21.900451v5.871948c0 26.496765.048126 52.993774-.048371 79.490173-.015686 4.310974-.223694 8.714478-1.113647 12.911743-2.852112 13.451172-12.077759 21.485596-25.996704 21.847046-20.814393.540344-41.656937.919678-62.466401.444092-17.783645-.406494-35.640716-1.27948-53.277465-3.463257-20.137589-2.493408-38.682579-9.790771-53.818779-24.017151-14.0457-13.201599-19.465119-29.81488-18.641503-48.701843 1.079918-24.764221 16.104645-39.606995 36.588097-50.109192 22.135765-11.349243 46.244331-15.561157 70.676872-17.946411 12.888214-1.258362 25.871872-1.53894 39.344254-2.290649 0-10.647767 0-21.257813.547378-32.315186 22.963684-.438904 45.380036-.430481 67.796356-.422058m-118.49028 59.153442c-5.178665 1.195984-10.50682 1.956116-15.507324 3.671448-13.723587 4.707642-24.025986 13.220886-26.708664 28.180969-1.30748 7.291138-1.644272 14.921814-1.210129 22.327881 1.163468 19.847168 12.167527 32.21405 31.034485 37.386719 7.159729 1.962952 14.669129 3.271057 22.073868 3.584412 13.382034.566284 26.805206.160217 40.058624.160217 0-32.187744 0-64.698303 0-97.835083-16.633011.812256-32.749359 1.599243-49.74086 2.523437z" fill="#020202"/><path d="m304.537292 745.630859c-22.527587.449097-44.943939.440674-67.808654.423279-.524567-6.167785-.664124-12.326538-.666748-18.485351-.018586-43.488587-.009018-86.977112-.008423-130.465699.000015-1.784057 0-3.568115 0-6.355163-31.657822 5.98938-62.185745 13.113159-93.410156 23.338257 2.241409 1.511169 3.195724 2.255371 4.238418 2.842651 19.516007 10.991028 33.694138 26.787048 37.968186 48.909119 5.891677 30.494751-6.347153 52.811157-36.130356 62.93634-26.988198 9.174866-54.657639 9.098145-82.153725 2.216797-18.907127-4.731751-35.474127-13.811096-43.232403-32.871338-10.825486-26.595642-4.096924-51.822876 17.618454-70.730347 17.815708-15.512024 39.068836-24.274292 61.210743-31.479004 34.38353-11.187988 69.736008-18.354004 104.981232-26.01416 9.576324-2.081299 19.073257-4.527954 29.047821-6.912353 0-5.508362 0-10.809143.524139-16.57782 22.993012-.465149 45.461884-.462402 67.930786-.459656.02179 16.803589.064728 33.607117.061341 50.410706-.01001 49.605407-.038269 99.210876-.170655 149.273742m-182.597412-114.151855c-6.30104-3.333435-12.293579-5.516785-19.536461-1.375488-15.628768 8.936096-29.935691 18.987915-35.544151 37.198181-4.291435 13.933899.439461 34.438476 17.296242 41.276184 20.805428 8.439392 40.614983 4.972412 58.857399-7.019287 14.726898-9.680664 18.155868-22.90448 11.122528-39.054383-6.293945-14.452087-18.030289-23.521484-32.195557-31.025207z" fill="#c57035"/><path d="m304.733246 545.484619c-22.555542.459046-45.024414.456299-67.937042.456787-.507142-22.157043-.59488-44.31726-.626984-66.477569-.031631-21.832276-.006897-43.664612-.006897-65.496918 0-1.611237 0-3.222473 0-5.970276-7.095383 5.609039-13.419891 10.558868-19.691422 15.574921-29.725677 23.774963-59.435958 47.569183-89.153976 71.353668-5.304687 4.245544-11.040802 8.058258-15.806953 12.839172-4.37748 4.391053-9.37471 5.112488-14.61731 4.039429-25.786415-5.277863-51.50679-10.878357-77.148975-16.343292-1.819069-7.937561-1.734341-8.300385 5.068868-11.57602 29.491446-14.199615 59.008948-28.345123 88.513159-42.518219.285248-.137084.518662-.38208 1.008156-.751831-14.464081-16.681518-28.909462-33.341461-43.768845-50.478851 1.881508-2.112823 3.603234-4.589386 5.877777-6.352936 1.016053-.78778 3.31366-.606506 4.740021-.080139 27.606178 10.187164 55.15464 20.530914 82.776253 30.675598 1.750061.642731 4.293701.540711 5.973679-.256653 21.070571-10.000885 42.033111-20.229125 63.075088-30.290863 2.460281-1.176452 3.330124-2.626037 3.224945-5.354034-.224548-5.82428-.058639-11.663574.034256-17.959167 22.555466-.459473 45.023941-.456543 67.936203-.457062.507324 17.153625.61734 34.310699.625427 51.467804.020996 44.498199-.002868 88.996399-.095428 133.956451z" fill="#020202"/><path d="m481.406586 646.125488c-11.336182 1.998108-11.336182 1.998108-8.446747 14.915833-2.481171-.698364-5.208038-.630615-5.993561-1.832092-3.351807-5.126587-6.488525-10.466004-9.010284-16.041443-2.240784-4.954224-.377015-8.362 4.845764-9.904053 3.761383-1.110596 7.675018-1.70575 11.751251-2.580261-3.853241-4.195252-7.969665-7.875-11.11908-12.250733-11.105407-15.429504-7.841919-31.958862 8.184906-43.243286 24.116211-16.980163 60.250306-9.952759 76.08191 15.062378 7.482727 11.823242 9.160644 24.418457 2.96112 37.484802-.335998.70813-.499878 1.497925-.704284 2.127808.451782.421326.680603.821228.908691.820801 13.305542-.022644 26.633057.363586 39.908325-.296509 7.976807-.396668 8.574829-1.854126 10.108093-9.579346.282349-1.422668 1.606568-2.63855 2.44983-3.949951.930969 1.234253 2.31311 2.338135 2.714111 3.725525 1.65802 5.737549 2.849426 11.610779 4.533203 17.339844 1.990478 6.772766 1.182861 8.088318-5.785461 8.091064-22.820801.009094-45.641541-.00647-68.462342.006043-18.15625.009948-36.31253.047058-54.925445.103576m17.11679-15.166198c9.643525-.000428 19.289856.121887 28.928467-.096497 2.140198-.048401 4.700989-.755676 6.308228-2.081055 13.122986-10.820923 11.832519-31.663574-2.32843-41.137695-6.305359-4.218445-13.384766-5.437012-20.754761-6.0047-12.671265-.976013-24.052155 2.058167-33.404236 10.849732-4.147583 3.899048-7.42511 8.719726-6.599304 14.886657 1.254272 9.366639 7.36026 16.088685 14.183258 21.533631 2.915161 2.326416 8.375488 1.463501 13.666778 2.049927z" fill="#ababab"/><path d="m467.429626 724.409546c10.931336-9.39502 23.655854-11.911682 37.119355-10.862244 13.342743 1.040039 25.11679 6.066895 35.093536 18.011536 2.348328-6.2901 4.464417-11.19574 5.968628-16.282288.857666-2.900207 1.998047-3.990478 5.498718-2.629394 0 10.526062.055115 21.301208-.115417 32.072815-.012268.776245-1.650391 2.143737-2.56659 2.172973-2.735412.087281-6.774414.724244-8.023864-.765808-7.884522-9.402527-17.607422-15.09375-29.700104-16.717163-14.675629-1.970032-27.601044 1.492615-37.058228 13.483582-10.368042 13.145813-4.898864 30.099914 14.460389 34.738037 16.855011 4.038147 32.664215.03247 46.679901-10.284363 1.835388-1.351074 2.982544-3.632507 4.809753-5.000549 1.550842-1.161194 3.598999-2.201111 5.470459-2.281128 4.222656-.180298 6.513245 1.498474 6.220459 6.537292-.482361 8.302307-.031372 16.655335-.228882 24.980957-.033386 1.408387-1.346801 2.786377-2.068786 4.178406-1.132264-1.1698-2.701783-2.149048-3.310608-3.546875-1.519776-3.489563-2.532837-7.19574-3.881104-10.765259-1.403808-3.716491-3.098572-4.466186-6.404602-1.295044-18.421387 17.669678-48.065124 16.901429-66.828674-.972168-14.616059-13.922912-15.791718-40.540161-1.134339-54.773315z" fill="#acacac"/><path d="m488.714172 292.395721c-16.69165-6.339538-28.347839-16.826751-31.279968-34.821228-2.763122-16.957061 5.460571-34.036834 22.220703-37.822723 3.49466-.789398 7.314484-.955719 10.861359-.483856 4.102692.545822 7.411926 2.704971 8.356567 7.394333.654389 3.248459 1.927735 6.370559 2.619904 9.61412.224151 1.050415-.170075 2.922394-.895661 3.332855-1.254547.709748-3.333435 1.254807-4.468963.68277-11.292328-5.688843-18.005676-4.66896-24.010925 3.970688-6.270875 9.021835-5.16565 19.938553 2.85556 27.068222 12.048858 10.709625 40.941559 12.455567 54.635223.695343 11.746094-10.087616 14.08551-23.893585 6.251953-37.729278-1.637939-2.892975-3.82727-5.508316-5.172912-8.515427-.546692-1.221848.105896-3.40184.94873-4.648056.428406-.633331 3.058838-.749909 3.726746-.102478 9.810974 9.511078 18.2182 19.623749 18.917969 34.433212.822876 17.418167-10.364747 30.875015-25.654297 36.479904-13.087525 4.797699-26.29123 5.256531-39.911988.451599z" fill="#acacac"/><path d="m531.42688 409.857483c6.672302-.48056 10.157715-3.429718 10.284485-10.056915.024475-1.281922 1.774109-2.530823 2.727905-3.794953 1.008972 1.268555 2.429504 2.38739 2.954956 3.831818 2.151917 5.915558 4.005005 11.939178 6.020874 17.905182 1.043762 3.088989-1.048462 5.854095-4.89508 6.196014-2.809205.249695-5.634339.313934-8.448975.509277-2.646973.183716-5.289551.430878-8.73761.716767 4.339966 2.927307 8.322632 5.340637 12.004028 8.149017 10.192933 7.775788 13.445557 19.270142 8.996766 30.0065-1.55542 3.753815-3.946595 5.160523-7.775879 4.264252-5.003418-1.171173-10.057007-2.204162-14.942383-3.757812-1.481629-.471192-2.4776-2.46933-3.695984-3.768036 1.207886-1.055634 2.292725-2.323242 3.654602-3.113312 1.706787-.990204 3.730286-1.427338 5.460266-2.386078 5.20343-2.88385 6.7724-7.631958 2.877869-11.940002-3.909912-4.325013-8.743836-8.077332-13.7771-11.06131-7.166992-4.248902-14.933502-6.964447-23.661163-6.518494-8.799866.449677-17.644379.248139-26.461701.027588-3.632507-.090851-5.663391 1.270294-6.539581 4.662232-.746857 2.891143-1.825378 5.741272-2.173004 8.67871-.373444 3.155579-1.665802 4.113251-4.943115 3.02768 0-14.77301 0-29.670166 0-44.781586 2.851776-1.444824 4.301788-.547394 5.250579 2.584412 3.253846 10.740448 3.335053 10.721496 14.440217 10.714508 16.979583-.010651 33.959167-.03006 51.379028-.095459z" fill="#ababab"/><path d="m172.80899 219.559387c11.70961-.549072 23.010407-1.113998 34.318161-1.361358 9.459687-.206894 18.927521-.042466 28.705872-.042466v93.687729c-1.311203.097626-2.735123.293793-4.159302.295807-15.165466.021423-30.331482.090302-45.496383-.005554-28.177658-.178101-42.662018-13.639252-43.909577-41.815521-.67427-15.228669 1.327652-30.365464 13.390412-41.387543 4.577255-4.182404 11.105835-6.229218 17.150817-9.371094z" fill="#fffefe"/><path d="m186.373322 805.173218c16.553924-.855591 32.670272-1.642578 49.303283-2.454834v97.835083c-13.253418 0-26.67659.406067-40.058624-.160217-7.404739-.313355-14.914139-1.62146-22.073868-3.584412-18.866958-5.172669-29.871017-17.539551-31.034485-37.386719-.434143-7.406067-.097351-15.036743 1.210129-22.327881 2.682678-14.960083 12.985077-23.473327 26.708664-28.180969 5.000504-1.715332 10.328659-2.475464 15.944901-3.740051z" fill="#fefefe"/><path d="m122.271843 631.654419c13.833305 7.328308 25.569649 16.397705 31.863594 30.849792 7.03334 16.149903 3.60437 29.373719-11.122528 39.054383-18.242416 11.991699-38.051971 15.458679-58.857399 7.019287-16.856781-6.837708-21.587677-27.342285-17.296242-41.276184 5.60846-18.210266 19.915383-28.262085 35.544151-37.198181 7.242882-4.141297 13.235421-1.957947 19.868424 1.550903z" fill="#fffefe"/><path d="m498.029633 630.959229c-4.797547-.586365-10.257874.27655-13.173035-2.049866-6.822998-5.444946-12.928986-12.166992-14.183258-21.533631-.825806-6.166931 2.451721-10.987609 6.599304-14.886657 9.352081-8.791565 20.732971-11.825745 33.404236-10.849732 7.369995.567688 14.449402 1.786255 20.754761 6.0047 14.160949 9.474121 15.451416 30.316772 2.32843 41.137695-1.607239 1.325379-4.16803 2.032654-6.308228 2.081055-9.638611.218384-19.284942.096069-29.42221.096436z" fill="#fefefe"/></svg>