<svg version="1.1" id="Layer_1" xmlns="http://www.w3.org/2000/svg" xmlns:xlink="http://www.w3.org/1999/xlink" x="0px" y="0px"
	 width="100%" viewBox="0 0 630 996" enable-background="new 0 0 630 996" xml:space="preserve">
<path fill="#FFFFFF" opacity="1.000000" stroke="none" 
	d="
M1.000000,403.000000 
	C1.000000,268.687195 1.000000,134.874420 1.000000,1.030812 
	C210.947220,1.030812 420.894440,1.030812 630.920837,1.030812 
	C630.920837,332.896271 630.920837,664.792542 630.920837,996.844421 
	C421.000092,996.844421 211.000061,996.844421 1.000000,996.844421 
	C1.000000,799.105286 1.000000,601.302673 1.000000,403.000000 
M236.191681,543.874939 
	C236.191681,550.175110 236.191681,556.475281 236.191681,562.983826 
	C226.216370,565.368469 216.719681,567.815002 207.143616,569.896240 
	C171.898392,577.556519 136.545898,584.722473 102.162346,595.910461 
	C80.020432,603.115173 58.767342,611.877686 40.951649,627.389709 
	C19.236311,646.297180 12.507798,671.524963 23.333576,698.120178 
	C31.092159,717.180298 47.659187,726.259521 66.566353,730.991211 
	C94.062462,737.872498 121.732002,737.949280 148.720078,728.774048 
	C178.503937,718.648438 190.741623,696.331238 184.849731,665.837341 
	C180.575409,643.715271 166.397186,627.919373 146.881119,616.928467 
	C145.838593,616.341309 144.884506,615.597107 142.643463,614.086121 
	C173.868118,603.860657 204.396133,596.737427 236.053513,590.747864 
	C236.053513,593.535461 236.053528,595.319580 236.053513,597.103699 
	C236.052933,642.591797 236.045044,688.079834 236.061798,733.567932 
	C236.063690,738.726990 236.204102,743.886047 236.082306,749.957764 
	C236.082306,759.567993 236.082306,769.178162 236.082306,778.825684 
	C222.610184,779.577332 209.626541,779.857910 196.738373,781.116272 
	C172.305893,783.501648 148.197250,787.713135 126.061516,799.062561 
	C105.578102,809.564819 90.553139,824.407227 89.473122,849.171509 
	C88.649414,868.058472 94.068741,884.671753 108.114288,897.873474 
	C123.250343,912.100220 141.795395,919.397278 161.932953,921.890747 
	C179.569702,924.074646 197.426773,924.947693 215.210419,925.354065 
	C236.019882,925.829651 256.862427,925.450317 277.676819,924.909973 
	C291.596100,924.548584 300.821472,916.514587 303.673737,903.063354 
	C304.563782,898.866089 304.771881,894.462585 304.787567,890.151611 
	C304.884064,863.655212 304.835907,837.158264 304.835938,810.661499 
	C304.835968,808.857727 304.835938,807.054016 304.835938,804.789001 
	C326.873779,809.342163 348.047913,814.612427 366.911316,826.689514 
	C379.915771,835.015564 390.161713,845.639221 395.150726,860.476379 
	C401.225739,878.543335 401.148346,896.164612 389.678284,912.454712 
	C379.973663,926.237366 366.378540,935.094177 351.414551,942.036133 
	C331.595734,951.230347 310.318726,955.162476 289.018951,959.070923 
	C282.704956,960.229553 276.302246,961.909607 270.501648,964.573364 
	C264.919800,967.136658 265.218811,972.535278 270.910614,974.790283 
	C276.082367,976.839233 281.709045,978.670593 287.191620,978.847534 
	C314.927979,979.742371 342.470795,977.590027 369.446289,970.778503 
	C395.063843,964.309998 418.907745,954.429626 438.046295,935.093323 
	C463.316559,909.561768 463.883118,871.953857 450.819275,844.590515 
	C441.189026,824.419128 424.461456,811.458130 404.771759,802.057922 
	C381.400543,790.900085 356.478302,785.222229 330.921631,782.029114 
	C322.241516,780.944519 313.536591,780.058167 304.425964,779.034363 
	C304.425964,768.699463 304.425964,758.893860 304.648499,748.173401 
	C304.669647,697.567383 304.698212,646.961365 304.707886,596.355347 
	C304.711273,578.552368 304.668365,560.749390 304.819824,542.022766 
	C304.825775,498.524475 304.852203,455.026215 304.828674,411.527924 
	C304.817596,391.037567 304.710541,370.547302 304.806671,349.125793 
	C304.806671,282.710114 304.806671,216.294434 304.806671,149.592896 
	C315.599731,149.592896 325.633759,150.196472 335.564789,149.442581 
	C348.449585,148.464478 361.713409,148.008499 373.993744,144.475998 
	C399.028473,137.274658 408.554962,118.556297 396.401245,94.879425 
	C388.111694,78.730408 375.743958,65.904068 362.654694,53.770439 
	C351.420593,43.356529 339.439423,33.746761 328.245453,23.292252 
	C324.365662,19.668753 321.536133,19.674665 317.407318,22.235592 
	C305.956635,29.337963 305.964325,29.882608 314.340790,40.275604 
	C323.333435,51.433121 332.073456,62.898823 336.193787,76.935013 
	C341.886383,96.327339 337.124023,104.207382 317.113342,105.809235 
	C299.886353,107.188255 282.497070,107.227020 265.198486,106.889297 
	C221.883057,106.043640 180.148300,114.621735 139.030441,127.101753 
	C131.161209,129.490204 123.596916,132.883408 116.921890,135.421448 
	C115.983017,147.878983 122.612625,150.604462 132.534470,151.632645 
	C162.149323,154.701569 191.672012,158.655533 221.238998,162.194580 
	C226.127029,162.779678 231.056763,163.016357 235.806671,163.401047 
	C235.806671,175.192596 235.806671,186.437164 235.806671,197.997986 
	C233.656204,197.997986 231.848145,197.991714 230.040146,197.998978 
	C211.711182,198.072708 193.377518,197.917740 175.054611,198.290817 
	C157.762344,198.642914 140.968979,201.814835 125.162552,209.174606 
	C110.374733,216.060074 99.258530,226.590714 93.448166,242.086151 
	C89.397957,252.887527 88.744858,264.110626 89.894135,275.523163 
	C91.794098,294.390228 100.486122,308.884552 117.167061,318.269714 
	C134.137360,327.817657 152.737015,331.287048 171.856934,331.925598 
	C191.332840,332.576050 210.836212,332.405853 230.327591,332.590637 
	C232.101471,332.607452 233.875641,332.592865 236.354019,332.592865 
	C236.354019,338.811798 236.354019,344.433411 236.180115,350.980011 
	C236.174179,360.145996 236.052048,369.314240 236.233673,378.476532 
	C236.287582,381.196960 235.470200,382.653412 233.009171,383.830170 
	C211.967133,393.891815 191.004562,404.120056 169.933975,414.120941 
	C168.253830,414.918427 165.710205,415.021515 163.960281,414.378784 
	C136.338623,404.234100 108.790115,393.890289 81.183937,383.702972 
	C79.757355,383.176544 77.459641,382.994263 76.443588,383.781921 
	C74.168785,385.545380 72.446899,388.022125 70.564850,390.135345 
	C85.424049,407.272491 99.869652,423.932617 114.333801,440.614166 
	C113.845169,440.983673 113.611908,441.228943 113.326675,441.366028 
	C83.822426,455.539124 54.304855,469.684540 24.813385,483.884186 
	C18.008593,487.160614 17.925632,487.519562 19.743080,495.460297 
	C45.385212,500.925262 71.105583,506.525879 96.892052,511.803558 
	C102.134239,512.876526 107.131966,512.156250 111.509590,507.764832 
	C116.275589,502.983765 122.011787,499.171082 127.316437,494.925537 
	C157.034531,471.141022 186.744888,447.346802 216.470566,423.571777 
	C222.742172,418.555695 229.066711,413.605804 236.162354,407.996521 
	C236.162354,410.744202 236.162354,412.355347 236.162354,413.966522 
	C236.162354,436.465485 236.137711,458.964508 236.169617,481.463440 
	C236.198669,501.957184 236.289093,522.450867 236.191681,543.874939 
M501.231628,785.908020 
	C493.211212,786.262512 485.614594,784.626038 478.820709,780.338867 
	C472.434906,776.309082 468.437561,770.876953 468.736694,762.674438 
	C469.031616,754.588257 473.045410,748.768066 478.912781,744.069519 
	C492.130005,733.485352 506.880585,733.985840 521.939148,739.058350 
	C529.405090,741.573303 535.281128,746.665649 539.989502,752.815063 
	C542.683960,756.334229 545.424805,754.033386 548.097229,753.768555 
	C549.174683,753.661804 550.960266,752.122925 550.977783,751.208008 
	C551.181274,740.596252 551.107849,729.979187 551.107849,719.603760 
	C547.694580,718.132324 546.313782,719.170410 545.516602,722.055420 
	C544.457458,725.888306 543.193542,729.690430 541.666748,733.359741 
	C540.499023,736.166199 538.678467,737.152283 536.015137,734.445679 
	C522.931763,721.149109 506.744934,718.196106 489.111572,721.064453 
	C463.470764,725.235229 454.177185,745.184570 457.660736,765.396545 
	C462.258820,792.075378 496.808014,807.704834 522.659607,795.701660 
	C528.668457,792.911682 533.850281,788.340820 540.208740,784.052490 
	C541.981079,789.010559 543.921814,793.900452 545.452209,798.915588 
	C546.428955,802.116333 547.999695,802.782349 551.148010,801.263184 
	C551.148010,791.086182 551.201294,780.942322 551.068848,770.800842 
	C551.054993,769.742065 550.161743,768.052124 549.300720,767.759033 
	C545.676331,766.525391 542.431335,764.967407 538.858337,769.360168 
	C535.413940,773.594849 530.583740,777.432495 525.561462,779.481812 
	C518.123352,782.516785 509.978088,783.818909 501.231628,785.908020 
M494.995483,278.747192 
	C493.691772,278.487915 492.391846,278.207306 491.083710,277.972748 
	C479.652161,275.922852 470.403564,268.519897 469.003021,260.287994 
	C467.253784,250.006744 472.777649,239.439636 483.638794,233.693878 
	C498.333282,225.920181 513.208618,226.761154 527.421936,234.838791 
	C532.221008,237.566193 536.266296,241.838959 540.147095,245.892776 
	C543.165344,249.045670 546.103943,246.760590 548.936523,246.446640 
	C549.837402,246.346786 551.015869,243.430618 551.056335,241.778458 
	C551.268188,233.120056 551.242615,224.452011 551.072571,215.791748 
	C551.042969,214.284622 549.928345,212.798813 549.314819,211.303177 
	C548.067627,212.530701 546.319702,213.540436 545.672363,215.028870 
	C544.089233,218.668793 543.204956,222.609375 541.673340,226.276047 
	C540.520752,229.035385 538.621460,230.228226 536.041687,227.379471 
	C528.007080,218.507324 517.545471,214.436966 506.013794,213.299026 
	C492.592804,211.974686 479.531555,213.740601 468.859924,222.822678 
	C452.107666,237.079712 453.093140,266.435883 470.416962,280.226349 
	C490.328705,296.076813 514.178223,297.050232 532.422058,282.698669 
	C534.711975,280.897308 536.790649,278.827271 539.962769,275.991791 
	C541.960022,281.722534 543.723938,286.476196 545.258850,291.302673 
	C546.183411,294.209869 547.347717,296.144470 551.138245,294.239380 
	C551.138245,283.977905 551.211487,273.674377 551.029663,263.375336 
	C551.010559,262.295715 549.601074,260.471313 548.636597,260.326691 
	C546.076904,259.942871 542.054810,259.196075 540.989563,260.513794 
	C529.243286,275.043365 513.070801,278.092194 494.995483,278.747192 
M463.104797,609.329468 
	C464.903809,612.324646 466.621277,615.372681 468.520172,618.303162 
	C471.694061,623.201233 472.231079,623.220398 476.349060,619.444946 
	C474.515167,613.595947 472.287567,608.014954 471.060822,602.222046 
	C469.210541,593.484619 471.900848,589.944946 480.635437,588.320068 
	C481.931702,588.078918 483.285004,588.081177 484.612152,588.078613 
	C501.776611,588.045593 518.941101,588.024353 536.105591,588.026306 
	C537.686768,588.026489 539.267944,588.205688 542.052673,588.374817 
	C540.906250,596.102234 539.749084,603.094177 538.912903,610.124329 
	C538.710876,611.823242 539.184631,613.871948 540.044495,615.356018 
	C541.012939,617.027649 542.635437,618.423096 544.223450,619.601929 
	C545.587830,620.614685 547.304199,621.153137 548.864929,621.901367 
	C549.627869,620.212708 550.820862,618.581238 551.055176,616.822205 
	C551.425964,614.038513 551.154968,611.169373 551.155029,608.336365 
	C551.155212,601.727661 551.155090,595.118958 551.155090,588.013672 
	C553.453735,588.013672 555.080566,588.013855 556.707336,588.013672 
	C564.373047,588.012695 572.052551,588.257507 579.694580,587.831604 
	C581.523315,587.729675 584.568481,585.530151 584.718262,584.057800 
	C585.061951,580.677490 575.273499,572.843811 571.611084,572.828247 
	C566.111816,572.804993 560.611145,572.751221 555.113647,572.850159 
	C552.456604,572.897888 550.748291,572.037720 551.200500,569.164551 
	C551.848083,565.050110 549.273132,562.644592 546.760620,560.224670 
	C545.897095,559.393005 543.943237,558.256104 543.650146,558.525146 
	C542.547729,559.537170 541.381592,561.013550 541.231567,562.421692 
	C540.886108,565.663208 541.122009,568.966614 541.122009,572.822144 
	C533.848450,572.822144 527.226135,572.817810 520.603821,572.822998 
	C505.939026,572.834412 491.271698,572.686096 476.610138,572.910461 
	C461.308044,573.144592 454.128540,582.896057 458.359528,597.541931 
	C459.460663,601.353577 461.293030,604.953857 463.104797,609.329468 
M460.001038,396.860107 
	C460.001038,410.983276 460.001038,425.106445 460.001038,439.229614 
	C460.468353,439.565002 460.935638,439.900391 461.402954,440.235779 
	C462.646088,439.113831 464.464172,438.217072 465.010559,436.822144 
	C466.088196,434.071136 466.390106,431.025574 467.143005,428.135712 
	C468.110626,424.421661 470.343384,422.832672 474.426575,422.989929 
	C482.413666,423.297546 490.449768,423.512054 498.413208,422.980408 
	C510.760162,422.156067 521.222961,426.644501 531.017639,433.351196 
	C535.432861,436.374359 540.265320,439.821411 539.645874,445.848877 
	C539.018433,451.954529 533.541809,453.484863 528.449707,455.003876 
	C527.408752,455.314423 526.097473,456.887787 526.086182,457.892334 
	C526.073914,458.976227 527.252197,460.790527 528.237671,461.051147 
	C534.153259,462.615814 540.151367,463.880005 546.145386,465.132172 
	C549.558350,465.845154 551.232117,463.947937 552.453552,460.950348 
	C557.071228,449.618286 553.296997,438.177216 541.951233,430.063690 
	C538.513245,427.605164 534.880188,425.419495 531.336426,423.108856 
	C531.414246,422.704803 531.492004,422.300751 531.569763,421.896698 
	C537.014587,421.896698 542.459473,421.919312 547.904053,421.888550 
	C551.374084,421.868927 554.406616,419.963196 553.648560,416.694611 
	C552.004395,409.605743 549.351624,402.741333 546.895508,395.862183 
	C546.583923,394.989410 545.011108,394.185242 543.962280,394.101074 
	C543.336731,394.050873 542.306702,395.357422 541.969666,396.247620 
	C541.448914,397.623138 541.184753,399.157959 541.132324,400.636597 
	C540.995422,404.497345 538.776917,406.389221 535.270264,406.923828 
	C532.159912,407.398041 529.005188,407.815704 525.867371,407.835815 
	C511.203278,407.929749 496.538239,407.877472 481.873566,407.877441 
	C469.643524,407.877441 469.643433,407.877441 465.328094,396.480499 
	C465.269196,396.324951 465.252197,396.149200 465.173523,396.006042 
	C463.491943,392.946136 461.779327,392.439941 460.001038,396.860107 
z"/>
<path fill="#C47034" opacity="1.000000" stroke="none" 
	d="
M236.354019,350.055023 
	C236.354019,344.433411 236.354019,338.811798 236.354019,332.592865 
	C233.875641,332.592865 232.101471,332.607452 230.327591,332.590637 
	C210.836212,332.405853 191.332840,332.576050 171.856934,331.925598 
	C152.737015,331.287048 134.137360,327.817657 117.167061,318.269714 
	C100.486122,308.884552 91.794098,294.390228 89.894135,275.523163 
	C88.744858,264.110626 89.397957,252.887527 93.448166,242.086151 
	C99.258530,226.590714 110.374733,216.060074 125.162552,209.174606 
	C140.968979,201.814835 157.762344,198.642914 175.054611,198.290817 
	C193.377518,197.917740 211.711182,198.072708 230.040146,197.998978 
	C231.848145,197.991714 233.656204,197.997986 235.806671,197.997986 
	C235.806671,186.437164 235.806671,175.192596 235.806671,163.401047 
	C231.056763,163.016357 226.127029,162.779678 221.238998,162.194580 
	C191.672012,158.655533 162.149323,154.701569 132.534470,151.632645 
	C122.612625,150.604462 115.983017,147.878983 116.921890,135.421448 
	C123.596916,132.883408 131.161209,129.490204 139.030441,127.101753 
	C180.148300,114.621735 221.883057,106.043640 265.198486,106.889297 
	C282.497070,107.227020 299.886353,107.188255 317.113342,105.809235 
	C337.124023,104.207382 341.886383,96.327339 336.193787,76.935013 
	C332.073456,62.898823 323.333435,51.433121 314.340790,40.275604 
	C305.964325,29.882608 305.956635,29.337963 317.407318,22.235592 
	C321.536133,19.674665 324.365662,19.668753 328.245453,23.292252 
	C339.439423,33.746761 351.420593,43.356529 362.654694,53.770439 
	C375.743958,65.904068 388.111694,78.730408 396.401245,94.879425 
	C408.554962,118.556297 399.028473,137.274658 373.993744,144.475998 
	C361.713409,148.008499 348.449585,148.464478 335.564789,149.442581 
	C325.633759,150.196472 315.599731,149.592896 304.806671,149.592896 
	C304.806671,216.294434 304.806671,282.710114 304.283081,349.594818 
	C281.290985,350.060913 258.822510,350.057983 236.354019,350.055023 
M162.193359,307.474030 
	C168.785248,308.995178 175.332443,311.542175 181.977997,311.831818 
	C197.596390,312.512543 213.261795,312.115326 228.908173,312.152466 
	C231.179962,312.157867 233.451782,312.153229 235.787445,312.153229 
	C235.787445,280.539001 235.787445,249.532257 235.787445,218.992661 
	C215.486725,218.992661 195.535370,218.458435 175.632736,219.211517 
	C165.229141,219.605164 156.853912,225.423004 150.908478,234.213638 
	C143.053406,245.827774 141.498550,258.959473 142.376999,272.428223 
	C143.316849,286.838684 148.230682,299.371796 162.193359,307.474030 
z"/>
<path fill="#020202" opacity="1.000000" stroke="none" 
	d="
M304.425964,749.088257 
	C304.425964,758.893860 304.425964,768.699463 304.425964,779.034363 
	C313.536591,780.058167 322.241516,780.944519 330.921631,782.029114 
	C356.478302,785.222229 381.400543,790.900085 404.771759,802.057922 
	C424.461456,811.458130 441.189026,824.419128 450.819275,844.590515 
	C463.883118,871.953857 463.316559,909.561768 438.046295,935.093323 
	C418.907745,954.429626 395.063843,964.309998 369.446289,970.778503 
	C342.470795,977.590027 314.927979,979.742371 287.191620,978.847534 
	C281.709045,978.670593 276.082367,976.839233 270.910614,974.790283 
	C265.218811,972.535278 264.919800,967.136658 270.501648,964.573364 
	C276.302246,961.909607 282.704956,960.229553 289.018951,959.070923 
	C310.318726,955.162476 331.595734,951.230347 351.414551,942.036133 
	C366.378540,935.094177 379.973663,926.237366 389.678284,912.454712 
	C401.148346,896.164612 401.225739,878.543335 395.150726,860.476379 
	C390.161713,845.639221 379.915771,835.015564 366.911316,826.689514 
	C348.047913,814.612427 326.873779,809.342163 304.835938,804.789001 
	C304.835938,807.054016 304.835968,808.857727 304.835938,810.661499 
	C304.835907,837.158264 304.884064,863.655212 304.787567,890.151611 
	C304.771881,894.462585 304.563782,898.866089 303.673737,903.063354 
	C300.821472,916.514587 291.596100,924.548584 277.676819,924.909973 
	C256.862427,925.450317 236.019882,925.829651 215.210419,925.354065 
	C197.426773,924.947693 179.569702,924.074646 161.932953,921.890747 
	C141.795395,919.397278 123.250343,912.100220 108.114288,897.873474 
	C94.068741,884.671753 88.649414,868.058472 89.473122,849.171509 
	C90.553139,824.407227 105.578102,809.564819 126.061516,799.062561 
	C148.197250,787.713135 172.305893,783.501648 196.738373,781.116272 
	C209.626541,779.857910 222.610184,779.577332 236.082306,778.825684 
	C236.082306,769.178162 236.082306,759.567993 236.629700,749.510376 
	C259.593384,749.071472 282.009674,749.079895 304.425964,749.088257 
M206.528137,900.997437 
	C216.283676,900.997437 226.039230,900.997437 235.713348,900.997437 
	C235.713348,868.423950 235.713348,835.916504 235.713348,803.487427 
	C229.282501,803.487427 223.301346,803.346558 217.328888,803.514832 
	C201.708405,803.954895 185.964264,803.658142 170.892349,808.719299 
	C156.955154,813.399353 146.461380,821.921692 143.731827,837.081299 
	C142.391235,844.526733 142.076492,852.334167 142.562134,859.896545 
	C143.823227,879.535095 154.814713,892.002991 173.530350,896.698547 
	C183.905182,899.301514 194.851562,899.626282 206.528137,900.997437 
z"/>
<path fill="#C57035" opacity="1.000000" stroke="none" 
	d="
M304.537231,748.630859 
	C282.009674,749.079895 259.593384,749.071472 236.728668,749.054077 
	C236.204102,743.886047 236.063690,738.726990 236.061798,733.567932 
	C236.045044,688.079834 236.052933,642.591797 236.053513,597.103699 
	C236.053528,595.319580 236.053513,593.535461 236.053513,590.747864 
	C204.396133,596.737427 173.868118,603.860657 142.643463,614.086121 
	C144.884506,615.597107 145.838593,616.341309 146.881119,616.928467 
	C166.397186,627.919373 180.575409,643.715271 184.849731,665.837341 
	C190.741623,696.331238 178.503937,718.648438 148.720078,728.774048 
	C121.732002,737.949280 94.062462,737.872498 66.566353,730.991211 
	C47.659187,726.259521 31.092159,717.180298 23.333576,698.120178 
	C12.507798,671.524963 19.236311,646.297180 40.951649,627.389709 
	C58.767342,611.877686 80.020432,603.115173 102.162346,595.910461 
	C136.545898,584.722473 171.898392,577.556519 207.143616,569.896240 
	C216.719681,567.815002 226.216370,565.368469 236.191681,562.983826 
	C236.191681,556.475281 236.191681,550.175110 236.715820,543.406555 
	C259.708832,542.940918 282.177704,542.943665 304.646576,542.946411 
	C304.668365,560.749390 304.711273,578.552368 304.707886,596.355347 
	C304.698212,646.961365 304.669647,697.567383 304.537231,748.630859 
M155.507034,665.225586 
	C147.241135,646.054932 132.021820,634.785034 112.959763,627.982361 
	C111.420105,627.432922 109.297623,627.375793 107.814705,627.986023 
	C94.199142,633.588623 82.573586,641.849731 73.521706,653.664368 
	C57.423492,674.675842 65.248360,709.635315 98.157288,712.533020 
	C110.443100,713.614746 122.210091,712.134277 133.248093,707.184204 
	C151.589676,698.958740 161.903168,686.044678 155.507034,665.225586 
z"/>
<path fill="#020202" opacity="1.000000" stroke="none" 
	d="
M304.733215,542.484619 
	C282.177704,542.943665 259.708832,542.940918 236.796204,542.941406 
	C236.289093,522.450867 236.198669,501.957184 236.169617,481.463440 
	C236.137711,458.964508 236.162354,436.465485 236.162354,413.966522 
	C236.162354,412.355347 236.162354,410.744202 236.162354,407.996521 
	C229.066711,413.605804 222.742172,418.555695 216.470566,423.571777 
	C186.744888,447.346802 157.034531,471.141022 127.316437,494.925537 
	C122.011787,499.171082 116.275589,502.983765 111.509590,507.764832 
	C107.131966,512.156250 102.134239,512.876526 96.892052,511.803558 
	C71.105583,506.525879 45.385212,500.925262 19.743080,495.460297 
	C17.925632,487.519562 18.008593,487.160614 24.813385,483.884186 
	C54.304855,469.684540 83.822426,455.539124 113.326675,441.366028 
	C113.611908,441.228943 113.845169,440.983673 114.333801,440.614166 
	C99.869652,423.932617 85.424049,407.272491 70.564850,390.135345 
	C72.446899,388.022125 74.168785,385.545380 76.443588,383.781921 
	C77.459641,382.994263 79.757355,383.176544 81.183937,383.702972 
	C108.790115,393.890289 136.338623,404.234100 163.960281,414.378784 
	C165.710205,415.021515 168.253830,414.918427 169.933975,414.120941 
	C191.004562,404.120056 211.967133,393.891815 233.009171,383.830170 
	C235.470200,382.653412 236.287582,381.196960 236.233673,378.476532 
	C236.052048,369.314240 236.174179,360.145996 236.267059,350.517517 
	C258.822510,350.057983 281.290985,350.060913 304.203247,350.060425 
	C304.710541,370.547302 304.817596,391.037567 304.828674,411.527924 
	C304.852203,455.026215 304.825775,498.524475 304.733215,542.484619 
z"/>
<path fill="#ACACAC" opacity="1.000000" stroke="none" 
	d="
M501.682770,785.883423 
	C509.978088,783.818909 518.123352,782.516785 525.561462,779.481812 
	C530.583740,777.432495 535.413940,773.594849 538.858337,769.360168 
	C542.431335,764.967407 545.676331,766.525391 549.300720,767.759033 
	C550.161743,768.052124 551.054993,769.742065 551.068848,770.800842 
	C551.201294,780.942322 551.148010,791.086182 551.148010,801.263184 
	C547.999695,802.782349 546.428955,802.116333 545.452209,798.915588 
	C543.921814,793.900452 541.981079,789.010559 540.208740,784.052490 
	C533.850281,788.340820 528.668457,792.911682 522.659607,795.701660 
	C496.808014,807.704834 462.258820,792.075378 457.660736,765.396545 
	C454.177185,745.184570 463.470764,725.235229 489.111572,721.064453 
	C506.744934,718.196106 522.931763,721.149109 536.015137,734.445679 
	C538.678467,737.152283 540.499023,736.166199 541.666748,733.359741 
	C543.193542,729.690430 544.457458,725.888306 545.516602,722.055420 
	C546.313782,719.170410 547.694580,718.132324 551.107849,719.603760 
	C551.107849,729.979187 551.181274,740.596252 550.977783,751.208008 
	C550.960266,752.122925 549.174683,753.661804 548.097229,753.768555 
	C545.424805,754.033386 542.683960,756.334229 539.989502,752.815063 
	C535.281128,746.665649 529.405090,741.573303 521.939148,739.058350 
	C506.880585,733.985840 492.130005,733.485352 478.912781,744.069519 
	C473.045410,748.768066 469.031616,754.588257 468.736694,762.674438 
	C468.437561,770.876953 472.434906,776.309082 478.820709,780.338867 
	C485.614594,784.626038 493.211212,786.262512 501.682770,785.883423 
z"/>
<path fill="#ACACAC" opacity="1.000000" stroke="none" 
	d="
M495.432770,278.795166 
	C513.070801,278.092194 529.243286,275.043365 540.989563,260.513794 
	C542.054810,259.196075 546.076904,259.942871 548.636597,260.326691 
	C549.601074,260.471313 551.010559,262.295715 551.029663,263.375336 
	C551.211487,273.674377 551.138245,283.977905 551.138245,294.239380 
	C547.347717,296.144470 546.183411,294.209869 545.258850,291.302673 
	C543.723938,286.476196 541.960022,281.722534 539.962769,275.991791 
	C536.790649,278.827271 534.711975,280.897308 532.422058,282.698669 
	C514.178223,297.050232 490.328705,296.076813 470.416962,280.226349 
	C453.093140,266.435883 452.107666,237.079712 468.859924,222.822678 
	C479.531555,213.740601 492.592804,211.974686 506.013794,213.299026 
	C517.545471,214.436966 528.007080,218.507324 536.041687,227.379471 
	C538.621460,230.228226 540.520752,229.035385 541.673340,226.276047 
	C543.204956,222.609375 544.089233,218.668793 545.672363,215.028870 
	C546.319702,213.540436 548.067627,212.530701 549.314819,211.303162 
	C549.928345,212.798813 551.042969,214.284622 551.072571,215.791748 
	C551.242615,224.452011 551.268188,233.120056 551.056335,241.778458 
	C551.015869,243.430618 549.837402,246.346786 548.936523,246.446640 
	C546.103943,246.760590 543.165344,249.045670 540.147095,245.892776 
	C536.266296,241.838959 532.221008,237.566193 527.421936,234.838791 
	C513.208618,226.761154 498.333282,225.920181 483.638794,233.693878 
	C472.777649,239.439636 467.253784,250.006744 469.003021,260.287994 
	C470.403564,268.519897 479.652161,275.922852 491.083710,277.972748 
	C492.391846,278.207306 493.691772,278.487915 495.432770,278.795166 
z"/>
<path fill="#ABABAB" opacity="1.000000" stroke="none" 
	d="
M462.947174,608.990356 
	C461.293030,604.953857 459.460663,601.353577 458.359528,597.541931 
	C454.128540,582.896057 461.308044,573.144592 476.610138,572.910461 
	C491.271698,572.686096 505.939026,572.834412 520.603821,572.822998 
	C527.226135,572.817810 533.848450,572.822144 541.122009,572.822144 
	C541.122009,568.966614 540.886108,565.663208 541.231567,562.421692 
	C541.381592,561.013550 542.547729,559.537170 543.650146,558.525146 
	C543.943237,558.256104 545.897095,559.393005 546.760620,560.224670 
	C549.273132,562.644592 551.848083,565.050110 551.200500,569.164551 
	C550.748291,572.037720 552.456604,572.897888 555.113647,572.850159 
	C560.611145,572.751221 566.111816,572.804993 571.611084,572.828247 
	C575.273499,572.843811 585.061951,580.677490 584.718262,584.057800 
	C584.568481,585.530151 581.523315,587.729675 579.694580,587.831604 
	C572.052551,588.257507 564.373047,588.012695 556.707336,588.013672 
	C555.080566,588.013855 553.453735,588.013672 551.155090,588.013672 
	C551.155090,595.118958 551.155212,601.727661 551.155029,608.336365 
	C551.154968,611.169373 551.425964,614.038513 551.055176,616.822205 
	C550.820862,618.581238 549.627869,620.212708 548.864929,621.901367 
	C547.304199,621.153137 545.587830,620.614685 544.223450,619.601929 
	C542.635437,618.423096 541.012939,617.027649 540.044495,615.356018 
	C539.184631,613.871948 538.710876,611.823242 538.912903,610.124329 
	C539.749084,603.094177 540.906250,596.102234 542.052673,588.374817 
	C539.267944,588.205688 537.686768,588.026489 536.105591,588.026306 
	C518.941101,588.024353 501.776611,588.045593 484.612152,588.078613 
	C483.285004,588.081177 481.931702,588.078918 480.635437,588.320068 
	C471.900848,589.944946 469.210541,593.484619 471.060822,602.222046 
	C472.287567,608.014954 474.515167,613.595947 476.349060,619.444946 
	C472.231079,623.220398 471.694061,623.201233 468.520172,618.303162 
	C466.621277,615.372681 464.903809,612.324646 462.947174,608.990356 
z"/>
<path fill="#ABABAB" opacity="1.000000" stroke="none" 
	d="
M460.014740,396.406799 
	C461.779327,392.439941 463.491943,392.946136 465.173523,396.006042 
	C465.252197,396.149200 465.269196,396.324951 465.328094,396.480499 
	C469.643433,407.877441 469.643524,407.877441 481.873566,407.877441 
	C496.538239,407.877472 511.203278,407.929749 525.867371,407.835815 
	C529.005188,407.815704 532.159912,407.398041 535.270264,406.923828 
	C538.776917,406.389221 540.995422,404.497345 541.132324,400.636597 
	C541.184753,399.157959 541.448914,397.623138 541.969666,396.247620 
	C542.306702,395.357422 543.336731,394.050873 543.962280,394.101074 
	C545.011108,394.185242 546.583923,394.989410 546.895508,395.862183 
	C549.351624,402.741333 552.004395,409.605743 553.648560,416.694611 
	C554.406616,419.963196 551.374084,421.868927 547.904053,421.888550 
	C542.459473,421.919312 537.014587,421.896698 531.569763,421.896698 
	C531.492004,422.300751 531.414246,422.704803 531.336426,423.108856 
	C534.880188,425.419495 538.513245,427.605164 541.951233,430.063690 
	C553.296997,438.177216 557.071228,449.618286 552.453552,460.950348 
	C551.232117,463.947937 549.558350,465.845154 546.145386,465.132172 
	C540.151367,463.880005 534.153259,462.615814 528.237671,461.051147 
	C527.252197,460.790527 526.073914,458.976227 526.086182,457.892334 
	C526.097473,456.887787 527.408752,455.314423 528.449707,455.003876 
	C533.541809,453.484863 539.018433,451.954529 539.645874,445.848877 
	C540.265320,439.821411 535.432861,436.374359 531.017639,433.351196 
	C521.222961,426.644501 510.760162,422.156067 498.413208,422.980408 
	C490.449768,423.512054 482.413666,423.297546 474.426575,422.989929 
	C470.343384,422.832672 468.110626,424.421661 467.143005,428.135712 
	C466.390106,431.025574 466.088196,434.071136 465.010559,436.822144 
	C464.464172,438.217072 462.646088,439.113831 461.402954,440.235779 
	C460.935638,439.900391 460.468353,439.565002 460.001038,439.229614 
	C460.001038,425.106445 460.001038,410.983276 460.014740,396.406799 
z"/>
<path fill="#FFFEFE" opacity="1.000000" stroke="none" 
	d="
M161.877594,307.275574 
	C148.230682,299.371796 143.316849,286.838684 142.376999,272.428223 
	C141.498550,258.959473 143.053406,245.827774 150.908478,234.213638 
	C156.853912,225.423004 165.229141,219.605164 175.632736,219.211517 
	C195.535370,218.458435 215.486725,218.992661 235.787445,218.992661 
	C235.787445,249.532257 235.787445,280.539001 235.787445,312.153229 
	C233.451782,312.153229 231.179962,312.157867 228.908173,312.152466 
	C213.261795,312.115326 197.596390,312.512543 181.977997,311.831818 
	C175.332443,311.542175 168.785248,308.995178 161.877594,307.275574 
z"/>
<path fill="#FEFEFE" opacity="1.000000" stroke="none" 
	d="
M206.034210,900.987671 
	C194.851562,899.626282 183.905182,899.301514 173.530350,896.698547 
	C154.814713,892.002991 143.823227,879.535095 142.562134,859.896545 
	C142.076492,852.334167 142.391235,844.526733 143.731827,837.081299 
	C146.461380,821.921692 156.955154,813.399353 170.892349,808.719299 
	C185.964264,803.658142 201.708405,803.954895 217.328888,803.514832 
	C223.301346,803.346558 229.282501,803.487427 235.713348,803.487427 
	C235.713348,835.916504 235.713348,868.423950 235.713348,900.997437 
	C226.039230,900.997437 216.283676,900.997437 206.034210,900.987671 
z"/>
<path fill="#FFFEFE" opacity="1.000000" stroke="none" 
	d="
M155.667511,665.589539 
	C161.903168,686.044678 151.589676,698.958740 133.248093,707.184204 
	C122.210091,712.134277 110.443100,713.614746 98.157288,712.533020 
	C65.248360,709.635315 57.423492,674.675842 73.521706,653.664368 
	C82.573586,641.849731 94.199142,633.588623 107.814705,627.986023 
	C109.297623,627.375793 111.420105,627.432922 112.959763,627.982361 
	C132.021820,634.785034 147.241135,646.054932 155.667511,665.589539 
z"/>
</svg>