<svg enable-background="new 0 0 752 1842" viewBox="0 0 752 1842" xmlns="http://www.w3.org/2000/svg"><path d="m1 745c0-248.333282 0-496.16658 0-743.9999 250.66658-.000033 501.33316-.000033 751.999817-.000067.000061 613.999784.000061 1227.999601.000122 1841.999479-250.666351.000244-501.332779.000244-751.999573.000366-.000366-365.833252-.000366-731.666504-.000366-1097.999878m366.134735-244.000122c-63.599121 25.225464-127.199005 50.449036-190.796341 75.679016-7.163925 2.842041-7.157348 2.858582-6.021301 10.88562.393051.165589.818893.42926 1.279938.527222 24.903289 5.289734 49.781402 10.7052 74.737472 15.733703 5.474487 1.103089 10.777405.622559 16.016236-3.110717 33.499908-23.872742 67.273651-47.361267 100.963409-70.967408 1.391296-.974853 2.844086-1.861938 4.83493-3.159118 0 11.502197-.021698 21.993896.004425 32.485473.058106 23.320557.140198 46.641053.02948 70.878052.059021 8.999573.118042 17.999085.007569 27.920777v24.874755h38.628113c.355529.552552.711029 1.105103 1.066558 1.657593-.900817.376709-1.901306.609009-2.687652 1.151612-13.131653 9.061645-26.156952 18.279785-39.371552 27.2182-11.3656 7.687683-21.446808 16.619568-26.75 29.533875-11.196075 27.264526-4.24649 51.436584 13.712555 73.328064 3.596802 4.384399 7.860901 8.221374 12.471466 12.986877-3.13446.603638-5.353363 1.128052-7.601471 1.445618-6.419983.906677-12.977081 1.197326-19.257599 2.675842-28.78012 6.775391-57.463592 13.960754-86.240051 20.752014-3.79364.895325-4.225128 2.946839-4.240646 6.013733-.015976 3.159912.089783 5.639954 4.186325 6.604798 16.004028 3.769592 31.822418 8.373107 47.896057 11.79071 22.59433 4.804138 45.354431 8.828735 68.051392 14.112427v34.796081c-2.045014 0-3.668 0-5.290955.000061-14.831177.000305-29.687256-.533691-44.486237.156617-13.748992.641479-27.608184 1.672912-41.108154 4.195434-16.448517 3.073364-31.366379 10.222412-42.372894 23.471802-13.21843 15.911987-15.120026 34.69635-12.32605 54.26123 2.848602 19.947449 14.383011 33.506409 32.410309 41.811585 13.609192 6.269775 28.052856 9.652466 42.918121 10.203979 21.634339.802491 43.300904.737915 64.953797 1.037232 1.777435.024658 3.555542.003296 5.288971.003296v49.284546c-2.19632 0-4.16861-.133423-6.118256.020385-19.729279 1.556275-39.538696 2.492798-59.154999 4.959717-15.721954 1.977417-30.832184 6.852295-44.331909 15.713989-27.436157 18.01001-27.039841 52.937256-11.510178 73.401978 8.296494 10.932861 20.006424 16.927734 32.910874 20.399658 9.245544 2.487305 18.770263 3.937134 26.640655 5.538574-8.265136 1.549683-18.118774 2.586304-27.477874 5.317383-20.862122 6.088135-36.863236 17.758789-41.270112 40.711304-3.681686 19.175415.207718 35.901001 15.973038 48.89917 9.472275 7.809692 20.363754 12.53479 31.95665 15.801391 25.055664 7.060669 50.79068 8.611084 76.64975 8.954102 1.925049.025635 3.850738.003418 5.588928.003418 0 17.867676 0 35.020141-.660889 52.391968-27.331787 10.834838-54.657196 21.685791-81.997039 32.500366-37.225464 14.725097-74.422333 29.524536-111.74704 43.994018-4.322281 1.67566-3.419068 4.418579-3.689331 7.41919-.319779 3.550415 2.21849 3.45874 4.472198 3.932251 24.106888 5.065674 48.1996 10.199707 72.32254 15.187622 5.478486 1.132812 10.616028.880127 15.471314-3.054321 6.327545-5.126954 13.263183-9.504883 19.94873-14.188599 28.64621-20.06897 57.296692-40.131836 86.108948-59.265137v125.927735c-21.224823 3.386596-41.970154 6.228393-62.519836 10.106689-20.669098 3.900635-40.140778 11.232178-57.535355 23.516358.413696.568481.63179.824218.802109 1.108642 4.960068 8.28125 11.382568 10.337647 21.403595 8.75 28.75592-4.55542 57.719696-3.456177 86.691101-.520752 45.710419 4.631836 89.96701 14.838013 132.004394 33.50293 12.545197 5.570068 24.341065 12.893554 36.207825 19.876587 2.764526 1.626831 4.41742 5.1427 7.201111 8.546631-2.985535.302002-4.303711.499023-5.628235.55957-20.300049.927368-40.624176 1.487793-60.895752 2.837891-25.929199 1.726928-51.691192 4.986938-77.046722 10.902099-35.726471 8.334717-69.932251 20.415283-100.76352 40.864014-11.247589 7.459961-21.503448 15.576294-23.352325 30.230713 1.468109 0 3.124542.10852 4.763245-.016236 23.680267-1.802734 47.406219-1.75354 70.764679 2.409058 38.330139 6.830688 75.06961 19.223144 110.580413 35.065918 27.957428 12.472778 55.583374 25.68689 83.434906 38.400146 5.729004 2.615235 11.726014 4.727051 17.75 6.58252 3.885254 1.196655 7.60553.335083 10.014832-3.52771 2.372131-3.803223 1.230347-7.145752-1.669006-9.870728-5.211243-4.897705-10.39502-9.884277-16.041993-14.249145-37.282013-28.817627-77.579162-52.795898-119.753784-73.650147-13.0513-6.453491-26.506012-12.091064-40.038574-18.221313.605896-.338013 1.101776-.776367 1.66864-.907227 11.649658-2.687255 23.199951-6.022216 34.982819-7.87561 41.606781-6.544434 83.543762-7.764282 125.581024-6.623169 9.648804.261841 19.361877 1.442993 28.928772.699951 15.91394-1.235962 19.663391-8.818481 11.48291-22.769409-10.589233-18.059082-25.017029-32.899902-41.839538-45.141357-23.801514-17.320191-49.893891-30.619751-77.233521-41.4375-10.278503-4.066895-20.735016-7.68396-31.028809-11.476075 0-74.253418 0-148.20166 0-222.419555 1.137696-.09729 2.096009-.180786 3.054596-.260987 30.843384-2.578735 61.273621-7.271484 89.146881-21.637695 33.547242-17.290527 56.513001-42.854492 61.0271-81.970703 4.62384-40.066772-9.110352-72.692505-40.520935-97.584717-28.121765-22.286011-61.223206-32.223144-96.275909-36.668091-5.361084-.679809-10.744172-1.186523-16.224671-1.785156 0-2.522705-.000091-4.346313.000031-6.170044.002929-57.497803.045044-114.995727-.019654-172.493408-.015564-13.812744-.38562-27.625-.423248-42.35852.014374-11.823548.120667-23.648133-.008942-35.470093-.042785-3.904053 1.033265-5.736511 5.365723-5.68805 16.334534.183045 32.076325-3.143005 47.088196-9.442932 18.55014-7.784973 34.54718-18.97583 43.723633-37.536133 11.542846-23.346435 11.411316-46.549865-3.46753-68.576782-8.68811-12.86206-20.84198-22.212646-33.459106-31.045349-15.095917-10.568054-30.053253-21.352356-44.723908-32.499328-4.922546-3.740052-8.782135-8.87909-13.976593-13.817444-.170928-1.959229-.491668-3.918457-.491302-5.877686.020203-104.650635.092041-209.3013.102753-313.951965.006347-61.823334-.079682-123.646668-.123993-185.470001-.001282-1.784806-.000214-3.569626-.000214-5.753556 11.856598 0 23.318939.210999 34.770416-.052292 15.025025-.345474 29.890625-1.588272 43.684296-8.602188 15.929321-8.099899 21.942871-22.264961 16.004395-39.090187-4.993103-14.146812-14.023438-25.751343-24.633301-35.941494-14.64737-14.067917-29.9263-27.478588-44.947907-41.156236-6.400268-5.827618-7.239654-5.874091-14.305023-1.041541-.961456.657607-1.910614 1.337832-2.824798 2.05917-5.691742 4.491184-5.610505 5.437018-1.254761 11.092888 5.984466 7.770809 11.972961 15.577656 17.336212 23.776905 5.513397 8.428745 9.307251 17.645771 9.434021 28.028324.107117 8.775391-2.179321 13.209145-10.691284 14.863831-10.364289 2.014755-21.016693 3.082954-31.580597 3.416664-18.477753.583694-37.005432-.253326-55.471558.500359-27.382385 1.117599-54.051544 7.018463-80.562256 13.651565-15.00885 3.755295-29.769683 8.126732-43.736862 15.079132.966736 3.433212 2.11937 6.578095 2.685303 9.825241.485779 2.787339 1.793884 3.830643 4.519028 4.195664 25.568695 3.424789 51.096344 7.16864 76.691314 10.378418 11.861237 1.487487 23.844849 1.999054 35.987 2.970169v48.388443c-41.342621 4.427215-81.747376 12.769272-120.549881 28.165542.623642 2.077561 1.484283 3.950074 1.715393 5.897278.753036 6.344437 4.666412 8.738877 10.550186 9.506546 25.072327 3.271164 50.106964 6.834488 75.189789 10.020432 11.002441 1.39743 22.08728 2.146332 33.517303 3.22586 0 14.18985 0 27.995087-.174499 42.710572v10.965942c-16.876496 0-32.849396.096222-48.820618-.025696-17.751465-.135498-35.231048 1.588257-52.179169 7.143402-14.782974 4.845398-27.461914 12.803314-36.144912 26.027558-9.971482 15.186615-11.247772 32.04721-8.429779 49.444152 2.992584 18.474701 13.454208 31.442505 30.036514 39.736634 16.103516 8.054687 33.404724 11.207733 51.147797 11.772003 19.468414.619171 38.960998.480286 58.443084.667267 1.782502.01712 3.565338.002289 5.627472.002289 0 16.474975 0 32.409332-.732849 48.395477z" fill="#fff"/><path d="m367.897522 1403.134155c0-17.152466 0-34.304931 0-52.172607-1.73819 0-3.663879.022217-5.588928-.003418-25.85907-.343018-51.594086-1.893433-76.64975-8.954102-11.592896-3.266601-22.484375-7.991699-31.95665-15.801391-15.76532-12.998169-19.654724-29.723755-15.973038-48.89917 4.406876-22.952515 20.40799-34.623169 41.270112-40.711304 9.3591-2.731079 19.212738-3.7677 27.477874-5.317383-7.870392-1.60144-17.395111-3.051269-26.640655-5.538574-12.90445-3.471924-24.61438-9.466797-32.910874-20.399658-15.529663-20.464722-15.925979-55.391968 11.510178-73.401978 13.499725-8.861694 28.609955-13.736572 44.331909-15.713989 19.616303-2.466919 39.42572-3.403442 59.154999-4.959717 1.949646-.153808 3.921936-.020385 6.118256-.020385 0-16.536255 0-32.625611 0-49.284546-1.733429 0-3.511536.021362-5.288971-.003296-21.652893-.299317-43.319458-.234741-64.953797-1.037232-14.865265-.551513-29.308929-3.934204-42.918121-10.203979-18.027298-8.305176-29.561707-21.864136-32.410309-41.811585-2.793976-19.56488-.89238-38.349243 12.32605-54.26123 11.006515-13.24939 25.924377-20.398438 42.372894-23.471802 13.49997-2.522522 27.359162-3.553955 41.108154-4.195434 14.798981-.690308 29.65506-.156312 44.486237-.156617 1.622955-.000061 3.245941-.000061 5.290955-.000061 0-11.891968 0-23.343994.461029-35.295105 23.014679-.488525 45.56839-.477966 68.12207-.467468.207031 13.8125.577087 27.624756.592651 41.4375.064698 57.497681.022583 114.995605.019654 172.493408-.000122 1.823731-.000031 3.647339-.000031 6.170044 5.480499.598633 10.863587 1.105347 16.224671 1.785156 35.052703 4.444947 68.154144 14.38208 96.275909 36.668091 31.410583 24.892212 45.144775 57.517945 40.520935 97.584717-4.514099 39.116211-27.479858 64.680176-61.0271 81.970703-27.87326 14.366211-58.303497 19.05896-89.146881 21.637695-.958587.080201-1.9169.163697-3.054596.260987v222.419555c10.293793 3.792115 20.750306 7.40918 31.028809 11.476075 27.33963 10.817749 53.432007 24.117309 77.233521 41.4375 16.822509 12.241455 31.250305 27.082275 41.839538 45.141357 8.180481 13.950928 4.43103 21.533447-11.48291 22.769409-9.566895.743042-19.279968-.43811-28.928772-.699951-42.037262-1.141113-83.974243.078735-125.581024 6.623169-11.782868 1.853394-23.333161 5.188355-34.982819 7.87561-.566864.13086-1.062744.569214-1.66864.907227 13.532562 6.130249 26.987274 11.767822 40.038574 18.221313 42.174622 20.854249 82.471771 44.83252 119.753784 73.650147 5.646973 4.364868 10.83075 9.35144 16.041993 14.249145 2.899353 2.724976 4.041137 6.067505 1.669006 9.870728-2.409302 3.862793-6.129578 4.724365-10.014832 3.52771-6.023986-1.855469-12.020996-3.967285-17.75-6.58252-27.851532-12.713256-55.477478-25.927368-83.434906-38.400146-35.510803-15.842774-72.250274-28.23523-110.580413-35.065918-23.35846-4.162598-47.084412-4.211792-70.764679-2.409058-1.638703.124756-3.295136.016236-4.763245.016236 1.848877-14.654419 12.104736-22.770752 23.352325-30.230713 30.831269-20.448731 65.037049-32.529297 100.76352-40.864014 25.35553-5.915161 51.117523-9.175171 77.046722-10.902099 20.271576-1.350098 40.595703-1.910523 60.895752-2.837891 1.324524-.060547 2.6427-.257568 5.628235-.55957-2.783691-3.403931-4.436585-6.9198-7.201111-8.546631-11.86676-6.983033-23.662628-14.306519-36.207825-19.876587-42.037384-18.664917-86.293975-28.871094-132.004394-33.50293-28.971405-2.935425-57.935181-4.034668-86.691101.520752-10.021027 1.587647-16.443527-.46875-21.403595-8.75-.170319-.284424-.388413-.540161-.802109-1.108642 17.394577-12.28418 36.866257-19.615723 57.535355-23.516358 20.549682-3.878296 41.295013-6.720093 62.519836-10.106689 0-41.366578 0-83.647217-.020996-126.853516-.083466-9.223511-.145935-17.52124-.208435-25.81897m105.227325-254.790893c-11.435058-5.39856-23.264648-9.515991-36.291076-11.375611 0 2.279663.011627 4.251953-.001801 6.223877-.136993 20.141846.183136 40.30127-.582916 60.419312-.495941 13.025268-8.495544 21.726684-21.067719 25.366821-2.581176.747437-5.205566 1.345459-9.156341 2.357056 21.781982 3.366943 30.75827 13.815429 30.801727 34.410034.03476 16.485352.006989 32.970581.007019 49.455933 0 2.28955.000031 4.579223.000031 6.923095 1.188568-.052612 1.861603-.023437 2.515381-.121826 2.132598-.320801 4.266571-.643921 6.385162-1.044922 22.078186-4.178467 42.573425-11.773926 59.382477-27.398803 21.18808-19.695435 29.117279-44.405762 25.045746-72.380738-5.007141-34.403564-25.931519-57.370727-57.03769-72.834228m-133.624603-200.718201c-9.655029.129456-19.345428-.212402-28.955994.509338-11.669281.876343-21.255126 5.907044-27.668579 16.257142-8.351867 13.478454-9.338684 28.146728-7.189148 43.259948 1.293274 9.092896 5.069581 17.120362 12.008393 23.469605 8.705292 7.966064 19.401764 9.742676 30.567566 9.842407 15.152954.135376 30.308014.039795 45.462188.025879 1.453064-.001221 2.906006-.125 4.147065-.182129 0-31.241516 0-62.137817 0-93.18219-9.398072 0-18.384766 0-28.371491 0m-4.938202 258.42865h33.221619c0-23.231934 0-46.925293 0-70.853638-17.546326.094727-34.623718 1.078003-51.389679 4.979859-24.674622 5.742187-31.018005 24.134155-25.460632 44.116089 1.235351 4.441772 4.561157 9.036865 8.215911 11.930053 9.966492 7.889893 22.370423 8.621582 35.412781 9.827637m-43.639709 70.617187c-.293701 1.125-.65683 2.236939-.870697 3.376954-3.629212 19.343505 2.539367 35.610595 23.774109 41.046386 8.966766 2.29541 18.224243 3.691773 27.436157 4.725098 8.835113.991089 17.782348.983154 26.531799 1.406982 0-24.485839 0-48.16394 0-71.822876-14.691437-.526855-44.615387.552369-56.785553 4.586914-8.704803 2.885621-16.137573 6.999512-20.085815 16.680542z" fill="#020202"/><path d="m368.360046 656.950378c-.059021-8.999572-.118042-17.999084.207642-27.754821.360168-43.235474.335632-85.714844.38916-128.657196.088349-63.751435.10315-127.039826.079346-190.328217-.000519-1.416595-.43985-2.833008-.6745-4.249512 0-13.805267 0-27.610504 0-41.800354-11.430023-1.079528-22.514862-1.82843-33.517303-3.22586-25.082825-3.185944-50.117462-6.749268-75.189789-10.020432-5.883774-.767669-9.79715-3.162109-10.550186-9.506546-.23111-1.947204-1.091751-3.819717-1.715393-5.897278 38.802505-15.39627 79.20726-23.738327 120.549881-28.165542 0-16.386688 0-32.328156 0-48.388443-12.142151-.971115-24.125763-1.482682-35.987-2.970169-25.59497-3.209778-51.122619-6.953629-76.691314-10.378418-2.725144-.365021-4.033249-1.408325-4.519028-4.195664-.565933-3.247146-1.718567-6.392029-2.685303-9.825241 13.967179-6.9524 28.728012-11.323837 43.736862-15.079132 26.510712-6.633102 53.179871-12.533966 80.562256-13.651565 18.466126-.753685 36.993805.083335 55.471558-.500359 10.563904-.33371 21.216308-1.401909 31.580597-3.416664 8.511963-1.654686 10.798401-6.08844 10.691284-14.863831-.12677-10.382553-3.920624-19.599579-9.434021-28.028324-5.363251-8.199249-11.351746-16.006096-17.336212-23.776905-4.355744-5.65587-4.436981-6.601704 1.254761-11.092888.914184-.721338 1.863342-1.401563 2.824798-2.05917 7.065369-4.83255 7.904755-4.786077 14.305023 1.041541 15.021607 13.677648 30.300537 27.088319 44.947907 41.156236 10.609863 10.190151 19.640198 21.794682 24.633301 35.941494 5.938476 16.825226-.075074 30.990288-16.004395 39.090187-13.793671 7.013916-28.659271 8.256714-43.684296 8.602188-11.451477.263291-22.913818.052292-34.770416.052292 0 2.18393-.001068 3.96875.000214 5.753556.044311 61.823333.13034 123.646667.123993 185.470001-.010712 104.650665-.08255 209.30133-.102753 313.951965-.000366 1.959229.320374 3.918457.483185 6.177796-.987061.416564-1.965943.634399-2.944855.63446-22.011658.001404-44.023346-.021118-66.035004-.039185z" fill="#010101"/><path d="m368.275299 657.411438c22.096405-.442993 44.108093-.420471 66.119751-.421875.978912-.000061 1.957794-.217896 3.369354-.4151 4.778076 4.418884 8.637665 9.557922 13.560211 13.297974 14.670655 11.146972 29.627991 21.931274 44.723908 32.499328 12.617126 8.832703 24.770996 18.183289 33.459106 31.045349 14.878846 22.026917 15.010376 45.230347 3.46753 68.576782-9.176453 18.560303-25.173493 29.75116-43.723633 37.536133-15.011871 6.299927-30.753662 9.625977-47.088196 9.442932-4.332458-.048461-5.408508 1.783997-5.365723 5.68805.129609 11.82196.023316 23.646545-.075744 35.930603-22.638397.450012-45.192108.439453-68.210694.465149-23.154083-4.321839-45.914184-8.346436-68.508514-13.150574-16.073639-3.417603-31.892029-8.021118-47.896057-11.79071-4.096542-.964844-4.202301-3.444886-4.186325-6.604798.015518-3.066894.447006-5.118408 4.240646-6.013733 28.776459-6.79126 57.459931-13.976623 86.240051-20.752014 6.280518-1.478516 12.837616-1.769165 19.257599-2.675842 2.248108-.317566 4.467011-.84198 7.601471-1.445618-4.610565-4.765503-8.874664-8.602478-12.471466-12.986877-17.959045-21.89148-24.90863-46.063538-13.712555-73.328064 5.303192-12.914307 15.3844-21.846192 26.75-29.533875 13.2146-8.938415 26.239899-18.156555 39.371552-27.2182.786346-.542603 1.786835-.774903 2.687652-1.151612-.355529-.55249-.711029-1.105041-1.066558-1.657593-12.692505 0-25.38501 0-38.628113 0 0-8.671936 0-16.773376.084747-25.335815m117.143066 145.489441c12.298432-13.422974 14.379975-29.330444 10.126923-46.152771-3.396484-13.434387-13.321075-22.85669-22.890869-32.113587-12.068115-11.673461-24.54007-22.929565-36.863068-34.338439-.438934-.406373-1.147094-.521973-1.169769-.531739-6.628998 7.49646-12.965454 14.697144-19.340546 21.863404-9.944946 11.179016-20.834838 21.655883-29.68869 33.638855-19.702728 26.665832-4.369995 65.435913 28.017914 72.931274 11.498932 2.661072 23.013886 3.373596 34.661713 1.729004 13.793457-1.94751 26.446869-6.525879 37.146392-17.026001z" fill="#c57034"/><path d="m368.274445 306.415741c.321899.961395.76123 2.377808.761749 3.794403.023804 63.288391.009003 126.576782-.332337 190.318359-.499481.441956-.667877.430787-.836273.419587 0-15.934357 0-31.868714 0-48.343689-2.062134 0-3.84497.014831-5.627472-.002289-19.482086-.186981-38.97467-.048096-58.443084-.667267-17.743073-.56427-35.044281-3.717316-51.147797-11.772003-16.582306-8.294129-27.04393-21.261933-30.036514-39.736634-2.817993-17.396942-1.541703-34.257537 8.429779-49.444152 8.682998-13.224244 21.361938-21.18216 36.144912-26.027558 16.948121-5.555145 34.427704-7.2789 52.179169-7.143402 15.971222.121918 31.944122.025696 48.820618.025696 0-3.823608 0-7.394775.08725-11.421051m-25.774445 125.729767h25.19339c0-31.677796 0-62.689758 0-93.229096-20.068085 0-39.702057-.540283-59.286347.212159-10.928344.41983-20.053039 5.961639-25.899536 15.627868-8.916137 14.741455-10.206085 30.714325-6.590423 47.192993 4.020538 18.323914 17.334472 29.33902 36.118988 29.974274 9.812591.331879 19.642059.164032 30.463928.221802z" fill="#c57136"/><path d="m367.50116 500.973999c.53482-.014709.703216-.00354 1.124633.017517.277527 42.489197.302063 84.968567.033387 127.745789-.365479-23.022583-.447571-46.343079-.505677-69.663636-.026123-10.491577-.004425-20.983276-.004425-32.485473-1.990844 1.29718-3.443634 2.184265-4.83493 3.159118-33.689758 23.606141-67.463501 47.094666-100.963409 70.967408-5.238831 3.733276-10.541749 4.213806-16.016236 3.110717-24.95607-5.028503-49.834183-10.443969-74.737472-15.733703-.461045-.097962-.886887-.361633-1.279938-.527222-1.136047-8.027038-1.142624-8.043579 6.021301-10.88562 63.597336-25.22998 127.19722-50.453552 191.162766-75.704895z" fill="#c57035"/><path d="m367.567078 1403.243896c.392944 8.187989.455413 16.485718.457214 25.243409-28.709595 20.524902-57.360077 40.587768-86.006287 60.656738-6.685547 4.683716-13.621185 9.061645-19.94873 14.188599-4.855286 3.934448-9.992828 4.187133-15.471314 3.054321-24.12294-4.987915-48.215652-10.121948-72.32254-15.187622-2.253708-.473511-4.791977-.381836-4.472198-3.932251.270263-3.000611-.63295-5.74353 3.689331-7.41919 37.324707-14.469482 74.521576-29.268921 111.74704-43.994018 27.339843-10.814575 54.665252-21.665528 82.327484-32.609986z" fill="#c47034"/><g fill="#fefefe"><path d="m473.451935 1148.530396c30.779083 15.276367 51.703461 38.24353 56.710602 72.647094 4.071533 27.974976-3.857666 52.685303-25.045746 72.380738-16.809052 15.624877-37.304291 23.220336-59.382477 27.398803-2.118591.401001-4.252564.724121-6.385162 1.044922-.653778.098389-1.326813.069214-2.515381.121826 0-2.343872-.000031-4.633545-.000031-6.923095-.00003-16.485352.027741-32.970581-.007019-49.455933-.043457-20.594605-9.019745-31.043091-30.801727-34.410034 3.950775-1.011597 6.575165-1.609619 9.156341-2.357056 12.572175-3.640137 20.571778-12.341553 21.067719-25.366821.766052-20.118042.445923-40.277466.582916-60.419312.013428-1.971924.001801-3.944214.001801-6.223877 13.026428 1.85962 24.856018 5.977051 36.618164 11.562745z"/><path d="m340.000244 947.625061h27.871491v93.18219c-1.241059.057129-2.694001.180908-4.147065.182129-15.154174.013916-30.309234.109497-45.462188-.025879-11.165802-.099731-21.862274-1.876343-30.567566-9.842407-6.938812-6.349243-10.715119-14.376709-12.008393-23.469605-2.149536-15.11322-1.162719-29.781494 7.189148-43.259948 6.413453-10.350098 15.999298-15.380799 27.668579-16.257142 9.610566-.72174 19.300965-.379882 29.455994-.509338z"/><path d="m334.091797 1206.040771c-12.572113-1.193115-24.976044-1.924804-34.942536-9.814697-3.654754-2.893188-6.98056-7.488281-8.215911-11.930053-5.557373-19.981934.78601-38.373902 25.460632-44.116089 16.765961-3.901856 33.843353-4.885132 51.389679-4.979859v70.853638c-11.02713 0-22.12439 0-33.691864-.01294z"/><path d="m291.035248 1276.294678c3.835327-9.30481 11.268097-13.418701 19.9729-16.304322 12.170166-4.034545 42.094116-5.113769 56.785553-4.586914v71.822876c-8.749451-.423828-17.696686-.415893-26.531799-1.406982-9.211914-1.033325-18.469391-2.429688-27.436157-4.725098-21.234742-5.435791-27.403321-21.702881-23.774109-41.046386.213867-1.140015.576996-2.251954.983612-3.753174z"/></g><path d="m485.156647 803.145874c-10.437805 10.255127-23.091217 14.833496-36.884674 16.781006-11.647827 1.644592-23.162781.932068-34.661713-1.729004-32.387909-7.495361-47.720642-46.265442-28.017914-72.931274 8.853852-11.982972 19.743744-22.459839 29.68869-33.638855 6.375092-7.16626 12.711548-14.366944 19.340546-21.863404.022675.009766.730835.125366 1.169769.531739 12.322998 11.408874 24.794953 22.664978 36.863068 34.338439 9.569794 9.256897 19.494385 18.6792 22.890869 32.113587 4.253052 16.822327 2.171509 32.729797-10.388641 46.397766z" fill="#fffefe"/><path d="m342 432.145569c-10.321869-.057831-20.151337.110016-29.963928-.221863-18.784516-.635254-32.09845-11.65036-36.118988-29.974274-3.615662-16.478668-2.325714-32.451538 6.590423-47.192993 5.846497-9.666229 14.971192-15.208038 25.899536-15.627868 19.58429-.752442 39.218262-.212159 59.286347-.212159v93.229096c-8.341095 0-16.767243 0-25.69339.000061z" fill="#fffffe"/></svg>