<svg enable-background="new 0 0 752 878" viewBox="0 0 752 878" xmlns="http://www.w3.org/2000/svg"><path d="m753 353v525.999817c-250.666473.000061-501.332932.000061-751.999543.000122-.000152-292.66626-.000152-585.332581-.000305-877.999168 250.666047-.000257 501.332245-.000257 751.999116-.000514.000732 117.166407.000732 234.333071.000732 351.999743m-384.770813 29.825317v25.594391c-68.947784 9.282501-139.564606 66.384247-155.021393 103.868561 2.054581.233215 4.008438.448731 5.960755.67749 18.019958 2.111878 36.131652 3.64148 54.040374 6.460572 37.84906 5.957824 75.027863 14.889343 111.538361 26.6203 44.187012 14.197449 87.255981 31.091308 127.294708 54.72821 30.244873 17.855225 59.77771 36.917603 89.588135 55.505677 2.344116 1.461608 4.107483 2.42163 7.115662.882629 38.237182-19.562927 76.611511-38.858154 114.836547-58.44458 5.27472-2.702759 10.31836-6.167175 14.782227-10.065369 5.976929-5.219604 3.768433-14.13385-4.032227-15.63324-6.073425-1.167358-12.601501-1.332031-18.73767-.515441-11.359437 1.511596-22.521729 4.484741-33.875184 6.066955-10.654663 1.484986-21.500976 3.104187-32.17279 2.630615-19.94751-.88507-38.955261-7.159729-57.551453-13.907714-38.180725-13.854554-76.137878-28.333558-114.077942-42.841065-64.00476-24.47406-129.540863-41.717255-198.866485-43.895599 22.331665-17.134094 47.728149-28.521485 74.237945-38.245026 27.173767-9.967071 55.304108-7.812073 83.729889-8.199737 0-17.873169 0-34.996582.207276-53.036408 0-51.051239 0-102.102508 0-153.458969 12.029754 0 23.7052.358993 35.35083-.077286 21.936523-.821838 43.40805-4.322357 63.569183-13.523193 11.169067-5.097199 21.443848-11.809906 28.792847-21.757767 16.539917-22.388824 14.778381-47.402283-4.528015-67.610474-14.356324-15.026878-32.000428-25.497665-50.583954-34.244186-14.284302-6.72303-28.978943-12.615433-43.681397-18.393066-8.674469-3.408829-15.151458-8.748432-19.218963-17.113209-3.130463-6.437637-6.328247-12.844318-9.607361-19.20742-4.565857-8.860087-11.406647-15.370957-21.251435-17.490515-12.041076-2.592417-24.204589-1.609257-36.14978 1.106617-3.172821.72138-6.268432 2.336784-9.013305 4.132139-1.218476.796961-2.3891 3.322418-2.017762 4.613527 1.787537 6.214896 4.048157 12.29822 6.253907 18.387289 3.524261 9.728897 1.856689 18.534958-4.166993 26.830262-6.370269 8.772567-15.234649 14.005149-25.222992 16.979377-20.139587 5.996979-39.445495 5.294762-54.905761-11.205169-5.634095-6.012978-9.778626-13.414269-14.665589-20.136479-7.571136-10.414444-16.147461-9.787128-21.322677 1.936215-7.79747 17.663498-8.870377 36.203163-4.545014 54.787094 3.370941 14.483146 12.78801 22.347709 27.708512 22.902916 8.129028.302475 16.858276-.730713 24.421753-3.55687 10.826355-4.045349 20.645935-10.698074 31.236236-15.483078 14.507111-6.554733 28.832916-14.565925 44.126892-18.106231 32.774079-7.586663 65.528321-4.101265 97.358856 6.696617 12.274964 4.164055 23.23819 10.581604 31.877625 20.646873 12.786316 14.8965 11.843384 35.452591-2.582092 47.690659-7.931916 6.72911-17.329712 10.442749-27.411499 12.504745-23.525788 4.811676-47.005432 3.420944-70.523011-.336807-13.763733-2.199234-27.603271-5.174637-41.442596-5.367401-22.75589-.316956-44.795624 5.771911-66.742462 11.252182-16.863404 4.210922-33.554108 9.113617-50.124603 13.654678v11.914307c39.841857 8.586609 79.745178 17.186477 119.778625 25.814377v41.349228c-41.457001 4.443298-81.939697 12.625122-120.732437 28.339721.747192 2.602387 1.518722 4.637024 1.89917 6.74231.968735 5.360901 3.826294 8.070678 9.467697 8.789703 27.384399 3.490051 54.718964 7.370026 82.096802 10.913544 9.036163 1.169525 18.149231 1.744873 27.731781 2.639007 0 12.665955 0 24.971863-.227753 38.193512m68.617432 349.688233c0-4.093384 0-8.186768 0-12.113404-23.314331 0-45.879364 0-68.693268 0 0 2.217408.00003 4.03534.00003 5.853272-.000122 18.999634.06012 37.999512-.020752 56.99884-.058166 13.666809-5.455505 24.731079-16.405456 33.086975-10.269928 7.837098-22.135864 11.636353-34.690704 12.500367-14.764649 1.016113-29.611268 1.049194-44.424103 1.114379-32.998703.145264-65.999024.156373-98.997666.002747-19.080459-.088928-35.474731-6.473816-47.53215-21.925903-10.959244-14.0448-18.803467-29.683594-23.140953-46.972962-.767555-3.059631-2.245003-4.2854-5.098244-4.941101-18.607887-4.276428-37.184231-8.689819-55.782005-13.010498-8.321552-1.933349-16.668785-3.756164-24.948349-5.616577-1.845865 4.890686-.045628 7.244812 3.925726 9.114319 10.504316 4.944885 20.166448 11.064514 25.764139 21.82019 3.605461 6.927613 6.588684 14.211914 10.591534 20.892517 6.777622 11.311768 13.018757 23.226868 21.486896 33.186585 18.989449 22.334045 45.048508 31.354858 73.355706 33.271301 22.732833 1.539002 45.610519 1.472534 68.416702 1.276856 40.293258-.345642 80.618973-.508606 120.856704-2.362549 23.660706-1.090149 46.721558-6.865906 67.046204-20.213257 15.877228-10.426697 26.189148-24.874512 27.389588-44.026978 1.186157-18.924011.669799-37.95465.900421-57.935119m-255.224488-158.610291c-8.313202-1.445556-16.58255-3.281616-24.952514-4.221924-7.689133-.86383-11.802201 1.938721-14.216507 8.207093-2.601013 6.753113-1.541611 11.133911 5.290039 15.869079 11.874924 8.230713 22.167221 18.011536 31.126068 29.286072 1.3396 1.685852 2.891113 3.222046 4.46434 4.699951 4.960663 4.660034 10.032745 5.738831 15.916672 2.230225 4.788589-2.855408 9.342361-6.396973 13.257522-10.366821 9.5159-9.648865 8.947571-19.622864-.765762-29.133484-8.332046-8.158142-18.566574-12.713257-30.119858-16.570191z" fill="#fff"/><path d="m368.45694 381.909607c0-12.305939 0-24.611847 0-37.277802-9.58255-.894134-18.695618-1.469482-27.731781-2.639007-27.377838-3.543518-54.712403-7.423493-82.096802-10.913544-5.641403-.719025-8.498962-3.428802-9.467697-8.789703-.380448-2.105286-1.151978-4.139923-1.89917-6.74231 38.79274-15.714599 79.275436-23.896423 120.732437-28.339721 0-14.232483 0-28.029877 0-41.349228-40.033447-8.6279-79.936768-17.227768-119.778625-25.814377 0-4.594956 0-7.885132 0-11.914307 16.570495-4.541061 33.261199-9.443756 50.124603-13.654678 21.946838-5.480271 43.986572-11.569138 66.742462-11.252182 13.839325.192764 27.678863 3.168167 41.442596 5.367401 23.517579 3.757751 46.997223 5.148483 70.523011.336807 10.081787-2.061996 19.479583-5.775635 27.411499-12.504745 14.425476-12.238068 15.368408-32.794159 2.582092-47.690659-8.639435-10.065269-19.602661-16.482818-31.877625-20.646873-31.830535-10.797882-64.584777-14.28328-97.358856-6.696617-15.293976 3.540306-29.619781 11.551498-44.126892 18.106231-10.590301 4.785004-20.409881 11.437729-31.236236 15.483078-7.563477 2.826157-16.292725 3.859345-24.421753 3.55687-14.920502-.555207-24.337571-8.41977-27.708512-22.902916-4.325363-18.583931-3.252456-37.123596 4.545014-54.787094 5.175216-11.723343 13.751541-12.350659 21.322677-1.936215 4.886963 6.72221 9.031494 14.123501 14.665589 20.136479 15.460266 16.499931 34.766174 17.202148 54.905761 11.205169 9.988343-2.974228 18.852723-8.20681 25.222992-16.979377 6.023682-8.295304 7.691254-17.101365 4.166993-26.830262-2.20575-6.089069-4.46637-12.172393-6.253907-18.387289-.371338-1.291109.799286-3.816566 2.017762-4.613527 2.744873-1.795355 5.840484-3.410759 9.013305-4.132139 11.945191-2.715874 24.108704-3.699034 36.14978-1.106617 9.844788 2.119558 16.685578 8.630428 21.251435 17.490515 3.279114 6.363102 6.476898 12.769783 9.607361 19.20742 4.067505 8.364777 10.544494 13.70438 19.218963 17.113209 14.702454 5.777633 29.397095 11.670036 43.681397 18.393066 18.583526 8.746521 36.22763 19.217308 50.583954 34.244186 19.306396 20.208191 21.067932 45.22165 4.528015 67.610474-7.348999 9.947861-17.62378 16.660568-28.792847 21.757767-20.161133 9.200836-41.63266 12.701355-63.569183 13.523193-11.64563.436279-23.321076.077286-35.35083.077286 0 51.356461 0 102.40773-.573792 153.921982-23.114258.432037-45.654724.401062-68.19519.370056z" fill="#010101"/><path d="m368.343079 382.367462c22.654327-.426849 45.194793-.395874 68.205413-.36972.470154 17.118622.470154 34.242035.470154 52.115204-28.425781.387664-56.556122-1.767334-83.729889 8.199737-26.509796 9.723541-51.90628 21.110932-74.237945 38.245026 69.325622 2.178344 134.861725 19.421539 198.866485 43.895599 37.940064 14.507507 75.897217 28.986511 114.077942 42.841065 18.596192 6.747985 37.603943 13.022644 57.551453 13.907714 10.671814.473572 21.518127-1.145629 32.17279-2.630615 11.353455-1.582214 22.515747-4.555359 33.875184-6.066955 6.136169-.81659 12.664245-.651917 18.73767.515441 7.80066 1.49939 10.009156 10.413636 4.032227 15.63324-4.463867 3.898194-9.507507 7.36261-14.782227 10.065369-38.225036 19.586426-76.599365 38.881653-114.836547 58.44458-3.008179 1.539001-4.771546.578979-7.115662-.882629-29.810425-18.588074-59.343262-37.650452-89.588135-55.505677-40.038727-23.636902-83.107696-40.530761-127.294708-54.72821-36.510498-11.730957-73.689301-20.662476-111.538361-26.6203-17.908722-2.819092-36.020416-4.348694-54.040374-6.460572-1.952317-.228759-3.906174-.444275-5.960755-.67749 15.456787-37.484314 86.073609-94.58606 155.021393-103.868561 0-8.428009 0-17.0112.113892-26.052246z" fill="#c47034"/><path d="m436.846558 733.011841c-.230561 19.482178.285797 38.512817-.90036 57.436828-1.20044 19.152466-11.51236 33.600281-27.389588 44.026978-20.324646 13.347351-43.385498 19.123108-67.046204 20.213257-40.237731 1.853943-80.563446 2.016907-120.856704 2.362549-22.806183.195678-45.683869.262146-68.416702-1.276856-28.307198-1.916443-54.366257-10.937256-73.355706-33.271301-8.468139-9.959717-14.709274-21.874817-21.486896-33.186585-4.00285-6.680603-6.986073-13.964904-10.591534-20.892517-5.597691-10.755676-15.259823-16.875305-25.764139-21.82019-3.971354-1.869507-5.771591-4.223633-3.925726-9.114319 8.279564 1.860413 16.626797 3.683228 24.948349 5.616577 18.597774 4.320679 37.174118 8.73407 55.782005 13.010498 2.853241.655701 4.330689 1.88147 5.098244 4.941101 4.337486 17.289368 12.181709 32.928162 23.140953 46.972962 12.057419 15.452087 28.451691 21.836975 47.53215 21.925903 32.998642.153626 65.998963.142517 98.997666-.002747 14.812835-.065185 29.659454-.098266 44.424103-1.114379 12.55484-.864014 24.420776-4.663269 34.690704-12.500367 10.949951-8.355896 16.34729-19.420166 16.405456-33.086975.080872-18.999328.02063-37.999206.020752-56.99884 0-1.817932-.00003-3.635864-.00003-5.853272h68.693268c0 3.926636 0 8.02002-.000061 12.611695z" fill="#c46f34"/><path d="m181.999985 574.015381c11.17543 3.744812 21.409958 8.299927 29.742004 16.458069 9.713333 9.51062 10.281662 19.484619.765762 29.133484-3.915161 3.969848-8.468933 7.511413-13.257522 10.366821-5.883927 3.508606-10.956009 2.429809-15.916672-2.230225-1.573227-1.477905-3.12474-3.014099-4.46434-4.699951-8.958847-11.274536-19.251144-21.055359-31.126068-29.286072-6.83165-4.735168-7.891052-9.115966-5.290039-15.869079 2.414306-6.268372 6.527374-9.070923 14.216507-8.207093 8.369964.940308 16.639312 2.776368 25.330368 4.334046z" fill="#c47035"/></svg>