<svg version="1.1" id="Layer_1" xmlns="http://www.w3.org/2000/svg" xmlns:xlink="http://www.w3.org/1999/xlink" x="0px" y="0px"
	 width="100%" viewBox="0 0 630 814" enable-background="new 0 0 630 814" xml:space="preserve">
<path fill="#FFFFFF" opacity="1.000000" stroke="none" 
	d="
M1.000000,317.000000 
	C1.000000,211.333328 1.000000,106.166664 1.000000,1.000000 
	C211.000000,1.000000 421.000000,1.000000 631.000000,1.000000 
	C631.000000,272.333344 631.000000,543.666687 631.000000,815.000000 
	C421.000000,815.000000 211.000000,815.000000 1.000000,815.000000 
	C1.000000,649.166687 1.000000,483.333344 1.000000,317.000000 
M236.301041,287.004395 
	C236.301041,295.628662 236.301041,304.252930 236.301041,313.115662 
	C226.363419,315.471039 216.818771,317.670868 207.305588,319.999237 
	C173.110809,328.368469 138.779297,336.232758 104.789368,345.366730 
	C81.405807,351.650482 59.388866,361.442474 40.772354,377.617157 
	C18.952604,396.574829 12.206770,424.412689 23.908524,449.753937 
	C31.062075,465.245605 44.236588,474.163239 59.974060,479.087189 
	C89.849495,488.434662 119.981171,488.393036 149.682388,478.564636 
	C163.906937,473.857605 176.094086,465.459930 181.837433,450.697327 
	C191.205078,426.618927 185.879654,404.724762 169.507416,385.753387 
	C162.415863,377.536072 153.055130,371.277069 144.191544,363.670624 
	C173.714752,354.027161 204.341354,346.844971 236.061783,340.869812 
	C236.061783,343.326965 236.061813,344.937561 236.061798,346.548187 
	C236.061493,394.357880 236.054382,442.167603 236.070343,489.977295 
	C236.072128,495.301178 236.205170,500.624969 236.101242,506.877197 
	C236.101242,517.818237 236.101242,528.759216 236.101242,538.812988 
	C169.895309,553.270813 117.147430,585.663147 79.511887,643.328857 
	C88.245819,644.291199 95.292343,645.141113 102.354271,645.833984 
	C152.218140,650.726013 200.960907,661.013306 248.737930,676.035950 
	C301.998352,692.782715 353.190094,714.152283 400.632721,743.892212 
	C423.912750,758.485596 447.063049,773.285889 470.361725,787.849060 
	C471.842621,788.774780 474.524597,789.303345 475.934692,788.595703 
	C514.785950,769.097778 553.588196,749.500366 592.267456,729.663757 
	C597.530334,726.964661 602.187988,723.031738 606.959534,719.448669 
	C609.810120,717.308105 610.150208,714.232117 609.216125,710.867188 
	C607.785828,705.714966 604.129028,702.555237 596.235352,703.205566 
	C583.367065,704.265747 570.376099,705.701904 557.853821,708.713135 
	C530.911987,715.192017 504.655853,713.501709 478.752777,704.462341 
	C449.682312,694.317627 420.671417,683.995117 391.742889,673.452881 
	C360.310913,661.998413 329.325653,649.217896 297.555237,638.819214 
	C262.586182,627.373657 226.591537,619.482544 190.015076,614.908264 
	C175.941666,613.148254 161.703506,612.705566 147.255234,611.641663 
	C169.468140,594.667236 194.843918,583.326782 221.322021,573.557556 
	C248.551712,563.510925 276.697601,566.187073 304.429718,565.496582 
	C304.429718,545.195557 304.429718,525.554199 304.644440,504.999237 
	C304.653290,451.767151 304.662079,398.535034 304.671539,345.302948 
	C304.671783,343.972198 304.675415,342.641388 304.683411,341.310669 
	C304.794220,322.875793 304.906067,304.440918 305.223541,285.085785 
	C305.223541,237.873199 305.223541,190.660629 305.223541,143.155273 
	C316.650452,143.155273 327.666077,143.723175 338.596283,142.999832 
	C350.146057,142.235504 361.746338,140.887604 373.075989,138.576141 
	C381.907471,136.774368 390.029633,132.380157 395.783051,125.021690 
	C404.339996,114.077660 402.862335,102.219131 397.494690,90.639252 
	C391.492767,77.691093 382.530060,66.699600 372.186554,57.012962 
	C358.108612,43.829033 343.574127,31.133181 329.264038,18.196335 
	C323.311340,12.814870 322.455505,12.704913 315.805115,17.148733 
	C314.707336,17.882284 313.554138,18.561546 312.565216,19.424759 
	C306.765717,24.487059 306.851074,25.035946 311.830475,30.920076 
	C321.618683,42.486832 331.047089,54.543972 335.637573,69.102463 
	C342.453430,90.718658 336.873413,98.291992 315.332184,99.868088 
	C299.751373,101.008072 284.034241,101.228851 268.415161,100.718399 
	C226.813019,99.358780 186.619659,107.242256 146.897064,118.326248 
	C136.422913,121.248901 126.305176,125.448853 115.859627,129.119965 
	C116.940590,132.971558 118.010239,135.794312 118.483414,138.713745 
	C119.104584,142.546326 121.203758,143.694382 124.882721,144.100754 
	C132.467377,144.938538 139.961227,146.577393 147.539948,147.493713 
	C171.950790,150.445206 196.379883,153.247223 220.810013,156.036240 
	C225.867142,156.613586 230.959015,156.886795 235.930557,157.291672 
	C235.930557,172.428085 235.930557,187.056610 235.930557,201.284775 
	C215.218246,204.915955 194.689835,208.000809 174.396561,212.217346 
	C154.141769,216.425873 134.357758,222.496582 115.253349,230.593170 
	C115.682198,232.233139 116.122360,233.336456 116.243851,234.473801 
	C117.129532,242.765320 122.264641,245.966156 130.030396,246.925171 
	C156.096649,250.144135 182.118912,253.718262 208.180054,256.980408 
	C217.369034,258.130585 226.621475,258.773834 236.457047,259.706604 
	C236.457047,268.820007 236.457047,277.455719 236.301041,287.004395 
M595.649414,425.638947 
	C580.297791,426.213623 564.946167,426.788330 548.685303,427.397064 
	C556.590271,413.363800 555.967163,400.464813 548.959229,388.150848 
	C533.296326,360.629150 494.613373,353.138062 469.481689,372.410522 
	C455.604980,383.052002 452.907928,399.030151 462.972229,413.397583 
	C466.257568,418.087585 470.527039,422.088196 474.451538,426.522919 
	C470.313568,427.403961 466.203705,427.904327 462.356750,429.190826 
	C457.298187,430.882599 455.730438,434.050446 457.910553,438.900787 
	C460.420166,444.484222 463.537750,449.835175 466.866058,454.979980 
	C467.657166,456.202820 470.337708,456.203308 473.454590,457.171570 
	C472.293762,453.595306 471.733032,451.887604 471.184967,450.175842 
	C469.496490,444.902069 470.396973,443.351410 475.860413,442.356567 
	C477.160095,442.119904 478.512665,442.109222 479.841248,442.104980 
	C501.999664,442.034363 524.158081,441.961792 546.316528,441.930176 
	C565.810364,441.902374 585.304260,441.940094 604.798157,441.916290 
	C611.123779,441.908539 612.432739,440.034485 610.771667,433.944641 
	C609.112793,427.862762 607.707092,421.710358 605.964294,415.653900 
	C605.595886,414.374023 604.247070,413.376251 603.349976,412.248505 
	C602.523010,413.442261 601.551758,414.562439 600.897766,415.844452 
	C599.315186,418.947296 597.880554,422.125641 595.649414,425.638947 
M551.519714,274.795319 
	C552.391663,270.453674 554.101074,266.085602 553.965088,261.775757 
	C553.661072,252.141281 547.957275,244.760880 542.145996,237.603638 
	C538.217407,232.765213 534.307556,227.911621 531.010620,223.833267 
	C535.132507,223.833267 541.257690,223.982758 547.372192,223.790268 
	C553.228455,223.605927 554.739685,220.673340 552.594788,215.289108 
	C550.510437,210.056824 549.023743,204.589020 547.074768,199.298248 
	C546.602112,198.015152 545.343872,197.021408 544.446838,195.894638 
	C543.360779,197.084351 542.146057,198.186203 541.246704,199.503418 
	C540.839600,200.099625 541.105408,201.130356 540.986633,201.952484 
	C540.385742,206.110428 538.840637,209.306549 533.861267,209.308884 
	C531.714355,209.309891 529.568054,209.787308 527.420715,209.793396 
	C511.764282,209.837799 496.107666,209.839935 480.451141,209.810211 
	C467.873322,209.786346 469.242493,210.960312 465.709412,199.280380 
	C464.823914,196.352905 463.528168,194.928574 460.324707,196.528763 
	C460.324707,210.292236 460.324707,224.031433 460.324707,237.661926 
	C464.872375,239.356384 465.200836,236.162445 466.017731,233.461166 
	C468.571533,225.016495 468.589294,225.021774 477.336273,225.021652 
	C486.663574,225.021530 496.016693,225.445099 505.309509,224.879028 
	C511.972595,224.473160 517.168030,226.603027 522.116638,230.670914 
	C529.641907,236.856857 536.863037,243.281113 540.013306,252.872681 
	C543.122375,262.338898 539.007385,268.605560 529.185974,268.940430 
	C513.060608,269.490234 496.920471,269.656982 480.784912,269.842499 
	C469.406769,269.973328 469.304199,269.901855 465.694244,259.164459 
	C464.654846,256.072784 463.192627,255.272247 460.340332,256.468323 
	C460.340332,270.639862 460.340332,284.544617 460.340332,298.377167 
	C464.888580,299.751434 465.285980,296.650269 466.031921,293.873383 
	C468.376892,285.143677 468.509949,285.071655 477.479401,285.052124 
	C496.299255,285.011139 515.120544,285.069305 533.938171,284.838867 
	C541.156677,284.750458 547.145508,281.773468 551.519714,274.795319 
M535.892456,81.558113 
	C517.243103,69.072357 497.616364,66.815521 477.373901,76.975090 
	C464.127136,83.623596 457.110840,94.686684 456.920776,109.857826 
	C456.714447,126.329910 466.777069,136.770981 478.094391,146.472122 
	C478.708832,146.998840 480.935822,146.374237 481.833160,145.607712 
	C482.537872,145.005753 482.864777,143.111893 482.445496,142.223160 
	C481.610870,140.454041 480.160339,138.971619 478.941376,137.388367 
	C473.299744,130.060623 469.379700,121.976402 470.711304,112.541969 
	C472.981934,96.454155 491.045990,84.278870 507.877106,87.543076 
	C507.877106,89.217033 507.877075,91.007957 507.877106,92.798882 
	C507.877411,106.798424 507.282410,120.832359 508.088440,134.785355 
	C508.620636,143.997513 512.153320,149.932571 522.303284,147.907410 
	C524.092468,147.550400 525.907166,147.298599 527.673340,146.852676 
	C545.990356,142.228149 556.090576,129.031113 553.919922,111.166649 
	C552.458496,99.139778 546.278503,89.328682 535.892456,81.558113 
M459.412476,610.847656 
	C465.219238,618.056274 470.938263,625.339783 476.943085,632.379456 
	C477.699097,633.265747 479.959259,632.868958 481.522491,633.066589 
	C481.582458,631.369446 482.289246,629.312012 481.581940,628.042358 
	C479.406067,624.136780 476.334930,620.719849 474.249603,616.775757 
	C468.226135,605.383362 468.816742,592.046082 479.573090,582.864319 
	C487.568909,576.038940 497.022278,573.690735 507.877197,573.393127 
	C507.877197,575.298035 507.877197,577.076050 507.877197,578.854065 
	C507.877441,593.176086 507.840546,607.498169 507.896332,621.820007 
	C507.918427,627.492981 512.198792,634.793884 515.892212,635.006592 
	C527.148315,635.654785 545.041443,629.520630 551.297424,616.051819 
	C558.671753,600.175232 550.917358,580.380493 538.049622,570.089172 
	C522.431580,557.598328 504.505371,554.513184 485.844452,560.237793 
	C462.729340,567.328674 451.904510,586.206604 459.412476,610.847656 
z"/>
<path fill="#C47034" opacity="1.000000" stroke="none" 
	d="
M304.429718,505.912872 
	C304.429718,525.554199 304.429718,545.195557 304.429718,565.496582 
	C276.697601,566.187073 248.551712,563.510925 221.322021,573.557556 
	C194.843918,583.326782 169.468140,594.667236 147.255234,611.641663 
	C161.703506,612.705566 175.941666,613.148254 190.015076,614.908264 
	C226.591537,619.482544 262.586182,627.373657 297.555237,638.819214 
	C329.325653,649.217896 360.310913,661.998413 391.742889,673.452881 
	C420.671417,683.995117 449.682312,694.317627 478.752777,704.462341 
	C504.655853,713.501709 530.911987,715.192017 557.853821,708.713135 
	C570.376099,705.701904 583.367065,704.265747 596.235352,703.205566 
	C604.129028,702.555237 607.785828,705.714966 609.216125,710.867188 
	C610.150208,714.232117 609.810120,717.308105 606.959534,719.448669 
	C602.187988,723.031738 597.530334,726.964661 592.267456,729.663757 
	C553.588196,749.500366 514.785950,769.097778 475.934692,788.595703 
	C474.524597,789.303345 471.842621,788.774780 470.361725,787.849060 
	C447.063049,773.285889 423.912750,758.485596 400.632721,743.892212 
	C353.190094,714.152283 301.998352,692.782715 248.737930,676.035950 
	C200.960907,661.013306 152.218140,650.726013 102.354271,645.833984 
	C95.292343,645.141113 88.245819,644.291199 79.511887,643.328857 
	C117.147430,585.663147 169.895309,553.270813 236.101242,538.812988 
	C236.101242,528.759216 236.101242,517.818237 236.638046,506.405182 
	C259.593140,505.926392 282.011414,505.919647 304.429718,505.912872 
z"/>
<path fill="#010101" opacity="1.000000" stroke="none" 
	d="
M304.537079,505.456055 
	C282.011414,505.919647 259.593140,505.926392 236.726105,505.940979 
	C236.205170,500.624969 236.072128,495.301178 236.070343,489.977295 
	C236.054382,442.167603 236.061493,394.357880 236.061798,346.548187 
	C236.061813,344.937561 236.061783,343.326965 236.061783,340.869812 
	C204.341354,346.844971 173.714752,354.027161 144.191544,363.670624 
	C153.055130,371.277069 162.415863,377.536072 169.507416,385.753387 
	C185.879654,404.724762 191.205078,426.618927 181.837433,450.697327 
	C176.094086,465.459930 163.906937,473.857605 149.682388,478.564636 
	C119.981171,488.393036 89.849495,488.434662 59.974060,479.087189 
	C44.236588,474.163239 31.062075,465.245605 23.908524,449.753937 
	C12.206770,424.412689 18.952604,396.574829 40.772354,377.617157 
	C59.388866,361.442474 81.405807,351.650482 104.789368,345.366730 
	C138.779297,336.232758 173.110809,328.368469 207.305588,319.999237 
	C216.818771,317.670868 226.363419,315.471039 236.301041,313.115662 
	C236.301041,304.252930 236.301041,295.628662 236.815704,286.538269 
	C259.892792,286.050140 282.455231,286.028107 305.017639,286.006042 
	C304.906067,304.440918 304.794220,322.875793 304.683411,341.310669 
	C304.675415,342.641388 304.671783,343.972198 304.671539,345.302948 
	C304.662079,398.535034 304.653290,451.767151 304.537079,505.456055 
M121.554420,461.192902 
	C127.847404,458.666534 134.498856,456.779602 140.364807,453.491455 
	C156.661224,444.356628 161.568008,429.777893 154.200851,412.841309 
	C147.161514,396.658386 133.746017,387.182709 118.342850,379.885071 
	C113.011078,377.359039 108.304367,377.127472 102.921776,380.048615 
	C86.759064,388.820099 72.272133,399.217377 66.710678,417.832275 
	C62.618954,431.527832 67.531403,451.210083 83.607147,458.542053 
	C95.748329,464.079468 108.098160,463.888245 121.554420,461.192902 
z"/>
<path fill="#C46F34" opacity="1.000000" stroke="none" 
	d="
M305.120605,285.545929 
	C282.455231,286.028107 259.892792,286.050140 236.893707,286.081787 
	C236.457047,277.455719 236.457047,268.820007 236.457047,259.706604 
	C226.621475,258.773834 217.369034,258.130585 208.180054,256.980408 
	C182.118912,253.718262 156.096649,250.144135 130.030396,246.925171 
	C122.264641,245.966156 117.129532,242.765320 116.243851,234.473801 
	C116.122360,233.336456 115.682198,232.233139 115.253349,230.593170 
	C134.357758,222.496582 154.141769,216.425873 174.396561,212.217346 
	C194.689835,208.000809 215.218246,204.915955 235.930557,201.284775 
	C235.930557,187.056610 235.930557,172.428085 235.930557,157.291672 
	C230.959015,156.886795 225.867142,156.613586 220.810013,156.036240 
	C196.379883,153.247223 171.950790,150.445206 147.539948,147.493713 
	C139.961227,146.577393 132.467377,144.938538 124.882721,144.100754 
	C121.203758,143.694382 119.104584,142.546326 118.483414,138.713745 
	C118.010239,135.794312 116.940590,132.971558 115.859627,129.119965 
	C126.305176,125.448853 136.422913,121.248901 146.897064,118.326248 
	C186.619659,107.242256 226.813019,99.358780 268.415161,100.718399 
	C284.034241,101.228851 299.751373,101.008072 315.332184,99.868088 
	C336.873413,98.291992 342.453430,90.718658 335.637573,69.102463 
	C331.047089,54.543972 321.618683,42.486832 311.830475,30.920076 
	C306.851074,25.035946 306.765717,24.487059 312.565216,19.424759 
	C313.554138,18.561546 314.707336,17.882284 315.805115,17.148733 
	C322.455505,12.704913 323.311340,12.814870 329.264038,18.196335 
	C343.574127,31.133181 358.108612,43.829033 372.186554,57.012962 
	C382.530060,66.699600 391.492767,77.691093 397.494690,90.639252 
	C402.862335,102.219131 404.339996,114.077660 395.783051,125.021690 
	C390.029633,132.380157 381.907471,136.774368 373.075989,138.576141 
	C361.746338,140.887604 350.146057,142.235504 338.596283,142.999832 
	C327.666077,143.723175 316.650452,143.155273 305.223541,143.155273 
	C305.223541,190.660629 305.223541,237.873199 305.120605,285.545929 
z"/>
<path fill="#ACACAC" opacity="1.000000" stroke="none" 
	d="
M596.017822,425.456238 
	C597.880554,422.125641 599.315186,418.947296 600.897766,415.844452 
	C601.551758,414.562439 602.523010,413.442261 603.349976,412.248505 
	C604.247070,413.376251 605.595886,414.374023 605.964294,415.653900 
	C607.707092,421.710358 609.112793,427.862762 610.771667,433.944641 
	C612.432739,440.034485 611.123779,441.908539 604.798157,441.916290 
	C585.304260,441.940094 565.810364,441.902374 546.316528,441.930176 
	C524.158081,441.961792 501.999664,442.034363 479.841248,442.104980 
	C478.512665,442.109222 477.160095,442.119904 475.860413,442.356567 
	C470.396973,443.351410 469.496490,444.902069 471.184967,450.175842 
	C471.733032,451.887604 472.293762,453.595306 473.454590,457.171570 
	C470.337708,456.203308 467.657166,456.202820 466.866058,454.979980 
	C463.537750,449.835175 460.420166,444.484222 457.910553,438.900787 
	C455.730438,434.050446 457.298187,430.882599 462.356750,429.190826 
	C466.203705,427.904327 470.313568,427.403961 474.451538,426.522919 
	C470.527039,422.088196 466.257568,418.087585 462.972229,413.397583 
	C452.907928,399.030151 455.604980,383.052002 469.481689,372.410522 
	C494.613373,353.138062 533.296326,360.629150 548.959229,388.150848 
	C555.967163,400.464813 556.590271,413.363800 548.685303,427.397064 
	C564.946167,426.788330 580.297791,426.213623 596.017822,425.456238 
M527.083130,426.853943 
	C529.250244,426.209290 531.814148,426.099243 533.520142,424.833191 
	C544.591125,416.617432 546.005920,398.059845 536.539917,387.925293 
	C522.266052,372.643372 488.944916,373.735413 475.691162,389.919495 
	C469.104431,397.962524 468.711700,404.714935 474.792419,413.429047 
	C477.440643,417.224121 480.470673,420.832581 483.795013,424.041260 
	C485.373352,425.564697 488.032806,426.684723 490.229401,426.731781 
	C502.204498,426.988190 514.187988,426.853729 527.083130,426.853943 
z"/>
<path fill="#ABABAB" opacity="1.000000" stroke="none" 
	d="
M551.312378,275.108704 
	C547.145508,281.773468 541.156677,284.750458 533.938171,284.838867 
	C515.120544,285.069305 496.299255,285.011139 477.479401,285.052124 
	C468.509949,285.071655 468.376892,285.143677 466.031921,293.873383 
	C465.285980,296.650269 464.888580,299.751434 460.340332,298.377167 
	C460.340332,284.544617 460.340332,270.639862 460.340332,256.468323 
	C463.192627,255.272247 464.654846,256.072784 465.694244,259.164459 
	C469.304199,269.901855 469.406769,269.973328 480.784912,269.842499 
	C496.920471,269.656982 513.060608,269.490234 529.185974,268.940430 
	C539.007385,268.605560 543.122375,262.338898 540.013306,252.872681 
	C536.863037,243.281113 529.641907,236.856857 522.116638,230.670914 
	C517.168030,226.603027 511.972595,224.473160 505.309509,224.879028 
	C496.016693,225.445099 486.663574,225.021530 477.336273,225.021652 
	C468.589294,225.021774 468.571533,225.016495 466.017731,233.461166 
	C465.200836,236.162445 464.872375,239.356384 460.324707,237.661926 
	C460.324707,224.031433 460.324707,210.292236 460.324707,196.528763 
	C463.528168,194.928574 464.823914,196.352905 465.709412,199.280380 
	C469.242493,210.960312 467.873322,209.786346 480.451141,209.810211 
	C496.107666,209.839935 511.764282,209.837799 527.420715,209.793396 
	C529.568054,209.787308 531.714355,209.309891 533.861267,209.308884 
	C538.840637,209.306549 540.385742,206.110428 540.986633,201.952484 
	C541.105408,201.130356 540.839600,200.099625 541.246704,199.503418 
	C542.146057,198.186203 543.360779,197.084351 544.446838,195.894623 
	C545.343872,197.021408 546.602112,198.015152 547.074768,199.298248 
	C549.023743,204.589020 550.510437,210.056824 552.594788,215.289108 
	C554.739685,220.673340 553.228455,223.605927 547.372192,223.790268 
	C541.257690,223.982758 535.132507,223.833267 531.010620,223.833267 
	C534.307556,227.911621 538.217407,232.765213 542.145996,237.603638 
	C547.957275,244.760880 553.661072,252.141281 553.965088,261.775757 
	C554.101074,266.085602 552.391663,270.453674 551.312378,275.108704 
z"/>
<path fill="#ABABAB" opacity="1.000000" stroke="none" 
	d="
M536.172607,81.780823 
	C546.278503,89.328682 552.458496,99.139778 553.919922,111.166649 
	C556.090576,129.031113 545.990356,142.228149 527.673340,146.852676 
	C525.907166,147.298599 524.092468,147.550400 522.303284,147.907410 
	C512.153320,149.932571 508.620636,143.997513 508.088440,134.785355 
	C507.282410,120.832359 507.877411,106.798424 507.877106,92.798882 
	C507.877075,91.007957 507.877106,89.217033 507.877106,87.543076 
	C491.045990,84.278870 472.981934,96.454155 470.711304,112.541969 
	C469.379700,121.976402 473.299744,130.060623 478.941376,137.388367 
	C480.160339,138.971619 481.610870,140.454041 482.445496,142.223160 
	C482.864777,143.111893 482.537872,145.005753 481.833160,145.607712 
	C480.935822,146.374237 478.708832,146.998840 478.094391,146.472122 
	C466.777069,136.770981 456.714447,126.329910 456.920776,109.857826 
	C457.110840,94.686684 464.127136,83.623596 477.373901,76.975090 
	C497.616364,66.815521 517.243103,69.072357 536.172607,81.780823 
M542.650146,117.583435 
	C544.780151,100.957253 533.846313,87.897728 517.098267,87.598984 
	C517.098267,101.051750 517.003723,114.503922 517.275085,127.948708 
	C517.297119,129.042313 519.752136,130.898270 521.193237,131.019989 
	C530.481567,131.804504 538.258423,126.964867 542.650146,117.583435 
z"/>
<path fill="#ABABAB" opacity="1.000000" stroke="none" 
	d="
M459.242584,610.491211 
	C451.904510,586.206604 462.729340,567.328674 485.844452,560.237793 
	C504.505371,554.513184 522.431580,557.598328 538.049622,570.089172 
	C550.917358,580.380493 558.671753,600.175232 551.297424,616.051819 
	C545.041443,629.520630 527.148315,635.654785 515.892212,635.006592 
	C512.198792,634.793884 507.918427,627.492981 507.896332,621.820007 
	C507.840546,607.498169 507.877441,593.176086 507.877197,578.854065 
	C507.877197,577.076050 507.877197,575.298035 507.877197,573.393127 
	C497.022278,573.690735 487.568909,576.038940 479.573090,582.864319 
	C468.816742,592.046082 468.226135,605.383362 474.249603,616.775757 
	C476.334930,620.719849 479.406067,624.136780 481.581940,628.042358 
	C482.289246,629.312012 481.582458,631.369446 481.522522,633.066589 
	C479.959259,632.868958 477.699097,633.265747 476.943085,632.379456 
	C470.938263,625.339783 465.219238,618.056274 459.242584,610.491211 
M522.482483,618.086853 
	C536.099854,617.146179 543.692688,609.368835 543.026062,597.044189 
	C542.384460,585.183777 529.802246,574.046021 517.098206,574.552856 
	C517.098206,587.959106 517.072937,601.391663 517.117920,614.824036 
	C517.127808,617.779419 519.179260,618.268799 522.482483,618.086853 
z"/>
<path fill="#FDFDFD" opacity="1.000000" stroke="none" 
	d="
M121.144913,461.276581 
	C108.098160,463.888245 95.748329,464.079468 83.607147,458.542053 
	C67.531403,451.210083 62.618954,431.527832 66.710678,417.832275 
	C72.272133,399.217377 86.759064,388.820099 102.921776,380.048615 
	C108.304367,377.127472 113.011078,377.359039 118.342850,379.885071 
	C133.746017,387.182709 147.161514,396.658386 154.200851,412.841309 
	C161.568008,429.777893 156.661224,444.356628 140.364807,453.491455 
	C134.498856,456.779602 127.847404,458.666534 121.144913,461.276581 
z"/>
<path fill="#FEFEFE" opacity="1.000000" stroke="none" 
	d="
M526.625854,426.853851 
	C514.187988,426.853729 502.204498,426.988190 490.229401,426.731781 
	C488.032806,426.684723 485.373352,425.564697 483.795013,424.041260 
	C480.470673,420.832581 477.440643,417.224121 474.792419,413.429047 
	C468.711700,404.714935 469.104431,397.962524 475.691162,389.919495 
	C488.944916,373.735413 522.266052,372.643372 536.539917,387.925293 
	C546.005920,398.059845 544.591125,416.617432 533.520142,424.833191 
	C531.814148,426.099243 529.250244,426.209290 526.625854,426.853851 
z"/>
<path fill="#FDFDFD" opacity="1.000000" stroke="none" 
	d="
M542.478882,117.956894 
	C538.258423,126.964867 530.481567,131.804504 521.193237,131.019989 
	C519.752136,130.898270 517.297119,129.042313 517.275085,127.948708 
	C517.003723,114.503922 517.098267,101.051750 517.098267,87.598984 
	C533.846313,87.897728 544.780151,100.957253 542.478882,117.956894 
z"/>
<path fill="#FEFEFE" opacity="1.000000" stroke="none" 
	d="
M522.040222,618.091187 
	C519.179260,618.268799 517.127808,617.779419 517.117920,614.824036 
	C517.072937,601.391663 517.098206,587.959106 517.098206,574.552856 
	C529.802246,574.046021 542.384460,585.183777 543.026062,597.044189 
	C543.692688,609.368835 536.099854,617.146179 522.040222,618.091187 
z"/>
</svg>