<svg version="1.1" id="Layer_1" xmlns="http://www.w3.org/2000/svg" xmlns:xlink="http://www.w3.org/1999/xlink" x="0px" y="0px"
	 width="100%" viewBox="0 0 630 996" enable-background="new 0 0 630 996" xml:space="preserve">
<path fill="#FFFFFF" opacity="1.000000" stroke="none" 
	d="
M1.000000,402.000000 
	C1.000000,268.020477 1.000000,134.540985 1.000000,1.030735 
	C210.947281,1.030735 420.894562,1.030735 630.920898,1.030735 
	C630.920898,332.896301 630.920898,664.792664 630.920898,996.844482 
	C421.000092,996.844482 211.000061,996.844482 1.000000,996.844482 
	C1.000000,798.771851 1.000000,600.635925 1.000000,402.000000 
M304.819885,545.022766 
	C304.825806,500.524567 304.849670,456.026367 304.828674,411.528168 
	C304.820587,394.371063 304.710571,377.213989 304.806702,359.125732 
	C304.806702,289.377136 304.806702,219.628525 304.806702,149.592926 
	C315.598602,149.592926 325.632660,150.196487 335.563690,149.442627 
	C348.448517,148.464539 361.712280,148.008530 373.992767,144.476303 
	C399.027954,137.275452 408.554901,118.556900 396.401703,94.880249 
	C388.112335,78.731049 375.744598,65.904640 362.655273,53.770973 
	C351.421143,43.357037 339.439941,33.747234 328.245941,23.292721 
	C324.366455,19.669495 321.537079,19.674019 317.407867,22.235159 
	C305.956635,29.337736 305.964203,29.882723 314.340302,40.275108 
	C323.333069,51.432590 332.073212,62.898315 336.193573,76.934494 
	C341.886414,96.327179 337.124146,104.207291 317.113708,105.809158 
	C299.886658,107.188210 282.497375,107.226990 265.198730,106.889267 
	C221.883179,106.043594 180.148315,114.621681 139.030334,127.101768 
	C131.161087,129.490234 123.596779,132.883408 116.921936,135.421356 
	C115.982803,147.879364 122.612892,150.604462 132.534561,151.632645 
	C162.149490,154.701660 191.672256,158.655563 221.239319,162.194626 
	C226.127274,162.779709 231.056931,163.016479 235.806427,163.401184 
	C235.806427,175.192993 235.806427,186.437546 235.806427,197.997955 
	C233.655701,197.997955 231.847580,197.991653 230.039536,197.998917 
	C211.710526,198.072647 193.376480,197.909332 175.053955,198.293549 
	C157.938797,198.652451 141.320847,201.774475 125.621567,208.982666 
	C110.608566,215.875748 99.347031,226.430588 93.450974,242.088318 
	C89.448357,252.717758 88.812775,263.770264 89.856606,275.026031 
	C91.647095,294.333252 100.525108,309.054413 117.598320,318.523865 
	C134.458115,327.874969 152.906677,331.304382 171.858139,331.927521 
	C191.334686,332.567993 210.837631,332.405884 230.329071,332.590668 
	C232.102753,332.607483 233.876724,332.592926 236.354004,332.592926 
	C236.354004,342.148376 236.354004,351.101685 236.180084,360.979858 
	C236.174149,366.813019 236.008240,372.652313 236.232788,378.476593 
	C236.337967,381.204590 235.468124,382.654175 233.007843,383.830627 
	C211.965866,393.892365 191.003326,404.120605 169.932755,414.121490 
	C168.252777,414.918854 165.709137,415.020874 163.959076,414.378143 
	C136.337463,404.233459 108.789001,393.889709 81.182823,383.702545 
	C79.756462,383.176178 77.458855,382.994904 76.442802,383.782684 
	C74.168259,385.546234 72.446533,388.022797 70.565025,390.135620 
	C85.424408,407.273010 99.869789,423.932953 114.333870,440.614471 
	C113.844376,440.984222 113.610962,441.229218 113.325714,441.366302 
	C83.821503,455.539398 54.304001,469.684906 24.812555,483.884521 
	C18.009346,487.160156 17.924618,487.522980 19.743687,495.460541 
	C45.385872,500.925476 71.106247,506.525970 96.892662,511.803833 
	C102.135262,512.876892 107.132492,512.155457 111.509972,507.764404 
	C116.276123,502.983490 122.012238,499.170776 127.316925,494.925232 
	C157.034943,471.140747 186.745224,447.346527 216.470901,423.571564 
	C222.742432,418.555511 229.066940,413.605682 236.162323,407.996643 
	C236.162323,410.744446 236.162323,412.355682 236.162323,413.966919 
	C236.162323,435.799225 236.137589,457.631561 236.169220,479.463837 
	C236.201324,501.624146 236.289062,523.784363 236.191681,546.873962 
	C236.191681,552.174744 236.191681,557.475525 236.191681,562.983887 
	C226.217117,565.368286 216.720184,567.814941 207.143860,569.896240 
	C171.898636,577.556396 136.546158,584.722412 102.162628,595.910400 
	C80.020721,603.115112 58.767593,611.877380 40.951885,627.389404 
	C19.236507,646.296875 12.507945,671.524109 23.333431,698.119751 
	C31.091707,717.179993 47.658707,726.259338 66.565834,730.991089 
	C94.061920,737.872437 121.731361,737.949158 148.719559,728.774292 
	C178.502762,718.649109 190.741592,696.332703 184.849915,665.837952 
	C180.575867,643.715881 166.397736,627.919861 146.881729,616.928833 
	C145.839035,616.341553 144.884720,615.597351 142.643311,614.086182 
	C173.867722,603.861084 204.395645,596.737305 236.053467,590.747925 
	C236.053467,593.534973 236.053482,595.319031 236.053467,597.103088 
	C236.052872,640.591675 236.043304,684.080200 236.061890,727.568787 
	C236.064514,733.727600 236.204071,739.886353 236.082291,746.957764 
	C236.082291,757.567810 236.082291,768.177856 236.082291,778.825623 
	C222.609909,779.577332 209.626251,779.857910 196.738037,781.116272 
	C172.305496,783.501526 148.196930,787.713440 126.061165,799.062683 
	C105.577713,809.564880 90.552986,824.407654 89.473068,849.171875 
	C88.649452,868.058838 94.068871,884.672119 108.114571,897.873718 
	C123.250771,912.100098 141.795761,919.397461 161.933350,921.890869 
	C179.570099,924.074646 197.427170,924.947632 215.210815,925.354126 
	C236.020279,925.829712 256.862823,925.450378 277.677216,924.910034 
	C291.596161,924.548584 300.821808,916.514160 303.673920,903.062988 
	C304.563873,898.865723 304.771881,894.462219 304.787567,890.151245 
	C304.884064,863.654846 304.835938,837.157837 304.835938,810.661072 
	C304.835938,808.857361 304.835938,807.053650 304.835938,804.789124 
	C326.874146,809.341736 348.048279,814.612427 366.911713,826.689575 
	C379.916168,835.015625 390.161865,845.639526 395.150818,860.476746 
	C401.225739,878.543762 401.148254,896.165039 389.677948,912.454956 
	C379.973297,926.237549 366.378143,935.094360 351.414124,942.036255 
	C331.595306,951.230408 310.318359,955.162598 289.018616,959.071106 
	C282.704590,960.229675 276.301880,961.909729 270.501312,964.573547 
	C264.919708,967.136780 265.219055,972.535461 270.910980,974.790466 
	C276.082733,976.839417 281.709381,978.670715 287.191986,978.847595 
	C314.928345,979.742554 342.471222,977.590149 369.446716,970.778687 
	C395.064148,964.309998 418.908020,954.429443 438.046417,935.093018 
	C463.316467,909.561462 463.883179,871.953552 450.819092,844.590210 
	C441.188751,824.418945 424.461243,811.457947 404.771484,802.057800 
	C381.400238,790.900085 356.477997,785.222168 330.921326,782.028992 
	C322.241241,780.944458 313.536377,780.058044 304.426025,779.034302 
	C304.426025,767.698792 304.426025,756.893555 304.648529,745.173401 
	C304.669678,695.567993 304.697937,645.962524 304.707947,596.357117 
	C304.711334,579.553528 304.668396,562.750000 304.819885,545.022766 
M481.863251,646.094055 
	C500.019501,646.068970 518.175781,646.031860 536.332031,646.021912 
	C559.152832,646.009399 581.973572,646.024963 604.794373,646.015869 
	C611.762695,646.013123 612.570312,644.697571 610.579834,637.924805 
	C608.896057,632.195740 607.704651,626.322510 606.046631,620.584961 
	C605.645630,619.197571 604.263489,618.093689 603.332520,616.859436 
	C602.489258,618.170837 601.165039,619.386719 600.882690,620.809387 
	C599.349426,628.534607 598.751404,629.992065 590.774597,630.388733 
	C577.499329,631.048828 564.171814,630.662598 550.866272,630.685242 
	C550.638184,630.685669 550.409363,630.285767 549.957581,629.864441 
	C550.161987,629.234558 550.325867,628.444763 550.661865,627.736633 
	C556.861389,614.670288 555.183472,602.075073 547.700745,590.251831 
	C531.869141,565.236694 495.735046,558.209290 471.618835,575.189453 
	C455.592010,586.473877 452.328522,603.003235 463.433929,618.432739 
	C466.583344,622.808472 470.699768,626.488220 474.553009,630.683472 
	C470.476776,631.557983 466.563141,632.153137 462.801758,633.263733 
	C457.578979,634.805786 455.715210,638.213562 457.955994,643.167786 
	C460.477753,648.743225 463.614471,654.082642 466.966278,659.209229 
	C467.751801,660.410706 470.478668,660.342957 472.959839,661.041321 
	C470.070404,648.123596 470.070404,648.123596 481.863251,646.094055 
M467.150970,724.631775 
	C452.772247,738.642700 453.947906,765.259949 468.563965,779.182861 
	C487.327515,797.056458 516.971252,797.824707 535.392639,780.155029 
	C538.698669,776.983887 540.393433,777.733582 541.797241,781.450073 
	C543.145508,785.019592 544.158569,788.725769 545.678345,792.215332 
	C546.287170,793.613159 547.856689,794.592407 548.988953,795.762207 
	C549.710938,794.370178 551.024353,792.992188 551.057739,791.583801 
	C551.255249,783.258179 550.804260,774.905151 551.286621,766.602844 
	C551.579407,761.564026 549.288818,759.885254 545.066162,760.065552 
	C543.194702,760.145569 541.146545,761.185486 539.595703,762.346680 
	C537.768494,763.714722 536.621338,765.996155 534.785950,767.347229 
	C520.770264,777.664062 504.961060,781.669739 488.106049,777.631592 
	C468.746796,772.993469 463.277618,756.039368 473.645660,742.893555 
	C483.102844,730.902588 496.028259,727.439941 510.703888,729.409973 
	C522.796570,731.033386 532.519470,736.724609 540.403992,746.127136 
	C541.653442,747.617188 545.692444,746.980225 548.427856,746.892944 
	C549.344055,746.863708 550.982178,745.496216 550.994446,744.719971 
	C551.164978,733.948364 551.109863,723.173218 551.109863,712.647156 
	C547.609192,711.286072 546.468811,712.376343 545.611145,715.276550 
	C544.106934,720.363098 541.990845,725.268738 539.642517,731.558838 
	C529.665771,719.614197 517.891724,714.587341 504.548981,713.547302 
	C491.085480,712.497864 478.360962,715.014526 467.150970,724.631775 
M489.078735,292.545471 
	C502.334930,297.200653 515.538635,296.741821 528.626160,291.944122 
	C543.915710,286.339233 555.103333,272.882385 554.280457,255.464218 
	C553.580688,240.654755 545.173462,230.542084 535.362488,221.031006 
	C534.694580,220.383575 532.064148,220.500153 531.635742,221.133484 
	C530.792908,222.379700 530.140320,224.559692 530.687012,225.781540 
	C532.032654,228.788651 534.221985,231.403992 535.859924,234.296967 
	C543.693481,248.132660 541.354065,261.938629 529.607971,272.026245 
	C515.914307,283.786469 487.021606,282.040527 474.972748,271.330902 
	C466.951538,264.201233 465.846313,253.284515 472.117188,244.262680 
	C478.122437,235.623032 484.835785,234.603149 496.128113,240.291992 
	C497.263641,240.864029 499.342529,240.318970 500.597076,239.609222 
	C501.322662,239.198761 501.716888,237.326782 501.492737,236.276367 
	C500.800568,233.032806 499.527222,229.910706 498.872833,226.662247 
	C497.928192,221.972885 494.618958,219.813736 490.516266,219.267914 
	C486.969391,218.796051 483.149567,218.962372 479.654907,219.751770 
	C462.894775,223.537659 454.671082,240.617432 457.434204,257.574493 
	C460.366333,275.568970 472.022522,286.056183 489.078735,292.545471 
M530.986633,409.907196 
	C514.007019,409.922882 497.027435,409.942291 480.047852,409.952942 
	C468.942688,409.959930 468.861481,409.978882 465.607635,399.238434 
	C464.658844,396.106628 463.208832,395.209198 460.357056,396.654022 
	C460.357056,411.765442 460.357056,426.662598 460.357056,441.435608 
	C463.634369,442.521179 464.926727,441.563507 465.300171,438.407928 
	C465.647797,435.470490 466.726318,432.620361 467.473175,429.729218 
	C468.349365,426.337280 470.380249,424.976135 474.012756,425.066986 
	C482.830078,425.287537 491.674591,425.489075 500.474457,425.039398 
	C509.202118,424.593445 516.968628,427.308990 524.135620,431.557892 
	C529.168884,434.541870 534.002808,438.294189 537.912720,442.619202 
	C541.807251,446.927246 540.238281,451.675354 535.034851,454.559204 
	C533.304871,455.517944 531.281372,455.955078 529.574585,456.945282 
	C528.212708,457.735352 527.127869,459.002960 525.919983,460.058563 
	C527.138367,461.357300 528.134338,463.355438 529.615967,463.826630 
	C534.501343,465.380280 539.554932,466.413269 544.558350,467.584442 
	C548.387634,468.480713 550.778809,467.074005 552.334229,463.320190 
	C556.783020,452.583832 553.530396,441.089478 543.337463,433.313690 
	C539.656067,430.505310 535.673401,428.091980 531.333435,425.164673 
	C534.781494,424.878784 537.424072,424.631622 540.071045,424.447906 
	C542.885681,424.252563 545.710815,424.188324 548.520020,423.938629 
	C552.366638,423.596710 554.458862,420.831604 553.415100,417.742615 
	C551.399231,411.776611 549.546143,405.752991 547.394226,399.837433 
	C546.868774,398.393005 545.448242,397.274170 544.439270,396.005615 
	C543.485474,397.269745 541.735840,398.518646 541.711365,399.800568 
	C541.584595,406.427765 538.099182,409.376923 530.986633,409.907196 
z"/>
<path fill="#C47034" opacity="1.000000" stroke="none" 
	d="
M236.354004,360.054993 
	C236.354004,351.101685 236.354004,342.148376 236.354004,332.592926 
	C233.876724,332.592926 232.102753,332.607483 230.329071,332.590668 
	C210.837631,332.405884 191.334686,332.567993 171.858139,331.927521 
	C152.906677,331.304382 134.458115,327.874969 117.598320,318.523865 
	C100.525108,309.054413 91.647095,294.333252 89.856606,275.026031 
	C88.812775,263.770264 89.448357,252.717758 93.450974,242.088318 
	C99.347031,226.430588 110.608566,215.875748 125.621567,208.982666 
	C141.320847,201.774475 157.938797,198.652451 175.053955,198.293549 
	C193.376480,197.909332 211.710526,198.072647 230.039536,197.998917 
	C231.847580,197.991653 233.655701,197.997955 235.806427,197.997955 
	C235.806427,186.437546 235.806427,175.192993 235.806427,163.401184 
	C231.056931,163.016479 226.127274,162.779709 221.239319,162.194626 
	C191.672256,158.655563 162.149490,154.701660 132.534561,151.632645 
	C122.612892,150.604462 115.982803,147.879364 116.921936,135.421356 
	C123.596779,132.883408 131.161087,129.490234 139.030334,127.101768 
	C180.148315,114.621681 221.883179,106.043594 265.198730,106.889267 
	C282.497375,107.226990 299.886658,107.188210 317.113708,105.809158 
	C337.124146,104.207291 341.886414,96.327179 336.193573,76.934494 
	C332.073212,62.898315 323.333069,51.432590 314.340302,40.275108 
	C305.964203,29.882723 305.956635,29.337736 317.407867,22.235159 
	C321.537079,19.674019 324.366455,19.669495 328.245941,23.292721 
	C339.439941,33.747234 351.421143,43.357037 362.655273,53.770973 
	C375.744598,65.904640 388.112335,78.731049 396.401703,94.880249 
	C408.554901,118.556900 399.027954,137.275452 373.992767,144.476303 
	C361.712280,148.008530 348.448517,148.464539 335.563690,149.442627 
	C325.632660,150.196487 315.598602,149.592926 304.806702,149.592926 
	C304.806702,219.628525 304.806702,289.377136 304.283081,359.594788 
	C281.290985,360.060883 258.822510,360.057953 236.354004,360.054993 
M172.403183,219.681061 
	C166.764008,222.701263 160.235428,224.748077 155.658173,228.930481 
	C143.595413,239.952560 141.593491,255.089355 142.267761,270.318024 
	C143.515320,298.494293 157.999680,311.955444 186.177338,312.133545 
	C201.342239,312.229401 216.508255,312.160522 231.673721,312.139099 
	C233.097900,312.137085 234.521820,311.940918 235.833023,311.843292 
	C235.833023,280.433899 235.833023,249.515503 235.833023,218.155563 
	C226.054672,218.155563 216.586838,217.991135 207.127151,218.198029 
	C195.819397,218.445389 184.518600,219.010315 172.403183,219.681061 
z"/>
<path fill="#020202" opacity="1.000000" stroke="none" 
	d="
M304.426025,746.088379 
	C304.426025,756.893555 304.426025,767.698792 304.426025,779.034302 
	C313.536377,780.058044 322.241241,780.944458 330.921326,782.028992 
	C356.477997,785.222168 381.400238,790.900085 404.771484,802.057800 
	C424.461243,811.457947 441.188751,824.418945 450.819092,844.590210 
	C463.883179,871.953552 463.316467,909.561462 438.046417,935.093018 
	C418.908020,954.429443 395.064148,964.309998 369.446716,970.778687 
	C342.471222,977.590149 314.928345,979.742554 287.191986,978.847595 
	C281.709381,978.670715 276.082733,976.839417 270.910980,974.790466 
	C265.219055,972.535461 264.919708,967.136780 270.501312,964.573547 
	C276.301880,961.909729 282.704590,960.229675 289.018616,959.071106 
	C310.318359,955.162598 331.595306,951.230408 351.414124,942.036255 
	C366.378143,935.094360 379.973297,926.237549 389.677948,912.454956 
	C401.148254,896.165039 401.225739,878.543762 395.150818,860.476746 
	C390.161865,845.639526 379.916168,835.015625 366.911713,826.689575 
	C348.048279,814.612427 326.874146,809.341736 304.835938,804.789124 
	C304.835938,807.053650 304.835938,808.857361 304.835938,810.661072 
	C304.835938,837.157837 304.884064,863.654846 304.787567,890.151245 
	C304.771881,894.462219 304.563873,898.865723 303.673920,903.062988 
	C300.821808,916.514160 291.596161,924.548584 277.677216,924.910034 
	C256.862823,925.450378 236.020279,925.829712 215.210815,925.354126 
	C197.427170,924.947632 179.570099,924.074646 161.933350,921.890869 
	C141.795761,919.397461 123.250771,912.100098 108.114571,897.873718 
	C94.068871,884.672119 88.649452,868.058838 89.473068,849.171875 
	C90.552986,824.407654 105.577713,809.564880 126.061165,799.062683 
	C148.196930,787.713440 172.305496,783.501526 196.738037,781.116272 
	C209.626251,779.857910 222.609909,779.577332 236.082291,778.825623 
	C236.082291,768.177856 236.082291,757.567810 236.629669,746.510437 
	C259.593353,746.071533 282.009705,746.079956 304.426025,746.088379 
M185.935745,805.241821 
	C180.757080,806.437805 175.428925,807.197937 170.428421,808.913269 
	C156.704834,813.620911 146.402435,822.134155 143.719757,837.094238 
	C142.412277,844.385376 142.075485,852.016052 142.509628,859.422119 
	C143.673096,879.269287 154.677155,891.636169 173.544113,896.808838 
	C180.703842,898.771790 188.213242,900.079895 195.617981,900.393250 
	C209.000015,900.959534 222.423187,900.553467 235.676605,900.553467 
	C235.676605,868.365723 235.676605,835.855164 235.676605,802.718384 
	C219.043594,803.530640 202.927246,804.317627 185.935745,805.241821 
z"/>
<path fill="#C57035" opacity="1.000000" stroke="none" 
	d="
M304.537292,745.630859 
	C282.009705,746.079956 259.593353,746.071533 236.728638,746.054138 
	C236.204071,739.886353 236.064514,733.727600 236.061890,727.568787 
	C236.043304,684.080200 236.052872,640.591675 236.053467,597.103088 
	C236.053482,595.319031 236.053467,593.534973 236.053467,590.747925 
	C204.395645,596.737305 173.867722,603.861084 142.643311,614.086182 
	C144.884720,615.597351 145.839035,616.341553 146.881729,616.928833 
	C166.397736,627.919861 180.575867,643.715881 184.849915,665.837952 
	C190.741592,696.332703 178.502762,718.649109 148.719559,728.774292 
	C121.731361,737.949158 94.061920,737.872437 66.565834,730.991089 
	C47.658707,726.259338 31.091707,717.179993 23.333431,698.119751 
	C12.507945,671.524109 19.236507,646.296875 40.951885,627.389404 
	C58.767593,611.877380 80.020721,603.115112 102.162628,595.910400 
	C136.546158,584.722412 171.898636,577.556396 207.143860,569.896240 
	C216.720184,567.814941 226.217117,565.368286 236.191681,562.983887 
	C236.191681,557.475525 236.191681,552.174744 236.715820,546.406067 
	C259.708832,545.940918 282.177704,545.943665 304.646606,545.946411 
	C304.668396,562.750000 304.711334,579.553528 304.707947,596.357117 
	C304.697937,645.962524 304.669678,695.567993 304.537292,745.630859 
M121.939880,631.479004 
	C115.638840,628.145569 109.646301,625.962219 102.403419,630.103516 
	C86.774651,639.039612 72.467728,649.091431 66.859268,667.301697 
	C62.567833,681.235596 67.298729,701.740173 84.155510,708.577881 
	C104.960938,717.017273 124.770493,713.550293 143.012909,701.558594 
	C157.739807,691.877930 161.168777,678.654114 154.135437,662.504211 
	C147.841492,648.052124 136.105148,638.982727 121.939880,631.479004 
z"/>
<path fill="#020202" opacity="1.000000" stroke="none" 
	d="
M304.733246,545.484619 
	C282.177704,545.943665 259.708832,545.940918 236.796204,545.941406 
	C236.289062,523.784363 236.201324,501.624146 236.169220,479.463837 
	C236.137589,457.631561 236.162323,435.799225 236.162323,413.966919 
	C236.162323,412.355682 236.162323,410.744446 236.162323,407.996643 
	C229.066940,413.605682 222.742432,418.555511 216.470901,423.571564 
	C186.745224,447.346527 157.034943,471.140747 127.316925,494.925232 
	C122.012238,499.170776 116.276123,502.983490 111.509972,507.764404 
	C107.132492,512.155457 102.135262,512.876892 96.892662,511.803833 
	C71.106247,506.525970 45.385872,500.925476 19.743687,495.460541 
	C17.924618,487.522980 18.009346,487.160156 24.812555,483.884521 
	C54.304001,469.684906 83.821503,455.539398 113.325714,441.366302 
	C113.610962,441.229218 113.844376,440.984222 114.333870,440.614471 
	C99.869789,423.932953 85.424408,407.273010 70.565025,390.135620 
	C72.446533,388.022797 74.168259,385.546234 76.442802,383.782684 
	C77.458855,382.994904 79.756462,383.176178 81.182823,383.702545 
	C108.789001,393.889709 136.337463,404.233459 163.959076,414.378143 
	C165.709137,415.020874 168.252777,414.918854 169.932755,414.121490 
	C191.003326,404.120605 211.965866,393.892365 233.007843,383.830627 
	C235.468124,382.654175 236.337967,381.204590 236.232788,378.476593 
	C236.008240,372.652313 236.174149,366.813019 236.267044,360.517426 
	C258.822510,360.057953 281.290985,360.060883 304.203247,360.060364 
	C304.710571,377.213989 304.820587,394.371063 304.828674,411.528168 
	C304.849670,456.026367 304.825806,500.524567 304.733246,545.484619 
z"/>
<path fill="#ABABAB" opacity="1.000000" stroke="none" 
	d="
M481.406586,646.125488 
	C470.070404,648.123596 470.070404,648.123596 472.959839,661.041321 
	C470.478668,660.342957 467.751801,660.410706 466.966278,659.209229 
	C463.614471,654.082642 460.477753,648.743225 457.955994,643.167786 
	C455.715210,638.213562 457.578979,634.805786 462.801758,633.263733 
	C466.563141,632.153137 470.476776,631.557983 474.553009,630.683472 
	C470.699768,626.488220 466.583344,622.808472 463.433929,618.432739 
	C452.328522,603.003235 455.592010,586.473877 471.618835,575.189453 
	C495.735046,558.209290 531.869141,565.236694 547.700745,590.251831 
	C555.183472,602.075073 556.861389,614.670288 550.661865,627.736633 
	C550.325867,628.444763 550.161987,629.234558 549.957581,629.864441 
	C550.409363,630.285767 550.638184,630.685669 550.866272,630.685242 
	C564.171814,630.662598 577.499329,631.048828 590.774597,630.388733 
	C598.751404,629.992065 599.349426,628.534607 600.882690,620.809387 
	C601.165039,619.386719 602.489258,618.170837 603.332520,616.859436 
	C604.263489,618.093689 605.645630,619.197571 606.046631,620.584961 
	C607.704651,626.322510 608.896057,632.195740 610.579834,637.924805 
	C612.570312,644.697571 611.762695,646.013123 604.794373,646.015869 
	C581.973572,646.024963 559.152832,646.009399 536.332031,646.021912 
	C518.175781,646.031860 500.019501,646.068970 481.406586,646.125488 
M498.523376,630.959290 
	C508.166901,630.958862 517.813232,631.081177 527.451843,630.862793 
	C529.592041,630.814392 532.152832,630.107117 533.760071,628.781738 
	C546.883057,617.960815 545.592590,597.118164 531.431641,587.644043 
	C525.126282,583.425598 518.046875,582.207031 510.676880,581.639343 
	C498.005615,580.663330 486.624725,583.697510 477.272644,592.489075 
	C473.125061,596.388123 469.847534,601.208801 470.673340,607.375732 
	C471.927612,616.742371 478.033600,623.464417 484.856598,628.909363 
	C487.771759,631.235779 493.232086,630.372864 498.523376,630.959290 
z"/>
<path fill="#ACACAC" opacity="1.000000" stroke="none" 
	d="
M467.429626,724.409546 
	C478.360962,715.014526 491.085480,712.497864 504.548981,713.547302 
	C517.891724,714.587341 529.665771,719.614197 539.642517,731.558838 
	C541.990845,725.268738 544.106934,720.363098 545.611145,715.276550 
	C546.468811,712.376343 547.609192,711.286072 551.109863,712.647156 
	C551.109863,723.173218 551.164978,733.948364 550.994446,744.719971 
	C550.982178,745.496216 549.344055,746.863708 548.427856,746.892944 
	C545.692444,746.980225 541.653442,747.617188 540.403992,746.127136 
	C532.519470,736.724609 522.796570,731.033386 510.703888,729.409973 
	C496.028259,727.439941 483.102844,730.902588 473.645660,742.893555 
	C463.277618,756.039368 468.746796,772.993469 488.106049,777.631592 
	C504.961060,781.669739 520.770264,777.664062 534.785950,767.347229 
	C536.621338,765.996155 537.768494,763.714722 539.595703,762.346680 
	C541.146545,761.185486 543.194702,760.145569 545.066162,760.065552 
	C549.288818,759.885254 551.579407,761.564026 551.286621,766.602844 
	C550.804260,774.905151 551.255249,783.258179 551.057739,791.583801 
	C551.024353,792.992188 549.710938,794.370178 548.988953,795.762207 
	C547.856689,794.592407 546.287170,793.613159 545.678345,792.215332 
	C544.158569,788.725769 543.145508,785.019592 541.797241,781.450073 
	C540.393433,777.733582 538.698669,776.983887 535.392639,780.155029 
	C516.971252,797.824707 487.327515,797.056458 468.563965,779.182861 
	C453.947906,765.259949 452.772247,738.642700 467.429626,724.409546 
z"/>
<path fill="#ACACAC" opacity="1.000000" stroke="none" 
	d="
M488.714172,292.395721 
	C472.022522,286.056183 460.366333,275.568970 457.434204,257.574493 
	C454.671082,240.617432 462.894775,223.537659 479.654907,219.751770 
	C483.149567,218.962372 486.969391,218.796051 490.516266,219.267914 
	C494.618958,219.813736 497.928192,221.972885 498.872833,226.662247 
	C499.527222,229.910706 500.800568,233.032806 501.492737,236.276367 
	C501.716888,237.326782 501.322662,239.198761 500.597076,239.609222 
	C499.342529,240.318970 497.263641,240.864029 496.128113,240.291992 
	C484.835785,234.603149 478.122437,235.623032 472.117188,244.262680 
	C465.846313,253.284515 466.951538,264.201233 474.972748,271.330902 
	C487.021606,282.040527 515.914307,283.786469 529.607971,272.026245 
	C541.354065,261.938629 543.693481,248.132660 535.859924,234.296967 
	C534.221985,231.403992 532.032654,228.788651 530.687012,225.781540 
	C530.140320,224.559692 530.792908,222.379700 531.635742,221.133484 
	C532.064148,220.500153 534.694580,220.383575 535.362488,221.031006 
	C545.173462,230.542084 553.580688,240.654755 554.280457,255.464218 
	C555.103333,272.882385 543.915710,286.339233 528.626160,291.944122 
	C515.538635,296.741821 502.334930,297.200653 488.714172,292.395721 
z"/>
<path fill="#ABABAB" opacity="1.000000" stroke="none" 
	d="
M531.426880,409.857483 
	C538.099182,409.376923 541.584595,406.427765 541.711365,399.800568 
	C541.735840,398.518646 543.485474,397.269745 544.439270,396.005615 
	C545.448242,397.274170 546.868774,398.393005 547.394226,399.837433 
	C549.546143,405.752991 551.399231,411.776611 553.415100,417.742615 
	C554.458862,420.831604 552.366638,423.596710 548.520020,423.938629 
	C545.710815,424.188324 542.885681,424.252563 540.071045,424.447906 
	C537.424072,424.631622 534.781494,424.878784 531.333435,425.164673 
	C535.673401,428.091980 539.656067,430.505310 543.337463,433.313690 
	C553.530396,441.089478 556.783020,452.583832 552.334229,463.320190 
	C550.778809,467.074005 548.387634,468.480713 544.558350,467.584442 
	C539.554932,466.413269 534.501343,465.380280 529.615967,463.826630 
	C528.134338,463.355438 527.138367,461.357300 525.919983,460.058594 
	C527.127869,459.002960 528.212708,457.735352 529.574585,456.945282 
	C531.281372,455.955078 533.304871,455.517944 535.034851,454.559204 
	C540.238281,451.675354 541.807251,446.927246 537.912720,442.619202 
	C534.002808,438.294189 529.168884,434.541870 524.135620,431.557892 
	C516.968628,427.308990 509.202118,424.593445 500.474457,425.039398 
	C491.674591,425.489075 482.830078,425.287537 474.012756,425.066986 
	C470.380249,424.976135 468.349365,426.337280 467.473175,429.729218 
	C466.726318,432.620361 465.647797,435.470490 465.300171,438.407928 
	C464.926727,441.563507 463.634369,442.521179 460.357056,441.435608 
	C460.357056,426.662598 460.357056,411.765442 460.357056,396.654022 
	C463.208832,395.209198 464.658844,396.106628 465.607635,399.238434 
	C468.861481,409.978882 468.942688,409.959930 480.047852,409.952942 
	C497.027435,409.942291 514.007019,409.922882 531.426880,409.857483 
z"/>
<path fill="#FFFEFE" opacity="1.000000" stroke="none" 
	d="
M172.808990,219.559387 
	C184.518600,219.010315 195.819397,218.445389 207.127151,218.198029 
	C216.586838,217.991135 226.054672,218.155563 235.833023,218.155563 
	C235.833023,249.515503 235.833023,280.433899 235.833023,311.843292 
	C234.521820,311.940918 233.097900,312.137085 231.673721,312.139099 
	C216.508255,312.160522 201.342239,312.229401 186.177338,312.133545 
	C157.999680,311.955444 143.515320,298.494293 142.267761,270.318024 
	C141.593491,255.089355 143.595413,239.952560 155.658173,228.930481 
	C160.235428,224.748077 166.764008,222.701263 172.808990,219.559387 
z"/>
<path fill="#FEFEFE" opacity="1.000000" stroke="none" 
	d="
M186.373322,805.173218 
	C202.927246,804.317627 219.043594,803.530640 235.676605,802.718384 
	C235.676605,835.855164 235.676605,868.365723 235.676605,900.553467 
	C222.423187,900.553467 209.000015,900.959534 195.617981,900.393250 
	C188.213242,900.079895 180.703842,898.771790 173.544113,896.808838 
	C154.677155,891.636169 143.673096,879.269287 142.509628,859.422119 
	C142.075485,852.016052 142.412277,844.385376 143.719757,837.094238 
	C146.402435,822.134155 156.704834,813.620911 170.428421,808.913269 
	C175.428925,807.197937 180.757080,806.437805 186.373322,805.173218 
z"/>
<path fill="#FFFEFE" opacity="1.000000" stroke="none" 
	d="
M122.271843,631.654419 
	C136.105148,638.982727 147.841492,648.052124 154.135437,662.504211 
	C161.168777,678.654114 157.739807,691.877930 143.012909,701.558594 
	C124.770493,713.550293 104.960938,717.017273 84.155510,708.577881 
	C67.298729,701.740173 62.567833,681.235596 66.859268,667.301697 
	C72.467728,649.091431 86.774651,639.039612 102.403419,630.103516 
	C109.646301,625.962219 115.638840,628.145569 122.271843,631.654419 
z"/>
<path fill="#FEFEFE" opacity="1.000000" stroke="none" 
	d="
M498.029633,630.959229 
	C493.232086,630.372864 487.771759,631.235779 484.856598,628.909363 
	C478.033600,623.464417 471.927612,616.742371 470.673340,607.375732 
	C469.847534,601.208801 473.125061,596.388123 477.272644,592.489075 
	C486.624725,583.697510 498.005615,580.663330 510.676880,581.639343 
	C518.046875,582.207031 525.126282,583.425598 531.431641,587.644043 
	C545.592590,597.118164 546.883057,617.960815 533.760071,628.781738 
	C532.152832,630.107117 529.592041,630.814392 527.451843,630.862793 
	C517.813232,631.081177 508.166901,630.958862 498.029633,630.959229 
z"/>
</svg>