<svg enable-background="new 0 0 752 792" viewBox="0 0 752 792" xmlns="http://www.w3.org/2000/svg"><path d="m409 793c-136.333344 0-272.166672 0-408 0 0-264 0-528 0-792h752v792c-114.5 0-229 0-344 0m-40.768372-420.170258v27.424591c-41.507751 4.784852-82.009155 12.328064-120.449234 28.172547 2.212769 13.138763 2.111313 13.833496 14.186234 15.596863 27.765716 4.054809 55.633697 7.416534 83.474823 10.943817 7.51239.951752 15.07724 1.489258 22.487213 2.204284v63.254914c-65.808716 13.973999-118.590927 46.689514-156.471527 104.358887 7.194626.815185 12.753006 1.540405 18.330429 2.062072 53.225449 4.978699 105.20665 15.914734 156.072006 32.317627 43.202942 13.932007 85.401184 30.361878 124.629669 53.3573 30.872773 18.097412 60.964631 37.528931 91.335907 56.476013 2.491578 1.554383 4.322144 2.024231 7.152222.585022 38.001038-19.325561 76.11554-38.428283 114.095032-57.795837 5.288818-2.697144 10.102661-6.380554 14.95459-9.860779 3.266723-2.343201 4.311584-5.610535 3.176086-9.699158-1.130493-4.070678-3.809082-6.448852-7.665954-6.86676-5.236573-.567383-10.648316-1.098755-15.815003-.396118-10.371277 1.4104-20.751099 3.166504-30.906494 5.674438-24.515503 6.054322-48.610779 4.518555-72.243835-3.618835-31.780335-10.942871-63.738099-21.509033-94.968506-33.880737-57.517487-22.785035-115.495301-43.726075-176.847412-53.697388-21.137055-3.435242-42.271088-7.259705-64.085999-5.284973 22.046234-17.962891 47.636871-29.02417 74.080872-38.911621 27.326446-10.217347 55.637329-7.884644 84.169525-8.287964 0-12.454102.007141-24.256714-.001404-36.059387-.019653-27.159852-.074066-54.319733-.061768-81.479584.008667-19.142273.103608-38.284455.366822-58.342133 0-46.914184 0-93.828369 0-141.074722 3.728454 0 7.369293.127426 10.998687-.022232 15.135315-.624054 30.363434-.490189 45.377655-2.207184 22.032196-2.519592 42.865143-8.829529 60.893769-22.817764 25.559387-19.831269 28.797668-52.737015 7.148864-76.719025-10.757263-11.916595-23.576293-21.23307-37.835876-28.191406-18.360229-8.959389-37.0625-17.29036-55.976135-25.013596-10.010437-4.087692-17.383423-10.089004-21.933289-19.789295-2.612396-5.569546-5.343475-11.087002-8.159729-16.556549-5.529632-10.739481-13.792969-18.343584-26.252228-18.810308-10.227966-.383137-20.572906.39245-30.752655 1.605527-4.365051.520171-8.442901 3.45069-13.378418 5.603184 2.612214 7.257187 4.817994 13.839039 7.342621 20.296231 4.13736 10.58216 2.506439 20.107265-4.393432 29.043689-6.395539 8.283196-15.027283 13.109452-24.719269 16.004067-24.921112 7.442939-47.542938 2.981125-62.335053-20.627556-2.384308-3.805405-4.811523-7.605965-7.514923-11.185154-7.37088-9.758667-15.989715-8.936688-20.80838 2.125973-7.633407 17.524765-8.845367 35.834579-4.799698 54.311309 3.417511 15.607895 14.50203 23.863526 30.589737 24.069932 10.700684.137283 20.784058-2.299546 30.228211-7.355805 7.628936-4.084427 15.057312-8.623634 22.945068-12.127258 14.700226-6.529663 29.208069-14.231621 44.629486-18.234894 26.915558-6.987061 54.244446-3.952957 81.101349 2.305206 17.724365 4.130104 34.239105 10.703888 46.977844 24.622147 14.136139 15.445053 12.080841 37.907944-4.683197 50.291641-8.695556 6.423462-18.590332 9.630234-28.999542 11.367218-24.638641 4.11145-49.207337 2.447724-73.468689-2.584747-19.447235-4.033875-38.769928-6.388535-58.343048-1.726196-28.127564 6.700027-56.234009 13.492507-84.298615 20.45079-9.424301 2.33667-9.35321 2.623382-8.429977 14.206161 39.489761 8.514328 79.41246 17.12201 119.554703 25.777008v41.370347c-41.432862 4.400451-81.786713 12.61502-120.65358 28.288757.446381 1.629639.96875 2.861206 1.102127 4.133575.846634 8.076599 5.776367 11.193085 13.38504 12.138001 25.421479 3.157287 50.790528 6.734985 76.206848 9.935974 10.003754 1.259918 20.079194 1.950836 30.479615 2.934692 0 8.707672 0 16.849213-.220185 25.915161m-192.016433 47.425599c-15.720398-10.906678-33.105896-16.478699-52.28067-16.429627-4.873337.012451-8.657471 1.476441-10.982674 6.162933-3.663872 7.384583-2.609871 11.980896 3.717377 17.486023 9.109336 7.925782 18.072853 16.025605 26.916206 24.247345 3.390488 3.152131 6.098068 7.03241 9.439667 10.245118 4.80606 4.620697 10.23648 5.682128 15.908416 2.11444 5.237946-3.294769 10.330109-7.278106 14.365509-11.930511 7.839112-9.037659 7.475663-16.730774-.250015-25.795502-1.809601-2.123291-4.165146-3.781219-6.833816-6.100219z" fill="#fff"/><path d="m437.019104 371.992279c-.056396 19.142242-.151337 38.284424-.160004 57.426697-.012298 27.159851.042115 54.319732.061768 81.479584.008545 11.802673.001404 23.605285.001404 36.059387-28.532196.40332-56.843079-1.929383-84.169525 8.287964-26.444001 9.887451-52.034638 20.94873-74.080872 38.911621 21.814911-1.974732 42.948944 1.849731 64.085999 5.284973 61.352111 9.971313 119.329925 30.912353 176.847412 53.697388 31.230407 12.371704 63.188171 22.937866 94.968506 33.880737 23.633056 8.13739 47.728332 9.673157 72.243835 3.618835 10.155395-2.507934 20.535217-4.264038 30.906494-5.674438 5.166687-.702637 10.57843-.171265 15.815003.396118 3.856872.417908 6.535461 2.796082 7.665954 6.86676 1.135498 4.088623.090637 7.355957-3.176086 9.699158-4.851929 3.480225-9.665772 7.163635-14.95459 9.860779-37.979492 19.367554-76.093994 38.470276-114.095032 57.795837-2.830078 1.439209-4.660644.969361-7.152222-.585022-30.371276-18.947082-60.463134-38.378601-91.335907-56.476013-39.228485-22.995422-81.426727-39.425293-124.629669-53.3573-50.865356-16.402893-102.846557-27.338928-156.072006-32.317627-5.577423-.521667-11.135803-1.246887-18.330429-2.062072 37.8806-57.669373 90.662811-90.384888 156.471527-104.358887 0-20.643738 0-41.619202 0-63.254914-7.409973-.715026-14.974823-1.252532-22.487213-2.204284-27.841126-3.527283-55.709107-6.889008-83.474823-10.943817-12.074921-1.763367-11.973465-2.4581-14.186234-15.596863 38.440079-15.844483 78.941483-23.387695 120.449234-28.172547 0-9.474884 0-18.449737.547242-27.876281 23.111541-.429688 45.675903-.407746 68.240234-.385773z" fill="#c47034"/><path d="m437.122498 371.534546c-22.667725.43576-45.232087.413818-68.233551.381348-.437134-8.1521-.437134-16.293641-.437134-25.001313-10.400421-.983856-20.475861-1.674774-30.479615-2.934692-25.41632-3.200989-50.785369-6.778687-76.206848-9.935974-7.608673-.944916-12.538406-4.061402-13.38504-12.138001-.133377-1.272369-.655746-2.503936-1.102127-4.133575 38.866867-15.673737 79.220718-23.888306 120.65358-28.288757 0-14.231171 0-28.165284 0-41.370347-40.142243-8.654998-80.064942-17.26268-119.554703-25.777008-.923233-11.582779-.994324-11.869491 8.429977-14.206161 28.064606-6.958283 56.171051-13.750763 84.298615-20.45079 19.57312-4.662339 38.895813-2.307679 58.343048 1.726196 24.261352 5.032471 48.830048 6.696197 73.468689 2.584747 10.40921-1.736984 20.303986-4.943756 28.999542-11.367218 16.764038-12.383697 18.819336-34.846588 4.683197-50.291641-12.738739-13.918259-29.253479-20.492043-46.977844-24.622147-26.856903-6.258163-54.185791-9.292267-81.101349-2.305206-15.421417 4.003273-29.92926 11.705231-44.629486 18.234894-7.887756 3.503624-15.316132 8.042831-22.945068 12.127258-9.444153 5.056259-19.527527 7.493088-30.228211 7.355805-16.087707-.206406-27.172226-8.462037-30.589737-24.069932-4.045669-18.47673-2.833709-36.786544 4.799698-54.311309 4.818665-11.062661 13.4375-11.88464 20.80838-2.125973 2.7034 3.579189 5.130615 7.379749 7.514923 11.185154 14.792115 23.608681 37.413941 28.070495 62.335053 20.627556 9.691986-2.894615 18.32373-7.720871 24.719269-16.004067 6.899871-8.936424 8.530792-18.461529 4.393432-29.043689-2.524627-6.457192-4.730407-13.039044-7.342621-20.296231 4.935517-2.152494 9.013367-5.083013 13.378418-5.603184 10.179749-1.213077 20.524689-1.988664 30.752655-1.605527 12.459259.466724 20.722596 8.070827 26.252228 18.810308 2.816254 5.469547 5.547333 10.987003 8.159729 16.556549 4.549866 9.700291 11.922852 15.701603 21.933289 19.789295 18.913635 7.723236 37.615906 16.054207 55.976135 25.013596 14.259583 6.958336 27.078613 16.274811 37.835876 28.191406 21.648804 23.98201 18.410523 56.887756-7.148864 76.719025-18.028626 13.988235-38.861573 20.298172-60.893769 22.817764-15.014221 1.716995-30.24234 1.58313-45.377655 2.207184-3.629394.149658-7.270233.022232-10.998687.022232 0 47.246353 0 94.160538-.103424 141.532425z" fill="#010101"/><path d="m176.497345 420.478821c2.38652 2.09552 4.742065 3.753448 6.551666 5.876739 7.725678 9.064728 8.089127 16.757843.250015 25.795502-4.0354 4.652405-9.127563 8.635742-14.365509 11.930511-5.671936 3.567688-11.102356 2.506257-15.908416-2.11444-3.341599-3.212708-6.049179-7.092987-9.439667-10.245118-8.843353-8.22174-17.80687-16.321563-26.916206-24.247345-6.327248-5.505127-7.381249-10.10144-3.717377-17.486023 2.325203-4.686492 6.109337-6.150482 10.982674-6.162933 19.174774-.049072 36.560272 5.522949 52.56282 16.653107z" fill="#c46f34"/></svg>