<svg version="1.1" id="Layer_1" xmlns="http://www.w3.org/2000/svg" xmlns:xlink="http://www.w3.org/1999/xlink" x="0px" y="0px"
	 width="100%" viewBox="0 0 630 814" enable-background="new 0 0 630 814" xml:space="preserve">
<path fill="#FFFFFF" opacity="1.000000" stroke="none" 
	d="
M316.000000,815.000000 
	C210.666672,815.000000 105.833336,815.000000 1.000000,815.000000 
	C1.000000,543.666687 1.000000,272.333344 1.000000,1.000000 
	C211.000000,1.000000 421.000000,1.000000 631.000000,1.000000 
	C631.000000,272.333344 631.000000,543.666687 631.000000,815.000000 
	C526.166687,815.000000 421.333344,815.000000 316.000000,815.000000 
M236.300919,287.004364 
	C236.300919,295.628693 236.300919,304.252991 236.300919,313.115509 
	C226.362473,315.471069 216.818024,317.670837 207.305038,319.999176 
	C173.110275,328.368439 138.778732,336.232635 104.788849,345.366699 
	C81.405342,351.650513 59.388435,361.442596 40.771980,377.617279 
	C18.952269,396.575073 12.206579,424.412964 23.908482,449.754150 
	C31.062092,465.245789 44.236660,474.163330 59.974113,479.087311 
	C89.849518,488.434875 119.981209,488.393188 149.682388,478.564758 
	C163.906921,473.857758 176.094101,465.460083 181.837463,450.697510 
	C191.205109,426.619171 185.879929,404.724976 169.507675,385.753601 
	C162.416122,377.536194 153.055389,371.277161 144.191818,363.670685 
	C173.714767,354.027252 204.341324,346.845093 236.061676,340.869934 
	C236.061676,343.327057 236.061691,344.937683 236.061676,346.548309 
	C236.061371,394.358002 236.054245,442.167664 236.070221,489.977356 
	C236.072006,495.301208 236.205093,500.625031 236.101089,506.877258 
	C236.101089,517.818115 236.101089,528.758972 236.101089,539.572327 
	C165.380463,549.563049 96.992630,606.443909 81.083717,643.493896 
	C82.612175,643.682861 84.034554,643.897766 85.464569,644.029907 
	C130.113861,648.153625 174.253769,655.107666 217.573364,666.984558 
	C278.212219,683.609863 336.722260,705.448303 390.759827,738.011536 
	C417.568542,754.166565 443.789276,771.296387 470.360443,787.849670 
	C471.843842,788.773743 474.524017,789.303772 475.934021,788.596191 
	C514.785400,769.098267 553.587708,749.500793 592.266968,729.664246 
	C597.529907,726.965149 602.187683,723.032410 606.959229,719.449341 
	C609.809509,717.309021 610.150696,714.233337 609.216431,710.868042 
	C607.785889,705.715210 604.129883,702.555237 596.236389,703.205444 
	C583.368042,704.265503 570.377014,705.701111 557.854858,708.712769 
	C530.912842,715.192505 504.656769,713.501587 478.753601,704.462402 
	C449.683044,694.317932 420.672180,683.995239 391.743622,673.453064 
	C360.311584,661.998535 329.326019,649.218994 297.556000,638.818909 
	C262.587097,627.371704 226.592773,619.479004 190.015472,614.907898 
	C175.941788,613.149048 161.703735,612.705383 147.255646,611.641479 
	C169.468262,594.667236 194.844131,583.326965 221.322220,573.557617 
	C248.551941,563.510925 276.697815,566.187317 304.429871,565.496765 
	C304.429871,545.195557 304.429871,525.554199 304.644562,504.999237 
	C304.653442,451.767120 304.662231,398.535004 304.671661,345.302887 
	C304.671906,343.972137 304.675568,342.641357 304.683563,341.310638 
	C304.794342,322.875763 304.906158,304.440857 305.223694,285.085815 
	C305.223694,237.873260 305.223694,190.660706 305.223694,143.155426 
	C316.650574,143.155426 327.666199,143.723312 338.596436,142.999985 
	C350.146210,142.235657 361.746552,140.887680 373.076202,138.576187 
	C381.907715,136.774399 390.029846,132.380188 395.783234,125.021713 
	C404.340118,114.077660 402.862579,102.219109 397.494873,90.639236 
	C391.492950,77.691063 382.530273,66.699524 372.186737,57.012871 
	C358.108734,43.828934 343.574188,31.133095 329.264130,18.196211 
	C323.311493,12.814804 322.455322,12.704776 315.805176,17.148468 
	C314.707367,17.882023 313.554199,18.561304 312.565277,19.424501 
	C306.765594,24.486834 306.851044,25.036053 311.830017,30.919872 
	C321.618042,42.486736 331.046783,54.543648 335.637329,69.102188 
	C342.453491,90.719223 336.872742,98.291817 315.332214,99.867973 
	C299.751373,101.008034 284.034210,101.228691 268.415100,100.718246 
	C226.812927,99.358635 186.619522,107.242073 146.896912,118.326111 
	C136.422745,121.248779 126.304993,125.448730 115.859711,129.119751 
	C116.941185,132.973648 118.010292,135.795334 118.483238,138.713638 
	C119.104317,142.545975 121.203125,143.694550 124.882339,144.100876 
	C132.467010,144.938568 139.960876,146.577423 147.539612,147.493759 
	C171.950470,150.445251 196.379608,153.247330 220.809753,156.036362 
	C225.866928,156.613693 230.958832,156.886856 235.930405,157.291718 
	C235.930405,172.428085 235.930405,187.056625 235.930405,202.127899 
	C194.444122,206.677811 153.930313,214.735947 115.236618,230.530136 
	C115.681404,232.230927 116.122086,233.335373 116.243706,234.473907 
	C117.129448,242.765442 122.264511,245.966309 130.030273,246.925323 
	C156.096481,250.144272 182.118683,253.718353 208.179779,256.980530 
	C217.368805,258.130737 226.621292,258.774017 236.456940,259.706787 
	C236.456940,268.821289 236.456940,277.456360 236.300919,287.004364 
M551.237854,423.083008 
	C551.230469,421.846436 550.815125,420.425537 551.277832,419.401367 
	C556.737427,407.316559 555.348511,395.446808 548.782959,384.581787 
	C533.298828,358.957733 500.669464,350.951202 474.635498,365.816345 
	C454.153381,377.511475 451.067169,398.878723 467.427032,415.914795 
	C469.780579,418.365662 472.273438,420.682739 474.674835,423.035248 
	C469.754730,424.286957 465.358246,425.073334 461.211243,426.557159 
	C457.333252,427.944641 455.820099,431.232483 457.603210,435.037598 
	C460.134674,440.439697 463.197510,445.590942 465.969757,450.882690 
	C467.726227,454.235565 469.970947,454.345001 472.928802,452.027832 
	C472.446106,450.462006 471.983368,448.885529 471.474670,447.324066 
	C469.605652,441.586517 470.658813,439.871918 476.585602,439.139008 
	C477.573029,439.016876 478.582275,439.049713 479.581482,439.048126 
	C519.234680,438.985291 558.887878,438.926636 598.541077,438.867950 
	C601.206909,438.864014 603.880981,438.997131 606.536682,438.832031 
	C610.703308,438.572968 612.207825,436.189941 611.123535,432.129150 
	C609.410583,425.713531 607.887390,419.245361 606.057312,412.864380 
	C605.652710,411.453766 604.302368,410.314453 603.387512,409.050171 
	C602.543762,410.356598 601.168579,411.578094 600.944092,412.983429 
	C599.652710,421.065704 597.864624,422.937866 589.589783,423.053314 
	C577.096191,423.227661 564.598999,423.143768 551.237854,423.083008 
M466.147247,232.430649 
	C456.189392,235.560349 454.809662,238.445618 459.334503,247.598404 
	C461.245972,251.464951 463.769379,255.024048 465.837616,258.819366 
	C467.823853,262.464264 470.086212,262.230408 472.809662,259.938568 
	C469.334564,247.370865 469.651978,246.972458 482.841064,246.970520 
	C499.839264,246.968018 516.838013,247.045502 533.835449,246.933594 
	C545.601013,246.856125 554.036987,239.060089 553.927551,227.345245 
	C553.863525,220.496765 552.796326,213.352890 550.566101,206.899811 
	C547.093079,196.850952 541.028687,188.182648 531.573303,182.598923 
	C530.172607,181.771759 527.717529,181.850708 526.171875,182.505615 
	C525.351746,182.853088 524.951050,185.429077 525.212646,186.841324 
	C525.813782,190.086899 526.729431,193.317627 527.941467,196.386902 
	C528.486206,197.766205 529.834839,199.314178 531.179810,199.814072 
	C541.591980,203.684052 545.682800,210.814102 543.190674,221.256653 
	C541.645325,227.732101 537.926880,230.860306 531.228577,231.101379 
	C527.233521,231.245163 523.225525,231.052750 519.233032,231.230423 
	C516.414124,231.355896 515.337646,230.501328 514.753845,227.467834 
	C513.125549,219.006714 511.514954,210.447876 508.739563,202.323105 
	C504.165802,188.933563 495.362701,179.923676 480.336121,178.639908 
	C468.850220,177.658630 460.127136,183.727371 457.547302,194.915283 
	C455.486053,203.854218 458.810120,211.648178 463.356537,218.986938 
	C465.937408,223.152924 469.032532,227.000320 472.248810,231.482803 
	C470.079712,231.766037 468.491241,231.973450 466.147247,232.430649 
M470.561157,551.766418 
	C460.323273,555.826782 454.394379,565.720764 457.546082,576.145691 
	C459.756317,583.456604 464.036194,590.163696 467.605743,597.029175 
	C468.746582,599.223450 470.572845,601.061401 472.287628,603.329712 
	C468.993713,603.995483 466.531189,604.352905 464.147949,605.001648 
	C457.388855,606.841370 455.464203,610.033569 458.096893,616.372986 
	C460.121216,621.247437 463.155487,625.694519 465.591248,630.408875 
	C467.349701,633.812317 469.514923,634.687134 472.786865,631.981384 
	C472.694061,631.451843 472.650360,630.803284 472.464050,630.198669 
	C469.375366,620.176208 470.267151,618.968567 480.838959,618.963745 
	C498.486420,618.955750 516.134399,619.033020 533.781189,618.925903 
	C545.553162,618.854492 553.445801,611.087463 554.133667,599.414856 
	C554.785156,588.360718 551.964050,578.127258 545.630615,569.283081 
	C541.647644,563.721191 536.273132,559.112061 531.220581,554.399780 
	C530.296265,553.537781 527.595520,553.672852 526.316895,554.402649 
	C525.391724,554.930725 524.948425,557.294861 525.192749,558.681213 
	C525.765015,561.928162 526.628967,565.182861 527.882385,568.225342 
	C528.493225,569.708069 530.030518,571.355530 531.507812,571.846069 
	C540.879333,574.957947 545.446655,582.433655 543.517273,592.070923 
	C541.998169,599.658691 538.200317,602.904785 530.463989,603.108154 
	C526.803528,603.204407 523.131165,603.016296 519.479370,603.223999 
	C516.441467,603.396790 515.332703,602.477478 514.722290,599.216431 
	C513.139099,590.757690 511.430481,582.233826 508.694611,574.098267 
	C503.431427,558.447388 489.947540,547.230408 470.561157,551.766418 
z"/>
<path fill="#C47034" opacity="1.000000" stroke="none" 
	d="
M304.429871,505.912872 
	C304.429871,525.554199 304.429871,545.195557 304.429871,565.496765 
	C276.697815,566.187317 248.551941,563.510925 221.322220,573.557617 
	C194.844131,583.326965 169.468262,594.667236 147.255646,611.641479 
	C161.703735,612.705383 175.941788,613.149048 190.015472,614.907898 
	C226.592773,619.479004 262.587097,627.371704 297.556000,638.818909 
	C329.326019,649.218994 360.311584,661.998535 391.743622,673.453064 
	C420.672180,683.995239 449.683044,694.317932 478.753601,704.462402 
	C504.656769,713.501587 530.912842,715.192505 557.854858,708.712769 
	C570.377014,705.701111 583.368042,704.265503 596.236389,703.205444 
	C604.129883,702.555237 607.785889,705.715210 609.216431,710.868042 
	C610.150696,714.233337 609.809509,717.309021 606.959229,719.449341 
	C602.187683,723.032410 597.529907,726.965149 592.266968,729.664246 
	C553.587708,749.500793 514.785400,769.098267 475.934021,788.596191 
	C474.524017,789.303772 471.843842,788.773743 470.360443,787.849670 
	C443.789276,771.296387 417.568542,754.166565 390.759827,738.011536 
	C336.722260,705.448303 278.212219,683.609863 217.573364,666.984558 
	C174.253769,655.107666 130.113861,648.153625 85.464569,644.029907 
	C84.034554,643.897766 82.612175,643.682861 81.083717,643.493896 
	C96.992630,606.443909 165.380463,549.563049 236.101089,539.572327 
	C236.101089,528.758972 236.101089,517.818115 236.637939,506.405212 
	C259.593140,505.926392 282.011505,505.919647 304.429871,505.912872 
z"/>
<path fill="#010101" opacity="1.000000" stroke="none" 
	d="
M304.537231,505.456055 
	C282.011505,505.919647 259.593140,505.926392 236.726013,505.940979 
	C236.205093,500.625031 236.072006,495.301208 236.070221,489.977356 
	C236.054245,442.167664 236.061371,394.358002 236.061676,346.548309 
	C236.061691,344.937683 236.061676,343.327057 236.061676,340.869934 
	C204.341324,346.845093 173.714767,354.027252 144.191818,363.670685 
	C153.055389,371.277161 162.416122,377.536194 169.507675,385.753601 
	C185.879929,404.724976 191.205109,426.619171 181.837463,450.697510 
	C176.094101,465.460083 163.906921,473.857758 149.682388,478.564758 
	C119.981209,488.393188 89.849518,488.434875 59.974113,479.087311 
	C44.236660,474.163330 31.062092,465.245789 23.908482,449.754150 
	C12.206579,424.412964 18.952269,396.575073 40.771980,377.617279 
	C59.388435,361.442596 81.405342,351.650513 104.788849,345.366699 
	C138.778732,336.232635 173.110275,328.368439 207.305038,319.999176 
	C216.818024,317.670837 226.362473,315.471069 236.300919,313.115509 
	C236.300919,304.252991 236.300919,295.628693 236.815598,286.538269 
	C259.892761,286.050110 282.455231,286.028046 305.017700,286.005981 
	C304.906158,304.440857 304.794342,322.875763 304.683563,341.310638 
	C304.675568,342.641357 304.671906,343.972137 304.671661,345.302887 
	C304.662231,398.535004 304.653442,451.767120 304.537231,505.456055 
M67.314102,439.848419 
	C71.981682,453.176910 81.852875,460.065552 95.367798,462.203125 
	C111.599571,464.770325 126.844589,461.755035 140.898239,453.268707 
	C156.799973,443.666412 161.589111,429.627380 154.145660,412.778259 
	C146.487701,395.443542 131.963257,385.568390 115.017601,378.592041 
	C111.487488,377.138733 108.372627,377.156281 105.156433,379.149628 
	C98.680573,383.163330 91.659988,386.485535 85.769264,391.219360 
	C70.544403,403.453949 61.407207,418.462799 67.314102,439.848419 
z"/>
<path fill="#C46F34" opacity="1.000000" stroke="none" 
	d="
M305.120697,285.545898 
	C282.455231,286.028046 259.892761,286.050110 236.893616,286.081787 
	C236.456940,277.456360 236.456940,268.821289 236.456940,259.706787 
	C226.621292,258.774017 217.368805,258.130737 208.179779,256.980530 
	C182.118683,253.718353 156.096481,250.144272 130.030273,246.925323 
	C122.264511,245.966309 117.129448,242.765442 116.243706,234.473907 
	C116.122086,233.335373 115.681404,232.230927 115.236618,230.530136 
	C153.930313,214.735947 194.444122,206.677811 235.930405,202.127899 
	C235.930405,187.056625 235.930405,172.428085 235.930405,157.291718 
	C230.958832,156.886856 225.866928,156.613693 220.809753,156.036362 
	C196.379608,153.247330 171.950470,150.445251 147.539612,147.493759 
	C139.960876,146.577423 132.467010,144.938568 124.882339,144.100876 
	C121.203125,143.694550 119.104317,142.545975 118.483238,138.713638 
	C118.010292,135.795334 116.941185,132.973648 115.859711,129.119751 
	C126.304993,125.448730 136.422745,121.248779 146.896912,118.326111 
	C186.619522,107.242073 226.812927,99.358635 268.415100,100.718246 
	C284.034210,101.228691 299.751373,101.008034 315.332214,99.867973 
	C336.872742,98.291817 342.453491,90.719223 335.637329,69.102188 
	C331.046783,54.543648 321.618042,42.486736 311.830017,30.919872 
	C306.851044,25.036053 306.765594,24.486834 312.565277,19.424501 
	C313.554199,18.561304 314.707367,17.882023 315.805176,17.148468 
	C322.455322,12.704776 323.311493,12.814804 329.264130,18.196211 
	C343.574188,31.133095 358.108734,43.828934 372.186737,57.012871 
	C382.530273,66.699524 391.492950,77.691063 397.494873,90.639236 
	C402.862579,102.219109 404.340118,114.077660 395.783234,125.021713 
	C390.029846,132.380188 381.907715,136.774399 373.076202,138.576187 
	C361.746552,140.887680 350.146210,142.235657 338.596436,142.999985 
	C327.666199,143.723312 316.650574,143.155426 305.223694,143.155426 
	C305.223694,190.660706 305.223694,237.873260 305.120697,285.545898 
z"/>
<path fill="#ADADAD" opacity="1.000000" stroke="none" 
	d="
M551.670593,423.126343 
	C564.598999,423.143768 577.096191,423.227661 589.589783,423.053314 
	C597.864624,422.937866 599.652710,421.065704 600.944092,412.983429 
	C601.168579,411.578094 602.543762,410.356598 603.387512,409.050171 
	C604.302368,410.314453 605.652710,411.453766 606.057312,412.864380 
	C607.887390,419.245361 609.410583,425.713531 611.123535,432.129150 
	C612.207825,436.189941 610.703308,438.572968 606.536682,438.832031 
	C603.880981,438.997131 601.206909,438.864014 598.541077,438.867950 
	C558.887878,438.926636 519.234680,438.985291 479.581482,439.048126 
	C478.582275,439.049713 477.573029,439.016876 476.585602,439.139008 
	C470.658813,439.871918 469.605652,441.586517 471.474670,447.324066 
	C471.983368,448.885529 472.446106,450.462006 472.928802,452.027832 
	C469.970947,454.345001 467.726227,454.235565 465.969757,450.882690 
	C463.197510,445.590942 460.134674,440.439697 457.603210,435.037598 
	C455.820099,431.232483 457.333252,427.944641 461.211243,426.557159 
	C465.358246,425.073334 469.754730,424.286957 474.674835,423.035248 
	C472.273438,420.682739 469.780579,418.365662 467.427032,415.914795 
	C451.067169,398.878723 454.153381,377.511475 474.635498,365.816345 
	C500.669464,350.951202 533.298828,358.957733 548.782959,384.581787 
	C555.348511,395.446808 556.737427,407.316559 551.277832,419.401367 
	C550.815125,420.425537 551.230469,421.846436 551.670593,423.126343 
M541.058350,411.311188 
	C545.247070,397.834625 541.269226,386.374084 529.958618,379.331696 
	C514.910645,369.962311 489.497314,372.856628 477.058716,385.356476 
	C469.585999,392.865997 468.604401,400.762451 474.427246,409.642609 
	C476.784424,413.237457 479.461639,416.757324 482.598083,419.657074 
	C484.555237,421.466553 487.612762,422.945801 490.228180,423.033600 
	C501.200409,423.401947 512.232361,422.609558 523.164307,423.368042 
	C532.397461,424.008698 537.537842,419.874176 541.058350,411.311188 
z"/>
<path fill="#ACACAC" opacity="1.000000" stroke="none" 
	d="
M466.525024,232.305756 
	C468.491241,231.973450 470.079712,231.766037 472.248810,231.482803 
	C469.032532,227.000320 465.937408,223.152924 463.356537,218.986938 
	C458.810120,211.648178 455.486053,203.854218 457.547302,194.915283 
	C460.127136,183.727371 468.850220,177.658630 480.336121,178.639908 
	C495.362701,179.923676 504.165802,188.933563 508.739563,202.323105 
	C511.514954,210.447876 513.125549,219.006714 514.753845,227.467834 
	C515.337646,230.501328 516.414124,231.355896 519.233032,231.230423 
	C523.225525,231.052750 527.233521,231.245163 531.228577,231.101379 
	C537.926880,230.860306 541.645325,227.732101 543.190674,221.256653 
	C545.682800,210.814102 541.591980,203.684052 531.179810,199.814072 
	C529.834839,199.314178 528.486206,197.766205 527.941467,196.386902 
	C526.729431,193.317627 525.813782,190.086899 525.212646,186.841324 
	C524.951050,185.429077 525.351746,182.853088 526.171875,182.505615 
	C527.717529,181.850708 530.172607,181.771759 531.573303,182.598923 
	C541.028687,188.182648 547.093079,196.850952 550.566101,206.899811 
	C552.796326,213.352890 553.863525,220.496765 553.927551,227.345245 
	C554.036987,239.060089 545.601013,246.856125 533.835449,246.933594 
	C516.838013,247.045502 499.839264,246.968018 482.841064,246.970520 
	C469.651978,246.972458 469.334564,247.370865 472.809662,259.938568 
	C470.086212,262.230408 467.823853,262.464264 465.837616,258.819366 
	C463.769379,255.024048 461.245972,251.464951 459.334503,247.598404 
	C454.809662,238.445618 456.189392,235.560349 466.525024,232.305756 
M503.018951,212.632492 
	C500.174194,203.563721 494.681610,197.302597 484.951233,195.449646 
	C476.123566,193.768585 469.624268,199.992661 470.866333,208.845230 
	C471.970062,216.711929 475.913788,223.152496 480.739075,229.165955 
	C481.416565,230.010300 482.564362,231.003372 483.512054,231.021790 
	C491.231384,231.171768 498.954956,231.106155 507.333893,231.106155 
	C505.830597,224.626175 504.528625,219.013992 503.018951,212.632492 
z"/>
<path fill="#ACACAC" opacity="1.000000" stroke="none" 
	d="
M470.936279,551.626892 
	C489.947540,547.230408 503.431427,558.447388 508.694611,574.098267 
	C511.430481,582.233826 513.139099,590.757690 514.722290,599.216431 
	C515.332703,602.477478 516.441467,603.396790 519.479370,603.223999 
	C523.131165,603.016296 526.803528,603.204407 530.463989,603.108154 
	C538.200317,602.904785 541.998169,599.658691 543.517273,592.070923 
	C545.446655,582.433655 540.879333,574.957947 531.507812,571.846069 
	C530.030518,571.355530 528.493225,569.708069 527.882385,568.225342 
	C526.628967,565.182861 525.765015,561.928162 525.192749,558.681213 
	C524.948425,557.294861 525.391724,554.930725 526.316895,554.402649 
	C527.595520,553.672852 530.296265,553.537781 531.220581,554.399780 
	C536.273132,559.112061 541.647644,563.721191 545.630615,569.283081 
	C551.964050,578.127258 554.785156,588.360718 554.133667,599.414856 
	C553.445801,611.087463 545.553162,618.854492 533.781189,618.925903 
	C516.134399,619.033020 498.486420,618.955750 480.838959,618.963745 
	C470.267151,618.968567 469.375366,620.176208 472.464050,630.198669 
	C472.650360,630.803284 472.694061,631.451843 472.786865,631.981384 
	C469.514923,634.687134 467.349701,633.812317 465.591248,630.408875 
	C463.155487,625.694519 460.121216,621.247437 458.096893,616.372986 
	C455.464203,610.033569 457.388855,606.841370 464.147949,605.001648 
	C466.531189,604.352905 468.993713,603.995483 472.287628,603.329712 
	C470.572845,601.061401 468.746582,599.223450 467.605743,597.029175 
	C464.036194,590.163696 459.756317,583.456604 457.546082,576.145691 
	C454.394379,565.720764 460.323273,555.826782 470.936279,551.626892 
M495.490662,603.182800 
	C499.217224,603.182800 502.943787,603.182800 507.872681,603.182800 
	C505.409576,594.667664 503.734985,587.073486 500.992798,579.886597 
	C498.023987,572.105774 491.513977,568.140503 483.367188,567.189148 
	C476.821838,566.424744 470.412354,571.360962 470.519379,577.487244 
	C470.679596,586.656738 474.507416,594.908081 481.021362,600.911133 
	C483.739838,603.416443 489.585052,602.529480 494.009186,603.180725 
	C494.171631,603.204590 494.340668,603.183472 495.490662,603.182800 
z"/>
<path fill="#FDFDFD" opacity="1.000000" stroke="none" 
	d="
M67.228485,439.448883 
	C61.407207,418.462799 70.544403,403.453949 85.769264,391.219360 
	C91.659988,386.485535 98.680573,383.163330 105.156433,379.149628 
	C108.372627,377.156281 111.487488,377.138733 115.017601,378.592041 
	C131.963257,385.568390 146.487701,395.443542 154.145660,412.778259 
	C161.589111,429.627380 156.799973,443.666412 140.898239,453.268707 
	C126.844589,461.755035 111.599571,464.770325 95.367798,462.203125 
	C81.852875,460.065552 71.981682,453.176910 67.228485,439.448883 
z"/>
<path fill="#FEFEFE" opacity="1.000000" stroke="none" 
	d="
M540.950439,411.686951 
	C537.537842,419.874176 532.397461,424.008698 523.164307,423.368042 
	C512.232361,422.609558 501.200409,423.401947 490.228180,423.033600 
	C487.612762,422.945801 484.555237,421.466553 482.598083,419.657074 
	C479.461639,416.757324 476.784424,413.237457 474.427246,409.642609 
	C468.604401,400.762451 469.585999,392.865997 477.058716,385.356476 
	C489.497314,372.856628 514.910645,369.962311 529.958618,379.331696 
	C541.269226,386.374084 545.247070,397.834625 540.950439,411.686951 
z"/>
<path fill="#FEFEFE" opacity="1.000000" stroke="none" 
	d="
M503.122803,213.017151 
	C504.528625,219.013992 505.830597,224.626175 507.333893,231.106155 
	C498.954956,231.106155 491.231384,231.171768 483.512054,231.021790 
	C482.564362,231.003372 481.416565,230.010300 480.739075,229.165955 
	C475.913788,223.152496 471.970062,216.711929 470.866333,208.845230 
	C469.624268,199.992661 476.123566,193.768585 484.951233,195.449646 
	C494.681610,197.302597 500.174194,203.563721 503.122803,213.017151 
z"/>
<path fill="#FEFEFE" opacity="1.000000" stroke="none" 
	d="
M494.998657,603.183044 
	C494.340668,603.183472 494.171631,603.204590 494.009186,603.180725 
	C489.585052,602.529480 483.739838,603.416443 481.021362,600.911133 
	C474.507416,594.908081 470.679596,586.656738 470.519379,577.487244 
	C470.412354,571.360962 476.821838,566.424744 483.367188,567.189148 
	C491.513977,568.140503 498.023987,572.105774 500.992798,579.886597 
	C503.734985,587.073486 505.409576,594.667664 507.872681,603.182800 
	C502.943787,603.182800 499.217224,603.182800 494.998657,603.183044 
z"/>
</svg>