<svg enable-background="new 0 0 630 996" viewBox="0 0 630 996" xmlns="http://www.w3.org/2000/svg"><path d="m1 403c0-134.312805 0-268.12558 0-401.969188h629.920837v995.813609c-209.920745 0-419.920776 0-629.920837 0 0-197.739135 0-395.541748 0-593.844421m235.191681 140.874939v19.108887c-9.975311 2.384643-19.472 4.831176-29.048065 6.912414-35.245224 7.660279-70.597718 14.826233-104.98127 26.014221-22.141914 7.204712-43.395004 15.967225-61.210697 31.479248-21.715338 18.907471-28.443851 44.135254-17.618073 70.730469 7.758583 19.06012 24.325611 28.139343 43.232777 32.871033 27.496109 6.881287 55.165649 6.958069 82.153725-2.217163 29.783859-10.12561 42.021545-32.44281 36.129653-62.936707-4.274322-22.12207-18.452545-37.917968-37.968612-48.908874-1.042526-.587158-1.996613-1.33136-4.237656-2.842346 31.224655-10.225464 61.75267-17.348694 93.41005-23.338257 0 2.787597.000015 4.571716 0 6.355835-.00058 45.488098-.008469 90.976135.008285 136.464233.001892 5.159058.142304 10.318115.020508 16.389832v28.86792c-13.472122.751648-26.455765 1.032226-39.343933 2.290588-24.43248 2.385376-48.541123 6.596863-70.676857 17.946289-20.483414 10.502258-35.508377 25.344666-36.588394 50.108948-.823708 18.886963 4.595619 35.500244 18.641166 48.701965 15.136055 14.226746 33.681107 21.523804 53.818665 24.017273 17.636749 2.183899 35.49382 3.056946 53.277466 3.463318 20.809463.475586 41.652008.096252 62.4664-.444092 13.919281-.361389 23.144653-8.395386 25.996918-21.846619.890045-4.197265 1.098144-8.600769 1.11383-12.911743.096497-26.496399.04834-52.993347.048371-79.490112.00003-1.803772 0-3.607483 0-5.872498 22.037841 4.553162 43.211975 9.823426 62.075378 21.900513 13.004455 8.32605 23.250397 18.949707 28.23941 33.786865 6.075013 18.066956 5.99762 35.688233-5.472442 51.978333-9.704621 13.782654-23.299744 22.639465-38.263733 29.581421-19.818817 9.194214-41.095825 13.126343-62.3956 17.03479-6.313995 1.15863-12.716705 2.838684-18.517303 5.502441-5.581848 2.563294-5.282837 7.961914.408966 10.216919 5.171753 2.04895 10.798431 3.88031 16.281006 4.057251 27.736359.894837 55.279175-1.257507 82.254669-8.069031 25.617554-6.468505 49.461456-16.348877 68.600006-35.68518 25.270264-25.531555 25.836823-63.139466 12.77298-90.502808-9.630249-20.171387-26.357819-33.132385-46.047516-42.532593-23.371216-11.157837-48.293457-16.835693-73.850128-20.028808-8.680115-1.084595-17.38504-1.970947-26.495667-2.994751 0-10.3349 0-20.140503.222535-30.860962.021148-50.606018.049713-101.212036.059387-151.818054.003387-17.802979-.039521-35.605957.111938-54.332581.005951-43.498291.032379-86.996551.00885-130.494842-.011078-20.490357-.118133-40.980622-.022003-62.402131 0-66.415679 0-132.831359 0-199.532897 10.79306 0 20.827088.603576 30.758118-.150315 12.884796-.978103 26.14862-1.434082 38.428955-4.966583 25.034729-7.20134 34.561218-25.919701 22.407501-49.596573-8.289551-16.149017-20.657287-28.975357-33.746551-41.108986-11.234101-10.41391-23.215271-20.023678-34.409241-30.478187-3.879791-3.623499-6.70932-3.617587-10.838135-1.05666-11.450683 7.102371-11.442993 7.647016-3.066528 18.040012 8.992645 11.157517 17.732666 22.623219 21.852997 36.659409 5.692596 19.392326.930236 27.272369-19.080445 28.874222-17.226989 1.37902-34.616272 1.417785-51.914856 1.080062-43.315429-.845657-85.050186 7.732438-126.168045 20.212456-7.869232 2.388451-15.433525 5.781655-22.108551 8.319695-.938873 12.457535 5.690735 15.183014 15.61258 16.211197 29.614853 3.068924 59.137542 7.022888 88.704528 10.561935 4.888031.585098 9.817765.821777 14.567673 1.206467v34.596939c-2.150467 0-3.958526-.006272-5.766525.000992-18.328964.07373-36.662628-.081238-54.985535.291839-17.292267.352097-34.085632 3.524018-49.892059 10.883789-14.787819 6.885468-25.904022 17.416108-31.714386 32.911545-4.050209 10.801376-4.703308 22.024475-3.554031 33.437012 1.899963 18.867065 10.591987 33.361389 27.272926 42.746551 16.970299 9.547943 35.569954 13.017334 54.689873 13.655884 19.475906.650452 38.979278.480255 58.470657.665039 1.77388.016815 3.54805.002228 6.026428.002228 0 6.218933 0 11.840546-.173904 18.387146-.005936 9.165985-.128067 18.334229.053558 27.496521.053909 2.720428-.763473 4.17688-3.224502 5.353638-21.042038 10.061645-42.004609 20.289886-63.075196 30.290771-1.680145.797486-4.22377.900574-5.973694.257843-27.621658-10.144684-55.170166-20.488495-82.776344-30.675812-1.426582-.526428-3.724296-.708709-4.740349.078949-2.274803 1.763459-3.996689 4.240204-5.878738 6.353424 14.859199 17.137146 29.304802 33.797272 43.768951 50.478821-.488632.369507-.721893.614777-1.007126.751862-29.504249 14.173096-59.02182 28.318512-88.51329 42.518158-6.804792 3.276428-6.887753 3.635376-5.070305 11.576111 25.642132 5.464965 51.362503 11.065582 77.148972 16.343261 5.242187 1.072968 10.239914.352692 14.617538-4.038726 4.765999-4.781067 10.502197-8.59375 15.806847-12.839295 29.718094-23.784515 59.428451-47.578735 89.154129-71.35376 6.271606-5.016082 12.596145-9.965973 19.691788-15.575256v5.970001c0 22.498963-.024643 44.997986.007263 67.496918.029052 20.493744.119476 40.987427.022064 62.411499m265.039947 242.033081c-8.020416.354492-15.617034-1.281982-22.410919-5.569153-6.385803-4.029785-10.383148-9.461914-10.084015-17.664429.294922-8.086181 4.308716-13.906372 10.176087-18.604919 13.217224-10.584167 27.967804-10.083679 43.026367-5.011169 7.465942 2.514953 13.34198 7.607299 18.050354 13.756713 2.694458 3.519166 5.435303 1.218323 8.107727.953492 1.077454-.106751 2.863037-1.64563 2.880554-2.560547.203491-10.611756.130066-21.228821.130066-31.604248-3.413269-1.471436-4.794067-.43335-5.591247 2.45166-1.059144 3.832886-2.32306 7.63501-3.849854 11.304321-1.167725 2.806458-2.988281 3.792542-5.651611 1.085938-13.083374-13.29657-29.270203-16.249573-46.903565-13.381226-25.640808 4.170776-34.934387 24.120117-31.450836 44.332092 4.598084 26.678833 39.147278 42.308289 64.998871 30.305115 6.00885-2.789978 11.190674-7.36084 17.549133-11.64917 1.772339 4.958069 3.713074 9.847962 5.243469 14.863098.976746 3.200745 2.547486 3.866761 5.695801 2.347596 0-10.177002.053284-20.320862-.079162-30.462342-.013855-1.058777-.907105-2.748718-1.768128-3.041809-3.624389-1.233642-6.869385-2.791626-10.442383 1.601135-3.444397 4.234681-8.274597 8.072327-13.296875 10.121644-7.43811 3.034973-15.583374 4.337097-24.329834 6.426208m-6.236145-507.160828c-1.303711-.259277-2.603637-.539886-3.911773-.774444-11.431549-2.049896-20.680146-9.452851-22.080689-17.684754-1.749237-10.28125 3.774628-20.848358 14.635773-26.594116 14.694488-7.773697 29.569824-6.932724 43.783142 1.144913 4.799072 2.727402 8.84436 7.000168 12.725159 11.053985 3.018249 3.152894 5.956848.867814 8.789428.553864.900879-.099854 2.079346-3.016022 2.119812-4.668182.211853-8.658402.18628-17.326447.016236-25.98671-.029602-1.507126-1.144226-2.992935-1.757752-4.488571-1.247192 1.227524-2.995117 2.237259-3.642456 3.725693-1.58313 3.639923-2.467407 7.580505-3.999023 11.247177-1.152588 2.759338-3.05188 3.952179-5.631653 1.103424-8.034607-8.872147-18.496216-12.942505-30.027893-14.080445-13.42099-1.32434-26.482239.441575-37.15387 9.523652-16.752258 14.257034-15.766784 43.613205 1.557038 57.403671 19.911743 15.850464 43.761261 16.823883 62.005096 2.47232 2.289917-1.801361 4.368591-3.871398 7.540711-6.706878 1.997253 5.730743 3.761169 10.484405 5.296081 15.310882.924561 2.907196 2.088867 4.841797 5.879395 2.936707 0-10.261475.073242-20.565003-.108582-30.864044-.019104-1.079621-1.428589-2.904023-2.393066-3.048645-2.559693-.38382-6.581787-1.130616-7.647034.187103-11.746277 14.529571-27.918762 17.5784-45.99408 18.233398m-31.890686 330.582276c1.799012 2.995178 3.51648 6.043213 5.415375 8.973694 3.173889 4.898071 3.710907 4.917236 7.828888 1.141784-1.833893-5.848999-4.061493-11.429992-5.288238-17.2229-1.850281-8.737427.840026-12.2771 9.574615-13.901978 1.296265-.24115 2.649567-.238891 3.976715-.241455 17.164459-.03302 34.328949-.05426 51.493439-.052307 1.581177.000183 3.162353.179382 5.947082.348511-1.146423 7.727417-2.303589 14.71936-3.13977 21.749512-.202027 1.698913.271728 3.747619 1.131592 5.231689.968444 1.671631 2.590942 3.067078 4.178955 4.245911 1.36438 1.012756 3.080749 1.551208 4.641479 2.299438.76294-1.688659 1.955933-3.320129 2.190247-5.079162.370788-2.783692.099792-5.652832.099853-8.48584.000183-6.608704.000061-13.217407.000061-20.322693 2.298645 0 3.925476.000183 5.552246 0 7.665711-.000977 15.345215.243835 22.987244-.182068 1.828735-.101929 4.873901-2.301453 5.023682-3.773804.343689-3.38031-9.444763-11.213989-13.107178-11.229553-5.499268-.023254-10.999939-.077026-16.497437.021912-2.657043.047729-4.365356-.812439-3.913147-3.685608.647583-4.114441-1.927368-6.519959-4.43988-8.939881-.863525-.831665-2.817383-1.968566-3.110474-1.699524-1.102417 1.012024-2.268554 2.488404-2.418579 3.896546-.345459 3.241516-.109558 6.544922-.109558 10.400452-7.273559 0-13.895874-.004334-20.518188.000854-14.664795.011414-29.332123-.136902-43.993683.087463-15.302094.234131-22.481598 9.985596-18.25061 24.63147 1.101135 3.811646 2.933502 7.411926 4.745269 11.787537m-3.103759-212.469361v42.369507c.467315.335388.9346.670777 1.401916 1.006165 1.243134-1.121948 3.061218-2.018707 3.607605-3.413635 1.077637-2.751008 1.379547-5.79657 2.132446-8.686432.967621-3.714051 3.200379-5.30304 7.28357-5.145783 7.987091.307617 16.023193.522125 23.986633-.009521 12.346954-.824341 22.809753 3.664093 32.604431 10.370788 4.415222 3.023163 9.247681 6.470215 8.628235 12.497681-.627441 6.105652-6.104065 7.635986-11.196167 9.154999-1.040955.310547-2.352234 1.883911-2.363525 2.888458-.012268 1.083893 1.166015 2.898193 2.151489 3.158813 5.915588 1.564667 11.913696 2.828858 17.907715 4.081025 3.412964.712982 5.086731-1.184235 6.308166-4.181824 4.617676-11.332062.843445-22.773132-10.502319-30.886658-3.437988-2.458526-7.071045-4.644195-10.614807-6.954834.07782-.404053.155578-.808105.233337-1.212158 5.444824 0 10.88971.022614 16.33429-.008148 3.470031-.019623 6.502563-1.925354 5.744507-5.193939-1.644165-7.088868-4.296936-13.953278-6.753052-20.832428-.311585-.872773-1.8844-1.676941-2.933228-1.761109-.625549-.050201-1.655578 1.256348-1.992614 2.146546-.520752 1.375518-.784913 2.910339-.837342 4.388977-.136902 3.860748-2.355407 5.752624-5.86206 6.287231-3.110352.474213-6.265076.891876-9.402893.911987-14.664093.093934-29.329132.041657-43.993805.041626-12.230042 0-12.230133 0-16.545472-11.396942-.058898-.155548-.075897-.331299-.154571-.474457-1.68158-3.059906-3.394196-3.566101-5.172485.854065z" fill="#fff"/><path d="m236.354019 350.055023c0-5.621612 0-11.243225 0-17.462158-2.478378 0-4.252548.014587-6.026428-.002228-19.491379-.184784-38.994751-.014587-58.470657-.665039-19.119919-.63855-37.719574-4.107941-54.689873-13.655884-16.680939-9.385162-25.372963-23.879486-27.272926-42.746551-1.149277-11.412537-.496178-22.635636 3.554031-33.437012 5.810364-15.495437 16.926567-26.026077 31.714386-32.911545 15.806427-7.359771 32.599792-10.531692 49.892059-10.883789 18.322907-.373077 36.656571-.218109 54.985535-.291839 1.807999-.007264 3.616058-.000992 5.766525-.000992 0-11.560822 0-22.80539 0-34.596939-4.749908-.38469-9.679642-.621369-14.567673-1.206467-29.566986-3.539047-59.089675-7.493011-88.704528-10.561935-9.921845-1.028183-16.551453-3.753662-15.61258-16.211197 6.675026-2.53804 14.239319-5.931244 22.108551-8.319695 41.117859-12.480018 82.852616-21.058113 126.168045-20.212456 17.298584.337723 34.687867.298958 51.914856-1.080062 20.010681-1.601853 24.773041-9.481896 19.080445-28.874222-4.120331-14.03619-12.860352-25.501892-21.852997-36.659409-8.376465-10.392996-8.384155-10.937641 3.066528-18.040012 4.128815-2.560927 6.958344-2.566839 10.838135 1.05666 11.19397 10.454509 23.17514 20.064277 34.409241 30.478187 13.089264 12.133629 25.457 24.959969 33.746551 41.108986 12.153717 23.676872 2.627228 42.395233-22.407501 49.596573-12.280335 3.532501-25.544159 3.98848-38.428955 4.966583-9.93103.753891-19.965058.150315-30.758118.150315 0 66.701538 0 133.117218-.52359 200.001922-22.992096.466095-45.460571.463165-67.929062.460205m-74.16066-42.580993c6.591889 1.521148 13.139084 4.068145 19.784638 4.357788 15.618393.680725 31.283798.283508 46.930176.320648 2.271789.005401 4.543609.000763 6.879272.000763 0-31.614228 0-62.620972 0-93.160568-20.30072 0-40.252075-.534226-60.154709.218856-10.403595.393647-18.778824 6.211487-24.724258 15.002121-7.855072 11.614136-9.409928 24.745835-8.531479 38.214585.93985 14.410461 5.853683 26.943573 19.81636 35.045807z" fill="#c47034"/><path d="m304.425964 749.088257v29.946106c9.110627 1.023804 17.815552 1.910156 26.495667 2.994751 25.556671 3.193115 50.478912 8.870971 73.850128 20.028808 19.689697 9.400208 36.417267 22.361206 46.047516 42.532593 13.063843 27.363342 12.497284 64.971253-12.77298 90.502808-19.13855 19.336303-42.982452 29.216675-68.600006 35.68518-26.975494 6.811524-54.51831 8.963868-82.254669 8.069031-5.482575-.176941-11.109253-2.008301-16.281006-4.057251-5.691803-2.255005-5.990814-7.653625-.408966-10.216919 5.800598-2.663757 12.203308-4.343811 18.517303-5.502441 21.299775-3.908447 42.576783-7.840576 62.3956-17.03479 14.963989-6.941956 28.559112-15.798767 38.263733-29.581421 11.470062-16.2901 11.547455-33.911377 5.472442-51.978333-4.989013-14.837158-15.234955-25.460815-28.23941-33.786865-18.863403-12.077087-40.037537-17.347351-62.075378-21.900513 0 2.265015.00003 4.068726 0 5.872498-.000031 26.496765.048126 52.993713-.048371 79.490112-.015686 4.310974-.223785 8.714478-1.11383 12.911743-2.852265 13.451233-12.077637 21.48523-25.996918 21.846619-20.814392.540344-41.656937.919678-62.4664.444092-17.783646-.406372-35.640717-1.279419-53.277466-3.463318-20.137558-2.493469-38.68261-9.790527-53.818665-24.017273-14.045547-13.201721-19.464874-29.815002-18.641166-48.701965 1.080017-24.764282 16.10498-39.60669 36.588394-50.108948 22.135734-11.349426 46.244377-15.560913 70.676857-17.946289 12.888168-1.258362 25.871811-1.53894 39.343933-2.290588 0-9.647522 0-19.257691.547394-29.315308 22.963684-.438904 45.379974-.430481 67.796264-.422119m-97.897827 151.90918h29.185211c0-32.573487 0-65.080933 0-97.51001-6.430847 0-12.412002-.140869-18.38446.027405-15.620483.440063-31.364624.14331-46.436539 5.204467-13.937195 4.680054-24.430969 13.202393-27.160522 28.362-1.340592 7.445434-1.655335 15.252868-1.169693 22.815246 1.261093 19.63855 12.252579 32.106446 30.968216 36.802002 10.374832 2.602967 21.321212 2.927735 32.997787 4.29889z" fill="#020202"/><path d="m304.537231 748.630859c-22.527557.449036-44.943847.440613-67.808563.423218-.524566-5.16803-.664978-10.327087-.66687-15.486145-.016754-45.488098-.008865-90.976135-.008285-136.464233.000015-1.784119 0-3.568238 0-6.355835-31.65738 5.989563-62.185395 13.112793-93.41005 23.338257 2.241043 1.510986 3.19513 2.255188 4.237656 2.842346 19.516067 10.990906 33.69429 26.786804 37.968612 48.908874 5.891892 30.493897-6.345794 52.811097-36.129653 62.936707-26.988076 9.175232-54.657616 9.09845-82.153725 2.217163-18.907166-4.73169-35.474194-13.810913-43.232777-32.871033-10.825778-26.595215-4.097265-51.822998 17.618073-70.730469 17.815693-15.512023 39.068783-24.274536 61.210697-31.479248 34.383552-11.187988 69.736046-18.353942 104.98127-26.014221 9.576065-2.081238 19.072754-4.527771 29.048065-6.912414 0-6.508545 0-12.808716.524139-19.577271 22.993012-.465637 45.461884-.46289 67.930756-.460144.021789 17.802979.064697 35.605957.06131 53.408936-.009674 50.606018-.038239 101.212036-.170655 152.275512m-149.030197-83.405273c-8.265899-19.170654-23.485214-30.440552-42.547271-37.243225-1.539658-.549439-3.66214-.606568-5.145058.003662-13.615563 5.6026-25.241119 13.863708-34.292999 25.678345-16.098214 21.011474-8.273346 55.970947 24.635582 58.868652 12.285812 1.081726 24.052803-.398743 35.090805-5.348816 18.341583-8.225464 28.655075-21.139526 22.258941-41.958618z" fill="#c57035"/><path d="m304.733215 542.484619c-22.555511.459046-45.024383.456299-67.937011.456787-.507111-20.490539-.597535-40.984222-.626587-61.477966-.031906-22.498932-.007263-44.997955-.007263-67.496918 0-1.611175 0-3.22232 0-5.970001-7.095643 5.609283-13.420182 10.559174-19.691788 15.575256-29.725678 23.775025-59.436035 47.569245-89.154129 71.35376-5.30465 4.245545-11.040848 8.058228-15.806847 12.839295-4.377624 4.391418-9.375351 5.111694-14.617538 4.038726-25.786469-5.277679-51.50684-10.878296-77.148972-16.343261-1.817448-7.940735-1.734487-8.299683 5.070305-11.576111 29.49147-14.199646 59.009041-28.345062 88.51329-42.518158.285233-.137085.518494-.382355 1.007126-.751862-14.464149-16.681549-28.909752-33.341675-43.768951-50.478821 1.882049-2.11322 3.603935-4.589965 5.878738-6.353424 1.016053-.787658 3.313767-.605377 4.740349-.078949 27.606178 10.187317 55.154686 20.531128 82.776344 30.675812 1.749924.642731 4.293549.539643 5.973694-.257843 21.070587-10.000885 42.033158-20.229126 63.075196-30.290771 2.461029-1.176758 3.278411-2.63321 3.224502-5.353638-.181625-9.162292-.059494-18.330536.033386-27.959015 22.555451-.459534 45.023926-.456604 67.936188-.457092.507294 20.486877.614349 40.977142.625427 61.467499.023529 43.498291-.002899 86.996551-.095459 130.956695z" fill="#020202"/><path d="m501.68277 785.883423c8.295318-2.064514 16.440582-3.366638 23.878692-6.401611 5.022278-2.049317 9.852478-5.886963 13.296875-10.121644 3.572998-4.392761 6.817994-2.834777 10.442383-1.601135.861023.293091 1.754273 1.983032 1.768128 3.041809.132446 10.14148.079162 20.28534.079162 30.462342-3.148315 1.519165-4.719055.853149-5.695801-2.347596-1.530395-5.015136-3.47113-9.905029-5.243469-14.863098-6.358459 4.28833-11.540283 8.859192-17.549133 11.64917-25.851593 12.003174-60.400787-3.626282-64.998871-30.305115-3.483551-20.211975 5.810028-40.161316 31.450836-44.332092 17.633362-2.868347 33.820191.084656 46.903565 13.381226 2.66333 2.706604 4.483886 1.72052 5.651611-1.085938 1.526794-3.669311 2.79071-7.471435 3.849854-11.304321.79718-2.88501 2.177978-3.923096 5.591247-2.45166 0 10.375427.073425 20.992492-.130066 31.604248-.017517.914917-1.8031 2.453796-2.880554 2.560547-2.672424.264831-5.413269 2.565674-8.107727-.953492-4.708374-6.149414-10.584412-11.24176-18.050354-13.756713-15.058563-5.07251-29.809143-5.572998-43.026367 5.011169-5.867371 4.698547-9.881165 10.518738-10.176087 18.604919-.299133 8.202515 3.698212 13.634644 10.084015 17.664429 6.793885 4.287171 14.390503 5.923645 22.862061 5.544556z" fill="#acacac"/><path d="m495.43277 278.795166c17.638031-.702972 33.810516-3.751801 45.556793-18.281372 1.065247-1.317719 5.087341-.570923 7.647034-.187103.964477.144622 2.373962 1.969024 2.393066 3.048645.181824 10.299041.108582 20.602569.108582 30.864044-3.790528 1.90509-4.954834-.029511-5.879395-2.936707-1.534912-4.826477-3.298828-9.580139-5.296081-15.310882-3.17212 2.83548-5.250794 4.905517-7.540711 6.706878-18.243835 14.351563-42.093353 13.378144-62.005096-2.47232-17.323822-13.790466-18.309296-43.146637-1.557038-57.403671 10.671631-9.082077 23.73288-10.847992 37.15387-9.523652 11.531677 1.13794 21.993286 5.208298 30.027893 14.080445 2.579773 2.848755 4.479065 1.655914 5.631653-1.103424 1.531616-3.666672 2.415893-7.607254 3.999023-11.247177.647339-1.488434 2.395264-2.498169 3.642456-3.725708.613526 1.495651 1.72815 2.98146 1.757752 4.488586.170044 8.660263.195617 17.328308-.016236 25.98671-.040466 1.65216-1.218933 4.568328-2.119812 4.668182-2.83258.31395-5.771179 2.59903-8.789428-.553864-3.880799-4.053817-7.926087-8.326583-12.725159-11.053985-14.213318-8.077637-29.088654-8.91861-43.783142-1.144913-10.861145 5.745758-16.38501 16.312866-14.635773 26.594116 1.400543 8.231903 10.64914 15.634858 22.080689 17.684754 1.308136.234558 2.608062.515167 4.34906.822418z" fill="#acacac"/><path d="m462.947174 608.990356c-1.654144-4.036499-3.486511-7.636779-4.587646-11.448425-4.230988-14.645874 2.948516-24.397339 18.25061-24.63147 14.66156-.224365 29.328888-.076049 43.993683-.087463 6.622314-.005188 13.244629-.000854 20.518188-.000854 0-3.85553-.235901-7.158936.109558-10.400452.150025-1.408142 1.316162-2.884522 2.418579-3.896546.293091-.269042 2.246949.867859 3.110474 1.699524 2.512512 2.419922 5.087463 4.82544 4.43988 8.939881-.452209 2.873169 1.256104 3.733337 3.913147 3.685608 5.497498-.098938 10.998169-.045166 16.497437-.021912 3.662415.015564 13.450867 7.849243 13.107178 11.229553-.149781 1.472351-3.194947 3.671875-5.023682 3.773804-7.642029.425903-15.321533.181091-22.987244.182068-1.62677.000183-3.253601 0-5.552246 0 0 7.105286.000122 13.713989-.000061 20.322693-.000061 2.833008.270935 5.702148-.099853 8.48584-.234314 1.759033-1.427307 3.390503-2.190247 5.079162-1.56073-.74823-3.277099-1.286682-4.641479-2.299438-1.588013-1.178833-3.210511-2.57428-4.178955-4.245911-.859864-1.48407-1.333619-3.532776-1.131592-5.231689.836181-7.030152 1.993347-14.022095 3.13977-21.749512-2.784729-.169129-4.365905-.348328-5.947082-.348511-17.16449-.001953-34.32898.019287-51.493439.052307-1.327148.002564-2.68045.000305-3.976715.241455-8.734589 1.624878-11.424896 5.164551-9.574615 13.901978 1.226745 5.792908 3.454345 11.373901 5.288238 17.2229-4.117981 3.775452-4.654999 3.756287-7.828888-1.141784-1.898895-2.930481-3.616363-5.978516-5.572998-9.312806z" fill="#ababab"/><path d="m460.01474 396.406799c1.764587-3.966858 3.477203-3.460663 5.158783-.400757.078674.143158.095673.318909.154571.474457 4.315339 11.396942 4.31543 11.396942 16.545472 11.396942 14.664673.000031 29.329712.052308 43.993805-.041626 3.137817-.020111 6.292541-.437774 9.402893-.911987 3.506653-.534607 5.725158-2.426483 5.86206-6.287231.052429-1.478638.31659-3.013459.837342-4.388977.337036-.890198 1.367065-2.196747 1.992614-2.146546 1.048828.084168 2.621643.888336 2.933228 1.761109 2.456116 6.87915 5.108887 13.74356 6.753052 20.832428.758056 3.268585-2.274476 5.174316-5.744507 5.193939-5.44458.030762-10.889466.008148-16.33429.008148-.077759.404053-.155517.808105-.233337 1.212158 3.543762 2.310639 7.176819 4.496308 10.614807 6.954834 11.345764 8.113526 15.119995 19.554596 10.502319 30.886658-1.221435 2.997589-2.895202 4.894806-6.308166 4.181824-5.994019-1.252167-11.992127-2.516358-17.907715-4.081025-.985474-.26062-2.163757-2.07492-2.151489-3.158813.011291-1.004547 1.32257-2.577911 2.363525-2.888458 5.092102-1.519013 10.568726-3.049347 11.196167-9.154999.619446-6.027466-4.213013-9.474518-8.628235-12.497681-9.794678-6.706695-20.257477-11.195129-32.604431-10.370788-7.96344.531646-15.999542.317138-23.986633.009521-4.083191-.157257-6.315949 1.431732-7.28357 5.145783-.752899 2.889862-1.054809 5.935424-2.132446 8.686432-.546387 1.394928-2.364471 2.291687-3.607605 3.413635-.467316-.335388-.934601-.670777-1.401916-1.006165 0-14.123169 0-28.246338.013702-42.822815z" fill="#ababab"/><path d="m161.877594 307.275574c-13.646912-7.903778-18.560745-20.43689-19.500595-34.847351-.878449-13.46875.676407-26.600449 8.531479-38.214585 5.945434-8.790634 14.320663-14.608474 24.724258-15.002121 19.902634-.753082 39.853989-.218856 60.154709-.218856v93.160568c-2.335663 0-4.607483.004638-6.879272-.000763-15.646378-.03714-31.311783.360077-46.930176-.320648-6.645554-.289643-13.192749-2.83664-20.100403-4.556244z" fill="#fffefe"/><path d="m206.03421 900.987671c-11.182648-1.361389-22.129028-1.686157-32.50386-4.289124-18.715637-4.695556-29.707123-17.163452-30.968216-36.802002-.485642-7.562378-.170899-15.369812 1.169693-22.815246 2.729553-15.159607 13.223327-23.681946 27.160522-28.362 15.071915-5.061157 30.816056-4.764404 46.436539-5.204467 5.972458-.168274 11.953613-.027405 18.38446-.027405v97.51001c-9.674118 0-19.429672 0-29.679138-.009766z" fill="#fefefe"/><path d="m155.667511 665.589539c6.235657 20.455139-4.077835 33.369201-22.419418 41.594665-11.038002 4.950073-22.804993 6.430542-35.090805 5.348816-32.908928-2.897705-40.733796-37.857178-24.635582-58.868652 9.05188-11.814637 20.677436-20.075745 34.292999-25.678345 1.482918-.61023 3.6054-.553101 5.145058-.003662 19.062057 6.802673 34.281372 18.072571 42.707748 37.607178z" fill="#fffefe"/></svg>