<svg enable-background="new 0 0 320 1024" viewBox="0 0 320 1024" xmlns="http://www.w3.org/2000/svg"><path d="m321 108.53138c-9.585999-.921059-13.133118-4.324227-14.235413-13.834801-.332794-2.871117-1.461242-3.734558-4.141052-3.485146-3.994415.371781-7.556915.895699-10.699097 4.236878-3.908508 4.156021-9.61734 3.969948-15.015106 3.934196-6.581207-.043594-6.597168.016785-6.593261 6.573616.009185 15.331353.214202 30.665917-.060334 45.991997-.077911 4.349182 1.535401 6.093201 5.496979 6.428101.827789.069977 1.649567.211807 2.473755.323059 7.909912 1.067856 7.909882 1.068008 9.652985-6.645966 2.238189-9.90506 17.199554-14.111465 25.160003-7.058731-.016418 1.142105-.95404 1.15181-1.716888 1.39737-7.408264 2.384689-8.654968 4.001022-9.062866 11.696929-.052857.997742-.088868 2.002045-.234497 2.988282-.960999 6.508362-1.900452 7.221908-8.36792 6.185867-7.504914-1.202209-15-2.465851-22.134491-3.642654-1.406861 1.719986-1.131256 3.104019-1.133515 4.406234-.021759 12.498307.0914 24.998078-.078277 37.494126-.050171 3.695755.924469 5.244583 4.92929 5.616592 8.825379.819794 17.39975 2.881348 25.090271 7.660324 7.466095 4.639496 12.165802 10.971741 11.57782 20.091034-.64743 10.041245-6.39328 16.515152-15.437988 20.26384-8.766388 3.633362-18.111023 4.613708-27.409912 4.715149-21.144547.230774-42.311661 1.139862-63.438111-.52063-8.823318-.693512-15.951049-4.624634-20.559906-12.369598-3.587036-6.027848-6.115417-12.78653-12.652404-16.232499 1.116241-2.219482 2.33609-1.564926 3.405044-1.327026 3.40979.758926 6.774933 1.780289 10.217057 2.317795 5.437362.84909 9.182174 2.79628 11.065521 8.804214 2.493698 7.955017 8.622909 11.562912 17.316101 11.399597 18.158508-.341095 36.327148-.102401 54.490051-.271942 6.403381-.059784 12.552948-1.62471 18.16098-4.827011 5.467316-3.121948 8.530976-7.799637 8.597596-14.228088.063659-6.1418-3.628785-9.831497-8.527771-12.508148-7.766236-4.243256-16.178925-6.218522-24.994629-5.779526-7.174057.357239-11.757218 5.220398-15.498947 10.634933-2.155213 3.118729-4.248276 4.066834-7.880936 2.983765-4.934097-1.471115-10.027085-2.403259-15.032974-3.643051-1.723542-.42688-3.952027-.639618-3.80687-3.12526.128052-2.192749 2.216614-2.118331 3.779022-2.51007 5.444825-1.365326 10.821915-2.914505 16.542252-5.679322-4.333695-2.488067-9.838211-2.321853-11.699326-8.177948 4.46814-1.807113 8.802521-.883224 12.976151-.980117 11.452621-.265824 10.223434 1.71643 10.316299-10.462204.04773-6.260605.008347-12.521882.008347-19.872483-7.868668 5.503891-14.907364 10.175293-21.648773 15.242234-3.721924 2.797454-7.264695 4.224426-11.957428 2.704101-3.614487-1.17099-7.498398-1.484161-11.206299-2.405106-1.640534-.407485-4.091721-.14949-4.368927-2.553283-.280426-2.431702 2.071029-2.749115 3.682617-3.396164 12.674225-5.088684 25.368408-10.127808 38.066711-15.156204 7.988541-3.163361 7.877076-3.137558 7.474503-11.584153-.144836-3.038574-1.394531-3.875045-4.251877-4.129715-6.950653-.619491-13.926269-1.135833-20.781769-2.610565-2.24292-.482498-4.511612-1.004028-4.63266-3.670715-.123275-2.716019 2.552414-2.703812 4.295975-3.306229 6.777893-2.341873 13.704773-4.275238 20.856278-4.861374 6.087906-.498947 4.07109-4.877365 4.44934-8.161987.409195-3.553528-1.203735-5.034225-4.812866-5.317718-6.625839-.520462-13.230926-1.379342-19.816269-2.30027-2.268814-.317284-4.935302-.912148-5.021072-3.919312-.078613-2.756973 2.692368-2.609665 4.389084-3.232208 6.743103-2.474129 13.763992-4.086579 20.864136-4.845276 4.400329-.4702 4.356735-2.851944 4.477844-6.071556.134567-3.577011-1.304093-5.145638-4.79776-5.485665-6.120011-.595619-12.224655-1.368934-18.320923-2.179336-2.52446-.335594-6.038773.080986-6.20462-3.544899-.149338-3.264107 3.371521-3.241402 5.532394-3.956139 12.291382-4.065513 24.930481-5.66568 37.882858-5.136307 3.877655.158486 8.915863 1.322907 10.933899-2.831596 1.998535-4.114319-1.642853-7.745117-3.870727-11.200409-.360169-.558616-.81308-1.056518-1.199036-1.599594-1.100525-1.548477-2.200073-3.114403-.183533-4.775482 1.636139-1.347748 3.239991-1.462204 4.915009.02803 5.714142 5.083809 12.052673 9.591782 15.9888 16.355103 1.304657 2.24173 2.613434 2.935142 5.188995 2.464844 5.885773-1.074738 11.867493-1.629357 17.745636-2.737847 2.44455-.460991 3.807373.355835 5.233338 2.438027.254089 7.597969.254089 14.952217.254089 22.775093z"/><path d="m270.357422 548.000122c.003326 53.660889.008484 106.821838.006683 159.982727-.000213 6.850464-.016876 6.864563-7.044037 6.903809-13.912353.077759-11.265762-.26416-11.404373-11.216126-.109421-8.64685-.021957-17.296203-.021957-26.355774-3.548355.537354-5.545319 2.898499-7.91362 4.466065-4.443283 2.941101-8.982727 5.817505-13.032395 9.251281-4.545257 3.853943-9.165451 4.745545-14.741684 2.786133-3.110534-1.093017-6.505966-1.350891-9.732757-2.148132-1.490097-.368103-3.648102-.100769-3.828171-2.429993-.172882-2.23645 1.836807-2.558593 3.309692-3.148742 10.203034-4.088868 20.428483-8.121888 30.648835-12.16742 3.871841-1.532654 7.714248-3.148742 11.632232-4.553283 5.790879-2.075928 3.159226-6.91742 3.526337-10.677247.379517-3.886657-2.889038-3.288208-5.22728-3.613464-6.586609-.916199-13.176834-1.807495-19.77098-2.667664-2.346894-.306213-4.460038-1.152099-4.546647-3.753173-.079177-2.378357 2.364075-2.419617 3.984497-3.038514 6.722992-2.567688 13.724518-4.018188 20.835114-4.940246 2.733398-.354431 4.844467-.999207 4.813614-4.409119-.076752-8.482116-.025269-16.965454-.025269-25.450561-2.232238-.715515-3.297042.872192-4.546341 1.724609-5.091171 3.473816-10.440338 6.677063-15.058761 10.708191-5.37706 4.693298-10.872849 5.696899-17.453415 3.349976-3.108704-1.108765-6.471512-1.509644-9.724304-2.207398-1.195633-.256531-2.310639-.587158-2.407349-2.065918-.090988-1.390625.80603-2.141479 1.940094-2.604004 4.163406-1.698181 8.338654-3.367676 12.519119-5.023559 10.220978-4.048584 20.440033-8.102234 30.677109-12.109742 2.292389-.897338 4.139343-1.876647 4.102356-4.865539-.106964-8.64917-.037842-17.300537-.037842-25.843262-1.865646-.928711-2.759277.370117-3.75003 1.05426-6.031678 4.16504-12.218262 8.143494-17.950348 12.691895-4.085922 3.242065-8.101746 3.972656-12.955277 2.4729-3.324691-1.027343-6.850998-1.388366-10.210952-2.321655-1.585282-.440369-4.101456.07782-4.318192-2.510376-.207993-2.483887 2.140411-2.713013 3.731461-3.351929 10.20169-4.096557 20.439163-8.103942 30.66249-12.146667 3.872147-1.53125 7.730042-3.098877 11.610459-4.608643 1.633148-.635315 3.103195-1.396972 3.107666-3.427429.02005-9.10614.008728-18.212341.008728-27.940063-5.19603 2.108886-8.78447 5.354492-12.611221 8.107055-14.786393 10.635926-14.733002 10.702637-32.665101 6.470703-1.58963-.375183-3.588089-.243042-3.797531-2.457153-.21286-2.250244 1.86702-2.519226 3.324707-3.102905 13.761002-5.510315 27.547989-10.95575 41.317002-16.446106 3.946075-1.573486 6.551529-9.642944 3.994323-12.945282-1.531997-1.978424-4.200592-1.914795-6.473968-1.984436-6.019501-.184387-11.908844-1.279022-17.828034-2.187653-2.206726-.338745-4.508987-.853485-4.7733-3.547729-.276565-2.819397 2.396668-2.866516 4.112397-3.47876 6.282928-2.242035 12.726699-3.976959 19.385498-4.575806 4.362655-.392334 6.393539-1.968994 6.210678-6.836059-.375122-9.984833-.099396-19.993744-.113617-29.992676-.009796-6.893646-.051514-7.003174-6.535675-5.510986-7.290039 1.677643-14.691483 2.934295-21.741226 5.577484-2.835877 1.063263-5.551651 2.332306-7.816071 4.344299-4.785828 4.252258-4.956741 10.863587-.534882 15.426697 1.421738 1.467133 4.046845 2.647034 2.495667 5.257751-1.332184 2.242127-3.928024 2.44278-6.271454 2.173218-5.996017-.689667-11.018417-3.136383-13.123932-9.215362-2.13176-6.154724-.907928-11.850037 3.558548-16.682221 3.357864-3.632843 7.640061-5.819549 12.207352-7.563415 9.8479-3.759949 20.193649-5.606079 30.397293-7.992218 7.342056-1.716919 7.361801-1.655671 7.368912-9.044342.007019-7.313172.001541-14.626343.001541-21.81189-1.949524-.809418-2.839188.449402-3.861542 1.145966-3.992615 2.720123-8.594894 4.90747-11.779098 8.384094-9.536133 10.411834-20.395005 6.764618-31.346222 3.931183-1.217392-.315003-2.24054-.823059-2.2249-2.268464.021347-1.971679 1.725647-2.286712 3.056931-2.819946 13.605911-5.449737 27.224609-10.867615 40.848251-16.272919 4.996613-1.982452 6.598099-5.336151 5.178696-10.482025-.675934-2.45047-2.504303-2.304931-4.320221-2.39563-5.15303-.257324-10.338287-.218719-15.454437-.796295-12.523331-1.413788-18.522492-9.2695-16.278183-20.806457 1.222564-6.284729 5.424469-9.631439 11.077362-11.728821 6.429779-2.38559 13.119491-2.18457 19.759063-1.895203 4.225861.184174 5.513825-1.418304 5.393052-5.483123-.235199-7.915772-.068924-15.843476-.068924-24.975098-7.371262 5.145111-13.975464 9.286957-20.025055 14.12265-5.007599 4.002747-9.947617 5.462524-16.081711 3.21048-2.93634-1.078034-6.163071-1.346222-9.231506-2.091461-1.498063-.363831-3.654862.016784-3.819733-2.367829-.15387-2.225799 1.840286-2.576172 3.31163-3.165222 11.131729-4.45636 22.39-8.613861 33.403275-13.34314 8.248077-3.541931 16.52127-5.740203 25.615127-5.140533 4.045136.266724 5.488404 1.32608 5.433228 5.489532-.203156 15.328949-.086304 30.662171-.086609 45.993805-.001068 59.158661-.000885 118.317322-.000885 177.976044m-39.439469-178.213928c-2.885208 11.948486.784699 16.762909 12.834 16.830688 1.498703.008423 3.001236-.072235 4.495499.008545 2.582336.139618 3.609878-1.118927 3.590957-3.592895-.038192-4.995545.015259-9.991822-.021484-14.987366-.009628-1.307953.000504-2.645752-1.453766-3.447205-4.204422-2.316925-15.93132.397522-19.445206 5.188233z"/><path d="m99.004242 557.846069c3.630882 1.892823 6.417488 4.259827 8.733711 7.146241 7.767624 9.67987 5.397125 22.024169-5.41214 28.059631-6.2388 3.48352-13.105034 4.859558-20.129776 5.19696-3.577995.171875-4.981537 1.354737-4.960808 5.06012.122086 21.828308.099587 43.657837.024132 65.486572-.010818 3.129395.621788 4.821228 4.268425 5.197754 5.443909.562195 10.837425 1.751343 16.000191 3.74707 3.605057 1.393555 7.01902 3.086365 9.800827 5.838379 7.574432 7.493409 6.387917 18.750061-2.696945 24.284546-7.936829 4.835022-16.951195 5.660889-25.928841 6.369873-2.977798.235108-5.995201.060791-8.989898-.050293-1.42183-.052673-2.647263-.709777-2.749367-2.338684-.086319-1.377075.932647-2.165405 2.074554-2.494201 3.192528-.919129 6.412995-1.752198 9.648094-2.509644 4.233284-.99115 8.409699-2.141174 12.126488-4.470947 5.575317-3.494629 6.54039-9.255127 2.460388-14.496582-1.986282-2.551697-4.576622-4.317383-7.55545-5.575989-13.048897-5.513367-25.032986-3.769409-35.972809 5.207703-2.703323 2.218322-5.340759 4.519043-8.08633 6.683044-2.019608 1.591858-3.294156 4.778503-6.39111 4.21698-4.562557-.827148-9.301296-1.708557-13.238436-4.165466-2.727296-1.701905-.139955-3.414063 1.327404-4.570557 9.133849-7.198486 19.256339-12.494629 30.514254-15.5271 5.271751-1.419982 5.33403-1.871459 4.874233-11.325988-.219772-4.519165-3.297134-4.338135-6.257984-4.582703-8.740314-.721985-17.25066.680298-25.700127 2.784119-2.029722.505371-4.05441 1.736145-7.122993.374084 0-6.406982-.090378-13.186462.027201-19.962341.103113-5.942383-.636885-11.211487-6.741552-14.382874-2.725383-1.415832-1.428904-4.33728 2.491984-5.827636 8.022885-3.049622 19.382359 2.729492 21.826379 11.051818 1.246551 4.244813 1.086872 8.588318.903873 12.899903-.149662 3.526245 1.266266 4.809448 4.698456 4.55841 3.498173-.255798 6.983455.127503 10.429249.848328 3.67295.768555 5.526538-.223205 5.455692-4.528747-.211079-12.827271-.18549-25.662049-.000675-38.490235.054798-3.803589-1.716202-4.913147-5.030293-5.206787-6.820041-.60437-13.440216-2.261047-19.956531-4.297974-2.214703-.69226-4.808684-1.496948-4.817543-4.364318-.009682-3.133301 3.000063-3.288086 5.081005-3.807557 7.0354-1.756042 14.188648-1.676818 21.318794-.567627 7.382091 1.148377 14.690636 2.901429 22.266785 1.482789 3.300521-.617981 6.495758-1.42804 9.516525-2.886719 10.759064-5.195496 11.945236-15.039185 2.132522-21.796631-13.099372-9.020691-26.867446-8.396179-40.628623-1.19696-1.471982.770019-3.191189 1.448181-4.197915 2.66394-5.711536 6.897827-12.435482 5.307922-19.329692 2.561035-1.474593-.587524-3.671732-.538696-3.986712-2.51239-.350414-2.195679 1.793932-3.022827 3.225849-4.030884 9.004099-6.338745 18.894228-10.766418 29.894335-11.722717 5.925743-.515076 4.083679-4.37085 4.428432-7.505371.449143-4.083679-2.258998-4.019043-5.123512-4.02887-6.14896-.020996-12.319477.39386-18.397384-1.121948-8.454678-2.108337-13.069132-7.263977-13.393074-15.204895-.330227-8.094971 4.00373-14.316315 12.110324-16.850281 6.099278-1.906494 12.409035-2.159546 18.777359-1.71405 2.675999.187225 5.809594 1.086426 6.074826-3.570404.423668-7.438599.082554-8.574036-4.884446-9.24292-6.59058-.887482-13.214721-1.523407-19.811874-2.365875-2.143801-.273774-4.60951-.63855-5.00646-3.296296-.46364-3.104339 2.471514-3.166961 4.320902-3.851532 6.735634-2.493377 13.737339-3.940063 20.852688-4.867248 2.655414-.345978 4.736538-1.045929 4.554699-4.572449-.145035-2.812835-.955044-4.030609-3.910931-4.566406-7.520863-1.36322-14.963417-3.165558-22.42197-4.859711-1.588313-.360748-3.506453-.700866-3.508728-2.884094-.002312-2.217468 1.973587-2.327179 3.526729-2.846985 7.547333-2.525635 15.426479-3.728851 23.154793-5.47467.049332-2.415406-1.751358-3.442017-2.641258-4.946198-5.246968-8.868744-3.287171-18.228241 5.227115-24.059173 5.487744-3.758301 11.355545-7.021088 15.255509-12.7081 1.432785-2.089355 3.447693-2.156372 5.077087-.351135 4.318237 4.784363 9.954674 7.7771 15.079887 11.465088 6.821305 4.908417 11.298729 11.11261 9.44574 19.929352-1.895881 9.020904-8.476883 13.584869-16.891517 15.847961-8.811058 2.36966-8.832428 2.299317-8.833199 11.283966-.002182 25.494965.112915 50.990967-.115166 76.483887-.038467 4.299438 1.435181 5.987244 5.416779 6.480896 5.665703.702515 11.03154 2.47937 16.39785 5.368713m-11.200966-127.02417c-3.578476-3.869232-7.587486-7.217254-11.808182-10.529602-3.815513 4.04068-7.384124 7.523041-10.600815 11.304779-3.673881 4.319245-4.01614 9.019867-1.437908 13.353455 3.641484 6.120667 14.318524 7.930023 21.461895 3.636871 6.22863-3.743347 7.256256-9.928802 2.38501-17.765503m-42.721401 102.913514c.995338.03955 1.990871.117797 2.985992.112793 12.546383-.0625 10.476258 1.213073 10.588459-10.529541.11636-12.177308.023529-12.178223-12.325844-11.344696-6.096672.411529-9.172592 3.421112-9.916606 9.702789-.711533 6.007446 2.035709 10.225891 8.667999 12.058655z"/><path d="m58.668617 117.618935c-.000423-1.567154-.000423-2.720749-.000423-4.399079-4.254692 1.515488-6.882553 4.566727-9.92619 6.945694-6.297931 4.922615-12.550846 9.906899-18.704368 15.008065-2.253102 1.867767-4.670351 2.536514-7.412008 2.006515-5.062094-.978577-10.107-2.053055-15.137124-3.185074-1.248829-.281036-2.776713-.550995-3.049923-2.176559-.323218-1.923111 1.212248-2.514603 2.57068-3.179764 6.531051-3.197868 13.059493-6.401077 19.763518-9.688019-2.106706-4.290291-5.209953-6.893913-7.616622-10.019821-.911753-1.184227-2.15802-2.339096-1.0292-3.960358 1.103338-1.584663 2.575415-1.016021 4.039606-.46466 5.143229 1.936737 10.361868 3.68679 15.437296 5.784896 3.022396 1.249421 5.504139.564499 8.518696-.343009 10.410774-3.134057 14.190311-9.527832 12.74665-20.311432-.964344-7.203278-.150581-14.640511-.208267-21.972458-.012569-1.597542.501339-3.352059-1.277454-5.205158-7.77409 1.697788-16.039028 2.765979-23.424278 6.843128-7.927494 4.37651-8.975502 11.962249-2.718167 18.40197 1.18874 1.223388 2.557431 2.342369 1.776318 4.26107-.724289 1.779137-2.403904 2.104797-4.10742 2.313667-6.294016.771721-12.233513-2.332138-14.929245-7.827087-2.845396-5.800019-1.624005-13.213066 3.102564-18.061966 4.439131-4.554016 10.125868-6.944504 16.04956-8.80016 13.681252-4.285789 27.809521-6.717392 41.74403-9.953525 6.015892-1.397125 11.971482-2.966736 17.275551-6.313049 9.557015-6.029458 10.064881-17.309233 1.014839-24.063908-4.451156-3.322209-9.469352-5.227264-15.87339-5.912055 0 6.673385.025543 12.781239-.006264 18.888793-.04264 8.19059-2.533859 10.865791-10.707229 10.913128-7.314968.042366-14.643128.554661-21.944008-.695397-10.565445-1.809017-15.583271-6.127575-17.458767-16.347694-1.08198-5.896036-2.31205-11.700571-4.845802-17.08508 7.539774-3.982703 15.681556-1.276438 18.419483 6.037366 1.213474 3.241544 1.902897 6.720976 2.476856 10.15154 1.197472 7.157385 4.271946 9.715487 11.411358 9.600028 3.06237-.049527 4.103218-1.259186 4.061047-4.201897-.102665-7.164106.023948-14.331225-.031403-21.496437-.019711-2.551979.728996-4.148935 3.594597-4.242232 12.894092-.419803 25.68243.129558 37.833835 5.020706 12.252816 4.931969 18.080018 15.154019 15.392762 26.338206-1.525658 6.349712-5.793549 10.307835-11.291649 13.232006-6.987633 3.716377-14.592545 5.633301-22.244858 7.247242-3.676926.775494-4.746048 2.546886-4.729713 6.168552.12783 28.329129.158165 56.659497-.003579 84.988217-.023056 4.037414 1.371842 5.841781 5.094963 7.20729 8.299134 3.043854 16.238762 6.924027 23.307442 12.37613 3.468659 2.675445 6.487137 5.765777 8.725044 9.527755 3.003373 5.048752 1.262139 8.385819-4.550079 7.820908-9.700149-.94281-19.303619-.008896-28.934959.547058-4.584702.264648-9.178551.745285-14.341118 2.62738 10.740677 5.400452 20.819694 10.449982 30.073799 16.904343 3.547752 2.474396 6.967285 5.141693 10.344833 7.846481 1.289643 1.032731 2.574059 2.405915 1.420395 4.278458-1.097244 1.780945-2.957954 1.571747-4.48365.942215-4.614754-1.904129-9.179916-3.940506-13.694015-6.07428-13.585503-6.421753-27.358834-12.173599-42.453923-14.145569-4.784752-.625061-9.586784.373063-14.419235-.430557-.537159-3.793671 1.768105-5.696747 4.23848-7.431747 11.202449-7.867691 23.966819-11.422699 37.313259-13.120102 7.511879-.955368 15.087692-1.408097 23.421196-2.158036-2.331101-2.456817-4.569542-3.459381-6.784012-4.445709-18.171425-8.093704-37.119373-11.471267-56.956936-9.172729-2.217102.256881-4.145357.064346-5.039675-2.115494-1.057594-2.577805 1.447176-3.061371 2.888548-3.804321 6.299591-3.24704 13.083229-4.968781 20.124901-5.340058 4.499046-.237228 6.487507-1.78572 6.261074-6.678604-.384792-8.314575-.107098-16.659813-.108227-25.405723z"/><path d="m43.008488 815.780579c4.342693-.755799 8.252422-1.653565 12.212391-2.051941 4.590751-.461853 3.235405-3.811402 3.427494-6.38501.191089-2.560242.282203-4.874695-3.503926-5.229736-7.113029-.666993-14.174339-1.86969-21.270935-2.736939-2.312576-.282593-4.519972-.739258-4.791795-3.408569-.281517-2.764405 2.402629-2.920044 4.109846-3.510742 9.479919-3.279969 19.228984-5.350525 29.279915-5.70221 4.492778-.157226 8.995632-.004333 13.49348-.042969 8.245247-.070861 10.079888-3.313049 5.935341-10.628296-1.060203-1.871276-2.470474-3.544311-3.720444-5.308044-.91024-1.284363-1.693908-2.610535-.20494-3.977539 1.450309-1.331665 3.135925-2.177734 4.906707-.709106 6.151886 5.102294 12.592659 10.007507 16.732346 17.009582 3.930069 6.647461 1.700088 11.985535-5.642662 14.432617-4.00177 1.333618-8.172203 1.537903-12.339714 1.43573-3.200661-.07843-4.410439 1.275452-4.376168 4.485718.120949 11.327454.140862 22.657837.007462 33.984924-.038109 3.236267 1.639229 5.232972 3.717918 7.247864 4.585061 4.444214 10.436272 7.154358 15.261345 11.26416 9.67202 8.238404 9.615692 20.848328-.252937 28.868347-3.823547 3.107117-8.331741 5.060975-13.227592 5.388001-4.285988.286255-5.610718 2.068237-5.546799 6.280884.214767 14.15747-.06456 28.32257.159981 42.479797.06842 4.314209-1.334137 5.984741-5.657051 5.941834-16.006981-.158936-12.701096 1.15039-12.99627-12.438477-.161842-7.450562-.026157-7.530212-7.514244-8.601074-6.086654-.870484-12.26178-1.049256-18.287483-2.456055-1.935514-.451843-3.610355-1.040832-3.950499-3.179077-.413799-2.601318 1.875763-2.861267 3.482634-3.440247 6.907356-2.488891 13.9865-4.355468 21.310936-5.070129 2.711021-.264526 4.791893-.586365 4.969166-4.12677.189285-3.780457-1.643509-4.78125-4.929268-5.34613-6.551186-1.12616-13.058846-2.549439-19.52618-4.094117-2.07248-.494934-5.311465-.316955-5.29263-3.465576.016838-2.814636 3.022656-2.675842 4.97057-3.183594 7.190468-1.874389 14.425964-3.576049 21.678093-5.350891-8.983772-18.39093-8.9688-18.441894 10.000977-34.178283-1.831486-1.989014-5.869545.408508-6.64708-3.000367-.54422-2.385986-.279922-4.968383-.28524-7.463256-.021828-10.246094.003559-10.334473-10.096096-11.762818-5.263592-.744385-10.591053-.98352-15.792004-2.247925-1.930593-.469421-3.609901-1.045776-3.854038-3.240417-.286547-2.575989 1.999857-2.820923 3.605598-3.377197 3.298123-1.142456 6.683541-2.032959 10.443795-3.105957m34.37492 66.241638c5.68679-.171448 10.813881-1.79187 12.920929-7.55127 2.143455-5.85907-.348816-10.692077-4.848122-14.639892-3.088455-2.709961-6.116287-5.489136-9.336472-8.385926-3.618484 3.791443-6.96125 7.242066-10.232338 10.759278-.783996.843017-1.395416 1.869812-1.974109 2.876526-2.826977 4.917785-1.684208 10.962402 2.644802 14.374572 2.942833 2.31958 6.406418 2.568299 10.82531 2.566712z"/><path d="m22.884491 318.989075c8.479332-10.186463 18.927189-16.688172 31.266045-20.220429 4.753894-1.360901 5.320922-3.035827 4.565799-11.192627-.410785-4.437256-3.567253-3.138946-5.934757-3.202972-6.478474-.175171-12.989361.333404-19.292839-1.833099-7.809574-2.684144-11.561209-7.365387-11.742811-14.910065-.18619-7.735199 3.539402-13.069184 10.95347-16.186478 4.590302-1.930023 9.453224-2.104553 14.223885-2.294205 8.484172-.337295 16.992439-.021606 25.48933-.107559 3.654785-.036957 4.941696 1.585953 4.915298 5.166138-.111786 15.162613-.160301 30.327896.022553 45.48912.053291 4.41919-1.612198 5.963318-5.896767 5.659882-11.478416-.812866-21.460407 3.471588-32.10881 9.901123 6.506435 1.089935 11.92577 1.967255 17.333824 2.909332 16.699921 2.909211 32.1698 9.616089 47.890739 15.547181 3.427536 1.29309 6.887329 2.502441 10.298874 3.835815 9.407631 3.676758 18.97683 4.703186 28.816948 1.948273 1.118225-.31308 2.27182-.599366 3.423401-.672882 2.360169-.150666 5.014557-.27475 5.868256 2.52359.821396 2.692443-1.573929 3.849334-3.442261 4.815063-9.321747 4.818237-18.729095 9.470886-28.052094 14.286774-2.521751 1.302612-4.39466.321441-6.451065-.989075-10.67279-6.801453-21.243171-13.770782-32.900032-18.880096-18.754161-8.220093-38.299915-13.318604-58.677099-15.271241-.961496-.092102-1.903288-.389831-2.776398-.575286-.995878-2.601532 1.101347-3.794098 2.206511-5.746277m35.74324-44.041718c.01738-2.990814.050419-5.981598.049363-8.972412-.004056-11.467987-.010621-11.497116-11.560647-10.514511-3.956905.336624-7.487327 1.492325-9.358356 5.512894-2.449211 5.26297-1.535355 11.756408 2.165031 14.734161 3.617119 2.910706 15.222474 2.97287 18.704609-.760132z"/><path d="m235.011078 13.549014c.131332 13.762319.123947 27.084508.328003 40.403455.057007 3.720863-.990387 5.469669-5.060089 5.391453-12.103012-.232617-10.486512.917167-10.566346-10.33569-.081527-11.489662.126877-22.982939-.082077-34.469352-.082183-4.517632 1.846467-6.245725 5.980378-5.434054 3.340713.655932 7.667205-.646658 9.400131 4.444188z" fill="#d2691e"/><path d="m248.915573 777.185059c-4.05336-2.242066-8.256943-3.459473-12.344482-6.790711 7.694122-4.237793 15.003921-7.89093 22.655166-10.870422.582459-.226868 1.383667-.276856 1.962433-.070496 8.221039 2.93219 16.117493 6.555969 24.724243 11.26062-8.663147 4.578308-16.456024 8.65918-24.797027 11.08844-4.179993 1.217468-7.877945-2.917907-12.200333-4.617431z"/><path d="m208.182739 650.873352c-3.924408 7.863892-7.438186 8.36499-13.028595 2.402649-1.81282-1.933411-4.064773-3.451904-5.906585-5.362-2.590287-2.68634-1.72313-6.087219 1.633606-7.013427 5.726577-1.5802 15.3871 3.761596 17.301574 9.972778z"/></svg>