<svg enable-background="new 0 0 752 1476" viewBox="0 0 752 1476" xmlns="http://www.w3.org/2000/svg"><path d="m1 577c0-192.311829 0-384.123657 0-575.967739h751.925537v1475.810512c-250.592132 0-501.258819 0-751.925537 0 0-299.743652 0-599.543212 0-899.842773m367.042419-47.027039v186.501099c-16.301452 0-31.97351-.454346-47.605896.138184-13.435607.509277-26.943512 1.474792-40.205169 3.585205-15.125336 2.407043-29.133179 8.355224-40.516007 19.006958-17.382507 16.265991-20.320572 37.063598-17.267318 59.275818 2.536895 18.455932 12.646408 31.837463 29.164856 40.347351 15.208099 7.834839 31.620819 11.410705 48.509765 12.046631 20.80249.783203 41.641754.590881 62.46518.815429 1.775909.019165 3.552246.002564 5.359893.002564v50.343628c-10.3013 0-20.298126-.426941-30.246307.087463-21.820435 1.128296-43.477966 3.500061-64.018036 11.740295-22.284973 8.940186-40.892349 26.196045-36.668213 56.947937 2.133393 15.531128 9.317917 27.868042 22.933136 36.134949 16.637055 10.101807 34.97992 13.166382 53.737915 13.905762-1.419342.300171-2.828888.661377-4.259643.890625-10.47641 1.678528-21.233979 2.34552-31.378571 5.19696-20.864899 5.864624-36.352096 17.95752-40.479553 40.750367-2.927841 16.168212-.672211 31.085937 11.066009 43.662353 10.303376 11.039063 23.594391 16.583984 37.626221 20.555664 26.677979 7.551148 54.116882 8.782471 81.878937 9.986572v46.882447c-41.991486 4.367798-83.686096 8.185424-120.192368 32.337768 2.694641 3.202393 4.818863 6.233277 7.478379 8.683106 1.42041 1.308349 3.828094 2.392822 5.681183 2.241699 9.783172-.79773 19.511566-2.27356 29.295867-3.048462 27.885376-2.208618 55.535981.444824 83.206849 3.847778 40.948669 5.035889 80.332 15.671997 117.97882 32.356324 11.779267 5.220336 22.744538 12.346923 33.820343 19.035034 2.673401 1.61438 4.304871 4.954101 6.931885 8.123413-2.044739.460815-2.652771.699097-3.268616.721557-8.657898.315308-17.316284.619629-25.975647.890992-41.356781 1.296508-82.437896 4.924194-122.686401 15.108642-36.912567 9.340454-71.838501 22.981079-102.677765 46.13147-8.128509 6.101929-9.876251 14.578613-13.900909 23.067505 1.655273-.084473 2.474579-.111206 3.291626-.170166 24.335144-1.751343 48.684509-1.984986 72.773742 2.215454 37.898102 6.60852 74.110688 19.039185 109.257081 34.3396 30.506378 13.280761 60.45285 27.844238 90.735534 41.646118 4.488831 2.045898 9.391602 3.389892 14.24231 4.366089 3.444092.693115 6.422851-.855835 8.188843-4.34668 1.698791-3.358032.989929-6.165405-1.471314-8.615601-3.417908-3.402588-6.766418-6.932617-10.532898-9.918213-49.364349-39.130371-103.427215-70.26416-161.474548-94.583984-1.416718-.593628-2.823578-1.210449-4.972565-2.133057 1.405945-.578369 1.958191-.859985 2.542084-1.037963 32.62558-9.936158 66.288452-12.983033 100.094452-13.815918 28.455108-.701172 56.951446.397461 85.429779.420776 6.390075.005249 13.628845.273804 17.633728-6.008545 3.992004-6.261963.462097-12.370239-2.762879-17.755005-8.458007-14.122681-19.348693-26.349975-31.893432-36.878418-21.331238-17.90271-45.618622-31.110962-71.00763-42.225342-15.327911-6.709961-31.04367-12.533935-46.75592-18.82434 0-21.071045 0-42.491944 0-63.951294 4.122009-.373902 7.942322-.668946 11.750915-1.074097 27.93924-2.971924 55.451539-7.849976 80.648072-21.053955 38.508484-20.179932 61.39209-50.566651 61.633606-95.638428.134094-25.026916-7.48407-47.352661-23.449951-66.332092-25.749695-30.610108-60.684082-44.50885-98.79889-51.810669-10.386291-1.989746-20.965271-2.973938-31.837555-4.472168 0-251.911255 0-503.597351 0-755.61406 11.700348 0 23.173371.218873 34.634644-.054534 14.854889-.354325 29.557617-1.574234 43.227997-8.436738 16.397949-8.23175 22.406433-22.536972 16.150879-39.861434-5.03888-13.95514-14.155091-25.334671-24.575043-35.422295-14.349731-13.89209-29.483612-26.9748-44.299561-40.384379-7.296539-6.603924-8.186859-6.625643-16.194335-.772945-.537507.392887-1.073212.789421-1.593445 1.204657-5.587189 4.459325-5.466004 5.342251-1.006592 11.121921 5.992004 7.766007 11.954834 15.594307 17.311737 23.799641 5.606262 8.587372 9.363678 17.987205 9.370697 28.556091.005341 8.047241-2.95697 12.286904-10.760193 14.598648-2.382538.705849-4.831482 1.543854-7.274689 1.631226-16.962921.606628-33.939972 1.612045-50.897918 1.387512-30.644837-.405754-60.839051 2.654793-90.642578 9.676148-21.194794 4.99324-42.366272 10.091712-62.460099 19.507522.944718 3.414902 1.572159 6.864136 2.907059 10.013489.674896 1.592285 2.49968 3.588394 4.024536 3.797439 29.844788 4.091431 59.710175 8.040589 89.600708 11.784852 7.701233.964736 15.502228 1.133041 23.286011 1.669174v48.552688c-41.394592 4.372406-81.649933 12.785034-120.533814 28.127167.820069 2.580505 1.90152 5.023926 2.341217 7.577805.782242 4.543518 3.129426 6.629898 7.802735 7.271881 22.243072 3.055679 44.413269 6.65509 66.67514 9.556274 14.482086 1.887329 29.076966 2.909088 44.174713 4.372254 0 14.771301 0 29.22995-.173339 44.587341v8.924835c-2.332886 0-4.12027-.000061-5.907654 0-14.663208.000519-29.352478-.54303-43.982056.158722-13.908081.667175-28.056 1.2836-41.566345 4.303131-31.984696 7.148529-53.673111 25.469513-55.289383 60.137421-1.281983 27.497986 8.344116 48.467529 35.120346 60.122345 16.78241 7.30484 34.509582 9.78836 52.530151 10.272918 17.816986.479096 35.655091.173249 53.483918.210724 1.775116.003723 3.550232.00055 5.346649.00055.207336 3.117675.37207 5.594726.374176 8.98703-.139496 12.968902-.278992 25.937805-1.215058 38.939361-12.793151 2.937714-25.61734 5.747437-38.373199 8.83902-28.896515 7.003632-57.874817 13.713226-86.598236 21.373322-21.755402 5.801818-42.704834 13.992919-61.121964 27.404174-21.168792 15.4151-33.83638 34.995728-29.844741 62.541687 2.53833 17.516846 11.495986 30.610047 26.815597 39.240174 20.641098 11.628051 43.244629 13.515197 66.28035 12.549621 16.556762-.69403 32.516235-3.622802 47.557129-11.412658 23.206054-12.01886 29.872467-36.507935 24.886047-59.202393-3.196197-14.546631-11.007263-26.740601-22.250641-36.46167-5.716583-4.942566-12.122192-9.088196-18.690552-13.944641 1.572602-.684692 2.968201-1.51178 4.477112-1.916077 19.897248-5.331115 39.753327-10.833374 59.745301-15.785827 9.156768-2.268433 18.588623-3.426209 28.073577-4.172303z" fill="#fff"/><path d="m314.018005 1020.137695c-19.089782-.024841-37.432647-3.089416-54.069702-13.191223-13.615219-8.266907-20.799743-20.603821-22.933136-36.134949-4.224136-30.751892 14.38324-48.007751 36.668213-56.947937 20.54007-8.240234 42.197601-10.611999 64.018036-11.740295 9.948181-.514404 19.945007-.087463 30.246307-.087463 0-17.435974 0-33.629273 0-50.343628-1.807647 0-3.583984.016601-5.359893-.002564-20.823426-.224548-41.66269-.032226-62.46518-.815429-16.888946-.635926-33.301666-4.211792-48.509765-12.046631-16.518448-8.509888-26.627961-21.891419-29.164856-40.347351-3.053254-22.21222-.115189-43.009827 17.267318-59.275818 11.382828-10.651734 25.390671-16.599915 40.516007-19.006958 13.261657-2.110413 26.769562-3.075928 40.205169-3.585205 15.632386-.59253 31.304444-.138184 47.605896-.138184 0-62.333801 0-124.41748-.027771-187.426086-.062316-10.003357-.096893-19.081726-.131439-28.160096.139496-12.968902.278992-25.937805.756439-39.69223.367127-50.684326.400025-100.583099.39621-150.481903-.000091-.916382-.437347-1.832672-.670624-2.749023 0-14.458618 0-28.917267 0-43.688568-15.097747-1.463166-29.692627-2.484925-44.174713-4.372254-22.261871-2.901184-44.432068-6.500595-66.67514-9.556274-4.673309-.641983-7.020493-2.728363-7.802735-7.271881-.439697-2.553879-1.521148-4.9973-2.341217-7.577805 38.883881-15.342133 79.139222-23.754761 120.533814-28.127167 0-16.247223 0-32.166671 0-48.552688-7.783783-.536133-15.584778-.704438-23.286011-1.669174-29.890533-3.744263-59.75592-7.693421-89.600708-11.784852-1.524856-.209045-3.34964-2.205154-4.024536-3.797439-1.3349-3.149353-1.962341-6.598587-2.907059-10.013489 20.093827-9.41581 41.265305-14.514282 62.460099-19.507522 29.803527-7.021355 59.997741-10.081902 90.642578-9.676148 16.957946.224533 33.934997-.780884 50.897918-1.387512 2.443207-.087372 4.892151-.925377 7.274689-1.631226 7.803223-2.311744 10.765534-6.551407 10.760193-14.598648-.007019-10.568886-3.764435-19.968719-9.370697-28.556091-5.356903-8.205334-11.319733-16.033634-17.311737-23.799641-4.459412-5.77967-4.580597-6.662596 1.006592-11.121921.520233-.415236 1.055938-.81177 1.593445-1.204657 8.007476-5.852698 8.897796-5.830979 16.194335.772945 14.815949 13.409579 29.94983 26.492289 44.299561 40.384379 10.419952 10.087624 19.536163 21.467155 24.575043 35.422295 6.255554 17.324462.24707 31.629684-16.150879 39.861434-13.67038 6.862504-28.373108 8.082413-43.227997 8.436738-11.461273.273407-22.934296.054534-34.634644.054534v755.61406c10.872284 1.49823 21.451264 2.482422 31.837555 4.472168 38.114808 7.301819 73.049195 21.200561 98.79889 51.810669 15.965881 18.979431 23.584045 41.305176 23.449951 66.332092-.241516 45.071777-23.125122 75.458496-61.633606 95.638428-25.196533 13.203979-52.708832 18.082031-80.648072 21.053955-3.808593.405151-7.628906.700195-11.750915 1.074097v63.951294c15.71225 6.290405 31.428009 12.114379 46.75592 18.82434 25.389008 11.11438 49.676392 24.322632 71.00763 42.225342 12.544739 10.528443 23.435425 22.755737 31.893432 36.878418 3.224976 5.384766 6.754883 11.493042 2.762879 17.755005-4.004883 6.282349-11.243653 6.013794-17.633728 6.008545-28.478333-.023315-56.974671-1.121948-85.429779-.420776-33.806.832885-67.468872 3.87976-100.094452 13.815918-.583893.177978-1.136139.459594-2.542084 1.037963 2.148987.922608 3.555847 1.539429 4.972565 2.133057 58.047333 24.319824 112.110199 55.453613 161.474548 94.583984 3.76648 2.985596 7.11499 6.515625 10.532898 9.918213 2.461243 2.450196 3.170105 5.257569 1.471314 8.615601-1.765992 3.490845-4.744751 5.039795-8.188843 4.34668-4.850708-.976197-9.753479-2.320191-14.24231-4.366089-30.282684-13.80188-60.229156-28.365357-90.735534-41.646118-35.146393-15.300415-71.358979-27.73108-109.257081-34.3396-24.089233-4.20044-48.438598-3.966797-72.773742-2.215454-.817047.05896-1.636353.085693-3.291626.170166 4.024658-8.488892 5.7724-16.965576 13.900909-23.067505 30.839264-23.150391 65.765198-36.791016 102.677765-46.13147 40.248505-10.184448 81.32962-13.812134 122.686401-15.108642 8.659363-.271363 17.317749-.575684 25.975647-.890992.615845-.02246 1.223877-.260742 3.268616-.721557-2.627014-3.169312-4.258484-6.509033-6.931885-8.123413-11.075805-6.688111-22.041076-13.814698-33.820343-19.035034-37.64682-16.684327-77.030151-27.320435-117.97882-32.356324-27.670868-3.402954-55.321473-6.056396-83.206849-3.847778-9.784301.774902-19.512695 2.250732-29.295867 3.048462-1.853089.151123-4.260773-.93335-5.681183-2.241699-2.659516-2.449829-4.783738-5.480713-7.478379-8.683106 36.506272-24.152344 78.200882-27.96997 120.192368-32.337768 0-15.651001 0-31.266724-.079743-47.801514-.109924-8.643311-.140106-16.367554-.059875-24.541138.037842-24.113647-.034698-47.778198-.066284-71.909179.040985-8.3844.040985-16.302246.040985-24.387696-18.419647 0-36.188171 0-53.956696 0m210.109009 37.437622c7.83844-19.471801 9.496399-39.319946 3.225281-59.514099-8.208435-26.432617-25.8797-44.9104-49.774384-57.789673-12.611511-6.797607-26.177002-11.069152-40.744293-13.447021 0 7.167602.052643 13.974243-.01065 20.779785-.145508 15.643677-.087464 31.295899-.630738 46.926636-.293762 8.451416-4.374939 15.418884-11.761902 19.737915-4.819519 2.817993-10.172851 4.723022-15.577331 7.168274.667084.213379 1.201599.449829 1.760773.553772 16.13211 2.999573 25.082 11.943298 25.808044 28.202698.838592 18.778808.334076 37.617553.410858 56.430297.007202 1.763306.000946 3.526734.000946 6.169556 10.116547-2.467163 19.597046-4.269409 28.755554-7.109985 25.693146-7.968872 45.91391-22.911866 58.537842-48.108155m-179.627075-226.722351h23.388c0-31.380005 0-62.254394 0-92.710632-20.484954 0-40.601165-.693481-60.635772.284607-10.440674.509705-18.825104 6.63623-24.575989 15.960388-7.951752 12.892639-9.307953 27.06665-7.313812 41.370178 2.812927 20.176758 14.808044 33.18982 36.205505 34.42865 10.621307.61499 21.286652.468689 32.932068.666809m-30.943359 100.144593c-20.69101 5.588012-26.436097 20.672607-23.928162 38.831543 1.334473 9.662048 6.583984 16.49176 15.791687 20.107605 20.211029 7.937133 41.429871 6.26361 62.480896 7.151855 0-24.29303 0-48.008362 0-72.122437-18.18222.722168-36.143158.602784-54.344421 6.031434z" fill="#010101"/><path d="m367.484924 500.904205c.432831 9.062043.467408 18.140412.440827 27.686127-9.368286 2.128723-18.800141 3.286499-27.956909 5.554932-19.991974 4.952453-39.848053 10.454712-59.745301 15.785827-1.508911.404297-2.90451 1.231385-4.477112 1.916077 6.56836 4.856445 12.973969 9.002075 18.690552 13.944641 11.243378 9.721069 19.054444 21.915039 22.250641 36.46167 4.98642 22.694458-1.679993 47.183533-24.886047 59.202393-15.040894 7.789856-31.000367 10.718628-47.557129 11.412658-23.035721.965576-45.639252-.92157-66.28035-12.549621-15.319611-8.630127-24.277267-21.723328-26.815597-39.240174-3.991639-27.545959 8.675949-47.126587 29.844741-62.541687 18.41713-13.411255 39.366562-21.602356 61.121964-27.404174 28.723419-7.660096 57.701721-14.36969 86.598236-21.373322 12.755859-3.091583 25.580048-5.901306 38.771484-8.855347m-169.426239 106.003388c-.176666 1.654175-.447693 3.304504-.515243 4.963135-.58873 14.459655 4.473114 28.074096 19.58435 34.957336 17.994751 8.196533 50.298752 2.088867 63.843827-12.307434 9.227874-9.807739 11.105285-20.979736 5.756408-33.124939-8.259979-18.755249-23.602447-29.476379-42.335586-36.030579-1.279923-.447815-3.064285-.455688-4.285416.080323-18.991257 8.337463-35.014419 19.791015-42.04834 41.462158z" fill="#c57035"/><path d="m368.278564 308.414124c.319947.466949.757203 1.383239.757294 2.299621.003815 49.898804-.029083 99.797577-.314911 150.024292-.421356-2.14917-.58609-4.626221-.793426-7.743896-1.796417 0-3.571533.003173-5.346649-.00055-17.828827-.037475-35.666932.268372-53.483918-.210724-18.020569-.484558-35.747741-2.968078-52.530151-10.272918-26.77623-11.654816-36.402329-32.624359-35.120346-60.122345 1.616272-34.667908 23.304687-52.988892 55.289383-60.137421 13.510345-3.019531 27.658264-3.635956 41.566345-4.303131 14.629578-.701752 29.318848-.158203 43.982056-.158722 1.787384-.000061 3.574768 0 5.907654 0 0-3.341309 0-6.133057.086669-9.374206m-36.777984 123.582336h36.306854c0-31.343109 0-62.075836 0-92.852234-19.813476 0-39.294311-.641571-58.70517.246246-11.226135.513459-20.379486 6.411774-26.49942 16.467743-7.870117 12.931855-9.134918 27.107148-7.12088 41.439759 2.4599 17.50589 11.835755 30.055145 30.136109 33.31427 8.118957 1.445923 16.578125.981506 25.882507 1.384216z" fill="#c57035"/><path d="m367.889587 1116.883911c.030182 7.724243.060364 15.448486.047364 23.636353-27.559388.17041-54.998291-1.060913-81.67627-8.612061-14.03183-3.97168-27.322845-9.516601-37.626221-20.555664-11.73822-12.576416-13.99385-27.494141-11.066009-43.662353 4.127457-22.792847 19.614654-34.885743 40.479553-40.750367 10.144592-2.85144 20.902161-3.518432 31.378571-5.19696 1.430755-.229248 2.840301-.590454 4.425537-1.247864 17.934418-.3573 35.702942-.3573 54.122589-.3573 0 8.08545 0 16.003296-.50119 24.393311-6.9888.571045-13.522614.213745-19.954132.8656-12.529023 1.269898-25.134247 2.438965-37.455262 4.90979-10.46875 2.099488-17.929138 8.806275-19.991577 19.851807-2.288818 12.257813-1.471069 23.951172 8.538758 33.101685 6.262756 5.725097 14.140838 8.442749 22.183197 9.434448 15.632904 1.927368 31.389648 2.850342 47.095092 4.189575z" fill="#c47034"/><path d="m523.986938 1057.925781c-12.483856 24.845825-32.70462 39.788819-58.397766 47.757691-9.158508 2.840576-18.639007 4.642822-28.755554 7.109985 0-2.642822.006256-4.40625-.000946-6.169556-.076782-18.812744.427734-37.651489-.410858-56.430297-.726044-16.2594-9.675934-25.203125-25.808044-28.202698-.559174-.103943-1.093689-.340393-1.760773-.553772 5.40448-2.445252 10.757812-4.350281 15.577331-7.168274 7.386963-4.319031 11.46814-11.286499 11.761902-19.737915.543274-15.630737.48523-31.282959.630738-46.926636.063293-6.805542.01065-13.612183.01065-20.779785 14.567291 2.377869 28.132782 6.649414 40.744293 13.447021 23.894684 12.879273 41.565949 31.357056 49.774384 57.789673 6.271118 20.194153 4.613159 40.042298-3.365357 59.864563z" fill="#fefefe"/><path d="m343.999939 830.852966c-11.145416-.19812-21.810761-.051819-32.432068-.666809-21.397461-1.23883-33.392578-14.251892-36.205505-34.42865-1.994141-14.303528-.63794-28.477539 7.313812-41.370178 5.750885-9.324158 14.135315-15.450683 24.575989-15.960388 20.034607-.978088 40.150818-.284607 60.635772-.284607v92.710632c-7.829559 0-15.608764 0-23.888 0z" fill="#fefefe"/><path d="m368 1116.43457c-15.815857-.889892-31.572601-1.812866-47.205505-3.740234-8.042359-.991699-15.920441-3.709351-22.183197-9.434448-10.009827-9.150513-10.827576-20.843872-8.538758-33.101685 2.062439-11.045532 9.522827-17.752319 19.991577-19.851807 12.321015-2.470825 24.926239-3.639892 37.455262-4.90979 6.431518-.651855 12.965332-.294555 19.913147-.399047.532776 23.658813.605316 47.323364.567474 71.437011z" fill="#fffefe"/><path d="m313.953735 930.919495c17.804108-5.350586 35.765046-5.231202 53.947266-5.95337v72.122437c-21.051025-.888245-42.269867.785278-62.480896-7.151855-9.207703-3.615845-14.457214-10.445557-15.791687-20.107605-2.507935-18.158936 3.237152-33.243531 24.325317-38.909607z" fill="#fefefe"/><path d="m198.155685 606.50647c6.936921-21.27002 22.960083-32.723572 41.95134-41.061035 1.221131-.536011 3.005493-.528138 4.285416-.080323 18.733139 6.5542 34.075607 17.27533 42.335586 36.030579 5.348877 12.145203 3.471466 23.3172-5.756408 33.124939-13.545075 14.396301-45.849076 20.503967-63.843827 12.307434-15.111236-6.88324-20.17308-20.497681-19.58435-34.957336.06755-1.658631.338577-3.30896.612243-5.364258z" fill="#fffefe"/><path d="m331.000763 431.99646c-8.804565-.40271-17.263733.061707-25.38269-1.384216-18.300354-3.259125-27.676209-15.80838-30.136109-33.31427-2.014038-14.332611-.749237-28.507904 7.12088-41.439759 6.119934-10.055969 15.273285-15.954284 26.49942-16.467743 19.410859-.887817 38.891694-.246246 58.70517-.246246v92.852234c-12.098419 0-24.202637 0-36.806671 0z" fill="#fff"/></svg>