<svg enable-background="new 0 0 630 814" viewBox="0 0 630 814" xmlns="http://www.w3.org/2000/svg"><path d="m316 815c-105.333328 0-210.166664 0-315 0 0-271.333313 0-542.666656 0-814h630v814c-104.833313 0-209.666656 0-315 0m-79.699081-527.995636v26.111145c-9.938446 2.35556-19.482895 4.555328-28.995881 6.883667-34.194763 8.369263-68.526306 16.233459-102.516189 25.367523-23.383507 6.283814-45.400414 16.075897-64.016869 32.25058-21.819711 18.957794-28.565401 46.795685-16.863498 72.136871 7.15361 15.491639 20.328178 24.40918 36.065631 29.333161 29.875405 9.347564 60.007096 9.305877 89.708275-.522553 14.224533-4.707 26.411713-13.104675 32.155075-27.867248 9.367646-24.078339 4.042466-45.972534-12.329788-64.943909-7.091553-8.217407-16.452286-14.47644-25.315857-22.082916 29.522949-9.643433 60.149506-16.825592 91.869858-22.800751 0 2.457123.000015 4.067749 0 5.678375-.000305 47.809693-.007431 95.619355.008545 143.429047.001785 5.323852.134872 10.647675.030868 16.899902v32.695069c-70.720626 9.990722-139.108459 66.871582-155.017372 103.921569 1.528458.188965 2.950837.40387 4.380852.536011 44.649292 4.123718 88.7892 11.077759 132.108795 22.954651 60.638855 16.625305 119.148896 38.463745 173.186463 71.026978 26.808715 16.155029 53.029449 33.284851 79.600616 49.838134 1.483399.924073 4.163574 1.454102 5.573578.746521 38.851379-19.497924 77.653687-39.095398 116.332947-58.931945 5.262939-2.699097 9.920715-6.631836 14.692261-10.214905 2.85028-2.14032 3.191467-5.216004 2.257202-8.581299-1.430542-5.152832-5.086548-8.312805-12.980042-7.662598-12.868347 1.060059-25.859375 2.495667-38.381531 5.507325-26.942016 6.479736-53.198089 4.788818-79.101257-4.250367-29.070557-10.14447-58.081421-20.467163-87.009979-31.009338-31.432038-11.454529-62.417603-24.23407-94.187622-34.634155-34.968903-11.447205-70.963227-19.339905-107.540528-23.911011-14.073684-1.75885-28.311737-2.202515-42.759826-3.266419 22.212616-16.974243 47.588485-28.314514 74.066574-38.083862 27.229721-10.046692 55.375595-7.3703 83.107651-8.060852 0-20.301208 0-39.942566.214691-60.497528.00888-53.232117.017669-106.464233.027099-159.69635.000245-1.33075.003907-2.66153.011902-3.992249.110779-18.434875.222595-36.869781.540131-56.224823 0-47.212555 0-94.425109 0-141.930389 11.42688 0 22.442505.567886 33.372742-.155441 11.549774-.764328 23.150116-2.112305 34.479766-4.423798 8.831513-1.801788 16.953644-6.195999 22.707032-13.554474 8.556884-10.944053 7.079345-22.802604 1.711639-34.382477-6.001923-12.948173-14.9646-23.939712-25.308136-33.626365-14.078003-13.183937-28.612549-25.879776-42.922607-38.81666-5.952637-5.381407-6.808808-5.491435-13.458954-1.047743-1.097809.733555-2.250977 1.412836-3.239899 2.276033-5.799683 5.062333-5.714233 5.611552-.73526 11.495371 9.788025 11.566864 19.216766 23.623776 23.807312 38.182316 6.816162 21.617035 1.235413 29.189629-20.305115 30.765785-15.580841 1.140061-31.298004 1.360718-46.917114.850273-41.602173-1.359611-81.795578 6.523827-121.518188 17.607865-10.474167 2.922668-20.591919 7.122619-31.037201 10.79364 1.081474 3.853897 2.150581 6.675583 2.623527 9.593887.621079 3.832337 2.719887 4.980912 6.399101 5.387238 7.584671.837692 15.078537 2.476547 22.657273 3.392883 24.410858 2.951492 48.839996 5.753571 73.270141 8.542603 5.057175.577331 10.149079.850494 15.120652 1.255356v44.836181c-41.486283 4.549912-82.000092 12.608048-120.693787 28.402237.444786 1.700791.885468 2.805237 1.007088 3.943771.885742 8.291535 6.020805 11.492402 13.786567 12.451416 26.066208 3.218949 52.08841 6.79303 78.149506 10.055207 9.189026 1.150207 18.441513 1.793487 28.277161 2.726257 0 9.114502 0 17.749573-.156021 27.297577m314.936935 136.078644c-.007385-1.236572-.422729-2.657471.039978-3.681641 5.459595-12.084808 4.070679-23.954559-2.494873-34.81958-15.484131-25.624054-48.113495-33.630585-74.147461-18.765442-20.482117 11.69513-23.568329 33.062378-7.208466 50.09845 2.353547 2.450867 4.846406 4.767944 7.247803 7.120453-4.920105 1.251709-9.316589 2.038086-13.463592 3.521911-3.877991 1.387482-5.391144 4.675324-3.608033 8.480439 2.531464 5.402099 5.5943 10.553344 8.366547 15.845092 1.75647 3.352875 4.00119 3.462311 6.959045 1.145142-.482696-1.565826-.945434-3.142303-1.454132-4.703766-1.869018-5.737549-.815857-7.452148 5.110932-8.185058.987427-.122132 1.996673-.089295 2.99588-.090882 39.653198-.062835 79.306396-.12149 118.959595-.180176 2.665832-.003936 5.339904.129181 7.995605-.035919 4.166626-.259063 5.671143-2.64209 4.586853-6.702881-1.712952-6.415619-3.236145-12.883789-5.066223-19.26477-.404602-1.410614-1.754944-2.549927-2.6698-3.814209-.84375 1.306427-2.218933 2.527923-2.44342 3.933258-1.291382 8.082275-3.079468 9.954437-11.354309 10.069885-12.493592.174347-24.990784.090454-38.351929.029694m-85.090607-190.652359c-9.957855 3.1297-11.337585 6.014969-6.812744 15.167755 1.911469 3.866547 4.434876 7.425644 6.503113 11.220962 1.986237 3.644898 4.248596 3.411042 6.972046 1.119202-3.475098-12.567703-3.157684-12.96611 10.031402-12.968048 16.9982-.002502 33.996949.074982 50.994385-.036926 11.765564-.077469 20.201538-7.873505 20.092102-19.588349-.064026-6.84848-1.131225-13.992355-3.36145-20.445434-3.473022-10.048859-9.537414-18.717163-18.992798-24.300888-1.400696-.827164-3.855774-.748215-5.401428-.093308-.820129.347473-1.220825 2.923462-.959229 4.335709.601136 3.245575 1.516785 6.476303 2.728821 9.545578.544739 1.379303 1.893372 2.927276 3.238343 3.42717 10.41217 3.86998 14.50299 11.00003 12.010864 21.442581-1.545349 6.475448-5.263794 9.603653-11.962097 9.844726-3.995056.143784-8.003052-.048629-11.995545.129044-2.818908.125473-3.895386-.729095-4.479187-3.762589-1.628296-8.46112-3.238891-17.019958-6.014282-25.144729-4.573761-13.389542-13.376862-22.399429-28.403442-23.683197-11.485901-.981278-20.208985 5.087463-22.788819 16.275375-2.061249 8.938935 1.262818 16.732895 5.809235 24.071655 2.580871 4.165986 5.675995 8.013382 8.892273 12.495865-2.169098.283234-3.757569.490647-6.101563.947846m4.41391 319.335769c-10.237884 4.060364-16.166778 13.954346-13.015075 24.379273 2.210235 7.310913 6.490112 14.018005 10.059661 20.883484 1.140839 2.194275 2.967102 4.032226 4.681885 6.300537-3.293915.665771-5.756439 1.023193-8.139679 1.671936-6.759094 1.839722-8.683746 5.031921-6.051056 11.371338 2.024323 4.874451 5.058594 9.321533 7.494355 14.035889 1.758453 3.403442 3.923675 4.278259 7.195617 1.572509-.092804-.529541-.136505-1.1781-.322815-1.782715-3.088684-10.022461-2.196899-11.230102 8.374909-11.234924 17.647461-.007995 35.29544.069275 52.94223-.037842 11.771973-.071411 19.664612-7.83844 20.352478-19.511047.651489-11.054138-2.169617-21.287598-8.503052-30.131775-3.982971-5.56189-9.357483-10.17102-14.410034-14.883301-.924316-.861999-3.625061-.726928-4.903686.002869-.925171.528076-1.36847 2.892212-1.124146 4.278564.572266 3.246949 1.436218 6.501648 2.689636 9.544129.61084 1.482727 2.148133 3.130188 3.625427 3.620727 9.371521 3.111878 13.938843 10.587586 12.009461 20.224854-1.519104 7.587768-5.316956 10.833862-13.053284 11.037231-3.660461.096253-7.332824-.091858-10.984619.115845-3.037903.172791-4.146667-.746521-4.75708-4.007568-1.583191-8.458741-3.291809-16.982605-6.027679-25.118164-5.263184-15.650879-18.747071-26.867859-38.133454-22.331849z" fill="#fff"/><path d="m304.429871 505.912872v59.583893c-27.732056.690552-55.87793-1.98584-83.107651 8.060852-26.478089 9.769348-51.853958 21.109619-74.066574 38.083862 14.448089 1.063904 28.686142 1.507569 42.759826 3.266419 36.577301 4.571106 72.571625 12.463806 107.540528 23.911011 31.770019 10.400085 62.755584 23.179626 94.187622 34.634155 28.928558 10.542175 57.939422 20.864868 87.009979 31.009338 25.903168 9.039185 52.159241 10.730103 79.101257 4.250367 12.522156-3.011658 25.513184-4.447266 38.381531-5.507325 7.893494-.650207 11.5495 2.509766 12.980042 7.662598.934265 3.365295.593078 6.440979-2.257202 8.581299-4.771546 3.583069-9.429322 7.515808-14.692261 10.214905-38.67926 19.836547-77.481568 39.434021-116.332947 58.931945-1.410004.707581-4.090179.177552-5.573578-.746521-26.571167-16.553283-52.791901-33.683105-79.600616-49.838134-54.037567-32.563233-112.547608-54.401673-173.186463-71.026978-43.319595-11.876892-87.459503-18.830933-132.108795-22.954651-1.430015-.132141-2.852394-.347046-4.380852-.536011 15.908913-37.049987 84.296746-93.930847 155.017372-103.921569 0-10.813355 0-21.754212.53685-33.167115 22.955201-.47882 45.373566-.485565 67.791932-.49234z" fill="#c47034"/><path d="m304.537231 505.456055c-22.525726.463592-44.944091.470337-67.811218.484924-.52092-5.315948-.654007-10.639771-.655792-15.963623-.015976-47.809692-.00885-95.619354-.008545-143.429047.000015-1.610626 0-3.221252 0-5.678375-31.720352 5.975159-62.346909 13.157318-91.869858 22.800751 8.863571 7.606476 18.224304 13.865509 25.315857 22.082916 16.372254 18.971375 21.697434 40.86557 12.329788 64.943909-5.743362 14.762573-17.930542 23.160248-32.155075 27.867248-29.701179 9.82843-59.83287 9.870117-89.708275.522553-15.737453-4.923981-28.912021-13.841522-36.065631-29.333161-11.701903-25.341186-4.956213-53.179077 16.863498-72.136871 18.616455-16.174683 40.633362-25.966766 64.016869-32.25058 33.989883-9.134064 68.321426-16.99826 102.516189-25.367523 9.512986-2.328339 19.057435-4.528107 28.995881-6.883667 0-8.862518 0-17.486816.514679-26.57724 23.077163-.488159 45.639633-.510223 68.202102-.532288-.111542 18.434876-.223358 36.869782-.334137 55.304657-.007995 1.330719-.011657 2.661499-.011902 3.992249-.00943 53.232117-.018219 106.464233-.13443 160.153168m-237.223129-65.607636c4.66758 13.328491 14.538773 20.217133 28.053696 22.354706 16.231773 2.5672 31.476791-.44809 45.530441-8.934418 15.901734-9.602295 20.690872-23.641327 13.247421-40.490448-7.657959-17.334717-22.182403-27.209869-39.128059-34.186218-3.530113-1.453308-6.644974-1.43576-9.861168.557587-6.47586 4.013702-13.496445 7.335907-19.387169 12.069732-15.224861 12.234589-24.362057 27.243439-18.455162 48.629059z" fill="#010101"/><path d="m305.120697 285.545898c-22.665466.482148-45.227936.504212-68.227081.535889-.436676-8.625427-.436676-17.260498-.436676-26.375-9.835648-.93277-19.088135-1.57605-28.277161-2.726257-26.061096-3.262177-52.083298-6.836258-78.149506-10.055207-7.765762-.959014-12.900825-4.159881-13.786567-12.451416-.12162-1.138534-.562302-2.24298-1.007088-3.943771 38.693695-15.794189 79.207504-23.852325 120.693787-28.402237 0-15.071274 0-29.699814 0-44.836181-4.971573-.404862-10.063477-.678025-15.120652-1.255356-24.430145-2.789032-48.859283-5.591111-73.270141-8.542603-7.578736-.916336-15.072602-2.555191-22.657273-3.392883-3.679214-.406326-5.778022-1.554901-6.399101-5.387238-.472946-2.918304-1.542053-5.73999-2.623527-9.593887 10.445282-3.671021 20.563034-7.870972 31.037201-10.79364 39.72261-11.084038 79.916015-18.967476 121.518188-17.607865 15.61911.510445 31.336273.289788 46.917114-.850273 21.540528-1.576156 27.121277-9.14875 20.305115-30.765785-4.590546-14.55854-14.019287-26.615452-23.807312-38.182316-4.978973-5.883819-5.064423-6.433038.73526-11.495371.988922-.863197 2.14209-1.542478 3.239899-2.276033 6.650146-4.443692 7.506317-4.333664 13.458954 1.047743 14.310058 12.936884 28.844604 25.632723 42.922607 38.81666 10.343536 9.686653 19.306213 20.678192 25.308136 33.626365 5.367706 11.579873 6.845245 23.438424-1.711639 34.382477-5.753388 7.358475-13.875519 11.752686-22.707032 13.554474-11.32965 2.311493-22.929992 3.65947-34.479766 4.423798-10.930237.723327-21.945862.155441-33.372742.155441 0 47.50528 0 94.717834-.102997 142.390472z" fill="#c46f34"/><path d="m551.670593 423.126343c12.928406.017425 25.425598.101318 37.91919-.073029 8.274841-.115448 10.062927-1.98761 11.354309-10.069885.224487-1.405335 1.59967-2.626831 2.44342-3.933258.914856 1.264282 2.265198 2.403595 2.6698 3.814209 1.830078 6.380981 3.353271 12.849151 5.066223 19.26477 1.08429 4.060791-.420227 6.443818-4.586853 6.702881-2.655701.1651-5.329773.031983-7.995605.035919-39.653199.058686-79.306397.117341-118.959595.180176-.999207.001587-2.008453-.03125-2.99588.090882-5.926789.73291-6.97995 2.447509-5.110932 8.185058.508698 1.561463.971436 3.13794 1.454132 4.703766-2.957855 2.317169-5.202575 2.207733-6.959045-1.145142-2.772247-5.291748-5.835083-10.442993-8.366547-15.845092-1.783111-3.805115-.269958-7.092957 3.608033-8.480439 4.147003-1.483825 8.543487-2.270202 13.463592-3.521911-2.401397-2.352509-4.894256-4.669586-7.247803-7.120453-16.359863-17.036072-13.273651-38.40332 7.208466-50.09845 26.033966-14.865143 58.66333-6.858612 74.147461 18.765442 6.565552 10.865021 7.954468 22.734772 2.494873 34.81958-.462707 1.02417-.047363 2.445069.392761 3.724976m-10.612243-11.815155c4.18872-13.476563.210876-24.937104-11.099732-31.979492-15.047973-9.369385-40.461304-6.475068-52.899902 6.02478-7.472717 7.509521-8.454315 15.405975-2.63147 24.286133 2.357178 3.594848 5.034393 7.114715 8.170837 10.014465 1.957154 1.809479 5.014679 3.288727 7.630097 3.376526 10.972229.368347 22.004181-.424042 32.936127.334442 9.233154.640656 14.373535-3.493866 17.894043-12.056854z" fill="#adadad"/><path d="m466.525024 232.305756c1.966217-.332306 3.554688-.539719 5.723786-.822953-3.216278-4.482483-6.311402-8.329879-8.892273-12.495865-4.546417-7.33876-7.870484-15.13272-5.809235-24.071655 2.579834-11.187912 11.302918-17.256653 22.788819-16.275375 15.02658 1.283768 23.829681 10.293655 28.403442 23.683197 2.775391 8.124771 4.385986 16.683609 6.014282 25.144729.583801 3.033494 1.660279 3.888062 4.479187 3.762589 3.992493-.177673 8.000489.01474 11.995545-.129044 6.698303-.241073 10.416748-3.369278 11.962097-9.844726 2.492126-10.442551-1.598694-17.572601-12.010864-21.442581-1.344971-.499894-2.693604-2.047867-3.238343-3.42717-1.212036-3.069275-2.127685-6.300003-2.728821-9.545578-.261596-1.412247.1391-3.988236.959229-4.335709 1.545654-.654907 4.000732-.733856 5.401428.093308 9.455384 5.583725 15.519776 14.252029 18.992798 24.300888 2.230225 6.453079 3.297424 13.596954 3.36145 20.445434.109436 11.714844-8.326538 19.51088-20.092102 19.588349-16.997436.111908-33.996185.034424-50.994385.036926-13.189086.001938-13.5065.400345-10.031402 12.968048-2.72345 2.29184-4.985809 2.525696-6.972046-1.119202-2.068237-3.795318-4.591644-7.354415-6.503113-11.220962-4.524841-9.152786-3.145111-12.038055 7.190521-15.292648m36.493927-19.673264c-2.844757-9.068771-8.337341-15.329895-18.067718-17.182846-8.827667-1.681061-15.326965 4.543015-14.0849 13.395584 1.103729 7.866699 5.047455 14.307266 9.872742 20.320725.67749.844345 1.825287 1.837417 2.772979 1.855835 7.71933.149978 15.442902.084365 23.821839.084365-1.503296-6.47998-2.805268-12.092163-4.314942-18.473663z" fill="#acacac"/><path d="m470.936279 551.626892c19.011261-4.396484 32.495148 6.820496 37.758332 22.471375 2.73587 8.135559 4.444488 16.659423 6.027679 25.118164.610413 3.261047 1.719177 4.180359 4.75708 4.007568 3.651795-.207703 7.324158-.019592 10.984619-.115845 7.736328-.203369 11.53418-3.449463 13.053284-11.037231 1.929382-9.637268-2.63794-17.112976-12.009461-20.224854-1.477294-.490539-3.014587-2.138-3.625427-3.620727-1.253418-3.042481-2.11737-6.29718-2.689636-9.544129-.244324-1.386352.198975-3.750488 1.124146-4.278564 1.278625-.729797 3.97937-.864868 4.903686-.002869 5.052551 4.712281 10.427063 9.321411 14.410034 14.883301 6.333435 8.844177 9.154541 19.077637 8.503052 30.131775-.687866 11.672607-8.580505 19.439636-20.352478 19.511047-17.64679.107117-35.294769.029847-52.94223.037842-10.571808.004822-11.463593 1.212463-8.374909 11.234924.18631.604615.230011 1.253174.322815 1.782715-3.271942 2.70575-5.437164 1.830933-7.195617-1.572509-2.435761-4.714356-5.470032-9.161438-7.494355-14.035889-2.63269-6.339417-.708038-9.531616 6.051056-11.371338 2.38324-.648743 4.845764-1.006165 8.139679-1.671936-1.714783-2.268311-3.541046-4.106262-4.681885-6.300537-3.569549-6.865479-7.849426-13.572571-10.059661-20.883484-3.151703-10.424927 2.777191-20.318909 13.390197-24.518799m24.554383 51.555908h12.382019c-2.463105-8.515136-4.137696-16.109314-6.879883-23.296203-2.968811-7.780823-9.478821-11.746094-17.62561-12.697449-6.54535-.764404-12.954834 4.171814-12.847809 10.298096.160217 9.169494 3.988037 17.420837 10.501983 23.423889 2.718476 2.50531 8.56369 1.618347 12.987824 2.269592.162445.023865.331482.002747 1.481476.002075z" fill="#acacac"/><path d="m67.228485 439.448883c-5.821278-20.986084 3.315918-35.994934 18.540779-48.229523 5.890724-4.733825 12.911309-8.05603 19.387169-12.069732 3.216194-1.993347 6.331055-2.010895 9.861168-.557587 16.945656 6.976349 31.4701 16.851501 39.128059 34.186218 7.443451 16.849121 2.654313 30.888153-13.247421 40.490448-14.05365 8.486328-29.298668 11.501618-45.530441 8.934418-13.514923-2.137573-23.386116-9.026215-28.139313-22.754242z" fill="#fdfdfd"/><g fill="#fefefe"><path d="m540.950439 411.686951c-3.412597 8.187225-8.552978 12.321747-17.786132 11.681091-10.931946-.758484-21.963898.033905-32.936127-.334442-2.615418-.087799-5.672943-1.567047-7.630097-3.376526-3.136444-2.89975-5.813659-6.419617-8.170837-10.014465-5.822845-8.880158-4.841247-16.776612 2.63147-24.286133 12.438598-12.499848 37.851929-15.394165 52.899902-6.02478 11.310608 7.042388 15.288452 18.502929 10.991821 32.355255z"/><path d="m503.122803 213.017151c1.405822 5.996841 2.707794 11.609024 4.21109 18.089004-8.378937 0-16.102509.065613-23.821839-.084365-.947692-.018418-2.095489-1.01149-2.772979-1.855835-4.825287-6.013459-8.769013-12.454026-9.872742-20.320725-1.242065-8.852569 5.257233-15.076645 14.0849-13.395584 9.730377 1.852951 15.222961 8.114075 18.17157 17.567505z"/><path d="m494.998657 603.183044c-.657989.000428-.827026.021546-.989471-.002319-4.424134-.651245-10.269348.235718-12.987824-2.269592-6.513946-6.003052-10.341766-14.254395-10.501983-23.423889-.107025-6.126282 6.302459-11.0625 12.847809-10.298096 8.146789.951355 14.656799 4.916626 17.62561 12.697449 2.742187 7.186889 4.416778 14.781067 6.879883 23.296203-4.928894 0-8.655457 0-12.874024.000244z"/></g></svg>