<svg enable-background="new 0 0 630 814" viewBox="0 0 630 814" xmlns="http://www.w3.org/2000/svg"><path d="m1 317c0-105.666672 0-210.833336 0-316h630v814c-210 0-420 0-630 0 0-165.833313 0-331.666656 0-498m235.301041-29.995605v26.111267c-9.937622 2.355377-19.48227 4.555206-28.995453 6.883575-34.194779 8.369232-68.526291 16.233521-102.51622 25.367493-23.383561 6.283752-45.400502 16.075744-64.017014 32.250427-21.81975 18.957672-28.565584 46.795532-16.86383 72.13678 7.153551 15.491668 20.328064 24.409302 36.065536 29.333252 29.875435 9.347473 60.007111 9.305847 89.708328-.522553 14.224549-4.707031 26.411698-13.104706 32.155045-27.867309 9.367645-24.0784 4.042221-45.972565-12.330017-64.94394-7.091553-8.217315-16.452286-14.476318-25.315872-22.082763 29.523208-9.643463 60.14981-16.825653 91.870239-22.800812 0 2.457153.00003 4.067749.000015 5.678375-.000305 47.809693-.007416 95.619416.008545 143.429108.001785 5.323883.134827 10.647674.030899 16.899902v31.935791c-66.205933 14.457825-118.953812 46.850159-156.589355 104.515869 8.733932.962342 15.780456 1.812256 22.842384 2.505127 49.863869 4.892029 98.606636 15.179322 146.383659 30.201966 53.260422 16.746765 104.452164 38.116333 151.894791 67.856262 23.280029 14.593384 46.430328 29.393677 69.729004 43.956848 1.480896.92572 4.162872 1.454285 5.572967.746643 38.851258-19.497925 77.653504-39.095337 116.332764-58.931946 5.262878-2.699096 9.920532-6.632019 14.692078-10.215088 2.850586-2.140564 3.190674-5.216552 2.256591-8.581481-1.430297-5.152222-5.087097-8.311951-12.980773-7.661622-12.868287 1.060181-25.859253 2.496338-38.381531 5.507569-26.941834 6.478882-53.197968 4.788574-79.101044-4.250794-29.070465-10.144714-58.08136-20.467224-87.009888-31.00946-31.431976-11.454468-62.417236-24.234985-94.187652-34.633667-34.969055-11.445557-70.9637-19.33667-107.540161-23.91095-14.07341-1.76001-28.31157-2.202698-42.759842-3.266601 22.212906-16.974427 47.588684-28.314881 74.066787-38.084107 27.229691-10.046631 55.37558-7.370483 83.107697-8.060974 0-20.301025 0-39.942383.214722-60.497345.00885-53.232086.017639-106.464203.027099-159.696289.000244-1.33075.003876-2.66156.011872-3.992279.110809-18.434876.222656-36.869751.54013-56.224884 0-47.212586 0-94.425156 0-141.930512 11.426911 0 22.442536.567902 33.372742-.155441 11.549774-.764328 23.150055-2.112228 34.479706-4.423691 8.831482-1.801773 16.953644-6.195984 22.707062-13.554451 8.556945-10.94403 7.079284-22.802559 1.711639-34.382438-6.001923-12.948159-14.96463-23.939652-25.308136-33.62629-14.077942-13.183929-28.612427-25.879781-42.922516-38.816627-5.952698-5.381465-6.808533-5.491422-13.458923-1.047602-1.097779.733551-2.250977 1.412813-3.239899 2.276026-5.799499 5.0623-5.714142 5.611187-.734741 11.495317 9.788208 11.566756 19.216614 23.623896 23.807098 38.182387 6.815857 21.616195 1.23584 29.189529-20.305389 30.765625-15.580811 1.139984-31.297943 1.360763-46.917023.850311-41.602142-1.359619-81.795502 6.523857-121.518097 17.607849-10.474151 2.922653-20.591888 7.122605-31.037437 10.793717 1.080963 3.851593 2.150612 6.674347 2.623787 9.59378.62117 3.832581 2.720344 4.980637 6.399307 5.387009 7.584656.837784 15.078506 2.476639 22.657227 3.392959 24.410842 2.951493 48.839935 5.75351 73.270065 8.542527 5.057129.577346 10.149002.850555 15.120544 1.255432v43.993103c-20.712311 3.63118-41.240722 6.716034-61.533996 10.932571-20.254792 4.208527-40.038803 10.279236-59.143212 18.375824.428849 1.639969.869011 2.743286.990502 3.880631.885681 8.291519 6.02079 11.492355 13.786545 12.45137 26.066253 3.218964 52.088516 6.793091 78.149658 10.055237 9.18898 1.150177 18.441421 1.793426 28.276993 2.726196 0 9.113403 0 17.749115-.156006 27.297791m359.348373 138.634552c-15.351623.574676-30.703247 1.149383-46.964111 1.758117 7.904968-14.033264 7.28186-26.932251.273926-39.246216-15.662903-27.521698-54.345856-35.012786-79.47754-15.740326-13.876709 10.64148-16.573761 26.619629-6.50946 40.987061 3.285339 4.690002 7.55481 8.690613 11.479309 13.125336-4.13797.881042-8.247833 1.381408-12.094788 2.667907-5.058563 1.691773-6.626312 4.85962-4.446197 9.709961 2.509613 5.583435 5.627197 10.934388 8.955505 16.079193.791108 1.22284 3.47165 1.223328 6.588532 2.19159-1.160828-3.576264-1.721558-5.283966-2.269623-6.995728-1.688477-5.273773-.787994-6.824432 4.675446-7.819275 1.299682-.236663 2.652252-.247345 3.980835-.251587 22.158416-.070617 44.316833-.143188 66.47528-.174804 19.493836-.027802 38.987732.009918 58.481629-.013886 6.325622-.007751 7.634582-1.881805 5.97351-7.971649-1.658874-6.081879-3.064575-12.234283-4.807373-18.290741-.368408-1.279877-1.717224-2.277649-2.614318-3.405395-.826966 1.193756-1.798218 2.313934-2.45221 3.595947-1.58258 3.102844-3.017212 6.281189-5.248352 9.794495m-44.1297-150.843628c.871949-4.341645 2.58136-8.709717 2.445374-13.019562-.304016-9.634476-6.007813-17.014877-11.819092-24.172119-3.928589-4.838425-7.83844-9.692017-11.135376-13.770371 4.121887 0 10.24707.149491 16.361572-.042999 5.856263-.184341 7.367493-3.116928 5.222596-8.50116-2.084351-5.232284-3.571045-10.700088-5.52002-15.99086-.472656-1.283096-1.730896-2.27684-2.62793-3.40361-1.086059 1.189713-2.300781 2.291565-3.200134 3.60878-.407104.596207-.141296 1.626938-.260071 2.449066-.600891 4.157944-2.145996 7.354065-7.125366 7.3564-2.146912.001007-4.293213.478424-6.440552.484512-15.656433.044403-31.313049.046539-46.969574.016815-12.577819-.023865-11.208648 1.150101-14.741729-10.529831-.885498-2.927475-2.181244-4.351806-5.384705-2.751617v41.133163c4.547668 1.694458 4.876129-1.499481 5.693024-4.20076 2.553802-8.444671 2.571563-8.439392 11.318542-8.439514 9.327301-.000122 18.68042.423447 27.973236-.142624 6.663086-.405868 11.858521 1.723999 16.807129 5.791886 7.525269 6.185943 14.746399 12.610199 17.896668 22.201767 3.109069 9.466217-1.005921 15.732879-10.827332 16.067749-16.125366.549804-32.265503.716552-48.401062.902069-11.378143.130829-11.480713.059356-15.090668-10.67804-1.039398-3.091675-2.501617-3.892212-5.353912-2.696136v41.908844c4.548248 1.374267 4.945648-1.726898 5.691589-4.503784 2.344971-8.729706 2.478028-8.801728 11.44748-8.821259 18.819854-.040985 37.641143.017181 56.45877-.213257 7.218506-.088409 13.207337-3.065399 17.581543-10.043548m-15.627258-193.237206c-18.649353-12.485756-38.276092-14.742592-58.518555-4.583023-13.246765 6.648506-20.263061 17.711594-20.453125 32.882736-.206329 16.472084 9.856293 26.913155 21.173615 36.614296.614441.526718 2.841431-.097885 3.738769-.86441.704712-.601959 1.031617-2.495819.612336-3.384552-.834626-1.769119-2.285157-3.251541-3.50412-4.834793-5.641632-7.327744-9.561676-15.411965-8.230072-24.846398 2.27063-16.087814 20.334686-28.263099 37.165802-24.998893 0 1.673957-.000031 3.464881 0 5.255806.000305 13.999542-.594696 28.033477.211334 41.986473.532196 9.212158 4.06488 15.147216 14.214844 13.122055 1.789184-.35701 3.603882-.608811 5.370056-1.054734 18.317016-4.624527 28.417236-17.821563 26.246582-35.686027-1.461426-12.026871-7.641419-21.837967-18.027466-29.608536m-76.47998 529.289543c5.806762 7.208618 11.525787 14.492127 17.530609 21.5318.756012.886291 3.016174.489502 4.579406.687133.059967-1.697143.766755-3.754577.059449-5.024231-2.175873-3.905578-5.24701-7.322509-7.332337-11.266601-6.023468-11.392395-5.432861-24.729675 5.323487-33.911438 7.995819-6.825379 17.449188-9.173584 28.304107-9.471192v5.460938c.000244 14.322021-.036651 28.644104.019135 42.965942.022095 5.672974 4.30246 12.973877 7.99588 13.186585 11.256103.648193 29.149231-5.485962 35.405212-18.954773 7.374329-15.876587-.380066-35.671326-13.247802-45.962647-15.618042-12.490844-33.544251-15.575988-52.20517-9.851379-23.115112 7.090881-33.939942 25.968811-26.431976 50.609863z" fill="#fff"/><path d="m304.429718 505.912872v59.58371c-27.732117.690491-55.878006-1.985657-83.107697 8.060974-26.478103 9.769226-51.853881 21.10968-74.066787 38.084107 14.448272 1.063903 28.686432 1.506591 42.759842 3.266601 36.576461 4.57428 72.571106 12.465393 107.540161 23.91095 31.770416 10.398682 62.755676 23.179199 94.187652 34.633667 28.928528 10.542236 57.939423 20.864746 87.009888 31.00946 25.903076 9.039368 52.15921 10.729676 79.101044 4.250794 12.522278-3.011231 25.513244-4.447388 38.381531-5.507569 7.893676-.650329 11.550476 2.5094 12.980773 7.661622.934083 3.364929.593995 6.440917-2.256591 8.581481-4.771546 3.583069-9.4292 7.515992-14.692078 10.215088-38.67926 19.836609-77.481506 39.434021-116.332764 58.931946-1.410095.707642-4.092071.179077-5.572967-.746643-23.298676-14.563171-46.448975-29.363464-69.729004-43.956848-47.442627-29.739929-98.634369-51.109497-151.894791-67.856262-47.777023-15.022644-96.51979-25.309937-146.383659-30.201966-7.061928-.692871-14.108452-1.542785-22.842384-2.505127 37.635543-57.66571 90.383422-90.058044 156.589355-104.515869 0-10.053772 0-20.994751.536804-32.407806 22.955094-.47879 45.373368-.485535 67.791672-.49231z" fill="#c47034"/><path d="m304.537079 505.456055c-22.525665.463592-44.943939.470337-67.810974.484924-.520935-5.31601-.653977-10.639801-.655762-15.963684-.015961-47.809692-.00885-95.619415-.008545-143.429108.000015-1.610626-.000015-3.221222-.000015-5.678375-31.720429 5.975159-62.347031 13.157349-91.870239 22.800812 8.863586 7.606445 18.224319 13.865448 25.315872 22.082763 16.372238 18.971375 21.697662 40.86554 12.330017 64.94394-5.743347 14.762603-17.930496 23.160278-32.155045 27.867309-29.701217 9.8284-59.832893 9.870026-89.708328.522553-15.737472-4.92395-28.911985-13.841584-36.065536-29.333252-11.701754-25.341248-4.95592-53.179108 16.86383-72.13678 18.616512-16.174683 40.633453-25.966675 64.017014-32.250427 33.989929-9.133972 68.321441-16.998261 102.51622-25.367493 9.513183-2.328369 19.057831-4.528198 28.995453-6.883575 0-8.862732 0-17.487.514663-26.577393 23.077088-.488129 45.639527-.510162 68.201935-.532227-.111572 18.434876-.223419 36.869751-.334228 55.304627-.007996 1.330719-.011628 2.661529-.011872 3.992279-.00946 53.232086-.018249 106.464203-.13446 160.153107m-182.982659-44.263153c6.292984-2.526368 12.944436-4.4133 18.810387-7.701447 16.296417-9.134827 21.203201-23.713562 13.836044-40.650146-7.039337-16.182923-20.454834-25.6586-35.858001-32.956238-5.331772-2.526032-10.038483-2.757599-15.421074.163544-16.162712 8.771484-30.649643 19.168762-36.211098 37.78366-4.091724 13.695557.820725 33.377808 16.896469 40.709778 12.141182 5.537415 24.491013 5.346192 37.947273 2.650849z" fill="#010101"/><path d="m305.120605 285.545929c-22.665374.482178-45.227813.504211-68.226898.535858-.43666-8.626068-.43666-17.26178-.43666-26.375183-9.835572-.93277-19.088013-1.576019-28.276993-2.726196-26.061142-3.262146-52.083405-6.836273-78.149658-10.055237-7.765755-.959015-12.900864-4.159851-13.786545-12.45137-.121491-1.137345-.561653-2.240662-.990502-3.880631 19.104409-8.096588 38.88842-14.167297 59.143212-18.375824 20.293274-4.216537 40.821685-7.301391 61.533996-10.932571 0-14.228165 0-28.85669 0-43.993103-4.971542-.404877-10.063415-.678086-15.120544-1.255432-24.43013-2.789017-48.859223-5.591034-73.270065-8.542527-7.578721-.91632-15.072571-2.555175-22.657227-3.392959-3.678963-.406372-5.778137-1.554428-6.399307-5.387009-.473175-2.919433-1.542824-5.742187-2.623787-9.59378 10.445549-3.671112 20.563286-7.871064 31.037437-10.793717 39.722595-11.083992 79.915955-18.967468 121.518097-17.607849 15.61908.510452 31.336212.289673 46.917023-.850311 21.541229-1.576096 27.121246-9.14943 20.305389-30.765625-4.590484-14.558491-14.01889-26.615631-23.807098-38.182387-4.979401-5.88413-5.064758-6.433017.734741-11.495317.988922-.863213 2.14212-1.542475 3.239899-2.276026 6.65039-4.44382 7.506225-4.333863 13.458923 1.047602 14.310089 12.936846 28.844574 25.632698 42.922516 38.816627 10.343506 9.686638 19.306213 20.678131 25.308136 33.62629 5.367645 11.579879 6.845306 23.438408-1.711639 34.382438-5.753418 7.358467-13.87558 11.752678-22.707062 13.554451-11.329651 2.311463-22.929932 3.659363-34.479706 4.423691-10.930206.723343-21.945831.155441-33.372742.155441 0 47.505356 0 94.717926-.102936 142.390656z" fill="#c46f34"/><path d="m596.017822 425.456238c1.862732-3.330597 3.297364-6.508942 4.879944-9.611786.653992-1.282013 1.625244-2.402191 2.45221-3.595947.897094 1.127746 2.24591 2.125518 2.614318 3.405395 1.742798 6.056458 3.148499 12.208862 4.807373 18.290741 1.661072 6.089844.352112 7.963898-5.97351 7.971649-19.493897.023804-38.987793-.013916-58.481629.013886-22.158447.031616-44.316864.104187-66.47528.174804-1.328583.004242-2.681153.014924-3.980835.251587-5.46344.994843-6.363923 2.545502-4.675446 7.819275.548065 1.711762 1.108795 3.419464 2.269623 6.995728-3.116882-.968262-5.797424-.96875-6.588532-2.19159-3.328308-5.144805-6.445892-10.495758-8.955505-16.079193-2.180115-4.850341-.612366-8.018188 4.446197-9.709961 3.846955-1.286499 7.956818-1.786865 12.094788-2.667907-3.924499-4.434723-8.19397-8.435334-11.479309-13.125336-10.064301-14.367432-7.367249-30.345581 6.50946-40.987061 25.131684-19.27246 63.814637-11.781372 79.47754 15.740326 7.007934 12.313965 7.631042 25.212952-.273926 39.246216 16.260864-.608734 31.612488-1.183441 47.332519-1.940826m-68.934692 1.397705c2.167114-.644653 4.731018-.7547 6.437012-2.020752 11.070983-8.215759 12.485778-26.773346 3.019775-36.907898-14.273865-15.281921-47.595001-14.18988-60.848755 1.994202-6.586731 8.043029-6.979462 14.79544-.898743 23.509552 2.648224 3.795074 5.678254 7.403534 9.002594 10.612213 1.578339 1.523437 4.237793 2.643463 6.434388 2.690521 11.975097.256409 23.958587.121948 36.853729.122162z" fill="#acacac"/><g fill="#ababab"><path d="m551.312378 275.108704c-4.16687 6.664764-10.155701 9.641754-17.374207 9.730163-18.817627.230438-37.638916.172272-56.45877.213257-8.969452.019531-9.102509.091553-11.44748 8.821259-.745941 2.776886-1.143341 5.878051-5.691589 4.503784 0-13.83255 0-27.737305 0-41.908844 2.852295-1.196076 4.314514-.395539 5.353912 2.696136 3.609955 10.737396 3.712525 10.808869 15.090668 10.67804 16.135559-.185517 32.275696-.352265 48.401062-.902069 9.821411-.33487 13.936401-6.601532 10.827332-16.067749-3.150269-9.591568-10.371399-16.015824-17.896668-22.201767-4.948608-4.067887-10.144043-6.197754-16.807129-5.791886-9.292816.566071-18.645935.142502-27.973236.142624-8.746979.000122-8.76474-.005157-11.318542 8.439514-.816895 2.701279-1.145356 5.895218-5.693024 4.20076 0-13.630493 0-27.36969 0-41.133163 3.203461-1.600189 4.499207-.175858 5.384705 2.751617 3.533081 11.679932 2.16391 10.505966 14.741729 10.529831 15.656525.029724 31.313141.027588 46.969574-.016815 2.147339-.006088 4.29364-.483505 6.440552-.484512 4.97937-.002335 6.524475-3.198456 7.125366-7.3564.118775-.822128-.147033-1.852859.260071-2.449066.899353-1.317215 2.114075-2.419067 3.200134-3.608795.897034 1.126785 2.155274 2.120529 2.62793 3.403625 1.948975 5.290772 3.435669 10.758576 5.52002 15.99086 2.144897 5.384232.633667 8.316819-5.222596 8.50116-6.114502.19249-12.239685.042999-16.361572.042999 3.296936 4.078354 7.206787 8.931946 11.135376 13.770371 5.811279 7.157242 11.515076 14.537643 11.819092 24.172119.135986 4.309845-1.573425 8.677917-2.65271 13.332947z"/><path d="m536.172607 81.780823c10.105896 7.547859 16.285889 17.358955 17.747315 29.385826 2.170654 17.864464-7.929566 31.0615-26.246582 35.686027-1.766174.445923-3.580872.697724-5.370056 1.054734-10.149964 2.025161-13.682648-3.909897-14.214844-13.122055-.80603-13.952996-.211029-27.986931-.211334-41.986473-.000031-1.790925 0-3.581849 0-5.255806-16.831116-3.264206-34.895172 8.911079-37.165802 24.998893-1.331604 9.434433 2.58844 17.518654 8.230072 24.846398 1.218963 1.583252 2.669494 3.065674 3.50412 4.834793.419281.888733.092376 2.782593-.612336 3.384552-.897338.766525-3.124328 1.391128-3.738769.86441-11.317322-9.701141-21.379944-20.142212-21.173615-36.614296.190064-15.171142 7.20636-26.23423 20.453125-32.882736 20.242463-10.159569 39.869202-7.902733 58.798706 4.805733m6.477539 35.802612c2.130005-16.626182-8.803833-29.685707-25.551879-29.984451 0 13.452766-.094544 26.904938.176818 40.349724.022034 1.093605 2.477051 2.949562 3.918152 3.071281 9.28833.784515 17.065186-4.055122 21.456909-13.436554z"/><path d="m459.242584 610.491211c-7.338074-24.284607 3.486756-43.162537 26.601868-50.253418 18.660919-5.724609 36.587128-2.639465 52.20517 9.851379 12.867736 10.291321 20.622131 30.08606 13.247802 45.962647-6.255981 13.468811-24.149109 19.602966-35.405212 18.954773-3.69342-.212708-7.973785-7.513611-7.99588-13.186585-.055786-14.321838-.018891-28.643921-.019135-42.965942 0-1.778015 0-3.55603 0-5.460938-10.854919.297608-20.308288 2.645813-28.304107 9.471192-10.756348 9.181763-11.346955 22.519043-5.323487 33.911438 2.085327 3.944092 5.156464 7.361023 7.332337 11.266601.707306 1.269654.000518 3.327088-.059418 5.024231-1.563263-.197631-3.823425.199158-4.579437-.687133-6.004822-7.039673-11.723847-14.323182-17.700501-21.888245m63.239899 7.595642c13.617371-.940674 21.210205-8.718018 20.543579-21.042664-.641602-11.860412-13.223816-22.998168-25.927856-22.491333 0 13.40625-.025269 26.838807.019714 40.27118.009888 2.955383 2.06134 3.444763 5.364563 3.262817z"/></g><path d="m121.144913 461.276581c-13.046753 2.611664-25.396584 2.802887-37.537766-2.734528-16.075744-7.33197-20.988193-27.014221-16.896469-40.709778 5.561455-18.614898 20.048386-29.012176 36.211098-37.78366 5.382591-2.921143 10.089302-2.689576 15.421074-.163544 15.403167 7.297638 28.818664 16.773315 35.858001 32.956238 7.367157 16.936584 2.460373 31.515319-13.836044 40.650146-5.865951 3.288147-12.517403 5.175079-19.219894 7.785126z" fill="#fdfdfd"/><path d="m526.625854 426.853851c-12.437866-.000122-24.421356.134339-36.396453-.12207-2.196595-.047058-4.856049-1.167084-6.434388-2.690521-3.32434-3.208679-6.35437-6.817139-9.002594-10.612213-6.080719-8.714112-5.687988-15.466523.898743-23.509552 13.253754-16.184082 46.57489-17.276123 60.848755-1.994202 9.466003 10.134552 8.051208 28.692139-3.019775 36.907898-1.705994 1.266052-4.269898 1.376099-6.894288 2.02066z" fill="#fefefe"/><path d="m542.478882 117.956894c-4.220459 9.007973-11.997315 13.84761-21.285645 13.063095-1.441101-.121719-3.896118-1.977676-3.918152-3.071281-.271362-13.444786-.176818-26.896958-.176818-40.349724 16.748046.298744 27.681884 13.358269 25.380615 30.35791z" fill="#fdfdfd"/><path d="m522.040222 618.091187c-2.860962.177612-4.912414-.311768-4.922302-3.267151-.044983-13.432373-.019714-26.86493-.019714-40.27118 12.70404-.506835 25.286254 10.630921 25.927856 22.491333.666626 12.324646-6.926208 20.10199-20.98584 21.046998z" fill="#fefefe"/></svg>