<svg enable-background="new 0 0 716 1124" viewBox="0 0 716 1124" xmlns="http://www.w3.org/2000/svg"><path d="m717 432v693c-238.666656 0-477.333328 0-716 0 0-374.666687 0-749.333344 0-1124h716zm-248.848541 310.07428c0-51.59906 0-103.19812 0-155.144654 1.66571.385132 2.761383.700928 3.87857.887757 37.953156 6.344787 75.907959 12.679931 113.863587 19.009582 9.35498 1.56012 10.16101 1.086853 13.645569-7.895324.177917-.45868.287963-.95691.346496-1.446656 1.434265-11.987793 3.382691-23.942321 4.175537-35.9729 1.801514-27.334534 11.687989-39.55127 38.225464-45.882935 3.964234-.945861 7.97229-1.707946 11.960083-2.555114-4.004577-3.442536-8.129089-6.345124-12.707886-7.95694-17.897949-6.300354-36.158447-6.712311-54.385498-1.603546-14.066284 3.942566-25.630432 11.726196-33.047241 24.626953-5.829956 10.140625-7.862854 21.372803-8.087158 32.950256-.121643 6.281678-.021668 12.567749-.021668 19.399475-26.190246-4.22821-51.949035-8.386779-77.659851-12.537536 0-185.267517 0-369.931427 0-554.611198-1.075622-.181937-1.54541-.330682-2.015258-.330935-23.165131-.012469-46.330292-.02862-69.495301.021928-1.625122.003546-3.35495.239521-4.857238.825724-14.673401 5.725685-29.313019 11.538164-43.954102 17.34655-38.049957 15.095156-76.095459 30.201601-114.143417 45.301794-17.992798 7.140839-35.987214 14.277634-54.043213 21.440995 0 2.134529.121795 3.97129-.029175 5.785339-.214768 2.580727.597244 3.728737 3.388962 4.307526 26.604767 5.515655 53.134323 11.401977 79.783264 16.688964 4.250885.843346 10.052917.792199 13.333771-1.46624 34.2807-23.597679 68.183715-47.743682 102.21759-71.700546 4.901123-3.449951 9.940826-6.703064 15.368164-10.350933v139.77013c-44.826294 4.764679-88.426788 13.667801-130.378784 30.570954.512207 1.685836 1.137695 2.925018 1.237762 4.205276.709046 9.071213 6.254486 12.309647 14.626404 13.343979 27.901703 3.447159 55.74588 7.358002 83.639465 10.873764 10.33844 1.303085 20.752716 2.004318 31.280701 2.993958 0 18.738555-.103668 36.887817.092865 55.033783.036591 3.378143-1.086304 4.910003-4.053772 6.305633-19.091827 8.978912-38.32663 17.706726-57.005127 27.489563-9.447479 4.94812-18.068786 7.683258-27.700073 1.481506-.946625-.609527-2.184387-.755462-3.269531-1.162994-25.343323-9.517548-50.710968-18.971405-76.005158-28.617859-5.687835-2.169159-6.619095 3.058167-9.29248 5.415741-2.77536 2.44751.191894 4.068939 1.561676 5.653839 13.174011 15.242768 26.405288 30.436066 39.602203 45.659088 1.360504 1.569367 2.604431 3.239777 4.241943 5.287934-2.306365 1.26474-3.962127 2.278564-5.704101 3.112243-31.015518 14.843048-62.059921 29.626099-93.015808 44.592316-1.713684.828522-3.669312 3.023682-3.874375 4.774536-.786453 6.715027-.511138 6.619782 6.473862 8.069428 17.582459 3.649078 35.104859 7.595794 52.719528 11.078277 10.406952 2.057526 20.925263 3.59372 31.439423 5.027527 1.840286.250946 4.297653-.680145 5.814377-1.888367 38.79953-30.907714 77.509704-61.927581 116.241089-92.920837 6.923217-5.539948 13.871338-11.048676 21.523162-17.141296v167.433319c-44.96701 4.767334-88.648376 13.722656-130.465881 30.566253.901245 2.918763 1.949219 5.25177 2.305359 7.685913.752075 5.140259 3.437347 7.498414 8.653137 8.192566 28.77414 3.828797 57.497589 8.039612 86.276154 11.833252 10.979278 1.447205 22.058716 2.134461 33.307709 3.188233 0 18.721435.057525 37.029114-.120484 55.334533-.012787 1.318543-1.460724 3.251587-2.726105 3.820008-5.291259 2.377136-10.776153 4.320617-16.174652 6.462036-40.829742 16.195984-81.644256 32.430359-122.487426 48.592407-24.183075 9.569458-48.409592 19.029114-72.82576 28.620361 0 1.297486.17073 2.475464-.03003 3.586304-.803085 4.443726.881684 6.268738 5.454285 7.189819 25.649948 5.166443 51.191391 10.874451 76.855515 15.96576 5.488128 1.088684 11.105285 1.466614 16.585571-2.456116 34.214325-24.489563 68.673157-48.637695 103.072845-72.868042 3.824677-2.69397 7.78714-5.192444 12.396759-8.253845 0 2.782776-.003265 4.571289.000519 6.359802.064697 30.492188.130219 60.984436.027954 92.399292v41.456787c-44.887451 4.692383-88.431701 13.530823-130.031463 30.389893 1.023315 12.399902 2.821716 15.191162 14.393859 16.857177 28.650452 4.124817 57.374146 7.75116 86.092835 11.385132 9.687958 1.225769 19.44931 1.871399 29.265961 2.790528v47.629821c-1.46933.26648-2.741944.544617-4.028321.723267-13.295807 1.847046-25.994873 5.69635-38.071991 11.526306-38.78598 18.723023-68.273681 47.658508-91.36383 83.538941-3.071717 4.773193-5.620697 9.882812-8.130905 14.338134 24.665969 1.483338 48.795578 2.504212 72.847458 4.474549 43.78302 3.586487 85.369812 16.384399 125.357513 33.660888 40.177673 17.358765 75.49057 42.896607 108.878632 71.017212 2.602478 2.191895 4.702941 2.999878 7.93457 1.42041 6.127624-2.994873 12.602844-5.296997 18.651428-8.431396 31.9375-16.550171 63.809815-33.226807 95.642029-49.978638 4.691345-2.46875 9.137268-5.441406 13.535705-8.418823 4.531617-3.067383 5.928833-7.569702 4.478943-12.729248-1.409912-5.01709-5.205566-8.175171-10.169128-8.287964-7.217713-.164307-14.570129.123413-21.668884 1.352173-13.909912 2.407715-27.573243 6.481812-41.543274 8.238892-17.016297 2.140014-34.057373-.385132-50.335144-5.453492-28.915772-9.003296-57.798584-18.240356-86.215485-28.684753-34.02832-12.506836-68.40509-23.471375-104.556793-27.194824-21.501557-2.214539-43.202057-2.498291-64.813202-3.648133-1.549378-.082458-3.099609-.148803-5.260132-.25177 11.6922-12.619079 24.686615-22.460998 38.7099-30.857605 16.573761-9.923828 34.125458-17.622131 53.841156-18.143737 18.318115-.48462 36.653534-.316834 54.981323-.433289 1.753479-.011169 3.50708-.001526 5.541504-.001526 0-2.569885-.002624-4.385132.000397-6.200378.058807-35.329651.17688-70.659424.156402-105.989014-.012908-22.325012-.232482-44.649841-.161834-67.892883z" fill="#fff"/><path d="m394.359863 742.948975c-.065368-30.492188-.13089-60.984436-.195587-91.476624-.003784-1.788513-.000519-3.577026-.000519-6.359802-4.609619 3.061401-8.572082 5.559875-12.396759 8.253845-34.399688 24.230347-68.85852 48.378479-103.072845 72.868042-5.480286 3.92273-11.097443 3.5448-16.585571 2.456116-25.664124-5.091309-51.205567-10.799317-76.855515-15.96576-4.572601-.921081-6.25737-2.746093-5.454285-7.189819.20076-1.11084.03003-2.288818.03003-3.586304 24.416168-9.591247 48.642685-19.050903 72.82576-28.620361 40.84317-16.162048 81.657684-32.396423 122.487426-48.592407 5.398499-2.141419 10.883393-4.0849 16.174652-6.462036 1.265381-.568421 2.713318-2.501465 2.726105-3.820008.178009-18.305419.120484-36.613098.120484-55.334533-11.248993-1.053772-22.328431-1.741028-33.307709-3.188233-28.778565-3.79364-57.502014-8.004455-86.276154-11.833252-5.21579-.694152-7.901062-3.052307-8.653137-8.192566-.35614-2.434143-1.404114-4.76715-2.305359-7.685913 41.817505-16.843597 85.498871-25.798919 130.465881-30.566253 0-55.585144 0-110.966126 0-167.433319-7.651824 6.09262-14.599945 11.601348-21.523162 17.141296-38.731385 30.993256-77.441559 62.013123-116.241089 92.920837-1.516724 1.208222-3.974091 2.139313-5.814377 1.888367-10.51416-1.433807-21.032471-2.970001-31.439423-5.027527-17.614669-3.482483-35.137069-7.429199-52.719528-11.078277-6.985-1.449646-7.260315-1.354401-6.473862-8.069428.205063-1.750854 2.160691-3.946014 3.874375-4.774536 30.955887-14.966217 62.00029-29.749268 93.015808-44.592316 1.741974-.833679 3.397736-1.847503 5.704101-3.112243-1.637512-2.048157-2.881439-3.718567-4.241943-5.287934-13.196915-15.223022-26.428192-30.41632-39.602203-45.659088-1.369782-1.5849-4.337036-3.206329-1.561676-5.653839 2.673385-2.357574 3.604645-7.5849 9.29248-5.415741 25.29419 9.646454 50.661835 19.100311 76.005158 28.617859 1.085144.407532 2.322906.553467 3.269531 1.162994 9.631287 6.201752 18.252594 3.466614 27.700073-1.481506 18.678497-9.782837 37.9133-18.510651 57.005127-27.489563 2.967468-1.39563 4.090363-2.92749 4.053772-6.305633-.196533-18.145966-.092865-36.295228-.092865-55.033783-10.527985-.98964-20.942261-1.690873-31.280701-2.993958-27.893585-3.515762-55.737762-7.426605-83.639465-10.873764-8.371918-1.034332-13.917358-4.272766-14.626404-13.343979-.100067-1.280258-.725555-2.51944-1.237762-4.205276 41.951996-16.903153 85.55249-25.806275 130.378784-30.570954 0-46.394775 0-92.6315 0-139.77013-5.427338 3.647869-10.467041 6.900982-15.368164 10.350933-34.033875 23.956864-67.93689 48.102867-102.21759 71.700546-3.280854 2.258439-9.082886 2.309586-13.333771 1.46624-26.648941-5.286987-53.178497-11.173309-79.783264-16.688964-2.791718-.578789-3.60373-1.726799-3.388962-4.307526.15097-1.814049.029175-3.65081.029175-5.785339 18.055999-7.163361 36.050415-14.300156 54.043213-21.440995 38.047958-15.100193 76.09346-30.206638 114.143417-45.301794 14.641083-5.808386 29.280701-11.620865 43.954102-17.34655 1.502288-.586203 3.232116-.822178 4.857238-.825724 23.165009-.050548 46.33017-.034397 69.495301-.021928.469848.000253.939636.148998 2.015258.330935v554.611198c25.710816 4.150757 51.469605 8.309326 77.659851 12.537536 0-6.831726-.099975-13.117797.021668-19.399475.224304-11.577453 2.257202-22.809631 8.087158-32.950256 7.416809-12.900757 18.980957-20.684387 33.047241-24.626953 18.227051-5.108765 36.487549-4.696808 54.385498 1.603546 4.578797 1.611816 8.703309 4.514404 12.707886 7.95694-3.987793.847168-7.995849 1.609253-11.960083 2.555114-26.537475 6.331665-36.42395 18.548401-38.225464 45.882935-.792846 12.030579-2.741272 23.985107-4.175537 35.9729-.058533.489746-.168579.987976-.346496 1.446656-3.484559 8.982177-4.290589 9.455444-13.645569 7.895324-37.955628-6.329651-75.910431-12.664795-113.863587-19.009582-1.117187-.186829-2.21286-.502625-3.87857-.887757 0 51.946534 0 103.545594-.563996 155.609192-24.785217.446411-49.006408.428284-73.2276.410157z" fill="#020202"/><path d="m394.276062 743.410278c24.304993-.443176 48.526184-.425049 73.212646-.412353.592103 22.319397.811677 44.644226.824585 66.969238.020478 35.32959-.097595 70.659363-.156402 105.989014-.003021 1.815246-.000397 3.630493-.000397 6.200378-2.034424 0-3.788025-.009643-5.541504.001526-18.327789.116455-36.663208-.051331-54.981323.433289-19.715698.521606-37.267395 8.219909-53.841156 18.143737-14.023285 8.396607-27.0177 18.238526-38.7099 30.857605 2.160523.102967 3.710754.169312 5.260132.25177 21.611145 1.149842 43.311645 1.433594 64.813202 3.648133 36.151703 3.723449 70.528473 14.687988 104.556793 27.194824 28.416901 10.444397 57.299713 19.681457 86.215485 28.684753 16.277771 5.06836 33.318847 7.593506 50.335144 5.453492 13.970031-1.75708 27.633362-5.831177 41.543274-8.238892 7.098755-1.22876 14.451171-1.51648 21.668884-1.352173 4.963562.112793 8.759216 3.270874 10.169128 8.287964 1.44989 5.159546.052674 9.661865-4.478943 12.729248-4.398437 2.977417-8.84436 5.950073-13.535705 8.418823-31.832214 16.751831-63.704529 33.428467-95.642029 49.978638-6.048584 3.134399-12.523804 5.436523-18.651428 8.431396-3.231629 1.579468-5.332092.771485-7.93457-1.42041-33.388062-28.120605-68.700959-53.658447-108.878632-71.017212-39.987701-17.276489-81.574493-30.074401-125.357513-33.660888-24.05188-1.970337-48.181489-2.991211-72.847458-4.474549 2.510208-4.455322 5.059188-9.564941 8.130905-14.338134 23.090149-35.880433 52.57785-64.815918 91.36383-83.538941 12.077118-5.829956 24.776184-9.67926 38.071991-11.526306 1.286377-.17865 2.558991-.456787 4.028321-.723267 0-15.826721 0-31.428772 0-47.629821-9.816651-.919129-19.578003-1.564759-29.265961-2.790528-28.718689-3.633972-57.442383-7.260315-86.092835-11.385132-11.572143-1.666015-13.370544-4.457275-14.393859-16.857177 41.599762-16.85907 85.144012-25.69751 130.031463-30.389893 0-14.175293 0-27.81604.083832-41.918152z" fill="#c47034"/></svg>