<svg enable-background="new 0 0 384 352" viewBox="0 0 384 352" xmlns="http://www.w3.org/2000/svg"><path fill="brown" d="m214.575333 303.499451c-2.652359 3.881805-4.964173 7.669769-9.186524 9.419525-5.017578 2.079346-9.786499 1.404754-14.066055-2.010376-3.03421-2.421356-5.328369-5.486176-7.330002-8.779724-40.389206-66.458054-80.777023-132.916931-121.157677-199.380188-.690559-1.136605-1.372913-2.291306-1.918144-3.501091-6.11504-13.568337.373509-23.561005 15.544243-23.573601 72.639427-.060303 145.278954-.029587 217.918434-.031143 9.163239-.000191 18.326538-.022164 27.489716.004997 16.185394.047966 23.427551 12.493912 15.115356 26.487206-11.39505 19.183166-23.130005 38.164474-34.724426 57.229156-29.158753 47.945725-58.320358 95.889694-87.684921 144.135239m-2.075241-189.145935c-25.491303.003028-50.98259.011291-76.473893.002113-3.006317-.001083-5.986816.083267-8.921806.865158-4.679855 1.246735-5.799065 3.043556-4.392319 7.595635 1.388504 4.493034 3.897843 8.451309 6.278267 12.453918 15.490311 26.046448 30.83989 52.178833 46.593491 78.065262 5.610077 9.218521 10.153244 19.192138 17.649154 27.183121 4.345017 4.631988 8.538269 4.613418 12.824906-.02089 2.02504-2.1893 3.914215-4.569336 5.490616-7.096435 4.846389-7.769226 9.546631-15.63057 14.241638-23.493134 15.793854-26.449325 31.771591-52.792267 47.248306-79.426163 7.626282-13.124054 5.564209-16.119239-9.555328-16.12519-16.661011-.006569-33.322006-.002297-50.983032-.003395z"/></svg>