<svg version="1.1" id="Layer_1" xmlns="http://www.w3.org/2000/svg" xmlns:xlink="http://www.w3.org/1999/xlink" x="0px" y="0px"
	 width="100%" viewBox="0 0 1452 1716" enable-background="new 0 0 1452 1716" xml:space="preserve">
<path fill="#983430" opacity="1.000000" stroke="none" 
	d="
M1453.000000,843.000000 
	C1453.000000,852.687561 1453.000000,862.375122 1452.718994,872.778809 
	C1449.286011,887.575623 1442.738281,899.966248 1433.673340,911.091064 
	C1418.513794,929.695190 1399.475342,943.574097 1379.153198,955.916931 
	C1189.595825,1071.045654 1000.037048,1186.172241 810.504578,1301.342041 
	C601.347473,1428.436768 392.222351,1555.584351 183.066681,1682.681519 
	C166.735916,1692.605225 150.825790,1703.396973 132.494461,1709.506348 
	C124.096581,1712.305176 115.504173,1714.520142 107.000000,1717.000000 
	C94.979103,1717.000000 82.958214,1717.000000 70.268738,1716.680542 
	C38.450611,1709.516968 19.939987,1688.979126 9.664613,1660.109497 
	C3.513194,1642.826660 2.144822,1624.670166 2.143349,1606.407837 
	C2.103317,1110.112305 2.045746,613.816772 2.045709,117.521210 
	C2.045708,110.091949 2.384207,102.625252 3.175364,95.241455 
	C4.679811,81.200592 7.954464,67.527374 14.162587,54.774208 
	C35.205334,11.546694 67.715805,-0.515197 107.798370,3.228899 
	C129.220612,5.229941 148.542023,14.202024 166.849289,25.320683 
	C308.482300,111.339455 450.189453,197.236298 591.777832,283.328430 
	C845.112732,437.367523 1098.383789,591.511597 1351.671387,745.628540 
	C1375.833496,760.330383 1400.414429,774.395264 1422.293091,792.559448 
	C1434.767944,802.916321 1443.997437,815.439636 1449.137207,830.874268 
	C1450.477295,834.898682 1451.715210,838.957153 1453.000000,843.000000 
M907.986389,753.523926 
	C715.618469,638.941528 523.270935,524.325073 330.846222,409.838135 
	C314.475830,400.098236 297.610931,390.993774 278.597839,387.497711 
	C269.551422,385.834290 259.584961,385.222260 253.067871,393.208374 
	C248.320007,399.026489 243.996323,406.163605 242.375824,413.363647 
	C238.705475,429.671478 237.751938,446.409668 237.760025,463.233398 
	C237.886429,725.705933 237.835190,988.178528 237.900635,1250.651123 
	C237.903061,1260.419312 238.194046,1270.237183 239.203247,1279.943115 
	C240.543121,1292.829712 242.962006,1305.577515 248.963089,1317.294678 
	C256.490234,1331.991577 266.326019,1332.934570 278.977600,1330.362061 
	C300.139252,1326.059082 319.353973,1316.550171 337.799072,1305.619141 
	C447.285156,1240.735107 556.727539,1175.777222 666.149048,1110.784424 
	C746.101379,1063.295288 825.930664,1015.598511 905.956116,968.233032 
	C936.491333,950.159851 966.989502,932.096436 994.084900,908.961609 
	C1005.116394,899.542603 1016.108643,889.999573 1022.646118,876.608093 
	C1026.444336,868.828003 1027.757935,860.555054 1026.089844,852.048767 
	C1024.461914,843.747925 1020.738525,836.215576 1014.812866,830.238586 
	C1006.622986,821.977966 998.260254,813.800720 989.283447,806.425232 
	C964.360413,785.947815 935.734497,771.060791 907.986389,753.523926 
z"/>
<path fill="#FFFFFF" opacity="1.000000" stroke="none" 
	d="
M1453.000000,842.531372 
	C1451.715210,838.957153 1450.477295,834.898682 1449.137207,830.874268 
	C1443.997437,815.439636 1434.767944,802.916321 1422.293091,792.559448 
	C1400.414429,774.395264 1375.833496,760.330383 1351.671387,745.628540 
	C1098.383789,591.511597 845.112732,437.367523 591.777832,283.328430 
	C450.189453,197.236298 308.482300,111.339455 166.849289,25.320683 
	C148.542023,14.202024 129.220612,5.229941 107.798370,3.228899 
	C67.715805,-0.515197 35.205334,11.546694 14.162587,54.774208 
	C7.954464,67.527374 4.679811,81.200592 3.175364,95.241455 
	C2.384207,102.625252 2.045708,110.091949 2.045709,117.521210 
	C2.045746,613.816772 2.103317,1110.112305 2.143349,1606.407837 
	C2.144822,1624.670166 3.513194,1642.826660 9.664613,1660.109497 
	C19.939987,1688.979126 38.450611,1709.516968 69.800079,1716.680542 
	C47.002457,1717.000000 24.004913,1717.000000 1.005527,1717.000000 
	C1.003685,1145.063599 1.003685,573.127136 1.003685,1.095329 
	C484.884735,1.095329 968.769531,1.095329 1453.000000,1.095329 
	C1453.000000,281.354126 1453.000000,561.708435 1453.000000,842.531372 
z"/>
<path fill="#FFFFFF" opacity="1.000000" stroke="none" 
	d="
M107.468658,1717.000000 
	C115.504173,1714.520142 124.096581,1712.305176 132.494461,1709.506348 
	C150.825790,1703.396973 166.735916,1692.605225 183.066681,1682.681519 
	C392.222351,1555.584351 601.347473,1428.436768 810.504578,1301.342041 
	C1000.037048,1186.172241 1189.595825,1071.045654 1379.153198,955.916931 
	C1399.475342,943.574097 1418.513794,929.695190 1433.673340,911.091064 
	C1442.738281,899.966248 1449.286011,887.575623 1452.718994,873.247498 
	C1453.000000,1154.277222 1453.000000,1435.554443 1453.000000,1717.000000 
	C1004.645813,1717.000000 556.291565,1717.000000 107.468658,1717.000000 
z"/>
<path fill="#FFFFFF" opacity="1.000000" stroke="none" 
	d="
M908.292603,753.723511 
	C935.734497,771.060791 964.360413,785.947815 989.283447,806.425232 
	C998.260254,813.800720 1006.622986,821.977966 1014.812866,830.238586 
	C1020.738525,836.215576 1024.461914,843.747925 1026.089844,852.048767 
	C1027.757935,860.555054 1026.444336,868.828003 1022.646118,876.608093 
	C1016.108643,889.999573 1005.116394,899.542603 994.084900,908.961609 
	C966.989502,932.096436 936.491333,950.159851 905.956116,968.233032 
	C825.930664,1015.598511 746.101379,1063.295288 666.149048,1110.784424 
	C556.727539,1175.777222 447.285156,1240.735107 337.799072,1305.619141 
	C319.353973,1316.550171 300.139252,1326.059082 278.977600,1330.362061 
	C266.326019,1332.934570 256.490234,1331.991577 248.963089,1317.294678 
	C242.962006,1305.577515 240.543121,1292.829712 239.203247,1279.943115 
	C238.194046,1270.237183 237.903061,1260.419312 237.900635,1250.651123 
	C237.835190,988.178528 237.886429,725.705933 237.760025,463.233398 
	C237.751938,446.409668 238.705475,429.671478 242.375824,413.363647 
	C243.996323,406.163605 248.320007,399.026489 253.067871,393.208374 
	C259.584961,385.222260 269.551422,385.834290 278.597839,387.497711 
	C297.610931,390.993774 314.475830,400.098236 330.846222,409.838135 
	C523.270935,524.325073 715.618469,638.941528 908.292603,753.723511 
z"/>
</svg>