<svg version="1.1" id="Layer_1" xmlns="http://www.w3.org/2000/svg" xmlns:xlink="http://www.w3.org/1999/xlink" x="0px" y="0px"
	 width="100%" viewBox="0 0 616 579" enable-background="new 0 0 616 579" xml:space="preserve">
<path fill="#983430" opacity="1.000000" stroke="none" 
	d="
M379.531342,0.999998 
	C382.480927,1.680099 384.948151,2.415690 387.444885,3.031832 
	C416.483765,10.198092 438.801758,40.186516 436.786194,69.692078 
	C424.564423,69.692078 412.317108,69.692078 400.403564,69.692078 
	C399.230408,64.774239 398.848358,59.608498 396.789551,55.231422 
	C391.300812,43.562057 381.585297,38.146584 368.696411,38.155865 
	C317.040009,38.193066 265.383545,38.170731 213.727097,38.170731 
	C165.903229,38.170731 118.079353,38.153233 70.255501,38.182053 
	C55.565140,38.190907 43.929977,46.380112 40.517002,59.329411 
	C39.597034,62.819897 39.304787,66.566238 39.303349,70.195374 
	C39.245365,216.499725 39.272964,362.804108 39.220684,509.108490 
	C39.216118,521.883057 43.979408,531.950073 55.525463,537.730408 
	C59.654079,539.797302 64.787682,540.696655 69.464890,540.704285 
	C169.444824,540.867676 269.425110,540.861755 369.405273,540.797424 
	C387.685547,540.785706 399.465729,528.523743 399.587158,509.623871 
	C399.703827,491.461548 399.613312,473.297882 399.613861,455.134827 
	C399.613922,453.307709 399.613861,451.480621 399.613861,449.327240 
	C412.064606,449.327240 424.297760,449.327240 437.068176,449.327240 
	C437.068176,453.300476 437.068207,457.245361 437.068115,461.190216 
	C437.067841,477.520325 436.701904,493.860291 437.142975,510.178467 
	C438.075531,544.678040 410.330170,574.053101 378.490051,577.677856 
	C375.850983,577.978210 373.168884,577.986450 370.506775,577.986816 
	C269.693390,578.001343 168.879974,578.043457 68.066635,577.974731 
	C32.947338,577.950806 2.965887,549.231812 1.957016,514.031250 
	C1.989631,364.899994 1.995337,216.666168 1.992764,68.432327 
	C1.992744,67.271492 1.879994,66.110657 1.880304,64.516754 
	C3.218356,38.429173 16.704294,20.532307 38.289047,8.292071 
	C44.303612,4.881346 51.399937,3.378237 58.000000,1.000000 
	C165.020889,1.000000 272.041779,1.000000 379.531342,0.999998 
z"/>
<path fill="#FEFDFD" opacity="1.000000" stroke="none" 
	d="
M57.531342,1.000000 
	C51.399937,3.378237 44.303612,4.881346 38.289047,8.292071 
	C16.704294,20.532307 3.218356,38.429173 1.674084,64.508728 
	C1.407439,64.933754 1.000000,65.000000 1.000000,65.000000 
	C1.000000,43.744091 1.000000,22.488180 1.000000,1.000000 
	C19.686920,1.000000 38.374802,1.000000 57.531342,1.000000 
z"/>
<path fill="#E6D1D1" opacity="1.000000" stroke="none" 
	d="
M1.000000,65.462639 
	C1.000000,65.000000 1.407439,64.933754 1.613659,64.941788 
	C1.879994,66.110657 1.992744,67.271492 1.992764,68.432327 
	C1.995337,216.666168 1.989631,364.899994 1.897430,513.594055 
	C1.810527,514.054260 1.401823,514.078491 1.200912,514.039246 
	C1.000000,364.641754 1.000000,215.283524 1.000000,65.462639 
z"/>
<path fill="#993531" opacity="1.000000" stroke="none" 
	d="
M551.651245,168.353760 
	C566.800659,205.629700 585.615540,240.304901 611.773499,270.662811 
	C613.378296,272.525208 615.710632,274.372620 613.327332,277.002716 
	C612.087280,278.371185 610.198181,280.141510 608.649475,280.096710 
	C561.733643,278.739349 516.695740,288.199310 472.660553,303.458160 
	C460.272308,307.750885 447.999908,312.377777 434.983398,317.102173 
	C434.983398,309.603729 434.844147,302.370850 435.130066,295.154816 
	C435.174164,294.042267 436.982452,292.539673 438.295105,292.007874 
	C452.477814,286.262177 466.722626,280.669769 480.956818,275.051514 
	C482.503113,274.441162 484.115479,273.995544 485.652069,273.363739 
	C491.703247,270.875610 497.710327,267.676025 497.847534,260.360504 
	C498.000458,252.208145 494.154510,245.385941 486.533630,241.778839 
	C467.272552,232.662262 447.831482,223.926834 428.520142,214.915161 
	C416.303894,209.214417 404.276825,203.102356 391.996521,197.547073 
	C385.658936,194.680145 379.084717,192.157867 372.392212,190.284500 
	C341.439484,181.620270 310.133514,177.787186 278.266235,184.874832 
	C226.298050,196.433197 187.836807,225.811035 164.016998,273.395294 
	C146.055054,309.277405 129.219177,345.723145 111.875229,381.914734 
	C110.954468,383.836121 109.969925,385.726959 108.861877,387.937683 
	C95.167953,381.390320 81.858040,375.026581 68.256149,368.523224 
	C68.850098,367.074097 69.272308,365.872223 69.820641,364.730957 
	C88.219299,326.435913 106.082687,287.871185 125.180275,249.927689 
	C148.004745,204.579544 183.806305,172.500549 230.401474,152.818268 
	C276.309631,133.426163 323.465546,132.246521 371.822052,143.213531 
	C399.109100,149.402100 422.912842,162.939728 447.867371,174.184540 
	C467.737000,183.138046 487.442169,192.456192 507.297913,201.441025 
	C521.984375,208.086731 531.912903,201.297958 530.919495,185.264969 
	C530.676331,181.340042 529.537170,177.411316 528.386902,173.612411 
	C523.906738,158.815964 519.250549,144.072830 514.680420,129.303497 
	C514.295715,128.060165 514.064453,126.769363 513.694153,125.216286 
	C521.151123,125.216286 528.264771,125.216286 535.403137,125.216286 
	C540.756897,139.468430 546.117554,153.739105 551.651245,168.353760 
z"/>
</svg>