<svg enable-background="new 0 0 612 678" viewBox="0 0 612 678" xmlns="http://www.w3.org/2000/svg"><path d="m371 679c-123.666641 0-246.83329 0-369.99995 0-.000017-225.999939-.000017-451.999878-.000033-677.999859 203.999876-.000047 407.999769-.000047 611.999739-.000094.000122 225.999816.000122 451.999678.000183 677.999709-80.499939.000244-160.999939.000244-241.999939.000244m-37.998505-193.5c-.000091-23.496521-.03659-46.993134.014038-70.489532.028138-13.053162-1.265655-25.901093-5.09732-38.444397-8.048981-26.34903-24.830994-44.344391-51.567383-51.532441-37.709091-10.138031-73.980423-5.618011-108.012604 13.7659-10.365112 5.903717-20.065811 12.973938-30.040924 19.490418-5.090896-13.519257-12.162193-21.305024-17.55323-25.377717-14.325256-10.822204-30.846359-13.597106-48.201027-12.746887-31.253899 1.531159-49.92279 18.881195-53.052937 48.965821-3.325239 31.959747 13.871617 55.601989 44.5919 60.365173 7.377221 1.143799 15.082802.169861 22.636948.169861v122.274414c-5.425385-.300232-10.597664-1.023621-15.715782-.746521-5.107224.27655-10.32745 1.004883-15.208611 2.488037-23.887886 7.258728-37.479456 27.883484-36.560312 54.902222.908079 26.693542 13.958559 44.316711 38.244188 50.905517 11.03376 2.99353 22.371682 3.337158 33.696068 1.518067 23.887924-3.837342 41.148903-16.027283 47.909889-40.009034 2.220459-7.876159 2.930542-16.403076 2.957795-24.637024.225174-67.989929.150573-135.980957.056839-203.971496-.004548-3.302612.828872-5.582031 3.510604-7.584381 5.600602-4.182007 10.852509-8.834198 16.486542-12.967621 20.928909-15.354523 44.057678-23.651611 70.389053-22.100372 22.306885 1.314117 36.118775 11.164123 41.180481 32.9458 3.018097 12.98761 3.92978 26.703186 3.991791 40.099823.355591 76.821137.172974 153.644776.172974 230.467591v6.250732c6.603058 0 12.757385.23523 18.876495-.126099 2.176697-.12854 4.817169-1.17279 6.308197-2.709167 9.166443-9.445129 18.175568-19.05127 26.9534-28.857788 1.663422-1.85846 2.898193-4.852295 2.907745-7.327759.171936-44.659851.125183-89.320618.125183-134.98114m188.925385-119.851746c1.335022 2.675629 2.792358 5.298066 3.983887 8.036133 5.115356 11.754822 5.49292 24.239533 5.493652 36.767426.004822 80.972931.002685 161.945892.002869 242.918792v6.222107c6.835205 0 13.143798.20752 19.424621-.119018 2.037049-.106018 4.522217-1.10968 5.914429-2.556885 9.007751-9.363708 17.687683-19.042358 26.66626-28.434875 2.473571-2.587586 3.522949-5.16034 3.516967-8.794373-.111206-67.477234-.055847-134.954773-.119201-202.432129-.006775-7.153717-.197449-14.339416-.88031-21.454864-3.208863-33.435944-19.731873-57.288453-51.837586-68.570618-29.900116-10.507202-60.190429-9.733673-90.169647.275391-18.259674 6.096313-32.459534 17.519867-41.724182 34.490539-8.852264 16.215302-10.53363 33.804291-8.611816 51.882355 1.367889 12.867248 6.414276 24.0401 15.772583 33.116791 14.292846 13.862762 31.661193 17.196228 50.76828 15.062408 25.356628-2.831787 42.911285-21.912903 43.230438-47.318329.276275-21.99649-13.1857-39.979828-33.473084-44.520019-15.095978-3.378357-29.41391-1.446442-42.801422 6.591339-1.112793.668152-2.658417.615387-4.00293.897583.113312-1.331391-.206665-2.929169.418427-3.945954 2.167206-3.524993 4.292389-7.194976 7.096252-10.189239 13.880494-14.82309 31.620392-19.481018 51.239075-18.713745 16.299103.63739 30.278229 5.97113 40.092438 20.789184m-288.685486-112.610733c5.217728 10.499039 13.198746 18.09282 23.805939 23.091874 17.253723 8.131469 35.26654 8.553436 53.59732 5.39035 11.343201-1.957337 21.734284-6.34372 30.117188-14.404663 14.682525-14.118546 17.467529-31.903748 14.464447-51.012757-3.059784-19.469818-14.530976-32.485244-32.803192-39.140655-19.722534-7.183716-39.817414-7.122177-59.618836-.280228-15.770782 5.449234-27.085342 15.927292-32.032791 32.247528-4.443695 14.658478-3.701675 29.192017 2.469925 44.108551m35.667236-214.537407c.035736 8.487462-.76297 17.07761.26651 25.442776 2.874939 23.360882 6.478608 46.632778 9.92273 69.920864.173431 1.17273 1.522186 3.07666 2.371643 3.103195 7.740326.241669 15.491272.141877 23.252716.141877 1.735992-11.696831 3.430939-22.663971 4.977325-33.652016 1.893921-13.457611 4.393677-26.884666 5.284333-40.41362.916443-13.920609.09787-27.949551.291351-41.927589.051331-3.707676-1.444946-4.409985-4.720428-4.372734-12.481141.141944-24.964905.044458-37.447571.077907-1.262879.003384-2.525025.286602-4.198792.489914 0 6.933754 0 13.561623.000183 21.189426z" fill="#fff"/><path d="m333.001495 486c0 45.160522.046753 89.821289-.125183 134.48114-.009552 2.475464-1.244323 5.469299-2.907745 7.327759-8.777832 9.806518-17.786957 19.412659-26.9534 28.857788-1.491028 1.536377-4.1315 2.580627-6.308197 2.709167-6.11911.361329-12.273437.126099-18.876495.126099 0-2.34314 0-4.296936 0-6.250732 0-76.822815.182617-153.646454-.172974-230.467591-.062011-13.396637-.973694-27.112213-3.991791-40.099823-5.061706-21.781677-18.873596-31.631683-41.180481-32.9458-26.331375-1.551239-49.460144 6.745849-70.389053 22.100372-5.634033 4.133423-10.88594 8.785614-16.486542 12.967621-2.681732 2.00235-3.515152 4.281769-3.510604 7.584381.093734 67.990539.168335 135.981567-.056839 203.971496-.027253 8.233948-.737336 16.760865-2.957795 24.637024-6.760986 23.981751-24.021965 36.171692-47.909889 40.009034-11.324386 1.819091-22.662308 1.475463-33.696068-1.518067-24.285629-6.588806-37.336109-24.211975-38.244188-50.905517-.919144-27.018738 12.672426-47.643494 36.560312-54.902222 4.881161-1.483154 10.101387-2.211487 15.208611-2.488037 5.118118-.2771 10.290397.446289 15.715782.746521 0-40.716736 0-81.472138 0-122.274414-7.554146 0-15.259727.973938-22.636948-.169861-30.720283-4.763184-47.917139-28.405426-44.5919-60.365173 3.130147-30.084626 21.799038-47.434662 53.052937-48.965821 17.354668-.850219 33.875771 1.924683 48.201027 12.746887 5.391037 4.072693 12.462334 11.85846 17.55323 25.377717 9.975113-6.51648 19.675812-13.586701 30.040924-19.490418 34.032181-19.383911 70.303513-23.903931 108.012604-13.7659 26.736389 7.18805 43.518402 25.183411 51.567383 51.532441 3.831665 12.543304 5.125458 25.391235 5.09732 38.444397-.050628 23.496398-.014129 46.993011-.014038 70.989532m-281.24472 139.571289c6.535355 11.636963 17.338318 13.346497 29.212181 12.547363 12.546623-.84436 20.423218-7.178833 23.169594-19.473571 1.070762-4.79358 1.253631-9.899048 1.082542-14.836121-.615059-17.748291-10.287964-27.13971-27.969085-27.595886-13.492222-.348206-23.949337 6.084655-27.234761 17.394104-3.048027 10.492187-2.926536 21.034485 1.739529 31.964111m18.362694-220.775085c3.486343.062957 6.981971.320404 10.457405.154571 13.67614-.652435 23.023903-9.300201 24.441665-22.897919.496811-4.764892 1.035721-9.846099-.083206-14.378295-1.429031-5.7883-3.216629-12.437104-7.151832-16.46698-9.17743-9.398163-21.312806-9.252106-33.065087-5.694428-10.635704 3.219666-15.097732 11.815888-16.228519 22.334168-1.831574 17.036895 1.945263 33.244751 21.629574 36.948883z" fill="#010101"/><path d="m521.750854 365.329071c-9.638183-14.498871-23.617309-19.832611-39.916412-20.470001-19.618683-.767273-37.358581 3.890655-51.239075 18.713745-2.803863 2.994263-4.929046 6.664246-7.096252 10.189239-.625092 1.016785-.305115 2.614563-.418427 3.945954 1.344513-.282196 2.890137-.229431 4.00293-.897583 13.387512-8.037781 27.705444-9.969696 42.801422-6.591339 20.287384 4.540191 33.749359 22.523529 33.473084 44.520019-.319153 25.405426-17.87381 44.486542-43.230438 47.318329-19.107087 2.13382-36.475434-1.199646-50.76828-15.062408-9.358307-9.076691-14.404694-20.249543-15.772583-33.116791-1.921814-18.078064-.240448-35.667053 8.611816-51.882355 9.264648-16.970672 23.464508-28.394226 41.724182-34.490539 29.979218-10.009064 60.269531-10.782593 90.169647-.275391 32.105713 11.282165 48.628723 35.134674 51.837586 68.570618.682861 7.115448.873535 14.301147.88031 21.454864.063354 67.477356.007995 134.954895.119201 202.432129.005982 3.634033-1.043396 6.206787-3.516967 8.794373-8.978577 9.392517-17.658509 19.071167-26.66626 28.434875-1.392212 1.447205-3.87738 2.450867-5.914429 2.556885-6.280823.326538-12.589416.119018-19.424621.119018 0-2.329467 0-4.275756 0-6.222107-.000184-80.9729.001953-161.945861-.002869-242.918792-.000732-12.527893-.378296-25.012604-5.493652-36.767426-1.191529-2.738067-2.648865-5.360504-4.159913-8.355316m-86.997802 65.306152c8.59143 10.756958 24.446655 12.525605 35.114166 3.916901 9.363647-7.556488 11.140594-24.345093 3.584229-33.86264-7.932709-9.991425-24.791565-11.621613-35.104584-3.394349-8.697174 6.938202-10.403412 20.684968-3.593811 33.340088z" fill="#c47034"/><path d="m233.097046 252.682953c-6.027252-14.561966-6.769272-29.095505-2.325577-43.753983 4.947449-16.320236 16.262009-26.798294 32.032791-32.247528 19.801422-6.841949 39.896302-6.903488 59.618836.280228 18.272216 6.655411 29.743408 19.670837 32.803192 39.140655 3.003082 19.109009.218078 36.894211-14.464447 51.012757-8.382904 8.060943-18.773987 12.447326-30.117188 14.404663-18.33078 3.163086-36.343597 2.741119-53.59732-5.39035-10.607193-4.999054-18.588211-12.592835-23.950287-23.446442m39.635773.095383c8.627716 7.696243 18.758392 7.354202 29.131866 5.315353 6.512207-1.279938 10.924896-5.353134 13.717743-11.24028 4.471344-9.425324 4.461334-19.44606 2.766815-29.321991-3.471069-20.230393-27.658111-29.138504-43.898712-16.409577-1.668854 1.307984-3.165527 2.983429-4.334839 4.756897-7.228241 10.963166-6.788788 37.748169 2.617127 46.899598z" fill="#c47034"/><path d="m268.908539 38.000145c-.000092-7.127834-.000092-13.755703-.000092-20.689457 1.673767-.203312 2.935913-.48653 4.198792-.489914 12.482666-.033449 24.96643.064037 37.447571-.077907 3.275482-.037251 4.771759.665058 4.720428 4.372734-.193481 13.978038.625092 28.00698-.291351 41.927589-.890656 13.528954-3.390412 26.956009-5.284333 40.41362-1.546386 10.988045-3.241333 21.955185-4.977325 33.652016-7.761444 0-15.51239.099792-23.252716-.141877-.849457-.026535-2.198212-1.930465-2.371643-3.103195-3.444122-23.288086-7.047791-46.559982-9.92273-69.920864-1.02948-8.365166-.230774-16.955314-.266601-25.942745z" fill="#cdb591"/><path d="m51.576099 625.23761c-4.485389-10.595947-4.60688-21.138245-1.558853-31.630432 3.285424-11.309449 13.742539-17.74231 27.234761-17.394104 17.681121.456176 27.354026 9.847595 27.969085 27.595886.171089 4.937073-.01178 10.042541-1.082542 14.836121-2.746376 12.294738-10.622971 18.629211-23.169594 19.473571-11.873863.799134-22.676826-.9104-29.392857-12.881042z" fill="#fdfdfd"/><path d="m69.696304 404.688171c-19.261146-3.596099-23.037983-19.803955-21.206409-36.84085 1.130787-10.51828 5.592815-19.114502 16.228519-22.334168 11.752281-3.557678 23.887657-3.703735 33.065087 5.694428 3.935203 4.029876 5.722801 10.67868 7.151832 16.46698 1.118927 4.532196.580017 9.613403.083206 14.378295-1.417762 13.597718-10.765525 22.245484-24.441665 22.897919-3.475434.165833-6.971062-.091614-10.88057-.262604z" fill="#fdfdfd"/><path d="m434.515747 430.354004c-6.572296-12.373901-4.866058-26.120667 3.831116-33.058869 10.313019-8.227264 27.171875-6.597076 35.104584 3.394349 7.556365 9.517547 5.779418 26.306152-3.584229 33.86264-10.667511 8.608704-26.522736 6.840057-35.351471-4.19812z" fill="#fefdfc"/><path d="m272.477936 252.523315c-9.151032-8.896408-9.590485-35.681411-2.362244-46.644577 1.169312-1.773468 2.665985-3.448913 4.334839-4.756897 16.240601-12.728927 40.427643-3.820816 43.898712 16.409577 1.694519 9.875931 1.704529 19.896667-2.766815 29.321991-2.792847 5.887146-7.205536 9.960342-13.717743 11.24028-10.373474 2.038849-20.50415 2.38089-29.386749-5.570374z" fill="#fefdfd"/></svg>