<svg enable-background="new 0 0 1322 634" viewBox="0 0 1322 634" xmlns="http://www.w3.org/2000/svg"><path d="m984 635c-327.958191 0-655.416321 0-982.937251 0 0-211.264496 0-422.529007 0-633.89676h1321.915522v633.89676c-112.840698 0-225.659423 0-338.978271 0m-510.84436-378.167267c-.696961-3.739639.96466-6.213409 3.917724-8.408127 5.343628-3.971374 10.309906-8.455551 15.697846-12.361343 21.424469-15.53096 44.96817-24.145111 71.891327-22.271271 21.666992 1.508026 35.655395 11.902893 40.143798 32.997528 2.745911 12.90567 3.954773 26.361237 4.016602 39.57843.360352 76.984284.176514 153.9711.176514 230.957062v6.265686c6.708984 0 12.860229.24939 18.971862-.13324 2.184693-.136718 4.808045-1.28717 6.318543-2.854492 9.017456-9.356537 17.894836-18.858154 26.503357-28.590454 1.759338-1.989013 3.070068-5.165832 3.076416-7.798736.165344-68.320465.252746-136.641907-.001038-204.961823-.038025-10.252502-.980163-20.669006-2.984619-30.714249-5.20636-26.091232-19.118652-45.896621-44.339294-56.354568-21.704956-9.000168-44.429566-9.724091-67.309143-6.662384-28.166687 3.769165-52.499268 16.433441-74.67627 33.688248-1.490784 1.159851-3.04483 2.238433-4.910461 3.604538-3.881562-10.632492-9.043305-19.681824-17.785645-25.710358-23.360138-16.108673-48.686798-17.722855-74.001465-6.294083-21.885437 9.88057-28.468628 29.617356-27.503326 52.206833 1.08963 25.499664 14.828094 43.411041 38.466431 49.116425 9.190551 2.218292 19.019378 1.791992 28.894622 2.59787v121.110473c-.923462.058594-1.57965.177735-2.22171.124817-1.326385-.109314-2.641937-.345032-3.96759-.468384-18.986023-1.76654-35.722351 2.912232-48.719391 17.561982-7.819733 8.814117-11.151337 19.636962-12.211121 31.11029-2.510192 27.175018 8.713227 51.187958 37.573944 59.202911 11.199463 3.110169 22.695282 3.506836 34.16922 1.609253 23.584107-3.900329 41.009247-15.679687 47.657074-39.627838 2.191071-7.89328 2.99646-16.398651 3.024659-24.628998.231964-67.653533.131134-135.308197.131134-203.891998m686.805175 73.639221c3.994019-6.433044 9.139649-12.435272 11.741578-19.38919 5.348877-14.295563 4.947876-29.278382.092895-43.645996-5.92688-17.539826-17.984253-29.305146-36.754272-31.917878-9.014649-1.254791-18.371582-.050262-26.806397.032944 4.362549-5.516891 11.05896-10.328857 18.818237-13.599869 24.56482-10.35556 49.942994-10.803497 75.423218-4.768844 18.756958 4.442322 32.300415 15.857147 39.716431 34.024032 5.229492 12.810669 7.744751 26.197876 7.774292 39.940094.155884 72.315491.253174 144.631836.015015 216.946686-.033936 10.247009-1.119996 20.67926-3.268433 30.693421-5.446167 25.38507-19.828125 43.245178-45.757324 50.205566-15.514527 4.164734-31.323243 4.673828-47.051392 2.020447-27.138916-4.578553-41.423584-18.692627-46.529541-45.631653-1.565063-8.257874-2.002563-16.729492-3.084961-26.231568-9.604492 1.492127-19.375122 2.428345-28.844116 4.650513-8.82312 2.070679-15.404297 8.007508-17.015259 17.100891-1.192749 6.7323-1.401855 14.076172-.050415 20.74231 4.56665 22.523559 20.106201 36.087707 39.856567 45.503052 19.038331 9.075988 39.383057 13.249145 60.310669 14.360656 31.227784 1.658631 62.025635-.590515 90.962891-13.754211 22.687012-10.320496 39.494995-26.627197 48.75415-50.275086 5.5719-14.230773 7.241456-28.965637 7.240601-44.044738-.003662-70.983246.050415-141.966584-.068726-212.949616-.014526-8.634613-.33142-17.357483-1.567749-25.885803-5.037353-34.746994-22.895385-60.472839-54.807006-75.906067-18.421631-8.909149-38.136353-12.744156-58.354004-14.000763-29.176392-1.813415-57.987915-.249451-85.094605 12.290344-23.894897 11.053955-39.904663 28.826264-45.902221 54.94278-3.669678 15.979004-3.716187 32.137939-1.444092 48.180145 3.236816 22.85318 18.122192 38.481507 40.453613 43.345398 5.494507 1.196778 11.209839 1.72348 16.842407 1.878754 16.285889.449005 31.456421-2.86731 44.397949-14.856751m-339.981567 192.179413c23.823914 3.525147 47.745117 4.530213 71.729614 2.217346 21.617188-2.084594 42.937622-5.623901 62.666138-15.433929 29.816162-14.826141 47.356445-38.785919 48.102112-72.098328 1.151977-51.464752.588135-102.977081.134277-154.463806-.161072-18.278778-5.585449-35.457962-16.110046-50.689575-16.165039-23.394638-39.534607-35.926422-66.423523-41.936417-39.728211-8.879684-79.651856-8.71907-119.32428.854889-19.966919 4.818527-38.72113 12.381607-53.784729 27.057541-9.631836 9.383881-15.887634 20.554382-16.682007 34.192917-.608764 10.45192.797425 20.552811 9.848633 27.467331 11.247864 8.592682 24.328552 8.391907 37.637207 7.545532.423462-5.272156.891113-9.901947 1.152466-14.543335 1.666382-29.593536 17.934753-49.12825 46.737488-55.95076 18.40216-4.358932 37.044311-3.726715 55.667358-2.223678 14.102905 1.138229 27.666626 4.601181 39.596008 12.518554 17.030945 11.303238 24.085572 28.345566 25.949952 47.882233.868347 9.099823 1.052917 18.290436 1.075683 27.441071.105957 42.493744.107422 84.988067.012756 127.481903-.03186 14.311462-1.667968 28.399811-10.173522 40.540771-10.154175 14.494202-25.223511 20.653565-41.961182 23.486176-20.524414 3.47348-41.166809 3.053467-61.739563.735504-15.093872-1.700653-29.937927-4.849121-43.416138-12.366181-3.157715-1.761138-5.938415-4.198394-8.892578-6.324584 7.11615-1.006257 13.596802-.647492 20.026123-1.070252 23.92981-1.573456 41.376709-16.446014 45.95575-39.951019 1.505493-7.727906 1.63977-15.944336 1.00769-23.825653-1.885254-23.507599-18.026977-41.172699-41.226257-44.98111-8.289063-1.360687-16.947632-1.641327-25.334412-1.020782-27.595642 2.041687-46.029297 18.465606-49.669922 45.340911-1.65979 12.252381-1.51831 24.997925-.307312 37.334626 2.092835 21.320312 11.974854 38.80484 29.385132 51.858429 17.144043 12.853973 36.978516 18.619598 58.361084 22.923675m-519.548431-19.824798c7.15097-12.925629 9.462066-26.508057 7.799194-41.347931-3.601624-32.141205-31.063568-49.86673-60.589661-45.919007-2.247177.300446-4.537918.275116-7.43869.436188 0-2.472778-.000015-4.426239-.000015-6.3797 0-66.832733.000061-133.665466-.000015-200.498184-.000016-5.666611-.138825-11.337921.052917-16.998016.107468-3.171738-.829895-4.5392-4.207748-4.378571-4.822373.229325-9.694306-.262756-14.484146.193268-2.368561.22551-5.179017 1.320725-6.798127 2.986237-8.588119 8.834228-16.719818 18.112503-25.318802 26.935623-3.12973 3.211334-4.467941 6.386764-4.45932 10.939377.144089 75.999038.080964 151.998459.143876 227.997726.005081 6.140656.113311 12.351166 1.00299 18.407349 2.17186 14.784057 8.062989 27.629699 20.257508 37.134094 15.26831 11.900085 32.88266 14.791199 51.400207 13.326782 17.06131-1.349426 32.049835-7.428955 42.639832-22.835235m-183.456871-80.386414c-13.306061-7.956116-27.882607-8.470062-43.209664-6.248322 0-76.615295 0-152.182678 0-228.393325-6.556495 0-12.689296-.303421-18.766388.146179-2.5051.185333-5.502762 1.391251-7.226951 3.15744-8.602539 8.812134-16.752938 18.064255-25.294762 26.937897-2.613424 2.714966-3.765711 5.398895-3.757885 9.215195.116133 56.640625.07123 113.281524.08436 169.922393.0056 24.155457-.46583 48.326447.250475 72.461548.592518 19.964142 8.974562 36.237274 26.633766 46.891297 13.982716 8.435974 29.350579 10.436828 45.196434 9.147033 12.065842-.982116 23.62751-4.072021 33.147827-12.237427 15.689682-13.456817 19.364914-31.297943 17.547318-50.657836-1.589066-16.92566-9.056427-30.802826-24.60453-40.342072m743.579826-259.629822c43.857239 9.692337 86.954468 22.022248 129.643249 36.689118-2.253479 6.51918-4.295715 12.427322-6.592407 19.071594 18.607605-2.276321 36.437561-4.457504 55.409668-6.778412-13.391723-13.937042-25.847595-26.90007-38.664551-40.238922-2.472045 6.673737-4.634521 12.511917-6.755065 18.236786-.910645-.147705-1.251404-.154755-1.558777-.259628-86.074341-29.371827-174.141053-49.587082-264.825135-57.933243-68.115966-6.269104-136.128296-5.579697-204.031555 2.686508-75.73056 9.219009-149.198608 27.654709-220.540619 54.634293-1.017456.38478-2.093261.615325-3.284088.958923-2.465118-5.940872-4.803589-11.576584-7.463836-17.987747-12.413819 14.100998-24.295655 27.597702-36.922333 41.940506 19.140716 1.494415 36.951782 2.885025 55.595215 4.340622-2.597626-6.725632-4.84668-12.548737-7.246643-18.762558 5.688781-2.112442 10.95755-4.112076 16.255889-6.029938 94.9021-34.352142 192.756501-53.117325 293.692597-55.594818 42.866943-1.052185 85.626953.645553 128.256103 5.264862 39.767151 4.309158 79.189515 10.755951 119.032288 19.762054m34.136841-69.598533c5.008972-25.278534 4.757202-50.802201 4.04956-76.208298-15.92511 0-31.357849 0-46.387207 0-4.180969 41.213646 4.539124 81.004669 10.031983 121.087456h25.77539c2.125-14.762436 4.230957-29.392151 6.530274-44.879158z" fill="#fff"/><path d="m473.155701 257.297485c-.000061 68.119049.100769 135.773713-.131195 203.427246-.028199 8.230347-.833588 16.735718-3.024659 24.628998-6.647827 23.948151-24.072967 35.727509-47.657074 39.627838-11.473938 1.897583-22.969757 1.500916-34.16922-1.609253-28.860717-8.014953-40.084136-32.027893-37.573944-59.202911 1.059784-11.473328 4.391388-22.296173 12.211121-31.11029 12.99704-14.64975 29.733368-19.328522 48.719391-17.561982 1.325653.123352 2.641205.35907 3.96759.468384.64206.052918 1.298248-.066223 2.22171-.124817 0-40.82196 0-81.561432 0-121.110473-9.875244-.805878-19.704071-.379578-28.894622-2.59787-23.638337-5.705384-37.376801-23.616761-38.466431-49.116425-.965302-22.589477 5.617889-42.326263 27.503326-52.206833 25.314667-11.428772 50.641327-9.81459 74.001465 6.294083 8.74234 6.028534 13.904083 15.077866 17.785645 25.710358 1.865631-1.366105 3.419677-2.444687 4.910461-3.604538 22.177002-17.254807 46.509583-29.919083 74.67627-33.688248 22.879577-3.061707 45.604187-2.337784 67.309143 6.662384 25.220642 10.457947 39.132934 30.263336 44.339294 56.354568 2.004456 10.045243 2.946594 20.461747 2.984619 30.714249.253784 68.319916.166382 136.641358.001038 204.961823-.006348 2.632904-1.317078 5.809723-3.076416 7.798736-8.608521 9.7323-17.485901 19.233917-26.503357 28.590454-1.510498 1.567322-4.13385 2.717774-6.318543 2.854492-6.111633.38263-12.262878.13324-18.971862.13324 0-2.387878 0-4.326782 0-6.265686 0-76.985962.183838-153.972778-.176514-230.957062-.061829-13.217193-1.270691-26.67276-4.016602-39.57843-4.488403-21.094635-18.476806-31.489502-40.143798-32.997528-26.923157-1.87384-50.466858 6.740311-71.891327 22.271271-5.38794 3.905792-10.354218 8.389969-15.697846 12.361343-2.953064 2.194718-4.614685 4.668488-3.917663 8.872879m-73.303711 183.761078c-12.591584 2.493653-18.528046 11.044739-20.179077 22.955384-2.55365 18.422027 2.660217 37.987518 27.215057 38.451355 15.443787.291717 26.334381-7.162171 28.853973-21.006745.535126-2.94046 1.052002-5.956207.978608-8.922455-.255219-10.312011-1.214447-20.542114-10.64441-27.188232-7.68219-5.414276-16.431427-5.770294-26.224151-4.289307m-2.226715-232.142883c-7.799744 2.026916-13.118378 6.715881-15.88913 14.379547-2.967804 8.208664-3.473419 16.522492-1.664246 25.018555 2.438324 11.450592 9.105622 18.734436 20.935517 20.302582 4.565918.605224 9.381256.736846 13.903686-.00644 12.752686-2.096008 19.779572-9.961761 21.221283-22.822952.203797-1.817795.579834-3.637085.572571-5.454483-.061737-15.43895-3.489654-25.390198-15.279205-30.327957-7.441742-3.116806-15.214417-2.952744-23.800476-1.088852z" fill="#c47034"/><path d="m1159.70459 330.716797c-12.685303 11.744598-27.855835 15.060913-44.141724 14.611908-5.632568-.155274-11.3479-.681976-16.842407-1.878754-22.331421-4.863891-37.216797-20.492218-40.453613-43.345398-2.272095-16.042206-2.225586-32.201141 1.444092-48.180145 5.997558-26.116516 22.007324-43.888825 45.902221-54.94278 27.10669-12.539795 55.918213-14.103759 85.094605-12.290344 20.217651 1.256607 39.932373 5.091614 58.354004 14.000763 31.911621 15.433228 49.769653 41.159073 54.807006 75.906067 1.236329 8.52832 1.553223 17.25119 1.567749 25.885803.119141 70.983032.065064 141.96637.068726 212.949616.000855 15.079101-1.668701 29.813965-7.240601 44.044738-9.259155 23.647889-26.067138 39.95459-48.75415 50.275086-28.937256 13.163696-59.735107 15.412842-90.962891 13.754211-20.927612-1.111511-41.272338-5.284668-60.310669-14.360656-19.750366-9.415345-35.289917-22.979493-39.856567-45.503052-1.35144-6.666138-1.142334-14.01001.050415-20.74231 1.610962-9.093383 8.192139-15.030212 17.015259-17.100891 9.468994-2.222168 19.239624-3.158386 28.844116-4.650513 1.082398 9.502076 1.519898 17.973694 3.084961 26.231568 5.105957 26.939026 19.390625 41.0531 46.529541 45.631653 15.728149 2.653381 31.536865 2.144287 47.051392-2.020447 25.929199-6.960388 40.311157-24.820496 45.757324-50.205566 2.148437-10.014161 3.234497-20.446412 3.268433-30.693421.238159-72.31485.140869-144.631195-.015015-216.946686-.029541-13.742218-2.5448-27.129425-7.774292-39.940094-7.416016-18.166885-20.959473-29.58171-39.716431-34.024032-25.480224-6.034653-50.858398-5.586716-75.423218 4.768844-7.759277 3.271012-14.455688 8.082978-18.818237 13.599869 8.434815-.083206 17.791748-1.287735 26.806397-.032944 18.770019 2.612732 30.827392 14.378052 36.754272 31.917878 4.854981 14.367614 5.255982 29.350433-.092895 43.645996-2.601929 6.953918-7.747559 12.956146-11.997803 19.634033m-39.38147-10.679382c14.678101-.666474 23.447266-8.220032 25.472656-22.392365.58313-4.080841.541138-8.322113.223755-12.446594-.816528-10.61026-4.741577-19.645142-15.393432-23.633911-11.699219-4.380982-23.490967-4.188813-33.619873 3.903808-10.765381 8.601319-12.582032 30.772827-4.302613 43.322754 6.396851 9.696259 16.115601 11.477051 27.619507 11.246308z" fill="#020202"/><path d="m819.568115 522.522705c-20.971435-4.175415-40.805908-9.94104-57.949951-22.795013-17.410278-13.053589-27.292297-30.538117-29.385132-51.858429-1.210998-12.336701-1.352478-25.082245.307312-37.334626 3.640625-26.875305 22.07428-43.299224 49.669922-45.340911 8.38678-.620545 17.045349-.339905 25.334412 1.020782 23.19928 3.808411 39.341003 21.473511 41.226257 44.98111.63208 7.881317.497803 16.097747-1.00769 23.825653-4.579041 23.505005-22.02594 38.377563-45.95575 39.951019-6.429321.42276-12.909973.063995-20.026123 1.070252 2.954163 2.12619 5.734863 4.563446 8.892578 6.324584 13.478211 7.51706 28.322266 10.665528 43.416138 12.366181 20.572754 2.317963 41.215149 2.737976 61.739563-.735504 16.737671-2.832611 31.807007-8.991974 41.961182-23.486176 8.505554-12.14096 10.141662-26.229309 10.173522-40.540771.094666-42.493836.093201-84.988159-.012756-127.481903-.022766-9.150635-.207336-18.341248-1.075683-27.441071-1.86438-19.536667-8.919007-36.578995-25.949952-47.882233-11.929382-7.917373-25.493103-11.380325-39.596008-12.518554-18.623047-1.503037-37.265198-2.135254-55.667358 2.223678-28.802735 6.82251-45.071106 26.357224-46.737488 55.95076-.261353 4.641388-.729004 9.271179-1.152466 14.543335-13.308655.846375-26.389343 1.04715-37.637207-7.545532-9.051208-6.91452-10.457397-17.015411-9.848633-27.467331.794373-13.638535 7.050171-24.809036 16.682007-34.192917 15.063599-14.675934 33.81781-22.239014 53.784729-27.057541 39.672424-9.573959 79.596069-9.734573 119.32428-.854889 26.888916 6.009995 50.258484 18.541779 66.423523 41.936417 10.524597 15.231613 15.948974 32.410797 16.110046 50.689575.453858 51.486725 1.0177 102.999054-.134277 154.463806-.745667 33.312409-18.28595 57.272187-48.102112 72.098328-19.728516 9.810028-41.04895 13.349335-62.666138 15.433929-23.984497 2.312867-47.9057 1.307801-72.140747-2.346008m-40.164245-130.820099c-2.59784 1.431641-5.437378 2.552216-7.750977 4.34964-9.256714 7.191467-9.954895 17.439026-9.583801 28.008545.496948 14.154572 8.147461 23.34787 21.93457 26.302917 15.713806 3.367981 29.626465-3.130187 34.41272-16.518829 1.429993-3.999969 1.975952-8.42569 2.270996-12.701599.978943-14.188202-5.057068-25.390137-15.997925-29.30661-8.02362-2.872223-16.311401-2.708435-25.285583-.134064z" fill="#c47034"/><path d="m300.223755 503.124817c-10.382935 15.108032-25.37146 21.187561-42.43277 22.536987-18.517547 1.464417-36.131897-1.426697-51.400207-13.326782-12.194519-9.504395-18.085648-22.350037-20.257508-37.134094-.889679-6.056183-.997909-12.266693-1.00299-18.407349-.062912-75.999267.000213-151.998688-.143876-227.997726-.008621-4.552613 1.32959-7.728043 4.45932-10.939377 8.598984-8.82312 16.730683-18.101395 25.318802-26.935623 1.61911-1.665512 4.429566-2.760727 6.798127-2.986237 4.78984-.456024 9.661773.036057 14.484146-.193268 3.377853-.160629 4.315216 1.206833 4.207748 4.378571-.191742 5.660095-.052933 11.331405-.052917 16.998016.000076 66.832718.000015 133.665451.000015 200.498184 0 1.953461.000015 3.906922.000015 6.3797 2.900772-.161072 5.191513-.135742 7.43869-.436188 29.526093-3.947723 56.988037 13.777802 60.589661 45.919007 1.662872 14.839874-.648224 28.422302-8.006256 41.646179m-68.763764-56.203613c-2.415618 3.699493-6.158889 7.136444-6.953903 11.156433-1.397537 7.066681-1.756225 14.553589-1.158142 21.748779.853485 10.267731 6.41182 18.275024 16.655197 20.734863 6.5616 1.575684 13.837143 1.326355 20.627808.51529 8.874542-1.059967 14.801208-6.990448 17.153503-15.421296 1.576203-5.649231 2.186829-11.775421 2.028748-17.655914-.291748-10.854462-3.724396-20.653259-14.824158-24.967193-11.355697-4.413422-22.703201-4.5047-33.529053 3.889038z" fill="#cdb592"/><path d="m117.294464 422.620605c15.227585 9.358796 22.694946 23.235962 24.284012 40.161622 1.817596 19.359893-1.857636 37.201019-17.547318 50.657836-9.520317 8.165406-21.081985 11.255311-33.147827 12.237427-15.845855 1.289795-31.213718-.711059-45.196434-9.147033-17.659204-10.654023-26.041248-26.927155-26.633766-46.891297-.716305-24.135101-.244875-48.306091-.250475-72.461548-.01313-56.640869.031773-113.281768-.08436-169.922393-.007826-3.8163 1.144461-6.500229 3.757885-9.215195 8.541824-8.873642 16.692223-18.125763 25.294762-26.937897 1.724189-1.766189 4.721851-2.972107 7.226951-3.15744 6.077092-.4496 12.209893-.146179 18.766388-.146179v228.393325c15.327057-2.22174 29.903603-1.707794 43.530182 6.428772m-15.752128 75.579987c12.616935-8.868072 12.248085-21.884186 10.931938-35.028381-.680199-6.793122-3.020768-13.443817-9.146859-16.954743-5.00772-2.869995-10.89125-5.300995-16.5522-5.72763-14.176681-1.068299-27.448963 4.323303-29.734085 21.15097-.965233 7.108002-.859669 14.610687.275936 21.690704 1.376171 8.579804 6.942173 14.885712 15.474995 17.289887 9.462524 2.666138 19.038856 2.756287 28.750275-2.420807z" fill="#cdb592"/><path d="m860.142456 162.729248c-39.431457-8.925018-78.853821-15.371811-118.620972-19.680969-42.62915-4.619309-85.38916-6.317047-128.256103-5.264862-100.936096 2.477493-198.790497 21.242676-293.692597 55.594818-5.298339 1.917862-10.567108 3.917496-16.255889 6.029938 2.399963 6.213821 4.649017 12.036926 7.246643 18.762558-18.643433-1.455597-36.454499-2.846207-55.595215-4.340622 12.626678-14.342804 24.508514-27.839508 36.922333-41.940506 2.660247 6.411163 4.998718 12.046875 7.463836 17.987747 1.190827-.343598 2.266632-.574143 3.284088-.958923 71.342011-26.979584 144.810059-45.415284 220.540619-54.634293 67.903259-8.266205 135.915589-8.955612 204.031555-2.686508 90.684082 8.346161 178.750794 28.561416 264.825135 57.933243.307373.104873.648132.111923 1.558777.259628 2.120544-5.724869 4.28302-11.563049 6.755065-18.236786 12.816956 13.338852 25.272828 26.30188 38.664551 40.238922-18.972107 2.320908-36.802063 4.502091-55.409668 6.778412 2.296692-6.644272 4.338928-12.552414 6.592407-19.071594-42.688781-14.66687-85.78601-26.996781-130.054565-36.770203z" fill="#ff9608"/><path d="m894.593872 93.640442c-2.202576 15.058365-4.308533 29.68808-6.433533 44.450516-8.700073 0-16.99353 0-25.77539 0-5.492859-40.082787-14.212952-79.87381-10.031983-121.087456h46.387207c.707642 25.406097.959412 50.929764-4.146301 76.63694z" fill="#010101"/><path d="m400.270081 441.000366c9.374633-1.42279 18.12387-1.066772 25.80606 4.347504 9.429963 6.646118 10.389191 16.876221 10.64441 27.188232.073394 2.966248-.443482 5.981995-.978608 8.922455-2.519592 13.844574-13.410186 21.298462-28.853973 21.006745-24.55484-.463837-29.768707-20.029328-27.215057-38.451355 1.651031-11.910645 7.587493-20.461731 20.597168-23.013581z" fill="#fefefd"/><path d="m398.02655 208.825104c8.184784-1.773316 15.957459-1.937378 23.399201 1.179428 11.789551 4.937759 15.217468 14.889007 15.279205 30.327957.007263 1.817398-.368774 3.636688-.572571 5.454483-1.441711 12.861191-8.468597 20.726944-21.221283 22.822952-4.52243.743286-9.337768.611664-13.903686.00644-11.829895-1.568146-18.497193-8.85199-20.935517-20.302582-1.809173-8.496063-1.303558-16.809891 1.664246-25.018555 2.770752-7.663666 8.089386-12.352631 16.290405-14.470123z" fill="#fefefd"/><path d="m1119.85376 320.0578c-11.034546.210358-20.753296-1.570434-27.150147-11.266693-8.279419-12.549927-6.462768-34.721435 4.302613-43.322754 10.128906-8.092621 21.920654-8.28479 33.619873-3.903808 10.651855 3.988769 14.576904 13.023651 15.393432 23.633911.317383 4.124481.359375 8.365753-.223755 12.446594-2.02539 14.172333-10.794555 21.725891-25.942016 22.41275z" fill="#fdfdfd"/><path d="m779.781738 391.56427c8.596314-2.436035 16.884095-2.599823 24.907715.2724 10.940857 3.916473 16.976868 15.118408 15.997925 29.30661-.295044 4.275909-.841003 8.70163-2.270996 12.701599-4.786255 13.388642-18.698914 19.88681-34.41272 16.518829-13.787109-2.955047-21.437622-12.148345-21.93457-26.302917-.371094-10.569519.327087-20.817078 9.583801-28.008545 2.313599-1.797424 5.153137-2.917999 8.128845-4.487976z" fill="#fefefd"/><g fill="#fffefe"><path d="m231.719055 446.667419c10.566788-8.139953 21.914292-8.048675 33.269989-3.635253 11.099762 4.313934 14.53241 14.112731 14.824158 24.967193.158081 5.880493-.452545 12.006683-2.028748 17.655914-2.352295 8.430848-8.278961 14.361329-17.153503 15.421296-6.790665.811065-14.066208 1.060394-20.627808-.51529-10.243377-2.459839-15.801712-10.467132-16.655197-20.734863-.598083-7.19519-.239395-14.682098 1.158142-21.748779.795014-4.019989 4.538285-7.45694 7.212967-11.410218z"/><path d="m101.216782 498.379425c-9.385865 4.998261-18.962197 4.908112-28.424721 2.241974-8.532822-2.404175-14.098824-8.710083-15.474995-17.289887-1.135605-7.080017-1.241169-14.582702-.275936-21.690704 2.285122-16.827667 15.557404-22.219269 29.734085-21.15097 5.66095.426635 11.54448 2.857635 16.5522 5.72763 6.126091 3.510926 8.46666 10.161621 9.146859 16.954743 1.316147 13.144195 1.684997 26.160309-11.257492 35.207214z"/></g></svg>