<svg version="1.1" id="Layer_1" xmlns="http://www.w3.org/2000/svg" xmlns:xlink="http://www.w3.org/1999/xlink" x="0px" y="0px"
	 width="100%" viewBox="0 0 208 480" enable-background="new 0 0 208 480" xml:space="preserve">
<path fill="#000000" opacity="1.000000" stroke="none" 
	d="
M105.961533,299.111298 
	C108.315102,285.118439 101.756256,275.719147 91.542931,268.107269 
	C84.873871,263.136902 78.288841,258.019989 71.340042,253.466415 
	C59.757599,245.876373 54.216820,234.661285 51.865067,221.670731 
	C49.203236,206.967392 50.644722,192.551956 56.355507,178.611832 
	C67.517357,151.365494 97.523849,143.371475 118.730316,153.760513 
	C130.176270,159.367889 136.333099,169.787857 140.619476,181.186508 
	C149.340851,204.378998 151.194275,228.324509 147.717010,252.808975 
	C144.154785,277.891632 134.912933,300.614105 119.367531,320.561920 
	C108.157768,334.946289 94.387405,346.304199 76.979248,352.673035 
	C75.804672,353.102783 74.603775,353.935242 72.825104,352.628296 
	C78.765877,345.869507 84.745750,339.257965 90.509254,332.462891 
	C98.613457,322.908173 104.653877,312.328949 105.961533,299.111298 
z"/>
<path fill="#000000" opacity="1.000000" stroke="none" 
	d="
M106.660339,375.408447 
	C111.367401,373.375000 115.255836,374.861664 118.690544,377.398499 
	C124.601379,381.764221 129.751755,386.952484 133.776443,393.153931 
	C137.122025,398.308929 136.903366,403.425751 133.574982,408.571533 
	C129.445404,414.956055 124.136002,420.113312 117.984459,424.532745 
	C113.509285,427.747803 109.113495,428.020142 104.596130,424.905701 
	C97.941048,420.317474 92.483932,414.556183 88.097435,407.768036 
	C84.799606,402.664612 85.345070,397.648926 88.585457,392.828796 
	C93.278748,385.847382 99.183449,380.064941 106.660339,375.408447 
z"/>
<path fill="chocolate" opacity="1.000000" stroke="none" 
	d="
M182.148865,330.118042 
	C185.429688,336.543640 185.539154,342.955841 183.816711,349.334412 
	C181.693207,357.198181 173.965164,361.652863 164.589020,360.872772 
	C149.151230,359.588348 141.258377,343.318146 149.637268,330.024445 
	C152.108170,326.104218 155.852066,324.124725 160.293518,323.401398 
	C168.517517,322.062042 176.220764,322.623718 182.148865,330.118042 
z"/>
</svg>