<svg version="1.1" id="Layer_1" xmlns="http://www.w3.org/2000/svg" xmlns:xlink="http://www.w3.org/1999/xlink" x="0px" y="0px"
	 width="100%" viewBox="0 0 1772 556" enable-background="new 0 0 1772 556" xml:space="preserve">
<path fill="#FFFFFF" opacity="1.000000" stroke="none" 
	d="
M1140.000000,557.000000 
	C760.000000,557.000000 380.500000,557.000000 1.000000,557.000000 
	C1.000000,371.666656 1.000000,186.333328 1.000000,1.000000 
	C591.666687,1.000000 1182.333374,1.000000 1773.000000,1.000000 
	C1773.000000,186.333328 1773.000000,371.666656 1773.000000,557.000000 
	C1562.166626,557.000000 1351.333374,557.000000 1140.000000,557.000000 
M954.652832,291.107300 
	C981.641846,312.572479 1008.529419,334.167084 1035.671021,355.437592 
	C1046.170288,363.665680 1057.173584,371.996246 1070.688354,373.867828 
	C1093.002930,376.958008 1113.734253,373.462311 1130.147583,355.711975 
	C1135.974365,349.410461 1143.083618,344.294739 1149.966553,338.326294 
	C1152.219727,340.043579 1155.951050,343.103241 1159.897217,345.854584 
	C1171.636353,354.039337 1183.419067,362.163330 1195.272461,370.181305 
	C1199.488647,373.033142 1203.849976,372.536255 1207.813354,369.493927 
	C1214.903809,364.051300 1216.676025,349.337524 1210.398560,342.981567 
	C1202.700684,335.187408 1194.714966,327.559448 1186.126343,320.781586 
	C1117.341675,266.499512 1048.396484,212.420944 979.437500,158.360153 
	C976.827332,156.313873 976.716003,154.657883 977.837524,151.712128 
	C981.975098,140.844009 986.270508,129.989227 989.524170,118.842667 
	C994.005493,103.490639 994.495300,88.068893 987.880371,72.900002 
	C981.894592,59.173679 973.877075,46.769863 964.100586,35.548275 
	C958.664062,29.308132 952.414246,23.808231 944.426147,20.783901 
	C935.483948,29.100389 929.349548,38.741173 926.776123,50.560436 
	C925.210449,57.750931 925.506714,64.320511 930.904358,70.098801 
	C937.722046,77.397255 944.583984,84.692490 950.872803,92.438873 
	C963.418945,107.892853 967.451660,125.563499 963.670593,146.009537 
	C931.597961,120.320267 900.206543,95.176636 868.010742,69.388725 
	C863.069763,78.712662 858.585938,87.606850 853.669556,96.255119 
	C851.458191,100.145027 852.462952,102.168953 855.743896,104.768799 
	C886.036438,128.772934 916.164368,152.984787 946.433105,177.019226 
	C949.008240,179.063995 949.463928,180.630096 947.972473,183.596390 
	C942.440613,194.598465 937.187134,205.740585 931.831177,216.831085 
	C930.496033,219.595642 929.168884,222.364059 927.701843,225.413956 
	C872.360352,181.293732 817.540161,137.589096 762.076782,93.371689 
	C755.612488,103.687233 749.320435,113.727844 743.013611,123.792076 
	C745.036072,125.423576 746.057617,126.264679 747.096741,127.083435 
	C799.831299,168.635071 852.461914,210.320145 905.420898,251.583740 
	C913.059570,257.535492 919.025635,262.902710 914.925171,273.369507 
	C914.808838,273.666412 914.873047,274.030884 914.833313,274.361481 
	C912.825195,291.071869 914.354797,307.706573 917.153198,324.109528 
	C920.868164,345.884674 925.519531,367.506226 930.110291,389.121185 
	C931.186462,394.188110 933.634033,398.963745 935.450623,403.873413 
	C936.065796,404.009735 936.680969,404.146088 937.296143,404.282410 
	C943.963745,394.009369 951.091614,383.999756 957.166382,373.387360 
	C962.959045,363.267731 965.037659,351.937592 965.121948,340.233124 
	C965.223572,326.131104 960.815613,313.053131 956.505127,299.919708 
	C955.538330,296.974030 954.863892,293.932404 954.013611,290.986176 
	C954.013611,290.986176 953.971985,291.037048 954.652832,291.107300 
M325.834198,380.304413 
	C324.309479,382.768799 322.784790,385.233215 320.701233,388.600891 
	C323.094177,387.697052 324.581879,387.115570 326.083069,386.571228 
	C338.733765,381.984192 351.318085,377.200653 364.061310,372.886658 
	C374.051178,369.504761 384.377838,369.848602 394.665497,371.555756 
	C410.110931,374.118744 424.416534,379.928070 438.121948,387.265106 
	C445.562103,391.248047 452.772217,395.660645 460.817596,400.301422 
	C466.310822,388.111511 471.694702,376.168945 477.074188,364.224396 
	C478.981201,359.990021 478.501373,355.654449 475.472046,352.532532 
	C471.608124,348.550507 467.306366,344.626648 462.469543,342.021545 
	C445.321869,332.785767 426.500916,328.287018 407.659210,324.066162 
	C400.448547,322.450867 393.118988,321.366241 385.553986,319.986969 
	C405.193115,268.054749 408.514557,214.219269 409.261322,158.886215 
	C410.850922,161.808868 411.975006,163.743912 412.978271,165.739685 
	C431.644989,202.874619 453.196869,238.157684 479.704926,270.297150 
	C504.174561,299.965240 530.395752,327.800903 562.978455,348.792694 
	C581.763367,360.895111 601.796692,370.741211 624.570374,371.444733 
	C652.534058,372.308563 680.550110,372.186066 708.522339,371.553375 
	C715.320129,371.399628 722.854919,368.880096 728.647156,365.224335 
	C754.881958,348.666107 765.845581,323.564026 764.105225,293.432892 
	C762.966797,273.723389 759.085205,254.170639 756.388672,234.553665 
	C755.382812,227.236404 754.252930,219.936203 752.935059,210.962646 
	C743.185059,217.951172 734.400391,223.885803 726.028992,230.355225 
	C718.438965,236.220795 714.702209,244.505997 713.171997,253.862473 
	C711.589722,263.537292 712.210205,273.068115 714.519043,282.582703 
	C718.072205,297.225067 721.417542,311.917847 724.931519,326.933228 
	C698.829773,326.933228 673.178040,326.727448 647.530823,326.982300 
	C610.688965,327.348328 578.324585,314.796448 549.585632,292.659790 
	C516.826477,267.426483 493.086670,234.554138 473.225555,198.753479 
	C452.701691,161.758102 435.642731,123.087616 418.891785,84.284912 
	C418.066833,82.373955 417.127075,80.512573 415.972137,78.056854 
	C408.752441,82.863640 401.775513,87.078262 395.304199,91.962730 
	C390.687683,95.447227 386.492981,99.594604 382.561432,103.862030 
	C373.132446,114.096657 373.944458,126.302879 376.448700,138.732086 
	C379.305084,152.909103 382.884583,166.990784 384.801086,181.294586 
	C387.448822,201.055588 385.206360,220.865005 382.955109,240.576797 
	C380.201843,264.683929 375.393585,288.424164 364.360748,310.136566 
	C352.389404,333.695892 338.976837,356.522888 325.834198,380.304413 
M1511.000977,239.497925 
	C1510.434937,207.690552 1507.311890,176.110062 1502.439087,144.695572 
	C1497.593872,113.458611 1490.430176,82.730873 1481.569824,52.403599 
	C1478.526001,41.985035 1474.978027,31.713783 1471.660400,21.375223 
	C1471.167847,21.260328 1470.675293,21.145433 1470.182739,21.030539 
	C1463.184570,32.033737 1455.892212,42.867203 1449.379639,54.150795 
	C1447.588745,57.253868 1447.139282,61.880703 1447.793091,65.497566 
	C1449.412598,74.455223 1451.359863,83.466957 1454.368652,92.038162 
	C1462.294434,114.617699 1469.194092,137.422562 1473.556763,160.991913 
	C1478.678223,188.661469 1481.525146,216.574310 1482.712769,244.644333 
	C1483.950562,273.905945 1484.514160,303.195312 1480.226074,332.306061 
	C1477.554932,350.440918 1474.597046,368.533539 1471.738159,386.834381 
	C1473.672974,385.844391 1475.720215,384.844116 1477.724365,383.764038 
	C1499.090698,372.249176 1521.340088,368.433075 1544.789185,376.433136 
	C1561.790527,382.233368 1578.710938,388.273804 1595.616455,394.349030 
	C1598.018066,395.212067 1599.777710,395.615723 1600.636963,392.701385 
	C1603.942505,381.491302 1607.733643,370.390076 1610.337524,359.017883 
	C1612.599243,349.139557 1609.948975,344.805359 1600.639160,340.335632 
	C1585.063965,332.857727 1568.375244,329.027527 1551.306763,328.225769 
	C1535.947876,327.504272 1520.498901,328.705078 1504.558716,329.070160 
	C1510.010742,300.123322 1512.364136,270.432434 1511.000977,239.497925 
M152.217636,385.694641 
	C154.042068,384.599487 155.786880,383.334595 157.703369,382.435760 
	C175.006378,374.320618 192.987656,368.777985 212.080673,373.997009 
	C229.712662,378.816650 246.962860,385.040436 264.353546,390.730347 
	C268.679962,392.145844 272.899536,393.887817 278.058868,395.811859 
	C281.418793,384.540619 284.992188,374.081787 287.611115,363.389160 
	C291.050446,349.346771 288.417114,343.993683 275.310455,338.789154 
	C256.990997,331.514709 237.963440,327.259399 218.088699,327.922119 
	C206.182495,328.319122 194.282227,328.894501 182.644409,329.378662 
	C184.360291,316.861755 186.686630,304.262238 187.719131,291.557556 
	C191.102921,249.920792 188.510986,208.417664 183.454742,167.063644 
	C179.396240,133.870056 172.956207,101.094925 163.942368,68.875282 
	C159.493271,52.972099 154.509476,37.218510 149.767624,21.397228 
	C149.253967,21.291735 148.740311,21.186241 148.226654,21.080748 
	C142.059311,30.463459 136.019531,39.933449 129.680267,49.198536 
	C125.373993,55.492332 123.925797,62.096745 125.985893,69.459053 
	C128.266068,77.607887 130.056793,85.926895 132.863449,93.888817 
	C140.603516,115.845879 147.255096,138.085602 151.439651,161.001785 
	C157.547134,194.448578 160.227814,228.226456 161.153473,262.189331 
	C161.979767,292.505280 160.430695,322.630859 155.214188,352.531342 
	C153.228363,363.913940 151.199585,375.289032 149.133972,386.987030 
	C150.102310,386.584534 150.808624,386.290955 152.217636,385.694641 
M1270.021606,136.721313 
	C1288.232666,219.694077 1291.381104,302.893463 1272.628906,387.337860 
	C1275.146118,385.884644 1276.372437,385.103027 1277.661377,384.443604 
	C1297.341064,374.375793 1317.732666,368.133667 1339.868896,374.885986 
	C1360.324951,381.125793 1380.593628,387.979645 1402.184204,394.964020 
	C1405.269531,384.378601 1409.372070,373.000732 1411.791870,361.275604 
	C1414.440796,348.439697 1410.897949,343.411194 1398.621216,338.507111 
	C1398.159302,338.322571 1397.698853,338.133545 1397.232910,337.959869 
	C1376.279419,330.149994 1354.680664,326.589600 1332.307129,328.027771 
	C1323.627441,328.585663 1314.940186,329.027863 1306.996460,329.480591 
	C1308.960205,311.088776 1311.795288,292.993408 1312.634766,274.805939 
	C1314.100952,243.032837 1312.210449,211.283218 1308.785278,179.665436 
	C1303.038940,126.619034 1291.353271,74.867767 1274.302124,24.320301 
	C1273.934937,23.231585 1273.348267,22.216873 1272.655884,20.716938 
	C1267.878052,27.527750 1263.857544,34.077480 1259.033081,39.968868 
	C1248.394409,52.960747 1247.363403,66.853020 1252.773438,82.341805 
	C1258.950439,100.026886 1264.159912,118.049995 1270.021606,136.721313 
M75.194466,347.786896 
	C77.752777,336.668060 80.858940,325.642303 82.767281,314.412994 
	C88.629128,279.920044 90.485138,245.046127 90.715691,210.137253 
	C90.993851,168.018478 90.647766,125.890320 90.059891,83.773361 
	C89.768105,62.869205 88.331169,41.981033 87.374893,20.234732 
	C71.985847,30.038460 57.969551,39.942299 47.063686,53.469616 
	C44.874191,56.185402 43.816360,60.433880 43.653603,64.039627 
	C43.263927,72.672737 43.693657,81.344299 43.834961,89.999649 
	C44.492378,130.269150 45.464737,170.536362 45.738201,210.808380 
	C45.967659,244.599091 45.984398,278.412537 45.008266,312.184479 
	C43.910332,350.170227 40.173069,387.878998 26.604950,424.313568 
	C33.257378,419.279724 39.953964,414.220062 45.439785,408.078827 
	C60.683205,391.014282 68.826317,370.225403 75.194466,347.786896 
M1710.056519,378.916016 
	C1710.212036,382.873230 1710.819946,386.874207 1710.442017,390.779816 
	C1709.062378,405.039185 1702.121582,416.717133 1692.804199,427.196106 
	C1687.733032,432.899261 1682.688110,438.625671 1676.723877,445.367340 
	C1700.143433,437.404449 1716.797485,423.025940 1728.851440,403.756866 
	C1754.835815,362.219330 1759.799561,317.895966 1743.244141,271.718018 
	C1737.800171,256.533234 1727.658691,244.589111 1710.481445,242.418579 
	C1693.540771,240.277939 1678.493774,244.989029 1667.735107,259.260986 
	C1655.212769,275.872620 1653.019165,294.785034 1656.511353,314.600647 
	C1658.612549,326.522705 1663.786255,336.908417 1674.215942,344.046173 
	C1680.522339,348.362152 1686.667969,352.914825 1692.847168,357.414368 
	C1700.298828,362.840546 1707.217163,368.727539 1710.056519,378.916016 
M1739.189331,494.756775 
	C1738.714111,492.054840 1738.898071,488.989166 1737.644165,486.716919 
	C1733.328247,478.896118 1727.176147,472.512726 1719.288696,468.364258 
	C1716.830200,467.071198 1712.409058,467.031403 1710.080688,468.420227 
	C1702.173584,473.136536 1695.384644,479.445679 1691.658081,488.069244 
	C1690.504883,490.737976 1690.535034,494.732971 1691.671265,497.425446 
	C1695.264648,505.940704 1702.103516,511.828125 1709.661499,516.855408 
	C1713.386597,519.333191 1716.978516,519.015320 1720.703735,516.455017 
	C1728.631958,511.006134 1735.469482,504.679108 1739.189331,494.756775 
z"/>
<path fill="#C47035" opacity="1.000000" stroke="none" 
	d="
M954.054871,290.934967 
	C954.863892,293.932404 955.538330,296.974030 956.505127,299.919708 
	C960.815613,313.053131 965.223572,326.131104 965.121948,340.233124 
	C965.037659,351.937592 962.959045,363.267731 957.166382,373.387360 
	C951.091614,383.999756 943.963745,394.009369 937.296143,404.282410 
	C936.680969,404.146088 936.065796,404.009735 935.450623,403.873413 
	C933.634033,398.963745 931.186462,394.188110 930.110291,389.121185 
	C925.519531,367.506226 920.868164,345.884674 917.153198,324.109528 
	C914.354797,307.706573 912.825195,291.071869 914.833313,274.361481 
	C914.873047,274.030884 914.808838,273.666412 914.925171,273.369507 
	C919.025635,262.902710 913.059570,257.535492 905.420898,251.583740 
	C852.461914,210.320145 799.831299,168.635071 747.096741,127.083435 
	C746.057617,126.264679 745.036072,125.423576 743.013611,123.792076 
	C749.320435,113.727844 755.612488,103.687233 762.076782,93.371689 
	C817.540161,137.589096 872.360352,181.293732 927.701843,225.413956 
	C929.168884,222.364059 930.496033,219.595642 931.831177,216.831085 
	C937.187134,205.740585 942.440613,194.598465 947.972473,183.596390 
	C949.463928,180.630096 949.008240,179.063995 946.433105,177.019226 
	C916.164368,152.984787 886.036438,128.772934 855.743896,104.768799 
	C852.462952,102.168953 851.458191,100.145027 853.669556,96.255119 
	C858.585938,87.606850 863.069763,78.712662 868.010742,69.388725 
	C900.206543,95.176636 931.597961,120.320267 963.670593,146.009537 
	C967.451660,125.563499 963.418945,107.892853 950.872803,92.438873 
	C944.583984,84.692490 937.722046,77.397255 930.904358,70.098801 
	C925.506714,64.320511 925.210449,57.750931 926.776123,50.560436 
	C929.349548,38.741173 935.483948,29.100389 944.426147,20.783901 
	C952.414246,23.808231 958.664062,29.308132 964.100586,35.548275 
	C973.877075,46.769863 981.894592,59.173679 987.880371,72.900002 
	C994.495300,88.068893 994.005493,103.490639 989.524170,118.842667 
	C986.270508,129.989227 981.975098,140.844009 977.837524,151.712128 
	C976.716003,154.657883 976.827332,156.313873 979.437500,158.360153 
	C1048.396484,212.420944 1117.341675,266.499512 1186.126343,320.781586 
	C1194.714966,327.559448 1202.700684,335.187408 1210.398560,342.981567 
	C1216.676025,349.337524 1214.903809,364.051300 1207.813354,369.493927 
	C1203.849976,372.536255 1199.488647,373.033142 1195.272461,370.181305 
	C1183.419067,362.163330 1171.636353,354.039337 1159.897217,345.854584 
	C1155.951050,343.103241 1152.219727,340.043579 1149.966553,338.326294 
	C1143.083618,344.294739 1135.974365,349.410461 1130.147583,355.711975 
	C1113.734253,373.462311 1093.002930,376.958008 1070.688354,373.867828 
	C1057.173584,371.996246 1046.170288,363.665680 1035.671021,355.437592 
	C1008.529419,334.167084 981.641846,312.572479 954.273193,290.851624 
	C953.709534,290.648254 953.525513,290.700592 953.341553,290.752930 
	C953.579346,290.813599 953.817078,290.874298 954.054871,290.934967 
M950.940369,243.560654 
	C975.663025,263.025665 1000.274658,282.634094 1025.150879,301.900757 
	C1039.612305,313.101166 1054.365723,323.941193 1069.300171,334.501495 
	C1072.484131,336.752960 1077.036377,338.171143 1080.933228,338.118256 
	C1096.117676,337.912140 1106.997803,329.521027 1115.880371,318.029419 
	C1116.843140,316.783875 1117.326782,315.167877 1118.103149,313.579468 
	C1065.509766,271.656952 1013.208740,229.967422 959.873352,187.453430 
	C954.637573,200.594238 949.392334,212.785797 944.929260,225.257294 
	C941.104858,235.943848 941.500916,236.085587 950.940369,243.560654 
z"/>
<path fill="#020202" opacity="1.000000" stroke="none" 
	d="
M326.013489,379.986816 
	C338.976837,356.522888 352.389404,333.695892 364.360748,310.136566 
	C375.393585,288.424164 380.201843,264.683929 382.955109,240.576797 
	C385.206360,220.865005 387.448822,201.055588 384.801086,181.294586 
	C382.884583,166.990784 379.305084,152.909103 376.448700,138.732086 
	C373.944458,126.302879 373.132446,114.096657 382.561432,103.862030 
	C386.492981,99.594604 390.687683,95.447227 395.304199,91.962730 
	C401.775513,87.078262 408.752441,82.863640 415.972137,78.056854 
	C417.127075,80.512573 418.066833,82.373955 418.891785,84.284912 
	C435.642731,123.087616 452.701691,161.758102 473.225555,198.753479 
	C493.086670,234.554138 516.826477,267.426483 549.585632,292.659790 
	C578.324585,314.796448 610.688965,327.348328 647.530823,326.982300 
	C673.178040,326.727448 698.829773,326.933228 724.931519,326.933228 
	C721.417542,311.917847 718.072205,297.225067 714.519043,282.582703 
	C712.210205,273.068115 711.589722,263.537292 713.171997,253.862473 
	C714.702209,244.505997 718.438965,236.220795 726.028992,230.355225 
	C734.400391,223.885803 743.185059,217.951172 752.935059,210.962646 
	C754.252930,219.936203 755.382812,227.236404 756.388672,234.553665 
	C759.085205,254.170639 762.966797,273.723389 764.105225,293.432892 
	C765.845581,323.564026 754.881958,348.666107 728.647156,365.224335 
	C722.854919,368.880096 715.320129,371.399628 708.522339,371.553375 
	C680.550110,372.186066 652.534058,372.308563 624.570374,371.444733 
	C601.796692,370.741211 581.763367,360.895111 562.978455,348.792694 
	C530.395752,327.800903 504.174561,299.965240 479.704926,270.297150 
	C453.196869,238.157684 431.644989,202.874619 412.978271,165.739685 
	C411.975006,163.743912 410.850922,161.808868 409.261322,158.886215 
	C408.514557,214.219269 405.193115,268.054749 385.553986,319.986969 
	C393.118988,321.366241 400.448547,322.450867 407.659210,324.066162 
	C426.500916,328.287018 445.321869,332.785767 462.469543,342.021545 
	C467.306366,344.626648 471.608124,348.550507 475.472046,352.532532 
	C478.501373,355.654449 478.981201,359.990021 477.074188,364.224396 
	C471.694702,376.168945 466.310822,388.111511 460.817596,400.301422 
	C452.772217,395.660645 445.562103,391.248047 438.121948,387.265106 
	C424.416534,379.928070 410.110931,374.118744 394.665497,371.555756 
	C384.377838,369.848602 374.051178,369.504761 364.061310,372.886658 
	C351.318085,377.200653 338.733765,381.984192 326.083069,386.571228 
	C324.581879,387.115570 323.094177,387.697052 320.701233,388.600891 
	C322.784790,385.233215 324.309479,382.768799 326.013489,379.986816 
z"/>
<path fill="#010101" opacity="1.000000" stroke="none" 
	d="
M1511.000977,239.996765 
	C1512.364136,270.432434 1510.010742,300.123322 1504.558716,329.070160 
	C1520.498901,328.705078 1535.947876,327.504272 1551.306763,328.225769 
	C1568.375244,329.027527 1585.063965,332.857727 1600.639160,340.335632 
	C1609.948975,344.805359 1612.599243,349.139557 1610.337524,359.017883 
	C1607.733643,370.390076 1603.942505,381.491302 1600.636963,392.701385 
	C1599.777710,395.615723 1598.018066,395.212067 1595.616455,394.349030 
	C1578.710938,388.273804 1561.790527,382.233368 1544.789185,376.433136 
	C1521.340088,368.433075 1499.090698,372.249176 1477.724365,383.764038 
	C1475.720215,384.844116 1473.672974,385.844391 1471.738159,386.834381 
	C1474.597046,368.533539 1477.554932,350.440918 1480.226074,332.306061 
	C1484.514160,303.195312 1483.950562,273.905945 1482.712769,244.644333 
	C1481.525146,216.574310 1478.678223,188.661469 1473.556763,160.991913 
	C1469.194092,137.422562 1462.294434,114.617699 1454.368652,92.038162 
	C1451.359863,83.466957 1449.412598,74.455223 1447.793091,65.497566 
	C1447.139282,61.880703 1447.588745,57.253868 1449.379639,54.150795 
	C1455.892212,42.867203 1463.184570,32.033737 1470.182739,21.030539 
	C1470.675293,21.145433 1471.167847,21.260328 1471.660400,21.375223 
	C1474.978027,31.713783 1478.526001,41.985035 1481.569824,52.403599 
	C1490.430176,82.730873 1497.593872,113.458611 1502.439087,144.695572 
	C1507.311890,176.110062 1510.434937,207.690552 1511.000977,239.996765 
z"/>
<path fill="#010101" opacity="1.000000" stroke="none" 
	d="
M151.866302,385.846008 
	C150.808624,386.290955 150.102310,386.584534 149.133972,386.987030 
	C151.199585,375.289032 153.228363,363.913940 155.214188,352.531342 
	C160.430695,322.630859 161.979767,292.505280 161.153473,262.189331 
	C160.227814,228.226456 157.547134,194.448578 151.439651,161.001785 
	C147.255096,138.085602 140.603516,115.845879 132.863449,93.888817 
	C130.056793,85.926895 128.266068,77.607887 125.985893,69.459053 
	C123.925797,62.096745 125.373993,55.492332 129.680267,49.198536 
	C136.019531,39.933449 142.059311,30.463459 148.226654,21.080748 
	C148.740311,21.186241 149.253967,21.291735 149.767624,21.397228 
	C154.509476,37.218510 159.493271,52.972099 163.942368,68.875282 
	C172.956207,101.094925 179.396240,133.870056 183.454742,167.063644 
	C188.510986,208.417664 191.102921,249.920792 187.719131,291.557556 
	C186.686630,304.262238 184.360291,316.861755 182.644409,329.378662 
	C194.282227,328.894501 206.182495,328.319122 218.088699,327.922119 
	C237.963440,327.259399 256.990997,331.514709 275.310455,338.789154 
	C288.417114,343.993683 291.050446,349.346771 287.611115,363.389160 
	C284.992188,374.081787 281.418793,384.540619 278.058868,395.811859 
	C272.899536,393.887817 268.679962,392.145844 264.353546,390.730347 
	C246.962860,385.040436 229.712662,378.816650 212.080673,373.997009 
	C192.987656,368.777985 175.006378,374.320618 157.703369,382.435760 
	C155.786880,383.334595 154.042068,384.599487 151.866302,385.846008 
z"/>
<path fill="#010101" opacity="1.000000" stroke="none" 
	d="
M1269.905762,136.323761 
	C1264.159912,118.049995 1258.950439,100.026886 1252.773438,82.341805 
	C1247.363403,66.853020 1248.394409,52.960747 1259.033081,39.968868 
	C1263.857544,34.077480 1267.878052,27.527750 1272.655884,20.716938 
	C1273.348267,22.216873 1273.934937,23.231585 1274.302124,24.320301 
	C1291.353271,74.867767 1303.038940,126.619034 1308.785278,179.665436 
	C1312.210449,211.283218 1314.100952,243.032837 1312.634766,274.805939 
	C1311.795288,292.993408 1308.960205,311.088776 1306.996460,329.480591 
	C1314.940186,329.027863 1323.627441,328.585663 1332.307129,328.027771 
	C1354.680664,326.589600 1376.279419,330.149994 1397.232910,337.959869 
	C1397.698853,338.133545 1398.159302,338.322571 1398.621216,338.507111 
	C1410.897949,343.411194 1414.440796,348.439697 1411.791870,361.275604 
	C1409.372070,373.000732 1405.269531,384.378601 1402.184204,394.964020 
	C1380.593628,387.979645 1360.324951,381.125793 1339.868896,374.885986 
	C1317.732666,368.133667 1297.341064,374.375793 1277.661377,384.443604 
	C1276.372437,385.103027 1275.146118,385.884644 1272.628906,387.337860 
	C1291.381104,302.893463 1288.232666,219.694077 1269.905762,136.323761 
z"/>
<path fill="#010101" opacity="1.000000" stroke="none" 
	d="
M75.156677,348.191895 
	C68.826317,370.225403 60.683205,391.014282 45.439785,408.078827 
	C39.953964,414.220062 33.257378,419.279724 26.604950,424.313568 
	C40.173069,387.878998 43.910332,350.170227 45.008266,312.184479 
	C45.984398,278.412537 45.967659,244.599091 45.738201,210.808380 
	C45.464737,170.536362 44.492378,130.269150 43.834961,89.999649 
	C43.693657,81.344299 43.263927,72.672737 43.653603,64.039627 
	C43.816360,60.433880 44.874191,56.185402 47.063686,53.469616 
	C57.969551,39.942299 71.985847,30.038460 87.374893,20.234732 
	C88.331169,41.981033 89.768105,62.869205 90.059891,83.773361 
	C90.647766,125.890320 90.993851,168.018478 90.715691,210.137253 
	C90.485138,245.046127 88.629128,279.920044 82.767281,314.412994 
	C80.858940,325.642303 77.752777,336.668060 75.156677,348.191895 
z"/>
<path fill="#010101" opacity="1.000000" stroke="none" 
	d="
M1709.960205,378.514954 
	C1707.217163,368.727539 1700.298828,362.840546 1692.847168,357.414368 
	C1686.667969,352.914825 1680.522339,348.362152 1674.215942,344.046173 
	C1663.786255,336.908417 1658.612549,326.522705 1656.511353,314.600647 
	C1653.019165,294.785034 1655.212769,275.872620 1667.735107,259.260986 
	C1678.493774,244.989029 1693.540771,240.277939 1710.481445,242.418579 
	C1727.658691,244.589111 1737.800171,256.533234 1743.244141,271.718018 
	C1759.799561,317.895966 1754.835815,362.219330 1728.851440,403.756866 
	C1716.797485,423.025940 1700.143433,437.404449 1676.723877,445.367340 
	C1682.688110,438.625671 1687.733032,432.899261 1692.804199,427.196106 
	C1702.121582,416.717133 1709.062378,405.039185 1710.442017,390.779816 
	C1710.819946,386.874207 1710.212036,382.873230 1709.960205,378.514954 
z"/>
<path fill="#050505" opacity="1.000000" stroke="none" 
	d="
M1739.168579,495.140167 
	C1735.469482,504.679108 1728.631958,511.006134 1720.703735,516.455017 
	C1716.978516,519.015320 1713.386597,519.333191 1709.661499,516.855408 
	C1702.103516,511.828125 1695.264648,505.940704 1691.671265,497.425446 
	C1690.535034,494.732971 1690.504883,490.737976 1691.658081,488.069244 
	C1695.384644,479.445679 1702.173584,473.136536 1710.080688,468.420227 
	C1712.409058,467.031403 1716.830200,467.071198 1719.288696,468.364258 
	C1727.176147,472.512726 1733.328247,478.896118 1737.644165,486.716919 
	C1738.898071,488.989166 1738.714111,492.054840 1739.168579,495.140167 
z"/>
<path fill="#FFFEFE" opacity="1.000000" stroke="none" 
	d="
M950.658813,243.339569 
	C941.500916,236.085587 941.104858,235.943848 944.929260,225.257294 
	C949.392334,212.785797 954.637573,200.594238 959.873352,187.453430 
	C1013.208740,229.967422 1065.509766,271.656952 1118.103149,313.579468 
	C1117.326782,315.167877 1116.843140,316.783875 1115.880371,318.029419 
	C1106.997803,329.521027 1096.117676,337.912140 1080.933228,338.118256 
	C1077.036377,338.171143 1072.484131,336.752960 1069.300171,334.501495 
	C1054.365723,323.941193 1039.612305,313.101166 1025.150879,301.900757 
	C1000.274658,282.634094 975.663025,263.025665 950.658813,243.339569 
z"/>
<path fill="#FFFFFF" opacity="1.000000" stroke="none" 
	d="
M954.034241,290.960571 
	C953.817078,290.874298 953.579346,290.813599 953.341553,290.752930 
	C953.525513,290.700592 953.709534,290.648254 953.932739,290.816498 
	C953.971985,291.037048 954.013611,290.986176 954.034241,290.960571 
z"/>
</svg>