<svg version="1.1" id="Layer_1" xmlns="http://www.w3.org/2000/svg" xmlns:xlink="http://www.w3.org/1999/xlink" x="0px" y="0px"
	 width="100%" viewBox="0 0 440 556" enable-background="new 0 0 440 556" xml:space="preserve">
<path fill="#FFFFFF" opacity="1.000000" stroke="none" 
	d="
M233.000000,557.000000 
	C155.333359,557.000000 78.166702,557.000000 1.000041,557.000000 
	C1.000028,371.666718 1.000028,186.333466 1.000014,1.000141 
	C147.666565,1.000094 294.333130,1.000094 440.999756,1.000047 
	C440.999847,186.333191 440.999847,371.666382 440.999939,556.999756 
	C371.833344,557.000000 302.666656,557.000000 233.000000,557.000000 
M23.628105,423.108459 
	C50.241138,400.729858 67.482079,372.117249 78.451523,339.532471 
	C79.227600,339.800964 79.440468,339.806946 79.519905,339.912964 
	C80.108818,340.698761 80.766403,341.453247 81.227936,342.311432 
	C92.759041,363.751465 111.799042,371.719879 134.944565,371.958771 
	C154.608246,372.161713 174.285065,372.344025 193.936249,371.808502 
	C200.585510,371.627319 207.676407,370.341980 213.703644,367.639282 
	C239.931580,355.878174 257.543427,322.643646 253.520691,289.086365 
	C251.600739,273.070312 249.213638,257.109497 246.965729,241.133820 
	C245.635452,231.679733 244.163940,222.245529 242.524429,211.249741 
	C233.728607,217.205719 225.755432,222.236786 218.187088,227.816986 
	C207.246429,235.883636 202.716873,247.225510 201.888092,260.589050 
	C201.097229,273.340942 204.691910,285.291534 207.443909,297.426300 
	C209.636246,307.093262 211.972458,316.727570 214.373657,326.923523 
	C211.855438,326.923523 210.047577,326.923462 208.239700,326.923523 
	C182.907516,326.924133 157.573914,327.084412 132.243790,326.856506 
	C119.983353,326.746216 110.096336,321.141693 103.013741,311.296448 
	C92.841972,297.157166 92.091019,280.623535 92.080925,264.036224 
	C92.056526,223.934296 95.030800,183.841034 92.049240,143.727371 
	C89.372849,107.719437 87.057915,71.684685 84.555351,35.663731 
	C84.218155,30.810347 83.716331,25.968403 83.233826,20.473034 
	C69.516739,29.118092 57.412224,38.292091 46.664276,49.242371 
	C41.872250,54.124607 39.073414,59.491432 39.833447,66.627754 
	C42.846073,94.914848 46.033794,123.190887 48.462582,151.530502 
	C51.004818,181.193954 53.318798,210.899765 54.676262,240.635269 
	C55.907310,267.601532 53.056755,294.444336 48.890381,321.098053 
	C44.658085,348.173462 39.318176,375.018494 30.827044,401.132965 
	C28.432627,408.497009 25.645433,415.733368 22.610159,423.109314 
	C22.656427,423.297638 22.702696,423.485992 22.748955,423.674316 
	C22.812963,423.431305 22.876972,423.188293 23.628105,423.108459 
M357.553436,159.940094 
	C362.405670,146.944916 367.639435,134.076508 372.010468,120.921448 
	C377.104279,105.591080 378.699768,89.767075 371.843384,74.647049 
	C367.113922,64.217415 360.931976,54.388680 354.799347,44.669857 
	C349.061798,35.577072 341.127594,28.455008 332.131683,22.520594 
	C329.114532,20.530272 326.634155,20.500078 324.638641,23.674007 
	C320.341858,30.508053 315.310211,37.035355 312.090942,44.353184 
	C307.840393,54.015377 307.222687,63.837978 315.938263,72.288948 
	C321.653839,77.831001 326.908264,83.871712 332.125763,89.899811 
	C344.295929,103.960686 350.982880,120.195076 347.819031,138.844223 
	C346.211578,148.319183 342.481476,157.599136 338.620880,166.494141 
	C329.065063,188.511475 318.414307,210.059341 309.091614,232.170303 
	C301.043579,251.258026 295.975159,271.483673 297.755707,292.240417 
	C299.868317,316.868408 303.573395,341.390869 307.433777,365.825500 
	C309.517303,379.013397 313.028381,392.031006 319.507202,404.423492 
	C322.976776,399.927734 326.292542,395.793823 329.432800,391.530579 
	C337.662720,380.357605 344.330719,368.493744 347.210297,354.647675 
	C351.033264,336.265594 346.520935,319.065369 340.787262,301.918304 
	C336.264069,288.391449 331.613037,274.898438 327.509460,261.242920 
	C323.928833,249.327835 323.861938,237.191238 328.790588,225.599945 
	C338.041473,203.843353 347.682068,182.252472 357.553436,159.940094 
M286.500244,437.373749 
	C275.173645,437.504028 263.831360,437.315460 252.525726,437.871613 
	C244.378952,438.272400 240.147247,442.975067 240.210281,450.094208 
	C240.276672,457.590332 243.981537,461.465851 252.298630,462.576996 
	C254.437073,462.862701 256.616333,462.946869 258.776886,462.947815 
	C305.106720,462.967926 351.436554,462.973846 397.766357,462.934906 
	C400.413239,462.932678 403.102966,462.752228 405.698212,462.260895 
	C412.819489,460.912811 416.056091,457.058044 415.988281,450.381348 
	C415.915955,443.258789 412.229248,438.990875 404.958862,437.949341 
	C402.003113,437.525940 398.983093,437.400116 395.992035,437.397156 
	C359.828125,437.361298 323.664215,437.373810 286.500244,437.373749 
z"/>
<path fill="#C56F34" opacity="1.000000" stroke="none" 
	d="
M23.038383,423.028290 
	C25.645433,415.733368 28.432627,408.497009 30.827044,401.132965 
	C39.318176,375.018494 44.658085,348.173462 48.890381,321.098053 
	C53.056755,294.444336 55.907310,267.601532 54.676262,240.635269 
	C53.318798,210.899765 51.004818,181.193954 48.462582,151.530502 
	C46.033794,123.190887 42.846073,94.914848 39.833447,66.627754 
	C39.073414,59.491432 41.872250,54.124607 46.664276,49.242371 
	C57.412224,38.292091 69.516739,29.118092 83.233826,20.473034 
	C83.716331,25.968403 84.218155,30.810347 84.555351,35.663731 
	C87.057915,71.684685 89.372849,107.719437 92.049240,143.727371 
	C95.030800,183.841034 92.056526,223.934296 92.080925,264.036224 
	C92.091019,280.623535 92.841972,297.157166 103.013741,311.296448 
	C110.096336,321.141693 119.983353,326.746216 132.243790,326.856506 
	C157.573914,327.084412 182.907516,326.924133 208.239700,326.923523 
	C210.047577,326.923462 211.855438,326.923523 214.373657,326.923523 
	C211.972458,316.727570 209.636246,307.093262 207.443909,297.426300 
	C204.691910,285.291534 201.097229,273.340942 201.888092,260.589050 
	C202.716873,247.225510 207.246429,235.883636 218.187088,227.816986 
	C225.755432,222.236786 233.728607,217.205719 242.524429,211.249741 
	C244.163940,222.245529 245.635452,231.679733 246.965729,241.133820 
	C249.213638,257.109497 251.600739,273.070312 253.520691,289.086365 
	C257.543427,322.643646 239.931580,355.878174 213.703644,367.639282 
	C207.676407,370.341980 200.585510,371.627319 193.936249,371.808502 
	C174.285065,372.344025 154.608246,372.161713 134.944565,371.958771 
	C111.799042,371.719879 92.759041,363.751465 81.227936,342.311432 
	C80.766403,341.453247 80.108818,340.698761 79.519905,339.912964 
	C79.440468,339.806946 79.227600,339.800964 78.451523,339.532471 
	C67.482079,372.117249 50.241138,400.729858 23.308594,423.047974 
	C22.989084,422.987488 23.038378,423.028290 23.038383,423.028290 
z"/>
<path fill="#030303" opacity="1.000000" stroke="none" 
	d="
M357.357025,160.266388 
	C347.682068,182.252472 338.041473,203.843353 328.790588,225.599945 
	C323.861938,237.191238 323.928833,249.327835 327.509460,261.242920 
	C331.613037,274.898438 336.264069,288.391449 340.787262,301.918304 
	C346.520935,319.065369 351.033264,336.265594 347.210297,354.647675 
	C344.330719,368.493744 337.662720,380.357605 329.432800,391.530579 
	C326.292542,395.793823 322.976776,399.927734 319.507202,404.423492 
	C313.028381,392.031006 309.517303,379.013397 307.433777,365.825500 
	C303.573395,341.390869 299.868317,316.868408 297.755707,292.240417 
	C295.975159,271.483673 301.043579,251.258026 309.091614,232.170303 
	C318.414307,210.059341 329.065063,188.511475 338.620880,166.494141 
	C342.481476,157.599136 346.211578,148.319183 347.819031,138.844223 
	C350.982880,120.195076 344.295929,103.960686 332.125763,89.899811 
	C326.908264,83.871712 321.653839,77.831001 315.938263,72.288948 
	C307.222687,63.837978 307.840393,54.015377 312.090942,44.353184 
	C315.310211,37.035355 320.341858,30.508053 324.638641,23.674007 
	C326.634155,20.500078 329.114532,20.530272 332.131683,22.520594 
	C341.127594,28.455008 349.061798,35.577072 354.799347,44.669857 
	C360.931976,54.388680 367.113922,64.217415 371.843384,74.647049 
	C378.699768,89.767075 377.104279,105.591080 372.010468,120.921448 
	C367.639435,134.076508 362.405670,146.944916 357.357025,160.266388 
z"/>
<path fill="#050505" opacity="1.000000" stroke="none" 
	d="
M287.000244,437.373749 
	C323.664215,437.373810 359.828125,437.361298 395.992035,437.397156 
	C398.983093,437.400116 402.003113,437.525940 404.958862,437.949341 
	C412.229248,438.990875 415.915955,443.258789 415.988281,450.381348 
	C416.056091,457.058044 412.819489,460.912811 405.698212,462.260895 
	C403.102966,462.752228 400.413239,462.932678 397.766357,462.934906 
	C351.436554,462.973846 305.106720,462.967926 258.776886,462.947815 
	C256.616333,462.946869 254.437073,462.862701 252.298630,462.576996 
	C243.981537,461.465851 240.276672,457.590332 240.210281,450.094208 
	C240.147247,442.975067 244.378952,438.272400 252.525726,437.871613 
	C263.831360,437.315460 275.173645,437.504028 287.000244,437.373749 
z"/>
<path fill="#C56F34" opacity="1.000000" stroke="none" 
	d="
M22.965034,422.966370 
	C22.876972,423.188293 22.812963,423.431305 22.748959,423.674316 
	C22.702696,423.485992 22.656427,423.297638 22.824268,423.068787 
	C23.038378,423.028290 22.989084,422.987488 22.965034,422.966370 
z"/>
</svg>