<svg version="1.1" id="Layer_1" xmlns="http://www.w3.org/2000/svg" xmlns:xlink="http://www.w3.org/1999/xlink" x="0px" y="0px"
	 width="100%" viewBox="0 0 1086 556" enable-background="new 0 0 1086 556" xml:space="preserve">
<path fill="#FFFFFF" opacity="1.000000" stroke="none" 
	d="
M627.000000,557.000000 
	C418.000061,557.000000 209.500122,557.000000 1.000140,557.000000 
	C1.000093,371.666779 1.000093,186.333572 1.000047,1.000264 
	C362.999756,1.000176 724.999512,1.000176 1086.999512,1.000088 
	C1086.999634,186.333054 1086.999634,371.666107 1086.999756,556.999573 
	C933.833313,557.000000 780.666687,557.000000 627.000000,557.000000 
M324.030701,327.118744 
	C314.786713,327.118744 305.542755,327.118744 297.307892,327.118744 
	C300.125336,315.120605 303.480713,303.520081 305.491852,291.690979 
	C309.321686,269.164764 304.155365,248.404861 291.188934,229.617691 
	C276.028870,207.652084 255.524536,191.739517 232.953751,178.103638 
	C204.564789,160.952728 174.622162,151.894363 141.143890,158.901642 
	C126.736412,161.917236 114.074783,167.933685 103.880074,178.583206 
	C89.094246,194.028717 83.380035,212.952637 84.188026,233.882156 
	C84.937569,253.297775 94.243729,267.893036 110.850716,277.956604 
	C124.415611,286.176727 139.270630,289.670715 154.914551,290.785828 
	C192.060883,293.433716 221.414871,280.926544 240.262619,247.517075 
	C242.732346,243.139221 245.585403,238.977615 248.526474,234.292847 
	C262.630554,248.729797 273.794067,263.263855 276.734039,283.318451 
	C278.597870,296.032410 271.642578,309.903442 261.435730,315.307861 
	C246.232986,323.357574 229.690323,326.575348 212.835785,326.841522 
	C174.519089,327.446594 136.187759,327.338196 97.864082,327.157623 
	C86.907669,327.106018 75.867729,326.449158 65.026901,324.925659 
	C52.036045,323.099976 39.672913,318.685242 30.172768,309.165222 
	C25.453732,304.436340 22.039158,298.405670 18.162334,293.137695 
	C12.185343,304.808746 11.096493,317.748108 14.605123,330.772705 
	C19.577950,349.232697 32.790684,359.949646 50.251514,366.036896 
	C63.125721,370.525146 76.468491,372.015869 90.039642,372.012238 
	C161.525467,371.993011 233.011276,372.007355 304.497101,371.997131 
	C311.324768,371.996155 318.152435,371.905762 325.912262,371.983337 
	C364.905914,371.989319 403.899719,371.934448 442.893158,372.026733 
	C462.716125,372.073669 480.212708,366.032379 494.975769,352.676117 
	C498.369598,349.605743 501.352478,346.081177 504.621124,342.664581 
	C507.486755,345.225342 510.024414,347.632507 512.706909,349.865692 
	C523.667969,358.990631 535.242188,367.508087 549.466614,370.196991 
	C559.009827,372.000977 568.999390,372.031799 578.776855,371.904999 
	C616.861145,371.411224 651.769592,381.983551 683.944031,401.823090 
	C724.920959,427.090515 766.032349,452.103271 808.884155,474.118347 
	C844.318604,492.322784 880.435852,508.962097 918.350708,521.420593 
	C948.728577,531.402527 979.591797,538.642090 1011.898315,536.881653 
	C1025.108887,536.161804 1038.091431,534.206543 1049.647705,527.050293 
	C1062.604126,519.026978 1067.968628,503.003021 1061.444580,489.703033 
	C1058.706543,484.121277 1054.673706,478.976593 1050.433960,474.364624 
	C1034.159424,456.661621 1014.626953,442.899597 994.140381,430.716644 
	C899.834412,374.634796 805.312134,318.916748 710.867432,263.068207 
	C698.851807,251.648666 685.945312,254.523758 672.890320,260.786072 
	C670.203674,262.074799 667.441650,263.447784 665.195679,265.350189 
	C662.625549,267.527191 660.592468,270.338165 658.154968,273.065155 
	C660.480042,275.213318 662.031494,276.999451 663.908752,278.323822 
	C676.009521,286.860870 687.808838,295.900848 700.391602,303.666595 
	C773.122986,348.554260 848.461548,388.901306 922.777405,431.035065 
	C952.024536,447.616882 980.473450,465.611694 1009.171021,483.150848 
	C1012.353455,485.095886 1015.212952,487.952820 1017.465820,490.954559 
	C1021.984741,496.975433 1019.481018,503.593170 1012.058167,504.811462 
	C1006.710022,505.689240 1000.889160,506.442841 995.738098,505.257446 
	C979.237000,501.459991 962.459229,498.046326 946.662964,492.143738 
	C872.640442,464.483734 802.983765,427.807251 734.948792,387.882599 
	C712.266418,374.571991 689.705505,360.969482 666.388184,348.848694 
	C641.082214,335.694122 614.217407,326.587555 585.135010,327.505524 
	C568.104492,328.043121 552.372009,324.877716 538.302246,315.062866 
	C529.973450,309.252869 521.551636,303.516418 513.676941,297.124390 
	C424.289703,224.567169 335.000549,151.889038 245.679413,79.250381 
	C244.452911,78.252960 243.151733,77.347366 241.512314,76.119484 
	C235.520782,86.971184 229.848083,97.245445 224.116653,107.626091 
	C311.772583,180.874298 398.840057,253.630814 485.907562,326.387329 
	C483.365234,327.406586 481.386871,327.407928 479.408539,327.406372 
	C427.924255,327.365936 376.439972,327.325195 324.030701,327.118744 
z"/>
<path fill="#C47034" opacity="1.000000" stroke="none" 
	d="
M324.955688,327.284515 
	C376.439972,327.325195 427.924255,327.365936 479.408539,327.406372 
	C481.386871,327.407928 483.365234,327.406586 485.907562,326.387329 
	C398.840057,253.630814 311.772583,180.874298 224.116653,107.626091 
	C229.848083,97.245445 235.520782,86.971184 241.512314,76.119484 
	C243.151733,77.347366 244.452911,78.252960 245.679413,79.250381 
	C335.000549,151.889038 424.289703,224.567169 513.676941,297.124390 
	C521.551636,303.516418 529.973450,309.252869 538.302246,315.062866 
	C552.372009,324.877716 568.104492,328.043121 585.135010,327.505524 
	C614.217407,326.587555 641.082214,335.694122 666.388184,348.848694 
	C689.705505,360.969482 712.266418,374.571991 734.948792,387.882599 
	C802.983765,427.807251 872.640442,464.483734 946.662964,492.143738 
	C962.459229,498.046326 979.237000,501.459991 995.738098,505.257446 
	C1000.889160,506.442841 1006.710022,505.689240 1012.058167,504.811462 
	C1019.481018,503.593170 1021.984741,496.975433 1017.465820,490.954559 
	C1015.212952,487.952820 1012.353455,485.095886 1009.171021,483.150848 
	C980.473450,465.611694 952.024536,447.616882 922.777405,431.035065 
	C848.461548,388.901306 773.122986,348.554260 700.391602,303.666595 
	C687.808838,295.900848 676.009521,286.860870 663.908752,278.323822 
	C662.031494,276.999451 660.480042,275.213318 658.154968,273.065155 
	C660.592468,270.338165 662.625549,267.527191 665.195679,265.350189 
	C667.441650,263.447784 670.203674,262.074799 672.890320,260.786072 
	C685.945312,254.523758 698.851807,251.648666 710.867432,263.068207 
	C805.312134,318.916748 899.834412,374.634796 994.140381,430.716644 
	C1014.626953,442.899597 1034.159424,456.661621 1050.433960,474.364624 
	C1054.673706,478.976593 1058.706543,484.121277 1061.444580,489.703033 
	C1067.968628,503.003021 1062.604126,519.026978 1049.647705,527.050293 
	C1038.091431,534.206543 1025.108887,536.161804 1011.898315,536.881653 
	C979.591797,538.642090 948.728577,531.402527 918.350708,521.420593 
	C880.435852,508.962097 844.318604,492.322784 808.884155,474.118347 
	C766.032349,452.103271 724.920959,427.090515 683.944031,401.823090 
	C651.769592,381.983551 616.861145,371.411224 578.776855,371.904999 
	C568.999390,372.031799 559.009827,372.000977 549.466614,370.196991 
	C535.242188,367.508087 523.667969,358.990631 512.706909,349.865692 
	C510.024414,347.632507 507.486755,345.225342 504.621124,342.664581 
	C501.352478,346.081177 498.369598,349.605743 494.975769,352.676117 
	C480.212708,366.032379 462.716125,372.073669 442.893158,372.026733 
	C403.899719,371.934448 364.905914,371.989319 325.456848,371.461670 
	C324.986176,356.388184 324.970947,341.836334 324.955688,327.284515 
z"/>
<path fill="#020202" opacity="1.000000" stroke="none" 
	d="
M324.493195,327.201630 
	C324.970947,341.836334 324.986176,356.388184 324.990753,371.398438 
	C318.152435,371.905762 311.324768,371.996155 304.497101,371.997131 
	C233.011276,372.007355 161.525467,371.993011 90.039642,372.012238 
	C76.468491,372.015869 63.125721,370.525146 50.251514,366.036896 
	C32.790684,359.949646 19.577950,349.232697 14.605123,330.772705 
	C11.096493,317.748108 12.185343,304.808746 18.162334,293.137695 
	C22.039158,298.405670 25.453732,304.436340 30.172768,309.165222 
	C39.672913,318.685242 52.036045,323.099976 65.026901,324.925659 
	C75.867729,326.449158 86.907669,327.106018 97.864082,327.157623 
	C136.187759,327.338196 174.519089,327.446594 212.835785,326.841522 
	C229.690323,326.575348 246.232986,323.357574 261.435730,315.307861 
	C271.642578,309.903442 278.597870,296.032410 276.734039,283.318451 
	C273.794067,263.263855 262.630554,248.729797 248.526474,234.292847 
	C245.585403,238.977615 242.732346,243.139221 240.262619,247.517075 
	C221.414871,280.926544 192.060883,293.433716 154.914551,290.785828 
	C139.270630,289.670715 124.415611,286.176727 110.850716,277.956604 
	C94.243729,267.893036 84.937569,253.297775 84.188026,233.882156 
	C83.380035,212.952637 89.094246,194.028717 103.880074,178.583206 
	C114.074783,167.933685 126.736412,161.917236 141.143890,158.901642 
	C174.622162,151.894363 204.564789,160.952728 232.953751,178.103638 
	C255.524536,191.739517 276.028870,207.652084 291.188934,229.617691 
	C304.155365,248.404861 309.321686,269.164764 305.491852,291.690979 
	C303.480713,303.520081 300.125336,315.120605 297.307892,327.118744 
	C305.542755,327.118744 314.786713,327.118744 324.493195,327.201630 
M139.846222,246.772034 
	C158.970734,250.043564 178.140472,251.629318 197.226578,246.838150 
	C212.108307,243.102402 224.989090,236.211411 232.862640,222.233826 
	C232.387787,221.604065 232.162491,221.110031 231.780243,220.830963 
	C229.768951,219.362488 227.669403,218.012222 225.688705,216.505005 
	C212.369278,206.369598 197.323593,199.620590 181.095474,196.416916 
	C165.013962,193.242218 148.665268,193.528885 132.687683,198.226181 
	C121.738594,201.445160 115.291908,209.149048 114.037735,220.415482 
	C113.036324,229.411285 117.712921,237.402771 127.380394,242.307175 
	C131.047226,244.167404 135.145309,245.177597 139.846222,246.772034 
z"/>
<path fill="#FDFDFD" opacity="1.000000" stroke="none" 
	d="
M139.446533,246.673630 
	C135.145309,245.177597 131.047226,244.167404 127.380394,242.307175 
	C117.712921,237.402771 113.036324,229.411285 114.037735,220.415482 
	C115.291908,209.149048 121.738594,201.445160 132.687683,198.226181 
	C148.665268,193.528885 165.013962,193.242218 181.095474,196.416916 
	C197.323593,199.620590 212.369278,206.369598 225.688705,216.505005 
	C227.669403,218.012222 229.768951,219.362488 231.780243,220.830963 
	C232.162491,221.110031 232.387787,221.604065 232.862640,222.233826 
	C224.989090,236.211411 212.108307,243.102402 197.226578,246.838150 
	C178.140472,251.629318 158.970734,250.043564 139.446533,246.673630 
z"/>
</svg>