<svg version="1.1" id="Layer_1" xmlns="http://www.w3.org/2000/svg" xmlns:xlink="http://www.w3.org/1999/xlink" x="0px" y="0px"
	 width="100%" viewBox="0 0 1682 556" enable-background="new 0 0 1682 556" xml:space="preserve">
<path fill="#FFFFFF" opacity="1.000000" stroke="none" 
	d="
M1049.000000,557.000000 
	C699.372253,557.000000 350.244537,557.000000 1.058409,557.000000 
	C1.058409,371.726288 1.058409,186.452560 1.058409,1.089411 
	C561.544495,1.089411 1122.088989,1.089411 1682.816772,1.089411 
	C1682.816772,186.333191 1682.816772,371.666565 1682.816772,557.000000 
	C1471.785645,557.000000 1260.642822,557.000000 1049.000000,557.000000 
M502.891022,420.063690 
	C529.345459,402.349182 546.213928,376.505188 561.474731,350.318665 
	C567.734131,355.844147 573.122314,361.965851 579.731323,366.167480 
	C596.616028,376.901886 614.832092,379.768646 634.072998,372.624115 
	C635.716064,372.014038 637.650757,372.031616 639.450806,372.025970 
	C663.780762,371.949463 688.120911,372.336853 712.438110,371.756744 
	C734.494019,371.230591 756.338623,368.933685 775.439453,355.449768 
	C782.500244,364.616028 792.498657,368.219452 803.151245,369.829803 
	C812.004700,371.168213 821.036438,371.904388 829.990295,371.914093 
	C950.809509,372.045013 1071.629272,371.856903 1192.448120,372.124512 
	C1216.553223,372.177917 1235.533813,362.765869 1250.934814,344.890564 
	C1253.195679,342.266388 1255.501465,339.680695 1258.018066,336.813324 
	C1262.405884,340.582001 1266.367798,344.378815 1270.725220,347.648499 
	C1281.079102,355.417908 1291.458374,363.176727 1302.165161,370.441895 
	C1306.500244,373.383423 1311.568604,372.658936 1315.593018,369.027802 
	C1322.232544,363.037079 1323.072998,348.915100 1316.538696,342.896637 
	C1300.630127,328.243805 1284.914185,313.283173 1268.052246,299.780701 
	C1185.490234,233.667755 1102.583740,167.985046 1019.786011,102.166573 
	C1006.252441,91.408272 992.653748,80.731812 978.585632,69.623077 
	C972.666199,80.296173 966.975708,90.556541 961.250732,100.878952 
	C963.040222,102.386978 964.269592,103.471947 965.549072,104.494156 
	C1050.782349,172.587677 1136.018677,240.677322 1221.259277,308.761597 
	C1225.323242,312.007690 1225.597778,316.208801 1221.700317,319.818634 
	C1220.264160,321.148712 1218.508423,322.504883 1216.675781,322.968628 
	C1210.272095,324.589020 1203.818604,326.656708 1197.296997,327.028473 
	C1184.835083,327.738922 1172.313477,327.500610 1159.816772,327.481293 
	C1056.351074,327.321381 952.885254,327.078827 849.419434,327.021301 
	C841.810669,327.017090 834.596741,325.778259 828.620789,321.365295 
	C816.468140,312.391144 804.745422,302.831238 792.917847,293.421722 
	C783.287231,285.760101 773.980103,277.671875 764.103516,270.347290 
	C758.682434,266.326996 755.798584,267.075317 752.101440,272.805481 
	C747.971741,279.205872 744.581116,286.082031 740.845215,292.737885 
	C736.788635,299.964966 733.093933,307.435303 728.519287,314.319702 
	C724.284851,320.692108 718.244995,326.140045 710.461304,326.585327 
	C696.402832,327.389587 682.265381,326.812927 667.805298,326.812927 
	C668.872375,322.640320 670.051392,318.363159 671.056458,314.045441 
	C677.321899,287.130341 679.607483,259.708252 679.450989,232.223633 
	C679.052368,162.239120 677.880676,92.259033 676.997009,22.277441 
	C676.992126,21.885992 676.683533,21.498377 676.462402,20.981953 
	C663.813354,27.563379 652.208618,35.233028 642.335022,45.298775 
	C637.068542,50.667759 633.234802,56.778481 633.604736,64.729759 
	C635.548157,106.504875 637.653931,148.273315 639.378967,190.057449 
	C640.712891,222.366898 641.249878,254.705994 637.875427,286.936554 
	C636.576294,299.345337 634.672852,311.786957 627.776550,322.649811 
	C623.611938,329.209900 617.639893,332.303253 609.631592,331.426697 
	C599.839722,330.354858 593.798401,324.319702 589.110962,316.480652 
	C579.476929,300.369110 575.657593,282.314636 574.196899,264.090363 
	C571.536621,230.901443 569.252136,197.616684 568.708740,164.340912 
	C568.069641,125.206520 569.468872,86.039375 569.939026,46.885899 
	C570.041992,38.314556 569.954102,29.740921 569.954102,20.169003 
	C560.840393,25.661037 552.120728,30.741419 543.578979,36.105125 
	C531.759094,43.527298 525.489746,53.571609 525.824402,68.331161 
	C526.991211,119.793701 526.636719,171.301758 528.509277,222.732468 
	C529.401855,247.247391 533.929077,271.637177 537.000610,296.059662 
	C537.636902,301.118958 540.405762,306.184906 539.979492,311.054108 
	C538.380920,329.312866 535.814575,347.642761 528.383972,364.502350 
	C520.150879,383.182861 510.409668,401.198700 500.975647,420.031311 
	C501.100586,420.360260 501.225525,420.689209 501.350433,421.018127 
	C501.641327,420.753723 501.932251,420.489349 502.891022,420.063690 
M79.977921,240.433197 
	C76.566017,266.653625 71.077980,292.388092 58.600082,315.930481 
	C46.678337,338.423523 33.813900,360.416901 21.367159,382.631775 
	C20.464941,384.242035 19.589746,385.867462 18.692732,387.502686 
	C33.116245,382.495544 47.003487,377.488495 61.019108,372.871155 
	C71.197937,369.517853 81.658371,369.808807 92.111710,371.689880 
	C111.236244,375.131317 128.567200,383.077942 145.171646,392.834351 
	C149.151230,395.172638 153.064423,397.623962 157.579514,400.370911 
	C162.271240,390.255310 166.715195,380.600311 171.222229,370.974823 
	C177.017746,358.597595 177.199127,353.376648 162.715469,343.686371 
	C161.614090,342.949493 160.427490,342.326294 159.236969,341.738434 
	C138.585236,331.541504 116.440018,326.275085 93.991409,322.025482 
	C90.307770,321.328217 86.600082,320.757996 82.592369,320.076080 
	C101.807220,267.968964 105.577484,214.212830 106.275780,158.783813 
	C108.229485,162.486130 109.638565,165.062927 110.963951,167.682114 
	C129.518311,204.348434 150.932556,239.169495 177.191132,270.901459 
	C201.824326,300.669250 228.219696,328.573303 261.076904,349.504761 
	C280.839478,362.094360 301.946533,371.555664 325.876526,371.819397 
	C358.699646,372.181183 391.533417,372.160828 424.355499,371.743805 
	C437.483032,371.577026 450.603577,369.895416 462.864410,364.526001 
	C482.275726,356.025146 487.157806,339.030365 473.799683,322.665619 
	C465.219086,312.153656 455.163696,302.741425 445.086060,293.588562 
	C437.031982,286.273590 427.946869,280.093811 419.767914,273.757629 
	C413.191467,285.010376 407.636139,295.823944 400.855927,305.805481 
	C391.092255,320.179169 377.773041,328.514526 359.487610,327.004425 
	C353.198181,326.484985 346.829651,326.942291 340.497406,326.918427 
	C311.514679,326.809174 285.088745,317.901672 260.837830,302.645386 
	C228.751144,282.459534 204.608566,254.340790 184.412186,222.766129 
	C162.455658,188.439713 145.411362,151.519119 128.905716,114.362053 
	C123.656456,102.545067 118.527184,90.674774 112.995461,78.034729 
	C105.674881,82.927483 98.609009,87.264313 91.995499,92.206490 
	C87.625610,95.472038 83.688019,99.402618 79.936882,103.392700 
	C70.262718,113.683060 70.888542,126.028984 73.386078,138.660980 
	C76.256531,153.179153 80.770065,167.609299 81.568108,182.241394 
	C82.605110,201.254944 80.684174,220.429810 79.977921,240.433197 
M1580.546387,204.043625 
	C1574.378662,205.360489 1568.013306,206.091675 1562.077026,208.094391 
	C1534.603394,217.362839 1514.460083,234.675873 1508.423340,263.860565 
	C1503.075684,289.714294 1507.312256,314.876038 1520.962891,337.921875 
	C1528.045654,349.879395 1537.252808,359.854401 1550.057495,365.840912 
	C1580.932617,380.275879 1623.441162,369.035278 1644.184326,340.914978 
	C1663.105957,315.264374 1666.207153,286.482758 1659.198608,256.392059 
	C1654.567627,236.508728 1643.421509,220.559738 1625.162598,210.498260 
	C1611.485352,202.961472 1596.586182,202.351425 1580.546387,204.043625 
M1403.640137,243.011414 
	C1387.330566,246.516068 1376.918335,256.738342 1370.582031,271.767853 
	C1364.848267,285.368347 1363.940186,299.472229 1366.331665,313.794891 
	C1368.086426,324.305267 1372.094727,334.101776 1380.510376,341.040741 
	C1388.058472,347.264465 1396.328857,352.613037 1404.289917,358.334747 
	C1419.597778,369.336456 1423.581543,379.998260 1419.154663,398.344391 
	C1416.565186,409.076294 1410.906250,418.131317 1403.680176,426.306549 
	C1398.549927,432.110718 1393.409546,437.905884 1388.273682,443.705048 
	C1388.569214,444.177795 1388.864746,444.650513 1389.160156,445.123230 
	C1395.047607,442.142761 1401.229248,439.624695 1406.770020,436.099182 
	C1427.339111,423.011414 1441.075439,404.241974 1450.466431,382.051178 
	C1465.605347,346.277802 1466.963501,309.944580 1454.031860,273.337799 
	C1445.472534,249.107956 1427.528198,238.455215 1403.640137,243.011414 
M1403.346069,501.038452 
	C1408.077148,505.867065 1412.552734,510.985931 1417.612915,515.440674 
	C1422.436035,519.686707 1426.256592,520.123779 1431.017944,516.148132 
	C1437.045898,511.114685 1442.532837,505.316925 1447.601074,499.299683 
	C1450.138916,496.286621 1450.673218,492.015747 1448.543213,488.061035 
	C1443.710938,479.089417 1436.884888,471.983490 1427.734375,467.566559 
	C1425.679443,466.574677 1421.650879,467.072845 1419.899170,468.529968 
	C1414.223511,473.251404 1408.938843,478.515320 1403.971802,483.994781 
	C1399.472900,488.957794 1399.197998,494.680939 1403.346069,501.038452 
z"/>
<path fill="#010101" opacity="1.000000" stroke="none" 
	d="
M501.325134,419.503937 
	C510.409668,401.198700 520.150879,383.182861 528.383972,364.502350 
	C535.814575,347.642761 538.380920,329.312866 539.979492,311.054108 
	C540.405762,306.184906 537.636902,301.118958 537.000610,296.059662 
	C533.929077,271.637177 529.401855,247.247391 528.509277,222.732468 
	C526.636719,171.301758 526.991211,119.793701 525.824402,68.331161 
	C525.489746,53.571609 531.759094,43.527298 543.578979,36.105125 
	C552.120728,30.741419 560.840393,25.661037 569.954102,20.169003 
	C569.954102,29.740921 570.041992,38.314556 569.939026,46.885899 
	C569.468872,86.039375 568.069641,125.206520 568.708740,164.340912 
	C569.252136,197.616684 571.536621,230.901443 574.196899,264.090363 
	C575.657593,282.314636 579.476929,300.369110 589.110962,316.480652 
	C593.798401,324.319702 599.839722,330.354858 609.631592,331.426697 
	C617.639893,332.303253 623.611938,329.209900 627.776550,322.649811 
	C634.672852,311.786957 636.576294,299.345337 637.875427,286.936554 
	C641.249878,254.705994 640.712891,222.366898 639.378967,190.057449 
	C637.653931,148.273315 635.548157,106.504875 633.604736,64.729759 
	C633.234802,56.778481 637.068542,50.667759 642.335022,45.298775 
	C652.208618,35.233028 663.813354,27.563379 676.462402,20.981953 
	C676.683533,21.498377 676.992126,21.885992 676.997009,22.277441 
	C677.880676,92.259033 679.052368,162.239120 679.450989,232.223633 
	C679.607483,259.708252 677.321899,287.130341 671.056458,314.045441 
	C670.051392,318.363159 668.872375,322.640320 667.805298,326.812927 
	C682.265381,326.812927 696.402832,327.389587 710.461304,326.585327 
	C718.244995,326.140045 724.284851,320.692108 728.519287,314.319702 
	C733.093933,307.435303 736.788635,299.964966 740.845215,292.737885 
	C744.581116,286.082031 747.971741,279.205872 752.101440,272.805481 
	C755.798584,267.075317 758.682434,266.326996 764.103516,270.347290 
	C773.980103,277.671875 783.287231,285.760101 792.917847,293.421722 
	C804.745422,302.831238 816.468140,312.391144 828.620789,321.365295 
	C834.596741,325.778259 841.810669,327.017090 849.419434,327.021301 
	C952.885254,327.078827 1056.351074,327.321381 1159.816772,327.481293 
	C1172.313477,327.500610 1184.835083,327.738922 1197.296997,327.028473 
	C1203.818604,326.656708 1210.272095,324.589020 1216.675781,322.968628 
	C1218.508423,322.504883 1220.264160,321.148712 1221.700317,319.818634 
	C1225.597778,316.208801 1225.323242,312.007690 1221.259277,308.761597 
	C1136.018677,240.677322 1050.782349,172.587677 965.549072,104.494156 
	C964.269592,103.471947 963.040222,102.386978 961.250732,100.878952 
	C966.975708,90.556541 972.666199,80.296173 978.585632,69.623077 
	C992.653748,80.731812 1006.252441,91.408272 1019.786011,102.166573 
	C1102.583740,167.985046 1185.490234,233.667755 1268.052246,299.780701 
	C1284.914185,313.283173 1300.630127,328.243805 1316.538696,342.896637 
	C1323.072998,348.915100 1322.232544,363.037079 1315.593018,369.027802 
	C1311.568604,372.658936 1306.500244,373.383423 1302.165161,370.441895 
	C1291.458374,363.176727 1281.079102,355.417908 1270.725220,347.648499 
	C1266.367798,344.378815 1262.405884,340.582001 1258.018066,336.813324 
	C1255.501465,339.680695 1253.195679,342.266388 1250.934814,344.890564 
	C1235.533813,362.765869 1216.553223,372.177917 1192.448120,372.124512 
	C1071.629272,371.856903 950.809509,372.045013 829.990295,371.914093 
	C821.036438,371.904388 812.004700,371.168213 803.151245,369.829803 
	C792.498657,368.219452 782.500244,364.616028 775.439453,355.449768 
	C756.338623,368.933685 734.494019,371.230591 712.438110,371.756744 
	C688.120911,372.336853 663.780762,371.949463 639.450806,372.025970 
	C637.650757,372.031616 635.716064,372.014038 634.072998,372.624115 
	C614.832092,379.768646 596.616028,376.901886 579.731323,366.167480 
	C573.122314,361.965851 567.734131,355.844147 561.474731,350.318665 
	C546.213928,376.505188 529.345459,402.349182 502.339386,419.955627 
	C501.633575,419.733032 501.479370,419.618500 501.325134,419.503937 
z"/>
<path fill="#C57034" opacity="1.000000" stroke="none" 
	d="
M80.007141,239.984222 
	C80.684174,220.429810 82.605110,201.254944 81.568108,182.241394 
	C80.770065,167.609299 76.256531,153.179153 73.386078,138.660980 
	C70.888542,126.028984 70.262718,113.683060 79.936882,103.392700 
	C83.688019,99.402618 87.625610,95.472038 91.995499,92.206490 
	C98.609009,87.264313 105.674881,82.927483 112.995461,78.034729 
	C118.527184,90.674774 123.656456,102.545067 128.905716,114.362053 
	C145.411362,151.519119 162.455658,188.439713 184.412186,222.766129 
	C204.608566,254.340790 228.751144,282.459534 260.837830,302.645386 
	C285.088745,317.901672 311.514679,326.809174 340.497406,326.918427 
	C346.829651,326.942291 353.198181,326.484985 359.487610,327.004425 
	C377.773041,328.514526 391.092255,320.179169 400.855927,305.805481 
	C407.636139,295.823944 413.191467,285.010376 419.767914,273.757629 
	C427.946869,280.093811 437.031982,286.273590 445.086060,293.588562 
	C455.163696,302.741425 465.219086,312.153656 473.799683,322.665619 
	C487.157806,339.030365 482.275726,356.025146 462.864410,364.526001 
	C450.603577,369.895416 437.483032,371.577026 424.355499,371.743805 
	C391.533417,372.160828 358.699646,372.181183 325.876526,371.819397 
	C301.946533,371.555664 280.839478,362.094360 261.076904,349.504761 
	C228.219696,328.573303 201.824326,300.669250 177.191132,270.901459 
	C150.932556,239.169495 129.518311,204.348434 110.963951,167.682114 
	C109.638565,165.062927 108.229485,162.486130 106.275780,158.783813 
	C105.577484,214.212830 101.807220,267.968964 82.592369,320.076080 
	C86.600082,320.757996 90.307770,321.328217 93.991409,322.025482 
	C116.440018,326.275085 138.585236,331.541504 159.236969,341.738434 
	C160.427490,342.326294 161.614090,342.949493 162.715469,343.686371 
	C177.199127,353.376648 177.017746,358.597595 171.222229,370.974823 
	C166.715195,380.600311 162.271240,390.255310 157.579514,400.370911 
	C153.064423,397.623962 149.151230,395.172638 145.171646,392.834351 
	C128.567200,383.077942 111.236244,375.131317 92.111710,371.689880 
	C81.658371,369.808807 71.197937,369.517853 61.019108,372.871155 
	C47.003487,377.488495 33.116245,382.495544 18.692732,387.502686 
	C19.589746,385.867462 20.464941,384.242035 21.367159,382.631775 
	C33.813900,360.416901 46.678337,338.423523 58.600082,315.930481 
	C71.077980,292.388092 76.566017,266.653625 80.007141,239.984222 
z"/>
<path fill="#020202" opacity="1.000000" stroke="none" 
	d="
M1580.995361,204.016083 
	C1596.586182,202.351425 1611.485352,202.961472 1625.162598,210.498260 
	C1643.421509,220.559738 1654.567627,236.508728 1659.198608,256.392059 
	C1666.207153,286.482758 1663.105957,315.264374 1644.184326,340.914978 
	C1623.441162,369.035278 1580.932617,380.275879 1550.057495,365.840912 
	C1537.252808,359.854401 1528.045654,349.879395 1520.962891,337.921875 
	C1507.312256,314.876038 1503.075684,289.714294 1508.423340,263.860565 
	C1514.460083,234.675873 1534.603394,217.362839 1562.077026,208.094391 
	C1568.013306,206.091675 1574.378662,205.360489 1580.995361,204.016083 
M1601.199341,326.330780 
	C1612.510864,327.814148 1623.137085,326.394562 1632.161865,318.718506 
	C1633.325806,317.728455 1634.616821,316.143341 1634.710449,314.757019 
	C1635.463379,303.616089 1636.359741,292.310059 1631.495728,281.818512 
	C1612.747803,241.380356 1570.736450,231.171326 1532.796631,247.203186 
	C1530.108276,248.339127 1529.940796,250.286469 1529.990479,252.794495 
	C1530.663330,286.801666 1564.877563,322.542175 1601.199341,326.330780 
z"/>
<path fill="#020202" opacity="1.000000" stroke="none" 
	d="
M1404.071045,242.998169 
	C1427.528198,238.455215 1445.472534,249.107956 1454.031860,273.337799 
	C1466.963501,309.944580 1465.605347,346.277802 1450.466431,382.051178 
	C1441.075439,404.241974 1427.339111,423.011414 1406.770020,436.099182 
	C1401.229248,439.624695 1395.047607,442.142761 1389.160156,445.123230 
	C1388.864746,444.650513 1388.569214,444.177795 1388.273682,443.705048 
	C1393.409546,437.905884 1398.549927,432.110718 1403.680176,426.306549 
	C1410.906250,418.131317 1416.565186,409.076294 1419.154663,398.344391 
	C1423.581543,379.998260 1419.597778,369.336456 1404.289917,358.334747 
	C1396.328857,352.613037 1388.058472,347.264465 1380.510376,341.040741 
	C1372.094727,334.101776 1368.086426,324.305267 1366.331665,313.794891 
	C1363.940186,299.472229 1364.848267,285.368347 1370.582031,271.767853 
	C1376.918335,256.738342 1387.330566,246.516068 1404.071045,242.998169 
z"/>
<path fill="#050505" opacity="1.000000" stroke="none" 
	d="
M1403.157959,500.720398 
	C1399.197998,494.680939 1399.472900,488.957794 1403.971802,483.994781 
	C1408.938843,478.515320 1414.223511,473.251404 1419.899170,468.529968 
	C1421.650879,467.072845 1425.679443,466.574677 1427.734375,467.566559 
	C1436.884888,471.983490 1443.710938,479.089417 1448.543213,488.061035 
	C1450.673218,492.015747 1450.138916,496.286621 1447.601074,499.299683 
	C1442.532837,505.316925 1437.045898,511.114685 1431.017944,516.148132 
	C1426.256592,520.123779 1422.436035,519.686707 1417.612915,515.440674 
	C1412.552734,510.985931 1408.077148,505.867065 1403.157959,500.720398 
z"/>
<path fill="#010101" opacity="1.000000" stroke="none" 
	d="
M502.005432,420.036255 
	C501.932251,420.489349 501.641327,420.753723 501.350464,421.018127 
	C501.225525,420.689209 501.100586,420.360260 501.150391,419.767639 
	C501.479370,419.618500 501.633575,419.733032 502.005432,420.036255 
z"/>
<path fill="#FDFDFD" opacity="1.000000" stroke="none" 
	d="
M1600.761841,326.253265 
	C1564.877563,322.542175 1530.663330,286.801666 1529.990479,252.794495 
	C1529.940796,250.286469 1530.108276,248.339127 1532.796631,247.203186 
	C1570.736450,231.171326 1612.747803,241.380356 1631.495728,281.818512 
	C1636.359741,292.310059 1635.463379,303.616089 1634.710449,314.757019 
	C1634.616821,316.143341 1633.325806,317.728455 1632.161865,318.718506 
	C1623.137085,326.394562 1612.510864,327.814148 1600.761841,326.253265 
z"/>
</svg>