<svg version="1.1" id="Layer_1" xmlns="http://www.w3.org/2000/svg" xmlns:xlink="http://www.w3.org/1999/xlink" x="0px" y="0px"
	 width="100%" viewBox="0 0 1802 556" enable-background="new 0 0 1802 556" xml:space="preserve">
<path fill="#FFFFFF" opacity="1.000000" stroke="none" 
	d="
M1189.000000,557.000000 
	C792.666687,557.000000 396.833344,557.000000 1.000000,557.000000 
	C1.000000,371.666656 1.000000,186.333328 1.000000,1.000000 
	C601.666687,1.000000 1202.333374,1.000000 1803.000000,1.000000 
	C1803.000000,186.333328 1803.000000,371.666656 1803.000000,557.000000 
	C1598.500000,557.000000 1394.000000,557.000000 1189.000000,557.000000 
M275.396667,323.801636 
	C259.505066,315.915558 246.982162,303.643921 233.830063,292.140442 
	C225.447510,284.808624 216.815140,277.707947 207.835083,271.131378 
	C200.946671,266.086639 198.361328,266.749115 193.707123,274.057678 
	C189.705948,280.340790 186.527222,287.143188 182.880402,293.657532 
	C178.913895,300.742889 175.328979,308.115204 170.666870,314.719452 
	C164.684952,323.193237 156.319550,327.757019 145.453308,327.176727 
	C137.975067,326.777374 130.363632,327.781647 122.992348,326.800964 
	C116.606270,325.951324 109.873840,324.237732 104.349983,321.067139 
	C91.205521,313.522430 85.138023,300.531494 84.294823,286.232727 
	C82.994095,264.175354 83.439720,242.008224 83.372871,219.886978 
	C83.313560,200.259262 84.401260,180.591827 83.493210,161.011002 
	C81.937790,127.470680 79.265724,93.981110 76.967163,60.476780 
	C76.065514,47.333988 74.907104,34.208817 73.821327,20.516949 
	C59.527733,29.646622 46.388851,39.086533 35.490742,51.289959 
	C32.008923,55.188812 29.569592,59.629383 30.159258,65.247375 
	C32.622608,88.716782 35.370148,112.164215 37.332035,135.676575 
	C40.344521,171.779907 43.499226,207.895889 45.256168,244.071457 
	C46.580029,271.329803 43.220840,298.477570 38.770576,325.410431 
	C34.611671,350.579987 29.696159,375.586395 21.788273,399.893433 
	C19.358368,407.362427 16.429550,414.669098 13.729196,422.050079 
	C15.719319,421.708313 17.035536,420.847900 18.182280,419.801727 
	C42.596779,397.529694 59.025387,370.154541 69.457840,338.050995 
	C70.452377,339.746979 70.982430,340.539276 71.403671,341.385712 
	C79.632607,357.921234 93.174599,368.134674 111.116226,370.373566 
	C126.553741,372.299896 142.362427,372.175720 157.962646,371.647766 
	C178.969254,370.936890 199.793060,368.444092 217.920685,355.403381 
	C223.659698,362.946991 231.542877,367.243225 240.287552,368.628174 
	C252.057953,370.492371 264.067688,370.845367 276.907257,371.975677 
	C297.950043,371.975677 318.992859,371.975677 340.577209,371.975677 
	C339.766632,374.739075 339.283661,376.657928 338.644318,378.523163 
	C332.391083,396.766266 328.827362,415.462036 328.677094,434.804474 
	C328.581146,447.157166 330.093201,459.249969 336.310059,470.016998 
	C355.475403,503.209442 383.031586,521.846985 422.787689,517.995972 
	C448.376495,515.517212 468.468262,503.632019 482.515350,481.912262 
	C490.088867,470.202057 493.901978,457.141541 495.590942,443.479736 
	C498.005035,423.952332 496.325836,404.963531 487.007568,387.150024 
	C477.258850,368.513580 461.611938,356.230042 443.569946,346.497009 
	C425.721344,336.868286 407.051483,329.790527 385.792145,328.756317 
	C398.889343,300.312958 406.598267,271.033173 409.054230,240.001266 
	C411.182312,240.001266 412.976044,240.001266 414.769775,240.001266 
	C436.600708,240.001251 458.434021,239.827667 480.260834,240.128281 
	C485.454651,240.199814 489.583191,238.410477 493.779572,235.979736 
	C498.049835,233.506195 502.258392,230.875015 506.715485,228.785309 
	C517.344666,223.801849 525.266541,214.923767 529.934814,205.413605 
	C539.787231,185.342346 542.141296,163.291077 537.611633,141.138138 
	C533.714600,122.079063 524.120667,106.094238 506.404388,97.151543 
	C477.276337,82.448471 448.855225,87.551399 421.977600,103.633499 
	C412.958130,109.030258 405.208649,116.549484 396.411163,123.466133 
	C394.509613,121.822380 392.161133,119.751656 389.769135,117.732460 
	C383.432068,112.383026 377.587555,106.244522 370.636963,101.864006 
	C344.262085,85.241539 316.712799,83.714485 289.415710,99.047043 
	C256.030457,117.799286 255.038467,160.749252 265.382477,184.468323 
	C267.448364,189.205429 271.230530,193.211990 274.331360,197.475372 
	C278.458710,203.150055 281.890350,209.667496 287.058075,214.175262 
	C296.430603,222.350876 306.653168,229.622742 316.978027,236.594849 
	C320.285919,238.828583 325.018616,239.767761 329.129700,239.853989 
	C345.953796,240.206879 362.789612,240.001266 379.621094,240.001282 
	C381.356720,240.001282 383.092346,240.001282 385.016663,240.001282 
	C382.086945,270.025116 374.883270,298.082764 361.921112,324.521973 
	C361.192322,326.008484 358.382507,327.261963 356.524719,327.284943 
	C339.529175,327.495056 322.516876,327.809448 305.536835,327.254883 
	C295.681396,326.933014 285.475189,328.701965 275.396667,323.801636 
M1658.308594,302.197815 
	C1666.012451,310.275299 1673.716431,318.352783 1681.898560,326.931702 
	C1640.817383,326.931702 1600.659058,326.950928 1560.500732,326.881470 
	C1558.214600,326.877533 1555.871826,326.352234 1553.654053,325.722351 
	C1540.270020,321.921448 1528.794922,314.464722 1518.047852,306.025909 
	C1462.769897,262.620819 1407.642700,219.023453 1352.468140,175.486588 
	C1344.135132,168.911102 1335.829590,162.300781 1327.743774,155.890930 
	C1331.120361,147.129318 1334.629395,139.033707 1337.374390,130.686813 
	C1342.826172,114.109581 1347.262939,97.190948 1341.578491,79.822487 
	C1335.422241,61.011871 1324.886353,44.672543 1310.642822,30.930639 
	C1306.334473,26.774134 1301.014648,23.666004 1296.281616,20.168869 
	C1287.185303,28.843040 1281.091797,37.939117 1278.325195,49.152439 
	C1276.340088,57.198631 1276.534790,64.544312 1282.804321,70.926117 
	C1287.466553,75.671837 1291.629639,80.905624 1296.251709,85.693535 
	C1303.272827,92.966667 1309.284912,100.913826 1312.513916,110.558540 
	C1316.276855,121.798325 1318.386230,133.251389 1314.590088,145.689377 
	C1282.794434,120.244080 1251.429810,95.143776 1219.303223,69.433754 
	C1213.419434,80.293030 1207.846191,90.579010 1202.288574,100.836067 
	C1235.697998,127.540520 1268.306763,153.605072 1300.865601,179.629639 
	C1293.494629,195.033691 1286.347412,209.970276 1279.026245,225.270096 
	C1223.934448,181.353897 1169.068848,137.618011 1113.500854,93.322212 
	C1106.841553,103.814552 1100.553345,113.722168 1094.243286,123.664314 
	C1096.301880,125.383087 1097.544922,126.472298 1098.840332,127.495094 
	C1154.139893,171.155624 1209.432373,214.824982 1264.787354,258.415131 
	C1267.142334,260.269653 1267.814697,261.829498 1267.462402,264.996033 
	C1266.379272,274.731750 1265.133301,284.589264 1265.566406,294.327606 
	C1266.878906,323.838196 1271.888550,352.871979 1279.040527,381.504669 
	C1280.963623,389.204681 1284.022339,396.621063 1286.828247,404.966187 
	C1300.549683,387.905853 1312.661499,371.804871 1315.768433,350.660950 
	C1318.871948,329.539764 1311.005493,310.584778 1304.437378,290.218048 
	C1306.206543,291.571228 1306.993408,292.156219 1307.762329,292.763580 
	C1334.687622,314.029663 1361.450806,335.505280 1388.596924,356.485535 
	C1404.123901,368.485809 1420.610596,377.774475 1441.819092,374.264526 
	C1456.537598,371.828735 1469.909302,367.573120 1480.462402,356.604553 
	C1486.649170,350.174194 1492.747925,343.658905 1499.008789,337.052582 
	C1500.633667,338.319855 1502.150269,339.609100 1503.771362,340.750061 
	C1516.695190,349.846008 1529.408569,359.273743 1542.710815,367.779816 
	C1546.912842,370.466858 1552.688354,371.735962 1557.774292,371.820862 
	C1582.097046,372.226746 1606.432739,371.791534 1630.759155,372.071747 
	C1649.232666,372.284515 1665.437378,366.891144 1679.261719,354.520233 
	C1684.564331,349.775146 1689.995605,345.173676 1695.414185,340.466858 
	C1698.212646,342.540100 1700.630737,344.608429 1703.304443,346.264191 
	C1714.449219,353.166351 1725.247314,360.802490 1736.956665,366.580627 
	C1758.147217,377.037323 1780.746216,370.213623 1792.503418,350.766144 
	C1774.010376,349.424866 1758.724609,340.579803 1744.916992,329.477478 
	C1731.450928,318.649658 1718.148071,307.337067 1706.375366,294.740265 
	C1676.801880,263.096497 1648.133911,230.606247 1619.098633,198.459290 
	C1618.013550,197.257919 1616.881836,196.098816 1615.391968,194.516312 
	C1607.745361,201.226395 1600.155151,207.474991 1593.059204,214.241867 
	C1587.189697,219.839142 1587.073853,220.979111 1592.256592,226.942276 
	C1613.997070,251.955536 1635.958130,276.777069 1658.308594,302.197815 
M838.500000,372.001251 
	C849.789795,371.532471 861.403320,372.582703 872.298340,370.261261 
	C891.680481,366.131531 902.851318,351.756195 910.029419,334.213715 
	C917.106934,316.917236 917.156860,298.784943 914.881470,280.607697 
	C911.908081,256.855560 903.301514,235.545471 883.781860,220.684265 
	C854.327576,198.259430 820.569336,193.509064 785.294922,201.321793 
	C765.203186,205.771790 749.283508,218.215622 737.483948,235.247299 
	C732.225769,242.837097 728.430237,251.736664 732.247192,260.619598 
	C736.657776,270.884094 742.664429,280.562195 748.828735,289.935516 
	C752.369507,295.319611 756.286072,294.646545 759.553711,288.845123 
	C762.314636,283.943390 764.489380,278.705780 766.830811,273.574493 
	C773.885132,258.114960 784.837402,246.928467 802.150818,244.448807 
	C811.263733,243.143631 820.800537,243.214523 829.971130,244.234833 
	C847.389526,246.172760 862.936890,252.714279 870.871033,269.592316 
	C874.523865,277.362762 876.500366,286.299988 877.420410,294.902374 
	C879.780518,316.970795 870.279602,326.907074 848.157227,326.933990 
	C846.823914,326.935608 845.490601,326.934387 844.157288,326.934387 
	C794.158447,326.934418 744.158020,326.721252 694.162048,327.099915 
	C683.099548,327.183685 673.287415,324.626038 664.806519,318.019958 
	C653.000122,308.823456 641.747375,298.919189 630.161194,289.435730 
	C622.439453,283.115387 614.778687,276.678986 606.662781,270.894928 
	C600.105774,266.221893 597.659790,266.840332 593.225220,273.631470 
	C589.512573,279.317200 586.209167,285.319061 583.243713,291.432739 
	C578.374023,301.471985 573.849854,311.663147 565.708130,319.657623 
	C565.030823,320.322693 564.377075,321.320984 564.284607,322.223114 
	C563.580627,329.089447 559.557190,334.309357 555.381226,339.202301 
	C547.177307,348.814758 545.721497,359.812805 547.461609,372.090332 
	C571.848816,371.192078 596.078979,370.201263 617.210022,355.499725 
	C623.375122,363.358765 631.608276,367.412445 640.779968,368.893707 
	C650.924011,370.532013 661.250427,371.815582 671.504517,371.867798 
	C726.835144,372.149597 782.167969,372.001251 838.500000,372.001251 
M963.350952,313.074554 
	C964.251953,315.922729 964.988586,318.835571 966.080383,321.608643 
	C973.534302,340.540344 984.270203,356.945007 1003.344666,365.896576 
	C1034.083130,380.322083 1076.619995,369.198151 1097.005981,341.031769 
	C1118.177002,311.781036 1120.943726,279.457886 1108.761597,246.218399 
	C1101.193970,225.570007 1086.585449,210.664413 1064.402222,205.291061 
	C1047.660278,201.235718 1030.814575,202.717194 1014.659241,208.195389 
	C987.833801,217.291794 968.491821,234.376968 961.569092,262.824951 
	C957.557190,279.311462 959.294373,295.899628 963.350952,313.074554 
M13.428758,423.731903 
	C13.549579,423.623383 13.756516,423.522522 13.766975,423.404266 
	C13.777411,423.286255 13.591002,423.150818 13.490907,423.023010 
	C13.370018,423.131500 13.249130,423.239990 13.428758,423.731903 
z"/>
<path fill="#020202" opacity="1.000000" stroke="none" 
	d="
M1658.073486,301.933289 
	C1635.958130,276.777069 1613.997070,251.955536 1592.256592,226.942276 
	C1587.073853,220.979111 1587.189697,219.839142 1593.059204,214.241867 
	C1600.155151,207.474991 1607.745361,201.226395 1615.391968,194.516312 
	C1616.881836,196.098816 1618.013550,197.257919 1619.098633,198.459290 
	C1648.133911,230.606247 1676.801880,263.096497 1706.375366,294.740265 
	C1718.148071,307.337067 1731.450928,318.649658 1744.916992,329.477478 
	C1758.724609,340.579803 1774.010376,349.424866 1792.503418,350.766144 
	C1780.746216,370.213623 1758.147217,377.037323 1736.956665,366.580627 
	C1725.247314,360.802490 1714.449219,353.166351 1703.304443,346.264191 
	C1700.630737,344.608429 1698.212646,342.540100 1695.414185,340.466858 
	C1689.995605,345.173676 1684.564331,349.775146 1679.261719,354.520233 
	C1665.437378,366.891144 1649.232666,372.284515 1630.759155,372.071747 
	C1606.432739,371.791534 1582.097046,372.226746 1557.774292,371.820862 
	C1552.688354,371.735962 1546.912842,370.466858 1542.710815,367.779816 
	C1529.408569,359.273743 1516.695190,349.846008 1503.771362,340.750061 
	C1502.150269,339.609100 1500.633667,338.319855 1499.008789,337.052582 
	C1492.747925,343.658905 1486.649170,350.174194 1480.462402,356.604553 
	C1469.909302,367.573120 1456.537598,371.828735 1441.819092,374.264526 
	C1420.610596,377.774475 1404.123901,368.485809 1388.596924,356.485535 
	C1361.450806,335.505280 1334.687622,314.029663 1307.762329,292.763580 
	C1306.993408,292.156219 1306.206543,291.571228 1304.437378,290.218048 
	C1311.005493,310.584778 1318.871948,329.539764 1315.768433,350.660950 
	C1312.661499,371.804871 1300.549683,387.905853 1286.828247,404.966187 
	C1284.022339,396.621063 1280.963623,389.204681 1279.040527,381.504669 
	C1271.888550,352.871979 1266.878906,323.838196 1265.566406,294.327606 
	C1265.133301,284.589264 1266.379272,274.731750 1267.462402,264.996033 
	C1267.814697,261.829498 1267.142334,260.269653 1264.787354,258.415131 
	C1209.432373,214.824982 1154.139893,171.155624 1098.840332,127.495094 
	C1097.544922,126.472298 1096.301880,125.383087 1094.243286,123.664314 
	C1100.553345,113.722168 1106.841553,103.814552 1113.500854,93.322212 
	C1169.068848,137.618011 1223.934448,181.353897 1279.026245,225.270096 
	C1286.347412,209.970276 1293.494629,195.033691 1300.865601,179.629639 
	C1268.306763,153.605072 1235.697998,127.540520 1202.288574,100.836067 
	C1207.846191,90.579010 1213.419434,80.293030 1219.303223,69.433754 
	C1251.429810,95.143776 1282.794434,120.244080 1314.590088,145.689377 
	C1318.386230,133.251389 1316.276855,121.798325 1312.513916,110.558540 
	C1309.284912,100.913826 1303.272827,92.966667 1296.251709,85.693535 
	C1291.629639,80.905624 1287.466553,75.671837 1282.804321,70.926117 
	C1276.534790,64.544312 1276.340088,57.198631 1278.325195,49.152439 
	C1281.091797,37.939117 1287.185303,28.843040 1296.281616,20.168869 
	C1301.014648,23.666004 1306.334473,26.774134 1310.642822,30.930639 
	C1324.886353,44.672543 1335.422241,61.011871 1341.578491,79.822487 
	C1347.262939,97.190948 1342.826172,114.109581 1337.374390,130.686813 
	C1334.629395,139.033707 1331.120361,147.129318 1327.743774,155.890930 
	C1335.829590,162.300781 1344.135132,168.911102 1352.468140,175.486588 
	C1407.642700,219.023453 1462.769897,262.620819 1518.047852,306.025909 
	C1528.794922,314.464722 1540.270020,321.921448 1553.654053,325.722351 
	C1555.871826,326.352234 1558.214600,326.877533 1560.500732,326.881470 
	C1600.659058,326.950928 1640.817383,326.931702 1681.898560,326.931702 
	C1673.716431,318.352783 1666.012451,310.275299 1658.073486,301.933289 
M1294.422241,237.441925 
	C1315.201660,253.858734 1335.911133,270.365295 1356.781372,286.665802 
	C1375.681519,301.427551 1394.655396,316.099762 1413.820557,330.513977 
	C1419.191895,334.553711 1424.852783,338.435059 1432.348877,338.091248 
	C1449.657715,337.297302 1461.736572,329.029236 1469.173950,313.429321 
	C1416.753174,271.662079 1364.437500,229.978668 1311.104492,187.484589 
	C1305.838013,200.718643 1300.735718,213.104279 1296.032593,225.639725 
	C1294.720459,229.136978 1294.588379,233.077042 1294.422241,237.441925 
z"/>
<path fill="#C47034" opacity="1.000000" stroke="none" 
	d="
M276.022064,324.145966 
	C285.475189,328.701965 295.681396,326.933014 305.536835,327.254883 
	C322.516876,327.809448 339.529175,327.495056 356.524719,327.284943 
	C358.382507,327.261963 361.192322,326.008484 361.921112,324.521973 
	C374.883270,298.082764 382.086945,270.025116 385.016663,240.001282 
	C383.092346,240.001282 381.356720,240.001282 379.621094,240.001282 
	C362.789612,240.001266 345.953796,240.206879 329.129700,239.853989 
	C325.018616,239.767761 320.285919,238.828583 316.978027,236.594849 
	C306.653168,229.622742 296.430603,222.350876 287.058075,214.175262 
	C281.890350,209.667496 278.458710,203.150055 274.331360,197.475372 
	C271.230530,193.211990 267.448364,189.205429 265.382477,184.468323 
	C255.038467,160.749252 256.030457,117.799286 289.415710,99.047043 
	C316.712799,83.714485 344.262085,85.241539 370.636963,101.864006 
	C377.587555,106.244522 383.432068,112.383026 389.769135,117.732460 
	C392.161133,119.751656 394.509613,121.822380 396.411163,123.466133 
	C405.208649,116.549484 412.958130,109.030258 421.977600,103.633499 
	C448.855225,87.551399 477.276337,82.448471 506.404388,97.151543 
	C524.120667,106.094238 533.714600,122.079063 537.611633,141.138138 
	C542.141296,163.291077 539.787231,185.342346 529.934814,205.413605 
	C525.266541,214.923767 517.344666,223.801849 506.715485,228.785309 
	C502.258392,230.875015 498.049835,233.506195 493.779572,235.979736 
	C489.583191,238.410477 485.454651,240.199814 480.260834,240.128281 
	C458.434021,239.827667 436.600708,240.001251 414.769775,240.001266 
	C412.976044,240.001266 411.182312,240.001266 409.054230,240.001266 
	C406.598267,271.033173 398.889343,300.312958 385.792145,328.756317 
	C407.051483,329.790527 425.721344,336.868286 443.569946,346.497009 
	C461.611938,356.230042 477.258850,368.513580 487.007568,387.150024 
	C496.325836,404.963531 498.005035,423.952332 495.590942,443.479736 
	C493.901978,457.141541 490.088867,470.202057 482.515350,481.912262 
	C468.468262,503.632019 448.376495,515.517212 422.787689,517.995972 
	C383.031586,521.846985 355.475403,503.209442 336.310059,470.016998 
	C330.093201,459.249969 328.581146,447.157166 328.677094,434.804474 
	C328.827362,415.462036 332.391083,396.766266 338.644318,378.523163 
	C339.283661,376.657928 339.766632,374.739075 340.577209,371.975677 
	C318.992859,371.975677 297.950043,371.975677 276.453064,371.453522 
	C276.006592,355.336243 276.014343,339.741089 276.022064,324.145966 
M442.959625,396.514801 
	C439.222107,394.030212 435.646576,391.247772 431.719269,389.112305 
	C414.175964,379.573212 395.128143,375.449615 375.437103,373.280457 
	C369.771271,372.656342 367.094452,374.500153 365.418243,379.388123 
	C360.338959,394.200043 361.247345,408.922241 366.543213,423.371552 
	C373.476379,442.288025 387.991791,454.197723 404.987305,463.611115 
	C418.509888,471.100983 432.771423,475.466492 448.467651,474.081970 
	C459.601868,473.099854 467.068054,467.083466 468.599274,456.125763 
	C469.436676,450.133179 469.169403,443.790314 468.241882,437.784332 
	C465.633057,420.891479 456.828278,407.493164 442.959625,396.514801 
M349.831055,138.685257 
	C338.211792,133.685959 326.077179,132.297348 313.663452,134.165283 
	C298.980194,136.374741 291.194824,145.857559 292.270660,159.818512 
	C293.206390,171.961197 298.929474,181.578598 308.422058,188.984436 
	C321.506714,199.192749 336.239716,204.845612 352.985596,205.245636 
	C365.625000,205.547546 376.772034,201.746384 386.788025,194.238586 
	C390.553497,191.416092 391.856750,187.417084 390.688873,183.155792 
	C389.390625,178.418762 387.868561,173.499435 385.266907,169.407928 
	C376.706940,155.946106 365.251160,145.538773 349.831055,138.685257 
M420.719910,191.769028 
	C433.066040,204.614532 448.471130,207.434494 465.153473,204.459122 
	C472.383667,203.169586 479.858124,201.144684 486.237732,197.655075 
	C497.450562,191.521759 500.781982,176.027328 495.086761,162.205734 
	C482.353485,131.303711 439.970337,123.959946 417.546326,148.732773 
	C410.357422,156.674683 407.748810,165.896759 411.297577,175.923065 
	C413.237335,181.403534 417.179138,186.175369 420.719910,191.769028 
z"/>
<path fill="#010101" opacity="1.000000" stroke="none" 
	d="
M838.000000,372.001251 
	C782.167969,372.001251 726.835144,372.149597 671.504517,371.867798 
	C661.250427,371.815582 650.924011,370.532013 640.779968,368.893707 
	C631.608276,367.412445 623.375122,363.358765 617.210022,355.499725 
	C596.078979,370.201263 571.848816,371.192078 547.461609,372.090332 
	C545.721497,359.812805 547.177307,348.814758 555.381226,339.202301 
	C559.557190,334.309357 563.580627,329.089447 564.284607,322.223114 
	C564.377075,321.320984 565.030823,320.322693 565.708130,319.657623 
	C573.849854,311.663147 578.374023,301.471985 583.243713,291.432739 
	C586.209167,285.319061 589.512573,279.317200 593.225220,273.631470 
	C597.659790,266.840332 600.105774,266.221893 606.662781,270.894928 
	C614.778687,276.678986 622.439453,283.115387 630.161194,289.435730 
	C641.747375,298.919189 653.000122,308.823456 664.806519,318.019958 
	C673.287415,324.626038 683.099548,327.183685 694.162048,327.099915 
	C744.158020,326.721252 794.158447,326.934418 844.157288,326.934387 
	C845.490601,326.934387 846.823914,326.935608 848.157227,326.933990 
	C870.279602,326.907074 879.780518,316.970795 877.420410,294.902374 
	C876.500366,286.299988 874.523865,277.362762 870.871033,269.592316 
	C862.936890,252.714279 847.389526,246.172760 829.971130,244.234833 
	C820.800537,243.214523 811.263733,243.143631 802.150818,244.448807 
	C784.837402,246.928467 773.885132,258.114960 766.830811,273.574493 
	C764.489380,278.705780 762.314636,283.943390 759.553711,288.845123 
	C756.286072,294.646545 752.369507,295.319611 748.828735,289.935516 
	C742.664429,280.562195 736.657776,270.884094 732.247192,260.619598 
	C728.430237,251.736664 732.225769,242.837097 737.483948,235.247299 
	C749.283508,218.215622 765.203186,205.771790 785.294922,201.321793 
	C820.569336,193.509064 854.327576,198.259430 883.781860,220.684265 
	C903.301514,235.545471 911.908081,256.855560 914.881470,280.607697 
	C917.156860,298.784943 917.106934,316.917236 910.029419,334.213715 
	C902.851318,351.756195 891.680481,366.131531 872.298340,370.261261 
	C861.403320,372.582703 849.789795,371.532471 838.000000,372.001251 
z"/>
<path fill="#020202" opacity="1.000000" stroke="none" 
	d="
M275.709351,323.973816 
	C276.014343,339.741089 276.006592,355.336243 275.986786,371.389160 
	C264.067688,370.845367 252.057953,370.492371 240.287552,368.628174 
	C231.542877,367.243225 223.659698,362.946991 217.920685,355.403381 
	C199.793060,368.444092 178.969254,370.936890 157.962646,371.647766 
	C142.362427,372.175720 126.553741,372.299896 111.116226,370.373566 
	C93.174599,368.134674 79.632607,357.921234 71.403671,341.385712 
	C70.982430,340.539276 70.452377,339.746979 69.457840,338.050995 
	C59.025387,370.154541 42.596779,397.529694 18.182280,419.801727 
	C17.035536,420.847900 15.719319,421.708313 13.729196,422.050079 
	C16.429550,414.669098 19.358368,407.362427 21.788273,399.893433 
	C29.696159,375.586395 34.611671,350.579987 38.770576,325.410431 
	C43.220840,298.477570 46.580029,271.329803 45.256168,244.071457 
	C43.499226,207.895889 40.344521,171.779907 37.332035,135.676575 
	C35.370148,112.164215 32.622608,88.716782 30.159258,65.247375 
	C29.569592,59.629383 32.008923,55.188812 35.490742,51.289959 
	C46.388851,39.086533 59.527733,29.646622 73.821327,20.516949 
	C74.907104,34.208817 76.065514,47.333988 76.967163,60.476780 
	C79.265724,93.981110 81.937790,127.470680 83.493210,161.011002 
	C84.401260,180.591827 83.313560,200.259262 83.372871,219.886978 
	C83.439720,242.008224 82.994095,264.175354 84.294823,286.232727 
	C85.138023,300.531494 91.205521,313.522430 104.349983,321.067139 
	C109.873840,324.237732 116.606270,325.951324 122.992348,326.800964 
	C130.363632,327.781647 137.975067,326.777374 145.453308,327.176727 
	C156.319550,327.757019 164.684952,323.193237 170.666870,314.719452 
	C175.328979,308.115204 178.913895,300.742889 182.880402,293.657532 
	C186.527222,287.143188 189.705948,280.340790 193.707123,274.057678 
	C198.361328,266.749115 200.946671,266.086639 207.835083,271.131378 
	C216.815140,277.707947 225.447510,284.808624 233.830063,292.140442 
	C246.982162,303.643921 259.505066,315.915558 275.709351,323.973816 
z"/>
<path fill="#020202" opacity="1.000000" stroke="none" 
	d="
M963.239746,312.679443 
	C959.294373,295.899628 957.557190,279.311462 961.569092,262.824951 
	C968.491821,234.376968 987.833801,217.291794 1014.659241,208.195389 
	C1030.814575,202.717194 1047.660278,201.235718 1064.402222,205.291061 
	C1086.585449,210.664413 1101.193970,225.570007 1108.761597,246.218399 
	C1120.943726,279.457886 1118.177002,311.781036 1097.005981,341.031769 
	C1076.619995,369.198151 1034.083130,380.322083 1003.344666,365.896576 
	C984.270203,356.945007 973.534302,340.540344 966.080383,321.608643 
	C964.988586,318.835571 964.251953,315.922729 963.239746,312.679443 
M1026.217651,240.178436 
	C1015.840698,241.333099 1005.107117,241.197449 995.170166,243.943985 
	C980.159851,248.092743 982.317993,247.113480 983.965881,260.705963 
	C984.145142,262.184814 984.419800,263.661682 984.778015,265.107819 
	C992.778748,297.408417 1023.558655,323.787201 1056.765137,326.669586 
	C1067.201172,327.575409 1077.038940,325.814423 1085.232788,318.663788 
	C1086.381958,317.660828 1087.739014,315.998932 1087.702271,314.678162 
	C1087.448364,305.577881 1087.883301,296.284973 1086.152100,287.434387 
	C1082.231812,267.391083 1056.778564,241.894104 1026.217651,240.178436 
z"/>
<path fill="#020202" opacity="1.000000" stroke="none" 
	d="
M13.278500,423.540192 
	C13.249130,423.239990 13.370018,423.131500 13.490900,423.023010 
	C13.591002,423.150818 13.777411,423.286255 13.766975,423.404266 
	C13.756516,423.522522 13.549579,423.623383 13.278500,423.540192 
z"/>
<path fill="#FDFDFD" opacity="1.000000" stroke="none" 
	d="
M1294.168579,237.127960 
	C1294.588379,233.077042 1294.720459,229.136978 1296.032593,225.639725 
	C1300.735718,213.104279 1305.838013,200.718643 1311.104492,187.484589 
	C1364.437500,229.978668 1416.753174,271.662079 1469.173950,313.429321 
	C1461.736572,329.029236 1449.657715,337.297302 1432.348877,338.091248 
	C1424.852783,338.435059 1419.191895,334.553711 1413.820557,330.513977 
	C1394.655396,316.099762 1375.681519,301.427551 1356.781372,286.665802 
	C1335.911133,270.365295 1315.201660,253.858734 1294.168579,237.127960 
z"/>
<path fill="#FFFEFE" opacity="1.000000" stroke="none" 
	d="
M443.250427,396.721008 
	C456.828278,407.493164 465.633057,420.891479 468.241882,437.784332 
	C469.169403,443.790314 469.436676,450.133179 468.599274,456.125763 
	C467.068054,467.083466 459.601868,473.099854 448.467651,474.081970 
	C432.771423,475.466492 418.509888,471.100983 404.987305,463.611115 
	C387.991791,454.197723 373.476379,442.288025 366.543213,423.371552 
	C361.247345,408.922241 360.338959,394.200043 365.418243,379.388123 
	C367.094452,374.500153 369.771271,372.656342 375.437103,373.280457 
	C395.128143,375.449615 414.175964,379.573212 431.719269,389.112305 
	C435.646576,391.247772 439.222107,394.030212 443.250427,396.721008 
z"/>
<path fill="#FEFEFD" opacity="1.000000" stroke="none" 
	d="
M350.178864,138.839142 
	C365.251160,145.538773 376.706940,155.946106 385.266907,169.407928 
	C387.868561,173.499435 389.390625,178.418762 390.688873,183.155792 
	C391.856750,187.417084 390.553497,191.416092 386.788025,194.238586 
	C376.772034,201.746384 365.625000,205.547546 352.985596,205.245636 
	C336.239716,204.845612 321.506714,199.192749 308.422058,188.984436 
	C298.929474,181.578598 293.206390,171.961197 292.270660,159.818512 
	C291.194824,145.857559 298.980194,136.374741 313.663452,134.165283 
	C326.077179,132.297348 338.211792,133.685959 350.178864,138.839142 
z"/>
<path fill="#FEFEFD" opacity="1.000000" stroke="none" 
	d="
M420.468994,191.517899 
	C417.179138,186.175369 413.237335,181.403534 411.297577,175.923065 
	C407.748810,165.896759 410.357422,156.674683 417.546326,148.732773 
	C439.970337,123.959946 482.353485,131.303711 495.086761,162.205734 
	C500.781982,176.027328 497.450562,191.521759 486.237732,197.655075 
	C479.858124,201.144684 472.383667,203.169586 465.153473,204.459122 
	C448.471130,207.434494 433.066040,204.614532 420.468994,191.517899 
z"/>
<path fill="#FDFDFD" opacity="1.000000" stroke="none" 
	d="
M1026.679077,240.199173 
	C1056.778564,241.894104 1082.231812,267.391083 1086.152100,287.434387 
	C1087.883301,296.284973 1087.448364,305.577881 1087.702271,314.678162 
	C1087.739014,315.998932 1086.381958,317.660828 1085.232788,318.663788 
	C1077.038940,325.814423 1067.201172,327.575409 1056.765137,326.669586 
	C1023.558655,323.787201 992.778748,297.408417 984.778015,265.107819 
	C984.419800,263.661682 984.145142,262.184814 983.965881,260.705963 
	C982.317993,247.113480 980.159851,248.092743 995.170166,243.943985 
	C1005.107117,241.197449 1015.840698,241.333099 1026.679077,240.199173 
z"/>
</svg>