<svg version="1.1" id="Layer_1" xmlns="http://www.w3.org/2000/svg" xmlns:xlink="http://www.w3.org/1999/xlink" x="0px" y="0px"
	 width="100%" viewBox="0 0 624 576" enable-background="new 0 0 624 576" xml:space="preserve">
<path fill="chocolate" opacity="1.000000" stroke="none" 
	d="
M238.099487,522.839478 
	C246.575012,535.363647 254.855255,547.574280 263.326904,560.067200 
	C259.804535,561.700928 257.722412,559.445740 255.626617,558.315857 
	C245.498016,552.855408 235.698395,546.798767 226.765961,539.543274 
	C222.790131,536.313843 220.161011,536.659119 216.758377,540.185852 
	C205.990784,551.345886 192.355484,557.508484 177.532608,560.810303 
	C167.792053,562.980103 157.720703,562.991089 147.725616,562.202393 
	C119.406509,559.967834 92.998825,551.453735 68.255569,537.693665 
	C53.944977,529.735352 40.285763,520.865112 29.406862,508.298828 
	C20.657709,498.192535 14.963787,486.800964 13.885416,473.330475 
	C13.287906,465.866577 15.146406,459.015808 18.444214,452.816406 
	C20.314869,452.527557 21.018139,453.334778 21.630238,454.077728 
	C37.090317,472.841522 56.707821,486.127441 78.274437,496.726440 
	C97.266487,506.060120 116.949318,513.586792 137.683334,518.163330 
	C151.333694,521.176270 165.131119,523.381653 179.095642,523.444702 
	C186.033157,523.476013 193.369888,523.340698 199.458710,518.836792 
	C198.912720,515.724121 196.544983,514.456970 194.781570,512.819458 
	C155.295105,476.152771 122.241211,434.370483 95.454758,387.650696 
	C88.407135,375.358521 82.432922,362.532410 79.371277,348.544464 
	C77.003075,337.724670 78.729416,328.228577 87.135223,320.233917 
	C96.263321,311.552338 106.509468,304.516479 117.261162,298.089386 
	C120.872849,295.930420 122.300438,297.506348 123.259621,300.865540 
	C129.910721,324.158234 139.694214,346.189606 150.051239,368.019775 
	C161.625305,392.415100 174.388840,416.165558 187.864090,439.544281 
	C195.748657,453.223511 203.786697,466.814331 212.172272,480.265289 
	C212.664917,474.954376 210.381012,470.354645 208.667740,465.715393 
	C199.713959,441.469604 198.214615,444.231476 210.331177,416.558197 
	C215.347580,405.101105 219.831818,393.573425 219.897995,380.676422 
	C219.946594,371.204224 216.549789,363.518768 210.281799,356.846802 
	C205.378601,351.627625 200.131104,346.723724 195.363297,341.387756 
	C190.355682,335.783447 190.251144,332.863342 194.691620,326.770935 
	C201.953842,316.807037 209.486069,307.046783 218.602325,298.644989 
	C221.115677,296.328613 223.578857,295.129700 226.073517,298.648529 
	C237.042419,314.120483 243.667267,331.415131 247.215424,349.916443 
	C248.356216,355.865021 246.093643,361.403778 243.660507,366.761017 
	C238.914444,377.210815 233.196838,387.224091 229.647614,398.211914 
	C225.701172,410.429474 225.978073,422.398468 231.271500,434.221619 
	C233.784882,439.835358 236.313416,445.486359 238.212738,451.323029 
	C244.959518,472.055969 244.233521,492.625977 235.900513,512.807678 
	C234.286636,516.716309 236.008774,519.544189 238.099487,522.839478 
z"/>
<path fill="#000000" opacity="1.000000" stroke="none" 
	d="
M444.018799,343.988373 
	C420.622925,372.634064 377.892578,379.054108 351.233978,366.307556 
	C336.620941,359.320496 326.811035,347.577759 319.457611,333.566132 
	C307.898651,311.540924 304.283661,287.902771 309.404266,263.866974 
	C316.276825,231.607529 338.915192,214.066635 369.546906,205.842331 
	C384.003143,201.960983 398.785706,201.190323 413.479004,204.865433 
	C435.108490,210.275452 449.620972,224.553009 457.181549,244.614029 
	C470.349030,279.552338 467.271332,313.127899 444.018799,343.988373 
M366.383606,311.105316 
	C379.108002,320.742767 393.473389,325.961578 409.402100,326.261719 
	C417.839722,326.420715 425.934479,324.518890 432.642944,318.820404 
	C433.895264,317.756592 435.356842,316.797485 435.569977,314.949127 
	C437.283173,300.092285 436.724152,285.482483 427.743469,272.793030 
	C406.144318,242.273895 379.345276,235.687393 344.438873,244.073517 
	C331.356476,247.216507 331.084381,248.310257 333.246185,261.673737 
	C333.457489,262.979828 333.668884,264.290375 333.977112,265.575623 
	C338.596161,284.837036 350.440033,299.006073 366.383606,311.105316 
z"/>
<path fill="#000000" opacity="1.000000" stroke="none" 
	d="
M595.600525,269.567322 
	C601.686523,283.828156 604.579651,298.389099 605.352600,313.459869 
	C606.341187,332.736053 604.697327,351.691162 598.347107,369.997681 
	C588.795654,397.533112 574.077759,421.325104 548.683899,437.245453 
	C541.407288,441.807434 534.047424,444.997620 528.911377,444.819183 
	C533.621277,439.562347 537.986084,434.642090 542.404114,429.770172 
	C550.631104,420.697968 557.854980,411.051941 560.961365,398.886078 
	C565.600708,380.716736 561.958557,370.397461 546.657776,359.076263 
	C539.969543,354.127563 533.265503,349.194366 526.442688,344.434784 
	C514.779724,336.298676 509.735291,324.390472 507.866943,311.015289 
	C505.979279,297.501831 507.396423,284.219818 512.500671,271.370911 
	C525.043823,239.796402 559.823364,235.406860 578.405823,247.563232 
	C586.486511,252.849487 591.602478,260.551422 595.600525,269.567322 
z"/>
<path fill="#000000" opacity="1.000000" stroke="none" 
	d="
M574.907837,516.113098 
	C569.491150,520.441223 564.626953,519.778015 559.683777,515.843689 
	C554.314758,511.570496 549.380737,506.919769 545.476379,501.250153 
	C541.674988,495.730042 541.429504,489.962891 545.152649,484.442139 
	C549.652344,477.769836 555.207581,472.097046 562.259277,467.958099 
	C566.395691,465.530212 570.230469,465.966309 573.968689,468.468994 
	C580.407104,472.779388 585.784180,478.232422 590.056458,484.666199 
	C593.629211,490.046570 593.534668,495.677979 589.859985,501.025696 
	C585.868408,506.834534 580.830627,511.663544 574.907837,516.113098 
z"/>
</svg>