<svg version="1.1" id="Layer_1" xmlns="http://www.w3.org/2000/svg" xmlns:xlink="http://www.w3.org/1999/xlink" x="0px" y="0px"
	 width="100%" viewBox="0 0 890 556" enable-background="new 0 0 890 556" xml:space="preserve">
<path fill="#FFFFFF" opacity="1.000000" stroke="none" 
	d="
M666.000000,557.000000 
	C444.000000,557.000000 222.500000,557.000000 1.000000,557.000000 
	C1.000000,371.666656 1.000000,186.333328 1.000000,1.000000 
	C297.666656,1.000000 594.333313,1.000000 891.000000,1.000000 
	C891.000000,186.333328 891.000000,371.666656 891.000000,557.000000 
	C816.166687,557.000000 741.333313,557.000000 666.000000,557.000000 
M362.906860,371.975830 
	C437.405182,371.984375 511.903564,372.020660 586.401794,371.958649 
	C593.886536,371.952423 601.409851,371.722046 608.845947,370.938049 
	C619.913574,369.771240 630.483643,366.995239 638.729492,358.700806 
	C645.969849,351.417786 653.268677,344.192871 660.602051,336.882141 
	C662.638550,338.432220 664.443665,339.910736 666.351624,341.241791 
	C680.274170,350.954529 694.071838,360.857727 708.225891,370.221710 
	C713.885132,373.965729 720.661743,371.483368 723.934692,365.575928 
	C728.861938,356.682556 727.903748,347.360779 721.057495,339.926544 
	C718.588745,337.245789 715.863342,334.751160 713.006042,332.485748 
	C611.943909,252.360504 510.853699,172.270752 409.761932,92.182945 
	C400.405792,84.770744 391.013306,77.404442 380.711456,69.286995 
	C374.748688,80.195267 369.131287,90.471802 363.466156,100.835579 
	C453.090271,172.168991 541.952942,242.896347 631.508911,314.175537 
	C628.899658,316.885437 626.922302,319.584412 624.353638,321.483826 
	C617.143738,326.815247 608.597778,327.394653 600.041077,327.380859 
	C522.225220,327.255432 444.409424,327.086121 366.593719,326.883545 
	C365.374237,326.880371 364.156219,326.294647 363.134369,325.163666 
	C365.421173,292.800293 367.277527,260.470551 356.313507,228.372559 
	C337.668243,238.746490 328.621613,257.563446 313.520081,270.200043 
	C295.081512,239.617279 274.675293,220.969498 246.206726,209.416306 
	C225.293884,200.929413 204.288803,200.102066 184.336807,212.070724 
	C153.194336,230.752258 136.261017,272.490204 141.690628,310.111786 
	C146.617630,344.250824 176.893280,370.089569 211.505219,371.818817 
	C238.565628,373.170776 261.898315,364.472656 280.948486,345.110260 
	C292.860107,333.003418 304.268616,320.402130 316.150360,308.264984 
	C321.080780,303.228577 326.656921,298.824249 332.054932,294.029846 
	C338.224548,300.014618 340.379944,306.830078 340.778473,313.701782 
	C341.827576,331.792267 342.116364,349.928619 342.591034,368.049744 
	C342.767761,374.797211 342.619629,381.553192 342.619629,388.305267 
	C344.936035,385.945526 347.001587,383.581604 347.779327,380.850922 
	C349.898987,373.408752 354.508362,370.539124 362.906860,371.975830 
M659.022888,180.485352 
	C612.982849,143.708984 566.942810,106.932602 520.076660,69.496368 
	C514.282471,80.128723 508.680145,90.409103 503.067841,100.707764 
	C505.226715,102.530121 506.584015,103.736649 508.003326,104.865150 
	C577.881958,160.425568 647.718018,216.039719 717.668091,271.510040 
	C756.555664,302.347778 795.582214,333.011169 834.701660,363.553925 
	C838.949341,366.870361 844.028198,369.394226 849.088013,371.325714 
	C854.688782,373.463715 861.096985,370.549347 863.235596,365.091705 
	C868.239868,352.320709 867.593079,344.404175 856.790222,335.926605 
	C791.016174,284.309967 725.317871,232.596832 659.022888,180.485352 
M85.877060,331.350800 
	C93.326286,296.448853 96.022835,261.017822 96.714294,225.463821 
	C97.397232,190.348297 97.433968,155.209000 97.055748,120.087639 
	C96.756752,92.322937 95.433525,64.568459 94.481888,36.812290 
	C94.302399,31.577179 93.731171,26.355499 93.295860,20.527266 
	C79.111282,29.477692 66.260490,38.950932 55.289894,50.784462 
	C51.435623,54.941910 49.594181,59.673656 49.710495,65.663879 
	C50.485870,105.597168 50.931293,145.536850 51.484848,185.474457 
	C51.713226,201.951553 52.157047,218.429047 52.125137,234.905624 
	C52.073299,261.673096 52.186642,288.454956 51.346828,315.203003 
	C50.487907,342.559723 47.719398,369.790649 41.072281,396.444489 
	C38.861759,405.308319 35.829449,413.967224 32.731487,424.173889 
	C36.742325,421.400299 39.975105,419.555267 42.750523,417.176605 
	C53.629208,407.852997 61.694946,396.350037 68.145973,383.641235 
	C76.434769,367.311951 81.348564,349.828094 85.877060,331.350800 
z"/>
<path fill="#C47034" opacity="1.000000" stroke="none" 
	d="
M362.937531,325.980804 
	C364.156219,326.294647 365.374237,326.880371 366.593719,326.883545 
	C444.409424,327.086121 522.225220,327.255432 600.041077,327.380859 
	C608.597778,327.394653 617.143738,326.815247 624.353638,321.483826 
	C626.922302,319.584412 628.899658,316.885437 631.508911,314.175537 
	C541.952942,242.896347 453.090271,172.168991 363.466156,100.835579 
	C369.131287,90.471802 374.748688,80.195267 380.711456,69.286995 
	C391.013306,77.404442 400.405792,84.770744 409.761932,92.182945 
	C510.853699,172.270752 611.943909,252.360504 713.006042,332.485748 
	C715.863342,334.751160 718.588745,337.245789 721.057495,339.926544 
	C727.903748,347.360779 728.861938,356.682556 723.934692,365.575928 
	C720.661743,371.483368 713.885132,373.965729 708.225891,370.221710 
	C694.071838,360.857727 680.274170,350.954529 666.351624,341.241791 
	C664.443665,339.910736 662.638550,338.432220 660.602051,336.882141 
	C653.268677,344.192871 645.969849,351.417786 638.729492,358.700806 
	C630.483643,366.995239 619.913574,369.771240 608.845947,370.938049 
	C601.409851,371.722046 593.886536,371.952423 586.401794,371.958649 
	C511.903564,372.020660 437.405182,371.984375 362.452209,371.453369 
	C361.999908,357.474487 361.972504,344.017975 362.045563,330.561951 
	C362.053864,329.033325 362.626556,327.507782 362.937531,325.980804 
z"/>
<path fill="#010101" opacity="1.000000" stroke="none" 
	d="
M363.035950,325.572235 
	C362.626556,327.507782 362.053864,329.033325 362.045563,330.561951 
	C361.972504,344.017975 361.999908,357.474487 361.985931,371.388672 
	C354.508362,370.539124 349.898987,373.408752 347.779327,380.850922 
	C347.001587,383.581604 344.936035,385.945526 342.619629,388.305267 
	C342.619629,381.553192 342.767761,374.797211 342.591034,368.049744 
	C342.116364,349.928619 341.827576,331.792267 340.778473,313.701782 
	C340.379944,306.830078 338.224548,300.014618 332.054932,294.029846 
	C326.656921,298.824249 321.080780,303.228577 316.150360,308.264984 
	C304.268616,320.402130 292.860107,333.003418 280.948486,345.110260 
	C261.898315,364.472656 238.565628,373.170776 211.505219,371.818817 
	C176.893280,370.089569 146.617630,344.250824 141.690628,310.111786 
	C136.261017,272.490204 153.194336,230.752258 184.336807,212.070724 
	C204.288803,200.102066 225.293884,200.929413 246.206726,209.416306 
	C274.675293,220.969498 295.081512,239.617279 313.520081,270.200043 
	C328.621613,257.563446 337.668243,238.746490 356.313507,228.372559 
	C367.277527,260.470551 365.421173,292.800293 363.035950,325.572235 
M208.098511,318.423920 
	C213.080185,319.691742 217.994263,321.507202 223.055328,322.131805 
	C244.064178,324.724731 263.043945,318.110199 281.264465,308.528290 
	C282.421692,307.919678 283.358459,306.894562 284.405212,306.072632 
	C287.082916,303.969910 288.003082,301.373291 286.531158,298.179779 
	C284.382751,293.518616 282.664429,288.574280 279.928253,284.282684 
	C262.359589,256.726379 227.472412,243.059738 194.054367,250.543167 
	C182.859558,253.050064 171.750061,255.891693 162.294724,262.989532 
	C158.683792,265.700104 156.912567,268.715210 158.950378,273.186554 
	C161.211258,278.147400 162.811020,283.512756 165.702484,288.064270 
	C175.537766,303.546204 190.651260,312.014282 208.098511,318.423920 
z"/>
<path fill="#C47035" opacity="1.000000" stroke="none" 
	d="
M659.308594,180.700623 
	C725.317871,232.596832 791.016174,284.309967 856.790222,335.926605 
	C867.593079,344.404175 868.239868,352.320709 863.235596,365.091705 
	C861.096985,370.549347 854.688782,373.463715 849.088013,371.325714 
	C844.028198,369.394226 838.949341,366.870361 834.701660,363.553925 
	C795.582214,333.011169 756.555664,302.347778 717.668091,271.510040 
	C647.718018,216.039719 577.881958,160.425568 508.003326,104.865150 
	C506.584015,103.736649 505.226715,102.530121 503.067841,100.707764 
	C508.680145,90.409103 514.282471,80.128723 520.076660,69.496368 
	C566.942810,106.932602 612.982849,143.708984 659.308594,180.700623 
z"/>
<path fill="#030303" opacity="1.000000" stroke="none" 
	d="
M85.845512,331.769531 
	C81.348564,349.828094 76.434769,367.311951 68.145973,383.641235 
	C61.694946,396.350037 53.629208,407.852997 42.750523,417.176605 
	C39.975105,419.555267 36.742325,421.400299 32.731487,424.173889 
	C35.829449,413.967224 38.861759,405.308319 41.072281,396.444489 
	C47.719398,369.790649 50.487907,342.559723 51.346828,315.203003 
	C52.186642,288.454956 52.073299,261.673096 52.125137,234.905624 
	C52.157047,218.429047 51.713226,201.951553 51.484848,185.474457 
	C50.931293,145.536850 50.485870,105.597168 49.710495,65.663879 
	C49.594181,59.673656 51.435623,54.941910 55.289894,50.784462 
	C66.260490,38.950932 79.111282,29.477692 93.295860,20.527266 
	C93.731171,26.355499 94.302399,31.577179 94.481888,36.812290 
	C95.433525,64.568459 96.756752,92.322937 97.055748,120.087639 
	C97.433968,155.209000 97.397232,190.348297 96.714294,225.463821 
	C96.022835,261.017822 93.326286,296.448853 85.845512,331.769531 
z"/>
<path fill="#FDFDFD" opacity="1.000000" stroke="none" 
	d="
M207.731110,318.276031 
	C190.651260,312.014282 175.537766,303.546204 165.702484,288.064270 
	C162.811020,283.512756 161.211258,278.147400 158.950378,273.186554 
	C156.912567,268.715210 158.683792,265.700104 162.294724,262.989532 
	C171.750061,255.891693 182.859558,253.050064 194.054367,250.543167 
	C227.472412,243.059738 262.359589,256.726379 279.928253,284.282684 
	C282.664429,288.574280 284.382751,293.518616 286.531158,298.179779 
	C288.003082,301.373291 287.082916,303.969910 284.405212,306.072632 
	C283.358459,306.894562 282.421692,307.919678 281.264465,308.528290 
	C263.043945,318.110199 244.064178,324.724731 223.055328,322.131805 
	C217.994263,321.507202 213.080185,319.691742 207.731110,318.276031 
z"/>
</svg>