<svg version="1.1" id="Layer_1" xmlns="http://www.w3.org/2000/svg" xmlns:xlink="http://www.w3.org/1999/xlink" x="0px" y="0px"
	 width="100%" viewBox="0 0 1030 556" enable-background="new 0 0 1030 556" xml:space="preserve">
<path fill="#FFFFFF" opacity="1.000000" stroke="none" 
	d="
M600.000000,557.000000 
	C400.000031,557.000000 200.500076,557.000000 1.000080,557.000000 
	C1.000054,371.666748 1.000054,186.333466 1.000027,1.000155 
	C344.333221,1.000103 687.666443,1.000103 1030.999756,1.000052 
	C1030.999756,186.333176 1030.999756,371.666351 1030.999878,556.999756 
	C887.500000,557.000000 744.000000,557.000000 600.000000,557.000000 
M840.143799,327.485107 
	C804.600525,327.484985 769.057312,327.472992 733.514038,327.496094 
	C727.377502,327.500092 721.241089,327.653015 714.186523,327.500519 
	C700.829590,327.500519 687.472595,327.500519 673.877991,327.500519 
	C674.117798,325.803497 674.134277,325.130310 674.312927,324.503357 
	C682.824646,294.628021 685.794250,263.946045 685.708374,233.112320 
	C685.536072,171.298874 684.356384,109.488365 683.626892,47.676235 
	C683.523438,38.915318 683.612549,30.152126 683.612549,20.467222 
	C669.153748,27.866873 656.866272,35.951511 646.798767,47.019581 
	C641.436279,52.915104 638.844360,59.861210 639.721191,68.102493 
	C640.477844,75.214622 640.560364,82.399879 640.899780,89.554764 
	C642.407349,121.334038 644.141052,153.104980 645.332703,184.896194 
	C646.605957,218.864807 647.311768,252.860229 643.921753,286.766052 
	C642.710876,298.876862 640.774963,310.891083 634.383118,321.630615 
	C628.801636,331.008606 619.600098,334.000671 609.530823,329.927338 
	C600.076843,326.102905 595.407349,318.091003 591.607727,309.471985 
	C582.883179,289.681213 579.590942,268.497009 578.331299,247.260651 
	C576.172180,210.860535 574.675964,174.380447 574.378540,137.921890 
	C574.075562,100.781990 575.555481,63.627586 576.248657,26.479422 
	C576.280701,24.759155 576.252808,23.037767 576.252808,21.316902 
	C575.783813,20.947353 575.314819,20.577805 574.845886,20.208256 
	C564.212158,27.226654 553.388062,33.977242 543.010498,41.355820 
	C535.868408,46.433929 532.169250,53.746342 532.083374,62.762394 
	C531.994446,72.090599 531.299377,81.422455 531.465637,90.742073 
	C532.253357,134.879120 532.542603,179.042938 534.451538,223.134781 
	C535.449280,246.179352 539.289124,269.111664 542.135986,292.058594 
	C542.948120,298.605042 546.373840,305.158142 545.846802,311.478516 
	C544.185425,331.402283 540.998779,351.275055 532.561768,369.611389 
	C524.781067,386.521240 515.835571,402.895172 507.094055,419.960724 
	C507.141632,420.216461 507.189240,420.472168 507.236847,420.727936 
	C507.563934,420.560394 507.890991,420.392883 508.877594,420.039429 
	C535.278381,402.321777 552.432251,376.738983 568.054565,349.197906 
	C568.864868,350.301178 569.142761,350.718079 569.458557,351.103912 
	C588.393005,374.239685 612.028870,381.620972 640.672363,372.452972 
	C642.355835,371.914124 644.282104,372.024780 646.096008,372.018707 
	C669.071533,371.941833 692.047180,371.899048 715.951172,371.992981 
	C756.100891,371.996765 796.251831,372.181152 836.399719,371.910400 
	C851.287903,371.809998 865.620300,368.887268 877.656677,359.107971 
	C895.099365,370.292725 914.110718,376.065643 934.899902,376.335205 
	C969.863220,376.788574 993.182190,359.346130 1004.102661,332.495422 
	C1015.563599,304.316101 1011.596985,276.739075 995.219238,251.280014 
	C977.880615,224.327393 951.426331,213.527054 920.097290,219.917557 
	C897.018066,224.625259 880.154602,238.535904 866.662476,256.966705 
	C862.345398,262.864014 859.224792,269.637238 855.524536,276.065674 
	C855.127075,275.810089 854.675293,275.590759 854.308228,275.273407 
	C824.794800,249.757935 795.217957,224.314987 765.867737,198.613068 
	C762.105164,195.318192 758.760132,195.266129 755.933105,198.320648 
	C748.998169,205.813599 742.017700,213.387558 736.130371,221.691055 
	C730.632324,229.445557 731.076538,230.392456 738.218323,237.131317 
	C749.335571,247.621399 760.579895,257.993530 772.108582,268.026917 
	C788.891724,282.633179 806.010803,296.852875 822.912537,311.323853 
	C829.055664,316.583496 834.986328,322.091217 841.032898,327.488983 
	C841.032898,327.488983 841.074219,327.474121 840.143799,327.485107 
M98.483513,372.000183 
	C105.565681,371.105286 112.771896,370.762817 119.705391,369.205841 
	C136.563339,365.420288 150.699799,356.614685 162.636627,344.224731 
	C176.045578,330.306763 189.324738,316.262390 202.854034,302.462921 
	C205.894119,299.362122 209.737228,297.048645 213.903976,293.838593 
	C215.991653,297.838318 218.227905,300.718109 219.032211,303.953857 
	C220.748093,310.856750 222.630188,317.918915 222.826416,324.960907 
	C223.383118,344.939301 223.121460,364.940338 223.202988,384.932373 
	C223.207718,386.094543 223.398468,387.255920 223.637360,389.919678 
	C226.530212,384.481506 229.036194,380.534180 230.770599,376.272827 
	C232.203308,372.752625 234.211304,371.901764 237.878143,371.909241 
	C301.040375,372.038147 364.205139,371.697174 427.364319,372.154449 
	C452.049530,372.333160 468.466583,360.668182 478.862213,339.552368 
	C489.901794,317.128540 488.996124,293.413239 484.098145,269.703064 
	C478.390137,242.071671 463.025452,221.590393 437.316650,209.432404 
	C416.486603,199.581619 394.207153,196.592026 371.575836,198.428085 
	C345.215149,200.566696 324.426605,213.629150 308.977295,234.941528 
	C303.667908,242.265808 300.414490,250.729462 303.102997,259.850586 
	C306.473999,271.287201 312.599030,281.437866 320.382538,290.457947 
	C324.129883,294.800629 327.442017,294.510101 330.289154,289.569916 
	C333.180206,284.553619 335.482605,279.188263 337.898041,273.909515 
	C344.948029,258.502319 355.703156,247.128067 373.034546,244.523605 
	C381.809387,243.204956 390.970154,243.365067 399.857483,244.082626 
	C430.059814,246.521194 448.045685,265.840881 448.907440,296.012421 
	C449.550812,318.538330 441.380463,326.930695 418.780579,326.932281 
	C361.951874,326.936218 305.123169,326.935333 248.294479,326.923157 
	C246.885376,326.922852 245.476318,326.767853 244.361435,326.702271 
	C245.241531,293.554047 248.583481,260.733032 237.013977,228.414948 
	C218.443909,238.648880 209.435684,257.533600 194.353271,270.084015 
	C193.848770,269.604614 193.523544,269.422455 193.385773,269.146637 
	C178.722626,239.791687 154.617981,220.771835 124.943893,208.817291 
	C99.558395,198.590424 75.123016,201.227859 54.165661,220.116623 
	C36.318005,236.202652 26.433365,256.824921 22.937616,280.471588 
	C20.904284,294.225891 20.227850,308.016785 24.949404,321.467804 
	C35.555473,351.683044 63.482334,371.106598 98.483513,372.000183 
M442.093781,431.331635 
	C442.767975,426.795685 443.989716,422.260071 443.992676,417.723663 
	C443.997528,410.235046 439.905121,405.262451 433.236389,403.338440 
	C424.170959,400.722931 414.321503,403.097015 410.393524,408.844421 
	C405.383026,416.175751 407.088348,431.092773 413.492920,435.956024 
	C421.170532,441.785889 435.715729,439.770477 442.093781,431.331635 
z"/>
<path fill="#010101" opacity="1.000000" stroke="none" 
	d="
M97.999901,372.000916 
	C63.482334,371.106598 35.555473,351.683044 24.949404,321.467804 
	C20.227850,308.016785 20.904284,294.225891 22.937616,280.471588 
	C26.433365,256.824921 36.318005,236.202652 54.165661,220.116623 
	C75.123016,201.227859 99.558395,198.590424 124.943893,208.817291 
	C154.617981,220.771835 178.722626,239.791687 193.385773,269.146637 
	C193.523544,269.422455 193.848770,269.604614 194.353271,270.084015 
	C209.435684,257.533600 218.443909,238.648880 237.013977,228.414948 
	C248.583481,260.733032 245.241531,293.554047 244.361435,326.702271 
	C245.476318,326.767853 246.885376,326.922852 248.294479,326.923157 
	C305.123169,326.935333 361.951874,326.936218 418.780579,326.932281 
	C441.380463,326.930695 449.550812,318.538330 448.907440,296.012421 
	C448.045685,265.840881 430.059814,246.521194 399.857483,244.082626 
	C390.970154,243.365067 381.809387,243.204956 373.034546,244.523605 
	C355.703156,247.128067 344.948029,258.502319 337.898041,273.909515 
	C335.482605,279.188263 333.180206,284.553619 330.289154,289.569916 
	C327.442017,294.510101 324.129883,294.800629 320.382538,290.457947 
	C312.599030,281.437866 306.473999,271.287201 303.102997,259.850586 
	C300.414490,250.729462 303.667908,242.265808 308.977295,234.941528 
	C324.426605,213.629150 345.215149,200.566696 371.575836,198.428085 
	C394.207153,196.592026 416.486603,199.581619 437.316650,209.432404 
	C463.025452,221.590393 478.390137,242.071671 484.098145,269.703064 
	C488.996124,293.413239 489.901794,317.128540 478.862213,339.552368 
	C468.466583,360.668182 452.049530,372.333160 427.364319,372.154449 
	C364.205139,371.697174 301.040375,372.038147 237.878143,371.909241 
	C234.211304,371.901764 232.203308,372.752625 230.770599,376.272827 
	C229.036194,380.534180 226.530212,384.481506 223.637360,389.919678 
	C223.398468,387.255920 223.207718,386.094543 223.202988,384.932373 
	C223.121460,364.940338 223.383118,344.939301 222.826416,324.960907 
	C222.630188,317.918915 220.748093,310.856750 219.032211,303.953857 
	C218.227905,300.718109 215.991653,297.838318 213.903976,293.838593 
	C209.737228,297.048645 205.894119,299.362122 202.854034,302.462921 
	C189.324738,316.262390 176.045578,330.306763 162.636627,344.224731 
	C150.699799,356.614685 136.563339,365.420288 119.705391,369.205841 
	C112.771896,370.762817 105.565681,371.105286 97.999901,372.000916 
M155.457520,277.066833 
	C133.885208,254.521713 108.381317,243.334610 76.802025,250.111618 
	C64.927795,252.659866 53.135319,255.528854 43.062756,262.952393 
	C39.400028,265.651855 37.729210,268.750885 39.716419,273.172699 
	C42.020020,278.298523 43.620552,283.911377 46.760899,288.460541 
	C60.569786,308.464447 80.925652,317.939667 104.036438,322.181732 
	C120.420670,325.189117 135.648987,319.665985 150.624954,314.085266 
	C155.822983,312.148224 160.558380,308.851959 165.298553,305.850372 
	C167.918884,304.191101 168.945312,301.526031 167.286865,298.466614 
	C163.513474,291.505768 159.706467,284.563171 155.457520,277.066833 
z"/>
<path fill="#C47034" opacity="1.000000" stroke="none" 
	d="
M507.403137,419.505127 
	C515.835571,402.895172 524.781067,386.521240 532.561768,369.611389 
	C540.998779,351.275055 544.185425,331.402283 545.846802,311.478516 
	C546.373840,305.158142 542.948120,298.605042 542.135986,292.058594 
	C539.289124,269.111664 535.449280,246.179352 534.451538,223.134781 
	C532.542603,179.042938 532.253357,134.879120 531.465637,90.742073 
	C531.299377,81.422455 531.994446,72.090599 532.083374,62.762394 
	C532.169250,53.746342 535.868408,46.433929 543.010498,41.355820 
	C553.388062,33.977242 564.212158,27.226654 574.845886,20.208256 
	C575.314819,20.577805 575.783813,20.947353 576.252808,21.316902 
	C576.252808,23.037767 576.280701,24.759155 576.248657,26.479422 
	C575.555481,63.627586 574.075562,100.781990 574.378540,137.921890 
	C574.675964,174.380447 576.172180,210.860535 578.331299,247.260651 
	C579.590942,268.497009 582.883179,289.681213 591.607727,309.471985 
	C595.407349,318.091003 600.076843,326.102905 609.530823,329.927338 
	C619.600098,334.000671 628.801636,331.008606 634.383118,321.630615 
	C640.774963,310.891083 642.710876,298.876862 643.921753,286.766052 
	C647.311768,252.860229 646.605957,218.864807 645.332703,184.896194 
	C644.141052,153.104980 642.407349,121.334038 640.899780,89.554764 
	C640.560364,82.399879 640.477844,75.214622 639.721191,68.102493 
	C638.844360,59.861210 641.436279,52.915104 646.798767,47.019581 
	C656.866272,35.951511 669.153748,27.866873 683.612549,20.467222 
	C683.612549,30.152126 683.523438,38.915318 683.626892,47.676235 
	C684.356384,109.488365 685.536072,171.298874 685.708374,233.112320 
	C685.794250,263.946045 682.824646,294.628021 674.312927,324.503357 
	C674.134277,325.130310 674.117798,325.803497 673.877991,327.500519 
	C687.472595,327.500519 700.829590,327.500519 714.603333,328.031921 
	C715.021057,342.991394 715.021912,357.419495 715.022766,371.847565 
	C692.047180,371.899048 669.071533,371.941833 646.096008,372.018707 
	C644.282104,372.024780 642.355835,371.914124 640.672363,372.452972 
	C612.028870,381.620972 588.393005,374.239685 569.458557,351.103912 
	C569.142761,350.718079 568.864868,350.301178 568.054565,349.197906 
	C552.432251,376.738983 535.278381,402.321777 508.351990,419.943420 
	C507.685303,419.733307 507.544220,419.619232 507.403137,419.505127 
z"/>
<path fill="#020202" opacity="1.000000" stroke="none" 
	d="
M715.486938,371.920288 
	C715.021912,357.419495 715.021057,342.991394 715.062378,328.150208 
	C721.241089,327.653015 727.377502,327.500092 733.514038,327.496094 
	C769.057312,327.472992 804.600525,327.484985 840.760864,327.603912 
	C841.256592,327.643738 841.135254,327.564728 841.013916,327.485748 
	C834.986328,322.091217 829.055664,316.583496 822.912537,311.323853 
	C806.010803,296.852875 788.891724,282.633179 772.108582,268.026917 
	C760.579895,257.993530 749.335571,247.621399 738.218323,237.131317 
	C731.076538,230.392456 730.632324,229.445557 736.130371,221.691055 
	C742.017700,213.387558 748.998169,205.813599 755.933105,198.320648 
	C758.760132,195.266129 762.105164,195.318192 765.867737,198.613068 
	C795.217957,224.314987 824.794800,249.757935 854.308228,275.273407 
	C854.675293,275.590759 855.127075,275.810089 855.524536,276.065674 
	C859.224792,269.637238 862.345398,262.864014 866.662476,256.966705 
	C880.154602,238.535904 897.018066,224.625259 920.097290,219.917557 
	C951.426331,213.527054 977.880615,224.327393 995.219238,251.280014 
	C1011.596985,276.739075 1015.563599,304.316101 1004.102661,332.495422 
	C993.182190,359.346130 969.863220,376.788574 934.899902,376.335205 
	C914.110718,376.065643 895.099365,370.292725 877.657471,359.105652 
	C865.620300,368.887268 851.287903,371.809998 836.399719,371.910400 
	C796.251831,372.181152 756.100891,371.996765 715.486938,371.920288 
M948.745300,275.685150 
	C947.890991,275.185364 947.033203,274.691559 946.182922,274.184937 
	C932.175659,265.838440 917.492737,260.009399 900.855652,264.093994 
	C895.672241,265.366577 890.395569,267.540771 886.014404,270.545624 
	C875.323975,277.877716 875.021301,290.533417 885.059875,300.975281 
	C897.836182,314.264862 913.742554,322.664001 930.783813,329.064789 
	C943.039795,333.668213 955.254761,332.455505 967.266052,328.000549 
	C973.738342,325.600037 977.711731,320.354279 976.967285,313.480164 
	C976.379700,308.054230 974.831482,302.406891 972.317749,297.583466 
	C967.266663,287.891571 958.363647,281.805237 948.745300,275.685150 
z"/>
<path fill="#020202" opacity="1.000000" stroke="none" 
	d="
M441.940613,431.683594 
	C435.715729,439.770477 421.170532,441.785889 413.492920,435.956024 
	C407.088348,431.092773 405.383026,416.175751 410.393524,408.844421 
	C414.321503,403.097015 424.170959,400.722931 433.236389,403.338440 
	C439.905121,405.262451 443.997528,410.235046 443.992676,417.723663 
	C443.989716,422.260071 442.767975,426.795685 441.940613,431.683594 
z"/>
<path fill="#C47034" opacity="1.000000" stroke="none" 
	d="
M841.023438,327.487366 
	C841.135254,327.564728 841.256592,327.643738 841.226074,327.598419 
	C841.074219,327.474121 841.032898,327.488983 841.023438,327.487366 
z"/>
<path fill="#C47034" opacity="1.000000" stroke="none" 
	d="
M508.022217,420.036377 
	C507.890991,420.392883 507.563934,420.560394 507.236847,420.727905 
	C507.189240,420.472168 507.141632,420.216461 507.248596,419.732910 
	C507.544220,419.619232 507.685303,419.733307 508.022217,420.036377 
z"/>
<path fill="#FEFEFE" opacity="1.000000" stroke="none" 
	d="
M155.685333,277.339996 
	C159.706467,284.563171 163.513474,291.505768 167.286865,298.466614 
	C168.945312,301.526031 167.918884,304.191101 165.298553,305.850372 
	C160.558380,308.851959 155.822983,312.148224 150.624954,314.085266 
	C135.648987,319.665985 120.420670,325.189117 104.036438,322.181732 
	C80.925652,317.939667 60.569786,308.464447 46.760899,288.460541 
	C43.620552,283.911377 42.020020,278.298523 39.716419,273.172699 
	C37.729210,268.750885 39.400028,265.651855 43.062756,262.952393 
	C53.135319,255.528854 64.927795,252.659866 76.802025,250.111618 
	C108.381317,243.334610 133.885208,254.521713 155.685333,277.339996 
z"/>
<path fill="#FEFEFE" opacity="1.000000" stroke="none" 
	d="
M949.082031,275.832489 
	C958.363647,281.805237 967.266663,287.891571 972.317749,297.583466 
	C974.831482,302.406891 976.379700,308.054230 976.967285,313.480164 
	C977.711731,320.354279 973.738342,325.600037 967.266052,328.000549 
	C955.254761,332.455505 943.039795,333.668213 930.783813,329.064789 
	C913.742554,322.664001 897.836182,314.264862 885.059875,300.975281 
	C875.021301,290.533417 875.323975,277.877716 886.014404,270.545624 
	C890.395569,267.540771 895.672241,265.366577 900.855652,264.093994 
	C917.492737,260.009399 932.175659,265.838440 946.182922,274.184937 
	C947.033203,274.691559 947.890991,275.185364 949.082031,275.832489 
z"/>
</svg>