<svg enable-background="new 0 0 1024 256" viewBox="0 0 1024 256" xmlns="http://www.w3.org/2000/svg"><path d="m199.425659 78.297798c2.342819-7.526459 2.738022-14.715584.885361-22.031662-3.810623-15.047943-14.700165-23.749256-30.338333-24.02782-4.323334-.077008-8.665604-.287651-12.927033.828117-2.912613.762608-5.253036-.108826-6.879898-2.697432-1.062713-1.690942-2.242691-3.324611-3.140228-5.100154-4.410095-8.724255 1.336624-18.157129 11.274521-18.616876 11.740021-.543116 23.257644 1.066282 34.6651 3.634506 1.969742.443459 4.839844.444014 4.126236 3.717898-.721008 3.307904-3.249268 1.860884-5.275375 1.623316-7.924469-.92917-15.792267-2.48545-23.825608-2.227399-1.617187.05195-3.230362.228313-5.408233.388787 1.559036 2.878062 3.940033 2.703397 5.800613 2.735562 22.856049.395165 40.034683 17.378241 44.892441 40.43886 4.172577 19.807861-3.894669 35.255676-17.411515 48.437683-24.194839 23.59549-54.710815 16.095146-73.152832-8.921097-.582634-.790329-1.17942-1.570221-2.260307-3.007461-10.295639 16.731361-25.832359 24.153785-44.334808 26.26329-18.196675 2.074631-35.114819-1.208633-50.410057-13.489067-.397692 4.73188-.876538 8.468865-.998156 12.217445-.512913 15.809525-1.175939 31.633561.340592 47.419404 1.43449 14.931793 10.4162 24.446929 23.133771 30.964477 10.366234 5.312515 21.560635 7.757141 33.089802 8.822281 34.054947 3.146194 67.091736-1.114044 99.016419-13.563126 1.416992-.552581 3.358474-1.96669 4.431244.094879 1.23468 2.372666-1.189743 3.12027-2.673829 3.955796-18.241271 10.269699-37.945693 16.402023-58.592163 18.812851-23.41426 2.734024-46.851799 2.473495-69.918003-3.553986-27.839157-7.274719-42.026441-25.187485-42.724096-54.007645-.476099-19.66777.118837-39.317298.935046-58.96305.241356-5.809296 3.862532-9.616372 7.60926-13.226799 2.507007.611274 2.934133 2.624916 3.984724 4.02642 8.899542 11.8722 20.542246 18.65979 35.521204 19.51651 11.792747.674484 23.298096-.201523 34.157554-5.375908 10.352654-4.932907 17.204453-12.446319 17.984925-24.399589.965881-14.793022 1.526588-29.59449-.373055-44.355171-.313736-2.437756-1.17704-4.864165-2.136009-7.149073-3.855759-9.18704-9.467827-11.874362-19.129188-9.52243-7.322655 1.7826-14.286469 4.554641-21.092339 7.685594-2.690857 1.237894-4.896412 1.18375-7.559799.049166-7.654988-3.260977-15.329205-6.535284-23.598438-8.01306-9.359135-1.672546-16.338912 2.917536-16.475646 11.345616 3.178975-1.763285 6.067109-3.56894 9.124699-5.016711 5.526079-2.616598 9.553801-1.546289 13.080275 3.333733 2.380356 3.293995 3.836227 7.038164 4.380195 11.040769.872544 6.420357-.847004 9.461113-6.610901 12.582268-4.629638 2.506951-9.631977 3.714707-14.807207 4.153961-5.45261.462799-9.633829-1.928978-12.86204-6.245349-6.5008-8.692078-8.034043-22.339482-3.213593-29.056454 7.73484-10.777977 21.647315-15.741667 33.514535-11.62561 5.970204 2.070722 11.794552 4.598649 17.572262 7.172574 2.996891 1.335091 5.599632 1.115311 8.586205-.074225 6.780799-2.700757 13.097557-6.508658 20.468666-7.828869 19.552009-3.501884 32.228973 5.791853 34.463867 25.495912 1.357094 11.964851 1.369453 23.932186.181854 35.899032-1.477203 14.884819 6.550888 28.495415 21.259415 35.849533 14.514984 7.257348 27.9776 5.328606 39.63504-5.542358 6.206299-5.787575 10.934769-12.523422 14.012863-20.867859m-174.718612-42.263542c-1.08574 1.179546-3.135232 2.014488-2.604044 3.910477.790876 2.822902 2.671535 5.161834 5.653894 5.740245 3.109316.603028 5.519115-1.130771 6.991093-3.765251 1.742454-3.118557.959648-6.423526-1.198708-8.78638-1.956823-2.142237-4.293068-.129319-6.280188 1.00671-.717332.410095-1.359256.952091-2.562047 1.894199z"/><path d="m309.411865 9.094975c7.463135-3.261406 14.612885-3.118494 21.73404-.292302 5.416442 2.149629 10.815307 4.35429 16.141693 6.715554 2.638427 1.169647 4.976257 1.0429 7.651764.008652 7.11853-2.751739 13.725586-6.737861 21.4151-8.139473 18.805542-3.427796 31.625244 5.968714 34.02951 24.999771 1.470001 11.635616 2.448883 23.593128.258057 34.846717-3.167786 16.271889 9.819244 34.710907 27.564667 40.057999 11.496826 3.464241 22.044372 1.628441 31.295227-6.381447 10.930175-9.463928 18.158844-20.886581 18.090942-35.777878-.09079-19.915931-13.152496-32.794651-33.007904-32.922428-3.156952-.020317-6.352753.010258-9.466309.461216-6.696136.969845-8.114044.20945-12.014007-7.404667-3.2211-6.288696-2.890351-9.164465 1.402893-13.479727 3.431946-3.449498 7.249603-5.289054 12.392914-5.280815 11.069458.017733 21.893493 1.498251 32.639099 3.916151 1.926361.433456 4.285583.492558 3.728027 3.489049-.562775 3.024312-2.760162 2.135864-4.722168 1.863974-8.399994-1.164068-16.772186-2.660181-25.306152-2.371607-1.410767.047703-2.992523-.354945-4.173493 1.066511 1.292786 2.232747 3.508423 2.060541 5.346772 2.077464 21.496887.197897 39.260681 16.139155 45.144256 40.8245 6.979248 29.282482-24.836944 66.210231-54.134857 62.065097-14.231293-2.013481-25.037842-9.24691-34.16217-19.761123-1.603089-1.847298-2.583771-4.244141-5.039704-5.809494-10.008667 16.574226-25.617737 23.639999-43.941314 25.824341-18.216828 2.171623-35.153779-1.147347-50.51709-13.559784-.403534 5.079925-.881104 9.125541-1.019532 13.182739-.527771 15.470321-1.158569 30.953522.329316 46.40242 1.457458 15.132843 10.586517 24.695831 23.451996 31.287399 13.658233 6.997727 28.559844 8.970322 43.564392 9.542023 30.100067 1.14682 59.436462-3.064087 87.598114-14.197357.619201-.244797 1.238952-.496338 1.875763-.686829 1.277038-.382034 2.719818-.977981 3.391174.79184.612121 1.61351-.59256 2.519928-1.796417 3.119415-5.810242 2.893234-11.503785 6.098663-17.51825 8.490478-27.603119 10.977067-56.252746 14.131958-85.772186 11.567673-12.028015-1.044861-23.78183-2.778549-35.052246-7.136871-20.336304-7.864182-31.300263-22.689224-33.241822-44.446106-1.962371-21.990036-.250549-43.940407.346161-65.899483.152253-5.602806 3.596527-9.749756 8.444702-13.435097 3.415864 5.204911 6.880158 9.799729 11.406464 13.527504 8.016083 6.601906 17.141235 9.982369 27.463898 10.535866 12.311462.660141 24.290527-.276077 35.450653-6.189819 9.260467-4.907143 15.638275-11.876892 16.352814-22.817825.987243-15.117058 1.57196-30.242691-.343659-45.340188-.145386-1.145759-.531128-2.266979-.863678-3.382137-3.725891-12.492426-10.028534-15.987403-22.519806-12.550802-6.604706 1.817085-12.953582 4.337799-19.146484 7.20544-2.500183 1.157704-4.565125 1.183598-7.078644.08787-7.781433-3.392164-15.628296-6.671528-24.064575-8.147968-7.74997-1.356331-14.148285 1.853802-16.284638 8.189768-.295867.87746-.2117 1.883066-.374176 3.558805 3.549836-2.040539 6.411896-3.931778 9.478333-5.394529 5.508758-2.627775 9.530212-1.530993 13.056519 3.400789 2.461395 3.442486 3.798706 7.355541 4.425262 11.542294.82608 5.519764-1.440064 9.271022-6.261231 11.843326-4.949005 2.640545-10.232574 4.036682-15.760375 4.3596-6.46341.377571-12.441102-3.851223-15.297822-11.552814-5.752563-15.508814-5.143249-24.728205 13.410187-34.493675m5.166413 36.789917c2.887786-.236699 5.045471-1.655423 6.357544-4.199986 1.840484-3.569382-.259797-9.284981-3.348755-9.334869-2.379181-.038422-9.446198 4.666832-9.413544 6.722366.05661 3.559017 2.580719 5.499184 6.404755 6.812489z"/><path d="m1002.914185 221.07666c-26.042664 9.536225-52.528565 15.065003-79.86023 15.84195-22.681641.64476-44.947205-2.003006-65.668335-12.090744-16.954712-8.25409-29.582764-20.366776-33.211304-39.840607-.273193-1.46608-.48822-2.970322-.485656-4.456375.034057-19.497345.103943-38.994644.184509-58.491883.021973-5.317009 1.82428-10.108795 4.434326-14.657508 1.566467-2.730042 3.340759-3.908524 6.887085-2.985848 22.39502 5.826645 45.133301 5.667114 67.954529 3.307037 4.191772-.433494 8.112793-1.772842 11.876037-3.625564 3.921265-1.930466 5.967225-5.234619 6.643982-9.399849.619263-3.811363.420899-7.683136-.185974-11.460213-1.021301-6.355644-4.736145-9.30529-11.270996-9.923462-9.838928-.930725-18.454956 2.487267-26.342773 7.692788-4.383545 2.892929-7.714295 2.694404-12.157471.122428-7.477356-4.328292-15.308655-8.198349-24.15802-9.023216-6.422363-.59864-9.95404 1.317284-12.121704 6.670716 2.683289.302383 4.313415-1.598221 6.22821-2.5616 8.046997-4.048592 12.317322-2.515068 15.729432 5.768936 4.301025 10.442184 2.447387 14.425095-8.335877 17.8396-1.426453.451675-2.871826.896682-4.342041 1.148941-15.831543 2.716423-22.489563-4.271233-23.639099-20.860764-.259461-3.743416 1.917175-6.947815 4.618896-9.660049 9.378907-9.415738 22.84314-12.557782 35.428284-6.229721 11.826965 5.946853 22.539856 8.156089 34.24823.030975 4.617066-3.20406 10.826111-3.248657 16.491028-3.216877 13.908752.078041 22.549072 9.026577 23.429016 23.928036.13739 2.325798.431458 4.73796-.003235 6.983123-1.096008 5.6605 1.939942 8.824036 6.331116 11.113839 11.217834 5.849502 22.489258 6.963707 33.641662-.221672 10.778382-6.944352 18.860352-16.182496 21.30896-28.964608 2.869629-14.979839-6.093505-31.324764-20.38977-39.064438-3.385498-1.832832-6.912781-3.418893-10.660889-4.205534-3.863769-.810924-3.999328-2.766189-2.484619-5.724454 2.826233-5.519829 6.297547-10.567792 10.521973-15.126642 2.231201-2.40784 4.572693-3.033876 7.566894-1.554476 9.544678 4.715911 17.682923 11.230543 24.757813 19.13108 1.357971 1.516461 2.071716 3.211079.379577 4.839043-1.766235 1.699226-3.100769-.014195-4.259948-1.027531-5.786621-5.058466-11.766968-9.838802-18.68396-13.281896-1.375427-.684668-2.580811-2.208196-4.575989-1.458586.193054 2.342533 2.247559 2.786787 3.672119 3.671642 7.880737 4.895266 14.849793 10.757721 19.879944 18.64867 9.271545 14.544461 10.980347 29.812943 3.649536 45.627358-6.063965 13.081627-15.657898 23.072395-28.061279 30.359932-15.94281 9.36718-31.535767 7.81073-46.548462-2.055519-3.307373-2.173561-5.402771-2.233559-8.782898-.065682-10.591064 6.792763-22.782959 8.221062-34.973145 8.641609-15.479309.534005-30.990173.552948-46.404357-1.437561-3.05835-.394935-3.841187.943314-3.844483 3.599945-.021057 16.992753-1.625366 33.963303-.940002 50.96045.803039 19.915649 11.981323 32.538147 29.33667 40.489883 19.246765 8.818314 39.744751 10.341553 60.546875 10.240097 29.507629-.143936 58.260253-5.28569 86.707885-12.612305 2.022156-.520797 4.056214-1.707794 6.539612.774567-4.722534 4.352829-10.921692 5.190674-16.601684 7.852539m-155.409607-131.105583c-.034363-.986809.150024-2.0466-.149659-2.944923-.585632-1.755547-.425048-4.671746-3.11029-4.326058-3.163269.407234-6.104248 2.389542-7.34729 5.275681-.878113 2.038803 1.226501 4.126838 3.125 5.107452 2.999878 1.549477 5.386352.103386 7.482239-3.112152z"/><path d="m894.459229 52.399239c-6.532654 5.53458-19.634034 6.724746-26.641541 2.676467-5.095764-2.94387-6.761414-8.722518-4.430847-15.371433 3.434631-9.798481 2.936951-12.965561-2.63324-16.756847-7.509338-5.111132-18.670654-5.350088-24.393249-.522225-4.062073 3.426861-5.226258 9.700509-2.772522 15.703362 3.264465-.519783 5.126281-3.378719 7.785034-4.880444 8.084167-4.566146 13.539978-2.743448 16.986816 5.940899 3.814636 9.610684 1.769226 14.188961-7.926636 17.742718-15.365295 5.631702-28.84674-4.22591-29.980285-20.449535-1.452393-20.786684 22.063415-34.243168 40.841369-27.292325 9.488648 3.512322 15.550232 15.225693 13.560486 25.312024-.450073 2.28141-1.167358 4.522426-1.454223 6.820408-.313782 2.514137-.338196 5.30265 2.31604 6.615837 2.788025 1.379326 5.926269 1.468113 8.535217-.471779 2.433166-1.809239 2.444336-4.439114 1.652222-7.242897-1.255738-4.444626-3.59314-8.590296-3.284119-13.48189.217468-3.442507.903442-6.682314 3.064575-9.322084 7.312683-8.932084 17.09784-11.96783 28.13916-10.421121 10.175782 1.425461 16.00586 8.158931 18.769287 17.76924 2.624268 9.126643-.737609 16.122778-11.098815 23.157927 2.848083-.461285 4.828247-1.151432 7.379028-3.569412 2.143066-2.031533 3.851196-4.521958 5.650879-6.687641 3.50885 2.070758 2.778686 3.87321 1.603576 5.605072-4.244629 6.256103-10.034057 10.634754-16.998046 13.406757-3.533326 1.406448-9.093995-1.022186-10.153199-4.129658-1.323608-3.883198 1.21344-10.634678 4.495667-11.941879 1.389831-.553524 2.86145-.947304 4.171997-1.646153 5.807434-3.096717 6.834228-9.449461 2.361633-14.214931-5.519165-5.880573-18.127441-6.858912-24.5448-2.006147-2.435485 1.841699-2.491821 4.269643-1.823791 6.732791.559692 2.063487 1.554199 4.038302 2.556763 5.946993 3.104858 5.911263 2.9505 11.479615-1.734436 16.977906m-55.701722-4.283997c2.40802 2.006989 5.094849 2.292652 7.874024 1.023975 1.482177-.67667 2.276062-2.08205 1.805664-3.69889-.661316-2.27319-.739441-5.240658-4.217835-5.197762-2.989257.036862-6.185547 4.09716-5.461853 7.872677z"/><path d="m671.75 45.272713c4.059265 4.665474 7.863953 9.082721 11.715149 13.459125 5.244385 5.959652 5.183105 10.842312.045288 16.672856-11.55957 13.118019-23.017151 26.325843-34.538757 39.47747-1.415955 1.616287-2.672669 3.341164-5.416138 1.718788-3.253235-1.923851-2.616272-3.962341-1.135925-6.614967 6.816894-12.215149 13.3208-24.61071 20.384948-36.679283 2.693787-4.601998 2.677247-8.158165-.036682-12.754589-6.940246-11.754212-13.351867-23.821534-19.915954-35.795891-1.121277-2.045408-3.190857-4.041756-.055908-6.435591 3.121521-2.383646 4.711425-.558781 6.578857 1.574289 7.350708 8.396445 14.756164 16.745015 22.375122 25.377793z"/></svg>