<svg enable-background="new 0 0 560 550" viewBox="0 0 560 550" xmlns="http://www.w3.org/2000/svg"><path d="m337 551c-112.308167 0-224.116325 0-335.962245 0 0-183.266907 0-366.533798 0-549.900352h559.799586v549.900352c-74.371185 0-148.854278 0-223.837341 0m170.85498-112.355804c27.806519 28.937713 29.520447 64.226501 25.041138 101.465423 1.322144-.922607 2.470093-2.023132 2.993164-3.366882 5.170227-13.283081 8.451599-27.013703 8.785034-41.302216.370423-15.871673-2.309387-31.328369-9.318237-45.578064-12.895203-26.217407-33.695373-44.758941-59.255249-58.149994-28.491547-14.927032-59.391968-20.460327-91.10437-21.537536-28.471558-.967194-56.98114-.812775-85.473816-1.164704-1.734253-.021453-3.467224-.145233-5.958527-.254669 7.989808-8.615326 17.296418-13.708587 27.081971-17.898254 20.854889-8.929047 42.961547-12.896149 65.287048-15.891113 21.66394-2.906159 43.105774-6.585022 63.00354-16.394776 17.703888-8.728149 29.422577-22.162018 32.619202-41.892395 2.341705-14.453247 1.02185-28.767578-6.792054-41.539276-21.451141-35.061569-72.992309-39.778015-100.888122-9.428619-1.078644 1.173507-1.871918 2.609283-2.931641 4.112121-14.09967-16.060409-30.922699-23.681183-50.987335-23.883835-21.820129-.220382-39.344971 7.536225-49.629761 27.902924-6.127624 12.134399-5.53833 24.535171-.340667 36.694076 4.339202 10.150696 13.525634 14.532654 24.996399 12.764679 10.884033-1.67752 18.885742-10.037994 20.495269-21.414154 1.447083-10.22818-4.216034-20.164489-14.067505-24.645218-1.556549-.707962-3.149566-1.335739-5.58319-2.362274 2.505493-1.51625 4.099578-2.683716 5.854248-3.51033 12.746551-6.004928 25.420471-4.288132 36.722595 2.780869 7.447998 4.658416 13.536438 11.641845 19.791656 18.017822 7.887574 8.03981 16.413391 8.283096 23.871949.057342 3.133697-3.456024 5.873229-7.370193 9.415435-10.329879 4.533753-3.788163 9.311096-7.743744 14.6698-9.989457 10.941834-4.585495 21.878296-1.955307 32.494476 2.228562 22.281678 8.781219 27.427887 41.844116 8.548432 56.609192-5.041443 3.942779-10.782623 7.900818-16.822815 9.481384-16.359528 4.280823-32.959564 7.832398-49.634766 10.671509-23.983398 4.083435-47.942505 7.865539-70.483703 17.706085-19.259369 8.407776-35.815033 19.748871-45.799378 39.00531-4.19519 8.091095-6.549743 16.481903-6.20755 25.398193 19.126434 0 37.629669-.367889 56.11322.078248 36.09787.871337 72.371247-1.466889 108.195435 4.96997 31.834717 5.720063 61.478668 16.266083 85.298675 40.589936m-429.595314-418.875617c-32.293602 6.917769-62.230472 31.888754-64.64653 43.753706 4.026655-3.068164 7.344275-6.063674 11.085463-8.372978 30.808931-19.017284 64.380731-24.22752 99.696558-18.704777 15.550445 2.431813 29.794754 8.83635 40.897873 20.382237 25.65863 26.681824 31.560592 59.116875 26.022903 94.395508-3.428787 21.843628-17.883148 37.019928-32.885528 51.704849-14.027375 13.73056-28.546021 27.024506-41.715638 41.538483-6.558944 7.228515-11.426841 16.368377-15.561744 25.334442-6.845642 14.844024-7.371735 30.947601-6.046952 46.982971 1.364609 16.517456 7.512871 31.274017 18.158661 44.043732 12.586243 15.09729 28.913353 24.327179 47.596856 29.521515 8.834823 2.456237 17.89888 3.913543 27.100204 1.697296 12.201675-2.938935 19.921417-13.383911 19.018112-25.697052-.770141-10.49823-10.615417-21.142487-20.575989-22.245819-13.542739-1.500153-24.21257 5.212097-27.66748 17.492004-.557236 1.980621-.76062 4.060791-1.165115 6.303009-12.20401-5.591461-21.49495-13.770142-28.559739-24.676453-8.731651-13.479553-10.39788-28.401214-10.239685-43.98767.166329-16.385895 6.319115-30.464203 16.959031-42.101349 11.192535-12.241532 24.013763-22.97905 35.833679-34.666672 9.105011-9.003098 18.893814-17.63884 26.342788-27.913788 10.24524-14.132034 15.796753-30.576355 17.344254-48.24205 2.014557-22.997719.879471-45.565537-8.412216-67.065682-11.053498-25.57682-29.267075-44.50394-54.960007-55.231374-23.537308-9.827416-48.076515-10.833768-73.619759-4.244088m452.560646 94.388022c6.233765-1.869247 12.46753-3.738495 18.701233-5.607742-.067138-.574501-.134338-1.148995-.201538-1.723496-1.315246 0-2.665344-.19709-3.940735.028412-51.735565 9.147667-103.478973 18.253258-155.170562 27.644104-4.922364.894241-8.595032.211914-12.28302-2.985367-5.412995-4.692825-11.543579-6.931038-19.338135-3.984627 12.330505 10.071816 17.540955 21.424401 6.468719 36.381264 55.669953-16.704315 110.332154-33.106277 165.764038-49.752548z" fill="#fff"/><path d="m507.597717 438.403625c-23.562744-24.083282-53.206695-34.629302-85.041412-40.349365-35.824188-6.436859-72.097565-4.098633-108.195435-4.96997-18.483551-.446137-36.986786-.078248-56.11322-.078248-.342193-8.91629 2.01236-17.307098 6.20755-25.398193 9.984345-19.256439 26.540009-30.597534 45.799378-39.00531 22.541198-9.840546 46.500305-13.62265 70.483703-17.706085 16.675202-2.839111 33.275238-6.390686 49.634766-10.671509 6.040192-1.580566 11.781372-5.538605 16.822815-9.481384 18.879455-14.765076 13.733246-47.827973-8.548432-56.609192-10.61618-4.183869-21.552642-6.814057-32.494476-2.228562-5.358704 2.245713-10.136047 6.201294-14.6698 9.989457-3.542206 2.959686-6.281738 6.873855-9.415435 10.329879-7.458558 8.225754-15.984375 7.982468-23.871949-.057342-6.255218-6.375977-12.343658-13.359406-19.791656-18.017822-11.302124-7.069001-23.976044-8.785797-36.722595-2.780869-1.75467.826614-3.348755 1.99408-5.854248 3.51033 2.433624 1.026535 4.026641 1.654312 5.58319 2.362274 9.851471 4.480729 15.514588 14.417038 14.067505 24.645218-1.609527 11.37616-9.611236 19.736634-20.495269 21.414154-11.470765 1.767975-20.657197-2.613983-24.996399-12.764679-5.197663-12.158905-5.786957-24.559677.340667-36.694076 10.28479-20.366699 27.809632-28.123306 49.629761-27.902924 20.064636.202652 36.887665 7.823426 50.987335 23.883835 1.059723-1.502838 1.852997-2.938614 2.931641-4.112121 27.895813-30.349396 79.436981-25.63295 100.888122 9.428619 7.813904 12.771698 9.133759 27.086029 6.792054 41.539276-3.196625 19.730377-14.915314 33.164246-32.619202 41.892395-19.897766 9.809754-41.3396 13.488617-63.00354 16.394776-22.325501 2.994964-44.432159 6.962066-65.287048 15.891113-9.785553 4.189667-19.092163 9.282928-27.081971 17.898254 2.491303.109436 4.224274.233216 5.958527.254669 28.492676.351929 57.002258.19751 85.473816 1.164704 31.712402 1.077209 62.612823 6.610504 91.10437 21.537536 25.559876 13.391053 46.360046 31.932587 59.255249 58.149994 7.00885 14.249695 9.68866 29.706391 9.318237 45.578064-.333435 14.288513-3.614807 28.019135-8.785034 41.302216-.523071 1.34375-1.67102 2.444275-2.993164 3.366882 4.479309-37.238922 2.765381-72.52771-25.298401-101.705994m-209.14096-185.166763c-2.707795-.995788-5.399384-2.769836-8.126709-2.826492-5.802155-.120575-8.7836 3.487091-8.616761 9.235962.156433 5.389496 3.267701 8.327392 8.946289 8.447754 8.11261.171966 11.18631-5.125275 7.797181-14.857224z" fill="#c57135"/><path d="m78.64769 19.636295c25.15522-6.457396 49.694427-5.451044 73.231735 4.376372 25.692932 10.727434 43.906509 29.654554 54.960007 55.231374 9.291687 21.500145 10.426773 44.067963 8.412216 67.065682-1.547501 17.665695-7.099014 34.110016-17.344254 48.24205-7.448974 10.274948-17.237777 18.91069-26.342788 27.913788-11.819916 11.687622-24.641144 22.42514-35.833679 34.666672-10.639916 11.637146-16.792702 25.715454-16.959031 42.101349-.158195 15.586456 1.508034 30.508117 10.239685 43.98767 7.064789 10.906311 16.355729 19.084992 28.559739 24.676453.404495-2.242218.607879-4.322388 1.165115-6.303009 3.45491-12.279907 14.124741-18.992157 27.66748-17.492004 9.960572 1.103332 19.805848 11.747589 20.575989 22.245819.903305 12.313141-6.816437 22.758117-19.018112 25.697052-9.201324 2.216247-18.265381.758941-27.100204-1.697296-18.683503-5.194336-35.010613-14.424225-47.596856-29.521515-10.64579-12.769715-16.794052-27.526276-18.158661-44.043732-1.324783-16.03537-.79869-32.138947 6.046952-46.982971 4.134903-8.966065 9.0028-18.105927 15.561744-25.334442 13.169617-14.513977 27.688263-27.807923 41.715638-41.538483 15.00238-14.684921 29.456741-29.861221 32.885528-51.704849 5.537689-35.278633-.364273-67.713684-26.022903-94.395508-11.103119-11.545887-25.347428-17.950424-40.897873-20.382237-35.315827-5.522743-68.887627-.312507-99.696558 18.704777-3.741188 2.309304-7.058808 5.304814-11.085463 8.372978 2.416058-11.864952 32.352928-36.835937 65.034554-43.88599m99.602081 357.199795c1.816773.077301 3.64325.312531 5.448471.201691 5.038361-.309387 7.147064-2.488587 7.435715-7.440216.358505-6.149964-1.132355-8.515534-6.076859-9.642273-5.125259-1.167938-9.814407.629455-11.511551 4.412506-1.789093 3.988006-.222503 8.84198 4.704224 12.468292z" fill="#ceb692"/><path d="m530.435486 114.278763c-55.047058 16.524109-109.709259 32.926071-165.379212 49.630386 11.072236-14.956863 5.861786-26.309448-6.468719-36.381264 7.794556-2.946411 13.92514-.708198 19.338135 3.984627 3.687988 3.197281 7.360656 3.879608 12.28302 2.985367 51.691589-9.390846 103.434997-18.496437 155.170562-27.644104 1.275391-.225502 2.625489-.028412 3.940735-.028412.0672.574501.1344 1.148995.201538 1.723496-6.233703 1.869247-12.467468 3.738495-19.086059 5.729904z" fill="#050505"/><path d="m298.675598 253.569427c3.170288 9.399384.096588 14.696625-8.016022 14.524659-5.678588-.120362-8.789856-3.058258-8.946289-8.447754-.166839-5.748871 2.814606-9.356537 8.616761-9.235962 2.727325.056656 5.418914 1.830704 8.34555 3.159057z" fill="#fdfbfa"/><path d="m177.863403 376.692688c-4.540359-3.48291-6.106949-8.336884-4.317856-12.32489 1.697144-3.783051 6.386292-5.580444 11.511551-4.412506 4.944504 1.126739 6.435364 3.492309 6.076859 9.642273-.288651 4.951629-2.397354 7.130829-7.435715 7.440216-1.805221.11084-3.631698-.12439-5.834839-.345093z" fill="#fefdfc"/></svg>