<svg enable-background="new 0 0 618 432" viewBox="0 0 618 432" xmlns="http://www.w3.org/2000/svg"><path d="m393 433c-130.968964 0-261.437897 0-391.953423 0 0-143.934662 0-287.86937 0-431.902027h617.781914v431.902027c-75.031189 0-150.17984 0-225.828491 0m-117.042419-27.785675c1.137298 7.812012 5.806274 12.665436 13.458007 13.058441 7.379212.378998 14.995575-.029022 22.222412-1.496582 8.731019-1.77301 17.161805-5.024536 25.722504-7.636169-.144104-.523804-.288238-1.047608-.432373-1.571442-3.835937.529266-7.664551 1.384155-11.510406 1.470276-2.458283.055054-4.941986-1.026276-7.414307-1.598145 1.686981-2.036499 3.000732-4.659973 5.124115-6.010131 10.407959-6.617829 19.209686-14.820771 26.206879-24.969605 14.623382-21.210083 19.772979-45.02005 19.704467-70.392151-.128357-47.537445-29.072662-90.640518-73.333191-108.129959-23.596496-9.324097-47.598709-12.224609-71.793579-1.853348-12.558441 5.383255-23.023269 13.731491-32.440643 23.679901-.957718-1.01239-1.72966-1.873352-2.548401-2.687255-15.320221-15.230225-33.0168-26.097611-55.092865-27.127045-33.010895-1.539353-61.396103 10.105026-84.830105 33.052093-26.048645 25.507431-36.761518 57.174836-34.84221 93.272736 1.321051 24.846069 7.994226 48.106354 24.478448 67.204498 18.155346 21.034302 39.755261 36.365937 69.412579 35.553253 13.278046-.363891 24.370766-7.842987 28.501259-19.644134 4.238708-12.110321.262344-26.072785-9.765671-34.29068-9.7397-7.98172-23.312813-8.908447-34.547485-2.516083-6.750046 3.840698-11.11509 9.669586-14.162285 16.889679-10.897781-6.479462-19.337563-14.71698-25.015968-25.633423-6.590691-12.670227-8.450058-26.355865-9.429444-40.437835-2.529709-36.373352 17.379055-71.221192 50.442261-86.232026 19.522812-8.863449 39.442993-11.919372 59.431076-.980133 15.063644 8.244141 23.876389 20.257386 23.371216 38.132019-.25885 9.158295-.045395 18.329956-.045395 27.495575 0 37.495697.036087 74.991455-.041718 112.487-.010772 5.189789 1.183655 9.759613 5.809983 12.447296 5.548065 3.223206 11.545822 3.272827 17.223114.321137 5.185989-2.696198 6.405807-7.541535 6.396438-13.10431-.078689-46.661193.049637-93.322876-.116226-139.983612-.037842-10.649063 3.720886-19.33287 10.947922-26.910186 18.720749-19.628113 40.949905-21.68216 65.090561-12.760086 34.82727 12.871704 56.929199 44.999618 57.384613 82.202743.414154 33.826447-12.31073 60.036377-42.95459 76.375275-5.109283 2.724182-9.895416 6.123474-14.580872 9.552368-3.91568 2.8656-6.323822 6.81131-6.03012 12.77005m64.063293-296.699158c-.44165-4.958168-.452911-9.999428-1.391602-14.861641-9.277618-48.056156-54.454284-77.302988-102.879486-69.149055-20.732818 3.491035-38.859604 11.838859-54.431274 26.179561-21.280258 19.598027-30.09613 43.065785-23.018051 71.476223 6.605331 26.512932 27.376526 40.864296 52.542709 35.654915 25.399552-5.257675 34.877655-28.450454 21.146332-47.82299-5.432526-7.664375-13.293915-10.224877-22.412994-8.964996-7.058152.975143-11.849274 5.189521-15.57251 11.005325 3.518646 0 6.621551-.214928 9.682983.049812 4.724121.408508 8.704041 4.123772 9.361145 8.332016.849762 5.442055-1.281769 9.702118-6.001358 11.994385-6.685028 3.246857-13.916839.847061-18.968628-6.294487-9.521103-13.459679-7.531097-35.026955 5.318497-47.771034 14.065704-13.950211 30.878525-22.62941 51.003662-24.793759 27.395722-2.946262 49.649201 6.123322 65.795746 28.199124 16.483704 22.536789 16.267853 52.566604.760559 75.929199-1.03067 1.552765-1.994415 3.149994-3.45636 5.46672 16.735138-5.732406 33.006104-28.79103 32.52063-54.629318m26.127075-44.014541c1.900238 7.121353 3.800476 14.242714 5.76767 21.615043 74.487732-23.097709 148.823944-46.148441 223.160126-69.199175-.124329-.471538-.248658-.943078-.372925-1.414617-.770874.065094-1.551026.074838-2.311157.203396-18.194397 3.077362-36.386109 6.171266-54.57959 9.254509-48.022034 8.138282-96.058625 16.192585-144.046967 24.524883-5.186615.900562-8.808929.293095-12.820953-3.498112-10.721588-10.131447-23.458313-15.162056-39.466065-12.697418 11.093811 8.473324 19.574829 18.078392 24.669861 31.211491z" fill="#fff"/><path d="m275.904114 404.797638c-.240235-5.542053 2.167907-9.487763 6.083587-12.353363 4.685456-3.428894 9.471589-6.828186 14.580872-9.552368 30.64386-16.338898 43.368744-42.548828 42.95459-76.375275-.455414-37.203125-22.557343-69.331039-57.384613-82.202743-24.140656-8.922074-46.369812-6.868027-65.090561 12.760086-7.227036 7.577316-10.985764 16.261123-10.947922 26.910186.165863 46.660736.037537 93.322419.116226 139.983612.009369 5.562775-1.210449 10.408112-6.396438 13.10431-5.677292 2.95169-11.675049 2.902069-17.223114-.321137-4.626328-2.687683-5.820755-7.257507-5.809983-12.447296.077805-37.495545.041718-74.991303.041718-112.487 0-9.165619-.213455-18.33728.045395-27.495575.505173-17.874633-8.307572-29.887878-23.371216-38.132019-19.988083-10.939239-39.908264-7.883316-59.431076.980133-33.063206 15.010834-52.97197 49.858674-50.442261 86.232026.979386 14.08197 2.838753 27.767608 9.429444 40.437835 5.678405 10.916443 14.118187 19.153961 25.015968 25.633423 3.047195-7.220093 7.412239-13.048981 14.162285-16.889679 11.234672-6.392364 24.807785-5.465637 34.547485 2.516083 10.028015 8.217895 14.004379 22.180359 9.765671 34.29068-4.130493 11.801147-15.223213 19.280243-28.501259 19.644134-29.657318.812684-51.257233-14.518951-69.412579-35.553253-16.484222-19.098144-23.157397-42.358429-24.478448-67.204498-1.919308-36.0979 8.793565-67.765305 34.84221-93.272736 23.434002-22.947067 51.81921-34.591446 84.830105-33.052093 22.076065 1.029434 39.772644 11.89682 55.092865 27.127045.818741.813903 1.590683 1.674865 2.548401 2.687255 9.417374-9.94841 19.882202-18.296646 32.440643-23.679901 24.19487-10.371261 48.197083-7.470749 71.793579 1.853348 44.260529 17.489441 73.204834 60.592514 73.333191 108.129959.068512 25.372101-5.081085 49.182068-19.704467 70.392151-6.997193 10.148834-15.79892 18.351776-26.206879 24.969605-2.123383 1.350158-3.437134 3.973632-5.124115 6.010131 2.472321.571869 4.956024 1.653199 7.414307 1.598145 3.845855-.086121 7.674469-.94101 11.510406-1.470276.144135.523834.288269 1.047638.432373 1.571442-8.560699 2.611633-16.991485 5.863159-25.722504 7.636169-7.226837 1.46756-14.8432 1.87558-22.222412 1.496582-7.651733-.393005-12.320709-5.246429-13.511474-13.475128m-175.203057-24.826202c-5.197967 5.16922-6.151634 11.193115-2.528266 15.969604 3.434326 4.527283 10.666015 5.891235 15.73751 2.968231 4.60511-2.654205 6.343384-8.815643 4.088989-14.493744-2.569465-6.471679-9.115158-8.408783-17.298233-4.444091z" fill="#020202"/><path d="m340.021301 108.996674c.485047 25.356781-15.785919 48.415405-32.521057 54.147811 1.461945-2.316726 2.42569-3.913955 3.45636-5.46672 15.507294-23.362595 15.723145-53.39241-.760559-75.929199-16.146545-22.075802-38.400024-31.145386-65.795746-28.199124-20.125137 2.164349-36.937958 10.843548-51.003662 24.793759-12.849594 12.744079-14.8396 34.311355-5.318497 47.771034 5.051789 7.141548 12.2836 9.541344 18.968628 6.294487 4.719589-2.292267 6.85112-6.55233 6.001358-11.994385-.657104-4.208244-4.637024-7.923508-9.361145-8.332016-3.061432-.26474-6.164337-.049812-9.682983-.049812 3.723236-5.815804 8.514358-10.030182 15.57251-11.005325 9.119079-1.259881 16.980468 1.300621 22.412994 8.964996 13.731323 19.372536 4.25322 42.565315-21.146332 47.82299-25.166183 5.209381-45.937378-9.141983-52.542709-35.654915-7.078079-28.410438 1.737793-51.878196 23.018051-71.476223 15.57167-14.340702 33.698456-22.688526 54.431274-26.179561 48.425202-8.153933 93.601868 21.092899 102.879486 69.149055.938691 4.862213.949952 9.903473 1.392029 15.343148z" fill="#cdb692"/><path d="m366.046844 64.127762c-4.993927-12.760235-13.474945-22.365303-24.568756-30.838627 16.007752-2.464638 28.744477 2.565971 39.466065 12.697418 4.012024 3.791207 7.634338 4.398674 12.820953 3.498112 47.988342-8.332298 96.024933-16.386601 144.046967-24.524883 18.193481-3.083243 36.385193-6.177147 54.57959-9.254509.760131-.128558 1.540283-.138302 2.311157-.203396.124267.471539.248596.943079.372925 1.414617-74.336182 23.050734-148.672394 46.101466-223.160126 69.199175-1.967194-7.372329-3.867432-14.49369-5.868775-21.987907z" fill="#c67136"/><path d="m101.008568 379.724854c7.875564-3.71811 14.421257-1.781006 16.990722 4.690673 2.254395 5.678101.516121 11.839539-4.088989 14.493744-5.071495 2.923004-12.303184 1.559052-15.73751-2.968231-3.623368-4.776489-2.669701-10.800384 2.835777-16.216186z" fill="#fafafa"/></svg>