<svg enable-background="new 0 0 692 596" viewBox="0 0 692 596" xmlns="http://www.w3.org/2000/svg"><path d="m693 219v378c-230.666595 0-461.333206 0-691.999856 0-.000048-198.666565-.000048-397.33313-.000096-595.999776 230.666471-.000075 461.33299-.000075 691.999708-.000149.000244 72.499925.000244 144.999925.000244 217.999925m-314.154846 108.5c-.000061 45.32605.22525 90.654266-.20871 135.976166-.077759 8.122497-1.779602 16.636932-4.667755 24.234344-4.952362 13.027436-14.812012 22.597229-26.827942 29.308167-34.814362 19.443786-67.22821 15.348083-90.968353-18.690216-9.472687-13.581848-15.780426-28.4888-18.375168-44.892212-1.001434-6.330872-4.673172-10.07016-10.803207-11.617981-10.922577-2.757843-18.299607 1.476806-21.046586 12.453064-3.510345 14.02652-8.774108 27.303833-17.159927 39.109192-14.326965 20.169098-32.410965 34.439239-58.498123 34.86264-22.37722.363098-41.154961-7.515564-54.524544-25.926483-16.838341-23.187805-15.164909-47.23819 3.343247-67.909882 11.342178-12.667999 30.727516-15.322357 43.203491-1.493072 1.772064 1.964325 3.855697 3.708557 6.009132 5.257019 8.222031 5.912231 17.060181 3.815491 21.88411-5.072327 7.716446-14.217193 2.609009-34.776825-11.198136-44.627899-12.426353-8.865906-26.378929-10.982544-41.312065-9.632141-31.781631 2.873993-53.871467 19.42691-67.494129 47.661835-9.279898 19.233978-10.884993 39.709777-7.064966 60.496795 5.324659 28.974671 20.098764 51.893311 45.453749 67.410095 20.678672 12.654908 43.324722 17.422303 67.403556 15.833191 28.840561-1.90332 53.965943-12.268493 74.46225-32.964721 3.831055-3.868347 7.239029-8.155762 10.990448-12.418152 1.813828 2.444885 3.441681 4.748596 5.180374 6.965454 14.68454 18.722168 33.291214 31.823242 56.682785 36.631836 26.579804 5.46405 52.447937 2.149292 76.683716-10.425598 36.300385-18.834778 57.916321-47.892945 58.023071-89.716675.362427-141.97818.141602-283.957871.106049-425.936974-.000427-1.613361-.17276-3.374855-.822662-4.815563-3.873291-8.586366-14.094056-13.405351-23.867066-11.366854-9.328949 1.945879-14.773926 11.387831-14.751983 19.348742.257507 93.65218.165283 187.305317.165344 281.95821m-266.19194-298.363108c-8.788529 2.995566-17.87217 5.331786-26.310868 9.108935-26.518913 11.869812-47.525917 29.66793-58.890217 57.269577-8.944727 21.72496-3.964199 44.980324 14.728855 59.109276 8.194474 6.19371 17.702126 10.650009 26.73803 15.968521-.844925.519272-2.495728 1.458191-4.068794 2.513031-9.221436 6.183563-19.117253 11.590027-27.47171 18.784347-12.520846 10.78212-18.257376 24.377915-13.348073 41.46695 7.282145 25.34877 23.497429 43.125778 45.795819 55.980117 19.612236 11.305848 40.961555 16.992157 63.363258 19.435944 30.575974 3.33551 60.00148.186218 87.782242-13.969788 32.215179-16.415588 53.942886-41.975738 66.334732-75.685394 11.857971-32.257324 11.799469-64.968674 1.335968-97.324959-12.952331-40.052414-38.676071-69.221515-77.877274-85.707294-23.927124-10.06238-48.964035-13.084694-74.674713-10.642975-7.582641.720116-15.08033 2.334572-23.437255 3.693712m453.434494 227.363108c0 83.988464-.152222 167.977417.099304 251.965118.069153 23.071259 11.087219 40.633027 30.186462 53.202118 17.785095 11.704224 37.78009 13.998047 58.39563 13.177552 11.84613-.471375 21.375793-5.014649 26.050964-16.688233 5.212159-13.01416-2.305297-23.58844-16.303527-23.230469-11.326172.289673-22.635071.335389-33.655945-2.928222-9.072449-2.686585-16.654908-7.240357-21.49469-15.826416-3.553589-6.304322-3.45398-13.04831-3.453919-19.868958.001099-151.4794-.020324-302.958832.083863-454.438164.003784-5.509857-1.722535-9.798637-5.903016-13.051906-6.17517-4.805554-13.200927-6.151186-20.745178-4.09231-10.668274 2.911453-13.259826 6.387093-13.259887 17.308905-.000061 71.156997.000061 142.313987-.000061 214.470985m-81.287323 15c.00003 94.295441.015716 188.590912-.05542 282.886292-.00293 3.884826.652679 7.067993 3.740417 9.768615 9.447968 8.263672 24.834686 8.028626 33.580902-1.018127 1.635681-1.691834 2.898316-4.567871 2.900147-6.898621.132934-172.430481.110717-344.861069.164001-517.291652.001892-6.159424-2.903564-10.065074-8.223511-12.425335-7.143188-3.169127-14.385955-3.560339-21.830841-.752924-8.089538 3.050514-10.274688 5.881301-10.274841 14.324491-.001312 76.802418-.001038 153.604847-.000854 231.407261z" fill="#fffffe"/><path d="m378.845093 327c0-94.152893.092224-187.80603-.165283-281.45821-.021943-7.960911 5.423034-17.402863 14.751983-19.348742 9.77301-2.038497 19.993775 2.780488 23.867066 11.366854.649902 1.440708.822235 3.202202.822662 4.815563.035553 141.979103.256378 283.958794-.106049 425.936974-.10675 41.82373-21.722686 70.881897-58.023071 89.716675-24.235779 12.57489-50.103912 15.889648-76.683716 10.425598-23.391571-4.808594-41.998245-17.909668-56.682785-36.631836-1.738693-2.216858-3.366546-4.520569-5.180374-6.965454-3.751419 4.26239-7.159393 8.549805-10.990448 12.418152-20.496307 20.696228-45.621689 31.061401-74.46225 32.964721-24.078834 1.589112-46.724884-3.178283-67.403556-15.833191-25.354985-15.516784-40.12909-38.435424-45.453749-67.410095-3.820027-20.787018-2.214932-41.262817 7.064966-60.496795 13.622662-28.234925 35.712498-44.787842 67.494129-47.661835 14.933136-1.350403 28.885712.766235 41.312065 9.632141 13.807145 9.851074 18.914582 30.410706 11.198136 44.627899-4.823929 8.887818-13.662079 10.984558-21.88411 5.072327-2.153435-1.548462-4.237068-3.292694-6.009132-5.257019-12.475975-13.829285-31.861313-11.174927-43.203491 1.493072-18.508156 20.671692-20.181588 44.722077-3.343247 67.909882 13.369583 18.410919 32.147324 26.289581 54.524544 25.926483 26.087158-.423401 44.171158-14.693542 58.498123-34.86264 8.385819-11.805359 13.649582-25.082672 17.159927-39.109192 2.746979-10.976258 10.124009-15.210907 21.046586-12.453064 6.130035 1.547821 9.801773 5.287109 10.803207 11.617981 2.594742 16.403412 8.902481 31.310364 18.375168 44.892212 23.740143 34.038299 56.153991 38.134002 90.968353 18.690216 12.01593-6.710938 21.87558-16.280731 26.827942-29.308167 2.888153-7.597412 4.589996-16.111847 4.667755-24.234344.43396-45.3219.208649-90.650116.208649-136.476166z" fill="#c47034"/><path d="m113.06337 29.059624c7.946769-1.281872 15.444458-2.896328 23.027099-3.616444 25.710678-2.441719 50.747589.580595 74.674713 10.642975 39.201203 16.485779 64.924943 45.65488 77.877274 85.707294 10.463501 32.356285 10.522003 65.067635-1.335968 97.324959-12.391846 33.709656-34.119553 59.269806-66.334732 75.685394-27.780762 14.156006-57.206268 17.305298-87.782242 13.969788-22.401703-2.443787-43.751022-8.130096-63.363258-19.435944-22.29839-12.854339-38.513674-30.631347-45.795819-55.980117-4.909303-17.089035.827227-30.68483 13.348073-41.46695 8.354457-7.19432 18.250274-12.600784 27.47171-18.784347 1.573066-1.05484 3.223869-1.993759 4.068794-2.513031-9.035904-5.318512-18.543556-9.774811-26.73803-15.968521-18.693054-14.128952-23.673582-37.384316-14.728855-59.109276 11.3643-27.601647 32.371304-45.399765 58.890217-57.269577 8.438698-3.777149 17.522339-6.113369 26.721024-9.186203m-46.770569 93.847099c4.754478 7.448105 11.787887 12.421127 19.620163 15.632813 13.021911 5.339721 26.414322 9.795837 39.736252 14.375213 6.215408 2.136536 9.775741 6.117584 10.241867 12.6082.541687 7.542649-1.957703 13.054138-6.954041 15.251236-8.509804 3.742142-17.07167 7.369171-25.532631 11.218277-11.807525 5.371567-23.643631 10.70343-32.727447 20.488892-7.046082 7.590332-7.846768 18.03424-.997582 25.740387 3.92421 4.415176 8.472306 8.652084 13.531479 11.618652 24.967537 14.640289 52.037781 21.759186 81.005676 19.798065 25.560196-1.730377 47.576539-11.948852 65.03238-30.881592 20.344162-22.065399 28.39656-48.343292 26.941604-78.250473-2.704757-55.597488-44.950866-91.786621-96.222824-95.511261-15.525574-1.127849-30.91333.64531-45.894546 5.059777-17.802002 5.245666-33.679032 13.567718-43.910134 29.827125-4.228912 6.720642-8.369991 13.859482-3.870216 23.024689z" fill="#020202"/><path d="m566.087769 256c.000061-71.656998-.000061-142.813988 0-213.970985.000061-10.921812 2.591613-14.397452 13.259887-17.308905 7.544251-2.058876 14.570008-.713244 20.745178 4.09231 4.180481 3.253269 5.9068 7.542049 5.903016 13.051906-.104187 151.479332-.082764 302.958764-.083863 454.438164-.000061 6.820648-.09967 13.564636 3.453919 19.868958 4.839782 8.586059 12.422241 13.139831 21.49469 15.826416 11.020874 3.263611 22.329773 3.217895 33.655945 2.928222 13.99823-.357971 21.515686 10.216309 16.303527 23.230469-4.675171 11.673584-14.204834 16.216858-26.050964 16.688233-20.61554.820495-40.610535-1.473328-58.39563-13.177552-19.099243-12.569091-30.117309-30.130859-30.186462-53.202118-.251526-83.987701-.099304-167.976654-.099243-252.465118z" fill="#ceb692"/><path d="m484.800201 271c0-77.302414-.000274-154.104843.001038-230.907261.000153-8.44319 2.185303-11.273977 10.274841-14.324491 7.444886-2.807415 14.687653-2.416203 21.830841.752924 5.319947 2.360261 8.225403 6.265911 8.223511 12.425335-.053284 172.430583-.031067 344.861171-.164001 517.291652-.001831 2.33075-1.264466 5.206787-2.900147 6.898621-8.746216 9.046753-24.132934 9.281799-33.580902 1.018127-3.087738-2.700622-3.743347-5.883789-3.740417-9.768615.071136-94.29538.05545-188.590851.055236-283.386292z" fill="#cdb591"/><path d="m66.107681 122.569786c-4.314655-8.82827-.173576-15.96711 4.055336-22.687752 10.231102-16.259407 26.108132-24.581459 43.910134-29.827125 14.981216-4.414467 30.368972-6.187626 45.894546-5.059777 51.271958 3.72464 93.518067 39.913773 96.222824 95.511261 1.454956 29.907181-6.597442 56.185074-26.941604 78.250473-17.455841 18.93274-39.472184 29.151215-65.03238 30.881592-28.967895 1.961121-56.038139-5.157776-81.005676-19.798065-5.059173-2.966568-9.607269-7.203476-13.531479-11.618652-6.849186-7.706147-6.0485-18.150055.997582-25.740387 9.083816-9.785462 20.919922-15.117325 32.727447-20.488892 8.460961-3.849106 17.022827-7.476135 25.532631-11.218277 4.996338-2.197098 7.495728-7.708587 6.954041-15.251236-.466126-6.490616-4.026459-10.471664-10.241867-12.6082-13.32193-4.579376-26.714341-9.035492-39.736252-14.375213-7.832276-3.211686-14.865685-8.184708-19.805283-15.96975z" fill="#fefefe"/></svg>