<svg enable-background="new 0 0 406 432" viewBox="0 0 406 432" xmlns="http://www.w3.org/2000/svg"><path d="m1 171c0-56.983154 0-113.466309 0-169.974732h405.914215v431.824524c-135.247436 0-270.580795 0-405.914215 0 0-87.068756 0-174.209259 0-261.849792m333.116364 237.054443c-3.467133.369507-6.933197.983857-10.401825.998383-1.578766.006622-3.162507-1.172882-4.744019-1.814392.930298-1.45755 1.635559-3.150543 2.849731-4.311157 1.417725-1.355225 3.44867-2.056488 4.919953-3.370301 6.67511-5.96051 14.179931-11.292724 19.690552-18.203155 21.439331-26.885681 27.298919-58.412506 22.165344-91.384735-7.50354-48.194184-35.506409-80.472519-81.992676-95.49704-30.106628-9.73056-58.508285-5.828232-83.381363 15.174011-3.737533 3.155899-7.239899 6.590286-10.233505 9.330582-7.475189-5.842682-14.26738-12.072205-21.915909-16.962311-26.118072-16.698608-53.941978-15.68338-81.297668-4.546082-45.064434 18.34697-70.064576 52.705704-74.404926 101.089585-2.495814 27.821991 2.414756 54.817413 19.078506 77.905426 18.120502 25.106445 41.276546 42.851532 74.334896 42.536957 15.394432-.146454 27.935203-10.437073 30.076698-24.650269 2.30983-15.330261-6.532898-29.972107-20.859512-34.539185-14.418205-4.596313-30.241303 2.153931-37.05024 15.795136-.624412 1.250977-1.316635 2.468079-2.045524 3.828094-11.547989-7.095947-20.429024-16.02185-26.05407-28.02893-5.460808-11.656494-7.557056-23.998505-8.108547-36.748749-1.58099-36.551849 12.128242-65.374191 43.986126-84.046753 16.999428-9.96373 35.570312-15.076721 55.454613-8.691696 23.570495 7.568695 33.645904 21.51889 33.645919 46.167038.000016 23.661957-.00003 47.323944 0 70.985901.000031 21.995636-.033752 43.991363.017395 65.986877.019593 8.422425 4.771332 13.388581 13.07193 13.939942 10.538834.700042 16.246552-4.644104 16.248734-15.28125.009537-46.490784.001907-92.981537.012283-139.472321.000412-1.827972-.01123-3.671875.206391-5.481476 1.953811-16.246765 12.710922-25.928207 25.84848-33.27922 19.585571-10.958924 39.229095-6.734757 57.812927 2.424835 30.799408 15.180466 47.106964 40.650955 49.099732 74.897659 1.975372 33.947968-9.320069 61.312531-40.247162 78.630676-6.213074 3.479096-12.154389 7.542389-17.828797 11.852662-4.39447 3.338073-6.188873 8.186584-4.786194 13.796142 1.465699 5.861603 5.109406 10.09314 11.092377 10.775421 6.196625.706696 12.729401 1.139679 18.770325-.053436 10.557587-2.085114 20.851227-5.506683 31.255493-8.368225-.148743-.606537-.297455-1.213104-.446167-1.819672-1.012268.110993-2.024506.221985-3.840301.435028m-41.206635-336.471893c27.034515 28.489182 25.315948 59.096863 6.3508 91.244232 4.011505-2.219452 7.497924-4.450531 10.487091-7.218628 19.640197-18.18782 24.39627-40.800972 18.858001-66.107704-9.405975-42.980015-51.149719-71.441742-94.541809-66.816372-31.486282 3.356276-56.680053 16.61219-75.435501 42.12537-15.67868 21.327828-15.997803 54.500511-.664856 76.017212 14.816284 20.791657 47.702561 22.997193 64.280411 4.311005 7.504333-8.458725 8.802322-20.964569 3.294983-31.746857-4.942139-9.675712-13.607971-14.420311-24.543015-13.437492-7.218582.648781-14.364105 6.010147-15.303802 11.076606 2.878097 0 5.856598-.253135 8.775192.057221 4.801392.510559 7.87143 3.506592 9.28714 7.960762 1.317902 4.146461-.930969 9.132225-4.82431 11.62513-7.278366 4.660339-16.208176 1.731643-21.255387-7.342232-7.631027-13.719093-6.262298-27.392052 1.91652-40.189339 7.711807-12.066559 19.707077-19.241619 32.536056-24.704365 26.087021-11.108192 58.964493-9.023731 80.782486 13.145451m95.853271-1.082519c0-16.230004 0-32.460003 0-48.776165-10.383117 0-19.939483 0-29.440246 0v96.522075h29.43988c0-15.840797 0-31.29335.000366-47.74591z" fill="#fefefe"/><path d="m334.518127 408.003418c1.414032-.162018 2.42627-.27301 3.438538-.384003.148712.606568.297424 1.213135.446167 1.819672-10.404266 2.861542-20.697906 6.283111-31.255493 8.368225-6.040924 1.193115-12.5737.760132-18.770325.053436-5.982971-.682281-9.626678-4.913818-11.092377-10.775421-1.402679-5.609558.391724-10.458069 4.786194-13.796142 5.674408-4.310273 11.615723-8.373566 17.828797-11.852662 30.927093-17.318145 42.222534-44.682708 40.247162-78.630676-1.992768-34.246704-18.300324-59.717193-49.099732-74.897659-18.583832-9.159592-38.227356-13.383759-57.812927-2.424835-13.137558 7.351013-23.894669 17.032455-25.84848 33.27922-.217621 1.809601-.205979 3.653504-.206391 5.481476-.010376 46.490784-.002746 92.981537-.012283 139.472321-.002182 10.637146-5.7099 15.981292-16.248734 15.28125-8.300598-.551361-13.052337-5.517517-13.07193-13.939942-.051147-21.995514-.017364-43.991241-.017395-65.986877-.00003-23.661957.000016-47.323944 0-70.985901-.000015-24.648148-10.075424-38.598343-33.645919-46.167038-19.884301-6.385025-38.455185-1.272034-55.454613 8.691696-31.857884 18.672562-45.567116 47.494904-43.986126 84.046753.551491 12.750244 2.647739 25.092255 8.108547 36.748749 5.625046 12.00708 14.506081 20.932983 26.05407 28.02893.728889-1.360015 1.421112-2.577117 2.045524-3.828094 6.808937-13.641205 22.632035-20.391449 37.05024-15.795136 14.326614 4.567078 23.169342 19.208924 20.859512 34.539185-2.141495 14.213196-14.682266 24.503815-30.076698 24.650269-33.05835.314575-56.214394-17.430512-74.334896-42.536957-16.66375-23.088013-21.57432-50.083435-19.078506-77.905426 4.34035-48.383881 29.340492-82.742615 74.404926-101.089585 27.35569-11.137298 55.179596-12.152526 81.297668 4.546082 7.648529 4.890106 14.44072 11.119629 21.915909 16.962311 2.993606-2.740296 6.495972-6.174683 10.233505-9.330582 24.873078-21.002243 53.274735-24.904571 83.381363-15.174011 46.486267 15.024521 74.489136 47.302856 81.992676 95.49704 5.133575 32.972229-.726013 64.499054-22.165344 91.384735-5.510621 6.910431-13.015442 12.242645-19.690552 18.203155-1.471283 1.313813-3.502228 2.015076-4.919953 3.370301-1.214172 1.160614-1.919433 2.853607-2.849731 4.311187 1.581512.64148 3.165253 1.820984 4.744019 1.814362 3.468628-.014526 6.934692-.628876 10.803588-1.049408m-220.069892-8.898376c5.258377-3.692292 6.862846-8.873353 4.550079-14.692933-1.992561-5.013916-6.781876-7.494018-12.553772-6.500854-5.129692.88269-9.083214 5.356659-9.380295 10.761169-.505157 9.190216 8.872505 14.134919 17.383988 10.432618z" fill="#020202"/><path d="m292.659943 71.332359c-21.568207-21.918991-54.445679-24.003452-80.5327-12.89526-12.828979 5.462746-24.824249 12.637806-32.536056 24.704365-8.178818 12.797287-9.547547 26.470246-1.91652 40.189339 5.047211 9.073875 13.977021 12.002571 21.255387 7.342232 3.893341-2.492905 6.142212-7.478669 4.82431-11.62513-1.41571-4.45417-4.485748-7.450203-9.28714-7.960762-2.918594-.310356-5.897095-.057221-8.775192-.057221.939697-5.066459 8.08522-10.427825 15.303802-11.076606 10.935044-.982819 19.600876 3.76178 24.543015 13.437492 5.507339 10.782288 4.20935 23.288132-3.294983 31.746857-16.57785 18.686188-49.464127 16.480652-64.280411-4.311005-15.332947-21.516701-15.013824-54.689384.664856-76.017212 18.755448-25.51318 43.949219-38.769094 75.435501-42.12537 43.39209-4.62537 85.135834 23.836357 94.541809 66.816372 5.538269 25.306732.782196 47.919884-18.858001 66.107704-2.989167 2.768097-6.475586 4.999176-10.487091 7.218628 18.965148-32.147369 20.683715-62.75505-6.600586-91.494423z" fill="#cdb692"/><path d="m388.762817 71.000031c-.000183 15.95256-.000183 31.405113-.000183 47.24591-9.991272 0-19.548034 0-29.43988 0 0-32.068909 0-64.113819 0-96.522075h29.440246c0 16.316162 0 32.546161-.000183 49.276165z" fill="#c67237"/><path d="m114.117928 399.289307c-8.181176 3.518036-17.558838-1.426667-17.053681-10.616883.297081-5.40451 4.250603-9.878479 9.380295-10.761169 5.771896-.993164 10.561211 1.486938 12.553772 6.500854 2.312767 5.81958.708298 11.000641-4.880386 14.877198z" fill="#fafafa"/></svg>