<svg enable-background="new 0 0 384 592" viewBox="0 0 384 592" xmlns="http://www.w3.org/2000/svg"><path d="m385 549.53241c-16.906219 8.732055-34.032959 16.446594-52.292603 21.31195-19.837005 5.285584-40.084838 7.824158-60.50473 9.576477-13.651581 1.171509-27.291336 1.062195-40.921264.780518-10.268647-.212219-20.553513-1.217773-30.149582-5.693604-8.325928-3.8833-13.23375-10.449646-15.540116-19.061401-4.495514-16.785767-4.560989-33.858276-2.822158-51.002655.110015-1.084839.612518-2.335663 1.347991-3.119293 6.99112-7.448609 15.515-11.844879 25.794236-12.626984 3.680908-.280029 4.248672 1.294159 3.950027 4.828797-1.117309 13.223846-2.991562 26.450164-1.595932 39.769806.904389 8.631408 4.714569 14.747497 13.685059 17.591369 10.708618 3.394959 21.736618 3.563172 32.581176 3.467163 17.594788-.155639 35.181397-1.666748 52.608124-4.605346 24.794647-4.181092 49.298523-9.497498 73.506989-17.652222.352783 5.257934.352783 10.612915.352783 16.435425z" fill="#d2b48c"/><path d="m248.743927 41.197765c18.70517 11.839115 33.088959 27.399662 43.856964 46.164219 7.190399 12.530113 10.820007 26.356774 12.608948 40.708405 2.962677 23.767715-.558563 46.549667-10.714111 68.124191-6.434815 13.67009-15.72818 25.440247-26.868103 35.724075-23.453766 21.651337-51.2883 34.349839-82.462616 39.814225-35.198639 6.169708-69.138001 1.501312-102.055756-12.393097-24.275833-10.246735-44.420258-25.405869-59.518841-47.054596-3.519182-5.045899-6.715647-10.330765-9.831665-15.64003-3.056006-5.207047-2.695973-6.024048 2.892038-8.474121 12.553278-5.503937 24.737837-11.609528 35.020743-20.918991 4.527874-4.099228 8.127842-8.786881 9.861313-14.748246 2.532345-8.708679-.423481-17.108917-7.99762-22.253311-12.387962-8.413971-26.234829-11.886474-41.069321-11.976707-8.707348-.052956-9.056956-.622429-5.067034-8.164566 13.038611-24.64682 28.728568-47.182476 50.660094-64.946648 16.737709-13.557268 35.54142-23.062174 56.361343-27.930748 23.234375-5.433171 46.690064-5.760033 70.313279-1.04216 22.78627 4.550724 44.336196 11.750191 64.010345 25.008106m15.002289 60.534825c-4.092407-7.700707-9.119065-14.811417-15.257141-20.927925-33.360672-33.243382-73.834717-45.727444-120.02089-39.294457-32.595565 4.540032-60.992324 18.259007-83.716056 42.635841-1.991738 2.136628-4.330883 4.077675-4.980366 7.039826 1.538589 1.790741 3.523056 1.659096 5.25066 2.064712 13.317936 3.126877 25.610176 7.972268 35.264076 18.352028 10.008537 10.761071 14.689362 23.278153 11.459389 37.531342-3.051758 13.46672-11.678391 23.726105-22.898789 31.678894-6.192398 4.389053-12.911899 7.873077-20.411792 10.304352.916809 1.857528 1.302928 2.962662 1.944423 3.891388 10.493496 15.192123 23.679802 27.370865 40.221611 35.762481 35.83342 18.178147 73.06411 26.531601 112.711632 14.782837 28.14476-8.340133 50.375855-25.347 63.013504-51.746994 14.46814-30.223877 12.816345-61.299865-2.580261-92.074325z"/><path d="m57.08466 431.833435c-11.384469-16.140961-11.134812-31.026947.430194-47.38092 7.719582-10.916199 16.888977-20.611847 25.552399-30.73526 1.392746-1.627442 2.730812-3.301667 4.753121-5.753052-6.014382 1.651001-11.133957 2.493561-16.428284 2.508606-5.586342.015838-9.561684-2.306519-12.517452-6.808991-3.618248-5.511566-5.844685-11.591308-7.06057-18.023681-1.084351-5.736542.095772-10.837982 4.461384-15.100189 11.141754-10.877839 23.996284-18.452912 39.609344-20.631745 14.201882-1.981964 30.222092 10.874848 32.622574 24.967011 1.725327 10.128662-2.349022 17.792541-7.963783 25.268829-10.105553 13.455963-21.82853 25.620117-31.476059 39.44574-3.936943 5.641906-7.634529 11.421844-8.619515 18.37091-1.503753 10.608979 3.897057 18.330567 11.437851 24.673615 13.727303 11.546844 29.746781 18.78363 46.758789 24.096527 10.868714 3.394348 22.01796 5.844391 33.29332 5.688904 16.811508-.231873 32.280701-5.876679 46.516251-14.82193 8.368713-5.258606 15.968826-11.424439 22.675109-18.711029 19.817231-21.531983 18.049927-50.241516-4.162704-69.29599-11.362274-9.746735-24.480057-16.001007-38.737595-19.985657-3.585968-1.002197-5.813705-2.797363-7.141601-6.173645-3.034836-7.716339-5.162552-16.073181.546402-22.753479 6.506302-7.613251 15.321457-12.464508 26.100601-10.114929 22.353973 4.872589 43.444366 12.669464 61.471466 27.35791 2.296448 1.871185 3.631622 3.676575 2.727295 6.780029-1.416534 4.861389-3.074982 5.62085-7.425873 2.95929-11.369415-6.954926-22.608978-14.1763-35.264511-18.661621-3.239761-1.148224-6.520065-3.123535-10.452911-1.730377.299484 3.121124 2.847458 3.328796 4.594986 4.237243 17.66661 9.183838 31.995178 21.585144 39.464813 40.649872 10.241486 26.139313 6.085388 50.524109-10.203552 72.687653-19.875244 27.043274-47.04097 42.951568-80.062577 48.144714-25.460769 4.00415-50.393768.703522-74.578201-8.280579-14.467003-5.374237-28.026237-12.333984-40.120666-22.012298-3.922848-3.13916-7.524258-6.577912-10.800045-10.861481m26.669796-102.962036c4.775283 3.502655 16.145828.059723 16.777641-5.267456.502296-4.235138-.371674-8.411224-4.173729-11.04541-3.666176-2.540131-7.282456-1.155335-10.643044.990204-6.047988 3.861328-6.488044 6.663543-1.960868 15.322662z" fill="#d2691e"/><path d="m160.306213 540.997437c-.18637 12.494567.643082 24.445556 1.695252 36.379333.2966 3.36438-.537338 5.234009-4.27829 4.730225-9.534958-1.284119-17.875153-4.969056-24.564804-12.06958-1.558395-1.654114-2.371796-3.438477-2.504913-5.766053-1.093552-19.122253-1.389481-38.237793.012573-57.358795.124512-1.698181.212341-3.352814 1.463211-4.639374 7.101883-7.304565 15.553741-11.84848 25.859085-12.566436 2.81337-.196015 4.41452.634735 4.077209 3.946716-1.586166 15.5737-1.953323 31.200226-1.759323 47.343964z" fill="#d2b48c"/></svg>