<svg version="1.1" id="Layer_1" xmlns="http://www.w3.org/2000/svg" xmlns:xlink="http://www.w3.org/1999/xlink" x="0px" y="0px"
	 width="100%" viewBox="0 0 520 804" enable-background="new 0 0 520 804" xml:space="preserve">
<path fill="#FFFFFF" opacity="1.000000" stroke="none" 
	d="
M521.000000,302.000000 
	C521.000000,469.999969 521.000000,637.499939 521.000000,805.000000 
	C347.666718,805.000000 174.333420,805.000000 1.000092,805.000000 
	C1.000061,537.000061 1.000061,269.000153 1.000031,1.000163 
	C174.333237,1.000109 347.666473,1.000109 520.999878,1.000054 
	C521.000000,101.166664 521.000000,201.333328 521.000000,302.000000 
M200.836182,205.502335 
	C200.836182,200.068588 200.836182,194.634842 200.836182,189.302094 
	C180.616333,189.302094 161.034195,189.302094 141.481995,189.302094 
	C141.481995,348.330505 141.481995,507.053894 141.481995,665.840088 
	C142.449280,665.908875 143.104279,665.996094 143.759293,665.996155 
	C194.589935,666.001953 245.420822,666.088562 296.251068,665.949280 
	C312.409790,665.905029 328.036774,663.051147 342.395264,655.060181 
	C353.815704,648.704285 363.417725,640.606995 369.373688,628.598633 
	C376.712494,613.802429 377.851868,597.980103 377.844360,581.890442 
	C377.821808,533.393005 377.836212,484.895569 377.836212,436.398132 
	C377.836212,434.631073 377.836212,432.864014 377.836212,430.709351 
	C416.826172,430.709351 455.240601,430.709351 493.738403,430.709351 
	C493.738403,413.234009 493.738403,396.156921 493.738403,378.703522 
	C455.052460,378.703522 416.629181,378.703522 378.077637,378.703522 
	C378.077637,332.747253 378.077637,287.169403 378.077637,241.201874 
	C416.731995,241.201874 455.147736,241.201874 493.697876,241.201874 
	C493.697876,223.600281 493.697876,206.390198 493.697876,189.223541 
	C435.127228,189.223541 376.861664,189.223541 318.161926,189.223541 
	C318.161926,330.839294 318.161926,472.229706 318.161926,613.711182 
	C278.829163,613.711182 239.931915,613.711182 200.836182,613.711182 
	C200.836182,477.783997 200.836182,342.142853 200.836182,205.502335 
M264.270660,116.779716 
	C284.653198,97.970192 305.035736,79.160675 324.678894,61.033489 
	C312.927856,48.774971 302.133179,37.514118 290.600525,25.483418 
	C289.217957,27.279547 288.273529,28.868797 286.994019,30.113537 
	C271.381226,45.301689 256.195862,60.977818 239.901093,75.399101 
	C229.181351,84.886345 220.154602,84.456650 208.747299,75.826393 
	C193.664383,64.415298 178.657852,52.856758 164.220108,40.650013 
	C141.289902,21.263098 105.971550,22.428921 83.727966,41.241016 
	C67.621330,54.862892 52.429966,69.569077 36.878448,83.844025 
	C31.877003,88.434914 27.028595,93.192535 22.663311,97.347397 
	C33.763607,108.840103 44.602844,120.062531 54.366299,130.171143 
	C60.785007,124.425529 67.122520,118.797913 73.409943,113.114876 
	C85.727692,101.981194 97.665359,90.390526 110.450333,79.823853 
	C118.177711,73.437225 127.860107,73.977638 135.853363,79.997093 
	C149.493790,90.269234 162.623886,101.230362 176.430496,111.266296 
	C184.943573,117.454384 193.688293,124.280098 203.426208,127.631302 
	C224.900635,135.021484 245.351807,130.715698 264.270660,116.779716 
M191.847839,714.217346 
	C180.598572,720.679565 176.436203,731.133545 175.604218,743.362061 
	C173.810974,769.718445 185.038788,786.929443 211.072067,788.784363 
	C224.660431,789.752441 241.348297,782.783264 247.073990,767.270081 
	C250.677368,757.507202 250.784973,747.459351 249.138550,737.266174 
	C246.838715,723.027527 238.245392,714.460999 224.877762,710.508545 
	C213.741943,707.216064 202.855957,708.589294 191.847839,714.217346 
z"/>
<path fill="#020202" opacity="1.000000" stroke="none" 
	d="
M200.836182,206.002014 
	C200.836182,342.142853 200.836182,477.783997 200.836182,613.711182 
	C239.931915,613.711182 278.829163,613.711182 318.161926,613.711182 
	C318.161926,472.229706 318.161926,330.839294 318.161926,189.223541 
	C376.861664,189.223541 435.127228,189.223541 493.697876,189.223541 
	C493.697876,206.390198 493.697876,223.600281 493.697876,241.201874 
	C455.147736,241.201874 416.731995,241.201874 378.077637,241.201874 
	C378.077637,287.169403 378.077637,332.747253 378.077637,378.703522 
	C416.629181,378.703522 455.052460,378.703522 493.738403,378.703522 
	C493.738403,396.156921 493.738403,413.234009 493.738403,430.709351 
	C455.240601,430.709351 416.826172,430.709351 377.836212,430.709351 
	C377.836212,432.864014 377.836212,434.631073 377.836212,436.398132 
	C377.836212,484.895569 377.821808,533.393005 377.844360,581.890442 
	C377.851868,597.980103 376.712494,613.802429 369.373688,628.598633 
	C363.417725,640.606995 353.815704,648.704285 342.395264,655.060181 
	C328.036774,663.051147 312.409790,665.905029 296.251068,665.949280 
	C245.420822,666.088562 194.589935,666.001953 143.759293,665.996155 
	C143.104279,665.996094 142.449280,665.908875 141.481995,665.840088 
	C141.481995,507.053894 141.481995,348.330505 141.481995,189.302094 
	C161.034195,189.302094 180.616333,189.302094 200.836182,189.302094 
	C200.836182,194.634842 200.836182,200.068588 200.836182,206.002014 
z"/>
<path fill="#C46F34" opacity="1.000000" stroke="none" 
	d="
M264.010925,117.025612 
	C245.351807,130.715698 224.900635,135.021484 203.426208,127.631302 
	C193.688293,124.280098 184.943573,117.454384 176.430496,111.266296 
	C162.623886,101.230362 149.493790,90.269234 135.853363,79.997093 
	C127.860107,73.977638 118.177711,73.437225 110.450333,79.823853 
	C97.665359,90.390526 85.727692,101.981194 73.409943,113.114876 
	C67.122520,118.797913 60.785007,124.425529 54.366299,130.171143 
	C44.602844,120.062531 33.763607,108.840103 22.663311,97.347397 
	C27.028595,93.192535 31.877003,88.434914 36.878448,83.844025 
	C52.429966,69.569077 67.621330,54.862892 83.727966,41.241016 
	C105.971550,22.428921 141.289902,21.263098 164.220108,40.650013 
	C178.657852,52.856758 193.664383,64.415298 208.747299,75.826393 
	C220.154602,84.456650 229.181351,84.886345 239.901093,75.399101 
	C256.195862,60.977818 271.381226,45.301689 286.994019,30.113537 
	C288.273529,28.868797 289.217957,27.279547 290.600525,25.483418 
	C302.133179,37.514118 312.927856,48.774971 324.678894,61.033489 
	C305.035736,79.160675 284.653198,97.970192 264.010925,117.025612 
z"/>
<path fill="#C46F34" opacity="1.000000" stroke="none" 
	d="
M192.164078,714.024658 
	C202.855957,708.589294 213.741943,707.216064 224.877762,710.508545 
	C238.245392,714.460999 246.838715,723.027527 249.138550,737.266174 
	C250.784973,747.459351 250.677368,757.507202 247.073990,767.270081 
	C241.348297,782.783264 224.660431,789.752441 211.072067,788.784363 
	C185.038788,786.929443 173.810974,769.718445 175.604218,743.362061 
	C176.436203,731.133545 180.598572,720.679565 192.164078,714.024658 
z"/>
</svg>