<svg version="1.1" id="Layer_1" xmlns="http://www.w3.org/2000/svg" xmlns:xlink="http://www.w3.org/1999/xlink" x="0px" y="0px"
	 width="100%" viewBox="0 0 652 798" enable-background="new 0 0 652 798" xml:space="preserve">
<path fill="#FFFFFF" opacity="1.000000" stroke="none" 
	d="
M1.000000,296.000000 
	C1.000000,197.333328 1.000000,99.166664 1.000000,1.000000 
	C218.333328,1.000000 435.666656,1.000000 653.000000,1.000000 
	C653.000000,267.000000 653.000000,533.000000 653.000000,799.000000 
	C435.666656,799.000000 218.333328,799.000000 1.000000,799.000000 
	C1.000000,631.500000 1.000000,464.000000 1.000000,296.000000 
M288.500000,175.999802 
	C277.054565,175.999802 265.609131,175.999802 253.963257,175.999802 
	C226.000412,240.004211 193.896667,301.783905 168.766281,365.037964 
	C140.508698,302.696930 111.777199,239.310349 83.243317,176.359756 
	C63.009197,176.359756 43.482727,176.359756 23.562611,176.359756 
	C24.262941,178.005356 24.737160,179.219833 25.287579,180.398743 
	C62.308228,259.690430 99.354996,338.969940 136.281296,418.305542 
	C137.625092,421.192657 138.410416,424.626984 138.415344,427.807892 
	C138.532257,503.138031 138.506104,578.468384 138.506104,653.798706 
	C138.506104,655.745483 138.506119,657.692261 138.506119,660.000061 
	C140.057526,660.000061 141.200577,660.000061 142.343643,660.000061 
	C275.671661,660.000000 408.999695,660.017700 542.327698,659.970154 
	C554.707642,659.965759 566.949402,658.526611 578.603455,654.058838 
	C595.573669,647.553162 609.742554,637.717407 617.895264,620.692261 
	C624.248047,607.425964 625.945557,593.282532 625.953979,578.895203 
	C626.032166,446.067200 626.000854,313.239105 625.990295,180.411072 
	C625.990173,178.982742 625.842102,177.554413 625.763489,176.133652 
	C574.208313,176.133652 523.057068,176.062851 471.906342,176.174927 
	C455.631958,176.210587 439.740570,178.910721 424.546265,184.911835 
	C411.380005,190.111969 399.625427,197.342865 390.595062,208.620117 
	C376.783173,225.868530 370.782349,246.069244 370.251648,267.511932 
	C369.303497,305.820312 369.680542,344.161530 369.527740,382.489075 
	C369.524048,383.419159 369.805115,384.350372 369.961761,385.333618 
	C390.022095,385.333618 409.800629,385.333618 430.000183,385.333618 
	C430.000183,383.380798 430.000153,381.575378 430.000153,379.769958 
	C430.000244,348.271210 429.728577,316.768707 430.164612,285.275970 
	C430.296844,275.725525 431.278687,265.896759 433.808441,256.730011 
	C439.057861,237.708267 449.461182,229.592255 469.217346,229.215515 
	C500.704193,228.615097 532.208374,228.921951 563.705200,228.861832 
	C564.171509,228.860931 564.638184,229.075134 565.296997,229.235870 
	C565.296997,355.025513 565.296997,480.793060 565.296997,606.684204 
	C443.049408,606.684204 321.004272,606.684204 198.833588,606.684204 
	C198.833588,605.708679 198.833588,605.049011 198.833588,604.389282 
	C198.833328,544.891663 198.812424,485.394012 198.908508,425.896545 
	C198.912338,423.523438 199.662079,420.982056 200.676971,418.804657 
	C232.311890,350.933197 264.028015,283.099609 295.718567,215.254089 
	C301.742706,202.357208 307.712006,189.434738 313.950073,175.999802 
	C305.398071,175.999802 297.449036,175.999802 288.500000,175.999802 
M302.227905,61.728088 
	C307.916290,56.129765 313.604675,50.531441 318.038147,46.168171 
	C306.769043,34.074467 295.838379,22.343952 286.661133,12.495140 
	C279.816620,18.296938 273.265350,23.480906 267.138275,29.125320 
	C256.375763,39.039970 246.352448,49.812737 235.127167,59.153709 
	C223.779099,68.596870 214.538101,71.399406 200.618896,60.574810 
	C187.659500,50.496639 175.027222,39.990467 161.913895,30.120527 
	C154.542160,24.572079 147.091827,18.253628 138.624527,15.204577 
	C116.203346,7.130785 94.164238,9.816201 75.651962,25.212561 
	C53.572269,43.575886 32.724655,63.420639 12.214736,81.840965 
	C23.901039,94.281586 34.806152,105.890594 44.049324,115.730385 
	C53.061394,107.763771 61.551968,100.303436 69.991592,92.785912 
	C80.159706,83.728760 89.851501,74.068520 100.559319,65.706329 
	C109.833549,58.463688 119.264603,58.760773 128.607178,65.768707 
	C143.060516,76.610268 157.031204,88.093231 171.286285,99.201874 
	C180.052521,106.033180 188.973007,112.698425 200.177383,115.095131 
	C221.962585,119.755135 242.059601,115.805794 259.110779,101.359398 
	C273.813721,88.902512 287.559235,75.315552 302.227905,61.728088 
M207.804520,745.463806 
	C207.828156,746.462036 207.831711,747.461121 207.878448,748.458313 
	C208.601013,763.875244 215.002518,775.815125 229.851929,781.549072 
	C244.061676,787.036011 257.903442,785.897095 270.328247,776.324219 
	C280.650146,768.371704 283.181213,756.967651 283.340851,744.830994 
	C283.574646,727.060425 279.059052,714.203064 261.702118,706.566040 
	C246.282074,699.781250 225.264267,704.209839 214.920975,717.164917 
	C208.538513,725.159058 207.870453,734.802795 207.804520,745.463806 
z"/>
<path fill="#010101" opacity="1.000000" stroke="none" 
	d="
M289.000000,175.999802 
	C297.449036,175.999802 305.398071,175.999802 313.950073,175.999802 
	C307.712006,189.434738 301.742706,202.357208 295.718567,215.254089 
	C264.028015,283.099609 232.311890,350.933197 200.676971,418.804657 
	C199.662079,420.982056 198.912338,423.523438 198.908508,425.896545 
	C198.812424,485.394012 198.833328,544.891663 198.833588,604.389282 
	C198.833588,605.049011 198.833588,605.708679 198.833588,606.684204 
	C321.004272,606.684204 443.049408,606.684204 565.296997,606.684204 
	C565.296997,480.793060 565.296997,355.025513 565.296997,229.235870 
	C564.638184,229.075134 564.171509,228.860931 563.705200,228.861832 
	C532.208374,228.921951 500.704193,228.615097 469.217346,229.215515 
	C449.461182,229.592255 439.057861,237.708267 433.808441,256.730011 
	C431.278687,265.896759 430.296844,275.725525 430.164612,285.275970 
	C429.728577,316.768707 430.000244,348.271210 430.000153,379.769958 
	C430.000153,381.575378 430.000183,383.380798 430.000183,385.333618 
	C409.800629,385.333618 390.022095,385.333618 369.961761,385.333618 
	C369.805115,384.350372 369.524048,383.419159 369.527740,382.489075 
	C369.680542,344.161530 369.303497,305.820312 370.251648,267.511932 
	C370.782349,246.069244 376.783173,225.868530 390.595062,208.620117 
	C399.625427,197.342865 411.380005,190.111969 424.546265,184.911835 
	C439.740570,178.910721 455.631958,176.210587 471.906342,176.174927 
	C523.057068,176.062851 574.208313,176.133652 625.763489,176.133652 
	C625.842102,177.554413 625.990173,178.982742 625.990295,180.411072 
	C626.000854,313.239105 626.032166,446.067200 625.953979,578.895203 
	C625.945557,593.282532 624.248047,607.425964 617.895264,620.692261 
	C609.742554,637.717407 595.573669,647.553162 578.603455,654.058838 
	C566.949402,658.526611 554.707642,659.965759 542.327698,659.970154 
	C408.999695,660.017700 275.671661,660.000000 142.343643,660.000061 
	C141.200577,660.000061 140.057526,660.000061 138.506119,660.000061 
	C138.506119,657.692261 138.506104,655.745483 138.506104,653.798706 
	C138.506104,578.468384 138.532257,503.138031 138.415344,427.807892 
	C138.410416,424.626984 137.625092,421.192657 136.281296,418.305542 
	C99.354996,338.969940 62.308228,259.690430 25.287579,180.398743 
	C24.737160,179.219833 24.262941,178.005356 23.562611,176.359756 
	C43.482727,176.359756 63.009197,176.359756 83.243317,176.359756 
	C111.777199,239.310349 140.508698,302.696930 168.766281,365.037964 
	C193.896667,301.783905 226.000412,240.004211 253.963257,175.999802 
	C265.609131,175.999802 277.054565,175.999802 289.000000,175.999802 
z"/>
<path fill="#C46F33" opacity="1.000000" stroke="none" 
	d="
M301.977966,61.978149 
	C287.559235,75.315552 273.813721,88.902512 259.110779,101.359398 
	C242.059601,115.805794 221.962585,119.755135 200.177383,115.095131 
	C188.973007,112.698425 180.052521,106.033180 171.286285,99.201874 
	C157.031204,88.093231 143.060516,76.610268 128.607178,65.768707 
	C119.264603,58.760773 109.833549,58.463688 100.559319,65.706329 
	C89.851501,74.068520 80.159706,83.728760 69.991592,92.785912 
	C61.551968,100.303436 53.061394,107.763771 44.049324,115.730385 
	C34.806152,105.890594 23.901039,94.281586 12.214736,81.840965 
	C32.724655,63.420639 53.572269,43.575886 75.651962,25.212561 
	C94.164238,9.816201 116.203346,7.130785 138.624527,15.204577 
	C147.091827,18.253628 154.542160,24.572079 161.913895,30.120527 
	C175.027222,39.990467 187.659500,50.496639 200.618896,60.574810 
	C214.538101,71.399406 223.779099,68.596870 235.127167,59.153709 
	C246.352448,49.812737 256.375763,39.039970 267.138275,29.125320 
	C273.265350,23.480906 279.816620,18.296938 286.661133,12.495140 
	C295.838379,22.343952 306.769043,34.074467 318.038147,46.168171 
	C313.604675,50.531441 307.916290,56.129765 301.977966,61.978149 
z"/>
<path fill="#C46F33" opacity="1.000000" stroke="none" 
	d="
M207.720291,744.982788 
	C207.870453,734.802795 208.538513,725.159058 214.920975,717.164917 
	C225.264267,704.209839 246.282074,699.781250 261.702118,706.566040 
	C279.059052,714.203064 283.574646,727.060425 283.340851,744.830994 
	C283.181213,756.967651 280.650146,768.371704 270.328247,776.324219 
	C257.903442,785.897095 244.061676,787.036011 229.851929,781.549072 
	C215.002518,775.815125 208.601013,763.875244 207.878448,748.458313 
	C207.831711,747.461121 207.828156,746.462036 207.720291,744.982788 
z"/>
</svg>