<svg version="1.1" id="Layer_1" xmlns="http://www.w3.org/2000/svg" xmlns:xlink="http://www.w3.org/1999/xlink" x="0px" y="0px"
	 width="100%" viewBox="0 0 1020 682" enable-background="new 0 0 1020 682" xml:space="preserve">
<path fill="#FFFFFE" opacity="1.000000" stroke="none" 
	d="
M647.000000,683.000000 
	C431.333405,683.000000 216.166794,683.000000 1.000144,683.000000 
	C1.000096,455.666809 1.000096,228.333603 1.000048,1.000297 
	C340.999786,1.000198 680.999573,1.000198 1020.999512,1.000099 
	C1020.999634,228.333023 1020.999634,455.666046 1020.999817,682.999512 
	C896.500000,683.000000 772.000000,683.000000 647.000000,683.000000 
M276.912109,657.549377 
	C290.397278,651.550354 300.518066,641.888306 307.691498,628.448975 
	C310.263947,631.646362 312.148468,634.669434 314.672729,636.999451 
	C322.457855,644.185303 329.866455,652.026672 338.575623,657.902405 
	C349.996613,665.607605 363.679443,665.993774 377.100952,665.996338 
	C424.265594,666.005493 471.430206,666.016235 518.594849,665.989746 
	C532.426514,665.981995 546.271118,666.202393 560.086182,665.685852 
	C575.441772,665.111694 589.953125,661.155151 603.074097,652.785583 
	C612.690247,646.651550 619.918762,638.347961 625.625977,627.847046 
	C627.979065,630.280396 629.833557,632.671875 632.136780,634.497192 
	C641.761230,642.124329 650.988892,650.435608 661.361267,656.890320 
	C675.110718,665.446533 691.128845,665.867859 706.846008,665.952881 
	C736.677185,666.114197 766.509949,666.040710 796.341858,665.980286 
	C808.897400,665.954895 821.294922,664.598999 833.097168,660.001892 
	C850.212158,653.335388 864.411316,643.334717 872.323975,625.915833 
	C878.419617,612.497070 879.439453,598.280396 879.447937,583.941040 
	C879.525085,454.113342 879.493164,324.285583 879.493164,194.457840 
	C879.493164,192.716766 879.493103,190.975693 879.493103,189.319626 
	C859.287964,189.319626 839.719421,189.319626 819.760132,189.319626 
	C819.760132,331.040070 819.760132,472.441315 819.760132,614.000061 
	C783.214111,614.000061 747.062805,614.044617 710.911743,613.960693 
	C704.089172,613.944824 697.236267,613.736084 690.451660,613.066406 
	C670.242188,611.071716 652.769287,603.752258 640.626648,586.504395 
	C636.659302,580.869080 633.958252,575.166687 634.011292,567.772583 
	C634.326660,523.776733 634.167175,479.777466 634.167175,435.779358 
	C634.167175,434.003937 634.167175,432.228546 634.167175,430.035034 
	C668.077576,430.035034 701.480530,430.035034 734.944275,430.035034 
	C734.944275,412.527893 734.944275,395.448639 734.944275,377.915283 
	C701.321777,377.915283 667.918823,377.915283 634.167175,377.915283 
	C634.167175,375.842041 634.167236,374.206055 634.167175,372.570068 
	C634.167053,351.737640 634.129944,330.905121 634.176208,310.072815 
	C634.234070,284.018829 629.973755,259.063934 616.274841,236.319962 
	C603.511414,215.129395 585.737061,200.542557 561.651184,194.106049 
	C534.066895,186.734634 506.585175,187.224533 479.509003,196.286469 
	C457.079224,203.793350 438.781891,217.114105 425.478546,236.957352 
	C407.886627,263.197388 403.969757,292.471252 406.784851,323.031921 
	C409.043304,347.549469 418.217682,369.376556 434.292236,388.207428 
	C455.554810,413.115814 483.755127,424.334686 515.220642,427.839447 
	C533.202454,429.842346 551.448730,429.475586 569.576477,430.158386 
	C571.330383,430.224487 573.088867,430.167236 574.768433,430.167236 
	C574.768433,491.795990 574.768433,552.733215 574.768433,614.000061 
	C572.744385,614.000061 570.947205,614.000061 569.150085,614.000061 
	C509.485992,614.000061 449.821869,614.028564 390.157867,613.957153 
	C384.004211,613.949829 377.820465,613.629883 371.704041,612.964355 
	C355.796631,611.233765 340.965118,606.514526 329.501801,594.734619 
	C321.927887,586.951599 316.633698,578.554688 316.718719,566.324463 
	C317.267944,487.331665 316.999878,408.333221 316.999908,329.336609 
	C316.999908,327.394012 316.999878,325.451416 316.999878,323.450806 
	C296.884827,323.450806 277.313629,323.450806 257.409607,323.450806 
	C257.409607,420.354553 257.409607,516.975769 257.409607,613.783447 
	C204.169891,613.783447 151.265137,613.783447 97.859726,613.783447 
	C97.859726,516.855042 97.859726,420.141937 97.859726,323.515015 
	C77.807785,323.515015 58.258545,323.515015 38.729645,323.515015 
	C38.729645,437.790375 38.729645,551.718262 38.729645,665.999878 
	C40.257797,665.999878 41.565331,665.999939 42.872868,665.999939 
	C106.536789,665.999817 170.200714,665.989075 233.864639,666.007507 
	C248.514267,666.011719 262.684540,663.622742 276.912109,657.549377 
M257.301392,219.927872 
	C283.782196,202.895142 303.532867,178.561050 325.070801,158.323288 
	C313.919373,146.632172 303.167175,135.359604 292.127686,123.785851 
	C290.436920,125.549568 288.879730,127.268600 287.223724,128.886520 
	C272.476379,143.294662 257.884033,157.869537 242.823181,171.942780 
	C239.325577,175.211044 234.439041,177.464050 229.795731,178.932007 
	C221.439819,181.573730 214.600418,177.115738 208.383530,172.284927 
	C193.712311,160.884674 179.277313,149.181030 164.688583,137.673874 
	C145.795929,122.771935 124.954796,120.896698 102.733398,128.617279 
	C90.317932,132.930908 80.557388,141.426697 71.063133,149.897202 
	C57.533390,161.968033 44.844215,174.979095 31.736006,187.525864 
	C28.911486,190.229416 25.831556,192.666107 24.287521,194.000259 
	C35.647312,206.327774 46.115993,217.688263 56.508965,228.966599 
	C60.347721,225.275330 63.578053,222.195755 66.779282,219.086227 
	C79.775391,206.462402 92.307747,193.312164 105.896767,181.363251 
	C116.786530,171.787796 127.062805,169.042831 140.484711,179.491165 
	C151.612701,188.153809 162.426849,197.236130 173.784912,205.581512 
	C183.089462,212.418076 192.282990,220.192490 202.784271,224.438614 
	C220.849869,231.743332 239.300186,229.484833 257.301392,219.927872 
M980.227661,82.727844 
	C987.958740,75.007469 995.689880,67.287094 1002.569824,60.416676 
	C991.558350,48.782543 980.946960,37.571144 969.930359,25.931585 
	C962.580688,33.641418 956.006165,41.133617 948.799072,47.957798 
	C938.190979,58.002445 927.571228,68.127243 916.125977,77.166351 
	C906.917786,84.438667 898.531860,84.050949 889.091003,76.968407 
	C874.644775,66.130875 860.274597,55.133289 846.539673,43.420811 
	C828.370850,27.927219 808.047546,23.337530 785.216919,29.196280 
	C771.081360,32.823719 760.155579,42.109859 749.568665,51.370884 
	C737.557678,61.877583 726.342834,73.301773 714.907837,84.456184 
	C710.200684,89.047775 705.821838,93.975822 702.829163,97.131645 
	C713.266296,108.435036 723.822998,119.867882 734.546082,131.480942 
	C736.979248,128.969864 738.895142,126.894363 740.914124,124.924561 
	C755.192871,110.993408 769.129333,96.682846 783.903381,83.297241 
	C795.284973,72.985298 805.306885,72.688812 817.674438,81.853928 
	C832.459656,92.810707 846.840149,104.343437 861.019470,116.081520 
	C886.154724,136.889053 921.172424,135.133606 943.989258,115.819466 
	C956.286682,105.409897 967.839294,94.120522 980.227661,82.727844 
z"/>
<path fill="#000000" opacity="1.000000" stroke="none" 
	d="
M276.563416,657.703613 
	C262.684540,663.622742 248.514267,666.011719 233.864639,666.007507 
	C170.200714,665.989075 106.536789,665.999817 42.872868,665.999939 
	C41.565331,665.999939 40.257797,665.999878 38.729645,665.999878 
	C38.729645,551.718262 38.729645,437.790375 38.729645,323.515015 
	C58.258545,323.515015 77.807785,323.515015 97.859726,323.515015 
	C97.859726,420.141937 97.859726,516.855042 97.859726,613.783447 
	C151.265137,613.783447 204.169891,613.783447 257.409607,613.783447 
	C257.409607,516.975769 257.409607,420.354553 257.409607,323.450806 
	C277.313629,323.450806 296.884827,323.450806 316.999878,323.450806 
	C316.999878,325.451416 316.999908,327.394012 316.999908,329.336609 
	C316.999878,408.333221 317.267944,487.331665 316.718719,566.324463 
	C316.633698,578.554688 321.927887,586.951599 329.501801,594.734619 
	C340.965118,606.514526 355.796631,611.233765 371.704041,612.964355 
	C377.820465,613.629883 384.004211,613.949829 390.157867,613.957153 
	C449.821869,614.028564 509.485992,614.000061 569.150085,614.000061 
	C570.947205,614.000061 572.744385,614.000061 574.768433,614.000061 
	C574.768433,552.733215 574.768433,491.795990 574.768433,430.167236 
	C573.088867,430.167236 571.330383,430.224487 569.576477,430.158386 
	C551.448730,429.475586 533.202454,429.842346 515.220642,427.839447 
	C483.755127,424.334686 455.554810,413.115814 434.292236,388.207428 
	C418.217682,369.376556 409.043304,347.549469 406.784851,323.031921 
	C403.969757,292.471252 407.886627,263.197388 425.478546,236.957352 
	C438.781891,217.114105 457.079224,203.793350 479.509003,196.286469 
	C506.585175,187.224533 534.066895,186.734634 561.651184,194.106049 
	C585.737061,200.542557 603.511414,215.129395 616.274841,236.319962 
	C629.973755,259.063934 634.234070,284.018829 634.176208,310.072815 
	C634.129944,330.905121 634.167053,351.737640 634.167175,372.570068 
	C634.167236,374.206055 634.167175,375.842041 634.167175,377.915283 
	C667.918823,377.915283 701.321777,377.915283 734.944275,377.915283 
	C734.944275,395.448639 734.944275,412.527893 734.944275,430.035034 
	C701.480530,430.035034 668.077576,430.035034 634.167175,430.035034 
	C634.167175,432.228546 634.167175,434.003937 634.167175,435.779358 
	C634.167175,479.777466 634.326660,523.776733 634.011292,567.772583 
	C633.958252,575.166687 636.659302,580.869080 640.626648,586.504395 
	C652.769287,603.752258 670.242188,611.071716 690.451660,613.066406 
	C697.236267,613.736084 704.089172,613.944824 710.911743,613.960693 
	C747.062805,614.044617 783.214111,614.000061 819.760132,614.000061 
	C819.760132,472.441315 819.760132,331.040070 819.760132,189.319626 
	C839.719421,189.319626 859.287964,189.319626 879.493103,189.319626 
	C879.493103,190.975693 879.493164,192.716766 879.493164,194.457840 
	C879.493164,324.285583 879.525085,454.113342 879.447937,583.941040 
	C879.439453,598.280396 878.419617,612.497070 872.323975,625.915833 
	C864.411316,643.334717 850.212158,653.335388 833.097168,660.001892 
	C821.294922,664.598999 808.897400,665.954895 796.341858,665.980286 
	C766.509949,666.040710 736.677185,666.114197 706.846008,665.952881 
	C691.128845,665.867859 675.110718,665.446533 661.361267,656.890320 
	C650.988892,650.435608 641.761230,642.124329 632.136780,634.497192 
	C629.833557,632.671875 627.979065,630.280396 625.625977,627.847046 
	C619.918762,638.347961 612.690247,646.651550 603.074097,652.785583 
	C589.953125,661.155151 575.441772,665.111694 560.086182,665.685852 
	C546.271118,666.202393 532.426514,665.981995 518.594849,665.989746 
	C471.430206,666.016235 424.265594,666.005493 377.100952,665.996338 
	C363.679443,665.993774 349.996613,665.607605 338.575623,657.902405 
	C329.866455,652.026672 322.457855,644.185303 314.672729,636.999451 
	C312.148468,634.669434 310.263947,631.646362 307.691498,628.448975 
	C300.518066,641.888306 290.397278,651.550354 276.563416,657.703613 
M575.000916,357.499817 
	C574.675903,335.202576 575.354004,312.834106 573.777588,290.625671 
	C571.701477,261.375641 555.111694,241.805344 524.991577,241.299698 
	C501.951874,240.912903 483.701599,249.694962 472.875732,270.588348 
	C463.923981,287.864868 463.751984,306.408142 467.765656,325.081177 
	C471.704193,343.404846 481.569824,357.627899 497.860809,367.120636 
	C507.205200,372.565674 517.514587,375.499390 528.153015,376.346954 
	C543.647766,377.581482 559.214111,377.917236 575.000916,378.647827 
	C575.000916,371.112793 575.000916,364.806183 575.000916,357.499817 
z"/>
<path fill="#C46F34" opacity="1.000000" stroke="none" 
	d="
M256.990356,220.125671 
	C239.300186,229.484833 220.849869,231.743332 202.784271,224.438614 
	C192.282990,220.192490 183.089462,212.418076 173.784912,205.581512 
	C162.426849,197.236130 151.612701,188.153809 140.484711,179.491165 
	C127.062805,169.042831 116.786530,171.787796 105.896767,181.363251 
	C92.307747,193.312164 79.775391,206.462402 66.779282,219.086227 
	C63.578053,222.195755 60.347721,225.275330 56.508965,228.966599 
	C46.115993,217.688263 35.647312,206.327774 24.287521,194.000259 
	C25.831556,192.666107 28.911486,190.229416 31.736006,187.525864 
	C44.844215,174.979095 57.533390,161.968033 71.063133,149.897202 
	C80.557388,141.426697 90.317932,132.930908 102.733398,128.617279 
	C124.954796,120.896698 145.795929,122.771935 164.688583,137.673874 
	C179.277313,149.181030 193.712311,160.884674 208.383530,172.284927 
	C214.600418,177.115738 221.439819,181.573730 229.795731,178.932007 
	C234.439041,177.464050 239.325577,175.211044 242.823181,171.942780 
	C257.884033,157.869537 272.476379,143.294662 287.223724,128.886520 
	C288.879730,127.268600 290.436920,125.549568 292.127686,123.785851 
	C303.167175,135.359604 313.919373,146.632172 325.070801,158.323288 
	C303.532867,178.561050 283.782196,202.895142 256.990356,220.125671 
z"/>
<path fill="#C46F33" opacity="1.000000" stroke="none" 
	d="
M979.977783,82.977982 
	C967.839294,94.120522 956.286682,105.409897 943.989258,115.819466 
	C921.172424,135.133606 886.154724,136.889053 861.019470,116.081520 
	C846.840149,104.343437 832.459656,92.810707 817.674438,81.853928 
	C805.306885,72.688812 795.284973,72.985298 783.903381,83.297241 
	C769.129333,96.682846 755.192871,110.993408 740.914124,124.924561 
	C738.895142,126.894363 736.979248,128.969864 734.546082,131.480942 
	C723.822998,119.867882 713.266296,108.435036 702.829163,97.131645 
	C705.821838,93.975822 710.200684,89.047775 714.907837,84.456184 
	C726.342834,73.301773 737.557678,61.877583 749.568665,51.370884 
	C760.155579,42.109859 771.081360,32.823719 785.216919,29.196280 
	C808.047546,23.337530 828.370850,27.927219 846.539673,43.420811 
	C860.274597,55.133289 874.644775,66.130875 889.091003,76.968407 
	C898.531860,84.050949 906.917786,84.438667 916.125977,77.166351 
	C927.571228,68.127243 938.190979,58.002445 948.799072,47.957798 
	C956.006165,41.133617 962.580688,33.641418 969.930359,25.931585 
	C980.946960,37.571144 991.558350,48.782543 1002.569824,60.416676 
	C995.689880,67.287094 987.958740,75.007469 979.977783,82.977982 
z"/>
<path fill="#FEFEFE" opacity="1.000000" stroke="none" 
	d="
M575.000916,357.999695 
	C575.000916,364.806183 575.000916,371.112793 575.000916,378.647827 
	C559.214111,377.917236 543.647766,377.581482 528.153015,376.346954 
	C517.514587,375.499390 507.205200,372.565674 497.860809,367.120636 
	C481.569824,357.627899 471.704193,343.404846 467.765656,325.081177 
	C463.751984,306.408142 463.923981,287.864868 472.875732,270.588348 
	C483.701599,249.694962 501.951874,240.912903 524.991577,241.299698 
	C555.111694,241.805344 571.701477,261.375641 573.777588,290.625671 
	C575.354004,312.834106 574.675903,335.202576 575.000916,357.999695 
z"/>
</svg>