<svg version="1.1" id="Layer_1" xmlns="http://www.w3.org/2000/svg" xmlns:xlink="http://www.w3.org/1999/xlink" x="0px" y="0px"
	 width="100%" viewBox="0 0 2220 440" enable-background="new 0 0 2220 440" xml:space="preserve">
<path fill="#FFFFFE" opacity="1.000000" stroke="none" 
	d="
M1666.000000,441.000000 
	C1110.718750,441.000000 555.937439,441.000000 1.078080,441.000000 
	C1.078080,294.399170 1.078080,147.798309 1.078080,1.098720 
	C741.000000,1.098720 1481.000000,1.098720 2220.973633,1.098720 
	C2220.973633,147.729492 2220.973633,294.364746 2220.973633,441.000000 
	C2036.131348,441.000000 1851.315674,441.000000 1666.000000,441.000000 
M255.086258,387.895477 
	C219.594162,387.927582 184.101776,387.897919 148.610397,388.075226 
	C144.484970,388.095856 143.119217,386.931335 143.141418,382.738373 
	C143.290558,354.578033 143.313995,326.415894 143.120682,298.256104 
	C143.090546,293.865417 144.839951,292.563141 148.764084,291.947296 
	C156.467148,290.738464 164.213547,289.507782 171.739670,287.520111 
	C206.466934,278.348389 230.923294,250.087723 233.710266,215.136444 
	C236.258453,183.179611 221.652283,150.651291 192.077866,135.528809 
	C178.105637,128.384293 163.512695,124.263000 147.870056,122.588303 
	C124.919853,120.131264 102.201012,120.540543 80.034172,126.930977 
	C46.039700,136.731186 22.747198,157.335968 16.753185,193.801819 
	C12.120345,221.986710 19.582621,246.568222 40.010216,266.769379 
	C53.255898,279.868195 69.901901,286.311737 87.838310,289.872192 
	C93.804390,291.056458 99.800934,292.087311 105.975128,293.223572 
	C105.975128,295.212769 105.975136,296.692841 105.975121,298.172913 
	C105.974724,336.831970 105.973457,375.490997 105.974770,414.150055 
	C105.974998,421.005981 105.979980,421.003204 113.064011,421.002594 
	C132.726807,421.000916 152.389618,421.022369 172.052383,420.996704 
	C200.043274,420.960175 228.034119,420.889740 256.947784,420.988739 
	C296.086365,420.972412 335.227478,421.211090 374.362366,420.822723 
	C391.647705,420.651215 406.674164,414.893921 416.289825,399.211273 
	C416.681335,398.572723 417.573181,398.240936 418.344879,397.684845 
	C421.080322,400.294342 423.678467,402.853058 426.362366,405.318420 
	C434.974091,413.228638 444.373260,419.849457 456.566772,420.195618 
	C473.361786,420.672455 490.170746,420.658020 507.905121,420.993958 
	C541.570862,420.968872 575.241699,421.282104 608.900208,420.774933 
	C625.552734,420.523987 640.341980,415.132568 649.976013,400.165863 
	C650.394531,399.515717 651.147583,399.080963 652.259766,398.084473 
	C654.957520,400.724213 657.506042,403.282990 660.124268,405.768250 
	C669.777222,414.931091 681.084839,420.652069 694.538757,420.772339 
	C720.365417,421.003235 746.195679,420.836517 772.947144,420.990173 
	C811.439331,420.970428 849.934387,421.220551 888.422363,420.807739 
	C905.553894,420.624023 920.366211,414.696167 929.958130,399.297394 
	C930.345703,398.675201 931.151184,398.313354 931.939087,397.690094 
	C933.832886,399.466736 935.614014,400.957367 937.187134,402.642212 
	C949.265625,415.578369 964.062134,421.483368 981.806335,421.093719 
	C1000.962646,420.673126 1020.136292,421.125519 1039.300415,420.961090 
	C1053.397705,420.840179 1066.773071,418.093842 1077.342773,407.805054 
	C1080.446045,404.784210 1082.904053,401.100616 1085.640625,397.741852 
	C1086.086670,398.014740 1086.412720,398.143860 1086.645996,398.369232 
	C1087.603271,399.294067 1088.562256,400.220398 1089.467041,401.195801 
	C1102.427734,415.168365 1118.303345,421.528320 1137.469116,421.129608 
	C1162.456787,420.609802 1187.463379,421.023804 1212.461914,420.995697 
	C1232.412476,420.973297 1250.476929,416.866241 1261.514526,397.509460 
	C1262.373657,398.603394 1262.976318,399.368378 1263.576416,400.135376 
	C1273.060303,412.257568 1284.361328,421.069305 1300.746216,420.909821 
	C1309.575684,420.823853 1318.410034,421.120728 1327.237427,420.970093 
	C1346.151733,420.647369 1362.495972,415.140381 1372.510132,397.627716 
	C1372.995972,397.798950 1373.383789,397.825500 1373.603760,398.031281 
	C1374.937500,399.279816 1376.289307,400.516937 1377.532959,401.852936 
	C1390.169434,415.426788 1405.665161,421.583313 1424.269043,421.110535 
	C1443.422119,420.623810 1462.597168,421.002686 1481.762695,421.002625 
	C1526.760010,421.002533 1571.757324,420.942841 1616.754517,421.028900 
	C1637.308228,421.068268 1656.765991,416.999054 1674.496216,406.255035 
	C1679.874756,402.995697 1684.959351,399.251160 1691.317505,394.960266 
	C1693.574097,397.669525 1695.654175,400.741913 1698.289551,403.224854 
	C1706.719360,411.166962 1715.628174,418.564606 1727.855591,419.456024 
	C1738.623535,420.241089 1749.427368,420.901672 1760.218018,420.946075 
	C1797.381348,421.099060 1834.549316,421.244873 1871.708374,420.801025 
	C1888.828003,420.596558 1903.669678,414.718018 1913.185181,399.221252 
	C1913.570190,398.594116 1914.453003,398.272522 1915.236206,397.714020 
	C1918.014160,400.356842 1920.617188,402.908508 1923.300903,405.372314 
	C1931.923584,413.288177 1941.357788,419.590759 1953.545410,420.277435 
	C1958.196289,420.539459 1962.849121,420.965485 1967.501465,420.970734 
	C2013.831909,421.022827 2060.162842,421.110413 2106.492188,420.911835 
	C2115.783203,420.871979 2125.183594,420.362823 2134.335938,418.863495 
	C2159.982422,414.662048 2180.363525,401.931854 2193.645996,379.220764 
	C2205.788574,358.458954 2208.931641,336.002014 2205.619629,312.262482 
	C2200.151367,273.066376 2174.785889,246.570206 2135.428467,241.914825 
	C2116.980225,239.732727 2098.186768,240.327179 2079.543945,240.046097 
	C2075.160645,239.980011 2073.902832,238.913727 2073.924805,234.468872 
	C2074.101807,198.471893 2074.023926,162.473648 2074.023926,126.475800 
	C2074.023926,124.737572 2074.023926,122.999336 2074.023926,121.255600 
	C2061.271240,121.255600 2049.332275,121.255600 2036.890015,121.255600 
	C2036.890015,131.416153 2036.890015,141.365097 2036.890015,151.314056 
	C2036.890015,228.476120 2036.883667,305.638184 2036.914307,382.800262 
	C2036.915527,385.806732 2037.224731,388.147827 2032.708618,388.100739 
	C2008.381104,387.847260 1984.050049,387.878662 1959.720337,387.922852 
	C1951.520752,387.937744 1943.718018,386.073700 1936.759888,382.045929 
	C1926.581543,376.154175 1919.440918,368.503113 1919.800537,355.107117 
	C1920.484619,329.626984 1919.998657,304.115448 1919.998657,278.616974 
	C1919.998657,276.853638 1919.998779,275.090302 1919.998779,272.813385 
	C1941.412964,272.813385 1962.149536,272.813385 1983.226196,272.813385 
	C1983.226196,263.157227 1983.023193,254.012619 1983.319214,244.884201 
	C1983.450073,240.851593 1982.128784,239.803070 1978.234863,239.842896 
	C1960.404541,240.025269 1942.571167,239.929794 1924.738892,239.913101 
	C1923.300049,239.911758 1921.861450,239.751801 1919.998413,239.640121 
	C1919.998413,237.628891 1919.999023,235.995163 1919.998291,234.361420 
	C1919.992798,221.695526 1920.015991,209.029556 1919.973389,196.363785 
	C1919.926392,182.392639 1917.453491,168.996033 1911.409668,156.227386 
	C1904.106445,140.797958 1892.676270,129.961517 1876.479858,124.901451 
	C1861.979736,120.371414 1847.022339,119.616501 1832.070068,123.059937 
	C1811.458496,127.806656 1795.069458,138.388153 1784.997192,157.554291 
	C1775.911865,174.842880 1775.120728,193.325043 1777.988647,212.035156 
	C1779.581177,222.423676 1783.746094,232.134827 1789.927124,240.803345 
	C1801.579468,257.145630 1817.854614,266.474426 1837.210083,269.744629 
	C1849.949219,271.896973 1863.040039,271.979980 1875.977417,272.935211 
	C1878.055908,273.088684 1880.155518,272.956757 1882.380737,272.956757 
	C1882.591431,274.671661 1882.813354,275.637115 1882.813843,276.602722 
	C1882.832520,312.267273 1882.775513,347.932007 1882.906372,383.596069 
	C1882.921631,387.736511 1880.982422,388.047455 1877.682739,388.040863 
	C1834.852173,387.955170 1792.021240,388.011658 1749.190796,387.919830 
	C1742.415527,387.905304 1735.549438,387.922211 1728.890503,386.874695 
	C1720.851196,385.610016 1713.094604,383.004425 1707.081543,376.781097 
	C1707.791382,375.435364 1708.328735,374.246613 1709.011230,373.148102 
	C1719.727417,355.899017 1726.003052,337.267853 1727.408325,316.908752 
	C1729.259277,290.092621 1724.815674,264.846649 1709.801025,242.094986 
	C1698.183472,224.490509 1682.618530,211.490250 1662.686768,204.445602 
	C1640.276978,196.525131 1617.356689,194.832458 1593.876099,199.846146 
	C1572.157471,204.483612 1553.757202,214.756287 1538.653320,230.751556 
	C1520.251709,250.239151 1510.708740,273.563110 1509.274536,300.427795 
	C1507.745972,329.056793 1513.287598,355.664307 1529.844482,379.492981 
	C1531.750977,382.236816 1533.777588,384.897217 1536.511353,388.640747 
	C1533.200806,388.640747 1531.243774,388.650940 1529.286865,388.639221 
	C1503.140747,388.482666 1476.994629,388.318817 1450.848511,388.166138 
	C1439.352173,388.098999 1427.849487,388.272003 1416.361572,387.931122 
	C1406.377686,387.634918 1396.924072,385.038422 1389.116455,378.492035 
	C1382.486816,372.933411 1377.839844,366.537201 1378.012085,356.892517 
	C1378.476074,330.902374 1378.170776,304.898468 1378.170776,278.900024 
	C1378.170776,277.129852 1378.170654,275.359711 1378.170654,273.069092 
	C1402.850830,273.069092 1426.906494,273.069092 1450.843994,273.069092 
	C1450.843994,261.966736 1450.843994,251.396347 1450.843994,240.397354 
	C1426.586304,240.397354 1402.651245,240.397354 1378.451416,240.397354 
	C1378.451416,211.410065 1378.451416,182.860443 1378.451416,153.872559 
	C1402.810059,153.872559 1426.891602,153.872559 1450.869019,153.872559 
	C1450.869019,142.698929 1450.869019,131.966095 1450.869019,121.358398 
	C1414.014893,121.358398 1377.463379,121.358398 1340.532471,121.358398 
	C1340.532471,210.469559 1340.532471,299.220093 1340.532471,387.977539 
	C1327.991455,387.977539 1315.819946,388.320282 1303.678711,387.863495 
	C1294.791626,387.529144 1286.245117,385.032806 1279.074097,379.474579 
	C1271.671997,373.736969 1266.779053,367.030060 1266.824341,356.568573 
	C1267.154663,279.907898 1267.002441,203.245132 1267.002441,126.583038 
	C1267.002441,124.810318 1267.002319,123.037598 1267.002319,121.295464 
	C1254.255859,121.295464 1242.029785,121.295464 1229.375977,121.295464 
	C1229.375977,210.327744 1229.375977,299.063141 1229.375977,387.824799 
	C1228.486938,387.984680 1228.012817,388.144440 1227.538574,388.144623 
	C1196.043335,388.157043 1164.547852,388.213379 1133.052856,388.121429 
	C1124.012207,388.095032 1115.128906,386.785248 1107.201904,382.034943 
	C1097.216553,376.051270 1090.477783,368.523438 1090.809937,355.480743 
	C1091.463257,329.832275 1091.002441,304.155365 1091.002441,278.490234 
	C1091.002441,276.752869 1091.002319,275.015503 1091.002319,273.015686 
	C1115.743164,273.015686 1139.681763,273.015686 1163.809692,273.015686 
	C1163.809692,262.146820 1163.809692,251.551132 1163.809692,240.538635 
	C1139.570435,240.538635 1115.483398,240.538635 1091.215332,240.538635 
	C1091.215332,211.538208 1091.215332,182.954315 1091.215332,153.970215 
	C1115.498047,153.970215 1139.571655,153.970215 1163.783691,153.970215 
	C1163.783691,142.830688 1163.783691,132.092331 1163.783691,121.244461 
	C1126.999512,121.244461 1090.434204,121.244461 1053.455078,121.244461 
	C1053.455078,210.236893 1053.455078,298.983582 1053.455078,387.978180 
	C1052.090454,388.054962 1051.123901,388.159515 1050.157471,388.156403 
	C1025.661499,388.076935 1001.165527,387.930054 976.669556,387.928925 
	C968.474792,387.928558 960.680054,386.117950 953.690369,382.117096 
	C943.465942,376.264587 936.314392,368.653595 936.671021,355.256348 
	C937.344849,329.942474 936.865784,304.597870 936.865845,279.266052 
	C936.865845,277.315491 936.865906,275.364929 936.865906,272.891174 
	C958.140198,272.891174 978.867981,272.891174 1000.033447,272.891174 
	C1000.033447,263.409821 999.797363,254.444077 1000.135132,245.500000 
	C1000.298889,241.164261 999.187622,239.745895 994.654114,239.815918 
	C977.492554,240.080917 960.324524,239.922577 943.158875,239.922592 
	C941.219177,239.922607 939.279419,239.922592 936.865784,239.922592 
	C936.865784,237.574707 936.865845,235.774033 936.865723,233.973343 
	C936.864868,221.974060 936.904480,209.974594 936.851562,197.975540 
	C936.797607,185.750702 935.310852,173.742752 930.881104,162.250839 
	C923.502014,143.107742 910.668274,129.386780 890.517944,124.035202 
	C876.215027,120.236595 861.532349,119.671158 847.000244,123.399933 
	C833.197021,126.941673 820.485474,132.936905 811.221069,143.986328 
	C790.319092,168.915527 788.373657,197.574692 799.244690,226.624634 
	C809.305054,253.508209 831.467651,266.903564 859.239685,270.742126 
	C871.072388,272.377594 883.139832,272.444641 895.113281,272.851654 
	C898.706177,272.973785 899.629700,274.175446 899.622131,277.521606 
	C899.542969,312.686005 899.533813,347.850739 899.632080,383.015045 
	C899.642822,386.858856 898.496826,388.104095 894.481018,388.085266 
	C859.650513,387.921722 824.818909,387.986511 789.987671,387.992126 
	C783.995544,387.993073 778.003479,388.035400 771.085754,387.896210 
	C745.763367,387.891327 720.438843,388.076874 695.119385,387.803619 
	C681.886292,387.660828 670.418396,382.883514 661.738342,372.471283 
	C658.572021,368.673096 656.816528,364.510986 656.874817,359.299103 
	C657.098328,339.309174 656.962891,319.315216 656.966797,299.322784 
	C656.968079,292.663849 657.009399,292.881470 663.836121,291.817352 
	C670.882263,290.719086 677.964539,289.550629 684.836853,287.694153 
	C707.675476,281.524536 725.748535,268.798584 737.508301,247.917557 
	C748.629700,228.170029 750.186340,206.989716 744.857056,185.507339 
	C739.687195,164.667465 727.843384,148.178513 708.846985,137.302231 
	C694.024109,128.815430 678.150574,124.345581 661.134094,122.510406 
	C640.712402,120.307983 620.539856,120.943771 600.553223,125.121994 
	C583.034058,128.784378 566.773804,135.827591 553.834961,148.511047 
	C534.112732,167.844040 526.438171,191.569122 529.981262,218.989944 
	C533.798706,248.534027 549.657288,269.191406 576.235413,281.901367 
	C588.051147,287.551788 600.729004,290.241882 613.643250,291.989349 
	C616.556458,292.383514 619.885559,291.905334 619.846436,297.005035 
	C619.624084,325.992340 619.676208,354.982574 619.820801,383.970886 
	C619.838501,387.511475 618.516357,388.094757 615.429993,388.049805 
	C604.936157,387.896881 594.438782,387.982666 583.942749,387.990448 
	C558.291382,388.009430 532.639954,388.035767 506.068268,387.867950 
	C491.742889,387.879242 477.382843,388.488403 463.106201,387.660065 
	C455.496643,387.218567 447.456848,385.489044 440.631927,382.213928 
	C429.693787,376.964996 422.522064,368.674255 422.877228,354.886505 
	C423.533356,329.414673 423.064880,303.913940 423.064911,278.425232 
	C423.064911,276.686646 423.064880,274.948059 423.064880,272.691559 
	C444.646973,272.691559 465.370819,272.691559 486.337280,272.691559 
	C486.337280,263.195038 486.122864,254.214661 486.433167,245.252472 
	C486.575409,241.144226 485.491943,239.778992 481.223877,239.831497 
	C463.234558,240.052811 445.240326,239.850235 427.249542,240.000168 
	C423.953766,240.027649 422.883179,239.067047 422.997620,235.767975 
	C423.222778,229.278656 423.278351,222.767517 423.020386,216.280670 
	C422.479065,202.667068 422.655029,188.926193 420.746613,175.491837 
	C418.577789,160.224335 411.791351,146.498520 399.782867,136.312988 
	C381.753845,121.020866 360.440216,118.726814 338.133362,122.752792 
	C307.515930,128.278656 287.914703,146.031433 281.538025,176.810974 
	C277.716705,195.256104 278.979065,213.550903 287.353943,230.851761 
	C297.858154,252.551300 315.762665,265.057983 338.829468,269.414581 
	C352.469116,271.990723 366.608215,272.057373 380.546051,272.833038 
	C384.445648,273.050049 386.038055,273.644745 386.015869,278.030487 
	C385.838776,313.014099 385.860168,347.999176 385.997070,382.983154 
	C386.012482,386.909027 384.951172,388.110870 380.932983,388.081451 
	C356.278595,387.900909 331.622192,387.982086 306.966461,387.993225 
	C289.981567,388.000885 272.996643,388.036133 255.086258,387.895477 
M1313.323486,74.184547 
	C1316.710571,77.804077 1320.097656,81.423607 1323.746460,85.322708 
	C1330.864502,77.748383 1337.771851,70.398216 1345.251343,62.439304 
	C1333.307007,51.436893 1321.019165,39.990376 1308.588013,28.701590 
	C1295.183960,16.529325 1270.814697,13.716010 1253.666626,28.524553 
	C1245.485229,35.589714 1236.928833,42.252731 1228.236084,48.684120 
	C1219.605347,55.069489 1214.683350,54.838600 1206.458252,47.776802 
	C1200.276367,42.469318 1194.597412,36.578407 1188.655518,30.988842 
	C1184.205078,26.802393 1179.692505,22.682190 1174.969971,18.312693 
	C1168.326660,25.190098 1161.394897,32.366119 1155.685181,38.276989 
	C1164.775024,48.145237 1173.906738,58.263611 1183.300049,68.132889 
	C1186.143311,71.120140 1189.682495,73.454292 1192.952515,76.024513 
	C1206.516846,86.686127 1229.667969,88.432259 1245.072388,74.897774 
	C1253.437012,67.548576 1262.291748,60.708359 1271.303955,54.159523 
	C1279.767578,48.009373 1284.713257,48.145065 1292.819702,54.882977 
	C1299.843628,60.721134 1306.188843,67.375725 1313.323486,74.184547 
M1571.412109,119.899902 
	C1573.465454,118.209351 1575.427002,116.389778 1577.588745,114.851540 
	C1585.125244,109.488930 1589.588257,109.445747 1597.126587,114.620155 
	C1599.590454,116.311401 1601.949463,118.161057 1604.304199,120.004837 
	C1612.161865,126.157387 1619.702759,132.765488 1627.903442,138.418030 
	C1642.571411,148.528534 1658.700806,149.033295 1672.707153,138.842407 
	C1688.011108,127.707253 1701.391357,113.928200 1714.499634,102.287773 
	C1706.669800,93.945152 1699.791138,86.615913 1692.919678,79.294456 
	C1691.572632,80.631432 1690.290527,81.927094 1688.983521,83.196983 
	C1679.916504,92.006828 1671.162109,101.173386 1661.671509,109.500954 
	C1654.324219,115.948090 1649.262329,115.865639 1641.536743,110.134552 
	C1632.323975,103.300240 1623.211792,96.279266 1614.536255,88.783379 
	C1599.574097,75.856049 1576.456177,77.073090 1563.789307,87.746826 
	C1549.951416,99.407166 1536.719482,111.786591 1523.956299,123.197456 
	C1531.512207,131.238419 1538.420898,138.590561 1544.885254,145.469940 
	C1553.644653,137.012878 1562.263672,128.691345 1571.412109,119.899902 
z"/>
<path fill="#020202" opacity="1.000000" stroke="none" 
	d="
M772.011353,388.058594 
	C778.003479,388.035400 783.995544,387.993073 789.987671,387.992126 
	C824.818909,387.986511 859.650513,387.921722 894.481018,388.085266 
	C898.496826,388.104095 899.642822,386.858856 899.632080,383.015045 
	C899.533813,347.850739 899.542969,312.686005 899.622131,277.521606 
	C899.629700,274.175446 898.706177,272.973785 895.113281,272.851654 
	C883.139832,272.444641 871.072388,272.377594 859.239685,270.742126 
	C831.467651,266.903564 809.305054,253.508209 799.244690,226.624634 
	C788.373657,197.574692 790.319092,168.915527 811.221069,143.986328 
	C820.485474,132.936905 833.197021,126.941673 847.000244,123.399933 
	C861.532349,119.671158 876.215027,120.236595 890.517944,124.035202 
	C910.668274,129.386780 923.502014,143.107742 930.881104,162.250839 
	C935.310852,173.742752 936.797607,185.750702 936.851562,197.975540 
	C936.904480,209.974594 936.864868,221.974060 936.865723,233.973343 
	C936.865845,235.774033 936.865784,237.574707 936.865784,239.922592 
	C939.279419,239.922592 941.219177,239.922607 943.158875,239.922592 
	C960.324524,239.922577 977.492554,240.080917 994.654114,239.815918 
	C999.187622,239.745895 1000.298889,241.164261 1000.135132,245.500000 
	C999.797363,254.444077 1000.033447,263.409821 1000.033447,272.891174 
	C978.867981,272.891174 958.140198,272.891174 936.865906,272.891174 
	C936.865906,275.364929 936.865845,277.315491 936.865845,279.266052 
	C936.865784,304.597870 937.344849,329.942474 936.671021,355.256348 
	C936.314392,368.653595 943.465942,376.264587 953.690369,382.117096 
	C960.680054,386.117950 968.474792,387.928558 976.669556,387.928925 
	C1001.165527,387.930054 1025.661499,388.076935 1050.157471,388.156403 
	C1051.123901,388.159515 1052.090454,388.054962 1053.455078,387.978180 
	C1053.455078,298.983582 1053.455078,210.236893 1053.455078,121.244461 
	C1090.434204,121.244461 1126.999512,121.244461 1163.783691,121.244461 
	C1163.783691,132.092331 1163.783691,142.830688 1163.783691,153.970215 
	C1139.571655,153.970215 1115.498047,153.970215 1091.215332,153.970215 
	C1091.215332,182.954315 1091.215332,211.538208 1091.215332,240.538635 
	C1115.483398,240.538635 1139.570435,240.538635 1163.809692,240.538635 
	C1163.809692,251.551132 1163.809692,262.146820 1163.809692,273.015686 
	C1139.681763,273.015686 1115.743164,273.015686 1091.002319,273.015686 
	C1091.002319,275.015503 1091.002441,276.752869 1091.002441,278.490234 
	C1091.002441,304.155365 1091.463257,329.832275 1090.809937,355.480743 
	C1090.477783,368.523438 1097.216553,376.051270 1107.201904,382.034943 
	C1115.128906,386.785248 1124.012207,388.095032 1133.052856,388.121429 
	C1164.547852,388.213379 1196.043335,388.157043 1227.538574,388.144623 
	C1228.012817,388.144440 1228.486938,387.984680 1229.375977,387.824799 
	C1229.375977,299.063141 1229.375977,210.327744 1229.375977,121.295464 
	C1242.029785,121.295464 1254.255859,121.295464 1267.002319,121.295464 
	C1267.002319,123.037598 1267.002441,124.810318 1267.002441,126.583038 
	C1267.002441,203.245132 1267.154663,279.907898 1266.824341,356.568573 
	C1266.779053,367.030060 1271.671997,373.736969 1279.074097,379.474579 
	C1286.245117,385.032806 1294.791626,387.529144 1303.678711,387.863495 
	C1315.819946,388.320282 1327.991455,387.977539 1340.532471,387.977539 
	C1340.532471,299.220093 1340.532471,210.469559 1340.532471,121.358398 
	C1377.463379,121.358398 1414.014893,121.358398 1450.869019,121.358398 
	C1450.869019,131.966095 1450.869019,142.698929 1450.869019,153.872559 
	C1426.891602,153.872559 1402.810059,153.872559 1378.451416,153.872559 
	C1378.451416,182.860443 1378.451416,211.410065 1378.451416,240.397354 
	C1402.651245,240.397354 1426.586304,240.397354 1450.843994,240.397354 
	C1450.843994,251.396347 1450.843994,261.966736 1450.843994,273.069092 
	C1426.906494,273.069092 1402.850830,273.069092 1378.170654,273.069092 
	C1378.170654,275.359711 1378.170776,277.129852 1378.170776,278.900024 
	C1378.170776,304.898468 1378.476074,330.902374 1378.012085,356.892517 
	C1377.839844,366.537201 1382.486816,372.933411 1389.116455,378.492035 
	C1396.924072,385.038422 1406.377686,387.634918 1416.361572,387.931122 
	C1427.849487,388.272003 1439.352173,388.098999 1450.848511,388.166138 
	C1476.994629,388.318817 1503.140747,388.482666 1529.286865,388.639221 
	C1531.243774,388.650940 1533.200806,388.640747 1536.511353,388.640747 
	C1533.777588,384.897217 1531.750977,382.236816 1529.844482,379.492981 
	C1513.287598,355.664307 1507.745972,329.056793 1509.274536,300.427795 
	C1510.708740,273.563110 1520.251709,250.239151 1538.653320,230.751556 
	C1553.757202,214.756287 1572.157471,204.483612 1593.876099,199.846146 
	C1617.356689,194.832458 1640.276978,196.525131 1662.686768,204.445602 
	C1682.618530,211.490250 1698.183472,224.490509 1709.801025,242.094986 
	C1724.815674,264.846649 1729.259277,290.092621 1727.408325,316.908752 
	C1726.003052,337.267853 1719.727417,355.899017 1709.011230,373.148102 
	C1708.328735,374.246613 1707.791382,375.435364 1707.081543,376.781097 
	C1713.094604,383.004425 1720.851196,385.610016 1728.890503,386.874695 
	C1735.549438,387.922211 1742.415527,387.905304 1749.190796,387.919830 
	C1792.021240,388.011658 1834.852173,387.955170 1877.682739,388.040863 
	C1880.982422,388.047455 1882.921631,387.736511 1882.906372,383.596069 
	C1882.775513,347.932007 1882.832520,312.267273 1882.813843,276.602722 
	C1882.813354,275.637115 1882.591431,274.671661 1882.380737,272.956757 
	C1880.155518,272.956757 1878.055908,273.088684 1875.977417,272.935211 
	C1863.040039,271.979980 1849.949219,271.896973 1837.210083,269.744629 
	C1817.854614,266.474426 1801.579468,257.145630 1789.927124,240.803345 
	C1783.746094,232.134827 1779.581177,222.423676 1777.988647,212.035156 
	C1775.120728,193.325043 1775.911865,174.842880 1784.997192,157.554291 
	C1795.069458,138.388153 1811.458496,127.806656 1832.070068,123.059937 
	C1847.022339,119.616501 1861.979736,120.371414 1876.479858,124.901451 
	C1892.676270,129.961517 1904.106445,140.797958 1911.409668,156.227386 
	C1917.453491,168.996033 1919.926392,182.392639 1919.973389,196.363785 
	C1920.015991,209.029556 1919.992798,221.695526 1919.998291,234.361420 
	C1919.999023,235.995163 1919.998413,237.628891 1919.998413,239.640121 
	C1921.861450,239.751801 1923.300049,239.911758 1924.738892,239.913101 
	C1942.571167,239.929794 1960.404541,240.025269 1978.234863,239.842896 
	C1982.128784,239.803070 1983.450073,240.851593 1983.319214,244.884201 
	C1983.023193,254.012619 1983.226196,263.157227 1983.226196,272.813385 
	C1962.149536,272.813385 1941.412964,272.813385 1919.998779,272.813385 
	C1919.998779,275.090302 1919.998657,276.853638 1919.998657,278.616974 
	C1919.998657,304.115448 1920.484619,329.626984 1919.800537,355.107117 
	C1919.440918,368.503113 1926.581543,376.154175 1936.759888,382.045929 
	C1943.718018,386.073700 1951.520752,387.937744 1959.720337,387.922852 
	C1984.050049,387.878662 2008.381104,387.847260 2032.708618,388.100739 
	C2037.224731,388.147827 2036.915527,385.806732 2036.914307,382.800262 
	C2036.883667,305.638184 2036.890015,228.476120 2036.890015,151.314056 
	C2036.890015,141.365097 2036.890015,131.416153 2036.890015,121.255600 
	C2049.332275,121.255600 2061.271240,121.255600 2074.023926,121.255600 
	C2074.023926,122.999336 2074.023926,124.737572 2074.023926,126.475800 
	C2074.023926,162.473648 2074.101807,198.471893 2073.924805,234.468872 
	C2073.902832,238.913727 2075.160645,239.980011 2079.543945,240.046097 
	C2098.186768,240.327179 2116.980225,239.732727 2135.428467,241.914825 
	C2174.785889,246.570206 2200.151367,273.066376 2205.619629,312.262482 
	C2208.931641,336.002014 2205.788574,358.458954 2193.645996,379.220764 
	C2180.363525,401.931854 2159.982422,414.662048 2134.335938,418.863495 
	C2125.183594,420.362823 2115.783203,420.871979 2106.492188,420.911835 
	C2060.162842,421.110413 2013.831909,421.022827 1967.501465,420.970734 
	C1962.849121,420.965485 1958.196289,420.539459 1953.545410,420.277435 
	C1941.357788,419.590759 1931.923584,413.288177 1923.300903,405.372314 
	C1920.617188,402.908508 1918.014160,400.356842 1915.236206,397.714020 
	C1914.453003,398.272522 1913.570190,398.594116 1913.185181,399.221252 
	C1903.669678,414.718018 1888.828003,420.596558 1871.708374,420.801025 
	C1834.549316,421.244873 1797.381348,421.099060 1760.218018,420.946075 
	C1749.427368,420.901672 1738.623535,420.241089 1727.855591,419.456024 
	C1715.628174,418.564606 1706.719360,411.166962 1698.289551,403.224854 
	C1695.654175,400.741913 1693.574097,397.669525 1691.317505,394.960266 
	C1684.959351,399.251160 1679.874756,402.995697 1674.496216,406.255035 
	C1656.765991,416.999054 1637.308228,421.068268 1616.754517,421.028900 
	C1571.757324,420.942841 1526.760010,421.002533 1481.762695,421.002625 
	C1462.597168,421.002686 1443.422119,420.623810 1424.269043,421.110535 
	C1405.665161,421.583313 1390.169434,415.426788 1377.532959,401.852936 
	C1376.289307,400.516937 1374.937500,399.279816 1373.603760,398.031281 
	C1373.383789,397.825500 1372.995972,397.798950 1372.510132,397.627716 
	C1362.495972,415.140381 1346.151733,420.647369 1327.237427,420.970093 
	C1318.410034,421.120728 1309.575684,420.823853 1300.746216,420.909821 
	C1284.361328,421.069305 1273.060303,412.257568 1263.576416,400.135376 
	C1262.976318,399.368378 1262.373657,398.603394 1261.514526,397.509460 
	C1250.476929,416.866241 1232.412476,420.973297 1212.461914,420.995697 
	C1187.463379,421.023804 1162.456787,420.609802 1137.469116,421.129608 
	C1118.303345,421.528320 1102.427734,415.168365 1089.467041,401.195801 
	C1088.562256,400.220398 1087.603271,399.294067 1086.645996,398.369232 
	C1086.412720,398.143860 1086.086670,398.014740 1085.640625,397.741852 
	C1082.904053,401.100616 1080.446045,404.784210 1077.342773,407.805054 
	C1066.773071,418.093842 1053.397705,420.840179 1039.300415,420.961090 
	C1020.136292,421.125519 1000.962646,420.673126 981.806335,421.093719 
	C964.062134,421.483368 949.265625,415.578369 937.187134,402.642212 
	C935.614014,400.957367 933.832886,399.466736 931.939087,397.690094 
	C931.151184,398.313354 930.345703,398.675201 929.958130,399.297394 
	C920.366211,414.696167 905.553894,420.624023 888.422363,420.807739 
	C849.934387,421.220551 811.439331,420.970428 772.479736,420.455475 
	C772.011963,409.300049 772.011658,398.679321 772.011353,388.058594 
M1680.877075,266.700745 
	C1674.688965,254.454803 1666.593872,244.119232 1654.036377,237.581940 
	C1645.012329,232.884109 1635.617554,230.648987 1625.557007,229.619293 
	C1597.356934,226.732971 1575.746460,237.555832 1560.715454,260.940918 
	C1545.714844,284.279144 1543.985840,309.939575 1550.893311,336.280518 
	C1555.801392,354.997101 1565.876099,370.504578 1583.227783,379.867462 
	C1597.305420,387.463654 1612.632812,389.422119 1628.657227,387.490173 
	C1651.128540,384.780914 1667.359741,373.044922 1678.061035,353.781158 
	C1693.670654,325.681458 1693.226807,296.663544 1680.877075,266.700745 
M2074.022217,333.500000 
	C2074.022705,350.156708 2074.099121,366.814056 2073.960693,383.469604 
	C2073.932129,386.889435 2074.876709,388.128540 2078.468994,388.070618 
	C2092.623779,387.842529 2106.786377,388.064972 2120.940430,387.816833 
	C2137.928711,387.519012 2151.023438,379.921783 2159.617920,365.345886 
	C2168.640625,350.044189 2169.942871,333.286560 2167.175781,316.098206 
	C2165.302490,304.462250 2160.481689,294.186523 2151.626953,286.145660 
	C2141.501709,276.950928 2129.085449,273.610626 2115.846436,273.168732 
	C2103.533447,272.757690 2091.194336,273.172455 2078.875977,272.859283 
	C2074.726807,272.753845 2073.914551,274.267700 2073.948730,278.033142 
	C2074.114258,296.187500 2074.022705,314.344147 2074.022217,333.500000 
M844.697754,161.119202 
	C831.704102,171.409683 829.602966,185.589615 831.157166,200.707764 
	C832.627380,215.007919 838.915283,226.465897 852.101440,233.696594 
	C867.008667,241.871094 882.994690,239.511627 898.778442,239.876526 
	C899.098267,238.769043 899.442261,238.138687 899.437927,237.510727 
	C899.317932,220.045059 899.768433,202.545700 898.792908,185.126526 
	C898.177612,174.141724 894.301819,163.867584 883.465088,158.242203 
	C870.286804,151.401337 857.539551,152.769775 844.697754,161.119202 
M1844.118286,154.272415 
	C1834.770020,156.020279 1826.925659,160.234543 1821.218018,168.060791 
	C1813.377563,178.811905 1812.551636,191.159317 1814.720947,203.419678 
	C1818.248047,223.355927 1827.991211,233.573074 1847.284424,237.882492 
	C1857.676270,240.203690 1868.771606,239.457779 1879.558960,239.797501 
	C1880.612549,239.830673 1882.679443,237.762161 1882.679810,236.668716 
	C1882.684814,219.512085 1883.081787,202.315079 1882.027832,185.211197 
	C1881.152100,170.998245 1874.819946,159.438339 1859.846313,155.375732 
	C1855.141602,154.099228 1849.964966,154.561203 1844.118286,154.272415 
z"/>
<path fill="#C57034" opacity="1.000000" stroke="none" 
	d="
M771.548584,387.977417 
	C772.011658,398.679321 772.011963,409.300049 772.018311,420.377747 
	C746.195679,420.836517 720.365417,421.003235 694.538757,420.772339 
	C681.084839,420.652069 669.777222,414.931091 660.124268,405.768250 
	C657.506042,403.282990 654.957520,400.724213 652.259766,398.084473 
	C651.147583,399.080963 650.394531,399.515717 649.976013,400.165863 
	C640.341980,415.132568 625.552734,420.523987 608.900208,420.774933 
	C575.241699,421.282104 541.570862,420.968872 507.449890,420.465698 
	C506.992645,409.311340 506.990601,398.685211 506.988586,388.059113 
	C532.639954,388.035767 558.291382,388.009430 583.942749,387.990448 
	C594.438782,387.982666 604.936157,387.896881 615.429993,388.049805 
	C618.516357,388.094757 619.838501,387.511475 619.820801,383.970886 
	C619.676208,354.982574 619.624084,325.992340 619.846436,297.005035 
	C619.885559,291.905334 616.556458,292.383514 613.643250,291.989349 
	C600.729004,290.241882 588.051147,287.551788 576.235413,281.901367 
	C549.657288,269.191406 533.798706,248.534027 529.981262,218.989944 
	C526.438171,191.569122 534.112732,167.844040 553.834961,148.511047 
	C566.773804,135.827591 583.034058,128.784378 600.553223,125.121994 
	C620.539856,120.943771 640.712402,120.307983 661.134094,122.510406 
	C678.150574,124.345581 694.024109,128.815430 708.846985,137.302231 
	C727.843384,148.178513 739.687195,164.667465 744.857056,185.507339 
	C750.186340,206.989716 748.629700,228.170029 737.508301,247.917557 
	C725.748535,268.798584 707.675476,281.524536 684.836853,287.694153 
	C677.964539,289.550629 670.882263,290.719086 663.836121,291.817352 
	C657.009399,292.881470 656.968079,292.663849 656.966797,299.322784 
	C656.962891,319.315216 657.098328,339.309174 656.874817,359.299103 
	C656.816528,364.510986 658.572021,368.673096 661.738342,372.471283 
	C670.418396,382.883514 681.886292,387.660828 695.119385,387.803619 
	C720.438843,388.076874 745.763367,387.891327 771.548584,387.977417 
M606.201538,158.570724 
	C600.770203,161.047791 595.150635,163.184143 589.940552,166.061798 
	C569.053955,177.598114 561.975586,202.298828 569.074646,223.004578 
	C576.030396,243.292511 591.833252,253.997070 611.918030,257.698914 
	C624.370850,259.994110 637.346436,259.795013 650.099854,260.026917 
	C664.684448,260.292145 677.820435,255.352142 689.768555,247.110718 
	C710.693542,232.677368 716.635864,203.227066 703.001404,181.922089 
	C694.830139,169.153793 682.792236,161.834045 668.612427,157.970901 
	C648.100281,152.382614 627.475464,152.888245 606.201538,158.570724 
z"/>
<path fill="#010101" opacity="1.000000" stroke="none" 
	d="
M506.528442,387.963531 
	C506.990601,398.685211 506.992645,409.311340 506.984192,420.395721 
	C490.170746,420.658020 473.361786,420.672455 456.566772,420.195618 
	C444.373260,419.849457 434.974091,413.228638 426.362366,405.318420 
	C423.678467,402.853058 421.080322,400.294342 418.344879,397.684845 
	C417.573181,398.240936 416.681335,398.572723 416.289825,399.211273 
	C406.674164,414.893921 391.647705,420.651215 374.362366,420.822723 
	C335.227478,421.211090 296.086365,420.972412 256.480713,420.454346 
	C256.013031,409.299683 256.012390,398.679352 256.011749,388.059082 
	C272.996643,388.036133 289.981567,388.000885 306.966461,387.993225 
	C331.622192,387.982086 356.278595,387.900909 380.932983,388.081451 
	C384.951172,388.110870 386.012482,386.909027 385.997070,382.983154 
	C385.860168,347.999176 385.838776,313.014099 386.015869,278.030487 
	C386.038055,273.644745 384.445648,273.050049 380.546051,272.833038 
	C366.608215,272.057373 352.469116,271.990723 338.829468,269.414581 
	C315.762665,265.057983 297.858154,252.551300 287.353943,230.851761 
	C278.979065,213.550903 277.716705,195.256104 281.538025,176.810974 
	C287.914703,146.031433 307.515930,128.278656 338.133362,122.752792 
	C360.440216,118.726814 381.753845,121.020866 399.782867,136.312988 
	C411.791351,146.498520 418.577789,160.224335 420.746613,175.491837 
	C422.655029,188.926193 422.479065,202.667068 423.020386,216.280670 
	C423.278351,222.767517 423.222778,229.278656 422.997620,235.767975 
	C422.883179,239.067047 423.953766,240.027649 427.249542,240.000168 
	C445.240326,239.850235 463.234558,240.052811 481.223877,239.831497 
	C485.491943,239.778992 486.575409,241.144226 486.433167,245.252472 
	C486.122864,254.214661 486.337280,263.195038 486.337280,272.691559 
	C465.370819,272.691559 444.646973,272.691559 423.064880,272.691559 
	C423.064880,274.948059 423.064911,276.686646 423.064911,278.425232 
	C423.064880,303.913940 423.533356,329.414673 422.877228,354.886505 
	C422.522064,368.674255 429.693787,376.964996 440.631927,382.213928 
	C447.456848,385.489044 455.496643,387.218567 463.106201,387.660065 
	C477.382843,388.488403 491.742889,387.879242 506.528442,387.963531 
M318.992554,179.554977 
	C318.619720,187.951599 316.644135,196.657242 318.191711,204.683563 
	C321.970764,224.282990 331.386719,233.477570 350.143890,237.816803 
	C360.647797,240.246735 371.918060,239.442642 382.852692,239.797256 
	C383.835846,239.829163 385.774048,237.667984 385.778564,236.519455 
	C385.843079,220.053833 385.981964,203.575272 385.388580,187.125610 
	C385.068481,178.252289 382.715179,169.580505 376.156342,162.983444 
	C360.005127,146.738190 326.461609,152.518799 318.992554,179.554977 
z"/>
<path fill="#C57034" opacity="1.000000" stroke="none" 
	d="
M255.549011,387.977264 
	C256.012390,398.679352 256.013031,409.299683 256.019348,420.376892 
	C228.034119,420.889740 200.043274,420.960175 172.052383,420.996704 
	C152.389618,421.022369 132.726807,421.000916 113.064011,421.002594 
	C105.979980,421.003204 105.974998,421.005981 105.974770,414.150055 
	C105.973457,375.490997 105.974724,336.831970 105.975121,298.172913 
	C105.975136,296.692841 105.975128,295.212769 105.975128,293.223572 
	C99.800934,292.087311 93.804390,291.056458 87.838310,289.872192 
	C69.901901,286.311737 53.255898,279.868195 40.010216,266.769379 
	C19.582621,246.568222 12.120345,221.986710 16.753185,193.801819 
	C22.747198,157.335968 46.039700,136.731186 80.034172,126.930977 
	C102.201012,120.540543 124.919853,120.131264 147.870056,122.588303 
	C163.512695,124.263000 178.105637,128.384293 192.077866,135.528809 
	C221.652283,150.651291 236.258453,183.179611 233.710266,215.136444 
	C230.923294,250.087723 206.466934,278.348389 171.739670,287.520111 
	C164.213547,289.507782 156.467148,290.738464 148.764084,291.947296 
	C144.839951,292.563141 143.090546,293.865417 143.120682,298.256104 
	C143.313995,326.415894 143.290558,354.578033 143.141418,382.738373 
	C143.119217,386.931335 144.484970,388.095856 148.610397,388.075226 
	C184.101776,387.897919 219.594162,387.927582 255.549011,387.977264 
M130.237915,154.209015 
	C110.824669,153.751862 92.146652,156.186829 75.102028,166.634598 
	C55.036594,178.934052 48.888863,202.417862 55.173519,222.349655 
	C60.858841,240.380646 74.388687,250.615814 91.731689,256.241882 
	C106.543053,261.046661 121.834572,261.003113 137.209778,260.152344 
	C154.622253,259.188934 169.875946,253.528000 182.674149,241.358566 
	C204.012283,221.068771 200.043503,182.928513 175.135132,167.117172 
	C161.602341,158.526794 146.841492,155.070862 130.237915,154.209015 
z"/>
<path fill="#020202" opacity="1.000000" stroke="none" 
	d="
M1313.078857,73.927025 
	C1306.188843,67.375725 1299.843628,60.721134 1292.819702,54.882977 
	C1284.713257,48.145065 1279.767578,48.009373 1271.303955,54.159523 
	C1262.291748,60.708359 1253.437012,67.548576 1245.072388,74.897774 
	C1229.667969,88.432259 1206.516846,86.686127 1192.952515,76.024513 
	C1189.682495,73.454292 1186.143311,71.120140 1183.300049,68.132889 
	C1173.906738,58.263611 1164.775024,48.145237 1155.685181,38.276989 
	C1161.394897,32.366119 1168.326660,25.190098 1174.969971,18.312693 
	C1179.692505,22.682190 1184.205078,26.802393 1188.655518,30.988842 
	C1194.597412,36.578407 1200.276367,42.469318 1206.458252,47.776802 
	C1214.683350,54.838600 1219.605347,55.069489 1228.236084,48.684120 
	C1236.928833,42.252731 1245.485229,35.589714 1253.666626,28.524553 
	C1270.814697,13.716010 1295.183960,16.529325 1308.588013,28.701590 
	C1321.019165,39.990376 1333.307007,51.436893 1345.251343,62.439304 
	C1337.771851,70.398216 1330.864502,77.748383 1323.746460,85.322708 
	C1320.097656,81.423607 1316.710571,77.804077 1313.078857,73.927025 
z"/>
<path fill="#020202" opacity="1.000000" stroke="none" 
	d="
M1571.147461,120.134857 
	C1562.263672,128.691345 1553.644653,137.012878 1544.885254,145.469940 
	C1538.420898,138.590561 1531.512207,131.238419 1523.956299,123.197456 
	C1536.719482,111.786591 1549.951416,99.407166 1563.789307,87.746826 
	C1576.456177,77.073090 1599.574097,75.856049 1614.536255,88.783379 
	C1623.211792,96.279266 1632.323975,103.300240 1641.536743,110.134552 
	C1649.262329,115.865639 1654.324219,115.948090 1661.671509,109.500954 
	C1671.162109,101.173386 1679.916504,92.006828 1688.983521,83.196983 
	C1690.290527,81.927094 1691.572632,80.631432 1692.919678,79.294456 
	C1699.791138,86.615913 1706.669800,93.945152 1714.499634,102.287773 
	C1701.391357,113.928200 1688.011108,127.707253 1672.707153,138.842407 
	C1658.700806,149.033295 1642.571411,148.528534 1627.903442,138.418030 
	C1619.702759,132.765488 1612.161865,126.157387 1604.304199,120.004837 
	C1601.949463,118.161057 1599.590454,116.311401 1597.126587,114.620155 
	C1589.588257,109.445747 1585.125244,109.488930 1577.588745,114.851540 
	C1575.427002,116.389778 1573.465454,118.209351 1571.147461,120.134857 
z"/>
<path fill="#FEFEFE" opacity="1.000000" stroke="none" 
	d="
M1681.028320,267.046997 
	C1693.226807,296.663544 1693.670654,325.681458 1678.061035,353.781158 
	C1667.359741,373.044922 1651.128540,384.780914 1628.657227,387.490173 
	C1612.632812,389.422119 1597.305420,387.463654 1583.227783,379.867462 
	C1565.876099,370.504578 1555.801392,354.997101 1550.893311,336.280518 
	C1543.985840,309.939575 1545.714844,284.279144 1560.715454,260.940918 
	C1575.746460,237.555832 1597.356934,226.732971 1625.557007,229.619293 
	C1635.617554,230.648987 1645.012329,232.884109 1654.036377,237.581940 
	C1666.593872,244.119232 1674.688965,254.454803 1681.028320,267.046997 
z"/>
<path fill="#FEFEFE" opacity="1.000000" stroke="none" 
	d="
M2074.022217,333.000000 
	C2074.022705,314.344147 2074.114258,296.187500 2073.948730,278.033142 
	C2073.914551,274.267700 2074.726807,272.753845 2078.875977,272.859283 
	C2091.194336,273.172455 2103.533447,272.757690 2115.846436,273.168732 
	C2129.085449,273.610626 2141.501709,276.950928 2151.626953,286.145660 
	C2160.481689,294.186523 2165.302490,304.462250 2167.175781,316.098206 
	C2169.942871,333.286560 2168.640625,350.044189 2159.617920,365.345886 
	C2151.023438,379.921783 2137.928711,387.519012 2120.940430,387.816833 
	C2106.786377,388.064972 2092.623779,387.842529 2078.468994,388.070618 
	C2074.876709,388.128540 2073.932129,386.889435 2073.960693,383.469604 
	C2074.099121,366.814056 2074.022705,350.156708 2074.022217,333.000000 
z"/>
<path fill="#FCFCFC" opacity="1.000000" stroke="none" 
	d="
M844.969666,160.879379 
	C857.539551,152.769775 870.286804,151.401337 883.465088,158.242203 
	C894.301819,163.867584 898.177612,174.141724 898.792908,185.126526 
	C899.768433,202.545700 899.317932,220.045059 899.437927,237.510727 
	C899.442261,238.138687 899.098267,238.769043 898.778442,239.876526 
	C882.994690,239.511627 867.008667,241.871094 852.101440,233.696594 
	C838.915283,226.465897 832.627380,215.007919 831.157166,200.707764 
	C829.602966,185.589615 831.704102,171.409683 844.969666,160.879379 
z"/>
<path fill="#FDFDFD" opacity="1.000000" stroke="none" 
	d="
M1844.561279,154.249954 
	C1849.964966,154.561203 1855.141602,154.099228 1859.846313,155.375732 
	C1874.819946,159.438339 1881.152100,170.998245 1882.027832,185.211197 
	C1883.081787,202.315079 1882.684814,219.512085 1882.679810,236.668716 
	C1882.679443,237.762161 1880.612549,239.830673 1879.558960,239.797501 
	C1868.771606,239.457779 1857.676270,240.203690 1847.284424,237.882492 
	C1827.991211,233.573074 1818.248047,223.355927 1814.720947,203.419678 
	C1812.551636,191.159317 1813.377563,178.811905 1821.218018,168.060791 
	C1826.925659,160.234543 1834.770020,156.020279 1844.561279,154.249954 
z"/>
<path fill="#FFFEFE" opacity="1.000000" stroke="none" 
	d="
M606.572510,158.416504 
	C627.475464,152.888245 648.100281,152.382614 668.612427,157.970901 
	C682.792236,161.834045 694.830139,169.153793 703.001404,181.922089 
	C716.635864,203.227066 710.693542,232.677368 689.768555,247.110718 
	C677.820435,255.352142 664.684448,260.292145 650.099854,260.026917 
	C637.346436,259.795013 624.370850,259.994110 611.918030,257.698914 
	C591.833252,253.997070 576.030396,243.292511 569.074646,223.004578 
	C561.975586,202.298828 569.053955,177.598114 589.940552,166.061798 
	C595.150635,163.184143 600.770203,161.047791 606.572510,158.416504 
z"/>
<path fill="#FDFDFD" opacity="1.000000" stroke="none" 
	d="
M319.054260,179.154968 
	C326.461609,152.518799 360.005127,146.738190 376.156342,162.983444 
	C382.715179,169.580505 385.068481,178.252289 385.388580,187.125610 
	C385.981964,203.575272 385.843079,220.053833 385.778564,236.519455 
	C385.774048,237.667984 383.835846,239.829163 382.852692,239.797256 
	C371.918060,239.442642 360.647797,240.246735 350.143890,237.816803 
	C331.386719,233.477570 321.970764,224.282990 318.191711,204.683563 
	C316.644135,196.657242 318.619720,187.951599 319.054260,179.154968 
z"/>
<path fill="#FFFEFE" opacity="1.000000" stroke="none" 
	d="
M130.706512,154.227448 
	C146.841492,155.070862 161.602341,158.526794 175.135132,167.117172 
	C200.043503,182.928513 204.012283,221.068771 182.674149,241.358566 
	C169.875946,253.528000 154.622253,259.188934 137.209778,260.152344 
	C121.834572,261.003113 106.543053,261.046661 91.731689,256.241882 
	C74.388687,250.615814 60.858841,240.380646 55.173519,222.349655 
	C48.888863,202.417862 55.036594,178.934052 75.102028,166.634598 
	C92.146652,156.186829 110.824669,153.751862 130.706512,154.227448 
z"/>
</svg>