<svg version="1.1" id="Layer_1" xmlns="http://www.w3.org/2000/svg" xmlns:xlink="http://www.w3.org/1999/xlink" x="0px" y="0px"
	 width="100%" viewBox="0 0 916 616" enable-background="new 0 0 916 616" xml:space="preserve">
<path fill="#FFFFFF" opacity="1.000000" stroke="none" 
	d="
M580.000000,617.000000 
	C386.666656,617.000000 193.833328,617.000000 1.000000,617.000000 
	C1.000000,411.666656 1.000000,206.333328 1.000000,1.000000 
	C306.333344,1.000000 611.666687,1.000000 917.000000,1.000000 
	C917.000000,206.333328 917.000000,411.666656 917.000000,617.000000 
	C804.833313,617.000000 692.666687,617.000000 580.000000,617.000000 
M535.539795,582.123291 
	C547.306702,576.375610 556.304688,567.665894 562.286743,556.549011 
	C570.513611,563.744446 577.923157,571.263123 586.355286,577.369995 
	C601.018250,587.989441 618.286316,589.956543 635.838379,589.988953 
	C662.504028,590.038147 689.171143,590.145081 715.834778,589.909973 
	C723.284241,589.844238 730.856812,589.321655 738.140015,587.853455 
	C752.893311,584.879272 765.952942,578.590454 775.855957,566.589172 
	C787.782471,552.135742 790.770020,535.048401 790.785034,517.181946 
	C790.883118,400.519470 790.835449,283.856873 790.835449,167.194305 
	C790.835449,165.438873 790.835449,163.683441 790.835449,161.766266 
	C772.594543,161.766266 755.008850,161.766266 737.049988,161.766266 
	C737.049988,288.964111 737.049988,415.885345 737.049988,542.696289 
	C736.385132,542.924500 736.088562,543.115784 735.792175,543.115295 
	C698.465942,543.059326 661.130798,543.440491 623.817749,542.703979 
	C608.258240,542.396912 593.651733,537.440002 582.250122,525.845825 
	C574.848267,518.318970 570.041870,510.221405 570.247131,498.630585 
	C570.926025,460.310608 570.500061,421.971161 570.513123,383.639160 
	C570.513733,381.893280 570.659851,380.147430 570.749756,378.143646 
	C600.966492,378.143646 630.746765,378.143646 660.672119,378.143646 
	C660.672119,362.493195 660.672119,347.134094 660.672119,331.230530 
	C630.456970,331.230530 600.568237,331.230530 570.503174,331.230530 
	C570.503174,311.193420 570.594543,291.701813 570.473633,272.211548 
	C570.380554,257.197540 569.428345,242.270706 564.942627,227.776443 
	C555.787048,198.192795 537.585022,176.998795 507.709564,167.236984 
	C483.950348,159.473679 459.869537,159.763229 435.895966,166.679550 
	C415.964294,172.429810 399.042053,182.929398 386.642212,199.759186 
	C365.131073,228.955399 361.377380,261.748749 368.568481,296.288910 
	C375.243866,328.352020 394.309082,350.889191 423.677277,364.805450 
	C441.694885,373.343170 461.026031,376.811462 480.750854,377.816040 
	C492.670135,378.423096 504.645599,377.927826 516.756104,377.927826 
	C516.756104,433.379028 516.756104,488.117920 516.756104,543.164368 
	C515.551208,543.164368 514.586182,543.164368 513.621094,543.164368 
	C462.456238,543.164368 411.291229,543.222534 360.126617,543.112732 
	C350.475128,543.092041 340.754700,543.007629 331.189270,541.894287 
	C312.132355,539.676208 296.732605,531.121826 287.363586,513.672729 
	C286.164490,511.439484 285.481354,508.636688 285.477936,506.096527 
	C285.379639,433.099243 285.366333,360.101746 285.489594,287.104523 
	C285.496124,283.226654 284.665009,281.833893 280.589752,281.895782 
	C266.426849,282.110809 252.255753,282.141937 238.094131,281.888062 
	C233.331451,281.802643 231.825043,283.261719 231.832809,288.120056 
	C231.965897,371.283600 231.887817,454.447449 232.040527,537.610962 
	C232.048767,542.100098 230.890228,543.121765 226.514572,543.104919 
	C182.683441,542.936401 138.851013,542.919922 95.020096,543.116638 
	C90.048111,543.138916 88.474792,541.988159 88.484619,536.805542 
	C88.642296,453.642059 88.560196,370.478180 88.699715,287.314667 
	C88.706963,282.996429 87.372925,281.859039 83.317772,281.912170 
	C69.820564,282.089081 56.319599,281.976013 42.820076,281.978790 
	C35.152679,281.980377 35.146317,281.984497 35.146194,289.704102 
	C35.144676,386.534027 35.145123,483.363983 35.145103,580.193909 
	C35.145103,590.002136 35.145241,590.006653 44.897823,590.001526 
	C102.062119,589.971375 159.227493,590.117859 216.389938,589.777649 
	C230.116623,589.696045 243.394257,586.537842 255.382111,579.150146 
	C264.179352,573.728760 271.361328,566.804688 276.747314,556.994873 
	C278.662750,559.142822 280.254211,560.728699 281.620026,562.489624 
	C296.022156,581.058167 314.542480,590.357178 338.448517,590.145386 
	C391.109161,589.678589 443.776794,589.997192 496.441589,590.004395 
	C509.745178,590.006226 522.633667,587.947937 535.539795,582.123291 
M721.435364,59.867104 
	C726.012451,61.617977 731.262146,62.465656 735.045227,65.282776 
	C748.354309,75.193565 761.151672,85.790749 774.157532,96.109337 
	C794.428345,112.191628 819.521545,113.773766 841.541687,100.492264 
	C865.301147,86.161667 881.800964,63.977051 901.571655,45.897217 
	C891.472534,35.601379 881.724670,25.663591 871.613403,15.355376 
	C868.316284,18.838085 865.283020,22.335451 861.946228,25.514231 
	C849.554932,37.318859 837.485718,49.515331 824.460266,60.581558 
	C815.902466,67.852196 807.915771,67.513397 798.879578,60.769230 
	C785.849609,51.044342 773.282288,40.698864 760.534790,30.596596 
	C752.135071,23.939985 743.273621,18.322783 732.379883,16.598856 
	C711.801941,13.342415 694.151550,20.143850 679.007507,33.276672 
	C665.569702,44.929909 653.139954,57.745224 640.258362,70.040512 
	C636.922180,73.224937 633.560547,76.382820 630.591980,79.192009 
	C640.820862,89.733955 650.524170,99.734184 660.452759,109.966675 
	C661.796509,108.520226 662.870911,107.258476 664.053040,106.107277 
	C677.632141,92.882736 691.084534,79.522430 704.905029,66.554672 
	C709.109009,62.610054 714.245422,59.534863 721.435364,59.867104 
M25.399776,76.902390 
	C24.120926,77.946609 22.842073,78.990829 22.422546,79.333382 
	C32.558239,89.903076 42.303772,100.065903 52.203770,110.389801 
	C53.303196,109.240311 54.179516,108.263695 55.118412,107.351494 
	C69.073227,93.793549 82.657654,79.822166 97.127197,66.837273 
	C107.198151,57.799644 115.969803,57.795216 126.885361,65.924751 
	C140.047272,75.727295 152.748947,86.157074 165.495804,96.505104 
	C178.569641,107.118584 193.156693,111.689934 210.026489,109.359055 
	C225.184311,107.264725 237.691772,99.903572 248.547058,89.923012 
	C263.492279,76.182076 277.702362,61.641457 292.213470,47.429176 
	C292.663696,46.988228 292.959351,46.389507 292.725830,46.723034 
	C282.691864,36.361385 272.923248,26.273743 265.196960,18.295156 
	C254.204193,28.133802 243.333923,37.974335 232.330917,47.664116 
	C226.723495,52.602280 221.061020,57.513657 215.093796,61.998562 
	C207.389008,67.789406 199.040939,67.640076 191.477646,62.042435 
	C179.747711,53.361042 168.468170,44.071255 156.993805,35.044319 
	C148.129700,28.070877 139.499725,20.610769 128.098038,18.046925 
	C105.839783,13.041813 86.496231,19.770237 69.994781,34.369709 
	C54.797157,47.815636 40.560856,62.348110 25.399776,76.902390 
z"/>
<path fill="#020202" opacity="1.000000" stroke="none" 
	d="
M535.185974,582.257996 
	C522.633667,587.947937 509.745178,590.006226 496.441589,590.004395 
	C443.776794,589.997192 391.109161,589.678589 338.448517,590.145386 
	C314.542480,590.357178 296.022156,581.058167 281.620026,562.489624 
	C280.254211,560.728699 278.662750,559.142822 276.747314,556.994873 
	C271.361328,566.804688 264.179352,573.728760 255.382111,579.150146 
	C243.394257,586.537842 230.116623,589.696045 216.389938,589.777649 
	C159.227493,590.117859 102.062119,589.971375 44.897823,590.001526 
	C35.145241,590.006653 35.145103,590.002136 35.145103,580.193909 
	C35.145123,483.363983 35.144676,386.534027 35.146194,289.704102 
	C35.146317,281.984497 35.152679,281.980377 42.820076,281.978790 
	C56.319599,281.976013 69.820564,282.089081 83.317772,281.912170 
	C87.372925,281.859039 88.706963,282.996429 88.699715,287.314667 
	C88.560196,370.478180 88.642296,453.642059 88.484619,536.805542 
	C88.474792,541.988159 90.048111,543.138916 95.020096,543.116638 
	C138.851013,542.919922 182.683441,542.936401 226.514572,543.104919 
	C230.890228,543.121765 232.048767,542.100098 232.040527,537.610962 
	C231.887817,454.447449 231.965897,371.283600 231.832809,288.120056 
	C231.825043,283.261719 233.331451,281.802643 238.094131,281.888062 
	C252.255753,282.141937 266.426849,282.110809 280.589752,281.895782 
	C284.665009,281.833893 285.496124,283.226654 285.489594,287.104523 
	C285.366333,360.101746 285.379639,433.099243 285.477936,506.096527 
	C285.481354,508.636688 286.164490,511.439484 287.363586,513.672729 
	C296.732605,531.121826 312.132355,539.676208 331.189270,541.894287 
	C340.754700,543.007629 350.475128,543.092041 360.126617,543.112732 
	C411.291229,543.222534 462.456238,543.164368 513.621094,543.164368 
	C514.586182,543.164368 515.551208,543.164368 516.756104,543.164368 
	C516.756104,488.117920 516.756104,433.379028 516.756104,377.927826 
	C504.645599,377.927826 492.670135,378.423096 480.750854,377.816040 
	C461.026031,376.811462 441.694885,373.343170 423.677277,364.805450 
	C394.309082,350.889191 375.243866,328.352020 368.568481,296.288910 
	C361.377380,261.748749 365.131073,228.955399 386.642212,199.759186 
	C399.042053,182.929398 415.964294,172.429810 435.895966,166.679550 
	C459.869537,159.763229 483.950348,159.473679 507.709564,167.236984 
	C537.585022,176.998795 555.787048,198.192795 564.942627,227.776443 
	C569.428345,242.270706 570.380554,257.197540 570.473633,272.211548 
	C570.594543,291.701813 570.503174,311.193420 570.503174,331.230530 
	C600.568237,331.230530 630.456970,331.230530 660.672119,331.230530 
	C660.672119,347.134094 660.672119,362.493195 660.672119,378.143646 
	C630.746765,378.143646 600.966492,378.143646 570.749756,378.143646 
	C570.659851,380.147430 570.513733,381.893280 570.513123,383.639160 
	C570.500061,421.971161 570.926025,460.310608 570.247131,498.630585 
	C570.041870,510.221405 574.848267,518.318970 582.250122,525.845825 
	C593.651733,537.440002 608.258240,542.396912 623.817749,542.703979 
	C661.130798,543.440491 698.465942,543.059326 735.792175,543.115295 
	C736.088562,543.115784 736.385132,542.924500 737.049988,542.696289 
	C737.049988,415.885345 737.049988,288.964111 737.049988,161.766266 
	C755.008850,161.766266 772.594543,161.766266 790.835449,161.766266 
	C790.835449,163.683441 790.835449,165.438873 790.835449,167.194305 
	C790.835449,283.856873 790.883118,400.519470 790.785034,517.181946 
	C790.770020,535.048401 787.782471,552.135742 775.855957,566.589172 
	C765.952942,578.590454 752.893311,584.879272 738.140015,587.853455 
	C730.856812,589.321655 723.284241,589.844238 715.834778,589.909973 
	C689.171143,590.145081 662.504028,590.038147 635.838379,589.988953 
	C618.286316,589.956543 601.018250,587.989441 586.355286,577.369995 
	C577.923157,571.263123 570.513611,563.744446 562.286743,556.549011 
	C556.304688,567.665894 547.306702,576.375610 535.185974,582.257996 
M466.610352,208.749344 
	C447.560791,209.837418 433.425385,218.528046 424.898895,235.809082 
	C419.027893,247.708084 418.322998,260.456268 419.062317,273.375305 
	C420.623474,300.656555 436.634186,320.197235 462.960388,327.466553 
	C480.585846,332.333374 498.576355,331.332703 516.999268,331.503815 
	C516.999268,321.825470 517.111877,312.360321 516.974915,302.898743 
	C516.717102,285.092804 516.904663,267.251251 515.767944,249.497406 
	C514.998718,237.483398 510.354126,226.619324 500.691498,218.440399 
	C491.029236,210.261765 479.741089,208.117172 466.610352,208.749344 
z"/>
<path fill="#C46F34" opacity="1.000000" stroke="none" 
	d="
M720.991394,59.858040 
	C714.245422,59.534863 709.109009,62.610054 704.905029,66.554672 
	C691.084534,79.522430 677.632141,92.882736 664.053040,106.107277 
	C662.870911,107.258476 661.796509,108.520226 660.452759,109.966675 
	C650.524170,99.734184 640.820862,89.733955 630.591980,79.192009 
	C633.560547,76.382820 636.922180,73.224937 640.258362,70.040512 
	C653.139954,57.745224 665.569702,44.929909 679.007507,33.276672 
	C694.151550,20.143850 711.801941,13.342415 732.379883,16.598856 
	C743.273621,18.322783 752.135071,23.939985 760.534790,30.596596 
	C773.282288,40.698864 785.849609,51.044342 798.879578,60.769230 
	C807.915771,67.513397 815.902466,67.852196 824.460266,60.581558 
	C837.485718,49.515331 849.554932,37.318859 861.946228,25.514231 
	C865.283020,22.335451 868.316284,18.838085 871.613403,15.355376 
	C881.724670,25.663591 891.472534,35.601379 901.571655,45.897217 
	C881.800964,63.977051 865.301147,86.161667 841.541687,100.492264 
	C819.521545,113.773766 794.428345,112.191628 774.157532,96.109337 
	C761.151672,85.790749 748.354309,75.193565 735.045227,65.282776 
	C731.262146,62.465656 726.012451,61.617977 720.991394,59.858040 
z"/>
<path fill="#C46F33" opacity="1.000000" stroke="none" 
	d="
M25.650433,76.652176 
	C40.560856,62.348110 54.797157,47.815636 69.994781,34.369709 
	C86.496231,19.770237 105.839783,13.041813 128.098038,18.046925 
	C139.499725,20.610769 148.129700,28.070877 156.993805,35.044319 
	C168.468170,44.071255 179.747711,53.361042 191.477646,62.042435 
	C199.040939,67.640076 207.389008,67.789406 215.093796,61.998562 
	C221.061020,57.513657 226.723495,52.602280 232.330917,47.664116 
	C243.333923,37.974335 254.204193,28.133802 265.196960,18.295156 
	C272.923248,26.273743 282.691864,36.361385 292.725830,46.723034 
	C292.959351,46.389507 292.663696,46.988228 292.213470,47.429176 
	C277.702362,61.641457 263.492279,76.182076 248.547058,89.923012 
	C237.691772,99.903572 225.184311,107.264725 210.026489,109.359055 
	C193.156693,111.689934 178.569641,107.118584 165.495804,96.505104 
	C152.748947,86.157074 140.047272,75.727295 126.885361,65.924751 
	C115.969803,57.795216 107.198151,57.799644 97.127197,66.837273 
	C82.657654,79.822166 69.073227,93.793549 55.118412,107.351494 
	C54.179516,108.263695 53.303196,109.240311 52.203770,110.389801 
	C42.303772,100.065903 32.558239,89.903076 22.422546,79.333382 
	C22.842073,78.990829 24.120926,77.946609 25.650433,76.652176 
z"/>
<path fill="#FEFEFE" opacity="1.000000" stroke="none" 
	d="
M467.094574,208.722076 
	C479.741089,208.117172 491.029236,210.261765 500.691498,218.440399 
	C510.354126,226.619324 514.998718,237.483398 515.767944,249.497406 
	C516.904663,267.251251 516.717102,285.092804 516.974915,302.898743 
	C517.111877,312.360321 516.999268,321.825470 516.999268,331.503815 
	C498.576355,331.332703 480.585846,332.333374 462.960388,327.466553 
	C436.634186,320.197235 420.623474,300.656555 419.062317,273.375305 
	C418.322998,260.456268 419.027893,247.708084 424.898895,235.809082 
	C433.425385,218.528046 447.560791,209.837418 467.094574,208.722076 
z"/>
</svg>