<svg enable-background="new 0 0 1024 368" viewBox="0 0 1024 368" xmlns="http://www.w3.org/2000/svg"><path d="m134.468658 369c-2.512115-11.070251-.020935-15.889343 10.683381-19.192322 22.389663-6.908722 41.287994-19.762573 59.408081-34.029022 4.32788-3.407471 8.558807-6.919525 14.064849-8.287659 4.791749-1.190643 9.364014-.892944 12.899537 2.950409 2.908477 3.161713 2.910339 9.459351.21936 14.140747-3.744324 6.513794-9.533707 11.048951-15.426865 15.418946-14.736786 10.927978-30.380447 20.383209-47.062332 28.772735-11.608902.226166-22.963119.226166-34.786011.226166z"/><path d="m610.181519 189.35788c-5.27826-.746872-8.350586 1.448303-11.452454 5.113617-21.715698 25.660446-44.866272 49.769363-74.652222 66.388031-7.155822 3.992492-14.509613 7.538208-22.50888 9.430267-10.707337 2.532593-19.403931-1.751831-21.799775-10.47522-3.061309-11.146347.802735-18.781875 12.226777-22.432419 33.010589-10.548568 59.973297-29.947815 82.719024-55.674621.973633-1.101258 1.85022-2.2883 2.716797-3.366623-11.770569-17.634369 1.881165-35.582688 22.14386-36.623535 11.993896-.616074 21.904907 3.601013 29.128235 13.301864 1.912353 2.568314 3.69873 2.723923 6.366699 1.668122 4.95575-1.961167 8.840149-5.262818 12.270386-9.198746 2.954956-3.390518 5.763489-6.909821 9.226196-9.828674 3.967651-3.344483 8.4021-3.846207 13.102539-2.052658 4.641663 1.771087 6.151062 5.680557 6.673584 10.258956.573975 5.029236.421143 10.021607-1.230469 14.789261-1.443359 4.16655.460144 5.033112 4.00055 5.03804 5.208252.007233 9.224792-2.650436 12.906006-5.834442 6.841491-5.917556 12.266662-13.135803 18.008361-20.062805 2.011658-2.426941 4.1568-4.794449 6.526917-6.861282 3.720459-3.244385 8.08136-3.744675 12.638-1.924179 4.570923 1.826187 5.656372 5.928283 5.970093 10.170913.470337 6.359925-1.768921 12.153244-4.69458 17.639862-11.841919 22.207352-37.848816 35.667527-62.679871 32.504334-5.881958-.749298-11.318664-2.9142-16.278137-6.035812-2.981567-1.876709-5.656616-2.003815-8.93219-.969178-10.370727 3.275803-21.012146 5.095307-32.395446 5.036927z"/><path d="m174.380066 218.377182c-17.40007 17.884872-35.79007 33.921829-58.002426 45.022079-6.114144 3.055451-12.331734 5.8396-19.108246 7.150513-9.884598 1.91211-18.219917-2.60318-20.559319-11.188995-2.769477-10.164292 1.264367-18.46817 11.423798-21.653702 29.458252-9.236725 54.31263-25.670151 75.835136-47.496735 1.052018-1.066864 2.041382-2.195282 3.084351-3.271331 4.433655-4.574189 8.167328-8.064911 4.360931-16.216126-4.838317-10.360947 2.887513-22.319549 14.684403-26.758652 14.568878-5.482177 29.812347-1.465911 39.501541 10.772782 2.214249 2.796905 4.144913 3.244812 7.172409 1.800003 3.975647-1.897263 7.447525-4.403229 10.383957-7.652603 2.56723-2.840821 4.957626-5.847794 7.612198-8.602021 5.596954-5.807159 10.743164-7.119461 16.512939-4.43518 4.445557 2.068207 7.174683 8.183532 6.486084 15.084305-.34555 3.462829-.831176 6.95288-1.715454 10.308883-.8479 3.218003.301056 4.324967 3.307373 4.421234 4.581848.146698 8.401978-1.712356 11.919251-4.401794 6.413574-4.904007 11.351959-11.215332 16.513519-17.316528 2.793579-3.302109 5.483459-6.715805 8.518768-9.783722 4.225159-4.270645 9.417603-5.291245 14.151215-2.989518 4.943878 2.403962 5.898163 7.038681 5.717956 11.835373-.402771 10.720871-5.684417 19.365631-12.603271 27.045685-11.901917 13.211365-26.87674 20.571549-44.583374 21.898468-9.344055.700241-18.235779-1.609802-26.225998-6.576416-3.139587-1.951523-5.914978-2.076477-9.38269-.995315-10.856446 3.384887-22.009095 5.345459-33.419388 4.902313-4.279038-.166184-7.049118 1.367081-9.769348 4.590103-6.975815 8.265106-14.349976 16.193985-21.816315 24.506897z"/><path d="m423.144012 131.996094c13.38971-5.634529 26.724213-8.284889 40.764344-4.45929 12.606262 3.434891 18.86322 12.942841 17.171875 25.95668-1.503083 11.565247-5.678376 22.159379-13.609375 30.577042-32.37616 34.362702-68.377625 63.911606-112.668427 81.897675-7.477936 3.036743-15.047272 6.50122-23.633758 4.478973-7.729615-1.820465-12.244446-6.752411-13.228272-14.924591-.869903-7.226227 2.870392-13.97789 9.852509-16.855789 3.82138-1.575134 7.971649-2.333039 11.922729-3.616074 21.369171-6.939224 41.022522-17.48349 60.284546-28.833877.821625-.484131 1.4823-1.241379 2.051483-1.728821.036286-1.315094-.727997-1.77536-1.367248-2.2677-14.965454-11.525727-16.053498-29.096802-6.785004-44.735428 6.826721-11.518662 16.894592-19.591126 29.244598-25.4888m6.519379 24.140747c-5.047027 3.432953-9.3414 7.523651-11.591705 13.37471-2.841095 7.387024-.342774 12.397812 7.170471 14.642364 3.44812 1.030106 6.329346.670945 9.207916-1.85437 7.178314-6.297378 14.373444-12.572082 17.5849-21.936569 2.142151-6.246353-.168396-9.207855-6.743561-9.36734-5.547638-.134567-10.42456 1.868408-15.628021 5.141205z"/><path d="m1001.418823 223.323654c-4.022644 6.760925-7.959778 13.112992-13.321899 18.473877-3.185913 3.185242-6.900574 5.122742-11.286621 5.943787-5.303345.992782-10.137512-.088867-13.596741-4.24672-3.504822-4.212844-3.341064-9.261032-1.420532-14.185485 1.839172-4.715683 5.221741-8.48729 8.140808-12.526139 7.782349-10.767593 14.014954-22.227981 16.35437-35.503784.377808-2.143707.65271-4.255661.125549-7.408462-1.695984 1.870468-2.962158 3.31491-4.278869 4.711761-23.115113 24.52124-48.999451 45.524292-78.708252 61.602234-7.313477 3.957947-14.810913 7.609833-22.993164 9.534225-4.606934 1.083496-9.211792 1.174713-13.84253.062271-6.876281-1.651886-10.425903-6.27301-11.340149-12.9897-.877929-6.450043 1.244812-11.803619 6.716614-15.598587 3.192139-2.213867 6.847718-3.409958 10.517334-4.497864 35.217774-10.440902 64.828858-29.731094 89.64856-56.634704 5.423767-5.879196 11.015075-11.608567 17.877502-15.864716 5.31012-3.293442 11.002503-5.841232 17.374573-5.254303 11.043274 1.017166 17.15155 8.780411 17.93158 22.034744 1.293457 21.97844-3.109559 42.685013-13.898133 62.347565z"/><path d="m824.976074 161.01236c2.790039-1.676682 5.969788-2.298081 7.251465-5.647858-2.971741-2.74057-6.867859-2.612015-10.217407-3.848282-3.427429-1.26503-7.083679-2.003586-10.36377-3.555725-7.904785-3.74054-8.850464-13.50058-1.823242-18.732285 3.189331-2.374435 6.735779-4.301315 10.237244-6.217483 6.742859-3.690003 13.159607-7.836426 19.142517-12.673569 2.973816-2.404358 6.00116-4.781845 9.746948-5.959518 5.212891-1.638924 10.491882.22026 13.547669 4.790977 2.866027 4.286904 2.579711 9.836785-.886231 13.918526-4.396606 5.17775-10.366821 8.262558-16.532226 11.972717 2.822387 2.024521 5.973815 2.405442 8.794921 3.463471 14.429383 5.411606 16.932068 14.282653 7.277955 26.465744-4.094788 5.16748-9.55774 8.72821-15.055359 12.215423-1.78302 1.131058-4.015992 1.651963-5.189576 3.621704.13324.378907.14618.806229.359497.966156 9.437073 7.074601 10.490052 12.778687 3.983582 22.742112-7.147705 10.945404-17.262695 18.875534-27.532837 26.590927-20.057495 15.068084-41.136536 28.375732-64.965698 36.775634-3.597351 1.268067-7.318237 2.337891-11.07074 2.982941-8.526672 1.465637-17.258179-3.487152-19.789001-10.90271-2.91333-8.536194.293762-16.33107 8.932312-20.851623 7.610473-3.982605 16.173462-5.066666 24.346252-7.26117 16.70813-4.486374 32.37262-11.253113 47.106445-20.250686 3.866517-2.361176 7.406373-5.12938 10.024109-8.895447 2.224243-3.199936 2.017884-5.90332-1.802307-7.731949-.600952-.287643-1.199768-.582352-1.783691-.902588-12.302735-6.746429-12.733032-16.586822-.813538-23.985062 5.362549-3.32843 11.152466-5.9682 17.074707-9.090377z"/><path d="m585.59314 48.870602c8.100708-24.880593 32.058654-41.481279 59.208496-41.300714 3.156128.02099 6.382385-.050867 9.453857.547661 18.482849 3.601731 25.969727 15.000091 23.973694 36.166154-2.682495 28.446255-28.239258 51.89468-56.640625 51.968105-26.947754.069679-43.031555-20.869346-35.995422-47.381206m35.467346 22.64085c15.944885.345779 28.674743-10.649826 30.45282-26.304116.745117-6.559547-4.543702-13.493135-11.100098-13.482074-17.26239.029117-28.695862 10.686397-29.052795 26.858051-.180176 8.165558 1.526489 10.45829 9.700073 12.928139z"/><path d="m982.744629 71.81485c-10.969605 7.618011-21.918823 14.587265-33.847717 19.825432-7.836853 3.441276-15.876954 5.927047-24.664246 3.83522-4.958984-1.180473-8.638367-3.517143-9.480652-8.880264-1.03241-6.573059.905335-11.104035 6.19281-14.01133 7.04718-3.874794 14.943176-5.557022 22.430054-8.299507 8.906799-3.262596 17.911743-6.281891 25.953491-11.470013 2.036133-1.313572 4.337219-2.422996 5.535401-5.188598-5.361634-2.354081-10.905518-3.114075-16.514893-3.259816-6.651306-.172813-13.315247.117691-19.965271-.077838-7.641113-.224671-11.558472-3.174721-12.53656-8.955575-1.061829-6.275489 1.987549-11.187463 9.055908-13.596773 13.688599-4.665914 27.565308-3.19668 41.38562-.609985 6.223389 1.164797 12.252869 3.042059 17.867615 6.097673 8.95404 4.872841 11.361084 11.039193 8.210632 20.849846-2.712829 8.447834-8.523315 14.532181-15.038391 20.105252-1.390014 1.189003-2.861389 2.282875-4.583801 3.636276z"/><path d="m442.852966 67.919724c-16.739959 10.068435-33.287536 19.739685-51.647674 25.703277-6.011048 1.952469-12.135742 3.590096-18.6073 1.929573-4.358337-1.118294-7.833313-3.276604-8.73407-7.874557-1.036438-5.290726.362702-9.914139 5.113159-13.101952 2.668824-1.790924 5.650177-2.829292 8.700226-3.70153 23.582031-6.743927 44.45813-18.610493 63.642029-33.658791 4.342316-3.406219 8.622223-6.877909 14.211273-8.035101 4.44809-.920977 8.814118-.689003 12.057037 2.832384 3.286408 3.568669 3.060151 7.91314 1.423523 12.20879-2.359924 6.194088-7.188324 10.365444-12.235992 14.202274-4.370148 3.321877-9.065582 6.215802-13.922211 9.495633z"/><path d="m812.02594 87.160599c-8.535156 3.863823-16.779724 7.405411-25.778687 8.730926-3.1604.465523-6.263244.486649-9.398864-.318428-4.770996-1.224937-8.254822-3.807243-8.919556-8.893448-.681702-5.216415 1.277893-9.437065 5.818481-12.334686 2.848267-1.817642 6.035157-2.772171 9.224671-3.71817 22.970215-6.812885 43.460876-18.298523 62.260925-32.983303 3.668579-2.865524 7.220459-5.927757 11.662781-7.601717 6.441162-2.427138 12.645019-1.410652 15.669495 2.532827 2.959411 3.858647 2.433837 10.487324-1.324585 15.894722-5.575745 8.022061-13.833069 12.86023-21.771485 18.002884-11.883484 7.698357-24.338562 14.402222-37.443176 20.688393z"/><path d="m155.654434 329.783081c-8.061889 3.817505-15.993042 6.778168-24.680481 6.834412-5.407112.035003-10.388229-1.182099-13.036125-6.553467-2.139328-4.339661-1.008423-8.452026 1.65683-12.210907 1.70768-2.408356 4.259117-3.821991 6.958488-4.642517 24.698365-7.507477 45.462647-21.771027 65.282914-37.710968 4.057693-3.263275 8.433197-5.856507 13.970443-5.87674 10.096115-.036834 14.703842 7.246216 10.194107 16.448456-2.78685 5.686646-7.455368 9.75882-12.315185 13.566712-14.855789 11.640136-30.934265 21.353118-48.030991 30.145019z"/><path d="m55.103203 189.09729c-4.985741 5.520401-10.292271 10.385513-12.687153 17.615006.758633.426132 1.275089.81607 1.856422 1.028137 13.226323 4.824905 17.651795 16.508087 10.705151 28.77626-4.053177 7.158157-10.245701 11.836044-18.278828 13.581955-15.397754 3.346527-27.633744-8.811218-24.426412-24.339355 3.344662-16.193009 12.927875-28.987061 23.382494-41.190705 3.793312-4.427917 8.046779-8.429031 13.090881-11.468078 2.147419-1.293824 4.366516-2.400391 6.991211-2.366776 5.987164.076721 9.258308 5.582871 6.396126 10.848801-1.629322 2.997665-4.389992 4.959152-7.029892 7.514755z" fill="#d2691e"/></svg>