<svg enable-background="new 0 0 3152 852" viewBox="0 0 3152 852" xmlns="http://www.w3.org/2000/svg"><path d="m2056 853c-685.333374 0-1370.166687 0-2055 0 0-284 0-568 0-852h3152v852c-365.5 0-731 0-1097 0m-583.141479-565.368958c-9.046998-5.102142-18.920655-7.198883-29.150147-7.821167-26.816528-1.631225-51.880737 4.924744-75.502563 17.106904-11.317872 5.836853-22.081177 12.749145-31.87854 18.464355-11.239502-4.646881-21.584107-9.665771-32.406983-13.233734-18.741699-6.178467-38.149536-5.509888-57.400757-3.002503-25.856201 3.367707-49.358398 12.689423-68.44458 30.919983-21.179443 20.230042-31.084839 45.681946-31.931396 74.679993-.921265 31.565094 12.447998 55.881622 38.457153 73.440399 18.777344 12.676483 39.865723 19.014618 62.064575 21.803101 38.044434 4.778778 75.457398.767578 112.221314-9.509888 33.77478-9.441864 64.702758-24.646149 91.086181-48.050415 30.542115-27.09317 50.752564-59.708618 52.255982-101.809143.828979-23.216248-8.531616-40.888824-29.370239-52.987885m1008.567016-155.525894c9.527588 11.707444 13.644531 25.49939 14.365479 40.206757 1.370117 27.957306-6.049561 53.675506-21.171631 77.197433-16.23169 25.248261-36.817871 46.857422-57.660889 68.165467-42.993652 43.95227-86.331299 87.568115-129.487305 131.361694-1.325927 1.345428-3.12915 3.108643-3.157714 4.704773-.249024 13.943726-.144043 27.893768-.144043 41.957214h283.003662c0-16.037079 0-31.769104 0-47.827484-72.244141 0-144.160157 0-217.638184 0 1.983154-2.492981 3.060059-4.171966 4.444336-5.539856 35.795166-35.367187 71.784912-70.539459 107.38208-106.104522 20.744385-20.725708 40.716797-42.179505 57.157959-66.662354 23.751953-35.369019 36.494873-73.500473 29.523926-116.555603-4.827393-29.816734-19.64502-53.533028-45.122559-69.959351-25.797607-16.632972-54.743896-21.65057-84.903076-21.444042-36.783935.251896-70.476318 11.001034-101.452637 30.437092-9.517822 5.971931-18.424804 12.917725-27.876709 19.605232 9.923096 12.457833 19.222168 24.131989 28.552735 35.846085 3.406982-2.583359 6.453857-4.901856 9.509277-7.209107 30.187988-22.797134 63.454102-36.178245 102.018799-33.266212 20.505615 1.548378 38.676269 8.117737 52.656494 25.086784m592.074463 363.896256h55.217285c0-16.306763 0-32.043671 0-48.195252-72.1604 0-144.038086 0-217.282959 0 1.804444-2.34613 2.763428-3.943481 4.047608-5.2117 28.454834-28.099121 56.950927-56.156433 85.428222-84.232697 28.125977-27.72998 56.285401-55.46466 78.800537-88.172027 23.628418-34.32486 36.155762-71.822937 30.285889-113.972702-4.924072-35.354653-22.74292-62.122002-54.795898-78.538201-31.876709-16.325889-65.943116-18.694362-100.769043-14.121654-33.978516 4.461422-63.938721 18.762073-91.402344 38.745937-4.247315 3.090584-8.283447 6.471184-12.498291 9.781311 9.586426 12.035652 18.795166 23.597405 28.004394 35.15934 7.75293-5.396973 15.164795-10.746078 22.764649-15.813507 29.520996-19.684326 61.809082-28.18898 97.213623-23.530746 34.501953 4.539497 57.135742 29.765304 58.802734 64.391433 1.371826 28.501053-6.379394 54.199189-21.635498 78.001129-15.841553 24.715104-35.921631 45.871293-56.300537 66.690873-43.358642 44.295868-87.108398 88.208862-130.641357 132.334472-1.291993 1.309296-2.754395 3.228485-2.781006 4.885315-.222901 13.783875-.126465 27.572907-.126465 41.798676zm-1184.999756-428.502403c-56.05957 0-112.119263 0-168.108032 0v47.994438h230.850586c-58.710205 127.121307-117.11377 253.578857-175.734986 380.507568 18.108643 0 35.272095-.18753 52.42627.130066 4.359009.080719 6.262695-1.328644 7.992554-5.189697 56.57312-126.276642 113.271118-252.497376 169.938843-378.73169.608642-1.356132 1.508422-2.777656 1.520385-4.17511.115479-13.431472.069214-26.864326.069214-40.53553-39.675659 0-78.815185 0-118.954834-.000045m-1458.145843 397.669059c-6.186798-1.106964-12.347107-2.939727-18.565979-3.166534-12.138398-.442749-19.273529 4.750519-22.853577 15.321655-4.360687 12.876312-1.62442 23.976319 7.356842 31.257202 8.790771 7.126465 19.409027 9.399109 30.024017 11.31427 28.106659 5.071045 55.728638 2.387024 82.701508-6.67456 21.17041-7.112183 40.946838-16.667969 56.413513-33.553101 17.646668-19.265228 18.065674-42.398468.608154-61.890167-6.100708-6.811523-12.674011-13.197968-18.957275-19.848602-2.820374-2.985321-3.192627-6.609314-.204163-9.360504 6.756775-6.220398 13.907898-12.012543 20.742493-17.845612 3.4646 2.785431 5.750549 4.718933 8.133667 6.524322 21.552795 16.327668 45.738831 25.822754 72.83374 26.735596 22.169312.746918 42.650269-5.589508 61.834412-16.608887 32.37738-18.597503 48.105102-51.799072 41.530701-88.207885-3.494873-19.354187-15.911683-32.357788-35.157349-36.130616-16.324463-3.200134-32.494141-1.085815-48.471436 2.685914-23.138671 5.46228-44.884155 14.637786-65.927734 25.506683-34.232178 17.680786-65.875854 39.011902-92.472504 67.18396-10.476715 11.09732-19.28067 23.329651-23.355499 38.425201-2.383362 8.829224-.554748 15.888184 7.115082 21.468781 6.849853 4.984039 13.720184 10.077636 19.824921 15.914245 8.295593 7.931244 7.189941 17.833619-2.037384 24.712433-1.586792 1.182953-3.31189 2.307038-5.144379 3.014618-24.671936 9.526001-49.737885 11.134003-75.971771 3.221588m-138.004914-76.318756c17.648133-17.932525 35.563813-35.61264 52.826447-53.908935 8.072601-8.55597 15.513122-17.879486 22.070984-27.640625 5.483642-8.162262 7.124267-17.8237 1.903686-26.995789-4.950073-8.696838-13.688354-9.166321-22.427124-8.456024-18.755707 1.524444-37.490845 3.301727-56.245727 4.837067-9.848664.806274-19.721283 1.320404-29.583069 1.96643 2.119568-2.838043 4.640991-4.555481 7.158417-6.278747 11.206298-7.671112 21.828338-15.962067 28.319671-28.311173 7.210236-13.716827.261749-31.434707-14.037658-34.675659-10.127045-2.295303-19.652741.364822-27.301407 7.514343-6.805115 6.361023-12.619507 13.811631-19.60936 19.939255-15.011581 13.159836-30.593536 25.666473-45.762039 38.650726-12.472565 10.676483-11.802964 29.875824.983749 40.094574 6.587753 5.26471 14.19661 8.50705 22.303726 9.20401 13.89711 1.194611 27.897339 1.659485 41.850037 1.5896 11.19899-.056122 22.391708-1.357849 34.306534-2.154999-1.18042 1.073029-1.860077 1.730408-2.580292 2.339874-28.483124 24.104432-56.81073 48.395874-85.493301 72.260682-43.89386 36.521057-93.42025 62.300232-148.722947 76.834533-4.175754 1.097443-8.293697 2.456543-12.365512 3.899933-12.026789 4.263275-21.053664 16.031281-19.148571 34.076325 1.397626 13.238342 9.751661 23.492797 23.301635 27.37384 12.890869 3.692261 25.071984.689636 37.104546-3.576904 37.223564-13.198792 70.60926-33.500397 102.525383-56.309632 38.576767-27.569336 74.055511-58.852813 108.622192-92.272705m689.243042 52.21991c-4.046997 6.272369-8.643921 12.263031-12.030517 18.873718-7.911499 15.443451-.687928 32.179932 15.577209 35.693634 11.24646 2.429535 21.926758-.124756 30.881226-7.700836 12.520202-10.592651 21.129211-24.28302 29.257141-38.251465 17.183716-29.531677 26.589477-61.56311 29.282959-95.485351 1.304687-16.430146 1.569946-33.006195-3.53479-49.037598-4.028687-12.6521-11.504273-21.946381-25.272705-24.843597-10.201782-2.14679-19.81958-.249512-29.176148 3.806701-15.909301 6.89682-28.674377 18.092835-40.216613 30.588959-24.926087 26.985962-51.590821 51.870422-82.350647 72.201233-25.34784 16.753753-52.133912 30.576507-80.73346 40.822174-12.186157 4.365631-24.609741 8.084076-36.717224 12.648804-10.126099 3.817779-17.541504 10.667938-20.195984 21.69223-3.41217 14.170776 1.18811 34.069336 22.662659 38.457825 13.056091 2.66809 25.248718.54718 37.168213-3.854889 28.403625-10.48993 54.271728-25.983887 79.160278-42.880402 44.496948-30.208435 85.326477-64.775085 120.545227-105.657318 1.095947-1.272125 2.400452-2.364563 4.208496-4.126129.256897 1.73706.458618 2.354309.421021 2.956665-1.077576 17.260498-4.406372 34.203522-12.250306 49.541443-7.757019 15.167877-17.429504 29.35617-26.686035 44.554199m241.907471 329.857056c-372.886353 0-745.772766 0-1119.306747 0 0-10.249085 0-19.775879 0-30.085145-25.224488 12.623963-49.604371 24.825135-74.808291 37.438782 25.468989 12.718384 49.800295 24.868592 75.053682 37.479248 0-10.61145 0-20.034485 0-29.90393h1426.330765c0-5.179688 0-9.888062 0-14.929017-102.336548 0-204.302978 0-307.269409.000062m1610 15.033996h227.37793v29.737061c25.216308-12.601258 49.576904-24.774903 74.893799-37.426392-25.258301-12.633667-49.725098-24.871582-74.986817-37.506958v30.200378c-470.563721 0-940.593262 0-1410.614014 0v14.995911zm-1858.530457-770.488112c-26.864624 3.242036-50.698852 13.262589-71.016601 31.392779-21.704285 19.367512-35.55603 42.704685-36.877136 72.371334-1.419434 31.872223 16.669006 58.102188 47.045532 67.819672 21.37793 6.838791 42.661743 5.102539 63.527466-2.483826 50.754028-18.45311 82.079101-68.027046 76.218506-121.471943-2.199585-20.059357-12.1792-35.144918-31.887024-42.662508-14.96222-5.707381-30.433838-6.077833-47.010743-4.965508m-369.243652 121.534041c-3.778015.507645-7.552368 1.044159-11.334595 1.517944-16.987548 2.1279-33.385009 1.02826-48.477539-8.270019-3.306884-2.037369-3.743347-3.982414-1.212951-6.596565 4.255493-4.396363 8.093444-9.501175 13.095337-12.817124 19.482544-12.915718 39.299194-25.332191 59.110107-37.745262 6.754333-4.232155 14.056396-7.749626 17.431519-15.610969 6.617431-15.413514-4.34607-29.826832-22.407532-29.46469-13.277222.266213-25.313904 5.012121-36.679199 11.261347-30.089783 16.544819-56.299378 38.108883-79.651642 63.172222-12.756684 13.691437-15.487183 31.173554-7.462799 46.822876 8.887542 17.332688 23.939453 27.418762 41.468383 34.363938 17.523682 6.9431 35.864258 8.355255 54.436524 7.203552 13.576782-.841904 27.130798-2.189408 39.215637-9.47464 11.986023-7.225617 15.891297-26.242355 7.637695-37.684006-.757202-1.049698-1.717895-2.00589-2.743164-2.800232-6.468444-5.011642-14.022766-4.182266-22.425781-3.878372m796.038757-55.725876c-36.061889 26.885864-74.901611 48.315964-118.360839 60.882843-6.611451 1.911804-13.279297 4.505081-19.092286 8.116928-11.534668 7.166931-13.911254 24.344071-5.080566 33.435868 6.104858 6.285476 14.18042 7.564926 22.487793 7.372573 18.532104-.429138 35.492432-6.957061 51.821899-14.78955 20.094483-9.638306 40.222046-19.418701 59.36084-30.779419 19.126953-11.353791 37.417237-24.23655 55.34961-37.433602 9.121093-6.712394 15.696899-16.120567 17.449951-28.051559 1.576782-10.73201-3.952515-19.015484-14.504029-21.307453-9.496948-2.062939-18.283203.079159-26.121948 5.339229-7.814209 5.243561-15.160522 11.184075-23.310425 17.214142m-1281.332031 549.750138c-7.180672 2.937622-14.701187 5.253601-21.466186 8.951599-11.533997 6.305053-14.640061 27.185974-2.16333 35.720031 6.596351 4.511841 14.139595 5.493592 21.9104 5.017884 13.789978-.8443 26.682938-5.109497 39.268524-10.507386 29.519776-12.660949 57.868851-27.591247 85.287476-44.2807 15.787872-9.609986 31.605591-19.254639 44.530945-32.761475 7.261932-7.588684 13.031036-15.909363 12.734222-27.136902-.278259-10.52594-6.130829-17.004944-16.623993-18.114746-10.220856-1.081177-19.337769 1.866883-27.532684 7.765869-16.052628 11.555115-31.533783 23.979798-48.120346 34.700196-27.06073 17.490234-55.905686 31.552368-87.825028 40.64563m2054.34961-172.932557c.135742-1.157806.275146-2.315216.40625-3.473541 2.735107-24.131378-14.524659-43.093628-38.793213-42.62088-25.177735.490448-48.688965 22.588196-51.595948 48.494354-3.003418 26.762177 16.769532 45.732636 43.353516 41.009918 24.293213-4.315826 39.675537-18.883056 46.629395-43.409851m544.90039-40.345123c-5.831299-3.971771-12.365234-5.645569-19.328613-5.743469-28.8396-.405487-54.739258 25.653747-54.351563 54.643219.27002 20.203186 14.28125 34.553131 34.477051 35.311035 25.071533.940857 49.062256-16.984192 55.296631-41.315796 4.371338-17.061432-1.294189-32.639221-16.093506-42.894989z" fill="#fff"/><g fill="#010101"><path d="m1473.189697 287.795227c20.507447 11.934876 29.868042 29.607452 29.039063 52.8237-1.503418 42.100525-21.713867 74.715973-52.255982 101.809143-26.383423 23.404266-57.311401 38.608551-91.086181 48.050415-36.763916 10.277466-74.17688 14.288666-112.221314 9.509888-22.198852-2.788483-43.287231-9.126618-62.064575-21.803101-26.009155-17.558777-39.378418-41.875305-38.457153-73.440399.846557-28.998047 10.751953-54.449951 31.931396-74.679993 19.086182-18.23056 42.588379-27.552276 68.44458-30.919983 19.251221-2.507385 38.659058-3.175964 57.400757 3.002503 10.822876 3.567963 21.167481 8.586853 32.406983 13.233734 9.797363-5.71521 20.560668-12.627502 31.87854-18.464355 23.621826-12.18216 48.686035-18.738129 75.502563-17.106904 10.229492.622284 20.103149 2.719025 29.481323 7.985352m-178.233398 160.590057c6.769653-.80719 13.57666-1.382141 20.302856-2.460327 36.062378-5.7807 69.701172-17.434753 97.77771-41.791137 14.581909-12.649964 26.10791-27.468018 30.398682-46.920105 2.749267-12.464417-1.47583-21.870301-11.39148-23.98584-3.677978-.784729-7.608032-.877991-11.381836-.638031-16.941528 1.077148-31.781372 8.084076-45.741455 17.100799-32.133422 20.754578-57.594726 48.144379-78.486938 79.945404-3.968872 6.041199-7.342285 12.473694-11.473389 19.553467 3.84729-.277252 6.472046-.466431 9.99585-.80423m-60.107788-91.072082c-9.321778 4.561737-16.916016 11.115662-22.758911 19.700134-15.860108 23.301392-7.263672 54.894898 18.167968 65.182129 17.553955-31.31366 37.450318-61.102875 62.431153-87.414459-17.331421-6.852661-38.269654-5.962128-57.84021 2.532196z"/><path d="m2481.205078 131.823181c-13.759766-16.68708-31.93042-23.256439-52.436035-24.804817-38.564697-2.912033-71.830811 10.469078-102.018799 33.266212-3.05542 2.307251-6.102295 4.625748-9.509277 7.209107-9.330567-11.714096-18.629639-23.388252-28.552735-35.846085 9.451905-6.687507 18.358887-13.633301 27.876709-19.605232 30.976319-19.436058 64.668702-30.185196 101.452637-30.437092 30.15918-.206528 59.105469 4.81107 84.903076 21.444042 25.477539 16.426323 40.295166 40.142617 45.122559 69.959351 6.970947 43.05513-5.771973 81.186584-29.523926 116.555603-16.441162 24.482849-36.413574 45.936646-57.157959 66.662354-35.597168 35.565063-71.586914 70.737335-107.38208 106.104522-1.384277 1.36789-2.461182 3.046875-4.444336 5.539856h217.638184v47.827484c-94.171143 0-188.359619 0-283.003662 0 0-14.063446-.104981-28.013488.144043-41.957214.028564-1.59613 1.831787-3.359345 3.157714-4.704773 43.156006-43.793579 86.493653-87.409424 129.487305-131.361694 20.843018-21.308045 41.429199-42.917206 57.660889-68.165467 15.12207-23.521927 22.541748-49.240127 21.171631-77.197433-.720948-14.707367-4.837891-28.499313-14.585938-40.488724z"/><path d="m3073 496.001404c-75.937012 0-151.373779 0-227.168457 0 0-14.225769-.096436-28.014801.126465-41.798676.026611-1.65683 1.489013-3.576019 2.781006-4.885315 43.532959-44.12561 87.282715-88.038604 130.641357-132.334472 20.378906-20.81958 40.458984-41.975769 56.300537-66.690873 15.256104-23.80194 23.007324-49.500076 21.635498-78.001129-1.666992-34.626129-24.300781-59.851936-58.802734-64.391433-35.404541-4.658234-67.692627 3.84642-97.213623 23.530746-7.599854 5.067429-15.011719 10.416534-22.764649 15.813507-9.209228-11.561935-18.417968-23.123688-28.004394-35.15934 4.214844-3.310127 8.250976-6.690727 12.498291-9.781311 27.463623-19.983864 57.423828-34.284515 91.402344-38.745937 34.825927-4.572708 68.892334-2.204235 100.769043 14.121654 32.052978 16.416199 49.871826 43.183548 54.795898 78.538201 5.869873 42.149765-6.657471 79.647842-30.285889 113.972702-22.515136 32.707367-50.67456 60.442047-78.800537 88.172027-28.477295 28.076264-56.973388 56.133576-85.428222 84.232697-1.28418 1.268219-2.243164 2.86557-4.047608 5.2117h217.282959v48.195252c-18.363037 0-36.790039 0-55.717285 0z"/><path d="m1889.000366 67.499023c39.639527.000023 78.779053.000023 118.454712.000023 0 13.671204.046265 27.104058-.069214 40.53553-.011963 1.397454-.911743 2.818978-1.520385 4.17511-56.667725 126.234314-113.365723 252.455048-169.938843 378.73169-1.729859 3.861053-3.633545 5.270416-7.992554 5.189697-17.154175-.317596-34.317627-.130066-52.42627-.130066 58.621216-126.928711 117.024781-253.386261 175.734986-380.507568-77.449463 0-154.037598 0-230.850586 0 0-16.015007 0-31.623696 0-47.994438 55.988769 0 112.048462 0 168.608154.000022z"/><path d="m430.728027 465.322083c25.86026 7.758392 50.926209 6.15039 75.598145-3.375611 1.832489-.70758 3.557587-1.831665 5.144379-3.014618 9.227325-6.878814 10.332977-16.781189 2.037384-24.712433-6.104737-5.836609-12.975068-10.930206-19.824921-15.914245-7.66983-5.580597-9.498444-12.639557-7.115082-21.468781 4.074829-15.09555 12.878784-27.327881 23.355499-38.425201 26.59665-28.172058 58.240326-49.503174 92.472504-67.18396 21.043579-10.868897 42.789063-20.044403 65.927734-25.506683 15.977295-3.771729 32.146973-5.886048 48.471436-2.685914 19.245666 3.772828 31.662476 16.776429 35.157349 36.130616 6.574401 36.408813-9.153321 69.610382-41.530701 88.207885-19.184143 11.019379-39.6651 17.355805-61.834412 16.608887-27.094909-.912842-51.280945-10.407928-72.83374-26.735596-2.383118-1.805389-4.669067-3.738891-8.133667-6.524322-6.834595 5.833069-13.985718 11.625214-20.742493 17.845612-2.988464 2.75119-2.616211 6.375183.204163 9.360504 6.283264 6.650634 12.856567 13.037079 18.957275 19.848602 17.45752 19.491699 17.038514 42.624939-.608154 61.890167-15.466675 16.885132-35.243103 26.440918-56.413513 33.553101-26.97287 9.061584-54.594849 11.745605-82.701508 6.67456-10.61499-1.915161-21.233246-4.187805-30.024017-11.31427-8.981262-7.280883-11.717529-18.38089-7.356842-31.257202 3.580048-10.571136 10.715179-15.764404 22.853577-15.321655 6.218872.226807 12.379181 2.05957 18.939605 3.320557m265.504273-136.67566c.160705-.472992.369385-.935485.47522-1.420471 3.459533-15.857117-.734131-19.892273-16.355835-15.55069-19.871582 5.522675-37.802491 15.457276-55.950501 24.876435-2.628052 1.363983-5.134399 2.962463-7.869202 4.552521 14.401123 11.634063 30.591004 15.213043 48.070008 12.604553 14.750244-2.201264 27.149719-8.181458 31.63031-25.062348z"/><path d="m292.090881 389.091614c-34.308075 33.177582-69.786819 64.461059-108.363586 92.030395-31.916123 22.809235-65.301819 43.11084-102.525383 56.309632-12.032562 4.26654-24.213677 7.269165-37.104546 3.576904-13.549974-3.881043-21.904009-14.135498-23.301635-27.37384-1.905093-18.045044 7.121782-29.81305 19.148571-34.076325 4.071815-1.44339 8.189758-2.80249 12.365512-3.899933 55.302697-14.534301 104.829087-40.313476 148.722947-76.834533 28.682571-23.864808 57.010177-48.15625 85.493301-72.260682.720215-.609466 1.399872-1.266845 2.580292-2.339874-11.914826.79715-23.107544 2.098877-34.306534 2.154999-13.952698.069885-27.952927-.394989-41.850037-1.5896-8.107116-.69696-15.715973-3.9393-22.303726-9.20401-12.786713-10.21875-13.456314-29.418091-.983749-40.094574 15.168503-12.984253 30.750458-25.49089 45.762039-38.650726 6.989853-6.127624 12.804245-13.578232 19.60936-19.939255 7.648666-7.149521 17.174362-9.809646 27.301407-7.514343 14.299407 3.240952 21.247894 20.958832 14.037658 34.675659-6.491333 12.349106-17.113373 20.640061-28.319671 28.311173-2.517426 1.723266-5.038849 3.440704-7.158417 6.278747 9.861786-.646026 19.734405-1.160156 29.583069-1.96643 18.754882-1.53534 37.49002-3.312623 56.245727-4.837067 8.73877-.710297 17.477051-.240814 22.427124 8.456024 5.220581 9.172089 3.579956 18.833527-1.903686 26.995789-6.557862 9.761139-13.998383 19.084655-22.070984 27.640625-17.262634 18.296295-35.178314 35.97641-53.085053 54.151245m-32.880584-110.631287c.212829.015808.425659.031616.638488.047424-.099578-.099853-.199188-.199707-.638488-.047424z"/><path d="m981.804688 440.779175c9.044372-14.90799 18.716857-29.096283 26.473876-44.26416 7.843934-15.337921 11.17273-32.280945 12.250306-49.541443.037597-.602356-.164124-1.219605-.421021-2.956665-1.808044 1.761566-3.112549 2.854004-4.208496 4.126129-35.21875 40.882233-76.048279 75.448883-120.545227 105.657318-24.88855 16.896515-50.756653 32.390472-79.160278 42.880402-11.919495 4.402069-24.112122 6.522979-37.168213 3.854889-21.474549-4.388489-26.074829-24.287049-22.662659-38.457825 2.65448-11.024292 10.069885-17.874451 20.195984-21.69223 12.107483-4.564728 24.531067-8.283173 36.717224-12.648804 28.599548-10.245667 55.38562-24.068421 80.73346-40.822174 30.759826-20.330811 57.42456-45.215271 82.350647-72.201233 11.542236-12.496124 24.307312-23.692139 40.216613-30.588959 9.356568-4.056213 18.974366-5.953491 29.176148-3.806701 13.768432 2.897216 21.244018 12.191497 25.272705 24.843597 5.104736 16.031403 4.839477 32.607452 3.53479 49.037598-2.693482 33.922241-12.099243 65.953674-29.282959 95.485351-8.12793 13.968445-16.736939 27.658814-29.257141 38.251465-8.954468 7.57608-19.634766 10.130371-30.881226 7.700836-16.265137-3.513702-23.488708-20.250183-15.577209-35.693634 3.386596-6.610687 7.98352-12.601349 12.242676-19.163757z"/></g><path d="m1224 770.92627c102.466431-.000062 204.432861-.000062 306.769409-.000062v14.929017c-475.336914 0-950.554199 0-1426.330765 0v29.90393c-25.253387-12.610656-49.584693-24.760864-75.053682-37.479248 25.20392-12.613647 49.583803-24.814819 74.808291-37.438782v30.085145z" fill="#f19938"/><path d="m2833 785.960266c-394.463135 0-788.426147 0-1182.829102 0 0-4.979614 0-9.674438 0-14.995911h1410.614014c0-10.1651 0-19.733032 0-30.200378 25.261719 12.635376 49.728516 24.873291 74.986817 37.506958-25.316895 12.651489-49.677491 24.825134-74.893799 37.426392 0-10.36377 0-19.752503 0-29.737061-76.174561 0-151.776123 0-227.87793 0z" fill="#f19938"/><path d="m975.428101 15.403539c16.118347-1.04371 31.589965-.673258 46.552185 5.034123 19.707824 7.51759 29.687439 22.603151 31.887024 42.662508 5.860595 53.444897-25.464478 103.018833-76.218506 121.471943-20.865723 7.586365-42.149536 9.322617-63.527466 2.483826-30.376526-9.717484-48.464966-35.947449-47.045532-67.819672 1.321106-29.666649 15.172851-53.003822 36.877136-72.371334 20.317749-18.13019 44.151977-28.150743 71.475159-31.461394m26.740905 67.534091c-2.026184-11.298172-9.352417-19.902306-19.081665-20.811684-15.710205-1.468391-30.466919 1.95121-43.007263 11.907471-16.553589 13.142524-21.845886 31.021011-19.828552 51.374222.984009 9.927948 6.636963 15.790573 15.539795 17.490585 34.543884 6.596207 69.004577-24.016686 66.377685-59.960594z" fill="#010101"/><path d="m606.203979 137.001938c7.924927-.299637 15.479249-1.129013 21.947693 3.882629 1.025269.794342 1.985962 1.750534 2.743164 2.800232 8.253602 11.441651 4.348328 30.458389-7.637695 37.684006-12.084839 7.285232-25.638855 8.632736-39.215637 9.47464-18.572266 1.151703-36.912842-.260452-54.436524-7.203552-17.52893-6.945176-32.580841-17.03125-41.468383-34.363938-8.024384-15.649322-5.293885-33.131439 7.462799-46.822876 23.352264-25.063339 49.561859-46.627403 79.651642-63.172222 11.365295-6.249226 23.401977-10.995134 36.679199-11.261347 18.061462-.362142 29.024963 14.051176 22.407532 29.46469-3.375123 7.861343-10.677186 11.378814-17.431519 15.610969-19.810913 12.413071-39.627563 24.829544-59.110107 37.745262-5.001893 3.315949-8.839844 8.420761-13.095337 12.817124-2.530396 2.614151-2.093933 4.559196 1.212951 6.596565 15.09253 9.298279 31.489991 10.397919 48.477539 8.270019 3.782227-.473785 7.55658-1.010299 11.812683-1.522201z" fill="#010101"/><path d="m1402.063965 81.082764c7.850586-5.832512 15.196899-11.773026 23.011108-17.016587 7.838745-5.26007 16.625-7.402168 26.121948-5.339229 10.551514 2.291969 16.080811 10.575443 14.504029 21.307453-1.753052 11.930992-8.328858 21.339165-17.449951 28.051559-17.932373 13.197052-36.222657 26.079811-55.34961 37.433602-19.138794 11.360718-39.266357 21.141113-59.36084 30.779419-16.329467 7.832489-33.289795 14.360412-51.821899 14.78955-8.307373.192353-16.382935-1.087097-22.487793-7.372573-8.830688-9.091797-6.454102-26.268937 5.080566-33.435868 5.812989-3.611847 12.480835-6.205124 19.092286-8.116928 43.459228-12.566879 82.29895-33.996979 118.660156-61.080398z"/><path d="m120.827705 630.95697c31.524254-9.019775 60.36921-23.081909 87.42994-40.572143 16.586563-10.720398 32.067718-23.145081 48.120346-34.700196 8.194915-5.898986 17.311828-8.847046 27.532684-7.765869 10.493164 1.109802 16.345734 7.588806 16.623993 18.114746.296814 11.227539-5.47229 19.548218-12.734222 27.136902-12.925354 13.506836-28.743073 23.151489-44.530945 32.761475-27.418625 16.689453-55.7677 31.619751-85.287476 44.2807-12.585586 5.397889-25.478546 9.663086-39.268524 10.507386-7.770805.475708-15.314049-.506043-21.9104-5.017884-12.476731-8.534057-9.370667-29.414978 2.16333-35.720031 6.764999-3.697998 14.285514-6.013977 21.861274-9.025086z"/><path d="m2174.672852 458.502563c-6.844483 24.122132-22.226807 38.689362-46.52002 43.005188-26.583984 4.722718-46.356934-14.247741-43.353516-41.009918 2.906983-25.906158 26.418213-48.003906 51.595948-48.494354 24.268554-.472748 41.52832 18.489502 38.793213 42.62088-.131104 1.158325-.270508 2.315735-.515625 3.878204z" fill="#020202"/><path d="m2719.995605 417.936279c14.486329 10.072266 20.151856 25.650055 15.780518 42.711487-6.234375 24.331604-30.225098 42.256653-55.296631 41.315796-20.195801-.757904-34.207031-15.107849-34.477051-35.311035-.387695-28.989472 25.511963-55.048706 54.351563-54.643219 6.963379.0979 13.497314 1.771698 19.641601 5.926971z" fill="#010101"/><path d="m1294.506836 448.459595c-3.074341.263488-5.699097.452667-9.546387.729919 4.131104-7.079773 7.504517-13.512268 11.473389-19.553467 20.892212-31.801025 46.353516-59.190826 78.486938-79.945404 13.960083-9.016723 28.799927-16.023651 45.741455-17.100799 3.773804-.23996 7.703858-.146698 11.381836.638031 9.91565 2.115539 14.140747 11.521423 11.39148 23.98584-4.290772 19.452087-15.816773 34.270141-30.398682 46.920105-28.076538 24.356384-61.715332 36.010437-97.77771 41.791137-6.726196 1.078186-13.533203 1.653137-20.752319 2.534638z" fill="#fefefe"/><path d="m1235.19043 357.157043c19.228637-8.338165 40.16687-9.228698 57.498291-2.376037-24.980835 26.311584-44.877198 56.100799-62.431153 87.414459-25.43164-10.287231-34.028076-41.880737-18.167968-65.182129 5.842895-8.584472 13.437133-15.138397 23.10083-19.856293z" fill="#fcfcfc"/><path d="m696.153076 329.047546c-4.401367 16.479767-16.800842 22.459961-31.551086 24.661225-17.479004 2.60849-33.668885-.97049-48.070008-12.604553 2.734803-1.590058 5.24115-3.188538 7.869202-4.552521 18.14801-9.419159 36.078919-19.35376 55.950501-24.876435 15.621704-4.341583 19.815368-.306427 16.355835 15.55069-.105835.484986-.314515.947479-.554444 1.821594z" fill="#fcfcfc"/><path d="m259.380157 278.334259c.26944-.026215.36905.073639.468628.173492-.212829-.015808-.425659-.031616-.468628-.173492z" fill="#fff"/><path d="m1002.216309 83.392822c2.579589 35.488716-31.881104 66.101609-66.424988 59.505402-8.902832-1.700012-14.555786-7.562637-15.539795-17.490585-2.017334-20.353211 3.274963-38.231698 19.828552-51.374222 12.540344-9.956261 27.297058-13.375862 43.007263-11.907471 9.729248.909378 17.055481 9.513512 19.128968 21.266876z" fill="#fefefe"/></svg>