<svg enable-background="new 0 0 2378 544" viewBox="0 0 2378 544" xmlns="http://www.w3.org/2000/svg"><path d="m1725 545c-575 0-1149.5 0-1724 0 0-181.333344 0-362.666672 0-544h2378v544c-217.833252 0-435.666626 0-654 0m-1671.015739-46.487152c11.498542 12.406464 24.412307 22.777923 41.260536 26.784271 11.78846 2.803162 22.595566 1.026184 31.116813-8.918396-2.879562-1.966614-5.495094-3.74115-8.098739-5.532989-26.931038-18.533783-48.76812-41.735871-60.892842-72.338837-18.286785-46.156128-18.444965-92.827484 1.83733-138.44574 14.35627-32.289612 38.864403-54.755249 72.120751-67.384353 23.540039-8.939331 47.944076-10.675293 72.777694-9.057541 4.666687.304001 9.32602.721222 14.885132 1.156341-6.42807 5.502854-12.197097 10.000901-17.465423 15.024079-30.826584 29.392395-49.796845 65.122955-55.782685 107.331421-5.281936 37.244995-2.630035 73.884399 12.335831 108.810852 12.302368 28.710571 32.200363 50.358703 61.998383 61.624877 28.262954 10.68573 57.296493 11.531983 86.515304 5.078309 19.223206-4.245911 36.229889-12.91449 49.573517-28.014222 18.273285-20.678131 22.935547-56.131744 10.414978-80.678955-10.59198-20.766143-27.597778-33.713409-49.401489-40.87738-3.723053-1.223267-7.509522-2.253601-11.266693-3.373077 1.053558-1.758576 2.289306-2.462555 3.618011-2.834229 6.080811-1.700867 12.314636-2.945373 18.259644-5.02298 13.800323-4.822845 25.917053-12.391143 34.418487-24.533203 12.256165-17.5047 13.099091-36.933685 8.050202-56.925171-5.03537-19.937927-17.128479-35.09404-33.467438-47.029953-5.474701-3.999389-11.396423-7.386856-17.1138-11.054046.100555-.513077.201141-1.026169.301697-1.539261 10.57901.690826 21.236602.78807 31.723144 2.176956 41.659943 5.517685 68.916352 29.070801 83.496613 67.973923 7.171142 19.134063 9.298675 39.091186 9.298218 59.365997-.001191 55.664398-.000397 111.328766-.000397 166.993164v5.449097h57.00592c0-2.079407 0-3.892029 0-5.704651 0-55.831055-.022125-111.662079.013977-167.493134.010376-16.02774 1.240723-31.919342 5.597046-47.45636 6.659943-23.753143 18.212372-44.55484 38.550324-59.071487 30.790954-21.977554 64.891174-23.987152 102.206909-14.731262-3.564331 3.228943-6.293518 5.400986-8.674927 7.903931-32.3526 34.003829-55.518249 73.074539-64.718994 119.541305-7.000794 35.356689-7.129456 70.560577 5.592224 104.86853 10.771668 29.049317 30.257385 49.772919 59.907959 60.119995 14.849243 5.181885 30.217468 6.318543 45.827148 5.339783 24.773438-1.553467 46.608277-10.146118 65.143433-26.829254 22.415161-20.175354 34.768616-45.927277 41.212952-74.841949 7.352905-32.991974 5.733337-65.949067-2.317139-98.502045-11.273498-45.585358-34.68457-83.467972-74.146973-110.040238-34.175232-23.012161-72.283691-31.479782-113.126159-27.90068-44.059265 3.860977-80.235779 22.683136-107.519837 57.77507-4.912536 6.318314-9.072967 13.22139-13.645691 19.950272-1.609253-2.525452-3.093628-4.933075-4.653411-7.290802-22.972138-34.723862-54.207581-57.886307-95.147767-66.832535-35.209899-7.694061-70.122131-5.585541-104.574798 4.925018-2.100556.640854-4.546082.847824-6.70459.491043-16.545105-2.734695-32.965286-6.527435-49.60437-8.319931-24.558426-2.645614-49.229859-2.897674-73.636551 2.292465-63.966629 13.602677-107.301861 50.903519-128.255203 113.020844-12.311596 36.498383-12.66245 73.933228-5.222952 111.502319 6.127188 30.941925 18.48337 58.957611 40.378691 83.074799m2300.345573-112.294312c-6.872559-9.554901-15.033203-17.821258-24.88916-24.286834-23.337403-15.309815-49.533692-21.577851-76.908447-23.858185-9.055909-.754395-18.155518-.982544-27.273438-1.453278-.135498-1.722931-.241211-3.044494-.343262-4.366363-2.433349-31.576447-9.403076-61.88031-25.974365-89.294327-14.609131-24.168198-35.344971-41.162567-62.329346-49.583206-22.237793-6.939408-45.162597-8.336441-68.176513-4.150101-25.285523 4.599503-46.466187 16.694855-63.425537 36.058853-21.362793 24.391632-31.407837 53.746979-36.936646 84.995026-1.552124 8.771606-2.319824 17.681976-3.455566 26.593902-6.9198.386628-13.571533.612824-20.197388 1.153748-27.549561 2.249207-54.439575 7.232391-79.414429 19.802795-15.268432 7.684906-28.529175 17.848694-37.983154 32.304596-12.522217 19.147156-15.991821 40.346588-12.872681 62.679688 3.839722 27.492401 17.464112 48.591522 42.272583 61.744415 23.512574 12.46582 48.660401 13.977661 74.38086 9.908936 22.596069-3.574585 41.290161-14.377106 56.04541-31.854676 3.69397-4.375488 7.008423-9.071441 10.63977-13.805725 2.349244 2.892639 4.435791 5.483338 6.544922 8.055451 14.388428 17.547424 32.569458 29.276764 54.416748 35.304413 18.760498 5.175964 37.775879 5.513 56.943848 2.819274 30.717285-4.316955 56.303467-17.918212 75.499023-42.487182 19.114746-24.465607 27.889893-53.105499 32.115479-83.363342 1.443359-10.335175 2.273682-20.755982 3.415771-31.433381 19.660157-.02185 38.707276 2.055634 56.296143 11.302826 7.614258 4.003052 14.418945 9.245087 18.82666 16.739746 12.938233 21.999604 14.98584 45.229523 4.198731 68.321473-8.612549 18.437255-25.509034 25.968933-44.985108 27.882904-6.398193.628723-12.910156.098907-19.351318.098907-.394531 13.012146 7.32959 24.363342 19.851562 29.837036 12.911866 5.643982 26.307618 5.406372 39.740235 3.068604 23.753418-4.134217 43.157715-15.885651 54.824463-37.067047 18.462646-33.518494 18.97998-67.603882-1.49585-101.668946m-816.085693-56.193298c-45.913697-2.319427-78.247681 20.494537-103.29712 56.881744 0-11.067443-.390747-21.298431.085694-31.48883.857544-18.340759 5.349975-35.842529 12.882812-52.646637 15.789307-35.222565 42.581055-57.851471 78.915894-69.704361 22.672974-7.39624 45.938843-8.739441 69.484741-6.146988 31.362427 3.453049 57.832031 16.509293 78.677246 40.521393 20.410645 23.511566 29.119995 51.667816 31.854004 81.895233 1.128296 12.474152.229736 25.137573.145142 37.714172-.164795 24.484894-5.94397 47.769776-15.718506 70.063874-9.882569 22.540588-23.973999 42.083557-42.872803 58.031768-2.915283 2.460206-5.626221 5.162415-8.667724 7.970704 17.06372 8.065673 33.105346 5.381897 48.769653-1.424073 31.829346-13.829529 50.345947-39.914856 63.517944-70.551635 10.665161-24.806122 14.375733-51.143403 14.723023-77.853943.177856-13.678681-.798218-27.569825-3.131836-41.039399-3.921997-22.638488-11.422364-44.224517-23.554444-64.002044-15.999511-26.082245-37.230835-46.617371-64.564941-60.469132-33.026733-16.736389-68.171509-22.41835-105.008545-20.071334-29.211426 1.861145-56.723267 8.969985-82.323242 23.218521-21.80603 12.136917-40.477783 28.102096-54.638428 48.562545-20.568237 29.718689-30.523559 63.387665-32.329956 99.241669-1.040894 20.659119-.260132 41.307251 4.580566 61.764557 6.830689 28.867279 19.112183 54.36142 40.475342 75.387482 20.575562 20.251007 45.839478 29.354217 73.800415 30.777557 12.549927.638794 25.560181-1.231811 37.87854-4.064453 19.965576-4.591003 37.191651-14.928558 50.057495-31.149231 15.709229-19.805756 21.876343-43.093811 20.631104-67.925049-.570068-11.365051-3.185913-23.003418-7.023438-33.750275-7.938476-22.231201-22.946655-38.685607-44.375854-49.309082-12.09375-5.995513-24.883179-8.677368-38.972778-10.434753m-335.071289 5.233124c-4.666748-14.882477-8.154786-30.266998-14.237183-44.546387-14.14563-33.209137-36.61499-59.835968-67.985596-78.198944-43.112182-25.236008-89.63623-31.228973-137.938965-21.042175-49.471801 10.433349-87.493957 37.848007-112.605346 82.128051-14.037842 24.753693-20.93219 51.713807-22.703369 80.004151-3.137207 50.108978 8.274536 96.16217 38.807983 136.701752 10.353394 13.746307 22.839722 25.131347 38.729065 32.274353 15.365295 6.907409 29.18512 4.682434 39.420166-6.161316-2.065552-1.41742-4.112427-2.84253-6.179627-4.237488-22.173522-14.963257-40.542602-33.678833-53.494567-57.089325-28.149048-50.879211-29.959595-103.457428-7.277283-156.59848 9.949219-23.309326 26.440369-41.738526 48.372009-55.017441 23.376892-14.153992 48.907288-19.597702 75.918945-19.203034 11.449158.167283 22.708436 1.690171 33.691956 5.190613-.192383.612961-.201172.986527-.391235 1.193589-2.250855 2.452453-4.531006 4.877944-6.799317 7.314483-19.073486 20.488434-35.225036 42.98822-46.868286 68.543854-20.845093 45.752777-26.894592 93.121948-14.380493 142.16333 6.182007 24.22699 18.460144 44.905029 39.381348 59.525604 27.695434 19.354859 58.47644 22.07013 90.296386 14.677979 35.265992-8.192566 58.90625-31.297425 74.134888-63.148285 18.927612-39.58725 19.821533-81.264404 12.108521-124.474884m-80.461426-241.980377c-2.211182 13.410545-3.436035 26.779792 1.693725 39.877899 6.152222 15.709274 22.565186 22.418167 36.353394 14.840957-5.338013-16.618347-6.655884-33.597244-3.625-50.755073 3.013794-17.059982 10.261719-31.775841 26.209595-40.40892 32.078369-17.364952 70.798217-2.617592 83.456176 31.524894 6.689087 18.042343 9.051026 36.828881 9.070557 55.892517.126831 124.303605.10376 248.607346.129883 372.911057.000366 1.916016 0 3.832031 0 5.652283h56.500122c0-2.141907 0-4.111451 0-6.080994 0-113.306458.016601-226.612885-.020752-339.919342-.004761-14.1604.050293-28.334885-.532105-42.477737-.884277-21.470833-5.113769-42.268784-14.792968-61.650597-11.80542-23.639454-29.560669-40.704666-54.99939-49.193625-22.578613-7.534441-45.56897-8.55562-68.408813-2.488998-37.305787 9.908981-61.830933 33.168135-71.034424 72.275679z" fill="#fff"/><path d="m53.745239 498.250793c-21.656299-23.855133-34.012481-51.870819-40.139669-82.812744-7.439498-37.569091-7.088644-75.003936 5.222952-111.502319 20.953342-62.117325 64.288574-99.418167 128.255203-113.020844 24.406692-5.190139 49.078125-4.938079 73.636551-2.292465 16.639084 1.792496 33.059265 5.585236 49.60437 8.319931 2.158508.356781 4.604034.149811 6.70459-.491043 34.452667-10.510559 69.364899-12.619079 104.574798-4.925018 40.940186 8.946228 72.175629 32.108673 95.147767 66.832535 1.559783 2.357727 3.044158 4.76535 4.653411 7.290802 4.572724-6.728882 8.733155-13.631958 13.645691-19.950272 27.284058-35.091934 63.460572-53.914093 107.519837-57.77507 40.842468-3.579102 78.950927 4.888519 113.126159 27.90068 39.462403 26.572266 62.873475 64.45488 74.146973 110.040238 8.050476 32.552978 9.670044 65.510071 2.317139 98.502045-6.444336 28.914672-18.797791 54.666595-41.212952 74.841949-18.535156 16.683136-40.369995 25.275787-65.143433 26.829254-15.60968.97876-30.977905-.157898-45.827148-5.339783-29.650574-10.347076-49.136291-31.070678-59.907959-60.119995-12.72168-34.307953-12.593018-69.511841-5.592224-104.86853 9.200745-46.466766 32.366394-85.537476 64.718994-119.541305 2.381409-2.502945 5.110596-4.674988 8.674927-7.903931-37.315735-9.25589-71.415955-7.246292-102.206909 14.731262-20.337952 14.516647-31.890381 35.318344-38.550324 59.071487-4.356323 15.537018-5.58667 31.42862-5.597046 47.45636-.036102 55.831055-.013977 111.662079-.013977 167.493134v5.704651c-19.069946 0-37.803039 0-57.00592 0 0-1.853577 0-3.651367 0-5.449097 0-55.664398-.000794-111.328766.000397-166.993164.000457-20.274811-2.127076-40.231934-9.298218-59.365997-14.580261-38.903122-41.83667-62.456238-83.496613-67.973923-10.486542-1.388886-21.144134-1.48613-31.723144-2.176956-.100556.513092-.201142 1.026184-.301697 1.539261 5.717377 3.66719 11.639099 7.054657 17.1138 11.054046 16.338959 11.935913 28.432068 27.092026 33.467438 47.029953 5.048889 19.991486 4.205963 39.420471-8.050202 56.925171-8.501434 12.14206-20.618164 19.710358-34.418487 24.533203-5.945008 2.077607-12.178833 3.322113-18.259644 5.02298-1.328705.371674-2.564453 1.075653-3.618011 2.834229 3.757171 1.119476 7.54364 2.14981 11.266693 3.373077 21.803711 7.163971 38.809509 20.111237 49.401489 40.87738 12.520569 24.547211 7.858307 60.000824-10.414978 80.678955-13.343628 15.099732-30.350311 23.768311-49.573517 28.014222-29.218811 6.453674-58.25235 5.607421-86.515304-5.078309-29.79802-11.266174-49.696015-32.914306-61.998383-61.624877-14.965866-34.926453-17.617767-71.565857-12.335831-108.810852 5.98584-42.208466 24.956101-77.939026 55.782685-107.331421 5.268326-5.023178 11.037353-9.521225 17.465423-15.024079-5.559112-.435119-10.218445-.85234-14.885132-1.156341-24.833618-1.617752-49.237655.11821-72.777694 9.057541-33.256348 12.629104-57.764481 35.094741-72.120751 67.384353-20.282295 45.618256-20.124115 92.289612-1.83733 138.44574 12.124722 30.602966 33.961804 53.805054 60.892842 72.338837 2.603645 1.791839 5.219177 3.566375 8.098739 5.532989-8.521247 9.94458-19.328353 11.721558-31.116813 8.918396-16.848229-4.006348-29.761994-14.377807-41.499558-27.046326m255.563416-227.992157c-9.706299-16.908279-25.318939-26.450775-42.536804-33.912673-1.115296-.483368-2.935822-.070511-4.148652.509872-25.730758 12.313065-46.410202 30.313873-61.30043 54.771942-14.443924 23.725006-21.154892 49.772583-22.85405 77.240845-1.443038 23.327576.601426 46.250885 9.049836 68.296722 5.903274 15.404389 14.772369 28.790863 28.109909 38.639527 19.410095 14.332672 41.353622 17.515441 64.56401 12.742584 13.268311-2.728455 24.259125-9.452912 30.799408-21.748261 16.613221-31.232025.106812-70.344665-33.878387-79.668396-9.348786-2.564758-19.211395-3.256591-29.096909-4.849517 0-8.802887 0-18.079896 0-27.781006 2.268616-.102173 4.401123-.201386 6.533921-.293763 11.735992-.508331 23.2005-2.506622 34.008667-7.188354 15.157898-6.56604 25.320922-17.52298 28.402099-34.170624 2.748963-14.852569-.311432-28.765686-7.652618-42.588898m423.567077 64.469941c-3.72937-16.662659-9.530273-32.568024-17.833618-47.492127-9.742187-17.510162-22.131897-32.741989-39.102905-44.326462-14.522278 13.780075-27.145447 28.945694-37.721802 45.793045-19.397583 30.898774-30.578979 64.556794-32.98645 100.959992-1.45105 21.942718-.17157 43.659515 9.098084 64.132324 17.48059 38.607697 57.956176 43.347351 84.945739 30.644165 17.516907-8.244659 26.59784-23.827637 31.692017-41.632263 10.156555-35.497986 9.657532-71.343567 1.908935-108.078674z" fill="#010101"/><path d="m2354.553711 386.504059c20.251953 33.779541 19.734619 67.864929 1.271973 101.383423-11.666748 21.181396-31.071045 32.93283-54.824463 37.067047-13.432617 2.337768-26.828369 2.575378-39.740235-3.068604-12.521972-5.473694-20.246093-16.82489-19.851562-29.837036 6.441162 0 12.953125.529816 19.351318-.098907 19.476074-1.913971 36.372559-9.445649 44.985108-27.882904 10.787109-23.09195 8.739502-46.321869-4.198731-68.321473-4.407715-7.494659-11.212402-12.736694-18.82666-16.739746-17.588867-9.247192-36.635986-11.324676-56.296143-11.302826-1.142089 10.677399-1.972412 21.098206-3.415771 31.433381-4.225586 30.257843-13.000733 58.897735-32.115479 83.363342-19.195556 24.56897-44.781738 38.170227-75.499023 42.487182-19.167969 2.693726-38.18335 2.35669-56.943848-2.819274-21.84729-6.027649-40.02832-17.756989-54.416748-35.304413-2.109131-2.572113-4.195678-5.162812-6.544922-8.055451-3.631347 4.734284-6.9458 9.430237-10.63977 13.805725-14.755249 17.47757-33.449341 28.280091-56.04541 31.854676-25.720459 4.068725-50.868286 2.556884-74.38086-9.908936-24.808471-13.152893-38.432861-34.252014-42.272583-61.744415-3.11914-22.3331.350464-43.532532 12.872681-62.679688 9.453979-14.455902 22.714722-24.61969 37.983154-32.304596 24.974854-12.570404 51.864868-17.553588 79.414429-19.802795 6.625855-.540924 13.277588-.76712 20.197388-1.153748 1.135742-8.911926 1.903442-17.822296 3.455566-26.593902 5.528809-31.248047 15.573853-60.603394 36.936646-84.995026 16.95935-19.363998 38.140014-31.45935 63.425537-36.058853 23.013916-4.18634 45.93872-2.789307 68.176513 4.150101 26.984375 8.420639 47.720215 25.415008 62.329346 49.583206 16.571289 27.414017 23.541016 57.71788 25.974365 89.294327.102051 1.321869.207764 2.643432.343262 4.366363 9.11792.470734 18.217529.698883 27.273438 1.453278 27.374755 2.280334 53.571044 8.54837 76.908447 23.858185 9.855957 6.465576 18.016601 14.731933 25.113037 24.572357m-203.916016 68.612213c14.42627-27.348541 16.358887-57.133759 17.637451-87.354431-56.834228 0-113.031494 0-169.747192 0 1.622925 29.09848 6.717285 56.847992 21.271973 82.159424 8.308227 14.448272 19.354614 26.172454 34.480346 33.703796 12.321045 6.134827 25.424073 7.223908 38.916993 6.498596 25.16333-1.352661 44.593261-12.039642 57.440429-35.007385m-57.137695-118.11731h74.189941c-.269775-5.008331-.408691-9.165863-.732177-13.30899-1.389893-17.799255-3.918702-35.396027-10.075684-52.266846-5.480957-15.01886-13.54956-28.346191-27.294922-37.163391-32.168701-20.635162-77.729248-12.638092-101.32251 17.456528-12.369262 15.777817-19.918212 33.781845-24.167846 53.180954-2.286988 10.440216-3.69336 21.073334-5.579712 32.101745zm-214.182617 139.123047c1.834228 1.926178 3.611084 3.910981 5.511841 5.769165 14.75 14.420899 47.698608 14.526276 65.483276 4.30954 14.538574-8.35199 22.87146-21.438934 29.147339-36.24826.606811-1.432099.256836-3.596497-.336304-5.16034-7.19043-18.95877-11.310791-38.598907-13.321899-58.723327-.60437-6.049286-1.171387-12.102295-1.768067-18.282166-18.937378.075623-36.962646 2.343292-53.789184 9.618713-8.100464 3.502411-15.850342 8.62323-22.550293 14.410523-23.425904 20.235107-23.629151 64.212707-8.376709 84.306152z" fill="#c47034"/><path d="m1538.713379 330.036499c13.620361 1.746124 26.40979 4.427979 38.50354 10.423492 21.429199 10.623475 36.437378 27.077881 44.375854 49.309082 3.837525 10.746857 6.45337 22.385224 7.023438 33.750275 1.245239 24.831238-4.921875 48.119293-20.631104 67.925049-12.865844 16.220673-30.091919 26.558228-50.057495 31.149231-12.318359 2.832642-25.328613 4.703247-37.87854 4.064453-27.960937-1.42334-53.224853-10.52655-73.800415-30.777557-21.363159-21.026062-33.644653-46.520203-40.475342-75.387482-4.840698-20.457306-5.62146-41.105438-4.580566-61.764557 1.806397-35.854004 11.761719-69.52298 32.329956-99.241669 14.160645-20.460449 32.832398-36.425628 54.638428-48.562545 25.599975-14.248536 53.111816-21.357376 82.323242-23.218521 36.837036-2.347016 71.981812 3.334945 105.008545 20.071334 27.334106 13.851761 48.56543 34.386887 64.564941 60.469132 12.13208 19.777527 19.632447 41.363556 23.554444 64.002044 2.333618 13.469574 3.309692 27.360718 3.131836 41.039399-.34729 26.71054-4.057862 53.047821-14.723023 77.853943-13.171997 30.636779-31.688598 56.722106-63.517944 70.551635-15.664307 6.80597-31.705933 9.489746-48.769653 1.424073 3.041503-2.808289 5.752441-5.510498 8.667724-7.970704 18.898804-15.948211 32.990234-35.49118 42.872803-58.031768 9.774536-22.294098 15.553711-45.57898 15.718506-70.063874.084594-12.576599.983154-25.24002-.145142-37.714172-2.734009-30.227417-11.443359-58.383667-31.854004-81.895233-20.845215-24.0121-47.314819-37.068344-78.677246-40.521393-23.545898-2.592453-46.811767-1.249252-69.484741 6.146988-36.334839 11.85289-63.126587 34.481796-78.915894 69.704361-7.532837 16.804108-12.025268 34.305878-12.882812 52.646637-.476441 10.190399-.085694 20.421387-.085694 31.48883 25.049439-36.387207 57.383423-59.201171 103.766358-56.870483m-64.012573 51.066162c-1.578003 1.475098-3.098633 3.017517-4.743164 4.414337-10.951294 9.301789-19.877564 20.291779-27.413941 32.483551-1.945434 3.147339-2.642456 6.049897-1.195679 9.740235 4.73938 12.089508 10.150879 23.671966 18.570191 33.81546 16.869385 20.324158 37.558349 31.679779 64.586792 28.387421 20.648926-2.515259 35.770874-12.972321 43.880737-32.533905 6.701172-16.163178 7.526856-32.924073 3.257691-49.691163-4.027954-15.820068-13.184449-28.697784-28.291748-35.206512-23.893677-10.294037-46.900391-7.359375-68.650879 8.590576z" fill="#cdb592"/><path d="m1203.25708 335.678467c7.628784 42.790375 6.734863 84.467529-12.192749 124.054779-15.228638 31.85086-38.868896 54.955719-74.134888 63.148285-31.819946 7.392151-62.600952 4.67688-90.296386-14.677979-20.921204-14.620575-33.199341-35.298614-39.381348-59.525604-12.514099-49.041382-6.4646-96.410553 14.380493-142.16333 11.64325-25.555634 27.7948-48.05542 46.868286-68.543854 2.268311-2.436539 4.548462-4.86203 6.799317-7.314483.190063-.207062.198852-.580628.391235-1.193589-10.98352-3.500442-22.242798-5.02333-33.691956-5.190613-27.011657-.394668-52.542053 5.049042-75.918945 19.203034-21.93164 13.278915-38.42279 31.708115-48.372009 55.017441-22.682312 53.141052-20.871765 105.719269 7.277283 156.59848 12.951965 23.410492 31.321045 42.126068 53.494567 57.089325 2.0672 1.394958 4.114075 2.820068 6.179627 4.237488-10.235046 10.84375-24.054871 13.068725-39.420166 6.161316-15.889343-7.143006-28.375671-18.528046-38.729065-32.274353-30.533447-40.539582-41.94519-86.592774-38.807983-136.701752 1.771179-28.290344 8.665527-55.250458 22.703369-80.004151 25.111389-44.280044 63.133545-71.694702 112.605346-82.128051 48.302735-10.186798 94.826783-4.193833 137.938965 21.042175 31.370606 18.362976 53.839966 44.989807 67.985596 78.198944 6.082397 14.279389 9.570435 29.66391 14.321411 44.966492m-58.97583 99.040436c3.9021-15.954651 5.122314-32.195984 5.137085-48.559052.031128-34.351868-6.422974-67.189087-23.254761-97.49527-9.910522-17.844116-23.075561-32.82492-40.092163-44.518066-4.187012 4.183273-8.386474 7.970947-12.120483 12.172272-42.2146 47.496551-62.801941 102.491668-56.900513 166.386993 1.470642 15.923004 6.509155 30.734833 15.971436 44.040772 22.031494 30.980987 71.336303 29.902343 91.823608 7.157958 10.003662-11.105682 15.690552-24.154754 19.435791-39.185607z" fill="#020202"/><path d="m1122.779297 92.857101c9.13562-38.68666 33.660766-61.945814 70.966553-71.854795 22.839843-6.066622 45.8302-5.045443 68.408813 2.488998 25.438721 8.488959 43.19397 25.554171 54.99939 49.193625 9.679199 19.381813 13.908691 40.179764 14.792968 61.650597.582398 14.142852.527344 28.317337.532105 42.477737.037353 113.306457.020752 226.612884.020752 339.919342v6.080994c-18.89978 0-37.354248 0-56.500122 0 0-1.820252.000366-3.736267 0-5.652283-.026123-124.303711-.003052-248.607452-.129883-372.911057-.019531-19.063636-2.38147-37.850174-9.070557-55.892517-12.657959-34.142486-51.377807-48.889846-83.456176-31.524894-15.947876 8.633079-23.195801 23.348938-26.209595 40.40892-3.030884 17.157829-1.713013 34.136726 3.625 50.755073-13.788208 7.57721-30.201172.868317-36.353394-14.840957-5.12976-13.098107-3.904907-26.467354-1.625854-40.298783z" fill="#010101"/><path d="m309.520355 270.56076c7.129486 13.521088 10.189881 27.434205 7.440918 42.286774-3.081177 16.647644-13.244201 27.604584-28.402099 34.170624-10.808167 4.681732-22.272675 6.680023-34.008667 7.188354-2.132798.092377-4.265305.19159-6.533921.293763v27.781006c9.885514 1.592926 19.748123 2.284759 29.096909 4.849517 33.985199 9.323731 50.491608 48.436371 33.878387 79.668396-6.540283 12.295349-17.531097 19.019806-30.799408 21.748261-23.210388 4.772857-45.153915 1.590088-64.56401-12.742584-13.33754-9.848664-22.206635-23.235138-28.109909-38.639527-8.44841-22.045837-10.492874-44.969146-9.049836-68.296722 1.699158-27.468262 8.410126-53.515839 22.85405-77.240845 14.890228-24.458069 35.569672-42.458877 61.30043-54.771942 1.21283-.580383 3.033356-.99324 4.148652-.509872 17.217865 7.461898 32.830505 17.004394 42.748504 34.214797z" fill="#fefefe"/><path d="m732.939026 335.141205c7.685303 36.322479 8.184326 72.16806-1.972229 107.666046-5.094177 17.804626-14.17511 33.387604-31.692017 41.632263-26.989563 12.703186-67.465149 7.963532-84.945739-30.644165-9.269654-20.472809-10.549134-42.189606-9.098084-64.132324 2.407471-36.403198 13.588867-70.061218 32.98645-100.959992 10.576355-16.847351 23.199524-32.01297 37.721802-45.793045 16.971008 11.584473 29.360718 26.8163 39.102905 44.326462 8.303345 14.924103 14.104248 30.829468 17.896912 47.904755z" fill="#fefefe"/><path d="m2150.443115 455.427521c-12.652588 22.656494-32.082519 33.343475-57.245849 34.696136-13.49292.725312-26.595948-.363769-38.916993-6.498596-15.125732-7.531342-26.172119-19.255524-34.480346-33.703796-14.554688-25.311432-19.649048-53.060944-21.271973-82.159424h169.747192c-1.278564 30.220672-3.211181 60.00589-17.832031 87.66568z" fill="#fffefd"/><path d="m2093 336.998962c-31.46167 0-62.423218 0-94.48291 0 1.886352-11.028411 3.292724-21.661529 5.579712-32.101745 4.249634-19.399109 11.798584-37.403137 24.167846-53.180954 23.593262-30.09462 69.153809-38.09169 101.32251-17.456528 13.745362 8.8172 21.813965 22.144531 27.294922 37.163391 6.156982 16.870819 8.685791 34.467591 10.075684 52.266846.323486 4.143127.462402 8.300659.732177 13.30899-24.768066 0-49.479003 0-74.689941 0z" fill="#fffffe"/><path d="m1879.084229 475.844238c-15.019288-19.815674-14.816041-63.793274 8.609863-84.028381 6.699951-5.787293 14.449829-10.908112 22.550293-14.410523 16.826538-7.275421 34.851806-9.54309 53.789184-9.618713.59668 6.179871 1.163697 12.23288 1.768067 18.282166 2.011108 20.12442 6.131469 39.764557 13.321899 58.723327.59314 1.563843.943115 3.728241.336304 5.16034-6.275879 14.809326-14.608765 27.89627-29.147339 36.24826-17.784668 10.216736-50.733276 10.111359-65.483276-4.30954-1.900757-1.858184-3.677613-3.842987-5.744995-6.046936z" fill="#fffefe"/><path d="m1475.040405 380.981049c21.410889-15.828339 44.417603-18.763001 68.31128-8.468964 15.107299 6.508728 24.263794 19.386444 28.291748 35.206512 4.269165 16.76709 3.443481 33.527985-3.257691 49.691163-8.109863 19.561584-23.231811 30.018646-43.880737 32.533905-27.028443 3.292358-47.717407-8.063263-64.586792-28.387421-8.419312-10.143494-13.830811-21.725952-18.570191-33.81546-1.446777-3.690338-.749755-6.592896 1.195679-9.740235 7.536377-12.191772 16.462647-23.181762 27.413941-32.483551 1.644531-1.39682 3.165161-2.939239 5.082763-4.535949z" fill="#fff"/><path d="m1144.192139 435.123291c-3.656128 14.626465-9.343018 27.675537-19.34668 38.781219-20.487305 22.744385-69.792114 23.823029-91.823608-7.157958-9.462281-13.305939-14.500794-28.117768-15.971436-44.040772-5.901428-63.895325 14.685913-118.890442 56.900513-166.386993 3.734009-4.201325 7.933471-7.988999 12.120483-12.172272 17.016602 11.693146 30.181641 26.67395 40.092163 44.518066 16.831787 30.306183 23.285889 63.143402 23.254761 97.49527-.014771 16.363068-1.234985 32.604401-5.226196 48.96344z" fill="#fefefe"/></svg>