<svg version="1.1" id="Layer_1" xmlns="http://www.w3.org/2000/svg" xmlns:xlink="http://www.w3.org/1999/xlink" x="0px" y="0px"
	 width="100%" viewBox="0 0 1668 858" enable-background="new 0 0 1668 858" xml:space="preserve">
<path fill="#FFFFFF" opacity="1.000000" stroke="none" 
	d="
M1081.000000,859.000000 
	C720.666687,859.000000 360.833344,859.000000 1.000000,859.000000 
	C1.000000,573.000000 1.000000,287.000000 1.000000,1.000000 
	C557.000000,1.000000 1113.000000,1.000000 1669.000000,1.000000 
	C1669.000000,287.000000 1669.000000,573.000000 1669.000000,859.000000 
	C1473.166626,859.000000 1277.333374,859.000000 1081.000000,859.000000 
M432.365326,358.500061 
	C432.365143,294.008820 432.352905,229.517593 432.372864,165.026367 
	C432.378204,147.819046 431.254120,130.767136 426.147766,114.185814 
	C420.393768,95.501320 410.513763,79.746765 394.096710,68.549934 
	C377.130524,56.978565 357.945374,52.290619 337.875885,52.169659 
	C268.721069,51.752869 199.562851,51.897831 130.405930,51.835438 
	C114.408005,51.821003 98.408119,51.677708 82.412704,51.878445 
	C67.860542,52.061069 57.288536,46.584564 52.257793,32.247520 
	C51.385414,29.761341 50.043045,27.397429 48.644909,25.146517 
	C44.725765,18.836948 39.915703,18.024363 35.003632,23.658350 
	C31.937517,27.175079 29.429621,31.674171 28.132280,36.155407 
	C20.747650,61.663258 21.287663,87.860283 22.690464,113.990631 
	C23.231234,124.063713 24.935713,134.169968 27.125959,144.035553 
	C30.115322,157.500626 37.162918,168.438965 50.688240,173.577866 
	C56.137783,175.648422 62.047600,176.507553 68.127144,178.011826 
	C66.435539,180.145386 64.795425,182.191925 63.178539,184.256653 
	C39.397743,214.624298 25.085268,248.575058 25.017267,287.610504 
	C24.865435,374.765594 24.956718,461.921112 24.967333,549.076477 
	C24.967485,550.332336 25.205442,551.588257 25.317556,552.697144 
	C161.149216,552.697144 296.568420,552.697144 432.365723,552.697144 
	C432.365723,488.096649 432.365723,423.798370 432.365326,358.500061 
M1603.269775,534.818481 
	C1614.140015,482.913666 1625.455566,431.096832 1635.736572,379.075562 
	C1643.667358,338.946930 1645.961548,298.181213 1645.457031,257.341553 
	C1645.237427,239.572739 1643.947510,221.734818 1641.805420,204.090759 
	C1638.309448,175.295746 1630.015015,147.820770 1615.592896,122.439316 
	C1598.087158,91.630875 1572.775269,69.245682 1541.113281,53.788795 
	C1515.409912,41.240723 1489.022217,31.106756 1459.976196,29.555126 
	C1444.407349,28.723444 1434.880859,36.644672 1434.983398,52.226433 
	C1435.036743,60.323273 1436.455933,68.427841 1437.497681,76.497986 
	C1439.709106,93.631035 1442.120239,110.738243 1444.356201,127.868217 
	C1445.069214,133.328995 1442.687134,137.696106 1438.517212,140.937317 
	C1435.650757,143.165482 1432.592407,145.558960 1429.222046,146.654449 
	C1415.645996,151.067093 1401.917114,155.009491 1388.231812,159.082809 
	C1387.894531,159.183212 1387.409058,158.786087 1386.803589,158.546082 
	C1391.769043,142.891510 1391.551392,127.034424 1390.081177,110.996712 
	C1388.274536,91.289352 1379.519653,76.614128 1361.083496,68.388763 
	C1357.594116,66.831947 1354.081421,65.315781 1350.519409,63.935905 
	C1339.360596,59.613167 1328.045776,55.663227 1317.047241,50.968933 
	C1310.980469,48.379486 1305.301147,44.788185 1299.689941,41.261993 
	C1296.520996,39.270500 1295.233521,36.205093 1296.487305,32.160862 
	C1297.626099,28.487976 1298.326782,24.340557 1294.822632,21.506191 
	C1291.188599,18.566742 1287.244995,20.190062 1283.529907,21.887672 
	C1282.624878,22.301235 1281.701904,22.733669 1280.905151,23.318153 
	C1261.691772,37.411564 1247.001099,54.794083 1241.856567,78.710518 
	C1238.092896,96.207153 1239.706787,113.841423 1241.658691,131.409546 
	C1244.123169,153.591553 1256.628174,168.227890 1276.650391,176.783371 
	C1289.017334,182.067764 1301.628662,186.782455 1314.150024,191.702362 
	C1316.676880,192.695206 1319.293213,193.460449 1322.447388,194.526337 
	C1320.885864,195.861298 1319.937988,196.758774 1318.903809,197.542542 
	C1306.246338,207.134491 1294.599854,217.768417 1284.561768,230.139694 
	C1265.440186,253.705902 1252.736450,280.250580 1250.079468,310.580170 
	C1248.430542,329.403259 1248.885986,348.453522 1249.148682,367.391388 
	C1249.549927,396.331543 1251.259155,425.264709 1251.170898,454.197083 
	C1251.098145,478.059326 1248.122070,501.612885 1237.600952,523.709534 
	C1235.228760,528.691650 1235.050903,535.022644 1235.019043,540.739197 
	C1234.977539,548.156860 1240.093628,553.431824 1247.429932,552.676697 
	C1253.103638,552.092651 1259.386963,550.095398 1263.857178,546.697571 
	C1272.952881,539.783752 1281.328491,531.814453 1289.339600,523.632507 
	C1292.791748,520.106628 1295.734009,515.254456 1296.920410,510.508026 
	C1299.448242,500.394562 1301.391846,490.018372 1302.291626,479.638580 
	C1304.247314,457.075470 1305.612305,434.400116 1302.179443,411.863281 
	C1299.352173,393.303162 1295.274292,374.928375 1292.643188,356.345093 
	C1290.193481,339.043274 1289.312622,321.525574 1291.413208,304.094452 
	C1294.344849,279.769165 1304.714844,258.575378 1320.178833,239.834915 
	C1340.703979,214.961060 1365.514404,195.943069 1396.198120,185.099289 
	C1420.731079,176.429184 1445.942993,175.373993 1471.559570,177.858871 
	C1505.710571,181.171631 1536.709961,192.291367 1563.239014,214.510864 
	C1592.651978,239.145706 1608.796387,270.618347 1610.015625,309.046844 
	C1611.213989,346.817474 1607.111328,384.132294 1598.341553,420.941986 
	C1597.183594,425.802124 1595.621582,427.536194 1590.356445,427.519897 
	C1523.533203,427.312927 1456.709229,427.413849 1389.885498,427.305725 
	C1386.036011,427.299500 1384.510254,428.264374 1383.691406,432.282257 
	C1380.205688,449.386658 1376.224609,466.389771 1372.457520,483.437195 
	C1367.367432,506.472015 1362.307739,529.513550 1357.187622,552.766785 
	C1437.937256,552.766785 1518.362061,552.766785 1598.997314,552.766785 
	C1600.394531,546.940979 1601.750366,541.287354 1603.269775,534.818481 
M918.363953,530.868347 
	C928.185974,520.315125 939.330933,511.457092 951.791626,504.168823 
	C971.934570,492.387207 993.159424,482.968140 1015.030701,474.987671 
	C1046.409058,463.538208 1077.660889,451.900726 1106.279053,434.226074 
	C1129.206787,420.065704 1145.613525,400.946442 1154.338013,375.168335 
	C1164.284546,345.779785 1167.335693,315.429291 1167.946167,284.720032 
	C1168.615723,251.039749 1167.389771,217.419891 1163.004517,183.977646 
	C1159.753174,159.183243 1154.849487,134.765671 1144.891235,111.667313 
	C1137.742310,95.085388 1128.005127,80.446663 1112.797119,69.931770 
	C1095.658325,58.082020 1076.355713,52.915104 1055.972656,52.227863 
	C1033.166382,51.458920 1010.318909,51.858040 987.489258,51.842278 
	C937.162170,51.807526 886.834229,51.676128 836.508423,51.926033 
	C821.388794,52.001114 810.304016,46.940365 805.118103,31.899406 
	C804.262146,29.416840 802.874084,27.072063 801.457947,24.837194 
	C797.772644,19.020870 793.118408,18.110556 788.499451,23.232019 
	C785.274475,26.807787 782.254578,31.426277 781.300293,36.026569 
	C778.742737,48.354671 776.555237,60.867172 775.661621,73.409088 
	C774.084900,95.539322 774.405884,117.708878 779.005066,139.580338 
	C782.757935,157.427429 791.405029,171.235748 810.517029,175.394836 
	C816.633118,176.725815 823.061646,177.087555 829.348389,177.096817 
	C904.505554,177.207718 979.664673,177.474854 1054.819702,177.055725 
	C1101.261475,176.796722 1128.518921,204.112961 1138.495361,238.451950 
	C1145.791748,263.566223 1144.962646,289.118408 1140.364258,314.656342 
	C1134.869873,345.170410 1118.875854,366.632599 1088.346924,376.033691 
	C1062.005005,384.145447 1035.763916,392.587402 1009.511414,400.987183 
	C975.827820,411.764648 943.261536,424.899292 914.643860,446.312134 
	C884.207336,469.085815 870.457458,499.581573 872.942749,537.313599 
	C873.959778,552.753601 887.556641,558.685181 900.195068,549.642578 
	C902.346436,548.103271 904.362732,546.304932 906.174194,544.375366 
	C910.162964,540.126404 913.981079,535.717224 918.363953,530.868347 
M643.649414,58.774426 
	C634.892090,54.305328 625.482300,52.249626 615.764648,52.070736 
	C599.441284,51.770245 583.108276,51.711227 566.782898,51.883625 
	C552.299622,52.036572 541.606384,46.773296 536.475403,32.475323 
	C535.697937,30.308680 534.474976,28.279560 533.293884,26.284008 
	C528.455933,18.109772 522.040771,17.896557 517.094910,26.233015 
	C514.428406,30.727571 512.182068,35.816689 511.212250,40.916374 
	C505.056580,73.285355 504.808289,105.822098 510.420807,138.266296 
	C512.802185,152.032425 518.227600,164.482925 531.565735,171.574371 
	C540.355774,176.247757 549.908264,177.089615 559.640686,177.189697 
	C579.124390,177.390060 598.625122,177.287537 618.083069,178.133270 
	C629.753601,178.640518 640.130981,183.135849 647.282043,193.088608 
	C653.736633,202.072113 655.194946,212.518951 654.598999,223.075119 
	C652.806335,254.832214 650.838806,286.585907 648.367676,318.296387 
	C645.948669,349.338196 642.824951,380.325012 640.014282,411.336304 
	C637.143433,443.010864 634.203125,474.679382 631.448486,506.364044 
	C630.468262,517.638672 629.634033,528.945374 629.359375,540.252625 
	C629.244995,544.957458 629.883484,550.537964 635.201050,552.568237 
	C640.219421,554.484253 643.341248,550.025085 646.830200,547.353210 
	C646.961853,547.252380 647.092773,547.141479 647.194763,547.012207 
	C658.616699,532.536499 670.420044,518.336182 681.209229,503.403107 
	C684.246338,499.199524 685.551270,492.845978 685.550720,487.478790 
	C685.540405,379.508698 685.378357,271.537811 684.793579,163.569565 
	C684.709167,147.995728 683.324402,132.259796 680.720337,116.907761 
	C676.648071,92.900261 666.963257,71.725555 643.649414,58.774426 
M785.110596,842.559631 
	C796.925110,849.215515 804.957092,847.518677 812.399780,836.449524 
	C814.886414,832.751160 817.098450,828.775818 818.815979,824.667847 
	C829.360718,799.446655 834.533020,772.860840 837.884644,745.916870 
	C843.774963,698.564148 843.353455,651.159912 837.743591,603.809021 
	C832.161194,556.690796 826.044128,509.634125 820.729492,462.486481 
	C816.602844,425.877563 814.196228,389.110321 815.127869,352.238342 
	C815.644714,331.781403 820.757812,312.502869 832.257019,295.183929 
	C836.202576,289.241547 839.661438,282.964203 843.131897,276.722748 
	C845.109192,273.166718 844.590820,263.767700 841.783081,262.713715 
	C838.624878,261.528229 833.940979,261.323608 831.143066,262.884003 
	C824.705933,266.473999 818.103882,270.556213 813.161316,275.909088 
	C782.960938,308.616364 769.733887,347.640503 771.420288,391.943237 
	C772.320435,415.589966 773.114197,439.240753 773.957520,462.889648 
	C775.786560,514.183838 778.552368,565.466614 779.174988,616.775452 
	C779.760986,665.071106 778.223572,713.396790 777.339661,761.704041 
	C776.998413,780.355530 775.552917,798.987671 775.264404,817.638733 
	C775.123962,826.724609 777.267334,835.533020 785.110596,842.559631 
z"/>
<path fill="#C56F33" opacity="1.000000" stroke="none" 
	d="
M432.365540,359.000061 
	C432.365723,423.798370 432.365723,488.096649 432.365723,552.697144 
	C296.568420,552.697144 161.149216,552.697144 25.317556,552.697144 
	C25.205442,551.588257 24.967485,550.332336 24.967333,549.076477 
	C24.956718,461.921112 24.865435,374.765594 25.017267,287.610504 
	C25.085268,248.575058 39.397743,214.624298 63.178539,184.256653 
	C64.795425,182.191925 66.435539,180.145386 68.127144,178.011826 
	C62.047600,176.507553 56.137783,175.648422 50.688240,173.577866 
	C37.162918,168.438965 30.115322,157.500626 27.125959,144.035553 
	C24.935713,134.169968 23.231234,124.063713 22.690464,113.990631 
	C21.287663,87.860283 20.747650,61.663258 28.132280,36.155407 
	C29.429621,31.674171 31.937517,27.175079 35.003632,23.658350 
	C39.915703,18.024363 44.725765,18.836948 48.644909,25.146517 
	C50.043045,27.397429 51.385414,29.761341 52.257793,32.247520 
	C57.288536,46.584564 67.860542,52.061069 82.412704,51.878445 
	C98.408119,51.677708 114.408005,51.821003 130.405930,51.835438 
	C199.562851,51.897831 268.721069,51.752869 337.875885,52.169659 
	C357.945374,52.290619 377.130524,56.978565 394.096710,68.549934 
	C410.513763,79.746765 420.393768,95.501320 426.147766,114.185814 
	C431.254120,130.767136 432.378204,147.819046 432.372864,165.026367 
	C432.352905,229.517593 432.365143,294.008820 432.365540,359.000061 
M87.495857,208.007843 
	C73.066154,231.359100 66.547508,256.608521 68.181953,284.143707 
	C69.316833,303.262756 69.461090,322.441162 70.012627,341.594086 
	C70.784836,368.409698 71.517365,395.226440 72.294418,422.041901 
	C72.341385,423.662598 72.630836,425.276276 72.816376,426.974854 
	C180.722443,426.974854 288.250000,426.974854 396.032288,426.974854 
	C396.032288,424.932312 396.076019,423.284241 396.025665,421.639038 
	C395.408691,401.487854 394.740295,381.338226 394.158569,361.186066 
	C392.994965,320.879791 391.930267,280.570587 390.703949,240.266266 
	C390.379974,229.619141 390.052246,218.940048 388.952240,208.356064 
	C387.256409,192.039658 379.458923,183.031342 363.479309,179.998688 
	C353.411743,178.088028 342.995636,177.384247 332.725098,177.287933 
	C298.563354,176.967575 264.396759,177.166641 230.232025,177.166656 
	C191.734207,177.166672 153.236221,177.127380 114.738930,177.269745 
	C112.547935,177.277832 109.526657,178.123383 108.312202,179.684311 
	C101.268776,188.737106 94.651390,198.121384 87.495857,208.007843 
z"/>
<path fill="#C57034" opacity="1.000000" stroke="none" 
	d="
M1603.187988,535.226074 
	C1601.750366,541.287354 1600.394531,546.940979 1598.997314,552.766785 
	C1518.362061,552.766785 1437.937256,552.766785 1357.187622,552.766785 
	C1362.307739,529.513550 1367.367432,506.472015 1372.457520,483.437195 
	C1376.224609,466.389771 1380.205688,449.386658 1383.691406,432.282257 
	C1384.510254,428.264374 1386.036011,427.299500 1389.885498,427.305725 
	C1456.709229,427.413849 1523.533203,427.312927 1590.356445,427.519897 
	C1595.621582,427.536194 1597.183594,425.802124 1598.341553,420.941986 
	C1607.111328,384.132294 1611.213989,346.817474 1610.015625,309.046844 
	C1608.796387,270.618347 1592.651978,239.145706 1563.239014,214.510864 
	C1536.709961,192.291367 1505.710571,181.171631 1471.559570,177.858871 
	C1445.942993,175.373993 1420.731079,176.429184 1396.198120,185.099289 
	C1365.514404,195.943069 1340.703979,214.961060 1320.178833,239.834915 
	C1304.714844,258.575378 1294.344849,279.769165 1291.413208,304.094452 
	C1289.312622,321.525574 1290.193481,339.043274 1292.643188,356.345093 
	C1295.274292,374.928375 1299.352173,393.303162 1302.179443,411.863281 
	C1305.612305,434.400116 1304.247314,457.075470 1302.291626,479.638580 
	C1301.391846,490.018372 1299.448242,500.394562 1296.920410,510.508026 
	C1295.734009,515.254456 1292.791748,520.106628 1289.339600,523.632507 
	C1281.328491,531.814453 1272.952881,539.783752 1263.857178,546.697571 
	C1259.386963,550.095398 1253.103638,552.092651 1247.429932,552.676697 
	C1240.093628,553.431824 1234.977539,548.156860 1235.019043,540.739197 
	C1235.050903,535.022644 1235.228760,528.691650 1237.600952,523.709534 
	C1248.122070,501.612885 1251.098145,478.059326 1251.170898,454.197083 
	C1251.259155,425.264709 1249.549927,396.331543 1249.148682,367.391388 
	C1248.885986,348.453522 1248.430542,329.403259 1250.079468,310.580170 
	C1252.736450,280.250580 1265.440186,253.705902 1284.561768,230.139694 
	C1294.599854,217.768417 1306.246338,207.134491 1318.903809,197.542542 
	C1319.937988,196.758774 1320.885864,195.861298 1322.447388,194.526337 
	C1319.293213,193.460449 1316.676880,192.695206 1314.150024,191.702362 
	C1301.628662,186.782455 1289.017334,182.067764 1276.650391,176.783371 
	C1256.628174,168.227890 1244.123169,153.591553 1241.658691,131.409546 
	C1239.706787,113.841423 1238.092896,96.207153 1241.856567,78.710518 
	C1247.001099,54.794083 1261.691772,37.411564 1280.905151,23.318153 
	C1281.701904,22.733669 1282.624878,22.301235 1283.529907,21.887672 
	C1287.244995,20.190062 1291.188599,18.566742 1294.822632,21.506191 
	C1298.326782,24.340557 1297.626099,28.487976 1296.487305,32.160862 
	C1295.233521,36.205093 1296.520996,39.270500 1299.689941,41.261993 
	C1305.301147,44.788185 1310.980469,48.379486 1317.047241,50.968933 
	C1328.045776,55.663227 1339.360596,59.613167 1350.519409,63.935905 
	C1354.081421,65.315781 1357.594116,66.831947 1361.083496,68.388763 
	C1379.519653,76.614128 1388.274536,91.289352 1390.081177,110.996712 
	C1391.551392,127.034424 1391.769043,142.891510 1386.803589,158.546082 
	C1387.409058,158.786087 1387.894531,159.183212 1388.231812,159.082809 
	C1401.917114,155.009491 1415.645996,151.067093 1429.222046,146.654449 
	C1432.592407,145.558960 1435.650757,143.165482 1438.517212,140.937317 
	C1442.687134,137.696106 1445.069214,133.328995 1444.356201,127.868217 
	C1442.120239,110.738243 1439.709106,93.631035 1437.497681,76.497986 
	C1436.455933,68.427841 1435.036743,60.323273 1434.983398,52.226433 
	C1434.880859,36.644672 1444.407349,28.723444 1459.976196,29.555126 
	C1489.022217,31.106756 1515.409912,41.240723 1541.113281,53.788795 
	C1572.775269,69.245682 1598.087158,91.630875 1615.592896,122.439316 
	C1630.015015,147.820770 1638.309448,175.295746 1641.805420,204.090759 
	C1643.947510,221.734818 1645.237427,239.572739 1645.457031,257.341553 
	C1645.961548,298.181213 1643.667358,338.946930 1635.736572,379.075562 
	C1625.455566,431.096832 1614.140015,482.913666 1603.187988,535.226074 
z"/>
<path fill="#010101" opacity="1.000000" stroke="none" 
	d="
M918.116394,531.120911 
	C913.981079,535.717224 910.162964,540.126404 906.174194,544.375366 
	C904.362732,546.304932 902.346436,548.103271 900.195068,549.642578 
	C887.556641,558.685181 873.959778,552.753601 872.942749,537.313599 
	C870.457458,499.581573 884.207336,469.085815 914.643860,446.312134 
	C943.261536,424.899292 975.827820,411.764648 1009.511414,400.987183 
	C1035.763916,392.587402 1062.005005,384.145447 1088.346924,376.033691 
	C1118.875854,366.632599 1134.869873,345.170410 1140.364258,314.656342 
	C1144.962646,289.118408 1145.791748,263.566223 1138.495361,238.451950 
	C1128.518921,204.112961 1101.261475,176.796722 1054.819702,177.055725 
	C979.664673,177.474854 904.505554,177.207718 829.348389,177.096817 
	C823.061646,177.087555 816.633118,176.725815 810.517029,175.394836 
	C791.405029,171.235748 782.757935,157.427429 779.005066,139.580338 
	C774.405884,117.708878 774.084900,95.539322 775.661621,73.409088 
	C776.555237,60.867172 778.742737,48.354671 781.300293,36.026569 
	C782.254578,31.426277 785.274475,26.807787 788.499451,23.232019 
	C793.118408,18.110556 797.772644,19.020870 801.457947,24.837194 
	C802.874084,27.072063 804.262146,29.416840 805.118103,31.899406 
	C810.304016,46.940365 821.388794,52.001114 836.508423,51.926033 
	C886.834229,51.676128 937.162170,51.807526 987.489258,51.842278 
	C1010.318909,51.858040 1033.166382,51.458920 1055.972656,52.227863 
	C1076.355713,52.915104 1095.658325,58.082020 1112.797119,69.931770 
	C1128.005127,80.446663 1137.742310,95.085388 1144.891235,111.667313 
	C1154.849487,134.765671 1159.753174,159.183243 1163.004517,183.977646 
	C1167.389771,217.419891 1168.615723,251.039749 1167.946167,284.720032 
	C1167.335693,315.429291 1164.284546,345.779785 1154.338013,375.168335 
	C1145.613525,400.946442 1129.206787,420.065704 1106.279053,434.226074 
	C1077.660889,451.900726 1046.409058,463.538208 1015.030701,474.987671 
	C993.159424,482.968140 971.934570,492.387207 951.791626,504.168823 
	C939.330933,511.457092 928.185974,520.315125 918.116394,531.120911 
z"/>
<path fill="#010101" opacity="1.000000" stroke="none" 
	d="
M643.997925,58.909389 
	C666.963257,71.725555 676.648071,92.900261 680.720337,116.907761 
	C683.324402,132.259796 684.709167,147.995728 684.793579,163.569565 
	C685.378357,271.537811 685.540405,379.508698 685.550720,487.478790 
	C685.551270,492.845978 684.246338,499.199524 681.209229,503.403107 
	C670.420044,518.336182 658.616699,532.536499 647.194763,547.012207 
	C647.092773,547.141479 646.961853,547.252380 646.830200,547.353210 
	C643.341248,550.025085 640.219421,554.484253 635.201050,552.568237 
	C629.883484,550.537964 629.244995,544.957458 629.359375,540.252625 
	C629.634033,528.945374 630.468262,517.638672 631.448486,506.364044 
	C634.203125,474.679382 637.143433,443.010864 640.014282,411.336304 
	C642.824951,380.325012 645.948669,349.338196 648.367676,318.296387 
	C650.838806,286.585907 652.806335,254.832214 654.598999,223.075119 
	C655.194946,212.518951 653.736633,202.072113 647.282043,193.088608 
	C640.130981,183.135849 629.753601,178.640518 618.083069,178.133270 
	C598.625122,177.287537 579.124390,177.390060 559.640686,177.189697 
	C549.908264,177.089615 540.355774,176.247757 531.565735,171.574371 
	C518.227600,164.482925 512.802185,152.032425 510.420807,138.266296 
	C504.808289,105.822098 505.056580,73.285355 511.212250,40.916374 
	C512.182068,35.816689 514.428406,30.727571 517.094910,26.233015 
	C522.040771,17.896557 528.455933,18.109772 533.293884,26.284008 
	C534.474976,28.279560 535.697937,30.308680 536.475403,32.475323 
	C541.606384,46.773296 552.299622,52.036572 566.782898,51.883625 
	C583.108276,51.711227 599.441284,51.770245 615.764648,52.070736 
	C625.482300,52.249626 634.892090,54.305328 643.997925,58.909389 
z"/>
<path fill="#010101" opacity="1.000000" stroke="none" 
	d="
M784.822754,842.328491 
	C777.267334,835.533020 775.123962,826.724609 775.264404,817.638733 
	C775.552917,798.987671 776.998413,780.355530 777.339661,761.704041 
	C778.223572,713.396790 779.760986,665.071106 779.174988,616.775452 
	C778.552368,565.466614 775.786560,514.183838 773.957520,462.889648 
	C773.114197,439.240753 772.320435,415.589966 771.420288,391.943237 
	C769.733887,347.640503 782.960938,308.616364 813.161316,275.909088 
	C818.103882,270.556213 824.705933,266.473999 831.143066,262.884003 
	C833.940979,261.323608 838.624878,261.528229 841.783081,262.713715 
	C844.590820,263.767700 845.109192,273.166718 843.131897,276.722748 
	C839.661438,282.964203 836.202576,289.241547 832.257019,295.183929 
	C820.757812,312.502869 815.644714,331.781403 815.127869,352.238342 
	C814.196228,389.110321 816.602844,425.877563 820.729492,462.486481 
	C826.044128,509.634125 832.161194,556.690796 837.743591,603.809021 
	C843.353455,651.159912 843.774963,698.564148 837.884644,745.916870 
	C834.533020,772.860840 829.360718,799.446655 818.815979,824.667847 
	C817.098450,828.775818 814.886414,832.751160 812.399780,836.449524 
	C804.957092,847.518677 796.925110,849.215515 784.822754,842.328491 
z"/>
<path fill="#FFFFFF" opacity="1.000000" stroke="none" 
	d="
M87.692871,207.700684 
	C94.651390,198.121384 101.268776,188.737106 108.312202,179.684311 
	C109.526657,178.123383 112.547935,177.277832 114.738930,177.269745 
	C153.236221,177.127380 191.734207,177.166672 230.232025,177.166656 
	C264.396759,177.166641 298.563354,176.967575 332.725098,177.287933 
	C342.995636,177.384247 353.411743,178.088028 363.479309,179.998688 
	C379.458923,183.031342 387.256409,192.039658 388.952240,208.356064 
	C390.052246,218.940048 390.379974,229.619141 390.703949,240.266266 
	C391.930267,280.570587 392.994965,320.879791 394.158569,361.186066 
	C394.740295,381.338226 395.408691,401.487854 396.025665,421.639038 
	C396.076019,423.284241 396.032288,424.932312 396.032288,426.974854 
	C288.250000,426.974854 180.722443,426.974854 72.816376,426.974854 
	C72.630836,425.276276 72.341385,423.662598 72.294418,422.041901 
	C71.517365,395.226440 70.784836,368.409698 70.012627,341.594086 
	C69.461090,322.441162 69.316833,303.262756 68.181953,284.143707 
	C66.547508,256.608521 73.066154,231.359100 87.692871,207.700684 
z"/>
</svg>