<svg enable-background="new 0 0 1054 864" viewBox="0 0 1054 864" xmlns="http://www.w3.org/2000/svg"><path d="m606 865c-201.973755 0-403.44751 0-604.960636 0 0-287.936218 0-575.872498 0-863.904374h1053.796329v863.904374c-149.374939 0-298.855285 0-448.835693 0m4.997009-697.939362c-.33258 1.723252-.936157 3.443879-.952881 5.170166-.093322 9.663498-.044921 19.32837-.044921 28.992768v8.519592c-2.043213-1.705063-3.209595-2.603058-4.292115-3.592651-28.496154-26.049317-61.624145-41.883286-100.179229-46.466004-39.76764-4.726852-77.772522.167603-113.214936 19.563874-51.355896 28.105102-79.032623 79.189209-72.932495 139.004852 3.358551 32.932617 17.593903 61.55722 40.332276 85.714142 5.794494 6.155975 12.227355 11.711059 18.079193 17.268982-8.919373 14.754608-17.826172 29.397033-26.628907 44.101806-2.902404 4.84845-7.814453 9.928955-7.663574 14.774353.156952 5.040192 5.49466 9.832062 8.238556 14.909973 1.770264 3.276032 4.191559 4.459931 7.821198 5.041565 31.530578 5.052613 63.16809 9.603302 94.49292 15.73758 53.498809 10.476623 105.617584 26.053039 156.675872 45.162903 1.515747.567321 3.32605 1.241699 4.788025.916748 11.490113-2.554139 22.92865-5.339844 34.639893-8.115052 0-2.047668 0-3.694275 0-5.34082 0-125.47055.000793-250.941101-.008057-376.411652-.000122-1.66159-.121277-3.323196-.087036-5.733856.919128-2.09996 1.643799-4.312988 2.788879-6.281494 7.33722-12.613571 15.687806-24.733917 21.949219-37.854423 9.306397-19.501275 15.076782-40.018288 12.307617-62.191079-2.521179-20.186809-15.599914-35.585693-35.452026-40.250427-16.529724-3.884047-32.915955-1.277506-48.694458 3.393097-22.910156 6.781673-45.425781 14.897842-68.101318 22.470039-16.23523 5.421547-32.490998 10.858265-49.672882 12.335286-23.62912 2.031257-44.203248-5.524758-62.200593-20.626053-4.426422-3.714131-8.747924-7.553316-13.559844-11.717707-9.085145 10.908598-17.964478 21.570044-27.265412 32.737745 5.194763 4.710575 9.755737 9.317543 14.791138 13.328972 19.257171 15.340988 41.121277 24.19368 65.839599 25.343048 20.530976.954674 40.344178-3.19226 59.772278-9.325424 22.48523-7.098251 44.742798-14.955597 67.376282-21.52948 10.896118-3.164768 22.371887-5.285805 33.685242-5.840805 17.338623-.850586 26.007446 8.496758 25.255188 25.755287-.816529 18.73272-7.85376 35.640663-17.282105 51.465668-6.010254 10.088013-13.217285 19.463013-20.600586 29.568481m96.485596 238.914002c-.608704 4.445068-1.424438 8.872955-1.793945 13.337829-3.573853 43.18631 7.627807 81.529816 39.796692 111.567841 33.119751 30.925842 72.870117 39.300476 116.440673 28.9021 23.077637-5.507691 41.548218-18.404358 53.518128-39.462891 10.120422-17.804687 12.516235-37.014923 9.590271-57.006378-4.848938-33.12854-23.197693-55.70987-54.94574-65.828217-33.038818-10.529754-64.950012-4.730377-94.965515 11.501221-10.849731 5.867279-20.752197 13.486298-31.350281 20.479858 1.12146-31.08554 12.087403-58.159484 35.424622-79.019653 32.621032-29.15863 70.154846-29.828827 110.014465-15.949341 2.847168-12.156707 8.767151-23.315613 9.507568-36.105438-2.600708-.538757-4.735717-.835968-6.785217-1.42865-15.958618-4.614838-32.211181-8.443329-47.76355-14.169891-16.644043-6.12851-31.861633-15.12796-43.288391-29.387772-12.712768-15.864654-9.701233-35.098297 7.398621-46.044159 9.200867-5.889572 19.520752-8.500488 30.221741-9.316864 22.555358-1.720794 44.450744 1.700104 65.832885 9.019486 29.730835 10.177215 55.566651 26.23291 76.551514 49.812622 5.099243 5.729797 7.863953 11.732544 7.83197 20.029236-.354492 91.823089-.223144 183.648071-.2229 275.472534 0 1.333191-.243347 2.724304.053345 3.988281.771484 3.28656 2.535827 6.212708 6.339599 5.387146 11.322388-2.457581 22.558472-5.313232 33.9469-8.041748 0-1.459106 0-2.616516 0-3.773987 0-127.321045 0-254.64209-.000977-381.963119 0-.999665.291382-2.133652-.078125-2.974198-1.184814-2.694763-2.458984-5.80722-6.236267-4.957977-11.329468 2.547119-22.609924 5.311737-34.196472 8.059494v39.553726c-8.063416-5.776642-15.630554-11.697723-23.67572-16.876358-38.624329-24.862289-80.624512-36.762115-126.705567-31.677536-21.069763 2.324829-40.371826 9.412659-57.033142 23.054703-30.971252 25.358795-37.041687 64.4431-14.152283 97.171127 6.108826 8.734528 14.351075 15.976898 21.229126 23.484497-43.394226 20.216034-70.056396 54.754029-80.504028 103.162476m-491.847534 146.194916c8.183563-5.680115 17.357254-10.347351 24.381134-17.213745 32.183502-31.46167 44.085022-70.134552 35.534973-113.987732-8.915497-45.727356-46.710587-76.667847-92.555389-80.780671-33.551712-3.009979-63.640938 8.009339-91.178093 26.543854-7.051697 4.746338-13.618729 10.212799-20.65976 15.538544-.384537-5.750641-1.221985-11.075226-1.006294-16.356812.739143-18.098999 1.172806-36.250854 2.985191-54.255493 2.296532-22.814087 8.255173-44.785949 19.585007-64.974106 10.282883-18.322647 24.195038-32.950988 43.689308-41.619537 23.901199-10.628204 48.499405-10.150711 73.267456-3.958282 14.802628 3.700897 28.542832 10.020294 41.257858 18.539947 4.996231 3.347717 9.026184 2.267304 11.789612-2.830185 4.682099-8.636688 9.231293-17.348755 14.093323-25.882721 1.606323-2.819458 1.264923-4.112182-1.484314-5.926513-20.790298-13.720521-43.615005-21.579651-68.169312-25.380799-24.069076-3.726028-47.577667-1.530044-70.357238 6.176132-33.182373 11.225327-58.256218 33.075013-76.418003 62.728012-21.64008 35.332032-30.714308 74.530152-33.090601 115.361451-1.412197 24.265472-.484145 48.57312 3.74452 72.635223 5.76321 32.793945 15.784218 63.996124 35.298706 91.405335 19.373726 27.211486 44.166283 46.913818 77.753082 53.628173 24.612946 4.920349 48.278351 2.026856 71.538834-9.390075m129.627624 94.751831c-2.567627 4.151428-3.225738 7.864196 2.117127 10.481079 1.159057.567688 2.027557 1.705932 3.082153 2.513122 25.748169 19.709656 54.059174 34.681519 84.650604 45.291993 43.999665 15.26123 88.995209 22.366088 135.440094 14.702331 27.253174-4.497009 52.4245-13.860657 71.038575-35.630981 16.623474-19.442139 21.032348-41.961182 12.38446-65.768433-13.395752-36.87793-50.56543-56.905273-88.823914-48.319946-24.741516 5.552063-41.979431 20.397461-48.437072 45.556701-6.059998 23.609742 1.956237 43.798645 17.124572 61.724671 2.899476 3.426697 6.234498 6.484863 9.967347 10.329773-70.608338-1.19513-130.224823-28.832764-184.645783-70.817871-4.607483 10.00061-9.052093 19.647766-13.898163 29.937561m61.039276 167.882995c-2.485717 3.492615-4.971435 6.98523-7.086151 9.956543 2.998444 7.875428 8.3443 9.453797 15.879425 9.418274 65.956482-.310364 131.91507-.17157 197.873017-.214721 2.110046-.001343 4.416992-.06897 6.296386-.881836 9.453553-4.089051 18.846802-8.330079 28.120972-12.808045 1.380249-.666504 2.859985-2.869568 2.8703-4.371399.174866-25.649109.161805-51.299865.092347-76.950012-.013001-4.78595-4.337708-7.57959-8.836121-5.909668-8.874512 3.294434-17.662537 6.836609-26.618164 9.889526-3.340454 1.138794-4.105469 2.847901-4.060486 6.138916.186707 13.655396.07843 27.31482.07843 40.972779v5.633972c-2.713623 0-4.686157 0-6.658691 0-59.795227 0-119.590485.031982-179.385468-.080139-3.546997-.006653-5.856414.924377-7.796539 3.932922-3.243378 5.029602-6.868713 9.812805-10.769257 15.272888z" fill="#fff"/><path d="m707.599365 405.563507c10.330872-47.997314 36.993042-82.535309 80.387268-102.751343-6.878051-7.507599-15.1203-14.749969-21.229126-23.484497-22.889404-32.728027-16.818969-71.812332 14.152283-97.171127 16.661316-13.642044 35.963379-20.729874 57.033142-23.054703 46.081055-5.084579 88.081238 6.815247 126.705567 31.677536 8.045166 5.178635 15.612304 11.099716 23.67572 16.876358 0-13.107849 0-26.177673 0-39.553726 11.586548-2.747757 22.867004-5.512375 34.196472-8.059494 3.777283-.849243 5.051453 2.263214 6.236267 4.957977.369507.840546.078125 1.974533.078125 2.974198.000977 127.321029.000977 254.642074.000977 381.963119v3.773987c-11.388428 2.728516-22.624512 5.584167-33.9469 8.041748-3.803772.825562-5.568115-2.100586-6.339599-5.387146-.296692-1.263977-.053345-2.65509-.053345-3.988281-.000244-91.824463-.131592-183.649445.2229-275.472534.031983-8.296692-2.732727-14.299439-7.83197-20.029236-20.984863-23.579712-46.820679-39.635407-76.551514-49.812622-21.382141-7.319382-43.277527-10.74028-65.832885-9.019486-10.700989.816376-21.020874 3.427292-30.221741 9.316864-17.099854 10.945862-20.111389 30.179505-7.398621 46.044159 11.426758 14.259812 26.644348 23.259262 43.288391 29.387772 15.552369 5.726562 31.804932 9.555053 47.76355 14.169891 2.0495.592682 4.184509.889893 6.785217 1.42865-.740417 12.789825-6.6604 23.948731-9.507568 36.105438-39.859619-13.879486-77.393433-13.209289-110.014465 15.949341-23.337219 20.860169-34.303162 47.934113-35.424622 79.019653 10.598084-6.99356 20.50055-14.612579 31.350281-20.479858 30.015503-16.231598 61.926697-22.030975 94.965515-11.501221 31.748047 10.118347 50.096802 32.699677 54.94574 65.828217 2.925964 19.991455.530151 39.201691-9.590271 57.006378-11.96991 21.058533-30.440491 33.9552-53.518128 39.462891-43.570556 10.398376-83.320922 2.023742-116.440673-28.9021-32.168885-30.038025-43.370545-68.381531-39.796692-111.567841.369507-4.464874 1.185241-8.892761 1.910705-13.748962m126.933411 119.759613c6.111511-.535278 12.409973-.3078 18.298767-1.751587 16.459534-4.035461 29.437378-12.792175 34.04303-30.122589 6.176819-23.242157-5.266419-46.378082-27.241089-56.66217-15.319641-7.169617-31.27478-8.525421-47.765137-5.788575-24.075195 3.995606-44.756836 15.137909-63.706177 29.845185 12.492371 37.772125 45.708802 62.746704 86.370606 64.479736z" fill="#020202"/><path d="m649.961914 167.028976c.064636 1.661591.185791 3.323197.185913 4.984787.00885 125.470551.008057 250.941102.008057 376.411652v5.34082c-11.711243 2.775208-23.14978 5.560913-34.639893 8.115052-1.461975.324951-3.272278-.349427-4.788025-.916748-51.058288-19.109864-103.177063-34.68628-156.675872-45.162903-31.32483-6.134278-62.962342-10.684967-94.49292-15.73758-3.629639-.581634-6.050934-1.765533-7.821198-5.041565-2.743896-5.077911-8.081604-9.869781-8.238556-14.909973-.150879-4.845398 4.76117-9.925903 7.663574-14.774353 8.802735-14.704773 17.709534-29.347198 26.628907-44.101806-5.851838-5.557923-12.284699-11.113007-18.079193-17.268982-22.738373-24.156922-36.973725-52.781525-40.332276-85.714142-6.100128-59.815643 21.576599-110.89975 72.932495-139.004852 35.442414-19.396271 73.447296-24.290726 113.214936-19.563874 38.555084 4.582718 71.683075 20.416687 100.179229 46.466004 1.08252.989593 2.248902 1.887588 4.292115 3.592651 0-3.427292 0-5.973434 0-8.519592 0-9.664398-.048401-19.32927.044921-28.992768.016724-1.726287.620301-3.446914 1.788392-5.256958 13.266845-.039474 25.69812.007828 38.129394.05513m-182.467438 309.994339c48.039643 8.471436 95.182831 20.726075 142.249543 34.144745.110351-1.26773.243957-2.087097.244079-2.906463.010132-79.820923.025696-159.641907-.081665-239.462677-.002624-1.942993-.916748-4.287873-2.197266-5.753968-4.707397-5.38977-9.535644-10.710235-14.698425-15.660369-43.169861-41.391587-94.148498-57.722107-153.120697-46.252579-48.693146 9.470352-85.013428 48.592727-80.02539 101.951492 3.178894 34.005676 21.192535 57.930725 50.486084 74.207184 16.102661-18.275665 32.00122-36.319641 48.206146-54.711334 8.008484 8.708831 15.411865 16.759613 22.878631 24.879303-32.602111 36.864105-62.752777 75.112976-86.467773 118.168579 24.096893 3.801361 47.88327 7.553741 72.526733 11.396087z" fill="#c47034"/><path d="m215.303513 552.342957c-22.928925 11.24353-46.59433 14.137023-71.207276 9.216674-33.586799-6.714355-58.379356-26.416687-77.753082-53.628173-19.514488-27.409211-29.535496-58.61139-35.298706-91.405335-4.228665-24.062103-5.156717-48.369751-3.74452-72.635223 2.376293-40.831299 11.450521-80.029419 33.090601-115.361451 18.161785-29.652999 43.23563-51.502685 76.418003-62.728012 22.779571-7.706176 46.288162-9.90216 70.357238-6.176132 24.554307 3.801148 47.379014 11.660278 68.169312 25.380799 2.749237 1.814331 3.090637 3.107055 1.484314 5.926513-4.86203 8.533966-9.411224 17.246033-14.093323 25.882721-2.763428 5.097489-6.793381 6.177902-11.789612 2.830185-12.715026-8.519653-26.45523-14.83905-41.257858-18.539947-24.768051-6.192429-49.366257-6.669922-73.267456 3.958282-19.49427 8.668549-33.406425 23.29689-43.689308 41.619537-11.329834 20.188157-17.288475 42.160019-19.585007 64.974106-1.812385 18.004639-2.246048 36.156494-2.985191 54.255493-.215691 5.281586.621757 10.606171 1.006294 16.356812 7.041031-5.325745 13.608063-10.792206 20.65976-15.538544 27.537155-18.534515 57.626381-29.553833 91.178093-26.543854 45.844802 4.112824 83.639892 35.053315 92.555389 80.780671 8.550049 43.85318-3.351471 82.526062-35.534973 113.987732-7.02388 6.866394-16.197571 11.53363-24.712692 17.387146m-3.395707-155.797608c-18.125015-14.340484-39.113845-18.13681-61.257614-15.058838-27.24086 3.786438-50.60675 16.726807-71.909408 33.588532-1.242806.983764-2.061608 3.647217-1.751824 5.276947 4.716248 24.811798 13.367485 48.052429 28.877213 68.267212 17.832306 23.241943 40.547462 37.287536 70.874199 35.332519 21.268036-1.371094 38.106125-11.19397 49.809707-29.046112 18.368027-28.017853 15.57457-74.423431-14.642273-98.36026z" fill="#cdb592"/><path d="m345.46344 646.600098c4.645325-9.968506 9.089935-19.615662 13.697418-29.616272 54.42096 41.985107 114.037445 69.622741 184.645783 70.817871-3.732849-3.84491-7.067871-6.903076-9.967347-10.329773-15.168335-17.926026-23.18457-38.114929-17.124572-61.724671 6.457641-25.15924 23.695556-40.004638 48.437072-45.556701 38.258484-8.585327 75.428162 11.442016 88.823914 48.319946 8.647888 23.807251 4.239014 46.326294-12.38446 65.768433-18.614075 21.770324-43.785401 31.133972-71.038575 35.630981-46.444885 7.663757-91.440429.558899-135.440094-14.702331-30.59143-10.610474-58.902435-25.582337-84.650604-45.291993-1.054596-.80719-1.923096-1.945434-3.082153-2.513122-5.342865-2.616883-4.684754-6.329651-1.916382-10.802368m206.720764-30.594422c-3.083313 8.62732-1.08728 16.736939 2.979004 24.394104 9.465088 17.823426 24.894714 28.855957 42.886719 36.802857.912536.403137 2.336487.526428 3.171081.097107 14.288208-7.349854 23.886902-18.567322 18.643799-37.176331-5.426147-19.258606-26.208252-35.377136-46.268127-35.877136-8.8042-.219544-16.933838 1.849121-21.412476 11.759399z" fill="#c46f34"/><path d="m650.011353 166.654449c-12.480713.327225-24.911988.279923-37.822388.114014 6.191345-9.813293 13.398376-19.188293 19.40863-29.276306 9.428345-15.825005 16.465576-32.732948 17.282105-51.465668.752258-17.258529-7.916565-26.605873-25.255188-25.755287-11.313355.555-22.789124 2.676037-33.685242 5.840805-22.633484 6.573883-44.891052 14.431229-67.376282 21.52948-19.4281 6.133164-39.241302 10.280098-59.772278 9.325424-24.718322-1.149368-46.582428-10.00206-65.839599-25.343048-5.035401-4.011429-9.596375-8.618397-14.791138-13.328972 9.300934-11.167701 18.180267-21.829147 27.265412-32.737745 4.81192 4.164391 9.133422 8.003576 13.559844 11.717707 17.997345 15.101295 38.571473 22.65731 62.200593 20.626053 17.181884-1.477021 33.437652-6.913739 49.672882-12.335286 22.675537-7.572197 45.191162-15.688366 68.101318-22.470039 15.778503-4.670603 32.164734-7.277144 48.694458-3.393097 19.852112 4.664734 32.930847 20.063618 35.452026 40.250427 2.769165 22.172791-3.00122 42.689804-12.307617 62.191079-6.261413 13.120506-14.611999 25.240852-21.949219 37.854423-1.14508 1.968506-1.869751 4.181534-2.838317 6.656036z" fill="#cdb591"/><path d="m406.519958 814.517822c3.682557-5.173523 7.307892-9.956726 10.55127-14.986328 1.940125-3.008545 4.249542-3.939575 7.796539-3.932922 59.794983.112121 119.590241.080139 179.385468.080139h6.658691c0-2.132813 0-3.883362 0-5.633972 0-13.657959.108277-27.317383-.07843-40.972779-.044983-3.291015.720032-5.000122 4.060486-6.138916 8.955627-3.052917 17.743652-6.595092 26.618164-9.889526 4.498413-1.669922 8.82312 1.123718 8.836121 5.909668.069458 25.650147.082519 51.300903-.092347 76.950012-.010315 1.501831-1.490051 3.704895-2.8703 4.371399-9.27417 4.477966-18.667419 8.718994-28.120972 12.808045-1.879394.812866-4.18634.880493-6.296386.881836-65.957947.043151-131.916535-.095643-197.873017.214721-7.535125.035523-12.880981-1.542846-15.879425-9.418274 2.114716-2.971313 4.600434-6.463928 7.304138-10.243103z" fill="#c56f33"/><path d="m834.041992 525.300903c-40.17102-1.710815-73.387451-26.685394-85.879822-64.457519 18.949341-14.707276 39.630982-25.849579 63.706177-29.845185 16.490357-2.736846 32.445496-1.381042 47.765137 5.788575 21.97467 10.284088 33.417908 33.420013 27.241089 56.66217-4.605652 17.330414-17.583496 26.087128-34.04303 30.122589-5.888794 1.443787-12.187256 1.216309-18.789551 1.72937z" fill="#fefefe"/><path d="m467.065948 476.978333c-24.214935-3.797364-48.001312-7.549744-72.098205-11.351105 23.714996-43.055603 53.865662-81.304474 86.467773-118.168579-7.466766-8.11969-14.870147-16.170472-22.878631-24.879303-16.204926 18.391693-32.103485 36.435669-48.206146 54.711334-29.293549-16.276459-47.30719-40.201508-50.486084-74.207184-4.988038-53.358765 31.332244-92.48114 80.02539-101.951492 58.972199-11.469528 109.950836 4.860992 153.120697 46.252579 5.162781 4.950134 9.991028 10.270599 14.698425 15.660369 1.280518 1.466095 2.194642 3.810975 2.197266 5.753968.107361 79.82077.091797 159.641754.081665 239.462677-.000122.819366-.133728 1.638733-.244079 2.906463-47.066712-13.41867-94.2099-25.673309-142.678071-34.189727z" fill="#fff"/><path d="m212.183563 396.772095c29.941086 23.710083 32.734543 70.115661 14.366516 98.133514-11.703582 17.852142-28.541671 27.675018-49.809707 29.046112-30.326737 1.955017-53.041893-12.090576-70.874199-35.332519-15.509728-20.214783-24.160965-43.455414-28.877213-68.267212-.309784-1.62973.509018-4.293183 1.751824-5.276947 21.302658-16.861725 44.668548-29.802094 71.909408-33.588532 22.143769-3.077972 43.132599.718354 61.533371 15.285584z" fill="#fff"/><path d="m552.387878 615.668213c4.274964-9.572815 12.404602-11.64148 21.208802-11.421936 20.059875.5 40.84198 16.61853 46.268127 35.877136 5.243103 18.609009-4.355591 29.826477-18.643799 37.176331-.834594.429321-2.258545.30603-3.171081-.097107-17.992005-7.9469-33.421631-18.979431-42.886719-36.802857-4.066284-7.657165-6.062317-15.766784-2.77533-24.731567z" fill="#fefdfd"/></svg>