<svg enable-background="new 0 0 768 736" viewBox="0 0 768 736" xmlns="http://www.w3.org/2000/svg"><path d="m138.322815 441.291504c-10.791702 13.56427-18.633446 28.362213-24.818504 44.121338-1.551148 3.952209-1.038323 6.009643 3.118011 8.152649 21.439842 11.054382 27.736656 38.441833 13.318214 56.554382-15.895927 19.968567-48.527557 15.325745-58.538398-8.270874-5.411919-12.756531-5.09861-25.971741-3.325814-39.272339 3.184304-23.890533 12.367615-45.496612 25.755692-65.358978 2.624268-3.893341 1.215141-5.688324-1.938736-8.003082-20.961319-15.38443-38.596996-33.883606-50.657196-57.066986-23.583664-45.335053-26.053541-91.403962-2.037273-137.289658 11.88665-22.710739 29.81155-40.310791 51.898487-53.546127 26.17733-15.686463 54.545646-23.050156 84.99514-23.771988 33.61737-.796967 65.510574 5.582687 95.396179 21.075363 12.902985 6.688873 24.862213 14.868881 35.290893 25.123413 1.52121 1.495789 2.832184 3.298416 5.07779 4.043274 1.564056-1.51854.875488-3.454376.888214-5.159989.073456-9.83139.181091-19.667373-.053619-29.493896-.095307-3.990128.998657-5.994476 5.206604-6.841263 9.286254-1.868683 18.450439-4.336807 27.686767-6.463379 5.314484-1.223617 8.509522 1.409043 8.713562 6.996079.042542 1.165039.013153 2.332809.013184 3.499313.001739 133.648926.013061 267.297821-.006256 400.946747-.002839 19.649597-1.046631 39.230164-4.859681 58.562622-.684875 3.472595 1.001709 5.101318 3.675965 6.713196 22.220001 13.392883 43.568695 28.116028 64.946319 42.791137 2.1763 1.494019 4.191803 3.222291 6.544007 5.044922-2.663758 5.538575-7.218048 9.334351-10.657898 13.933472-3.681153 4.921753-7.647827 9.649902-11.746247 14.233276-3.245056 3.628968-6.284851 3.634705-9.981903.528626-16.693145-14.024841-34.050567-27.181152-51.701507-39.973267-3.570069-2.587402-5.396027-2.284301-7.89148 1.298523-17.243683 24.756897-41.3591 37.685608-71.06665 41.034241-23.279419 2.624084-45.509079-.47583-66.108658-11.986572-21.788544-12.175171-34.876434-30.152649-34.696304-55.916199.153274-21.918884 11.935898-36.82666 30.433044-46.881897 24.53595-13.338135 50.363495-13.060425 76.632935-6.302368 14.588379 3.753052 28.398864 9.45404 41.570709 16.737549.70227.388244 1.492737.617004 2.257233.926086 1.615112-1.672607.989288-3.605835.990265-5.327942.062652-109.484863.075012-218.969726.158996-328.454559.002442-3.174835-.998993-5.793549-2.558472-8.426636-22.461669-37.925751-56.298156-59.734131-98.808715-68.254333-31.241913-6.261658-62.400772-5.314743-92.03814 7.855789-31.320839 13.918625-50.15213 37.857986-54.122452 72.310501-5.582252 48.439972 24.159234 90.273529 66.014199 108.852295 2.631256 1.167999 3.920273.052521 5.63858-1.391297 24.328949-20.441833 51.582779-35.92517 80.931564-47.927124 3.683106-1.506164 5.293641-.828979 6.792511 2.681733 4.434662 10.386963 9.127732 20.663604 13.653092 30.833587-1.981705 2.575043-4.586807 2.885529-6.854233 3.723297-20.881073 7.71521-40.693436 17.539948-58.894821 30.385376-12.846268 9.066193-24.299393 19.712769-34.235199 32.421967m71.711624 187.202515c-2.054565 1.439331-3.974487 3.016845-5.448761 5.084411-6.802032 9.539429-3.902908 23.135864 6.690186 31.331665 21.888321 16.934876 58.162216 18.473694 81.425644 3.397888 6.678619-4.328064 11.895324-9.928527 15.047515-17.708801-20.90332-14.199829-42.60559-25.436523-67.745559-28.109619-10.179672-1.082275-20.32074-.172974-29.969025 6.004456z"/><path d="m592.136719 200.052216c-37.062927-4.670868-72.425965-1.777085-103.877838 19.753952-27.694855 18.95906-40.031067 45.91011-36.690064 79.167617 2.466492 24.552521 14.00708 44.849396 33.311981 60.494446 1.013916.821686 2.191895 1.440949 3.547852 2.319184 4.274444-5.694642 8.280517-11.357544 12.621643-16.750794 10.701263-13.294739 23.38855-24.619781 36.098206-35.911865 1.352783-1.201874 2.737793-2.20285 4.294189-.516388 6.989075 7.572967 13.925842 15.194275 20.995239 22.922546-5.405151 4.949829-11.908081 10.63144-18.098633 16.635224-10.45166 10.136444-20.214843 20.947723-25.678772 34.682586-6.405761 16.102326-6.227417 31.845276 4.707947 46.313477 7.491211 9.911468 18.014282 14.642334 29.857666 16.43631 21.49939 3.256653 41.118592-3.146424 60.133179-12.40268 3.429687-1.669616 3.630615-4.260437 3.624451-7.393036-.048706-24.664245.098816-49.329986-.147095-73.991912-.053589-5.377503 1.332031-8.080964 7.004211-9.11023 8.657654-1.571014 17.148377-4.064331 25.707947-6.174011 5.871826-1.447235 8.753174.775452 8.773316 7.026001.053833 16.664947.020263 33.330169.020263 49.9953-.000061 32.996918-.081726 65.994293.094727 98.990265.02362 4.420074-1.052124 6.552979-5.66626 7.438141-8.808594 1.68985-17.482544 4.07431-26.227539 6.105347-6.182922 1.435974-9.495789-1.186493-9.568298-7.698578-.090821-8.164643.033813-16.331513-.021058-24.496857-.012939-1.925079.507874-3.986816-1.090454-6.137848-7.486328 3.832886-14.935974 7.856842-22.989074 10.428223-26.702759 8.526306-53.195374 9.842529-79.204773-2.640656-1.806855-.867187-3.372162-1.223694-4.881501.572388-10.069976 11.983185-20.29837 23.843445-28.435699 37.29715-.232208.383972-.17984.940063-.478241 2.707885 74.19101 6.758789 147.468475 18.657044 220.258698 32.935486.409545 2.476746-.944031 3.906799-1.822571 5.449646-5.85199 10.277161-11.899658 20.445496-17.593567 30.808594-1.980408 3.604431-4.163635 4.277771-8.084534 3.32373-35.85553-8.72406-71.875305-16.749145-108.260376-22.932556-26.209778-4.454284-52.484192-8.585937-78.936767-11.430725-12.228302-1.315063-24.445099-2.737244-36.67038-4.08081-3.335388-.366517-5.832184-1.601746-7.537231-4.828309-2.093628-3.962036-4.64386-7.714172-7.293457-11.340209-1.85785-2.542664-1.646363-4.557068-.149903-7.223633 14.163025-25.237641 31.008667-48.179871 54.900879-65.216217.938568-.66922 1.741913-1.528046 3.11731-2.751252-3.122925-5.19226-6.969635-9.97525-9.533234-15.53955-3.167694-6.875458-5.559265-13.990845-6.359314-21.423615-.50177-4.661529-2.488586-7.51416-6.059662-10.165619-25.44397-18.891845-44.055816-42.976349-53.968201-73.236908-18.659484-56.963867.74051-117.622772 52.836884-151.804428 25.289215-16.592834 53.303345-25.270233 83.316284-28.081543 36.932984-3.459549 72.733032.954346 107.083069 15.212189 29.092407 12.075577 53.865662 30.339523 75.079102 53.542038 6.169311 6.747742 12.062439 13.711182 17.85205 21.313339-9.31903 9.650894-18.326416 19.213425-27.634521 28.473618-2.740295 2.726227-7.185486 1.508331-9.82959-2.118714-16.362549-22.445526-36.917541-40.135574-61.033691-53.754516-19.030945-10.747208-39.354981-17.830429-61.414795-21.191223z"/><g fill="#d2691e"><path d="m226.764954 82.183594c-5.98317-8.688576-10.784943-17.594635-14.727387-27.0056-1.492432-3.562561-1.145569-5.638794 2.451904-7.638703 7.999619-4.447151 15.742386-9.354625 23.619278-14.024856 5.906235-3.501845 15.692612-.314472 18.389756 5.987957 6.856353 16.021107 16.666473 29.799907 32.048889 38.468242 28.127746 15.850586 55.507385 12.934746 81.746429-4.87004 14.359223-9.743592 25.805115-22.534764 36.384949-36.106472 2.64624-3.394635 5.028229-4.620724 8.542328-1.534565.495453.435093 1.097839.753891 1.668457 1.097015 10.204925 6.136448 10.213806 6.139999 4.599365 16.454025-12.309784 22.613716-27.046692 43.227371-48.750732 57.886124-21.289551 14.378815-44.81839 19.35125-70.285492 16.715134-32.260926-3.339371-56.825791-19.212258-75.687744-45.428261z"/><path d="m354.703308 27.300194c6.939972 7.310138 6.910767 7.283516.432678 14.391235-6.2742 6.883968-12.589203 13.736321-18.662841 20.794827-2.50882 2.915683-4.264924 2.712185-6.813324.0984-7.903656-8.106392-16.403229-15.580166-25.22287-22.673538-2.751435-2.212914-2.723358-3.920502-.262787-6.446751 7.659759-7.864229 15.18576-15.863457 22.592224-23.966992 2.406341-2.632836 4.216064-2.819967 7.085174-.564265 7.208649 5.667451 13.88617 11.908918 20.851746 18.367084z"/></g></svg>