<svg enable-background="new 0 0 678 652" viewBox="0 0 678 652" xmlns="http://www.w3.org/2000/svg"><path d="m679 483v1170c-226 0-452 0-678 0 0-550.666626 0-1101.333313 0-1652h678zm-280.57608-395.15937c2.173492-1.229638 4.306274-2.538636 6.526611-3.67688 28.689178-14.707314 59.190857-17.393792 90.46759-12.568138 35.365204 5.456459 65.56601 22.007911 90.942597 46.716369 13.06311 12.719193 24.212829 27.409592 36.145019 41.279846 3.003418 3.491166 6.772522 4.322251 9.636597 1.322846 9.303345-9.74292 18.461426-19.624634 28.240417-30.055603-11.670959-12.827439-22.788757-25.91095-34.822814-38.089142-23.248963-23.527481-50.093506-41.997269-81.690552-52.357269-44.066101-14.448345-88.4068-14.51433-132.43869.531727-29.936799 10.229652-55.089081 27.656375-73.780152 53.254337-24.053467 32.941925-31.550171 70.010399-23.884094 109.930275 5.839508 30.408279 19.791077 57.070679 39.769958 80.585174 2.418183 2.846161 2.717713 5.066468 1.177247 8.311371-7.438355 15.668335-11.333313 32.254212-12.404969 49.540619-.974121 15.713532 1.021942 31.040955 7.510437 45.38916 14.194641 31.388886 40.214661 45.55127 73.279572 47.793579 25.872589 1.754578 49.874298-5.190155 71.437378-19.602691 6.28067-4.197937 13.338623-8.766785 17.037048-14.95929 6.687866-11.197876 11.158814-23.726532 16.461548-35.740936 1.603821-3.633698.811218-6.537567-1.939209-9.845734-11.905945-14.320404-23.865936-28.648346-34.77243-43.721649-4.428345-6.120148-6.982789-13.942657-8.978821-21.369812-1.682648-6.261139.510376-7.986328 7.030029-7.994781 19.999634-.02591 39.999359-.009613 59.998993-.009736 2.118103-.00003 4.236206 0 6.790649 0 0 2.221436.000061 4.01706.000061 5.812684 0 44.499237.001893 88.998474-.002929 133.497711-.00055 4.715423-.981262 9.724243 4.059265 12.241058-7.563233 6.054749-14.792786 11.842316-22.08197 17.677612-.211975-.228454-.631226-.539367-.866944-.954467-12.230713-21.534668-31.817657-27.047089-53.701141-23.279572-35.876556 6.176605-60.687988 34.794586-62.701202 71.846771-1.692566 31.151001 2.745361 61.815308 8.365417 92.300476.51825 2.811219 5.393524 7.307862 7.496429 6.923462 11.368348-2.078247 22.500519-5.448425 33.82901-8.403198-.257781-1.741089-.349975-3.050903-.653259-4.309753-5.707916-23.693177-9.569458-47.6969-10.164398-72.054322-.257507-10.54132.768188-21.25943 2.583618-31.657592 1.331513-7.626648 5.843353-14.133606 13.612824-17.354432 12.629944-5.235778 25.796997.778016 30.569488 15.665986 3.201172 9.986114 4.96109 20.78836 5.251373 31.283935.732361 26.479584.263978 52.992279.289979 79.491669.003967 4.070801 5.239013 9.70813 8.710205 8.728271 9.993896-2.820862 19.85382-6.116211 29.68573-9.19989 0-32.786377-.016602-64.950134.023681-97.1138.004395-3.492676.081238-7.02124.569031-10.470276 1.206177-8.529358 4.688843-15.799072 13.322388-18.956604 8.859253-3.240021 16.616455-.15744 22.602417 6.359741 3.856628 4.198975 7.21582 9.253388 9.40863 14.504609 5.76648 13.80896 6.504639 28.443786 5.163757 43.199768-1.789184 19.689453-7.060974 38.537353-14.034851 56.95697-1.676513 4.428284-1.320984 7.944702 2.675415 11.460815 13.759095 12.105896 27.174317 24.602417 40.726441 36.943604 4.497741 4.095825 9.723449 3.873596 13.746948-.612549 5.228394-5.829529 10.422852-11.689453 15.631287-17.536865 2.034179-2.283753 4.066833-4.568909 6.301635-7.07959-14.974426-9.045349-29.312072-17.706116-43.770019-26.439514.492737-1.393128.925476-2.444214 1.23938-3.529663 4.834472-16.720032 10.601074-33.241639 14.236084-50.219361 4.542358-21.21524 4.489135-42.765686-2.335022-63.696716-6.609986-20.27417-18.692627-35.003052-40.466492-37.824432.328552-1.447663.973389-2.96637.974731-4.485657.051331-56.832337.047913-113.664703.03534-170.497055-.001099-4.912567-2.6922-7.713867-7.47284-7.714371-31.33258-.003296-62.665283-.029434-93.997558.082443-10.540894.037644-20.19812 3.322541-27.736664 10.704697-6.749908 6.609894-12.888336 13.904327-18.794434 21.297852-5.262695 6.588134-7.290161 14.304199-6.620666 22.924682 1.284882 16.544892 7.963684 31.051087 17.577331 43.940918 9.712189 13.021881 20.902283 24.941406 31.396698 37.28711-12.873596 9.421905-28.266784 15.749511-45.249237 18.06314-25.986114 3.540253-50.26892-8.843292-60.402404-31.274047-6.935334-15.351655-6.529114-31.41034-2.669068-47.482422 5.325226-22.172608 16.604096-41.365082 30.867127-58.754303 9.878418-12.043671 20.808502-23.224778 31.344024-34.874619-6.304443-6.822845-12.945739-14.010238-20.246765-21.911606-13.633941 13.512421-26.943573 26.7034-40.261535 39.90268-43.462159-38.601044-47.594513-118.853539 14.193695-156.07563m-156.931931 155.179405c-6.025864-4.914749-11.584122-10.596466-18.161514-14.606613-23.798325-14.509552-49.711823-19.695603-77.272553-15.102799-28.958206 4.825669-54.173515 17.747498-76.525726 36.550034-1.806427 1.519531-3.783905 2.835708-6.613571 4.938843 0-13.170197-.39204-25.062256.106499-36.916886.535045-12.722717 1.335662-25.487106 3.031913-38.097244 3.63163-26.99794 11.560746-52.547409 27.94632-74.847847 10.48938-14.275833 24.137268-24.697411 40.745773-30.46463 15.456665-5.367249 31.543152-6.556839 47.993225-4.656967 22.512223 2.600021 43.013123 10.018615 61.554825 22.967208 3.072968 2.146019 7.636627 1.871903 9.239777-1.038032 5.898041-10.705834 11.587646-21.526527 17.415985-32.416744-12.113129-8.365315-24.68602-14.911644-38.241364-19.46225-22.489486-7.549862-45.442947-12.27582-69.262298-8.768705-12.394882 1.825002-25.143952 3.305799-36.832482 7.469915-31.572044 11.247742-55.654594 32.480099-73.062805 60.841244-24.404466 39.759315-33.356645 83.910896-34.388099 129.913047-.28884 12.88205 1.017501 25.812119 1.842714 38.704117 1.317383 20.580994 5.67819 40.586731 12.179418 60.117951 10.387032 31.205078 26.006863 59.011932 51.766793 80.418487 25.864097 21.493164 55.348999 30.576233 88.658661 26.300721 29.896621-3.837372 54.064651-18.322052 71.913665-42.367798 20.061448-27.026276 27.811325-57.509796 23.669053-91.197052-2.76001-22.446259-12.215882-41.306519-27.704209-58.278z" fill="#fff"/><path d="m398.10437 88.018738c-61.468658 37.043983-57.336304 117.296478-13.874145 155.897522 13.317962-13.19928 26.627594-26.390259 40.261535-39.90268 7.301026 7.901368 13.942322 15.088761 20.246765 21.911606-10.535522 11.649841-21.465606 22.830948-31.344024 34.874619-14.263031 17.389221-25.541901 36.581695-30.867127 58.754303-3.860046 16.072082-4.266266 32.130767 2.669068 47.482422 10.133484 22.430755 34.41629 34.8143 60.402404 31.274047 16.982453-2.313629 32.375641-8.641235 45.249237-18.06314-10.494415-12.345704-21.684509-24.265229-31.396698-37.28711-9.613647-12.889831-16.292449-27.396026-17.577331-43.940918-.669495-8.620483 1.357971-16.336548 6.620666-22.924682 5.906098-7.393525 12.044526-14.687958 18.794434-21.297852 7.538544-7.382156 17.19577-10.667053 27.736664-10.704697 31.332275-.111877 62.664978-.085739 93.997558-.082443 4.78064.000504 7.471741 2.801804 7.47284 7.714371.012573 56.832352.015991 113.664718-.03534 170.497055-.001342 1.519287-.646179 3.037994-.974731 4.485657 21.773865 2.82138 33.856506 17.550262 40.466492 37.824432 6.824157 20.93103 6.87738 42.481476 2.335022 63.696716-3.63501 16.977722-9.401612 33.499329-14.236084 50.219361-.313904 1.085449-.746643 2.136535-1.23938 3.529663 14.457947 8.733398 28.795593 17.394165 43.770019 26.439514-2.234802 2.510681-4.267456 4.795837-6.301635 7.07959-5.208435 5.847412-10.402893 11.707336-15.631287 17.536865-4.023499 4.486145-9.249207 4.708374-13.746948.612549-13.552124-12.341187-26.967346-24.837708-40.726441-36.943604-3.996399-3.516113-4.351928-7.032531-2.675415-11.460815 6.973877-18.419617 12.245667-37.267517 14.034851-56.95697 1.340882-14.755982.602723-29.390808-5.163757-43.199768-2.19281-5.251221-5.552002-10.305634-9.40863-14.504609-5.985962-6.517181-13.743164-9.599762-22.602417-6.359741-8.633545 3.157532-12.116211 10.427246-13.322388 18.956604-.487793 3.449036-.564636 6.9776-.569031 10.470276-.040283 32.163666-.023681 64.327423-.023681 97.1138-9.83191 3.083679-19.691834 6.379028-29.68573 9.19989-3.471192.979859-8.706238-4.65747-8.710205-8.728271-.026001-26.49939.442382-53.012085-.289979-79.491669-.290283-10.495575-2.050201-21.297821-5.251373-31.283935-4.772491-14.88797-17.939544-20.901764-30.569488-15.665986-7.769471 3.220826-12.281311 9.727784-13.612824 17.354432-1.81543 10.398162-2.841125 21.116272-2.583618 31.657592.59494 24.357422 4.456482 48.361145 10.164398 72.054322.303284 1.25885.395478 2.568664.653259 4.309753-11.328491 2.954773-22.460662 6.324951-33.82901 8.403198-2.102905.3844-6.978179-4.112243-7.496429-6.923462-5.620056-30.485168-10.057983-61.149475-8.365417-92.300476 2.013214-37.052185 26.824646-65.670166 62.701202-71.846771 21.883484-3.767517 41.470428 1.744904 53.701141 23.279572.235718.4151.654969.726013.866944.954467 7.289184-5.835296 14.518737-11.622863 22.08197-17.677612-5.040527-2.516815-4.059815-7.525635-4.059265-12.241058.004822-44.499237.002929-88.998474.002929-133.497711 0-1.795624-.000061-3.591248-.000061-5.812684-2.554443 0-4.672546-.00003-6.790649 0-19.999634.000123-39.999359-.016174-59.998993.009736-6.519653.008453-8.712677 1.733642-7.030029 7.994781 1.996032 7.427155 4.550476 15.249664 8.978821 21.369812 10.906494 15.073303 22.866485 29.401245 34.77243 43.721649 2.750427 3.308167 3.54303 6.212036 1.939209 9.845734-5.302734 12.014404-9.773682 24.54306-16.461548 35.740936-3.698425 6.192505-10.756378 10.761353-17.037048 14.95929-21.56308 14.412536-45.564789 21.357269-71.437378 19.602691-33.064911-2.242309-59.084931-16.404693-73.279572-47.793579-6.488495-14.348205-8.484558-29.675628-7.510437-45.38916 1.071656-17.286407 4.966614-33.872284 12.404969-49.540619 1.540466-3.244903 1.240936-5.46521-1.177247-8.311371-19.978881-23.514495-33.93045-50.176895-39.769958-80.585174-7.666077-39.919876-.169373-76.98835 23.884094-109.930275 18.691071-25.597962 43.843353-43.024685 73.780152-53.254337 44.03189-15.046057 88.372589-14.980072 132.43869-.531727 31.597046 10.36 58.441589 28.829788 81.690552 52.357269 12.034057 12.178192 23.151855 25.261703 34.822814 38.089142-9.778991 10.430969-18.937072 20.312683-28.240417 30.055603-2.864075 2.999405-6.633179 2.16832-9.636597-1.322846-11.93219-13.870254-23.081909-28.560653-36.145019-41.279846-25.376587-24.708458-55.577393-41.25991-90.942597-46.716369-31.276733-4.825654-61.778412-2.139176-90.46759 12.568138-2.220337 1.138244-4.353119 2.447242-6.846161 3.854988z" fill="#020202"/><path d="m241.744263 243.268951c15.236053 16.722565 24.691925 35.582825 27.451935 58.029084 4.142272 33.687256-3.607605 64.170776-23.669053 91.197052-17.849014 24.045746-42.017044 38.530426-71.913665 42.367798-33.309662 4.275512-62.794564-4.807557-88.658661-26.300721-25.75993-21.406555-41.379761-49.213409-51.766793-80.418487-6.501228-19.53122-10.862035-39.536957-12.179418-60.117951-.825213-12.891998-2.131554-25.822067-1.842714-38.704117 1.031454-46.002151 9.983633-90.153732 34.388099-129.913047 17.408211-28.361145 41.490761-49.593502 73.062805-60.841244 11.68853-4.164116 24.4376-5.644913 36.832482-7.469915 23.819351-3.507115 46.772812 1.218843 69.262298 8.768705 13.555344 4.550606 26.128235 11.096935 38.241364 19.46225-5.828339 10.890217-11.517944 21.71091-17.415985 32.416744-1.60315 2.909935-6.166809 3.184051-9.239777 1.038032-18.541702-12.948593-39.042602-20.367187-61.554825-22.967208-16.450073-1.899872-32.53656-.710282-47.993225 4.656967-16.608505 5.767219-30.256393 16.188797-40.745773 30.46463-16.385574 22.300438-24.31469 47.849907-27.94632 74.847847-1.696251 12.610138-2.496868 25.374527-3.031913 38.097244-.498539 11.85463-.106499 23.746689-.106499 36.916886 2.829666-2.103135 4.807144-3.419312 6.613571-4.938843 22.352211-18.802536 47.56752-31.724365 76.525726-36.550034 27.56073-4.592804 53.474228.593247 77.272553 15.102799 6.577392 4.010147 12.13565 9.691864 18.413788 14.855529m-161.602822 86.044495c8.090889 18.350189 18.200119 35.306 33.936776 48.251587 15.520019 12.767487 33.023361 19.873016 53.500457 18.536652 24.354309-1.589386 42.684555-12.821351 54.380997-34.226044 8.186417-14.981262 9.241821-31.179169 7.310501-47.91687-1.784256-15.463196-7.898224-28.861786-18.696457-39.68692-18.466247-18.512223-41.690491-24.00821-66.832886-20.859925-27.894546 3.49292-51.692672 16.745484-73.387435 34.029785-.946541.75412-1.590889 2.904145-1.258225 4.090516 3.473305 12.386962 7.175446 24.709716 11.046272 37.781219z" fill="#cdb592"/><path d="m80.025398 328.947968c-3.754783-12.706025-7.456924-25.028779-10.930229-37.415741-.332664-1.186371.311684-3.336396 1.258225-4.090516 21.694763-17.284301 45.492889-30.536865 73.387435-34.029785 25.142395-3.148285 48.366639 2.347702 66.832886 20.859925 10.798233 10.825134 16.912201 24.223724 18.696457 39.68692 1.93132 16.737701.875916 32.935608-7.310501 47.91687-11.696442 21.404693-30.026688 32.636658-54.380997 34.226044-20.477096 1.336364-37.980438-5.769165-53.500457-18.536652-15.736657-12.945587-25.845887-29.901398-34.052819-48.617065z" fill="#fff"/></svg>