<svg enable-background="new 0 0 848 640" viewBox="0 0 848 640" xmlns="http://www.w3.org/2000/svg"><path d="m370.594696 280.458527c-23.904785-17.813111-42.622681-39.315369-52.629822-67.417115-6.068268-17.04068-8.874176-34.546463-7.488281-52.871582 4.311371-57.00943 35.667969-93.68811 86.344818-115.767616 23.436981-10.211311 48.231964-14.35998 73.854431-14.883766 43.092041-.880911 83.099304 8.905212 119.71222 31.958759 16.769958 10.559292 31.333862 23.670445 44.940124 37.955265 1.774963 1.863465 1.646057 3.257805.00061 5.098717-7.437378 8.320839-14.701049 16.797958-22.195984 25.065903-3.694519 4.075637-8.273071 3.872543-12.089294-.145829-28.265137-29.762039-62.241882-49.546783-102.788055-56.590316-32.911682-5.717301-65.49231-4.061913-96.068421 11.152244-27.541961 13.704392-45.835174 35.346192-49.473846 66.387306-3.760712 32.082383 7.742615 59.179642 32.063354 80.589783 4.30951 3.793793 5.112671 3.49913 7.129578-1.992996 7.913086-21.54747 21.68158-38.272675 41.961853-48.954849 46.832672-24.668 105.70874-1.554993 118.241089 55.332733 4.83374 21.942032 3.083069 43.339615-7.785034 63.489761-.868103 1.60965-1.653931 3.263886-2.464173 4.904267-.06549.132598-.023254.318359-.056762 1.009277 4.556884-.432312 9.04779-.94577 13.552307-1.271088 24.554687-1.77362 44.430298 6.371247 57.937866 27.673218 5.968628 9.412842 7.670959 19.943939 8.366455 30.928192 1.867798 29.501923-18.42981 60.12616-46.481079 69.371857-25.499146 8.404541-49.512146 4.537292-72.359009-8.811005-11.606384-6.781067-21.490631-15.701751-30.949829-25.128174-1.632416-1.626739-3.022705-3.49649-4.8591-5.645111-4.766907 5.059143-8.651368 9.575653-12.940583 13.667847-22.104889 21.089264-48.081573 32.793304-79.041046 30.660919-36.75412-2.531433-58.815552-29.29892-59.482177-61.838165-.338746-16.535889 2.812896-31.827271 12.891418-45.148041 13.054871-17.254639 31.348785-24.529724 52.228577-26.575775 4.727447-.463257 9.471893-.539978 14.553405-.034882-1.158294-5.465911-3.342407-9.01242-7.930511-11.466796-5.70694-3.052918-10.963684-6.947419-16.695099-10.702942m125.502808-63.050614c-2.844849-2.021377-5.549469-4.284881-8.556549-6.026108-25.589325-14.817443-53.659821-3.085998-61.044739 25.576111-2.211304 8.582367-2.529755 17.273896-1.324219 26.181214 2.479462 18.320739 9.937134 33.697906 24.908844 44.925842 22.258392 16.692657 50.909302 8.713806 61.366943-16.992279 4.339875-10.667847 5.778962-21.602509 4.355683-33.155029-1.924134-15.617447-7.735504-29.110703-19.705963-40.509751m-92.438233 179.795151c17.627686-3.046509 31.484009-12.45108 43.716767-25.443207-14.890625-13.806732-30.286103-25.815796-49.673676-31.451355-9.345093-2.716461-18.852844-3.740143-28.430664-.911468-6.72049 1.984832-11.988312 5.703399-14.673004 12.423462-5.034363 12.601501.229919 29.441345 11.168121 37.516174 11.233734 8.293091 23.826935 9.383118 37.892456 7.866394m172.452362-5.533112c5.100464-2.800964 8.354126-7.019714 9.623169-12.70401 2.439392-10.926818-1.645569-19.779113-9.651306-26.681976-25.05011-21.599152-59.38562-16.343964-81.681396 3.015045-2.316742 2.011627-2.194275 3.737305-.202301 5.842774 10.456146 11.051819 21.562957 21.338806 35.303619 28.205536 14.867065 7.429626 30.159729 10.057525 46.608215 2.322631z"/><path d="m101.046219 421.051758c-35.46901-21.568695-55.757984-53.947052-68.485283-92.011872-5.506811-16.469818-9.2833-33.320404-11.563122-50.487274-3.055389-23.006912-3.035517-46.109832-1.486301-69.244934 1.338369-19.986404 4.622488-39.653869 10.230249-58.840133 11.895445-40.698838 32.799093-75.336503 69.185751-98.88546 24.926888-16.132347 52.515236-22.786307 82.110588-21.963864 31.391953.872372 60.219528 9.680912 86.608444 26.729588 3.298157 2.130783 3.780121 3.797943 1.848847 7.120025-4.854614 8.35051-9.365631 16.900101-14.071533 25.337998-3.618012 6.487244-6.837723 7.331634-13.236008 3.112587-10.788986-7.114273-22.33136-12.582214-34.648239-16.426422-23.107422-7.212036-46.393784-8.780579-69.717606-1.302613-20.817619 6.674447-36.745346 19.802346-48.34993 38.228478-13.011436 20.659973-19.64846 43.472595-23.282493 67.441437-2.377743 15.682785-2.768768 31.459945-3.593472 47.219192-.337734 6.453812.488842 12.96785.769181 19.455216.059703 1.381607.249801 2.759048 1.557643 3.475616 1.713479.938828 2.754693-.478744 3.898995-1.384079 16.175606-12.797363 33.479744-23.554245 53.237007-30.047516 33.443062-10.991119 66.179283-10.904236 97.437447 6.878174 28.849044 16.411896 45.237228 41.621948 49.805587 74.358612 4.615693 33.075897-2.030792 63.877472-21.949585 90.804535-25.17427 34.031586-59.266479 49.218445-101.737457 44.970886-15.843719-1.584533-30.525642-6.414367-44.56871-14.538177m9.936279-157.55661c-13.793068 6.083099-26.514023 13.926971-38.432411 23.141876-2.553299 1.974091-3.482727 3.918091-2.719765 7.224426 4.100991 17.771759 9.731858 34.989014 18.755905 50.893982 12.978241 22.874207 30.102761 41.187592 56.501297 48.329315 25.502289 6.899201 48.044358 1.061432 66.184403-18.108337 15.646438-16.534607 20.064865-37.047608 17.521347-59.288544-4.382691-38.322876-34.624634-60.164734-67.159576-62.385498-17.537797-1.197082-33.986619 3.125183-50.6512 10.19278z" fill="#d2b48c"/><path d="m839.239014 180.000031c-.003968 79.988189-.069458 159.476531.11676 238.964263.013245 5.646454-1.791199 8.024659-7.19342 9.034485-8.651307 1.617249-17.186463 3.856263-25.770691 5.832337-5.03949 1.160064-8.365235-1.333924-8.669312-6.589173-.115417-1.993347-.035583-3.99826-.035583-5.997924-.000184-73.489075.000732-146.97818.001525-220.46727.000061-1.988083 0-3.976151 0-6.949799-6.341552 6.714981-11.919433 12.958252-19.122131 17.444534-21.950012 13.671677-60.572937 13.775681-80.474975-10.42189-10.192017-12.391846-15.461487-26.946991-18.470276-42.544296-4.460022-23.120957-2.59076-46.472504-2.919007-69.741539-.202209-14.328339.075989-28.66333-.110412-42.992096-.048889-3.756661 1.352112-5.275208 4.911499-6.022858 9.266723-1.946483 18.454223-4.267227 27.690735-6.361774 4.844543-1.098595 8.109741 1.252846 8.678527 6.218952.20752 1.811783.104432 3.661148.112244 5.493496.116211 27.160412-.095947 54.327785.486389 81.47813.26001 12.119904 2.61084 24.011032 7.99469 35.215546 9.192993 19.131836 29.65448 21.151413 44.893616 11.505142 16.026062-10.144348 22.208435-26.303131 25.291748-44.042847 1.954895-11.247589.881714-22.608856.993408-33.91793.161377-16.329277.25293-32.666054-.095093-48.989628-.112243-5.263287 1.74878-7.344696 6.718262-8.266285 8.322388-1.543384 16.540466-3.655941 24.791077-5.57764 7.275451-1.694575 10.177551.590923 10.194275 8.217742.02417 10.998299-.009461 21.996712-.010437 32.995076-.003174 35.327743-.002808 70.655487-.003418 106.483246z"/></svg>