<svg version="1.1" id="Layer_1" xmlns="http://www.w3.org/2000/svg" xmlns:xlink="http://www.w3.org/1999/xlink" x="0px" y="0px"
	 width="100%" viewBox="0 0 1440 750" enable-background="new 0 0 1440 1200" xml:space="preserve">
<path fill="#FFFFFF" opacity="1.000000" stroke="none" 
	d="
M1.000000,1033.000000 
	C1.000000,688.666687 1.000000,344.833344 1.000000,1.000000 
	C481.000000,1.000000 961.000000,1.000000 1441.000000,1.000000 
	C1441.000000,401.000000 1441.000000,801.000000 1441.000000,1201.000000 
	C961.000000,1201.000000 481.000000,1201.000000 1.000000,1201.000000 
	C1.000000,1145.166626 1.000000,1089.333374 1.000000,1033.000000 
M199.805954,282.876312 
	C200.591446,294.461700 201.207962,306.061676 202.208664,317.628448 
	C203.266495,329.855804 204.447067,342.084320 206.088242,354.242920 
	C206.650330,358.407104 208.519760,362.469208 210.229630,366.386932 
	C212.927475,372.568237 217.322403,377.008301 224.556366,376.937744 
	C231.884598,376.866302 235.807266,371.848236 238.491287,365.866760 
	C244.055038,353.467682 245.204758,340.134369 245.423157,326.832642 
	C245.863464,300.015320 245.733139,273.188568 245.836624,246.365707 
	C245.843597,244.559937 245.837540,242.754105 245.837540,240.586182 
	C258.284088,241.637482 266.523010,247.961792 272.098541,258.261414 
	C277.766235,268.731201 279.913971,280.139801 280.077576,291.819611 
	C280.448517,318.303864 280.372375,344.794403 280.476410,371.282379 
	C280.483459,373.078156 280.477325,374.873993 280.477325,376.692169 
	C284.726990,376.692169 288.458191,376.692169 292.522675,376.692169 
	C292.522675,374.574829 292.522675,372.764099 292.522675,370.953369 
	C292.522675,337.956635 292.617035,304.959442 292.447968,271.963593 
	C292.411438,264.842438 291.989655,257.628845 290.780762,250.624329 
	C285.349609,219.156189 265.143860,202.204376 233.477295,200.564117 
	C233.477295,202.393112 233.477280,204.205490 233.477280,206.017883 
	C233.477280,225.016006 233.539230,244.014374 233.461472,263.012177 
	C233.366028,286.331543 233.389069,309.656158 232.818222,332.965210 
	C232.684097,338.441772 230.964340,344.102966 228.893890,349.244171 
	C226.927765,354.126343 221.961105,354.121124 219.359863,349.513794 
	C217.764999,346.688965 216.293839,343.403809 216.103104,340.244690 
	C215.302032,326.976746 214.884735,313.681427 214.551147,300.390472 
	C214.065643,281.046509 212.262283,261.931366 205.024628,243.757233 
	C198.870010,228.302643 189.258652,215.688812 173.980133,208.244247 
	C158.822891,200.858780 142.641571,199.867584 126.209961,201.673584 
	C109.627563,203.496155 97.164291,212.171234 87.709961,225.633774 
	C75.729179,242.693878 71.248047,261.715698 73.021507,282.273956 
	C73.697205,290.106873 75.100906,297.876984 76.192909,305.821899 
	C107.221306,296.674896 127.068596,296.247803 144.545013,298.682465 
	C150.816864,299.556244 157.271515,301.455536 162.856308,304.385712 
	C171.622513,308.985016 175.625626,322.123779 163.261169,329.190918 
	C158.734482,331.778259 153.678146,333.779114 148.611832,335.021515 
	C129.718903,339.654602 110.393784,339.993958 91.143196,338.918579 
	C78.595291,338.217651 65.940750,336.730774 53.698261,333.976715 
	C40.072052,330.911316 33.624298,321.438721 35.104271,307.559998 
	C35.879173,300.293213 38.078327,292.792633 41.355423,286.261200 
	C47.575039,273.865234 55.139000,262.150146 61.943245,250.039154 
	C67.428093,240.276596 70.959763,229.883438 68.635841,218.537994 
	C66.519455,208.205719 59.478920,202.917007 46.950115,201.282974 
	C36.577919,199.930206 25.527283,204.943268 21.339922,213.919312 
	C12.606476,232.640289 13.436317,251.826920 19.486412,271.168182 
	C20.666897,274.942047 22.267515,276.117371 26.018196,274.153198 
	C25.826132,272.869812 25.498058,271.580048 25.461493,270.282074 
	C25.270685,263.509003 24.378222,256.637421 25.205017,249.983444 
	C26.272778,241.390198 32.774147,237.441406 41.005272,239.008469 
	C45.491383,239.862534 47.915699,242.624771 47.146156,247.053040 
	C46.475891,250.910034 45.231750,254.802673 43.501549,258.315216 
	C37.868423,269.751282 31.000952,280.656921 26.224855,292.422791 
	C12.577265,326.043579 26.089575,365.586212 68.122498,375.106873 
	C87.534813,379.503876 107.049110,379.467743 126.621887,376.449127 
	C139.219009,374.506256 151.319229,370.958038 161.667145,363.247009 
	C180.708939,349.057587 185.359543,329.358521 182.324814,306.992157 
	C180.761459,295.470001 175.705521,285.516510 166.380890,278.616028 
	C146.847046,264.160553 125.294250,263.274506 103.017281,271.077362 
	C95.890556,273.573578 89.082787,276.980469 82.069176,279.996460 
	C81.508987,261.826385 92.869354,245.090637 109.417625,238.664017 
	C120.455231,234.377502 131.822220,234.320709 143.257980,235.070450 
	C172.229431,236.969849 193.583725,254.933563 199.805954,282.876312 
M1180.048706,333.816986 
	C1167.575806,327.120819 1161.062378,316.801819 1160.821045,302.543976 
	C1160.649414,292.395782 1160.519775,282.237488 1159.947388,272.107666 
	C1159.055054,256.312195 1156.740234,240.728409 1150.014526,226.212936 
	C1143.697021,212.578033 1133.703003,202.974686 1118.202881,201.303986 
	C1101.869873,199.543488 1088.087646,204.875549 1078.091553,218.418610 
	C1068.716187,231.120575 1064.886597,245.959656 1063.160034,261.195923 
	C1061.440063,276.373230 1061.257690,291.718872 1060.094482,306.967316 
	C1059.355225,316.655731 1056.998535,325.928223 1050.670654,333.719543 
	C1045.428589,340.173859 1035.774780,343.013336 1028.147339,340.357330 
	C1021.597900,338.076660 1017.605713,332.455750 1018.159058,323.241547 
	C1018.650940,315.051392 1020.062744,306.719757 1022.474976,298.883545 
	C1027.141235,283.724945 1036.713623,270.994507 1044.438843,257.333160 
	C1049.111816,249.069595 1053.179565,240.091705 1055.438354,230.922165 
	C1058.838257,217.120651 1052.592529,206.606354 1040.716431,202.695892 
	C1026.718872,198.086899 1013.153687,202.989944 1007.482971,215.723404 
	C999.150574,234.433792 1000.483093,253.553040 1006.820801,272.587860 
	C1007.983582,276.079987 1010.313110,275.278687 1012.894897,274.298737 
	C1012.384766,270.913208 1011.789246,267.651672 1011.419983,264.364746 
	C1010.669739,257.686798 1010.590332,251.043442 1013.864990,244.881363 
	C1016.728210,239.493500 1023.996155,237.114685 1029.880981,239.515030 
	C1034.118774,241.243561 1035.521973,245.443237 1033.071655,251.993195 
	C1030.931885,257.713165 1028.358521,263.366272 1025.228149,268.601379 
	C1017.686157,281.214600 1011.699402,294.434418 1008.396606,308.761139 
	C1004.585022,325.294983 1002.863647,341.862000 1008.956848,358.321533 
	C1013.368713,370.239105 1024.320312,377.930573 1036.852051,377.834839 
	C1049.070801,377.741486 1059.563599,370.570221 1062.725464,357.795502 
	C1066.102539,344.151245 1068.153931,330.117096 1069.874146,316.141174 
	C1071.758667,300.828857 1071.198853,285.200989 1076.023193,270.282990 
	C1081.232910,254.173004 1090.343018,242.113098 1108.615356,240.465408 
	C1122.440674,239.218704 1134.253174,243.093384 1142.002930,255.584442 
	C1147.595825,264.599030 1149.418579,274.684753 1150.124878,285.024963 
	C1151.143799,299.940735 1151.015869,315.007874 1153.142456,329.755951 
	C1155.669678,347.283478 1163.538452,362.336914 1180.019653,371.185822 
	C1194.073608,378.731476 1209.107178,379.893463 1224.584717,377.199982 
	C1239.180786,374.659851 1250.807007,367.344391 1259.357178,355.224030 
	C1268.772583,341.877075 1272.936401,326.694031 1273.401489,310.681671 
	C1274.025146,289.205139 1273.736450,267.702118 1273.837280,246.210449 
	C1273.845581,244.425537 1273.838257,242.640579 1273.838257,240.834259 
	C1287.850708,241.510193 1299.840942,251.214890 1303.630249,266.612488 
	C1306.421021,277.952606 1308.230225,289.760681 1308.607056,301.420685 
	C1309.360352,324.728333 1308.830566,348.077454 1308.830566,371.409454 
	C1308.830566,373.174683 1308.830566,374.939941 1308.830566,376.652008 
	C1313.145752,376.652008 1316.868286,376.652008 1320.838257,376.652008 
	C1320.838257,374.490662 1320.838379,372.678131 1320.838379,370.865570 
	C1320.838379,338.700745 1321.143677,306.531342 1320.664307,274.373657 
	C1320.507324,263.839935 1319.378418,253.071152 1316.840698,242.870941 
	C1310.180786,216.102493 1289.249390,201.587036 1261.476440,200.684036 
	C1261.476440,202.507889 1261.476440,204.323730 1261.476440,206.139587 
	C1261.476440,231.138168 1261.537720,256.137024 1261.429565,281.135101 
	C1261.405273,286.778809 1261.146973,292.468384 1260.387085,298.053925 
	C1257.191162,321.548676 1245.108154,334.935089 1222.470703,338.496887 
	C1208.403687,340.710175 1194.264282,339.412720 1180.048706,333.816986 
M1382.137817,105.310387 
	C1393.054443,113.247047 1399.880493,124.111893 1404.207153,136.644547 
	C1412.903931,161.835083 1412.455566,187.700378 1409.512207,213.704132 
	C1405.918213,245.456497 1397.657837,276.146515 1387.380493,306.263336 
	C1364.779297,372.494232 1349.453003,440.037384 1348.417480,510.370789 
	C1347.774902,554.016174 1351.297852,596.922791 1369.878418,637.278137 
	C1380.520264,660.391113 1395.062012,680.634094 1414.839722,697.308350 
	C1416.652588,695.335632 1418.425049,693.406738 1420.319702,691.344971 
	C1409.304688,675.087036 1400.923828,657.750244 1394.972412,639.284668 
	C1379.397217,590.959229 1375.961670,541.094482 1376.468384,490.760223 
	C1376.797485,458.056549 1379.415161,425.489685 1385.255859,393.339539 
	C1390.514160,364.395905 1395.916138,335.353699 1403.684937,307.021332 
	C1414.169067,268.786316 1425.147217,230.769302 1428.542114,191.091919 
	C1430.927734,163.211151 1430.819946,135.436935 1420.874023,108.705399 
	C1413.845459,89.814873 1402.508545,74.510094 1383.560303,65.859138 
	C1371.226929,60.228283 1358.247681,58.115528 1344.796753,57.678463 
	C1310.574585,56.566463 1286.397705,71.616974 1271.070435,101.648170 
	C1262.885254,117.685799 1258.539307,134.926346 1256.016602,152.646866 
	C1254.715088,161.789520 1253.807251,170.988235 1252.709473,180.263062 
	C1255.741577,181.025406 1257.897705,181.567505 1259.060913,181.859955 
	C1264.202515,167.133743 1268.117920,152.603317 1274.246460,139.075470 
	C1286.017944,113.091728 1304.618042,95.020676 1334.995117,93.378632 
	C1351.621338,92.479904 1367.547363,94.941284 1382.137817,105.310387 
M439.344666,285.060516 
	C439.935852,277.273621 439.770142,269.338470 441.260498,261.727661 
	C445.693634,239.088882 458.594177,223.294159 480.750366,215.661972 
	C481.974182,215.240417 483.328247,215.196930 484.621674,214.977463 
	C470.080658,224.361679 464.673492,237.502579 465.800171,254.017426 
	C466.962006,271.047333 476.668152,281.651428 491.729553,288.654205 
	C489.379669,289.932434 487.446106,290.891571 485.603760,292.002106 
	C476.449860,297.520050 469.492065,304.809631 466.865356,315.531036 
	C461.460663,337.591156 471.215698,357.438080 492.973907,368.088501 
	C509.319489,376.089417 526.851318,378.676056 544.853760,378.369720 
	C558.110413,378.144135 571.057617,375.973938 583.051758,369.996490 
	C605.720947,358.698914 615.389954,338.818542 616.788696,314.924927 
	C618.120850,292.169464 617.515015,269.300415 617.756592,246.481293 
	C617.775696,244.676239 617.759033,242.870789 617.759033,240.622437 
	C629.989929,241.900757 638.115356,248.277695 643.525391,258.369263 
	C650.500671,271.380615 651.736694,285.680695 651.881287,300.043488 
	C652.121094,323.867462 651.946899,347.695648 651.947144,371.522064 
	C651.947205,373.280670 651.947205,375.039307 651.947205,376.824219 
	C656.378967,376.824219 660.165833,376.824219 664.136353,376.824219 
	C664.255127,375.523438 664.449524,374.384247 664.450012,373.244995 
	C664.465210,338.421783 664.781982,303.593750 664.256104,268.778473 
	C664.107300,258.922699 662.573730,248.784927 659.791077,239.331024 
	C652.621216,214.971359 629.355652,198.772186 604.815552,200.216675 
	C604.815552,209.132004 604.891968,218.084900 604.800415,227.036087 
	C604.575439,249.017731 605.067139,271.046021 603.756836,292.965088 
	C602.661072,311.296722 593.012268,325.267914 575.478638,331.840851 
	C566.126770,335.346619 555.949097,337.463379 545.981140,338.327545 
	C529.645691,339.743744 513.303650,338.355103 498.052917,331.493744 
	C490.884674,328.268707 485.330414,323.087189 485.993073,314.300171 
	C486.632507,305.820862 493.286743,302.300415 500.172455,300.975769 
	C512.518494,298.600769 525.080322,297.197632 537.609619,295.984283 
	C544.499573,295.317047 551.507202,295.864868 558.648438,295.864868 
	C558.648438,291.007080 558.648438,286.632050 558.648438,281.905731 
	C549.533325,281.905731 540.707825,282.244354 531.918457,281.825439 
	C519.125488,281.215668 506.219147,280.564423 494.458435,274.645416 
	C483.738281,269.250061 482.797638,257.800323 492.468170,250.585617 
	C495.218018,248.534088 498.415314,246.633102 501.693512,245.827911 
	C509.734009,243.853012 517.885010,241.764389 526.095154,241.181824 
	C537.137207,240.398331 548.276672,240.987518 559.413208,240.987518 
	C559.413208,226.629761 559.413208,213.746185 559.413208,200.379364 
	C550.279480,200.379364 541.482056,200.301834 532.686462,200.394653 
	C510.806091,200.625519 489.081696,202.058411 468.369629,210.023941 
	C446.757019,218.335800 431.460327,232.658859 425.306793,255.632996 
	C421.257141,270.752289 422.904785,285.662842 426.650787,300.531464 
	C428.896912,309.446777 432.110138,317.888245 437.957092,324.869873 
	C443.360901,322.726532 444.117859,319.361115 443.096710,314.135925 
	C441.283478,304.857849 440.561157,295.366547 439.344666,285.060516 
M719.856018,326.701202 
	C715.299683,320.483368 710.743286,314.265533 705.744019,307.443298 
	C705.329041,307.527161 703.742981,307.847687 701.678406,308.264954 
	C702.110535,314.542084 702.257385,320.706635 703.011353,326.796051 
	C704.631348,339.879150 708.349609,352.220184 717.502563,362.230927 
	C728.385132,374.133453 742.601990,378.054535 758.049622,378.428131 
	C782.249023,379.013428 801.484924,369.957214 813.962463,348.544281 
	C822.433289,334.007355 824.900818,317.995178 824.964966,301.479523 
	C825.036804,282.979980 824.981567,264.479980 824.981689,245.980179 
	C824.981689,244.255432 824.981750,242.530670 824.981750,240.558365 
	C837.419861,242.070084 845.618408,248.449036 850.934937,258.684174 
	C857.729492,271.764832 859.009033,286.007355 859.065918,300.411743 
	C859.159302,324.077789 859.091309,347.744476 859.091370,371.410889 
	C859.091370,373.180237 859.091370,374.949554 859.091370,376.721832 
	C863.610840,376.721832 867.526367,376.721832 871.817261,376.721832 
	C871.817261,374.651581 871.817261,372.848694 871.817261,371.045807 
	C871.817261,338.046143 871.926270,305.045868 871.734253,272.047333 
	C871.690796,264.581909 871.080750,257.046173 869.906433,249.674240 
	C865.736267,223.495499 850.367981,207.021255 825.253723,201.437851 
	C821.157593,200.527206 816.925842,200.226654 812.293335,199.579361 
	C812.293335,202.340042 812.293274,204.151978 812.293274,205.963913 
	C812.293091,230.630325 812.383179,255.297272 812.231934,279.962769 
	C812.192261,286.436646 811.904053,292.987793 810.859802,299.360901 
	C808.425720,314.216766 801.997192,327.203735 787.452759,333.112549 
	C764.398315,342.478699 741.666382,341.530487 719.856018,326.701202 
M199.619965,137.015213 
	C194.408890,144.656021 189.197815,152.296814 183.808533,160.198914 
	C185.478333,161.705276 187.175034,163.235931 188.981705,164.865768 
	C212.999680,146.064301 229.792114,123.812805 232.378235,92.125999 
	C236.335968,43.633522 198.250778,6.435835 148.407013,15.506871 
	C101.066116,24.122410 75.703232,74.457115 95.744766,118.241310 
	C96.280876,119.412552 96.737274,120.620277 97.230850,121.810997 
	C96.587898,122.286026 95.944954,122.761055 95.302002,123.236084 
	C84.544601,111.943161 73.787193,100.650230 62.778992,89.094025 
	C59.567913,92.458054 56.735634,95.425240 53.822124,98.477524 
	C77.103783,127.731415 103.862350,152.118149 138.781799,166.289536 
	C144.518402,157.233002 144.426117,157.352386 136.584824,151.291138 
	C117.313942,136.394928 107.199677,117.312256 110.056396,92.399147 
	C111.318825,81.389618 114.358337,71.051849 122.840080,63.391148 
	C137.717178,49.954189 155.477829,47.687698 174.252014,51.807888 
	C192.805695,55.879677 204.212219,67.704903 208.092163,86.303879 
	C211.772552,103.946236 209.030258,120.706406 199.619965,137.015213 
M346.993835,371.500000 
	C346.993835,390.583130 346.993835,409.666260 346.993835,428.645264 
	C355.252075,428.645264 362.815735,428.645264 370.352875,428.645264 
	C370.352875,307.940460 370.352875,187.598206 370.352875,67.341553 
	C362.393829,67.341553 354.816650,67.341553 346.993835,67.341553 
	C346.993835,168.626831 346.993835,269.563416 346.993835,371.500000 
M925.896790,95.499992 
	C925.896790,206.580048 925.896790,317.660095 925.896790,428.702820 
	C934.069458,428.702820 941.499268,428.702820 948.918396,428.702820 
	C948.918396,308.035187 948.918396,187.664627 948.918396,67.298859 
	C941.099121,67.298859 933.680054,67.298859 925.896729,67.298859 
	C925.896729,76.561600 925.896729,85.530792 925.896790,95.499992 
z"/>
<path fill="#343434" opacity="1.000000" stroke="none" 
	d="
M199.675659,282.477905 
	C193.583725,254.933563 172.229431,236.969849 143.257980,235.070450 
	C131.822220,234.320709 120.455231,234.377502 109.417625,238.664017 
	C92.869354,245.090637 81.508987,261.826385 82.069176,279.996460 
	C89.082787,276.980469 95.890556,273.573578 103.017281,271.077362 
	C125.294250,263.274506 146.847046,264.160553 166.380890,278.616028 
	C175.705521,285.516510 180.761459,295.470001 182.324814,306.992157 
	C185.359543,329.358521 180.708939,349.057587 161.667145,363.247009 
	C151.319229,370.958038 139.219009,374.506256 126.621887,376.449127 
	C107.049110,379.467743 87.534813,379.503876 68.122498,375.106873 
	C26.089575,365.586212 12.577265,326.043579 26.224855,292.422791 
	C31.000952,280.656921 37.868423,269.751282 43.501549,258.315216 
	C45.231750,254.802673 46.475891,250.910034 47.146156,247.053040 
	C47.915699,242.624771 45.491383,239.862534 41.005272,239.008469 
	C32.774147,237.441406 26.272778,241.390198 25.205017,249.983444 
	C24.378222,256.637421 25.270685,263.509003 25.461493,270.282074 
	C25.498058,271.580048 25.826132,272.869812 26.018196,274.153198 
	C22.267515,276.117371 20.666897,274.942047 19.486412,271.168182 
	C13.436317,251.826920 12.606476,232.640289 21.339922,213.919312 
	C25.527283,204.943268 36.577919,199.930206 46.950115,201.282974 
	C59.478920,202.917007 66.519455,208.205719 68.635841,218.537994 
	C70.959763,229.883438 67.428093,240.276596 61.943245,250.039154 
	C55.139000,262.150146 47.575039,273.865234 41.355423,286.261200 
	C38.078327,292.792633 35.879173,300.293213 35.104271,307.559998 
	C33.624298,321.438721 40.072052,330.911316 53.698261,333.976715 
	C65.940750,336.730774 78.595291,338.217651 91.143196,338.918579 
	C110.393784,339.993958 129.718903,339.654602 148.611832,335.021515 
	C153.678146,333.779114 158.734482,331.778259 163.261169,329.190918 
	C175.625626,322.123779 171.622513,308.985016 162.856308,304.385712 
	C157.271515,301.455536 150.816864,299.556244 144.545013,298.682465 
	C127.068596,296.247803 107.221306,296.674896 76.192909,305.821899 
	C75.100906,297.876984 73.697205,290.106873 73.021507,282.273956 
	C71.248047,261.715698 75.729179,242.693878 87.709961,225.633774 
	C97.164291,212.171234 109.627563,203.496155 126.209961,201.673584 
	C142.641571,199.867584 158.822891,200.858780 173.980133,208.244247 
	C189.258652,215.688812 198.870010,228.302643 205.024628,243.757233 
	C212.262283,261.931366 214.065643,281.046509 214.551147,300.390472 
	C214.884735,313.681427 215.302032,326.976746 216.103104,340.244690 
	C216.293839,343.403809 217.764999,346.688965 219.359863,349.513794 
	C221.961105,354.121124 226.927765,354.126343 228.893890,349.244171 
	C230.964340,344.102966 232.684097,338.441772 232.818222,332.965210 
	C233.389069,309.656158 233.366028,286.331543 233.461472,263.012177 
	C233.539230,244.014374 233.477280,225.016006 233.477280,206.017883 
	C233.477280,204.205490 233.477295,202.393112 233.477295,200.564117 
	C265.143860,202.204376 285.349609,219.156189 290.780762,250.624329 
	C291.989655,257.628845 292.411438,264.842438 292.447968,271.963593 
	C292.617035,304.959442 292.522675,337.956635 292.522675,370.953369 
	C292.522675,372.764099 292.522675,374.574829 292.522675,376.692169 
	C288.458191,376.692169 284.726990,376.692169 280.477325,376.692169 
	C280.477325,374.873993 280.483459,373.078156 280.476410,371.282379 
	C280.372375,344.794403 280.448517,318.303864 280.077576,291.819611 
	C279.913971,280.139801 277.766235,268.731201 272.098541,258.261414 
	C266.523010,247.961792 258.284088,241.637482 245.837540,240.586182 
	C245.837540,242.754105 245.843597,244.559937 245.836624,246.365707 
	C245.733139,273.188568 245.863464,300.015320 245.423157,326.832642 
	C245.204758,340.134369 244.055038,353.467682 238.491287,365.866760 
	C235.807266,371.848236 231.884598,376.866302 224.556366,376.937744 
	C217.322403,377.008301 212.927475,372.568237 210.229630,366.386932 
	C208.519760,362.469208 206.650330,358.407104 206.088242,354.242920 
	C204.447067,342.084320 203.266495,329.855804 202.208664,317.628448 
	C201.207962,306.061676 200.591446,294.461700 199.675659,282.477905 
z"/>
<path fill="#343434" opacity="1.000000" stroke="none" 
	d="
M1180.411377,333.950531 
	C1194.264282,339.412720 1208.403687,340.710175 1222.470703,338.496887 
	C1245.108154,334.935089 1257.191162,321.548676 1260.387085,298.053925 
	C1261.146973,292.468384 1261.405273,286.778809 1261.429565,281.135101 
	C1261.537720,256.137024 1261.476440,231.138168 1261.476440,206.139587 
	C1261.476440,204.323730 1261.476440,202.507889 1261.476440,200.684036 
	C1289.249390,201.587036 1310.180786,216.102493 1316.840698,242.870941 
	C1319.378418,253.071152 1320.507324,263.839935 1320.664307,274.373657 
	C1321.143677,306.531342 1320.838379,338.700745 1320.838379,370.865570 
	C1320.838379,372.678131 1320.838257,374.490662 1320.838257,376.652008 
	C1316.868286,376.652008 1313.145752,376.652008 1308.830566,376.652008 
	C1308.830566,374.939941 1308.830566,373.174683 1308.830566,371.409454 
	C1308.830566,348.077454 1309.360352,324.728333 1308.607056,301.420685 
	C1308.230225,289.760681 1306.421021,277.952606 1303.630249,266.612488 
	C1299.840942,251.214890 1287.850708,241.510193 1273.838257,240.834259 
	C1273.838257,242.640579 1273.845581,244.425537 1273.837280,246.210449 
	C1273.736450,267.702118 1274.025146,289.205139 1273.401489,310.681671 
	C1272.936401,326.694031 1268.772583,341.877075 1259.357178,355.224030 
	C1250.807007,367.344391 1239.180786,374.659851 1224.584717,377.199982 
	C1209.107178,379.893463 1194.073608,378.731476 1180.019653,371.185822 
	C1163.538452,362.336914 1155.669678,347.283478 1153.142456,329.755951 
	C1151.015869,315.007874 1151.143799,299.940735 1150.124878,285.024963 
	C1149.418579,274.684753 1147.595825,264.599030 1142.002930,255.584442 
	C1134.253174,243.093384 1122.440674,239.218704 1108.615356,240.465408 
	C1090.343018,242.113098 1081.232910,254.173004 1076.023193,270.282990 
	C1071.198853,285.200989 1071.758667,300.828857 1069.874146,316.141174 
	C1068.153931,330.117096 1066.102539,344.151245 1062.725464,357.795502 
	C1059.563599,370.570221 1049.070801,377.741486 1036.852051,377.834839 
	C1024.320312,377.930573 1013.368713,370.239105 1008.956848,358.321533 
	C1002.863647,341.862000 1004.585022,325.294983 1008.396606,308.761139 
	C1011.699402,294.434418 1017.686157,281.214600 1025.228149,268.601379 
	C1028.358521,263.366272 1030.931885,257.713165 1033.071655,251.993195 
	C1035.521973,245.443237 1034.118774,241.243561 1029.880981,239.515030 
	C1023.996155,237.114685 1016.728210,239.493500 1013.864990,244.881363 
	C1010.590332,251.043442 1010.669739,257.686798 1011.419983,264.364746 
	C1011.789246,267.651672 1012.384766,270.913208 1012.894897,274.298737 
	C1010.313110,275.278687 1007.983582,276.079987 1006.820801,272.587860 
	C1000.483093,253.553040 999.150574,234.433792 1007.482971,215.723404 
	C1013.153687,202.989944 1026.718872,198.086899 1040.716431,202.695892 
	C1052.592529,206.606354 1058.838257,217.120651 1055.438354,230.922165 
	C1053.179565,240.091705 1049.111816,249.069595 1044.438843,257.333160 
	C1036.713623,270.994507 1027.141235,283.724945 1022.474976,298.883545 
	C1020.062744,306.719757 1018.650940,315.051392 1018.159058,323.241547 
	C1017.605713,332.455750 1021.597900,338.076660 1028.147339,340.357330 
	C1035.774780,343.013336 1045.428589,340.173859 1050.670654,333.719543 
	C1056.998535,325.928223 1059.355225,316.655731 1060.094482,306.967316 
	C1061.257690,291.718872 1061.440063,276.373230 1063.160034,261.195923 
	C1064.886597,245.959656 1068.716187,231.120575 1078.091553,218.418610 
	C1088.087646,204.875549 1101.869873,199.543488 1118.202881,201.303986 
	C1133.703003,202.974686 1143.697021,212.578033 1150.014526,226.212936 
	C1156.740234,240.728409 1159.055054,256.312195 1159.947388,272.107666 
	C1160.519775,282.237488 1160.649414,292.395782 1160.821045,302.543976 
	C1161.062378,316.801819 1167.575806,327.120819 1180.411377,333.950531 
z"/>
<path fill="#353535" opacity="1.000000" stroke="none" 
	d="
M1381.850708,105.091125 
	C1367.547363,94.941284 1351.621338,92.479904 1334.995117,93.378632 
	C1304.618042,95.020676 1286.017944,113.091728 1274.246460,139.075470 
	C1268.117920,152.603317 1264.202515,167.133743 1259.060913,181.859955 
	C1257.897705,181.567505 1255.741577,181.025406 1252.709473,180.263062 
	C1253.807251,170.988235 1254.715088,161.789520 1256.016602,152.646866 
	C1258.539307,134.926346 1262.885254,117.685799 1271.070435,101.648170 
	C1286.397705,71.616974 1310.574585,56.566463 1344.796753,57.678463 
	C1358.247681,58.115528 1371.226929,60.228283 1383.560303,65.859138 
	C1402.508545,74.510094 1413.845459,89.814873 1420.874023,108.705399 
	C1430.819946,135.436935 1430.927734,163.211151 1428.542114,191.091919 
	C1425.147217,230.769302 1414.169067,268.786316 1403.684937,307.021332 
	C1395.916138,335.353699 1390.514160,364.395905 1385.255859,393.339539 
	C1379.415161,425.489685 1376.797485,458.056549 1376.468384,490.760223 
	C1375.961670,541.094482 1379.397217,590.959229 1394.972412,639.284668 
	C1400.923828,657.750244 1409.304688,675.087036 1420.319702,691.344971 
	C1418.425049,693.406738 1416.652588,695.335632 1414.839722,697.308350 
	C1395.062012,680.634094 1380.520264,660.391113 1369.878418,637.278137 
	C1351.297852,596.922791 1347.774902,554.016174 1348.417480,510.370789 
	C1349.453003,440.037384 1364.779297,372.494232 1387.380493,306.263336 
	C1397.657837,276.146515 1405.918213,245.456497 1409.512207,213.704132 
	C1412.455566,187.700378 1412.903931,161.835083 1404.207153,136.644547 
	C1399.880493,124.111893 1393.054443,113.247047 1381.850708,105.091125 
z"/>
<path fill="#353535" opacity="1.000000" stroke="none" 
	d="
M439.363556,285.512482 
	C440.561157,295.366547 441.283478,304.857849 443.096710,314.135925 
	C444.117859,319.361115 443.360901,322.726532 437.957092,324.869873 
	C432.110138,317.888245 428.896912,309.446777 426.650787,300.531464 
	C422.904785,285.662842 421.257141,270.752289 425.306793,255.632996 
	C431.460327,232.658859 446.757019,218.335800 468.369629,210.023941 
	C489.081696,202.058411 510.806091,200.625519 532.686462,200.394653 
	C541.482056,200.301834 550.279480,200.379364 559.413208,200.379364 
	C559.413208,213.746185 559.413208,226.629761 559.413208,240.987518 
	C548.276672,240.987518 537.137207,240.398331 526.095154,241.181824 
	C517.885010,241.764389 509.734009,243.853012 501.693512,245.827911 
	C498.415314,246.633102 495.218018,248.534088 492.468170,250.585617 
	C482.797638,257.800323 483.738281,269.250061 494.458435,274.645416 
	C506.219147,280.564423 519.125488,281.215668 531.918457,281.825439 
	C540.707825,282.244354 549.533325,281.905731 558.648438,281.905731 
	C558.648438,286.632050 558.648438,291.007080 558.648438,295.864868 
	C551.507202,295.864868 544.499573,295.317047 537.609619,295.984283 
	C525.080322,297.197632 512.518494,298.600769 500.172455,300.975769 
	C493.286743,302.300415 486.632507,305.820862 485.993073,314.300171 
	C485.330414,323.087189 490.884674,328.268707 498.052917,331.493744 
	C513.303650,338.355103 529.645691,339.743744 545.981140,338.327545 
	C555.949097,337.463379 566.126770,335.346619 575.478638,331.840851 
	C593.012268,325.267914 602.661072,311.296722 603.756836,292.965088 
	C605.067139,271.046021 604.575439,249.017731 604.800415,227.036087 
	C604.891968,218.084900 604.815552,209.132004 604.815552,200.216675 
	C629.355652,198.772186 652.621216,214.971359 659.791077,239.331024 
	C662.573730,248.784927 664.107300,258.922699 664.256104,268.778473 
	C664.781982,303.593750 664.465210,338.421783 664.450012,373.244995 
	C664.449524,374.384247 664.255127,375.523438 664.136353,376.824219 
	C660.165833,376.824219 656.378967,376.824219 651.947205,376.824219 
	C651.947205,375.039307 651.947205,373.280670 651.947144,371.522064 
	C651.946899,347.695648 652.121094,323.867462 651.881287,300.043488 
	C651.736694,285.680695 650.500671,271.380615 643.525391,258.369263 
	C638.115356,248.277695 629.989929,241.900757 617.759033,240.622437 
	C617.759033,242.870789 617.775696,244.676239 617.756592,246.481293 
	C617.515015,269.300415 618.120850,292.169464 616.788696,314.924927 
	C615.389954,338.818542 605.720947,358.698914 583.051758,369.996490 
	C571.057617,375.973938 558.110413,378.144135 544.853760,378.369720 
	C526.851318,378.676056 509.319489,376.089417 492.973907,368.088501 
	C471.215698,357.438080 461.460663,337.591156 466.865356,315.531036 
	C469.492065,304.809631 476.449860,297.520050 485.603760,292.002106 
	C487.446106,290.891571 489.379669,289.932434 491.729553,288.654205 
	C476.668152,281.651428 466.962006,271.047333 465.800171,254.017426 
	C464.673492,237.502579 470.080658,224.361679 484.621674,214.977463 
	C483.328247,215.196930 481.974182,215.240417 480.750366,215.661972 
	C458.594177,223.294159 445.693634,239.088882 441.260498,261.727661 
	C439.770142,269.338470 439.935852,277.273621 439.363556,285.512482 
z"/>
<path fill="#363636" opacity="1.000000" stroke="none" 
	d="
M720.151733,326.903076 
	C741.666382,341.530487 764.398315,342.478699 787.452759,333.112549 
	C801.997192,327.203735 808.425720,314.216766 810.859802,299.360901 
	C811.904053,292.987793 812.192261,286.436646 812.231934,279.962769 
	C812.383179,255.297272 812.293091,230.630325 812.293274,205.963913 
	C812.293274,204.151978 812.293335,202.340042 812.293335,199.579361 
	C816.925842,200.226654 821.157593,200.527206 825.253723,201.437851 
	C850.367981,207.021255 865.736267,223.495499 869.906433,249.674240 
	C871.080750,257.046173 871.690796,264.581909 871.734253,272.047333 
	C871.926270,305.045868 871.817261,338.046143 871.817261,371.045807 
	C871.817261,372.848694 871.817261,374.651581 871.817261,376.721832 
	C867.526367,376.721832 863.610840,376.721832 859.091370,376.721832 
	C859.091370,374.949554 859.091370,373.180237 859.091370,371.410889 
	C859.091309,347.744476 859.159302,324.077789 859.065918,300.411743 
	C859.009033,286.007355 857.729492,271.764832 850.934937,258.684174 
	C845.618408,248.449036 837.419861,242.070084 824.981750,240.558365 
	C824.981750,242.530670 824.981689,244.255432 824.981689,245.980179 
	C824.981567,264.479980 825.036804,282.979980 824.964966,301.479523 
	C824.900818,317.995178 822.433289,334.007355 813.962463,348.544281 
	C801.484924,369.957214 782.249023,379.013428 758.049622,378.428131 
	C742.601990,378.054535 728.385132,374.133453 717.502563,362.230927 
	C708.349609,352.220184 704.631348,339.879150 703.011353,326.796051 
	C702.257385,320.706635 702.110535,314.542084 701.678406,308.264954 
	C703.742981,307.847687 705.329041,307.527161 705.744019,307.443298 
	C710.743286,314.265533 715.299683,320.483368 720.151733,326.903076 
z"/>
<path fill="#353535" opacity="1.000000" stroke="none" 
	d="
M199.788361,136.685989 
	C209.030258,120.706406 211.772552,103.946236 208.092163,86.303879 
	C204.212219,67.704903 192.805695,55.879677 174.252014,51.807888 
	C155.477829,47.687698 137.717178,49.954189 122.840080,63.391148 
	C114.358337,71.051849 111.318825,81.389618 110.056396,92.399147 
	C107.199677,117.312256 117.313942,136.394928 136.584824,151.291138 
	C144.426117,157.352386 144.518402,157.233002 138.781799,166.289536 
	C103.862350,152.118149 77.103783,127.731415 53.822124,98.477524 
	C56.735634,95.425240 59.567913,92.458054 62.778992,89.094025 
	C73.787193,100.650230 84.544601,111.943161 95.302002,123.236084 
	C95.944954,122.761055 96.587898,122.286026 97.230850,121.810997 
	C96.737274,120.620277 96.280876,119.412552 95.744766,118.241310 
	C75.703232,74.457115 101.066116,24.122410 148.407013,15.506871 
	C198.250778,6.435835 236.335968,43.633522 232.378235,92.125999 
	C229.792114,123.812805 212.999680,146.064301 188.981705,164.865768 
	C187.175034,163.235931 185.478333,161.705276 183.808533,160.198914 
	C189.197815,152.296814 194.408890,144.656021 199.788361,136.685989 
z"/>
<path fill="#C67136" opacity="1.000000" stroke="none" 
	d="
M346.993835,371.000000 
	C346.993835,269.563416 346.993835,168.626831 346.993835,67.341553 
	C354.816650,67.341553 362.393829,67.341553 370.352875,67.341553 
	C370.352875,187.598206 370.352875,307.940460 370.352875,428.645264 
	C362.815735,428.645264 355.252075,428.645264 346.993835,428.645264 
	C346.993835,409.666260 346.993835,390.583130 346.993835,371.000000 
z"/>
<path fill="#C56F33" opacity="1.000000" stroke="none" 
	d="
M925.896729,94.999985 
	C925.896729,85.530792 925.896729,76.561600 925.896729,67.298859 
	C933.680054,67.298859 941.099121,67.298859 948.918396,67.298859 
	C948.918396,187.664627 948.918396,308.035187 948.918396,428.702820 
	C941.499268,428.702820 934.069458,428.702820 925.896790,428.702820 
	C925.896790,317.660095 925.896790,206.580048 925.896729,94.999985 
z"/>
</svg>