<svg enable-background="new 0 0 720 448" viewBox="0 0 720 448" xmlns="http://www.w3.org/2000/svg"><path d="m209.210052 282.747864c-9.446441-18.157898-24.679931-27.396286-44.048751-30.344834-12.772629-1.944381-25.514542-2.0074-38.000359 2.19841-16.028984 5.399323-24.200493 17.325135-27.806824 33.105011-.403946 1.767518-.598076 3.585236-.832222 5.387085-.036102.277802.238053.595948.471177 1.130219 2.463294.771332 4.275054-1.077362 6.229072-2.03418 13.32708-6.525543 27.192726-11.07724 42.204292-10.385406 14.328568.660309 27.385834 5.046661 38.195679 14.961456 11.517395 10.563721 14.493118 24.461151 14.26947 39.085022-.177093 11.581726-3.217209 22.672028-10.235428 32.332764-8.22258 11.318573-19.599334 17.906158-32.76152 21.482635-27.568527 7.491028-55.201858 8.374451-82.504951-1.121796-31.837834-11.073486-41.851868-42.408081-36.293744-68.844879 2.788289-13.262329 9.334321-24.876983 16.034276-36.38977 2.773303-4.765473 5.363376-9.560272 7.210357-14.757965 2.497349-7.027924 1.549042-10.743866-3.322162-12.661621-5.841462-2.299759-13.160202.748382-15.336716 6.670349-2.608845 7.098205-1.614521 14.449371-.977886 21.73938.100906 1.155517.451324 2.289734.544727 3.445251.145214 1.79657-.185867 3.249603-2.406509 3.658447-2.181897.401734-3.39777-.243377-4.199761-2.370147-2.362144-6.263977-4.21306-12.717896-4.698248-19.338654-.865682-11.812866-.509146-23.543228 3.506293-34.98909 7.076908-20.172546 28.861633-21.838638 42.003627-13.511139 8.338601 5.283814 10.147713 14.216202 9.289635 23.368408-1.21714 12.981888-7.96254 23.787735-14.781647 34.501389-7.954639 12.49765-15.738556 25.072113-18.881443 39.893585-3.241481 15.286408 3.351582 26.672211 18.454724 30.908264 18.504257 5.189972 37.510856 5.04068 56.481697 4.775299 15.334747-.214569 30.577545-1.372589 45.241455-6.465698 2.382232-.827392 4.582336-1.930176 6.669021-3.343078 10.22313-6.92215 9.835984-18.127411-.947692-24.418641-7.702363-4.493621-16.331528-5.563446-24.986176-6.040832-18.937302-1.044586-37.563255.944275-55.671707 6.767242-3.585114 1.152832-5.476441.729554-6.301003-3.376709-3.581184-17.834015-5.023353-35.740539.841668-53.244598 6.966239-20.790634 18.080917-39.085098 40.721511-45.119904 23.465668-6.254715 46.717667-4.491165 67.207581 10.361893 12.892395 9.345642 20.113571 22.802429 24.578049 37.836319 5.061294 17.043579 6.694152 34.531952 6.92012 52.229065.148636 11.641113-.826553 23.317596 1.01094 34.917053.499146 3.150849 1.270066 6.164032 2.749054 9.01648 1.138352 2.195465 2.495392 4.036529 5.196366 4.040558 3.027267.004516 4.294571-2.238892 5.252609-4.619965 2.396576-5.95639 3.137009-12.249939 3.152908-18.582214.101639-40.492463.100403-80.985199.137299-121.47786.007019-7.70079.016037-7.701904 7.747528-6.496567 19.069733 2.972931 34.702667 11.054428 43.962341 29.004593 6.186249 11.992325 8.521698 24.897354 8.639344 38.099594.305877 34.324555.11444 68.653595.104461 102.980866-.001922 6.629883-.037536 6.629883-6.617492 6.629944-6.787781.000061-6.824219.000122-6.837067-6.460877-.052277-26.328399.157684-52.660309-.227295-78.983642-.168488-11.519928-2.267761-22.84784-7.845276-33.218048-4.458862-8.290314-10.904266-14.043366-20.172577-16.652192-4.245361-1.194946-5.287964.084565-5.27716 4.144867.071411 26.828064.307769 53.662018-.163941 80.482514-.233459 13.27539-1.53949 26.579468-6.902115 39.060089-4.241653 9.871643-12.279571 14.019745-20.5289 10.517456-3.69751-1.569824-6.185013-4.39621-8.069565-7.847382-5.397979-9.885223-6.601654-20.785431-7.977859-31.709381-1.838349-14.592315.145798-29.310791-1.797501-43.881775-1.193588-8.949707-2.922058-17.732696-7.615784-26.042663z"/><path d="m554.59436 353.607605c9.157105-1.368927 17.967286-2.247894 26.206177-5.672211 1.98407-.824585 3.973694-1.736419 5.76532-2.907196 10.858337-7.095642 10.370056-18.448242-1.031311-24.864166-7.618958-4.287415-16.064942-5.310455-24.548523-5.794281-18.780518-1.071014-37.249146.974823-55.2052 6.670898-4.152497 1.317261-5.92392.546265-6.786316-3.838378-4.154846-21.124024-4.803467-41.889435 4.514526-62.060471 9.255188-20.035187 22.889771-35.134354 45.860352-37.850037 20.671264-2.443832 41.061462-.842193 58.543091 12.482636 14.930175 11.380081 22.141418 27.425033 26.477905 45.131698 5.609314 22.904358 4.733337 46.24408 4.972595 69.524048.06842 6.658539.612366 13.304657 3.759277 19.415955 1.12909 2.192718 2.540162 4.004242 5.248475 3.966461 2.765441-.038574 4.072876-2.054565 5.016235-4.254394 2.464172-5.746186 3.249939-11.858216 3.264282-18.021424.095825-40.991211.093201-81.982635.131592-122.974014.006775-7.188904.010315-7.079224 7.306641-6.009506 18.153686 2.661453 33.444335 10.039871 43.044006 26.443634 7.33612 12.535919 9.912537 26.465851 10.019287 40.736511.258179 34.491089-.014221 68.986084.221313 103.477478.036805 5.388641-2.031677 6.347137-6.76361 6.268768-4.482788-.074249-6.994629-.495422-6.945984-6.107055.232422-26.825074.334656-53.658783-.121338-80.479157-.219422-12.904541-2.897888-25.465057-10.43573-36.443085-4.315491-6.284942-10.18103-10.274047-17.534424-12.41333-4.168152-1.212585-5.32727-.026611-5.309387 4.102204.107483 24.827789.124206 49.656555.023987 74.484436-.053833 13.328491-1.167542 26.559814-4.919068 39.443969-.93457 3.209626-2.18927 6.266938-3.989258 9.110993-7.312377 11.553711-20.485107 10.996857-26.967468-1.15741-5.297119-9.931946-6.43695-20.846161-7.78833-31.76828-1.84613-14.921417.142212-29.974823-1.904663-44.880615-2.847229-20.732849-11.399963-37.988556-30.479858-48.219147-14.711975-7.888489-30.781678-9.065277-47.114746-7.247635-11.784058 1.311386-22.31073 5.423325-30.078492 14.890702-6.619323 8.067596-9.71759 17.470367-10.763275 28.800628 7.273956-3.429565 13.575409-6.755493 20.321991-9.044403 21.830933-7.406555 42.790955-7.018341 62.419251 6.51297 9.883239 6.813324 15.439697 16.384522 17.490844 28.00119 3.830078 21.691742-.228637 41.185639-17.423767 56.253479-10.447876 9.155396-23.40039 13.124482-36.845764 15.45459-21.227539 3.678772-42.369934 3.613129-63.322296-1.945587-37.771729-10.020966-50.469208-45.350098-41.548645-76.031708 3.339752-11.486877 9.178436-21.742584 15.094299-31.969848 2.591187-4.479523 5.049073-8.980225 6.760346-13.877381 2.637115-7.546692 1.760589-11.171081-3.267212-13.098282-6.085114-2.332504-13.354065.9478-15.477753 7.223648-2.360535 6.975831-1.407074 14.151215-.793335 21.275727.085236.989715.453766 1.955597.533081 2.94519.152619 1.904389.128082 3.679535-2.451111 4.094269-2.193817.352722-3.339325-.374481-4.152404-2.475494-5.0513-13.052857-5.8862-26.551239-4.39383-40.291077.723389-6.659973 2.310578-13.155426 5.627625-19.01506 5.754394-10.165177 15.029327-13.777558 26.173034-12.800827 9.699738.850173 17.762299 4.663894 21.231446 14.679946 2.605865 7.523636 1.958526 15.034913-.44159 22.525132-3.760101 11.734405-10.846435 21.647613-17.197235 31.980865-6.374359 10.371735-12.018463 21.051422-14.604004 33.15387-3.170593 14.840881 3.466339 26.445251 18.215119 30.645141 17.001465 4.841309 34.489929 4.864624 51.974853 4.967286 8.01062.047027 15.965027-.587952 24.388977-1.152863z"/><path d="m25.928368 114.071548c9.285793 9.207077 17.675197 18.851975 28.095386 26.448731-4.836357-10.270981-7.947384-20.953674-8.253033-32.184815-1.058208-38.884353 26.086014-71.041049 64.798203-75.337894 29.738663-3.300833 54.605347 7.561588 70.181793 34.111439 10.216889 17.41449 11.081467 36.527199 7.176346 56.110504-4.417786 22.154251-17.031754 39.000732-33.555099 53.476242-1.378113 1.207321-2.680695 2.502106-4.077668 3.686325-2.157852 1.829239-4.00444 3.932602-7.128891.838089-2.91069-2.882797-1.66275-4.744995.333054-7.139893 9.137512-10.964782 16.838775-22.835357 20.615707-36.732635 3.516312-12.938263 3.531922-26.100822-.741211-38.863358-4.45314-13.30014-13.659835-22.445762-27.118423-26.580596-15.830406-4.863526-31.621178-4.373551-46.603531 3.131752-15.116554 7.572525-20.811768 21.187133-22.338326 37.126251-2.347679 24.512474 7.804398 43.232002 26.806855 57.858452 7.297897 5.617279 7.375969 6.262985 1.921669 14.865158-7.99009-2.659272-15.427895-6.677368-22.668717-10.94925-22.933479-13.530044-41.743633-31.749969-58.867837-51.945777-3.424014-4.038186-3.36509-6.66404.406434-9.83387 1.511851-1.270661 2.882988-2.708748 4.369141-4.118988 2.939501 1.348617 4.364569 3.910232 6.648148 6.034133z"/><path d="m387.268311 223.000061c.003631 71.985413.006897 143.470825.012023 214.956207.000519 7.373505.005616 7.375519-7.351013 7.390564-3.332641.006836-6.665283.003235-9.997925.005616-7.229888.005157-7.232086.005493-7.266601-6.98877-.017273-3.499207-.035645-6.998505-.035278-10.497742.011596-112.476959.023162-224.953933.043731-337.4309.001404-7.664185.033753-7.666336 7.677002-7.704354 4.332337-.021545 8.665741.01587 12.996735-.069923 2.718506-.053841 4.032104 1.121559 3.918701 3.867691-.041199.997742.010864 1.9991.010834 2.998802-.002045 44.324265-.005127 88.648545-.008209 133.472809z" fill="#c67136"/><path d="m266.17395 153.867615c-16.090088-13.897797-30.35672-29.007431-42.369018-46.144928-18.624329-26.570702-30.598526-55.920017-36.185837-87.872149-.730133-4.175362-2.227326-8.277833-1.67305-13.27346 7.37056 1.861007 14.477325 3.37652 21.411179 5.465875 13.258773 3.995215 10.033325.126152 13.877044 13.628983 12.635391 44.387703 33.290497 84.446297 64.310929 118.832642 10.392883 11.520599 21.715209 22.119278 35.954376 28.902588 3.487457 1.661361 3.367431 3.668869 2.298736 6.780944-1.158416 3.373291-3.013427 3.085114-5.787872 2.351532-17.87912-4.727264-33.30246-14.00827-47.658752-25.327209-1.307709-1.031052-2.604767-2.075577-4.177735-3.344818z"/><path d="m136.297577 158.024261c.281738 3.938935.495193 7.418595.846329 10.884308.261169 2.577744-.412613 4.335266-2.91893 5.66626-3.085312 1.638458-4.837723 1.26004-6.035645-2.149536-2.809998-7.997864-6.156059-15.781616-9.862266-23.40596-7.522294-15.474747-16.358193-30.068688-28.563721-42.389107-1.504936-1.519104-2.671807-3.094292-.90239-5.168541 5.145081-6.031479 10.298386-12.055939 15.521851-18.169029 12.711098 8.115196 19.089432 20.267914 23.811653 33.348038 4.756271 13.174492 6.732483 27.012672 8.103119 41.383567z"/></svg>