<svg version="1.1" id="Layer_1" xmlns="http://www.w3.org/2000/svg" xmlns:xlink="http://www.w3.org/1999/xlink" x="0px" y="0px"
	 width="100%" viewBox="0 0 1024 560" enable-background="new 0 0 1024 560" xml:space="preserve">
<path fill="#000000" opacity="1.000000" stroke="none" 
	d="
M915.344849,202.643860 
	C937.523254,229.270599 926.683044,268.068146 893.754639,280.099487 
	C878.706787,285.597656 862.960876,286.576630 847.018188,285.586273 
	C834.941040,284.836060 823.238342,282.978241 812.363770,277.265564 
	C797.387390,269.398102 789.871826,256.669800 787.577698,240.297729 
	C784.976196,221.731842 792.575073,206.143555 801.656799,190.947052 
	C804.309875,186.507507 806.863647,182.008408 808.375549,177.032776 
	C809.341858,173.852615 810.577271,170.517746 806.784180,168.124908 
	C803.714966,166.188705 797.876038,166.816040 795.127441,169.485855 
	C792.766724,171.778915 791.473938,174.592758 791.236877,177.905380 
	C790.866882,183.074661 790.874756,188.216217 791.919312,193.324707 
	C792.258057,194.981369 792.552979,196.690903 790.290222,197.388107 
	C787.976013,198.101181 786.882141,196.875656 786.155212,194.948212 
	C780.148071,179.019943 779.672729,162.833618 786.083191,147.144409 
	C791.889160,132.934738 811.048401,128.863159 822.776794,138.840256 
	C829.213318,144.315720 830.220581,151.986816 828.851624,159.918747 
	C827.054016,170.334015 821.623474,179.131622 816.020020,187.858292 
	C808.811951,199.083908 801.863098,210.434692 799.999939,224.074158 
	C798.575745,234.500198 803.860229,243.279114 813.962646,246.554123 
	C822.727478,249.395508 831.741760,250.755081 840.957397,250.894363 
	C859.748108,251.178329 878.582825,252.275421 897.078918,247.589844 
	C901.135315,246.562241 905.084778,245.196487 908.646118,242.988892 
	C916.510803,238.113831 916.910950,229.179764 909.551147,223.571976 
	C903.276245,218.790894 895.777405,217.800674 888.290283,217.371277 
	C871.557983,216.411652 855.022644,217.658386 838.952148,222.897293 
	C836.829285,223.589325 834.541260,224.064407 833.812073,220.928009 
	C827.995911,195.913040 829.930786,172.259003 846.418457,151.322433 
	C853.945801,141.764023 863.730408,135.641678 875.941101,134.325668 
	C893.117310,132.474518 909.909973,133.273560 924.835327,143.620972 
	C938.878662,153.356934 945.271362,167.774307 949.196411,183.624237 
	C952.576172,197.272171 953.428528,211.199707 953.307678,225.218918 
	C953.228760,234.377518 952.831726,243.570938 954.402954,252.650558 
	C955.105591,256.710388 955.723267,262.131317 960.652283,262.242004 
	C965.330688,262.347076 965.819397,257.067474 966.825928,253.218231 
	C968.153259,248.141968 967.942993,242.964462 967.953430,237.819138 
	C968.019897,205.154358 967.995728,172.489395 968.020996,139.824493 
	C968.026489,132.781418 968.063354,132.781464 974.884399,133.637741 
	C998.651245,136.621262 1015.030273,152.801102 1018.354065,176.412903 
	C1019.773865,186.498383 1020.043823,196.622787 1020.026367,206.781219 
	C1019.985596,230.446533 1020.031555,254.111969 1020.012024,277.777344 
	C1020.006592,284.322723 1019.655823,284.393188 1013.273132,284.456390 
	C1009.349304,284.495209 1008.567322,282.772675 1008.585144,279.306885 
	C1008.690002,258.975159 1008.774414,238.641144 1008.565308,218.310989 
	C1008.462402,208.310516 1007.218201,198.410751 1003.844849,188.872971 
	C999.706055,177.170959 991.885315,170.114105 981.264893,168.802597 
	C979.486633,170.344940 980.201721,172.488251 980.195374,174.368546 
	C980.133667,192.700684 980.438965,211.039032 980.055176,229.363388 
	C979.787415,242.146896 979.453125,254.997391 976.251404,267.522430 
	C975.127258,271.920013 973.507996,276.086975 970.608459,279.654510 
	C965.074707,286.463257 955.670593,286.141754 950.568237,278.970764 
	C944.812683,270.881744 944.112610,261.317261 942.665039,251.961578 
	C940.670044,239.067841 942.136047,226.033569 940.852295,213.079483 
	C937.885620,183.143570 919.493774,165.003708 888.442810,163.378418 
	C875.547058,162.703430 862.987854,164.089279 852.614136,172.789505 
	C844.549744,179.552795 841.350464,188.769699 840.249268,198.940506 
	C843.505615,200.098679 845.265442,198.226913 847.284851,197.268585 
	C862.752808,189.928452 878.659363,186.417770 895.623352,191.529175 
	C902.926208,193.729614 909.251526,197.603897 915.344849,202.643860 
z"/>
<path fill="#000000" opacity="1.000000" stroke="none" 
	d="
M580.258667,261.999939 
	C580.255432,268.165955 580.021606,273.844269 580.320923,279.494324 
	C580.570923,284.214050 577.940247,284.399811 574.378296,284.458588 
	C570.598267,284.520905 568.578247,283.793060 568.620056,279.305389 
	C568.806702,259.309235 568.767639,239.309891 568.655762,219.312561 
	C568.611694,211.434586 567.254028,203.743591 564.005981,196.481674 
	C557.865417,182.752792 546.624878,175.116287 532.624023,171.654114 
	C509.014404,165.815872 485.403778,166.350708 462.334900,174.425461 
	C452.077881,178.015732 444.725403,185.028809 442.186401,196.129593 
	C440.725006,202.518875 441.212921,203.442764 448.021667,203.536285 
	C457.733704,203.669724 467.332550,204.619843 476.774567,206.745529 
	C493.188751,210.440918 508.646606,216.086349 521.175537,228.110504 
	C539.725891,245.913437 532.860229,275.076843 510.205261,283.318665 
	C485.902100,292.160065 462.555725,289.558197 442.765747,271.328064 
	C432.619537,261.981598 428.443451,249.449326 427.084656,236.037827 
	C426.682220,232.065918 425.149933,231.072372 421.472565,231.073288 
	C410.391541,231.076050 410.535797,230.975540 409.105682,241.557648 
	C407.727600,251.754929 406.694122,262.033997 401.625732,271.374634 
	C394.429840,284.636200 378.225830,289.471649 365.145416,282.017700 
	C357.297913,277.545776 352.351410,264.921478 353.899231,253.847992 
	C357.193054,230.283585 371.671997,216.687439 393.390808,209.801697 
	C397.489960,208.502106 398.964111,206.747894 398.777985,202.506470 
	C398.366852,193.138077 397.784607,183.860001 393.464722,175.292770 
	C389.880066,168.183655 383.976776,165.097122 376.735138,166.432892 
	C370.204620,167.637466 366.135010,172.464493 365.370911,180.396637 
	C364.529816,189.128922 365.580658,197.699371 368.492859,205.982819 
	C369.220886,208.053635 369.905945,209.696350 367.229431,210.856674 
	C364.736908,211.937225 362.967255,211.842606 361.383728,209.234955 
	C352.529419,194.654251 349.088348,178.857422 350.343414,161.931946 
	C350.726471,156.766098 351.198456,151.642776 353.650177,146.934952 
	C362.106323,130.697311 388.277405,129.693085 399.227966,145.277786 
	C405.679932,154.460114 407.600677,165.107666 408.282288,175.999649 
	C408.780884,183.967178 408.977478,191.962463 409.009949,199.946594 
	C409.026276,203.964935 410.613525,205.086838 414.478210,204.789093 
	C426.600311,203.855087 426.667908,203.969116 427.569092,192.496597 
	C430.358215,156.990982 452.636169,138.917801 485.558167,134.738449 
	C498.686279,133.071854 511.791443,132.988129 524.800537,135.674408 
	C551.074219,141.099701 567.903625,156.766754 575.365295,182.538788 
	C578.958008,194.947525 580.355469,207.617416 580.276184,220.505066 
	C580.192139,234.169556 580.258362,247.834961 580.258667,261.999939 
M463.070282,271.469482 
	C475.312927,277.419800 488.039246,277.948608 501.009644,274.582611 
	C504.721832,273.619232 508.172424,271.882050 510.454926,268.467377 
	C515.317749,261.192535 512.961060,253.518448 504.087921,247.901031 
	C496.970612,243.395218 489.091675,240.659195 481.066681,238.438980 
	C469.187866,235.152588 457.129242,232.749039 444.752869,232.208176 
	C441.581665,232.069595 440.048279,232.948669 440.454376,236.408035 
	C442.226898,251.508438 448.387512,263.787781 463.070282,271.469482 
M375.044983,245.577560 
	C371.571686,249.403946 369.906799,254.028625 368.964539,259.018280 
	C367.943542,264.424866 370.149597,270.542053 373.988403,272.556946 
	C378.347504,274.844910 384.342957,274.091888 388.064087,269.563232 
	C396.284943,259.558380 397.798126,247.548172 397.710327,234.565094 
	C388.573242,235.692963 381.282593,238.719467 375.044983,245.577560 
z"/>
<path fill="#000000" opacity="1.000000" stroke="none" 
	d="
M213.351730,146.560562 
	C228.452072,157.519409 235.844727,172.573441 238.288239,190.237961 
	C240.991028,209.776550 239.863510,229.472122 240.013535,249.109207 
	C240.089920,259.106750 239.889816,269.108337 240.103210,279.101929 
	C240.193604,283.335480 238.499054,284.495270 234.486633,284.487732 
	C230.407883,284.480072 228.510132,283.619110 228.570206,278.961273 
	C228.806534,260.634369 228.715607,242.302414 228.648376,223.972687 
	C228.606247,212.488510 226.579590,201.468124 220.501801,191.467148 
	C212.396454,178.129761 199.451477,172.250717 185.017838,169.630280 
	C167.341202,166.421082 149.536377,166.703308 132.065506,171.482925 
	C109.973145,177.526840 99.044167,193.683624 101.400345,216.400299 
	C101.464523,217.019104 101.791832,217.610626 102.083939,218.473282 
	C106.756401,217.725403 111.277115,216.767776 115.847794,216.318237 
	C125.784180,215.341003 135.512955,216.383392 144.622025,220.729034 
	C155.235199,225.792252 160.428299,234.636581 161.266464,246.111557 
	C161.801636,253.438339 161.647675,260.741943 159.059479,267.808990 
	C155.134354,278.526520 147.224976,284.070618 136.194244,285.226379 
	C115.204231,287.425598 100.676170,278.684845 92.254097,259.122620 
	C91.734001,257.914551 91.372841,256.586212 89.705727,255.527313 
	C83.517754,258.997345 78.405998,264.302521 72.503372,268.504944 
	C68.301704,271.496338 64.342728,274.826233 60.218708,277.929626 
	C51.712326,284.330902 42.077419,285.916748 31.825064,284.110809 
	C20.129093,282.050629 13.395543,272.869171 12.606627,259.554718 
	C11.579784,242.224823 18.197752,227.659561 28.204060,214.296219 
	C34.784302,205.508362 41.862530,197.094315 48.675198,188.479233 
	C52.097691,184.151245 54.988632,179.485199 57.119942,174.377258 
	C59.521881,168.620712 57.455578,165.149292 51.219566,164.335007 
	C41.514191,163.067703 34.417568,167.368057 29.092098,174.990555 
	C26.817392,178.246399 25.111399,181.904495 23.210854,185.414398 
	C22.476761,186.770111 21.514494,187.460770 19.986111,186.972336 
	C18.507231,186.499725 17.958040,185.446365 18.116564,183.890930 
	C19.622042,169.119064 22.974726,155.014160 32.490528,143.052612 
	C42.063522,131.019135 55.977123,130.751541 67.530487,137.147278 
	C73.927017,140.688278 75.702698,147.348297 76.224869,154.243713 
	C77.075150,165.471802 72.346397,174.962021 66.863380,184.245636 
	C60.468128,195.073792 51.732391,204.072418 44.008266,213.863007 
	C38.840263,220.413605 34.172295,227.299423 30.686277,234.921555 
	C28.648510,239.377090 27.398060,243.979889 27.994589,248.953415 
	C28.733078,255.110519 32.318962,257.656738 38.374371,256.188690 
	C44.305660,254.750763 49.426460,251.538345 54.493172,248.364944 
	C63.948948,242.442520 73.180084,236.161667 82.629387,230.228546 
	C85.660980,228.325027 86.803688,226.070709 86.786964,222.478943 
	C86.725853,209.356384 86.144958,196.228394 89.278252,183.241760 
	C95.733116,156.488205 112.981522,141.215149 139.326279,135.667343 
	C157.857285,131.764999 176.376190,132.353302 194.623459,137.629562 
	C201.204041,139.532349 207.370499,142.473267 213.351730,146.560562 
M112.622589,267.911713 
	C118.543167,273.120667 125.621758,273.459747 132.854813,272.360901 
	C136.357010,271.828827 139.424332,270.095886 141.099426,266.570251 
	C144.521057,259.368652 141.427979,247.841110 134.316727,244.129074 
	C124.934135,239.231415 115.063797,240.066254 105.332893,243.408264 
	C103.036072,244.197098 102.136566,245.870682 102.685905,248.538589 
	C104.160408,255.699585 106.748413,262.231354 112.622589,267.911713 
z"/>
<path fill="#000000" opacity="1.000000" stroke="none" 
	d="
M644.399780,24.531635 
	C658.028442,34.981228 665.157166,49.108810 669.107239,64.935966 
	C675.415833,90.213463 674.236206,115.700188 670.720764,141.274139 
	C666.763977,170.059311 658.763123,197.818710 650.902466,225.687393 
	C641.908325,257.574921 636.362549,290.190643 632.081604,323.064331 
	C628.260925,352.403412 627.269531,381.825958 628.448120,411.270172 
	C629.888611,447.256592 634.099915,482.913544 647.364868,516.844910 
	C651.677063,527.875427 656.695618,538.609497 663.400391,548.403076 
	C665.910706,552.069946 664.269470,554.338074 661.853516,556.491272 
	C659.053223,558.987061 657.693115,555.775574 656.208313,554.422668 
	C630.633423,531.119507 616.115173,501.602783 608.853149,468.310699 
	C602.858154,440.826904 602.143066,412.952026 603.406250,384.878632 
	C605.339661,341.906586 613.226440,300.035004 625.083069,258.835571 
	C631.250244,237.405685 639.131592,216.499496 645.004761,194.967377 
	C652.390930,167.888794 657.717041,140.497025 656.590820,112.272133 
	C656.031189,98.248268 653.914307,84.386864 647.463440,71.648087 
	C639.932373,56.776077 628.141235,47.307255 611.536682,44.262516 
	C594.064880,41.058758 577.411438,42.380760 562.495239,53.215477 
	C552.345154,60.588268 545.843933,70.801926 540.513733,81.834862 
	C535.642761,91.917274 532.563538,102.634979 529.973267,113.506172 
	C529.485535,115.553177 529.672302,118.547005 525.992920,118.011780 
	C522.431030,117.493645 521.367737,115.413994 521.774353,112.040382 
	C524.223389,91.719910 526.602478,71.424072 535.365479,52.508385 
	C545.283936,31.098574 560.349426,15.816180 584.505920,12.332603 
	C605.599854,9.290677 626.011047,11.549633 644.399780,24.531635 
z"/>
<path fill="#c67136" opacity="1.000000" stroke="none" 
	d="
M306.315918,142.000031 
	C306.313446,202.471100 306.312103,262.442169 306.306030,322.413208 
	C306.305359,329.116852 306.264343,329.160431 299.721161,329.188629 
	C296.223175,329.203705 292.724731,329.132111 289.226807,329.152008 
	C286.345612,329.168396 284.892487,327.834015 284.949707,324.910065 
	C284.975769,323.578064 284.936371,322.244873 284.936462,320.912231 
	C284.941895,222.626373 284.947296,124.340508 284.957123,26.054647 
	C284.957825,19.271872 285.129578,19.116037 291.963043,19.057728 
	C306.307373,18.935329 306.314087,18.935328 306.315460,33.052505 
	C306.319000,69.201683 306.316040,105.350853 306.315918,142.000031 
z"/>
<path fill="#c67136" opacity="1.000000" stroke="none" 
	d="
M738.250000,123.000076 
	C738.242432,189.155167 738.235413,254.810257 738.226440,320.465332 
	C738.225281,329.138763 738.220093,329.218201 729.819519,329.141998 
	C714.821838,329.005951 716.838501,331.104645 716.829651,316.181366 
	C716.772705,219.698441 716.799805,123.215446 716.799744,26.732475 
	C716.799744,19.057833 716.801880,18.998318 724.652649,19.055656 
	C740.617859,19.172256 738.134888,17.360077 738.191956,32.515957 
	C738.304932,62.510311 738.240784,92.505325 738.250000,123.000076 
z"/>
</svg>