<svg enable-background="new 0 0 688 448" viewBox="0 0 688 448" xmlns="http://www.w3.org/2000/svg"><path d="m503.49881 298.472534c-7.005737 14.848847-7.557709 28.902069 3.064422 42.016083 7.519043 9.282989 18.231324 12.095886 29.302185 12.996399 15.471924 1.258575 30.980469 1.268127 45.720582-4.974304 4.933776-2.089478 9.480285-4.79126 13.835144-7.928223 3.107177-2.238251 2.979614-4.033356.676086-6.853424-16.08728-19.694611-35.213928-35.81131-56.884827-49.015961-9.928161-6.04953-9.39862-3.325836-4.973083-14.65625 1.453369-3.720947 3.181335-7.359375 4.309753-11.175689 1.184876-4.007431 3.122925-4.178376 6.642761-2.731232 19.943543 8.199707 35.761109 21.648315 49.325989 38.078552 5.706726 6.912201 10.638123 14.397827 16.472901 22.830017 4.685852-17.835327 3.587646-33.780945-5.826477-48.410675-12.618775-19.60968-31.452393-20.534592-51.574463-15.864609-1.718384-1.788818-.641541-3.289169-.125305-4.818603 6.404663-18.974671 19.674072-29.876404 39.433715-31.968933 16.358521-1.732331 32.270142.525467 46.633545 9.422088 13.773682 8.531357 22.276001 21.21251 28.01709 36.008011 5.886963 15.171356 8.651001 30.97992 9.849548 47.154022 1.972962 26.624634.381836 53.280152.984803 79.913025.082763 3.655548-1.157776 5.289704-4.877747 4.885224-1.317749-.143311-2.678955-.162262-3.99353-.008606-4.359802.509491-4.815491-2.051453-4.80304-5.506958.068726-18.994415-.00708-37.989258.006958-56.983978.008911-12.018494-1.185302-23.900361-4.023376-35.585846-4.124695-16.983033-11.463928-32.007599-26.613281-41.959671-8.798645-5.780106-18.57013-8.7034-29.121827-9.178727-.393066 1.831787.993164 2.212586 1.773438 2.853745 13.686768 11.247452 19.374695 26.436935 20.459106 43.425522 1.017578 15.94226.816346 31.943329-2.964843 47.635864-.614746 2.551117.337036 4.533752 1.32788 6.647095 5.731141 12.224182 10.620667 24.778839 14.949891 37.566559.995971 2.941803.848022 4.897399-1.949341 6.783172-3.252381 2.192505-5.092835 1.775452-7.057434-1.694305-4.825806-8.523438-9.991455-16.854462-14.746521-24.804932-1.551697-.368713-1.97638.174011-2.321167.743683-11.534302 19.058105-29.412903 27.758758-50.638123 30.828918-15.378845 2.224549-30.593689 1.093659-45.357788-3.740509-21.801971-7.138427-33.401611-23.016754-37.726807-44.991912-4.051483-20.584626 2.479615-38.752442 12.4292-56.19629 4.282043-7.507415 9.296936-14.634124 11.634887-23.131469.922913-3.35437 1.641724-6.648773-1.603302-9.121247-3.074218-2.342361-6.567657-2.104171-9.986602-.856811-4.750855 1.733246-6.579071 5.700409-7.802033 10.253204-1.834167 6.828278-.268402 13.575104.190003 20.34372.137298 2.027527 1.011596 3.983307-1.99289 4.643615-2.664947.585694-4.404938.130249-5.346832-2.791626-5.952423-18.464935-6.654816-37.016845-.001953-55.345809 6.826996-18.808655 28.439117-21.443161 41.982635-12.316346 9.32721 6.285431 10.160889 16.33458 8.541016 26.469086-1.602295 10.024338-6.35315 18.866531-11.657959 27.397415-4.748291 7.636017-9.7677 15.115967-13.592987 23.717926z"/><path d="m96.944962 354.77356c9.917457-.0495 19.012947-1.379975 27.398666-6.169892 6.517044-3.722503 9.390457-9.57315 9.084091-16.589996-.311874-7.14267-5.369766-11.24408-11.673538-13.570465-8.356903-3.084137-17.096184-4.394287-25.978951-4.044556-4.506004.17746-6.644294-1.236267-5.985168-5.904358.023064-.16336.003342-.332886.001923-.499542-.070069-8.221375-.069985-8.249023 7.974685-8.220001 6.999016.025238 14.001084.206543 20.736321-2.240265 4.993065-1.813904 9.272674-4.576325 12.088318-9.190643 5.756103-9.433136 2.373169-20.454071-7.776993-25.659333-9.577973-4.911865-19.863617-4.256195-29.859947-2.808929-12.246918 1.773163-23.502373 6.340973-31.298672 16.808716-1.583813 2.126495-3.276566 1.853302-5.208721.722564-1.813519-1.061279-4.180352-1.628173-3.364121-4.670837 4.235523-15.788757 9.540592-30.891998 23.487076-41.215088 5.78212-4.279846 12.229851-6.657715 19.097084-8.171631 12.20063-2.689712 24.28965-1.577713 35.783104 2.818054 17.338272 6.63115 25.79628 20.685547 25.121094 39.588318-.466843 13.070648-4.479035 24.444641-14.664749 33.197815-4.492691 3.860871-10.087006 5.511933-15.859223 8.049561 8.113053 2.217712 15.410111 5.079834 20.505188 11.336151 10.115967 12.421539 10.177216 26.648071 6.2052 41.175568-4.648117 17.000305-16.222168 27.164917-33.11045 31.194915-19.969765 4.765351-39.706414 4.022858-58.622132-4.537536-21.619117-9.783783-35.154094-27.059418-41.135494-49.439423-9.719647-36.367004-7.584497-72.35788 8.867321-106.568008 14.88134-30.944474 39.604439-49.946274 73.56147-56.408707 4.722054-.898682 9.537979-1.321304 14.32058-1.877029 2.220672-.258027 4.344383-.350373 4.811737 2.802856.431572 2.911819-1.427277 3.268646-3.457611 3.78833-15.806672 4.04596-30.507721 10.433914-43.553231 20.41008-24.146495 18.465302-38.985763 42.450943-43.071943 72.738342-1.811037 13.423645-2.329094 26.899231 1.745684 40.05542 8.704818 28.105255 32.719394 44.369202 63.831402 43.099549z"/><path d="m304.775909 381.158569c-4.570922-7.346649-8.959259-14.379486-13.143097-21.084564-2.29364-.090759-2.45108 1.338623-2.960784 2.2724-10.611908 19.439972-26.63031 30.373993-48.987275 32.132782-14.336761 1.127869-28.00592-.535858-40.202636-8.38623-13.803711-8.884766-20.271057-22.567536-22.706787-38.318696-1.014267-6.55899-1.384446-13.221588-1.926758-19.846954-.144715-1.767914-.330399-3.777954 2.340912-4.188415 2.272339-.349183 3.739578.203308 4.665863 2.531372 8.272903 20.792205 25.73204 26.925567 45.917373 28.345642 11.059067.778015 21.96428-.145905 32.220841-4.969666 4.423309-2.080322 8.22229-4.964813 11.742889-8.345398 2.962067-2.844269 3.079224-5.104309.352417-8.438476-15.904571-19.446869-34.950073-35.156769-56.337616-48.142731-8.145813-4.945862-8.200378-4.886261-4.836883-13.543884 1.982315-5.102539 4.020691-10.183289 6.214981-15.731812 29.799148 10.209229 49.284225 32.059143 66.436325 56.701721.467529-.131805.935028-.26361 1.402557-.395416 0-5.237305-.002472-10.474579.000397-15.711883.013519-24.664795.01654-49.32959.051422-73.994355.008667-6.121994.052918-6.086425 6.014526-5.426071 25.179902 2.789215 42.272095 15.754013 50.121796 40.10524 3.085999 9.573273 3.893555 19.607697 3.970245 29.556519.258179 33.495575.131562 66.994323.062745 100.491638-.004395 2.139679 1.215087 5.301422-1.69339 6.148651-3.299042.960968-7.043488 1.108856-10.314301-.169342-2.173401-.849365-1.366272-3.523224-1.371124-5.432678-.052582-20.665039-.102631-41.330414-.031098-61.99527.049622-14.328125.296662-28.658722-4.452056-42.472016-3.983033-11.586059-10.677338-20.681579-22.909394-24.552185-5.445801-1.723205-6.092712-1.236846-6.100586 4.434815-.024353 17.498657.008515 34.997436-.011718 52.496094-.005555 4.827545.04013 9.648681-.810303 14.449981-.682068 3.850281.060242 7.463227 1.879028 11.075714 6.671875 13.251465 12.174317 26.999451 17.055817 41.016694 1.342865 3.85614.97879 6.07489-2.904267 7.915527-4.16101 1.972443-4.300781-1.66449-5.693359-3.533569-1.0896-1.462464-1.925476-3.113892-3.056702-4.995179z"/><path d="m407.0495 445.36145c-1.157715.001068-1.824219.006409-2.490632.000855-6.669403-.055512-6.710846-.056-6.710937-6.646149-.001618-116.462097.005829-232.924179.019104-349.386276.000763-6.634308.031799-6.641976 6.676178-6.655533 4.6651-.009522 9.335449.141647 13.993652-.036232 3.366516-.128563 4.496765 1.469955 4.31015 4.514923-.101898 1.662041-.342926 3.322357-.339294 4.983055.072937 33.314858.178802 66.629639.26416 99.944458.064453 25.157791.145355 50.315613.155792 75.473435.023621 56.981353.007965 113.962707.008881 170.944061.000092 6.835754.001831 6.838592-6.899078 6.859924-2.832184.008759-5.66446.002258-8.987976.003479z" fill="#c67136"/><path d="m192.442383 142.583466c-26.57959-21.427849-43.353211-49.294518-55.896393-80.058335-7.187668-17.628711-11.617973-36.029257-14.544991-54.809236-.230102-1.476329-.580665-2.961306.870392-4.853337 6.599556 1.690181 13.373818 4.004733 20.338951 5.062828 8.792344 1.335675 12.774765 5.556563 15.066498 14.484248 7.696945 29.984348 19.951431 58.147594 36.866287 84.232586 18.694977 28.830192 44.915955 47.201393 77.58313 56.846275 13.43161 3.965637 27.119416 6.548874 41.129883 7.302902 1.983246.106751 3.975189.342423 5.675812 1.501267-.560883 7.483657-1.110993 8.139358-8.130524 7.976242-35.386108-.822281-69.418808-7.118348-100.518661-25.119309-6.351303-3.676224-12.416657-7.773239-18.440384-12.566131z"/></svg>