<svg enable-background="new 0 0 992 464" viewBox="0 0 992 464" xmlns="http://www.w3.org/2000/svg"><path d="m735.468628 465c-9.225281-1.859772-18.030151-3.519836-26.72937-5.617767-23.738831-5.724884-45.723267-15.05777-64.705872-30.929383-27.449646-22.950988-33.924865-62.094879-14.148254-91.854797 15.841247-23.837769 37.344726-40.367004 65.541565-47.508575 10.947998-2.772828 20.274109-.780304 28.378174 7.395416 4.136657 4.173248 7.983215 8.526123 11.09497 13.452362 6.533814 10.343628 5.319702 21.717895-4.102295 33.613861-7.879821 9.948822-17.860168 17.058838-29.902771 21.759216-12.281921 4.793823-33.187622-8.763672-35.53601-18.588073-1.353638-5.662629-.115845-10.617218 2.839355-15.226258 2.948486-4.598602 6.30481-8.935699 9.497498-13.4086-12.616944 1.267182-31.363282 16.451386-33.537964 34.399536-3.345886 27.61554 9.357605 46.812348 31.441711 60.956604 20.40094 13.066254 43.416138 19.09488 67.009949 23.178925 26.388245 4.567719 53.026001 4.715271 79.660461 3.948486 56.768921-1.634369 111.913575-12.302703 165.634339-30.575683 1.410522-.479767 2.882202-.779511 4.710632-1.079254.385254 3.445282.385254 6.806549.015015 10.679443-6.68451 3.079742-13.052979 5.522858-19.304016 8.236481-38.682312 16.792358-79.070679 27.453949-120.701172 33.628265-9.181275 1.361694-18.414978 2.369202-27.624573 3.539795-29.687561 0-59.375122 0-89.531372 0m-45.144226-130.085205c3.183777 8.267151 7.263122 10.641205 14.740723 8.578613 7.036376-1.940887 12.567138-10.165466 11.556884-17.185821-.900573-6.258637-8.707702-12.123871-15.8432-11.96991-1.425415.030731-2.66388.328461-3.435181 1.571991-3.489929 5.626739-7.324463 11.127502-7.019226 19.005127z"/><path d="m302.814117 370.711243c-3.295196 7.335235-6.47998 14.300995-9.53247 21.324249-1.237976 2.848358-3.106232 3.612518-5.977997 2.630554-3.496674-1.195679-2.215881-3.542175-1.409027-5.676758 7.433136-19.665161 13.079376-39.811432 16.06195-60.641357 2.438935-17.033508 2.55777-34.12854 1.060303-51.273285-1.421692-16.277069-5.798553-31.699524-12.601593-46.489471-1.24295-2.702256-2.337921-5.495743-4.773346-8.213364-2.282989 1.911392-4.613861 3.695343-6.7565 5.682251-26.16333 24.26152-57.328247 37.361008-92.409088 42.413895-48.523651 6.989135-92.445122-5.18219-133.061157-31.186966-15.031647-9.624176-27.957352-21.715973-35.863161-38.115021-6.802717-14.110871-7.116459-28.602158-.330765-42.889176 7.517488-15.827758 19.044542-28.859283 30.07834-42.206443 7.848221-9.493668 16.090187-18.665711 23.909027-29.592179-7.565132 4.595436-14.747917 7.413452-22.645305 8.508705-8.134289 1.128098-14.551445-1.407112-19.066765-8.075325-6.469223-9.553741-9.773121-20.284477-10.933058-31.737846-.485956-4.798389.903612-8.88945 3.98688-12.45079 11.317077-13.071848 24.981689-22.990494 40.907413-29.637938 15.831867-6.608265 29.345409-1.701102 41.032909 9.507555 15.265038 14.63961 17.368805 37.780472.231957 57.740093-16.046394 18.689545-33.271988 36.401787-47.74255 56.429993-4.214043 5.83252-7.958179 11.939774-10.357746 18.738113-4.548153 12.885636-1.747696 24.606034 6.240051 35.271866 12.547852 16.754822 29.782456 27.461151 48.232468 36.302475 16.882225 8.090012 34.600731 13.933106 53.25872 16.257584 9.763581 1.216385 19.668732.878097 29.453797.188629 18.362594-1.293838 36.228424-5.085663 53.05899-12.85704 12.47934-5.762253 23.853516-13.219178 34.14801-22.365189 2.572052-2.28511 2.77182-3.988876.437531-6.53595-16.429489-17.927368-36.436264-29.266403-60.502823-33.31398-3.289246-.553177-3.897766 1.598328-4.654465 3.892182-3.161285 9.582962-8.023971 18.09999-14.40329 26.035705-12.681869 15.775925-36.115478 17.274887-50.525238 10.161163-5.977981-2.951171-11.698486-6.452087-16.166099-11.569412-3.712822-4.252777-4.349381-7.989166-.839104-12.129547 18.791474-22.164566 39.88797-41.27008 70.561417-43.873428 31.458587-2.669998 60.074432 5.405945 84.62915 25.961715 2.171356 1.817765 4.282288 3.708619 6.398285 5.591324 2.08371 1.853974 3.384186 4.550263 6.548981 5.991135 3.059265-3.659348 4.06607-8.257538 5.152832-12.614243 7.507355-30.09552-2.032562-55.044632-23.827545-75.889061-14.036316-13.42414-31.160294-21.57756-49.709519-26.607002-6.013428-1.630482-9.439041-4.813728-11.226745-10.507641-1.646607-5.244568-3.154831-10.399414-3.35466-16.027122-.285553-8.041063 3.607528-13.188692 9.930572-17.160721.281464-.176817.6008-.294304.878342-.476276 14.544967-9.536769 29.139496-10.901464 45.729721-3.891666 21.611053 9.131221 41.040649 21.244891 59.082397 35.951476 3.891754 3.172348 2.323426 6.564949.404755 9.747406-2.16507 3.59116-4.75592 1.584435-7.214447.071286-17.159515-10.561181-34.071777-21.595311-53.227081-28.40646-2.971222-1.056484-6.098359-1.677456-9.060608-2.755005-2.429688-.883837-3.754761-.140242-4.67804 2.122398-.976883 2.393967.466644 3.333859 2.241547 4.180199 10.258667 4.891659 19.974914 10.634689 28.783691 17.883648 21.633759 17.802879 34.66214 40.535858 38.867249 68.195801 3.743866 24.625961-1.413391 47.693023-13.380585 69.290664-2.188873 3.950287-2.21283 6.804154-.080597 10.888062 11.983276 22.951446 15.980194 47.635589 15.73468 73.358124-.314911 32.990814-8.431976 64.15094-20.730591 94.847412m-242.158523-332.61834c-2.431553 1.742443-4.997799 3.327438-7.262543 5.26487-3.258606 2.787666-4.725765 6.502273-3.881534 10.743484.842746 4.233738 2.116642 8.369027 4.00122 12.301979 2.105496 4.394005 5.204388 6.00467 10.119992 4.786629 6.063125-1.502388 11.526924-4.235191 16.961341-7.133537 3.238533-1.727204 4.245461-4.678196 3.898621-7.991474-.523956-5.005242-1.853638-9.805439-5.122177-13.844559-6.184609-7.642689-11.365036-8.605488-18.71492-4.127392m105.628937 132.605492c-6.552307 2.522598-12.439484 5.915481-16.464661 11.924927 7.033722 6.070129 14.147736 7.45047 22.606583 4.138061 8.723297-3.415985 14.847305-9.487671 18.333542-19.205963-8.625412-.256775-16.215668.935348-24.475464 3.142975z"/><path d="m790.049927 42.152508c3.253845-11.38854 8.494018-15.583035 17.743713-14.580672 7.556519.818884 13.73645 7.548888 14.231934 15.498644.431091 6.915764-5.228455 14.041603-12.645935 15.922303-6.676575 1.692836-14.459473-2.405762-17.481507-9.25887-1.006897-2.283283-1.751709-4.657672-1.848205-7.581405z"/><path d="m662.96405 93.654854c-9.627258 12.420502-23.333801 7.87223-27.721191-2.875176-2.710083-6.638557-1.027893-13.598098 4.355102-17.978134 5.449463-4.434158 12.880616-4.971443 18.577454-1.343185 5.991577 3.815979 8.705872 10.919883 6.699158 17.745453-.417969 1.421615-1.122193 2.759056-1.910523 4.451042z"/><path d="m746.557251 12.195049c10.174255-.629383 17.30304 5.264607 18.305115 14.686182.764465 7.18727-5.381653 15.239344-12.525757 16.410193-8.961792 1.468754-16.880921-3.488285-18.67572-11.690251-2.074036-9.477922 2.52655-16.571516 12.896362-19.406124z"/><path d="m681.604248 55.506493c-8.074097-8.543148-7.587891-19.305626.861633-25.331889 5.71283-4.074436 15.271668-3.415571 20.306824 1.399685 5.469971 5.231062 6.220032 14.064055 1.741699 20.509646-4.649414 6.691677-12.023193 8.87878-19.200012 5.641926-1.197266-.539986-2.295166-1.300106-3.710144-2.219368z"/><path d="m862.871399 80.383224c2.326965 10.314278-2.975464 18.612031-12.638184 20.362702-8.14978 1.476562-16.863952-5.179596-18.240539-13.932663-.898316-5.712174 3.609924-13.541184 9.375488-16.281273 5.821106-2.766479 13.630859-1.29509 17.743347 3.588982 1.469788 1.745544 2.423523 3.925621 3.759888 6.262252z"/><path d="m688.74292 225.432297c7.757019-.748322 13.336731 2.220611 16.917358 8.593445 3.277771 5.833862 2.33667 12.262802-2.16455 17.554626-4.066468 4.780747-10.643738 6.68779-16.635926 4.823532-5.648559-1.757339-10.29126-7.788742-10.924316-14.19191-.537476-5.436126 3.18341-12.156265 8.315613-14.88269 1.314453-.698288 2.73645-1.194321 4.491821-1.897003z"/><path d="m764.545837 258.445953c-2.547485 10.238434-10.206482 15.571289-19.036071 13.57074-8.604065-1.949432-13.966919-11.019653-11.799317-19.956039 1.416443-5.839478 7.21051-10.564377 13.804688-11.25737 6.460449-.678925 13.154358 2.88591 15.527771 8.574478 1.135864 2.722183 2.183227 5.586593 1.502929 9.068191z"/><path d="m838.361206 211.763336c-6.56842-6.246795-7.855408-12.179306-4.447144-19.472259 2.605408-5.57486 9.185914-9.199036 15.571595-8.575943 7.249634.707367 12.369201 5.552292 14.117492 13.360229 1.12793 5.037415-2.157348 12.396591-6.920959 15.503281-5.958435 3.88591-12.005737 3.696533-18.320984-.815308z"/><path d="m796.370972 253.789444c-9.47168-9.940765-7.540955-22.737244 3.759338-27.139664 6.894959-2.686172 14.433472-.346924 18.937683 5.87648 3.559693 4.918396 3.162964 14.012314-.815613 18.694596-4.763061 5.605529-12.855163 7.282287-19.400879 4.008133-.743164-.37175-1.453308-.809449-2.480529-1.439545z"/><path d="m877.594971 148.236496c-4.208802 8.158234-10.712769 11.213623-18.58313 9.003555-7.52301-2.112518-11.663269-7.963134-11.332337-16.013733.312317-7.598266 5.693604-13.319564 13.824585-14.698234 11.285462-1.913552 19.820435 9.294044 16.090882 21.708412z"/><path d="m657.184814 213.446518c-7.982605 4.752823-17.889221-.327118-21.02893-6.249542-3.818115-7.202133-1.852356-15.959 4.831848-20.862519 6.219543-4.562667 15.598022-3.29068 20.695068 2.806855 5.251526 6.282318 4.973267 16.020645-.65802 21.349548-1.080749 1.02269-2.332763 1.864395-3.839966 2.955658z"/><path d="m623.030151 152.928467c-5.676147-7.818146-5.687683-14.829834-.286255-21.215882 4.204834-4.971389 12.136048-6.649299 18.260132-3.86309 8.213074 3.736641 11.634522 14.060417 7.277466 21.958809-4.485229 8.130707-14.414734 10.585861-22.203796 5.471695-.968384-.635849-1.865662-1.380081-3.047547-2.351532z"/></svg>