<svg enable-background="new 0 0 1814 466" viewBox="0 0 1814 466" xmlns="http://www.w3.org/2000/svg"><path d="m1195 467c-398.333313 0-796.166656 0-1194 0 0-155.333344 0-310.666672 0-466h1814v466c-206.5 0-413 0-620 0m585.144531-91.566101c6.509033 25.143249 7.591675 50.814575 6.842652 76.510162 4.537353 1.065125 6.031616-.593261 6.157959-4.498993.134521-4.152374.805664-8.2854 1.184204-12.432159 3.03479-33.245422 2.76355-66.198029-8.162598-98.307343-10.672241-31.363525-29.791992-56.430938-57.009277-74.980041-30.499878-20.786392-65.075196-30.025864-101.46521-32.619949-40.622315-2.895783-80.839966 1.406677-120.790039 8.580535-8.266846 1.484482-16.424927 3.574494-25.062867 5.480271-.556884-50.47815-1.436767-100.622086-1.469848-150.766594-.010254-15.629021 4.415527-30.565926 13.484131-43.771477 8.074829-11.758728 18.58313-16.199539 32.418579-12.47298 19.966186 5.377807 38.123047 14.719432 54.797485 26.882545 2.194946 1.601063 3.672119 2.110645 6.071411.594093 4.070069-2.572761 8.270386-4.98249 12.58667-7.115024 12.053589-5.955402 23.854981-12.643837 36.397461-17.323883 12.352051-4.609013 25.396973-5.277775 37.832031 1.206154 11.357666 5.922031 17.530762 16.103649 22.072998 27.366348 4.635743 11.494324 3.369751 29.953659-2.107055 39.056824-.62793-.852478-1.202759-1.6455-1.790406-2.42881-9.332397-12.438195-21.125122-21.54506-35.900146-26.683632-8.229004-2.861969-15.112671-.85904-20.508301 5.775726-7.394409 9.092773-11.974975 19.530716-13.695923 31.135757-1.214599 8.190911 1.238526 15.016724 7.792603 20.389298 10.592041 8.6828 23.144409 12.202743 36.324463 13.863876 8.503052 1.071686 16.94519.7612 24.693603-3.842804 11.664063-6.930572 20.276612-16.808014 26.484742-28.596397 8.457153-16.059006 12.168701-33.274124 7.518554-51.149475-3.486206-13.4012-12.257446-23.878742-22.261596-33.176575-19.85669-18.454702-42.946656-24.087099-68.271241-14.309145-16.0708 6.205059-31.217529 14.831495-46.663696 22.600512-2.840454 1.428646-4.844238 1.715591-7.676758-.061615-6.902954-4.33125-14.017578-8.339789-21.16333-12.266468-13.470825-7.40238-27.128418-14.203579-43.024414-14.714582-20.16394-.648199-37.008667 5.601451-48.679199 22.81307-10.313599 15.210945-14.939575 32.406764-14.971314 50.474178-.096923 54.992912.395996 109.987007.719361 164.980293.038818 6.599838-1.674439 14.448776 1.274902 19.446213 2.982056 5.05249 10.750855 7.279785 15.579346 10.229462 13.598144-4.60138 26.379883-9.373993 39.429809-13.241303 21.48523-6.367126 43.70459-8.578979 65.935303-10.605774 31.109253-2.836136 61.886597-1.263916 92.200806 6.621491 27.055176 7.037597 51.184448 19.674591 71.72583 38.709869 21.154785 19.603668 33.824096 44.185669 41.148315 72.648346m-1487.518188-83.601685c1.294555 1.046143 2.571686 2.114746 3.886291 3.135071 21.227234 16.475128 36.073853 37.511536 45.107727 62.769623 8.098084 22.641602 11.66742 46.065216 12.285462 69.997131.208923 8.089295.033142 16.188568.033142 24.244202 5.539947.27533 5.683136.156769 6.135223-4.373718.148773-1.49112.355103-2.97638.517365-4.466278 3.042267-27.9375 3.609832-55.809784-1.594879-83.609589-4.61615-24.656128-14.14325-47.142761-29.732453-66.799225-29.68518-37.430038-70.453003-54.50473-116.177322-61.569458-22.258301-3.439102-44.779343-3.735565-67.298264-2.193252-30.256813 2.07228-60.351005 5.25888-89.944656 12.185302-2.971104.695404-5.939995 1.400238-9.474465 2.233857 0-13.061875.013276-25.368653-.002479-37.675416-.047791-37.323303-.546452-74.654769.146736-111.96418.173958-9.362922 2.904026-19.202285 6.67535-27.857063 6.357235-14.589168 19.740956-21.477489 34.531407-24.444797 34.775947-6.976876 69.601936-5.987553 103.96334 2.714313 13.722809 3.475239 26.892136 8.897846 36.663361 20.126755 7.779221 8.939766 11.551102 18.98896 9.719742 31.801605-1.562683-1.485222-2.435455-2.424095-3.417084-3.230453-8.014694-6.583641-16.439667-12.462151-26.543182-15.480294-7.031632-2.100502-13.2706-.764785-18.154068 4.737709-8.624741 9.718041-13.753952 21.095597-15.071732 34.080338-.761398 7.502434 1.770462 13.668701 7.642136 18.518112 12.11029 10.001892 26.440582 13.364914 41.665985 14.508301 11.605682.871551 21.234985-3.060486 27.918564-12.246567 4.515548-6.206329 8.471756-13.263275 10.789444-20.541214 6.736999-21.155388 4.65039-41.154129-9.398987-59.425999-14.115769-18.358215-32.865067-29.298549-54.505081-35.925674-26.359543-8.072448-53.410538-9.040123-80.632469-6.812377-20.071625 1.64259-39.426964 6.106017-56.972325 16.649989-13.379516 8.040489-24.384662 18.319054-31.927791 32.190003-7.190369 13.222252-10.00499 27.353958-9.988009 42.260696.056376 49.490364.011482 98.980827.034224 148.47126.002592 5.640152-1.687458 12.383194.803259 16.61705 2.606946 4.431366 9.395725 6.328492 14.188386 9.581208 2.202008 1.494476 3.982373 1.278717 6.331852.411132 11.53542-4.259521 22.914448-9.239593 34.784584-12.241851 41.456734-10.485321 83.546318-14.853516 126.25103-10.131134 32.782044 3.625152 63.320969 13.591125 90.760636 33.754882m368.797912-248.785362c-7.905334-5.970074-15.302246-12.843691-23.857849-17.658148-8.697021-4.893999-18.257934-9.013616-27.952514-11.163392-9.982056-2.213541-20.576844-2.060679-30.912903-2.189407-15.82074-.197038-31.0224 3.363768-44.981323 10.753344-25.918915 13.720997-42.151032 35.237217-49.715027 63.536473-2.636719 9.864914-.685669 18.474449 6.860778 24.942413 7.90387 6.774368 16.226471 13.327316 25.217591 18.495659 10.294128 5.917358 21.663025 8.605225 33.282715 2.714844 14.183471-7.190033 21.221618-19.64058 24.389282-34.482193 1.294006-6.062813.642822-12.438599-4.269226-17.182625-3.936218-3.80156-7.85138-7.850586-12.455506-10.686165-8.566406-5.275864-17.627929-9.747784-27.044006-14.858681 2.493103-2.279449 5.105774-4.950756 8.002808-7.266353 10.674133-8.531895 23.176941-12.771473 36.546814-13.826874 11.321167-.893681 22.772155-1.316422 33.791382 2.931812 18.395141 7.091854 32.789611 19.313915 44.167419 35.026345 16.139282 22.28778 26.487793 46.42173 22.621155 74.963859-3.033448 22.392136-13.702515 39.968826-32.052552 52.769211-26.690246 18.618133-56.382934 21.562637-87.428161 15.274322-4.901856-.992904-8.302735-.221374-10.724671 3.599106-4.161438 6.564575-8.356201 13.188324-11.645813 20.205017-4.081237 8.705033-2.869934 16.806763 5.15802 23.147446 1.689332 1.334259 3.087647 3.030487 4.688782 4.484222 5.92981 5.384095 12.526184 8.947052 20.927735 8.384247 11.569274-.774963 23.24353-.596954 34.715698-2.059448 16.226867-2.068573 32.303589-5.303741 48.460144-7.944305 3.845215-.628479 4.461975-2.890351 3.59613-6.083802-.744079-2.743957-1.147461-4.996139-5.516784-4.109039-23.303711 4.731293-46.876099 6.954834-70.687439 6.149414-1.738282-.058777-3.480225-.00769-5.231568-.00769.221802-7.926499 1.096619-8.998719 7.902588-8.779343 25.991699.837753 49.358704-7.380173 70.465332-21.695648 23.756226-16.112488 41.306458-37.712464 51.760376-64.624085 6.386719-16.441314 10.388245-33.583511 5.335083-50.979423-3.32904-11.460533-8.362854-22.565842-13.789001-33.242928-7.306946-14.378143-17.632264-26.720966-29.625489-38.538185m385.871399-5.838356c-.682251-.280853-1.655517-1.003067-2.001831-.77462-3.679931 2.427834-7.260254 5.006645-10.870117 7.545403 19.464844 35.263504 38.511841 69.888443 57.745361 104.4095 1.695191 3.042511 1.586304 5.142166-.043945 8.098678-18.600708 33.733261-37.052124 67.548905-55.531494 101.348999-.688232 1.258606-1.256714 2.582642-1.984863 4.091523 3.886596 2.732818 7.509521 5.280212 11.430908 8.037506 2.151489-2.441986 4.120605-4.659851 6.071411-6.893769 26.612427-30.475448 53.020386-61.133697 79.989258-91.29042 5.978027-6.684555 9.083984-13.133606 8.00122-22.129318-.560913-4.660798-1.567382-8.376526-4.760009-11.997132-29.292115-33.218338-58.404297-66.595535-88.045899-100.44635z" fill="#fff"/><path d="m1780.067871 375.029053c-7.247559-28.057831-19.91687-52.639832-41.071655-72.2435-20.541382-19.035278-44.670654-31.672272-71.72583-38.709869-30.314209-7.885407-61.091553-9.457627-92.200806-6.621491-22.230713 2.026795-44.450073 4.238648-65.935303 10.605774-13.049926 3.86731-25.831665 8.639923-39.429809 13.241303-4.828491-2.949677-12.59729-5.176972-15.579346-10.229462-2.949341-4.997437-1.236084-12.846375-1.274902-19.446213-.323365-54.993286-.816284-109.987381-.719361-164.980293.031739-18.067414 4.657715-35.263233 14.971314-50.474178 11.670532-17.211619 28.515259-23.461269 48.679199-22.81307 15.895996.511003 29.553589 7.312202 43.024414 14.714582 7.145752 3.926679 14.260376 7.935218 21.16333 12.266468 2.83252 1.777206 4.836304 1.490261 7.676758.061615 15.446167-7.769017 30.592896-16.395453 46.663696-22.600512 25.324585-9.777954 48.414551-4.145557 68.271241 14.309145 10.00415 9.297833 18.77539 19.775375 22.261596 33.176575 4.650147 17.875351.938599 35.090469-7.518554 51.149475-6.20813 11.788383-14.820679 21.665825-26.484742 28.596397-7.748413 4.604004-16.190551 4.91449-24.693603 3.842804-13.180054-1.661133-25.732422-5.181076-36.324463-13.863876-6.554077-5.372574-9.007202-12.198387-7.792603-20.389298 1.720948-11.605041 6.301514-22.042984 13.695923-31.135757 5.39563-6.634766 12.279297-8.637695 20.508301-5.775726 14.775024 5.138572 26.567749 14.245437 35.900146 26.683632.587647.78331 1.162476 1.576332 1.790406 2.42881 5.476806-9.103165 6.742798-27.5625 2.107055-39.056824-4.542236-11.262699-10.715332-21.444317-22.072998-27.366348-12.435058-6.483929-25.47998-5.815167-37.832031-1.206154-12.54248 4.680046-24.343872 11.368481-36.397461 17.323883-4.316284 2.132534-8.516601 4.542263-12.58667 7.115024-2.399292 1.516552-3.876465 1.00697-6.071411-.594093-16.674438-12.163113-34.831299-21.504738-54.797485-26.882545-13.835449-3.726559-24.34375.714252-32.418579 12.47298-9.068604 13.205551-13.494385 28.142456-13.484131 43.771477.033081 50.144508.912964 100.288444 1.469848 150.766594 8.63794-1.905777 16.796021-3.995789 25.062867-5.480271 39.950073-7.173858 80.167724-11.476318 120.790039-8.580535 36.390014 2.594085 70.965332 11.833557 101.46521 32.619949 27.217285 18.549103 46.337036 43.616516 57.009277 74.980041 10.926148 32.109314 11.197388 65.061921 8.162598 98.307343-.37854 4.146759-1.049683 8.279785-1.184204 12.432159-.126343 3.905732-1.620606 5.564118-6.157959 4.498993.749023-25.695587-.333619-51.366913-6.919312-76.915008m-119.10022-244.308975c2.887696.122055 6.317261 1.307327 8.559937.164001 6.375488-3.250275 12.266601-7.450684 18.633301-11.456375-7.983521-10.571304-16.549439-18.207039-27.51416-22.859116-4.065796-1.72509-8.437378-1.614204-10.128418 3.020806-5.261475 14.419647-5.62378 24.179855 10.44934 31.130684z" fill="#030303"/><path d="m292.355835 291.59967c-27.169159-19.931213-57.708084-29.897186-90.490128-33.522338-42.704712-4.722382-84.794296-.354187-126.25103 10.131134-11.870136 3.002258-23.249164 7.98233-34.784584 12.241851-2.349479.867585-4.129844 1.083344-6.331852-.411132-4.792661-3.252716-11.58144-5.149842-14.188386-9.581208-2.490717-4.233856-.800667-10.976898-.803259-16.61705-.022742-49.490433.022152-98.980896-.034224-148.47126-.016981-14.906738 2.79764-29.038444 9.988009-42.260696 7.543129-13.870949 18.548275-24.149514 31.927791-32.190003 17.545361-10.543972 36.9007-15.007399 56.972325-16.649989 27.221931-2.227746 54.272926-1.260071 80.632469 6.812377 21.640014 6.627125 40.389312 17.567459 54.505081 35.925674 14.049377 18.27187 16.135986 38.270611 9.398987 59.425999-2.317688 7.277939-6.273896 14.334885-10.789444 20.541214-6.683579 9.186081-16.312882 13.118118-27.918564 12.246567-15.225403-1.143387-29.555695-4.506409-41.665985-14.508301-5.871674-4.849411-8.403534-11.015678-7.642136-18.518112 1.31778-12.984741 6.446991-24.362297 15.071732-34.080338 4.883468-5.502494 11.122436-6.838211 18.154068-4.737709 10.103515 3.018143 18.528488 8.896653 26.543182 15.480294.981629.806358 1.854401 1.745231 3.417084 3.230453 1.83136-12.812645-1.940521-22.861839-9.719742-31.801605-9.771225-11.228909-22.940552-16.651516-36.663361-20.126755-34.361404-8.701866-69.187393-9.691189-103.96334-2.714313-14.790451 2.967308-28.174172 9.855629-34.531407 24.444797-3.771324 8.654778-6.501392 18.494141-6.67535 27.857063-.693188 37.309411-.194527 74.640877-.146736 111.96418.015755 12.306763.002479 24.613541.002479 37.675416 3.53447-.833619 6.503361-1.538453 9.474465-2.233857 29.593651-6.926422 59.687843-10.113022 89.944656-12.185302 22.518921-1.542313 45.039963-1.24585 67.298264 2.193252 45.724319 7.064728 86.492142 24.13942 116.177322 61.569458 15.589203 19.656464 25.116303 42.143097 29.732453 66.799225 5.204711 27.799805 4.637146 55.672089 1.594879 83.609589-.162262 1.489898-.368592 2.975158-.517365 4.466278-.452087 4.530487-.595276 4.649048-6.135223 4.373718 0-8.055634.175781-16.154907-.033142-24.244202-.618042-23.931915-4.187378-47.355529-12.285462-69.997131-9.033874-25.258087-23.880493-46.294495-45.107727-62.769623-1.314605-1.020325-2.591736-2.088928-4.156799-3.367615m-90.587936-170.161682c4.494857 3.225815 8.819946 6.732941 13.541778 9.582672 3.383606 2.042069 7.075714.854065 9.524063-1.966461 3.462631-3.988991 6.573349-8.323242 9.43541-12.76696.756119-1.173996.73648-4.199966-.097595-4.832939-6.973099-5.291725-14.021027-10.548225-21.480393-15.104897-3.029526-1.850639-7.193222-1.28804-8.942108 2.731606-3.012878 6.924766-5.221069 14.075043-1.981155 22.356979z" fill="#020202"/><path d="m661.676514 43.295464c11.740966 11.568607 22.066284 23.91143 29.37323 38.289573 5.426147 10.677086 10.459961 21.782395 13.789001 33.242928 5.053162 17.395912 1.051636 34.538109-5.335083 50.979423-10.453918 26.911621-28.00415 48.511597-51.760376 64.624085-21.106628 14.315475-44.473633 22.533401-70.465332 21.695648-6.805969-.219376-7.680786.852844-7.902588 8.779343 1.751343 0 3.493286-.051087 5.231568.00769 23.81134.80542 47.383728-1.418121 70.687439-6.149414 4.369323-.8871 4.772705 1.365082 5.516784 4.109039.865845 3.193451.249085 5.455323-3.59613 6.083802-16.156555 2.640564-32.233277 5.875732-48.460144 7.944305-11.472168 1.462494-23.146424 1.284485-34.715698 2.059448-8.401551.562805-14.997925-3.000152-20.927735-8.384247-1.601135-1.453735-2.99945-3.149963-4.688782-4.484222-8.027954-6.340683-9.239257-14.442413-5.15802-23.147446 3.289612-7.016693 7.484375-13.640442 11.645813-20.205017 2.421936-3.82048 5.822815-4.59201 10.724671-3.599106 31.045227 6.288315 60.737915 3.343811 87.428161-15.274322 18.350037-12.800385 29.019104-30.377075 32.052552-52.769211 3.866638-28.542129-6.481873-52.676079-22.621155-74.963859-11.377808-15.71243-25.772278-27.934491-44.167419-35.026345-11.019227-4.248234-22.470215-3.825493-33.791382-2.931812-13.369873 1.055401-25.872681 5.294979-36.546814 13.826874-2.897034 2.315597-5.509705 4.986904-8.002808 7.266353 9.416077 5.110897 18.4776 9.582817 27.044006 14.858681 4.604126 2.835579 8.519288 6.884605 12.455506 10.686165 4.912048 4.744026 5.563232 11.119812 4.269226 17.182625-3.167664 14.841613-10.205811 27.29216-24.389282 34.482193-11.61969 5.890381-22.988587 3.202514-33.282715-2.714844-8.99112-5.168343-17.313721-11.721291-25.217591-18.495659-7.546447-6.467964-9.497497-15.077499-6.860778-24.942413 7.563995-28.299256 23.796112-49.815476 49.715027-63.536473 13.958923-7.389576 29.160583-10.950382 44.981323-10.753344 10.336059.128728 20.930847-.024134 30.912903 2.189407 9.69458 2.149776 19.255493 6.269393 27.952514 11.163392 8.555603 4.814457 15.952515 11.688074 24.110108 17.90676m-136.149231 27.648834c-1.540161-.56633-3.080384-1.13266-4.973023-1.828568-4.196106 7.518761-7.02948 15.344193-7.661743 23.923218-.628174 8.5224 3.228088 15.07251 9.140381 20.654625 3.1698 2.992744 6.747925 3.774506 10.842895 1.587456 8.545838-4.564156 12.259095-11.842453 13.285096-21.268608.869995-7.992279-2.936707-12.972802-9.007202-16.861328-3.487244-2.233765-7.265381-4.013436-11.626404-6.206795z" fill="#cdb692"/><path d="m1047.53418 37.468475c29.403076 33.590836 58.515258 66.968033 87.807373 100.186371 3.192627 3.620606 4.199096 7.336334 4.760009 11.997132 1.082764 8.995712-2.023193 15.444763-8.00122 22.129318-26.968872 30.156723-53.376831 60.814972-79.989258 91.29042-1.950806 2.233918-3.919922 4.451783-6.071411 6.893769-3.921387-2.757294-7.544312-5.304688-11.430908-8.037506.728149-1.508881 1.296631-2.832917 1.984863-4.091523 18.47937-33.800094 36.930786-67.615738 55.531494-101.348999 1.630249-2.956512 1.739136-5.056167.043945-8.098678-19.23352-34.521057-38.280517-69.145996-57.745361-104.4095 3.609863-2.538758 7.190186-5.117569 10.870117-7.545403.346314-.228447 1.31958.493767 2.240357 1.034599z" fill="#020202"/><path d="m1660.616821 130.554871c-15.72229-6.785622-15.359985-16.54583-10.09851-30.965477 1.69104-4.63501 6.062622-4.745896 10.128418-3.020806 10.964721 4.652077 19.530639 12.287812 27.51416 22.859116-6.3667 4.005691-12.257813 8.2061-18.633301 11.456375-2.242676 1.143326-5.672241-.041946-8.910767-.329208z" fill="#fbfbfb"/><path d="m201.556885 121.11293c-3.0289-7.956878-.820709-15.107155 2.192169-22.031921 1.748886-4.019646 5.912582-4.582245 8.942108-2.731606 7.459366 4.556672 14.507294 9.813172 21.480393 15.104897.834075.632973.853714 3.658943.097595 4.832939-2.862061 4.443718-5.972779 8.777969-9.43541 12.76696-2.448349 2.820526-6.140457 4.00853-9.524063 1.966461-4.721832-2.849731-9.046921-6.356857-13.752792-9.90773z" fill="#fafafa"/><path d="m525.884216 71.048927c4.00409 2.08873 7.782227 3.868401 11.269471 6.102166 6.070495 3.888526 9.877197 8.869049 9.007202 16.861328-1.026001 9.426155-4.739258 16.704452-13.285096 21.268608-4.09497 2.18705-7.673095 1.405288-10.842895-1.587456-5.912293-5.582115-9.768555-12.132225-9.140381-20.654625.632263-8.579025 3.465637-16.404457 7.661743-23.923218 1.892639.695908 3.432862 1.262238 5.329956 1.933197z" fill="#fffffe"/></svg>