<svg version="1.1" id="Layer_1" xmlns="http://www.w3.org/2000/svg" xmlns:xlink="http://www.w3.org/1999/xlink" x="0px" y="0px"
	 width="100%" viewBox="0 0 2018 592" enable-background="new 0 0 2018 592" xml:space="preserve">
<path fill="#FFFFFF" opacity="1.000000" stroke="none" 
	d="
M1348.000000,593.000000 
	C898.666687,593.000000 449.833344,593.000000 1.000000,593.000000 
	C1.000000,395.666656 1.000000,198.333328 1.000000,1.000000 
	C673.666687,1.000000 1346.333374,1.000000 2019.000000,1.000000 
	C2019.000000,198.333328 2019.000000,395.666656 2019.000000,593.000000 
	C1795.500000,593.000000 1572.000000,593.000000 1348.000000,593.000000 
M925.634644,437.564606 
	C926.925537,428.353729 930.528748,419.182129 926.703552,409.612396 
	C930.889709,406.962524 934.905945,403.979858 939.299866,401.736969 
	C946.818787,397.898865 950.347229,399.521179 952.546631,407.524536 
	C953.601318,411.362091 954.232544,415.322968 954.929382,419.250427 
	C956.090332,425.794739 956.724854,432.463989 958.341187,438.889465 
	C961.638916,451.999908 968.276245,462.644318 982.580566,465.701294 
	C997.519653,468.893982 1009.804199,464.177216 1017.483398,450.782196 
	C1025.154297,437.401672 1032.072632,423.572296 1038.920532,409.741516 
	C1050.073975,387.214996 1058.661987,363.088776 1079.818359,346.941559 
	C1077.265015,342.770264 1074.896362,338.900787 1072.541260,335.053558 
	C1050.645264,349.294434 1036.181030,369.336304 1024.190308,391.514191 
	C1019.530762,400.132416 1014.798401,408.717438 1009.831970,417.160370 
	C1007.994629,420.283875 1005.301453,424.175659 1001.302124,422.527374 
	C998.430420,421.343811 996.004089,417.884033 994.511169,414.877533 
	C992.929016,411.691345 992.581604,407.860870 991.877014,404.276001 
	C989.894592,394.190002 988.533630,383.946136 985.914185,374.032257 
	C983.796448,366.017059 978.323547,362.671875 971.159058,363.517303 
	C967.718506,363.923340 964.229248,364.580536 960.965088,365.710571 
	C940.071533,372.943756 923.330078,386.314392 907.188660,402.160156 
	C906.037903,402.272949 904.887085,402.484131 903.736328,402.484467 
	C846.241333,402.500458 788.746277,402.500122 731.251282,402.486786 
	C730.014648,402.486481 728.778015,402.313843 726.222717,402.123169 
	C785.213989,316.638153 851.063477,238.363480 924.324402,166.292053 
	C922.835083,163.860916 921.205566,161.698425 920.107849,159.293259 
	C918.427734,155.611984 915.814819,154.734741 911.884216,154.741379 
	C839.390686,154.863754 766.896912,154.819519 694.403259,154.890091 
	C692.370850,154.892075 689.790833,155.137680 688.397217,156.344666 
	C679.895142,163.708008 671.662598,171.382645 663.255859,179.030167 
	C665.391296,181.789154 667.080078,183.477402 668.178833,185.488098 
	C670.907104,190.480408 674.916870,191.649429 680.473938,191.628372 
	C735.801697,191.418625 791.130554,191.501160 846.459106,191.501160 
	C848.349609,191.501160 850.240051,191.501160 853.390564,191.501160 
	C779.565308,264.023895 718.172241,344.580109 663.543091,429.411804 
	C666.589905,437.626343 671.802063,440.234619 679.429626,439.102325 
	C683.509521,438.496643 687.743713,438.930511 692.852417,438.972595 
	C756.751404,438.972595 820.650391,438.972595 884.921265,438.972595 
	C884.586548,441.898499 884.224304,444.015472 884.119446,446.145172 
	C883.104553,466.749115 878.033997,486.280060 867.384155,503.979095 
	C854.504761,525.383301 836.564758,540.501038 811.449097,545.609009 
	C806.632019,546.588684 801.639343,546.704895 796.727661,547.219421 
	C797.650696,545.000122 798.948059,544.179626 799.899719,543.064209 
	C807.748047,533.864441 816.797974,525.384705 823.037598,515.189575 
	C832.276306,500.094086 822.843628,474.353180 800.499023,471.822357 
	C786.516846,470.238678 773.275330,473.078949 760.666931,478.445496 
	C737.373352,488.360016 719.590576,503.966736 713.724548,529.733948 
	C709.359009,548.910156 714.468994,562.426392 734.740295,571.531006 
	C751.634521,579.118713 769.503235,579.416626 787.221558,577.691528 
	C820.988831,574.403809 849.316528,559.181274 873.153198,535.320557 
	C891.532227,516.922974 905.127686,495.278473 914.888672,471.357422 
	C919.249939,460.669220 921.738342,449.216797 925.634644,437.564606 
M296.913513,403.361572 
	C298.525726,401.459930 299.972595,399.381897 301.779510,397.687927 
	C308.680878,391.218109 315.396027,384.483490 322.838989,378.694031 
	C325.384155,376.714294 330.572357,375.756195 333.238770,377.046692 
	C335.443817,378.113922 336.717438,383.211975 336.609711,386.464600 
	C336.442444,391.515320 335.009979,396.586884 333.651978,401.522491 
	C330.751373,412.064667 327.057556,422.410400 324.597626,433.046814 
	C321.037079,448.442230 328.846283,459.861664 343.978912,461.742706 
	C353.869385,462.972168 363.550079,461.382690 372.776459,457.362671 
	C384.054688,452.448669 392.874603,444.860870 398.975433,432.308289 
	C399.764740,445.489288 400.529114,457.052307 401.130371,468.623779 
	C401.763214,480.803009 401.695160,480.806458 412.155609,486.977234 
	C412.442566,487.146515 412.738159,487.306000 413.005493,487.502960 
	C415.487427,489.331329 417.378510,489.001038 419.105621,486.287537 
	C422.309753,481.253571 425.645233,476.297729 429.076996,471.415466 
	C434.269287,464.028595 435.430267,455.966888 433.577209,447.285095 
	C433.231842,445.666809 433.158997,443.987366 433.002808,442.332123 
	C430.353973,414.262604 430.346527,386.166504 432.119080,358.048950 
	C432.355652,354.295807 425.300446,345.591156 421.692474,345.020721 
	C421.223785,344.946594 420.557526,344.916534 420.254242,345.179321 
	C413.499146,351.033569 406.398499,356.569366 400.287476,363.038483 
	C398.407013,365.029144 399.289612,369.597809 398.838654,372.976898 
	C397.380524,383.902863 400.016724,395.233490 395.005188,405.844238 
	C390.815674,414.714539 385.993988,422.871246 377.297974,428.069000 
	C373.186859,430.526276 368.676758,431.494904 364.488007,429.218567 
	C360.261841,426.921906 360.232361,422.206696 360.712341,418.067078 
	C361.262939,413.317993 362.433685,408.625122 363.555847,403.960968 
	C366.775940,390.577118 370.905151,377.342499 370.017975,363.314880 
	C369.525848,355.533905 365.921448,349.643341 358.759430,346.408661 
	C348.468903,341.761017 338.479218,343.976715 329.105682,348.995300 
	C309.051849,359.732056 294.239532,376.447296 280.087616,393.666382 
	C275.649536,399.066345 271.662384,403.699738 263.051453,402.099030 
	C208.039703,402.099030 153.027954,402.099030 97.218773,402.099030 
	C98.539009,399.984344 99.187187,398.851929 99.923546,397.780060 
	C156.084167,316.029938 219.497208,240.374115 290.360046,170.961594 
	C291.994476,169.360657 294.114960,165.698090 293.469116,164.776031 
	C290.864868,161.058029 290.702179,154.851105 283.888062,154.858124 
	C210.572220,154.933670 137.256226,154.893112 63.940384,154.976471 
	C62.110344,154.978546 59.827267,155.526169 58.527153,156.685089 
	C51.090111,163.314316 43.854340,170.171768 36.646996,177.053101 
	C35.779541,177.881317 34.909290,179.395767 35.044792,180.464874 
	C35.603233,184.871002 44.391857,191.767258 49.069950,191.766464 
	C105.556427,191.756836 162.042892,191.742798 218.529373,191.751373 
	C219.891891,191.751572 221.254364,191.998901 223.263962,192.193695 
	C217.657135,197.783035 212.667908,202.687531 207.753693,207.666092 
	C142.343063,273.933136 86.620872,347.811188 36.423237,426.011658 
	C35.364918,427.660339 34.476185,430.740387 35.290501,432.006165 
	C37.269444,435.082153 38.479050,439.118378 43.809662,439.108124 
	C121.291000,438.959229 198.772736,439.023346 276.254181,438.898804 
	C278.299774,438.895538 280.962433,437.894104 282.274048,436.415192 
	C286.667938,431.460907 290.796387,426.231873 294.617920,420.819550 
	C299.091614,414.483521 298.902283,414.354980 294.135315,408.191895 
	C293.955872,407.959930 293.975616,407.573944 293.860107,407.077026 
	C294.663452,405.968292 295.535095,404.765259 296.913513,403.361572 
M1532.933472,402.002441 
	C1474.687988,402.002441 1416.442627,402.002441 1357.422485,402.002441 
	C1358.704346,399.934967 1359.451538,398.516052 1360.393921,397.241241 
	C1381.557617,368.610016 1402.046509,339.446045 1424.075928,311.496338 
	C1463.487305,261.493347 1505.694946,213.909912 1551.723022,169.815491 
	C1552.819824,168.764725 1554.092407,167.124557 1554.051392,165.797501 
	C1553.902100,160.983215 1547.017700,154.905014 1542.200562,154.904907 
	C1475.036621,154.903351 1407.872681,154.903748 1340.708740,154.903671 
	C1317.880127,154.903641 1317.870728,154.894379 1301.795532,171.273468 
	C1299.931396,173.172729 1298.177002,175.191116 1296.504395,177.261444 
	C1295.806030,178.125946 1294.972290,179.299286 1295.030640,180.282867 
	C1295.255615,184.068787 1304.411377,191.765106 1308.425659,191.764648 
	C1365.089966,191.758133 1421.754150,191.744995 1478.418457,191.752808 
	C1479.809570,191.753006 1481.200684,191.974762 1482.591797,192.093170 
	C1482.854614,192.545273 1483.117432,192.997360 1483.380249,193.449448 
	C1473.575684,202.906906 1463.450562,212.056641 1454.024780,221.877701 
	C1421.936890,255.311127 1392.010620,290.642761 1364.781250,328.114258 
	C1341.323853,360.394989 1319.021973,393.515869 1296.280640,426.314850 
	C1295.335815,427.677734 1294.344238,429.743530 1294.702393,431.141663 
	C1295.952515,436.021820 1300.513062,439.003998 1305.735718,439.003998 
	C1379.232788,439.003662 1452.733643,438.620605 1526.223145,439.365875 
	C1539.025024,439.495697 1546.447021,434.697968 1552.243652,424.693512 
	C1552.660400,423.974121 1553.147583,423.293243 1553.631348,422.615326 
	C1557.219604,417.586609 1560.922485,412.565186 1553.290894,407.614807 
	C1554.911133,405.623962 1556.160156,404.089417 1557.914551,402.362427 
	C1565.804077,392.867615 1574.112671,383.739105 1584.858032,377.429138 
	C1591.739258,373.388428 1596.932129,376.386414 1596.796875,384.341888 
	C1596.711060,389.393829 1595.527222,394.516296 1594.211548,399.440338 
	C1591.133301,410.961029 1587.061401,422.246857 1584.531860,433.875763 
	C1581.296021,448.751617 1588.245117,459.524963 1602.927979,461.436218 
	C1621.982788,463.916565 1638.782471,458.247040 1651.801758,443.485718 
	C1654.405518,440.533386 1656.415771,437.057556 1659.047974,433.329987 
	C1660.008667,448.456360 1660.887817,462.897858 1661.899658,477.330017 
	C1662.004761,478.829315 1662.459473,480.921021 1663.503662,481.628601 
	C1667.591431,484.398682 1671.981079,486.723511 1676.374146,489.281067 
	C1684.059448,481.568542 1688.958130,472.526886 1693.197998,463.126312 
	C1694.222412,460.854980 1694.526245,458.024719 1694.379883,455.496796 
	C1693.369385,438.063385 1691.606567,420.655853 1691.163940,403.212616 
	C1690.771729,387.757996 1691.780273,372.268158 1692.151733,356.793396 
	C1692.217773,354.041290 1684.235840,344.965302 1681.558105,344.903564 
	C1680.687134,344.883514 1679.676392,345.486328 1678.937866,346.068542 
	C1674.914551,349.240906 1671.042603,352.610321 1666.955811,355.696350 
	C1660.228638,360.776367 1658.791138,367.512939 1658.583862,375.668488 
	C1658.334229,385.487640 1659.750122,395.622009 1655.325562,405.132416 
	C1650.760376,414.945068 1645.670898,424.186157 1635.317871,429.032043 
	C1626.825562,433.006958 1620.315063,429.099670 1620.745605,419.810333 
	C1621.002930,414.256683 1622.629883,408.744293 1623.859375,403.262329 
	C1626.799805,390.151123 1630.964355,377.239655 1630.115845,363.537354 
	C1629.635376,355.777466 1626.154541,349.847504 1619.007935,346.539032 
	C1609.120728,341.961792 1599.448486,343.717743 1590.275879,348.573669 
	C1566.587891,361.114105 1549.828613,381.084656 1532.933472,402.002441 
M2000.794434,190.957642 
	C2000.502075,189.831055 2000.236938,188.696564 1999.913330,187.579041 
	C1991.336060,157.948151 1971.360962,145.286087 1940.685547,152.735550 
	C1919.429688,157.897491 1902.579468,170.543213 1888.867798,187.275162 
	C1877.128296,201.600479 1868.415649,217.260330 1870.094482,236.777634 
	C1871.345703,251.323471 1877.530884,262.599182 1891.562988,268.293365 
	C1906.677490,274.426819 1921.865601,273.161438 1936.808960,267.560425 
	C1941.138184,265.937744 1945.125000,263.401306 1949.268799,261.283722 
	C1949.675415,261.601868 1950.082031,261.919983 1950.488525,262.238098 
	C1943.593506,275.440155 1937.322876,289.016083 1929.685913,301.774048 
	C1906.795776,340.013885 1875.599487,370.825378 1840.736084,397.998718 
	C1825.926758,409.541534 1810.029175,419.684967 1794.716431,430.590790 
	C1793.360718,431.556274 1791.505371,434.308655 1791.860107,434.798584 
	C1795.060913,439.218445 1798.562378,443.453613 1802.339233,447.394501 
	C1803.068115,448.155060 1805.604370,447.873322 1806.927124,447.257324 
	C1813.098267,444.383606 1819.332153,441.557312 1825.190552,438.113647 
	C1870.398682,411.540009 1909.825928,378.205292 1942.976196,337.460236 
	C1960.283813,316.187500 1975.240967,293.516388 1986.733765,268.569397 
	C1997.980835,244.155685 2005.103516,219.038391 2000.794434,190.957642 
M1802.992554,275.481171 
	C1788.793457,337.062378 1759.038818,390.251495 1714.856567,436.428192 
	C1720.767578,440.482239 1725.650146,444.208740 1730.942993,447.212646 
	C1732.382568,448.029755 1735.640015,447.377747 1737.077515,446.198425 
	C1752.330078,433.683807 1765.629272,419.249725 1777.377930,403.438721 
	C1809.723999,359.908295 1832.757935,311.928711 1844.672729,258.944489 
	C1849.528198,237.353043 1852.417480,215.382156 1847.998413,193.218170 
	C1845.554565,180.961777 1841.185425,169.551697 1831.724365,160.810333 
	C1818.747925,148.820938 1803.227173,148.813843 1787.632202,152.897598 
	C1765.080322,158.803101 1747.462158,172.566742 1733.566528,190.897598 
	C1723.905396,203.642380 1717.119141,217.550385 1717.703735,234.457489 
	C1718.462158,256.390167 1732.477295,270.245667 1753.349243,271.868561 
	C1772.418335,273.351349 1788.443848,266.173767 1802.880371,254.462585 
	C1803.922852,253.616959 1805.051147,252.877197 1807.237915,251.291992 
	C1805.718018,260.043579 1804.449341,267.349213 1802.992554,275.481171 
M1406.500000,118.092033 
	C1442.481201,118.092018 1478.468750,117.722885 1514.439331,118.338600 
	C1524.029175,118.502754 1531.653564,115.680504 1538.567993,109.939659 
	C1544.062378,105.377716 1549.122803,100.290634 1554.326904,95.384506 
	C1555.009888,94.740547 1555.794312,93.814629 1555.857056,92.969154 
	C1556.142944,89.121529 1548.762207,81.800621 1544.764648,81.800423 
	C1494.457642,81.797974 1444.150513,81.798820 1393.843506,81.798813 
	C1391.991943,81.798813 1390.140381,81.798805 1388.647217,81.798805 
	C1393.914551,74.489914 1399.731323,68.167603 1403.538208,60.805912 
	C1414.646118,39.325771 1400.614990,14.379557 1376.428589,13.200468 
	C1348.022217,11.815645 1324.131470,21.411179 1308.158936,46.170319 
	C1299.927246,58.930363 1296.524292,73.049538 1300.273438,88.085861 
	C1304.431396,104.762291 1322.924805,117.742821 1342.535156,117.955368 
	C1363.521362,118.182823 1384.511597,118.061363 1406.500000,118.092033 
M166.052933,97.491684 
	C183.246445,107.813225 200.416840,118.173859 217.679581,128.378296 
	C218.989120,129.152405 221.620941,129.611450 222.505981,128.868408 
	C228.037811,124.224228 233.247574,119.196426 238.588455,114.273140 
	C227.102051,104.060425 215.986511,94.813560 205.598999,84.810654 
	C183.317154,63.353794 161.255753,41.661453 139.424744,19.746111 
	C130.229691,10.515543 130.517868,10.017372 119.200790,16.975380 
	C110.176865,22.523506 101.488724,28.570301 94.267593,37.537537 
	C101.616753,44.499432 108.338455,51.672600 115.879417,57.844830 
	C132.186371,71.191963 148.913239,84.026047 166.052933,97.491684 
z"/>
<path fill="#020202" opacity="1.000000" stroke="none" 
	d="
M1557.408936,402.554840 
	C1556.160156,404.089417 1554.911133,405.623962 1553.290894,407.614807 
	C1560.922485,412.565186 1557.219604,417.586609 1553.631348,422.615326 
	C1553.147583,423.293243 1552.660400,423.974121 1552.243652,424.693512 
	C1546.447021,434.697968 1539.025024,439.495697 1526.223145,439.365875 
	C1452.733643,438.620605 1379.232788,439.003662 1305.735718,439.003998 
	C1300.513062,439.003998 1295.952515,436.021820 1294.702393,431.141663 
	C1294.344238,429.743530 1295.335815,427.677734 1296.280640,426.314850 
	C1319.021973,393.515869 1341.323853,360.394989 1364.781250,328.114258 
	C1392.010620,290.642761 1421.936890,255.311127 1454.024780,221.877701 
	C1463.450562,212.056641 1473.575684,202.906906 1483.380249,193.449448 
	C1483.117432,192.997360 1482.854614,192.545273 1482.591797,192.093170 
	C1481.200684,191.974762 1479.809570,191.753006 1478.418457,191.752808 
	C1421.754150,191.744995 1365.089966,191.758133 1308.425659,191.764648 
	C1304.411377,191.765106 1295.255615,184.068787 1295.030640,180.282867 
	C1294.972290,179.299286 1295.806030,178.125946 1296.504395,177.261444 
	C1298.177002,175.191116 1299.931396,173.172729 1301.795532,171.273468 
	C1317.870728,154.894379 1317.880127,154.903641 1340.708740,154.903671 
	C1407.872681,154.903748 1475.036621,154.903351 1542.200562,154.904907 
	C1547.017700,154.905014 1553.902100,160.983215 1554.051392,165.797501 
	C1554.092407,167.124557 1552.819824,168.764725 1551.723022,169.815491 
	C1505.694946,213.909912 1463.487305,261.493347 1424.075928,311.496338 
	C1402.046509,339.446045 1381.557617,368.610016 1360.393921,397.241241 
	C1359.451538,398.516052 1358.704346,399.934967 1357.422485,402.002441 
	C1416.442627,402.002441 1474.687988,402.002441 1533.860474,401.981934 
	C1542.328003,402.159210 1549.868408,402.357025 1557.408936,402.554840 
z"/>
<path fill="#020202" opacity="1.000000" stroke="none" 
	d="
M296.406738,403.562225 
	C295.535095,404.765259 294.663452,405.968292 293.860107,407.077026 
	C293.975616,407.573944 293.955872,407.959930 294.135315,408.191895 
	C298.902283,414.354980 299.091614,414.483521 294.617920,420.819550 
	C290.796387,426.231873 286.667938,431.460907 282.274048,436.415192 
	C280.962433,437.894104 278.299774,438.895538 276.254181,438.898804 
	C198.772736,439.023346 121.291000,438.959229 43.809662,439.108124 
	C38.479050,439.118378 37.269444,435.082153 35.290501,432.006165 
	C34.476185,430.740387 35.364918,427.660339 36.423237,426.011658 
	C86.620872,347.811188 142.343063,273.933136 207.753693,207.666092 
	C212.667908,202.687531 217.657135,197.783035 223.263962,192.193695 
	C221.254364,191.998901 219.891891,191.751572 218.529373,191.751373 
	C162.042892,191.742798 105.556427,191.756836 49.069950,191.766464 
	C44.391857,191.767258 35.603233,184.871002 35.044792,180.464874 
	C34.909290,179.395767 35.779541,177.881317 36.646996,177.053101 
	C43.854340,170.171768 51.090111,163.314316 58.527153,156.685089 
	C59.827267,155.526169 62.110344,154.978546 63.940384,154.976471 
	C137.256226,154.893112 210.572220,154.933670 283.888062,154.858124 
	C290.702179,154.851105 290.864868,161.058029 293.469116,164.776031 
	C294.114960,165.698090 291.994476,169.360657 290.360046,170.961594 
	C219.497208,240.374115 156.084167,316.029938 99.923546,397.780060 
	C99.187187,398.851929 98.539009,399.984344 97.218773,402.099030 
	C153.027954,402.099030 208.039703,402.099030 263.789856,402.499756 
	C266.524963,402.946930 268.521545,402.998291 270.518341,403.039032 
	C279.147766,403.215088 287.777283,403.388123 296.406738,403.562225 
z"/>
<path fill="#010101" opacity="1.000000" stroke="none" 
	d="
M691.908264,438.895233 
	C687.743713,438.930511 683.509521,438.496643 679.429626,439.102325 
	C671.802063,440.234619 666.589905,437.626343 663.543091,429.411804 
	C718.172241,344.580109 779.565308,264.023895 853.390564,191.501160 
	C850.240051,191.501160 848.349609,191.501160 846.459106,191.501160 
	C791.130554,191.501160 735.801697,191.418625 680.473938,191.628372 
	C674.916870,191.649429 670.907104,190.480408 668.178833,185.488098 
	C667.080078,183.477402 665.391296,181.789154 663.255859,179.030167 
	C671.662598,171.382645 679.895142,163.708008 688.397217,156.344666 
	C689.790833,155.137680 692.370850,154.892075 694.403259,154.890091 
	C766.896912,154.819519 839.390686,154.863754 911.884216,154.741379 
	C915.814819,154.734741 918.427734,155.611984 920.107849,159.293259 
	C921.205566,161.698425 922.835083,163.860916 924.324402,166.292053 
	C851.063477,238.363480 785.213989,316.638153 726.222717,402.123169 
	C728.778015,402.313843 730.014648,402.486481 731.251282,402.486786 
	C788.746277,402.500122 846.241333,402.500458 903.736328,402.484467 
	C904.887085,402.484131 906.037903,402.272949 908.100830,402.083008 
	C914.559265,402.005859 920.105469,402.005859 926.104797,402.005859 
	C926.104797,405.000305 926.104797,407.437256 926.104797,409.874237 
	C930.528748,419.182129 926.925537,428.353729 924.883179,437.791016 
	C848.258484,438.012909 772.385315,438.003143 696.512146,438.041046 
	C694.977417,438.041809 693.442871,438.598114 691.908264,438.895233 
z"/>
<path fill="#CDB692" opacity="1.000000" stroke="none" 
	d="
M2000.867310,191.379486 
	C2005.103516,219.038391 1997.980835,244.155685 1986.733765,268.569397 
	C1975.240967,293.516388 1960.283813,316.187500 1942.976196,337.460236 
	C1909.825928,378.205292 1870.398682,411.540009 1825.190552,438.113647 
	C1819.332153,441.557312 1813.098267,444.383606 1806.927124,447.257324 
	C1805.604370,447.873322 1803.068115,448.155060 1802.339233,447.394501 
	C1798.562378,443.453613 1795.060913,439.218445 1791.860107,434.798584 
	C1791.505371,434.308655 1793.360718,431.556274 1794.716431,430.590790 
	C1810.029175,419.684967 1825.926758,409.541534 1840.736084,397.998718 
	C1875.599487,370.825378 1906.795776,340.013885 1929.685913,301.774048 
	C1937.322876,289.016083 1943.593506,275.440155 1950.488525,262.238098 
	C1950.082031,261.919983 1949.675415,261.601868 1949.268799,261.283722 
	C1945.125000,263.401306 1941.138184,265.937744 1936.808960,267.560425 
	C1921.865601,273.161438 1906.677490,274.426819 1891.562988,268.293365 
	C1877.530884,262.599182 1871.345703,251.323471 1870.094482,236.777634 
	C1868.415649,217.260330 1877.128296,201.600479 1888.867798,187.275162 
	C1902.579468,170.543213 1919.429688,157.897491 1940.685547,152.735550 
	C1971.360962,145.286087 1991.336060,157.948151 1999.913330,187.579041 
	C2000.236938,188.696564 2000.502075,189.831055 2000.867310,191.379486 
M1908.952515,209.655243 
	C1904.355835,224.279419 1909.501465,234.327515 1923.347168,237.530304 
	C1929.615234,238.980240 1935.554810,237.952255 1941.067383,234.563919 
	C1953.696655,226.801208 1961.616455,218.956009 1957.068970,202.651352 
	C1952.722534,187.067154 1937.383179,180.987427 1923.729248,189.774384 
	C1916.509766,194.420303 1912.344727,201.253510 1908.952515,209.655243 
z"/>
<path fill="#CDB692" opacity="1.000000" stroke="none" 
	d="
M1803.086548,275.067993 
	C1804.449341,267.349213 1805.718018,260.043579 1807.237915,251.291992 
	C1805.051147,252.877197 1803.922852,253.616959 1802.880371,254.462585 
	C1788.443848,266.173767 1772.418335,273.351349 1753.349243,271.868561 
	C1732.477295,270.245667 1718.462158,256.390167 1717.703735,234.457489 
	C1717.119141,217.550385 1723.905396,203.642380 1733.566528,190.897598 
	C1747.462158,172.566742 1765.080322,158.803101 1787.632202,152.897598 
	C1803.227173,148.813843 1818.747925,148.820938 1831.724365,160.810333 
	C1841.185425,169.551697 1845.554565,180.961777 1847.998413,193.218170 
	C1852.417480,215.382156 1849.528198,237.353043 1844.672729,258.944489 
	C1832.757935,311.928711 1809.723999,359.908295 1777.377930,403.438721 
	C1765.629272,419.249725 1752.330078,433.683807 1737.077515,446.198425 
	C1735.640015,447.377747 1732.382568,448.029755 1730.942993,447.212646 
	C1725.650146,444.208740 1720.767578,440.482239 1714.856567,436.428192 
	C1759.038818,390.251495 1788.793457,337.062378 1803.086548,275.067993 
M1798.630493,191.835892 
	C1792.609497,185.156830 1784.943726,184.479507 1777.150635,187.034958 
	C1765.130981,190.976151 1755.061401,205.472366 1754.950439,218.123581 
	C1754.886475,225.410065 1757.419922,231.300293 1764.343140,234.905304 
	C1772.916992,239.369720 1781.236694,239.191269 1789.444824,234.256805 
	C1807.148682,223.614105 1811.603027,209.554779 1798.630493,191.835892 
z"/>
<path fill="#CDB591" opacity="1.000000" stroke="none" 
	d="
M1406.000000,118.092117 
	C1384.511597,118.061363 1363.521362,118.182823 1342.535156,117.955368 
	C1322.924805,117.742821 1304.431396,104.762291 1300.273438,88.085861 
	C1296.524292,73.049538 1299.927246,58.930363 1308.158936,46.170319 
	C1324.131470,21.411179 1348.022217,11.815645 1376.428589,13.200468 
	C1400.614990,14.379557 1414.646118,39.325771 1403.538208,60.805912 
	C1399.731323,68.167603 1393.914551,74.489914 1388.647217,81.798805 
	C1390.140381,81.798805 1391.991943,81.798813 1393.843506,81.798813 
	C1444.150513,81.798820 1494.457642,81.797974 1544.764648,81.800423 
	C1548.762207,81.800621 1556.142944,89.121529 1555.857056,92.969154 
	C1555.794312,93.814629 1555.009888,94.740547 1554.326904,95.384506 
	C1549.122803,100.290634 1544.062378,105.377716 1538.567993,109.939659 
	C1531.653564,115.680504 1524.029175,118.502754 1514.439331,118.338600 
	C1478.468750,117.722885 1442.481201,118.092018 1406.000000,118.092117 
M1371.132324,66.484688 
	C1371.639404,64.394859 1372.525146,62.316776 1372.590454,60.213226 
	C1372.933594,49.152737 1368.156738,38.522335 1353.756592,37.726006 
	C1341.935303,37.072273 1331.506592,50.318268 1330.934448,59.868366 
	C1330.399414,68.796875 1333.167603,75.971558 1341.159302,80.372536 
	C1352.791992,86.778580 1365.444946,81.078781 1371.132324,66.484688 
z"/>
<path fill="#CDB692" opacity="1.000000" stroke="none" 
	d="
M692.380371,438.933899 
	C693.442871,438.598114 694.977417,438.041809 696.512146,438.041046 
	C772.385315,438.003143 848.258484,438.012909 924.604187,438.064331 
	C921.738342,449.216797 919.249939,460.669220 914.888672,471.357422 
	C905.127686,495.278473 891.532227,516.922974 873.153198,535.320557 
	C849.316528,559.181274 820.988831,574.403809 787.221558,577.691528 
	C769.503235,579.416626 751.634521,579.118713 734.740295,571.531006 
	C714.468994,562.426392 709.359009,548.910156 713.724548,529.733948 
	C719.590576,503.966736 737.373352,488.360016 760.666931,478.445496 
	C773.275330,473.078949 786.516846,470.238678 800.499023,471.822357 
	C822.843628,474.353180 832.276306,500.094086 823.037598,515.189575 
	C816.797974,525.384705 807.748047,533.864441 799.899719,543.064209 
	C798.948059,544.179626 797.650696,545.000122 796.727661,547.219421 
	C801.639343,546.704895 806.632019,546.588684 811.449097,545.609009 
	C836.564758,540.501038 854.504761,525.383301 867.384155,503.979095 
	C878.033997,486.280060 883.104553,466.749115 884.119446,446.145172 
	C884.224304,444.015472 884.586548,441.898499 884.921265,438.972595 
	C820.650391,438.972595 756.751404,438.972595 692.380371,438.933899 
M750.104736,513.958618 
	C746.116882,527.346741 754.639160,539.377686 767.868103,539.035034 
	C777.566101,538.783813 786.489441,528.764771 786.958313,517.600891 
	C787.315063,509.107025 783.656738,502.763489 776.723816,499.854218 
	C769.043823,496.631470 761.607422,498.093872 755.966553,504.458588 
	C753.699280,507.016785 752.220093,510.273376 750.104736,513.958618 
z"/>
<path fill="#C47034" opacity="1.000000" stroke="none" 
	d="
M296.660156,403.461914 
	C287.777283,403.388123 279.147766,403.215088 270.518341,403.039032 
	C268.521545,402.998291 266.524963,402.946930 264.250000,402.583313 
	C271.662384,403.699738 275.649536,399.066345 280.087616,393.666382 
	C294.239532,376.447296 309.051849,359.732056 329.105682,348.995300 
	C338.479218,343.976715 348.468903,341.761017 358.759430,346.408661 
	C365.921448,349.643341 369.525848,355.533905 370.017975,363.314880 
	C370.905151,377.342499 366.775940,390.577118 363.555847,403.960968 
	C362.433685,408.625122 361.262939,413.317993 360.712341,418.067078 
	C360.232361,422.206696 360.261841,426.921906 364.488007,429.218567 
	C368.676758,431.494904 373.186859,430.526276 377.297974,428.069000 
	C385.993988,422.871246 390.815674,414.714539 395.005188,405.844238 
	C400.016724,395.233490 397.380524,383.902863 398.838654,372.976898 
	C399.289612,369.597809 398.407013,365.029144 400.287476,363.038483 
	C406.398499,356.569366 413.499146,351.033569 420.254242,345.179321 
	C420.557526,344.916534 421.223785,344.946594 421.692474,345.020721 
	C425.300446,345.591156 432.355652,354.295807 432.119080,358.048950 
	C430.346527,386.166504 430.353973,414.262604 433.002808,442.332123 
	C433.158997,443.987366 433.231842,445.666809 433.577209,447.285095 
	C435.430267,455.966888 434.269287,464.028595 429.076996,471.415466 
	C425.645233,476.297729 422.309753,481.253571 419.105621,486.287537 
	C417.378510,489.001038 415.487427,489.331329 413.005493,487.502960 
	C412.738159,487.306000 412.442566,487.146515 412.155609,486.977234 
	C401.695160,480.806458 401.763214,480.803009 401.130371,468.623779 
	C400.529114,457.052307 399.764740,445.489288 398.975433,432.308289 
	C392.874603,444.860870 384.054688,452.448669 372.776459,457.362671 
	C363.550079,461.382690 353.869385,462.972168 343.978912,461.742706 
	C328.846283,459.861664 321.037079,448.442230 324.597626,433.046814 
	C327.057556,422.410400 330.751373,412.064667 333.651978,401.522491 
	C335.009979,396.586884 336.442444,391.515320 336.609711,386.464600 
	C336.717438,383.211975 335.443817,378.113922 333.238770,377.046692 
	C330.572357,375.756195 325.384155,376.714294 322.838989,378.694031 
	C315.396027,384.483490 308.680878,391.218109 301.779510,397.687927 
	C299.972595,399.381897 298.525726,401.459930 296.660156,403.461914 
z"/>
<path fill="#C47034" opacity="1.000000" stroke="none" 
	d="
M1557.661743,402.458618 
	C1549.868408,402.357025 1542.328003,402.159210 1534.311768,401.894989 
	C1549.828613,381.084656 1566.587891,361.114105 1590.275879,348.573669 
	C1599.448486,343.717743 1609.120728,341.961792 1619.007935,346.539032 
	C1626.154541,349.847504 1629.635376,355.777466 1630.115845,363.537354 
	C1630.964355,377.239655 1626.799805,390.151123 1623.859375,403.262329 
	C1622.629883,408.744293 1621.002930,414.256683 1620.745605,419.810333 
	C1620.315063,429.099670 1626.825562,433.006958 1635.317871,429.032043 
	C1645.670898,424.186157 1650.760376,414.945068 1655.325562,405.132416 
	C1659.750122,395.622009 1658.334229,385.487640 1658.583862,375.668488 
	C1658.791138,367.512939 1660.228638,360.776367 1666.955811,355.696350 
	C1671.042603,352.610321 1674.914551,349.240906 1678.937866,346.068542 
	C1679.676392,345.486328 1680.687134,344.883514 1681.558105,344.903564 
	C1684.235840,344.965302 1692.217773,354.041290 1692.151733,356.793396 
	C1691.780273,372.268158 1690.771729,387.757996 1691.163940,403.212616 
	C1691.606567,420.655853 1693.369385,438.063385 1694.379883,455.496796 
	C1694.526245,458.024719 1694.222412,460.854980 1693.197998,463.126312 
	C1688.958130,472.526886 1684.059448,481.568542 1676.374146,489.281067 
	C1671.981079,486.723511 1667.591431,484.398682 1663.503662,481.628601 
	C1662.459473,480.921021 1662.004761,478.829315 1661.899658,477.330017 
	C1660.887817,462.897858 1660.008667,448.456360 1659.047974,433.329987 
	C1656.415771,437.057556 1654.405518,440.533386 1651.801758,443.485718 
	C1638.782471,458.247040 1621.982788,463.916565 1602.927979,461.436218 
	C1588.245117,459.524963 1581.296021,448.751617 1584.531860,433.875763 
	C1587.061401,422.246857 1591.133301,410.961029 1594.211548,399.440338 
	C1595.527222,394.516296 1596.711060,389.393829 1596.796875,384.341888 
	C1596.932129,376.386414 1591.739258,373.388428 1584.858032,377.429138 
	C1574.112671,383.739105 1565.804077,392.867615 1557.661743,402.458618 
z"/>
<path fill="#C46F34" opacity="1.000000" stroke="none" 
	d="
M926.404175,409.743317 
	C926.104797,407.437256 926.104797,405.000305 926.104797,402.005859 
	C920.105469,402.005859 914.559265,402.005859 908.561218,401.941284 
	C923.330078,386.314392 940.071533,372.943756 960.965088,365.710571 
	C964.229248,364.580536 967.718506,363.923340 971.159058,363.517303 
	C978.323547,362.671875 983.796448,366.017059 985.914185,374.032257 
	C988.533630,383.946136 989.894592,394.190002 991.877014,404.276001 
	C992.581604,407.860870 992.929016,411.691345 994.511169,414.877533 
	C996.004089,417.884033 998.430420,421.343811 1001.302124,422.527374 
	C1005.301453,424.175659 1007.994629,420.283875 1009.831970,417.160370 
	C1014.798401,408.717438 1019.530762,400.132416 1024.190308,391.514191 
	C1036.181030,369.336304 1050.645264,349.294434 1072.541260,335.053558 
	C1074.896362,338.900787 1077.265015,342.770264 1079.818359,346.941559 
	C1058.661987,363.088776 1050.073975,387.214996 1038.920532,409.741516 
	C1032.072632,423.572296 1025.154297,437.401672 1017.483398,450.782196 
	C1009.804199,464.177216 997.519653,468.893982 982.580566,465.701294 
	C968.276245,462.644318 961.638916,451.999908 958.341187,438.889465 
	C956.724854,432.463989 956.090332,425.794739 954.929382,419.250427 
	C954.232544,415.322968 953.601318,411.362091 952.546631,407.524536 
	C950.347229,399.521179 946.818787,397.898865 939.299866,401.736969 
	C934.905945,403.979858 930.889709,406.962524 926.404175,409.743317 
z"/>
<path fill="#CDB591" opacity="1.000000" stroke="none" 
	d="
M165.760635,97.280838 
	C148.913239,84.026047 132.186371,71.191963 115.879417,57.844830 
	C108.338455,51.672600 101.616753,44.499432 94.267593,37.537537 
	C101.488724,28.570301 110.176865,22.523506 119.200790,16.975380 
	C130.517868,10.017372 130.229691,10.515543 139.424744,19.746111 
	C161.255753,41.661453 183.317154,63.353794 205.598999,84.810654 
	C215.986511,94.813560 227.102051,104.060425 238.588455,114.273140 
	C233.247574,119.196426 228.037811,124.224228 222.505981,128.868408 
	C221.620941,129.611450 218.989120,129.152405 217.679581,128.378296 
	C200.416840,118.173859 183.246445,107.813225 165.760635,97.280838 
z"/>
<path fill="#FEFEFE" opacity="1.000000" stroke="none" 
	d="
M1909.044189,209.271149 
	C1912.344727,201.253510 1916.509766,194.420303 1923.729248,189.774384 
	C1937.383179,180.987427 1952.722534,187.067154 1957.068970,202.651352 
	C1961.616455,218.956009 1953.696655,226.801208 1941.067383,234.563919 
	C1935.554810,237.952255 1929.615234,238.980240 1923.347168,237.530304 
	C1909.501465,234.327515 1904.355835,224.279419 1909.044189,209.271149 
z"/>
<path fill="#FFFEFE" opacity="1.000000" stroke="none" 
	d="
M1798.862793,192.115967 
	C1811.603027,209.554779 1807.148682,223.614105 1789.444824,234.256805 
	C1781.236694,239.191269 1772.916992,239.369720 1764.343140,234.905304 
	C1757.419922,231.300293 1754.886475,225.410065 1754.950439,218.123581 
	C1755.061401,205.472366 1765.130981,190.976151 1777.150635,187.034958 
	C1784.943726,184.479507 1792.609497,185.156830 1798.862793,192.115967 
z"/>
<path fill="#FEFEFD" opacity="1.000000" stroke="none" 
	d="
M1371.019775,66.861618 
	C1365.444946,81.078781 1352.791992,86.778580 1341.159302,80.372536 
	C1333.167603,75.971558 1330.399414,68.796875 1330.934448,59.868366 
	C1331.506592,50.318268 1341.935303,37.072273 1353.756592,37.726006 
	C1368.156738,38.522335 1372.933594,49.152737 1372.590454,60.213226 
	C1372.525146,62.316776 1371.639404,64.394859 1371.019775,66.861618 
z"/>
<path fill="#FEFEFE" opacity="1.000000" stroke="none" 
	d="
M750.243469,513.585327 
	C752.220093,510.273376 753.699280,507.016785 755.966553,504.458588 
	C761.607422,498.093872 769.043823,496.631470 776.723816,499.854218 
	C783.656738,502.763489 787.315063,509.107025 786.958313,517.600891 
	C786.489441,528.764771 777.566101,538.783813 767.868103,539.035034 
	C754.639160,539.377686 746.116882,527.346741 750.243469,513.585327 
z"/>
</svg>