<svg version="1.1" id="Layer_1" xmlns="http://www.w3.org/2000/svg" xmlns:xlink="http://www.w3.org/1999/xlink" x="0px" y="0px"
	 width="100%" viewBox="0 0 749 499" enable-background="new 0 0 749 499" xml:space="preserve">
<path fill="#FFFFFF" opacity="1.000000" stroke="none" 
	d="
M481.000000,500.000000 
	C320.666656,500.000000 160.833328,500.000000 1.000000,500.000000 
	C1.000000,333.666656 1.000000,167.333328 1.000000,1.000000 
	C250.666672,1.000000 500.333344,1.000000 750.000000,1.000000 
	C750.000000,167.333328 750.000000,333.666656 750.000000,500.000000 
	C660.500000,500.000000 571.000000,500.000000 481.000000,500.000000 
M263.933777,402.002563 
	C205.688309,402.002563 147.442856,402.002563 88.422783,402.002563 
	C89.698166,399.945007 90.447662,398.521118 91.393120,397.242065 
	C112.556641,368.610718 133.045883,339.446838 155.075302,311.497101 
	C194.486649,261.494141 236.693939,213.910416 282.722321,169.816208 
	C283.819275,168.765366 285.092133,167.125504 285.051331,165.798279 
	C284.903198,160.985275 278.017548,154.905151 273.201233,154.905045 
	C206.037262,154.903473 138.873276,154.903854 71.709305,154.903793 
	C48.880371,154.903763 48.870922,154.894516 32.795959,171.273270 
	C30.931879,173.172562 29.177483,175.190933 27.504841,177.261230 
	C26.806444,178.125671 25.972738,179.298920 26.031040,180.282516 
	C26.255421,184.068130 35.411430,191.764923 39.425591,191.764465 
	C96.089874,191.757965 152.754166,191.744827 209.418442,191.752625 
	C210.809616,191.752808 212.200760,191.974579 213.591919,192.093018 
	C213.854843,192.545151 214.117767,192.997299 214.380692,193.449432 
	C204.576080,202.906830 194.457214,212.062119 185.023361,221.875916 
	C151.401627,256.851868 120.332520,294.047028 91.813255,333.249908 
	C69.513649,363.903229 48.530037,395.514343 27.029377,426.746490 
	C26.182301,427.976959 25.343887,429.875549 25.685108,431.144562 
	C26.994240,436.013245 31.513273,439.003845 36.735905,439.003845 
	C110.232956,439.003510 183.733871,438.620361 257.223358,439.365692 
	C270.025421,439.495544 277.447113,434.697205 283.244019,424.693207 
	C283.660828,423.973877 284.147736,423.292816 284.631470,422.614960 
	C288.220337,417.586212 291.921814,412.564636 284.290588,407.614746 
	C285.912842,405.621552 287.161011,404.087952 288.914612,402.361877 
	C296.804260,392.867249 305.112671,383.738647 315.858124,377.428955 
	C322.739380,373.388275 327.932098,376.386078 327.797028,384.341461 
	C327.711243,389.393402 326.527557,394.515869 325.211914,399.439880 
	C322.133667,410.960541 318.061493,422.246338 315.532135,433.875275 
	C312.296356,448.751892 319.244934,459.524445 333.927734,461.435852 
	C352.982605,463.916351 369.782410,458.247009 382.801697,443.485657 
	C385.405670,440.533264 387.415985,437.057220 390.048279,433.329468 
	C391.009003,448.455566 391.888062,462.897064 392.899872,477.329254 
	C393.004974,478.828583 393.459259,480.920532 394.503326,481.628052 
	C398.591187,484.398224 402.980835,486.723145 407.374115,489.280884 
	C415.059113,481.568634 419.957764,472.526917 424.197693,463.126465 
	C425.222137,460.855133 425.525970,458.024902 425.379486,455.496979 
	C424.369293,438.063599 422.606903,420.656067 422.164124,403.212860 
	C421.771881,387.758270 422.780334,372.268433 423.151611,356.793701 
	C423.217651,354.041321 415.235535,344.965332 412.557922,344.903870 
	C411.686951,344.883850 410.676178,345.486816 409.937744,346.069092 
	C405.914307,349.241394 402.042389,352.610718 397.955658,355.696777 
	C391.228302,360.776855 389.791473,367.513794 389.584137,375.669128 
	C389.334442,385.488281 390.750397,395.622681 386.325745,405.132996 
	C381.760529,414.945496 376.670868,424.186554 366.317871,429.032349 
	C357.825653,433.007141 351.314819,429.099731 351.745392,419.810669 
	C352.002808,414.257050 353.629700,408.744720 354.859070,403.262756 
	C357.799286,390.151520 361.963989,377.240173 361.115387,363.537811 
	C360.648285,355.996002 357.351837,350.156433 350.442627,346.783295 
	C340.428711,341.894379 330.613525,343.640228 321.277740,348.577148 
	C297.584076,361.106781 280.828888,381.084869 263.933777,402.002563 
M559.603455,436.145721 
	C584.434875,421.405731 607.389282,404.158478 628.896240,384.893921 
	C649.925476,366.057343 668.895203,345.333374 685.641479,322.678802 
	C700.108154,303.108154 712.441833,282.204865 721.690491,259.561340 
	C730.437561,238.145859 735.633484,216.206116 731.979370,192.975952 
	C730.022522,180.535446 724.944702,169.368301 715.489258,160.722900 
	C703.995239,150.213516 689.927612,149.022644 675.666321,151.812347 
	C652.673340,156.310059 634.616455,169.422211 619.953857,187.181824 
	C608.191833,201.428131 599.358704,217.049316 601.079224,236.611877 
	C602.356262,251.132614 608.390747,262.436462 622.401245,268.214996 
	C637.502808,274.443512 652.674866,273.143799 667.628296,267.637238 
	C672.008362,266.024292 676.037048,263.457062 681.343140,260.759674 
	C677.996277,268.234283 675.292053,274.771332 672.192078,281.114990 
	C654.010864,318.320404 627.608643,349.196136 597.262207,376.811249 
	C577.190491,395.076416 555.471924,411.329437 532.597900,425.999023 
	C520.177002,433.964783 520.188354,435.209015 531.061584,445.743500 
	C533.636353,448.238037 536.003784,448.561279 539.091858,446.889893 
	C545.663452,443.332947 552.334717,439.960114 559.603455,436.145721 
M453.516785,442.028595 
	C456.015717,443.678680 458.328827,445.897125 461.073822,446.794495 
	C463.173981,447.481018 466.539062,447.388184 468.112061,446.118683 
	C483.607361,433.613098 497.052429,419.009125 508.793732,403.022430 
	C540.451538,359.917938 563.515564,312.657959 575.324158,260.297668 
	C580.350220,238.011719 583.494690,215.434204 578.924866,192.615250 
	C576.438782,180.201584 571.784058,168.642029 561.928650,160.046768 
	C549.176819,148.925430 534.072571,148.825882 519.004883,152.763885 
	C496.290070,158.700516 478.474548,172.464615 464.489319,190.984558 
	C454.841736,203.760361 448.064514,217.663635 448.701141,234.584137 
	C449.492767,255.623489 463.376221,270.516205 484.483795,271.916260 
	C503.387817,273.170166 519.261292,266.204926 533.621887,254.700928 
	C534.764282,253.785797 535.972290,252.952667 538.262512,251.258133 
	C527.284607,323.704742 495.552277,384.062958 446.266663,436.086334 
	C448.924561,438.243744 450.955353,439.892181 453.516785,442.028595 
M84.580658,14.987937 
	C65.000916,19.303057 49.347576,29.445280 38.753662,46.630444 
	C31.558643,58.302013 27.966248,71.183495 30.571594,84.801239 
	C34.259602,104.077858 52.333035,117.871307 73.669838,117.941559 
	C133.650772,118.139053 193.632584,118.068260 253.614044,118.051834 
	C255.211334,118.051399 256.998230,117.820137 258.375671,117.090469 
	C269.554688,111.168610 278.691101,102.750572 287.177002,93.281837 
	C286.387878,91.727058 285.525787,90.307693 284.920502,88.786179 
	C282.665649,83.118416 278.731873,81.593941 272.575226,81.631554 
	C223.425110,81.931831 174.272354,81.799164 125.120392,81.799164 
	C123.207123,81.799164 121.293846,81.799164 119.380577,81.799164 
	C118.978874,81.143837 118.577171,80.488518 118.175468,79.833191 
	C119.577934,79.007652 121.389328,78.498230 122.313362,77.302856 
	C126.749893,71.563606 131.835251,66.085884 135.051376,59.691086 
	C142.762161,44.359253 137.004547,25.936426 122.308830,17.737654 
	C110.591125,11.200323 98.016724,12.015952 84.580658,14.987937 
z"/>
<path fill="#020202" opacity="1.000000" stroke="none" 
	d="
M288.409180,402.554321 
	C287.161011,404.087952 285.912842,405.621552 284.290588,407.614746 
	C291.921814,412.564636 288.220337,417.586212 284.631470,422.614960 
	C284.147736,423.292816 283.660828,423.973877 283.244019,424.693207 
	C277.447113,434.697205 270.025421,439.495544 257.223358,439.365692 
	C183.733871,438.620361 110.232956,439.003510 36.735905,439.003845 
	C31.513273,439.003845 26.994240,436.013245 25.685108,431.144562 
	C25.343887,429.875549 26.182301,427.976959 27.029377,426.746490 
	C48.530037,395.514343 69.513649,363.903229 91.813255,333.249908 
	C120.332520,294.047028 151.401627,256.851868 185.023361,221.875916 
	C194.457214,212.062119 204.576080,202.906830 214.380692,193.449432 
	C214.117767,192.997299 213.854843,192.545151 213.591919,192.093018 
	C212.200760,191.974579 210.809616,191.752808 209.418442,191.752625 
	C152.754166,191.744827 96.089874,191.757965 39.425591,191.764465 
	C35.411430,191.764923 26.255421,184.068130 26.031040,180.282516 
	C25.972738,179.298920 26.806444,178.125671 27.504841,177.261230 
	C29.177483,175.190933 30.931879,173.172562 32.795959,171.273270 
	C48.870922,154.894516 48.880371,154.903763 71.709305,154.903793 
	C138.873276,154.903854 206.037262,154.903473 273.201233,154.905045 
	C278.017548,154.905151 284.903198,160.985275 285.051331,165.798279 
	C285.092133,167.125504 283.819275,168.765366 282.722321,169.816208 
	C236.693939,213.910416 194.486649,261.494141 155.075302,311.497101 
	C133.045883,339.446838 112.556641,368.610718 91.393120,397.242065 
	C90.447662,398.521118 89.698166,399.945007 88.422783,402.002563 
	C147.442856,402.002563 205.688309,402.002563 264.860657,401.981964 
	C273.328064,402.159027 280.868622,402.356689 288.409180,402.554321 
z"/>
<path fill="#CDB692" opacity="1.000000" stroke="none" 
	d="
M559.284302,436.328796 
	C552.334717,439.960114 545.663452,443.332947 539.091858,446.889893 
	C536.003784,448.561279 533.636353,448.238037 531.061584,445.743500 
	C520.188354,435.209015 520.177002,433.964783 532.597900,425.999023 
	C555.471924,411.329437 577.190491,395.076416 597.262207,376.811249 
	C627.608643,349.196136 654.010864,318.320404 672.192078,281.114990 
	C675.292053,274.771332 677.996277,268.234283 681.343140,260.759674 
	C676.037048,263.457062 672.008362,266.024292 667.628296,267.637238 
	C652.674866,273.143799 637.502808,274.443512 622.401245,268.214996 
	C608.390747,262.436462 602.356262,251.132614 601.079224,236.611877 
	C599.358704,217.049316 608.191833,201.428131 619.953857,187.181824 
	C634.616455,169.422211 652.673340,156.310059 675.666321,151.812347 
	C689.927612,149.022644 703.995239,150.213516 715.489258,160.722900 
	C724.944702,169.368301 730.022522,180.535446 731.979370,192.975952 
	C735.633484,216.206116 730.437561,238.145859 721.690491,259.561340 
	C712.441833,282.204865 700.108154,303.108154 685.641479,322.678802 
	C668.895203,345.333374 649.925476,366.057343 628.896240,384.893921 
	C607.389282,404.158478 584.434875,421.405731 559.284302,436.328796 
M663.940186,186.046539 
	C650.679810,188.484894 638.344604,203.899979 638.187805,218.514832 
	C638.106323,226.103653 641.158569,231.860748 648.379272,235.291992 
	C656.347595,239.078491 664.037354,239.235458 671.691223,234.742798 
	C682.424133,228.442810 692.971191,219.988449 688.248901,203.564346 
	C684.693298,191.197739 677.873169,185.521484 663.940186,186.046539 
z"/>
<path fill="#CDB692" opacity="1.000000" stroke="none" 
	d="
M453.251465,441.784607 
	C450.955353,439.892181 448.924561,438.243744 446.266663,436.086334 
	C495.552277,384.062958 527.284607,323.704742 538.262512,251.258133 
	C535.972290,252.952667 534.764282,253.785797 533.621887,254.700928 
	C519.261292,266.204926 503.387817,273.170166 484.483795,271.916260 
	C463.376221,270.516205 449.492767,255.623489 448.701141,234.584137 
	C448.064514,217.663635 454.841736,203.760361 464.489319,190.984558 
	C478.474548,172.464615 496.290070,158.700516 519.004883,152.763885 
	C534.072571,148.825882 549.176819,148.925430 561.928650,160.046768 
	C571.784058,168.642029 576.438782,180.201584 578.924866,192.615250 
	C583.494690,215.434204 580.350220,238.011719 575.324158,260.297668 
	C563.515564,312.657959 540.451538,359.917938 508.793732,403.022430 
	C497.052429,419.009125 483.607361,433.613098 468.112061,446.118683 
	C466.539062,447.388184 463.173981,447.481018 461.073822,446.794495 
	C458.328827,445.897125 456.015717,443.678680 453.251465,441.784607 
M494.460907,197.027542 
	C491.792664,202.502045 488.360168,207.749512 486.649414,213.508438 
	C484.504272,220.729553 485.825714,228.110001 492.240723,232.879623 
	C500.079590,238.707977 509.008575,240.373245 517.990845,235.425491 
	C528.274963,229.760635 538.067627,223.131424 536.879395,209.375732 
	C535.668640,195.359802 527.776001,184.110794 511.917664,186.049591 
	C504.687317,186.933578 499.551392,191.311630 494.460907,197.027542 
z"/>
<path fill="#CDB591" opacity="1.000000" stroke="none" 
	d="
M85.001022,14.932625 
	C98.016724,12.015952 110.591125,11.200323 122.308830,17.737654 
	C137.004547,25.936426 142.762161,44.359253 135.051376,59.691086 
	C131.835251,66.085884 126.749893,71.563606 122.313362,77.302856 
	C121.389328,78.498230 119.577934,79.007652 118.175468,79.833191 
	C118.577171,80.488518 118.978874,81.143837 119.380577,81.799164 
	C121.293846,81.799164 123.207123,81.799164 125.120392,81.799164 
	C174.272354,81.799164 223.425110,81.931831 272.575226,81.631554 
	C278.731873,81.593941 282.665649,83.118416 284.920502,88.786179 
	C285.525787,90.307693 286.387878,91.727058 287.177002,93.281837 
	C278.691101,102.750572 269.554688,111.168610 258.375671,117.090469 
	C256.998230,117.820137 255.211334,118.051399 253.614044,118.051834 
	C193.632584,118.068260 133.650772,118.139053 73.669838,117.941559 
	C52.333035,117.871307 34.259602,104.077858 30.571594,84.801239 
	C27.966248,71.183495 31.558643,58.302013 38.753662,46.630444 
	C49.347576,29.445280 65.000916,19.303057 85.001022,14.932625 
M94.146172,40.178631 
	C86.289337,36.511059 78.841743,36.729160 71.742516,42.189415 
	C61.763416,49.864670 58.616875,65.564590 65.571159,74.658455 
	C70.224915,80.744003 76.499939,83.950905 84.247955,82.819733 
	C92.752495,81.578117 98.205780,75.987595 101.451195,68.487595 
	C106.188934,57.538872 103.169388,45.794407 94.146172,40.178631 
z"/>
<path fill="#C47034" opacity="1.000000" stroke="none" 
	d="
M288.661896,402.458099 
	C280.868622,402.356689 273.328064,402.159027 265.311951,401.894958 
	C280.828888,381.084869 297.584076,361.106781 321.277740,348.577148 
	C330.613525,343.640228 340.428711,341.894379 350.442627,346.783295 
	C357.351837,350.156433 360.648285,355.996002 361.115387,363.537811 
	C361.963989,377.240173 357.799286,390.151520 354.859070,403.262756 
	C353.629700,408.744720 352.002808,414.257050 351.745392,419.810669 
	C351.314819,429.099731 357.825653,433.007141 366.317871,429.032349 
	C376.670868,424.186554 381.760529,414.945496 386.325745,405.132996 
	C390.750397,395.622681 389.334442,385.488281 389.584137,375.669128 
	C389.791473,367.513794 391.228302,360.776855 397.955658,355.696777 
	C402.042389,352.610718 405.914307,349.241394 409.937744,346.069092 
	C410.676178,345.486816 411.686951,344.883850 412.557922,344.903870 
	C415.235535,344.965332 423.217651,354.041321 423.151611,356.793701 
	C422.780334,372.268433 421.771881,387.758270 422.164124,403.212860 
	C422.606903,420.656067 424.369293,438.063599 425.379486,455.496979 
	C425.525970,458.024902 425.222137,460.855133 424.197693,463.126465 
	C419.957764,472.526917 415.059113,481.568634 407.374115,489.280884 
	C402.980835,486.723145 398.591187,484.398224 394.503326,481.628052 
	C393.459259,480.920532 393.004974,478.828583 392.899872,477.329254 
	C391.888062,462.897064 391.009003,448.455566 390.048279,433.329468 
	C387.415985,437.057220 385.405670,440.533264 382.801697,443.485657 
	C369.782410,458.247009 352.982605,463.916351 333.927734,461.435852 
	C319.244934,459.524445 312.296356,448.751892 315.532135,433.875275 
	C318.061493,422.246338 322.133667,410.960541 325.211914,399.439880 
	C326.527557,394.515869 327.711243,389.393402 327.797028,384.341461 
	C327.932098,376.386078 322.739380,373.388275 315.858124,377.428955 
	C305.112671,383.738647 296.804260,392.867249 288.661896,402.458099 
z"/>
<path fill="#FEFEFE" opacity="1.000000" stroke="none" 
	d="
M664.378540,186.025818 
	C677.873169,185.521484 684.693298,191.197739 688.248901,203.564346 
	C692.971191,219.988449 682.424133,228.442810 671.691223,234.742798 
	C664.037354,239.235458 656.347595,239.078491 648.379272,235.291992 
	C641.158569,231.860748 638.106323,226.103653 638.187805,218.514832 
	C638.344604,203.899979 650.679810,188.484894 664.378540,186.025818 
z"/>
<path fill="#FFFEFE" opacity="1.000000" stroke="none" 
	d="
M494.690002,196.750305 
	C499.551392,191.311630 504.687317,186.933578 511.917664,186.049591 
	C527.776001,184.110794 535.668640,195.359802 536.879395,209.375732 
	C538.067627,223.131424 528.274963,229.760635 517.990845,235.425491 
	C509.008575,240.373245 500.079590,238.707977 492.240723,232.879623 
	C485.825714,228.110001 484.504272,220.729553 486.649414,213.508438 
	C488.360168,207.749512 491.792664,202.502045 494.690002,196.750305 
z"/>
<path fill="#FEFEFD" opacity="1.000000" stroke="none" 
	d="
M94.478127,40.366837 
	C103.169388,45.794407 106.188934,57.538872 101.451195,68.487595 
	C98.205780,75.987595 92.752495,81.578117 84.247955,82.819733 
	C76.499939,83.950905 70.224915,80.744003 65.571159,74.658455 
	C58.616875,65.564590 61.763416,49.864670 71.742516,42.189415 
	C78.841743,36.729160 86.289337,36.511059 94.478127,40.366837 
z"/>
</svg>