<svg enable-background="new 0 0 620 1156" viewBox="0 0 620 1156" xmlns="http://www.w3.org/2000/svg"><path d="m621 429v728c-206.666656 0-413.333328 0-620 0 0-385.333313 0-770.666656 0-1156h620zm-212.009918 495.110413c.337921-26.762024.841888-53.523133.985382-80.286194.663147-123.661621 2.203369-247.29065 10.858276-370.722748 3.335816-47.573364 9.072907-94.740265 20.67926-141.087738 2.687104-10.730438 4.754029-21.616242 7.19806-32.852326-1.604279 0-2.587769.000031-3.571228.000031-55.165711.00058-110.331971-.1203-165.496705.110352-10.290618.042999-20.743316.588134-30.834167 2.453949-47.211777 8.729339-82.855347 33.629852-105.055801 76.787231-11.697495 22.739746-20.103249 46.371521-19.620606 72.372284.897003 48.322327 1.909386 96.642517 2.868775 144.963684.029426 1.481995.00373 2.965027.00373 4.447571-20.489723-56.530396-75.222217-64.474671-111.014358-55.626709v97.31018c1.335901-.717224 2.325968-1.228515 3.297296-1.773315 16.829562-9.437195 34.590349-16.325256 53.834769-18.635254 17.952507-2.154907 35.176094-.166931 50.62828 10.413574 2.474869 1.694641 3.541146 3.434571 3.485886 6.441529-.170517 9.279052-.062233 18.563232-.062233 28.121704 9.055252-.605652 16.773682-1.121948 23.897873-1.59845 0-47.173584 0-93.671753 0-140.023071.230118.395935.716202 1.036072 1.003753 1.755615 10.026017 25.086121 29.431122 40.002808 53.805176 49.407654 23.332062 9.002624 47.643524 10.521911 72.265564 8.614258 23.552246-1.824707 46.435639-6.835144 67.802155-17.143799 9.148376-4.413819 17.62912-10.211426 26.955719-15.699524 1.306274 9.406921 3.261139 19.036438 3.884643 28.751404 2.582001 40.230041 5.810974 80.458923 6.844605 120.738464 1.581665 61.635376 1.549164 123.312134 2.188141 184.971497.014099 1.358886-.136872 2.719482-.270783 5.181335-.972839-1.74469-1.402771-2.423096-1.745056-3.143127-8.723144-18.348511-21.486084-33.553223-36.592926-46.911988-33.11557-29.283752-71.812897-48.358032-113.668945-61.34674-41.404938-12.848755-83.59729-18.972168-127.11425-14.386048-8.946702.942871-13.86689 4.766297-16.074799 12.591675-2.386375 8.458008-4.596901 17.051025-5.805573 25.73523-1.684684 12.104248-2.367836 24.347839-3.498924 36.743408 8.629692-1.385742 16.14663-2.781616 23.716347-3.775574 33.359413-4.38031 66.777992-4.387512 100.22805-1.087097 35.242798 3.477295 69.776993 10.243713 102.777512 23.380432 28.511871 11.349915 55.203766 25.726868 75.519531 49.619629 1.352447 1.590515 2.199341 3.968567 2.429382 6.073364.358765 3.282105-.012695 6.644043-.965881 9.981751-42.162964.03717-84.326019.128967-126.48877.048645-5.885559-.01117-11.363174.805481-16.924606 2.932922-22.530411 8.61853-41.654419 21.798584-52.691818 43.576843-17.696213 34.917176-13.424256 69.222351 6.279922 102.112976 4.244828 7.085572 9.936524 13.112061 17.51294 17.58667 6.862259-13.703125 13.460373-26.878906 19.999298-39.936401-4.147858-2.907471-7.796585-5.232788-11.191635-7.883179-19.353913-15.108276-18.832443-39.693481 1.154037-52.93988 8.524826-5.649964 18.049927-8.50055 28.256485-8.527161 35.331208-.092041 70.664704.148804 105.992554-.208191 6.269226-.063354 9.660767 1.990296 11.435547 7.614624.249115.78949.645019 1.5318.954773 2.303223 9.920715 24.707092 5.702423 48.963928-2.507019 73.031311-.348786 1.022461-2.557312 2.180176-3.74289 2.030884-15.371277-1.934937-30.616913-.839234-45.630676 2.417724-19.195221 4.163941-36.964844 11.311646-49.453979 27.621216-3.887238 5.076172-7.238709 10.476074-8.57074 17.560303 1.969055-.443115 3.240539-.671265 4.479309-1.016724 16.020203-4.467407 32.11438-8.297485 48.814972-9.559936 25.159515-1.901734 49.864837.118042 73.953918 7.586303 24.232453 7.512574 46.295075 19.532105 66.640869 34.546265 6.958252 5.134888 14.178101 4.203613 23.2034 3.939453-19.121155-35.539917-40.209167-67.319946-80.072815-81.288452 1.925659-2.454468 3.760376-4.602295 5.374909-6.904541 1.6221-2.31311 3.09906-4.73706 4.512451-7.185791 14.420349-24.98352 17.025451-50.018249.580383-75.30957-1.017212-1.564331-.778809-4.419251-.244263-6.440979 3.270569-12.369751 6.812806-24.66742 10.223725-37.000427.908874-3.286194 1.675171-6.611939 2.689087-10.64386-3.892945 0-7.025208 0-10.305298-.932373m-282.958443-909.622396c-24.340141 3.797105-45.81504 13.623683-63.742542 30.671701-22.062771 20.980426-29.20546 47.845295-28.984158 77.070339.142807 18.859253 3.454155 37.384552 10.676579 54.988556 11.1464 27.168426 29.538013 46.909881 58.357578 55.270523 16.056664 4.658066 32.447098 4.751816 48.886765 1.516388 17.386947-3.421845 33.959884-9.035324 49.957489-17.506531-12.473786-24.628479-24.830475-49.025757-37.454163-73.950211-2.58876 3.243363-4.552139 5.917374-6.732666 8.400742-15.45459 17.601059-33.824104 29.422699-58.247726 28.988769-15.511139-.275573-29.988648-10.670059-33.583748-25.72055-2.042126-8.549118-2.210835-17.69931-2.138233-26.569939.185241-22.63195 14.242198-39.740097 36.129489-45.701332 12.270005-3.341873 24.702309-3.390434 37.152687-2.86309 15.397843.652183 30.2491 3.960266 44.292862 10.639785 27.219757 12.946305 51.833939 30.076081 76.079209 47.692711 57.442261 41.737625 111.079498 88.139054 164.272735 135.06514 1.091248.962708 2.437195 2.345673 3.657257 2.33844 8.016266-.047638 16.030549-.423798 25.196106-.731354-1.868652-2.196228-2.777404-3.328613-3.752441-4.400696-14.672485-16.133316-29.326447-32.283645-44.038757-48.38063-27.288849-29.857117-54.19751-60.077133-82.071228-89.378632-18.005707-18.928047-37.077027-36.894233-56.349091-54.551109-18.90889-17.324139-38.909439-33.415062-61.147644-46.43335-12.221252-7.154352-24.509979-14.852699-38.823517-16.336325-12.13269-1.257578-24.492508-.323886-37.592842-.119345m455.692726 328.747853c8.967713-14.614044 17.935364-29.228088 27.121948-44.198852-42.800659 0-84.627502 0-126.973419 0 21.24643 34.654083 42.1763 68.791839 63.380402 103.376831 12.344726-20.073425 24.189453-39.333862 36.471069-59.177979z" fill="#fff"/><path d="m385.647186 924.968872c.062012-3.328064.433472-6.690002.074707-9.972107-.230041-2.104797-1.076935-4.482849-2.429382-6.073364-20.315765-23.892761-47.00766-38.269714-75.519531-49.619629-33.000519-13.136719-67.534714-19.903137-102.777512-23.380432-33.450058-3.300415-66.868637-3.293213-100.22805 1.087097-7.569717.993958-15.086655 2.389832-23.716347 3.775574 1.131088-12.395569 1.81424-24.63916 3.498924-36.743408 1.208672-8.684205 3.419198-17.277222 5.805573-25.73523 2.207909-7.825378 7.128097-11.648804 16.074799-12.591675 43.51696-4.58612 85.709312 1.537293 127.11425 14.386048 41.856048 12.988708 80.553375 32.062988 113.668945 61.34674 15.106842 13.358765 27.869782 28.563477 36.592926 46.911988.342285.720031.772217 1.398437 1.745056 3.143127.133911-2.461853.284882-3.822449.270783-5.181335-.638977-61.659363-.606476-123.336121-2.188141-184.971497-1.033631-40.279541-4.262604-80.508423-6.844605-120.738464-.623504-9.714966-2.578369-19.344483-3.884643-28.751404-9.326599 5.488098-17.807343 11.285705-26.955719 15.699524-21.366516 10.308655-44.249909 15.319092-67.802155 17.143799-24.62204 1.907653-48.933502.388366-72.265564-8.614258-24.374054-9.404846-43.779159-24.321533-53.805176-49.407654-.287551-.719543-.773635-1.35968-1.003753-1.755615v140.023071c-7.124191.476502-14.842621.992798-23.897873 1.59845 0-9.558472-.108284-18.842652.062233-28.121704.05526-3.006958-1.011017-4.746888-3.485886-6.441529-15.452186-10.580505-32.675773-12.568481-50.62828-10.413574-19.24442 2.309998-37.005207 9.198059-53.834769 18.635254-.971328.5448-1.961395 1.056091-3.297296 1.773315 0-32.773132 0-65.041626-.004441-97.310363 35.796582-8.847779 90.529076-.903504 111.018799 55.626892 0-1.482544.025696-2.965576-.00373-4.447571-.959389-48.321167-1.971772-96.641357-2.868775-144.963684-.482643-26.000763 7.923111-49.632538 19.620606-72.372284 22.200454-43.157379 57.844024-68.057892 105.055801-76.787231 10.090851-1.865815 20.543549-2.41095 30.834167-2.453949 55.164734-.230652 110.330994-.109772 165.496705-.110352.983459 0 1.966949-.000031 3.571228-.000031-2.444031 11.236084-4.510956 22.121888-7.19806 32.852326-11.606353 46.347473-17.343444 93.514374-20.67926 141.087738-8.654907 123.432098-10.195129 247.061127-10.858276 370.722748-.143494 26.763061-.647461 53.52417-1.164398 81.108032-3.991181.905395-7.809082 1.156738-11.613861 1.025635-3.856781-.132874-7.700562-.643677-11.550019-.989014m-60.897583-389.653503c13.548126-4.652527 26.010224-11.123597 35.521454-22.161316 5.199219-6.033631 8.234772-12.635315 7.71286-21.265045-1.799591-29.755738-2.852173-59.556427-4.220093-89.338593-.493988-10.75528-1.075164-21.506531-1.616638-32.260834-.899383-.138061-1.378509-.275909-1.857635-.275909-35.315796-.000672-70.637757-.350006-105.943238.258026-9.468078.163086-19.540435 1.665192-28.216247 5.256317-43.321747 17.932068-64.031906 61.267334-51.181732 106.679443 6.888122 24.342316 20.659607 43.364625 45.68338 52.184388 34.327072 12.098877 68.804657 11.655395 104.117889.923523z" fill="#010101"/><path d="m126.452156 14.367761c12.679817-.084285 25.039635-1.017977 37.172325.239601 14.313538 1.483626 26.602265 9.181973 38.823517 16.336325 22.238205 13.018288 42.238754 29.109211 61.147644 46.43335 19.272064 17.656876 38.343384 35.623062 56.349091 54.551109 27.873718 29.301499 54.782379 59.521515 82.071228 89.378632 14.71231 16.096985 29.366272 32.247314 44.038757 48.38063.975037 1.072083 1.883789 2.204468 3.752441 4.400696-9.165557.307556-17.17984.683716-25.196106.731354-1.220062.007233-2.566009-1.375732-3.657257-2.33844-53.193237-46.926086-106.830474-93.327515-164.272735-135.06514-24.24527-17.61663-48.859452-34.746406-76.079209-47.692711-14.043762-6.679519-28.895019-9.987602-44.292862-10.639785-12.450378-.527344-24.882682-.478783-37.152687 2.86309-21.887291 5.961235-35.944248 23.069382-36.129489 45.701332-.072602 8.870629.096107 18.020821 2.138233 26.569939 3.5951 15.050491 18.072609 25.444977 33.583748 25.72055 24.423622.43393 42.793136-11.38771 58.247726-28.988769 2.180527-2.483368 4.143906-5.157379 6.732666-8.400742 12.623688 24.924454 24.980377 49.321732 37.454163 73.950211-15.997605 8.471207-32.570542 14.084686-49.957489 17.506531-16.439667 3.235428-32.830101 3.141678-48.886765-1.516388-28.819565-8.360642-47.211178-28.102097-58.357578-55.270523-7.222424-17.604004-10.533772-36.129303-10.676579-54.988556-.221302-29.225044 6.921387-56.089913 28.984158-77.070339 17.927502-17.048018 39.402401-26.874596 64.163059-30.791957z" fill="#cdb592"/><path d="m385.201599 924.973755c4.295044.340454 8.138825.851257 11.995606.984131 3.804779.131103 7.62268-.12024 11.687774-.559448 3.385193-.355652 6.517456-.355652 10.410401-.355652-1.013916 4.031921-1.780213 7.357666-2.689087 10.64386-3.410919 12.333007-6.953156 24.630676-10.223725 37.000427-.534546 2.021728-.772949 4.876648.244263 6.440979 16.445068 25.291321 13.839966 50.32605-.580383 75.30957-1.413391 2.448731-2.890351 4.872681-4.512451 7.185791-1.614533 2.302246-3.44925 4.450073-5.374909 6.904541 39.863648 13.968506 60.95166 45.748535 80.072815 81.288452-9.025299.26416-16.245148 1.195435-23.2034-3.939453-20.345794-15.01416-42.408416-27.033691-66.640869-34.546265-24.089081-7.468261-48.794403-9.488037-73.953918-7.586303-16.700592 1.262451-32.794769 5.092529-48.814972 9.559936-1.23877.345459-2.510254.573609-4.479309 1.016724 1.332031-7.084229 4.683502-12.484131 8.57074-17.560303 12.489135-16.30957 30.258758-23.457275 49.453979-27.621216 15.013763-3.256958 30.259399-4.352661 45.630676-2.417724 1.185578.149292 3.394104-1.008423 3.74289-2.030884 8.209442-24.067383 12.427734-48.324219 2.507019-73.031311-.309754-.771423-.705658-1.513733-.954773-2.303223-1.77478-5.624328-5.166321-7.677978-11.435547-7.614624-35.32785.356995-70.661346.11615-105.992554.208191-10.206558.026611-19.731659 2.877197-28.256485 8.527161-19.98648 13.246399-20.50795 37.831604-1.154037 52.93988 3.39505 2.650391 7.043777 4.975708 11.191635 7.883179-6.538925 13.057495-13.137039 26.233276-19.999298 39.936401-7.576416-4.474609-13.268112-10.501098-17.51294-17.58667-19.704178-32.890625-23.976135-67.1958-6.279922-102.112976 11.037399-21.778259 30.161407-34.958313 52.691818-43.576843 5.561432-2.127441 11.039047-2.944092 16.924606-2.932922 42.162751.080322 84.325806-.011475 126.934357-.053406z" fill="#cdb592"/><path d="m581.505981 343.52771c-12.063232 19.552277-23.907959 38.812714-36.252685 58.886139-21.204102-34.584992-42.133972-68.722748-63.380402-103.376831h126.973419c-9.186584 14.970764-18.154235 29.584808-27.340332 44.490692z" fill="#010101"/><path d="m324.393768 535.489075c-34.957397 10.558166-69.434982 11.001648-103.762054-1.097229-25.023773-8.819763-38.795258-27.842072-45.68338-52.184388-12.850174-45.412109 7.859985-88.747375 51.181732-106.679443 8.675812-3.591125 18.748169-5.093231 28.216247-5.256317 35.305481-.608032 70.627442-.258698 105.943238-.258026.479126 0 .958252.137848 1.857635.275909.541474 10.754303 1.12265 21.505554 1.616638 32.260834 1.36792 29.782166 2.420502 59.582855 4.220093 89.338593.521912 8.62973-2.513641 15.231414-7.71286 21.265045-9.51123 11.037719-21.973328 17.508789-35.877289 22.335022z" fill="#fefefe"/></svg>