<svg version="1.1" id="Layer_1" xmlns="http://www.w3.org/2000/svg" xmlns:xlink="http://www.w3.org/1999/xlink" x="0px" y="0px"
	 width="100%" viewBox="0 0 2752 1010" enable-background="new 0 0 2752 1010" xml:space="preserve">
<path fill="#FFFFFF" opacity="1.000000" stroke="none" 
	d="
M2150.000000,1011.000000 
	C1433.333374,1011.000000 717.166687,1011.000000 1.000000,1011.000000 
	C1.000000,674.333313 1.000000,337.666656 1.000000,1.000000 
	C918.333313,1.000000 1835.666626,1.000000 2753.000000,1.000000 
	C2753.000000,337.666656 2753.000000,674.333313 2753.000000,1011.000000 
	C2552.166748,1011.000000 2351.333252,1011.000000 2150.000000,1011.000000 
M2643.301270,465.107422 
	C2642.812256,465.486389 2642.323242,465.865356 2641.834229,466.244385 
	C2642.516602,466.506348 2643.198975,466.768311 2643.981201,467.766693 
	C2643.704590,468.989197 2643.170898,470.220398 2643.211914,471.432129 
	C2643.271240,473.174713 2643.999268,474.901398 2644.011230,476.637848 
	C2644.384521,530.794128 2644.770020,584.950623 2644.923828,639.107727 
	C2644.937744,644.000793 2646.000488,647.358093 2650.355225,649.987122 
	C2656.225098,653.531006 2661.726074,657.685852 2668.440918,662.304443 
	C2668.440918,659.048767 2668.440918,657.268494 2668.440918,655.488159 
	C2668.440674,566.335083 2668.440430,477.181976 2668.440430,388.028870 
	C2668.440430,300.708832 2668.426025,213.388779 2668.505859,126.068840 
	C2668.508301,123.205750 2669.131104,120.228081 2670.060791,117.507637 
	C2671.498779,113.301086 2673.614990,109.329941 2675.137207,105.147552 
	C2676.477295,101.466484 2677.242920,97.578423 2678.540771,93.879562 
	C2680.400879,88.578346 2682.514404,83.366043 2684.635010,77.813789 
	C2658.921631,77.813789 2634.040283,77.813789 2607.812500,77.813789 
	C2609.429443,81.489578 2610.885986,84.331955 2611.948486,87.314674 
	C2614.086426,93.316277 2615.709961,99.515472 2618.092285,105.412445 
	C2621.744141,114.452408 2625.130127,123.513008 2626.070312,133.308853 
	C2626.475586,137.530884 2627.874268,141.905090 2627.175781,145.924088 
	C2626.259033,151.197174 2628.511963,155.708939 2628.887695,160.603760 
	C2629.275146,165.654800 2630.121826,170.676544 2630.371338,175.730682 
	C2630.634521,181.058502 2630.052002,186.443558 2630.531250,191.740997 
	C2631.044922,197.419876 2632.374512,203.024231 2633.330566,208.664062 
	C2634.828125,217.495117 2632.007324,226.647858 2635.308594,235.347641 
	C2635.365479,235.497635 2635.347168,235.677353 2635.357666,235.843597 
	C2635.944580,245.134323 2636.576904,254.422455 2637.105469,263.716492 
	C2637.813477,276.166138 2638.315430,288.628723 2639.146729,301.069672 
	C2639.736572,309.898712 2638.165527,318.676697 2639.965332,327.621063 
	C2641.537354,335.433868 2639.822266,343.624390 2640.851318,351.773499 
	C2642.251709,362.866455 2641.379150,374.226044 2642.249512,385.411591 
	C2643.250000,398.276337 2640.857666,411.022797 2642.706055,424.039978 
	C2644.612549,437.465607 2643.597168,451.306030 2643.301270,465.107422 
M2436.921143,121.760750 
	C2437.116943,122.004890 2437.312744,122.249023 2437.508545,122.493217 
	C2437.697510,122.076889 2437.886719,121.660568 2438.792480,120.782852 
	C2440.535889,111.864944 2442.193359,102.929085 2444.054443,94.035881 
	C2445.191895,88.602028 2446.642822,83.233757 2448.038330,77.483414 
	C2446.447021,77.483414 2445.623047,77.483383 2444.799072,77.483414 
	C2392.831787,77.485237 2340.864746,77.483170 2288.897461,77.511627 
	C2287.608154,77.512337 2286.319092,77.850739 2284.381104,78.197121 
	C2283.658447,78.854622 2282.935791,79.512115 2282.088623,80.950867 
	C2282.411621,82.337509 2283.179932,83.791756 2282.981445,85.099297 
	C2282.054199,91.206917 2279.043945,96.708145 2278.269287,103.006012 
	C2277.534668,108.976074 2274.823730,114.699821 2275.364502,121.492340 
	C2290.081787,121.492340 2304.586670,121.492340 2320.445312,121.492340 
	C2315.608154,127.006233 2311.156250,131.233765 2307.777344,136.192535 
	C2304.910645,140.399445 2303.485107,145.558182 2301.063477,150.105057 
	C2296.819336,158.074829 2292.607666,166.090973 2287.814941,173.731750 
	C2282.543701,182.135391 2280.139648,191.924210 2273.533691,199.840378 
	C2269.962158,204.120163 2270.178955,211.352676 2267.678223,216.789108 
	C2264.753662,223.146133 2263.504883,228.966278 2266.999756,235.506622 
	C2270.374756,241.822769 2270.723633,249.702042 2280.753662,251.181656 
	C2288.472168,252.320297 2295.840820,256.331573 2303.162109,259.530487 
	C2311.420898,263.139160 2319.602295,266.987457 2327.548096,271.235901 
	C2340.113770,277.954803 2351.562012,286.209045 2362.656494,295.292694 
	C2372.019775,302.958557 2380.976562,310.973755 2389.645996,319.334595 
	C2392.439209,322.028198 2394.657227,323.327240 2398.554199,321.890198 
	C2403.639160,320.015106 2408.964600,318.793243 2414.502441,317.199493 
	C2384.716064,269.033936 2347.416504,230.394943 2296.063477,206.304398 
	C2312.161133,181.601852 2331.372559,159.288544 2352.922852,138.558029 
	C2354.376465,139.921341 2355.614014,140.995209 2356.753662,142.164536 
	C2368.518066,154.234863 2380.374512,166.218445 2391.965820,178.453293 
	C2396.521973,183.262451 2400.381836,188.723862 2404.729736,193.739929 
	C2408.837891,198.479065 2413.230225,202.970688 2417.388672,207.667694 
	C2422.088135,212.976196 2426.792480,218.289352 2431.269531,223.783844 
	C2439.318359,233.661514 2447.455322,243.484406 2455.086182,253.681519 
	C2464.712158,266.545135 2474.246826,279.509338 2483.129639,292.888947 
	C2493.982666,309.235504 2504.066406,326.091248 2514.584961,342.661835 
	C2520.691162,352.281189 2526.995361,361.775116 2533.225830,371.315430 
	C2533.572998,371.847137 2533.990234,372.615845 2534.491699,372.721954 
	C2542.081055,374.328094 2549.690186,375.841766 2557.817871,377.482727 
	C2557.817871,374.697418 2557.817871,372.893921 2557.817871,371.090424 
	C2557.817871,305.093933 2557.447266,239.094116 2558.037109,173.102890 
	C2558.221191,152.523483 2554.543213,131.688812 2560.855957,111.281876 
	C2562.852051,104.829338 2563.366699,97.929558 2564.769531,91.278809 
	C2565.707764,86.830887 2567.017334,82.461319 2568.309814,77.483063 
	C2547.991699,77.483063 2528.846191,77.559341 2509.702148,77.417839 
	C2505.934082,77.389992 2503.928223,78.241112 2501.872314,81.960342 
	C2500.321533,84.764832 2501.449463,86.803421 2501.076904,89.131638 
	C2500.354736,93.649208 2497.766113,97.444885 2497.571777,102.429741 
	C2497.330566,108.616745 2494.463135,114.701332 2492.440430,121.854614 
	C2500.456055,121.854614 2507.284668,121.854614 2513.781982,121.854614 
	C2515.739258,127.353958 2514.767334,132.401291 2516.761719,137.357574 
	C2519.095947,143.158371 2519.271973,149.843765 2520.251953,156.165909 
	C2520.666260,158.838440 2521.720703,162.049362 2520.688477,164.121063 
	C2519.742676,166.020386 2519.840088,166.746536 2520.784424,168.218094 
	C2521.430908,169.225403 2521.786133,170.498917 2521.985840,171.700928 
	C2523.098877,178.405869 2523.624756,185.253677 2525.307617,191.806992 
	C2527.368652,199.832581 2524.821533,208.320419 2528.242432,216.129501 
	C2528.512695,216.746826 2527.947754,217.717468 2527.808105,218.530334 
	C2527.625732,219.593353 2527.197510,220.713669 2527.379150,221.718430 
	C2527.733398,223.683090 2528.662842,225.551926 2528.949219,227.519363 
	C2529.532715,231.528412 2529.833008,235.578156 2530.276367,239.608246 
	C2530.935059,245.590469 2532.063232,251.565842 2532.120850,257.552521 
	C2532.155518,261.157074 2530.221680,264.557678 2533.046631,268.217773 
	C2534.040283,269.505310 2532.786133,272.549622 2532.506104,274.785187 
	C2532.421387,275.460815 2531.815918,276.272308 2532.035400,276.755005 
	C2535.525879,284.430695 2534.566406,292.627747 2535.155518,300.671448 
	C2535.439209,304.545563 2533.370605,307.984497 2535.502441,312.508698 
	C2537.794678,317.372589 2536.833496,323.831848 2534.465088,330.086182 
	C2531.335205,324.184692 2528.605469,319.191559 2526.018555,314.125458 
	C2521.492920,305.263000 2516.988037,296.388428 2512.621338,287.447296 
	C2511.345703,284.835602 2510.942871,281.758148 2509.477295,279.287506 
	C2506.867676,274.889191 2503.592773,270.890717 2500.879395,266.548065 
	C2492.481689,253.108170 2484.359863,239.494080 2475.852783,226.124634 
	C2469.627197,216.339859 2463.158936,206.694977 2456.447754,197.236877 
	C2446.816650,183.664124 2436.945068,170.259430 2427.015137,156.902878 
	C2422.673096,151.062775 2417.878906,145.561172 2413.387451,139.829712 
	C2408.815918,133.996307 2404.363525,128.069397 2400.133789,121.788689 
	C2400.133789,121.788689 2400.091064,121.309631 2401.009277,121.186615 
	C2412.979492,121.213226 2424.949951,121.239838 2436.921143,121.760750 
M1943.304443,123.149139 
	C1941.240356,128.950027 1939.268311,134.785873 1937.084351,140.541199 
	C1935.239990,145.401291 1932.826538,150.065704 1931.262451,155.005890 
	C1929.800049,159.625015 1928.918335,164.459778 1928.144287,169.258240 
	C1926.706543,178.169998 1922.138062,186.170380 1921.164429,195.285278 
	C1920.533813,201.190567 1918.364502,206.946365 1916.721558,212.722763 
	C1915.831787,215.850830 1914.338379,218.818893 1913.582397,221.970688 
	C1912.367065,227.036789 1911.546997,232.197327 1910.535522,237.313110 
	C1910.336304,238.320007 1909.847412,239.295807 1909.796265,240.301437 
	C1909.497681,246.166229 1914.619019,249.108856 1916.867554,253.537094 
	C1919.846436,259.403534 1924.367188,259.104309 1929.346802,258.789368 
	C1931.625366,258.645264 1933.897827,257.992767 1936.158447,258.059753 
	C1941.581421,258.220490 1946.999390,258.620575 1952.412720,259.015625 
	C1960.529419,259.607941 1968.823975,259.422699 1976.710815,261.115448 
	C1988.718506,263.692596 2000.715210,266.852692 2012.225220,271.097748 
	C2031.783569,278.311157 2048.851807,290.095306 2064.766113,303.339142 
	C2073.471680,310.584045 2081.059326,319.159729 2089.508301,326.736877 
	C2091.168945,328.226166 2094.876465,328.964355 2096.933350,328.184784 
	C2102.414551,326.107544 2107.510986,323.014465 2112.591309,320.411804 
	C2111.173340,253.647949 2107.093750,187.338028 2097.154541,121.378311 
	C2121.765869,121.378311 2146.204346,121.378311 2170.805664,121.378311 
	C2171.261719,125.718857 2171.719971,129.880814 2172.130371,134.047470 
	C2172.543945,138.247086 2172.046387,142.783783 2173.505371,146.573120 
	C2175.526123,151.821686 2171.210449,157.539444 2175.342773,162.367233 
	C2175.635010,162.708588 2174.822021,163.876022 2174.746826,164.680298 
	C2174.637451,165.852020 2174.585205,167.065353 2174.763672,168.221558 
	C2175.516846,173.102615 2176.502686,177.951065 2177.142090,182.845612 
	C2177.874023,188.447037 2178.458008,194.075150 2178.872070,199.708878 
	C2179.376221,206.567734 2179.708496,213.442078 2179.941650,220.315628 
	C2179.989746,221.736862 2178.795654,223.254013 2178.993408,224.607071 
	C2179.896484,230.778732 2181.269287,236.882858 2182.130371,243.059067 
	C2182.960205,249.014038 2181.615479,254.866516 2182.881592,261.144257 
	C2185.059814,271.943298 2184.582764,283.287598 2185.105469,294.408447 
	C2185.815674,309.529633 2186.460205,324.654266 2187.051514,339.780609 
	C2187.477051,350.671204 2187.326416,361.604401 2188.240479,372.450500 
	C2189.254883,384.481537 2186.596436,396.385590 2188.786621,408.571442 
	C2191.349854,422.833527 2188.778076,437.489838 2189.676270,452.066895 
	C2191.303467,478.478821 2190.797363,505.028687 2190.968750,531.522339 
	C2191.205566,568.181396 2191.279297,604.841797 2191.310547,641.501648 
	C2191.313232,644.718140 2191.951416,646.839355 2194.997070,648.614929 
	C2199.707764,651.361084 2203.987549,654.841614 2208.486328,657.957886 
	C2210.310059,659.221191 2212.229736,660.346069 2214.898193,662.035767 
	C2214.898193,658.720398 2214.897949,656.733948 2214.897949,654.747437 
	C2214.897705,481.945312 2214.966553,309.143097 2214.751709,136.341248 
	C2214.736328,124.043373 2217.384766,112.361519 2219.669189,100.527901 
	C2221.135498,92.931038 2223.187012,85.447136 2225.077637,77.485420 
	C2222.954590,77.485420 2221.469971,77.485420 2219.985107,77.485420 
	C2124.002441,77.485443 2028.019775,77.485443 1932.037109,77.485817 
	C1931.203979,77.485817 1930.199463,77.194443 1929.573853,77.556038 
	C1928.335815,78.271431 1926.324463,79.381096 1926.353516,80.271667 
	C1926.526123,85.572792 1921.909180,89.345787 1922.676758,95.232529 
	C1923.248291,99.615265 1918.797363,104.248215 1919.486328,109.248367 
	C1920.061646,113.423195 1913.595337,116.483788 1918.290405,121.307175 
	C1926.276611,121.307175 1934.596069,121.307175 1943.073853,121.963821 
	C1943.237671,122.118088 1943.401611,122.272354 1943.304443,123.149139 
M993.067810,121.831619 
	C993.073608,121.651070 993.079468,121.470512 994.006287,121.184677 
	C1006.149475,121.184677 1018.292725,121.184677 1030.607056,121.184677 
	C1033.989380,106.607437 1037.299805,92.340454 1040.687012,77.742340 
	C986.230042,77.742340 932.167969,77.742340 877.457153,77.742340 
	C874.105164,92.082649 870.766174,106.367363 867.251038,121.405930 
	C882.926025,121.405930 897.440979,121.405930 912.708679,121.405930 
	C911.216125,123.214569 910.125183,124.232140 909.397217,125.464157 
	C898.250671,144.329285 886.768616,163.011246 876.188049,182.190094 
	C870.084351,193.253891 865.263916,205.049011 860.268005,216.687592 
	C858.584961,220.608292 856.635254,225.391342 857.470337,229.195724 
	C858.851685,235.488449 862.307739,241.347290 865.105652,247.287201 
	C865.594910,248.325775 867.037354,249.156097 868.220276,249.589966 
	C880.151245,253.965683 892.471313,257.463074 904.009338,262.691650 
	C933.927246,276.249237 959.645325,295.953003 982.565552,319.300476 
	C985.625427,322.417450 988.339478,323.004852 991.936646,321.825073 
	C996.953979,320.179474 1001.909607,318.345337 1007.023438,316.545471 
	C977.457703,269.143311 940.447693,230.143707 889.007935,206.704636 
	C901.136047,184.978836 932.557739,149.461853 947.308777,138.183807 
	C957.788086,149.091232 968.595154,159.942764 978.938538,171.219650 
	C988.906128,182.086853 998.461060,193.336380 1008.074280,204.523682 
	C1016.771912,214.645432 1025.622070,224.661224 1033.825928,235.175598 
	C1043.673706,247.797165 1052.927002,260.883545 1062.404663,273.792908 
	C1085.074341,304.670746 1105.669067,336.909515 1125.256226,369.805176 
	C1125.743530,370.623505 1125.798584,371.699188 1126.115356,372.878998 
	C1113.820435,372.949402 1102.668091,375.306335 1092.370483,381.113007 
	C1087.993042,383.581421 1083.211304,385.723572 1084.152954,392.112640 
	C1084.546143,394.781586 1085.111816,397.424622 1085.557495,400.086456 
	C1087.273071,410.333191 1088.971802,420.582794 1090.761719,431.341766 
	C1091.783691,430.850281 1092.961182,430.433868 1093.979248,429.772247 
	C1109.602051,419.619476 1126.643311,416.167694 1144.988281,418.997528 
	C1158.513428,421.083923 1167.355713,428.949402 1170.195068,441.250946 
	C1172.871094,452.844513 1168.227173,464.648895 1156.975708,471.631958 
	C1151.463745,475.053009 1145.011108,477.974182 1138.666626,478.867462 
	C1106.181274,483.441437 1076.077148,476.036713 1048.295044,458.895203 
	C1028.626709,446.759949 1011.404236,431.494934 994.493652,415.908752 
	C973.469788,396.531433 952.835693,376.730194 931.748230,357.423340 
	C920.510376,347.134369 908.729919,337.431641 897.013062,327.682281 
	C895.861572,326.724213 892.960876,326.517853 891.684265,327.295685 
	C886.292053,330.580994 881.207275,334.371033 875.248474,338.504913 
	C876.589478,339.550415 877.733459,340.240448 878.628357,341.170227 
	C893.206787,356.315826 907.913513,371.342590 922.259399,386.706055 
	C934.694824,400.023560 946.685425,413.755768 958.924805,427.257416 
	C969.199707,438.592163 979.377136,450.022766 989.908936,461.115417 
	C1004.235291,476.204742 1019.010620,490.851074 1036.254639,502.700012 
	C1042.362549,506.896942 1048.304810,511.525482 1054.911865,514.750244 
	C1061.216309,517.827393 1068.184814,519.756653 1075.048218,521.420715 
	C1083.125977,523.379333 1091.354126,525.051270 1099.612671,525.820496 
	C1105.770142,526.393982 1112.081421,525.367249 1118.320923,524.998596 
	C1138.548340,523.803345 1156.550049,517.372925 1170.971924,502.547699 
	C1173.922119,499.514954 1177.676514,496.960938 1179.733398,493.416351 
	C1187.742310,479.614899 1194.001953,465.191864 1194.441406,448.746613 
	C1194.761475,436.768982 1194.050781,425.147522 1189.447021,413.867188 
	C1185.033691,403.053345 1178.639160,393.886719 1169.287476,386.879547 
	C1165.215698,383.828613 1161.230591,379.194733 1156.734497,378.545258 
	C1150.988770,377.715240 1150.590942,375.541443 1150.596191,370.966705 
	C1150.687134,292.968079 1150.722290,214.969223 1150.602539,136.970673 
	C1150.583008,124.205597 1152.375977,111.793221 1155.564087,99.494881 
	C1157.411377,92.369400 1158.999268,85.176682 1160.802490,77.599953 
	C1138.947021,77.599953 1118.142822,77.599953 1096.621826,77.574699 
	C1095.773315,78.405197 1094.924927,79.235695 1094.311646,80.814888 
	C1094.541138,82.043922 1095.031128,83.289703 1094.953369,84.498970 
	C1094.670166,88.901726 1091.718506,92.374802 1091.656982,97.273445 
	C1091.571411,104.081573 1089.486084,111.084747 1087.087646,117.572273 
	C1085.250488,122.541946 1087.729858,122.006714 1090.725220,122.005127 
	C1096.161499,122.002258 1101.597778,122.004318 1107.257812,122.004318 
	C1110.995239,145.772171 1115.217529,168.918976 1118.137329,192.228943 
	C1121.095825,215.846146 1122.951782,239.609039 1124.950195,263.336792 
	C1126.948975,287.067444 1128.526855,310.833527 1130.289185,334.584106 
	C1129.821045,334.688232 1129.352783,334.792358 1128.884644,334.896515 
	C1127.414673,331.697784 1125.978516,328.483124 1124.469604,325.302856 
	C1109.440308,293.624756 1092.894165,262.718567 1073.383911,233.613449 
	C1054.192139,204.983643 1033.723999,177.204865 1013.609314,149.201096 
	C1006.992554,139.989227 999.730713,131.240738 993.067810,121.831619 
M233.713852,81.966057 
	C233.570847,80.916397 233.427841,79.866737 232.997849,77.975945 
	C232.533768,77.822655 232.069778,77.535347 231.605606,77.535095 
	C178.952866,77.506531 126.300087,77.513824 73.647392,77.452751 
	C70.679245,77.449303 69.828667,78.906166 69.248199,81.502525 
	C67.377548,89.869797 65.216232,98.171593 63.239471,106.515808 
	C62.137569,111.167099 61.179451,115.852463 59.989941,121.283058 
	C72.656654,121.283058 84.284927,121.283058 95.945152,121.915237 
	C96.642296,122.961220 97.339439,124.007210 97.850426,125.717247 
	C92.190536,133.390747 85.985146,140.726669 80.984177,148.807922 
	C70.534035,165.694687 60.677383,182.950394 50.723499,200.139420 
	C49.926861,201.515121 49.618954,203.795624 50.178333,205.228378 
	C52.761086,211.843613 55.731380,218.307556 58.172958,223.928345 
	C69.603424,226.582184 80.406128,228.958435 91.130791,231.646088 
	C95.338150,232.700485 99.345383,234.531723 103.492851,235.855347 
	C105.790192,236.588547 108.315262,236.704269 110.513290,237.630707 
	C114.087440,239.137192 117.391197,241.284119 120.962883,242.797791 
	C128.972641,246.192261 137.163269,249.168976 145.112228,252.694641 
	C150.367676,255.025650 155.482559,257.768219 160.383118,260.777924 
	C165.253845,263.769287 169.624832,267.578949 174.516785,270.529327 
	C177.061676,272.064148 179.836288,273.459534 183.373459,271.251007 
	C187.781357,268.498901 192.822647,266.761292 197.975769,264.409729 
	C183.291107,245.592331 166.350876,229.316223 147.004471,215.490509 
	C127.748787,201.729599 106.900620,190.988770 84.531143,182.810608 
	C100.884026,163.386536 119.427574,147.184280 139.347977,131.839111 
	C207.516708,177.851517 267.838501,232.817520 320.660950,297.484344 
	C317.746033,297.484344 315.774017,297.484314 313.802032,297.484375 
	C238.822922,297.486237 163.843765,297.523285 88.864853,297.405212 
	C84.224007,297.397919 81.926231,298.219238 80.965324,303.445801 
	C80.322960,306.939697 78.405823,310.422791 78.499084,314.125732 
	C78.640144,319.727386 73.594055,323.869873 74.820778,330.014130 
	C75.333160,332.580475 72.489502,335.816895 71.131546,339.452271 
	C71.766144,339.961365 72.400749,340.470490 73.953659,341.155914 
	C87.587280,341.155914 101.220909,341.155914 115.136101,341.155914 
	C113.996643,348.724121 113.733841,356.047424 111.655731,362.813141 
	C109.240112,370.677734 106.143089,378.635956 101.733696,385.524109 
	C91.619743,401.323761 78.022949,413.942688 62.348526,424.254761 
	C57.182213,427.653656 57.139400,427.540894 61.641865,431.891663 
	C62.304054,432.531464 62.676056,433.497406 63.100334,434.353119 
	C64.802597,437.786316 66.160110,441.437775 68.227516,444.631531 
	C71.351921,449.458252 75.036812,453.918182 78.342384,458.632965 
	C80.754028,462.072632 82.938347,465.671722 85.561165,469.720154 
	C89.820366,465.156189 93.298203,461.394775 96.813538,457.668732 
	C110.156525,443.526093 120.110794,427.293976 127.006416,409.128204 
	C132.867325,393.688171 135.916168,377.620850 137.820618,361.307861 
	C138.527512,355.252686 138.715607,349.136932 139.807388,343.004150 
	C140.567245,342.430450 141.327103,341.856750 143.008316,341.183441 
	C156.824203,341.183441 170.640076,341.183441 184.673599,341.183441 
	C186.220535,346.732239 187.984650,352.039368 189.161331,357.473724 
	C192.568283,373.208282 196.054443,388.937286 198.900406,404.777954 
	C201.082565,416.923920 202.318085,429.239044 204.020172,441.472626 
	C204.643753,445.954559 205.634949,450.397278 206.035110,454.895538 
	C206.570602,460.915039 206.755127,466.969116 206.952759,473.012848 
	C207.002853,474.544586 206.204330,476.125977 206.354187,477.628876 
	C207.171585,485.826508 208.131256,494.010590 209.119614,502.189972 
	C209.343872,504.045868 209.299759,506.971710 210.358429,507.522339 
	C217.698212,511.340057 225.296768,514.660217 234.586990,518.961853 
	C232.989761,458.812927 231.432846,400.182159 229.873123,341.445740 
	C252.713516,341.445740 276.131256,341.445740 299.731689,341.445740 
	C299.731689,344.471039 299.324524,347.296356 299.822021,349.952240 
	C300.684052,354.554047 302.174011,359.034821 303.262482,363.599304 
	C303.738464,365.595428 304.849060,368.478943 303.964783,369.548523 
	C302.013733,371.908478 303.081116,373.236938 304.317688,374.963654 
	C304.687134,375.479523 305.290039,376.112457 305.221466,376.614594 
	C304.371429,382.834137 306.857697,388.548187 307.764435,394.498718 
	C308.838470,401.546997 310.960419,408.857330 309.965973,415.665192 
	C309.176117,421.072113 310.997894,425.698517 311.625824,430.407928 
	C312.437683,436.496674 310.840485,442.639618 313.063812,448.824982 
	C314.269775,452.179993 312.957764,456.516022 313.858948,460.743622 
	C315.074738,466.446747 314.336212,472.612457 315.118652,478.670166 
	C316.313538,487.921234 315.614746,497.402252 316.042175,506.770905 
	C316.558716,518.093506 317.595001,529.393311 318.053772,540.717224 
	C318.356140,548.180481 317.818970,555.676147 318.065247,563.143799 
	C318.257965,568.988464 319.076508,574.812439 319.635742,580.847595 
	C303.399750,582.699036 287.990356,584.812622 276.282440,596.741516 
	C276.788391,599.253906 277.369354,601.851440 277.827515,604.470398 
	C278.987030,611.098022 280.119232,617.730896 281.178741,624.375000 
	C281.297302,625.118286 280.896759,625.951904 280.703125,626.735291 
	C280.510468,627.514771 279.904541,628.411377 280.119751,629.036255 
	C281.362976,632.646301 282.795624,636.191101 284.287079,640.078491 
	C292.334656,633.417603 302.257965,630.608032 312.389069,628.236938 
	C322.440552,625.884399 332.800690,625.896423 342.186310,629.243835 
	C350.093109,632.063904 357.562317,635.994568 360.885529,646.386047 
	C363.933624,655.917236 363.627380,663.484985 358.585846,671.235352 
	C352.028015,681.316650 341.578522,685.903870 330.448120,687.845520 
	C311.446930,691.160034 292.651123,688.810669 274.211365,683.234802 
	C255.052689,677.441467 238.100479,667.576233 222.648117,655.132996 
	C211.144333,645.869446 199.908936,636.242554 188.954681,626.334534 
	C176.851547,615.387390 165.559174,603.548645 153.217697,592.859802 
	C148.668137,588.919434 145.354538,583.944641 140.279297,580.280273 
	C134.453262,576.073853 129.551651,570.346680 124.028160,565.506348 
	C122.774361,564.407593 122.318733,562.373718 121.037880,561.334717 
	C116.583000,557.720886 111.761536,554.550232 107.389786,550.844910 
	C102.065720,546.332458 97.103439,541.395874 91.891129,536.747681 
	C88.954285,534.128601 81.826401,534.758179 79.385406,537.463135 
	C77.459824,539.596924 75.268478,541.498596 73.125145,543.425415 
	C71.753319,544.658752 70.254196,545.750488 68.234703,547.368225 
	C69.604904,548.488403 70.701637,549.249634 71.639229,550.172546 
	C80.777046,559.167603 90.188286,567.909241 98.936470,577.270020 
	C111.912064,591.154114 124.363174,605.526978 137.139816,619.598999 
	C142.149200,625.116211 147.592163,630.241699 152.561798,635.792664 
	C162.934998,647.379028 172.827347,659.409668 183.481552,670.726501 
	C192.375137,680.173218 202.051559,688.885132 211.424713,697.877197 
	C215.298721,701.593689 218.996460,705.588135 223.301086,708.735840 
	C227.835068,712.051270 232.872086,714.758789 237.915970,717.278076 
	C245.457275,721.044739 253.050293,724.785583 260.881927,727.877319 
	C278.259369,734.737610 296.554626,734.953003 314.770691,733.554626 
	C321.304077,733.053040 328.155609,733.481079 334.524078,729.979553 
	C341.992523,725.873291 350.301147,723.693542 357.028564,717.734558 
	C367.301025,708.635315 376.438538,699.121094 381.067719,685.780334 
	C384.978790,674.509033 387.841400,663.169617 387.612122,651.162292 
	C387.554291,648.132263 388.779663,644.737000 387.788177,642.127808 
	C384.488007,633.443054 384.526367,623.809509 379.254303,615.622803 
	C375.027374,609.059265 371.139374,601.900208 365.400360,597.015015 
	C360.520721,592.861328 354.427429,589.149292 347.777802,587.432495 
	C344.027374,586.464172 343.236115,584.209839 343.241272,580.535828 
	C343.349854,503.370575 343.046326,426.203094 343.616943,349.041901 
	C343.704559,337.193359 347.628448,325.360382 349.916656,313.547028 
	C350.893890,308.501923 352.226685,303.525635 353.525726,297.971710 
	C349.813782,297.971710 346.871033,297.971710 343.324554,297.971710 
	C343.324554,295.608429 343.324554,293.654053 343.324554,291.699646 
	C343.324463,243.533768 343.753052,195.362106 343.105469,147.204941 
	C342.859192,128.891495 345.087189,111.223412 349.797668,93.679596 
	C351.186584,88.506645 352.083160,83.201500 353.305267,77.489990 
	C332.485657,77.489990 312.183624,77.433174 291.884064,77.628456 
	C290.641235,77.640411 288.681732,79.437363 288.306000,80.759201 
	C286.089294,88.557076 286.436737,97.108376 281.273987,104.049538 
	C281.003540,104.413124 281.502594,105.269524 281.420441,105.865761 
	C280.941956,109.338020 281.002563,113.047050 279.720367,116.204826 
	C278.127930,120.126823 278.735626,121.905746 283.132690,121.990074 
	C286.797943,122.060387 290.466095,122.040779 294.132111,121.994514 
	C297.822510,121.947945 300.350372,123.618973 301.073853,127.217262 
	C302.248932,133.061844 302.818848,139.039948 304.211426,144.825180 
	C305.327942,149.463593 307.779724,153.794464 308.768646,158.446793 
	C310.857819,168.275146 312.497681,178.205719 314.052216,188.136581 
	C314.476440,190.846832 313.495728,193.781448 313.945404,196.482285 
	C314.739258,201.250320 315.727295,206.066879 317.374817,210.593506 
	C320.024689,217.874084 317.101562,225.767090 320.271667,232.938919 
	C320.668396,233.836456 320.028778,235.194473 319.861847,236.338043 
	C319.736145,237.199493 319.248932,238.193298 319.519714,238.899155 
	C322.604889,246.941788 322.221588,255.220627 321.917419,264.242340 
	C307.974182,243.664597 294.067291,224.157455 277.884094,206.382996 
	C267.936401,195.457169 258.118134,184.409622 247.995346,173.648514 
	C241.033386,166.247543 233.599960,159.292023 226.484299,152.032516 
	C224.494141,150.002136 223.099060,147.369659 221.034851,145.436340 
	C219.197128,143.715179 216.626190,142.792145 214.714966,141.130295 
	C212.386505,139.105652 210.547775,136.523331 208.251602,134.454880 
	C203.567841,130.235657 198.719604,126.198990 194.185867,121.729538 
	C194.185867,121.729538 194.091614,121.305443 195.010147,121.185471 
	C204.457123,121.185471 213.904099,121.185471 223.539429,121.185471 
	C224.705658,116.253418 225.738754,111.705635 226.860336,107.179764 
	C228.932999,98.815964 231.057510,90.465019 233.713852,81.966057 
M1679.523315,443.017456 
	C1676.516602,440.399139 1673.576660,437.699188 1670.490967,435.177399 
	C1660.088501,426.675720 1649.610107,418.266876 1639.217529,409.753265 
	C1636.713257,407.701599 1634.471313,405.332855 1632.028198,403.202118 
	C1629.680786,401.154663 1627.500488,398.543213 1624.742920,397.448059 
	C1622.229370,396.449799 1618.487793,396.132111 1616.270874,397.331848 
	C1612.403198,399.424927 1609.632690,403.545013 1605.765503,405.639771 
	C1601.924805,407.720276 1602.473633,409.119049 1604.985962,411.470856 
	C1610.575317,416.703064 1616.287354,421.815430 1621.681396,427.242920 
	C1637.977783,443.640259 1654.181641,460.129974 1670.348511,476.655334 
	C1677.406250,483.869659 1684.138428,491.405975 1691.280518,498.533508 
	C1702.390503,509.621094 1713.566284,520.653320 1725.023560,531.378540 
	C1731.665161,537.595764 1738.257690,544.332703 1746.063721,548.712646 
	C1754.513916,553.454102 1762.267334,559.636353 1771.871216,562.452332 
	C1782.808716,565.659424 1793.480347,569.607422 1805.097534,569.987000 
	C1821.757935,570.531555 1838.435913,570.462341 1853.874634,563.467957 
	C1875.447266,553.694458 1890.800415,537.922729 1897.094238,514.455322 
	C1898.845215,507.926392 1901.301880,501.398743 1901.743652,494.757965 
	C1902.212524,487.711761 1901.014160,480.479584 1899.943359,473.419708 
	C1896.336304,449.635468 1883.894653,432.344391 1861.404419,423.056122 
	C1857.729248,421.538300 1857.040527,419.708252 1857.044678,416.143311 
	C1857.141968,333.658234 1856.862671,251.171600 1857.317993,168.688934 
	C1857.419800,150.249985 1854.251953,131.610168 1859.823853,113.271545 
	C1862.361084,104.920517 1863.264160,96.078453 1865.023315,87.482643 
	C1865.675659,84.295830 1866.657227,81.176384 1867.630981,77.486595 
	C1864.535278,77.486595 1862.550171,77.486595 1860.565063,77.486595 
	C1799.909302,77.486595 1739.253296,77.574455 1678.598145,77.374199 
	C1671.109131,77.349464 1664.415039,78.248329 1658.490356,83.210022 
	C1654.589722,86.476814 1649.913940,88.861824 1646.217285,92.317650 
	C1641.419800,96.802666 1637.176880,101.894737 1632.826172,106.840584 
	C1623.556763,117.378105 1616.331909,132.423584 1612.835571,148.646179 
	C1611.356934,155.507446 1611.286377,162.116562 1611.334717,168.855865 
	C1611.396118,177.406906 1611.288696,185.801117 1613.948364,194.371582 
	C1620.003174,213.882339 1630.557739,229.572159 1647.659912,240.500916 
	C1646.772217,241.555435 1645.718262,242.614044 1644.886230,243.825104 
	C1633.292969,260.696777 1621.757080,277.607819 1610.121582,294.450226 
	C1608.855835,296.282501 1607.058472,297.747467 1606.348267,298.496490 
	C1605.327271,301.547516 1604.871338,303.772247 1603.880127,305.725403 
	C1599.052490,315.237488 1593.990479,324.631714 1589.259277,334.190399 
	C1588.541748,335.639984 1588.416260,338.203888 1589.237305,339.445679 
	C1592.162720,343.871063 1595.521973,348.024658 1598.897217,352.133118 
	C1601.571899,355.388885 1603.918457,358.591736 1609.368286,357.963318 
	C1629.220337,355.674347 1649.099365,353.130188 1669.038696,352.211792 
	C1693.374146,351.090820 1717.781128,350.351227 1742.037964,354.754608 
	C1753.966431,356.919983 1765.590210,359.962952 1776.091797,365.732300 
	C1786.360352,371.373535 1796.317139,377.888580 1805.436157,385.230438 
	C1814.792358,392.763245 1823.079102,401.652557 1831.544312,410.233765 
	C1832.861938,411.569336 1833.000732,414.447784 1832.880493,416.567108 
	C1832.848511,417.130676 1829.838745,417.905029 1828.184204,417.935852 
	C1816.028076,418.162628 1805.407837,422.290710 1795.786011,429.654053 
	C1793.058472,431.741302 1792.828003,433.968689 1793.341675,436.708466 
	C1794.117920,440.847656 1795.359619,444.917694 1795.874512,449.082520 
	C1796.384033,453.202698 1795.931396,457.443695 1796.465454,461.558380 
	C1796.987671,465.581146 1798.113159,469.544342 1799.287109,473.439270 
	C1799.429321,473.910675 1801.880249,474.357666 1802.654785,473.864197 
	C1811.442383,468.266449 1820.925781,464.713959 1831.257324,463.306030 
	C1842.902710,461.719025 1854.068970,463.610382 1864.295410,469.064423 
	C1870.857666,472.564270 1874.979980,478.154999 1876.264893,486.288788 
	C1878.154175,498.249512 1874.013672,510.181458 1863.989624,516.351990 
	C1855.550171,521.547058 1846.306885,524.529419 1836.426880,524.948730 
	C1810.804810,526.036072 1786.643799,520.777161 1764.083618,508.235107 
	C1747.405396,498.962982 1732.348145,487.531250 1717.916138,475.172119 
	C1715.729370,473.299316 1713.385986,471.609467 1711.192505,469.743988 
	C1705.439575,464.851654 1699.741211,459.895203 1693.997681,454.991730 
	C1690.705566,452.181183 1687.380371,449.409271 1684.044800,446.650482 
	C1682.747314,445.577362 1681.380493,444.588074 1679.523315,443.017456 
M810.300903,77.484283 
	C715.303894,77.486176 620.306824,77.490135 525.309814,77.480553 
	C522.264038,77.480247 518.876038,76.882950 517.966370,80.971169 
	C517.591614,82.655289 518.267822,84.559380 517.968384,86.276665 
	C516.907837,92.359718 513.737732,97.815491 513.236694,104.186699 
	C512.800903,109.728729 510.878174,115.153839 509.449005,121.338348 
	C519.175964,121.338348 527.724548,121.338348 536.572754,121.338348 
	C533.716431,130.068558 530.960632,138.248901 528.365295,146.479874 
	C524.252258,159.524017 520.141052,172.570663 516.245483,185.680542 
	C514.596985,191.228378 513.510315,196.942459 512.145386,202.575424 
	C509.825958,212.147247 507.573303,221.736435 505.129028,231.276428 
	C503.461273,237.785797 501.237457,244.220062 506.729797,250.115387 
	C508.384003,251.890991 509.911102,253.809525 511.305481,255.796585 
	C513.050842,258.283875 515.131348,259.336792 518.293091,258.957489 
	C523.018433,258.390656 527.802368,258.042877 532.558350,258.073059 
	C537.812500,258.106415 543.068054,258.611115 548.314453,259.019318 
	C555.378479,259.568878 562.633545,259.386566 569.451294,261.010101 
	C582.584351,264.137512 595.833496,267.379822 608.360962,272.292236 
	C623.303955,278.151886 637.010132,286.720154 649.455566,297.006989 
	C654.671143,301.317993 659.579895,306.015198 664.467041,310.704712 
	C670.459473,316.454773 676.257568,322.407074 682.215576,328.193878 
	C682.881958,328.841095 684.219116,329.513184 684.944519,329.271454 
	C690.990540,327.256439 697.031250,325.186279 702.908875,322.737579 
	C704.114502,322.235321 705.391113,320.054779 705.350708,318.685760 
	C704.664551,295.443726 703.874634,272.203461 702.886597,248.972198 
	C702.435730,238.369415 701.662476,227.773514 700.752258,217.198853 
	C699.660828,204.519669 698.377441,191.854263 696.973938,179.205429 
	C695.519653,166.098297 693.828674,153.017334 692.227783,139.926575 
	C691.478149,133.796844 690.696899,127.670982 689.919373,121.458824 
	C714.932556,121.458824 739.348633,121.458824 763.734802,121.458824 
	C764.269653,125.595428 764.900574,129.436462 765.237793,133.303101 
	C765.913635,141.052658 766.252136,148.834473 767.051453,156.569748 
	C768.283875,168.497528 769.973083,180.379395 771.123962,192.313965 
	C772.360535,205.136871 773.246399,217.994659 774.196106,230.843811 
	C774.905945,240.447388 775.534363,250.057953 776.091125,259.671661 
	C776.850769,272.788879 777.572449,285.908997 778.191406,299.033508 
	C778.880859,313.653687 779.470581,328.278870 780.039368,342.904388 
	C780.430542,352.964905 780.744690,363.028748 781.034546,373.092804 
	C781.396240,385.651337 781.726318,398.210938 782.017578,410.771332 
	C782.382324,426.498413 782.870667,442.225342 782.996643,457.954773 
	C783.466064,516.616455 783.895874,575.278870 784.090942,633.941833 
	C784.115662,641.362732 783.859436,647.907288 792.068970,651.756897 
	C797.368713,654.242065 801.966309,658.224609 807.782349,662.145325 
	C807.782349,658.710938 807.782288,656.745972 807.782288,654.781006 
	C807.782288,478.620239 807.768799,302.459473 807.857666,126.298759 
	C807.859924,121.737633 808.676147,117.111328 809.640747,112.629051 
	C812.138062,101.024406 814.930786,89.483353 817.705627,77.484322 
	C815.196411,77.484322 813.213806,77.484322 810.300903,77.484283 
M1367.500000,121.172104 
	C1392.805054,121.172104 1418.110107,121.172104 1443.896484,121.172104 
	C1447.313843,106.633430 1450.681396,92.306763 1454.164917,77.486534 
	C1451.109131,77.486534 1449.289917,77.486534 1447.470703,77.486534 
	C1376.992188,77.486534 1306.513672,77.486534 1236.035156,77.486534 
	C1225.937134,77.486534 1226.027222,77.511490 1223.291504,87.387047 
	C1222.690186,89.558167 1219.844238,91.974373 1220.371704,93.429802 
	C1221.993408,97.904518 1220.170166,100.965820 1217.881104,104.253929 
	C1217.425537,104.908394 1217.517212,105.958504 1217.401367,106.832108 
	C1216.959229,110.172653 1217.175415,113.777000 1215.943970,116.791962 
	C1214.380127,120.620644 1214.603271,121.864388 1218.814087,121.982986 
	C1222.310181,122.081467 1225.813232,122.076759 1229.309570,121.981781 
	C1232.423950,121.897179 1233.841553,123.423500 1233.368408,126.355156 
	C1232.648071,130.819366 1231.750122,135.262543 1230.733643,139.669907 
	C1227.597290,153.269440 1224.335938,166.840103 1221.187500,180.436874 
	C1218.786377,190.805435 1216.548584,201.212143 1214.097900,211.568695 
	C1213.332397,214.802826 1211.725098,217.866165 1211.195068,221.120346 
	C1210.552734,225.064575 1210.867554,229.156326 1210.368164,233.134033 
	C1209.491089,240.121872 1208.372559,247.081787 1207.236572,254.034058 
	C1206.284058,259.864685 1204.993408,265.645355 1204.219971,271.496796 
	C1203.991699,273.222687 1204.564941,275.421844 1205.554321,276.868256 
	C1207.928101,280.338318 1211.109619,283.274475 1213.341675,286.818817 
	C1217.204102,292.952576 1219.320068,293.792328 1226.102173,292.548004 
	C1236.023193,290.727783 1246.017090,289.199219 1256.038208,288.060028 
	C1265.771240,286.953613 1275.590820,286.634583 1285.349243,285.721924 
	C1303.790527,283.997253 1322.276611,284.155029 1340.473022,287.111298 
	C1351.603271,288.919556 1362.451172,292.934937 1373.169800,296.690063 
	C1387.036865,301.548218 1398.392334,310.735352 1408.848022,320.621338 
	C1417.838623,329.122162 1425.978638,338.639130 1433.694946,348.342834 
	C1444.298218,361.677032 1454.088989,375.655151 1464.406616,389.221436 
	C1465.469360,390.618896 1467.841919,392.003571 1469.444336,391.836456 
	C1476.277710,391.123810 1483.050049,389.825714 1490.351196,388.660370 
	C1485.835205,381.071472 1481.855835,374.081573 1477.588257,367.272247 
	C1467.013794,350.399445 1456.751221,333.303894 1445.470581,316.912292 
	C1439.678467,308.495972 1432.215576,301.162445 1425.067383,293.765076 
	C1417.738159,286.180359 1410.351440,278.507355 1402.105835,271.991974 
	C1393.770874,265.406006 1384.695190,259.547058 1375.313477,254.554291 
	C1365.515991,249.340240 1354.969849,245.531494 1344.734619,241.146439 
	C1344.344482,240.979218 1343.782593,241.195648 1343.303589,241.255859 
	C1341.452881,241.488541 1339.560303,242.110077 1337.760376,241.906113 
	C1327.434448,240.736084 1317.161987,238.704178 1306.812378,238.217560 
	C1288.042358,237.335068 1269.370728,239.008423 1250.915283,242.721130 
	C1244.468872,244.017960 1238.015381,245.279190 1230.217041,246.823654 
	C1233.012329,239.201233 1235.675659,232.789490 1237.709106,226.183823 
	C1240.417725,217.384186 1242.277710,208.315002 1245.167725,199.581848 
	C1247.982666,191.075119 1251.746338,182.887131 1254.892090,174.483795 
	C1258.324585,165.314392 1261.346436,155.988739 1264.886597,146.862808 
	C1267.584595,139.907593 1271.172363,133.285934 1273.668945,126.268532 
	C1275.158691,122.080849 1277.256836,121.030098 1281.526733,121.062126 
	C1309.849854,121.274590 1338.175293,121.172112 1367.500000,121.172104 
M281.488159,819.586487 
	C282.115173,802.505615 280.103058,786.321716 266.467041,773.891235 
	C264.100708,771.734131 262.318787,767.235596 260.009674,767.051941 
	C254.299820,766.597534 250.837051,761.413696 244.731461,761.687134 
	C236.886383,762.038574 228.891068,759.664978 221.090744,760.238220 
	C209.571594,761.084717 198.371002,763.746216 190.156342,773.281494 
	C181.352646,783.500488 174.177979,794.223755 175.179626,808.592896 
	C175.773270,817.108948 175.023758,825.507263 178.409302,833.977905 
	C182.265732,843.626709 188.115280,850.999817 196.237152,856.962891 
	C207.255585,865.052490 219.882141,866.411499 233.042358,865.959534 
	C243.808746,865.589844 253.091583,861.606506 261.888641,855.710266 
	C269.945496,850.310120 274.497589,842.144836 278.891602,834.114319 
	C280.996368,830.267639 280.517853,825.007446 281.488159,819.586487 
M2022.095947,404.446533 
	C2017.230347,409.481842 2011.561035,413.968597 2007.670898,419.669434 
	C2000.134399,430.713959 1998.749268,443.482452 2000.220459,456.557281 
	C2001.212280,465.372589 2002.624023,474.143250 2008.386597,481.368835 
	C2011.741333,485.575287 2014.718018,490.600037 2019.061279,493.401550 
	C2030.743774,500.936798 2043.867432,504.325592 2057.883057,502.896790 
	C2073.842773,501.269775 2088.218506,496.595062 2097.099609,481.675140 
	C2098.622559,479.116333 2102.732666,476.909882 2102.580566,474.757080 
	C2102.061768,467.409454 2108.332520,461.723846 2106.436768,454.018829 
	C2105.006104,448.204010 2105.562012,441.923401 2104.947266,435.879211 
	C2104.084717,427.395386 2100.577637,419.562714 2094.729492,413.842346 
	C2083.077148,402.444458 2069.263672,395.765442 2052.072266,396.775208 
	C2041.654175,397.387146 2031.923584,399.197815 2022.095947,404.446533 
M982.068420,607.324768 
	C982.415222,609.750000 982.811646,612.169373 983.101135,614.601440 
	C985.542603,635.113708 1001.761047,654.296509 1023.524109,657.076233 
	C1037.103638,658.810791 1050.038696,658.173279 1062.423584,651.847839 
	C1071.572632,647.175049 1079.556152,640.549866 1083.827759,631.640198 
	C1086.706177,625.636292 1089.526611,618.779846 1089.087402,611.151428 
	C1088.521851,601.329285 1089.696045,591.265503 1084.793579,582.272461 
	C1081.264648,575.798828 1077.918213,568.533325 1072.528931,563.904907 
	C1059.826782,552.996155 1044.058105,550.514771 1027.740234,552.095154 
	C1015.865051,553.245178 1004.872498,557.233337 996.581787,566.139709 
	C986.117126,577.381287 981.565857,591.026978 982.068420,607.324768 
M1547.277954,134.096176 
	C1547.596069,133.716293 1548.050781,133.386688 1548.211792,132.948959 
	C1550.459473,126.841293 1552.676025,120.722145 1554.880005,114.598572 
	C1556.039062,111.378159 1557.231934,108.167091 1558.279541,104.909981 
	C1559.783447,100.234177 1561.040894,95.476120 1562.642212,90.835495 
	C1564.108887,86.584755 1565.892212,82.443230 1567.731323,77.755592 
	C1541.965454,77.755592 1517.084839,77.755592 1492.394775,77.755592 
	C1491.002075,83.056015 1493.909424,86.826080 1495.955933,91.143456 
	C1499.413208,98.436714 1501.941772,106.184547 1504.632446,113.821716 
	C1506.382568,118.789307 1507.598755,123.943779 1509.306885,128.927994 
	C1510.231445,131.626328 1511.300781,134.886887 1514.800537,134.930481 
	C1525.441650,135.063049 1536.087036,134.861176 1547.277954,134.096176 
M450.941010,123.269440 
	C450.969055,122.451454 450.759521,121.530006 451.063446,120.832161 
	C453.160645,116.016617 455.455841,111.286240 457.504730,106.451088 
	C459.018585,102.878479 460.327881,99.213654 461.598297,95.544891 
	C463.065033,91.309158 464.368408,87.017120 465.787415,82.764435 
	C466.212769,81.489616 466.787689,80.264702 467.294098,79.016930 
	C465.896240,78.506210 464.500122,77.555923 463.100250,77.550385 
	C440.309540,77.460098 417.518311,77.485466 394.727203,77.505585 
	C393.773071,77.506424 392.819122,77.710098 390.774139,77.944122 
	C393.866760,86.464951 396.766571,94.542053 399.730621,102.595505 
	C402.472412,110.045181 405.750824,117.334648 407.943451,124.939575 
	C410.616760,134.211746 411.072601,135.004364 420.496216,135.004364 
	C428.148712,135.004349 435.809875,134.791321 443.449677,135.102676 
	C446.796570,135.239075 447.643860,133.609421 448.370758,130.998962 
	C449.027069,128.642075 450.063324,126.390976 450.941010,123.269440 
z"/>
<path fill="#020202" opacity="1.000000" stroke="none" 
	d="
M139.140289,343.048828 
	C138.715607,349.136932 138.527512,355.252686 137.820618,361.307861 
	C135.916168,377.620850 132.867325,393.688171 127.006416,409.128204 
	C120.110794,427.293976 110.156525,443.526093 96.813538,457.668732 
	C93.298203,461.394775 89.820366,465.156189 85.561165,469.720154 
	C82.938347,465.671722 80.754028,462.072632 78.342384,458.632965 
	C75.036812,453.918182 71.351921,449.458252 68.227516,444.631531 
	C66.160110,441.437775 64.802597,437.786316 63.100334,434.353119 
	C62.676056,433.497406 62.304054,432.531464 61.641865,431.891663 
	C57.139400,427.540894 57.182213,427.653656 62.348526,424.254761 
	C78.022949,413.942688 91.619743,401.323761 101.733696,385.524109 
	C106.143089,378.635956 109.240112,370.677734 111.655731,362.813141 
	C113.733841,356.047424 113.996643,348.724121 115.136101,341.155914 
	C101.220909,341.155914 87.587280,341.155914 73.486710,340.706482 
	C72.403755,339.754272 71.787758,339.251434 71.171761,338.748627 
	C72.489502,335.816895 75.333160,332.580475 74.820778,330.014130 
	C73.594055,323.869873 78.640144,319.727386 78.499084,314.125732 
	C78.405823,310.422791 80.322960,306.939697 80.965324,303.445801 
	C81.926231,298.219238 84.224007,297.397919 88.864853,297.405212 
	C163.843765,297.523285 238.822922,297.486237 313.802032,297.484375 
	C315.774017,297.484314 317.746033,297.484344 320.660950,297.484344 
	C267.838501,232.817520 207.516708,177.851517 139.347977,131.839111 
	C119.427574,147.184280 100.884026,163.386536 84.531143,182.810608 
	C106.900620,190.988770 127.748787,201.729599 147.004471,215.490509 
	C166.350876,229.316223 183.291107,245.592331 197.975769,264.409729 
	C192.822647,266.761292 187.781357,268.498901 183.373459,271.251007 
	C179.836288,273.459534 177.061676,272.064148 174.516785,270.529327 
	C169.624832,267.578949 165.253845,263.769287 160.383118,260.777924 
	C155.482559,257.768219 150.367676,255.025650 145.112228,252.694641 
	C137.163269,249.168976 128.972641,246.192261 120.962883,242.797791 
	C117.391197,241.284119 114.087440,239.137192 110.513290,237.630707 
	C108.315262,236.704269 105.790192,236.588547 103.492851,235.855347 
	C99.345383,234.531723 95.338150,232.700485 91.130791,231.646088 
	C80.406128,228.958435 69.603424,226.582184 58.172958,223.928345 
	C55.731380,218.307556 52.761086,211.843613 50.178333,205.228378 
	C49.618954,203.795624 49.926861,201.515121 50.723499,200.139420 
	C60.677383,182.950394 70.534035,165.694687 80.984177,148.807922 
	C85.985146,140.726669 92.190536,133.390747 98.298584,125.226547 
	C100.015869,124.121292 101.284988,123.506729 102.554108,122.892166 
	C102.076530,122.268333 101.598946,121.644501 101.121368,121.020668 
	C99.385315,121.108131 97.649261,121.195595 95.913208,121.283058 
	C84.284927,121.283058 72.656654,121.283058 59.989941,121.283058 
	C61.179451,115.852463 62.137569,111.167099 63.239471,106.515808 
	C65.216232,98.171593 67.377548,89.869797 69.248199,81.502525 
	C69.828667,78.906166 70.679245,77.449303 73.647392,77.452751 
	C126.300087,77.513824 178.952866,77.506531 231.605606,77.535095 
	C232.069778,77.535347 232.533768,77.822655 232.945877,78.777466 
	C232.982742,80.422234 233.071579,81.265472 233.160416,82.108711 
	C231.057510,90.465019 228.932999,98.815964 226.860336,107.179764 
	C225.738754,111.705635 224.705658,116.253418 223.539429,121.185471 
	C213.904099,121.185471 204.457123,121.185471 194.290680,121.154968 
	C193.693848,121.445343 193.816498,121.766228 193.939148,122.087120 
	C198.719604,126.198990 203.567841,130.235657 208.251602,134.454880 
	C210.547775,136.523331 212.386505,139.105652 214.714966,141.130295 
	C216.626190,142.792145 219.197128,143.715179 221.034851,145.436340 
	C223.099060,147.369659 224.494141,150.002136 226.484299,152.032516 
	C233.599960,159.292023 241.033386,166.247543 247.995346,173.648514 
	C258.118134,184.409622 267.936401,195.457169 277.884094,206.382996 
	C294.067291,224.157455 307.974182,243.664597 321.917419,264.242340 
	C322.221588,255.220627 322.604889,246.941788 319.519714,238.899155 
	C319.248932,238.193298 319.736145,237.199493 319.861847,236.338043 
	C320.028778,235.194473 320.668396,233.836456 320.271667,232.938919 
	C317.101562,225.767090 320.024689,217.874084 317.374817,210.593506 
	C315.727295,206.066879 314.739258,201.250320 313.945404,196.482285 
	C313.495728,193.781448 314.476440,190.846832 314.052216,188.136581 
	C312.497681,178.205719 310.857819,168.275146 308.768646,158.446793 
	C307.779724,153.794464 305.327942,149.463593 304.211426,144.825180 
	C302.818848,139.039948 302.248932,133.061844 301.073853,127.217262 
	C300.350372,123.618973 297.822510,121.947945 294.132111,121.994514 
	C290.466095,122.040779 286.797943,122.060387 283.132690,121.990074 
	C278.735626,121.905746 278.127930,120.126823 279.720367,116.204826 
	C281.002563,113.047050 280.941956,109.338020 281.420441,105.865761 
	C281.502594,105.269524 281.003540,104.413124 281.273987,104.049538 
	C286.436737,97.108376 286.089294,88.557076 288.306000,80.759201 
	C288.681732,79.437363 290.641235,77.640411 291.884064,77.628456 
	C312.183624,77.433174 332.485657,77.489990 353.305267,77.489990 
	C352.083160,83.201500 351.186584,88.506645 349.797668,93.679596 
	C345.087189,111.223412 342.859192,128.891495 343.105469,147.204941 
	C343.753052,195.362106 343.324463,243.533768 343.324554,291.699646 
	C343.324554,293.654053 343.324554,295.608429 343.324554,297.971710 
	C346.871033,297.971710 349.813782,297.971710 353.525726,297.971710 
	C352.226685,303.525635 350.893890,308.501923 349.916656,313.547028 
	C347.628448,325.360382 343.704559,337.193359 343.616943,349.041901 
	C343.046326,426.203094 343.349854,503.370575 343.241272,580.535828 
	C343.236115,584.209839 344.027374,586.464172 347.777802,587.432495 
	C354.427429,589.149292 360.520721,592.861328 365.400360,597.015015 
	C371.139374,601.900208 375.027374,609.059265 379.254303,615.622803 
	C384.526367,623.809509 384.488007,633.443054 387.788177,642.127808 
	C388.779663,644.737000 387.554291,648.132263 387.612122,651.162292 
	C387.841400,663.169617 384.978790,674.509033 381.067719,685.780334 
	C376.438538,699.121094 367.301025,708.635315 357.028564,717.734558 
	C350.301147,723.693542 341.992523,725.873291 334.524078,729.979553 
	C328.155609,733.481079 321.304077,733.053040 314.770691,733.554626 
	C296.554626,734.953003 278.259369,734.737610 260.881927,727.877319 
	C253.050293,724.785583 245.457275,721.044739 237.915970,717.278076 
	C232.872086,714.758789 227.835068,712.051270 223.301086,708.735840 
	C218.996460,705.588135 215.298721,701.593689 211.424713,697.877197 
	C202.051559,688.885132 192.375137,680.173218 183.481552,670.726501 
	C172.827347,659.409668 162.934998,647.379028 152.561798,635.792664 
	C147.592163,630.241699 142.149200,625.116211 137.139816,619.598999 
	C124.363174,605.526978 111.912064,591.154114 98.936470,577.270020 
	C90.188286,567.909241 80.777046,559.167603 71.639229,550.172546 
	C70.701637,549.249634 69.604904,548.488403 68.234703,547.368225 
	C70.254196,545.750488 71.753319,544.658752 73.125145,543.425415 
	C75.268478,541.498596 77.459824,539.596924 79.385406,537.463135 
	C81.826401,534.758179 88.954285,534.128601 91.891129,536.747681 
	C97.103439,541.395874 102.065720,546.332458 107.389786,550.844910 
	C111.761536,554.550232 116.583000,557.720886 121.037880,561.334717 
	C122.318733,562.373718 122.774361,564.407593 124.028160,565.506348 
	C129.551651,570.346680 134.453262,576.073853 140.279297,580.280273 
	C145.354538,583.944641 148.668137,588.919434 153.217697,592.859802 
	C165.559174,603.548645 176.851547,615.387390 188.954681,626.334534 
	C199.908936,636.242554 211.144333,645.869446 222.648117,655.132996 
	C238.100479,667.576233 255.052689,677.441467 274.211365,683.234802 
	C292.651123,688.810669 311.446930,691.160034 330.448120,687.845520 
	C341.578522,685.903870 352.028015,681.316650 358.585846,671.235352 
	C363.627380,663.484985 363.933624,655.917236 360.885529,646.386047 
	C357.562317,635.994568 350.093109,632.063904 342.186310,629.243835 
	C332.800690,625.896423 322.440552,625.884399 312.389069,628.236938 
	C302.257965,630.608032 292.334656,633.417603 284.287079,640.078491 
	C282.795624,636.191101 281.362976,632.646301 280.119751,629.036255 
	C279.904541,628.411377 280.510468,627.514771 280.703125,626.735291 
	C280.896759,625.951904 281.297302,625.118286 281.178741,624.375000 
	C280.119232,617.730896 278.987030,611.098022 277.827515,604.470398 
	C277.369354,601.851440 276.788391,599.253906 276.282440,596.741516 
	C287.990356,584.812622 303.399750,582.699036 319.635742,580.847595 
	C319.076508,574.812439 318.257965,568.988464 318.065247,563.143799 
	C317.818970,555.676147 318.356140,548.180481 318.053772,540.717224 
	C317.595001,529.393311 316.558716,518.093506 316.042175,506.770905 
	C315.614746,497.402252 316.313538,487.921234 315.118652,478.670166 
	C314.336212,472.612457 315.074738,466.446747 313.858948,460.743622 
	C312.957764,456.516022 314.269775,452.179993 313.063812,448.824982 
	C310.840485,442.639618 312.437683,436.496674 311.625824,430.407928 
	C310.997894,425.698517 309.176117,421.072113 309.965973,415.665192 
	C310.960419,408.857330 308.838470,401.546997 307.764435,394.498718 
	C306.857697,388.548187 304.371429,382.834137 305.221466,376.614594 
	C305.290039,376.112457 304.687134,375.479523 304.317688,374.963654 
	C303.081116,373.236938 302.013733,371.908478 303.964783,369.548523 
	C304.849060,368.478943 303.738464,365.595428 303.262482,363.599304 
	C302.174011,359.034821 300.684052,354.554047 299.822021,349.952240 
	C299.324524,347.296356 299.731689,344.471039 299.731689,341.445740 
	C276.131256,341.445740 252.713516,341.445740 229.873123,341.445740 
	C231.432846,400.182159 232.989761,458.812927 234.586990,518.961853 
	C225.296768,514.660217 217.698212,511.340057 210.358429,507.522339 
	C209.299759,506.971710 209.343872,504.045868 209.119614,502.189972 
	C208.131256,494.010590 207.171585,485.826508 206.354187,477.628876 
	C206.204330,476.125977 207.002853,474.544586 206.952759,473.012848 
	C206.755127,466.969116 206.570602,460.915039 206.035110,454.895538 
	C205.634949,450.397278 204.643753,445.954559 204.020172,441.472626 
	C202.318085,429.239044 201.082565,416.923920 198.900406,404.777954 
	C196.054443,388.937286 192.568283,373.208282 189.161331,357.473724 
	C187.984650,352.039368 186.220535,346.732239 184.673599,341.183441 
	C170.640076,341.183441 156.824203,341.183441 142.181824,341.112427 
	C140.616989,341.710510 139.878632,342.379669 139.140289,343.048828 
z"/>
<path fill="#020202" opacity="1.000000" stroke="none" 
	d="
M1679.784302,443.289032 
	C1681.380493,444.588074 1682.747314,445.577362 1684.044800,446.650482 
	C1687.380371,449.409271 1690.705566,452.181183 1693.997681,454.991730 
	C1699.741211,459.895203 1705.439575,464.851654 1711.192505,469.743988 
	C1713.385986,471.609467 1715.729370,473.299316 1717.916138,475.172119 
	C1732.348145,487.531250 1747.405396,498.962982 1764.083618,508.235107 
	C1786.643799,520.777161 1810.804810,526.036072 1836.426880,524.948730 
	C1846.306885,524.529419 1855.550171,521.547058 1863.989624,516.351990 
	C1874.013672,510.181458 1878.154175,498.249512 1876.264893,486.288788 
	C1874.979980,478.154999 1870.857666,472.564270 1864.295410,469.064423 
	C1854.068970,463.610382 1842.902710,461.719025 1831.257324,463.306030 
	C1820.925781,464.713959 1811.442383,468.266449 1802.654785,473.864197 
	C1801.880249,474.357666 1799.429321,473.910675 1799.287109,473.439270 
	C1798.113159,469.544342 1796.987671,465.581146 1796.465454,461.558380 
	C1795.931396,457.443695 1796.384033,453.202698 1795.874512,449.082520 
	C1795.359619,444.917694 1794.117920,440.847656 1793.341675,436.708466 
	C1792.828003,433.968689 1793.058472,431.741302 1795.786011,429.654053 
	C1805.407837,422.290710 1816.028076,418.162628 1828.184204,417.935852 
	C1829.838745,417.905029 1832.848511,417.130676 1832.880493,416.567108 
	C1833.000732,414.447784 1832.861938,411.569336 1831.544312,410.233765 
	C1823.079102,401.652557 1814.792358,392.763245 1805.436157,385.230438 
	C1796.317139,377.888580 1786.360352,371.373535 1776.091797,365.732300 
	C1765.590210,359.962952 1753.966431,356.919983 1742.037964,354.754608 
	C1717.781128,350.351227 1693.374146,351.090820 1669.038696,352.211792 
	C1649.099365,353.130188 1629.220337,355.674347 1609.368286,357.963318 
	C1603.918457,358.591736 1601.571899,355.388885 1598.897217,352.133118 
	C1595.521973,348.024658 1592.162720,343.871063 1589.237305,339.445679 
	C1588.416260,338.203888 1588.541748,335.639984 1589.259277,334.190399 
	C1593.990479,324.631714 1599.052490,315.237488 1603.880127,305.725403 
	C1604.871338,303.772247 1605.327271,301.547516 1606.348267,298.496490 
	C1607.058472,297.747467 1608.855835,296.282501 1610.121582,294.450226 
	C1621.757080,277.607819 1633.292969,260.696777 1644.886230,243.825104 
	C1645.718262,242.614044 1646.772217,241.555435 1647.659912,240.500916 
	C1630.557739,229.572159 1620.003174,213.882339 1613.948364,194.371582 
	C1611.288696,185.801117 1611.396118,177.406906 1611.334717,168.855865 
	C1611.286377,162.116562 1611.356934,155.507446 1612.835571,148.646179 
	C1616.331909,132.423584 1623.556763,117.378105 1632.826172,106.840584 
	C1637.176880,101.894737 1641.419800,96.802666 1646.217285,92.317650 
	C1649.913940,88.861824 1654.589722,86.476814 1658.490356,83.210022 
	C1664.415039,78.248329 1671.109131,77.349464 1678.598145,77.374199 
	C1739.253296,77.574455 1799.909302,77.486595 1860.565063,77.486595 
	C1862.550171,77.486595 1864.535278,77.486595 1867.630981,77.486595 
	C1866.657227,81.176384 1865.675659,84.295830 1865.023315,87.482643 
	C1863.264160,96.078453 1862.361084,104.920517 1859.823853,113.271545 
	C1854.251953,131.610168 1857.419800,150.249985 1857.317993,168.688934 
	C1856.862671,251.171600 1857.141968,333.658234 1857.044678,416.143311 
	C1857.040527,419.708252 1857.729248,421.538300 1861.404419,423.056122 
	C1883.894653,432.344391 1896.336304,449.635468 1899.943359,473.419708 
	C1901.014160,480.479584 1902.212524,487.711761 1901.743652,494.757965 
	C1901.301880,501.398743 1898.845215,507.926392 1897.094238,514.455322 
	C1890.800415,537.922729 1875.447266,553.694458 1853.874634,563.467957 
	C1838.435913,570.462341 1821.757935,570.531555 1805.097534,569.987000 
	C1793.480347,569.607422 1782.808716,565.659424 1771.871216,562.452332 
	C1762.267334,559.636353 1754.513916,553.454102 1746.063721,548.712646 
	C1738.257690,544.332703 1731.665161,537.595764 1725.023560,531.378540 
	C1713.566284,520.653320 1702.390503,509.621094 1691.280518,498.533508 
	C1684.138428,491.405975 1677.406250,483.869659 1670.348511,476.655334 
	C1654.181641,460.129974 1637.977783,443.640259 1621.681396,427.242920 
	C1616.287354,421.815430 1610.575317,416.703064 1604.985962,411.470856 
	C1602.473633,409.119049 1601.924805,407.720276 1605.765503,405.639771 
	C1609.632690,403.545013 1612.403198,399.424927 1616.270874,397.331848 
	C1618.487793,396.132111 1622.229370,396.449799 1624.742920,397.448059 
	C1627.500488,398.543213 1629.680786,401.154663 1632.028198,403.202118 
	C1634.471313,405.332855 1636.713257,407.701599 1639.217529,409.753265 
	C1649.610107,418.266876 1660.088501,426.675720 1670.490967,435.177399 
	C1673.576660,437.699188 1676.516602,440.399139 1679.784302,443.289032 
M1765.367188,237.922516 
	C1743.101807,248.163330 1719.695312,253.309280 1695.215576,252.643250 
	C1689.976318,252.500702 1686.140869,253.799408 1682.117188,256.762268 
	C1666.631348,268.165314 1652.443237,280.969360 1639.628174,295.287903 
	C1635.838867,299.521698 1632.339233,304.014648 1628.772705,308.309418 
	C1649.248657,307.253662 1669.180420,305.691132 1689.134033,305.327484 
	C1716.305664,304.832306 1742.946167,308.061249 1767.739624,320.430481 
	C1787.595459,330.336395 1803.733154,344.849426 1818.262451,361.311676 
	C1823.892334,367.690552 1829.227295,374.329742 1835.179810,381.426453 
	C1835.255005,318.266541 1831.763306,256.084503 1824.129639,193.070023 
	C1807.645752,212.841019 1788.332764,227.196625 1765.367188,237.922516 
M1687.508057,205.119461 
	C1704.580200,208.243057 1721.654907,207.294662 1738.696045,204.961304 
	C1768.964966,200.816788 1795.639771,188.592941 1818.849121,168.787811 
	C1819.830811,167.949966 1820.938232,166.299118 1820.768799,165.217865 
	C1818.485229,150.641251 1815.985229,136.098526 1813.507202,121.359535 
	C1812.212280,121.283081 1811.240967,121.175720 1810.269775,121.175568 
	C1758.147705,121.167374 1706.025635,121.136917 1653.904053,121.295654 
	C1652.040527,121.301331 1649.526611,122.718056 1648.422241,124.266319 
	C1635.633545,142.197067 1638.138550,171.852432 1653.481323,188.081757 
	C1662.562134,197.687332 1674.065186,202.383026 1687.508057,205.119461 
z"/>
<path fill="#020202" opacity="1.000000" stroke="none" 
	d="
M1097.338745,77.599945 
	C1118.142822,77.599953 1138.947021,77.599953 1160.802490,77.599953 
	C1158.999268,85.176682 1157.411377,92.369400 1155.564087,99.494881 
	C1152.375977,111.793221 1150.583008,124.205597 1150.602539,136.970673 
	C1150.722290,214.969223 1150.687134,292.968079 1150.596191,370.966705 
	C1150.590942,375.541443 1150.988770,377.715240 1156.734497,378.545258 
	C1161.230591,379.194733 1165.215698,383.828613 1169.287476,386.879547 
	C1178.639160,393.886719 1185.033691,403.053345 1189.447021,413.867188 
	C1194.050781,425.147522 1194.761475,436.768982 1194.441406,448.746613 
	C1194.001953,465.191864 1187.742310,479.614899 1179.733398,493.416351 
	C1177.676514,496.960938 1173.922119,499.514954 1170.971924,502.547699 
	C1156.550049,517.372925 1138.548340,523.803345 1118.320923,524.998596 
	C1112.081421,525.367249 1105.770142,526.393982 1099.612671,525.820496 
	C1091.354126,525.051270 1083.125977,523.379333 1075.048218,521.420715 
	C1068.184814,519.756653 1061.216309,517.827393 1054.911865,514.750244 
	C1048.304810,511.525482 1042.362549,506.896942 1036.254639,502.700012 
	C1019.010620,490.851074 1004.235291,476.204742 989.908936,461.115417 
	C979.377136,450.022766 969.199707,438.592163 958.924805,427.257416 
	C946.685425,413.755768 934.694824,400.023560 922.259399,386.706055 
	C907.913513,371.342590 893.206787,356.315826 878.628357,341.170227 
	C877.733459,340.240448 876.589478,339.550415 875.248474,338.504913 
	C881.207275,334.371033 886.292053,330.580994 891.684265,327.295685 
	C892.960876,326.517853 895.861572,326.724213 897.013062,327.682281 
	C908.729919,337.431641 920.510376,347.134369 931.748230,357.423340 
	C952.835693,376.730194 973.469788,396.531433 994.493652,415.908752 
	C1011.404236,431.494934 1028.626709,446.759949 1048.295044,458.895203 
	C1076.077148,476.036713 1106.181274,483.441437 1138.666626,478.867462 
	C1145.011108,477.974182 1151.463745,475.053009 1156.975708,471.631958 
	C1168.227173,464.648895 1172.871094,452.844513 1170.195068,441.250946 
	C1167.355713,428.949402 1158.513428,421.083923 1144.988281,418.997528 
	C1126.643311,416.167694 1109.602051,419.619476 1093.979248,429.772247 
	C1092.961182,430.433868 1091.783691,430.850281 1090.761719,431.341766 
	C1088.971802,420.582794 1087.273071,410.333191 1085.557495,400.086456 
	C1085.111816,397.424622 1084.546143,394.781586 1084.152954,392.112640 
	C1083.211304,385.723572 1087.993042,383.581421 1092.370483,381.113007 
	C1102.668091,375.306335 1113.820435,372.949402 1126.115356,372.878998 
	C1125.798584,371.699188 1125.743530,370.623505 1125.256226,369.805176 
	C1105.669067,336.909515 1085.074341,304.670746 1062.404663,273.792908 
	C1052.927002,260.883545 1043.673706,247.797165 1033.825928,235.175598 
	C1025.622070,224.661224 1016.771912,214.645432 1008.074280,204.523682 
	C998.461060,193.336380 988.906128,182.086853 978.938538,171.219650 
	C968.595154,159.942764 957.788086,149.091232 947.308777,138.183807 
	C932.557739,149.461853 901.136047,184.978836 889.007935,206.704636 
	C940.447693,230.143707 977.457703,269.143311 1007.023438,316.545471 
	C1001.909607,318.345337 996.953979,320.179474 991.936646,321.825073 
	C988.339478,323.004852 985.625427,322.417450 982.565552,319.300476 
	C959.645325,295.953003 933.927246,276.249237 904.009338,262.691650 
	C892.471313,257.463074 880.151245,253.965683 868.220276,249.589966 
	C867.037354,249.156097 865.594910,248.325775 865.105652,247.287201 
	C862.307739,241.347290 858.851685,235.488449 857.470337,229.195724 
	C856.635254,225.391342 858.584961,220.608292 860.268005,216.687592 
	C865.263916,205.049011 870.084351,193.253891 876.188049,182.190094 
	C886.768616,163.011246 898.250671,144.329285 909.397217,125.464157 
	C910.125183,124.232140 911.216125,123.214569 912.708679,121.405930 
	C897.440979,121.405930 882.926025,121.405930 867.251038,121.405930 
	C870.766174,106.367363 874.105164,92.082649 877.457153,77.742340 
	C932.167969,77.742340 986.230042,77.742340 1040.687012,77.742340 
	C1037.299805,92.340454 1033.989380,106.607437 1030.607056,121.184677 
	C1018.292725,121.184677 1006.149475,121.184677 993.274780,121.141998 
	C992.616882,121.492989 992.690369,121.886673 992.763916,122.280357 
	C999.730713,131.240738 1006.992554,139.989227 1013.609314,149.201096 
	C1033.723999,177.204865 1054.192139,204.983643 1073.383911,233.613449 
	C1092.894165,262.718567 1109.440308,293.624756 1124.469604,325.302856 
	C1125.978516,328.483124 1127.414673,331.697784 1128.884644,334.896515 
	C1129.352783,334.792358 1129.821045,334.688232 1130.289185,334.584106 
	C1128.526855,310.833527 1126.948975,287.067444 1124.950195,263.336792 
	C1122.951782,239.609039 1121.095825,215.846146 1118.137329,192.228943 
	C1115.217529,168.918976 1110.995239,145.772171 1107.257812,122.004318 
	C1101.597778,122.004318 1096.161499,122.002258 1090.725220,122.005127 
	C1087.729858,122.006714 1085.250488,122.541946 1087.087646,117.572273 
	C1089.486084,111.084747 1091.571411,104.081573 1091.656982,97.273445 
	C1091.718506,92.374802 1094.670166,88.901726 1094.953369,84.498970 
	C1095.031128,83.289703 1094.541138,82.043922 1094.489990,80.301155 
	C1095.558472,79.058266 1096.448608,78.329102 1097.338745,77.599945 
z"/>
<path fill="#020202" opacity="1.000000" stroke="none" 
	d="
M1942.915771,121.307129 
	C1934.596069,121.307175 1926.276611,121.307175 1918.290405,121.307175 
	C1913.595337,116.483788 1920.061646,113.423195 1919.486328,109.248367 
	C1918.797363,104.248215 1923.248291,99.615265 1922.676758,95.232529 
	C1921.909180,89.345787 1926.526123,85.572792 1926.353516,80.271667 
	C1926.324463,79.381096 1928.335815,78.271431 1929.573853,77.556038 
	C1930.199463,77.194443 1931.203979,77.485817 1932.037109,77.485817 
	C2028.019775,77.485443 2124.002441,77.485443 2219.985107,77.485420 
	C2221.469971,77.485420 2222.954590,77.485420 2225.077637,77.485420 
	C2223.187012,85.447136 2221.135498,92.931038 2219.669189,100.527901 
	C2217.384766,112.361519 2214.736328,124.043373 2214.751709,136.341248 
	C2214.966553,309.143097 2214.897705,481.945312 2214.897949,654.747437 
	C2214.897949,656.733948 2214.898193,658.720398 2214.898193,662.035767 
	C2212.229736,660.346069 2210.310059,659.221191 2208.486328,657.957886 
	C2203.987549,654.841614 2199.707764,651.361084 2194.997070,648.614929 
	C2191.951416,646.839355 2191.313232,644.718140 2191.310547,641.501648 
	C2191.279297,604.841797 2191.205566,568.181396 2190.968750,531.522339 
	C2190.797363,505.028687 2191.303467,478.478821 2189.676270,452.066895 
	C2188.778076,437.489838 2191.349854,422.833527 2188.786621,408.571442 
	C2186.596436,396.385590 2189.254883,384.481537 2188.240479,372.450500 
	C2187.326416,361.604401 2187.477051,350.671204 2187.051514,339.780609 
	C2186.460205,324.654266 2185.815674,309.529633 2185.105469,294.408447 
	C2184.582764,283.287598 2185.059814,271.943298 2182.881592,261.144257 
	C2181.615479,254.866516 2182.960205,249.014038 2182.130371,243.059067 
	C2181.269287,236.882858 2179.896484,230.778732 2178.993408,224.607071 
	C2178.795654,223.254013 2179.989746,221.736862 2179.941650,220.315628 
	C2179.708496,213.442078 2179.376221,206.567734 2178.872070,199.708878 
	C2178.458008,194.075150 2177.874023,188.447037 2177.142090,182.845612 
	C2176.502686,177.951065 2175.516846,173.102615 2174.763672,168.221558 
	C2174.585205,167.065353 2174.637451,165.852020 2174.746826,164.680298 
	C2174.822021,163.876022 2175.635010,162.708588 2175.342773,162.367233 
	C2171.210449,157.539444 2175.526123,151.821686 2173.505371,146.573120 
	C2172.046387,142.783783 2172.543945,138.247086 2172.130371,134.047470 
	C2171.719971,129.880814 2171.261719,125.718857 2170.805664,121.378311 
	C2146.204346,121.378311 2121.765869,121.378311 2097.154541,121.378311 
	C2107.093750,187.338028 2111.173340,253.647949 2112.591309,320.411804 
	C2107.510986,323.014465 2102.414551,326.107544 2096.933350,328.184784 
	C2094.876465,328.964355 2091.168945,328.226166 2089.508301,326.736877 
	C2081.059326,319.159729 2073.471680,310.584045 2064.766113,303.339142 
	C2048.851807,290.095306 2031.783569,278.311157 2012.225220,271.097748 
	C2000.715210,266.852692 1988.718506,263.692596 1976.710815,261.115448 
	C1968.823975,259.422699 1960.529419,259.607941 1952.412720,259.015625 
	C1946.999390,258.620575 1941.581421,258.220490 1936.158447,258.059753 
	C1933.897827,257.992767 1931.625366,258.645264 1929.346802,258.789368 
	C1924.367188,259.104309 1919.846436,259.403534 1916.867554,253.537094 
	C1914.619019,249.108856 1909.497681,246.166229 1909.796265,240.301437 
	C1909.847412,239.295807 1910.336304,238.320007 1910.535522,237.313110 
	C1911.546997,232.197327 1912.367065,227.036789 1913.582397,221.970688 
	C1914.338379,218.818893 1915.831787,215.850830 1916.721558,212.722763 
	C1918.364502,206.946365 1920.533813,201.190567 1921.164429,195.285278 
	C1922.138062,186.170380 1926.706543,178.169998 1928.144287,169.258240 
	C1928.918335,164.459778 1929.800049,159.625015 1931.262451,155.005890 
	C1932.826538,150.065704 1935.239990,145.401291 1937.084351,140.541199 
	C1939.268311,134.785873 1941.240356,128.950027 1943.581299,122.564301 
	C1943.543945,121.755333 1943.229858,121.531212 1942.915771,121.307129 
M2074.813721,189.779572 
	C2068.124268,168.233490 2061.401611,146.697617 2054.784180,125.129417 
	C2053.872314,122.157578 2052.431641,121.053177 2049.155762,121.081108 
	C2028.672729,121.255714 2008.187256,121.216133 1987.703247,121.114273 
	C1984.909302,121.100380 1983.167358,121.716446 1981.840210,124.434517 
	C1971.727295,145.146103 1961.281616,165.696808 1951.327026,186.483185 
	C1947.589966,194.286484 1944.880493,202.581802 1941.503662,211.157822 
	C2007.094116,211.240433 2052.093506,246.323807 2090.241211,295.772552 
	C2088.672119,259.240997 2083.211182,224.718689 2074.813721,189.779572 
z"/>
<path fill="#020202" opacity="1.000000" stroke="none" 
	d="
M810.766052,77.484299 
	C813.213806,77.484322 815.196411,77.484322 817.705627,77.484322 
	C814.930786,89.483353 812.138062,101.024406 809.640747,112.629051 
	C808.676147,117.111328 807.859924,121.737633 807.857666,126.298759 
	C807.768799,302.459473 807.782288,478.620239 807.782288,654.781006 
	C807.782288,656.745972 807.782349,658.710938 807.782349,662.145325 
	C801.966309,658.224609 797.368713,654.242065 792.068970,651.756897 
	C783.859436,647.907288 784.115662,641.362732 784.090942,633.941833 
	C783.895874,575.278870 783.466064,516.616455 782.996643,457.954773 
	C782.870667,442.225342 782.382324,426.498413 782.017578,410.771332 
	C781.726318,398.210938 781.396240,385.651337 781.034546,373.092804 
	C780.744690,363.028748 780.430542,352.964905 780.039368,342.904388 
	C779.470581,328.278870 778.880859,313.653687 778.191406,299.033508 
	C777.572449,285.908997 776.850769,272.788879 776.091125,259.671661 
	C775.534363,250.057953 774.905945,240.447388 774.196106,230.843811 
	C773.246399,217.994659 772.360535,205.136871 771.123962,192.313965 
	C769.973083,180.379395 768.283875,168.497528 767.051453,156.569748 
	C766.252136,148.834473 765.913635,141.052658 765.237793,133.303101 
	C764.900574,129.436462 764.269653,125.595428 763.734802,121.458824 
	C739.348633,121.458824 714.932556,121.458824 689.919373,121.458824 
	C690.696899,127.670982 691.478149,133.796844 692.227783,139.926575 
	C693.828674,153.017334 695.519653,166.098297 696.973938,179.205429 
	C698.377441,191.854263 699.660828,204.519669 700.752258,217.198853 
	C701.662476,227.773514 702.435730,238.369415 702.886597,248.972198 
	C703.874634,272.203461 704.664551,295.443726 705.350708,318.685760 
	C705.391113,320.054779 704.114502,322.235321 702.908875,322.737579 
	C697.031250,325.186279 690.990540,327.256439 684.944519,329.271454 
	C684.219116,329.513184 682.881958,328.841095 682.215576,328.193878 
	C676.257568,322.407074 670.459473,316.454773 664.467041,310.704712 
	C659.579895,306.015198 654.671143,301.317993 649.455566,297.006989 
	C637.010132,286.720154 623.303955,278.151886 608.360962,272.292236 
	C595.833496,267.379822 582.584351,264.137512 569.451294,261.010101 
	C562.633545,259.386566 555.378479,259.568878 548.314453,259.019318 
	C543.068054,258.611115 537.812500,258.106415 532.558350,258.073059 
	C527.802368,258.042877 523.018433,258.390656 518.293091,258.957489 
	C515.131348,259.336792 513.050842,258.283875 511.305481,255.796585 
	C509.911102,253.809525 508.384003,251.890991 506.729797,250.115387 
	C501.237457,244.220062 503.461273,237.785797 505.129028,231.276428 
	C507.573303,221.736435 509.825958,212.147247 512.145386,202.575424 
	C513.510315,196.942459 514.596985,191.228378 516.245483,185.680542 
	C520.141052,172.570663 524.252258,159.524017 528.365295,146.479874 
	C530.960632,138.248901 533.716431,130.068558 536.572754,121.338348 
	C527.724548,121.338348 519.175964,121.338348 509.449005,121.338348 
	C510.878174,115.153839 512.800903,109.728729 513.236694,104.186699 
	C513.737732,97.815491 516.907837,92.359718 517.968384,86.276665 
	C518.267822,84.559380 517.591614,82.655289 517.966370,80.971169 
	C518.876038,76.882950 522.264038,77.480247 525.309814,77.480553 
	C620.306824,77.490135 715.303894,77.486176 810.766052,77.484299 
M678.982666,249.561005 
	C673.235657,206.897690 662.520508,165.492126 647.647339,125.120659 
	C646.565125,122.183121 645.271484,121.058891 642.015076,121.085426 
	C621.525818,121.252403 601.033997,121.246803 580.544617,121.089134 
	C577.384155,121.064819 575.937500,122.277016 574.451355,124.870697 
	C560.473938,149.264435 548.663635,174.680328 538.282104,200.779266 
	C536.982239,204.047119 535.942871,207.418610 534.655640,211.106430 
	C600.179688,211.142105 645.149231,246.243149 682.405090,294.937653 
	C682.785400,294.762451 683.165710,294.587250 683.545959,294.412079 
	C682.046143,279.759552 680.546326,265.107056 678.982666,249.561005 
z"/>
<path fill="#030303" opacity="1.000000" stroke="none" 
	d="
M2285.029785,78.031647 
	C2286.319092,77.850739 2287.608154,77.512337 2288.897461,77.511627 
	C2340.864746,77.483170 2392.831787,77.485237 2444.799072,77.483414 
	C2445.623047,77.483383 2446.447021,77.483414 2448.038330,77.483414 
	C2446.642822,83.233757 2445.191895,88.602028 2444.054443,94.035881 
	C2442.193359,102.929085 2440.535889,111.864944 2438.143066,120.912811 
	C2437.302734,121.117332 2437.111328,121.191887 2436.920166,121.266449 
	C2424.949951,121.239838 2412.979492,121.213226 2400.294922,121.158630 
	C2399.673340,121.481598 2399.766113,121.832542 2399.858887,122.183456 
	C2404.363525,128.069397 2408.815918,133.996307 2413.387451,139.829712 
	C2417.878906,145.561172 2422.673096,151.062775 2427.015137,156.902878 
	C2436.945068,170.259430 2446.816650,183.664124 2456.447754,197.236877 
	C2463.158936,206.694977 2469.627197,216.339859 2475.852783,226.124634 
	C2484.359863,239.494080 2492.481689,253.108170 2500.879395,266.548065 
	C2503.592773,270.890717 2506.867676,274.889191 2509.477295,279.287506 
	C2510.942871,281.758148 2511.345703,284.835602 2512.621338,287.447296 
	C2516.988037,296.388428 2521.492920,305.263000 2526.018555,314.125458 
	C2528.605469,319.191559 2531.335205,324.184692 2534.465088,330.086182 
	C2536.833496,323.831848 2537.794678,317.372589 2535.502441,312.508698 
	C2533.370605,307.984497 2535.439209,304.545563 2535.155518,300.671448 
	C2534.566406,292.627747 2535.525879,284.430695 2532.035400,276.755005 
	C2531.815918,276.272308 2532.421387,275.460815 2532.506104,274.785187 
	C2532.786133,272.549622 2534.040283,269.505310 2533.046631,268.217773 
	C2530.221680,264.557678 2532.155518,261.157074 2532.120850,257.552521 
	C2532.063232,251.565842 2530.935059,245.590469 2530.276367,239.608246 
	C2529.833008,235.578156 2529.532715,231.528412 2528.949219,227.519363 
	C2528.662842,225.551926 2527.733398,223.683090 2527.379150,221.718430 
	C2527.197510,220.713669 2527.625732,219.593353 2527.808105,218.530334 
	C2527.947754,217.717468 2528.512695,216.746826 2528.242432,216.129501 
	C2524.821533,208.320419 2527.368652,199.832581 2525.307617,191.806992 
	C2523.624756,185.253677 2523.098877,178.405869 2521.985840,171.700928 
	C2521.786133,170.498917 2521.430908,169.225403 2520.784424,168.218094 
	C2519.840088,166.746536 2519.742676,166.020386 2520.688477,164.121063 
	C2521.720703,162.049362 2520.666260,158.838440 2520.251953,156.165909 
	C2519.271973,149.843765 2519.095947,143.158371 2516.761719,137.357574 
	C2514.767334,132.401291 2515.739258,127.353958 2513.781982,121.854614 
	C2507.284668,121.854614 2500.456055,121.854614 2492.440430,121.854614 
	C2494.463135,114.701332 2497.330566,108.616745 2497.571777,102.429741 
	C2497.766113,97.444885 2500.354736,93.649208 2501.076904,89.131638 
	C2501.449463,86.803421 2500.321533,84.764832 2501.872314,81.960342 
	C2503.928223,78.241112 2505.934082,77.389992 2509.702148,77.417839 
	C2528.846191,77.559341 2547.991699,77.483063 2568.309814,77.483063 
	C2567.017334,82.461319 2565.707764,86.830887 2564.769531,91.278809 
	C2563.366699,97.929558 2562.852051,104.829338 2560.855957,111.281876 
	C2554.543213,131.688812 2558.221191,152.523483 2558.037109,173.102890 
	C2557.447266,239.094116 2557.817871,305.093933 2557.817871,371.090424 
	C2557.817871,372.893921 2557.817871,374.697418 2557.817871,377.482727 
	C2549.690186,375.841766 2542.081055,374.328094 2534.491699,372.721954 
	C2533.990234,372.615845 2533.572998,371.847137 2533.225830,371.315430 
	C2526.995361,361.775116 2520.691162,352.281189 2514.584961,342.661835 
	C2504.066406,326.091248 2493.982666,309.235504 2483.129639,292.888947 
	C2474.246826,279.509338 2464.712158,266.545135 2455.086182,253.681519 
	C2447.455322,243.484406 2439.318359,233.661514 2431.269531,223.783844 
	C2426.792480,218.289352 2422.088135,212.976196 2417.388672,207.667694 
	C2413.230225,202.970688 2408.837891,198.479065 2404.729736,193.739929 
	C2400.381836,188.723862 2396.521973,183.262451 2391.965820,178.453293 
	C2380.374512,166.218445 2368.518066,154.234863 2356.753662,142.164536 
	C2355.614014,140.995209 2354.376465,139.921341 2352.922852,138.558029 
	C2331.372559,159.288544 2312.161133,181.601852 2296.063477,206.304398 
	C2347.416504,230.394943 2384.716064,269.033936 2414.502441,317.199493 
	C2408.964600,318.793243 2403.639160,320.015106 2398.554199,321.890198 
	C2394.657227,323.327240 2392.439209,322.028198 2389.645996,319.334595 
	C2380.976562,310.973755 2372.019775,302.958557 2362.656494,295.292694 
	C2351.562012,286.209045 2340.113770,277.954803 2327.548096,271.235901 
	C2319.602295,266.987457 2311.420898,263.139160 2303.162109,259.530487 
	C2295.840820,256.331573 2288.472168,252.320297 2280.753662,251.181656 
	C2270.723633,249.702042 2270.374756,241.822769 2266.999756,235.506622 
	C2263.504883,228.966278 2264.753662,223.146133 2267.678223,216.789108 
	C2270.178955,211.352676 2269.962158,204.120163 2273.533691,199.840378 
	C2280.139648,191.924210 2282.543701,182.135391 2287.814941,173.731750 
	C2292.607666,166.090973 2296.819336,158.074829 2301.063477,150.105057 
	C2303.485107,145.558182 2304.910645,140.399445 2307.777344,136.192535 
	C2311.156250,131.233765 2315.608154,127.006233 2320.445312,121.492340 
	C2304.586670,121.492340 2290.081787,121.492340 2275.364502,121.492340 
	C2274.823730,114.699821 2277.534668,108.976074 2278.269287,103.006012 
	C2279.043945,96.708145 2282.054199,91.206917 2282.981445,85.099297 
	C2283.179932,83.791756 2282.411621,82.337509 2282.514648,80.594711 
	C2283.637207,79.502922 2284.333496,78.767288 2285.029785,78.031647 
z"/>
<path fill="#020202" opacity="1.000000" stroke="none" 
	d="
M1367.000000,121.172104 
	C1338.175293,121.172112 1309.849854,121.274590 1281.526733,121.062126 
	C1277.256836,121.030098 1275.158691,122.080849 1273.668945,126.268532 
	C1271.172363,133.285934 1267.584595,139.907593 1264.886597,146.862808 
	C1261.346436,155.988739 1258.324585,165.314392 1254.892090,174.483795 
	C1251.746338,182.887131 1247.982666,191.075119 1245.167725,199.581848 
	C1242.277710,208.315002 1240.417725,217.384186 1237.709106,226.183823 
	C1235.675659,232.789490 1233.012329,239.201233 1230.217041,246.823654 
	C1238.015381,245.279190 1244.468872,244.017960 1250.915283,242.721130 
	C1269.370728,239.008423 1288.042358,237.335068 1306.812378,238.217560 
	C1317.161987,238.704178 1327.434448,240.736084 1337.760376,241.906113 
	C1339.560303,242.110077 1341.452881,241.488541 1343.303589,241.255859 
	C1343.782593,241.195648 1344.344482,240.979218 1344.734619,241.146439 
	C1354.969849,245.531494 1365.515991,249.340240 1375.313477,254.554291 
	C1384.695190,259.547058 1393.770874,265.406006 1402.105835,271.991974 
	C1410.351440,278.507355 1417.738159,286.180359 1425.067383,293.765076 
	C1432.215576,301.162445 1439.678467,308.495972 1445.470581,316.912292 
	C1456.751221,333.303894 1467.013794,350.399445 1477.588257,367.272247 
	C1481.855835,374.081573 1485.835205,381.071472 1490.351196,388.660370 
	C1483.050049,389.825714 1476.277710,391.123810 1469.444336,391.836456 
	C1467.841919,392.003571 1465.469360,390.618896 1464.406616,389.221436 
	C1454.088989,375.655151 1444.298218,361.677032 1433.694946,348.342834 
	C1425.978638,338.639130 1417.838623,329.122162 1408.848022,320.621338 
	C1398.392334,310.735352 1387.036865,301.548218 1373.169800,296.690063 
	C1362.451172,292.934937 1351.603271,288.919556 1340.473022,287.111298 
	C1322.276611,284.155029 1303.790527,283.997253 1285.349243,285.721924 
	C1275.590820,286.634583 1265.771240,286.953613 1256.038208,288.060028 
	C1246.017090,289.199219 1236.023193,290.727783 1226.102173,292.548004 
	C1219.320068,293.792328 1217.204102,292.952576 1213.341675,286.818817 
	C1211.109619,283.274475 1207.928101,280.338318 1205.554321,276.868256 
	C1204.564941,275.421844 1203.991699,273.222687 1204.219971,271.496796 
	C1204.993408,265.645355 1206.284058,259.864685 1207.236572,254.034058 
	C1208.372559,247.081787 1209.491089,240.121872 1210.368164,233.134033 
	C1210.867554,229.156326 1210.552734,225.064575 1211.195068,221.120346 
	C1211.725098,217.866165 1213.332397,214.802826 1214.097900,211.568695 
	C1216.548584,201.212143 1218.786377,190.805435 1221.187500,180.436874 
	C1224.335938,166.840103 1227.597290,153.269440 1230.733643,139.669907 
	C1231.750122,135.262543 1232.648071,130.819366 1233.368408,126.355156 
	C1233.841553,123.423500 1232.423950,121.897179 1229.309570,121.981781 
	C1225.813232,122.076759 1222.310181,122.081467 1218.814087,121.982986 
	C1214.603271,121.864388 1214.380127,120.620644 1215.943970,116.791962 
	C1217.175415,113.777000 1216.959229,110.172653 1217.401367,106.832108 
	C1217.517212,105.958504 1217.425537,104.908394 1217.881104,104.253929 
	C1220.170166,100.965820 1221.993408,97.904518 1220.371704,93.429802 
	C1219.844238,91.974373 1222.690186,89.558167 1223.291504,87.387047 
	C1226.027222,77.511490 1225.937134,77.486534 1236.035156,77.486534 
	C1306.513672,77.486534 1376.992188,77.486534 1447.470703,77.486534 
	C1449.289917,77.486534 1451.109131,77.486534 1454.164917,77.486534 
	C1450.681396,92.306763 1447.313843,106.633430 1443.896484,121.172104 
	C1418.110107,121.172104 1392.805054,121.172104 1367.000000,121.172104 
z"/>
<path fill="#010101" opacity="1.000000" stroke="none" 
	d="
M2643.859863,464.964996 
	C2643.597168,451.306030 2644.612549,437.465607 2642.706055,424.039978 
	C2640.857666,411.022797 2643.250000,398.276337 2642.249512,385.411591 
	C2641.379150,374.226044 2642.251709,362.866455 2640.851318,351.773499 
	C2639.822266,343.624390 2641.537354,335.433868 2639.965332,327.621063 
	C2638.165527,318.676697 2639.736572,309.898712 2639.146729,301.069672 
	C2638.315430,288.628723 2637.813477,276.166138 2637.105469,263.716492 
	C2636.576904,254.422455 2635.944580,245.134323 2635.357666,235.843597 
	C2635.347168,235.677353 2635.365479,235.497635 2635.308594,235.347641 
	C2632.007324,226.647858 2634.828125,217.495117 2633.330566,208.664062 
	C2632.374512,203.024231 2631.044922,197.419876 2630.531250,191.740997 
	C2630.052002,186.443558 2630.634521,181.058502 2630.371338,175.730682 
	C2630.121826,170.676544 2629.275146,165.654800 2628.887695,160.603760 
	C2628.511963,155.708939 2626.259033,151.197174 2627.175781,145.924088 
	C2627.874268,141.905090 2626.475586,137.530884 2626.070312,133.308853 
	C2625.130127,123.513008 2621.744141,114.452408 2618.092285,105.412445 
	C2615.709961,99.515472 2614.086426,93.316277 2611.948486,87.314674 
	C2610.885986,84.331955 2609.429443,81.489578 2607.812500,77.813789 
	C2634.040283,77.813789 2658.921631,77.813789 2684.635010,77.813789 
	C2682.514404,83.366043 2680.400879,88.578346 2678.540771,93.879562 
	C2677.242920,97.578423 2676.477295,101.466484 2675.137207,105.147552 
	C2673.614990,109.329941 2671.498779,113.301086 2670.060791,117.507637 
	C2669.131104,120.228081 2668.508301,123.205750 2668.505859,126.068840 
	C2668.426025,213.388779 2668.440430,300.708832 2668.440430,388.028870 
	C2668.440430,477.181976 2668.440674,566.335083 2668.440918,655.488159 
	C2668.440918,657.268494 2668.440918,659.048767 2668.440918,662.304443 
	C2661.726074,657.685852 2656.225098,653.531006 2650.355225,649.987122 
	C2646.000488,647.358093 2644.937744,644.000793 2644.923828,639.107727 
	C2644.770020,584.950623 2644.384521,530.794128 2644.011230,476.637848 
	C2643.999268,474.901398 2643.271240,473.174713 2643.211914,471.432129 
	C2643.170898,470.220398 2643.704590,468.989197 2644.018555,467.057098 
	C2643.990479,465.886658 2643.925049,465.425842 2643.859863,464.964996 
z"/>
<path fill="#C67136" opacity="1.000000" stroke="none" 
	d="
M281.348755,819.986938 
	C280.517853,825.007446 280.996368,830.267639 278.891602,834.114319 
	C274.497589,842.144836 269.945496,850.310120 261.888641,855.710266 
	C253.091583,861.606506 243.808746,865.589844 233.042358,865.959534 
	C219.882141,866.411499 207.255585,865.052490 196.237152,856.962891 
	C188.115280,850.999817 182.265732,843.626709 178.409302,833.977905 
	C175.023758,825.507263 175.773270,817.108948 175.179626,808.592896 
	C174.177979,794.223755 181.352646,783.500488 190.156342,773.281494 
	C198.371002,763.746216 209.571594,761.084717 221.090744,760.238220 
	C228.891068,759.664978 236.886383,762.038574 244.731461,761.687134 
	C250.837051,761.413696 254.299820,766.597534 260.009674,767.051941 
	C262.318787,767.235596 264.100708,771.734131 266.467041,773.891235 
	C280.103058,786.321716 282.115173,802.505615 281.348755,819.986938 
M210.600800,835.005249 
	C215.352798,836.785583 219.970901,839.379639 224.882858,840.187988 
	C237.719025,842.300537 249.399689,835.934509 254.040894,825.151978 
	C259.027557,813.566895 256.016022,798.365845 247.307404,791.163757 
	C238.048599,783.506836 222.331177,782.971130 212.217728,789.259033 
	C197.268280,798.553894 197.221191,824.794128 210.600800,835.005249 
z"/>
<path fill="#C67135" opacity="1.000000" stroke="none" 
	d="
M2022.430420,404.274841 
	C2031.923584,399.197815 2041.654175,397.387146 2052.072266,396.775208 
	C2069.263672,395.765442 2083.077148,402.444458 2094.729492,413.842346 
	C2100.577637,419.562714 2104.084717,427.395386 2104.947266,435.879211 
	C2105.562012,441.923401 2105.006104,448.204010 2106.436768,454.018829 
	C2108.332520,461.723846 2102.061768,467.409454 2102.580566,474.757080 
	C2102.732666,476.909882 2098.622559,479.116333 2097.099609,481.675140 
	C2088.218506,496.595062 2073.842773,501.269775 2057.883057,502.896790 
	C2043.867432,504.325592 2030.743774,500.936798 2019.061279,493.401550 
	C2014.718018,490.600037 2011.741333,485.575287 2008.386597,481.368835 
	C2002.624023,474.143250 2001.212280,465.372589 2000.220459,456.557281 
	C1998.749268,443.482452 2000.134399,430.713959 2007.670898,419.669434 
	C2011.561035,413.968597 2017.230347,409.481842 2022.430420,404.274841 
M2070.179688,472.810852 
	C2076.116943,468.673615 2079.219482,462.783478 2080.643311,455.862366 
	C2083.424805,442.341309 2077.264893,429.382050 2065.613281,424.223755 
	C2053.577148,418.895172 2037.747803,422.514313 2030.789551,432.186005 
	C2022.923584,443.119446 2023.612061,459.624786 2032.333130,469.193268 
	C2041.008057,478.711121 2056.213379,480.345581 2070.179688,472.810852 
z"/>
<path fill="#C67135" opacity="1.000000" stroke="none" 
	d="
M982.175537,606.859192 
	C981.565857,591.026978 986.117126,577.381287 996.581787,566.139709 
	C1004.872498,557.233337 1015.865051,553.245178 1027.740234,552.095154 
	C1044.058105,550.514771 1059.826782,552.996155 1072.528931,563.904907 
	C1077.918213,568.533325 1081.264648,575.798828 1084.793579,582.272461 
	C1089.696045,591.265503 1088.521851,601.329285 1089.087402,611.151428 
	C1089.526611,618.779846 1086.706177,625.636292 1083.827759,631.640198 
	C1079.556152,640.549866 1071.572632,647.175049 1062.423584,651.847839 
	C1050.038696,658.173279 1037.103638,658.810791 1023.524109,657.076233 
	C1001.761047,654.296509 985.542603,635.113708 983.101135,614.601440 
	C982.811646,612.169373 982.415222,609.750000 982.175537,606.859192 
M1012.475281,588.129578 
	C1006.078979,599.172302 1005.880859,610.432922 1012.581116,621.192261 
	C1019.394531,632.133545 1035.765503,635.920715 1048.267212,630.192139 
	C1060.736572,624.478394 1066.589478,610.555420 1062.479248,596.034607 
	C1059.584839,585.809387 1052.843384,579.433044 1042.384033,577.540955 
	C1030.830078,575.450867 1020.548767,577.766113 1012.475281,588.129578 
z"/>
<path fill="#030303" opacity="1.000000" stroke="none" 
	d="
M1547.004395,134.442841 
	C1536.087036,134.861176 1525.441650,135.063049 1514.800537,134.930481 
	C1511.300781,134.886887 1510.231445,131.626328 1509.306885,128.927994 
	C1507.598755,123.943779 1506.382568,118.789307 1504.632446,113.821716 
	C1501.941772,106.184547 1499.413208,98.436714 1495.955933,91.143456 
	C1493.909424,86.826080 1491.002075,83.056015 1492.394775,77.755592 
	C1517.084839,77.755592 1541.965454,77.755592 1567.731323,77.755592 
	C1565.892212,82.443230 1564.108887,86.584755 1562.642212,90.835495 
	C1561.040894,95.476120 1559.783447,100.234177 1558.279541,104.909981 
	C1557.231934,108.167091 1556.039062,111.378159 1554.880005,114.598572 
	C1552.676025,120.722145 1550.459473,126.841293 1548.211792,132.948959 
	C1548.050781,133.386688 1547.596069,133.716293 1547.004395,134.442841 
z"/>
<path fill="#020202" opacity="1.000000" stroke="none" 
	d="
M450.936523,123.681335 
	C450.063324,126.390976 449.027069,128.642075 448.370758,130.998962 
	C447.643860,133.609421 446.796570,135.239075 443.449677,135.102676 
	C435.809875,134.791321 428.148712,135.004349 420.496216,135.004364 
	C411.072601,135.004364 410.616760,134.211746 407.943451,124.939575 
	C405.750824,117.334648 402.472412,110.045181 399.730621,102.595505 
	C396.766571,94.542053 393.866760,86.464951 390.774139,77.944122 
	C392.819122,77.710098 393.773071,77.506424 394.727203,77.505585 
	C417.518311,77.485466 440.309540,77.460098 463.100250,77.550385 
	C464.500122,77.555923 465.896240,78.506210 467.294098,79.016930 
	C466.787689,80.264702 466.212769,81.489616 465.787415,82.764435 
	C464.368408,87.017120 463.065033,91.309158 461.598297,95.544891 
	C460.327881,99.213654 459.018585,102.878479 457.504730,106.451088 
	C455.455841,111.286240 453.160645,116.016617 451.063446,120.832161 
	C450.759521,121.530006 450.969055,122.451454 450.936523,123.681335 
z"/>
<path fill="#BFBFBF" opacity="1.000000" stroke="none" 
	d="
M95.929184,121.599152 
	C97.649261,121.195595 99.385315,121.108131 101.121368,121.020668 
	C101.598946,121.644501 102.076530,122.268333 102.554108,122.892166 
	C101.284988,123.506729 100.015869,124.121292 98.391663,124.894531 
	C97.339439,124.007210 96.642296,122.961220 95.929184,121.599152 
z"/>
<path fill="#838383" opacity="1.000000" stroke="none" 
	d="
M1096.980225,77.587318 
	C1096.448608,78.329102 1095.558472,79.058266 1094.372314,79.926811 
	C1094.924927,79.235695 1095.773315,78.405197 1096.980225,77.587318 
z"/>
<path fill="#BFBFBF" opacity="1.000000" stroke="none" 
	d="
M139.473846,343.026489 
	C139.878632,342.379669 140.616989,341.710510 141.721161,341.162231 
	C141.327103,341.856750 140.567245,342.430450 139.473846,343.026489 
z"/>
<path fill="#CFCFCF" opacity="1.000000" stroke="none" 
	d="
M2643.580566,465.036194 
	C2643.925049,465.425842 2643.990479,465.886658 2643.968506,466.688873 
	C2643.198975,466.768311 2642.516602,466.506348 2641.834229,466.244385 
	C2642.323242,465.865356 2642.812256,465.486389 2643.580566,465.036194 
z"/>
<path fill="#838383" opacity="1.000000" stroke="none" 
	d="
M233.437134,82.037384 
	C233.071579,81.265472 232.982742,80.422234 233.089386,79.198036 
	C233.427841,79.866737 233.570847,80.916397 233.437134,82.037384 
z"/>
<path fill="#808080" opacity="1.000000" stroke="none" 
	d="
M2284.705566,78.114395 
	C2284.333496,78.767288 2283.637207,79.502922 2282.577148,80.204086 
	C2282.935791,79.512115 2283.658447,78.854622 2284.705566,78.114395 
z"/>
<path fill="#BFBFBF" opacity="1.000000" stroke="none" 
	d="
M71.151657,339.100464 
	C71.787758,339.251434 72.403755,339.754272 73.027557,340.618347 
	C72.400749,340.470490 71.766144,339.961365 71.151657,339.100464 
z"/>
<path fill="#BFBFBF" opacity="1.000000" stroke="none" 
	d="
M2436.920654,121.513596 
	C2437.111328,121.191887 2437.302734,121.117332 2437.784668,121.143509 
	C2437.886719,121.660568 2437.697510,122.076889 2437.508545,122.493187 
	C2437.312744,122.249023 2437.116943,122.004890 2436.920654,121.513596 
z"/>
<path fill="#BFBFBF" opacity="1.000000" stroke="none" 
	d="
M2399.996094,121.986084 
	C2399.766113,121.832542 2399.673340,121.481598 2399.835938,121.220139 
	C2400.091064,121.309631 2400.133789,121.788689 2399.996094,121.986084 
z"/>
<path fill="#BFBFBF" opacity="1.000000" stroke="none" 
	d="
M1942.994873,121.635452 
	C1943.229858,121.531212 1943.543945,121.755333 1943.711914,122.203041 
	C1943.401611,122.272354 1943.237671,122.118088 1942.994873,121.635452 
z"/>
<path fill="#BFBFBF" opacity="1.000000" stroke="none" 
	d="
M992.915894,122.055984 
	C992.690369,121.886673 992.616882,121.492989 992.814331,121.194641 
	C993.079468,121.470512 993.073608,121.651070 992.915894,122.055984 
z"/>
<path fill="#BFBFBF" opacity="1.000000" stroke="none" 
	d="
M194.062500,121.908325 
	C193.816498,121.766228 193.693848,121.445343 193.831421,121.214951 
	C194.091614,121.305443 194.185867,121.729538 194.062500,121.908325 
z"/>
<path fill="#FEFEFE" opacity="1.000000" stroke="none" 
	d="
M1765.709229,237.767090 
	C1788.332764,227.196625 1807.645752,212.841019 1824.129639,193.070023 
	C1831.763306,256.084503 1835.255005,318.266541 1835.179810,381.426453 
	C1829.227295,374.329742 1823.892334,367.690552 1818.262451,361.311676 
	C1803.733154,344.849426 1787.595459,330.336395 1767.739624,320.430481 
	C1742.946167,308.061249 1716.305664,304.832306 1689.134033,305.327484 
	C1669.180420,305.691132 1649.248657,307.253662 1628.772705,308.309418 
	C1632.339233,304.014648 1635.838867,299.521698 1639.628174,295.287903 
	C1652.443237,280.969360 1666.631348,268.165314 1682.117188,256.762268 
	C1686.140869,253.799408 1689.976318,252.500702 1695.215576,252.643250 
	C1719.695312,253.309280 1743.101807,248.163330 1765.709229,237.767090 
z"/>
<path fill="#FDFDFD" opacity="1.000000" stroke="none" 
	d="
M1687.085205,205.066833 
	C1674.065186,202.383026 1662.562134,197.687332 1653.481323,188.081757 
	C1638.138550,171.852432 1635.633545,142.197067 1648.422241,124.266319 
	C1649.526611,122.718056 1652.040527,121.301331 1653.904053,121.295654 
	C1706.025635,121.136917 1758.147705,121.167374 1810.269775,121.175568 
	C1811.240967,121.175720 1812.212280,121.283081 1813.507202,121.359535 
	C1815.985229,136.098526 1818.485229,150.641251 1820.768799,165.217865 
	C1820.938232,166.299118 1819.830811,167.949966 1818.849121,168.787811 
	C1795.639771,188.592941 1768.964966,200.816788 1738.696045,204.961304 
	C1721.654907,207.294662 1704.580200,208.243057 1687.085205,205.066833 
z"/>
<path fill="#FEFEFE" opacity="1.000000" stroke="none" 
	d="
M2074.890137,190.186066 
	C2083.211182,224.718689 2088.672119,259.240997 2090.241211,295.772552 
	C2052.093506,246.323807 2007.094116,211.240433 1941.503662,211.157822 
	C1944.880493,202.581802 1947.589966,194.286484 1951.327026,186.483185 
	C1961.281616,165.696808 1971.727295,145.146103 1981.840210,124.434517 
	C1983.167358,121.716446 1984.909302,121.100380 1987.703247,121.114273 
	C2008.187256,121.216133 2028.672729,121.255714 2049.155762,121.081108 
	C2052.431641,121.053177 2053.872314,122.157578 2054.784180,125.129417 
	C2061.401611,146.697617 2068.124268,168.233490 2074.890137,190.186066 
z"/>
<path fill="#FEFEFE" opacity="1.000000" stroke="none" 
	d="
M679.014526,250.007767 
	C680.546326,265.107056 682.046143,279.759552 683.545959,294.412079 
	C683.165710,294.587250 682.785400,294.762451 682.405090,294.937653 
	C645.149231,246.243149 600.179688,211.142105 534.655640,211.106430 
	C535.942871,207.418610 536.982239,204.047119 538.282104,200.779266 
	C548.663635,174.680328 560.473938,149.264435 574.451355,124.870697 
	C575.937500,122.277016 577.384155,121.064819 580.544617,121.089134 
	C601.033997,121.246803 621.525818,121.252403 642.015076,121.085426 
	C645.271484,121.058891 646.565125,122.183121 647.647339,125.120659 
	C662.520508,165.492126 673.235657,206.897690 679.014526,250.007767 
z"/>
<path fill="#FFFEFD" opacity="1.000000" stroke="none" 
	d="
M210.316742,834.780334 
	C197.221191,824.794128 197.268280,798.553894 212.217728,789.259033 
	C222.331177,782.971130 238.048599,783.506836 247.307404,791.163757 
	C256.016022,798.365845 259.027557,813.566895 254.040894,825.151978 
	C249.399689,835.934509 237.719025,842.300537 224.882858,840.187988 
	C219.970901,839.379639 215.352798,836.785583 210.316742,834.780334 
z"/>
<path fill="#FFFEFD" opacity="1.000000" stroke="none" 
	d="
M2069.863525,473.002136 
	C2056.213379,480.345581 2041.008057,478.711121 2032.333130,469.193268 
	C2023.612061,459.624786 2022.923584,443.119446 2030.789551,432.186005 
	C2037.747803,422.514313 2053.577148,418.895172 2065.613281,424.223755 
	C2077.264893,429.382050 2083.424805,442.341309 2080.643311,455.862366 
	C2079.219482,462.783478 2076.116943,468.673615 2069.863525,473.002136 
z"/>
<path fill="#FFFEFD" opacity="1.000000" stroke="none" 
	d="
M1012.692566,587.833679 
	C1020.548767,577.766113 1030.830078,575.450867 1042.384033,577.540955 
	C1052.843384,579.433044 1059.584839,585.809387 1062.479248,596.034607 
	C1066.589478,610.555420 1060.736572,624.478394 1048.267212,630.192139 
	C1035.765503,635.920715 1019.394531,632.133545 1012.581116,621.192261 
	C1005.880859,610.432922 1006.078979,599.172302 1012.692566,587.833679 
z"/>
</svg>