<svg enable-background="new 0 0 1024 720" viewBox="0 0 1024 720" xmlns="http://www.w3.org/2000/svg"><path d="m174.541916 452.41925c-2.298935-19.615356-4.529343-38.778869-7.87703-57.784423-4.687591-26.612397-10.524444-52.893036-22.830932-77.2659-1.739121-3.444336-3.993286-6.521759-6.121521-9.705872-6.985413-10.45111-17.330132-11.434814-28.377792-9.954467-5.331627.714416-6.941575 5.170471-8.006844 9.719665-2.671158 11.407166-2.907875 23.094727-3.86232 34.692017-2.235954 27.168579-16.10807 46.67514-39.36433 59.959289-12.384217 7.073914-25.905159 11.305176-39.575796 15.066468-.92404.254242-1.943074.163238-3.216754.254119-.873943-4.388031.929528-8.286163 1.603303-12.250152 1.364215-8.025971 3.215627-15.967743 4.723247-23.97113 1.32785-7.049103 5.129843-12.121277 11.477181-15.410187 6.076366-3.148529 12.399986-5.70694 18.744495-8.243714 4.793583-1.916626 9.360073-4.320953 13.941143-6.723266 12.28389-6.441681 13.638092-15.21756 12.660675-26.771149-.236137-2.791168-1.081558-5.549896-1.821884-8.276001-3.285713-12.098968-8.493996-16.500885-21.081501-17.465942-5.876099-.450531-11.569004-.705292-15.758186-5.885834-1.768643-2.187195-3.02892-4.167877-2.981537-7.072754.119568-7.33081.111339-14.666717-.023705-21.997314-.053448-2.901093.91201-5.070679 3.02071-7.029023 6.227001-5.783096 12.39156-11.635971 18.475006-17.569748 2.175976-2.122451 4.538876-2.98854 7.593239-2.9859 81.160553.070373 162.321167.061554 243.481766.096695 7.612732.003295 14.575714 6.988739 14.615326 14.521118.045563 8.665985-.277893 17.347564.149536 25.993164.299438 6.05661-.974701 11.178924-5.443115 15.353851-3.691773 3.44928-4.47995 7.694641-4.47519 12.647003.107026 111.493988.084168 222.988098.056366 334.482239-.000701 2.817139-.089233 5.676514-.568878 8.441223-.720489 4.153198-3.597961 6.434021-7.667785 6.620423-4.080445.187011-6.871033-2.025269-8.363526-5.872376-.86557-2.231262-.979156-4.531311-.984985-6.875976-.083252-33.497437-2.650665-66.851197-5.750183-100.177369-2.172425-23.358764-3.840485-46.770904-6.413971-70.084137-2.881897-26.106903-5.785523-52.217315-9.541046-78.227234-4.22992-29.29544-8.466797-58.575836-15.245697-87.422882-1.840454-7.831878-1.767731-7.852142-9.855057-7.852569-15.165863-.000794-30.331741-.011841-45.497589.009247-9.353073.013-10.973343 1.693451-10.973999 11.1669-.004761 68.996308-.011826 137.992615-.02533 206.988922-.000336 1.664978.078003 3.353638-.161011 4.990296-.571411 3.912536-3.053115 5.711731-6.907714 5.808777-3.698822.0932-5.946656-1.571228-6.723603-5.275879-1.516815-7.232727-.784454-14.60849-1.506408-21.910736-1.522049-15.395172-2.371354-30.856873-3.536774-46.749482z"/><path d="m997.969971 182.029526c-5.13562 13.177215-6.72284 26.763519-8.637451 40.244385-9.060853 63.798324-5.652283 128.017715-6.303284 192.099838-.030396 2.993713.021423 6.011719-.338196 8.973083-.53302 4.390503-3.308289 5.887207-7.495117 5.007965-3.032105-.63681-5.527466-2.198974-7.651001-4.445739-28.978027-30.660431-62.565979-54.842133-101.398438-71.463684-17.874084-7.650666-36.394226-13.067444-56.149536-12.077698-11.331787.567718-22.301147 3.684295-33.46521 5.461883-8.070312 1.284973-16.177673 2.163544-24.351562 1.494507-10.764649-.881103-18.950012-8.751709-20.418946-19.376465-2.290222-16.56549 3.311829-29.832336 16.988221-39.389587 3.358215-2.346771 3.098816-5.123261 2.88385-8.271698-1.594971-23.357605 2.367004-45.72049 12.117737-67.013367 2.844848-6.212387 6.189453-12.165863 9.875305-17.936493 3.665344-5.73854 2.427246-8.595016-4.299256-10.316421-3.303649-.845444-6.529785-1.03122-9.302002-3.971237-4.622863-4.902665-5.928955-10.175446-6.694824-16.844208-1.643432-14.310776 3.753113-23.798477 14.539856-32.75824 7.479065-6.212311 14.394776-9.095154 23.997559-8.835647 22.316406.603096 44.662903.389045 66.991394.082458 8.108215-.111336 12.259521 5.862839 17.818054 9.78183.329407.232269.491333.902405.492981 1.369598.031372 8.828949.045593 17.658097.010742 26.487-.005676 1.442474-1.102295 2.375793-2.019409 3.33873-5.745789 6.032501-11.513733 12.044067-17.238037 18.096832-1.562317 1.652084-3.259766 2.72493-5.667603 2.580215-16.244201-.97644-29.37207 5.858582-40.982727 16.452759-19.211364 17.529389-32.575317 38.595368-38.467712 64.089493-.892761 3.86261-1.040588 7.907135-1.403992 11.879303-.282532 3.088959 1.347046 4.262848 4.295227 3.777496 16.683716-2.74649 33.479614-2.806244 50.282471-1.813629 22.189392 1.310822 42.157715 9.165436 60.507202 21.39209 19.977661 13.311554 35.746399 30.843262 49.663941 50.159058 9.518066 13.20993 18.575439 26.740142 27.884399 41.775604-.18988-24.826477.464539-48.232758-1.070007-71.637726-1.910096-29.131439-6.279541-57.858948-13.324219-86.180008-3.0578-12.293045-6.917969-24.331757-11.964111-35.968765-.595948-1.374375-.960572-3.013932-1.948548-4.027374-7.969482-8.174195-6.203003-18.489213-7.244201-28.511414-1.482911-14.274582 3.302734-24.369171 13.922058-33.814621 7.10614-6.320549 13.481079-10.3097 23.145568-9.279678 7.250794.772781 14.65271.268531 21.981873.098274 3.113525-.072327 5.1474 1.23526 7.417725 3.227157 6.489318 5.69352 9.401916 12.372048 8.416137 21.133995-.666687 5.92511-.152404 11.985413-.129638 17.985123.023132 6.07222 1.112915 12.456162-5.267273 16.945023z"/><path d="m374.418091 292.214172c2.057648-2.20169 1.055237-4.316528.58667-6.382751-3.263581-14.39148-4.413574-28.892395-2.559265-43.595657 2.316436-18.367905 10.318756-34.262604 21.036254-49.007065 3.179291-4.373825 2.307251-6.720551-3.011352-7.924485-3.258972-.737701-6.567688-.937301-9.915009-1.025238-6.456085-.169616-10.270172-3.861663-10.416809-10.28981-.186187-8.159988-.002105-16.327865-.050872-24.491897-.014985-2.512802.932006-4.43396 2.702728-6.179932 5.931854-5.84906 11.834839-11.730041 17.627044-17.716713 2.021912-2.089813 4.261933-2.837448 7.115937-2.834885 56.819031.05098 113.638122.030014 170.457184.054566 6.397827.002762 12.158691 5.937294 12.229797 12.449791.038208 3.498627-.479126 7.077438.084228 10.482727 1.891053 11.429733-4.304382 18.581985-12.505554 24.77092-12.308532 9.288498-25.653564 14.852508-41.63446 13.990204-14.786438-.797852-29.686127.487579-44.470642-.328156-19.168152-1.057556-35.646973 5.339691-50.951508 15.891953-12.050629 8.308761-22.327881 18.451934-30.124878 30.916839-4.22641 6.756683-6.591858 14.091995-6.434082 22.220093.164948 8.49675.579895 16.963699 1.923279 25.353409 1.069397 6.678131 1.175629 6.523895 8.312927 6.251037 13.313538-.509033 26.639557-.709778 39.949707-1.285492 13.84549-.598846 27.607331-.245788 41.189484 2.735199 28.451477 6.244507 52.372559 20.863465 73.719543 40.157318 18.875306 17.059906 34.605164 36.913849 50.254944 56.829651 8.234436 10.479065 16.398804 21.013214 24.580261 31.533844 2.045655 2.630463 4.057007 5.285828 5.251465 8.454926 1.625428 4.31253.687195 9.916626-2.299194 11.346985-4.124451 1.975464-7.441528-.143128-10.257324-2.963043-7.651795-7.662995-15.040955-15.594391-22.828919-23.114136-23.078125-22.283325-48.358154-41.267456-78.837036-52.537873-16.707825-6.178222-33.978882-9.266326-51.632202-10.671905-25.078674-1.996857-49.824188.111023-74.420227 5.362671-7.257141 1.549499-14.88382 1.926605-22.335693 1.884064-13.611542-.077698-24.13144-11.043061-25.113648-24.875397-.949341-13.369019 6.498383-22.203491 15.652832-30.201264 2.122742-1.854492 4.551087-3.359253 7.12439-5.260498z"/><path d="m190.809204 236.251312c-4.978195.072815-9.488006-.112701-13.968048.171417-3.962738.251297-4.830627-1.40007-5.306625-5.155715-2.347855-18.524888-9.652283-34.188431-27.006516-43.463028-5.286239-2.825135-11.132324-3.381714-16.961433-3.430359-15.322449-.127884-30.646691-.028076-45.970192-.047058-7.539017-.009339-12.912285-5.483612-12.921303-13.109848-.008873-7.495179.042702-14.990815-.02758-22.485352-.021408-2.283463.478882-4.108856 2.237129-5.778427 6.037941-5.733444 11.970459-11.580246 17.851425-17.47535 1.896729-1.90129 3.972237-2.732124 6.664131-2.729904 58.295944.048004 116.591934.030297 174.887924.064102 6.118195.003548 11.912323 5.970513 11.9917 12.125115.032226 2.498016-.483673 5.116913.090667 7.476105 4.602967 18.906372-8.444885 29.168502-19.518493 40.436493-1.756195 1.787017-3.96286 1.468078-6.098755 1.469848-18.821274.015549-37.642578-.00119-56.463837.019058-6.169784.006638-6.842254.712738-6.852661 6.914261-.022095 13.15802.009705 26.316391-.095154 39.473709-.015625 1.96016.962464 4.534699-2.532379 5.524933z" fill="#d2691e"/><path d="m695.466675 174.40683c-2.52655 8.673981-8.166016 10.382965-16.379456 10.243194-7.27539-.123794-11.396301-2.062347-14.583557-8.75328-4.641968-9.744477-10.402527-18.964325-15.852051-28.311112-1.689514-2.897751-1.910034-5.327499-.083801-8.294723 3.215454-5.224259 4.397705-12.518746 9.327942-15.62838 4.957214-3.126625 12.004883-.868111 18.13031-.963989 10.155151-.158943 20.316528.079689 30.471436-.087425 3.641296-.059922 4.754638 1.187301 4.979431 4.861755.654846 10.706726-.573792 20.711868-6.847962 29.908874-3.542175 5.192261-6.024841 11.1073-9.162292 17.025086z"/></svg>