<svg enable-background="new 0 0 1024 720" viewBox="0 0 1024 720" xmlns="http://www.w3.org/2000/svg"><path d="m171.556717 388.356964c17.502731 3.681641 34.568481 7.413147 51.711975 10.74466 18.455566 3.586486 36.996567 3.974639 55.566879.543396 20.47757-3.783631 33.238648-18.821015 33.936859-39.691071.671143-20.060944-3.73468-39.391144-8.481384-58.587952-8.745178-35.36792-18.090393-70.587722-27.231018-105.857467-1.84668-7.125565-1.939606-7.10933-9.466217-7.112427-16.498138-.006806-32.996323-.030212-49.494369.006393-6.339768.014054-6.811905.524124-6.812867 6.82988-.008087 52.827347.010331 105.654709-.040405 158.48201-.003067 3.180847 1.1409 6.983459-2.725082 8.924255-3.678528 1.84668-6.773865-.218475-9.765747-2.055359-21.564408-13.239654-44.236512-24.009613-69.039963-29.534393-20.378525-4.539154-41.087738-6.088135-61.971649-4.902344-4.226918.240021-8.155495 1.401062-12.014042 3.074799-7.699692 3.339966-15.491585 5.083618-24.173907 4.397919-15.200588-1.200562-24.087822-17.314423-21.480833-30.030426 2.520832-12.295716 8.499892-22.722687 18.779183-30.285187 1.942793-1.429291 2.877363-2.914612 2.934685-5.332092.586898-24.752365 9.110282-46.446579 25.129318-65.302445 5.275684-6.209961 4.742252-7.893326-2.913697-10.863373-4.342391-1.68457-8.800342-3.068756-13.178958-4.663162-4.245469-1.545898-6.246884-4.43689-6.095669-9.160507.245148-7.657868.15551-15.331207.012531-22.994385-.056938-3.051605.822563-5.399475 3.040653-7.542892 5.870919-5.673218 11.631481-11.463791 17.325253-17.315399 1.890743-1.943146 3.917259-2.665741 6.638615-2.657685 37.161914.10997 74.324138.138771 111.486293.136551 51.937577-.003097 103.875153-.05101 155.812744-.073723 5.842194-.002556 13.095826 7.230034 13.122742 13.175789.048248 10.665207-.065246 21.331741.061981 31.995636.03833 3.212189-.671173 5.930573-3.117004 8.058487-5.559753 4.837067-6.944061 10.836197-6.901611 18.17543.29895 51.659073.181396 103.320679.148925 154.981476-.013122 20.902924-8.880981 37.967194-23.442291 52.299408-21.094574 20.762757-46.735504 25.844544-75.203323 21.734924-33.219849-4.795684-65.134201-14.96231-97.524643-23.1427-25.189278-6.361694-50.233978-7.584472-75.458744-.751678-4.244461 1.149719-4.247376 1.15094-7.228264 3.864288.202495.870423.966068.871002 1.58371.88562 12.263874.290772 22.99049 5.03357 33.077846 11.513153 19.623886 12.605408 38.16481 26.850251 58.218399 38.793854 14.161148 8.434113 28.347367 16.915833 44.34462 21.628082 28.93869 8.524384 56.984528 4.90622 84.360413-6.472473 36.357818-15.111999 64.75415-40.331695 89.208557-70.564697 7.86615-9.724884 16.530761-18.743927 26.094909-26.848816 2.931153-2.483978 5.965912-4.940491 9.765534-5.879364 2.20459-.544739 4.837829-1.042236 6.497619 1.160858 1.684266 2.235687 1.268891 4.78656-.203582 7.024689-1.829193 2.780334-3.753907 5.507507-5.786255 8.142822-12.215454 15.839874-26.342224 30.11142-38.488556 45.962341-14.59079 19.040925-26.796631 39.77475-40.150238 59.698456-13.820038 20.619599-27.359009 41.427643-41.011933 62.159149-.722229 1.09668-1.361267 2.248169-2.497924 4.136475 7.078216.470947 13.633453.84137 19.981201 2.562378 29.390564 7.968323 48.793609 26.138489 55.524017 56.139465 6.908112 30.793213-4.113006 55.567017-27.792511 75.292054-17.826324 14.849365-38.751465 22.249939-61.5354 25.135131-8.777283 1.111451-17.494431 1.989991-26.290375.32544-14.531357-2.749817-25.88678-11.086914-36.289886-20.889954-18.164078-17.116333-32.506928-37.464782-47.707856-57.080383-27.209221-35.111328-56.070694-68.671692-90.930725-96.578003-11.722538-9.384216-24.22689-17.663452-36.770193-25.887024-5.594763-3.667969-7.348211-7.655334-5.405893-11.949005 1.939955-4.288452 7.1586-6.175201 12.963192-4.178894 16.002193 5.503357 30.779957 13.568695 45.001697 22.586822 38.827248 24.620667 71.656021 56.386658 104.496552 88.140564 18.576431 17.961792 37.780685 35.148865 59.295578 49.694886 16.230804 10.973571 33.851868 13.006225 52.535644 10.628723 7.916809-1.007447 15.868927-1.975769 23.174561-5.61792 15.417541-7.685974 17.431854-26.080383 3.83194-36.881043-7.917572-6.287902-17.469391-8.819702-27.240113-10.367981-11.539276-1.828552-23.199493-2.083435-34.86322-2.029419-5.184799.023987-10.303024-.552001-15.354858-1.695251-8.531906-1.930847-12.089402-6.201904-12.415573-14.974182-.482819-12.985779 6.236724-22.098389 16.161941-29.285339 2.911514-2.108277 5.197159-4.500428 7.0448-7.562989 11.10144-18.401062 22.313202-36.735595 33.471527-55.102386 1.022644-1.683228 1.929199-3.437012 3.594452-6.420899-6.410431 4.404297-11.636414 8.08548-16.952911 11.631012-17.558716 11.709778-35.985566 21.437744-56.747941 26.420716-31.536666 7.568908-58.12741-.74231-81.800354-22.563843-17.303947-15.950592-33.577034-32.842529-50.033752-49.601868-11.546501-11.758789-22.491989-24.162292-35.584808-34.330719-6.757336-5.248047-13.968987-9.74942-22.11221-12.425506-4.07179-1.338135-4.09375-3.207734-2.499679-6.614899 4.474777-9.564514 11.605472-16.705261 20.364075-22.131531 18.97327-11.754669 39.725276-16.244934 62.015346-15.282623 20.938065.903931 41.167603 5.580444 61.911667 9.985687m19.771789-62.782135c2.799347-.368042 1.462494-2.520935 1.467591-3.837768.02771-7.164246-1.067764-14.236176-1.932938-21.333405-4.499023-36.906982-14.623398-72.258911-28.994278-106.481323-1.663223-3.96077-4.036148-5.65712-8.296219-5.568344-8.821624.183792-17.660598-.198838-26.471061.166855-6.612542.274444-13.311127.523162-19.667015 2.868957-24.176285 8.922867-40.099938 26.062424-49.403954 49.728027-2.854248 7.260025-4.720634 14.754395-4.529873 22.856354 1.09111.072296 1.73016.201813 2.351483.14325 25.385993-2.394043 49.254264 2.585724 71.950927 14.161224 23.703163 12.088867 44.195122 28.364685 63.525337 47.296173z"/><path d="m285.994598 53.986397c-1.424621 1.594036-2.849243 3.188068-4.913421 4.960533-1.104676.899261-1.569733 1.62009-2.034821 2.340919-3.812561 4.141533-7.625091 8.283074-11.865661 12.350655-.680298.076386-.932587.22673-1.184876.377075-11.326477.070046-22.652878.166977-33.979477.202515-11.1427.03495-22.285599.007622-33.973236.007622v49.378616c-7.227951 0-13.918457 0-20.838501 0-.814682-13.25808-5.28035-25.039108-13.732666-35.225243-7.802215-9.402671-17.649719-14.315223-30.049637-14.196312-16.829918.1614-33.662742.019783-51.032486-.249847-.813484-.181915-1.088798-.105865-1.36412-.029808-5.875046-3.325661-9.246231-7.733246-8.422425-15.116627.676117-6.059612-.143531-12.273945.273446-18.380531.170997-2.504318 1.258361-5.463558 2.948349-7.25309 5.91362-6.261944 12.271644-12.104195 19.054634-17.910563 2.552681.377095 4.511467.716342 6.47052.717821 60.184936.04542 120.369888.057727 180.55484.075154 1.24649 1.166061 2.492981 2.332127 3.913421 4.238262.174714 11.730995.175415 22.72192.176117 33.712849z" fill="#c56f33"/><path d="m511 13.701194c26.162842-.001935 51.825745-.011913 77.488586-.000094 7.680176.003537 13.398316 5.660898 13.463807 13.365728.059509 6.998373.006164 13.997679.010498 20.996565.001464 2.390136-.381104 4.516822-2.309327 6.317112-6.088745 5.684833-12.122375 11.433857-18.022216 17.313617-2.792847 2.78328-5.864441 3.766976-9.813294 3.749367-30.494812-.13591-60.99118.037994-91.485657-.134643-8.964172-.050744-17.154541 2.111061-24.720031 6.690979-19.594422 11.861869-34.621643 28.012321-44.689545 48.607246-2.899872 5.931991-5.109528 12.198547-4.48175 19.626526 10.520782-.636719 20.618042-1.094712 30.689422-1.882965 52.985748-4.147064 98.739197 10.671081 134.555603 51.35495 22.566773 25.633651 34.401428 56.201584 40.659424 89.329208 3.756348 19.884491 4.71759 39.964722 4.750732 60.110535.09552 58.157867.048462 116.315979.070618 174.473999.001221 3.179321.101746 6.30603-2.033874 9.045532-3.807801 4.884338-8.83075 4.791382-12.311646-.295105-1.484741-2.169617-1.819946-4.61908-1.906799-7.133972-.752808-21.804077-1.25763-43.61969-2.292664-65.410217-1.295471-27.271454-1.320007-54.618134-4.055542-81.804291-2.872131-28.543732-7.526855-56.79065-18.189026-83.627594-10.611084-26.708283-25.621948-50.135086-51.236572-65.097214-14.464752-8.449219-30.275726-12.83078-46.755554-14.993011-24.673187-3.237244-49.182587-.839447-73.650055 2.411315-7.307892.970948-14.656982 1.014389-21.948456.450547-10.49527-.811585-18.1781-9.81044-18.977905-22.300141-.999878-15.614669 4.489654-28.412704 17.804687-37.249405 2.236939-1.484573 3.061829-3.145782 3.085358-5.727279.223389-24.525666 8.459168-46.598351 20.884094-67.342606 3.289429-5.491951 2.650299-6.899353-3.573547-8.362358-3.743103-.87986-7.679688-.371307-11.10669-3.539467-4.66159-4.309547-7.263488-8.813457-6.30603-15.236976.340241-2.282372.413056-4.723927-.004028-6.979676-2.053559-11.107094 3.358215-18.241493 10.900299-25.839874 8.325928-8.388042 16.830444-11.488823 28.528839-11.158955 28.805756.812256 57.649658.270325 86.978241.272617z"/><path d="m795.084839 117.058167c-9.914307 14.932601-16.828125 30.595916-18.371643 48.350555-.526734 6.058868.06958 7.037369 6.155884 6.307907 17.070251-2.046036 34.159973-2.844101 51.306152-1.143829 36.329834 3.602569 64.668213 21.975982 88.778137 48.121185 16.685852 18.094391 29.925781 38.705765 43.206482 59.28511 1.071961 1.661072 2.181152 3.298157 3.83374 5.792786 1.031372-14.458374.77472-27.987335.470215-41.491882-.281311-12.478653-.69342-24.988754-1.874878-37.406327-3.789917-39.83461-9.525574-79.291091-25.54364-116.459487-.98529-2.286278-1.873108-4.83725-3.532959-6.568169-4.903747-5.113693-4.949524-11.256233-4.792053-17.673119.192078-7.826828.115417-15.663002.004516-23.493004-.03833-2.70409.82428-4.762027 2.752564-6.643093 5.963196-5.81718 11.857178-11.707203 17.689819-17.655441 1.884766-1.922053 3.960388-2.74612 6.659363-2.722237 10.830017.09584 21.66217.110227 32.491821-.004334 2.917298-.03086 4.811768 1.203997 6.96399 3.066342 6.751098 5.841818 8.886901 12.928351 8.192566 21.707432-.667908 8.444733-.161805 16.984745-.109314 25.482506.014831 2.407719-.180664 4.440464-2.49646 6.055782-2.886658 2.013588-3.711426 5.438896-4.547242 8.671189-4.633667 17.919937-7.115295 36.19474-9.059265 54.568672-6.221252 58.803665-3.272705 117.808029-3.988647 176.732467-.049011 4.033509 1.205749 8.986695-4.053223 10.699463-4.861389 1.583344-8.709167-1.256378-11.854736-4.67102-20.147156-21.870667-43.588989-39.597168-68.924133-54.94455-20.506165-12.422119-42.177979-22.106659-65.771546-26.909561-11.987366-2.440231-24.073059-2.555878-36.193237-.212173-13.213623 2.55516-26.369568 5.462494-39.96405 5.639404-17.258973.224594-28.473145-11.892563-26.580384-29.150757 1.40802-12.83876 7.164185-23.123215 17.964356-30.287063 2.543396-1.687073 3.03247-3.596528 2.820617-6.275498-2.484619-31.421448 4.823792-60.393623 21.722535-86.995949 4.001525-6.299148 2.734069-9.064003-4.594788-10.902122-10.677795-2.678047-15.174561-8.51014-15.176575-19.686039-.000976-5.332123.13385-10.668831-.04956-15.994621-.106446-3.091572.857727-5.37109 3.191894-7.422299 6.130982-5.387812 12.15326-10.902571 18.115906-16.476868 1.947083-1.820296 3.990845-2.687557 6.691467-2.681081 26.660462.063927 53.321289-.01347 79.981751.063783 7.926086.022967 15.812988 9.162783 16.8078 16.885416 1.97113 15.301909-2.372681 27.194346-14.642517 37.032732-5.314148 4.261124-9.402893 8.067856-16.986939 8.031914-13.844177-.06562-25.019042 7.107987-34.95996 16.223618-8.130921 7.455818-15.663086 15.436477-21.733826 25.15226z"/><path d="m658.30603 47.625366c-7.663269-8.94725-7.158752-17.213537-.827881-26.702055 3.464112-5.191854 6.35846-7.688519 12.736451-7.447761 13.64038.514899 27.315002.269438 40.972412.091986 3.863952-.050205 4.974182 1.185544 5.270385 5.10036.818909 10.824028-1.261169 20.600445-7.183959 29.871689-4.646241 7.273113-8.315308 15.179871-12.264405 22.884052-1.459778 2.847832-3.482055 3.608666-6.63739 4.08297-11.788513 1.772041-20.096558-1.463638-24.228027-13.560215-1.694397-4.96109-5.045166-9.356457-7.837586-14.321026z"/></svg>