<svg version="1.1" id="Layer_1" xmlns="http://www.w3.org/2000/svg" xmlns:xlink="http://www.w3.org/1999/xlink" x="0px" y="0px"
	 width="100%" viewBox="0 0 2836 918" enable-background="new 0 0 2836 918" xml:space="preserve">
<path fill="#FFFFFF" opacity="1.000000" stroke="none" 
	d="
M1853.000000,919.000000 
	C1235.333374,919.000000 618.166687,919.000000 1.000000,919.000000 
	C1.000000,613.000000 1.000000,307.000000 1.000000,1.000000 
	C946.333313,1.000000 1891.666626,1.000000 2837.000000,1.000000 
	C2837.000000,307.000000 2837.000000,613.000000 2837.000000,919.000000 
	C2509.166748,919.000000 2181.333252,919.000000 1853.000000,919.000000 
M248.200119,514.268738 
	C252.075760,515.744873 255.949020,517.227356 259.827515,518.695984 
	C271.443634,523.094543 274.402863,521.029419 274.403656,508.487793 
	C274.407440,449.657379 274.403748,390.826935 274.402710,331.996521 
	C274.402679,330.043671 274.402710,328.090851 274.402710,325.838165 
	C276.450836,325.838165 277.937408,325.838165 279.424011,325.838165 
	C301.089600,325.838165 322.755920,325.925171 344.420105,325.750916 
	C347.953064,325.722504 349.976196,326.601715 350.937927,330.102661 
	C356.563751,350.582458 363.646057,370.772766 367.675751,391.557312 
	C375.905212,434.003754 382.579498,476.753571 389.724182,519.406982 
	C391.245972,528.491943 392.042145,537.698486 393.211243,547.161804 
	C388.706482,547.161804 384.875031,546.942505 381.088074,547.257996 
	C379.296906,547.407104 377.157654,548.139832 375.917450,549.361023 
	C368.438995,556.725159 361.113617,564.249084 353.905579,571.878784 
	C352.812988,573.035339 352.082092,575.016541 352.062561,576.626953 
	C351.912903,588.957886 351.939880,601.291748 352.040710,613.623657 
	C352.051483,614.946472 352.486572,616.738342 353.401550,617.506470 
	C360.604095,623.553162 364.184662,631.751709 367.127258,640.277649 
	C376.397827,667.138184 381.267548,694.987671 384.937714,723.037842 
	C387.939880,745.982788 390.220978,769.022217 392.812347,792.020752 
	C393.878235,801.480530 394.919647,810.943115 396.108093,821.626160 
	C394.184540,819.448669 393.138214,818.207520 392.032806,817.021362 
	C377.152008,801.054382 362.506073,784.858765 347.299652,769.207886 
	C334.981812,756.529968 321.349213,745.339417 306.321930,735.860901 
	C288.738831,724.770508 269.859650,718.047302 249.872543,717.918579 
	C255.996124,713.376892 263.166809,709.291870 268.776733,703.653809 
	C282.538330,689.823364 290.816345,673.521240 289.142242,653.118286 
	C288.017334,639.408752 288.444580,625.544861 283.809082,611.877625 
	C286.004883,610.209656 288.221771,608.166382 290.764343,606.680298 
	C294.382660,604.565491 295.317932,601.707275 295.169647,597.631226 
	C294.842651,588.643555 294.451843,579.581116 295.245087,570.651978 
	C296.009583,562.045776 293.535767,555.700745 286.764069,550.402466 
	C284.115875,548.330505 281.858124,547.076782 278.423157,547.088867 
	C244.258591,547.209229 210.068329,547.928589 175.940018,546.809937 
	C160.855682,546.315552 149.054596,550.740356 137.748093,559.917908 
	C109.373894,582.949463 88.612419,610.923645 80.648331,647.075073 
	C74.705414,674.051880 76.599457,701.099609 82.795769,727.821899 
	C86.716606,744.731018 92.548752,760.979370 102.817764,775.272949 
	C108.075882,782.591736 114.573669,788.452576 123.207481,791.462830 
	C129.237122,793.565063 132.181885,791.977051 132.762711,786.115906 
	C134.919479,764.351929 130.924942,743.041870 127.947662,721.559143 
	C126.037567,721.370667 124.383606,721.248230 122.740791,721.038391 
	C116.125443,720.193481 109.551987,718.396729 105.680397,712.785889 
	C95.639297,698.234131 91.758736,682.104980 97.692451,665.018860 
	C101.669106,653.568115 110.390160,645.190002 119.773842,637.837952 
	C135.877090,625.220947 153.512283,616.764343 174.750244,617.914917 
	C184.221985,618.428040 193.745193,617.945190 203.243774,618.040222 
	C205.711395,618.064880 208.289902,618.186768 210.620926,618.903320 
	C228.246918,624.321777 240.601990,636.224915 249.897964,651.621765 
	C260.446716,669.093567 258.917267,685.964111 245.437790,701.164551 
	C238.125015,709.411133 229.575531,716.625061 218.336288,717.670654 
	C201.393295,719.246826 188.759109,726.732849 180.037460,741.157288 
	C175.497147,748.666382 172.528000,756.729553 172.031601,765.532776 
	C171.101913,782.020081 182.582809,794.466431 199.046356,793.633728 
	C208.405716,793.160461 217.612885,789.688721 226.972626,789.209778 
	C260.081635,787.515686 291.894592,793.484985 322.055481,807.471558 
	C349.538483,820.216370 375.992889,834.781128 401.146393,851.742249 
	C404.113647,853.743042 409.024170,853.657410 412.826263,853.106445 
	C413.873016,852.954773 414.430420,847.647339 414.737335,844.656860 
	C415.058929,841.523376 414.788513,838.330994 414.812500,835.164673 
	C415.242615,778.374878 412.454285,721.462097 420.149323,664.932922 
	C422.592407,646.985596 422.360046,628.329834 431.548950,611.761292 
	C431.983795,610.977173 431.780975,609.808655 431.781738,608.819092 
	C431.793579,593.319824 431.807648,577.820557 431.756989,562.321472 
	C431.752869,561.064880 431.723022,559.275085 430.955078,558.640137 
	C425.653625,554.256042 420.152832,550.112976 413.998322,545.335266 
	C413.998322,544.791016 413.998322,542.962830 413.998322,541.134583 
	C413.998322,473.471252 414.177551,405.806885 413.783386,338.145844 
	C413.731079,329.162689 415.567108,322.146759 422.235382,316.133820 
	C423.893250,314.638885 424.863068,311.590088 424.909882,309.230896 
	C425.164276,296.403259 425.030731,283.567932 425.030670,270.735229 
	C425.030640,262.386047 417.309479,254.830688 408.772675,254.830643 
	C312.610748,254.830170 216.447739,255.047089 120.288361,254.553574 
	C108.387497,254.492493 99.246674,256.768188 91.835983,266.360809 
	C87.499763,271.973755 79.943604,275.789917 77.395096,281.899078 
	C74.840767,288.022186 76.664879,295.991058 76.651611,303.151093 
	C76.621681,319.300446 76.641136,319.304016 92.483543,324.046997 
	C96.166626,325.149628 99.859558,326.219330 104.634964,327.623932 
	C85.660355,341.487030 81.132141,361.551971 77.606575,381.523438 
	C75.044426,396.037323 75.034828,410.995758 73.685509,425.737518 
	C73.519600,427.550110 72.581474,430.013397 71.194069,430.874023 
	C63.034824,435.935425 56.835007,442.824860 52.239307,451.043274 
	C47.191654,460.069916 45.353283,469.686707 48.946198,479.863281 
	C54.856766,496.604279 64.860352,503.431183 82.309448,501.816956 
	C87.209747,501.363617 91.969337,499.488556 96.820442,498.384094 
	C107.797409,495.884979 118.740799,491.635376 129.787109,491.330322 
	C170.553940,490.204498 209.802185,498.347168 248.200119,514.268738 
M792.160522,547.330017 
	C794.221375,572.395813 796.743652,597.434143 798.235107,622.533752 
	C800.487732,660.439880 802.757935,698.371155 803.656128,736.324097 
	C804.578491,775.297974 803.842102,814.310669 803.879883,853.306335 
	C803.887146,860.816833 807.434753,864.699158 814.032593,864.768860 
	C820.585693,864.838135 824.143005,860.973572 824.408203,853.454895 
	C824.466919,851.790405 824.429077,850.122314 824.429077,848.455872 
	C824.429688,677.474792 824.471436,506.493622 824.280396,335.512726 
	C824.272583,328.506866 825.480896,322.819763 831.004944,318.376465 
	C834.823730,315.304657 835.792603,311.321716 835.668152,306.473724 
	C835.360352,294.482941 835.567505,282.478973 835.567078,270.480286 
	C835.566772,262.750916 827.652466,254.832291 819.906921,254.831924 
	C759.080322,254.829056 698.253723,254.830338 637.427124,254.830338 
	C594.431885,254.830338 551.436584,254.864502 508.441528,254.762222 
	C505.180176,254.754471 502.897095,255.670013 500.645386,258.039551 
	C493.989105,265.044037 486.940186,271.678131 480.359528,278.749908 
	C478.760742,280.468079 477.645447,283.284332 477.556091,285.642975 
	C477.228241,294.296265 477.425507,302.969452 477.426361,311.635162 
	C477.427032,318.577820 484.388489,325.548828 491.368500,326.066040 
	C495.990417,326.408539 500.671051,326.977478 505.136139,328.159790 
	C510.695770,329.631897 510.934814,332.234283 507.936890,337.023041 
	C502.238373,346.125671 496.089447,355.162415 492.015076,365.007660 
	C487.539612,375.821991 484.050964,387.333313 482.194427,398.872742 
	C479.638458,414.759369 479.077545,430.963287 477.485291,447.013763 
	C477.301300,448.868347 476.490540,451.470703 475.122253,452.264557 
	C467.076111,456.932831 461.239380,463.685913 456.531677,471.416382 
	C451.518890,479.647797 449.320343,488.621307 452.091858,498.186035 
	C455.896973,511.317688 464.540405,523.999634 482.941864,521.832886 
	C491.455658,520.830444 500.015533,519.143555 508.198792,516.615601 
	C531.003601,509.570679 553.014648,511.836884 574.235901,521.780396 
	C603.844055,535.653748 629.092712,555.582947 651.407532,579.334473 
	C659.961914,588.439575 668.299561,597.756165 677.096008,606.619080 
	C678.723877,608.259277 682.203796,608.983948 684.581787,608.600159 
	C685.939392,608.381042 687.086853,605.166748 687.784302,603.115784 
	C688.293884,601.617065 687.930481,599.816345 687.930542,598.150269 
	C687.932983,509.160095 687.932678,420.169952 687.932739,331.179779 
	C687.932739,329.425598 687.932739,327.671417 687.932739,326.117004 
	C712.256836,326.117004 735.875793,326.117004 759.724365,326.117004 
	C761.848511,335.727417 764.349243,345.051788 765.924622,354.529907 
	C771.379944,387.351227 777.098572,420.146118 781.599487,453.103668 
	C785.833374,484.105682 788.653259,515.300781 792.160522,547.330017 
M2075.044189,605.500000 
	C2075.044189,629.998230 2075.042725,654.496460 2075.047119,678.994690 
	C2075.047607,680.660706 2074.978271,682.337585 2075.136475,683.990784 
	C2075.608398,688.936096 2080.281006,693.191528 2085.257324,693.313049 
	C2089.786377,693.423645 2094.864258,689.352051 2095.578125,684.797791 
	C2095.910400,682.675537 2095.847656,680.479492 2095.839111,678.317444 
	C2095.562500,609.313293 2096.036133,540.335388 2104.036377,471.664612 
	C2107.563232,441.391602 2112.443115,411.355438 2122.049805,382.313477 
	C2127.443848,366.006897 2133.673584,350.050262 2145.856689,337.310333 
	C2153.085693,329.750946 2161.725098,325.609222 2172.459229,325.776520 
	C2188.121094,326.020599 2203.791016,325.740448 2219.455078,325.905029 
	C2223.744873,325.950104 2228.140869,326.326080 2232.284424,327.364014 
	C2238.705322,328.972382 2240.295166,335.018921 2236.770508,340.509644 
	C2230.958984,349.562622 2224.508789,358.432220 2220.261230,368.218292 
	C2209.182617,393.740814 2205.234375,420.862610 2205.123047,448.562805 
	C2205.110840,451.602417 2204.118408,453.083099 2201.567139,454.751862 
	C2186.787598,464.418671 2179.046631,478.045135 2180.174805,495.941284 
	C2181.357666,514.697876 2192.789307,524.640564 2211.514648,523.116455 
	C2217.422852,522.635620 2223.391846,521.340149 2229.041748,519.515564 
	C2255.023438,511.124847 2280.497070,512.247498 2305.486328,523.083252 
	C2326.456299,532.176086 2345.162598,544.950256 2361.686768,560.557495 
	C2376.569336,574.614014 2390.457520,589.725037 2404.740234,604.413635 
	C2407.442871,607.192932 2410.089111,610.626892 2414.411133,608.777283 
	C2418.581787,606.992676 2417.697510,602.639587 2417.708984,599.079102 
	C2417.773926,579.247070 2417.740967,559.414734 2417.740967,539.582458 
	C2417.741211,470.919556 2417.802734,402.256470 2417.624268,333.594025 
	C2417.609863,328.054230 2418.462158,323.556793 2423.014404,320.092651 
	C2428.502197,315.916840 2429.963867,310.383789 2429.600342,303.520569 
	C2429.019287,292.551941 2429.444580,281.529999 2429.444580,270.530609 
	C2429.444580,262.445099 2421.745361,254.833237 2413.517334,254.832718 
	C2330.021973,254.827408 2246.526367,254.821091 2163.031006,254.856873 
	C2159.042725,254.858582 2155.012207,254.952759 2151.073730,255.513580 
	C2132.906738,258.100647 2120.369141,269.222565 2110.298096,283.487793 
	C2087.358643,315.980896 2075.962891,352.755859 2075.354980,392.016388 
	C2074.258301,462.828888 2075.044434,533.670532 2075.044189,605.500000 
M1925.975342,780.500000 
	C1925.877686,719.854858 1926.795532,659.157104 1919.887329,598.763428 
	C1916.157593,566.156860 1909.638550,534.116760 1897.353149,503.451874 
	C1880.451172,461.263367 1854.790161,426.513763 1814.353149,403.960938 
	C1812.851807,403.123627 1811.666626,400.324524 1811.651611,398.429199 
	C1811.468140,375.266327 1811.529419,352.101501 1811.537964,328.937164 
	C1811.538330,328.004883 1811.643433,327.072693 1811.690918,326.283142 
	C1812.413086,326.062012 1812.719727,325.886444 1813.026611,325.885895 
	C1827.024902,325.860504 1841.089722,324.998535 1855.002197,326.085083 
	C1868.158691,327.112610 1877.292114,322.807190 1886.714355,313.436188 
	C1896.562622,303.641602 1901.343628,294.179016 1900.510864,280.137573 
	C1899.962769,270.893768 1898.201538,264.168793 1890.429688,258.866669 
	C1886.873657,256.440613 1883.813843,254.711884 1879.296631,254.724594 
	C1822.302734,254.884872 1765.304810,255.161652 1708.317139,254.550278 
	C1696.902100,254.427811 1688.276001,256.774506 1681.274292,265.969788 
	C1677.272583,271.225250 1670.196533,274.770782 1667.832764,280.467163 
	C1665.404663,286.318542 1667.601685,293.924896 1666.740234,300.630310 
	C1665.540283,309.971466 1668.634766,316.845917 1675.906494,322.565186 
	C1678.520142,324.620758 1680.728638,325.961426 1684.188110,325.922638 
	C1700.851074,325.735748 1717.518799,325.979706 1734.181396,325.777283 
	C1742.154541,325.680420 1748.645020,328.543030 1754.546387,333.674713 
	C1766.785767,344.317841 1775.208130,357.536713 1780.607178,372.627258 
	C1782.929077,379.116791 1783.948975,386.072144 1785.528809,392.684021 
	C1772.455200,390.152649 1760.653809,387.070557 1748.656860,385.695221 
	C1713.703979,381.688263 1683.269653,391.902710 1659.291016,417.902557 
	C1636.668213,442.432037 1629.902954,472.474396 1632.833374,504.981659 
	C1635.371948,533.143677 1648.795654,554.985413 1672.706055,570.157410 
	C1691.331665,581.976013 1712.096069,585.568115 1733.765869,585.439514 
	C1747.027222,585.360779 1759.436401,582.365234 1770.702271,575.142578 
	C1794.362061,559.974121 1806.483154,537.412903 1811.957275,510.646240 
	C1812.958008,505.753601 1813.402710,500.747314 1814.218140,494.986847 
	C1818.989868,499.496643 1823.222412,503.224670 1827.148315,507.251709 
	C1850.958496,531.675354 1866.138428,561.331055 1877.961670,592.808838 
	C1896.645386,642.551208 1904.766235,694.345703 1905.750732,747.263733 
	C1906.392334,781.748840 1905.945190,816.254150 1906.018066,850.750305 
	C1906.022949,853.073547 1906.076660,855.436951 1906.496582,857.709778 
	C1907.160767,861.304504 1909.369019,863.456421 1913.082886,864.271057 
	C1921.072632,866.023621 1925.929932,861.762878 1925.954346,852.492798 
	C1926.016724,828.828674 1925.975220,805.164307 1925.975342,780.500000 
M1206.891602,569.590942 
	C1220.613403,582.187195 1234.322266,594.797485 1248.074341,607.360596 
	C1249.658203,608.807495 1251.318970,610.336914 1253.223389,611.237488 
	C1261.055298,614.941284 1265.831421,612.343018 1265.159424,604.144714 
	C1264.983032,601.993042 1265.115723,599.814453 1265.135010,597.648438 
	C1265.744385,529.201355 1262.556396,460.641083 1270.166016,392.397156 
	C1272.447632,371.936554 1276.422607,351.649536 1280.123169,331.374512 
	C1280.918823,327.015350 1283.150146,322.389404 1286.098389,319.135101 
	C1288.115112,316.909180 1288.951904,315.220367 1288.931641,312.499237 
	C1288.859375,302.835358 1288.274658,293.118164 1289.075195,283.520508 
	C1289.924805,273.335480 1287.455444,265.154877 1279.671997,258.299713 
	C1277.130493,256.061157 1275.047974,254.749405 1271.573975,254.753998 
	C1195.591675,254.854492 1119.607178,255.104248 1043.628662,254.563034 
	C1030.870605,254.472168 1020.449097,256.329742 1012.139221,266.728455 
	C1007.922485,272.005127 1000.448730,275.363739 997.924438,281.115479 
	C995.401245,286.864624 997.622437,294.553528 997.023376,301.326630 
	C996.321716,309.259644 997.892639,315.844086 1004.155640,321.333313 
	C1007.081909,323.897980 1009.310181,326.783295 1013.767273,326.177032 
	C1015.143250,325.989838 1016.717529,326.639587 1018.093262,327.180206 
	C1023.604614,329.345978 1024.560669,332.863251 1021.614441,338.029114 
	C1016.930908,346.241486 1011.926270,354.341309 1008.073547,362.943756 
	C996.130188,389.610596 992.128601,417.624603 995.339905,446.616699 
	C977.382751,456.544037 969.327637,475.631866 970.883240,491.342316 
	C972.360596,506.262451 981.145996,517.012878 996.016174,517.244995 
	C1008.699585,517.442932 1021.707764,516.025635 1034.078003,513.176636 
	C1061.332642,506.899597 1087.680420,508.084473 1114.043091,517.526306 
	C1147.750244,529.598572 1178.006958,547.580383 1206.891602,569.590942 
M1378.802124,598.741760 
	C1376.336182,596.050720 1373.522949,593.599243 1371.469971,590.623413 
	C1365.515381,581.991760 1366.831421,574.123230 1375.399536,568.247986 
	C1379.172852,565.660583 1383.415283,563.425720 1387.768921,562.076660 
	C1402.429199,557.534119 1417.413086,558.701477 1432.344116,560.563171 
	C1444.810059,562.117432 1456.884155,564.930237 1467.423096,572.318176 
	C1473.602173,576.649780 1477.428467,582.272095 1478.236084,589.974609 
	C1478.545410,592.923950 1477.451050,594.334961 1475.289185,596.058044 
	C1466.055664,603.417664 1456.388672,610.396973 1448.066162,618.703613 
	C1427.470581,639.259766 1410.826660,662.663269 1402.393433,690.895996 
	C1397.905762,705.919495 1396.273315,721.651794 1402.419922,736.531982 
	C1413.908081,764.344055 1435.160034,782.058777 1463.426392,791.386475 
	C1472.103516,794.249878 1478.299438,790.611633 1482.760742,781.719055 
	C1491.199097,764.898987 1494.758057,746.754761 1497.583740,728.431946 
	C1496.973999,728.201294 1496.677002,728.016907 1496.363159,727.981445 
	C1493.549683,727.663513 1490.700928,727.549622 1487.923218,727.043030 
	C1471.542236,724.055542 1456.600586,718.169556 1445.284912,705.268799 
	C1439.101074,698.218689 1437.244995,689.893494 1439.645508,681.028076 
	C1444.573364,662.830139 1457.490479,651.596802 1474.286133,645.128662 
	C1497.208984,636.300842 1529.266479,645.084961 1546.118286,665.064758 
	C1571.636353,695.319397 1576.121094,729.755798 1563.299805,766.596069 
	C1554.976807,790.510803 1541.417603,811.691101 1526.491699,831.944031 
	C1515.535278,846.810913 1503.811768,861.112732 1492.863281,875.985291 
	C1489.203613,880.956543 1486.375488,886.725525 1484.223755,892.522034 
	C1483.451660,894.601746 1485.036011,898.959900 1486.921021,900.220581 
	C1488.743408,901.439331 1492.430542,900.351562 1495.117554,899.615845 
	C1496.739502,899.171875 1498.202637,897.637573 1499.419067,896.303223 
	C1509.729248,884.994202 1520.178711,873.802063 1530.180298,862.223999 
	C1550.192871,839.057007 1570.762207,816.275269 1585.560425,789.155273 
	C1607.806885,748.385498 1620.218384,705.594055 1614.166626,658.461426 
	C1608.568359,614.861145 1574.204468,581.959717 1531.417725,581.025208 
	C1522.594971,580.832458 1513.751953,581.560486 1505.079590,581.858582 
	C1505.790527,579.263550 1506.869629,576.105652 1507.510132,572.861267 
	C1511.920898,550.518555 1510.043945,529.397034 1492.794922,512.630798 
	C1480.036987,500.229858 1464.056274,493.770172 1446.421997,491.409760 
	C1419.863770,487.854919 1395.382324,492.342468 1375.739624,511.766846 
	C1345.420166,541.749207 1334.648193,579.340698 1337.969727,620.697815 
	C1339.526733,640.085938 1351.761108,654.280151 1370.467285,661.417358 
	C1380.241943,665.146851 1385.631958,663.228394 1391.537354,654.741882 
	C1395.805664,648.607910 1399.968140,642.344299 1403.523193,635.783875 
	C1407.970093,627.577881 1411.746338,619.008362 1416.076294,610.048828 
	C1402.037354,609.741272 1389.703491,607.691650 1378.802124,598.741760 
M1448.362549,471.184662 
	C1468.055054,472.118774 1487.424438,474.324280 1505.748047,482.554474 
	C1536.452271,496.345581 1560.301880,518.550232 1581.715576,543.734131 
	C1599.461670,564.604614 1613.605225,587.928040 1627.114868,611.677063 
	C1629.137085,615.232117 1632.412842,618.862976 1636.001343,620.490723 
	C1638.908203,621.809387 1643.777832,621.236328 1646.648682,619.564819 
	C1650.020264,617.601868 1649.580933,613.197754 1648.104858,609.546814 
	C1644.311401,600.164307 1640.910522,590.593018 1636.581055,581.463135 
	C1626.547852,560.305298 1616.283203,539.250000 1605.700684,518.361694 
	C1590.286987,487.936951 1572.341431,459.208191 1547.170776,435.685883 
	C1533.322266,422.744171 1518.185425,411.501373 1499.657227,406.337830 
	C1489.039673,403.378906 1477.970337,402.040863 1466.202026,399.801331 
	C1487.124878,377.829681 1490.630981,353.124695 1475.158203,325.837799 
	C1477.512329,325.837799 1479.127319,325.837830 1480.742310,325.837830 
	C1504.575073,325.837799 1528.408081,325.776184 1552.240112,325.909576 
	C1555.502930,325.927856 1557.797363,324.986145 1560.061523,322.663818 
	C1565.759521,316.818970 1571.313110,310.712189 1577.691772,305.683624 
	C1585.173706,299.785431 1588.574219,292.904816 1587.125366,283.438446 
	C1586.626953,280.181488 1586.685181,276.735474 1587.126343,273.461639 
	C1587.885132,267.829254 1585.345581,264.637421 1581.096191,261.143372 
	C1575.180664,256.279419 1569.127930,254.655426 1561.575684,254.686646 
	C1499.744995,254.942200 1437.910522,255.085678 1376.082764,254.586380 
	C1365.448608,254.500488 1357.319214,256.426208 1350.940308,265.387726 
	C1347.015259,270.901917 1339.982178,274.759491 1337.615234,280.670624 
	C1335.248901,286.580414 1337.488647,294.179932 1336.744141,300.932312 
	C1335.769653,309.772125 1338.310791,316.539337 1345.150635,322.312927 
	C1347.892578,324.627441 1350.169556,325.972992 1353.794556,325.917389 
	C1366.957886,325.715546 1380.151611,326.358643 1393.286255,325.713501 
	C1412.124146,324.788208 1426.768066,332.741180 1439.250977,345.774780 
	C1452.669678,359.785339 1453.629639,382.257294 1441.472778,396.160309 
	C1440.245728,397.563568 1438.010986,398.591339 1436.123291,398.826782 
	C1426.229492,400.060944 1416.179810,400.346344 1406.400146,402.138550 
	C1380.996704,406.794037 1357.476196,415.933655 1337.991089,433.591034 
	C1328.851196,441.873535 1322.475342,451.598541 1321.368530,464.391479 
	C1320.137451,478.618256 1329.336304,489.389618 1343.533325,490.115692 
	C1351.007446,490.497955 1358.122192,489.341003 1365.017456,486.678345 
	C1391.539795,476.436493 1419.007080,471.286011 1448.362549,471.184662 
M2646.500000,325.837830 
	C2654.832275,325.837830 2663.179932,325.509460 2671.493896,325.901154 
	C2693.857178,326.954773 2711.137451,316.639587 2726.467041,301.840881 
	C2730.423584,298.021301 2732.644531,293.505768 2732.204102,287.605072 
	C2731.721191,281.141998 2732.099365,274.614960 2732.092773,268.115814 
	C2732.086426,261.662170 2725.405762,254.833832 2719.072266,254.833420 
	C2651.914307,254.828964 2584.756592,254.802094 2517.598877,254.952179 
	C2515.301025,254.957306 2512.494141,256.211273 2510.800537,257.810699 
	C2503.535400,264.670898 2496.500732,271.785797 2489.623535,279.037079 
	C2488.220703,280.516357 2487.196045,282.965271 2487.135742,285.000885 
	C2486.870361,293.991882 2487.020508,302.995148 2487.020752,311.993988 
	C2487.021240,321.880920 2490.810059,325.647095 2500.758057,325.962921 
	C2504.733154,326.089142 2508.784424,326.217896 2512.640381,327.071472 
	C2517.131836,328.065796 2518.332520,332.329346 2515.559082,335.835236 
	C2493.933838,363.169739 2484.810791,394.008423 2489.732178,428.698669 
	C2490.870850,436.723541 2492.496826,444.679291 2493.600342,450.968567 
	C2485.816406,458.544891 2478.163086,464.954987 2471.808838,472.464264 
	C2465.148682,480.335205 2462.920410,490.102203 2466.227783,500.143951 
	C2471.481445,516.096069 2479.156250,523.861633 2495.008789,523.345703 
	C2504.630859,523.032532 2514.408203,522.443726 2523.779053,520.419006 
	C2551.037842,514.529541 2578.458496,513.304932 2606.221191,514.719543 
	C2649.235840,516.911255 2687.550293,531.596130 2722.298340,556.525757 
	C2745.973633,573.511230 2766.725342,593.675720 2786.527588,614.914734 
	C2788.519531,617.051331 2790.989502,618.968079 2793.599365,620.251038 
	C2797.718750,622.276062 2800.483398,620.673096 2802.098877,616.439880 
	C2804.756104,609.477356 2800.742188,604.473267 2797.040283,599.658875 
	C2783.137207,581.578918 2769.048340,563.640808 2754.934326,545.724060 
	C2735.197998,520.669678 2714.229248,496.827393 2688.347900,477.763580 
	C2653.785645,452.306030 2615.300049,440.502777 2572.300049,443.364258 
	C2554.063965,444.577789 2535.770264,444.924042 2516.687256,445.697510 
	C2515.747803,434.883545 2514.893799,424.141510 2513.864014,413.416321 
	C2512.381836,397.975159 2517.362061,384.730011 2526.777588,372.674194 
	C2538.656250,357.464630 2553.196533,345.536835 2570.024414,336.295898 
	C2582.925049,329.211426 2596.510742,325.058563 2611.509033,325.736694 
	C2622.817627,326.248016 2634.168213,325.837830 2646.500000,325.837830 
M287.030304,190.493134 
	C285.879517,192.314987 284.728699,194.136826 283.454742,196.153625 
	C279.228058,187.817841 275.361176,179.548035 270.939819,171.586151 
	C254.003799,141.088013 232.753601,114.211853 203.736908,94.269806 
	C184.026810,80.723816 162.795502,72.123566 138.103409,77.026573 
	C124.122673,79.802658 111.101311,84.459900 101.654106,95.852020 
	C92.468063,106.929192 92.417732,119.496994 97.343613,132.090912 
	C101.849342,143.610626 112.605080,144.767624 123.111305,145.476151 
	C132.242661,146.091949 141.442459,145.987534 150.524277,146.993423 
	C193.260300,151.726746 228.038147,171.506332 255.803711,203.905853 
	C264.109009,213.597260 271.636993,223.954758 279.648865,234.169983 
	C283.362122,231.214432 286.741791,228.233582 290.424255,225.691299 
	C293.063232,223.869370 293.793701,221.843353 292.660278,218.975235 
	C291.559265,216.188980 291.509552,213.891647 293.849365,211.304016 
	C306.564026,197.242447 320.362518,184.281235 337.494812,176.059906 
	C355.263245,167.533310 373.380768,159.299255 392.101379,153.292847 
	C420.707092,144.114899 449.951019,136.920456 478.943817,128.956116 
	C510.781494,120.210304 539.115295,105.233696 563.030151,82.219086 
	C580.689331,65.224648 587.971313,44.433659 586.219666,19.829336 
	C584.669739,20.839478 583.268066,21.650595 581.976746,22.610186 
	C565.224792,35.058174 546.677734,43.854256 526.530457,49.058384 
	C502.400757,55.291218 478.086548,60.812012 453.969543,67.091644 
	C425.713959,74.448906 398.540253,84.573944 373.771027,100.418526 
	C337.874512,123.381119 310.040436,154.113602 287.030304,190.493134 
M2018.986694,321.604675 
	C2025.234497,309.855011 2030.968140,297.791901 2037.882812,286.448822 
	C2044.108765,276.235443 2041.122314,265.638275 2041.901001,254.834351 
	C2021.572266,254.834351 2001.923096,254.777359 1982.276001,254.958008 
	C1980.913452,254.970520 1979.048828,256.454407 1978.302612,257.759888 
	C1975.003052,263.532562 1971.821289,269.396362 1969.063477,275.440033 
	C1968.267456,277.184235 1968.287354,280.040436 1969.190918,281.703644 
	C1976.655396,295.444427 1984.326172,309.076721 1992.206177,322.583435 
	C1993.131226,324.169067 1995.636597,325.561615 1997.520264,325.719086 
	C2002.649170,326.147858 2007.851929,325.633484 2012.996704,325.953949 
	C2016.086670,326.146423 2017.597168,324.794037 2018.986694,321.604675 
M885.206421,254.892670 
	C884.357483,255.832260 883.286926,256.650787 882.696655,257.731659 
	C879.512085,263.563049 876.244507,269.366394 873.467773,275.392395 
	C872.674011,277.114960 872.701416,279.928986 873.581543,281.592010 
	C878.631653,291.134705 884.008728,300.506256 889.363281,309.885406 
	C892.396912,315.199066 894.430603,322.462646 899.053711,325.103699 
	C903.717957,327.768280 911.032654,325.668732 917.174988,325.925232 
	C920.056213,326.045532 921.647522,325.106323 922.996765,322.491272 
	C929.166321,310.534668 935.017334,298.359894 942.044739,286.915588 
	C948.409302,276.550751 945.228394,265.808990 946.227051,254.840927 
	C925.644165,254.840927 905.864990,254.840927 885.206421,254.892670 
z"/>
<path fill="#010101" opacity="1.000000" stroke="none" 
	d="
M247.834869,514.140381 
	C209.802185,498.347168 170.553940,490.204498 129.787109,491.330322 
	C118.740799,491.635376 107.797409,495.884979 96.820442,498.384094 
	C91.969337,499.488556 87.209747,501.363617 82.309448,501.816956 
	C64.860352,503.431183 54.856766,496.604279 48.946198,479.863281 
	C45.353283,469.686707 47.191654,460.069916 52.239307,451.043274 
	C56.835007,442.824860 63.034824,435.935425 71.194069,430.874023 
	C72.581474,430.013397 73.519600,427.550110 73.685509,425.737518 
	C75.034828,410.995758 75.044426,396.037323 77.606575,381.523438 
	C81.132141,361.551971 85.660355,341.487030 104.634964,327.623932 
	C99.859558,326.219330 96.166626,325.149628 92.483543,324.046997 
	C76.641136,319.304016 76.621681,319.300446 76.651611,303.151093 
	C76.664879,295.991058 74.840767,288.022186 77.395096,281.899078 
	C79.943604,275.789917 87.499763,271.973755 91.835983,266.360809 
	C99.246674,256.768188 108.387497,254.492493 120.288361,254.553574 
	C216.447739,255.047089 312.610748,254.830170 408.772675,254.830643 
	C417.309479,254.830688 425.030640,262.386047 425.030670,270.735229 
	C425.030731,283.567932 425.164276,296.403259 424.909882,309.230896 
	C424.863068,311.590088 423.893250,314.638885 422.235382,316.133820 
	C415.567108,322.146759 413.731079,329.162689 413.783386,338.145844 
	C414.177551,405.806885 413.998322,473.471252 413.998322,541.134583 
	C413.998322,542.962830 413.998322,544.791016 413.998322,545.335266 
	C420.152832,550.112976 425.653625,554.256042 430.955078,558.640137 
	C431.723022,559.275085 431.752869,561.064880 431.756989,562.321472 
	C431.807648,577.820557 431.793579,593.319824 431.781738,608.819092 
	C431.780975,609.808655 431.983795,610.977173 431.548950,611.761292 
	C422.360046,628.329834 422.592407,646.985596 420.149323,664.932922 
	C412.454285,721.462097 415.242615,778.374878 414.812500,835.164673 
	C414.788513,838.330994 415.058929,841.523376 414.737335,844.656860 
	C414.430420,847.647339 413.873016,852.954773 412.826263,853.106445 
	C409.024170,853.657410 404.113647,853.743042 401.146393,851.742249 
	C375.992889,834.781128 349.538483,820.216370 322.055481,807.471558 
	C291.894592,793.484985 260.081635,787.515686 226.972626,789.209778 
	C217.612885,789.688721 208.405716,793.160461 199.046356,793.633728 
	C182.582809,794.466431 171.101913,782.020081 172.031601,765.532776 
	C172.528000,756.729553 175.497147,748.666382 180.037460,741.157288 
	C188.759109,726.732849 201.393295,719.246826 218.336288,717.670654 
	C229.575531,716.625061 238.125015,709.411133 245.437790,701.164551 
	C258.917267,685.964111 260.446716,669.093567 249.897964,651.621765 
	C240.601990,636.224915 228.246918,624.321777 210.620926,618.903320 
	C208.289902,618.186768 205.711395,618.064880 203.243774,618.040222 
	C193.745193,617.945190 184.221985,618.428040 174.750244,617.914917 
	C153.512283,616.764343 135.877090,625.220947 119.773842,637.837952 
	C110.390160,645.190002 101.669106,653.568115 97.692451,665.018860 
	C91.758736,682.104980 95.639297,698.234131 105.680397,712.785889 
	C109.551987,718.396729 116.125443,720.193481 122.740791,721.038391 
	C124.383606,721.248230 126.037567,721.370667 127.947662,721.559143 
	C130.924942,743.041870 134.919479,764.351929 132.762711,786.115906 
	C132.181885,791.977051 129.237122,793.565063 123.207481,791.462830 
	C114.573669,788.452576 108.075882,782.591736 102.817764,775.272949 
	C92.548752,760.979370 86.716606,744.731018 82.795769,727.821899 
	C76.599457,701.099609 74.705414,674.051880 80.648331,647.075073 
	C88.612419,610.923645 109.373894,582.949463 137.748093,559.917908 
	C149.054596,550.740356 160.855682,546.315552 175.940018,546.809937 
	C210.068329,547.928589 244.258591,547.209229 278.423157,547.088867 
	C281.858124,547.076782 284.115875,548.330505 286.764069,550.402466 
	C293.535767,555.700745 296.009583,562.045776 295.245087,570.651978 
	C294.451843,579.581116 294.842651,588.643555 295.169647,597.631226 
	C295.317932,601.707275 294.382660,604.565491 290.764343,606.680298 
	C288.221771,608.166382 286.004883,610.209656 283.809082,611.877625 
	C288.444580,625.544861 288.017334,639.408752 289.142242,653.118286 
	C290.816345,673.521240 282.538330,689.823364 268.776733,703.653809 
	C263.166809,709.291870 255.996124,713.376892 249.872543,717.918579 
	C269.859650,718.047302 288.738831,724.770508 306.321930,735.860901 
	C321.349213,745.339417 334.981812,756.529968 347.299652,769.207886 
	C362.506073,784.858765 377.152008,801.054382 392.032806,817.021362 
	C393.138214,818.207520 394.184540,819.448669 396.108093,821.626160 
	C394.919647,810.943115 393.878235,801.480530 392.812347,792.020752 
	C390.220978,769.022217 387.939880,745.982788 384.937714,723.037842 
	C381.267548,694.987671 376.397827,667.138184 367.127258,640.277649 
	C364.184662,631.751709 360.604095,623.553162 353.401550,617.506470 
	C352.486572,616.738342 352.051483,614.946472 352.040710,613.623657 
	C351.939880,601.291748 351.912903,588.957886 352.062561,576.626953 
	C352.082092,575.016541 352.812988,573.035339 353.905579,571.878784 
	C361.113617,564.249084 368.438995,556.725159 375.917450,549.361023 
	C377.157654,548.139832 379.296906,547.407104 381.088074,547.257996 
	C384.875031,546.942505 388.706482,547.161804 393.211243,547.161804 
	C392.042145,537.698486 391.245972,528.491943 389.724182,519.406982 
	C382.579498,476.753571 375.905212,434.003754 367.675751,391.557312 
	C363.646057,370.772766 356.563751,350.582458 350.937927,330.102661 
	C349.976196,326.601715 347.953064,325.722504 344.420105,325.750916 
	C322.755920,325.925171 301.089600,325.838165 279.424011,325.838165 
	C277.937408,325.838165 276.450836,325.838165 274.402710,325.838165 
	C274.402710,328.090851 274.402679,330.043671 274.402710,331.996521 
	C274.403748,390.826935 274.407440,449.657379 274.403656,508.487793 
	C274.402863,521.029419 271.443634,523.094543 259.827515,518.695984 
	C255.949020,517.227356 252.075760,515.744873 247.834869,514.140381 
M122.436806,354.941101 
	C104.720093,374.137268 95.202583,396.567535 95.114487,422.529205 
	C104.877304,421.780945 114.150116,420.827942 123.447052,420.403625 
	C150.204163,419.182373 175.270187,424.914276 198.337784,438.891449 
	C215.322342,449.182800 229.660339,462.526398 243.116791,476.929749 
	C247.378311,481.491089 251.504974,486.178497 255.693359,490.808197 
	C256.223083,490.395264 256.752808,489.982300 257.282532,489.569366 
	C256.524811,483.338654 255.816757,477.101471 255.001007,470.878387 
	C250.868530,439.352661 246.169693,407.870239 235.776474,377.721069 
	C230.939087,363.688538 224.051331,350.316803 217.460648,336.957489 
	C214.826569,331.618195 210.403046,326.467957 203.928574,326.173798 
	C193.313477,325.691467 182.500061,325.328766 172.031189,326.787750 
	C152.294891,329.538330 136.716827,340.617645 122.436806,354.941101 
z"/>
<path fill="#010101" opacity="1.000000" stroke="none" 
	d="
M792.127869,546.870483 
	C788.653259,515.300781 785.833374,484.105682 781.599487,453.103668 
	C777.098572,420.146118 771.379944,387.351227 765.924622,354.529907 
	C764.349243,345.051788 761.848511,335.727417 759.724365,326.117004 
	C735.875793,326.117004 712.256836,326.117004 687.932739,326.117004 
	C687.932739,327.671417 687.932739,329.425598 687.932739,331.179779 
	C687.932678,420.169952 687.932983,509.160095 687.930542,598.150269 
	C687.930481,599.816345 688.293884,601.617065 687.784302,603.115784 
	C687.086853,605.166748 685.939392,608.381042 684.581787,608.600159 
	C682.203796,608.983948 678.723877,608.259277 677.096008,606.619080 
	C668.299561,597.756165 659.961914,588.439575 651.407532,579.334473 
	C629.092712,555.582947 603.844055,535.653748 574.235901,521.780396 
	C553.014648,511.836884 531.003601,509.570679 508.198792,516.615601 
	C500.015533,519.143555 491.455658,520.830444 482.941864,521.832886 
	C464.540405,523.999634 455.896973,511.317688 452.091858,498.186035 
	C449.320343,488.621307 451.518890,479.647797 456.531677,471.416382 
	C461.239380,463.685913 467.076111,456.932831 475.122253,452.264557 
	C476.490540,451.470703 477.301300,448.868347 477.485291,447.013763 
	C479.077545,430.963287 479.638458,414.759369 482.194427,398.872742 
	C484.050964,387.333313 487.539612,375.821991 492.015076,365.007660 
	C496.089447,355.162415 502.238373,346.125671 507.936890,337.023041 
	C510.934814,332.234283 510.695770,329.631897 505.136139,328.159790 
	C500.671051,326.977478 495.990417,326.408539 491.368500,326.066040 
	C484.388489,325.548828 477.427032,318.577820 477.426361,311.635162 
	C477.425507,302.969452 477.228241,294.296265 477.556091,285.642975 
	C477.645447,283.284332 478.760742,280.468079 480.359528,278.749908 
	C486.940186,271.678131 493.989105,265.044037 500.645386,258.039551 
	C502.897095,255.670013 505.180176,254.754471 508.441528,254.762222 
	C551.436584,254.864502 594.431885,254.830338 637.427124,254.830338 
	C698.253723,254.830338 759.080322,254.829056 819.906921,254.831924 
	C827.652466,254.832291 835.566772,262.750916 835.567078,270.480286 
	C835.567505,282.478973 835.360352,294.482941 835.668152,306.473724 
	C835.792603,311.321716 834.823730,315.304657 831.004944,318.376465 
	C825.480896,322.819763 824.272583,328.506866 824.280396,335.512726 
	C824.471436,506.493622 824.429688,677.474792 824.429077,848.455872 
	C824.429077,850.122314 824.466919,851.790405 824.408203,853.454895 
	C824.143005,860.973572 820.585693,864.838135 814.032593,864.768860 
	C807.434753,864.699158 803.887146,860.816833 803.879883,853.306335 
	C803.842102,814.310669 804.578491,775.297974 803.656128,736.324097 
	C802.757935,698.371155 800.487732,660.439880 798.235107,622.533752 
	C796.743652,597.434143 794.221375,572.395813 792.127869,546.870483 
M624.095459,495.413177 
	C640.194031,521.215637 656.292542,547.018066 672.019165,572.224365 
	C671.967163,571.312134 671.935547,569.486389 671.748901,567.676636 
	C668.539001,536.549622 666.071045,505.321838 661.885864,474.326050 
	C657.037476,438.418884 651.080627,402.644165 644.742188,366.965179 
	C642.643616,355.151947 638.030029,343.761292 634.244141,332.283722 
	C632.687256,327.563599 629.136414,325.565277 623.807800,325.725708 
	C611.991028,326.081421 600.142700,326.190521 588.332153,325.743286 
	C574.764404,325.229553 563.326538,330.090576 552.884399,338.127075 
	C531.057678,354.925385 516.108337,376.784485 506.198914,402.223358 
	C500.983032,415.613251 498.194000,429.542267 498.201111,443.445709 
	C512.165405,442.956146 525.771484,442.118378 539.377991,442.111389 
	C551.151428,442.105347 562.468384,445.034119 572.932800,450.517395 
	C593.365295,461.223694 609.508911,476.917297 624.095459,495.413177 
z"/>
<path fill="#020202" opacity="1.000000" stroke="none" 
	d="
M2075.044189,605.000000 
	C2075.044434,533.670532 2074.258301,462.828888 2075.354980,392.016388 
	C2075.962891,352.755859 2087.358643,315.980896 2110.298096,283.487793 
	C2120.369141,269.222565 2132.906738,258.100647 2151.073730,255.513580 
	C2155.012207,254.952759 2159.042725,254.858582 2163.031006,254.856873 
	C2246.526367,254.821091 2330.021973,254.827408 2413.517334,254.832718 
	C2421.745361,254.833237 2429.444580,262.445099 2429.444580,270.530609 
	C2429.444580,281.529999 2429.019287,292.551941 2429.600342,303.520569 
	C2429.963867,310.383789 2428.502197,315.916840 2423.014404,320.092651 
	C2418.462158,323.556793 2417.609863,328.054230 2417.624268,333.594025 
	C2417.802734,402.256470 2417.741211,470.919556 2417.740967,539.582458 
	C2417.740967,559.414734 2417.773926,579.247070 2417.708984,599.079102 
	C2417.697510,602.639587 2418.581787,606.992676 2414.411133,608.777283 
	C2410.089111,610.626892 2407.442871,607.192932 2404.740234,604.413635 
	C2390.457520,589.725037 2376.569336,574.614014 2361.686768,560.557495 
	C2345.162598,544.950256 2326.456299,532.176086 2305.486328,523.083252 
	C2280.497070,512.247498 2255.023438,511.124847 2229.041748,519.515564 
	C2223.391846,521.340149 2217.422852,522.635620 2211.514648,523.116455 
	C2192.789307,524.640564 2181.357666,514.697876 2180.174805,495.941284 
	C2179.046631,478.045135 2186.787598,464.418671 2201.567139,454.751862 
	C2204.118408,453.083099 2205.110840,451.602417 2205.123047,448.562805 
	C2205.234375,420.862610 2209.182617,393.740814 2220.261230,368.218292 
	C2224.508789,358.432220 2230.958984,349.562622 2236.770508,340.509644 
	C2240.295166,335.018921 2238.705322,328.972382 2232.284424,327.364014 
	C2228.140869,326.326080 2223.744873,325.950104 2219.455078,325.905029 
	C2203.791016,325.740448 2188.121094,326.020599 2172.459229,325.776520 
	C2161.725098,325.609222 2153.085693,329.750946 2145.856689,337.310333 
	C2133.673584,350.050262 2127.443848,366.006897 2122.049805,382.313477 
	C2112.443115,411.355438 2107.563232,441.391602 2104.036377,471.664612 
	C2096.036133,540.335388 2095.562500,609.313293 2095.839111,678.317444 
	C2095.847656,680.479492 2095.910400,682.675537 2095.578125,684.797791 
	C2094.864258,689.352051 2089.786377,693.423645 2085.257324,693.313049 
	C2080.281006,693.191528 2075.608398,688.936096 2075.136475,683.990784 
	C2074.978271,682.337585 2075.047607,680.660706 2075.047119,678.994690 
	C2075.042725,654.496460 2075.044189,629.998230 2075.044189,605.000000 
M2369.862305,515.643494 
	C2380.397217,534.406860 2390.932129,553.170227 2401.746338,572.430786 
	C2401.746338,570.437866 2401.863281,569.007324 2401.729492,567.600708 
	C2398.147461,529.989136 2395.354980,492.278290 2390.677002,454.802917 
	C2386.974609,425.141815 2381.504150,395.661072 2375.692383,366.323364 
	C2373.334473,354.420715 2368.165039,343.045044 2363.915039,331.562775 
	C2362.350342,327.334839 2358.893066,325.549438 2353.995605,325.728241 
	C2344.014404,326.092682 2333.995117,326.194489 2324.019287,325.762329 
	C2303.773682,324.885315 2287.120361,332.753967 2272.570068,346.037079 
	C2251.223633,365.524628 2237.366211,389.614410 2229.942139,417.349762 
	C2227.485107,426.528290 2226.562744,436.117645 2224.897705,445.757629 
	C2234.451416,444.884003 2242.549316,444.054993 2250.661865,443.417847 
	C2278.187988,441.255981 2303.485107,446.882996 2325.635986,464.327759 
	C2343.550049,478.435913 2357.670410,495.697418 2369.862305,515.643494 
z"/>
<path fill="#010101" opacity="1.000000" stroke="none" 
	d="
M1925.975342,781.000000 
	C1925.975220,805.164307 1926.016724,828.828674 1925.954346,852.492798 
	C1925.929932,861.762878 1921.072632,866.023621 1913.082886,864.271057 
	C1909.369019,863.456421 1907.160767,861.304504 1906.496582,857.709778 
	C1906.076660,855.436951 1906.022949,853.073547 1906.018066,850.750305 
	C1905.945190,816.254150 1906.392334,781.748840 1905.750732,747.263733 
	C1904.766235,694.345703 1896.645386,642.551208 1877.961670,592.808838 
	C1866.138428,561.331055 1850.958496,531.675354 1827.148315,507.251709 
	C1823.222412,503.224670 1818.989868,499.496643 1814.218140,494.986847 
	C1813.402710,500.747314 1812.958008,505.753601 1811.957275,510.646240 
	C1806.483154,537.412903 1794.362061,559.974121 1770.702271,575.142578 
	C1759.436401,582.365234 1747.027222,585.360779 1733.765869,585.439514 
	C1712.096069,585.568115 1691.331665,581.976013 1672.706055,570.157410 
	C1648.795654,554.985413 1635.371948,533.143677 1632.833374,504.981659 
	C1629.902954,472.474396 1636.668213,442.432037 1659.291016,417.902557 
	C1683.269653,391.902710 1713.703979,381.688263 1748.656860,385.695221 
	C1760.653809,387.070557 1772.455200,390.152649 1785.528809,392.684021 
	C1783.948975,386.072144 1782.929077,379.116791 1780.607178,372.627258 
	C1775.208130,357.536713 1766.785767,344.317841 1754.546387,333.674713 
	C1748.645020,328.543030 1742.154541,325.680420 1734.181396,325.777283 
	C1717.518799,325.979706 1700.851074,325.735748 1684.188110,325.922638 
	C1680.728638,325.961426 1678.520142,324.620758 1675.906494,322.565186 
	C1668.634766,316.845917 1665.540283,309.971466 1666.740234,300.630310 
	C1667.601685,293.924896 1665.404663,286.318542 1667.832764,280.467163 
	C1670.196533,274.770782 1677.272583,271.225250 1681.274292,265.969788 
	C1688.276001,256.774506 1696.902100,254.427811 1708.317139,254.550278 
	C1765.304810,255.161652 1822.302734,254.884872 1879.296631,254.724594 
	C1883.813843,254.711884 1886.873657,256.440613 1890.429688,258.866669 
	C1898.201538,264.168793 1899.962769,270.893768 1900.510864,280.137573 
	C1901.343628,294.179016 1896.562622,303.641602 1886.714355,313.436188 
	C1877.292114,322.807190 1868.158691,327.112610 1855.002197,326.085083 
	C1841.089722,324.998535 1827.024902,325.860504 1813.026611,325.885895 
	C1812.719727,325.886444 1812.413086,326.062012 1811.690918,326.283142 
	C1811.643433,327.072693 1811.538330,328.004883 1811.537964,328.937164 
	C1811.529419,352.101501 1811.468140,375.266327 1811.651611,398.429199 
	C1811.666626,400.324524 1812.851807,403.123627 1814.353149,403.960938 
	C1854.790161,426.513763 1880.451172,461.263367 1897.353149,503.451874 
	C1909.638550,534.116760 1916.157593,566.156860 1919.887329,598.763428 
	C1926.795532,659.157104 1925.877686,719.854858 1925.975342,781.000000 
M1763.947510,546.464661 
	C1779.435425,530.430664 1784.756714,510.705383 1784.925415,489.052673 
	C1784.996094,480.013214 1780.882446,473.165070 1773.384033,468.899994 
	C1743.149048,451.702301 1711.543701,451.603638 1679.730225,463.408569 
	C1668.934204,467.414612 1662.972656,476.783112 1662.004883,488.578735 
	C1661.652466,492.873047 1661.666870,497.252655 1662.059326,501.543488 
	C1663.787109,520.434753 1670.787354,536.605225 1686.936035,547.730042 
	C1698.896606,555.969666 1712.711182,557.957031 1726.724121,558.948242 
	C1740.537842,559.925354 1753.150269,556.925415 1763.947510,546.464661 
z"/>
<path fill="#010101" opacity="1.000000" stroke="none" 
	d="
M1206.615234,569.361694 
	C1178.006958,547.580383 1147.750244,529.598572 1114.043091,517.526306 
	C1087.680420,508.084473 1061.332642,506.899597 1034.078003,513.176636 
	C1021.707764,516.025635 1008.699585,517.442932 996.016174,517.244995 
	C981.145996,517.012878 972.360596,506.262451 970.883240,491.342316 
	C969.327637,475.631866 977.382751,456.544037 995.339905,446.616699 
	C992.128601,417.624603 996.130188,389.610596 1008.073547,362.943756 
	C1011.926270,354.341309 1016.930908,346.241486 1021.614441,338.029114 
	C1024.560669,332.863251 1023.604614,329.345978 1018.093262,327.180206 
	C1016.717529,326.639587 1015.143250,325.989838 1013.767273,326.177032 
	C1009.310181,326.783295 1007.081909,323.897980 1004.155640,321.333313 
	C997.892639,315.844086 996.321716,309.259644 997.023376,301.326630 
	C997.622437,294.553528 995.401245,286.864624 997.924438,281.115479 
	C1000.448730,275.363739 1007.922485,272.005127 1012.139221,266.728455 
	C1020.449097,256.329742 1030.870605,254.472168 1043.628662,254.563034 
	C1119.607178,255.104248 1195.591675,254.854492 1271.573975,254.753998 
	C1275.047974,254.749405 1277.130493,256.061157 1279.671997,258.299713 
	C1287.455444,265.154877 1289.924805,273.335480 1289.075195,283.520508 
	C1288.274658,293.118164 1288.859375,302.835358 1288.931641,312.499237 
	C1288.951904,315.220367 1288.115112,316.909180 1286.098389,319.135101 
	C1283.150146,322.389404 1280.918823,327.015350 1280.123169,331.374512 
	C1276.422607,351.649536 1272.447632,371.936554 1270.166016,392.397156 
	C1262.556396,460.641083 1265.744385,529.201355 1265.135010,597.648438 
	C1265.115723,599.814453 1264.983032,601.993042 1265.159424,604.144714 
	C1265.831421,612.343018 1261.055298,614.941284 1253.223389,611.237488 
	C1251.318970,610.336914 1249.658203,608.807495 1248.074341,607.360596 
	C1234.322266,594.797485 1220.613403,582.187195 1206.615234,569.361694 
M1213.884521,526.633057 
	C1223.841187,541.502930 1233.797729,556.372742 1244.159180,571.847229 
	C1244.347778,570.227722 1244.564819,569.293091 1244.549438,568.362244 
	C1244.094360,540.885925 1244.338867,513.373901 1242.969849,485.942566 
	C1240.990479,446.280640 1234.297363,407.284119 1222.972656,369.158905 
	C1218.949585,355.614960 1214.596069,342.175720 1206.704102,330.248657 
	C1205.092163,327.812653 1203.550171,325.693787 1199.738525,325.719452 
	C1168.751099,325.928162 1137.761597,325.819427 1106.772827,325.849426 
	C1096.552002,325.859344 1087.121216,328.556335 1078.474609,334.135101 
	C1059.467163,346.398682 1044.740234,362.714935 1033.564819,382.184937 
	C1024.053711,398.755463 1016.707092,416.157684 1017.109680,435.837555 
	C1017.144287,437.529449 1017.531738,439.214142 1017.630615,439.960449 
	C1031.988037,439.061066 1045.570679,438.000427 1059.173462,437.397522 
	C1099.660278,435.603119 1135.456299,447.735718 1166.599976,473.759583 
	C1184.768433,488.941254 1199.891235,506.783600 1213.884521,526.633057 
z"/>
<path fill="#010101" opacity="1.000000" stroke="none" 
	d="
M1379.079102,598.973145 
	C1389.703491,607.691650 1402.037354,609.741272 1416.076294,610.048828 
	C1411.746338,619.008362 1407.970093,627.577881 1403.523193,635.783875 
	C1399.968140,642.344299 1395.805664,648.607910 1391.537354,654.741882 
	C1385.631958,663.228394 1380.241943,665.146851 1370.467285,661.417358 
	C1351.761108,654.280151 1339.526733,640.085938 1337.969727,620.697815 
	C1334.648193,579.340698 1345.420166,541.749207 1375.739624,511.766846 
	C1395.382324,492.342468 1419.863770,487.854919 1446.421997,491.409760 
	C1464.056274,493.770172 1480.036987,500.229858 1492.794922,512.630798 
	C1510.043945,529.397034 1511.920898,550.518555 1507.510132,572.861267 
	C1506.869629,576.105652 1505.790527,579.263550 1505.079590,581.858582 
	C1513.751953,581.560486 1522.594971,580.832458 1531.417725,581.025208 
	C1574.204468,581.959717 1608.568359,614.861145 1614.166626,658.461426 
	C1620.218384,705.594055 1607.806885,748.385498 1585.560425,789.155273 
	C1570.762207,816.275269 1550.192871,839.057007 1530.180298,862.223999 
	C1520.178711,873.802063 1509.729248,884.994202 1499.419067,896.303223 
	C1498.202637,897.637573 1496.739502,899.171875 1495.117554,899.615845 
	C1492.430542,900.351562 1488.743408,901.439331 1486.921021,900.220581 
	C1485.036011,898.959900 1483.451660,894.601746 1484.223755,892.522034 
	C1486.375488,886.725525 1489.203613,880.956543 1492.863281,875.985291 
	C1503.811768,861.112732 1515.535278,846.810913 1526.491699,831.944031 
	C1541.417603,811.691101 1554.976807,790.510803 1563.299805,766.596069 
	C1576.121094,729.755798 1571.636353,695.319397 1546.118286,665.064758 
	C1529.266479,645.084961 1497.208984,636.300842 1474.286133,645.128662 
	C1457.490479,651.596802 1444.573364,662.830139 1439.645508,681.028076 
	C1437.244995,689.893494 1439.101074,698.218689 1445.284912,705.268799 
	C1456.600586,718.169556 1471.542236,724.055542 1487.923218,727.043030 
	C1490.700928,727.549622 1493.549683,727.663513 1496.363159,727.981445 
	C1496.677002,728.016907 1496.973999,728.201294 1497.583740,728.431946 
	C1494.758057,746.754761 1491.199097,764.898987 1482.760742,781.719055 
	C1478.299438,790.611633 1472.103516,794.249878 1463.426392,791.386475 
	C1435.160034,782.058777 1413.908081,764.344055 1402.419922,736.531982 
	C1396.273315,721.651794 1397.905762,705.919495 1402.393433,690.895996 
	C1410.826660,662.663269 1427.470581,639.259766 1448.066162,618.703613 
	C1456.388672,610.396973 1466.055664,603.417664 1475.289185,596.058044 
	C1477.451050,594.334961 1478.545410,592.923950 1478.236084,589.974609 
	C1477.428467,582.272095 1473.602173,576.649780 1467.423096,572.318176 
	C1456.884155,564.930237 1444.810059,562.117432 1432.344116,560.563171 
	C1417.413086,558.701477 1402.429199,557.534119 1387.768921,562.076660 
	C1383.415283,563.425720 1379.172852,565.660583 1375.399536,568.247986 
	C1366.831421,574.123230 1365.515381,581.991760 1371.469971,590.623413 
	C1373.522949,593.599243 1376.336182,596.050720 1379.079102,598.973145 
z"/>
<path fill="#010101" opacity="1.000000" stroke="none" 
	d="
M1447.896240,471.185425 
	C1419.007080,471.286011 1391.539795,476.436493 1365.017456,486.678345 
	C1358.122192,489.341003 1351.007446,490.497955 1343.533325,490.115692 
	C1329.336304,489.389618 1320.137451,478.618256 1321.368530,464.391479 
	C1322.475342,451.598541 1328.851196,441.873535 1337.991089,433.591034 
	C1357.476196,415.933655 1380.996704,406.794037 1406.400146,402.138550 
	C1416.179810,400.346344 1426.229492,400.060944 1436.123291,398.826782 
	C1438.010986,398.591339 1440.245728,397.563568 1441.472778,396.160309 
	C1453.629639,382.257294 1452.669678,359.785339 1439.250977,345.774780 
	C1426.768066,332.741180 1412.124146,324.788208 1393.286255,325.713501 
	C1380.151611,326.358643 1366.957886,325.715546 1353.794556,325.917389 
	C1350.169556,325.972992 1347.892578,324.627441 1345.150635,322.312927 
	C1338.310791,316.539337 1335.769653,309.772125 1336.744141,300.932312 
	C1337.488647,294.179932 1335.248901,286.580414 1337.615234,280.670624 
	C1339.982178,274.759491 1347.015259,270.901917 1350.940308,265.387726 
	C1357.319214,256.426208 1365.448608,254.500488 1376.082764,254.586380 
	C1437.910522,255.085678 1499.744995,254.942200 1561.575684,254.686646 
	C1569.127930,254.655426 1575.180664,256.279419 1581.096191,261.143372 
	C1585.345581,264.637421 1587.885132,267.829254 1587.126343,273.461639 
	C1586.685181,276.735474 1586.626953,280.181488 1587.125366,283.438446 
	C1588.574219,292.904816 1585.173706,299.785431 1577.691772,305.683624 
	C1571.313110,310.712189 1565.759521,316.818970 1560.061523,322.663818 
	C1557.797363,324.986145 1555.502930,325.927856 1552.240112,325.909576 
	C1528.408081,325.776184 1504.575073,325.837799 1480.742310,325.837830 
	C1479.127319,325.837830 1477.512329,325.837799 1475.158203,325.837799 
	C1490.630981,353.124695 1487.124878,377.829681 1466.202026,399.801331 
	C1477.970337,402.040863 1489.039673,403.378906 1499.657227,406.337830 
	C1518.185425,411.501373 1533.322266,422.744171 1547.170776,435.685883 
	C1572.341431,459.208191 1590.286987,487.936951 1605.700684,518.361694 
	C1616.283203,539.250000 1626.547852,560.305298 1636.581055,581.463135 
	C1640.910522,590.593018 1644.311401,600.164307 1648.104858,609.546814 
	C1649.580933,613.197754 1650.020264,617.601868 1646.648682,619.564819 
	C1643.777832,621.236328 1638.908203,621.809387 1636.001343,620.490723 
	C1632.412842,618.862976 1629.137085,615.232117 1627.114868,611.677063 
	C1613.605225,587.928040 1599.461670,564.604614 1581.715576,543.734131 
	C1560.301880,518.550232 1536.452271,496.345581 1505.748047,482.554474 
	C1487.424438,474.324280 1468.055054,472.118774 1447.896240,471.185425 
z"/>
<path fill="#010101" opacity="1.000000" stroke="none" 
	d="
M2646.000000,325.837830 
	C2634.168213,325.837830 2622.817627,326.248016 2611.509033,325.736694 
	C2596.510742,325.058563 2582.925049,329.211426 2570.024414,336.295898 
	C2553.196533,345.536835 2538.656250,357.464630 2526.777588,372.674194 
	C2517.362061,384.730011 2512.381836,397.975159 2513.864014,413.416321 
	C2514.893799,424.141510 2515.747803,434.883545 2516.687256,445.697510 
	C2535.770264,444.924042 2554.063965,444.577789 2572.300049,443.364258 
	C2615.300049,440.502777 2653.785645,452.306030 2688.347900,477.763580 
	C2714.229248,496.827393 2735.197998,520.669678 2754.934326,545.724060 
	C2769.048340,563.640808 2783.137207,581.578918 2797.040283,599.658875 
	C2800.742188,604.473267 2804.756104,609.477356 2802.098877,616.439880 
	C2800.483398,620.673096 2797.718750,622.276062 2793.599365,620.251038 
	C2790.989502,618.968079 2788.519531,617.051331 2786.527588,614.914734 
	C2766.725342,593.675720 2745.973633,573.511230 2722.298340,556.525757 
	C2687.550293,531.596130 2649.235840,516.911255 2606.221191,514.719543 
	C2578.458496,513.304932 2551.037842,514.529541 2523.779053,520.419006 
	C2514.408203,522.443726 2504.630859,523.032532 2495.008789,523.345703 
	C2479.156250,523.861633 2471.481445,516.096069 2466.227783,500.143951 
	C2462.920410,490.102203 2465.148682,480.335205 2471.808838,472.464264 
	C2478.163086,464.954987 2485.816406,458.544891 2493.600342,450.968567 
	C2492.496826,444.679291 2490.870850,436.723541 2489.732178,428.698669 
	C2484.810791,394.008423 2493.933838,363.169739 2515.559082,335.835236 
	C2518.332520,332.329346 2517.131836,328.065796 2512.640381,327.071472 
	C2508.784424,326.217896 2504.733154,326.089142 2500.758057,325.962921 
	C2490.810059,325.647095 2487.021240,321.880920 2487.020752,311.993988 
	C2487.020508,302.995148 2486.870361,293.991882 2487.135742,285.000885 
	C2487.196045,282.965271 2488.220703,280.516357 2489.623535,279.037079 
	C2496.500732,271.785797 2503.535400,264.670898 2510.800537,257.810699 
	C2512.494141,256.211273 2515.301025,254.957306 2517.598877,254.952179 
	C2584.756592,254.802094 2651.914307,254.828964 2719.072266,254.833420 
	C2725.405762,254.833832 2732.086426,261.662170 2732.092773,268.115814 
	C2732.099365,274.614960 2731.721191,281.141998 2732.204102,287.605072 
	C2732.644531,293.505768 2730.423584,298.021301 2726.467041,301.840881 
	C2711.137451,316.639587 2693.857178,326.954773 2671.493896,325.901154 
	C2663.179932,325.509460 2654.832275,325.837830 2646.000000,325.837830 
z"/>
<path fill="#010101" opacity="1.000000" stroke="none" 
	d="
M287.223267,190.187103 
	C310.040436,154.113602 337.874512,123.381119 373.771027,100.418526 
	C398.540253,84.573944 425.713959,74.448906 453.969543,67.091644 
	C478.086548,60.812012 502.400757,55.291218 526.530457,49.058384 
	C546.677734,43.854256 565.224792,35.058174 581.976746,22.610186 
	C583.268066,21.650595 584.669739,20.839478 586.219666,19.829336 
	C587.971313,44.433659 580.689331,65.224648 563.030151,82.219086 
	C539.115295,105.233696 510.781494,120.210304 478.943817,128.956116 
	C449.951019,136.920456 420.707092,144.114899 392.101379,153.292847 
	C373.380768,159.299255 355.263245,167.533310 337.494812,176.059906 
	C320.362518,184.281235 306.564026,197.242447 293.849365,211.304016 
	C291.509552,213.891647 291.559265,216.188980 292.660278,218.975235 
	C293.793701,221.843353 293.063232,223.869370 290.424255,225.691299 
	C286.741791,228.233582 283.362122,231.214432 279.648865,234.169983 
	C271.636993,223.954758 264.109009,213.597260 255.803711,203.905853 
	C228.038147,171.506332 193.260300,151.726746 150.524277,146.993423 
	C141.442459,145.987534 132.242661,146.091949 123.111305,145.476151 
	C112.605080,144.767624 101.849342,143.610626 97.343613,132.090912 
	C92.417732,119.496994 92.468063,106.929192 101.654106,95.852020 
	C111.101311,84.459900 124.122673,79.802658 138.103409,77.026573 
	C162.795502,72.123566 184.026810,80.723816 203.736908,94.269806 
	C232.753601,114.211853 254.003799,141.088013 270.939819,171.586151 
	C275.361176,179.548035 279.228058,187.817841 283.454742,196.153625 
	C284.728699,194.136826 285.879517,192.314987 287.223267,190.187103 
z"/>
<path fill="#C57034" opacity="1.000000" stroke="none" 
	d="
M2018.817383,321.947327 
	C2017.597168,324.794037 2016.086670,326.146423 2012.996704,325.953949 
	C2007.851929,325.633484 2002.649170,326.147858 1997.520264,325.719086 
	C1995.636597,325.561615 1993.131226,324.169067 1992.206177,322.583435 
	C1984.326172,309.076721 1976.655396,295.444427 1969.190918,281.703644 
	C1968.287354,280.040436 1968.267456,277.184235 1969.063477,275.440033 
	C1971.821289,269.396362 1975.003052,263.532562 1978.302612,257.759888 
	C1979.048828,256.454407 1980.913452,254.970520 1982.276001,254.958008 
	C2001.923096,254.777359 2021.572266,254.834351 2041.901001,254.834351 
	C2041.122314,265.638275 2044.108765,276.235443 2037.882812,286.448822 
	C2030.968140,297.791901 2025.234497,309.855011 2018.817383,321.947327 
z"/>
<path fill="#C57034" opacity="1.000000" stroke="none" 
	d="
M885.646118,254.866791 
	C905.864990,254.840927 925.644165,254.840927 946.227051,254.840927 
	C945.228394,265.808990 948.409302,276.550751 942.044739,286.915588 
	C935.017334,298.359894 929.166321,310.534668 922.996765,322.491272 
	C921.647522,325.106323 920.056213,326.045532 917.174988,325.925232 
	C911.032654,325.668732 903.717957,327.768280 899.053711,325.103699 
	C894.430603,322.462646 892.396912,315.199066 889.363281,309.885406 
	C884.008728,300.506256 878.631653,291.134705 873.581543,281.592010 
	C872.701416,279.928986 872.674011,277.114960 873.467773,275.392395 
	C876.244507,269.366394 879.512085,263.563049 882.696655,257.731659 
	C883.286926,256.650787 884.357483,255.832260 885.646118,254.866791 
z"/>
<path fill="#FEFEFE" opacity="1.000000" stroke="none" 
	d="
M122.681358,354.683899 
	C136.716827,340.617645 152.294891,329.538330 172.031189,326.787750 
	C182.500061,325.328766 193.313477,325.691467 203.928574,326.173798 
	C210.403046,326.467957 214.826569,331.618195 217.460648,336.957489 
	C224.051331,350.316803 230.939087,363.688538 235.776474,377.721069 
	C246.169693,407.870239 250.868530,439.352661 255.001007,470.878387 
	C255.816757,477.101471 256.524811,483.338654 257.282532,489.569366 
	C256.752808,489.982300 256.223083,490.395264 255.693359,490.808197 
	C251.504974,486.178497 247.378311,481.491089 243.116791,476.929749 
	C229.660339,462.526398 215.322342,449.182800 198.337784,438.891449 
	C175.270187,424.914276 150.204163,419.182373 123.447052,420.403625 
	C114.150116,420.827942 104.877304,421.780945 95.114487,422.529205 
	C95.202583,396.567535 104.720093,374.137268 122.681358,354.683899 
z"/>
<path fill="#FEFEFE" opacity="1.000000" stroke="none" 
	d="
M623.882568,495.128113 
	C609.508911,476.917297 593.365295,461.223694 572.932800,450.517395 
	C562.468384,445.034119 551.151428,442.105347 539.377991,442.111389 
	C525.771484,442.118378 512.165405,442.956146 498.201111,443.445709 
	C498.194000,429.542267 500.983032,415.613251 506.198914,402.223358 
	C516.108337,376.784485 531.057678,354.925385 552.884399,338.127075 
	C563.326538,330.090576 574.764404,325.229553 588.332153,325.743286 
	C600.142700,326.190521 611.991028,326.081421 623.807800,325.725708 
	C629.136414,325.565277 632.687256,327.563599 634.244141,332.283722 
	C638.030029,343.761292 642.643616,355.151947 644.742188,366.965179 
	C651.080627,402.644165 657.037476,438.418884 661.885864,474.326050 
	C666.071045,505.321838 668.539001,536.549622 671.748901,567.676636 
	C671.935547,569.486389 671.967163,571.312134 672.019165,572.224365 
	C656.292542,547.018066 640.194031,521.215637 623.882568,495.128113 
z"/>
<path fill="#FEFEFE" opacity="1.000000" stroke="none" 
	d="
M2369.651611,515.346252 
	C2357.670410,495.697418 2343.550049,478.435913 2325.635986,464.327759 
	C2303.485107,446.882996 2278.187988,441.255981 2250.661865,443.417847 
	C2242.549316,444.054993 2234.451416,444.884003 2224.897705,445.757629 
	C2226.562744,436.117645 2227.485107,426.528290 2229.942139,417.349762 
	C2237.366211,389.614410 2251.223633,365.524628 2272.570068,346.037079 
	C2287.120361,332.753967 2303.773682,324.885315 2324.019287,325.762329 
	C2333.995117,326.194489 2344.014404,326.092682 2353.995605,325.728241 
	C2358.893066,325.549438 2362.350342,327.334839 2363.915039,331.562775 
	C2368.165039,343.045044 2373.334473,354.420715 2375.692383,366.323364 
	C2381.504150,395.661072 2386.974609,425.141815 2390.677002,454.802917 
	C2395.354980,492.278290 2398.147461,529.989136 2401.729492,567.600708 
	C2401.863281,569.007324 2401.746338,570.437866 2401.746338,572.430786 
	C2390.932129,553.170227 2380.397217,534.406860 2369.651611,515.346252 
z"/>
<path fill="#FEFEFE" opacity="1.000000" stroke="none" 
	d="
M1763.690796,546.708862 
	C1753.150269,556.925415 1740.537842,559.925354 1726.724121,558.948242 
	C1712.711182,557.957031 1698.896606,555.969666 1686.936035,547.730042 
	C1670.787354,536.605225 1663.787109,520.434753 1662.059326,501.543488 
	C1661.666870,497.252655 1661.652466,492.873047 1662.004883,488.578735 
	C1662.972656,476.783112 1668.934204,467.414612 1679.730225,463.408569 
	C1711.543701,451.603638 1743.149048,451.702301 1773.384033,468.899994 
	C1780.882446,473.165070 1784.996094,480.013214 1784.925415,489.052673 
	C1784.756714,510.705383 1779.435425,530.430664 1763.690796,546.708862 
z"/>
<path fill="#FEFEFE" opacity="1.000000" stroke="none" 
	d="
M1213.663208,526.349792 
	C1199.891235,506.783600 1184.768433,488.941254 1166.599976,473.759583 
	C1135.456299,447.735718 1099.660278,435.603119 1059.173462,437.397522 
	C1045.570679,438.000427 1031.988037,439.061066 1017.630615,439.960449 
	C1017.531738,439.214142 1017.144287,437.529449 1017.109680,435.837555 
	C1016.707092,416.157684 1024.053711,398.755463 1033.564819,382.184937 
	C1044.740234,362.714935 1059.467163,346.398682 1078.474609,334.135101 
	C1087.121216,328.556335 1096.552002,325.859344 1106.772827,325.849426 
	C1137.761597,325.819427 1168.751099,325.928162 1199.738525,325.719452 
	C1203.550171,325.693787 1205.092163,327.812653 1206.704102,330.248657 
	C1214.596069,342.175720 1218.949585,355.614960 1222.972656,369.158905 
	C1234.297363,407.284119 1240.990479,446.280640 1242.969849,485.942566 
	C1244.338867,513.373901 1244.094360,540.885925 1244.549438,568.362244 
	C1244.564819,569.293091 1244.347778,570.227722 1244.159180,571.847229 
	C1233.797729,556.372742 1223.841187,541.502930 1213.663208,526.349792 
z"/>
</svg>