<svg enable-background="new 0 0 4698 670" viewBox="0 0 4698 670" xmlns="http://www.w3.org/2000/svg"><path d="m3575 671c-1191.666748 0-2382.833374 0-3574 0 0-223.333344 0-446.666672 0-670h4698v670c-374.5 0-749 0-1124 0m-244.100342-187.752808c-21.490234-14.591644-37.236328-34.371276-48.994385-57.067932-33.962646-65.558746-46.871826-134.848724-33.784423-208.035461 7.0625-39.494019 23.023925-75.426514 50.609375-104.783478 49.997802-53.208355 112.228759-70.461826 183.029296-57.03426 37.707032 7.151284 66.923584 28.092549 86.362061 61.520893 15.590332 26.810181 22.53418 56.345291 22.687012 87.005677.527588 105.814117.289551 211.63208.342773 317.448577.000977 2.106873 0 4.213685 0 6.461731h43.84961c0-2.185607-.000245-4.139892-.000245-6.094177 0-95.485199.040528-190.970428-.043701-286.455566-.012695-14.317871-.200439-28.659012-1.029052-42.947525-1.435303-24.747864-6.421875-48.777268-15.91504-71.803421-21.087158-51.148354-57.46875-85.797043-110.615478-101.96662-35.866943-10.912255-72.447998-11.888073-109.227539-5.432096-48.303467 8.478819-90.367188 29.488872-124.848877 64.530155-41.643311 42.318649-63.616699 94.1371-71.229736 152.425491-6.296631 48.209702-2.15503 95.75795 11.110595 142.420243 12.432862 43.732452 32.083008 83.652374 65.292969 115.674041 33.605957 32.403565 73.410645 47.41333 120.272705 40.951294 33.811768-4.662475 61.034668-21.261566 80.394776-49.001465 27.532958-39.450805 32.657714-83.190033 18.842773-128.702362-11.224609-36.9794-35.186035-61.663665-74.811279-67.495422-44.561036-6.558166-85.195069 16.407166-104.908448 58.280273-13.317871 28.288483-13.838867 57.894989-6.814941 87.91742 4.280029 18.294769 11.798096 35.300659 20.396973 52.074127 0 0-.335694.360748-.967774.109863m-3185.99881-.001587c-17.29042-11.442108-30.341552-26.889953-41.394744-44.150573-21.519166-33.604065-33.957947-70.654206-41.124875-109.645386-7.431114-40.428528-7.92659-80.805267 1.693264-120.98233 10.89663-45.509491 32.106163-85.111237 69.185913-114.585152 48.286515-38.381927 103.570099-50.006863 163.30246-37.309212 53.479706 11.368485 85.678192 46.301194 100.694885 98.069763 6.041779 20.828461 7.879639 42.157105 7.883912 63.712021.020202 101.496918.009124 202.993866.009155 304.490784 0 1.936462.00003 3.872925.00003 5.810242h43.698212c0-1.643555.000031-2.952942 0-4.262329-.001251-102.996888.095581-205.993927-.05249-308.99057-.058502-40.704468-7.313446-79.84549-27.41156-115.855462-17.946137-32.154266-43.476715-56.429744-77.11258-71.401678-45.936615-20.447198-93.833877-22.493427-142.389846-12.027584-58.005112 12.502526-104.487023 43.239577-139.029595 91.449381-33.400232 46.615509-47.692848 99.600449-49.441771 156.242539-1.395964 45.210876 5.269158 89.36206 20.867419 131.917175 14.05888 38.355408 33.909534 73.1203 65.418308 100.102722 29.326584 25.113648 63.008515 37.813049 102.001282 35.399841 35.585129-2.202331 65.440231-16.545959 87.002212-44.65393 34.188935-44.568299 39.239594-94.246521 18.768952-145.838929-12.350739-31.127716-35.817139-50.810241-69.90271-55.899017-44.231064-6.603454-87.747315 17.871948-105.634567 58.769043-12.468689 28.508179-13.586335 57.648285-6.451928 87.490662 4.363274 18.251098 11.298256 35.479736 20.381676 52.043609 0 0-.329437.351593-.961014.10437m400.734162-124.108459c-9.092224 15.51062-12.553467 32.467865-12.730591 50.21991-.402405 40.326782 15.461487 73.161224 47.941406 96.652038 38.274903 27.681946 81.57898 33.276001 126.118958 20.195679 49.590637-14.563568 79.732177-48.857544 90.057495-99.701172 2.07074-10.196991 2.369934-20.828644 2.704162-31.284851.44043-13.775269.108338-27.575226.108338-41.340424h51.557617c-.896362 1.828583-1.584717 3.123993-2.179077 4.461152-15.392578 34.626892-19.805786 70.247558-9.29834 107.085693 5.825684 20.42392 15.482239 38.73999 32.418457 52.154358 20.587158 16.305969 43.282959 19.534668 67.37854 8.492554 17.203247-7.883606 29.387756-21.324189 37.6698-37.928315 24.078064-48.272308 13.248718-105.228607-26.704895-141.494384-6.429016-5.835633-13.854736-10.573273-21.141174-16.060578 20.369567-7.620148 41.129699-9.842407 62.211914-4.875366 47.470153 11.184143 72.916931 62.070618 59.293029 108.016357-6.071899 20.477326-17.905883 37.404572-33.427795 51.838501-2.466614 2.29364-3.266296 4.189514-1.943848 7.639344 3.905945 10.189087 7.428528 20.532959 10.806702 30.912109 1.164551 3.577942 2.579834 5.022827 6.766602 5.013428 79.491943-.178406 158.984497-.131531 238.476806-.131531 1.742676 0 3.485474-.000061 5.466187-.000061v133.051941h43.342285c0-44.505615 0-88.593079 0-133.194397h49.958984c0-13.915222 0-27.311524 0-41.007569-16.808716 0-33.270996 0-49.984253 0 0-2.117279.000122-3.928436.000122-5.739562-.000122-68.660096-.03479-137.320191.021607-205.980225.015869-19.380035-2.669312-38.137573-11.421021-55.709915-17.773071-35.685807-52.596069-48.605866-89.510376-38.334763-24.419555 6.794541-42.849975 22.519013-56.725952 43.403778-30.147583 45.375305-35.932861 94.850922-22.817261 146.834259 10.910767 43.244568 33.404786 79.868195 66.377198 109.98703 2.030517 1.854706 3.981079 3.796662 6.552978 6.256745-49.621826 0-98.357544 0-147.586914 0 2.567261-3.238526 4.797119-5.927002 6.893677-8.715576 21.189697-28.183686 29.709595-59.658356 23.380737-94.505921-11.173584-61.521606-65.473755-104.619873-128.022461-102.23175-29.542114 1.127929-56.821655 8.923614-80.339782 27.383087-4.454468 3.496277-8.451844 4.833221-14.188355 4.641876-22.639404-.75528-45.305298-.719757-67.961365-.9729-1.74353-.019471-3.487487-.002503-4.995117-.002503 0-30.820434 0-60.892242 0-91.361969h85.013306c0-13.80513 0-27.206085 0-40.477997-86.564758 0-172.800293 0-259.317261 0v131.650055c-43.10791 5.632935-63.309021 16.922547-80.221069 45.161835m3457.305908 48.362854c.015137-22.999115-.212647-46.001831.124512-68.996216.260742-17.80368.291504-35.694855 2.137451-53.368225 1.971435-18.878693 7.45874-36.920395 21.41626-51.05748 9.684814-9.80896 21.291259-13.807647 34.987304-11.347854 16.382325 2.942199 25.424317 14.259094 31.717041 28.322784 9.047119 20.218964 10.564698 41.838959 10.616455 63.573517.069336 29.332031-.337402 58.664825-.385742 87.997528-.036621 21.910339 1.868653 43.539947 9.567871 64.347412 8.784668 23.742432 23.463379 42.371643 46.254395 54.011627 15.584961 7.959778 32.414551 10.924317 49.722168 11.228455 25.375488.445984 48.750976-6.128235 69.354492-21.239624 23.473633-17.216278 38.724121-40.48053 48.426758-67.574585 16.085449-44.917877 16.811523-90.672211 6.373047-136.783081-9.876953-43.629212-30.42041-81.897812-60.342285-115.013443-10.087403-11.163971-21.282227-21.326691-31.978028-31.953888-10.776367 11.01004-20.752441 21.202255-30.019531 30.67012 12.080566 12.799713 25.35498 25.312378 36.818848 39.308121 31.530761 38.49321 48.564941 82.67363 48.595214 132.792953.018067 30.538056-5.004394 60.100373-20.232421 87.078888-15.810059 28.00998-38.106934 45.446778-72.289063 42.555207-20.573242-1.740357-36.513672-10.532746-45.884277-29.570771-6.900391-14.018982-9.745117-29.100036-10.016602-44.478637-.604492-34.322052-.585937-68.655793-.71582-102.985169-.081055-21.409393-1.897949-42.580444-8.344238-63.120529-7.81836-24.911087-19.742188-47.275543-43.055176-60.953766-32.329102-18.968475-69.839112-17.538986-97.577637 13.081909-8.075195 8.914032-14.394043 19.41864-21.313476 28.913605-6.898682-10.752197-15.314698-21.693848-26.628174-29.97287-36.529053-26.731354-76.917969-30.425888-118.778076-17.113342-42.778321 13.604523-70.517334 44.583755-89.352051 84.187393-12.203369 25.659454-18.733399 52.907898-21.537354 81.126251-3.950928 39.760651-1.899414 78.90799 12.647705 116.579621 8.161866 21.136444 19.766602 40.031891 39.396729 52.710144 22.393799 14.463073 45.800781 16.015991 69.703125 4.330261 19.105957-9.34082 30.699219-25.830322 38.861328-44.661835 12.420166-28.654327 14.76123-58.581512 8.492187-89.069031-4.439697-21.589904-13.33081-41.121002-29.15039-56.964202-23.074707-23.109772-52.838379-26.106781-79.823731-7.808258-5.619873 3.810516-10.548095 8.640625-15.824707 13.025482.036621-.738251-.013183-1.580078.13208-2.386689 4.59961-25.51477 13.110596-49.526947 28.036133-70.919281 18.722168-26.833648 42.964356-44.908096 76.908203-46.517715 28.717285-1.36174 52.090088 9.173233 68.907959 32.799515 13.899658 19.526153 19.675782 41.951782 19.844727 65.450653.49292 68.495727.230469 136.996857.26416 205.49588.000977 1.7901 0 3.580261 0 5.473816h43.941895c0-40.265839 0-80.23523.000732-121.204651m-1064.698486 79.231018c15.494873-18.587128 25.780517-39.758606 28.755127-63.749756 1.896484-15.295502 1.626953-30.868805 2.128662-46.324096.247558-7.626954.042968-15.268616.042968-23.843445 18.44751.727905 36.655518-.240052 54.275635 2.531128 27.413086 4.31137 45.351319 21.296447 52.865235 48.185577 7.478515 26.763031-4.010254 59.196259-26.175538 75.928406-21.307128 16.084442-46.083007 17.395233-67.949951 3.260772-5.258545-3.398925-9.934814-7.698425-15.112793-11.767669-8.515869 9.265411-17.039795 18.539581-25.752197 28.018921 2.727783 2.516418 5.152588 4.753998 7.578369 6.990417 32.402588 29.876496 71.713135 33.761322 107.533936 16.987641 42.479248-19.891571 64.721435-54.74527 65.604004-101.975434.851562-45.569061-28.049561-85.312073-71.358399-99.797424-14.52417-4.857819-29.456299-6.912537-44.701172-6.997192-12.121093-.067292-24.242431-.01355-36.582763-.01355 0-30.524201 0-60.602204 0-91.285462h85.229492c0-13.877884 0-27.149597 0-40.580719-86.411865 0-172.611572 0-259.237549 0v131.602326c-6.009033.713379-11.65625 1.097992-17.195068 2.089996-26.411133 4.730316-47.554444 17.698547-61.673828 40.857056-14.001465 22.965271-16.982666 47.978149-12.600098 74.156189 5.426025 32.40921 21.947266 57.906616 48.657226 76.683288 26.619141 18.712952 56.682618 25.765991 88.865967 24.349366 38.20752-1.681946 70.708252-15.898987 96.802735-45.306336m-1328.651734-7.231079v49.243469h43.64563c0-101.961395 0-203.668091 0-305.895691h64.369873c0-13.781372 0-27.038635 0-40.559662-88.94519 0-177.651855 0-266.416138 0v346.304352h43.3844c0-102.003845 0-203.600982 0-305.276703h115.015747c0 85.271698 0 170.227967.000488 256.184235m2816.178345-297.479279c-.589844 1.789383-1.693848 3.57837-1.695313 5.368241-.082031 111.974807-.07373 223.949661-.07373 335.924515v5.271789h43.575195c0-102.004822 0-203.595795 0-305.184174h115.403321v305.208832h43.357422c0-101.97525 0-203.561126 0-305.667221h64.147949c0-13.905868 0-27.287384 0-40.939407-88.160157 0-175.959473 0-264.714844.017425m-1509.70459-106.618316c11.010254 13.460823 25.347168 18.371391 41.898926 14.19825 15.770996-3.97638 25.98999-14.668061 29.176025-30.832509 3.565186-18.085121-6.086425-35.561346-23.042724-43.212908-16.035401-7.23599-35.675293-2.808485-46.729004 10.534531-12.240235 14.774741-12.89624 33.11463-1.303223 49.312636z" fill="#fff"/><path d="m545.810181 358.814087c16.736877-27.916229 36.937988-39.205841 80.045898-44.838776 0-43.748749 0-87.536239 0-131.650055h259.317261v40.477997c-28.216919 0-56.453491 0-85.013306 0v91.361969c1.50763 0 3.251587-.016968 4.995117.002503 22.656067.253143 45.321961.21762 67.961365.9729 5.736511.191345 9.733887-1.145599 14.188355-4.641876 23.518127-18.459473 50.797668-26.255158 80.339782-27.383087 62.548706-2.388123 116.848877 40.710144 128.022461 102.23175 6.328858 34.847565-2.19104 66.322235-23.380737 94.505921-2.096558 2.788574-4.326416 5.47705-6.893677 8.715576h147.586914c-2.571899-2.460083-4.522461-4.402039-6.552978-6.256745-32.972412-30.118835-55.466431-66.742462-66.377198-109.98703-13.1156-51.983337-7.330322-101.458954 22.817261-146.834259 13.875977-20.884765 32.306397-36.609237 56.725952-43.403778 36.914307-10.271103 71.737305 2.648956 89.510376 38.334763 8.751709 17.572342 11.43689 36.32988 11.421021 55.709915-.056397 68.660034-.021729 137.320129-.021607 205.980225 0 1.811126-.000122 3.622283-.000122 5.739562h49.984253v41.007569c-16.452514 0-33.018432 0-49.958984 0v133.194397c-14.613892 0-28.851563 0-43.342285 0 0-44.087708 0-88.202454 0-133.051941-1.980713 0-3.723511.000061-5.466187.000061-79.492309 0-158.984863-.046875-238.476806.131531-4.186768.009399-5.602051-1.435486-6.766602-5.013428-3.378174-10.37915-6.900757-20.723022-10.806702-30.912109-1.322448-3.44983-.522766-5.345704 1.943848-7.639344 15.521912-14.433929 27.355896-31.361175 33.427795-51.838501 13.623902-45.945739-11.822876-96.832214-59.293029-108.016357-21.082215-4.967041-41.842347-2.744782-62.211914 4.875366 7.286438 5.487305 14.712158 10.224945 21.141174 16.060578 39.953613 36.265777 50.782959 93.222076 26.704895 141.494384-8.282044 16.604126-20.466553 30.044709-37.6698 37.928315-24.095581 11.042114-46.791382 7.813415-67.37854-8.492554-16.936218-13.414368-26.592773-31.730438-32.418457-52.154358-10.507446-36.838135-6.094238-72.458801 9.29834-107.085693.59436-1.337159 1.282715-2.632569 2.179077-4.461152-17.378784 0-34.219971 0-51.557617 0 0 13.765198.332092 27.565155-.108338 41.340424-.334228 10.456207-.633422 21.08786-2.704162 31.284851-10.325318 50.843628-40.466858 85.137604-90.057495 99.701172-44.539978 13.080322-87.844055 7.486267-126.118958-20.195679-32.479919-23.490814-48.343811-56.325256-47.941406-96.652038.177124-17.752045 3.638367-34.70929 12.905762-50.542969m53.944946 107.933258c5.996399 4.165771 11.643799 8.993256 18.053833 12.374908 20.258179 10.687226 41.959717 13.361115 64.462769 9.909882 41.276977-6.330597 68.016784-37.447174 72.41101-75.050323 2.287232-19.571808 1.037415-39.557129 1.362366-59.356049.004395-.265747-.291565-.536438-.638001-1.133392-1.626586 0-3.440185 0-5.253784 0-25.820495 0-51.641174-.057343-77.461425.021087-15.98761.048554-31.990723-.089386-47.957825.564514-20.25708.829621-39.391358 16.065033-44.988648 35.490509-8.438476 29.285737-1.607666 54.838532 20.009705 77.178864m677.244385-102.247345c0-28.650116.37207-57.307495-.188111-85.946625-.216064-11.048156-1.59497-22.278747-4.116821-33.034012-5.289673-22.561081-24.190185-31.685989-45.738892-23.167984-9.78894 3.869477-17.23059 10.699097-23.549316 18.733658-15.052002 19.139817-22.35144 41.528855-25.178589 65.284226-4.183594 35.154144 3.641724 68.138275 20.213257 99.175872 15.54895 29.122223 37.060791 53.498627 60.503418 76.430787 5.366699 5.249725 10.738037 7.027984 18.055054 5.323394 0-40.581207 0-81.190246 0-122.799316m-520.831177-64.004517c0-25.745575 0-51.491134 0-77.251815-29.817017 0-59.055786 0-88.459595 0v90.571365h88.459595c0-4.341705 0-8.331238 0-13.31955m190.485474 145.529572c1.110962-14.282379-.172303-28.247925-5.406983-41.714478-8.664673-22.290619-25.226623-35.997345-47.43573-44.19934-1.45581 2.472107-2.819519 4.540374-3.9422 6.732147-13.178344 25.7276-15.436401 53.051574-11.331298 81.142547 1.899475 12.997803 6.260009 25.170136 15.284729 35.18039 6.332153 7.023651 14.029968 10.68103 23.607605 8.779693 7.425293-1.474029 12.822631-6.265045 17.167419-12.095825 7.251587-9.731781 10.33844-21.091339 12.056458-33.825134z" fill="#010101"/><path d="m4002.94043 408c-.000244 40.469421-.000244 80.438812-.000244 120.704651-14.78711 0-29.170655 0-43.941895 0 0-1.893555.000977-3.683716 0-5.473816-.033691-68.499023.22876-137.000153-.26416-205.49588-.168945-23.498871-5.945069-45.9245-19.844727-65.450653-16.817871-23.626282-40.190674-34.161255-68.907959-32.799515-33.943847 1.609619-58.186035 19.684067-76.908203 46.517715-14.925537 21.392334-23.436523 45.404511-28.036133 70.919281-.145263.806611-.095459 1.648438-.13208 2.386689 5.276612-4.384857 10.204834-9.214966 15.824707-13.025482 26.985352-18.298523 56.749024-15.301514 79.823731 7.808258 15.81958 15.8432 24.710693 35.374298 29.15039 56.964202 6.269043 30.487519 3.927979 60.414704-8.492187 89.069031-8.162109 18.831513-19.755371 35.321015-38.861328 44.661835-23.902344 11.68573-47.309326 10.132812-69.703125-4.330261-19.630127-12.678253-31.234863-31.5737-39.396729-52.710144-14.547119-37.671631-16.598633-76.81897-12.647705-116.579621 2.803955-28.218353 9.333985-55.466797 21.537354-81.126251 18.834717-39.603638 46.57373-70.58287 89.352051-84.187393 41.860107-13.312546 82.249023-9.618012 118.778076 17.113342 11.313476 8.279022 19.729492 19.220673 26.628174 29.97287 6.919433-9.494965 13.238281-19.999573 21.313476-28.913605 27.738525-30.620895 65.248535-32.050384 97.577637-13.081909 23.312988 13.678223 35.236816 36.042679 43.055176 60.953766 6.446289 20.540085 8.263183 41.711136 8.344238 63.120529.129883 34.329376.111328 68.663117.71582 102.985169.271485 15.378601 3.116211 30.459655 10.016602 44.478637 9.370605 19.038025 25.311035 27.830414 45.884277 29.570771 34.182129 2.891571 56.479004-14.545227 72.289063-42.555207 15.228027-26.978515 20.250488-56.540832 20.232421-87.078888-.030273-50.119323-17.064453-94.299743-48.595214-132.792953-11.463868-13.995743-24.738282-26.508408-36.818848-39.308121 9.26709-9.467865 19.243164-19.66008 30.019531-30.67012 10.695801 10.627197 21.890625 20.789917 31.978028 31.953888 29.921875 33.115631 50.465332 71.384231 60.342285 115.013443 10.438476 46.11087 9.712402 91.865204-6.373047 136.783081-9.702637 27.094055-24.953125 50.358307-48.426758 67.574585-20.603516 15.111389-43.979004 21.685608-69.354492 21.239624-17.307617-.304138-34.137207-3.268677-49.722168-11.228455-22.791016-11.639984-37.469727-30.269195-46.254395-54.011627-7.699218-20.807465-9.604492-42.437073-9.567871-64.347412.04834-29.332703.455078-58.665497.385742-87.997528-.051757-21.734558-1.569336-43.354553-10.616455-63.573517-6.292724-14.06369-15.334716-25.380585-31.717041-28.322784-13.696045-2.459793-25.30249 1.538894-34.987304 11.347854-13.95752 14.137085-19.444825 32.178787-21.41626 51.05748-1.845947 17.67337-1.876709 35.564545-2.137451 53.368225-.337159 22.994385-.109375 45.997101-.125 69.496216m-189.873535 84.050842c12.237548-1.990295 19.610351-10.172455 24.788085-20.44577 9.939454-19.720489 12.904541-40.83255 10.658448-62.642487-1.341797-13.030761-4.881104-25.43811-12.356934-36.519683-12.670898-18.782044-34.277099-23.092072-50.202148-9.001435-5.579834 4.937317-10.491455 11.491791-13.540528 18.281281-14.810547 32.977722-10.668945 64.686737 9.088135 94.326324 6.975098 10.464295 16.851074 17.584046 31.564942 16.00177z" fill="#010101"/><path d="m146.205078 482.803101c-9.426636-16.225739-16.361618-33.454377-20.724892-51.705475-7.134407-29.842377-6.016761-58.982483 6.451928-87.490662 17.887252-40.897095 61.403503-65.372497 105.634567-58.769043 34.085571 5.088776 57.551971 24.771301 69.90271 55.899017 20.470642 51.592408 15.419983 101.27063-18.768952 145.838929-21.561981 28.107971-51.417083 42.451599-87.002212 44.65393-38.992767 2.413208-72.674698-10.286193-102.001282-35.399841-31.508774-26.982422-51.359428-61.747314-65.418308-100.102722-15.598261-42.555115-22.263383-86.706299-20.867419-131.917175 1.748923-56.64209 16.041539-109.62703 49.441771-156.242539 34.542572-48.209804 81.024483-78.946855 139.029595-91.449381 48.555969-10.465843 96.453231-8.419614 142.389846 12.027584 33.635865 14.971934 59.166443 39.247412 77.11258 71.401678 20.098114 36.009972 27.353058 75.150994 27.41156 115.855462.148071 102.996643.051239 205.993682.05249 308.99057.000031 1.309387 0 2.618774 0 4.262329-14.57962 0-28.810791 0-43.698212 0 0-1.937317-.00003-3.87378-.00003-5.810242-.000031-101.496918.011047-202.993866-.009155-304.490784-.004273-21.554916-1.842133-42.88356-7.883912-63.712021-15.016693-51.768569-47.215179-86.701278-100.694885-98.069763-59.732361-12.697651-115.015945-1.072715-163.30246 37.309212-37.07975 29.473915-58.289283 69.075661-69.185913 114.585152-9.619854 40.177063-9.124378 80.553802-1.693264 120.98233 7.166928 38.99118 19.605709 76.041321 41.124875 109.645386 11.053192 17.26062 24.104324 32.708465 41.913818 44.454468.765884.27481 1.01268.245697 1.259476.216583-.158112-.320984-.316208-.641999-.47432-.962982m75.843125 6.827209c20.11412-7.014893 34.186904-20.60022 43.5475-39.539703 5.929779-11.997864 8.931183-24.733765 9.996521-37.910645 1.573364-19.460113.29483-38.458526-8.364441-56.6044-15.669159-32.835419-52.773651-35.85431-76.121185-21.829834-19.481522 11.70224-28.572754 30.215972-32.044006 51.748291-3.833252 23.777862 1.117919 46.777862 8.337783 69.264343 4.225632 13.160888 9.718354 25.872314 18.909272 36.61087 2.25299 2.632385 4.543716 4.183563 8.090698 3.512848 8.961975-1.69458 17.936752-3.321503 27.647858-5.25177z" fill="#c47034"/><path d="m3332.217773 482.790955c-8.949218-16.427094-16.467285-33.432984-20.747314-51.727753-7.023926-30.022431-6.50293-59.628937 6.814941-87.91742 19.713379-41.873107 60.347412-64.838439 104.908448-58.280273 39.625244 5.831757 63.58667 30.516022 74.811279 67.495422 13.814941 45.512329 8.690185 89.251557-18.842773 128.702362-19.360108 27.739899-46.583008 44.33899-80.394776 49.001465-46.86206 6.462036-86.666748-8.547729-120.272705-40.951294-33.209961-32.021667-52.860107-71.941589-65.292969-115.674041-13.265625-46.662293-17.407226-94.210541-11.110595-142.420243 7.613037-58.288391 29.586425-110.106842 71.229736-152.425491 34.481689-35.041283 76.54541-56.051336 124.848877-64.530155 36.779541-6.455977 73.360596-5.480159 109.227539 5.432096 53.146728 16.169577 89.52832 50.818266 110.615478 101.96662 9.493165 23.026153 14.479737 47.055557 15.91504 71.803421.828613 14.288513 1.016357 28.629654 1.029052 42.947525.084229 95.485138.043701 190.970367.043701 286.455566 0 1.954285.000245 3.90857.000245 6.094177-14.721924 0-28.973389 0-43.84961 0 0-2.248046.000977-4.354858 0-6.461731-.053222-105.816497.184815-211.63446-.342773-317.448577-.152832-30.660386-7.09668-60.195496-22.687012-87.005677-19.438477-33.428344-48.655029-54.369609-86.362061-61.520893-70.800537-13.427566-133.031494 3.825905-183.029296 57.03426-27.58545 29.356964-43.546875 65.289459-50.609375 104.783478-13.087403 73.186737-.178223 142.476715 33.784423 208.035461 11.758057 22.696656 27.504151 42.476288 49.516602 57.376038.771484.279419 1.020264.250793 1.269287.222168-.157715-.328827-.315674-.657654-.473389-.986511m112.17627-140.663941c-19.123535-20.772858-49.665772-20.063171-69.472656-6.999237-13.975586 9.21756-22.234375 22.645844-27.03418 38.371643-4.347656 14.243561-4.796631 28.75827-2.899658 43.470551 2.941894 22.818542 9.208984 44.515625 20.309326 64.799102 5.499756 10.050019 12.453613 16.18863 24.667725 12.243958.154296-.049805.331787-.024353.495849-.049103 25.68335-3.866241 46.02417-15.851776 58.727295-39.109924 12.081543-22.119843 15.028076-45.955383 12.237549-70.641541-1.727539-15.284637-6.370361-29.570251-17.03125-42.085449z" fill="#c47034"/><path d="m2938.012695 487.001801c-25.864746 29.136566-58.365478 43.353607-96.572998 45.035553-32.183349 1.416625-62.246826-5.636414-88.865967-24.349366-26.70996-18.776672-43.231201-44.274078-48.657226-76.683288-4.382568-26.17804-1.401367-51.190918 12.600098-74.156189 14.119384-23.158509 35.262695-36.12674 61.673828-40.857056 5.538818-.992004 11.186035-1.376617 17.195068-2.089996 0-43.808899 0-87.556259 0-131.602326h259.237549v40.580719c-28.328125 0-56.691895 0-85.229492 0v91.285462c12.340332 0 24.46167-.053742 36.582763.01355 15.244873.084655 30.177002 2.139373 44.701172 6.997192 43.308838 14.485351 72.209961 54.228363 71.358399 99.797424-.882569 47.230164-23.124756 82.083863-65.604004 101.975434-35.820801 16.773681-75.131348 12.888855-107.533936-16.987641-2.425781-2.236419-4.850586-4.473999-7.578369-6.990417 8.712402-9.47934 17.236328-18.75351 25.752197-28.018921 5.177979 4.069244 9.854248 8.368744 15.112793 11.767669 21.866944 14.134461 46.642823 12.82367 67.949951-3.260772 22.165284-16.732147 33.654053-49.165375 26.175538-75.928406-7.513916-26.88913-25.452149-43.874207-52.865235-48.185577-17.620117-2.77118-35.828125-1.803223-54.275635-2.531128 0 8.574829.20459 16.216491-.042968 23.843445-.501709 15.455291-.232178 31.028594-2.128662 46.324096-2.97461 23.99115-13.260254 45.162628-28.984864 64.020539m-176.915283-117.408509c-2.165527 2.738159-4.576416 5.318085-6.458008 8.239166-17.827636 27.674531-8.173095 72.565461 19.790039 93.243165 23.006592 17.012847 48.826416 22.216552 76.611573 17.939697 34.342041-5.286102 57.351562-24.793488 69.096679-57.45752 9.121094-25.365875 4.465821-51.70993 5.869385-77.796295-1.273193-.132507-1.912842-.257172-2.552734-.257324-40.165772-.009277-80.331787-.020966-120.497559-.002258-15.730225.007324-29.92456 4.15863-41.859375 16.091369m164.734619-139.005722c0-2.436325 0-4.872635 0-7.256729-29.954101 0-59.327392 0-88.573242 0v90.475037h88.573242c0-27.653778 0-54.94748 0-83.218308z" fill="#010101"/><path d="m1609.590454 478.999939c-.000244-85.456268-.000244-170.412537-.000244-255.684235-38.481812 0-76.540161 0-115.015747 0v305.276703c-14.617432 0-28.827026 0-43.3844 0 0-115.284851 0-230.650665 0-346.304352h266.416138v40.559662c-21.352051 0-42.585693 0-64.369873 0v305.895691c-14.648315 0-28.742798 0-43.64563 0 0-16.441589 0-32.842529-.000244-49.743469z" fill="#c46f33"/><path d="m4426.24707 182.011948c88.277344-.008713 176.07666-.008713 264.236817-.008713v40.939407c-21.316895 0-42.549317 0-64.147949 0v305.667221c-14.567872 0-28.767579 0-43.357422 0 0-101.657898 0-203.23294 0-305.208832-38.584961 0-76.786621 0-115.403321 0v305.184174c-14.60205 0-28.798828 0-43.575195 0 0-1.724426 0-3.498108 0-5.271789 0-111.974854-.008301-223.949708.07373-335.924515.001465-1.789871 1.105469-3.578858 2.17334-5.376953z" fill="#c46f33"/><path d="m2915.844238 75.121811c-11.372802-15.917473-10.716797-34.257362 1.523438-49.032103 11.053711-13.343016 30.693603-17.770521 46.729004-10.534531 16.956299 7.651562 26.60791 25.127787 23.042724 43.212908-3.186035 16.164448-13.405029 26.856129-29.176025 30.832509-16.551758 4.173141-30.888672-.737427-42.119141-14.478783z" fill="#020202"/><g fill="#fefefe"><path d="m599.502441 466.499817c-21.364685-22.092804-28.195495-47.645599-19.757019-76.931336 5.59729-19.425476 24.731568-34.660888 44.988648-35.490509 15.967102-.6539 31.970215-.51596 47.957825-.564514 25.820251-.07843 51.64093-.021087 77.461425-.021087h5.253784c.346436.596954.642396.867645.638001 1.133392-.324951 19.79892.924866 39.784241-1.362366 59.356049-4.394226 37.603149-31.134033 68.719726-72.41101 75.050323-22.503052 3.451233-44.20459.777344-64.462769-9.909882-6.410034-3.381652-12.057434-8.209137-18.306519-12.622436z"/><path d="m1276.999512 365v122.299316c-7.317017 1.70459-12.688355-.073669-18.055054-5.323394-23.442627-22.93216-44.954468-47.308564-60.503418-76.430787-16.571533-31.037597-24.396851-64.021728-20.213257-99.175872 2.827149-23.755371 10.126587-46.144409 25.178589-65.284226 6.318726-8.034561 13.760376-14.864181 23.549316-18.733658 21.548707-8.518005 40.449219.606903 45.738892 23.167984 2.521851 10.755265 3.900757 21.985856 4.116821 33.034012.560181 28.63913.188111 57.296509.188111 86.446625z"/><path d="m756.168335 300.994873v12.82016c-29.506714 0-58.874023 0-88.459595 0 0-30.138031 0-60.232407 0-90.571365h88.459595z"/><path d="m946.61853 446.476685c-1.682739 12.282165-4.769592 23.641723-12.021179 33.373504-4.344788 5.83078-9.742126 10.621796-17.167419 12.095825-9.577637 1.901337-17.275452-1.756042-23.607605-8.779693-9.02472-10.010254-13.385254-22.182587-15.284729-35.18039-4.105103-28.090973-1.847046-55.414947 11.331298-81.142547 1.122681-2.191773 2.48639-4.26004 3.9422-6.732147 22.209107 8.201995 38.771057 21.908721 47.43573 44.19934 5.23468 13.466553 6.517945 27.432099 5.371704 42.166108z"/><path d="m3812.618164 492.082184c-14.265137 1.550934-24.141113-5.568817-31.116211-16.033112-19.75708-29.639587-23.898682-61.348602-9.088135-94.326324 3.049073-6.78949 7.960694-13.343964 13.540528-18.281281 15.925049-14.090637 37.53125-9.780609 50.202148 9.001435 7.47583 11.081573 11.015137 23.488922 12.356934 36.519683 2.246093 21.809937-.718994 42.921998-10.658448 62.642487-5.177734 10.273315-12.550537 18.455475-25.236816 20.477112z"/></g><path d="m221.677475 489.768433c-9.340378 1.792144-18.315155 3.419067-27.27713 5.113647-3.546982.670715-5.837708-.880463-8.090698-3.512848-9.190918-10.738556-14.68364-23.449982-18.909272-36.61087-7.219864-22.486481-12.171035-45.486481-8.337783-69.264343 3.471252-21.532319 12.562484-40.046051 32.044006-51.748291 23.347534-14.024476 60.452026-11.005585 76.121185 21.829834 8.659271 18.145874 9.937805 37.144287 8.364441 56.6044-1.065338 13.17688-4.066742 25.912781-9.996521 37.910645-9.360596 18.939483-23.43338 32.52481-43.918228 39.677826z" fill="#fffefe"/><path d="m146.033478 482.972168c.329712.151916.487808.472931.64592.793915-.246796.029114-.493592.058227-.94368-.092957-.203293-.180298.126144-.531891.29776-.700958z" fill="#fff"/><path d="m3444.641846 342.380981c10.413086 12.261231 15.055908 26.546845 16.783447 41.831482 2.790527 24.686158-.156006 48.521698-12.237549 70.641541-12.703125 23.258148-33.043945 35.243683-58.727295 39.109924-.164062.02475-.341553-.000702-.495849.049103-12.214112 3.944672-19.167969-2.193939-24.667725-12.243958-11.100342-20.283477-17.367432-41.98056-20.309326-64.799102-1.896973-14.712281-1.447998-29.22699 2.899658-43.470551 4.799805-15.725799 13.058594-29.154083 27.03418-38.371643 19.806884-13.063934 50.349121-13.773621 69.720459 7.253204z" fill="#fffefe"/><path d="m3332.04248 482.964142c.333008.15567.490967.484497.648682.813324-.249023.028625-.497803.057251-.953125-.096741-.206299-.182648.129395-.543396.304443-.716583z" fill="#fff"/><path d="m2761.346191 369.342377c11.686036-11.681824 25.880371-15.83313 41.610596-15.840454 40.165772-.018708 80.331787-.007019 120.497559.002258.639892.000152 1.279541.124817 2.552734.257324-1.403564 26.086365 3.251709 52.43042-5.869385 77.796295-11.745117 32.664032-34.754638 52.171418-69.096679 57.45752-27.785157 4.276855-53.604981-.92685-76.611573-17.939697-27.963134-20.677704-37.617675-65.568634-19.790039-93.243165 1.881592-2.921081 4.292481-5.501007 6.706787-8.490081z" fill="#fefefe"/><path d="m2925.832031 231.076126v82.729752c-29.596679 0-58.954834 0-88.573242 0 0-29.984467 0-60.064347 0-90.475037h88.573242z" fill="#fefefe"/></svg>