<svg version="1.1" id="Layer_1" xmlns="http://www.w3.org/2000/svg" xmlns:xlink="http://www.w3.org/1999/xlink" x="0px" y="0px"
	 width="100%" viewBox="0 0 602 336" enable-background="new 0 0 602 336" xml:space="preserve">
<path fill="#FFFFFF" opacity="1.000000" stroke="none" 
	d="
M451.000000,337.000000 
	C301.034729,337.000000 151.069458,337.000000 1.052088,337.000000 
	C1.052088,225.060669 1.052088,113.121323 1.052088,1.090981 
	C201.559509,1.090981 402.119080,1.090981 602.839355,1.090981 
	C602.839355,112.999840 602.839355,224.999893 602.839355,337.000000 
	C555.576843,337.000000 508.254456,337.000000 460.496796,336.659973 
	C475.766327,320.687317 491.366821,304.947296 507.258789,289.507263 
	C510.678436,286.184875 511.856995,282.855621 511.841949,278.197357 
	C511.687866,230.376877 511.747528,182.555710 511.747528,134.734726 
	C511.747528,132.791275 511.747528,130.847839 511.747528,128.375412 
	C521.426453,128.375412 530.510620,128.375412 539.613525,128.375412 
	C539.613525,120.724815 539.613525,113.612877 539.613525,105.984543 
	C530.458008,105.984543 521.505981,106.166801 512.563965,105.944771 
	C496.359497,105.542412 481.787170,92.262550 480.197205,76.717751 
	C478.550049,60.614117 490.141449,43.174973 505.737732,40.348019 
	C514.970459,38.674511 524.631042,39.284218 534.103577,39.030701 
	C545.441345,38.727264 553.824341,43.934685 559.922974,53.255310 
	C566.604492,63.466843 569.242065,74.667076 569.215942,86.838509 
	C569.078308,150.821686 569.151733,214.805313 569.151855,278.788788 
	C569.151855,280.734100 569.151794,282.679413 569.151794,284.666687 
	C576.907410,284.666687 584.120544,284.666687 591.451416,284.666687 
	C591.534241,283.693237 591.637268,283.047119 591.637268,282.401001 
	C591.642822,216.418076 591.658630,150.435135 591.624329,84.452225 
	C591.617004,70.350319 588.311340,57.061855 580.831970,45.021896 
	C570.560974,28.488129 557.123901,16.658159 536.344055,16.538919 
	C526.685669,16.483498 516.992676,16.288284 507.372162,16.964506 
	C478.761383,18.975538 445.459351,51.584156 461.287537,92.374695 
	C463.052185,96.922379 465.701141,101.126915 468.234283,106.064178 
	C448.918365,106.064178 430.045563,106.064178 411.198883,106.064178 
	C411.198883,165.949890 411.198883,225.335205 411.198883,284.759338 
	C418.583588,284.759338 425.668640,284.759338 433.264282,284.759338 
	C433.264282,232.631531 433.264282,180.749146 433.264282,128.919281 
	C452.167877,128.919281 470.554871,128.919281 489.031830,128.919281 
	C489.114166,129.935562 489.212585,130.584106 489.212708,131.232681 
	C489.221954,177.720657 489.257965,224.208755 489.107117,270.696228 
	C489.100647,272.691223 487.814514,275.124359 486.361389,276.603882 
	C471.884186,291.343628 457.243286,305.922546 442.659332,320.557526 
	C441.434509,321.786621 440.287445,323.093201 439.222504,324.236755 
	C443.385498,328.748199 447.192749,332.874084 451.000000,337.000000 
M14.459834,262.952332 
	C16.484747,266.377716 18.167336,270.069702 20.592157,273.183685 
	C32.952576,289.056976 50.346165,296.636719 69.004593,302.006378 
	C91.973221,308.616425 115.558647,307.713104 138.980621,306.818970 
	C149.452423,306.419220 160.348465,304.546295 170.127304,300.877380 
	C202.971497,288.554626 226.335602,266.145569 238.315079,232.623184 
	C238.806885,231.246979 240.524002,229.374130 241.722870,229.334778 
	C250.340775,229.051773 258.972290,229.183334 268.154419,229.183334 
	C268.154419,255.330109 268.154419,281.054382 268.154419,306.970001 
	C275.818390,306.970001 282.922180,306.970001 290.139038,306.970001 
	C290.139038,239.906372 290.139038,173.050568 290.139038,106.309143 
	C282.646637,106.309143 275.556702,106.309143 268.154236,106.309143 
	C268.154236,123.258385 268.154236,139.895203 268.154236,156.532013 
	C268.154236,173.279419 268.154236,190.026810 268.154236,206.994675 
	C263.825928,206.994675 260.177643,206.994659 256.529388,206.994659 
	C252.784088,206.994659 249.038803,206.994675 245.106293,206.994675 
	C245.285446,205.460083 245.374924,204.638885 245.477936,203.819397 
	C251.039291,159.576416 219.512894,118.649277 177.588303,108.648048 
	C161.955414,104.918770 146.106522,105.663246 130.339844,106.298088 
	C111.627518,107.051521 94.776024,122.053505 90.333778,140.713959 
	C86.196083,158.095123 95.770401,179.692459 111.016678,189.114822 
	C130.375198,201.078583 157.399124,194.487671 170.665802,176.149017 
	C182.196472,160.210037 180.842438,143.050400 167.500427,131.921387 
	C166.425034,131.024384 165.302612,130.183792 163.853500,129.042450 
	C199.296524,127.517303 233.526627,174.209610 221.394196,206.994675 
	C219.649918,206.994675 217.826401,206.994659 216.002869,206.994659 
	C159.339310,206.994659 102.675705,207.030319 46.012226,206.963486 
	C35.156155,206.950684 26.159828,210.848999 19.219524,219.092896 
	C8.099325,232.301727 8.373678,246.984192 14.459834,262.952332 
M337.035645,106.500000 
	C337.035645,181.537964 337.035645,256.575928 337.035645,331.597168 
	C344.465210,331.597168 351.068878,331.597168 357.902466,331.597168 
	C357.902466,223.009903 357.902466,114.690590 357.902466,6.317402 
	C350.834564,6.317402 344.102936,6.317402 337.035675,6.317402 
	C337.035675,39.589474 337.035675,72.544739 337.035645,106.500000 
z"/>
<path fill="#363636" opacity="1.000000" stroke="none" 
	d="
M451.449982,337.000000 
	C447.192749,332.874084 443.385498,328.748199 439.222504,324.236755 
	C440.287445,323.093201 441.434509,321.786621 442.659332,320.557526 
	C457.243286,305.922546 471.884186,291.343628 486.361389,276.603882 
	C487.814514,275.124359 489.100647,272.691223 489.107117,270.696228 
	C489.257965,224.208755 489.221954,177.720657 489.212708,131.232681 
	C489.212585,130.584106 489.114166,129.935562 489.031830,128.919281 
	C470.554871,128.919281 452.167877,128.919281 433.264282,128.919281 
	C433.264282,180.749146 433.264282,232.631531 433.264282,284.759338 
	C425.668640,284.759338 418.583588,284.759338 411.198883,284.759338 
	C411.198883,225.335205 411.198883,165.949890 411.198883,106.064178 
	C430.045563,106.064178 448.918365,106.064178 468.234283,106.064178 
	C465.701141,101.126915 463.052185,96.922379 461.287537,92.374695 
	C445.459351,51.584156 478.761383,18.975538 507.372162,16.964506 
	C516.992676,16.288284 526.685669,16.483498 536.344055,16.538919 
	C557.123901,16.658159 570.560974,28.488129 580.831970,45.021896 
	C588.311340,57.061855 591.617004,70.350319 591.624329,84.452225 
	C591.658630,150.435135 591.642822,216.418076 591.637268,282.401001 
	C591.637268,283.047119 591.534241,283.693237 591.451416,284.666687 
	C584.120544,284.666687 576.907410,284.666687 569.151794,284.666687 
	C569.151794,282.679413 569.151855,280.734100 569.151855,278.788788 
	C569.151733,214.805313 569.078308,150.821686 569.215942,86.838509 
	C569.242065,74.667076 566.604492,63.466843 559.922974,53.255310 
	C553.824341,43.934685 545.441345,38.727264 534.103577,39.030701 
	C524.631042,39.284218 514.970459,38.674511 505.737732,40.348019 
	C490.141449,43.174973 478.550049,60.614117 480.197205,76.717751 
	C481.787170,92.262550 496.359497,105.542412 512.563965,105.944771 
	C521.505981,106.166801 530.458008,105.984543 539.613525,105.984543 
	C539.613525,113.612877 539.613525,120.724815 539.613525,128.375412 
	C530.510620,128.375412 521.426453,128.375412 511.747528,128.375412 
	C511.747528,130.847839 511.747528,132.791275 511.747528,134.734726 
	C511.747528,182.555710 511.687866,230.376877 511.841949,278.197357 
	C511.856995,282.855621 510.678436,286.184875 507.258789,289.507263 
	C491.366821,304.947296 475.766327,320.687317 460.030762,336.659973 
	C457.299988,337.000000 454.599976,337.000000 451.449982,337.000000 
z"/>
<path fill="#363636" opacity="1.000000" stroke="none" 
	d="
M14.302141,262.600464 
	C8.373678,246.984192 8.099325,232.301727 19.219524,219.092896 
	C26.159828,210.848999 35.156155,206.950684 46.012226,206.963486 
	C102.675705,207.030319 159.339310,206.994659 216.002869,206.994659 
	C217.826401,206.994659 219.649918,206.994675 221.394196,206.994675 
	C233.526627,174.209610 199.296524,127.517303 163.853500,129.042450 
	C165.302612,130.183792 166.425034,131.024384 167.500427,131.921387 
	C180.842438,143.050400 182.196472,160.210037 170.665802,176.149017 
	C157.399124,194.487671 130.375198,201.078583 111.016678,189.114822 
	C95.770401,179.692459 86.196083,158.095123 90.333778,140.713959 
	C94.776024,122.053505 111.627518,107.051521 130.339844,106.298088 
	C146.106522,105.663246 161.955414,104.918770 177.588303,108.648048 
	C219.512894,118.649277 251.039291,159.576416 245.477936,203.819397 
	C245.374924,204.638885 245.285446,205.460083 245.106293,206.994675 
	C249.038803,206.994675 252.784088,206.994659 256.529388,206.994659 
	C260.177643,206.994659 263.825928,206.994675 268.154236,206.994675 
	C268.154236,190.026810 268.154236,173.279419 268.154236,156.532013 
	C268.154236,139.895203 268.154236,123.258385 268.154236,106.309143 
	C275.556702,106.309143 282.646637,106.309143 290.139038,106.309143 
	C290.139038,173.050568 290.139038,239.906372 290.139038,306.970001 
	C282.922180,306.970001 275.818390,306.970001 268.154419,306.970001 
	C268.154419,281.054382 268.154419,255.330109 268.154419,229.183334 
	C258.972290,229.183334 250.340775,229.051773 241.722870,229.334778 
	C240.524002,229.374130 238.806885,231.246979 238.315079,232.623184 
	C226.335602,266.145569 202.971497,288.554626 170.127304,300.877380 
	C160.348465,304.546295 149.452423,306.419220 138.980621,306.818970 
	C115.558647,307.713104 91.973221,308.616425 69.004593,302.006378 
	C50.346165,296.636719 32.952576,289.056976 20.592157,273.183685 
	C18.167336,270.069702 16.484747,266.377716 14.302141,262.600464 
M209.388123,241.835281 
	C211.445038,237.821655 213.501953,233.808044 215.877548,229.172577 
	C212.792389,229.172577 210.965988,229.172562 209.139587,229.172562 
	C155.866547,229.172562 102.593506,229.172333 49.320461,229.173737 
	C47.822426,229.173767 46.315594,229.089569 44.827858,229.218124 
	C38.111221,229.798584 33.018436,235.057648 33.240997,241.817993 
	C33.589130,252.392624 37.249626,261.631439 45.523170,268.643799 
	C54.555866,276.299530 65.402969,279.770508 76.755470,282.037628 
	C94.853661,285.651886 113.185768,284.911438 131.477554,285.008698 
	C165.219757,285.188110 190.872086,270.685913 209.388123,241.835281 
M156.155151,150.513992 
	C156.104996,149.684006 156.132141,148.840805 155.992844,148.026047 
	C154.339966,138.358322 148.413757,132.130814 139.382629,129.376724 
	C130.761200,126.747589 123.281662,129.791061 117.515144,136.560196 
	C111.667519,143.424561 109.777344,151.217117 113.622635,159.699921 
	C117.986183,169.326035 127.711075,174.481598 137.624634,172.764450 
	C147.431396,171.065826 155.090378,162.228058 156.155151,150.513992 
z"/>
<path fill="#C57034" opacity="1.000000" stroke="none" 
	d="
M337.035645,106.000000 
	C337.035675,72.544739 337.035675,39.589474 337.035675,6.317402 
	C344.102936,6.317402 350.834564,6.317402 357.902466,6.317402 
	C357.902466,114.690590 357.902466,223.009903 357.902466,331.597168 
	C351.068878,331.597168 344.465210,331.597168 337.035645,331.597168 
	C337.035645,256.575928 337.035645,181.537964 337.035645,106.000000 
z"/>
<path fill="#FDFDFD" opacity="1.000000" stroke="none" 
	d="
M209.199890,242.148865 
	C190.872086,270.685913 165.219757,285.188110 131.477554,285.008698 
	C113.185768,284.911438 94.853661,285.651886 76.755470,282.037628 
	C65.402969,279.770508 54.555866,276.299530 45.523170,268.643799 
	C37.249626,261.631439 33.589130,252.392624 33.240997,241.817993 
	C33.018436,235.057648 38.111221,229.798584 44.827858,229.218124 
	C46.315594,229.089569 47.822426,229.173767 49.320461,229.173737 
	C102.593506,229.172333 155.866547,229.172562 209.139587,229.172562 
	C210.965988,229.172562 212.792389,229.172577 215.877548,229.172577 
	C213.501953,233.808044 211.445038,237.821655 209.199890,242.148865 
z"/>
<path fill="#FDFDFD" opacity="1.000000" stroke="none" 
	d="
M156.150421,150.953430 
	C155.090378,162.228058 147.431396,171.065826 137.624634,172.764450 
	C127.711075,174.481598 117.986183,169.326035 113.622635,159.699921 
	C109.777344,151.217117 111.667519,143.424561 117.515144,136.560196 
	C123.281662,129.791061 130.761200,126.747589 139.382629,129.376724 
	C148.413757,132.130814 154.339966,138.358322 155.992844,148.026047 
	C156.132141,148.840805 156.104996,149.684006 156.150421,150.953430 
z"/>
</svg>