<svg version="1.1" id="Layer_1" xmlns="http://www.w3.org/2000/svg" xmlns:xlink="http://www.w3.org/1999/xlink" x="0px" y="0px"
	 width="100%" viewBox="0 0 360 384" enable-background="new 0 0 360 384" xml:space="preserve">
<path fill="#FEFEFE" opacity="1.000000" stroke="none" 
	d="
M205.000000,385.000000 
	C136.689453,385.000000 68.878914,385.000000 1.034187,385.000000 
	C1.034187,257.065796 1.034187,129.131607 1.034187,1.098697 
	C120.893806,1.098697 240.787720,1.098697 360.840820,1.098697 
	C360.840820,128.999847 360.840820,256.999908 360.840820,385.000000 
	C309.131683,385.000000 257.315857,385.000000 205.000000,385.000000 
M126.923386,361.719055 
	C156.370071,368.160980 186.110397,368.115936 215.863998,365.039825 
	C255.233994,360.969513 289.606537,345.547668 317.893250,317.609314 
	C332.538513,303.144409 342.353455,285.782410 346.213196,265.341003 
	C349.955750,245.520370 349.092438,225.475555 348.020325,205.573410 
	C347.007629,186.773209 333.398926,171.547424 315.357239,166.433243 
	C302.770752,162.865417 292.485901,165.684891 285.726959,174.746201 
	C284.098114,176.929901 282.933533,179.459915 281.209839,182.425247 
	C281.209839,161.966568 281.207001,142.199799 281.227020,122.433037 
	C281.227478,121.968430 281.484314,121.504082 281.803589,120.423607 
	C292.725677,120.423607 303.772339,120.423607 314.627991,120.423607 
	C314.627991,112.544312 314.627991,105.308273 314.627991,97.994858 
	C308.086609,97.994858 301.872437,97.487823 295.766479,98.085732 
	C273.516388,100.264488 250.081696,75.279793 262.823700,47.921757 
	C263.665466,49.350986 264.399506,50.600494 265.136566,51.848186 
	C271.905548,63.306465 281.283203,71.444427 294.786102,73.275383 
	C301.993958,74.252724 309.399933,74.293083 316.690369,74.030678 
	C333.314087,73.432343 347.890625,58.535442 348.513641,42.006096 
	C349.115540,26.036634 334.960449,9.268531 318.722015,7.963845 
	C306.467529,6.979249 294.097534,7.125492 281.784576,7.265604 
	C270.441467,7.394681 260.647003,11.809426 253.162292,20.383272 
	C236.237885,39.770412 227.842468,68.686401 250.142670,93.497299 
	C251.283234,94.766281 252.374268,96.079796 254.024628,97.994858 
	C246.600311,97.994858 240.273331,97.994858 233.946350,97.994858 
	C227.494125,97.994858 221.041885,97.994858 214.040405,97.994858 
	C214.040405,107.088242 214.040405,115.706398 214.040405,124.565697 
	C211.544250,120.126549 209.655533,115.878601 206.990448,112.191856 
	C198.402283,100.311478 186.170074,97.459801 172.192032,97.875404 
	C151.110092,98.502213 136.162720,113.218445 136.157318,134.351776 
	C136.147507,172.682144 136.154541,211.012527 136.154541,249.342896 
	C136.154541,251.113770 136.154541,252.884644 136.154541,254.654266 
	C124.557892,254.654266 113.503670,254.654266 101.949532,254.654266 
	C101.949532,202.270935 101.949532,150.226395 101.949532,98.309814 
	C94.360367,98.309814 87.280998,98.309814 80.324471,98.309814 
	C80.324471,158.022507 80.324471,217.419693 80.324471,276.828583 
	C106.443428,276.828583 132.232376,276.828583 158.537125,276.828583 
	C158.537125,274.862030 158.537125,273.067841 158.537125,271.273651 
	C158.537125,233.776550 158.537094,196.279434 158.537140,158.782333 
	C158.537155,150.449646 158.438187,142.115448 158.564758,133.784683 
	C158.698074,125.008789 163.189789,120.622131 171.830673,120.540871 
	C174.330261,120.517357 176.830368,120.522209 179.330048,120.539673 
	C193.360519,120.637680 202.989227,130.389679 202.991943,144.537292 
	C203.000076,186.867355 202.994873,229.197403 202.994873,271.527466 
	C202.994873,273.286926 202.994873,275.046387 202.994873,276.838318 
	C210.760620,276.838318 217.885483,276.838318 225.589874,276.838318 
	C225.589874,224.782944 225.589874,172.890427 225.589874,120.769844 
	C236.938034,120.769844 247.707199,120.769844 259.118652,120.769844 
	C259.118652,172.863586 259.118652,224.892380 259.118652,276.663605 
	C266.858704,276.663605 273.955566,276.663605 281.176910,276.663605 
	C281.176910,254.827957 281.123260,233.333344 281.196472,211.839142 
	C281.242432,198.337006 290.694092,187.943130 302.796387,187.847015 
	C316.226196,187.740356 326.034515,197.677383 326.139099,211.624344 
	C326.216583,221.956299 326.128998,232.289383 326.159485,242.621826 
	C326.218964,262.795105 320.662720,281.187225 307.501892,296.613312 
	C284.811066,323.209625 254.933472,337.115753 220.991959,341.719330 
	C202.943512,344.167328 184.459000,344.167114 166.182251,344.009033 
	C125.360214,343.655914 90.116020,329.391205 61.873619,299.399567 
	C46.163929,282.716797 36.958115,262.903503 35.946350,239.864227 
	C35.216061,223.234497 35.257366,206.564651 35.250427,189.912582 
	C35.247799,183.610046 35.791294,177.271240 36.583164,171.011887 
	C38.258408,157.769882 42.856750,145.617523 51.530640,135.119949 
	C47.023064,129.164261 42.756351,123.526810 38.292801,117.629288 
	C23.848398,133.404953 15.541037,151.643433 14.243729,172.244720 
	C12.885035,193.820816 12.876382,215.528961 13.306438,237.158936 
	C13.862609,265.132019 23.821648,289.896240 42.463371,310.735596 
	C65.128197,336.072357 93.159225,352.941376 126.923386,361.719055 
z"/>
<path fill="#363636" opacity="1.000000" stroke="none" 
	d="
M126.529236,361.591003 
	C93.159225,352.941376 65.128197,336.072357 42.463371,310.735596 
	C23.821648,289.896240 13.862609,265.132019 13.306438,237.158936 
	C12.876382,215.528961 12.885035,193.820816 14.243729,172.244720 
	C15.541037,151.643433 23.848398,133.404953 38.292801,117.629288 
	C42.756351,123.526810 47.023064,129.164261 51.530640,135.119949 
	C42.856750,145.617523 38.258408,157.769882 36.583164,171.011887 
	C35.791294,177.271240 35.247799,183.610046 35.250427,189.912582 
	C35.257366,206.564651 35.216061,223.234497 35.946350,239.864227 
	C36.958115,262.903503 46.163929,282.716797 61.873619,299.399567 
	C90.116020,329.391205 125.360214,343.655914 166.182251,344.009033 
	C184.459000,344.167114 202.943512,344.167328 220.991959,341.719330 
	C254.933472,337.115753 284.811066,323.209625 307.501892,296.613312 
	C320.662720,281.187225 326.218964,262.795105 326.159485,242.621826 
	C326.128998,232.289383 326.216583,221.956299 326.139099,211.624344 
	C326.034515,197.677383 316.226196,187.740356 302.796387,187.847015 
	C290.694092,187.943130 281.242432,198.337006 281.196472,211.839142 
	C281.123260,233.333344 281.176910,254.827957 281.176910,276.663605 
	C273.955566,276.663605 266.858704,276.663605 259.118652,276.663605 
	C259.118652,224.892380 259.118652,172.863586 259.118652,120.769844 
	C247.707199,120.769844 236.938034,120.769844 225.589874,120.769844 
	C225.589874,172.890427 225.589874,224.782944 225.589874,276.838318 
	C217.885483,276.838318 210.760620,276.838318 202.994873,276.838318 
	C202.994873,275.046387 202.994873,273.286926 202.994873,271.527466 
	C202.994873,229.197403 203.000076,186.867355 202.991943,144.537292 
	C202.989227,130.389679 193.360519,120.637680 179.330048,120.539673 
	C176.830368,120.522209 174.330261,120.517357 171.830673,120.540871 
	C163.189789,120.622131 158.698074,125.008789 158.564758,133.784683 
	C158.438187,142.115448 158.537155,150.449646 158.537140,158.782333 
	C158.537094,196.279434 158.537125,233.776550 158.537125,271.273651 
	C158.537125,273.067841 158.537125,274.862030 158.537125,276.828583 
	C132.232376,276.828583 106.443428,276.828583 80.324471,276.828583 
	C80.324471,217.419693 80.324471,158.022507 80.324471,98.309814 
	C87.280998,98.309814 94.360367,98.309814 101.949532,98.309814 
	C101.949532,150.226395 101.949532,202.270935 101.949532,254.654266 
	C113.503670,254.654266 124.557892,254.654266 136.154541,254.654266 
	C136.154541,252.884644 136.154541,251.113770 136.154541,249.342896 
	C136.154541,211.012527 136.147507,172.682144 136.157318,134.351776 
	C136.162720,113.218445 151.110092,98.502213 172.192032,97.875404 
	C186.170074,97.459801 198.402283,100.311478 206.990448,112.191856 
	C209.655533,115.878601 211.544250,120.126549 214.040405,124.565697 
	C214.040405,115.706398 214.040405,107.088242 214.040405,97.994858 
	C221.041885,97.994858 227.494125,97.994858 233.946350,97.994858 
	C240.273331,97.994858 246.600311,97.994858 254.024628,97.994858 
	C252.374268,96.079796 251.283234,94.766281 250.142670,93.497299 
	C227.842468,68.686401 236.237885,39.770412 253.162292,20.383272 
	C260.647003,11.809426 270.441467,7.394681 281.784576,7.265604 
	C294.097534,7.125492 306.467529,6.979249 318.722015,7.963845 
	C334.960449,9.268531 349.115540,26.036634 348.513641,42.006096 
	C347.890625,58.535442 333.314087,73.432343 316.690369,74.030678 
	C309.399933,74.293083 301.993958,74.252724 294.786102,73.275383 
	C281.283203,71.444427 271.905548,63.306465 265.136566,51.848186 
	C264.399506,50.600494 263.665466,49.350986 262.823700,47.921757 
	C250.081696,75.279793 273.516388,100.264488 295.766479,98.085732 
	C301.872437,97.487823 308.086609,97.994858 314.627991,97.994858 
	C314.627991,105.308273 314.627991,112.544312 314.627991,120.423607 
	C303.772339,120.423607 292.725677,120.423607 281.803589,120.423607 
	C281.484314,121.504082 281.227478,121.968430 281.227020,122.433037 
	C281.207001,142.199799 281.209839,161.966568 281.209839,182.425247 
	C282.933533,179.459915 284.098114,176.929901 285.726959,174.746201 
	C292.485901,165.684891 302.770752,162.865417 315.357239,166.433243 
	C333.398926,171.547424 347.007629,186.773209 348.020325,205.573410 
	C349.092438,225.475555 349.955750,245.520370 346.213196,265.341003 
	C342.353455,285.782410 332.538513,303.144409 317.893250,317.609314 
	C289.606537,345.547668 255.233994,360.969513 215.863998,365.039825 
	C186.110397,368.115936 156.370071,368.160980 126.529236,361.591003 
M287.967926,45.546383 
	C295.382416,53.026352 304.877716,52.148132 314.149902,51.968742 
	C320.833282,51.839439 325.960663,46.757149 326.082458,40.439323 
	C326.179047,35.431461 321.352905,30.214201 315.295441,30.015348 
	C304.048706,29.646147 292.781219,29.909536 281.355560,29.909536 
	C281.437714,36.028835 283.540009,40.889679 287.967926,45.546383 
z"/>
<path fill="#FDFDFD" opacity="1.000000" stroke="none" 
	d="
M287.719727,45.279331 
	C283.540009,40.889679 281.437714,36.028835 281.355560,29.909536 
	C292.781219,29.909536 304.048706,29.646147 315.295441,30.015348 
	C321.352905,30.214201 326.179047,35.431461 326.082458,40.439323 
	C325.960663,46.757149 320.833282,51.839439 314.149902,51.968742 
	C304.877716,52.148132 295.382416,53.026352 287.719727,45.279331 
z"/>
</svg>