<svg enable-background="new 0 0 1826 370" viewBox="0 0 1826 370" xmlns="http://www.w3.org/2000/svg"><path d="m1205 371c-401.621094 0-802.742188 0-1203.931637 0 0-123.273712 0-246.547478 0-369.91062h1825.895748v369.91062c-207.178589 0-414.321289 0-621.964111 0m273.982788-73.507538c26.322876-22.388489 33.626587-51.884888 30.582398-84.659378-2.086304-22.460327-21.823487-39.399399-44.645752-39.814758-7.254639-.132034-14.513916-.020645-21.712159-.020645 0-15.120713 0-29.569138 0-44.689804h44.192871c0-7.781128 0-14.883751 0-21.949433-44.834716 0-89.377807 0-134.394653 0v66.530274c-2.779297.382599-5.089355.694107-7.397583 1.019378-16.503662 2.32573-32.404419 16.586197-35.588379 32.957932-7.721435 39.702102 21.35437 76.778442 60.627198 78.034241 33.009399 1.055542 60.177124-16.304291 68.750976-45.292344 3.001099-10.146698 2.605713-21.321045 3.533936-32.045806.350097-4.045105.056762-8.145905.056762-12.384232 7.286866 0 13.773926-.037964 20.260498.007767 14.188477.100021 24.134644 9.88768 24.348267 24.153076.084595 5.65567-.076782 11.333359-.484985 16.975052-2.327271 32.149658-30.61023 59.061432-62.928467 59.69754-15.656372.308197-31.322998.074493-46.984497.15744-12.483032.066132-24.411499 2.531311-35.641236 8.205902-24.147705 12.202149-35.538208 31.930054-32.341796 56.461823h21.789062c0-2.819092.060181-5.30188-.010986-7.780884-.250855-8.74234 3.059692-16.011963 9.613281-21.580139 8.57605-7.286652 18.578369-11.99704 29.860352-12.440277 15.805175-.621002 31.644531-.502014 47.46875-.46814 22.55957.04834 43.055175-5.767242 61.046142-21.074585m-339.307983-101.696045c4.481933-.205887 8.973877-.712372 13.443847-.562164 14.248169.47879 23.805176 10.475677 23.864624 24.731689.02002 4.830979.083374 9.672943-.18811 14.492157-1.885254 33.483429-30.322876 60.936615-63.842651 61.502106-15.660279.264191-31.327027.195831-46.990845.185852-18.922608-.012115-35.514404 6.201386-49.946899 18.369415-15.107789 12.737336-19.70636 29.246582-17.669373 48.125153h22.191223c0-3.676666.063233-6.993439-.012634-10.307068-.183167-7.999908 2.844665-14.70874 8.655945-19.968445 8.6333-7.813842 18.858398-12.830932 30.517212-13.292083 18.63208-.737091 37.313232-.240265 55.94458-.98758 30.337524-1.216919 53.394897-15.717621 70.260986-40.46109 11.767578-17.263702 14.232056-36.905044 13.977295-57.217468-.309937-24.718735-17.54419-44.225617-42.057007-47.113129-15.289429-1.801056-29.337769.533249-39.818237 13.170441-2.861084 3.44989-5.149536 7.37474-7.684937 11.058517 0-22.973434 0-45.880325 0-69.283798h66.467163c0-7.613525 0-14.724205 0-21.911575-55.925903 0-111.633545 0-167.266357 0v178.412918h22.62146c0-52.174301 0-104.085983 0-155.87883h55.814941v155.83992h21.748413c.135987-.613495.265381-.925629.265747-1.237885.017945-16.832.02356-33.663986.033814-50.495971.010132-16.680161 12.596313-32.834122 29.6698-37.171082m-522.030213-58.859833c-7.69165-16.063804-18.135254-30.098091-30.444824-41.951469-5.507629 5.432724-10.802978 10.656029-16.215088 15.994507.684021.734329 1.566406 1.71952 2.488465 2.666084 21.925842 22.508118 34.391418 49.119065 34.620666 80.860062.139832 19.354873-3.603455 37.769165-15.372925 53.723602-8.971435 12.161591-23.725036 17.127136-37.567444 13.047211-15.873291-4.678498-25.05249-17.057495-25.126464-34.249176-.093262-21.659378.067993-43.32016-.095459-64.978699-.03479-4.615982-.482239-9.354187-1.609253-13.816467-7.983277-31.609047-39.331116-48.507279-72.252106-39.873139-30.3461 7.958855-55.373077 40.27681-58.822296 71.494355-1.838318 16.637603-1.14386 33.570922-1.299378 50.373489-.120575 13.02475 4.197022 24.760666 11.204193 35.652237 15.225708 23.665985 45.044526 25.929138 62.878998 4.342438 15.597565-18.879151 19.219666-40.319138 10.655121-63.194138-5.044922-13.474411-12.873352-25.348511-26.871948-31.369919-12.647431-5.440201-26.29065-2.966781-33.308106 9.840698-.354004.646058-1.255279.992249-2.9841 2.291443.800842-2.158981 1.18924-2.994629 1.416596-3.872009.29132-1.124191.449005-2.282761.671112-3.425186 2.982727-15.342163 10.205627-28.420059 21.461334-39.171234 11.079529-10.582947 24.445282-15.051415 39.457947-11.881684 16.072174 3.393418 27.217437 18.258744 27.279815 34.93393.084107 22.491348-.503021 45.001312.218384 67.470535 1.182068 36.817078 37.414246 61.698029 72.423157 50.475159 18.245788-5.849121 30.067505-18.838043 38.152649-35.220078 17.987976-36.447265 14.525268-73.070922-.959046-110.162552m-401.144592 148.066376h66.731079c0-7.729584 0-14.802154 0-22.176941-2.317932 0-4.302368 0-6.286804 0-75.141083 0-150.282204.026764-225.423161-.070099-4.267429-.005523-8.711723-.447326-12.760975-1.698333-7.122203-2.200379-9.018491-8.94838-4.971984-15.143586 3.025985-4.632766 7.542392-5.674346 12.551746-5.729461 9.661903-.106262 19.336323.119522 28.984455-.289704 35.623314-1.511047 64.370529-22.883834 68.099121-61.24884 2.403671-24.732254-5.793411-50.100449-30.155243-63.219963-15.556434-8.377563-32.445999-10.598274-49.877773-8.862679-13.94421 1.388352-27.110706 5.045052-38.23613 14.158028-19.161034 15.695046-21.498847 46.05053-4.841629 63.13488 10.875353 11.154251 31.236237 14.667969 47.001454 8.112671 10.521766-4.37503 18.58525-11.163772 21.170852-22.777084 2.694344-12.101746 1.916542-23.834503-5.164779-34.527924-2.060502-3.111526-4.277863-6.119201-6.516991-9.307869 19.783981-2.013351 38.117561 10.742531 42.68956 29.414757 5.715668 23.342972-1.366478 43.324615-19.473686 54.666718-9.115586 5.709884-19.219925 8.132003-29.871727 8.486984-10.81123.360306-21.693276.000244-32.42059 1.130173-14.492958 1.526596-25.160979 11.894531-27.813159 25.479934-2.86459 14.673416 2.628459 27.059525 15.629468 34.745835 8.322981 4.920593 17.646448 5.684783 27.012404 5.69461 54.314777.057068 108.629657.027893 163.944492.027893m1453 .001618c26.65625 0 53.312744.047119 79.96875-.044709 4.641235-.015991 9.32251-.327942 13.913574-.996948 29.142456-4.246368 53.642945-30.908447 54.629395-60.247391.63208-18.798538.611938-37.652191-.008179-56.451706-.889038-26.953262-20.651123-51.35147-46.520874-58.628395-13.735107-3.863556-27.594971-4.436683-40.291748 2.564392-16.046143 8.847985-24.512695 22.666665-24.358887 41.615075.282471 34.817321.0802 69.63861.080078 104.458236v5.482727c-18.914672 0-37.321655 0-56.201294 0 0-52.286361 0-104.335495 0-156.411224-7.69226 0-14.90625 0-22.049926 0v178.659943zm-775.47644-167.516037c0-3.763306 0-7.526604 0-11.330468-48.735291 0-96.839783 0-145.163086 0v178.543831h22.285034c0-52.189575 0-104.079239 0-155.805359h55.641479c.112244.838013.233338 1.320679.23346 1.803376.010803 46.646133.047119 93.292389-.105042 139.938018-.006469 1.97638-1.329223 4.377717-2.779113 5.85376-14.475342 14.736359-29.076905 29.349549-43.746277 43.893097-1.243225 1.232605-3.233399 1.711762-4.095642 2.146912 6.695007 6.853424 11.909912 12.191681 18.092834 18.520843 1.397278-1.829895 2.704468-4.008575 4.447449-5.751526 15.667053-15.6669 31.357361-31.311706 47.187317-46.813415 2.475647-2.424286 3.414001-4.841095 3.406677-8.271912-.10315-48.478439-.070129-96.957199-.070129-145.435867 0-1.927002 0-3.853989 0-6.307297h44.665039c0-3.691788 0-6.846947 0-10.983993m661.1604-60.988564v275.033013h21.294678c0-108.564408 0-216.77855 0-325.227388-7.126831 0-14.000122 0-21.294556 0 0 16.609191 0 32.90178-.000122 50.194375m-312.279419 270.832695c.114502 1.422638.229126 2.845276.345215 4.287811h20.499023c0-108.573257 0-216.904098 0-325.316066-7.026123 0-13.758789 0-20.844482 0 0 106.888561 0 213.474102.000244 321.028255m-306.799683-282.83268v287.103463h20.934449c0-108.579834 0-216.89457 0-325.294382-7.075257 0-13.80835 0-20.934388 0 0 12.602481 0 24.896699-.000061 38.190919m-261.200439 42.000008v245.106812h20.834961c0-108.583985 0-216.911789 0-325.293848-7.036926 0-13.769592 0-20.835022 0 0 26.602678 0 52.894857.000061 80.187036m-345.238983-70.973788v316.039309h20.929748c0-108.557953 0-216.887367 0-325.568058-3.621429 0-6.928589 0-10.235748 0-3.447021 0-6.894043 0-10.694336 0 0 3.25501 0 5.895642.000336 9.528749m746.172455 18.775664c-1.055664 9.475864 2.230468 16.872845 10.461425 21.924732 7.736939 4.748627 15.510254 4.468266 22.950684-.376861 7.439819-4.844754 11.923584-11.476994 10.634155-20.898251-1.38208-10.09779-10.68164-19.29819-20.104492-19.898871-11.066528-.705455-20.824219 6.828751-23.941772 19.249251m637.458374 23.759541c1.587402-.891507 3.234497-1.691914 4.752807-2.688496 17.642334-11.579987 9.833008-30.661413-1.331543-37.390873-8.557129-5.157845-18.916748-3.482779-26.418701 4.046694-7.180298 7.206581-8.51123 17.565245-3.408081 26.527258 5.094727 8.94717 14.941528 12.679886 26.405518 9.505417m-916.493592-27.430823c-.297485 2.458197-.901306 4.923933-.841003 7.373324.306946 12.465629 11.041138 21.950084 23.623352 21.041065 12.000427-.866982 21.797119-12.525494 20.485229-24.378269-1.340026-12.10698-13.197204-21.627302-24.955688-19.538552-8.562561 1.521037-14.804199 6.459092-18.31189 15.502432z" fill="#fff"/><g fill="#353535"><path d="m1478.720459 297.734375c-17.728638 15.06543-38.224243 20.881012-60.783813 20.832672-15.824219-.033874-31.663575-.152862-47.46875.46814-11.281983.443237-21.284302 5.153625-29.860352 12.440277-6.553589 5.568176-9.864136 12.837799-9.613281 21.580139.071167 2.479004.010986 4.961792.010986 7.780884-7.419189 0-14.612549 0-21.789062 0-3.196412-24.531769 8.194091-44.259674 32.341796-56.461823 11.229737-5.674591 23.158204-8.13977 35.641236-8.205902 15.661499-.082947 31.328125.150757 46.984497-.15744 32.318237-.636108 60.601196-27.547882 62.928467-59.69754.408203-5.641693.56958-11.319382.484985-16.975052-.213623-14.265396-10.15979-24.053055-24.348267-24.153076-6.486572-.045731-12.973632-.007767-20.260498-.007767 0 4.238327.293335 8.339127-.056762 12.384232-.928223 10.724761-.532837 21.899108-3.533936 32.045806-8.573852 28.988053-35.741577 46.347886-68.750976 45.292344-39.272828-1.255799-68.348633-38.332139-60.627198-78.034241 3.18396-16.371735 19.084717-30.632202 35.588379-32.957932 2.308228-.325271 4.618286-.636779 7.397583-1.019378 0-22.032807 0-44.101746 0-66.530274h134.394653v21.949433c-14.605712 0-29.296508 0-44.192871 0v44.689804c7.198243 0 14.45752-.111389 21.712159.020645 22.822265.415359 42.559448 17.354431 44.645752 39.814758 3.044189 32.77449-4.259522 62.270889-30.844727 84.901291m-87.220459-102.562637c-12.495239.001129-24.99231-.134171-37.485107.04158-12.588501.177078-22.674683 9.558853-22.892456 21.756836-.340088 19.046356 8.519042 32.935211 25.561401 41.0513 16.233765 7.730957 31.963623 6.12323 46.403564-4.916565 19.711182-15.069794 18.282837-36.376068 17.279053-57.933136-9.568115 0-18.717285 0-28.866455-.000015m12.998169-66.640595c-9.425781 0-18.851563 0-28.505371 0v44.167801h44.314331c0-14.805267 0-29.30748 0-44.167984-5.206665 0-10.008667 0-15.80896.000183z"/><path d="m1139.257568 195.874924c-16.65625 4.258453-29.242431 20.412414-29.252563 37.092575-.010254 16.831985-.015869 33.663971-.033814 50.495971-.000366.312256-.12976.62439-.265747 1.237885-7.01123 0-14.09082 0-21.748413 0 0-51.775406 0-103.646805 0-155.83992-18.831543 0-37.093872 0-55.814941 0v155.87883c-7.718628 0-14.985596 0-22.62146 0 0-59.304459 0-118.692246 0-178.412918h167.266357v21.911575c-22.032226 0-44.093628 0-66.467163 0v69.283798c2.535401-3.683777 4.823853-7.608627 7.684937-11.058517 10.480468-12.637192 24.528808-14.971497 39.818237-13.170441 24.512817 2.887512 41.74707 22.394394 42.057007 47.113129.254761 20.312424-2.209717 39.953766-13.977295 57.217468-16.866089 24.743469-39.923462 39.244171-70.260986 40.46109-18.631348.747315-37.3125.250489-55.94458.98758-11.658814.461151-21.883912 5.478241-30.517212 13.292083-5.81128 5.259705-8.839112 11.968537-8.655945 19.968445.075867 3.313629.012634 6.630402.012634 10.307068-7.48883 0-14.705627 0-22.191223 0-2.036987-18.878571 2.561584-35.387817 17.669373-48.125153 14.432495-12.168029 31.024291-18.38153 49.946899-18.369415 15.663818.009979 31.330566.078339 46.990845-.185852 33.519775-.565491 61.957397-28.018677 63.842651-61.502106.271484-4.819214.20813-9.661178.18811-14.492157-.059448-14.256012-9.616455-24.252899-23.864624-24.731689-4.46997-.150208-8.961914.356277-13.861084.640671z"/><path d="m617.803345 137.277618c15.325561 36.750596 18.788269 73.374253.800293 109.821518-8.085144 16.382035-19.906861 29.370957-38.152649 35.220078-35.008911 11.22287-71.241089-13.658081-72.423157-50.475159-.721405-22.469223-.134277-44.979187-.218384-67.470535-.062378-16.675186-11.207641-31.540512-27.279815-34.93393-15.012665-3.169731-28.378418 1.298737-39.457947 11.881684-11.255707 10.751175-18.478607 23.829071-21.461334 39.171234-.222107 1.142425-.379792 2.300995-.671112 3.425186-.227356.87738-.615754 1.713028-1.416596 3.872009 1.728821-1.299194 2.630096-1.645385 2.9841-2.291443 7.017456-12.807479 20.660675-15.280899 33.308106-9.840698 13.998596 6.021408 21.827026 17.895508 26.871948 31.369919 8.564545 22.875 4.942444 44.314987-10.655121 63.194138-17.834472 21.5867-47.65329 19.323547-62.878998-4.342438-7.007171-10.891571-11.324768-22.627487-11.204193-35.652237.155518-16.802567-.53894-33.735886 1.299378-50.373489 3.449219-31.217545 28.476196-63.5355 58.822296-71.494355 32.92099-8.63414 64.268829 8.264092 72.252106 39.873139 1.127014 4.46228 1.574463 9.200485 1.609253 13.816467.163452 21.658539.002197 43.319321.095459 64.978699.073974 17.191681 9.253173 29.570678 25.126464 34.249176 13.842408 4.079925 28.596009-.88562 37.567444-13.047211 11.76947-15.954437 15.512757-34.368729 15.372925-53.723602-.229248-31.740997-12.694824-58.351944-34.620666-80.860062-.922059-.946564-1.804444-1.931755-2.488465-2.666084 5.41211-5.338478 10.707459-10.561783 16.215088-15.994507 12.30957 11.853378 22.753174 25.887665 30.603577 42.292503m-158.391388 108.485337c5.826477-16.220383 4.666107-31.490509-7.063263-44.782883-7.18927-8.147232-18.29599-7.397507-25.136597 1.044235-11.375671 14.038208-12.144409 37.631409-1.740692 52.324173 6.030792 8.51706 19.128143 12.707001 27.721405 1.278595 2.177368-2.895721 3.947174-6.0979 6.219147-9.86412z"/><path d="m216 285.00296c-54.814835 0-109.129715.029175-163.444492-.027893-9.365956-.009827-18.689423-.774017-27.012404-5.69461-13.001009-7.68631-18.494058-20.072419-15.629468-34.745835 2.65218-13.585403 13.320201-23.953338 27.813159-25.479934 10.727314-1.129929 21.60936-.769867 32.42059-1.130173 10.651802-.354981 20.756141-2.7771 29.871727-8.486984 18.107208-11.342103 25.189354-31.323746 19.473686-54.666718-4.571999-18.672226-22.905579-31.428108-42.68956-29.414757 2.239128 3.188668 4.456489 6.196343 6.516991 9.307869 7.081321 10.693421 7.859123 22.426178 5.164779 34.527924-2.585602 11.613312-10.649086 18.402054-21.170852 22.777084-15.765217 6.555298-36.126101 3.04158-47.001454-8.112671-16.657218-17.08435-14.319405-47.439834 4.841629-63.13488 11.125424-9.112976 24.29192-12.769676 38.23613-14.158028 17.431774-1.735595 34.321339.485116 49.877773 8.862679 24.361832 13.119514 32.558914 38.487709 30.155243 63.219963-3.728592 38.365006-32.475807 59.737793-68.099121 61.24884-9.648132.409226-19.322552.183442-28.984455.289704-5.009354.055115-9.525761 1.096695-12.551746 5.729461-4.046507 6.195206-2.150219 12.943207 4.971984 15.143586 4.049252 1.251007 8.493546 1.69281 12.760975 1.698333 75.140957.096863 150.282078.070099 225.423161.070099h6.286804v22.176941c-22.240204 0-44.485641 0-67.231079 0m-150.241257-121.155029c4.169045-12.711228-.774574-27.074341-11.85952-33.359665-1.780655-1.009659-4.938297-1.231049-6.713501-.336548-9.54264 4.808426-15.379041 12.269821-15.510727 23.50943-.100832 8.606217 4.585984 15.77179 12.443757 18.377091 8.179847 2.712097 16.115444-.108674 21.639991-8.190308z"/><path d="m1669 285.004578c-13.654663 0-26.809448 0-40.339111 0 0-59.576706 0-118.943299 0-178.659943h22.049926v156.411224h56.201294c0-1.923828 0-3.703277 0-5.482727.000122-34.819626.202393-69.640915-.080078-104.458236-.153808-18.94841 8.312744-32.76709 24.358887-41.615075 12.696777-7.001075 26.556641-6.427948 40.291748-2.564392 25.869751 7.276925 45.631836 31.675133 46.520874 58.628395.620117 18.799515.640259 37.653168.008179 56.451706-.98645 29.338944-25.486939 56.001023-54.629395 60.247391-4.591064.669006-9.272339.980957-13.913574.996948-26.656006.091828-53.3125.044709-80.46875.044709m60.114258-107.504593v85.496902c7.10144 0 13.59375-.300995 20.050049.052796 26.077148 1.429046 47.629516-22.046448 46.979858-46.46428-.380859-14.3125.002441-28.643859-.087524-42.965911-.137818-21.938462-14.597779-39.378998-36.075562-44.16861-20.12085-4.487007-32.350708 10.61821-30.986328 25.076797.685425 7.263169.119507 14.64444.119507 22.972306z"/><path d="m894.02356 117.979485v10.493049c-14.827515 0-29.405274 0-44.665039 0v6.307297c0 48.478668-.033021 96.957428.070129 145.435867.007324 3.430817-.93103 5.847626-3.406677 8.271912-15.829956 15.501709-31.520264 31.146515-47.187317 46.813415-1.742981 1.742951-3.050171 3.921631-4.447449 5.751526-6.182922-6.329162-11.397827-11.667419-18.092834-18.520843.862243-.43515 2.852417-.914307 4.095642-2.146912 14.669372-14.543548 29.270935-29.156738 43.746277-43.893097 1.44989-1.476043 2.772644-3.87738 2.779113-5.85376.152161-46.645629.115845-93.291885.105042-139.938018-.000122-.482697-.121216-.965363-.23346-1.803376-18.404602 0-36.792846 0-55.641479 0v155.805359c-7.67273 0-14.89148 0-22.285034 0 0-59.541168 0-118.961776 0-178.543831h145.163086z"/></g><path d="m1555.184082 55.999977c0-16.792595 0-33.085184 0-49.694375h21.294556v325.227388c-6.938111 0-13.686524 0-21.294678 0 0-91.615738 0-183.324372.000122-275.533013z" fill="#c7743a"/><path d="m1242.904419 326.848389c-.000122-107.06987-.000122-213.655411-.000122-320.543972h20.844482v325.316066c-6.856445 0-13.453857 0-20.499023 0-.116089-1.442535-.230713-2.865173-.345337-4.772094z" fill="#c56f33"/><path d="m936.104858 43.999992c.000061-12.79422.000061-25.088438.000061-37.690919h20.934388v325.294382c-6.889222 0-13.496582 0-20.934449 0 0-95.704636 0-191.404053 0-287.603463z" fill="#c67035"/><path d="m674.904419 86c-.000061-26.792179-.000061-53.084358-.000061-79.687036h20.835022v325.293848c-6.814636 0-13.411926 0-20.834961 0 0-81.713349 0-163.41008 0-245.606812z" fill="#c56f33"/><path d="m329.665283 15.029974c-.000183-3.136869-.000183-5.777501-.000183-9.032511h10.694336 10.235748v325.568058c-6.962372 0-13.691497 0-20.929748 0 0-105.54718 0-210.793243-.000153-316.535547z" fill="#c57035"/><path d="m1075.862793 33.901138c3.092651-12.019762 12.850342-19.553968 23.91687-18.848513 9.422852.600681 18.722412 9.801081 20.104492 19.898871 1.289429 9.421257-3.194336 16.053497-10.634155 20.898251-7.44043 4.845127-15.213745 5.125488-22.950684.376861-8.230957-5.051887-11.517089-12.448868-10.436523-22.32547z" fill="#353535"/><path d="m1712.921875 58.171612c-11.0896 3.064274-20.936401-.668442-26.031128-9.615612-5.103149-8.962013-3.772217-19.320677 3.408081-26.527258 7.501953-7.529473 17.861572-9.204539 26.418701-4.046694 11.164551 6.72946 18.973877 25.810886 1.331543 37.390873-1.51831.996582-3.165405 1.796989-5.127197 2.798691z" fill="#353535"/><path d="m796.890991 30.233551c3.419373-8.646297 9.661011-13.584352 18.223572-15.105389 11.758484-2.08875 23.615662 7.431572 24.955688 19.538552 1.31189 11.852775-8.484802 23.511287-20.485229 24.378269-12.582214.909019-23.316406-8.575436-23.623352-21.041065-.060303-2.449391.543518-4.915127.929321-7.770367z" fill="#353535"/><path d="m1392 195.171753h28.366455c1.003784 21.557068 2.432129 42.863342-17.279053 57.933136-14.439941 11.039795-30.169799 12.647522-46.403564 4.916565-17.042359-8.116089-25.901489-22.004944-25.561401-41.0513.217773-12.197983 10.303955-21.579758 22.892456-21.756836 12.492797-.175751 24.989868-.040451 37.985107-.041565z" fill="#fdfdfd"/><path d="m1404.997314 128.531052c5.301148-.000092 10.10315-.000092 15.309815-.000092v44.167984c-14.661743 0-29.357666 0-44.314331 0 0-14.60704 0-29.130417 0-44.167801 9.653808 0 19.07959 0 29.004516-.000091z" fill="#fdfdfd"/><path d="m459.254517 246.115387c-2.114533 3.413788-3.884339 6.615967-6.061707 9.511688-8.593262 11.428406-21.690613 7.238465-27.721405-1.278595-10.403717-14.692764-9.634979-38.285965 1.740692-52.324173 6.840607-8.441742 17.947327-9.191467 25.136597-1.044235 11.72937 13.292374 12.88974 28.5625 6.905823 45.135315z" fill="#fdfdfd"/><path d="m65.541412 164.174286c-5.307216 7.755279-13.242813 10.57605-21.42266 7.863953-7.857773-2.605301-12.544589-9.770874-12.443757-18.377091.131686-11.239609 5.968087-18.701004 15.510727-23.50943 1.775204-.894501 4.932846-.673111 6.713501.336548 11.084946 6.285324 16.028565 20.648437 11.642189 33.68602z" fill="#fdfdfd"/><path d="m1729.114258 176.999969c0-7.82785.565918-15.209121-.119507-22.47229-1.36438-14.458587 10.865478-29.563804 30.986328-25.076797 21.477783 4.789612 35.937744 22.230148 36.075562 44.16861.089965 14.322052-.293335 28.653411.087524 42.965911.649658 24.417832-20.90271 47.893326-46.979858 46.46428-6.456299-.353791-12.948609-.052796-20.050049-.052796 0-28.678863 0-57.08789 0-85.996918z" fill="#fefefe"/></svg>