<svg enable-background="new 0 0 1196 336" viewBox="0 0 1196 336" xmlns="http://www.w3.org/2000/svg"><path d="m796 337c-265.333313 0-530.166656 0-795 0 0-112 0-224 0-336h1196v336c-133.5 0-267 0-401 0m-697.372208-155.13826c3.481484 3.060776 6.655075 6.592758 10.496498 9.102646 19.041161 12.441025 46.28312 5.52594 59.549096-12.825851 11.531021-15.951706 10.168106-33.09964-3.183884-44.227585-1.074356-.895386-2.191757-1.739151-3.642181-2.886078 35.61679-1.362259 69.847229 45.358642 57.531417 77.969879-1.746566 0-3.570587.000015-5.394607.000015-56.832443.000015-113.664902-.018417-170.49733.012375-15.184069.00824-28.382775 9.226135-32.934672 23.676636-5.765143 18.302124-.432182 34.257934 12.44987 47.589355 14.289093 14.787537 32.881439 21.485138 52.50634 25.739167 20.578789 4.460784 41.448204 3.26477 62.241463 2.940429 16.966339-.264648 32.798324-5.123626 47.41072-13.701843 24.241868-14.231201 42.04834-33.926697 51.250138-60.880463.431564-1.264099 1.999496-3.014053 3.080475-3.044632 8.770568-.248108 17.551254-.139358 26.869186-.139358v77.663971h21.883911c0-67.084717 0-133.842468 0-200.621826-7.405273 0-14.514892 0-22.115387 0v100.521362c-7.927643 0-15.359924 0-22.917099 0 .118973-1.408554.179367-2.567307.319367-3.716385 5.253082-43.114258-25.691605-84.187836-67.739472-94.348778-14.156906-3.421051-28.468155-2.640541-42.759002-2.640045-19.428132.000672-33.701699 9.265373-41.724106 26.532967-7.697205 16.567611-4.178147 32.436783 7.319259 47.284042m662.419022 24.600113c4.695068 8.958847 8.592895 18.458145 14.232178 26.776886 18.16101 26.7901 42.391418 45.181244 74.88562 51.272064 21.75824 4.07843 43.165771 4.015076 63.264038-6.671997 22.277588-11.845856 37.667053-28.646271 38.864746-55.515152 1.411682-31.669769-27.620178-65.029846-65.746582-57.436127-36.086792 7.187485-56.711731 46.191895-40.520874 79.123368 3.634338 7.392029 9.689392 13.593872 14.411926 20.045624-.645324-.100098-2.12146-.241181-3.556457-.564698-30.642945-6.907562-52.703186-25.226272-68.100769-51.968368-17.452881-30.311692-19.868653-62.624253-9.291199-95.394196 10.150207-31.446174 29.809692-55.470341 61.250061-68.211902 6.270508-2.541207 13.046997-3.833722 19.59021-5.702015.196838.445999.393677.892002.590515 1.338001-7.982605 7.281799-14.574402 15.539162-17.925232 25.910206-11.499878 35.592949 16.337402 72.857406 53.7547 72.034713 26.919739-.591888 50.332641-19.375511 54.671936-45.256645 4.193542-25.011657-5.583618-44.898029-25.245972-60.258445-17.501098-13.67207-37.406799-18.708205-59.425293-17.101468-24.251709 1.769701-46.212036 9.319279-65.073669 24.801285-28.116638 23.078701-44.919312 52.644131-49.295288 88.884045-3.018677 24.999878-.653565 49.492554 8.665405 73.894821m-329.501282-33.961639c0-13.907593 0-27.815171 0-41.582032h44.967743v155.758881h22.337799c0-13.968597-.003052-27.607025.000824-41.245453.004059-14.295395 3.018341-27.824646 11.324707-39.65332 7.071381-10.069992 15.928375-17.847733 28.884796-19.435929 14.264099-1.748504 28.039429 10.567353 26.634888 24.136261-2.73584 26.430756-16.971558 43.984604-41.582092 53.47728-1.146424.442169-2.792908 1.672699-2.82544 2.585205-.240295 6.752808-.130066 13.518128-.130066 20.109589h111.828247c0-59.633286 0-118.907852 0-178.420914-7.456298 0-14.719787 0-22.451904 0v156.760971c-9.421203 0-18.38385-.00003-27.346557-.00003-9.036438 0-18.072876.00003-28.087403.00003 23.009461-12.475052 36.953614-41.611038 31.848267-65.01712-5.014527-22.989838-24.346192-38.190201-46.483216-35.810837-17.977355 1.932236-30.319427 12.511032-39.194488 27.677399-.577515.986877-1.209564 1.941864-2.036713 3.264175 0-21.902176 0-43.140365 0-64.898407h44.046631c0-7.646698 0-14.763176 0-21.84993-44.810242 0-89.355499 0-133.917908 0v178.346848h22.181702c0-37.937699 0-75.570175.000183-114.202667m725.659302 85.275726c-10.689697 8.452331-27.664307 10.51828-43.286255-2.621063-4.747803 5.190887-9.521728 10.410431-14.330933 15.668457 23.820923 27.464691 74.288208 19.99649 90.284546-19.235108 14.682618-36.009414-12.655639-76.034042-51.506225-76.5746-7.46228-.103821-14.927246-.014892-22.435303-.014892 0-15.008973 0-29.555466 0-44.651566h55.122803c0-7.66111 0-14.767029 0-22.069351-48.408814 0-96.623291 0-145.246094 0v66.539245c-2.375061.360199-4.344727.694474-6.324219.95369-21.964782 2.876175-38.83374 22.533462-38.30072 44.645874.828552 34.369431 23.43866 60.337616 57.329285 65.843689 39.384033 6.39856 74.555664-21.774231 76.658813-61.631989.471802-8.941345.069214-17.928802.069214-27.452713 7.393311 0 14.014893-.035492 20.635986.007157 15.108399.09732 28.458619 9.381454 33.444336 23.21196 4.771851 13.236312.600586 26.545166-12.115234 37.38121m-822.169189-95.27594v171.089233h20.85675c0-108.595398 0-216.914871 0-325.262574-7.078033 0-13.80896 0-20.85675 0zm349.945678 141v30.06781h20.787598c0-108.619354 0-216.943314 0-325.216106-7.088318 0-13.818115 0-20.787598 0zm-165.914734-242.899284c3.432679.152042 6.986023.953216 10.276734.34164 12.947571-2.406292 20.97174-15.085155 17.534546-27.093819-3.727295-13.022056-16.703858-19.888121-28.864807-15.27276-8.694794 3.299877-14.739716 11.666468-14.855896 20.561529-.126679 9.70047 4.965789 16.786938 15.909423 21.46341z" fill="#fff"/><path d="m98.402054 181.586716c-11.271668-14.572235-14.790726-30.441407-7.093521-47.009018 8.022407-17.267594 22.295974-26.532295 41.724106-26.532967 14.290847-.000496 28.602096-.781006 42.759002 2.640045 42.047867 10.160942 72.992554 51.23452 67.739472 94.348778-.14 1.149078-.200394 2.307831-.319367 3.716385h22.917099c0-33.50856 0-66.900299 0-100.521362h22.115387v200.621826c-7.158264 0-14.24176 0-21.883911 0 0-25.625916 0-51.350006 0-77.663971-9.317932 0-18.098618-.10875-26.869186.139358-1.080979.030579-2.648911 1.780533-3.080475 3.044632-9.201798 26.953766-27.00827 46.649262-51.250138 60.880463-14.612396 8.578217-30.444381 13.437195-47.41072 13.701843-20.793259.324341-41.662674 1.520355-62.241463-2.940429-19.624901-4.254029-38.217247-10.95163-52.50634-25.739167-12.882052-13.331421-18.215013-29.287231-12.44987-47.589355 4.551897-14.450501 17.750603-23.668396 32.934672-23.676636 56.832428-.030792 113.664887-.01236 170.49733-.012375 1.82402 0 3.648041-.000015 5.394607-.000015 12.315812-32.611237-21.914627-79.332138-57.531417-77.969879 1.450424 1.146927 2.567825 1.990692 3.642181 2.886078 13.35199 11.127945 14.714905 28.275879 3.183884 44.227585-13.265976 18.351791-40.507935 25.266876-59.549096 12.825851-3.841423-2.509888-7.015014-6.04187-10.722236-9.37767m-18.680634 103.354263c17.286934.685699 34.571724 1.873352 51.861267 1.946869 30.708237.130585 54.78798-13.177002 72.495087-38.013992 3.756714-5.269394 6.488297-11.269638 10.126526-17.700898-2.380188 0-3.207962 0-4.035736 0-54.985336-.000152-109.970665-.000427-164.956001.001114-.832722.000031-1.671002-.034729-2.497284.044647-6.70361.643952-11.748255 5.960358-11.478024 12.72757.430088 10.77031 4.237587 20.081665 12.790066 27.1138 10.138798 8.336426 22.320015 11.461395 35.694099 13.88089m68.592743-146.706024c-2.227432-1.722305-4.290252-3.733566-6.712753-5.113419-7.655716-4.360718-16.637459-3.168625-23.608254 2.860138-7.286476 6.301789-10.257453 16.299637-6.973121 24.289734 3.586304 8.724747 9.942451 14.082901 19.590149 14.643768 9.710876.56453 16.651489-4.194152 21.033706-12.484848 4.420304-8.362716 3.198288-16.38182-3.329727-24.195373z" fill="#363636"/><path d="m760.933716 206.090286c-9.205872-24.0307-11.570984-48.523376-8.552307-73.523254 4.375976-36.239914 21.17865-65.805344 49.295288-88.884045 18.861633-15.482006 40.82196-23.031584 65.073669-24.801285 22.018494-1.606737 41.924195 3.429398 59.425293 17.101468 19.662354 15.360416 29.439514 35.246788 25.245972 60.258445-4.339295 25.881134-27.752197 44.664757-54.671936 45.256645-37.417298.822693-65.254578-36.441764-53.7547-72.034713 3.35083-10.371044 9.942627-18.628407 17.925232-25.910206-.196838-.445999-.393677-.892002-.590515-1.338001-6.543213 1.868293-13.319702 3.160808-19.59021 5.702015-31.440369 12.741561-51.099854 36.765728-61.250061 68.211902-10.577454 32.769943-8.161682 65.082504 9.291199 95.394196 15.397583 26.742096 37.457824 45.060806 68.100769 51.968368 1.434997.323517 2.911133.4646 3.556457.564698-4.722534-6.451752-10.777588-12.653595-14.411926-20.045624-16.190857-32.931473 4.434082-71.935883 40.520874-79.123368 38.126404-7.593719 67.158264 25.766358 65.746582 57.436127-1.197693 26.868881-16.587158 43.669296-38.864746 55.515152-20.098267 10.687073-41.505798 10.750427-63.264038 6.671997-32.494202-6.09082-56.72461-24.481964-74.88562-51.272064-5.639283-8.318741-9.53711-17.818039-14.345276-27.148453m121.882202-16.981872c-10.040222 5.148361-16.73645 13.018509-18.901062 24.204284-3.76239 19.442337 7.22699 39.460862 25.899414 47.41478 1.21637.518127 2.921021.528412 4.208252.141632 11.101318-3.335602 20.467102-9.338043 27.774292-18.440124 9.816345-12.22757 10.927795-29.290497 2.606567-40.769715-9.897583-13.653686-25.457275-18.538696-41.587463-12.550857m8.941467-144.45039c-7.96582 3.434082-14.461181 8.706371-19.625976 15.65673-12.094849 16.276387-12.031006 35.063694.17456 47.844777 13.029663 13.644043 32.014771 14.677795 46.040589 2.506904 13.773193-11.95166 15.57312-32.424789 4.280822-46.654579-7.872314-9.920116-18.68219-15.157612-30.869995-19.353832z" fill="#353535"/><path d="m431.545441 173.000214c-.000092 38.132492-.000092 75.764968-.000092 113.702667-7.560364 0-14.762665 0-22.181702 0 0-59.464935 0-118.723221 0-178.346848h133.917908v21.84993c-14.52301 0-29.094971 0-44.046631 0v64.898407c.827149-1.322311 1.459198-2.277298 2.036713-3.264175 8.875061-15.166367 21.217133-25.745163 39.194488-27.677399 22.137024-2.379364 41.468689 12.820999 46.483216 35.810837 5.105347 23.406082-8.838806 52.542068-31.848267 65.01712 10.014527 0 19.050965-.00003 28.087403-.00003 8.962707 0 17.925354.00003 27.346557.00003 0-52.541687 0-104.616867 0-156.760971h22.451904v178.420914c-36.99945 0-74.067749 0-111.828247 0 0-6.591461-.110229-13.356781.130066-20.109589.032532-.912506 1.679016-2.143036 2.82544-2.585205 24.610534-9.492676 38.846252-27.046524 41.582092-53.47728 1.404541-13.568908-12.370789-25.884765-26.634888-24.136261-12.956421 1.588196-21.813415 9.365937-28.884796 19.435929-8.306366 11.828674-11.320648 25.357925-11.324707 39.65332-.003876 13.638428-.000824 27.276856-.000824 41.245453-7.500274 0-14.712646 0-22.337799 0 0-51.866013 0-103.627045 0-155.758881-14.973297 0-29.546112 0-44.967743 0 0 13.766861 0 27.674439-.000091 42.082032z" fill="#373737"/><path d="m1157.478271 257.540527c12.442383-10.600631 16.613648-23.909485 11.841797-37.145797-4.985717-13.830506-18.335937-23.11464-33.444336-23.21196-6.621093-.042649-13.242675-.007157-20.635986-.007157 0 9.523911.402588 18.511368-.069214 27.452713-2.103149 39.857758-37.27478 68.030549-76.658813 61.631989-33.890625-5.506073-56.500733-31.474258-57.329285-65.843689-.53302-22.112412 16.335938-41.769699 38.30072-44.645874 1.979492-.259216 3.949158-.593491 6.324219-.95369 0-22.074691 0-44.167678 0-66.539245h145.246094v22.069351c-18.330078 0-36.552124 0-55.122803 0v44.651566c7.508057 0 14.973023-.088929 22.435303.014892 38.850586.540558 66.188843 40.565186 51.506225 76.5746-15.996338 39.231598-66.463623 46.699799-90.284546 19.235108 4.809205-5.258026 9.58313-10.47757 14.330933-15.668457 15.621948 13.139343 32.596558 11.073394 43.559692 2.38565m-69.199951-60.3694c-20.467651.001099-40.936157-.099334-61.402832.039429-13.337707.090439-23.317321 10.428833-23.248535 23.529846.060547 11.534683 4.113831 21.342484 12.127197 29.628357 24.205445 25.028458 65.504639 15.49556 74.822388-18.039703 2.904297-10.453293 1.720947-22.056931 2.15332-33.143936.024292-.624741-2.284057-1.340439-4.451538-2.013993m4.627808-46.67073c0-6.570771 0-13.141526 0-19.59848-15.323975 0-29.87207 0-44.565674 0v43.787536h44.565674c0-7.933945 0-15.561615 0-24.189056z" fill="#353535"/><path d="m335.035645 162c0-51.448921 0-102.397842 0-153.673341h20.85675v325.262574c-6.802643 0-13.407196 0-20.85675 0 0-57.000854 0-114.045044 0-171.589233z" fill="#c57034"/><path d="m684.981323 303c0-98.432602 0-196.365211 0-294.648296h20.787598v325.216106c-6.829163 0-13.552857 0-20.787598 0 0-10.168487 0-20.118164 0-30.56781z" fill="#c56f33"/><path d="m518.709045 60.44091c-10.58609-4.516666-15.678558-11.603134-15.551879-21.303604.11618-8.895061 6.161102-17.261652 14.855896-20.561529 12.160949-4.615361 25.137512 2.250704 28.864807 15.27276 3.437194 12.008664-4.586975 24.687527-17.534546 27.093819-3.290711.611576-6.844055-.189598-10.634278-.501446z" fill="#363636"/><g fill="#fdfdfd"><path d="m79.287247 284.896851c-12.939911-2.375367-25.121128-5.500336-35.259926-13.836762-8.552479-7.032135-12.359978-16.34349-12.790066-27.1138-.270231-6.767212 4.774414-12.083618 11.478024-12.72757.826282-.079376 1.664562-.044616 2.497284-.044647 54.985336-.001541 109.970665-.001266 164.956001-.001114h4.035736c-3.638229 6.43126-6.369812 12.431504-10.126526 17.700898-17.707107 24.83699-41.78685 38.144577-72.495087 38.013992-17.289543-.073517-34.574333-1.26117-52.29544-1.990997z"/><path d="m148.554932 138.505798c6.287246 7.54271 7.509262 15.561814 3.088958 23.92453-4.382217 8.290696-11.32283 13.049378-21.033706 12.484848-9.647698-.560867-16.003845-5.919021-19.590149-14.643768-3.284332-7.990097-.313355-17.987945 6.973121-24.289734 6.970795-6.028763 15.952538-7.220856 23.608254-2.860138 2.422501 1.379853 4.485321 3.391114 6.953522 5.384262z"/><path d="m883.17572 188.968506c15.770386-5.847931 31.330078-.962921 41.227661 12.690765 8.321228 11.479218 7.209778 28.542145-2.606567 40.769715-7.30719 9.102081-16.672974 15.104522-27.774292 18.440124-1.287231.38678-2.991882.376495-4.208252-.141632-18.672424-7.953918-29.661804-27.972443-25.899414-47.41478 2.164612-11.185775 8.86084-19.055923 19.260864-24.344192z"/><path d="m892.151489 44.550644c11.793701 4.3036 22.603577 9.541096 30.475891 19.461212 11.292298 14.22979 9.492371 34.702919-4.280822 46.654579-14.025818 12.170891-33.010926 11.137139-46.040589-2.506904-12.205566-12.781083-12.269409-31.56839-.17456-47.844777 5.164795-6.950359 11.660156-12.222648 20.02008-15.76411z"/><path d="m1088.750732 197.171219c1.695069.673462 4.003418 1.38916 3.979126 2.013901-.432373 11.087005.750977 22.690643-2.15332 33.143936-9.317749 33.535263-50.616943 43.068161-74.822388 18.039703-8.013366-8.285873-12.06665-18.093674-12.127197-29.628357-.068786-13.101013 9.910828-23.439407 23.248535-23.529846 20.466675-.138763 40.935181-.03833 61.875244-.039337z"/><path d="m1092.906128 151.000275v23.689178c-14.982544 0-29.668457 0-44.565674 0 0-14.603302 0-29.009003 0-43.787536h44.565674z"/></g></svg>