<svg version="1.1" id="Layer_1" xmlns="http://www.w3.org/2000/svg" xmlns:xlink="http://www.w3.org/1999/xlink" x="0px" y="0px"
	 width="100%" viewBox="0 0 2060 1014" enable-background="new 0 0 2060 1014" xml:space="preserve">
<path fill="#FFFFFF" opacity="1.000000" stroke="none" 
	d="
M1374.000000,1015.000000 
	C916.000000,1015.000000 458.500000,1015.000000 1.000000,1015.000000 
	C1.000000,677.000000 1.000000,339.000000 1.000000,1.000000 
	C687.666687,1.000000 1374.333374,1.000000 2061.000000,1.000000 
	C2061.000000,339.000000 2061.000000,677.000000 2061.000000,1015.000000 
	C1832.166626,1015.000000 1603.333374,1015.000000 1374.000000,1015.000000 
M435.495331,637.472900 
	C427.692139,637.989990 419.854553,638.204956 412.093079,639.088379 
	C396.981384,640.808411 383.662811,645.658386 375.736176,660.176086 
	C367.904419,674.519836 369.881439,694.267090 380.799255,704.621704 
	C387.990540,711.442139 397.184479,713.162170 406.537384,714.034180 
	C418.793854,715.177002 431.137756,715.534790 443.340698,717.058167 
	C456.399048,718.688416 469.160919,721.753723 480.834137,728.362366 
	C502.026062,740.359863 503.584015,768.181396 482.199493,780.785828 
	C469.947083,788.007507 456.786865,791.559814 442.804016,791.904114 
	C427.120453,792.290283 412.117615,788.458862 397.576660,782.831421 
	C376.030121,774.492798 356.100952,762.914917 337.119507,750.046448 
	C295.641174,721.926331 254.574112,693.186462 213.714752,664.170776 
	C184.219986,643.225342 154.218842,623.195984 122.028885,606.590393 
	C115.034622,602.982239 107.992119,599.795166 99.831978,599.851746 
	C89.855240,599.920959 85.568108,606.430603 91.056030,614.885254 
	C93.985367,619.398193 98.682716,623.185852 103.338013,626.088501 
	C136.756271,646.925842 169.272659,669.048584 198.020828,696.067200 
	C225.578629,721.967041 252.437592,748.618835 279.310364,775.236328 
	C299.331268,795.067078 319.512085,814.666199 341.943054,831.820435 
	C358.340424,844.360352 376.592834,852.572815 397.224548,853.975769 
	C427.774841,856.053040 456.521027,849.502808 482.523682,832.926697 
	C504.942932,818.635071 520.899658,799.143250 528.047241,773.174316 
	C533.049622,754.999451 533.354858,736.489075 528.867981,718.298523 
	C519.509949,680.358459 499.499054,651.544739 459.492950,640.756165 
	C458.069733,640.372314 457.106567,638.282471 456.114838,636.068176 
	C456.120575,463.746765 456.222290,291.425140 455.901428,119.104332 
	C455.881470,108.389084 457.685028,99.606148 466.071747,92.746376 
	C468.927460,90.410583 469.432800,87.423653 469.390869,83.888756 
	C469.226715,70.058357 468.739197,56.190971 469.538483,42.404968 
	C470.034271,33.853401 467.789246,27.568861 460.505188,23.302114 
	C457.796082,21.715233 454.728241,19.652695 451.821259,19.648413 
	C327.830414,19.465828 203.839233,19.476095 79.848244,19.608267 
	C77.521011,19.610746 74.640602,20.782949 72.961975,22.393162 
	C63.944851,31.042778 55.144249,39.924923 46.489368,48.938488 
	C45.091442,50.394352 44.149189,52.900547 44.107475,54.943913 
	C43.879616,66.105133 43.998165,77.273430 43.999321,88.439301 
	C43.999939,94.419472 52.513756,103.394386 58.467010,104.214165 
	C64.862724,105.094864 71.373367,105.878052 77.499748,107.780014 
	C84.262878,109.879669 84.768143,112.426735 80.221825,117.680664 
	C71.128960,128.188751 63.405010,139.552231 57.690590,152.239044 
	C44.496582,181.531631 41.717266,212.416885 43.556656,244.037292 
	C43.639114,245.454849 42.757019,247.353394 41.689262,248.342484 
	C35.752560,253.841934 28.795057,258.452057 23.721498,264.627350 
	C12.371279,278.442261 8.606648,293.988922 16.723604,311.015564 
	C24.064419,326.414093 33.931946,332.511383 50.941364,331.097931 
	C58.826393,330.442719 66.916588,329.309814 74.355751,326.763306 
	C101.577515,317.445007 128.971451,318.668671 156.046631,325.783905 
	C203.296707,338.201050 247.686722,356.593231 283.104980,392.026642 
	C284.555420,393.477722 287.918274,394.161407 289.900787,393.567902 
	C291.437683,393.107819 292.661530,390.212646 293.203278,388.180908 
	C293.832031,385.822968 293.669067,383.225800 293.669556,380.732452 
	C293.687683,290.572235 293.684784,200.412018 293.684784,110.251808 
	C293.684784,108.300896 293.684784,106.349983 293.684784,104.221779 
	C322.334106,104.221779 350.585632,104.221779 379.407806,104.221779 
	C384.125702,127.797241 389.191345,151.204697 393.431671,174.760696 
	C399.325897,207.504684 405.035889,240.294235 410.017151,273.186584 
	C414.801788,304.780609 419.117035,336.468994 422.607422,368.229218 
	C426.099091,400.001251 429.660706,431.867126 430.760651,463.775665 
	C432.264160,507.390747 431.472107,551.085022 431.638519,594.745422 
	C431.641785,595.603027 431.331055,596.461792 431.035461,598.006226 
	C429.116547,595.669128 427.637634,593.906921 426.200256,592.111511 
	C388.623840,545.174622 344.902527,505.539581 290.633972,478.573242 
	C269.235626,467.940277 246.863922,460.061646 222.996811,457.189850 
	C200.886368,454.529449 178.757843,455.504150 156.662369,457.560760 
	C142.207550,458.906158 127.986191,461.458191 114.423996,466.869476 
	C90.366745,476.468201 74.653305,492.435760 73.999535,519.917480 
	C73.683754,533.191772 82.110588,545.352112 94.935699,548.712524 
	C108.991768,552.395386 123.228119,550.613037 136.968704,547.295166 
	C178.220154,537.334290 219.560806,537.286072 260.776550,546.136047 
	C304.331116,555.488281 345.118317,572.261719 382.964264,595.856873 
	C402.063354,607.764343 420.013245,621.247925 435.495331,637.472900 
M905.168335,270.500061 
	C905.168335,215.078384 905.168335,159.656693 905.168335,104.303604 
	C934.058472,104.303604 962.321777,104.303604 990.785217,104.303604 
	C993.233032,115.257729 996.121704,125.883507 997.929321,136.690109 
	C1004.241394,174.426437 1010.863647,212.131363 1016.067383,250.026840 
	C1021.229492,287.619476 1025.147705,325.394531 1028.994141,363.152466 
	C1031.947632,392.144867 1034.244019,421.213745 1036.285767,450.287048 
	C1038.817993,486.344299 1042.008545,522.417236 1042.716797,558.526489 
	C1043.831177,615.330322 1043.106445,672.170166 1043.181030,728.994751 
	C1043.183838,731.152588 1043.120483,733.374023 1043.594238,735.450378 
	C1044.096191,737.649902 1044.658813,740.269104 1046.151001,741.725464 
	C1050.178955,745.656921 1055.276001,746.046021 1060.553345,744.496826 
	C1065.587402,743.019043 1067.669678,739.353943 1067.906860,734.392517 
	C1068.002197,732.396790 1067.997070,730.395081 1067.997070,728.396118 
	C1068.000732,525.258423 1068.070801,322.120667 1067.797485,118.983360 
	C1067.783569,108.555763 1069.149658,99.746788 1077.555664,92.965912 
	C1080.489990,90.598930 1081.138428,87.427032 1081.082397,83.675262 
	C1080.876099,69.846977 1080.458130,55.984333 1081.206421,42.193581 
	C1081.646729,34.079739 1079.829834,27.947773 1072.790527,23.789116 
	C1070.072144,22.183107 1067.153687,19.682272 1064.322876,19.677601 
	C939.507690,19.471626 814.692078,19.489801 689.876648,19.593441 
	C687.998657,19.594999 685.663330,20.530685 684.318481,21.832918 
	C675.221252,30.641884 666.238220,39.575768 657.469971,48.710823 
	C655.971619,50.271885 655.001465,52.975063 654.947144,55.179157 
	C654.688965,65.671310 654.831665,76.173317 654.831665,86.671822 
	C654.831665,95.554695 662.686829,103.396706 671.500366,104.306427 
	C677.881348,104.965065 684.313843,106.235809 690.405273,108.213531 
	C694.764832,109.628983 694.979614,112.708946 692.142212,116.202690 
	C689.518616,119.433052 686.763794,122.589363 684.457397,126.039375 
	C671.157166,145.934509 664.041199,168.369110 660.241211,191.578537 
	C657.132935,210.563614 656.648315,229.974564 654.830994,249.180664 
	C654.657776,251.010864 653.758911,253.582581 652.379822,254.359253 
	C642.154358,260.118317 635.108948,268.774658 629.111023,278.544739 
	C616.633667,298.869385 626.321350,324.326477 641.270508,333.322144 
	C650.811157,339.063263 661.183044,338.487335 671.321594,336.474792 
	C682.382935,334.279114 693.071838,330.177643 704.145325,328.079468 
	C730.067078,323.167786 754.499634,328.784943 777.462769,340.887146 
	C811.090576,358.609894 840.297119,382.115662 865.927246,410.137451 
	C874.584290,419.602295 883.165894,429.157043 892.279419,438.167511 
	C894.337769,440.202484 898.624695,441.109283 901.585754,440.640472 
	C903.115356,440.398285 904.179871,436.064392 905.075500,433.449402 
	C905.535645,432.105835 905.167786,430.477386 905.167786,428.977661 
	C905.168457,376.485138 905.168335,323.992645 905.168335,270.500061 
M1166.963867,161.412766 
	C1158.007202,179.893845 1150.737427,198.863632 1150.559937,219.801270 
	C1139.037354,220.784836 1130.101318,226.288345 1122.750977,233.958755 
	C1105.114136,252.363815 1103.719971,265.749756 1114.014038,284.656525 
	C1119.370483,294.494629 1126.824341,301.251312 1138.938721,302.000641 
	C1152.721313,302.853088 1166.464844,304.462280 1180.195190,306.010132 
	C1210.724487,309.451721 1239.324829,318.765778 1265.076782,335.676361 
	C1292.319946,353.566193 1319.185059,372.031677 1346.254517,390.187317 
	C1347.530273,391.043060 1349.915161,392.200134 1350.512939,391.699554 
	C1351.706909,390.699738 1352.835083,388.479401 1352.545532,387.057648 
	C1351.564331,382.241791 1350.936890,376.939148 1348.423584,372.916290 
	C1329.807007,343.119354 1310.401733,313.852905 1286.234131,288.112976 
	C1263.359253,263.749969 1237.810791,242.885880 1206.929932,229.452515 
	C1197.412109,225.312195 1187.217651,222.727158 1176.456299,219.137543 
	C1177.460449,215.189743 1178.039185,210.695221 1179.727051,206.665222 
	C1186.899780,189.539536 1198.691650,175.884888 1212.958984,164.311676 
	C1230.048340,150.449371 1238.612671,149.589325 1256.107788,162.623627 
	C1271.831543,174.338257 1286.937622,187.015961 1301.387573,200.280396 
	C1342.203735,237.747467 1378.883789,279.231781 1415.489502,320.693115 
	C1447.562256,357.020447 1478.413818,394.424561 1510.000122,431.185242 
	C1513.383301,435.122498 1517.675903,438.694305 1522.250854,441.091827 
	C1528.753418,444.499634 1534.164062,441.042633 1535.115967,433.741730 
	C1535.458984,431.109650 1535.499146,428.424622 1535.501221,425.763641 
	C1535.525513,393.101013 1535.583130,360.438232 1535.501587,327.775787 
	C1535.379639,278.954407 1534.910156,230.128159 1540.982300,181.535751 
	C1543.954468,157.751099 1547.156616,134.001495 1554.085205,110.983139 
	C1555.829102,105.189240 1559.020020,99.834358 1561.495483,94.255287 
	C1562.315552,92.407288 1563.580078,90.499077 1563.611938,88.601013 
	C1563.808472,76.939102 1562.769165,65.175110 1563.960327,53.632832 
	C1565.294434,40.705143 1561.370239,30.629385 1551.878296,22.398462 
	C1550.200317,20.943398 1547.712402,19.647478 1545.578857,19.616226 
	C1529.750854,19.384378 1513.916626,19.390125 1498.088135,19.607548 
	C1495.900879,19.637592 1493.211792,20.697769 1491.645996,22.206057 
	C1482.647339,30.874218 1473.851074,39.757061 1465.166138,48.741123 
	C1463.831055,50.122334 1462.727783,52.396065 1462.704590,54.271729 
	C1462.510498,69.934059 1462.553467,85.600098 1462.659546,101.264122 
	C1462.669800,102.787384 1463.193115,104.637245 1464.147705,105.772812 
	C1473.325562,116.691620 1478.618408,129.599854 1482.946045,142.896423 
	C1500.168091,195.810455 1507.752075,250.465195 1510.752075,305.760223 
	C1512.222168,332.854218 1511.556519,360.064301 1511.835938,387.222046 
	C1511.847778,388.379272 1511.640747,389.538757 1511.535522,390.697174 
	C1503.423706,379.724701 1495.903687,368.742096 1489.293945,357.236511 
	C1466.699707,317.906647 1445.046753,278.023499 1421.871460,239.043060 
	C1393.154663,190.741928 1361.907349,144.178238 1320.192749,105.696823 
	C1319.811768,105.345428 1319.604736,104.805626 1319.091797,104.001480 
	C1328.003052,104.001480 1336.333618,103.816597 1344.649048,104.091446 
	C1348.029053,104.203171 1350.152344,103.057083 1352.144775,100.480797 
	C1356.319824,95.082085 1360.286377,89.390816 1365.192993,84.716553 
	C1375.649292,74.755646 1378.966553,63.243103 1378.651855,48.723408 
	C1378.395264,36.877048 1376.172119,28.277887 1365.277588,23.025673 
	C1362.682007,21.774340 1360.021484,19.649212 1357.384888,19.640057 
	C1300.725830,19.443241 1244.066040,19.464355 1187.406616,19.596029 
	C1185.363525,19.600779 1182.905884,20.690275 1181.351196,22.072437 
	C1171.764404,30.595337 1162.311768,39.274075 1153.008545,48.105488 
	C1151.662109,49.383686 1150.708618,51.749157 1150.676758,53.630169 
	C1150.470825,65.791847 1150.506714,77.959473 1150.648438,90.122978 
	C1150.667358,91.752823 1151.299805,93.770889 1152.379028,94.927032 
	C1158.185791,101.148354 1164.599976,105.843140 1174.036621,104.130058 
	C1178.231201,103.368591 1182.742920,104.473808 1186.997681,103.897781 
	C1194.576660,102.871712 1199.717529,107.107437 1205.507202,110.995384 
	C1188.449707,124.650574 1176.601196,141.735504 1166.963867,161.412766 
M2020.221313,187.920929 
	C2022.484497,171.604889 2024.210571,155.190247 2027.181641,139.004150 
	C2029.543823,126.134842 2033.142212,113.461227 2036.823975,100.885803 
	C2037.828857,97.453613 2041.115967,94.689621 2043.355591,91.618980 
	C2044.501221,79.683472 2043.594971,66.937798 2044.750122,54.381763 
	C2045.962646,41.203934 2042.522583,30.638308 2032.462158,22.262583 
	C2030.862427,20.930759 2028.605835,19.644791 2026.635864,19.618227 
	C2010.807739,19.404814 1994.974854,19.422621 1979.145874,19.598791 
	C1977.246338,19.619934 1974.892944,20.530260 1973.546265,21.844400 
	C1964.364746,30.804066 1955.339233,39.927055 1946.426025,49.154530 
	C1945.209961,50.413383 1944.280762,52.538139 1944.262329,54.273102 
	C1944.096802,69.768967 1944.118652,85.267677 1944.232910,100.764473 
	C1944.245361,102.449081 1944.930542,104.265182 1945.743652,105.784904 
	C1950.433594,114.551437 1956.012085,122.925385 1959.886475,132.029465 
	C1969.961304,155.702682 1975.873291,180.642685 1980.471802,205.888626 
	C1987.072876,242.129181 1992.038330,278.596954 1992.898438,315.454926 
	C1993.609863,345.935333 1993.340576,376.438690 1993.484375,406.932007 
	C1993.490967,408.311951 1993.288330,409.692871 1993.063477,412.643982 
	C1986.610229,404.717712 1980.640991,398.245636 1975.642090,391.095154 
	C1955.521851,362.314484 1936.506836,332.726166 1915.586548,304.547638 
	C1881.811157,259.054230 1843.325439,218.227737 1793.305786,189.841873 
	C1791.799927,188.987427 1790.650391,186.176285 1790.622192,184.258423 
	C1790.403076,169.430588 1790.501099,154.598083 1790.501099,139.767014 
	C1790.501099,127.977097 1790.501221,116.187187 1790.501221,104.001129 
	C1804.824951,104.001129 1818.796997,104.147079 1832.760254,103.864960 
	C1835.239014,103.814873 1838.207397,102.560760 1840.052490,100.878548 
	C1849.285034,92.460915 1858.322266,83.819221 1867.163818,74.991676 
	C1868.790405,73.367722 1869.979126,70.542892 1870.036865,68.238869 
	C1870.325195,56.747864 1870.182617,45.245674 1870.162598,33.747467 
	C1870.153076,28.243799 1861.530151,19.506220 1856.086060,19.505320 
	C1794.095581,19.495075 1732.104980,19.473011 1670.114746,19.603598 
	C1667.891235,19.608282 1665.283447,20.666332 1663.512573,22.065792 
	C1652.798218,30.532684 1642.192871,39.144405 1631.777100,47.974270 
	C1630.192383,49.317753 1629.072876,52.011486 1628.962280,54.144234 
	C1628.608643,60.958164 1629.601074,67.909920 1628.661865,74.610550 
	C1626.994751,86.503227 1630.668335,94.912704 1641.461792,100.597488 
	C1644.883545,102.399696 1647.779663,104.162971 1651.900513,104.101402 
	C1668.227661,103.857437 1684.562744,104.155098 1700.890869,103.943642 
	C1710.757568,103.815857 1719.065552,107.347397 1726.460571,113.500534 
	C1742.762573,127.064919 1752.205933,145.056595 1758.970215,164.651321 
	C1760.446777,168.928406 1760.735229,173.615601 1761.663818,178.614014 
	C1757.800171,178.131393 1754.823242,177.980148 1751.945801,177.364426 
	C1732.909058,173.290848 1714.004150,173.827637 1695.009521,177.998413 
	C1661.392212,185.379913 1636.670776,204.216476 1620.224365,234.362839 
	C1607.939209,256.881256 1604.895142,281.221771 1605.049316,306.314911 
	C1605.239380,337.269073 1618.225830,362.646515 1641.977783,381.182434 
	C1675.912964,407.665253 1713.710693,414.212494 1753.122925,393.702759 
	C1785.063721,377.081146 1807.001465,352.706573 1807.377441,313.986298 
	C1807.415649,310.046844 1809.116699,305.831207 1811.034668,302.277191 
	C1813.379395,297.932281 1817.687012,297.562164 1821.368042,300.578003 
	C1873.295044,343.119965 1925.247559,385.630554 1977.108643,428.252625 
	C1984.881592,434.640686 1993.653564,440.055206 1998.827881,449.218811 
	C1999.588623,450.566101 2001.209473,451.511932 2002.582764,452.414520 
	C2008.797363,456.498718 2015.026245,453.583282 2015.961060,446.153992 
	C2016.188843,444.343933 2016.159302,442.495056 2016.160767,440.664001 
	C2016.174561,423.999878 2016.053955,407.334869 2016.188965,390.671814 
	C2016.734253,323.377411 2014.063354,256.019135 2020.221313,187.920929 
M1465.630127,548.839661 
	C1474.277100,549.268433 1482.954834,549.376282 1491.563965,550.200256 
	C1504.852539,551.472229 1517.850098,554.052185 1530.080566,559.850098 
	C1554.262207,571.313660 1552.715942,594.720215 1543.213867,609.949768 
	C1533.453247,625.593628 1517.698608,630.728821 1500.513672,631.838135 
	C1474.350342,633.526978 1450.697876,625.381592 1428.498291,612.063110 
	C1388.074585,587.811523 1351.559326,558.250916 1315.196289,528.531250 
	C1283.959351,503.001221 1252.592285,477.683777 1217.010376,458.344299 
	C1209.878418,454.467987 1201.574829,452.559265 1193.622925,450.455872 
	C1189.379395,449.333374 1185.281982,451.387543 1182.772339,455.107483 
	C1180.142334,459.005890 1180.937744,463.405823 1183.563110,466.775818 
	C1186.043213,469.959259 1189.266724,472.918640 1192.773926,474.890015 
	C1217.933838,489.032166 1242.241699,504.339111 1264.139282,523.320129 
	C1294.958130,550.034180 1320.695190,581.121155 1343.805054,614.539490 
	C1358.143066,635.273071 1373.252686,655.298157 1393.284302,671.104980 
	C1416.941162,689.772278 1443.667969,695.720581 1473.082275,691.181885 
	C1494.297363,687.908325 1513.036743,678.853271 1530.087891,666.163391 
	C1575.444336,632.407837 1595.808472,576.558167 1572.110718,521.392395 
	C1561.618286,496.967255 1544.591675,478.965302 1519.628784,468.709412 
	C1503.838013,462.221802 1487.486450,461.848541 1470.988403,463.256012 
	C1450.343018,465.017303 1431.834961,471.775635 1417.150024,487.371063 
	C1396.722900,509.064636 1403.510376,536.309387 1432.159058,544.156006 
	C1442.635010,547.025269 1453.812012,547.335144 1465.630127,548.839661 
M588.882446,73.367683 
	C592.465881,66.622032 596.082275,59.893562 599.612671,53.120274 
	C600.678040,51.076298 602.242126,48.932232 602.312622,46.792290 
	C602.613586,37.666206 602.440674,28.524500 602.440674,19.551859 
	C601.747375,19.264414 601.454956,19.037294 601.162292,19.036903 
	C577.669128,19.005566 554.175720,18.946301 530.683594,19.095327 
	C529.336731,19.103870 527.466248,20.521025 526.747681,21.794916 
	C522.506348,29.313763 518.419617,36.927380 514.573975,44.655025 
	C513.858643,46.092575 513.821472,48.555244 514.580444,49.934452 
	C524.032349,67.110168 533.635925,84.203728 543.396057,101.206169 
	C544.170288,102.554871 546.366638,103.788422 547.950317,103.850861 
	C555.104065,104.132889 562.284119,104.163353 569.433594,103.831146 
	C571.070679,103.755074 573.277100,102.251022 574.109253,100.776474 
	C579.087646,91.954948 583.740723,82.949791 588.882446,73.367683 
z"/>
<path fill="#010101" opacity="1.000000" stroke="none" 
	d="
M436.187988,636.983765 
	C420.013245,621.247925 402.063354,607.764343 382.964264,595.856873 
	C345.118317,572.261719 304.331116,555.488281 260.776550,546.136047 
	C219.560806,537.286072 178.220154,537.334290 136.968704,547.295166 
	C123.228119,550.613037 108.991768,552.395386 94.935699,548.712524 
	C82.110588,545.352112 73.683754,533.191772 73.999535,519.917480 
	C74.653305,492.435760 90.366745,476.468201 114.423996,466.869476 
	C127.986191,461.458191 142.207550,458.906158 156.662369,457.560760 
	C178.757843,455.504150 200.886368,454.529449 222.996811,457.189850 
	C246.863922,460.061646 269.235626,467.940277 290.633972,478.573242 
	C344.902527,505.539581 388.623840,545.174622 426.200256,592.111511 
	C427.637634,593.906921 429.116547,595.669128 431.035461,598.006226 
	C431.331055,596.461792 431.641785,595.603027 431.638519,594.745422 
	C431.472107,551.085022 432.264160,507.390747 430.760651,463.775665 
	C429.660706,431.867126 426.099091,400.001251 422.607422,368.229218 
	C419.117035,336.468994 414.801788,304.780609 410.017151,273.186584 
	C405.035889,240.294235 399.325897,207.504684 393.431671,174.760696 
	C389.191345,151.204697 384.125702,127.797241 379.407806,104.221779 
	C350.585632,104.221779 322.334106,104.221779 293.684784,104.221779 
	C293.684784,106.349983 293.684784,108.300896 293.684784,110.251808 
	C293.684784,200.412018 293.687683,290.572235 293.669556,380.732452 
	C293.669067,383.225800 293.832031,385.822968 293.203278,388.180908 
	C292.661530,390.212646 291.437683,393.107819 289.900787,393.567902 
	C287.918274,394.161407 284.555420,393.477722 283.104980,392.026642 
	C247.686722,356.593231 203.296707,338.201050 156.046631,325.783905 
	C128.971451,318.668671 101.577515,317.445007 74.355751,326.763306 
	C66.916588,329.309814 58.826393,330.442719 50.941364,331.097931 
	C33.931946,332.511383 24.064419,326.414093 16.723604,311.015564 
	C8.606648,293.988922 12.371279,278.442261 23.721498,264.627350 
	C28.795057,258.452057 35.752560,253.841934 41.689262,248.342484 
	C42.757019,247.353394 43.639114,245.454849 43.556656,244.037292 
	C41.717266,212.416885 44.496582,181.531631 57.690590,152.239044 
	C63.405010,139.552231 71.128960,128.188751 80.221825,117.680664 
	C84.768143,112.426735 84.262878,109.879669 77.499748,107.780014 
	C71.373367,105.878052 64.862724,105.094864 58.467010,104.214165 
	C52.513756,103.394386 43.999939,94.419472 43.999321,88.439301 
	C43.998165,77.273430 43.879616,66.105133 44.107475,54.943913 
	C44.149189,52.900547 45.091442,50.394352 46.489368,48.938488 
	C55.144249,39.924923 63.944851,31.042778 72.961975,22.393162 
	C74.640602,20.782949 77.521011,19.610746 79.848244,19.608267 
	C203.839233,19.476095 327.830414,19.465828 451.821259,19.648413 
	C454.728241,19.652695 457.796082,21.715233 460.505188,23.302114 
	C467.789246,27.568861 470.034271,33.853401 469.538483,42.404968 
	C468.739197,56.190971 469.226715,70.058357 469.390869,83.888756 
	C469.432800,87.423653 468.927460,90.410583 466.071747,92.746376 
	C457.685028,99.606148 455.881470,108.389084 455.901428,119.104332 
	C456.222290,291.425140 456.120575,463.746765 455.558746,636.534302 
	C448.731110,636.994873 442.459534,636.989319 436.187988,636.983765 
M240.965729,131.577911 
	C237.997711,124.746849 235.365921,117.741882 231.951782,111.141594 
	C229.373535,106.157227 225.106857,103.675972 218.888031,103.864761 
	C204.742615,104.294189 190.563492,104.361626 176.419952,103.902588 
	C161.044617,103.403564 147.668976,108.536407 135.438232,117.142548 
	C105.796921,137.999603 86.367821,166.396027 75.275970,200.581680 
	C71.282600,212.889481 69.324966,225.690582 69.819595,238.211258 
	C83.033966,237.418274 95.941307,236.305893 108.870064,235.929703 
	C151.879745,234.678238 188.273163,250.621262 219.813553,279.073242 
	C239.447296,296.784485 254.105911,318.343353 268.001801,340.527191 
	C268.796387,341.795715 269.694275,342.999573 271.093201,345.030762 
	C271.093201,342.879822 271.179413,341.894867 271.080811,340.928741 
	C266.637390,297.386047 262.669525,253.786880 257.537048,210.325302 
	C254.419327,183.924576 249.186264,157.803345 240.965729,131.577911 
z"/>
<path fill="#010101" opacity="1.000000" stroke="none" 
	d="
M905.168335,271.000092 
	C905.168335,323.992645 905.168457,376.485138 905.167786,428.977661 
	C905.167786,430.477386 905.535645,432.105835 905.075500,433.449402 
	C904.179871,436.064392 903.115356,440.398285 901.585754,440.640472 
	C898.624695,441.109283 894.337769,440.202484 892.279419,438.167511 
	C883.165894,429.157043 874.584290,419.602295 865.927246,410.137451 
	C840.297119,382.115662 811.090576,358.609894 777.462769,340.887146 
	C754.499634,328.784943 730.067078,323.167786 704.145325,328.079468 
	C693.071838,330.177643 682.382935,334.279114 671.321594,336.474792 
	C661.183044,338.487335 650.811157,339.063263 641.270508,333.322144 
	C626.321350,324.326477 616.633667,298.869385 629.111023,278.544739 
	C635.108948,268.774658 642.154358,260.118317 652.379822,254.359253 
	C653.758911,253.582581 654.657776,251.010864 654.830994,249.180664 
	C656.648315,229.974564 657.132935,210.563614 660.241211,191.578537 
	C664.041199,168.369110 671.157166,145.934509 684.457397,126.039375 
	C686.763794,122.589363 689.518616,119.433052 692.142212,116.202690 
	C694.979614,112.708946 694.764832,109.628983 690.405273,108.213531 
	C684.313843,106.235809 677.881348,104.965065 671.500366,104.306427 
	C662.686829,103.396706 654.831665,95.554695 654.831665,86.671822 
	C654.831665,76.173317 654.688965,65.671310 654.947144,55.179157 
	C655.001465,52.975063 655.971619,50.271885 657.469971,48.710823 
	C666.238220,39.575768 675.221252,30.641884 684.318481,21.832918 
	C685.663330,20.530685 687.998657,19.594999 689.876648,19.593441 
	C814.692078,19.489801 939.507690,19.471626 1064.322876,19.677601 
	C1067.153687,19.682272 1070.072144,22.183107 1072.790527,23.789116 
	C1079.829834,27.947773 1081.646729,34.079739 1081.206421,42.193581 
	C1080.458130,55.984333 1080.876099,69.846977 1081.082397,83.675262 
	C1081.138428,87.427032 1080.489990,90.598930 1077.555664,92.965912 
	C1069.149658,99.746788 1067.783569,108.555763 1067.797485,118.983360 
	C1068.070801,322.120667 1068.000732,525.258423 1067.997070,728.396118 
	C1067.997070,730.395081 1068.002197,732.396790 1067.906860,734.392517 
	C1067.669678,739.353943 1065.587402,743.019043 1060.553345,744.496826 
	C1055.276001,746.046021 1050.178955,745.656921 1046.151001,741.725464 
	C1044.658813,740.269104 1044.096191,737.649902 1043.594238,735.450378 
	C1043.120483,733.374023 1043.183838,731.152588 1043.181030,728.994751 
	C1043.106445,672.170166 1043.831177,615.330322 1042.716797,558.526489 
	C1042.008545,522.417236 1038.817993,486.344299 1036.285767,450.287048 
	C1034.244019,421.213745 1031.947632,392.144867 1028.994141,363.152466 
	C1025.147705,325.394531 1021.229492,287.619476 1016.067383,250.026840 
	C1010.863647,212.131363 1004.241394,174.426437 997.929321,136.690109 
	C996.121704,125.883507 993.233032,115.257729 990.785217,104.303604 
	C962.321777,104.303604 934.058472,104.303604 905.168335,104.303604 
	C905.168335,159.656693 905.168335,215.078384 905.168335,271.000092 
M783.839478,261.625092 
	C803.738892,275.987732 820.428467,293.419128 834.846985,313.290131 
	C849.767212,333.852509 862.203369,355.808319 873.853699,378.291992 
	C877.396179,385.128632 881.385925,391.733582 885.170898,398.444611 
	C886.066772,396.568970 886.203308,394.996613 886.046814,393.453949 
	C882.099060,354.523804 878.446167,315.559998 874.060425,276.678955 
	C869.173157,233.350861 863.043457,190.174713 852.858582,147.723999 
	C849.888672,135.345032 845.385376,123.314949 841.222656,111.249969 
	C839.422913,106.033745 835.414062,103.771004 829.544312,103.897354 
	C815.053650,104.209312 800.541504,104.342003 786.057312,103.904747 
	C771.135864,103.454292 758.345154,108.594536 746.701294,117.285072 
	C716.402344,139.898972 697.011230,170.176758 685.513672,205.735336 
	C681.425232,218.379654 679.090088,231.475876 679.848816,244.382187 
	C692.491272,243.597824 704.893860,242.517624 717.318237,242.123856 
	C741.298645,241.363815 763.445129,247.363281 783.839478,261.625092 
M886.354614,399.962341 
	C886.445190,399.911407 886.535828,399.860504 886.626404,399.809570 
	C886.522644,399.753235 886.418884,399.696899 886.354614,399.962341 
z"/>
<path fill="#010101" opacity="1.000000" stroke="none" 
	d="
M1167.097656,161.063446 
	C1176.601196,141.735504 1188.449707,124.650574 1205.507202,110.995384 
	C1199.717529,107.107437 1194.576660,102.871712 1186.997681,103.897781 
	C1182.742920,104.473808 1178.231201,103.368591 1174.036621,104.130058 
	C1164.599976,105.843140 1158.185791,101.148354 1152.379028,94.927032 
	C1151.299805,93.770889 1150.667358,91.752823 1150.648438,90.122978 
	C1150.506714,77.959473 1150.470825,65.791847 1150.676758,53.630169 
	C1150.708618,51.749157 1151.662109,49.383686 1153.008545,48.105488 
	C1162.311768,39.274075 1171.764404,30.595337 1181.351196,22.072437 
	C1182.905884,20.690275 1185.363525,19.600779 1187.406616,19.596029 
	C1244.066040,19.464355 1300.725830,19.443241 1357.384888,19.640057 
	C1360.021484,19.649212 1362.682007,21.774340 1365.277588,23.025673 
	C1376.172119,28.277887 1378.395264,36.877048 1378.651855,48.723408 
	C1378.966553,63.243103 1375.649292,74.755646 1365.192993,84.716553 
	C1360.286377,89.390816 1356.319824,95.082085 1352.144775,100.480797 
	C1350.152344,103.057083 1348.029053,104.203171 1344.649048,104.091446 
	C1336.333618,103.816597 1328.003052,104.001480 1319.091797,104.001480 
	C1319.604736,104.805626 1319.811768,105.345428 1320.192749,105.696823 
	C1361.907349,144.178238 1393.154663,190.741928 1421.871460,239.043060 
	C1445.046753,278.023499 1466.699707,317.906647 1489.293945,357.236511 
	C1495.903687,368.742096 1503.423706,379.724701 1511.535522,390.697174 
	C1511.640747,389.538757 1511.847778,388.379272 1511.835938,387.222046 
	C1511.556519,360.064301 1512.222168,332.854218 1510.752075,305.760223 
	C1507.752075,250.465195 1500.168091,195.810455 1482.946045,142.896423 
	C1478.618408,129.599854 1473.325562,116.691620 1464.147705,105.772812 
	C1463.193115,104.637245 1462.669800,102.787384 1462.659546,101.264122 
	C1462.553467,85.600098 1462.510498,69.934059 1462.704590,54.271729 
	C1462.727783,52.396065 1463.831055,50.122334 1465.166138,48.741123 
	C1473.851074,39.757061 1482.647339,30.874218 1491.645996,22.206057 
	C1493.211792,20.697769 1495.900879,19.637592 1498.088135,19.607548 
	C1513.916626,19.390125 1529.750854,19.384378 1545.578857,19.616226 
	C1547.712402,19.647478 1550.200317,20.943398 1551.878296,22.398462 
	C1561.370239,30.629385 1565.294434,40.705143 1563.960327,53.632832 
	C1562.769165,65.175110 1563.808472,76.939102 1563.611938,88.601013 
	C1563.580078,90.499077 1562.315552,92.407288 1561.495483,94.255287 
	C1559.020020,99.834358 1555.829102,105.189240 1554.085205,110.983139 
	C1547.156616,134.001495 1543.954468,157.751099 1540.982300,181.535751 
	C1534.910156,230.128159 1535.379639,278.954407 1535.501587,327.775787 
	C1535.583130,360.438232 1535.525513,393.101013 1535.501221,425.763641 
	C1535.499146,428.424622 1535.458984,431.109650 1535.115967,433.741730 
	C1534.164062,441.042633 1528.753418,444.499634 1522.250854,441.091827 
	C1517.675903,438.694305 1513.383301,435.122498 1510.000122,431.185242 
	C1478.413818,394.424561 1447.562256,357.020447 1415.489502,320.693115 
	C1378.883789,279.231781 1342.203735,237.747467 1301.387573,200.280396 
	C1286.937622,187.015961 1271.831543,174.338257 1256.107788,162.623627 
	C1238.612671,149.589325 1230.048340,150.449371 1212.958984,164.311676 
	C1198.691650,175.884888 1186.899780,189.539536 1179.727051,206.665222 
	C1178.039185,210.695221 1177.460449,215.189743 1176.456299,219.137543 
	C1187.217651,222.727158 1197.412109,225.312195 1206.929932,229.452515 
	C1237.810791,242.885880 1263.359253,263.749969 1286.234131,288.112976 
	C1310.401733,313.852905 1329.807007,343.119354 1348.423584,372.916290 
	C1350.936890,376.939148 1351.564331,382.241791 1352.545532,387.057648 
	C1352.835083,388.479401 1351.706909,390.699738 1350.512939,391.699554 
	C1349.915161,392.200134 1347.530273,391.043060 1346.254517,390.187317 
	C1319.185059,372.031677 1292.319946,353.566193 1265.076782,335.676361 
	C1239.324829,318.765778 1210.724487,309.451721 1180.195190,306.010132 
	C1166.464844,304.462280 1152.721313,302.853088 1138.938721,302.000641 
	C1126.824341,301.251312 1119.370483,294.494629 1114.014038,284.656525 
	C1103.719971,265.749756 1105.114136,252.363815 1122.750977,233.958755 
	C1130.101318,226.288345 1139.037354,220.784836 1150.559937,219.801270 
	C1150.737427,198.863632 1158.007202,179.893845 1167.097656,161.063446 
z"/>
<path fill="#010101" opacity="1.000000" stroke="none" 
	d="
M2020.173584,188.376633 
	C2014.063354,256.019135 2016.734253,323.377411 2016.188965,390.671814 
	C2016.053955,407.334869 2016.174561,423.999878 2016.160767,440.664001 
	C2016.159302,442.495056 2016.188843,444.343933 2015.961060,446.153992 
	C2015.026245,453.583282 2008.797363,456.498718 2002.582764,452.414520 
	C2001.209473,451.511932 1999.588623,450.566101 1998.827881,449.218811 
	C1993.653564,440.055206 1984.881592,434.640686 1977.108643,428.252625 
	C1925.247559,385.630554 1873.295044,343.119965 1821.368042,300.578003 
	C1817.687012,297.562164 1813.379395,297.932281 1811.034668,302.277191 
	C1809.116699,305.831207 1807.415649,310.046844 1807.377441,313.986298 
	C1807.001465,352.706573 1785.063721,377.081146 1753.122925,393.702759 
	C1713.710693,414.212494 1675.912964,407.665253 1641.977783,381.182434 
	C1618.225830,362.646515 1605.239380,337.269073 1605.049316,306.314911 
	C1604.895142,281.221771 1607.939209,256.881256 1620.224365,234.362839 
	C1636.670776,204.216476 1661.392212,185.379913 1695.009521,177.998413 
	C1714.004150,173.827637 1732.909058,173.290848 1751.945801,177.364426 
	C1754.823242,177.980148 1757.800171,178.131393 1761.663818,178.614014 
	C1760.735229,173.615601 1760.446777,168.928406 1758.970215,164.651321 
	C1752.205933,145.056595 1742.762573,127.064919 1726.460571,113.500534 
	C1719.065552,107.347397 1710.757568,103.815857 1700.890869,103.943642 
	C1684.562744,104.155098 1668.227661,103.857437 1651.900513,104.101402 
	C1647.779663,104.162971 1644.883545,102.399696 1641.461792,100.597488 
	C1630.668335,94.912704 1626.994751,86.503227 1628.661865,74.610550 
	C1629.601074,67.909920 1628.608643,60.958164 1628.962280,54.144234 
	C1629.072876,52.011486 1630.192383,49.317753 1631.777100,47.974270 
	C1642.192871,39.144405 1652.798218,30.532684 1663.512573,22.065792 
	C1665.283447,20.666332 1667.891235,19.608282 1670.114746,19.603598 
	C1732.104980,19.473011 1794.095581,19.495075 1856.086060,19.505320 
	C1861.530151,19.506220 1870.153076,28.243799 1870.162598,33.747467 
	C1870.182617,45.245674 1870.325195,56.747864 1870.036865,68.238869 
	C1869.979126,70.542892 1868.790405,73.367722 1867.163818,74.991676 
	C1858.322266,83.819221 1849.285034,92.460915 1840.052490,100.878548 
	C1838.207397,102.560760 1835.239014,103.814873 1832.760254,103.864960 
	C1818.796997,104.147079 1804.824951,104.001129 1790.501221,104.001129 
	C1790.501221,116.187187 1790.501099,127.977097 1790.501099,139.767014 
	C1790.501099,154.598083 1790.403076,169.430588 1790.622192,184.258423 
	C1790.650391,186.176285 1791.799927,188.987427 1793.305786,189.841873 
	C1843.325439,218.227737 1881.811157,259.054230 1915.586548,304.547638 
	C1936.506836,332.726166 1955.521851,362.314484 1975.642090,391.095154 
	C1980.640991,398.245636 1986.610229,404.717712 1993.063477,412.643982 
	C1993.288330,409.692871 1993.490967,408.311951 1993.484375,406.932007 
	C1993.340576,376.438690 1993.609863,345.935333 1992.898438,315.454926 
	C1992.038330,278.596954 1987.072876,242.129181 1980.471802,205.888626 
	C1975.873291,180.642685 1969.961304,155.702682 1959.886475,132.029465 
	C1956.012085,122.925385 1950.433594,114.551437 1945.743652,105.784904 
	C1944.930542,104.265182 1944.245361,102.449081 1944.232910,100.764473 
	C1944.118652,85.267677 1944.096802,69.768967 1944.262329,54.273102 
	C1944.280762,52.538139 1945.209961,50.413383 1946.426025,49.154530 
	C1955.339233,39.927055 1964.364746,30.804066 1973.546265,21.844400 
	C1974.892944,20.530260 1977.246338,19.619934 1979.145874,19.598791 
	C1994.974854,19.422621 2010.807739,19.404814 2026.635864,19.618227 
	C2028.605835,19.644791 2030.862427,20.930759 2032.462158,22.262583 
	C2042.522583,30.638308 2045.962646,41.203934 2044.750122,54.381763 
	C2043.594971,66.937798 2044.501221,79.683472 2043.355591,91.618980 
	C2041.115967,94.689621 2037.828857,97.453613 2036.823975,100.885803 
	C2033.142212,113.461227 2029.543823,126.134842 2027.181641,139.004150 
	C2024.210571,155.190247 2022.484497,171.604889 2020.173584,188.376633 
M1647.687012,277.183624 
	C1646.093140,279.089203 1644.232910,280.831421 1642.948120,282.926544 
	C1633.520020,298.301483 1634.721558,314.430511 1641.986572,329.715820 
	C1659.697388,366.977875 1711.986816,384.469543 1750.511963,358.600403 
	C1763.096313,350.150177 1774.602295,340.087128 1777.286987,324.676178 
	C1779.245361,313.434174 1778.232666,301.512451 1777.372070,289.981232 
	C1776.209717,274.405548 1766.950317,265.886871 1751.757812,262.496002 
	C1728.798218,257.371552 1705.897095,257.531036 1682.928467,261.635010 
	C1670.225220,263.904785 1658.039551,267.676086 1647.687012,277.183624 
z"/>
<path fill="#C57034" opacity="1.000000" stroke="none" 
	d="
M435.841675,637.228333 
	C442.459534,636.989319 448.731110,636.994873 455.465820,636.994080 
	C457.106567,638.282471 458.069733,640.372314 459.492950,640.756165 
	C499.499054,651.544739 519.509949,680.358459 528.867981,718.298523 
	C533.354858,736.489075 533.049622,754.999451 528.047241,773.174316 
	C520.899658,799.143250 504.942932,818.635071 482.523682,832.926697 
	C456.521027,849.502808 427.774841,856.053040 397.224548,853.975769 
	C376.592834,852.572815 358.340424,844.360352 341.943054,831.820435 
	C319.512085,814.666199 299.331268,795.067078 279.310364,775.236328 
	C252.437592,748.618835 225.578629,721.967041 198.020828,696.067200 
	C169.272659,669.048584 136.756271,646.925842 103.338013,626.088501 
	C98.682716,623.185852 93.985367,619.398193 91.056030,614.885254 
	C85.568108,606.430603 89.855240,599.920959 99.831978,599.851746 
	C107.992119,599.795166 115.034622,602.982239 122.028885,606.590393 
	C154.218842,623.195984 184.219986,643.225342 213.714752,664.170776 
	C254.574112,693.186462 295.641174,721.926331 337.119507,750.046448 
	C356.100952,762.914917 376.030121,774.492798 397.576660,782.831421 
	C412.117615,788.458862 427.120453,792.290283 442.804016,791.904114 
	C456.786865,791.559814 469.947083,788.007507 482.199493,780.785828 
	C503.584015,768.181396 502.026062,740.359863 480.834137,728.362366 
	C469.160919,721.753723 456.399048,718.688416 443.340698,717.058167 
	C431.137756,715.534790 418.793854,715.177002 406.537384,714.034180 
	C397.184479,713.162170 387.990540,711.442139 380.799255,704.621704 
	C369.881439,694.267090 367.904419,674.519836 375.736176,660.176086 
	C383.662811,645.658386 396.981384,640.808411 412.093079,639.088379 
	C419.854553,638.204956 427.692139,637.989990 435.841675,637.228333 
z"/>
<path fill="#C57034" opacity="1.000000" stroke="none" 
	d="
M1465.149658,548.826111 
	C1453.812012,547.335144 1442.635010,547.025269 1432.159058,544.156006 
	C1403.510376,536.309387 1396.722900,509.064636 1417.150024,487.371063 
	C1431.834961,471.775635 1450.343018,465.017303 1470.988403,463.256012 
	C1487.486450,461.848541 1503.838013,462.221802 1519.628784,468.709412 
	C1544.591675,478.965302 1561.618286,496.967255 1572.110718,521.392395 
	C1595.808472,576.558167 1575.444336,632.407837 1530.087891,666.163391 
	C1513.036743,678.853271 1494.297363,687.908325 1473.082275,691.181885 
	C1443.667969,695.720581 1416.941162,689.772278 1393.284302,671.104980 
	C1373.252686,655.298157 1358.143066,635.273071 1343.805054,614.539490 
	C1320.695190,581.121155 1294.958130,550.034180 1264.139282,523.320129 
	C1242.241699,504.339111 1217.933838,489.032166 1192.773926,474.890015 
	C1189.266724,472.918640 1186.043213,469.959259 1183.563110,466.775818 
	C1180.937744,463.405823 1180.142334,459.005890 1182.772339,455.107483 
	C1185.281982,451.387543 1189.379395,449.333374 1193.622925,450.455872 
	C1201.574829,452.559265 1209.878418,454.467987 1217.010376,458.344299 
	C1252.592285,477.683777 1283.959351,503.001221 1315.196289,528.531250 
	C1351.559326,558.250916 1388.074585,587.811523 1428.498291,612.063110 
	C1450.697876,625.381592 1474.350342,633.526978 1500.513672,631.838135 
	C1517.698608,630.728821 1533.453247,625.593628 1543.213867,609.949768 
	C1552.715942,594.720215 1554.262207,571.313660 1530.080566,559.850098 
	C1517.850098,554.052185 1504.852539,551.472229 1491.563965,550.200256 
	C1482.954834,549.376282 1474.277100,549.268433 1465.149658,548.826111 
z"/>
<path fill="#010101" opacity="1.000000" stroke="none" 
	d="
M588.692688,73.686951 
	C583.740723,82.949791 579.087646,91.954948 574.109253,100.776474 
	C573.277100,102.251022 571.070679,103.755074 569.433594,103.831146 
	C562.284119,104.163353 555.104065,104.132889 547.950317,103.850861 
	C546.366638,103.788422 544.170288,102.554871 543.396057,101.206169 
	C533.635925,84.203728 524.032349,67.110168 514.580444,49.934452 
	C513.821472,48.555244 513.858643,46.092575 514.573975,44.655025 
	C518.419617,36.927380 522.506348,29.313763 526.747681,21.794916 
	C527.466248,20.521025 529.336731,19.103870 530.683594,19.095327 
	C554.175720,18.946301 577.669128,19.005566 601.162292,19.036903 
	C601.454956,19.037294 601.747375,19.264414 602.440674,19.551859 
	C602.440674,28.524500 602.613586,37.666206 602.312622,46.792290 
	C602.242126,48.932232 600.678040,51.076298 599.612671,53.120274 
	C596.082275,59.893562 592.465881,66.622032 588.692688,73.686951 
z"/>
<path fill="#FEFEFE" opacity="1.000000" stroke="none" 
	d="
M241.044434,131.969727 
	C249.186264,157.803345 254.419327,183.924576 257.537048,210.325302 
	C262.669525,253.786880 266.637390,297.386047 271.080811,340.928741 
	C271.179413,341.894867 271.093201,342.879822 271.093201,345.030762 
	C269.694275,342.999573 268.796387,341.795715 268.001801,340.527191 
	C254.105911,318.343353 239.447296,296.784485 219.813553,279.073242 
	C188.273163,250.621262 151.879745,234.678238 108.870064,235.929703 
	C95.941307,236.305893 83.033966,237.418274 69.819595,238.211258 
	C69.324966,225.690582 71.282600,212.889481 75.275970,200.581680 
	C86.367821,166.396027 105.796921,137.999603 135.438232,117.142548 
	C147.668976,108.536407 161.044617,103.403564 176.419952,103.902588 
	C190.563492,104.361626 204.742615,104.294189 218.888031,103.864761 
	C225.106857,103.675972 229.373535,106.157227 231.951782,111.141594 
	C235.365921,117.741882 237.997711,124.746849 241.044434,131.969727 
z"/>
<path fill="#FEFEFE" opacity="1.000000" stroke="none" 
	d="
M783.558716,261.397247 
	C763.445129,247.363281 741.298645,241.363815 717.318237,242.123856 
	C704.893860,242.517624 692.491272,243.597824 679.848816,244.382187 
	C679.090088,231.475876 681.425232,218.379654 685.513672,205.735336 
	C697.011230,170.176758 716.402344,139.898972 746.701294,117.285072 
	C758.345154,108.594536 771.135864,103.454292 786.057312,103.904747 
	C800.541504,104.342003 815.053650,104.209312 829.544312,103.897354 
	C835.414062,103.771004 839.422913,106.033745 841.222656,111.249969 
	C845.385376,123.314949 849.888672,135.345032 852.858582,147.723999 
	C863.043457,190.174713 869.173157,233.350861 874.060425,276.678955 
	C878.446167,315.559998 882.099060,354.523804 886.046814,393.453949 
	C886.203308,394.996613 886.066772,396.568970 885.170898,398.444611 
	C881.385925,391.733582 877.396179,385.128632 873.853699,378.291992 
	C862.203369,355.808319 849.767212,333.852509 834.846985,313.290131 
	C820.428467,293.419128 803.738892,275.987732 783.558716,261.397247 
z"/>
<path fill="#FEFEFE" opacity="1.000000" stroke="none" 
	d="
M886.334839,399.801453 
	C886.418884,399.696899 886.522644,399.753235 886.626404,399.809570 
	C886.535828,399.860504 886.445190,399.911407 886.334839,399.801453 
z"/>
<path fill="#FEFEFE" opacity="1.000000" stroke="none" 
	d="
M1647.932861,276.923645 
	C1658.039551,267.676086 1670.225220,263.904785 1682.928467,261.635010 
	C1705.897095,257.531036 1728.798218,257.371552 1751.757812,262.496002 
	C1766.950317,265.886871 1776.209717,274.405548 1777.372070,289.981232 
	C1778.232666,301.512451 1779.245361,313.434174 1777.286987,324.676178 
	C1774.602295,340.087128 1763.096313,350.150177 1750.511963,358.600403 
	C1711.986816,384.469543 1659.697388,366.977875 1641.986572,329.715820 
	C1634.721558,314.430511 1633.520020,298.301483 1642.948120,282.926544 
	C1644.232910,280.831421 1646.093140,279.089203 1647.932861,276.923645 
z"/>
</svg>