<svg enable-background="new 0 0 976 1024" viewBox="0 0 976 1024" xmlns="http://www.w3.org/2000/svg"><path d="m977 289.571533c-12.301697 20.213501-24.621033 39.987641-36.897827 59.788086-6.315247 10.185455-12.547974 20.422058-18.837402 30.623566-.76056 1.233612-1.240906 2.791321-4.004456 3.218262-19.803101-32.304596-39.802002-64.928528-59.800842-97.55243.222473-.56546.445007-1.13089.66748-1.69635 39.312256 0 78.624451 0 118.404846.023651.468201 1.738037.468201 3.452393.468201 5.595215z"/><path d="m64.673798 867.267395c-15.849179-26.374939-30.342774-53.046326-43.052332-81.01416 2.833255-.474732 4.103033 1.080566 5.574934 1.98407 38.399807 23.572448 79.001835 42.262329 122.459804 54.334655 21.856934 6.071656 44.216858 9.368775 66.951782 10.52118 23.956406 1.214294 47.615555-.150269 70.78267-6.377442 18.008514-4.840515 35.052276-11.913574 48.255828-25.888672 7.328553-7.756958 12.658722-16.102539 10.477417-27.712524-.968109-5.152588-.32901-10.640869-.132232-15.966187.121917-3.298339-1.095459-5.125305-4.14206-6.484741-37.008514-16.512817-75.784546-27.082275-115.530975-34.293152-30.700424-5.569763-61.730545-7.389038-92.894119-8.499328-28.921822-1.030396-57.563248.995544-86.215012 4.155639-1.323047.145996-2.658169.220765-3.989025.241394-.641338.01001-1.285839-.183471-1.886131-.278076-2.194699-12.191833 27.655491-98.043274 42.94173-122.846313-15.732353 0-30.819568 0-45.494026 0-1.210625-3.064453-.00182-4.648438.616867-6.292237 5.396858-14.339599 10.948692-28.622009 16.19931-43.014526 1.374413-3.767456 3.468899-4.990112 7.395249-4.976807 37.83036.128357 75.661308.079834 113.492073.10785 1.611771.001159 3.361114-.398377 4.769104.99469.625748 1.542114-.176025 2.879089-.721436 4.243164-5.87387 14.690307-11.873321 29.332153-17.554611 44.096496-1.458252 3.789673-3.619018 4.923706-7.49591 4.843384-10.327897-.213989-20.66594.080566-30.995057-.102966-3.921196-.06958-6.534896 1.319397-8.770546 4.496154-11.056259 15.710633-17.825126 33.447083-24.506202 51.232666-.992737 2.642701-1.791428 5.359131-2.637329 8.054871-.084046.267761.130348.629089.277168 1.244202 2.501762 1.465576 5.399193.727295 8.068756.451599 51.448448-5.311402 101.719612.008056 150.512489 17.254455 31.62851 11.179383 59.84314 28.29773 84.467438 51.196473 4.764038 4.430114 8.811951 9.502868 12.966614 14.471862 1.625183-.840332.971374-2.157165.984466-3.178589.365296-28.493957-.913818-56.938293-3.327056-85.312316-1.548646-18.208558-3.957184-36.340943-6.870789-54.397339-.634888-3.934693-2.18866-5.676392-6.493012-5.559082-6.906646.188049-13.879119.545471-21.016052-.400574.038971-4.817261 1.766266-8.638733 2.890259-12.560059 3.485107-12.158752 7.198517-24.252319 10.656555-36.418518.974762-3.429626 2.7146-4.943359 6.383576-4.717041 4.316375.266175 8.664093.13031 12.994384.019409 2.035279-.052185 4.673401.683411 5.379181-2.282104.609833-2.562256.101258-4.870117-2.186828-6.68573-6.52536-5.17804-12.925324-10.513916-19.438294-15.707764-40.785126-32.525116-82.162704-64.255066-125.670349-93.1026-16.528381-10.959076-33.195282-21.706756-51.493408-29.589416-10.572312-4.554474-11.319611-4.567353-19.007355 3.68042-10.257469 11.004699-18.845085 23.292968-26.656669 36.135345-1.483269 2.438507-1.638108 4.18042 1.340263 5.543915 36.359802 16.645508 60.160797 45.901398 79.625473 79.47699 2.647598 4.566955 5.451843 9.078674 6.734116 14.819641-25.314942-14.348328-51.273102-27.144898-78.55906-37.020813-27.272934-9.871186-55.202831-16.942536-86.080556-18.130493 31.960367-51.871186 63.439321-102.121888 107.337797-144.797821-12.833275-1.747437-25.015633-.618226-37.12304-.811585-12.268714-.195923-24.543014-.043243-36.836929-.043243-.789089-3.736603.772854-6.470703 1.575245-9.239563 4.539989-15.666382 9.403263-31.239868 13.857021-46.929962 1.21756-4.289338 3.291619-5.651886 7.728226-5.640412 55.162575.142975 110.325661.085999 165.488625.092652 6.42807.000793 6.507965.16275 5.11528 6.529968-3.622666 16.562286-7.396836 33.094787-10.713227 49.718414-.882797 4.42514-2.766342 5.581268-7.008102 5.533234-17.829849-.201874-35.6633-.103058-53.495377-.074616-2.466598.003937-5.009353-.308899-7.963226 1.325348 68.94867 48.111664 124.106247 109.290863 173.645493 176.853577 0-2.354065-.01944-4.708374.00296-7.062256.24588-25.824524-.721985-51.627655-3.154083-77.313751-2.78888-29.454407-6.004944-58.89621-15.083161-87.319702-1.638946-5.13147-4.122619-7.196076-9.61972-6.846436-7.6185.484558-7.739472-.004913-5.940491-7.466278 3.935333-16.32196 7.942444-32.627319 11.734406-48.982513.808899-3.488831 2.243164-4.986847 6.026947-4.959961 21.164123.150695 42.329956.045806 63.495117.079376 5.415802.008575 5.583038.377289 4.339081 5.896454-5.230011 23.205017-12.230439 45.990905-16.510132 69.418487-3.41391 18.687989-5.373718 37.567291-6.639527 56.499726-1.809936 27.070159-3.498016 54.153106-4.777862 81.252349-.824921 17.465821-.755646 34.972474-1.248688 52.456299-.109161 3.870789 1.562378 4.877014 5.077454 4.779297 6.161316-.171509 12.331451-.072082 18.497162-.010254 1.771057.017761 3.697601-.424316 5.420715 1.317566-.365753 4.350647-2.302826 8.427918-3.726715 12.620117-2.944336 8.668763-5.757782 17.400513-9.167145 25.888672-5.989685 14.912232-7.499237 30.648621-9.139526 46.363465-3.944001 37.785339-5.624543 75.691894-6.426422 113.66986-.327149 15.494996-.325623 30.983216-.459992 46.47406-.026764 3.088013-.664612 5.825318-2.057495 8.592225-17.108429 33.985961-41.677795 60.943908-75.341888 79.005188-15.535859 8.335266-32.374543 12.911621-50.024979 14.486938-34.580978 3.086304-67.656952-2.752502-99.336121-16.64093-13.948105-6.114929-26.783386-14.174988-38.460441-24.011963-1.515686-1.276794-3.088166-2.486267-5.159821-4.148621-.098594 2.299744.916863 3.544922 1.732956 4.791687 16.212547 24.769165 33.980812 48.26355 56.939797 67.282776 18.040756 14.944947 37.655471 27.058106 61.454925 30.293274 18.684433 2.539917 36.717041-.577087 54.390884-6.907593 36.170746-12.95581 65.407197-36.055664 92.303864-62.597839 11.516602-11.364746 22.108368-23.571228 31.784149-36.560181 1.052094-1.412292 1.760773-3.249206 3.688416-3.888855 1.381347 1.151734.290893 2.190613-.172852 3.074524-23.199615 44.221619-50.461822 85.511109-87.244385 119.822693-14.960785 13.955689-31.398193 25.687378-50.699096 33.176392-25.952942 10.070007-50.899475 7.367004-75.232254-5.052674-25.360382-12.944091-45.955597-31.771179-64.45591-53.023986-22.044357-25.324097-41.238815-52.737122-58.798988-81.754578z"/><path d="m470.50708 559.534058c-11.9198 6.946472-22.576691 15.128784-33.378876 23.093322-.382782-.240051-.765564-.480041-1.148346-.720092 1.291779-6.199036 2.526917-12.410462 3.886261-18.594666 3.674591-16.717285 7.578308-33.386963 11.004548-50.154541 1.073822-5.25531 4.099487-8.541382 8.114593-11.388153 13.351105-9.466064 28.419891-15.315552 43.819519-20.283813 23.117462-7.458222 46.279877-14.865357 70.469513-18.170716 7.413574-1.013031 14.875-1.722046 22.334106-2.330383 2.517273-.205322 3.937561-.981568 4.605591-3.521668 9.364807-35.605468 6.309937-69.191894-15.857849-99.804626-2.271545-3.136932-4.778198-4.421112-8.732056-4.40268-32.830261.153229-65.66156.094208-98.492553.067933-2.285004-.001831-4.655548.418243-6.87085-.727967-.684997-3.233978.838104-6.00711 1.615997-8.809936 5.073884-18.282074 10.429261-36.486206 15.467255-54.777863.952973-3.4599 2.72876-4.364868 6.033417-4.362701 88.16037.058136 176.32077.044586 264.481171.060791 1.461914.000274 3.019958-.310242 4.273071.718017.803589 1.162537.355896 2.294251.057678 3.403473-5.316284 19.77237-10.731873 39.51883-15.888733 59.332642-1.018127 3.912201-2.734009 5.285461-6.861084 5.264496-31.996887-.162689-63.994934-.08551-95.992676-.069062-7.641113.003937-7.699035.298401-5.526184 7.653962 4.070008 13.777923 4.786194 27.813659 2.842224 42.038971-2.593689 18.979309-7.644287 37.156067-17.050171 53.97702-.795898 1.42337-1.315002 3.001526-2.186645 5.028503 6.553467 1.487641 12.880676.813629 19.060608 1.418152 39.1698 3.831787 74.306213 17.78952 105.398559 41.714752 27.617615 21.251496 49.984864 47.32779 68.677247 76.660736 22.065124 34.625916 35.171081 72.6521 43.126709 112.666626.299133 1.504639.569213 2.943177-.275818 4.352295-2.126404 3.545899-4.244568 7.096741-6.372193 10.656006-2.537414-.774963-2.47351-2.916748-3.07373-4.459289-8.528809-21.918885-17.943848-43.36084-30.812866-63.201538-22.767212-35.101258-52.254822-62.856568-88.964417-82.959656-28.095093-15.38562-58.220947-24.421021-89.843933-28.591187-27.685364-3.65094-55.423706-4.387817-83.165222-.289673-30.014649 4.43396-57.908966 14.93628-84.773865 29.512513z"/><path d="m62.639103 217.535431c-26.235939-13.847702-40.752052-36.079315-47.904093-63.745804-5.311981-20.548523-6.94697-41.344353-2.995411-62.330025 3.538122-18.790016 11.26002-35.53759 25.536177-48.675129 28.552982-26.275722 62.28902-35.522627 100.202724-28.99602 14.10933 2.42883 26.36969 10.138351 38.377289 17.632485 22.983948 14.344676 43.471619 31.870753 63.345551 50.214232 31.868698 29.414574 61.667343 60.829292 90.748672 92.94239 25.043579 27.654465 49.827545 55.544098 74.723755 83.331986.861847.961975 1.93216 1.834076 1.625885 4.688415-7.843567 0-15.730469.106507-23.61087-.072296-2.058869-.046692-3.364655-2.053314-4.840729-3.358734-27.081665-23.950653-54.32959-47.713516-82.237976-70.695434-37.566467-30.935074-75.880737-60.910271-117.186035-86.781601-14.102921-8.833275-28.464554-17.61171-44.836731-21.626709-21.115799-5.178292-42.541649-6.783959-63.604767.02375-19.708633 6.369919-30.88319 22.1063-31.598045 42.805916-.311425 9.017608-.268567 18.088104 3.318351 26.539337 7.098126 16.724106 23.115479 24.474091 42.453926 20.846161 19.55687-3.668915 34.183655-14.930771 46.206063-30.160797 1.217987-1.542969 2.021499-3.472489 3.982544-4.307236 1.790985.441086 2.126541 2.057953 2.768753 3.336227 10.617904 21.13443 21.120483 42.327469 31.876556 63.391144 1.883728 3.688919.933228 4.988007-2.486481 6.692063-16.257949 8.101333-33.360961 13.615783-51.322036 15.735168-17.890778 2.111069-35.542107.44484-52.543072-7.429489z"/></svg>