<svg enable-background="new 0 0 876 882" viewBox="0 0 876 882" xmlns="http://www.w3.org/2000/svg"><path d="m877 301v582c-292 0-584 0-876 0 0-294 0-588 0-882h876zm-771.892746 279.377686c31.459442 19.596984 64.41803 35.823486 100.489761 45.209167 22.407532 5.830322 44.931717 8.331055 67.525849 1.773621 20.322357-5.898072 38.373291-16.523194 55.614807-28.579224 25.249054-17.655212 47.125702-39.113831 68.824646-60.793335 2.682587-2.680237 3.674866-5.38031 3.806854-9.127502 1.483673-42.127045 2.421265-84.292603 5.002228-126.355988 2.30426-37.553833 6.032654-75.040008 9.977325-112.46701 2.96225-28.105408 6.214417-56.230576 13.680786-83.652268 3.702179-13.597 6.847718-27.345581 10.395661-41.632049-59.777649 0-119.014404 0-178.359009 0 0-26.446549 0-52.380776 0-78.758286h99.445099c6.712738-23.696629 13.309174-46.982689 20.005402-70.62105-80.363861 0-160.124512 0-240.209061 0-6.640946 23.427149-13.274155 46.82699-20.066635 70.788729h108.340698v78.944412c-57.657272 0-114.919228 0-172.127743 0-5.411476 21.043808-10.71896 41.683197-16.143013 62.775909h37.428723c-29.004094 64.657868-45.882405 132.805329-63.970894 201.451386 2.715551-.973541 4.265508-1.551208 5.829855-2.086823 45.340677-15.524078 91.580599-23.180908 139.435327-15.159667 27.690415 4.641357 53.151047 14.617248 74.360947 33.657867 1.6866 1.514099 2.999283 4.325012 3.085648 6.586761.347244 9.093384.143707 18.207825.143707 27.305695h24.147842c.432038-84.270782 1.141815-168.16626 11.925202-251.504807h75.315826c4.328278 28.767746 9.274323 57.293503 12.763763 85.996293 3.877564 31.895111 7.237671 63.898223 9.350312 95.951385 2.650879 40.21991 3.830414 80.537415 5.502197 120.818695.059052 1.422913-1.019135 3.552368-2.216522 4.271362-27.851349 16.723999-56.757416 31.207032-88.088013 40.321229-22.044525 6.412719-44.325073 9.118469-67.001663 3.39392-15.14415-3.822937-30.43689-7.1557-45.387344-11.629455-48.7146-14.577332-96.381051-32.183594-143.713908-50.708801-1.607549-.629151-3.238445-1.198609-5.767774-2.131104 28.337791 53.486328 59.314567 103.802429 98.818321 148.458313 20.767075 23.475464 43.741348 44.276856 71.369324 59.505127 19.451706 10.721558 40.028824 17.207825 62.497192 15.576904 8.881348-.644714 17.693634-2.241638 26.968994-3.461731 7.176941 13.553955 14.62793 27.625489 22.294861 42.104859 1.422516-1.620056 2.615906-2.952088 3.779816-4.309326 7.805511-9.101746 16.666076-16.684266 28.386261-20.382508 14.189941-4.4776 28.300262-.018493 36.736297 11.782837 8.972779 12.552246 8.857605 27.905579-.416809 39.884522-10.032715 12.958374-23.987884 19.333374-39.534088 22.245056-19.296539 3.614258-38.217743.306824-56.552948-5.670105-32.000854-10.431763-61.454559-25.903321-88.39238-46.188477-46.804138-35.245056-93.721183-70.34021-140.623802-105.454223-1.800243-1.347779-3.885582-3.046631-5.935837-3.190796-6.054729-.425598-12.1586-.152039-19.130764-.152039 1.813675 1.801392 2.896853 2.985718 4.090073 4.046265 25.155975 22.358032 50.377811 44.642334 75.474964 67.066223 24.099396 21.532349 48.482666 42.772095 71.964188 64.962646 17.228485 16.281311 34.70198 32.100159 54.277328 45.522522 32.255417 22.116944 66.831284 34.115296 106.723557 27.382141 34.476288-5.819152 60.808197-28.906677 67.187347-62.188903 4.694-24.490296 1.718323-48.416626-9.01828-71.104554-6.915558-14.613525-16.754822-26.882324-31.009582-34.887268-6.369324-3.576904-13.409089-5.9599-20.2258-8.919983 37.877228-32.515197 66.264343-72.784606 90.660156-116.246032-1.59613.582763-2.725494 1.623779-3.910186 2.597595-22.243836 18.283508-43.959015 37.265076-66.887299 54.64624-25.079102 19.011658-51.991669 35.1474-82.039063 45.59845-22.536621 7.838745-44.133285 7.402344-65.661773-3.532227-20.382447-10.352417-38.24823-24.044006-55.248856-39.076477-20.756607-18.353576-39.890884-38.258056-56.99453-60.280273.106827-.195496.213654-.39093 1.006432-.37384m745.093796-120.159089c-4.818421-28.417419-11.468628-56.378082-20.811341-83.671356-9.762451-28.519104-22.77832-55.384613-40.897338-79.584167-18.014161-24.059418-39.94458-43.813629-66.604493-57.824463-42.440918-22.304382-88.083068-27.913925-135.237915-24.571655-10.361511.73442-20.676025 2.130691-31.551391 3.279113 3.126953-10.579437 5.864319-20.703552 9.109253-30.662292 11.054504-33.926254 23.698364-67.150025 43.507507-97.184166 1.975952-2.995903 3.957825-4.092339 7.555969-4.085968 67.653809.119766 135.307984.088119 202.962036.088119h5.756653c6.327027-23.556984 12.622559-46.996719 18.954224-70.570787-103.052612 0-205.779175 0-308.511353 0-6.569153 23.569658-13.069824 46.893702-19.697509 70.673578h57.34021c-35.487366 69.382355-55.866028 143.584763-76.88202 218.012665 1.458344-.113342 2.431946-.142181 3.392273-.27066 17.970581-2.404114 35.877015-5.55658 53.921204-7.089417 45.959961-3.904144 91.127075-.501526 134.444336 17.063019 26.361938 10.689331 49.131042 26.643951 68.330322 47.465576 23.93573 25.958252 40.459046 56.483826 52.437439 89.468201 15.779968 43.452575 23.675842 88.671966 28.130493 134.481903 4.339844 44.630249 5.907776 89.425476 5.658753 134.274048-.007996 1.435913.143432 2.872741.216797 4.240356h24.109802c0-1.539978.03241-2.834656-.0047-4.12738-1.65393-57.614685-2.464966-115.271607-5.332397-172.825989-1.42865-28.674988-6.624756-57.162323-10.296814-86.578278m-414.655304 119.773407c.065307-.184021.130615-.367981.195953-.551941-.185821.05774-.371673.115418-.195953.551941z" fill="#fff"/><g fill="#010101"><path d="m103.707962 581.292175c17.496506 21.481568 36.630783 41.386048 57.38739 59.739624 17.000626 15.032471 34.866409 28.72406 55.248856 39.076477 21.528488 10.934571 43.125152 11.370972 65.661773 3.532227 30.047394-10.45105 56.959961-26.586792 82.039063-45.59845 22.928284-17.381164 44.643463-36.362732 66.887299-54.64624 1.184692-.973816 2.314056-2.014832 3.910186-2.597595-24.395813 43.461426-52.782928 83.730835-90.660156 116.246032 6.816711 2.960083 13.856476 5.343079 20.2258 8.919983 14.25476 8.004944 24.094024 20.273743 31.009582 34.887268 10.736603 22.687928 13.71228 46.614258 9.01828 71.104554-6.37915 33.282226-32.711059 56.369751-67.187347 62.188903-39.892273 6.733155-74.46814-5.265197-106.723557-27.382141-19.575348-13.422363-37.048843-29.241211-54.277328-45.522522-23.481522-22.190551-47.864792-43.430297-71.964188-64.962646-25.097153-22.423889-50.318989-44.708191-75.474964-67.066223-1.19322-1.060547-2.276398-2.244873-4.090073-4.046265 6.972164 0 13.076035-.273559 19.130764.152039 2.050255.144165 4.135594 1.843017 5.935837 3.190796 46.902619 35.114013 93.819664 70.209167 140.623802 105.454223 26.937821 20.285156 56.391526 35.756714 88.39238 46.188477 18.335205 5.976929 37.256409 9.284363 56.552948 5.670105 15.546204-2.911682 29.501373-9.286682 39.534088-22.245056 9.274414-11.978943 9.389588-27.332276.416809-39.884522-8.436035-11.80133-22.546356-16.260437-36.736297-11.782837-11.720185 3.698242-20.58075 11.280762-28.386261 20.382508-1.16391 1.357238-2.3573 2.68927-3.779816 4.309326-7.666931-14.47937-15.11792-28.550904-22.294861-42.104859-9.27536 1.220093-18.087646 2.817017-26.968994 3.461731-22.468368 1.630921-43.045486-4.855346-62.497192-15.576904-27.627976-15.228271-50.602249-36.029663-71.369324-59.505127-39.503754-44.655884-70.48053-94.971985-98.818321-148.458313 2.529329.932495 4.160225 1.501953 5.767774 2.131104 47.332857 18.525207 94.999308 36.131469 143.713908 50.708801 14.950454 4.473755 30.243194 7.806518 45.387344 11.629455 22.67659 5.724549 44.957138 3.018799 67.001663-3.39392 31.330597-9.114197 60.236664-23.59723 88.088013-40.321229 1.197387-.718994 2.275574-2.848449 2.216522-4.271362-1.671783-40.28128-2.851318-80.598785-5.502197-120.818695-2.112641-32.053162-5.472748-64.056274-9.350312-95.951385-3.48944-28.70279-8.435485-57.228547-12.763763-85.996293-25.410583 0-49.99408 0-75.315826 0-10.783387 83.338547-11.493164 167.234025-11.925202 251.504807-7.922149 0-15.804565 0-24.147842 0 0-9.09787.203537-18.212311-.143707-27.305695-.086365-2.261749-1.399048-5.072662-3.085648-6.586761-21.2099-19.040619-46.670532-29.01651-74.360947-33.657867-47.854728-8.021241-94.09465-.364411-139.435327 15.159667-1.564347.535615-3.114304 1.113282-5.829855 2.086823 18.088489-68.646057 34.9668-136.793518 63.970894-201.451386-12.261948 0-24.386391 0-37.428723 0 5.424053-21.092712 10.731537-41.732101 16.143013-62.775909h172.127743c0-26.454971 0-52.497963 0-78.944412-35.769501 0-71.690567 0-108.340698 0 6.79248-23.961739 13.425689-47.36158 20.066635-70.788729h240.209061c-6.696228 23.638361-13.292664 46.924421-20.005402 70.62105-33.087921 0-66.177124 0-99.445099 0v78.758286h178.359009c-3.547943 14.286468-6.693482 28.035049-10.395661 41.632049-7.466369 27.421692-10.718536 55.54686-13.680786 83.652268-3.944671 37.427002-7.673065 74.913177-9.977325 112.46701-2.580963 42.063385-3.518555 84.228943-5.002228 126.355988-.131988 3.747192-1.124267 6.447265-3.806854 9.127502-21.698944 21.679504-43.575592 43.138123-68.824646 60.793335-17.241516 12.05603-35.29245 22.681152-55.614807 28.579224-22.594132 6.557434-45.118317 4.056701-67.525849-1.773621-36.071731-9.385681-69.030319-25.612183-100.948722-45.465881-.642167-.44635-.864113-.560974-1.352189-.821228-.571106-.130371-.914817-.040161-1.258522.050048.260292.276307.520585.552552.818444 1.088196.309028.457581.58049.655884.851936.854187m-25.370735-279.36322c-4.223549 14.493012-8.44709 28.986054-12.745201 43.734924 68.123626 5.251404 124.889755 32.902619 171.486267 83.331482-.801727-67.929107-2.199371-134.745849-12.213684-201.157348-37.642578 0-74.621231-.027939-111.599251.108398-1.389313.005127-3.376709 1.268326-4.069321 2.511383-12.56253 22.546295-22.420707 46.273956-30.85881 71.471161z"/><path d="m850.291138 460.640442c3.58197 28.99411 8.778076 57.481445 10.206726 86.156433 2.867431 57.554382 3.678467 115.211304 5.332397 172.825989.03711 1.292724.0047 2.587402.0047 4.12738-8.15332 0-15.923218 0-24.109802 0-.073365-1.367615-.224793-2.804443-.216797-4.240356.249023-44.848572-1.318909-89.643799-5.658753-134.274048-4.454651-45.809937-12.350525-91.029328-28.130493-134.481903-11.978393-32.984375-28.501709-63.509949-52.437439-89.468201-19.19928-20.821625-41.968384-36.776245-68.330322-47.465576-43.317261-17.564545-88.484375-20.967163-134.444336-17.063019-18.044189 1.532837-35.950623 4.685303-53.921204 7.089417-.960327.128479-1.933929.157318-3.392273.27066 21.015992-74.427902 41.394654-148.63031 76.88202-218.012665-19.177369 0-37.922486 0-57.34021 0 6.627685-23.779876 13.128356-47.10392 19.697509-70.673578h308.511353c-6.331665 23.574068-12.627197 47.013803-18.954224 70.570787-2.104858 0-3.930725 0-5.756653 0-67.654052 0-135.308227.031647-202.962036-.088119-3.598144-.006371-5.580017 1.090065-7.555969 4.085968-19.809143 30.034141-32.453003 63.257912-43.507507 97.184166-3.244934 9.95874-5.9823 20.082855-9.109253 30.662292 10.875366-1.148422 21.18988-2.544693 31.551391-3.279113 47.154847-3.34227 92.796997 2.267273 135.237915 24.571655 26.659913 14.010834 48.590332 33.765045 66.604493 57.824463 18.119018 24.199554 31.134887 51.065063 40.897338 79.584167 9.342713 27.293274 15.99292 55.253937 20.901429 84.093201z"/><path d="m435.36499 579.802612c.005036-.247131.190888-.304809.376709-.362549-.065338.18396-.130646.36792-.376709.362549z"/></g><path d="m78.516144 301.573853c8.259186-24.842103 18.117363-48.569764 30.679893-71.116059.692612-1.243057 2.680008-2.506256 4.069321-2.511383 36.97802-.136337 73.956673-.108398 111.599251-.108398 10.014313 66.411499 11.411957 133.228241 12.213684 201.157348-46.596512-50.428863-103.362641-78.080078-171.486267-83.331482 4.298111-14.74887 8.521652-29.241912 12.924118-44.090026z" fill="#fefefe"/><path d="m102.818451 580.17865c-.260284-.276306-.520577-.552551-.780869-.828858.343705-.090209.687416-.180419 1.080368.112488.049241.383179-.299499.71637-.299499.71637z" fill="#fff"/><path d="m103.904396 581.021851c-.46788.072021-.739342-.126282-1.04837-.583863-.037575-.259338.311165-.592529.489319-.755127.438835-.122863.660781-.008239.959968.331787.009163.345948-.097664.541382-.400917 1.007203z" fill="#fff"/></svg>