<svg version="1.1" id="Layer_1" xmlns="http://www.w3.org/2000/svg" xmlns:xlink="http://www.w3.org/1999/xlink" x="0px" y="0px"
	 width="100%" viewBox="0 0 846 1014" enable-background="new 0 0 846 720" xml:space="preserve">
<path fill="#FFFFFF" opacity="1.000000" stroke="none" 
	d="
M847.000000,357.000000 
	C847.000000,576.666687 847.000000,795.833313 847.000000,1015.000000 
	C565.000000,1015.000000 283.000000,1015.000000 1.000000,1015.000000 
	C1.000000,677.000000 1.000000,339.000000 1.000000,1.000000 
	C283.000000,1.000000 565.000000,1.000000 847.000000,1.000000 
	C847.000000,119.500000 847.000000,238.000000 847.000000,357.000000 
M413.037018,445.416016 
	C416.500549,448.644653 419.491638,452.905609 423.577087,454.775330 
	C426.845703,456.271210 432.469421,456.263123 435.141632,454.311890 
	C437.438538,452.634735 437.629852,447.267212 437.640076,443.528442 
	C437.647827,440.695892 436.154480,437.742767 434.901825,435.041412 
	C423.768707,411.032684 413.208405,386.727112 401.184082,363.170105 
	C382.937897,327.423676 360.831635,294.247498 332.374939,265.556244 
	C297.302399,230.194550 255.559479,210.109283 205.342178,208.819992 
	C203.593018,208.775070 201.846542,208.626160 199.730408,208.504547 
	C204.488037,201.843048 209.360931,196.074615 213.009445,189.614670 
	C216.650177,183.168488 220.737518,176.254547 221.693008,169.150772 
	C224.252838,150.119247 222.243927,131.273926 214.479477,113.389503 
	C213.176483,110.388237 211.619797,107.497116 209.909103,104.000771 
	C212.264023,104.000771 214.040039,104.000771 215.816071,104.000771 
	C244.808838,104.000763 273.802094,104.071960 302.793518,103.873650 
	C305.271942,103.856697 308.315308,102.661018 310.114685,100.969055 
	C320.430481,91.268959 330.521027,81.324104 340.489746,71.265793 
	C341.926880,69.815758 342.930206,67.337631 343.036652,65.278542 
	C343.363098,58.963665 342.492645,52.534523 343.306458,46.309155 
	C344.621155,36.252338 341.265015,29.504808 332.488220,24.248400 
	C327.620880,21.333344 323.301514,19.278488 317.452728,19.292532 
	C243.304977,19.470587 169.156647,19.402803 95.008469,19.420673 
	C87.856483,19.422398 79.884933,17.638367 73.786629,20.215599 
	C67.871185,22.715553 63.846741,29.736969 59.052460,34.829781 
	C54.259483,39.921211 47.686504,44.354706 45.305534,50.416649 
	C42.858643,56.646423 44.536488,64.496368 44.410435,71.637344 
	C44.404556,71.970490 44.459293,72.312538 44.402512,72.635818 
	C42.307499,84.563446 46.306358,94.076485 55.978981,101.164818 
	C57.812893,102.508743 60.207539,103.854164 62.358459,103.878601 
	C81.018059,104.090538 99.687386,103.730453 118.339317,104.164040 
	C124.004005,104.295723 130.028580,105.452957 135.187302,107.729210 
	C150.279694,114.388634 161.260544,125.886353 171.853195,138.465317 
	C185.529312,154.705963 184.079651,190.153717 169.701874,203.766373 
	C168.098145,205.284760 165.669373,206.770203 163.589828,206.817993 
	C142.502701,207.302521 121.780014,210.183334 101.568687,216.171982 
	C81.633385,222.078812 62.587677,229.957031 47.074627,244.402145 
	C35.076042,255.574753 27.090303,268.842438 26.906500,285.833740 
	C26.744162,300.840515 34.747124,311.920258 47.910206,314.680176 
	C57.151932,316.617920 66.049629,315.756226 74.528320,311.216187 
	C91.178123,302.300842 109.125023,297.314484 127.734131,295.017792 
	C162.724579,290.699280 197.661880,292.592346 232.211365,298.776611 
	C271.117004,305.740692 305.778320,322.588379 336.801483,347.073486 
	C357.230896,363.197479 375.422333,381.399933 389.144531,403.610229 
	C397.448944,417.051514 404.859039,431.045380 413.037018,445.416016 
M422.776917,297.294495 
	C421.509552,304.286346 423.172821,310.852417 425.920502,317.174133 
	C431.836212,330.784576 441.351379,339.832977 457.070007,339.296051 
	C467.855682,338.927643 478.828552,338.519867 489.328827,336.294586 
	C529.302979,327.822968 569.406860,325.912109 609.981445,330.862274 
	C653.665527,336.191803 692.627075,352.850861 728.240112,378.201752 
	C757.318176,398.900726 782.268372,424.088287 806.896973,449.667847 
	C808.997498,451.849579 811.812439,453.729980 814.654480,454.727264 
	C819.847351,456.549316 822.102173,454.769501 823.961548,449.566010 
	C826.709534,441.876038 822.674377,436.136658 818.478271,430.858154 
	C792.057556,397.622467 766.081116,363.997650 738.624268,331.632782 
	C716.000549,304.965027 689.448792,282.509277 658.099426,266.154877 
	C631.211243,252.127777 602.867981,243.848389 572.470886,244.088577 
	C546.990906,244.289932 521.517517,245.412369 496.043365,246.197144 
	C492.308441,246.312225 488.585541,246.816696 483.900146,247.224228 
	C482.707001,232.628098 481.477448,218.722534 480.459961,204.801468 
	C479.546539,192.304306 482.462616,180.615875 489.144714,170.057632 
	C503.241302,147.783844 522.187073,130.619965 545.161682,117.824272 
	C560.480408,109.292488 576.383484,103.482422 594.429504,103.857979 
	C621.078186,104.412575 647.746887,104.019249 674.407043,103.976051 
	C677.395264,103.971207 680.436584,103.913986 683.362244,103.381279 
	C703.976990,99.627747 720.591064,88.748253 734.952332,73.996986 
	C739.082092,69.755051 740.947632,64.772179 740.613647,58.625191 
	C740.162231,50.318405 740.522827,41.968590 740.493774,33.637379 
	C740.474792,28.201996 731.715515,19.505672 726.243225,19.505039 
	C645.429504,19.495678 564.615723,19.480118 483.802155,19.605459 
	C481.789185,19.608582 479.305481,20.714334 477.844421,22.132956 
	C468.879974,30.836987 460.066315,39.702087 451.418121,48.720364 
	C450.006744,50.192150 448.986145,52.676777 448.943726,54.717346 
	C448.708282,66.043037 448.830475,77.376175 448.830933,88.706757 
	C448.831360,99.054596 453.847046,103.885406 464.392426,104.048080 
	C468.706543,104.114632 473.061157,104.408997 477.311523,105.115791 
	C484.442108,106.301559 486.206421,111.642029 481.830994,117.193535 
	C478.336304,121.627647 474.991577,126.233337 472.079132,131.063660 
	C460.070435,150.980072 451.539307,172.072922 450.753693,195.733353 
	C450.131378,214.476746 451.566681,232.988037 456.486542,251.142212 
	C457.080780,253.334885 457.346100,254.676712 454.923248,256.480133 
	C447.893646,261.712433 440.882690,267.131989 434.732727,273.338470 
	C428.497772,279.630676 424.023621,287.315979 422.776917,297.294495 
z"/>
<path fill="#C46F34" opacity="1.000000" stroke="none" 
	d="
M412.853973,445.103516 
	C404.859039,431.045380 397.448944,417.051514 389.144531,403.610229 
	C375.422333,381.399933 357.230896,363.197479 336.801483,347.073486 
	C305.778320,322.588379 271.117004,305.740692 232.211365,298.776611 
	C197.661880,292.592346 162.724579,290.699280 127.734131,295.017792 
	C109.125023,297.314484 91.178123,302.300842 74.528320,311.216187 
	C66.049629,315.756226 57.151932,316.617920 47.910206,314.680176 
	C34.747124,311.920258 26.744162,300.840515 26.906500,285.833740 
	C27.090303,268.842438 35.076042,255.574753 47.074627,244.402145 
	C62.587677,229.957031 81.633385,222.078812 101.568687,216.171982 
	C121.780014,210.183334 142.502701,207.302521 163.589828,206.817993 
	C165.669373,206.770203 168.098145,205.284760 169.701874,203.766373 
	C184.079651,190.153717 185.529312,154.705963 171.853195,138.465317 
	C161.260544,125.886353 150.279694,114.388634 135.187302,107.729210 
	C130.028580,105.452957 124.004005,104.295723 118.339317,104.164040 
	C99.687386,103.730453 81.018059,104.090538 62.358459,103.878601 
	C60.207539,103.854164 57.812893,102.508743 55.978981,101.164818 
	C46.306358,94.076485 42.307499,84.563446 44.402512,72.635818 
	C44.459293,72.312538 44.404556,71.970490 44.410435,71.637344 
	C44.536488,64.496368 42.858643,56.646423 45.305534,50.416649 
	C47.686504,44.354706 54.259483,39.921211 59.052460,34.829781 
	C63.846741,29.736969 67.871185,22.715553 73.786629,20.215599 
	C79.884933,17.638367 87.856483,19.422398 95.008469,19.420673 
	C169.156647,19.402803 243.304977,19.470587 317.452728,19.292532 
	C323.301514,19.278488 327.620880,21.333344 332.488220,24.248400 
	C341.265015,29.504808 344.621155,36.252338 343.306458,46.309155 
	C342.492645,52.534523 343.363098,58.963665 343.036652,65.278542 
	C342.930206,67.337631 341.926880,69.815758 340.489746,71.265793 
	C330.521027,81.324104 320.430481,91.268959 310.114685,100.969055 
	C308.315308,102.661018 305.271942,103.856697 302.793518,103.873650 
	C273.802094,104.071960 244.808838,104.000763 215.816071,104.000771 
	C214.040039,104.000771 212.264023,104.000771 209.909103,104.000771 
	C211.619797,107.497116 213.176483,110.388237 214.479477,113.389503 
	C222.243927,131.273926 224.252838,150.119247 221.693008,169.150772 
	C220.737518,176.254547 216.650177,183.168488 213.009445,189.614670 
	C209.360931,196.074615 204.488037,201.843048 199.730408,208.504547 
	C201.846542,208.626160 203.593018,208.775070 205.342178,208.819992 
	C255.559479,210.109283 297.302399,230.194550 332.374939,265.556244 
	C360.831635,294.247498 382.937897,327.423676 401.184082,363.170105 
	C413.208405,386.727112 423.768707,411.032684 434.901825,435.041412 
	C436.154480,437.742767 437.647827,440.695892 437.640076,443.528442 
	C437.629852,447.267212 437.438538,452.634735 435.141632,454.311890 
	C432.469421,456.263123 426.845703,456.271210 423.577087,454.775330 
	C419.491638,452.905609 416.500549,448.644653 412.853973,445.103516 
z"/>
<path fill="#010101" opacity="1.000000" stroke="none" 
	d="
M422.816711,296.873535 
	C424.023621,287.315979 428.497772,279.630676 434.732727,273.338470 
	C440.882690,267.131989 447.893646,261.712433 454.923248,256.480133 
	C457.346100,254.676712 457.080780,253.334885 456.486542,251.142212 
	C451.566681,232.988037 450.131378,214.476746 450.753693,195.733353 
	C451.539307,172.072922 460.070435,150.980072 472.079132,131.063660 
	C474.991577,126.233337 478.336304,121.627647 481.830994,117.193535 
	C486.206421,111.642029 484.442108,106.301559 477.311523,105.115791 
	C473.061157,104.408997 468.706543,104.114632 464.392426,104.048080 
	C453.847046,103.885406 448.831360,99.054596 448.830933,88.706757 
	C448.830475,77.376175 448.708282,66.043037 448.943726,54.717346 
	C448.986145,52.676777 450.006744,50.192150 451.418121,48.720364 
	C460.066315,39.702087 468.879974,30.836987 477.844421,22.132956 
	C479.305481,20.714334 481.789185,19.608582 483.802155,19.605459 
	C564.615723,19.480118 645.429504,19.495678 726.243225,19.505039 
	C731.715515,19.505672 740.474792,28.201996 740.493774,33.637379 
	C740.522827,41.968590 740.162231,50.318405 740.613647,58.625191 
	C740.947632,64.772179 739.082092,69.755051 734.952332,73.996986 
	C720.591064,88.748253 703.976990,99.627747 683.362244,103.381279 
	C680.436584,103.913986 677.395264,103.971207 674.407043,103.976051 
	C647.746887,104.019249 621.078186,104.412575 594.429504,103.857979 
	C576.383484,103.482422 560.480408,109.292488 545.161682,117.824272 
	C522.187073,130.619965 503.241302,147.783844 489.144714,170.057632 
	C482.462616,180.615875 479.546539,192.304306 480.459961,204.801468 
	C481.477448,218.722534 482.707001,232.628098 483.900146,247.224228 
	C488.585541,246.816696 492.308441,246.312225 496.043365,246.197144 
	C521.517517,245.412369 546.990906,244.289932 572.470886,244.088577 
	C602.867981,243.848389 631.211243,252.127777 658.099426,266.154877 
	C689.448792,282.509277 716.000549,304.965027 738.624268,331.632782 
	C766.081116,363.997650 792.057556,397.622467 818.478271,430.858154 
	C822.674377,436.136658 826.709534,441.876038 823.961548,449.566010 
	C822.102173,454.769501 819.847351,456.549316 814.654480,454.727264 
	C811.812439,453.729980 808.997498,451.849579 806.896973,449.667847 
	C782.268372,424.088287 757.318176,398.900726 728.240112,378.201752 
	C692.627075,352.850861 653.665527,336.191803 609.981445,330.862274 
	C569.406860,325.912109 529.302979,327.822968 489.328827,336.294586 
	C478.828552,338.519867 467.855682,338.927643 457.070007,339.296051 
	C441.351379,339.832977 431.836212,330.784576 425.920502,317.174133 
	C423.172821,310.852417 421.509552,304.286346 422.816711,296.873535 
z"/>
</svg>