<svg version="1.1" id="Layer_1" xmlns="http://www.w3.org/2000/svg" xmlns:xlink="http://www.w3.org/1999/xlink" x="0px" y="0px"
	 width="100%" viewBox="0 0 2402 706" enable-background="new 0 0 2402 706" xml:space="preserve">
<path fill="#FFFFFF" opacity="1.000000" stroke="none" 
	d="
M1558.000000,707.000000 
	C1038.666748,707.000000 519.833496,707.000000 1.000209,707.000000 
	C1.000139,471.666809 1.000139,236.333603 1.000070,1.000304 
	C801.666443,1.000202 1602.332886,1.000202 2402.999512,1.000101 
	C2402.999512,236.333008 2402.999512,471.666016 2402.999756,706.999512 
	C2121.500000,707.000000 1840.000000,707.000000 1558.000000,707.000000 
M917.217712,386.225555 
	C912.976624,368.081451 904.251953,352.455353 890.690186,339.657013 
	C872.718323,322.696777 850.479126,314.685669 826.808716,310.126373 
	C816.583496,308.156860 806.148560,307.276276 795.801392,305.900024 
	C795.801392,288.915649 795.801392,272.194397 795.801392,255.170609 
	C814.241577,255.170609 832.398804,254.765091 850.523376,255.357971 
	C858.452515,255.617340 864.482300,253.833633 869.712585,247.729233 
	C873.911316,242.828827 880.854309,239.522522 883.253540,234.050552 
	C885.652649,228.578735 883.510559,221.257339 884.120972,214.818954 
	C884.701538,208.694794 882.926025,203.946823 877.717651,201.004089 
	C874.924316,199.425873 871.474121,199.010406 868.002258,197.975433 
	C868.002258,193.426865 868.002258,188.445892 868.002258,183.464920 
	C868.002258,166.874527 868.002380,166.899628 884.589478,166.826691 
	C895.425171,166.779022 905.822266,165.108932 914.813843,158.385864 
	C928.597229,148.079895 939.224731,135.201965 945.315735,119.074089 
	C947.491150,113.314034 948.738464,106.891151 948.838745,100.745171 
	C948.945007,94.238464 942.995850,91.198120 937.078796,94.143806 
	C934.502991,95.426109 932.274353,97.666153 930.293640,99.840660 
	C919.114380,112.113861 905.817505,119.546196 888.715881,119.188232 
	C882.411560,119.056274 876.070190,119.457130 869.782593,120.024162 
	C856.780518,121.196732 852.536438,125.781517 852.196228,138.803589 
	C852.026550,145.297882 852.164551,151.800217 852.164368,158.298920 
	C852.164001,171.741165 852.164307,185.183411 852.164307,198.997696 
	C849.934387,198.997696 848.138000,198.997696 846.341614,198.997696 
	C798.684448,198.997696 751.026550,199.123154 703.370911,198.853027 
	C696.751221,198.815506 691.691711,200.203659 687.168823,205.208801 
	C682.271362,210.628357 674.634216,214.481949 671.873901,220.662811 
	C669.201782,226.646286 671.192810,234.720398 671.169495,241.876358 
	C671.146179,249.006058 677.260437,255.162659 684.363892,255.167206 
	C701.027222,255.177856 717.691101,255.249329 734.353577,255.130341 
	C740.678101,255.085175 746.390991,256.845642 750.767883,261.216217 
	C762.667053,273.098175 769.635559,287.593018 772.240479,304.188446 
	C772.332581,304.774841 772.115234,305.409729 772.022034,306.189728 
	C769.336487,306.457825 766.869629,306.754669 764.394409,306.943115 
	C746.390991,308.313599 728.746887,311.380768 711.836121,317.962189 
	C689.429260,326.682648 671.668701,340.689941 661.303223,362.885315 
	C651.719727,383.406128 648.338196,405.190399 650.091064,427.584503 
	C651.963806,451.510132 664.986694,468.493103 686.682068,477.608398 
	C709.132141,487.040802 732.223572,484.848083 754.255310,475.504303 
	C768.175171,469.600861 780.508667,461.030121 785.543579,445.108032 
	C788.186584,454.421753 793.949585,461.228394 801.274780,466.689148 
	C820.941040,481.349945 843.514709,485.299622 867.144958,482.337158 
	C895.622375,478.767029 914.018433,461.575104 920.031982,433.487732 
	C923.354248,417.970093 920.944336,402.363068 917.217712,386.225555 
M355.369080,307.845856 
	C340.959747,313.601715 328.901794,322.482300 319.825012,335.124603 
	C308.335724,351.127075 303.657013,369.255951 303.898010,388.747040 
	C304.075897,403.130676 306.883087,416.891418 315.120178,429.026978 
	C327.142334,446.738922 344.374207,456.301788 365.071716,459.865295 
	C378.629761,462.199646 392.308105,462.805634 405.372040,457.326874 
	C426.876434,448.308350 438.629883,430.995239 444.829407,409.379150 
	C446.615326,403.152222 447.353485,396.624756 448.634308,389.908295 
	C452.386353,393.444794 456.042786,396.601166 459.368347,400.074371 
	C476.717377,418.193329 488.211548,439.975983 497.227234,463.013153 
	C513.239075,503.927246 520.240906,546.682312 520.944580,590.473938 
	C521.375671,617.300110 521.103149,644.137451 521.185669,670.969666 
	C521.192261,673.122131 521.437012,675.281372 521.687134,677.423950 
	C522.105042,681.003540 524.464600,682.539124 527.786438,682.904724 
	C533.903503,683.578003 536.980591,680.350586 536.988464,673.033936 
	C537.021179,642.701294 537.143127,612.367798 536.965759,582.036194 
	C536.748474,544.881226 536.519409,507.709076 531.990479,470.750854 
	C528.125122,439.207703 521.260376,408.440796 506.752747,379.854401 
	C494.703552,356.112183 478.728668,335.618896 455.369324,322.083008 
	C448.339722,318.009613 445.558838,313.676453 445.942078,305.413513 
	C446.711304,288.828766 446.170685,272.183258 446.170685,255.170715 
	C459.532196,255.170715 472.511322,254.705688 485.435333,255.348984 
	C492.922577,255.721664 497.650604,252.743195 503.201599,248.088501 
	C513.810852,239.192230 518.555786,229.135910 516.691223,215.279358 
	C515.648315,207.528915 508.130219,198.998978 500.265045,198.998642 
	C453.266113,198.996567 406.266724,199.091537 359.268829,198.870346 
	C353.825226,198.844711 349.914734,200.183853 346.328735,204.304398 
	C341.639465,209.692627 334.318298,213.730179 331.848297,219.849823 
	C329.298035,226.168167 331.172699,234.286118 331.175659,241.616760 
	C331.177765,246.854172 339.467712,255.152710 344.694916,255.162521 
	C357.861237,255.187210 371.027649,255.186569 384.194000,255.164108 
	C390.833954,255.152771 396.962189,257.056519 401.316986,262.000122 
	C406.996246,268.447266 412.665833,275.106781 417.030640,282.452698 
	C421.754333,290.402588 425.058441,299.223419 424.955872,309.181091 
	C401.920685,302.191284 379.127899,298.733551 355.369080,307.845856 
M1153.544556,580.108826 
	C1153.695679,610.430969 1153.843994,640.753174 1154.004272,671.075256 
	C1154.013916,672.905762 1153.979126,674.752930 1154.204102,676.562561 
	C1154.746338,680.921753 1157.460083,682.939331 1161.706665,682.965576 
	C1167.581787,683.001892 1169.859253,679.943665 1169.823486,671.848572 
	C1169.632935,628.863037 1169.672607,585.874023 1169.100342,542.893311 
	C1168.623779,507.084564 1166.736572,471.393219 1159.099243,436.178314 
	C1153.428345,410.030365 1144.123535,385.457764 1129.864746,362.888977 
	C1118.098022,344.264557 1102.318604,329.603180 1083.051514,318.854004 
	C1079.861450,317.074219 1078.862671,314.993927 1078.907715,311.383789 
	C1079.119751,294.391418 1079.002075,277.394958 1079.002075,260.399933 
	C1079.002075,258.785126 1079.002197,257.170319 1079.002197,255.170715 
	C1092.784546,255.170715 1106.090088,254.777847 1119.355591,255.337128 
	C1125.947510,255.615067 1130.647583,253.804474 1134.868652,248.806396 
	C1139.152344,243.733994 1146.038818,240.053223 1148.372070,234.363327 
	C1150.779541,228.492050 1149.110229,220.935104 1149.160278,214.115143 
	C1149.205688,207.918976 1140.493530,199.014313 1134.300781,199.011215 
	C1085.481812,198.986755 1036.662720,198.984970 987.843811,199.057175 
	C986.339478,199.059402 984.417480,199.507904 983.400940,200.486588 
	C976.923645,206.722748 968.841736,212.230133 964.889832,219.846268 
	C961.884216,225.639038 964.210205,234.198349 964.164246,241.526733 
	C964.163208,241.693344 964.161194,241.860031 964.164612,242.026566 
	C964.266357,246.977112 972.536316,255.151199 977.529297,255.162491 
	C989.025879,255.188461 1000.545410,255.621384 1012.012451,255.039078 
	C1022.657715,254.498489 1031.130859,257.890076 1038.202515,265.727417 
	C1049.319214,278.047668 1056.347046,292.129333 1057.979126,308.008636 
	C1045.656860,306.095917 1033.607178,303.077057 1021.452454,302.569122 
	C992.908203,301.376251 969.572815,312.469452 952.422302,335.567291 
	C940.747620,351.290344 936.504456,369.434204 936.639893,388.683777 
	C936.717529,399.721588 938.296875,410.608978 943.290039,420.660553 
	C954.541260,443.309845 973.462646,455.545990 997.812927,459.836548 
	C1011.519348,462.251678 1025.303711,462.703918 1038.563599,457.165222 
	C1056.606567,449.628601 1067.958740,435.627502 1074.687012,417.908600 
	C1078.004272,409.173065 1079.482178,399.739197 1082.022339,389.713562 
	C1088.276733,396.500977 1095.068848,402.897125 1100.719849,410.178741 
	C1121.485840,436.936981 1133.721069,467.743958 1142.131348,500.225861 
	C1148.833130,526.109558 1151.842651,552.547485 1153.544556,580.108826 
M191.089981,397.280884 
	C213.685913,410.369476 228.212830,430.235687 238.126236,453.814850 
	C250.664444,483.637146 256.074127,515.085876 257.893066,547.141846 
	C259.752472,579.911072 260.779236,612.727600 262.159241,645.523926 
	C262.565552,655.180115 262.876129,664.840759 263.343658,674.493835 
	C263.573547,679.241089 266.842590,683.084961 270.203674,682.902710 
	C274.001099,682.696716 276.728851,679.183716 276.832764,674.348938 
	C276.854279,673.349426 276.835968,672.349182 276.835968,671.349243 
	C276.835968,615.854492 277.121582,560.357422 276.658691,504.866547 
	C276.523041,488.610321 275.219543,472.225586 272.768616,456.156342 
	C267.967041,424.675415 256.305878,395.911407 235.124725,371.561005 
	C215.630020,349.149353 191.447800,334.483551 162.595428,327.335144 
	C137.679214,321.161957 112.621002,323.601532 87.545242,325.548981 
	C85.491020,325.708557 83.437798,325.880920 80.195900,326.143616 
	C82.264908,319.080475 83.435310,312.814148 85.900696,307.107239 
	C92.513596,291.799622 103.510399,279.835266 116.164772,269.228485 
	C128.288620,259.066406 141.758636,254.289093 157.944122,254.932144 
	C181.404861,255.864273 204.937973,254.824371 228.423828,255.353485 
	C236.979568,255.546234 243.847412,254.060089 249.316666,247.051544 
	C252.051254,243.547348 255.674179,240.688400 259.113800,237.797577 
	C261.865692,235.484772 263.153503,232.987762 262.933472,229.235687 
	C262.573120,223.090744 262.838867,216.909256 262.835175,210.743179 
	C262.831146,203.986954 257.912628,198.998550 251.247711,198.998337 
	C199.085999,198.996704 146.922958,199.181702 94.763962,198.805145 
	C86.642288,198.746506 81.261284,201.460892 75.138451,206.588043 
	C65.028374,215.054062 60.961472,224.424164 62.136639,237.563034 
	C62.733234,244.233246 63.794956,249.691086 69.375664,253.135361 
	C72.266098,254.919250 76.111282,255.169922 79.536354,256.070526 
	C84.441322,257.360229 85.374481,259.202972 82.765114,263.368591 
	C70.416306,283.082214 62.910458,304.269440 62.573109,327.762909 
	C62.552284,329.213348 61.353035,331.178589 60.106449,331.996185 
	C49.411884,339.010345 43.410248,349.037659 43.242840,361.548126 
	C43.019844,378.212769 49.655960,387.460144 67.061798,386.987305 
	C71.219482,386.874359 75.380722,386.677612 79.525330,386.336884 
	C94.120064,385.137085 108.687653,383.234711 123.303665,382.751007 
	C146.734879,381.975647 169.417618,385.752747 191.089981,397.280884 
M1297.497681,232.507446 
	C1297.637695,239.761108 1295.404785,247.879547 1303.613159,252.469055 
	C1306.613647,254.146713 1310.148682,255.023102 1313.545776,255.803238 
	C1319.821045,257.244354 1320.611206,258.657806 1317.369385,264.047485 
	C1305.683472,283.475830 1298.130371,304.161926 1297.663818,327.122864 
	C1297.628540,328.861633 1296.294067,331.200226 1294.836792,332.185425 
	C1282.381226,340.606293 1276.164185,355.054596 1278.925659,369.914246 
	C1280.879272,380.426605 1287.280762,386.309509 1298.062988,386.840973 
	C1303.529785,387.110474 1309.082153,386.961487 1314.517334,386.328247 
	C1337.524780,383.647614 1360.495239,380.842834 1383.705566,383.999725 
	C1400.556519,386.291626 1416.524170,391.043335 1430.978271,400.236145 
	C1451.184814,413.087494 1463.776367,432.016846 1473.062134,453.467133 
	C1485.661987,482.573425 1490.770386,513.439087 1492.833496,544.756226 
	C1494.902588,576.168823 1495.713501,607.664856 1497.033325,639.126038 
	C1497.529175,650.946472 1497.846802,662.774475 1498.364624,674.593750 
	C1498.572876,679.345276 1501.893066,683.116211 1505.326172,682.912354 
	C1509.246338,682.679565 1511.899658,679.309692 1512.000610,674.432678 
	C1512.007446,674.099487 1512.001587,673.766113 1512.001587,673.432800 
	C1512.001465,615.439148 1512.058350,557.445435 1511.978516,499.451874 
	C1511.933838,466.948547 1506.470947,435.547577 1492.522583,405.891418 
	C1466.504883,350.574219 1412.965576,319.102478 1350.224731,323.625549 
	C1338.974243,324.436615 1327.719727,325.190918 1315.332397,326.050110 
	C1317.229004,319.467834 1318.370483,313.404602 1320.694458,307.834808 
	C1327.674927,291.104401 1339.691895,278.384705 1353.791016,267.319550 
	C1365.161255,258.396088 1377.624878,254.572861 1392.230469,254.967148 
	C1418.708252,255.681946 1445.219482,255.216095 1471.715820,255.080765 
	C1473.811279,255.070068 1476.382080,254.349396 1477.907593,253.015747 
	C1484.050171,247.645340 1489.958252,241.994186 1495.735229,236.228439 
	C1496.960693,235.005356 1497.838623,232.884903 1497.901245,231.142838 
	C1498.146729,224.319077 1498.004272,217.481262 1498.000610,210.648682 
	C1497.997070,203.883926 1493.110229,198.999512 1486.338135,198.999268 
	C1436.343628,198.997528 1386.342773,199.429001 1336.359009,198.697525 
	C1323.761353,198.513168 1314.491699,201.484879 1305.860474,210.848129 
	C1300.044800,217.156967 1295.913696,222.824478 1297.497681,232.507446 
M2103.322021,322.142029 
	C2112.441895,363.961212 2113.155762,406.321350 2111.656982,448.920135 
	C2105.317139,440.249695 2099.552734,431.395416 2093.613281,422.660278 
	C2080.280518,403.051910 2065.863525,384.367950 2046.905029,369.733185 
	C2026.622559,354.076416 2003.932739,344.407501 1978.062500,344.108368 
	C1964.462524,343.951111 1950.835327,345.124512 1937.243042,346.035553 
	C1933.650024,346.276367 1931.794067,345.941498 1932.305054,341.828186 
	C1932.897583,337.057465 1932.584595,332.067810 1933.856689,327.505585 
	C1940.911743,302.205292 1955.052124,281.536163 1975.750366,265.391724 
	C1983.255371,259.538055 1991.679565,255.275391 2001.334717,255.595673 
	C2008.680542,255.839355 2012.579224,251.662933 2017.785889,247.586151 
	C2029.241943,238.616302 2032.282959,227.597076 2030.775024,213.969940 
	C2030.022705,207.170685 2022.802856,199.200897 2015.749146,199.184982 
	C1991.088013,199.129349 1966.426392,199.113617 1941.765869,199.255783 
	C1939.824463,199.266983 1937.497437,200.153610 1936.022949,201.418396 
	C1930.343994,206.290039 1924.990356,211.538620 1919.408813,216.527115 
	C1916.872925,218.793457 1915.712769,221.311966 1915.883179,224.810059 
	C1916.158691,230.462067 1915.893188,236.138550 1916.003540,241.801834 
	C1916.031250,243.223892 1916.173096,245.038895 1917.026489,245.982224 
	C1921.024658,250.402023 1923.885864,256.605408 1931.396362,256.059845 
	C1931.714478,256.036774 1932.055542,256.161224 1932.369019,256.267029 
	C1937.417236,257.972260 1938.104126,261.316895 1934.540283,266.967377 
	C1918.862183,291.823944 1911.937256,318.805939 1914.588135,348.187195 
	C1914.718872,349.635864 1913.782104,351.902588 1912.617554,352.633881 
	C1901.926880,359.347229 1896.335327,369.247925 1895.445312,381.451202 
	C1894.505615,394.337952 1900.572876,408.105316 1917.944580,407.285248 
	C1927.044312,406.855743 1936.196655,405.880554 1945.140747,404.181244 
	C1960.467529,401.269287 1975.743530,399.275269 1991.183960,402.707825 
	C2024.996094,410.224609 2054.288330,427.023132 2081.200684,448.063080 
	C2093.474854,457.659088 2104.284180,469.110413 2116.165527,479.242523 
	C2118.695068,481.399689 2122.968262,481.921173 2126.501465,482.131500 
	C2127.170166,482.171295 2128.834961,477.187897 2128.866455,474.508514 
	C2129.525879,418.423737 2126.850342,362.235657 2133.228271,306.330719 
	C2135.162354,289.379303 2139.038086,272.649445 2142.024414,255.818115 
	C2149.181152,248.638641 2147.417969,239.501114 2147.508301,230.776276 
	C2147.544434,227.277435 2147.076904,223.710678 2147.602295,220.292191 
	C2148.810547,212.429443 2146.061035,206.332520 2140.029541,201.600815 
	C2138.489258,200.392517 2136.358643,199.313904 2134.474365,199.270798 
	C2124.481689,199.042191 2114.477783,199.027512 2104.486084,199.272461 
	C2102.409180,199.323364 2099.908203,200.286560 2098.390869,201.684845 
	C2092.883545,206.759521 2087.561279,212.060501 2082.504395,217.583008 
	C2080.994629,219.231613 2079.863525,221.860733 2079.791260,224.080826 
	C2079.492432,233.235703 2079.600342,242.406967 2079.727783,251.569855 
	C2079.751709,253.298752 2080.123291,255.296494 2081.049072,256.697937 
	C2094.020508,276.332458 2098.056152,298.998932 2103.322021,322.142029 
M1724.739136,380.766205 
	C1719.894653,377.249725 1715.171631,373.549805 1710.184692,370.248322 
	C1687.778076,355.414551 1662.983887,348.281921 1636.216553,348.361694 
	C1622.744873,348.401855 1609.276978,349.387665 1595.804932,349.879578 
	C1591.691162,350.029816 1586.071533,351.594574 1583.847534,349.557373 
	C1581.328247,347.249695 1581.623535,341.651001 1581.090210,337.433289 
	C1579.249512,322.882996 1578.597046,308.547119 1588.037964,295.784790 
	C1597.374146,283.163971 1608.772827,272.977600 1622.312988,265.052399 
	C1634.398438,257.978699 1647.159424,254.606110 1661.310547,255.251465 
	C1675.780029,255.911331 1690.310425,255.110092 1704.801025,255.472229 
	C1721.924438,255.900192 1735.649658,248.676575 1747.785034,237.518250 
	C1751.724609,233.895737 1754.038330,229.508942 1753.523804,223.801285 
	C1753.151123,219.668289 1753.457153,215.474655 1753.449463,211.308090 
	C1753.436035,204.066711 1748.354858,198.943314 1741.152588,198.942581 
	C1689.320312,198.937363 1637.487915,198.982620 1585.656006,198.854828 
	C1581.661377,198.844986 1578.802856,199.882721 1576.099854,202.858185 
	C1570.626343,208.883820 1562.524536,213.668091 1559.720703,220.655304 
	C1556.832886,227.852341 1558.903809,237.061508 1558.909668,245.390198 
	C1558.914062,251.729645 1562.270386,255.042633 1568.741455,255.402023 
	C1571.562744,255.558701 1574.406494,255.636932 1577.190796,256.068634 
	C1582.484985,256.889526 1583.947266,260.348511 1580.669678,264.480286 
	C1561.104736,289.144012 1556.244507,317.099487 1562.824463,347.236786 
	C1564.253174,353.779968 1562.904175,356.774933 1557.604858,360.773193 
	C1547.007690,368.768677 1537.993164,378.601685 1542.646240,393.694550 
	C1546.290527,405.515778 1552.078735,412.814362 1566.203003,412.163330 
	C1572.177612,411.887939 1578.206177,411.478271 1584.071655,410.385834 
	C1602.433838,406.965973 1620.811646,404.623474 1639.589233,404.794434 
	C1670.260620,405.073608 1699.370361,411.144226 1726.281250,426.134552 
	C1748.275513,438.386169 1767.157593,454.664062 1784.715454,472.560089 
	C1789.487183,477.423828 1794.062988,482.537292 1799.274048,486.882050 
	C1801.139038,488.437103 1806.112427,489.352570 1807.029053,488.288055 
	C1808.729736,486.313202 1808.819824,482.678253 1808.916016,479.712952 
	C1808.962402,478.282227 1807.666626,476.678680 1806.692749,475.365509 
	C1801.046997,467.754364 1795.447876,460.102722 1789.590088,452.655853 
	C1769.739868,427.420868 1750.339600,401.769318 1724.739136,380.766205 
M2078.808594,101.316833 
	C2062.616943,116.039322 2050.146973,133.751266 2038.271240,152.601501 
	C2036.909302,149.750275 2035.870972,147.501083 2034.769897,145.283081 
	C2019.671143,114.869911 2000.335938,87.946350 1971.350708,69.137024 
	C1952.911255,57.171223 1933.246094,52.858948 1912.002441,60.900543 
	C1899.718384,65.550552 1889.443115,72.519974 1888.498779,87.041725 
	C1887.445068,103.248192 1893.870728,111.856781 1910.023071,112.084259 
	C1914.850830,112.152252 1919.676270,112.470810 1924.500000,112.725937 
	C1962.984619,114.761414 1993.998169,131.372879 2018.258911,160.991501 
	C2024.045044,168.055328 2029.486084,175.401794 2035.193604,182.757095 
	C2037.858276,180.649460 2040.083374,178.650162 2042.544922,177.004211 
	C2045.503296,175.025772 2047.046143,172.940125 2045.429443,169.170441 
	C2044.957520,168.070007 2045.699829,165.922302 2046.594604,164.841705 
	C2058.694580,150.228012 2073.771240,139.489746 2090.801270,131.362518 
	C2115.116943,119.758270 2140.983398,112.786217 2166.907471,106.025330 
	C2189.278564,100.190994 2211.827637,94.968994 2232.074219,83.057182 
	C2246.703369,74.450294 2260.134521,64.520943 2269.770996,50.254845 
	C2277.405273,38.953022 2279.194092,26.229973 2278.916992,12.234501 
	C2277.378662,13.232668 2276.542969,13.706300 2275.781982,14.279008 
	C2261.069336,25.351366 2244.583984,32.630405 2226.784180,37.015400 
	C2208.879395,41.426361 2190.887207,45.490623 2173.026123,50.070415 
	C2137.583496,59.158501 2105.728760,74.994072 2078.808594,101.316833 
M264.567596,63.082790 
	C222.705551,82.313011 191.613907,113.333717 168.187347,152.356537 
	C163.259430,143.145370 159.078751,134.437363 154.106232,126.207809 
	C140.443848,103.596458 123.733910,83.717445 101.234833,69.254707 
	C82.739655,57.365719 63.253494,53.019867 41.885666,60.764870 
	C22.415451,67.822060 14.115585,82.005600 19.454784,99.553040 
	C21.330467,105.717529 25.422258,109.453094 31.485855,110.943909 
	C34.524128,111.690918 37.737881,111.719666 40.870502,112.088257 
	C54.722237,113.718071 69.003990,113.746490 82.335403,117.319580 
	C110.492889,124.866333 133.329086,141.182816 150.907135,164.628891 
	C155.461563,170.703690 160.211380,176.632004 164.988113,182.777710 
	C169.029617,179.448669 172.583313,176.521454 176.159332,173.575836 
	C174.419205,169.353714 174.604858,166.369507 177.866119,162.698318 
	C194.153091,144.363968 214.437057,132.044098 237.219925,124.379486 
	C263.044220,115.691666 289.352509,108.371475 315.644897,101.166466 
	C341.171783,94.171234 365.185852,84.376915 385.032013,66.411232 
	C404.591827,48.704792 408.822052,36.319752 408.326935,12.110401 
	C385.315277,30.660910 357.779663,36.752064 330.167023,43.375389 
	C308.243866,48.634003 286.879150,56.220634 264.567596,63.082790 
M2234.159912,358.494293 
	C2241.400635,405.773193 2244.377197,453.366089 2244.450195,501.155792 
	C2244.538818,558.975037 2244.528564,616.794800 2244.368652,674.613708 
	C2244.354980,679.565613 2246.205078,682.000549 2250.737061,683.063293 
	C2256.007812,684.299438 2261.707764,682.068848 2261.680420,673.727722 
	C2261.425049,595.414124 2261.303955,517.098267 2261.642090,438.785278 
	C2261.772705,408.515167 2262.619629,378.221802 2264.170410,347.991882 
	C2265.582275,320.468933 2269.385254,293.122681 2276.207031,266.381866 
	C2279.516846,253.406815 2283.113525,240.874054 2282.959717,227.099838 
	C2282.839600,216.383316 2280.781738,208.118088 2271.819336,202.077362 
	C2271.274902,201.710266 2270.910889,201.010345 2270.335205,200.766754 
	C2268.734131,200.089066 2267.072510,199.089844 2265.423096,199.066833 
	C2254.594238,198.915726 2243.761963,198.930298 2232.932617,199.056732 
	C2231.435791,199.074219 2229.537842,199.587021 2228.521973,200.581772 
	C2218.178467,210.709869 2207.979492,220.985504 2198.020996,230.938934 
	C2219.419678,270.821564 2226.659668,314.239075 2234.159912,358.494293 
M2329.963135,206.452713 
	C2329.026367,208.210800 2328.294678,210.123062 2327.112305,211.696854 
	C2324.083008,215.729401 2324.655029,219.287094 2327.301758,223.411407 
	C2331.239502,229.547333 2335.403076,235.764618 2337.939941,242.521942 
	C2342.057373,253.489151 2349.263184,257.139618 2360.380859,255.333099 
	C2363.083496,254.893921 2364.803467,254.472443 2366.135254,251.837891 
	C2370.625977,242.953705 2374.902832,233.892365 2380.243652,225.525925 
	C2385.798096,216.824844 2383.565918,207.760071 2383.943848,198.264832 
	C2369.939697,198.264832 2356.485596,198.669327 2343.073486,198.091217 
	C2336.538574,197.809525 2332.230957,199.344055 2329.963135,206.452713 
M1864.475586,198.264908 
	C1857.483032,198.264893 1850.489990,198.222763 1843.497925,198.278091 
	C1837.852539,198.322754 1830.998901,196.554489 1826.894775,199.124771 
	C1822.581055,201.826263 1821.003784,208.793259 1818.025024,213.773285 
	C1816.484863,216.348389 1816.497681,218.475082 1818.050415,221.090607 
	C1822.207031,228.091751 1826.983154,234.912460 1829.871826,242.435104 
	C1834.168091,253.623550 1841.588013,257.480774 1852.767456,255.099548 
	C1854.668945,254.694550 1857.010742,253.382370 1857.919800,251.788284 
	C1862.856445,243.131332 1866.889038,233.923752 1872.234497,225.544647 
	C1877.791626,216.833755 1875.575317,207.762299 1875.937256,198.265121 
	C1872.065430,198.265121 1868.765381,198.265121 1864.475586,198.264908 
M1262.065063,201.758194 
	C1262.516724,198.732010 1260.907593,198.191269 1258.273560,198.222229 
	C1248.782715,198.333801 1239.289307,198.209488 1229.797729,198.285522 
	C1224.004517,198.331924 1217.039795,196.660522 1212.749634,199.279694 
	C1208.440674,201.910385 1206.937500,208.991745 1203.927979,213.954742 
	C1202.307251,216.627182 1202.684692,218.739792 1204.165527,221.265198 
	C1208.285400,228.291260 1212.197144,235.439423 1216.188599,242.540833 
	C1223.595459,255.718399 1223.598999,255.808624 1239.004761,255.071579 
	C1240.690308,254.990921 1242.953857,253.526306 1243.817261,252.044113 
	C1247.746216,245.299286 1250.871826,238.066391 1255.036987,231.484085 
	C1260.677246,222.570755 1263.424805,213.203384 1262.065063,201.758194 
M572.065125,222.312744 
	C575.809937,228.981079 580.409424,235.323685 583.103210,242.392532 
	C587.353943,253.547150 594.703247,257.232208 606.021179,255.340149 
	C608.631042,254.903839 610.106873,254.278976 611.317322,251.926392 
	C616.031982,242.763535 620.545532,233.457291 625.916443,224.683395 
	C631.098083,216.218781 628.688293,207.452530 629.141174,198.265366 
	C617.878418,198.265366 607.250061,198.215164 596.622437,198.285721 
	C590.984314,198.323135 584.218811,196.707169 580.027710,199.246567 
	C575.838196,201.785110 574.394043,208.680359 571.419800,213.462677 
	C569.561157,216.451141 569.526733,218.984879 572.065125,222.312744 
z"/>
<path fill="#020202" opacity="1.000000" stroke="none" 
	d="
M917.356628,386.615662 
	C920.944336,402.363068 923.354248,417.970093 920.031982,433.487732 
	C914.018433,461.575104 895.622375,478.767029 867.144958,482.337158 
	C843.514709,485.299622 820.941040,481.349945 801.274780,466.689148 
	C793.949585,461.228394 788.186584,454.421753 785.543579,445.108032 
	C780.508667,461.030121 768.175171,469.600861 754.255310,475.504303 
	C732.223572,484.848083 709.132141,487.040802 686.682068,477.608398 
	C664.986694,468.493103 651.963806,451.510132 650.091064,427.584503 
	C648.338196,405.190399 651.719727,383.406128 661.303223,362.885315 
	C671.668701,340.689941 689.429260,326.682648 711.836121,317.962189 
	C728.746887,311.380768 746.390991,308.313599 764.394409,306.943115 
	C766.869629,306.754669 769.336487,306.457825 772.022034,306.189728 
	C772.115234,305.409729 772.332581,304.774841 772.240479,304.188446 
	C769.635559,287.593018 762.667053,273.098175 750.767883,261.216217 
	C746.390991,256.845642 740.678101,255.085175 734.353577,255.130341 
	C717.691101,255.249329 701.027222,255.177856 684.363892,255.167206 
	C677.260437,255.162659 671.146179,249.006058 671.169495,241.876358 
	C671.192810,234.720398 669.201782,226.646286 671.873901,220.662811 
	C674.634216,214.481949 682.271362,210.628357 687.168823,205.208801 
	C691.691711,200.203659 696.751221,198.815506 703.370911,198.853027 
	C751.026550,199.123154 798.684448,198.997696 846.341614,198.997696 
	C848.138000,198.997696 849.934387,198.997696 852.164307,198.997696 
	C852.164307,185.183411 852.164001,171.741165 852.164368,158.298920 
	C852.164551,151.800217 852.026550,145.297882 852.196228,138.803589 
	C852.536438,125.781517 856.780518,121.196732 869.782593,120.024162 
	C876.070190,119.457130 882.411560,119.056274 888.715881,119.188232 
	C905.817505,119.546196 919.114380,112.113861 930.293640,99.840660 
	C932.274353,97.666153 934.502991,95.426109 937.078796,94.143806 
	C942.995850,91.198120 948.945007,94.238464 948.838745,100.745171 
	C948.738464,106.891151 947.491150,113.314034 945.315735,119.074089 
	C939.224731,135.201965 928.597229,148.079895 914.813843,158.385864 
	C905.822266,165.108932 895.425171,166.779022 884.589478,166.826691 
	C868.002380,166.899628 868.002258,166.874527 868.002258,183.464920 
	C868.002258,188.445892 868.002258,193.426865 868.002258,197.975433 
	C871.474121,199.010406 874.924316,199.425873 877.717651,201.004089 
	C882.926025,203.946823 884.701538,208.694794 884.120972,214.818954 
	C883.510559,221.257339 885.652649,228.578735 883.253540,234.050552 
	C880.854309,239.522522 873.911316,242.828827 869.712585,247.729233 
	C864.482300,253.833633 858.452515,255.617340 850.523376,255.357971 
	C832.398804,254.765091 814.241577,255.170609 795.801392,255.170609 
	C795.801392,272.194397 795.801392,288.915649 795.801392,305.900024 
	C806.148560,307.276276 816.583496,308.156860 826.808716,310.126373 
	C850.479126,314.685669 872.718323,322.696777 890.690186,339.657013 
	C904.251953,352.455353 912.976624,368.081451 917.356628,386.615662 
M795.491455,374.527069 
	C795.491516,391.023346 795.689331,407.522797 795.424805,424.014832 
	C795.235779,435.800140 800.398743,444.547974 809.797363,450.893860 
	C826.891418,462.435577 846.060486,465.603882 866.092773,462.889221 
	C882.820862,460.622345 893.429016,450.517029 896.578552,434.289703 
	C900.316284,415.031677 896.066772,398.030609 880.772034,384.551514 
	C872.304565,377.089203 862.355408,372.657990 851.789001,369.468933 
	C833.512451,363.952789 814.722107,362.501862 795.491516,362.648865 
	C795.491516,366.573151 795.491516,370.057678 795.491455,374.527069 
M715.543396,463.992706 
	C728.282715,463.491455 740.807007,461.742584 752.206543,455.667023 
	C764.771057,448.970520 772.771118,439.199524 772.564148,424.001740 
	C772.326050,406.516449 772.508911,389.025421 772.508972,371.536865 
	C772.508972,368.590912 772.508972,365.644958 772.508972,362.578003 
	C752.287354,362.643402 732.753357,364.001160 713.856934,370.201111 
	C687.649963,378.799591 674.142334,394.918762 673.202454,419.630707 
	C672.767944,431.055267 674.242920,442.224121 682.567627,451.310455 
	C691.244873,460.781647 702.576843,463.176514 715.543396,463.992706 
z"/>
<path fill="#020202" opacity="1.000000" stroke="none" 
	d="
M355.735962,307.714233 
	C379.127899,298.733551 401.920685,302.191284 424.955872,309.181091 
	C425.058441,299.223419 421.754333,290.402588 417.030640,282.452698 
	C412.665833,275.106781 406.996246,268.447266 401.316986,262.000122 
	C396.962189,257.056519 390.833954,255.152771 384.194000,255.164108 
	C371.027649,255.186569 357.861237,255.187210 344.694916,255.162521 
	C339.467712,255.152710 331.177765,246.854172 331.175659,241.616760 
	C331.172699,234.286118 329.298035,226.168167 331.848297,219.849823 
	C334.318298,213.730179 341.639465,209.692627 346.328735,204.304398 
	C349.914734,200.183853 353.825226,198.844711 359.268829,198.870346 
	C406.266724,199.091537 453.266113,198.996567 500.265045,198.998642 
	C508.130219,198.998978 515.648315,207.528915 516.691223,215.279358 
	C518.555786,229.135910 513.810852,239.192230 503.201599,248.088501 
	C497.650604,252.743195 492.922577,255.721664 485.435333,255.348984 
	C472.511322,254.705688 459.532196,255.170715 446.170685,255.170715 
	C446.170685,272.183258 446.711304,288.828766 445.942078,305.413513 
	C445.558838,313.676453 448.339722,318.009613 455.369324,322.083008 
	C478.728668,335.618896 494.703552,356.112183 506.752747,379.854401 
	C521.260376,408.440796 528.125122,439.207703 531.990479,470.750854 
	C536.519409,507.709076 536.748474,544.881226 536.965759,582.036194 
	C537.143127,612.367798 537.021179,642.701294 536.988464,673.033936 
	C536.980591,680.350586 533.903503,683.578003 527.786438,682.904724 
	C524.464600,682.539124 522.105042,681.003540 521.687134,677.423950 
	C521.437012,675.281372 521.192261,673.122131 521.185669,670.969666 
	C521.103149,644.137451 521.375671,617.300110 520.944580,590.473938 
	C520.240906,546.682312 513.239075,503.927246 497.227234,463.013153 
	C488.211548,439.975983 476.717377,418.193329 459.368347,400.074371 
	C456.042786,396.601166 452.386353,393.444794 448.634308,389.908295 
	C447.353485,396.624756 446.615326,403.152222 444.829407,409.379150 
	C438.629883,430.995239 426.876434,448.308350 405.372040,457.326874 
	C392.308105,462.805634 378.629761,462.199646 365.071716,459.865295 
	C344.374207,456.301788 327.142334,446.738922 315.120178,429.026978 
	C306.883087,416.891418 304.075897,403.130676 303.898010,388.747040 
	C303.657013,369.255951 308.335724,351.127075 319.825012,335.124603 
	C328.901794,322.482300 340.959747,313.601715 355.735962,307.714233 
M337.452698,366.866394 
	C334.579926,370.634308 330.097992,374.024811 329.110413,378.234924 
	C324.622681,397.366760 328.676422,414.835571 343.425415,428.395294 
	C355.054596,439.086700 369.948242,440.674255 385.066803,440.199219 
	C398.102173,439.789673 407.791473,433.430450 414.730896,422.719299 
	C422.000763,411.498016 424.751099,399.000732 425.088013,385.731934 
	C425.290619,377.753723 421.560699,372.637482 415.219482,368.585999 
	C401.845398,360.041107 386.971222,358.335663 371.607666,358.597992 
	C359.852356,358.798767 348.299500,359.809540 337.452698,366.866394 
z"/>
<path fill="#020202" opacity="1.000000" stroke="none" 
	d="
M1153.514771,579.639832 
	C1151.842651,552.547485 1148.833130,526.109558 1142.131348,500.225861 
	C1133.721069,467.743958 1121.485840,436.936981 1100.719849,410.178741 
	C1095.068848,402.897125 1088.276733,396.500977 1082.022339,389.713562 
	C1079.482178,399.739197 1078.004272,409.173065 1074.687012,417.908600 
	C1067.958740,435.627502 1056.606567,449.628601 1038.563599,457.165222 
	C1025.303711,462.703918 1011.519348,462.251678 997.812927,459.836548 
	C973.462646,455.545990 954.541260,443.309845 943.290039,420.660553 
	C938.296875,410.608978 936.717529,399.721588 936.639893,388.683777 
	C936.504456,369.434204 940.747620,351.290344 952.422302,335.567291 
	C969.572815,312.469452 992.908203,301.376251 1021.452454,302.569122 
	C1033.607178,303.077057 1045.656860,306.095917 1057.979126,308.008636 
	C1056.347046,292.129333 1049.319214,278.047668 1038.202515,265.727417 
	C1031.130859,257.890076 1022.657715,254.498489 1012.012451,255.039078 
	C1000.545410,255.621384 989.025879,255.188461 977.529297,255.162491 
	C972.536316,255.151199 964.266357,246.977112 964.164612,242.026566 
	C964.161194,241.860031 964.163208,241.693344 964.164246,241.526733 
	C964.210205,234.198349 961.884216,225.639038 964.889832,219.846268 
	C968.841736,212.230133 976.923645,206.722748 983.400940,200.486588 
	C984.417480,199.507904 986.339478,199.059402 987.843811,199.057175 
	C1036.662720,198.984970 1085.481812,198.986755 1134.300781,199.011215 
	C1140.493530,199.014313 1149.205688,207.918976 1149.160278,214.115143 
	C1149.110229,220.935104 1150.779541,228.492050 1148.372070,234.363327 
	C1146.038818,240.053223 1139.152344,243.733994 1134.868652,248.806396 
	C1130.647583,253.804474 1125.947510,255.615067 1119.355591,255.337128 
	C1106.090088,254.777847 1092.784546,255.170715 1079.002197,255.170715 
	C1079.002197,257.170319 1079.002075,258.785126 1079.002075,260.399933 
	C1079.002075,277.394958 1079.119751,294.391418 1078.907715,311.383789 
	C1078.862671,314.993927 1079.861450,317.074219 1083.051514,318.854004 
	C1102.318604,329.603180 1118.098022,344.264557 1129.864746,362.888977 
	C1144.123535,385.457764 1153.428345,410.030365 1159.099243,436.178314 
	C1166.736572,471.393219 1168.623779,507.084564 1169.100342,542.893311 
	C1169.672607,585.874023 1169.632935,628.863037 1169.823486,671.848572 
	C1169.859253,679.943665 1167.581787,683.001892 1161.706665,682.965576 
	C1157.460083,682.939331 1154.746338,680.921753 1154.204102,676.562561 
	C1153.979126,674.752930 1154.013916,672.905762 1154.004272,671.075256 
	C1153.843994,640.753174 1153.695679,610.430969 1153.514771,579.639832 
M960.037537,389.545746 
	C960.501038,405.704926 965.028198,420.184082 978.510010,430.261993 
	C990.116150,438.937805 1003.753540,440.720703 1017.838196,440.221497 
	C1029.224365,439.817902 1038.360840,434.915466 1045.151001,425.956573 
	C1055.011963,412.946259 1058.826294,398.071472 1057.606445,381.886047 
	C1057.155273,375.897736 1053.555298,371.863586 1048.623047,368.901886 
	C1027.540894,356.242401 1004.794373,356.292816 981.941406,361.498932 
	C967.179016,364.861969 960.733826,374.084686 960.037537,389.545746 
z"/>
<path fill="#020202" opacity="1.000000" stroke="none" 
	d="
M190.746613,397.138672 
	C169.417618,385.752747 146.734879,381.975647 123.303665,382.751007 
	C108.687653,383.234711 94.120064,385.137085 79.525330,386.336884 
	C75.380722,386.677612 71.219482,386.874359 67.061798,386.987305 
	C49.655960,387.460144 43.019844,378.212769 43.242840,361.548126 
	C43.410248,349.037659 49.411884,339.010345 60.106449,331.996185 
	C61.353035,331.178589 62.552284,329.213348 62.573109,327.762909 
	C62.910458,304.269440 70.416306,283.082214 82.765114,263.368591 
	C85.374481,259.202972 84.441322,257.360229 79.536354,256.070526 
	C76.111282,255.169922 72.266098,254.919250 69.375664,253.135361 
	C63.794956,249.691086 62.733234,244.233246 62.136639,237.563034 
	C60.961472,224.424164 65.028374,215.054062 75.138451,206.588043 
	C81.261284,201.460892 86.642288,198.746506 94.763962,198.805145 
	C146.922958,199.181702 199.085999,198.996704 251.247711,198.998337 
	C257.912628,198.998550 262.831146,203.986954 262.835175,210.743179 
	C262.838867,216.909256 262.573120,223.090744 262.933472,229.235687 
	C263.153503,232.987762 261.865692,235.484772 259.113800,237.797577 
	C255.674179,240.688400 252.051254,243.547348 249.316666,247.051544 
	C243.847412,254.060089 236.979568,255.546234 228.423828,255.353485 
	C204.937973,254.824371 181.404861,255.864273 157.944122,254.932144 
	C141.758636,254.289093 128.288620,259.066406 116.164772,269.228485 
	C103.510399,279.835266 92.513596,291.799622 85.900696,307.107239 
	C83.435310,312.814148 82.264908,319.080475 80.195900,326.143616 
	C83.437798,325.880920 85.491020,325.708557 87.545242,325.548981 
	C112.621002,323.601532 137.679214,321.161957 162.595428,327.335144 
	C191.447800,334.483551 215.630020,349.149353 235.124725,371.561005 
	C256.305878,395.911407 267.967041,424.675415 272.768616,456.156342 
	C275.219543,472.225586 276.523041,488.610321 276.658691,504.866547 
	C277.121582,560.357422 276.835968,615.854492 276.835968,671.349243 
	C276.835968,672.349182 276.854279,673.349426 276.832764,674.348938 
	C276.728851,679.183716 274.001099,682.696716 270.203674,682.902710 
	C266.842590,683.084961 263.573547,679.241089 263.343658,674.493835 
	C262.876129,664.840759 262.565552,655.180115 262.159241,645.523926 
	C260.779236,612.727600 259.752472,579.911072 257.893066,547.141846 
	C256.074127,515.085876 250.664444,483.637146 238.126236,453.814850 
	C228.212830,430.235687 213.685913,410.369476 190.746613,397.138672 
z"/>
<path fill="#010101" opacity="1.000000" stroke="none" 
	d="
M1297.497681,232.013947 
	C1295.913696,222.824478 1300.044800,217.156967 1305.860474,210.848129 
	C1314.491699,201.484879 1323.761353,198.513168 1336.359009,198.697525 
	C1386.342773,199.429001 1436.343628,198.997528 1486.338135,198.999268 
	C1493.110229,198.999512 1497.997070,203.883926 1498.000610,210.648682 
	C1498.004272,217.481262 1498.146729,224.319077 1497.901245,231.142838 
	C1497.838623,232.884903 1496.960693,235.005356 1495.735229,236.228439 
	C1489.958252,241.994186 1484.050171,247.645340 1477.907593,253.015747 
	C1476.382080,254.349396 1473.811279,255.070068 1471.715820,255.080765 
	C1445.219482,255.216095 1418.708252,255.681946 1392.230469,254.967148 
	C1377.624878,254.572861 1365.161255,258.396088 1353.791016,267.319550 
	C1339.691895,278.384705 1327.674927,291.104401 1320.694458,307.834808 
	C1318.370483,313.404602 1317.229004,319.467834 1315.332397,326.050110 
	C1327.719727,325.190918 1338.974243,324.436615 1350.224731,323.625549 
	C1412.965576,319.102478 1466.504883,350.574219 1492.522583,405.891418 
	C1506.470947,435.547577 1511.933838,466.948547 1511.978516,499.451874 
	C1512.058350,557.445435 1512.001465,615.439148 1512.001587,673.432800 
	C1512.001587,673.766113 1512.007446,674.099487 1512.000610,674.432678 
	C1511.899658,679.309692 1509.246338,682.679565 1505.326172,682.912354 
	C1501.893066,683.116211 1498.572876,679.345276 1498.364624,674.593750 
	C1497.846802,662.774475 1497.529175,650.946472 1497.033325,639.126038 
	C1495.713501,607.664856 1494.902588,576.168823 1492.833496,544.756226 
	C1490.770386,513.439087 1485.661987,482.573425 1473.062134,453.467133 
	C1463.776367,432.016846 1451.184814,413.087494 1430.978271,400.236145 
	C1416.524170,391.043335 1400.556519,386.291626 1383.705566,383.999725 
	C1360.495239,380.842834 1337.524780,383.647614 1314.517334,386.328247 
	C1309.082153,386.961487 1303.529785,387.110474 1298.062988,386.840973 
	C1287.280762,386.309509 1280.879272,380.426605 1278.925659,369.914246 
	C1276.164185,355.054596 1282.381226,340.606293 1294.836792,332.185425 
	C1296.294067,331.200226 1297.628540,328.861633 1297.663818,327.122864 
	C1298.130371,304.161926 1305.683472,283.475830 1317.369385,264.047485 
	C1320.611206,258.657806 1319.821045,257.244354 1313.545776,255.803238 
	C1310.148682,255.023102 1306.613647,254.146713 1303.613159,252.469055 
	C1295.404785,247.879547 1297.637695,239.761108 1297.497681,232.013947 
z"/>
<path fill="#020202" opacity="1.000000" stroke="none" 
	d="
M2103.249023,321.722198 
	C2098.056152,298.998932 2094.020508,276.332458 2081.049072,256.697937 
	C2080.123291,255.296494 2079.751709,253.298752 2079.727783,251.569855 
	C2079.600342,242.406967 2079.492432,233.235703 2079.791260,224.080826 
	C2079.863525,221.860733 2080.994629,219.231613 2082.504395,217.583008 
	C2087.561279,212.060501 2092.883545,206.759521 2098.390869,201.684845 
	C2099.908203,200.286560 2102.409180,199.323364 2104.486084,199.272461 
	C2114.477783,199.027512 2124.481689,199.042191 2134.474365,199.270798 
	C2136.358643,199.313904 2138.489258,200.392517 2140.029541,201.600815 
	C2146.061035,206.332520 2148.810547,212.429443 2147.602295,220.292191 
	C2147.076904,223.710678 2147.544434,227.277435 2147.508301,230.776276 
	C2147.417969,239.501114 2149.181152,248.638641 2142.024414,255.818100 
	C2139.038086,272.649445 2135.162354,289.379303 2133.228271,306.330719 
	C2126.850342,362.235657 2129.525879,418.423737 2128.866455,474.508514 
	C2128.834961,477.187897 2127.170166,482.171295 2126.501465,482.131500 
	C2122.968262,481.921173 2118.695068,481.399689 2116.165527,479.242523 
	C2104.284180,469.110413 2093.474854,457.659088 2081.200684,448.063080 
	C2054.288330,427.023132 2024.996094,410.224609 1991.183960,402.707825 
	C1975.743530,399.275269 1960.467529,401.269287 1945.140747,404.181244 
	C1936.196655,405.880554 1927.044312,406.855743 1917.944580,407.285248 
	C1900.572876,408.105316 1894.505615,394.337952 1895.445312,381.451202 
	C1896.335327,369.247925 1901.926880,359.347229 1912.617554,352.633881 
	C1913.782104,351.902588 1914.718872,349.635864 1914.588135,348.187195 
	C1911.937256,318.805939 1918.862183,291.823944 1934.540283,266.967377 
	C1938.104126,261.316895 1937.417236,257.972260 1932.369019,256.267029 
	C1932.055542,256.161224 1931.714478,256.036774 1931.396362,256.059845 
	C1923.885864,256.605408 1921.024658,250.402023 1917.026489,245.982224 
	C1916.173096,245.038895 1916.031250,243.223892 1916.003540,241.801834 
	C1915.893188,236.138550 1916.158691,230.462067 1915.883179,224.810059 
	C1915.712769,221.311966 1916.872925,218.793457 1919.408813,216.527115 
	C1924.990356,211.538620 1930.343994,206.290039 1936.022949,201.418396 
	C1937.497437,200.153610 1939.824463,199.266983 1941.765869,199.255783 
	C1966.426392,199.113617 1991.088013,199.129349 2015.749146,199.184982 
	C2022.802856,199.200897 2030.022705,207.170685 2030.775024,213.969940 
	C2032.282959,227.597076 2029.241943,238.616302 2017.785889,247.586151 
	C2012.579224,251.662933 2008.680542,255.839355 2001.334717,255.595673 
	C1991.679565,255.275391 1983.255371,259.538055 1975.750366,265.391724 
	C1955.052124,281.536163 1940.911743,302.205292 1933.856689,327.505585 
	C1932.584595,332.067810 1932.897583,337.057465 1932.305054,341.828186 
	C1931.794067,345.941498 1933.650024,346.276367 1937.243042,346.035553 
	C1950.835327,345.124512 1964.462524,343.951111 1978.062500,344.108368 
	C2003.932739,344.407501 2026.622559,354.076416 2046.905029,369.733185 
	C2065.863525,384.367950 2080.280518,403.051910 2093.613281,422.660278 
	C2099.552734,431.395416 2105.317139,440.249695 2111.656982,448.920135 
	C2113.155762,406.321350 2112.441895,363.961212 2103.249023,321.722198 
z"/>
<path fill="#010101" opacity="1.000000" stroke="none" 
	d="
M1725.025879,380.976074 
	C1750.339600,401.769318 1769.739868,427.420868 1789.590088,452.655853 
	C1795.447876,460.102722 1801.046997,467.754364 1806.692749,475.365509 
	C1807.666626,476.678680 1808.962402,478.282227 1808.916016,479.712952 
	C1808.819824,482.678253 1808.729736,486.313202 1807.029053,488.288055 
	C1806.112427,489.352570 1801.139038,488.437103 1799.274048,486.882050 
	C1794.062988,482.537292 1789.487183,477.423828 1784.715454,472.560089 
	C1767.157593,454.664062 1748.275513,438.386169 1726.281250,426.134552 
	C1699.370361,411.144226 1670.260620,405.073608 1639.589233,404.794434 
	C1620.811646,404.623474 1602.433838,406.965973 1584.071655,410.385834 
	C1578.206177,411.478271 1572.177612,411.887939 1566.203003,412.163330 
	C1552.078735,412.814362 1546.290527,405.515778 1542.646240,393.694550 
	C1537.993164,378.601685 1547.007690,368.768677 1557.604858,360.773193 
	C1562.904175,356.774933 1564.253174,353.779968 1562.824463,347.236786 
	C1556.244507,317.099487 1561.104736,289.144012 1580.669678,264.480286 
	C1583.947266,260.348511 1582.484985,256.889526 1577.190796,256.068634 
	C1574.406494,255.636932 1571.562744,255.558701 1568.741455,255.402023 
	C1562.270386,255.042633 1558.914062,251.729645 1558.909668,245.390198 
	C1558.903809,237.061508 1556.832886,227.852341 1559.720703,220.655304 
	C1562.524536,213.668091 1570.626343,208.883820 1576.099854,202.858185 
	C1578.802856,199.882721 1581.661377,198.844986 1585.656006,198.854828 
	C1637.487915,198.982620 1689.320312,198.937363 1741.152588,198.942581 
	C1748.354858,198.943314 1753.436035,204.066711 1753.449463,211.308090 
	C1753.457153,215.474655 1753.151123,219.668289 1753.523804,223.801285 
	C1754.038330,229.508942 1751.724609,233.895737 1747.785034,237.518250 
	C1735.649658,248.676575 1721.924438,255.900192 1704.801025,255.472229 
	C1690.310425,255.110092 1675.780029,255.911331 1661.310547,255.251465 
	C1647.159424,254.606110 1634.398438,257.978699 1622.312988,265.052399 
	C1608.772827,272.977600 1597.374146,283.163971 1588.037964,295.784790 
	C1578.597046,308.547119 1579.249512,322.882996 1581.090210,337.433289 
	C1581.623535,341.651001 1581.328247,347.249695 1583.847534,349.557373 
	C1586.071533,351.594574 1591.691162,350.029816 1595.804932,349.879578 
	C1609.276978,349.387665 1622.744873,348.401855 1636.216553,348.361694 
	C1662.983887,348.281921 1687.778076,355.414551 1710.184692,370.248322 
	C1715.171631,373.549805 1719.894653,377.249725 1725.025879,380.976074 
z"/>
<path fill="#020202" opacity="1.000000" stroke="none" 
	d="
M2079.068604,101.075287 
	C2105.728760,74.994072 2137.583496,59.158501 2173.026123,50.070415 
	C2190.887207,45.490623 2208.879395,41.426361 2226.784180,37.015400 
	C2244.583984,32.630405 2261.069336,25.351366 2275.781982,14.279008 
	C2276.542969,13.706300 2277.378662,13.232668 2278.916992,12.234501 
	C2279.194092,26.229973 2277.405273,38.953022 2269.770996,50.254845 
	C2260.134521,64.520943 2246.703369,74.450294 2232.074219,83.057182 
	C2211.827637,94.968994 2189.278564,100.190994 2166.907471,106.025330 
	C2140.983398,112.786217 2115.116943,119.758270 2090.801270,131.362518 
	C2073.771240,139.489746 2058.694580,150.228012 2046.594604,164.841705 
	C2045.699829,165.922302 2044.957520,168.070007 2045.429443,169.170441 
	C2047.046143,172.940125 2045.503296,175.025772 2042.544922,177.004211 
	C2040.083374,178.650162 2037.858276,180.649460 2035.193604,182.757095 
	C2029.486084,175.401794 2024.045044,168.055328 2018.258911,160.991501 
	C1993.998169,131.372879 1962.984619,114.761414 1924.500000,112.725937 
	C1919.676270,112.470810 1914.850830,112.152252 1910.023071,112.084259 
	C1893.870728,111.856781 1887.445068,103.248192 1888.498779,87.041725 
	C1889.443115,72.519974 1899.718384,65.550552 1912.002441,60.900543 
	C1933.246094,52.858948 1952.911255,57.171223 1971.350708,69.137024 
	C2000.335938,87.946350 2019.671143,114.869911 2034.769897,145.283081 
	C2035.870972,147.501083 2036.909302,149.750275 2038.271240,152.601501 
	C2050.146973,133.751266 2062.616943,116.039322 2079.068604,101.075287 
z"/>
<path fill="#020202" opacity="1.000000" stroke="none" 
	d="
M264.917053,62.928215 
	C286.879150,56.220634 308.243866,48.634003 330.167023,43.375389 
	C357.779663,36.752064 385.315277,30.660910 408.326935,12.110401 
	C408.822052,36.319752 404.591827,48.704792 385.032013,66.411232 
	C365.185852,84.376915 341.171783,94.171234 315.644897,101.166466 
	C289.352509,108.371475 263.044220,115.691666 237.219925,124.379486 
	C214.437057,132.044098 194.153091,144.363968 177.866119,162.698318 
	C174.604858,166.369507 174.419205,169.353714 176.159332,173.575836 
	C172.583313,176.521454 169.029617,179.448669 164.988113,182.777710 
	C160.211380,176.632004 155.461563,170.703690 150.907135,164.628891 
	C133.329086,141.182816 110.492889,124.866333 82.335403,117.319580 
	C69.003990,113.746490 54.722237,113.718071 40.870502,112.088257 
	C37.737881,111.719666 34.524128,111.690918 31.485855,110.943909 
	C25.422258,109.453094 21.330467,105.717529 19.454784,99.553040 
	C14.115585,82.005600 22.415451,67.822060 41.885666,60.764870 
	C63.253494,53.019867 82.739655,57.365719 101.234833,69.254707 
	C123.733910,83.717445 140.443848,103.596458 154.106232,126.207809 
	C159.078751,134.437363 163.259430,143.145370 168.187347,152.356537 
	C191.613907,113.333717 222.705551,82.313011 264.917053,62.928215 
z"/>
<path fill="#060606" opacity="1.000000" stroke="none" 
	d="
M2234.087158,358.059021 
	C2226.659668,314.239075 2219.419678,270.821564 2198.020996,230.938934 
	C2207.979492,220.985504 2218.178467,210.709869 2228.521973,200.581772 
	C2229.537842,199.587021 2231.435791,199.074219 2232.932617,199.056732 
	C2243.761963,198.930298 2254.594238,198.915726 2265.423096,199.066833 
	C2267.072510,199.089844 2268.734131,200.089066 2270.335205,200.766754 
	C2270.910889,201.010345 2271.274902,201.710266 2271.819336,202.077362 
	C2280.781738,208.118088 2282.839600,216.383316 2282.959717,227.099838 
	C2283.113525,240.874054 2279.516846,253.406815 2276.207031,266.381866 
	C2269.385254,293.122681 2265.582275,320.468933 2264.170410,347.991882 
	C2262.619629,378.221802 2261.772705,408.515167 2261.642090,438.785278 
	C2261.303955,517.098267 2261.425049,595.414124 2261.680420,673.727722 
	C2261.707764,682.068848 2256.007812,684.299438 2250.737061,683.063293 
	C2246.205078,682.000549 2244.354980,679.565613 2244.368652,674.613708 
	C2244.528564,616.794800 2244.538818,558.975037 2244.450195,501.155792 
	C2244.377197,453.366089 2241.400635,405.773193 2234.087158,358.059021 
z"/>
<path fill="#C67135" opacity="1.000000" stroke="none" 
	d="
M2330.124756,206.118927 
	C2332.230957,199.344055 2336.538574,197.809525 2343.073486,198.091217 
	C2356.485596,198.669327 2369.939697,198.264832 2383.943848,198.264832 
	C2383.565918,207.760071 2385.798096,216.824844 2380.243652,225.525925 
	C2374.902832,233.892365 2370.625977,242.953705 2366.135254,251.837891 
	C2364.803467,254.472443 2363.083496,254.893921 2360.380859,255.333099 
	C2349.263184,257.139618 2342.057373,253.489151 2337.939941,242.521942 
	C2335.403076,235.764618 2331.239502,229.547333 2327.301758,223.411407 
	C2324.655029,219.287094 2324.083008,215.729401 2327.112305,211.696854 
	C2328.294678,210.123062 2329.026367,208.210800 2330.124756,206.118927 
z"/>
<path fill="#C67135" opacity="1.000000" stroke="none" 
	d="
M1864.970459,198.265015 
	C1868.765381,198.265121 1872.065430,198.265121 1875.937256,198.265121 
	C1875.575317,207.762299 1877.791626,216.833755 1872.234497,225.544647 
	C1866.889038,233.923752 1862.856445,243.131332 1857.919800,251.788284 
	C1857.010742,253.382370 1854.668945,254.694550 1852.767456,255.099548 
	C1841.588013,257.480774 1834.168091,253.623550 1829.871826,242.435104 
	C1826.983154,234.912460 1822.207031,228.091751 1818.050415,221.090607 
	C1816.497681,218.475082 1816.484863,216.348389 1818.025024,213.773285 
	C1821.003784,208.793259 1822.581055,201.826263 1826.894775,199.124771 
	C1830.998901,196.554489 1837.852539,198.322754 1843.497925,198.278091 
	C1850.489990,198.222763 1857.483032,198.264893 1864.970459,198.265015 
z"/>
<path fill="#C67135" opacity="1.000000" stroke="none" 
	d="
M1262.065430,202.231033 
	C1263.424805,213.203384 1260.677246,222.570755 1255.036987,231.484085 
	C1250.871826,238.066391 1247.746216,245.299286 1243.817261,252.044113 
	C1242.953857,253.526306 1240.690308,254.990921 1239.004761,255.071579 
	C1223.598999,255.808624 1223.595459,255.718399 1216.188599,242.540833 
	C1212.197144,235.439423 1208.285400,228.291260 1204.165527,221.265198 
	C1202.684692,218.739792 1202.307251,216.627182 1203.927979,213.954742 
	C1206.937500,208.991745 1208.440674,201.910385 1212.749634,199.279694 
	C1217.039795,196.660522 1224.004517,198.331924 1229.797729,198.285522 
	C1239.289307,198.209488 1248.782715,198.333801 1258.273560,198.222229 
	C1260.907593,198.191269 1262.516724,198.732010 1262.065430,202.231033 
z"/>
<path fill="#C67135" opacity="1.000000" stroke="none" 
	d="
M571.905518,221.967743 
	C569.526733,218.984879 569.561157,216.451141 571.419800,213.462677 
	C574.394043,208.680359 575.838196,201.785110 580.027710,199.246567 
	C584.218811,196.707169 590.984314,198.323135 596.622437,198.285721 
	C607.250061,198.215164 617.878418,198.265366 629.141174,198.265366 
	C628.688293,207.452530 631.098083,216.218781 625.916443,224.683395 
	C620.545532,233.457291 616.031982,242.763535 611.317322,251.926392 
	C610.106873,254.278976 608.631042,254.903839 606.021179,255.340149 
	C594.703247,257.232208 587.353943,253.547150 583.103210,242.392532 
	C580.409424,235.323685 575.809937,228.981079 571.905518,221.967743 
z"/>
<path fill="#FDFDFD" opacity="1.000000" stroke="none" 
	d="
M795.491455,374.034668 
	C795.491516,370.057678 795.491516,366.573151 795.491516,362.648865 
	C814.722107,362.501862 833.512451,363.952789 851.789001,369.468933 
	C862.355408,372.657990 872.304565,377.089203 880.772034,384.551514 
	C896.066772,398.030609 900.316284,415.031677 896.578552,434.289703 
	C893.429016,450.517029 882.820862,460.622345 866.092773,462.889221 
	C846.060486,465.603882 826.891418,462.435577 809.797363,450.893860 
	C800.398743,444.547974 795.235779,435.800140 795.424805,424.014832 
	C795.689331,407.522797 795.491516,391.023346 795.491455,374.034668 
z"/>
<path fill="#FDFDFD" opacity="1.000000" stroke="none" 
	d="
M715.078125,463.972595 
	C702.576843,463.176514 691.244873,460.781647 682.567627,451.310455 
	C674.242920,442.224121 672.767944,431.055267 673.202454,419.630707 
	C674.142334,394.918762 687.649963,378.799591 713.856934,370.201111 
	C732.753357,364.001160 752.287354,362.643402 772.508972,362.578003 
	C772.508972,365.644958 772.508972,368.590912 772.508972,371.536865 
	C772.508911,389.025421 772.326050,406.516449 772.564148,424.001740 
	C772.771118,439.199524 764.771057,448.970520 752.206543,455.667023 
	C740.807007,461.742584 728.282715,463.491455 715.078125,463.972595 
z"/>
<path fill="#FEFEFE" opacity="1.000000" stroke="none" 
	d="
M337.766113,366.683777 
	C348.299500,359.809540 359.852356,358.798767 371.607666,358.597992 
	C386.971222,358.335663 401.845398,360.041107 415.219482,368.585999 
	C421.560699,372.637482 425.290619,377.753723 425.088013,385.731934 
	C424.751099,399.000732 422.000763,411.498016 414.730896,422.719299 
	C407.791473,433.430450 398.102173,439.789673 385.066803,440.199219 
	C369.948242,440.674255 355.054596,439.086700 343.425415,428.395294 
	C328.676422,414.835571 324.622681,397.366760 329.110413,378.234924 
	C330.097992,374.024811 334.579926,370.634308 337.766113,366.683777 
z"/>
<path fill="#FEFEFE" opacity="1.000000" stroke="none" 
	d="
M960.022949,389.079712 
	C960.733826,374.084686 967.179016,364.861969 981.941406,361.498932 
	C1004.794373,356.292816 1027.540894,356.242401 1048.623047,368.901886 
	C1053.555298,371.863586 1057.155273,375.897736 1057.606445,381.886047 
	C1058.826294,398.071472 1055.011963,412.946259 1045.151001,425.956573 
	C1038.360840,434.915466 1029.224365,439.817902 1017.838196,440.221497 
	C1003.753540,440.720703 990.116150,438.937805 978.510010,430.261993 
	C965.028198,420.184082 960.501038,405.704926 960.022949,389.079712 
z"/>
</svg>