<svg enable-background="new 0 0 496 512" viewBox="0 0 496 512" xmlns="http://www.w3.org/2000/svg"><path d="m240.772659 385.250763c-5.079742-4.603729-9.530319-9.283142-13.29364-14.620789-1.652252-2.343383-1.801147-4.44165-.361023-6.887664 6.448456-10.952546 15.262604-19.598267 25.687744-26.730378 2.269318-1.552551 4.374558-1.232605 6.51149.024842 10.727173 6.312225 19.887573 14.384643 27.356049 24.36615 1.458618 1.949401 1.63089 3.81726.441742 5.983917-6.364319 11.5961-15.138397 20.93811-26.085602 28.315887-2.263855 1.525696-4.218536 1.276001-6.429459-.079498-4.837982-2.966064-9.315445-6.38974-13.827301-10.372467z"/><path d="m275.585693 235.578888c-4.137085 4.62236-8.552032 8.387726-13.279724 11.825882-2.753967 2.002792-5.318481 2.235489-8.24469.331589-10.133514-6.593232-19.022354-14.503006-26.300705-24.196259-1.929321-2.569412-2.061767-4.934311-.378936-7.773971 6.503128-10.973557 15.548858-19.400071 25.921493-26.579148 1.78685-1.236725 3.480805-1.025665 5.144959-.081405 11.150665 6.327072 20.530517 14.657226 28.196991 24.944488 1.661773 2.229858 1.28836 4.225479.099151 6.452744-2.923675 5.475769-6.621948 10.360778-11.158539 15.07608z"/></svg>