<svg enable-background="new 0 0 496 512" viewBox="0 0 496 512" xmlns="http://www.w3.org/2000/svg"><path d="m226.253174 45.732662c-7.855942-8.949932-15.469544-17.641302-23.015015-26.254917 1.750672-2.26613 3.544235-1.666988 5.096359-1.670946 15.308564-.039055 30.620316.159906 45.924134-.10928 4.57109-.080404 6.336288 1.724417 7.609207 5.836521 7.563843 24.434283 15.421661 48.777483 23.030304 73.19813.689117 2.211731 3.287597 5.441757-.200226 6.947159-3.117279 1.345489-6.706757 1.095482-9.495148-2.145874-9.222564-10.720718-18.634857-21.278191-27.968338-31.903557-6.917785-7.875328-13.826263-15.758827-20.981277-23.897236z"/><path d="m262.71283 149.795013c7.492431 3.94693 9.675598 13.59076 5.041565 20.667633-3.486695 5.324723-14.313523 6.490571-19.825562 2.134827-4.984772-3.939087-5.973404-15.31488-1.35231-19.991485 4.410171-4.46315 9.994064-4.640641 16.136307-2.810975z"/><path d="m201.863388 376.146179c3.789307-6.643219 15.466217-5.982513 19.99884-2.566528 4.629059 3.488586 5.760331 12.364746 2.353257 18.296234-2.871552 4.999176-10.838623 7.140198-17.36493 4.666565-5.410522-2.05072-8.397659-8.618042-6.88124-15.399994.357208-1.597595 1.125274-3.103302 1.894073-4.996277z"/><path d="m149.615646 288.834839c-6.316925 2.795929-12.434463 3.446777-17.63684-1.00296-4.798958-4.104645-5.082787-9.787354-3.177872-15.564881 1.751129-5.311065 5.946152-7.70401 13.079559-7.59497 6.661102.101837 10.087921 2.29068 11.630463 7.932006 1.609695 5.886811 1.32399 11.504731-3.89531 16.230805z"/><path d="m245.415756 385.750977c4.756287-5.76413 14.979202-7.077668 20.411789-2.946412 4.781616 3.636231 5.727875 13.548584 1.83255 19.196991-2.971924 4.30954-11.44754 6.088318-17.272918 3.625092-5.085328-2.150299-7.856644-8.792603-6.492463-15.789887.250107-1.282928.873597-2.493072 1.521042-4.085784z"/><path d="m307.434265 372.105042c7.004028 4.432067 9.029114 14.194854 4.622437 20.672332-3.44397 5.062378-13.639862 6.320099-19.462403 2.400849-5.377807-3.619934-6.663299-13.387452-2.243805-19.317902 4.371247-5.865692 10.503907-5.323547 17.083771-3.755279z"/><path d="m360.411987 272.941406c2.820282-6.506958 6.095917-8.374237 13.556275-8.285461 5.1315.061065 9.181244 1.863647 10.997253 6.913177 2.101563 5.843598 1.941376 11.724976-2.619812 16.296387-4.229736 4.239227-9.880493 3.575226-15.078979 2.121826-4.642365-1.297912-6.716462-5.218689-7.427674-9.748474-.35852-2.283417-.378998-4.64682.572937-7.297455z"/><path d="m301.894531 184.115921c-11.944214-1.6324-16.466308-8.125381-13.213287-18.354477 1.851654-5.822525 5.719086-8.200317 13.157501-8.089493 6.800842.101319 9.98349 2.409699 11.689087 8.47818 2.720886 9.680878-1.178528 15.921112-11.633301 17.96579z"/><path d="m156.514557 245.972778c-14.266556 3.103897-22.403519-4.619262-18.869873-17.265457 1.346008-4.817047 4.606827-7.272552 9.203277-7.83435 5.350083-.653931 10.777726-.623841 14.389466 4.452453 3.647171 5.126038 3.146545 17.459381-4.72287 20.647354z"/><path d="m185.967621 368.747437c-5.710678 4.788848-13.087021 5.667205-18.363159 2.470153-4.406433-2.670105-6.214859-8.203064-4.941254-15.11795 1.240891-6.737396 5.434311-9.649963 13.583221-9.434418 7.018296.185669 11.362809 3.766876 12.00174 10.199463.396927 3.996368.352875 8.017059-2.280548 11.882752z"/><path d="m163.193115 202.410126c-.457733-1.830643-.881454-3.285446-1.019958-4.766922-.579483-6.198349 2.321869-11.875763 6.925201-13.735428 5.917755-2.390671 13.351166-1.060761 16.638519 2.976791 3.214951 3.948593 3.65564 12.653336.863892 17.064545-4.803726 7.590317-18.116043 6.917084-23.407654-1.538986z"/><path d="m225.781891 174.317719c-2.182449 6.746887-5.330124 9.207839-12.052292 9.737213-5.725449.450882-10.506332-1.960709-12.561951-6.336533-2.518249-5.360626-1.768844-12.699234 1.686295-16.512848 3.404693-3.757934 11.312317-4.837189 16.807846-2.293945 4.827179 2.233917 6.990662 7.444305 6.120102 15.406113z"/><path d="m341.540985 182.897217c5.754578 1.071731 9.180359 4.106155 9.729462 9.610184.565948 5.673324 1.08789 11.697097-5.029846 14.972106-5.348481 2.863175-11.053803 2.604187-16.105988-.790573-5.200623-3.494507-4.957336-9.137527-4.241425-14.45906.597168-4.438843 3.33902-7.448243 7.842011-8.71164 2.444916-.686004 4.879517-.93695 7.805786-.621017z"/><path d="m366.388062 246.711334c-11.706208.841171-17.780579-6.008468-15.504883-16.939102 1.415436-6.798843 7.819153-10.281967 16.493133-8.971039 6.320343.955216 10.23053 6.469635 9.626801 13.57634-.603119 7.099335-3.523773 10.599625-10.615051 12.333801z"/><path d="m325.678467 361.715881c.012359-10.268036 3.525268-14.688263 11.657837-15.027221 4.779846-.199219 9.627777.029724 12.29245 4.768341 2.847564 5.063873 2.755798 10.5961.4906 15.844177-1.832824 4.246368-7.258178 6.373718-12.848755 5.640839-7.432647-.974305-9.987274-3.353974-11.592132-11.226136z"/><path d="m350.675598 321.10376c1.142639-9.649872 5.715607-13.222382 15.292664-12.379975 7.057464.620758 11.246185 5.69693 11.075287 13.421723-.172547 7.796631-4.944977 12.341125-13.101044 12.475128-8.748444.143768-12.828461-3.877289-13.266907-13.516876z"/><path d="m153.18454 334.366455c-12.732224.707642-18.536926-5.974243-15.460617-17.312256 1.506958-5.554046 5.08728-8.174042 11.441589-8.372589 7.226517-.22583 11.272751 2.036804 13.207977 7.385895 3.168717 8.758484-.319397 16.008484-9.188949 18.29895z"/></svg>