<svg enable-background="new 0 0 496 512" viewBox="0 0 496 512" xmlns="http://www.w3.org/2000/svg"><path d="m260.016846 76.01268c-7.272583 8.264275-14.29184 16.280273-21.351502 24.260536-3.932876 4.44574-5.486099 4.821099-11.800033 3.110153-.687256-1.509338-.036911-2.90261.409591-4.31726 7.95871-25.214783 15.98964-50.407257 23.799836-75.667977 1.291046-4.175684 3.292907-5.788047 7.780059-5.711971 15.151123.256878 30.30951.076866 45.465119.087452 1.601745.00112 3.299255-.306479 5.673828 1.457483-16.701691 18.977537-33.221069 37.747961-49.976898 56.781584z"/><path d="m258.707336 175.144745c-10.913696-.020661-15.448349-4.478668-15.011032-14.31453.364838-8.205047 5.686646-12.705841 14.267929-12.066757 8.12967.605484 12.735962 5.855316 12.150025 13.847519-.559693 7.634018-3.318207 10.778519-11.406922 12.533768z"/><path d="m301.894775 184.123352c-11.961029-1.613266-16.503143-8.133087-13.226928-18.368973 1.865844-5.829452 5.714355-8.190582 13.174835-8.083069 6.762237.097443 10.038574 2.456696 11.749206 8.460511 2.72519 9.564544-1.281372 15.949493-11.697113 17.991531z"/><path d="m221.482407 373.305847c5.301361 5.571839 6.193893 13.113068 2.534622 18.94159-2.766556 4.406585-9.819458 6.44046-16.161911 4.660675-5.938126-1.666352-9.240387-7.930207-8.019242-15.211335 1.21399-7.238433 6.414902-11.379089 13.719437-10.683868 2.611496.248535 5.285721.598602 7.927094 2.292938z"/><path d="m153.174377 271.308472c.966675 2.592163 1.218491 4.875427 1.136094 7.222442-.293793 8.367432-4.883439 12.602295-13.437653 12.363251-8.183975-.228729-13.035393-5.060455-13.097092-13.044006-.063064-8.161225 4.672089-13.004151 12.858811-13.183014 5.25412-.114777 9.970108.802704 12.53984 6.641327z"/><path d="m253.010864 380.717712c13.614533-1.021576 19.497467 5.362671 16.387879 17.220368-1.104493 4.211609-3.470246 7.360931-7.774048 8.134552-5.05307.908295-10.280747 1.488708-14.491745-2.708466-5.767548-5.748626-4.803421-21.516601 5.877914-22.646454z"/><path d="m294.381104 396.110504c-7.121155-4.657837-8.75525-13.586761-4.064606-20.290741 3.541565-5.061706 13.541473-6.468841 19.077606-2.684509 4.034332 2.757751 5.975555 10.017883 4.265869 15.954346-1.574951 5.468597-5.006866 8.039123-11.053192 8.235656-2.670898.086853-5.342194.105469-8.225677-1.214752z"/><path d="m367.935242 265.318665c13.734131-2.215882 20.783264 4.751739 17.579925 16.794067-1.106506 4.159698-3.275268 7.366516-7.711334 8.209961-5.158783.980865-10.420776 1.312927-14.515045-2.825897-6.528076-6.598969-4.217285-18.15152 4.646454-22.178131z"/><path d="m161.543427 225.788025c1.459426 2.758774 1.854064 5.327682 1.815368 8.037689-.092926 6.509186-2.853363 10.97345-7.8461 12.45398-6.75502 2.003112-13.500641.048172-16.441574-4.764908-3.077133-5.035965-2.565658-13.319062.86438-17.352478 3.92482-4.615204 17.776733-5.273728 21.607926 1.625717z"/><path d="m184.868225 369.88797c-5.961182 4.040344-12.063095 4.487396-17.678039.890717-5.502655-3.52472-5.63678-9.396912-4.452179-15.260224 1.049163-5.192993 4.612716-8.263458 10.097641-8.80777 7.463287-.740631 12.405731 1.258759 14.322189 6.430268 2.115967 5.709961 2.17186 11.416259-2.289612 16.747009z"/><path d="m167.134949 207.146484c-5.696167-5.26181-6.630204-13.649749-2.516968-19.725128 3.102676-4.582702 11.905045-6.293106 17.798065-3.196731 5.814011 3.054885 6.297501 8.571396 5.863175 14.261322-.376572 4.933487-2.800538 8.471252-7.715241 9.925583-4.482422 1.326385-8.872024 1.090148-13.429031-1.265046z"/><path d="m204.188843 159.959778c6.067688-3.36499 12.023849-3.524216 17.305023.199783 4.667831 3.291535 5.358536 8.62207 4.299667 13.981873-1.322937 6.696579-6.311691 10.260696-13.479049 9.949218-7.191773-.312545-11.456147-3.806777-12.423233-10.589019-.707123-4.959107.040222-9.652085 4.297592-13.541855z"/><path d="m369.588196 246.034515c-12.644989 2.499268-19.049439-2.039535-18.918701-13.007888.103729-8.704041 5.078125-12.807129 14.956421-12.336625 7.64569.364151 12.21762 5.856659 11.357238 13.935059-.512359 4.810455-2.152984 9.091751-7.394958 11.409454z"/><path d="m327.569702 204.114777c-2.720733-6.17006-3.407165-12.163086.890686-17.252823 3.936035-4.661194 9.567505-4.956681 15.173462-3.406662 5.753143 1.590713 8.071655 5.666534 7.907684 13.286972-.147094 6.837707-2.638366 10.68042-8.306854 11.923538-5.777618 1.267059-11.278534.781036-15.664978-4.551025z"/><path d="m349.754944 351.511536c2.284241 4.405304 2.164551 8.779113 1.384521 13.026641-.972961 5.298035-4.877411 7.571747-9.939331 8.328278-5.615753.839356-11.393066-1.248077-13.721496-5.114044-3.530091-5.861115-2.2594-15.132172 2.569122-18.744568 5.348084-4.001068 14.692108-2.959625 19.707184 2.503693z"/><path d="m375.154968 314.155945c1.289612 2.810669 1.857422 5.441162 1.84256 8.084778-.032654 5.798614-3.408111 10.473083-8.225586 11.828643-6.511871 1.832276-13.492432-.134399-16.162323-4.553588-3.012726-4.986695-2.492737-13.585419 1.052307-17.401429 4.882691-5.25589 15.999024-4.376648 21.493042 2.041596z"/><path d="m162.394012 316.139618c3.21814 12.683777-2.808288 19.678497-15.254119 18.227264-5.823288-.679046-9.36467-4.548797-10.15091-11.092132-.743652-6.188935 2.388626-11.959687 7.470307-13.763031 7.712661-2.736939 14.2117-.465607 17.934722 6.627899z"/></svg>