<svg enable-background="new 0 0 496 512" viewBox="0 0 496 512" xmlns="http://www.w3.org/2000/svg"><path d="m261.751038 45.193596c9.824829 5.691421 19.050689 11.701965 28.966278 16.486503 3.14096 1.515606 6.35141 2.938981 9.641662 4.083771 9.704193 3.376396 17.096833.543251 22.326569-8.416816 3.649017-6.251854 5.964599-13.009385 7.042572-20.139576.635254-4.201844 2.817474-5.723778 6.873169-5.029641 1.724335.295121 2.688812 1.138108 2.697937 2.962654.089264 17.868058-2.497864 35.030301-15.266663 48.720997-15.128265 16.220475-32.922516 19.890038-53.634857 11.922852-10.807587-4.157227-20.630646-10.048828-30.178574-16.479538-7.6035-5.121109-15.283905-10.128044-23.963577-13.285759-12.049515-4.383686-22.135605.454475-25.9328 12.639564-1.676605 5.380196-2.911423 10.920342-3.987244 16.457726-.728164 3.747993-2.959762 4.225365-6.14476 4.092262-3.394073-.141853-3.62944-2.272575-3.513397-4.778045.770386-16.636277 3.108139-32.854355 13.526398-46.658989 9.045059-11.9851 21.693344-15.547081 36.087921-15.530747 13.371414.015167 24.270309 6.209336 35.459366 12.952782z"/><path d="m214.598389 371.118469c6.467941.645813 10.375381 3.739533 11.275985 9.878327.779435 5.312927.275345 10.577667-4.531738 13.924774-5.049209 3.515655-10.850265 3.602508-16.139755.775635-5.248062-2.804749-5.932648-8.159089-5.384628-13.530854.60614-5.94162 3.650817-9.456512 8.941177-10.612549 1.762649-.385131 3.616302-.353851 5.838959-.435333z"/><path d="m130.163101 269.40741c5.305954-5.25998 14.695008-6.309967 19.823242-2.511231 4.460785 3.304321 5.787064 12.31015 2.707001 18.381409-2.511261 4.950073-10.373718 7.137848-17.262771 4.803467-5.259385-1.782196-8.684922-8.420868-7.429551-14.749939.380875-1.920258 1.275055-3.738739 2.162079-5.923706z"/><path d="m268.271454 400.939575c-4.606598 5.89032-14.445664 7.552399-19.773987 3.669464-5.201401-3.790435-6.560577-13.611541-2.701279-19.518707 2.860962-4.379089 11.017258-6.14743 17.290238-3.748657 4.863067 1.859588 7.776672 7.380005 6.932342 13.52539-.266662 1.940766-1.039032 3.812073-1.747314 6.07251z"/><path d="m292.61615 373.394165c12.550568-5.90744 22.431305-.082916 21.641296 12.337799-.488617 7.681915-4.700592 11.556671-12.61853 11.608185-8.61734.056122-13.333343-3.836609-13.852783-11.582306-.313965-4.682617.952514-8.853516 4.830017-12.363678z"/><path d="m378.956726 265.483765c7.225586 4.22113 9.343292 13.623962 4.973297 20.505096-3.233703 5.091919-13.314728 6.687592-18.949493 2.99942-5.465698-3.577514-7.259308-13.556915-3.118653-19.304565 4.253907-5.904907 10.420838-5.634308 17.094849-4.199951z"/><path d="m137.623581 237.951447c-2.596542-12.572709 5.11087-20.00441 17.083054-16.948121 6.538345 1.669129 9.759384 7.631974 8.526214 15.783905-1.014328 6.705262-6.384033 10.861924-13.586059 10.274949-5.679963-.462922-10.290497-2.617295-12.023209-9.110733z"/><path d="m175.91423 182.728455c12.536805.8824 13.715744 10.329727 11.86232 18.359207-1.446319 6.265838-8.015365 9.288986-15.760254 7.873153-6.765655-1.236846-10.470764-6.240158-9.894012-13.360809.71019-8.768265 4.135742-12.070846 13.791946-12.871551z"/><path d="m291.140137 161.16275c4.575287-4.082351 9.717834-4.117859 14.825592-3.012359 6.107696 1.321975 9.460571 8.127594 8.105072 15.561874-1.280365 7.022263-6.324158 10.900696-13.478516 10.364319-11.993622-.899155-16.48526-11.356461-9.452148-22.913834z"/><path d="m266.196075 172.237793c-5.80252 3.866318-11.599151 4.098221-17.208969.924484-4.540497-2.568771-5.428466-7.238769-5.284027-12.08551.246948-8.286392 5.483948-12.853653 14.04686-12.322952 8.28772.513672 13.184814 6.052581 12.293976 14.136871-.36322 3.296463-1.150055 6.540131-3.84784 9.347107z"/><path d="m162.580841 356.792175c1.928803-8.324127 7.428803-11.547394 16.362015-9.963897 7.095749 1.257782 10.602554 7.368438 9.311584 16.225524-.952484 6.534791-6.560119 10.589356-13.856888 10.019135-8.975173-.701416-13.205581-6.36084-11.816711-16.280762z"/><path d="m222.016052 181.132629c-11.409637 6.608735-22.169967 1.531189-22.31726-10.148193-.113984-9.038177 4.779541-13.645889 14.124481-13.299515 8.22438.304825 13.036728 5.790863 12.324844 14.249573-.282257 3.353683-1.120636 6.585007-4.132065 9.198135z"/><path d="m348.156738 206.198181c-4.326324 3.346817-8.912628 3.599426-13.574615 2.468445-7.097382-1.721848-10.081421-7.33049-8.818695-16.036118.931244-6.420044 6.327575-10.239257 13.972625-9.889038 7.36438.337372 11.21222 4.114792 11.690705 11.523392.271606 4.205124.233978 8.347397-3.27002 11.933319z"/><path d="m372.786987 223.053436c4.794922 5.783036 5.452393 13.276703 1.941315 18.733048-2.937012 4.564224-8.966919 6.290802-15.645691 4.479965-5.414429-1.468063-8.23645-5.510864-8.408874-12.046494-.191773-7.269134 2.020721-10.961105 7.878509-12.725524 4.778961-1.439469 9.500427-1.453217 14.234741 1.559005z"/><path d="m337.207794 346.681396c14.320038-1.059143 16.019623 10.072907 13.362854 19.537171-1.361633 4.850464-5.657074 6.379211-10.141601 6.698852-4.739685.337891-9.46814-.331787-12.537873-4.557464-6.24356-8.594666-1.569-19.846283 9.31662-21.678559z"/><path d="m352.481476 313.814056c4.807495-5.454376 13.722503-6.835357 19.22998-3.296539 4.787476 3.076202 6.679322 10.850586 4.157837 17.086304-2.403808 5.94461-9.31958 8.571319-17.004852 6.45871-6.149078-1.690339-9.42981-8.050812-7.976929-15.653565.277374-1.451324.920532-2.832733 1.593964-4.59491z"/><path d="m153.505737 308.80014c6.011963 1.272126 8.956238 4.944275 9.698716 10.411957.707839 5.212555-.060563 10.229859-4.835419 13.258423-4.965164 3.149292-10.515839 2.947754-15.713104.494293-4.360108-2.058197-6.49202-8.237243-5.373719-13.906189 1.273056-6.453399 4.138398-9.5307 9.825318-10.243316 1.962143-.245819 3.978851-.056122 6.398208-.015168z"/></svg>