<svg enable-background="new 0 0 496 512" viewBox="0 0 496 512" xmlns="http://www.w3.org/2000/svg"><path d="m243.661987 42.99995c.002655-7.4883.113083-14.47892-.037658-21.463905-.07338-3.400715 1.179443-4.847202 4.64038-4.750246 5.320221.14904 10.647797.020479 15.972107.040697 6.546174.024859 6.780945.26825 6.779419 6.691912-.003723 15.806875-.010925 31.613748-.014587 47.420626-.002014 8.652175-.121918 17.306838.054474 25.955421.082611 4.04908-1.338074 5.70253-5.520172 5.487961-5.476593-.280976-10.986817-.266442-16.466126-.017319-4.111511.18692-5.512283-1.337456-5.474746-5.455093.162323-17.802071.068084-35.606488.066909-53.910054z"/><path d="m265.574097 172.747162c-12.162369 6.050873-22.202469.592071-21.883332-11.494339.218125-8.260574 4.946305-12.687561 13.371918-12.520126 8.258576.164123 13.269867 4.996933 13.032776 12.99266-.118103 3.982361-.879456 7.946915-4.521362 11.021805z"/><path d="m202.28447 375.480835c5.567474-5.258972 13.921493-6.003632 19.411331-2.025604 4.561249 3.305145 5.89891 11.644897 2.85556 17.802734-2.665008 5.392273-10.643295 7.833771-17.510528 5.358521-5.628373-2.028687-8.702576-8.822815-6.986771-15.755524.43219-1.746277 1.32196-3.379364 2.230408-5.380127z"/><path d="m154.279785 276.238251c-.20253 12.063415-7.529434 17.373169-18.59703 13.924743-4.452393-1.387298-7.597825-6.041992-7.890244-11.676178-.293808-5.661285 2.233246-10.536071 6.502899-12.544311 9.30101-4.374756 17.876389-.13916 19.984375 10.295746z"/><path d="m269.376526 397.953186c-1.819367 6.831238-6.672791 8.663696-12.604981 8.722687-5.124923.050995-9.677032-1.33844-11.777038-6.552246-2.228439-5.532776-2.216904-11.109894 1.578796-16.03302 2.992157-3.880921 12.440003-4.912934 17.673187-2.247315 4.796021 2.442932 6.760865 8.379395 5.130036 16.109894z"/><path d="m291.644653 394.461365c-3.198425-3.571228-4.297332-7.458344-3.832794-11.781891.680573-6.333984 4.066528-10.06604 10.055267-11.216309 6.693299-1.285583 11.915131.519867 14.412995 4.983307 3.142517 5.615265 2.527435 13.79599-1.333008 17.72992-4.014526 4.090942-12.093994 4.322143-19.30246.284973z"/><path d="m314.210541 172.674896c-1.228272 10.551651-9.960572 13.057953-18.831116 10.377976-6.78598-2.050186-9.627289-11.125992-6.151672-18.931565 2.139373-4.80458 6.519104-6.830673 13.844391-6.430648 5.154571.281478 8.793701 2.506103 10.30075 7.711242.653199 2.256012 1.077179 4.501206.837647 7.272995z"/><path d="m160.326508 243.244385c-5.834092 4.564651-13.112183 5.043716-18.308091 1.496841-4.190841-2.860794-6.073608-9.633377-4.381073-15.75943 1.744034-6.312332 6.028794-8.776931 14.407181-8.286926 6.277435.367142 10.418488 3.952469 11.158463 9.93399.539459 4.360642.223999 8.629685-2.87648 12.615525z"/><path d="m386.145325 278.822693c-2.181336 10.468567-7.5896 13.841888-17.799988 11.503174-6.587463-1.508942-10.268128-9.152985-8.115936-16.855225 1.749847-6.26236 5.983215-8.969543 13.753875-8.795349 6.72992.150818 10.082398 2.809357 11.593811 9.311371.33487 1.440613.406586 2.942352.568238 4.836029z"/><path d="m187.267868 353.242798c3.969925 13.809234-3.322693 22.129913-16.239685 19.206085-5.588562-1.264984-8.12735-5.059387-8.639694-10.249878-.517533-5.243133-.054734-10.469879 5.01886-13.728851 6.29602-4.044129 15.581405-1.914978 19.860519 4.772644z"/><path d="m185.999908 204.782791c-5.31137 4.844788-13.190292 5.760193-18.704986 2.453751-4.514832-2.706894-6.247467-8.727005-4.503983-15.649079 1.493164-5.928268 6.337372-9.156067 13.281922-8.850036 6.787643.299133 11.203338 3.664215 12.050338 9.703064.576874 4.11293.74852 8.338379-2.123291 12.3423z"/><path d="m217.846268 183.2724c-5.855255 1.336304-11.250717 1.343094-15.118027-3.274948-3.700775-4.419205-3.896896-9.763367-1.980804-15.11348 1.845199-5.152237 5.611694-7.298508 12.31813-7.209915 6.559952.086655 10.392944 2.497009 12.115128 7.61853 2.692596 8.007386.210281 14.417649-7.334427 17.979813z"/><path d="m327.55365 187.879517c5.426727-5.5905 13.68811-6.767136 19.297394-3.056534 4.330108 2.86438 6.245605 11.254059 3.961914 17.352417-1.885712 5.035568-6.585205 7.457458-13.533142 6.974365-6.159973-.428314-10.581024-3.828415-11.374207-9.295441-.569763-3.926971-.82605-7.981887 1.648041-11.974807z"/><path d="m375.260315 226.090393c.670776 2.278503 1.391663 4.165726 1.649994 6.114273.774505 5.842606-2.371826 11.797638-7.037659 13.675537-6.080475 2.447251-13.852051.78418-16.862091-3.608307-3.354553-4.895233-3.068787-13.692886.370087-17.892273 3.686737-4.50209 18.185425-5.963562 21.879669 1.71077z"/><path d="m345.643341 347.844696c5.909576 4.413849 7.789124 14.613709 4.095551 20.286346-3.259034 5.00525-12.353119 6.503083-18.598298 3.063233-4.549682-2.505982-6.683837-8.741791-5.291168-15.460419 1.030396-4.970978 4.794831-8.432861 10.072144-8.954986 3.140228-.310669 6.326263-.38736 9.721771 1.065826z"/><path d="m377.044647 321.961487c-1.80664 9.543396-4.808838 12.4935-12.845032 12.609283-4.794982.069062-9.456817-.681213-11.871246-5.600525-2.683227-5.467102-2.695526-11.205444.882233-16.089447 3.564941-4.866546 9.250549-4.775299 14.612091-3.850067 4.686584.808808 7.620636 3.808899 8.510376 8.602539.242187 1.304779.475464 2.611237.711578 4.328217z"/><path d="m161.006226 313.250488c1.883422 3.128632 2.43956 6.172333 2.340179 9.404328-.235107 7.645904-5.135162 12.010681-13.481049 11.928528-8.064102-.079377-12.856765-4.726227-12.959075-12.564728-.106751-8.178803 4.372711-13.034607 12.198806-13.3508 4.505127-.181976 8.634629.500763 11.901139 4.582672z"/></svg>