<svg enable-background="new 0 0 496 512" viewBox="0 0 496 512" xmlns="http://www.w3.org/2000/svg"><path d="m178.288528 91.973419c24.277634-.213966 48.098587-.301788 71.919587-.326698 27.821975-.029099 55.644607.089874 83.465438-.092041 4.69748-.030724 6.625855 1.267708 6.422944 6.161896-.303437 7.317764-.16034 14.658523-.047486 21.987053.051941 3.372947-1.21933 4.702598-4.700195 4.69786-51.312347-.06987-102.624817-.043236-153.937256-.052444-2.178833-.000397-4.622833.16729-4.625946-3.060951-.008835-9.160256.028885-18.320725.116928-27.480462.005417-.563003.605789-1.120292 1.385986-1.834213z"/><path d="m258.789185 22.758072c19.760162 1.75515 29.993621 20.47139 25.570617 35.765236-3.785461 13.089477-17.424072 22.518226-29.924621 20.514221-15.104142-2.421402-25.886719-14.503922-25.481415-28.553452.42012-14.563194 11.9673-26.693986 26.39595-27.71261.993576-.070143 1.995194-.026773 3.439469-.013395z"/><path d="m270.137451 161.928223c-1.619995 9.462112-4.343567 12.632492-11.275513 13.166046-4.945785.380661-9.845397-.061203-12.812484-4.720917-3.389771-5.323517-3.447464-11.15007-.378266-16.540955 2.712143-4.763778 7.750611-5.406494 12.67537-4.97705 4.792755.417953 9.173553 2.000015 10.757141 7.306122.516906 1.732025.706207 3.561843 1.033752 5.766754z"/><path d="m209.667542 371.308105c12.780014-1.114929 18.968673 6.039216 15.700881 17.58545-1.622299 5.732116-5.578781 8.402466-12.506881 8.441253-7.189743.040253-10.750443-2.307678-12.545655-8.272491-2.463119-8.183991 1.251084-15.512573 9.351655-17.754212z"/><path d="m151.112976 267.902466c2.376511 3.034729 3.167572 6.185882 3.195129 9.591125.054322 6.713623-2.518615 11.079377-7.496551 12.661469-6.360184 2.021393-13.669052.150238-16.69252-4.273529-3.240738-4.741699-3.07679-12.452637.359161-16.891541 4.084809-5.27713 13.409882-5.9086 20.634781-1.087524z"/><path d="m252.145096 406.208862c-6.294419-2.093658-8.325623-6.649902-8.451874-12.435943-.106873-4.898682.829758-9.595917 5.696899-11.768158 5.517167-2.462372 11.598038-2.88678 16.523636 1.057525 4.746918 3.8013 4.918183 9.457062 3.419129 15.070679-1.345001 5.036743-4.543824 7.837189-9.86969 8.306702-2.344269.206695-4.622284.096649-7.3181-.230805z"/><path d="m287.963593 387.425354c-.600037-12.659821 6.033294-18.453003 17.52948-15.795685 5.959686 1.377564 9.311859 6.851349 8.755767 14.297302-.500427 6.700867-4.240173 10.783722-10.405365 11.360169-8.783844.821197-12.974029-1.684967-15.879882-9.861786z"/><path d="m308.200104 182.563171c-2.7276.947297-5.112885 1.696824-7.663361 1.498597-6.838959-.53154-10.260345-2.991669-12.011535-8.624878-1.706238-5.488419-.125214-12.158341 3.598419-15.180893 3.807342-3.090515 12.243622-3.623871 16.661987-1.053452 7.397522 4.303589 7.262299 17.342713-.58551 23.360626z"/><path d="m138.384842 240.219055c-.975601-2.885696-1.745087-5.42749-1.457718-8.138016.759522-7.164047 4.567673-10.952117 11.434387-11.384811 8.300431-.523041 13.092804 2.340012 14.653931 8.754578 1.692795 6.955536-1.010071 14.144134-6.160568 16.384765-6.70961 2.918915-14.320954.726685-18.470032-5.616516z"/><path d="m359.714722 278.836975c.400695-11.278595 7.765411-16.651581 18.199554-13.71936 5.307495 1.491516 8.536835 6.68222 8.253449 13.266296-.292176 6.788941-3.731232 11.153778-9.541748 12.11026-10.0094 1.647705-15.207795-1.805603-16.911255-11.657196z"/><path d="m188.335236 358.201721c-.07985 11.783478-6.045411 16.571808-16.943711 14.314514-5.324249-1.102722-8.070617-4.389801-8.851394-9.457214-.843399-5.47406-.440201-10.83136 4.559372-14.350739 8.449035-5.947601 19.480835-1.151001 21.235733 9.493439z"/><path d="m175.914276 182.738251c10.358063 1.687698 14.584976 8.177963 12.082092 17.904342-1.658233 6.443955-8.033187 9.756409-15.985 8.305817-6.764908-1.234039-10.4422-6.208374-9.868042-13.348633.704635-8.763046 4.101059-12.04013 13.77095-12.861526z"/><path d="m208.642929 157.921677c13.993469-.770569 20.698044 6.994247 16.53743 18.578918-1.722397 4.795807-6.202194 7.561127-12.300324 7.592865-5.99263.031189-10.148605-2.458252-12.027954-7.16568-2.960403-7.415298-.262695-17.4281 7.790848-19.006103z"/><path d="m376.176331 228.291779c2.58316 13.794769-5.151581 21.515594-17.453156 17.900009-5.207306-1.530472-7.957062-5.745194-8.050507-12.33934-.098693-6.965256 2.122864-10.503373 7.74646-12.337266 8.106293-2.643524 14.226868-.431503 17.757203 6.776597z"/><path d="m343.184174 208.722595c-12.974732 1.35286-18.522156-3.642044-17.477814-15.254638.600464-6.67685 5.488312-10.649491 13.199066-10.727692 7.381836-.07486 11.839203 3.744614 12.465179 10.681305.799714 8.862076-1.043914 12.453903-8.186431 15.301025z"/><path d="m325.691925 357.331299c1.639374-6.895966 4.507416-9.992005 10.051239-10.51181 5.378296-.504334 11.145447-.718964 14.058197 4.988433 2.756134 5.400483 3.108399 11.489685-.464142 16.623688-3.736877 5.370087-9.615631 5.225342-15.388489 3.84198-4.919342-1.178924-7.769226-4.711121-8.230865-10.020203-.129181-1.485412-.034363-2.990295-.02594-4.922088z"/><path d="m369.070892 309.346741c7.610169 3.80896 10.155335 13.034179 5.878083 20.021637-3.301575 5.393554-13.933319 7.052795-19.694703 3.073669-5.226837-3.609985-6.476226-14.774628-1.854766-19.885315 4.141662-4.58017 9.704925-4.397156 15.671386-3.209991z"/><path d="m141.132477 332.000427c-5.073914-5.665222-5.285111-11.716003-2.214127-17.849182 2.76767-5.527405 8.126251-5.73883 13.412369-5.414825 7.044571.431793 11.040985 5.377655 11.006805 13.365844-.030853 7.216584-4.028823 11.739136-10.935928 12.306641-3.851654.316406-7.659653.305664-11.269119-2.408478z"/></svg>