<svg enable-background="new 0 0 496 512" viewBox="0 0 496 512" xmlns="http://www.w3.org/2000/svg"><path d="m253.000519 439.681641c7.996795.001312 15.494079.041565 22.990539-.01709 2.468323-.019318 4.45755.348419 5.854096 2.809295 8.630829 15.208497 17.37912 30.350312 26.060913 45.529999.390259.682373.514587 1.516815 1.108795 3.344879-6.59668 0-12.675812-.410675-18.674744.107392-6.973175.602203-12.534393-1.274231-17.494079-6.285157-4.08429-4.126464-8.942017-7.47586-13.265717-11.381378-2.415283-2.181671-4.207123-2.388763-6.762298-.078369-5.679505 5.135315-11.706909 9.883972-17.449585 14.952179-2.138901 1.887695-4.348236 2.773895-7.200135 2.730011-7.750351-.119293-15.503753-.040924-23.142608-.040924-.555939-3.047943.970718-4.587341 1.916229-6.254333 7.805801-13.762024 15.75853-27.441193 23.487396-41.245881 1.662262-2.968994 3.584641-4.404205 7.080689-4.228973 4.985351.249817 9.992706.060486 15.490509.05835z"/><path d="m246.146011 170.64389c-.813873-1.69339-1.558838-3.01477-1.977813-4.432479-1.621476-5.486878.224044-12.496903 3.858215-15.039063 4.733261-3.310989 13.367233-3.186127 17.915848.259079 4.196624 3.178619 5.390869 11.259018 2.584106 17.48468-2.245392 4.980515-8.727905 7.537445-15.422073 5.954407-2.596466-.614029-5.085297-1.577988-6.958283-4.226624z"/><path d="m128.388245 273.855621c2.512848-7.589599 8.296356-10.585846 16.718673-8.981079 6.505829 1.239563 9.921524 6.777161 9.149964 14.834046-.708817 7.401367-4.825913 11.065857-12.570908 11.188964-10.014648.159211-15.052559-6.085388-13.297729-17.041931z"/><path d="m201.956238 392.798462c-2.054718-3.457031-2.567688-6.858276-2.182877-10.397095.771805-7.097687 4.959656-11.032196 12.081192-11.450226 7.611862-.446808 12.405243 2.902375 13.982208 9.769501 1.578965 6.875824-1.285064 13.67096-7.226593 15.624664-5.881042 1.933808-11.786956 2.073548-16.65393-3.546844z"/><path d="m255.307068 406.582245c-8.486481-1.130951-12.017975-5.716675-11.605164-14.61377.348679-7.515167 4.61435-11.491851 12.6969-11.523834 4.733459-.018738 9.587799.404755 11.943725 5.402863 2.635498 5.591369 2.583527 11.289154-1.023437 16.540619-2.805298 4.084289-7.252533 4.166412-12.012024 4.194122z"/><path d="m385.314392 282.880493c-3.676239 7.681-12.83963 10.443421-19.883636 6.362518-5.849518-3.388885-7.697937-13.388244-3.619477-19.580139 2.870514-4.358001 10.042908-6.334076 16.275818-4.484222 5.154755 1.529877 8.274262 6.438995 8.062409 12.901703-.04831 1.474823-.486847 2.936859-.835114 4.80014z"/><path d="m291.082397 393.908234c-2.538177-3.326905-3.593383-6.723145-3.334899-10.527802.417755-6.148895 3.728363-10.516418 8.925079-11.726715 7.118896-1.65805 12.836334.041748 15.498627 4.607666 3.217315 5.517761 2.71405 13.701538-1.091736 17.752716-4.210999 4.482636-13.006409 4.564179-19.997071-.105865z"/><path d="m304.527771 157.789124c7.163208 2.244613 9.925262 6.222991 9.752899 13.478027-.149505 6.293213-2.918457 10.494369-7.914123 12.007553-6.382691 1.933319-13.431885.114243-16.345734-4.218079-3.215057-4.780166-2.928314-13.10736.732483-17.430572 3.557159-4.200775 8.44342-4.142563 13.774475-3.836929z"/><path d="m184.960785 186.050415c4.012543 5.736557 4.54396 13.528061 1.495575 18.107788-2.714707 4.0784-8.676376 5.966477-14.818039 4.692856-6.097611-1.264481-9.21695-5.080444-9.536118-11.665756-.345474-7.12764 2.879395-12.195084 8.884812-13.805405 4.913284-1.317459 9.548355-.799911 13.97377 2.670517z"/><path d="m154.366791 220.94075c5.973541 1.622543 8.61351 5.432724 8.94754 11.030747.311935 5.22792-.425446 10.271637-5.322449 13.135223-5.103561 2.984405-10.616577 2.680481-15.714904-.278107-4.471131-2.594604-6.347382-9.445389-4.667466-15.670868 1.501816-5.56549 4.751953-8.137603 10.853424-8.442398 1.822922-.091049 3.658921.07927 5.903855.225403z"/><path d="m162.12146 360.830078c1.390778-11.218201 4.483963-14.307617 13.744781-14.164642 9.018006.139252 13.183243 5.258453 12.453156 15.305267-.539169 7.419617-6.364182 11.911682-14.328506 11.049744-7.389618-.799744-10.188904-3.585907-11.869431-12.190369z"/><path d="m199.848389 173.503265c-.307236-10.761337 3.44931-15.618499 11.855026-15.832122 8.980713-.228226 13.418106 3.344482 14.430862 11.61882.882523 7.210281-2.804596 12.727249-9.477081 14.180389-8.965439 1.9525-13.947845-.888016-16.808807-9.967087z"/><path d="m326.21228 201.132675c-.284637-2.045532-.5336-3.694-.535156-5.342682-.007935-8.369415 4.463562-12.879821 12.867554-13.064605 8.385833-.184403 12.770569 4.140258 12.991791 12.813751.194244 7.615524-2.503449 11.791458-8.561249 13.252609-7.358979 1.775009-13.514984-.91597-16.76294-7.659073z"/><path d="m370.69989 221.824036c6.693848 4.643325 8.250275 14.095428 3.711762 20.438812-3.675141 5.136658-13.45105 6.511856-18.998017 2.370056-5.052154-3.772339-5.335815-9.350571-4.444641-14.935867.817963-5.126404 4.398682-8.183884 10.032318-8.862046 3.116364-.375152 6.315308-.539764 9.698578.989045z"/><path d="m342.430939 346.857239c7.248169 2.44873 9.307098 5.684845 9.131744 13.761322-.142548 6.564667-2.682587 10.304474-7.955994 11.713959-6.428375 1.71817-13.10379-.035584-15.870117-4.169465-3.093109-4.622131-2.89978-13.446258.497376-17.445159 3.68753-4.340699 8.703491-4.294526 14.196991-3.860657z"/><path d="m363.070129 334.532166c-7.580719-.766114-10.563873-3.02414-12.041778-8.831391-1.374817-5.40213.412384-12.165863 3.87326-14.658325 4.26413-3.070923 12.8638-3.243134 17.07013-.341766 4.301178 2.966827 6.03775 9.449859 4.229919 15.791259-1.541778 5.408142-4.923889 7.547425-13.131531 8.040223z"/><path d="m160.515579 312.626831c2.251435 3.1362 2.892319 6.322754 2.828797 9.736603-.144577 7.77124-4.882752 12.185242-13.197968 12.218323-8.305832.03302-13.188599-4.672425-13.263504-12.7818-.074768-8.096954 4.487564-12.874389 12.42067-13.136474 4.135421-.136597 7.970474.441253 11.212005 3.963348z"/></svg>