<svg enable-background="new 0 0 496 512" viewBox="0 0 496 512" xmlns="http://www.w3.org/2000/svg"><path d="m324.976501 506.198669c-48.12915.002289-95.763015.006501-143.396881.004425-6.86119-.000274-6.868316-.014251-6.869583-6.993438-.001327-7.328247.131745-14.65918-.031479-21.983612-.077758-3.489563 1.286042-4.617401 4.696701-4.612732 51.297898.070343 102.595932.071777 153.893845.001648 3.443756-.0047 4.795776 1.265442 4.757874 4.656524-.085572 7.660096-.162629 15.327607.085845 22.981385.148346 4.569275-1.597595 6.451782-6.14923 5.98825-2.143158-.218292-4.32663-.040771-6.987092-.04245z"/><path d="m258.642395 148.819382c10.318024 1.20317 12.186279 9.011947 11.202057 15.372558-1.268982 8.201111-6.108887 11.654404-14.807221 10.962265-6.632919-.527786-10.831436-4.827087-11.326583-11.598495-.591202-8.085068 2.281326-12.688889 9.095855-14.284104 1.746338-.408798 3.60344-.344436 5.835892-.452224z"/><path d="m149.247498 266.424011c5.517318 5.183411 6.67514 13.83252 2.957138 19.740265-2.721726 4.324677-11.178055 6.160187-17.25467 3.7453-4.662017-1.852691-7.74617-7.747467-7.121032-13.610382.710403-6.662719 4.284179-10.734527 10.394912-11.473968 3.632233-.439514 7.299775-.436218 11.023652 1.598785z"/><path d="m224.579834 391.208862c-4.680542 6.510071-14.695938 8.248261-20.454742 3.864777-5.218293-3.972077-6.028367-14.236359-1.574433-19.949371 3.132004-4.017395 10.312454-5.335938 16.561844-3.041291 4.595474 1.687409 7.478806 6.619629 7.030502 12.499817-.161255 2.115174-.897323 4.186524-1.563171 6.626068z"/><path d="m290.165466 162.399445c5.132477-5.130448 14.30835-6.287003 19.356079-2.740479 4.687134 3.293182 6.235627 11.997971 3.243866 18.235123-2.600647 5.421722-9.391723 7.54924-16.979583 5.319305-5.475739-1.609238-9.012635-7.897842-7.86615-14.391159.368316-2.085968 1.335785-4.066131 2.245788-6.42279z"/><path d="m384.980652 271.500732c.476532 1.834687.933868 3.276612 1.111969 4.752259.971771 8.053405-3.641388 13.973266-11.291626 14.582702-8.920593.710602-14.658417-3.830505-15.085632-11.93927-.468201-8.88684 4.165313-13.995208 12.786315-14.24057 5.363709-.152649 9.92453 1.0607 12.478974 6.844879z"/><path d="m303.674683 397.292908c-13.054322.054382-19.374207-8.597351-14.567017-19.319611 2.161041-4.820129 6.636261-7.289886 12.69104-7.003967 6.474945.305786 9.817017 2.700958 11.596375 8.310821 2.900909 9.145844-.570771 15.875061-9.720398 18.012757z"/><path d="m269.06604 387.396179c.405823 1.677094.761688 2.962128.947327 4.271301.863586 6.091065-2.217133 12.182862-7.06192 14.060395-5.925904 2.296509-13.807938.604278-16.824707-3.612244-3.560013-4.97586-3.29802-13.944824.531677-18.198639 5.32991-5.920227 18.10086-4.144226 22.407623 3.479187z"/><path d="m201.594788 162.922974c4.966735-5.69954 13.922515-6.991639 19.601989-3.149292 4.921448 3.329544 6.526337 11.988907 3.369645 18.181335-2.73993 5.374878-10.547638 7.633057-17.671402 5.110993-5.235978-1.85373-8.368073-8.777009-6.942765-15.555863.304947-1.450363.958237-2.827499 1.642533-4.587173z"/><path d="m162.092743 196.905563c1.738693-12.131805 7.919861-16.472946 18.387344-13.33107 5.063187 1.519715 7.669236 5.283677 7.858322 11.349884.229203 7.353333-2.014221 11.501038-7.218978 13.346619-9.739441 3.453552-17.207169-.850662-19.026688-11.365433z"/><path d="m161.12674 225.10318c1.683761 2.830688 2.254974 5.516388 2.234283 8.414596-.0466 6.531342-2.728928 11.136261-7.555344 12.683472-6.58728 2.11171-13.54245.249054-16.562133-4.435531-3.203782-4.970231-2.955842-13.180665.524017-17.352021 4.324417-5.183807 15.006409-5.007049 21.359177.689484z"/><path d="m183.904175 348.850037c4.810104 5.241088 5.889725 13.266021 2.812057 18.724395-2.527511 4.482636-8.733886 6.418366-15.559936 4.85315-5.874344-1.347046-9.268936-6.066315-9.057404-12.59195.246079-7.591064 3.585953-12.160492 9.873001-12.990875 3.974915-.524963 8.003937-.533905 11.932282 2.00528z"/><path d="m339.840973 182.740417c5.912079.506363 10.234405 2.864457 11.210693 8.584427.94812 5.554596 1.562134 11.421387-3.762451 15.561844-3.946106 3.068527-11.972076 3.141892-16.586029.232498-5.380707-3.392898-5.448639-8.80046-4.913208-14.182968.465637-4.681061 3.026337-8.048141 7.752472-9.296524 1.903809-.502868 3.909119-.621582 6.298523-.899277z"/><path d="m359.718994 221.062103c1.568695-.214523 2.72525-.364959 3.883454-.378738 6.775421-.080628 10.757507 2.189148 12.41333 7.031799 2.155029 6.302628.468017 13.672333-3.867524 16.895081-4.148193 3.083496-12.850067 3.157623-16.965179-.119431-4.566528-3.63652-5.002655-8.817611-4.343536-14.073913.61795-4.928025 3.480224-8.138443 8.879455-9.354798z"/><path d="m326.421997 354.016357c3.999359-7.299102 13.763458-9.803527 20.390595-5.57135 5.025146 3.209168 6.708923 14.735932 2.630004 19.971527-4.030395 5.173218-9.65512 5.237061-15.439575 3.863648-4.936126-1.171997-7.866882-4.671326-8.25827-9.980194-.193665-2.627411-.438934-5.320282.677246-8.283631z"/><path d="m350.694336 320.237518c1.794128-9.319275 6.834717-12.760467 16.132629-11.438781 6.781861.964019 10.899597 6.73645 10.133637 14.20578-.812409 7.922271-5.538635 11.873748-13.882843 11.607147-8.526337-.272431-12.239502-4.447693-12.383423-14.374146z"/><path d="m163.255447 324.556519c-3.078476 9.19934-11.00325 12.676788-19.530792 8.978271-6.353348-2.755524-8.753097-11.747284-5.077469-19.024994 2.390518-4.733154 8.301026-6.933868 15.218674-5.666504 5.124939.938935 8.602997 4.709168 9.333313 10.309784.213303 1.635773.073395 3.317597.056274 5.403443z"/></svg>