<svg enable-background="new 0 0 968 548" viewBox="0 0 968 548" xmlns="http://www.w3.org/2000/svg"><path d="m737 549c-245.666656 0-490.833328 0-736 0 0-182.666656 0-365.333328 0-548h968v548c-77.166687 0-154.333313 0-232 0m-235.701202-484.297379c20.041107-13.18658 43.91922-9.667404 60.62796 9.254967 11.703247 13.253761 17.33136 29.43795 21.873657 46.029167 8.625855 31.507019 12.352356 63.882553 12.720825 96.328766.768067 67.63678-.020508 135.291168-.157348 202.938324-.02826 13.968353-.004029 27.936859-.004029 42.094452 14.653443-3.44519 30.305908-7.125275 45.812683-10.771118.155335-.670563.289246-.989166.295044-1.31015.905274-49.984925 2.126343-99.966919 2.60437-149.955994.460633-48.155838-.072998-96.291092-8.024231-144.019043-4.86798-29.220299-11.834228-57.737045-26.746887-83.663681-7.696289-13.380558-17.37207-25.215019-30.287353-34.042038-15.268372-10.435226-32.211853-15.348806-50.664185-15.903398-23.220459-.697899-43.643036 6.125494-60.891846 21.757295-18.418548 16.691822-29.268493 38.140991-37.285491 61.160935-12.718415 36.51976-18.05777 74.432998-18.65915 112.864471-1.439575 91.998749-.314422 183.978241 4.788575 275.874207.774078 13.940429 1.828796 27.865295 2.779327 42.182922 16.25-3.710083 32.065918-7.321106 47.770782-10.906738 0-2.490662.102082-4.481446-.015258-6.459168-1.865326-31.432525-4.43097-62.840149-5.514466-94.299041-2.782623-80.790619-3.050415-161.610138-.198364-242.409256.847321-24.003968 4.081146-47.792695 11.209473-70.828942 5.364197-17.335274 12.606079-33.72377 27.965912-45.916939m-369.330307 432.816452c2.573303 3.468873 4.737213 7.356843 7.787887 10.337067 17.019699 16.626892 37.837525 25.087891 61.293167 27.072266 31.360627 2.653198 60.942459-3.735108 88.603928-18.730469 7.500061-4.065857 14.749695-8.593781 22.120453-12.913269v31.565735c.361053.060119.727539.242798.996918.148437 14.72171-5.159546 29.454528-10.289611 44.108642-15.635254 1.036774-.378173 2.097076-2.348693 2.123718-3.600524 1.084046-50.95929 3.333588-101.969605-3.124847-152.74762-3.558991-27.981934-9.430023-55.486267-22.54657-80.814911-8.435181-16.288727-19.248993-30.590988-35.116241-40.706238-21.723084-13.848251-46.007996-17.124527-70.812958-17.075409-26.683289.052841-50.006683 10.532166-70.178894 27.45781-11.528382 9.672989-21.878647 20.750076-32.77655 31.211502-.588761-1.561127-1.185425-4.399628-2.619599-6.720642-5.213539-8.437409-9.437378-17.99942-16.353531-24.767487-15.57328-15.239853-35.13536-15.8909-54.540546-9.215286-17.24408 5.932129-29.789538 19.127151-42.2264 31.955887-.633575.653534-1.030674 2.161224-.738355 2.98883 2.378341 6.733399 4.947407 13.399445 7.693372 20.71167 1.359411-1.885772 2.222107-3.068359 3.070274-4.261261 9.143246-12.859558 21.28829-19.66214 37.379538-18.903351 7.66867.361573 13.161426 3.752625 17.05096 10.321564 5.28669 8.928528 6.365135 18.828186 6.960381 28.818421.579765 9.730194.803581 19.481628 1.192169 29.441467 14.956833-1.012634 29.407074-2.06955 43.870247-2.901673 2.778862-.159851 3.905471-1.271301 4.862549-3.761688 2.858016-7.436706 5.596405-14.977112 9.205932-22.056671 11.70105-22.94986 29.175079-39.764465 53.471665-49.172089 17.756073-6.875152 35.786148-6.176422 54.073211-2.859558 19.319794 3.504181 32.800598 14.758393 42.049622 31.445282 8.863891 15.992066 12.54602 33.655213 15.564758 50.510224-19.394836.759063-38.707245 1.06662-57.951782 2.373382-28.758301 1.95279-56.017563 9.383728-81.011505 24.234436-47.128357 28.00232-57.899094 81.283997-33.481613 126.24942m764.143081 33.900055c-.28894 2.527527.054261 4.408387 3.378907 3.594178 13.886352-3.400696 27.794433-6.715393 41.641784-10.267273 1.12439-.288452 2.487061-2.046265 2.650086-3.266724.682861-5.111084 1.16809-10.270599 1.334228-15.425018.885559-27.477509 2.188355-54.955719 2.347412-82.439453.306458-52.949952 2.837708-105.993561-3.758911-158.753083-1.325989-10.605392-4.685425-21.023635-7.890198-31.283645-.890991-2.852539-4.18219-5.874298-7.079956-7.005448-8.058105-3.145507-16.395813-3.169265-23.900879 1.904679-4.518982 3.05516-9.012451 6.316726-12.887756 10.126098-16.591125 16.308655-29.930542 35.245896-42.547974 54.633957-31.221252 47.974671-58.524841 98.193177-84.46521 149.171387-2.85321 5.607086-5.677124 11.229065-8.514648 16.844147-.41333-.102722-.826721-.205414-1.240051-.308106 0-2.087494-.070618-4.177704.010254-6.262054 2.481994-63.978028 2.645996-127.920838-3.470764-191.733765-1.029725-10.742004-3.085877-21.387863-4.754883-32.064529-.359192-2.298127-.721924-4.676026-4.302491-3.848893-13.120605 3.030991-26.29541 5.829239-39.392578 8.955094-1.07019.255417-2.504211 2.390167-2.409485 3.539627.436585 5.299347 1.738587 10.537262 2.038697 15.83638 1.902221 33.58696 5.028808 67.181778 5.089172 100.778763.105286 58.627319-1.717468 117.258026-2.710449 175.887695-.028931 1.710266.186096 3.424683.312622 5.564758 12.85022-2.846618 24.903259-6.046264 37.152893-8.032898 7.424194-1.203979 10.354614-5.266296 13.487061-11.569641 17.290405-34.792907 34.699157-69.549316 53.108093-103.758178 20.639038-38.352784 42.455688-76.073334 68.163635-111.3526 5.321594-7.302887 11.246643-14.166016 16.893555-21.231812.734497.200287 1.468994.400604 2.203552.600922 5.226624 83.398529 3.893677 166.824401-.485718 251.165435m-56.521118-350.32965c23.825317-21.888154 46.611145-44.757111 65.863587-70.873856 1.830871-2.483635 2.23645-6.017876 3.60852-9.934448-3.234619 0-4.874207-.000008-6.513794 0-16.490356.000053-32.982178.115097-49.470032-.089028-3.65216-.045219-5.569885 1.074448-7.315429 4.33075-14.254456 26.591331-30.578186 51.872993-49.072144 75.716255-2.542053 3.27739-2.935486 6.386612-1.893494 10.567032 6.580018 0 13.10431-.594315 19.476746.136337 10.088318 1.156708 18.202515-1.825683 25.31604-9.853042z" fill="#fefefe"/><path d="m501.027527 64.939972c-15.088562 11.955818-22.330444 28.344314-27.694641 45.679588-7.128327 23.036247-10.362152 46.824974-11.209473 70.828942-2.852051 80.799118-2.584259 161.618637.198364 242.409256 1.083496 31.458892 3.64914 62.866516 5.514466 94.299041.11734 1.977722.015258 3.968506.015258 6.459168-15.704864 3.585632-31.520782 7.196655-47.770782 10.906738-.950531-14.317627-2.005249-28.242493-2.779327-42.182922-5.102997-91.895966-6.22815-183.875458-4.788575-275.874207.60138-38.431473 5.940735-76.344711 18.65915-112.864471 8.016998-23.019944 18.866943-44.469113 37.285491-61.160935 17.24881-15.631801 37.671387-22.455194 60.891846-21.757295 18.452332.554592 35.395813 5.468172 50.664185 15.903398 12.915283 8.827019 22.591064 20.66148 30.287353 34.042038 14.912659 25.926636 21.878907 54.443382 26.746887 83.663681 7.951233 47.727951 8.484864 95.863205 8.024231 144.019043-.478027 49.989075-1.699096 99.971069-2.60437 149.955994-.005798.320984-.139709.639587-.295044 1.31015-15.506775 3.645843-31.15924 7.325928-45.812683 10.771118 0-14.157593-.024231-28.126099.004029-42.094452.13684-67.647156.925415-135.301544.157348-202.938324-.368469-32.446213-4.09497-64.821747-12.720825-96.328766-4.542297-16.591217-10.17041-32.775406-21.873657-46.029167-16.70874-18.922371-40.586853-22.441547-60.899231-9.017616z" fill="#010101"/><path d="m131.799438 497.194458c-24.248428-44.640808-13.477691-97.922485 33.650666-125.924805 24.993942-14.850708 52.253204-22.281646 81.011505-24.234436 19.244537-1.306762 38.556946-1.614319 57.951782-2.373382-3.018738-16.855011-6.700867-34.518158-15.564758-50.510224-9.249024-16.686889-22.729828-27.941101-42.049622-31.445282-18.287063-3.316864-36.317138-4.015594-54.073211 2.859558-24.296586 9.407624-41.770615 26.222229-53.471665 49.172089-3.609527 7.079559-6.347916 14.619965-9.205932 22.056671-.957078 2.490387-2.083687 3.601837-4.862549 3.761688-14.463173.832123-28.913414 1.889039-43.870247 2.901673-.388588-9.959839-.612404-19.711273-1.192169-29.441467-.595246-9.990235-1.673691-19.889893-6.960381-28.818421-3.889534-6.568939-9.38229-9.959991-17.05096-10.321564-16.091248-.758789-28.236292 6.043793-37.379538 18.903351-.848167 1.192902-1.710863 2.375489-3.070274 4.261261-2.745965-7.312225-5.315031-13.978271-7.693372-20.71167-.292319-.827606.10478-2.335296.738355-2.98883 12.436862-12.828736 24.98232-26.023758 42.2264-31.955887 19.405186-6.675614 38.967266-6.024567 54.540546 9.215286 6.916153 6.768067 11.139992 16.330078 16.353531 24.767487 1.434174 2.321014 2.030838 5.159515 2.619599 6.720642 10.897903-10.461426 21.248168-21.538513 32.77655-31.211502 20.172211-16.925644 43.495605-27.404969 70.178894-27.45781 24.804962-.049118 49.089874 3.227158 70.812958 17.075409 15.867248 10.11525 26.68106 24.417511 35.116241 40.706238 13.116547 25.328644 18.987579 52.832977 22.54657 80.814911 6.458435 50.778015 4.208893 101.78833 3.124847 152.74762-.026642 1.251831-1.086944 3.222351-2.123718 3.600524-14.654114 5.345643-29.386932 10.475708-44.108642 15.635254-.269379.094361-.635865-.088318-.996918-.148437 0-10.467224 0-20.934937 0-31.565735-7.370758 4.319488-14.620392 8.847412-22.120453 12.913269-27.661469 14.995361-57.243301 21.383667-88.603928 18.730469-23.455642-1.984375-44.273468-10.445374-61.293167-27.072266-3.050674-2.980224-5.214584-6.868194-7.95694-10.661682m170.718567-20.13147c1.15918-.945739 2.233673-2.027008 3.492463-2.813232 4.831237-3.017365 6.470611-7.089569 6.141387-12.9151-.591369-10.465058-.004486-20.991089-.355834-31.476685-.57367-17.121765-1.50528-34.231506-2.307984-51.831207-9.688843-.48584-18.809235-1.31247-27.930908-1.326904-21.706543-.034363-43.281159 1.313873-63.814041 9.348846-26.150711 10.233337-44.21138 27.059937-47.157669 56.798096-2.942002 29.695099 16.617416 54.2807 46.401138 56.237274 30.495987 2.003418 59.226273-4.192047 85.531448-22.021088z" fill="#020202"/><path d="m896.137207 530.967773c4.35376-83.889679 5.686707-167.315551.460083-250.71408-.734558-.200318-1.469055-.400635-2.203552-.600922-5.646912 7.065796-11.571961 13.928925-16.893555 21.231812-25.707947 35.279266-47.524597 72.999816-68.163635 111.3526-18.408936 34.208862-35.817688 68.965271-53.108093 103.758178-3.132447 6.303345-6.062867 10.365662-13.487061 11.569641-12.249634 1.986634-24.302673 5.18628-37.152893 8.032898-.126526-2.140075-.341553-3.854492-.312622-5.564758.992981-58.629669 2.815735-117.260376 2.710449-175.887695-.060364-33.596985-3.186951-67.191803-5.089172-100.778763-.30011-5.299118-1.602112-10.537033-2.038697-15.83638-.094726-1.14946 1.339295-3.28421 2.409485-3.539627 13.097168-3.125855 26.271973-5.924103 39.392578-8.955094 3.580567-.827133 3.943299 1.550766 4.302491 3.848893 1.669006 10.676666 3.725158 21.322525 4.754883 32.064529 6.11676 63.812927 5.952758 127.755737 3.470764 191.733765-.080872 2.08435-.010254 4.17456-.010254 6.262054.41333.102692.826721.205384 1.240051.308106 2.837524-5.615082 5.661438-11.237061 8.514648-16.844147 25.940369-50.97821 53.243958-101.196716 84.46521-149.171387 12.617432-19.388061 25.956849-38.325302 42.547974-54.633957 3.875305-3.809372 8.368774-7.070938 12.887756-10.126098 7.505066-5.073944 15.842774-5.050186 23.900879-1.904679 2.897766 1.13115 6.188965 4.152909 7.079956 7.005448 3.204773 10.26001 6.564209 20.678253 7.890198 31.283645 6.596619 52.759522 4.065369 105.803131 3.758911 158.753083-.159057 27.483734-1.461853 54.961944-2.347412 82.439453-.166138 5.154419-.651367 10.313934-1.334228 15.425018-.163025 1.220459-1.525696 2.978272-2.650086 3.266724-13.847351 3.55188-27.755432 6.866577-41.641784 10.267273-3.324646.814209-3.667847-1.066651-3.353272-4.045533z" fill="#020202"/><path d="m839.332642 181.33139c-6.855713 7.785447-14.96991 10.767838-25.058228 9.61113-6.372436-.730652-12.896728-.136337-19.476746-.136337-1.041992-4.18042-.648559-7.289642 1.893494-10.567032 18.493958-23.843262 34.817688-49.124924 49.072144-75.716255 1.745544-3.256302 3.663269-4.375969 7.315429-4.33075 16.487854.204125 32.979676.089081 49.470032.089028 1.639587-.000008 3.279175 0 6.513794 0-1.37207 3.916572-1.777649 7.450813-3.60852 9.934448-19.252442 26.116745-42.03827 48.985702-66.121399 71.115768z" fill="#c67135"/><path d="m302.214539 477.252533c-26.001709 17.639496-54.731995 23.834961-85.227982 21.831543-29.783722-1.956574-49.34314-26.542175-46.401138-56.237274 2.946289-29.738159 21.006958-46.564759 47.157669-56.798096 20.532882-8.034973 42.107498-9.383209 63.814041-9.348846 9.121673.014434 18.242065.841064 27.930908 1.326904.802704 17.599701 1.734314 34.709442 2.307984 51.831207.351348 10.485596-.235535 21.011627.355834 31.476685.329224 5.825531-1.31015 9.897735-6.141387 12.9151-1.25879.786224-2.333283 1.867493-3.795929 3.002777z" fill="#fefefe"/></svg>