<svg enable-background="new 0 0 994 682" viewBox="0 0 994 682" xmlns="http://www.w3.org/2000/svg"><path d="m1 484c0-161.333344 0-322.166672 0-483h994v1682c-331.333313 0-662.666656 0-994 0 0-399.5 0-799 0-1199m372.996704-120.150085c-.307892-2.079316-.939087-4.168946-.873169-6.236329.595459-18.676635.193085-37.264251-3.096527-55.746337-6.415832-36.045899-22.013397-67.121308-49.219055-91.981736-20.411987-18.652404-44.440582-30.357696-71.420899-35.747986-12.600967-2.517517-25.454879-3.768981-38.580459-5.649627-.637924 17.427063-1.227387 33.530624-1.833267 50.082321 2.669204.180618 4.95784.326218 7.24501.491699 24.401352 1.765503 48.226578 5.898102 70.314285 17.148316 18.674103 9.511566 34.008118 22.690002 44.400635 41.094146 14.600586 25.856201 17.674377 53.792664 13.786987 82.674408-2.243408 16.667389-8.674072 31.775849-22.995971 41.623078-21.010224 14.445861-44.32782 13.947204-67.613297 7.272949-17.878937-5.124573-31.24263-17.444428-42.909271-31.433502-12.583954-15.08899-24.652588-30.6073-37.209229-45.719605-19.112442-23.002411-42.810119-36.938934-73.610916-37.102966-22.454506-.119537-42.218406 5.99823-58.463234 22.181213-16.207307 16.1456-23.887016 36.094696-26.861344 58.238068-2.667214 19.856933-.782998 39.602142 2.476554 59.184051 2.279964 13.696991 5.575565 27.224976 8.465492 41.057892 19.774138-1.047943 38.489214-2.039734 56.771189-3.008606-4.923058-13.369049-10.210983-26.132995-14.331001-39.263427-7.59087-24.191956-11.257267-48.960053-8.408455-74.396302 1.1889-10.615356 3.918655-20.753021 11.43666-28.700439 12.070366-12.759766 35.251687-12.430023 49.541512-.082611 11.424049 9.871216 19.601234 22.135101 27.156776 34.91748 10.75084 18.188111 20.957673 36.710755 32.138825 54.627472 9.29451 14.893616 20.821915 28.138947 34.687973 39.047882 17.727478 13.946869 38.003937 20.747711 60.616745 20.985474 32.35672.34021 57.927338-12.194641 75.136871-39.863434 5.21994-8.392456 8.562287-17.947296 12.877075-26.915649.485718-1.009522 1.706055-1.665619 2.747956-1.856171 5.791473 8.131561 11.166992 16.601135 17.450439 24.332886 21.000763 25.8414 46.549683 43.587982 81.354218 44.251465 17.907745.341339 34.7836-3.178162 49.762481-13.384156 25.393738-17.302307 37.984864-42.736999 43.867981-71.822662 4.980652-24.623932 5.737366-49.546539 2.306275-74.550354-4.279907-31.189026-15.87439-58.964417-37.507996-82.199722-1.14508-1.229859-2.224426-2.52092-3.688293-4.186142h92.819763c-7.687195 13.143295-9.561951 27.017822-8.816528 41.606781 1.18872 23.262695 17.829467 46.15216 39.622741 54.292511 15.049622 5.62146 30.439637 6.921692 46.197083 4.785797 12.925293-1.752045 24.82196-6.140045 35.018555-14.568726 17.582092-14.533813 24.508361-33.876221 25.134643-55.973266.634766-22.399445-6.871033-41.603119-23.846985-56.44751-12.210144-10.676956-26.914795-17.049042-42.87677-18.736115-19.995666-2.113388-40.159912-3.488327-60.260315-3.60202-72.81311-.411911-145.629913-.162491-218.445343-.162628-1.7695 0-3.538971.000015-5.710632.000015-1.416992 16.438324-2.781189 32.26416-4.189606 48.603089 2.153473 0 3.63443-.120789 5.090485.018768 13.732452 1.316192 27.600738 1.864044 41.159881 4.20018 25.263947 4.352783 47.931183 15.016235 65.009613 34.406738 23.245026 26.391907 30.60849 57.813843 24.286591 92.188934-4.850708 26.37555-26.96521 45.571686-53.577423 48.368531-34.713409 3.648193-63.893311-7.323944-88.00177-32.285462-4.842987-5.014373-9.479187-10.228454-14.533539-16.058654m452.778259-186.078003c-3.528076-2.379288-7.056152-4.758561-10.782043-7.271256-10.581909 14.834381-20.850708 29.229813-31.213623 43.757172 3.842834 2.367676 7.085327 4.39769 10.358337 6.377197 40.559937 24.530487 76.255799 54.528397 105.643738 92.004654 25.389832 32.377838 41.683838 68.745605 49.604675 108.87442 7.05011 35.717682 8.183777 71.784607 3.31897 107.888062-3.421875 25.395202-11.072571 49.28894-27.454712 69.695495-23.8974 29.767945-69.164551 29.261414-92.195312-1.09375-10.656128-14.045105-17.917786-29.918213-25.031555-45.905823-5.75116-12.925292-14.647584-23.45642-26.490113-31.14154-18.872986-12.247376-39.603454-14.768646-61.326782-10.245392-26.317993 5.47995-43.546143 21.648529-53.290588 46.248505-6.109681 15.423889-6.646851 31.527405-4.655945 47.713562 1.710998 13.909424 6.276611 26.937073 15.202209 37.97406 16.050659 19.847778 37.373108 27.921814 62.467713 27.519348 21.943176-.35199 41.327453-6.944702 56.343994-23.447815 5.045105-5.544556 8.77301-12.287781 13.23407-18.670593.537414.873474 1.240478 1.933532 1.862609 3.039123 11.890015 21.128968 30.11139 33.378907 53.72815 37.517884 18.975952 3.325805 37.463074 2.296753 54.554382-8.099244 16.808716-10.224243 28.02417-25.309387 37.111634-42.221191 17.640319-32.828857 24.409606-68.431396 26.113769-105.207153 1.337647-28.864991-.463379-57.574189-4.834228-86.15857-6.78357-44.363311-20.848511-86.26538-42.049988-125.760131-26.698487-49.734711-63.011292-90.966187-110.219361-123.387024m-665.346923-5.877579c47.331375-33.891602 90.981109-72.132767 132.567443-111.510754-9.83078-9.841793-19.334442-19.356098-28.692535-28.724682-48.287598 49.959412-97.951202 99.115364-153.342468 142.782601-13.839936-25.789444-23.55848-52.391625-32.511467-79.462326-20.988102 1.16616-41.693249 2.316604-62.727169 3.485313.294553 1.104721.365219 1.754013.630653 2.310379 16.945526 35.519448 39.96909 66.329445 70.57999 91.301674 5.975815 4.875031 12.126938 7.700592 20.332146 7.382172 7.600762-.294983 14.26976-1.580643 20.553375-5.895691 10.560761-7.252213 21.332413-14.197266 32.610032-21.668686z" fill="#fff"/><path d="m374.319489 364.558136c4.731567 5.121979 9.367767 10.33606 14.210754 15.350433 24.108459 24.961518 53.288361 35.933655 88.00177 32.285462 26.612213-2.796845 48.726715-21.992981 53.577423-48.368531 6.321899-34.375091-1.041565-65.797027-24.286591-92.188934-17.07843-19.390503-39.745666-30.053955-65.009613-34.406738-13.559143-2.336136-27.427429-2.883988-41.159881-4.20018-1.456055-.139557-2.937012-.018768-5.090485-.018768 1.408417-16.338929 2.772614-32.164765 4.189606-48.603089 2.171661 0 3.941132-.000015 5.710632-.000015 72.81543.000137 145.632233-.249283 218.445343.162628 20.100403.113693 40.264649 1.488632 60.260315 3.60202 15.961975 1.687073 30.666626 8.059159 42.87677 18.736115 16.975952 14.844391 24.481751 34.048065 23.846985 56.44751-.626282 22.097045-7.552551 41.439453-25.134643 55.973266-10.196595 8.428681-22.093262 12.816681-35.018555 14.568726-15.757446 2.135895-31.147461.835663-46.197083-4.785797-21.793274-8.140351-38.434021-31.029816-39.622741-54.292511-.745423-14.588959 1.129333-28.463486 8.816528-41.606781-31.004089 0-61.431091 0-92.819763 0 1.463867 1.665222 2.543213 2.956283 3.688293 4.186142 21.633606 23.235305 33.228089 51.010696 37.507996 82.199722 3.431091 25.003815 2.674377 49.926422-2.306275 74.550354-5.883117 29.085663-18.474243 54.520355-43.867981 71.822662-14.978881 10.205994-31.854736 13.725495-49.762481 13.384156-34.804535-.663483-60.353455-18.410065-81.354218-44.251465-6.283447-7.731751-11.658966-16.201325-17.271209-24.935273 1.663116-10.545806 3.055023-20.50415 4.669036-30.426391.828797-5.094849 2.054017-10.125214 3.100068-15.184723m276.511505-130.343475c-13.148194 10.441253-16.023072 24.686523-14.60138 40.325653 1.367493 15.042358 8.82605 26.408478 23.072876 31.611328 14.210938 5.189728 28.793762 4.903473 41.188111-5.041107 14.603759-11.717316 15.200927-28.060822 12.029419-44.684693-2.815186-14.756302-12.121399-24.21672-26.882935-27.434829-11.853699-2.584214-23.488342-1.641709-34.806091 5.223648z" fill="#c47034"/><path d="m827.078735 177.966919c46.904297 32.22583 83.217102 73.457306 109.915589 123.192017 21.201477 39.494751 35.266418 81.39682 42.049988 125.760131 4.370849 28.584381 6.171875 57.293579 4.834228 86.15857-1.704163 36.775757-8.47345 72.378296-26.113769 105.207153-9.087464 16.911804-20.302918 31.996948-37.111634 42.221191-17.091308 10.395997-35.57843 11.425049-54.554382 8.099244-23.61676-4.138977-41.838135-16.388916-53.72815-37.517884-.622131-1.105591-1.325195-2.165649-1.862609-3.039123-4.46106 6.382812-8.188965 13.126037-13.23407 18.670593-15.016541 16.503113-34.400818 23.095825-56.343994 23.447815-25.094605.402466-46.417054-7.67157-62.467713-27.519348-8.925598-11.036987-13.491211-24.064636-15.202209-37.97406-1.990906-16.186157-1.453736-32.289673 4.655945-47.713562 9.744445-24.599976 26.972595-40.768555 53.290588-46.248505 21.723328-4.523254 42.453796-2.001984 61.326782 10.245392 11.842529 7.68512 20.738953 18.216248 26.490113 31.14154 7.113769 15.98761 14.375427 31.860718 25.031555 45.905823 23.030761 30.355164 68.297912 30.861695 92.195312 1.09375 16.382141-20.406555 24.032837-44.300293 27.454712-69.695495 4.864807-36.103455 3.73114-72.17038-3.31897-107.888062-7.920837-40.128815-24.214843-76.496582-49.604675-108.87442-29.387939-37.476257-65.083801-67.474167-105.643738-92.004654-3.27301-1.979507-6.515503-4.009521-10.358337-6.377197 10.362915-14.527359 20.631714-28.922791 31.213623-43.757172 3.725891 2.512695 7.253967 4.891968 11.085815 7.466263m-78.205261 442.645264c24.608521-4.55243 36.011658-17.127076 37.046082-40.851868.99237-22.761963-11.19635-40.252197-32.57251-45.16449-15.318298-3.520202-30.224243-2.005249-42.938233 8.520081-10.638 8.806762-14.319702 20.760742-14.789978 34.09906-.652771 18.513489 8.180726 33.470337 24.328736 40.377868 8.975342 3.839295 18.501587 3.721619 28.925903 3.019349z" fill="#020202"/><path d="m374.158081 364.204041c-.884643 5.413604-2.109863 10.443969-2.93866 15.538818-1.614013 9.922241-3.00592 19.880585-4.750152 30.111664-1.140015 1.107666-2.360352 1.763763-2.84607 2.773285-4.314788 8.968353-7.657135 18.523193-12.877075 26.915649-17.209533 27.668793-42.780151 40.203644-75.136871 39.863434-22.612808-.237763-42.889267-7.038605-60.616745-20.985474-13.866058-10.908935-25.393463-24.154266-34.687973-39.047882-11.181152-17.916717-21.387985-36.439361-32.138825-54.627472-7.555542-12.782379-15.732727-25.046264-27.156776-34.91748-14.289825-12.347412-37.471146-12.677155-49.541512.082611-7.518005 7.947418-10.24776 18.085083-11.43666 28.700439-2.848812 25.436249.817585 50.204346 8.408455 74.396302 4.120018 13.130432 9.407943 25.894378 14.331001 39.263427-18.281975.968872-36.997051 1.960663-56.771189 3.008606-2.889927-13.832916-6.185528-27.360901-8.465492-41.057892-3.259552-19.581909-5.143768-39.327118-2.476554-59.184051 2.974328-22.143372 10.654037-42.092468 26.861344-58.238068 16.244828-16.182983 36.008728-22.30075 58.463234-22.181213 30.800797.164032 54.498474 14.100555 73.610916 37.102966 12.556641 15.112305 24.625275 30.630615 37.209229 45.719605 11.666641 13.989074 25.030334 26.308929 42.909271 31.433502 23.285477 6.674255 46.603073 7.172912 67.613297-7.272949 14.321899-9.847229 20.752563-24.955689 22.995971-41.623078 3.88739-28.881744.813599-56.818207-13.786987-82.674408-10.392517-18.404144-25.726532-31.58258-44.400635-41.094146-22.087707-11.250214-45.912933-15.382813-70.314285-17.148316-2.28717-.165481-4.575806-.311081-7.24501-.491699.60588-16.551697 1.195343-32.655258 1.833267-50.082321 13.12558 1.880646 25.979492 3.13211 38.580459 5.649627 26.980317 5.39029 51.008912 17.095582 71.420899 35.747986 27.205658 24.860428 42.803223 55.935837 49.219055 91.981736 3.289612 18.482086 3.691986 37.069702 3.096527 55.746337-.065918 2.067383.565277 4.157013 1.034546 6.590455z" fill="#010101"/><path d="m161.130707 172.092911c-10.980286 7.272842-21.751938 14.217895-32.312699 21.470108-6.283615 4.315048-12.952613 5.600708-20.553375 5.895691-8.205208.31842-14.356331-2.507141-20.332146-7.382172-30.6109-24.972229-53.634464-55.782226-70.57999-91.301674-.265434-.556366-.3361-1.205658-.630653-2.310379 21.03392-1.168709 41.739067-2.319153 62.727169-3.485313 8.952987 27.070701 18.671531 53.672882 32.511467 79.462326 55.391266-43.667237 105.05487-92.823189 153.342468-142.782601 9.358093 9.368584 18.861755 18.882889 28.692535 28.724682-41.586334 39.377987-85.236068 77.619152-132.864776 111.709332z" fill="#020202"/><path d="m651.127441 234.000183c11.021302-6.650879 22.655945-7.593384 34.509644-5.00917 14.761536 3.218109 24.067749 12.678527 26.882935 27.434829 3.171508 16.623871 2.57434 32.967377-12.029419 44.684693-12.394349 9.94458-26.977173 10.230835-41.188111 5.041107-14.246826-5.20285-21.705383-16.56897-23.072876-31.611328-1.421692-15.63913 1.453186-29.8844 14.897827-40.540131z" fill="#fffefe"/><path d="m748.425354 620.645813c-9.976196.66864-19.502441.786316-28.477783-3.052979-16.14801-6.907531-24.981507-21.864379-24.328736-40.377868.470276-13.338318 4.151978-25.292298 14.789978-34.09906 12.71399-10.52533 27.619935-12.040283 42.938233-8.520081 21.37616 4.912293 33.56488 22.402527 32.57251 45.16449-1.034424 23.724792-12.437561 36.299438-37.494202 40.885498z" fill="#fefefe"/></svg>