<svg version="1.1" id="Layer_1" xmlns="http://www.w3.org/2000/svg" xmlns:xlink="http://www.w3.org/1999/xlink" x="0px" y="0px"
	 width="100%" viewBox="0 0 1024 704" enable-background="new 0 0 1024 704" xml:space="preserve">
<path fill="#000000" opacity="1.000000" stroke="none" 
	d="
M920.738281,306.142609 
	C914.378601,292.077576 910.992737,277.427429 906.703186,263.091156 
	C902.019958,247.439163 902.284241,247.361832 886.101379,247.362122 
	C863.440002,247.362503 840.767944,246.922867 818.120239,247.478867 
	C794.395142,248.061340 782.668884,237.311935 773.584412,216.725677 
	C770.294189,209.269852 767.953552,201.404861 763.930542,194.263519 
	C758.229492,184.143570 749.520813,178.823654 737.971313,178.281265 
	C730.467468,177.928879 722.986450,177.857513 716.085266,181.727432 
	C707.114319,186.758041 703.180054,198.489426 706.859436,209.694443 
	C710.076233,219.490692 718.406250,224.608276 729.038879,223.305740 
	C734.653259,222.617950 740.258545,221.849915 745.879700,221.224518 
	C751.747803,220.571655 756.948792,223.117737 758.954895,227.476959 
	C761.298279,232.569199 759.976685,238.273270 755.507507,242.462540 
	C752.505127,245.276993 748.919983,246.977600 744.949341,247.823441 
	C731.369690,250.716187 717.725647,251.825943 704.856750,245.443527 
	C690.143982,238.146622 683.651550,225.101227 681.117676,209.442017 
	C677.460938,186.843491 687.216064,165.579529 707.839661,157.079315 
	C729.535461,148.137238 751.649536,148.287766 771.500061,162.728912 
	C782.548340,170.766464 787.314514,183.449905 792.090271,195.772705 
	C794.430420,201.810974 796.110168,208.121979 800.050293,213.459335 
	C803.336121,217.910416 807.748779,220.628296 813.138428,220.675552 
	C838.960938,220.902039 864.785828,220.856766 890.609863,220.878464 
	C891.401611,220.879135 892.193665,220.554794 893.421082,220.286942 
	C893.000549,215.316101 891.176575,210.861160 889.803772,206.338791 
	C879.699280,173.052841 870.670044,139.433716 857.986023,106.955910 
	C851.913696,91.407745 843.862915,76.799461 837.481079,61.416325 
	C835.134644,55.760490 834.042053,49.982056 834.572632,43.874004 
	C835.219727,36.424538 838.712219,31.279409 844.893311,29.489517 
	C852.380005,27.321568 859.370239,27.974125 865.156677,33.930859 
	C869.747681,38.657005 871.796143,44.655586 873.445007,50.779125 
	C880.105469,75.515335 886.315979,100.377884 893.327759,125.012993 
	C901.981323,155.416397 911.340820,185.618347 920.189392,215.967377 
	C921.355225,219.965988 923.267700,221.070557 927.249451,221.033768 
	C946.743103,220.853622 966.240051,220.881653 985.734741,221.004166 
	C1002.778870,221.111267 1012.076538,227.927795 1015.886353,242.989273 
	C1017.357117,248.803665 1018.352783,254.781677 1018.149475,260.766541 
	C1017.455078,281.206512 1012.026978,300.215515 999.617432,316.752411 
	C993.102173,325.434509 984.972839,332.326324 974.203857,335.210175 
	C952.898865,340.915558 932.892639,330.984009 922.352417,309.663544 
	C921.836182,308.619385 921.374695,307.548126 920.738281,306.142609 
M957.500061,247.367157 
	C948.600525,247.367157 939.700989,247.367157 931.241577,247.367157 
	C929.984314,250.025162 930.985046,251.579849 931.439392,253.097473 
	C934.635071,263.770111 937.906433,274.420624 941.235474,285.052521 
	C942.926514,290.453125 944.808289,295.777344 947.968079,300.565582 
	C955.527893,312.021210 968.494080,313.473755 977.906433,303.612640 
	C988.988770,292.002014 992.959656,277.680847 992.912964,262.008820 
	C992.881226,251.359802 989.080872,247.531342 978.476196,247.387726 
	C971.818604,247.297562 965.158875,247.368851 957.500061,247.367157 
z"/>
<path fill="#000000" opacity="1.000000" stroke="none" 
	d="
M867.764526,419.501617 
	C880.189270,413.537750 890.627747,417.097900 896.281433,429.153961 
	C902.056213,441.468414 904.236084,454.865387 907.163086,467.976746 
	C911.991455,489.605286 918.831909,510.629974 925.182983,531.810913 
	C926.179016,535.132812 927.498962,536.003540 930.891602,534.906555 
	C941.352661,531.523926 951.994629,529.015930 963.089050,528.652588 
	C976.079346,528.227234 984.897888,534.449707 990.917358,545.400513 
	C995.123230,553.052063 997.317078,561.452148 999.681580,569.771667 
	C1003.953430,584.801819 1009.427429,599.482239 1012.721313,614.798523 
	C1013.539062,618.600586 1013.562439,622.429382 1013.253052,626.231689 
	C1012.822205,631.526001 1009.923035,635.189392 1004.926147,637.059753 
	C993.206909,641.446289 983.358765,636.083679 980.884277,623.852478 
	C978.733398,613.221008 979.546997,602.276794 977.684204,591.605896 
	C976.084290,582.440796 975.040039,573.128235 970.684937,564.681335 
	C966.200256,555.983154 961.544617,553.664062 951.967224,555.719543 
	C947.255493,556.730835 942.657104,558.259338 937.974060,559.418823 
	C934.836487,560.195679 934.204773,561.709961 935.187134,564.841125 
	C938.921265,576.742920 942.623779,588.665405 945.878479,600.704407 
	C950.625366,618.263184 943.890625,629.996948 926.723328,634.458862 
	C923.210205,635.371887 919.483765,635.790283 915.847290,635.841309 
	C904.864258,635.995361 893.886292,636.000488 882.891846,635.621643 
	C851.645752,634.545227 847.196655,602.400024 857.428833,585.147583 
	C866.136780,570.465027 879.008423,560.450195 893.235901,551.848816 
	C901.805542,546.667969 901.928223,546.784180 898.888855,537.178528 
	C889.287720,506.834259 877.966980,477.172699 864.034851,448.519836 
	C860.937866,442.150726 859.484314,435.292816 861.653442,428.154327 
	C862.696472,424.721802 864.251099,421.660767 867.764526,419.501617 
M918.374939,600.026794 
	C915.324890,590.504883 913.099304,580.694946 908.947021,571.104980 
	C903.595093,574.168701 898.654602,576.593933 894.157288,579.667603 
	C887.709778,584.073975 881.371582,588.768250 878.412781,596.498352 
	C875.735291,603.493530 878.006409,608.120850 885.379395,609.098633 
	C894.102295,610.255310 902.947815,610.157837 911.700256,609.031006 
	C917.481995,608.286621 918.555420,606.751587 918.374939,600.026794 
z"/>
<path fill="#000000" opacity="1.000000" stroke="none" 
	d="
M500.441528,570.479126 
	C506.675018,562.070740 514.206482,555.695435 523.649780,551.677063 
	C534.384033,547.109436 545.345947,546.745911 556.317261,550.415344 
	C569.561279,554.845032 578.525085,567.846680 579.354309,582.568298 
	C579.857544,591.500977 578.645508,600.091736 575.115417,608.534729 
	C579.389221,610.440735 583.421387,609.682434 587.282776,609.561951 
	C591.523376,609.429565 593.436707,610.721985 593.191589,615.210999 
	C592.919373,620.195496 592.953186,625.215271 593.192566,630.203430 
	C593.399231,634.509644 591.745483,636.201538 587.395020,636.078308 
	C579.568542,635.856628 571.730774,636.073547 563.899292,635.979614 
	C551.254395,635.827881 538.884766,636.685364 526.335266,639.425781 
	C502.880554,644.547546 479.143738,644.122437 456.680328,634.546509 
	C448.987152,631.266968 442.621124,629.729248 434.893127,633.772095 
	C430.390289,636.127686 424.816895,635.885132 419.663330,635.941650 
	C405.999695,636.091553 392.332275,635.903809 378.668915,636.065979 
	C374.583008,636.114380 372.917938,634.619934 373.061005,630.524536 
	C373.247040,625.198364 373.165802,619.859619 373.078339,614.528320 
	C373.020844,611.023438 374.318573,609.625671 378.081848,609.582275 
	C391.230438,609.430603 404.406372,610.430969 417.526245,608.865845 
	C418.961670,608.694580 420.560547,609.092041 422.128540,607.503601 
	C420.649780,604.407532 418.982483,601.219360 417.576752,597.919800 
	C412.224365,585.356262 410.481659,572.523376 416.081268,559.620422 
	C425.041107,538.974548 448.481995,530.275391 469.296204,539.511902 
	C483.273712,545.714600 492.682617,556.218445 498.642181,570.081299 
	C498.831085,570.520630 499.195160,570.894836 499.535980,571.242004 
	C499.567688,571.274292 500.024048,570.889709 500.441528,570.479126 
M446.219879,563.486633 
	C439.005402,567.522705 436.522125,573.062439 438.118347,580.788940 
	C442.091217,600.019714 455.377319,609.981812 472.895996,615.395874 
	C482.636963,618.406250 483.041565,617.777100 481.755585,607.768311 
	C481.692169,607.274658 481.721649,606.767700 481.641785,606.277710 
	C479.684479,594.270325 477.466919,582.343811 469.968903,572.244202 
	C464.187469,564.456848 456.734711,560.887573 446.219879,563.486633 
M553.555603,581.166809 
	C548.615234,573.507629 536.277283,571.580505 527.420532,577.913818 
	C514.451721,587.187561 509.148376,600.883179 506.661163,616.042297 
	C519.976379,619.247559 542.503357,610.320740 550.473633,598.798767 
	C553.975281,593.736755 556.097900,588.208069 553.555603,581.166809 
z"/>
<path fill="#000000" opacity="1.000000" stroke="none" 
	d="
M296.961487,508.873840 
	C286.191528,522.076172 272.236176,530.604492 258.030090,538.651001 
	C234.861389,551.773987 209.431976,557.376343 183.234055,560.150574 
	C182.297653,560.249756 181.211761,559.989868 180.183594,561.267395 
	C186.047653,566.380676 192.569946,570.591492 198.953613,574.965576 
	C217.153397,587.435974 236.224945,598.198975 257.337280,605.078735 
	C265.818542,607.842468 274.499207,609.097168 283.318451,609.586426 
	C286.176056,609.744873 287.604736,610.487976 287.553864,613.606018 
	C287.453278,619.766785 287.507050,625.933899 287.672211,632.093689 
	C287.784027,636.266052 284.917511,635.886719 282.241760,636.017090 
	C263.975281,636.907593 247.000076,632.017822 230.584290,624.553284 
	C205.340652,613.074585 182.618713,597.778381 162.411255,578.856323 
	C151.767517,568.889648 139.152069,565.735657 125.171326,566.439575 
	C116.688980,566.866699 113.558418,570.505554 113.280861,579.169678 
	C113.091026,585.095215 114.666611,590.699951 116.035011,596.345154 
	C118.345833,605.878174 121.274330,615.266235 122.793320,624.983765 
	C123.714088,630.874207 121.991699,634.987122 117.898857,636.963562 
	C112.881310,639.386597 108.355019,638.263062 104.228348,633.273621 
	C96.978035,624.507507 94.281250,613.783447 91.838699,603.060974 
	C88.946770,590.365845 87.564079,577.524658 88.666496,564.435608 
	C89.653023,552.722595 95.790169,544.923828 107.203705,541.885010 
	C113.698166,540.155945 120.338043,539.773254 127.018196,539.776001 
	C138.850403,539.780762 150.682846,539.737732 162.514771,539.796021 
	C195.292984,539.957520 224.336700,530.048706 249.149277,508.227142 
	C255.166916,502.934937 260.798523,497.279541 266.577026,491.757446 
	C271.421539,487.127960 276.485291,482.823029 283.405090,481.572296 
	C289.542542,480.462921 295.344482,481.228180 299.169739,486.490509 
	C303.211029,492.049896 303.395264,498.265717 299.830109,504.354797 
	C298.989655,505.790253 298.064911,507.176331 296.961487,508.873840 
z"/>
<path fill="#000000" opacity="1.000000" stroke="none" 
	d="
M37.734180,243.185150 
	C28.674505,228.651764 25.737043,212.638290 23.799707,196.380020 
	C22.992453,189.605484 23.206676,182.773621 23.669466,175.937546 
	C24.407263,165.039124 30.485306,156.938110 40.913601,153.929535 
	C45.875210,152.498077 50.940319,151.687866 56.167728,151.643250 
	C76.639481,151.468445 97.140427,152.469284 117.558945,149.999603 
	C139.759552,147.314377 159.491928,139.001572 177.257645,125.369957 
	C187.757919,117.313118 196.406570,107.330742 206.550415,98.952057 
	C211.929871,94.508667 218.057129,92.059105 225.025177,93.024086 
	C234.228455,94.298622 239.161118,102.553741 236.573578,111.525917 
	C234.072891,120.196930 227.680496,125.940727 221.171661,131.336731 
	C194.426193,153.509491 163.535751,166.118271 129.146606,170.381516 
	C125.356590,170.851364 121.566498,171.322937 117.783363,171.843933 
	C117.000549,171.951752 116.248505,172.283005 114.734047,172.734192 
	C125.353477,180.891006 135.732849,188.260925 146.615356,194.915970 
	C165.315521,206.351791 184.713272,216.187027 206.553619,220.113708 
	C210.293915,220.786179 214.170502,220.915756 217.983231,220.907104 
	C221.491821,220.899139 222.622955,222.310638 222.472031,225.735229 
	C222.230179,231.223572 222.203674,236.737747 222.443176,242.225418 
	C222.613815,246.135162 221.178345,247.236084 217.282639,247.466217 
	C199.317078,248.527512 182.733170,243.760300 166.528000,236.622787 
	C140.008026,224.942108 116.725716,208.442734 95.457336,189.021912 
	C84.212540,178.753922 70.889648,177.268402 56.758610,178.461273 
	C51.638138,178.893509 48.716560,183.091324 48.300583,189.183701 
	C47.696636,198.029053 50.666744,206.251221 52.675400,214.625305 
	C54.418537,221.892456 56.759407,229.010559 57.485188,236.511444 
	C58.153111,243.414444 56.636326,247.071182 51.989250,249.004227 
	C47.205585,250.994095 43.162277,249.650589 38.887268,244.645325 
	C38.562958,244.265625 38.262863,243.865219 37.734180,243.185150 
z"/>
<path fill="#000000" opacity="1.000000" stroke="none" 
	d="
M493.741302,236.966125 
	C493.739960,232.807709 493.871521,229.135223 493.699310,225.477036 
	C493.545471,222.209198 495.011078,220.897247 498.124054,221.001999 
	C499.455353,221.046799 500.790039,220.984100 502.123169,220.984222 
	C539.952576,220.987518 577.781982,220.999588 615.611389,220.992386 
	C624.890442,220.990631 629.741760,217.047745 631.696777,208.018768 
	C635.355042,191.123077 627.140991,179.318451 609.808289,178.546829 
	C588.867737,177.614639 567.874573,177.157211 546.949951,179.955338 
	C540.087952,180.872955 533.079895,181.634827 526.068176,180.204453 
	C517.055176,178.365784 511.202179,172.028366 510.675659,163.080368 
	C510.083740,153.020691 513.742737,146.694580 521.842651,144.286057 
	C527.390259,142.636505 533.231689,142.357635 538.516724,144.629013 
	C554.429626,151.467911 571.059387,152.175186 588.002014,151.773285 
	C598.788757,151.517426 609.576721,151.246246 620.346497,153.511841 
	C642.645203,158.202759 656.209656,173.636429 657.204224,196.377670 
	C657.578247,204.929947 656.653809,213.294815 654.218018,221.536652 
	C649.599670,237.163574 636.520935,247.294403 620.214539,247.325089 
	C581.385376,247.398132 542.556030,247.374664 503.726715,247.344421 
	C492.797455,247.335922 493.816467,248.471161 493.741302,236.966125 
z"/>
<path fill="#000000" opacity="1.000000" stroke="none" 
	d="
M288.039185,278.942474 
	C294.697479,278.949524 300.863098,279.033783 307.025787,278.934601 
	C310.718597,278.875183 312.633087,280.156677 312.364716,284.180511 
	C312.132385,287.663727 312.213562,291.178589 312.346924,294.672180 
	C312.464325,297.749054 311.421783,299.292236 308.089386,299.276459 
	C291.262604,299.196716 274.435150,299.191193 257.608368,299.264374 
	C254.334625,299.278595 253.226288,297.837250 253.225586,294.731140 
	C253.208786,220.267761 253.148956,145.804398 253.100540,71.341019 
	C253.090897,56.513134 253.076935,41.685204 253.102402,26.857363 
	C253.114395,19.871492 253.263290,19.731510 259.970306,19.728216 
	C275.464630,19.720610 290.960938,19.884020 306.452026,19.664890 
	C311.073212,19.599522 312.803314,21.157291 312.381683,25.719618 
	C312.091553,28.858627 312.161621,32.055370 312.358154,35.208393 
	C312.576660,38.713856 311.018585,39.965294 307.673248,39.927216 
	C299.510681,39.834309 291.329651,40.205845 283.189270,39.769821 
	C278.542297,39.520920 277.133606,40.814632 277.212494,45.490494 
	C277.473877,60.980438 277.316681,76.477478 277.317108,91.971794 
	C277.318787,150.950165 277.300201,209.928558 277.336945,268.906921 
	C277.344025,280.263794 276.015411,278.841370 288.039185,278.942474 
z"/>
<path fill="#000000" opacity="1.000000" stroke="none" 
	d="
M612.020508,667.644531 
	C618.512207,667.644043 624.510925,667.538147 630.503174,667.687988 
	C633.732300,667.768738 635.031494,666.481812 634.952148,663.285706 
	C634.836426,658.625244 634.941895,653.959473 634.941528,649.295959 
	C634.936584,577.843079 634.930237,506.390198 634.922363,434.937317 
	C634.921631,428.268036 634.916016,428.251465 628.368042,428.231079 
	C620.539978,428.206665 612.709351,428.098999 604.884644,428.258698 
	C601.207153,428.333771 599.619751,426.867340 599.913818,423.255371 
	C599.940796,422.924469 599.909363,422.589264 599.917847,422.256348 
	C600.327515,406.106506 597.214233,408.633362 614.144287,408.344330 
	C625.275574,408.154297 636.438171,408.457550 647.588196,408.139038 
	C651.224121,408.035156 654.865540,408.122711 657.902832,408.122711 
	C659.816772,410.513123 659.318481,412.419342 659.319031,414.190552 
	C659.346130,502.965363 659.346191,591.740173 659.339600,680.514954 
	C659.339111,687.333801 659.306702,687.346191 652.486755,687.350159 
	C637.330078,687.358887 622.173401,687.364014 607.016724,687.350403 
	C599.948059,687.344055 599.948059,687.322693 599.930664,680.033203 
	C599.930237,679.866638 599.929504,679.700134 599.930664,679.533569 
	C600.028809,665.202515 599.174438,667.983826 612.020508,667.644531 
z"/>
<path fill="#000000" opacity="1.000000" stroke="none" 
	d="
M318.013977,457.000000 
	C318.009125,442.341705 318.107788,428.182129 317.933502,414.025940 
	C317.883850,409.990479 319.327850,408.229828 323.361237,408.259674 
	C340.342987,408.385498 357.325317,408.437500 374.307495,408.486816 
	C376.384796,408.492859 377.408356,409.382935 377.326874,411.482758 
	C377.313995,411.814880 377.356415,412.148865 377.349640,412.481537 
	C376.960815,431.582947 380.509674,427.785217 362.291565,428.206573 
	C357.796875,428.310547 353.274902,428.481018 348.806061,428.119293 
	C343.923340,427.724060 341.689667,429.137512 342.245941,434.436890 
	C342.678253,438.555481 342.326263,442.756165 342.326416,446.920380 
	C342.328766,518.211548 342.331360,589.502747 342.335083,660.793945 
	C342.335449,667.614319 342.339111,667.623169 349.152954,667.633667 
	C356.815094,667.645386 364.480072,667.763184 372.138123,667.587097 
	C375.876221,667.501099 377.412231,668.593567 377.470367,672.664551 
	C377.680298,687.362366 377.825958,687.358459 363.383575,687.357178 
	C350.557831,687.356018 337.732056,687.369568 324.906311,687.356995 
	C318.019653,687.350220 317.985321,687.310242 317.985931,680.368408 
	C317.992645,606.078918 318.003876,531.789490 318.013977,457.000000 
z"/>
<path fill="#000000" opacity="1.000000" stroke="none" 
	d="
M434.993408,39.924377 
	C429.498474,39.901608 424.502136,39.876831 419.505798,39.856575 
	C416.885803,39.845955 415.534210,38.720890 415.612610,35.916134 
	C415.724274,31.921934 415.710724,27.920336 415.610504,23.925413 
	C415.536926,20.991819 416.743927,19.707626 419.738159,19.717787 
	C436.560577,19.774878 453.383362,19.775606 470.205780,19.717728 
	C473.148926,19.707602 474.516571,20.839073 474.372406,23.849747 
	C474.261047,26.175869 474.371307,28.512274 474.371277,30.844107 
	C474.371063,117.789116 474.369629,204.734131 474.367859,291.679138 
	C474.367706,299.223694 474.366272,299.235291 466.615021,299.238617 
	C451.624512,299.244995 436.632233,299.109680 421.644531,299.312988 
	C417.204010,299.373230 415.494476,298.139557 415.524689,293.411041 
	C415.617218,278.945557 415.435638,278.945038 430.003601,278.944122 
	C435.500092,278.943787 440.997864,278.868652 446.492584,278.965912 
	C449.456879,279.018402 450.849884,277.810486 450.632568,274.813171 
	C450.572510,273.985016 450.633942,273.148285 450.633972,272.315491 
	C450.635895,197.862579 450.640320,123.409683 450.634552,48.956779 
	C450.633850,39.926510 450.608093,39.926392 441.488007,39.923965 
	C439.489349,39.923435 437.490662,39.924126 434.993408,39.924377 
z"/>
<path fill="#000000" opacity="1.000000" stroke="none" 
	d="
M807.943237,584.067627 
	C816.759705,594.789551 824.838867,605.561035 829.849792,618.295837 
	C830.900391,620.965820 831.464355,623.698364 831.348389,626.585999 
	C831.152954,631.450134 828.648132,634.384033 823.930786,635.216064 
	C821.156006,635.705505 818.301514,635.950073 815.482727,635.951965 
	C772.149414,635.981812 728.816162,635.956604 685.482849,635.935730 
	C678.692200,635.932434 678.685181,635.913208 678.668945,628.957947 
	C678.657654,624.124634 678.844604,619.282898 678.613770,614.460693 
	C678.432800,610.679993 680.015442,609.534973 683.606140,609.618408 
	C691.268677,609.796448 698.938171,609.669067 706.604858,609.669434 
	C733.438171,609.670837 760.271545,609.685669 787.104858,609.655090 
	C789.574707,609.652283 792.095947,610.011230 794.629578,609.110779 
	C794.679321,608.635132 794.946289,608.020691 794.745056,607.728271 
	C785.387268,594.123962 775.971924,580.565796 761.786804,571.327881 
	C752.184204,565.074341 742.209412,563.471436 731.477295,568.427551 
	C726.348633,570.796021 721.125916,572.823669 715.179260,572.473267 
	C705.198792,571.885071 700.019836,564.184021 703.593994,554.750671 
	C707.880310,543.437622 722.929932,534.866394 735.633545,536.111023 
	C750.803955,537.597351 763.509644,544.657288 775.485352,553.318176 
	C787.550659,562.043884 798.251953,572.282532 807.943237,584.067627 
z"/>
<path fill="#000000" opacity="1.000000" stroke="none" 
	d="
M357.646484,203.629883 
	C357.047821,192.734421 354.706421,182.856628 348.099915,174.307877 
	C345.662109,171.153381 343.606537,167.658081 342.477875,163.781357 
	C341.066650,158.934189 340.760529,154.054489 345.056183,150.425217 
	C349.415741,146.742004 354.554260,146.516571 359.608337,148.776001 
	C365.149811,151.253342 368.757599,155.823410 371.584991,161.064041 
	C378.109711,173.157623 380.557739,186.421219 382.238739,199.799713 
	C383.867493,212.762207 390.258301,219.622681 403.243958,220.737900 
	C406.976227,221.058411 408.555176,222.414597 408.368378,226.298767 
	C408.104675,231.783051 408.206360,237.290359 408.311554,242.784775 
	C408.369446,245.808609 407.487091,247.394257 404.091034,247.386047 
	C373.610138,247.312317 343.128967,247.319199 312.648010,247.369659 
	C309.605682,247.374695 308.558228,246.094437 308.620514,243.161453 
	C308.744293,237.334442 308.796478,231.497726 308.593353,225.674973 
	C308.469147,222.114273 310.070679,220.973251 313.343506,220.991791 
	C322.504059,221.043701 331.665314,221.006104 340.826080,220.958710 
	C354.219604,220.889420 357.646362,217.424316 357.646484,203.629883 
z"/>
</svg>