<svg enable-background="new 0 0 2396 470" viewBox="0 0 2396 470" xmlns="http://www.w3.org/2000/svg"><path d="m1725 471c-575 0-1149.5 0-1724 0 0-156.666656 0-313.333328 0-470h2396v470c-223.833252 0-447.666626 0-672 0m-111.23645-80.766022c-4.866699 5.646942-10.929321 7.869385-18.459961 7.855286-77.655274-.145477-155.310913-.124481-232.966431-.065674-20.464477.015503-31.469604-7.449524-40.178955-27.35025-7.425537-16.967102-13.569214-34.529267-21.624634-51.177612-9.202148-19.01828-23.135986-34.350983-43.415527-41.810517-31.275513-11.504242-63.046997-12.299377-94.327271.077545-21.975341 8.695191-37.572509 24.31131-46.216064 46.600067-8.571289 22.102387-8.342163 44.585053-2.197266 66.995301 8.475708 30.911651 32.023072 53.952942 64.299317 56.888183 13.767212 1.251984 27.847168.219208 41.690796-.920013 9.560547-.786713 18.663452-4.114166 26.401367-10.448853 8.007324-6.555267 11.282959-20.010437 6.157471-28.846893-4.430664-7.638428-11.95105-10.367462-20.304566-10.043732-6.421142.24881-12.772583 2.009949-19.199585 2.454834-9.889648.68454-20.070068 2.382294-29.672607.833466-16.136597-2.602753-24.585938-14.307587-28.452881-29.655151-5.231323-20.761902 4.856934-43.167786 23.278686-50.796448 10.942139-4.53125 22.573853-5.183777 34.237427-4.613068 16.091553.787384 30.659546 5.407501 42.079224 17.573212 8.714355 9.2836 13.474121 20.729553 18.253174 32.242157 5.318603 12.812897 10.140747 25.932678 16.665405 38.123443 13.989746 26.139679 35.545166 40.888062 66.095459 40.872468 192.969116-.098481 385.938354-.050934 578.907226-.304932 21.41272-.028198 42.834351-1.97168 63.043091-9.951599 18.269043-7.213928 27.876099-18.957428 26.221192-39.70636-.878907-11.017334-8.485962-19.579956-19.362671-21.568054-10.572266-1.932465-19.819702 1.643799-28.927368 6.645538-8.237427 4.523834-16.546875 9.378998-25.426148 12.184631-26.86206 8.488007-54.626343 5.719208-82.16687 4.963013-2.607056-.071594-5.235596-.932648-7.772461-1.698486-8.48645-2.562012-11.799805-10.599549-6.882568-17.950562 2.615356-3.909759 6.155151-7.450226 9.933716-10.282318 8.504028-6.374206 17.566162-12.000183 26.130493-18.298523 15.193603-11.173401 28.420654-24.013092 29.681396-44.338714 1.421265-22.910981-8.088745-39.888581-32.499389-43.350617-18.547364-2.630463-37.107911-.82666-54.746094 6.557831-1.363892.570953-3.324829.992279-4.54187.445221-17.374512-7.809998-35.716797-8.89679-54.222657-7.216431-12.564941 1.1409-23.51184 6.414246-29.235839 18.522186-7.908448 16.728302-6.721802 33.027588 3.730835 48.526124 8.367431 12.406921 20.479614 20.490936 32.503784 28.757659 7.05603 4.851014 14.006958 9.890992 20.678955 15.252015 4.607544 3.702392 7.326294 8.703552 5.897583 14.925903-1.397217 6.085693-6.228882 8.238922-11.69458 9.259643-3.56958.666626-7.205445 1.363862-10.814087 1.377503-39.991089.151276-79.982788.172485-119.974243.219086-.80188.000946-1.604004-.115784-2.524903-.186768.160279-.98761.209839-1.826569.43689-2.61441 5.677124-19.698426 6.488281-39.623169 2.563843-59.711121-4.162964-21.309357-14.64563-38.590027-33.208374-50.38681-17.340821-11.020203-36.839722-14.890869-56.930054-15.464417-23.306152-.665283-46.640869-.499389-69.962036-.401489-12.817139.053802-25.136231-2.06778-37.098267-6.580994-13.516235-5.099609-26.922119-10.113769-41.949218-8.760009-15.836426 1.426666-27.286988 11.579284-28.345948 27.368591-1.275512 19.018097 7.081909 35.560608 28.672119 38.684662 8.162354 1.18103 16.603272 1.351257 24.847535.84674 13.578369-.830902 27.07312-3.226623 40.652221-3.800689 20.285034-.857514 40.612305-.852722 60.922608-.92157 9.807739-.033234 19.656006.173798 29.416382 1.048706 10.855835.973114 21.373291 3.757721 29.634765 11.465149 14.750733 13.761505 15.994751 43.828155 2.268433 61.656921m-1128.053467 49.661957c5.636688 1.37558 11.245728 3.795258 16.914886 3.945465 24.136445.639588 48.294343.916962 72.436005.627411 7.031983-.08432 14.250427-1.813324 21.010254-3.962219 16.014771-5.091034 27.811462-15.145752 29.940857-32.563538 1.0625-8.690613.344665-18.124237-1.913452-26.596649-6.700257-25.139374-14.565369-49.968323-22.246277-75.831543 13.843323-3.400482 27.463135-7.035309 41.223022-10.025604 9.357117-2.033539 16.739685 1.082519 22.085389 9.620605 7.662048 12.237824 11.259704 25.857636 14.861755 39.540558 5.592407 21.244049 10.707214 42.664917 20.989502 62.308563 11.5755 22.114136 28.723572 37.404206 54.619507 37.791138 40.129394.599579 80.294739.118927 120.41925-.905975 17.343628-.442993 33.917542-5.592652 48.500794-15.658661 4.021118-2.775482 7.808593-5.889282 11.76886-8.897675 2.072509 2.449097 3.721679 4.778137 5.740417 6.723725 17.909973 17.261322 39.599304 24.180175 64.108215 22.973877 31.836914-1.566925 52.834229-19.613282 57.231446-51.032502 1.845459-13.186493 1.424438-26.925048.180786-40.239532-1.128174-12.077515-3.345825-24.46048-7.620239-35.747955-7.730225-20.412903-19.787598-29.543183-40.617981-28.180054-17.438904 1.141205-27.11792 15.024322-21.552246 31.625336 1.094543 3.265014 2.554809 6.505981 4.406311 9.399841 5.185974 8.105469 10.622131 16.052551 16.038269 24.008575 7.880798 11.576538 6.718811 23.26355-.383851 34.408051-2.111511 3.313141-6.252136 6.439606-10.035095 7.401398-24.50415 6.230041-46.202759-3.704895-54.871826-27.722229-4.639709-12.854065-7.81842-26.228241-11.970886-39.267548-3.836914-12.048431-8.311707-23.783569-17.994446-32.728943-10.015198-9.252441-28.878296-9.848755-38.940063-.950806-9.809266 8.674653-11.084107 26.117768-2.473206 37.262238 4.766968 6.169495 9.99292 11.982422 14.940186 18.014923 10.831543 13.207581 5.112609 33.844482-11.127015 38.905914-6.403625 1.99585-13.258361 3.446625-19.928405 3.532318-31.991211.410859-63.991394.087189-95.984131.425782-10.808899.11438-18.416199-4.366059-24.065613-13.180298-6.953918-10.849579-9.921387-23.162842-13.337585-35.33725-6.245545-22.257385-11.907227-44.709686-19.074158-66.668945-7.603089-23.295624-23.184265-34.342118-47.550293-34.464951-10.903198-.054992-21.976929 1.172333-32.685425 3.280075-13.305237 2.618821-26.312378 6.751618-39.83136 10.331971-.772827-2.357941-1.694336-4.995575-2.504333-7.666993-12.154602-40.085617-25.266602-79.8777-34.171814-120.912017-4.614197-21.2622-10.162049-42.386902-16.580872-63.174553-6.799866-22.022187-19.669983-30.553536-40.562469-29.250924-11.690705.728898-20.664399 7.393792-24.193512 18.395928-4.002777 12.478737-2.434601 24.785675 2.660248 36.524742 5.695068 13.121986 12.694244 25.698471 18.016143 38.957794 12.391907 30.873993 24.417359 61.904114 35.996338 93.091889 6.516358 17.551742 11.850464 35.542404 17.746887 53.425613-5.179565 2.952667-9.986328 5.578308-14.682067 8.389282-21.102204 12.63205-41.015229 26.767395-56.771637 45.981354-14.09198 17.184296-22.989624 36.128418-20.055878 59.177704 2.597381 20.406769 11.50946 36.226562 31.890808 44.895294m1880.284058 5.719391c8.004394-4.272003 12.037109-11.334076 11.720214-20.010468-.337402-9.244232-1.016113-18.747802-3.492431-27.593322-8.835205-31.560822-18.335938-62.939789-27.956055-94.273713-2.524902-8.223907-5.894287-16.282836-9.731445-23.991699-10.861328-21.820068-28.491211-32.894455-53.143067-31.411468-8.77832.528091-17.639404 1.420456-26.207519 3.305847-13.405274 2.949737-26.593994 6.885498-40.82666 10.655884-10.390381-36.811127-21.119629-73.842758-31.247315-111.038101-7.205322-26.463372-12.666259-53.431664-20.645263-79.645134-6.730225-22.111599-19.244385-32.27678-40.660157-30.636834-13.664062 1.046341-23.713623 10.323098-25.988037 23.939553-2.343017 14.028938 1.235596 26.821617 7.39624 39.047043 25.320069 50.24781 44.081055 103.059349 61.507081 156.40171 2.299072 7.037445 4.457031 14.121002 6.686279 21.201965-4.568604 2.594025-8.80835 4.882721-12.932861 7.363068-21.488282 12.922058-42.014893 27.059845-58.157471 46.64624-13.685547 16.605499-21.854736 34.9823-20.509766 57.211457 1.695069 28.016876 21.119385 49.297271 49.152588 51.072845 19.26001 1.21991 38.623291 1.068787 57.939453 1.029053 8.784912-.018036 17.633301-.791107 26.33374-2.046662 10.899903-1.572906 20.897461-5.822906 28.780518-13.761902 10.527588-10.602325 13.253418-24.000671 10.323975-37.936218-3.41211-16.233551-8.369629-32.150543-12.875977-48.143127-3.442627-12.217285-7.226074-24.338501-11.189453-37.61261 14.426269-3.473023 28.215576-7.128296 42.161865-10.031983 9.275391-1.931182 17.506348 1.085389 22.450195 9.378205 4.299561 7.212189 8.322266 14.841736 10.866944 22.798614 6.575195 20.558533 8.619629 41.986115 10.508301 63.397004 1.037597 11.764282 1.901123 23.578094 3.750488 35.225555 1.42749 8.989563 5.616455 17.191681 14.781982 20.52536 10.053711 3.656616 20.477539 4.318054 31.203614-1.066162m-2012.137452-30.719513c-.727478-8.315582-5.247467-13.884979-12.778717-16.968506-3.980224-1.629608-8.108886-3.290375-12.320465-3.898224-30.236938-4.364135-55.993713-18.512146-80.040512-36.353607-21.932312-16.272644-43.68605-32.786102-65.50766-49.207764-.978851-.736663-1.850692-1.615509-3.195068-2.800842 12.975174-1.601074 25.317947-2.918182 37.5979-4.674499 57.542984-8.22992 109.649033-29.51297 155.633347-65.302582 11.075256-8.619873 21.807526-17.770874 29.413696-29.673981 3.274811-5.124802 5.940125-11.442581 6.396515-17.408554 1.190979-15.56778-6.392914-27.077881-23.661804-28.23938-11.699646-.786896-21.735931 3.144196-30.205292 10.735962-14.500763 12.998169-28.215301 26.898239-43.032501 39.512146-17.892975 15.232391-36.959625 28.942856-58.689941 38.465729-30.988984 13.580307-63.705536 18.961868-97.218476 19.821365-23.982956.615051-47.996841-.052704-71.987213.384735-10.446846.190491-20.995163.995179-31.276276 2.788513-20.363006 3.551972-34.235595 18.388276-36.089204 36.736817-3.805447 37.669403 1.747768 74.063263 14.929865 109.342132 3.960479 10.599244 9.124443 20.724152 18.419528 28.011994 8.207623 6.435242 26.007756 3.14682 26.79144-10.75705.368629-6.540161-.093941-13.348266-1.539223-19.726959-3.893234-17.182587-8.983147-34.100006-12.662689-51.32251-1.958836-9.168579-2.782875-18.760376-2.677636-28.144989.142556-12.711792 7.387597-19.52417 20.113099-20.015716 7.138641-.275757 14.314338.279144 21.468887.569458 17.694885.717987 32.958076 7.403778 46.043159 19.157776 22.300614 20.032043 44.244233 40.473175 66.892716 60.102172 14.686539 12.728455 29.729156 25.242402 45.755188 36.177369 18.394134 12.55075 39.342041 18.859314 61.93808 16.769653 18.964233-1.753784 31.994476-11.979584 31.489257-34.080658z" fill="#fff"/><path d="m1614.018555 389.978882c13.471313-17.57367 12.227295-47.64032-2.523438-61.401825-8.261474-7.707428-18.77893-10.492035-29.634765-11.465149-9.760376-.874908-19.608643-1.08194-29.416382-1.048706-20.310303.068848-40.637574.064056-60.922608.92157-13.579101.574066-27.073852 2.969787-40.652221 3.800689-8.244263.504517-16.685181.33429-24.847535-.84674-21.59021-3.124054-29.947631-19.666565-28.672119-38.684662 1.05896-15.789307 12.509522-25.941925 28.345948-27.368591 15.027099-1.35376 28.432983 3.6604 41.949218 8.760009 11.962036 4.513214 24.281128 6.634796 37.098267 6.580994 23.321167-.0979 46.655884-.263794 69.962036.401489 20.090332.573548 39.589233 4.444214 56.930054 15.464417 18.562744 11.796783 29.04541 29.077453 33.208374 50.38681 3.924438 20.087952 3.113281 40.012695-2.563843 59.711121-.227051.787841-.276611 1.6268-.43689 2.61441.920899.070984 1.723023.187714 2.524903.186768 39.991455-.046601 79.983154-.06781 119.974243-.219086 3.608642-.013641 7.244507-.710877 10.814087-1.377503 5.465698-1.020721 10.297363-3.17395 11.69458-9.259643 1.428711-6.222351-1.290039-11.223511-5.897583-14.925903-6.671997-5.361023-13.622925-10.401001-20.678955-15.252015-12.02417-8.266723-24.136353-16.350738-32.503784-28.757659-10.452637-15.498536-11.639283-31.797822-3.730835-48.526124 5.723999-12.10794 16.670898-17.381286 29.235839-18.522186 18.50586-1.680359 36.848145-.593567 54.222657 7.216431 1.217041.547058 3.177978.125732 4.54187-.445221 17.638183-7.384491 36.19873-9.188294 54.746094-6.557831 24.410644 3.462036 33.920654 20.439636 32.499389 43.350617-1.260742 20.325622-14.487793 33.165313-29.681396 44.338714-8.564331 6.29834-17.626465 11.924317-26.130493 18.298523-3.778565 2.832092-7.31836 6.372559-9.933716 10.282318-4.917237 7.351013-1.603882 15.38855 6.882568 17.950562 2.536865.765838 5.165405 1.626892 7.772461 1.698486 27.540527.756195 55.30481 3.524994 82.16687-4.963013 8.879273-2.805633 17.188721-7.660797 25.426148-12.184631 9.107666-5.001739 18.355102-8.578003 28.927368-6.645538 10.876709 1.988098 18.483764 10.55072 19.362671 21.568054 1.654907 20.748932-7.952149 32.492432-26.221192 39.70636-20.20874 7.979919-41.630371 9.923401-63.043091 9.951599-192.968872.253998-385.93811.206451-578.907226.304932-30.550293.015594-52.105713-14.732789-66.095459-40.872468-6.524658-12.190765-11.346802-25.310546-16.665405-38.123443-4.779053-11.512604-9.538819-22.958557-18.253174-32.242157-11.419678-12.165711-25.987671-16.785828-42.079224-17.573212-11.663574-.570709-23.295288.081818-34.237427 4.613068-18.421752 7.628662-28.510009 30.034546-23.278686 50.796448 3.866943 15.347564 12.316284 27.052398 28.452881 29.655151 9.602539 1.548828 19.782959-.148926 29.672607-.833466 6.427002-.444885 12.778443-2.206024 19.199585-2.454834 8.353516-.32373 15.873902 2.405304 20.304566 10.043732 5.125488 8.836456 1.849853 22.291626-6.157471 28.846893-7.737915 6.334687-16.84082 9.66214-26.401367 10.448853-13.843628 1.139221-27.923584 2.171997-41.690796.920013-32.276245-2.935241-55.823609-25.976532-64.299317-56.888183-6.144897-22.410248-6.374023-44.892914 2.197266-66.995301 8.643555-22.288757 24.240723-37.904876 46.216064-46.600067 31.280274-12.376922 63.051758-11.581787 94.327271-.077545 20.279541 7.459534 34.213379 22.792237 43.415527 41.810517 8.05542 16.648345 14.199097 34.21051 21.624634 51.177612 8.709351 19.900726 19.714478 27.365753 40.178955 27.35025 77.655518-.058807 155.311157-.079803 232.966431.065674 7.53064.014099 13.593262-2.208344 18.714966-8.110382z"/><g fill="#010101"><path d="m485.34906 439.764038c-20.020325-8.536835-28.932404-24.356628-31.529785-44.763397-2.933746-23.049286 5.963898-41.993408 20.055878-59.177704 15.756408-19.213959 35.669433-33.349304 56.771637-45.981354 4.695739-2.810974 9.502502-5.436615 14.682067-8.389282-5.896423-17.883209-11.230529-35.873871-17.746887-53.425613-11.578979-31.187775-23.604431-62.217896-35.996338-93.091889-5.321899-13.259323-12.321075-25.835808-18.016143-38.957794-5.094849-11.739067-6.663025-24.046005-2.660248-36.524742 3.529113-11.002136 12.502807-17.66703 24.193512-18.395928 20.892486-1.302612 33.762603 7.228737 40.562469 29.250924 6.418823 20.787651 11.966675 41.912353 16.580872 63.174553 8.905212 41.034317 22.017212 80.8264 34.171814 120.912017.809997 2.671418 1.731506 5.309052 2.504333 7.666993 13.518982-3.580353 26.526123-7.71315 39.83136-10.331971 10.708496-2.107742 21.782227-3.335067 32.685425-3.280075 24.366028.122833 39.947204 11.169327 47.550293 34.464951 7.166931 21.959259 12.828613 44.41156 19.074158 66.668945 3.416198 12.174408 6.383667 24.487671 13.337585 35.33725 5.649414 8.814239 13.256714 13.294678 24.065613 13.180298 31.992737-.338593 63.99292-.014923 95.984131-.425782 6.670044-.085693 13.52478-1.536468 19.928405-3.532318 16.239624-5.061432 21.958558-25.698333 11.127015-38.905914-4.947266-6.032501-10.173218-11.845428-14.940186-18.014923-8.610901-11.14447-7.33606-28.587585 2.473206-37.262238 10.061767-8.897949 28.924865-8.301635 38.940063.950806 9.682739 8.945374 14.157532 20.680512 17.994446 32.728943 4.152466 13.039307 7.331177 26.413483 11.970886 39.267548 8.669067 24.017334 30.367676 33.95227 54.871826 27.722229 3.782959-.961792 7.923584-4.088257 10.035095-7.401398 7.102662-11.144501 8.264649-22.831513.383851-34.408051-5.416138-7.956024-10.852295-15.903106-16.038269-24.008575-1.851502-2.89386-3.311768-6.134827-4.406311-9.399841-5.565674-16.601014 4.113342-30.484131 21.552246-31.625336 20.830383-1.363129 32.887756 7.767151 40.617981 28.180054 4.274414 11.287475 6.492065 23.67044 7.620239 35.747955 1.243652 13.314484 1.664673 27.053039-.180786 40.239532-4.397217 31.41922-25.394532 49.465577-57.231446 51.032502-24.508911 1.206298-46.198242-5.712555-64.108215-22.973877-2.018738-1.945588-3.667908-4.274628-5.740417-6.723725-3.960267 3.008393-7.747742 6.122193-11.76886 8.897675-14.583252 10.066009-31.157166 15.215668-48.500794 15.658661-40.124511 1.024902-80.289856 1.505554-120.41925.905975-25.895935-.386932-43.044007-15.677002-54.619507-37.791138-10.282288-19.643646-15.397095-41.064514-20.989502-62.308563-3.602051-13.682922-7.199707-27.302734-14.861755-39.540558-5.345704-8.538086-12.728272-11.654144-22.085389-9.620605-13.759887 2.990295-27.379699 6.625122-41.223022 10.025604 7.680908 25.86322 15.54602 50.692169 22.246277 75.831543 2.258117 8.472412 2.975952 17.906036 1.913452 26.596649-2.129395 17.417786-13.926086 27.472504-29.940857 32.563538-6.759827 2.148895-13.978271 3.877899-21.010254 3.962219-24.141662.289551-48.29956.012177-72.436005-.627411-5.669158-.150207-11.278198-2.569885-17.275909-4.077362m15.102356-47.821777c3.720093 1.960388 7.382568 5.474029 11.170166 5.614502 17.137207.63565 34.323425.73825 51.464417.182037 9.877685-.320557 15.028015-7.527008 12.430847-16.833038-5.293274-18.966645-11.194702-37.763581-17.029969-57.245972-8.485412 4.858398-16.538574 9.198792-24.316894 13.985931-11.8302 7.280854-23.004456 15.454743-30.947052 27.147492-5.570007 8.19989-8.836731 16.877441-2.771515 27.149048z"/><path d="m2365.663574 445.790802c-10.395508 5.20874-20.819336 4.547302-30.873047.890686-9.165527-3.333679-13.354492-11.535797-14.781982-20.52536-1.849365-11.647461-2.712891-23.461273-3.750488-35.225555-1.888672-21.410889-3.933106-42.838471-10.508301-63.397004-2.544678-7.956878-6.567383-15.586425-10.866944-22.798614-4.943847-8.292816-13.174804-11.309387-22.450195-9.378205-13.946289 2.903687-27.735596 6.55896-42.161865 10.031983 3.963379 13.274109 7.746826 25.395325 11.189453 37.61261 4.506348 15.992584 9.463867 31.909576 12.875977 48.143127 2.929443 13.935547.203613 27.333893-10.323975 37.936218-7.883057 7.938996-17.880615 12.188996-28.780518 13.761902-8.700439 1.255555-17.548828 2.028626-26.33374 2.046662-19.316162.039734-38.679443.190857-57.939453-1.029053-28.033203-1.775574-47.457519-23.055969-49.152588-51.072845-1.34497-22.229157 6.824219-40.605958 20.509766-57.211457 16.142578-19.586395 36.669189-33.724182 58.157471-46.64624 4.124511-2.480347 8.364257-4.769043 12.932861-7.363068-2.229248-7.080963-4.387207-14.16452-6.686279-21.201965-17.426026-53.342361-36.187012-106.1539-61.507081-156.40171-6.160644-12.225426-9.739257-25.018105-7.39624-39.047043 2.274414-13.616455 12.323975-22.893212 25.988037-23.939553 21.415772-1.639946 33.929932 8.525235 40.660157 30.636834 7.979004 26.21347 13.439941 53.181762 20.645263 79.645134 10.127686 37.195343 20.856934 74.226974 31.247315 111.038101 14.232666-3.770386 27.421386-7.706147 40.82666-10.655884 8.568115-1.885391 17.429199-2.777756 26.207519-3.305847 24.651856-1.482987 42.281739 9.5914 53.143067 31.411468 3.837158 7.708863 7.206543 15.767792 9.731445 23.991699 9.620117 31.333924 19.12085 62.712891 27.956055 94.273713 2.476318 8.84552 3.155029 18.34909 3.492431 27.593322.316895 8.676392-3.71582 15.738465-12.050781 20.185944m-239.463867-70.498901c-1.88916 16.594268 3.580566 22.815155 20.319092 22.857696 14.323242.036438 28.652588.13559 42.96875-.218963 11.920898-.295228 16.872558-7.061036 13.890869-18.537446-2.04834-7.882904-4.438965-15.679626-6.793945-23.479522-3.199219-10.594086-6.51001-21.154419-10.192627-33.088898-13.760742 8.973785-27.161621 17.034454-39.781983 26.17337-8.908203 6.450928-16.396728 14.644227-20.410156 26.293763z"/><path d="m353.888306 415.33374c.473602 21.663147-12.556641 31.888947-31.520874 33.642731-22.596039 2.089661-43.543946-4.218903-61.93808-16.769653-16.026032-10.934967-31.068649-23.448914-45.755188-36.177369-22.648483-19.628997-44.592102-40.070129-66.892716-60.102172-13.085083-11.753998-28.348274-18.439789-46.043159-19.157776-7.154549-.290314-14.330246-.845215-21.468887-.569458-12.725502.491546-19.970543 7.303924-20.113099 20.015716-.105239 9.384613.7188 18.97641 2.677636 28.144989 3.679542 17.222504 8.769455 34.139923 12.662689 51.32251 1.445282 6.378693 1.907852 13.186798 1.539223 19.726959-.783684 13.90387-18.583817 17.192292-26.79144 10.75705-9.295085-7.287842-14.459049-17.41275-18.419528-28.011994-13.182097-35.278869-18.735312-71.672729-14.929865-109.342132 1.853609-18.348541 15.726198-33.184845 36.089204-36.736817 10.281113-1.793334 20.82943-2.598022 31.276276-2.788513 23.990372-.437439 48.004257.230316 71.987213-.384735 33.51294-.859497 66.229492-6.241058 97.218476-19.821365 21.730316-9.522873 40.796966-23.233338 58.689941-38.465729 14.8172-12.613907 28.531738-26.513977 43.032501-39.512146 8.469361-7.591766 18.505646-11.522858 30.205292-10.735962 17.26889 1.161499 24.852783 12.6716 23.661804 28.23938-.45639 5.965973-3.121704 12.283752-6.396515 17.408554-7.60617 11.903107-18.33844 21.054108-29.413696 29.673981-45.984314 35.789612-98.090363 57.072662-155.633347 65.302582-12.279953 1.756317-24.622726 3.073425-37.5979 4.674499 1.344376 1.185333 2.216217 2.064179 3.195068 2.800842 21.82161 16.421662 43.575348 32.93512 65.50766 49.207764 24.046799 17.841461 49.803574 31.989472 80.040512 36.353607 4.211579.607849 8.340241 2.268616 12.320465 3.898224 7.53125 3.083527 12.051239 8.652924 12.810334 17.406433z"/></g><path d="m500.259613 391.624207c-5.873413-9.953553-2.606689-18.631104 2.963318-26.830994 7.942596-11.692749 19.116852-19.866638 30.947052-27.147492 7.77832-4.787139 15.831482-9.127533 24.316894-13.985931 5.835267 19.482391 11.736695 38.279327 17.029969 57.245972 2.597168 9.30603-2.553162 16.512481-12.430847 16.833038-17.140992.556213-34.32721.453613-51.464417-.182037-3.787598-.140473-7.450073-3.654114-11.361969-5.932556z" fill="#fdfdfd"/><path d="m2126.383301 374.911163c3.829834-11.268798 11.318359-19.462097 20.226562-25.913025 12.620362-9.138916 26.021241-17.199585 39.781983-26.17337 3.682617 11.934479 6.993408 22.494812 10.192627 33.088898 2.35498 7.799896 4.745605 15.596618 6.793945 23.479522 2.981689 11.47641-1.969971 18.242218-13.890869 18.537446-14.316162.354553-28.645508.255401-42.96875.218963-16.738526-.042541-22.208252-6.263428-20.135498-23.238434z" fill="#fdfdfd"/></svg>