<svg enable-background="new 0 0 1340 470" viewBox="0 0 1340 470" xmlns="http://www.w3.org/2000/svg"><path d="m1056 471c-352 0-703.499969 0-1054.999953 0-.000016-156.666626-.000016-313.333267-.000031-469.999932 446.66661-.000022 893.333236-.000022 1339.999984-.000045v469.999855c-94.833374.000122-189.666626.000122-285 .000122m-796.496613-119.005737c-6.131362-13.20633-11.583068-26.78653-18.58496-39.513947-7.021439-12.762909-16.996583-23.537292-30.141037-30.23706-31.4991-16.055207-64.435776-17.040772-97.682694-6.648804-24.821709 7.758484-42.621246 24.062714-51.957672 48.551575-10.583614 27.760192-8.877361 55.483306 3.455391 82.193054 9.272774 20.08258 24.960953 33.69693 46.557968 39.729492 17.65023 4.930145 35.565788 3.692535 53.415199 1.341156 8.773026-1.155731 17.169113-3.72467 24.550202-8.956635 8.836136-6.263366 12.907562-17.806427 9.654693-27.709381-2.546097-7.75122-11.994491-13.400543-22.706039-12.635284-8.248596.589325-16.405823 2.362274-24.633057 3.368957-11.6091 1.420472-23.31047 2.490174-33.894401-4.067993-12.965653-8.033935-18.390816-20.418396-18.957321-35.14981-.742898-19.317902 9.098388-37.799897 29.454795-43.034424 7.159989-1.841187 14.693756-2.790802 22.092606-3.026764 16.601013-.52945 32.408768 2.491028 45.40271 13.884613 10.669907 9.355804 16.323852 21.903961 21.584625 34.730682 5.454086 13.298065 10.465515 26.889404 17.236694 39.51236 14.338791 26.730713 36.559006 40.810974 67.728592 40.777405 188.661927-.203309 377.324189-.096466 565.986359-.122345 6.155029-.000855 12.315491-.201722 18.463989-.502167 18.75232-.91629 37.373596-2.689362 55.105896-9.509949 15.384522-5.91748 25.794007-15.809173 27.160096-33.309509 1.347656-17.263916-9.88855-29.817108-26.956727-28.298981-6.982055.621033-14.473022 2.860687-20.406555 6.516174-16.030395 9.875794-32.995117 16.422974-51.771789 17.191864-17.784485.728302-35.610291.652192-53.415222.530365-4.203797-.028747-8.578675-1.171112-12.556519-2.654663-8.185242-3.052673-10.823181-11.294647-5.391357-17.991668 3.906799-4.816773 8.795288-8.995758 13.784423-12.741944 9.282044-6.969574 19.393677-12.880005 28.37262-20.197479 16.130188-13.145508 26.209717-29.239441 22.816589-51.444153-2.288635-14.976562-12.082763-27.122406-26.916504-30.06961-20.450561-4.063202-40.581054-2.531189-59.990356 5.701751-1.349976.572663-3.348022.937287-4.542114.35965-17.285645-8.361755-35.684632-8.786591-54.213623-7.429413-8.919434.653382-17.188172 3.955017-23.510254 10.615174-12.374146 13.036071-13.978028 37.402343-4.304321 52.894836 7.773193 12.448578 18.781005 21.188324 30.559265 29.395203 9.186462 6.401001 18.397216 12.91333 26.737793 20.341156 8.362915 7.447753 5.381225 18.384948-5.3396 21.479919-4.095642 1.182373-8.483276 1.869812-12.742065 1.890289-40.162293.193268-80.325379.194397-120.488282.242554-.746582.000916-1.493286-.101349-2.553527-.178223 5.817199-19.256652 7.237365-38.507873 4.149963-57.989685-3.438477-21.697265-12.934876-40.075683-31.276856-52.857422-14.341613-9.994079-30.717468-15.40451-48.015747-16.286499-23.759796-1.211425-47.603332-1.792083-71.382965-1.297119-20.693451.430725-40.298553-2.947937-59.223999-11.061859-9.872131-4.232468-20.306-5.546066-30.820251-4.09761-5.266266.725479-10.854737 2.408493-15.288361 5.23909-11.475281 7.326324-13.494537 18.84964-12.053558 31.481292 1.799438 15.774353 12.272308 27.053131 28.053192 28.935913 8.541504 1.019043 17.27652 1.393616 25.85614.892731 13.739563-.802093 27.3974-3.300476 41.134949-3.775574 24.458923-.845825 48.953338-.996063 73.42923-.843231 8.741119.054566 17.599639 1.207062 26.176544 2.968781 12.66803 2.602051 22.972046 9.304657 27.668518 21.898132 5.184265 13.901367 4.816284 28.050629-1.412415 41.654968-4.766723 10.411255-12.553528 15.6698-24.721801 15.489716-32.825379-.485687-65.66269-.166107-98.49524-.166107-44.665588 0-89.331726-.124939-133.996521.062957-17.27832.072693-29.624084-7.444366-36.985168-22.81723-3.481293-7.270324-5.953095-15.024078-9.260163-23.249267m806.678864 90.343933c2.937744.554596 5.868042 1.543426 8.814575 1.594879 22.981079.40155 45.969727.982239 68.946289.704925 8.04187-.097015 16.249146-1.745147 24.045899-3.898345 19.762817-5.458039 31.44873-19.70102 31.457153-39.883423.004028-9.62732-2.464722-19.457886-5.079834-28.843506-6.099976-21.894043-12.966919-43.574433-19.864502-66.474304 13.252319-3.278778 26.157227-7.014069 39.291016-9.576081 14.575317-2.8432 21.370971.731079 28.974853 13.562378 7.700562 12.994293 11.074829 27.499207 13.072632 42.152313 2.606689 19.118775 3.947632 38.408234 5.970337 57.609772.609497 5.784973 1.30603 11.606354 2.600342 17.265198 3.995849 17.469574 14.866211 24.264923 35.324218 22.476715 12.696656-1.109802 22.102173-9.951111 22.242676-22.569519.098999-8.885773-.59375-18.098114-2.90039-26.632935-6.683106-24.728668-14.076905-49.277648-21.748047-73.722503-4.870117-15.519257-9.694336-31.199341-16.408814-45.956696-8.620361-18.946441-23.410644-31.295044-45.311279-31.447311-11.396973-.079254-22.973999.951874-34.169434 3.069458-13.516601 2.556671-26.714721 6.796554-41.453613 10.677292-11.75708-43.763581-23.641724-87.885758-35.45459-132.027115-5.32959-19.914711-9.807739-40.089188-15.954345-59.744888-7.012207-22.42429-19.753052-30.960881-40.841797-29.613835-11.583008.739872-20.732544 7.473911-24.129395 18.504254-4.113281 13.356971-2.276489 26.517883 3.691651 38.813789 21.835083 44.986465 40.387939 91.28363 56.259277 138.674148 4.942383 14.757889 9.624023 29.60315 14.436401 44.44339-3.412475 1.947388-6.444458 3.661133-9.460937 5.401734-22.452759 12.956573-43.862915 27.24823-60.668091 47.429291-13.933838 16.733001-23.448975 35.022583-21.651489 57.759246 2.076904 26.270569 15.705932 43.954804 39.969238 50.251679m-203.682251-405.283291c-108.478638-.000004-216.957336-.01873-325.435913.078785-3.75.003368-5.700806-.992031-7.674927-4.437348-14.028992-24.484173-50.998199-24.588081-65.128662-.157569-2.103821 3.637344-4.215698 4.597129-8.084839 4.58984-64.487152-.121514-128.974609-.122754-193.461975-.124123-54.155746-.001152-108.311493.025005-162.467224.073376-2.436218.002174-4.079094-.257893-5.511307-2.909645-8.51577-15.767048-25.357956-23.114174-42.22747-18.800616-17.319679 4.428665-28.569691 18.783636-28.781431 36.724985-.214363 18.16343 11.142397 33.276383 29.161874 37.330658 16.559613 3.725823 33.605778-1.951233 42.173809-18.813614.680436-1.339134 2.913331-2.611908 4.466538-2.663765 7.986915-.266632 15.987495-.12957 23.983292-.123306 56.486297.044258 112.97261.126297 169.458908.1269 54.651031.000587 109.302124-.068161 163.953064-.16478 2.991363-.005287 5.007965.3331 6.694213 3.530976 7.089051 13.443916 19.113068 19.154556 33.733918 19.156738 14.577514.002174 25.904724-6.266251 33.002563-19.505142.790589-1.474617 3.087708-2.90445 4.765198-3.002388 5.809143-.339157 11.65332-.052819 17.484131-.054154 47.987915-.011001 95.975769-.048553 143.963684-.04705 36.989075.001152 73.978149.069275 110.967224.066047 28.990723-.002525 57.981567-.109565 86.97168.006821 1.546264.006203 3.768127 1.269898 4.525268 2.601975 9.561524 16.821342 26.706543 23.847389 45.040039 18.218246 17.206604-5.28318 27.760865-21.48497 26.070252-40.02013-1.532227-16.798004-13.369751-30.358738-29.342285-33.613503-17.046082-3.473541-33.032593 3.599278-41.074402 18.504261-1.523682 2.824246-3.249634 3.546086-6.233277 3.493805-9.994629-.175113-19.994262-.066337-30.991943-.06628z" fill="#fff"/><path d="m259.692322 352.339478c3.118133 7.879974 5.589935 15.633728 9.071228 22.904052 7.361084 15.372864 19.706848 22.889923 36.985168 22.81723 44.664795-.187896 89.330933-.062957 133.996521-.062957 32.83255 0 65.669861-.31958 98.49524.166107 12.168273.180084 19.955078-5.078461 24.721801-15.489716 6.228699-13.604339 6.59668-27.753601 1.412415-41.654968-4.696472-12.593475-15.000488-19.296081-27.668518-21.898132-8.576905-1.761719-17.435425-2.914215-26.176544-2.968781-24.475892-.152832-48.970307-.002594-73.42923.843231-13.737549.475098-27.395386 2.973481-41.134949 3.775574-8.57962.500885-17.314636.126312-25.85614-.892731-15.780884-1.882782-26.253754-13.16156-28.053192-28.935913-1.440979-12.631652.578277-24.154968 12.053558-31.481292 4.433624-2.830597 10.022095-4.513611 15.288361-5.23909 10.514251-1.448456 20.94812-.134858 30.820251 4.09761 18.925446 8.113922 38.530548 11.492584 59.223999 11.061859 23.779633-.494964 47.623169.085694 71.382965 1.297119 17.298279.881989 33.674134 6.29242 48.015747 16.286499 18.34198 12.781739 27.838379 31.160157 31.276856 52.857422 3.087402 19.481812 1.667236 38.733033-4.149963 57.989685 1.060241.076874 1.806945.179139 2.553527.178223 40.162903-.048157 80.325989-.049286 120.488282-.242554 4.258789-.020477 8.646423-.707916 12.742065-1.890289 10.720825-3.094971 13.702515-14.032166 5.3396-21.479919-8.340577-7.427826-17.551331-13.940155-26.737793-20.341156-11.77826-8.206879-22.786072-16.946625-30.559265-29.395203-9.673707-15.492493-8.069825-39.858765 4.304321-52.894836 6.322082-6.660157 14.59082-9.961792 23.510254-10.615174 18.528991-1.357178 36.927978-.932342 54.213623 7.429413 1.194092.577637 3.192138.213013 4.542114-.35965 19.409302-8.23294 39.539795-9.764953 59.990356-5.701751 14.833741 2.947204 24.627869 15.093048 26.916504 30.06961 3.393128 22.204712-6.686401 38.298645-22.816589 51.444153-8.978943 7.317474-19.090576 13.227905-28.37262 20.197479-4.989135 3.746186-9.877624 7.925171-13.784423 12.741944-5.431824 6.697021-2.793885 14.938995 5.391357 17.991668 3.977844 1.483551 8.352722 2.625916 12.556519 2.654663 17.804931.121827 35.630737.197937 53.415222-.530365 18.776672-.76889 35.741394-7.31607 51.771789-17.191864 5.933533-3.655487 13.4245-5.895141 20.406555-6.516174 17.068177-1.518127 28.304383 11.035065 26.956727 28.298981-1.366089 17.500336-11.775574 27.392029-27.160096 33.309509-17.7323 6.820587-36.353576 8.593659-55.105896 9.509949-6.148498.300445-12.30896.501312-18.463989.502167-188.66217.025879-377.324432-.080964-565.986359.122345-31.169586.033569-53.389801-14.046692-67.728592-40.777405-6.771179-12.622956-11.782608-26.214295-17.236694-39.51236-5.260773-12.826721-10.914718-25.374878-21.584625-34.730682-12.993942-11.393585-28.801697-14.414063-45.40271-13.884613-7.39885.235962-14.932617 1.185577-22.092606 3.026764-20.356407 5.234527-30.197693 23.716522-29.454795 43.034424.566505 14.731414 5.991668 27.115875 18.957321 35.14981 10.583931 6.558167 22.285301 5.488465 33.894401 4.067993 8.227234-1.006683 16.384461-2.779632 24.633057-3.368957 10.711548-.765259 20.159942 4.884064 22.706039 12.635284 3.252869 9.902954-.818557 21.446015-9.654693 27.709381-7.381089 5.231965-15.777176 7.800904-24.550202 8.956635-17.849411 2.351379-35.764969 3.588989-53.415199-1.341156-21.597015-6.032562-37.285194-19.646912-46.557968-39.729492-12.332752-26.709748-14.039005-54.432862-3.455391-82.193054 9.336426-24.488861 27.135963-40.793091 51.957672-48.551575 33.246918-10.391968 66.183594-9.406403 97.682694 6.648804 13.144454 6.699768 23.119598 17.474151 30.141037 30.23706 7.001892 12.727417 12.453598 26.307617 18.773895 39.859162z" fill="#010101"/><path d="m1065.786499 442.233826c-23.867554-6.192505-37.496582-23.87674-39.573486-50.147309-1.797486-22.736663 7.717651-41.026245 21.651489-57.759246 16.805176-20.181061 38.215332-34.472718 60.668091-47.429291 3.016479-1.740601 6.048462-3.454346 9.460937-5.401734-4.812378-14.84024-9.494018-29.685501-14.436401-44.44339-15.871338-47.390518-34.424194-93.687683-56.259277-138.674148-5.96814-12.295906-7.804932-25.456818-3.691651-38.813789 3.396851-11.030343 12.546387-17.764382 24.129395-18.504254 21.088745-1.347046 33.82959 7.189545 40.841797 29.613835 6.146606 19.6557 10.624755 39.830177 15.954345 59.744888 11.812866 44.141357 23.69751 88.263534 35.45459 132.027115 14.738892-3.880738 27.937012-8.120621 41.453613-10.677292 11.195435-2.117584 22.772461-3.148712 34.169434-3.069458 21.900635.152267 36.690918 12.50087 45.311279 31.447311 6.714478 14.757355 11.538697 30.437439 16.408814 45.956696 7.671142 24.444855 15.064941 48.993835 21.748047 73.722503 2.30664 8.534821 2.999389 17.747162 2.90039 26.632935-.140503 12.618408-9.54602 21.459717-22.242676 22.569519-20.458007 1.788208-31.328369-5.007141-35.324218-22.476715-1.294312-5.658844-1.990845-11.480225-2.600342-17.265198-2.022705-19.201538-3.363648-38.490997-5.970337-57.609772-1.997803-14.653106-5.37207-29.15802-13.072632-42.152313-7.603882-12.831299-14.399536-16.405578-28.974853-13.562378-13.133789 2.562012-26.038697 6.297303-39.291016 9.576081 6.897583 22.899871 13.764526 44.580261 19.864502 66.474304 2.615112 9.38562 5.083862 19.216186 5.079834 28.843506-.008423 20.182403-11.694336 34.425384-31.457153 39.883423-7.796753 2.153198-16.004029 3.80133-24.045899 3.898345-22.976562.277314-45.96521-.303375-68.946289-.704925-2.946533-.051453-5.876831-1.040283-9.210327-1.699249m11.410034-46.710205c2.523682.780273 5.039063 2.20462 7.572266 2.236755 16.973877.215179 33.964966.544312 50.923096-.004761 10.187011-.329925 14.556884-7.078857 12.504882-17.136993-.265625-1.301636-.561035-2.603577-.94873-3.873017-5.098755-16.691925-10.208496-33.380584-15.353516-50.058319-.261841-.848816-.870361-1.590728-1.700561-3.060821-11.171387 6.904663-22.272461 13.294189-32.857666 20.447113-9.692139 6.549377-18.330933 14.47113-24.161011 24.836517-5.519287 9.813233-4.069824 19.731384 4.02124 26.613526z" fill="#010101"/><path d="m863 37.054916c10.497681-.000068 20.497314-.108844 30.491943.066269 2.983643.052281 4.709595-.669559 6.233277-3.493805 8.041809-14.904983 24.02832-21.977802 41.074402-18.504261 15.972534 3.254765 27.810058 16.815499 29.342285 33.613503 1.690613 18.53516-8.863648 34.73695-26.070252 40.02013-18.333496 5.629143-35.478515-1.396904-45.040039-18.218246-.757141-1.332077-2.979004-2.595772-4.525268-2.601975-28.990113-.116386-57.980957-.009346-86.97168-.006821-36.989075.003228-73.978149-.064895-110.967224-.066047-47.987915-.001503-95.975769.036049-143.963684.04705-5.830811.001335-11.674988-.285003-17.484131.054154-1.67749.097938-3.974609 1.527771-4.765198 3.002388-7.097839 13.238891-18.425049 19.507316-33.002563 19.505142-14.62085-.002182-26.644867-5.712822-33.733918-19.156738-1.686248-3.197876-3.70285-3.536263-6.694213-3.530976-54.65094.096619-109.302033.165367-163.953064.16478-56.486298-.000603-112.972611-.082642-169.458908-.1269-7.995797-.006264-15.996377-.143326-23.983292.123306-1.553207.051857-3.786102 1.324631-4.466538 2.663765-8.568031 16.862381-25.614196 22.539437-42.173809 18.813614-18.019477-4.054275-29.376237-19.167228-29.161874-37.330658.21174-17.941349 11.461752-32.29632 28.781431-36.724985 16.869514-4.313558 33.7117 3.033568 42.22747 18.800616 1.432213 2.651752 3.075089 2.911819 5.511307 2.909645 54.155731-.048371 108.311478-.074528 162.467224-.073376 64.487366.001369 128.974823.002609 193.461975.124123 3.869141.007289 5.981018-.952496 8.084839-4.58984 14.130463-24.430512 51.09967-24.326604 65.128662.157569 1.974121 3.445317 3.924927 4.440716 7.674927 4.437348 108.478577-.097515 216.957275-.078789 325.935913-.078774z" fill="#c57035"/><path d="m1076.867554 395.336304c-7.762085-6.694825-9.211548-16.612976-3.692261-26.426209 5.830078-10.365387 14.468872-18.28714 24.161011-24.836517 10.585205-7.152924 21.686279-13.54245 32.857666-20.447113.8302 1.470093 1.43872 2.212005 1.700561 3.060821 5.14502 16.677735 10.254761 33.366394 15.353516 50.058319.387695 1.26944.683105 2.571381.94873 3.873017 2.052002 10.058136-2.317871 16.807068-12.504882 17.136993-16.95813.549073-33.949219.21994-50.923096.004761-2.533203-.032135-5.048584-1.456482-7.901245-2.424072z" fill="#fdfdfd"/></svg>