<svg enable-background="new 0 0 2238 760" viewBox="0 0 2238 760" xmlns="http://www.w3.org/2000/svg"><path d="m1679 761c-559.666626 0-1118.833313 0-1678 0 0-253.333344 0-506.666672 0-760h2238v760c-186.5 0-373 0-560 0m-1259.445435-51.703552c7.587616-20.369263 7.520691-40.678955-.653869-61.65326-14.722595-31.849243-41.774445-43.231445-75.072968-44.524658 0-81.335632 0-162.234039 0-243.287414-6.752716 0-13.085083-.218293-19.386535.12738-2.001618.109772-4.485932 1.229492-5.78769 2.724457-9.734253 11.178894-19.353607 22.465485-28.685119 33.980774-1.781281 2.198181-3.002014 5.556305-3.009125 8.382995-.165771 65.651154-.128143 131.302826-.128143 196.954377v5.439392c-.289276-.384278-.578522-.768555-.867798-1.152832-17.434815 7.701538-35.2995 14.569763-52.207886 23.291931-28.261352 14.578491-53.500458 33.651306-76.638336 55.479492-1.28299 1.210388-2.92833 2.036682-4.948181 3.411377 0-2.906006 0-4.737854 0-6.569763 0-81.98114.031433-163.962342-.051773-245.94339-.007767-7.642639-.255204-15.347229-1.231354-22.914703-2.630035-20.389466-12.068192-36.703217-30.902733-46.067322-23.694061-11.780213-48.242691-11.473084-72.70488-2.603974-17.675171 6.408356-29.394909 19.053162-35.047473 37.052826-3.550481 11.305939-4.320285 22.904877-2.188199 34.554779 4.457148 24.354248 18.175875 41.063446 41.907799 48.724549 14.076035 4.544098 28.454476 4.924804 43.216293-.042328v260.339844c16.938881 0 33.426362-.257813 49.897568.146728 5.401459.132629 8.783371-1.672363 12.192505-5.644104 27.804901-32.393799 58.535126-61.566894 95.220291-83.838623 10.840424-6.581299 22.3526-12.055908 34.354157-18.463257 0 12.064514-.13974 22.395142.039337 32.720215.178924 10.316956.290924 20.659241 1.111664 30.936157 1.98648 24.873291 17.187408 42.404724 41.230896 48.465454 12.485016 3.147095 25.116485 3.575623 37.683563 1.501587 24.784576-4.09021 42.968445-16.977783 52.657989-41.528686m1053.281128-233.796387c-.286499-20.150177.615479-40.405518-1.156616-60.424194-2.275879-25.713196-15.845215-44.042633-41.105469-52.412812-16.707641-5.536224-33.665893-5.69815-50.752441-1.969635-12.610596 2.751831-24.039917 7.866547-33.134521 17.27356-14.392212 14.886627-18.082276 33.286133-16.593018 53.096771 2.063843 27.455658 20.139404 48.500336 46.842407 54.898438 12.693848 3.041473 25.379761 3.214477 38.578613-1.317627v260.357452c18.773926 0 36.93042.059998 55.084717-.111572 1.483765-.014099 3.240967-1.327576 4.384278-2.508667 14.707397-15.191101 28.845092-30.968872 44.084228-45.601379 20.862427-20.03241 44.283814-36.807129 69.92627-50.308838 5.760009-3.032837 11.894287-5.354798 18.502563-8.291199 0 15.418152-.158081 29.733765.067017 44.043396.112304 7.142395.436767 14.348083 1.508545 21.396912 3.971679 26.119079 18.706298 41.906066 44.520507 46.281311 10.358033 1.755554 21.26001 1.906189 31.747681.95288 20.445313-1.858581 37.030884-11.325378 48.379883-28.858642 10.296387-15.907105 13.005127-33.476196 11.406372-52.112488-2.461914-28.69696-22.796753-54.207703-50.513062-61.864014-9.540283-2.635498-19.465942-3.875976-29.816284-5.869445 0-80.170899 0-161.068268 0-242.32074-6.775512 0-13.092407-.245178-19.371216.135925-2.135253.129547-4.770629 1.315857-6.162231 2.907135-9.868164 11.284607-19.577881 22.713959-29.058838 34.325226-1.595825 1.954315-2.59314 5.010712-2.598511 7.560577-.139282 65.821381-.110229 131.643097-.110229 197.464814 0 1.783935.000122 3.567932.000122 5.232177-51.779907 15.583557-94.837524 44.839478-134.660767 81.906006 0-72.242065 0-142.551636 0-213.861328m700.572022 246.999878v26.656799c6.988769 0 13.317139.215332 19.615234-.125732 1.997803-.108215 4.483155-1.204712 5.778565-2.691284 9.850341-11.303406 19.572998-22.724366 29.041748-34.347718 1.697021-2.083313 2.876953-5.269897 2.882568-7.94989.1521-74.983703.248047-149.9682-.00708-224.951385-.040527-11.9375-1.087158-23.978424-2.914551-35.778534-2.896728-18.705261-9.86792-35.857147-22.545166-50.358002-16.736084-19.143341-38.824707-28.123901-62.942138-32.987396-25.335694-5.109131-50.954834-5.671356-76.577637-2.799896-23.873291 2.675354-46.796387 8.716461-67.264893 21.962402-19.953247 12.912445-32.013061 30.327789-30.593506 55.091278.73462 12.815796 5.804688 23.251556 17.815064 29.155823 11.806518 5.804016 24.571655 6.344024 37.652588 6.61914.145019-1.931915.185913-3.407898.376465-4.864349 1.420288-10.862671 1.865478-21.974152 4.520629-32.528625 5.460938-21.707673 18.686402-37.080353 40.885254-42.993592 20.064453-5.344665 40.25-4.672485 60.093018 1.515259 17.281006 5.389008 29.111816 16.880585 36.091309 33.497162 5.298339 12.614716 7.77124 25.884094 7.806884 39.435699.225342 85.813935.217041 171.628449.285645 258.442841m-1706.674225-342.301697c-16.880981 11.662903-28.251953 26.724182-28.973816 48.050263-.505066 14.920776 3.498291 27.881958 17.950256 35.116272 11.760254 5.886871 24.56009 6.35675 37.639405 6.630798.145111-1.936859.186371-3.410431.375427-4.864777 1.390625-10.69693 1.869141-21.620178 4.415161-32.037048 5.522888-22.596313 19.397553-37.973846 42.400299-43.949768 15.057617-3.911926 30.345398-3.587769 45.618225-1.240112 23.503357 3.612762 40.742432 15.483825 49.729737 38.067047 6.466919 16.250244 7.539917 33.304229 7.53363 50.540527-.032166 88.633759-.01471 177.267487-.014526 265.901215v6.744201c6.744262 0 12.908569.271912 19.026794-.140381 2.293213-.154418 5.129334-1.329467 6.608826-3.013549 9.783325-11.136231 19.376159-22.446778 28.742614-33.935791 1.701966-2.087586 2.932251-5.256348 2.937806-7.928955.155029-75.138489.247619-150.27771-.003907-225.415619-.039367-11.769348-.929748-23.676667-2.886901-35.273743-7.302613-43.271271-32.766358-70.05072-75.178406-81.021423-28.931824-7.483704-58.266114-8.397278-87.742798-5.151093-24.046906 2.648163-47.036438 9.062744-68.177826 22.921936m-252.894669-367.979238c-24.559616 12.005327-33.828918 40.442106-20.747772 63.650846 11.673035 20.710388 49.047745 28.475937 69.76741 14.535195 1.585999-1.067109 3.396546-1.800461 5.102753-2.688942.314819.55896.629639 1.11792.944428 1.676887-13.565552 26.722717-38.991608 34.986153-65.597626 40.937103v17.671921c29.32225 0 58.31253.708817 87.250488-.217132 24.559967-.785859 48.556366-5.694153 70.968994-16.438904 22.910736-10.983528 39.947876-27.316872 46.847138-52.597237 2.83374-10.383407 4.187561-21.033741 2.317901-31.627659-2.98352-16.905023-23.819244-22.98899-39.743286-20.839821-.993377 9.84512-1.498993 19.677536-3.059814 29.339489-3.437744 21.280999-12.124115 39.837479-30.660492 52.204483-16.443024 10.97036-35.229645 14.272896-54.579132 15.108628-.941712.040672-2.714234-.729706-2.730286-1.172089-.046173-1.272522.253052-2.870216 1.044129-3.814308 15.798248-18.853973 20.36206-40.726036 17.085632-64.528992-2.775574-20.164413-12.734619-35.415779-32.582825-42.190737-16.858627-5.754493-34.018341-5.49494-51.62764.991269m1328.287888 83.25778c16.394653 3.519188 32.087646 2.341163 46.757812-7.214997-13.140747 27.737915-38.378662 36.167366-65.159423 42.054604v17.492828c30.449829 0 60.597412.821274 90.676025-.263244 23.509033-.847657 46.479126-5.961624 67.923096-16.332337 32.171875-15.558975 49.625732-40.686783 49.653686-76.973674.007324-9.593201-3.333984-17.597378-12.017944-22.622191-8.935181-5.170084-18.717285-6.092419-28.72522-5.912479-.438843 6.697149-.665283 13.016683-1.300659 19.294805-1.728394 17.076451-5.643921 33.530251-16.227173 47.510475-17.766235 23.468224-43.471924 28.923745-70.766846 30.417061-.916748.050156-2.409912-.649284-2.692016-1.36882-.318482-.812408.19165-2.202026.76355-3.058754 1.195678-1.791122 2.746338-3.34066 4.015503-5.088081 12.939453-17.815689 16.387695-37.993447 13.703857-59.276627-2.161133-17.137672-9.471191-31.892757-25.715698-39.760356-20.245117-9.805319-41.242188-10.070488-61.669068-.474658-16.926025 7.951229-25.363647 25.593825-22.98059 45.353357 2.266723 18.794491 14.039672 31.638577 33.761108 36.223088m146.67749 109.306801c-6.319458-9.028092-14.256347-16.141587-24.172363-21.116028-18.638062-9.3499-38.375366-10.626251-58.414185-7.276489-20.826538 3.48146-37.842285 13.508987-48.369262 32.537826-8.196289 14.81572-10.131104 30.870194-7.820557 47.42215 3.14917 22.559204 14.206787 39.829101 34.95459 50.190429 18.142944 9.060395 37.431763 10.254334 56.988037 7.040772 19.822754-3.257324 37.072632-11.893097 47.441528-29.828095 14.967774-25.889648 14.163941-52.268524-.607788-78.970565m-1324.685089 85.818771c1.655121-2.290161 3.427246-4.505554 4.946167-6.88269 9.41275-14.731232 11.520325-31.131348 9.765839-47.99289-2.435364-23.405334-13.601319-41.411728-35.063233-52.213806-18.438537-9.28035-38.066131-10.392914-57.949737-7.149139-18.758728 3.060257-34.606552 11.669982-45.57782 27.768005-10.469849 15.36232-12.907669 32.721039-10.936524 50.643707 2.236252 20.333405 11.318604 37.016541 29.015351 48.289398 16.923218 10.780152 35.71405 13.224549 55.135437 11.568085 19.47409-1.66095 36.947174-8.234619 50.66452-24.03067z" fill="#fff"/><path d="m1472.835693 476.000092v213.361297c39.823243-37.066528 82.88086-66.322449 134.660767-81.906006 0-1.664245-.000122-3.448242-.000122-5.232177 0-65.821717-.029053-131.643433.110229-197.464814.005371-2.549865 1.002686-5.606262 2.598511-7.560577 9.480957-11.611267 19.190674-23.040619 29.058838-34.325226 1.391602-1.591278 4.026978-2.777588 6.162231-2.907135 6.278809-.381103 12.595704-.135925 19.371216-.135925v242.32074c10.350342 1.993469 20.276001 3.233947 29.816284 5.869445 27.716309 7.656311 48.051148 33.167054 50.513062 61.864014 1.598755 18.636292-1.109985 36.205383-11.406372 52.112488-11.348999 17.533264-27.93457 27.000061-48.379883 28.858642-10.487671.953309-21.389648.802674-31.747681-.95288-25.814209-4.375245-40.548828-20.162232-44.520507-46.281311-1.071778-7.048829-1.396241-14.254517-1.508545-21.396912-.225098-14.309631-.067017-28.625244-.067017-44.043396-6.608276 2.936401-12.742554 5.258362-18.502563 8.291199-25.642456 13.501709-49.063843 30.276428-69.92627 50.308838-15.239136 14.632507-29.376831 30.410278-44.084228 45.601379-1.143311 1.181091-2.900513 2.494568-4.384278 2.508667-18.154297.17157-36.310791.111572-55.084717.111572 0-86.732971 0-173.260254 0-260.357452-13.198852 4.532104-25.884765 4.3591-38.578613 1.317627-26.703003-6.398102-44.778564-27.44278-46.842407-54.898438-1.489258-19.810638 2.200806-38.210144 16.593018-53.096771 9.094604-9.407013 20.523925-14.521729 33.134521-17.27356 17.086548-3.728515 34.0448-3.566589 50.752441 1.969635 25.260254 8.370179 38.82959 26.699616 41.105469 52.412812 1.772095 20.018676.870117 40.274017 1.156616 60.924225m-41.901977-71.302094c-.919312-1.565674-1.720825-3.215973-2.776001-4.68399-10.989868-15.290711-39.775879-15.485718-52.700195-5.564393-9.265381 7.112549-11.754273 17.246338-12.222413 28.234742-.706176 16.573547 5.832154 29.0867 19.247071 34.500335 11.513061 4.64621 23.61206 4.835266 34.744384-.975616 5.021851-2.62143 10.093628-6.990753 12.787598-11.86792 6.877319-12.450623 6.712402-25.769379.919556-39.643158m234.202026 305.313416c1.511231 5.446411 3.688599 10.295044 9.592652 12.447326 9.746582 3.553223 20.676391.74408 26.83374-7.644043 12.105102-16.49115 12.808105-34.789489 7.66748-53.776916-5.212524-19.25293-25.376343-30.348877-44.88977-28.596924-.096924.13147-.278321.262817-.278565.39447-.029052 19.148926-.127685 38.29834-.014526 57.446472.037231 6.302552.624512 12.601807 1.088989 19.729615z" fill="#010101"/><path d="m419.109924 709.788574c-9.244903 24.058777-27.428772 36.94635-52.213348 41.03656-12.567078 2.074036-25.198547 1.645508-37.683563-1.501587-24.043488-6.06073-39.244416-23.592163-41.230896-48.465454-.82074-10.276916-.93274-20.619201-1.111664-30.936157-.179077-10.325073-.039337-20.655701-.039337-32.720215-12.001557 6.407349-23.513733 11.881958-34.354157 18.463257-36.685165 22.271729-67.41539 51.444824-95.220291 83.838623-3.409134 3.971741-6.791046 5.776733-12.192505 5.644104-16.471206-.404541-32.958687-.146728-49.897568-.146728 0-86.718506 0-173.27118 0-260.339844-14.761817 4.967132-29.140258 4.586426-43.216293.042328-23.731924-7.661103-37.450651-24.370301-41.907799-48.724549-2.132086-11.649902-1.362282-23.24884 2.188199-34.554779 5.652564-17.999664 17.372302-30.64447 35.047473-37.052826 24.462189-8.86911 49.010819-9.176239 72.70488 2.603974 18.834541 9.364105 28.272698 25.677856 30.902733 46.067322.97615 7.567474 1.223587 15.272064 1.231354 22.914703.083206 81.981048.051773 163.96225.051773 245.94339v6.569763c2.019851-1.374695 3.665191-2.200989 4.948181-3.411377 23.137878-21.828186 48.376984-40.901001 76.638336-55.479492 16.908386-8.722168 34.773071-15.590393 52.207886-23.291931.289276.384277.578522.768554.867798 1.152832 0-1.813111 0-3.626282 0-5.439392 0-65.651551-.037628-131.303223.128143-196.954377.007111-2.82669 1.227844-6.184814 3.009125-8.382995 9.331512-11.515289 18.950866-22.80188 28.685119-33.980774 1.301758-1.494965 3.786072-2.614685 5.78769-2.724457 6.301452-.345673 12.633819-.12738 19.386535-.12738v243.287414c33.298523 1.293213 60.350373 12.675415 75.083832 45.311158.073364 20.977355.135864 41.16809.198364 61.358886m-325.787033-319.798675c-4.579139-.766022-9.15152-2.132294-13.738716-2.18393-13.011787-.146606-25.155064 2.532257-31.956814 15.183686-6.598385 12.273132-6.944236 25.408416-1.699611 38.107421 7.927246 19.19458 37.006218 25.801392 54.834098 13.135224 10.130013-7.197083 13.254548-17.565125 13.502968-29.106476.323372-15.023224-4.366295-29.104126-20.941925-35.135925m250.157883 311.240875c.208313 2.485901.22406 5.005981.658752 7.45166 1.761139 9.908264 7.820679 15.092529 17.952851 15.245789 10.022033.151611 16.954223-5.060242 21.924255-13.286316 7.431366-12.299866 8.425018-25.877747 6.851502-39.630677-3.000061-26.221984-22.616974-39.832214-47.38733-38.610778 0 22.613098 0 45.249572-.00003 68.830322z" fill="#010101"/><path d="m2173.407715 721.999878c-.068604-86.314331-.060303-172.128845-.285645-257.94278-.035644-13.551605-2.508545-26.820983-7.806884-39.435699-6.979493-16.616577-18.810303-28.108154-36.091309-33.497162-19.843018-6.187744-40.028565-6.859924-60.093018-1.515259-22.198852 5.913239-35.424316 21.285919-40.885254 42.993592-2.655151 10.554473-3.100341 21.665954-4.520629 32.528625-.190552 1.456451-.231446 2.932434-.376465 4.864349-13.080933-.275116-25.84607-.815124-37.652588-6.61914-12.010376-5.904267-17.080444-16.340027-17.815064-29.155823-1.419555-24.763489 10.640259-42.178833 30.593506-55.091278 20.468506-13.245941 43.391602-19.287048 67.264893-21.962402 25.622803-2.87146 51.241943-2.309235 76.577637 2.799896 24.117431 4.863495 46.206054 13.844055 62.942138 32.987396 12.677246 14.500855 19.648438 31.652741 22.545166 50.358002 1.827393 11.80011 2.874024 23.841034 2.914551 35.778534.255127 74.983185.15918 149.967682.00708 224.951385-.005615 2.679993-1.185547 5.866577-2.882568 7.94989-9.46875 11.623352-19.191407 23.044312-29.041748 34.347718-1.29541 1.486572-3.780762 2.583069-5.778565 2.691284-6.298095.341064-12.626465.125732-19.615234.125732 0-9.105652 0-17.881225 0-27.15686z" fill="#c47034"/><path d="m467.038086 380.006531c20.836792-13.667481 43.826324-20.082062 67.87323-22.730225 29.476684-3.246185 58.810974-2.332611 87.742798 5.151093 42.412048 10.970703 67.875793 37.750152 75.178406 81.021423 1.957153 11.597076 2.847534 23.504395 2.886901 35.273743.251526 75.137909.158936 150.27713.003907 225.415619-.005555 2.672607-1.23584 5.841369-2.937806 7.928955-9.366455 11.489013-18.959289 22.79956-28.742614 33.935791-1.479492 1.684082-4.315613 2.859131-6.608826 3.013549-6.118225.412293-12.282532.140381-19.026794.140381 0-2.498779 0-4.62146 0-6.744201-.000184-88.633728-.01764-177.267456.014526-265.901215.006287-17.236298-1.066711-34.290283-7.53363-50.540527-8.987305-22.583222-26.22638-34.454285-49.729737-38.067047-15.272827-2.347657-30.560608-2.671814-45.618225 1.240112-23.002746 5.975922-36.877411 21.353455-42.400299 43.949768-2.54602 10.41687-3.024536 21.340118-4.415161 32.037048-.189056 1.454346-.230316 2.927918-.375427 4.864777-13.079315-.274048-25.879151-.743927-37.639405-6.630798-14.451965-7.234314-18.455322-20.195496-17.950256-35.116272.721863-21.326081 12.092835-36.38736 29.278412-48.241974z" fill="#c47034"/><path d="m214.205704 12.102462c17.242416-6.369667 34.40213-6.62922 51.260757-.874727 19.848206 6.774958 29.807251 22.026324 32.582825 42.190737 3.276428 23.802956-1.287384 45.675019-17.085632 64.528992-.791077.944092-1.090302 2.541786-1.044129 3.814308.016052.442383 1.788574 1.212761 2.730286 1.172089 19.349487-.835732 38.136108-4.138268 54.579132-15.108628 18.536377-12.367004 27.222748-30.923484 30.660492-52.204483 1.560821-9.661953 2.066437-19.494369 3.059814-29.339489 15.924042-2.149169 36.759766 3.934798 39.743286 20.839821 1.86966 10.593918.515839 21.244252-2.317901 31.627659-6.899262 25.280365-23.936402 41.613709-46.847138 52.597237-22.412628 10.744751-46.409027 15.653045-70.968994 16.438904-28.937958.925949-57.928238.217132-87.250488.217132 0-6.574844 0-11.986664 0-17.671921 26.606018-5.95095 52.032074-14.214386 65.597626-40.937103-.314789-.558967-.629609-1.117927-.944428-1.676887-1.706207.888481-3.516754 1.621833-5.102753 2.688942-20.719665 13.940742-58.094375 6.175193-69.76741-14.535195-13.081146-23.20874-3.811844-51.645519 21.114655-63.767388m.77565 43.033643c1.19191 9.728084 6.720505 15.741664 16.109314 17.91045 3.82196.882858 7.921875 1.131179 11.848251.892761 15.229538-.924813 24.235001-14.630371 19.393173-29.154862-3.608185-10.823681-14.882766-16.308185-28.666427-13.944685-12.719925 2.181105-19.028977 10.063166-18.684311 24.296336z" fill="#020202"/><path d="m1541.72876 95.347404c-19.323487-4.455131-31.096436-17.299217-33.363159-36.093708-2.383057-19.759532 6.054565-37.402128 22.98059-45.353357 20.42688-9.59583 41.423951-9.330661 61.669068.474658 16.244507 7.867599 23.554565 22.622684 25.715698 39.760356 2.683838 21.28318-.764404 41.460938-13.703857 59.276627-1.269165 1.747421-2.819825 3.296959-4.015503 5.088081-.5719.856728-1.082032 2.246346-.76355 3.058754.282104.719536 1.775268 1.418976 2.692016 1.36882 27.294922-1.493316 53.000611-6.948837 70.766846-30.417061 10.583252-13.980224 14.498779-30.434024 16.227173-47.510475.635376-6.278122.861816-12.597656 1.300659-19.294805 10.007935-.17994 19.790039.742395 28.72522 5.912479 8.68396 5.024813 12.025268 13.02899 12.017944 22.622191-.027954 36.286891-17.481811 61.414699-49.653686 76.973674-21.44397 10.370713-44.414063 15.48468-67.923096 16.332337-30.078613 1.084518-60.226196.263244-90.676025.263244 0-6.518798 0-11.942718 0-17.492828 26.780761-5.887238 52.018676-14.316689 65.159423-42.054604-14.670166 9.55616-30.363159 10.734185-47.155761 7.085617m-6.382324-40.386158c1.12976 8.751313 5.694335 15.308384 14.180786 17.446873 5.754394 1.450035 12.300293 1.753342 18.103393.604889 12.349488-2.444 18.878662-14.061012 15.837036-26.176948-2.909423-11.589272-13.720703-18.089354-27.179077-16.340786-14.153076 1.838825-21.234985 9.791412-20.942138 24.465972z" fill="#020202"/><path d="m1688.974854 205.102753c14.601074 26.382873 15.404907 52.761749.437133 78.651397-10.368896 17.934998-27.618774 26.570771-47.441528 29.828095-19.556274 3.213562-38.845093 2.019623-56.988037-7.040772-20.747803-10.361328-31.80542-27.631225-34.95459-50.190429-2.310547-16.551956-.375732-32.60643 7.820557-47.42215 10.526977-19.028839 27.542724-29.056366 48.369262-32.537826 20.038819-3.349762 39.776123-2.073411 58.414185 7.276489 9.916016 4.974441 17.852905 12.087936 24.343018 21.435196m-38.829468 70.615143c11.003784-8.024537 13.486938-19.701935 13.336426-32.230164-.100831-8.391449-2.003785-16.380585-7.147583-23.442612-11.675416-16.02977-43.044556-16.277603-56.73938-6.490082-11.232788 8.028061-14.060547 19.627945-13.894776 32.455094.147095 11.384735 2.916992 21.796051 12.45398 29.158874 13.025268 10.055878 37.151733 10.43927 51.991333.54889z" fill="#c57034"/><path d="m363.894135 290.878418c-13.492371 15.519989-30.965455 22.093658-50.439545 23.754608-19.421387 1.656464-38.212219-.787933-55.135437-11.568085-17.696747-11.272857-26.779099-27.955993-29.015351-48.289398-1.971145-17.922668.466675-35.281387 10.936524-50.643707 10.971268-16.098023 26.819092-24.707748 45.57782-27.768005 19.883606-3.243775 39.5112-2.131211 57.949737 7.149139 21.461914 10.802078 32.627869 28.808472 35.063233 52.213806 1.754486 16.861542-.353089 33.261658-9.765839 47.99289-1.518921 2.377136-3.291046 4.592529-5.171142 7.158752m-98.448548-52.714523c-.081726 3.820205-.495361 7.667282-.188598 11.456039 1.437438 17.755188 10.837829 28.750519 27.340301 32.218933 9.141144 1.921234 18.427368 1.860901 27.098541-1.312713 5.405274-1.978333 11.024659-5.285004 14.753266-9.560608 9.917205-11.37201 10.178741-25.110443 6.861389-39.097535-2.375458-10.015823-8.102204-17.906188-17.980408-20.967285-7.612823-2.359115-15.894989-3.717346-23.848175-3.58818-19.153137.311096-30.711395 11.080642-34.036316 30.851349z" fill="#c57034"/><path d="m419.332245 709.54248c-.284821-19.944702-.347321-40.135437-.330658-60.749633 8.073669 19.824646 8.140594 40.134338.330658 60.749633z" fill="#c6743a"/><g fill="#fdfdfd"><path d="m1431.074219 405.051392c5.652343 13.520385 5.81726 26.839141-1.060059 39.289764-2.69397 4.877167-7.765747 9.24649-12.787598 11.86792-11.132324 5.810882-23.231323 5.621826-34.744384.975616-13.414917-5.413635-19.953247-17.926788-19.247071-34.500335.46814-10.988404 2.957032-21.122193 12.222413-28.234742 12.924316-9.921325 41.710327-9.726318 52.700195 5.564393 1.055176 1.468017 1.856689 3.118316 2.916504 5.037384z"/><path d="m1665.071411 709.5979c-.400146-6.714294-.987427-13.013549-1.024658-19.316101-.113159-19.148132-.014526-38.297546.014526-57.446472.000244-.131653.181641-.263.278565-.39447 19.513427-1.751953 39.677246 9.343994 44.88977 28.596924 5.140625 18.987427 4.437622 37.285766-7.66748 53.776916-6.157349 8.388123-17.087158 11.197266-26.83374 7.644043-5.904053-2.152282-8.081421-7.000915-9.656983-12.86084z"/><path d="m93.699852 390.10376c16.198669 5.917938 20.888336 19.99884 20.564964 35.022064-.24842 11.541351-3.372955 21.909393-13.502968 29.106476-17.82788 12.666168-46.906852 6.059356-54.834098-13.135224-5.244625-12.699005-4.898774-25.834289 1.699611-38.107421 6.80175-12.651429 18.945027-15.330292 31.956814-15.183686 4.587196.051636 9.159577 1.417908 14.115677 2.297791z"/></g><path d="m343.480774 700.758667c.00003-23.108643.00003-45.745117.00003-68.358215 24.770356-1.221436 44.387269 12.388794 47.38733 38.610778 1.573516 13.75293.579864 27.330811-6.851502 39.630677-4.970032 8.226074-11.902222 13.437927-21.924255 13.286316-10.132172-.15326-16.191712-5.337525-17.952851-15.245789-.434692-2.445679-.450439-4.965759-.658752-7.923767z" fill="#fbfbfb"/><path d="m214.955811 54.691231c-.319123-13.788296 5.989929-21.670357 18.709854-23.851462 13.783661-2.3635 25.058242 3.121004 28.666427 13.944685 4.841828 14.524491-4.163635 28.230049-19.393173 29.154862-3.926376.238418-8.026291-.009903-11.848251-.892761-9.388809-2.168786-14.917404-8.182366-16.134857-18.355324z" fill="#fcfcfc"/><path d="m1535.298584 54.540447c-.244995-14.253761 6.836914-22.206348 20.98999-24.045173 13.458374-1.748568 24.269654 4.751514 27.179077 16.340786 3.041626 12.115936-3.487548 23.732948-15.837036 26.176948-5.8031 1.148453-12.348999.845146-18.103393-.604889-8.486451-2.138489-13.051026-8.69556-14.228638-17.867672z" fill="#fcfcfc"/><g fill="#fffefe"><path d="m1649.843384 275.921387c-14.537598 9.686889-38.664063 9.303497-51.689331-.752381-9.536988-7.362823-12.306885-17.774139-12.45398-29.158874-.165771-12.827149 2.661988-24.427033 13.894776-32.455094 13.694824-9.787521 45.063964-9.539688 56.73938 6.490082 5.143798 7.062027 7.046752 15.051163 7.147583 23.442612.150512 12.528229-2.332642 24.205627-13.638428 32.433655z"/><path d="m265.523865 237.730865c3.246643-19.337677 14.804901-30.107223 33.958038-30.418319 7.953186-.129166 16.235352 1.229065 23.848175 3.58818 9.878204 3.061097 15.60495 10.951462 17.980408 20.967285 3.317352 13.987092 3.055816 27.725525-6.861389 39.097535-3.728607 4.275604-9.347992 7.582275-14.753266 9.560608-8.671173 3.173614-17.957397 3.233947-27.098541 1.312713-16.502472-3.468414-25.902863-14.463745-27.340301-32.218933-.306763-3.788757.106872-7.635834.266876-11.889069z"/></g></svg>