<svg enable-background="new 0 0 2696 1368" viewBox="0 0 2696 1368" xmlns="http://www.w3.org/2000/svg"><path d="m2024 1369c-674.666626 0-1348.833313 0-2023 0 0-456 0-912 0-1368h2696v1368c-224.166748 0-448.333252 0-673 0m522.638672-666.269043c13.186523 4.340881 22.057373 13.183655 27.254394 25.947144 4.872071 11.965515 5.918457 24.536254 5.920166 37.242553.026856 195.160096.018555 390.320191.018555 585.480347v6.097534c13.744629 0 26.891113.073364 40.03418-.11438 1.302002-.018554 2.858154-1.39624 3.830322-2.539306 18.998779-22.336182 37.880615-44.771973 56.933838-67.061402 2.330322-2.726318 3.275391-5.37268 3.273682-8.939941-.080323-166.327759-.01001-332.655518-.189454-498.983093-.013427-12.611695-.815917-25.368287-2.81665-37.805725-7.022461-43.657044-31.256103-73.274109-73.648682-87.216431-30.625244-10.072205-62.123291-10.878479-93.901611-8.341492-16.914795 1.350281-33.202881 5.27002-48.545898 12.48761-24.273682 11.41864-40.372803 30.938049-52.652344 54.135742-13.559082 25.614624-22.141846 53.081604-30.120361 80.759522-18.068848 62.68219-35.482911 125.558838-54.17334 188.054199-15.01709 50.212402-31.615235 99.950561-47.313477 149.961304-6.021972 19.184326-11.493896 38.541626-17.221924 57.838745-1.70288 0-3.298339 0-4.826416 0 1.260254-12.989624 2.926758-25.699341 3.654541-38.462525 2.788086-48.898559 6.617676-97.78833 7.564453-146.729736 1.489014-76.972107 1.153321-153.983337 1.096924-230.977722-.009521-12.720093-1.451416-25.668579-4.094726-38.115784-9.217041-43.400268-35.643067-71.052856-78.467041-82.978454-24.651367-6.86493-49.713867-7.26233-74.808594-4.016236-18.438477 2.38501-36.049072 8.015076-51.931152 18.068726-27.846924 17.627746-43.785279 43.049865-48.862793 75.437988-4.033081 25.725403-2.11316 50.931458 8.520263 74.864746 20.959351 47.173462 65.637207 66.894714 112.190674 65.561157 11.170654-.320007 22.27417-3.002258 33.686768-4.637939v472.252624h5.263183c29.499024 0 58.99878-.096191 88.496338.112793 4.02002.028443 5.675781-1.116088 6.904297-4.917846 59.349365-183.635742 118.790283-367.241944 178.268555-550.835938 6.456054-19.927307 11.973144-40.218445 22.315429-58.686767 16.615967-29.671997 42.77295-41.742493 78.347901-32.942017m-2062.635803 132.850281c.942779 19.458862 2.674408 38.916626 2.703216 58.376831.225769 152.499451.125092 304.999328.125092 457.499084v6.043335c13.631073 0 26.613586.084229 39.591675-.117187 1.463623-.022827 3.252502-1.359986 4.300354-2.590454 19.228698-22.579224 38.413452-45.196534 57.4375-67.947998 1.524963-1.823853 2.563354-4.682373 2.565551-7.061402.120728-131.166382.127564-262.332824.087586-393.499267-.007691-25.381409-2.170105-50.556885-7.907654-75.353089-14.520203-62.751709-49.88501-109.115966-108.144928-137.39685-32.245758-15.652954-66.609558-24.063904-101.980896-28.281006-50.538361-6.025208-101.096436-5.456238-151.487335 1.888611-31.613465 4.60791-62.211823 12.876953-91.033692 27.021667-36.789886 18.054993-65.693222 44.370117-85.292747 80.6651-19.10322 35.375794-26.462969 73.743408-28.763806 113.267273-2.038199 35.012268.031975 69.980835 4.034634 104.782593 5.402807 46.975586 11.3914 93.883484 16.98436 140.837585 5.186832 43.544556 8.112598 87.26001 8.611317 131.104371.379116 33.329223.133598 66.665649.165691 99.998779.001556 1.615234.000198 3.230347.000198 4.921387h105.502083c0-12.397461-.047485-24.538453.008164-36.678955.248046-54.12439 5.227081-107.74878 17.528579-160.544556 8.263214-35.463989 19.325257-69.929932 38.067444-101.476929 1.014771-1.708008 2.726196-3.002197 4.113388-4.489014 1.110214 1.547608 2.493515 2.966919 3.288895 4.662232 8.952942 19.082886 22.408127 34.060425 41.695984 42.691284 35.539062 15.902954 72.079925 16.554566 108.491211 3.560669 22.282318-7.951782 39.862152-22.537842 51.719909-43.403198 16.849579-29.649048 18.947419-61.299317 11.930176-93.884339-5.765167-26.770752-19.577148-48.561401-42.467773-64.14862-18.666016-12.710571-39.645996-18.189392-61.869721-20.386597-48.970978-4.841675-88.706848 12.48822-120.492798 49.331909-21.366851 24.766663-35.993026 53.49054-48.339126 83.4776-12.689575 30.821351-22.890244 62.496521-31.615952 94.647889-.995964 3.669799-2.350502 5.666503-6.590301 3.636962 0-2.248535.065201-4.572143-.009804-6.891113-1.104103-34.138672-1.897484-68.291504-3.431603-102.41095-1.773689-39.447814-5.079551-78.843627-3.514396-118.382385 1.023567-25.857361 4.010612-51.430786 11.918365-76.224487 14.666374-45.984741 44.428505-77.209168 90.376366-92.761902 23.72052-8.029175 48.185577-11.530029 73.080078-12.40509 36.300781-1.276123 72.287994.614685 107.095673 12.287109 32.890411 11.02948 58.030273 31.375061 73.73233 62.629028 9.823181 19.55243 14.894714 40.529602 17.786713 63.00409m1326.140686 499.0849c20.244507-15.467163 31.504272-36.593262 37.998779-60.647339 7.224609-26.757813 8.828613-54.161133 8.837524-81.697998.044434-138.997193.133179-277.994751-.159423-416.991394-.028199-13.387696-1.447266-27.003479-4.16626-40.109803-7.233521-34.86676-26.459595-61.015808-59.406494-75.972106-14.809082-6.722657-30.484986-10.523682-46.712647-11.785767-28.881592-2.246155-57.246216-.423584-84.237182 11.364258-25.121094 10.97113-44.163941 28.420349-55.122437 53.725403-11.915771 27.51538-13.238769 56.110351-6.493164 85.132202 5.872437 25.266418 18.801636 46.315857 39.953369 61.434265 27.975586 19.995605 59.624268 26.173279 93.426758 22.011658 6.290893-.774475 12.425781-2.816956 18.769409-4.306336v5.644653c0 119.330994.102539 238.662293-.170044 357.992615-.025268 11.053955-1.622192 22.274292-3.917847 33.11499-3.951293 18.660401-14.950683 31.286744-34.411254 35.101929-12.697876 2.48938-25.461792 2.38208-38.303711.973877-19.78125-2.169311-34.60315-12.133545-43.593628-29.445312-8.332886-16.045411-16.621094-32.421631-22.176026-49.545288-17.814575-54.91626-34.290161-110.26587-51.411132-165.408326-8.927857-28.754394-17.271119-57.718017-29.893189-85.18927-12.730225-27.706909-32.249512-47.872986-62.280884-56.351623-17.931518-5.062622-36.401489-6.076782-54.895385-6.563172-8.239502-.216735-16.489502-.036621-24.663086-.036621v46.708496c.851318.253357 1.614257.593628 2.408691.700196 14.701538 1.972473 24.856812 10.482422 32.345703 22.670532 9.829956 15.998596 16.47937 33.445373 22.005005 51.248718 13.958618 44.974365 27.460571 90.090332 41.18396 135.13794 10.912476 35.821167 21.600098 71.742553 37.926758 105.600708 8.649658 17.937866 19.252807 34.586303 34.033935 48.298828 20.945069 19.430908 46.569092 27.880615 74.117432 31.460815 38.671387 5.025635 77.425659 5.518433 116.084961-.111084 22.46875-3.271728 43.785522-9.995605 62.921509-24.160644m-627.309449-283.166016c-.003173-27.195801-1.112548-54.27887-7.849365-80.826355-12.17456-47.974731-41.605835-79.671753-88.918335-94.672119-23.550171-7.466553-47.758911-10.757263-72.328186-10.879089-63.997314-.317383-127.996704-.222168-191.995239-.291077-1.972046-.002136-3.944092-.000305-6.74115-.000305.699707-10.241028.845703-20.074402 2.133545-29.755799 3.580994-26.919311 14.597107-50.268798 34.504517-69.14392 26.619995-25.239625 59.289428-35.346497 94.911254-37.792969 30.628663-2.103516 60.30542 3.73529 89.725098 11.482116 36.653687 9.651612 72.980957 20.892457 111.219605 22.916871 23.545898 1.24646 46.94873.896118 70.016235-4.813721 16.082764-3.980896 31.144897-10.089111 42.973144-22.071106 16.067017-16.276001 20.449585-36.428467 17.883423-58.480896-1.600952-13.758362-8.156128-24.721008-19.611816-33.014893-5.261475 7.865601-12.105225 13.571045-20.225952 17.667115-30.808594 15.539489-63.578613 18.230224-96.871094 12.425598-22.064209-3.846985-43.776611-9.958802-65.434204-15.838379-36.475098-9.902222-73.232483-17.033142-111.289734-15.65564-31.334106 1.134155-61.562866 7.260864-89.893494 20.704895-51.836731 24.598938-85.568237 65.34137-104.191162 119.184509-9.505615 27.483033-13.698547 55.884583-14.611206 84.789124-.529541 16.772034-.096252 33.574524-.096252 50.734741 2.05957 0 3.852966-.001098 5.646301.000122 66.165527.046509 132.331543-.034362 198.496277.217591 19.847046.075561 39.64093 1.765014 58.730896 7.701355 24.616211 7.654724 42.731323 22.49237 51.201416 47.677551 4.87207 14.486511 7.533813 29.39032 7.719726 44.586059.440308 35.993348.40625 71.992493.550538 107.989197.004394 1.121704-.139161 2.243897-.22522 3.540528-.92688-.048096-1.577881.008056-2.18689-.126221-20.17688-4.455567-40.374511-4.385864-60.412475.493164-34.30597 8.353516-59.386841 28.398926-74.237915 60.553345-10.684937 23.134155-12.937561 47.594238-10.42688 72.771362 4.477295 44.899902 31.50415 78.623413 74.523926 91.78064 30.111938 9.209472 60.694335 9.784301 91.312866 2.887085 41.307739-9.304688 67.392212-34.937012 79.105713-75.397095 5.942749-20.527222 6.85559-41.658081 6.874878-62.845459.050903-55.832642.017211-111.665405.017211-168.497925m1003.665894-509.345093h479.238037c0-75.653289 0-150.575897 0-226.000824-9.709473 0-19.171631-.204773-28.612793.150879-2.226806.083924-5.090332 1.499512-6.460449 3.244873-12.137207 15.464325-24.081055 31.08313-35.85669 46.824921-1.538085 2.055817-2.514648 5.058197-2.540771 7.63446-.20459 20.163269-.107666 40.329529-.126465 60.494873-.001221 1.300232-.19043 2.600281-.372803 4.931519-14.095214-28.822601-30.043945-45.102356-45.083252-57.564636-37.822021-31.341004-82.651855-44.919922-130.541748-49.806854-29.907714-3.051941-59.893066-2.336518-89.797607.942901-32.606689 3.575775-64.379395 10.479279-94.500977 23.838349-32.50122 14.414337-60.279785 34.736541-79.678955 65.133575-14.732666 23.084473-22.673584 48.518768-24.010986 75.801941-.714355 14.574768-.126709 29.213318-.126709 44.374084 19.233154 0 38.352783 0 58.472168-.000061m-1112.545776-15.600403c4.736206 2.437562 9.387207 5.059998 14.221801 7.28357 41.007691 18.860412 84.78357 24.980346 129.235352 26.857116 32.622803 1.37732 65.289673.652222 97.858887-2.552246 37.243896-3.664367 73.889038-10.068176 109.038452-23.341858 30.301269-11.44281 58.056152-27.003662 79.200928-52.250518 28.880371-34.483246 37.315185-74.398316 29.339965-117.969574-2.739502-14.966156-11.2677-26.727448-26.036499-32.5318-20.407837-8.020507-41.860839-8.17749-63.813842-8.081695 0 2.215027.028442 4.007477-.004517 5.798767-.312866 16.985046-.07898 34.003601-1.10498 50.94574-1.148072 18.957733-6.117554 37.117065-15.292481 53.880737-19.095581 34.889954-50.185303 53.716339-87.19812 64.297607-21.194214 6.059052-42.865112 9.619782-64.893799 10.642395-30.664551 1.423493-61.301025 1.927033-91.364014-5.916168-2.813354-.734009-7.237915-1.760284-7.749511-3.55368-1.206421-4.229157 3.823486-4.642029 6.400757-6.170319 15.145874-8.980957 28.385009-19.973022 37.200561-35.446472 9.203857-16.154633 11.921753-33.694824 10.056397-52.093994-3.03772-29.963257-16.725464-53.596954-42.660279-69.077698-34.866211-20.811951-72.529785-22.434845-111.118042-13.606567-19.561401 4.47525-37.193969 13.286255-50.275757 28.902405-23.975647 28.620452-28.266662 61.694152-17.723388 96.354309 10.629272 34.94284 35.796753 58.535217 66.682129 77.629943m321.694824-292.389541c12.720093-7.861771 26.359009-14.56572 37.99292-23.796417 39.187378-31.092484 55.644775-72.708878 53.366821-122.142975-.615723-13.363579-6.208374-24.732476-17.226318-32.406792-16.662232-11.60564-35.841797-13.966778-55.791626-13.763557-.105469 2.163372-.212036 3.803051-.261475 5.444446-.616577 20.493633-2.291504 40.841992-6.797729 60.929257-12.04419 53.690078-44.000611 88.41983-97.368897 102.916107-18.073242 4.909179-36.531738 7.316864-55.231567 7.854889-2.156494.062057-4.721558 2.107483-6.447266-1.516785-1.658569-3.482986-.861572-5.861633 1.633911-8.364029 2.109986-2.11586 4.129273-4.380508 5.848511-6.819137 27.249756-38.650238 34.220825-81.206467 22.143188-126.427308-8.257446-30.917018-28.393188-51.813629-59.47229-61.32964-20.253173-6.201224-40.957397-7.242558-61.783447-4.335483-16.495483 2.302569-31.963623 7.593092-45.434326 17.995396-18.325317 14.151047-27.329468 33.101238-29.30957 55.701435-2.965088 33.842392 10.296142 63.070465 43.268066 78.186478 17.030884 7.807815 35.182617 9.76709 53.697388 8.867157 15.668701-.761612 30.148315-5.283859 42.674072-14.94986 3.176392-2.451233 5.491089-2.374512 8.280029.560837-4.358398 11.0681-10.974731 20.675705-19.421997 29.169052-18.703125 18.804917-41.572754 30.325348-66.553467 37.993439-11.236572 3.449142-22.745239 6.011856-34.163452 8.985397v28.501312c1.226929.149048 2.191529.328461 3.162476.375 20.463745.980286 40.918945 2.309906 61.394653 2.838501 43.463135 1.12201 86.927979 1.802094 130.147217-4.584167 31.429321-4.644135 62.012817-12.195801 91.654175-25.882553m1238.749878 31.151321h6.20459c6.875-42.878113 13.651367-84.923874 20.337158-126.98407 1.82666-11.492614 4.564209-23.00151 4.828857-34.550033.686524-29.977509.230469-59.981182.230469-89.974411 0-1.573137 0-3.146276 0-4.607819-35.080566 0-69.348633 0-103.898682 0-.067627 1.208887-.168457 2.170744-.168701 3.132629-.008545 30.993001-.017578 61.986016.017578 92.978989.002198 1.817368.290284 3.646813.577393 5.449555 5.15625 32.369339 10.326904 64.736419 15.508301 97.101776 3.04541 19.021438 6.114746 38.039001 9.236816 57.453628 15.561035 0 30.854736 0 47.126221-.000244z" fill="#fff"/><g fill="#010101"><path d="m2546.280273 702.558899c-35.216552-8.628418-61.373535 3.442078-77.989502 33.114075-10.342285 18.468322-15.859375 38.75946-22.315429 58.686767-59.478272 183.593994-118.91919 367.200196-178.268555 550.835938-1.228516 3.801758-2.884277 4.946289-6.904297 4.917846-29.497558-.208984-58.997314-.112793-88.496338-.112793-1.626464 0-3.252929 0-5.263183 0 0-157.933105 0-315.505859 0-472.252624-11.412598 1.635681-22.516114 4.317932-33.686768 4.637939-46.553467 1.333557-91.231323-18.387695-112.190674-65.561157-10.633423-23.933288-12.553344-49.139343-8.520263-74.864746 5.077514-32.388123 21.015869-57.810242 48.862793-75.437988 15.88208-10.05365 33.492675-15.683716 51.931152-18.068726 25.094727-3.246094 50.157227-2.848694 74.808594 4.016236 42.823974 11.925598 69.25 39.578186 78.467041 82.978454 2.64331 12.447205 4.085205 25.395691 4.094726 38.115784.056397 76.994385.39209 154.005615-1.096924 230.977722-.946777 48.941406-4.776367 97.831177-7.564453 146.729736-.727783 12.763184-2.394287 25.472901-3.654541 38.462525h4.826416c5.728028-19.297119 11.199952-38.654419 17.221924-57.838745 15.698242-50.010743 32.296387-99.748902 47.313477-149.961304 18.690429-62.495361 36.104492-125.372009 54.17334-188.054199 7.978515-27.677918 16.561279-55.144898 30.120361-80.759522 12.279541-23.197693 28.378662-42.717102 52.652344-54.135742 15.343017-7.21759 31.631103-11.137329 48.545898-12.48761 31.77832-2.536987 63.276367-1.730713 93.901611 8.341492 42.392579 13.942322 66.626221 43.559387 73.648682 87.216431 2.000733 12.437438 2.803223 25.19403 2.81665 37.805725.179444 166.327575.109131 332.655334.189454 498.983093.001709 3.567261-.94336 6.213623-3.273682 8.939941-19.053223 22.289429-37.935059 44.72522-56.933838 67.061402-.972168 1.143066-2.52832 2.520752-3.830322 2.539306-13.143067.187744-26.289551.11438-40.03418.11438 0-2.241333 0-4.169433 0-6.097534 0-195.160156.008301-390.320251-.018555-585.480347-.001709-12.706299-1.048095-25.277038-5.920166-37.242553-5.197021-12.763489-14.067871-21.606263-27.612793-26.119202m-347.71997 36.511291c-5.231934-15.904113-15.144287-27.635742-30.956787-33.68457-19.523682-7.468506-39.408692-7.815857-59.104248-.970154-16.608155 5.772583-27.594971 17.523316-32.832276 34.353577-4.851562 15.590454-5.134521 31.444885-1.745849 47.348267 4.491699 21.080749 16.549316 35.610595 37.463378 42.01477 16.656739 5.100525 33.448975 4.862244 50.164551.201233 19.204346-5.354858 31.614014-17.902893 37.277344-36.821045 5.130371-17.136169 4.836426-34.45758-.266113-52.442078z"/><path d="m483.96637 835.136719c-2.8555-22.029969-7.927033-43.007141-17.750214-62.559571-15.702057-31.253967-40.841919-51.599548-73.73233-62.629028-34.807679-11.672424-70.794892-13.563232-107.095673-12.287109-24.894501.875061-49.359558 4.375915-73.080078 12.40509-45.947861 15.552734-75.709992 46.777161-90.376366 92.761902-7.907753 24.793701-10.894798 50.367126-11.918365 76.224487-1.565155 39.538758 1.740707 78.934571 3.514396 118.382385 1.534119 34.119446 2.3275 68.272278 3.431603 102.41095.075005 2.31897.009804 4.642578.009804 6.891113 4.239799 2.029541 5.594337.032837 6.590301-3.636962 8.725708-32.151368 18.926377-63.826538 31.615952-94.647889 12.3461-29.98706 26.972275-58.710937 48.339126-83.4776 31.78595-36.843689 71.52182-54.173584 120.492798-49.331909 22.223725 2.197205 43.203705 7.676026 61.869721 20.386597 22.890625 15.587219 36.702606 37.377868 42.467773 64.14862 7.017243 32.585022 4.919403 64.235291-11.930176 93.884339-11.857757 20.865356-29.437591 35.451416-51.719909 43.403198-36.411286 12.993897-72.952149 12.342285-108.491211-3.560669-19.287857-8.630859-32.743042-23.608398-41.695984-42.691284-.79538-1.695313-2.178681-3.114624-3.28891-4.662232-1.387177 1.486817-3.098602 2.781006-4.113373 4.489014-18.742187 31.546997-29.80423 66.01294-38.067444 101.476929-12.301498 52.795776-17.280533 106.420166-17.528579 160.544556-.055649 12.140502-.008164 24.281494-.008164 36.678955-35.257553 0-70.154648 0-105.502083 0 0-1.69104.001358-3.306153-.000198-4.921387-.032093-33.33313.213425-66.669556-.165691-99.998779-.498719-43.844361-3.424485-87.559815-8.611317-131.104371-5.59296-46.954101-11.581553-93.861999-16.98436-140.837585-4.002659-34.801758-6.072833-69.770325-4.034634-104.782593 2.300837-39.523865 9.660586-77.891479 28.763806-113.267273 19.599525-36.294983 48.502861-62.610107 85.292747-80.6651 28.821869-14.144714 59.420227-22.413757 91.033692-27.021667 50.390899-7.344849 100.948974-7.913819 151.487335-1.888611 35.371338 4.217102 69.735138 12.628052 101.980896 28.281006 58.259918 28.280884 93.624725 74.645141 108.144928 137.39685 5.737549 24.796204 7.899963 49.97168 7.907654 75.353089.039978 131.166443.033142 262.332885-.087586 393.499267-.002197 2.379029-1.040588 5.237549-2.565551 7.061402-19.024048 22.751464-38.208802 45.368774-57.4375 67.947998-1.047852 1.230468-2.836731 2.567627-4.300354 2.590454-12.978089.201416-25.960602.117187-39.591675.117187 0-2.205566 0-4.124511 0-6.043335 0-152.499756.100677-304.999633-.125092-457.499084-.028808-19.460205-1.760437-38.917969-2.739715-58.82135m-116.689728 184.547485c5.268249-18.206238 5.42215-36.60083.397613-54.729797-5.019165-18.109619-17.085968-29.694824-35.61734-34.048096-12.804382-3.007996-25.687195-3.223206-38.661712-1.028015-21.274689 3.599609-35.38144 15.258606-41.063965 36.351684-4.192688 15.562867-4.321106 31.400452-.985489 47.009461 4.302673 20.134216 16.056869 34.038391 36.600143 39.368591 12.945435 3.358887 26.085327 3.467896 39.157837 1.206787 19.631043-3.395385 33.305023-14.253296 40.172913-34.130615z"/><path d="m1809.860352 1334.88501c-18.852784 13.946167-40.169556 20.670044-62.638306 23.941772-38.659302 5.629517-77.413574 5.136719-116.084961.111084-27.54834-3.5802-53.172363-12.029907-74.117432-31.460815-14.781128-13.712525-25.384277-30.360962-34.033935-48.298828-16.32666-33.858155-27.014282-69.779541-37.926758-105.600708-13.723389-45.047608-27.225342-90.163575-41.18396-135.13794-5.525635-17.803345-12.175049-35.250122-22.005005-51.248718-7.488891-12.18811-17.644165-20.698059-32.345703-22.670532-.794434-.106568-1.557373-.446839-2.408691-.700196 0-15.44281 0-30.765136 0-46.708496 8.173584 0 16.423584-.180114 24.663086.036621 18.493896.48639 36.963867 1.50055 54.895385 6.563172 30.031372 8.478637 49.550659 28.644714 62.280884 56.351623 12.62207 27.471253 20.965332 56.434876 29.893189 85.18927 17.120971 55.142456 33.596557 110.492066 51.411132 165.408326 5.554932 17.123657 13.84314 33.499877 22.176026 49.545288 8.990478 17.311767 23.812378 27.276001 43.593628 29.445312 12.841919 1.408203 25.605835 1.515503 38.303711-.973877 19.460571-3.815185 30.459961-16.441528 34.411254-35.101929 2.295655-10.840698 3.892579-22.061035 3.917847-33.11499.272583-119.330322.170044-238.661621.170044-357.992615 0-1.830505 0-3.66101 0-5.644653-6.343628 1.48938-12.478516 3.531861-18.769409 4.306336-33.80249 4.161621-65.451172-2.016053-93.426758-22.011658-21.151733-15.118408-34.080932-36.167847-39.953369-61.434265-6.745605-29.021851-5.422607-57.616822 6.493164-85.132202 10.958496-25.305054 30.001343-42.754273 55.122437-53.725403 26.990966-11.787842 55.35559-13.610413 84.237182-11.364258 16.227661 1.262085 31.903565 5.06311 46.712647 11.785767 32.946899 14.956298 52.172973 41.105346 59.406494 75.972106 2.718994 13.106324 4.138061 26.722107 4.16626 40.109803.292602 138.996643.203857 277.994201.159423 416.991394-.008911 27.536865-1.612915 54.940185-8.837524 81.697998-6.494507 24.054077-17.754272 45.180176-38.281982 60.866211m-27.960694-535.570557c7.924561-18.307068 8.432739-37.290954 3.780762-56.269348-4.760498-19.422241-16.788208-32.935303-36.141846-39.243713-14.06018-4.582886-28.499145-5.233887-42.939087-2.684815-23.571167 4.161255-39.588134 17.351074-45.960205 40.878052-4.257812 15.72113-4.295166 31.736511-.091675 47.402283 5.231324 19.495727 17.350342 32.967346 37.140992 38.908264 11.842895 3.555176 23.864502 4.081238 36.065185 2.769043 21.206787-2.28064 38.097778-11.16803 48.145874-31.759766z"/><path d="m1182.834106 1052c0 56.332642.033692 112.165405-.017211 167.998047-.019288 21.187378-.932129 42.318237-6.874878 62.845459-11.713501 40.460083-37.797974 66.092407-79.105713 75.397095-30.618531 6.897216-61.200928 6.322387-91.312866-2.887085-43.019776-13.157227-70.046631-46.880738-74.523926-91.78064-2.510681-25.177124-.258057-49.637207 10.42688-72.771362 14.851074-32.154419 39.931945-52.199829 74.237915-60.553345 20.037964-4.879028 40.235595-4.948731 60.412475-.493164.609009.134277 1.26001.078125 2.18689.126221.086059-1.296631.229614-2.418824.22522-3.540528-.144288-35.996704-.11023-71.995849-.550538-107.989197-.185913-15.195739-2.847656-30.099548-7.719726-44.586059-8.470093-25.185181-26.585205-40.022827-51.201416-47.677551-19.089966-5.936341-38.88385-7.625794-58.730896-7.701355-66.164734-.251953-132.33075-.171082-198.496277-.217591-1.793335-.00122-3.586731-.000122-5.646301-.000122 0-17.160217-.433289-33.962707.096252-50.734741.912659-28.904541 5.105591-57.306091 14.611206-84.789124 18.622925-53.843139 52.354431-94.585571 104.191162-119.184509 28.330628-13.444031 58.559388-19.57074 89.893494-20.704895 38.057251-1.377502 74.814636 5.753418 111.289734 15.65564 21.657593 5.879577 43.369995 11.991394 65.434204 15.838379 33.292481 5.804626 66.0625 3.113891 96.871094-12.425598 8.120727-4.09607 14.964477-9.801514 20.225952-17.667115 11.455688 8.293885 18.010864 19.256531 19.611816 33.014893 2.566162 22.052429-1.816406 42.204895-17.883423 58.480896-11.828247 11.981995-26.89038 18.09021-42.973144 22.071106-23.067505 5.709839-46.470337 6.060181-70.016235 4.813721-38.238648-2.024414-74.565918-13.265259-111.219605-22.916871-29.419678-7.746826-59.096435-13.585632-89.725098-11.482116-35.621826 2.446472-68.291259 12.553344-94.911254 37.792969-19.90741 18.875122-30.923523 42.224609-34.504517 69.14392-1.287842 9.681397-1.433838 19.514771-2.133545 29.755799 2.797058 0 4.769104-.001831 6.74115.000305 63.998535.068909 127.997925-.026306 191.995239.291077 24.569275.121826 48.778015 3.412536 72.328186 10.879089 47.3125 15.000366 76.743775 46.697388 88.918335 94.672119 6.736817 26.547485 7.846192 53.630554 7.849365 81.326233m-167.969909 250.713501c3.929016 1.780273 7.742187 3.90332 11.808288 5.278198 13.707642 4.63501 27.879761 4.938843 41.966797 2.795044 22.342896-3.400268 38.535889-14.822998 45.350952-37.327026 5.452759-18.005738 5.458496-36.223633.4292-54.169434-5.45398-19.460815-18.323121-32.187134-38.162476-36.975952-13.752441-3.319702-27.721924-3.363159-41.603027-.433594-18.895508 3.987549-32.203431 14.839722-38.625 33.150269-7.593689 21.652954-7.121094 43.560547.380554 65.11499 3.22522 9.267212 9.313049 16.852417 18.454712 22.567505z"/></g><path d="m2186 542.155029c-19.619385.000061-38.739014.000061-57.972168.000061 0-15.160766-.587646-29.799316.126709-44.374084 1.337402-27.283173 9.27832-52.717468 24.010986-75.801941 19.39917-30.397034 47.177735-50.719238 79.678955-65.133575 30.121582-13.35907 61.894288-20.262574 94.500977-23.838349 29.904541-3.279419 59.889893-3.994842 89.797607-.942901 47.889893 4.886932 92.719727 18.46585 130.541748 49.806854 15.039307 12.46228 30.988038 28.742035 45.083252 57.564636.182373-2.331238.371582-3.631287.372803-4.931519.018799-20.165344-.078125-40.331604.126465-60.494873.026123-2.576263 1.002686-5.578643 2.540771-7.63446 11.775635-15.741791 23.719483-31.360596 35.85669-46.824921 1.370117-1.745361 4.233643-3.160949 6.460449-3.244873 9.441162-.355652 18.90332-.150879 28.612793-.150879v226.000824c-159.763916 0-319.500976 0-479.738037 0m313.5-50.559204h44.373535c-1.404053-18.165436-7.193603-33.887726-17.749023-47.714477-15.933594-20.871277-37.64209-33.390839-61.917969-42.027344-30.555664-10.870697-62.126221-14.331207-94.380615-12.914917-24.104004 1.05835-47.690186 4.700043-70.158936 13.869903-25.001953 10.203614-44.772461 26.004181-54.986572 51.944336-4.621582 11.736512-6.39917 23.893738-6.557373 36.842072 87.13623 0 173.756592 0 261.376953.000427z" fill="#c46f33"/><path d="m1073.638428 526.369141c-30.56958-18.909241-55.737061-42.501618-66.366333-77.444458-10.543274-34.660157-6.252259-67.733857 17.723388-96.354309 13.081788-15.61615 30.714356-24.427155 50.275757-28.902405 38.588257-8.828278 76.251831-7.205384 111.118042 13.606567 25.934815 15.480744 39.622559 39.114441 42.660279 69.077698 1.865356 18.39917-.85254 35.939361-10.056397 52.093994-8.815552 15.47345-22.054687 26.465515-37.200561 35.446472-2.577271 1.52829-7.607178 1.941162-6.400757 6.170319.511596 1.793396 4.936157 2.819671 7.749511 3.55368 30.062989 7.843201 60.699463 7.339661 91.364014 5.916168 22.028687-1.022613 43.699585-4.583343 64.893799-10.642395 37.012817-10.581268 68.102539-29.407653 87.19812-64.297607 9.174927-16.763672 14.144409-34.923004 15.292481-53.880737 1.026-16.942139.792114-33.960694 1.10498-50.94574.032959-1.79129.004517-3.58374.004517-5.798767 21.953003-.095795 43.406005.061188 63.813842 8.081695 14.768799 5.804352 23.296997 17.565644 26.036499 32.5318 7.97522 43.571258-.459594 83.486328-29.339965 117.969574-21.144776 25.246856-48.899659 40.807708-79.200928 52.250518-35.149414 13.273682-71.794556 19.677491-109.038452 23.341858-32.569214 3.204468-65.236084 3.929566-97.858887 2.552246-44.451782-1.87677-88.227661-7.996704-129.235352-26.857116-4.834594-2.223572-9.485595-4.846008-14.537597-7.469055m89.294067-78.046875c6.181641-11.891419 8.050293-24.647339 6.688965-37.775849-1.326416-12.789276-4.936646-24.858764-14.851563-33.97464-16.056884-14.762664-35.218017-16.679351-55.542236-12.892608-15.359985 2.861816-26.869018 11.242767-33.624145 25.485748-7.555054 15.929504-8.042847 32.682251-3.112061 49.195557 6.546753 21.924499 22.499268 33.099334 44.914551 34.96408 22.672973 1.886109 42.280762-3.799469 55.526489-25.002288z" fill="#c47034"/><path d="m1395.313477 234.333115c-29.305787 13.518722-59.889283 21.070388-91.318604 25.714523-43.219238 6.386261-86.684082 5.706177-130.147217 4.584167-20.475708-.528595-40.930908-1.858215-61.394653-2.838501-.970947-.046539-1.935547-.225952-3.162476-.375 0-9.635299 0-19.051498 0-28.501312 11.418213-2.973541 22.92688-5.536255 34.163452-8.985397 24.980713-7.668091 47.850342-19.188522 66.553467-37.993439 8.447266-8.493347 15.063599-18.100952 19.421997-29.169052-2.78894-2.935349-5.103637-3.01207-8.280029-.560837-12.525757 9.666001-27.005371 14.188248-42.674072 14.94986-18.514771.899933-36.666504-1.059342-53.697388-8.867157-32.971924-15.116013-46.233154-44.344086-43.268066-78.186478 1.980102-22.600197 10.984253-41.550388 29.30957-55.701435 13.470703-10.402304 28.938843-15.692827 45.434326-17.995396 20.82605-2.907075 41.530274-1.865741 61.783447 4.335483 31.079102 9.516011 51.214844 30.412622 59.47229 61.32964 12.077637 45.220841 5.106568 87.77707-22.143188 126.427308-1.719238 2.438629-3.738525 4.703277-5.848511 6.819137-2.495483 2.502396-3.29248 4.881043-1.633911 8.364029 1.725708 3.624268 4.290772 1.578842 6.447266 1.516785 18.699829-.538025 37.158325-2.94571 55.231567-7.854889 53.368286-14.496277 85.324707-49.226029 97.368897-102.916107 4.506225-20.087265 6.181152-40.435624 6.797729-60.929257.049439-1.641395.156006-3.281074.261475-5.444446 19.949829-.203221 39.129394 2.157917 55.791626 13.763557 11.017944 7.674316 16.610595 19.043213 17.226318 32.406792 2.277954 49.434097-14.179443 91.050491-53.366821 122.142975-11.633911 9.230697-25.272827 15.934646-38.328491 23.964447m-265.975708-142.154206c.139526.988472.317504 1.973236.412963 2.96595 1.475342 15.347885 9.407837 25.992501 23.641724 31.706772 9.768066 3.921471 20.056274 4.593086 30.40625 3.131767 14.736694-2.080627 26.869263-8.530174 32.359863-23.115425 5.72876-15.218162 4.884156-30.195923-6.009765-43.191257-8.747437-10.434891-20.817749-13.644974-33.93628-13.978901-26.828491-.682907-47.071777 13.657043-46.874755 42.481094z" fill="#c47034"/><path d="m2633.910156 265.316528c-15.782715.000122-31.076416.000122-46.637451.000122-3.12207-19.414627-6.191406-38.43219-9.236816-57.453628-5.181397-32.365357-10.352051-64.732437-15.508301-97.101776-.287109-1.802742-.575195-3.632187-.577393-5.449555-.035156-30.992973-.026123-61.985988-.017578-92.978989.000244-.961885.101074-1.923742.168701-3.132629h103.898682v4.607819c0 29.993229.456055 59.996902-.230469 89.974411-.264648 11.548523-3.002197 23.057419-4.828857 34.550033-6.685791 42.060196-13.462158 84.105957-20.337158 126.98407-2.044678 0-4.124512 0-6.69336.000122z" fill="#c56f33"/><g fill="#fefefe"><path d="m2198.693115 739.447693c4.969727 17.606995 5.263672 34.928406.133301 52.064575-5.66333 18.918152-18.072998 31.466187-37.277344 36.821045-16.715576 4.661011-33.507812 4.899292-50.164551-.201233-20.914062-6.404175-32.971679-20.934021-37.463378-42.01477-3.388672-15.903382-3.105713-31.757813 1.745849-47.348267 5.237305-16.830261 16.224121-28.580994 32.832276-34.353577 19.695556-6.845703 39.580566-6.498352 59.104248.970154 15.8125 6.048828 25.724853 17.780457 31.089599 34.062073z"/><path d="m367.157837 1020.063354c-6.749085 19.498169-20.423065 30.35608-40.054108 33.751465-13.07251 2.261109-26.212402 2.1521-39.157837-1.206787-20.543274-5.3302-32.29747-19.234375-36.600143-39.368591-3.335617-15.609009-3.207199-31.446594.985489-47.009461 5.682525-21.093078 19.789276-32.752075 41.063965-36.351684 12.974517-2.195191 25.85733-1.979981 38.661712 1.028015 18.531372 4.353272 30.598175 15.938477 35.61734 34.048096 5.024537 18.128967 4.870636 36.523559-.516418 55.108947z"/><path d="m1781.755249 799.662231c-9.903687 20.243958-26.794678 29.131348-48.001465 31.411988-12.200683 1.312195-24.22229.786133-36.065185-2.769043-19.79065-5.940918-31.909668-19.412537-37.140992-38.908264-4.203491-15.665772-4.166137-31.681153.091675-47.402283 6.372071-23.526978 22.389038-36.716797 45.960205-40.878052 14.439942-2.549072 28.878907-1.898071 42.939087 2.684815 19.353638 6.30841 31.381348 19.821472 36.141846 39.243713 4.651977 18.978394 4.143799 37.96228-3.925171 56.617126z"/><path d="m1014.566772 1302.500488c-8.844238-5.502075-14.932067-13.08728-18.157287-22.354492-7.501648-21.554443-7.974243-43.462036-.380554-65.11499 6.421569-18.310547 19.729492-29.16272 38.625-33.150269 13.881103-2.929565 27.850586-2.886108 41.603027.433594 19.839355 4.788818 32.708496 17.515137 38.162476 36.975952 5.029296 17.945801 5.023559 36.163696-.4292 54.169434-6.815063 22.504028-23.008056 33.926758-45.350952 37.327026-14.087036 2.143799-28.259155 1.839966-41.966797-2.795044-4.066101-1.374878-7.879272-3.497925-12.105713-5.491211z"/></g><path d="m2499 491.595612c-87.120361-.000214-173.740723-.000214-260.876953-.000214.158203-12.948334 1.935791-25.10556 6.557373-36.842072 10.214111-25.940155 29.984619-41.740722 54.986572-51.944336 22.46875-9.16986 46.054932-12.811553 70.158936-13.869903 32.254394-1.41629 63.824951 2.04422 94.380615 12.914917 24.275879 8.636505 45.984375 21.156067 61.917969 42.027344 10.55542 13.826751 16.34497 29.549041 17.749023 47.714477-14.912597 0-29.643066 0-44.873535-.000213z" fill="#fffefd"/><path d="m1162.765747 448.651184c-13.078979 20.873901-32.686768 26.559479-55.359741 24.67337-22.415283-1.864746-38.367798-13.039581-44.914551-34.96408-4.930786-16.513306-4.442993-33.266053 3.112061-49.195557 6.755127-14.242981 18.26416-22.623932 33.624145-25.485748 20.324219-3.786743 39.485352-1.870056 55.542236 12.892608 9.914917 9.115876 13.525147 21.185364 14.851563 33.97464 1.361328 13.12851-.507324 25.88443-6.855713 38.104767z" fill="#fffefe"/><path d="m1129.290649 91.744362c-.149902-28.389504 20.093384-42.729454 46.921875-42.046547 13.118531.333927 25.188843 3.54401 33.93628 13.978901 10.893921 12.995334 11.738525 27.973095 6.009765 43.191257-5.4906 14.585251-17.623169 21.034798-32.359863 23.115425-10.349976 1.461319-20.638184.789704-30.40625-3.131767-14.233887-5.714271-22.166382-16.358887-23.641724-31.706772-.095459-.992714-.273437-1.977478-.460083-3.400497z" fill="#fffefe"/></svg>