<svg enable-background="new 0 0 2400 1366" viewBox="0 0 2400 1366" xmlns="http://www.w3.org/2000/svg"><path d="m1563 1367c-521 0-1041.5 0-1562 0 0-455.333313 0-910.666656 0-1366h2400v1366c-279.166748 0-558.333374 0-838 0m-690.464172-932.442749c-1.048584-1.862732-2.184571-3.682159-3.132203-5.59491-9.889892-19.962158-24.124938-36.53833-41.012756-50.703705-20.465149-17.165954-43.948608-29.01004-69.325867-37.36026-23.516967-7.738189-47.648681-12.124938-72.241333-13.61087-14.894226-.899902-29.882385-.218811-44.828125-.295441-23.170532-.118835-46.039367 2.794251-68.713745 7.204651-25.075744 4.877533-49.417053 12.250946-72.203766 23.974884-15.002563 7.718903-29.498931 16.333374-41.369171 28.668763-5.696502 5.919708-11.996704 11.334045-17.146789 17.687896-9.956909 12.284302-17.355957 26.097657-23.200012 40.857758-5.660431 14.296234-9.112122 29.096283-10.146943 44.255829-.995788 14.588348-.324035 29.291137-.356689 43.943725-.003174 1.430908.192352 2.862183.29483 4.282471h537.635315c0-75.307922 0-150.327332 0-225.70932-10.666565 0-20.971863-.091126-31.271057.116638-1.271484.025665-2.790039 1.418793-3.716431 2.564484-3.892334 4.81369-7.609985 9.768921-11.378967 14.682068-7.34906 9.579864-14.618286 19.222107-22.067322 28.72348-3.149353 4.017059-4.997192 8.035339-4.911255 13.47937.331482 20.987823.093689 41.984619-.118957 62.945404 0 0-.141846.126221-.788757-.112915m337.144714 481.281921c6.62561 8.741455 12.691528 17.984986 19.989624 26.123413 16.920044 18.867981 36.457275 34.596741 59.312134 45.879822 2.196045 1.084107 3.815918 2.338074 2.878662 4.632813-.495728 1.213989-2.387207 2.303894-3.830078 2.619262-29.447632 6.436341-54.177735 20.668946-72.910523 44.499024-10.690551 13.599609-18.465332 28.887085-23.993652 45.277832-6.055176 17.952515-9.046021 36.504272-9.725342 55.366455-.748779 20.793823-.815674 41.565308 2.727295 62.237549 3.646118 21.273681 9.204224 41.871094 20.168823 60.580932 5.021851 8.569092 10.395508 17.22583 17.125244 24.42627 8.602784 9.204346 18.506104 17.257202 28.266114 25.300171 13.388916 11.033447 29.196045 18.157348 45.283081 23.764648 23.50647 8.193482 47.762451 14.096802 72.613281 16.950074 13.888916 1.594848 27.774536 3.938598 41.704468 4.303222 26.301147.688233 52.66333.960694 78.943481-.05603 21.296387-.823853 42.641724-2.89978 63.72876-6.019165 30.279297-4.479004 59.46814-12.91919 86.27771-28.44104 26.580688-15.389282 46.832886-36.577515 60.587158-64.042603 12.191162-24.344482 19.01709-50.325195 21.917847-77.162475 2.244873-20.771729 3.477051-41.754761 3.514648-62.646851.281372-156.161072.153077-312.322876.153077-468.484436 0-1.797546 0-3.595154 0-5.896851-14.056885 0-27.678223-.023986-41.298829.066529-.727539.004822-1.573852.862671-2.15393 1.511841-8.668213 9.700134-17.239014 19.487854-25.95813 29.141662-9.943848 11.009705-19.965943 21.949829-30.052857 32.82843-3.301513 3.560608-4.905639 7.337159-4.900268 12.413758.13269 127.662414.138916 255.32489.053833 382.987426-.009155 13.600098-.479736 27.211915-1.171631 40.796143-.641357 12.59082-1.728638 25.164551-2.865723 37.723511-1.770385 19.55249-7.458496 37.991333-16.009521 55.637085-10.342774 21.343506-26.369507 36.9198-47.184693 47.981201-24.815307 13.187012-51.810058 17.620117-79.270874 18.588379-20.871215.736084-41.846923-.651245-62.743774-1.721802-19.119019-.979614-37.556519-5.721069-55.15332-13.145508-23.846802-10.061157-41.604615-26.734741-52.218262-50.575561-10.197388-22.90625-13.362793-47.363281-14.289673-72.005493-.909546-24.182862-.924316-48.432984 4.730469-72.305542 6.55957-27.693238 20.413696-49.55774 46.939697-62.16333 20.64209-9.809388 42.759033-12.598145 65.103394-13.873597 15.787964-.901184 31.64685-.566345 47.473999-.77655 1.753906-.023315 3.508178-.003174 5.21228-.003174 0-18.110229 0-35.50824 0-53.157959-14.493408 0-28.647827.241272-42.787964-.099914-7.251709-.174988-14.571899-.889222-21.700073-2.221497-32.693848-6.110474-60.701416-21.020019-83.443848-45.467712-13.20227-14.192261-23.699096-30.034119-29.45459-48.438233 1.903687-3.882507 4.454224-3.769531 7.785401-2.312927 11.673584 5.104309 24.148681 6.776245 36.696411 7.4151 6.895386.351074 13.96936.058167 20.76477-1.102661 12.79712-2.186218 25.837281-4.05603 38.076294-8.150024 19.753785-6.607422 36.35083-18.521546 48.101197-36.056946 12.198242-18.20343 18.36145-38.426087 19.434936-60.43042.921753-18.890869-.393432-37.28302-7.071655-55.138611-14.421387-38.559265-43.878052-59.114258-82.525269-67.699402-18.269775-4.058472-37.05664-5.21582-55.880249-3.327576-17.183349 1.723572-33.832031 5.275635-49.656738 12.481019-18.072266 8.22882-33.358154 19.996765-45.395142 35.698913-5.656005 7.378357-11.136962 15.148255-15.125122 23.492066-7.349853 15.376647-13.371093 31.353454-15.519775 48.48999-1.238159 9.874206-3.084351 19.695434-3.818115 29.602661-.648804 8.760986-.61792 17.640564-.02417 26.409363.91333 13.489013 3.263061 26.759033 6.818725 39.883484 5.532105 20.418823 13.991944 39.417907 25.750977 57.813842m-783.176544 245.660584v182.278442h104.330353c0-2.003906-.000061-3.792236-.000061-5.580444 0-87.16565.044616-174.331177-.03479-261.496826-.017396-19.078369 1.172485-37.989624 6.219665-56.472351 7.949951-29.112671 24.143555-51.855896 51.817383-65.195801 17.091919-8.238953 35.347595-12.501343 54.234131-14.229797 2.395263-.219239 5.52539-.953248 6.87207-2.616822 6.048462-7.472351 8.458191-16.403869 7.304138-25.858093-1.528869-12.525452-9.922668-19.92218-20.574951-25.292847-38.994263-19.660339-77.979065-39.339294-116.9599-59.026245-2.141846-1.081726-4.176758-1.759521-4.107849-5.23053.362061-18.249878 2.86084-36.099304 9.483887-53.166626 9.473694-24.41333 26.052368-43.003845 48.329773-56.354431 14.346679-8.597656 29.95813-14.206115 46.399719-17.797363 16.978455-3.708496 34.058533-6.121704 51.398132-6.376404 9.076172-.133423 18.17096.470154 27.246216.950501 8.606323.455566 17.305603.537353 25.771912 1.941345 13.530456 2.243896 26.734558 5.710754 39.658813 10.751037 20.075989 7.829529 37.355774 19.110718 51.74469 35.188599 11.706299 13.0802 20.130188 28.092346 26.098511 44.296936 6.712463 18.225037 10.892639 37.236878 12.373596 56.67572.92926 12.198059 1.641724 24.448243 1.650147 36.675537.108032 156.664734.071289 313.329651.071289 469.994446v5.937989c13.505004 0 26.336303.077026 39.16394-.105103 1.474304-.020874 3.318542-1.151855 4.333191-2.333252 17.815857-20.74585 35.301147-41.781128 53.401489-62.27356 5.557556-6.291992 7.46051-12.61499 7.445252-20.908203-.245789-133.497924-.188111-266.996521-.158997-400.494934.004822-22.060852-1.463684-43.933288-5.935974-65.620239-8.225464-39.887085-25.992493-74.236816-56.492798-101.804504-24.310486-21.972962-52.954773-35.821534-83.730713-45.56128-26.725647-8.458007-54.345581-13.212463-82.258362-15.041565-22.177246-1.453247-44.503479-1.763061-66.721923-1.126281-20.84314.597412-41.714722 2.419128-62.423584 4.937317-27.310852 3.320922-54.021241 9.643615-79.739075 19.724487-26.232697 10.282654-50.70932 23.272827-70.803955 43.625549-12.809815 12.974365-23.877533 26.989624-31.377594 43.754395-8.205231 18.341003-11.61377 37.666809-12.432129 57.528442-.215027 5.218506.860168 10.484131 1.244232 15.735352.307434 4.203857.081604 8.482666.769867 12.615356 1.409393 8.46228 3.10022 16.89032 5.0961 25.231751.403656 1.686889 2.420349 3.693969 4.118835 4.24707 9.054566 2.948486 18.233185 5.52063 27.38971 8.150452 16.552429 4.753845 33.144195 9.372253 49.674133 14.202575 18.585327 5.430908 37.120422 11.033875 55.680786 16.562989-.270813 3.261474-.321228 3.124267-4.115112 4.519165-14.042725 5.162841-28.506409 9.466552-41.955353 15.887146-17.424652 8.318847-32.892273 19.514831-45.344269 34.936218-9.462707 11.719421-17.057647 24.222656-22.504364 38.089844-7.502746 19.101806-10.868591 39.107238-11.116394 59.534729-.424438 34.993652-.380859 69.992919-.533813 105.990112m-413.916537-161.999817c.000068 74.665955-.058592 149.332092.074027 223.997864.016704 9.404663.619724 18.856079 1.699322 28.199341 1.456858 12.608398 4.923898 24.721435 10.805694 36.093383 9.836395 19.017945 24.059269 33.871338 43.048149 43.578614 18.314453 9.362304 38.065582 14.115844 58.696281 14.315185 12.068436.116455 24.35318.809326 36.165253-1.090576 16.195297-2.604858 32.110367-7.115845 46.435349-15.866821 18.012558-11.003784 31.930664-25.496582 40.596374-44.99585 8.163819-18.369751 11.2258-37.503052 10.992249-57.494141-.263764-22.571289-4.632538-43.904663-15.923004-63.673217-11.995804-21.00354-29.319535-35.908814-51.784394-44.37146-22.761871-8.574707-46.479538-9.978882-70.511482-6.949951-1.870041.235717-3.735634.506836-6.228889.846679 0-156.05896 0-311.453186 0-467.090332-10.046219 0-19.548531.284119-29.025269-.086181-8.197983-.320374-15.170433.13739-20.541229 8.16986-5.525032 8.263184-12.851864 15.315491-19.328652 22.949891-8.471668 9.9859-16.70981 20.176147-25.378809 29.98645-6.137483 6.945556-10.148446 13.713623-10.089163 23.985168.516543 89.496277.297946 178.996765.298193 269.496094m862.937258-987.538216c-8.944946-2.576694-17.941711-4.989724-26.811767-7.802627-4.119507-1.30641-7.012574-.298275-10.263489 2.383215-18.213257 15.022937-36.613587 29.819097-54.95929 44.700197-17.717285-15.265923-35.224487-30.421377-52.860901-45.424885-1.562561-1.32931-4.188964-2.686569-5.946411-2.304865-13.294677 2.887496-26.73352 5.456054-39.67334 9.556637-22.584533 7.156956-40.811462 21.125914-54.961486 39.913794-14.897095 19.779796-21.485657 43.106479-23.699646 67.237491-1.439637 15.691536-.153443 31.73745 1.052795 47.537468 1.154297 15.119156 5.559448 29.552109 12.759399 43.082672 6.516297 12.245835 14.444092 23.352784 25.80365 31.424652 13.551453 9.629456 28.806214 15.473481 45.439454 16.542481 21.174621 1.36087 42.030883-.002747 61.042114-11.055618 12.829101-7.458619 22.3656-17.866669 28.511352-31.41858 7.70221-16.983947 8.788147-34.793884 5.931885-52.827514-2.986999-18.858902-11.923157-34.450501-28.207886-45.127464-15.688537-10.286133-33.063781-13.787087-51.720642-13.553421-16.577453.207603-31.979797 3.201873-46.319031 13.56034-.977844-2.633476-2.636108-4.996399-2.599121-7.332496.293763-18.581711 8.372376-33.398567 22.32013-45.406464 11.644958-10.025375 25.837585-13.15171 40.338257-15.596855 1.045837-.176357 2.486206-.092247 3.257995.501411 9.415467 7.242184 18.755554 14.582924 28.084107 21.937478 10.342224 8.153732 20.652527 16.348053 30.983215 24.529861 19.263489-14.74939 38.247009-29.336136 57.343079-43.773991 1.115783-.843593 3.388549-1.101299 4.702331-.577251 6.13147 2.445675 12.323486 4.878261 18.110108 8.021919 13.982055 7.595925 23.189087 19.510346 27.82843 34.490631 4.146423 13.38884 4.920288 27.343689 3.137268 41.281197-1.631165 12.750671-5.494141 24.973526-11.358704 36.347275-11.470642 22.245849-28.249206 39.854385-48.86969 53.922836-1.4328.977524-3.209778 2.766266-3.262634 4.234024-.308899 8.584015-.151489 17.184799-.151489 26.354614 8.546203.459717 16.56488 1.118256 24.593567 1.281189 26.025573.528198 52.042541 1.813904 78.036743-1.483093 14.383301-1.824326 28.411865-4.955872 41.939758-9.852997 14.742554-5.336822 28.647522-12.533569 41.562683-21.613953 25.35614-17.827209 43.272644-41.446884 54.863831-69.962142 10.630859-26.152832 13.550537-53.595337 12.407104-81.549805-.384643-9.405853-2.859497-18.471829-10.303833-24.926575-15.907959-13.793232-35.386596-13.877243-54.741333-14.293938-.973999 13.014447-1.726501 25.308125-2.866699 37.565728-.848938 9.126136-1.333313 18.420761-3.527405 27.256065-3.403503 13.704804-7.680359 27.239716-12.397644 40.559502-6.106018 17.240722-16.822449 31.7751-30.529541 43.561538-14.382568 12.367295-31.321655 20.509003-49.867004 25.102341-3.669922.908981-6.383606.750122-7.419129-2.475326 6.793824-8.613907 13.818665-16.397263 19.576233-25.026139 19.198181-28.771988 24.67041-60.267143 17.15625-94.002159-4.948059-22.214493-16.409485-40.352123-34.403381-54.321148-11.643555-9.03911-24.704834-15.492948-39.060242-21.17725m1365.391297 934.338204c28.299316-6.723511 55.591064-16.104615 80.375976-31.64801 20.616211-12.929078 38.456787-28.756897 50.821045-50.184632 14.642334-25.37561 20.22583-52.554809 16.859863-81.574463-2.710693-23.371582-13.139892-38.719665-37.128906-44.793579-9.86792-2.498474-20.10083-3.856872-30.25415-4.831665-8.003418-.76831-16.139649-.154297-23.472656-.154297-1.03418 20.709656-1.616211 40.717835-3.169922 60.650147-1.104004 14.165771-5.641114 27.624756-12.386719 40.139526-7.058594 13.095581-16.150635 24.525879-27.789551 34.111145-10.738525 8.843567-22.377197 16.147766-34.908447 21.744385-20.983399 9.371338-43.250244 14.68457-66.149414 16.086243-27.394531 1.676696-54.705323.414917-81.402588-6.913147-1.680176-.461182-3.124024-1.785279-4.677735-2.707825 1.219483-1.518067 2.148438-3.491028 3.70337-4.483826 15.209716-9.71228 28.244384-21.379516 35.800781-38.252929 8.441162-18.850098 9.905762-38.439026 6.955078-58.683594-2.891113-19.838379-10.815674-37.254395-25.268555-51.059021-14.562011-13.908875-32.156982-22.178833-52.129272-25.986756-21.237915-4.049255-42.26709-3.726684-63.194336.917664-18.489624 4.103332-35.394287 11.63977-47.864868 26.663269-4.986206 6.007019-10.56543 11.934082-13.831177 18.860962-4.988037 10.580566-8.677612 21.759827-9.848999 33.731995-1.452393 14.844116-1.941895 29.744628 1.338257 44.158386 6.857544 30.133484 23.590698 54.010071 48.945679 71.827453 18.589599 13.063416 38.924072 22.500061 60.81958 28.141602 17.995971 4.63678 36.208007 8.698608 54.542236 11.670776 13.368408 2.167176 27.078125 2.47699 40.659668 3.03064 26.525879 1.081421 53.089355 1.172791 79.482422-1.964233 17.54248-2.085022 34.937012-5.411622 53.17334-8.496216m-330.646241 271.87915c7.872681 17.402832 19.659058 31.597412 34.311768 43.829956 9.666992 8.070435 19.864746 15.063355 31.346802 20.006836 11.492431 4.947754 23.065063 9.901611 34.991211 13.598389 13.422241 4.160522 27.16748 7.513061 40.980835 10.105102 11.814209 2.217041 23.910644 2.987305 35.905273 4.162232 9.160889.897339 18.367432 2.107422 27.537109 1.983032 21.329834-.289551 42.676026-.873901 63.9646-2.171631 14.024902-.854736 28.111816-2.366821 41.904297-4.987427 24.029785-4.566162 47.707764-10.577392 70.271728-20.498169 22.194092-9.758056 42.803467-21.717163 59.960694-39.127929 31.406738-31.870484 43.392334-70.033814 36.437012-114.016724-2.539551-16.058349-10.641602-28.918945-26.498536-35.07727-7.313476-2.840332-15.020996-5.269532-22.759277-6.278321-13.560791-1.7677-27.283203-2.297119-40.884277-3.341186-.594483 18.097168-.657959 35.016601-1.885743 51.851318-.748779 10.266968-2.208984 20.737549-5.240966 30.531128-7.176026 23.179321-20.642334 42.40625-40.071289 57.167114-18.054932 13.716919-38.306641 22.971314-60.296143 28.220459-25.495117 6.086304-51.360107 8.996338-77.512451 5.76062-14.363526-1.776855-28.583496-4.72998-42.845703-7.278442-1.047119-.187134-2.508057-1.272827-2.691162-2.163818-.1792-.871826.858886-2.201172 1.676513-3.015259.914795-.911377 2.1792-1.473755 3.296387-2.180542 14.831055-9.383789 27.602539-20.821167 34.959717-37.122437 9.595459-21.26123 10.722412-43.565063 5.70166-65.988159-7.664063-34.225708-29.695068-55.844848-62.383789-66.573486-23.401611-7.68042-47.483032-8.298096-71.710205-3.620606-22.823975 4.406861-42.624268 13.541504-57.572144 32.396729-12.140625 15.313965-17.844848 32.838135-19.863403 51.574829-1.120117 10.395874-.335693 21.21521 1.173706 31.613892 1.468994 10.119873 4.957642 19.946411 7.795776 30.63977z" fill="#fff"/><path d="m1209.502686 915.516785c-11.581177-18.073548-20.041016-37.072632-25.573121-57.491455-3.555664-13.124451-5.905395-26.394471-6.818725-39.883484-.59375-8.768799-.624634-17.648377.02417-26.409363.733764-9.907227 2.579956-19.728455 3.818115-29.602661 2.148682-17.136536 8.169922-33.113343 15.519775-48.48999 3.98816-8.343811 9.469117-16.113709 15.125122-23.492066 12.036988-15.702148 27.322876-27.470093 45.395142-35.698913 15.824707-7.205384 32.473389-10.757447 49.656738-12.481019 18.823609-1.888244 37.610474-.730896 55.880249 3.327576 38.647217 8.585144 68.103882 29.140137 82.525269 67.699402 6.678223 17.855591 7.993408 36.247742 7.071655 55.138611-1.073486 22.004333-7.236694 42.22699-19.434936 60.43042-11.750367 17.5354-28.347412 29.449524-48.101197 36.056946-12.239013 4.093994-25.279174 5.963806-38.076294 8.150024-6.79541 1.160828-13.869384 1.453735-20.76477 1.102661-12.54773-.638855-25.022827-2.310791-36.696411-7.4151-3.331177-1.456604-5.881714-1.56958-7.785401 2.312927 5.755494 18.404114 16.25232 34.245972 29.45459 48.438233 22.742432 24.447693 50.75 39.357238 83.443848 45.467712 7.128174 1.332275 14.448364 2.046509 21.700073 2.221497 14.140137.341186 28.294556.099914 42.787964.099914v53.157959c-1.704102 0-3.458374-.020141-5.21228.003174-15.827149.210205-31.686035-.124634-47.473999.77655-22.344361 1.275452-44.461304 4.064209-65.103394 13.873597-26.526001 12.60559-40.380127 34.470092-46.939697 62.16333-5.654785 23.872558-5.640015 48.12268-4.730469 72.305542.92688 24.642212 4.092285 49.099243 14.289673 72.005493 10.613647 23.84082 28.37146 40.514404 52.218262 50.575561 17.596801 7.424439 36.034301 12.165894 55.15332 13.145508 20.896851 1.070557 41.872559 2.457886 62.743774 1.721802 27.460816-.968262 54.455567-5.401367 79.270874-18.588379 20.815186-11.061401 36.841919-26.637695 47.184693-47.981201 8.551025-17.645752 14.239136-36.084595 16.009521-55.637085 1.137085-12.55896 2.224366-25.132691 2.865723-37.723511.691895-13.584228 1.162476-27.196045 1.171631-40.796143.085083-127.662536.078857-255.325012-.053833-382.987426-.005371-5.076599 1.598755-8.85315 4.900268-12.413758 10.086914-10.878601 20.109009-21.818725 30.052857-32.82843 8.719116-9.653808 17.289917-19.441528 25.95813-29.141662.580078-.64917 1.426391-1.507019 2.15393-1.511841 13.620606-.090515 27.241944-.066529 41.298829-.066529v5.896851c0 156.16156.128295 312.323364-.153077 468.484436-.037597 20.89209-1.269775 41.875122-3.514648 62.646851-2.900757 26.83728-9.726685 52.817993-21.917847 77.162475-13.754272 27.465088-34.00647 48.653321-60.587158 64.042603-26.80957 15.52185-55.998413 23.962036-86.27771 28.44104-21.087036 3.119385-42.432373 5.195312-63.72876 6.019165-26.280151 1.016724-52.642334.744263-78.943481.05603-13.929932-.364624-27.815552-2.708374-41.704468-4.303222-24.85083-2.853272-49.106811-8.756592-72.613281-16.950074-16.087036-5.6073-31.894165-12.731201-45.283081-23.764648-9.76001-8.042969-19.66333-16.095825-28.266114-25.300171-6.729736-7.20044-12.103393-15.857178-17.125244-24.42627-10.964599-18.709838-16.522705-39.307251-20.168823-60.580932-3.542969-20.672241-3.476074-41.443726-2.727295-62.237549.679321-18.862183 3.670166-37.41394 9.725342-55.366455 5.52832-16.390747 13.303101-31.678223 23.993652-45.277832 18.732788-23.830078 43.462891-38.062683 72.910523-44.499024 1.442871-.315368 3.33435-1.405273 3.830078-2.619262.937256-2.294739-.682617-3.548706-2.878662-4.632813-22.854859-11.283081-42.39209-27.011841-59.312134-45.879822-7.298096-8.138427-13.364014-17.381958-20.16748-26.4458m177.810302-145.724732c-.107788-8.124084.599854-16.357971-.47644-24.351684-3.195557-23.734436-14.824707-41.587403-39.07312-47.647095-10.609986-2.651489-22.129273-3.213501-33.104126-2.549622-26.928833 1.629029-44.88208 16.759583-51.161011 41.990967-3.629639 14.585449-3.648071 29.456055-.027954 44.023071 5.093872 20.496766 17.605469 34.452149 38.407104 39.935547 11.345337 2.990601 22.899537 3.496765 34.629761 1.96576 30.097046-3.928467 47.995606-22.292847 50.805786-53.366944z" fill="#c46f34"/><path d="m426.503998 1160.999634c.152954-35.497071.109375-70.496338.533813-105.48999.247803-20.427491 3.613648-40.432923 11.116394-59.534729 5.446717-13.867188 13.041657-26.370423 22.504364-38.089844 12.451996-15.421387 27.919617-26.617371 45.344269-34.936218 13.448944-6.420594 27.912628-10.724305 41.955353-15.887146 3.793884-1.394898 3.844299-1.257691 4.115112-4.519165-18.560364-5.529114-37.095459-11.132081-55.680786-16.562989-16.529938-4.830322-33.121704-9.44873-49.674133-14.202575-9.156525-2.629822-18.335144-5.201966-27.38971-8.150452-1.698486-.553101-3.715179-2.560181-4.118835-4.24707-1.99588-8.341431-3.686707-16.769471-5.0961-25.231751-.688263-4.13269-.462433-8.411499-.769867-12.615356-.384064-5.251221-1.459259-10.516846-1.244232-15.735352.818359-19.861633 4.226898-39.187439 12.432129-57.528442 7.500061-16.764771 18.567779-30.78003 31.377594-43.754395 20.094635-20.352722 44.571258-33.342895 70.803955-43.625549 25.717834-10.080872 52.428223-16.403565 79.739075-19.724487 20.708862-2.518189 41.580444-4.339905 62.423584-4.937317 22.218444-.63678 44.544677-.326966 66.721923 1.126281 27.912781 1.829102 55.532715 6.583558 82.258362 15.041565 30.77594 9.739746 59.420227 23.588318 83.730713 45.56128 30.500305 27.567688 48.267334 61.917419 56.492798 101.804504 4.47229 21.686951 5.940796 43.559387 5.935974 65.620239-.029114 133.498413-.086792 266.99701.158997 400.494934.015258 8.293213-1.887696 14.616211-7.445252 20.908203-18.100342 20.492432-35.585632 41.52771-53.401489 62.27356-1.014649 1.181397-2.858887 2.312378-4.333191 2.333252-12.827637.182129-25.658936.105103-39.16394.105103 0-2.076416 0-4.007203 0-5.937989 0-156.664795.036743-313.329712-.071289-469.994446-.008423-12.227294-.720887-24.477478-1.650147-36.675537-1.480957-19.438842-5.661133-38.450683-12.373596-56.67572-5.968323-16.20459-14.392212-31.216736-26.098511-44.296936-14.388916-16.077881-31.668701-27.35907-51.74469-35.188599-12.924255-5.040283-26.128357-8.507141-39.658813-10.751037-8.466309-1.403992-17.165589-1.485779-25.771912-1.941345-9.075256-.480347-18.170044-1.083924-27.246216-.950501-17.339599.2547-34.419677 2.667908-51.398132 6.376404-16.441589 3.591248-32.05304 9.199707-46.399719 17.797363-22.277405 13.350586-38.856079 31.941101-48.329773 56.354431-6.623047 17.067322-9.121826 34.916748-9.483887 53.166626-.068909 3.471009 1.966003 4.148804 4.107849 5.23053 38.980835 19.686951 77.965637 39.365906 116.9599 59.026245 10.652283 5.370667 19.046082 12.767395 20.574951 25.292847 1.154053 9.454224-1.255676 18.385742-7.304138 25.858093-1.34668 1.663574-4.476807 2.397583-6.87207 2.616822-18.886536 1.728454-37.142212 5.990844-54.234131 14.229797-27.673828 13.339905-43.867432 36.08313-51.817383 65.195801-5.04718 18.482727-6.237061 37.393982-6.219665 56.472351.079406 87.165649.03479 174.331176.03479 261.496826 0 1.788208.000061 3.576538.000061 5.580444-34.871033 0-69.304596 0-104.330353 0 0-60.792846 0-121.535644 0-182.778564z" fill="#010101"/><path d="m12.587242 998.999878c-.000028-89.999268.218569-179.499756-.297974-268.996033-.059283-10.271545 3.95168-17.039612 10.089163-23.985168 8.668999-9.810303 16.907141-20.00055 25.378809-29.98645 6.476788-7.6344 13.80362-14.686707 19.328652-22.949891 5.370796-8.03247 12.343246-8.490234 20.541229-8.16986 9.476738.3703 18.97905.086181 29.025269.086181v467.090332c2.493255-.339843 4.358848-.610962 6.228889-.846679 24.031944-3.028931 47.749611-1.624756 70.511482 6.949951 22.464859 8.462646 39.78859 23.36792 51.784394 44.37146 11.290466 19.768554 15.65924 41.101928 15.923004 63.673217.233551 19.991089-2.82843 39.12439-10.992249 57.494141-8.66571 19.499268-22.583816 33.992066-40.596374 44.99585-14.324982 8.750976-30.240052 13.261963-46.435349 15.866821-11.812073 1.899902-24.096817 1.207031-36.165253 1.090576-20.630699-.199341-40.381828-4.952881-58.696281-14.315185-18.98888-9.707276-33.211754-24.560669-43.048149-43.578614-5.881796-11.371948-9.348836-23.484985-10.805694-36.093383-1.079598-9.343262-1.682618-18.794678-1.699322-28.199341-.132619-74.665772-.073959-149.331909-.074246-224.497925m125.866509 293.814697c3.81575-.301269 7.654586-.428833 11.443451-.932373 22.643478-3.008789 39.263473-13.751831 46.518386-36.450073 5.096589-15.945557 5.183152-32.17981 1.879273-48.337891-3.89621-19.055176-14.45073-33.184082-33.325897-39.721679-15.801407-5.473023-32.009385-5.728638-48.181946-1.584717-18.754036 4.80542-31.095108 16.543091-36.873444 35.078247-5.028328 16.129394-5.179008 32.517578-1.509949 48.814941 3.997223 17.755249 13.677826 31.692017 31.368859 37.839966 8.808502 3.061279 18.492607 3.603027 28.681267 5.293579z" fill="#c46f34"/><path d="m873.511658 434.70285c.025573-20.993469.263366-41.990265-.068116-62.978088-.085937-5.444031 1.761902-9.462311 4.911255-13.47937 7.449036-9.501373 14.718262-19.143616 22.067322-28.72348 3.768982-4.913147 7.486633-9.868378 11.378967-14.682068.926392-1.145691 2.444947-2.538819 3.716431-2.564484 10.299194-.207764 20.604492-.116638 31.271057-.116638v225.70932c-179.137939 0-358.174133 0-537.635315 0-.102478-1.420288-.298004-2.851563-.29483-4.282471.032654-14.652588-.639099-29.355377.356689-43.943725 1.034821-15.159546 4.486512-29.959595 10.146943-44.255829 5.844055-14.760101 13.243103-28.573456 23.200012-40.857758 5.150085-6.353851 11.450287-11.768188 17.146789-17.687896 11.87024-12.335389 26.366608-20.94986 41.369171-28.668763 22.786713-11.723938 47.128022-19.097351 72.203766-23.974884 22.674378-4.4104 45.543213-7.323486 68.713745-7.204651 14.94574.07663 29.933899-.604461 44.828125.295441 24.592652 1.485932 48.724366 5.872681 72.241333 13.61087 25.377259 8.35022 48.860718 20.194306 69.325867 37.36026 16.887818 14.165375 31.122864 30.741547 41.012756 50.703705.947632 1.912751 2.083619 3.732178 3.385376 6.019074.449707.725677.64618 1.027191.842713 1.328705-.040039-.535767-.080017-1.071503-.120056-1.60727m-88.284241-16.442291c-9.549683-5.380554-18.649902-11.869141-28.724304-15.956421-53.271301-21.61264-107.833374-23.286285-162.882019-7.942901-22.853577 6.369873-43.055664 17.833557-57.434021 37.569122-11.976135 16.438324-16.71521 35.120117-16.753052 55.32196h305.675171c-2.485901-29.289642-16.430542-51.468628-39.881775-68.99176z" fill="#c46f33"/><path d="m875.893311 12.089852c13.986816 5.556173 27.048095 12.010011 38.69165 21.049121 17.993896 13.969025 29.455322 32.106655 34.403381 54.321148 7.51416 33.735016 2.041931 65.230171-17.15625 94.002159-5.757568 8.628876-12.782409 16.412232-19.576233 25.026139 1.035523 3.225448 3.749207 3.384307 7.419129 2.475326 18.545349-4.593338 35.484436-12.735046 49.867004-25.102341 13.707092-11.786438 24.423523-26.320816 30.529541-43.561538 4.717285-13.319786 8.994141-26.854698 12.397644-40.559502 2.194092-8.835304 2.678467-18.129929 3.527405-27.256065 1.140198-12.257603 1.8927-24.551281 2.866699-37.565728 19.354737.416695 38.833374.500706 54.741333 14.293938 7.444336 6.454746 9.91919 15.520722 10.303833 24.926575 1.143433 27.954468-1.776245 55.396973-12.407104 81.549805-11.591187 28.515258-29.507691 52.134933-54.863831 69.962142-12.915161 9.080384-26.820129 16.277131-41.562683 21.613953-13.527893 4.897125-27.556457 8.028671-41.939758 9.852997-25.994202 3.296997-52.01117 2.011291-78.036743 1.483093-8.028687-.162933-16.047364-.821472-24.593567-1.281189 0-9.169815-.15741-17.770599.151489-26.354614.052856-1.467758 1.829834-3.2565 3.262634-4.234024 20.620484-14.068451 37.399048-31.676987 48.86969-53.922836 5.864563-11.373749 9.727539-23.596604 11.358704-36.347275 1.78302-13.937508 1.009155-27.892357-3.137268-41.281197-4.639343-14.980285-13.846375-26.894706-27.82843-34.490631-5.786622-3.143658-11.978638-5.576244-18.110108-8.021919-1.313782-.524048-3.586548-.266342-4.702331.577251-19.09607 14.437855-38.07959 29.024601-57.343079 43.773991-10.330688-8.181808-20.640991-16.376129-30.983215-24.529861-9.328553-7.354554-18.66864-14.695294-28.084107-21.937478-.771789-.593658-2.212158-.677768-3.257995-.501411-14.500672 2.445145-28.693299 5.57148-40.338257 15.596855-13.947754 12.007897-22.026367 26.824753-22.32013 45.406464-.036987 2.336097 1.621277 4.69902 2.599121 7.332496 14.339234-10.358467 29.741578-13.352737 46.319031-13.56034 18.656861-.233666 36.032105 3.267288 51.720642 13.553421 16.284729 10.676963 25.220887 26.268562 28.207886 45.127464 2.856262 18.03363 1.770325 35.843567-5.931885 52.827514-6.145752 13.551911-15.682251 23.959961-28.511352 31.41858-19.011231 11.052871-39.867493 12.416488-61.042114 11.055618-16.63324-1.069-31.888001-6.913025-45.439454-16.542481-11.359558-8.071868-19.287353-19.178817-25.80365-31.424652-7.199951-13.530563-11.605102-27.963516-12.759399-43.082672-1.206238-15.800018-2.492432-31.845932-1.052795-47.537468 2.213989-24.131012 8.802551-47.457695 23.699646-67.237491 14.150024-18.78788 32.376953-32.756838 54.961486-39.913794 12.93982-4.100583 26.378663-6.669141 39.67334-9.556637 1.757447-.381704 4.38385.975555 5.946411 2.304865 17.636414 15.003508 35.143616 30.158962 52.860901 45.424885 18.345703-14.8811 36.746033-29.67726 54.95929-44.700197 3.250915-2.68149 6.143982-3.689625 10.263489-2.383215 8.870056 2.812903 17.866821 5.225933 27.180359 7.930756m-159.786011 128.996299c-5.799622-.146088-11.669129-.9375-17.385987-.318909-18.140319 1.962876-31.457458 14.800431-33.956542 32.030213-3.027955 20.876327 5.125732 37.026443 22.620849 44.805527 16.870728 7.501449 38.425049 3.053756 49.720581-9.634858 15.354126-17.247818 13.710877-58.369613-20.998901-66.881973z" fill="#010101"/><path d="m2240.52832 946.456787c-17.848632 2.927734-35.243164 6.254334-52.785644 8.339356-26.393067 3.137024-52.956543 3.045654-79.482422 1.964233-13.581543-.55365-27.29126-.863464-40.659668-3.03064-18.334229-2.972168-36.546265-7.033996-54.542236-11.670776-21.895508-5.641541-42.229981-15.078186-60.81958-28.141602-25.354981-17.817382-42.088135-41.693969-48.945679-71.827453-3.280152-14.413758-2.79065-29.31427-1.338257-44.158386 1.171387-11.972168 4.860962-23.151429 9.848999-33.731995 3.265747-6.92688 8.844971-12.853943 13.831177-18.860962 12.470581-15.023499 29.375244-22.559937 47.864868-26.663269 20.927246-4.644348 41.956421-4.966919 63.194336-.917664 19.97229 3.807923 37.567261 12.077881 52.129272 25.986756 14.452881 13.804626 22.377442 31.220642 25.268555 51.059021 2.950684 20.244568 1.486084 39.833496-6.955078 58.683594-7.556397 16.873413-20.591065 28.540649-35.800781 38.252929-1.554932.992798-2.483887 2.965759-3.70337 4.483765 1.553711.922607 2.997559 2.246704 4.677735 2.707886 26.697265 7.328064 54.008057 8.589843 81.402588 6.913147 22.89917-1.401673 45.166015-6.714905 66.149414-16.086243 12.53125-5.596619 24.169922-12.900818 34.908447-21.744385 11.638916-9.585266 20.730957-21.015564 27.789551-34.111145 6.745605-12.51477 11.282715-25.973755 12.386719-40.139526 1.553711-19.932312 2.135742-39.940491 3.169922-60.650147 7.333007 0 15.469238-.614013 23.472656.154297 10.15332.974793 20.38623 2.333191 30.25415 4.831665 23.989014 6.073914 34.418213 21.421997 37.128906 44.793579 3.365967 29.019654-2.217529 56.198853-16.859863 81.574463-12.364258 21.427735-30.204834 37.255554-50.821045 50.184632-24.784912 15.543395-52.07666 24.924499-80.763672 31.80487m-182.582031-108.081177c4.752686-11.765258 4.905762-23.87677 3.188477-36.264465-1.945801-14.035767-7.859375-25.637512-19.483033-34.004395-11.954223-8.604675-25.637207-10.627624-39.895019-9.970825-24.896485 1.146851-42.272095 15.454895-48.082886 39.554322-2.988281 12.393371-2.422119 24.730651 1.125488 36.958923 4.417725 15.22699 13.977906 25.682312 28.844605 31.266724 11.073242 4.159484 22.437378 4.90216 34.04895 3.035034 18.541138-2.981446 32.576172-11.981629 40.253418-30.575318z" fill="#c47034"/><path d="m1910.151611 1217.810059c-2.71997-10.324341-6.208618-20.150879-7.677612-30.270752-1.509399-10.398682-2.293823-21.218018-1.173706-31.613892 2.018555-18.736694 7.722778-36.260864 19.863403-51.574829 14.947876-18.855225 34.748169-27.989868 57.572144-32.396729 24.227173-4.67749 48.308594-4.059814 71.710205 3.620606 32.688721 10.728638 54.719726 32.347778 62.383789 66.573486 5.020752 22.423096 3.893799 44.726929-5.70166 65.988159-7.357178 16.30127-20.128662 27.738648-34.959717 37.122437-1.117187.706787-2.381592 1.269165-3.296387 2.180542-.817627.814087-1.855713 2.143433-1.676513 3.015259.183105.890991 1.644043 1.976684 2.691162 2.163818 14.262207 2.548462 28.482177 5.501587 42.845703 7.278442 26.152344 3.235718 52.017334.325684 77.512451-5.76062 21.989502-5.249145 42.241211-14.50354 60.296143-28.220459 19.428955-14.760864 32.895263-33.987793 40.071289-57.167114 3.031982-9.793579 4.492187-20.26416 5.240966-30.531128 1.227784-16.834717 1.29126-33.75415 1.885743-51.851318 13.601074 1.044067 27.323486 1.573486 40.884277 3.341186 7.738281 1.008789 15.445801 3.437989 22.759277 6.278321 15.856934 6.158325 23.958985 19.018921 26.498536 35.07727 6.955322 43.98291-5.030274 82.14624-36.437012 114.016724-17.157227 17.410766-37.766602 29.369873-59.960694 39.127929-22.563964 9.920777-46.241943 15.932007-70.271728 20.498169-13.792481 2.620606-27.879395 4.132691-41.904297 4.987427-21.288574 1.29773-42.634766 1.88208-63.9646 2.171631-9.169677.12439-18.37622-1.085693-27.537109-1.983032-11.994629-1.174927-24.091064-1.945191-35.905273-4.162232-13.813355-2.592041-27.558594-5.94458-40.980835-10.105102-11.926148-3.696778-23.49878-8.650635-34.991211-13.598389-11.482056-4.943481-21.67981-11.936401-31.346802-20.006836-14.65271-12.232544-26.439087-26.427124-34.429932-44.198974m92.565552 6.104492c2.831909-.006226 5.679688.179687 8.493164-.050781 14.476929-1.186036 27.863281-4.961182 37.890015-16.443238 15.913574-18.223266 17.791748-52.821045 4.091064-73.106201-9.772461-14.469238-24.049927-20.511963-40.728393-21.813843-28.680786-2.238769-53.13562 10.762329-59.133545 40.702759-2.709839 13.5271-2.214844 26.966675 2.863281 39.818115 8.099854 20.499268 24.527466 29.237427 46.524414 30.893189z" fill="#c47034"/><path d="m873.418091 434.686523c.133606.552094.173584 1.08783.213623 1.623597-.196533-.301514-.393006-.603028-.519287-1.209137.070312-.304596.212158-.430817.305664-.41446z" fill="#e2b799"/><path d="m1387.25415 770.236267c-2.751342 30.629883-20.649902 48.994263-50.746948 52.92273-11.730224 1.531005-23.284424 1.024841-34.629761-1.96576-20.801635-5.483398-33.313232-19.438781-38.407104-39.935547-3.620117-14.567016-3.601685-29.437622.027954-44.023071 6.278931-25.231384 24.232178-40.361938 51.161011-41.990967 10.974853-.663879 22.49414-.101867 33.104126 2.549622 24.248413 6.059692 35.877563 23.912659 39.07312 47.647095 1.076294 7.993713.368652 16.2276.417602 24.795898z" fill="#fffefe"/><path d="m138.003433 1292.810059c-9.738342-1.686036-19.422447-2.227784-28.230949-5.289063-17.691033-6.147949-27.371636-20.084717-31.368859-37.839966-3.669059-16.297363-3.518379-32.685547 1.509949-48.814941 5.778336-18.535156 18.119408-30.272827 36.873444-35.078247 16.172561-4.143921 32.380539-3.888306 48.181946 1.584717 18.875167 6.537597 29.429687 20.666503 33.325897 39.721679 3.303879 16.158081 3.217316 32.392334-1.879273 48.337891-7.254913 22.698242-23.874908 33.441284-46.518386 36.450073-3.788865.50354-7.627701.631104-11.893769.927857z" fill="#fffefe"/><path d="m785.501404 418.490906c23.177246 17.292785 37.121887 39.471771 39.607788 68.761413-102.053467 0-203.717346 0-305.675171 0 .037842-20.201843 4.776917-38.883636 16.753052-55.32196 14.378357-19.735565 34.580444-31.199249 57.434021-37.569122 55.048645-15.343384 109.610718-13.669739 162.882019 7.942901 10.074402 4.08728 19.174621 10.575867 28.998291 16.186768z" fill="#fffefd"/><path d="m716.513306 141.191345c34.303772 8.407166 35.947021 49.528961 20.592895 66.776779-11.295532 12.688614-32.849853 17.136307-49.720581 9.634858-17.495117-7.779084-25.648804-23.9292-22.620849-44.805527 2.499084-17.229782 15.816223-30.067337 33.956542-32.030213 5.716858-.618591 11.586365.172821 17.791993.424103z" fill="#fdfdfd"/><g fill="#fffefe"><path d="m2057.823242 838.74054c-7.554199 18.228759-21.589233 27.228942-40.130371 30.210388-11.611572 1.867126-22.975708 1.12445-34.04895-3.035034-14.866699-5.584412-24.42688-16.039734-28.844605-31.266724-3.547607-12.228272-4.113769-24.565552-1.125488-36.958923 5.810791-24.099427 23.186401-38.407471 48.082886-39.554322 14.257812-.656799 27.940796 1.36615 39.895019 9.970825 11.623658 8.366883 17.537232 19.968628 19.483033 34.004395 1.717285 12.387695 1.564209 24.499207-3.311524 36.629395z"/><path d="m2002.250122 1223.901733c-21.529907-1.642944-37.957519-10.381103-46.057373-30.880371-5.078125-12.85144-5.57312-26.291015-2.863281-39.818115 5.997925-29.94043 30.452759-42.941528 59.133545-40.702759 16.678466 1.30188 30.955932 7.344605 40.728393 21.813843 13.700684 20.285156 11.82251 54.882935-4.091064 73.106201-10.026734 11.482056-23.413086 15.257202-37.890015 16.443238-2.813476.230468-5.661255.044555-8.960205.037963z"/></g></svg>