<svg enable-background="new 0 0 976 896" viewBox="0 0 976 896" xmlns="http://www.w3.org/2000/svg"><path d="m259.246887 317.759705c-7.252365 19.357605-14.339859 38.557617-21.302734 57.802764-23.272034 64.32309-46.522217 128.654145-69.682511 193.017487-1.265472 3.516785-3.03688 4.897339-6.856018 4.86377-19.829589-.174073-39.664314-.268921-59.490722.034912-5.245552.080383-6.363823-1.718323-6.356201-6.58252.127243-81.157379.099205-162.315002.080459-243.472565-.002365-10.218109 1.073639-9.269409-9.323257-7.738678-36.450905 5.366669-70.440695-14.274108-75.748617-53.874816-2.532869-18.896958.508461-36.505631 12.504295-51.875168 9.598059-12.297409 22.823355-18.628495 37.648806-21.905426 17.577327-3.885193 35.059299-3.340561 52.139995 2.628174 22.768494 7.956314 35.356567 24.47116 39.451126 47.878067 1.439316 8.227996 1.582916 16.576797 1.592392 24.880065.087158 76.324433.036881 152.648987.070496 228.973511.001266 2.872101-.5802 5.889496.88562 8.831116 2.533798-1.334808 2.756012-3.692719 3.453628-5.590576 27.160477-73.889862 54.279358-147.795044 81.292893-221.738709 1.42395-3.897735 3.430572-5.450744 7.646301-5.299286 8.488037.304993 16.999024.243866 25.491913.014801 3.702179-.099884 5.526794 1.06189 6.938141 4.679841 22.382599 57.378631 44.941345 114.688507 67.456665 172.01538 6.693909 17.043549 13.369507 34.09433 20.081085 51.130921.632965 1.606689.772431 3.594604 3.411591 4.611786.311767-5.169525.989319-10.076966.840088-14.959137-.946961-30.98935-.332673-61.983338-.403992-92.973664-.14267-61.992706-.013062-123.985992-.0784-185.978958-.008423-7.978714.150299-15.976364-1.21524-23.919494-.553162-3.217545-1.740387-3.922669-4.668396-2.704041-17.631684 7.338135-36.088745 11.828369-54.926911 14.230805-33.273193 4.243392-66.487823 5.120147-98.453811-7.607102-15.85759-6.31369-28.351837-16.482483-32.273331-34.08194-4.309784-19.342025 1.655075-35.458023 16.935425-47.993423 12.877075-10.563858 28.315185-15.14035 44.282364-18.377762 19.74324-4.003029 39.73854-3.88607 59.660629-2.831711 25.278961 1.337868 49.815796 6.373284 72.504089 18.316643 1.912842 1.006958 3.731324 2.192841 5.596375 3.290993 1.700348 1.001175 3.198303 2.403152 5.797149 2.787132 4.694428-8.729317 7.26764-18.2994 9.384369-27.998146 2.953919-13.53476 4.363861-27.256142 3.992829-41.108341-.107636-4.016949 1.029754-5.589466 5.298492-5.519432 9.528412.156334 18.929871 1.067154 28.187409 3.292598 11.579589 2.783665 19.1846 11.340249 20.211212 23.156929 2.304596 26.52623-4.926483 50.325325-20.926178 71.52958-3.414124 4.524734-6.837769 9.050582-11.04242 12.883636-2.20224 2.007629-2.337371 3.998383-1.093963 6.662109 7.658539 16.406449 11.024322 33.827713 11.04187 51.808579.106964 109.654266.048645 219.308685.121307 328.962982.00232 3.529846-.837555 6.342224-3.144745 9.083008-9.545013 11.338684-18.968322 22.782043-28.275055 34.317139-1.83847 2.278686-3.926391 2.722168-6.537872 2.700866-8.998413-.073486-18.001465-.216736-26.994659.000428-3.908905.094421-5.925721-1.163025-7.353119-4.965638-14.215424-37.8703-28.632965-75.664642-42.977081-113.486663-17.533021-46.230439-35.047272-92.468018-52.591767-138.694092-.454193-1.196656-.635254-2.63562-2.282013-3.108734m50.82193-207.333199c-1.147339-.198143-2.290649-.424286-3.442627-.590225-16.949646-2.441528-33.803802-3.197075-50.203796 3.11026-15.322342 5.892876-22.830216 16.611641-22.077667 31.400169.607406 11.936371 10.170883 21.512818 25.282989 25.358078 14.960327 3.806626 30.071259 3.289292 45.08252.879486 18.373169-2.949493 35.167602-9.853546 49.847931-21.612381 3.240325-2.595459 3.193481-4.613311 1.059356-7.843368-10.774109-16.306732-26.239746-25.605309-45.548706-30.702019m-258.006962 165.995888c9.845661 11.556579 22.760983 12.611877 36.467701 10.406006 14.860901-2.391663 23.052216-11.7594 25.793846-26.103363 1.447487-7.57312.949807-15.176514-1.215637-22.663285-2.871849-9.929107-9.294876-16.310791-18.968361-19.577728-6.578476-2.22168-13.409362-2.898056-20.215507-2.005234-9.868836 1.294541-18.690685 4.763153-24.215809 13.899216-7.799141 12.896225-6.997967 33.106705 2.353767 46.044388z"/><path d="m915.664185 558.645874c-4.473877 5.406555-8.896546 10.404968-12.920899 15.705688-2.038757 2.685303-4.253845 3.745301-7.583618 3.67212-8.828186-.194153-17.668152-.267456-26.492798-.015442-4.072571.116333-6.312439-1.248108-7.995178-5.033753-12.242371-27.541931-24.672363-55.000549-37.062012-82.47702-19.372803-42.962799-38.757568-85.920227-58.163025-128.868286-.387878-.858429-.57904-1.966431-2.044677-2.401154-2.999024 4.105164-4.540101 9.025299-6.546082 13.672669-27.914551 64.670105-55.812378 129.347595-83.534973 194.100036-2.073059 4.842041-4.646485 6.605591-9.991455 6.502198-18.657349-.361084-37.325806-.150757-55.990051-.15625-7.677674-.002198-7.688538-.000672-7.688782-7.52594-.002747-79.656403-.001648-159.312836-.001709-238.969239 0-1.666442.005432-3.332946-.00116-4.999359-.027038-6.838684-.076355-7.230804-7.062683-6.375549-9.068848 1.110168-17.939392.573853-26.763672-1.490845-21.876037-5.118591-36.05719-18.575348-42.545532-39.975067-5.241516-17.287414-4.72699-34.573562 1.93866-51.380066 7.4859-18.874679 22.303649-29.600723 41.420044-34.30281 18.677307-4.594071 37.31842-3.654206 55.37738 3.497161 20.599731 8.157471 34.927856 29.105912 35.329101 51.324738 1.552491 85.972824.267823 171.952225.629883 257.927719.009522 2.264923-.33374 4.6008.683167 7.005432 2.497925-.602569 2.567749-2.726288 3.236206-4.210144 21.821167-48.436828 43.592651-96.896026 65.372436-145.351471 5.462098-12.151977 11.020508-24.262085 16.328125-36.48117 1.396851-3.21576 3.239258-4.513703 6.789002-4.42508 8.82666.220276 17.667908.248596 26.492187-.016723 3.734131-.112244 5.609192 1.241729 7.187561 4.564453 17.937561 37.762085 36.020325 75.45523 54.067261 113.165344 10.928833 22.836365 21.861878 45.670624 32.797669 68.503632.629028 1.313232 1.071594 2.795532 2.89508 3.539459 1.938904-3.14621 1.257507-6.517487 1.258057-9.686218.007629-46.827149-.045594-93.654297-.127014-140.481415-.043213-24.828522-.172364-49.656952-.252869-74.485413-.01294-3.997681-.753784-7.8591-1.953308-12.231689-7.211853 1.969146-14.159119 4.065704-21.204651 5.751648-19.795288 4.73703-39.886658 7.576202-60.245239 7.592041-22.979187.017883-45.55597-2.666718-66.300965-13.619934-12.368835-6.53064-23.150146-14.961899-27.210144-29.097336-5.455505-18.993927 1.843323-36.620346 19.328553-48.208527 15.195068-10.070419 32.290527-14.763595 50.085876-17.166824 15.707275-2.121247 31.477661-2.449677 47.313721-1.106751 27.128113 2.300507 52.802978 8.732132 75.31134 24.93512 3.081116 2.217926 5.336853 5.532669 9.029663 6.887314 2.157471-.531067 2.743775-2.460877 3.678467-3.9357 8.756531-13.817108 14.376221-28.865707 17.094238-44.962646.639649-3.788452 1.935913-5.171402 6.098511-5.05542 11.012573.306869 21.525146 2.347107 31.192444 7.63797 12.925781 7.074264 18.901977 21.133392 15.803955 35.693237-3.623657 17.030029-14.760925 28.746109-27.60968 39.170502-4.637696 3.762634-9.770874 6.95343-14.867676 10.097595-3.315247 2.045105-4.596497 4.267105-3.338623 8.221787 5.088379 15.997253 6.564392 32.442566 6.524231 49.20346-.182434 76.156433-.107178 152.313599-.004822 228.470307.005676 4.248535-.944336 7.659485-3.79895 10.864807-4.758728 5.343445-9.180908 10.986633-13.960571 16.786804m-150.553711-353.040924c-2.399292 1.484619-4.975953 2.746353-7.168152 4.49115-11.474549 9.13269-13.140747 23.56337-3.905823 34.833282 3.998413 4.87941 9.63385 7.5318 15.4021 9.812394 10.957397 4.33226 22.441467 4.311538 33.92279 3.913589 19.824768-.687195 38.176453-6.579895 55.521362-16.008438 3.706971-2.015076 4.324952-3.952698 2.202332-7.851654-18.914917-34.744278-64.255188-43.532669-95.974609-29.190323m-190.043213 78.95694c6.859314 1.992736 13.92279 1.863556 20.802551.890228 9.111511-1.289032 16.746338-5.656403 21.197449-14.1232 4.645263-8.835876 5.722351-18.34169 3.988464-28.104675-1.20282-6.772644-3.016601-13.479065-8.500183-18.17392-11.440857-9.795364-24.597351-10.763076-38.47644-6.673782-12.569458 3.70343-18.38556 13.130341-20.258362 25.313904-2.515808 16.36644 2.449096 35.291275 21.246521 40.871445z"/><path d="m708.795532 13.675626c33.39917-4.27246 65.842407-3.871973 96.679993 10.71762 9.231384 4.367489 17.779053 9.785095 25.009094 17.112625 1.151062 1.166591 2.448242 2.188949 3.528992 3.146076 1.349792-.26778 1.46228-1.123844 1.662903-1.915966 4.594787-18.135736 16.391052-29.580482 33.984924-34.523667 21.571655-6.060797 43.144287-5.776259 63.872986 3.790955 18.194702 8.397682 27.544494 23.475041 30.633545 42.743412 2.200989 13.729126 1.037048 27.310242-4.369019 40.159271-8.313598 19.759644-24.270691 29.68483-44.74945 33.315697-4.431702.785752-8.885865 1.149094-13.408021 1.147232-92.149475-.037994-184.298889-.018783-276.448364-.014419-7.460327.000366-7.394653-.012162-7.506897-7.285973-.23407-15.167969-.102478-30.297684 4.0719-45.060837 6.535278-23.112629 20.773681-39.790344 42.236084-50.384582 14.018066-6.919544 28.876953-10.992102 44.80133-12.947444m118.046143 87.943255c2.361511.05912 3.744507-.479194 3.312683-3.452202-.652649-4.493545-1.755188-8.813507-3.788818-12.845733-7.648682-15.165459-20.817444-23.911698-35.96045-29.949845-23.953064-9.551059-48.886413-10.599735-74.063049-6.864204-27.132996 4.02578-41.102478 19.365913-42.959534 46.203918-.437011 6.315415.095398 7.031891 5.742188 7.029908 48.948913-.01725 97.897888-.05925 147.71698-.121842m49.110534-62.275635c-1.772644 1.488926-3.886352 2.715992-5.263183 4.508889-9.564514 12.455196-9.48291 26.041809-3.939453 39.948272 2.901184 7.278023 8.850647 11.540184 16.258056 13.529808 8.482727 2.278435 17.125 2.217255 25.636963.197953 5.057312-1.199768 9.594422-3.625634 12.951844-7.864632 8.960815-11.313744 8.711975-23.947174 4.95111-36.86013-2.704834-9.287243-9.467102-14.793652-18.776977-16.603413-10.569336-2.054581-21.147644-2.158699-31.81836 3.143253z" fill="#c46f33"/></svg>