<svg enable-background="new 0 0 4908 1856" viewBox="0 0 4908 1856" xmlns="http://www.w3.org/2000/svg"><path d="m3832 1858c-1277.333252 0-2553.666382 0-3829.999657 0-.000115-618.666382-.000115-1237.332886-.000229-1855.999491 1635.999398-.00017 3271.998909-.00017 4907.998909-.000339 0 618.666029 0 1237.332227.000489 1855.999098-358.999512.000732-717.999512.000732-1077.999512.000732m-3001.376953-678.998901c0-148.650879.061279-297.30188-.107727-445.952637-.01471-12.946411-.499329-26.060486-2.562256-38.805847-7.021851-43.384339-30.418518-73.959168-72.82074-88.119568-28.702331-9.585266-58.215149-10.344544-87.865967-5.14679-23.404785 4.103028-44.699585 13.0542-62.331604 29.43866-23.942077 22.247864-33.733703 50.666138-34.387634 82.482361-.730041 35.513855 9.165833 67.555237 36.537598 91.604736 31.840149 27.975464 69.476806 34.582581 110.313843 26.167175 2.819519-.580993 5.608215-1.311401 9.18872-2.155578 0 3.452453 0 6.090027-.000061 8.727661-.000915 119.987122.008118 239.974304-.032654 359.961365-.002075 5.993774-.082336 12.026245-.7359 17.973633-1.837159 16.717407-8.390015 32.825439-33.465027 35.821655-6.59253.787842-13.289063.828491-19.942627.952148-8.25824.153565-16.521546.036865-25.123474.036865v49.698121h11.592895c117.32074 0 234.641602.068847 351.962219-.071778 18.312867-.021972 36.672608-.349243 54.925293-1.69458 24.298828-1.791138 48.242188-5.944702 70.792847-15.86499 29.899536-13.153442 50.493408-34.938965 61.739136-65.753418 9.070678-24.85437 11.072876-50.642212 11.078125-76.710205.054443-269.971069.034179-539.942078.034546-809.913147 0-3.234284 0-6.468567 0-10.709442-11.867676 0-22.817017.467041-33.700928-.175446-6.51294-.384491-10.397583 2.196228-14.289551 6.899475-16.143921 19.509186-32.357544 38.97226-49.056274 58.003998-5.425049 6.182892-7.556031 12.359009-7.549317 20.587067.204346 247.306579.177735 494.613464.12439 741.920288-.002197 9.989136-.180298 20.014892-1.023682 29.960327-3.142578 37.06189-23.103515 59.371094-59.600708 65.948364-12.395019 2.233765-25.103393 3.687744-37.681457 3.782105-56.324219.422851-112.653076.234619-168.980225.224609-2.225708-.000366-4.451355-.429932-7.03186-.696045 0-22.447143 0-44.434082.000061-68.421142m3963.702637-316.001221c-.154786 112.297546-.308106 224.595093-.492188 336.8927-.000488.21106-.436523.437134-.69043.627442-.266113.199462-.557617.364135-1.596679 1.029785-3.001465-2.62732-6.27002-5.344239-9.379395-8.23169-34.249023-31.800537-70.425293-61.161255-109.831054-86.387329-38.928223-24.920166-79.881836-45.303711-125.456055-55.15686-.860352-.185913-1.583008-1.008423-2.705078-1.757813 0-3.589355-.000489-7.23352-.000489-10.877807-.000488-102.985962-.038574-205.971924.041993-308.957825.011718-15.03949-.847657-29.928894-4.307129-44.619934-9.886231-41.978455-35.353028-69.44513-76.875489-81.101013-33.803711-9.489075-67.858398-9.123596-101.454101 1.369934-32.307129 10.091003-56.084961 30.388977-68.811035 62.034057-9.123535 22.686524-10.536621 46.45691-7.041993 70.71045 6.487793 45.020752 39.286133 81.223877 83.60254 91.524719 23.439941 5.448364 46.786621 5.878662 70.268554-1.868591v214.478515c-13.399902 1.870361-26.375 2.797608-38.933594 5.597168-40.600585 9.050659-72.82373 30.531372-93.885253 66.951538-18.456543 31.916138-22.871582 66.517334-16.226563 102.378052 6.46875 34.912109 24.414551 62.30896 56.280274 79.438965 16.926269 9.099365 35.17041 13.859497 54.260253 15.824829 26.480957 2.726318 52.642579 1.811279 77.906739-7.280762 24.183105-8.703369 42.608886-24.117676 53.579101-47.909302 7.237305-15.694213 10.889649-32.225708 11.230469-49.289428.579102-28.98523.291016-57.987793.36377-86.983155.010742-4.269287.001953-8.538696.001953-13.401977 2.296875.432983 3.987793.448608 5.41748 1.067383 15.851074 6.860717 32.171875 12.851684 47.383789 20.928222 41.864258 22.227295 78.024414 52.330567 111.199219 85.747803 27.680176 27.882568 53.752441 57.372315 80.200684 86.456177 4.435546 4.878052 8.697265 7.349975 15.336914 6.920532 8.297363-.536499 16.676757-.482178 24.981445-.005615 5.622559.322632 9.166016-1.763672 12.672363-5.992554 16.800293-20.262451 33.784668-40.376098 51.003418-60.283447 4.153809-4.802002 6.112793-9.531128 6.107422-16.023071-.164551-205.305237-.134766-410.610535-.134766-615.915894 0-3.24054-.000488-6.48114-.000488-10.614319-11.84375 0-22.769043.259033-33.672851-.109253-5.452149-.184082-9.165039 1.435059-12.72168 5.72638-17.220215 20.780578-34.645996 41.395813-52.328613 61.783569-4.027344 4.643005-5.422852 9.291199-5.404297 15.303955.184082 59.324646.11084 118.650086.11084 179.975464m-4530.134461 417.876099c12.834473 10.532348 27.375702 17.518676 43.474365 21.582519 27.66092 6.982788 55.573487 7.675415 83.104828.919678 39.753235-9.754517 67.805176-33.187622 79.047974-73.831787 8.027862-29.021607 7.62204-58.144287-2.209992-86.602173-9.821594-28.427612-28.510284-49.231934-56.533477-61.268067-23.376862-10.040527-47.72403-11.239624-72.565888-8.809326-2.475677.24231-4.968231.311646-8.19458.505738 0-4.813233 0-8.773072 0-12.732911 0-200.985961.007019-401.971984-.016357-602.957946-.001496-12.998017.111267-26.010712-.434876-38.991089-1.235718-29.370392-5.031006-58.386475-13.986664-86.512757-19.652496-61.720977-59.78952-103.495361-121.401336-124.255905-32.496399-10.94992-66.018067-15.535003-100.1801-16.127197-3.876129-.067184-7.754432-.009094-11.152893-.009094-.560043-1.577271-.815452-1.918122-.76271-2.201676 7.168098-38.535644 26.984397-67.725532 63.420837-83.947837 32.711502-14.563881 67.224014-16.521759 101.888687-10.389161 25.172684 4.453354 50.057633 10.94027 74.716232 17.795998 36.195191 10.063202 72.718689 16.598007 110.413514 14.665939 17.368805-.890251 34.427551-3.76741 50.778717-9.911712 31.662323-11.897812 48.448211-37.938301 46.039459-71.591721-1.069641-14.94495-6.965088-27.453304-19.956268-36.778931-12.210968 14.691428-28.006836 22.413096-45.871796 26.836071-30.113983 7.455574-59.989563 6.845746-89.880829-1.18394-27.960449-7.511015-55.74707-15.932936-84.050751-21.844724-50.288101-10.503672-100.278305-8.465407-148.239807 11.305873-64.994476 26.792818-105.806835 74.367868-120.034824 143.911409-4.591391 22.441803-3.396746 45.10434-3.571722 67.731796-.019922 2.5766.386078 5.156495.63044 8.178254 12.185863.592498 23.822164 1.01741 35.438905 1.75177 26.00045 1.643585 51.661827 5.253112 76.447418 13.726989 31.35257 10.719056 57.013962 28.587738 73.404816 58.184082 7.822113 14.124085 12.661713 29.303864 15.966629 45.014618 5.589752 26.572144 6.255631 53.523743 6.251129 80.547852-.040863 245.649536-.048584 491.299011.057999 736.948547.004761 10.957398.49234 22.012451 1.987106 32.852051 3.620316 26.253418 14.323181 49.061768 35.975815 67.48877m2706.328797-645.337159c-7.982911 5.420044-16.362305 10.344056-23.877686 16.349244-27.229492 21.75708-45.275391 49.421569-52.029785 83.913146-5.025147 25.663758-2.002442 51.015748 3.025635 76.356873 1.220947 6.153137 3.702636 8.780884 9.735107 10.469055 39.089355 10.938965 78.052002 22.33197 117.034424 33.650757 3.878174 1.126038 7.611084 2.751404 11.411377 4.14502-2.150391 2.888855-4.115479 3.831054-6.149414 4.587646-11.522949 4.286255-23.353272 7.882141-34.540039 12.911499-28.745118 12.92334-51.800782 32.389649-66.700684 60.688355-12.538818 23.814941-17.968262 49.600158-18.140625 76.074157-.612793 93.982422-.378662 187.970215-.426514 281.956055-.000976 1.532837.487549 3.065918.696534 4.29834h103.449707c0-4.39563-.000977-8.050537.000244-11.705444.026855-88.653931-.233399-177.309815.358154-265.960022.101318-15.150635 2.563477-30.589844 6.16919-45.350037 7.717041-31.590881 26.529785-54.718689 56.810302-67.801575 15.431397-6.667053 31.67334-10.260986 48.327881-11.674743 5.415527-.459778 8.333008-2.714356 10.728027-7.22229 9.169434-17.25763 4.27002-34.922547-12.668457-44.644288-2.595947-1.489807-5.302978-2.788391-7.976074-4.140869-35.93164-18.179931-71.869629-36.346496-107.793457-54.541504-3.186279-1.613708-6.284179-3.401611-9.446777-5.121521.576904-7.791626.751221-14.803894 1.668945-21.717468 3.590088-27.041504 12.814453-51.562805 32.48877-71.33905 18.141601-18.236145 40.238769-29.411133 64.851074-35.58783 38.338867-9.621643 77.191406-10.45636 116.027588-3.838074 32.593506 5.554383 61.780273 18.514893 84.464599 43.623108 20.064209 22.208496 30.438233 48.91211 35.95044 77.849183 4.134521 21.704956 4.967285 43.683044 4.978515 65.68103.078614 152.978271.041749 305.956482.041993 458.934753v12.643799c12.258545 0 23.515625-.256103 34.751709.11438 5.166015.170166 8.564209-1.43042 11.896728-5.441406 17.246582-20.757935 34.688477-41.35791 52.35376-61.760254 3.977783-4.594239 5.54541-9.176148 5.538086-15.248657-.159424-135.980591-.094483-271.961182-.154541-407.941834-.008789-20.019714-1.507568-39.934204-5.427735-59.623596-11.867675-59.605103-44.132324-104.00116-98.342285-132.050659-40.386474-20.897156-84.034179-29.259217-128.79541-32.668579-41.308105-3.14618-82.606201-2.277344-123.659912 3.723388-40.428467 5.909302-79.581299 16.055664-116.629394 37.409912m832.969726 633.929322c10.870606 14.926269 24.97583 25.840576 41.983643 32.773315 35.832763 14.606323 72.64624 15.673706 109.682617 5.877441 37.992432-10.049072 61.608398-35.163818 72.778808-72.533325 5.69629-19.056152 7.039551-38.601318 7.056397-58.305542.052246-61.320678.079101-122.641479-.009522-183.962036-.033691-23.354614-1.264404-46.622131-7.048339-69.408081-12.36377-48.708313-41.552246-81.529175-90.17212-96.56665-28.041503-8.672852-56.771484-11.091309-85.832275-11.15326-57.654541-.122924-115.309814-.03778-172.9646-.038635-3.516845 0-7.033447 0-11.688476 0 .97998-11.686157 1.250732-22.005249 2.80249-32.127991 5.276123-34.417663 22.161865-61.726074 51.64917-80.604126 36.03833-23.072082 76.083984-27.714355 117.251953-22.062255 24.281494 3.333679 48.196533 9.819946 72.018799 15.897583 34.240234 8.735595 68.388916 17.269226 104.090576 17.31903 24.148682.033631 47.936524-1.629882 70.712891-10.403503 38.453613-14.812622 50.255859-47.440857 44.245605-79.722351-2.220703-11.927734-8.628906-21.373535-18.896484-28.502564-9.896973 13.556458-23.713623 20.849488-38.931885 25.296143-27.624267 8.071838-55.848877 9.775757-84.009765 3.611816-24.029541-5.259826-47.783204-11.813293-71.585694-18.072448-44.269531-11.641236-88.93042-17.044922-134.468262-8.855957-46.349365 8.334961-86.43872 28.423645-117.840087 64.128418-33.627198 38.234924-49.260987 84.089782-54.048829 133.838684-2.16455 22.490112-1.514892 45.252746-2.067382 67.893554-.045655 1.864136.480224 3.742127.803222 6.063233 4.163086 0 7.791504-.001892 11.420166.000183 64.986573.037292 129.973145-.012756 194.959229.167236 19.040771.052735 37.878418 2.204163 56.217041 7.706238 28.634765 8.591309 46.752685 27.535217 53.63623 56.425415 2.909424 12.212341 4.656739 24.953308 4.91919 37.496094.716797 34.312195.379883 68.646728.395752 102.972412.000976 2.114868-.559571 4.229858-.734864 5.466919-13.400634-.654541-26.054199-2.323975-38.589355-1.68103-33.068848 1.696289-61.340088 14.275634-82.851807 40.120727-15.41455 18.519776-23.124267 40.336914-25.348388 64.026856-2.876465 30.638549 1.763916 59.761352 20.464355 86.918457m-2114.967407 44.424926c8.884399-1.321167 17.906372-2.047607 26.628906-4.067382 35.428467-8.203614 61.035645-28.296265 74.827515-62.605713 8.877441-22.084229 10.965698-45.180664 10.998901-68.604248.088013-61.984131.233154-123.969605-.105713-185.952088-.087158-15.952697-1.140136-31.985901-3.061157-47.822937-2.913208-24.018066-9.989502-46.870056-23.633667-67.194763-19.629028-29.239502-48.096558-45.216064-81.501587-53.553101-24.727051-6.171325-49.936645-7.923584-75.316284-7.932739-57.318726-.020691-114.637573-.007507-171.956299-.008117-3.567627 0-7.135132 0-12.028442 0 .911987-11.330994 1.169189-21.600953 2.653686-31.690369 5.135132-34.901306 22.550049-62.322266 52.234375-81.34668 35.704712-22.882812 75.528931-27.328857 116.334473-21.835571 24.286499 3.269531 48.221802 9.715759 72.028198 15.84729 34.55188 8.899231 69.04541 17.374878 105.067139 17.460083 24.153198.057068 47.930298-1.742432 70.680298-10.583557 36.763916-14.287293 50.167602-45.840637 43.551635-79.992676-2.254394-11.636963-8.081176-21.48291-18.93518-27.957519-8.03418 11.051879-18.658325 17.775817-30.708496 22.249755-30.148316 11.19336-61.201661 13.025391-92.428833 6.4151-24.057251-5.092529-47.767334-11.84851-71.583863-18.049438-43.9458-11.441834-88.28894-17.050415-133.478027-8.776184-75.484253 13.82135-128.008667 56.030334-156.36145 127.593689-12.159424 30.690369-16.756958 62.951843-18.033203 95.703186-.618897 15.878723-.106934 31.801575-.106934 48.658935 4.359863 0 7.94165-.001831 11.523438.000245 65.316528.038574 130.6333.00531 195.949585.16217 18.713989.044922 37.229248 2.189514 55.23999 7.534546 28.525512 8.465515 47.15039 26.902038 54.049682 55.972595 2.825318 11.904846 4.810669 24.263855 5.105103 36.466309.843872 34.971191.63916 69.968017.794678 104.954956.008545 1.919922-.45459 3.842041-.75293 6.194092-17.856567-2.923218-35.291992-4.461304-52.902466-1.2771-39.135742 7.07605-67.906372 27.540039-84.230835 64.352539-11.008911 24.825928-13.392334 50.863037-8.811523 77.277466 6.951172 40.083008 28.557495 68.854492 67.548462 83.301147 22.271972 8.252075 45.349487 10.090576 70.720825 9.106079m517.171997-248.085449c-.167481-3.982544-.480957-7.96521-.48169-11.947754-.024902-146.642334-.02124-293.284668-.02124-439.927002 0-4.230835.000244-8.46167.000244-13.588684-13.930908 0-26.530517-.251281-39.103271.217835-2.43457.09082-5.265625 2.56549-7.06543 4.666992-17.989746 21.005676-35.720459 42.233398-53.734619 63.218079-3.493408 4.069763-4.85791 8.226013-4.854492 13.557312.111084 166.305664.06665 332.611389.138916 498.917114.006836 15.713135 2.021973 31.182373 6.770752 46.2854 8.433838 26.822022 24.782471 47.43335 50.027832 59.413941 41.861572 19.865966 85.066894 20.224975 128.009521 3.592163 27.528321-10.662354 46.452393-30.871094 56.333496-58.731934 11.054932-31.170166 11.25879-62.849609.536866-94.0896-12.396729-36.11975-37.477783-58.885131-74.81128-68.069458-20.091552-4.942626-40.264404-4.342529-61.745605-3.514404m394.305664-222.807617c0-80.543091 0-161.086182 0-242.696777-12.004883 0-22.927002.317382-33.818115-.126099-5.964356-.242859-9.837403 1.944336-13.545899 6.416626-16.801513 20.262207-33.720459 40.43396-50.994629 60.29248-4.258056 4.895264-5.910644 9.735352-5.905517 16.115357.136474 165.294861.072998 330.589844.197021 495.884643.007569 9.950562.530518 20.018799 2.090821 29.829102 6.436279 40.46521 28.047363 69.418457 67.055908 83.461792 36.310058 13.071899 73.264404 13.087036 109.687744.35437 30.34668-10.60852 51.452881-31.45874 62.298096-61.921265 7.739502-21.739379 9.060791-44.349975 6.326904-67.077148-2.673096-22.2229-10.182617-42.722168-24.873047-60.065918-20.620605-24.344604-47.584961-35.822876-78.847412-37.553589-12.842285-.710815-25.779785.299805-39.671875.545044 0-73.636474 0-147.547546 0-223.458618m1345.343018-517.163452c-38.266602-16.835663-78.020997-28.703186-119.070557-36.615723-43.321289-8.350403-87.014404-12.383179-131.067627-13.186157-68.842041-1.254791-137.078125 4.990967-205.064453 15.479553-72.186035 11.136566-143.228027 27.366669-213.612549 46.571259-85.832031 23.419342-170.145508 51.602905-253.506348 82.62204-101.800048 37.880676-201.777099 80.179504-300.738769 124.909851-2.975098 1.344848-6.036377 2.500061-9.657227 3.9906-4.25122-8.739136-8.261718-16.983093-12.816406-26.345398-17.631836 21.860596-34.3396 42.612122-51.196533 64.239136 16.288086 2.871094 75.833008 3.77771 81.773926 1.360718-3.653809-8.094971-7.30542-16.184632-11.187256-24.784668 3.740478-1.848816 6.634765-3.386963 9.615478-4.733277 10.927002-4.935363 21.883301-9.805481 32.827393-14.702941 89.397705-40.005799 179.805176-77.568177 271.675049-111.537018 109.086181-40.334656 219.680664-75.766571 333.078613-102.106079 82.884766-19.252045 166.57666-33.357819 251.551269-38.408112 57.959229-3.444733 115.969971-2.444 173.572022 5.958344 61.703369 9.000457 121.052002 25.729553 176.46875 55.129547 34.993896 18.565368 66.828857 41.471496 95.137939 69.045562 44.553467 43.397248 77.397706 94.841278 101.503663 151.938324 28.092773 66.540223 43.416015 136.339112 51.690429 207.818421 5.639649 48.720764 7.942871 97.645935 7.710449 146.690185-.018554 3.885681-.002441 7.771485-.002441 11.663208h14.561035c.352539-1.753723.711914-2.712524.714356-3.672119.138183-53.037109-1.789063-106.003174-8.102051-158.676147-6.632324-55.335877-17.369141-109.862488-35.092285-162.872315-20.029297-59.908203-47.784668-115.619751-87.515137-165.107361-43.848877-54.617981-98.236572-95.341491-163.250732-124.669433m-2826.348023-181.554703c-176.590393-2.768463-352.006348 12.264649-527.454407 35.950684-1.60437-10.03386-3.039428-19.009278-4.520324-28.271378-11.697144 5.572861-61.97284 41.131409-66.800782 47.266281 25.554932 8.335709 50.59961 17.400284 77.253601 25.143769-1.343017-10.468384-2.471069-19.261399-3.661926-28.543625 3.276856-.686966 5.781677-1.421357 8.337281-1.717026 54.606445-6.317978 109.180541-12.942963 163.838745-18.77919 76.573425-8.176239 153.41217-12.966721 230.374939-15.044525 72.304992-1.952072 144.609924-1.491928 216.860046 3.10614 64.903931 4.130539 129.443115 11.064026 193.470093 22.574097 75.290527 13.534942 148.892334 33.014022 219.755371 62.192382 58.835449 24.225922 114.07605 54.704407 164.28418 94.019501 53.058837 41.547607 97.278442 90.943298 131.648071 148.930786 45.094482 76.081909 69.051636 159.120728 79.519775 246.386719 4.846924 40.405762 6.509278 81.023071 5.998047 121.722778-.040405 3.21045.316895 6.425904.507202 9.97168h13.983521c.236694-3.005737.605224-5.594971.620239-8.18634.282959-49.033875-1.768555-97.901734-8.941162-146.508789-11.334107-76.808899-33.473023-149.972718-71.317139-218.116333-39.487915-71.10376-92.772827-129.901551-158.099609-177.93155-65.603272-48.233551-138.418091-82.297653-215.437012-107.684829-90.602051-29.864472-183.942383-46.599655-278.611694-56.450562-56.37378-5.866028-112.959839-8.591232-171.607056-10.03067m3504.005005 1587.92421h43.141113c2.887207-7.250733-.072265-9.981812-5.348144-11.520142-6.064453-1.76831-12.121094-3.580322-18.113281-5.575195-6.006348-1.99939-8.887208-5.750244-8.820801-12.67395.316894-32.993164.092285-65.991211.236816-98.986817.012695-2.839111.698731-6.043457 2.129883-8.44873 9.764648-16.411255 21.140137-31.707764 36.033203-43.751587 7.121094-5.758789 15.316406-11.165039 23.924805-13.889649 14.435058-4.568725 29.195312-.571167 32.097168 18.199829 1.621093 10.484131 3.140136 21.105347 3.250976 31.679932.39209 37.324951.174805 74.656494.14502 111.985474-.008301 11.027588-1.273926 12.857788-11.918946 16.668945-6.855957 2.454468-13.834472 4.564575-21.423339 7.046631.209472 3.060303.397461 5.809814.597168 8.727661h100.094726c0-3.309082 0-6.081055 0-8.958008-8.450683-2.651123-16.416504-5.027221-24.295898-7.661865-5.996094-2.004883-9.196289-5.799683-8.733399-12.735596.531739-7.963379.125489-15.989868.121582-23.988891-.020019-40.661743.001465-81.323731-.089843-121.985352-.028809-12.744507-3.562012-24.422851-12.46045-33.836059-13.755371-14.550904-31.367187-17.337281-49.702148-13.268433-21.621094 4.798218-37.833008 18.835449-52.036133 35.165649-5.736816 6.596192-11.012695 13.594117-16.524414 20.441407-1.79541-9.64148-2.742676-18.609253-5.219238-27.133179-3.852539-13.260498-12.478028-22.664917-26.003906-26.755127-17.320801-5.237549-34.094727-4.630249-50.035157 5.009766-13.231933 8.002075-24.711425 18.048584-34.9375 29.519287-6.080566 6.8208-11.609375 14.134033-18.35791 22.418335-.927734-15.699829-2.18457-29.809937-2.423828-43.937378-.12793-7.518799-2.389648-12.787232-7.950684-15.294312-19.329589 6.5802-37.500976 12.766113-55.972168 19.053955v7.442993c5.632813 1.125611 10.850098 1.973755 15.967774 3.230469 11.822754 2.903076 15.578125 7.338013 15.616211 19.630615.149414 48.327271-.011231 96.65564.224609 144.982178.031738 6.479248-2.740722 10.08252-8.313965 12.000855-5.655761 1.946777-11.442871 3.513794-17.171386 5.251098-7.433594 2.254761-7.699219 2.840454-5.125 11.310059h98.001464c0-3.16626 0-5.697754 0-8.44812-8.119628-2.751709-15.989257-5.279175-23.753418-8.096558-5.541503-2.011108-8.206542-5.698852-8.152343-12.147339.279297-32.993774.064453-65.991577.237304-98.986694.016114-3.135376.793946-6.733154 2.458008-9.317505 10.490235-16.287476 22.206055-31.754028 36.904785-44.416016 6.386719-5.502075 14.266114-10.16687 22.263184-12.712768 15.257812-4.857544 30.353027-.059693 32.791016 19.679809.65039 5.266358 1.675781 10.544434 1.69873 15.820923.189453 42.994019.027344 85.990235.382813 128.982422.060546 7.31604-2.953614 11.244995-9.293946 13.409302-6.614258 2.258179-13.289551 4.33667-19.916992 6.557251-.89209.298706-1.659668.967285-2.905762 1.71814.124024 2.46289.250489 4.978271.432129 8.592773 18.419434 0 36.334473 0 56.249512-.000488m-3762.340332-222.029175c-3.088196-3.346314-6.317139-2.134644-10.016846-.867676-14.774719 5.059204-29.587402 10.044556-44.557983 14.476196-5.656494 1.674439-6.693237 4.459717-5.099365 9.424439 1.097107.472778 1.957519 1.058716 2.887634 1.207031 3.935608.626953 7.897705 1.085693 11.839661 1.675659 10.472168 1.567139 15.343566 6.349366 16.493469 16.776856.763855 6.926758 1.413269 13.9104 1.421997 20.869385.098266 78.308227.062256 156.616577.061767 234.924926 0 1.999268-.096374 4.003174.004761 5.997071.294434 5.806274-2.486877 9.554809-7.801513 11.393676-6.278443 2.172486-12.620972 4.165161-18.967103 6.134888-6.898254 2.141113-6.930358 2.12207-5.489074 11.271607h105.873596c0-3.314576 0-6.093506 0-9.131104-4.111572-.89209-7.697144-1.562256-11.224854-2.459717-6.115722-1.55603-12.268432-3.025757-18.27124-4.950805-6.77594-2.172974-9.83313-6.664673-9.755737-14.265259.3255-31.98645.11792-63.97815.189758-95.967774.004578-2.036377.724854-4.071289 1.284912-7.014892 2.533325 1.933593 4.127808 3.076538 5.641785 4.317749 13.07196 10.718139 27.757019 18.351684 44.123596 22.526733 11.916992 3.040039 23.711975 2.589478 35.11377-2.583496 12.017029-5.45227 22.512329-13.140625 31.038757-23.058105 15.167358-17.641968 25.63031-37.938965 32.472778-60.206665 6.195679-20.162598 6.256348-40.750977 3.517151-61.189087-2.890014-21.563721-9.26593-42.044678-23.74646-59.39209-19.177795-22.974854-46.58136-29.391114-73.224426-16.362061-18.844055 9.215332-34.401672 22.61499-48.815369 37.569947-2.317199 2.404296-4.070861 5.947265-9.224243 6.344238-.22699-11.600464-.498718-22.507935-.627075-33.417359-.055847-4.745971-.189575-9.380615-5.144104-14.044311m2423.882324 15.256103c2.836914-.795288 5.673584-1.590576 9.254395-2.594482-.190674-2.899902-.370362-5.630005-.559571-8.505737-29.776123 0-58.625488 0-87.784179 0-.367188 1.689453-.95752 2.966552-.827881 4.165771.169433 1.563965.90918 3.066162 1.459717 4.768799 4.232666.434814 8.259521.464478 12.0979 1.329956 6.24292 1.407593 8.131592 5.921875 4.495361 11.216675-2.417236 3.520264-5.610107 6.609985-8.84375 9.450928-18.750732 16.472534-37.603759 32.828247-56.453613 49.1875-3.846435 3.338256-7.825683 6.522949-11.743652 9.77832-.685303-.363525-1.37085-.727051-2.056153-1.090576 0-3.531128-.000244-7.062378-.000244-10.593628 0-68.626953-.116211-137.254395.153321-205.880249.032226-8.206421-2.02002-14.202881-10.347657-18.247193-15.791992 9.423584-34.22705 12.675537-52.215332 17.334839-6.55957 1.698853-6.548095 1.742676-5.388427 10.329102 4.298584.649292 8.829101 1.405884 13.379882 2.006714 11.520996 1.521484 15.831787 5.292724 17.923096 16.554687.721924 3.887329.762695 7.939575.764404 11.916626.040772 90.281128.036377 180.562256.029297 270.843384-.00122 13.333252-1.4104 15.13147-14.25708 18.688599-5.127685 1.419555-10.415283 2.481567-15.270019 4.550781-1.802979.768432-3.277588 3.834961-3.648438 6.062134-.495849 2.978149 1.469727 4.955932 4.76001 5.033813 1.664795.039307 3.329834.079468 4.994873.079834 24.985596.004761 49.970947.021362 74.956543-.025024 2.592773-.004761 5.185303-.393555 8.198975-.638428 0-3.62915 0-6.75647 0-9.98291-4.593018-1.661255-8.638428-3.130371-12.688233-4.588135-11.036865-3.972534-11.31958-4.286133-11.333252-15.559448-.032226-26.651245-.021973-53.30249.009522-79.953736.002929-2.515136.277099-5.030029.51416-9.051513 2.160888 1.973633 3.470459 2.88208 4.417236 4.077881 16.109131 20.347778 32.141846 40.756103 48.258545 61.097778 11.571533 14.60498 23.323975 29.066772 34.839356 43.715576 7.653808 9.736572 17.676025 14.21521 29.758789 12.837769 12.509277-1.425904 24.906005-3.848633 37.339355-5.910645.89624-.148682 1.691406-.908569 3.021973-1.660156-.281983-2.434815-.571533-4.931641-.900635-7.771851-2.798096-.24646-5.056397-.597656-7.317871-.619751-13.565674-.132324-23.990967-5.854492-32.703369-16.310425-21.94043-26.330078-44.404785-52.2229-66.614746-78.328613-5.727051-6.731689-11.29126-13.601928-17.166748-20.693847 2.293945-2.051514 3.685058-3.419556 5.200439-4.632569 24.419678-19.547851 48.963379-38.942871 73.226563-58.682983 8.212158-6.68103 17.076904-11.465576 29.067138-13.705567m-2978.908966 189.328247c7.430267-7.599731 15.801727-14.495117 22.113709-22.93164 18.718383-25.018067 28.125396-53.147461 26.463317-84.818482-1.287841-24.538818-7.644927-47.255615-22.462921-66.997924-22.059692-29.39087-56.356079-41.356934-91.986969-34.607544-26.799591 5.076538-47.704559 20.579589-63.222656 42.314331-28.588303 40.041137-34.169647 83.724609-15.646637 129.478393 15.121613 37.351929 47.662674 58.487061 88.285813 58.490479 20.62294.001709 38.842178-7.942383 56.456344-20.927613m2063.734162-163.395629c5.074707-11.93982 14.03833-19.413208 26.689453-21.737427 7.123047-1.30835 14.571045-2.139282 21.751709-1.593384 18.990966 1.44397 35.757568 7.891846 46.61914 24.814575 2.925781 4.558472 6.611084 6.253418 12.334961 4.980591 5.676514-9.111938 9.270264-19.364136 12.260254-29.967773 1.584473-5.619019-.215576-9.289063-4.92334-11.524292-7.787842-3.697876-15.580322-7.640992-23.774658-10.17627-19.170166-5.931641-38.79541-5.600342-58.262939-1.579834-21.115235 4.361084-39.393311 14.263428-53.888672 30.430298-7.917481 8.830566-13.632569 18.834839-14.300537 31.140991-1.141602 21.027588 7.04248 36.800659 25.820556 46.835327 2.37793 1.270752 4.48169 3.053955 7.148438 4.901734-6.891846 4.919067-12.901367 8.587402-18.200684 13.091186-34.686279 29.479004-28.863525 74.693848 9.465576 93.741333 22.96167 11.410889 47.687012 11.468384 72.344727 7.989502 21.343994-3.011352 37.902832-15.648315 53.222656-29.794189 6.741455-6.224854 13.863281-12.332398 18.051514-21.012451-2.649903-3.372193-5.057129-6.435791-6.968994-8.869019-2.932129 1.11731-3.966553 1.30896-4.760743 1.851807-2.471923 1.689209-4.846679 3.520141-7.270263 5.281006-20.004151 14.533691-40.910889 25.961669-67.046631 24.186279-13.846191-.940552-26.160889-4.863526-36.942871-13.256348-15.990723-12.447998-17.532471-35.225952-3.987793-49.380737 11.844482-12.377564 26.585693-18.495972 42.896973-21.734253 5.167236-1.025757 10.39038-1.769898 15.416748-2.614258 1.586914-11.911743 1.04248-11.995117-9.525635-13.701904-10.121338-1.634522-20.439697-3.483643-29.961182-7.105591-21.971435-8.358032-28.177002-20.111938-24.207763-45.196899m1541.217041 9.69226c-.529053.278199-1.039795.609131-1.598145.802368-.167969.057984-.668213-.253784-.678467-.417358-.76709-12.27832-2.014892-24.556885-2.054443-36.839477-.026123-8.141236-2.247315-14.251465-8.733399-17.677735-19.484619 6.307617-38.326171 12.406983-56.954834 18.4375-.061035 9.841065-.049804 9.866333 8.158692 10.409546 1.661621.109863 3.33667.032349 4.995849.161987 11.76587.918213 17.407959 6.513916 18.323731 18.25708.23291 2.987183.275146 5.994874.27832 8.993409.049072 45.99768.105469 91.995239.085694 137.99292-.003663 8.720092-.839112 9.89038-9.392334 12.907714-7.449219 2.627808-15.035645 4.866822-22.89795 7.385498.196289 3.427979.361573 6.31482.518067 9.049317 10.601806 2.086426 99.620849 1.742798 107.519043-.493164-.194824-2.987549-.399414-6.126953-.563233-8.640869-9.771728-2.482666-18.560058-4.322998-27.092529-6.983887-10.448975-3.258545-10.869141-4.181763-10.883301-14.803833-.034424-25.665405-.146728-51.332153.095703-76.995361.052491-5.57251.762452-11.344361 2.37378-16.65918 5.445312-17.959961 13.248535-34.909668 25.110595-49.580322 4.11084-5.084473 9.221924-9.779419 14.77417-13.191162 11.224121-6.896973 22.36792-3.553833 28.596924 8.206665 2.605713 4.920044 3.970947 10.521484 5.680664 15.883056 1.047119 3.283325 1.811279 6.301514 6.263428 6.469361 4.375488.164917 6.895019-1.644776 8.197998-5.667847 4.819336-14.88147 9.714111-29.690186 9.619873-45.671997-.032715-5.529175-1.987305-8.59021-6.975098-10.604981-25.016601-10.105835-45.831543-8.119995-65.256103 10.986817-11.078125 10.896972-19.212647 23.776855-27.512695 38.283935m-2247.675049 18.973023c2.51123-4.312012 4.484008-9.077149 7.64978-12.838379 5.944824-7.063233 11.816406-14.561279 19.103027-20.035523 11.305054-8.493408 22.027344-5.657226 29.435547 6.558594 2.373902 3.914551 3.714966 8.476685 5.353272 12.808716 1.140503 3.015503 1.981933 6.144043 2.929199 9.134766h9.932373c7.547363-15.972657 11.027832-32.740967 12.484131-50.030396.335693-3.985351-1.008179-7.275146-4.723999-9.153076-15.782959-7.976318-32.050781-10.901001-48.91211-3.716309-11.62268 4.952637-20.775634 13.247437-28.160156 23.302979-6.777222 9.228515-12.926391 18.918335-20.300537 29.804932-.606445-6.418213-1.160278-11.325074-1.515869-16.246216-.718506-9.942261-.965454-19.934449-2.11023-29.824585-.78894-6.81543-7.113403-11.008301-12.587158-9.197754-15.123169 5.002441-30.224243 10.07251-45.329468 15.129516-7.123535 2.384766-7.361206 3.007569-4.539428 11.921143 2.18164.169922 4.499756.215454 6.77539.549316 17.654053 2.590943 22.674927 3.189454 23.137452 24.306763 1.042968 47.618408.376831 95.273316.541381 142.912964.018799 5.433105-2.051635 8.922485-7.141235 10.608398-5.998047 1.986695-11.984253 4.019165-18.036255 5.828858-7.495727 2.241333-7.522705 2.151123-5.997192 11.228149 10.370117 1.894287 99.093506 1.527222 106.25061-.439575.520264-8.694336.134644-8.940796-7.588379-10.516602-7.461914-1.52246-14.873169-3.369751-22.203735-5.439209-6.969971-1.967529-9.669922-6.464355-9.516113-14.117553.488403-24.310059.428588-48.640015.056152-72.954224-.146484-9.561523 1.753296-18.510986 5.170898-27.21936 2.792847-7.116211 6.089356-14.034546 9.842652-22.366333m830.481689-143.601074c3.8125-12.215577 1.188233-15.897828-11.460205-16.078736-.333252-.004761-.666504-.00061-.999756-.00061-41.652344 0-83.304931.000122-124.957275.000122-2.953125 0-5.90625 0-9.78125 0-2.871582 7.50647-6.137451 14.440308-8.122559 21.723144-1.696289 6.222657 1.258057 9.452637 7.566406 10.007569 1.984375.174682 3.996094.046387 5.995362.046387 41.652344.00122 83.304931.000976 124.957275.001098h10.136719c2.190674-5.181518 4.114258-9.731323 6.665283-15.698974m-2176.587036-14.188599c-1.994843 0-3.989716 0-5.984558 0-37.23703.000122-74.475952.195557-111.709366-.169922-7.158142-.070068-11.249023 2.088257-13.304169 8.856079-1.621811 5.340943-3.727691 10.53479-5.334686 15.004395 3.148666 7.350097 8.525604 7.785034 14.512894 7.768188 41.891311-.117187 83.783111-.062256 125.674743-.062378h8.694519c2.850922-6.972412 6.005616-13.531738 8.199769-20.398071 1.96701-6.155396-1.295685-10.32251-7.858613-10.910156-3.628967-.324951-7.309204-.077271-12.890533-.088135m92.348938 109.658935c4.173523 8.33191 8.187561 16.748536 12.565063 24.971924 4.429596 8.321167 7.425599 17.490723 13.694733 25.082032 7.13086-9.307862 34.176209-64.234253 35.284943-71.332764-14.889527-1.717041-63.20517-1.079834-71.217041 1.232422 3.027435 6.330444 5.992004 12.529541 9.672302 20.046386m36.364807 141.509766c-2.996796-5.741943-5.993561-11.484009-9.260528-17.743652-10.041993 14.322021-34.855774 65.290039-35.169922 71.730591 13.057556 1.686523 62.992614 1.143798 70.865387-1.012085-8.655915-17.309204-17.234711-34.464112-26.434937-52.974854z" fill="#fff"/><path d="m830.623047 1180.001099c-.000061 22.98706-.000061 44.973999-.000061 67.421142 2.580505.266113 4.806152.695679 7.03186.696045 56.327149.01001 112.656006.198242 168.980225-.224609 12.578064-.094361 25.286438-1.54834 37.681457-3.782105 36.497193-6.57727 56.45813-28.886474 59.600708-65.948364.843384-9.945435 1.021485-19.971191 1.023682-29.960327.053345-247.306824.079956-494.613709-.12439-741.920288-.006714-8.228058 2.124268-14.404175 7.549317-20.587067 16.69873-19.031738 32.912353-38.494812 49.056274-58.003998 3.891968-4.703247 7.776611-7.283966 14.289551-6.899475 10.883911.642487 21.833252.175446 33.700928.175446v10.709442c-.000367 269.971069.019897 539.942078-.034546 809.913147-.005249 26.067993-2.007447 51.855835-11.078125 76.710205-11.245728 30.814453-31.8396 52.599976-61.739136 65.753418-22.550659 9.920288-46.494019 14.073852-70.792847 15.86499-18.252685 1.345337-36.612426 1.672608-54.925293 1.69458-117.320617.140625-234.641479.071778-351.962219.071778-3.63446 0-7.268982 0-11.592895 0 0-16.64856 0-32.74292 0-49.698121 8.601928 0 16.865234.1167 25.123474-.036865 6.653564-.123657 13.350097-.164306 19.942627-.952148 25.075012-2.996216 31.627868-19.104248 33.465027-35.821655.653564-5.947388.733825-11.979859.7359-17.973633.040772-119.987061.031739-239.974243.032654-359.961365.000061-2.637634.000061-5.275208.000061-8.727661-3.580505.844177-6.369201 1.574585-9.18872 2.155578-40.837037 8.415406-78.473694 1.808289-110.313843-26.167175-27.371765-24.049499-37.267639-56.090881-36.537598-91.604736.653931-31.816223 10.445557-60.234497 34.387634-82.482361 17.632019-16.38446 38.926819-25.335632 62.331604-29.43866 29.650818-5.197754 59.163636-4.438476 87.865967 5.14679 42.402222 14.1604 65.798889 44.735229 72.82074 88.119568 2.062927 12.745361 2.547546 25.859436 2.562256 38.805847.169006 148.650757.107727 297.301758.107727 446.952637m-101.639404-522.330811c-16.074097-7.302734-33.012696-7.860901-49.855591-4.708069-25.05011 4.689087-40.711975 19.728821-45.664368 45.186768-2.636108 13.551025-2.627502 27.066711.438965 40.538208 5.255493 23.088684 19.785522 37.312683 42.556763 42.506836 15.415588 3.516418 31.088562 3.048828 46.347229-1.742676 19.817871-6.223267 31.791809-20.076294 36.783508-39.813965 3.371033-13.329223 3.549499-26.919311.797119-40.549438-3.703125-18.338684-12.566101-32.693726-31.403625-41.417664z" fill="#030303"/><path d="m4794.325684 861.999817c0-60.325317.073242-119.650757-.11084-178.975403-.018555-6.012756 1.376953-10.66095 5.404297-15.303955 17.682617-20.387756 35.108398-41.002991 52.328613-61.783569 3.556641-4.291321 7.269531-5.910462 12.72168-5.72638 10.903808.368286 21.829101.109253 33.672851.109253 0 4.133179.000488 7.373779.000488 10.614319 0 205.305359-.029785 410.610657.134766 615.915894.005371 6.491943-1.953613 11.221069-6.107422 16.023071-17.21875 19.907349-34.203125 40.020996-51.003418 60.283447-3.506347 4.228882-7.049804 6.315186-12.672363 5.992554-8.304688-.476563-16.684082-.530884-24.981445.005615-6.639649.429443-10.901368-2.04248-15.336914-6.920532-26.448243-29.083862-52.520508-58.573609-80.200684-86.456177-33.174805-33.417236-69.334961-63.520508-111.199219-85.747803-15.211914-8.076538-31.532715-14.067505-47.383789-20.928222-1.429687-.618775-3.120605-.6344-5.41748-1.067383 0 4.863281.008789 9.13269-.001953 13.401977-.072754 28.995362.215332 57.997925-.36377 86.983155-.34082 17.06372-3.993164 33.595215-11.230469 49.289428-10.970215 23.791626-29.395996 39.205933-53.579101 47.909302-25.26416 9.092041-51.425782 10.00708-77.906739 7.280762-19.089843-1.965332-37.333984-6.725464-54.260253-15.824829-31.865723-17.130005-49.811524-44.526856-56.280274-79.438965-6.645019-35.860718-2.22998-70.461914 16.226563-102.378052 21.061523-36.420166 53.284668-57.900879 93.885253-66.951538 12.558594-2.79956 25.533692-3.726807 38.933594-5.597168 0-71.003174 0-142.44989 0-214.478515-23.481933 7.747253-46.828613 7.316955-70.268554 1.868591-44.316407-10.300842-77.114747-46.503967-83.60254-91.524719-3.494628-24.25354-2.081542-48.023926 7.041993-70.71045 12.726074-31.64508 36.503906-51.943054 68.811035-62.034057 33.595703-10.49353 67.65039-10.859009 101.454101-1.369934 41.522461 11.655883 66.989258 39.122558 76.875489 81.101013 3.459472 14.69104 4.318847 29.580444 4.307129 44.619934-.080567 102.985901-.042481 205.971863-.041993 308.957825 0 3.644287.000489 7.288452.000489 10.877807 1.12207.74939 1.844726 1.5719 2.705078 1.757813 45.574219 9.853149 86.527832 30.236694 125.456055 55.15686 39.405761 25.226074 75.582031 54.586792 109.831054 86.387329 3.109375 2.887451 6.37793 5.60437 9.379395 8.23169 1.039062-.66565 1.330566-.830323 1.596679-1.029785.253907-.190308.689942-.416382.69043-.627442.184082-112.297607.337402-224.595154.492188-337.892761m-448.249512-160.262329c-.06543 9.643982-.907715 19.357727-.047363 28.918396 2.337402 25.985046 17.804687 44.036011 42.905273 50.226684 14.764648 3.641541 29.712402 3.293274 44.492676-.645813 20.471191-5.455932 33.352051-18.616516 39.085937-38.826049 4.853516-17.10785 4.599121-34.306458-.855468-51.175782-5.576172-17.243225-17.076172-29.089843-34.5-34.740966-15.229981-4.939393-30.717286-5.25525-46.341309-2.143067-8.958496 1.784485-17.064941 5.344238-24.349121 10.962097-11.800781 9.101563-17.116211 21.743897-20.390625 37.4245m10.669922 532.152771c11.535644 26.176147 38.85498 33.065552 60.907715 28.078613 10.875976-2.459595 18.880859-8.845581 21.778808-19.752197 1.941406-7.309326 2.973633-15.068237 3.030274-22.636231.29248-38.982177.151367-77.967895.103027-116.95227-.00293-2.174561-.535156-4.348511-.922363-7.293579-8.557617 1.01062-16.578614 1.355713-24.331543 2.97998-30.256836 6.337891-52.350586 23.149292-62.29541 52.928101-8.997071 26.940063-9.044434 54.300171 1.729492 82.647583z" fill="#020202"/><path d="m263.645874 1280.415039c-21.107285-17.966064-31.81015-40.774414-35.430466-67.027832-1.494766-10.8396-1.982345-21.894653-1.987106-32.852051-.106583-245.649536-.098862-491.299011-.057999-736.948547.004502-27.024109-.661377-53.975708-6.251129-80.547852-3.304916-15.710754-8.144516-30.890533-15.966629-45.014618-16.390854-29.596344-42.052246-47.465026-73.404816-58.184082-24.785591-8.473877-50.446968-12.083404-76.447418-13.726989-11.616741-.73436-23.253042-1.159272-35.438905-1.75177-.244362-3.021759-.650362-5.601654-.63044-8.178254.174976-22.627456-1.019669-45.289993 3.571722-67.731796 14.227989-69.543541 55.040348-117.118591 120.034824-143.911409 47.961502-19.77128 97.951706-21.809545 148.239807-11.305873 28.303681 5.911788 56.090302 14.333709 84.050751 21.844724 29.891266 8.029686 59.766846 8.639514 89.880829 1.18394 17.86496-4.422975 33.660828-12.144643 45.871796-26.836071 12.99118 9.325627 18.886627 21.833981 19.956268 36.778931 2.408752 33.65342-14.377136 59.693909-46.039459 71.591721-16.351166 6.144302-33.409912 9.021461-50.778717 9.911712-37.694825 1.932068-74.218323-4.602737-110.413514-14.665939-24.658599-6.855728-49.543548-13.342644-74.716232-17.795998-34.664673-6.132598-69.177185-4.17472-101.888687 10.389161-36.43644 16.222305-56.252739 45.412193-63.420837 83.947837-.052742.283554.202667.624405.76271 2.201676 3.398461 0 7.276764-.05809 11.152893.009094 34.162033.592194 67.683701 5.177277 100.1801 16.127197 61.611816 20.760544 101.74884 62.534928 121.401336 124.255905 8.955658 28.126282 12.750946 57.142365 13.986664 86.512757.546143 12.980377.43338 25.993072.434876 38.991089.023376 200.985962.016357 401.971985.016357 602.957946v12.732911c3.226349-.194092 5.718903-.263428 8.19458-.505738 24.841858-2.430298 49.189026-1.231201 72.565888 8.809326 28.023193 12.036133 46.711883 32.840455 56.533477 61.268067 9.832032 28.457886 10.237854 57.580566 2.209992 86.602173-11.242798 40.644165-39.294739 64.07727-79.047974 73.831787-27.531341 6.755737-55.443908 6.06311-83.104828-.919678-16.098663-4.063843-30.639892-11.050171-44.019714-22.043457m93.060547-26.195312c3.313965-.281495 6.660858-.35608 9.936523-.878052 22.480072-3.582276 37.800354-15.720215 44.108155-37.957276 4.923767-17.35791 4.861419-34.865478-.315552-52.193359-5.724976-19.162476-18.329254-31.312866-37.918732-35.78418-14.50888-3.311645-29.097076-3.224975-43.499084.591431-17.035553 4.51416-28.711701 15.389526-34.406281 31.904175-6.825958 19.795776-6.916717 40.026367.031342 59.789429 6.197448 17.628173 18.92276 28.780395 37.40924 32.396362 7.447663 1.456665 15.173737 1.489868 24.654389 2.13147z" fill="#c47034"/><g fill="#020202"><path d="m2971.139648 635.146362c36.428467-20.961792 75.581299-31.108154 116.009766-37.017456 41.053711-6.000732 82.351807-6.869568 123.659912-3.723388 44.761231 3.409362 88.408936 11.771423 128.79541 32.668579 54.209961 28.049499 86.47461 72.445556 98.342285 132.050659 3.920167 19.689392 5.418946 39.603882 5.427735 59.623596.060058 135.980652-.004883 271.961243.154541 407.941834.007324 6.072509-1.560303 10.654418-5.538086 15.248657-17.665283 20.402344-35.107178 41.002319-52.35376 61.760254-3.332519 4.010986-6.730713 5.611572-11.896728 5.441406-11.236084-.370483-22.493164-.11438-34.751709-.11438 0-4.817993 0-8.730957 0-12.643799-.000244-152.978271.036621-305.956482-.041993-458.934753-.01123-21.997986-.843994-43.976074-4.978515-65.68103-5.512207-28.937073-15.886231-55.640687-35.95044-77.849183-22.684326-25.108215-51.871093-38.068725-84.464599-43.623108-38.836182-6.618286-77.688721-5.783569-116.027588 3.838074-24.612305 6.176697-46.709473 17.351685-64.851074 35.58783-19.674317 19.776245-28.898682 44.297546-32.48877 71.33905-.917724 6.913574-1.092041 13.925842-1.668945 21.717468 3.162598 1.71991 6.260498 3.507813 9.446777 5.121521 35.923828 18.195008 71.861817 36.361573 107.793457 54.541504 2.673096 1.352478 5.380127 2.651062 7.976074 4.140869 16.938477 9.721741 21.837891 27.386658 12.668457 44.644288-2.395019 4.507934-5.3125 6.762512-10.728027 7.22229-16.654541 1.413757-32.896484 5.00769-48.327881 11.674743-30.280517 13.082886-49.093261 36.210694-56.810302 67.801575-3.605713 14.760193-6.067872 30.199402-6.16919 45.350037-.591553 88.650207-.331299 177.306091-.358154 265.960022-.001221 3.654907-.000244 7.309814-.000244 11.705444-34.503174 0-68.627198 0-103.449707 0-.208985-1.232422-.69751-2.765503-.696534-4.29834.047852-93.98584-.186279-187.973633.426514-281.956055.172363-26.473999 5.601807-52.259216 18.140625-76.074157 14.899902-28.298706 37.955566-47.765015 66.700684-60.688355 11.186767-5.029358 23.01709-8.625244 34.540039-12.911499 2.033935-.756592 3.999023-1.698791 6.149414-4.587646-3.800293-1.393616-7.533203-3.018982-11.411377-4.14502-38.982422-11.318787-77.945069-22.711792-117.034424-33.650757-6.032471-1.688171-8.51416-4.315918-9.735107-10.469055-5.028077-25.341125-8.050782-50.693115-3.025635-76.356873 6.754394-34.491577 24.800293-62.156066 52.029785-83.913146 7.515381-6.005188 15.894775-10.9292 24.497314-16.7417z"/><path d="m3803.047852 1268.895508c-18.258545-26.584473-22.898926-55.707276-20.022461-86.345825 2.224121-23.689942 9.933838-45.50708 25.348388-64.026856 21.511719-25.845093 49.782959-38.424438 82.851807-40.120727 12.535156-.642945 25.188721 1.026489 38.589355 1.68103.175293-1.237061.73584-3.352051.734864-5.466919-.015869-34.325684.321045-68.660217-.395752-102.972412-.262451-12.542786-2.009766-25.283753-4.91919-37.496094-6.883545-28.890198-25.001465-47.834106-53.63623-56.425415-18.338623-5.502075-37.17627-7.653503-56.217041-7.706238-64.986084-.179992-129.972656-.129944-194.959229-.167236-3.628662-.002075-7.25708-.000183-11.420166-.000183-.322998-2.321106-.848877-4.199097-.803222-6.063233.55249-22.640808-.097168-45.403442 2.067382-67.893554 4.787842-49.748902 20.421631-95.60376 54.048829-133.838684 31.401367-35.704773 71.490722-55.793457 117.840087-64.128418 45.537842-8.188965 90.198731-2.785279 134.468262 8.855957 23.80249 6.259155 47.556153 12.812622 71.585694 18.072448 28.160888 6.163941 56.385498 4.460022 84.009765-3.611816 15.218262-4.446655 29.034912-11.739685 38.931885-25.296143 10.267578 7.129029 16.675781 16.57483 18.896484 28.502564 6.010254 32.281494-5.791992 64.909729-44.245605 79.722351-22.776367 8.773621-46.564209 10.437134-70.712891 10.403503-35.70166-.049804-69.850342-8.583435-104.090576-17.31903-23.822266-6.077637-47.737305-12.563904-72.018799-15.897583-41.167969-5.6521-81.213623-1.009827-117.251953 22.062255-29.487305 18.878052-46.373047 46.186463-51.64917 80.604126-1.551758 10.122742-1.82251 20.441834-2.80249 32.127991h11.688476c57.654786.000855 115.310059-.084289 172.9646.038635 29.060791.061951 57.790772 2.480408 85.832275 11.15326 48.619874 15.037475 77.80835 47.858337 90.17212 96.56665 5.783935 22.78595 7.014648 46.053467 7.048339 69.408081.088623 61.320557.061768 122.641358.009522 183.962036-.016846 19.704224-1.360107 39.24939-7.056397 58.305542-11.17041 37.369507-34.786376 62.484253-72.778808 72.533325-37.036377 9.796265-73.849854 8.728882-109.682617-5.877441-17.007813-6.932739-31.113037-17.847046-42.425537-33.345947m134.686035-132.125733c-14.97876-6.108886-30.648682-6.326782-46.242676-4.264648-24.509522 3.241211-39.945313 18.19397-45.666504 42.520142-3.258301 13.85437-3.253906 27.881225-1.16748 41.706543 3.505615 23.231933 16.260742 38.991088 39.902099 44.398559 14.161621 3.239136 28.490479 3.278565 42.603516-.06311 20.468994-4.84668 34.039795-17.273194 39.822754-37.829834 3.767334-13.391602 4.201172-27.066651 2.324463-40.614014-2.728028-19.691406-10.771485-36.363892-31.576172-45.853638z"/><path d="m1687.572021 1313.906982c-24.42102.970581-47.498535-.86792-69.770507-9.119995-38.990967-14.446655-60.59729-43.218139-67.548462-83.301147-4.580811-26.414429-2.197388-52.451538 8.811523-77.277466 16.324463-36.8125 45.095093-57.276489 84.230835-64.352539 17.610474-3.184204 35.045899-1.646118 52.902466 1.2771.29834-2.352051.761475-4.27417.75293-6.194092-.155518-34.986939.049194-69.983765-.794678-104.954956-.294434-12.202454-2.279785-24.561463-5.105103-36.466309-6.899292-29.070557-25.52417-47.50708-54.049682-55.972595-18.010742-5.345032-36.526001-7.489624-55.23999-7.534546-65.316285-.15686-130.633057-.123596-195.949585-.16217-3.581788-.002076-7.163575-.000245-11.523438-.000245 0-16.85736-.511963-32.780212.106934-48.658935 1.276245-32.751343 5.873779-65.012817 18.033203-95.703186 28.352783-71.563355 80.877197-113.772339 156.36145-127.593689 45.189087-8.274231 89.532227-2.66565 133.478027 8.776184 23.816529 6.200928 47.526612 12.956909 71.583863 18.049438 31.227172 6.610291 62.280517 4.77826 92.428833-6.4151 12.050171-4.473938 22.674316-11.197876 30.708496-22.249755 10.854004 6.474609 16.680786 16.320556 18.93518 27.957519 6.615967 34.152039-6.787719 65.705383-43.551635 79.992676-22.75 8.841125-46.5271 10.640625-70.680298 10.583557-36.021729-.085205-70.515259-8.560852-105.067139-17.460083-23.806396-6.131531-47.741699-12.577759-72.028198-15.84729-40.805542-5.493286-80.629761-1.047241-116.334473 21.835571-29.684326 19.024414-47.099243 46.445374-52.234375 81.34668-1.484497 10.089416-1.741699 20.359375-2.653686 31.690369h12.028442c57.318726.00061 114.637573-.012574 171.956299.008117 25.379639.009155 50.589233 1.761414 75.316284 7.932739 33.405029 8.337037 61.872559 24.313599 81.501587 53.553101 13.644165 20.324707 20.720459 43.176697 23.633667 67.194763 1.921021 15.837036 2.973999 31.87024 3.061157 47.822937.338867 61.982483.193726 123.967957.105713 185.952088-.033203 23.423584-2.12146 46.520019-10.998901 68.604248-13.79187 34.309448-39.399048 54.402099-74.827515 62.605713-8.722534 2.019775-17.744507 2.746215-27.579224 4.081298m48.52295-113.118164c.33667-10.704589-.578369-21.228149-3.812256-31.531616-5.877686-18.726562-18.364136-30.400757-37.230225-35.318115-12.768554-3.327881-25.831787-3.307251-38.662231-1.27063-24.417847 3.875977-40.219361 18.906982-44.449341 43.481934-2.118042 12.305786-2.706909 25.264404-1.471069 37.677368 2.640258 26.519165 17.042236 42.375244 41.120239 47.529663 5.828003 1.247803 11.876831 2.087524 17.820679 2.068603 35.805053-.114135 59.467285-12.599365 65.697265-49.834716.600952-3.591797.639282-7.277588.986939-12.802491z"/></g><path d="m2206.291992 1066.476562c20.883545-1.49707 41.056397-2.097167 61.147949 2.845459 37.333497 9.184327 62.414551 31.949708 74.81128 68.069458 10.721924 31.239991 10.518066 62.919434-.536866 94.0896-9.881103 27.86084-28.805175 48.06958-56.333496 58.731934-42.942627 16.632812-86.147949 16.273803-128.009521-3.592163-25.245361-11.980591-41.593994-32.591919-50.027832-59.413941-4.748779-15.103027-6.763916-30.572265-6.770752-46.2854-.072266-166.305725-.027832-332.61145-.138916-498.917114-.003418-5.331299 1.361084-9.487549 4.854492-13.557312 18.01416-20.984681 35.744873-42.212403 53.734619-63.218079 1.799805-2.101502 4.63086-4.576172 7.06543-4.666992 12.572754-.469116 25.172363-.217835 39.103271-.217835 0 5.127014-.000244 9.357849-.000244 13.588684 0 146.642334-.003662 293.284668.02124 439.927002.000733 3.982544.314209 7.96521 1.079346 12.616699m-1.432861 54.890503c-20.321045 5.275391-32.614014 18.508667-37.71582 38.563599-4.359864 17.137085-4.139405 34.286621 1.268554 51.196777 5.859864 18.322754 18.476074 29.702759 36.934082 34.438111 12.733399 3.266968 25.640869 3.422241 38.597412.806152 22.533692-4.549927 36.720703-17.876343 42.075196-40.180664 3.625-15.100464 3.740722-30.419189-.001709-45.514893-5.997071-24.191772-22.153565-37.767944-46.88086-41.125488-11.098877-1.50708-21.875976-.785034-34.276855 1.816406z" fill="#c57035"/><path d="m2600 844v222.458618c13.89209-.245239 26.82959-1.255859 39.671875-.545044 31.262451 1.730713 58.226807 13.208985 78.847412 37.553589 14.69043 17.34375 22.199951 37.843018 24.873047 60.065918 2.733887 22.727173 1.412598 45.337769-6.326904 67.077148-10.845215 30.462525-31.951416 51.312745-62.298096 61.921265-36.42334 12.732666-73.377686 12.717529-109.687744-.35437-39.008545-14.043335-60.619629-42.996582-67.055908-83.461792-1.560303-9.810303-2.083252-19.87854-2.090821-29.829102-.124023-165.294799-.060547-330.589782-.197021-495.884643-.005127-6.380005 1.647461-11.220093 5.905517-16.115357 17.27417-19.85852 34.193116-40.030273 50.994629-60.29248 3.708496-4.47229 7.581543-6.659485 13.545899-6.416626 10.891113.443481 21.813232.126099 33.818115.126099zm81.885986 319.606079c-1.069824-3.495361-1.996093-7.042602-3.233886-10.477295-5.14917-14.288086-14.699463-24.419678-29.028809-29.641846-18.152832-6.615966-36.574463-6.813476-54.797852-.584838-15.433593 5.27539-25.847656 16.020874-30.987548 31.582641-6.023682 18.23877-6.013916 36.724243-.900635 55.070557 5.260498 18.874023 17.926514 30.739624 36.739746 35.910522 11.38916 3.130371 23.078125 3.535889 34.682617 1.799317 28.042481-4.197144 43.56543-20.188233 48.078125-48.228882 1.82544-11.341675 1.691406-22.5177-.551758-35.430176z" fill="#c47034"/><path d="m3946.061279 326.086853c64.295899 29.077637 118.683594 69.801147 162.532471 124.419128 39.730469 49.48761 67.48584 105.199158 87.515137 165.107361 17.723144 53.009827 28.459961 107.536438 35.092285 162.872315 6.312988 52.672973 8.240234 105.639038 8.102051 158.676147-.002442.959595-.361817 1.918396-.714356 3.672119-4.342285 0-8.759277 0-14.561035 0 0-3.891723-.016113-7.777527.002441-11.663208.232422-49.04425-2.0708-97.969421-7.710449-146.690185-8.274414-71.479309-23.597656-141.278198-51.690429-207.818421-24.105957-57.097046-56.950196-108.541076-101.503663-151.938324-28.309082-27.574066-60.144043-50.480194-95.137939-69.045562-55.416748-29.399994-114.765381-46.12909-176.46875-55.129547-57.602051-8.402344-115.612793-9.403077-173.572022-5.958344-84.974609 5.050293-168.666503 19.156067-251.551269 38.408112-113.397949 26.339508-223.992432 61.771423-333.078613 102.106079-91.869873 33.968841-182.277344 71.531219-271.675049 111.537018-10.944092 4.89746-21.900391 9.767578-32.827393 14.702941-2.980713 1.346314-5.875 2.884461-9.615478 4.733277 3.881836 8.600036 7.533447 16.689697 11.187256 24.784668-5.940918 2.416992-65.48584 1.510376-81.773926-1.360718 16.856933-21.627014 33.564697-42.37854 51.196533-64.239136 4.554688 9.362305 8.565186 17.606262 12.816406 26.345398 3.62085-1.490539 6.682129-2.645752 9.657227-3.9906 98.96167-44.730347 198.938721-87.029175 300.738769-124.909851 83.36084-31.019135 167.674317-59.202698 253.506348-82.62204 70.384522-19.20459 141.426514-35.434693 213.612549-46.571259 67.986328-10.488586 136.222412-16.734344 205.064453-15.479553 44.053223.802978 87.746338 4.835754 131.067627 13.186157 41.04956 7.912537 80.803955 19.78006 119.788818 36.866028z" fill="#ff970b"/><path d="m1119.993652 144.291122c57.64856 1.430161 114.234619 4.155365 170.608399 10.021393 94.669311 9.850907 188.009643 26.58609 278.611694 56.450562 77.018921 25.387176 149.83374 59.451278 215.437012 107.684829 65.326782 48.029999 118.611694 106.82779 158.099609 177.93155 37.844116 68.143615 59.983032 141.307434 71.317139 218.116333 7.172607 48.607055 9.224121 97.474914 8.941162 146.508789-.015015 2.591369-.383545 5.180603-.620239 8.18634-4.724732 0-8.921021 0-13.983521 0-.190307-3.545776-.547607-6.76123-.507202-9.97168.511231-40.699707-1.151123-81.317016-5.998047-121.722778-10.468139-87.265991-34.425293-170.30481-79.519775-246.386719-34.369629-57.987488-78.589234-107.383179-131.648071-148.930786-50.20813-39.315094-105.448731-69.793579-164.28418-94.019501-70.863037-29.17836-144.464844-48.65744-219.755371-62.192382-64.026978-11.510071-128.566162-18.443558-193.470093-22.574097-72.250122-4.598068-144.555054-5.058212-216.860046-3.10614-76.962769 2.077804-153.801514 6.868286-230.374939 15.044525-54.658204 5.836227-109.2323 12.461212-163.838745 18.77919-2.555604.295669-5.060425 1.03006-8.337281 1.717026 1.190857 9.282226 2.318909 18.075241 3.661926 28.543625-26.653991-7.743485-51.698669-16.80806-77.253601-25.143769 4.827942-6.134872 55.103638-41.69342 66.800782-47.266281 1.480896 9.2621 2.915954 18.237518 4.520324 28.271378 175.448059-23.686035 350.864014-38.719147 528.453064-35.941407z" fill="#ff980c"/><path d="m4622 1732.206299c-18.915039.000244-36.830078.000244-55.249512.000244-.18164-3.614502-.308105-6.129883-.432129-8.592773 1.246094-.750855 2.013672-1.419434 2.905762-1.71814 6.627441-2.220581 13.302734-4.299072 19.916992-6.557251 6.340332-2.164307 9.354492-6.093262 9.293946-13.409302-.355469-42.992187-.19336-85.988403-.382813-128.982422-.022949-5.276489-1.04834-10.554565-1.69873-15.820923-2.437989-19.739502-17.533204-24.537353-32.791016-19.679809-7.99707 2.545898-15.876465 7.210693-22.263184 12.712768-14.69873 12.661988-26.41455 28.12854-36.904785 44.416016-1.664062 2.584351-2.441894 6.182129-2.458008 9.317505-.172851 32.995117.041993 65.99292-.237304 98.986694-.054199 6.448487 2.61084 10.136231 8.152343 12.147339 7.764161 2.817383 15.63379 5.344849 23.753418 8.096558v8.44812c-32.965332 0-65.486328 0-98.001464 0-2.574219-8.469605-2.308594-9.055298 5.125-11.310059 5.728515-1.737304 11.515625-3.304321 17.171386-5.251098 5.573243-1.918335 8.345703-5.521607 8.313965-12.000855-.23584-48.326538-.075195-96.654907-.224609-144.982178-.038086-12.292602-3.793457-16.727539-15.616211-19.630615-5.117676-1.256714-10.334961-2.104858-15.967774-3.230469 0-2.762207 0-5.271728 0-7.442993 18.471192-6.287842 36.642579-12.473755 55.972168-19.053955 5.561036 2.50708 7.822754 7.775513 7.950684 15.294312.239258 14.127441 1.496094 28.237549 2.423828 43.937378 6.748535-8.284302 12.277344-15.597535 18.35791-22.418335 10.226075-11.470703 21.705567-21.517212 34.9375-29.519287 15.94043-9.640015 32.714356-10.247315 50.035157-5.009766 13.525878 4.09021 22.151367 13.494629 26.003906 26.755127 2.476562 8.523926 3.423828 17.491699 5.219238 27.133179 5.511719-6.84729 10.787598-13.845215 16.524414-20.441407 14.203125-16.3302 30.415039-30.367431 52.036133-35.165649 18.334961-4.068848 35.946777-1.282471 49.702148 13.268433 8.898438 9.413208 12.431641 21.091552 12.46045 33.836059.091308 40.661621.069824 81.323609.089843 121.985352.003907 7.999023.410157 16.025512-.121582 23.988891-.46289 6.935913 2.737305 10.730713 8.733399 12.735596 7.879394 2.634644 15.845215 5.010742 24.295898 7.661865v8.958008c-33.481933 0-66.342285 0-100.094726 0-.199707-2.917847-.387696-5.667358-.597168-8.727661 7.588867-2.482056 14.567382-4.592163 21.423339-7.046631 10.64502-3.811157 11.910645-5.641357 11.918946-16.668945.029785-37.32898.24707-74.660523-.14502-111.985474-.11084-10.574585-1.629883-21.195801-3.250976-31.679932-2.901856-18.770996-17.66211-22.768554-32.097168-18.199829-8.608399 2.72461-16.803711 8.13086-23.924805 13.889649-14.893066 12.043823-26.268555 27.340332-36.033203 43.751587-1.431152 2.405273-2.117188 5.609619-2.129883 8.44873-.144531 32.995606.080078 65.993653-.236816 98.986817-.066407 6.923706 2.814453 10.67456 8.820801 12.67395 5.992187 1.994873 12.048828 3.806885 18.113281 5.575195 5.275879 1.53833 8.235351 4.269409 5.348144 11.520142-14.02539 0-28.583008 0-44.141113.000244z" fill="#acacac"/><path d="m861.227051 1510.739624c4.387146 4.100952 4.520874 8.735596 4.576721 13.481567.128357 10.909424.400085 21.816895.627075 33.417359 5.153382-.396973 6.907044-3.939942 9.224243-6.344238 14.413697-14.954957 29.971314-28.354615 48.815369-37.569947 26.643066-13.029053 54.046631-6.612793 73.224426 16.362061 14.48053 17.347412 20.856446 37.828369 23.74646 59.39209 2.739197 20.43811 2.678528 41.026489-3.517151 61.189087-6.842468 22.2677-17.30542 42.564697-32.472778 60.206665-8.526428 9.91748-19.021728 17.605835-31.038757 23.058105-11.401795 5.172974-23.196778 5.623535-35.11377 2.583496-16.366577-4.175049-31.051636-11.808594-44.123596-22.526733-1.513977-1.241211-3.10846-2.384156-5.641785-4.317749-.560058 2.943603-1.280334 4.978515-1.284912 7.014892-.071838 31.989624.135742 63.981324-.189758 95.967774-.077393 7.600586 2.979797 12.092285 9.755737 14.265259 6.002808 1.925048 12.155518 3.394775 18.27124 4.950805 3.52771.897461 7.113282 1.567627 11.224854 2.459717v9.131104c-35.664246 0-70.812866 0-105.873596 0-1.441284-9.149537-1.40918-9.130494 5.489074-11.271607 6.346131-1.969727 12.68866-3.962402 18.967103-6.134888 5.314636-1.838867 8.095947-5.587402 7.801513-11.393676-.101135-1.993897-.004761-3.997803-.004761-5.997071.000489-78.308349.036499-156.616699-.061767-234.924926-.008728-6.958985-.658142-13.942627-1.421997-20.869385-1.149903-10.42749-6.021301-15.209717-16.493469-16.776856-3.941956-.589966-7.904053-1.048706-11.839661-1.675659-.930115-.148315-1.790527-.734253-2.887634-1.207031-1.593872-4.964722-.557129-7.75 5.099365-9.424439 14.970581-4.43164 29.783264-9.416992 44.557983-14.476196 3.699707-1.266968 6.92865-2.478638 10.584229 1.43042m46.672363 35.998657c-14.509094 10.890625-27.032532 23.702515-36.973999 38.898682-1.536011 2.347778-2.59613 5.489014-2.615723 8.272217-.191833 27.327881-.206054 54.658325.028382 81.985595.022278 2.594727 1.355896 6.108887 3.303344 7.608399 14.926392 11.492676 31.18866 20.790649 50.011475 23.765991 29.408691 4.64856 52.656982-9.118652 62.780762-35.884888 11.663879-30.838623 8.52716-61.408081-2.484192-91.661865-4.870361-13.381348-12.479248-25.066284-23.517944-34.161499-11.719544-9.656494-24.617188-12.955078-38.866517-5.475952-3.534301 1.855102-6.984314 3.870727-11.665588 6.65332z" fill="#ababab"/><path d="m3283.746582 1525.595093c-11.194824 2.077881-20.05957 6.862427-28.271728 13.543457-24.263184 19.740112-48.806885 39.135132-73.226563 58.682983-1.515381 1.213013-2.906494 2.581055-5.200439 4.632569 5.875488 7.091919 11.439697 13.962158 17.166748 20.693847 22.209961 26.105713 44.674316 51.998535 66.614746 78.328613 8.712402 10.455933 19.137695 16.178101 32.703369 16.310425 2.261474.022095 4.519775.373291 7.317871.619751.329102 2.84021.618652 5.337036.900635 7.771851-1.330567.751587-2.125733 1.511474-3.021973 1.660156-12.43335 2.062012-24.830078 4.484741-37.339355 5.910645-12.082764 1.377441-22.104981-3.101197-29.758789-12.837769-11.515381-14.648804-23.267823-29.110596-34.839356-43.715576-16.116699-20.341675-32.149414-40.75-48.258545-61.097778-.946777-1.195801-2.256348-2.104248-4.417236-4.077881-.237061 4.021484-.511231 6.536377-.51416 9.051513-.031495 26.651246-.041748 53.302491-.009522 79.953736.013672 11.273315.296387 11.586914 11.333252 15.559448 4.049805 1.457764 8.095215 2.92688 12.688233 4.588135v9.98291c-3.013672.244873-5.606202.633667-8.198975.638428-24.985596.046386-49.970947.029785-74.956543.025024-1.665039-.000366-3.330078-.040527-4.994873-.079834-3.290283-.077881-5.255859-2.055664-4.76001-5.033813.37085-2.227173 1.845459-5.293702 3.648438-6.062134 4.854736-2.069214 10.142334-3.131226 15.270019-4.550781 12.84668-3.557129 14.25586-5.355347 14.25708-18.688599.00708-90.281128.011475-180.562256-.029297-270.843384-.001709-3.977051-.04248-8.029297-.764404-11.916626-2.091309-11.261963-6.4021-15.033203-17.923096-16.554687-4.550781-.60083-9.081298-1.357422-13.379882-2.006714-1.159668-8.586426-1.171143-8.630249 5.388427-10.329102 17.988282-4.659302 36.42334-7.911255 52.215332-17.334839 8.327637 4.044312 10.379883 10.040772 10.347657 18.247193-.269532 68.625854-.153321 137.253296-.153321 205.880249 0 3.53125.000244 7.0625.000244 10.593628.685303.363525 1.37085.727051 2.056153 1.090576 3.917969-3.255371 7.897217-6.440064 11.743652-9.77832 18.849854-16.359253 37.702881-32.714966 56.453613-49.1875 3.233643-2.840943 6.426514-5.930664 8.84375-9.450928 3.636231-5.2948 1.747559-9.809082-4.495361-11.216675-3.838379-.865478-7.865234-.895142-12.0979-1.329956-.550537-1.702637-1.290284-3.204834-1.459717-4.768799-.129639-1.199219.460693-2.476318.827881-4.165771h87.784179c.189209 2.875732.368897 5.605835.559571 8.505737-3.580811 1.003906-6.417481 1.799194-10.049805 2.756592z" fill="#ababab"/><g fill="#acacac"><path d="m305.057251 1715.187012c-17.038391 12.559448-35.257629 20.50354-55.880569 20.501831-40.623139-.003418-73.1642-21.13855-88.285813-58.490479-18.52301-45.753784-12.941666-89.437256 15.646637-129.478393 15.518097-21.734742 36.423065-37.237793 63.222656-42.314331 35.63089-6.74939 69.927277 5.216674 91.986969 34.607544 14.817994 19.742309 21.17508 42.459106 22.462921 66.997924 1.662079 31.671021-7.744934 59.800415-26.463317 84.818482-6.311982 8.436523-14.683442 15.331909-22.689484 23.357422m-100.314728-165.381104c-6.515549 7.456909-10.026291 16.392212-12.713852 25.744507-4.093963 14.24646-4.592727 28.839111-4.449585 43.528809.296723 30.453491 12.805847 55.438842 34.599778 75.912719 29.45372 27.669434 70.87387 13.487671 84.034423-15.688476 18.009003-39.924927 17.157013-79.4823-6.811218-117.094116-4.73587-7.431641-11.405884-13.772828-17.803986-19.977662-22.140045-21.470581-61.136611-13.435546-76.85556 7.574219z"/><path d="m2369.02832 1552.116699c-3.630371 24.333863 2.575196 36.087769 24.546631 44.445801 9.521485 3.621948 19.839844 5.471069 29.961182 7.105591 10.568115 1.706787 11.112549 1.790161 9.525635 13.701904-5.026368.84436-10.249512 1.588501-15.416748 2.614258-16.31128 3.238281-31.052491 9.356689-42.896973 21.734253-13.544678 14.154785-12.00293 36.932739 3.987793 49.380737 10.781982 8.392822 23.09668 12.315796 36.942871 13.256348 26.135742 1.77539 47.04248-9.652588 67.046631-24.186279 2.423584-1.760865 4.79834-3.591797 7.270263-5.281006.79419-.542847 1.828614-.734497 4.760743-1.851807 1.911865 2.433228 4.319091 5.496826 6.968994 8.869019-4.188233 8.680053-11.310059 14.787597-18.051514 21.012451-15.319824 14.145874-31.878662 26.782837-53.222656 29.794189-24.657715 3.478882-49.383057 3.421387-72.344727-7.989502-38.329101-19.047485-44.151855-64.262329-9.465576-93.741333 5.299317-4.503784 11.308838-8.172119 18.200684-13.091186-2.666748-1.847779-4.770508-3.630982-7.148438-4.901734-18.778076-10.034668-26.962158-25.807739-25.820556-46.835327.667968-12.306152 6.383056-22.310425 14.300537-31.140991 14.495361-16.16687 32.773437-26.069214 53.888672-30.430298 19.467529-4.020508 39.092773-4.351807 58.262939 1.579834 8.194336 2.535278 15.986816 6.478394 23.774658 10.17627 4.707764 2.235229 6.507813 5.905273 4.92334 11.524292-2.98999 10.603637-6.58374 20.855835-12.260254 29.967773-5.723877 1.272827-9.40918-.422119-12.334961-4.980591-10.861572-16.922729-27.628174-23.370605-46.61914-24.814575-7.180664-.545898-14.628662.285034-21.751709 1.593384-12.651123 2.324219-21.614746 9.797607-27.028321 22.488525z"/><path d="m3910.990234 1560.507935c7.894043-13.957154 16.028565-26.837037 27.10669-37.734009 19.42456-19.106812 40.239502-21.092652 65.256103-10.986817 4.987793 2.014771 6.942383 5.075806 6.975098 10.604981.094238 15.981811-4.800537 30.790527-9.619873 45.671997-1.302979 4.023071-3.82251 5.832764-8.197998 5.667847-4.452149-.167847-5.216309-3.186036-6.263428-6.469361-1.709717-5.361572-3.074951-10.963012-5.680664-15.883056-6.229004-11.760498-17.372803-15.103638-28.596924-8.206665-5.552246 3.411743-10.66333 8.106689-14.77417 13.191162-11.86206 14.670654-19.665283 31.620361-25.110595 49.580322-1.611328 5.314819-2.321289 11.08667-2.37378 16.65918-.242431 25.663208-.130127 51.329956-.095703 76.995361.01416 10.62207.434326 11.545288 10.883301 14.803833 8.532471 2.660889 17.320801 4.501221 27.092529 6.983887.163819 2.513916.368409 5.65332.563233 8.640869-7.898194 2.235962-96.917237 2.57959-107.519043.493164-.156494-2.734497-.321778-5.621338-.518067-9.049317 7.862305-2.518676 15.448731-4.75769 22.89795-7.385498 8.553222-3.017334 9.388671-4.187622 9.392334-12.907714.019775-45.997681-.036622-91.99524-.085694-137.99292-.003174-2.998535-.04541-6.006226-.27832-8.993409-.915772-11.743164-6.557861-17.338867-18.323731-18.25708-1.659179-.129638-3.334228-.052124-4.995849-.161987-8.208496-.543213-8.219727-.568481-8.158692-10.409546 18.628663-6.030517 37.470215-12.129883 56.954834-18.4375 6.486084 3.42627 8.707276 9.536499 8.733399 17.677735.039551 12.282592 1.287353 24.561157 2.054443 36.839477.010254.163574.510498.475342.678467.417358.55835-.193237 1.069092-.524169 2.00415-1.352294z"/></g><path d="m1662.569092 1580.693726c-3.413208 7.668945-6.709717 14.58728-9.502564 21.703491-3.417602 8.708374-5.317382 17.657837-5.170898 27.21936.372436 24.314209.432251 48.644165-.056152 72.954224-.153809 7.653198 2.546142 12.150024 9.516113 14.117553 7.330566 2.069458 14.741821 3.916749 22.203735 5.439209 7.723023 1.575806 8.108643 1.822266 7.588379 10.516602-7.157104 1.966797-95.880493 2.333862-106.25061.439575-1.525513-9.077026-1.498535-8.986816 5.997192-11.228149 6.052002-1.809693 12.038208-3.842163 18.036255-5.828858 5.0896-1.685913 7.160034-5.175293 7.141235-10.608398-.16455-47.639648.501587-95.294556-.541381-142.912964-.462525-21.117309-5.483399-21.71582-23.137452-24.306763-2.275634-.333862-4.59375-.379394-6.77539-.549316-2.821778-8.913574-2.584107-9.536377 4.539428-11.921143 15.105225-5.057006 30.206299-10.127075 45.329468-15.129516 5.473755-1.810547 11.798218 2.382324 12.587158 9.197754 1.144776 9.890136 1.391724 19.882324 2.11023 29.824585.355591 4.921142.909424 9.828003 1.515869 16.246216 7.374146-10.886597 13.523315-20.576417 20.300537-29.804932 7.384522-10.055542 16.537476-18.350342 28.160156-23.302979 16.861329-7.184692 33.129151-4.260009 48.91211 3.716309 3.71582 1.87793 5.059692 5.167725 4.723999 9.153076-1.456299 17.289429-4.936768 34.057739-12.484131 50.030396-3.434204 0-6.363159 0-9.932373 0-.947266-2.990723-1.788696-6.119263-2.929199-9.134766-1.638306-4.332031-2.97937-8.894165-5.353272-12.808716-7.408203-12.21582-18.130493-15.052002-29.435547-6.558594-7.286621 5.474244-13.158203 12.97229-19.103027 20.035523-3.165772 3.76123-5.13855 8.526367-7.989868 13.501221z" fill="#ababab"/><path d="m2493.077148 1437.138672c-2.237304 5.258789-4.160888 9.808594-6.351562 14.990112-3.57544 0-6.856201 0-10.136719 0-41.652344-.000122-83.304931.000122-124.957275-.001098-1.999268 0-4.010987.128295-5.995362-.046387-6.308349-.554932-9.262695-3.784912-7.566406-10.007569 1.985108-7.282836 5.250977-14.216674 8.122559-21.723144h9.78125c41.652344 0 83.304931-.000122 124.957275-.000122.333252 0 .666504-.004151.999756.00061 12.648438.180908 15.272705 3.863159 11.146484 16.787598z" fill="#adadad"/><path d="m317.76593 1422.241455c4.619232.01062 8.299469-.23706 11.928436.087891 6.562928.587646 9.825623 4.75476 7.858613 10.910156-2.194153 6.866333-5.348847 13.425659-8.199769 20.398071-3.437988 0-6.066253 0-8.694519 0-41.891632.000122-83.783432-.054809-125.674743.062378-5.98729.016846-11.364228-.418091-14.512894-7.768188 1.606995-4.469605 3.712875-9.663452 5.334686-15.004395 2.055146-6.767822 6.146027-8.926147 13.304169-8.856079 37.233414.365479 74.472336.170044 111.709366.169922 1.994842 0 3.989715 0 6.946655.000244z" fill="#afafaf"/><path d="m408.794922 1531.241211c-3.322449-6.85791-6.287018-13.057007-9.314453-19.387451 8.011871-2.312256 56.327514-2.949463 71.217041-1.232422-1.108734 7.098511-28.154083 62.024902-35.284943 71.332764-6.269134-7.591309-9.265137-16.760865-13.694733-25.082032-4.377502-8.223388-8.39154-16.640014-12.922912-25.630859z" fill="#acacac"/><path d="m445.828308 1674.087891c8.889496 17.832763 17.468292 34.987671 26.124207 52.296875-7.872773 2.155883-57.807831 2.698608-70.865387 1.012085.314148-6.440552 25.127929-57.40857 35.169922-71.730591 3.266967 6.259643 6.263732 12.001709 9.571258 18.421631z" fill="#acacac"/><path d="m729.700317 657.932861c18.12085 8.461365 26.983826 22.816407 30.686951 41.155091 2.75238 13.630127 2.573914 27.220215-.797119 40.549438-4.991699 19.737671-16.965637 33.590698-36.783508 39.813965-15.258667 4.791504-30.931641 5.259094-46.347229 1.742676-22.771241-5.194153-37.30127-19.418152-42.556763-42.506836-3.066467-13.471497-3.075073-26.987183-.438965-40.538208 4.952393-25.457947 20.614258-40.497681 45.664368-45.186768 16.842895-3.152832 33.781494-2.594665 50.572265 4.970642z" fill="#fdfdfd"/><path d="m4346.199219 700.890869c3.151367-14.833984 8.466797-27.476318 20.267578-36.577881 7.28418-5.617859 15.390625-9.177612 24.349121-10.962097 15.624023-3.112183 31.111328-2.796326 46.341309 2.143067 17.423828 5.651123 28.923828 17.497741 34.5 34.740966 5.454589 16.869324 5.708984 34.067932.855468 51.175782-5.733886 20.209533-18.614746 33.370117-39.085937 38.826049-14.780274 3.939087-29.728028 4.287354-44.492676.645813-25.100586-6.190673-40.567871-24.241638-42.905273-50.226684-.860352-9.560669-.018067-19.274414.17041-29.765015z" fill="#fdfdfd"/><path d="m4356.436523 1233.190918c-10.464355-27.648071-10.416992-55.008179-1.419921-81.948242 9.944824-29.778809 32.038574-46.59021 62.29541-52.928101 7.752929-1.624267 15.773926-1.96936 24.331543-2.97998.387207 2.945068.919433 5.119018.922363 7.293579.04834 38.984375.189453 77.970093-.103027 116.95227-.056641 7.567994-1.088868 15.326905-3.030274 22.636231-2.897949 10.906616-10.902832 17.292602-21.778808 19.752197-22.052735 4.986939-49.372071-1.902466-61.217286-28.777954z" fill="#fdfdfd"/><path d="m355.765778 1254.239502c-8.540009-.661377-16.266083-.69458-23.713746-2.151245-18.48648-3.615967-31.211792-14.768189-37.40924-32.396362-6.948059-19.763062-6.8573-39.993653-.031342-59.789429 5.69458-16.514649 17.370728-27.390015 34.406281-31.904175 14.402008-3.816406 28.990204-3.903076 43.499084-.591431 19.589478 4.471314 32.193756 16.621704 37.918732 35.78418 5.176971 17.327881 5.239319 34.835449.315552 52.193359-6.307801 22.237061-21.628083 34.375-44.108155 37.957276-3.275665.521972-6.622558.596557-10.877166.897827z" fill="#fefefd"/><path d="m3938.397949 1137.156982c20.140625 9.102539 28.184082 25.775025 30.91211 45.466431 1.876709 13.547363 1.442871 27.222412-2.324463 40.614014-5.782959 20.55664-19.35376 32.983154-39.822754 37.829834-14.113037 3.341675-28.441895 3.302246-42.603516.06311-23.641357-5.407471-36.396484-21.166626-39.902099-44.398559-2.086426-13.825318-2.090821-27.852173 1.16748-41.706543 5.721191-24.326172 21.156982-39.278931 45.666504-42.520142 15.593994-2.062134 31.263916-1.844238 46.906738 4.651855z" fill="#fdfdfd"/><path d="m1736.070801 1201.730225c-.323487 4.583496-.361817 8.269287-.962769 11.861084-6.22998 37.235351-29.892212 49.720581-65.697265 49.834716-5.943848.018921-11.992676-.8208-17.820679-2.068603-24.078003-5.154419-38.479981-21.010498-41.120239-47.529663-1.23584-12.412964-.646973-25.371582 1.471069-37.677368 4.22998-24.574952 20.031494-39.605957 44.449341-43.481934 12.830444-2.036621 25.893677-2.057251 38.662231 1.27063 18.866089 4.917358 31.352539 16.591553 37.230225 35.318115 3.233887 10.303467 4.148926 20.827027 3.788086 32.473023z" fill="#fdfdfd"/><path d="m2205.640137 1121.104492c11.619873-2.338867 22.396972-3.060913 33.495849-1.553833 24.727295 3.357544 40.883789 16.933716 46.88086 41.125488 3.742431 15.095704 3.626709 30.414429.001709 45.514893-5.354493 22.304321-19.541504 35.630737-42.075196 40.180664-12.956543 2.616089-25.864013 2.460816-38.597412-.806152-18.458008-4.735352-31.074218-16.115357-36.934082-34.438111-5.407959-16.910156-5.628418-34.059692-1.268554-51.196777 5.101806-20.054932 17.394775-33.288208 38.496826-38.826172z" fill="#fefefd"/><path d="m2681.988037 1164.447754c2.141113 12.070801 2.275147 23.246826.449707 34.588501-4.512695 28.040649-20.035644 44.031738-48.078125 48.228882-11.604492 1.736572-23.293457 1.331054-34.682617-1.799317-18.813232-5.170898-31.479248-17.036499-36.739746-35.910522-5.113281-18.346314-5.123047-36.831787.900635-55.070557 5.139892-15.561767 15.553955-26.307251 30.987548-31.582641 18.223389-6.228638 36.64502-6.031128 54.797852.584838 14.329346 5.222168 23.879639 15.35376 29.028809 29.641846 1.237793 3.434693 2.164062 6.981934 3.335937 11.31897z" fill="#fefefd"/><path d="m908.495605 1546.317871c4.085083-2.362183 7.535096-4.377808 11.069397-6.23291 14.249329-7.479126 27.146973-4.180542 38.866517 5.475952 11.038696 9.095215 18.647583 20.780151 23.517944 34.161499 11.011352 30.253784 14.148071 60.823242 2.484192 91.661865-10.12378 26.766236-33.372071 40.533448-62.780762 35.884888-18.822815-2.975342-35.085083-12.273315-50.011475-23.765991-1.947448-1.499512-3.281066-5.013672-3.303344-7.608399-.234436-27.32727-.220215-54.657714-.028382-81.985595.019593-2.783203 1.079712-5.924439 2.615723-8.272217 9.941467-15.196167 22.464905-28.008057 37.57019-39.319092z" fill="#fefefe"/><path d="m205.231827 1549.278809c15.229645-20.482666 54.226211-28.517701 76.366256-7.04712 6.398102 6.204834 13.068116 12.546021 17.803986 19.977662 23.968231 37.611816 24.820221 77.169189 6.811218 117.094116-13.160553 29.176147-54.580703 43.35791-84.034423 15.688476-21.793931-20.473877-34.303055-45.459228-34.599778-75.912719-.143142-14.689698.355622-29.282349 4.449585-43.528809 2.687561-9.352295 6.198303-18.287598 13.203156-26.271606z" fill="#fefefe"/></svg>