<svg enable-background="new 0 0 1922 904" viewBox="0 0 1922 904" xmlns="http://www.w3.org/2000/svg"><path d="m1156 905c-385.333191 0-770.166382 0-1154.99969 0-.000104-301.333069-.000104-602.666168-.000207-903.999448 640.666096-.000184 1281.332294-.000184 1921.998798-.000368.000367 301.332549.000367 602.665282.000733 903.998962-255.499634.000854-510.999634.000854-766.999634.000854m-5.11731-326.185547c8.63855-.275329 17.40149.283325 25.891968-.984131 24.428955-3.646667 41.496582-16.874572 47.903931-41.249084 2.674438-10.173767 3.946045-20.959168 4.134765-31.497345.536988-29.989227.032715-59.995575.277222-89.992401.079834-9.802399.765381-19.648773 1.936524-29.383301 2.492309-20.717163 13.780029-31.071381 34.278808-31.61676 4.108887-.109314 6.016236-1.923584 7.401856-5.204377 4.304809-10.19281.685913-18.868743-10.513916-24.564636-20.748536-10.552124-41.554322-20.991485-62.344849-31.460754-2.104614-1.059845-3.708496-1.923187-3.696045-5.019226.126221-31.565827 19.410034-58.145233 49.546753-67.7733 26.108765-8.341187 52.671997-9.089066 79.484375-4.307373 30.513794 5.441787 51.939331 21.961212 62.249634 51.740493 5.801636 16.756867 7.019409 34.18808 7.031494 51.716828.06665 96.662872.05188 193.325836-.078369 289.988617-.00354 2.558654-1.04773 5.57434-2.612427 7.599853-12.320312 15.947449-24.886352 31.705078-37.37561 47.521973-9.930908 12.576782-19.860596 25.154541-29.567505 37.449035-5.324219-6.812683-10.105225-13.660583-15.649536-19.821411-5.663452-6.293029-11.708374-12.3703-18.299073-17.652832-3.932617-3.15216-4.433715-6.085632-3.617065-10.518066 3.032104-16.457214 4.438721-33.036804 1.745239-49.687866-1.489013-9.205017-6.350342-16.080078-15.50061-19.083496-9.63208-3.161744-19.329834-1.815796-28.354492-.261231v52.204468c-.954834-.299439-1.892823-.575745-2.819092-.886658-31.15686-10.459534-62.649536-11.415527-94.402832-3.117554-15.482178 4.04596-29.515747 10.940552-39.213867 24.129029-19.299683 26.245361-10.910401 62.480224 17.946411 78.57489 20.313598 11.329712 42.459839 13.20581 64.989136 11.163086 32.805786-2.974426 59.537109-17.001465 77.767456-45.254883 2.849609-4.416382 5.244751-9.126099 7.940918-13.859802 15.539672 15.507995 28.122558 32.675232 36.031005 52.796631 3.855469 0 7.222291-.302246 10.510743.076538 4.10791.473083 6.554687-1.09784 9.032714-4.364624 18.819825-24.810974 37.875855-49.442871 56.789551-74.183106 1.045655-1.367676 1.477051-3.204956 2.194336-4.823669.812988.61853 1.625855 1.23706 2.438843 1.855591v81.43927c7.045166 0 13.517334.187256 19.966064-.119141 1.830079-.086914 4.10669-1.166321 5.303956-2.54834 9.81726-11.332153 19.550048-22.744446 28.993408-34.387939 1.787475-2.204041 3.078125-5.541382 3.081421-8.357483.149414-127.661621.243774-255.323578-.043702-382.98465-.029541-13.068054-1.328002-26.370056-4.013549-39.148224-6.439942-30.641388-23.639038-53.787491-51.386841-68.899734-18.884155-10.284882-39.2677-15.342362-60.368408-18.033447-27.749268-3.538987-55.539917-3.244812-83.238404.253631-24.926269 3.14827-49.051269 9.381806-70.917724 22.306458-19.223511 11.362533-34.068726 26.642273-40.723145 48.57048-5.021484 16.547516-4.010986 33.17099-.237305 49.842072.737061 3.256408 2.01001 4.659545 5.168457 5.55661 21.948975 6.234344 43.837769 12.681152 65.740723 19.077484 1.65625.483703 3.272583 1.1044 4.907471 1.661438.092651.482452.185303.964905.278076 1.447357-3.417847 1.806091-6.848755 3.588257-10.251587 5.422241-18.748047 10.104828-30.493286 25.621002-32.500976 46.798737-1.833863 19.344146-1.613404 38.883362-2.280274 58.337249-.066162 1.929261-.008667 3.862793-.008667 6.024262-2.909302-.283142-5.222412-.529663-7.539429-.730316-15.838378-1.371674-30.959716.821228-44.520263 9.673675-16.383423 10.695191-24.349121 26.479798-26.241822 45.503357-1.998901 20.08841.990601 38.964997 15.462769 54.384735 11.05957 11.783875 25.440308 16.515747 41.891357 18.661072m412.251709 44.819153c-1.750366 2.002624-3.685669 3.873291-5.222778 6.028076-18.687378 26.197266-10.453125 61.913574 17.927246 77.813172 20.304444 11.375183 42.384766 13.148315 64.945923 11.428833 33.276001-2.536194 59.741333-17.153687 78.171509-45.364197 2.835083-4.339783 5.15393-9.016846 7.833984-13.754639 14.536255 13.940308 25.942017 29.600586 33.810547 47.66919 1.753296 4.025939 3.798462 5.832031 8.097778 5.082702 1.293946-.225464 2.693238-.224365 3.987915-.000671 4.691163.810425 7.470581-1.310181 10.283326-5.018189 18.719116-24.677917 37.696899-49.15979 56.641357-73.666321.965698-1.249328 2.396973-2.138732 4.518677-3.98529v82.635681c6.47583 0 12.633301.275147 18.743408-.141174 2.304077-.156983 5.150269-1.342041 6.637939-3.035034 9.676148-11.011597 19.170533-22.191468 28.409668-33.571717 1.793457-2.209167 3.113526-5.542114 3.117188-8.358764.152954-118.661194.222412-237.322724-.008667-355.983612-.023193-11.923218-.997559-24.035736-3.256348-35.726929-6.307129-32.642761-24.156128-57.147232-53.910522-72.669891-18.426148-9.612687-38.207276-14.422165-58.636841-17.010804-27.584473-3.495239-55.20227-3.182693-82.74231.2258-24.77893 3.066772-48.732788 9.321808-70.527587 21.947647-19.455811 11.270828-34.495972 26.565323-41.333985 48.664108-5.2323 16.90921-4.143432 33.827179-.196045 50.813294.682373 2.936371 1.991944 3.989624 4.687012 4.761078 22.416748 6.416565 44.790039 12.984649 67.170044 19.528991 1.321167.386322 2.586792.963044 3.811523 1.425995-.208984.857086-.183593 1.351837-.378906 1.4646-2.868164 1.656494-5.720703 3.349396-8.663574 4.865631-20.475098 10.549225-32.013306 27.518066-33.904785 50.198486-1.547364 18.554901-1.390503 37.252136-1.974366 55.88678-.055786 1.779602-.007446 3.562469-.007446 4.531281-6.89685 0-13.229614-.327088-19.518677.057647-24.783203 1.516205-43.689453 12.3172-53.73767 35.776459-6.49646 15.167541-6.947022 31.177093-3.468018 47.09433 4.336182 19.838989 16.371826 33.526001 35.400513 40.731445 17.707153 6.705078 36.007324 7.006104 54.0708 2.462525 17.116211-4.305237 30.243775-14.532471 37.377808-31.174622 4.289551-10.006287 6.865112-20.518738 6.908691-31.499756.129395-32.663147.099732-65.327331.354737-97.98941.105102-13.471741.051636-27.016388 4.343872-40.06305 3.760254-11.429565 11.341186-18.581543 23.317016-20.691131 3.266602-.57544 6.631104-.59253 9.900391-1.157044 1.481201-.255798 3.277954-.853729 4.181885-1.927551 5.21167-6.190979 4.944702-16.256531-.824829-21.971436-2.541748-2.517669-5.771607-4.504974-8.986939-6.151519-20.265991-10.378418-40.588257-20.648926-60.970337-30.797364-2.778686-1.383483-3.716797-2.947967-3.671875-6.070221.452393-31.486358 19.281617-57.238937 49.215943-66.856292 27.456909-8.821457 55.454712-9.485672 83.411377-3.65326 28.661377 5.979401 48.78833 22.692429 58.431274 50.925568 5.391968 15.787537 7.040283 32.171478 7.054932 48.715454.078735 88.662628.055908 177.325379-.051758 265.987915-.002564 2.093872-.955933 4.527222-2.234985 6.221497-6.421631 8.506164-13.099854 16.818664-19.6875 25.199585-15.819214 20.126098-31.638184 40.252319-47.494141 60.425476-.548462-.487-1.004028-.755737-1.274414-1.151184-9.927246-14.517639-21.380615-27.623413-35.059204-38.780396-1.292114-1.053955-1.832398-4.036072-1.505493-5.910766 2.876342-16.487366 4.404052-32.985657 2.296508-49.711304-1.429565-11.345642-7.487915-19.020752-17.679199-21.576721-9.064331-2.273499-18.07727-1.217774-26.377197.175598v51.908203c-5.699585-1.682617-10.896362-3.47052-16.216431-4.742798-21.138794-5.055603-42.57666-5.929382-64.008423-2.85437-18.831909 2.701965-36.679565 8.381836-51.529541 22.36438m-1422.900207-430.897797c-17.475922 4.717469-34.103211 11.270432-48.728592 22.25383-14.193268 10.658905-25.048546 23.75293-30.569756 40.903687-5.544544 17.223221-4.512149 34.434524-.508934 51.762008.679066 2.93927 1.992871 3.989502 4.68721 4.760773 22.417237 6.416901 44.791268 12.984924 67.17186 19.529511 1.320679.386169 2.585404.963623 3.809891 1.426971-.210587.858399-.185928 1.352783-.3815 1.465698-2.868698 1.656128-5.723069 3.346009-8.664879 4.865113-20.445732 10.557892-32.068947 27.444244-33.90979 50.173858-1.503258 18.561249-1.382202 37.254334-1.96666 55.889435-.055854 1.780762-.007454 3.56485-.007454 4.550202-6.882385 0-13.212722-.325928-19.499809.057464-24.78302 1.511292-43.693979 12.304199-53.750114 35.761627-6.502071 15.167054-6.967766 31.181275-3.475088 47.094056 4.347972 19.809509 16.278574 33.584106 35.376539 40.74414 17.885498 6.705506 36.25328 6.964295 54.523247 2.263794 17.018051-4.378357 29.835708-14.559021 36.932495-30.953186 4.324981-9.991028 6.878524-20.514221 6.924423-31.495117.131607-31.497345.086685-62.996063.372269-94.491852.095016-10.477386.631454-20.97937 1.578537-31.41452 1.969192-21.6969 13.554702-33.274414 33.963104-33.742218 5.091186-.116699 7.182922-2.51532 8.557449-6.531342 3.39711-9.925384-.220627-17.784454-10.85936-23.197967-20.738937-10.552857-41.507476-21.048828-62.342712-31.409607-2.813217-1.398926-3.665749-3.015869-3.619843-6.105072.472748-31.816376 19.333756-57.296372 49.710465-66.949982 27.161362-8.63179 54.828262-9.284607 82.448013-3.616547 28.198899 5.786927 48.455979 21.85608 58.374588 49.655854 5.905457 16.551757 7.57666 33.73703 7.585175 51.117218.061828 126.497711.034546 252.995483.020172 379.493225-.000153 1.384155-.203461 2.768249-.327332 4.348816-14.615814-10.780701-28.835022-21.268799-43.305786-31.942505.311981-.936524.881714-2.475891 1.339722-4.047791 4.662476-16.002258 7.382019-32.135315 3.294159-48.73529-1.959564-7.95752-6.392059-14.005188-14.146271-16.890625-9.846542-3.66388-19.862152-2.411194-29.451095-.493592-1.150956 17.396973-2.267319 34.270936-3.373658 50.993714-1.490768.103027-1.829101.213013-2.111206.130615-1.116729-.326233-2.220031-.700561-3.320816-1.078796-37.784866-12.982666-76.432449-17.697998-116.115898-11.828919-17.666511 2.612915-34.44043 7.822571-48.613319 19.246399-20.435753 16.471924-21.424984 48.208252-2.487454 66.213623 8.804074 8.370789 19.152889 13.860779 30.507733 17.414246 30.259842 9.469848 60.999267 9.58789 91.850723 3.465576 22.91301-4.546875 43.953216-13.517151 61.434738-29.32428 7.840515-7.08966 14.633881-15.337341 22.00145-23.164734 17.753143 10.50647 34.849792 23.152466 48.174316 39.763794 6.565186 8.184693 13.449524 11.058289 23.245087 9.970154 3.016967-.335144 5.198608-.871399 7.213073-3.309448 9.126374-11.045349 18.357911-22.007691 27.760926-32.817871 2.557953-2.940857 3.700195-5.842407 3.697082-9.798706-.099548-126.830994-.058929-253.662079-.133575-380.493134-.005005-8.483063-.446472-16.993225-1.214356-25.442657-1.555969-17.121674-6.361023-33.301895-15.2695-48.117401-16.513459-27.463181-42.147217-42.340744-72.167847-49.453461-47.091141-11.157257-94.408615-10.44632-142.231842 1.531219m425.32843 8.347c-5.045288 2.54596-10.271118 4.791153-15.103638 7.691544-18.040222 10.827499-32.343505 25.016907-39.437805 45.382629-5.944031 17.063721-5.235107 34.273652-1.500488 51.694611.919647 4.290009 2.694702 5.974457 6.688476 7.099731 21.639405 6.097016 43.200135 12.47342 64.780579 18.779145 1.599609.467437 3.140503 1.135498 4.963684 1.803741-.793396 1.0849-.996277 1.63324-1.384155 1.849121-2.756348 1.534333-5.552063 2.997834-8.332459 4.489044-16.034301 8.599701-27.070983 21.120301-31.632507 39.121003-3.227173 12.734924-3.784485 25.637542-3.775879 38.641082.007324 11.138642.001465 22.277283.001465 33.368012-9.222595 0-18.132996-.905701-26.792419.18396-19.475098 2.450714-34.596558 12.181488-44.161133 29.701172-6.935456 12.703735-8.687958 26.513763-7.675324 40.662994 1.816498 25.381226 13.774109 43.828369 38.190796 52.81134 17.385712 6.396302 35.429779 6.680359 53.119843 2.016907 21.068115-5.553772 35.366577-19.082519 40.408874-40.668945 2.324463-9.951355 3.730652-20.323486 3.902039-30.532623.503418-29.987702.024475-59.99057.267761-89.984772.07959-9.801605.767334-19.645783 1.92572-29.381409 2.491638-20.942291 13.665406-31.09378 34.681824-31.738861 3.701294-.113556 5.366821-1.742035 6.713501-4.653473 4.743774-10.255493 1.260376-19.218963-10.073242-24.999786-20.73407-10.575562-41.534546-21.021179-62.327942-31.480011-2.304443-1.159149-3.915589-2.104126-3.857849-5.417969.561157-32.189819 19.584533-57.961212 50.331054-67.664291 25.806153-8.143982 52.038208-8.795349 78.510071-4.134064 31.400818 5.529175 52.998841 22.803589 63.041687 53.469009 5.292725 16.161072 6.428955 32.958222 6.436035 49.820465.04889 116.318451.026612 232.636933.016419 348.955353-.000183 1.571717-.140869 3.143433-.242493 5.269104-1.477173-.693176-2.413269-.961548-3.148254-1.502868-12.713135-9.363526-25.334412-18.854126-38.153504-28.069642-2.496032-1.794494-1.870971-3.252075-1.149841-5.438415 4.426331-13.42041 6.235779-27.17273 5.292297-41.318359-.963745-14.448731-6.896728-23.05774-18.812805-26.345032-9.043518-2.494812-18.023315-1.566345-26.467224.473511-1.100342 17.388061-2.166748 34.239868-3.251098 51.374755-1.751954-.423278-2.411561-.526977-3.033326-.740722-35.901245-12.341431-72.662719-17.976807-110.586303-13.663819-18.661316 2.122254-36.638489 6.612183-52.584137 17.267457-19.961548 13.338806-26.062836 39.879211-13.656403 60.362792 7.25119 11.971924 18.533386 19.059693 31.08075 23.967957 27.867675 10.901245 56.912231 11.707214 86.133483 8.078857 27.649598-3.433227 53.031189-12.964538 74.031128-31.87146 7.70636-6.938293 14.348511-15.058776 21.700013-22.878234 17.709289 10.34375 34.664611 22.911926 47.861511 39.343139 6.955444 8.660095 14.224792 11.901978 24.445984 10.147583 2.039245-.350036 4.477234-1.217956 5.758484-2.692444 9.942749-11.441711 19.746765-23.009399 29.326355-34.756042 1.598999-1.960693 2.6875-4.977722 2.690246-7.508118.129639-118.651367.234375-237.303131-.061401-355.953888-.032166-12.900207-1.349671-26.032776-4.021973-38.644165-6.489563-30.625305-23.687805-53.761398-51.448791-68.848449-18.890808-10.266449-39.274537-15.296219-60.370484-18.008942-23.394714-3.008331-46.839111-2.91861-70.32135-1.080948-23.556518 1.843491-46.391785 6.670349-68.935852 16.151733m1289.053833 697.102433c4.828857-.000122 9.683594.291504 14.475098-.131653 2.174194-.192017 4.816528-1.270935 6.231323-2.854614 8.315552-9.307801 16.370117-18.850708 24.39856-28.410157.982421-1.169555 1.82666-2.912536 1.821411-4.386535-.104737-28.964478.309082-57.954102-.827393-86.881836-.585205-14.893921-7.997436-27.414551-20.99353-35.613465-19.439575-12.263977-40.460327-13.185424-61.898804-6.899597-16.555298 4.854004-27.551147 16.148743-31.644409 32.90857-1.938477 7.93634-2.202026 16.457458-2.056397 24.692932.392212 22.167175 16.071656 41.645752 37.727906 46.306762 8.935669 1.923096 18.33374 1.697937 28.111328 2.498169v4.26941c.000122 16.817871.052368 33.636047-.050537 50.453308-.017212 2.813781.409179 4.608093 4.705444 4.048706m-1034.024353-122.096253c-3.051147-22.424682-15.412231-37.082153-37.054321-43.51477-14.666687-4.359375-29.629273-4.473328-44.346497-.273438-17.291748 4.934448-28.77478 16.151917-33.731018 33.598633-2.721558 9.580444-2.930481 19.333191-1.510864 29.194458 3.306457 22.96698 19.974487 40.080505 42.839538 42.910584 7.273255.900207 14.751893.140747 22.690308.140747v60.03247c7.376587 0 14.197205.128785 21.005127-.107116 1.383301-.047913 3.048706-1.182495 4.024658-2.303284 8.203797-9.421875 16.321717-18.919983 24.337342-28.50238 1.082885-1.294495 2.062683-3.184082 2.063964-4.798951.022583-28.492431-.114318-56.984863-.318237-86.376953z" fill="#fff"/><path d="m1150.425781 578.762512c-15.99414-2.093384-30.374878-6.825256-41.434448-18.609131-14.472168-15.419738-17.46167-34.296325-15.462769-54.384735 1.892701-19.023559 9.858399-34.808166 26.241822-45.503357 13.560547-8.852447 28.681885-11.045349 44.520263-9.673675 2.317017.200653 4.630127.447174 7.539429.730316 0-2.161469-.057495-4.095001.008667-6.024262.66687-19.453887.446411-38.993103 2.280274-58.337249 2.00769-21.177735 13.752929-36.693909 32.500976-46.798737 3.402832-1.833984 6.83374-3.61615 10.251587-5.422241-.092773-.482452-.185425-.964905-.278076-1.447357-1.634888-.557038-3.251221-1.177735-4.907471-1.661438-21.902954-6.396332-43.791748-12.84314-65.740723-19.077484-3.158447-.897065-4.431396-2.300202-5.168457-5.55661-3.773681-16.671082-4.784179-33.294556.237305-49.842072 6.654419-21.928207 21.499634-37.207947 40.723145-48.57048 21.866455-12.924652 45.991455-19.158188 70.917724-22.306458 27.698487-3.498443 55.489136-3.792618 83.238404-.253631 21.100708 2.691085 41.484253 7.748565 60.368408 18.033447 27.747803 15.112243 44.946899 38.258346 51.386841 68.899734 2.685547 12.778168 3.984008 26.08017 4.013549 39.148224.287476 127.661072.193116 255.323029.043702 382.98465-.003296 2.816101-1.293946 6.153442-3.081421 8.357483-9.44336 11.643493-19.176148 23.055786-28.993408 34.387939-1.197266 1.382019-3.473877 2.461426-5.303956 2.54834-6.44873.306397-12.920898.119141-19.966064.119141 0-27.393006 0-54.416138 0-81.43927-.812988-.618531-1.625855-1.237061-2.438843-1.855591-.717285 1.618713-1.148681 3.455993-2.194336 4.823669-18.913696 24.740235-37.969726 49.372132-56.789551 74.183106-2.478027 3.266784-4.924804 4.837707-9.032714 4.364624-3.288452-.378784-6.655274-.076538-10.510743-.076538-7.908447-20.121399-20.491333-37.288636-36.031005-52.796631-2.696167 4.733703-5.091309 9.44342-7.940918 13.859802-18.230347 28.253418-44.96167 42.280457-77.767456 45.254883-22.529297 2.042724-44.675538.166626-64.989136-11.163086-28.856812-16.094666-37.246094-52.329529-17.946411-78.57489 9.69812-13.188477 23.731689-20.083069 39.213867-24.129029 31.753296-8.297973 63.245972-7.34198 94.402832 3.117554.926269.310913 1.864258.587219 2.819092.886658 0-17.373901 0-34.530151 0-52.204468 9.024658-1.554565 18.722412-2.900513 28.354492.261231 9.150268 3.003418 14.011597 9.878479 15.50061 19.083496 2.693482 16.651062 1.286865 33.230652-1.745239 49.687866-.81665 4.432434-.315552 7.365906 3.617065 10.518066 6.590699 5.282532 12.635621 11.359803 18.299073 17.652832 5.544311 6.160828 10.325317 13.008728 15.649536 19.821411 9.706909-12.294494 19.636597-24.872253 29.567505-37.449035 12.489258-15.816895 25.055298-31.574524 37.37561-47.521973 1.564697-2.025513 2.608887-5.041199 2.612427-7.599853.130249-96.662781.145019-193.325745.078369-289.988617-.012085-17.528748-1.229858-34.959961-7.031494-51.716828-10.310303-29.779281-31.73584-46.298706-62.249634-51.740493-26.812378-4.781693-53.37561-4.033814-79.484375 4.307373-30.136719 9.628067-49.420532 36.207473-49.546753 67.7733-.012451 3.096039 1.591431 3.959381 3.696045 5.019226 20.790527 10.469269 41.596313 20.90863 62.344849 31.460754 11.199829 5.695893 14.818725 14.371826 10.513916 24.564636-1.38562 3.280793-3.292969 5.095063-7.401856 5.204377-20.498779.545379-31.786499 10.899597-34.278808 31.61676-1.171143 9.734528-1.85669 19.580902-1.936524 29.383301-.244507 29.996826.259766 60.003174-.277222 89.992401-.18872 10.538177-1.460327 21.323578-4.134765 31.497345-6.407349 24.374512-23.474976 37.602417-47.903931 41.249084-8.490478 1.267456-17.253418.708802-26.348877.93219m6.567505 89.798706c-.798462 1.263794-1.675659 2.485108-2.383789 3.797608-10.224853 18.950561-2.806763 41.234924 16.22522 48.800293 17.040649 6.773681 41.084595.680603 53.066894-13.219239 11.280152-13.085388 16.007325-28.821289 19.089112-45.497558-14.519043-7.412354-29.817017-11.479798-46.023804-11.096741-15.219482.359558-29.36731 3.95398-39.973633 17.215637m29.006958-179.016418c-8.679932-9.393891-19.857056-10.4581-31.681518-9.657685-12.306275.833039-22.447876 8.420258-25.658204 20.166718-1.300048 4.75705-1.905883 9.833954-1.969726 14.776367-.286621 22.181092 7.987793 35.18103 30.511841 35.72937 17.558349.427368 31.809204-4.838867 35.263061-26.001465 1.964966-12.03955 1.47461-23.919006-6.465454-35.013305z" fill="#010101"/><path d="m1563.381104 623.380737c14.603271-13.729675 32.450927-19.409546 51.282836-22.111511 21.431763-3.075012 42.869629-2.201233 64.008423 2.85437 5.320069 1.272278 10.516846 3.060181 16.216431 4.742798 0-17.203003 0-34.337463 0-51.908203 8.299927-1.393372 17.312866-2.449097 26.377197-.175598 10.191284 2.555969 16.249634 10.231079 17.679199 21.576721 2.107544 16.725647.579834 33.223938-2.296508 49.711304-.326905 1.874694.213379 4.856811 1.505493 5.910766 13.678589 11.156983 25.131958 24.262757 35.059204 38.780396.270386.395447.725952.664184 1.274414 1.151184 15.855957-20.173157 31.674927-40.299378 47.494141-60.425476 6.587646-8.380921 13.265869-16.693421 19.6875-25.199585 1.279052-1.694275 2.232421-4.127625 2.234985-6.221497.107666-88.662536.130493-177.325287.051758-265.987915-.014649-16.543976-1.662964-32.927917-7.054932-48.715454-9.642944-28.233139-29.769897-44.946167-58.431274-50.925568-27.956665-5.832412-55.954468-5.168197-83.411377 3.65326-29.934326 9.617355-48.76355 35.369934-49.215943 66.856292-.044922 3.122254.893189 4.686738 3.671875 6.070221 20.38208 10.148438 40.704346 20.418946 60.970337 30.797364 3.215332 1.646545 6.445191 3.63385 8.986939 6.151519 5.769531 5.714905 6.036499 15.780457.824829 21.971436-.903931 1.073822-2.700684 1.671753-4.181885 1.927551-3.269287.564514-6.633789.581604-9.900391 1.157044-11.97583 2.109588-19.556762 9.261566-23.317016 20.691131-4.292236 13.046662-4.23877 26.591309-4.343872 40.06305-.255005 32.662079-.225342 65.326263-.354737 97.98941-.043579 10.981018-2.61914 21.493469-6.908691 31.499756-7.134033 16.642151-20.261597 26.869385-37.377808 31.174622-18.063476 4.543579-36.363647 4.242553-54.0708-2.462525-19.028687-7.205444-31.064331-20.892456-35.400513-40.731445-3.479004-15.917237-3.028442-31.926789 3.468018-47.09433 10.048217-23.459259 28.954467-34.260254 53.73767-35.776459 6.289063-.384735 12.621827-.057647 19.518677-.057647 0-.968812-.04834-2.751679.007446-4.531281.583863-18.634644.427002-37.331879 1.974366-55.88678 1.891479-22.68042 13.429687-39.649261 33.904785-50.198486 2.942871-1.516235 5.79541-3.209137 8.663574-4.865631.195313-.112763.169922-.607514.378906-1.4646-1.224731-.462951-2.490356-1.039673-3.811523-1.425995-22.380005-6.544342-44.753296-13.112426-67.170044-19.528991-2.695068-.771454-4.004639-1.824707-4.687012-4.761078-3.947387-16.986115-5.036255-33.904084.196045-50.813294 6.838013-22.098785 21.878174-37.39328 41.333985-48.664108 21.794799-12.625839 45.748657-18.880875 70.527587-21.947647 27.54004-3.408493 55.157837-3.721039 82.74231-.2258 20.429565 2.588639 40.210693 7.398117 58.636841 17.010804 29.754394 15.522659 47.603393 40.02713 53.910522 72.669891 2.258789 11.691193 3.233155 23.803711 3.256348 35.726929.231079 118.660888.161621 237.322418.008667 355.983612-.003662 2.81665-1.323731 6.149597-3.117188 8.358764-9.239135 11.380249-18.73352 22.56012-28.409668 33.571717-1.48767 1.692993-4.333862 2.878051-6.637939 3.035034-6.110107.416321-12.267578.141174-18.743408.141174 0-27.321777 0-54.258484 0-82.635681-2.121704 1.846558-3.552979 2.735962-4.518677 3.98529-18.944458 24.506531-37.922241 48.988404-56.641357 73.666321-2.812745 3.708008-5.592163 5.828614-10.283326 5.018189-1.294677-.223694-2.693969-.224793-3.987915.000671-4.299316.749329-6.344482-1.056763-8.097778-5.082702-7.86853-18.068604-19.274292-33.728882-33.810547-47.66919-2.680054 4.737793-4.998901 9.414856-7.833984 13.754639-18.430176 28.21051-44.895508 42.828003-78.171509 45.364197-22.561157 1.719482-44.641479-.05365-64.945923-11.428833-28.380371-15.899598-36.614624-51.615906-17.927246-77.813172 1.537109-2.154785 3.472412-4.025452 5.469483-6.280945m61.859985 71.032837c20.062012 3.829529 37.312744-.685119 50.378906-17.212036 9.962158-12.600586 14.283447-27.379028 16.687134-42.64563-13.263672-7.011413-26.832642-10.654236-41.162964-11.151245-15.413818-.534607-29.973389 2.124146-41.360229 13.645081-9.601563 9.714599-11.92627 21.659179-8.780884 34.601928 2.98938 12.30188 11.212524 19.611084 24.238037 22.761902m-48.303589-188.898559c-1.669189 11.40271-1.420654 22.495056 4.456909 32.930297 8.921753 15.840088 38.301026 13.935181 49.236817 6.368775 14.76062-10.212769 15.342041-40.029419 6.419311-53.103119-6.34021-9.289734-15.985474-11.741272-26.535522-12.111633-17.933106-.629486-30.961914 8.223755-33.577515 25.91568z" fill="#010101"/><path d="m140.618774 192.601746c47.438645-11.843476 94.756119-12.554413 141.84726-1.397156 30.02063 7.112717 55.654388 21.99028 72.167847 49.453461 8.908477 14.815506 13.713531 30.995727 15.2695 48.117401.767884 8.449432 1.209351 16.959594 1.214356 25.442657.074646 126.831055.034027 253.66214.133575 380.493134.003113 3.956299-1.139129 6.857849-3.697082 9.798706-9.403015 10.81018-18.634552 21.772522-27.760926 32.817871-2.014465 2.438049-4.196106 2.974304-7.213073 3.309448-9.795563 1.088135-16.679901-1.785461-23.245087-9.970154-13.324524-16.611328-30.421173-29.257324-48.174316-39.763794-7.367569 7.827393-14.160935 16.075074-22.00145 23.164734-17.481522 15.807129-38.521728 24.777405-61.434738 29.32428-30.851456 6.122314-61.590881 6.004272-91.850723-3.465576-11.354844-3.553467-21.703659-9.043457-30.507733-17.414246-18.93753-18.005371-17.948299-49.741699 2.487454-66.213623 14.172889-11.423828 30.946808-16.633484 48.613319-19.246399 39.683449-5.869079 78.331032-1.153747 116.115898 11.828919 1.100785.378235 2.204087.752563 3.320816 1.078796.282105.082398.620438-.027588 2.111206-.130615 1.106339-16.722778 2.222702-33.596741 3.373658-50.993714 9.588943-1.917602 19.604553-3.170288 29.451095.493592 7.754212 2.885437 12.186707 8.933105 14.146271 16.890625 4.08786 16.599975 1.368317 32.733032-3.294159 48.73529-.458008 1.5719-1.027741 3.111267-1.339722 4.047791 14.470764 10.673706 28.689972 21.161804 43.305786 31.942505.123871-1.580567.327179-2.964661.327332-4.348816.014374-126.497742.041656-252.995514-.020172-379.493225-.008515-17.380188-1.679718-34.565461-7.585175-51.117218-9.918609-27.799774-30.175689-43.868927-58.374588-49.655854-27.619751-5.66806-55.286651-5.015243-82.448013 3.616547-30.376709 9.65361-49.237717 35.133606-49.710465 66.949982-.045906 3.089203.806626 4.706146 3.619843 6.105072 20.835236 10.360779 41.603775 20.85675 62.342712 31.409607 10.638733 5.413513 14.25647 13.272583 10.85936 23.197967-1.374527 4.016022-3.466263 6.414643-8.557449 6.531342-20.408402.467804-31.993912 12.045318-33.963104 33.742218-.947083 10.43515-1.483521 20.937134-1.578537 31.41452-.285584 31.495789-.240662 62.994507-.372269 94.491852-.045899 10.980896-2.599442 21.504089-6.924423 31.495117-7.096787 16.394165-19.914444 26.574829-36.932495 30.953186-18.269967 4.700501-36.637749 4.441712-54.523247-2.263794-19.097965-7.160034-31.028567-20.934631-35.376539-40.74414-3.492678-15.912781-3.026983-31.927002 3.475088-47.094056 10.056135-23.457428 28.967094-34.250335 53.750114-35.761627 6.287087-.383392 12.617424-.057464 19.499809-.057464 0-.985352-.0484-2.76944.007454-4.550202.584458-18.635101.463402-37.328186 1.96666-55.889435 1.840843-22.729614 13.464058-39.615966 33.90979-50.173858 2.94181-1.519104 5.796181-3.208985 8.664879-4.865113.195572-.112915.170913-.607299.3815-1.465698-1.224487-.463348-2.489212-1.040802-3.809891-1.426971-22.380592-6.544587-44.754623-13.11261-67.17186-19.529511-2.694339-.771271-4.008144-1.821503-4.68721-4.760773-4.003215-17.327484-5.03561-34.538787.508934-51.762008 5.52121-17.150757 16.376488-30.244782 30.569756-40.903687 14.625381-10.983398 31.25267-17.536361 49.113174-22.387893m59.568879 472.655151c-23.780381-5.6651-47.729783-9.317383-72.190621-5.237854-9.541809 1.591431-18.506752 5.092346-24.652748 12.863586-13.331177 16.856507-5.815887 39.958863 14.808586 46.448487 14.698219 4.624817 29.715065 5.250366 44.940087 3.578552 29.820556-3.274353 49.618469-22.065186 58.291366-51.206055-6.798981-2.056335-13.609558-4.116211-21.19667-6.446716m-97.55803-178.398743c-21.683601-17.094177-52.419571-5.735626-56.025672 20.968445-1.409081 10.434693-1.50602 21.131714 4.74335 30.433167 9.205559 13.701355 35.385151 16.823059 49.493611 6.249206 8.672302-6.499634 11.435806-15.759521 11.819656-25.827331.435654-11.4263-.377334-22.724976-10.030945-31.823487z" fill="#010101"/><path d="m565.921753 200.951523c22.184936-9.350098 45.020203-14.176956 68.576721-16.020447 23.482239-1.837662 46.926636-1.927383 70.32135 1.080948 21.095947 2.712723 41.479676 7.742493 60.370484 18.008942 27.760986 15.087051 44.959228 38.223144 51.448791 68.848449 2.672302 12.611389 3.989807 25.743958 4.021973 38.644165.295776 118.650757.19104 237.302521.061401 355.953888-.002746 2.530396-1.091247 5.547425-2.690246 7.508118-9.57959 11.746643-19.383606 23.314331-29.326355 34.756042-1.28125 1.474488-3.719239 2.342408-5.758484 2.692444-10.221192 1.754395-17.49054-1.487488-24.445984-10.147583-13.1969-16.431213-30.152222-28.999389-47.861511-39.343139-7.351502 7.819458-13.993653 15.939941-21.700013 22.878234-20.999939 18.906922-46.38153 28.438233-74.031128 31.87146-29.221252 3.628357-58.265808 2.822388-86.133483-8.078857-12.547364-4.908264-23.82956-11.996033-31.08075-23.967957-12.406433-20.483581-6.305145-47.023986 13.656403-60.362792 15.945648-10.655274 33.922821-15.145203 52.584137-17.267457 37.923584-4.312988 74.685058 1.322388 110.586303 13.663819.621765.213745 1.281372.317444 3.033326.740722 1.08435-17.134887 2.150756-33.986694 3.251098-51.374755 8.443909-2.039856 17.423706-2.968323 26.467224-.473511 11.916077 3.287292 17.84906 11.896301 18.812805 26.345032.943482 14.145629-.865966 27.897949-5.292297 41.318359-.72113 2.18634-1.346191 3.643921 1.149841 5.438415 12.819092 9.215516 25.440369 18.706116 38.153504 28.069642.734985.54132 1.671081.809692 3.148254 1.502868.101624-2.125671.24231-3.697387.242493-5.269104.010193-116.31842.032471-232.636902-.016419-348.955353-.00708-16.862243-1.14331-33.659393-6.436035-49.820465-10.042846-30.66542-31.640869-47.939834-63.041687-53.469009-26.471863-4.661285-52.703918-4.009918-78.510071 4.134064-30.746521 9.703079-49.769897 35.474472-50.331054 67.664291-.05774 3.313843 1.553406 4.25882 3.857849 5.417969 20.793396 10.458832 41.593872 20.904449 62.327942 31.480011 11.333618 5.780823 14.817016 14.744293 10.073242 24.999786-1.34668 2.911438-3.012207 4.539917-6.713501 4.653473-21.016418.645081-32.190186 10.79657-34.681824 31.738861-1.158386 9.735626-1.84613 19.579804-1.92572 29.381409-.243286 29.994202.235657 59.99707-.267761 89.984772-.171387 10.209137-1.577576 20.581268-3.902039 30.532623-5.042297 21.586426-19.340759 35.115173-40.408874 40.668945-17.690064 4.663452-35.734131 4.379395-53.119843-2.016907-24.416687-8.982971-36.374298-27.430114-38.190796-52.81134-1.012634-14.149231.739868-27.959259 7.675324-40.662994 9.564575-17.519684 24.686035-27.250458 44.161133-29.701172 8.659423-1.089661 17.569824-.18396 26.792419-.18396 0-11.090729.005859-22.22937-.001465-33.368012-.008606-13.00354.548706-25.906158 3.775879-38.641082 4.561524-18.000702 15.598206-30.521302 31.632507-39.121003 2.780396-1.49121 5.576111-2.954711 8.332459-4.489044.387878-.215881.590759-.764221 1.384155-1.849121-1.823181-.668243-3.364075-1.336304-4.963684-1.803741-21.580444-6.305725-43.141174-12.682129-64.780579-18.779145-3.993774-1.125274-5.768829-2.809722-6.688476-7.099731-3.734619-17.420959-4.443543-34.63089 1.500488-51.694611 7.0943-20.365722 21.397583-34.55513 39.437805-45.382629 4.83252-2.900391 10.05835-5.145584 15.462769-7.82283m-16.186707 476.644302c.844483 1.22815 1.606751 2.523377 2.546509 3.673767 7.153809 8.757202 17.211731 11.56543 27.72229 13.070069 16.475891 2.358642 32.925293 2.490051 48.882874-3.066956 22.536743-7.848083 34.750305-25.175476 42.271667-46.887878-19.923889-7.703431-40.455749-12.199524-61.678283-13.640137-13.533265-.91864-26.87323-.476135-40.030091 3.538513-19.325744 5.896851-28.19574 25.183716-19.714966 43.312622m12.256165-170.604034c-1.651978-7.497833-3.266357-14.983429-9.806397-20.134674-10.48236-8.25647-22.413085-8.566864-34.59436-5.848908-10.608917 2.367096-17.565399 9.25766-20.225372 19.847992-2.249542 8.956207-2.419495 18.079224-.500946 27.18335 2.744659 13.023926 10.882751 20.869201 24.181396 22.005554 6.188538.528809 12.618775.02832 18.757569-1.045166 11.558837-2.021362 18.481628-9.707459 20.848754-20.806885 1.399537-6.562744.98462-13.512451 1.339356-21.201263z" fill="#010101"/><path d="m1854.131226 898.184937c-3.811036.559692-4.237427-1.23462-4.220215-4.048401.102905-16.817261.050659-33.635437.050537-50.453308 0-1.796082 0-3.592225 0-4.26941-9.777588-.800232-19.175659-.575073-28.111328-2.498169-21.65625-4.66101-37.335694-24.139587-37.727906-46.306762-.145629-8.235474.11792-16.756592 2.056397-24.692932 4.093262-16.759827 15.089111-28.054566 31.644409-32.90857 21.438477-6.285827 42.459229-5.36438 61.898804 6.899597 12.996094 8.198914 20.408325 20.719544 20.99353 35.613465 1.136475 28.927734.722656 57.917358.827393 86.881836.005249 1.473999-.83899 3.21698-1.821411 4.386535-8.028443 9.559449-16.083008 19.102356-24.39856 28.410157-1.414795 1.583679-4.057129 2.662597-6.231323 2.854614-4.791504.423157-9.646241.131531-14.960327.131348m6.155517-90.32129c10.29065-9.244079 12.977905-26.870483 6.093628-39.970703-5.527344-10.518127-19.358154-15.706421-33.066528-12.531799-10.028931 2.322571-16.702027 8.348022-19.003662 18.299194-2.760865 11.93573-2.479981 23.717408 6.917846 33.078858 9.109986 9.074646 26.127442 9.523926 39.058716 1.12445z" fill="#c57035"/><path d="m820.642883 776.538818c.153138 28.942261.290039 57.434693.267456 85.927124-.001281 1.614869-.981079 3.504456-2.063964 4.798951-8.015625 9.582397-16.133545 19.080505-24.337342 28.50238-.975952 1.120789-2.641357 2.255371-4.024658 2.303284-6.807922.235901-13.62854.107116-21.005127.107116 0-20.068481 0-39.798767 0-60.03247-7.938415 0-15.417053.75946-22.690308-.140747-22.865051-2.830079-39.533081-19.943604-42.839538-42.910584-1.419617-9.861267-1.210694-19.614014 1.510864-29.194458 4.956238-17.446716 16.43927-28.664185 33.731018-33.598633 14.717224-4.19989 29.67981-4.085937 44.346497.273438 21.64209 6.432617 34.003174 21.090088 37.105102 43.964599m-81.314209-13.668823c-4.644958 5.442505-6.422302 11.896546-6.688232 18.892822-.401001 10.547974 1.110718 20.633118 10.551636 27.0141 10.023193 6.774536 21.097595 6.691772 31.924438 1.939758 17.098511-7.504578 17.380554-33.351135 9.470032-44.941467-9.197815-13.476502-31.522461-15.195496-45.257874-2.905213z" fill="#c57034"/><g fill="#fdfdfd"><path d="m1157.21228 668.274536c10.387329-12.974975 24.535157-16.569397 39.754639-16.928955 16.206787-.383057 31.504761 3.684387 46.023804 11.096741-3.081787 16.676269-7.80896 32.41217-19.089112 45.497558-11.982299 13.899842-36.026245 19.99292-53.066894 13.219239-19.031983-7.565369-26.450073-29.849732-16.22522-48.800293.70813-1.3125 1.585327-2.533814 2.602783-4.08429z"/><path d="m1186.219238 489.835938c7.72107 10.803161 8.211426 22.682617 6.24646 34.722167-3.453857 21.162598-17.704712 26.428833-35.263061 26.001465-22.524048-.54834-30.798462-13.548278-30.511841-35.72937.063843-4.942413.669678-10.019317 1.969726-14.776367 3.210328-11.74646 13.351929-19.333679 25.658204-20.166718 11.824462-.800415 23.001586.263794 31.900512 9.948823z"/><path d="m1624.838623 694.304504c-12.623047-3.041748-20.846191-10.350952-23.835571-22.652832-3.145386-12.942749-.820679-24.887329 8.780884-34.601928 11.38684-11.520935 25.946411-14.179688 41.360229-13.645081 14.330322.497009 27.899292 4.139832 41.162964 11.151245-2.403687 15.266602-6.724976 30.045044-16.687134 42.64563-13.066162 16.526917-30.316894 21.041565-50.781372 17.102966z"/><path d="m1576.992676 505.091125c2.560425-17.268035 15.589233-26.121276 33.522339-25.49179 10.550048.370361 20.195312 2.821899 26.535522 12.111633 8.92273 13.0737 8.341309 42.89035-6.419311 53.103119-10.935791 7.566406-40.315064 9.471313-49.236817-6.368775-5.877563-10.435241-6.126098-21.527587-4.401733-33.354187z"/><path d="m200.575928 665.392212c7.198837 2.19519 14.009414 4.255066 20.808395 6.311401-8.672897 29.140869-28.47081 47.931702-58.291366 51.206055-15.225022 1.671814-30.241868 1.046265-44.940087-3.578552-20.624473-6.489624-28.139763-29.59198-14.808586-46.448487 6.145996-7.77124 15.110939-11.272155 24.652748-12.863586 24.460838-4.079529 48.41024-.427246 72.578896 5.373169z"/><path d="m102.924957 487.064972c9.358277 8.891693 10.171265 20.190369 9.735611 31.616669-.38385 10.06781-3.147354 19.327697-11.819656 25.827331-14.10846 10.573853-40.288052 7.452149-49.493611-6.249206-6.24937-9.301453-6.152431-19.998474-4.74335-30.433167 3.606101-26.704071 34.342071-38.062622 56.321006-20.761627z"/><path d="m549.54541 677.268555c-8.291138-17.801636.578858-37.088501 19.904602-42.985352 13.156861-4.014648 26.496826-4.457153 40.030091-3.538513 21.222534 1.440613 41.754394 5.936706 61.678283 13.640137-7.521362 21.712402-19.734924 39.039795-42.271667 46.887878-15.957581 5.557007-32.406983 5.425598-48.882874 3.066956-10.510559-1.504639-20.568481-4.312867-27.72229-13.070069-.939758-1.15039-1.702026-2.445617-2.736145-4.001037z"/><path d="m562.014343 507.448364c-.377868 7.232239.037049 14.181946-1.362488 20.74469-2.367126 11.099426-9.289917 18.785523-20.848754 20.806885-6.138794 1.073486-12.569031 1.573975-18.757569 1.045166-13.298645-1.136353-21.436737-8.981628-24.181396-22.005554-1.918549-9.104126-1.748596-18.227143.500946-27.18335 2.659973-10.590332 9.616455-17.480896 20.225372-19.847992 12.181275-2.717956 24.112-2.407562 34.59436 5.848908 6.54004 5.151245 8.154419 12.636841 9.829529 20.591247z"/></g><path d="m1859.995117 808.085327c-12.639648 8.177796-29.657104 7.728516-38.76709-1.34613-9.397827-9.36145-9.678711-21.143128-6.917846-33.078858 2.301635-9.951172 8.974731-15.976623 19.003662-18.299194 13.708374-3.174622 27.539184 2.013672 33.066528 12.531799 6.884277 13.10022 4.197022 30.726624-6.385254 40.192383z" fill="#fffefe"/><path d="m739.581543 762.607361c13.482544-12.027649 35.80719-10.308655 45.005005 3.167847 7.910522 11.590332 7.628479 37.436889-9.470032 44.941467-10.826843 4.752014-21.901245 4.834778-31.924438-1.939758-9.440918-6.380982-10.952637-16.466126-10.551636-27.0141.26593-6.996276 2.043274-13.450317 6.941101-19.155456z" fill="#fffefd"/></svg>