<svg enable-background="new 0 0 2150 904" viewBox="0 0 2150 904" xmlns="http://www.w3.org/2000/svg"><path d="m1317 905c-439 0-877.5 0-1316 0 0-301.333313 0-602.666656 0-904h2150v904c-277.833374 0-555.666626 0-834 0m-817.498199-492.499695c0-74.789429 0-149.578888 0-224.669754-6.626923 0-12.786286.159271-18.931458-.066727-3.106537-.114242-5.148224.775773-7.175232 3.265442-9.044128 11.108643-18.202179 22.133377-27.641449 32.90596-2.758453 3.148072-3.659424 6.251282-3.655243 10.285706.088654 85.321518.069153 170.643173.060211 255.964798-.000396 3.665497-.003296 7.335602-.172973 10.995758-.925385 19.962921-9.636933 33.369782-25.644104 38.280121-6.459473 1.981506-13.330017 3.463745-20.048157 3.613098-26.482636.58844-52.978973.557739-79.470245.754578-1.445526.010742-2.891175.001342-4.653717.001342 0-2.275207 0-4.074462 0-5.873718-.000031-76.156219.037017-152.312469-.05304-228.468597-.009827-8.310089-.276337-16.675019-1.240997-24.918854-3.277832-28.010895-14.360749-52.196121-36.555481-70.348053-18.817551-15.389923-41.124741-23.031876-64.689179-27.005218-27.931183-4.709626-56.046493-4.772568-84.130729-1.153443-23.778489 3.06427-46.691849 8.886749-67.417035 21.629212-18.380039 11.300613-32.111866 26.335235-38.418933 47.313903-4.831043 16.069123-3.30675 32.239655-.34248 48.451966.750065 4.102295 2.636379 5.58667 6.410282 6.639038 21.655357 6.038879 43.233887 12.353424 64.832993 18.593445 1.623474.469024 3.204124 1.086334 4.804679 1.634704.006318.489533.012635.979035.018952 1.468567-2.012558.736939-3.997643 1.562378-6.042008 2.196838-16.436988 5.101227-31.602348 12.43512-43.543575 25.23169-14.652094 15.70163-20.319216 35.006714-20.704504 55.833099-.545498 29.486298-.387956 58.989929-.166769 88.483429.067124 8.950135.55995 18.038086 2.215216 26.80658 3.729778 19.757934 13.744058 35.503601 33.041879 43.257873 24.005631 9.645874 48.226586 8.922913 71.779755-1.732727 14.202957-6.425598 23.426148-17.730957 28.265152-32.599426 3.685379-11.323852 3.939285-22.848633 2.663498-34.568664-3.092407-28.408692-25.541733-51.156434-53.921417-53.744263-8.81411-.803711-17.763382-.125061-27.415833-.125061.487244-13.968292.230484-28.830841 1.718575-43.516541 1.770424-17.472015 8.765846-32.785034 23.764007-43.244873 10.472489-7.303558 22.307518-10.945129 34.950646-12.230987 7.397064-.752289 8.407135-1.740906 10.351806-9.034027 2.452134-9.19629-1.035598-15.89267-11.332321-21.146973-18.223816-9.299378-36.510635-18.475311-54.769249-27.706543-11.413971-5.770722-11.684959-5.805206-10.189354-18.728333 2.772164-23.953521 14.697602-42.11029 36.639817-52.304397 28.101791-13.055756 57.506622-13.14299 86.828888-4.803833 23.13945 6.58078 39.326309 21.630447 48.376022 44.126633 7.035538 17.489288 8.547928 35.853027 8.568802 54.406097.077057 68.490509.033935 136.981201.017395 205.471802-.000611 2.49591-.079926 5.003296-.322327 7.485778-.917328 9.393799-6.444076 14.705872-15.92186 15.281067-2.610687.158448-5.239135.024048-8.039779.024048v28.089417c1.15364 0 2.1091.000061 3.064575-.000061 55.159088-.004151 110.320251.251404 165.475738-.195923 13.73819-.111389 27.628022-1.568543 41.144074-4.058167 17.781311-3.275268 33.343994-11.221313 43.939636-26.865722 8.997864-13.28534 12.689667-28.293946 13.070648-43.906586.686829-28.146332.454529-56.315094.606202-85.474518m360.663787 85.999634c-.03894 9.998627.13617 20.003967-.176574 29.993957-.315613 10.07959-6.363953 15.930787-16.384156 16.415162-2.452941.11853-4.916565.017578-7.570495.017578v27.877929c.810852.076111 1.443115.187867 2.075317.187439 58.331543-.037658 116.666626.242127 174.992005-.380981 13.005737-.138855 26.200439-2.512085 38.912475-5.526062 18.996704-4.503906 33.673828-15.399109 42.314819-33.529175 7.290772-15.297241 8.827027-31.608673 8.830323-48.202484.020019-97.49762.009765-194.995209.009765-292.492828 0-1.59697 0-3.19394 0-5.029801-6.907837 0-13.230346-.219314-19.521484.128357-1.989624.109955-4.452637 1.250748-5.751099 2.743988-9.728759 11.187485-19.137817 22.652588-28.847046 33.857437-2.228881 2.572235-3.123046 5.077881-3.119628 8.468308.087524 85.997787.088378 171.995712.02478 257.993576-.004151 5.645508-.298706 11.336914-1.052124 16.926941-2.109986 15.655517-9.854614 27.175232-25.552307 31.797973-6.172852 1.81781-12.704773 3.197815-19.103333 3.331177-26.486938.551819-52.98529.551026-79.479492.750916-1.451355.010986-2.902893.001404-4.766052.001404 0-2.250672.000061-4.043519.000061-5.836304 0-74.498169.087219-148.996582-.089966-223.494324-.028015-11.796661-.397827-23.714661-2.09729-35.359436-3.406677-23.343033-13.06427-43.875748-30.514587-60.284714-18.625733-17.51419-41.493775-26.244186-66.015503-30.901046-30.026856-5.702301-60.300904-5.659394-90.543824-1.569947-22.765991 3.07843-44.648498 9.01413-64.509948 21.10466-18.402588 11.202469-32.283631 26.11702-38.714051 47.092087-4.97882 16.240204-3.512268 32.571961-.432129 48.93988.702271 3.731781 2.241578 5.463013 6.015259 6.507386 22.150818 6.130218 44.211792 12.585663 66.295899 18.955993 1.300232.375061 2.53894.963471 4.880005 1.866974-1.983948 1.118134-2.839356 1.780976-3.808045 2.114716-4.085266 1.407226-8.269653 2.545929-12.299927 4.090393-18.865844 7.22937-34.774475 18.170868-44.786682 36.322937-7.154419 12.970764-10.373169 27.03836-10.532654 41.703949-.318908 29.32843-.367736 58.661346-.274353 87.991608.024842 7.805206.556946 15.661376 1.567566 23.401306 3.445191 26.38562 19.774842 45.097412 44.665528 50.933105 17.681091 4.145386 35.368835 3.69281 52.715149-2.083618 18.483886-6.15509 30.897399-18.432251 36.713806-37.143616 3.111816-10.010864 3.520019-20.258239 2.732177-30.649475-2.299133-30.322723-24.749939-53.8031-54.865844-56.592132-8.516846-.788727-17.16864-.120606-26.258545-.120606.534485-17.233276-1.632263-35.557373 3.026428-53.588867 5.069702-19.621918 16.708191-33.566406 35.907959-40.31839 7.767395-2.731537 16.134949-3.741211 24.202759-5.647278 1.508911-.356476 3.322571-.87558 4.259949-1.957214 5.086364-5.869263 5.030273-15.999939-.403931-21.611237-2.597473-2.682007-5.911316-4.870727-9.255188-6.595733-17.585571-9.071991-35.288086-17.917115-52.942566-26.855744-12.176636-6.165191-12.421814-6.207886-10.679627-19.873443 3.383912-26.543396 17.972229-44.581604 42.722046-54.291809 21.045594-8.256882 43.052002-8.824875 64.99939-5.705933 24.417969 3.470077 45.031006 14.199921 58.168213 36.143829 9.823608 16.408783 13.918396 34.675629 14.039673 53.487793.415893 64.495728.232178 128.99527.277099 194.493439m821.58136-197.892578c-.838867-23.683014-6.936279-45.624893-21.305664-64.881775-1.09082-1.461914-1.52185-3.416077-2.259643-5.141419 1.879394-.246322 3.76831-.762329 5.636718-.696655 16.076905.565201 32.036011-.059601 47.283203-5.807709 11.525635-4.345138 20.615479-11.415481 24.330445-23.904556 4.400146-14.791595.381347-35.429779-21.815186-39.278961-7.30957-1.267578-14.717163-1.970566-22.034301-2.925766-.380982 1.366592-.584351 1.817108-.625 2.28183-1.609375 18.395599-10.33252 29.545593-27.946167 34.688248-16.035035 4.681793-32.261963 3.859176-48.436768.406539-14.790283-3.157074-29.449707-7.253677-44.390747-9.304031-25.999756-3.567902-52.181641-3.581467-78.234863.114685-23.733643 3.367081-46.704712 9.336685-67.329834 22.134247-16.694947 10.358856-29.819703 23.726669-32.98523 44.090256-1.99939 12.86203-1.481567 25.626709 9.684082 34.839721 13.182373 10.876954 29.328858 9.641175 44.714966 10.855683 1.04541-9.856842 1.421875-19.050415 3.085083-28.005005 4.553833-24.517975 17.015869-42.964768 42.082764-50.225311 28.687011-8.309113 57.575439-7.53685 86.273193.072448 15.438843 4.093689 27.49939 13.119706 35.607788 27.072937 7.919312 13.627991 10.908569 28.691346 10.998169 44.09607.385742 66.329559.400513 132.661926.302734 198.99292-.011962 8.102691-.903442 16.324646-2.471191 24.277679-2.710937 13.752564-11.167114 22.750305-24.830444 26.524658-11.910034 3.290039-24.03418 3.648072-36.160767 1.807434-13.298218-2.018432-22.094849-9.534485-25.4729-22.752685-.899048-3.518189-1.524903-7.210327-1.55896-10.829285-.327393-34.658935-.440674-69.319916-.766846-103.978851-.068848-7.313111-.238525-14.693329-1.255005-21.91687-3.204712-22.771668-14.533569-39.7164-36.428223-48.558533-16.240112-6.558502-33.093872-6.851715-50.150268-4.599884-33.40918 4.410767-55.49231 29.674957-55.282837 63.190002.239136 38.268952 24.644165 63.70929 62.901245 64.98523 7.621704.254181 15.303223-1.287232 23.091553-2.013214 0 1.711731-.031738 3.873779.005005 6.034668.288818 16.981384-.258789 34.029785 1.079101 50.92868 2.261597 28.567688 17.447876 46.344116 45.026123 53.711853 31.976563 8.542908 64.323365 8.296936 96.492432 1.478638 25.364502-5.376099 44.742188-19.149719 55.072388-43.835022 6.627563-15.837189 8.026977-32.613495 8.080566-49.457398.184082-57.831878.041626-115.664825-.006714-174.471496m200.418091 170.894653c.287964 13.819153-.049438 27.685974.999634 41.447144 1.943115 25.486694 14.689819 43.875 39.331909 51.770935 12.845093 4.115967 26.536377 6.307739 40.013916 7.569702 21.622314 2.024597 43.303833.949646 64.506714-4.378174 24.446167-6.142883 43.230591-19.528686 52.91272-43.58374 6.045654-15.021057 7.998047-30.876709 8.007324-46.962647.034912-60.155761.390137-120.315979-.254395-180.465088-.239746-22.382751-7.330322-43.181961-21.185791-61.266555-1.043457-1.361862-1.625244-3.077317-2.421631-4.628388 1.815186-.396118 3.64502-1.19284 5.442872-1.125793 16.246337.605881 32.358154-.03125 47.781982-5.790802 12.878906-4.809052 22.207275-13.054733 25.268555-27.215912 3.26831-15.11763-3.162842-29.047974-16.432373-34.202957-9.260743-3.597565-18.989502-4.2845-28.822022-3.91481-1.284912 24.121246-15.246094 33.282592-31.13501 37.065414-16.328857 3.887589-32.802856 3.034546-48.943603-1.386948-47.63916-13.049972-95.540039-14.909713-143.690674-3.403244-21.605591 5.163025-41.771606 13.610672-58.200684 29.229081-12.486572 11.87062-18.921753 26.39035-18.218628 43.725387.433106 10.678436 4.139771 20.015289 13.670167 25.782349 12.916381 7.816009 27.468505 7.489074 41.508667 8.292236.973754-9.566101 1.324707-18.420166 2.859008-27.064209 4.461914-25.136215 17.090576-44.065002 42.77002-51.358032 28.346435-8.050537 56.977539-7.428681 85.310547.170288 21.1604 5.675186 35.120727 19.4039 41.91687 40.369141 4.633911 14.295196 5.664062 29.014831 5.666015 43.883117.007813 61.156037.02771 122.312104-.0354 183.468079-.006226 5.98999-.298584 12.00473-.893799 17.964508-2.014648 20.171844-10.733887 31.148773-28.465942 35.833099-11.438477 3.021668-23.091065 3.127808-34.697022 1.277771-13.355224-2.128906-21.914673-9.901672-25.135986-23.110351-.938965-3.849671-1.540894-7.882233-1.571777-11.83667-.268799-34.322785-.289429-68.647644-.588745-102.970062-.066529-7.640656-.375-15.362458-1.549317-22.894562-3.488037-22.371399-15.094726-38.802826-36.602905-47.310333-15.586426-6.165162-31.759888-6.569916-48.188599-4.595337-32.045898 3.851623-52.963623 24.217071-56.408081 56.307495-3.546631 33.042083 13.888916 64.40506 51.420654 71.209961 11.236207 2.037262 22.535035 1.415466 34.05481-2.196442zm-337.377197 219.244751c-4.78003-5.329162-9.675904-10.561706-14.261963-16.052856-1.200073-1.437012-1.998169-3.671692-2.018677-5.550598-.082275-7.490174.544922-14.99524.302735-22.475098-.478516-14.777344-5.080445-21.486939-17.045166-23.978821-7.230347-1.505859-14.731812-1.709595-22.199219-2.507812.625244 11.13977 1.204468 21.456787 1.815552 32.344055-14.695313-4.086975-28.621338-6.210144-42.887208-5.410706-15.956176.894165-31.282836 3.887573-45.312744 12.19281-32.263916 19.099365-29.96643 63.587708-7.236938 82.776245 12.581055 10.621277 27.27832 15.07312 43.130493 16.307862 34.449463 2.683593 65.276611-10.873413 79.654419-45.683106.710327-1.720093 1.591186-3.36969 2.581665-5.449035 10.391724 15.084472 17.204712 31.034973 22.001587 47.331115 9.601929 1.946106 17.648071-.166259 25.544556-5.110473 10.411254-6.518677 21.484741-11.971314 32.128662-18.132386 2.994384-1.733154 5.224121-1.605346 8.136963.128663 8.424072 5.014465 17.440673 9.123962 25.485717 14.662109 10.798584 7.433594 22.268921 10.656067 35.190796 9.035889.164063-.02063.360474.054138.49524-.011414 1.777221-.864319 4.104003-1.297913 5.226074-2.695862 6.983276-8.700134 13.734863-17.588013 20.454101-26.496033.929932-1.233093 1.780762-2.920105 1.784424-4.399169.064942-25.996033.506226-52.006531-.209961-77.984253-.596435-21.637452-13.461914-37.052063-33.870971-42.325257-15.219727-3.932434-30.557984-4.363891-45.95105-.601684-15.897461 3.885376-27.723389 12.513916-31.806153 28.91156-4.365356 17.532287-1.765869 33.853515 11.974121 46.87677 10.674073 10.117187 23.987671 13.150146 38.23938 12.830444 4.86377-.10907 9.7146-.807312 14.588745-1.237915v36.94342c-2.266235-.926574-4.128906-1.46228-5.766479-2.393676-12.284912-6.987183-24.590576-13.943238-36.733032-21.17218-2.940796-1.750855-5.17395-1.717774-8.111817-.170716-13.078979 6.887268-26.270385 13.560852-38.477295 19.827149-5.592163-10.099244-11.026733-19.913514-16.846557-30.329041m-1094.254151 34.265259c4.726807-2.790649 9.664673-5.280335 14.145356-8.421997 24.986389-17.52002 36.25476-41.396057 32.358337-71.881043-1.273712-9.965393-6.631226-17.384643-16.3703-20.815979-10.792938-3.802673-22.025269-4.277343-33.800598-3.869934 0 8.45459.315216 16.6026-.056397 24.719239-1.36383 29.78717-16.201385 50.512756-43.435028 62.00885-22.071014 9.316833-45.231811 10.427063-68.697266 6.742736-4.73352-.743164-9.375518-2.069213-15.5195-3.455993 2.584991-1.892945 3.774749-2.676453 4.866089-3.579041 4.094879-3.386291 8.632507-6.385681 12.143158-10.30188 10.334381-11.528381 12.126007-25.763122 10.547149-40.318176-1.83551-16.920959-10.142334-30.272339-25.628967-38.115173-20.365753-10.313721-41.446533-10.32843-62.359528-2.019226-11.520782 4.577514-20.001541 13.004699-24.845657 24.704406-10.657517 25.740357-2.498306 56.412293 19.286972 73.911866 20.364075 16.35791 44.429718 22.979004 69.50769 26.582885 24.186585 3.475769 48.519593 3.257386 72.74881.018555 18.879669-2.523804 37.27301-6.966675 55.10968-15.910095m1571.526978 42.429871v10.180542c7.464355 0 14.57605.116943 21.676514-.113709 1.200805-.039001 2.572387-1.385132 3.493286-2.449097 8.173828-9.443786 16.331299-18.903991 24.308593-28.513061 1.259522-1.51709 2.24292-3.800598 2.253663-5.735779.143066-25.820312.352539-51.645264.006591-77.461792-.307373-22.932251-9.713378-40.512695-31.816284-49.574524-13.447998-5.513489-27.515259-6.021179-41.717529-4.018982-11.666016 1.644592-22.238037 5.937012-30.373047 14.738159-14.45581 15.638855-16.39978 34.398011-12.137451 54.154786 4.376953 20.287292 17.182007 33.244262 37.305054 37.827697 8.552002 1.947937 17.684082 1.349732 27.000732 1.936951 0 15.443237 0 31.74469-.000122 49.028809m-948.927124-148.128479c-19.152954-12.046998-39.803223-13.224732-60.967346-7.438904-18.893677 5.165039-30.324402 18.110595-33.993408 37.249084-1.36023 7.095581-1.343018 14.573914-1.060303 21.842957.775451 19.943359 14.606079 37.734863 33.526062 44.187378 10.47467 3.572448 21.150024 3.373962 32.448364 2.102905v60.393188c7.311157 0 14.110962.107239 20.901611-.096557 1.255005-.03772 2.777832-1.067261 3.659546-2.086609 8.385742-9.696289 16.71875-19.44043 24.899292-29.309631 1.154419-1.392701 1.996949-3.531922 1.993164-5.323548-.057983-27.804748.066285-55.617554-.598877-83.410522-.374389-15.636292-7.298095-28.43866-20.808105-38.109741z" fill="#fff"/><path d="m499.50177 413.000305c-.151642 28.659424.080658 56.828186-.606171 84.974518-.380981 15.61264-4.072784 30.621246-13.070648 43.906586-10.595642 15.644409-26.158325 23.590454-43.939636 26.865722-13.516052 2.489624-27.405884 3.946778-41.144074 4.058167-55.155487.447327-110.31665.191772-165.475738.195923-.955475.000122-1.910935.000061-3.064575.000061 0-9.462708 0-18.536316 0-28.089417 2.800644 0 5.429092.1344 8.039779-.024048 9.477784-.575195 15.004532-5.887268 15.92186-15.281067.242401-2.482482.321716-4.989868.322327-7.485778.01654-68.490601.059662-136.981293-.017395-205.471802-.020874-18.55307-1.533264-36.916809-8.568802-54.406097-9.049713-22.496186-25.236572-37.545853-48.376022-44.126633-29.322266-8.339157-58.727097-8.251923-86.828888 4.803833-21.942215 10.194107-33.867653 28.350876-36.639817 52.304397-1.495605 12.923127-1.224617 12.957611 10.189354 18.728333 18.258614 9.231232 36.545433 18.407165 54.769249 27.706543 10.296723 5.254303 13.784455 11.950683 11.332321 21.146973-1.944671 7.293121-2.954742 8.281738-10.351806 9.034027-12.643128 1.285858-24.478157 4.927429-34.950646 12.230987-14.998161 10.459839-21.993583 25.772858-23.764007 43.244873-1.488091 14.6857-1.231331 29.548249-1.718575 43.516541 9.652451 0 18.601723-.67865 27.415833.125061 28.379684 2.587829 50.82901 25.335571 53.921417 53.744263 1.275787 11.720031 1.021881 23.244812-2.663498 34.568664-4.839004 14.868469-14.062195 26.173828-28.265152 32.599426-23.553169 10.65564-47.774124 11.378601-71.779755 1.732727-19.297821-7.754272-29.312101-23.499939-33.041879-43.257873-1.655266-8.768494-2.148092-17.856445-2.215216-26.80658-.221187-29.4935-.378729-58.997131.166769-88.483429.385288-20.826385 6.05241-40.131469 20.704504-55.833099 11.941227-12.79657 27.106587-20.130463 43.543575-25.23169 2.044365-.63446 4.02945-1.459899 6.042008-2.196838-.006317-.489532-.012634-.979034-.018952-1.468567-1.600555-.54837-3.181205-1.16568-4.804679-1.634704-21.599106-6.240021-43.177636-12.554566-64.832993-18.593445-3.773903-1.052368-5.660217-2.536743-6.410282-6.639038-2.96427-16.212311-4.488563-32.382843.34248-48.451966 6.307067-20.978668 20.038894-36.01329 38.418933-47.313903 20.725186-12.742463 43.638546-18.564942 67.417035-21.629212 28.084236-3.619125 56.199546-3.556183 84.130729 1.153443 23.564438 3.973342 45.871628 11.615295 64.689179 27.005218 22.194732 18.151932 33.277649 42.337158 36.555481 70.348053.96466 8.243835 1.23117 16.608765 1.240997 24.918854.090057 76.156128.053009 152.312378.05304 228.468597v5.873718c1.762542 0 3.208191.0094 4.653717-.001342 26.491272-.196839 52.987609-.166138 79.470245-.754578 6.71814-.149353 13.588684-1.631592 20.048157-3.613098 16.007171-4.910339 24.718719-18.3172 25.644104-38.280121.169677-3.660156.172577-7.330261.172973-10.995758.008942-85.321625.028443-170.64328-.060211-255.964798-.004181-4.034424.89679-7.137634 3.655243-10.285706 9.43927-10.772583 18.597321-21.797317 27.641449-32.90596 2.027008-2.489669 4.068695-3.379684 7.175232-3.265442 6.145172.225998 12.304535.066727 18.931458.066727 0 75.090866 0 149.880325-.000031 225.169754m-411.375832 138.608277c4.6512.042114 9.348038.519958 13.944374.038452 10.60447-1.11084 19.886826-5.066956 24.26738-15.595032 5.46814-13.142029 5.417328-26.585114-.210685-39.728851-1.327454-3.100129-3.511719-6.045349-5.927079-8.427979-7.294693-7.195831-16.697189-8.359894-26.346046-8.169464-8.257507.162933-16.095497 1.647644-22.694924 7.34787-8.292366 7.162537-10.551345 16.760681-10.777107 26.891205-.428596 19.232483 6.243393 34.098999 27.744087 37.643799z" fill="#010101"/><path d="m860.165588 497.999908c-.044921-64.998138.138794-129.49768-.277099-193.993408-.121277-18.812164-4.216065-37.07901-14.039673-53.487793-13.137207-21.943908-33.750244-32.673752-58.168213-36.143829-21.947388-3.118942-43.953796-2.550949-64.99939 5.705933-24.749817 9.710205-39.338134 27.748413-42.722046 54.291809-1.742187 13.665557-1.497009 13.708252 10.679627 19.873443 17.65448 8.938629 35.356995 17.783753 52.942566 26.855744 3.343872 1.725006 6.657715 3.913726 9.255188 6.595733 5.434204 5.611298 5.490295 15.741974.403931 21.611237-.937378 1.081634-2.751038 1.600738-4.259949 1.957214-8.06781 1.906067-16.435364 2.915741-24.202759 5.647278-19.199768 6.751984-30.838257 20.696472-35.907959 40.31839-4.658691 18.031494-2.491943 36.355591-3.026428 53.588867 9.089905 0 17.741699-.668121 26.258545.120606 30.115905 2.789032 52.566711 26.269409 54.865844 56.592132.787842 10.391236.379639 20.638611-2.732177 30.649475-5.816407 18.711365-18.22992 30.988526-36.713806 37.143616-17.346314 5.776428-35.034058 6.229004-52.715149 2.083618-24.890686-5.835693-41.220337-24.547485-44.665528-50.933105-1.01062-7.73993-1.542724-15.5961-1.567566-23.401306-.093383-29.330262-.044555-58.663178.274353-87.991608.159485-14.665589 3.378235-28.733185 10.532654-41.703949 10.012207-18.152069 25.920838-29.093567 44.786682-36.322937 4.030274-1.544464 8.214661-2.683167 12.299927-4.090393.968689-.33374 1.824097-.996582 3.808045-2.114716-2.341065-.903503-3.579773-1.491913-4.880005-1.866974-22.084107-6.37033-44.145081-12.825775-66.295899-18.955993-3.773681-1.044373-5.312988-2.775605-6.015259-6.507386-3.080139-16.367919-4.546691-32.699676.432129-48.93988 6.43042-20.975067 20.311463-35.889618 38.714051-47.092087 19.86145-12.09053 41.743957-18.02623 64.509948-21.10466 30.24292-4.089447 60.516968-4.132354 90.543824 1.569947 24.521728 4.65686 47.38977 13.386856 66.015503 30.901046 17.450317 16.408966 27.10791 36.941681 30.514587 60.284714 1.699463 11.644775 2.069275 23.562775 2.09729 35.359436.177185 74.497742.089966 148.996155.089966 223.494324 0 1.792785-.000061 3.585632-.000061 5.836304 1.863159 0 3.314697.009582 4.766052-.001404 26.494202-.19989 52.992554-.199097 79.479492-.750916 6.39856-.133362 12.930481-1.513367 19.103333-3.331177 15.697693-4.622741 23.442321-16.142456 25.552307-31.797973.753418-5.590027 1.047973-11.281433 1.052124-16.926941.063598-85.997864.062744-171.995789-.02478-257.993576-.003418-3.390427.890747-5.896073 3.119628-8.468308 9.709229-11.204849 19.118287-22.669952 28.847046-33.857437 1.298462-1.49324 3.761475-2.634033 5.751099-2.743988 6.291138-.347671 12.613647-.128357 19.521484-.128357v5.029801c0 97.497619.010254 194.995208-.009765 292.492828-.003296 16.593811-1.539551 32.905243-8.830323 48.202484-8.640991 18.130066-23.318115 29.025269-42.314819 33.529175-12.712036 3.013977-25.906738 5.387207-38.912475 5.526062-58.325379.623108-116.660462.343323-174.992005.380981-.632202.000428-1.264465-.111328-2.075317-.187439 0-9.27362 0-18.339599 0-27.877929 2.65393 0 5.117554.100952 7.570495-.017578 10.020203-.484375 16.068543-6.335572 16.384156-16.415162.312744-9.98999.137634-19.99533.176574-30.493988m-158.755005 53.949067c19.937928-.872864 29.837952-9.214295 31.940979-28.480408.795044-7.283325-.103393-14.989044-1.58966-22.22287-1.792114-8.722778-7.303528-15.492737-15.850281-18.573151-5.062622-1.824646-10.667969-2.71936-16.068298-2.906738-10.011048-.347259-19.66803 1.361023-27.010254 9.164642-11.690186 12.424866-11.804321 40.770966-.239746 53.345185 7.531677 8.189331 17.435669 9.737732 28.81726 9.67334z" fill="#010101"/><path d="m1681.762085 301.094421c.033203 58.319611.175659 116.152558-.008423 173.984436-.053589 16.843903-1.453003 33.620209-8.080566 49.457398-10.3302 24.685303-29.707886 38.458923-55.072388 43.835022-32.169067 6.818298-64.515869 7.06427-96.492432-1.478638-27.578247-7.367737-42.764526-25.144165-45.026123-53.711853-1.33789-16.898895-.790283-33.947296-1.079101-50.92868-.036743-2.160889-.005005-4.322937-.005005-6.034668-7.78833.725982-15.469849 2.267395-23.091553 2.013214-38.25708-1.27594-62.662109-26.716278-62.901245-64.98523-.209473-33.515045 21.873657-58.779235 55.282837-63.190002 17.056396-2.251831 33.910156-1.958618 50.150268 4.599884 21.894654 8.842133 33.223511 25.786865 36.428223 48.558533 1.01648 7.223541 1.186157 14.603759 1.255005 21.91687.326172 34.658935.439453 69.319916.766846 103.978851.034057 3.618958.659912 7.311096 1.55896 10.829285 3.378051 13.2182 12.174682 20.734253 25.4729 22.752685 12.126587 1.840638 24.250733 1.482605 36.160767-1.807434 13.66333-3.774353 22.119507-12.772094 24.830444-26.524658 1.567749-7.953033 2.459229-16.174988 2.471191-24.277679.097779-66.330994.083008-132.663361-.302734-198.99292-.0896-15.404724-3.078857-30.468079-10.998169-44.09607-8.108398-13.953231-20.168945-22.979248-35.607788-27.072937-28.697754-7.609298-57.586182-8.381561-86.273193-.072448-25.066895 7.260543-37.528931 25.707336-42.082764 50.225311-1.663208 8.95459-2.039673 18.148163-3.085083 28.005005-15.386108-1.214508-31.532593.021271-44.714966-10.855683-11.165649-9.213012-11.683472-21.977691-9.684082-34.839721 3.165527-20.363587 16.290283-33.7314 32.98523-44.090256 20.625122-12.797562 43.596191-18.767166 67.329834-22.134247 26.053222-3.696152 52.235107-3.682587 78.234863-.114685 14.94104 2.050354 29.600464 6.146957 44.390747 9.304031 16.174805 3.452637 32.401733 4.275254 48.436768-.406539 17.613647-5.142655 26.336792-16.292649 27.946167-34.688248.040649-.464722.244018-.915238.625-2.28183 7.317138.9552 14.724731 1.658188 22.034301 2.925766 22.196533 3.849182 26.215332 24.487366 21.815186 39.278961-3.714966 12.489075-12.80481 19.559418-24.330445 23.904556-15.247192 5.748108-31.206298 6.37291-47.283203 5.807709-1.868408-.065674-3.757324.450333-5.636718.69664.737793 1.725357 1.168823 3.67952 2.259643 5.141434 14.369385 19.256882 20.466797 41.198761 21.320801 65.368835m-192.744385 116.328431c4.752442-6.646882 5.993286-14.295777 6.332031-22.201081.860352-20.068451-9.598999-33.625946-28.301513-36.686828-22.334961-3.655365-38.660645 6.063629-42.42688 26.569458-4.155029 22.622772 4.468262 45.092254 33.378662 45.241851 11.832886.061249 22.931396-1.921356 31.0177-12.9234z" fill="#010101"/><path d="m1882.165039 471.002319c0-5.447937 0-10.396148 0-15.795654-11.519775 3.611908-22.818603 4.233704-34.05481 2.196442-37.531738-6.804901-54.967285-38.167878-51.420654-71.209961 3.444458-32.090424 24.362183-52.455872 56.408081-56.307495 16.428711-1.974579 32.602173-1.569825 48.188599 4.595337 21.508179 8.507507 33.114868 24.938934 36.602905 47.310333 1.174317 7.532104 1.482788 15.253906 1.549317 22.894562.299316 34.322418.319946 68.647277.588745 102.970062.030883 3.954437.632812 7.986999 1.571777 11.83667 3.221313 13.208679 11.780762 20.981445 25.135986 23.110351 11.605957 1.850037 23.258545 1.743897 34.697022-1.277771 17.732055-4.684326 26.451294-15.661255 28.465942-35.833099.595215-5.959778.887573-11.974518.893799-17.964508.06311-61.155975.043213-122.312042.0354-183.468079-.001953-14.868286-1.032104-29.587921-5.666015-43.883117-6.796143-20.965241-20.75647-34.693955-41.91687-40.369141-28.333008-7.598969-56.964112-8.220825-85.310547-.170288-25.679444 7.29303-38.308106 26.221817-42.77002 51.358032-1.534301 8.644043-1.885254 17.498108-2.859008 27.064209-14.040162-.803162-28.592286-.476227-41.508667-8.292236-9.530396-5.76706-13.237061-15.103913-13.670167-25.782349-.703125-17.335037 5.732056-31.854767 18.218628-43.725387 16.429078-15.618409 36.595093-24.066056 58.200684-29.229081 48.150635-11.506469 96.051514-9.646728 143.690674 3.403244 16.140747 4.421494 32.614746 5.274537 48.943603 1.386948 15.888916-3.782822 29.850098-12.944168 31.13501-37.065414 9.83252-.36969 19.561279.317245 28.822022 3.91481 13.269531 5.154983 19.700683 19.085327 16.432373 34.202957-3.06128 14.161179-12.389649 22.40686-25.268555 27.215912-15.423828 5.759552-31.535645 6.396683-47.781982 5.790802-1.797852-.067047-3.627686.729675-5.442872 1.125793.796387 1.551071 1.378174 3.266526 2.421631 4.628388 13.855469 18.084594 20.946045 38.883804 21.185791 61.266555.644532 60.149109.289307 120.309327.254395 180.465088-.009277 16.085938-1.96167 31.94159-8.007324 46.962647-9.682129 24.055054-28.466553 37.440857-52.91272 43.58374-21.202881 5.32782-42.8844 6.402771-64.506714 4.378174-13.477539-1.261963-27.168823-3.453735-40.013916-7.569702-24.64209-7.895935-37.388794-26.284241-39.331909-51.770935-1.049072-13.76117-.71167-27.627991-.999634-41.946839m-45.824219-100.084503c-7.699218 12.505097-8.463501 25.943237-3.762451 39.366882 5.137573 14.670014 17.102661 19.709382 31.809082 20.145936 16.601807.492828 28.779541-5.863739 34.061035-19.081574 1.872437-4.686157 2.907105-9.986389 3.03772-15.039551.492554-19.056152-6.633545-34.4823-28.105225-37.652832-13.834716-2.042877-27.005249-.360718-37.040161 12.261139z" fill="#010101"/><path d="m1544.980469 691.047363c5.627197 10.114929 11.061767 19.929199 16.65393 30.028443 12.20691-6.266297 25.398316-12.939881 38.477295-19.827149 2.937867-1.547058 5.171021-1.580139 8.111817.170716 12.142456 7.228942 24.44812 14.184997 36.733032 21.17218 1.637573.931396 3.500244 1.467102 5.766479 2.393676 0-12.70581 0-24.612731 0-36.94342-4.874145.430603-9.724975 1.128845-14.588745 1.237915-14.251709.319702-27.565307-2.713257-38.23938-12.830444-13.73999-13.023255-16.339477-29.344483-11.974121-46.87677 4.082764-16.397644 15.908692-25.026184 31.806153-28.91156 15.393066-3.762207 30.731323-3.33075 45.95105.601684 20.409057 5.273194 33.274536 20.687805 33.870971 42.325257.716187 25.977722.274903 51.98822.209961 77.984253-.003662 1.479064-.854492 3.166076-1.784424 4.399169-6.719238 8.90802-13.470825 17.795899-20.454101 26.496033-1.122071 1.397949-3.448853 1.831543-5.226074 2.695862-.134766.065552-.331177-.009216-.49524.011414-12.921875 1.620178-24.392212-1.602295-35.190796-9.035889-8.045044-5.538147-17.061645-9.647644-25.485717-14.662109-2.912842-1.734009-5.142579-1.861817-8.136963-.128663-10.643921 6.161072-21.717408 11.613709-32.128662 18.132386-7.896485 4.944214-15.942627 7.056579-25.544556 5.110473-4.796875-16.296142-11.609863-32.246643-22.001587-47.331115-.990479 2.079345-1.871338 3.728942-2.581665 5.449035-14.377808 34.809693-45.204956 48.366699-79.654419 45.683106-15.852173-1.234742-30.549438-5.686585-43.130493-16.307862-22.729492-19.188537-25.026978-63.67688 7.236938-82.776245 14.029908-8.305237 29.356568-11.298645 45.312744-12.19281 14.26587-.799438 28.191895 1.323731 42.887208 5.410706-.611084-10.887268-1.190308-21.204285-1.815552-32.344055 7.467407.798217 14.968872 1.001953 22.199219 2.507812 11.964721 2.491882 16.56665 9.201477 17.045166 23.978821.242187 7.479858-.38501 14.984924-.302735 22.475098.020508 1.878906.818604 4.113586 2.018677 5.550598 4.586059 5.49115 9.481933 10.723694 14.45459 16.353454m-92.208863-21.04834c-15.675781 3.39386-26.441894 11.706177-29.484375 28.400574-3.144897 17.256409 5.927613 32.276734 21.793824 35.344727 12.559692 2.42865 25.545166-3.890076 33.001953-15.777771 7.091553-11.305725 9.569092-23.917908 11.236084-36.865479.338135-2.626159-.259888-3.847351-2.469238-5.029419-10.441163-5.586609-21.445313-7.921386-34.078248-6.072632m202.721924-4.795898c9.088013-5.780823 12.695435-15.306946 10.374146-27.395386-1.846192-9.614013-7.96875-16.123413-18.408814-17.643921-6.098755-.888305-12.651489-.756591-18.685547.466797-10.95935 2.222168-16.709228 10.73877-16.762329 22.783997-.054809 12.476562 5.637452 20.690246 16.439087 23.743713 8.975464 2.537049 17.743653 1.823731 27.043457-1.9552z" fill="#020202"/><path d="m450.197327 725.172607c-17.500306 8.782837-35.893647 13.225708-54.773316 15.749512-24.229217 3.238831-48.562225 3.457214-72.74881-.018555-25.077972-3.603881-49.143615-10.224975-69.50769-26.582885-21.785278-17.499573-29.944489-48.171509-19.286972-73.911866 4.844116-11.699707 13.324875-20.126892 24.845657-24.704406 20.912995-8.309204 41.993775-8.294495 62.359528 2.019226 15.486633 7.842834 23.793457 21.194214 25.628967 38.115173 1.578858 14.555054-.212768 28.789795-10.547149 40.318176-3.510651 3.916199-8.048279 6.915589-12.143158 10.30188-1.09134.902588-2.281098 1.686096-4.866089 3.579041 6.143982 1.38678 10.78598 2.712829 15.5195 3.455993 23.465455 3.684327 46.626252 2.574097 68.697266-6.742736 27.233643-11.496094 42.071198-32.22168 43.435028-62.00885.371613-8.116639.056397-16.264649.056397-24.719239 11.775329-.407409 23.00766.067261 33.800598 3.869934 9.739074 3.431336 15.096588 10.850586 16.3703 20.815979 3.896423 30.484986-7.371948 54.361023-32.358337 71.881043-4.480683 3.141662-9.418549 5.631348-14.48172 8.58258m-172.513398-90.207336c-13.006622 3.527344-20.880401 15.060425-20.477356 29.993896.432557 16.025025 8.526185 26.274109 23.146088 29.310059 15.54129 3.227295 29.26181-2.829651 34.835602-15.378235 6.163208-13.87561 2.19107-31.818359-8.975861-39.748962-8.460083-6.00824-17.960296-6.121704-28.528473-4.176758z" fill="#020202"/><path d="m2022.060791 766.950562c0-16.792786 0-33.094239 0-48.537476-9.31665-.587219-18.44873.010986-27.000732-1.936951-20.123047-4.583435-32.928101-17.540405-37.305054-37.827697-4.262329-19.756775-2.318359-38.515931 12.137451-54.154786 8.13501-8.801147 18.707031-13.093567 30.373047-14.738159 14.20227-2.002197 28.269531-1.494507 41.717529 4.018982 22.102906 9.061829 31.508911 26.642273 31.816284 49.574524.345948 25.816528.136475 51.64148-.006591 77.461792-.010743 1.935181-.994141 4.218689-2.253663 5.735779-7.977294 9.60907-16.134765 19.069275-24.308593 28.513061-.920899 1.063965-2.292481 2.410096-3.493286 2.449097-7.100464.230652-14.212159.113709-21.676514.113709 0-3.891602 0-7.036072.000122-10.671875m-23.233765-77.074708c2.834961.918702 5.610962 2.138855 8.514649 2.705445 14.786255 2.885132 28.272705-3.60315 32.644165-16.34607 1.674194-4.880493 2.061523-10.422973 1.972046-15.645568-.241333-14.086243-7.800904-23.572815-21.429566-26.010071-16.418823-2.936218-30.750122 2.620422-34.188842 19.710571-1.181519 5.872315-.869507 12.276123-.025391 18.26593 1.034912 7.343262 5.061279 13.286072 12.512939 17.319763z" fill="#c57035"/><path d="m1073.425049 619.528809c13.218506 9.455688 20.142212 22.258056 20.516601 37.894348.665162 27.792968.540894 55.605774.598877 83.410522.003785 1.791626-.838745 3.930847-1.993164 5.323548-8.180542 9.869201-16.51355 19.613342-24.899292 29.309631-.881714 1.019348-2.404541 2.048889-3.659546 2.086609-6.790649.203796-13.590454.096557-20.901611.096557 0-20.357788 0-40.251281 0-60.393188-11.29834 1.271057-21.973694 1.469543-32.448364-2.102905-18.919983-6.452515-32.750611-24.244019-33.526062-44.187378-.282715-7.269043-.299927-14.747376 1.060303-21.842957 3.669006-19.138489 15.099731-32.084045 33.993408-37.249084 21.164123-5.785828 41.814392-4.608094 61.25885 7.654297m-12.196167 31.972534c-7.435059-18.261597-32.516236-24.185913-46.89386-10.694947-8.872742 8.325501-9.444885 19.289063-7.546875 30.565125 2.003296 11.901672 9.130249 18.775208 20.831848 21.171875 17.71106 3.627441 32.311157-5.657654 34.894776-23.023499.830566-5.582763-.602051-11.502319-1.285889-18.018554z" fill="#c57035"/><g fill="#fdfdfd"><path d="m87.692238 551.539978c-21.066994-3.476196-27.738983-18.342712-27.310387-37.575195.225762-10.130524 2.484741-19.728668 10.777107-26.891205 6.599427-5.700226 14.437417-7.184937 22.694924-7.34787 9.648857-.19043 19.051353.973633 26.346046 8.169464 2.41536 2.38263 4.599625 5.32785 5.927079 8.427979 5.628013 13.143737 5.678825 26.586822.210685 39.728851-4.380554 10.528076-13.66291 14.484192-24.26738 15.595032-4.596336.481506-9.293174.003662-14.378074-.107056z"/><path d="m700.932983 551.9646c-10.903991.048767-20.807983-1.499634-28.33966-9.688965-11.564575-12.574219-11.45044-40.920319.239746-53.345185 7.342224-7.803619 16.999206-9.511901 27.010254-9.164642 5.400329.187378 11.005676 1.082092 16.068298 2.906738 8.546753 3.080414 14.058167 9.850373 15.850281 18.573151 1.486267 7.233826 2.384704 14.939545 1.58966 22.22287-2.103027 19.266113-12.003051 27.607544-32.418579 28.496033z"/><path d="m1488.794434 417.710205c-7.863038 10.714691-18.961548 12.697296-30.794434 12.636047-28.9104-.149597-37.533691-22.619079-33.378662-45.241851 3.766235-20.505829 20.091919-30.224823 42.42688-26.569458 18.702514 3.060882 29.161865 16.618377 28.301513 36.686828-.338745 7.905304-1.579589 15.554199-6.555297 22.488434z"/><path d="m1836.565918 370.632568c9.809814-12.336609 22.980347-14.018768 36.815063-11.975891 21.47168 3.170532 28.597779 18.59668 28.105225 37.652832-.130615 5.053162-1.165283 10.353394-3.03772 15.039551-5.281494 13.217835-17.459228 19.574402-34.061035 19.081574-14.706421-.436554-26.671509-5.475922-31.809082-20.145936-4.70105-13.423645-3.936767-26.861785 3.987549-39.65213z"/><path d="m1453.196289 669.937744c12.208252-1.787475 23.212402.547302 33.653565 6.133911 2.20935 1.182068 2.807373 2.40326 2.469238 5.029419-1.666992 12.947571-4.144531 25.559754-11.236084 36.865479-7.456787 11.887695-20.442261 18.206421-33.001953 15.777771-15.866211-3.067993-24.938721-18.088318-21.793824-35.344727 3.042481-16.694397 13.808594-25.006714 29.909058-28.461853z"/></g><path d="m1655.143066 665.359497c-8.94934 3.622559-17.717529 4.335877-26.692993 1.798828-10.801635-3.053467-16.493896-11.267151-16.439087-23.743713.053101-12.045227 5.802979-20.561829 16.762329-22.783997 6.034058-1.223388 12.586792-1.355102 18.685547-.466797 10.440064 1.520508 16.562622 8.029908 18.408814 17.643921 2.321289 12.08844-1.286133 21.614563-10.72461 27.551758z" fill="#fcfcfc"/><path d="m278.097565 634.882874c10.154541-1.862549 19.654754-1.749085 28.114837 4.259155 11.166931 7.930603 15.139069 25.873352 8.975861 39.748962-5.573792 12.548584-19.294312 18.60553-34.835602 15.378235-14.619903-3.03595-22.713531-13.285034-23.146088-29.310059-.403045-14.933471 7.470734-26.466552 20.890992-30.076293z" fill="#fdfdfd"/><path d="m1998.498657 689.689575c-7.123291-3.847412-11.149658-9.790222-12.18457-17.133484-.844116-5.989807-1.156128-12.393615.025391-18.26593 3.43872-17.090149 17.770019-22.646789 34.188842-19.710571 13.628662 2.437256 21.188233 11.923828 21.429566 26.010071.089477 5.222595-.297852 10.765075-1.972046 15.645568-4.37146 12.74292-17.85791 19.231202-32.644165 16.34607-2.903687-.56659-5.679688-1.786743-8.843018-2.891724z" fill="#fffefe"/><path d="m1061.37207 651.876709c.54065 6.140869 1.973267 12.060425 1.142701 17.643188-2.583619 17.365845-17.183716 26.65094-34.894776 23.023499-11.701599-2.396667-18.828552-9.270203-20.831848-21.171875-1.89801-11.276062-1.325867-22.239624 7.546875-30.565125 14.377624-13.490966 39.458801-7.56665 47.037048 11.070313z" fill="#fffefd"/></svg>