<svg enable-background="new 0 0 1504 328" viewBox="0 0 1504 328" xmlns="http://www.w3.org/2000/svg"><path d="m1025 329c-341.666626 0-682.833282 0-1023.999954 0-.000015-109.333313-.000015-218.666611-.000031-327.999939 501.333267-.000021 1002.66655-.000021 1503.999985-.000041v327.999888c-159.833374.000092-319.666626.000092-480 .000092m-661.248016-155.499908c0-38.783936 0-77.567879 0-116.695969-9.455506 0-18.506562 0-27.900727 0 0 6.737587.000061 13.218796 0 19.700005-.00058 56.141777.016877 112.283576-.016998 168.425315-.006775 11.240082-3.881561 15.057801-14.963287 15.065003-15.659729.010132-31.319458.002533-46.979187.002533-1.573304 0-3.146576 0-4.824952 0 0-10.281891.005951-19.77417-.001129-29.266464-.020416-27.320832.953369-54.689316-.345947-81.949341-1.345581-28.231263-25.742721-36.70929-47.84758-28.44262-11.202804 4.189583-17.08876 18.416909-14.907059 31.467202 1.795838 10.742157 11.705185 19.970138 23.412949 21.358627 4.018997.476639 8.142075.075729 12.172836.075729v86.911438c-4.796203 0-9.242019 0-13.908081 0v20.535706c.785874.13623 1.268402.29303 1.750931.29306 35.484055.002289 70.968124-.002014 106.452164-.035217 1.658813-.001526 3.331604-.176514 4.973663-.428528 10.173798-1.561432 17.940125-6.478882 20.73407-16.791656 1.45993-5.388642 2.053131-11.154053 2.104126-16.757782.219849-24.153962.094116-48.311066.094208-73.467041m991.128021-5.832093c7.33374 6.019715 15.922974 6.72229 25.120727 5.515534.083252 1.480758.201416 2.618774.203003 3.756973.014283 10.314728.008301 20.629501.008301 29.584106-7.868286 3.517579-15.501465 5.786683-21.832031 10.008667-11.598755 7.735352-13.799194 20.049881-13.466187 33.08928.502686 19.679107 13.087525 33.109893 32.632935 33.69934 20.496826.618195 31.528931-6.755889 30.513184-28.774902-.359375-7.788788-.057496-15.608078-.057496-23.657776 1.554932.237946 2.720093.303742 3.822388.601959 14.521484 3.928894 25.223023 13.063233 33.710449 25.067933 4.319825 6.109893 8.268555 12.481048 12.531861 18.632385 2.810547 4.055115 5.990112 7.264618 11.757568 6.961639 12.919312-.678711 22.003906-10.063019 22.10376-24.694305.308349-45.161957.257812-90.326401.333374-135.489899.001098-.64859-.171875-1.29747-.284302-2.092865-8.963745 0-17.825317 0-26.914429 0v5.888168c-.000122 36.499161.025879 72.998383-.049804 109.497376-.006104 2.94844-.710694 5.895447-1.268677 10.223053-17.654663-15.094345-31.598389-33.097656-55.742188-34.64563 0-2.096069.000122-3.738632.000122-5.381195-.000366-17.999588-.00415-35.999161.000733-53.998749.001953-7.297088-1.381104-14.26387-5.470825-20.414429-8.647339-13.004722-22.391846-15.370323-37.753174-12.461555-11.09729 2.101349-16.770752 10.576088-19.251831 20.72538-2.619995 10.718018-.085205 20.473328 9.352539 28.359512m-1257.579994-151.405254c-6.088066-1.645857-12.218651-3.150401-18.255547-4.966354-13.457474-4.04813-26.710247-4.261891-40.12722.561531-20.345228 7.314144-31.22489 21.441284-31.464945 42.145778 2.724028.326287 5.497993.644459 8.268167.992771 12.844927 1.615082 25.839009 2.496643 37.889634 7.936146 7.043251 3.179238 10.546608 8.062111 10.512039 16.297341-.236431 56.330513.154198 112.664619-.27483 168.992851-.14986 19.676086 14.748798 40.129455 40.932758 34.056091 13.523156-3.136719 22.039368-12.422455 22.490159-26.467346.443054-13.804215-7.566826-24.824554-20.815529-27.809906-4.745697-1.069351-9.771469-.895752-15.101677-1.324204 0-7.17517.010605-14.481826-.001725-21.788467-.075332-44.663147-.188064-89.326279-.206466-133.989456-.003525-8.551342-3.934944-14.599548-11.188111-18.621704-3.035347-1.683224-6.210907-3.291367-9.518806-4.272625-10.70562-3.175736-21.502182-6.044899-32.321491-9.048207 2.928314-7.468841 8.628132-11.952711 16.853527-12.116035 5.886963-.116892 11.966026.368616 17.663162 1.780588 9.807602 2.430708 19.279617 6.210459 29.081833 8.669077 15.885765 3.98452 30.649712-2.185799 39.974495-16.216247-6.381836-4.097332-12.757889-8.19095-19.350426-12.423568-6.437752 8.426217-14.66745 10.359227-25.039001 7.611945m912.836464 140.28381c.871032 6.729873 2.44104 13.454193 2.494751 20.190597.26184 32.822037.118469 65.647308.118469 98.471436 0 1.783966-.000061 3.567932-.000061 5.445007h27.143677c0-38.494141.311645-76.643539-.134888-114.784073-.215088-18.373337-10.095093-31.625748-25.642578-40.644203-13.771546-7.988289-29.115601-8.541374-44.510742-8.504822-13.447388.031929-26.320191 2.800186-37.29657 10.62497-10.375855 7.396583-19.911621 15.973045-29.77356 24.08329-.414917.341186-.490051 1.205841-.555847 1.843918-.541077 5.248947-1.042603 10.501998-1.590576 16.106857 10.601318 1.300674 20.762573 2.547348 31.020508 3.805878-3.168763 1.937881-6.196412 3.347244-8.692261 5.402435-6.36377 5.240372-7.576111 12.610473-7.583923 20.302994-.026307 25.826049-.014344 51.65216.000732 77.478241.000854 1.441955.161011 2.883819.250854 4.389343h27.004456c0-2.037995 0-3.835694 0-5.633362.000061-24.326508-.044189-48.653198.046082-72.97937.014099-3.803467.107299-7.748215 1.085998-11.379089 2.577576-9.562577 9.238037-14.555863 19.19989-15.095459.573609-4.554154 1.103211-8.75911 1.661682-13.19368-13.484436-2.089722-26.384582-4.088883-39.867004-6.178284.961365-1.166748 1.408081-1.824142 1.965271-2.368408 17.534668-17.127838 38.35968-22.320343 62.013367-16.908463 10.444519 2.389679 17.980407 8.292664 21.642273 19.524247m201.301391-15.552124c9.27356 1.657196 18.509888 4.384491 27.829956 4.710296 12.657227.442429 23.408203-7.393844 26.597168-17.42128-6.544555-3.395263-13.127563-6.81044-19.857544-10.301918-6.557861 8.83564-15.608032 9.222023-24.917846 7.478722-8.308106-1.555718-16.392579-4.298775-24.696167-5.88784-25.663208-4.911118-49.099854 2.841308-59.190186 31.680198-2.280029 6.516709-3.756836 13.255432-2.981323 18.894074 16.309692 1.14122 31.756836 1.678924 47.050903 3.501358 8.799561 1.048553 17.465332 3.814377 25.976807 6.4897 6.249634 1.964356 10.919678 6.661728 11.278686 13.353806.602173 11.220962.164795 22.49768.164795 33.525726-3.151611 0-5.987915-.128693-8.809082.022812-10.902099.585419-19.305176 5.558273-23.652344 15.589355-4.267822 9.84758-3.864379 19.873978 2.742188 28.852372 7.326416 9.956634 21.403809 14.330139 34.099609 10.953399 12.416382-3.302399 22.282471-13.760193 22.886231-26.55487.90979-19.281235.604736-38.618424.899658-57.930542.203369-13.324494-5.743896-22.83046-17.385376-29.094254-11.149536-5.999145-23.228027-8.94165-35.575806-10.788391-10.581909-1.582611-21.256958-2.540772-32.177246-3.80835 3.1698-8.456085 9.076172-13.827835 17.599488-16.197097 10.740478-2.985611 21.083984-.496857 32.117431 2.932724m-625.529663-6.655198c1.116516-1.801361 2.233032-3.602722 3.558411-5.741058-7.111695-3.684029-13.804993-7.151329-20.507996-10.623657-6.618896 8.867164-15.558349 9.192055-24.670898 7.522705-8.475952-1.552719-16.718079-4.355408-25.177735-6.028305-21.258209-4.203789-44.857147 1.030311-55.931732 24.734436-4.043121 8.6539-6.721557 17.541397-5.919006 26.077774 15.592987.979278 30.562347 1.315002 45.363586 3.06926 9.296906 1.101867 18.453095 3.968429 27.462494 6.7285 6.686463 2.048431 11.265015 7.133682 11.626038 14.220856.55664 10.928177.146545 21.905594.146545 32.713272-3.180969 0-6.000732-.120636-8.80719.021515-10.451355.529388-18.629211 5.054657-23.294403 14.572265-4.704437 9.597626-4.459106 19.412766 1.244019 28.541855 6.588409 10.546326 21.280182 15.648193 34.463531 12.518555 12.478394-2.96228 22.909546-13.734711 23.471131-26.63913.904357-20.783478.894348-41.623413.654602-62.432403-.107605-9.336502-4.982178-16.733841-12.773804-22.036866-10.404419-7.081298-22.232727-10.447204-34.398377-12.473098-12.375152-2.060761-24.876495-3.364167-38.684661-5.178147 3.380737-4.031585 6.015106-8.320282 9.696502-11.327057 7.926209-6.4738 17.534912-6.915008 27.052674-5.01033 9.098083 1.820694 17.945983 4.859589 27.009948 6.889603 14.166626 3.172821 27.54657 2.49144 38.416321-10.120545m228.708679 129.560456c5.292908-23.613587-8.570739-38.464707-34.647033-36.589051 0-35.785354 0-71.541824 0-107.563293-9.367676 0-18.274781 0-27.70105 0v5.644081c0 39.161263-.020508 78.322563.029053 117.483772.005493 4.320572.235595 8.658356.665954 12.957688 1.32013 13.188751 12.490662 25.644226 24.914978 27.060089 16.864136 1.921844 30.783264-2.864319 36.738098-18.993286m-136.56604-56.399689c.000122 13.497314-.250854 27.001617.123902 40.488525.150024 5.398178.805114 11.097931 2.741638 16.072022 5.94989 15.282898 19.444458 21.378052 38.090088 18.033142 12.417663-2.227661 21.442077-12.42749 21.976379-24.838867.626465-14.552078-6.916992-26.020981-19.809875-29.101883-5.028565-1.201645-10.38031-1.050873-16.039551-1.556732 0-35.536698 0-71.11847 0-106.819855-9.214417 0-17.971375 0-27.082581 0zm187.93512-4c0-48.734467 0-97.468933 0-146.154068-6.321777 0-11.903381 0-17.660889 0v261.002823h17.660889c0-38.2323 0-76.040527 0-114.848755m221.147949-82.000008c0 63.445168-.000122 126.890328.000122 190.335488 0 1.332184-.380981 2.8349.112427 3.950012.524902 1.186523 1.829834 2.784698 2.880615 2.851929 4.770874.305175 9.572266.133636 14.624634.133636 0-87.452988 0-174.419739 0-261.758819-4.433716 0-8.590698.277641-12.692871-.077919-4.119263-.35706-5.036255 1.271484-5.002808 5.116882.169434 19.481682.078003 38.965629.077881 59.448791m-659.073303 191.844674c0-85.352189 0-170.704377 0-256.33252-4.359528 0-8.041901.332062-11.638977-.080055-5.034363-.576782-6.422913 1.086563-6.411987 6.257107.17575 83.267375.12265 166.535244.134094 249.80299.000244 1.762512.149872 3.525054.238922 5.489105h17.426727c.095123-1.582093.173157-2.880493.251221-5.136627m-271.926804-250.621758v255.746544h17.536118c0-87.287537 0-174.264191 0-261.457188-4.541 0-8.710343.237301-12.839264-.069435-3.821137-.283867-5.237244 1.174973-4.696854 5.780079m1135.509384 103.777031v151.908936h17.458619c0-87.20517 0-174.048615 0-261.056027-5.86316 0-11.417359 0-17.458863 0 0 36.270435 0 72.208752.000244 109.147091m-659.234985-73.999847c0-11.727494 0-23.454979 0-35.20794-6.289062 0-11.711182 0-17.317322 0v261.178734h17.317749c0-75.188797 0-150.079788-.000427-225.970794z" fill="#fffefe"/><path d="m363.751953 174.000092c-.000061 24.655975.125672 48.813079-.094177 72.967041-.050995 5.603729-.644196 11.36914-2.104126 16.757782-2.793945 10.312774-10.560272 15.230224-20.73407 16.791656-1.642059.252014-3.31485.427002-4.973663.428528-35.48404.033203-70.968109.037506-106.452164.035217-.482529-.00003-.965057-.15683-1.750931-.29306 0-6.729462 0-13.463379 0-20.535706h13.908081c0-29.056381 0-57.776046 0-86.911438-4.030761 0-8.153839.40091-12.172836-.075729-11.707764-1.388489-21.617111-10.61647-23.412949-21.358627-2.181701-13.050293 3.704255-27.277619 14.907059-31.467202 22.104859-8.26667 46.501999.211357 47.84758 28.44262 1.299316 27.260025.325531 54.628509.345947 81.949341.00708 9.492294.001129 18.984573.001129 29.266464h4.824952c15.659729 0 31.319458.007599 46.979187-.002533 11.081726-.007202 14.956512-3.824921 14.963287-15.065003.033875-56.141739.016418-112.283538.016998-168.425315.000061-6.481209 0-12.962418 0-19.700005h27.900727c0 39.12809 0 77.912033-.000031 117.195969m-128.555694-39.994187c-1.1633.032837-2.359787-.099304-3.484177.126923-4.972412 1.000458-9.082977 5.742141-9.565384 10.892257-.436707 4.662201 2.888931 9.920868 7.516876 11.886124 4.541916 1.928726 9.621094.64595 13.06781-3.300323 5.969513-6.834748 2.861145-15.863694-7.535125-19.604981z" fill="#353535"/><path d="m1354.610596 167.429047c-9.168335-7.647232-11.703125-17.402542-9.08313-28.12056 2.481079-10.149292 8.154541-18.624031 19.251831-20.72538 15.361328-2.908768 29.105835-.543167 37.753174 12.461555 4.089721 6.150559 5.472778 13.117341 5.470825 20.414429-.004883 17.999588-.001099 35.999161-.000733 53.998749 0 1.642563-.000122 3.285126-.000122 5.381195 24.143799 1.547974 38.087525 19.551285 55.742188 34.64563.557983-4.327606 1.262573-7.274613 1.268677-10.223053.075683-36.498993.049682-72.998215.049804-109.497376 0-1.824073 0-3.64814 0-5.888168h26.914429c.112427.795395.2854 1.444275.284302 2.092865-.075562 45.163498-.025025 90.327942-.333374 135.489899-.099854 14.631286-9.184448 24.015594-22.10376 24.694305-5.767456.302979-8.947021-2.906524-11.757568-6.961639-4.263306-6.151337-8.212036-12.522492-12.531861-18.632385-8.487426-12.0047-19.188965-21.139039-33.710449-25.067933-1.102295-.298217-2.267456-.364013-3.822388-.601959 0 8.049698-.301879 15.868988.057496 23.657776 1.015747 22.019013-10.016358 29.393097-30.513184 28.774902-19.54541-.589447-32.130249-14.020233-32.632935-33.69934-.333007-13.039399 1.867432-25.353928 13.466187-33.08928 6.330566-4.221984 13.963745-6.491088 21.832031-10.008667 0-8.954605.005982-19.269378-.008301-29.584106-.001587-1.138199-.119751-2.276215-.203003-3.756973-9.197753 1.206756-17.786987.504181-25.390136-5.754486m8.279541-15.09256c1.036865 1.067077 1.957641 2.288086 3.130981 3.174499 4.930786 3.724518 11.683472 2.721146 16.002075-2.276382 4.02356-4.656113 3.841553-10.765289-.455078-15.275757-4.282959-4.496094-10.467041-5.285324-15.321777-1.955475-5.445191 3.734909-6.755982 9.094727-3.356201 16.333115m2.67041 102.238052c1.356079 2.61528 2.210571 5.764878 4.236328 7.666763 1.463013 1.373383 4.682983 1.838715 6.741943 1.290741 1.490845-.396759 3.299683-3.088378 3.355957-4.809326.319825-9.777618.154908-19.571075.154908-29.469696-4.897217-.961654-8.251831.947525-11.012574 4.468842-4.738159 6.043167-4.431152 12.994339-3.476562 20.852676z" fill="#353535"/><path d="m97.700073 16.396317c9.971489 2.61371 18.201187.6807 24.638939-7.745517 6.592537 4.232618 12.96859 8.326236 19.350426 12.423568-9.324783 14.030448-24.08873 20.200767-39.974495 16.216247-9.802216-2.458618-19.274231-6.238369-29.081833-8.669077-5.697136-1.411972-11.776199-1.89748-17.663162-1.780588-8.225395.163324-13.925213 4.647194-16.853527 12.116035 10.819309 3.003308 21.615871 5.872471 32.321491 9.048207 3.307899.981258 6.483459 2.589401 9.518806 4.272625 7.253167 4.022156 11.184586 10.070362 11.188111 18.621704.018402 44.663177.131134 89.326309.206466 133.989456.01233 7.306641.001725 14.613297.001725 21.788467 5.330208.428452 10.35598.254853 15.101677 1.324204 13.248703 2.985352 21.258583 14.005691 20.815529 27.809906-.450791 14.044891-8.967003 23.330627-22.490159 26.467346-26.18396 6.073364-41.082618-14.380005-40.932758-34.056091.429028-56.328232.038399-112.662338.27483-168.992851.034569-8.23523-3.468788-13.118103-10.512039-16.297341-12.050625-5.439503-25.044707-6.321064-37.889634-7.936146-2.770174-.348312-5.544139-.666484-8.268167-.992771.240055-20.704494 11.119717-34.831634 31.464945-42.145778 13.416973-4.823422 26.669746-4.609661 40.12722-.561531 6.036896 1.815953 12.167481 3.320497 18.655609 5.099926m3.374008 226.661163c-1.164039-.005264-2.34925-.156204-3.488449.009399-4.99234.725708-9.35292 5.183426-10.195984 10.305069-.748863 4.549286 2.315361 10.057221 6.836052 12.287873 4.632691 2.285919 9.924797 1.223022 13.645737-2.740632 6.324844-6.737426 3.59671-15.690246-6.797356-19.861709z" fill="#343434"/><path d="m1010.043213 156.159042c-3.568604-10.84407-11.104492-16.747055-21.549011-19.136734-23.653687-5.41188-44.478699-.219375-62.013367 16.908463-.55719.544266-1.003906 1.20166-1.965271 2.368408 13.482422 2.089401 26.382568 4.088562 39.867004 6.178284-.558471 4.43457-1.088073 8.639526-1.661682 13.19368-9.961853.539596-16.622314 5.532882-19.19989 15.095459-.978699 3.630874-1.071899 7.575622-1.085998 11.379089-.090271 24.326172-.046021 48.652862-.046082 72.97937v5.633362c-9.125427 0-17.887878 0-27.004456 0-.089843-1.505524-.25-2.947388-.250854-4.389343-.015076-25.826081-.027039-51.652192-.000732-77.478241.007812-7.692521 1.220153-15.062622 7.583923-20.302994 2.495849-2.055191 5.523498-3.464554 8.692261-5.402435-10.257935-1.25853-20.41919-2.505204-31.020508-3.805878.547973-5.604859 1.049499-10.85791 1.590576-16.106857.065796-.638077.14093-1.502732.555847-1.843918 9.861939-8.110245 19.397705-16.686707 29.77356-24.08329 10.976379-7.824784 23.849182-10.593041 37.29657-10.62497 15.395141-.036552 30.739196.516533 44.510742 8.504822 15.547485 9.018455 25.42749 22.270866 25.642578 40.644203.446533 38.140534.134888 76.289932.134888 114.784073-8.909302 0-17.778077 0-27.143677 0 0-1.877075.000061-3.661041.000061-5.445007 0-32.824128.143371-65.649399-.118469-98.471436-.053711-6.736404-1.623719-13.460724-2.588013-20.57811z" fill="#343434"/><path d="m1211.037964 140.913055c-10.633545-3.348205-20.977051-5.836959-31.717529-2.851348-8.523316 2.369262-14.429688 7.741012-17.599488 16.197097 10.920288 1.267578 21.595337 2.225739 32.177246 3.80835 12.347779 1.846741 24.42627 4.789246 35.575806 10.788391 11.64148 6.263794 17.588745 15.76976 17.385376 29.094254-.294922 19.312118.010132 38.649307-.899658 57.930542-.60376 12.794677-10.469849 23.252471-22.886231 26.55487-12.6958 3.37674-26.773193-.996765-34.099609-10.953399-6.606567-8.978394-7.01001-19.004792-2.742188-28.852372 4.347168-10.031082 12.750245-15.003936 23.652344-15.589355 2.821167-.151505 5.657471-.022812 8.809082-.022812 0-11.028046.437378-22.304764-.164795-33.525726-.359008-6.692078-5.029052-11.38945-11.278686-13.353806-8.511475-2.675323-17.177246-5.441147-25.976807-6.4897-15.294067-1.822434-30.741211-2.360138-47.050903-3.501358-.775513-5.638642.701294-12.377365 2.981323-18.894074 10.090332-28.83889 33.526978-36.591316 59.190186-31.680198 8.303588 1.589065 16.388061 4.332122 24.696167 5.88784 9.309814 1.743301 18.359985 1.356918 24.917846-7.478722 6.729981 3.491478 13.312989 6.906655 19.857544 10.301918-3.188965 10.027436-13.939941 17.863709-26.597168 17.42128-9.320068-.325805-18.556396-3.0531-28.229858-4.791672m-10.162964 119.240235c3.769165 5.536377 8.286499 7.675964 13.331909 6.314636 5.292114-1.427887 8.884033-5.86795 9.04834-11.185104.161987-5.24083-2.806641-9.631943-7.811279-11.562241-4.322632-1.667267-8.215332-.671722-11.621338 2.176666-4.363892 3.64946-5.045044 8.346802-2.947632 14.256043z" fill="#353535"/><path d="m585.680176 134.615158c-10.641724 12.33606-24.021668 13.017441-38.188294 9.84462-9.063965-2.030014-17.911865-5.068909-27.009948-6.889603-9.517762-1.904678-19.126465-1.46347-27.052674 5.01033-3.681396 3.006775-6.315765 7.295472-9.696502 11.327057 13.808166 1.81398 26.309509 3.117386 38.684661 5.178147 12.16565 2.025894 23.993958 5.3918 34.398377 12.473098 7.791626 5.303025 12.666199 12.700364 12.773804 22.036866.239746 20.80899.249755 41.648925-.654602 62.432403-.561585 12.904419-10.992737 23.67685-23.471131 26.63913-13.183349 3.129638-27.875122-1.972229-34.463531-12.518555-5.703125-9.129089-5.948456-18.944229-1.244019-28.541855 4.665192-9.517608 12.843048-14.042877 23.294403-14.572265 2.806458-.142151 5.626221-.021515 8.80719-.021515 0-10.807678.410095-21.785095-.146545-32.713272-.361023-7.087174-4.939575-12.172425-11.626038-14.220856-9.009399-2.760071-18.165588-5.626633-27.462494-6.7285-14.801239-1.754258-29.770599-2.089982-45.363586-3.06926-.802551-8.536377 1.875885-17.423874 5.919006-26.077774 11.074585-23.704125 34.673523-28.938225 55.931732-24.734436 8.459656 1.672897 16.701783 4.475586 25.177735 6.028305 9.112549 1.66935 18.052002 1.344459 24.670898-7.522705 6.703003 3.472328 13.396301 6.939628 20.507996 10.623657-1.325379 2.138336-2.441895 3.939697-3.786438 6.016983m-53.590027 108.535843c-1.499451.698029-3.14624 1.189255-4.470886 2.132721-4.032288 2.871841-5.644226 6.869797-4.750428 11.757446.896973 4.90506 3.944703 7.869293 8.650513 9.289856 4.702332 1.419525 8.531738-.161468 11.681336-3.553558 3.384216-3.644745 4.087524-8.060822 2.124572-12.509247-2.313293-5.242218-6.60321-7.716049-13.235107-7.117218z" fill="#353535"/><path d="m814.458984 264.266388c-5.796936 15.762268-19.716064 20.548431-36.5802 18.626587-12.424316-1.415863-23.594848-13.871338-24.914978-27.060089-.430359-4.299332-.660461-8.637116-.665954-12.957688-.049561-39.161209-.029053-78.322509-.029053-117.483772 0-1.784187 0-3.568375 0-5.644081h27.70105v107.563293c26.076294-1.875656 39.939941 12.975464 34.489135 36.95575m-15.77185-13.832855c-.393067-.7305-.713318-1.512863-1.190918-2.183167-3.307068-4.641586-8.077454-6.336029-13.052368-4.679504-5.449768 1.814621-8.747376 6.148834-8.708557 11.446258.040039 5.470154 3.275268 9.574585 8.855529 11.234711 8.942322 2.66037 15.553711-4.266815 14.096314-15.818298z" fill="#373737"/><path d="m678.050842 207c0-29.302475 0-58.104965 0-87.223648h27.082581v106.819855c5.659241.505859 11.010986.355087 16.039551 1.556732 12.892883 3.080902 20.43634 14.549805 19.809875 29.101883-.534302 12.411377-9.558716 22.611206-21.976379 24.838867-18.64563 3.34491-32.140198-2.750244-38.090088-18.033142-1.936524-4.974091-2.591614-10.673844-2.741638-16.072022-.374756-13.486908-.12378-26.991211-.123902-40.988525m34.577515 59.885559c1.290405-.240814 2.62262-.349976 3.864075-.74472 6.15393-1.956696 9.387207-7.026398 8.565735-13.292603-.686463-5.236893-5.771302-9.605774-11.463868-9.849777-5.690063-.243866-10.927002 3.8284-12.275207 9.545349-1.479065 6.271927 2.772766 12.048233 11.309265 14.341751z" fill="#353535"/><path d="m865.985962 204v114.348755c-5.948975 0-11.647949 0-17.660889 0 0-86.95195 0-173.812531 0-261.002823h17.660889z" fill="#c57034"/><path d="m1087.134033 120.999985c0-19.983155.091431-39.467102-.078003-58.948784-.033447-3.845398.883545-5.473942 5.002808-5.116882 4.102173.35556 8.259155.077919 12.692871.077919v261.758819c-5.052368 0-9.85376.171539-14.624634-.133636-1.050781-.067231-2.355713-1.665406-2.880615-2.851929-.493408-1.115112-.112427-2.617828-.112427-3.950012-.000244-63.44516-.000122-126.89032 0-190.835495z" fill="#c67136"/><path d="m428.060608 313.823517c-.078064 1.777283-.156098 3.075683-.251221 4.657776-5.775879 0-11.342499 0-17.426727 0-.08905-1.964051-.238678-3.726593-.238922-5.489105-.011444-83.267746.041656-166.535615-.134094-249.80299-.010926-5.170544 1.377624-6.833889 6.411987-6.257107 3.597076.412117 7.279449.080055 11.638977.080055z" fill="#c67136"/><path d="m156.133911 62.250465c-.540497-4.132663.87561-5.591503 4.696747-5.307636 4.128921.306736 8.298264.069435 12.839264.069435v261.457188c-5.602936 0-11.170731 0-17.536118 0 0-85.376633 0-170.561585.000107-256.218987z" fill="#c67136"/><path d="m1291.643066 165.999939c-.000122-36.438339-.000122-72.376656-.000122-108.647091h17.458863v261.056027c-5.7146 0-11.263794 0-17.458619 0 0-50.767792 0-101.338364-.000122-152.408936z" fill="#c56f33"/><path d="m632.408447 93.000099c.000183 75.390999.000183 150.28199.000183 225.470787-6.026184 0-11.446655 0-17.317749 0 0-87.022812 0-173.963638 0-261.178734h17.317322c0 11.752961 0 23.480446.000244 35.707947z" fill="#c56f33"/><path d="m235.601227 134.041c9.991302 3.706192 13.09967 12.735138 7.130157 19.569886-3.446716 3.946273-8.525894 5.229049-13.06781 3.300323-4.627945-1.965256-7.953583-7.223923-7.516876-11.886124.482407-5.150116 4.592972-9.891799 9.565384-10.892257 1.12439-.226227 2.320877-.094086 3.889145-.091828z" fill="#fafafa"/><path d="m1362.644775 152.034607c-3.154419-6.936508-1.843628-12.296326 3.601563-16.031235 4.854736-3.329849 11.038818-2.540619 15.321777 1.955475 4.296631 4.510468 4.478638 10.619644.455078 15.275757-4.318603 4.997528-11.071289 6.0009-16.002075 2.276382-1.17334-.886413-2.094116-2.107422-3.376343-3.476379z" fill="#fbfbfb"/><path d="m1365.433105 254.164841c-.827148-7.448639-1.134155-14.399811 3.604004-20.442978 2.760743-3.521317 6.115357-5.430496 11.012574-4.468842 0 9.898621.164917 19.692078-.154908 29.469696-.056274 1.720948-1.865112 4.412567-3.355957 4.809326-2.05896.547974-5.27893.082642-6.741943-1.290741-2.025757-1.901885-2.880249-5.051483-4.36377-8.076461z" fill="#fdfdfd"/><g fill="#fbfbfb"><path d="m101.46965 243.133133c9.998497 4.09581 12.726631 13.04863 6.401787 19.786056-3.72094 3.963654-9.013046 5.026551-13.645737 2.740632-4.520691-2.230652-7.584915-7.738587-6.836052-12.287873.843064-5.121643 5.203644-9.579361 10.195984-10.305069 1.139199-.165603 2.32441-.014663 3.884018.066254z"/><path d="m1200.668457 259.807312c-1.890869-5.563263-1.209717-10.260605 3.154175-13.910065 3.406006-2.848388 7.298706-3.843933 11.621338-2.176666 5.004638 1.930298 7.973266 6.321411 7.811279 11.562241-.164307 5.317154-3.756226 9.757217-9.04834 11.185104-5.04541 1.361328-9.562744-.778259-13.538452-6.660614z"/><path d="m532.491577 243.094315c6.230469-.542145 10.520386 1.931686 12.833679 7.173904 1.962952 4.448425 1.259644 8.864502-2.124572 12.509247-3.149598 3.39209-6.979004 4.973083-11.681336 3.553558-4.70581-1.420563-7.75354-4.384796-8.650513-9.289856-.893798-4.887649.71814-8.885605 4.750428-11.757446 1.324646-.943466 2.971435-1.434692 4.872314-2.189407z"/><path d="m798.808655 250.830551c1.335876 11.154465-5.275513 18.08165-14.217835 15.42128-5.580261-1.660126-8.81549-5.764557-8.855529-11.234711-.038819-5.297424 3.258789-9.631637 8.708557-11.446258 4.974914-1.656525 9.7453.037918 13.052368 4.679504.4776.670304.797851 1.452667 1.312439 2.580185z"/><path d="m712.233459 266.860199c-8.141601-2.268158-12.393432-8.044464-10.914367-14.316391 1.348205-5.716949 6.585144-9.789215 12.275207-9.545349 5.692566.244003 10.777405 4.612884 11.463868 9.849777.821472 6.266205-2.411805 11.335907-8.565735 13.292603-1.241455.394744-2.57367.503906-4.258973.71936z"/></g></svg>