<svg enable-background="new 0 0 1406 376" viewBox="0 0 1406 376" xmlns="http://www.w3.org/2000/svg"><path d="m905 377c-301.666626 0-602.833282 0-903.999959 0-.000014-125.333313-.000014-250.666618-.000028-375.999943 468.666613-.000019 937.333239-.000019 1405.999987-.000038v375.999889c-167.166626.000092-334.333374.000092-502 .000092m-691.71785-269.764236c4.922913-7.500908 7.615937-15.6391 7.39357-24.827546-9.222 0-18.107559 0-26.929825 0-4.751449 27.068047-22.785598 43.107651-47.726638 42.340042 5.559814-7.423385 6.577758-15.674629 4.364395-24.169075-2.700669-10.364555-10.065293-16.385414-20.287339-18.27378-11.130874-2.056267-21.732933-.446404-29.648529 8.677154-11.57051 13.336228-7.669059 34.452904 8.042839 42.710343 16.612931 8.730972 34.650383 8.716384 52.621132 6.66809 15.31836-1.745956 28.082184-9.62146 39.921112-18.282219.033677 1.996819.096695 3.993638.096817 5.990456.004975 78.259964.004197 156.519943.004563 234.779892 0 1.332062-.382584 2.836548.112778 3.949188.527236 1.184235 1.838302 2.772339 2.892959 2.839661 4.769592.304413 9.569565.133026 14.633301.133026 0-87.476501 0-174.459381 0-261.588097-2.059357-.110015-3.866806-.206573-5.491135-.947135m-167.57072 150.651229c-1.446343-8.687942-3.694802-17.333053-4.161519-26.073303-.813541-15.235122 3.737984-28.608368 16.962082-37.785232 12.505753-8.678345 26.489182-9.430069 40.725281-6.63765 20.695206 4.059387 29.850083 15.619721 29.922104 37.130188.113831 33.997833.030869 67.996338.031189 101.994568.000015 1.760803 0 3.521606 0 5.238251h27.54744c0-2.035065.000015-3.825196.000015-5.615357 0-31.665008-.10405-63.330536.043899-94.994858.073899-15.816513-.570236-31.342147-11.290191-44.287719 10.561142-6.377075 21.636261-11.818466 21.824447-26.821732-9.693725-2.474136-19.235748-4.909546-29.255569-7.466919.068146 7.880631-3.152039 13.761505-8.467026 18.403626-1.362991 1.190445-4.039162 2.10263-5.639198 1.609237-18.5271-5.713119-37.390358-6.116897-56.343605-3.509674-16.674927 2.293824-31.239655 9.180588-42.142264 22.438523-13.900425 16.90335-14.772489 36.553711-10.812575 56.786102 3.123925 15.96106 7.771766 31.635284 10.601064 47.638763 2.068647 11.700989 2.282615 23.729828 3.344871 35.858918h31.462101c1.291725-11.683075 2.08371-23.307679 3.981282-34.748841 1.881446-11.343994 4.876792-22.503265 7.077476-32.370941 7.398674.892059 13.402893 2.319611 19.373123 2.189331 12.433075-.271332 23.677315-10.441467 25.443329-22.08194 2.097-13.822097-5.004188-28.451004-16.819427-32.4776-15.357636-5.233825-35.694394-3.750824-42.014981 20.196427-2.965137 11.234237-5.324672 22.62799-7.993511 33.941208-.271725 1.151855-.78381 2.247039-1.184353 3.368499-.240516-.070068-.481033-.140136-.72155-.210235-.438076-3.621796-.876156-7.243591-1.493934-11.71164m569.299068 1.613007v72.238342h26.7995c.19934-.560486.399902-.860565.399414-1.160278-.062745-38.151367.449279-76.316895-.467224-114.448044-.453858-18.882126-10.270569-33.460419-28.088013-40.7948-25.102661-10.333252-50.984863-10.896911-76.494812-1.715667-24.524231 8.826492-38.78183 28.776672-37.90918 54.049224.482483 13.973069 3.424194 27.98172 6.426727 41.718766 4.414154 20.195495 8.663849 40.317138 7.721405 61.151886-.018859.417511.378052.853821.667054 1.462768 9.828857 0 19.654907.129303 29.470337-.135284 1.524597-.041107 3.496521-1.552155 4.422912-2.942291 10.049805-15.081513 19.973145-30.247956 29.845764-45.446595 6.785767-10.446533 14.241028-20.561432 19.973877-31.565948 10.397705-19.958725-1.494446-40.62384-23.792785-42.686722-14.540039-1.345154-26.702515 6.643951-30.641602 20.127502-4.125305 14.120911.726379 26.041413 13.32843 32.366868 2.602173 1.306152 5.457764 2.107391 8.595337 3.29187-4.48706 6.431457-8.906555 12.611023-13.158569 18.903839-4.313904 6.384521-8.46228 12.880829-12.496033 19.042206-2.902649-15.259461-5.925598-30.380371-8.611267-45.560944-1.589905-8.986923-3.39563-18.035721-3.788574-27.113632-.835388-19.298035 8.758117-34.246262 25.80072-40.976914 10.341675-4.084198 21.222656-4.197799 31.988525-1.962875 20.714905 4.300278 29.939576 15.901962 30.001038 37.167236.032715 11.329743.006592 22.659653.007019 34.989487m183.687988-24.562119c10.516907-2.419555 18.662537 2.210495 25.320923 9.457428 15.721375 17.1111 24.599426 37.769639 28.811218 60.335556 1.627564 8.719971 1.227662 17.818299 1.767029 27.010163h26.878479c.09961-1.191193.250305-2.154968.250611-3.118836.01123-35.653747.083557-71.3078-.076172-106.96083-.022888-5.113663-.466919-10.443024-1.974671-15.280243-2.13562-6.851242-5.441162-13.337815-8.262634-20.018067 10.335877-5.584747 20.36676-11.922104 20.677856-26.361984-9.761352-2.487564-19.175964-4.886764-28.986083-7.386734-.233704 8.133408-3.288147 14.401566-9.30127 18.971893-1.212402.92154-3.479919 1.465714-4.862061.99997-17.809631-6.001267-36.027832-6.048065-54.263305-3.336502-21.001404 3.122833-38.053528 12.919647-49.4068 31.891098 4.970154 3.858841 9.887513 7.676712 13.950562 10.831268 4.915771-5.25534 8.707764-10.717605 13.77002-14.463058 16.653564-12.321671 35.803405-13.461457 55.291748-9.848877 15.629882 2.897354 22.979126 10.633575 24.679138 26.445877 1.346435 12.523636.830017 25.248489 1.105835 37.88475.02539 1.159912-.202942 2.325348-.357788 3.954605-3.144043-5.089187-5.77649-9.700729-8.74469-14.084991-7.039429-10.397598-15.700623-18.731186-27.908326-23.124878-27.791503-10.002579-51.64569 2.636001-58.109313 31.428604-3.983277 17.743408-4.217408 35.689178-.883301 53.571014 3.913208 20.987671 18.964111 31.229126 40.265381 29.74231 13.330444-.930481 23.494628-14.363586 24.374389-26.723053.908447-12.762054-7.672363-25.631805-20.222473-28.542328-5.638733-1.307709-11.709045-.755035-18.811096-1.107483.374512-7.567169.326416-15.839508 1.316162-23.985748.984009-8.099457 4.611511-14.913864 13.710632-18.180924m242.252442 85.554612c6.664184-37.153839 17.897583-72.801804 35.452514-106.304184 3.067627-5.854416 6.968262-11.287216 10.674439-16.786499 2.194458-3.256287 5.421387-4.243836 9.207275-2.981934 3.837891 1.279205 6.091797 4.033508 6.643189 7.952484.415649 2.954087.503051 5.973313.505493 8.963715.031128 38.313904.02063 76.627853.02063 114.941788v5.331695h27.135742c.108154-.876526.220581-1.363006.220703-1.849487.010132-39.979737.250488-79.962204-.205444-119.936707-.082642-7.249801-1.948853-14.939132-4.880127-21.593673-4.94751-11.231705-14.560425-17.187653-26.742066-19.194001-11.832763-1.948898-20.375488 2.636322-26.645019 12.385651-.269287.418838-.580322.811523-.880249 1.210052-14.589722 19.388169-22.720703 41.927033-31.335449 64.230088-.551514 1.427795-1.113526 2.851516-1.46399 3.74823.131348-16.026154.439087-32.325669.354493-48.623154-.10608-20.460892-11.171021-32.108932-31.582032-33.428116-11.834167-.764892-21.437195 2.815155-27.516784 13.968765-9.983948 18.316483.325805 39.311173 20.979553 41.906113 3.530334.443558 7.164245.062729 11.19458.062729v107.320602h26.800049c.668213-3.610107 1.303344-7.041839 2.0625-11.324157m310.837402-5.369568c1.073975-4.308655 2.999756-8.602478 3.075195-12.928589.340454-19.49057.11316-38.990448.1875-58.486633.022461-5.889634-2.01831-10.93454-6.533081-14.479187-4.008178-3.146851-8.320678-6.616639-13.064209-7.988526-16.860229-4.876144-33.872558-9.323349-51.011108-13.098709-8.295898-1.827453-17.000244-1.800049-25.827393-2.6418 3.072266-8.699768 7.856202-14.990234 17.379273-16.810104 12.374023-2.364716 24.011963.651306 35.842041 3.647964 8.626709 2.185135 17.538574 4.127793 26.37561 4.385681 12.460205.363617 23.47937-7.608749 26.540772-17.448776-6.37085-3.404037-12.775025-6.825882-19.288208-10.305923-7.107788 9.226974-16.764771 9.166122-26.512818 7.451034-11.111084-1.954864-21.995239-5.582306-33.159912-6.763565-17.844116-1.888-34.368408 1.758942-45.50293 17.625427-7.621582 10.860596-11.395141 23.0056-10.101074 36.721055 3.223389 0 6.044312-.133149 8.849366.021774 17.266967.953674 34.613525 1.256103 51.761962 3.250976 9.556641 1.11171 18.958741 4.589356 28.09607 7.918534 6.493896 2.366043 9.29126 7.865265 9.131958 15.11055-.300293 13.657592-.051758 27.32669-.117554 40.99057-.012817 2.646881-.190796 5.33551-.687256 7.929352-1.374878 7.183532-3.880371 10.390899-11.006836 10.800293-14.276367.820068-28.606323.713775-42.914673.95581-1.259399.021271-2.522827-.208191-4.12207-.35141 0-25.435425 0-50.543518 0-75.881439-9.136108 0-17.897827 0-26.817749 0v97.254669h4.212402c25.495362-.000061 50.990967-.049927 76.486206.021057 12.639649.035187 22.02771-5.367187 28.728516-16.900085m-1055.979584-57.616028c.0029-2.6651-.047088-5.331482.017548-7.995087.338776-13.964416 6.203644-20.756622 20.033874-22.952087.60788-4.24025 1.227662-8.563385 1.871186-13.052277-13.538849-2.116882-26.51352-4.145553-39.940918-6.24501 16.705993-19.028168 45.24057-26.401398 68.054687-18.072022 8.458588 3.088196 14.835236 8.571854 17.074616 17.432236 1.652618 6.538925 2.849243 13.383072 2.90744 20.10286.288605 33.312332.131592 66.628524.131592 99.943374v5.000916h27.058838c0-38.137421.084381-75.940918-.035828-113.743775-.059631-18.747009-9.607147-32.067337-25.14151-41.42485-13.353851-8.044052-28.381226-8.675461-43.41687-8.856567-16.317566-.196579-31.293671 4.153762-44.235199 14.185043-8.384491 6.499054-16.240112 13.681442-24.29628 20.600113-.442444.379959-.727249 1.133911-.784531 1.742111-.49675 5.275803-.924606 10.55809-1.406234 16.230316 10.515304 1.277847 20.642501 2.508545 31.055893 3.774002-3.094605 1.837876-6.116883 3.186157-8.605011 5.195771-6.940186 5.605392-7.712281 13.576202-7.712311 21.740905-.000092 25.31929-.000031 50.638565-.000031 75.95784v4.618164h27.369019c0-24.603973 0-48.894073.00003-74.181976m144.631134 3.993042v108.291168c4.511292 0 8.334809-.300445 12.090454.075989 4.706727.47168 6.201813-1.012177 6.192872-5.94455-.151795-83.46997-.107148-166.940292-.119202-250.41053-.000244-1.754318-.157135-3.508621-.236939-5.178642-6.179901 0-11.759643 0-17.926605 0 0 50.939926 0 101.553238-.00058 153.166565m248.527893 4.000061v104.279144c4.328248 0 8.150879-.308624 11.9021.077515 4.775208.491486 6.133179-1.121338 6.124329-5.992004-.151795-83.444855-.109009-166.890061-.109009-250.335175 0-1.751404 0-3.502808 0-5.179443-6.39209 0-11.974182 0-17.91742 0zm504.093262-129c0-9.414627 0-18.829247 0-28.488182-4.377441 0-8.062988.339218-11.659668-.081513-5.075195-.593704-6.399902 1.147896-6.389404 6.278039.171753 83.261428.119995 166.523315.131592 249.785095.000244 1.762359.149902 3.524749.239135 5.489502h17.678345c0-77.525208 0-154.754074 0-232.982941m-265.927612 165v67.997833h17.578247c0-87.252014 0-174.221298 0-261.486015-3.986633 0-7.664978.321495-11.263245-.077911-4.975708-.5523-6.461059.998642-6.444214 6.2266.200562 62.112656.129212 124.226196.129212 187.339493m-161.996338-187.817146c-6.829224 8.869377-10.535339 19.082069-12.739502 29.256462 21.842712-1.368347 43.818909-3.171326 65.831848-4.00441 22.089661-.835983 43.913819 2.392426 65.940369 7.016586-.266236-1.891708-.244995-3.080017-.609497-4.135086-8.67218-25.101265-24.257874-43.16394-51.486084-48.005302-25.104737-4.463791-48.498963-1.456192-66.937134 19.87175m542.156006 25.376991c16.769043 1.955765 33.538086 3.911514 50.790161 5.923614-4.620606-17.324661-13.76648-31.756782-28.818848-41.889167-16.1698-10.884476-34.400024-12.617119-53.196899-10.011566-29.304199 4.062057-45.752564 25.13195-49.879028 51.268104 26.642211-4.617599 53.317627-6.274567 81.104614-5.290985m-679.71875 6.845413c4.031311.701569 8.062683 1.403137 12.32904 2.1456 0-1.106247.152039-1.783448-.021972-2.362717-5.90448-19.657547-16.978455-35.291641-35.721863-44.543869-13.210877-6.521225-27.397278-7.477425-41.886414-6.264504-29.66864 2.483673-49.111572 22.217354-53.79309 51.358574 1.535278-.099792 3.006408-.139312 4.464355-.29895 13.723206-1.502487 27.410461-3.562973 41.173035-4.424301 24.3302-1.522675 48.595337-.472641 73.456909 4.390167m733.299805-101.767338c12.180908-2.458118 23.983642-5.583969 32.464599-15.782299 4.442993-5.342613 5.396851-11.43485 5.426514-18.004738-7.407105-1.704617-14.3125-3.293792-21.637451-4.979502-1.144043 17.152526-11.238648 25.027753-26.72107 27.782916-5.045532.897884-10.079345 2.233414-14.891235 3.990875-8.383301 3.061783-16.465698 6.871758-19.497192 16.315392-3.294434 10.262725 1.011474 20.981392 10.224975 26.190597 10.276978 5.81044 24.024414 3.974205 31.213501-4.169243 7.740112-8.767631 7.070923-19.101242-2.099243-30.058082 1.649658-.384766 3.192139-.744507 5.516602-1.285916m-700.889893-15.862917c-4.351746 7.502562-11.505737 10.681872-19.456116 12.691912-6.432373 1.626225-12.992798 2.924671-19.217407 5.149212-7.920776 2.830734-15.364441 6.775444-18.333435 15.546124-5.422485 16.018825 7.232544 30.896488 25.174438 29.724697 12.348572-.806481 20.263123-8.21238 21.328309-20.178208.609497-6.847862-2.050477-12.48027-7.309327-16.618644 8.460816-2.584992 16.820679-4.38073 24.541687-7.674271 11.845826-5.053105 19.395569-13.723675 18.811951-27.960598-7.05603-1.674048-14.078247-3.340081-20.742065-4.921068-1.599793 4.818752-3.049927 9.186659-4.798035 14.240844z" fill="#fffffe"/><path d="m45.801281 258.31012c.527927 4.044922.966007 7.666717 1.404083 11.288513.240517.070099.481034.140167.72155.210235.400543-1.12146.912628-2.216644 1.184353-3.368499 2.668839-11.313218 5.028374-22.706971 7.993511-33.941208 6.320587-23.947251 26.657345-25.430252 42.014981-20.196427 11.815239 4.026596 18.916427 18.655503 16.819427 32.4776-1.766014 11.640473-13.010254 21.810608-25.443329 22.08194-5.97023.13028-11.974449-1.297272-19.373123-2.189331-2.200684 9.867676-5.19603 21.026947-7.077476 32.370941-1.897572 11.441162-2.689557 23.065766-3.981282 34.748841-10.633671 0-21.232727 0-31.462101 0-1.062256-12.12909-1.276224-24.157929-3.344871-35.858918-2.829298-16.003479-7.477139-31.677703-10.601064-47.638763-3.959914-20.232391-3.08785-39.882752 10.812575-56.786102 10.902609-13.257935 25.467337-20.144699 42.142264-22.438523 18.953247-2.607223 37.816505-2.203445 56.343605 3.509674 1.600036.493393 4.276207-.418792 5.639198-1.609237 5.314987-4.642121 8.535172-10.522995 8.467026-18.403626 10.019821 2.557373 19.561844 4.992783 29.255569 7.466919-.188186 15.003266-11.263305 20.444657-21.824447 26.821732 10.719955 12.945572 11.36409 28.471206 11.290191 44.287719-.147949 31.664322-.043899 63.32985-.043899 94.994858 0 1.790161-.000015 3.580292-.000015 5.615357-9.298829 0-18.074265 0-27.54744 0 0-1.716645.000015-3.477448 0-5.238251-.00032-33.99823.082642-67.996735-.031189-101.994568-.072021-21.510467-9.226898-33.070801-29.922104-37.130188-14.236099-2.792419-28.219528-2.040695-40.725281 6.63765-13.224098 9.176864-17.775623 22.55011-16.962082 37.785232.466717 8.74025 2.715176 17.385361 4.25137 26.49643m50.048641-12.02005c3.493431-5.466935 3.646683-10.910279.428482-15.218628-2.483536-3.324829-8.356621-4.996643-12.607551-3.495301-4.850937 1.713242-7.638192 5.230561-8.076119 10.304383-.448616 5.197662 2.230286 8.961929 6.606621 11.310592 4.841141 2.598145 9.276596 1.310715 13.648567-2.901046z" fill="#353535"/><path d="m615.010498 259c-.000427-11.829834.025696-23.159744-.007019-34.489487-.061462-21.265274-9.286133-32.866958-30.001038-37.167236-10.765869-2.234924-21.64685-2.121323-31.988525 1.962875-17.042603 6.730652-26.636108 21.678879-25.80072 40.976914.392944 9.077911 2.198669 18.126709 3.788574 27.113632 2.685669 15.180573 5.708618 30.301483 8.611267 45.560944 4.033753-6.161377 8.182129-12.657685 12.496033-19.042206 4.252014-6.292816 8.671509-12.472382 13.158569-18.903839-3.137573-1.184479-5.993164-1.985718-8.595337-3.29187-12.602051-6.325455-17.453735-18.245957-13.32843-32.366868 3.939087-13.483551 16.101563-21.472656 30.641602-20.127502 22.298339 2.062882 34.19049 22.727997 23.792785 42.686722-5.732849 11.004516-13.18811 21.119415-19.973877 31.565948-9.872619 15.198639-19.795959 30.365082-29.845764 45.446595-.926391 1.390136-2.898315 2.901184-4.422912 2.942291-9.81543.264587-19.64148.135284-29.470337.135284-.289002-.608947-.685913-1.045257-.667054-1.462768.942444-20.834748-3.307251-40.956391-7.721405-61.151886-3.002533-13.737046-5.944244-27.745697-6.426727-41.718766-.87265-25.272552 13.384949-45.222732 37.90918-54.049224 25.509949-9.181244 51.392151-8.617585 76.494812 1.715667 17.817444 7.334381 27.634155 21.912674 28.088013 40.7948.916503 38.131149.404479 76.296677.467224 114.448044.000488.299713-.200074.599792-.399414 1.160278-8.669251 0-17.426331 0-26.7995 0 0-24.062439 0-48.15039 0-72.738342m-35.42395-11.796875c4.677978-5.120316 5.503845-9.358231 2.804138-14.389236-3.162292-5.893067-10.471313-8.057724-16.312683-4.831192-5.877319 3.246398-8.14563 10.322067-5.053345 15.763504 3.82428 6.729614 10.822693 8.276809 18.56189 3.456924z" fill="#353535"/><path d="m798.308289 234.999725c-8.708924 3.205216-12.336426 10.019623-13.320435 18.11908-.989746 8.14624-.94165 16.418579-1.316162 23.985748 7.102051.352448 13.172363-.200226 18.811096 1.107483 12.55011 2.910523 21.13092 15.780274 20.222473 28.542328-.879761 12.359467-11.043945 25.792572-24.374389 26.723053-21.30127 1.486816-36.352173-8.754639-40.265381-29.74231-3.334107-17.881836-3.099976-35.827606.883301-53.571014 6.463623-28.792603 30.31781-41.431183 58.109313-31.428604 12.207703 4.393692 20.868897 12.72728 27.908326 23.124878 2.9682 4.384262 5.600647 8.995804 8.74469 14.084991.154846-1.629257.383178-2.794693.357788-3.954605-.275818-12.636261.2406-25.361114-1.105835-37.88475-1.700012-15.812302-9.049256-23.548523-24.679138-26.445877-19.488343-3.61258-38.638184-2.472794-55.291748 9.848877-5.062256 3.745453-8.854249 9.207718-13.77002 14.463058-4.063049-3.154556-8.980408-6.972427-13.950562-10.831268 11.353272-18.971451 28.405396-28.768265 49.4068-31.891098 18.235473-2.711563 36.453674-2.664765 54.263305 3.336502 1.382142.465744 3.649659-.07843 4.862061-.99997 6.013123-4.570327 9.067566-10.838485 9.30127-18.971893 9.810119 2.49997 19.224731 4.89917 28.986083 7.386734-.311096 14.43988-10.341979 20.777237-20.677856 26.361984 2.821472 6.680252 6.127014 13.166825 8.262634 20.018067 1.507752 4.837219 1.951783 10.16658 1.974671 15.280243.159729 35.65303.087402 71.307083.076172 106.96083-.000306.963868-.151001 1.927643-.250611 3.118836-9.146545 0-18.036682 0-26.878479 0-.539367-9.191864-.139465-18.290192-1.767029-27.010163-4.211792-22.565917-13.089843-43.224456-28.811218-60.335556-6.658386-7.246933-14.804016-11.876983-25.71112-9.395584m-6.790345 58.912354c-4.917053 1.595947-7.718933 5.125091-8.4505 10.073639-.966919 6.540283 4.272644 12.803528 10.631348 13.113342 6.887268.335571 12.428771-5.080322 12.306274-12.027313-.127747-7.24115-5.977417-12.071137-14.487122-11.159668z" fill="#353535"/><path d="m1040.888916 320.917786c-.697144 3.857025-1.332275 7.288757-2.000488 10.898864-8.798584 0-17.576355 0-26.800049 0 0-35.832702 0-71.563537 0-107.320602-4.030335 0-7.664246.380829-11.19458-.062729-20.653748-2.59494-30.963501-23.58963-20.979553-41.906113 6.079589-11.15361 15.682617-14.733657 27.516784-13.968765 20.411011 1.319184 31.475952 12.967224 31.582032 33.428116.084594 16.297485-.223145 32.597-.354493 48.623154.350464-.896714.912476-2.320435 1.46399-3.74823 8.614746-22.303055 16.745727-44.841919 31.335449-64.230088.299927-.398529.610962-.791214.880249-1.210052 6.269531-9.749329 14.812256-14.334549 26.645019-12.385651 12.181641 2.006348 21.794556 7.962296 26.742066 19.194001 2.931274 6.654541 4.797485 14.343872 4.880127 21.593673.455932 39.974503.215576 79.95697.205444 119.936707-.000122.486481-.112549.972961-.220703 1.849487-8.859375 0-17.734497 0-27.135742 0 0-1.746216 0-3.538971 0-5.331695 0-38.313935.010498-76.627884-.02063-114.941788-.002442-2.990402-.089844-6.009628-.505493-8.963715-.551392-3.918976-2.805298-6.673279-6.643189-7.952484-3.785888-1.261902-7.012817-.274353-9.207275 2.981934-3.706177 5.499283-7.606812 10.932083-10.674439 16.786499-17.554931 33.50238-28.78833 69.150345-35.514526 106.729477m-29.567749-114.993531c3.870422-3.552322 5.710449-7.716903 3.709351-12.923401-1.756531-4.57022-5.148865-7.282104-9.969239-7.950363-4.908508-.680496-9.745788 2.306259-12.004516 7.125428-2.206238 4.707305-1.050537 9.734619 3.104675 13.504684 4.330933 3.929504 8.30481 4.119385 15.159729.243652z" fill="#363636"/><path d="m1351.577637 315.432007c-6.490113 11.223816-15.878174 16.62619-28.517823 16.591003-25.495239-.070984-50.990844-.021118-76.486206-.021057-1.303711 0-2.607299 0-4.212402 0 0-32.564911 0-64.779236 0-97.254669h26.817749v75.881439c1.599243.143219 2.862671.372681 4.12207.35141 14.30835-.242035 28.638306-.135742 42.914673-.95581 7.126465-.409394 9.631958-3.616761 11.006836-10.800293.49646-2.593842.674439-5.282471.687256-7.929352.065796-13.66388-.182739-27.332978.117554-40.99057.159302-7.245285-2.638062-12.744507-9.131958-15.11055-9.137329-3.329178-18.539429-6.806824-28.09607-7.918534-17.148437-1.994873-34.494995-2.297302-51.761962-3.250976-2.805054-.154923-5.625977-.021774-8.849366-.021774-1.294067-13.715455 2.479492-25.860459 10.101074-36.721055 11.134522-15.866485 27.658814-19.513427 45.50293-17.625427 11.164673 1.181259 22.048828 4.808701 33.159912 6.763565 9.748047 1.715088 19.40503 1.77594 26.512818-7.451034 6.513183 3.480041 12.917358 6.901886 19.288208 10.305923-3.061402 9.840027-14.080567 17.812393-26.540772 17.448776-8.837036-.257888-17.748901-2.200546-26.37561-4.385681-11.830078-2.996658-23.468018-6.01268-35.842041-3.647964-9.523071 1.81987-14.307007 8.110336-17.379273 16.810104 8.827149.841751 17.531495.814347 25.827393 2.6418 17.13855 3.77536 34.150879 8.222565 51.011108 13.098709 4.743531 1.371887 9.056031 4.841675 13.064209 7.988526 4.514771 3.544647 6.555542 8.589553 6.533081 14.479187-.07434 19.496185.152954 38.996063-.1875 58.486633-.075439 4.326111-2.00122 8.619934-3.285888 13.237671z" fill="#343434"/><path d="m295.808716 258.005798v73.683075c-9.075501 0-17.825836 0-27.369019 0 0-1.468994 0-3.043579 0-4.618164 0-25.319275-.000061-50.63855.000031-75.95784.00003-8.164703.772125-16.135513 7.712311-21.740905 2.488128-2.009614 5.510406-3.357895 8.605011-5.195771-10.413392-1.265457-20.540589-2.496155-31.055893-3.774002.481628-5.672226.909484-10.954513 1.406234-16.230316.057282-.6082.342087-1.362152.784531-1.742111 8.056168-6.918671 15.911789-14.101059 24.29628-20.600113 12.941528-10.031281 27.917633-14.381622 44.235199-14.185043 15.035644.181106 30.063019.812515 43.41687 8.856567 15.534363 9.357513 25.081879 22.677841 25.14151 41.42485.120209 37.802857.035828 75.606354.035828 113.743775-8.785157 0-17.539368 0-27.058838 0 0-1.514282 0-3.257599 0-5.000916 0-33.31485.157013-66.631042-.131592-99.943374-.058197-6.719788-1.254822-13.563935-2.90744-20.10286-2.23938-8.860382-8.616028-14.34404-17.074616-17.432236-22.814117-8.329376-51.348694-.956146-68.054687 18.072022 13.427398 2.099457 26.402069 4.128128 39.940918 6.24501-.643524 4.488892-1.263306 8.812027-1.871186 13.052277-13.83023 2.195465-19.695098 8.987671-20.033874 22.952087-.064636 2.663605-.014648 5.329987-.017578 8.493988z" fill="#353535"/><path d="m440.440186 260.999939c.000274-51.113327.000274-101.726639.000274-152.666565h17.926605c.079804 1.670021.236695 3.424324.236939 5.178642.012054 83.470238-.032593 166.94056.119202 250.41053.008941 4.932373-1.486145 6.41623-6.192872 5.94455-3.755645-.376434-7.579162-.075989-12.090454-.075989 0-36.431274 0-72.361206.000306-108.791168z" fill="#c77339"/><path d="m688.967773 265c0-52.437775 0-104.375549 0-156.649963h17.91742v5.179443c0 83.445114-.042786 166.89032.109009 250.335175.00885 4.870666-1.349121 6.48349-6.124329 5.992004-3.751221-.386139-7.573852-.077515-11.9021-.077515 0-35.097015 0-69.68808 0-104.779144z" fill="#c67135"/><path d="m213.09903 107.879761c1.807449.096565 3.614898.193123 5.674255.303138v261.588097c-5.063736 0-9.863709.171387-14.633301-.133026-1.054657-.067322-2.365723-1.655426-2.892959-2.839661-.495362-1.11264-.112778-2.617126-.112778-3.949188-.000366-78.259949.000412-156.519928-.004563-234.779892-.000122-1.996818-.06314-3.993637-.095565-6.917885.323852-12.717445.323852-12.717445 12.064911-13.271583z" fill="#c67136"/><path d="m1193.061035 137v232.482941c-6.026733 0-11.59375 0-17.678345 0-.089233-1.964753-.238891-3.727143-.239135-5.489502-.011597-83.26178.040161-166.523667-.131592-249.785095-.010498-5.130143 1.314209-6.871743 6.389404-6.278039 3.59668.420731 7.282227.081513 11.659668.081513z" fill="#c67136"/><path d="m927.133423 301c0-62.613297.07135-124.726837-.129212-186.839493-.016845-5.227958 1.468506-6.7789 6.444214-6.2266 3.598267.399406 7.276612.077911 11.263245.077911v261.486015c-5.715149 0-11.281616 0-17.578247 0 0-22.847015 0-45.422424 0-68.497833z" fill="#c67136"/><path d="m213.190582 107.55777c-11.832611.876129-11.832611.876129-12.19928 13.136703-11.797363 10.045059-24.561187 17.920563-39.879547 19.666519-17.970749 2.048294-36.008201 2.062882-52.621132-6.66809-15.711898-8.257439-19.613349-29.374115-8.042839-42.710343 7.915596-9.123558 18.517655-10.733421 29.648529-8.677154 10.222046 1.888366 17.58667 7.909225 20.287339 18.27378 2.213363 8.494446 1.195419 16.74569-4.364395 24.169075 24.94104.767609 42.975189-15.271995 47.726638-42.340042h26.929825c.222367 9.188446-2.470657 17.326638-7.485138 25.149552m-81.000396 9.047592c4.459075-6.902962 3.642456-12.724251-2.450425-17.467995-5.159141-4.016762-11.1781-3.528732-15.623451 1.266793-4.721527 5.09346-4.562866 12.491218.375382 17.502517 4.858871 4.930779 10.937095 4.684204 17.698494-1.301315z" fill="#353535"/><g fill="#363636"><path d="m765.35553 113.400558c18.219726-21.045646 41.613952-24.053245 66.718689-19.589454 27.22821 4.841362 42.813904 22.904037 51.486084 48.005302.364502 1.055069.343261 2.243378.609497 4.135086-22.02655-4.62416-43.850708-7.852569-65.940369-7.016586-22.012939.833084-43.989136 2.636063-65.831848 4.00441 2.204163-10.174393 5.910278-20.387085 12.957947-29.538758m87.601867 15.312058c.276185-.084106.55243-.168198.828614-.252319-.19989-.213959-.399842-.427918-.664185-1.333443-10.787781-16.260773-31.167114-24.480599-50.098083-19.903267-9.948853 2.405548-17.04187 8.258896-20.77826 19.143372 24.08014-2.020821 47.289856-1.670327 70.711914 2.345657z"/><path d="m1306.813477 139.044098c-27.307373-.967835-53.982789.689133-80.625 5.306732 4.126464-26.136154 20.574829-47.206047 49.879028-51.268104 18.796875-2.605553 37.027099-.87291 53.196899 10.011566 15.052368 10.132385 24.198242 24.564506 28.818848 41.889167-17.252075-2.0121-34.021118-3.967849-51.269775-5.939361m4.29541-26.750465c-10.488037-5.545968-21.548584-7.415322-33.272095-5.310593-9.875366 1.772911-20.043213 9.836761-21.335327 19.3144 23.723511-1.752289 47.350586-2.031052 71.137085 2.666565-3.639038-6.857605-7.913941-11.148667-16.529663-16.670372z"/><path d="m627.148193 145.824524c-24.435424-4.782074-48.700561-5.832108-73.030761-4.309433-13.762574.861328-27.449829 2.921814-41.173035 4.424301-1.457947.159638-2.929077.199158-4.464355.29895 4.681518-29.14122 24.12445-48.874901 53.79309-51.358574 14.489136-1.212921 28.675537-.256721 41.886414 6.264504 18.743408 9.252228 29.817383 24.886322 35.721863 44.543869.174011.579269.021972 1.25647.021972 2.362717-4.266357-.742463-8.297729-1.444031-12.755188-2.226334m-88.09198-17.903473c15.460083.026657 30.928833-.245377 46.376709.202728 8.036927.233124 16.036927 1.737213 24.160828 2.679627-7.835144-15.116394-26.495361-24.042649-45.846924-22.005394-11.848205 1.247314-20.674377 6.685264-24.690613 19.123039z"/><path d="m1360.483154 44.228752c-1.933471.450577-3.475952.810318-5.12561 1.195084 9.170166 10.95684 9.839355 21.290451 2.099243 30.058082-7.189087 8.143448-20.936523 9.979683-31.213501 4.169243-9.213501-5.209205-13.519409-15.927872-10.224975-26.190597 3.031494-9.443634 11.113891-13.253609 19.497192-16.315392 4.81189-1.757461 9.845703-3.092991 14.891235-3.990875 15.482422-2.755163 25.577027-10.63039 26.72107-27.782916 7.324951 1.68571 14.230346 3.274885 21.637451 4.979502-.029663 6.569888-.983521 12.662125-5.426514 18.004738-8.480957 10.19833-20.283691 13.324181-32.855591 15.873131m-13.790771 10.836289c-.879395-.747887-1.643799-1.769333-2.658325-2.195874-4.209229-1.76992-8.671753-2.178127-12.1073 1.159478-3.600952 3.49813-3.406006 8.206123-1.609253 12.582744 1.723755 4.199387 5.513916 4.848091 9.581787 4.558136 7.431641-.529754 10.28418-6.632759 6.793091-16.104484z"/><path d="m660.13324 27.931862c1.599121-4.711044 3.049255-9.078951 4.649048-13.897703 6.663818 1.580987 13.686035 3.24702 20.742065 4.921068.583618 14.236923-6.966125 22.907493-18.811951 27.960598-7.721008 3.293541-16.080871 5.089279-24.541687 7.674271 5.25885 4.138374 7.918824 9.770782 7.309327 16.618644-1.065186 11.965828-8.979737 19.371727-21.328309 20.178208-17.941894 1.171791-30.596923-13.705872-25.174438-29.724697 2.968994-8.77068 10.412659-12.71539 18.333435-15.546124 6.224609-2.224541 12.785034-3.522987 19.217407-5.149212 7.950379-2.01004 15.10437-5.18935 19.605103-13.035053m-26.804383 35.446098c-4.733215-3.956177-10.652221-4.415745-14.412597-1.119076-3.198303 2.803914-3.831299 9.790623-1.25586 13.860569 2.294068 3.625351 7.947815 4.958069 12.473816 2.940415 5.029785-2.242256 6.498596-8.262802 3.194641-15.681908z"/></g><path d="m95.598038 246.56369c-4.120087 3.938141-8.555542 5.225571-13.396683 2.627426-4.376335-2.348663-7.055237-6.11293-6.606621-11.310592.437927-5.073822 3.225182-8.591141 8.076119-10.304383 4.25093-1.501342 10.124015.170472 12.607551 3.495301 3.218201 4.308349 3.064949 9.751693-.680366 15.492248z" fill="#fbfbfb"/><path d="m579.302979 247.463791c-7.455628 4.559219-14.454041 3.012024-18.278321-3.71759-3.092285-5.441437-.823974-12.517106 5.053345-15.763504 5.84137-3.226532 13.150391-1.061875 16.312683 4.831192 2.699707 5.031005 1.87384 9.26892-3.087707 14.649902z" fill="#fbfbfb"/><path d="m791.88623 293.815125c8.141419-.814515 13.991089 4.015472 14.118836 11.256622.122497 6.946991-5.419006 12.362884-12.306274 12.027313-6.358704-.309814-11.598267-6.573059-10.631348-13.113342.731567-4.948548 3.533447-8.477692 8.818786-10.170593z" fill="#fbfbfb"/><path d="m1011.019165 206.150162c-6.552917 3.649826-10.526794 3.459945-14.857727-.469559-4.155212-3.770065-5.310913-8.797379-3.104675-13.504684 2.258728-4.819169 7.096008-7.805924 12.004516-7.125428 4.820374.668259 8.212708 3.380143 9.969239 7.950363 2.001098 5.206498.161071 9.371079-4.011353 13.149308z" fill="#fbfbfb"/><path d="m131.959381 116.906403c-6.530594 5.684478-12.608818 5.931053-17.467689 1.000274-4.938248-5.011299-5.096909-12.409057-.375382-17.502517 4.445351-4.795525 10.46431-5.283555 15.623451-1.266793 6.092881 4.743744 6.9095 10.565033 2.21962 17.769036z" fill="#fcfcfc"/><path d="m852.615173 128.376938c-23.079834-3.680306-46.28955-4.0308-70.36969-2.009979 3.73639-10.884476 10.829407-16.737824 20.77826-19.143372 18.930969-4.577332 39.310302 3.642494 49.987304 20.388474-.110778.485199-.395874.764877-.395874.764877z" fill="#fbfbfb"/><path d="m853.043213 127.95784c.342956.074539.542908.288498.742798.502457-.276184.084121-.552429.168213-.999756.084472-.171082-.167831.114014-.447509.256958-.586929z" fill="#fbfbfb"/><path d="m1311.415039 112.501472c8.30957 5.313866 12.584473 9.604928 16.223511 16.462533-23.786499-4.697617-47.413574-4.418854-71.137085-2.666565 1.292114-9.477639 11.459961-17.541489 21.335327-19.3144 11.723511-2.104729 22.784058-.235375 33.578247 5.518432z" fill="#fbfbfb"/><path d="m538.919067 127.501373c4.153382-12.018097 12.979554-17.456047 24.827759-18.703361 19.351563-2.037255 38.01178 6.889 45.846924 22.005394-8.123901-.942414-16.123901-2.446503-24.160828-2.679627-15.447876-.448105-30.916626-.176071-46.513855-.622406z" fill="#fbfbfb"/><path d="m1346.883301 55.430847c3.300171 9.105919.447632 15.208924-6.984009 15.738678-4.067871.289955-7.858032-.358749-9.581787-4.558136-1.796753-4.376621-1.991699-9.084614 1.609253-12.582744 3.435547-3.337605 7.898071-2.929398 12.1073-1.159478 1.014526.426541 1.77893 1.447987 2.849243 2.56168z" fill="#fbfbfb"/><path d="m633.56488 63.704292c3.067932 7.092774 1.599121 13.11332-3.430664 15.355576-4.526001 2.017654-10.179748.684936-12.473816-2.940415-2.575439-4.069946-1.942443-11.056655 1.25586-13.860569 3.760376-3.296669 9.679382-2.837101 14.64862 1.445408z" fill="#fafafa"/></svg>