<svg enable-background="new 0 0 1098 366" viewBox="0 0 1098 366" xmlns="http://www.w3.org/2000/svg"><path d="m719 367c-239.666656 0-478.833328 0-718 0 0-122 0-244 0-366h1098v366c-126.5 0-253 0-380 0m316.943604-92.055756s.314697.314545.233398 1.105225c-6.685913 21.691345 5.684082 39.558594 27.80249 40.157898 20.636475.559143 35.445679-23.217865 25.026367-41.058014-3.429199-5.871643-9.321045-10.305115-13.83435-15.126556 10.832031-5.265793 10.832031-5.265793 10.832031-19.04773 0-20.165832 0-40.33165 0-60.497482 0-9.148956 0-18.297913 0-27.732117-9.397217 0-18.484497 0-28.004761 0 0 2.05127.000122 3.844803.000122 5.638336 0 27.498856.004151 54.997696-.00354 82.496552-.001831 6.552597-1.601684 8.876602-7.716552 11.165954-1.86438.698014-3.750855 1.397461-5.686158 1.836258-16.71875 3.790711-32.463379 9.340821-43.855713 24.891053 0-3.026337.000062-4.809693.000062-6.593018-.000245-28.49881.03778-56.997711-.025757-85.496368-.017578-7.881455-.919129-15.618042-5.440918-22.444809-7.870911-11.882996-19.437012-14.036072-32.713257-13.519059-13.80365.537583-21.21228 10.662323-24.239563 19.688187-3.736755 11.140793-.044983 22.782486 8.966858 30.094956 7.513611 6.096893 16.187378 6.991516 25.792053 5.6082v107.730941h26.963257c3.297058-6.353393 5.936645-12.882324 9.807678-18.573669 6.397339-9.40564 13.723877-18.101135 26.096253-20.324738m-790.022233-109.54486c-4.682312 5.555358-10.236084 10.597686-13.869781 16.77034-8.158356 13.858917-8.45816 29.201751-5.478363 44.550872 3.322128 17.112412 7.779282 34.016892 10.715576 51.187485 2.003769 11.717438 2.246918 23.735962 3.318375 36.094116 9.717987 0 19.843506.115723 29.959503-.142334 1.304962-.033325 2.903931-1.775634 3.786072-3.110107 9.259521-14.007385 18.434539-28.071137 27.564087-42.16388 7.494049-11.568054 15.755767-22.744064 22.143249-34.899887 10.56662-20.109085-1.901214-40.998458-24.511139-42.527862-13.140503-.88887-24.540924 5.34581-28.708313 17.150909-6.433136 18.223313-.715332 31.406403 17.296601 37.574768 1.011779.346497 2.046081.627396 3.23294.988404-8.82312 13.082504-17.402893 25.804245-26.074402 38.661972-.98236-7.10904-1.751953-14.012879-2.917419-20.849243-2.872589-16.850144-6.840286-33.571885-8.649201-50.528565-1.77983-16.68367 4.378083-30.94368 19.35904-39.872162 11.875366-7.07756 25.057464-7.585876 38.261474-4.886993 20.669251 4.224731 29.745331 15.65921 29.811524 37.222412.104339 33.988251.028198 67.977051.028473 101.965607v5.145996h27.549286c0-2.061768 0-3.855408 0-5.649018 0-31.656036.036041-63.312133-.033417-94.968002-.01239-5.655273-.117523-11.349808-.77301-16.956894-2.088501-17.864746-11.023011-31.00618-27.511231-38.736084-13.113861-6.147964-27.105621-7.555099-41.323212-7.746292-19.08609-.256683-37.009613 3.53949-53.176712 15.724442m495.233353 37.162231c-9.834534 5.76329-16.22998 14.271454-19.032471 25.198441-4.866638 18.974563-5.497375 38.256637-1.863647 57.455825 4.312866 22.787445 22.465942 34.437622 44.913147 29.568695 10.523621-2.282653 19.507812-13.989776 19.845947-25.861023.399842-14.034057-7.287658-25.765625-19.881714-28.690582-5.797363-1.346435-12.047241-.744385-18.897094-1.063324-.586365-11.606033-.71637-23.874054 5.425598-35.072998 3.552002-6.476547 9.791137-8.646805 17.075012-7.625748 8.805908 1.234452 15.478821 6.253479 20.625671 12.952195 16.307373 21.224136 26.330445 44.900024 26.625855 72.096496.044494 4.095246.006164 8.191376.006164 12.143799h27.90033c0-38.656006.56842-76.984466-.224976-115.284729-.437133-21.10231-11.585754-36.176361-31.812561-43.264801-21.342407-7.479401-43.121215-7.1772-64.86969-1.597732-17.042236 4.372085-29.927551 14.52069-39.729858 29.530746 4.957214 3.839935 9.911499 7.677551 15.121826 11.713577 1.290405-1.799835 2.135437-3.486679 3.428528-4.693512 5.41394-5.052948 10.273193-11.228103 16.59906-14.670654 15.001953-8.164062 31.50592-9.155884 48.060425-5.7883 15.920776 3.238648 23.009582 10.790848 24.508484 27.060563 1.157532 12.564636.74768 25.274429 1.000244 37.920379.022949 1.146454-.205811 2.297959-.279358 3.052902-5.168396-7.571395-9.757874-15.570617-15.568237-22.554061-14.296448-17.182801-39.100098-22.392899-58.976685-12.526154m-643.307297 19.938416c0-44.665894.002747-89.331788-.003448-133.997674-.000786-5.666122.11866-11.339027-.110802-16.996894-.413772-10.202526-3.323395-19.437512-12.000038-25.714825-12.766998-9.236588-28.843258-5.721611-39.052662 8.531471-3.736412 5.216305-6.956829 10.80222-10.423164 16.212383-2.910675-16.176639-9.5369-31.397743-23.350414-31.406433-2.878254 7.576161-5.796468 15.257504-8.732581 22.985958 18.987711 5.396481 20.759316 21.269459 23.058081 36.715733 4.646404 0 8.826469.264015 12.9408-.140518 1.477485-.145279 3.424656-1.604469 4.073513-2.976601 2.194343-4.640342 3.645427-9.634002 5.866153-14.259506 2.436791-5.075523 5.025994-10.174744 8.329483-14.692825 1.459313-1.99585 4.877327-3.644196 7.344578-3.563694 3.681633.12014 3.839485 3.995029 4.17817 6.941242.246315 2.142593.180961 4.325973.181205 6.49118.00766 67.498978-.068992 134.9982.135254 202.496552.018265 6.034088.774483 12.507294 3.049072 18.006805 5.791291 14.002228 17.84594 22.348908 38.040421 18.065521 13.055527-2.769165 21.514313-12.233581 22.384277-26.193939.780518-12.524933-7.655388-24.734955-19.889122-27.784027-5.020561-1.251282-10.390304-1.101593-16.018806-1.628265 0-11.817185 0-23.954392.00003-37.091644m417.552903-69.627503c-4.414307 1.876251-9.384522 2.999497-13.138245 5.770538-11.058563 8.163559-21.640808 16.97284-32.3797 25.566636-.447845.358383-.791656 1.070175-.853698 1.652542-.575531 5.401001-1.078461 10.809738-1.633881 16.539856 10.65155 1.287704 20.798584 2.514419 31.394928 3.79544-2.963806 1.624314-5.712586 2.74379-8.012726 4.46341-7.11026 5.31578-8.652283 13.039673-8.653442 21.316482-.003723 25.992905-.006073 51.985825.012359 77.978745.000916 1.270019.204041 2.539917.310944 3.785827h26.971374c0-2.067047 0-3.876617 0-5.686218.000031-24.659942.003266-49.319885-.0018-73.979828-.001587-7.851288.784607-15.642318 7.667969-20.649765 3.578064-2.602951 8.145691-3.845535 12.787414-5.937469.427857-3.428345.951966-7.628464 1.499878-12.018952-13.529907-2.097091-26.427978-4.096237-39.645386-6.144897.589875-.924866.782318-1.393067 1.113343-1.721756 18.578003-18.446991 40.568542-23.659103 65.577575-16.680054 9.31781 2.600235 15.944214 8.607483 18.390442 17.962326 1.745789 6.676041 2.756165 13.732208 2.815003 20.629685.281494 32.988586.126281 65.980926.126281 98.971924 0 1.752105-.000061 3.50418-.000061 5.245971h26.876831c.165345-.568909.33075-.872253.330689-1.175537-.010986-37.822296.244079-75.64772-.176331-113.465607-.204345-18.385543-9.697937-32.191406-25.531311-40.639373-20.618103-11.000931-42.764282-10.751648-65.848449-5.579926m-82.413636 49.627472c0-37.405182 0-74.810379 0-112.150246-6.332306 0-11.914367 0-17.656799 0v260.993752h17.656799c0-49.568146 0-98.705826 0-148.843506m-248.101013-102.952316c0-3.089012 0-6.178025 0-9.205544-6.377167 0-11.957428 0-17.647156 0v260.966912h17.64708c0-83.905549 0-167.340867.000076-251.761368m721.99884 248.587967c0-85.893677 0-171.787339 0-257.868218-6.222595 0-11.800537 0-17.52478 0v261.505577c5.03241 0 9.686463.171631 14.310547-.123871 1.119446-.071502 2.14032-1.684661 3.214233-3.513488m-250.864257 3.583404h15.752136c0-87.561981 0-174.429901 0-261.707596-4.240906 0-8.233032.30056-12.159302-.079414-4.467834-.432396-5.581482 1.176819-5.574768 5.564796.128113 83.608719.088623 167.217667.136658 250.826554.000976 1.7164.630615 3.432403 1.845276 5.39566m-306.145203-253.513023c.578949-1.55571 1.246582-3.084816 1.722717-4.671387 3.54776-11.82164.445282-22.205284-7.854156-30.77438-7.174072-7.407173-16.483795-8.087055-26.019806-5.615356-11.591065 3.004368-17.818665 11.458317-17.658753 23.423168.1456 10.89846 6.249756 18.592522 17.054291 20.917938 3.501374.753594 7.199829.591431 11.270905.881073-2.104004 9.231499-9.267914 11.951386-16.805237 13.987198v12.524498c9.286835-.989654 18.258881-1.412651 27.024841-2.984588 22.10138-3.963303 41.265991-13.680443 55.988587-31.005013 7.745086-9.113899 11.942505-19.687111 11.431213-31.970512-8.860474 0-17.289947 0-25.695618 0-1.970275 24.692169-19.680999 40.744026-34.894531 42.756057 1.344818-2.251495 2.705567-4.529663 4.435547-7.468696m485.28241 5.136932c-6.560242-9.921593-14.979065-17.723274-25.880249-22.695259-16.55066-7.548622-33.832276-8.304809-51.236206-4.453552-25.182801 5.572624-40.152588 25.422371-43.919495 50.085945 43.902832-7.138229 87.645996-8.18737 131.728577 1.790947-1.389038-9.517693-5.646241-16.911575-10.692627-24.728081m-6.646057-94.33973c-3.444886 0-6.889832 0-10.34076 0v47.436387h24.171387c0-15.949242 0-31.588806 0-47.436387-4.548157 0-8.693481 0-13.830627 0z" fill="#fff"/><path d="m246.196228 165.169037c15.892242-11.954605 33.815765-15.750778 52.901855-15.494095 14.217591.191193 28.209351 1.598328 41.323212 7.746292 16.48822 7.729904 25.42273 20.871338 27.511231 38.736084.655487 5.607086.76062 11.301621.77301 16.956894.069458 31.655869.033417 63.311966.033417 94.968002v5.649018c-9.254578 0-18.023133 0-27.549286 0 0-1.652954 0-3.399475 0-5.145996-.000275-33.988556.075866-67.977356-.028473-101.965607-.066193-21.563202-9.142273-32.997681-29.811524-37.222412-13.20401-2.698883-26.386108-2.190567-38.261474 4.886993-14.980957 8.928482-21.13887 23.188492-19.35904 39.872162 1.808915 16.95668 5.776612 33.678421 8.649201 50.528565 1.165466 6.836364 1.935059 13.740203 2.917419 20.849243 8.671509-12.857727 17.251282-25.579468 26.074402-38.661972-1.186859-.361008-2.221161-.641907-3.23294-.988404-18.011933-6.168365-23.729737-19.351455-17.296601-37.574768 4.167389-11.805099 15.56781-18.039779 28.708313-17.150909 22.609925 1.529404 35.077759 22.418777 24.511139 42.527862-6.387482 12.155823-14.6492 23.331833-22.143249 34.899887-9.129548 14.092743-18.304566 28.156495-27.564087 42.16388-.882141 1.334473-2.48111 3.076782-3.786072 3.110107-10.115997.258057-20.241516.142334-29.959503.142334-1.071457-12.358154-1.314606-24.376678-3.318375-36.094116-2.936294-17.170593-7.393448-34.075073-10.715576-51.187485-2.979797-15.349121-2.679993-30.691955 5.478363-44.550872 3.633697-6.172654 9.187469-11.214982 14.144638-17.000687m63.669464 57.727218c.048615-.995895.180878-1.995895.132385-2.987045-.338928-6.923691-6.278259-12.060196-13.079437-11.347885-6.873566.719879-11.826355 6.863785-10.932281 13.561478.607788 4.553131 5.248718 9.162307 9.983795 9.915558 6.042023.961151 10.467285-1.756028 13.895538-9.142106z" fill="#363636"/><path d="m741.46698 202.359146c19.564331-9.664276 44.367981-4.454178 58.664429 12.728623 5.810363 6.983444 10.399841 14.982666 15.568237 22.554061.073547-.754943.302307-1.906448.279358-3.052902-.252564-12.64595.157288-25.355743-1.000244-37.920379-1.498902-16.269715-8.587708-23.821915-24.508484-27.060563-16.554505-3.367584-33.058472-2.375762-48.060425 5.7883-6.325867 3.442551-11.18512 9.617706-16.59906 14.670654-1.293091 1.206833-2.138123 2.893677-3.428528 4.693512-5.210327-4.036026-10.164612-7.873642-15.121826-11.713577 9.802307-15.010056 22.687622-25.158661 39.729858-29.530746 21.748475-5.579468 43.527283-5.881669 64.86969 1.597732 20.226807 7.08844 31.375428 22.162491 31.812561 43.264801.793396 38.300263.224976 76.628723.224976 115.284729-9.125427 0-18.193359 0-27.90033 0 0-3.952423.03833-8.048553-.006164-12.143799-.29541-27.196472-10.318482-50.87236-26.625855-72.096496-5.14685-6.698716-11.819763-11.717743-20.625671-12.952195-7.283875-1.021057-13.52301 1.149201-17.075012 7.625748-6.141968 11.198944-6.011963 23.466965-5.425598 35.072998 6.849853.318939 13.099731-.283111 18.897094 1.063324 12.594056 2.924957 20.281556 14.656525 19.881714 28.690582-.338135 11.871247-9.322326 23.57837-19.845947 25.861023-22.447205 4.868927-40.600281-6.78125-44.913147-29.568695-3.633728-19.199188-3.002991-38.481262 1.863647-57.455825 2.802491-10.926987 9.197937-19.435151 19.344727-25.40091m25.334228 90.573532c2.225098-4.59024 2.006897-9.002868-1.208679-13.038696-2.653137-3.329956-6.085937-5.063568-10.466797-4.303803-5.371154.931519-9.525146 5.464722-10.014526 10.887421-.431457 4.78183 2.770813 9.861145 7.467407 11.844421 5.110535 2.158051 9.221619.741425 14.222595-5.389343z" fill="#353535"/><path d="m1035.628906 274.629669c-12.057678 2.538178-19.384216 11.233673-25.781555 20.639313-3.871033 5.691345-6.51062 12.220276-9.807678 18.573669-8.604004 0-17.561157 0-26.963257 0 0-35.907135 0-71.657348 0-107.730941-9.604675 1.383316-18.278442.488693-25.792053-5.6082-9.011841-7.31247-12.703613-18.954163-8.966858-30.094956 3.027283-9.025864 10.435913-19.150604 24.239563-19.688187 13.276245-.517013 24.842346 1.636063 32.713257 13.519059 4.521789 6.826767 5.42334 14.563354 5.440918 22.444809.063537 28.498657.025512 56.997558.025757 85.496368 0 1.783325-.000062 3.566681-.000062 6.593018 11.392334-15.550232 27.136963-21.100342 43.855713-24.891053 1.935303-.438797 3.821778-1.138244 5.686158-1.836258 6.114868-2.289352 7.714721-4.613357 7.716552-11.165954.007691-27.498856.00354-54.997696.00354-82.496552 0-1.793533-.000122-3.587066-.000122-5.638336h28.004761v27.732117 60.497482c0 13.781937 0 13.781937-10.832031 19.04773 4.513305 4.821441 10.405151 9.254913 13.83435 15.126556 10.419312 17.840149-4.389892 41.617157-25.026367 41.058014-22.118408-.599304-34.488403-18.466553-27.546631-40.678406-.09729-.646759-.450683-.77301-.803955-.899292m39.637329 14.635285c.126099-4.872712-.675171-9.393158-5.432373-11.976563-6.316772-3.430267-15.137817-.741943-17.576294 5.226959-2.901855 7.10318.010376 15.089386 6.237427 17.104737 7.768555 2.51419 14.759033-1.467713 16.77124-10.355133m-111.404419-122.250687c-1.39154.49028-2.916565.760879-4.150451 1.51059-4.320252 2.624847-6.656555 6.510803-6.065186 11.624557.587036 5.075562 3.655579 8.366318 8.429321 10.069733 4.670716 1.666641 8.436463-.157608 11.7146-3.293213 3.628906-3.471024 4.390381-7.808045 2.557434-12.316803-2.065918-5.081741-6.087097-7.674149-12.485718-7.594864z" fill="#353535"/><path d="m97.847412 223.000046c-.000015 12.637237-.000015 24.774444-.000015 36.591629 5.628502.526672 10.998245.376983 16.018806 1.628265 12.233734 3.049072 20.66964 15.259094 19.889122 27.784027-.869964 13.960358-9.32875 23.424774-22.384277 26.193939-20.194481 4.283387-32.24913-4.063293-38.040421-18.065521-2.274589-5.499511-3.030807-11.972717-3.049072-18.006805-.204246-67.498352-.127594-134.997574-.135254-202.496552-.000244-2.165207.06511-4.348587-.181205-6.49118-.338685-2.946213-.496537-6.821102-4.17817-6.941242-2.467251-.080502-5.885265 1.567844-7.344578 3.563694-3.303489 4.518081-5.892692 9.617302-8.329483 14.692825-2.220726 4.625504-3.67181 9.619164-5.866153 14.259506-.648857 1.372132-2.596028 2.831322-4.073513 2.976601-4.114331.404533-8.294396.140518-12.9408.140518-2.298765-15.446274-4.07037-31.319252-23.058081-36.715733 2.936113-7.728454 5.854327-15.409797 8.732581-22.985958 13.813514.00869 20.439739 15.229794 23.355678 31.410004 3.461071-5.413734 6.681488-10.999649 10.4179-16.215954 10.209404-14.253082 26.285664-17.768059 39.052662-8.531471 8.676643 6.277313 11.586266 15.512299 12.000038 25.714825.229462 5.657867.110016 11.330772.110802 16.996894.006195 44.665886.003448 89.33178.003433 134.497689m8.443604 76.845901c1.275581-.345306 2.615882-.541412 3.81549-1.061828 5.095009-2.21045 7.872612-7.389984 7.057412-12.953095-.692376-4.724884-5.098938-9.032776-10.001954-9.777984-4.98278-.757325-10.207397 2.243347-12.473678 7.164001-3.416825 7.418762 1.487701 14.981567 11.60273 16.628906z" fill="#363636"/><path d="m515.785095 152.747314c22.699402-5.046508 44.845581-5.295791 65.463684 5.70514 15.833374 8.447967 25.326966 22.25383 25.531311 40.639373.42041 37.817887.165345 75.643311.176331 113.465607.000061.303284-.165344.606628-.330689 1.175537-8.676757 0-17.421936 0-26.876831 0 0-1.741791.000061-3.493866.000061-5.245971 0-32.990998.155213-65.983338-.126281-98.971924-.058838-6.897477-1.069214-13.953644-2.815003-20.629685-2.446228-9.354843-9.072632-15.362091-18.390442-17.962326-25.009033-6.979049-46.999572-1.766937-65.577575 16.680054-.331025.328689-.523468.79689-1.113343 1.721756 13.217408 2.04866 26.115479 4.047806 39.645386 6.144897-.547912 4.390488-1.072021 8.590607-1.499878 12.018952-4.641723 2.091934-9.20935 3.334518-12.787414 5.937469-6.883362 5.007447-7.669556 12.798477-7.667969 20.649765.005066 24.659943.001831 49.319886.0018 73.979828v5.686218c-9.115326 0-17.868225 0-26.971374 0-.106903-1.24591-.310028-2.515808-.310944-3.785827-.018432-25.99292-.016082-51.98584-.012359-77.978745.001159-8.276809 1.543182-16.000702 8.653442-21.316482 2.30014-1.71962 5.04892-2.839096 8.012726-4.46341-10.596344-1.281021-20.743378-2.507736-31.394928-3.79544.55542-5.730118 1.05835-11.138855 1.633881-16.539856.062042-.582367.405853-1.294159.853698-1.652542 10.738892-8.593796 21.321137-17.403077 32.3797-25.566636 3.753723-2.771041 8.723938-3.894287 13.52301-5.895752z" fill="#343434"/><path d="m432.986694 203v148.343506c-5.942657 0-11.639709 0-17.656799 0 0-86.937256 0-173.798371 0-260.993752h17.656799z" fill="#c57034"/><path d="m184.885651 100.040276c-.000046 83.927909-.000046 167.363227-.000046 251.268776-5.983673 0-11.675034 0-17.64708 0 0-86.910248 0-173.773469 0-260.966912h17.647156c0 3.027519 0 6.116532-.00003 9.698136z" fill="#c67135"/><path d="m906.880615 348.597961c-1.070007 1.366517-2.090881 2.979676-3.210327 3.051178-4.624084.295502-9.278137.123871-14.310547.123871 0-87.289978 0-174.269882 0-261.505577h17.52478c0 86.080879 0 171.974541-.003906 258.330528z" fill="#c67135"/><path d="m655.581116 351.59552c-.775513-1.839722-1.405152-3.555725-1.406128-5.272125-.048035-83.608887-.008545-167.217835-.136658-250.826554-.006714-4.387977 1.106934-5.997192 5.574768-5.564796 3.92627.379974 7.918396.079414 12.159302.079414v261.707596c-5.228699 0-10.490418 0-16.191284-.123535z" fill="#c67136"/><path d="m349.69043 98.536461c-1.545349 2.608604-2.906098 4.886772-4.250916 7.138267 15.213532-2.012031 32.924256-18.063888 34.894531-42.756057h25.695618c.511292 12.283401-3.686127 22.856613-11.431213 31.970512-14.722596 17.32457-33.887207 27.04171-55.988587 31.005013-8.76596 1.571937-17.738006 1.994934-27.024841 2.984588 0-4.817337 0-8.584251 0-12.524498 7.537323-2.035812 14.701233-4.755699 16.805237-13.987198-4.071076-.289642-7.769531-.127479-11.270905-.881073-10.804535-2.325416-16.908691-10.019478-17.054291-20.917938-.159912-11.964851 6.067688-20.4188 17.658753-23.423168 9.536011-2.471699 18.845734-1.791817 26.019806 5.615356 8.299438 8.569096 11.401916 18.95274 7.854156 30.77438-.476135 1.586571-1.143768 3.115677-1.907348 5.001816m-26.708832-8.655533c.496338.037178.992187.084473 1.489136.10994 4.666809.239204 8.090484-1.506562 9.545044-6.173874 1.60614-5.153641.268402-10.303162-3.170533-12.602539-3.498504-2.339218-10.528045-2.124924-13.63742.415733-3.250763 2.656189-4.526551 8.075043-1.937378 12.237732 1.523559 2.449417 4.558288 3.95887 7.711151 6.013008z" fill="#363636"/><path d="m835.388245 103.622513c4.815612 7.536957 9.072815 14.930839 10.461853 24.448532-44.082581-9.978317-87.825745-8.929176-131.728577-1.790947 3.766907-24.663574 18.736694-44.513321 43.919495-50.085945 17.40393-3.851257 34.685546-3.09507 51.236206 4.453552 10.901184 4.971985 19.320007 12.773666 26.111023 22.974808m-41.889405 4.372307c7.237427.861427 14.474915 1.722854 21.731079 2.586509-7.370483-15.036819-28.535461-24.862388-46.693969-22.035896-11.780518 1.833717-20.254212 7.484947-24.680908 19.399429 16.564697 0 32.64447 0 49.643798.049958z" fill="#363636"/><path d="m829.007324 9.003234h13.334717v47.436387c-7.979858 0-15.868164 0-24.171387 0 0-15.661461 0-31.301634 0-47.436387z" fill="#373737"/><g fill="#fbfbfb"><path d="m309.741119 223.277771c-3.30368 7.004562-7.728942 9.721741-13.770965 8.76059-4.735077-.753251-9.376007-5.362427-9.983795-9.915558-.894074-6.697693 4.058715-12.841599 10.932281-13.561478 6.801178-.712311 12.740509 4.424194 13.079437 11.347885.048493.99115-.08377 1.99115-.256958 3.368561z"/><path d="m766.579956 293.253174c-4.779724 5.810272-8.890808 7.226898-14.001343 5.068847-4.696594-1.983276-7.898864-7.062591-7.467407-11.844421.48938-5.422699 4.643372-9.955902 10.014526-10.887421 4.38086-.759765 7.81366.973847 10.466797 4.303803 3.215576 4.035828 3.433777 8.448456.987427 13.359192z"/><path d="m1075.224854 289.689392c-1.970826 8.462982-8.961304 12.444885-16.729859 9.930695-6.227051-2.015351-9.139282-10.001557-6.237427-17.104737 2.438477-5.968902 11.259522-8.657226 17.576294-5.226959 4.757202 2.583405 5.558472 7.103851 5.390992 12.401001z"/><path d="m964.267761 167.005188c5.992676-.070206 10.013855 2.522202 12.079773 7.603943 1.832947 4.508758 1.071472 8.845779-2.557434 12.316803-3.278137 3.135605-7.043884 4.959854-11.7146 3.293213-4.773742-1.703415-7.842285-4.994171-8.429321-10.069733-.591369-5.113754 1.744934-8.99971 6.065186-11.624557 1.233886-.749711 2.758911-1.02031 4.556396-1.519669z"/></g><path d="m1035.786255 274.786957c.195923-.031006.549316.095245.687378.346649-.215332.125183-.530029-.189362-.687378-.346649z" fill="#fff"/><path d="m105.895859 299.86792c-9.719872-1.669312-14.624398-9.232117-11.207573-16.650879 2.266281-4.920654 7.490898-7.921326 12.473678-7.164001 4.903016.745208 9.309578 5.0531 10.001954 9.777984.8152 5.563111-1.962403 10.742645-7.057412 12.953095-1.199608.520416-2.539909.716522-4.210647 1.083801z" fill="#fbfbfb"/><path d="m322.582703 89.819977c-2.753968-1.993187-5.788697-3.50264-7.312256-5.952057-2.589173-4.162689-1.313385-9.581543 1.937378-12.237732 3.109375-2.540657 10.138916-2.754951 13.63742-.415733 3.438935 2.299377 4.776673 7.448898 3.170533 12.602539-1.45456 4.667312-4.878235 6.413078-9.545044 6.173874-.496949-.025467-.992798-.072762-1.888031-.170891z" fill="#fbfbfb"/><path d="m793.039062 107.969841c-16.53955-.024979-32.619323-.024979-49.18402-.024979 4.426696-11.914482 12.90039-17.565712 24.680908-19.399429 18.158508-2.826492 39.323486 6.999077 46.693969 22.035896-7.256164-.863655-14.493652-1.725082-22.190857-2.611488z" fill="#fcfcfc"/></svg>