<svg enable-background="new 0 0 1008 366" viewBox="0 0 1008 366" xmlns="http://www.w3.org/2000/svg"><path d="m637 367c-212.333282 0-424.166595 0-635.999915 0-.000028-121.999939-.000028-243.999878-.000057-365.999866 335.99985-.000044 671.999728-.000044 1007.999728-.000089.000061 121.99981.000061 243.999665.000122 365.999741-123.833191.000214-247.666565.000214-371.999878.000214m199.85083-322.115974c-.183227-.161507-.366455-.323014-.190918-1.088128.888977-1.776836 1.927002-3.495712 2.643616-5.339542 6.446106-16.585602-4.457581-33.239929-21.163513-32.388602-12.264099.624971-19.476136 8.138899-19.275147 20.08171.179932 10.685836 6.830444 16.591812 19.079834 16.948562.966492.028149 1.932251.083691 3.409424.149147-1.745911 7.334172-7.347412 9.486599-13.524841 11.288498 0 1.492592-.027283 2.976429.007324 4.458817.037598 1.605724.132873 3.210106.215332 5.098659 23.604187.186089 44.754517-5.572284 62.047424-21.89347 8.614014-8.12999 13.891297-18.053635 13.86676-30.636553-7.062561 0-13.82611 0-20.778747 0-2.27948 16.06158-9.312866 28.586935-26.336548 33.320902m-695.99324 64.018425c-.194886-.16922-.389756-.33844-.252381-1.116204 1.412186-2.628212 3.141266-5.137283 4.181946-7.905174 4.610947-12.263962 2.077667-23.339912-6.705505-32.743034-7.244644-7.756012-16.632553-8.461739-26.331543-5.990906-11.595795 2.954056-17.827965 11.427704-17.686539 23.380592.128822 10.888863 6.217896 18.597115 17.003845 20.942787 3.507767.762856 7.214989.60862 11.354988.912278-2.165275 9.126976-9.193458 11.98677-16.859603 13.940826v11.415474c29.586845 2.209595 66.404426-9.861816 85.399223-35.910912 6.231903-8.546333 9.525375-18.082153 9.06366-28.976356-8.747956 0-17.198166 0-25.557084 0-2.794097 20.76239-12.197525 36.129791-33.611007 42.050629m652.284378 170.206466c.167724.132172.335449.264374.259826 1.161835-6.472961 21.583649 5.674317 39.293091 27.586304 39.865234 10.908203.28476 19.627747-4.497223 24.647217-14.099548 5.212402-9.971466 6.052673-20.629456-1.24823-30.100678-3.526184-4.57434-8.536194-8.004852-12.675049-11.771881 10.684326-4.329895 11.455139-5.485107 11.4552-17.857498.000122-27.999985 0-55.999985 0-83.999969 0-1.791291 0-3.582566 0-5.484146-9.566101 0-18.640686 0-28.015991 0 0 2.183822-.000061 4.002349-.000061 5.820877 0 27.333328.005432 54.666641-.003662 81.999969-.00238 7.212967-1.410584 9.17688-8.349243 11.631577-1.874085.662994-3.819092 1.123382-5.703003 1.761017-7.522949 2.546173-15.138123 4.862121-22.522949 7.762817-8.247071 3.23941-14.762513 8.978332-20.61554 17.145203 0-3.048249 0-4.687043-.000061-6.325867-.000305-28.999985.00824-57.99997-.006653-86.999954-.003967-7.776459-1.298034-15.231934-5.738098-21.853119-8.548218-12.74733-22.390137-15.055344-37.881531-12.162796-11.247497 2.100143-20.474243 15.327636-20.197754 27.70932.294678 13.197464 9.971436 24.867554 22.518799 26.726684 4.323853.640686 8.767578.472382 13.538208.691117v107.275253c8.326355 0 16.283264-.161774 24.227539.083954 2.951416.091308 3.832947-1.201355 4.890686-3.607575 2.331055-5.302581 4.600403-10.780853 7.907166-15.474243 6.446533-9.149566 13.599548-17.794861 25.92688-19.897583m-777.09569-78.702545c7.90134 9.240723 18.199503 11.440292 30.275042 9.74585v107.520904h28.511245c2.385407-32.913543 13.158867-62.256714 34.70533-87.153106 4.079308-4.713562 8.902725-9.022431 14.074448-12.484986 5.332863-3.57045 10.032448-1.205581 11.754509 5.020142.521057 1.883697.546234 3.945267.548569 5.925644.032791 27.830978.022293 55.661972.022338 83.492965 0 1.761506.000016 3.52298.000016 5.161652h28.012924c0-29.684479-.171311-59.002075.10376-88.315491.08316-8.861801-2.633179-15.844085-9.985093-20.922073 16.225159-10.310959 20.715592-28.516754 10.703492-42.867203-9.415146-13.494751-29.43068-15.715469-43.59166-5.630783-10.741646 7.649613-16.387291 28.24646-4.171883 40.442444-19.957633 8.660965-30.210479 27.189545-43.256675 43.586121 0-18.336579-.011429-36.162888.003128-53.989167.015465-18.940002-11.112446-35.379837-31.70097-35.38649-8.225387-.002655-16.300426.514115-22.773569 6.755158-10.834679 10.446152-12.405481 26.062332-3.234951 39.098419m354.133287 11.145248c-.045166 22.321229.039704 44.643784-.184661 66.963212-.132996 13.230194-5.606659 18.446685-18.656403 18.474792-14.65918.031586-29.318512.014252-43.977783-.003601-1.42154-.00174-2.842865-.157166-4.357758-.246796 0-6.788086.000031-13.112365.000031-19.436676 0-6.430786-.000031-12.861603-.000031-19.417053 2.100983.12146 3.599213.160095 5.087769.301331 22.074005 2.094238 37.263885-19.295945 28.152282-39.65503-6.63565-14.826751-27.663787-21.465744-43.358642-13.126999-10.485382 5.570969-16.898377 14.339371-16.917999 26.792969-.043641 27.652481-.05246 55.305039-.047821 82.957565.000152.921113.299408 1.842194.464599 2.79422 30.77005 0 61.249542.237641 91.722931-.092132 17.344421-.187683 29.402557-11.605225 29.673096-28.574494.459289-28.809814.551483-57.645385-.153259-86.446853-.467011-19.086365-9.2146-34.509125-27.366211-41.722641-28.800843-11.445542-57.840546-10.899506-85.909485 3.163467-9.901612 4.960877-18.059693 12.159317-23.15976 22.71962 5.187866 3.990295 10.122467 7.785751 13.987854 10.758835 4.496613-4.834015 7.931427-9.918991 12.600128-13.300354 18.527436-13.418884 39.246308-15.156723 60.849183-9.631622 11.261169 2.880126 17.639465 10.849899 20.095062 21.887939 1.001678 4.502502.973907 9.234009 1.456878 14.840301m162.39856 61.38237c10.15155 14.792847 20.30304 29.585694 30.668518 44.690278h33.849915c0-43.696961.16101-87.016968-.072754-130.334839-.105774-19.606644-11.317017-31.216812-30.82367-32.662628-12.1427-.900025-22.152282 2.558334-28.536865 14.033035-10.041016 18.04599.153748 39.00972 20.650696 41.580063 3.701172.464126 7.510437.066055 11.231384.066055v76.82692c-2.004028-2.703431-3.50531-4.691346-4.967773-6.707367-16.914551-23.317048-38.149964-42.163041-61.351715-58.904282-6.145478-4.434296-6.585419-4.050613-10.617066 2.323776-1.396698 2.208344-2.763367 4.435669-4.167633 6.692673 17.292633 11.468506 30.719055 26.415878 44.136963 42.396316m456.456055-93.395278c-4.991455-9.131638-12.555542-15.520752-21.995911-19.459702-20.661438-8.620926-41.923279-8.999344-62.852234-1.805908-16.420593 5.64389-25.810547 18.883835-32.405884 34.643677 5.375306 3.354812 10.39679 6.488784 15.48877 9.666763.49707-.880219.806518-1.281799.968567-1.735947 8.04425-22.54573 27.732239-29.795074 48.928833-28.617691 7.73822.42984 14.892456 3.047653 20.90094 8.36528 7.786987 6.89151 8.827881 16.134705 8.871765 25.535691.165771 35.474044.098572 70.949203.118408 106.423935.000977 1.750396.000122 3.500824.000122 5.222473h27.627014c.129639-.666046.298889-1.129669.298889-1.593293-.001098-37.806365.285706-75.617294-.283325-113.415313-.113464-7.537476-3.501648-15.02565-5.665954-23.229965m-343.016907 131.961288v43.833252h17.589905c0-87.314728 0-174.187637 0-260.97612-5.968384 0-11.551026 0-17.589905 0zm-436.88443-18v61.997253h17.577515c0-87.253997 0-174.223983 0-261.485908-3.988922 0-7.668015.323051-11.266312-.078224-4.98407-.555802-6.455826 1.011139-6.439743 6.230941.197357 64.111496.128571 128.223832.12854 193.335938m232.999969 11v50.994324h17.574189c0-87.257141 0-174.22731 0-261.482979-3.994904 0-7.674774.32653-11.272095-.078926-5.003326-.563942-6.443848 1.040062-6.429138 6.240906.191437 67.775131.127106 135.550994.127044 204.326675m358.808106-195.152313c-1.389832 11.389457 2.194946 20.804626 11.85321 27.174103 8.959168 5.908447 18.770935 6.569656 28.435669 1.837509 11.821473-5.788208 17.335022-19.289284 13.841492-32.575096-3.286316-12.497826-13.904175-20.469338-26.819458-20.13514-14.262268.369042-24.483887 8.944374-27.310913 23.698624z" fill="#fff"/><path d="m15.80907 200.133408c-8.933322-12.763123-7.36252-28.379303 3.472159-38.825455 6.473143-6.241043 14.548182-6.757813 22.773569-6.755158 20.588524.006653 31.716435 16.446488 31.70097 35.38649-.014557 17.826279-.003128 35.652588-.003128 53.989167 13.046196-16.396576 23.299042-34.925156 43.256675-43.586121-12.215408-12.195984-6.569763-32.792831 4.171883-40.442444 14.16098-10.084686 34.176514-7.863968 43.59166 5.630783 10.0121 14.350449 5.521667 32.556244-10.703492 42.867203 7.351914 5.077988 10.068253 12.060272 9.985093 20.922073-.275071 29.313416-.10376 58.631012-.10376 88.315491-9.273956 0-18.33432 0-28.012924 0 0-1.638672-.000016-3.400146-.000016-5.161652-.000045-27.830993.010453-55.661987-.022338-83.492965-.002335-1.980377-.027512-4.041947-.548569-5.925644-1.722061-6.225723-6.421646-8.590592-11.754509-5.020142-5.171723 3.462555-9.99514 7.771424-14.074448 12.484986-21.546463 24.896392-32.319923 54.239563-34.70533 87.153106-9.429535 0-18.680668 0-28.511245 0 0-35.693573 0-71.427719 0-107.520904-12.075539 1.694442-22.373702-.505127-30.51225-10.018814m131.18742-7.439957c4.107605-3.163666 6.531174-7.126373 5.408738-12.483139-1.487519-7.099152-8.710602-11.312592-15.611039-9.261124-6.6996 1.991745-10.504577 8.981415-8.315399 15.272553 2.414261 6.937927 11.200882 11.321914 18.5177 6.47171m-116.19102-.982452c8.247016 5.75035 18.280178 1.937973 19.227642-7.306077.580082-5.659667-2.374306-10.558731-7.6279-12.648849-4.742115-1.886627-10.117469-.2798-13.273304 3.967712-3.468498 4.668335-3.07344 10.07576 1.673562 15.987214z" fill="#353535"/><path d="m792.67395 278.671417c-11.859314 2.540222-19.012329 11.185517-25.458862 20.335083-3.306763 4.69339-5.576111 10.171662-7.907166 15.474243-1.057739 2.40622-1.93927 3.698883-4.890686 3.607575-7.944275-.245728-15.901184-.083954-24.227539-.083954 0-36.094147 0-71.698578 0-107.275253-4.77063-.218735-9.214355-.050431-13.538208-.691117-12.547363-1.85913-22.224121-13.52922-22.518799-26.726684-.276489-12.381684 8.950257-25.609177 20.197754-27.70932 15.491394-2.892548 29.333313-.584534 37.881531 12.162796 4.440064 6.621185 5.734131 14.07666 5.738098 21.853119.014893 28.999984.006348 57.999969.006653 86.999954.000061 1.638824.000061 3.277618.000061 6.325867 5.853027-8.166871 12.368469-13.905793 20.61554-17.145203 7.384826-2.900696 15-5.216644 22.522949-7.762817 1.883911-.637635 3.828918-1.098023 5.703003-1.761017 6.938659-2.454697 8.346863-4.41861 8.349243-11.631577.009094-27.333328.003662-54.666641.003662-81.999969 0-1.818528.000061-3.637055.000061-5.820877h28.015991v5.484146c0 27.999984.000122 55.999984 0 83.999969-.000061 12.372391-.770874 13.527603-11.4552 17.857498 4.138855 3.767029 9.148865 7.197541 12.675049 11.771881 7.300903 9.471222 6.460632 20.129212 1.24823 30.100678-5.01947 9.602325-13.739014 14.384308-24.647217 14.099548-21.911987-.572143-34.059265-18.281585-27.331116-40.47528-.157531-.736481-.570251-.862885-.983032-.989289m31.097229 25.21283c7.966187-3.581452 10.769043-9.656281 7.945984-17.222046-2.045288-5.481262-8.425598-8.107269-15.075378-6.204804-6.512268 1.863099-9.250061 7.433686-7.671082 15.608582 1.12262 5.812592 5.25354 8.158112 14.800476 7.818268m-90.643677-126.338104c-2.844604-5.046601-7.236694-7.394837-12.865905-6.348862-4.772339.886764-7.838929 4.262939-9.144898 8.893082-1.324463 4.695648.769104 9.563827 5.015137 12.591903 4.068542 2.901489 8.679016 2.878006 12.992554-.066162 4.893249-3.339844 6.173339-7.537536 4.003112-15.069961z" fill="#353535"/><path d="m370.158386 211.062134c-.461792-5.116806-.434021-9.848313-1.435699-14.350815-2.455597-11.03804-8.833893-19.007813-20.095062-21.887939-21.602875-5.525101-42.321747-3.787262-60.849183 9.631622-4.668701 3.381363-8.103515 8.466339-12.600128 13.300354-3.865387-2.973084-8.799988-6.76854-13.987854-10.758835 5.100067-10.560303 13.258148-17.758743 23.15976-22.71962 28.068939-14.062973 57.108642-14.609009 85.909485-3.163467 18.151611 7.213516 26.8992 22.636276 27.366211 41.722641.704742 28.801468.612548 57.637039.153259 86.446853-.270539 16.969269-12.328675 28.386811-29.673096 28.574494-30.473389.329773-60.952881.092132-91.722931.092132-.165191-.952026-.464447-1.873107-.464599-2.79422-.004639-27.652526.00418-55.305084.047821-82.957565.019622-12.453598 6.432617-21.222 16.917999-26.792969 15.694855-8.338745 36.722992-1.699752 43.358642 13.126999 9.111603 20.359085-6.078277 41.749268-28.152282 39.65503-1.488556-.141236-2.986786-.179871-5.087769-.301331 0 6.55545.000031 12.986267.000031 19.417053 0 6.324311-.000031 12.64859-.000031 19.436676 1.514893.08963 2.936218.245056 4.357758.246796 14.659271.017853 29.318603.035187 43.977783.003601 13.049744-.028107 18.523407-5.244598 18.656403-18.474792.224365-22.319428.139495-44.641983.163482-67.452698m-67.52536 27.869751c8.135254 7.263046 18.530213.880005 19.518402-6.059586.810303-5.690567-1.954407-11.379288-6.919433-13.607223-4.850098-2.176377-10.297791-.70546-13.751923 3.713089-3.650116 4.66925-3.444366 9.926239 1.152954 15.95372z" fill="#353535"/><path d="m532.346191 272.662903c-13.185974-15.709351-26.612396-30.656723-43.905029-42.125229 1.404266-2.257004 2.770935-4.484329 4.167633-6.692673 4.031647-6.374389 4.471588-6.758072 10.617066-2.323776 23.201751 16.741241 44.437164 35.587234 61.351715 58.904282 1.462463 2.016021 2.963745 4.003936 4.967773 6.707367 0-26.060242 0-51.339463 0-76.82692-3.720947 0-7.530212.398071-11.231384-.066055-20.496948-2.570343-30.691712-23.534073-20.650696-41.580063 6.384583-11.474701 16.394165-14.93306 28.536865-14.033035 19.506653 1.445816 30.717896 13.055984 30.82367 32.662628.233764 43.317871.072754 86.637878.072754 130.334839-11.632935 0-23.191834 0-33.849915 0-10.365478-15.104584-20.516968-29.897431-30.900452-44.961365m27.681092-101.565903c-1.369873.575928-2.86084.965347-4.087464 1.761871-4.075683 2.646637-6.350586 6.471436-5.734131 11.349244.633667 5.014221 3.648804 8.332046 8.539063 9.97818 4.926086 1.658187 8.806641-.026429 12.05011-3.58928 3.146972-3.456894 4.340332-7.46405 2.205993-11.914398-2.427551-5.06163-6.223205-8.106582-12.973571-7.585617z" fill="#343434"/><path d="m989.177246 179.885406c2.02124 7.857621 5.409424 15.345795 5.522888 22.883271.569031 37.798019.282227 75.608948.283325 113.415313 0 .463624-.16925.927247-.298889 1.593293-9.009948 0-17.943969 0-27.627014 0 0-1.721649.000855-3.472077-.000122-5.222473-.019836-35.474732.047363-70.949891-.118408-106.423935-.043884-9.400986-1.084778-18.644181-8.871765-25.535691-6.008484-5.317627-13.16272-7.93544-20.90094-8.36528-21.196594-1.177383-40.884583 6.071961-48.928833 28.617691-.162049.454148-.471497.855728-.968567 1.735947-5.09198-3.177979-10.113464-6.311951-15.48877-9.666763 6.595337-15.759842 15.985291-28.999787 32.405884-34.643677 20.928955-7.193436 42.190796-6.815018 62.852234 1.805908 9.440369 3.93895 17.004456 10.328064 22.138977 19.806396z" fill="#343434"/><path d="m646.017273 311c0-72.434128 0-144.368256 0-216.642868h17.589905v260.97612c-5.565674 0-11.256897 0-17.589905 0 0-14.640808 0-29.23703 0-44.333252z" fill="#c57034"/><path d="m209.132874 293c0-64.612106.068786-128.724442-.128571-192.835938-.016083-5.219802 1.455673-6.786743 6.439743-6.230941 3.598297.401275 7.27739.078224 11.266312.078224v261.485908c-5.71019 0-11.276795 0-17.577515 0 0-20.843109 0-41.420196.000031-62.497253z" fill="#c67136"/><path d="m442.132874 304c0-68.275681.064331-136.051544-.127106-203.826675-.01471-5.200844 1.425812-6.804848 6.429138-6.240906 3.597321.405456 7.277191.078926 11.272095.078926v261.482979c-5.699555 0-11.266144 0-17.574189 0 0-17.168427 0-34.08136.000062-51.494324z" fill="#c67136"/><path d="m141.411728 109.443214c20.859344-6.461601 30.262772-21.829002 33.056869-42.591392h25.557084c.461715 10.894203-2.831757 20.430023-9.06366 28.976356-18.994797 26.049096-55.812378 38.120507-85.399223 35.910912 0-3.740837 0-7.509987 0-11.415474 7.666145-1.954056 14.694328-4.81385 16.859603-13.940826-4.139999-.303658-7.847221-.149422-11.354988-.912278-10.785949-2.345672-16.875023-10.053924-17.003845-20.942787-.141426-11.952888 6.090744-20.426536 17.686539-23.380592 9.69899-2.470833 19.086899-1.765106 26.331543 5.990906 8.783172 9.403122 11.316452 20.479072 6.705505 32.743034-1.04068 2.767891-2.76976 5.276962-4.54863 8.402374-.441406.853752-.516113 1.210312-.59082 1.566872.588013-.135697 1.17601-.271401 1.764023-.407105m-26.055595-35.561546c-5.425438 1.731903-8.05806 5.591141-7.26075 10.643761.912742 5.784141 5.147766 9.445946 10.960884 9.477302 5.641487.030434 8.514663-2.628425 9.42968-8.72631 1.193329-7.952614-3.16375-12.002556-13.129814-11.394753z" fill="#363636"/><path d="m837.374695 45.39637c16.499817-5.246311 23.533203-17.771666 25.812683-33.833246h20.778747c.024537 12.582918-5.252746 22.506563-13.86676 30.636553-17.292907 16.321186-38.443237 22.079559-62.047424 21.89347-.082459-1.888553-.177734-3.492935-.215332-5.098659-.034607-1.482388-.007324-2.966225-.007324-4.458817 6.177429-1.801899 11.77893-3.954326 13.524841-11.288498-1.477173-.065456-2.442932-.120998-3.409424-.149147-12.24939-.35675-18.899902-6.262726-19.079834-16.948562-.200989-11.942811 7.011048-19.456739 19.275147-20.08171 16.705932-.851327 27.609619 15.803 21.163513 32.388602-.716614 1.84383-1.754639 3.562706-3.004028 5.828415-.422242.831173-.484009 1.17347-.545777 1.515766.540344-.134724 1.080628-.269447 1.620972-.404167m-25.284424-15.024494c4.09375 3.223652 8.846985 3.850765 11.63501 1.318352 3.258423-2.95971 3.280639-6.933251 1.87207-10.510684-1.659973-4.215997-5.716675-4.671934-9.663879-4.005521-5.445374.919342-7.138977 6.104374-3.843201 13.197853z" fill="#363636"/><path d="m800.965698 108.933716c2.802246-14.340279 13.023865-22.915611 27.286133-23.284653 12.915283-.334198 23.533142 7.637314 26.819458 20.13514 3.49353 13.285812-2.020019 26.786888-13.841492 32.575096-9.664734 4.732147-19.476501 4.070938-28.435669-1.837509-9.658264-6.369477-13.243042-15.784646-11.82843-27.588074m31.344177-6.980164c-.800354-.216049-1.589599-.555374-2.402832-.628799-7.03186-.634918-13.054016 4.629486-13.401062 11.667877-.383544 7.778656 4.18512 12.395081 12.157959 12.285149 5.317994-.073326 9.982422-3.667824 11.341553-8.740212 1.573059-5.870773-.617554-10.406555-7.695618-14.584015z" fill="#363636"/><g fill="#fbfbfb"><path d="m146.66127 192.875595c-6.981598 4.66806-15.768219.284073-18.18248-6.653854-2.189178-6.291138 1.615799-13.280808 8.315399-15.272553 6.900437-2.051468 14.12352 2.161972 15.611039 9.261124 1.122436 5.356766-1.301133 9.319473-5.743958 12.665283z"/><path d="m30.533379 191.446564c-4.474911-5.647019-4.869969-11.054444-1.401471-15.722779 3.155835-4.247512 8.531189-5.854339 13.273304-3.967712 5.253594 2.090118 8.207982 6.989182 7.6279 12.648849-.947464 9.24405-10.980626 13.056427-19.499733 7.041642z"/><path d="m823.359741 303.943359c-9.135498.280732-13.266418-2.064788-14.389038-7.87738-1.578979-8.174896 1.158814-13.745483 7.671082-15.608582 6.64978-1.902465 13.03009.723542 15.075378 6.204804 2.823059 7.565765.020203 13.640594-8.357422 17.281158z"/><path d="m733.32605 177.866287c1.971679 7.212281.691589 11.409973-4.20166 14.749817-4.313538 2.944168-8.924012 2.967651-12.992554.066162-4.246033-3.028076-6.3396-7.896255-5.015137-12.591903 1.305969-4.630143 4.372559-8.006318 9.144898-8.893082 5.629211-1.045975 10.021301 1.302261 13.064453 6.669006z"/></g><path d="m792.907959 278.890167c.178772-.092346.591492.034058.870728.387909-.30127.095215-.468995-.036987-.870728-.387909z" fill="#fff"/><path d="m302.358398 238.667282c-4.322692-5.762878-4.528442-11.019867-.878326-15.689117 3.454132-4.418549 8.901825-5.889466 13.751923-3.713089 4.965026 2.227935 7.729736 7.916656 6.919433 13.607223-.988189 6.939591-11.383148 13.322632-19.79303 5.794983z" fill="#fcfcfc"/><path d="m560.431396 171.056519c6.346253-.480484 10.141907 2.564468 12.569458 7.626098 2.134339 4.450348.940979 8.457504-2.205993 11.914398-3.243469 3.562851-7.124024 5.247467-12.05011 3.58928-4.890259-1.646134-7.905396-4.963959-8.539063-9.97818-.616455-4.877808 1.658448-8.702607 5.734131-11.349244 1.226624-.796524 2.717591-1.185943 4.491577-1.802352z" fill="#fbfbfb"/><path d="m115.734772 73.828873c9.587425-.555008 13.944504 3.494934 12.751175 11.447548-.915017 6.097885-3.788193 8.756744-9.42968 8.72631-5.813118-.031356-10.048142-3.693161-10.960884-9.477302-.79731-5.05262 1.835312-8.911858 7.639389-10.696556z" fill="#fbfbfb"/><path d="m141.134659 109.172836c-.310944.406082-.898941.541786-1.486954.677483.074707-.35656.149414-.71312.424698-1.262596.395431-.023712.590301.145508 1.062256.585113z" fill="#fff"/><path d="m811.869507 30.040421c-3.075012-6.762024-1.381409-11.947056 4.063965-12.866398 3.947204-.666413 8.003906-.210476 9.663879 4.005521 1.408569 3.577433 1.386353 7.550974-1.87207 10.510684-2.788025 2.532413-7.54126 1.9053-11.855774-1.649807z" fill="#fafafa"/><path d="m837.112793 45.140198c-.278442.390892-.818726.525615-1.35907.660339.061768-.342296.123535-.684593.366394-1.213962.364258-.025563.547486.135944.992676.553623z" fill="#fff"/><path d="m832.681274 102.047356c6.706665 4.083656 8.897278 8.619438 7.324219 14.490211-1.359131 5.072388-6.023559 8.666886-11.341553 8.740212-7.972839.109932-12.541503-4.506493-12.157959-12.285149.347046-7.038391 6.369202-12.302795 13.401062-11.667877.813233.073425 1.602478.41275 2.774231.722603z" fill="#fbfbfb"/></svg>