<svg enable-background="new 0 0 3620 1368" viewBox="0 0 3620 1368" xmlns="http://www.w3.org/2000/svg"><path d="m2708 1370c-902.666626 0-1804.333313 0-2706 0 0-456 0-912 0-1368h3620v1368c-304.333252 0-608.666748 0-914 0m219.313965-709.902161c-63.070801 27.576355-75.139649 92.602356-60.236572 145.484253 14.927734 52.968872 72.921386 93.118531 150.114502 73.379517.079101.319824.227783.639587.228027.959473.094482 155.96173.178955 311.923522.276123 467.885314.000488.65625.154785 1.319092.296143 1.965943.065185.297607.22998.599975.427734.834595.209961.249633.512207.421753 1.337646 1.070434 32.058106 0 64.681885-.097534 97.3042.104736 4.894531.030396 6.858642-3.115478 9.563232-5.996704 21.657471-23.0708 42.740479-46.729736 65.249512-68.941894 37.360351-36.867676 78.581787-68.958862 124.16748-95.234375 15.832031-9.12561 32.168701-17.149536 50.552246-23.899536v10.553955c.000244 23.328491-.430176 46.667969.159912 69.981567.361573 14.272949 1.11792 28.724976 3.732178 42.716309 7.95459 42.571167 33.156494 69.389648 75.746826 79.081299 22.69043 5.163208 45.63794 5.726562 68.493653 1.694702 40.178711-7.088013 70.915771-27.635865 89.134521-64.954224 13.901367-28.473755 17.031738-58.553467 12.220459-89.600098-5.631592-36.341308-23.098144-65.614257-53.254883-86.861206-19.698486-13.878662-41.909912-21.565551-65.730468-24.615234-8.496827-1.087769-17.050293-1.732422-26.360108-2.657104 0-147.580872 0-294.777344 0-442.728577-12.101318 0-23.378174.336059-34.620117-.146668-5.346924-.229614-8.566162 1.814637-11.791992 5.678345-17.08252 20.46051-34.227783 40.873291-51.700928 60.999268-4.451416 5.127258-6.169434 10.279113-6.15918 17.038696.180909 118.64209.130371 237.284546.130371 355.92688v11.495849c-39.870361 11.334839-76.01538 28.114502-110.874511 47.8573-45.465821 25.749756-86.502686 57.443726-124.791016 92.841919-2.258301 2.088013-4.785644 3.88501-9.088867 7.346436 0-6.157593 0-9.702881 0-13.248291 0-151.63562-.006104-303.271179.009277-454.9068.001709-17.047607-1.233398-33.947692-5.710937-50.475341-8.786377-32.431702-27.882569-56.352784-58.73999-70.258545-14.686768-6.618531-30.275635-10.135559-46.296876-11.533325-28.21289-2.461243-55.872558-.394654-83.787597 11.161132m-1401.924927 310.901795c-.098633 40.318176-.196045 80.636352-.320068 120.95459-.000855.269287-.358277.547241-.570801.8031-.205322.246948-.438232.470947.065308-.062744-13.646607 1.920532-26.677613 2.824463-39.260132 5.694458-42.454102 9.683716-75.597168 32.700073-95.991944 71.70752-18.768921 35.897705-21.356811 73.836181-9.842407 112.493652 9.353638 31.402344 29.349732 53.94104 59.194336 67.74231 15.293823 7.072265 31.362793 10.935424 48.034546 12.629272 26.462158 2.688477 52.656006 1.731079 77.897705-7.459106 28.271362-10.293335 47.685669-29.581299 57.412842-58.366456 5.951782-17.61267 7.448486-35.81665 7.607178-54.175537.219116-25.328125.041137-50.65979.076294-75.989868.003906-2.857422.286132-5.714599.466308-9.074463 1.965332.486695 3.232056.733277 4.457031 1.113648 22.732666 7.059082 43.749756 17.802246 63.887696 30.28125 34.730591 21.521484 66.10852 47.424194 94.652343 76.456665 27.547852 28.019165 53.749146 57.370361 80.24646 86.40625 4.382203 4.802246 8.544312 7.528564 15.275025 7.012207 7.95227-.610108 16.010132-.517822 23.978515-.02356 6.252564.38794 10.440308-1.545044 14.477539-6.532593 12.994507-16.053222 26.59314-31.616943 39.906006-47.41394 5.578614-6.619629 13.139893-12.578857 15.937378-20.247314 2.798096-7.670166.851075-17.099732.851807-25.758057.014648-198.974731.012817-397.949463-.000732-596.924194-.000245-3.843689-.178467-7.687378-.283936-11.945252-12.187988 0-23.17395.342774-34.123291-.141601-5.656128-.250183-9.178101 1.837707-12.649902 6.010315-16.408936 19.721679-32.842896 39.434692-49.804322 58.6781-5.451416 6.184937-7.477905 12.372193-7.467529 20.545166.213379 167.978394.162231 335.957153.148315 503.935791-.000366 3.835816-.18164 7.671753-.345214 14.14856-4.939331-4.075196-8.022095-6.327271-10.770752-8.931763-24.952637-23.64209-51.467774-45.403809-79.151245-65.74646-38.552369-28.329346-79.43628-52.468384-124.901612-68.071655-11.223633-3.852051-22.820801-6.616333-34.80603-10.040528 0-3.758789-.000122-7.390014-.000122-11.021118-.000122-102.653625.030151-205.307251-.029785-307.960876-.01001-17.022888-1.104004-33.983399-5.593384-50.515076-9.859985-36.308533-31.911499-61.847595-67.75647-74.1073-37.435791-12.803589-75.413452-12.643249-112.841919-.238037-25.427856 8.427674-45.78894 24.239441-59.283935 47.921387-10.303711 18.081787-14.591187 37.75354-14.898316 58.407715-.401489 26.99237 5.349488 52.330322 21.302368 74.553222 21.571534 30.050171 52.190918 43.264344 88.094727 46.04889 15.681641 1.216186 31.119385-.482544 46.724121-5.898133zm-566.758484-257.200073c-10.179504 24.730041-12.302978 50.535339-8.081482 76.563781 6.013916 37.079895 24.600708 64.998169 61.528443 78.114807 1.31372.466614 2.43219 1.482972 3.640258 2.242249-13.291442 11.722656-26.335876 22.616516-38.696777 34.237427-47.852173 44.98822-87.903442 96.533691-124.431396 150.820984-22.486267 33.418945-43.480408 67.84143-65.172791 101.79541-1.86206 2.914551-3.937256 5.692993-6.260742 9.033935-5.419129-4.0625-3.667359-8.738647-3.670349-12.629516-.096802-123.991577.030273-247.98346-.233277-371.974549-.029602-13.925476-.998596-28.066772-3.561523-41.727234-7.020691-37.419738-26.656311-66.121032-62.880066-80.461792-42.316528-16.752746-85.373596-16.633361-127.614502.393311-30.396606 12.252441-50.726135 34.775269-60.485962 66.333374-6.321533 20.440674-7.161133 41.402222-3.891784 62.337219 3.453857 22.1167 11.761169 42.460144 27.633544 58.748169 32.705628 33.562134 72.743287 41.883972 117.491089 33.016114 2.742371-.543458 5.466126-1.180909 9.342285-2.023194v472.575256h97.723816c6.52417-16.851928 12.663758-33.379638 19.288819-49.710449 33.484802-82.540893 72.021911-162.478027 122.017578-236.518188 34.298035-50.793152 73.749451-97.055542 119.972961-137.409546 6.888916-6.014099 14.077393-11.684876 22.209473-18.409241 2.946167 6.77179 5.698975 12.047608 7.574951 17.618653 4.616333 13.708984 5.917603 27.956359 5.917847 42.348144.002441 125.991516.001343 251.983093.001465 377.97467 0 3.624878.000122 7.249878.000122 11.935425 11.869384 0 23.139648-.276123 34.386352.117676 5.534424.193848 9.127075-1.592041 12.688477-5.892578 17.213989-20.786743 34.722534-41.332153 52.332641-61.785889 3.481934-4.044189 4.880616-8.14624 4.873536-13.483764-.136109-101.993042-.057618-203.986206-.185181-305.979187-.011231-8.961121-.535889-18.012391-1.869263-26.864014-4.005127-26.589111-14.626831-49.684448-36.812256-66.297363-1.443969-1.081238-2.355835-2.872803-3.985107-4.926087 3.340454-2.101745 6.046143-3.860962 8.80542-5.531616 25.339722-15.342285 42.732666-36.733276 49.985351-65.794128 5.838257-23.392884 5.643799-46.859803.177369-70.256409-8.984131-38.451416-32.237183-64.249939-69.613892-76.961548-24.809692-8.437683-50.404907-9.51178-75.995605-5.079834-38.082215 6.595215-67.562562 25.408203-84.149842 63.509522m-618.549042 408.704711c-14.906646 0-29.813293 0-45.138732 0-.089478-1.950195-.315552-4.579467-.315735-7.20874-.016358-208.956421.012542-417.912781-.151917-626.869079-.004791-6.093842 2.022247-9.543824 7.031098-12.759797 27.135528-17.422851 50.890686-38.724975 70.740539-64.161621 40.172608-51.47937 62.283051-109.390564 57.418915-175.24031-5.728424-77.550568-44.853882-132.953141-117.364441-161.736534-61.155853-24.276093-123.727142-23.335267-185.590118-.987755-35.034119 12.655807-64.133103 33.859909-85.078614 65.055496-31.755801 47.296097-37.340861 99.127609-22.82966 153.016251 9.396908 34.89624 31.153578 60.934112 65.746179 74.130188 30.580575 11.665588 61.905304 12.256103 93.082139 2.441986 33.471603-10.536408 54.346786-33.516083 63.636261-67.193512 4.695327-17.022095 4.695419-34.397217 2.042099-51.574463-2.789567-18.059296-10.318787-34.226669-22.804169-48.012695-29.296539-32.34845-85.111633-38.679902-119.254715-22.699967-7.164101 3.353012-13.61023 8.240036-20.53347 12.510407-3.881806-1.131195-6.288811-3.189347-3.767823-7.801438 2.867714-5.246399 5.281037-10.795151 8.614426-15.723785 15.122452-22.359558 36.344162-36.781388 61.43499-45.725998 33.565353-11.965653 68.005493-13.397865 102.316803-4.888535 43.586685 10.809662 73.387924 37.507691 87.147751 81.009293 9.15509 28.943893 9.556976 58.34462 4.375458 87.904739-7.096833 40.487061-27.238129 74.000458-56.552765 102.225556-24.012299 23.119873-51.94014 40.415832-82.280731 53.9664-3.877976 1.731933-7.700699 3.587585-11.67775 5.446045v10.515289c.00003 257.946198-.019684 515.892365.074615 773.838532.003647 9.968628.44426 20.027587 1.805252 29.889404 5.81807 42.157959 27.566926 72.786011 68.272919 86.903198 39.021393 13.532837 78.646637 13.208618 117.065857-3.193848 26.400665-11.271362 44.809418-30.983764 54.100617-58.285644 10.274963-30.192627 10.737762-60.795166 1.181213-91.330566-8.450806-27.002442-25.080292-47.399781-50.132507-60.754395-12.782715-6.814087-26.479401-10.689819-42.613984-12.704102m2367.758088-125.504272c0-115.228943 0-230.457947 0-346.67865-11.848633 0-22.77295.32367-33.665284-.1297-5.890869-.245239-9.843994 1.659302-13.582519 6.169617-16.160401 19.497009-32.403809 38.936951-49.124268 57.951599-5.613769 6.383972-7.998291 12.76886-7.984863 21.353516.242188 153.657471.212158 307.315552.103516 460.973389-.008301 11.638061-.390381 23.350585-1.71753 34.899902-5.315429 46.258423-27.703125 70.523315-72.718994 76.52185-17.708252 2.359742-35.914551 2.510498-53.787353 1.592774-12.772705-.656006-25.73877-3.627197-37.959473-7.594727-20.489258-6.651733-34.19873-21.033325-41.584961-41.463745-6.241699-17.265869-6.975342-35.267334-7.087891-53.220703-.32788-52.328247.006836-104.660644-.277587-156.98938-.035401-6.522095 1.866699-10.003418 7.60498-13.33435 25.556397-14.835022 48.156494-33.473145 67.067627-56.22461 45.092773-54.249939 66.208252-116.188476 54.709961-186.564148-11.568604-70.807556-52.968262-117.870117-121.142822-140.127685-40.824463-13.32843-82.661621-13.416138-124.321289-3.369751-30.583496 7.375366-58.696534 20.38092-81.205567 42.802063-50.196045 49.999878-61.775879 110.350219-42.95581 176.775818 10.096191 35.635315 33.797851 60.992675 69.953369 72.383117 28.77539 9.065308 57.854248 8.857422 86.261963-1.952758 26.754883-10.181153 45.297363-28.982361 54.315185-56.247254 8.417969-25.451477 8.272949-51.186706-1.004638-76.457092-6.379395-17.376282-17.051514-32.163635-33.3125-41.148621-37.970459-20.980652-76.398682-23.839111-114.170166.911377-4.351563 2.851502-7.033936 2.67273-10.135498-1.53656 7.098388-18.827392 19.218261-34.042663 35.282958-46.005371 34.254883-25.507996 72.59961-31.950623 113.705567-22.494202 38.708984 8.905091 64.778564 32.900757 78.646728 69.782593 11.586182 30.812622 11.806641 62.610962 4.990479 94.4646-8.03833 37.564575-28.359131 67.860656-56.993897 92.838012-24.343994 21.234742-52.184082 36.736451-81.953369 48.95459-3.906738 1.603455-7.767334 3.318482-11.299804 4.832032-.160157 1.900878-.317139 2.891784-.316895 3.882751.013672 66.66272-.158691 133.326538.240723 199.986938.075439 12.582276 1.474365 25.339356 3.909179 37.691163 8.097413 41.078247 30.102784 71.788574 68.572266 90.142089 23.182861 11.060181 47.748047 16.479493 72.911377 19.706177 40.149902 5.148438 80.449463 5.500733 120.724609 1.867188 23.222657-2.095093 46.161377-5.968506 68.347168-13.723755 46.212159-16.153931 75.876465-47.28125 85.261719-95.694336 3.527344-18.196167 5.263184-36.993408 5.442139-55.539551.63623-65.98999.250488-131.98999.251465-199.986206m-557.581055-569.615387c-17.03125 36.959961-15.869385 76.227264-15.499268 116.012116 3.396973.179199 5.977295.434082 8.557618.434326 166.619628.015869 333.239746.095215 499.858886-.160462 12.56128-.019287 25.341309-1.372131 37.637207-3.937561 39.703125-8.283447 67.047852-31.009491 78.845703-70.67923 5.504395-18.508636 6.139893-37.53656 3.949707-56.482818-4.3208-37.379181-21.890625-66.843872-57.176757-81.856293-39.69751-16.889191-80.942139-18.515442-121.741944-3.122894-28.356933 10.698151-46.883789 30.904297-53.357177 61.171936-.39209 1.833801-1.107666 3.598419-1.716553 5.534759-7.184815-6.615936-13.607422-13.366577-20.85791-19.063934-34.110108-26.803589-73.929688-38.68631-116.309815-43.330231-30.655273-3.3591-61.245849-1.201019-91.698486 2.611542-23.49707 2.941712-46.508057 8.154083-68.503418 17.302521-36.035156 14.988129-64.641113 38.056183-81.987793 75.566223m-388.629517-89.923462c-8.223632-1.256531-16.409179-2.917572-24.677734-3.698852-33.971924-3.210114-67.879883-2.52707-101.729248 1.999908-31.868042 4.262024-62.745361 11.910584-91.798706 25.995544-25.534058 12.378846-47.948731 28.79184-65.236694 51.584809-21.072144 27.782318-30.53357 59.571075-31.673951 94.052887-.3927 11.875122-.062256 23.774231-.062256 36.046325h538.059571c0-75.257537 0-150.105896 0-225.621063-8.788086 0-17.099488.329041-25.368897-.119049-5.256836-.28482-8.526611 1.474182-11.638427 5.7052-10.459839 14.221772-21.240601 28.212921-32.151368 42.093689-2.855224 3.632416-4.086181 7.271607-4.041259 11.849335.176635 17.99823.095703 35.999268.041748 53.999085-.006226 2.087829-.441162 4.174377-.673828 6.230407-8.407715-11.738525-15.694214-23.740539-24.744874-34.21878-32.369018-37.475434-74.905395-56.497345-124.304077-65.899445m-639.249145 81.845001c-13.06189 18.525635-29.448364 33.388947-49.023071 44.815918-35.932007 20.975769-75.340149 27.289734-116.155518 27.610779-2.066895.016235-4.144104-1.286926-6.216553-1.975799.83313-2.31604 1.225159-4.936554 2.576721-6.894806 5.473511-7.930329 11.7995-15.317932 16.791871-23.525666 12.341491-20.289978 17.968688-42.764007 20.372985-66.228729 2.82428-27.563476.982666-54.654785-9.042846-80.620911-10.265137-26.586822-28.657898-45.689971-56.191651-54.32199-31.539734-9.887955-63.107544-9.168427-93.787903 3.75827-23.028991 9.702881-38.611145 26.820007-46.576965 50.559784-5.723999 17.058654-6.732971 34.527008-3.62384 52.260162 4.960693 28.292938 20.322754 48.762268 46.165039 61.229218 13.401001 6.464935 27.809082 9.100586 42.547119 9.739898 21.798828.945587 42.39447-3.164581 60.161072-15.798614 5.766601 1.638397 5.161682 4.890228 3.413025 8.671631-6.256104 13.52832-15.250306 24.893493-26.523255 34.613556-25.908447 22.339538-56.767578 34.21939-89.288147 42.66986-3.166443.822815-6.332763 1.646058-9.457946 2.458374v32.193604c22.902343.663635 45.1604 1.270447 67.415893 1.961548 44.622498 1.385559 89.21991 2.74237 133.757507-2.294739 30.213562-3.417053 59.902649-9.089478 88.590638-19.184326 35.306762-12.423828 67.711425-29.87497 93.019043-58.209168 33.062988-37.016906 45.60791-80.429962 38.737182-129.47879-1.856689-13.2547-7.957275-24.242523-20.133301-30.466247-16.404785-8.385254-34.161621-9.559754-52.986328-8.819489-.415893 44.86673-8.487915 86.881836-34.540771 125.276672m1633.411377-300.809547c-.675781 2.229019-1.317871 4.468933-2.032471 6.685371-11.0354 34.212433-31.355713 60.694535-64.134277 76.696976-26.860596 13.113236-55.598145 17.922104-85.168213 18.694397-1.921143.050171-4.844727-1.16301-5.569336-2.638947-.75708-1.541824.025146-4.474487 1.119629-6.15921 2.342529-3.605911 5.541504-6.645431 8.003662-10.185364 23.946289-34.428817 30.822754-72.718078 23.221191-113.304702-6.937744-37.041863-28.06372-62.770396-65.459228-73.021406-20.848877-5.715176-42.088623-6.638113-63.341065-2.612709-40.167236 7.607912-64.227539 31.746397-69.704834 69.400518-4.929199 33.886558 10.052735 64.919952 38.907715 79.816681 17.301026 8.931946 36.014405 11.357086 55.251465 10.841629 16.046631-.429947 30.880859-4.594452 44.073242-13.983658 1.083252-.770889 2.18335-2.057098 3.314209-2.100494 1.914063-.073456 3.858887.654663 6.787354 1.247497-3.059082 5.648407-5.16211 10.169251-7.824219 14.332627-9.535645 14.914505-22.708252 26.053863-37.671143 35.143112-20.153808 12.242325-42.235595 19.480774-65.128662 24.520523-3.446045.758636-6.843994 1.735016-9.971924 2.535827v28.234162c2.964112.391022 5.537354.9776 8.121827 1.034515 41.950195.923676 83.898193 2.163971 125.853759 2.525025 31.061524.267334 61.799317-3.611939 92.114502-10.451798 31.411866-7.08728 61.499024-17.610245 88.16626-36.162201 44.64624-31.059692 65.258301-74.204712 63.419922-128.283401-.464844-13.672608-5.483154-25.643059-16.873291-33.618695-16.732666-11.716182-35.791748-14.739864-56.612549-13.718624-.234131 25.225373-2.119629 49.372742-8.863525 74.532349z" fill="#fefefe"/><g fill="#020202"><path d="m2928.03418 659.855225c27.194824-11.313172 54.854492-13.379761 83.067382-10.918518 16.021241 1.397766 31.610108 4.914794 46.296876 11.533325 30.857421 13.905761 49.953613 37.826843 58.73999 70.258545 4.477539 16.527649 5.712646 33.427734 5.710937 50.475341-.015381 151.635621-.009277 303.27118-.009277 454.9068v13.248291c4.303223-3.461426 6.830566-5.258423 9.088867-7.346436 38.28833-35.398193 79.325195-67.092163 124.791016-92.841919 34.859131-19.742798 71.00415-36.522461 110.874511-47.8573 0-3.708374 0-7.602172 0-11.495849 0-118.642334.050538-237.28479-.130371-355.92688-.010254-6.759583 1.707764-11.911438 6.15918-17.038696 17.473145-20.125977 34.618408-40.538758 51.700928-60.999268 3.22583-3.863708 6.445068-5.907959 11.791992-5.678345 11.241943.482727 22.518799.146668 34.620117.146668v442.728577c9.309815.924682 17.863281 1.569335 26.360108 2.657104 23.820556 3.049683 46.031982 10.736572 65.730468 24.615234 30.156739 21.246949 47.623291 50.519898 53.254883 86.861206 4.811279 31.046631 1.680908 61.126343-12.220459 89.600098-18.21875 37.318359-48.95581 57.866211-89.134521 64.954224-22.855713 4.03186-45.803223 3.468506-68.493653-1.694702-42.590332-9.691651-67.792236-36.510132-75.746826-79.081299-2.614258-13.991333-3.370605-28.44336-3.732178-42.716309-.590088-23.313598-.159668-46.653076-.159912-69.981567 0-3.212403 0-6.424805 0-10.553955-18.383545 6.75-34.720215 14.773926-50.552246 23.899536-45.585693 26.275513-86.807129 58.366699-124.16748 95.234375-22.509033 22.212158-43.592041 45.871094-65.249512 68.941894-2.70459 2.881226-4.668701 6.0271-9.563232 5.996704-32.622315-.20227-65.246094-.104736-97.3042-.104736-.825439-.648681-1.127685-.820801-1.337646-1.070434-.197754-.23462-.362549-.536988-.427734-.834595-.141358-.646851-.295655-1.309693-.296143-1.965943-.097168-155.961792-.181641-311.923584-.276123-467.885314-.000244-.319886-.148926-.639649-.228027-.959473-77.193116 19.739014-135.186768-20.410645-150.114502-73.379517-14.903077-52.881897-2.834229-117.907898 60.956787-145.726867m123.744384 124.007751c.139405-9.641052 1.025635-19.340515.275879-28.911926-2.104004-26.862549-17.902832-45.608032-44.205322-50.978394-11.221191-2.291198-23.327881-2.95282-34.653564-1.467346-24.584961 3.224609-41.561036 16.745483-48.059327 41.602661-3.956054 15.13263-4.034912 30.369019-.290771 45.480591 3.844238 15.514099 11.886475 28.547852 26.668457 35.607727 23.924316 11.426453 48.43042 11.383362 72.257324-.171509 16.148926-7.831238 24.138672-22.29303 28.007324-41.161804m464.914307 372.151062c-14.474121-7.359985-29.835449-10.320679-45.708984-9.97229-.548096 1.275635-1.017578 1.858276-1.017823 2.441162-.021484 42.620484-.158447 85.242066.17627 127.859986.04834 6.178344 1.835693 12.512939 3.776367 18.462768 2.352783 7.212769 7.306885 12.751099 14.552735 15.506714 13.987793 5.320068 27.440673 4.165283 39.885253-4.467896 10.192139-7.0708 16.751465-17.002563 21.237793-28.357299 6.85962-17.361695 8.795411-35.473389 7.220215-53.935425-2.415039-28.315552-12.669677-52.23645-40.121826-67.53772z"/><path d="m1525.389038 969.999573c0-30.971558 0-60.943054 0-92.101502-15.604736 5.415589-31.04248 7.114319-46.724121 5.898133-35.903809-2.784546-66.523193-15.998719-88.094727-46.04889-15.95288-22.2229-21.703857-47.560852-21.302368-74.553222.307129-20.654175 4.594605-40.325928 14.898316-58.407715 13.494995-23.681946 33.856079-39.493713 59.283935-47.921387 37.428467-12.405212 75.406128-12.565552 112.841919.238037 35.844971 12.259705 57.896485 37.798767 67.75647 74.1073 4.48938 16.531677 5.583374 33.492188 5.593384 50.515076.059936 102.653625.029663 205.307251.029785 307.960876 0 3.631104.000122 7.262329.000122 11.021118 11.985229 3.424195 23.582397 6.188477 34.80603 10.040528 45.465332 15.603271 86.349243 39.742309 124.901612 68.071655 27.683471 20.342651 54.198608 42.10437 79.151245 65.74646 2.748657 2.604492 5.831421 4.856567 10.770752 8.931763.163574-6.476807.344848-10.312744.345214-14.14856.013916-167.978638.065064-335.957397-.148315-503.935791-.010376-8.172973 2.016113-14.360229 7.467529-20.545166 16.961426-19.243408 33.395386-38.956421 49.804322-58.6781 3.471801-4.172608 6.993774-6.260498 12.649902-6.010315 10.949341.484375 21.935303.141601 34.123291.141601.105469 4.257874.283691 8.101563.283936 11.945252.013549 198.974731.01538 397.949463.000732 596.924194-.000732 8.658325 1.946289 18.087891-.851807 25.758057-2.797485 7.668457-10.358764 13.627685-15.937378 20.247314-13.312866 15.796997-26.911499 31.360718-39.906006 47.41394-4.037231 4.987549-8.224975 6.920533-14.477539 6.532593-7.968383-.494262-16.026245-.586548-23.978515.02356-6.730713.516357-10.892822-2.209961-15.275025-7.012207-26.497314-29.035889-52.698608-58.387085-80.24646-86.40625-28.543823-29.032471-59.921752-54.935181-94.652343-76.456665-20.13794-12.479004-41.15503-23.222168-63.887696-30.28125-1.224975-.380371-2.491699-.626953-4.457031-1.113648-.180176 3.359864-.462402 6.217041-.466308 9.074463-.035157 25.330078.142822 50.661743-.076294 75.989868-.158692 18.358887-1.655396 36.562867-7.607178 54.175537-9.727173 28.785157-29.14148 48.073121-57.412842 58.366456-25.241699 9.190185-51.435547 10.147583-77.897705 7.459106-16.671753-1.693848-32.740723-5.557007-48.034546-12.629272-29.844604-13.80127-49.840698-36.339966-59.194336-67.74231-11.514404-38.657471-8.926514-76.595947 9.842407-112.493652 20.394776-39.007447 53.537842-62.023804 95.991944-71.70752 12.582519-2.869995 25.613525-3.773926 39.260132-5.694458-.50354.533691-.27063.309692-.065308.062744.212524-.255859.569946-.533813.570801-.8031.124023-40.318238.221435-80.636414.320068-121.954651m10.985962-257.60968c-19.1875-12.168702-40.053223-13.226319-61.501099-8.695984-22.28186 4.706543-36.274414 18.594604-42.030761 40.519775-4.042359 15.397278-4.007691 30.991699.0531 46.380615 5.450684 20.656067 18.442017 34.278687 39.272827 39.734253 17.110352 4.481201 34.216431 4.162598 51.056275-1.603149 17.706787-6.062561 28.875488-18.474182 34.21289-36.165833 4.111939-13.62976 4.077393-27.685424 2.011963-41.548706-2.273925-15.263489-8.835693-28.518432-23.075195-38.620971m-60.729248 599.496215c8.571045 1.482422 17.073242 2.342652 25.786743.433228 12.630249-2.767822 20.916992-10.078247 24.115723-22.488037 1.477783-5.733032 2.143921-11.824341 2.172485-17.758057.190552-39.656616.120117-79.314575.09021-118.972046-.001709-2.233886-.395752-4.467651-.700561-7.689331-8.430298.94458-16.430909 1.229859-24.164795 2.81604-29.415161 6.033081-51.309082 21.913574-61.960083 50.665772-9.039795 24.402832-9.881226 49.565063-2.893555 74.644043 5.225586 18.755005 16.230957 32.654419 37.553833 38.348388z"/><path d="m958.999268 713.127441c16.218566-37.429199 45.698913-56.242187 83.781128-62.837402 25.590698-4.431946 51.185913-3.357849 75.995605 5.079834 37.376709 12.711609 60.629761 38.510132 69.613892 76.961548 5.46643 23.396606 5.660888 46.863525-.177369 70.256409-7.252685 29.060852-24.645629 50.451843-49.985351 65.794128-2.759277 1.670654-5.464966 3.429871-8.80542 5.531616 1.629272 2.053284 2.541138 3.844849 3.985107 4.926087 22.185425 16.612915 32.807129 39.708252 36.812256 66.297363 1.333374 8.851623 1.858032 17.902893 1.869263 26.864014.127563 101.992981.049072 203.986145.185181 305.979187.00708 5.337524-1.391602 9.439575-4.873536 13.483764-17.610107 20.453736-35.118652 40.999146-52.332641 61.785889-3.561402 4.300537-7.154053 6.086426-12.688477 5.892578-11.246704-.393799-22.516968-.117676-34.386352-.117676 0-4.685547-.000122-8.310547-.000122-11.935425-.000122-125.991577.000976-251.983154-.001465-377.97467-.000244-14.391785-1.301514-28.63916-5.917847-42.348144-1.875976-5.571045-4.628784-10.846863-7.574951-17.618653-8.13208 6.724365-15.320557 12.395142-22.209473 18.409241-46.22351 40.354004-85.674926 86.616394-119.972961 137.409546-49.995667 74.040161-88.532776 153.977295-122.017578 236.518188-6.625061 16.330811-12.764649 32.858521-19.288819 49.710449-32.249633 0-64.487182 0-97.723816 0 0-157.1875 0-314.370483 0-472.575256-3.876159.842285-6.599914 1.479736-9.342285 2.023194-44.747802 8.867858-84.785461.54602-117.491089-33.016114-15.872375-16.288025-24.179687-36.631469-27.633544-58.748169-3.269349-20.934997-2.429749-41.896545 3.891784-62.337219 9.759827-31.558105 30.089356-54.080933 60.485962-66.333374 42.240906-17.026672 85.297974-17.146057 127.614502-.393311 36.223755 14.34076 55.859375 43.042054 62.880066 80.461792 2.562927 13.660462 3.531921 27.801758 3.561523 41.727234.26355 123.991089.136475 247.982972.233277 371.974549.00299 3.890869-1.74878 8.567016 3.670349 12.629516 2.323486-3.340942 4.398682-6.119384 6.260742-9.033935 21.692383-33.95398 42.686524-68.376465 65.172791-101.79541 36.527954-54.287293 76.579223-105.832764 124.431396-150.820984 12.360901-11.620911 25.405335-22.514771 38.696777-34.237427-1.208068-.759277-2.326538-1.775635-3.640258-2.242249-36.927735-13.116638-55.514527-41.034912-61.528443-78.114807-4.221496-26.028442-2.098022-51.83374 8.450196-77.235901m-317.737549 120.206543c5.644348-.424743 11.318725-.609985 16.927795-1.315429 24.875427-3.128601 42.730042-19.494507 48.187988-44.061585 3.15625-14.206726 3.174378-28.473083-.28656-42.590149-5.300293-21.619812-18.754699-35.587463-40.396606-41.193542-15.097229-3.910584-30.358704-3.967285-45.455811-.039978-17.94934 4.669311-30.827026 15.56073-37.25708 33.088989-6.869445 18.726135-7.038025 37.90448-1.117126 56.876953 5.897461 18.897461 18.69696 31.201721 37.961181 36.141907 6.398865 1.64093 13.115662 2.041565 21.436219 3.092834m373.787048-103.014038c-9.894104 20.519104-9.851379 41.928955-4.30835 63.296082 4.121949 15.889221 14.059266 27.965637 29.699524 34.063476 18.967286 7.394898 38.267823 7.916871 57.387452.308167 13.207519-5.255798 23.020019-14.392151 29.09082-27.295471 7.79834-16.57489 8.876099-33.91272 5.11206-51.625122-5.027343-23.655579-19.245605-38.876892-42.60913-45.247986-13.091187-3.569885-26.314454-3.264588-39.434327-.00232-14.826171 3.686341-26.859069 11.28711-34.938049 26.503174z"/><path d="m340.978027 1122.650879c15.238068 1.867676 28.934754 5.743408 41.717469 12.557495 25.052215 13.354614 41.681701 33.751953 50.132507 60.754395 9.556549 30.5354 9.09375 61.137939-1.181213 91.330566-9.291199 27.30188-27.699952 47.014282-54.100617 58.285644-38.41922 16.402466-78.044464 16.726685-117.065857 3.193848-40.705993-14.117187-62.454849-44.745239-68.272919-86.903198-1.360992-9.861817-1.801605-19.920776-1.805252-29.889404-.094299-257.946167-.074585-515.892334-.074615-773.838532 0-3.307068 0-6.614136 0-10.515289 3.977051-1.85846 7.799774-3.714112 11.67775-5.446045 30.340591-13.550568 58.268432-30.846527 82.280731-53.9664 29.314636-28.225098 49.455932-61.738495 56.552765-102.225556 5.181518-29.560119 4.779632-58.960846-4.375458-87.904739-13.759827-43.501602-43.561066-70.199631-87.147751-81.009293-34.31131-8.50933-68.75145-7.077118-102.316803 4.888535-25.090828 8.94461-46.312538 23.36644-61.43499 45.725998-3.333389 4.928634-5.746712 10.477386-8.614426 15.723785-2.520988 4.612091-.113983 6.670243 3.767823 7.801438 6.92324-4.270371 13.369369-9.157395 20.53347-12.510407 34.143082-15.979935 89.958176-9.648483 119.254715 22.699967 12.485382 13.786026 20.014602 29.953399 22.804169 48.012695 2.65332 17.177246 2.653228 34.552368-2.042099 51.574463-9.289475 33.677429-30.164658 56.657104-63.636261 67.193512-31.176835 9.814117-62.501564 9.223602-93.082139-2.441986-34.592601-13.196076-56.349271-39.233948-65.746179-74.130188-14.511201-53.888642-8.926141-105.720154 22.82966-153.016251 20.945511-31.195587 50.044495-52.399689 85.078614-65.055496 61.862976-22.347512 124.434265-23.288338 185.590118.987755 72.510559 28.783393 111.636017 84.185966 117.364441 161.736534 4.864136 65.849746-17.246307 123.76094-57.418915 175.24031-19.849853 25.436646-43.605011 46.73877-70.740539 64.161621-5.008851 3.215973-7.035889 6.665955-7.031098 12.759797.164459 208.956298.135559 417.912658.151917 626.869079.000183 2.629273.226257 5.258545.315735 7.20874 15.325439 0 30.232086 0 46.035247.146607m-29.727569 52.636108c-2.653961.232666-5.316254.39502-7.960541.708985-24.014526 2.851928-39.630524 16.061523-46.106049 39.355102-4.464798 16.060791-4.422836 32.307739-.190155 48.369385 5.715058 21.687012 19.490326 35.579712 41.941956 38.737671 11.041473 1.552856 22.69342 1.920288 33.660431.207519 24.725983-3.861816 38.695282-18.357421 43.785614-42.875976 2.952728-14.222168 2.837677-28.489746-.504761-42.610108-5.579407-23.570678-21.777252-38.06311-45.780731-41.051025-5.597992-.696777-11.288696-.64917-18.845764-.841553m-218.699974-873.228119c13.919868 22.848328 41.294227 27.327485 63.328743 20.219849 21.504226-6.936615 31.714157-23.29126 33.132202-45.072388 1.847122-28.371795-12.783737-51.701812-41.792832-56.371139-26.053634-4.193604-53.992378 6.452316-60.787712 39.243545-2.895836 13.973969-1.690963 27.803467 6.119599 41.980133z"/><path d="m2707.8396 998c-.000977 66.996216.384765 132.996216-.251465 198.986206-.178955 18.546143-1.914795 37.343384-5.442139 55.539551-9.385254 48.413086-39.04956 79.540405-85.261719 95.694336-22.185791 7.755249-45.124511 11.628662-68.347168 13.723755-40.275146 3.633545-80.574707 3.28125-120.724609-1.867188-25.16333-3.226684-49.728516-8.645996-72.911377-19.706177-38.469482-18.353515-60.474853-49.063842-68.572266-90.142089-2.434814-12.351807-3.83374-25.108887-3.909179-37.691163-.399414-66.6604-.227051-133.324218-.240723-199.986938-.000244-.990967.156738-1.981873.316895-3.882751 3.53247-1.51355 7.393066-3.228577 11.299804-4.832032 29.769287-12.218139 57.609375-27.719848 81.953369-48.95459 28.634766-24.977356 48.955567-55.273437 56.993897-92.838012 6.816162-31.853638 6.595703-63.651978-4.990479-94.4646-13.868164-36.881836-39.937744-60.877502-78.646728-69.782593-41.105957-9.456421-79.450684-3.013794-113.705567 22.494202-16.064697 11.962708-28.18457 27.177979-35.282958 46.005371 3.101562 4.20929 5.783935 4.388062 10.135498 1.53656 37.771484-24.750488 76.199707-21.892029 114.170166-.911377 16.260986 8.984986 26.933105 23.772339 33.3125 41.148621 9.277587 25.270386 9.422607 51.005615 1.004638 76.457092-9.017822 27.264893-27.560302 46.066101-54.315185 56.247254-28.407715 10.81018-57.486573 11.018066-86.261963 1.952758-36.155518-11.390442-59.857178-36.747802-69.953369-72.383117-18.820069-66.425599-7.240235-126.77594 42.95581-176.775818 22.509033-22.421143 50.622071-35.426697 81.205567-42.802063 41.659668-10.046387 83.496826-9.958679 124.321289 3.369751 68.17456 22.257568 109.574218 69.320129 121.142822 140.127685 11.498291 70.375672-9.617188 132.314209-54.709961 186.564148-18.911133 22.751465-41.51123 41.389588-67.067627 56.22461-5.738281 3.330932-7.640381 6.812255-7.60498 13.33435.284423 52.328736-.050293 104.661133.277587 156.98938.112549 17.953369.846192 35.954834 7.087891 53.220703 7.386231 20.43042 21.095703 34.812012 41.584961 41.463745 12.220703 3.96753 25.186768 6.938721 37.959473 7.594727 17.872802.917724 36.079101.766968 53.787353-1.592774 45.015869-5.998535 67.403565-30.263427 72.718994-76.52185 1.327149-11.549317 1.709229-23.261841 1.71753-34.899902.108642-153.657837.138672-307.315918-.103516-460.973389-.013428-8.584656 2.371094-14.969544 7.984863-21.353516 16.720459-19.014648 32.963867-38.45459 49.124268-57.951599 3.738525-4.510315 7.69165-6.414856 13.582519-6.169617 10.892334.45337 21.816651.1297 33.665284.1297zm-493.661621-125.655945c4.088378 5.591736 7.24121 12.332153 12.437255 16.563477 16.73169 13.624695 35.973145 14.983337 55.591553 7.521057 18.431397-7.010742 26.95166-22.056458 29.006104-40.894592 2.183349-20.017945-6.311524-43.950135-29.480957-52.612183-12.870362-4.811585-26.045655-5.163147-39.220948-1.003418-15.480468 4.887634-25.505859 15.282715-30.165771 30.71759-3.873779 12.830567-3.475586 25.629822 1.832764 39.708069z"/><path d="m2150.571777 426.697876c17.033448-36.823303 45.639405-59.891357 81.674561-74.879486 21.995361-9.148438 45.006348-14.360809 68.503418-17.302521 30.452637-3.812561 61.043213-5.970642 91.698486-2.611542 42.380127 4.643921 82.199707 16.526642 116.309815 43.330231 7.250488 5.697357 13.673095 12.447998 20.85791 19.063934.608887-1.93634 1.324463-3.700958 1.716553-5.534759 6.473388-30.267639 25.000244-50.473785 53.357177-61.171936 40.799805-15.392548 82.044434-13.766297 121.741944 3.122894 35.286132 15.012421 52.855957 44.477112 57.176757 81.856293 2.190186 18.946258 1.554688 37.974182-3.949707 56.482818-11.797851 39.669739-39.142578 62.395783-78.845703 70.67923-12.295898 2.56543-25.075927 3.918274-37.637207 3.937561-166.61914.255677-333.239258.176331-499.858886.160462-2.580323-.000244-5.160645-.255127-8.557618-.434326-.370117-39.784852-1.531982-79.052155 15.8125-116.698853m98.297364 5.3526c-11.764405 19.37793-15.277588 40.549713-14.612549 63.125671h287.72583c.13916-15.644836-4.784668-29.096313-13.044434-41.503021-11.984619-18.001404-28.893799-30.202148-47.918213-39.57666-33.277587-16.397888-68.999511-21.398132-105.623779-21.351196-22.031006.028229-43.838379 2.130371-64.9021 9.235473-16.48413 5.560242-30.631591 14.38617-41.624755 30.069733m332.590332 17.039093c3.667724 21.045197 16.555908 33.577484 36.730957 38.754425 14.047119 3.604401 28.356201 3.514832 42.546386.404053 20.486817-4.491272 33.563965-16.789642 38.257569-37.387512 3.226806-14.159088 3.078613-28.336212-.61499-42.471894-4.615235-17.664459-15.861084-28.914764-33.131348-33.990814-14.965088-4.398559-30.305664-4.50473-45.43042-1.114227-21.637207 4.850342-34.892822 18.196625-38.750488 40.403808-1.956299 11.260621-2.00586 22.484498.392334 35.402161z"/></g><path d="m1762.478516 337.604858c48.549194 9.258393 91.085571 28.280304 123.454589 65.755738 9.05066 10.478241 16.337159 22.480255 24.744874 34.21878.232666-2.05603.667602-4.142578.673828-6.230407.053955-17.999817.134887-36.000855-.041748-53.999085-.044922-4.577728 1.186035-8.216919 4.041259-11.849335 10.910767-13.880768 21.691529-27.871917 32.151368-42.093689 3.111816-4.231018 6.381591-5.99002 11.638427-5.7052 8.269409.44809 16.580811.119049 25.368897.119049v225.621063c-179.353394 0-358.200318 0-538.059571 0 0-12.272094-.330444-24.171203.062256-36.046325 1.140381-34.481812 10.601807-66.270569 31.673951-94.052887 17.287963-22.792969 39.702636-39.205963 65.236694-51.584809 29.053345-14.08496 59.930664-21.73352 91.798706-25.995544 33.849365-4.526978 67.757324-5.210022 101.729248-1.999908 8.268555.78128 16.454102 2.442321 25.527222 3.842559m40.576904 74.2323c-1.773193-.915161-3.490479-1.964966-5.327515-2.725952-55.642334-23.046844-112.39209-25.120178-169.867431-8.152985-16.71045 4.933045-31.948975 13.242463-44.498047 25.737488-18.141114 18.063202-26.285645 39.973603-25.801514 65.375702 16.878784 2.015503 297.799683 1.30661 304.798828-.722534-.261474-13.28476-4.692138-25.389679-11.178467-36.753845-10.927856-19.145996-27.536865-32.143494-48.125854-42.757874z" fill="#030303"/><path d="m1122.797363 418.717224c25.635376-37.805908 33.707398-79.821014 34.123291-124.687744 18.824707-.740265 36.581543.434235 52.986328 8.819489 12.176026 6.223724 18.276612 17.211547 20.133301 30.466247 6.870728 49.048828-5.674194 92.461884-38.737182 129.47879-25.307618 28.334198-57.712281 45.78534-93.019043 58.209168-28.687989 10.094848-58.377076 15.767273-88.590638 19.184326-44.537597 5.037109-89.135009 3.680298-133.757507 2.294739-22.255493-.691101-44.51355-1.297913-67.415893-1.961548 0-11.271973 0-21.429016 0-32.193604 3.125183-.812316 6.291503-1.635559 9.457946-2.458374 32.520569-8.45047 63.3797-20.330322 89.288147-42.66986 11.272949-9.720063 20.267151-21.085236 26.523255-34.613556 1.748657-3.781403 2.353576-7.033234-3.413025-8.671631-17.766602 12.634033-38.362244 16.744201-60.161072 15.798614-14.738037-.639312-29.146118-3.274963-42.547119-9.739898-25.842285-12.46695-41.204346-32.93628-46.165039-61.229218-3.109131-17.733154-2.100159-35.201508 3.62384-52.260162 7.96582-23.739777 23.547974-40.856903 46.576965-50.559784 30.680359-12.926697 62.248169-13.646225 93.787903-3.75827 27.533753 8.632019 45.926514 27.735168 56.191651 54.32199 10.025512 25.966126 11.867126 53.057435 9.042846 80.620911-2.404297 23.464722-8.031494 45.938751-20.372985 66.228729-4.992371 8.207734-11.31836 15.595337-16.791871 23.525666-1.351562 1.958252-1.743591 4.578766-2.576721 6.894806 2.072449.688873 4.149658 1.992034 6.216553 1.975799 40.815369-.321045 80.223511-6.63501 116.155518-27.610779 19.574707-11.426971 35.961181-26.290283 49.440551-45.404846m-285.268554-47.592163c10.652404 18.916748 34.17926 25.056244 56.230529 19.566711 19.999573-4.978851 32.057923-21.163848 33.368042-43.449981 1.236145-21.028626-9.33551-39.230164-28.111145-46.172058-15.607116-5.770386-31.40094-5.40918-46.350402 2.901001-11.13086 6.187469-17.69574 15.875427-20.660706 28.109008-3.193665 13.176941-1.487427 25.765961 5.523682 39.045319z" fill="#c57135"/><path d="m2755.949707 117.696075c6.585449-24.359077 8.470947-48.506446 8.705078-73.731819 20.820801-1.02124 39.879883 2.002442 56.612549 13.718624 11.390137 7.975636 16.408447 19.946087 16.873291 33.618695 1.838379 54.078689-18.773682 97.223709-63.419922 128.283401-26.667236 18.551956-56.754394 29.074921-88.16626 36.162201-30.315185 6.839859-61.052978 10.719132-92.114502 10.451798-41.955566-.361054-83.903564-1.601349-125.853759-2.525025-2.584473-.056915-5.157715-.643493-8.121827-1.034515 0-9.379029 0-18.279129 0-28.234162 3.12793-.800811 6.525879-1.777191 9.971924-2.535827 22.893067-5.039749 44.974854-12.278198 65.128662-24.520523 14.962891-9.089249 28.135498-20.228607 37.671143-35.143112 2.662109-4.163376 4.765137-8.68422 7.824219-14.332627-2.928467-.592834-4.873291-1.320953-6.787354-1.247497-1.130859.043396-2.230957 1.329605-3.314209 2.100494-13.192383 9.389206-28.026611 13.553711-44.073242 13.983658-19.23706.515457-37.950439-1.909683-55.251465-10.841629-28.85498-14.896729-43.836914-45.930123-38.907715-79.816681 5.477295-37.654121 29.537598-61.792606 69.704834-69.400518 21.252442-4.025404 42.492188-3.102467 63.341065 2.612709 37.395508 10.25101 58.521484 35.979543 65.459228 73.021406 7.601563 40.586624.725098 78.875885-23.221191 113.304702-2.462158 3.539933-5.661133 6.579453-8.003662 10.185364-1.094483 1.684723-1.876709 4.617386-1.119629 6.15921.724609 1.475937 3.648193 2.689118 5.569336 2.638947 29.570068-.772293 58.307617-5.581161 85.168213-18.694397 32.778564-16.002441 53.098877-42.484543 64.134277-76.696976.7146-2.216438 1.35669-4.456352 2.190918-7.485901m-273.912353-38.083854c-.53711 2.948204-1.410157 5.879814-1.556885 8.847305-.961914 19.477417 8.186767 34.789703 25.707031 40.608101 12.317627 4.090607 24.918701 4.203232 37.379395.553314 14.986084-4.389633 25.303466-17.420738 26.488281-32.908417 1.473633-19.264717-5.791016-33.278049-20.858155-40.683681-9.659423-4.74773-19.880859-5.162357-30.269287-4.299969-17.412597 1.445511-30.305175 9.296467-36.89038 27.883347z" fill="#c57135"/><g fill="#fdfdfd"><path d="m3051.621582 784.728516c-3.71167 18.003234-11.701416 32.465026-27.850342 40.296264-23.826904 11.554871-48.333008 11.597962-72.257324.171509-14.781982-7.059875-22.824219-20.093628-26.668457-35.607727-3.744141-15.111572-3.665283-30.347961.290771-45.480591 6.498291-24.857178 23.474366-38.378052 48.059327-41.602661 11.325683-1.485474 23.432373-.823852 34.653564 1.467346 26.30249 5.370362 42.101318 24.115845 44.205322 50.978394.749756 9.571411-.136474 19.270874-.432861 29.777466z"/><path d="m3517.35498 1156.349121c26.79004 14.966187 37.044678 38.887085 39.459717 67.202637 1.575196 18.462036-.360595 36.57373-7.220215 53.935425-4.486328 11.354736-11.045654 21.286499-21.237793 28.357299-12.44458 8.633179-25.89746 9.787964-39.885253 4.467896-7.24585-2.755615-12.199952-8.293945-14.552735-15.506714-1.940674-5.949829-3.728027-12.284424-3.776367-18.462768-.334717-42.61792-.197754-85.239502-.17627-127.859986.000245-.582886.469727-1.165527 1.017823-2.441162 15.873535-.348389 31.234863 2.612305 46.371093 10.307373z"/><path d="m1536.95813 712.825562c13.656372 9.66687 20.21814 22.921813 22.492065 38.185302 2.06543 13.863282 2.099976 27.918946-2.011963 41.548706-5.337402 17.691651-16.506103 30.103272-34.21289 36.165833-16.839844 5.765747-33.945923 6.08435-51.056275 1.603149-20.83081-5.455566-33.822143-19.078186-39.272827-39.734253-4.060791-15.388916-4.095459-30.983337-.0531-46.380615 5.756347-21.925171 19.748901-35.813232 42.030761-40.519775 21.447876-4.530335 42.313599-3.472718 62.084229 9.131653z"/></g><path d="m1474.84729 1311.704956c-20.524414-5.512817-31.529785-19.412231-36.755371-38.167236-6.987671-25.07898-6.14624-50.241211 2.893555-74.644043 10.651001-28.752198 32.544922-44.632691 61.960083-50.665772 7.733886-1.586181 15.734497-1.87146 24.164795-2.81604.304809 3.22168.698852 5.455445.700561 7.689331.029907 39.657471.100342 79.31543-.09021 118.972046-.028564 5.933716-.694702 12.025025-2.172485 17.758057-3.198731 12.40979-11.485474 19.720215-24.115723 22.488037-8.713501 1.909424-17.215698 1.049194-26.585205-.61438z" fill="#fcfcfc"/><path d="m640.387207 833.292114c-7.446045-1.009399-14.162842-1.410034-20.561707-3.050964-19.264221-4.940186-32.06372-17.244446-37.961181-36.141907-5.920899-18.972473-5.752319-38.150818 1.117126-56.876953 6.430054-17.528259 19.30774-28.419678 37.25708-33.088989 15.097107-3.927307 30.358582-3.870606 45.455811.039978 21.641907 5.606079 35.096313 19.57373 40.396606 41.193542 3.460938 14.117066 3.44281 28.383423.28656 42.590149-5.457946 24.567078-23.312561 40.932984-48.187988 44.061585-5.60907.705444-11.283447.890686-17.802307 1.273559z" fill="#fdfdfd"/><path d="m1015.41748 729.665222c7.710267-14.56134 19.743165-22.162109 34.569336-25.84845 13.119873-3.262268 26.34314-3.567565 39.434327.00232 23.363525 6.371094 37.581787 21.592407 42.60913 45.247986 3.764039 17.712402 2.68628 35.050232-5.11206 51.625122-6.070801 12.90332-15.883301 22.039673-29.09082 27.295471-19.119629 7.608704-38.420166 7.086731-57.387452-.308167-15.640258-6.097839-25.577575-18.174255-29.699524-34.063476-5.543029-21.367127-5.585754-42.776978 4.677063-63.950806z" fill="#fdfdfd"/><path d="m312.204956 1175.235718c6.60257.243652 12.293274.196045 17.891266.892822 24.003479 2.987915 40.201324 17.480347 45.780731 41.051025 3.342438 14.120362 3.457489 28.38794.504761 42.610108-5.090332 24.518555-19.059631 39.01416-43.785614 42.875976-10.967011 1.712769-22.618958 1.345337-33.660431-.207519-22.45163-3.157959-36.226898-17.050659-41.941956-38.737671-4.232681-16.061646-4.274643-32.308594.190155-48.369385 6.475525-23.293579 22.091523-36.503174 46.106049-39.355102 2.644287-.313965 5.30658-.476319 8.915039-.760254z" fill="#fdfdfd"/><path d="m92.211777 301.386047c-7.471855-13.503845-8.676728-27.333343-5.780892-41.307312 6.795334-32.791229 34.734078-43.437149 60.787712-39.243545 29.009095 4.669327 43.639954 27.999344 41.792832 56.371139-1.418045 21.781128-11.627976 38.135773-33.132202 45.072388-22.034516 7.107636-49.408875 2.628479-63.66745-20.89267z" fill="#fcfcfc"/><path d="m2213.942871 871.595093c-5.073242-13.329285-5.471435-26.12854-1.597656-38.959107 4.659912-15.434875 14.685303-25.829956 30.165771-30.71759 13.175293-4.159729 26.350586-3.808167 39.220948 1.003418 23.169433 8.662048 31.664306 32.594238 29.480957 52.612183-2.054444 18.838134-10.574707 33.88385-29.006104 40.894592-19.618408 7.46228-38.859863 6.103638-55.591553-7.521057-5.196045-4.231324-8.348877-10.971741-12.672363-17.312439z" fill="#fcfcfc"/><path d="m2249.316406 431.478699c10.545899-15.111786 24.69336-23.937714 41.17749-29.497956 21.063721-7.105102 42.871094-9.207244 64.9021-9.235473 36.624268-.046936 72.346192 4.953308 105.623779 21.351196 19.024414 9.374512 35.933594 21.575256 47.918213 39.57666 8.259766 12.406708 13.183594 25.858185 13.044434 41.503021-95.99292 0-191.383301 0-287.72583 0-.665039-22.575958 2.848144-43.747741 15.059814-63.697448z" fill="#fcfcfc"/><path d="m2581.222412 448.255432c-2.161133-12.083526-2.111572-23.307403-.155273-34.568024 3.857666-22.207183 17.113281-35.553466 38.750488-40.403808 15.124756-3.390503 30.465332-3.284332 45.43042 1.114227 17.270264 5.07605 28.516113 16.326355 33.131348 33.990814 3.693603 14.135682 3.841796 28.312806.61499 42.471894-4.693604 20.59787-17.770752 32.89624-38.257569 37.387512-14.190185 3.110779-28.499267 3.200348-42.546386-.404053-20.175049-5.176941-33.063233-17.709228-36.968018-39.588562z" fill="#fdfdfd"/><path d="m1803.735229 412.135864c19.90918 10.315674 36.518189 23.313172 47.446045 42.459168 6.486329 11.364166 10.916993 23.469085 11.178467 36.753845-6.999145 2.029144-287.920044 2.738037-304.798828.722534-.484131-25.402099 7.6604-47.3125 25.801514-65.375702 12.549072-12.495025 27.787597-20.804443 44.498047-25.737488 57.475341-16.967193 114.225097-14.893859 169.867431 8.152985 1.837036.760986 3.554322 1.810791 6.007324 3.024658z" fill="#fefefe"/><path d="m837.136475 370.489685c-6.618775-12.643982-8.325013-25.233002-5.131348-38.409943 2.964966-12.233581 9.529846-21.921539 20.660706-28.109008 14.949462-8.310181 30.743286-8.671387 46.350402-2.901001 18.775635 6.941894 29.34729 25.143432 28.111145 46.172058-1.310119 22.286133-13.368469 38.47113-33.368042 43.449981-22.051269 5.489533-45.578125-.649963-56.622863-20.202087z" fill="#fefdfd"/><path d="m2482.213379 78.832504c6.40918-17.807163 19.301758-25.658119 36.714355-27.10363 10.388428-.862388 20.609864-.447761 30.269287 4.299969 15.067139 7.405632 22.331788 21.418964 20.858155 40.683681-1.184815 15.487679-11.502197 28.518784-26.488281 32.908417-12.460694 3.649918-25.061768 3.537293-37.379395-.553314-17.520264-5.818398-26.668945-21.130684-25.707031-40.608101.146728-2.967491 1.019775-5.899101 1.73291-9.627022z" fill="#fefdfc"/></svg>