<svg version="1.1" id="Layer_1" xmlns="http://www.w3.org/2000/svg" xmlns:xlink="http://www.w3.org/1999/xlink" x="0px" y="0px"
	 width="100%" viewBox="0 0 2270 462" enable-background="new 0 0 2270 462" xml:space="preserve">
<path fill="#FEFEFE" opacity="1.000000" stroke="none" 
	d="
M1670.000000,463.000000 
	C1113.384155,463.000000 557.268250,463.000000 1.076179,463.000000 
	C1.076179,309.064880 1.076179,155.129715 1.076179,1.097273 
	C757.666687,1.097273 1514.333374,1.097273 2270.972168,1.097273 
	C2270.972168,155.065414 2270.972168,309.032715 2270.972168,463.000000 
	C2070.796143,463.000000 1870.648071,463.000000 1670.000000,463.000000 
M1693.544067,311.087860 
	C1682.177002,316.018402 1670.809814,320.948944 1659.301270,325.940826 
	C1658.772949,323.362366 1658.333984,321.251373 1657.908325,319.137665 
	C1652.198486,290.783112 1637.461914,269.105255 1610.711060,256.871613 
	C1589.309448,247.084244 1566.604614,245.580460 1543.691772,249.198349 
	C1508.419922,254.767731 1483.931396,274.575928 1472.151978,308.241425 
	C1462.966797,334.492218 1462.775024,361.578552 1471.241943,388.240997 
	C1478.501587,411.101685 1493.137329,427.798431 1515.054565,438.073822 
	C1529.865479,445.017639 1545.557373,447.381805 1561.627563,447.692993 
	C1583.279907,448.112305 1603.705444,443.482086 1621.544434,430.617645 
	C1643.931274,414.473541 1655.464233,391.913391 1658.933228,364.942261 
	C1659.367188,361.568359 1660.638550,359.688599 1663.693237,358.257477 
	C1682.032227,349.665649 1700.286865,340.893890 1718.581055,332.206146 
	C1719.871094,331.593506 1721.252075,331.172363 1722.830688,330.570770 
	C1722.830688,339.497040 1722.866699,347.994110 1722.823120,356.490753 
	C1722.738647,372.935760 1724.553589,389.052002 1730.953613,404.391510 
	C1739.047241,423.790161 1752.699829,437.025391 1773.089600,443.222687 
	C1789.201904,448.119904 1805.617676,448.616974 1822.069092,446.797974 
	C1836.208008,445.234589 1849.704224,441.046570 1861.874023,433.248352 
	C1886.643555,417.376434 1900.696167,393.678436 1908.674561,366.411743 
	C1919.261475,330.230957 1920.868042,293.204498 1913.873291,256.132294 
	C1902.076172,193.608215 1865.360840,152.081345 1805.817627,130.553452 
	C1778.407471,120.643333 1749.793457,117.539017 1720.850708,117.269531 
	C1688.315674,116.966599 1656.355225,120.730278 1625.856079,132.855331 
	C1603.022705,141.932770 1581.164429,152.789948 1562.510254,169.577560 
	C1569.870850,180.488464 1577.190186,191.338135 1584.668823,202.423935 
	C1586.261353,201.265839 1587.600708,200.318008 1588.912842,199.333649 
	C1609.115234,184.179123 1631.562500,173.367691 1655.632202,166.166168 
	C1688.452026,156.346634 1721.941895,155.953506 1755.568604,161.124725 
	C1781.852661,165.166779 1805.958008,174.475845 1826.531860,191.855499 
	C1850.550049,212.144974 1862.425049,238.796539 1867.004395,269.212860 
	C1869.973755,288.935120 1869.691284,308.763367 1867.835938,328.546082 
	C1866.119629,346.847198 1862.822632,364.827423 1854.317871,381.432251 
	C1845.304565,399.030121 1832.176880,410.423615 1811.390259,411.747833 
	C1794.415161,412.829224 1779.943481,404.794678 1774.889160,388.553101 
	C1771.810913,378.661499 1769.664062,368.115631 1769.358765,357.796753 
	C1768.570190,331.154572 1769.031860,304.475281 1769.017944,277.810791 
	C1769.017334,276.717743 1769.255371,275.624603 1769.388184,274.480255 
	C1780.746826,273.217804 1791.783447,271.991119 1802.964355,270.748444 
	C1802.964355,261.487671 1802.964355,252.564133 1802.964355,243.461609 
	C1764.200562,243.461609 1725.642456,243.461609 1687.096802,243.461609 
	C1687.096802,252.690720 1687.096802,261.620667 1687.096802,270.743958 
	C1699.319580,272.023895 1711.303345,273.278809 1722.960938,274.499573 
	C1722.960938,282.898804 1722.960938,290.708191 1722.960938,298.368225 
	C1713.126221,302.639923 1703.694946,306.736389 1693.544067,311.087860 
M209.873825,442.386017 
	C228.389648,441.670776 246.661972,439.243988 264.702850,434.945557 
	C298.662872,426.854218 328.747467,411.469604 353.450806,386.649994 
	C380.514771,359.458649 395.575195,325.794708 402.838165,288.648071 
	C409.069183,256.779266 410.366364,224.508484 407.076050,192.135956 
	C403.722260,159.138901 395.491882,127.636276 377.799438,99.176079 
	C358.089081,67.469864 330.793701,44.751171 296.193481,30.703020 
	C266.384491,18.600172 235.182083,14.586088 203.321899,14.530515 
	C143.655411,14.426438 83.988640,14.498425 24.321997,14.514711 
	C23.070276,14.515054 21.818611,14.728023 20.825253,14.818316 
	C20.825253,25.173922 20.825253,35.096455 20.825253,45.266819 
	C37.482658,47.028320 53.849365,48.759079 70.294571,50.498138 
	C70.294571,169.378418 70.294571,287.986664 70.294571,406.981506 
	C53.672958,408.833344 37.206581,410.667908 20.751686,412.501190 
	C20.751686,422.849945 20.751686,432.787384 20.751686,443.000305 
	C22.818077,443.000305 24.634573,443.000275 26.451069,443.000275 
	C73.951050,443.000275 121.451088,443.040466 168.950989,442.974548 
	C182.280716,442.956085 195.610031,442.625732 209.873825,442.386017 
M794.342468,324.871216 
	C795.057434,320.106873 795.978577,315.363037 796.454590,310.574951 
	C800.121704,273.688599 798.323364,237.319458 784.401184,202.466873 
	C768.088440,161.629868 738.944763,134.147293 696.114258,123.397812 
	C658.630859,113.990311 620.814148,114.439575 583.856262,127.094475 
	C551.902283,138.035965 528.143005,158.972397 511.997223,188.547623 
	C500.914673,208.848251 495.139282,230.775375 492.676849,253.649124 
	C488.608551,291.440338 491.245911,328.547394 505.551849,364.111145 
	C514.260437,385.760193 527.497559,404.322266 546.309265,418.634583 
	C564.358521,432.366760 584.935120,440.032471 606.972473,443.966644 
	C629.424866,447.974884 652.018860,448.145081 674.639038,445.056366 
	C702.383179,441.267944 727.436890,431.130493 748.312622,412.300995 
	C774.019836,389.113586 788.105469,359.463379 794.342468,324.871216 
M1984.698120,443.001160 
	C2073.633545,443.001160 2162.568848,443.001160 2251.722168,443.001160 
	C2251.722168,415.730774 2251.722168,389.010864 2251.722168,362.249512 
	C2240.720703,362.249512 2229.991211,362.249512 2218.955811,362.249512 
	C2218.197510,376.415283 2217.331787,390.199188 2216.803467,403.996063 
	C2216.653564,407.910065 2215.290527,409.062195 2211.437256,409.053070 
	C2164.942871,408.942780 2118.447998,408.934265 2071.953857,409.063202 
	C2067.720215,409.074951 2066.631104,407.676208 2066.647949,403.593628 
	C2066.790527,368.931519 2066.788330,334.268372 2066.651611,299.606201 
	C2066.635986,295.605164 2067.455322,294.144562 2071.860107,294.193573 
	C2094.021484,294.440094 2116.187256,294.301392 2138.351318,294.317963 
	C2139.790527,294.319061 2141.229980,294.487366 2142.668945,294.577850 
	C2143.562744,305.963257 2144.419189,316.869843 2145.331787,328.491364 
	C2154.513672,328.491364 2163.474854,328.577057 2172.427246,328.336273 
	C2173.181641,328.315948 2174.504150,326.109375 2174.508789,324.914429 
	C2174.627686,293.918945 2174.573242,262.922821 2174.662842,231.927139 
	C2174.671631,228.876709 2173.644043,227.777802 2170.630371,227.836136 
	C2163.800293,227.968307 2156.963623,227.984985 2150.134277,227.838242 
	C2146.403076,227.758057 2144.938477,228.983826 2144.776611,233.000488 
	C2144.403809,242.250977 2143.407227,251.476318 2142.639160,261.020325 
	C2141.052002,261.020325 2139.918213,261.020355 2138.784424,261.020325 
	C2116.453613,261.019989 2094.121094,260.876099 2071.793457,261.140228 
	C2067.317627,261.193176 2066.636963,259.651001 2066.654053,255.722443 
	C2066.790771,224.559937 2066.859375,193.395523 2066.604248,162.234512 
	C2066.561035,156.997818 2068.210693,155.892075 2073.126465,155.913116 
	C2115.454102,156.094284 2157.782959,156.017227 2200.111328,156.017227 
	C2213.547363,156.017212 2213.411865,156.022980 2213.991211,169.659592 
	C2214.461670,180.736816 2215.308105,191.798080 2215.986328,202.845871 
	C2227.021729,202.845871 2237.442139,202.845871 2247.890625,202.845871 
	C2247.890625,175.829193 2247.890625,149.116714 2247.890625,122.365265 
	C2158.497803,122.365265 2069.458008,122.365265 1980.122437,122.365265 
	C1980.122437,130.375717 1980.293213,138.020050 1980.043701,145.650620 
	C1979.934570,148.990784 1980.779785,150.378922 1984.311401,150.634964 
	C1994.108032,151.345261 2003.864502,152.647842 2013.665771,153.237381 
	C2017.639038,153.476379 2018.531372,154.762726 2018.514771,158.617050 
	C2018.353882,195.945419 2018.416138,233.274765 2018.416504,270.603821 
	C2018.416992,316.098602 2018.372314,361.593536 2018.508179,407.087891 
	C2018.519165,410.761200 2017.511353,411.967316 2013.860229,412.226349 
	C2003.732666,412.944702 1993.641846,414.170135 1983.518555,414.966492 
	C1981.031128,415.162140 1979.979614,415.686218 1980.047119,418.415344 
	C1980.223999,425.576630 1980.240723,432.749054 1980.039917,439.909119 
	C1979.955078,442.933838 1981.508423,443.176086 1984.698120,443.001160 
M887.850830,228.598709 
	C896.183716,244.617722 910.277954,254.827316 925.316284,264.728943 
	C903.284668,264.728943 882.089722,264.728943 860.838745,264.728943 
	C860.838745,275.039429 860.838745,285.424530 860.838745,296.001373 
	C863.004639,296.001373 864.830811,296.001343 866.656982,296.001343 
	C902.487610,296.001343 938.318176,295.989716 974.148743,296.033112 
	C976.101807,296.035461 978.192383,296.130157 979.985352,296.803619 
	C994.835754,302.381348 1009.067017,309.197266 1021.962036,318.557251 
	C1036.242432,328.922760 1045.949829,341.957001 1046.342407,360.430603 
	C1046.743530,379.302246 1039.714600,393.940369 1022.696777,403.305908 
	C1013.642334,408.288971 1003.992249,411.145905 993.893555,412.536407 
	C971.648315,415.599487 949.634094,415.144043 928.727844,405.824890 
	C923.139282,403.333740 918.283997,399.197662 912.493408,395.426910 
	C927.686035,386.409851 930.198181,368.809448 918.991638,358.886902 
	C908.483521,349.582733 887.423279,351.367065 878.757568,362.628052 
	C868.309814,376.204926 869.933167,391.306091 875.586853,405.799133 
	C882.566284,423.690826 898.202209,432.781586 914.974548,439.656372 
	C932.270203,446.745728 950.535645,449.396515 969.182983,449.368530 
	C992.948975,449.332825 1016.568726,447.815155 1038.661011,438.039307 
	C1065.288086,426.256836 1084.940186,407.953064 1090.570801,378.018280 
	C1094.541992,356.905853 1091.425049,337.319550 1076.573120,320.553711 
	C1068.394897,311.321686 1058.608154,304.276917 1048.261963,297.835724 
	C1046.267456,296.594025 1044.350098,295.228546 1042.397095,293.920135 
	C1042.557129,293.641785 1042.717163,293.363434 1042.877197,293.085083 
	C1065.851562,293.085083 1088.825928,293.085083 1111.828979,293.085083 
	C1111.828979,282.886078 1111.828979,272.923950 1111.828979,262.498230 
	C1109.862671,262.498230 1108.064575,262.498230 1106.266479,262.498230 
	C1069.269287,262.498230 1032.272217,262.507141 995.275024,262.473450 
	C993.298401,262.471649 991.133789,262.568207 989.375061,261.844940 
	C974.411072,255.691513 959.829529,248.762955 946.947693,238.793915 
	C936.020203,230.337326 928.716492,219.630737 926.548096,205.659332 
	C923.363342,185.139542 931.014587,167.550354 949.235107,158.306335 
	C957.346436,154.191101 966.772156,151.814407 975.858032,150.648148 
	C995.380005,148.142273 1014.758850,149.642288 1033.203857,157.388641 
	C1039.389038,159.986237 1044.544189,163.976532 1048.204468,169.759521 
	C1036.032349,178.411438 1034.049683,196.234604 1043.931396,205.327042 
	C1057.611328,217.914261 1084.038086,211.291763 1089.413574,193.399551 
	C1093.956177,178.279831 1091.657593,163.747055 1082.143066,150.750000 
	C1071.538574,136.264008 1056.523926,128.430649 1040.026367,122.757088 
	C1019.471375,115.688240 998.237793,114.905418 976.863525,116.016846 
	C953.553894,117.228912 931.518005,122.900146 911.918884,136.222214 
	C879.969910,157.938812 873.349182,198.853058 887.850830,228.598709 
M1431.243652,161.278214 
	C1419.340942,142.658661 1403.033447,129.469772 1382.105591,122.390488 
	C1352.548706,112.392250 1322.536743,112.673378 1292.499756,119.870918 
	C1254.110352,129.069901 1228.671021,152.632385 1216.212524,190.093338 
	C1209.833008,209.275223 1208.078125,229.160706 1208.036133,249.210251 
	C1207.926636,301.527313 1207.999268,353.844727 1207.999268,406.162018 
	C1207.999268,407.949585 1207.999268,409.737152 1207.999268,411.707092 
	C1195.360718,413.009033 1183.186890,414.263123 1171.119629,415.506256 
	C1171.119629,424.921326 1171.119629,433.832489 1171.119629,442.670624 
	C1211.965698,442.670624 1252.522705,442.670624 1292.814453,442.670624 
	C1292.814453,433.423889 1292.814453,424.509369 1292.814453,415.474396 
	C1280.259033,414.210388 1268.038330,412.980042 1255.665283,411.734406 
	C1255.600708,410.475891 1255.507812,409.507690 1255.507690,408.539459 
	C1255.501709,354.389404 1255.433838,300.239197 1255.544067,246.089386 
	C1255.580078,228.379257 1256.985962,210.794266 1263.711304,194.121689 
	C1271.618042,174.521149 1285.282837,160.804245 1305.521851,154.072266 
	C1321.203125,148.856323 1337.241821,148.525024 1353.343994,151.446182 
	C1367.161133,153.952789 1378.917236,160.323563 1388.490479,170.850632 
	C1407.675781,191.947815 1409.399658,235.541229 1395.948730,258.032623 
	C1390.605347,266.967255 1384.119507,274.691010 1373.480957,277.733459 
	C1370.121094,267.223602 1364.646484,263.040771 1354.086670,262.624634 
	C1343.011230,262.188202 1334.102539,267.204773 1330.522705,275.893585 
	C1324.076660,291.539520 1333.897217,309.310547 1351.041504,313.023865 
	C1381.585571,319.639404 1415.856323,304.123962 1432.411011,276.553925 
	C1445.380127,254.955444 1449.227417,231.565994 1446.513428,206.944565 
	C1444.750854,190.954514 1440.551758,175.590790 1431.243652,161.278214 
z"/>
<path fill="#020202" opacity="1.000000" stroke="none" 
	d="
M1693.903809,310.960358 
	C1703.694946,306.736389 1713.126221,302.639923 1722.960938,298.368225 
	C1722.960938,290.708191 1722.960938,282.898804 1722.960938,274.499573 
	C1711.303345,273.278809 1699.319580,272.023895 1687.096802,270.743958 
	C1687.096802,261.620667 1687.096802,252.690720 1687.096802,243.461609 
	C1725.642456,243.461609 1764.200562,243.461609 1802.964355,243.461609 
	C1802.964355,252.564133 1802.964355,261.487671 1802.964355,270.748444 
	C1791.783447,271.991119 1780.746826,273.217804 1769.388184,274.480255 
	C1769.255371,275.624603 1769.017334,276.717743 1769.017944,277.810791 
	C1769.031860,304.475281 1768.570190,331.154572 1769.358765,357.796753 
	C1769.664062,368.115631 1771.810913,378.661499 1774.889160,388.553101 
	C1779.943481,404.794678 1794.415161,412.829224 1811.390259,411.747833 
	C1832.176880,410.423615 1845.304565,399.030121 1854.317871,381.432251 
	C1862.822632,364.827423 1866.119629,346.847198 1867.835938,328.546082 
	C1869.691284,308.763367 1869.973755,288.935120 1867.004395,269.212860 
	C1862.425049,238.796539 1850.550049,212.144974 1826.531860,191.855499 
	C1805.958008,174.475845 1781.852661,165.166779 1755.568604,161.124725 
	C1721.941895,155.953506 1688.452026,156.346634 1655.632202,166.166168 
	C1631.562500,173.367691 1609.115234,184.179123 1588.912842,199.333649 
	C1587.600708,200.318008 1586.261353,201.265839 1584.668823,202.423935 
	C1577.190186,191.338135 1569.870850,180.488464 1562.510254,169.577560 
	C1581.164429,152.789948 1603.022705,141.932770 1625.856079,132.855331 
	C1656.355225,120.730278 1688.315674,116.966599 1720.850708,117.269531 
	C1749.793457,117.539017 1778.407471,120.643333 1805.817627,130.553452 
	C1865.360840,152.081345 1902.076172,193.608215 1913.873291,256.132294 
	C1920.868042,293.204498 1919.261475,330.230957 1908.674561,366.411743 
	C1900.696167,393.678436 1886.643555,417.376434 1861.874023,433.248352 
	C1849.704224,441.046570 1836.208008,445.234589 1822.069092,446.797974 
	C1805.617676,448.616974 1789.201904,448.119904 1773.089600,443.222687 
	C1752.699829,437.025391 1739.047241,423.790161 1730.953613,404.391510 
	C1724.553589,389.052002 1722.738647,372.935760 1722.823120,356.490753 
	C1722.866699,347.994110 1722.830688,339.497040 1722.830688,330.570770 
	C1721.252075,331.172363 1719.871094,331.593506 1718.581055,332.206146 
	C1700.286865,340.893890 1682.032227,349.665649 1663.693237,358.257477 
	C1660.638550,359.688599 1659.367188,361.568359 1658.933228,364.942261 
	C1655.464233,391.913391 1643.931274,414.473541 1621.544434,430.617645 
	C1603.705444,443.482086 1583.279907,448.112305 1561.627563,447.692993 
	C1545.557373,447.381805 1529.865479,445.017639 1515.054565,438.073822 
	C1493.137329,427.798431 1478.501587,411.101685 1471.241943,388.240997 
	C1462.775024,361.578552 1462.966797,334.492218 1472.151978,308.241425 
	C1483.931396,274.575928 1508.419922,254.767731 1543.691772,249.198349 
	C1566.604614,245.580460 1589.309448,247.084244 1610.711060,256.871613 
	C1637.461914,269.105255 1652.198486,290.783112 1657.908325,319.137665 
	C1658.333984,321.251373 1658.772949,323.362366 1659.301270,325.940826 
	C1670.809814,320.948944 1682.177002,316.018402 1693.903809,310.960358 
M1599.499023,398.999146 
	C1605.940186,392.473297 1610.335815,384.723480 1612.960571,375.991486 
	C1617.798462,359.897247 1618.251953,343.543610 1615.316895,327.081726 
	C1610.722412,301.312836 1593.174561,282.348389 1564.782349,281.573639 
	C1544.118286,281.009766 1525.176025,291.404388 1516.644287,310.075012 
	C1506.108276,333.131927 1505.854248,356.939331 1514.173096,380.551147 
	C1528.049805,419.937927 1578.579590,421.388794 1599.499023,398.999146 
z"/>
<path fill="#010101" opacity="1.000000" stroke="none" 
	d="
M209.406677,442.412231 
	C195.610031,442.625732 182.280716,442.956085 168.950989,442.974548 
	C121.451088,443.040466 73.951050,443.000275 26.451069,443.000275 
	C24.634573,443.000275 22.818077,443.000305 20.751686,443.000305 
	C20.751686,432.787384 20.751686,422.849945 20.751686,412.501190 
	C37.206581,410.667908 53.672958,408.833344 70.294571,406.981506 
	C70.294571,287.986664 70.294571,169.378418 70.294571,50.498138 
	C53.849365,48.759079 37.482658,47.028320 20.825253,45.266819 
	C20.825253,35.096455 20.825253,25.173922 20.825253,14.818316 
	C21.818611,14.728023 23.070276,14.515054 24.321997,14.514711 
	C83.988640,14.498425 143.655411,14.426438 203.321899,14.530515 
	C235.182083,14.586088 266.384491,18.600172 296.193481,30.703020 
	C330.793701,44.751171 358.089081,67.469864 377.799438,99.176079 
	C395.491882,127.636276 403.722260,159.138901 407.076050,192.135956 
	C410.366364,224.508484 409.069183,256.779266 402.838165,288.648071 
	C395.575195,325.794708 380.514771,359.458649 353.450806,386.649994 
	C328.747467,411.469604 298.662872,426.854218 264.702850,434.945557 
	C246.661972,439.243988 228.389648,441.670776 209.406677,442.412231 
M307.429749,365.930847 
	C322.524841,352.231110 332.833160,335.326385 340.513245,316.641937 
	C350.782776,291.657806 354.762390,265.430817 355.604065,238.660950 
	C356.852478,198.954208 352.954102,160.112656 334.099335,124.191277 
	C323.125214,103.283760 307.789795,86.315536 287.410889,74.061157 
	C263.252838,59.534275 236.768356,53.016350 208.938751,52.288986 
	C180.635391,51.549248 152.302551,51.936329 123.982544,51.848221 
	C123.226036,51.845867 122.468872,52.053738 121.804924,52.150093 
	C121.804924,170.239014 121.804924,287.943817 121.804924,405.509369 
	C146.265518,405.509369 170.422333,405.895447 194.558151,405.351105 
	C207.159103,405.066925 219.848022,403.892090 232.278503,401.812347 
	C260.402710,397.106781 285.752686,386.053528 307.429749,365.930847 
z"/>
<path fill="#010101" opacity="1.000000" stroke="none" 
	d="
M794.250854,325.291809 
	C788.105469,359.463379 774.019836,389.113586 748.312622,412.300995 
	C727.436890,431.130493 702.383179,441.267944 674.639038,445.056366 
	C652.018860,448.145081 629.424866,447.974884 606.972473,443.966644 
	C584.935120,440.032471 564.358521,432.366760 546.309265,418.634583 
	C527.497559,404.322266 514.260437,385.760193 505.551849,364.111145 
	C491.245911,328.547394 488.608551,291.440338 492.676849,253.649124 
	C495.139282,230.775375 500.914673,208.848251 511.997223,188.547623 
	C528.143005,158.972397 551.902283,138.035965 583.856262,127.094475 
	C620.814148,114.439575 658.630859,113.990311 696.114258,123.397812 
	C738.944763,134.147293 768.088440,161.629868 784.401184,202.466873 
	C798.323364,237.319458 800.121704,273.688599 796.454590,310.574951 
	C795.978577,315.363037 795.057434,320.106873 794.250854,325.291809 
M571.500366,295.490479 
	C561.388733,295.490479 551.277100,295.490479 540.907410,295.490479 
	C542.139038,322.529968 547.335327,347.869598 561.909912,370.533630 
	C574.167175,389.594299 591.448730,401.749390 613.414368,407.338806 
	C632.481079,412.190552 651.706482,412.272675 670.876770,408.652710 
	C686.476685,405.706909 700.854919,399.552948 712.488525,388.375946 
	C738.778931,363.117462 745.753906,330.361237 748.396301,295.490509 
	C689.449951,295.490509 630.975220,295.490509 571.500366,295.490479 
M647.499634,260.510101 
	C680.956726,260.510101 714.413818,260.510101 748.005249,260.510101 
	C748.005249,259.076630 748.115845,257.925842 747.988831,256.801849 
	C745.863037,237.987213 741.551514,219.692703 732.712402,202.877975 
	C721.270691,181.112076 704.341003,165.374039 680.291626,158.186676 
	C660.426697,152.249863 640.314209,152.083450 620.078125,155.732208 
	C597.705200,159.766266 579.287109,170.449524 565.696045,188.879196 
	C555.977722,202.057343 549.816772,216.925095 546.145203,232.774094 
	C544.061768,241.767685 542.786743,250.948532 541.063843,260.510071 
	C576.922546,260.510071 611.711060,260.510071 647.499634,260.510101 
z"/>
<path fill="#020202" opacity="1.000000" stroke="none" 
	d="
M1984.221436,443.001099 
	C1981.508423,443.176086 1979.955078,442.933838 1980.039917,439.909119 
	C1980.240723,432.749054 1980.223999,425.576630 1980.047119,418.415344 
	C1979.979614,415.686218 1981.031128,415.162140 1983.518555,414.966492 
	C1993.641846,414.170135 2003.732666,412.944702 2013.860229,412.226349 
	C2017.511353,411.967316 2018.519165,410.761200 2018.508179,407.087891 
	C2018.372314,361.593536 2018.416992,316.098602 2018.416504,270.603821 
	C2018.416138,233.274765 2018.353882,195.945419 2018.514771,158.617050 
	C2018.531372,154.762726 2017.639038,153.476379 2013.665771,153.237381 
	C2003.864502,152.647842 1994.108032,151.345261 1984.311401,150.634964 
	C1980.779785,150.378922 1979.934570,148.990784 1980.043701,145.650620 
	C1980.293213,138.020050 1980.122437,130.375717 1980.122437,122.365265 
	C2069.458008,122.365265 2158.497803,122.365265 2247.890625,122.365265 
	C2247.890625,149.116714 2247.890625,175.829193 2247.890625,202.845871 
	C2237.442139,202.845871 2227.021729,202.845871 2215.986328,202.845871 
	C2215.308105,191.798080 2214.461670,180.736816 2213.991211,169.659592 
	C2213.411865,156.022980 2213.547363,156.017212 2200.111328,156.017227 
	C2157.782959,156.017227 2115.454102,156.094284 2073.126465,155.913116 
	C2068.210693,155.892075 2066.561035,156.997818 2066.604248,162.234512 
	C2066.859375,193.395523 2066.790771,224.559937 2066.654053,255.722443 
	C2066.636963,259.651001 2067.317627,261.193176 2071.793457,261.140228 
	C2094.121094,260.876099 2116.453613,261.019989 2138.784424,261.020325 
	C2139.918213,261.020355 2141.052002,261.020325 2142.639160,261.020325 
	C2143.407227,251.476318 2144.403809,242.250977 2144.776611,233.000488 
	C2144.938477,228.983826 2146.403076,227.758057 2150.134277,227.838242 
	C2156.963623,227.984985 2163.800293,227.968307 2170.630371,227.836136 
	C2173.644043,227.777802 2174.671631,228.876709 2174.662842,231.927139 
	C2174.573242,262.922821 2174.627686,293.918945 2174.508789,324.914429 
	C2174.504150,326.109375 2173.181641,328.315948 2172.427246,328.336273 
	C2163.474854,328.577057 2154.513672,328.491364 2145.331787,328.491364 
	C2144.419189,316.869843 2143.562744,305.963257 2142.668945,294.577850 
	C2141.229980,294.487366 2139.790527,294.319061 2138.351318,294.317963 
	C2116.187256,294.301392 2094.021484,294.440094 2071.860107,294.193573 
	C2067.455322,294.144562 2066.635986,295.605164 2066.651611,299.606201 
	C2066.788330,334.268372 2066.790527,368.931519 2066.647949,403.593628 
	C2066.631104,407.676208 2067.720215,409.074951 2071.953857,409.063202 
	C2118.447998,408.934265 2164.942871,408.942780 2211.437256,409.053070 
	C2215.290527,409.062195 2216.653564,407.910065 2216.803467,403.996063 
	C2217.331787,390.199188 2218.197510,376.415283 2218.955811,362.249512 
	C2229.991211,362.249512 2240.720703,362.249512 2251.722168,362.249512 
	C2251.722168,389.010864 2251.722168,415.730774 2251.722168,443.001160 
	C2162.568848,443.001160 2073.633545,443.001160 1984.221436,443.001099 
z"/>
<path fill="#010101" opacity="1.000000" stroke="none" 
	d="
M887.662720,228.277542 
	C873.349182,198.853058 879.969910,157.938812 911.918884,136.222214 
	C931.518005,122.900146 953.553894,117.228912 976.863525,116.016846 
	C998.237793,114.905418 1019.471375,115.688240 1040.026367,122.757088 
	C1056.523926,128.430649 1071.538574,136.264008 1082.143066,150.750000 
	C1091.657593,163.747055 1093.956177,178.279831 1089.413574,193.399551 
	C1084.038086,211.291763 1057.611328,217.914261 1043.931396,205.327042 
	C1034.049683,196.234604 1036.032349,178.411438 1048.204468,169.759521 
	C1044.544189,163.976532 1039.389038,159.986237 1033.203857,157.388641 
	C1014.758850,149.642288 995.380005,148.142273 975.858032,150.648148 
	C966.772156,151.814407 957.346436,154.191101 949.235107,158.306335 
	C931.014587,167.550354 923.363342,185.139542 926.548096,205.659332 
	C928.716492,219.630737 936.020203,230.337326 946.947693,238.793915 
	C959.829529,248.762955 974.411072,255.691513 989.375061,261.844940 
	C991.133789,262.568207 993.298401,262.471649 995.275024,262.473450 
	C1032.272217,262.507141 1069.269287,262.498230 1106.266479,262.498230 
	C1108.064575,262.498230 1109.862671,262.498230 1111.828979,262.498230 
	C1111.828979,272.923950 1111.828979,282.886078 1111.828979,293.085083 
	C1088.825928,293.085083 1065.851562,293.085083 1042.877197,293.085083 
	C1042.717163,293.363434 1042.557129,293.641785 1042.397095,293.920135 
	C1044.350098,295.228546 1046.267456,296.594025 1048.261963,297.835724 
	C1058.608154,304.276917 1068.394897,311.321686 1076.573120,320.553711 
	C1091.425049,337.319550 1094.541992,356.905853 1090.570801,378.018280 
	C1084.940186,407.953064 1065.288086,426.256836 1038.661011,438.039307 
	C1016.568726,447.815155 992.948975,449.332825 969.182983,449.368530 
	C950.535645,449.396515 932.270203,446.745728 914.974548,439.656372 
	C898.202209,432.781586 882.566284,423.690826 875.586853,405.799133 
	C869.933167,391.306091 868.309814,376.204926 878.757568,362.628052 
	C887.423279,351.367065 908.483521,349.582733 918.991638,358.886902 
	C930.198181,368.809448 927.686035,386.409851 912.493408,395.426910 
	C918.283997,399.197662 923.139282,403.333740 928.727844,405.824890 
	C949.634094,415.144043 971.648315,415.599487 993.893555,412.536407 
	C1003.992249,411.145905 1013.642334,408.288971 1022.696777,403.305908 
	C1039.714600,393.940369 1046.743530,379.302246 1046.342407,360.430603 
	C1045.949829,341.957001 1036.242432,328.922760 1021.962036,318.557251 
	C1009.067017,309.197266 994.835754,302.381348 979.985352,296.803619 
	C978.192383,296.130157 976.101807,296.035461 974.148743,296.033112 
	C938.318176,295.989716 902.487610,296.001343 866.656982,296.001343 
	C864.830811,296.001343 863.004639,296.001373 860.838745,296.001373 
	C860.838745,285.424530 860.838745,275.039429 860.838745,264.728943 
	C882.089722,264.728943 903.284668,264.728943 925.316284,264.728943 
	C910.277954,254.827316 896.183716,244.617722 887.662720,228.277542 
z"/>
<path fill="#010101" opacity="1.000000" stroke="none" 
	d="
M1431.468506,161.562851 
	C1440.551758,175.590790 1444.750854,190.954514 1446.513428,206.944565 
	C1449.227417,231.565994 1445.380127,254.955444 1432.411011,276.553925 
	C1415.856323,304.123962 1381.585571,319.639404 1351.041504,313.023865 
	C1333.897217,309.310547 1324.076660,291.539520 1330.522705,275.893585 
	C1334.102539,267.204773 1343.011230,262.188202 1354.086670,262.624634 
	C1364.646484,263.040771 1370.121094,267.223602 1373.480957,277.733459 
	C1384.119507,274.691010 1390.605347,266.967255 1395.948730,258.032623 
	C1409.399658,235.541229 1407.675781,191.947815 1388.490479,170.850632 
	C1378.917236,160.323563 1367.161133,153.952789 1353.343994,151.446182 
	C1337.241821,148.525024 1321.203125,148.856323 1305.521851,154.072266 
	C1285.282837,160.804245 1271.618042,174.521149 1263.711304,194.121689 
	C1256.985962,210.794266 1255.580078,228.379257 1255.544067,246.089386 
	C1255.433838,300.239197 1255.501709,354.389404 1255.507690,408.539459 
	C1255.507812,409.507690 1255.600708,410.475891 1255.665283,411.734406 
	C1268.038330,412.980042 1280.259033,414.210388 1292.814453,415.474396 
	C1292.814453,424.509369 1292.814453,433.423889 1292.814453,442.670624 
	C1252.522705,442.670624 1211.965698,442.670624 1171.119629,442.670624 
	C1171.119629,433.832489 1171.119629,424.921326 1171.119629,415.506256 
	C1183.186890,414.263123 1195.360718,413.009033 1207.999268,411.707092 
	C1207.999268,409.737152 1207.999268,407.949585 1207.999268,406.162018 
	C1207.999268,353.844727 1207.926636,301.527313 1208.036133,249.210251 
	C1208.078125,229.160706 1209.833008,209.275223 1216.212524,190.093338 
	C1228.671021,152.632385 1254.110352,129.069901 1292.499756,119.870918 
	C1322.536743,112.673378 1352.548706,112.392250 1382.105591,122.390488 
	C1403.033447,129.469772 1419.340942,142.658661 1431.468506,161.562851 
z"/>
<path fill="#FEFEFE" opacity="1.000000" stroke="none" 
	d="
M1599.247070,399.251984 
	C1578.579590,421.388794 1528.049805,419.937927 1514.173096,380.551147 
	C1505.854248,356.939331 1506.108276,333.131927 1516.644287,310.075012 
	C1525.176025,291.404388 1544.118286,281.009766 1564.782349,281.573639 
	C1593.174561,282.348389 1610.722412,301.312836 1615.316895,327.081726 
	C1618.251953,343.543610 1617.798462,359.897247 1612.960571,375.991486 
	C1610.335815,384.723480 1605.940186,392.473297 1599.247070,399.251984 
z"/>
<path fill="#FEFEFE" opacity="1.000000" stroke="none" 
	d="
M307.168396,366.170654 
	C285.752686,386.053528 260.402710,397.106781 232.278503,401.812347 
	C219.848022,403.892090 207.159103,405.066925 194.558151,405.351105 
	C170.422333,405.895447 146.265518,405.509369 121.804924,405.509369 
	C121.804924,287.943817 121.804924,170.239014 121.804924,52.150093 
	C122.468872,52.053738 123.226036,51.845867 123.982544,51.848221 
	C152.302551,51.936329 180.635391,51.549248 208.938751,52.288986 
	C236.768356,53.016350 263.252838,59.534275 287.410889,74.061157 
	C307.789795,86.315536 323.125214,103.283760 334.099335,124.191277 
	C352.954102,160.112656 356.852478,198.954208 355.604065,238.660950 
	C354.762390,265.430817 350.782776,291.657806 340.513245,316.641937 
	C332.833160,335.326385 322.524841,352.231110 307.168396,366.170654 
z"/>
<path fill="#FDFDFD" opacity="1.000000" stroke="none" 
	d="
M572.000366,295.490479 
	C630.975220,295.490509 689.449951,295.490509 748.396301,295.490509 
	C745.753906,330.361237 738.778931,363.117462 712.488525,388.375946 
	C700.854919,399.552948 686.476685,405.706909 670.876770,408.652710 
	C651.706482,412.272675 632.481079,412.190552 613.414368,407.338806 
	C591.448730,401.749390 574.167175,389.594299 561.909912,370.533630 
	C547.335327,347.869598 542.139038,322.529968 540.907410,295.490479 
	C551.277100,295.490479 561.388733,295.490479 572.000366,295.490479 
z"/>
<path fill="#FDFDFD" opacity="1.000000" stroke="none" 
	d="
M646.999634,260.510071 
	C611.711060,260.510071 576.922546,260.510071 541.063843,260.510071 
	C542.786743,250.948532 544.061768,241.767685 546.145203,232.774094 
	C549.816772,216.925095 555.977722,202.057343 565.696045,188.879196 
	C579.287109,170.449524 597.705200,159.766266 620.078125,155.732208 
	C640.314209,152.083450 660.426697,152.249863 680.291626,158.186676 
	C704.341003,165.374039 721.270691,181.112076 732.712402,202.877975 
	C741.551514,219.692703 745.863037,237.987213 747.988831,256.801849 
	C748.115845,257.925842 748.005249,259.076630 748.005249,260.510101 
	C714.413818,260.510101 680.956726,260.510101 646.999634,260.510071 
z"/>
</svg>