<svg version="1.1" id="Layer_1" xmlns="http://www.w3.org/2000/svg" xmlns:xlink="http://www.w3.org/1999/xlink" x="0px" y="0px"
	 width="100%" viewBox="0 0 2748 462" enable-background="new 0 0 2748 462" xml:space="preserve">
<path fill="#FEFEFE" opacity="1.000000" stroke="none" 
	d="
M1891.000000,463.000000 
	C1260.666748,463.000000 630.833557,463.000000 1.000254,463.000000 
	C1.000169,309.000153 1.000169,155.000275 1.000085,1.000315 
	C916.999695,1.000210 1832.999390,1.000210 2748.999268,1.000105 
	C2748.999512,154.999664 2748.999512,308.999329 2748.999756,462.999512 
	C2463.166748,463.000000 2177.333252,463.000000 1891.000000,463.000000 
M1810.799561,199.278244 
	C1788.768555,211.420715 1772.277100,228.934875 1762.128906,251.837189 
	C1743.648560,293.543060 1743.041260,336.324738 1758.323730,378.863525 
	C1768.767822,407.934235 1789.234497,428.522675 1818.245239,440.155670 
	C1842.740234,449.977905 1868.180420,451.471069 1893.870728,447.749420 
	C1929.430786,442.597961 1956.661499,424.380371 1975.003418,393.237335 
	C1985.869507,374.787628 1990.794189,354.561157 1992.929565,333.512695 
	C1993.202393,330.823761 1993.928711,329.178345 1996.578003,327.838684 
	C2022.357056,314.803009 2048.038330,301.574066 2073.757568,288.419800 
	C2074.822266,287.875305 2075.985596,287.523346 2077.498779,286.925110 
	C2077.498779,300.309479 2077.433350,313.130188 2077.512451,325.950043 
	C2077.665283,350.695190 2079.337402,375.225159 2088.950195,398.470032 
	C2097.291748,418.641205 2111.247803,433.293060 2131.653076,441.571045 
	C2152.815430,450.156311 2174.791504,450.923859 2196.983887,447.871521 
	C2227.043457,443.737091 2250.695801,428.481873 2269.227295,404.787781 
	C2290.011475,378.213348 2300.457275,347.300476 2305.786377,314.624756 
	C2312.204590,275.270233 2312.818604,235.740173 2306.140137,196.238007 
	C2299.142822,154.852707 2283.652344,117.444351 2255.931396,85.413780 
	C2228.720947,53.973080 2194.363770,34.021187 2155.170166,21.678719 
	C2134.133545,15.054061 2112.497559,11.615359 2090.551270,9.631707 
	C2027.274292,3.912265 1967.056030,13.487828 1911.178467,45.005627 
	C1893.611694,54.914223 1877.493652,66.874130 1862.520630,80.574104 
	C1870.952515,91.586311 1879.232666,102.400383 1887.683838,113.437622 
	C1889.215210,112.273155 1890.540161,111.301819 1891.826782,110.282028 
	C1938.716919,73.113991 1991.480591,52.071476 2051.872803,51.874672 
	C2090.227295,51.749687 2127.647461,56.704197 2162.741455,73.175201 
	C2185.352539,83.787354 2204.714111,98.715157 2220.183105,118.570274 
	C2240.603760,144.780670 2251.310791,174.875626 2255.935303,207.350723 
	C2261.309570,245.094376 2259.965820,282.784363 2253.664551,320.301605 
	C2250.144287,341.259094 2244.386230,361.541748 2232.927002,379.760162 
	C2222.676758,396.056610 2209.123535,408.046539 2189.479492,411.252655 
	C2161.934814,415.748291 2140.924561,405.729004 2132.010742,377.013947 
	C2127.175293,361.436829 2125.307861,345.397064 2125.152588,329.229980 
	C2124.790283,291.405701 2124.908691,253.576813 2124.846191,215.749786 
	C2124.844971,214.961212 2125.005127,214.172363 2125.104980,213.243530 
	C2140.657471,211.389420 2155.958984,209.565201 2171.128662,207.756699 
	C2171.128662,197.934937 2171.128662,188.551971 2171.128662,179.204559 
	C2123.144775,179.204559 2075.533936,179.204559 2027.763428,179.204559 
	C2027.763428,188.827942 2027.763428,198.243851 2027.763428,207.756058 
	C2044.708618,209.600708 2061.403076,211.418060 2077.664795,213.188324 
	C2077.664795,224.331619 2077.576660,235.118500 2077.722656,245.902237 
	C2077.762207,248.840683 2076.673340,250.160004 2073.986816,251.325989 
	C2055.404785,259.390594 2036.917603,267.673737 2018.398315,275.883026 
	C2009.760132,279.712219 2001.118042,283.533264 1992.812744,287.209778 
	C1990.174927,277.782654 1988.058472,268.524139 1984.995239,259.590271 
	C1976.009155,233.382370 1959.912231,213.003204 1935.224609,199.650452 
	C1916.261597,189.394058 1895.808472,185.626053 1874.641479,185.182312 
	C1852.555542,184.719284 1831.171265,188.174500 1810.799561,199.278244 
M499.305023,309.113007 
	C505.358154,332.826202 514.335938,355.261261 528.224060,375.570709 
	C545.975891,401.530334 569.240784,420.742554 598.207397,433.056458 
	C625.646118,444.720856 654.531189,448.821350 684.035156,448.887085 
	C720.212341,448.967682 754.794556,442.185913 786.409668,423.438904 
	C813.428833,407.417206 834.392273,385.514832 849.621521,358.252380 
	C866.429260,328.164276 875.106750,295.533295 878.195984,261.317963 
	C881.315674,226.765167 879.990112,192.413162 872.901123,158.426727 
	C866.403931,127.277626 854.877441,98.262436 834.805359,73.105309 
	C815.688110,49.144855 792.220459,31.156395 763.199585,20.780972 
	C747.325012,15.105556 731.068542,11.154465 714.222839,9.581186 
	C675.211731,5.937805 637.066589,8.812165 600.587341,24.337961 
	C565.954895,39.077789 539.842468,63.383415 521.112610,95.832344 
	C501.519562,129.776794 493.253754,166.941422 491.140350,205.558487 
	C489.250763,240.085297 491.127228,274.468872 499.305023,309.113007 
M190.501068,14.506128 
	C131.412735,14.506128 72.324409,14.506128 13.034826,14.506128 
	C13.034826,24.934387 13.034826,34.876968 13.034826,45.250267 
	C29.426508,46.996365 45.753365,48.735561 62.234035,50.491138 
	C62.234035,169.394516 62.234035,288.088837 62.234035,406.995544 
	C45.666882,408.850555 29.342373,410.678406 13.108871,412.496063 
	C13.108871,422.894257 13.108871,432.808411 13.108871,442.999939 
	C14.190040,442.999939 14.996104,442.999908 15.802169,442.999908 
	C72.284782,442.999390 128.768600,443.224457 185.249603,442.921844 
	C225.205154,442.707764 264.250946,437.427063 300.556061,419.148987 
	C328.565399,405.047516 351.344757,385.035095 368.005737,358.455994 
	C384.903656,331.498993 393.951813,301.673462 398.028717,270.327484 
	C402.460510,236.252365 402.031464,202.196243 395.843872,168.330612 
	C389.692444,134.663071 376.885010,104.026199 354.358673,77.796303 
	C331.647980,51.351715 303.107391,34.210464 269.986969,24.253387 
	C244.384583,16.556477 218.064514,14.525455 190.501068,14.506128 
M2470.500000,443.000366 
	C2557.944824,443.000366 2645.389648,443.000366 2732.902344,443.000366 
	C2732.902344,409.628784 2732.902344,376.719696 2732.902344,343.695679 
	C2719.686279,343.695679 2706.736084,343.695679 2693.494141,343.695679 
	C2692.490234,364.440247 2691.494873,385.013458 2690.501953,405.537231 
	C2623.094482,405.537231 2556.185547,405.537231 2489.295166,405.537231 
	C2489.295166,350.497833 2489.295166,295.753723 2489.295166,241.159119 
	C2524.495117,241.159119 2559.398926,241.159119 2594.516113,241.159119 
	C2595.529053,256.190155 2596.521729,270.915710 2597.506592,285.527771 
	C2609.438477,285.527771 2620.856201,285.527771 2632.205566,285.527771 
	C2632.205566,243.307816 2632.205566,201.393799 2632.205566,159.476532 
	C2620.507812,159.476532 2609.101562,159.476532 2597.495850,159.476532 
	C2596.483887,174.490540 2595.491455,189.214020 2594.502686,203.884918 
	C2559.092529,203.884918 2524.182861,203.884918 2489.336914,203.884918 
	C2489.336914,153.041733 2489.336914,102.481285 2489.336914,52.094406 
	C2554.789795,52.094406 2619.905762,52.094406 2685.239014,52.094406 
	C2686.259766,72.901176 2687.268555,93.460205 2688.267822,113.827995 
	C2701.747314,113.827995 2714.658203,113.827995 2727.549561,113.827995 
	C2727.549561,80.571930 2727.549561,47.656734 2727.549561,14.766837 
	C2614.345947,14.766837 2501.426514,14.766837 2388.425049,14.766837 
	C2388.425049,24.629543 2388.425049,34.229141 2388.425049,43.983315 
	C2405.033447,45.593250 2421.402100,47.179962 2437.764648,48.766068 
	C2437.764648,168.961624 2437.764648,288.726196 2437.764648,408.747803 
	C2421.216797,410.342926 2404.874268,411.918243 2388.399414,413.506348 
	C2388.399414,423.431763 2388.399414,433.008423 2388.399414,443.000366 
	C2415.586670,443.000366 2442.543213,443.000366 2470.500000,443.000366 
M1196.609253,83.194504 
	C1195.285767,86.033905 1193.507202,88.752197 1192.713989,91.732758 
	C1188.292603,108.343903 1194.431641,125.061790 1214.035645,128.020813 
	C1220.921875,129.060226 1228.311646,128.504166 1235.214600,127.256088 
	C1244.138794,125.642586 1250.155029,119.576042 1253.455444,111.122017 
	C1262.387573,88.243172 1255.001221,59.871078 1236.637573,43.591343 
	C1218.021484,27.087809 1196.076416,17.646986 1172.175659,12.566236 
	C1134.169434,4.486922 1096.465820,5.840333 1060.418457,21.088745 
	C1022.291809,37.216793 999.238403,65.300674 996.654663,108.050690 
	C994.944031,136.353668 1003.017944,161.182098 1023.413025,181.051941 
	C1033.252563,190.638092 1044.655151,198.617691 1055.318604,207.363068 
	C1056.602417,208.415985 1057.688965,209.709457 1059.022949,211.047943 
	C1028.797974,211.047943 999.549255,211.047943 970.062988,211.047943 
	C970.062988,221.511917 970.062988,232.425079 970.062988,243.834717 
	C971.994934,243.834717 973.781494,243.834702 975.568054,243.834702 
	C1020.561829,243.834702 1065.555664,243.827927 1110.549438,243.857330 
	C1112.523315,243.858627 1114.715576,243.691437 1116.437500,244.445023 
	C1138.252319,253.992508 1159.993774,263.745758 1178.594971,279.030884 
	C1193.339966,291.147095 1204.914673,305.575806 1208.682495,324.827454 
	C1212.860352,346.175140 1209.634888,365.824921 1194.260254,382.462006 
	C1182.304932,395.399078 1166.829224,401.950836 1150.327148,405.597290 
	C1120.465698,412.195831 1090.432007,411.733337 1060.772827,403.880249 
	C1049.166626,400.807159 1038.011597,396.394897 1029.939087,386.075500 
	C1032.065186,385.046875 1033.987793,384.130829 1035.898315,383.190247 
	C1052.678955,374.929016 1056.653076,352.442078 1043.731812,338.881317 
	C1031.532593,326.078278 1005.147156,327.820801 993.659668,342.188141 
	C982.590271,356.032379 981.865723,381.981079 992.024109,399.429230 
	C1002.384521,417.224091 1018.237366,428.413239 1036.808350,436.016510 
	C1059.091797,445.139740 1082.426392,449.285980 1106.492188,449.390594 
	C1135.829956,449.518097 1164.655396,446.644592 1192.123169,435.306152 
	C1213.886353,426.322449 1232.278320,413.186401 1244.992554,392.967773 
	C1254.929077,377.166565 1258.761353,359.708923 1259.350220,341.227570 
	C1260.115723,317.204895 1252.505005,296.387390 1236.282715,278.802002 
	C1223.326904,264.757629 1208.095337,253.430527 1192.172241,242.983994 
	C1190.666748,241.996292 1189.574829,240.378052 1187.971924,238.723236 
	C1221.925781,238.723236 1254.680176,238.723236 1287.572998,238.723236 
	C1287.572998,228.145248 1287.572998,217.246475 1287.572998,205.998352 
	C1285.517822,205.998352 1283.713135,205.998352 1281.908447,205.998352 
	C1234.581665,205.998352 1187.254761,206.009811 1139.927979,205.960464 
	C1137.825439,205.958282 1135.437378,205.948227 1133.665649,205.019577 
	C1116.449585,195.995651 1098.808594,187.626480 1082.321289,177.405258 
	C1059.025513,162.963242 1045.842773,141.952209 1044.243896,113.763542 
	C1042.829712,88.830299 1055.493774,66.347786 1078.270264,56.154438 
	C1094.087158,49.075794 1110.746338,46.713799 1127.892212,46.572735 
	C1148.354004,46.404381 1168.493042,48.281490 1187.590942,56.233318 
	C1195.907837,59.696285 1203.677490,64.139305 1207.953613,72.104172 
	C1204.141235,75.744652 1200.565430,79.159241 1196.609253,83.194504 
M1662.910034,198.337234 
	C1657.425659,209.786636 1650.208984,219.650391 1639.456055,224.875793 
	C1635.275513,219.479111 1632.202271,213.330704 1627.291504,209.603287 
	C1615.144409,200.383209 1595.152222,204.661530 1586.529419,217.367294 
	C1577.663086,230.432098 1581.614624,250.634567 1594.386475,259.243927 
	C1606.818115,267.624146 1620.675415,267.546326 1634.379517,265.505585 
	C1665.389282,260.887787 1686.985107,242.382996 1701.817871,215.871262 
	C1719.242798,184.725830 1724.591064,150.940750 1718.950317,115.872482 
	C1711.087036,66.986084 1682.053101,34.678650 1636.363037,18.067101 
	C1595.877441,3.347674 1554.492554,4.556369 1513.848755,18.369595 
	C1487.888184,27.192602 1467.282593,43.639259 1451.930664,66.582390 
	C1436.952759,88.966805 1429.320679,113.971954 1426.021484,140.302353 
	C1424.225342,154.637222 1423.650146,169.201920 1423.604492,183.666367 
	C1423.373901,256.655701 1423.498535,329.646179 1423.498535,402.636261 
	C1423.498535,404.588745 1423.498535,406.541260 1423.498535,408.715240 
	C1406.610229,410.342407 1390.122437,411.931000 1373.817627,413.501953 
	C1373.817627,423.634674 1373.817627,433.218689 1373.817627,442.842682 
	C1423.764771,442.842682 1473.392578,442.842682 1523.186279,442.842682 
	C1523.186279,432.950256 1523.186279,423.218628 1523.186279,413.473663 
	C1506.665039,411.888184 1490.454102,410.332489 1473.834351,408.737549 
	C1473.834351,407.324341 1473.834351,406.200714 1473.834351,405.077087 
	C1473.834961,329.254059 1473.848633,253.431046 1473.828979,177.608017 
	C1473.822510,152.774796 1476.613892,128.376572 1486.166138,105.239899 
	C1497.100586,78.755577 1515.467896,59.993042 1543.547974,51.709900 
	C1562.821289,46.024578 1582.367065,45.808098 1601.913330,49.311142 
	C1625.292236,53.501099 1644.615234,64.690834 1658.456055,84.453423 
	C1669.450439,100.151543 1673.717285,117.907310 1673.996582,136.743240 
	C1674.307251,157.705109 1672.261597,178.313904 1662.910034,198.337234 
z"/>
<path fill="#010101" opacity="1.000000" stroke="none" 
	d="
M1811.131958,199.119339 
	C1831.171265,188.174500 1852.555542,184.719284 1874.641479,185.182312 
	C1895.808472,185.626053 1916.261597,189.394058 1935.224609,199.650452 
	C1959.912231,213.003204 1976.009155,233.382370 1984.995239,259.590271 
	C1988.058472,268.524139 1990.174927,277.782654 1992.812744,287.209778 
	C2001.118042,283.533264 2009.760132,279.712219 2018.398315,275.883026 
	C2036.917603,267.673737 2055.404785,259.390594 2073.986816,251.325989 
	C2076.673340,250.160004 2077.762207,248.840683 2077.722656,245.902237 
	C2077.576660,235.118500 2077.664795,224.331619 2077.664795,213.188324 
	C2061.403076,211.418060 2044.708618,209.600708 2027.763428,207.756058 
	C2027.763428,198.243851 2027.763428,188.827942 2027.763428,179.204559 
	C2075.533936,179.204559 2123.144775,179.204559 2171.128662,179.204559 
	C2171.128662,188.551971 2171.128662,197.934937 2171.128662,207.756699 
	C2155.958984,209.565201 2140.657471,211.389420 2125.104980,213.243530 
	C2125.005127,214.172363 2124.844971,214.961212 2124.846191,215.749786 
	C2124.908691,253.576813 2124.790283,291.405701 2125.152588,329.229980 
	C2125.307861,345.397064 2127.175293,361.436829 2132.010742,377.013947 
	C2140.924561,405.729004 2161.934814,415.748291 2189.479492,411.252655 
	C2209.123535,408.046539 2222.676758,396.056610 2232.927002,379.760162 
	C2244.386230,361.541748 2250.144287,341.259094 2253.664551,320.301605 
	C2259.965820,282.784363 2261.309570,245.094376 2255.935303,207.350723 
	C2251.310791,174.875626 2240.603760,144.780670 2220.183105,118.570274 
	C2204.714111,98.715157 2185.352539,83.787354 2162.741455,73.175201 
	C2127.647461,56.704197 2090.227295,51.749687 2051.872803,51.874672 
	C1991.480591,52.071476 1938.716919,73.113991 1891.826782,110.282028 
	C1890.540161,111.301819 1889.215210,112.273155 1887.683838,113.437622 
	C1879.232666,102.400383 1870.952515,91.586311 1862.520630,80.574104 
	C1877.493652,66.874130 1893.611694,54.914223 1911.178467,45.005627 
	C1967.056030,13.487828 2027.274292,3.912265 2090.551270,9.631707 
	C2112.497559,11.615359 2134.133545,15.054061 2155.170166,21.678719 
	C2194.363770,34.021187 2228.720947,53.973080 2255.931396,85.413780 
	C2283.652344,117.444351 2299.142822,154.852707 2306.140137,196.238007 
	C2312.818604,235.740173 2312.204590,275.270233 2305.786377,314.624756 
	C2300.457275,347.300476 2290.011475,378.213348 2269.227295,404.787781 
	C2250.695801,428.481873 2227.043457,443.737091 2196.983887,447.871521 
	C2174.791504,450.923859 2152.815430,450.156311 2131.653076,441.571045 
	C2111.247803,433.293060 2097.291748,418.641205 2088.950195,398.470032 
	C2079.337402,375.225159 2077.665283,350.695190 2077.512451,325.950043 
	C2077.433350,313.130188 2077.498779,300.309479 2077.498779,286.925110 
	C2075.985596,287.523346 2074.822266,287.875305 2073.757568,288.419800 
	C2048.038330,301.574066 2022.357056,314.803009 1996.578003,327.838684 
	C1993.928711,329.178345 1993.202393,330.823761 1992.929565,333.512695 
	C1990.794189,354.561157 1985.869507,374.787628 1975.003418,393.237335 
	C1956.661499,424.380371 1929.430786,442.597961 1893.870728,447.749420 
	C1868.180420,451.471069 1842.740234,449.977905 1818.245239,440.155670 
	C1789.234497,428.522675 1768.767822,407.934235 1758.323730,378.863525 
	C1743.041260,336.324738 1743.648560,293.543060 1762.128906,251.837189 
	C1772.277100,228.934875 1788.768555,211.420715 1811.131958,199.119339 
M1902.109863,406.783356 
	C1920.828979,397.466888 1933.112793,382.479462 1939.812988,362.956665 
	C1949.433472,334.924438 1949.647461,306.375732 1942.354126,277.897125 
	C1938.109985,261.325439 1929.830200,246.781479 1916.015015,235.969788 
	C1903.159546,225.909149 1888.271118,221.879547 1872.260254,221.685242 
	C1842.575439,221.324966 1819.722290,233.568832 1806.938477,260.689331 
	C1790.437866,295.694916 1790.618774,331.928284 1803.655518,367.938782 
	C1809.008179,382.724396 1818.451294,395.256042 1832.577148,403.089203 
	C1854.769653,415.395386 1877.863525,415.952484 1902.109863,406.783356 
z"/>
<path fill="#010101" opacity="1.000000" stroke="none" 
	d="
M499.219055,308.706116 
	C491.127228,274.468872 489.250763,240.085297 491.140350,205.558487 
	C493.253754,166.941422 501.519562,129.776794 521.112610,95.832344 
	C539.842468,63.383415 565.954895,39.077789 600.587341,24.337961 
	C637.066589,8.812165 675.211731,5.937805 714.222839,9.581186 
	C731.068542,11.154465 747.325012,15.105556 763.199585,20.780972 
	C792.220459,31.156395 815.688110,49.144855 834.805359,73.105309 
	C854.877441,98.262436 866.403931,127.277626 872.901123,158.426727 
	C879.990112,192.413162 881.315674,226.765167 878.195984,261.317963 
	C875.106750,295.533295 866.429260,328.164276 849.621521,358.252380 
	C834.392273,385.514832 813.428833,407.417206 786.409668,423.438904 
	C754.794556,442.185913 720.212341,448.967682 684.035156,448.887085 
	C654.531189,448.821350 625.646118,444.720856 598.207397,433.056458 
	C569.240784,420.742554 545.975891,401.530334 528.224060,375.570709 
	C514.335938,355.261261 505.358154,332.826202 499.219055,308.706116 
M817.074646,309.527496 
	C823.373047,286.991821 826.835144,264.043243 827.257385,240.401276 
	C732.365479,240.401276 637.625977,240.401276 542.270081,240.401276 
	C543.203369,250.276688 543.893677,259.892029 545.056213,269.449890 
	C548.608582,298.656982 556.228271,326.590912 572.286499,351.630188 
	C585.952576,372.939453 604.131897,389.339233 627.887207,398.456512 
	C658.370667,410.156067 689.830750,411.496033 721.696899,404.849670 
	C743.565918,400.288361 762.923035,390.571381 778.967590,375.095459 
	C797.586365,357.136505 809.473328,334.966278 817.074646,309.527496 
M815.368042,142.250168 
	C810.049438,127.675873 803.966675,113.467323 794.834534,100.795662 
	C778.354004,77.927650 757.041504,61.786686 729.698914,53.935642 
	C709.384094,48.102520 688.670471,47.472157 667.847046,49.158409 
	C651.498657,50.482277 635.678650,54.470924 620.820251,61.548443 
	C591.069702,75.719574 571.620483,99.360428 559.172424,129.337311 
	C549.961182,151.519440 545.778381,174.837357 543.356628,198.462784 
	C637.844055,198.462784 732.321045,198.462784 828.332092,198.462784 
	C824.010681,179.512680 819.845276,161.246475 815.368042,142.250168 
z"/>
<path fill="#010101" opacity="1.000000" stroke="none" 
	d="
M191.001236,14.506107 
	C218.064514,14.525455 244.384583,16.556477 269.986969,24.253387 
	C303.107391,34.210464 331.647980,51.351715 354.358673,77.796303 
	C376.885010,104.026199 389.692444,134.663071 395.843872,168.330612 
	C402.031464,202.196243 402.460510,236.252365 398.028717,270.327484 
	C393.951813,301.673462 384.903656,331.498993 368.005737,358.455994 
	C351.344757,385.035095 328.565399,405.047516 300.556061,419.148987 
	C264.250946,437.427063 225.205154,442.707764 185.249603,442.921844 
	C128.768600,443.224457 72.284782,442.999390 15.802169,442.999908 
	C14.996104,442.999908 14.190040,442.999939 13.108871,442.999939 
	C13.108871,432.808411 13.108871,422.894257 13.108871,412.496063 
	C29.342373,410.678406 45.666882,408.850555 62.234035,406.995544 
	C62.234035,288.088837 62.234035,169.394516 62.234035,50.491138 
	C45.753365,48.735561 29.426508,46.996365 13.034826,45.250267 
	C13.034826,34.876968 13.034826,24.934387 13.034826,14.506128 
	C72.324409,14.506128 131.412735,14.506128 191.001236,14.506107 
M346.266113,259.816101 
	C346.639648,256.171783 347.159943,252.535645 347.364044,248.881866 
	C349.461731,211.333221 347.393188,174.294830 333.176910,138.866684 
	C324.342926,116.851692 311.300049,97.825943 292.536591,82.997398 
	C269.018738,64.411484 241.743881,54.878807 212.331345,53.302486 
	C179.925201,51.565731 147.390152,52.234219 114.911087,51.868835 
	C114.596298,51.865295 114.279373,52.051414 113.728912,52.221424 
	C113.728912,169.894165 113.728912,287.634888 113.728912,405.656921 
	C114.842812,405.721680 115.796806,405.825226 116.750832,405.825562 
	C137.913193,405.833282 159.079987,406.101074 180.236755,405.756195 
	C204.266739,405.364532 228.091751,403.193848 251.003922,395.089661 
	C277.478790,385.725342 299.603546,370.288666 315.953033,347.367798 
	C334.399048,321.507812 343.114716,292.054077 346.266113,259.816101 
z"/>
<path fill="#010101" opacity="1.000000" stroke="none" 
	d="
M2470.000000,443.000366 
	C2442.543213,443.000366 2415.586670,443.000366 2388.399414,443.000366 
	C2388.399414,433.008423 2388.399414,423.431763 2388.399414,413.506348 
	C2404.874268,411.918243 2421.216797,410.342926 2437.764648,408.747803 
	C2437.764648,288.726196 2437.764648,168.961624 2437.764648,48.766068 
	C2421.402100,47.179962 2405.033447,45.593250 2388.425049,43.983315 
	C2388.425049,34.229141 2388.425049,24.629543 2388.425049,14.766837 
	C2501.426514,14.766837 2614.345947,14.766837 2727.549561,14.766837 
	C2727.549561,47.656734 2727.549561,80.571930 2727.549561,113.827995 
	C2714.658203,113.827995 2701.747314,113.827995 2688.267822,113.827995 
	C2687.268555,93.460205 2686.259766,72.901176 2685.239014,52.094406 
	C2619.905762,52.094406 2554.789795,52.094406 2489.336914,52.094406 
	C2489.336914,102.481285 2489.336914,153.041733 2489.336914,203.884918 
	C2524.182861,203.884918 2559.092529,203.884918 2594.502686,203.884918 
	C2595.491455,189.214020 2596.483887,174.490540 2597.495850,159.476532 
	C2609.101562,159.476532 2620.507812,159.476532 2632.205566,159.476532 
	C2632.205566,201.393799 2632.205566,243.307816 2632.205566,285.527771 
	C2620.856201,285.527771 2609.438477,285.527771 2597.506592,285.527771 
	C2596.521729,270.915710 2595.529053,256.190155 2594.516113,241.159119 
	C2559.398926,241.159119 2524.495117,241.159119 2489.295166,241.159119 
	C2489.295166,295.753723 2489.295166,350.497833 2489.295166,405.537231 
	C2556.185547,405.537231 2623.094482,405.537231 2690.501953,405.537231 
	C2691.494873,385.013458 2692.490234,364.440247 2693.494141,343.695679 
	C2706.736084,343.695679 2719.686279,343.695679 2732.902344,343.695679 
	C2732.902344,376.719696 2732.902344,409.628784 2732.902344,443.000366 
	C2645.389648,443.000366 2557.944824,443.000366 2470.000000,443.000366 
z"/>
<path fill="#020202" opacity="1.000000" stroke="none" 
	d="
M1196.799316,82.884171 
	C1200.565430,79.159241 1204.141235,75.744652 1207.953613,72.104172 
	C1203.677490,64.139305 1195.907837,59.696285 1187.590942,56.233318 
	C1168.493042,48.281490 1148.354004,46.404381 1127.892212,46.572735 
	C1110.746338,46.713799 1094.087158,49.075794 1078.270264,56.154438 
	C1055.493774,66.347786 1042.829712,88.830299 1044.243896,113.763542 
	C1045.842773,141.952209 1059.025513,162.963242 1082.321289,177.405258 
	C1098.808594,187.626480 1116.449585,195.995651 1133.665649,205.019577 
	C1135.437378,205.948227 1137.825439,205.958282 1139.927979,205.960464 
	C1187.254761,206.009811 1234.581665,205.998352 1281.908447,205.998352 
	C1283.713135,205.998352 1285.517822,205.998352 1287.572998,205.998352 
	C1287.572998,217.246475 1287.572998,228.145248 1287.572998,238.723236 
	C1254.680176,238.723236 1221.925781,238.723236 1187.971924,238.723236 
	C1189.574829,240.378052 1190.666748,241.996292 1192.172241,242.983994 
	C1208.095337,253.430527 1223.326904,264.757629 1236.282715,278.802002 
	C1252.505005,296.387390 1260.115723,317.204895 1259.350220,341.227570 
	C1258.761353,359.708923 1254.929077,377.166565 1244.992554,392.967773 
	C1232.278320,413.186401 1213.886353,426.322449 1192.123169,435.306152 
	C1164.655396,446.644592 1135.829956,449.518097 1106.492188,449.390594 
	C1082.426392,449.285980 1059.091797,445.139740 1036.808350,436.016510 
	C1018.237366,428.413239 1002.384521,417.224091 992.024109,399.429230 
	C981.865723,381.981079 982.590271,356.032379 993.659668,342.188141 
	C1005.147156,327.820801 1031.532593,326.078278 1043.731812,338.881317 
	C1056.653076,352.442078 1052.678955,374.929016 1035.898315,383.190247 
	C1033.987793,384.130829 1032.065186,385.046875 1029.939087,386.075500 
	C1038.011597,396.394897 1049.166626,400.807159 1060.772827,403.880249 
	C1090.432007,411.733337 1120.465698,412.195831 1150.327148,405.597290 
	C1166.829224,401.950836 1182.304932,395.399078 1194.260254,382.462006 
	C1209.634888,365.824921 1212.860352,346.175140 1208.682495,324.827454 
	C1204.914673,305.575806 1193.339966,291.147095 1178.594971,279.030884 
	C1159.993774,263.745758 1138.252319,253.992508 1116.437500,244.445023 
	C1114.715576,243.691437 1112.523315,243.858627 1110.549438,243.857330 
	C1065.555664,243.827927 1020.561829,243.834702 975.568054,243.834702 
	C973.781494,243.834702 971.994934,243.834717 970.062988,243.834717 
	C970.062988,232.425079 970.062988,221.511917 970.062988,211.047943 
	C999.549255,211.047943 1028.797974,211.047943 1059.022949,211.047943 
	C1057.688965,209.709457 1056.602417,208.415985 1055.318604,207.363068 
	C1044.655151,198.617691 1033.252563,190.638092 1023.413025,181.051941 
	C1003.017944,161.182098 994.944031,136.353668 996.654663,108.050690 
	C999.238403,65.300674 1022.291809,37.216793 1060.418457,21.088745 
	C1096.465820,5.840333 1134.169434,4.486922 1172.175659,12.566236 
	C1196.076416,17.646986 1218.021484,27.087809 1236.637573,43.591343 
	C1255.001221,59.871078 1262.387573,88.243172 1253.455444,111.122017 
	C1250.155029,119.576042 1244.138794,125.642586 1235.214600,127.256088 
	C1228.311646,128.504166 1220.921875,129.060226 1214.035645,128.020813 
	C1194.431641,125.061790 1188.292603,108.343903 1192.713989,91.732758 
	C1193.507202,88.752197 1195.285767,86.033905 1196.799316,82.884171 
z"/>
<path fill="#010101" opacity="1.000000" stroke="none" 
	d="
M1663.070435,197.996017 
	C1672.261597,178.313904 1674.307251,157.705109 1673.996582,136.743240 
	C1673.717285,117.907310 1669.450439,100.151543 1658.456055,84.453423 
	C1644.615234,64.690834 1625.292236,53.501099 1601.913330,49.311142 
	C1582.367065,45.808098 1562.821289,46.024578 1543.547974,51.709900 
	C1515.467896,59.993042 1497.100586,78.755577 1486.166138,105.239899 
	C1476.613892,128.376572 1473.822510,152.774796 1473.828979,177.608017 
	C1473.848633,253.431046 1473.834961,329.254059 1473.834351,405.077087 
	C1473.834351,406.200714 1473.834351,407.324341 1473.834351,408.737549 
	C1490.454102,410.332489 1506.665039,411.888184 1523.186279,413.473663 
	C1523.186279,423.218628 1523.186279,432.950256 1523.186279,442.842682 
	C1473.392578,442.842682 1423.764771,442.842682 1373.817627,442.842682 
	C1373.817627,433.218689 1373.817627,423.634674 1373.817627,413.501953 
	C1390.122437,411.931000 1406.610229,410.342407 1423.498535,408.715240 
	C1423.498535,406.541260 1423.498535,404.588745 1423.498535,402.636261 
	C1423.498535,329.646179 1423.373901,256.655701 1423.604492,183.666367 
	C1423.650146,169.201920 1424.225342,154.637222 1426.021484,140.302353 
	C1429.320679,113.971954 1436.952759,88.966805 1451.930664,66.582390 
	C1467.282593,43.639259 1487.888184,27.192602 1513.848755,18.369595 
	C1554.492554,4.556369 1595.877441,3.347674 1636.363037,18.067101 
	C1682.053101,34.678650 1711.087036,66.986084 1718.950317,115.872482 
	C1724.591064,150.940750 1719.242798,184.725830 1701.817871,215.871262 
	C1686.985107,242.382996 1665.389282,260.887787 1634.379517,265.505585 
	C1620.675415,267.546326 1606.818115,267.624146 1594.386475,259.243927 
	C1581.614624,250.634567 1577.663086,230.432098 1586.529419,217.367294 
	C1595.152222,204.661530 1615.144409,200.383209 1627.291504,209.603287 
	C1632.202271,213.330704 1635.275513,219.479111 1639.456055,224.875793 
	C1650.208984,219.650391 1657.425659,209.786636 1663.070435,197.996017 
z"/>
<path fill="#FEFEFE" opacity="1.000000" stroke="none" 
	d="
M1901.747070,406.896362 
	C1877.863525,415.952484 1854.769653,415.395386 1832.577148,403.089203 
	C1818.451294,395.256042 1809.008179,382.724396 1803.655518,367.938782 
	C1790.618774,331.928284 1790.437866,295.694916 1806.938477,260.689331 
	C1819.722290,233.568832 1842.575439,221.324966 1872.260254,221.685242 
	C1888.271118,221.879547 1903.159546,225.909149 1916.015015,235.969788 
	C1929.830200,246.781479 1938.109985,261.325439 1942.354126,277.897125 
	C1949.647461,306.375732 1949.433472,334.924438 1939.812988,362.956665 
	C1933.112793,382.479462 1920.828979,397.466888 1901.747070,406.896362 
z"/>
<path fill="#FEFEFE" opacity="1.000000" stroke="none" 
	d="
M816.993042,309.924377 
	C809.473328,334.966278 797.586365,357.136505 778.967590,375.095459 
	C762.923035,390.571381 743.565918,400.288361 721.696899,404.849670 
	C689.830750,411.496033 658.370667,410.156067 627.887207,398.456512 
	C604.131897,389.339233 585.952576,372.939453 572.286499,351.630188 
	C556.228271,326.590912 548.608582,298.656982 545.056213,269.449890 
	C543.893677,259.892029 543.203369,250.276688 542.270081,240.401276 
	C637.625977,240.401276 732.365479,240.401276 827.257385,240.401276 
	C826.835144,264.043243 823.373047,286.991821 816.993042,309.924377 
z"/>
<path fill="#FEFEFE" opacity="1.000000" stroke="none" 
	d="
M815.523926,142.615219 
	C819.845276,161.246475 824.010681,179.512680 828.332092,198.462784 
	C732.321045,198.462784 637.844055,198.462784 543.356628,198.462784 
	C545.778381,174.837357 549.961182,151.519440 559.172424,129.337311 
	C571.620483,99.360428 591.069702,75.719574 620.820251,61.548443 
	C635.678650,54.470924 651.498657,50.482277 667.847046,49.158409 
	C688.670471,47.472157 709.384094,48.102520 729.698914,53.935642 
	C757.041504,61.786686 778.354004,77.927650 794.834534,100.795662 
	C803.966675,113.467323 810.049438,127.675873 815.523926,142.615219 
z"/>
<path fill="#FEFEFE" opacity="1.000000" stroke="none" 
	d="
M346.218842,260.270264 
	C343.114716,292.054077 334.399048,321.507812 315.953033,347.367798 
	C299.603546,370.288666 277.478790,385.725342 251.003922,395.089661 
	C228.091751,403.193848 204.266739,405.364532 180.236755,405.756195 
	C159.079987,406.101074 137.913193,405.833282 116.750832,405.825562 
	C115.796806,405.825226 114.842812,405.721680 113.728912,405.656921 
	C113.728912,287.634888 113.728912,169.894165 113.728912,52.221424 
	C114.279373,52.051414 114.596298,51.865295 114.911087,51.868835 
	C147.390152,52.234219 179.925201,51.565731 212.331345,53.302486 
	C241.743881,54.878807 269.018738,64.411484 292.536591,82.997398 
	C311.300049,97.825943 324.342926,116.851692 333.176910,138.866684 
	C347.393188,174.294830 349.461731,211.333221 347.364044,248.881866 
	C347.159943,252.535645 346.639648,256.171783 346.218842,260.270264 
z"/>
</svg>