<svg enable-background="new 0 0 1840 566" viewBox="0 0 1840 566" xmlns="http://www.w3.org/2000/svg"><path d="m1161 567c-387 0-773.5 0-1160 0 0-188.666656 0-377.333328 0-566h1840v566c-226.5 0-453 0-680 0m-316.49469-129.651672c-28.636841-.090882-50.400513-12.892395-67.28125-35.892395 4.193054-1.664948 7.789002-2.982178 11.296814-4.50293 31.7052-13.7453 56.165527-35.10025 68.679199-67.963532 8.24762-21.659668 6.5271-43.14978-4.913635-63.58081-9.293579-16.596588-21.542114-30.86911-35.430664-43.679276-11.288025-10.411575-23.372803-20.002365-37.966797-25.446609-29.122375-10.864029-57.241333-3.757523-85.978699 5.048691 9.115662 16.452972 17.871094 32.255737 26.760987 48.301239 4.140686-1.560623 7.826355-3.036957 11.570434-4.345978 17.120972-5.985809 34.470032-10.180298 52.849549-7.267151 13.437439 2.129807 24.340759 8.021545 30.693298 20.486465 6.284973 12.332337 5.735412 25.278016 1.333069 37.875397-9.7948 28.027924-29.233094 47.133606-56.369934 58.581818-1.258484.530945-3.609864-.344238-4.910767-1.300873-6.009155-4.419037-11.420105-9.788483-17.7948-13.545807-14.566711-8.585754-39.508117-4.573089-48.447571 13.688233-8.299133 16.953064.677857 40.293884 19.025086 48.821167 11.410705 5.303405 23.288635 6.707 35.572693 4.566864 3.934814-.685517 6.324951.296814 8.596679 3.702056 3.779053 5.664734 7.880982 11.186371 12.413208 16.262665 12.937806 14.491211 26.946534 28.066956 44.805665 36.160614 35.414794 16.049774 71.557983 16.162934 107.762939 2.332001 5.818909-2.222961 11.320435-5.276733 17.637634-8.262634 0 5.979126-.017456 11.275482.003113 16.571747.06366 16.358154 2.700134 31.901092 14.458435 44.437439 13.032471 13.894836 27.979004 25.184387 45.738281 32.323974 23.552246 9.468628 47.120362 1.740051 64.301026-14.512207-8.094239-13.224121-16.197144-26.462646-24.212769-39.558533-1.885132 1.738221-3.510132 3.169526-5.061035 4.677216-9.480652 9.216217-20.144836 16.705292-33.309265 19.131622-13.031128 2.401795-13.526306.989563-13.518616-10.237915.069031-100.155517.019226-200.311157.12323-300.466598.003845-3.709-1.017883-5.517685-4.563782-6.932633-13.280212-5.299347-26.397461-11.006775-39.587402-16.533661-1.278809-.535873-2.637268-.881469-4.372253-1.451141v6.667862c0 66.825943.026306 133.651932-.109497 200.477585-.004761 2.346069-.976441 5.341705-2.585938 6.935119-23.871643 23.633301-51.991028 37.918427-87.206665 38.430909m-725.590889-27.779114c-2.145042-2.65686-4.290092-5.31369-6.531372-8.089722 3.100616-1.246429 5.710396-2.334503 8.348137-3.349975 29.07402-11.192871 51.895859-30.036164 66.629425-57.447052 13.293823-24.732361 14.143448-50.344483.058502-75.387513-11.834122-21.041046-28.092056-38.342315-46.837524-53.364959-19.384911-15.535126-41.136025-23.463181-66.320183-20.660752-15.597782 1.735657-30.91227 4.519699-45.931818 10.386856 8.834806 15.933258 17.674097 31.874619 26.620962 48.00998 3.94894-1.50647 7.454178-2.931809 11.018948-4.188248 14.993141-5.284485 30.205375-9.323334 46.345894-8.239883 32.153862 2.158401 48.574607 24.085235 40.088295 55.15039-8.612595 31.527435-30.509713 51.276428-58.673661 63.506775-7.543129-5.650818-13.933258-11.326385-21.136139-15.647064-14.576728-8.743897-39.852314-4.813629-48.793037 13.681793-8.208098 16.97992.69894 40.09906 19.151623 48.725281 11.399635 5.329071 23.285442 6.63681 35.577648 4.549896 3.600693-.611267 5.964462-.029877 8.277366 3.299133 4.833031 6.956177 9.896409 13.861023 15.673356 20.030152 12.214058 13.043396 25.29084 25.411865 41.782631 32.811126 35.810577 16.067078 72.198715 16.199036 108.644897 1.911316 5.655106-2.216919 10.993332-5.242218 17.101059-8.194885 0 8.881531-.282349 17.324005.062744 25.740784.593994 14.486328 5.625519 27.21109 15.911621 37.710235 10.102753 10.312012 21.519684 18.875611 34.13974 25.808533 25.363159 13.933472 53.315003 10.168335 74.13504-9.939026-8.119873-13.269226-16.257232-26.566986-24.299499-39.709381-4.587036 4.066223-8.747681 8.163757-13.324799 11.726166-9.353668 7.280029-19.717682 12.267456-31.832275 12.951355-4.390503.247925-6.568756-1.639587-6.769409-5.939392-.069885-1.496765-.030243-2.998902-.030243-4.498596-.000977-97.324097.003082-194.648224-.013092-291.972336-.000794-4.646301 1.421783-10.333344-.729584-13.643997-2.120483-3.263092-7.902222-4.219925-12.151947-6.012329-11.58374-4.885666-23.206726-9.678208-35.277191-14.700303v32.590866c0 58.32782.016449 116.65564-.071655 174.983307-.00293 1.944947-.463929 4.4917-1.721466 5.742157-19.556382 19.445679-42.095139 33.396729-69.851914 37.911316-30.778305 5.006043-57.443924-2.141479-79.27108-26.242004m1690.329475 91.612457c-.918334-1.496857-1.836792-2.993713-2.990478-4.874054-2.009766 2.108246-3.632324 3.983826-5.432129 5.670258-10.770752 10.091644-22.677368 17.984466-37.946411 19.172027-6.721436.522827-7.959717-.602783-8.025147-7.383423-.064331-6.665344-.014404-13.331817-.014404-19.997772 0-94.65683-.022217-189.31372.084717-283.970443.00415-3.653199-.838745-5.52005-4.442505-6.94278-12.964355-5.118439-25.755859-10.673828-38.616333-16.055695-1.610718-.674072-3.242554-1.298065-5.456177-2.181274v106.878403c-2.200439 0-3.98645 0-5.772583 0-22.99768.00003-45.995483-.061066-68.992798.020691-16.364868.058166-32.620361 1.254943-48.337036 6.274292-36.864746 11.773224-61.980346 34.87088-68.115966 74.313202-5.081788 32.667449 2.811035 63.276062 19.611572 91.422912 21.192383 35.5047 50.469726 63.860962 81.763305 90.419739 6.964112-6.47345 13.906861-12.926941 20.934815-19.459778-17.890747-16.790405-34.561157-34.475494-47.943604-54.961639-15.755493-24.118927-25.581665-50.057495-22.717773-79.49704 2.135986-21.958283 12.527222-38.601074 32.451904-48.789368 15.524658-7.938446 32.286499-10.093414 49.41626-10.209137 17.997437-.121582 35.996094-.035187 53.994263-.013244 1.238159.001495 2.476074.223846 3.799438.351745 0 2.210663-.000122 4.041321-.000122 5.872009.000122 42.162293.037109 84.324646-.018066 126.486847-.021485 16.384095 2.628174 31.828644 14.211914 44.497681 10.792358 11.80365 23.342041 21.375061 37.473144 28.713684 10.905152 5.663391 22.483643 9.070374 35.0802 7.567505 14.60022-1.742004 26.716919-8.572266 37.903809-17.840637-7.207275-11.715759-14.334228-23.30127-21.903809-35.484711m-482.608642-401.30735c-10.800171-13.507355-21.180298-27.379112-32.504883-40.431492-14.73706-16.985378-32.690063-29.778067-54.07727-37.270223-20.00354-7.007437-40.556275-8.258909-61.437745-5.174973-24.377075 3.600193-44.845581 14.221251-60.38562 33.678743-17.771362 22.251351-24.94934 48.705223-29.04895 76.036049-4.3031 28.688179-4.191284 57.69709-4.138672 86.670387.137329 75.495972.001343 150.992402.084229 226.488526.016479 14.976196.314819 29.959564.866943 44.925445.475708 12.897614 4.948975 24.331391 13.938965 33.836152 12.73877 13.4682 27.378784 24.189636 44.458252 31.590881 23.459473 10.16571 48.03772 2.277527 65.501587-13.960266-8.069092-13.078186-16.166138-26.201477-24.479736-39.675934-1.497925 1.342407-2.544068 2.363007-3.674805 3.279327-5.536133 4.486328-10.799561 9.391816-16.719361 13.301148-7.565551 4.996155-15.954345 8.159302-25.314697 8.031921-3.968262-.054077-5.901245-1.700256-5.785034-5.699829.04834-1.665039-.006226-3.332825-.006226-4.99939-.000732-99.661682-.044189-199.323364.04419-298.984954.014038-15.809479-.16919-31.686081 1.17395-47.409043 1.408569-16.48938 3.849243-32.972473 7.144898-49.19297 2.657836-13.082123 8.117919-25.395538 17.080078-35.675957 18.586425-21.320713 49.906128-25.035431 75.989013-16.830658 16.729615 5.262558 30.459351 15.583054 42.892456 27.570488 19.137085 18.451027 33.427124 40.500252 46.126954 63.659539 2.843383 5.18544 5.648681 10.391906 8.572143 15.774017 8.698242-4.791153 16.831177-9.270905 25.192993-13.876724-9.190918-19.349182-19.136474-37.76796-31.493652-55.66021m-832.273102 160.031654c4.716187-3.893585 9.064392-8.384048 14.221069-11.56311 12.802033-7.892395 27.3508-10.613312 42.035248-11.061188 14.552674-.443893 29.155457.753876 43.835388 1.234864-3.456848-14.50824-7.099548-29.796189-10.702636-44.918046-16.619507-3.323013-32.936402-3.463806-49.258606-2.616455-22.789521 1.183091-44.31369 6.625168-63.701264 19.334168-30.394378 19.924179-39.951141 53.336899-30.543091 86.725143 5.386109 19.114655 18.088837 33.539887 32.796143 46.172242 6.176392 5.305023 13.160889 9.66925 20.040161 14.651001-30.320709 7.157836-60.262787 14.226287-90.595215 21.386901 8.878571 14.677521 17.381928 28.734711 25.937134 42.877655 1.034027-.197967 1.843079-.30249 2.624909-.509765 33.366729-8.846253 66.725525-17.722687 100.111328-26.496216 1.744384-.458466 4.245727-.810852 5.50299.066009 20.01178 13.956696 35.985779 30.933991 42.017579 55.613343 6.613586 27.060058-9.269837 55.447998-35.978699 63.548797-25.720764 7.801026-50.979004 5.880616-75.78302-3.813049-17.852173-6.976776-33.515503-17.641754-48.596131-29.76477-4.834289 7.304321-9.593231 14.49472-14.460357 21.848602 1.031494.927276 1.999969 1.816376 2.987945 2.683288 15.253113 13.382904 32.277192 24.058136 50.5206 32.821442 34.769531 16.701904 71.089325 21.347168 108.930572 13.720337 19.324036-3.894775 36.510437-12.299194 49.354553-27.300964 19.254029-22.488709 21.294678-48.770173 13.488953-76.220704-6.334717-22.27713-22.708252-36.759674-40.844849-49.389312-6.876892-4.788758-14.561584-8.417603-22.068908-12.683594 29.422668-6.849487 58.636352-13.65033 88.221313-20.537628-7.977478-13.416138-15.79364-26.361054-23.365356-39.447418-1.711914-2.958771-3.243103-3.591767-6.658936-2.669068-32.686157 8.828827-65.430481 17.443146-98.192627 25.98703-1.845215.481201-4.624389.584046-5.90155-.45227-13.43512-10.901581-25.631287-23.00116-31.671906-39.702271-6.159454-17.029693-5.73233-33.629242 5.697266-49.524994m820.77066 68.447907c-8.943969-11.101532-14.164184-23.641419-14.431518-38.012024-.348755-18.740051 6.938599-33.180634 23.854736-42.26004 21.31897-11.442475 44.291748-12.153504 67.608399-10.582901 5.877685.395935 11.720092 1.314911 18.029785 2.045761-3.485962-15.003632-6.765869-29.445847-10.324463-43.819001-.286011-1.155212-2.429688-2.501968-3.814575-2.63005-10.600098-.980393-21.217163-2.182968-31.845703-2.370819-28.504639-.50383-55.752198 4.294708-79.755494 21.029876-22.125 15.42569-32.531738 37.073609-32.055297 63.637986.431152 24.048095 10.713501 44.117828 28.278808 60.25003 8.652466 7.946472 18.147949 14.974915 27.260132 22.417359-29.47229 6.946197-59.504639 14.024383-89.94397 21.198516 8.478638 13.881745 16.601441 27.057801 24.563721 40.330231 1.437988 2.396881 2.821411 2.374603 5.287964 1.711823 32.57605-8.753083 65.185913-17.380616 97.814941-25.934082 2.087159-.54715 5.047608-1.17096 6.513428-.168122 20.790894 14.223236 37.55188 31.851044 42.305176 57.5625 4.04248 21.866333-2.167359 40.64975-21.071778 53.840058-18.503784 12.910736-39.630371 13.865387-60.935546 11.658844-20.201294-2.092224-38.616455-9.892304-55.570801-20.971894-7.759644-5.070861-15.233399-10.579254-23.134644-16.097229-4.767334 7.124298-9.526977 14.236847-14.355957 21.453308 12.119751 10.998627 25.056641 19.979401 38.839844 27.854157 39.946045 22.822205 82.223755 30.859009 127.456665 20.407593 17.313843-4.000428 32.424561-12.222962 44.621582-25.151123 23.005493-24.384949 22.831543-63.758972 10.153565-88.462189-8.612427-16.781616-22.208985-28.977387-37.67334-39.159363-6.614136-4.354706-13.83191-7.79248-21.082764-11.817474 29.458252-6.878174 58.647949-13.693634 88.233765-20.601624-7.981568-13.416626-15.828614-26.362579-23.379151-39.479156-1.779663-3.09137-3.474365-3.488281-6.766357-2.6055-32.39209 8.686371-64.849854 17.127625-97.242554 25.811585-3.565918.955994-6.272705.943726-8.9375-1.90033-5.911865-6.309387-12.017334-12.437439-18.501099-19.186706z" fill="#fff"/><path d="m845 437.323059c34.720947-.487213 62.840332-14.772339 86.711975-38.40564 1.609497-1.593414 2.581177-4.58905 2.585938-6.935119.135803-66.825653.109497-133.651642.109497-200.477585 0-1.992188 0-3.984375 0-6.667862 1.734985.569672 3.093444.915268 4.372253 1.451141 13.189941 5.526886 26.30719 11.234314 39.587402 16.533661 3.545899 1.414948 4.567627 3.223633 4.563782 6.932633-.104004 100.155441-.054199 200.311081-.12323 300.466598-.00769 11.227478.487488 12.63971 13.518616 10.237915 13.164429-2.42633 23.828613-9.915405 33.309265-19.131622 1.550903-1.50769 3.175903-2.938995 5.061035-4.677216 8.015625 13.095887 16.11853 26.334412 24.212769 39.558533-17.180664 16.252258-40.74878 23.980835-64.301026 14.512207-17.759277-7.139587-32.70581-18.429138-45.738281-32.323974-11.758301-12.536347-14.394775-28.079285-14.458435-44.437439-.020569-5.296265-.003113-10.592621-.003113-16.571747-6.317199 2.985901-11.818725 6.039673-17.637634 8.262634-36.204956 13.830933-72.348145 13.717773-107.762939-2.332001-17.859131-8.093658-31.867859-21.669403-44.805665-36.160614-4.532226-5.076294-8.634155-10.597931-12.413208-16.262665-2.271728-3.405242-4.661865-4.387573-8.596679-3.702056-12.284058 2.140136-24.161988.736541-35.572693-4.566864-18.347229-8.527283-27.324219-31.868103-19.025086-48.821167 8.939454-18.261322 33.88086-22.273987 48.447571-13.688233 6.374695 3.757324 11.785645 9.12677 17.7948 13.545807 1.300903.956635 3.652283 1.831818 4.910767 1.300873 27.13684-11.448212 46.575134-30.553894 56.369934-58.581818 4.402343-12.597381 4.951904-25.54306-1.333069-37.875397-6.352539-12.46492-17.255859-18.356658-30.693298-20.486465-18.379517-2.913147-35.728577 1.281342-52.849549 7.267151-3.744079 1.309021-7.429748 2.785355-11.570434 4.345978-8.889893-16.045502-17.645325-31.848267-26.760987-48.301239 28.737366-8.806214 56.856324-15.91272 85.978699-5.048691 14.593994 5.444244 26.678772 15.035034 37.966797 25.446609 13.88855 12.810166 26.137085 27.082688 35.430664 43.679276 11.440735 20.43103 13.161255 41.921142 4.913635 63.58081-12.513672 32.863282-36.973999 54.218232-68.679199 67.963532-3.507812 1.520752-7.10376 2.837982-11.296814 4.50293 16.880737 23 38.644409 35.801513 67.77594 35.867126z" fill="#c47034"/><path d="m119.118866 409.859558c21.622711 23.810181 48.28833 30.957703 79.066635 25.95166 27.756775-4.514587 50.295532-18.465637 69.851914-37.911316 1.257537-1.250457 1.718536-3.79721 1.721466-5.742157.088104-58.327667.071655-116.655487.071655-174.983307 0-10.651123 0-21.30223 0-32.590866 12.070465 5.022095 23.693451 9.814637 35.277191 14.700303 4.249725 1.792404 10.031464 2.749237 12.151947 6.012329 2.151367 3.310653.72879 8.997696.729584 13.643997.016174 97.324112.012115 194.648239.013092 291.972336 0 1.499694-.039642 3.001831.030243 4.498596.200653 4.299805 2.378906 6.187317 6.769409 5.939392 12.114593-.683899 22.478607-5.671326 31.832275-12.951355 4.577118-3.562409 8.737763-7.659943 13.324799-11.726166 8.042267 13.142395 16.179626 26.440155 24.299499 39.709381-20.820037 20.107361-48.771881 23.872498-74.13504 9.939026-12.620056-6.932922-24.036987-15.496521-34.13974-25.808533-10.286102-10.499145-15.317627-23.223907-15.911621-37.710235-.345093-8.416779-.062744-16.859253-.062744-25.740784-6.107727 2.952667-11.445953 5.977966-17.101059 8.194885-36.446182 14.28772-72.83432 14.155762-108.644897-1.911316-16.491791-7.399261-29.568573-19.76773-41.782631-32.811126-5.776947-6.169129-10.840325-13.073975-15.673356-20.030152-2.312904-3.32901-4.676673-3.9104-8.277366-3.299133-12.292206 2.086914-24.178013.779175-35.577648-4.549896-18.452683-8.626221-27.359721-31.745361-19.151623-48.725281 8.940723-18.495422 34.216309-22.42569 48.793037-13.681793 7.202881 4.320679 13.59301 9.996246 21.136139 15.647064 28.163948-12.230347 50.061066-31.97934 58.673661-63.506775 8.486312-31.065155-7.934433-52.991989-40.088295-55.15039-16.140519-1.083451-31.352753 2.955398-46.345894 8.239883-3.56477 1.256439-7.070008 2.681778-11.018948 4.188248-8.946865-16.135361-17.786156-32.076722-26.620962-48.00998 15.019548-5.867157 30.334036-8.651199 45.931818-10.386856 25.184158-2.802429 46.935272 5.125626 66.320183 20.660752 18.745468 15.022644 35.003402 32.323913 46.837524 53.364959 14.084946 25.04303 13.235321 50.655152-.058502 75.387513-14.733566 27.410888-37.555405 46.254181-66.629425 57.447052-2.637741 1.015472-5.247521 2.103546-8.348137 3.349975 2.24128 2.776032 4.38633 5.432862 6.735817 8.380066z" fill="#010101"/><path d="m1809.465088 501.480652c7.348389 11.88446 14.475342 23.469971 21.682617 35.18573-11.18689 9.268371-23.303589 16.098633-37.903809 17.840637-12.596557 1.502869-24.175048-1.904114-35.0802-7.567505-14.131103-7.338623-26.680786-16.910034-37.473144-28.713684-11.58374-12.669037-14.233399-28.113586-14.211914-44.497681.055175-42.162201.018188-84.324554.018066-126.486847 0-1.830688.000122-3.661346.000122-5.872009-1.323364-.127899-2.561279-.35025-3.799438-.351745-17.998169-.021943-35.996826-.108338-53.994263.013244-17.129761.115723-33.891602 2.270691-49.41626 10.209137-19.924682 10.188294-30.315918 26.831085-32.451904 48.789368-2.863892 29.439545 6.96228 55.378113 22.717773 79.49704 13.382447 20.486145 30.052857 38.171234 47.943604 54.961639-7.027954 6.532837-13.970703 12.986328-20.934815 19.459778-31.293579-26.558777-60.570922-54.915039-81.763305-90.419739-16.800537-28.14685-24.69336-58.755463-19.611572-91.422912 6.13562-39.442322 31.25122-62.539978 68.115966-74.313202 15.716675-5.019349 31.972168-6.216126 48.337036-6.274292 22.997315-.081757 45.995118-.020661 68.992798-.020691h5.772583c0-35.716172 0-70.95163 0-106.878403 2.213623.883209 3.845459 1.507202 5.456177 2.181274 12.860474 5.381867 25.651978 10.937256 38.616333 16.055695 3.60376 1.42273 4.446655 3.289581 4.442505 6.94278-.106934 94.656723-.084717 189.313613-.084717 283.970443 0 6.665955-.049927 13.332428.014404 19.997772.06543 6.78064 1.303711 7.90625 8.025147 7.383423 15.269043-1.187561 27.175659-9.080383 37.946411-19.172027 1.799805-1.686432 3.422363-3.562012 5.432129-5.670258 1.153686 1.880341 2.072144 3.377197 3.21167 5.173035z" fill="#010101"/><path d="m1326.84668 100.166687c12.145752 17.599884 22.091308 36.018662 31.282226 55.367844-8.361816 4.605819-16.494751 9.085571-25.192993 13.876724-2.923462-5.382111-5.72876-10.588577-8.572143-15.774017-12.69983-23.159287-26.989869-45.208512-46.126954-63.659539-12.433105-11.987434-26.162841-22.30793-42.892456-27.570488-26.082885-8.204773-57.402588-4.490055-75.989013 16.830658-8.962159 10.280419-14.422242 22.593834-17.080078 35.675957-3.295655 16.220497-5.736329 32.70359-7.144898 49.19297-1.34314 15.722962-1.159912 31.599564-1.17395 47.409043-.088379 99.66159-.044922 199.323272-.04419 298.984954 0 1.666565.054566 3.334351.006226 4.99939-.116211 3.999573 1.816772 5.645752 5.785034 5.699829 9.360352.127381 17.749146-3.035766 25.314697-8.031921 5.9198-3.909332 11.183228-8.81482 16.719361-13.301148 1.130737-.91632 2.17688-1.93692 3.674805-3.279327 8.313598 13.474457 16.410644 26.597748 24.479736 39.675934-17.463867 16.237793-42.042114 24.125976-65.501587 13.960266-17.079468-7.401245-31.719482-18.122681-44.458252-31.590881-8.98999-9.504761-13.463257-20.938538-13.938965-33.836152-.552124-14.965881-.850464-29.949249-.866943-44.925445-.082886-75.496124.0531-150.992554-.084229-226.488526-.052612-28.973297-.164428-57.982208 4.138672-86.670387 4.09961-27.330826 11.277588-53.784698 29.04895-76.036049 15.540039-19.457492 36.008545-30.07855 60.38562-33.678743 20.88147-3.083936 41.434205-1.832464 61.437745 5.174973 21.387207 7.492156 39.34021 20.284845 54.07727 37.270223 11.324585 13.05238 21.704712 26.924137 32.716309 40.723858z" fill="#cdb692"/><path d="m494.137268 260.190002c-11.204712 15.611725-11.631836 32.211274-5.472382 49.240967 6.040619 16.701111 18.236786 28.80069 31.671906 39.702271 1.277161 1.036316 4.056335.933471 5.90155.45227 32.762146-8.543884 65.50647-17.158203 98.192627-25.98703 3.415833-.922699 4.947022-.289703 6.658936 2.669068 7.571716 13.086364 15.387878 26.03128 23.365356 39.447418-29.584961 6.887298-58.798645 13.688141-88.221313 20.537628 7.507324 4.265991 15.192016 7.894836 22.068908 12.683594 18.136597 12.629638 34.510132 27.112182 40.844849 49.389312 7.805725 27.450531 5.765076 53.731995-13.488953 76.220704-12.844116 15.00177-30.030517 23.406189-49.354553 27.300964-37.841247 7.626831-74.161041 2.981567-108.930572-13.720337-18.243408-8.763306-35.267487-19.438538-50.5206-32.821442-.987976-.866912-1.956451-1.756012-2.987945-2.683288 4.867126-7.353882 9.626068-14.544281 14.460357-21.848602 15.080628 12.123016 30.743958 22.787994 48.596131 29.76477 24.804016 9.693665 50.062256 11.614075 75.78302 3.813049 26.708862-8.100799 42.592285-36.488739 35.978699-63.548797-6.0318-24.679352-22.005799-41.656647-42.017579-55.613343-1.257263-.876861-3.758606-.524475-5.50299-.066009-33.385803 8.773529-66.744599 17.649963-100.111328 26.496216-.78183.207275-1.590882.311798-2.624909.509765-8.555206-14.142944-17.058563-28.200134-25.937134-42.877655 30.332428-7.160614 60.274506-14.229065 90.595215-21.386901-6.879272-4.981751-13.863769-9.345978-20.040161-14.651001-14.707306-12.632355-27.410034-27.057587-32.796143-46.172242-9.40805-33.388244.148713-66.800964 30.543091-86.725143 19.387574-12.709 40.911743-18.151077 63.701264-19.334168 16.322204-.847351 32.639099-.706558 49.258606 2.616455 3.603088 15.121857 7.245788 30.409806 10.702636 44.918046-14.679931-.480988-29.282714-1.678757-43.835388-1.234864-14.684448.447876-29.233215 3.168793-42.035248 11.061188-5.156677 3.179062-9.504882 7.669525-14.445953 11.847137z" fill="#020202"/><path d="m1315.36145 328.627502c6.255127 6.475647 12.360596 12.603699 18.272461 18.913086 2.664795 2.844056 5.371582 2.856324 8.9375 1.90033 32.3927-8.68396 64.850464-17.125214 97.242554-25.811585 3.291992-.882781 4.986694-.48587 6.766357 2.6055 7.550537 13.116577 15.397583 26.06253 23.379151 39.479156-29.585816 6.90799-58.775513 13.72345-88.233765 20.601624 7.250854 4.024994 14.468628 7.462768 21.082764 11.817474 15.464355 10.181976 29.060913 22.377747 37.67334 39.159363 12.677978 24.703217 12.851928 64.07724-10.153565 88.462189-12.197021 12.928161-27.307739 21.150695-44.621582 25.151123-45.23291 10.451416-87.51062 2.414612-127.456665-20.407593-13.783203-7.874756-26.720093-16.85553-38.839844-27.854157 4.82898-7.216461 9.588623-14.32901 14.355957-21.453308 7.901245 5.517975 15.375 11.026368 23.134644 16.097229 16.954346 11.07959 35.369507 18.87967 55.570801 20.971894 21.305175 2.206543 42.431762 1.251892 60.935546-11.658844 18.904419-13.190308 25.114258-31.973725 21.071778-53.840058-4.753296-25.711456-21.514282-43.339264-42.305176-57.5625-1.46582-1.002838-4.426269-.379028-6.513428.168122-32.629028 8.553466-65.238891 17.180999-97.814941 25.934082-2.466553.66278-3.849976.685058-5.287964-1.711823-7.96228-13.27243-16.085083-26.448486-24.563721-40.330231 30.439331-7.174133 60.47168-14.252319 89.94397-21.198516-9.112183-7.442444-18.607666-14.470887-27.260132-22.417359-17.565307-16.132202-27.847656-36.201935-28.278808-60.25003-.476441-26.564377 9.930297-48.212296 32.055297-63.637986 24.003296-16.735168 51.250855-21.533706 79.755494-21.029876 10.62854.187851 21.245605 1.390426 31.845703 2.370819 1.384887.128082 3.528564 1.474838 3.814575 2.63005 3.558594 14.373154 6.838501 28.815369 10.324463 43.819001-6.309693-.73085-12.1521-1.649826-18.029785-2.045761-23.316651-1.570603-46.289429-.859574-67.608399 10.582901-16.916137 9.079406-24.203491 23.519989-23.854736 42.26004.267334 14.370605 5.487549 26.910492 14.660156 38.285644z" fill="#c47034"/></svg>