<svg enable-background="new 0 0 1758 566" viewBox="0 0 1758 566" xmlns="http://www.w3.org/2000/svg"><path d="m1129 567c-376.333313 0-752.166656 0-1128 0 0-188.666656 0-377.333328 0-566h1758v566c-209.833374 0-419.666626 0-630 0m25.156006-208.5c0-49.165436-.094971-98.331299.143432-147.495575.024415-5.054031-1.591796-7.209442-6.104003-8.965805-12.549805-4.885056-24.893189-10.300613-37.322632-15.495453-1.455689-.608368-2.940308-1.147232-5.133057-1.998413v106.86409c-17.489746 0-34.489624-.337494-51.470215.090759-18.618652.469605-37.386474.38385-55.78717 2.821137-25.108338 3.325805-46.833618 14.501861-64.05603 33.728271-3.70282 4.133728-8.209839 7.782257-12.924378 10.729859-13.483093 8.429931-28.504333 12.753936-44.153564 14.86438-17.922364 2.417053-35.775513 2.246124-53.911499-2.170929 1.016784-2.960785 1.947998-5.59726 2.829223-8.250275 7.926941-23.863709 6.843323-47.179962-4.436828-69.801727-10.217102-20.489945-25.134034-37.20308-42.61438-51.659928-14.128845-11.685013-29.820069-20.529739-47.915833-24.798385-19.0177-4.486145-38.017944-3.740296-57.010132-.365357-7.559753 1.343353-14.971069 3.521622-22.930358 5.435303 9.228881 17.321121 17.973388 33.733139 26.614868 49.951874.863647 0 1.217163.08699 1.50531-.013489 2.822693-.984055 5.626587-2.021957 8.450622-3.002121 19.653992-6.821655 39.649109-9.681778 60.406494-6.016464 26.514283 4.681884 43.883484 26.369812 42.581116 53.258972-.938354 19.373352-9.741028 35.055542-22.508789 48.814026-13.409302 14.449646-30.082031 23.930084-48.32843 31.05484-5.03833 1.967346-8.157593 1.647461-12.012817-2.437744-7.414246-7.856537-16.446717-13.458771-27.221985-15.855805-19.347168-4.303955-39.683472 6.671417-42.719239 23.327942-3.067932 16.833069 3.305298 30.083893 16.540101 40.122101 9.096374 6.899353 19.714477 10.182404 31.105712 10.955566 5.714539.387909 12.68335-.967529 16.783265 1.833893 4.217773 2.881958 5.647338 9.857178 8.274169 15.052765 14.766663 29.206909 32.865723 56.042328 56.9917 78.388611 20.192077 18.702515 44.159668 28.668945 71.805175 29.623657 3.037354.10492 4.369996-.832764 5.319397-3.615784 5.367981-15.735778 10.89795-31.416381 16.355042-47.121887.316833-.911834.47998-1.877105.831543-3.28598-27.485352.468231-54.423401-1.123108-78.492981-15.493256-23.989441-14.322296-39.656799-35.737762-49.822998-60.138488 14.679199-7.767517 29.118103-14.603455 42.717285-22.828034 13.862305-8.383667 24.921875-20.255615 35.002869-33.06897 30.960449 21.866272 64.969421 27.157105 101.568481 20.928193.273804 1.955017.597595 3.386047.657898 4.828094 1.05542 25.260468 9.354248 48.189667 22.503296 69.511017 12.667114 20.539703 28.218445 38.793152 45.377502 55.648926 11.017579 10.822815 22.584351 21.086609 34.083802 31.767151 7.495117-6.878418 14.433777-13.246216 20.811462-19.099121-12.307495-13.577576-24.944641-26.432312-36.315369-40.32367-16.09497-19.662842-28.375244-41.526794-32.763366-67.017914-2.929932-17.020019-2.873047-33.955749 4.823608-49.879547 10.600891-21.932373 29.950134-32.50943 52.738159-34.574035 26.462403-2.397522 53.212281-1.624054 79.837891-2.203064.266113-.005799.539307.3125 1.140137.684295 0 1.769806-.001709 3.743897.000488 5.717987.04834 44.831299-.075073 89.663849.252686 134.493103.095947 13.139466 4.258789 25.265717 13.187988 35.285889 12.351929 13.861084 27.004516 24.667175 43.964233 32.265991 24.127075 10.810181 47.898804 4.117371 67.069214-13.232239-8.075561-13.193298-16.184814-26.441528-24.483398-39.999054-2.2323 2.336823-3.867554 4.224183-5.682251 5.919465-10.295044 9.617157-21.806153 17.062805-36.153565 18.704223-8.962524 1.025269-9.99646-.199341-9.99707-9.468262-.003784-50.665191-.001831-101.330413-.001831-152.995605m154.966553 165.876221c10.796386 9.982605 21.592773 19.965149 32.382812 29.941955 7.539185-6.992248 14.363892-13.32196 21.651611-20.081176-1.449096-1.232789-2.863647-2.342896-4.17395-3.564942-18.024536-16.810913-34.51062-34.93692-47.351074-56.108948-13.455933-22.186432-21.845581-45.828033-19.768921-72.252441 1.973755-25.115051 13.794678-43.406952 37.463745-53.376099 12.603028-5.308105 25.836304-7.512146 39.375977-7.701172 18.121826-.25299 36.25-.062591 54.568603-.062591.276612 1.299286.547486 2.405731.745117 3.525085 2.043213 11.577759 6.105347 22.376831 11.942872 32.600342 13.953491 24.437439 34.035766 42.948822 56.833496 58.733093 10.562866 7.313202 21.9281 13.525269 34.709961 15.930481 32.048339 6.030518 62.225586.565583 90.322143-15.989471 3.755615-2.212921 7.119629-5.09079 11.381592-8.180237 0 19.109436-.400269 37.266449.125977 55.396546.425292 14.651245 5.980102 27.475402 16.514526 37.989929 9.972412 9.953552 21.116211 18.321899 33.445312 25.088928 25.472046 13.980713 53.072266 10.332519 74.248291-9.839844-8.21521-13.279785-16.453613-26.597107-24.844604-40.161072-2.016357 2.173798-3.505737 3.981537-5.198975 5.572297-11.017334 10.350738-23.221191 18.368988-38.894043 19.386261-5.286132.343139-6.99353-1.095276-7.404785-6.248597-.118896-1.490661-.027099-2.998352-.027099-4.49823-.000367-98.996276-.072754-197.992767.16394-296.988464.015625-6.526138-1.437012-9.934158-7.884644-12.267883-12.316772-4.457947-24.244628-9.988724-36.343872-15.050522-1.18872-.497269-2.446167-.830109-4.108886-1.385285v5.758912c0 55.497924.019287 110.995864-.07251 166.493637-.00354 2.143097-.450928 4.823211-1.756104 6.332122-5.32666 6.157593-10.691284 12.373688-16.721801 17.81485-24.503418 22.10904-52.846192 33.778778-86.337037 29.933564-21.339111-2.450013-38.663574-11.982575-49.830566-30.873444-9.691162-16.394226-9.938354-34.184479-5.248657-51.903687 5.937378-22.434143 20.698242-37.8768 41.310181-48.0065 15.469116-7.602234 31.972778-10.001617 48.979003-9.651489 8.28003.170471 16.551514.757538 25.229737 1.175445-4.540039-14.141204-9.144409-28.036804-13.390625-42.041-.989624-3.263702-2.598999-4.351272-5.788086-4.825439-26.842652-3.991166-52.909546-.745209-77.84314 9.510482-25.418213 10.454895-45.766113 27.024018-57.278442 52.780549-1.453613 3.251892-3.175415 4.297851-6.688721 4.291595-25.490356-.045349-50.984497-.077087-76.470703.316315-26.114014.403015-50.577026 6.636871-71.958008 22.390533-18.454956 13.597717-30.300903 31.698731-34.157837 54.248444-6.103637 35.686004 2.537598 68.529205 21.460327 98.885101 12.95691 20.785797 28.865601 39.221161 46.687867 56.962067m-874.937439 27.967773c23.034332 6.899902 41.97287-1.467163 59.497314-15.685608-8.360626-13.524841-16.563904-26.795196-24.660919-39.893615-4.712372 4.139556-9.001618 8.303466-13.69513 11.946472-9.238037 7.17041-19.507568 11.976135-31.438629 12.627746-4.394561.240113-6.582916-1.636047-6.691314-5.992492-.037293-1.499024-.025635-2.999451-.025635-4.499207-.001038-87.495758-.000946-174.991516-.000946-262.487289 0-13.332688-.091126-26.666504.074341-39.997147.034454-2.779053-.796448-4.177155-3.369751-5.148056-4.961365-1.871979-9.800415-4.066879-14.698212-6.108719-9.915131-4.133591-19.835571-8.254394-30.178009-12.556915v6.123504c0 50.997529-.245544 101.997437.251465 152.990143.079101 8.114563-2.982239 12.603516-9.195374 16.295807-21.560943 12.813172-44.12976 10.623413-66.682403 5.211762-.492768-11.117859-.583252-21.620789-1.505524-32.050171-1.508972-17.064209-5.716339-33.155243-19.037628-45.360718-11.877533-10.882599-39.269501-12.328217-47.21228 11.169708-2.907593 8.601776-2.826737 17.33725-.93866 26.092438 2.860077 13.26236 10.099609 24.087921 18.988983 34.031586 1.405548 1.572235 3.045715 4.086303 2.742844 5.849853-2.187622 12.738465-3.793045 25.724518-7.619294 37.997284-5.000717 16.039856-14.081207 30.329498-29.141693 38.628601-44.418808 24.477234-89.153892 5.426789-111.111938-40.244049 3.720558-1.457855 7.484924-2.802307 11.14505-4.387482 31.711914-13.734253 56.095215-35.129547 68.552551-68.015533 8.283447-21.867401 6.507584-43.601959-5.103805-64.042358-9.621506-16.937439-22.446625-31.400345-36.773621-44.501389-10.866547-9.936707-22.5765-18.842438-36.487549-24.050278-29.233246-10.943985-57.43721-3.7126-85.970232 5.053192 9.117855 16.442078 17.890475 32.261597 26.790644 48.311127 3.049599-1.158783 5.810196-2.246811 8.597771-3.260666 18.141197-6.598053 36.484748-11.283294 56.139434-8.38266 22.431527 3.31044 36.160813 19.853745 34.785737 42.307511-.952195 15.54837-7.144562 28.998016-16.201928 41.196197-11.852058 15.961945-27.094268 27.635041-45.924133 34.618988-7.801681-8.170349-15.891003-15.51535-26.784447-18.922119-14.364391-4.492187-32.691387 1.792542-40.190449 13.911835-7.689133 12.426483-5.354217 30.958801 5.1747 42.079223 10.876793 11.487824 24.622397 16.032135 39.8175 14.540925 8.295997-.814118 12.309959 1.99884 16.23954 8.679657 11.195686 19.034179 26.272331 34.836242 43.81871 48.078643 21.632355 16.326172 46.636566 22.041809 73.33995 21.432709 43.084-.982727 73.891099-20.629059 90.696915-60.65741 4.192993-9.986908 6.641541-20.706207 10.008667-31.462005 24.170807 14.300171 49.699341 23.524963 78.790497 13.932159 0 2.285309-.003693 4.101044.00058 5.916779.05365 22.831329-.038178 45.664459.235718 68.493133.108581 9.050476 1.598632 18.116425 6.603576 25.824005 13.93042 21.452668 33.895752 35.271882 58.347016 44.364899m675.627136-390.044403c2.766723-4.70874 5.533447-9.417496 8.438598-14.361633-1.648681-1.143585-2.931396-2.168869-4.335327-2.985764-11.077758-6.445511-22.075805-13.037277-33.290893-19.235786-40.569946-22.422577-82.320496-42.326561-125.873841-58.316178-66.204834-24.305679-133.4151-44.417957-204.275573-49.676988-25.389771-1.884344-50.711914-3.341386-76.172486-.920492-24.445129 2.324342-47.764404 8.159311-69.746826 19.276455-18.225342 9.217083-34.425049 21.173599-47.397644 36.850071-24.934082 30.130935-36.715332 65.503738-36.980591 104.224349-.574157 83.824402-.242431 167.65506-.260803 251.483185-.003906 17.831757-.214111 35.670685.22052 53.49289.310608 12.740051 3.774475 24.796936 12.433838 34.518066 13.459717 15.110108 29.357422 27.060791 48.344543 34.458435 23.954468 9.332886 48.092164-.258972 63.174622-14.930481-7.981262-13.044983-16.002991-26.156097-24.050842-39.309936-4.684143 4.118438-8.579468 8.021515-12.950196 11.288665-9.711669 7.259552-20.123291 12.926362-32.774902 13.05954-4.299316.045227-6.093017-1.934082-6.285766-5.907898-.064515-1.330383-.027833-2.665893-.027833-3.999084-.000915-104.327179-.091491-208.654541.130127-312.981278.023865-11.248108 1.195923-22.599212 2.985413-33.717437 4.53418-28.172181 17.828491-51.833245 39.465881-70.380738 26.511231-22.725448 58.440735-31.927974 92.481934-33.938583 17.730408-1.04723 35.648743-.335354 53.402649.812492 20.369934 1.31699 40.800781 3.066445 60.939148 6.289872 35.469971 5.677452 70.351135 14.151718 104.615112 25.122871 60.719971 19.442261 119.30481 43.938568 175.823364 73.41835 7.277466 3.795914 7.320191 3.713989 11.967774-3.632965z" fill="#fff"/><path d="m1154.156006 359c0 51.165192-.001953 101.830414.001831 152.495605.00061 9.268921 1.034546 10.493531 9.99707 9.468262 14.347412-1.641418 25.858521-9.087066 36.153565-18.704223 1.814697-1.695282 3.449951-3.582642 5.682251-5.919465 8.298584 13.557526 16.407837 26.805756 24.483398 39.999054-19.17041 17.34961-42.942139 24.04242-67.069214 13.232239-16.959717-7.598816-31.612304-18.404907-43.964233-32.265991-8.929199-10.020172-13.092041-22.146423-13.187988-35.285889-.327759-44.829254-.204346-89.661804-.252686-134.493103-.002197-1.97409-.000488-3.948181-.000488-5.717987-.60083-.371795-.874024-.690094-1.140137-.684295-26.62561.57901-53.375488-.194458-79.837891 2.203064-22.788025 2.064605-42.137268 12.641662-52.738159 34.574035-7.696655 15.923798-7.75354 32.859528-4.823608 49.879547 4.388122 25.49112 16.668396 47.355072 32.763366 67.017914 11.370728 13.891358 24.007874 26.746094 36.315369 40.32367-6.377685 5.852905-13.316345 12.220703-20.811462 19.099121-11.499451-10.680542-23.066223-20.944336-34.083802-31.767151-17.159057-16.855774-32.710388-35.109223-45.377502-55.648926-13.149048-21.32135-21.447876-44.250549-22.503296-69.511017-.060303-1.442047-.384094-2.873077-.657898-4.828094-36.59906 6.228912-70.608032.938079-101.568481-20.928193-10.080994 12.813355-21.140564 24.685303-35.002869 33.06897-13.599182 8.224579-28.038086 15.060517-42.717285 22.828034 10.166199 24.400726 25.833557 45.816192 49.822998 60.138488 24.06958 14.370148 51.007629 15.961487 78.492981 15.493256-.351563 1.408875-.51471 2.374146-.831543 3.28598-5.457092 15.705506-10.987061 31.386109-16.355042 47.121887-.949401 2.78302-2.282043 3.720704-5.319397 3.615784-27.645507-.954712-51.613098-10.921142-71.805175-29.623657-24.125977-22.346283-42.225037-49.181702-56.9917-78.388611-2.626831-5.195587-4.056396-12.170807-8.274169-15.052765-4.099915-2.801422-11.068726-1.445984-16.783265-1.833893-11.391235-.773162-22.009338-4.056213-31.105712-10.955566-13.234803-10.038208-19.608033-23.289032-16.540101-40.122101 3.035767-16.656525 23.372071-27.631897 42.719239-23.327942 10.775268 2.397034 19.807739 7.999268 27.221985 15.855805 3.855224 4.085205 6.974487 4.40509 12.012817 2.437744 18.246399-7.124756 34.919128-16.605194 48.32843-31.05484 12.767761-13.758484 21.570435-29.440674 22.508789-48.814026 1.302368-26.88916-16.066833-48.577088-42.581116-53.258972-20.757385-3.665314-40.752502-.805191-60.406494 6.016464-2.824035.980164-5.627929 2.018066-8.450622 3.002121-.288147.100479-.641663.013489-1.50531.013489-8.64148-16.218735-17.385987-32.630753-26.614868-49.951874 7.959289-1.913681 15.370605-4.09195 22.930358-5.435303 18.992188-3.374939 37.992432-4.120788 57.010132.365357 18.095764 4.268646 33.786988 13.113372 47.915833 24.798385 17.480346 14.456848 32.397278 31.169983 42.61438 51.659928 11.280151 22.621765 12.363769 45.938018 4.436828 69.801727-.881225 2.653015-1.812439 5.28949-2.829223 8.250275 18.135986 4.417053 35.989135 4.587982 53.911499 2.170929 15.649231-2.110444 30.670471-6.434449 44.153564-14.86438 4.714539-2.947602 9.221558-6.596131 12.924378-10.729859 17.222412-19.22641 38.947692-30.402466 64.05603-33.728271 18.400696-2.437287 37.168518-2.351532 55.78717-2.821137 16.980591-.428253 33.980469-.090759 51.470215-.090759 0-35.502441 0-70.746887 0-106.86409 2.192749.851181 3.677368 1.390045 5.133057 1.998413 12.429443 5.19484 24.772827 10.610397 37.322632 15.495453 4.512207 1.756363 6.128418 3.911774 6.104003 8.965805-.238403 49.164276-.143432 98.330139-.143432 147.995575z" fill="#c47034"/><path d="m1308.925537 524.081421c-17.625244-17.446106-33.533935-35.88147-46.490845-56.667267-18.922729-30.355896-27.563964-63.199097-21.460327-98.885101 3.856934-22.549713 15.702881-40.650727 34.157837-54.248444 21.380982-15.753662 45.843994-21.987518 71.958008-22.390533 25.486206-.393402 50.980347-.361664 76.470703-.316315 3.513306.006256 5.235108-1.039703 6.688721-4.291595 11.512329-25.756531 31.860229-42.325654 57.278442-52.780549 24.933594-10.255691 51.000488-13.501648 77.84314-9.510482 3.189087.474167 4.798462 1.561737 5.788086 4.825439 4.246216 14.004196 8.850586 27.899796 13.390625 42.041-8.678223-.417907-16.949707-1.004974-25.229737-1.175445-17.006225-.350128-33.509887 2.049255-48.979003 9.651489-20.611939 10.1297-35.372803 25.572357-41.310181 48.0065-4.689697 17.719208-4.442505 35.509461 5.248657 51.903687 11.166992 18.890869 28.491455 28.423431 49.830566 30.873444 33.490845 3.845214 61.833619-7.824524 86.337037-29.933564 6.030517-5.441162 11.395141-11.657257 16.721801-17.81485 1.305176-1.508911 1.752564-4.189025 1.756104-6.332122.091797-55.497773.07251-110.995713.07251-166.493637 0-1.791001 0-3.582016 0-5.758912 1.662719.555176 2.920166.888016 4.108886 1.385285 12.099244 5.061798 24.0271 10.592575 36.343872 15.050522 6.447632 2.333725 7.900269 5.741745 7.884644 12.267883-.236694 98.995697-.164307 197.992188-.16394 296.988464 0 1.499878-.091797 3.007569.027099 4.49823.411255 5.153321 2.118653 6.591736 7.404785 6.248597 15.672852-1.017273 27.876709-9.035523 38.894043-19.386261 1.693238-1.59076 3.182618-3.398499 5.198975-5.572297 8.390991 13.563965 16.629394 26.881287 24.844604 40.161072-21.176025 20.172363-48.776245 23.820557-74.248291 9.839844-12.329101-6.767029-23.4729-15.135376-33.445312-25.088928-10.534424-10.514527-16.089234-23.338684-16.514526-37.989929-.526246-18.130097-.125977-36.28711-.125977-55.396546-4.261963 3.089447-7.625977 5.967316-11.381592 8.180237-28.096557 16.555054-58.273804 22.019989-90.322143 15.989471-12.781861-2.405212-24.147095-8.617279-34.709961-15.930481-22.79773-15.784271-42.880005-34.295654-56.833496-58.733093-5.837525-10.223511-9.899659-21.022583-11.942872-32.600342-.197631-1.119354-.468505-2.225799-.745117-3.525085-18.318603 0-36.446777-.190399-54.568603.062591-13.539673.189026-26.772949 2.393067-39.375977 7.701172-23.669067 9.969147-35.48999 28.261048-37.463745 53.376099-2.07666 26.424408 6.312988 50.066009 19.768921 72.252441 12.840454 21.172028 29.326538 39.298035 47.351074 56.108948 1.310303 1.222046 2.724854 2.332153 4.17395 3.564942-7.287719 6.759216-14.112426 13.088928-21.651611 20.081176-10.790039-9.976806-21.586426-19.95935-32.579834-30.236755z" fill="#020202"/><path d="m433.796082 552.23175c-24.062226-8.980773-44.027558-22.799987-57.957978-44.252655-5.004944-7.70758-6.494995-16.773529-6.603576-25.824005-.273896-22.828674-.182068-45.661804-.235718-68.493133-.004273-1.815735-.00058-3.63147-.00058-5.916779-29.091156 9.592804-54.61969.368012-78.790497-13.932159-3.367126 10.755798-5.815674 21.475097-10.008667 31.462005-16.805816 40.028351-47.612915 59.674683-90.696915 60.65741-26.703384.6091-51.707595-5.106537-73.33995-21.432709-17.546379-13.242401-32.623024-29.044464-43.81871-48.078643-3.929581-6.680817-7.943543-9.493775-16.23954-8.679657-15.195103 1.49121-28.940707-3.053101-39.8175-14.540925-10.528917-11.120422-12.863833-29.65274-5.1747-42.079223 7.499062-12.119293 25.826058-18.404022 40.190449-13.911835 10.893444 3.406769 18.982766 10.75177 26.784447 18.922119 18.829865-6.983947 34.072075-18.657043 45.924133-34.618988 9.057366-12.198181 15.249733-25.647827 16.201928-41.196197 1.375076-22.453766-12.35421-38.997071-34.785737-42.307511-19.654686-2.900634-37.998237 1.784607-56.139434 8.38266-2.787575 1.013855-5.548172 2.101883-8.597771 3.260666-8.900169-16.04953-17.672789-31.869049-26.790644-48.311127 28.533022-8.765792 56.736986-15.997177 85.970232-5.053192 13.911049 5.20784 25.621002 14.113571 36.487549 24.050278 14.326996 13.101044 27.152115 27.56395 36.773621 44.501389 11.611389 20.440399 13.387252 42.174957 5.103805 64.042358-12.457336 32.885986-36.840637 54.28128-68.552551 68.015533-3.660126 1.585175-7.424492 2.929627-11.14505 4.387482 21.958046 45.670838 66.69313 64.721283 111.111938 40.244049 15.060486-8.299103 24.140976-22.588745 29.141693-38.628601 3.826249-12.272766 5.431672-25.258819 7.619294-37.997284.302871-1.76355-1.337296-4.277618-2.742844-5.849853-8.889374-9.943665-16.128906-20.769226-18.988983-34.031586-1.888077-8.755188-1.968933-17.490662.93866-26.092438 7.942779-23.497925 35.334747-22.052307 47.21228-11.169708 13.321289 12.205475 17.528656 28.296509 19.037628 45.360718.922272 10.429382 1.012756 20.932312 1.505524 32.050171 22.552643 5.411651 45.12146 7.60141 66.682403-5.211762 6.213135-3.692291 9.274475-8.181244 9.195374-16.295807-.497009-50.992706-.251465-101.992614-.251465-152.990143 0-1.820022 0-3.640045 0-6.123504 10.342438 4.302521 20.262878 8.423324 30.178009 12.556915 4.897797 2.04184 9.736847 4.23674 14.698212 6.108719 2.573303.970901 3.404205 2.369003 3.369751 5.148056-.165467 13.330643-.074341 26.664459-.074341 39.997147 0 87.495773-.000092 174.991531.000946 262.487289 0 1.499756-.011658 3.000183.025635 4.499207.108398 4.356445 2.296753 6.232605 6.691314 5.992492 11.931061-.651611 22.200592-5.457336 31.438629-12.627746 4.693512-3.643006 8.982758-7.806916 13.69513-11.946472 8.097015 13.098419 16.300293 26.368774 24.660919 39.893615-17.524444 14.218445-36.462982 22.58551-59.886352 15.573364z" fill="#010101"/><path d="m1109.614258 162.608307c-4.449585 7.038238-4.49231 7.120163-11.769776 3.324249-56.518554-29.479782-115.103393-53.976089-175.823364-73.41835-34.263977-10.971153-69.145141-19.445419-104.615112-25.122871-20.138367-3.223427-40.569214-4.972882-60.939148-6.289872-17.753906-1.147846-35.672241-1.859722-53.402649-.812492-34.041199 2.010609-65.970703 11.213135-92.481934 33.938583-21.63739 18.547493-34.931701 42.208557-39.465881 70.380738-1.78949 11.118225-2.961548 22.469329-2.985413 33.717437-.221618 104.326737-.131042 208.654099-.130127 312.981278 0 1.333191-.036682 2.668701.027833 3.999084.192749 3.973816 1.98645 5.953125 6.285766 5.907898 12.651611-.133178 23.063233-5.799988 32.774902-13.05954 4.370728-3.26715 8.266053-7.170227 12.950196-11.288665 8.047851 13.153839 16.06958 26.264953 24.050842 39.309936-15.082458 14.671509-39.220154 24.263367-63.174622 14.930481-18.987121-7.397644-34.884826-19.348327-48.344543-34.458435-8.659363-9.72113-12.12323-21.778015-12.433838-34.518066-.434631-17.822205-.224426-35.661133-.22052-53.49289.018372-83.828125-.313354-167.658783.260803-251.483185.265259-38.720611 12.046509-74.093414 36.980591-104.224349 12.972595-15.676472 29.172302-27.632988 47.397644-36.850071 21.982422-11.117144 45.301697-16.952113 69.746826-19.276455 25.460572-2.420894 50.782715-.963852 76.172486.920492 70.860473 5.259031 138.070739 25.371309 204.275573 49.676988 43.553345 15.989617 85.303895 35.893601 125.873841 58.316178 11.215088 6.198509 22.213135 12.790275 33.290893 19.235786 1.403931.816895 2.686646 1.842179 4.335327 2.985764-2.905151 4.944137-5.671875 9.652893-8.636596 14.670349z" fill="#cdb591"/></svg>