<svg enable-background="new 0 0 624 672" viewBox="0 0 624 672" xmlns="http://www.w3.org/2000/svg"><path d="m619.580627 435.650635c2.634034 20.588897 4.008728 40.799194 4.065369 61.133392.069824 25.073029-2.368347 49.867462-8.449524 74.142365-7.326477 29.246093-18.738586 56.686401-40.511597 78.492248-12.494567 12.513367-27.4552 20.10138-45.58728 21.055176-20.731628 1.090576-40.030334-2.695068-57.240875-14.808106-7.313293-5.147277-13.111145-11.763183-17.940308-19.244812-1.427887-2.212158-2.717498-4.51361-4.002868-6.661132-2.499787.372131-2.865753 2.233337-3.589844 3.597107-10.118652 19.058654-26.256683 30.263916-46.859497 35.066955-18.384613 4.285889-36.759094 3.6427-54.296326-3.854797-25.519775-10.91034-39.225799-31.108643-43.403625-58.022461-2.830323-18.233032-1.690216-36.252686 5.896423-53.348328 8.625122-19.435608 22.292023-33.943603 42.933258-40.567138 24.321289-7.804505 47.972626-6.135163 70.134247 7.223999 13.096344 7.894531 22.202118 19.51123 28.284637 33.417236 6.824341 15.602051 14.076966 30.942749 24.482331 44.553772 10.271362 13.435791 23.703399 20.51654 40.745575 22.144226 24.660888 2.355286 42.020019-9.015625 55.302917-27.981934 12.750672-18.20636 18.67926-39.131469 22.241211-60.897339 3.410645-20.841339 3.819519-41.834167 2.706909-62.747985-3.343384-62.845368-22.980713-119.38501-65.035217-167.520295-29.070831-33.274261-63.017303-60.195022-100.769257-82.682876-5.977935-3.560913-6.01773-3.610398-2.116302-9.110886 8.385742-11.822861 16.89035-23.562027 25.199524-35.438156 2.017242-2.883163 3.529236-3.439712 6.767303-1.330231 49.76532 32.420243 88.538361 74.866288 116.8284 127.042618 19.190491 35.393707 32.530762 72.856323 40.359924 112.299713 1.550476 7.81128 2.515686 15.738709 3.854492 24.047669m-195.003173 142.782837c-.326355-2.966187-.480957-5.963562-1.013764-8.892212-1.227234-6.746033-3.315155-13.136109-7.411163-18.828125-12.921448-17.956238-38.324371-21.021851-56.826721-13.054566-19.204468 8.269532-24.700989 24.656983-24.052643 44.091675.605682 18.155762 11.294769 32.017578 28.723694 36.881775 8.445373 2.357056 17.124847 2.395142 25.691925.931091 15.627411-2.670715 29.906708-11.901123 33.179535-29.969421.619598-3.420593 1.090484-6.868103 1.709137-11.160217z"/><path d="m339.395081 305.47879c-9.585144-37.764404-33.882264-61.388-69.149872-74.797546-19.01593-7.23027-38.923798-10.002136-59.069718-11.24263-4.043152-.248947-4.86969-1.414597-4.676269-5.349823.662048-13.46933.883133-26.961685 1.16095-40.44754.063003-3.058182.469558-5.149262 4.366546-4.87056 17.301468 1.237366 34.422531 3.605759 50.958176 8.960342 46.362518 15.013169 78.259552 45.561692 96.09845 90.745133 6.505737 16.478119 9.905487 33.74472 11.383331 51.423645 2.273804 27.200714 1.234192 54.181488-5.179383 80.778137-4.253143 17.63739-11.023132 34.263245-22.406951 48.621521-14.786988 18.650574-34.224305 28.356232-57.964264 30.152069-13.940491 1.054535-27.544983.10968-40.933579-3.847931-18.435226-5.449432-33.326431-16.296844-46.293594-30.194763-16.755493-17.95813-29.310364-38.714081-40.767609-60.24527-7.597931-14.278473-15.725632-28.250458-25.503143-41.17572-6.821709-9.017853-14.73198-16.79425-25.687767-20.70929-20.109635-7.186065-38.082741 1.838868-44.581452 22.229035-4.069522 12.768402-4.352138 25.828644-3.481285 39.02359 1.943489 29.447205 10.080635 57.210968 22.642731 83.785889.42083.890289.683098 1.862915.94101 2.818267.075218.278595-.12098.630494-.197281.968811-.945793 1.248658-2.376114 1.032288-3.656319 1.091034-16.465675.755372-32.939117 1.36673-49.394615 2.29715-3.266947.184784-4.361468-1.14743-5.206499-3.835876-4.554207-14.489045-6.910442-29.417206-9.137414-44.383423-1.373516-9.230622-2.17475-18.519593-2.436625-27.821961-.880484-31.276977 4.964912-60.381744 28.335759-83.425079 13.467286-13.278534 29.69423-20.166718 48.638642-21.497559 19.096405-1.341552 37.160026 1.636841 53.952011 10.877381 13.80896 7.599029 24.430893 18.965759 34.355514 30.908417 11.177964 13.450836 21.83136 27.336425 32.940964 40.845428 11.388641 13.848267 24.647354 25.724396 42.042633 31.061371 20.926422 6.420349 42.127228 6.757843 62.104401-3.676148 17.035248-8.89743 24.624359-24.655182 28.015075-42.712005 3.524628-18.769837 1.793274-37.424744-2.212554-56.354096z"/><path d="m57.283775 157.648132c26.228745 14.155213 53.327454 18.697022 81.697975 9.227631 20.385758-6.80426 34.896821-27.598541 35.820298-49.111237.430893-10.037986.585556-19.999122-2.827042-29.575203-7.355942-20.641525-23.012451-31.134082-43.817123-34.778682-11.762352-2.060547-23.461617-2.134239-34.795266 2.820476-13.10437 5.728813-17.326652 17.988709-15.680427 29.929108 1.68219 12.201279 12.113106 20.465187 24.716614 21.61454 16.043907 1.463074 30.779587-1.782738 44.229339-10.729202 1.202164-.79966 2.347443-1.911583 4.773774-1.685959 2.914978 7.381134 5.935989 15.085152 9.006088 22.769539.854934 2.139877-.383332 2.970772-2.005661 3.808258-13.183792 6.805763-27.018387 11.10128-41.988304 11.400841-12.527237.25064-24.99659.093643-36.964409-4.238968-23.74981-8.597916-38.335232-26.83059-39.828373-52.157685-2.088963-35.433544 23.801376-59.37898 55.867168-65.10278 21.459397-3.830539 42.465294-1.931033 62.382942 7.34961 20.692948 9.641896 34.746888 25.728699 42.095368 47.123745 8.155914 23.745812 8.544418 48.124451 1.841995 72.260941-8.264938 29.763306-28.017593 48.51564-57.661896 56.697647-22.596565 6.236801-45.385635 5.417816-68.165367.796387-16.761295-3.400452-32.737167-8.77974-47.320022-18.002014-3.141859-1.986924-3.732012-3.422364-1.709555-6.603196 4.893106-7.695602 9.461119-15.597946 14.345919-23.726013 5.55883 3.450897 10.61372 6.588959 15.985965 9.912216z" fill="#d2691e"/></svg>