<svg enable-background="new 0 0 994 520" viewBox="0 0 994 520" xmlns="http://www.w3.org/2000/svg"><path d="m730 521c-243.333344 0-486.166672 0-729 0 0-173.333344 0-346.666672 0-520h994v520c-88.166687 0-176.333313 0-265 0m-415.748016-233.750793c6.745666.894714 13.478668 2.427764 20.239441 2.562164 18.823211.374206 37.659271.31308 56.48764.140716 12.976257-.118774 25.776733-1.706176 38.214111-5.756317 17.400635-5.666382 30.823731-15.965149 38.413208-32.920425 5.841675-13.050568 7.219605-26.966278 6.277466-41.037048-2.176453-32.504624-12.844147-62.435929-28.418854-90.777413-2.999603-5.458397-6.305298-10.748588-9.54718-16.247642-11.61853 8.427299-22.707245 16.470291-33.721313 24.459144 2.273773 4.3153 4.27481 7.951027 6.129669 11.659859 11.487305 22.968963 23.303985 45.895782 25.151428 72.145386 1.049591 14.913574-3.365265 26.440536-17.407043 31.854354-4.8732 1.878876-10.182831 3.462235-15.340729 3.619538-20.796387.634216-41.620789 1.156112-62.416687.761764-19.061432-.36145-28.498322-7.347992-34.234619-25.586334-2.752106-8.750244-4.052582-18.295196-4.124604-27.49501-.447479-57.153321-.360015-114.310829-.449523-171.466948-.003052-1.961546-.000367-3.923099-.000367-5.796892-13.726806 0-26.950683 0-40.339935 0 0 27.019104.072418 53.66848-.130402 80.315773-.017181 2.258202-1.31549 5.091209-2.966796 6.657867-10.993424 10.430069-24.33191 16.712128-38.754303 20.828057-20.191834 5.762436-40.742493 8.297333-61.702393 6.047333-1.828278-.196259-4.054764-1.931839-5.067581-3.583291-4.844483-7.899032-9.334229-16.015632-14.196594-24.484245-11.365281 8.374306-22.290024 16.424011-33.073449 24.369591 5.848526 11.747276 11.793496 22.903847 17.024811 34.385567 7.265053 15.945388 13.214852 32.344436 14.060005 50.141479.928818 19.558884-8.035782 31.071564-27.22248 34.102402-7.205475 1.138214-14.566544 1.689392-21.864655 1.768066-21.160873.228043-42.325787.080765-63.489113.08078-1.576271 0-3.152544 0-4.417549 0v41.897751c25.194656 0 50.04438.606659 74.842461-.261535 12.005531-.420289 24.209602-2.544983 35.80458-5.766633 23.442307-6.513366 38.795182-21.865356 44.666214-45.856994 3.3405-13.650742 2.733109-27.482422.601593-41.21666-1.281082-8.254516-3.321121-16.391235-5.091613-24.92575 32.804748 1.085281 63.411651-5.157181 90.977905-24.793732 0 14.620376.005737 28.10643-.001495 41.592483-.008423 15.696091.911865 31.317627 4.912872 46.563904 6.903961 26.308167 21.24942 45.672302 50.175873 52.018891m489.451995-60.403428c-2.493164 8.001557-7.60614 13.675904-15.508178 16.417313-4.674866 1.621857-9.578064 3.422211-14.425659 3.567123-22.972962.686707-45.961975.845337-68.945679 1.158173-5.296021.072098-10.593811.01062-16.088745.01062v41.77504c.867798.090912 1.511841.217987 2.155823.217285 24.33258-.026886 48.687744.54068 72.988098-.362823 11.840027-.440217 23.855102-2.626465 35.301147-5.792878 20.617981-5.703705 35.539429-18.639892 42.542908-39.329437 5.243286-15.489548 4.92218-31.507461 2.613769-47.46878-1.200439-8.300339-3.124694-16.496003-4.796997-25.126236 32.710633.856399 63.189881-5.158463 90.741883-25.043137v230.775879h40.359802c0-120.428101 0-240.498978 0-360.282486-13.768555 0-27.177124 0-40.643067 0 0 27.027058.07251 53.692291-.13092 80.3554-.017151 2.253777-1.330017 5.069199-2.976562 6.64769-12.118836 11.617813-27.062989 17.812462-43.066529 22.004211-18.70166 4.898445-37.625976 6.68351-56.897033 5.124199-2.832093-.229172-4.29535-1.481384-5.589478-3.918136-4.333496-8.159539-8.932312-16.178132-13.495728-24.369584-11.686035 8.441742-22.830566 16.492341-33.321411 24.070694 7.281311 15.505784 14.903992 30.136872 21.095581 45.350388 6.920105 17.003616 12.380066 34.560181 8.086975 54.219482z" fill="#fff"/><g fill="#010101"><path d="m313.84436 287.171295c-28.518829-6.268677-42.864288-25.632812-49.768249-51.940979-4.001007-15.246277-4.921295-30.867813-4.912872-46.563904.007232-13.486053.001495-26.972107.001495-41.592483-27.566254 19.636551-58.173157 25.879013-90.977905 24.793732 1.770492 8.534515 3.810531 16.671234 5.091613 24.92575 2.131516 13.734238 2.738907 27.565918-.601593 41.21666-5.871032 23.991638-21.223907 39.343628-44.666214 45.856994-11.594978 3.22165-23.799049 5.346344-35.80458 5.766633-24.798081.868194-49.647805.261535-74.842461.261535 0-13.683899 0-27.424774 0-41.897751h4.417549c21.163326-.000015 42.32824.147263 63.489113-.08078 7.298111-.078674 14.65918-.629852 21.864655-1.768066 19.186698-3.030838 28.151298-14.543518 27.22248-34.102402-.845153-17.797043-6.794952-34.196091-14.060005-50.141479-5.231315-11.48172-11.176285-22.638291-17.024811-34.385567 10.783425-7.94558 21.708168-15.995285 33.073449-24.369591 4.862365 8.468613 9.352111 16.585213 14.196594 24.484245 1.012817 1.651452 3.239303 3.387032 5.067581 3.583291 20.9599 2.25 41.510559-.284897 61.702393-6.047333 14.422393-4.115929 27.760879-10.397988 38.754303-20.828057 1.651306-1.566658 2.949615-4.399665 2.966796-6.657867.20282-26.647293.130402-53.296669.130402-80.315773h40.339935c0 1.873793-.002685 3.835346.000367 5.796892.089508 57.156119.002044 114.313627.449523 171.466948.072022 9.199814 1.372498 18.744766 4.124604 27.49501 5.736297 18.238342 15.173187 25.224884 34.234619 25.586334 20.795898.394348 41.6203-.127548 62.416687-.761764 5.157898-.157303 10.467529-1.740662 15.340729-3.619538 14.041778-5.413818 18.456634-16.94078 17.407043-31.854354-1.847443-26.249604-13.664123-49.176423-25.151428-72.145386-1.854859-3.708832-3.855896-7.344559-6.129669-11.659859 11.014068-7.988853 22.102783-16.031845 33.721313-24.459144 3.241882 5.499054 6.547577 10.789245 9.54718 16.247642 15.574707 28.341484 26.242401 58.272789 28.418854 90.777413.942139 14.07077-.435791 27.98648-6.277466 41.037048-7.589477 16.955276-21.012573 27.254043-38.413208 32.920425-12.437378 4.050141-25.237854 5.637543-38.214111 5.756317-18.828369.172364-37.664429.23349-56.48764-.140716-6.760773-.1344-13.493775-1.66745-20.647065-2.640076z"/><path d="m803.804688 226.447311c4.192382-19.260833-1.267579-36.817398-8.187684-53.821014-6.191589-15.213516-13.81427-29.844604-21.095581-45.350388 10.490845-7.578353 21.635376-15.628952 33.321411-24.070694 4.563416 8.191452 9.162232 16.210045 13.495728 24.369584 1.294128 2.436752 2.757385 3.688964 5.589478 3.918136 19.271057 1.559311 38.195373-.225754 56.897033-5.124199 16.00354-4.191749 30.947693-10.386398 43.066529-22.004211 1.646545-1.578491 2.959411-4.393913 2.976562-6.64769.20343-26.663109.13092-53.328342.13092-80.3554h40.643067v360.282486c-13.118286 0-26.526611 0-40.359802 0 0-76.297791 0-152.868134 0-230.775879-27.552002 19.884674-58.03125 25.899536-90.741883 25.043137 1.672303 8.630233 3.596558 16.825897 4.796997 25.126236 2.308411 15.961319 2.629517 31.979232-2.613769 47.46878-7.003479 20.689545-21.924927 33.625732-42.542908 39.329437-11.446045 3.166413-23.46112 5.352661-35.301147 5.792878-24.300354.903503-48.655518.335937-72.988098.362823-.643982.000702-1.288025-.126373-2.155823-.217285 0-13.864044 0-27.625794 0-41.77504 5.494934 0 10.792724.061478 16.088745-.01062 22.983704-.312836 45.972717-.471466 68.945679-1.158173 4.847595-.144912 9.750793-1.945266 14.425659-3.567123 7.902038-2.741409 13.015014-8.415756 15.608887-16.815781z"/></g></svg>