<svg enable-background="new 0 0 1024 480" viewBox="0 0 1024 480" xmlns="http://www.w3.org/2000/svg"><path d="m411.583923 454.567078c-3.919983 4.785644-7.71701 9.215118-11.29718 13.813476-2.044678 2.626221-4.477051 3.629822-7.769226 3.481415-6.320099-.284882-12.664703-.576843-18.975647-.309937-3.79776.160614-5.590332-1.282012-7.203857-4.541809-15.741181-31.802093-30.714905-63.962524-45.540345-96.198486-11.367279-24.716644-24.362396-48.525391-40.94107-70.234711-4.780213-6.259552-10.114716-12.026825-16.124542-17.023254-9.247712-7.688385-20.356247-10.246704-32.184876-10.244782-68.657791.011109-137.315582.01355-205.973373.000916-9.795182-.001831-8.836106.725647-8.887022-8.893036-.04234-7.998749-.015826-15.997909-.010924-23.996887.004732-7.724732.009728-7.735581 7.531691-7.73613 36.495283-.00267 72.990568.0038 109.485853-.000137 6.904068-.000748 6.949173-.015717 6.950195-6.890763.005387-36.328613-.015136-72.657241-.02333-108.985855-.00148-6.611953.045013-6.690391 6.664276-6.725875 8.665329-.046463 17.339188.198593 25.993362-.118805 4.907914-.180008 6.181259 1.681472 6.160233 6.38919-.163773 36.661209.006821 73.324005-.202347 109.984741-.02887 5.058396 1.335037 6.575837 6.435577 6.469895 15.491318-.321716 30.995057.020889 46.491257-.14682 27.45694-.297165 50.093414 10.47876 69.080841 29.725738 16.845642 17.075928 28.640229 37.53006 38.987122 58.911621 15.310119 31.637848 29.460357 63.808075 43.867767 95.860047 1.207031 2.685272 2.054321 5.584961 4.674591 8.65686 37.338013-47.025024 68.994477-96.963592 94.074311-150.873688-2.380982-2.281585-4.488373-1.571624-6.3732-1.577789-20.663788-.067688-41.327972-.094086-61.99176-.037842-5.726441.015595-11.324463-.758819-16.710449-2.559631-15.768586-5.272186-24.276429-19.474457-22.692475-36.253647 1.623108-17.194214 8.101074-32.627075 16.663117-47.186355 19.937133-33.902085 44.777923-63.690896 75.668121-88.284607 3.933777-3.131936 6.483551-3.094887 9.927399.716255 5.466064 6.049103 11.388641 11.707794 17.372345 17.257477 2.89682 2.686729 3.180267 4.372963-.115631 7.003296-26.017701 20.763771-47.636719 45.557762-65.852845 73.30413-5.828003 8.877091-11.530609 17.966339-14.644378 28.318314-.616669 2.050048-1.597168 4.045135-.80304 6.281143 1.848816 1.275009 3.912537.729553 5.854035.732574 26.829803.041764 53.659759.058426 80.489501.006592 3.873536-.007492 7.660004.391388 11.324402 1.561615 12.164124 3.884644 18.421448 15.270661 15.88324 28.571167-1.953125 10.234436-6.095825 19.694794-10.188721 29.16745-19.891815 46.038116-47.126617 87.64325-77.2807 127.450897-8.946259 11.810303-18.372284 23.257202-27.792298 35.156037z"/><path d="m915.975952 194.955322c-6.685791 10.213486-12.781433 20.343613-16.721985 31.594773-1.875854 5.356094-1.314636 6.113723 4.333741 6.118408 27.498901.022812 54.997863.034897 82.496765-.004532 4.566955-.006546 8.933777.70755 13.116027 2.568115 9.509644 4.230499 14.456055 13.852493 13.479859 24.347901-1.428345 15.35614-8.412659 28.716217-14.81311 42.169159-22.197083 46.655639-51.823548 88.420501-85.271729 127.608184-8.331055 9.76059-16.893555 19.297882-25.688477 28.638977-2.222045 2.360047-4.542175 3.517395-7.845092 3.400635-6.158753-.217682-12.336426-.2229-18.494812.000458-3.424134.124176-5.338623-1.116089-7.138123-4.091187-25.65155-42.40802-47.974243-86.494201-67.764099-131.92749-16.447998-37.760925-31.295044-76.085525-43.008606-115.58194-4.968384-16.752639-9.400818-33.658111-13.594665-50.628021-1.125245-4.552948.280456-6.279999 4.536987-7.297592 8.741272-2.089706 17.457519-4.34285 26.05133-6.963974 3.996643-1.218979 5.555298-.217621 6.677613 3.684906 5.335693 18.552185 10.619812 37.128326 16.47174 55.521118 14.305115 44.960983 31.451111 88.833039 51.325135 131.634644 12.000976 25.845855 24.710388 51.336181 38.143371 76.466186.768006 1.436829 1.26416 3.118988 4.12909 4.425049 36.308227-43.490112 67.298523-90.666687 92.169372-141.755157-2.10144-2.273651-4.23468-1.50354-6.098816-1.510376-21.665527-.079316-43.332275.037353-64.996765-.133911-9.172729-.07251-17.959411-2.164551-25.130188-8.257081-9.93573-8.441741-12.460815-19.855697-11.135742-32.128128 2.238037-20.728363 11.569031-38.775924 22.642883-55.969863 18.985901-29.478501 41.471741-55.864655 69.182312-77.616555 3.819519-2.998184 6.400147-3.434372 9.974304.389138 5.91034 6.322502 12.297852 12.207572 18.621644 18.130294 2.346801 2.197983 2.081726 3.695145-.288392 5.587593-25.464599 20.332558-46.805847 44.444756-65.361572 71.580269z"/></svg>