<svg enable-background="new 0 0 2742 706" viewBox="0 0 2742 706" xmlns="http://www.w3.org/2000/svg"><path d="m1807 707c-602.333252 0-1204.166504 0-1805.999838 0-.000054-235.333221-.000054-470.666473-.000108-705.999775 913.999702-.000075 1827.999458-.000075 2741.999458-.00015 0 235.333009 0 470.666093.000244 705.999559-311.833008.000366-623.666504.000366-935.999756.000366m-1128.454041-164.017273c-9.523986-29.083069-18.625366-58.314026-28.733032-87.192841-5.91864-16.910522-12.431091-33.76712-20.459289-49.752594-15.476502-30.816101-41.333008-45.927093-75.84961-46.028686-19.33258-.056915-38.665466-.005402-57.998169-.020172-1.436187-.001099-2.872253-.142853-4.791931-.244965 0-76.031494 0-151.743606 0-227.340133-13.611633 0-26.715759 0-40.21167 0v97.226211c-74.461975 0-148.528045 0-219.450088 0 11.424682-12.322967 24.488159-26.004288 37.077926-40.108475 12.596344-14.111618 24.719269-28.645828 37.118958-43.075363-10.065521-6.92511-19.88504-13.680969-29.737457-20.45945-5.86847 6.598168-11.404023 13.04995-17.180512 19.278283-28.873977 31.132537-55.113022 64.698379-86.391754 93.615509-.85965.794738-1.681457 2.150512-1.697098 3.256317-.133575 9.447784-.076553 18.898269-.076553 28.69844 2.237534 0 4.032837-.00296 5.828125.000489 27.331833.052185 54.668976-.197266 81.993347.281372 14.379059.251892 27.733215 4.248474 37.158722 16.221954 9.556335 12.139679 9.84552 26.208893 7.041626 40.447876-2.234436 11.347351-8.775726 19.870087-19.186127 25.413116-10.348297 5.50998-21.483734 6.769898-32.887695 6.781617-41.83197.042968-83.6642.087433-125.495934-.023163-13.63195-.036041-27.311203-.386261-40.451866-4.630097-16.941375-5.471344-20.089195-12.769622-20.069587-27.152801.138366-101.496628.073501-202.993523.073501-304.490334 0-1.938642-.000007-3.877285-.000007-5.946193-13.679554 0-26.77771 0-39.914525 0v472.051944h39.962742c0-35.911285 0-71.614563 0-107.014068 6.167549 3.808685 11.869423 8.099304 18.189934 11.076629 14.21743 6.697297 29.526383 8.176972 45.080498 8.172486 141.495544-.040833 282.99118.038971 424.486603-.10968 16.292114-.017121 29.259521 5.683166 38.318237 19.2453 3.390442 5.075989 6.556152 10.523987 8.603943 16.239624 15.879638 44.321991 31.531738 88.726074 47.092346 133.161438 4.918457 14.045471 9.345215 28.263061 14.009277 42.439209 8.541199 0 16.705933.121277 24.860474-.112244 1.462341-.04187 3.389954-1.196045 4.249634-2.430664 38.430542-55.194092 69.236511-114.41449 92.889587-177.335235 6.649231-17.687714 12.427796-35.702729 18.7276-53.920075 15.129761 19.290497 35.504761 24.483215 58.785584 22.10846 23.588196-2.406098 41.482055-14.096558 55.058532-33.3266.765442.873078 1.49524 1.550599 2.042359 2.352723 7.659424 11.231994 18.181885 18.799926 30.572876 24.004974 14.570434 6.120575 29.969665 7.799164 45.502685 7.535492 17.544678-.297882 31.563294 6.292786 43.300232 18.984772 17.285035 18.691467 29.641724 40.604248 40.721192 63.169067 20.376465 41.499176 40.031738 83.353058 59.841064 125.128571 1.440552 3.03778 3.034912 4.058105 6.32312 3.92456 6.8219-.277099 13.669922.087036 20.491333-.196167 1.849854-.076782 4.205567-1.042908 5.379883-2.413818 30.272217-35.340393 58.622193-72.109986 82.019531-112.455689 26.369629-45.471252 47.258667-93.213501 57.605347-144.997284 4.249512-21.2677 6.180908-42.830993 1.722778-64.493805-14.080932-68.422729-87.514038-83.532424-130.965454-58.74443-37.739746 21.529602-59.583862 70.501327-50.906128 113.035019 5.341187 26.180054 20.336548 43.924805 45.532593 52.946258 14.002075 5.013428 28.588379 6.107239 43.292969 6.218781 11.471924.087036 22.945068.017425 35.356445.017425-23.469238 59.624848-54.402099 114.191803-93.687622 164.818329-.987671-2.17633-1.584961-3.494018-2.18335-4.811279-15.828979-34.8479-31.539062-69.750458-47.535522-104.521332-8.496704-18.468811-18.126221-36.317047-30.526367-52.571716-15.80603-20.719299-34.95398-36.767914-61.024414-42.277374-9.840454-2.079529-20.14624-2.014161-30.251648-2.769165-13.589234-1.015259-26.898865-3.196839-38.274536-11.29596-9.649475-6.870209-15.908387-15.330963-14.22345-28.546936 1.243835-9.755615.244385-19.797211.244385-30.022736-12.519959 1.49997-24.845154 2.976594-36.820862 4.411347-1.077087 8.96991-1.480225 17.658417-3.248474 26.05957-5.450195 25.893952-20.496704 38.953034-45.403626 39.381592-13.841919.238159-25.851013-4.229584-33.878845-16.446838-3.935486-5.989289-5.965027-12.539734-6.283752-19.70813-.440735-9.911652-1.069275-19.815003-1.649842-30.307892-13.470337 1.793762-25.727234 3.425903-38.15747 5.081146 0 1.624298-.054505 2.777619.007873 3.924622 1.770447 32.529022-5.845703 63.582763-15.956421 93.983764-17.695495 53.20755-41.033935 103.967286-68.890869 152.638123-.699402 1.221863-1.513611 2.377991-2.761291 4.324585-1.180054-3.731567-2.111206-6.67627-3.351014-10.36261m1501.09076-370.846954c8.092041-6.861389 16.184082-13.722779 22.705566-19.252671-8.198486-9.005905-16.360107-17.971206-24.522217-26.936836-21.734863 17.760842-42.83667 35.383095-64.35083 52.486748-25.667236 20.405304-51.694092 40.357666-77.526367 60.556168-.915771.716064-2.001831 1.954437-2.018188 2.965408-.153931 9.462128-.091431 18.927795-.091431 28.880615 2.16394 0 3.950928-.001221 5.737793.000183 55.162109.043152 110.325684-.147644 165.485351.230652 26.813721.183899 42.698243 16.709808 43.062989 43.384277.2854 20.888245-8.518067 35.482911-26.762207 41.685944-7.709229 2.621155-16.296143 3.679962-24.489014 3.703613-87.826172.253815-175.65332.159241-263.480225.148346-1.426147-.000183-2.852417-.147827-4.480957-.237823 0-114.199524 0-227.988114 0-342.014786-13.657104 0-27.084716 0-40.926025 0v342.252731c-21.201538 0-41.993164.134674-62.781006-.087005-5.788086-.061707-11.652954-.742768-17.330932-1.889771-18.979615-3.834137-31.871216-17.238891-31.397217-37.19928.241943-10.188537-1.39624-20.421692-2.203125-30.87326-12.514771 1.927154-23.840821 3.666565-35.163574 5.42746-.645142.100311-1.262696.377227-1.864502.56314 0 6.899353.395629 13.72757-.086182 20.493317-.884522 12.423126-1.071289 25.07077-3.673462 37.167877-14.792358 68.769043-41.958374 132.738648-76.709106 193.65387-.852173 1.493835-1.910279 2.870239-2.964356 4.438354-38.215576-92.704101-66.099731-187.756042-82.2854-286.436401-13.468018 2.438477-26.136475 4.732178-39.129151 7.084625 2.341797 15.137238 4.224488 29.837159 6.935913 44.38263 10.318116 55.353454 24.436036 109.727905 42.810059 162.974395 14.018677 40.625611 30.174438 80.352723 49.671021 118.69159 1.410522 2.773987 2.935791 3.811889 6.042968 3.700561 6.990601-.250488 14.005249.118042 20.989868-.204284 1.965821-.090699 4.509766-1.192505 5.692749-2.693909 21.526978-27.320984 38.964234-57.228027 54.339478-88.303162 19.971191-40.363952 35.626709-82.448425 48.19812-125.684234.381592-1.312836.923706-2.57901 1.432984-3.982209 3.682006 3.084046 6.782104 6.12436 10.304321 8.552491 13.72644 9.462646 29.471557 12.142456 45.623779 12.160797 122.157593.138641 244.315552.094879 366.473267.03244 7.980957-.004059 16.001709-.238525 23.933349-1.055176 15.628907-1.609222 30.525391-6.034485 43.065674-15.749145 28.515137-22.089875 34.725342-52.451569 29.340332-85.953736-1.574463-9.793884-7.179687-18.939941-10.813965-28.072662h110.732178c0 10.097992-.00415 19.905365.000977 29.712738.008056 15.527527.959716 30.967224 4.839843 46.076843 4.23877 16.506531 11.48169 31.246582 25.589844 41.688599 12.675293 9.381287 27.408692 12.770233 42.726318 13.17157 19.651124.514953 39.357911.796631 58.979004-.127869 12.020264-.566406 24.238037-2.470764 35.817139-5.728577 24.208008-6.810943 39.781738-22.726623 45.181885-47.748687 2.888916-13.385285 2.158935-26.861054.120849-40.240235-1.211914-7.959106-3.284912-15.787109-5.049804-24.044799 32.747314 1.025665 63.431152-5.063233 91.23291-24.999268v230.878632h39.975586c0-120.291596 0-240.347748 0-360.586182-13.366455 0-26.477295 0-40.08252 0v5.496384c0 24.998184.078858 49.997024-.1333 74.993377-.019288 2.26799-1.347413 5.122834-3.020752 6.683411-12.365479 11.533997-27.378907 17.991089-43.580323 22.108581-18.711425 4.755402-37.645019 6.830765-56.88916 4.775315-1.825683-.194992-4.041504-1.95369-5.058594-3.610962-4.871582-7.935791-9.392578-16.086777-14.185791-24.418213-11.165527 8.226059-22.112304 16.290909-33.240478 24.489456 4.063965 7.83342 8.178955 15.427368 11.987549 23.171951 9.361572 19.036713 17.533447 38.477814 19.270263 59.976288 1.494141 18.494812-6.259033 29.938965-23.644531 34.67395-2.714355.739228-5.550293 1.383576-8.341308 1.432099-21.645997.376465-43.326172 1.431885-64.933106.616699-19.611572-.739899-28.820557-9.149628-33.481934-28.292114-1.952636-8.019867-3.095214-16.441742-3.13916-24.68866-.306152-57.327377-.226562-114.656784-.270507-171.98555-.001465-1.771393-.000245-3.542785-.000245-5.335067-13.822021 0-27.070312 0-40.875244 0v100.25267c-96.383056 0-192.20581 0-289.243652 0 29.906494-16.393036 56.918457-34.852997 81.919922-57.384262m-492.841919 508.751678c14.309814 2.758118 24.959472-2.30249 29.676269-14.446899 2.716431-6.994751 2.55835-14.30249.973877-21.549805-4.480957-20.493652-25.241943-22.345215-36.693481-15.691223-9.489502 5.514099-11.234497 15.166687-11.520874 25.034912-.384888 13.259033 5.963257 22.942078 17.564209 26.653015m893.391968-226.4393c-8.742676-15.385071-31.372315-16.251313-41.097413-1.595887-4.940673 7.445588-4.886718 15.835785-3.88623 24.071503 1.200684 9.878327 6.049561 17.799622 16.32251 20.375946 9.894775 2.481568 19.676269 1.310272 26.261963-7.289215 8.21997-10.733154 7.741699-22.796204 2.39917-35.562347m-960.078736 180.001129c-7.356079-8.691345-16.789917-10.094605-27.118408-7.277466-8.734741 2.382568-15.029053 11.157104-15.845459 21.53717-.272705 3.466431-.274414 6.988465-.014526 10.456238.778808 10.394043 7.456787 18.909668 16.554077 21.418274 11.148315 3.074219 21.327026-.167969 27.510254-8.762756 6.680298-9.285889 6.372314-26.264282-1.085938-37.37146m215.805054-185.874665c-12.133057-9.864715-30.688232-7.312866-37.03479 5.472962-5.302612 10.6828-5.546021 21.764007-.001343 32.546265 4.233399 8.232391 11.533081 11.632476 20.478516 11.674011 8.887695.04129 16.255615-3.202027 20.803222-11.183655 6.825684-11.980225 5.248658-27.396851-4.245605-38.509583m202.300781 42.683075c10.717529 10.350861 28.286133 9.317383 36.828858-2.331359 5.230224-7.131745 5.726562-15.441895 4.842041-23.839386-1.160157-11.015961-7.966797-19.287323-17.523194-21.812317-10.114502-2.672486-20.748657.991607-26.521484 9.138214-7.139771 10.07547-6.242676 28.550751 2.373779 38.844848m446.69043-.875396c6.262939-7.458832 6.941162-16.291748 6.060058-25.415619-1.25-12.94632-10.393554-21.765839-23.086181-22.504456-12.223633-.711334-21.88501 6.67392-24.689697 19.265747-.819092 3.677887-1.173584 7.589356-.945313 11.345368.606445 9.96643 3.905274 18.929352 13.799072 23.009308 10.235596 4.220886 20.140625 3.097168 28.862061-5.700348m-2452.031742 31.742889c-10.986891 6.089905-15.887041 18.007629-13.419831 32.178223 1.762167 10.121032 6.442635 17.851135 16.892472 20.683044 15.879524 4.303345 28.607509-3.762756 31.177067-20.481506 3.960525-25.768982-12.930954-39.966187-34.649708-32.379761m625.150028 109.312805c-9.399902 8.884644-10.367859 19.961304-8.107727 31.782959 2.099976 10.984375 10.18396 18.203858 20.857727 18.892334 13.06958.843079 22.374512-4.55249 25.395874-16.083008 1.513611-5.776672 1.951111-12.279785 1.034424-18.167785-3.097473-19.895996-21.727905-27.791199-39.180298-16.4245m518.071045 23.988282c-.33606-3.296021-.439575-6.635865-1.050171-9.880188-2.176758-11.56659-10.331665-18.566651-22.162964-19.255616-11.406616-.664245-21.228638 5.797669-24.137939 16.783631-1.333496 5.035644-1.937134 10.568298-1.430298 15.734131 2.039429 20.784545 18.033081 26.465515 32.844482 22.171752 9.752808-2.827331 15.116455-11.602111 15.93689-25.55371m-849.095947-190.510834c-.295258-1.463898-.55362-2.936341-.891724-4.39029-2.28418-9.823883-9.019562-16.216979-18.607422-17.686615-11.184295-1.714355-20.231903 1.977936-25.163818 10.970917-5.537934 10.097901-5.644135 20.789002-1.146179 31.215607 4.058258 9.407471 11.890991 13.318787 22.015319 13.287842 10.023499-.03064 17.822144-4.181183 21.22284-13.499604 2.140198-5.864379 1.824127-12.625183 2.570984-19.897857m1802.738403-14.585022c-6.275146 7.903168-6.768799 17.184753-5.619629 26.523132 1.159912 9.423798 5.560547 17.17923 15.285889 20.065888 10.013916 2.972198 19.675781 1.919464 26.906006-6.429932 6.645507-7.673737 7.325683-17.085999 5.839843-26.766907-1.440918-9.386474-5.875976-16.771667-15.227539-19.682495-9.732666-3.02951-19.084472-2.156341-27.18457 6.290314m-232.855103-3.08664c-8.832519 7.548096-9.619751 17.632752-8.922485 28.203431 1.082153 16.407013 15.321167 26.445007 31.186524 21.96054 11.07788-3.131225 17.047363-11.431701 17.586059-25.826294.380615-10.170868-1.929687-19.89273-11.414795-25.477264-9.109131-5.363159-18.688476-5.003571-28.435303 1.139587z" fill="#fff"/><path d="m678.700256 543.353516c1.085511 3.315551 2.016663 6.260254 3.196717 9.991821 1.24768-1.946594 2.061889-3.102722 2.761291-4.324585 27.856934-48.670837 51.195374-99.430573 68.890869-152.638123 10.110718-30.401001 17.726868-61.454742 15.956421-93.983764-.062378-1.147003-.007873-2.300324-.007873-3.924622 12.430236-1.655243 24.687133-3.287384 38.15747-5.081146.580567 10.492889 1.209107 20.39624 1.649842 30.307892.318725 7.168396 2.348266 13.718841 6.283752 19.70813 8.027832 12.217254 20.036926 16.684997 33.878845 16.446838 24.906922-.428558 39.953431-13.48764 45.403626-39.381592 1.768249-8.401153 2.171387-17.08966 3.248474-26.05957 11.975708-1.434753 24.300903-2.911377 36.820862-4.411347 0 10.225525.99945 20.267121-.244385 30.022736-1.684937 13.215973 4.573975 21.676727 14.22345 28.546936 11.375671 8.099121 24.685302 10.280701 38.274536 11.29596 10.105408.755004 20.411194.689636 30.251648 2.769165 26.070434 5.50946 45.218384 21.558075 61.024414 42.277374 12.400146 16.254669 22.029663 34.102905 30.526367 52.571716 15.99646 34.770874 31.706543 69.673432 47.535522 104.521332.598389 1.317261 1.195679 2.634949 2.18335 4.811279 39.285523-50.626526 70.218384-105.193481 93.687622-164.818329-12.411377 0-23.884521.069611-35.356445-.017425-14.70459-.111542-29.290894-1.205353-43.292969-6.218781-25.196045-9.021453-40.191406-26.766204-45.532593-52.946258-8.677734-42.533692 13.166382-91.505417 50.906128-113.035019 43.451416-24.787994 116.884522-9.678299 130.965454 58.74443 4.45813 21.662812 2.526734 43.226105-1.722778 64.493805-10.34668 51.783783-31.235718 99.526032-57.605347 144.997284-23.397338 40.345703-51.747314 77.115296-82.019531 112.455689-1.174316 1.37091-3.530029 2.337036-5.379883 2.413818-6.821411.283203-13.669433-.080932-20.491333.196167-3.288208.133545-4.882568-.88678-6.32312-3.92456-19.809326-41.775513-39.464599-83.629395-59.841064-125.128571-11.079468-22.564819-23.436157-44.4776-40.721192-63.169067-11.736938-12.691986-25.755554-19.282654-43.300232-18.984772-15.53302.263672-30.932251-1.414917-45.502685-7.535492-12.390991-5.205048-22.913452-12.77298-30.572876-24.004974-.547119-.802124-1.276917-1.479645-2.042359-2.352723-13.576477 19.230042-31.470336 30.920502-55.058532 33.3266-23.280823 2.374755-43.655823-2.817963-58.785584-22.10846-6.299804 18.217346-12.078369 36.232361-18.7276 53.920075-23.653076 62.920745-54.459045 122.141143-92.889587 177.335235-.85968 1.234619-2.787293 2.388794-4.249634 2.430664-8.154541.233521-16.319275.112244-24.860474.112244-4.664062-14.176148-9.09082-28.393738-14.009277-42.439209-15.560608-44.435364-31.212708-88.839447-47.092346-133.161438-2.047791-5.715637-5.213501-11.163635-8.603943-16.239624-9.058716-13.562134-22.026123-19.262421-38.318237-19.2453-141.495423.148651-282.991059.068847-424.486603.10968-15.554115.004486-30.863068-1.475189-45.080498-8.172486-6.320511-2.977325-12.022385-7.267944-18.189934-11.076629v107.014068c-13.521438 0-26.61314 0-39.962742 0 0-157.31369 0-314.558441 0-472.051944h39.914525c0 2.068908.000007 4.007551.000007 5.946193 0 101.496811.064865 202.993706-.073501 304.490334-.019608 14.383179 3.128212 21.681457 20.069587 27.152801 13.140663 4.243836 26.819916 4.594056 40.451866 4.630097 41.831734.110596 83.663964.066131 125.495934.023163 11.403961-.011719 22.539398-1.271637 32.887695-6.781617 10.410401-5.543029 16.951691-14.065765 19.186127-25.413116 2.803894-14.238983 2.514709-28.308197-7.041626-40.447876-9.425507-11.97348-22.779663-15.970062-37.158722-16.221954-27.324371-.478638-54.661514-.229187-81.993347-.281372-1.795288-.003449-3.590591-.000489-5.828125-.000489 0-9.800171-.057022-19.250656.076553-28.69844.015641-1.105805.837448-2.461579 1.697098-3.256317 31.278732-28.91713 57.517777-62.482972 86.391754-93.615509 5.776489-6.228333 11.312042-12.680115 17.180512-19.278283 9.852417 6.778481 19.671936 13.53434 29.737457 20.45945-12.399689 14.429535-24.522614 28.963745-37.118958 43.075363-12.589767 14.104187-25.653244 27.785508-37.077926 40.108475h219.450088c0-32.462112 0-64.726715 0-97.226211h40.21167v227.340133c1.919678.102112 3.355744.243866 4.791931.244965 19.332703.01477 38.665589-.036743 57.998169.020172 34.516602.101593 60.373108 15.212585 75.84961 46.028686 8.028198 15.985474 14.540649 32.842072 20.459289 49.752594 10.107666 28.878815 19.209046 58.109772 28.887329 87.56363m-347.284668-193.440552c-3.961853 3.252563-7.923736 6.505096-12.090088 9.925537h130.859162c0-29.694122 0-59.225281 0-88.607483-42.791077 0-85.257813 0-128.399719 0 29.16214 17.161804 28.086212 61.087708 9.630645 78.681946m867.316468-85.757843c-22.145874 12.29657-33.956543 30.918854-33.316529 56.437836.51355 20.469879 11.961304 33.608245 32.19104 37.300994 22.600098 4.125428 45.485718 1.521698 68.243775 1.956452.259277.004944.525757-.357208.798218-.550781 4.731445-17.154847 6.616333-34.618317 5.385742-52.372345-2.548584-36.769165-38.980103-58.340516-73.302246-42.772156z" fill="#010101"/><path d="m2179.365723 172.364594c-24.730469 22.302444-51.742432 40.762405-81.648926 57.155441h289.243652c0-33.256272 0-66.621796 0-100.25267h40.875244c0 1.792282-.00122 3.563674.000245 5.335067.043945 57.328766-.035645 114.658173.270507 171.98555.043946 8.246918 1.186524 16.668793 3.13916 24.68866 4.661377 19.142486 13.870362 27.552215 33.481934 28.292114 21.606934.815186 43.287109-.240234 64.933106-.616699 2.791015-.048523 5.626953-.692871 8.341308-1.432099 17.385498-4.734985 25.138672-16.179138 23.644531-34.67395-1.736816-21.498474-9.908691-40.939575-19.270263-59.976288-3.808594-7.744583-7.923584-15.338531-11.987549-23.171951 11.128174-8.198547 22.074951-16.263397 33.240478-24.489456 4.793213 8.331436 9.314209 16.482422 14.185791 24.418213 1.01709 1.657272 3.232911 3.41597 5.058594 3.610962 19.244141 2.05545 38.177735-.019913 56.88916-4.775315 16.201416-4.117492 31.214844-10.574584 43.580323-22.108581 1.673339-1.560577 3.001464-4.415421 3.020752-6.683411.212158-24.996353.1333-49.995193.1333-74.993377 0-1.79889 0-3.597763 0-5.496384h40.08252v360.586182c-13.266358 0-26.374268 0-39.975586 0 0-76.54715 0-153.114289 0-230.878632-27.801758 19.936035-58.485596 26.024933-91.23291 24.999268 1.764892 8.25769 3.83789 16.085693 5.049804 24.044799 2.038086 13.379181 2.768067 26.85495-.120849 40.240235-5.400147 25.022064-20.973877 40.937744-45.181885 47.748687-11.579102 3.257813-23.796875 5.162171-35.817139 5.728577-19.621093.9245-39.32788.642822-58.979004.127869-15.317626-.401337-30.051025-3.790283-42.726318-13.17157-14.108154-10.442017-21.351074-25.182068-25.589844-41.688599-3.880127-15.109619-4.831787-30.549316-4.839843-46.076843-.005127-9.807373-.000977-19.614746-.000977-29.712738-37.467041 0-74.672363 0-110.732178 0 3.634278 9.132721 9.239502 18.278778 10.813965 28.072662 5.38501 33.502167-.825195 63.863861-29.340332 85.953736-12.540283 9.71466-27.436767 14.139923-43.065674 15.749145-7.93164.816651-15.952392 1.051117-23.933349 1.055176-122.157715.062439-244.315674.106201-366.473267-.03244-16.152222-.018341-31.897339-2.698151-45.623779-12.160797-3.522217-2.428131-6.622315-5.468445-10.304321-8.552491-.509278 1.403199-1.051392 2.669373-1.432984 3.982209-12.571411 43.235809-28.226929 85.320282-48.19812 125.684234-15.375244 31.075135-32.8125 60.982178-54.339478 88.303162-1.182983 1.501404-3.726928 2.60321-5.692749 2.693909-6.984619.322326-13.999267-.046204-20.989868.204284-3.107177.111328-4.632446-.926574-6.042968-3.700561-19.496583-38.338867-35.652344-78.065979-49.671021-118.69159-18.374023-53.24649-32.491943-107.620941-42.810059-162.974395-2.711425-14.545471-4.594116-29.245392-6.935913-44.38263 12.992676-2.352447 25.661133-4.646148 39.129151-7.084625 16.185669 98.680359 44.069824 193.7323 82.2854 286.436401 1.054077-1.568115 2.112183-2.944519 2.964356-4.438354 34.750732-60.915222 61.916748-124.884827 76.709106-193.65387 2.602173-12.097107 2.78894-24.744751 3.673462-37.167877.481811-6.765747.086182-13.593964.086182-20.493317.601806-.185913 1.21936-.462829 1.864502-.56314 11.322753-1.760895 22.648803-3.500306 35.163574-5.42746.806885 10.451568 2.445068 20.684723 2.203125 30.87326-.473999 19.960389 12.417602 33.365143 31.397217 37.19928 5.677978 1.147003 11.542846 1.828064 17.330932 1.889771 20.787842.221679 41.579468.087005 62.781006.087005 0-114.254272 0-228.155639 0-342.252731h40.926025v342.014786c1.62854.089996 3.05481.23764 4.480957.237823 87.826905.010895 175.654053.105469 263.480225-.148346 8.192871-.023651 16.779785-1.082458 24.489014-3.703613 18.24414-6.203033 27.047607-20.797699 26.762207-41.685944-.364746-26.674469-16.249268-43.200378-43.062989-43.384277-55.159667-.378296-110.323242-.1875-165.485351-.230652-1.786865-.001404-3.573853-.000183-5.737793-.000183 0-9.95282-.0625-19.418487.091431-28.880615.016357-1.010971 1.102417-2.249344 2.018188-2.965408 25.832275-20.198502 51.859131-40.150864 77.526367-60.556168 21.51416-17.103653 42.615967-34.725906 64.35083-52.486748 8.16211 8.96563 16.323731 17.930931 24.522217 26.936836-6.521484 5.529892-14.613525 12.391282-22.976562 19.481492z" fill="#010101"/><g fill="#c47034"><path d="m1686.400879 680.792603c-11.207031-3.616089-17.555176-13.299134-17.170288-26.558167.286377-9.868225 2.031372-19.520813 11.520874-25.034912 11.451538-6.653992 32.212524-4.802429 36.693481 15.691223 1.584473 7.247315 1.742554 14.555054-.973877 21.549805-4.716797 12.144409-15.366455 17.205017-30.07019 14.352051z"/><path d="m2580.377441 454.775269c5.151856 12.439025 5.630127 24.502075-2.589843 35.235229-6.585694 8.599487-16.367188 9.770783-26.261963 7.289215-10.272949-2.576324-15.121826-10.497619-16.32251-20.375946-1.000488-8.235718-1.054443-16.625915 3.88623-24.071503 9.725098-14.655426 32.354737-13.789184 41.288086 1.923005z"/><path d="m1620.317383 634.744507c7.248901 10.811951 7.556885 27.790344.876587 37.076233-6.183228 8.594787-16.361939 11.836975-27.510254 8.762756-9.09729-2.508606-15.775269-11.024231-16.554077-21.418274-.259888-3.467773-.258179-6.989807.014526-10.456238.816406-10.380066 7.110718-19.154602 15.845459-21.53717 10.328491-2.817139 19.762329-1.413879 27.327759 7.572693z"/></g><path d="m1836.205811 448.789062c9.201538 10.898285 10.778564 26.314911 3.95288 38.295136-4.547607 7.981628-11.915527 11.224945-20.803222 11.183655-8.945435-.041535-16.245117-3.44162-20.478516-11.674011-5.544678-10.782258-5.301269-21.863465.001343-32.546265 6.346558-12.785828 24.901733-15.337677 37.327515-5.258515z" fill="#c46f34"/><path d="m2037.957642 491.000916c-8.36023-10.037323-9.257325-28.512604-2.117554-38.588074 5.772827-8.146607 16.406982-11.8107 26.521484-9.138214 9.556397 2.524994 16.363037 10.796356 17.523194 21.812317.884521 8.397491.388183 16.707641-4.842041 23.839386-8.542725 11.648742-26.111329 12.68222-37.085083 2.074585z" fill="#c46f34"/><path d="m2484.704102 490.681702c-8.521241 8.498108-18.42627 9.621826-28.661866 5.40094-9.893798-4.079956-13.192627-13.042878-13.799072-23.009308-.228271-3.756012.126221-7.667481.945313-11.345368 2.804687-12.591827 12.466064-19.977081 24.689697-19.265747 12.692627.738617 21.836181 9.558136 23.086181 22.504456.881104 9.123871.202881 17.956787-6.260253 25.715027z" fill="#c46f34"/><path d="m33.239674 521.993225c21.351635-7.454468 38.243114 6.742737 34.282589 32.511719-2.569558 16.71875-15.297543 24.784851-31.177067 20.481506-10.449837-2.831909-15.130305-10.562012-16.892472-20.683044-2.46721-14.170594 2.43294-26.088318 13.78695-32.310181z" fill="#c67035"/><path d="m658.316772 631.223511c17.158204-11.152222 35.788636-3.257019 38.886109 16.638977.916687 5.888.479187 12.391113-1.034424 18.167785-3.021362 11.530518-12.326294 16.926087-25.395874 16.083008-10.673767-.688476-18.757751-7.907959-20.857727-18.892334-2.260132-11.821655-1.292175-22.898315 8.401916-31.997436z" fill="#c57035"/><path d="m1176.075439 655.890564c-.802246 13.487305-6.165893 22.262085-15.918701 25.089416-14.811401 4.293763-30.805053-1.387207-32.844482-22.171752-.506836-5.165833.096802-10.698487 1.430298-15.734131 2.909301-10.985962 12.731323-17.447876 24.137939-16.783631 11.831299.688965 19.986206 7.689026 22.162964 19.255616.610596 3.244323.714111 6.584167 1.031982 10.344482z" fill="#c67035"/><path d="m327.017151 465.372437c-.766327 6.815673-.450256 13.576477-2.590454 19.440856-3.400696 9.318421-11.199341 13.468964-21.22284 13.499604-10.124328.030945-17.957061-3.880371-22.015319-13.287842-4.497956-10.426605-4.391755-21.117706 1.146179-31.215607 4.931915-8.992981 13.979523-12.685272 25.163818-10.970917 9.58786 1.469636 16.323242 7.862732 18.607422 17.686615.338104 1.453949.596466 2.926392.911194 4.847291z" fill="#c67035"/><path d="m2129.989502 450.066589c7.84668-8.18283 17.198486-9.055999 26.931152-6.026489 9.351563 2.910828 13.786621 10.296021 15.227539 19.682495 1.48584 9.680908.805664 19.09317-5.839843 26.766907-7.230225 8.349396-16.89209 9.40213-26.906006 6.429932-9.725342-2.886658-14.125977-10.64209-15.285889-20.065888-1.14917-9.338379-.655517-18.619964 5.873047-26.786957z" fill="#c46f34"/><path d="m1897.189697 447.040405c9.438111-5.939789 19.017456-6.299377 28.126587-.936218 9.485108 5.584534 11.79541 15.306396 11.414795 25.477264-.538696 14.394593-6.508179 22.695069-17.586059 25.826294-15.865357 4.484467-30.104371-5.553527-31.186524-21.96054-.697266-10.570679.089966-20.655335 9.231201-28.4068z" fill="#c46f34"/><path d="m331.659546 349.65564c18.211609-17.336914 19.287537-61.262818-9.874603-78.424622h128.399719v88.607483c-43.593231 0-87.029663 0-130.859162 0 4.166352-3.420441 8.128235-6.672974 12.334046-10.182861z" fill="#fefefe"/><path d="m1199.082764 264.01535c33.971435-15.428589 70.402954 6.142762 72.951538 42.911927 1.230591 17.754028-.654297 35.217498-5.390503 52.373748-.2677.19217-.53418.554322-.793457.549378-22.758057-.434754-45.643677 2.168976-68.243775-1.956452-20.229736-3.692749-31.67749-16.831115-32.19104-37.300994-.640014-25.518982 11.170655-44.141266 33.667237-56.577607z" fill="#fefefe"/></svg>