<svg version="1.1" id="Layer_1" xmlns="http://www.w3.org/2000/svg" xmlns:xlink="http://www.w3.org/1999/xlink" x="0px" y="0px"
	 width="100%" viewBox="0 0 1764 664" enable-background="new 0 0 1764 664" xml:space="preserve">
<path fill="#FFFFFF" opacity="1.000000" stroke="none" 
	d="
M1312.000000,665.000000 
	C874.666687,665.000000 437.833344,665.000000 1.000000,665.000000 
	C1.000000,443.666656 1.000000,222.333328 1.000000,1.000000 
	C589.000000,1.000000 1177.000000,1.000000 1765.000000,1.000000 
	C1765.000000,222.333328 1765.000000,443.666656 1765.000000,665.000000 
	C1614.166626,665.000000 1463.333374,665.000000 1312.000000,665.000000 
M668.525696,343.980804 
	C685.235779,365.994904 702.417786,387.670319 718.524292,410.117493 
	C734.924927,432.974426 750.035583,456.712860 760.236633,483.202423 
	C760.771362,484.591003 763.261719,485.829803 764.969055,486.025269 
	C767.678955,486.335541 771.069824,487.345612 772.182983,482.971558 
	C775.536194,469.795441 779.252258,456.708252 782.404602,443.485779 
	C784.226440,435.843964 783.484131,428.335876 779.104797,421.404083 
	C773.775574,412.968567 769.142090,404.058746 763.397827,395.926086 
	C732.334229,351.946869 698.385559,310.216827 663.589233,269.170227 
	C660.296509,265.286072 658.677673,261.524078 658.692139,256.270630 
	C658.879639,187.782516 658.816528,119.293747 658.816528,50.805134 
	C658.816528,48.918884 658.816589,47.032639 658.816589,44.436481 
	C646.850525,49.501202 635.934753,54.356560 624.818054,58.697182 
	C620.999573,60.188129 620.080994,62.212135 620.091614,66.076149 
	C620.224915,114.567719 620.179016,163.059784 620.179016,211.551712 
	C620.179016,213.216812 620.179016,214.881897 620.179016,217.780060 
	C568.668518,158.495636 516.990662,101.531952 462.627197,47.004787 
	C451.133789,53.013012 440.170441,58.978168 428.973755,64.467422 
	C425.172821,66.330841 423.832275,68.411644 423.836670,72.734955 
	C423.972778,206.545883 423.948029,340.356995 423.948029,474.168060 
	C423.948029,475.919037 423.948029,477.670013 423.948029,479.995941 
	C438.043915,474.863800 451.383820,469.764099 464.909973,465.218781 
	C469.420746,463.702972 470.908081,461.696960 470.901093,456.845428 
	C470.742096,346.863953 470.778778,236.882187 470.778778,126.900475 
	C470.778778,125.058846 470.778778,123.217209 470.778778,121.375580 
	C471.222443,121.261093 471.666138,121.146606 472.109802,121.032120 
	C473.066101,122.186531 473.949432,123.411629 474.989197,124.485176 
	C523.458923,174.527664 570.146851,226.179382 615.277527,279.252960 
	C618.895508,283.507690 620.300537,287.588257 620.285156,293.072418 
	C620.116089,353.395233 620.179016,413.718719 620.179016,474.042023 
	C620.179016,475.813019 620.179016,477.584015 620.179016,480.072205 
	C631.868958,475.259430 642.828186,470.525269 653.974670,466.283142 
	C657.700928,464.865021 658.935425,463.113861 658.918579,459.091125 
	C658.750366,418.931854 658.816284,378.771576 658.816101,338.611603 
	C658.816101,336.864655 658.816040,335.117676 658.816040,333.370728 
	C659.157898,333.265839 659.499756,333.160980 659.841614,333.056091 
	C662.583740,336.514709 665.325867,339.973328 668.525696,343.980804 
M1248.500000,53.160595 
	C1223.838501,53.160595 1199.177124,53.160595 1174.231079,53.160595 
	C1169.357666,65.202766 1164.512451,77.190971 1159.654297,89.173988 
	C1156.864624,96.054871 1158.281372,98.170212 1165.722412,98.170326 
	C1236.888306,98.171379 1308.054321,98.170944 1379.220215,98.170944 
	C1380.959351,98.170944 1382.698486,98.170944 1384.910278,98.170944 
	C1384.141968,100.292770 1383.713989,101.695557 1383.137573,103.034317 
	C1365.482666,144.032822 1347.768433,185.005936 1330.231812,226.054947 
	C1328.835815,229.322617 1326.975464,229.901688 1323.805908,229.892334 
	C1289.473267,229.791016 1255.140259,229.829056 1220.807251,229.829056 
	C1219.004639,229.829056 1217.201904,229.829056 1215.549927,229.829056 
	C1210.448608,241.932175 1205.552612,253.562347 1200.644287,265.187317 
	C1198.055542,271.318481 1199.643799,273.835449 1206.164429,273.836700 
	C1237.664185,273.842712 1269.163818,273.839417 1300.663574,273.839447 
	C1302.411377,273.839447 1304.159180,273.839447 1306.519775,273.839447 
	C1305.809570,275.403503 1305.469482,276.296417 1305.016968,277.128082 
	C1293.268555,298.721222 1281.910278,320.539551 1269.642334,341.833740 
	C1256.257690,365.066223 1241.338623,387.299957 1223.267822,407.290588 
	C1213.248657,418.373962 1201.162109,424.644226 1186.159790,425.060791 
	C1176.335815,425.333588 1166.504883,425.450226 1156.692627,425.947510 
	C1154.999878,426.033295 1152.504517,427.272797 1151.874268,428.658875 
	C1146.583984,440.292450 1141.598145,452.065796 1136.619629,463.838959 
	C1134.848145,468.028076 1136.844238,471.112152 1141.342651,470.965027 
	C1159.819458,470.360596 1178.338135,470.205200 1196.752197,468.752625 
	C1214.877930,467.322815 1231.312378,460.808075 1243.100464,446.276154 
	C1254.510742,432.209930 1265.820679,417.951080 1275.838257,402.888000 
	C1302.375366,362.984528 1324.608887,320.582520 1346.328247,277.926636 
	C1347.862427,274.913849 1349.545532,273.711884 1353.072998,273.741913 
	C1375.571045,273.933441 1398.072021,273.783905 1420.571167,273.907196 
	C1423.494385,273.923218 1424.959473,273.080994 1426.056519,270.307556 
	C1430.391479,259.348755 1435.000732,248.498718 1439.482178,237.597595 
	C1441.624146,232.387192 1439.906616,229.839630 1434.237915,229.835114 
	C1414.571411,229.819458 1394.905029,229.829056 1375.238525,229.829056 
	C1373.831055,229.829056 1372.423462,229.829056 1370.384033,229.829056 
	C1371.347168,227.597366 1371.972046,226.110199 1372.627563,224.636688 
	C1387.604980,190.969528 1402.900391,157.439011 1417.442749,123.585030 
	C1425.560547,104.687279 1432.507446,85.282616 1439.814331,66.042778 
	C1442.269531,59.578133 1437.686646,53.160656 1430.998169,53.160645 
	C1370.498779,53.160553 1309.999390,53.160595 1248.500000,53.160595 
M1717.462891,212.161118 
	C1692.020142,212.161118 1666.577271,212.161118 1640.630127,212.161118 
	C1640.630127,156.152039 1640.630127,100.639717 1640.630127,44.531437 
	C1624.688721,50.158588 1609.386353,55.560177 1593.771851,61.071960 
	C1593.771851,111.513901 1593.771851,161.766235 1593.771851,212.217255 
	C1569.043091,212.217255 1544.731445,212.217255 1520.292480,212.217255 
	C1515.481567,224.205170 1510.710693,236.059616 1505.967041,247.924957 
	C1502.878418,255.650436 1504.198608,257.510742 1512.702759,257.510864 
	C1534.034546,257.511200 1555.366455,257.510956 1576.698242,257.510956 
	C1582.325073,257.510956 1587.951782,257.510956 1593.664795,257.510956 
	C1593.664795,313.768616 1593.664795,369.659363 1593.664795,425.832092 
	C1591.546875,425.832092 1589.731812,425.744720 1587.927124,425.845520 
	C1569.489990,426.875458 1550.981323,427.244080 1532.639771,429.186920 
	C1515.063477,431.048645 1501.682739,439.597168 1495.906250,457.555237 
	C1494.082153,463.225861 1491.641602,468.723602 1489.140015,474.141998 
	C1487.439453,477.825165 1487.975342,480.426544 1490.684814,481.960083 
	C1497.864624,479.841187 1504.259155,476.940765 1510.897583,476.187134 
	C1529.890747,474.030823 1548.967651,471.593567 1568.039062,471.340240 
	C1619.693237,470.654144 1671.361572,470.980927 1723.023926,471.117523 
	C1727.095459,471.128296 1728.757080,469.870605 1730.116821,466.185333 
	C1733.965210,455.755188 1738.282593,445.498077 1742.416504,435.173248 
	C1745.414429,427.685486 1744.216431,425.830261 1736.372192,425.830017 
	C1706.374390,425.829041 1676.376465,425.829590 1646.378662,425.829590 
	C1644.604858,425.829590 1642.830933,425.829590 1641.034424,425.829590 
	C1641.034424,369.449371 1641.034424,313.679932 1641.034424,257.510956 
	C1643.061157,257.510956 1644.856323,257.510956 1646.651611,257.510956 
	C1668.150024,257.510956 1689.648804,257.457001 1711.146606,257.574829 
	C1714.041992,257.590668 1715.576782,256.858917 1716.676392,254.005051 
	C1721.031982,242.700623 1725.701294,231.517410 1730.190186,220.263733 
	C1732.188721,215.253296 1730.167480,212.208405 1724.946533,212.164200 
	C1722.780151,212.145859 1720.613525,212.161133 1717.462891,212.161118 
M934.347656,212.153732 
	C912.015625,212.156235 889.681519,212.317459 867.353516,212.020004 
	C863.162170,211.964172 861.612244,213.559006 860.289429,216.993790 
	C856.114258,227.835587 851.704041,238.586823 847.395203,249.377274 
	C845.167786,254.955124 846.846130,257.501556 852.804688,257.504791 
	C878.636780,257.518799 904.468933,257.510803 930.301025,257.510803 
	C932.080261,257.510803 933.859497,257.510773 935.657776,257.510773 
	C935.657776,313.825439 935.657776,369.714203 935.657776,425.831116 
	C933.676147,425.831116 932.023621,425.751862 930.380493,425.843262 
	C911.774353,426.878296 893.095154,427.236115 874.586060,429.196808 
	C857.001770,431.059509 843.663208,439.686859 837.903687,457.637146 
	C836.083801,463.308990 833.626587,468.799591 831.139099,474.225555 
	C829.561523,477.666779 829.985168,480.203583 832.743286,481.999542 
	C839.854797,479.918671 846.551208,477.394043 853.476379,476.037018 
	C875.972412,471.628754 898.801392,471.032623 921.642761,471.013977 
	C969.640503,470.974731 1017.638367,470.962250 1065.635742,471.088196 
	C1068.977417,471.096954 1070.615112,470.213104 1071.820435,467.042358 
	C1076.008057,456.025940 1080.526733,445.135620 1084.890015,434.185547 
	C1087.251953,428.258087 1085.622070,425.833588 1079.309570,425.832367 
	C1048.977661,425.826447 1018.645752,425.829712 988.313843,425.829712 
	C986.554504,425.829712 984.795166,425.829712 983.084595,425.829712 
	C983.084595,369.375885 983.084595,313.602570 983.084595,257.510773 
	C985.152649,257.510773 986.956299,257.510803 988.759888,257.510803 
	C1010.092224,257.510803 1031.425415,257.414673 1052.755981,257.608398 
	C1056.181885,257.639526 1057.756958,256.559662 1058.947388,253.476959 
	C1063.191895,242.485840 1067.704590,231.598618 1072.070923,220.654099 
	C1074.315552,215.027603 1072.378540,212.165619 1066.390991,212.164108 
	C1040.392212,212.157562 1014.393433,212.161285 988.394653,212.161255 
	C986.625427,212.161255 984.856201,212.161240 982.580933,212.161240 
	C982.580933,156.093887 982.580933,100.592552 982.580933,44.555767 
	C966.650085,50.182125 951.347046,55.586750 935.997986,61.007633 
	C935.997986,63.155273 935.997986,64.983871 935.997986,66.812469 
	C935.997986,113.476936 936.005310,160.141403 935.969421,206.805847 
	C935.968018,208.563293 935.546753,210.320435 934.347656,212.153732 
M229.438263,54.035496 
	C223.113998,55.871902 216.789719,57.708305 210.331451,59.583622 
	C210.331451,61.839314 210.331467,63.656334 210.331467,65.473351 
	C210.331467,102.628517 210.277817,139.783875 210.419479,176.938507 
	C210.432770,180.419052 209.284439,182.179138 206.330475,183.867767 
	C194.074081,190.874100 181.716202,197.762665 169.909698,205.480927 
	C155.558701,214.862595 141.614059,224.928101 130.344208,238.084061 
	C128.492905,240.245193 127.065498,243.128906 126.424385,245.905472 
	C123.545280,258.374481 120.931244,270.908020 118.491516,283.470703 
	C118.213676,284.901337 119.233780,287.172119 120.406067,288.084351 
	C121.156113,288.667999 123.725357,287.940735 124.743401,287.002747 
	C149.629333,264.074127 177.665176,245.712463 207.355270,229.730255 
	C208.155624,229.299438 209.088943,229.115646 210.151855,228.750900 
	C210.226059,229.929596 210.323288,230.753525 210.323257,231.577469 
	C210.322266,270.565338 210.667648,309.558319 210.105499,348.538177 
	C209.917236,361.591400 208.619446,374.890533 205.685104,387.581604 
	C201.127945,407.291473 190.543716,423.418701 169.900528,429.377899 
	C159.487518,432.383911 148.384857,433.742432 137.516953,434.276154 
	C115.245781,435.369873 94.149384,430.793640 75.547302,417.684845 
	C69.056648,413.110901 62.762947,408.257477 56.236244,403.425812 
	C46.030643,417.610077 35.762344,431.881470 25.434097,446.236176 
	C37.710423,458.922607 51.905491,468.065002 68.184891,472.786682 
	C104.101593,483.203735 140.221237,482.539398 175.851318,471.052917 
	C212.567581,459.216309 236.955093,434.547546 249.254379,398.054108 
	C255.329346,380.028961 256.768097,361.264496 256.812103,342.398468 
	C256.913910,298.745544 256.933350,255.091797 256.718414,211.439713 
	C256.694855,206.658096 258.156281,204.543900 262.573578,202.945663 
	C282.082306,195.887070 301.480225,188.518707 320.844696,181.071182 
	C322.493134,180.437180 324.488617,178.574783 324.816284,176.974564 
	C327.417480,164.270340 329.703430,151.500244 331.979462,138.731354 
	C332.997864,133.018097 331.755798,131.900940 326.347900,133.792923 
	C309.739624,139.603424 293.149689,145.468750 276.607513,151.464310 
	C270.102814,153.821854 263.743530,156.580658 256.856873,159.341629 
	C256.856873,121.473625 256.856873,84.194626 256.856873,46.248188 
	C247.680603,48.879688 238.957062,51.381359 229.438263,54.035496 
z"/>
<path fill="#C57035" opacity="1.000000" stroke="none" 
	d="
M668.296875,343.706360 
	C665.325867,339.973328 662.583740,336.514709 659.841614,333.056091 
	C659.499756,333.160980 659.157898,333.265839 658.816040,333.370728 
	C658.816040,335.117676 658.816101,336.864655 658.816101,338.611603 
	C658.816284,378.771576 658.750366,418.931854 658.918579,459.091125 
	C658.935425,463.113861 657.700928,464.865021 653.974670,466.283142 
	C642.828186,470.525269 631.868958,475.259430 620.179016,480.072205 
	C620.179016,477.584015 620.179016,475.813019 620.179016,474.042023 
	C620.179016,413.718719 620.116089,353.395233 620.285156,293.072418 
	C620.300537,287.588257 618.895508,283.507690 615.277527,279.252960 
	C570.146851,226.179382 523.458923,174.527664 474.989197,124.485176 
	C473.949432,123.411629 473.066101,122.186531 472.109802,121.032120 
	C471.666138,121.146606 471.222443,121.261093 470.778778,121.375580 
	C470.778778,123.217209 470.778778,125.058846 470.778778,126.900475 
	C470.778778,236.882187 470.742096,346.863953 470.901093,456.845428 
	C470.908081,461.696960 469.420746,463.702972 464.909973,465.218781 
	C451.383820,469.764099 438.043915,474.863800 423.948029,479.995941 
	C423.948029,477.670013 423.948029,475.919037 423.948029,474.168060 
	C423.948029,340.356995 423.972778,206.545883 423.836670,72.734955 
	C423.832275,68.411644 425.172821,66.330841 428.973755,64.467422 
	C440.170441,58.978168 451.133789,53.013012 462.627197,47.004787 
	C516.990662,101.531952 568.668518,158.495636 620.179016,217.780060 
	C620.179016,214.881897 620.179016,213.216812 620.179016,211.551712 
	C620.179016,163.059784 620.224915,114.567719 620.091614,66.076149 
	C620.080994,62.212135 620.999573,60.188129 624.818054,58.697182 
	C635.934753,54.356560 646.850525,49.501202 658.816589,44.436481 
	C658.816589,47.032639 658.816528,48.918884 658.816528,50.805134 
	C658.816528,119.293747 658.879639,187.782516 658.692139,256.270630 
	C658.677673,261.524078 660.296509,265.286072 663.589233,269.170227 
	C698.385559,310.216827 732.334229,351.946869 763.397827,395.926086 
	C769.142090,404.058746 773.775574,412.968567 779.104797,421.404083 
	C783.484131,428.335876 784.226440,435.843964 782.404602,443.485779 
	C779.252258,456.708252 775.536194,469.795441 772.182983,482.971558 
	C771.069824,487.345612 767.678955,486.335541 764.969055,486.025269 
	C763.261719,485.829803 760.771362,484.591003 760.236633,483.202423 
	C750.035583,456.712860 734.924927,432.974426 718.524292,410.117493 
	C702.417786,387.670319 685.235779,365.994904 668.296875,343.706360 
z"/>
<path fill="#020202" opacity="1.000000" stroke="none" 
	d="
M1249.000000,53.160595 
	C1309.999390,53.160595 1370.498779,53.160553 1430.998169,53.160645 
	C1437.686646,53.160656 1442.269531,59.578133 1439.814331,66.042778 
	C1432.507446,85.282616 1425.560547,104.687279 1417.442749,123.585030 
	C1402.900391,157.439011 1387.604980,190.969528 1372.627563,224.636688 
	C1371.972046,226.110199 1371.347168,227.597366 1370.384033,229.829056 
	C1372.423462,229.829056 1373.831055,229.829056 1375.238525,229.829056 
	C1394.905029,229.829056 1414.571411,229.819458 1434.237915,229.835114 
	C1439.906616,229.839630 1441.624146,232.387192 1439.482178,237.597595 
	C1435.000732,248.498718 1430.391479,259.348755 1426.056519,270.307556 
	C1424.959473,273.080994 1423.494385,273.923218 1420.571167,273.907196 
	C1398.072021,273.783905 1375.571045,273.933441 1353.072998,273.741913 
	C1349.545532,273.711884 1347.862427,274.913849 1346.328247,277.926636 
	C1324.608887,320.582520 1302.375366,362.984528 1275.838257,402.888000 
	C1265.820679,417.951080 1254.510742,432.209930 1243.100464,446.276154 
	C1231.312378,460.808075 1214.877930,467.322815 1196.752197,468.752625 
	C1178.338135,470.205200 1159.819458,470.360596 1141.342651,470.965027 
	C1136.844238,471.112152 1134.848145,468.028076 1136.619629,463.838959 
	C1141.598145,452.065796 1146.583984,440.292450 1151.874268,428.658875 
	C1152.504517,427.272797 1154.999878,426.033295 1156.692627,425.947510 
	C1166.504883,425.450226 1176.335815,425.333588 1186.159790,425.060791 
	C1201.162109,424.644226 1213.248657,418.373962 1223.267822,407.290588 
	C1241.338623,387.299957 1256.257690,365.066223 1269.642334,341.833740 
	C1281.910278,320.539551 1293.268555,298.721222 1305.016968,277.128082 
	C1305.469482,276.296417 1305.809570,275.403503 1306.519775,273.839447 
	C1304.159180,273.839447 1302.411377,273.839447 1300.663574,273.839447 
	C1269.163818,273.839417 1237.664185,273.842712 1206.164429,273.836700 
	C1199.643799,273.835449 1198.055542,271.318481 1200.644287,265.187317 
	C1205.552612,253.562347 1210.448608,241.932175 1215.549927,229.829056 
	C1217.201904,229.829056 1219.004639,229.829056 1220.807251,229.829056 
	C1255.140259,229.829056 1289.473267,229.791016 1323.805908,229.892334 
	C1326.975464,229.901688 1328.835815,229.322617 1330.231812,226.054947 
	C1347.768433,185.005936 1365.482666,144.032822 1383.137573,103.034317 
	C1383.713989,101.695557 1384.141968,100.292770 1384.910278,98.170944 
	C1382.698486,98.170944 1380.959351,98.170944 1379.220215,98.170944 
	C1308.054321,98.170944 1236.888306,98.171379 1165.722412,98.170326 
	C1158.281372,98.170212 1156.864624,96.054871 1159.654297,89.173988 
	C1164.512451,77.190971 1169.357666,65.202766 1174.231079,53.160595 
	C1199.177124,53.160595 1223.838501,53.160595 1249.000000,53.160595 
z"/>
<path fill="#010101" opacity="1.000000" stroke="none" 
	d="
M1717.954956,212.161118 
	C1720.613525,212.161133 1722.780151,212.145859 1724.946533,212.164200 
	C1730.167480,212.208405 1732.188721,215.253296 1730.190186,220.263733 
	C1725.701294,231.517410 1721.031982,242.700623 1716.676392,254.005051 
	C1715.576782,256.858917 1714.041992,257.590668 1711.146606,257.574829 
	C1689.648804,257.457001 1668.150024,257.510956 1646.651611,257.510956 
	C1644.856323,257.510956 1643.061157,257.510956 1641.034424,257.510956 
	C1641.034424,313.679932 1641.034424,369.449371 1641.034424,425.829590 
	C1642.830933,425.829590 1644.604858,425.829590 1646.378662,425.829590 
	C1676.376465,425.829590 1706.374390,425.829041 1736.372192,425.830017 
	C1744.216431,425.830261 1745.414429,427.685486 1742.416504,435.173248 
	C1738.282593,445.498077 1733.965210,455.755188 1730.116821,466.185333 
	C1728.757080,469.870605 1727.095459,471.128296 1723.023926,471.117523 
	C1671.361572,470.980927 1619.693237,470.654144 1568.039062,471.340240 
	C1548.967651,471.593567 1529.890747,474.030823 1510.897583,476.187134 
	C1504.259155,476.940765 1497.864624,479.841187 1490.684814,481.960083 
	C1487.975342,480.426544 1487.439453,477.825165 1489.140015,474.141998 
	C1491.641602,468.723602 1494.082153,463.225861 1495.906250,457.555237 
	C1501.682739,439.597168 1515.063477,431.048645 1532.639771,429.186920 
	C1550.981323,427.244080 1569.489990,426.875458 1587.927124,425.845520 
	C1589.731812,425.744720 1591.546875,425.832092 1593.664795,425.832092 
	C1593.664795,369.659363 1593.664795,313.768616 1593.664795,257.510956 
	C1587.951782,257.510956 1582.325073,257.510956 1576.698242,257.510956 
	C1555.366455,257.510956 1534.034546,257.511200 1512.702759,257.510864 
	C1504.198608,257.510742 1502.878418,255.650436 1505.967041,247.924957 
	C1510.710693,236.059616 1515.481567,224.205170 1520.292480,212.217255 
	C1544.731445,212.217255 1569.043091,212.217255 1593.771851,212.217255 
	C1593.771851,161.766235 1593.771851,111.513901 1593.771851,61.071960 
	C1609.386353,55.560177 1624.688721,50.158588 1640.630127,44.531437 
	C1640.630127,100.639717 1640.630127,156.152039 1640.630127,212.161118 
	C1666.577271,212.161118 1692.020142,212.161118 1717.954956,212.161118 
z"/>
<path fill="#010101" opacity="1.000000" stroke="none" 
	d="
M934.834412,212.115723 
	C935.546753,210.320435 935.968018,208.563293 935.969421,206.805847 
	C936.005310,160.141403 935.997986,113.476936 935.997986,66.812469 
	C935.997986,64.983871 935.997986,63.155273 935.997986,61.007633 
	C951.347046,55.586750 966.650085,50.182125 982.580933,44.555767 
	C982.580933,100.592552 982.580933,156.093887 982.580933,212.161240 
	C984.856201,212.161240 986.625427,212.161255 988.394653,212.161255 
	C1014.393433,212.161285 1040.392212,212.157562 1066.390991,212.164108 
	C1072.378540,212.165619 1074.315552,215.027603 1072.070923,220.654099 
	C1067.704590,231.598618 1063.191895,242.485840 1058.947388,253.476959 
	C1057.756958,256.559662 1056.181885,257.639526 1052.755981,257.608398 
	C1031.425415,257.414673 1010.092224,257.510803 988.759888,257.510803 
	C986.956299,257.510803 985.152649,257.510773 983.084595,257.510773 
	C983.084595,313.602570 983.084595,369.375885 983.084595,425.829712 
	C984.795166,425.829712 986.554504,425.829712 988.313843,425.829712 
	C1018.645752,425.829712 1048.977661,425.826447 1079.309570,425.832367 
	C1085.622070,425.833588 1087.251953,428.258087 1084.890015,434.185547 
	C1080.526733,445.135620 1076.008057,456.025940 1071.820435,467.042358 
	C1070.615112,470.213104 1068.977417,471.096954 1065.635742,471.088196 
	C1017.638367,470.962250 969.640503,470.974731 921.642761,471.013977 
	C898.801392,471.032623 875.972412,471.628754 853.476379,476.037018 
	C846.551208,477.394043 839.854797,479.918671 832.743286,481.999542 
	C829.985168,480.203583 829.561523,477.666779 831.139099,474.225555 
	C833.626587,468.799591 836.083801,463.308990 837.903687,457.637146 
	C843.663208,439.686859 857.001770,431.059509 874.586060,429.196808 
	C893.095154,427.236115 911.774353,426.878296 930.380493,425.843262 
	C932.023621,425.751862 933.676147,425.831116 935.657776,425.831116 
	C935.657776,369.714203 935.657776,313.825439 935.657776,257.510773 
	C933.859497,257.510773 932.080261,257.510803 930.301025,257.510803 
	C904.468933,257.510803 878.636780,257.518799 852.804688,257.504791 
	C846.846130,257.501556 845.167786,254.955124 847.395203,249.377274 
	C851.704041,238.586823 856.114258,227.835587 860.289429,216.993790 
	C861.612244,213.559006 863.162170,211.964172 867.353516,212.020004 
	C889.681519,212.317459 912.015625,212.156235 934.834412,212.115723 
z"/>
<path fill="#020202" opacity="1.000000" stroke="none" 
	d="
M229.835892,53.959263 
	C238.957062,51.381359 247.680603,48.879688 256.856873,46.248188 
	C256.856873,84.194626 256.856873,121.473625 256.856873,159.341629 
	C263.743530,156.580658 270.102814,153.821854 276.607513,151.464310 
	C293.149689,145.468750 309.739624,139.603424 326.347900,133.792923 
	C331.755798,131.900940 332.997864,133.018097 331.979462,138.731354 
	C329.703430,151.500244 327.417480,164.270340 324.816284,176.974564 
	C324.488617,178.574783 322.493134,180.437180 320.844696,181.071182 
	C301.480225,188.518707 282.082306,195.887070 262.573578,202.945663 
	C258.156281,204.543900 256.694855,206.658096 256.718414,211.439713 
	C256.933350,255.091797 256.913910,298.745544 256.812103,342.398468 
	C256.768097,361.264496 255.329346,380.028961 249.254379,398.054108 
	C236.955093,434.547546 212.567581,459.216309 175.851318,471.052917 
	C140.221237,482.539398 104.101593,483.203735 68.184891,472.786682 
	C51.905491,468.065002 37.710423,458.922607 25.434097,446.236176 
	C35.762344,431.881470 46.030643,417.610077 56.236244,403.425812 
	C62.762947,408.257477 69.056648,413.110901 75.547302,417.684845 
	C94.149384,430.793640 115.245781,435.369873 137.516953,434.276154 
	C148.384857,433.742432 159.487518,432.383911 169.900528,429.377899 
	C190.543716,423.418701 201.127945,407.291473 205.685104,387.581604 
	C208.619446,374.890533 209.917236,361.591400 210.105499,348.538177 
	C210.667648,309.558319 210.322266,270.565338 210.323257,231.577469 
	C210.323288,230.753525 210.226059,229.929596 210.151855,228.750900 
	C209.088943,229.115646 208.155624,229.299438 207.355270,229.730255 
	C177.665176,245.712463 149.629333,264.074127 124.743401,287.002747 
	C123.725357,287.940735 121.156113,288.667999 120.406067,288.084351 
	C119.233780,287.172119 118.213676,284.901337 118.491516,283.470703 
	C120.931244,270.908020 123.545280,258.374481 126.424385,245.905472 
	C127.065498,243.128906 128.492905,240.245193 130.344208,238.084061 
	C141.614059,224.928101 155.558701,214.862595 169.909698,205.480927 
	C181.716202,197.762665 194.074081,190.874100 206.330475,183.867767 
	C209.284439,182.179138 210.432770,180.419052 210.419479,176.938507 
	C210.277817,139.783875 210.331467,102.628517 210.331467,65.473351 
	C210.331467,63.656334 210.331451,61.839314 210.331451,59.583622 
	C216.789719,57.708305 223.113998,55.871902 229.835892,53.959263 
z"/>
</svg>