<svg version="1.1" id="Layer_1" xmlns="http://www.w3.org/2000/svg" xmlns:xlink="http://www.w3.org/1999/xlink" x="0px" y="0px"
	 width="100%" viewBox="0 0 1024 512" enable-background="new 0 0 1024 512" xml:space="preserve">
<path fill="#000000" opacity="1.000000" stroke="none" 
	d="
M533.560059,353.634552 
	C535.805847,348.384796 538.122192,343.564911 539.936218,338.562866 
	C541.470703,334.331757 543.972473,332.733551 548.534851,332.832062 
	C556.674133,333.007874 564.824036,333.079559 572.973694,332.125641 
	C584.170105,330.815094 592.283386,324.754730 599.417664,316.596954 
	C617.087463,296.392303 630.617126,273.440277 643.725220,250.213226 
	C649.127258,240.640991 654.168030,230.864014 659.313171,221.148438 
	C660.136841,219.593033 661.398926,218.108368 660.988586,216.038757 
	C658.985901,214.767395 656.765625,215.323837 654.674683,215.319565 
	C631.843506,215.272934 609.012207,215.308533 586.180908,215.288254 
	C578.646301,215.281570 577.290283,213.080048 580.297302,206.057327 
	C583.378418,198.861343 586.635864,191.728287 589.367737,184.400513 
	C590.793701,180.575714 592.982056,179.551132 596.860718,179.574356 
	C622.524170,179.727890 648.190063,179.532516 673.852173,179.774384 
	C678.425415,179.817474 680.604553,178.257401 682.511597,174.233414 
	C696.713257,144.267776 710.040710,113.934372 721.875061,82.951622 
	C722.405579,81.562592 723.149597,80.237183 722.674744,78.598396 
	C719.917603,77.484047 717.057251,77.940506 714.267639,77.938507 
	C661.772400,77.900795 609.277161,77.901718 556.781921,77.891106 
	C555.115723,77.890762 553.441589,77.950615 551.784851,77.814926 
	C547.284729,77.446373 545.537903,74.925644 547.189392,70.649353 
	C550.609131,61.794727 554.288330,53.040638 557.802856,44.222065 
	C558.661072,42.068535 560.153381,41.129585 562.402161,41.143417 
	C564.734802,41.157768 567.067871,41.097977 569.400757,41.098091 
	C627.895508,41.100975 686.390198,41.096668 744.884949,41.129730 
	C750.878662,41.133118 756.873596,41.321323 762.865540,41.503937 
	C767.084045,41.632504 769.881775,47.549904 768.053955,52.717892 
	C762.500977,68.418541 756.432068,83.922493 749.958557,99.265617 
	C739.275146,124.587006 728.127563,149.702423 716.431580,174.573883 
	C715.814819,175.885437 714.829712,177.141342 715.154602,178.864334 
	C716.682495,180.235260 718.602417,179.619995 720.340210,179.627136 
	C734.338684,179.684814 748.337646,179.628876 762.336182,179.673355 
	C768.428894,179.692703 769.851807,181.806885 767.598267,187.367935 
	C764.533447,194.930832 761.238647,202.405685 758.377502,210.043777 
	C756.949219,213.856720 754.915771,215.449738 750.668579,215.388733 
	C734.340088,215.154297 718.004639,215.412170 701.675415,215.205429 
	C697.768433,215.155975 695.765015,216.515106 693.989685,219.959442 
	C676.126770,254.615601 657.917908,289.088593 636.130249,321.506287 
	C629.439087,331.462067 622.145325,340.947296 614.198181,349.986450 
	C603.940796,361.653229 590.720154,366.475403 575.918091,368.187469 
	C562.310730,369.761322 548.632812,369.398468 534.973633,369.360260 
	C529.212036,369.344177 527.823853,367.109619 530.054199,361.783630 
	C531.147339,359.173187 532.291748,356.584198 533.560059,353.634552 
z"/>
<path fill="#000000" opacity="1.000000" stroke="none" 
	d="
M957.000000,165.747101 
	C968.163452,165.748825 978.826904,165.728546 989.490295,165.761078 
	C995.853210,165.780502 997.726074,168.375427 995.428223,174.183823 
	C992.243652,182.233673 988.783142,190.175888 985.689209,198.259293 
	C984.474548,201.432953 982.590088,202.445694 979.294556,202.419327 
	C963.467102,202.292664 947.636414,202.498077 931.810486,202.298019 
	C927.517151,202.243759 925.954163,203.502991 925.966919,207.943359 
	C926.081177,247.597580 926.081848,287.252625 925.908997,326.906525 
	C925.887329,331.883026 927.777893,333.044067 932.386108,333.006042 
	C954.544556,332.823242 976.705322,332.919678 998.865295,332.947021 
	C1006.723938,332.956726 1008.050415,335.013519 1005.076904,342.349548 
	C1002.199646,349.448029 998.986572,356.437195 996.596680,363.696808 
	C995.035034,368.440277 992.371277,369.502289 987.756958,369.481537 
	C951.601990,369.319000 915.444641,369.212280 879.290833,369.475555 
	C863.322388,369.591827 847.332336,370.108215 831.455139,372.224915 
	C824.493713,373.153015 817.716187,374.777710 811.177124,377.345245 
	C809.417847,378.036041 807.793762,378.736206 806.209961,376.906311 
	C804.784851,375.259705 804.960327,373.603821 805.700684,371.796875 
	C808.162537,365.787964 810.463623,359.708801 813.082397,353.769470 
	C818.227966,342.099609 828.438110,337.881714 840.038025,335.646454 
	C853.876038,332.979980 867.923523,333.904938 881.864868,333.080414 
	C886.295837,332.818329 887.955811,331.698212 887.938843,327.055450 
	C887.794189,287.401337 887.812073,247.746368 887.922546,208.092041 
	C887.934387,203.824341 886.629639,202.236557 882.190063,202.282135 
	C863.197815,202.477158 844.202454,202.379257 825.208191,202.355652 
	C817.840454,202.346512 816.528442,200.381577 819.267578,193.539719 
	C822.423645,185.656418 825.742065,177.835281 828.739014,169.892456 
	C829.936340,166.719269 831.793091,165.661850 835.105164,165.693939 
	C849.266113,165.831238 863.429810,165.815628 877.591492,165.717682 
	C888.810059,165.640091 887.823853,167.334564 887.835632,155.686874 
	C887.869995,121.863823 887.943176,88.040115 887.736267,54.218285 
	C887.705688,49.212872 889.255676,46.756359 894.089905,45.285652 
	C902.842041,42.623028 911.387634,39.283276 920.028381,36.251514 
	C921.559509,35.714317 923.028381,34.762115 924.857300,35.288368 
	C926.572632,37.069550 925.993347,39.345154 925.995239,41.425613 
	C926.030151,80.080421 926.028137,118.735275 926.011230,157.390106 
	C926.007568,165.724945 925.966736,165.725891 934.507080,165.732986 
	C941.838074,165.739090 949.169006,165.742645 957.000000,165.747101 
z"/>
<path fill="#000000" opacity="1.000000" stroke="none" 
	d="
M358.244019,369.409485 
	C340.170624,370.469482 322.454285,370.220734 305.122375,374.214783 
	C301.539734,375.040405 298.043213,376.108429 294.721283,377.694427 
	C293.262299,378.390991 291.885956,378.692841 290.624329,377.332886 
	C289.419159,376.033844 288.683319,374.638306 289.478943,372.818848 
	C292.944977,364.892548 295.152832,356.377899 299.872009,349.048553 
	C305.475250,340.346222 314.589355,337.578156 324.077209,335.669342 
	C337.899445,332.888519 351.965759,333.849945 365.913727,333.098694 
	C370.810059,332.834961 372.075897,331.222870 372.059937,326.599945 
	C371.924286,287.267181 371.925781,247.933533 372.060608,208.600754 
	C372.076813,203.870834 370.598633,202.209915 365.751678,202.268982 
	C346.754486,202.500458 327.752838,202.393829 308.752930,202.360245 
	C302.140839,202.348557 300.740479,200.190399 303.211975,193.981201 
	C306.353638,186.088257 309.726318,178.281189 312.633850,170.303864 
	C313.955597,166.677505 316.040833,165.626251 319.713562,165.668884 
	C334.378296,165.839096 349.046051,165.752396 363.712708,165.747650 
	C371.968475,165.744965 371.986511,165.733414 371.987152,157.687469 
	C371.989838,123.520866 372.132233,89.352943 371.831970,55.188938 
	C371.779968,49.273003 373.712616,46.569183 379.242767,44.889500 
	C389.094574,41.897209 398.730011,38.192482 408.280579,34.847122 
	C410.898285,36.897892 410.068207,39.419693 410.070862,41.614262 
	C410.118011,80.614044 410.099518,119.613907 410.089874,158.613754 
	C410.088104,165.756531 410.077393,165.756531 417.243164,165.756821 
	C435.909790,165.757584 454.576477,165.743790 473.243073,165.766693 
	C480.195831,165.775223 481.890594,168.314590 479.266937,174.869919 
	C476.173065,182.600235 472.842560,190.238525 469.885071,198.019516 
	C468.610535,201.372757 466.626862,202.457031 463.124939,202.424393 
	C447.293030,202.276886 431.457855,202.470581 415.626373,202.303162 
	C411.605225,202.260651 410.035187,203.433258 410.046265,207.653320 
	C410.151276,247.652893 410.142334,287.653046 410.017212,327.652557 
	C410.003845,331.931305 411.701630,333.002289 415.663422,332.980591 
	C438.162689,332.857361 460.663025,332.919800 483.162964,332.949341 
	C490.762146,332.959320 492.120697,335.041077 489.279877,342.024353 
	C486.267914,349.428406 483.036255,356.759003 480.421356,364.302246 
	C479.014343,368.361053 476.818817,369.481476 472.716064,369.467194 
	C434.717377,369.334869 396.718079,369.397339 358.244019,369.409485 
z"/>
<path fill="#000000" opacity="1.000000" stroke="none" 
	d="
M158.889435,208.000000 
	C158.888596,198.863159 158.888596,190.226334 158.888596,181.729019 
	C156.119125,180.613525 154.596024,182.312393 152.969391,183.216568 
	C131.802277,194.982422 111.639931,208.188065 93.863838,224.783646 
	C92.427467,226.124634 91.045570,227.831802 88.691612,226.409607 
	C86.545845,225.113220 86.744431,223.290268 87.202072,221.170792 
	C89.202339,211.906937 91.143745,202.629089 92.970078,193.329544 
	C93.750282,189.356812 95.973900,186.373169 98.721992,183.624313 
	C114.078575,168.263535 132.141998,156.639938 151.154877,146.527405 
	C156.939911,143.450470 159.158096,140.129089 159.055023,133.484207 
	C158.644180,106.997559 158.882782,80.500740 158.894852,54.007690 
	C158.898300,46.421463 158.913101,46.398205 166.378708,44.261272 
	C174.538818,41.925549 182.713760,39.641758 190.880112,37.327812 
	C192.459427,36.880314 193.995697,36.148552 196.670288,36.904964 
	C196.670288,65.451546 196.670288,94.229851 196.670288,122.742615 
	C199.434937,123.506355 200.827682,122.386932 202.334641,121.791130 
	C217.977890,115.606171 233.708420,109.663269 249.770370,104.637901 
	C254.941956,103.019844 256.250427,104.015762 255.371628,109.359344 
	C253.779251,119.041771 251.865295,128.671478 250.288086,138.356155 
	C249.780731,141.471558 247.634720,142.301636 245.227814,143.123199 
	C230.726898,148.072968 216.461792,153.646240 202.180588,159.188950 
	C197.770538,160.900528 196.463425,163.166534 196.482315,168.046799 
	C196.630508,206.360764 197.183197,244.703400 195.941254,282.983032 
	C194.930115,314.148865 182.587540,340.532196 155.990860,358.645691 
	C139.441696,369.916321 120.570442,374.737457 100.908958,376.058807 
	C85.801994,377.074097 70.639580,376.871887 55.697327,373.337524 
	C41.089718,369.882263 28.409447,362.984985 17.167252,353.170868 
	C14.533135,350.871368 14.219153,348.901337 16.384876,345.988464 
	C23.043240,337.033020 29.570604,327.974792 35.923859,318.800690 
	C38.267628,315.416321 40.076283,315.479065 42.995251,318.132782 
	C65.996094,339.043518 93.050171,343.677277 122.621811,337.418549 
	C142.949554,333.116211 152.210480,318.557068 156.572861,299.783173 
	C158.426331,291.806671 158.881775,283.666656 158.866257,275.482117 
	C158.823929,253.154846 158.875763,230.827377 158.889435,208.000000 
z"/>
<path fill="chocolate" opacity="1.000000" stroke="none" 
	d="
M171.459473,469.552460 
	C161.148056,460.833191 151.113861,452.337524 140.603271,443.438507 
	C133.765182,449.170868 127.032387,454.773834 120.344276,460.429626 
	C103.813667,474.408783 87.250587,488.350525 70.831696,502.459900 
	C67.700073,505.150970 64.486046,506.415741 60.404091,506.106934 
	C55.635277,505.746155 50.801762,506.561432 46.173965,505.640808 
	C45.079651,503.602997 46.556831,502.606415 47.392170,501.492645 
	C71.179871,469.775848 95.009064,438.090118 118.763336,406.348328 
	C120.536583,403.978821 122.548653,402.911530 125.495277,402.945007 
	C135.491150,403.058563 145.489548,403.089325 155.485336,402.988312 
	C158.652328,402.956329 160.719727,404.221680 162.583267,406.709686 
	C186.152542,438.177307 209.800064,469.586273 233.404083,501.027863 
	C234.267120,502.177429 235.522720,503.211182 235.139435,505.907166 
	C226.052704,505.059998 216.742752,508.876709 208.222504,500.915771 
	C196.551346,490.010620 183.943253,480.108215 171.459473,469.552460 
z"/>
</svg>